<svg width="32" height="32" viewBox="0 0 32 32" fill="none" xmlns="http://www.w3.org/2000/svg">
<path fill-rule="evenodd" clip-rule="evenodd" d="M11.301 28.3333C10.7998 28.3333 10.3241 28.2944 9.87633 28.2177L9.61109 28.1679C6.72637 27.568 5.0498 25.3586 5.0498 21.9957V10.3376C5.0498 9.93122 5.07414 9.54189 5.1228 9.16959C5.54742 5.90284 7.79217 3.99997 11.301 3.99997H20.6998C24.5883 3.99997 26.9133 6.33597 26.9498 10.2439V10.3376V21.9957C26.9498 25.9584 24.6187 28.3333 20.6998 28.3333H11.301ZM11.3011 5.77267C8.31292 5.77267 6.79817 7.30932 6.79817 10.3376V21.9957C6.79817 25.024 8.31292 26.5607 11.3011 26.5607H20.6889C23.6758 26.5607 25.1808 25.024 25.1808 21.9957V10.3376C25.1808 7.30932 23.6758 5.77267 20.6889 5.77267H11.3011ZM21.2388 21.318C21.2388 20.8313 20.8507 20.4371 20.3713 20.4371H11.5979C11.1185 20.4371 10.7292 20.8313 10.7292 21.318C10.7292 21.8047 11.1185 22.1989 11.5979 22.1989H20.3713C20.8507 22.1989 21.2388 21.8047 21.2388 21.318ZM20.3714 15.2797C20.7059 15.2432 21.0332 15.4038 21.2121 15.6921C21.3909 15.9829 21.3909 16.3504 21.2121 16.6411C21.0332 16.9295 20.7059 17.0901 20.3714 17.0536H11.598C11.1527 17.0025 10.8156 16.6217 10.8156 16.1666C10.8156 15.7116 11.1527 15.3296 11.598 15.2797H20.3714ZM15.7284 11.0213C15.7284 10.5663 15.3914 10.1843 14.9461 10.1344H11.6088C11.1622 10.1843 10.8252 10.5663 10.8252 11.0213C10.8252 11.4752 11.1622 11.8572 11.6088 11.9071H14.9461C15.3914 11.8572 15.7284 11.4752 15.7284 11.0213Z" fill="#505050"/>
</svg>
