<svg width="1971" height="108" viewBox="0 0 1971 108" fill="none" xmlns="http://www.w3.org/2000/svg">
<rect x="31.5" y="28" width="145" height="50" rx="25" fill="#F6F9FE"/>
<path d="M65.6562 46.7031V59.5H63.4502V46.7031H65.6562ZM70.2881 52.0205V59.5H68.1699V49.9902H70.165L70.2881 52.0205ZM69.9102 54.3936L69.2246 54.3848C69.2305 53.7109 69.3242 53.0928 69.5059 52.5303C69.6934 51.9678 69.9512 51.4844 70.2793 51.0801C70.6133 50.6758 71.0117 50.3652 71.4746 50.1484C71.9375 49.9258 72.4531 49.8145 73.0215 49.8145C73.4785 49.8145 73.8916 49.8789 74.2607 50.0078C74.6357 50.1309 74.9551 50.333 75.2188 50.6143C75.4883 50.8955 75.6934 51.2617 75.834 51.7129C75.9746 52.1582 76.0449 52.7061 76.0449 53.3564V59.5H73.918V53.3477C73.918 52.8906 73.8506 52.5303 73.7158 52.2666C73.5869 51.9971 73.3965 51.8066 73.1445 51.6953C72.8984 51.5781 72.5908 51.5195 72.2217 51.5195C71.8584 51.5195 71.5332 51.5957 71.2461 51.748C70.959 51.9004 70.7158 52.1084 70.5166 52.3721C70.3232 52.6357 70.1738 52.9404 70.0684 53.2861C69.9629 53.6318 69.9102 54.001 69.9102 54.3936ZM82.5664 49.9902V51.5371H77.2051V49.9902H82.5664ZM78.752 47.6611H80.8701V56.8721C80.8701 57.165 80.9111 57.3906 80.9932 57.5488C81.0811 57.7012 81.2012 57.8037 81.3535 57.8564C81.5059 57.9092 81.6846 57.9355 81.8896 57.9355C82.0361 57.9355 82.1768 57.9268 82.3115 57.9092C82.4463 57.8916 82.5547 57.874 82.6367 57.8564L82.6455 59.4736C82.4697 59.5264 82.2646 59.5732 82.0303 59.6143C81.8018 59.6553 81.5381 59.6758 81.2393 59.6758C80.7529 59.6758 80.3223 59.5908 79.9473 59.4209C79.5723 59.2451 79.2793 58.9609 79.0684 58.5684C78.8574 58.1758 78.752 57.6543 78.752 57.0039V47.6611ZM88.3936 59.6758C87.6904 59.6758 87.0547 59.5615 86.4863 59.333C85.9238 59.0986 85.4434 58.7734 85.0449 58.3574C84.6523 57.9414 84.3506 57.4521 84.1396 56.8896C83.9287 56.3271 83.8232 55.7207 83.8232 55.0703V54.7188C83.8232 53.9746 83.9316 53.3008 84.1484 52.6973C84.3652 52.0938 84.667 51.5781 85.0537 51.1504C85.4404 50.7168 85.8975 50.3857 86.4248 50.1572C86.9521 49.9287 87.5234 49.8145 88.1387 49.8145C88.8184 49.8145 89.4131 49.9287 89.9229 50.1572C90.4326 50.3857 90.8545 50.708 91.1885 51.124C91.5283 51.5342 91.7803 52.0234 91.9443 52.5918C92.1143 53.1602 92.1992 53.7871 92.1992 54.4727V55.3779H84.8516V53.8574H90.1074V53.6904C90.0957 53.3096 90.0195 52.9521 89.8789 52.6182C89.7441 52.2842 89.5361 52.0146 89.2549 51.8096C88.9736 51.6045 88.5986 51.502 88.1299 51.502C87.7783 51.502 87.4648 51.5781 87.1895 51.7305C86.9199 51.877 86.6943 52.0908 86.5127 52.3721C86.3311 52.6533 86.1904 52.9932 86.0908 53.3916C85.9971 53.7842 85.9502 54.2266 85.9502 54.7188V55.0703C85.9502 55.4863 86.0059 55.873 86.1172 56.2305C86.2344 56.582 86.4043 56.8896 86.627 57.1533C86.8496 57.417 87.1191 57.625 87.4355 57.7773C87.752 57.9238 88.1123 57.9971 88.5166 57.9971C89.0264 57.9971 89.4805 57.8945 89.8789 57.6895C90.2773 57.4844 90.623 57.1943 90.916 56.8193L92.0322 57.9004C91.8271 58.1992 91.5605 58.4863 91.2324 58.7617C90.9043 59.0312 90.5029 59.251 90.0283 59.4209C89.5596 59.5908 89.0146 59.6758 88.3936 59.6758ZM95.9785 51.8008V59.5H93.8604V49.9902H95.8818L95.9785 51.8008ZM98.8877 49.9287L98.8701 51.8975C98.7412 51.874 98.6006 51.8564 98.4482 51.8447C98.3018 51.833 98.1553 51.8271 98.0088 51.8271C97.6455 51.8271 97.3262 51.8799 97.0508 51.9854C96.7754 52.085 96.5439 52.2314 96.3564 52.4248C96.1748 52.6123 96.0342 52.8408 95.9346 53.1104C95.835 53.3799 95.7764 53.6816 95.7588 54.0156L95.2754 54.0508C95.2754 53.4531 95.334 52.8994 95.4512 52.3896C95.5684 51.8799 95.7441 51.4316 95.9785 51.0449C96.2188 50.6582 96.5176 50.3564 96.875 50.1396C97.2383 49.9229 97.6572 49.8145 98.1318 49.8145C98.2607 49.8145 98.3984 49.8262 98.5449 49.8496C98.6973 49.873 98.8115 49.8994 98.8877 49.9287ZM103.467 57.8213L105.796 49.9902H107.993L104.688 59.5H103.317L103.467 57.8213ZM101.683 49.9902L104.056 57.8564L104.17 59.5H102.799L99.4766 49.9902H101.683ZM111.57 49.9902V59.5H109.443V49.9902H111.57ZM109.303 47.4941C109.303 47.1719 109.408 46.9053 109.619 46.6943C109.836 46.4775 110.135 46.3691 110.516 46.3691C110.891 46.3691 111.187 46.4775 111.403 46.6943C111.62 46.9053 111.729 47.1719 111.729 47.4941C111.729 47.8105 111.62 48.0742 111.403 48.2852C111.187 48.4961 110.891 48.6016 110.516 48.6016C110.135 48.6016 109.836 48.4961 109.619 48.2852C109.408 48.0742 109.303 47.8105 109.303 47.4941ZM118.083 59.6758C117.38 59.6758 116.744 59.5615 116.176 59.333C115.613 59.0986 115.133 58.7734 114.734 58.3574C114.342 57.9414 114.04 57.4521 113.829 56.8896C113.618 56.3271 113.513 55.7207 113.513 55.0703V54.7188C113.513 53.9746 113.621 53.3008 113.838 52.6973C114.055 52.0938 114.356 51.5781 114.743 51.1504C115.13 50.7168 115.587 50.3857 116.114 50.1572C116.642 49.9287 117.213 49.8145 117.828 49.8145C118.508 49.8145 119.103 49.9287 119.612 50.1572C120.122 50.3857 120.544 50.708 120.878 51.124C121.218 51.5342 121.47 52.0234 121.634 52.5918C121.804 53.1602 121.889 53.7871 121.889 54.4727V55.3779H114.541V53.8574H119.797V53.6904C119.785 53.3096 119.709 52.9521 119.568 52.6182C119.434 52.2842 119.226 52.0146 118.944 51.8096C118.663 51.6045 118.288 51.502 117.819 51.502C117.468 51.502 117.154 51.5781 116.879 51.7305C116.609 51.877 116.384 52.0908 116.202 52.3721C116.021 52.6533 115.88 52.9932 115.78 53.3916C115.687 53.7842 115.64 54.2266 115.64 54.7188V55.0703C115.64 55.4863 115.695 55.873 115.807 56.2305C115.924 56.582 116.094 56.8896 116.316 57.1533C116.539 57.417 116.809 57.625 117.125 57.7773C117.441 57.9238 117.802 57.9971 118.206 57.9971C118.716 57.9971 119.17 57.8945 119.568 57.6895C119.967 57.4844 120.312 57.1943 120.605 56.8193L121.722 57.9004C121.517 58.1992 121.25 58.4863 120.922 58.7617C120.594 59.0312 120.192 59.251 119.718 59.4209C119.249 59.5908 118.704 59.6758 118.083 59.6758ZM126.125 57.3906L128.322 49.9902H129.676L129.307 52.2051L127.092 59.5H125.879L126.125 57.3906ZM124.833 49.9902L126.547 57.4258L126.688 59.5H125.334L122.759 49.9902H124.833ZM131.732 57.3379L133.394 49.9902H135.459L132.893 59.5H131.539L131.732 57.3379ZM129.904 49.9902L132.075 57.3027L132.348 59.5H131.135L128.894 52.1963L128.524 49.9902H129.904ZM142.235 56.9248C142.235 56.7139 142.183 56.5234 142.077 56.3535C141.972 56.1777 141.77 56.0195 141.471 55.8789C141.178 55.7383 140.744 55.6094 140.17 55.4922C139.666 55.3809 139.203 55.249 138.781 55.0967C138.365 54.9385 138.008 54.748 137.709 54.5254C137.41 54.3027 137.179 54.0391 137.015 53.7344C136.851 53.4297 136.769 53.0781 136.769 52.6797C136.769 52.293 136.854 51.9268 137.023 51.5811C137.193 51.2354 137.437 50.9307 137.753 50.667C138.069 50.4033 138.453 50.1953 138.904 50.043C139.361 49.8906 139.871 49.8145 140.434 49.8145C141.23 49.8145 141.913 49.9492 142.481 50.2188C143.056 50.4824 143.495 50.8428 143.8 51.2998C144.104 51.751 144.257 52.2607 144.257 52.8291H142.139C142.139 52.5771 142.074 52.3428 141.945 52.126C141.822 51.9033 141.635 51.7246 141.383 51.5898C141.131 51.4492 140.814 51.3789 140.434 51.3789C140.07 51.3789 139.769 51.4375 139.528 51.5547C139.294 51.666 139.118 51.8125 139.001 51.9941C138.89 52.1758 138.834 52.375 138.834 52.5918C138.834 52.75 138.863 52.8936 138.922 53.0225C138.986 53.1455 139.092 53.2598 139.238 53.3652C139.385 53.4648 139.584 53.5586 139.836 53.6465C140.094 53.7344 140.416 53.8193 140.803 53.9014C141.529 54.0537 142.153 54.25 142.675 54.4902C143.202 54.7246 143.606 55.0293 143.888 55.4043C144.169 55.7734 144.31 56.2422 144.31 56.8105C144.31 57.2324 144.219 57.6191 144.037 57.9707C143.861 58.3164 143.604 58.6182 143.264 58.876C142.924 59.1279 142.517 59.3242 142.042 59.4648C141.573 59.6055 141.046 59.6758 140.46 59.6758C139.599 59.6758 138.869 59.5234 138.271 59.2188C137.674 58.9082 137.22 58.5127 136.909 58.0322C136.604 57.5459 136.452 57.042 136.452 56.5205H138.5C138.523 56.9131 138.632 57.2266 138.825 57.4609C139.024 57.6895 139.271 57.8564 139.563 57.9619C139.862 58.0615 140.17 58.1113 140.486 58.1113C140.867 58.1113 141.187 58.0615 141.444 57.9619C141.702 57.8564 141.898 57.7158 142.033 57.54C142.168 57.3584 142.235 57.1533 142.235 56.9248Z" fill="#5384ED"/>
<rect x="31.5" y="28" width="145" height="50" rx="25" stroke="#5384ED" stroke-width="3"/>
<path d="M250 53L240 47.2265L240 58.7735L250 53ZM183.333 53C183.333 50.0545 180.946 47.6666 178 47.6666C175.054 47.6666 172.667 50.0545 172.667 53C172.667 55.9455 175.054 58.3333 178 58.3333C180.946 58.3333 183.333 55.9455 183.333 53ZM241 52L178 52L178 54L241 54L241 52Z" fill="#5384ED"/>
<path d="M358.391 13.4975C361.045 12.5303 363.955 12.5303 366.609 13.4975L459.532 47.3627C464.793 49.2799 464.793 56.7201 459.532 58.6373L366.609 92.5025C363.955 93.4697 361.045 93.4697 358.391 92.5025L265.468 58.6373C260.208 56.7201 260.208 49.2799 265.468 47.3627L358.391 13.4975Z" fill="url(#paint0_linear_3267_10981)" stroke="#E2EDFD" stroke-width="3"/>
<path d="M289.374 56.4785C289.374 56.2324 289.336 56.0127 289.26 55.8193C289.19 55.6201 289.058 55.4414 288.865 55.2832C288.677 55.1191 288.411 54.9609 288.065 54.8086C287.725 54.6504 287.286 54.4863 286.747 54.3164C286.149 54.1289 285.592 53.918 285.077 53.6836C284.561 53.4492 284.107 53.1768 283.714 52.8662C283.328 52.5557 283.026 52.1982 282.809 51.7939C282.592 51.3838 282.484 50.9092 282.484 50.3701C282.484 49.8428 282.595 49.3623 282.818 48.9287C283.046 48.4951 283.369 48.123 283.785 47.8125C284.201 47.4961 284.69 47.2529 285.252 47.083C285.821 46.9131 286.448 46.8281 287.133 46.8281C288.082 46.8281 288.903 47.001 289.594 47.3467C290.291 47.6924 290.831 48.1611 291.211 48.7529C291.592 49.3447 291.783 50.0098 291.783 50.748H289.374C289.374 50.3496 289.289 49.998 289.12 49.6934C288.956 49.3887 288.704 49.1484 288.364 48.9727C288.03 48.7969 287.608 48.709 287.098 48.709C286.606 48.709 286.196 48.7822 285.868 48.9287C285.545 49.0752 285.302 49.2744 285.138 49.5264C284.98 49.7783 284.901 50.0596 284.901 50.3701C284.901 50.6045 284.956 50.8154 285.068 51.0029C285.179 51.1846 285.346 51.3574 285.569 51.5215C285.791 51.6797 286.067 51.8291 286.395 51.9697C286.729 52.1045 287.116 52.2393 287.555 52.374C288.258 52.585 288.873 52.8193 289.401 53.0771C289.934 53.335 290.376 53.6279 290.728 53.9561C291.085 54.2842 291.352 54.6533 291.528 55.0635C291.709 55.4736 291.8 55.9395 291.8 56.4609C291.8 57.0117 291.692 57.5039 291.475 57.9375C291.258 58.3711 290.948 58.7402 290.543 59.0449C290.139 59.3496 289.653 59.5811 289.084 59.7393C288.522 59.8975 287.892 59.9766 287.195 59.9766C286.574 59.9766 285.958 59.8945 285.349 59.7305C284.746 59.5605 284.198 59.3086 283.706 58.9746C283.213 58.6348 282.821 58.207 282.528 57.6914C282.235 57.1699 282.088 56.5605 282.088 55.8633H284.514C284.514 56.2676 284.579 56.6133 284.707 56.9004C284.842 57.1816 285.03 57.4131 285.27 57.5947C285.516 57.7705 285.803 57.8994 286.131 57.9814C286.459 58.0635 286.814 58.1045 287.195 58.1045C287.687 58.1045 288.091 58.0371 288.408 57.9023C288.73 57.7617 288.97 57.5684 289.128 57.3223C289.292 57.0762 289.374 56.7949 289.374 56.4785ZM297.39 58.1484C297.718 58.1484 298.011 58.084 298.269 57.9551C298.527 57.8262 298.732 57.6445 298.884 57.4102C299.042 57.1758 299.127 56.9033 299.139 56.5928H301.328C301.316 57.2373 301.134 57.8145 300.783 58.3242C300.431 58.834 299.962 59.2383 299.376 59.5371C298.796 59.8301 298.146 59.9766 297.425 59.9766C296.693 59.9766 296.054 59.8535 295.509 59.6074C294.964 59.3613 294.51 59.0186 294.147 58.5791C293.789 58.1396 293.52 57.6299 293.338 57.0498C293.163 56.4697 293.075 55.8486 293.075 55.1865V54.9053C293.075 54.2432 293.163 53.6221 293.338 53.042C293.52 52.4619 293.789 51.9521 294.147 51.5127C294.51 51.0732 294.964 50.7305 295.509 50.4844C296.054 50.2383 296.69 50.1152 297.416 50.1152C298.184 50.1152 298.858 50.2646 299.438 50.5635C300.024 50.8623 300.481 51.2842 300.809 51.8291C301.143 52.374 301.316 53.0156 301.328 53.7539H299.139C299.127 53.4141 299.051 53.1094 298.911 52.8398C298.77 52.5703 298.571 52.3535 298.313 52.1895C298.055 52.0254 297.742 51.9434 297.373 51.9434C296.98 51.9434 296.652 52.0254 296.388 52.1895C296.13 52.3535 295.928 52.5791 295.782 52.8662C295.641 53.1475 295.541 53.4639 295.483 53.8154C295.43 54.1611 295.404 54.5244 295.404 54.9053V55.1865C295.404 55.5732 295.43 55.9424 295.483 56.2939C295.541 56.6455 295.641 56.9619 295.782 57.2432C295.928 57.5186 296.13 57.7383 296.388 57.9023C296.652 58.0664 296.986 58.1484 297.39 58.1484ZM305.151 46.3008V59.8008H302.822V46.3008H305.151ZM304.782 54.7031H304.096C304.096 54.041 304.184 53.4316 304.36 52.875C304.536 52.3184 304.785 51.835 305.107 51.4248C305.429 51.0088 305.813 50.6865 306.258 50.458C306.709 50.2295 307.207 50.1152 307.752 50.1152C308.221 50.1152 308.646 50.1826 309.027 50.3174C309.414 50.4463 309.745 50.6543 310.02 50.9414C310.295 51.2285 310.506 51.6035 310.653 52.0664C310.805 52.5234 310.881 53.0801 310.881 53.7363V59.8008H308.543V53.7187C308.543 53.2793 308.479 52.9336 308.35 52.6816C308.221 52.4238 308.037 52.2393 307.796 52.1279C307.562 52.0166 307.272 51.9609 306.926 51.9609C306.551 51.9609 306.229 52.0342 305.959 52.1807C305.69 52.3213 305.467 52.5176 305.291 52.7695C305.122 53.0215 304.993 53.3115 304.905 53.6396C304.823 53.9678 304.782 54.3223 304.782 54.7031ZM317.201 59.9766C316.48 59.9766 315.832 59.8594 315.258 59.625C314.684 59.3906 314.195 59.0654 313.79 58.6494C313.392 58.2275 313.084 57.7383 312.868 57.1816C312.657 56.6191 312.551 56.0156 312.551 55.3711V55.0195C312.551 54.2871 312.657 53.6221 312.868 53.0244C313.079 52.4209 313.377 51.9023 313.764 51.4687C314.151 51.0352 314.614 50.7012 315.153 50.4668C315.692 50.2324 316.287 50.1152 316.937 50.1152C317.611 50.1152 318.206 50.2295 318.721 50.458C319.237 50.6807 319.667 50.9971 320.013 51.4072C320.359 51.8174 320.62 52.3096 320.795 52.8838C320.971 53.4521 321.059 54.082 321.059 54.7734V55.749H313.606V54.1494H318.774V53.9736C318.762 53.6045 318.692 53.2676 318.563 52.9629C318.434 52.6523 318.235 52.4062 317.965 52.2246C317.696 52.0371 317.347 51.9434 316.919 51.9434C316.574 51.9434 316.272 52.0195 316.014 52.1719C315.762 52.3184 315.551 52.5293 315.381 52.8047C315.217 53.0742 315.094 53.3965 315.012 53.7715C314.93 54.1465 314.889 54.5625 314.889 55.0195V55.3711C314.889 55.7695 314.942 56.1387 315.047 56.4785C315.159 56.8184 315.32 57.1143 315.531 57.3662C315.748 57.6123 316.005 57.8057 316.304 57.9463C316.609 58.0811 316.955 58.1484 317.341 58.1484C317.828 58.1484 318.267 58.0547 318.66 57.8672C319.058 57.6738 319.404 57.3896 319.697 57.0146L320.866 58.2275C320.666 58.5205 320.397 58.8018 320.057 59.0713C319.723 59.3408 319.319 59.5605 318.844 59.7305C318.37 59.8945 317.822 59.9766 317.201 59.9766ZM328.319 57.7793V46.3008H330.657V59.8008H328.547L328.319 57.7793ZM322.21 55.1602V54.9756C322.21 54.249 322.292 53.5898 322.456 52.998C322.626 52.4004 322.873 51.8877 323.195 51.46C323.517 51.0322 323.907 50.7012 324.364 50.4668C324.827 50.2324 325.351 50.1152 325.937 50.1152C326.505 50.1152 327 50.2295 327.422 50.458C327.85 50.6865 328.213 51.0117 328.512 51.4336C328.817 51.8555 329.06 52.3564 329.242 52.9365C329.423 53.5107 329.555 54.1436 329.637 54.835V55.3359C329.555 56.0098 329.423 56.6279 329.242 57.1904C329.06 57.7529 328.817 58.2451 328.512 58.667C328.213 59.083 327.85 59.4053 327.422 59.6338C326.995 59.8623 326.494 59.9766 325.919 59.9766C325.339 59.9766 324.818 59.8564 324.355 59.6162C323.898 59.376 323.508 59.0391 323.186 58.6055C322.87 58.1719 322.626 57.6621 322.456 57.0762C322.292 56.4902 322.21 55.8516 322.21 55.1602ZM324.539 54.9756V55.1602C324.539 55.5703 324.575 55.9541 324.645 56.3115C324.715 56.6689 324.83 56.9854 324.988 57.2607C325.146 57.5303 325.348 57.7412 325.594 57.8936C325.846 58.0459 326.151 58.1221 326.508 58.1221C326.965 58.1221 327.34 58.0225 327.633 57.8232C327.932 57.6182 328.164 57.3398 328.328 56.9883C328.492 56.6309 328.597 56.2295 328.644 55.7842V54.4043C328.621 54.0527 328.559 53.7275 328.459 53.4287C328.366 53.1299 328.231 52.8721 328.055 52.6553C327.885 52.4385 327.674 52.2686 327.422 52.1455C327.17 52.0225 326.872 51.9609 326.526 51.9609C326.168 51.9609 325.864 52.04 325.612 52.1982C325.36 52.3506 325.155 52.5645 324.997 52.8398C324.838 53.1152 324.721 53.4346 324.645 53.7979C324.575 54.1611 324.539 54.5537 324.539 54.9756ZM338.417 57.542V50.291H340.755V59.8008H338.558L338.417 57.542ZM338.716 55.5732L339.437 55.5557C339.437 56.1943 339.367 56.7832 339.226 57.3223C339.085 57.8613 338.866 58.3301 338.567 58.7285C338.274 59.1211 337.902 59.4287 337.451 59.6514C336.999 59.8682 336.466 59.9766 335.851 59.9766C335.382 59.9766 334.955 59.9121 334.568 59.7832C334.181 59.6484 333.847 59.4404 333.566 59.1592C333.29 58.8721 333.077 58.5059 332.924 58.0605C332.772 57.6094 332.696 57.0674 332.696 56.4346V50.291H335.016V56.4521C335.016 56.7686 335.051 57.0322 335.122 57.2432C335.198 57.4541 335.3 57.627 335.429 57.7617C335.564 57.8906 335.719 57.9844 335.895 58.043C336.077 58.0957 336.27 58.1221 336.475 58.1221C337.038 58.1221 337.48 58.0107 337.802 57.7881C338.13 57.5596 338.365 57.2549 338.505 56.874C338.646 56.4873 338.716 56.0537 338.716 55.5732ZM345.273 46.3008V59.8008H342.944V46.3008H345.273ZM351.759 59.9766C351.039 59.9766 350.391 59.8594 349.817 59.625C349.243 59.3906 348.753 59.0654 348.349 58.6494C347.951 58.2275 347.643 57.7383 347.426 57.1816C347.215 56.6191 347.11 56.0156 347.11 55.3711V55.0195C347.11 54.2871 347.215 53.6221 347.426 53.0244C347.637 52.4209 347.936 51.9023 348.323 51.4687C348.709 51.0352 349.172 50.7012 349.711 50.4668C350.25 50.2324 350.845 50.1152 351.496 50.1152C352.169 50.1152 352.764 50.2295 353.28 50.458C353.795 50.6807 354.226 50.9971 354.572 51.4072C354.917 51.8174 355.178 52.3096 355.354 52.8838C355.53 53.4521 355.618 54.082 355.618 54.7734V55.749H348.164V54.1494H353.332V53.9736C353.321 53.6045 353.25 53.2676 353.122 52.9629C352.993 52.6523 352.793 52.4062 352.524 52.2246C352.254 52.0371 351.906 51.9434 351.478 51.9434C351.132 51.9434 350.831 52.0195 350.573 52.1719C350.321 52.3184 350.11 52.5293 349.94 52.8047C349.776 53.0742 349.653 53.3965 349.571 53.7715C349.489 54.1465 349.448 54.5625 349.448 55.0195V55.3711C349.448 55.7695 349.5 56.1387 349.606 56.4785C349.717 56.8184 349.878 57.1143 350.089 57.3662C350.306 57.6123 350.564 57.8057 350.863 57.9463C351.167 58.0811 351.513 58.1484 351.9 58.1484C352.386 58.1484 352.826 58.0547 353.218 57.8672C353.617 57.6738 353.962 57.3896 354.255 57.0146L355.424 58.2275C355.225 58.5205 354.956 58.8018 354.616 59.0713C354.282 59.3408 353.877 59.5605 353.403 59.7305C352.928 59.8945 352.38 59.9766 351.759 59.9766ZM364.117 50.291V59.8008H361.788V50.291H364.117ZM361.629 47.8037C361.629 47.458 361.747 47.1709 361.981 46.9424C362.221 46.7139 362.543 46.5996 362.948 46.5996C363.352 46.5996 363.671 46.7139 363.906 46.9424C364.146 47.1709 364.266 47.458 364.266 47.8037C364.266 48.1436 364.146 48.4277 363.906 48.6562C363.671 48.8848 363.352 48.999 362.948 48.999C362.543 48.999 362.221 48.8848 361.981 48.6562C361.747 48.4277 361.629 48.1436 361.629 47.8037ZM368.608 52.3213V59.8008H366.288V50.291H368.467L368.608 52.3213ZM368.239 54.7031H367.553C367.559 54.0117 367.653 53.3848 367.834 52.8223C368.016 52.2598 368.271 51.7764 368.599 51.3721C368.933 50.9678 369.329 50.6572 369.786 50.4404C370.243 50.2236 370.752 50.1152 371.315 50.1152C371.772 50.1152 372.185 50.1797 372.554 50.3086C372.923 50.4375 373.24 50.6426 373.503 50.9238C373.773 51.2051 373.978 51.5742 374.119 52.0312C374.265 52.4824 374.338 53.0391 374.338 53.7012V59.8008H372V53.6836C372 53.25 371.936 52.9072 371.807 52.6553C371.684 52.4033 371.502 52.2246 371.262 52.1191C371.028 52.0137 370.738 51.9609 370.392 51.9609C370.035 51.9609 369.721 52.0342 369.452 52.1807C369.188 52.3213 368.965 52.5176 368.784 52.7695C368.608 53.0215 368.473 53.3115 368.379 53.6396C368.286 53.9678 368.239 54.3223 368.239 54.7031ZM380.886 50.291V51.9609H375.437V50.291H380.886ZM376.896 47.9531H379.225V57.0586C379.225 57.3398 379.263 57.5566 379.339 57.709C379.415 57.8613 379.53 57.9639 379.682 58.0166C379.834 58.0693 380.016 58.0957 380.227 58.0957C380.379 58.0957 380.52 58.0869 380.649 58.0693C380.778 58.0518 380.886 58.0342 380.974 58.0166L380.983 59.7568C380.789 59.8213 380.57 59.874 380.324 59.915C380.083 59.9561 379.811 59.9766 379.506 59.9766C378.985 59.9766 378.528 59.8887 378.135 59.7129C377.743 59.5312 377.438 59.2412 377.221 58.8428C377.004 58.4385 376.896 57.9053 376.896 57.2432V47.9531ZM386.705 59.9766C385.984 59.9766 385.336 59.8594 384.762 59.625C384.188 59.3906 383.699 59.0654 383.294 58.6494C382.896 58.2275 382.588 57.7383 382.372 57.1816C382.161 56.6191 382.055 56.0156 382.055 55.3711V55.0195C382.055 54.2871 382.161 53.6221 382.372 53.0244C382.582 52.4209 382.881 51.9023 383.268 51.4687C383.655 51.0352 384.118 50.7012 384.657 50.4668C385.196 50.2324 385.79 50.1152 386.441 50.1152C387.115 50.1152 387.709 50.2295 388.225 50.458C388.741 50.6807 389.171 50.9971 389.517 51.4072C389.863 51.8174 390.123 52.3096 390.299 52.8838C390.475 53.4521 390.563 54.082 390.563 54.7734V55.749H383.11V54.1494H388.278V53.9736C388.266 53.6045 388.196 53.2676 388.067 52.9629C387.938 52.6523 387.739 52.4062 387.469 52.2246C387.2 52.0371 386.851 51.9434 386.423 51.9434C386.078 51.9434 385.776 52.0195 385.518 52.1719C385.266 52.3184 385.055 52.5293 384.885 52.8047C384.721 53.0742 384.598 53.3965 384.516 53.7715C384.434 54.1465 384.393 54.5625 384.393 55.0195V55.3711C384.393 55.7695 384.446 56.1387 384.551 56.4785C384.663 56.8184 384.824 57.1143 385.035 57.3662C385.251 57.6123 385.509 57.8057 385.808 57.9463C386.113 58.0811 386.458 58.1484 386.845 58.1484C387.331 58.1484 387.771 58.0547 388.164 57.8672C388.562 57.6738 388.908 57.3896 389.201 57.0146L390.37 58.2275C390.17 58.5205 389.901 58.8018 389.561 59.0713C389.227 59.3408 388.823 59.5605 388.348 59.7305C387.873 59.8945 387.326 59.9766 386.705 59.9766ZM394.439 52.2334V59.8008H392.119V50.291H394.316L394.439 52.2334ZM397.33 50.2295L397.295 52.3916C397.166 52.3682 397.02 52.3506 396.856 52.3389C396.698 52.3271 396.548 52.3213 396.408 52.3213C396.05 52.3213 395.737 52.3711 395.467 52.4707C395.198 52.5645 394.972 52.7021 394.79 52.8838C394.615 53.0654 394.48 53.2881 394.386 53.5518C394.292 53.8096 394.24 54.1025 394.228 54.4307L393.727 54.3691C393.727 53.7656 393.789 53.2061 393.912 52.6904C394.035 52.1748 394.213 51.7236 394.448 51.3369C394.682 50.9502 394.975 50.6514 395.327 50.4404C395.684 50.2236 396.094 50.1152 396.557 50.1152C396.686 50.1152 396.824 50.127 396.97 50.1504C397.122 50.168 397.243 50.1943 397.33 50.2295ZM401.918 58.043L404.133 50.291H406.559L403.298 59.8008H401.822L401.918 58.043ZM400.301 50.291L402.542 58.0605L402.622 59.8008H401.136L397.867 50.291H400.301ZM410.242 50.291V59.8008H407.913V50.291H410.242ZM407.754 47.8037C407.754 47.458 407.872 47.1709 408.106 46.9424C408.346 46.7139 408.668 46.5996 409.073 46.5996C409.477 46.5996 409.796 46.7139 410.031 46.9424C410.271 47.1709 410.391 47.458 410.391 47.8037C410.391 48.1436 410.271 48.4277 410.031 48.6562C409.796 48.8848 409.477 48.999 409.073 48.999C408.668 48.999 408.346 48.8848 408.106 48.6562C407.872 48.4277 407.754 48.1436 407.754 47.8037ZM416.728 59.9766C416.007 59.9766 415.36 59.8594 414.786 59.625C414.211 59.3906 413.722 59.0654 413.318 58.6494C412.919 58.2275 412.612 57.7383 412.395 57.1816C412.184 56.6191 412.079 56.0156 412.079 55.3711V55.0195C412.079 54.2871 412.184 53.6221 412.395 53.0244C412.606 52.4209 412.905 51.9023 413.291 51.4687C413.678 51.0352 414.141 50.7012 414.68 50.4668C415.219 50.2324 415.814 50.1152 416.464 50.1152C417.138 50.1152 417.733 50.2295 418.248 50.458C418.764 50.6807 419.195 50.9971 419.54 51.4072C419.886 51.8174 420.147 52.3096 420.323 52.8838C420.498 53.4521 420.586 54.082 420.586 54.7734V55.749H413.133V54.1494H418.301V53.9736C418.289 53.6045 418.219 53.2676 418.09 52.9629C417.961 52.6523 417.762 52.4062 417.493 52.2246C417.223 52.0371 416.874 51.9434 416.447 51.9434C416.101 51.9434 415.799 52.0195 415.541 52.1719C415.289 52.3184 415.079 52.5293 414.909 52.8047C414.745 53.0742 414.622 53.3965 414.539 53.7715C414.457 54.1465 414.416 54.5625 414.416 55.0195V55.3711C414.416 55.7695 414.469 56.1387 414.575 56.4785C414.686 56.8184 414.847 57.1143 415.058 57.3662C415.275 57.6123 415.533 57.8057 415.831 57.9463C416.136 58.0811 416.482 58.1484 416.869 58.1484C417.355 58.1484 417.794 58.0547 418.187 57.8672C418.585 57.6738 418.931 57.3896 419.224 57.0146L420.393 58.2275C420.194 58.5205 419.924 58.8018 419.584 59.0713C419.25 59.3408 418.846 59.5605 418.372 59.7305C417.897 59.8945 417.349 59.9766 416.728 59.9766ZM424.788 57.5156L426.871 50.291H428.347L427.908 52.7871L425.807 59.8008H424.533L424.788 57.5156ZM423.636 50.291L425.201 57.5332L425.341 59.8008H423.873L421.377 50.291H423.636ZM430.281 57.4277L431.81 50.291H434.06L431.581 59.8008H430.114L430.281 57.4277ZM428.576 50.291L430.641 57.4453L430.914 59.8008H429.639L427.521 52.7871L427.09 50.291H428.576ZM439.562 55.96H437.461C437.467 55.4268 437.511 54.9697 437.593 54.5889C437.681 54.208 437.825 53.8652 438.024 53.5605C438.223 53.25 438.493 52.9336 438.832 52.6113C439.102 52.3594 439.342 52.1221 439.553 51.8994C439.77 51.6709 439.94 51.4336 440.063 51.1875C440.186 50.9355 440.247 50.6514 440.247 50.335C440.247 49.9775 440.189 49.6787 440.072 49.4385C439.96 49.1982 439.793 49.0166 439.571 48.8936C439.354 48.7646 439.081 48.7002 438.753 48.7002C438.484 48.7002 438.229 48.7559 437.989 48.8672C437.748 48.9785 437.555 49.1514 437.409 49.3857C437.262 49.6143 437.183 49.9131 437.171 50.2822H434.842C434.86 49.5146 435.041 48.876 435.387 48.3662C435.733 47.8506 436.199 47.4668 436.785 47.2148C437.371 46.957 438.027 46.8281 438.753 46.8281C439.556 46.8281 440.242 46.9629 440.81 47.2324C441.384 47.4961 441.821 47.8828 442.12 48.3926C442.424 48.9023 442.577 49.5176 442.577 50.2383C442.577 50.7539 442.477 51.2168 442.278 51.627C442.079 52.0312 441.815 52.4092 441.487 52.7607C441.159 53.1123 440.804 53.4668 440.423 53.8242C440.089 54.123 439.864 54.4424 439.747 54.7822C439.629 55.1221 439.568 55.5146 439.562 55.96ZM437.242 58.6934C437.242 58.3418 437.359 58.0488 437.593 57.8145C437.833 57.5801 438.156 57.4629 438.56 57.4629C438.964 57.4629 439.284 57.5801 439.518 57.8145C439.758 58.0488 439.878 58.3418 439.878 58.6934C439.878 59.0332 439.758 59.3203 439.518 59.5547C439.284 59.7891 438.964 59.9062 438.56 59.9062C438.156 59.9062 437.833 59.7891 437.593 59.5547C437.359 59.3203 437.242 59.0332 437.242 58.6934Z" fill="white"/>
<path d="M547 53L537 47.2265L537 58.7735L547 53ZM480.333 53C480.333 50.0545 477.946 47.6666 475 47.6666C472.054 47.6666 469.667 50.0545 469.667 53C469.667 55.9455 472.054 58.3333 475 58.3333C477.946 58.3333 480.333 55.9455 480.333 53ZM538 52L475 52L475 54L538 54L538 52Z" fill="#5384ED"/>
<rect x="547" y="30.5" width="246" height="45" rx="8" fill="#E2EDFD"/>
<path d="M634.065 46.7031V59.5H631.877V46.7031H634.065ZM638.082 46.7031V48.4609H627.896V46.7031H638.082ZM641.826 49.9902V59.5H639.699V49.9902H641.826ZM639.559 47.4941C639.559 47.1719 639.664 46.9053 639.875 46.6943C640.092 46.4775 640.391 46.3691 640.771 46.3691C641.146 46.3691 641.442 46.4775 641.659 46.6943C641.876 46.9053 641.984 47.1719 641.984 47.4941C641.984 47.8105 641.876 48.0742 641.659 48.2852C641.442 48.4961 641.146 48.6016 640.771 48.6016C640.391 48.6016 640.092 48.4961 639.875 48.2852C639.664 48.0742 639.559 47.8105 639.559 47.4941ZM646.265 51.9238V59.5H644.146V49.9902H646.142L646.265 51.9238ZM645.922 54.3936L645.201 54.3848C645.201 53.7285 645.283 53.1221 645.447 52.5654C645.611 52.0088 645.852 51.5254 646.168 51.1152C646.484 50.6992 646.877 50.3799 647.346 50.1572C647.82 49.9287 648.368 49.8145 648.989 49.8145C649.423 49.8145 649.818 49.8789 650.176 50.0078C650.539 50.1309 650.853 50.3271 651.116 50.5967C651.386 50.8662 651.591 51.2119 651.731 51.6338C651.878 52.0557 651.951 52.5654 651.951 53.1631V59.5H649.833V53.3477C649.833 52.8848 649.763 52.5215 649.622 52.2578C649.487 51.9941 649.291 51.8066 649.033 51.6953C648.781 51.5781 648.479 51.5195 648.128 51.5195C647.729 51.5195 647.39 51.5957 647.108 51.748C646.833 51.9004 646.607 52.1084 646.432 52.3721C646.256 52.6357 646.127 52.9404 646.045 53.2861C645.963 53.6318 645.922 54.001 645.922 54.3936ZM651.819 53.8311L650.826 54.0508C650.826 53.4766 650.905 52.9346 651.063 52.4248C651.228 51.9092 651.465 51.458 651.775 51.0713C652.092 50.6787 652.481 50.3711 652.944 50.1484C653.407 49.9258 653.938 49.8145 654.535 49.8145C655.021 49.8145 655.455 49.8818 655.836 50.0166C656.223 50.1455 656.551 50.3506 656.82 50.6318C657.09 50.9131 657.295 51.2793 657.436 51.7305C657.576 52.1758 657.646 52.7148 657.646 53.3477V59.5H655.52V53.3389C655.52 52.8584 655.449 52.4863 655.309 52.2227C655.174 51.959 654.98 51.7773 654.729 51.6777C654.477 51.5723 654.175 51.5195 653.823 51.5195C653.495 51.5195 653.205 51.5811 652.953 51.7041C652.707 51.8213 652.499 51.9883 652.329 52.2051C652.159 52.416 652.03 52.6592 651.942 52.9346C651.86 53.21 651.819 53.5088 651.819 53.8311ZM664.019 59.6758C663.315 59.6758 662.68 59.5615 662.111 59.333C661.549 59.0986 661.068 58.7734 660.67 58.3574C660.277 57.9414 659.976 57.4521 659.765 56.8896C659.554 56.3271 659.448 55.7207 659.448 55.0703V54.7188C659.448 53.9746 659.557 53.3008 659.773 52.6973C659.99 52.0938 660.292 51.5781 660.679 51.1504C661.065 50.7168 661.522 50.3857 662.05 50.1572C662.577 49.9287 663.148 49.8145 663.764 49.8145C664.443 49.8145 665.038 49.9287 665.548 50.1572C666.058 50.3857 666.479 50.708 666.813 51.124C667.153 51.5342 667.405 52.0234 667.569 52.5918C667.739 53.1602 667.824 53.7871 667.824 54.4727V55.3779H660.477V53.8574H665.732V53.6904C665.721 53.3096 665.645 52.9521 665.504 52.6182C665.369 52.2842 665.161 52.0146 664.88 51.8096C664.599 51.6045 664.224 51.502 663.755 51.502C663.403 51.502 663.09 51.5781 662.814 51.7305C662.545 51.877 662.319 52.0908 662.138 52.3721C661.956 52.6533 661.815 52.9932 661.716 53.3916C661.622 53.7842 661.575 54.2266 661.575 54.7188V55.0703C661.575 55.4863 661.631 55.873 661.742 56.2305C661.859 56.582 662.029 56.8896 662.252 57.1533C662.475 57.417 662.744 57.625 663.061 57.7773C663.377 57.9238 663.737 57.9971 664.142 57.9971C664.651 57.9971 665.105 57.8945 665.504 57.6895C665.902 57.4844 666.248 57.1943 666.541 56.8193L667.657 57.9004C667.452 58.1992 667.186 58.4863 666.857 58.7617C666.529 59.0312 666.128 59.251 665.653 59.4209C665.185 59.5908 664.64 59.6758 664.019 59.6758ZM681.315 57.8125V59.5H674.231V57.8125H681.315ZM681.122 51.3086L674.952 59.5H673.581V58.1377L679.716 49.9902H681.122V51.3086ZM680.305 49.9902V51.6777H673.687V49.9902H680.305ZM682.467 54.8506V54.6484C682.467 53.9629 682.566 53.3271 682.766 52.7412C682.965 52.1494 683.252 51.6367 683.627 51.2031C684.008 50.7637 684.471 50.4238 685.016 50.1836C685.566 49.9375 686.188 49.8145 686.879 49.8145C687.576 49.8145 688.197 49.9375 688.742 50.1836C689.293 50.4238 689.759 50.7637 690.14 51.2031C690.521 51.6367 690.811 52.1494 691.01 52.7412C691.209 53.3271 691.309 53.9629 691.309 54.6484V54.8506C691.309 55.5361 691.209 56.1719 691.01 56.7578C690.811 57.3438 690.521 57.8564 690.14 58.2959C689.759 58.7295 689.296 59.0693 688.751 59.3154C688.206 59.5557 687.588 59.6758 686.896 59.6758C686.199 59.6758 685.575 59.5557 685.024 59.3154C684.479 59.0693 684.017 58.7295 683.636 58.2959C683.255 57.8564 682.965 57.3438 682.766 56.7578C682.566 56.1719 682.467 55.5361 682.467 54.8506ZM684.585 54.6484V54.8506C684.585 55.2783 684.629 55.6826 684.717 56.0635C684.805 56.4443 684.942 56.7783 685.13 57.0654C685.317 57.3525 685.558 57.5781 685.851 57.7422C686.144 57.9062 686.492 57.9883 686.896 57.9883C687.289 57.9883 687.629 57.9062 687.916 57.7422C688.209 57.5781 688.449 57.3525 688.637 57.0654C688.824 56.7783 688.962 56.4443 689.05 56.0635C689.144 55.6826 689.19 55.2783 689.19 54.8506V54.6484C689.19 54.2266 689.144 53.8281 689.05 53.4531C688.962 53.0723 688.821 52.7354 688.628 52.4424C688.44 52.1494 688.2 51.9209 687.907 51.7568C687.62 51.5869 687.277 51.502 686.879 51.502C686.48 51.502 686.135 51.5869 685.842 51.7568C685.555 51.9209 685.317 52.1494 685.13 52.4424C684.942 52.7354 684.805 53.0723 684.717 53.4531C684.629 53.8281 684.585 54.2266 684.585 54.6484ZM695.185 52.0205V59.5H693.066V49.9902H695.062L695.185 52.0205ZM694.807 54.3936L694.121 54.3848C694.127 53.7109 694.221 53.0928 694.402 52.5303C694.59 51.9678 694.848 51.4844 695.176 51.0801C695.51 50.6758 695.908 50.3652 696.371 50.1484C696.834 49.9258 697.35 49.8145 697.918 49.8145C698.375 49.8145 698.788 49.8789 699.157 50.0078C699.532 50.1309 699.852 50.333 700.115 50.6143C700.385 50.8955 700.59 51.2617 700.73 51.7129C700.871 52.1582 700.941 52.7061 700.941 53.3564V59.5H698.814V53.3477C698.814 52.8906 698.747 52.5303 698.612 52.2666C698.483 51.9971 698.293 51.8066 698.041 51.6953C697.795 51.5781 697.487 51.5195 697.118 51.5195C696.755 51.5195 696.43 51.5957 696.143 51.748C695.855 51.9004 695.612 52.1084 695.413 52.3721C695.22 52.6357 695.07 52.9404 694.965 53.2861C694.859 53.6318 694.807 54.001 694.807 54.3936ZM707.296 59.6758C706.593 59.6758 705.957 59.5615 705.389 59.333C704.826 59.0986 704.346 58.7734 703.947 58.3574C703.555 57.9414 703.253 57.4521 703.042 56.8896C702.831 56.3271 702.726 55.7207 702.726 55.0703V54.7188C702.726 53.9746 702.834 53.3008 703.051 52.6973C703.268 52.0938 703.569 51.5781 703.956 51.1504C704.343 50.7168 704.8 50.3857 705.327 50.1572C705.854 49.9287 706.426 49.8145 707.041 49.8145C707.721 49.8145 708.315 49.9287 708.825 50.1572C709.335 50.3857 709.757 50.708 710.091 51.124C710.431 51.5342 710.683 52.0234 710.847 52.5918C711.017 53.1602 711.102 53.7871 711.102 54.4727V55.3779H703.754V53.8574H709.01V53.6904C708.998 53.3096 708.922 52.9521 708.781 52.6182C708.646 52.2842 708.438 52.0146 708.157 51.8096C707.876 51.6045 707.501 51.502 707.032 51.502C706.681 51.502 706.367 51.5781 706.092 51.7305C705.822 51.877 705.597 52.0908 705.415 52.3721C705.233 52.6533 705.093 52.9932 704.993 53.3916C704.899 53.7842 704.853 54.2266 704.853 54.7188V55.0703C704.853 55.4863 704.908 55.873 705.02 56.2305C705.137 56.582 705.307 56.8896 705.529 57.1533C705.752 57.417 706.021 57.625 706.338 57.7773C706.654 57.9238 707.015 57.9971 707.419 57.9971C707.929 57.9971 708.383 57.8945 708.781 57.6895C709.18 57.4844 709.525 57.1943 709.818 56.8193L710.935 57.9004C710.729 58.1992 710.463 58.4863 710.135 58.7617C709.807 59.0312 709.405 59.251 708.931 59.4209C708.462 59.5908 707.917 59.6758 707.296 59.6758Z" fill="#5384ED"/>
<path d="M865 53L855 47.2265L855 58.7735L865 53ZM798.333 53C798.333 50.0545 795.946 47.6666 793 47.6666C790.054 47.6666 787.667 50.0545 787.667 53C787.667 55.9455 790.054 58.3333 793 58.3333C795.946 58.3333 798.333 55.9455 798.333 53ZM856 52L793 52L793 54L856 54L856 52Z" fill="#5384ED"/>
<rect x="865" y="30.5" width="246" height="45" rx="8" fill="#E2EDFD"/>
<path d="M946.656 46.7031V59.5H944.45V46.7031H946.656ZM951.288 52.0205V59.5H949.17V49.9902H951.165L951.288 52.0205ZM950.91 54.3936L950.225 54.3848C950.23 53.7109 950.324 53.0928 950.506 52.5303C950.693 51.9678 950.951 51.4844 951.279 51.0801C951.613 50.6758 952.012 50.3652 952.475 50.1484C952.938 49.9258 953.453 49.8145 954.021 49.8145C954.479 49.8145 954.892 49.8789 955.261 50.0078C955.636 50.1309 955.955 50.333 956.219 50.6143C956.488 50.8955 956.693 51.2617 956.834 51.7129C956.975 52.1582 957.045 52.7061 957.045 53.3564V59.5H954.918V53.3477C954.918 52.8906 954.851 52.5303 954.716 52.2666C954.587 51.9971 954.396 51.8066 954.145 51.6953C953.898 51.5781 953.591 51.5195 953.222 51.5195C952.858 51.5195 952.533 51.5957 952.246 51.748C951.959 51.9004 951.716 52.1084 951.517 52.3721C951.323 52.6357 951.174 52.9404 951.068 53.2861C950.963 53.6318 950.91 54.001 950.91 54.3936ZM963.566 49.9902V51.5371H958.205V49.9902H963.566ZM959.752 47.6611H961.87V56.8721C961.87 57.165 961.911 57.3906 961.993 57.5488C962.081 57.7012 962.201 57.8037 962.354 57.8564C962.506 57.9092 962.685 57.9355 962.89 57.9355C963.036 57.9355 963.177 57.9268 963.312 57.9092C963.446 57.8916 963.555 57.874 963.637 57.8564L963.646 59.4736C963.47 59.5264 963.265 59.5732 963.03 59.6143C962.802 59.6553 962.538 59.6758 962.239 59.6758C961.753 59.6758 961.322 59.5908 960.947 59.4209C960.572 59.2451 960.279 58.9609 960.068 58.5684C959.857 58.1758 959.752 57.6543 959.752 57.0039V47.6611ZM969.394 59.6758C968.69 59.6758 968.055 59.5615 967.486 59.333C966.924 59.0986 966.443 58.7734 966.045 58.3574C965.652 57.9414 965.351 57.4521 965.14 56.8896C964.929 56.3271 964.823 55.7207 964.823 55.0703V54.7188C964.823 53.9746 964.932 53.3008 965.148 52.6973C965.365 52.0938 965.667 51.5781 966.054 51.1504C966.44 50.7168 966.897 50.3857 967.425 50.1572C967.952 49.9287 968.523 49.8145 969.139 49.8145C969.818 49.8145 970.413 49.9287 970.923 50.1572C971.433 50.3857 971.854 50.708 972.188 51.124C972.528 51.5342 972.78 52.0234 972.944 52.5918C973.114 53.1602 973.199 53.7871 973.199 54.4727V55.3779H965.852V53.8574H971.107V53.6904C971.096 53.3096 971.02 52.9521 970.879 52.6182C970.744 52.2842 970.536 52.0146 970.255 51.8096C969.974 51.6045 969.599 51.502 969.13 51.502C968.778 51.502 968.465 51.5781 968.189 51.7305C967.92 51.877 967.694 52.0908 967.513 52.3721C967.331 52.6533 967.19 52.9932 967.091 53.3916C966.997 53.7842 966.95 54.2266 966.95 54.7188V55.0703C966.95 55.4863 967.006 55.873 967.117 56.2305C967.234 56.582 967.404 56.8896 967.627 57.1533C967.85 57.417 968.119 57.625 968.436 57.7773C968.752 57.9238 969.112 57.9971 969.517 57.9971C970.026 57.9971 970.48 57.8945 970.879 57.6895C971.277 57.4844 971.623 57.1943 971.916 56.8193L973.032 57.9004C972.827 58.1992 972.561 58.4863 972.232 58.7617C971.904 59.0312 971.503 59.251 971.028 59.4209C970.56 59.5908 970.015 59.6758 969.394 59.6758ZM976.979 51.8008V59.5H974.86V49.9902H976.882L976.979 51.8008ZM979.888 49.9287L979.87 51.8975C979.741 51.874 979.601 51.8564 979.448 51.8447C979.302 51.833 979.155 51.8271 979.009 51.8271C978.646 51.8271 978.326 51.8799 978.051 51.9854C977.775 52.085 977.544 52.2314 977.356 52.4248C977.175 52.6123 977.034 52.8408 976.935 53.1104C976.835 53.3799 976.776 53.6816 976.759 54.0156L976.275 54.0508C976.275 53.4531 976.334 52.8994 976.451 52.3896C976.568 51.8799 976.744 51.4316 976.979 51.0449C977.219 50.6582 977.518 50.3564 977.875 50.1396C978.238 49.9229 978.657 49.8145 979.132 49.8145C979.261 49.8145 979.398 49.8262 979.545 49.8496C979.697 49.873 979.812 49.8994 979.888 49.9287ZM984.467 57.8213L986.796 49.9902H988.993L985.688 59.5H984.317L984.467 57.8213ZM982.683 49.9902L985.056 57.8564L985.17 59.5H983.799L980.477 49.9902H982.683ZM992.57 49.9902V59.5H990.443V49.9902H992.57ZM990.303 47.4941C990.303 47.1719 990.408 46.9053 990.619 46.6943C990.836 46.4775 991.135 46.3691 991.516 46.3691C991.891 46.3691 992.187 46.4775 992.403 46.6943C992.62 46.9053 992.729 47.1719 992.729 47.4941C992.729 47.8105 992.62 48.0742 992.403 48.2852C992.187 48.4961 991.891 48.6016 991.516 48.6016C991.135 48.6016 990.836 48.4961 990.619 48.2852C990.408 48.0742 990.303 47.8105 990.303 47.4941ZM999.083 59.6758C998.38 59.6758 997.744 59.5615 997.176 59.333C996.613 59.0986 996.133 58.7734 995.734 58.3574C995.342 57.9414 995.04 57.4521 994.829 56.8896C994.618 56.3271 994.513 55.7207 994.513 55.0703V54.7188C994.513 53.9746 994.621 53.3008 994.838 52.6973C995.055 52.0938 995.356 51.5781 995.743 51.1504C996.13 50.7168 996.587 50.3857 997.114 50.1572C997.642 49.9287 998.213 49.8145 998.828 49.8145C999.508 49.8145 1000.1 49.9287 1000.61 50.1572C1001.12 50.3857 1001.54 50.708 1001.88 51.124C1002.22 51.5342 1002.47 52.0234 1002.63 52.5918C1002.8 53.1602 1002.89 53.7871 1002.89 54.4727V55.3779H995.541V53.8574H1000.8V53.6904C1000.79 53.3096 1000.71 52.9521 1000.57 52.6182C1000.43 52.2842 1000.23 52.0146 999.944 51.8096C999.663 51.6045 999.288 51.502 998.819 51.502C998.468 51.502 998.154 51.5781 997.879 51.7305C997.609 51.877 997.384 52.0908 997.202 52.3721C997.021 52.6533 996.88 52.9932 996.78 53.3916C996.687 53.7842 996.64 54.2266 996.64 54.7188V55.0703C996.64 55.4863 996.695 55.873 996.807 56.2305C996.924 56.582 997.094 56.8896 997.316 57.1533C997.539 57.417 997.809 57.625 998.125 57.7773C998.441 57.9238 998.802 57.9971 999.206 57.9971C999.716 57.9971 1000.17 57.8945 1000.57 57.6895C1000.97 57.4844 1001.31 57.1943 1001.61 56.8193L1002.72 57.9004C1002.52 58.1992 1002.25 58.4863 1001.92 58.7617C1001.59 59.0312 1001.19 59.251 1000.72 59.4209C1000.25 59.5908 999.704 59.6758 999.083 59.6758ZM1007.12 57.3906L1009.32 49.9902H1010.68L1010.31 52.2051L1008.09 59.5H1006.88L1007.12 57.3906ZM1005.83 49.9902L1007.55 57.4258L1007.69 59.5H1006.33L1003.76 49.9902H1005.83ZM1012.73 57.3379L1014.39 49.9902H1016.46L1013.89 59.5H1012.54L1012.73 57.3379ZM1010.9 49.9902L1013.08 57.3027L1013.35 59.5H1012.13L1009.89 52.1963L1009.52 49.9902H1010.9ZM1022.09 59.6758C1021.39 59.6758 1020.75 59.5615 1020.19 59.333C1019.62 59.0986 1019.14 58.7734 1018.74 58.3574C1018.35 57.9414 1018.05 57.4521 1017.84 56.8896C1017.63 56.3271 1017.52 55.7207 1017.52 55.0703V54.7188C1017.52 53.9746 1017.63 53.3008 1017.85 52.6973C1018.06 52.0938 1018.37 51.5781 1018.75 51.1504C1019.14 50.7168 1019.6 50.3857 1020.12 50.1572C1020.65 49.9287 1021.22 49.8145 1021.84 49.8145C1022.52 49.8145 1023.11 49.9287 1023.62 50.1572C1024.13 50.3857 1024.55 50.708 1024.89 51.124C1025.23 51.5342 1025.48 52.0234 1025.64 52.5918C1025.81 53.1602 1025.9 53.7871 1025.9 54.4727V55.3779H1018.55V53.8574H1023.81V53.6904C1023.79 53.3096 1023.72 52.9521 1023.58 52.6182C1023.44 52.2842 1023.24 52.0146 1022.95 51.8096C1022.67 51.6045 1022.3 51.502 1021.83 51.502C1021.48 51.502 1021.16 51.5781 1020.89 51.7305C1020.62 51.877 1020.39 52.0908 1020.21 52.3721C1020.03 52.6533 1019.89 52.9932 1019.79 53.3916C1019.7 53.7842 1019.65 54.2266 1019.65 54.7188V55.0703C1019.65 55.4863 1019.71 55.873 1019.82 56.2305C1019.93 56.582 1020.1 56.8896 1020.33 57.1533C1020.55 57.417 1020.82 57.625 1021.13 57.7773C1021.45 57.9238 1021.81 57.9971 1022.22 57.9971C1022.73 57.9971 1023.18 57.8945 1023.58 57.6895C1023.98 57.4844 1024.32 57.1943 1024.62 56.8193L1025.73 57.9004C1025.53 58.1992 1025.26 58.4863 1024.93 58.7617C1024.6 59.0312 1024.2 59.251 1023.73 59.4209C1023.26 59.5908 1022.71 59.6758 1022.09 59.6758ZM1029.68 51.8008V59.5H1027.56V49.9902H1029.58L1029.68 51.8008ZM1032.59 49.9287L1032.57 51.8975C1032.44 51.874 1032.3 51.8564 1032.15 51.8447C1032 51.833 1031.85 51.8271 1031.71 51.8271C1031.34 51.8271 1031.03 51.8799 1030.75 51.9854C1030.47 52.085 1030.24 52.2314 1030.06 52.4248C1029.87 52.6123 1029.73 52.8408 1029.63 53.1104C1029.53 53.3799 1029.48 53.6816 1029.46 54.0156L1028.97 54.0508C1028.97 53.4531 1029.03 52.8994 1029.15 52.3896C1029.27 51.8799 1029.44 51.4316 1029.68 51.0449C1029.92 50.6582 1030.22 50.3564 1030.57 50.1396C1030.94 49.9229 1031.36 49.8145 1031.83 49.8145C1031.96 49.8145 1032.1 49.8262 1032.24 49.8496C1032.4 49.873 1032.51 49.8994 1032.59 49.9287Z" fill="#5384ED"/>
<path d="M1183 53L1173 47.2265L1173 58.7735L1183 53ZM1116.33 53C1116.33 50.0545 1113.95 47.6666 1111 47.6666C1108.05 47.6666 1105.67 50.0545 1105.67 53C1105.67 55.9455 1108.05 58.3333 1111 58.3333C1113.95 58.3333 1116.33 55.9455 1116.33 53ZM1174 52L1111 52L1111 54L1174 54L1174 52Z" fill="#5384ED"/>
<rect x="1183" y="30.5" width="246" height="45" rx="8" fill="#E2EDFD"/>
<path d="M1255.86 55.334H1258.06C1257.99 56.1719 1257.75 56.9189 1257.35 57.5752C1256.96 58.2256 1256.4 58.7383 1255.67 59.1133C1254.95 59.4883 1254.08 59.6758 1253.05 59.6758C1252.26 59.6758 1251.54 59.5352 1250.91 59.2539C1250.28 58.9668 1249.74 58.5625 1249.29 58.041C1248.83 57.5137 1248.49 56.8779 1248.25 56.1338C1248.01 55.3896 1247.9 54.5576 1247.9 53.6377V52.5742C1247.9 51.6543 1248.02 50.8223 1248.26 50.0781C1248.5 49.334 1248.85 48.6982 1249.31 48.1709C1249.77 47.6377 1250.32 47.2305 1250.96 46.9492C1251.6 46.668 1252.32 46.5273 1253.13 46.5273C1254.15 46.5273 1255.01 46.7148 1255.71 47.0898C1256.41 47.4648 1256.96 47.9834 1257.34 48.6455C1257.74 49.3076 1257.98 50.0664 1258.07 50.9219H1255.87C1255.81 50.3711 1255.68 49.8994 1255.48 49.5068C1255.29 49.1143 1255 48.8154 1254.62 48.6104C1254.24 48.3994 1253.74 48.2939 1253.13 48.2939C1252.62 48.2939 1252.18 48.3877 1251.81 48.5752C1251.43 48.7627 1251.12 49.0381 1250.87 49.4014C1250.62 49.7646 1250.42 50.2129 1250.3 50.7461C1250.17 51.2734 1250.11 51.877 1250.11 52.5566V53.6377C1250.11 54.2822 1250.17 54.8682 1250.28 55.3955C1250.4 55.917 1250.57 56.3652 1250.81 56.7402C1251.05 57.1152 1251.35 57.4053 1251.72 57.6104C1252.09 57.8154 1252.53 57.918 1253.05 57.918C1253.67 57.918 1254.18 57.8184 1254.57 57.6191C1254.96 57.4199 1255.26 57.1299 1255.46 56.749C1255.66 56.3623 1255.79 55.8906 1255.86 55.334ZM1265.21 57.5928V53.0576C1265.21 52.7178 1265.15 52.4248 1265.03 52.1787C1264.9 51.9326 1264.72 51.7422 1264.46 51.6074C1264.22 51.4727 1263.91 51.4053 1263.53 51.4053C1263.19 51.4053 1262.89 51.4639 1262.64 51.5811C1262.38 51.6982 1262.19 51.8564 1262.05 52.0557C1261.91 52.2549 1261.84 52.4805 1261.84 52.7324H1259.73C1259.73 52.3574 1259.82 51.9941 1260 51.6426C1260.18 51.291 1260.44 50.9775 1260.79 50.7021C1261.14 50.4268 1261.55 50.21 1262.03 50.0518C1262.51 49.8936 1263.05 49.8145 1263.65 49.8145C1264.36 49.8145 1264.99 49.9346 1265.54 50.1748C1266.1 50.415 1266.54 50.7783 1266.85 51.2646C1267.18 51.7451 1267.34 52.3486 1267.34 53.0752V57.3027C1267.34 57.7363 1267.37 58.126 1267.43 58.4717C1267.49 58.8115 1267.58 59.1074 1267.7 59.3594V59.5H1265.53C1265.43 59.2715 1265.35 58.9814 1265.29 58.6299C1265.24 58.2725 1265.21 57.9268 1265.21 57.5928ZM1265.52 53.7168L1265.54 55.0264H1264.02C1263.62 55.0264 1263.28 55.0645 1262.98 55.1406C1262.68 55.2109 1262.43 55.3164 1262.23 55.457C1262.03 55.5977 1261.88 55.7676 1261.78 55.9668C1261.68 56.166 1261.63 56.3916 1261.63 56.6436C1261.63 56.8955 1261.69 57.127 1261.81 57.3379C1261.93 57.543 1262.1 57.7041 1262.32 57.8213C1262.55 57.9385 1262.82 57.9971 1263.15 57.9971C1263.58 57.9971 1263.96 57.9092 1264.28 57.7334C1264.61 57.5518 1264.87 57.332 1265.05 57.0742C1265.24 56.8105 1265.34 56.5615 1265.35 56.3271L1266.04 57.2676C1265.97 57.5078 1265.85 57.7656 1265.68 58.041C1265.51 58.3164 1265.28 58.5801 1265.01 58.832C1264.74 59.0781 1264.41 59.2803 1264.03 59.4385C1263.66 59.5967 1263.22 59.6758 1262.73 59.6758C1262.11 59.6758 1261.56 59.5527 1261.07 59.3066C1260.58 59.0547 1260.2 58.7178 1259.93 58.2959C1259.65 57.8682 1259.52 57.3848 1259.52 56.8457C1259.52 56.3418 1259.61 55.8965 1259.8 55.5098C1259.99 55.1172 1260.27 54.7891 1260.64 54.5254C1261.02 54.2617 1261.47 54.0625 1262.01 53.9277C1262.55 53.7871 1263.17 53.7168 1263.86 53.7168H1265.52ZM1271.65 52.0205V59.5H1269.54V49.9902H1271.53L1271.65 52.0205ZM1271.28 54.3936L1270.59 54.3848C1270.6 53.7109 1270.69 53.0928 1270.87 52.5303C1271.06 51.9678 1271.32 51.4844 1271.64 51.0801C1271.98 50.6758 1272.38 50.3652 1272.84 50.1484C1273.3 49.9258 1273.82 49.8145 1274.39 49.8145C1274.84 49.8145 1275.26 49.8789 1275.63 50.0078C1276 50.1309 1276.32 50.333 1276.58 50.6143C1276.85 50.8955 1277.06 51.2617 1277.2 51.7129C1277.34 52.1582 1277.41 52.7061 1277.41 53.3564V59.5H1275.28V53.3477C1275.28 52.8906 1275.22 52.5303 1275.08 52.2666C1274.95 51.9971 1274.76 51.8066 1274.51 51.6953C1274.26 51.5781 1273.96 51.5195 1273.59 51.5195C1273.22 51.5195 1272.9 51.5957 1272.61 51.748C1272.32 51.9004 1272.08 52.1084 1271.88 52.3721C1271.69 52.6357 1271.54 52.9404 1271.43 53.2861C1271.33 53.6318 1271.28 54.001 1271.28 54.3936ZM1285.37 57.5312V46H1287.5V59.5H1285.58L1285.37 57.5312ZM1279.19 54.8506V54.666C1279.19 53.9453 1279.27 53.2891 1279.44 52.6973C1279.61 52.0996 1279.86 51.5869 1280.18 51.1592C1280.5 50.7256 1280.89 50.3945 1281.36 50.166C1281.82 49.9316 1282.34 49.8145 1282.92 49.8145C1283.5 49.8145 1284 49.9258 1284.43 50.1484C1284.87 50.3711 1285.24 50.6904 1285.54 51.1064C1285.84 51.5166 1286.09 52.0088 1286.27 52.583C1286.45 53.1514 1286.58 53.7842 1286.66 54.4814V55.0703C1286.58 55.75 1286.45 56.3711 1286.27 56.9336C1286.09 57.4961 1285.84 57.9824 1285.54 58.3926C1285.24 58.8027 1284.86 59.1191 1284.42 59.3418C1283.99 59.5645 1283.48 59.6758 1282.9 59.6758C1282.33 59.6758 1281.81 59.5557 1281.35 59.3154C1280.89 59.0752 1280.5 58.7383 1280.18 58.3047C1279.86 57.8711 1279.61 57.3613 1279.44 56.7754C1279.27 56.1836 1279.19 55.542 1279.19 54.8506ZM1281.3 54.666V54.8506C1281.3 55.2842 1281.34 55.6885 1281.42 56.0635C1281.5 56.4385 1281.63 56.7695 1281.8 57.0566C1281.97 57.3379 1282.19 57.5605 1282.46 57.7246C1282.73 57.8828 1283.06 57.9619 1283.44 57.9619C1283.92 57.9619 1284.32 57.8564 1284.63 57.6455C1284.94 57.4346 1285.18 57.1504 1285.36 56.793C1285.54 56.4297 1285.66 56.0254 1285.72 55.5801V53.9893C1285.69 53.6436 1285.62 53.3213 1285.5 53.0225C1285.4 52.7236 1285.26 52.4629 1285.07 52.2402C1284.89 52.0117 1284.67 51.8359 1284.4 51.7129C1284.13 51.584 1283.82 51.5195 1283.46 51.5195C1283.07 51.5195 1282.74 51.6016 1282.47 51.7656C1282.2 51.9297 1281.98 52.1553 1281.8 52.4424C1281.63 52.7295 1281.51 53.0635 1281.43 53.4443C1281.34 53.8252 1281.3 54.2324 1281.3 54.666ZM1291.98 49.9902V59.5H1289.86V49.9902H1291.98ZM1289.71 47.4941C1289.71 47.1719 1289.82 46.9053 1290.03 46.6943C1290.25 46.4775 1290.55 46.3691 1290.93 46.3691C1291.3 46.3691 1291.6 46.4775 1291.82 46.6943C1292.03 46.9053 1292.14 47.1719 1292.14 47.4941C1292.14 47.8105 1292.03 48.0742 1291.82 48.2852C1291.6 48.4961 1291.3 48.6016 1290.93 48.6016C1290.55 48.6016 1290.25 48.4961 1290.03 48.2852C1289.82 48.0742 1289.71 47.8105 1289.71 47.4941ZM1300.1 57.5312V46H1302.23V59.5H1300.31L1300.1 57.5312ZM1293.92 54.8506V54.666C1293.92 53.9453 1294 53.2891 1294.17 52.6973C1294.34 52.0996 1294.59 51.5869 1294.91 51.1592C1295.23 50.7256 1295.62 50.3945 1296.09 50.166C1296.55 49.9316 1297.07 49.8145 1297.65 49.8145C1298.23 49.8145 1298.73 49.9258 1299.16 50.1484C1299.6 50.3711 1299.97 50.6904 1300.27 51.1064C1300.58 51.5166 1300.82 52.0088 1301 52.583C1301.18 53.1514 1301.31 53.7842 1301.39 54.4814V55.0703C1301.31 55.75 1301.18 56.3711 1301 56.9336C1300.82 57.4961 1300.58 57.9824 1300.27 58.3926C1299.97 58.8027 1299.59 59.1191 1299.15 59.3418C1298.72 59.5645 1298.21 59.6758 1297.63 59.6758C1297.06 59.6758 1296.54 59.5557 1296.08 59.3154C1295.62 59.0752 1295.23 58.7383 1294.91 58.3047C1294.59 57.8711 1294.34 57.3613 1294.17 56.7754C1294 56.1836 1293.92 55.542 1293.92 54.8506ZM1296.03 54.666V54.8506C1296.03 55.2842 1296.07 55.6885 1296.15 56.0635C1296.23 56.4385 1296.36 56.7695 1296.53 57.0566C1296.7 57.3379 1296.92 57.5605 1297.19 57.7246C1297.46 57.8828 1297.79 57.9619 1298.17 57.9619C1298.65 57.9619 1299.05 57.8564 1299.36 57.6455C1299.67 57.4346 1299.91 57.1504 1300.09 56.793C1300.27 56.4297 1300.39 56.0254 1300.46 55.5801V53.9893C1300.42 53.6436 1300.35 53.3213 1300.24 53.0225C1300.13 52.7236 1299.99 52.4629 1299.8 52.2402C1299.62 52.0117 1299.4 51.8359 1299.13 51.7129C1298.86 51.584 1298.55 51.5195 1298.19 51.5195C1297.8 51.5195 1297.47 51.6016 1297.2 51.7656C1296.93 51.9297 1296.71 52.1553 1296.54 52.4424C1296.37 52.7295 1296.24 53.0635 1296.16 53.4443C1296.08 53.8252 1296.03 54.2324 1296.03 54.666ZM1309.81 57.5928V53.0576C1309.81 52.7178 1309.75 52.4248 1309.62 52.1787C1309.5 51.9326 1309.31 51.7422 1309.06 51.6074C1308.81 51.4727 1308.5 51.4053 1308.13 51.4053C1307.78 51.4053 1307.48 51.4639 1307.23 51.5811C1306.98 51.6982 1306.78 51.8564 1306.64 52.0557C1306.5 52.2549 1306.43 52.4805 1306.43 52.7324H1304.32C1304.32 52.3574 1304.41 51.9941 1304.59 51.6426C1304.78 51.291 1305.04 50.9775 1305.39 50.7021C1305.73 50.4268 1306.14 50.21 1306.62 50.0518C1307.11 49.8936 1307.64 49.8145 1308.24 49.8145C1308.96 49.8145 1309.59 49.9346 1310.14 50.1748C1310.7 50.415 1311.13 50.7783 1311.45 51.2646C1311.77 51.7451 1311.93 52.3486 1311.93 53.0752V57.3027C1311.93 57.7363 1311.96 58.126 1312.02 58.4717C1312.09 58.8115 1312.18 59.1074 1312.29 59.3594V59.5H1310.12C1310.02 59.2715 1309.94 58.9814 1309.89 58.6299C1309.83 58.2725 1309.81 57.9268 1309.81 57.5928ZM1310.11 53.7168L1310.13 55.0264H1308.61C1308.22 55.0264 1307.87 55.0645 1307.57 55.1406C1307.28 55.2109 1307.03 55.3164 1306.83 55.457C1306.63 55.5977 1306.48 55.7676 1306.38 55.9668C1306.28 56.166 1306.23 56.3916 1306.23 56.6436C1306.23 56.8955 1306.29 57.127 1306.41 57.3379C1306.52 57.543 1306.69 57.7041 1306.92 57.8213C1307.14 57.9385 1307.42 57.9971 1307.74 57.9971C1308.17 57.9971 1308.55 57.9092 1308.88 57.7334C1309.2 57.5518 1309.46 57.332 1309.65 57.0742C1309.84 56.8105 1309.94 56.5615 1309.95 56.3271L1310.63 57.2676C1310.56 57.5078 1310.44 57.7656 1310.27 58.041C1310.1 58.3164 1309.88 58.5801 1309.6 58.832C1309.33 59.0781 1309.01 59.2803 1308.63 59.4385C1308.25 59.5967 1307.82 59.6758 1307.33 59.6758C1306.71 59.6758 1306.15 59.5527 1305.67 59.3066C1305.18 59.0547 1304.8 58.7178 1304.52 58.2959C1304.25 57.8682 1304.11 57.3848 1304.11 56.8457C1304.11 56.3418 1304.21 55.8965 1304.39 55.5098C1304.59 55.1172 1304.87 54.7891 1305.24 54.5254C1305.61 54.2617 1306.07 54.0625 1306.61 53.9277C1307.15 53.7871 1307.76 53.7168 1308.45 53.7168H1310.11ZM1318.51 49.9902V51.5371H1313.15V49.9902H1318.51ZM1314.69 47.6611H1316.81V56.8721C1316.81 57.165 1316.85 57.3906 1316.93 57.5488C1317.02 57.7012 1317.14 57.8037 1317.29 57.8564C1317.45 57.9092 1317.63 57.9355 1317.83 57.9355C1317.98 57.9355 1318.12 57.9268 1318.25 57.9092C1318.39 57.8916 1318.5 57.874 1318.58 57.8564L1318.59 59.4736C1318.41 59.5264 1318.21 59.5732 1317.97 59.6143C1317.74 59.6553 1317.48 59.6758 1317.18 59.6758C1316.69 59.6758 1316.26 59.5908 1315.89 59.4209C1315.51 59.2451 1315.22 58.9609 1315.01 58.5684C1314.8 58.1758 1314.69 57.6543 1314.69 57.0039V47.6611ZM1324.33 59.6758C1323.63 59.6758 1323 59.5615 1322.43 59.333C1321.87 59.0986 1321.38 58.7734 1320.99 58.3574C1320.59 57.9414 1320.29 57.4521 1320.08 56.8896C1319.87 56.3271 1319.76 55.7207 1319.76 55.0703V54.7188C1319.76 53.9746 1319.87 53.3008 1320.09 52.6973C1320.31 52.0938 1320.61 51.5781 1321 51.1504C1321.38 50.7168 1321.84 50.3857 1322.37 50.1572C1322.89 49.9287 1323.46 49.8145 1324.08 49.8145C1324.76 49.8145 1325.35 49.9287 1325.86 50.1572C1326.37 50.3857 1326.8 50.708 1327.13 51.124C1327.47 51.5342 1327.72 52.0234 1327.89 52.5918C1328.06 53.1602 1328.14 53.7871 1328.14 54.4727V55.3779H1320.79V53.8574H1326.05V53.6904C1326.04 53.3096 1325.96 52.9521 1325.82 52.6182C1325.69 52.2842 1325.48 52.0146 1325.2 51.8096C1324.92 51.6045 1324.54 51.502 1324.07 51.502C1323.72 51.502 1323.41 51.5781 1323.13 51.7305C1322.86 51.877 1322.64 52.0908 1322.45 52.3721C1322.27 52.6533 1322.13 52.9932 1322.03 53.3916C1321.94 53.7842 1321.89 54.2266 1321.89 54.7188V55.0703C1321.89 55.4863 1321.95 55.873 1322.06 56.2305C1322.18 56.582 1322.35 56.8896 1322.57 57.1533C1322.79 57.417 1323.06 57.625 1323.38 57.7773C1323.69 57.9238 1324.05 57.9971 1324.46 57.9971C1324.97 57.9971 1325.42 57.8945 1325.82 57.6895C1326.22 57.4844 1326.56 57.1943 1326.86 56.8193L1327.97 57.9004C1327.77 58.1992 1327.5 58.4863 1327.17 58.7617C1326.85 59.0312 1326.44 59.251 1325.97 59.4209C1325.5 59.5908 1324.96 59.6758 1324.33 59.6758ZM1336.54 49.9902V59.5H1334.42V49.9902H1336.54ZM1334.28 47.4941C1334.28 47.1719 1334.38 46.9053 1334.59 46.6943C1334.81 46.4775 1335.11 46.3691 1335.49 46.3691C1335.86 46.3691 1336.16 46.4775 1336.38 46.6943C1336.59 46.9053 1336.7 47.1719 1336.7 47.4941C1336.7 47.8105 1336.59 48.0742 1336.38 48.2852C1336.16 48.4961 1335.86 48.6016 1335.49 48.6016C1335.11 48.6016 1334.81 48.4961 1334.59 48.2852C1334.38 48.0742 1334.28 47.8105 1334.28 47.4941ZM1340.96 52.0205V59.5H1338.85V49.9902H1340.84L1340.96 52.0205ZM1340.59 54.3936L1339.9 54.3848C1339.91 53.7109 1340 53.0928 1340.18 52.5303C1340.37 51.9678 1340.63 51.4844 1340.96 51.0801C1341.29 50.6758 1341.69 50.3652 1342.15 50.1484C1342.61 49.9258 1343.13 49.8145 1343.7 49.8145C1344.15 49.8145 1344.57 49.8789 1344.94 50.0078C1345.31 50.1309 1345.63 50.333 1345.89 50.6143C1346.16 50.8955 1346.37 51.2617 1346.51 51.7129C1346.65 52.1582 1346.72 52.7061 1346.72 53.3564V59.5H1344.59V53.3477C1344.59 52.8906 1344.53 52.5303 1344.39 52.2666C1344.26 51.9971 1344.07 51.8066 1343.82 51.6953C1343.57 51.5781 1343.27 51.5195 1342.9 51.5195C1342.53 51.5195 1342.21 51.5957 1341.92 51.748C1341.63 51.9004 1341.39 52.1084 1341.19 52.3721C1341 52.6357 1340.85 52.9404 1340.74 53.2861C1340.64 53.6318 1340.59 54.001 1340.59 54.3936ZM1351.75 59.5H1349.63V49.0762C1349.63 48.3672 1349.76 47.7725 1350.03 47.292C1350.29 46.8057 1350.68 46.4395 1351.18 46.1934C1351.67 45.9414 1352.26 45.8154 1352.94 45.8154C1353.15 45.8154 1353.36 45.8301 1353.57 45.8594C1353.77 45.8828 1353.97 45.9209 1354.17 45.9736L1354.11 47.6084C1354 47.5791 1353.87 47.5586 1353.73 47.5469C1353.59 47.5352 1353.44 47.5293 1353.29 47.5293C1352.96 47.5293 1352.69 47.5908 1352.45 47.7139C1352.22 47.8311 1352.05 48.0039 1351.92 48.2324C1351.81 48.4609 1351.75 48.7422 1351.75 49.0762V59.5ZM1353.71 49.9902V51.5371H1348.17V49.9902H1353.71ZM1354.84 54.8506V54.6484C1354.84 53.9629 1354.94 53.3271 1355.14 52.7412C1355.34 52.1494 1355.63 51.6367 1356 51.2031C1356.38 50.7637 1356.85 50.4238 1357.39 50.1836C1357.94 49.9375 1358.56 49.8145 1359.25 49.8145C1359.95 49.8145 1360.57 49.9375 1361.12 50.1836C1361.67 50.4238 1362.13 50.7637 1362.51 51.2031C1362.9 51.6367 1363.19 52.1494 1363.38 52.7412C1363.58 53.3271 1363.68 53.9629 1363.68 54.6484V54.8506C1363.68 55.5361 1363.58 56.1719 1363.38 56.7578C1363.19 57.3438 1362.9 57.8564 1362.51 58.2959C1362.13 58.7295 1361.67 59.0693 1361.13 59.3154C1360.58 59.5557 1359.96 59.6758 1359.27 59.6758C1358.57 59.6758 1357.95 59.5557 1357.4 59.3154C1356.85 59.0693 1356.39 58.7295 1356.01 58.2959C1355.63 57.8564 1355.34 57.3438 1355.14 56.7578C1354.94 56.1719 1354.84 55.5361 1354.84 54.8506ZM1356.96 54.6484V54.8506C1356.96 55.2783 1357 55.6826 1357.09 56.0635C1357.18 56.4443 1357.32 56.7783 1357.5 57.0654C1357.69 57.3525 1357.93 57.5781 1358.23 57.7422C1358.52 57.9062 1358.87 57.9883 1359.27 57.9883C1359.66 57.9883 1360 57.9062 1360.29 57.7422C1360.58 57.5781 1360.82 57.3525 1361.01 57.0654C1361.2 56.7783 1361.34 56.4443 1361.42 56.0635C1361.52 55.6826 1361.57 55.2783 1361.57 54.8506V54.6484C1361.57 54.2266 1361.52 53.8281 1361.42 53.4531C1361.34 53.0723 1361.2 52.7354 1361 52.4424C1360.82 52.1494 1360.58 51.9209 1360.28 51.7568C1360 51.5869 1359.65 51.502 1359.25 51.502C1358.86 51.502 1358.51 51.5869 1358.22 51.7568C1357.93 51.9209 1357.69 52.1494 1357.5 52.4424C1357.32 52.7354 1357.18 53.0723 1357.09 53.4531C1357 53.8281 1356.96 54.2266 1356.96 54.6484Z" fill="#5384ED"/>
<path d="M1501 53L1491 47.2265L1491 58.7735L1501 53ZM1434.33 53C1434.33 50.0545 1431.95 47.6666 1429 47.6666C1426.05 47.6666 1423.67 50.0545 1423.67 53C1423.67 55.9455 1426.05 58.3333 1429 58.3333C1431.95 58.3333 1434.33 55.9455 1434.33 53ZM1492 52L1429 52L1429 54L1492 54L1492 52Z" fill="#5384ED"/>
<rect x="1501" y="30.5" width="246" height="45" rx="8" fill="#E2EDFD"/>
<path d="M1563.03 56.2041C1563.03 55.9404 1562.99 55.7061 1562.91 55.501C1562.83 55.2959 1562.7 55.1084 1562.5 54.9385C1562.3 54.7686 1562.02 54.6045 1561.65 54.4463C1561.3 54.2822 1560.84 54.1152 1560.28 53.9453C1559.67 53.7578 1559.11 53.5498 1558.59 53.3213C1558.08 53.0869 1557.64 52.8174 1557.26 52.5127C1556.88 52.2021 1556.58 51.8477 1556.37 51.4492C1556.16 51.0449 1556.05 50.5791 1556.05 50.0518C1556.05 49.5303 1556.16 49.0557 1556.38 48.6279C1556.6 48.2002 1556.92 47.8311 1557.32 47.5205C1557.73 47.2041 1558.21 46.9609 1558.77 46.791C1559.33 46.6152 1559.94 46.5273 1560.62 46.5273C1561.57 46.5273 1562.38 46.7031 1563.07 47.0547C1563.76 47.4062 1564.29 47.8779 1564.66 48.4697C1565.03 49.0615 1565.22 49.7148 1565.22 50.4297H1563.03C1563.03 50.0078 1562.94 49.6357 1562.76 49.3135C1562.58 48.9854 1562.32 48.7275 1561.95 48.54C1561.59 48.3525 1561.14 48.2588 1560.59 48.2588C1560.07 48.2588 1559.63 48.3379 1559.29 48.4961C1558.94 48.6543 1558.69 48.8682 1558.52 49.1377C1558.35 49.4072 1558.26 49.7119 1558.26 50.0518C1558.26 50.292 1558.32 50.5117 1558.43 50.7109C1558.54 50.9043 1558.71 51.0859 1558.94 51.2559C1559.17 51.4199 1559.45 51.5752 1559.8 51.7217C1560.14 51.8682 1560.55 52.0088 1561.02 52.1436C1561.73 52.3545 1562.35 52.5889 1562.88 52.8467C1563.4 53.0986 1563.84 53.3857 1564.19 53.708C1564.54 54.0303 1564.81 54.3965 1564.98 54.8066C1565.16 55.2109 1565.25 55.6709 1565.25 56.1865C1565.25 56.7256 1565.14 57.2119 1564.92 57.6455C1564.71 58.0732 1564.4 58.4395 1563.99 58.7441C1563.59 59.043 1563.11 59.2744 1562.55 59.4385C1561.99 59.5967 1561.37 59.6758 1560.69 59.6758C1560.07 59.6758 1559.46 59.5938 1558.87 59.4297C1558.28 59.2656 1557.74 59.0166 1557.25 58.6826C1556.76 58.3428 1556.38 57.9209 1556.09 57.417C1555.8 56.9072 1555.66 56.3125 1555.66 55.6328H1557.87C1557.87 56.0488 1557.94 56.4033 1558.08 56.6963C1558.22 56.9893 1558.42 57.2295 1558.68 57.417C1558.94 57.5986 1559.24 57.7334 1559.58 57.8213C1559.92 57.9092 1560.29 57.9531 1560.69 57.9531C1561.2 57.9531 1561.63 57.8799 1561.98 57.7334C1562.33 57.5869 1562.59 57.3818 1562.77 57.1182C1562.95 56.8545 1563.03 56.5498 1563.03 56.2041ZM1571.18 59.6758C1570.48 59.6758 1569.84 59.5615 1569.27 59.333C1568.71 59.0986 1568.23 58.7734 1567.83 58.3574C1567.44 57.9414 1567.14 57.4521 1566.93 56.8896C1566.72 56.3271 1566.61 55.7207 1566.61 55.0703V54.7188C1566.61 53.9746 1566.72 53.3008 1566.94 52.6973C1567.15 52.0938 1567.45 51.5781 1567.84 51.1504C1568.23 50.7168 1568.68 50.3857 1569.21 50.1572C1569.74 49.9287 1570.31 49.8145 1570.93 49.8145C1571.61 49.8145 1572.2 49.9287 1572.71 50.1572C1573.22 50.3857 1573.64 50.708 1573.98 51.124C1574.32 51.5342 1574.57 52.0234 1574.73 52.5918C1574.9 53.1602 1574.99 53.7871 1574.99 54.4727V55.3779H1567.64V53.8574H1572.89V53.6904C1572.88 53.3096 1572.81 52.9521 1572.67 52.6182C1572.53 52.2842 1572.32 52.0146 1572.04 51.8096C1571.76 51.6045 1571.39 51.502 1570.92 51.502C1570.57 51.502 1570.25 51.5781 1569.98 51.7305C1569.71 51.877 1569.48 52.0908 1569.3 52.3721C1569.12 52.6533 1568.98 52.9932 1568.88 53.3916C1568.78 53.7842 1568.74 54.2266 1568.74 54.7188V55.0703C1568.74 55.4863 1568.79 55.873 1568.9 56.2305C1569.02 56.582 1569.19 56.8896 1569.41 57.1533C1569.64 57.417 1569.91 57.625 1570.22 57.7773C1570.54 57.9238 1570.9 57.9971 1571.3 57.9971C1571.81 57.9971 1572.27 57.8945 1572.67 57.6895C1573.06 57.4844 1573.41 57.1943 1573.7 56.8193L1574.82 57.9004C1574.61 58.1992 1574.35 58.4863 1574.02 58.7617C1573.69 59.0312 1573.29 59.251 1572.82 59.4209C1572.35 59.5908 1571.8 59.6758 1571.18 59.6758ZM1578.91 46V59.5H1576.78V46H1578.91ZM1585.42 59.6758C1584.72 59.6758 1584.08 59.5615 1583.51 59.333C1582.95 59.0986 1582.47 58.7734 1582.07 58.3574C1581.68 57.9414 1581.38 57.4521 1581.17 56.8896C1580.95 56.3271 1580.85 55.7207 1580.85 55.0703V54.7188C1580.85 53.9746 1580.96 53.3008 1581.17 52.6973C1581.39 52.0938 1581.69 51.5781 1582.08 51.1504C1582.47 50.7168 1582.92 50.3857 1583.45 50.1572C1583.98 49.9287 1584.55 49.8145 1585.16 49.8145C1585.84 49.8145 1586.44 49.9287 1586.95 50.1572C1587.46 50.3857 1587.88 50.708 1588.21 51.124C1588.55 51.5342 1588.81 52.0234 1588.97 52.5918C1589.14 53.1602 1589.22 53.7871 1589.22 54.4727V55.3779H1581.88V53.8574H1587.13V53.6904C1587.12 53.3096 1587.04 52.9521 1586.9 52.6182C1586.77 52.2842 1586.56 52.0146 1586.28 51.8096C1586 51.6045 1585.62 51.502 1585.16 51.502C1584.8 51.502 1584.49 51.5781 1584.21 51.7305C1583.95 51.877 1583.72 52.0908 1583.54 52.3721C1583.36 52.6533 1583.22 52.9932 1583.12 53.3916C1583.02 53.7842 1582.98 54.2266 1582.98 54.7188V55.0703C1582.98 55.4863 1583.03 55.873 1583.14 56.2305C1583.26 56.582 1583.43 56.8896 1583.65 57.1533C1583.88 57.417 1584.14 57.625 1584.46 57.7773C1584.78 57.9238 1585.14 57.9971 1585.54 57.9971C1586.05 57.9971 1586.51 57.8945 1586.9 57.6895C1587.3 57.4844 1587.65 57.1943 1587.94 56.8193L1589.06 57.9004C1588.85 58.1992 1588.59 58.4863 1588.26 58.7617C1587.93 59.0312 1587.53 59.251 1587.05 59.4209C1586.58 59.5908 1586.04 59.6758 1585.42 59.6758ZM1594.76 57.9883C1595.11 57.9883 1595.42 57.9209 1595.69 57.7861C1595.97 57.6455 1596.2 57.4521 1596.37 57.2061C1596.55 56.96 1596.64 56.6758 1596.66 56.3535H1598.66C1598.64 56.9688 1598.46 57.5283 1598.11 58.0322C1597.76 58.5361 1597.29 58.9375 1596.71 59.2363C1596.13 59.5293 1595.49 59.6758 1594.79 59.6758C1594.06 59.6758 1593.43 59.5527 1592.89 59.3066C1592.35 59.0547 1591.9 58.709 1591.54 58.2695C1591.19 57.8301 1590.92 57.3232 1590.74 56.749C1590.56 56.1748 1590.47 55.5596 1590.47 54.9033V54.5957C1590.47 53.9395 1590.56 53.3242 1590.74 52.75C1590.92 52.1699 1591.19 51.6602 1591.54 51.2207C1591.9 50.7812 1592.35 50.4385 1592.89 50.1924C1593.43 49.9404 1594.06 49.8145 1594.78 49.8145C1595.54 49.8145 1596.21 49.9668 1596.78 50.2715C1597.36 50.5703 1597.81 50.9893 1598.14 51.5283C1598.47 52.0615 1598.64 52.6826 1598.66 53.3916H1596.66C1596.64 53.04 1596.55 52.7236 1596.4 52.4424C1596.24 52.1553 1596.03 51.9268 1595.75 51.7568C1595.47 51.5869 1595.14 51.502 1594.75 51.502C1594.33 51.502 1593.97 51.5898 1593.69 51.7656C1593.41 51.9355 1593.19 52.1699 1593.03 52.4688C1592.87 52.7617 1592.76 53.0928 1592.69 53.4619C1592.62 53.8252 1592.59 54.2031 1592.59 54.5957V54.9033C1592.59 55.2959 1592.62 55.6768 1592.69 56.0459C1592.75 56.415 1592.86 56.7461 1593.02 57.0391C1593.19 57.3262 1593.41 57.5576 1593.69 57.7334C1593.97 57.9033 1594.33 57.9883 1594.76 57.9883ZM1604.64 49.9902V51.5371H1599.28V49.9902H1604.64ZM1600.83 47.6611H1602.94V56.8721C1602.94 57.165 1602.99 57.3906 1603.07 57.5488C1603.16 57.7012 1603.28 57.8037 1603.43 57.8564C1603.58 57.9092 1603.76 57.9355 1603.96 57.9355C1604.11 57.9355 1604.25 57.9268 1604.39 57.9092C1604.52 57.8916 1604.63 57.874 1604.71 57.8564L1604.72 59.4736C1604.54 59.5264 1604.34 59.5732 1604.1 59.6143C1603.88 59.6553 1603.61 59.6758 1603.31 59.6758C1602.83 59.6758 1602.4 59.5908 1602.02 59.4209C1601.65 59.2451 1601.35 58.9609 1601.14 58.5684C1600.93 58.1758 1600.83 57.6543 1600.83 57.0039V47.6611ZM1616.56 57.5312V46H1618.69V59.5H1616.76L1616.56 57.5312ZM1610.37 54.8506V54.666C1610.37 53.9453 1610.46 53.2891 1610.63 52.6973C1610.8 52.0996 1611.04 51.5869 1611.36 51.1592C1611.69 50.7256 1612.08 50.3945 1612.54 50.166C1613 49.9316 1613.53 49.8145 1614.11 49.8145C1614.68 49.8145 1615.18 49.9258 1615.62 50.1484C1616.05 50.3711 1616.42 50.6904 1616.73 51.1064C1617.03 51.5166 1617.27 52.0088 1617.46 52.583C1617.64 53.1514 1617.77 53.7842 1617.84 54.4814V55.0703C1617.77 55.75 1617.64 56.3711 1617.46 56.9336C1617.27 57.4961 1617.03 57.9824 1616.73 58.3926C1616.42 58.8027 1616.05 59.1191 1615.61 59.3418C1615.18 59.5645 1614.67 59.6758 1614.09 59.6758C1613.51 59.6758 1613 59.5557 1612.53 59.3154C1612.08 59.0752 1611.69 58.7383 1611.36 58.3047C1611.04 57.8711 1610.8 57.3613 1610.63 56.7754C1610.46 56.1836 1610.37 55.542 1610.37 54.8506ZM1612.49 54.666V54.8506C1612.49 55.2842 1612.53 55.6885 1612.6 56.0635C1612.69 56.4385 1612.81 56.7695 1612.98 57.0566C1613.15 57.3379 1613.37 57.5605 1613.64 57.7246C1613.92 57.8828 1614.24 57.9619 1614.62 57.9619C1615.11 57.9619 1615.5 57.8564 1615.81 57.6455C1616.12 57.4346 1616.37 57.1504 1616.54 56.793C1616.72 56.4297 1616.85 56.0254 1616.91 55.5801V53.9893C1616.88 53.6436 1616.8 53.3213 1616.69 53.0225C1616.58 52.7236 1616.44 52.4629 1616.26 52.2402C1616.08 52.0117 1615.85 51.8359 1615.58 51.7129C1615.32 51.584 1615.01 51.5195 1614.64 51.5195C1614.26 51.5195 1613.93 51.6016 1613.66 51.7656C1613.39 51.9297 1613.17 52.1553 1612.99 52.4424C1612.82 52.7295 1612.69 53.0635 1612.61 53.4443C1612.53 53.8252 1612.49 54.2324 1612.49 54.666ZM1626.26 57.5928V53.0576C1626.26 52.7178 1626.2 52.4248 1626.08 52.1787C1625.95 51.9326 1625.77 51.7422 1625.51 51.6074C1625.27 51.4727 1624.96 51.4053 1624.58 51.4053C1624.24 51.4053 1623.94 51.4639 1623.69 51.5811C1623.43 51.6982 1623.24 51.8564 1623.1 52.0557C1622.96 52.2549 1622.89 52.4805 1622.89 52.7324H1620.78C1620.78 52.3574 1620.87 51.9941 1621.05 51.6426C1621.23 51.291 1621.5 50.9775 1621.84 50.7021C1622.19 50.4268 1622.6 50.21 1623.08 50.0518C1623.56 49.8936 1624.1 49.8145 1624.7 49.8145C1625.41 49.8145 1626.04 49.9346 1626.6 50.1748C1627.15 50.415 1627.59 50.7783 1627.91 51.2646C1628.23 51.7451 1628.39 52.3486 1628.39 53.0752V57.3027C1628.39 57.7363 1628.42 58.126 1628.48 58.4717C1628.54 58.8115 1628.63 59.1074 1628.75 59.3594V59.5H1626.58C1626.48 59.2715 1626.4 58.9814 1626.34 58.6299C1626.29 58.2725 1626.26 57.9268 1626.26 57.5928ZM1626.57 53.7168L1626.59 55.0264H1625.07C1624.67 55.0264 1624.33 55.0645 1624.03 55.1406C1623.73 55.2109 1623.48 55.3164 1623.28 55.457C1623.08 55.5977 1622.93 55.7676 1622.83 55.9668C1622.73 56.166 1622.68 56.3916 1622.68 56.6436C1622.68 56.8955 1622.74 57.127 1622.86 57.3379C1622.98 57.543 1623.15 57.7041 1623.37 57.8213C1623.6 57.9385 1623.87 57.9971 1624.2 57.9971C1624.63 57.9971 1625.01 57.9092 1625.33 57.7334C1625.66 57.5518 1625.92 57.332 1626.1 57.0742C1626.29 56.8105 1626.39 56.5615 1626.4 56.3271L1627.09 57.2676C1627.02 57.5078 1626.9 57.7656 1626.73 58.041C1626.56 58.3164 1626.33 58.5801 1626.06 58.832C1625.79 59.0781 1625.46 59.2803 1625.08 59.4385C1624.71 59.5967 1624.28 59.6758 1623.78 59.6758C1623.16 59.6758 1622.61 59.5527 1622.12 59.3066C1621.64 59.0547 1621.25 58.7178 1620.98 58.2959C1620.7 57.8682 1620.57 57.3848 1620.57 56.8457C1620.57 56.3418 1620.66 55.8965 1620.85 55.5098C1621.04 55.1172 1621.32 54.7891 1621.69 54.5254C1622.07 54.2617 1622.52 54.0625 1623.06 53.9277C1623.6 53.7871 1624.22 53.7168 1624.91 53.7168H1626.57ZM1634.96 49.9902V51.5371H1629.6V49.9902H1634.96ZM1631.15 47.6611H1633.27V56.8721C1633.27 57.165 1633.31 57.3906 1633.39 57.5488C1633.48 57.7012 1633.6 57.8037 1633.75 57.8564C1633.9 57.9092 1634.08 57.9355 1634.29 57.9355C1634.43 57.9355 1634.57 57.9268 1634.71 57.9092C1634.84 57.8916 1634.95 57.874 1635.03 57.8564L1635.04 59.4736C1634.87 59.5264 1634.66 59.5732 1634.43 59.6143C1634.2 59.6553 1633.93 59.6758 1633.64 59.6758C1633.15 59.6758 1632.72 59.5908 1632.34 59.4209C1631.97 59.2451 1631.68 58.9609 1631.46 58.5684C1631.25 58.1758 1631.15 57.6543 1631.15 57.0039V47.6611ZM1640.79 59.6758C1640.09 59.6758 1639.45 59.5615 1638.88 59.333C1638.32 59.0986 1637.84 58.7734 1637.44 58.3574C1637.05 57.9414 1636.75 57.4521 1636.54 56.8896C1636.33 56.3271 1636.22 55.7207 1636.22 55.0703V54.7188C1636.22 53.9746 1636.33 53.3008 1636.54 52.6973C1636.76 52.0938 1637.06 51.5781 1637.45 51.1504C1637.84 50.7168 1638.29 50.3857 1638.82 50.1572C1639.35 49.9287 1639.92 49.8145 1640.54 49.8145C1641.21 49.8145 1641.81 49.9287 1642.32 50.1572C1642.83 50.3857 1643.25 50.708 1643.58 51.124C1643.92 51.5342 1644.18 52.0234 1644.34 52.5918C1644.51 53.1602 1644.6 53.7871 1644.6 54.4727V55.3779H1637.25V53.8574H1642.5V53.6904C1642.49 53.3096 1642.42 52.9521 1642.28 52.6182C1642.14 52.2842 1641.93 52.0146 1641.65 51.8096C1641.37 51.6045 1641 51.502 1640.53 51.502C1640.17 51.502 1639.86 51.5781 1639.59 51.7305C1639.32 51.877 1639.09 52.0908 1638.91 52.3721C1638.73 52.6533 1638.59 52.9932 1638.49 53.3916C1638.39 53.7842 1638.35 54.2266 1638.35 54.7188V55.0703C1638.35 55.4863 1638.4 55.873 1638.51 56.2305C1638.63 56.582 1638.8 56.8896 1639.02 57.1533C1639.25 57.417 1639.52 57.625 1639.83 57.7773C1640.15 57.9238 1640.51 57.9971 1640.91 57.9971C1641.42 57.9971 1641.88 57.8945 1642.28 57.6895C1642.67 57.4844 1643.02 57.1943 1643.31 56.8193L1644.43 57.9004C1644.22 58.1992 1643.96 58.4863 1643.63 58.7617C1643.3 59.0312 1642.9 59.251 1642.42 59.4209C1641.96 59.5908 1641.41 59.6758 1640.79 59.6758ZM1648.44 52.5391L1650.64 51.0537C1651.01 50.8076 1651.28 50.5674 1651.43 50.333C1651.59 50.0928 1651.67 49.7939 1651.67 49.4365C1651.67 49.1318 1651.55 48.8506 1651.32 48.5928C1651.08 48.335 1650.75 48.2061 1650.33 48.2061C1650.03 48.2061 1649.78 48.2764 1649.57 48.417C1649.37 48.5518 1649.21 48.7334 1649.1 48.9619C1649 49.1846 1648.96 49.4336 1648.96 49.709C1648.96 49.9727 1649.02 50.2451 1649.16 50.5264C1649.29 50.8018 1649.48 51.0918 1649.71 51.3965C1649.95 51.6953 1650.21 52.0176 1650.5 52.3633L1656.55 59.5H1654.1L1649.16 53.6904C1648.73 53.1748 1648.35 52.7031 1648.02 52.2754C1647.7 51.8418 1647.44 51.4229 1647.26 51.0186C1647.08 50.6084 1646.99 50.1865 1646.99 49.7529C1646.99 49.085 1647.12 48.5107 1647.4 48.0303C1647.67 47.5498 1648.06 47.1807 1648.57 46.9229C1649.07 46.6592 1649.66 46.5273 1650.33 46.5273C1650.99 46.5273 1651.54 46.6592 1652.01 46.9229C1652.49 47.1807 1652.85 47.5234 1653.1 47.9512C1653.36 48.3789 1653.49 48.8477 1653.49 49.3574C1653.49 49.7617 1653.42 50.1309 1653.27 50.4648C1653.12 50.7988 1652.92 51.1035 1652.66 51.3789C1652.41 51.6543 1652.11 51.915 1651.77 52.1611L1649.09 54.1123C1648.78 54.3643 1648.54 54.6074 1648.39 54.8418C1648.25 55.0703 1648.15 55.2812 1648.1 55.4746C1648.06 55.668 1648.03 55.8379 1648.03 55.9844C1648.03 56.3594 1648.11 56.6992 1648.27 57.0039C1648.43 57.3086 1648.67 57.5518 1648.98 57.7334C1649.3 57.9092 1649.68 57.9971 1650.13 57.9971C1650.62 57.9971 1651.09 57.8887 1651.55 57.6719C1652 57.4492 1652.42 57.1357 1652.78 56.7314C1653.14 56.3271 1653.43 55.8438 1653.64 55.2812C1653.86 54.7188 1653.96 54.0947 1653.96 53.4092H1655.79C1655.79 54.0303 1655.73 54.6191 1655.61 55.1758C1655.49 55.7324 1655.3 56.248 1655.04 56.7227C1654.78 57.1973 1654.44 57.6221 1654.02 57.9971C1653.98 58.0381 1653.93 58.0908 1653.88 58.1553C1653.83 58.2139 1653.78 58.2637 1653.74 58.3047C1653.23 58.7676 1652.67 59.1133 1652.04 59.3418C1651.42 59.5645 1650.76 59.6758 1650.05 59.6758C1649.2 59.6758 1648.47 59.5205 1647.85 59.21C1647.23 58.8994 1646.75 58.4717 1646.41 57.9268C1646.07 57.3818 1645.91 56.7578 1645.91 56.0547C1645.91 55.5332 1646.01 55.0762 1646.23 54.6836C1646.45 54.2852 1646.74 53.916 1647.12 53.5762C1647.5 53.2305 1647.94 52.8848 1648.44 52.5391ZM1662.16 49.9902V51.5371H1656.79V49.9902H1662.16ZM1658.34 47.6611H1660.46V56.8721C1660.46 57.165 1660.5 57.3906 1660.58 57.5488C1660.67 57.7012 1660.79 57.8037 1660.94 57.8564C1661.1 57.9092 1661.27 57.9355 1661.48 57.9355C1661.63 57.9355 1661.77 57.9268 1661.9 57.9092C1662.04 57.8916 1662.14 57.874 1662.23 57.8564L1662.24 59.4736C1662.06 59.5264 1661.85 59.5732 1661.62 59.6143C1661.39 59.6553 1661.13 59.6758 1660.83 59.6758C1660.34 59.6758 1659.91 59.5908 1659.54 59.4209C1659.16 59.2451 1658.87 58.9609 1658.66 58.5684C1658.45 58.1758 1658.34 57.6543 1658.34 57.0039V47.6611ZM1666.06 49.9902V59.5H1663.93V49.9902H1666.06ZM1663.79 47.4941C1663.79 47.1719 1663.9 46.9053 1664.11 46.6943C1664.32 46.4775 1664.62 46.3691 1665 46.3691C1665.38 46.3691 1665.67 46.4775 1665.89 46.6943C1666.11 46.9053 1666.22 47.1719 1666.22 47.4941C1666.22 47.8105 1666.11 48.0742 1665.89 48.2852C1665.67 48.4961 1665.38 48.6016 1665 48.6016C1664.62 48.6016 1664.32 48.4961 1664.11 48.2852C1663.9 48.0742 1663.79 47.8105 1663.79 47.4941ZM1670.5 51.9238V59.5H1668.38V49.9902H1670.37L1670.5 51.9238ZM1670.15 54.3936L1669.43 54.3848C1669.43 53.7285 1669.52 53.1221 1669.68 52.5654C1669.84 52.0088 1670.08 51.5254 1670.4 51.1152C1670.72 50.6992 1671.11 50.3799 1671.58 50.1572C1672.05 49.9287 1672.6 49.8145 1673.22 49.8145C1673.66 49.8145 1674.05 49.8789 1674.41 50.0078C1674.77 50.1309 1675.08 50.3271 1675.35 50.5967C1675.62 50.8662 1675.82 51.2119 1675.96 51.6338C1676.11 52.0557 1676.18 52.5654 1676.18 53.1631V59.5H1674.07V53.3477C1674.07 52.8848 1674 52.5215 1673.85 52.2578C1673.72 51.9941 1673.52 51.8066 1673.27 51.6953C1673.01 51.5781 1672.71 51.5195 1672.36 51.5195C1671.96 51.5195 1671.62 51.5957 1671.34 51.748C1671.07 51.9004 1670.84 52.1084 1670.66 52.3721C1670.49 52.6357 1670.36 52.9404 1670.28 53.2861C1670.2 53.6318 1670.15 54.001 1670.15 54.3936ZM1676.05 53.8311L1675.06 54.0508C1675.06 53.4766 1675.14 52.9346 1675.3 52.4248C1675.46 51.9092 1675.7 51.458 1676.01 51.0713C1676.32 50.6787 1676.71 50.3711 1677.18 50.1484C1677.64 49.9258 1678.17 49.8145 1678.77 49.8145C1679.25 49.8145 1679.69 49.8818 1680.07 50.0166C1680.46 50.1455 1680.78 50.3506 1681.05 50.6318C1681.32 50.9131 1681.53 51.2793 1681.67 51.7305C1681.81 52.1758 1681.88 52.7148 1681.88 53.3477V59.5H1679.75V53.3389C1679.75 52.8584 1679.68 52.4863 1679.54 52.2227C1679.41 51.959 1679.21 51.7773 1678.96 51.6777C1678.71 51.5723 1678.41 51.5195 1678.06 51.5195C1677.73 51.5195 1677.44 51.5811 1677.19 51.7041C1676.94 51.8213 1676.73 51.9883 1676.56 52.2051C1676.39 52.416 1676.26 52.6592 1676.17 52.9346C1676.09 53.21 1676.05 53.5088 1676.05 53.8311ZM1688.25 59.6758C1687.55 59.6758 1686.91 59.5615 1686.34 59.333C1685.78 59.0986 1685.3 58.7734 1684.9 58.3574C1684.51 57.9414 1684.21 57.4521 1684 56.8896C1683.79 56.3271 1683.68 55.7207 1683.68 55.0703V54.7188C1683.68 53.9746 1683.79 53.3008 1684.01 52.6973C1684.22 52.0938 1684.52 51.5781 1684.91 51.1504C1685.3 50.7168 1685.75 50.3857 1686.28 50.1572C1686.81 49.9287 1687.38 49.8145 1688 49.8145C1688.68 49.8145 1689.27 49.9287 1689.78 50.1572C1690.29 50.3857 1690.71 50.708 1691.05 51.124C1691.39 51.5342 1691.64 52.0234 1691.8 52.5918C1691.97 53.1602 1692.06 53.7871 1692.06 54.4727V55.3779H1684.71V53.8574H1689.96V53.6904C1689.95 53.3096 1689.88 52.9521 1689.74 52.6182C1689.6 52.2842 1689.39 52.0146 1689.11 51.8096C1688.83 51.6045 1688.46 51.502 1687.99 51.502C1687.64 51.502 1687.32 51.5781 1687.05 51.7305C1686.78 51.877 1686.55 52.0908 1686.37 52.3721C1686.19 52.6533 1686.05 52.9932 1685.95 53.3916C1685.85 53.7842 1685.81 54.2266 1685.81 54.7188V55.0703C1685.81 55.4863 1685.86 55.873 1685.97 56.2305C1686.09 56.582 1686.26 56.8896 1686.48 57.1533C1686.71 57.417 1686.98 57.625 1687.29 57.7773C1687.61 57.9238 1687.97 57.9971 1688.37 57.9971C1688.88 57.9971 1689.34 57.8945 1689.74 57.6895C1690.13 57.4844 1690.48 57.1943 1690.77 56.8193L1691.89 57.9004C1691.68 58.1992 1691.42 58.4863 1691.09 58.7617C1690.76 59.0312 1690.36 59.251 1689.89 59.4209C1689.42 59.5908 1688.87 59.6758 1688.25 59.6758Z" fill="#5384ED"/>
<path d="M1819 53L1809 47.2265L1809 58.7735L1819 53ZM1752.33 53C1752.33 50.0545 1749.95 47.6666 1747 47.6666C1744.05 47.6666 1741.67 50.0545 1741.67 53C1741.67 55.9455 1744.05 58.3333 1747 58.3333C1749.95 58.3333 1752.33 55.9455 1752.33 53ZM1810 52L1747 52L1747 54L1810 54L1810 52Z" fill="#5384ED"/>
<rect x="1820.5" y="28" width="145" height="50" rx="25" fill="#F6F9FE"/>
<path d="M1854.66 46.7031V59.5H1852.45V46.7031H1854.66ZM1859.29 52.0205V59.5H1857.17V49.9902H1859.17L1859.29 52.0205ZM1858.91 54.3936L1858.22 54.3848C1858.23 53.7109 1858.32 53.0928 1858.51 52.5303C1858.69 51.9678 1858.95 51.4844 1859.28 51.0801C1859.61 50.6758 1860.01 50.3652 1860.47 50.1484C1860.94 49.9258 1861.45 49.8145 1862.02 49.8145C1862.48 49.8145 1862.89 49.8789 1863.26 50.0078C1863.64 50.1309 1863.96 50.333 1864.22 50.6143C1864.49 50.8955 1864.69 51.2617 1864.83 51.7129C1864.97 52.1582 1865.04 52.7061 1865.04 53.3564V59.5H1862.92V53.3477C1862.92 52.8906 1862.85 52.5303 1862.72 52.2666C1862.59 51.9971 1862.4 51.8066 1862.14 51.6953C1861.9 51.5781 1861.59 51.5195 1861.22 51.5195C1860.86 51.5195 1860.53 51.5957 1860.25 51.748C1859.96 51.9004 1859.72 52.1084 1859.52 52.3721C1859.32 52.6357 1859.17 52.9404 1859.07 53.2861C1858.96 53.6318 1858.91 54.001 1858.91 54.3936ZM1871.57 49.9902V51.5371H1866.21V49.9902H1871.57ZM1867.75 47.6611H1869.87V56.8721C1869.87 57.165 1869.91 57.3906 1869.99 57.5488C1870.08 57.7012 1870.2 57.8037 1870.35 57.8564C1870.51 57.9092 1870.68 57.9355 1870.89 57.9355C1871.04 57.9355 1871.18 57.9268 1871.31 57.9092C1871.45 57.8916 1871.55 57.874 1871.64 57.8564L1871.65 59.4736C1871.47 59.5264 1871.26 59.5732 1871.03 59.6143C1870.8 59.6553 1870.54 59.6758 1870.24 59.6758C1869.75 59.6758 1869.32 59.5908 1868.95 59.4209C1868.57 59.2451 1868.28 58.9609 1868.07 58.5684C1867.86 58.1758 1867.75 57.6543 1867.75 57.0039V47.6611ZM1877.39 59.6758C1876.69 59.6758 1876.05 59.5615 1875.49 59.333C1874.92 59.0986 1874.44 58.7734 1874.04 58.3574C1873.65 57.9414 1873.35 57.4521 1873.14 56.8896C1872.93 56.3271 1872.82 55.7207 1872.82 55.0703V54.7188C1872.82 53.9746 1872.93 53.3008 1873.15 52.6973C1873.37 52.0938 1873.67 51.5781 1874.05 51.1504C1874.44 50.7168 1874.9 50.3857 1875.42 50.1572C1875.95 49.9287 1876.52 49.8145 1877.14 49.8145C1877.82 49.8145 1878.41 49.9287 1878.92 50.1572C1879.43 50.3857 1879.85 50.708 1880.19 51.124C1880.53 51.5342 1880.78 52.0234 1880.94 52.5918C1881.11 53.1602 1881.2 53.7871 1881.2 54.4727V55.3779H1873.85V53.8574H1879.11V53.6904C1879.1 53.3096 1879.02 52.9521 1878.88 52.6182C1878.74 52.2842 1878.54 52.0146 1878.25 51.8096C1877.97 51.6045 1877.6 51.502 1877.13 51.502C1876.78 51.502 1876.46 51.5781 1876.19 51.7305C1875.92 51.877 1875.69 52.0908 1875.51 52.3721C1875.33 52.6533 1875.19 52.9932 1875.09 53.3916C1875 53.7842 1874.95 54.2266 1874.95 54.7188V55.0703C1874.95 55.4863 1875.01 55.873 1875.12 56.2305C1875.23 56.582 1875.4 56.8896 1875.63 57.1533C1875.85 57.417 1876.12 57.625 1876.44 57.7773C1876.75 57.9238 1877.11 57.9971 1877.52 57.9971C1878.03 57.9971 1878.48 57.8945 1878.88 57.6895C1879.28 57.4844 1879.62 57.1943 1879.92 56.8193L1881.03 57.9004C1880.83 58.1992 1880.56 58.4863 1880.23 58.7617C1879.9 59.0312 1879.5 59.251 1879.03 59.4209C1878.56 59.5908 1878.01 59.6758 1877.39 59.6758ZM1884.98 51.8008V59.5H1882.86V49.9902H1884.88L1884.98 51.8008ZM1887.89 49.9287L1887.87 51.8975C1887.74 51.874 1887.6 51.8564 1887.45 51.8447C1887.3 51.833 1887.16 51.8271 1887.01 51.8271C1886.65 51.8271 1886.33 51.8799 1886.05 51.9854C1885.78 52.085 1885.54 52.2314 1885.36 52.4248C1885.17 52.6123 1885.03 52.8408 1884.93 53.1104C1884.83 53.3799 1884.78 53.6816 1884.76 54.0156L1884.28 54.0508C1884.28 53.4531 1884.33 52.8994 1884.45 52.3896C1884.57 51.8799 1884.74 51.4316 1884.98 51.0449C1885.22 50.6582 1885.52 50.3564 1885.88 50.1396C1886.24 49.9229 1886.66 49.8145 1887.13 49.8145C1887.26 49.8145 1887.4 49.8262 1887.54 49.8496C1887.7 49.873 1887.81 49.8994 1887.89 49.9287ZM1892.47 57.8213L1894.8 49.9902H1896.99L1893.69 59.5H1892.32L1892.47 57.8213ZM1890.68 49.9902L1893.06 57.8564L1893.17 59.5H1891.8L1888.48 49.9902H1890.68ZM1900.57 49.9902V59.5H1898.44V49.9902H1900.57ZM1898.3 47.4941C1898.3 47.1719 1898.41 46.9053 1898.62 46.6943C1898.84 46.4775 1899.13 46.3691 1899.52 46.3691C1899.89 46.3691 1900.19 46.4775 1900.4 46.6943C1900.62 46.9053 1900.73 47.1719 1900.73 47.4941C1900.73 47.8105 1900.62 48.0742 1900.4 48.2852C1900.19 48.4961 1899.89 48.6016 1899.52 48.6016C1899.13 48.6016 1898.84 48.4961 1898.62 48.2852C1898.41 48.0742 1898.3 47.8105 1898.3 47.4941ZM1907.08 59.6758C1906.38 59.6758 1905.74 59.5615 1905.18 59.333C1904.61 59.0986 1904.13 58.7734 1903.73 58.3574C1903.34 57.9414 1903.04 57.4521 1902.83 56.8896C1902.62 56.3271 1902.51 55.7207 1902.51 55.0703V54.7188C1902.51 53.9746 1902.62 53.3008 1902.84 52.6973C1903.05 52.0938 1903.36 51.5781 1903.74 51.1504C1904.13 50.7168 1904.59 50.3857 1905.11 50.1572C1905.64 49.9287 1906.21 49.8145 1906.83 49.8145C1907.51 49.8145 1908.1 49.9287 1908.61 50.1572C1909.12 50.3857 1909.54 50.708 1909.88 51.124C1910.22 51.5342 1910.47 52.0234 1910.63 52.5918C1910.8 53.1602 1910.89 53.7871 1910.89 54.4727V55.3779H1903.54V53.8574H1908.8V53.6904C1908.79 53.3096 1908.71 52.9521 1908.57 52.6182C1908.43 52.2842 1908.23 52.0146 1907.94 51.8096C1907.66 51.6045 1907.29 51.502 1906.82 51.502C1906.47 51.502 1906.15 51.5781 1905.88 51.7305C1905.61 51.877 1905.38 52.0908 1905.2 52.3721C1905.02 52.6533 1904.88 52.9932 1904.78 53.3916C1904.69 53.7842 1904.64 54.2266 1904.64 54.7188V55.0703C1904.64 55.4863 1904.7 55.873 1904.81 56.2305C1904.92 56.582 1905.09 56.8896 1905.32 57.1533C1905.54 57.417 1905.81 57.625 1906.12 57.7773C1906.44 57.9238 1906.8 57.9971 1907.21 57.9971C1907.72 57.9971 1908.17 57.8945 1908.57 57.6895C1908.97 57.4844 1909.31 57.1943 1909.61 56.8193L1910.72 57.9004C1910.52 58.1992 1910.25 58.4863 1909.92 58.7617C1909.59 59.0312 1909.19 59.251 1908.72 59.4209C1908.25 59.5908 1907.7 59.6758 1907.08 59.6758ZM1915.12 57.3906L1917.32 49.9902H1918.68L1918.31 52.2051L1916.09 59.5H1914.88L1915.12 57.3906ZM1913.83 49.9902L1915.55 57.4258L1915.69 59.5H1914.33L1911.76 49.9902H1913.83ZM1920.73 57.3379L1922.39 49.9902H1924.46L1921.89 59.5H1920.54L1920.73 57.3379ZM1918.9 49.9902L1921.08 57.3027L1921.35 59.5H1920.13L1917.89 52.1963L1917.52 49.9902H1918.9ZM1931.24 56.9248C1931.24 56.7139 1931.18 56.5234 1931.08 56.3535C1930.97 56.1777 1930.77 56.0195 1930.47 55.8789C1930.18 55.7383 1929.74 55.6094 1929.17 55.4922C1928.67 55.3809 1928.2 55.249 1927.78 55.0967C1927.37 54.9385 1927.01 54.748 1926.71 54.5254C1926.41 54.3027 1926.18 54.0391 1926.01 53.7344C1925.85 53.4297 1925.77 53.0781 1925.77 52.6797C1925.77 52.293 1925.85 51.9268 1926.02 51.5811C1926.19 51.2354 1926.44 50.9307 1926.75 50.667C1927.07 50.4033 1927.45 50.1953 1927.9 50.043C1928.36 49.8906 1928.87 49.8145 1929.43 49.8145C1930.23 49.8145 1930.91 49.9492 1931.48 50.2188C1932.06 50.4824 1932.5 50.8428 1932.8 51.2998C1933.1 51.751 1933.26 52.2607 1933.26 52.8291H1931.14C1931.14 52.5771 1931.07 52.3428 1930.95 52.126C1930.82 51.9033 1930.63 51.7246 1930.38 51.5898C1930.13 51.4492 1929.81 51.3789 1929.43 51.3789C1929.07 51.3789 1928.77 51.4375 1928.53 51.5547C1928.29 51.666 1928.12 51.8125 1928 51.9941C1927.89 52.1758 1927.83 52.375 1927.83 52.5918C1927.83 52.75 1927.86 52.8936 1927.92 53.0225C1927.99 53.1455 1928.09 53.2598 1928.24 53.3652C1928.38 53.4648 1928.58 53.5586 1928.84 53.6465C1929.09 53.7344 1929.42 53.8193 1929.8 53.9014C1930.53 54.0537 1931.15 54.25 1931.67 54.4902C1932.2 54.7246 1932.61 55.0293 1932.89 55.4043C1933.17 55.7734 1933.31 56.2422 1933.31 56.8105C1933.31 57.2324 1933.22 57.6191 1933.04 57.9707C1932.86 58.3164 1932.6 58.6182 1932.26 58.876C1931.92 59.1279 1931.52 59.3242 1931.04 59.4648C1930.57 59.6055 1930.05 59.6758 1929.46 59.6758C1928.6 59.6758 1927.87 59.5234 1927.27 59.2188C1926.67 58.9082 1926.22 58.5127 1925.91 58.0322C1925.6 57.5459 1925.45 57.042 1925.45 56.5205H1927.5C1927.52 56.9131 1927.63 57.2266 1927.83 57.4609C1928.02 57.6895 1928.27 57.8564 1928.56 57.9619C1928.86 58.0615 1929.17 58.1113 1929.49 58.1113C1929.87 58.1113 1930.19 58.0615 1930.44 57.9619C1930.7 57.8564 1930.9 57.7158 1931.03 57.54C1931.17 57.3584 1931.24 57.1533 1931.24 56.9248Z" fill="#5384ED"/>
<rect x="1820.5" y="28" width="145" height="50" rx="25" stroke="#5384ED" stroke-width="3"/>
<defs>
<linearGradient id="paint0_linear_3267_10981" x1="250" y1="8.08981" x2="415.688" y2="164.015" gradientUnits="userSpaceOnUse">
<stop stop-color="#5D85EC"/>
<stop offset="0.533854" stop-color="#9DBEFF"/>
<stop offset="1" stop-color="#5D87D8"/>
</linearGradient>
</defs>
</svg>
