<svg width="44" height="44" viewBox="0 0 44 44" fill="none" xmlns="http://www.w3.org/2000/svg">
<path d="M0 12C0 5.37258 5.37258 0 12 0H32.0008C38.6283 0 44.0008 5.37258 44.0008 12V32C44.0008 38.6274 38.6282 44 32.0008 44H12C5.37258 44 0 38.6274 0 32V12Z" fill="#F5F8FA"/>
<path opacity="0.4" d="M26.8843 15.1148H23.9413C23.2081 15.1197 22.512 14.7936 22.0474 14.2275L21.0782 12.8876C20.6214 12.3166 19.9253 11.9889 19.1932 12.0003H17.1126C13.3782 12.0003 12 14.192 12 17.9188V21.9474C11.9954 22.3904 31.9956 22.3898 31.9969 21.9474V20.7761C32.0147 17.0492 30.6721 15.1148 26.8843 15.1148Z" fill="#FFC700"/>
<path fill-rule="evenodd" clip-rule="evenodd" d="M30.8321 16.5435C31.1521 16.9176 31.3993 17.3479 31.5612 17.8124C31.8798 18.7671 32.0273 19.7703 31.9969 20.7761V26.0291C31.9956 26.4716 31.963 26.9134 31.8991 27.3513C31.7775 28.124 31.5057 28.8655 31.0989 29.5341C30.9119 29.8571 30.6849 30.1552 30.4231 30.4215C29.2383 31.5089 27.665 32.0749 26.0574 31.992H17.9306C16.3205 32.0743 14.7446 31.5085 13.556 30.4215C13.2974 30.1547 13.0734 29.8566 12.8891 29.5341C12.4847 28.866 12.2187 28.1238 12.1067 27.3513C12.0355 26.9141 11.9998 26.472 12 26.0291V20.7761C11.9998 20.3374 12.0236 19.899 12.0711 19.4628C12.0811 19.3863 12.0961 19.311 12.111 19.2365C12.1357 19.1123 12.16 18.9903 12.16 18.8683C12.2503 18.342 12.415 17.8311 12.6491 17.351C13.3426 15.8691 14.7652 15.1149 17.0948 15.1149H26.8754C28.1802 15.0139 29.4753 15.4067 30.5032 16.2152C30.6215 16.3155 30.7316 16.4253 30.8321 16.5435ZM16.9703 25.5411H27.0355H27.0533C27.2741 25.5507 27.4896 25.4716 27.6517 25.3216C27.8137 25.1715 27.9088 24.963 27.9157 24.7425C27.9282 24.5487 27.8644 24.3577 27.7379 24.2101C27.5924 24.0118 27.3618 23.8934 27.1155 23.8906H16.9703C16.5136 23.8906 16.1434 24.2601 16.1434 24.7159C16.1434 25.1716 16.5136 25.5411 16.9703 25.5411Z" fill="#FFC700"/>
</svg>
