<svg width="44" height="44" viewBox="0 0 44 44" fill="none" xmlns="http://www.w3.org/2000/svg">
<path d="M0 12C0 5.37258 5.37258 0 12 0H32C38.6274 0 44 5.37258 44 12V32C44 38.6274 38.6274 44 32 44H12C5.37258 44 0 38.6274 0 32V12Z" fill="#F5F8FA"/>
<path d="M22 12C16.48 12 12 16.48 12 22C12 27.52 16.48 32 22 32C27.52 32 32 27.52 32 22C32 16.48 27.52 12 22 12ZM27.19 25.94C27.15 26.03 27.1 26.11 27.03 26.18L25.34 27.87C25.19 28.02 25 28.09 24.81 28.09C24.62 28.09 24.43 28.02 24.28 27.87C23.99 27.58 23.99 27.1 24.28 26.81L24.69 26.4H19.1C17.8 26.4 16.75 25.34 16.75 24.05V22.28C16.75 21.87 17.09 21.53 17.5 21.53C17.91 21.53 18.25 21.87 18.25 22.28V24.05C18.25 24.52 18.63 24.9 19.1 24.9H24.69L24.28 24.49C23.99 24.2 23.99 23.72 24.28 23.43C24.57 23.14 25.05 23.14 25.34 23.43L27.03 25.12C27.1 25.19 27.15 25.27 27.19 25.36C27.27 25.55 27.27 25.76 27.19 25.94ZM27.25 21.72C27.25 22.13 26.91 22.47 26.5 22.47C26.09 22.47 25.75 22.13 25.75 21.72V19.95C25.75 19.48 25.37 19.1 24.9 19.1H19.31L19.72 19.5C20.01 19.79 20.01 20.27 19.72 20.56C19.57 20.71 19.38 20.78 19.19 20.78C19 20.78 18.81 20.71 18.66 20.56L16.97 18.87C16.9 18.8 16.85 18.72 16.81 18.63C16.73 18.45 16.73 18.24 16.81 18.06C16.85 17.97 16.9 17.88 16.97 17.81L18.66 16.12C18.95 15.83 19.43 15.83 19.72 16.12C20.01 16.41 20.01 16.89 19.72 17.18L19.31 17.59H24.9C26.2 17.59 27.25 18.65 27.25 19.94V21.72Z" fill="#5384ED"/>
</svg>
