<svg fill="#ff4c00" height="162.697843" viewBox="0 0 17.99 4.753" width="614.636297" xmlns="http://www.w3.org/2000/svg"><path d="m6.443 4.322c-.499 0-.769-.254-.769-.728v-1.39h-.174c-.083-.001-.163-.035-.221-.094s-.09-.138-.088-.22c.004-.165.141-.297.309-.298h.174v-.414c.015-.184.171-.327.359-.327s.345.142.359.327v.414h.28a.31.31 0 0 1 .301.306.31.31 0 0 1 -.301.306h-.28v1.202c0 .21.135.292.247.292h.062c.202 0 .315.132.315.304s-.107.32-.573.32z" fill-rule="evenodd"/><path d="m8.688 4.322c-.892 0-1.431-.64-1.431-1.401 0-.755.54-1.395 1.431-1.395.898 0 1.437.64 1.437 1.395a1.36 1.36 0 0 1 -1.437 1.401zm0-2.173c-.444 0-.69.358-.69.772s.247.779.69.779.696-.358.696-.779c0-.414-.253-.772-.696-.772zm3.956 2.14h-.056c-.056 0-.309-.044-.309-.309-.185.215-.504.342-.858.342-.432 0-.943-.287-.943-.883 0-.623.511-.86.943-.86.36 0 .679.116.858.325v-.359c0-.27-.236-.447-.595-.447a1.08 1.08 0 0 0 -.606.171.27.27 0 0 1 -.129.039c-.15-.002-.27-.123-.27-.27a.28.28 0 0 1 .039-.138c.168-.265.774-.375 1.088-.375.617 0 1.184.243 1.184 1.009v1.407c.001.19-.154.346-.348.347zm-.365-1.004c-.118-.154-.342-.232-.572-.232-.281 0-.511.142-.511.403 0 .248.23.392.511.392.23 0 .454-.077.572-.232z"/><path d="m14.676 4.322c-.353 0-.92-.116-1.088-.354-.033-.043-.051-.095-.05-.149a.3.3 0 0 1 .297-.292c.052 0 .102.014.146.041.213.121.494.215.729.215.309 0 .455-.121.455-.287 0-.441-1.611-.083-1.611-1.131 0-.447.399-.838 1.111-.838.353 0 .836.111.988.325a.23.23 0 0 1 .045.136c-.005.148-.129.266-.28.265a.29.29 0 0 1 -.135-.033 1.26 1.26 0 0 0 -.613-.16c-.258 0-.426.116-.426.265 0 .397 1.605.066 1.605 1.141 0 .486-.421.855-1.173.855zm2.609 0c-.499 0-.769-.254-.769-.728v-1.39h-.174c-.083-.001-.163-.035-.221-.094s-.09-.138-.088-.22c.004-.165.141-.297.309-.298h.174v-.414a.36.36 0 0 1 .359-.327c.188 0 .345.142.359.327v.414h.281a.31.31 0 0 1 .301.306.31.31 0 0 1 -.301.306h-.281v1.202c0 .21.135.292.247.292h.062c.202 0 .314.132.314.304s-.106.32-.573.32z" fill-rule="evenodd"/><path d="m4.734 3.226c.004-.295-.009-.59-.039-.883-.022-.198-.089-.452-.304-.504a.15.15 0 0 0 .084-.003c.249-.13.23-.451.142-.683-.116-.304-.391-.52-.664-.663a3.39 3.39 0 0 0 -3.237.115c-.247.152-.531.449-.406.78a.67.67 0 0 0 .147.22l.094.098c-.127.172-.22.328-.28.537-.18.63-.15 1.035-.101 1.541.031.313.134.779.495.831.294.041.613-.056.907-.091.324-.038.651-.098.979-.089.462.012.92.121 1.383.126.244.002.65.026.723-.296.069-.306.072-.624.072-.936.004-.033.004-.067.004-.099zm-.528.529c-.115.259-.44.23-.667.211l-1.015-.121c-.302-.009-.601.048-.895.113-.22.048-.527.175-.726.006-.221-.187-.26-.506-.263-.775a4.44 4.44 0 0 1 .072-.724c.027-.148.071-.292.129-.43.079-.2.196-.321.202-.315-.059-.061-.13-.094-.17-.177-.151-.315.226-.582.432-.673.721-.322 1.729-.29 2.41.123.212.129.624.572.239.793.237.112.298.45.324.69a4.19 4.19 0 0 1 -.036 1.157.5.5 0 0 1 -.037.122z"/></svg>