<svg width="204" height="210" viewBox="0 0 204 210" fill="none" xmlns="http://www.w3.org/2000/svg">
<path fill-rule="evenodd" clip-rule="evenodd" d="M0.106594 99.8525C0.187618 99.7609 0.304042 99.7084 0.426326 99.7084L27.4363 99.7084C28.5408 99.7084 29.4363 98.813 29.4363 97.7084L29.4363 12.5C29.4363 5.87258 34.8088 0.499993 41.4363 0.499993L165.889 0.499998C172.517 0.499999 177.889 5.87258 177.889 12.5L177.889 97.7084C177.889 98.813 178.785 99.7084 179.889 99.7084L203.574 99.7084C203.696 99.7084 203.813 99.7609 203.894 99.8525C204.037 100.014 204.037 100.257 203.894 100.418L110.989 205.456C106.213 210.856 97.7876 210.856 93.0117 205.456L0.106594 100.418C-0.036244 100.257 -0.036244 100.014 0.106594 99.8525Z" fill="url(#paint0_radial_2058_15706)" fill-opacity="0.5"/>
<defs>
<radialGradient id="paint0_radial_2058_15706" cx="0" cy="0" r="1" gradientUnits="userSpaceOnUse" gradientTransform="translate(48.2476 -61.7774) rotate(91.0435) scale(305.689 7589.04)">
<stop offset="0.0208333" stop-color="white" stop-opacity="0"/>
<stop offset="0.260417" stop-color="#6D9EEC" stop-opacity="0.32"/>
<stop offset="0.78125" stop-color="#6D9EEC" stop-opacity="0.9"/>
<stop offset="1" stop-color="#B0C9F0"/>
</radialGradient>
</defs>
</svg>
