<svg width="105" height="50" viewBox="0 0 105 50" fill="none" xmlns="http://www.w3.org/2000/svg">
<path d="M101.414 25.9829C101.397 25.9698 101.384 25.9532 101.374 25.9342C101.365 25.9153 101.36 25.8944 101.359 25.8732L101.206 24.5071L100.747 24.551C100.644 24.551 100.589 24.5181 100.583 24.4303C100.578 24.3425 100.622 24.2877 100.72 24.2767L101.971 24.167C102.075 24.167 102.129 24.167 102.135 24.2877C102.14 24.4084 102.097 24.4248 101.998 24.4358L101.534 24.4797L101.66 25.8512C101.663 25.8734 101.662 25.896 101.656 25.9177C101.651 25.9394 101.641 25.9597 101.627 25.9774C101.596 26.0083 101.556 26.0277 101.512 26.0323C101.475 26.0258 101.441 26.0087 101.414 25.9829Z" fill="#3B81F6"/>
<path d="M104.019 23.9971C104.035 24.0117 104.049 24.0294 104.058 24.0491C104.067 24.0689 104.073 24.0904 104.074 24.1123L104.21 25.621C104.214 25.6414 104.214 25.6625 104.208 25.6825C104.202 25.7026 104.192 25.7209 104.178 25.7362C104.167 25.7524 104.152 25.7655 104.135 25.7742C104.118 25.7829 104.099 25.7868 104.079 25.7855C104.062 25.7928 104.043 25.7965 104.025 25.7965C104.006 25.7965 103.987 25.7928 103.97 25.7855C103.941 25.7562 103.923 25.7172 103.921 25.6758L103.828 24.628L103.467 25.4838C103.456 25.517 103.438 25.5471 103.413 25.5716C103.39 25.593 103.362 25.6065 103.331 25.61C103.302 25.6182 103.272 25.6182 103.243 25.61C103.212 25.5928 103.187 25.5659 103.172 25.5332L102.664 24.7651L102.757 25.802C102.761 25.8221 102.76 25.8426 102.755 25.8624C102.75 25.8821 102.742 25.9008 102.73 25.9172C102.718 25.9331 102.702 25.9459 102.684 25.9545C102.666 25.9631 102.646 25.9672 102.626 25.9666C102.609 25.9738 102.59 25.9776 102.571 25.9776C102.553 25.9776 102.534 25.9738 102.517 25.9666C102.488 25.9373 102.47 25.8982 102.468 25.8569L102.337 24.3482C102.331 24.306 102.341 24.2631 102.364 24.2275C102.392 24.1957 102.431 24.1761 102.473 24.1726C102.507 24.1708 102.54 24.1787 102.569 24.1952C102.598 24.2117 102.621 24.2363 102.637 24.2659L103.298 25.2918L103.762 24.1671C103.769 24.1408 103.782 24.1164 103.8 24.0962C103.818 24.076 103.84 24.0606 103.866 24.0514C103.891 24.0421 103.919 24.0394 103.945 24.0433C103.972 24.0472 103.997 24.0577 104.019 24.0739V23.9971Z" fill="#3B81F6"/>
<path d="M22.5118 31.7762C23.4773 31.7762 24.26 30.9903 24.26 30.0207C24.26 29.0511 23.4773 28.2651 22.5118 28.2651C21.5463 28.2651 20.7637 29.0511 20.7637 30.0207C20.7637 30.9903 21.5463 31.7762 22.5118 31.7762Z" fill="#3B81F6"/>
<path d="M30.941 23.5637C28.7558 24.1672 27.8653 26.2574 28.4881 28.3476C29.242 30.8657 32.0609 32.6707 34.2024 33.9434C35.0546 31.557 36.4367 28.6987 35.7156 26.1916C35.5951 25.6913 35.372 25.2219 35.0604 24.8132C34.7489 24.4045 34.3558 24.0657 33.9064 23.8183C33.457 23.571 32.9611 23.4206 32.4505 23.3767C31.9398 23.3329 31.4257 23.3966 30.941 23.5637V23.5637ZM32.5799 28.6384C32.2651 28.7442 31.9269 28.7578 31.6047 28.6777C31.2825 28.5976 30.9896 28.427 30.7604 28.1859C30.5312 27.9448 30.3751 27.6431 30.3103 27.3162C30.2456 26.9892 30.2748 26.6505 30.3947 26.3397C30.4684 26.0783 30.6075 25.8403 30.7988 25.6482C30.99 25.4562 31.227 25.3165 31.4873 25.2425C31.7257 25.1578 31.9807 25.131 32.2314 25.1644C32.4821 25.1978 32.7213 25.2903 32.9295 25.4345C33.2922 25.6629 33.5571 26.0189 33.6725 26.433C33.742 26.653 33.7676 26.8847 33.7478 27.1148C33.728 27.3448 33.6632 27.5687 33.5572 27.7735C33.4511 27.9784 33.3059 28.1602 33.1297 28.3086C32.9536 28.457 32.75 28.5691 32.5307 28.6384H32.5799Z" fill="#3B81F6"/>
<path d="M40.9221 39.3196C40.8504 39.2725 40.7701 39.2399 40.6858 39.2239C40.6015 39.2079 40.515 39.2087 40.431 39.2262C40.3471 39.2438 40.2674 39.2778 40.1965 39.3263C40.1256 39.3748 40.065 39.4369 40.018 39.5089C39.971 39.581 39.9386 39.6616 39.9226 39.7462C39.9067 39.8308 39.9075 39.9178 39.925 40.0021C39.9425 40.0864 39.9763 40.1664 40.0246 40.2376C40.0729 40.3088 40.1347 40.3697 40.2065 40.4169C40.4826 40.7885 40.6458 41.2324 40.6763 41.6951C40.8292 43.2532 40.4468 44.2681 39.54 44.7015C38.36 45.2776 36.3988 44.91 34.3119 43.8676C34.8582 42.6113 35.6995 42.156 36.1202 40.7076C36.2243 40.3106 36.2012 39.8906 36.0541 39.5075C35.907 39.1244 35.6434 38.7976 35.3007 38.5735C33.8312 37.8713 30.0399 39.0783 29.0238 40.554C28.8031 40.8626 28.7085 41.2443 28.7593 41.6208C28.8101 41.9972 29.0025 42.3399 29.2969 42.5784C30.4387 43.6756 31.3783 43.6756 32.6129 44.4162C32.4217 44.7783 32.2305 45.1185 32.0339 45.4421C30.9413 47.258 29.7176 48.3608 28.5813 48.6296C27.445 48.8984 26.3961 48.3992 25.3035 47.1922C24.9406 46.7494 24.7214 46.2057 24.6753 45.6342C24.647 45.4708 24.5574 45.3246 24.425 45.2257C24.2926 45.1267 24.1274 45.0825 23.9635 45.1022C23.7997 45.1219 23.6495 45.204 23.5441 45.3315C23.4387 45.4591 23.386 45.6224 23.3969 45.7878C23.4839 46.623 23.8297 47.4098 24.3857 48.0371C25.817 49.6006 27.3303 50.2315 28.8708 49.8475L29.0566 49.7981C30.4878 49.3921 31.859 48.1523 33.121 46.084C33.334 45.7384 33.5416 45.3763 33.7438 44.9868C35.929 46.084 38.0049 46.4735 39.529 46.0401C39.7166 45.9814 39.8992 45.908 40.0753 45.8207C41.0641 45.3379 42.1895 44.1748 41.9273 41.5141C41.9218 41.2343 41.7142 39.8683 40.9221 39.3196Z" fill="#3B81F6"/>
<path d="M21.0314 42.0629C20.9159 42.0994 20.7927 42.1033 20.6752 42.0743C20.5577 42.0453 20.4504 41.9844 20.3649 41.8983C18.1422 39.5462 16.2841 36.8721 14.8528 33.9654C14.1312 34.6772 13.3468 35.3217 12.5092 35.891C7.92575 39.051 3.39695 39.8301 1.24455 37.8331C-0.197676 36.4945 -1.10999 33.4936 2.72501 26.7841C5.75149 21.501 8.79436 18.6153 11.7717 18.2148C12.8511 18.0566 13.9517 18.2796 14.8856 18.8457C15.8853 17.7101 18.6168 15.159 22.6921 15.6144C22.7779 15.6241 22.8609 15.6507 22.9364 15.6926C23.0118 15.7346 23.0784 15.791 23.1322 15.8588C23.1859 15.9265 23.2259 16.0042 23.2497 16.0875C23.2736 16.1708 23.2809 16.2579 23.2712 16.344C23.2615 16.4301 23.2351 16.5135 23.1933 16.5893C23.1515 16.6651 23.0953 16.7319 23.0279 16.7859C22.9604 16.8399 22.883 16.88 22.8001 16.904C22.7172 16.928 22.6304 16.9353 22.5446 16.9256C18.2234 16.4428 15.6449 19.9813 15.5357 20.1185L15.0986 20.7603L14.5523 20.2117C14.1883 19.9138 13.7649 19.6979 13.3106 19.5787C12.8563 19.4594 12.3818 19.4396 11.9192 19.5205C10.171 19.7728 7.3576 21.3528 3.87769 27.4369C1.25547 32.0178 0.599917 35.4467 2.14594 36.8566C3.78482 38.3762 7.83834 37.5149 11.7771 34.7993C12.6921 34.1852 13.5335 33.4673 14.2846 32.6597C14.0255 32.0283 13.7994 31.3837 13.6072 30.7286C12.6294 27.4369 12.6294 25.5387 13.6072 24.853C13.8517 24.6915 14.1392 24.6082 14.4318 24.6141C14.7243 24.6199 15.0083 24.7147 15.2461 24.8859C15.8555 25.4189 16.3447 26.0762 16.6811 26.8141C17.0174 27.5521 17.1931 28.3535 17.1964 29.1651C17.1471 30.5181 16.6599 31.8181 15.8088 32.8682C17.206 35.8391 19.0586 38.5715 21.2991 40.9657C21.3602 41.0269 21.4087 41.0995 21.4418 41.1795C21.4749 41.2596 21.4919 41.3454 21.4919 41.432C21.4919 41.5187 21.4749 41.6045 21.4418 41.6845C21.4087 41.7645 21.3602 41.8372 21.2991 41.8983C21.2252 41.9751 21.1331 42.0317 21.0314 42.0629ZM14.3502 25.9337C14.3502 25.9337 13.7329 26.5427 14.8528 30.361C14.9566 30.7121 15.0713 31.0633 15.197 31.4089C15.6015 30.7456 15.8343 29.9912 15.8744 29.2144C15.8774 28.5969 15.7527 27.9855 15.5082 27.4189C15.2638 26.8523 14.9048 26.3428 14.454 25.9228C14.419 25.9206 14.384 25.9244 14.3502 25.9337V25.9337Z" fill="#3B81F6"/>
<path d="M40.906 35.7264C40.8052 35.7487 40.7008 35.7487 40.6001 35.7264C40.514 35.7131 40.4314 35.6827 40.3572 35.637C40.2829 35.5913 40.2185 35.5312 40.1676 35.4602C40.1168 35.3892 40.0805 35.3088 40.061 35.2235C40.0414 35.1383 40.039 35.05 40.0538 34.9639C40.5112 31.7139 40.4651 28.4124 39.9172 25.1766C38.6135 24.8096 37.4634 24.0281 36.6394 22.9493C36.1792 22.283 35.8648 21.5264 35.717 20.7292C35.5691 19.932 35.5912 19.1125 35.7817 18.3245C35.8846 18.0477 36.0686 17.8088 36.3095 17.6394C36.5505 17.4699 36.8369 17.3778 37.1311 17.3754C38.3275 17.3754 39.3982 18.9005 40.5017 22.1812C40.7202 22.8286 40.9005 23.4924 41.048 24.1507C42.1255 24.377 43.2253 24.4782 44.3258 24.4525C49.1059 24.3921 52.9081 22.7627 53.3779 20.5683C53.815 18.5384 51.3293 16.0971 46.5656 13.8643C40.2286 10.8798 36.9945 11.2364 35.4266 12.0539C35.0097 12.2565 34.6403 12.5456 34.3427 12.9022C34.0452 13.2587 33.8262 13.6744 33.7003 14.1221L33.5638 14.8902L32.8372 14.6323C32.6624 14.572 28.5269 13.1675 25.2655 16.0642C25.1344 16.1813 24.9623 16.2414 24.7871 16.2311C24.6119 16.2208 24.448 16.141 24.3313 16.0093C24.2147 15.8777 24.1549 15.7048 24.1652 15.5289C24.1754 15.353 24.2549 15.1883 24.386 15.0712C27.4562 12.3282 31.1491 12.8768 32.6187 13.2005C33.0581 12.1979 33.8304 11.3796 34.8038 10.8853C37.4643 9.49184 41.6052 10.0898 47.1064 12.6628C54.0936 15.9545 55.066 18.9115 54.6508 20.8371C54.0389 23.7173 49.8871 25.6978 44.3313 25.7746C43.3196 25.7965 42.3082 25.723 41.3102 25.5552C41.7991 28.756 41.8101 32.0121 41.343 35.2162C41.3221 35.3327 41.2705 35.4414 41.1937 35.5311C41.1168 35.6208 41.0175 35.6882 40.906 35.7264ZM37.1311 18.6866C37.0985 18.7126 37.0708 18.7442 37.0491 18.7798C36.9272 19.3766 36.9282 19.9921 37.0523 20.5884C37.1763 21.1847 37.4206 21.7492 37.7702 22.247C38.2449 22.8627 38.8669 23.3478 39.5785 23.657C39.4801 23.3004 39.3763 22.9493 39.2562 22.5982C37.9888 18.8292 37.142 18.6866 37.1311 18.6866Z" fill="#3B81F6"/>
<path d="M41.8667 37.9375C41.8526 37.9253 41.8413 37.9101 41.8338 37.8931C41.8262 37.876 41.8225 37.8574 41.823 37.8387L41.7902 36.9555H41.5061C41.4187 36.9555 41.375 36.9226 41.375 36.8512C41.375 36.7799 41.4132 36.736 41.4952 36.736L42.331 36.7031C42.4184 36.7031 42.4621 36.7031 42.4676 36.8074C42.4731 36.9116 42.4294 36.9171 42.3419 36.9226H42.0579L42.0961 37.8058C42.0976 37.8237 42.0955 37.8416 42.0899 37.8586C42.0842 37.8756 42.0752 37.8912 42.0633 37.9046C42.0372 37.9311 42.0021 37.9468 41.965 37.9485C41.9321 37.9578 41.8968 37.9539 41.8667 37.9375V37.9375Z" fill="#3B81F6"/>
<path d="M43.7843 36.6808C43.8079 36.7084 43.8214 36.7433 43.8225 36.7796L43.8607 37.7726C43.8624 37.7883 43.8609 37.8042 43.8562 37.8193C43.8515 37.8344 43.8437 37.8484 43.8334 37.8604C43.823 37.8733 43.8096 37.8836 43.7944 37.8902C43.7792 37.8969 43.7626 37.8998 43.746 37.8988C43.7175 37.9073 43.6871 37.9073 43.6586 37.8988C43.6361 37.8727 43.6227 37.8399 43.6204 37.8055V37.1911L43.3909 37.6683C43.3787 37.6931 43.362 37.7155 43.3418 37.7342C43.3202 37.7393 43.2978 37.7393 43.2762 37.7342C43.2532 37.7421 43.2282 37.7421 43.2052 37.7342C43.1804 37.7187 43.1613 37.6956 43.1506 37.6683L42.8829 37.224V37.8329C42.8896 37.8466 42.8931 37.8616 42.8931 37.8768C42.8931 37.892 42.8896 37.9071 42.8829 37.9207C42.8724 37.9337 42.859 37.9439 42.8438 37.9506C42.8286 37.9573 42.812 37.9602 42.7955 37.9591C42.7692 37.9698 42.7398 37.9698 42.7135 37.9591C42.7005 37.9475 42.6903 37.9331 42.6837 37.9169C42.6771 37.9007 42.6742 37.8833 42.6753 37.8658L42.637 36.8783C42.6298 36.8629 42.626 36.846 42.626 36.829C42.626 36.8119 42.6298 36.795 42.637 36.7796C42.6618 36.7543 42.6947 36.7387 42.7299 36.7357C42.758 36.7357 42.7854 36.744 42.8087 36.7597C42.832 36.7753 42.8502 36.7975 42.861 36.8235L43.2434 37.4818L43.5657 36.7906C43.5755 36.7655 43.5918 36.7436 43.613 36.7272C43.6341 36.7108 43.6594 36.7004 43.6859 36.6973C43.716 36.6809 43.7506 36.6751 43.7843 36.6808V36.6808Z" fill="#3B81F6"/>
<path d="M54.0113 6.1727C54.3078 6.6491 54.442 7.20944 54.3937 7.76916C54.383 8.15573 54.282 8.53437 54.0988 8.87457C53.9157 9.21476 53.6555 9.50699 53.3393 9.7277C52.5596 10.2131 51.6389 10.4181 50.728 10.3092L46.9968 10.0788C46.857 10.0846 46.7176 10.0592 46.5888 10.0043C46.4599 9.94941 46.3448 9.86649 46.2518 9.76151C46.1588 9.65653 46.0901 9.5321 46.0508 9.39723C46.0115 9.26235 46.0024 9.12039 46.0244 8.98159L46.5161 0.993811C46.5095 0.85294 46.5342 0.712361 46.5885 0.582292C46.6427 0.452223 46.7252 0.335935 46.8298 0.241883C46.9345 0.147832 47.0587 0.0783812 47.1934 0.0385808C47.3281 -0.00121963 47.47 -0.0103693 47.6087 0.0117973L51.1924 0.236728C52.0779 0.244951 52.936 0.545712 53.6343 1.09256C53.9152 1.3298 54.1345 1.63198 54.2734 1.97313C54.4124 2.31428 54.4667 2.68419 54.4319 3.0511C54.4127 3.5451 54.2366 4.01996 53.9293 4.40617C53.6163 4.78932 53.1925 5.06537 52.7165 5.19617C53.2428 5.37078 53.6976 5.7138 54.0113 6.1727V6.1727ZM51.8698 8.36715C52.0167 8.25772 52.1351 8.11429 52.215 7.94905C52.2949 7.78382 52.3339 7.60166 52.3287 7.41805C52.3546 7.23492 52.3374 7.04824 52.2786 6.87295C52.2198 6.69766 52.1209 6.53864 51.99 6.4086C51.6227 6.14381 51.1801 6.00526 50.728 6.0136L48.3789 5.87096L48.2205 8.44395L50.5696 8.58659C51.0146 8.6513 51.4686 8.57658 51.8698 8.37263V8.36715ZM48.4827 4.17027L50.5751 4.29645C51.0129 4.35943 51.4595 4.28469 51.8534 4.08249C51.997 3.98916 52.1145 3.86057 52.1948 3.70888C52.2751 3.5572 52.3156 3.38744 52.3123 3.21569C52.3377 3.04124 52.3195 2.86318 52.2594 2.69752C52.1994 2.53186 52.0993 2.38378 51.9681 2.26659C51.5996 2.02018 51.1652 1.892 50.7226 1.89902L48.6302 1.76735L48.4827 4.17027Z" fill="#3B81F6"/>
<path d="M57.7101 10.4079C57.1809 10.0871 56.7587 9.61541 56.4973 9.05285C56.2336 8.43342 56.1176 7.76073 56.1584 7.08833C56.1991 6.41593 56.3956 5.76237 56.7322 5.17965C57.0635 4.65934 57.5406 4.24897 58.1034 4.00014C58.7303 3.74537 59.406 3.63481 60.081 3.67658C60.7559 3.71835 61.413 3.91139 62.004 4.24153C62.5342 4.55777 62.9584 5.02579 63.2222 5.58562C63.483 6.20596 63.597 6.87855 63.5553 7.55059C63.5136 8.22262 63.3173 8.8758 62.9818 9.45882C62.6522 9.9832 62.175 10.3975 61.6106 10.6493C60.9882 10.92 60.3091 11.0331 59.633 10.9785C58.9547 10.9521 58.2938 10.756 57.7101 10.4079ZM61.4249 7.41798C61.4946 6.88365 61.385 6.34123 61.1135 5.87639C60.9795 5.70401 60.8078 5.56488 60.6118 5.46975C60.4157 5.37462 60.2004 5.32605 59.9827 5.32778C58.9393 5.26194 58.3766 5.87639 58.2946 7.24243C58.2127 8.60847 58.6934 9.29423 59.7368 9.35458C60.7803 9.41493 61.3593 8.76208 61.4413 7.41798H61.4249Z" fill="#3B81F6"/>
<path d="M66.8059 10.9732C66.2776 10.6497 65.8543 10.1789 65.5877 9.6181C65.3122 9.00249 65.1975 8.32655 65.2544 7.65407C65.2782 6.9786 65.4758 6.32084 65.828 5.74491C66.1605 5.22427 66.637 4.81243 67.1992 4.55991C67.8226 4.29294 68.5016 4.18368 69.1768 4.24171C69.8534 4.2605 70.5145 4.44911 71.0998 4.79032C71.6299 5.10683 72.054 5.57477 72.318 6.13442C72.5788 6.75475 72.6928 7.42735 72.6511 8.09938C72.6094 8.77142 72.4131 9.42459 72.0777 10.0076C71.7453 10.5296 71.2689 10.9433 70.7065 11.1981C70.0804 11.4564 69.4042 11.5689 68.7286 11.5271C68.053 11.4853 67.3957 11.2903 66.8059 10.9567V10.9732ZM70.5207 7.98324C70.5922 7.44816 70.4805 6.90457 70.2039 6.44164C70.0722 6.2681 69.9017 6.12804 69.7062 6.03276C69.5108 5.93747 69.2958 5.88961 69.0785 5.89303C68.0333 5.8272 67.4706 6.46542 67.3904 7.80768C67.3103 9.14995 67.7892 9.854 68.8272 9.91984C69.8688 9.97104 70.4333 9.32551 70.5207 7.98324V7.98324Z" fill="#3B81F6"/>
<path d="M81.4295 11.253C81.4123 11.5209 81.2906 11.7713 81.0908 11.9497C81.0018 12.0431 80.8937 12.1159 80.7739 12.1633C80.6541 12.2106 80.5255 12.2314 80.397 12.224C80.1407 12.2023 79.9032 12.0801 79.736 11.8839L76.7969 8.7897L76.6604 10.9841C76.6613 11.1261 76.6303 11.2663 76.5698 11.3946C76.5093 11.5228 76.4207 11.6357 76.3107 11.7248C76.0777 11.8774 75.8018 11.9503 75.5241 11.9325C75.2464 11.9147 74.982 11.8072 74.7702 11.626C74.6712 11.5255 74.5965 11.4035 74.552 11.2693C74.5075 11.1352 74.4943 10.9926 74.5134 10.8525L75.016 2.66172C75.0166 2.52029 75.0488 2.3808 75.1102 2.25355C75.1717 2.1263 75.2608 2.01456 75.3711 1.92658C75.603 1.77446 75.8775 1.70139 76.154 1.71818C76.4305 1.73498 76.6942 1.84075 76.9062 2.01984C77.0046 2.12208 77.0792 2.24501 77.1246 2.37973C77.1699 2.51446 77.1849 2.65762 77.1684 2.79887L76.8297 7.90095L79.8507 5.26213C79.945 5.17004 80.0573 5.09861 80.1805 5.05233C80.3037 5.00606 80.4351 4.98597 80.5664 4.99331C80.6959 5.00031 80.8227 5.03357 80.9392 5.09108C81.0556 5.14859 81.1592 5.22917 81.2438 5.32797C81.3334 5.42254 81.4025 5.53476 81.4466 5.65752C81.4908 5.78028 81.5092 5.91091 81.5005 6.04116C81.4864 6.17355 81.4462 6.30182 81.3825 6.41857C81.3187 6.53532 81.2326 6.63826 81.1291 6.72144L79.1242 8.41665L81.1236 10.5233C81.2239 10.6157 81.3031 10.7286 81.3559 10.8546C81.4087 10.9805 81.4338 11.1164 81.4295 11.253V11.253Z" fill="#3B81F6"/>
<path d="M65.0357 13.9135C65.1686 13.9004 65.3027 13.9141 65.4303 13.9536C65.5578 13.9932 65.6763 14.0579 65.7787 14.1439C65.8875 14.2213 65.9789 14.3209 66.0467 14.4363C66.1145 14.5516 66.1572 14.6801 66.172 14.8132C66.1964 15.0638 66.1262 15.3144 65.9753 15.5154L63.2438 19.5422L63.6372 23.2618C63.6635 23.4127 63.6566 23.5674 63.617 23.7153C63.5774 23.8632 63.5059 24.0005 63.4077 24.1177C63.2164 24.3346 62.9473 24.4668 62.6593 24.4852C62.3659 24.5271 62.0675 24.4566 61.8235 24.2877C61.7053 24.1905 61.6088 24.0695 61.5401 23.9325C61.4714 23.7954 61.4321 23.6455 61.4247 23.4922L61.0368 19.7781L57.5678 16.3987C57.4697 16.316 57.3891 16.2144 57.3306 16.0999C57.2721 15.9855 57.237 15.8604 57.2274 15.7321C57.2177 15.6039 57.2336 15.4749 57.2743 15.3529C57.3149 15.2309 57.3794 15.1183 57.464 15.0217C57.5434 14.9161 57.6435 14.828 57.7581 14.7629C57.8728 14.6978 57.9995 14.657 58.1305 14.6432C58.2734 14.6285 58.4177 14.6471 58.5522 14.6975C58.6867 14.7479 58.8079 14.8288 58.9062 14.9339L61.9655 17.9677L64.3255 14.3634C64.4017 14.2388 64.5053 14.1334 64.6285 14.0554C64.7516 13.9774 64.8909 13.9289 65.0357 13.9135V13.9135Z" fill="#3B81F6"/>
<path d="M68.9201 23.4099C68.346 23.182 67.8519 22.7888 67.4997 22.2797C67.1413 21.7146 66.9183 21.0736 66.8481 20.4073C66.778 19.741 66.8626 19.0674 67.0955 18.4394C67.3371 17.8695 67.7398 17.3832 68.2536 17.0405C68.8243 16.6744 69.4747 16.4523 70.1493 16.3931C70.8218 16.3092 71.5045 16.3921 72.1378 16.6345C72.7098 16.8494 73.2046 17.2316 73.5581 17.7317C73.9189 18.2959 74.1434 18.937 74.2136 19.6038C74.2838 20.2705 74.1977 20.9446 73.9624 21.572C73.7214 22.1422 73.3211 22.63 72.8097 22.9765C72.2344 23.3358 71.5853 23.5591 70.9115 23.6294C70.2376 23.6997 69.5567 23.6153 68.9201 23.3824V23.4099ZM72.0886 19.8439C72.0786 19.3073 71.8858 18.7903 71.5423 18.3791C71.3836 18.227 71.1921 18.1137 70.9827 18.048C70.7733 17.9824 70.5517 17.9661 70.335 18.0006C69.297 18.1103 68.8472 18.8418 68.9856 20.195C69.124 21.5482 69.714 22.1627 70.7556 22.0383C71.7863 21.9067 72.2306 21.1715 72.0886 19.8329V19.8439Z" fill="#3B81F6"/>
<path d="M82.2926 15.3894C82.3998 15.4748 82.4878 15.5821 82.5508 15.704C82.6139 15.826 82.6506 15.9599 82.6586 16.0971L83.2049 21.3199C83.225 21.4536 83.2147 21.5901 83.175 21.7192C83.1353 21.8484 83.0671 21.9669 82.9755 22.066C82.775 22.275 82.5044 22.4021 82.2161 22.4226C81.9527 22.4626 81.6841 22.3976 81.4677 22.2415C81.3682 22.1616 81.2863 22.0618 81.227 21.9485C81.1678 21.8352 81.1326 21.7109 81.1235 21.5832V21.4406C80.954 21.8117 80.6879 22.1301 80.3533 22.3622C80.0023 22.592 79.6012 22.7331 79.1842 22.7737C78.8244 22.8365 78.4553 22.8199 78.1025 22.7252C77.7497 22.6305 77.4216 22.4598 77.141 22.2251C76.6148 21.6476 76.3107 20.9007 76.2834 20.1184L75.9392 16.8268C75.9181 16.69 75.9262 16.5503 75.9629 16.417C75.9997 16.2836 76.0642 16.1596 76.1522 16.0532C76.3477 15.841 76.6186 15.7148 76.9061 15.7021C77.1896 15.6551 77.48 15.7221 77.7146 15.8886C77.8205 15.9765 77.9075 16.085 77.9704 16.2076C78.0333 16.3302 78.0708 16.4643 78.0807 16.6018L78.4248 19.9319C78.4329 20.2657 78.561 20.5853 78.7854 20.8316C78.8999 20.9259 79.0336 20.9939 79.177 21.0308C79.3204 21.0678 79.4702 21.0728 79.6158 21.0456C79.808 21.0312 79.9946 20.9746 80.1627 20.8798C80.3307 20.785 80.476 20.6543 80.5882 20.497C80.8257 20.1594 80.9236 19.7425 80.8613 19.3339L80.5445 16.3275C80.5231 16.192 80.5305 16.0535 80.5663 15.9211C80.6021 15.7888 80.6654 15.6655 80.7521 15.5595C80.9462 15.3486 81.2149 15.2225 81.5005 15.2083C81.7779 15.1642 82.0616 15.229 82.2926 15.3894Z" fill="#3B81F6"/>
<path d="M89.7613 14.5174C89.8566 14.5955 89.9342 14.6932 89.9888 14.8039C90.0435 14.9146 90.0739 15.0357 90.0781 15.1592C90.1228 15.4097 90.0679 15.6677 89.9251 15.8779C89.713 16.0847 89.4379 16.2141 89.1439 16.2455L88.7233 16.3333C88.5083 16.3615 88.301 16.4323 88.1135 16.5415C87.9259 16.6508 87.7618 16.7963 87.6307 16.9697C87.4231 17.3072 87.34 17.7071 87.3958 18.0998L87.6799 20.8428C87.7054 20.9821 87.6985 21.1254 87.6597 21.2615C87.6208 21.3977 87.551 21.5229 87.4559 21.6274C87.2537 21.8186 86.9948 21.9383 86.7186 21.968C86.4425 21.9977 86.1642 21.9359 85.9263 21.7919C85.8114 21.7085 85.7168 21.5999 85.6496 21.4745C85.5825 21.3491 85.5444 21.2101 85.5384 21.0678L84.9921 15.8395C84.9711 15.7037 84.9813 15.5648 85.022 15.4336C85.0627 15.3023 85.1328 15.1822 85.227 15.0824C85.4225 14.8886 85.6797 14.7701 85.9536 14.7478C86.2126 14.7125 86.4754 14.775 86.6911 14.9233C86.7944 15.0005 86.8797 15.0994 86.941 15.2131C87.0023 15.3268 87.0382 15.4526 87.0462 15.5817L87.0844 15.9657C87.1987 15.5629 87.4356 15.2061 87.7618 14.9453C88.0791 14.6925 88.455 14.5245 88.8544 14.457L89.0511 14.4241C89.1695 14.3904 89.2936 14.3813 89.4157 14.3973C89.5378 14.4134 89.6554 14.4542 89.7613 14.5174V14.5174Z" fill="#3B81F6"/>
<path d="M53.0446 37.7451C52.9314 37.6482 52.8391 37.5291 52.7734 37.3952C52.7076 37.2612 52.6698 37.1152 52.6622 36.966L51.8264 28.9892C51.797 28.8506 51.7989 28.7071 51.832 28.5692C51.8651 28.4314 51.9285 28.3028 52.0176 28.1928C52.1067 28.0829 52.2191 27.9943 52.3468 27.9337C52.4744 27.8731 52.6139 27.842 52.7551 27.8426L56.3114 27.4641C57.2249 27.3068 58.1638 27.5028 58.9391 28.0127C59.587 28.5772 59.997 29.3677 60.0863 30.2243C60.1755 31.081 59.9373 31.9396 59.4199 32.6265C58.7699 33.2907 57.8934 33.6827 56.967 33.7238L54.5851 33.9761L54.8747 36.7192C54.8985 36.8671 54.8919 37.0184 54.8553 37.1637C54.8186 37.3091 54.7527 37.4453 54.6616 37.564C54.5652 37.6777 54.4466 37.7704 54.3132 37.8364C54.1798 37.9024 54.0344 37.9404 53.8859 37.9481C53.7393 37.9716 53.5894 37.9658 53.445 37.931C53.3007 37.8962 53.1646 37.833 53.0446 37.7451ZM56.5081 32.0834C57.6007 31.9627 58.1033 31.4251 58.0159 30.4705C57.9176 29.4994 57.3112 29.0715 56.2077 29.1922L54.1099 29.4117L54.4103 32.3028L56.5081 32.0834Z" fill="#3B81F6"/>
<path d="M68.3516 34.4702C68.4877 34.6223 68.5702 34.8151 68.5865 35.0188C68.6051 35.1802 68.5726 35.3434 68.4936 35.4852C68.4052 35.6413 68.2817 35.7747 68.1331 35.8747C67.4599 36.3153 66.6994 36.6036 65.9042 36.7195C65.2195 36.806 64.5242 36.7251 63.8774 36.4836C63.3037 36.2691 62.8071 35.887 62.4516 35.3864C62.0878 34.8236 61.8607 34.1829 61.7886 33.5159C61.7165 32.8489 61.8014 32.1742 62.0364 31.5461C62.2611 30.9807 62.6397 30.4901 63.129 30.1307C63.6352 29.7606 64.2317 29.535 64.8553 29.4779C65.437 29.4051 66.0275 29.4904 66.5652 29.7247C67.0745 29.9618 67.5036 30.3432 67.7998 30.822C68.1372 31.3576 68.3397 31.9677 68.3898 32.5995C68.4203 32.7689 68.3851 32.9435 68.2915 33.0877C68.243 33.1496 68.1817 33.2002 68.112 33.2362C68.0422 33.2721 67.9656 33.2926 67.8872 33.2962L63.9211 33.7186C63.9853 34.1705 64.2105 34.5837 64.5548 34.8817C64.915 35.1164 65.3498 35.2065 65.7731 35.134C66.0226 35.112 66.2674 35.0528 66.4996 34.9585C66.7368 34.8535 66.9684 34.7363 67.1934 34.6074C67.3191 34.5361 67.4447 34.4757 67.5595 34.4208C67.6612 34.3714 67.7699 34.3381 67.8818 34.3221C67.9662 34.3081 68.0526 34.3143 68.1343 34.34C68.2159 34.3657 68.2903 34.4103 68.3516 34.4702V34.4702ZM64.1123 31.4419C63.8763 31.7877 63.7628 32.2031 63.79 32.6214L66.5215 32.3306C66.4825 31.9194 66.3075 31.5331 66.0244 31.2334C65.8919 31.1154 65.7349 31.0286 65.5648 30.9793C65.3947 30.9299 65.2158 30.9193 65.041 30.9481C64.8605 30.9607 64.6845 31.0111 64.5246 31.0961C64.3646 31.1812 64.2242 31.299 64.1123 31.4419V31.4419Z" fill="#3B81F6"/>
<path d="M74.9839 34.3822C75.0631 34.45 75.127 34.5341 75.1713 34.6287C75.2155 34.7233 75.2392 34.8263 75.2407 34.9308C75.2584 35.0548 75.2435 35.1813 75.1975 35.2977C75.1515 35.4142 75.076 35.5165 74.9785 35.5946C74.7087 35.7797 74.3873 35.8738 74.0607 35.8634H73.6619C71.9902 35.9073 71.0725 35.1228 70.9304 33.5209L70.6354 30.701L70.0891 30.7613C69.839 30.8063 69.5812 30.7596 69.3626 30.6297C69.2746 30.5664 69.2016 30.4844 69.1487 30.3896C69.0959 30.2948 69.0644 30.1895 69.0566 30.0811C69.0376 29.9691 69.0439 29.8542 69.0751 29.745C69.1063 29.6358 69.1616 29.535 69.2369 29.4502C69.4268 29.2791 69.6703 29.1801 69.9252 29.1704L70.4715 29.11L70.3568 28.0128C70.3351 27.8769 70.3429 27.7379 70.3797 27.6054C70.4164 27.4728 70.4813 27.3498 70.5699 27.2447C70.7685 27.033 71.0401 26.9055 71.3292 26.8881C71.6134 26.8427 71.9039 26.9117 72.1377 27.0802C72.2442 27.1659 72.3313 27.2733 72.3934 27.3953C72.4556 27.5172 72.4913 27.651 72.4983 27.7879L72.613 28.8851L73.6073 28.7809C74.2301 28.6748 74.576 28.8961 74.6452 29.4447C74.6641 29.5541 74.6577 29.6665 74.6264 29.773C74.5952 29.8796 74.5399 29.9774 74.465 30.0591C74.2752 30.2381 74.026 30.3397 73.7657 30.3444L72.7714 30.4486L73.0828 33.4221C73.0932 33.658 73.1883 33.8821 73.3505 34.053C73.5212 34.1912 73.7384 34.258 73.9569 34.2395H74.3557C74.575 34.217 74.7956 34.2671 74.9839 34.3822V34.3822Z" fill="#3B81F6"/>
<path d="M83.3726 35.1172C82.7378 35.1809 82.1699 35.1132 81.6692 34.914C81.1756 34.706 80.7788 34.3836 80.4788 33.9469C80.1788 33.5101 79.9975 32.977 79.9348 32.3474C79.8721 31.7178 79.9451 31.1631 80.1538 30.6834C80.3626 30.2036 80.6891 29.8207 81.1335 29.5346C81.5851 29.2397 82.1283 29.0604 82.7632 28.9966C83.0092 28.9719 83.2742 28.9775 83.5583 29.0134C83.8496 29.0405 84.1333 29.1126 84.4094 29.2297C84.6174 29.3054 84.7539 29.4286 84.8189 29.5991C84.8832 29.7617 84.888 29.9302 84.8332 30.1048C84.7864 30.2785 84.6916 30.4128 84.5487 30.5076C84.413 30.5937 84.2408 30.5949 84.0321 30.5112C83.698 30.3757 83.3802 30.3231 83.0786 30.3534C82.6104 30.4004 82.26 30.5845 82.0275 30.9057C81.8021 31.2181 81.716 31.6413 81.7692 32.1753C81.8216 32.7012 81.9898 33.1029 82.2739 33.3802C82.5652 33.6488 82.9449 33.7596 83.4131 33.7126C83.5559 33.6982 83.7051 33.6671 83.8607 33.6193C84.0154 33.5635 84.1678 33.4838 84.3178 33.3802C84.5059 33.2567 84.6753 33.2276 84.8261 33.293C84.9848 33.3575 85.1003 33.4707 85.1725 33.6325C85.2439 33.7863 85.2645 33.9532 85.2344 34.1334C85.2042 34.3135 85.0987 34.4609 84.9177 34.5757C84.6614 34.7382 84.4011 34.861 84.1368 34.9439C83.8734 35.0347 83.6186 35.0925 83.3726 35.1172Z" fill="#3B81F6"/>
<path d="M88.9052 34.5616C88.2783 34.6245 87.7184 34.556 87.2256 34.356C86.7399 34.1472 86.3475 33.8284 86.0483 33.3996C85.7483 32.9629 85.567 32.4298 85.5043 31.8002C85.4424 31.1785 85.5158 30.6279 85.7245 30.1481C85.9324 29.6604 86.2542 29.2698 86.6899 28.9766C87.1335 28.6825 87.6688 28.504 88.2957 28.441C88.9227 28.3781 89.4786 28.447 89.9634 28.6478C90.4563 28.8479 90.8527 29.1662 91.1526 29.603C91.4597 30.0309 91.6443 30.5557 91.7062 31.1773C91.7689 31.8069 91.6923 32.366 91.4764 32.8545C91.2677 33.3343 90.9419 33.7252 90.4991 34.0272C90.0634 34.3205 89.5321 34.4986 88.9052 34.5616ZM88.7707 33.2108C89.1516 33.1725 89.4472 33.002 89.6575 32.6991C89.8758 32.3955 89.9555 31.9488 89.8968 31.3591C89.8388 30.7773 89.6734 30.3633 89.4004 30.117C89.1345 29.862 88.8112 29.7536 88.4302 29.7919C88.0493 29.8301 87.7537 30.0007 87.5434 30.3035C87.3323 30.5984 87.2557 31.0367 87.3137 31.6185C87.3724 32.2082 87.5347 32.6306 87.8005 32.8856C88.0664 33.1406 88.3898 33.249 88.7707 33.2108Z" fill="#3B81F6"/>
<path d="M94.0318 34.0226C93.4286 34.0832 93.0965 33.8066 93.0354 33.193L92.6128 28.9492C92.5525 28.3436 92.816 28.0112 93.4032 27.9523C93.9905 27.8933 94.3143 28.1666 94.3746 28.7723L94.3782 28.8082C94.5226 28.4878 94.7373 28.2288 95.0222 28.0311C95.3142 27.8247 95.6626 27.7012 96.0673 27.6606C96.48 27.6191 96.8383 27.6757 97.1422 27.8303C97.4541 27.9841 97.7041 28.2407 97.8922 28.6002C98.0398 28.2312 98.2747 27.9339 98.5969 27.7084C98.9262 27.4741 99.3012 27.3358 99.7218 27.2936C100.388 27.2266 100.905 27.38 101.27 27.7538C101.636 28.1196 101.86 28.7209 101.943 29.5577L102.213 32.2713C102.243 32.5662 102.186 32.8013 102.043 32.9766C101.908 33.1511 101.698 33.2528 101.412 33.2815C100.809 33.342 100.477 33.0655 100.416 32.4518L100.152 29.798C100.113 29.4075 100.021 29.1309 99.8765 28.9684C99.7392 28.797 99.5238 28.7261 99.2302 28.7556C98.8889 28.7898 98.635 28.9361 98.4683 29.1943C98.3017 29.4525 98.2402 29.8008 98.2838 30.2391L98.5231 32.6419C98.5842 33.2556 98.3171 33.5923 97.7219 33.652C97.4363 33.6807 97.2061 33.6233 97.0315 33.4799C96.8569 33.3364 96.755 33.1173 96.7256 32.8224L96.4613 30.1686C96.4224 29.7781 96.3308 29.5015 96.1864 29.3389C96.0411 29.1684 95.8257 29.0975 95.54 29.1262C95.1987 29.1604 94.9448 29.3067 94.7781 29.5649C94.6115 29.8231 94.55 30.1714 94.5936 30.6097L94.8329 33.0125C94.894 33.6261 94.627 33.9628 94.0318 34.0226Z" fill="#3B81F6"/>
<rect x="76.6074" y="32.813" width="2" height="2" rx="1" fill="#3B81F6"/>
</svg>
