<?xml version="1.0" encoding="utf-8"?>
<!-- Generator: Adobe Illustrator 25.2.1, SVG Export Plug-In . SVG Version: 6.00 Build 0)  -->
<svg version="1.1" id="Layer_1" xmlns="http://www.w3.org/2000/svg" xmlns:xlink="http://www.w3.org/1999/xlink" x="0px" y="0px"
	 viewBox="0 0 603.4 288.2" style="enable-background:new 0 0 603.4 288.2;" xml:space="preserve">
<style type="text/css">
	.st0{fill:#FFBF00;}
	.st1{fill:#FFE1AB;}
	.st2{fill:#912C2C;}
	.st3{fill:#661D06;}
	.st4{fill:#603532;}
	.st5{fill:#EDD1BC;}
	.st6{fill:none;stroke:#9E745F;stroke-miterlimit:10;}
	.st7{font-family:'Lato-Regular';}
	.st8{font-size:10px;}
	.st9{fill:none;}
	.st10{font-family:'Lato-Hairline';}
	.st11{font-size:8px;}
</style>
<g id="Layer_2_1_">
	<g>
		<g>
			<g>
				<g>
					<polygon class="st0" points="603.4,219.6 603.1,219.5 603.1,219.5 					"/>
					<path class="st0" d="M600.3,218.5l-0.5-0.2l0,0l0,0l0,0L600.3,218.5L600.3,218.5L600.3,218.5z"/>
					<path class="st0" d="M597,217.3l-0.5-0.2l0,0l0,0l0,0L597,217.3L597,217.3L597,217.3z"/>
					<path class="st0" d="M593.7,216.1l-0.5-0.2l0,0l0,0l0,0L593.7,216.1L593.7,216.1L593.7,216.1z"/>
					<path class="st0" d="M590.4,214.9l-0.5-0.2l0,0l0,0l0,0L590.4,214.9C590.5,214.9,590.5,214.9,590.4,214.9L590.4,214.9z"/>
					<path class="st0" d="M587.1,213.7l-0.5-0.2c0,0,0,0,0-0.1c0,0,0,0,0.1,0l0,0L587.1,213.7C587.2,213.7,587.2,213.7,587.1,213.7
						C587.2,213.7,587.1,213.7,587.1,213.7z"/>
					<path class="st0" d="M583.8,212.5l-0.5-0.2c0,0,0,0,0-0.1s0,0,0.1,0l0,0L583.8,212.5C583.9,212.5,583.9,212.5,583.8,212.5
						C583.9,212.5,583.8,212.6,583.8,212.5z"/>
					<path class="st0" d="M580.5,211.3l-0.5-0.2c0,0,0,0,0-0.1c0,0,0,0,0.1,0l0,0l0.5,0.2C580.6,211.3,580.6,211.3,580.5,211.3
						C580.6,211.3,580.5,211.4,580.5,211.3z"/>
					<path class="st0" d="M577.2,210.2l-0.5-0.2c0,0-0.1,0,0-0.1s0-0.1,0.1,0l0,0l0.5,0.2C577.3,210,577.3,210.1,577.2,210.2
						C577.3,210.2,577.2,210.2,577.2,210.2z"/>
					<path class="st0" d="M573.9,209l-0.5-0.2c0,0-0.1-0.1,0-0.1c0,0,0.1-0.1,0.1,0l0,0l0.5,0.2C574,208.8,574,208.9,573.9,209
						C574,209,574,209,573.9,209z"/>
					<path class="st0" d="M570.6,207.8l-0.5-0.2c0,0-0.1-0.1,0-0.1s0.1-0.1,0.1,0l0,0l0.5,0.2C570.7,207.7,570.8,207.8,570.6,207.8
						C570.7,207.8,570.7,207.8,570.6,207.8z"/>
					<path class="st0" d="M567.3,206.6l-0.5-0.2l-0.1-0.1l0.1-0.1l0,0l0.5,0.2l0.1,0.1C567.4,206.6,567.4,206.6,567.3,206.6z"/>
					<path class="st0" d="M564,205.4l-0.5-0.2l-0.1-0.1l0.1-0.1l0,0l0.5,0.2l0.1,0.1C564.1,205.3,564.1,205.4,564,205.4z"/>
					<path class="st0" d="M560.7,204.2l-0.5-0.2c-0.1,0-0.1-0.1-0.1-0.1c0-0.1,0.1-0.1,0.1-0.1l0,0l0.5,0.2c0.1,0,0.1,0.1,0.1,0.1
						S560.8,204.2,560.7,204.2z"/>
					<path class="st0" d="M557.4,203l-0.5-0.2c-0.1,0-0.1-0.1-0.1-0.1l0.1-0.1l0,0l0.5,0.2c0.1,0,0.1,0.1,0.1,0.1
						S557.5,203,557.4,203z"/>
					<path class="st0" d="M554.1,201.8l-0.5-0.2c-0.1,0-0.1-0.1-0.1-0.2c0-0.1,0.1-0.1,0.2-0.1l0,0l0.5,0.2c0.1,0,0.1,0.1,0.1,0.2
						C554.2,201.8,554.2,201.8,554.1,201.8z"/>
					<path class="st0" d="M550.8,200.6l-0.5-0.2c-0.1,0-0.1-0.1-0.1-0.2c0-0.1,0.1-0.1,0.2-0.1l0,0l0.5,0.2c0.1,0,0.1,0.1,0.1,0.2
						C551,200.6,550.9,200.6,550.8,200.6z"/>
					<path class="st0" d="M547.5,199.4l-0.5-0.2c-0.1,0-0.1-0.1-0.1-0.2c0-0.1,0.1-0.1,0.2-0.1l0,0l0.5,0.2c0.1,0,0.1,0.1,0.1,0.2
						S547.6,199.4,547.5,199.4z"/>
					<path class="st0" d="M544.2,198.2l-0.5-0.2c-0.1,0-0.1-0.1-0.1-0.2c0-0.1,0.1-0.1,0.2-0.1l0,0l0.5,0.2c0.1,0,0.1,0.1,0.1,0.2
						C544.4,198.2,544.3,198.3,544.2,198.2z"/>
					<path class="st0" d="M540.9,197l-0.5-0.2c-0.1,0-0.1-0.1-0.1-0.2c0-0.1,0.1-0.1,0.2-0.1l0,0l0.5,0.2c0.1,0,0.1,0.1,0.1,0.2
						C541.1,197,541,197.1,540.9,197z"/>
					<path class="st0" d="M537.6,195.8l-0.5-0.2c-0.1,0-0.1-0.1-0.1-0.2c0-0.1,0.1-0.1,0.2-0.1l0,0l0.5,0.2c0.1,0,0.1,0.1,0.1,0.2
						C537.8,195.8,537.7,195.9,537.6,195.8z"/>
					<path class="st0" d="M534.3,194.7l-0.5-0.2c-0.1,0-0.1-0.1-0.1-0.2c0-0.1,0.1-0.1,0.2-0.1l0,0l0.5,0.2c0.1,0,0.1,0.1,0.1,0.2
						C534.5,194.6,534.4,194.7,534.3,194.7z"/>
					<path class="st0" d="M531,193.5l-0.5-0.2c-0.1,0-0.1-0.1-0.1-0.2s0.1-0.1,0.2-0.1l0,0l0.5,0.2c0.1,0,0.1,0.1,0.1,0.2
						C531.2,193.4,531.1,193.5,531,193.5z"/>
					<path class="st0" d="M527.7,192.3l-0.5-0.2c-0.1,0-0.1-0.1-0.1-0.2c0-0.1,0.1-0.1,0.2-0.1l0,0l0.5,0.2c0.1,0,0.1,0.1,0.1,0.2
						C527.9,192.3,527.8,192.3,527.7,192.3z"/>
					<path class="st0" d="M524.4,191.1l-0.5-0.2c-0.1,0-0.1-0.1-0.1-0.2c0-0.1,0.1-0.1,0.2-0.1l0,0l0.5,0.2c0.1,0,0.1,0.1,0.1,0.2
						S524.5,191.1,524.4,191.1z"/>
					<path class="st0" d="M521.1,189.9l-0.5-0.2c-0.1,0-0.2-0.1-0.1-0.2c0-0.1,0.1-0.2,0.2-0.1l0,0l0.5,0.2c0.1,0,0.2,0.1,0.1,0.2
						C521.3,189.9,521.2,189.9,521.1,189.9z"/>
					<path class="st0" d="M517.8,188.7l-0.5-0.2c-0.1,0-0.2-0.1-0.1-0.2s0.1-0.2,0.2-0.1l0,0l0.5,0.2c0.1,0,0.2,0.1,0.1,0.2
						S517.9,188.7,517.8,188.7z"/>
					<path class="st0" d="M514.5,187.5l-0.5-0.2c-0.1,0-0.2-0.2-0.1-0.3c0-0.1,0.2-0.2,0.3-0.1l0,0l0.5,0.2c0.1,0,0.2,0.2,0.1,0.3
						S514.6,187.5,514.5,187.5z"/>
					<path class="st0" d="M511.2,186.3l-0.5-0.2c-0.1,0-0.2-0.2-0.1-0.3c0-0.1,0.2-0.2,0.3-0.1l0,0l0.5,0.2c0.1,0,0.2,0.2,0.1,0.3
						S511.3,186.3,511.2,186.3z"/>
					<path class="st0" d="M507.9,185.1l-0.5-0.2c-0.1,0-0.2-0.2-0.1-0.3c0-0.1,0.2-0.2,0.3-0.1l0,0l0.5,0.2c0.1,0,0.2,0.2,0.1,0.3
						C508.1,185.1,508,185.1,507.9,185.1z"/>
					<path class="st0" d="M504.6,183.9l-0.5-0.2c-0.1,0-0.2-0.2-0.1-0.3c0-0.1,0.2-0.2,0.3-0.1l0,0l0.5,0.2c0.1,0,0.2,0.2,0.1,0.3
						C504.9,183.9,504.7,183.9,504.6,183.9z"/>
					<path class="st0" d="M501.3,182.7l-0.5-0.2c-0.1,0-0.2-0.2-0.1-0.3c0-0.1,0.2-0.2,0.3-0.1l0,0l0.5,0.2c0.1,0,0.2,0.2,0.1,0.3
						C501.6,182.7,501.4,182.7,501.3,182.7z"/>
					<path class="st0" d="M498,181.5l-0.5-0.2c-0.1,0-0.2-0.2-0.1-0.3c0-0.1,0.2-0.2,0.3-0.1l0,0l0.5,0.2c0.1,0,0.2,0.2,0.1,0.3
						C498.3,181.5,498.1,181.5,498,181.5z"/>
					<path class="st0" d="M494.7,180.3l-0.5-0.2c-0.1,0-0.2-0.2-0.1-0.3c0-0.1,0.2-0.2,0.3-0.1l0,0l0.5,0.2c0.1,0,0.2,0.2,0.1,0.3
						S494.8,180.3,494.7,180.3z"/>
					<path class="st0" d="M491.4,179.1l-0.5-0.2c-0.1,0-0.2-0.2-0.1-0.3c0-0.1,0.2-0.2,0.3-0.1l0,0l0.5,0.2c0.1,0,0.2,0.2,0.1,0.3
						C491.7,179.1,491.5,179.1,491.4,179.1z"/>
					<path class="st0" d="M488.1,177.9l-0.5-0.2c-0.1,0-0.2-0.2-0.1-0.3c0-0.1,0.2-0.2,0.3-0.1l0,0l0.5,0.2c0.1,0,0.2,0.2,0.1,0.3
						C488.4,177.9,488.3,177.9,488.1,177.9z"/>
					<path class="st0" d="M484.8,176.7l-0.5-0.2c-0.1,0-0.2-0.2-0.1-0.3c0-0.1,0.2-0.2,0.3-0.1l0,0l0.5,0.2c0.1,0,0.2,0.2,0.1,0.3
						C485.1,176.7,485,176.7,484.8,176.7z"/>
					<path class="st0" d="M481.5,175.5l-0.5-0.2c-0.1,0-0.2-0.2-0.1-0.3c0-0.1,0.2-0.2,0.3-0.1l0,0l0.5,0.2c0.1,0,0.2,0.2,0.1,0.3
						C481.8,175.5,481.7,175.5,481.5,175.5z"/>
					<path class="st0" d="M478.2,174.3l-0.5-0.2c-0.1,0-0.2-0.2-0.1-0.3c0-0.1,0.2-0.2,0.3-0.1l0,0l0.5,0.2c0.1,0,0.2,0.2,0.1,0.3
						C478.5,174.3,478.4,174.4,478.2,174.3z"/>
					<path class="st0" d="M474.9,173.1l-0.5-0.2c-0.1,0-0.2-0.2-0.1-0.3s0.2-0.2,0.3-0.1l0,0l0.5,0.2c0.1,0,0.2,0.2,0.1,0.3
						C475.2,173.1,475.1,173.2,474.9,173.1z"/>
					<path class="st0" d="M471.6,171.9l-0.5-0.2c-0.1,0-0.2-0.2-0.1-0.3c0-0.1,0.2-0.2,0.3-0.1l0,0l0.5,0.2c0.1,0,0.2,0.2,0.1,0.3
						C471.9,171.9,471.8,172,471.6,171.9z"/>
					<path class="st0" d="M468.3,170.7l-0.5-0.2c-0.1,0-0.2-0.2-0.1-0.3c0-0.1,0.2-0.2,0.3-0.1l0,0l0.5,0.2c0.1,0,0.2,0.2,0.1,0.3
						C468.6,170.7,468.5,170.8,468.3,170.7z"/>
					<path class="st0" d="M465.1,169.5l-0.5-0.2c-0.1,0-0.2-0.2-0.1-0.3c0-0.1,0.2-0.2,0.3-0.1l0,0l0.5,0.2c0.1,0,0.2,0.2,0.1,0.3
						S465.2,169.6,465.1,169.5z"/>
					<path class="st0" d="M461.8,168.3l-0.5-0.2c-0.1,0-0.2-0.2-0.1-0.3c0-0.1,0.2-0.2,0.3-0.1l0,0l0.5,0.2c0.1,0,0.2,0.2,0.1,0.3
						S461.9,168.4,461.8,168.3z"/>
					<path class="st0" d="M458.5,167.1L458,167c-0.1,0-0.2-0.2-0.1-0.3c0-0.1,0.2-0.2,0.3-0.1l0,0l0.5,0.2c0.1,0,0.2,0.2,0.1,0.3
						C458.7,167.1,458.6,167.2,458.5,167.1z"/>
					<path class="st0" d="M455.2,165.9l-0.5-0.2c-0.1,0-0.2-0.2-0.1-0.3c0-0.1,0.2-0.2,0.3-0.1l0,0l0.5,0.2c0.1,0,0.2,0.2,0.1,0.3
						S455.3,166,455.2,165.9z"/>
					<path class="st0" d="M451.9,164.7l-0.5-0.2c-0.1,0-0.2-0.2-0.1-0.3c0-0.1,0.2-0.2,0.3-0.1l0,0l0.5,0.2c0.1,0,0.2,0.2,0.1,0.3
						C452.1,164.7,452,164.8,451.9,164.7z"/>
					<path class="st0" d="M448.6,163.5l-0.5-0.2c-0.1,0-0.2-0.2-0.2-0.3s0.2-0.2,0.3-0.2l0,0l0.5,0.2c0.1,0,0.2,0.2,0.2,0.3
						C448.8,163.5,448.7,163.6,448.6,163.5z"/>
					<path class="st0" d="M445.3,162.3l-0.5-0.2c-0.1,0-0.2-0.2-0.2-0.3s0.2-0.2,0.3-0.2l0,0l0.5,0.2c0.1,0,0.2,0.2,0.2,0.3
						S445.4,162.4,445.3,162.3z"/>
					<path class="st0" d="M442,161.1l-0.5-0.2c-0.1,0-0.2-0.2-0.2-0.3s0.2-0.2,0.3-0.2l0,0l0.5,0.2c0.1,0,0.2,0.2,0.2,0.3
						C442.2,161.1,442.1,161.2,442,161.1z"/>
					<path class="st0" d="M438.7,159.9l-0.5-0.2c-0.1,0-0.2-0.2-0.2-0.3s0.2-0.2,0.3-0.2l0,0l0.5,0.2c0.1,0,0.2,0.2,0.2,0.3
						C439,159.9,438.8,160,438.7,159.9z"/>
					<path class="st0" d="M435.4,158.7l-0.5-0.2c-0.1,0-0.2-0.2-0.2-0.3s0.2-0.2,0.3-0.2l0,0l0.5,0.2c0.1,0,0.2,0.2,0.2,0.3
						C435.7,158.7,435.5,158.8,435.4,158.7z"/>
					<path class="st0" d="M432.1,157.5l-0.5-0.2c-0.1-0.1-0.2-0.2-0.2-0.3c0.1-0.1,0.2-0.2,0.3-0.2l0,0l0.5,0.2
						c0.1,0.1,0.2,0.2,0.2,0.3S432.2,157.6,432.1,157.5z"/>
					<path class="st0" d="M428.8,156.3l-0.5-0.2c-0.1-0.1-0.2-0.2-0.2-0.3s0.2-0.2,0.3-0.2l0,0l0.5,0.2c0.1,0.1,0.2,0.2,0.2,0.3
						C429.1,156.3,428.9,156.4,428.8,156.3z"/>
					<path class="st0" d="M425.5,155.1L425,155c-0.1-0.1-0.2-0.2-0.2-0.3c0.1-0.1,0.2-0.2,0.3-0.2l0,0l0.5,0.2
						c0.1,0.1,0.2,0.2,0.2,0.3S425.6,155.2,425.5,155.1z"/>
					<path class="st0" d="M422.2,154l-0.5-0.2c-0.1-0.1-0.2-0.2-0.2-0.4c0.1-0.1,0.2-0.2,0.4-0.2l0,0l0.5,0.2
						c0.1,0.1,0.2,0.2,0.2,0.4C422.5,153.9,422.3,154,422.2,154z"/>
					<path class="st0" d="M418.9,152.8l-0.5-0.2c-0.1-0.1-0.2-0.2-0.2-0.4c0.1-0.1,0.2-0.2,0.4-0.2l0,0l0.5,0.2
						c0.1,0.1,0.2,0.2,0.2,0.4C419.2,152.7,419,152.8,418.9,152.8z"/>
					<path class="st0" d="M415.6,151.6l-0.5-0.2c-0.1-0.1-0.2-0.2-0.2-0.4s0.2-0.2,0.4-0.2l0,0l0.5,0.2c0.1,0.1,0.2,0.2,0.2,0.4
						C415.9,151.5,415.7,151.6,415.6,151.6z"/>
					<path class="st0" d="M412.3,150.4l-0.5-0.2c-0.1-0.1-0.2-0.2-0.2-0.4c0.1-0.1,0.2-0.2,0.4-0.2l0,0l0.5,0.2
						c0.1,0.1,0.2,0.2,0.2,0.4S412.4,150.4,412.3,150.4z"/>
					<path class="st0" d="M409,149.2l-0.5-0.2c-0.1-0.1-0.2-0.2-0.2-0.4c0.1-0.1,0.2-0.2,0.4-0.2l0,0l0.5,0.2
						c0.1,0.1,0.2,0.2,0.2,0.4C409.3,149.1,409.1,149.2,409,149.2z"/>
					<path class="st0" d="M405.7,148l-0.5-0.2c-0.1-0.1-0.2-0.2-0.2-0.4s0.2-0.2,0.4-0.2l0,0l0.5,0.2c0.1,0.1,0.2,0.2,0.2,0.4
						C406,147.9,405.8,148,405.7,148z"/>
					<path class="st0" d="M402.4,146.8l-0.5-0.2c-0.2-0.1-0.2-0.2-0.2-0.4c0.1-0.2,0.2-0.2,0.4-0.2l0,0l0.5,0.2
						c0.2,0.1,0.2,0.2,0.2,0.4S402.5,146.8,402.4,146.8z"/>
					<path class="st0" d="M399.1,145.6l-0.5-0.2c-0.2-0.1-0.2-0.2-0.2-0.4c0.1-0.2,0.2-0.2,0.4-0.2l0,0l0.5,0.2
						c0.2,0.1,0.2,0.2,0.2,0.4C399.4,145.5,399.2,145.6,399.1,145.6z"/>
					<path class="st0" d="M395.8,144.4l-0.5-0.2c-0.2-0.1-0.2-0.2-0.2-0.4c0.1-0.2,0.2-0.2,0.4-0.2l0,0l0.5,0.2
						c0.2,0.1,0.2,0.2,0.2,0.4C396.1,144.3,395.9,144.4,395.8,144.4z"/>
					<path class="st0" d="M392.5,143.2L392,143c-0.2-0.1-0.2-0.2-0.2-0.4s0.2-0.2,0.4-0.2l0,0l0.5,0.2c0.2,0.1,0.2,0.2,0.2,0.4
						C392.8,143.2,392.6,143.2,392.5,143.2z"/>
					<path class="st0" d="M389.2,142l-0.5-0.2c-0.2-0.1-0.2-0.2-0.2-0.4c0.1-0.2,0.2-0.2,0.4-0.2l0,0l0.5,0.2
						c0.2,0.1,0.2,0.2,0.2,0.4C389.5,142,389.4,142,389.2,142z"/>
					<path class="st0" d="M385.9,140.8l-0.5-0.2c-0.2-0.1-0.2-0.2-0.2-0.4c0.1-0.2,0.2-0.2,0.4-0.2l0,0l0.5,0.2
						c0.2,0.1,0.2,0.2,0.2,0.4C386.2,140.8,386.1,140.8,385.9,140.8z"/>
					<path class="st0" d="M382.6,139.6l-0.5-0.2c-0.2-0.1-0.2-0.2-0.2-0.4c0.1-0.2,0.2-0.2,0.4-0.2l0,0l0.5,0.2
						c0.2,0.1,0.2,0.2,0.2,0.4C382.9,139.6,382.8,139.6,382.6,139.6z"/>
					<path class="st0" d="M379.3,138.4l-0.5-0.2c-0.2-0.1-0.2-0.2-0.2-0.4s0.2-0.2,0.4-0.2l0,0l0.5,0.2c0.2,0.1,0.2,0.2,0.2,0.4
						C379.6,138.4,379.5,138.4,379.3,138.4z"/>
					<path class="st0" d="M376,137.2l-0.5-0.2c-0.2-0.1-0.2-0.2-0.2-0.4c0.1-0.2,0.2-0.2,0.4-0.2l0,0l0.5,0.2
						c0.2,0.1,0.2,0.2,0.2,0.4C376.3,137.2,376.2,137.2,376,137.2z"/>
					<path class="st0" d="M372.7,136l-0.5-0.2c-0.2-0.1-0.2-0.2-0.2-0.4s0.2-0.2,0.4-0.2l0,0l0.5,0.2c0.2,0.1,0.2,0.2,0.2,0.4
						C373,136,372.9,136,372.7,136z"/>
					<path class="st0" d="M369.4,134.8l-0.5-0.2c-0.2-0.1-0.3-0.2-0.2-0.4c0.1-0.2,0.2-0.3,0.4-0.2l0,0l0.5,0.2
						c0.2,0.1,0.2,0.2,0.2,0.4S369.6,134.9,369.4,134.8z"/>
					<path class="st0" d="M366.1,133.6l-0.5-0.2c-0.2-0.1-0.3-0.2-0.2-0.4c0.1-0.2,0.2-0.3,0.4-0.2l0,0l0.5,0.2
						c0.2,0.1,0.3,0.2,0.2,0.4C366.5,133.6,366.3,133.7,366.1,133.6z"/>
					<path class="st0" d="M362.8,132.4l-0.5-0.2c-0.2-0.1-0.3-0.2-0.2-0.4c0.1-0.2,0.2-0.3,0.4-0.2l0,0l0.5,0.2
						c0.2,0.1,0.3,0.2,0.2,0.4C363.2,132.4,363,132.5,362.8,132.4z"/>
					<path class="st0" d="M359.5,131.2L359,131c-0.2-0.1-0.3-0.2-0.2-0.4s0.2-0.3,0.4-0.2l0,0l0.5,0.2c0.2,0.1,0.3,0.2,0.2,0.4
						C359.9,131.2,359.7,131.3,359.5,131.2z"/>
					<path class="st0" d="M356.2,130l-0.5-0.2c-0.2-0.1-0.3-0.3-0.2-0.4c0.1-0.2,0.3-0.3,0.4-0.2l0,0l0.5,0.2
						c0.2,0.1,0.3,0.3,0.2,0.4C356.6,130,356.4,130.1,356.2,130z"/>
					<path class="st0" d="M352.9,128.8l-0.5-0.2c-0.2-0.1-0.3-0.3-0.2-0.4c0.1-0.2,0.3-0.3,0.4-0.2l0,0l0.5,0.2
						c0.2,0.1,0.3,0.3,0.2,0.4C353.3,128.8,353.1,128.9,352.9,128.8z"/>
					<path class="st0" d="M349.6,127.6l-0.5-0.2c-0.2-0.1-0.3-0.3-0.2-0.4c0.1-0.2,0.3-0.3,0.4-0.2l0,0l0.5,0.2
						c0.2,0.1,0.3,0.3,0.2,0.4C350,127.6,349.8,127.7,349.6,127.6z"/>
					<path class="st0" d="M346.3,126.4l-0.5-0.2c-0.2-0.1-0.3-0.3-0.2-0.4s0.3-0.3,0.4-0.2l0,0l0.5,0.2c0.2,0.1,0.3,0.3,0.2,0.4
						S346.5,126.5,346.3,126.4z"/>
					<path class="st0" d="M343,125.2l-0.5-0.2c-0.2-0.1-0.3-0.3-0.2-0.4c0.1-0.2,0.3-0.3,0.4-0.2l0,0l0.5,0.2
						c0.2,0.1,0.3,0.3,0.2,0.4S343.2,125.3,343,125.2z"/>
					<path class="st0" d="M339.7,124l-0.5-0.2c-0.2-0.1-0.3-0.3-0.2-0.4c0.1-0.2,0.3-0.3,0.4-0.2l0,0l0.5,0.2
						c0.2,0.1,0.3,0.3,0.2,0.4S339.9,124.1,339.7,124z"/>
					<path class="st0" d="M336.4,122.8l-0.5-0.2c-0.2-0.1-0.3-0.3-0.2-0.4c0.1-0.2,0.3-0.3,0.4-0.2l0,0l0.5,0.2
						c0.2,0.1,0.3,0.3,0.2,0.4S336.6,122.9,336.4,122.8z"/>
					<path class="st0" d="M333.1,121.6l-0.5-0.2c-0.2-0.1-0.3-0.3-0.2-0.4s0.3-0.3,0.4-0.2l0,0l0.5,0.2c0.2,0.1,0.3,0.3,0.2,0.4
						S333.3,121.7,333.1,121.6z"/>
					<path class="st0" d="M329.8,120.4l-0.5-0.2c-0.2-0.1-0.3-0.3-0.2-0.4c0.1-0.2,0.3-0.3,0.4-0.2l0,0l0.5,0.2
						c0.2,0.1,0.3,0.3,0.2,0.4C330.2,120.4,330,120.5,329.8,120.4z"/>
					<path class="st0" d="M326.5,119.2L326,119c-0.2-0.1-0.3-0.3-0.2-0.5c0.1-0.2,0.3-0.3,0.5-0.2l0,0l0.5,0.2
						c0.2,0.1,0.3,0.3,0.2,0.5S326.7,119.3,326.5,119.2z"/>
					<path class="st0" d="M323.2,118l-0.5-0.2c-0.2-0.1-0.3-0.3-0.2-0.5s0.3-0.3,0.5-0.2l0,0l0.5,0.2c0.2,0.1,0.3,0.3,0.2,0.5
						S323.4,118.1,323.2,118z"/>
					<path class="st0" d="M319.9,116.8l-0.5-0.2c-0.2-0.1-0.3-0.3-0.2-0.5c0.1-0.2,0.3-0.3,0.5-0.2l0,0l0.5,0.2
						c0.2,0.1,0.3,0.3,0.2,0.5C320.3,116.8,320.1,116.9,319.9,116.8z"/>
					<path class="st0" d="M316.6,115.6l-0.5-0.2c-0.2-0.1-0.3-0.3-0.2-0.5c0.1-0.2,0.3-0.3,0.5-0.2l0,0l0.5,0.2
						c0.2,0.1,0.3,0.3,0.2,0.5C317,115.6,316.8,115.7,316.6,115.6z"/>
					<path class="st0" d="M313.3,114.4l-0.5-0.2c-0.2-0.1-0.3-0.3-0.2-0.5s0.3-0.3,0.5-0.2l0,0l0.5,0.2c0.2,0.1,0.3,0.3,0.2,0.5
						S313.5,114.5,313.3,114.4z"/>
					<path class="st0" d="M310,113.2l-0.5-0.2c-0.2-0.1-0.3-0.3-0.2-0.5s0.3-0.3,0.5-0.2l0,0l0.5,0.2c0.2,0.1,0.3,0.3,0.2,0.5
						C310.4,113.2,310.2,113.3,310,113.2z"/>
					<path class="st0" d="M306.7,112l-0.5-0.2c-0.2-0.1-0.3-0.3-0.2-0.5c0.1-0.2,0.3-0.3,0.5-0.2l0,0l0.5,0.2
						c0.2,0.1,0.3,0.3,0.2,0.5C307.1,112,306.9,112.1,306.7,112z"/>
					<path class="st0" d="M303.4,110.8l-0.5-0.2c-0.2-0.1-0.3-0.3-0.2-0.5c0.1-0.2,0.3-0.3,0.5-0.2l0,0l0.5,0.2
						c0.2,0.1,0.3,0.3,0.2,0.5C303.9,110.8,303.6,110.9,303.4,110.8z"/>
					<path class="st0" d="M300.1,109.6l-0.5-0.2c-0.2-0.1-0.3-0.3-0.2-0.5c0.1-0.2,0.3-0.3,0.5-0.2l0.5,0.2c0.2,0.1,0.3,0.3,0.2,0.5
						C300.6,109.6,300.3,109.7,300.1,109.6L300.1,109.6z"/>
					<path class="st0" d="M296.9,108.4l-0.5-0.2c-0.2-0.1-0.3-0.3-0.2-0.5c0.1-0.2,0.3-0.3,0.5-0.2l0.5,0.2c0.2,0.1,0.3,0.3,0.2,0.5
						C297.3,108.4,297,108.5,296.9,108.4L296.9,108.4z"/>
					<path class="st0" d="M293.6,107.2l-0.5-0.2c-0.2-0.1-0.3-0.3-0.2-0.5s0.3-0.3,0.5-0.2l0.5,0.2c0.2,0.1,0.3,0.3,0.2,0.5
						C294,107.2,293.7,107.3,293.6,107.2L293.6,107.2z"/>
					<path class="st0" d="M290.3,106l-0.5-0.2c-0.2-0.1-0.3-0.3-0.2-0.5s0.3-0.3,0.5-0.2l0.5,0.2c0.2,0.1,0.3,0.3,0.2,0.5
						S290.4,106.1,290.3,106L290.3,106z"/>
					<path class="st0" d="M287,104.8l-0.5-0.2c-0.2-0.1-0.3-0.3-0.2-0.5c0.1-0.2,0.3-0.3,0.5-0.2l0.5,0.2c0.2,0.1,0.3,0.3,0.2,0.5
						C287.4,104.8,287.2,104.9,287,104.8L287,104.8z"/>
					<path class="st0" d="M283.7,103.6l-0.5-0.2c-0.2-0.1-0.3-0.3-0.2-0.5c0.1-0.2,0.3-0.3,0.5-0.2l0.5,0.2c0.2,0.1,0.3,0.3,0.2,0.5
						C284.1,103.6,283.9,103.7,283.7,103.6L283.7,103.6z"/>
					<path class="st0" d="M280.4,102.4l-0.5-0.2c-0.2-0.1-0.3-0.3-0.2-0.5c0.1-0.2,0.3-0.3,0.5-0.2l0.5,0.2c0.2,0.1,0.3,0.3,0.2,0.5
						C280.8,102.4,280.6,102.5,280.4,102.4L280.4,102.4z"/>
					<path class="st0" d="M277.1,101.2l-0.5-0.2c-0.2-0.1-0.3-0.3-0.2-0.5c0.1-0.2,0.3-0.3,0.5-0.2l0.5,0.2c0.2,0.1,0.3,0.3,0.2,0.5
						C277.5,101.2,277.3,101.3,277.1,101.2L277.1,101.2z"/>
					<path class="st0" d="M273.8,100l-0.5-0.2c-0.2-0.1-0.3-0.3-0.2-0.5c0.1-0.2,0.3-0.3,0.5-0.2l0.5,0.2c0.2,0.1,0.3,0.3,0.2,0.5
						S274,100.1,273.8,100L273.8,100z"/>
					<path class="st0" d="M270.5,98.8l-0.5-0.2c-0.2-0.1-0.3-0.3-0.2-0.4c0.1-0.2,0.3-0.3,0.4-0.2l0.5,0.2c0.2,0.1,0.3,0.3,0.2,0.4
						C270.9,98.8,270.7,98.9,270.5,98.8L270.5,98.8z"/>
					<path class="st0" d="M267.2,97.6l-0.5-0.2c-0.2-0.1-0.3-0.3-0.2-0.4s0.3-0.3,0.4-0.2l0.5,0.2c0.2,0.1,0.3,0.3,0.2,0.4
						C267.6,97.6,267.4,97.7,267.2,97.6L267.2,97.6z"/>
					<path class="st0" d="M263.9,96.4l-0.5-0.2c-0.2-0.1-0.3-0.3-0.2-0.4c0.1-0.2,0.3-0.3,0.4-0.2l0.5,0.2c0.2,0.1,0.3,0.3,0.2,0.4
						S264.1,96.5,263.9,96.4L263.9,96.4z"/>
					<path class="st0" d="M260.6,95.2l-0.5-0.2c-0.2-0.1-0.3-0.3-0.2-0.4c0.1-0.2,0.3-0.3,0.4-0.2l0.5,0.2c0.2,0.1,0.3,0.3,0.2,0.4
						C261,95.2,260.8,95.3,260.6,95.2L260.6,95.2z"/>
					<path class="st0" d="M257.3,94l-0.5-0.2c-0.2-0.1-0.3-0.3-0.2-0.4c0.1-0.2,0.3-0.3,0.4-0.2l0.5,0.2c0.2,0.1,0.3,0.3,0.2,0.4
						C257.7,94,257.5,94.1,257.3,94L257.3,94z"/>
					<path class="st0" d="M254,92.8l-0.5-0.2c-0.2-0.1-0.3-0.3-0.2-0.4c0.1-0.2,0.3-0.3,0.4-0.2l0.5,0.2c0.2,0.1,0.3,0.3,0.2,0.4
						S254.2,92.9,254,92.8L254,92.8z"/>
					<path class="st0" d="M250.7,91.6l-0.5-0.2c-0.2-0.1-0.3-0.3-0.2-0.4c0.1-0.2,0.3-0.3,0.4-0.2l0.5,0.2c0.2,0.1,0.3,0.3,0.2,0.4
						C251.1,91.6,250.9,91.7,250.7,91.6L250.7,91.6z"/>
					<path class="st0" d="M247.4,90.4l-0.5-0.2c-0.2-0.1-0.3-0.3-0.2-0.4c0.1-0.2,0.3-0.3,0.4-0.2l0.5,0.2c0.2,0.1,0.3,0.3,0.2,0.4
						C247.8,90.4,247.6,90.5,247.4,90.4L247.4,90.4z"/>
					<path class="st0" d="M244.1,89.2l-0.5-0.2c-0.2-0.1-0.3-0.2-0.2-0.4c0.1-0.2,0.2-0.3,0.4-0.2l0.5,0.2c0.2,0.1,0.3,0.2,0.2,0.4
						C244.5,89.2,244.3,89.3,244.1,89.2L244.1,89.2z"/>
					<path class="st0" d="M240.8,88l-0.5-0.2c-0.2-0.1-0.3-0.2-0.2-0.4c0.1-0.2,0.2-0.3,0.4-0.2l0.5,0.2c0.2,0.1,0.3,0.2,0.2,0.4
						C241.2,88,241,88.1,240.8,88L240.8,88z"/>
					<path class="st0" d="M237.5,86.8l-0.5-0.2c-0.2-0.1-0.3-0.2-0.2-0.4c0.1-0.2,0.2-0.3,0.4-0.2l0.5,0.2c0.2,0.1,0.3,0.2,0.2,0.4
						C237.9,86.8,237.7,86.9,237.5,86.8L237.5,86.8z"/>
					<path class="st0" d="M234.2,85.6l-0.5-0.2c-0.2-0.1-0.3-0.2-0.2-0.4c0.1-0.2,0.2-0.3,0.4-0.2l0.5,0.2c0.2,0.1,0.3,0.2,0.2,0.4
						C234.6,85.6,234.4,85.7,234.2,85.6L234.2,85.6z"/>
					<path class="st0" d="M230.9,84.4l-0.5-0.2c-0.2-0.1-0.2-0.2-0.2-0.4c0.1-0.2,0.2-0.2,0.4-0.2l0.5,0.2c0.2,0.1,0.2,0.2,0.2,0.4
						C231.3,84.4,231.1,84.4,230.9,84.4L230.9,84.4z"/>
					<path class="st0" d="M227.6,83.2l-0.5-0.2c-0.2-0.1-0.2-0.2-0.2-0.4s0.2-0.2,0.4-0.2l0.5,0.2c0.2,0.1,0.2,0.2,0.2,0.4
						C228,83.2,227.8,83.2,227.6,83.2L227.6,83.2z"/>
					<path class="st0" d="M224.3,82l-0.5-0.2c-0.2-0.1-0.2-0.2-0.2-0.4c0.1-0.2,0.2-0.2,0.4-0.2l0.5,0.2c0.2,0.1,0.2,0.2,0.2,0.4
						C224.7,82,224.5,82,224.3,82L224.3,82z"/>
					<path class="st0" d="M221,80.8l-0.5-0.2c-0.2-0.1-0.2-0.2-0.2-0.4c0.1-0.2,0.2-0.2,0.4-0.2l0.5,0.2c0.2,0.1,0.2,0.2,0.2,0.4
						S221.2,80.8,221,80.8L221,80.8z"/>
					<path class="st0" d="M217.7,79.6l-0.5-0.2c-0.2-0.1-0.2-0.2-0.2-0.4c0.1-0.2,0.2-0.2,0.4-0.2L218,79c0.2,0.1,0.2,0.2,0.2,0.4
						S217.9,79.6,217.7,79.6L217.7,79.6z"/>
					<path class="st0" d="M214.4,78.4l-0.5-0.2c-0.2-0.1-0.2-0.2-0.2-0.4c0.1-0.2,0.2-0.2,0.4-0.2l0.5,0.2c0.2,0.1,0.2,0.2,0.2,0.4
						C214.8,78.4,214.6,78.4,214.4,78.4L214.4,78.4z"/>
					<path class="st0" d="M211.1,77.2l-0.5-0.2c-0.2-0.1-0.2-0.2-0.2-0.4c0.1-0.2,0.2-0.2,0.4-0.2l0.5,0.2c0.2,0.1,0.2,0.2,0.2,0.4
						S211.3,77.2,211.1,77.2L211.1,77.2z"/>
					<path class="st0" d="M207.9,76l-0.5-0.2c-0.2-0.1-0.2-0.2-0.2-0.4c0.1-0.2,0.2-0.2,0.4-0.2l0.5,0.2c0.2,0.1,0.2,0.2,0.2,0.4
						S208,76,207.9,76L207.9,76z"/>
					<path class="st0" d="M204.6,74.8l-0.5-0.2c-0.2-0.1-0.2-0.2-0.2-0.4c0.1-0.2,0.2-0.2,0.4-0.2l0.5,0.2c0.2,0.1,0.2,0.2,0.2,0.4
						C204.9,74.7,204.7,74.8,204.6,74.8L204.6,74.8z"/>
					<path class="st0" d="M201.3,73.6l-0.5-0.2c-0.2-0.1-0.2-0.2-0.2-0.4s0.2-0.2,0.4-0.2l0.5,0.2c0.2,0.1,0.2,0.2,0.2,0.4
						C201.6,73.5,201.4,73.6,201.3,73.6L201.3,73.6z"/>
					<path class="st0" d="M198,72.4l-0.5-0.2c-0.1-0.1-0.2-0.2-0.2-0.4c0.1-0.1,0.2-0.2,0.4-0.2l0.5,0.2c0.1,0.1,0.2,0.2,0.2,0.4
						C198.3,72.3,198.1,72.4,198,72.4L198,72.4z"/>
					<path class="st0" d="M194.7,71.2l-0.5-0.2c-0.1-0.1-0.2-0.2-0.2-0.4c0.1-0.1,0.2-0.2,0.4-0.2l0.5,0.2c0.1,0.1,0.2,0.2,0.2,0.4
						S194.8,71.2,194.7,71.2L194.7,71.2z"/>
					<path class="st0" d="M191.4,70l-0.5-0.2c-0.1-0.1-0.2-0.2-0.2-0.4c0.1-0.1,0.2-0.2,0.4-0.2l0.5,0.2c0.1,0.1,0.2,0.2,0.2,0.4
						S191.5,70,191.4,70L191.4,70z"/>
					<path class="st0" d="M188.1,68.8l-0.5-0.2c-0.1-0.1-0.2-0.2-0.2-0.4s0.2-0.2,0.4-0.2l0.5,0.2c0.1,0.1,0.2,0.2,0.2,0.4
						S188.2,68.8,188.1,68.8L188.1,68.8z"/>
					<path class="st0" d="M184.8,67.6l-0.5-0.2c-0.1-0.1-0.2-0.2-0.2-0.4c0.1-0.1,0.2-0.2,0.4-0.2L185,67c0.1,0.1,0.2,0.2,0.2,0.4
						C185.1,67.5,184.9,67.6,184.8,67.6L184.8,67.6z"/>
					<path class="st0" d="M181.5,66.3l-0.5-0.2c-0.1-0.1-0.2-0.2-0.2-0.4c0.1-0.1,0.2-0.2,0.4-0.2l0.5,0.2c0.1,0.1,0.2,0.2,0.2,0.4
						C181.8,66.3,181.6,66.4,181.5,66.3L181.5,66.3z"/>
					<path class="st0" d="M178.2,65.1l-0.5-0.2c-0.1-0.1-0.2-0.2-0.2-0.3c0.1-0.1,0.2-0.2,0.3-0.2l0.5,0.2c0.1,0.1,0.2,0.2,0.2,0.3
						C178.5,65.1,178.3,65.2,178.2,65.1L178.2,65.1z"/>
					<path class="st0" d="M174.9,63.9l-0.5-0.2c-0.1-0.1-0.2-0.2-0.2-0.3s0.2-0.2,0.3-0.2l0.5,0.2c0.1,0.1,0.2,0.2,0.2,0.3
						C175.2,63.9,175,64,174.9,63.9L174.9,63.9z"/>
					<path class="st0" d="M171.6,62.7l-0.5-0.2c-0.1-0.1-0.2-0.2-0.2-0.3c0.1-0.1,0.2-0.2,0.3-0.2l0.5,0.2c0.1,0.1,0.2,0.2,0.2,0.3
						S171.7,62.8,171.6,62.7L171.6,62.7z"/>
					<path class="st0" d="M168.3,61.5l-0.5-0.2c-0.1,0-0.2-0.2-0.2-0.3s0.2-0.2,0.3-0.2l0.5,0.2c0.1,0,0.2,0.2,0.2,0.3
						S168.4,61.6,168.3,61.5L168.3,61.5z"/>
					<path class="st0" d="M165,60.3l-0.5-0.2c-0.1,0-0.2-0.2-0.2-0.3s0.2-0.2,0.3-0.2l0.5,0.2c0.1,0,0.2,0.2,0.2,0.3
						S165.1,60.4,165,60.3L165,60.3z"/>
					<path class="st0" d="M161.7,59.1l-0.5-0.2c-0.1,0-0.2-0.2-0.2-0.3s0.2-0.2,0.3-0.2l0.5,0.2c0.1,0,0.2,0.2,0.2,0.3
						C162,59.1,161.8,59.2,161.7,59.1L161.7,59.1z"/>
					<path class="st0" d="M158.4,57.9l-0.5-0.2c-0.1,0-0.2-0.2-0.2-0.3s0.2-0.2,0.3-0.2l0.5,0.2c0.1,0,0.2,0.2,0.2,0.3
						C158.7,57.9,158.5,58,158.4,57.9L158.4,57.9z"/>
					<path class="st0" d="M155.1,56.7l-0.5-0.2c-0.1,0-0.2-0.2-0.2-0.3s0.2-0.2,0.3-0.2l0.5,0.2c0.1,0,0.2,0.2,0.2,0.3
						C155.4,56.7,155.2,56.8,155.1,56.7L155.1,56.7z"/>
					<path class="st0" d="M151.8,55.5l-0.5-0.2c-0.1,0-0.2-0.2-0.1-0.3c0-0.1,0.2-0.2,0.3-0.1l0.5,0.2c0.1,0,0.2,0.2,0.1,0.3
						C152.1,55.5,151.9,55.6,151.8,55.5L151.8,55.5z"/>
					<path class="st0" d="M148.5,54.3l-0.5-0.2c-0.1,0-0.2-0.2-0.1-0.3c0-0.1,0.2-0.2,0.3-0.1l0.5,0.2c0.1,0,0.2,0.2,0.1,0.3
						C148.8,54.3,148.7,54.4,148.5,54.3L148.5,54.3z"/>
					<path class="st0" d="M145.2,53.1l-0.5-0.2c-0.1,0-0.2-0.2-0.1-0.3c0-0.1,0.2-0.2,0.3-0.1l0.5,0.2c0.1,0,0.2,0.2,0.1,0.3
						S145.4,53.2,145.2,53.1L145.2,53.1z"/>
					<path class="st0" d="M141.9,51.9l-0.5-0.2c-0.1,0-0.2-0.2-0.1-0.3c0-0.1,0.2-0.2,0.3-0.1l0.5,0.2c0.1,0,0.2,0.2,0.1,0.3
						S142.1,52,141.9,51.9L141.9,51.9z"/>
					<path class="st0" d="M138.6,50.7l-0.5-0.2c-0.1,0-0.2-0.2-0.1-0.3c0-0.1,0.2-0.2,0.3-0.1l0.5,0.2c0.1,0,0.2,0.2,0.1,0.3
						C138.9,50.7,138.8,50.8,138.6,50.7L138.6,50.7z"/>
					<path class="st0" d="M135.3,49.5l-0.5-0.2c-0.1,0-0.2-0.2-0.1-0.3s0.2-0.2,0.3-0.1l0.5,0.2c0.1,0,0.2,0.2,0.1,0.3
						C135.6,49.5,135.5,49.6,135.3,49.5L135.3,49.5z"/>
					<path class="st0" d="M132,48.3l-0.5-0.2c-0.1,0-0.2-0.2-0.1-0.3c0-0.1,0.2-0.2,0.3-0.1l0.5,0.2c0.1,0,0.2,0.2,0.1,0.3
						C132.3,48.3,132.2,48.4,132,48.3L132,48.3z"/>
					<path class="st0" d="M128.7,47.1l-0.5-0.2c-0.1,0-0.2-0.2-0.1-0.3c0-0.1,0.2-0.2,0.3-0.1l0.5,0.2c0.1,0,0.2,0.2,0.1,0.3
						C129,47.1,128.9,47.1,128.7,47.1L128.7,47.1z"/>
					<path class="st0" d="M125.4,45.9l-0.5-0.2c-0.1,0-0.2-0.2-0.1-0.3c0-0.1,0.2-0.2,0.3-0.1l0.5,0.2c0.1,0,0.2,0.2,0.1,0.3
						C125.7,45.9,125.6,45.9,125.4,45.9L125.4,45.9z"/>
					<path class="st0" d="M122.2,44.7l-0.5-0.2c-0.1,0-0.2-0.2-0.1-0.3s0.2-0.2,0.3-0.1l0.5,0.2c0.1,0,0.2,0.2,0.1,0.3
						S122.3,44.7,122.2,44.7L122.2,44.7z"/>
					<path class="st0" d="M118.9,43.5l-0.5-0.2c-0.1,0-0.2-0.2-0.1-0.3c0-0.1,0.2-0.2,0.3-0.1l0.5,0.2c0.1,0,0.2,0.2,0.1,0.3
						C119.1,43.5,119,43.5,118.9,43.5L118.9,43.5z"/>
					<path class="st0" d="M115.6,42.3l-0.5-0.2c-0.1,0-0.2-0.2-0.1-0.3c0-0.1,0.2-0.2,0.3-0.1l0.5,0.2c0.1,0,0.2,0.2,0.1,0.3
						S115.7,42.3,115.6,42.3L115.6,42.3z"/>
					<path class="st0" d="M112.3,41.1l-0.5-0.2c-0.1,0-0.2-0.2-0.1-0.3s0.2-0.2,0.3-0.1l0.5,0.2c0.1,0,0.2,0.2,0.1,0.3
						C112.5,41.1,112.4,41.1,112.3,41.1L112.3,41.1z"/>
					<path class="st0" d="M109,39.9l-0.5-0.2c-0.1,0-0.2-0.2-0.1-0.3s0.2-0.2,0.3-0.1l0.5,0.2c0.1,0,0.2,0.2,0.1,0.3
						S109.1,39.9,109,39.9L109,39.9z"/>
					<path class="st0" d="M105.7,38.7l-0.5-0.2c-0.1,0-0.2-0.2-0.1-0.3c0-0.1,0.2-0.2,0.3-0.1l0.5,0.2c0.1,0,0.2,0.2,0.1,0.3
						S105.8,38.7,105.7,38.7L105.7,38.7z"/>
					<path class="st0" d="M102.4,37.5l-0.5-0.2c-0.1,0-0.2-0.2-0.1-0.3c0-0.1,0.2-0.2,0.3-0.1l0.5,0.2c0.1,0,0.2,0.2,0.1,0.3
						C102.6,37.5,102.5,37.5,102.4,37.5L102.4,37.5z"/>
					<path class="st0" d="M99.1,36.3l-0.5-0.2c-0.1,0-0.2-0.2-0.1-0.3s0.2-0.2,0.3-0.1l0.5,0.2c0.1,0,0.2,0.2,0.1,0.3
						S99.2,36.3,99.1,36.3L99.1,36.3z"/>
					<path class="st0" d="M95.8,35.1l-0.5-0.2c-0.1,0-0.2-0.2-0.1-0.3c0-0.1,0.2-0.2,0.3-0.1l0.5,0.2c0.1,0,0.2,0.2,0.1,0.3
						C96,35.1,95.9,35.1,95.8,35.1L95.8,35.1z"/>
					<path class="st0" d="M92.5,33.9L92,33.7c-0.1,0-0.2-0.2-0.1-0.3c0-0.1,0.2-0.2,0.3-0.1l0.5,0.2c0.1,0,0.2,0.2,0.1,0.3
						C92.7,33.9,92.6,33.9,92.5,33.9L92.5,33.9z"/>
					<path class="st0" d="M89.2,32.7l-0.5-0.2c-0.1,0-0.2-0.2-0.1-0.3c0-0.1,0.2-0.2,0.3-0.1l0.5,0.2c0.1,0,0.2,0.2,0.1,0.3
						S89.3,32.7,89.2,32.7L89.2,32.7z"/>
					<path class="st0" d="M85.9,31.5l-0.5-0.2c-0.1,0-0.2-0.1-0.1-0.2c0-0.1,0.1-0.2,0.2-0.1l0.5,0.2c0.1,0,0.2,0.1,0.1,0.2
						C86.1,31.5,86,31.5,85.9,31.5L85.9,31.5z"/>
					<path class="st0" d="M82.6,30.3l-0.5-0.2c-0.1,0-0.2-0.1-0.1-0.2c0-0.1,0.1-0.2,0.2-0.1l0.5,0.2c0.1,0,0.2,0.1,0.1,0.2
						C82.8,30.3,82.7,30.3,82.6,30.3L82.6,30.3z"/>
					<path class="st0" d="M79.3,29.1l-0.5-0.2c-0.1,0-0.1-0.1-0.1-0.2s0.1-0.1,0.2-0.1l0.5,0.2c0.1,0,0.1,0.1,0.1,0.2
						S79.4,29.1,79.3,29.1L79.3,29.1z"/>
					<path class="st0" d="M76,27.9l-0.5-0.2c-0.1,0-0.1-0.1-0.1-0.2s0.1-0.1,0.2-0.1l0.5,0.2c0.1,0,0.1,0.1,0.1,0.2
						C76.2,27.8,76.1,27.9,76,27.9L76,27.9z"/>
					<path class="st0" d="M72.7,26.7l-0.5-0.2c-0.1,0-0.1-0.1-0.1-0.2s0.1-0.1,0.2-0.1l0.5,0.2c0.1,0,0.1,0.1,0.1,0.2
						C72.9,26.6,72.8,26.7,72.7,26.7L72.7,26.7z"/>
					<path class="st0" d="M69.4,25.4l-0.5-0.2c-0.1,0-0.1-0.1-0.1-0.2s0.1-0.1,0.2-0.1l0.5,0.2c0.1,0,0.1,0.1,0.1,0.2
						S69.5,25.5,69.4,25.4L69.4,25.4z"/>
					<path class="st0" d="M66.1,24.2L65.6,24c-0.1,0-0.1-0.1-0.1-0.2s0.1-0.1,0.2-0.1l0.5,0.2c0.1,0,0.1,0.1,0.1,0.2
						C66.3,24.2,66.2,24.3,66.1,24.2L66.1,24.2z"/>
					<path class="st0" d="M62.8,23l-0.5-0.2c-0.1,0-0.1-0.1-0.1-0.2s0.1-0.1,0.2-0.1l0.5,0.2c0.1,0,0.1,0.1,0.1,0.2
						S62.9,23.1,62.8,23L62.8,23z"/>
					<path class="st0" d="M59.5,21.8L59,21.6c-0.1,0-0.1-0.1-0.1-0.2s0.1-0.1,0.2-0.1l0.5,0.2c0.1,0,0.1,0.1,0.1,0.2
						S59.6,21.9,59.5,21.8L59.5,21.8z"/>
					<path class="st0" d="M56.2,20.6l-0.5-0.2c-0.1,0-0.1-0.1-0.1-0.2s0.1-0.1,0.2-0.1l0.5,0.2c0.1,0,0.1,0.1,0.1,0.2
						S56.3,20.6,56.2,20.6L56.2,20.6z"/>
					<path class="st0" d="M52.9,19.4l-0.5-0.2c-0.1,0-0.1-0.1-0.1-0.2s0.1-0.1,0.2-0.1l0.5,0.2c0.1,0,0.1,0.1,0.1,0.2
						C53.1,19.4,53,19.4,52.9,19.4L52.9,19.4z"/>
					<path class="st0" d="M49.7,18.2L49.2,18c-0.1,0-0.1-0.1-0.1-0.2s0.1-0.1,0.2-0.1l0.5,0.2c0.1,0,0.1,0.1,0.1,0.2
						C49.8,18.2,49.7,18.2,49.7,18.2L49.7,18.2z"/>
					<path class="st0" d="M46.4,17l-0.5-0.2c-0.1,0-0.1-0.1-0.1-0.1l0.1-0.1l0.5,0.2c0.1,0,0.1,0.1,0.1,0.1L46.4,17L46.4,17z"/>
					<path class="st0" d="M43.1,15.8l-0.5-0.2c-0.1,0-0.1-0.1-0.1-0.1c0-0.1,0.1-0.1,0.1-0.1l0.5,0.2c0.1,0,0.1,0.1,0.1,0.1
						L43.1,15.8L43.1,15.8z"/>
					<path class="st0" d="M39.8,14.6l-0.5-0.2l-0.1-0.1l0.1-0.1l0.5,0.2c0.1,0,0.1,0.1,0.1,0.1C39.9,14.6,39.8,14.6,39.8,14.6
						L39.8,14.6z"/>
					<path class="st0" d="M36.5,13.4L36,13.2l-0.1-0.1L36,13l0.5,0.2l0.1,0.1L36.5,13.4L36.5,13.4z"/>
					<path class="st0" d="M33.2,12.2L32.7,12c0,0-0.1-0.1,0-0.1c0,0,0.1-0.1,0.1,0l0.5,0.2C33.3,12.1,33.4,12.2,33.2,12.2L33.2,12.2
						L33.2,12.2z"/>
					<path class="st0" d="M29.9,11l-0.5-0.2c0,0-0.1-0.1,0-0.1c0,0,0.1-0.1,0.1,0l0.5,0.2C30,10.8,30,10.9,29.9,11
						C30,10.9,29.9,11,29.9,11L29.9,11z"/>
					<path class="st0" d="M26.6,9.7l-0.5-0.2c0,0,0,0,0-0.1c0,0,0-0.1,0.1,0l0.5,0.2C26.7,9.6,26.7,9.7,26.6,9.7
						C26.7,9.7,26.6,9.8,26.6,9.7L26.6,9.7z"/>
					<path class="st0" d="M23.3,8.5l-0.5-0.2c0,0,0,0,0-0.1c0,0,0,0,0.1,0l0.5,0.2C23.4,8.4,23.4,8.5,23.3,8.5
						C23.4,8.5,23.3,8.5,23.3,8.5L23.3,8.5z"/>
					<path class="st0" d="M20,7.3l-0.5-0.2c0,0,0,0,0-0.1s0,0,0.1,0L20,7.3C20.1,7.2,20.1,7.3,20,7.3C20.1,7.3,20,7.3,20,7.3L20,7.3
						z"/>
					<path class="st0" d="M16.7,6.1L16.2,6c0,0,0,0,0-0.1c0,0,0,0,0.1,0L16.7,6.1C16.8,6.1,16.8,6.1,16.7,6.1
						C16.8,6.1,16.7,6.1,16.7,6.1L16.7,6.1z"/>
					<path class="st0" d="M13.4,4.9l-0.5-0.2l0,0l0,0L13.4,4.9C13.5,4.9,13.5,4.9,13.4,4.9L13.4,4.9L13.4,4.9z"/>
					<path class="st0" d="M10.1,3.7L9.6,3.5l0,0l0,0L10.1,3.7C10.1,3.7,10.2,3.7,10.1,3.7L10.1,3.7L10.1,3.7z"/>
					<path class="st0" d="M6.8,2.5L6.4,2.3l0,0l0,0L6.8,2.5L6.8,2.5L6.8,2.5L6.8,2.5z"/>
					<path class="st0" d="M3.5,1.3L3.1,1.1l0,0l0,0L3.5,1.3L3.5,1.3L3.5,1.3L3.5,1.3z"/>
					<path class="st0" d="M0.2,0.1L0,0L0.2,0.1z"/>
				</g>
			</g>
		</g>
	</g>
	<g>
		<g>
			<g>
				<g>
					<polygon class="st0" points="0,219.6 0.2,219.5 0.2,219.5 					"/>
					<path class="st0" d="M3.1,218.5l0.5-0.2l0,0l0,0l0,0L3.1,218.5L3.1,218.5L3.1,218.5z"/>
					<path class="st0" d="M6.4,217.3l0.5-0.2l0,0l0,0l0,0L6.4,217.3C6.4,217.3,6.3,217.3,6.4,217.3C6.3,217.3,6.3,217.3,6.4,217.3z"
						/>
					<path class="st0" d="M9.6,216.1l0.5-0.2l0,0l0,0l0,0L9.6,216.1C9.7,216.1,9.6,216.1,9.6,216.1L9.6,216.1z"/>
					<path class="st0" d="M12.9,214.9l0.5-0.2l0,0l0,0l0,0L12.9,214.9L12.9,214.9L12.9,214.9z"/>
					<path class="st0" d="M16.2,213.7l0.5-0.2c0,0,0,0,0.1,0c0,0,0,0,0,0.1l0,0L16.2,213.7L16.2,213.7L16.2,213.7z"/>
					<path class="st0" d="M19.5,212.5l0.5-0.2h0.1v0.1l0,0L19.5,212.5C19.5,212.6,19.5,212.5,19.5,212.5L19.5,212.5z"/>
					<path class="st0" d="M22.8,211.2l0.5-0.2h0.1v0.1l0,0l-0.5,0.2C22.8,211.4,22.8,211.3,22.8,211.2
						C22.8,211.3,22.8,211.3,22.8,211.2z"/>
					<path class="st0" d="M26.1,210l0.5-0.2h0.1v0.1l0,0l-0.5,0.2C26.1,210.2,26.1,210.2,26.1,210C26.1,210.1,26.1,210,26.1,210z"/>
					<path class="st0" d="M29.4,208.8l0.5-0.2H30v0.1l0,0l-0.5,0.2C29.4,209,29.4,209,29.4,208.8C29.4,208.9,29.4,208.8,29.4,208.8z
						"/>
					<path class="st0" d="M32.7,207.6l0.5-0.2h0.1v0.1l0,0l-0.5,0.2h-0.1V207.6z"/>
					<path class="st0" d="M36,206.4l0.5-0.2c0,0,0.1,0,0.1,0.1c0,0,0,0.1-0.1,0.1l0,0l-0.5,0.2c0,0-0.1,0-0.1-0.1L36,206.4z"/>
					<path class="st0" d="M39.3,205.2l0.5-0.2c0,0,0.1,0,0.1,0.1s0,0.1-0.1,0.1l0,0l-0.5,0.2c0,0-0.1,0-0.1-0.1
						C39.2,205.3,39.2,205.2,39.3,205.2z"/>
					<path class="st0" d="M42.6,204l0.5-0.2c0.1,0,0.1,0,0.1,0.1s0,0.1-0.1,0.1l0,0l-0.5,0.2c-0.1,0-0.1,0-0.1-0.1
						C42.5,204.1,42.5,204,42.6,204z"/>
					<path class="st0" d="M45.9,202.8l0.5-0.2c0.1,0,0.1,0,0.1,0.1s0,0.1-0.1,0.1l0,0L46,203C45.9,203,45.9,203,45.9,202.8
						C45.8,202.9,45.8,202.8,45.9,202.8z"/>
					<path class="st0" d="M49.2,201.6l0.5-0.2c0.1,0,0.1,0,0.2,0.1c0,0.1,0,0.1-0.1,0.2l0,0l-0.5,0.2c-0.1,0-0.1,0-0.2-0.1
						C49.1,201.7,49.1,201.6,49.2,201.6z"/>
					<path class="st0" d="M52.5,200.4l0.5-0.2c0.1,0,0.1,0,0.2,0.1c0,0.1,0,0.1-0.1,0.2l0,0l-0.5,0.2c-0.1,0-0.1,0-0.2-0.1
						S52.4,200.4,52.5,200.4z"/>
					<path class="st0" d="M55.8,199.2l0.5-0.2c0.1,0,0.1,0,0.2,0.1c0,0.1,0,0.1-0.1,0.2l0,0l-0.5,0.2c-0.1,0-0.1,0-0.2-0.1
						C55.7,199.3,55.7,199.2,55.8,199.2z"/>
					<path class="st0" d="M59.1,198l0.5-0.2c0.1,0,0.2,0,0.2,0.1s0,0.2-0.1,0.2l0,0l-0.5,0.2c-0.1,0-0.2,0-0.2-0.1
						C59,198.1,59,198,59.1,198z"/>
					<path class="st0" d="M62.4,196.8l0.5-0.2c0.1,0,0.2,0,0.2,0.1s0,0.2-0.1,0.2l0,0l-0.5,0.2c-0.1,0-0.2,0-0.2-0.1
						S62.3,196.8,62.4,196.8z"/>
					<path class="st0" d="M65.7,195.5l0.5-0.2c0.1,0,0.2,0,0.2,0.1s0,0.2-0.1,0.2l0,0l-0.5,0.2c-0.1,0-0.2,0-0.2-0.1
						C65.5,195.7,65.6,195.6,65.7,195.5z"/>
					<path class="st0" d="M68.9,194.3l0.5-0.2c0.1,0,0.2,0,0.2,0.1s0,0.2-0.1,0.2l0,0l-0.5,0.2c-0.1,0-0.2,0-0.2-0.1
						S68.9,194.4,68.9,194.3z"/>
					<path class="st0" d="M72.2,193.1l0.5-0.2c0.1,0,0.2,0,0.2,0.1s0,0.2-0.1,0.2l0,0l-0.5,0.2c-0.1,0-0.2,0-0.2-0.1
						C72.1,193.3,72.2,193.2,72.2,193.1z"/>
					<path class="st0" d="M75.5,191.9l0.5-0.2c0.1,0,0.2,0,0.2,0.1s0,0.2-0.1,0.2l0,0l-0.5,0.2c-0.1,0-0.2,0-0.2-0.1
						C75.4,192.1,75.4,192,75.5,191.9z"/>
					<path class="st0" d="M78.8,190.7l0.5-0.2c0.1,0,0.2,0,0.2,0.1s0,0.2-0.1,0.2l0,0l-0.5,0.2c-0.1,0-0.2,0-0.2-0.1
						C78.7,190.9,78.7,190.8,78.8,190.7z"/>
					<path class="st0" d="M82.1,189.5l0.5-0.2c0.1,0,0.2,0,0.2,0.1s0,0.2-0.1,0.2l0,0l-0.5,0.2c-0.1,0-0.2,0-0.2-0.1
						C82,189.7,82,189.6,82.1,189.5z"/>
					<path class="st0" d="M85.4,188.3l0.5-0.2c0.1,0,0.2,0,0.2,0.1s0,0.2-0.1,0.2l0,0l-0.5,0.2c-0.1,0-0.2,0-0.2-0.1
						C85.3,188.5,85.3,188.4,85.4,188.3z"/>
					<path class="st0" d="M88.7,187.1l0.5-0.2c0.1,0,0.2,0,0.3,0.1c0,0.1,0,0.2-0.1,0.3l0,0l-0.5,0.2c-0.1,0-0.2,0-0.3-0.1
						C88.6,187.3,88.6,187.1,88.7,187.1z"/>
					<path class="st0" d="M92,185.9l0.5-0.2c0.1,0,0.2,0,0.3,0.1c0,0.1,0,0.2-0.1,0.3l0,0l-0.5,0.2c-0.1,0-0.2,0-0.3-0.1
						C91.9,186.1,91.9,185.9,92,185.9z"/>
					<path class="st0" d="M95.3,184.7l0.5-0.2c0.1,0,0.2,0,0.3,0.1c0,0.1,0,0.2-0.1,0.3l0,0l-0.5,0.2c-0.1,0-0.2,0-0.3-0.1
						C95.2,184.9,95.2,184.7,95.3,184.7z"/>
					<path class="st0" d="M98.6,183.5l0.5-0.2c0.1,0,0.2,0,0.3,0.1c0,0.1,0,0.2-0.1,0.3l0,0l-0.5,0.2c-0.1,0-0.2,0-0.3-0.1
						C98.4,183.7,98.5,183.5,98.6,183.5z"/>
					<path class="st0" d="M101.9,182.3l0.5-0.2c0.1,0,0.2,0,0.3,0.1c0,0.1,0,0.2-0.1,0.3l0,0l-0.5,0.2c-0.1,0-0.2,0-0.3-0.1
						S101.8,182.3,101.9,182.3z"/>
					<path class="st0" d="M105.2,181.1l0.5-0.2c0.1,0,0.2,0,0.3,0.1c0,0.1,0,0.2-0.1,0.3l0,0l-0.5,0.2c-0.1,0-0.2,0-0.3-0.1
						C105,181.3,105.1,181.1,105.2,181.1z"/>
					<path class="st0" d="M108.5,179.9l0.5-0.2c0.1,0,0.2,0,0.3,0.1c0,0.1,0,0.2-0.1,0.3l0,0l-0.5,0.2c-0.1,0-0.2,0-0.3-0.1
						C108.3,180.1,108.4,179.9,108.5,179.9z"/>
					<path class="st0" d="M111.8,178.7l0.5-0.2c0.1,0,0.2,0,0.3,0.1c0,0.1,0,0.2-0.1,0.3l0,0l-0.5,0.2c-0.1,0-0.2,0-0.3-0.1
						S111.7,178.7,111.8,178.7z"/>
					<path class="st0" d="M115.1,177.5l0.5-0.2c0.1,0,0.2,0,0.3,0.1s0,0.2-0.1,0.3l0,0l-0.5,0.2c-0.1,0-0.2,0-0.3-0.1
						C114.9,177.7,115,177.5,115.1,177.5z"/>
					<path class="st0" d="M118.4,176.3l0.5-0.2c0.1,0,0.2,0,0.3,0.1s0,0.2-0.1,0.3l0,0l-0.5,0.2c-0.1,0-0.2,0-0.3-0.1
						S118.3,176.3,118.4,176.3z"/>
					<path class="st0" d="M121.7,175.1l0.5-0.2c0.1,0,0.2,0,0.3,0.1c0,0.1,0,0.2-0.1,0.3l0,0l-0.5,0.2c-0.1,0-0.2,0-0.3-0.1
						C121.5,175.3,121.6,175.1,121.7,175.1z"/>
					<path class="st0" d="M125,173.9l0.5-0.2c0.1,0,0.2,0,0.3,0.1s0,0.2-0.1,0.3l0,0l-0.5,0.2c-0.1,0-0.2,0-0.3-0.1
						C124.8,174.1,124.9,173.9,125,173.9z"/>
					<path class="st0" d="M128.3,172.7l0.5-0.2c0.1,0,0.3,0,0.3,0.1s0,0.3-0.1,0.3l0,0l-0.5,0.2c-0.1,0-0.3,0-0.3-0.1
						C128.1,172.9,128.2,172.7,128.3,172.7z"/>
					<path class="st0" d="M131.6,171.5l0.5-0.2c0.1,0,0.3,0,0.3,0.1s0,0.3-0.1,0.3l0,0l-0.5,0.2c-0.1,0-0.3,0-0.3-0.1
						S131.4,171.5,131.6,171.5z"/>
					<path class="st0" d="M134.9,170.3l0.5-0.2c0.1,0,0.3,0,0.3,0.1s0,0.3-0.1,0.3l0,0l-0.5,0.2c-0.1,0-0.3,0-0.3-0.1
						C134.7,170.5,134.7,170.3,134.9,170.3z"/>
					<path class="st0" d="M138.2,169.1l0.5-0.2c0.1,0,0.3,0,0.3,0.1s0,0.3-0.1,0.3l0,0l-0.5,0.2c-0.1,0-0.3,0-0.3-0.1
						C138,169.3,138,169.1,138.2,169.1z"/>
					<path class="st0" d="M141.5,167.9l0.5-0.2c0.1,0,0.3,0,0.3,0.1s0,0.3-0.1,0.3l0,0l-0.5,0.2c-0.1,0-0.3,0-0.3-0.1
						C141.3,168.1,141.3,167.9,141.5,167.9z"/>
					<path class="st0" d="M144.8,166.7l0.5-0.2c0.1,0,0.3,0,0.3,0.1s0,0.3-0.1,0.3l0,0l-0.5,0.2c-0.1,0-0.3,0-0.3-0.1
						C144.6,166.9,144.6,166.7,144.8,166.7z"/>
					<path class="st0" d="M148.1,165.5l0.5-0.2c0.1,0,0.3,0,0.3,0.1s0,0.3-0.1,0.3l0,0l-0.5,0.2c-0.1,0-0.3,0-0.3-0.1
						C147.9,165.7,147.9,165.5,148.1,165.5z"/>
					<path class="st0" d="M151.3,164.3l0.5-0.2c0.1,0,0.3,0,0.3,0.1s0,0.3-0.1,0.3l0,0l-0.5,0.2c-0.1,0-0.3,0-0.3-0.1
						S151.2,164.3,151.3,164.3z"/>
					<path class="st0" d="M154.6,163.1l0.5-0.2c0.1,0,0.3,0,0.3,0.2c0,0.1,0,0.3-0.2,0.3l0,0l-0.5,0.2c-0.1,0-0.3,0-0.3-0.2
						S154.5,163.1,154.6,163.1z"/>
					<path class="st0" d="M157.9,161.9l0.5-0.2c0.1,0,0.3,0,0.3,0.2c0,0.1,0,0.3-0.2,0.3l0,0l-0.5,0.2c-0.1,0-0.3,0-0.3-0.2
						S157.8,161.9,157.9,161.9z"/>
					<path class="st0" d="M161.2,160.7l0.5-0.2c0.1,0,0.3,0,0.3,0.2c0,0.1,0,0.3-0.2,0.3l0,0l-0.5,0.2c-0.1,0-0.3,0-0.3-0.2
						S161.1,160.7,161.2,160.7z"/>
					<path class="st0" d="M164.5,159.4l0.5-0.2c0.1,0,0.3,0,0.3,0.2c0,0.1,0,0.3-0.2,0.3l0,0l-0.5,0.2c-0.1,0-0.3,0-0.3-0.2
						C164.3,159.6,164.4,159.5,164.5,159.4z"/>
					<path class="st0" d="M167.8,158.2l0.5-0.2c0.1,0,0.3,0,0.3,0.2s0,0.3-0.2,0.3l0,0l-0.5,0.2c-0.1,0-0.3,0-0.3-0.2
						C167.6,158.4,167.7,158.3,167.8,158.2z"/>
					<path class="st0" d="M171.1,157l0.5-0.2c0.1-0.1,0.3,0,0.3,0.2s0,0.3-0.2,0.3l0,0l-0.5,0.2c-0.1,0.1-0.3,0-0.3-0.2
						C170.9,157.2,171,157.1,171.1,157z"/>
					<path class="st0" d="M174.4,155.8l0.5-0.2c0.1-0.1,0.3,0,0.3,0.2c0.1,0.1,0,0.3-0.2,0.3l0,0l-0.5,0.2c-0.1,0.1-0.3,0-0.3-0.2
						C174.2,156,174.3,155.9,174.4,155.8z"/>
					<path class="st0" d="M177.7,154.6l0.5-0.2c0.1-0.1,0.3,0,0.3,0.2s0,0.3-0.2,0.3l0,0l-0.5,0.2c-0.1,0.1-0.3,0-0.3-0.2
						C177.5,154.8,177.6,154.7,177.7,154.6z"/>
					<path class="st0" d="M181,153.4l0.5-0.2c0.1-0.1,0.3,0,0.4,0.2s0,0.3-0.2,0.4l0,0l-0.5,0.2c-0.1,0.1-0.3,0-0.4-0.2
						C180.8,153.6,180.9,153.5,181,153.4z"/>
					<path class="st0" d="M184.3,152.2l0.5-0.2c0.1-0.1,0.3,0,0.4,0.2c0.1,0.1,0,0.3-0.2,0.4l0,0l-0.5,0.2c-0.1,0.1-0.3,0-0.4-0.2
						C184.1,152.4,184.2,152.3,184.3,152.2z"/>
					<path class="st0" d="M187.6,151l0.5-0.2c0.1-0.1,0.3,0,0.4,0.2s0,0.3-0.2,0.4l0,0l-0.5,0.2c-0.1,0.1-0.3,0-0.4-0.2
						C187.4,151.2,187.5,151.1,187.6,151z"/>
					<path class="st0" d="M190.9,149.8l0.5-0.2c0.1-0.1,0.3,0,0.4,0.2s0,0.3-0.2,0.4l0,0l-0.5,0.2c-0.1,0.1-0.3,0-0.4-0.2
						C190.7,150,190.8,149.9,190.9,149.8z"/>
					<path class="st0" d="M194.2,148.6l0.5-0.2c0.1-0.1,0.3,0,0.4,0.2c0.1,0.1,0,0.3-0.2,0.4l0,0l-0.5,0.2c-0.1,0.1-0.3,0-0.4-0.2
						S194.1,148.7,194.2,148.6z"/>
					<path class="st0" d="M197.5,147.4l0.5-0.2c0.1-0.1,0.3,0,0.4,0.2s0,0.3-0.2,0.4l0,0l-0.5,0.2c-0.1,0.1-0.3,0-0.4-0.2
						C197.3,147.6,197.3,147.5,197.5,147.4z"/>
					<path class="st0" d="M200.8,146.2l0.5-0.2c0.2-0.1,0.3,0,0.4,0.2c0.1,0.2,0,0.3-0.2,0.4l0,0l-0.5,0.2c-0.2,0.1-0.3,0-0.4-0.2
						C200.6,146.4,200.6,146.3,200.8,146.2z"/>
					<path class="st0" d="M204.1,145l0.5-0.2c0.2-0.1,0.3,0,0.4,0.2c0.1,0.2,0,0.3-0.2,0.4l0,0l-0.5,0.2c-0.2,0.1-0.3,0-0.4-0.2
						C203.9,145.2,203.9,145.1,204.1,145z"/>
					<path class="st0" d="M207.4,143.8l0.5-0.2c0.2-0.1,0.3,0,0.4,0.2s0,0.3-0.2,0.4l0,0l-0.5,0.2c-0.2,0.1-0.3,0-0.4-0.2
						C207.2,144,207.2,143.9,207.4,143.8z"/>
					<path class="st0" d="M210.7,142.6l0.5-0.2c0.2-0.1,0.3,0,0.4,0.2s0,0.3-0.2,0.4l0,0l-0.5,0.2c-0.2,0.1-0.3,0-0.4-0.2
						C210.4,142.8,210.5,142.7,210.7,142.6z"/>
					<path class="st0" d="M214,141.4l0.5-0.2c0.2-0.1,0.3,0,0.4,0.2c0.1,0.2,0,0.3-0.2,0.4l0,0l-0.5,0.2c-0.2,0.1-0.3,0-0.4-0.2
						C213.7,141.6,213.8,141.5,214,141.4z"/>
					<path class="st0" d="M217.3,140.2l0.5-0.2c0.2-0.1,0.3,0,0.4,0.2s0,0.3-0.2,0.4l0,0l-0.5,0.2c-0.2,0.1-0.3,0-0.4-0.2
						C217,140.4,217.1,140.3,217.3,140.2z"/>
					<path class="st0" d="M220.6,139l0.5-0.2c0.2-0.1,0.3,0,0.4,0.2c0.1,0.2,0,0.3-0.2,0.4l0,0l-0.5,0.2c-0.2,0.1-0.3,0-0.4-0.2
						C220.3,139.2,220.4,139.1,220.6,139z"/>
					<path class="st0" d="M223.9,137.8l0.5-0.2c0.2-0.1,0.3,0,0.4,0.2s0,0.3-0.2,0.4l0,0l-0.5,0.2c-0.2,0.1-0.3,0-0.4-0.2
						S223.7,137.9,223.9,137.8z"/>
					<path class="st0" d="M227.2,136.6l0.5-0.2c0.2-0.1,0.3,0,0.4,0.2c0.1,0.2,0,0.3-0.2,0.4l0,0l-0.5,0.2c-0.2,0.1-0.3,0-0.4-0.2
						S227,136.7,227.2,136.6z"/>
					<path class="st0" d="M230.5,135.4l0.5-0.2c0.2-0.1,0.3,0,0.4,0.2c0.1,0.2,0,0.3-0.2,0.4l0,0l-0.5,0.2c-0.2,0.1-0.3,0-0.4-0.2
						C230.2,135.6,230.3,135.5,230.5,135.4z"/>
					<path class="st0" d="M233.8,134.2l0.5-0.2c0.2-0.1,0.3,0,0.4,0.2s0,0.3-0.2,0.4l0,0l-0.5,0.2c-0.2,0.1-0.3,0-0.4-0.2
						C233.5,134.4,233.6,134.3,233.8,134.2z"/>
					<path class="st0" d="M237,133l0.5-0.2c0.2-0.1,0.4,0,0.4,0.2c0.1,0.2,0,0.4-0.2,0.4l0,0l-0.5,0.2c-0.2,0.1-0.4,0-0.4-0.2
						S236.9,133.1,237,133z"/>
					<path class="st0" d="M240.3,131.8l0.5-0.2c0.2-0.1,0.4,0,0.4,0.2c0.1,0.2,0,0.4-0.2,0.4l0,0l-0.5,0.2c-0.2,0.1-0.4,0-0.4-0.2
						S240.2,131.8,240.3,131.8z"/>
					<path class="st0" d="M243.6,130.6l0.5-0.2c0.2-0.1,0.4,0,0.4,0.2c0.1,0.2,0,0.4-0.2,0.4l0,0l-0.5,0.2c-0.2,0.1-0.4,0-0.4-0.2
						C243.4,130.8,243.5,130.6,243.6,130.6z"/>
					<path class="st0" d="M246.9,129.4l0.5-0.2c0.2-0.1,0.4,0,0.4,0.2c0.1,0.2,0,0.4-0.2,0.4l0,0l-0.5,0.2c-0.2,0.1-0.4,0-0.4-0.2
						S246.8,129.4,246.9,129.4z"/>
					<path class="st0" d="M250.2,128.2l0.5-0.2c0.2-0.1,0.4,0,0.4,0.2c0.1,0.2,0,0.4-0.2,0.4l0,0l-0.5,0.2c-0.2,0.1-0.4,0-0.4-0.2
						S250.1,128.2,250.2,128.2z"/>
					<path class="st0" d="M253.5,127l0.5-0.2c0.2-0.1,0.4,0,0.4,0.2s0,0.4-0.2,0.4l0,0l-0.5,0.2c-0.2,0.1-0.4,0-0.4-0.2
						C253.3,127.2,253.4,127,253.5,127z"/>
					<path class="st0" d="M256.8,125.8l0.5-0.2c0.2-0.1,0.4,0,0.4,0.2c0.1,0.2,0,0.4-0.2,0.4l0,0l-0.5,0.2c-0.2,0.1-0.4,0-0.4-0.2
						C256.6,126,256.7,125.8,256.8,125.8z"/>
					<path class="st0" d="M260.1,124.6l0.5-0.2c0.2-0.1,0.4,0,0.4,0.2c0.1,0.2,0,0.4-0.2,0.4l0,0l-0.5,0.2c-0.2,0.1-0.4,0-0.4-0.2
						S259.9,124.6,260.1,124.6z"/>
					<path class="st0" d="M263.4,123.4l0.5-0.2c0.2-0.1,0.4,0,0.4,0.2c0.1,0.2,0,0.4-0.2,0.4l0,0l-0.5,0.2c-0.2,0.1-0.4,0-0.4-0.2
						C263.1,123.6,263.2,123.4,263.4,123.4z"/>
					<path class="st0" d="M266.7,122.2l0.5-0.2c0.2-0.1,0.4,0,0.4,0.2c0.1,0.2,0,0.4-0.2,0.4l0,0l-0.5,0.2c-0.2,0.1-0.4,0-0.4-0.2
						C266.4,122.4,266.5,122.2,266.7,122.2z"/>
					<path class="st0" d="M270,121l0.5-0.2c0.2-0.1,0.4,0,0.4,0.2c0.1,0.2,0,0.4-0.2,0.4l0,0l-0.5,0.2c-0.2,0.1-0.4,0-0.4-0.2
						S269.8,121,270,121z"/>
					<path class="st0" d="M273.3,119.8l0.5-0.2c0.2-0.1,0.4,0,0.5,0.2s0,0.4-0.2,0.5l0,0l-0.5,0.2c-0.2,0.1-0.4,0-0.4-0.2
						C273,120,273.1,119.8,273.3,119.8z"/>
					<path class="st0" d="M276.6,118.6l0.5-0.2c0.2-0.1,0.4,0,0.5,0.2s0,0.4-0.2,0.5l0,0l-0.5,0.2c-0.2,0.1-0.4,0-0.5-0.2
						C276.3,118.8,276.4,118.6,276.6,118.6z"/>
					<path class="st0" d="M279.9,117.4l0.5-0.2c0.2-0.1,0.4,0,0.5,0.2s0,0.4-0.2,0.5l0,0l-0.5,0.2c-0.2,0.1-0.4,0-0.5-0.2
						C279.6,117.6,279.7,117.4,279.9,117.4z"/>
					<path class="st0" d="M283.2,116.2l0.5-0.2c0.2-0.1,0.4,0,0.5,0.2s0,0.4-0.2,0.5l0,0l-0.5,0.2c-0.2,0.1-0.4,0-0.5-0.2
						C282.9,116.4,283,116.2,283.2,116.2z"/>
					<path class="st0" d="M286.5,115l0.5-0.2c0.2-0.1,0.4,0,0.5,0.2s0,0.4-0.2,0.5l0,0l-0.5,0.2c-0.2,0.1-0.4,0-0.5-0.2
						S286.3,115,286.5,115z"/>
					<path class="st0" d="M289.8,113.7l0.5-0.2c0.2-0.1,0.4,0,0.5,0.2s0,0.4-0.2,0.5l0,0l-0.5,0.2c-0.2,0.1-0.4,0-0.5-0.2
						C289.5,114,289.6,113.8,289.8,113.7z"/>
					<path class="st0" d="M293.1,112.5l0.5-0.2c0.2-0.1,0.4,0,0.5,0.2s0,0.4-0.2,0.5l0,0l-0.5,0.2c-0.2,0.1-0.4,0-0.5-0.2
						S292.9,112.6,293.1,112.5z"/>
					<path class="st0" d="M296.4,111.3l0.5-0.2c0.2-0.1,0.4,0,0.5,0.2s0,0.4-0.2,0.5l0,0l-0.5,0.2c-0.2,0.1-0.4,0-0.5-0.2
						C296.1,111.6,296.2,111.4,296.4,111.3z"/>
					<path class="st0" d="M299.7,110.1l0.5-0.2c0.2-0.1,0.4,0,0.5,0.2s0,0.4-0.2,0.5l0,0l-0.5,0.2c-0.2,0.1-0.4,0-0.5-0.2
						S299.5,110.2,299.7,110.1z"/>
					<path class="st0" d="M303,108.9l0.5-0.2c0.2-0.1,0.4,0,0.5,0.2s0,0.4-0.2,0.5l-0.5,0.2c-0.2,0.1-0.4,0-0.5-0.2
						S302.8,109,303,108.9L303,108.9z"/>
					<path class="st0" d="M306.3,107.7l0.5-0.2c0.2-0.1,0.4,0,0.5,0.2s0,0.4-0.2,0.5l-0.5,0.2c-0.2,0.1-0.4,0-0.5-0.2
						C306,108,306.1,107.8,306.3,107.7L306.3,107.7z"/>
					<path class="st0" d="M309.6,106.5l0.5-0.2c0.2-0.1,0.4,0,0.5,0.2s0,0.4-0.2,0.5l-0.5,0.2c-0.2,0.1-0.4,0-0.5-0.2
						S309.4,106.6,309.6,106.5L309.6,106.5z"/>
					<path class="st0" d="M312.9,105.3l0.5-0.2c0.2-0.1,0.4,0,0.5,0.2s0,0.4-0.2,0.5l-0.5,0.2c-0.2,0.1-0.4,0-0.5-0.2
						C312.6,105.6,312.7,105.4,312.9,105.3L312.9,105.3z"/>
					<path class="st0" d="M316.2,104.1l0.5-0.2c0.2-0.1,0.4,0,0.5,0.2s0,0.4-0.2,0.5l-0.5,0.2c-0.2,0.1-0.4,0-0.5-0.2
						S316,104.2,316.2,104.1L316.2,104.1z"/>
					<path class="st0" d="M319.5,103l0.5-0.2c0.2-0.1,0.4,0,0.5,0.2s0,0.4-0.2,0.5l-0.5,0.2c-0.2,0.1-0.4,0-0.5-0.2
						S319.3,103,319.5,103L319.5,103z"/>
					<path class="st0" d="M322.8,101.8l0.5-0.2c0.2-0.1,0.4,0,0.5,0.2s0,0.4-0.2,0.5l-0.5,0.2c-0.2,0.1-0.4,0-0.5-0.2
						S322.6,101.8,322.8,101.8L322.8,101.8z"/>
					<path class="st0" d="M326.1,100.6l0.5-0.2c0.2-0.1,0.4,0,0.5,0.2s0,0.4-0.2,0.5l-0.5,0.2c-0.2,0.1-0.4,0-0.5-0.2
						C325.8,100.8,325.9,100.6,326.1,100.6L326.1,100.6z"/>
					<path class="st0" d="M329.4,99.4l0.5-0.2c0.2-0.1,0.4,0,0.5,0.2s0,0.4-0.2,0.5l-0.5,0.2c-0.2,0.1-0.4,0-0.5-0.2
						C329.1,99.6,329.2,99.4,329.4,99.4L329.4,99.4z"/>
					<path class="st0" d="M332.7,98.2l0.5-0.2c0.2-0.1,0.4,0,0.4,0.2c0.1,0.2,0,0.4-0.2,0.4l-0.5,0.2c-0.2,0.1-0.4,0-0.4-0.2
						C332.4,98.4,332.5,98.2,332.7,98.2L332.7,98.2z"/>
					<path class="st0" d="M336,97l0.5-0.2c0.2-0.1,0.4,0,0.4,0.2c0.1,0.2,0,0.4-0.2,0.4l-0.5,0.2c-0.2,0.1-0.4,0-0.4-0.2
						C335.7,97.2,335.8,97,336,97L336,97z"/>
					<path class="st0" d="M339.3,95.8l0.5-0.2c0.2-0.1,0.4,0,0.4,0.2s0,0.4-0.2,0.4l-0.5,0.2c-0.2,0.1-0.4,0-0.4-0.2
						C339,96,339.1,95.8,339.3,95.8L339.3,95.8z"/>
					<path class="st0" d="M342.6,94.6l0.5-0.2c0.2-0.1,0.4,0,0.4,0.2c0.1,0.2,0,0.4-0.2,0.4l-0.5,0.2c-0.2,0.1-0.4,0-0.4-0.2
						S342.4,94.6,342.6,94.6L342.6,94.6z"/>
					<path class="st0" d="M345.8,93.4l0.5-0.2c0.2-0.1,0.4,0,0.4,0.2c0.1,0.2,0,0.4-0.2,0.4L346,94c-0.2,0.1-0.4,0-0.4-0.2
						S345.7,93.4,345.8,93.4L345.8,93.4z"/>
					<path class="st0" d="M349.1,92.2l0.5-0.2c0.2-0.1,0.4,0,0.4,0.2c0.1,0.2,0,0.4-0.2,0.4l-0.5,0.2c-0.2,0.1-0.4,0-0.4-0.2
						S349,92.2,349.1,92.2L349.1,92.2z"/>
					<path class="st0" d="M352.4,91l0.5-0.2c0.2-0.1,0.4,0,0.4,0.2c0.1,0.2,0,0.4-0.2,0.4l-0.5,0.2c-0.2,0.1-0.4,0-0.4-0.2
						C352.2,91.2,352.3,91,352.4,91L352.4,91z"/>
					<path class="st0" d="M355.7,89.8l0.5-0.2c0.2-0.1,0.4,0,0.4,0.2c0.1,0.2,0,0.4-0.2,0.4l-0.5,0.2c-0.2,0.1-0.4,0-0.4-0.2
						C355.5,90,355.6,89.8,355.7,89.8L355.7,89.8z"/>
					<path class="st0" d="M359,88.6l0.5-0.2c0.2-0.1,0.4,0,0.4,0.2c0.1,0.2,0,0.4-0.2,0.4l-0.5,0.2c-0.2,0.1-0.4,0-0.4-0.2
						S358.9,88.6,359,88.6L359,88.6z"/>
					<path class="st0" d="M362.3,87.4l0.5-0.2c0.2-0.1,0.4,0,0.4,0.2c0.1,0.2,0,0.4-0.2,0.4l-0.5,0.2c-0.2,0.1-0.4,0-0.4-0.2
						C362.1,87.6,362.2,87.4,362.3,87.4L362.3,87.4z"/>
					<path class="st0" d="M365.6,86.2l0.5-0.2c0.2-0.1,0.4,0,0.4,0.2c0.1,0.2,0,0.4-0.2,0.4l-0.5,0.2c-0.2,0.1-0.4,0-0.4-0.2
						S365.5,86.2,365.6,86.2L365.6,86.2z"/>
					<path class="st0" d="M368.9,85l0.5-0.2c0.2-0.1,0.3,0,0.4,0.2s0,0.3-0.2,0.4l-0.5,0.2c-0.2,0.1-0.3,0-0.4-0.2
						C368.7,85.2,368.8,85.1,368.9,85L368.9,85z"/>
					<path class="st0" d="M372.2,83.8l0.5-0.2c0.2-0.1,0.3,0,0.4,0.2s0,0.3-0.2,0.4l-0.5,0.2c-0.2,0.1-0.3,0-0.4-0.2
						C372,84,372.1,83.9,372.2,83.8L372.2,83.8z"/>
					<path class="st0" d="M375.5,82.6l0.5-0.2c0.2-0.1,0.3,0,0.4,0.2s0,0.3-0.2,0.4l-0.5,0.2c-0.2,0.1-0.3,0-0.4-0.2
						C375.3,82.8,375.4,82.7,375.5,82.6L375.5,82.6z"/>
					<path class="st0" d="M378.8,81.4l0.5-0.2c0.2-0.1,0.3,0,0.4,0.2s0,0.3-0.2,0.4L379,82c-0.2,0.1-0.3,0-0.4-0.2
						C378.6,81.6,378.7,81.5,378.8,81.4L378.8,81.4z"/>
					<path class="st0" d="M382.1,80.2l0.5-0.2c0.2-0.1,0.3,0,0.4,0.2s0,0.3-0.2,0.4l-0.5,0.2c-0.2,0.1-0.3,0-0.4-0.2
						C381.9,80.4,382,80.3,382.1,80.2L382.1,80.2z"/>
					<path class="st0" d="M385.4,79l0.5-0.2c0.2-0.1,0.3,0,0.4,0.2s0,0.3-0.2,0.4l-0.5,0.2c-0.2,0.1-0.3,0-0.4-0.2
						C385.2,79.2,385.3,79.1,385.4,79L385.4,79z"/>
					<path class="st0" d="M388.7,77.8l0.5-0.2c0.2-0.1,0.3,0,0.4,0.2s0,0.3-0.2,0.4l-0.5,0.2c-0.2,0.1-0.3,0-0.4-0.2
						S388.6,77.9,388.7,77.8L388.7,77.8z"/>
					<path class="st0" d="M392,76.6l0.5-0.2c0.2-0.1,0.3,0,0.4,0.2s0,0.3-0.2,0.4l-0.5,0.2c-0.2,0.1-0.3,0-0.4-0.2
						C391.8,76.8,391.9,76.7,392,76.6L392,76.6z"/>
					<path class="st0" d="M395.3,75.4l0.5-0.2c0.2-0.1,0.3,0,0.4,0.2s0,0.3-0.2,0.4l-0.5,0.2c-0.2,0.1-0.3,0-0.4-0.2
						C395.1,75.6,395.2,75.5,395.3,75.4L395.3,75.4z"/>
					<path class="st0" d="M398.6,74.2l0.5-0.2c0.2-0.1,0.3,0,0.4,0.2s0,0.3-0.2,0.4l-0.5,0.2c-0.2,0.1-0.3,0-0.4-0.2
						C398.4,74.4,398.5,74.3,398.6,74.2L398.6,74.2z"/>
					<path class="st0" d="M401.9,73l0.5-0.2c0.2-0.1,0.3,0,0.4,0.2s0,0.3-0.2,0.4l-0.5,0.2c-0.2,0.1-0.3,0-0.4-0.2
						C401.7,73.2,401.8,73.1,401.9,73L401.9,73z"/>
					<path class="st0" d="M405.2,71.8l0.5-0.2c0.1-0.1,0.3,0,0.4,0.2c0.1,0.1,0,0.3-0.2,0.4l-0.5,0.2c-0.1,0.1-0.3,0-0.4-0.2
						C405,72,405.1,71.9,405.2,71.8L405.2,71.8z"/>
					<path class="st0" d="M408.5,70.6l0.5-0.2c0.1-0.1,0.3,0,0.4,0.2c0.1,0.1,0,0.3-0.2,0.4l-0.5,0.2c-0.1,0.1-0.3,0-0.4-0.2
						C408.3,70.8,408.4,70.7,408.5,70.6L408.5,70.6z"/>
					<path class="st0" d="M411.8,69.4l0.5-0.2c0.1-0.1,0.3,0,0.4,0.2c0.1,0.1,0,0.3-0.2,0.4L412,70c-0.1,0.1-0.3,0-0.4-0.2
						C411.6,69.6,411.7,69.5,411.8,69.4L411.8,69.4z"/>
					<path class="st0" d="M415.1,68.2l0.5-0.2c0.1-0.1,0.3,0,0.4,0.2c0.1,0.1,0,0.3-0.2,0.4l-0.5,0.2c-0.1,0.1-0.3,0-0.4-0.2
						C414.9,68.4,415,68.3,415.1,68.2L415.1,68.2z"/>
					<path class="st0" d="M418.4,67l0.5-0.2c0.1-0.1,0.3,0,0.4,0.2s0,0.3-0.2,0.4l-0.5,0.2c-0.1,0.1-0.3,0-0.4-0.2
						C418.2,67.2,418.3,67.1,418.4,67L418.4,67z"/>
					<path class="st0" d="M421.7,65.8l0.5-0.2c0.1-0.1,0.3,0,0.4,0.2s0,0.3-0.2,0.4l-0.5,0.2c-0.1,0.1-0.3,0-0.4-0.2
						C421.5,66,421.6,65.9,421.7,65.8L421.7,65.8z"/>
					<path class="st0" d="M425,64.6l0.5-0.2c0.1-0.1,0.3,0,0.3,0.2c0.1,0.1,0,0.3-0.2,0.3l-0.5,0.2c-0.1,0.1-0.3,0-0.3-0.2
						C424.8,64.8,424.9,64.7,425,64.6L425,64.6z"/>
					<path class="st0" d="M428.3,63.4l0.5-0.2c0.1-0.1,0.3,0,0.3,0.2c0.1,0.1,0,0.3-0.2,0.3l-0.5,0.2c-0.1,0.1-0.3,0-0.3-0.2
						C428.1,63.6,428.2,63.5,428.3,63.4L428.3,63.4z"/>
					<path class="st0" d="M431.6,62.2l0.5-0.2c0.1-0.1,0.3,0,0.3,0.2c0.1,0.1,0,0.3-0.2,0.3l-0.5,0.2c-0.1,0.1-0.3,0-0.3-0.2
						C431.4,62.4,431.5,62.3,431.6,62.2L431.6,62.2z"/>
					<path class="st0" d="M434.9,61l0.5-0.2c0.1,0,0.3,0,0.3,0.2c0,0.1,0,0.3-0.2,0.3l-0.5,0.2c-0.1,0-0.3,0-0.3-0.2
						C434.7,61.2,434.8,61.1,434.9,61L434.9,61z"/>
					<path class="st0" d="M438.2,59.8l0.5-0.2c0.1,0,0.3,0,0.3,0.2c0,0.1,0,0.3-0.2,0.3l-0.5,0.2c-0.1,0-0.3,0-0.3-0.2
						C438,60,438.1,59.9,438.2,59.8L438.2,59.8z"/>
					<path class="st0" d="M441.5,58.6l0.5-0.2c0.1,0,0.3,0,0.3,0.2c0,0.1,0,0.3-0.2,0.3l-0.5,0.2c-0.1,0-0.3,0-0.3-0.2
						S441.4,58.7,441.5,58.6L441.5,58.6z"/>
					<path class="st0" d="M444.8,57.4l0.5-0.2c0.1,0,0.3,0,0.3,0.2c0,0.1,0,0.3-0.2,0.3l-0.5,0.2c-0.1,0-0.3,0-0.3-0.2
						C444.6,57.6,444.7,57.5,444.8,57.4L444.8,57.4z"/>
					<path class="st0" d="M448.1,56.3l0.5-0.2c0.1,0,0.3,0,0.3,0.2s0,0.3-0.2,0.3l-0.5,0.2c-0.1,0-0.3,0-0.3-0.2
						C447.9,56.4,448,56.3,448.1,56.3L448.1,56.3z"/>
					<path class="st0" d="M451.4,55.1l0.5-0.2c0.1,0,0.3,0,0.3,0.1s0,0.3-0.1,0.3l-0.5,0.2c-0.1,0-0.3,0-0.3-0.1
						C451.2,55.2,451.3,55.1,451.4,55.1L451.4,55.1z"/>
					<path class="st0" d="M454.7,53.9l0.5-0.2c0.1,0,0.3,0,0.3,0.1s0,0.3-0.1,0.3l-0.5,0.2c-0.1,0-0.3,0-0.3-0.1
						C454.5,54,454.6,53.9,454.7,53.9L454.7,53.9z"/>
					<path class="st0" d="M458,52.7l0.5-0.2c0.1,0,0.3,0,0.3,0.1s0,0.3-0.1,0.3l-0.5,0.2c-0.1,0-0.3,0-0.3-0.1
						C457.8,52.8,457.9,52.7,458,52.7L458,52.7z"/>
					<path class="st0" d="M461.3,51.5l0.5-0.2c0.1,0,0.3,0,0.3,0.1s0,0.3-0.1,0.3l-0.5,0.2c-0.1,0-0.3,0-0.3-0.1
						C461.1,51.6,461.2,51.5,461.3,51.5L461.3,51.5z"/>
					<path class="st0" d="M464.6,50.3l0.5-0.2c0.1,0,0.3,0,0.3,0.1s0,0.3-0.1,0.3l-0.5,0.2c-0.1,0-0.3,0-0.3-0.1
						C464.4,50.4,464.5,50.3,464.6,50.3L464.6,50.3z"/>
					<path class="st0" d="M467.9,49.1l0.5-0.2c0.1,0,0.3,0,0.3,0.1s0,0.3-0.1,0.3l-0.5,0.2c-0.1,0-0.3,0-0.3-0.1
						C467.7,49.2,467.8,49.1,467.9,49.1L467.9,49.1z"/>
					<path class="st0" d="M471.2,47.9l0.5-0.2c0.1,0,0.3,0,0.3,0.1s0,0.3-0.1,0.3l-0.5,0.2c-0.1,0-0.3,0-0.3-0.1
						C471,48,471.1,47.9,471.2,47.9L471.2,47.9z"/>
					<path class="st0" d="M474.5,46.7l0.5-0.2c0.1,0,0.3,0,0.3,0.1s0,0.3-0.1,0.3l-0.5,0.2c-0.1,0-0.3,0-0.3-0.1
						C474.3,46.8,474.4,46.7,474.5,46.7L474.5,46.7z"/>
					<path class="st0" d="M477.8,45.5l0.5-0.2c0.1,0,0.2,0,0.3,0.1s0,0.2-0.1,0.3l-0.5,0.2c-0.1,0-0.2,0-0.3-0.1
						C477.6,45.6,477.7,45.5,477.8,45.5L477.8,45.5z"/>
					<path class="st0" d="M481.1,44.3l0.5-0.2c0.1,0,0.2,0,0.3,0.1s0,0.2-0.1,0.3l-0.5,0.2c-0.1,0-0.2,0-0.3-0.1
						C480.9,44.4,481,44.3,481.1,44.3L481.1,44.3z"/>
					<path class="st0" d="M484.4,43.1l0.5-0.2c0.1,0,0.2,0,0.3,0.1s0,0.2-0.1,0.3l-0.5,0.2c-0.1,0-0.2,0-0.3-0.1
						C484.2,43.2,484.3,43.1,484.4,43.1L484.4,43.1z"/>
					<path class="st0" d="M487.7,41.9l0.5-0.2c0.1,0,0.2,0,0.3,0.1c0,0.1,0,0.2-0.1,0.3l-0.5,0.2c-0.1,0-0.2,0-0.3-0.1
						C487.5,42,487.6,41.9,487.7,41.9L487.7,41.9z"/>
					<path class="st0" d="M491,40.7l0.5-0.2c0.1,0,0.2,0,0.3,0.1c0,0.1,0,0.2-0.1,0.3l-0.5,0.2c-0.1,0-0.2,0-0.3-0.1
						C490.8,40.8,490.9,40.7,491,40.7L491,40.7z"/>
					<path class="st0" d="M494.3,39.5l0.5-0.2c0.1,0,0.2,0,0.3,0.1c0,0.1,0,0.2-0.1,0.3l-0.5,0.2c-0.1,0-0.2,0-0.3-0.1
						S494.2,39.5,494.3,39.5L494.3,39.5z"/>
					<path class="st0" d="M497.6,38.3l0.5-0.2c0.1,0,0.2,0,0.3,0.1s0,0.2-0.1,0.3l-0.5,0.2c-0.1,0-0.2,0-0.3-0.1
						C497.4,38.5,497.5,38.3,497.6,38.3L497.6,38.3z"/>
					<path class="st0" d="M500.9,37.1l0.5-0.2c0.1,0,0.2,0,0.3,0.1c0,0.1,0,0.2-0.1,0.3l-0.5,0.2c-0.1,0-0.2,0-0.3-0.1
						S500.8,37.1,500.9,37.1L500.9,37.1z"/>
					<path class="st0" d="M504.2,35.9l0.5-0.2c0.1,0,0.2,0,0.3,0.1s0,0.2-0.1,0.3l-0.5,0.2c-0.1,0-0.2,0-0.3-0.1
						C504,36.1,504,35.9,504.2,35.9L504.2,35.9z"/>
					<path class="st0" d="M507.5,34.7l0.5-0.2c0.1,0,0.2,0,0.3,0.1c0,0.1,0,0.2-0.1,0.3l-0.5,0.2c-0.1,0-0.2,0-0.3-0.1
						C507.3,34.9,507.3,34.7,507.5,34.7L507.5,34.7z"/>
					<path class="st0" d="M510.8,33.5l0.5-0.2c0.1,0,0.2,0,0.3,0.1c0,0.1,0,0.2-0.1,0.3l-0.5,0.2c-0.1,0-0.2,0-0.3-0.1
						S510.6,33.5,510.8,33.5L510.8,33.5z"/>
					<path class="st0" d="M514.1,32.3l0.5-0.2c0.1,0,0.2,0,0.3,0.1c0,0.1,0,0.2-0.1,0.3l-0.5,0.2c-0.1,0-0.2,0-0.3-0.1
						S513.9,32.3,514.1,32.3L514.1,32.3z"/>
					<path class="st0" d="M517.3,31.1l0.5-0.2c0.1,0,0.2,0,0.2,0.1s0,0.2-0.1,0.2l-0.5,0.2c-0.1,0-0.2,0-0.2-0.1
						C517.2,31.3,517.2,31.1,517.3,31.1L517.3,31.1z"/>
					<path class="st0" d="M520.6,29.9l0.5-0.2c0.1,0,0.2,0,0.2,0.1s0,0.2-0.1,0.2l-0.5,0.2c-0.1,0-0.2,0-0.2-0.1
						C520.5,30.1,520.5,29.9,520.6,29.9L520.6,29.9z"/>
					<path class="st0" d="M523.9,28.7l0.5-0.2c0.1,0,0.2,0,0.2,0.1s0,0.2-0.1,0.2L524,29c-0.1,0-0.2,0-0.2-0.1
						C523.8,28.9,523.8,28.7,523.9,28.7L523.9,28.7z"/>
					<path class="st0" d="M527.2,27.5l0.5-0.2c0.1,0,0.2,0,0.2,0.1s0,0.2-0.1,0.2l-0.5,0.2c-0.1,0-0.2,0-0.2-0.1
						C527.1,27.7,527.1,27.5,527.2,27.5L527.2,27.5z"/>
					<path class="st0" d="M530.5,26.3l0.5-0.2c0.1,0,0.2,0,0.2,0.1s0,0.2-0.1,0.2l-0.5,0.2c-0.1,0-0.2,0-0.2-0.1
						C530.4,26.5,530.5,26.4,530.5,26.3L530.5,26.3z"/>
					<path class="st0" d="M533.8,25.1l0.5-0.2c0.1,0,0.2,0,0.2,0.1s0,0.2-0.1,0.2l-0.5,0.2c-0.1,0-0.2,0-0.2-0.1
						C533.7,25.3,533.8,25.2,533.8,25.1L533.8,25.1z"/>
					<path class="st0" d="M537.1,23.9l0.5-0.2c0.1,0,0.2,0,0.2,0.1s0,0.2-0.1,0.2l-0.5,0.2c-0.1,0-0.2,0-0.2-0.1
						C537,24.1,537.1,24,537.1,23.9L537.1,23.9z"/>
					<path class="st0" d="M540.4,22.7l0.5-0.2c0.1,0,0.2,0,0.2,0.1s0,0.2-0.1,0.2l-0.5,0.2c-0.1,0-0.2,0-0.2-0.1
						C540.3,22.9,540.4,22.8,540.4,22.7L540.4,22.7z"/>
					<path class="st0" d="M543.7,21.6l0.5-0.2c0.1,0,0.2,0,0.2,0.1s0,0.2-0.1,0.2l-0.5,0.2c-0.1,0-0.2,0-0.2-0.1
						C543.6,21.7,543.7,21.6,543.7,21.6L543.7,21.6z"/>
					<path class="st0" d="M547,20.4l0.5-0.2c0.1,0,0.1,0,0.2,0.1c0,0.1,0,0.1-0.1,0.2l-0.5,0.2c-0.1,0-0.1,0-0.2-0.1
						C546.9,20.5,547,20.4,547,20.4L547,20.4z"/>
					<path class="st0" d="M550.3,19.2l0.5-0.2c0.1,0,0.1,0,0.2,0.1s0,0.1-0.1,0.2l-0.5,0.2c-0.1,0-0.1,0-0.2-0.1
						C550.2,19.3,550.3,19.2,550.3,19.2L550.3,19.2z"/>
					<path class="st0" d="M553.6,18l0.5-0.2c0.1,0,0.1,0,0.2,0.1c0,0.1,0,0.1-0.1,0.2l-0.5,0.2c-0.1,0-0.1,0-0.2-0.1
						C553.5,18.1,553.6,18,553.6,18L553.6,18z"/>
					<path class="st0" d="M556.9,16.8l0.5-0.2c0.1,0,0.1,0,0.1,0.1s0,0.1-0.1,0.1L557,17c-0.1,0-0.1,0-0.1-0.1V16.8L556.9,16.8z"/>
					<path class="st0" d="M560.2,15.6l0.5-0.2c0.1,0,0.1,0,0.1,0.1s0,0.1-0.1,0.1l-0.5,0.2c-0.1,0-0.1,0-0.1-0.1
						C560.2,15.7,560.2,15.6,560.2,15.6L560.2,15.6z"/>
					<path class="st0" d="M563.5,14.4l0.5-0.2c0,0,0.1,0,0.1,0.1c0,0,0,0.1-0.1,0.1l-0.5,0.2c-0.1,0-0.1,0-0.1-0.1
						C563.5,14.5,563.5,14.4,563.5,14.4L563.5,14.4z"/>
					<path class="st0" d="M566.8,13.2l0.5-0.2c0,0,0.1,0,0.1,0.1c0,0,0,0.1-0.1,0.1l-0.5,0.2c0,0-0.1,0-0.1-0.1
						C566.8,13.3,566.8,13.2,566.8,13.2L566.8,13.2z"/>
					<path class="st0" d="M570.1,12l0.5-0.2h0.1v0.1l-0.5,0.2h-0.1V12L570.1,12z"/>
					<path class="st0" d="M573.4,10.8l0.5-0.2h0.1v0.1l-0.5,0.2C573.5,11,573.4,10.9,573.4,10.8C573.4,10.9,573.4,10.8,573.4,10.8
						L573.4,10.8z"/>
					<path class="st0" d="M576.7,9.6l0.5-0.2h0.1v0.1l-0.5,0.2C576.8,9.8,576.7,9.7,576.7,9.6C576.7,9.7,576.7,9.6,576.7,9.6
						L576.7,9.6z"/>
					<path class="st0" d="M580,8.4l0.5-0.2h0.1v0.1l-0.5,0.2C580.1,8.6,580,8.5,580,8.4C580,8.5,580,8.4,580,8.4L580,8.4z"/>
					<path class="st0" d="M583.3,7.2l0.5-0.2h0.1v0.1L583.3,7.2C583.4,7.3,583.3,7.3,583.3,7.2C583.3,7.3,583.3,7.2,583.3,7.2
						L583.3,7.2z"/>
					<path class="st0" d="M586.6,6l0.5-0.2c0,0,0,0,0.1,0c0,0,0,0,0,0.1L586.6,6C586.6,6.1,586.6,6.1,586.6,6
						C586.6,6.1,586.6,6.1,586.6,6L586.6,6z"/>
					<path class="st0" d="M589.9,4.9l0.5-0.2l0,0l0,0L589.9,4.9L589.9,4.9L589.9,4.9L589.9,4.9z"/>
					<path class="st0" d="M593.2,3.7l0.5-0.2l0,0l0,0L593.2,3.7L593.2,3.7L593.2,3.7L593.2,3.7z"/>
					<path class="st0" d="M596.5,2.5l0.5-0.2l0,0l0,0L596.5,2.5L596.5,2.5L596.5,2.5L596.5,2.5z"/>
					<path class="st0" d="M599.8,1.3l0.5-0.2l0,0l0,0L599.8,1.3L599.8,1.3L599.8,1.3z"/>
					<path class="st0" d="M603.1,0.1l0.3-0.1L603.1,0.1z"/>
				</g>
			</g>
		</g>
	</g>
	<g>
		<g id="circle_1_">
			<ellipse class="st0" cx="300.5" cy="108.8" rx="36" ry="36"/>
		</g>
		<g id="vector_1_">
			<path class="st1" d="M312.2,101.4v7.3c0,0.3-0.1,0.5-0.2,0.7c-2.1,4.8-5.8,8.8-10.5,11.3l-0.1,0.1c-0.3,0.1-0.5,0.2-0.8,0.2h-0.1
				c-0.3,0-0.6-0.1-0.8-0.2l-0.1-0.1c-4.7-2.5-8.4-6.5-10.5-11.3c-0.1-0.2-0.2-0.5-0.2-0.7v-7.3c1.9-0.5,3.8-1.3,5.4-2.3
				c2.6-1.7,4.7-4,6.2-6.8c1.5,2.7,3.6,5,6.2,6.8C308.4,100.1,310.2,100.9,312.2,101.4z"/>
			<path class="st2" d="M308.3,125.8l-2.5-1.3v-6.7c2.7-2.3,4.9-5.2,6.3-8.4c0.1-0.2,0.2-0.5,0.2-0.7v-7.3c-1.9-0.5-3.8-1.3-5.4-2.3
				c-2.6-1.7-4.7-4-6.2-6.8c-1.5,2.7-3.6,5-6.2,6.8c-1.7,1.1-3.5,1.9-5.4,2.3v7.3c0,0.3,0.1,0.5,0.2,0.7c1.4,3.3,3.6,6.1,6.3,8.4
				v6.7l-2.6,1.3c-0.4,0.2-0.9,0.4-1.4,0.6c-0.4-0.5-0.8-1-1.2-1.5c-2.4-3.1-3.9-6.7-5.1-10.4c-1.7-5.4-2.6-11.2-1.5-16.8
				c0.8-3.8,2.5-7.6,5.4-10.1c1.7-1.4,3.6-2.5,5.7-3.1c3.9-1.2,8-1.2,11.8,0c2.1,0.6,4.1,1.7,5.7,3.1c2.9,2.5,4.6,6.3,5.4,10.1
				c1.1,5.6,0.2,11.3-1.5,16.8c-1.2,3.7-2.7,7.4-5.1,10.4c-0.4,0.5-0.8,1-1.2,1.5C309.2,126.3,308.7,126.1,308.3,125.8z"/>
			<path class="st3" d="M295.3,125.5c0,2.9,2.3,5.2,5.2,5.2c2.9,0,5.2-2.3,5.2-5.2l0,0v-1l1.4,0.7v0.2c0,3.7-3,6.7-6.7,6.7
				s-6.7-3-6.7-6.7v-0.3l1.4-0.7L295.3,125.5z"/>
			<path class="st4" d="M323.7,132.1c0-0.7-0.4-1.4-1.1-1.6l-1.4-0.6c-0.4-0.2-0.7-0.3-1.1-0.4l-5.5-1.4c-0.5-0.1-0.9-0.3-1.4-0.4
				l-2.6-0.9c-0.8-0.3-1.5-0.6-2.3-0.9l-1.1-0.5v0.2c0,3.7-3,6.7-6.7,6.7s-6.7-3-6.7-6.7l0,0c0-0.1,0-0.2,0-0.3l-1.2,0.6
				c-0.7,0.4-1.5,0.7-2.3,0.9l-2.6,0.9c-0.5,0.1-0.9,0.3-1.4,0.4l-5.5,1.4c-0.4,0.1-0.8,0.2-1.1,0.4l-1.4,0.6
				c-0.7,0.3-1.1,0.9-1.1,1.6v4.1c13.4,11.4,33.1,11.4,46.5,0.1L323.7,132.1z"/>
			<path class="st5" d="M305.7,124.6v-6.7c-1.3,1.1-2.7,2.1-4.2,2.9l-0.1,0.1c-0.3,0.1-0.5,0.2-0.8,0.2h-0.1c-0.3,0-0.6-0.1-0.8-0.2
				l-0.1-0.1c-1.5-0.8-2.9-1.8-4.2-2.9v7.7c0,2.9,2.3,5.2,5.2,5.2c2.9,0,5.2-2.3,5.2-5.2l0,0v-1H305.7z"/>
		</g>
		<g id="mouth_1_">
			<line class="st6" x1="298.1" y1="113.6" x2="302.9" y2="113.6"/>
		</g>
	</g>
</g>
<text transform="matrix(1 0 0 1 292.0389 64.4131)" class="st7 st8">SEE</text>
<text transform="matrix(1 0 0 1 278.5141 161.7091)" class="st7 st8">SAY &amp; DO</text>
<text transform="matrix(1 0 0 1 227.1613 109.8057)" class="st7 st8">THINK</text>
<text transform="matrix(1 0 0 1 128.6293 232.4819)" class="st7 st8">PAINS</text>
<text transform="matrix(1 0 0 1 454.5384 228.0224)" class="st7 st8">GAINS</text>
<text transform="matrix(1 0 0 1 340.4328 108.538)" class="st7 st8">HEAR</text>
<rect x="228.9" y="24.1" class="st9" width="143.2" height="39.9"/>
<text transform="matrix(1 0 0 1 228.877 29.8275)" class="st10 st11">I will research various recipes</text>
<text transform="matrix(1 0 0 1 228.877 39.4275)" class="st10 st11">I will read reviews before making a decision</text>
<text transform="matrix(1 0 0 1 228.877 49.0275)" class="st10 st11">I will watch various videos of cooking show</text>
<rect x="69.6" y="85.9" class="st9" width="159.6" height="39.9"/>
<text transform="matrix(1 0 0 1 69.6459 91.6307)" class="st10 st11">What kind of recipe cuisine</text>
<text transform="matrix(1 0 0 1 69.6459 101.2307)" class="st10 st11">Which ingredients are been used</text>
<text transform="matrix(1 0 0 1 69.6459 110.8307)" class="st10 st11">Where can I buy the ingredients</text>
<text transform="matrix(1 0 0 1 69.6459 120.4307)" class="st10 st11">Which type of food do I really want to cook</text>
<rect x="391.1" y="85.9" class="st9" width="159.6" height="39.9"/>
<text transform="matrix(1 0 0 1 391.073 91.6307)" class="st10 st11">Do you like eggplant? </text>
<text transform="matrix(1 0 0 1 391.073 101.2307)" class="st10 st11">Are you vegetarian?</text>
<text transform="matrix(1 0 0 1 391.073 110.8307)" class="st10 st11">How long it takes to prepare dinner for six?</text>
<rect x="203.3" y="171.6" class="st9" width="194.3" height="41.1"/>
<text transform="matrix(1 0 0 1 203.3264 177.3447)" class="st10 st11">I will select some recipes</text>
<text transform="matrix(1 0 0 1 203.3264 186.9447)" class="st10 st11">I will ask my family and friend what kind of meal do they like</text>
<text transform="matrix(1 0 0 1 203.3264 196.5447)" class="st10 st11">I want to plan a meal on the weekend with my family </text>
<text transform="matrix(1 0 0 1 43.1998 253.4206)" class="st10 st11">I sometimes do not remember the exact ingredients in our inventory</text>
<text transform="matrix(1 0 0 1 43.1998 263.0206)" class="st10 st11">When I am doing grocery shopping, I am not sure what ingredients I should buy. </text>
<text transform="matrix(1 0 0 1 43.1998 272.6206)" class="st10 st11">all kinds of meals already cooked over and over again  </text>
<text transform="matrix(1 0 0 1 387.2998 253.4206)" class="st10 st11">Write down the shopping list </text>
<text transform="matrix(1 0 0 1 387.2998 263.0206)" class="st10 st11">choose recipes before doing the shopping  </text>
</svg>
