<?xml version="1.0" encoding="utf-8"?>
<!-- Generator: Adobe Illustrator 25.2.1, SVG Export Plug-In . SVG Version: 6.00 Build 0)  -->
<svg version="1.1" id="Layer_1" xmlns="http://www.w3.org/2000/svg" xmlns:xlink="http://www.w3.org/1999/xlink" x="0px" y="0px"
	 viewBox="0 0 603.4 288" style="enable-background:new 0 0 603.4 288;" xml:space="preserve">
<style type="text/css">
	.st0{fill:#FFBF00;}
	.st1{fill:#E5E5E5;}
	.st2{fill:#FFE1AB;}
	.st3{fill:#424242;}
	.st4{fill:#EDD1BC;}
	.st5{fill:#544A45;}
	.st6{fill:#FFFFFF;}
	.st7{fill:#D89B12;}
	.st8{fill:none;stroke:#494949;stroke-miterlimit:10;}
	.st9{font-family:'Lato-Regular';}
	.st10{font-size:10px;}
	.st11{fill:none;}
	.st12{font-family:'Lato-Hairline';}
	.st13{font-size:8px;}
</style>
<g>
	<g>
		<g>
			<g>
				<polygon class="st0" points="603.4,219.5 603.1,219.4 603.1,219.4 				"/>
				<path class="st0" d="M600.3,218.4l-0.5-0.2l0,0l0,0l0,0L600.3,218.4L600.3,218.4L600.3,218.4z"/>
				<path class="st0" d="M597,217.2l-0.5-0.2l0,0l0,0l0,0L597,217.2L597,217.2L597,217.2z"/>
				<path class="st0" d="M593.7,216l-0.5-0.2l0,0l0,0l0,0L593.7,216L593.7,216L593.7,216z"/>
				<path class="st0" d="M590.4,214.8l-0.5-0.2l0,0l0,0l0,0L590.4,214.8C590.5,214.8,590.5,214.8,590.4,214.8L590.4,214.8z"/>
				<path class="st0" d="M587.1,213.6l-0.5-0.2c0,0,0,0,0-0.1c0,0,0,0,0.1,0l0,0L587.1,213.6C587.2,213.6,587.2,213.6,587.1,213.6
					C587.2,213.6,587.1,213.6,587.1,213.6z"/>
				<path class="st0" d="M583.8,212.4l-0.5-0.2c0,0,0,0,0-0.1s0,0,0.1,0l0,0L583.8,212.4C583.9,212.4,583.9,212.4,583.8,212.4
					C583.9,212.4,583.8,212.5,583.8,212.4z"/>
				<path class="st0" d="M580.5,211.2L580,211c0,0,0,0,0-0.1c0,0,0,0,0.1,0l0,0l0.5,0.2C580.6,211.2,580.6,211.2,580.5,211.2
					C580.6,211.2,580.5,211.3,580.5,211.2z"/>
				<path class="st0" d="M577.2,210.1l-0.5-0.2c0,0-0.1,0,0-0.1s0-0.1,0.1,0l0,0l0.5,0.2C577.3,209.9,577.3,210,577.2,210.1
					C577.3,210.1,577.2,210.1,577.2,210.1z"/>
				<path class="st0" d="M573.9,208.9l-0.5-0.2c0,0-0.1-0.1,0-0.1c0,0,0.1-0.1,0.1,0l0,0l0.5,0.2C574,208.7,574,208.8,573.9,208.9
					C574,208.9,574,208.9,573.9,208.9z"/>
				<path class="st0" d="M570.6,207.7l-0.5-0.2c0,0-0.1-0.1,0-0.1s0.1-0.1,0.1,0l0,0l0.5,0.2C570.7,207.6,570.8,207.7,570.6,207.7
					C570.7,207.7,570.7,207.7,570.6,207.7z"/>
				<path class="st0" d="M567.3,206.5l-0.5-0.2l-0.1-0.1l0.1-0.1l0,0l0.5,0.2l0.1,0.1C567.4,206.5,567.4,206.5,567.3,206.5z"/>
				<path class="st0" d="M564,205.3l-0.5-0.2l-0.1-0.1l0.1-0.1l0,0l0.5,0.2l0.1,0.1C564.1,205.2,564.1,205.3,564,205.3z"/>
				<path class="st0" d="M560.7,204.1l-0.5-0.2c-0.1,0-0.1-0.1-0.1-0.1c0-0.1,0.1-0.1,0.1-0.1l0,0l0.5,0.2c0.1,0,0.1,0.1,0.1,0.1
					S560.8,204.1,560.7,204.1z"/>
				<path class="st0" d="M557.4,202.9l-0.5-0.2c-0.1,0-0.1-0.1-0.1-0.1l0.1-0.1l0,0l0.5,0.2c0.1,0,0.1,0.1,0.1,0.1
					S557.5,202.9,557.4,202.9z"/>
				<path class="st0" d="M554.1,201.7l-0.5-0.2c-0.1,0-0.1-0.1-0.1-0.2c0-0.1,0.1-0.1,0.2-0.1l0,0l0.5,0.2c0.1,0,0.1,0.1,0.1,0.2
					C554.2,201.7,554.2,201.7,554.1,201.7z"/>
				<path class="st0" d="M550.8,200.5l-0.5-0.2c-0.1,0-0.1-0.1-0.1-0.2c0-0.1,0.1-0.1,0.2-0.1l0,0l0.5,0.2c0.1,0,0.1,0.1,0.1,0.2
					C551,200.5,550.9,200.5,550.8,200.5z"/>
				<path class="st0" d="M547.5,199.3l-0.5-0.2c-0.1,0-0.1-0.1-0.1-0.2c0-0.1,0.1-0.1,0.2-0.1l0,0l0.5,0.2c0.1,0,0.1,0.1,0.1,0.2
					S547.6,199.3,547.5,199.3z"/>
				<path class="st0" d="M544.2,198.1l-0.5-0.2c-0.1,0-0.1-0.1-0.1-0.2c0-0.1,0.1-0.1,0.2-0.1l0,0l0.5,0.2c0.1,0,0.1,0.1,0.1,0.2
					C544.4,198.1,544.3,198.2,544.2,198.1z"/>
				<path class="st0" d="M540.9,196.9l-0.5-0.2c-0.1,0-0.1-0.1-0.1-0.2c0-0.1,0.1-0.1,0.2-0.1l0,0l0.5,0.2c0.1,0,0.1,0.1,0.1,0.2
					C541.1,196.9,541,197,540.9,196.9z"/>
				<path class="st0" d="M537.6,195.7l-0.5-0.2c-0.1,0-0.1-0.1-0.1-0.2c0-0.1,0.1-0.1,0.2-0.1l0,0l0.5,0.2c0.1,0,0.1,0.1,0.1,0.2
					C537.8,195.7,537.7,195.8,537.6,195.7z"/>
				<path class="st0" d="M534.3,194.6l-0.5-0.2c-0.1,0-0.1-0.1-0.1-0.2c0-0.1,0.1-0.1,0.2-0.1l0,0l0.5,0.2c0.1,0,0.1,0.1,0.1,0.2
					C534.5,194.5,534.4,194.6,534.3,194.6z"/>
				<path class="st0" d="M531,193.4l-0.5-0.2c-0.1,0-0.1-0.1-0.1-0.2s0.1-0.1,0.2-0.1l0,0l0.5,0.2c0.1,0,0.1,0.1,0.1,0.2
					C531.2,193.3,531.1,193.4,531,193.4z"/>
				<path class="st0" d="M527.7,192.2l-0.5-0.2c-0.1,0-0.1-0.1-0.1-0.2c0-0.1,0.1-0.1,0.2-0.1l0,0l0.5,0.2c0.1,0,0.1,0.1,0.1,0.2
					C527.9,192.2,527.8,192.2,527.7,192.2z"/>
				<path class="st0" d="M524.4,191l-0.5-0.2c-0.1,0-0.1-0.1-0.1-0.2c0-0.1,0.1-0.1,0.2-0.1l0,0l0.5,0.2c0.1,0,0.1,0.1,0.1,0.2
					S524.5,191,524.4,191z"/>
				<path class="st0" d="M521.1,189.8l-0.5-0.2c-0.1,0-0.2-0.1-0.1-0.2c0-0.1,0.1-0.2,0.2-0.1l0,0l0.5,0.2c0.1,0,0.2,0.1,0.1,0.2
					C521.3,189.8,521.2,189.8,521.1,189.8z"/>
				<path class="st0" d="M517.8,188.6l-0.5-0.2c-0.1,0-0.2-0.1-0.1-0.2s0.1-0.2,0.2-0.1l0,0l0.5,0.2c0.1,0,0.2,0.1,0.1,0.2
					S517.9,188.6,517.8,188.6z"/>
				<path class="st0" d="M514.5,187.4l-0.5-0.2c-0.1,0-0.2-0.2-0.1-0.3c0-0.1,0.2-0.2,0.3-0.1l0,0l0.5,0.2c0.1,0,0.2,0.2,0.1,0.3
					S514.6,187.4,514.5,187.4z"/>
				<path class="st0" d="M511.2,186.2l-0.5-0.2c-0.1,0-0.2-0.2-0.1-0.3c0-0.1,0.2-0.2,0.3-0.1l0,0l0.5,0.2c0.1,0,0.2,0.2,0.1,0.3
					S511.3,186.2,511.2,186.2z"/>
				<path class="st0" d="M507.9,185l-0.5-0.2c-0.1,0-0.2-0.2-0.1-0.3c0-0.1,0.2-0.2,0.3-0.1l0,0l0.5,0.2c0.1,0,0.2,0.2,0.1,0.3
					C508.1,185,508,185,507.9,185z"/>
				<path class="st0" d="M504.6,183.8l-0.5-0.2c-0.1,0-0.2-0.2-0.1-0.3c0-0.1,0.2-0.2,0.3-0.1l0,0l0.5,0.2c0.1,0,0.2,0.2,0.1,0.3
					C504.9,183.8,504.7,183.8,504.6,183.8z"/>
				<path class="st0" d="M501.3,182.6l-0.5-0.2c-0.1,0-0.2-0.2-0.1-0.3c0-0.1,0.2-0.2,0.3-0.1l0,0l0.5,0.2c0.1,0,0.2,0.2,0.1,0.3
					C501.6,182.6,501.4,182.6,501.3,182.6z"/>
				<path class="st0" d="M498,181.4l-0.5-0.2c-0.1,0-0.2-0.2-0.1-0.3c0-0.1,0.2-0.2,0.3-0.1l0,0l0.5,0.2c0.1,0,0.2,0.2,0.1,0.3
					C498.3,181.4,498.1,181.4,498,181.4z"/>
				<path class="st0" d="M494.7,180.2l-0.5-0.2c-0.1,0-0.2-0.2-0.1-0.3c0-0.1,0.2-0.2,0.3-0.1l0,0l0.5,0.2c0.1,0,0.2,0.2,0.1,0.3
					S494.8,180.2,494.7,180.2z"/>
				<path class="st0" d="M491.4,179l-0.5-0.2c-0.1,0-0.2-0.2-0.1-0.3c0-0.1,0.2-0.2,0.3-0.1l0,0l0.5,0.2c0.1,0,0.2,0.2,0.1,0.3
					C491.7,179,491.5,179,491.4,179z"/>
				<path class="st0" d="M488.1,177.8l-0.5-0.2c-0.1,0-0.2-0.2-0.1-0.3c0-0.1,0.2-0.2,0.3-0.1l0,0l0.5,0.2c0.1,0,0.2,0.2,0.1,0.3
					C488.4,177.8,488.3,177.8,488.1,177.8z"/>
				<path class="st0" d="M484.8,176.6l-0.5-0.2c-0.1,0-0.2-0.2-0.1-0.3c0-0.1,0.2-0.2,0.3-0.1l0,0l0.5,0.2c0.1,0,0.2,0.2,0.1,0.3
					C485.1,176.6,485,176.6,484.8,176.6z"/>
				<path class="st0" d="M481.5,175.4l-0.5-0.2c-0.1,0-0.2-0.2-0.1-0.3c0-0.1,0.2-0.2,0.3-0.1l0,0l0.5,0.2c0.1,0,0.2,0.2,0.1,0.3
					C481.8,175.4,481.7,175.4,481.5,175.4z"/>
				<path class="st0" d="M478.2,174.2l-0.5-0.2c-0.1,0-0.2-0.2-0.1-0.3c0-0.1,0.2-0.2,0.3-0.1l0,0l0.5,0.2c0.1,0,0.2,0.2,0.1,0.3
					C478.5,174.2,478.4,174.3,478.2,174.2z"/>
				<path class="st0" d="M474.9,173l-0.5-0.2c-0.1,0-0.2-0.2-0.1-0.3s0.2-0.2,0.3-0.1l0,0l0.5,0.2c0.1,0,0.2,0.2,0.1,0.3
					C475.2,173,475.1,173.1,474.9,173z"/>
				<path class="st0" d="M471.6,171.8l-0.5-0.2c-0.1,0-0.2-0.2-0.1-0.3c0-0.1,0.2-0.2,0.3-0.1l0,0l0.5,0.2c0.1,0,0.2,0.2,0.1,0.3
					C471.9,171.8,471.8,171.9,471.6,171.8z"/>
				<path class="st0" d="M468.3,170.6l-0.5-0.2c-0.1,0-0.2-0.2-0.1-0.3c0-0.1,0.2-0.2,0.3-0.1l0,0l0.5,0.2c0.1,0,0.2,0.2,0.1,0.3
					C468.6,170.6,468.5,170.7,468.3,170.6z"/>
				<path class="st0" d="M465.1,169.4l-0.5-0.2c-0.1,0-0.2-0.2-0.1-0.3c0-0.1,0.2-0.2,0.3-0.1l0,0l0.5,0.2c0.1,0,0.2,0.2,0.1,0.3
					S465.2,169.5,465.1,169.4z"/>
				<path class="st0" d="M461.8,168.2l-0.5-0.2c-0.1,0-0.2-0.2-0.1-0.3c0-0.1,0.2-0.2,0.3-0.1l0,0l0.5,0.2c0.1,0,0.2,0.2,0.1,0.3
					S461.9,168.3,461.8,168.2z"/>
				<path class="st0" d="M458.5,167l-0.5-0.1c-0.1,0-0.2-0.2-0.1-0.3c0-0.1,0.2-0.2,0.3-0.1l0,0l0.5,0.2c0.1,0,0.2,0.2,0.1,0.3
					C458.7,167,458.6,167.1,458.5,167z"/>
				<path class="st0" d="M455.2,165.8l-0.5-0.2c-0.1,0-0.2-0.2-0.1-0.3c0-0.1,0.2-0.2,0.3-0.1l0,0l0.5,0.2c0.1,0,0.2,0.2,0.1,0.3
					S455.3,165.9,455.2,165.8z"/>
				<path class="st0" d="M451.9,164.6l-0.5-0.2c-0.1,0-0.2-0.2-0.1-0.3c0-0.1,0.2-0.2,0.3-0.1l0,0l0.5,0.2c0.1,0,0.2,0.2,0.1,0.3
					C452.1,164.6,452,164.7,451.9,164.6z"/>
				<path class="st0" d="M448.6,163.4l-0.5-0.2c-0.1,0-0.2-0.2-0.2-0.3s0.2-0.2,0.3-0.2l0,0l0.5,0.2c0.1,0,0.2,0.2,0.2,0.3
					C448.8,163.4,448.7,163.5,448.6,163.4z"/>
				<path class="st0" d="M445.3,162.2l-0.5-0.2c-0.1,0-0.2-0.2-0.2-0.3s0.2-0.2,0.3-0.2l0,0l0.5,0.2c0.1,0,0.2,0.2,0.2,0.3
					S445.4,162.3,445.3,162.2z"/>
				<path class="st0" d="M442,161l-0.5-0.2c-0.1,0-0.2-0.2-0.2-0.3s0.2-0.2,0.3-0.2l0,0l0.5,0.2c0.1,0,0.2,0.2,0.2,0.3
					C442.2,161,442.1,161.1,442,161z"/>
				<path class="st0" d="M438.7,159.8l-0.5-0.2c-0.1,0-0.2-0.2-0.2-0.3s0.2-0.2,0.3-0.2l0,0l0.5,0.2c0.1,0,0.2,0.2,0.2,0.3
					C439,159.8,438.8,159.9,438.7,159.8z"/>
				<path class="st0" d="M435.4,158.6l-0.5-0.2c-0.1,0-0.2-0.2-0.2-0.3s0.2-0.2,0.3-0.2l0,0l0.5,0.2c0.1,0,0.2,0.2,0.2,0.3
					C435.7,158.6,435.5,158.7,435.4,158.6z"/>
				<path class="st0" d="M432.1,157.4l-0.5-0.2c-0.1-0.1-0.2-0.2-0.2-0.3c0.1-0.1,0.2-0.2,0.3-0.2l0,0l0.5,0.2
					c0.1,0.1,0.2,0.2,0.2,0.3S432.2,157.5,432.1,157.4z"/>
				<path class="st0" d="M428.8,156.2l-0.5-0.2c-0.1-0.1-0.2-0.2-0.2-0.3s0.2-0.2,0.3-0.2l0,0l0.5,0.2c0.1,0.1,0.2,0.2,0.2,0.3
					C429.1,156.2,428.9,156.3,428.8,156.2z"/>
				<path class="st0" d="M425.5,155l-0.5-0.1c-0.1-0.1-0.2-0.2-0.2-0.3c0.1-0.1,0.2-0.2,0.3-0.2l0,0l0.5,0.2
					c0.1,0.1,0.2,0.2,0.2,0.3S425.6,155.1,425.5,155z"/>
				<path class="st0" d="M422.2,153.9l-0.5-0.2c-0.1-0.1-0.2-0.2-0.2-0.4c0.1-0.1,0.2-0.2,0.4-0.2l0,0l0.5,0.2
					c0.1,0.1,0.2,0.2,0.2,0.4C422.5,153.8,422.3,153.9,422.2,153.9z"/>
				<path class="st0" d="M418.9,152.7l-0.5-0.2c-0.1-0.1-0.2-0.2-0.2-0.4c0.1-0.1,0.2-0.2,0.4-0.2l0,0l0.5,0.2
					c0.1,0.1,0.2,0.2,0.2,0.4C419.2,152.6,419,152.7,418.9,152.7z"/>
				<path class="st0" d="M415.6,151.5l-0.5-0.2c-0.1-0.1-0.2-0.2-0.2-0.4s0.2-0.2,0.4-0.2l0,0l0.5,0.2c0.1,0.1,0.2,0.2,0.2,0.4
					C415.9,151.4,415.7,151.5,415.6,151.5z"/>
				<path class="st0" d="M412.3,150.3l-0.5-0.2c-0.1-0.1-0.2-0.2-0.2-0.4c0.1-0.1,0.2-0.2,0.4-0.2l0,0l0.5,0.2
					c0.1,0.1,0.2,0.2,0.2,0.4S412.4,150.3,412.3,150.3z"/>
				<path class="st0" d="M409,149.1l-0.5-0.2c-0.1-0.1-0.2-0.2-0.2-0.4c0.1-0.1,0.2-0.2,0.4-0.2l0,0l0.5,0.2
					c0.1,0.1,0.2,0.2,0.2,0.4C409.3,149,409.1,149.1,409,149.1z"/>
				<path class="st0" d="M405.7,147.9l-0.5-0.2c-0.1-0.1-0.2-0.2-0.2-0.4s0.2-0.2,0.4-0.2l0,0l0.5,0.2c0.1,0.1,0.2,0.2,0.2,0.4
					C406,147.8,405.8,147.9,405.7,147.9z"/>
				<path class="st0" d="M402.4,146.7l-0.5-0.2c-0.2-0.1-0.2-0.2-0.2-0.4c0.1-0.2,0.2-0.2,0.4-0.2l0,0l0.5,0.2
					c0.2,0.1,0.2,0.2,0.2,0.4S402.5,146.7,402.4,146.7z"/>
				<path class="st0" d="M399.1,145.5l-0.5-0.2c-0.2-0.1-0.2-0.2-0.2-0.4c0.1-0.2,0.2-0.2,0.4-0.2l0,0l0.5,0.2
					c0.2,0.1,0.2,0.2,0.2,0.4C399.4,145.4,399.2,145.5,399.1,145.5z"/>
				<path class="st0" d="M395.8,144.3l-0.5-0.2c-0.2-0.1-0.2-0.2-0.2-0.4c0.1-0.2,0.2-0.2,0.4-0.2l0,0l0.5,0.2
					c0.2,0.1,0.2,0.2,0.2,0.4C396.1,144.2,395.9,144.3,395.8,144.3z"/>
				<path class="st0" d="M392.5,143.1l-0.5-0.2c-0.2-0.1-0.2-0.2-0.2-0.4s0.2-0.2,0.4-0.2l0,0l0.5,0.2c0.2,0.1,0.2,0.2,0.2,0.4
					C392.8,143.1,392.6,143.1,392.5,143.1z"/>
				<path class="st0" d="M389.2,141.9l-0.5-0.2c-0.2-0.1-0.2-0.2-0.2-0.4c0.1-0.2,0.2-0.2,0.4-0.2l0,0l0.5,0.2
					c0.2,0.1,0.2,0.2,0.2,0.4C389.5,141.9,389.4,141.9,389.2,141.9z"/>
				<path class="st0" d="M385.9,140.7l-0.5-0.2c-0.2-0.1-0.2-0.2-0.2-0.4c0.1-0.2,0.2-0.2,0.4-0.2l0,0l0.5,0.2
					c0.2,0.1,0.2,0.2,0.2,0.4C386.2,140.7,386.1,140.7,385.9,140.7z"/>
				<path class="st0" d="M382.6,139.5l-0.5-0.2c-0.2-0.1-0.2-0.2-0.2-0.4c0.1-0.2,0.2-0.2,0.4-0.2l0,0l0.5,0.2
					c0.2,0.1,0.2,0.2,0.2,0.4C382.9,139.5,382.8,139.5,382.6,139.5z"/>
				<path class="st0" d="M379.3,138.3l-0.5-0.2c-0.2-0.1-0.2-0.2-0.2-0.4s0.2-0.2,0.4-0.2l0,0l0.5,0.2c0.2,0.1,0.2,0.2,0.2,0.4
					C379.6,138.3,379.5,138.3,379.3,138.3z"/>
				<path class="st0" d="M376,137.1l-0.5-0.2c-0.2-0.1-0.2-0.2-0.2-0.4c0.1-0.2,0.2-0.2,0.4-0.2l0,0l0.5,0.2
					c0.2,0.1,0.2,0.2,0.2,0.4C376.3,137.1,376.2,137.1,376,137.1z"/>
				<path class="st0" d="M372.7,135.9l-0.5-0.2c-0.2-0.1-0.2-0.2-0.2-0.4s0.2-0.2,0.4-0.2l0,0l0.5,0.2c0.2,0.1,0.2,0.2,0.2,0.4
					C373,135.9,372.9,135.9,372.7,135.9z"/>
				<path class="st0" d="M369.4,134.7l-0.5-0.2c-0.2-0.1-0.3-0.2-0.2-0.4c0.1-0.2,0.2-0.3,0.4-0.2l0,0l0.5,0.2
					c0.2,0.1,0.2,0.2,0.2,0.4S369.6,134.8,369.4,134.7z"/>
				<path class="st0" d="M366.1,133.5l-0.5-0.2c-0.2-0.1-0.3-0.2-0.2-0.4c0.1-0.2,0.2-0.3,0.4-0.2l0,0l0.5,0.2
					c0.2,0.1,0.3,0.2,0.2,0.4C366.5,133.5,366.3,133.6,366.1,133.5z"/>
				<path class="st0" d="M362.8,132.3l-0.5-0.2c-0.2-0.1-0.3-0.2-0.2-0.4c0.1-0.2,0.2-0.3,0.4-0.2l0,0l0.5,0.2
					c0.2,0.1,0.3,0.2,0.2,0.4C363.2,132.3,363,132.4,362.8,132.3z"/>
				<path class="st0" d="M359.5,131.1l-0.5-0.2c-0.2-0.1-0.3-0.2-0.2-0.4s0.2-0.3,0.4-0.2l0,0l0.5,0.2c0.2,0.1,0.3,0.2,0.2,0.4
					C359.9,131.1,359.7,131.2,359.5,131.1z"/>
				<path class="st0" d="M356.2,129.9l-0.5-0.2c-0.2-0.1-0.3-0.3-0.2-0.4c0.1-0.2,0.3-0.3,0.4-0.2l0,0l0.5,0.2
					c0.2,0.1,0.3,0.3,0.2,0.4C356.6,129.9,356.4,130,356.2,129.9z"/>
				<path class="st0" d="M352.9,128.7l-0.5-0.2c-0.2-0.1-0.3-0.3-0.2-0.4c0.1-0.2,0.3-0.3,0.4-0.2l0,0l0.5,0.2
					c0.2,0.1,0.3,0.3,0.2,0.4C353.3,128.7,353.1,128.8,352.9,128.7z"/>
				<path class="st0" d="M349.6,127.5l-0.5-0.2c-0.2-0.1-0.3-0.3-0.2-0.4c0.1-0.2,0.3-0.3,0.4-0.2l0,0l0.5,0.2
					c0.2,0.1,0.3,0.3,0.2,0.4C350,127.5,349.8,127.6,349.6,127.5z"/>
				<path class="st0" d="M346.3,126.3l-0.5-0.2c-0.2-0.1-0.3-0.3-0.2-0.4s0.3-0.3,0.4-0.2l0,0l0.5,0.2c0.2,0.1,0.3,0.3,0.2,0.4
					S346.5,126.4,346.3,126.3z"/>
				<path class="st0" d="M343,125.1l-0.5-0.2c-0.2-0.1-0.3-0.3-0.2-0.4c0.1-0.2,0.3-0.3,0.4-0.2l0,0l0.5,0.2
					c0.2,0.1,0.3,0.3,0.2,0.4S343.2,125.2,343,125.1z"/>
				<path class="st0" d="M339.7,123.9l-0.5-0.2c-0.2-0.1-0.3-0.3-0.2-0.4c0.1-0.2,0.3-0.3,0.4-0.2l0,0l0.5,0.2
					c0.2,0.1,0.3,0.3,0.2,0.4S339.9,124,339.7,123.9z"/>
				<path class="st0" d="M336.4,122.7l-0.5-0.2c-0.2-0.1-0.3-0.3-0.2-0.4c0.1-0.2,0.3-0.3,0.4-0.2l0,0l0.5,0.2
					c0.2,0.1,0.3,0.3,0.2,0.4S336.6,122.8,336.4,122.7z"/>
				<path class="st0" d="M333.1,121.5l-0.5-0.2c-0.2-0.1-0.3-0.3-0.2-0.4s0.3-0.3,0.4-0.2l0,0l0.5,0.2c0.2,0.1,0.3,0.3,0.2,0.4
					S333.3,121.6,333.1,121.5z"/>
				<path class="st0" d="M329.8,120.3l-0.5-0.2c-0.2-0.1-0.3-0.3-0.2-0.4c0.1-0.2,0.3-0.3,0.4-0.2l0,0l0.5,0.2
					c0.2,0.1,0.3,0.3,0.2,0.4C330.2,120.3,330,120.4,329.8,120.3z"/>
				<path class="st0" d="M326.5,119.1l-0.5-0.2c-0.2-0.1-0.3-0.3-0.2-0.5c0.1-0.2,0.3-0.3,0.5-0.2l0,0l0.5,0.2
					c0.2,0.1,0.3,0.3,0.2,0.5S326.7,119.2,326.5,119.1z"/>
				<path class="st0" d="M323.2,117.9l-0.5-0.2c-0.2-0.1-0.3-0.3-0.2-0.5s0.3-0.3,0.5-0.2l0,0l0.5,0.2c0.2,0.1,0.3,0.3,0.2,0.5
					S323.4,118,323.2,117.9z"/>
				<path class="st0" d="M319.9,116.7l-0.5-0.2c-0.2-0.1-0.3-0.3-0.2-0.5c0.1-0.2,0.3-0.3,0.5-0.2l0,0l0.5,0.2
					c0.2,0.1,0.3,0.3,0.2,0.5C320.3,116.7,320.1,116.8,319.9,116.7z"/>
				<path class="st0" d="M316.6,115.5l-0.5-0.2c-0.2-0.1-0.3-0.3-0.2-0.5c0.1-0.2,0.3-0.3,0.5-0.2l0,0l0.5,0.2
					c0.2,0.1,0.3,0.3,0.2,0.5C317,115.5,316.8,115.6,316.6,115.5z"/>
				<path class="st0" d="M313.3,114.3l-0.5-0.2c-0.2-0.1-0.3-0.3-0.2-0.5s0.3-0.3,0.5-0.2l0,0l0.5,0.2c0.2,0.1,0.3,0.3,0.2,0.5
					S313.5,114.4,313.3,114.3z"/>
				<path class="st0" d="M310,113.1l-0.5-0.2c-0.2-0.1-0.3-0.3-0.2-0.5s0.3-0.3,0.5-0.2l0,0l0.5,0.2c0.2,0.1,0.3,0.3,0.2,0.5
					C310.4,113.1,310.2,113.2,310,113.1z"/>
				<path class="st0" d="M306.7,111.9l-0.5-0.2c-0.2-0.1-0.3-0.3-0.2-0.5c0.1-0.2,0.3-0.3,0.5-0.2l0,0l0.5,0.2
					c0.2,0.1,0.3,0.3,0.2,0.5C307.1,111.9,306.9,112,306.7,111.9z"/>
				<path class="st0" d="M303.4,110.7l-0.5-0.2c-0.2-0.1-0.3-0.3-0.2-0.5c0.1-0.2,0.3-0.3,0.5-0.2l0,0l0.5,0.2
					c0.2,0.1,0.3,0.3,0.2,0.5C303.9,110.7,303.6,110.8,303.4,110.7z"/>
				<path class="st0" d="M300.1,109.5l-0.5-0.2c-0.2-0.1-0.3-0.3-0.2-0.5c0.1-0.2,0.3-0.3,0.5-0.2l0.5,0.2c0.2,0.1,0.3,0.3,0.2,0.5
					C300.6,109.5,300.3,109.6,300.1,109.5L300.1,109.5z"/>
				<path class="st0" d="M296.9,108.3l-0.5-0.2c-0.2-0.1-0.3-0.3-0.2-0.5c0.1-0.2,0.3-0.3,0.5-0.2l0.5,0.2c0.2,0.1,0.3,0.3,0.2,0.5
					C297.3,108.3,297,108.4,296.9,108.3L296.9,108.3z"/>
				<path class="st0" d="M293.6,107.1l-0.5-0.2c-0.2-0.1-0.3-0.3-0.2-0.5s0.3-0.3,0.5-0.2l0.5,0.2c0.2,0.1,0.3,0.3,0.2,0.5
					C294,107.1,293.7,107.2,293.6,107.1L293.6,107.1z"/>
				<path class="st0" d="M290.3,105.9l-0.5-0.2c-0.2-0.1-0.3-0.3-0.2-0.5s0.3-0.3,0.5-0.2l0.5,0.2c0.2,0.1,0.3,0.3,0.2,0.5
					S290.4,106,290.3,105.9L290.3,105.9z"/>
				<path class="st0" d="M287,104.7l-0.5-0.2c-0.2-0.1-0.3-0.3-0.2-0.5c0.1-0.2,0.3-0.3,0.5-0.2l0.5,0.2c0.2,0.1,0.3,0.3,0.2,0.5
					C287.4,104.7,287.2,104.8,287,104.7L287,104.7z"/>
				<path class="st0" d="M283.7,103.5l-0.5-0.2c-0.2-0.1-0.3-0.3-0.2-0.5c0.1-0.2,0.3-0.3,0.5-0.2l0.5,0.2c0.2,0.1,0.3,0.3,0.2,0.5
					C284.1,103.5,283.9,103.6,283.7,103.5L283.7,103.5z"/>
				<path class="st0" d="M280.4,102.3l-0.5-0.2c-0.2-0.1-0.3-0.3-0.2-0.5c0.1-0.2,0.3-0.3,0.5-0.2l0.5,0.2c0.2,0.1,0.3,0.3,0.2,0.5
					C280.8,102.3,280.6,102.4,280.4,102.3L280.4,102.3z"/>
				<path class="st0" d="M277.1,101.1l-0.5-0.2c-0.2-0.1-0.3-0.3-0.2-0.5c0.1-0.2,0.3-0.3,0.5-0.2l0.5,0.2c0.2,0.1,0.3,0.3,0.2,0.5
					C277.5,101.1,277.3,101.2,277.1,101.1L277.1,101.1z"/>
				<path class="st0" d="M273.8,99.9l-0.5-0.2c-0.2-0.1-0.3-0.3-0.2-0.5c0.1-0.2,0.3-0.3,0.5-0.2l0.5,0.2c0.2,0.1,0.3,0.3,0.2,0.5
					S274,100,273.8,99.9L273.8,99.9z"/>
				<path class="st0" d="M270.5,98.7l-0.5-0.2c-0.2-0.1-0.3-0.3-0.2-0.4c0.1-0.2,0.3-0.3,0.4-0.2l0.5,0.2c0.2,0.1,0.3,0.3,0.2,0.4
					C270.9,98.7,270.7,98.8,270.5,98.7L270.5,98.7z"/>
				<path class="st0" d="M267.2,97.5l-0.5-0.2c-0.2-0.1-0.3-0.3-0.2-0.4s0.3-0.3,0.4-0.2l0.5,0.2c0.2,0.1,0.3,0.3,0.2,0.4
					C267.6,97.5,267.4,97.6,267.2,97.5L267.2,97.5z"/>
				<path class="st0" d="M263.9,96.3l-0.5-0.2c-0.2-0.1-0.3-0.3-0.2-0.4c0.1-0.2,0.3-0.3,0.4-0.2l0.5,0.2c0.2,0.1,0.3,0.3,0.2,0.4
					S264.1,96.4,263.9,96.3L263.9,96.3z"/>
				<path class="st0" d="M260.6,95.1l-0.5-0.2c-0.2-0.1-0.3-0.3-0.2-0.4c0.1-0.2,0.3-0.3,0.4-0.2l0.5,0.2c0.2,0.1,0.3,0.3,0.2,0.4
					C261,95.1,260.8,95.2,260.6,95.1L260.6,95.1z"/>
				<path class="st0" d="M257.3,93.9l-0.5-0.2c-0.2-0.1-0.3-0.3-0.2-0.4c0.1-0.2,0.3-0.3,0.4-0.2l0.5,0.2c0.2,0.1,0.3,0.3,0.2,0.4
					C257.7,93.9,257.5,94,257.3,93.9L257.3,93.9z"/>
				<path class="st0" d="M254,92.7l-0.5-0.2c-0.2-0.1-0.3-0.3-0.2-0.4c0.1-0.2,0.3-0.3,0.4-0.2l0.5,0.2c0.2,0.1,0.3,0.3,0.2,0.4
					S254.2,92.8,254,92.7L254,92.7z"/>
				<path class="st0" d="M250.7,91.5l-0.5-0.2c-0.2-0.1-0.3-0.3-0.2-0.4c0.1-0.2,0.3-0.3,0.4-0.2l0.5,0.2c0.2,0.1,0.3,0.3,0.2,0.4
					C251.1,91.5,250.9,91.6,250.7,91.5L250.7,91.5z"/>
				<path class="st0" d="M247.4,90.3l-0.5-0.2c-0.2-0.1-0.3-0.3-0.2-0.4c0.1-0.2,0.3-0.3,0.4-0.2l0.5,0.2c0.2,0.1,0.3,0.3,0.2,0.4
					C247.8,90.3,247.6,90.4,247.4,90.3L247.4,90.3z"/>
				<path class="st0" d="M244.1,89.1l-0.5-0.2c-0.2-0.1-0.3-0.2-0.2-0.4c0.1-0.2,0.2-0.3,0.4-0.2l0.5,0.2c0.2,0.1,0.3,0.2,0.2,0.4
					C244.5,89.1,244.3,89.2,244.1,89.1L244.1,89.1z"/>
				<path class="st0" d="M240.8,87.9l-0.5-0.2c-0.2-0.1-0.3-0.2-0.2-0.4c0.1-0.2,0.2-0.3,0.4-0.2l0.5,0.2c0.2,0.1,0.3,0.2,0.2,0.4
					C241.2,87.9,241,88,240.8,87.9L240.8,87.9z"/>
				<path class="st0" d="M237.5,86.7l-0.5-0.2c-0.2-0.1-0.3-0.2-0.2-0.4c0.1-0.2,0.2-0.3,0.4-0.2l0.5,0.2c0.2,0.1,0.3,0.2,0.2,0.4
					C237.9,86.7,237.7,86.8,237.5,86.7L237.5,86.7z"/>
				<path class="st0" d="M234.2,85.5l-0.5-0.2c-0.2-0.1-0.3-0.2-0.2-0.4c0.1-0.2,0.2-0.3,0.4-0.2l0.5,0.2c0.2,0.1,0.3,0.2,0.2,0.4
					C234.6,85.5,234.4,85.6,234.2,85.5L234.2,85.5z"/>
				<path class="st0" d="M230.9,84.3l-0.5-0.2c-0.2-0.1-0.2-0.2-0.2-0.4c0.1-0.2,0.2-0.2,0.4-0.2l0.5,0.2c0.2,0.1,0.2,0.2,0.2,0.4
					C231.3,84.3,231.1,84.3,230.9,84.3L230.9,84.3z"/>
				<path class="st0" d="M227.6,83.1l-0.5-0.2c-0.2-0.1-0.2-0.2-0.2-0.4s0.2-0.2,0.4-0.2l0.5,0.2c0.2,0.1,0.2,0.2,0.2,0.4
					C228,83.1,227.8,83.1,227.6,83.1L227.6,83.1z"/>
				<path class="st0" d="M224.3,81.9l-0.5-0.2c-0.2-0.1-0.2-0.2-0.2-0.4c0.1-0.2,0.2-0.2,0.4-0.2l0.5,0.2c0.2,0.1,0.2,0.2,0.2,0.4
					C224.7,81.9,224.5,81.9,224.3,81.9L224.3,81.9z"/>
				<path class="st0" d="M221,80.7l-0.5-0.2c-0.2-0.1-0.2-0.2-0.2-0.4c0.1-0.2,0.2-0.2,0.4-0.2l0.5,0.2c0.2,0.1,0.2,0.2,0.2,0.4
					S221.2,80.7,221,80.7L221,80.7z"/>
				<path class="st0" d="M217.7,79.5l-0.5-0.2c-0.2-0.1-0.2-0.2-0.2-0.4c0.1-0.2,0.2-0.2,0.4-0.2l0.6,0.2c0.2,0.1,0.2,0.2,0.2,0.4
					S217.9,79.5,217.7,79.5L217.7,79.5z"/>
				<path class="st0" d="M214.4,78.3l-0.5-0.2c-0.2-0.1-0.2-0.2-0.2-0.4c0.1-0.2,0.2-0.2,0.4-0.2l0.5,0.2c0.2,0.1,0.2,0.2,0.2,0.4
					C214.8,78.3,214.6,78.3,214.4,78.3L214.4,78.3z"/>
				<path class="st0" d="M211.1,77.1l-0.5-0.2c-0.2-0.1-0.2-0.2-0.2-0.4c0.1-0.2,0.2-0.2,0.4-0.2l0.5,0.2c0.2,0.1,0.2,0.2,0.2,0.4
					S211.3,77.1,211.1,77.1L211.1,77.1z"/>
				<path class="st0" d="M207.9,75.9l-0.5-0.2c-0.2-0.1-0.2-0.2-0.2-0.4c0.1-0.2,0.2-0.2,0.4-0.2l0.5,0.2c0.2,0.1,0.2,0.2,0.2,0.4
					S208,75.9,207.9,75.9L207.9,75.9z"/>
				<path class="st0" d="M204.6,74.7l-0.5-0.2c-0.2-0.1-0.2-0.2-0.2-0.4c0.1-0.2,0.2-0.2,0.4-0.2l0.5,0.2c0.2,0.1,0.2,0.2,0.2,0.4
					C204.9,74.6,204.7,74.7,204.6,74.7L204.6,74.7z"/>
				<path class="st0" d="M201.3,73.5l-0.5-0.2c-0.2-0.1-0.2-0.2-0.2-0.4s0.2-0.2,0.4-0.2l0.5,0.2c0.2,0.1,0.2,0.2,0.2,0.4
					C201.6,73.4,201.4,73.5,201.3,73.5L201.3,73.5z"/>
				<path class="st0" d="M198,72.3l-0.5-0.2c-0.1-0.1-0.2-0.2-0.2-0.4c0.1-0.1,0.2-0.2,0.4-0.2l0.5,0.2c0.1,0.1,0.2,0.2,0.2,0.4
					C198.3,72.2,198.1,72.3,198,72.3L198,72.3z"/>
				<path class="st0" d="M194.7,71.1l-0.5-0.2c-0.1-0.1-0.2-0.2-0.2-0.4c0.1-0.1,0.2-0.2,0.4-0.2l0.5,0.2c0.1,0.1,0.2,0.2,0.2,0.4
					S194.8,71.1,194.7,71.1L194.7,71.1z"/>
				<path class="st0" d="M191.4,69.9l-0.5-0.2c-0.1-0.1-0.2-0.2-0.2-0.4c0.1-0.1,0.2-0.2,0.4-0.2l0.5,0.2c0.1,0.1,0.2,0.2,0.2,0.4
					S191.5,69.9,191.4,69.9L191.4,69.9z"/>
				<path class="st0" d="M188.1,68.7l-0.5-0.2c-0.1-0.1-0.2-0.2-0.2-0.4s0.2-0.2,0.4-0.2l0.5,0.2c0.1,0.1,0.2,0.2,0.2,0.4
					S188.2,68.7,188.1,68.7L188.1,68.7z"/>
				<path class="st0" d="M184.8,67.5l-0.5-0.2c-0.1-0.1-0.2-0.2-0.2-0.4c0.1-0.1,0.2-0.2,0.4-0.2l0.5,0.2c0.1,0.1,0.2,0.2,0.2,0.4
					C185.1,67.4,184.9,67.5,184.8,67.5L184.8,67.5z"/>
				<path class="st0" d="M181.5,66.2L181,66c-0.1-0.1-0.2-0.2-0.2-0.4c0.1-0.1,0.2-0.2,0.4-0.2l0.5,0.2c0.1,0.1,0.2,0.2,0.2,0.4
					C181.8,66.2,181.6,66.3,181.5,66.2L181.5,66.2z"/>
				<path class="st0" d="M178.2,65l-0.5-0.2c-0.1-0.1-0.2-0.2-0.2-0.3c0.1-0.1,0.2-0.2,0.3-0.2l0.5,0.2c0.1,0.1,0.2,0.2,0.2,0.3
					C178.5,65,178.3,65.1,178.2,65L178.2,65z"/>
				<path class="st0" d="M174.9,63.8l-0.5-0.2c-0.1-0.1-0.2-0.2-0.2-0.3s0.2-0.2,0.3-0.2l0.5,0.2c0.1,0.1,0.2,0.2,0.2,0.3
					C175.2,63.8,175,63.9,174.9,63.8L174.9,63.8z"/>
				<path class="st0" d="M171.6,62.6l-0.5-0.2c-0.1-0.1-0.2-0.2-0.2-0.3c0.1-0.1,0.2-0.2,0.3-0.2l0.5,0.2c0.1,0.1,0.2,0.2,0.2,0.3
					S171.7,62.7,171.6,62.6L171.6,62.6z"/>
				<path class="st0" d="M168.3,61.4l-0.5-0.2c-0.1,0-0.2-0.2-0.2-0.3s0.2-0.2,0.3-0.2l0.5,0.2c0.1,0,0.2,0.2,0.2,0.3
					S168.4,61.5,168.3,61.4L168.3,61.4z"/>
				<path class="st0" d="M165,60.2l-0.5-0.2c-0.1,0-0.2-0.2-0.2-0.3s0.2-0.2,0.3-0.2l0.5,0.2c0.1,0,0.2,0.2,0.2,0.3
					S165.1,60.3,165,60.2L165,60.2z"/>
				<path class="st0" d="M161.7,59l-0.5-0.2c-0.1,0-0.2-0.2-0.2-0.3s0.2-0.2,0.3-0.2l0.5,0.2c0.1,0,0.2,0.2,0.2,0.3
					C162,59,161.8,59.1,161.7,59L161.7,59z"/>
				<path class="st0" d="M158.4,57.8l-0.5-0.2c-0.1,0-0.2-0.2-0.2-0.3s0.2-0.2,0.3-0.2l0.5,0.2c0.1,0,0.2,0.2,0.2,0.3
					C158.7,57.8,158.5,57.9,158.4,57.8L158.4,57.8z"/>
				<path class="st0" d="M155.1,56.6l-0.5-0.2c-0.1,0-0.2-0.2-0.2-0.3s0.2-0.2,0.3-0.2l0.5,0.2c0.1,0,0.2,0.2,0.2,0.3
					C155.4,56.6,155.2,56.7,155.1,56.6L155.1,56.6z"/>
				<path class="st0" d="M151.8,55.4l-0.5-0.2c-0.1,0-0.2-0.2-0.1-0.3c0-0.1,0.2-0.2,0.3-0.1L152,55c0.1,0,0.2,0.2,0.1,0.3
					C152.1,55.4,151.9,55.5,151.8,55.4L151.8,55.4z"/>
				<path class="st0" d="M148.5,54.2L148,54c-0.1,0-0.2-0.2-0.1-0.3c0-0.1,0.2-0.2,0.3-0.1l0.5,0.2c0.1,0,0.2,0.2,0.1,0.3
					C148.8,54.2,148.7,54.3,148.5,54.2L148.5,54.2z"/>
				<path class="st0" d="M145.2,53l-0.5-0.2c-0.1,0-0.2-0.2-0.1-0.3c0-0.1,0.2-0.2,0.3-0.1l0.5,0.2c0.1,0,0.2,0.2,0.1,0.3
					S145.4,53.1,145.2,53L145.2,53z"/>
				<path class="st0" d="M141.9,51.8l-0.5-0.2c-0.1,0-0.2-0.2-0.1-0.3c0-0.1,0.2-0.2,0.3-0.1l0.5,0.2c0.1,0,0.2,0.2,0.1,0.3
					S142.1,51.9,141.9,51.8L141.9,51.8z"/>
				<path class="st0" d="M138.6,50.6l-0.5-0.2c-0.1,0-0.2-0.2-0.1-0.3c0-0.1,0.2-0.2,0.3-0.1l0.5,0.2c0.1,0,0.2,0.2,0.1,0.3
					C138.9,50.6,138.8,50.7,138.6,50.6L138.6,50.6z"/>
				<path class="st0" d="M135.3,49.4l-0.5-0.2c-0.1,0-0.2-0.2-0.1-0.3s0.2-0.2,0.3-0.1l0.5,0.2c0.1,0,0.2,0.2,0.1,0.3
					C135.6,49.4,135.5,49.5,135.3,49.4L135.3,49.4z"/>
				<path class="st0" d="M132,48.2l-0.5-0.2c-0.1,0-0.2-0.2-0.1-0.3c0-0.1,0.2-0.2,0.3-0.1l0.5,0.2c0.1,0,0.2,0.2,0.1,0.3
					C132.3,48.2,132.2,48.3,132,48.2L132,48.2z"/>
				<path class="st0" d="M128.7,47l-0.5-0.2c-0.1,0-0.2-0.2-0.1-0.3c0-0.1,0.2-0.2,0.3-0.1l0.5,0.2c0.1,0,0.2,0.2,0.1,0.3
					C129,47,128.9,47,128.7,47L128.7,47z"/>
				<path class="st0" d="M125.4,45.8l-0.5-0.2c-0.1,0-0.2-0.2-0.1-0.3c0-0.1,0.2-0.2,0.3-0.1l0.5,0.2c0.1,0,0.2,0.2,0.1,0.3
					C125.7,45.8,125.6,45.8,125.4,45.8L125.4,45.8z"/>
				<path class="st0" d="M122.2,44.6l-0.5-0.2c-0.1,0-0.2-0.2-0.1-0.3s0.2-0.2,0.3-0.1l0.5,0.2c0.1,0,0.2,0.2,0.1,0.3
					S122.3,44.6,122.2,44.6L122.2,44.6z"/>
				<path class="st0" d="M118.9,43.4l-0.5-0.2c-0.1,0-0.2-0.2-0.1-0.3c0-0.1,0.2-0.2,0.3-0.1l0.5,0.2c0.1,0,0.2,0.2,0.1,0.3
					C119.1,43.4,119,43.4,118.9,43.4L118.9,43.4z"/>
				<path class="st0" d="M115.6,42.2l-0.5-0.2c-0.1,0-0.2-0.2-0.1-0.3c0-0.1,0.2-0.2,0.3-0.1l0.5,0.2c0.1,0,0.2,0.2,0.1,0.3
					S115.7,42.2,115.6,42.2L115.6,42.2z"/>
				<path class="st0" d="M112.3,41l-0.5-0.2c-0.1,0-0.2-0.2-0.1-0.3s0.2-0.2,0.3-0.1l0.5,0.2c0.1,0,0.2,0.2,0.1,0.3
					C112.5,41,112.4,41,112.3,41L112.3,41z"/>
				<path class="st0" d="M109,39.8l-0.5-0.2c-0.1,0-0.2-0.2-0.1-0.3s0.2-0.2,0.3-0.1l0.5,0.2c0.1,0,0.2,0.2,0.1,0.3
					S109.1,39.8,109,39.8L109,39.8z"/>
				<path class="st0" d="M105.7,38.6l-0.5-0.2c-0.1,0-0.2-0.2-0.1-0.3c0-0.1,0.2-0.2,0.3-0.1l0.5,0.2c0.1,0,0.2,0.2,0.1,0.3
					S105.8,38.6,105.7,38.6L105.7,38.6z"/>
				<path class="st0" d="M102.4,37.4l-0.5-0.2c-0.1,0-0.2-0.2-0.1-0.3c0-0.1,0.2-0.2,0.3-0.1l0.5,0.2c0.1,0,0.2,0.2,0.1,0.3
					C102.6,37.4,102.5,37.4,102.4,37.4L102.4,37.4z"/>
				<path class="st0" d="M99.1,36.2L98.6,36c-0.1,0-0.2-0.2-0.1-0.3s0.2-0.2,0.3-0.1l0.5,0.2c0.1,0,0.2,0.2,0.1,0.3
					S99.2,36.2,99.1,36.2L99.1,36.2z"/>
				<path class="st0" d="M95.8,35l-0.5-0.2c-0.1,0-0.2-0.2-0.1-0.3c0-0.1,0.2-0.2,0.3-0.1l0.5,0.2c0.1,0,0.2,0.2,0.1,0.3
					C96,35,95.9,35,95.8,35L95.8,35z"/>
				<path class="st0" d="M92.5,33.8L92,33.6c-0.1,0-0.2-0.2-0.1-0.3c0-0.1,0.2-0.2,0.3-0.1l0.5,0.2c0.1,0,0.2,0.2,0.1,0.3
					C92.7,33.8,92.6,33.8,92.5,33.8L92.5,33.8z"/>
				<path class="st0" d="M89.2,32.6l-0.5-0.2c-0.1,0-0.2-0.2-0.1-0.3c0-0.1,0.2-0.2,0.3-0.1l0.5,0.2c0.1,0,0.2,0.2,0.1,0.3
					S89.3,32.6,89.2,32.6L89.2,32.6z"/>
				<path class="st0" d="M85.9,31.4l-0.5-0.2c-0.1,0-0.2-0.1-0.1-0.2c0-0.1,0.1-0.2,0.2-0.1l0.5,0.2c0.1,0,0.2,0.1,0.1,0.2
					C86.1,31.4,86,31.4,85.9,31.4L85.9,31.4z"/>
				<path class="st0" d="M82.6,30.2L82.1,30c-0.1,0-0.2-0.1-0.1-0.2c0-0.1,0.1-0.2,0.2-0.1l0.5,0.2c0.1,0,0.2,0.1,0.1,0.2
					C82.8,30.2,82.7,30.2,82.6,30.2L82.6,30.2z"/>
				<path class="st0" d="M79.3,29l-0.5-0.2c-0.1,0-0.1-0.1-0.1-0.2s0.1-0.1,0.2-0.1l0.5,0.2c0.1,0,0.1,0.1,0.1,0.2S79.4,29,79.3,29
					L79.3,29z"/>
				<path class="st0" d="M76,27.8l-0.5-0.2c-0.1,0-0.1-0.1-0.1-0.2s0.1-0.1,0.2-0.1l0.5,0.2c0.1,0,0.1,0.1,0.1,0.2
					C76.2,27.7,76.1,27.8,76,27.8L76,27.8z"/>
				<path class="st0" d="M72.7,26.6l-0.5-0.2c-0.1,0-0.1-0.1-0.1-0.2s0.1-0.1,0.2-0.1l0.5,0.2c0.1,0,0.1,0.1,0.1,0.2
					C72.9,26.5,72.8,26.6,72.7,26.6L72.7,26.6z"/>
				<path class="st0" d="M69.4,25.3l-0.5-0.2c-0.1,0-0.1-0.1-0.1-0.2s0.1-0.1,0.2-0.1l0.5,0.2c0.1,0,0.1,0.1,0.1,0.2
					S69.5,25.4,69.4,25.3L69.4,25.3z"/>
				<path class="st0" d="M66.1,24.1l-0.5-0.2c-0.1,0-0.1-0.1-0.1-0.2s0.1-0.1,0.2-0.1l0.5,0.2c0.1,0,0.1,0.1,0.1,0.2
					C66.3,24.1,66.2,24.2,66.1,24.1L66.1,24.1z"/>
				<path class="st0" d="M62.8,22.9l-0.5-0.2c-0.1,0-0.1-0.1-0.1-0.2s0.1-0.1,0.2-0.1l0.5,0.2c0.1,0,0.1,0.1,0.1,0.2
					S62.9,23,62.8,22.9L62.8,22.9z"/>
				<path class="st0" d="M59.5,21.7L59,21.5c-0.1,0-0.1-0.1-0.1-0.2s0.1-0.1,0.2-0.1l0.5,0.2c0.1,0,0.1,0.1,0.1,0.2
					S59.6,21.8,59.5,21.7L59.5,21.7z"/>
				<path class="st0" d="M56.2,20.5l-0.5-0.2c-0.1,0-0.1-0.1-0.1-0.2s0.1-0.1,0.2-0.1l0.5,0.2c0.1,0,0.1,0.1,0.1,0.2
					S56.3,20.5,56.2,20.5L56.2,20.5z"/>
				<path class="st0" d="M52.9,19.3l-0.5-0.2c-0.1,0-0.1-0.1-0.1-0.2s0.1-0.1,0.2-0.1L53,19c0.1,0,0.1,0.1,0.1,0.2
					C53.1,19.3,53,19.3,52.9,19.3L52.9,19.3z"/>
				<path class="st0" d="M49.7,18.1l-0.5-0.2c-0.1,0-0.1-0.1-0.1-0.2s0.1-0.1,0.2-0.1l0.5,0.2c0.1,0,0.1,0.1,0.1,0.2
					C49.8,18.1,49.7,18.1,49.7,18.1L49.7,18.1z"/>
				<path class="st0" d="M46.4,16.9l-0.5-0.2c-0.1,0-0.1-0.1-0.1-0.1l0.1-0.1l0.5,0.2c0.1,0,0.1,0.1,0.1,0.1L46.4,16.9L46.4,16.9z"
					/>
				<path class="st0" d="M43.1,15.7l-0.5-0.2c-0.1,0-0.1-0.1-0.1-0.1c0-0.1,0.1-0.1,0.1-0.1l0.5,0.2c0.1,0,0.1,0.1,0.1,0.1
					L43.1,15.7L43.1,15.7z"/>
				<path class="st0" d="M39.8,14.5l-0.5-0.2l-0.1-0.1l0.1-0.1l0.5,0.2c0.1,0,0.1,0.1,0.1,0.1C39.9,14.5,39.8,14.5,39.8,14.5
					L39.8,14.5z"/>
				<path class="st0" d="M36.5,13.3L36,13.1L35.9,13l0.1-0.1l0.5,0.2V13.3L36.5,13.3L36.5,13.3z"/>
				<path class="st0" d="M33.2,12.1l-0.5-0.2c0,0-0.1-0.1,0-0.1c0,0,0.1-0.1,0.1,0l0.5,0.2C33.3,12,33.4,12.1,33.2,12.1L33.2,12.1
					L33.2,12.1z"/>
				<path class="st0" d="M29.9,10.9l-0.5-0.2c0,0-0.1-0.1,0-0.1c0,0,0.1-0.1,0.1,0l0.5,0.2C30,10.7,30,10.8,29.9,10.9
					C30,10.8,29.9,10.9,29.9,10.9L29.9,10.9z"/>
				<path class="st0" d="M26.6,9.6l-0.5-0.2c0,0,0,0,0-0.1c0,0,0-0.1,0.1,0l0.5,0.2C26.7,9.5,26.7,9.6,26.6,9.6
					C26.7,9.6,26.6,9.7,26.6,9.6L26.6,9.6z"/>
				<path class="st0" d="M23.3,8.4l-0.5-0.2c0,0,0,0,0-0.1c0,0,0,0,0.1,0l0.5,0.2C23.4,8.3,23.4,8.4,23.3,8.4
					C23.4,8.4,23.3,8.4,23.3,8.4L23.3,8.4z"/>
				<path class="st0" d="M20,7.2L19.5,7c0,0,0,0,0-0.1s0,0,0.1,0L20,7.2C20.1,7.1,20.1,7.2,20,7.2C20.1,7.2,20,7.2,20,7.2L20,7.2z"
					/>
				<path class="st0" d="M16.7,6l-0.5-0.1c0,0,0,0,0-0.1c0,0,0,0,0.1,0L16.7,6C16.8,6,16.8,6,16.7,6C16.8,6,16.7,6,16.7,6L16.7,6z"
					/>
				<path class="st0" d="M13.4,4.8l-0.5-0.2l0,0l0,0L13.4,4.8C13.5,4.8,13.5,4.8,13.4,4.8L13.4,4.8L13.4,4.8z"/>
				<path class="st0" d="M10.1,3.6L9.6,3.4l0,0l0,0L10.1,3.6C10.1,3.6,10.2,3.6,10.1,3.6L10.1,3.6L10.1,3.6z"/>
				<path class="st0" d="M6.8,2.4L6.4,2.2l0,0l0,0L6.8,2.4L6.8,2.4L6.8,2.4L6.8,2.4z"/>
				<path class="st0" d="M3.5,1.2L3.1,1l0,0l0,0L3.5,1.2L3.5,1.2L3.5,1.2L3.5,1.2z"/>
				<path class="st0" d="M0.2,0L0-0.1L0.2,0z"/>
			</g>
		</g>
	</g>
</g>
<g>
	<g>
		<g>
			<g>
				<polygon class="st0" points="0,219.5 0.2,219.4 0.2,219.4 				"/>
				<path class="st0" d="M3.1,218.4l0.5-0.2l0,0l0,0l0,0L3.1,218.4L3.1,218.4L3.1,218.4z"/>
				<path class="st0" d="M6.4,217.2l0.5-0.2l0,0l0,0l0,0L6.4,217.2C6.4,217.2,6.3,217.2,6.4,217.2C6.3,217.2,6.3,217.2,6.4,217.2z"
					/>
				<path class="st0" d="M9.6,216l0.5-0.2l0,0l0,0l0,0L9.6,216C9.7,216,9.6,216,9.6,216L9.6,216z"/>
				<path class="st0" d="M12.9,214.8l0.5-0.2l0,0l0,0l0,0L12.9,214.8L12.9,214.8L12.9,214.8z"/>
				<path class="st0" d="M16.2,213.6l0.5-0.2c0,0,0,0,0.1,0c0,0,0,0,0,0.1l0,0L16.2,213.6L16.2,213.6L16.2,213.6z"/>
				<path class="st0" d="M19.5,212.4l0.5-0.2h0.1v0.1l0,0L19.5,212.4C19.5,212.5,19.5,212.4,19.5,212.4L19.5,212.4z"/>
				<path class="st0" d="M22.8,211.1l0.5-0.2h0.1v0.1l0,0l-0.5,0.2C22.8,211.3,22.8,211.2,22.8,211.1
					C22.8,211.2,22.8,211.2,22.8,211.1z"/>
				<path class="st0" d="M26.1,209.9l0.5-0.2h0.1v0.1l0,0l-0.5,0.2C26.1,210.1,26.1,210.1,26.1,209.9
					C26.1,210,26.1,209.9,26.1,209.9z"/>
				<path class="st0" d="M29.4,208.7l0.5-0.2H30v0.1l0,0l-0.5,0.2C29.4,208.9,29.4,208.9,29.4,208.7
					C29.4,208.8,29.4,208.7,29.4,208.7z"/>
				<path class="st0" d="M32.7,207.5l0.5-0.2h0.1v0.1l0,0l-0.5,0.2h-0.1V207.5z"/>
				<path class="st0" d="M36,206.3l0.5-0.2c0,0,0.1,0,0.1,0.1c0,0,0,0.1-0.1,0.1l0,0l-0.5,0.2c0,0-0.1,0-0.1-0.1L36,206.3z"/>
				<path class="st0" d="M39.3,205.1l0.5-0.2c0,0,0.1,0,0.1,0.1s0,0.1-0.1,0.1l0,0l-0.5,0.2c0,0-0.1,0-0.1-0.1
					C39.2,205.2,39.2,205.1,39.3,205.1z"/>
				<path class="st0" d="M42.6,203.9l0.5-0.2c0.1,0,0.1,0,0.1,0.1s0,0.1-0.1,0.1l0,0l-0.5,0.2c-0.1,0-0.1,0-0.1-0.1
					C42.5,204,42.5,203.9,42.6,203.9z"/>
				<path class="st0" d="M45.9,202.7l0.5-0.2c0.1,0,0.1,0,0.1,0.1s0,0.1-0.1,0.1l0,0l-0.4,0.2C45.9,202.9,45.9,202.9,45.9,202.7
					C45.8,202.8,45.8,202.7,45.9,202.7z"/>
				<path class="st0" d="M49.2,201.5l0.5-0.2c0.1,0,0.1,0,0.2,0.1c0,0.1,0,0.1-0.1,0.2l0,0l-0.5,0.2c-0.1,0-0.1,0-0.2-0.1
					C49.1,201.6,49.1,201.5,49.2,201.5z"/>
				<path class="st0" d="M52.5,200.3l0.5-0.2c0.1,0,0.1,0,0.2,0.1c0,0.1,0,0.1-0.1,0.2l0,0l-0.5,0.2c-0.1,0-0.1,0-0.2-0.1
					S52.4,200.3,52.5,200.3z"/>
				<path class="st0" d="M55.8,199.1l0.5-0.2c0.1,0,0.1,0,0.2,0.1c0,0.1,0,0.1-0.1,0.2l0,0l-0.5,0.2c-0.1,0-0.1,0-0.2-0.1
					C55.7,199.2,55.7,199.1,55.8,199.1z"/>
				<path class="st0" d="M59.1,197.9l0.5-0.2c0.1,0,0.2,0,0.2,0.1s0,0.2-0.1,0.2l0,0l-0.5,0.2c-0.1,0-0.2,0-0.2-0.1
					C59,198,59,197.9,59.1,197.9z"/>
				<path class="st0" d="M62.4,196.7l0.5-0.2c0.1,0,0.2,0,0.2,0.1s0,0.2-0.1,0.2l0,0l-0.5,0.2c-0.1,0-0.2,0-0.2-0.1
					S62.3,196.7,62.4,196.7z"/>
				<path class="st0" d="M65.7,195.4l0.5-0.2c0.1,0,0.2,0,0.2,0.1s0,0.2-0.1,0.2l0,0l-0.5,0.2c-0.1,0-0.2,0-0.2-0.1
					C65.5,195.6,65.6,195.5,65.7,195.4z"/>
				<path class="st0" d="M68.9,194.2l0.5-0.2c0.1,0,0.2,0,0.2,0.1s0,0.2-0.1,0.2l0,0l-0.5,0.2c-0.1,0-0.2,0-0.2-0.1
					S68.9,194.3,68.9,194.2z"/>
				<path class="st0" d="M72.2,193l0.5-0.2c0.1,0,0.2,0,0.2,0.1s0,0.2-0.1,0.2l0,0l-0.5,0.2c-0.1,0-0.2,0-0.2-0.1
					C72.1,193.2,72.2,193.1,72.2,193z"/>
				<path class="st0" d="M75.5,191.8l0.5-0.2c0.1,0,0.2,0,0.2,0.1s0,0.2-0.1,0.2l0,0l-0.5,0.2c-0.1,0-0.2,0-0.2-0.1
					C75.4,192,75.4,191.9,75.5,191.8z"/>
				<path class="st0" d="M78.8,190.6l0.5-0.2c0.1,0,0.2,0,0.2,0.1s0,0.2-0.1,0.2l0,0l-0.5,0.2c-0.1,0-0.2,0-0.2-0.1
					C78.7,190.8,78.7,190.7,78.8,190.6z"/>
				<path class="st0" d="M82.1,189.4l0.5-0.2c0.1,0,0.2,0,0.2,0.1s0,0.2-0.1,0.2l0,0l-0.5,0.2c-0.1,0-0.2,0-0.2-0.1
					C82,189.6,82,189.5,82.1,189.4z"/>
				<path class="st0" d="M85.4,188.2l0.5-0.2c0.1,0,0.2,0,0.2,0.1s0,0.2-0.1,0.2l0,0l-0.5,0.2c-0.1,0-0.2,0-0.2-0.1
					C85.3,188.4,85.3,188.3,85.4,188.2z"/>
				<path class="st0" d="M88.7,187l0.5-0.2c0.1,0,0.2,0,0.3,0.1c0,0.1,0,0.2-0.1,0.3l0,0l-0.5,0.2c-0.1,0-0.2,0-0.3-0.1
					C88.6,187.2,88.6,187,88.7,187z"/>
				<path class="st0" d="M92,185.8l0.5-0.2c0.1,0,0.2,0,0.3,0.1c0,0.1,0,0.2-0.1,0.3l0,0l-0.5,0.2c-0.1,0-0.2,0-0.3-0.1
					C91.9,186,91.9,185.8,92,185.8z"/>
				<path class="st0" d="M95.3,184.6l0.5-0.2c0.1,0,0.2,0,0.3,0.1c0,0.1,0,0.2-0.1,0.3l0,0l-0.5,0.2c-0.1,0-0.2,0-0.3-0.1
					C95.2,184.8,95.2,184.6,95.3,184.6z"/>
				<path class="st0" d="M98.6,183.4l0.5-0.2c0.1,0,0.2,0,0.3,0.1c0,0.1,0,0.2-0.1,0.3l0,0l-0.5,0.2c-0.1,0-0.2,0-0.3-0.1
					C98.4,183.6,98.5,183.4,98.6,183.4z"/>
				<path class="st0" d="M101.9,182.2l0.5-0.2c0.1,0,0.2,0,0.3,0.1c0,0.1,0,0.2-0.1,0.3l0,0l-0.5,0.2c-0.1,0-0.2,0-0.3-0.1
					S101.8,182.2,101.9,182.2z"/>
				<path class="st0" d="M105.2,181l0.5-0.2c0.1,0,0.2,0,0.3,0.1c0,0.1,0,0.2-0.1,0.3l0,0l-0.5,0.2c-0.1,0-0.2,0-0.3-0.1
					C105,181.2,105.1,181,105.2,181z"/>
				<path class="st0" d="M108.5,179.8l0.5-0.2c0.1,0,0.2,0,0.3,0.1c0,0.1,0,0.2-0.1,0.3l0,0l-0.5,0.2c-0.1,0-0.2,0-0.3-0.1
					C108.3,180,108.4,179.8,108.5,179.8z"/>
				<path class="st0" d="M111.8,178.6l0.5-0.2c0.1,0,0.2,0,0.3,0.1c0,0.1,0,0.2-0.1,0.3l0,0L112,179c-0.1,0-0.2,0-0.3-0.1
					S111.7,178.6,111.8,178.6z"/>
				<path class="st0" d="M115.1,177.4l0.5-0.2c0.1,0,0.2,0,0.3,0.1s0,0.2-0.1,0.3l0,0l-0.5,0.2c-0.1,0-0.2,0-0.3-0.1
					C114.9,177.6,115,177.4,115.1,177.4z"/>
				<path class="st0" d="M118.4,176.2l0.5-0.2c0.1,0,0.2,0,0.3,0.1s0,0.2-0.1,0.3l0,0l-0.5,0.2c-0.1,0-0.2,0-0.3-0.1
					S118.3,176.2,118.4,176.2z"/>
				<path class="st0" d="M121.7,175l0.5-0.2c0.1,0,0.2,0,0.3,0.1c0,0.1,0,0.2-0.1,0.3l0,0l-0.5,0.2c-0.1,0-0.2,0-0.3-0.1
					C121.5,175.2,121.6,175,121.7,175z"/>
				<path class="st0" d="M125,173.8l0.5-0.2c0.1,0,0.2,0,0.3,0.1s0,0.2-0.1,0.3l0,0l-0.5,0.2c-0.1,0-0.2,0-0.3-0.1
					C124.8,174,124.9,173.8,125,173.8z"/>
				<path class="st0" d="M128.3,172.6l0.5-0.2c0.1,0,0.3,0,0.3,0.1s0,0.3-0.1,0.3l0,0l-0.5,0.2c-0.1,0-0.3,0-0.3-0.1
					C128.1,172.8,128.2,172.6,128.3,172.6z"/>
				<path class="st0" d="M131.6,171.4l0.5-0.2c0.1,0,0.3,0,0.3,0.1s0,0.3-0.1,0.3l0,0l-0.5,0.2c-0.1,0-0.3,0-0.3-0.1
					S131.4,171.4,131.6,171.4z"/>
				<path class="st0" d="M134.9,170.2l0.5-0.2c0.1,0,0.3,0,0.3,0.1s0,0.3-0.1,0.3l0,0l-0.5,0.2c-0.1,0-0.3,0-0.3-0.1
					C134.7,170.4,134.7,170.2,134.9,170.2z"/>
				<path class="st0" d="M138.2,169l0.5-0.2c0.1,0,0.3,0,0.3,0.1s0,0.3-0.1,0.3l0,0l-0.5,0.2c-0.1,0-0.3,0-0.3-0.1
					C138,169.2,138,169,138.2,169z"/>
				<path class="st0" d="M141.5,167.8l0.5-0.2c0.1,0,0.3,0,0.3,0.1s0,0.3-0.1,0.3l0,0l-0.5,0.2c-0.1,0-0.3,0-0.3-0.1
					C141.3,168,141.3,167.8,141.5,167.8z"/>
				<path class="st0" d="M144.8,166.6l0.5-0.2c0.1,0,0.3,0,0.3,0.1s0,0.3-0.1,0.3l0,0L145,167c-0.1,0-0.3,0-0.3-0.1
					C144.6,166.8,144.6,166.6,144.8,166.6z"/>
				<path class="st0" d="M148.1,165.4l0.5-0.2c0.1,0,0.3,0,0.3,0.1s0,0.3-0.1,0.3l0,0l-0.5,0.2c-0.1,0-0.3,0-0.3-0.1
					C147.9,165.6,147.9,165.4,148.1,165.4z"/>
				<path class="st0" d="M151.3,164.2l0.5-0.2c0.1,0,0.3,0,0.3,0.1s0,0.3-0.1,0.3l0,0l-0.5,0.2c-0.1,0-0.3,0-0.3-0.1
					S151.2,164.2,151.3,164.2z"/>
				<path class="st0" d="M154.6,163l0.5-0.2c0.1,0,0.3,0,0.3,0.2c0,0.1,0,0.3-0.2,0.3l0,0l-0.5,0.2c-0.1,0-0.3,0-0.3-0.2
					S154.5,163,154.6,163z"/>
				<path class="st0" d="M157.9,161.8l0.5-0.2c0.1,0,0.3,0,0.3,0.2c0,0.1,0,0.3-0.2,0.3l0,0l-0.5,0.2c-0.1,0-0.3,0-0.3-0.2
					S157.8,161.8,157.9,161.8z"/>
				<path class="st0" d="M161.2,160.6l0.5-0.2c0.1,0,0.3,0,0.3,0.2c0,0.1,0,0.3-0.2,0.3l0,0l-0.5,0.2c-0.1,0-0.3,0-0.3-0.2
					S161.1,160.6,161.2,160.6z"/>
				<path class="st0" d="M164.5,159.3l0.5-0.2c0.1,0,0.3,0,0.3,0.2c0,0.1,0,0.3-0.2,0.3l0,0l-0.5,0.2c-0.1,0-0.3,0-0.3-0.2
					C164.3,159.5,164.4,159.4,164.5,159.3z"/>
				<path class="st0" d="M167.8,158.1l0.5-0.2c0.1,0,0.3,0,0.3,0.2s0,0.3-0.2,0.3l0,0l-0.5,0.2c-0.1,0-0.3,0-0.3-0.2
					C167.6,158.3,167.7,158.2,167.8,158.1z"/>
				<path class="st0" d="M171.1,156.9l0.5-0.2c0.1-0.1,0.3,0,0.3,0.2s0,0.3-0.2,0.3l0,0l-0.5,0.2c-0.1,0.1-0.3,0-0.3-0.2
					C170.9,157.1,171,157,171.1,156.9z"/>
				<path class="st0" d="M174.4,155.7l0.5-0.2c0.1-0.1,0.3,0,0.3,0.2c0.1,0.1,0,0.3-0.2,0.3l0,0l-0.5,0.2c-0.1,0.1-0.3,0-0.3-0.2
					C174.2,155.9,174.3,155.8,174.4,155.7z"/>
				<path class="st0" d="M177.7,154.5l0.5-0.2c0.1-0.1,0.3,0,0.3,0.2s0,0.3-0.2,0.3l0,0l-0.5,0.2c-0.1,0.1-0.3,0-0.3-0.2
					C177.5,154.7,177.6,154.6,177.7,154.5z"/>
				<path class="st0" d="M181,153.3l0.5-0.2c0.1-0.1,0.3,0,0.4,0.2s0,0.3-0.2,0.4l0,0l-0.5,0.2c-0.1,0.1-0.3,0-0.4-0.2
					C180.8,153.5,180.9,153.4,181,153.3z"/>
				<path class="st0" d="M184.3,152.1l0.5-0.2c0.1-0.1,0.3,0,0.4,0.2c0.1,0.1,0,0.3-0.2,0.4l0,0l-0.5,0.2c-0.1,0.1-0.3,0-0.4-0.2
					C184.1,152.3,184.2,152.2,184.3,152.1z"/>
				<path class="st0" d="M187.6,150.9l0.5-0.2c0.1-0.1,0.3,0,0.4,0.2s0,0.3-0.2,0.4l0,0l-0.5,0.2c-0.1,0.1-0.3,0-0.4-0.2
					C187.4,151.1,187.5,151,187.6,150.9z"/>
				<path class="st0" d="M190.9,149.7l0.5-0.2c0.1-0.1,0.3,0,0.4,0.2s0,0.3-0.2,0.4l0,0l-0.5,0.2c-0.1,0.1-0.3,0-0.4-0.2
					C190.7,149.9,190.8,149.8,190.9,149.7z"/>
				<path class="st0" d="M194.2,148.5l0.5-0.2c0.1-0.1,0.3,0,0.4,0.2c0.1,0.1,0,0.3-0.2,0.4l0,0l-0.5,0.2c-0.1,0.1-0.3,0-0.4-0.2
					S194.1,148.6,194.2,148.5z"/>
				<path class="st0" d="M197.5,147.3l0.5-0.2c0.1-0.1,0.3,0,0.4,0.2s0,0.3-0.2,0.4l0,0l-0.5,0.2c-0.1,0.1-0.3,0-0.4-0.2
					C197.3,147.5,197.3,147.4,197.5,147.3z"/>
				<path class="st0" d="M200.8,146.1l0.5-0.2c0.2-0.1,0.3,0,0.4,0.2c0.1,0.2,0,0.3-0.2,0.4l0,0l-0.5,0.2c-0.2,0.1-0.3,0-0.4-0.2
					C200.6,146.3,200.6,146.2,200.8,146.1z"/>
				<path class="st0" d="M204.1,144.9l0.5-0.2c0.2-0.1,0.3,0,0.4,0.2c0.1,0.2,0,0.3-0.2,0.4l0,0l-0.5,0.2c-0.2,0.1-0.3,0-0.4-0.2
					C203.9,145.1,203.9,145,204.1,144.9z"/>
				<path class="st0" d="M207.4,143.7l0.5-0.2c0.2-0.1,0.3,0,0.4,0.2s0,0.3-0.2,0.4l0,0l-0.5,0.2c-0.2,0.1-0.3,0-0.4-0.2
					C207.2,143.9,207.2,143.8,207.4,143.7z"/>
				<path class="st0" d="M210.7,142.5l0.5-0.2c0.2-0.1,0.3,0,0.4,0.2s0,0.3-0.2,0.4l0,0l-0.5,0.2c-0.2,0.1-0.3,0-0.4-0.2
					C210.4,142.7,210.5,142.6,210.7,142.5z"/>
				<path class="st0" d="M214,141.3l0.5-0.2c0.2-0.1,0.3,0,0.4,0.2c0.1,0.2,0,0.3-0.2,0.4l0,0l-0.5,0.2c-0.2,0.1-0.3,0-0.4-0.2
					C213.7,141.5,213.8,141.4,214,141.3z"/>
				<path class="st0" d="M217.3,140.1l0.5-0.2c0.2-0.1,0.3,0,0.4,0.2s0,0.3-0.2,0.4l0,0l-0.5,0.2c-0.2,0.1-0.3,0-0.4-0.2
					C217,140.3,217.1,140.2,217.3,140.1z"/>
				<path class="st0" d="M220.6,138.9l0.5-0.2c0.2-0.1,0.3,0,0.4,0.2c0.1,0.2,0,0.3-0.2,0.4l0,0l-0.5,0.2c-0.2,0.1-0.3,0-0.4-0.2
					C220.3,139.1,220.4,139,220.6,138.9z"/>
				<path class="st0" d="M223.9,137.7l0.5-0.2c0.2-0.1,0.3,0,0.4,0.2s0,0.3-0.2,0.4l0,0l-0.5,0.2c-0.2,0.1-0.3,0-0.4-0.2
					S223.7,137.8,223.9,137.7z"/>
				<path class="st0" d="M227.2,136.5l0.5-0.2c0.2-0.1,0.3,0,0.4,0.2c0.1,0.2,0,0.3-0.2,0.4l0,0l-0.5,0.2c-0.2,0.1-0.3,0-0.4-0.2
					S227,136.6,227.2,136.5z"/>
				<path class="st0" d="M230.5,135.3l0.5-0.2c0.2-0.1,0.3,0,0.4,0.2c0.1,0.2,0,0.3-0.2,0.4l0,0l-0.5,0.2c-0.2,0.1-0.3,0-0.4-0.2
					C230.2,135.5,230.3,135.4,230.5,135.3z"/>
				<path class="st0" d="M233.8,134.1l0.5-0.2c0.2-0.1,0.3,0,0.4,0.2s0,0.3-0.2,0.4l0,0l-0.5,0.2c-0.2,0.1-0.3,0-0.4-0.2
					C233.5,134.3,233.6,134.2,233.8,134.1z"/>
				<path class="st0" d="M237,132.9l0.5-0.2c0.2-0.1,0.4,0,0.4,0.2c0.1,0.2,0,0.4-0.2,0.4l0,0l-0.5,0.2c-0.2,0.1-0.4,0-0.4-0.2
					S236.9,133,237,132.9z"/>
				<path class="st0" d="M240.3,131.7l0.5-0.2c0.2-0.1,0.4,0,0.4,0.2c0.1,0.2,0,0.4-0.2,0.4l0,0l-0.5,0.2c-0.2,0.1-0.4,0-0.4-0.2
					S240.2,131.7,240.3,131.7z"/>
				<path class="st0" d="M243.6,130.5l0.5-0.2c0.2-0.1,0.4,0,0.4,0.2c0.1,0.2,0,0.4-0.2,0.4l0,0l-0.5,0.2c-0.2,0.1-0.4,0-0.4-0.2
					C243.4,130.7,243.5,130.5,243.6,130.5z"/>
				<path class="st0" d="M246.9,129.3l0.5-0.2c0.2-0.1,0.4,0,0.4,0.2c0.1,0.2,0,0.4-0.2,0.4l0,0l-0.5,0.2c-0.2,0.1-0.4,0-0.4-0.2
					S246.8,129.3,246.9,129.3z"/>
				<path class="st0" d="M250.2,128.1l0.5-0.2c0.2-0.1,0.4,0,0.4,0.2c0.1,0.2,0,0.4-0.2,0.4l0,0l-0.5,0.2c-0.2,0.1-0.4,0-0.4-0.2
					S250.1,128.1,250.2,128.1z"/>
				<path class="st0" d="M253.5,126.9l0.5-0.2c0.2-0.1,0.4,0,0.4,0.2s0,0.4-0.2,0.4l0,0l-0.5,0.2c-0.2,0.1-0.4,0-0.4-0.2
					C253.3,127.1,253.4,126.9,253.5,126.9z"/>
				<path class="st0" d="M256.8,125.7l0.5-0.2c0.2-0.1,0.4,0,0.4,0.2c0.1,0.2,0,0.4-0.2,0.4l0,0l-0.5,0.2c-0.2,0.1-0.4,0-0.4-0.2
					C256.6,125.9,256.7,125.7,256.8,125.7z"/>
				<path class="st0" d="M260.1,124.5l0.5-0.2c0.2-0.1,0.4,0,0.4,0.2c0.1,0.2,0,0.4-0.2,0.4l0,0l-0.5,0.2c-0.2,0.1-0.4,0-0.4-0.2
					S259.9,124.5,260.1,124.5z"/>
				<path class="st0" d="M263.4,123.3l0.5-0.2c0.2-0.1,0.4,0,0.4,0.2c0.1,0.2,0,0.4-0.2,0.4l0,0l-0.5,0.2c-0.2,0.1-0.4,0-0.4-0.2
					C263.1,123.5,263.2,123.3,263.4,123.3z"/>
				<path class="st0" d="M266.7,122.1l0.5-0.2c0.2-0.1,0.4,0,0.4,0.2c0.1,0.2,0,0.4-0.2,0.4l0,0l-0.5,0.2c-0.2,0.1-0.4,0-0.4-0.2
					C266.4,122.3,266.5,122.1,266.7,122.1z"/>
				<path class="st0" d="M270,120.9l0.5-0.2c0.2-0.1,0.4,0,0.4,0.2c0.1,0.2,0,0.4-0.2,0.4l0,0l-0.5,0.2c-0.2,0.1-0.4,0-0.4-0.2
					S269.8,120.9,270,120.9z"/>
				<path class="st0" d="M273.3,119.7l0.5-0.2c0.2-0.1,0.4,0,0.5,0.2s0,0.4-0.2,0.5l0,0l-0.5,0.2c-0.2,0.1-0.4,0-0.4-0.2
					C273,119.9,273.1,119.7,273.3,119.7z"/>
				<path class="st0" d="M276.6,118.5l0.5-0.2c0.2-0.1,0.4,0,0.5,0.2s0,0.4-0.2,0.5l0,0l-0.5,0.2c-0.2,0.1-0.4,0-0.5-0.2
					C276.3,118.7,276.4,118.5,276.6,118.5z"/>
				<path class="st0" d="M279.9,117.3l0.5-0.2c0.2-0.1,0.4,0,0.5,0.2s0,0.4-0.2,0.5l0,0l-0.5,0.2c-0.2,0.1-0.4,0-0.5-0.2
					C279.6,117.5,279.7,117.3,279.9,117.3z"/>
				<path class="st0" d="M283.2,116.1l0.5-0.2c0.2-0.1,0.4,0,0.5,0.2s0,0.4-0.2,0.5l0,0l-0.5,0.2c-0.2,0.1-0.4,0-0.5-0.2
					C282.9,116.3,283,116.1,283.2,116.1z"/>
				<path class="st0" d="M286.5,114.9l0.5-0.2c0.2-0.1,0.4,0,0.5,0.2s0,0.4-0.2,0.5l0,0l-0.5,0.2c-0.2,0.1-0.4,0-0.5-0.2
					S286.3,114.9,286.5,114.9z"/>
				<path class="st0" d="M289.8,113.6l0.5-0.2c0.2-0.1,0.4,0,0.5,0.2s0,0.4-0.2,0.5l0,0l-0.5,0.2c-0.2,0.1-0.4,0-0.5-0.2
					C289.5,113.9,289.6,113.7,289.8,113.6z"/>
				<path class="st0" d="M293.1,112.4l0.5-0.2c0.2-0.1,0.4,0,0.5,0.2s0,0.4-0.2,0.5l0,0l-0.5,0.2c-0.2,0.1-0.4,0-0.5-0.2
					S292.9,112.5,293.1,112.4z"/>
				<path class="st0" d="M296.4,111.2l0.5-0.2c0.2-0.1,0.4,0,0.5,0.2s0,0.4-0.2,0.5l0,0l-0.5,0.2c-0.2,0.1-0.4,0-0.5-0.2
					C296.1,111.5,296.2,111.3,296.4,111.2z"/>
				<path class="st0" d="M299.7,110l0.5-0.2c0.2-0.1,0.4,0,0.5,0.2s0,0.4-0.2,0.5l0,0l-0.5,0.2c-0.2,0.1-0.4,0-0.5-0.2
					S299.5,110.1,299.7,110z"/>
				<path class="st0" d="M303,108.8l0.5-0.2c0.2-0.1,0.4,0,0.5,0.2s0,0.4-0.2,0.5l-0.5,0.2c-0.2,0.1-0.4,0-0.5-0.2
					S302.8,108.9,303,108.8L303,108.8z"/>
				<path class="st0" d="M306.3,107.6l0.5-0.2c0.2-0.1,0.4,0,0.5,0.2s0,0.4-0.2,0.5l-0.5,0.2c-0.2,0.1-0.4,0-0.5-0.2
					C306,107.9,306.1,107.7,306.3,107.6L306.3,107.6z"/>
				<path class="st0" d="M309.6,106.4l0.5-0.2c0.2-0.1,0.4,0,0.5,0.2s0,0.4-0.2,0.5l-0.5,0.2c-0.2,0.1-0.4,0-0.5-0.2
					S309.4,106.5,309.6,106.4L309.6,106.4z"/>
				<path class="st0" d="M312.9,105.2l0.5-0.2c0.2-0.1,0.4,0,0.5,0.2s0,0.4-0.2,0.5l-0.5,0.2c-0.2,0.1-0.4,0-0.5-0.2
					C312.6,105.5,312.7,105.3,312.9,105.2L312.9,105.2z"/>
				<path class="st0" d="M316.2,104l0.5-0.2c0.2-0.1,0.4,0,0.5,0.2s0,0.4-0.2,0.5l-0.5,0.2c-0.2,0.1-0.4,0-0.5-0.2
					S316,104.1,316.2,104L316.2,104z"/>
				<path class="st0" d="M319.5,102.9l0.5-0.2c0.2-0.1,0.4,0,0.5,0.2s0,0.4-0.2,0.5l-0.5,0.2c-0.2,0.1-0.4,0-0.5-0.2
					S319.3,102.9,319.5,102.9L319.5,102.9z"/>
				<path class="st0" d="M322.8,101.7l0.5-0.2c0.2-0.1,0.4,0,0.5,0.2s0,0.4-0.2,0.5l-0.5,0.2c-0.2,0.1-0.4,0-0.5-0.2
					S322.6,101.7,322.8,101.7L322.8,101.7z"/>
				<path class="st0" d="M326.1,100.5l0.5-0.2c0.2-0.1,0.4,0,0.5,0.2s0,0.4-0.2,0.5l-0.5,0.2c-0.2,0.1-0.4,0-0.5-0.2
					C325.8,100.7,325.9,100.5,326.1,100.5L326.1,100.5z"/>
				<path class="st0" d="M329.4,99.3l0.5-0.2c0.2-0.1,0.4,0,0.5,0.2s0,0.4-0.2,0.5l-0.5,0.2c-0.2,0.1-0.4,0-0.5-0.2
					C329.1,99.5,329.2,99.3,329.4,99.3L329.4,99.3z"/>
				<path class="st0" d="M332.7,98.1l0.5-0.2c0.2-0.1,0.4,0,0.4,0.2c0.1,0.2,0,0.4-0.2,0.4l-0.5,0.2c-0.2,0.1-0.4,0-0.4-0.2
					C332.4,98.3,332.5,98.1,332.7,98.1L332.7,98.1z"/>
				<path class="st0" d="M336,96.9l0.5-0.2c0.2-0.1,0.4,0,0.4,0.2c0.1,0.2,0,0.4-0.2,0.4l-0.5,0.2c-0.2,0.1-0.4,0-0.4-0.2
					C335.7,97.1,335.8,96.9,336,96.9L336,96.9z"/>
				<path class="st0" d="M339.3,95.7l0.5-0.2c0.2-0.1,0.4,0,0.4,0.2s0,0.4-0.2,0.4l-0.5,0.2c-0.2,0.1-0.4,0-0.4-0.2
					C339,95.9,339.1,95.7,339.3,95.7L339.3,95.7z"/>
				<path class="st0" d="M342.6,94.5l0.5-0.2c0.2-0.1,0.4,0,0.4,0.2c0.1,0.2,0,0.4-0.2,0.4l-0.5,0.2c-0.2,0.1-0.4,0-0.4-0.2
					S342.4,94.5,342.6,94.5L342.6,94.5z"/>
				<path class="st0" d="M345.8,93.3l0.5-0.2c0.2-0.1,0.4,0,0.4,0.2c0.1,0.2,0,0.4-0.2,0.4l-0.5,0.2c-0.2,0.1-0.4,0-0.4-0.2
					S345.7,93.3,345.8,93.3L345.8,93.3z"/>
				<path class="st0" d="M349.1,92.1l0.5-0.2c0.2-0.1,0.4,0,0.4,0.2c0.1,0.2,0,0.4-0.2,0.4l-0.5,0.2c-0.2,0.1-0.4,0-0.4-0.2
					S349,92.1,349.1,92.1L349.1,92.1z"/>
				<path class="st0" d="M352.4,90.9l0.5-0.2c0.2-0.1,0.4,0,0.4,0.2c0.1,0.2,0,0.4-0.2,0.4l-0.5,0.2c-0.2,0.1-0.4,0-0.4-0.2
					C352.2,91.1,352.3,90.9,352.4,90.9L352.4,90.9z"/>
				<path class="st0" d="M355.7,89.7l0.5-0.2c0.2-0.1,0.4,0,0.4,0.2c0.1,0.2,0,0.4-0.2,0.4l-0.5,0.2c-0.2,0.1-0.4,0-0.4-0.2
					C355.5,89.9,355.6,89.7,355.7,89.7L355.7,89.7z"/>
				<path class="st0" d="M359,88.5l0.5-0.2c0.2-0.1,0.4,0,0.4,0.2c0.1,0.2,0,0.4-0.2,0.4l-0.5,0.2c-0.2,0.1-0.4,0-0.4-0.2
					S358.9,88.5,359,88.5L359,88.5z"/>
				<path class="st0" d="M362.3,87.3l0.5-0.2c0.2-0.1,0.4,0,0.4,0.2c0.1,0.2,0,0.4-0.2,0.4l-0.5,0.2c-0.2,0.1-0.4,0-0.4-0.2
					C362.1,87.5,362.2,87.3,362.3,87.3L362.3,87.3z"/>
				<path class="st0" d="M365.6,86.1l0.5-0.2c0.2-0.1,0.4,0,0.4,0.2c0.1,0.2,0,0.4-0.2,0.4l-0.5,0.2c-0.2,0.1-0.4,0-0.4-0.2
					S365.5,86.1,365.6,86.1L365.6,86.1z"/>
				<path class="st0" d="M368.9,84.9l0.5-0.2c0.2-0.1,0.3,0,0.4,0.2s0,0.3-0.2,0.4l-0.5,0.2c-0.2,0.1-0.3,0-0.4-0.2
					C368.7,85.1,368.8,85,368.9,84.9L368.9,84.9z"/>
				<path class="st0" d="M372.2,83.7l0.5-0.2c0.2-0.1,0.3,0,0.4,0.2s0,0.3-0.2,0.4l-0.5,0.2c-0.2,0.1-0.3,0-0.4-0.2
					C372,83.9,372.1,83.8,372.2,83.7L372.2,83.7z"/>
				<path class="st0" d="M375.5,82.5l0.5-0.2c0.2-0.1,0.3,0,0.4,0.2s0,0.3-0.2,0.4l-0.5,0.2c-0.2,0.1-0.3,0-0.4-0.2
					C375.3,82.7,375.4,82.6,375.5,82.5L375.5,82.5z"/>
				<path class="st0" d="M378.8,81.3l0.5-0.2c0.2-0.1,0.3,0,0.4,0.2s0,0.3-0.2,0.4l-0.5,0.2c-0.2,0.1-0.3,0-0.4-0.2
					C378.6,81.5,378.7,81.4,378.8,81.3L378.8,81.3z"/>
				<path class="st0" d="M382.1,80.1l0.5-0.2c0.2-0.1,0.3,0,0.4,0.2s0,0.3-0.2,0.4l-0.5,0.2c-0.2,0.1-0.3,0-0.4-0.2
					C381.9,80.3,382,80.2,382.1,80.1L382.1,80.1z"/>
				<path class="st0" d="M385.4,78.9l0.5-0.2c0.2-0.1,0.3,0,0.4,0.2s0,0.3-0.2,0.4l-0.5,0.2c-0.2,0.1-0.3,0-0.4-0.2
					C385.2,79.1,385.3,79,385.4,78.9L385.4,78.9z"/>
				<path class="st0" d="M388.7,77.7l0.5-0.2c0.2-0.1,0.3,0,0.4,0.2s0,0.3-0.2,0.4l-0.5,0.2c-0.2,0.1-0.3,0-0.4-0.2
					S388.6,77.8,388.7,77.7L388.7,77.7z"/>
				<path class="st0" d="M392,76.5l0.5-0.2c0.2-0.1,0.3,0,0.4,0.2s0,0.3-0.2,0.4l-0.5,0.2c-0.2,0.1-0.3,0-0.4-0.2
					C391.8,76.7,391.9,76.6,392,76.5L392,76.5z"/>
				<path class="st0" d="M395.3,75.3l0.5-0.2c0.2-0.1,0.3,0,0.4,0.2s0,0.3-0.2,0.4l-0.5,0.2c-0.2,0.1-0.3,0-0.4-0.2
					C395.1,75.5,395.2,75.4,395.3,75.3L395.3,75.3z"/>
				<path class="st0" d="M398.6,74.1l0.5-0.2c0.2-0.1,0.3,0,0.4,0.2s0,0.3-0.2,0.4l-0.5,0.2c-0.2,0.1-0.3,0-0.4-0.2
					C398.4,74.3,398.5,74.2,398.6,74.1L398.6,74.1z"/>
				<path class="st0" d="M401.9,72.9l0.5-0.2c0.2-0.1,0.3,0,0.4,0.2s0,0.3-0.2,0.4l-0.5,0.2c-0.2,0.1-0.3,0-0.4-0.2
					C401.7,73.1,401.8,73,401.9,72.9L401.9,72.9z"/>
				<path class="st0" d="M405.2,71.7l0.5-0.2c0.1-0.1,0.3,0,0.4,0.2c0.1,0.1,0,0.3-0.2,0.4l-0.5,0.2c-0.1,0.1-0.3,0-0.4-0.2
					C405,71.9,405.1,71.8,405.2,71.7L405.2,71.7z"/>
				<path class="st0" d="M408.5,70.5l0.5-0.2c0.1-0.1,0.3,0,0.4,0.2c0.1,0.1,0,0.3-0.2,0.4l-0.5,0.2c-0.1,0.1-0.3,0-0.4-0.2
					C408.3,70.7,408.4,70.6,408.5,70.5L408.5,70.5z"/>
				<path class="st0" d="M411.8,69.3l0.5-0.2c0.1-0.1,0.3,0,0.4,0.2c0.1,0.1,0,0.3-0.2,0.4l-0.5,0.2c-0.1,0.1-0.3,0-0.4-0.2
					C411.6,69.5,411.7,69.4,411.8,69.3L411.8,69.3z"/>
				<path class="st0" d="M415.1,68.1l0.5-0.2c0.1-0.1,0.3,0,0.4,0.2c0.1,0.1,0,0.3-0.2,0.4l-0.5,0.2c-0.1,0.1-0.3,0-0.4-0.2
					C414.9,68.3,415,68.2,415.1,68.1L415.1,68.1z"/>
				<path class="st0" d="M418.4,66.9l0.5-0.2c0.1-0.1,0.3,0,0.4,0.2s0,0.3-0.2,0.4l-0.5,0.2c-0.1,0.1-0.3,0-0.4-0.2
					C418.2,67.1,418.3,67,418.4,66.9L418.4,66.9z"/>
				<path class="st0" d="M421.7,65.7l0.5-0.2c0.1-0.1,0.3,0,0.4,0.2s0,0.3-0.2,0.4l-0.5,0.2c-0.1,0.1-0.3,0-0.4-0.2
					C421.5,65.9,421.6,65.8,421.7,65.7L421.7,65.7z"/>
				<path class="st0" d="M425,64.5l0.5-0.2c0.1-0.1,0.3,0,0.3,0.2c0.1,0.1,0,0.3-0.2,0.3l-0.5,0.2c-0.1,0.1-0.3,0-0.3-0.2
					C424.8,64.7,424.9,64.6,425,64.5L425,64.5z"/>
				<path class="st0" d="M428.3,63.3l0.5-0.2c0.1-0.1,0.3,0,0.3,0.2c0.1,0.1,0,0.3-0.2,0.3l-0.5,0.2c-0.1,0.1-0.3,0-0.3-0.2
					C428.1,63.5,428.2,63.4,428.3,63.3L428.3,63.3z"/>
				<path class="st0" d="M431.6,62.1l0.5-0.2c0.1-0.1,0.3,0,0.3,0.2c0.1,0.1,0,0.3-0.2,0.3l-0.5,0.2c-0.1,0.1-0.3,0-0.3-0.2
					C431.4,62.3,431.5,62.2,431.6,62.1L431.6,62.1z"/>
				<path class="st0" d="M434.9,60.9l0.5-0.2c0.1,0,0.3,0,0.3,0.2c0,0.1,0,0.3-0.2,0.3l-0.5,0.2c-0.1,0-0.3,0-0.3-0.2
					C434.7,61.1,434.8,61,434.9,60.9L434.9,60.9z"/>
				<path class="st0" d="M438.2,59.7l0.5-0.2c0.1,0,0.3,0,0.3,0.2c0,0.1,0,0.3-0.2,0.3l-0.5,0.2c-0.1,0-0.3,0-0.3-0.2
					C438,59.9,438.1,59.8,438.2,59.7L438.2,59.7z"/>
				<path class="st0" d="M441.5,58.5l0.5-0.2c0.1,0,0.3,0,0.3,0.2c0,0.1,0,0.3-0.2,0.3l-0.5,0.2c-0.1,0-0.3,0-0.3-0.2
					S441.4,58.6,441.5,58.5L441.5,58.5z"/>
				<path class="st0" d="M444.8,57.3l0.5-0.2c0.1,0,0.3,0,0.3,0.2c0,0.1,0,0.3-0.2,0.3l-0.5,0.2c-0.1,0-0.3,0-0.3-0.2
					C444.6,57.5,444.7,57.4,444.8,57.3L444.8,57.3z"/>
				<path class="st0" d="M448.1,56.2l0.5-0.2c0.1,0,0.3,0,0.3,0.2s0,0.3-0.2,0.3l-0.5,0.2c-0.1,0-0.3,0-0.3-0.2
					C447.9,56.3,448,56.2,448.1,56.2L448.1,56.2z"/>
				<path class="st0" d="M451.4,55l0.5-0.2c0.1,0,0.3,0,0.3,0.1s0,0.3-0.1,0.3l-0.5,0.2c-0.1,0-0.3,0-0.3-0.1
					C451.2,55.1,451.3,55,451.4,55L451.4,55z"/>
				<path class="st0" d="M454.7,53.8l0.5-0.2c0.1,0,0.3,0,0.3,0.1s0,0.3-0.1,0.3l-0.5,0.2c-0.1,0-0.3,0-0.3-0.1
					C454.5,53.9,454.6,53.8,454.7,53.8L454.7,53.8z"/>
				<path class="st0" d="M458,52.6l0.5-0.2c0.1,0,0.3,0,0.3,0.1s0,0.3-0.1,0.3l-0.5,0.2c-0.1,0-0.3,0-0.3-0.1
					C457.8,52.7,457.9,52.6,458,52.6L458,52.6z"/>
				<path class="st0" d="M461.3,51.4l0.5-0.2c0.1,0,0.3,0,0.3,0.1s0,0.3-0.1,0.3l-0.5,0.2c-0.1,0-0.3,0-0.3-0.1
					C461.1,51.5,461.2,51.4,461.3,51.4L461.3,51.4z"/>
				<path class="st0" d="M464.6,50.2l0.5-0.2c0.1,0,0.3,0,0.3,0.1s0,0.3-0.1,0.3l-0.5,0.2c-0.1,0-0.3,0-0.3-0.1
					C464.4,50.3,464.5,50.2,464.6,50.2L464.6,50.2z"/>
				<path class="st0" d="M467.9,49l0.5-0.2c0.1,0,0.3,0,0.3,0.1s0,0.3-0.1,0.3l-0.5,0.2c-0.1,0-0.3,0-0.3-0.1
					C467.7,49.1,467.8,49,467.9,49L467.9,49z"/>
				<path class="st0" d="M471.2,47.8l0.5-0.2c0.1,0,0.3,0,0.3,0.1s0,0.3-0.1,0.3l-0.5,0.2c-0.1,0-0.3,0-0.3-0.1
					C471,47.9,471.1,47.8,471.2,47.8L471.2,47.8z"/>
				<path class="st0" d="M474.5,46.6l0.5-0.2c0.1,0,0.3,0,0.3,0.1s0,0.3-0.1,0.3l-0.5,0.2c-0.1,0-0.3,0-0.3-0.1
					C474.3,46.7,474.4,46.6,474.5,46.6L474.5,46.6z"/>
				<path class="st0" d="M477.8,45.4l0.5-0.2c0.1,0,0.2,0,0.3,0.1s0,0.2-0.1,0.3l-0.5,0.2c-0.1,0-0.2,0-0.3-0.1
					C477.6,45.5,477.7,45.4,477.8,45.4L477.8,45.4z"/>
				<path class="st0" d="M481.1,44.2l0.5-0.2c0.1,0,0.2,0,0.3,0.1s0,0.2-0.1,0.3l-0.5,0.2c-0.1,0-0.2,0-0.3-0.1
					C480.9,44.3,481,44.2,481.1,44.2L481.1,44.2z"/>
				<path class="st0" d="M484.4,43l0.5-0.2c0.1,0,0.2,0,0.3,0.1s0,0.2-0.1,0.3l-0.5,0.2c-0.1,0-0.2,0-0.3-0.1
					C484.2,43.1,484.3,43,484.4,43L484.4,43z"/>
				<path class="st0" d="M487.7,41.8l0.5-0.2c0.1,0,0.2,0,0.3,0.1c0,0.1,0,0.2-0.1,0.3l-0.5,0.2c-0.1,0-0.2,0-0.3-0.1
					C487.5,41.9,487.6,41.8,487.7,41.8L487.7,41.8z"/>
				<path class="st0" d="M491,40.6l0.5-0.2c0.1,0,0.2,0,0.3,0.1c0,0.1,0,0.2-0.1,0.3l-0.5,0.2c-0.1,0-0.2,0-0.3-0.1
					C490.8,40.7,490.9,40.6,491,40.6L491,40.6z"/>
				<path class="st0" d="M494.3,39.4l0.5-0.2c0.1,0,0.2,0,0.3,0.1c0,0.1,0,0.2-0.1,0.3l-0.5,0.2c-0.1,0-0.2,0-0.3-0.1
					S494.2,39.4,494.3,39.4L494.3,39.4z"/>
				<path class="st0" d="M497.6,38.2l0.5-0.2c0.1,0,0.2,0,0.3,0.1s0,0.2-0.1,0.3l-0.5,0.2c-0.1,0-0.2,0-0.3-0.1
					C497.4,38.4,497.5,38.2,497.6,38.2L497.6,38.2z"/>
				<path class="st0" d="M500.9,37l0.5-0.2c0.1,0,0.2,0,0.3,0.1c0,0.1,0,0.2-0.1,0.3l-0.5,0.2c-0.1,0-0.2,0-0.3-0.1
					S500.8,37,500.9,37L500.9,37z"/>
				<path class="st0" d="M504.2,35.8l0.5-0.2c0.1,0,0.2,0,0.3,0.1s0,0.2-0.1,0.3l-0.5,0.2c-0.1,0-0.2,0-0.3-0.1
					C504,36,504,35.8,504.2,35.8L504.2,35.8z"/>
				<path class="st0" d="M507.5,34.6l0.5-0.2c0.1,0,0.2,0,0.3,0.1c0,0.1,0,0.2-0.1,0.3l-0.5,0.2c-0.1,0-0.2,0-0.3-0.1
					C507.3,34.8,507.3,34.6,507.5,34.6L507.5,34.6z"/>
				<path class="st0" d="M510.8,33.4l0.5-0.2c0.1,0,0.2,0,0.3,0.1c0,0.1,0,0.2-0.1,0.3l-0.5,0.2c-0.1,0-0.2,0-0.3-0.1
					S510.6,33.4,510.8,33.4L510.8,33.4z"/>
				<path class="st0" d="M514.1,32.2l0.5-0.2c0.1,0,0.2,0,0.3,0.1c0,0.1,0,0.2-0.1,0.3l-0.5,0.2c-0.1,0-0.2,0-0.3-0.1
					S513.9,32.2,514.1,32.2L514.1,32.2z"/>
				<path class="st0" d="M517.3,31l0.5-0.2c0.1,0,0.2,0,0.2,0.1s0,0.2-0.1,0.2l-0.5,0.2c-0.1,0-0.2,0-0.2-0.1
					C517.2,31.2,517.2,31,517.3,31L517.3,31z"/>
				<path class="st0" d="M520.6,29.8l0.5-0.2c0.1,0,0.2,0,0.2,0.1s0,0.2-0.1,0.2l-0.5,0.2c-0.1,0-0.2,0-0.2-0.1
					C520.5,30,520.5,29.8,520.6,29.8L520.6,29.8z"/>
				<path class="st0" d="M523.9,28.6l0.5-0.2c0.1,0,0.2,0,0.2,0.1s0,0.2-0.1,0.2l-0.5,0.2c-0.1,0-0.2,0-0.2-0.1
					C523.8,28.8,523.8,28.6,523.9,28.6L523.9,28.6z"/>
				<path class="st0" d="M527.2,27.4l0.5-0.2c0.1,0,0.2,0,0.2,0.1s0,0.2-0.1,0.2l-0.5,0.2c-0.1,0-0.2,0-0.2-0.1
					C527.1,27.6,527.1,27.4,527.2,27.4L527.2,27.4z"/>
				<path class="st0" d="M530.5,26.2L531,26c0.1,0,0.2,0,0.2,0.1s0,0.2-0.1,0.2l-0.5,0.2c-0.1,0-0.2,0-0.2-0.1
					C530.4,26.4,530.5,26.3,530.5,26.2L530.5,26.2z"/>
				<path class="st0" d="M533.8,25l0.5-0.2c0.1,0,0.2,0,0.2,0.1s0,0.2-0.1,0.2l-0.5,0.2c-0.1,0-0.2,0-0.2-0.1
					C533.7,25.2,533.8,25.1,533.8,25L533.8,25z"/>
				<path class="st0" d="M537.1,23.8l0.5-0.2c0.1,0,0.2,0,0.2,0.1s0,0.2-0.1,0.2l-0.5,0.2c-0.1,0-0.2,0-0.2-0.1
					C537,24,537.1,23.9,537.1,23.8L537.1,23.8z"/>
				<path class="st0" d="M540.4,22.6l0.5-0.2c0.1,0,0.2,0,0.2,0.1s0,0.2-0.1,0.2l-0.5,0.2c-0.1,0-0.2,0-0.2-0.1
					C540.3,22.8,540.4,22.7,540.4,22.6L540.4,22.6z"/>
				<path class="st0" d="M543.7,21.5l0.5-0.2c0.1,0,0.2,0,0.2,0.1s0,0.2-0.1,0.2l-0.5,0.2c-0.1,0-0.2,0-0.2-0.1
					C543.6,21.6,543.7,21.5,543.7,21.5L543.7,21.5z"/>
				<path class="st0" d="M547,20.3l0.5-0.2c0.1,0,0.1,0,0.2,0.1c0,0.1,0,0.1-0.1,0.2l-0.5,0.2c-0.1,0-0.1,0-0.2-0.1
					C546.9,20.4,547,20.3,547,20.3L547,20.3z"/>
				<path class="st0" d="M550.3,19.1l0.5-0.2c0.1,0,0.1,0,0.2,0.1s0,0.1-0.1,0.2l-0.5,0.2c-0.1,0-0.1,0-0.2-0.1
					C550.2,19.2,550.3,19.1,550.3,19.1L550.3,19.1z"/>
				<path class="st0" d="M553.6,17.9l0.5-0.2c0.1,0,0.1,0,0.2,0.1c0,0.1,0,0.1-0.1,0.2l-0.5,0.2c-0.1,0-0.1,0-0.2-0.1
					C553.5,18,553.6,17.9,553.6,17.9L553.6,17.9z"/>
				<path class="st0" d="M556.9,16.7l0.5-0.2c0.1,0,0.1,0,0.1,0.1s0,0.1-0.1,0.1l-0.4,0.2c-0.1,0-0.1,0-0.1-0.1V16.7L556.9,16.7z"/>
				<path class="st0" d="M560.2,15.5l0.5-0.2c0.1,0,0.1,0,0.1,0.1s0,0.1-0.1,0.1l-0.5,0.2c-0.1,0-0.1,0-0.1-0.1
					C560.2,15.6,560.2,15.5,560.2,15.5L560.2,15.5z"/>
				<path class="st0" d="M563.5,14.3l0.5-0.2c0,0,0.1,0,0.1,0.1c0,0,0,0.1-0.1,0.1l-0.5,0.2c-0.1,0-0.1,0-0.1-0.1
					C563.5,14.4,563.5,14.3,563.5,14.3L563.5,14.3z"/>
				<path class="st0" d="M566.8,13.1l0.5-0.2c0,0,0.1,0,0.1,0.1c0,0,0,0.1-0.1,0.1l-0.5,0.2c0,0-0.1,0-0.1-0.1
					C566.8,13.2,566.8,13.1,566.8,13.1L566.8,13.1z"/>
				<path class="st0" d="M570.1,11.9l0.5-0.2h0.1v0.1l-0.5,0.2h-0.1V11.9L570.1,11.9z"/>
				<path class="st0" d="M573.4,10.7l0.5-0.2h0.1v0.1l-0.5,0.2C573.5,10.9,573.4,10.8,573.4,10.7C573.4,10.8,573.4,10.7,573.4,10.7
					L573.4,10.7z"/>
				<path class="st0" d="M576.7,9.5l0.5-0.2h0.1v0.1l-0.5,0.2C576.8,9.7,576.7,9.6,576.7,9.5C576.7,9.6,576.7,9.5,576.7,9.5
					L576.7,9.5z"/>
				<path class="st0" d="M580,8.3l0.5-0.2h0.1v0.1l-0.5,0.2C580.1,8.5,580,8.4,580,8.3C580,8.4,580,8.3,580,8.3L580,8.3z"/>
				<path class="st0" d="M583.3,7.1l0.5-0.2h0.1V7L583.3,7.1C583.4,7.2,583.3,7.2,583.3,7.1C583.3,7.2,583.3,7.1,583.3,7.1
					L583.3,7.1z"/>
				<path class="st0" d="M586.6,5.9l0.5-0.2c0,0,0,0,0.1,0c0,0,0,0,0,0.1L586.6,5.9C586.6,6,586.6,6,586.6,5.9
					C586.6,6,586.6,6,586.6,5.9L586.6,5.9z"/>
				<path class="st0" d="M589.9,4.8l0.5-0.2l0,0l0,0L589.9,4.8L589.9,4.8L589.9,4.8L589.9,4.8z"/>
				<path class="st0" d="M593.2,3.6l0.5-0.2l0,0l0,0L593.2,3.6L593.2,3.6L593.2,3.6L593.2,3.6z"/>
				<path class="st0" d="M596.5,2.4l0.5-0.2l0,0l0,0L596.5,2.4L596.5,2.4L596.5,2.4L596.5,2.4z"/>
				<path class="st0" d="M599.8,1.2l0.5-0.2l0,0l0,0L599.8,1.2L599.8,1.2L599.8,1.2z"/>
				<path class="st0" d="M603.1,0l0.3-0.1L603.1,0z"/>
			</g>
		</g>
	</g>
</g>
<g>
	<g id="circle">
		<ellipse class="st0" cx="300.5" cy="108.4" rx="36" ry="36"/>
	</g>
	<g id="vector">
		<path class="st1" d="M321.1,129.2c0.6,0.2,1.2,0.5,1.7,0.8c0.5,0.5,0.9,1.1,1,1.8v4.1c-2.7,2.3-5.7,4.1-8.9,5.5l2.7-13.2l1.4,0.4
			L321.1,129.2z"/>
		<path class="st1" d="M279.9,129.2c-0.6,0.2-1.2,0.5-1.7,0.8c-0.5,0.5-0.9,1.1-1,1.8v4.1c2.7,2.3,5.7,4.1,8.9,5.5l-2.7-13.2
			l-1.4,0.4L279.9,129.2z"/>
		<path class="st2" d="M312.4,100.5c-2.8,0.3-5.6-0.1-8.2-1.1c-1.8-0.6-3.5-1.7-4.9-3.1c-1.1-1.1-2-2.3-2.8-3.7
			c-1.1,0.1-2.1,0.5-3,0.9c-0.9,0.5-1.6,1-2.3,1.6c-1.4,1.4-2.3,3.1-2.6,4.9v7.3c0,0.8,0.2,1.6,0.5,2.4c0.5,1.5,1.4,3,2.6,4.2
			c1.5,1.9,3.4,3.4,5.5,4.6c0.5,0.3,1.2,0.5,1.8,0.6c1.1,0.3,2.2,0.3,3.2,0c0.6-0.2,1.2-0.4,1.8-0.6c2.2-1.2,4-2.7,5.5-4.6
			c1.2-1.3,2-2.7,2.6-4.2c0.3-0.8,0.4-1.6,0.5-2.4L312.4,100.5z"/>
		<path class="st3" d="M312.5,92.4c-0.1-0.8-0.3-1.7-0.6-2.4c-0.5-1.1-1.2-2.2-2.2-2.9c-1.8-1.5-4.2-2-6.6-2.3
			c-1.4-0.2-2.9-0.3-4.3-0.2c-2.2,0.1-4.3,0.6-6.2,1.6c-1,0.5-1.9,1.3-2.7,2.2c-0.9,1.4-1.4,2.9-1.6,4.4c-0.5,2.4-0.3,5,0.3,7.3
			c0.4-1.9,1.3-3.5,2.6-4.9c0.7-0.6,1.4-1.3,2.3-1.6c1-0.5,2-0.7,3-0.9c0.8,1.4,1.7,2.5,2.8,3.7c1.4,1.4,3.1,2.4,4.9,3.1
			c3.1,1.2,6.8,1.5,9.7,0.7c1.1-0.3,2-0.8,2.8-1.6c-1.1,0.2-2.3-0.1-3.2-0.7c-0.5-0.4-0.9-0.9-1.2-1.4c1.6,0.7,3.4,0.3,4.5-1.1
			c-0.7,0-1.4-0.2-2-0.5C313.9,94.2,313,93.3,312.5,92.4z"/>
		<path class="st2" d="M312.4,100.5c0.2,0,0.3,0,0.5-0.1c0.3,0.3,0.5,0.5,0.7,0.9c0.3,0.6,0.5,1.4,0.4,2.1c-0.1,1.4-0.6,2.9-1.5,4
			L312.4,100.5z"/>
		<path class="st4" d="M295.1,117.3c0.6,0.5,1.3,0.9,2,1.3c0.5,0.3,1.2,0.5,1.8,0.6c1.1,0.3,2.2,0.3,3.2,0c0.6-0.2,1.2-0.4,1.8-0.6
			c0.7-0.4,1.4-0.7,2-1.3v6.6l-5.4,2.9l-5.4-2.9V117.3L295.1,117.3z"/>
		<path class="st1" d="M303.2,130.9c0,0.3-0.1,0.5-0.4,0.5l-0.6,0.4c-0.1,0-0.1,0.1-0.2,0.1h-0.2c0.3,1.5,0.6,3,0.9,4.4l1.8-4.1
			l-4.1-5.5l2.7,3.7v0.5H303.2z"/>
		<path class="st1" d="M296.4,132.3l1.8,4.1c0.3-1.5,0.6-3,0.9-4.4H299c-0.1,0-0.1,0-0.2-0.1l-0.6-0.4c-0.2-0.1-0.4-0.4-0.4-0.6
			v-0.4l2.7-3.7L296.4,132.3L296.4,132.3z"/>
		<path class="st5" d="M311.8,126.5c-1.4-0.5-2.7-1-4.1-1.6l-1.8,6.1c-0.1,0.5-0.4,0.8-0.5,1.2l-0.2,0.2c-0.2,0.3-0.4,0.3-0.5,0
			v-0.1l-1.8,4.1c0.5,2.3,0.9,4.6,1.4,6.9l-0.2,1c3.8-0.4,7.5-1.3,10.9-2.8l2.7-13.2C315.7,127.7,313.7,127.2,311.8,126.5z"/>
		<path class="st5" d="M298.2,136.4l-1.8-4.1v0.1c-0.2,0.3-0.4,0.3-0.5,0l-0.2-0.2c-0.3-0.4-0.5-0.7-0.5-1.2l-1.8-6
			c-1.4,0.5-2.7,1.2-4.1,1.6c-1.9,0.6-3.9,1.2-5.9,1.7l2.7,13.2c3.4,1.5,7.1,2.5,10.9,2.8l-0.2-1C297.3,141,297.8,138.7,298.2,136.4
			z"/>
		<path class="st6" d="M304.7,132.4c0.2,0.3,0.4,0.3,0.5,0l0.2-0.2c0.3-0.4,0.5-0.7,0.5-1.2l1.8-6l-1.8-1l-5.4,2.9L304.7,132.4
			L304.7,132.4z"/>
		<path class="st6" d="M295.6,132.2l0.2,0.2c0.2,0.3,0.4,0.3,0.5,0l4.2-5.6l-5.4-2.9l-1.8,1l1.8,6.1
			C295.2,131.5,295.4,131.8,295.6,132.2z"/>
		<path class="st7" d="M302.8,136.4L302.8,136.4c-0.3-1.5-0.6-3-0.9-4.4h0.2c0.1,0,0.1,0,0.2-0.1l0.6-0.4c0.2-0.1,0.4-0.4,0.4-0.5
			v-0.5l-2.7-3.7l-2.7,3.7v0.5c0,0.3,0.1,0.5,0.4,0.6l0.6,0.4c0.1,0,0.1,0.1,0.2,0.1h0.2c-0.3,1.5-0.6,3-0.9,4.4l0,0
			c-0.5,2.3-0.9,4.6-1.4,6.9l0.2,1c2.3,0.2,4.6,0.2,6.9,0l0.2-1C303.7,141,303.2,138.7,302.8,136.4z"/>
		<path class="st2" d="M288.6,100v7.3c-0.9-1.2-1.4-2.5-1.4-4c-0.1-0.7,0.1-1.4,0.4-2.1C287.7,100.7,288,100.4,288.6,100z"/>
	</g>
	<g id="mouth">
		<line class="st8" x1="298.6" y1="113.4" x2="302.4" y2="113.4"/>
	</g>
</g>
<g id="txt">
	<text transform="matrix(1 0 0 1 292.0389 64.3023)" class="st9 st10">SEE</text>
	<text transform="matrix(1 0 0 1 278.5141 161.5983)" class="st9 st10">SAY &amp; DO</text>
	<text transform="matrix(1 0 0 1 227.1613 109.6949)" class="st9 st10">THINK</text>
	<text transform="matrix(1 0 0 1 343.5916 108.4272)" class="st9 st10">HEAR</text>
	<rect x="228.9" y="24" class="st11" width="143.2" height="39.9"/>
	<text transform="matrix(1 0 0 1 228.877 29.7167)" class="st12 st13">I will search Mexican food</text>
	<text transform="matrix(1 0 0 1 228.877 39.3167)" class="st12 st13">I was noticing the slow cooker I do not have</text>
	<text transform="matrix(1 0 0 1 228.877 48.9167)" class="st12 st13">I am surfing online for a variety of recipes </text>
	<rect x="69.6" y="85.8" class="st11" width="159.6" height="39.9"/>
	<text transform="matrix(1 0 0 1 69.6459 91.5199)" class="st12 st13">I want to learn simple low effort recipe </text>
	<text transform="matrix(1 0 0 1 69.6459 101.1199)" class="st12 st13">I want to have a variety of food</text>
	<text transform="matrix(1 0 0 1 69.6459 110.7199)" class="st12 st13">I want to have healthy food recipes</text>
	<text transform="matrix(1 0 0 1 69.6459 120.3199)" class="st12 st13">What I should buy?</text>
	<text transform="matrix(1 0 0 1 391.073 91.5199)" class="st12 st13">Cooking is taking a long time</text>
	<text transform="matrix(1 0 0 1 391.073 101.1199)" class="st12 st13">Make sure you have the cookware before preparing food </text>
	<text transform="matrix(1 0 0 1 391.073 110.7199)" class="st12 st13">Shopping for ingredients takes time</text>
	<rect x="203.3" y="171.5" class="st11" width="194.3" height="41.1"/>
	<text transform="matrix(1 0 0 1 203.3264 177.2339)" class="st12 st13">I found the recipe online before shopping ingrediants</text>
	<text transform="matrix(1 0 0 1 203.3264 186.8339)" class="st12 st13">I tried one simple recipe </text>
	<text transform="matrix(1 0 0 1 203.3264 196.4339)" class="st12 st13">I ordered groceries online</text>
</g>
<text transform="matrix(1 0 0 1 128.6293 232.4819)" class="st9 st10">PAINS</text>
<text transform="matrix(1 0 0 1 454.5384 228.0224)" class="st9 st10">GAINS</text>
<text transform="matrix(1 0 0 1 43.1998 253.4206)" class="st12 st13">leftover ingredients look moldy after several days</text>
<text transform="matrix(1 0 0 1 43.1998 263.0206)" class="st12 st13">Don&apos;t know what to do with leftover ingredients </text>
<text transform="matrix(1 0 0 1 43.1998 272.6206)" class="st12 st13">what I can do with the ingredients left after cooking?</text>
<text transform="matrix(1 0 0 1 387.2998 253.4206)" class="st12 st13">Have a meal plan for few days not just once</text>
<text transform="matrix(1 0 0 1 387.2998 263.0206)" class="st12 st13">Cooking is fun, but a lot to learn</text>
<text transform="matrix(1 0 0 1 387.2998 274.1247)" class="st12 st13">Enjoy healthy recipe </text>
</svg>
