<svg xmlns="http://www.w3.org/2000/svg" viewBox="0 0 360 360"><defs><style>.cls-1{fill:#ffbf00;stroke:#ffbf00;}.cls-1,.cls-2{stroke-miterlimit:10;}.cls-2{fill:#fff;stroke:#fff;}</style></defs><g id="fill"><path class="cls-1" d="M113.55,34.91h132.9a16.43,16.43,0,0,1,16.43,16.43v82.1a0,0,0,0,1,0,0H97.13a0,0,0,0,1,0,0V51.34A16.43,16.43,0,0,1,113.55,34.91Z"/><path class="cls-1" d="M262.87,139.7V298.38A17.92,17.92,0,0,1,245,316.31H115.05a17.92,17.92,0,0,1-17.92-17.93V139.7Z"/></g><g id="Layer_7" data-name="Layer 7"><rect class="cls-2" x="112.12" y="64.45" width="15.5" height="51.56" rx="7.08"/><rect class="cls-2" x="112.12" y="164.98" width="15.5" height="72.5" rx="7.08"/></g></svg>