<svg xmlns="http://www.w3.org/2000/svg" xmlns:xlink="http://www.w3.org/1999/xlink" width="900" height="1173" viewBox="0 0 900 1173">
  <defs>
    <clipPath id="clip-path">
      <rect id="Rectangle_2279" data-name="Rectangle 2279" width="374" height="808" rx="50" transform="translate(4815 1392)" fill="#3100ff"/>
    </clipPath>
    <filter id="rectangle" x="217" y="143" width="465" height="797" filterUnits="userSpaceOnUse">
      <feOffset dy="5" input="SourceAlpha"/>
      <feGaussianBlur stdDeviation="15" result="blur"/>
      <feFlood flood-opacity="0.051"/>
      <feComposite operator="in" in2="blur"/>
      <feComposite in="SourceGraphic"/>
    </filter>
    <linearGradient id="linear-gradient" x1="0.5" x2="0.5" y2="1" gradientUnits="objectBoundingBox">
      <stop offset="0" stop-color="#ffe28b"/>
      <stop offset="1" stop-color="#ffaea1" stop-opacity="0"/>
    </linearGradient>
    <clipPath id="clip-path-2">
      <circle id="Ellipse_57" data-name="Ellipse 57" cx="133.5" cy="133.5" r="133.5" transform="translate(74 226)" fill="#ffcbc4" opacity="0.2"/>
    </clipPath>
    <linearGradient id="linear-gradient-2" x1="0.5" x2="0.5" y2="1" gradientUnits="objectBoundingBox">
      <stop offset="0" stop-color="#ffcbc4"/>
      <stop offset="1" stop-color="#ffaea1" stop-opacity="0"/>
    </linearGradient>
    <linearGradient id="linear-gradient-5" x1="0.5" x2="0.5" y2="1" gradientUnits="objectBoundingBox">
      <stop offset="0" stop-color="#eb8800"/>
      <stop offset="1" stop-color="#ffba00"/>
    </linearGradient>
    <linearGradient id="linear-gradient-6" y1="0.5" x2="1" y2="0.5" gradientUnits="objectBoundingBox">
      <stop offset="0" stop-color="#f1f3f6" stop-opacity="0.8"/>
      <stop offset="0.194" stop-color="#f8f8f4" stop-opacity="0"/>
      <stop offset="0.79" stop-color="#fff" stop-opacity="0"/>
      <stop offset="1" stop-color="#86613b" stop-opacity="0.102"/>
    </linearGradient>
    <clipPath id="clip-hf_onboarding1">
      <rect width="900" height="1173"/>
    </clipPath>
  </defs>
  <g id="hf_onboarding1" clip-path="url(#clip-hf_onboarding1)">
    <g id="phone-bottom" transform="translate(109)">
      <path id="Path_2462" data-name="Path 2462" d="M60,0H326a60,60,0,0,1,60,60V769a60,60,0,0,1-60,60H60A60,60,0,0,1,0,769V60A60,60,0,0,1,60,0Z" transform="translate(148 172)" fill="#fff"/>
      <path id="Path_2436" data-name="Path 2436" d="M50,0H324a50,50,0,0,1,50,50V758a50,50,0,0,1-50,50H50A50,50,0,0,1,0,758V50A50,50,0,0,1,50,0Z" transform="translate(155 182)" fill="#f5f5f5"/>
      <path id="Path_2434" data-name="Path 2434" d="M40.929,0H332.343a40.929,40.929,0,0,1,40.929,40.929v726.9a40.929,40.929,0,0,1-40.929,40.929H40.929A40.929,40.929,0,0,1,0,767.828V40.929A40.929,40.929,0,0,1,40.929,0Z" transform="translate(155.147 182.355)" fill="none"/>
      <rect id="Rectangle_2199" data-name="Rectangle 2199" width="13" height="10" transform="translate(214 172)" fill="#6b7f99" opacity="0.2"/>
      <rect id="Rectangle_2201" data-name="Rectangle 2201" width="11" height="10" transform="translate(457 172)" fill="#6b7f99" opacity="0.2"/>
      <rect id="Rectangle_2200" data-name="Rectangle 2200" width="13" height="11" transform="translate(214 990)" fill="#6b7f99" opacity="0.2"/>
      <rect id="Rectangle_2202" data-name="Rectangle 2202" width="11" height="11" transform="translate(457 990)" fill="#6b7f99" opacity="0.2"/>
    </g>
    <g id="Mask_Group_128" data-name="Mask Group 128" transform="translate(-4552 -1209)" clip-path="url(#clip-path)">
      <g id="Group_1699" data-name="Group 1699" transform="translate(10 -41)">
        <g id="bg-shadow" transform="translate(4804 1433)">
          <ellipse id="ellipse" cx="149.5" cy="48.5" rx="149.5" ry="48.5" transform="translate(38 610)" opacity="0.15"/>
          <g transform="matrix(1, 0, 0, 1, -262, -183)" filter="url(#rectangle)">
            <path id="rectangle-2" data-name="rectangle" d="M0,0H375a0,0,0,0,1,0,0V671a36,36,0,0,1-36,36H36A36,36,0,0,1,0,671V0A0,0,0,0,1,0,0Z" transform="translate(262 183)" fill="#fff"/>
          </g>
        </g>
        <g id="button" transform="translate(4834 2162)">
          <rect id="rectangle-3" data-name="rectangle" width="315" height="60" rx="30" fill="#fed256"/>
          <g id="text-arrow" transform="translate(40)">
            <text id="START" transform="translate(109 35)" fill="#fff" font-size="14" font-family="Helvetica-Bold, Helvetica" font-weight="700" letter-spacing="-0.01em"><tspan x="0" y="0">START</tspan></text>
            <g id="icon-arrow-small" transform="translate(89 26)">
              <path id="path" d="M1281.487,1163.709l4.157,4.157-4.157,4.157" transform="translate(-1275.794 -1163.709)" fill="none" stroke="#fff" stroke-linecap="round" stroke-linejoin="round" stroke-width="1"/>
              <line id="line" x1="9.326" transform="translate(0 4.155)" fill="none" stroke="#fff" stroke-linecap="round" stroke-width="1"/>
            </g>
          </g>
        </g>
        <text id="MEAL_PLANNER" data-name="MEAL PLANNER" transform="translate(4914 1605)" fill="#505050" font-size="19" font-family="ArialRoundedMTBold, Arial Rounded MT Bold"><tspan x="2.417" y="18">MEAL PLANNER</tspan></text>
        <g id="nva-dot" transform="translate(4966 2071)">
          <circle id="Ellipse_442" data-name="Ellipse 442" cx="5" cy="5" r="5" fill="#eee"/>
        </g>
        <g id="nva-dot-2" data-name="nva-dot" transform="translate(4987 2071)">
          <circle id="Ellipse_442-2" data-name="Ellipse 442" cx="5" cy="5" r="5" fill="#eee"/>
        </g>
        <g id="nva-dot-3" data-name="nva-dot" transform="translate(5008 2071)">
          <circle id="Ellipse_442-3" data-name="Ellipse 442" cx="5" cy="5" r="5" fill="#c7c7c7"/>
        </g>
        <g id="Component_40_17" data-name="Component 40 – 17" transform="translate(4955.621 1535.164)">
          <g id="Path_172" data-name="Path 172" transform="translate(31.533)" fill="#fff">
            <path d="M 20.42309379577637 35.84619522094727 C 16.30343437194824 35.84619522094727 12.43036365509033 34.24191665649414 9.51732349395752 31.32887649536133 C 6.604283809661865 28.41583633422852 5.000003814697266 24.54275512695312 5.000003814697266 20.423095703125 C 5.000003814697266 16.30343627929688 6.604283809661865 12.4303560256958 9.51732349395752 9.517315864562988 C 12.43036365509033 6.604275703430176 16.30344390869141 4.999995708465576 20.42309379577637 4.999995708465576 C 24.54274368286133 4.999995708465576 28.41582298278809 6.604275703430176 31.3288631439209 9.517315864562988 C 34.24190521240234 12.4303560256958 35.84618377685547 16.30343627929688 35.84618377685547 20.423095703125 C 35.84618377685547 24.54275512695312 34.24190521240234 28.41583633422852 31.3288631439209 31.32887649536133 C 28.41582298278809 34.24191665649414 24.54275321960449 35.84619522094727 20.42309379577637 35.84619522094727 Z" stroke="none"/>
            <path d="M 20.42309379577637 10.00000381469727 C 14.6757869720459 10.00000381469727 10.00000190734863 14.67578887939453 10.00000190734863 20.423095703125 C 10.00000190734863 26.17040252685547 14.6757869720459 30.84618759155273 20.42309379577637 30.84618759155273 C 26.17040252685547 30.84618759155273 30.8461856842041 26.17040252685547 30.8461856842041 20.423095703125 C 30.8461856842041 14.67578887939453 26.17040252685547 10.00000381469727 20.42309379577637 10.00000381469727 M 20.42309379577637 3.814697265625e-06 C 31.70246315002441 3.814697265625e-06 40.84618759155273 9.143726348876953 40.84618759155273 20.423095703125 C 40.84618759155273 31.70246505737305 31.70246315002441 40.84618759155273 20.42309379577637 40.84618759155273 C 9.14372444152832 40.84618759155273 0 31.70246505737305 0 20.423095703125 C 0 9.143726348876953 9.14372444152832 3.814697265625e-06 20.42309379577637 3.814697265625e-06 Z" stroke="none" fill="#ffe28b"/>
          </g>
          <path id="Path_170" data-name="Path 170" d="M-722.19,86.186V55.924l18.016,15.836,19.186-15.836V86.186" transform="translate(722.19 -51.821)" fill="none" stroke="#fed256" stroke-linecap="round" stroke-linejoin="round" stroke-width="12"/>
        </g>
        <g id="Illustration" transform="translate(4785 1383)">
          <circle id="Ellipse_40" data-name="Ellipse 40" cx="136" cy="136" r="136" transform="translate(71 281)" opacity="0.2" fill="url(#linear-gradient)"/>
          <g id="Mask_Group_70" data-name="Mask Group 70" transform="translate(0 60)" clip-path="url(#clip-path-2)">
            <g id="Group_265" data-name="Group 265">
              <g id="Group_264" data-name="Group 264" transform="translate(-110 64.936)">
                <g id="Group_227" data-name="Group 227" transform="translate(348.216 258.29)">
                  <path id="Path_504" data-name="Path 504" d="M653.255,329.906s.986,8.543.493,11.5-4.435,11.993-3.121,18.893,8.461,43.453,8.461,43.453.329,1.4,2.875,1.15,19.385-4.765,19.385-4.765.985-.164.411-2.3-9.693-43.371-9.693-43.371-.247-3.861-5.915-10.432c-3.568-4.137-4.436-3.121-6.919-9.444l-2.2-5.588Z" transform="translate(-650.36 -325.689)" fill="#5a6aff"/>
                  <path id="Path_505" data-name="Path 505" d="M655.93,433.124l21.747-5.544,3.1,13.964-22.088,5.746Z" transform="translate(-653.984 -389.831)" fill="#fff" opacity="0.2"/>
                  <path id="Path_506" data-name="Path 506" d="M656.295,320.179l1.566,4.953,2.87-.578-.435-5.035Z" transform="translate(-654.222 -319.518)"/>
                </g>
                <g id="Group_228" data-name="Group 228" transform="translate(364.444 246.62)">
                  <path id="Path_507" data-name="Path 507" d="M712.189,296.542s-1.481,8.471-2.793,11.166-7.658,10.24-8.357,17.229S696.813,369,696.813,369s-.081,1.432,2.43,1.919,19.94.936,19.94.936.992.122,1.047-2.089,3.021-44.338,3.021-44.338.86-3.772-2.709-11.682c-2.247-4.98-3.367-4.252-3.952-11.019l-.522-5.983Z" transform="translate(-696.813 -292.899)" fill="#ffcf86"/>
                  <path id="Path_508" data-name="Path 508" d="M703.895,403.027l22.426.86-.992,14.27-22.811-.762Z" transform="translate(-700.525 -362.185)" fill="#fff" opacity="0.2"/>
                  <path id="Path_509" data-name="Path 509" d="M741.463,286.113l.095,5.193,2.916.261,1.013-4.951Z" transform="translate(-725.865 -286.113)"/>
                </g>
                <g id="Group_230" data-name="Group 230" transform="translate(323.313 285.96)">
                  <path id="Path_510" data-name="Path 510" d="M804.038,471.039l.036,5.291-1.865-2.016Z" transform="translate(-724.259 -445.778)" fill="#6c645b"/>
                  <g id="Group_229" data-name="Group 229" transform="translate(42.179 11.752)">
                    <path id="Path_511" data-name="Path 511" d="M699.811,440.574l.739-8.206,23.55.812Z" transform="translate(-699.811 -432.368)" fill="#ffcf86"/>
                    <path id="Path_512" data-name="Path 512" d="M712.171,488.641l1.2,7.84,14.661-9.71Z" transform="translate(-707.853 -467.766)" fill="#ffcf86"/>
                  </g>
                  <path id="Path_513" data-name="Path 513" d="M579.071,427.94s6.2,3.486,14.462.079,84.46-28.784,84.46-28.784l-4.1,6.994,4.487-1.529s-17.729,38.742-70.364,26.926c0,0-11.4-3.186-16.916,2.23a89.329,89.329,0,0,0-7.355,7.809A15.836,15.836,0,0,0,579.071,427.94Z" transform="translate(-579.071 -399.058)" fill="#0df"/>
                  <path id="Path_514" data-name="Path 514" d="M786.143,444.759,772.5,447.937l4.27,5.615Z" transform="translate(-704.926 -428.679)" fill="#00a2ff"/>
                  <path id="Path_515" data-name="Path 515" d="M802.817,405.845l5.618,16.484s12.505-9.121,15.619-18.136l-4.487,1.529,4.1-6.994Z" transform="translate(-724.655 -398.728)" fill="#00a2ff"/>
                  <circle id="Ellipse_54" data-name="Ellipse 54" cx="2.231" cy="2.231" r="2.231" transform="matrix(0.022, -1, 1, 0.022, 87.342, 9.211)" fill="#f8f8f8"/>
                  <path id="Path_516" data-name="Path 516" d="M834.792,416.55a.871.871,0,1,1-1.152-.786A1.006,1.006,0,0,1,834.792,416.55Z" transform="translate(-744.379 -409.791)" fill="#0a0501"/>
                  <path id="Path_517" data-name="Path 517" d="M591.605,482.17l1.7,3.56-9.553,9.4a19.662,19.662,0,0,0-4.677-13.725Z" transform="translate(-579.071 -452.523)" fill="#6c645b"/>
                </g>
                <g id="Group_231" data-name="Group 231" transform="translate(262.96 225.417)">
                  <path id="Path_518" data-name="Path 518" d="M476.718,363.709s-.453-81.007,0-87.55-17.6-13.087-23.467-16.02-3.611-15.344-3.611-15.344H438.423s2.257,12.41-3.61,15.344-23.918,9.477-23.467,16.021,0,87.55,0,87.55-1.354,9.7,8.124,9.477h49.124C478.072,373.411,476.718,363.709,476.718,363.709Z" transform="translate(-409.542 -238.026)" fill="#c2e0ee"/>
                  <rect id="Rectangle_279" data-name="Rectangle 279" width="11.846" height="6.939" transform="translate(28.599 1.185)" fill="#80afc1"/>
                  <path id="Path_520" data-name="Path 520" d="M497.787,227.786H486.449a1.188,1.188,0,0,1-1.185-1.184h0a1.188,1.188,0,0,1,1.185-1.185h11.339a1.188,1.188,0,0,1,1.185,1.185h0A1.188,1.188,0,0,1,497.787,227.786Z" transform="translate(-457.681 -225.417)" fill="#4a688d"/>
                  <rect id="Rectangle_281" data-name="Rectangle 281" width="67.919" height="8.349" rx="4.174" transform="translate(0.677 107.632)" fill="#80afc1"/>
                  <path id="Path_522" data-name="Path 522" d="M407.5,564.529v9.251s-1.354,7.446,9.477,7.446H468.42s7,.225,7-8.349v-8.349Z" transform="translate(-407.045 -446.065)" fill="#80afc1"/>
                  <ellipse id="Ellipse_55" data-name="Ellipse 55" cx="22.564" cy="1.805" rx="22.564" ry="1.805" transform="translate(12.636 129.971)" fill="#587e89"/>
                  <path id="Path_523" data-name="Path 523" d="M499.113,247.86H487.6a.566.566,0,0,1-.564-.564h0a.566.566,0,0,1,.564-.564h11.508a.566.566,0,0,1,.564.564h0A.565.565,0,0,1,499.113,247.86Z" transform="translate(-458.837 -239.286)" fill="#f7f8f8"/>
                  <path id="Path_524" data-name="Path 524" d="M476.454,332.25H411.919a.453.453,0,0,1-.451-.451h0a.453.453,0,0,1,.451-.451h64.534a.453.453,0,0,1,.451.451h0A.453.453,0,0,1,476.454,332.25Z" transform="translate(-409.664 -294.343)" fill="#f7f8f8"/>
                  <path id="Path_525" data-name="Path 525" d="M476.454,368.422H411.92a.452.452,0,0,1-.451-.451h0a.452.452,0,0,1,.451-.451h64.534a.452.452,0,0,1,.451.451h0A.452.452,0,0,1,476.454,368.422Z" transform="translate(-409.665 -317.879)" fill="#f7f8f8"/>
                  <path id="Path_526" data-name="Path 526" d="M476.457,532.488H411.923a.452.452,0,0,1-.451-.451h0a.453.453,0,0,1,.451-.451h64.534a.452.452,0,0,1,.451.451h0A.452.452,0,0,1,476.457,532.488Z" transform="translate(-409.667 -424.631)" fill="#f7f8f8"/>
                  <rect id="Rectangle_283" data-name="Rectangle 283" width="68.596" height="1.58" rx="0.79" transform="translate(0 117.335)" fill="#f7f8f8"/>
                </g>
                <g id="Group_232" data-name="Group 232" transform="translate(221.49 276.576)">
                  <path id="Path_527" data-name="Path 527" d="M297.45,394.739l-5.42-15.273s-.416-.94-1.173-1.069-4.391-.876-2.911-3.3a2.587,2.587,0,0,1,3.572-1.205s2.178-3.475,4.6-1.328-.517,4.277-.517,4.277-.949.9-.36,1.661,8.281,14.436,8.281,14.436Z" transform="translate(-287.595 -371.865)" fill="url(#linear-gradient-2)"/>
                  <path id="Path_528" data-name="Path 528" d="M315.641,420.09s1.507-1.93-.4-2.668-2.4,2.311-2.4,2.311-1.648-2.048-3.1-.606a2.329,2.329,0,0,0-.648,2.817l-.989-1.257a1.429,1.429,0,0,0-1.927.264,1.632,1.632,0,0,0-.345,1.286c.193,1.792,2.262,2.2,2.262,2.2s-3.836,36.779,16.343,29.513S315.641,420.09,315.641,420.09Z" transform="translate(-299.446 -401.433)" fill="url(#linear-gradient-2)"/>
                  <path id="Path_529" data-name="Path 529" d="M331.62,443.793s-5.308.615-1.326,10.6,4.878,17.321,12.951,11.834S334.113,442.3,331.62,443.793Z" transform="translate(-314.414 -418.611)" fill="url(#linear-gradient-2)"/>
                </g>
                <g id="Group_233" data-name="Group 233" transform="translate(239.745 254.391)">
                  <path id="Path_530" data-name="Path 530" d="M369.448,392.875s5.509,3.073,6.78-3.28,3.144-19.611-4.362-40.781S356.62,305.323,344.818,308.7s.489,37.6,5.374,52.351S360.23,387.122,369.448,392.875Z" transform="translate(-339.849 -308.357)" fill="#ffde0a"/>
                  <g id="Group_266" data-name="Group 266">
                    <path id="Path_531" data-name="Path 531" d="M355.775,349.446s6.444-2.145,8.2-8.829c0,0,.84-2.254-1.887-.741S351.574,350.408,355.775,349.446Z" transform="translate(-349.418 -328.525)" fill="#fff" opacity="0.5"/>
                    <path id="Path_532" data-name="Path 532" d="M370.923,390.283s6.444-2.145,8.2-8.829c0,0,.84-2.254-1.887-.741S366.723,391.245,370.923,390.283Z" transform="translate(-359.275 -355.096)" fill="#fff" opacity="0.5"/>
                    <path id="Path_533" data-name="Path 533" d="M384.782,434.928a15.4,15.4,0,0,0,9.58-10.814s.938-2.8-2.295-.991S379.758,436,384.782,434.928Z" transform="translate(-368.12 -382.635)" fill="#fff" opacity="0.5"/>
                    <path id="Path_534" data-name="Path 534" d="M400.11,480.448a15.131,15.131,0,0,0,9.616-11.477s.886-3.023-2.416-1.152S394.922,481.456,400.11,480.448Z" transform="translate(-378.04 -411.716)" fill="#fff" opacity="0.5"/>
                  </g>
                </g>
                <g id="Group_235" data-name="Group 235" transform="translate(333.474 275.985)">
                  <g id="Group_234" data-name="Group 234" transform="translate(6.172)">
                    <path id="Path_535" data-name="Path 535" d="M632.589,382.978a61.159,61.159,0,0,1-4.846,9s-4.484,3.365.264,1.138S633.37,380.731,632.589,382.978Z" transform="translate(-625.827 -378.295)" fill="#09453c"/>
                    <path id="Path_536" data-name="Path 536" d="M639.15,370.173s-6.484,3.665-5.329,14.277C633.821,384.45,635.76,374.757,639.15,370.173Z" transform="translate(-630.939 -370.173)" fill="#03272c"/>
                    <path id="Path_537" data-name="Path 537" d="M629.122,393.253a23.236,23.236,0,0,0-.073-5.317c-.4-2.19,1.592-6.171,1.592-6.171A12.91,12.91,0,0,1,629.122,393.253Z" transform="translate(-627.889 -377.716)" fill="#345948"/>
                  </g>
                  <path id="Path_538" data-name="Path 538" d="M616.283,406.155s-7.536-.66-7.71,4.994-1.161,31.565.708,31.165,12.908-22.033,13.673-30.906C622.954,411.408,623.243,405.623,616.283,406.155Z" transform="translate(-608.157 -393.563)" fill="#ff6e00"/>
                </g>
                <g id="Group_242" data-name="Group 242" transform="translate(285.798 292.108)">
                  <g id="Group_237" data-name="Group 237" transform="translate(0 0)">
                    <g id="Group_236" data-name="Group 236" transform="translate(8.391)">
                      <rect id="Rectangle_284" data-name="Rectangle 284" width="0.96" height="8.497" transform="matrix(0.949, -0.316, 0.316, 0.949, 0, 0.303)" fill="#009f0b"/>
                    </g>
                    <path id="Path_539" data-name="Path 539" d="M483.408,430.777s-11.324-2.687-11.707,5.758,5.374,16.505,16.122,15.354,13.434-21.88,4.222-23.991C492.045,427.9,485.135,425.6,483.408,430.777Z" transform="translate(-471.682 -423.524)" fill="#009f0b"/>
                    <path id="Path_540" data-name="Path 540" d="M494.88,428.51s0-4.222-5.566-4.606C489.314,423.9,489.314,427.167,494.88,428.51Z" transform="translate(-483.155 -421.257)" fill="#009f0b"/>
                  </g>
                  <g id="Group_239" data-name="Group 239" transform="translate(19.562 4.583)">
                    <g id="Group_238" data-name="Group 238" transform="translate(18.184 2.286)">
                      <rect id="Rectangle_285" data-name="Rectangle 285" width="8.497" height="0.96" transform="translate(0 6.09) rotate(-45.783)" fill="#776764"/>
                    </g>
                    <path id="Path_541" data-name="Path 541" d="M547.149,437.887s-2.815-11.292-10.493-7.754-12.192,12.356-6.232,21.374,25.606,1.882,23.25-7.271C553.674,444.236,552.545,437.041,547.149,437.887Z" transform="translate(-527.68 -429.447)" fill="#009f0b"/>
                    <path id="Path_542" data-name="Path 542" d="M582.731,440.459s3.75-1.94,1.535-7.06C584.265,433.4,581.367,434.9,582.731,440.459Z" transform="translate(-563.262 -432.018)" fill="#0a4236"/>
                  </g>
                  <g id="Group_241" data-name="Group 241" transform="translate(45.774 10.438)">
                    <path id="Path_544" data-name="Path 544" d="M617.787,457.221s-3.751-1.939-1.535-7.06C616.252,450.161,619.15,451.66,617.787,457.221Z" transform="translate(-611.067 -448.78)" fill="#0a4236"/>
                  </g>
                </g>
                <g id="Group_245" data-name="Group 245" transform="translate(214.58 314.984)">
                  <path id="Path_545" data-name="Path 545" d="M411.677,507.152v87.836l-99.54,0,0-112.375,99.54,0Z" transform="translate(-296.653 -482.333)" fill="url(#linear-gradient-5)"/>
                  <g id="Group_244" data-name="Group 244" transform="translate(0)">
                    <path id="Path_546" data-name="Path 546" d="M600.69,506.749v87.836l-99.54,0,0-112.375,99.54,0Z" transform="translate(-419.637 -482.071)" fill="#fed256"/>
                    <g id="Group_243" data-name="Group 243">
                      <path id="Path_547" data-name="Path 547" d="M603.218,481.812l17.254,27.048-105.292,0-13.715-27.048Z" transform="translate(-419.843 -481.812)" fill="#fff1c6"/>
                      <path id="Path_548" data-name="Path 548" d="M349.436,481.817l-12.608,27.048-69.015-1.393,15.7-25.654Z" transform="translate(-267.813 -481.815)" fill="#ffe28b"/>
                    </g>
                  </g>
                </g>
              </g>
            </g>
          </g>
        </g>
        <text id="Generate_shopping_list_automatically" data-name="Generate shopping list automatically" transform="translate(4897.25 1954.5)" fill="#505050" font-size="20" font-family="Lato-Regular, Lato" letter-spacing="-0.01em"><tspan x="0" y="20">Generate shopping list </tspan><tspan x="0" y="44">automatically</tspan></text>
      </g>
    </g>
    <g id="phone-top" transform="translate(109)">
      <rect id="Rectangle_2198" data-name="Rectangle 2198" width="374" height="808" rx="50" transform="translate(155 182)" fill="url(#linear-gradient-6)"/>
      <g id="phone_dots_at_top" data-name="phone dots at top" transform="translate(317.479 195.336)">
        <circle id="Ellipse_1" data-name="Ellipse 1" cx="1.5" cy="1.5" r="1.5" transform="translate(5.521 -0.336)" fill="#6b7f99"/>
        <circle id="Ellipse_8" data-name="Ellipse 8" cx="1" cy="1" r="1" transform="translate(-0.479 -0.336)" fill="#6b7f99"/>
        <circle id="Ellipse_2" data-name="Ellipse 2" cx="1" cy="1" r="1" transform="translate(14.521 -0.336)" fill="#6b7f99"/>
        <circle id="Ellipse_3" data-name="Ellipse 3" cx="1" cy="1" r="1" transform="translate(20.521 -0.336)" fill="#6b7f99"/>
        <circle id="Ellipse_4" data-name="Ellipse 4" cx="1" cy="1" r="1" transform="translate(26.521 -0.336)" fill="#6b7f99"/>
        <circle id="Ellipse_5" data-name="Ellipse 5" cx="1" cy="1" r="1" transform="translate(39.521 -0.336)" fill="#6b7f99"/>
        <circle id="Ellipse_7" data-name="Ellipse 7" cx="1.5" cy="1.5" r="1.5" transform="translate(45.521 -0.336)" fill="#6b7f99"/>
        <circle id="Ellipse_6" data-name="Ellipse 6" cx="1.5" cy="1.5" r="1.5" transform="translate(31.521 -0.336)" fill="#6b7f99"/>
      </g>
    </g>
  </g>
</svg>
