<svg id="Layer_1" data-name="Layer 1" xmlns="http://www.w3.org/2000/svg" xmlns:xlink="http://www.w3.org/1999/xlink" viewBox="0 0 360 360"><defs><style>.cls-1,.cls-10,.cls-12,.cls-18,.cls-20,.cls-21,.cls-6,.cls-9{fill:none;}.cls-2{clip-path:url(#clip-path);}.cls-3{clip-path:url(#clip-path-2);}.cls-4{fill:#fee28b;}.cls-5{clip-path:url(#clip-path-3);}.cls-10,.cls-6{stroke:#ffbf00;stroke-linecap:round;}.cls-10,.cls-12,.cls-18,.cls-20,.cls-21,.cls-6,.cls-9{stroke-miterlimit:10;}.cls-6{stroke-width:8px;}.cls-7{clip-path:url(#clip-path-6);}.cls-8{fill:#ffbf00;}.cls-21,.cls-9{stroke:#000;}.cls-18,.cls-9{stroke-width:2px;}.cls-10{stroke-width:5px;}.cls-11{clip-path:url(#clip-path-9);}.cls-12{stroke:#010101;}.cls-13{clip-path:url(#clip-path-12);}.cls-14{clip-path:url(#clip-path-13);}.cls-15{clip-path:url(#clip-path-15);}.cls-16{clip-path:url(#clip-path-17);}.cls-17{clip-path:url(#clip-path-20);}.cls-18,.cls-20{stroke:#febf10;}.cls-19{clip-path:url(#clip-path-21);}</style><clipPath id="clip-path"><circle class="cls-1" cx="195.74" cy="191.28" r="7.23"/></clipPath><clipPath id="clip-path-2"><rect class="cls-1" x="27.13" y="33.64" width="304.25" height="304.25"/></clipPath><clipPath id="clip-path-3"><circle class="cls-1" cx="219.32" cy="191.28" r="7.23"/></clipPath><clipPath id="clip-path-6"><path class="cls-1" d="M150.35,251.18H44.63V98.29H150.35Zm3.24-162.52H119.25v-.53a6.55,6.55,0,0,0-6.53-6.57H83a6.56,6.56,0,0,0-6.56,6.56,4.68,4.68,0,0,0,0,.53H42.16a5.91,5.91,0,0,0-5.9,5.9V254.42a5.9,5.9,0,0,0,5.88,5.88H153.59a5.87,5.87,0,0,0,5.89-5.9V94.56A5.9,5.9,0,0,0,153.59,88.66Z"/></clipPath><clipPath id="clip-path-9"><path class="cls-1" d="M197.13,240.53a4.95,4.95,0,1,1,5-4.95A4.95,4.95,0,0,1,197.13,240.53ZM317.07,50.37H75.68a5.18,5.18,0,0,0-5.19,5.17V83.62h3.38V83A7.43,7.43,0,0,1,81.3,75.6h3V64.7H308.44V219.8H168v31.38H317.07a5.19,5.19,0,0,0,5.19-5.18V55.54A5.19,5.19,0,0,0,317.07,50.37Z"/></clipPath><clipPath id="clip-path-12"><rect class="cls-1" x="167.98" y="116.36" width="111.81" height="58.57"/></clipPath><clipPath id="clip-path-13"><path class="cls-1" d="M165.7,85.94a6.58,6.58,0,0,1,2.28,5V108H279.79V85.94Z"/></clipPath><clipPath id="clip-path-15"><path class="cls-1" d="M171.48,184.11a6.92,6.92,0,0,0-3.5.93v12.47a6.74,6.74,0,0,0,3.5,1,7.07,7.07,0,0,0,6.82-3.33,7.34,7.34,0,0,0,0-7.69A7.07,7.07,0,0,0,171.48,184.11Z"/></clipPath><clipPath id="clip-path-17"><path class="cls-1" d="M254.69,311.09a6.82,6.82,0,1,0,0-13.64H215.31V261.64H176.19v35.81H136.81a6.82,6.82,0,1,0,0,13.64Z"/></clipPath><clipPath id="clip-path-20"><rect class="cls-1" x="-353.45" y="23.75" width="304.25" height="304.25"/></clipPath><clipPath id="clip-path-21"><path class="cls-1" d="M-353.45,309Z"/></clipPath></defs><g class="cls-2"><g class="cls-3"><rect class="cls-4" x="184.71" y="180.26" width="22.06" height="22.06"/></g></g><g class="cls-5"><g class="cls-3"><rect class="cls-4" x="208.29" y="180.26" width="22.06" height="22.06"/></g></g><g class="cls-3"><line class="cls-6" x1="135.27" y1="133.48" x2="88.87" y2="133.48"/><line class="cls-6" x1="135.27" y1="162.76" x2="88.87" y2="162.76"/><line class="cls-6" x1="135.27" y1="191.28" x2="88.87" y2="191.28"/></g><g class="cls-7"><g class="cls-3"><rect class="cls-8" x="32.46" y="77.75" width="130.83" height="186.36"/></g></g><g class="cls-3"><path class="cls-9" d="M150.35,251.18H44.63V98.29H150.35Zm3.24-162.52H119.25v-.53a6.55,6.55,0,0,0-6.53-6.57H83a6.56,6.56,0,0,0-6.56,6.56,4.68,4.68,0,0,0,0,.53H42.16a5.91,5.91,0,0,0-5.9,5.9V254.42a5.9,5.9,0,0,0,5.88,5.88H153.59a5.87,5.87,0,0,0,5.89-5.9V94.56A5.9,5.9,0,0,0,153.59,88.66Z"/><polyline class="cls-10" points="57.69 133.15 65.07 139.18 75.94 122.45"/><polyline class="cls-10" points="57.69 162.06 65.07 168.09 75.94 151.35"/><polyline class="cls-10" points="57.69 190.21 65.07 196.23 75.94 179.5"/></g><g class="cls-11"><g class="cls-3"><rect class="cls-4" x="66.68" y="46.57" width="259.38" height="208.41"/></g></g><g class="cls-3"><path class="cls-12" d="M197.13,240.53a4.95,4.95,0,1,1,5-4.95A4.95,4.95,0,0,1,197.13,240.53ZM317.07,50.37H75.68a5.18,5.18,0,0,0-5.19,5.17V83.62h3.38V83A7.43,7.43,0,0,1,81.3,75.6h3V64.7H308.44V219.8H168v31.38H317.07a5.19,5.19,0,0,0,5.19-5.18V55.54A5.19,5.19,0,0,0,317.07,50.37Z"/></g><g class="cls-13"><rect class="cls-4" x="164.17" y="112.56" width="119.42" height="66.18"/></g><g class="cls-14"><g class="cls-3"><rect class="cls-4" x="161.89" y="82.13" width="121.7" height="29.66"/></g></g><g class="cls-15"><g class="cls-3"><rect class="cls-4" x="164.17" y="180.26" width="19.02" height="22.06"/></g></g><g class="cls-16"><g class="cls-3"><rect class="cls-4" x="126.14" y="257.84" width="139.2" height="57.05"/></g></g><g class="cls-3"><path class="cls-12" d="M254.69,311.09a6.82,6.82,0,1,0,0-13.64H215.31V261.64H176.19v35.81H136.81a6.82,6.82,0,1,0,0,13.64Z"/></g><g class="cls-17"><path class="cls-18" d="M267,261.2a10.34,10.34,0,0,0,4.21-8.33V132.81a10.33,10.33,0,0,0-10.34-10.34H76.11a10.33,10.33,0,0,0-10.3,10.34V252.87A10.33,10.33,0,0,0,76.15,263.2H147a2.36,2.36,0,0,1,2.25,3l-9.76,32.72"/></g><g class="cls-19"><rect class="cls-4" x="76.46" y="130.08" width="15.21" height="14.45"/></g><g class="cls-17"><rect class="cls-20" x="80.26" y="133.88" width="7.61" height="6.85"/></g><g class="cls-19"><rect class="cls-4" x="90.91" y="130.08" width="14.45" height="14.45"/></g><g class="cls-17"><rect class="cls-20" x="94.72" y="133.88" width="6.85" height="6.85"/></g><g class="cls-19"><rect class="cls-4" x="105.36" y="130.08" width="14.45" height="14.45"/></g><g class="cls-17"><rect class="cls-20" x="109.17" y="133.88" width="6.85" height="6.85"/></g><g class="cls-19"><rect class="cls-4" x="248.36" y="221.35" width="14.45" height="14.45"/></g><g class="cls-17"><rect class="cls-20" x="252.17" y="225.15" width="6.85" height="6.85"/><path class="cls-20" d="M78,228.2h59.33V196.4a2.41,2.41,0,0,0-2.4-2.43h-9.76a2.42,2.42,0,0,0-2.41,2.43v31"/><path class="cls-20" d="M109.17,227.44V203.16a2.32,2.32,0,0,0-.7-1.66,2.38,2.38,0,0,0-1.68-.69H97.1a2.37,2.37,0,0,0-2.38,2.35v24.28"/><path class="cls-20" d="M164.69,183.51v-10.7a2.39,2.39,0,0,0-2.38-2.42h-9.69a2.4,2.4,0,0,0-2.38,2.42v25"/><path class="cls-20" d="M193.6,172.6V151.43a2.36,2.36,0,0,0-2.38-2.34h-9.69a2.36,2.36,0,0,0-2.38,2.34v24.28"/><path class="cls-20" d="M221,179.52V166.65a2.31,2.31,0,0,0-.7-1.66,2.43,2.43,0,0,0-1.69-.69h-9.68a2.37,2.37,0,0,0-2.38,2.35V176"/><path class="cls-20" d="M249.12,206.9V145.35a2.27,2.27,0,0,0-.69-1.66,2.37,2.37,0,0,0-1.68-.68h-9.69a2.36,2.36,0,0,0-2.39,2.34v41"/><line class="cls-18" x1="129.7" y1="298.94" x2="206.53" y2="298.94"/><line class="cls-18" x1="192.08" y1="285.24" x2="195.88" y2="298.94"/><line class="cls-20" x1="140.35" y1="242.27" x2="65.81" y2="242.27"/><line class="cls-20" x1="249.12" y1="242.27" x2="271.18" y2="242.27"/></g><g class="cls-17"><path class="cls-21" d="M196.12,260.3A32.32,32.32,0,1,1,228.44,228,32.33,32.33,0,0,1,196.12,260.3Zm0-77.58A45.26,45.26,0,1,0,241.37,228,45.27,45.27,0,0,0,196.11,182.72Z"/><path class="cls-9" d="M178.39,228.2a17.5,17.5,0,0,1,17.49-17.5"/></g><g class="cls-17"><path class="cls-21" d="M267.6,284.38l-33.49-31.84a45,45,0,0,1-12.37,12.78l33.47,31.83a9,9,0,0,0,8.72,2.21,8.9,8.9,0,0,0,6.24-6.43A8.81,8.81,0,0,0,267.6,284.38Z"/></g></svg>