<svg id="Layer_1" data-name="Layer 1" xmlns="http://www.w3.org/2000/svg" xmlns:xlink="http://www.w3.org/1999/xlink" viewBox="0 0 360 360"><defs><style>.cls-1,.cls-11,.cls-6,.cls-7,.cls-8{fill:none;}.cls-2{fill:#ffbf00;stroke:#020202;}.cls-11,.cls-2,.cls-6,.cls-7,.cls-8{stroke-miterlimit:10;}.cls-11,.cls-2,.cls-6{stroke-width:2px;}.cls-3{clip-path:url(#clip-path);}.cls-4{clip-path:url(#clip-path-2);}.cls-5{fill:#fee28b;}.cls-6,.cls-7{stroke:#000;}.cls-8{stroke:#fff;stroke-linecap:round;stroke-width:8px;}.cls-9{clip-path:url(#clip-path-4);}.cls-10{fill:#febf10;}.cls-11{stroke:#febf10;}</style><clipPath id="clip-path"><path class="cls-1" d="M278,203.12H253.63v2.21a16.86,16.86,0,0,1-33.71,0v-2.21H197.13a27.82,27.82,0,0,0-28,27.7v28.62a1.79,1.79,0,0,0,1.84,1.82H302.36a1.79,1.79,0,0,0,1.85-1.82V229.26C304.47,214.82,292.62,203.12,278,203.12Z"/></clipPath><clipPath id="clip-path-2"><rect class="cls-1" x="22.87" y="25.72" width="314.26" height="314.26"/></clipPath><clipPath id="clip-path-4"><path class="cls-1" d="M283,143.12a46.36,46.36,0,0,0-92.71.26,40.85,40.85,0,0,0,.52,7,42.62,42.62,0,0,0,27.89,1.72c12.14-3.3,21.69-11.19,26.73-20.93a49.41,49.41,0,0,0,6.32,5.13C261.69,143.25,273.31,145.49,283,143.12Z"/></clipPath></defs><path class="cls-2" d="M164.37,81.51c0-30.87-31.63-55.95-70.71-55.95S23,50.64,23,81.51s31.62,55.94,70.71,55.94c3.07,0,6.15-.21,9.22-.43l35.27,9.53-2-20.33C153.28,116,164.37,99.83,164.37,81.51Z"/><rect class="cls-1" x="22.87" y="25.72" width="314.26" height="314.26"/><g class="cls-3"><g class="cls-4"><rect class="cls-5" x="165.15" y="199.19" width="142.99" height="65.99"/></g></g><g class="cls-4"><path class="cls-6" d="M278,203.12H253.63v2.21a16.86,16.86,0,0,1-33.71,0v-2.21H197.13a27.82,27.82,0,0,0-28,27.7v28.62a1.79,1.79,0,0,0,1.84,1.82H302.36a1.79,1.79,0,0,0,1.85-1.82V229.26C304.47,214.82,292.62,203.12,278,203.12Z"/><path class="cls-7" d="M236.65,197.5a38.21,38.21,0,0,1-16.5-3.81v10.88c0,9.65,7.34,17.4,16.5,17.4s16.49-7.75,16.49-17.4V193.69A38.16,38.16,0,0,1,236.65,197.5Z"/><line class="cls-8" x1="69.3" y1="61.31" x2="115.66" y2="61.31"/><line class="cls-8" x1="50.45" y1="81.74" x2="135.3" y2="81.74"/><line class="cls-8" x1="69.3" y1="102.16" x2="115.66" y2="102.16"/></g><g class="cls-9"><g class="cls-4"><rect class="cls-10" x="186.36" y="93.13" width="100.56" height="64.42"/></g></g><path class="cls-6" d="M283,143.12a46.36,46.36,0,0,0-92.71.26,40.85,40.85,0,0,0,.52,7c.35.16.72.3,1.08.44.55,26,20.37,46.83,44.76,46.83,24.73,0,44.78-21.46,44.78-47.93a52.41,52.41,0,0,0-.38-6.17C281.7,143.41,282.36,143.27,283,143.12Z"/><line class="cls-11" x1="78.65" y1="138.85" x2="78.73" y2="261.26"/><path class="cls-11" d="M324.64,261.26V78.15c0-8.63-4.5-15.66-10.17-15.66H164.37"/><path class="cls-11" d="M308.81,295H89.58a28.9,28.9,0,0,1-28.92-28.9v-4.88H337.21v5.28A28.29,28.29,0,0,1,308.81,295Z"/><rect class="cls-1" x="22.87" y="25.72" width="314.26" height="314.26"/></svg>