<svg id="Layer_1" data-name="Layer 1" xmlns="http://www.w3.org/2000/svg" xmlns:xlink="http://www.w3.org/1999/xlink" viewBox="0 0 360 360"><defs><style>.cls-1,.cls-10,.cls-5,.cls-9{fill:none;}.cls-2{clip-path:url(#clip-path);}.cls-3{clip-path:url(#clip-path-2);}.cls-4{fill:#fff;}.cls-5{stroke:#121212;stroke-width:2px;}.cls-10,.cls-5,.cls-9{stroke-miterlimit:10;}.cls-6{clip-path:url(#clip-path-3);}.cls-7{clip-path:url(#clip-path-6);}.cls-8{fill:#febf10;}.cls-9{stroke:#010101;}.cls-10{stroke:#000;}.cls-11{clip-path:url(#clip-path-9);}.cls-12{clip-path:url(#clip-path-12);}.cls-13{clip-path:url(#clip-path-15);}.cls-14{clip-path:url(#clip-path-18);}.cls-15{clip-path:url(#clip-path-21);}.cls-16{clip-path:url(#clip-path-24);}.cls-17{clip-path:url(#clip-path-27);}.cls-18{clip-path:url(#clip-path-30);}.cls-19{clip-path:url(#clip-path-33);}.cls-20{clip-path:url(#clip-path-36);}.cls-21{clip-path:url(#clip-path-39);}</style><clipPath id="clip-path"><path class="cls-1" d="M205.24,245.74v26.75a21.23,21.23,0,0,0,21.22,21.25h5.2a4.39,4.39,0,0,1,4.37,4.38v8.64a4.41,4.41,0,0,1-1.27,3.13,4.36,4.36,0,0,1-3.1,1.29h-104a4.36,4.36,0,0,1-4.36-4.37v-8.69a4.38,4.38,0,0,1,4.36-4.38h5.19a21.22,21.22,0,0,0,21.2-21.25V245.74Z"/></clipPath><clipPath id="clip-path-2"><rect class="cls-1" x="11.95" y="14.42" width="335.33" height="335.33"/></clipPath><clipPath id="clip-path-3"><path class="cls-1" d="M293.12,67.37H66.17a7.92,7.92,0,0,0-7.93,7.89V231.6a7.92,7.92,0,0,0,7.93,7.91h61.58v.06a6.06,6.06,0,0,0,6.08,6h91.64a6.06,6.06,0,0,0,6.07-6v-.06h61.58a7.93,7.93,0,0,0,7.94-7.91V75.26A7.94,7.94,0,0,0,293.12,67.37Z"/></clipPath><clipPath id="clip-path-6"><path class="cls-1" d="M133.64,181a.91.91,0,0,0,.65-.26.94.94,0,0,0,.26-.65V158.4a12.87,12.87,0,0,0-13-13h-12v1.12a8.35,8.35,0,0,1-16.68,0v-1.11H81.61a13.84,13.84,0,0,0-13.88,13.86v20.86a.9.9,0,0,0,.92.91Z"/></clipPath><clipPath id="clip-path-9"><rect class="cls-1" x="182.92" y="88.94" width="33.26" height="15.04" rx="5"/></clipPath><clipPath id="clip-path-12"><rect class="cls-1" x="182.92" y="128.88" width="33.26" height="15.04" rx="5"/></clipPath><clipPath id="clip-path-15"><rect class="cls-1" x="182.92" y="168.82" width="33.26" height="15.04" rx="5"/></clipPath><clipPath id="clip-path-18"><rect class="cls-1" x="231.52" y="88.94" width="19.54" height="15.04" rx="5"/></clipPath><clipPath id="clip-path-21"><rect class="cls-1" x="231.52" y="128.88" width="19.54" height="15.04" rx="5"/></clipPath><clipPath id="clip-path-24"><rect class="cls-1" x="231.52" y="168.82" width="19.54" height="15.04" rx="5"/></clipPath><clipPath id="clip-path-27"><path class="cls-1" d="M109.65,140.74v5.71a8.33,8.33,0,0,1-16.65,0v-5.56l.45.34A21.13,21.13,0,0,0,96.33,143a11.28,11.28,0,0,0,2.56,1,10.36,10.36,0,0,0,4.7,0,11.28,11.28,0,0,0,2.56-1,19.94,19.94,0,0,0,2.9-1.78Z"/></clipPath><clipPath id="clip-path-30"><path class="cls-1" d="M118.58,116a30.46,30.46,0,0,1-5.36-11.89,73.35,73.35,0,0,1-23.93,0A30.22,30.22,0,0,1,83.94,116,31.2,31.2,0,0,1,82.62,101a11,11,0,0,1,3.24-5.74c4-3.49,12.42-4.07,15.4-4.07s11.39.58,15.41,4.07a11.07,11.07,0,0,1,3.23,5.72A31.27,31.27,0,0,1,118.58,116Z"/></clipPath><clipPath id="clip-path-33"><path class="cls-1" d="M83.94,126.67a13.88,13.88,0,0,0,.6,3.49,18.13,18.13,0,0,0,3.77,6.16,26.61,26.61,0,0,0,8,6.64,11.28,11.28,0,0,0,2.56,1,10.36,10.36,0,0,0,4.7,0,11.28,11.28,0,0,0,2.56-1,26.49,26.49,0,0,0,8-6.64,18.13,18.13,0,0,0,3.77-6.16,14.34,14.34,0,0,0,.6-3.49V116a30.46,30.46,0,0,1-5.36-11.89,73.35,73.35,0,0,1-23.93,0A30.22,30.22,0,0,1,83.9,116Z"/></clipPath><clipPath id="clip-path-36"><path class="cls-1" d="M118.58,116v10.65a10.84,10.84,0,0,0,2.14-5.84,5.77,5.77,0,0,0-.49-3A5.18,5.18,0,0,0,118.58,116Z"/></clipPath><clipPath id="clip-path-39"><path class="cls-1" d="M83.94,116v10.65a10.72,10.72,0,0,1-2.13-5.84,5.86,5.86,0,0,1,.48-3A5.18,5.18,0,0,1,83.94,116Z"/></clipPath></defs><g class="cls-2"><g class="cls-3"><rect class="cls-4" x="119.1" y="241.55" width="121.12" height="73.82"/></g></g><path class="cls-5" d="M205.24,245.74v26.75a21.23,21.23,0,0,0,21.22,21.25h5.2a4.39,4.39,0,0,1,4.37,4.38v8.64a4.41,4.41,0,0,1-1.27,3.13,4.36,4.36,0,0,1-3.1,1.29h-104a4.36,4.36,0,0,1-4.36-4.37v-8.69a4.38,4.38,0,0,1,4.36-4.38h5.19a21.22,21.22,0,0,0,21.2-21.25V245.74Z"/><rect class="cls-1" x="11.95" y="14.42" width="314.26" height="314.26"/><g class="cls-6"><g class="cls-3"><rect class="cls-4" x="54.05" y="63.18" width="251.2" height="186.6"/></g></g><g class="cls-3"><path class="cls-5" d="M293.12,67.37H66.17a7.92,7.92,0,0,0-7.93,7.89V231.6a7.92,7.92,0,0,0,7.93,7.91h61.58v.06a6.06,6.06,0,0,0,6.08,6h91.64a6.06,6.06,0,0,0,6.07-6v-.06h61.58a7.93,7.93,0,0,0,7.94-7.91V75.26A7.94,7.94,0,0,0,293.12,67.37Z"/></g><g class="cls-7"><g class="cls-3"><rect class="cls-8" x="63.54" y="141.16" width="75.2" height="44.03"/></g></g><g class="cls-3"><path class="cls-9" d="M133.64,181a.91.91,0,0,0,.65-.26.94.94,0,0,0,.26-.65V158.4a12.87,12.87,0,0,0-13-13h-12v1.12a8.35,8.35,0,0,1-16.68,0v-1.11H81.61a13.84,13.84,0,0,0-13.88,13.86v20.86a.9.9,0,0,0,.92.91Z"/><line class="cls-10" x1="62.32" y1="206.37" x2="210.12" y2="206.37"/><line class="cls-10" x1="229.9" y1="206.37" x2="238.58" y2="206.37"/><line class="cls-10" x1="249.45" y1="206.37" x2="297.18" y2="206.37"/></g><g class="cls-11"><g class="cls-3"><rect class="cls-8" x="178.73" y="84.75" width="41.64" height="23.42"/></g></g><g class="cls-3"><rect class="cls-9" x="182.92" y="88.94" width="33.26" height="15.04" rx="5"/></g><g class="cls-12"><g class="cls-3"><rect class="cls-8" x="178.73" y="124.69" width="41.64" height="23.42"/></g></g><g class="cls-3"><rect class="cls-9" x="182.92" y="128.88" width="33.26" height="15.04" rx="5"/></g><g class="cls-13"><g class="cls-3"><rect class="cls-8" x="178.73" y="164.63" width="41.64" height="23.42"/></g></g><g class="cls-3"><rect class="cls-9" x="182.92" y="168.82" width="33.26" height="15.04" rx="5"/></g><g class="cls-14"><g class="cls-3"><rect class="cls-8" x="227.33" y="84.75" width="27.92" height="23.42"/></g></g><g class="cls-3"><rect class="cls-9" x="231.52" y="88.94" width="19.54" height="15.04" rx="5"/></g><g class="cls-15"><g class="cls-3"><rect class="cls-8" x="227.33" y="124.69" width="27.92" height="23.42"/></g></g><g class="cls-3"><rect class="cls-9" x="231.52" y="128.88" width="19.54" height="15.04" rx="5"/></g><g class="cls-16"><g class="cls-3"><rect class="cls-8" x="227.33" y="164.63" width="27.92" height="23.42"/></g></g><g class="cls-3"><rect class="cls-9" x="231.52" y="168.82" width="19.54" height="15.04" rx="5"/></g><g class="cls-17"><g class="cls-3"><rect class="cls-8" x="88.81" y="136.55" width="25.03" height="22.15"/></g></g><g class="cls-3"><path class="cls-9" d="M109.65,140.74v5.71a8.33,8.33,0,0,1-16.65,0v-5.56l.45.34A21.13,21.13,0,0,0,96.33,143a11.28,11.28,0,0,0,2.56,1,10.36,10.36,0,0,0,4.7,0,11.28,11.28,0,0,0,2.56-1,19.94,19.94,0,0,0,2.9-1.78Z"/></g><g class="cls-18"><g class="cls-3"><rect class="cls-8" x="78.04" y="86.96" width="46.44" height="33.25"/></g></g><g class="cls-3"><path class="cls-9" d="M118.58,116a30.46,30.46,0,0,1-5.36-11.89,73.35,73.35,0,0,1-23.93,0A30.15,30.15,0,0,1,83.94,116,31.2,31.2,0,0,1,82.62,101a11,11,0,0,1,3.24-5.74c4-3.49,12.42-4.07,15.4-4.07s11.39.58,15.41,4.07A11.06,11.06,0,0,1,119.9,101,31.24,31.24,0,0,1,118.58,116Z"/></g><g class="cls-19"><g class="cls-3"><rect class="cls-8" x="79.71" y="99.94" width="43.03" height="48.49"/></g></g><g class="cls-3"><path class="cls-9" d="M83.94,126.67a13.88,13.88,0,0,0,.6,3.49,18.13,18.13,0,0,0,3.77,6.16,26.61,26.61,0,0,0,8,6.64,11.28,11.28,0,0,0,2.56,1,10.36,10.36,0,0,0,4.7,0,11.28,11.28,0,0,0,2.56-1,26.49,26.49,0,0,0,8-6.64,18.13,18.13,0,0,0,3.77-6.16,14.34,14.34,0,0,0,.6-3.49V116a30.46,30.46,0,0,1-5.36-11.89,73.35,73.35,0,0,1-23.93,0A30.22,30.22,0,0,1,83.9,116Z"/></g><g class="cls-20"><g class="cls-3"><rect class="cls-8" x="114.39" y="111.83" width="10.55" height="19.03"/></g></g><g class="cls-3"><path class="cls-9" d="M118.58,116v10.65a10.84,10.84,0,0,0,2.14-5.84,5.77,5.77,0,0,0-.49-3A5.18,5.18,0,0,0,118.58,116Z"/></g><g class="cls-21"><g class="cls-3"><rect class="cls-8" x="77.58" y="111.83" width="10.55" height="19.03"/></g></g><path class="cls-9" d="M83.94,116v10.65a10.72,10.72,0,0,1-2.13-5.84,5.88,5.88,0,0,1,.48-3A5.18,5.18,0,0,1,83.94,116Z"/><line class="cls-9" x1="98.49" y1="135.42" x2="104.04" y2="135.42"/><line class="cls-10" x1="181.66" y1="137.25" x2="111.7" y2="137.25"/><line class="cls-10" x1="286.89" y1="96.97" x2="259.16" y2="96.97"/><line class="cls-10" x1="286.89" y1="137.25" x2="259.16" y2="137.25"/><line class="cls-10" x1="259.16" y1="177.54" x2="286.89" y2="177.54"/><path class="cls-10" d="M182.68,97H167.4a10.29,10.29,0,0,0-7.25,3,10.16,10.16,0,0,0-3,7.2v60.19a10.22,10.22,0,0,0,10.25,10.19h15.28"/></svg>