<svg xmlns="http://www.w3.org/2000/svg" xmlns:xlink="http://www.w3.org/1999/xlink" width="900" height="1173" viewBox="0 0 900 1173">
  <defs>
    <clipPath id="clip-path">
      <rect id="Rectangle_2245" data-name="Rectangle 2245" width="374" height="808" rx="50" transform="translate(-5115 5043)" fill="#3100ff"/>
    </clipPath>
    <filter id="rectangle" x="218" y="143" width="465" height="272" filterUnits="userSpaceOnUse">
      <feOffset dy="5" input="SourceAlpha"/>
      <feGaussianBlur stdDeviation="15" result="blur"/>
      <feFlood flood-opacity="0.051"/>
      <feComposite operator="in" in2="blur"/>
      <feComposite in="SourceGraphic"/>
    </filter>
    <filter id="Rectangle_2249" x="287" y="239" width="58" height="50" filterUnits="userSpaceOnUse">
      <feOffset dy="3" input="SourceAlpha"/>
      <feGaussianBlur stdDeviation="3" result="blur-2"/>
      <feFlood flood-opacity="0.071"/>
      <feComposite operator="in" in2="blur-2"/>
      <feComposite in="SourceGraphic"/>
    </filter>
    <linearGradient id="linear-gradient" y1="0.5" x2="1" y2="0.5" gradientUnits="objectBoundingBox">
      <stop offset="0" stop-color="#f1f3f6" stop-opacity="0.8"/>
      <stop offset="0.194" stop-color="#f8f8f4" stop-opacity="0"/>
      <stop offset="0.79" stop-color="#fff" stop-opacity="0"/>
      <stop offset="1" stop-color="#868686" stop-opacity="0.102"/>
    </linearGradient>
    <clipPath id="clip-mf_recipe">
      <rect width="900" height="1173"/>
    </clipPath>
  </defs>
  <g id="mf_recipe" clip-path="url(#clip-mf_recipe)">
    <g id="phone-bottom" transform="translate(109)">
      <path id="Path_2462" data-name="Path 2462" d="M60,0H326a60,60,0,0,1,60,60V769a60,60,0,0,1-60,60H60A60,60,0,0,1,0,769V60A60,60,0,0,1,60,0Z" transform="translate(148 172)" fill="#fff"/>
      <path id="Path_2436" data-name="Path 2436" d="M50,0H324a50,50,0,0,1,50,50V758a50,50,0,0,1-50,50H50A50,50,0,0,1,0,758V50A50,50,0,0,1,50,0Z" transform="translate(155 182)" fill="#f5f5f5"/>
      <path id="Path_2434" data-name="Path 2434" d="M40.929,0H332.343a40.929,40.929,0,0,1,40.929,40.929v726.9a40.929,40.929,0,0,1-40.929,40.929H40.929A40.929,40.929,0,0,1,0,767.828V40.929A40.929,40.929,0,0,1,40.929,0Z" transform="translate(155.147 182.355)" fill="none"/>
      <rect id="Rectangle_2199" data-name="Rectangle 2199" width="13" height="10" transform="translate(214 172)" fill="#6b7f99" opacity="0.2"/>
      <rect id="Rectangle_2201" data-name="Rectangle 2201" width="11" height="10" transform="translate(457 172)" fill="#6b7f99" opacity="0.2"/>
      <rect id="Rectangle_2200" data-name="Rectangle 2200" width="13" height="11" transform="translate(214 990)" fill="#6b7f99" opacity="0.2"/>
      <rect id="Rectangle_2202" data-name="Rectangle 2202" width="11" height="11" transform="translate(457 990)" fill="#6b7f99" opacity="0.2"/>
    </g>
    <g id="Mask_Group_118" data-name="Mask Group 118" transform="translate(5378 -4860)" clip-path="url(#clip-path)">
      <g id="Group_1675" data-name="Group 1675" transform="translate(25 -32)">
        <rect id="photo" width="315" height="212" rx="8" transform="translate(-5110 5606)" fill="#eee"/>
        <rect id="rectangle-2" data-name="rectangle" width="375" height="102" transform="translate(-5140 5785)" fill="#fff"/>
        <g id="bg-shadow" transform="translate(-5140 5075)">
          <ellipse id="ellipse" cx="149.5" cy="48.5" rx="149.5" ry="48.5" transform="translate(38 85)" opacity="0.15"/>
          <g transform="matrix(1, 0, 0, 1, -263, -183)" filter="url(#rectangle)">
            <path id="rectangle-3" data-name="rectangle" d="M0,0H375a0,0,0,0,1,0,0V146a36,36,0,0,1-36,36H36A36,36,0,0,1,0,146V0A0,0,0,0,1,0,0Z" transform="translate(263 183)" fill="#fff"/>
          </g>
        </g>
        <g id="tabbed-nav" transform="translate(-5130 5195)">
          <text id="Utensils" transform="translate(308 31)" fill="#707070" font-size="16" font-family="Helvetica" letter-spacing="-0.01em"><tspan x="-27.893" y="0">Utensils</tspan></text>
          <text id="Ovenware" transform="translate(224 31)" fill="#707070" font-size="16" font-family="Helvetica" letter-spacing="-0.01em"><tspan x="-35.901" y="0">Ovenware</tspan></text>
          <path id="active-tab" d="M26,0H68a26,26,0,0,1,0,52H26A26,26,0,0,1,26,0Z" fill="#eee"/>
          <text id="Bakeware" transform="translate(134 31)" fill="#707070" font-size="16" font-family="Helvetica" letter-spacing="-0.01em"><tspan x="-35.014" y="0">Bakeware</tspan></text>
          <text id="All" transform="translate(47 31)" fill="#707070" font-size="16" font-family="Helvetica" letter-spacing="-0.01em"><tspan x="-8.731" y="0">All</tspan></text>
        </g>
        <text id="Recipe" transform="translate(-4952 5159)" fill="#707070" font-size="20" font-family="Helvetica" letter-spacing="-0.01em"><tspan x="-30.628" y="0">Recipe</tspan></text>
        <text id="Pantry" transform="translate(-4836 5851)" fill="#303030" font-size="7" font-family="HelveticaNeue-Light, Helvetica Neue" font-weight="300"><tspan x="0" y="7">Pantry</tspan></text>
        <text id="Equipment" transform="translate(-4927 5851)" fill="#303030" font-size="7" font-family="HelveticaNeue-Light, Helvetica Neue" font-weight="300"><tspan x="0" y="7">Equipment</tspan></text>
        <text id="Recipe-2" data-name="Recipe" transform="translate(-5090 5851)" fill="#303030" font-size="7" font-family="HelveticaNeue-Bold, Helvetica Neue" font-weight="700"><tspan x="0" y="7">Recipe</tspan></text>
        <text id="Shopping_list" data-name="Shopping list" transform="translate(-5015 5851)" fill="#303030" font-size="7" font-family="HelveticaNeue-Light, Helvetica Neue" font-weight="300"><tspan x="0" y="7">Shopping list</tspan></text>
        <g id="Group_1671" data-name="Group 1671" transform="translate(-4832 5826)">
          <line id="Line_72" data-name="Line 72" x2="15.619" y2="17.2" fill="none" stroke="#ccc" stroke-width="3"/>
          <line id="Line_73" data-name="Line 73" x1="15.619" y2="17.2" fill="none" stroke="#ccc" stroke-width="3"/>
        </g>
        <g id="Group_1672" data-name="Group 1672" transform="translate(-4918 5826)">
          <line id="Line_72-2" data-name="Line 72" x2="15.619" y2="17.2" fill="none" stroke="#ccc" stroke-width="3"/>
          <line id="Line_73-2" data-name="Line 73" x1="15.619" y2="17.2" fill="none" stroke="#ccc" stroke-width="3"/>
        </g>
        <g id="Group_1673" data-name="Group 1673" transform="translate(-5004 5826)">
          <line id="Line_72-3" data-name="Line 72" x2="15.619" y2="17.2" fill="none" stroke="#ccc" stroke-width="3"/>
          <line id="Line_73-3" data-name="Line 73" x1="15.619" y2="17.2" fill="none" stroke="#ccc" stroke-width="3"/>
        </g>
        <g id="Group_1674" data-name="Group 1674" transform="translate(-5086 5826)">
          <line id="Line_72-4" data-name="Line 72" x2="15.619" y2="17.2" fill="none" stroke="#747474" stroke-width="3"/>
          <line id="Line_73-4" data-name="Line 73" x1="15.619" y2="17.2" fill="none" stroke="#747474" stroke-width="3"/>
        </g>
        <rect id="Rectangle_2248" data-name="Rectangle 2248" width="29" height="5" rx="2.5" transform="translate(-5092 5863)" fill="#707070"/>
        <g transform="matrix(1, 0, 0, 1, -5403, 4892)" filter="url(#Rectangle_2249)">
          <rect id="Rectangle_2249-2" data-name="Rectangle 2249" width="40" height="32" rx="8" transform="translate(296 245)" fill="#fff"/>
        </g>
        <path id="Path_2473" data-name="Path 2473" d="M-2957.317,4648.664l-6.17-5.952,6.17-6.048" transform="translate(-2130.923 510.351)" fill="none" stroke="#707070" stroke-linecap="round" stroke-linejoin="round" stroke-width="1"/>
        <path id="Path_2474" data-name="Path 2474" d="M-2952.79,4643.409h11.141" transform="translate(-2141 509.591)" fill="none" stroke="#707070" stroke-linecap="round" stroke-width="1"/>
        <g id="search" transform="translate(-4811.626 5144.643)">
          <circle id="ellipse-2" data-name="ellipse" cx="8.015" cy="8.015" r="8.015" fill="none" stroke="#c7c7c7" stroke-linecap="round" stroke-linejoin="round" stroke-width="1"/>
          <line id="line" x2="4.514" y2="4.514" transform="translate(13.112 14.2)" fill="none" stroke="#c7c7c7" stroke-linecap="round" stroke-linejoin="round" stroke-width="1"/>
        </g>
        <g id="card" transform="translate(-5110 5491)">
          <path id="rectangle-4" data-name="rectangle" d="M0,0H315a0,0,0,0,1,0,0V92a8,8,0,0,1-8,8H8a8,8,0,0,1-8-8V0A0,0,0,0,1,0,0Z" fill="#f5f5f5"/>
        </g>
        <text id="Berries_mixed_together_to_make_a_tasty_dish." data-name="Berries mixed together to make a tasty dish." transform="translate(-5081 5561)" fill="#707070" font-size="14" font-family="Helvetica"><tspan x="0" y="0">Berries mixed together to make a tasty dish.</tspan></text>
        <text id="Mixed_Berry_Melody" data-name="Mixed Berry Melody" transform="translate(-5081 5541)" fill="#707070" font-size="16" font-family="Helvetica" letter-spacing="-0.01em"><tspan x="0" y="0">Mixed Berry Melody</tspan></text>
        <rect id="photo-2" data-name="photo" width="315" height="212" rx="8" transform="translate(-5110 5289)" fill="#eee"/>
      </g>
    </g>
    <g id="phone-top" transform="translate(109)">
      <rect id="Rectangle_2198" data-name="Rectangle 2198" width="374" height="808" rx="50" transform="translate(155 182)" fill="url(#linear-gradient)"/>
      <g id="phone_dots_at_top" data-name="phone dots at top" transform="translate(317.479 195.336)">
        <circle id="Ellipse_1" data-name="Ellipse 1" cx="1.5" cy="1.5" r="1.5" transform="translate(5.521 -0.336)" fill="#9c9c9d"/>
        <circle id="Ellipse_8" data-name="Ellipse 8" cx="1" cy="1" r="1" transform="translate(-0.479 -0.336)" fill="#9c9c9d"/>
        <circle id="Ellipse_2" data-name="Ellipse 2" cx="1" cy="1" r="1" transform="translate(14.521 -0.336)" fill="#9c9c9d"/>
        <circle id="Ellipse_3" data-name="Ellipse 3" cx="1" cy="1" r="1" transform="translate(20.521 -0.336)" fill="#9c9c9d"/>
        <circle id="Ellipse_4" data-name="Ellipse 4" cx="1" cy="1" r="1" transform="translate(26.521 -0.336)" fill="#9c9c9d"/>
        <circle id="Ellipse_5" data-name="Ellipse 5" cx="1" cy="1" r="1" transform="translate(39.521 -0.336)" fill="#9c9c9d"/>
        <circle id="Ellipse_7" data-name="Ellipse 7" cx="1.5" cy="1.5" r="1.5" transform="translate(45.521 -0.336)" fill="#9c9c9d"/>
        <circle id="Ellipse_6" data-name="Ellipse 6" cx="1.5" cy="1.5" r="1.5" transform="translate(31.521 -0.336)" fill="#9c9c9d"/>
      </g>
    </g>
  </g>
</svg>
