<?xml version="1.0" encoding="utf-8"?>
<!-- Generator: Adobe Illustrator 25.2.1, SVG Export Plug-In . SVG Version: 6.00 Build 0)  -->
<svg version="1.1" id="Layer_2_1_" xmlns="http://www.w3.org/2000/svg" xmlns:xlink="http://www.w3.org/1999/xlink" x="0px" y="0px"
	 viewBox="0 0 637 306" style="enable-background:new 0 0 637 306;" xml:space="preserve">
<style type="text/css">
	.st0{fill:#FFBF00;stroke:#FFFFFF;stroke-width:8;stroke-linecap:round;stroke-miterlimit:10;}
	.st1{fill:#FEE28B;stroke:#FFFFFF;stroke-width:8;stroke-miterlimit:10;}
	.st2{fill:#FFFFFF;}
	.st3{fill:#EEEEEE;stroke:#FFFFFF;stroke-width:6;stroke-linejoin:round;}
	.st4{fill:#FFBF00;}
	.st5{fill:#EEEEEE;}
	.st6{fill:#FEE28B;}
	.st7{fill:#5C5C5C;}
	.st8{font-family:'ArialMT';}
	.st9{font-size:13.6051px;}
</style>
<circle class="st0" cx="164.5" cy="170.9" r="87.9"/>
<path class="st1" d="M164.1,170.9c-0.5,0-0.8-0.4-0.8-0.9V76.8c52.1,1.3,93.7,43.9,93.8,96c0,2.8-0.1,5.7-0.4,8.6L164.1,170.9z"/>
<path class="st2" d="M165.6,79.2c49.9,2.5,89.2,43.7,89.2,93.6c0,2-0.1,4-0.2,6.1l-89-10.1V79.2 M161,74.6V170c0,1.6,1.2,3,2.8,3.2
	l94.8,10.8c0.4-3.7,0.6-7.4,0.6-11.1C259.3,118.6,215.3,74.6,161,74.6L161,74.6z"/>
<path class="st3" d="M265.2,184l-24.6-2.9l-76.2-8.7l93.7,38.9C261.8,202.6,264.1,193.4,265.2,184z"/>
<g>
	<path class="st4" d="M453.6,155.2h14.7c2.5,0,4.5,2,4.5,4.5v14.7c0,2.5-2,4.5-4.5,4.5h-14.7c-2.5,0-4.5-2-4.5-4.5v-14.7
		C449.1,157.2,451.1,155.2,453.6,155.2z"/>
	<circle class="st2" cx="461" cy="167.1" r="4.7"/>
</g>
<g>
	<path class="st5" d="M453.6,219.7h14.7c2.5,0,4.5,2,4.5,4.5V239c0,2.5-2,4.5-4.5,4.5h-14.7c-2.5,0-4.5-2-4.5-4.5v-14.7
		C449.1,221.7,451.1,219.7,453.6,219.7z"/>
	<circle class="st2" cx="461" cy="231.6" r="4.7"/>
</g>
<g>
	<path class="st6" d="M453.6,187.4h14.7c2.5,0,4.5,2,4.5,4.5v14.7c0,2.5-2,4.5-4.5,4.5h-14.7c-2.5,0-4.5-2-4.5-4.5V192
		C449.1,189.5,451.1,187.4,453.6,187.4z"/>
	<circle class="st2" cx="461" cy="199.3" r="4.7"/>
</g>
<text transform="matrix(1 0 0 1 485.579 172.4457)" class="st7 st8 st9">Y</text>
<text transform="matrix(1 0 0 1 491.9052 172.4457)" class="st7 st8 st9">es 72%</text>
<text transform="matrix(1 0 0 1 485.579 204.1908)" class="st7 st8 st9">No 20%</text>
<text transform="matrix(1 0 0 1 485.579 235.9359)" class="st7 st8 st9">Not Su</text>
<text transform="matrix(1 0 0 1 523.5936 235.9359)" class="st7 st8 st9">r</text>
<text transform="matrix(1 0 0 1 527.9022 235.9359)" class="st7 st8 st9">e 8%</text>
</svg>
