<?xml version="1.0" encoding="utf-8"?>
<!-- Generator: Adobe Illustrator 25.2.1, SVG Export Plug-In . SVG Version: 6.00 Build 0)  -->
<svg version="1.1" id="Layer_2_1_" xmlns="http://www.w3.org/2000/svg" xmlns:xlink="http://www.w3.org/1999/xlink" x="0px" y="0px"
	 viewBox="0 0 637 306" style="enable-background:new 0 0 637 306;" xml:space="preserve">
<style type="text/css">
	.st0{fill:#FFBF00;}
	.st1{fill:#FFFFFF;}
	.st2{fill:#EEEEEE;}
	.st3{fill:#FEE28B;}
	.st4{fill:#5C5C5C;}
	.st5{font-family:'ArialMT';}
	.st6{font-size:13.6051px;}
</style>
<g>
	<path class="st0" d="M166.6,252.4c-45.1,0-81.9-36.7-81.9-81.9c0-3.4,0.2-6.8,0.6-10.2l80.6,14.1c0.2,0,0.5,0.1,0.7,0.1
		c0.2,0,0.3,0,0.5,0l81.3,0.7C245.8,218.2,210,252.4,166.6,252.4z"/>
	<path class="st1" d="M88.9,165.1l76.3,13.4c0.5,0.1,0.9,0.1,1.4,0.1c0.2,0,0.4,0,0.6,0l76.8,0.7c-1.9,17.6-9.8,34-22.6,46.6
		c-14.7,14.6-34.2,22.6-54.8,22.6c-42.9,0-77.9-34.9-77.9-77.9C88.7,168.7,88.8,166.9,88.9,165.1 M82,155.7
		c-0.8,4.8-1.3,9.8-1.3,14.8c0,47.4,38.4,85.9,85.9,85.9c47.2,0,85.4-38,85.9-85.1c0,0,0,0,0,0l-85.8-0.8l-0.1,0L82,155.7L82,155.7z
		"/>
</g>
<g>
	<path class="st0" d="M465.3,155.2H480c2.5,0,4.5,2,4.5,4.5v14.7c0,2.5-2,4.5-4.5,4.5h-14.7c-2.5,0-4.5-2-4.5-4.5v-14.7
		C460.8,157.2,462.8,155.2,465.3,155.2z"/>
	<circle class="st1" cx="472.7" cy="167.1" r="4.7"/>
</g>
<g>
	<path class="st2" d="M465.3,219.7H480c2.5,0,4.5,2,4.5,4.5V239c0,2.5-2,4.5-4.5,4.5h-14.7c-2.5,0-4.5-2-4.5-4.5v-14.7
		C460.8,221.7,462.8,219.7,465.3,219.7z"/>
	<circle class="st1" cx="472.7" cy="231.6" r="4.7"/>
</g>
<g>
	<path class="st3" d="M465.3,187.4H480c2.5,0,4.5,2,4.5,4.5v14.7c0,2.5-2,4.5-4.5,4.5h-14.7c-2.5,0-4.5-2-4.5-4.5V192
		C460.8,189.5,462.8,187.4,465.3,187.4z"/>
	<circle class="st1" cx="472.7" cy="199.3" r="4.7"/>
</g>
<text transform="matrix(1 0 0 1 497.3012 172.4457)" class="st4 st5 st6">Y</text>
<text transform="matrix(1 0 0 1 503.6273 172.4457)" class="st4 st5 st6">es 59%</text>
<text transform="matrix(1 0 0 1 497.3012 204.1908)" class="st4 st5 st6">No 15</text>
<text transform="matrix(1 0 0 1 497.3012 235.9359)" class="st4 st5 st6">Not Su</text>
<text transform="matrix(1 0 0 1 535.3158 235.9359)" class="st4 st5 st6">r</text>
<text transform="matrix(1 0 0 1 539.6244 235.9359)" class="st4 st5 st6">e 26 </text>
<g>
	<path class="st3" d="M170.3,173.4l48.6-70.6c22.9,16.6,36.7,43,37.1,71.3L170.3,173.4z"/>
	<path class="st1" d="M219.5,105.7c20.9,15.9,33.6,40.3,34.5,66.5l-79.9-0.7L219.5,105.7 M218.5,100l-51.9,75.3l91.5,0.8
		c0-0.3,0-0.6,0-0.8C258,144.1,242.4,116.5,218.5,100L218.5,100z"/>
</g>
<g>
	<path class="st2" d="M72.4,155.4c9.2-44.7,48.4-76.8,94.4-76.8c1.2,0,2.3,0,3.4,0.1l0.8,0c1.1,0,2.2,0.1,3.4,0.2l0.4,0
		c1,0.1,2,0.2,3,0.3l0.7,0.1c1.1,0.1,2.2,0.3,3.3,0.5l0.6,0.1c1,0.2,2,0.3,2.9,0.5l0.5,0.1c1.1,0.2,2.2,0.5,3.2,0.7l0.7,0.2
		c1,0.2,2,0.5,3,0.8l0.2,0c1.2,0.3,2.2,0.6,3.3,1l0.6,0.2c2.1,0.7,4.2,1.5,6.2,2.3l0.6,0.2c1,0.4,2,0.9,3,1.3l0.3,0.1
		c0.9,0.4,1.9,0.9,2.8,1.3l0.5,0.2c1,0.5,1.9,1,2.9,1.5l0.4,0.2c0.9,0.5,1.8,1,2.7,1.5l0.3,0.2c0.9,0.6,1.9,1.2,2.8,1.7
		c0,0,0.6,0.4,0.7,0.5l-54.5,77.1L72.4,155.4z"/>
	<path class="st1" d="M166.8,81.6c1,0,2.1,0,3.3,0.1c0.3,0,0.5,0,0.8,0c1.2,0.1,2.3,0.1,3.3,0.2l0.1,0l0.3,0c0.9,0.1,1.9,0.2,3,0.3
		l0.3,0l0.4,0c1.1,0.1,2.1,0.3,3.2,0.4l0.3,0l0.3,0c0.9,0.2,1.9,0.3,2.8,0.5l0.3,0.1l0.2,0c1,0.2,2.1,0.4,3.1,0.7l0.4,0.1l0.2,0.1
		c1.1,0.3,2,0.5,2.9,0.8l0.2,0.1c0.9,0.3,2,0.6,3.1,0.9l0.6,0.2c2,0.7,4.1,1.4,6,2.2l0.1,0.1l0.4,0.2c1,0.4,2,0.8,2.9,1.3l0.1,0
		l0.2,0.1c0.9,0.4,1.8,0.8,2.7,1.3l0.2,0.1l0.2,0.1c0.9,0.5,1.9,1,2.8,1.5l0.2,0.1l0.2,0.1c0.9,0.5,1.8,1,2.6,1.5l0.2,0.1l0.1,0.1
		c0.3,0.2,0.5,0.3,0.8,0.5l-51.6,73L76,153c4.6-19.1,15.2-36.4,30.3-49.2C123.2,89.5,144.6,81.6,166.8,81.6 M166.8,75.6
		c-49,0-89.8,35.5-97.9,82.2l97.9,17.1l57.4-81.1c-0.9-0.7-1.9-1.3-2.8-1.9c-0.2-0.1-0.3-0.2-0.5-0.3c-0.9-0.6-1.9-1.2-2.9-1.8
		c-0.1-0.1-0.2-0.1-0.3-0.2c-0.9-0.5-1.8-1.1-2.8-1.6c-0.1-0.1-0.3-0.2-0.4-0.2c-1-0.5-2-1.1-3-1.6c-0.2-0.1-0.3-0.2-0.5-0.2
		c-0.9-0.5-1.9-0.9-2.9-1.4c-0.1,0-0.2-0.1-0.3-0.1c-1-0.5-2.1-0.9-3.1-1.4c-0.2-0.1-0.4-0.2-0.6-0.2c-2.1-0.9-4.3-1.6-6.4-2.4
		c-0.2-0.1-0.4-0.1-0.7-0.2c-1.1-0.3-2.2-0.7-3.3-1c-0.1,0-0.2,0-0.3-0.1c-1-0.3-2.1-0.6-3.1-0.8c-0.2-0.1-0.4-0.1-0.7-0.2
		c-1.1-0.3-2.2-0.5-3.3-0.7c-0.2,0-0.4-0.1-0.6-0.1c-1-0.2-2-0.4-3-0.5c-0.2,0-0.4-0.1-0.6-0.1c-1.1-0.2-2.2-0.3-3.4-0.5
		c-0.2,0-0.5-0.1-0.7-0.1c-1-0.1-2.1-0.2-3.1-0.3c-0.1,0-0.3,0-0.4,0c-1.1-0.1-2.3-0.2-3.5-0.2c-0.3,0-0.5,0-0.8,0
		C169.1,75.7,168,75.6,166.8,75.6L166.8,75.6z"/>
</g>
</svg>
