<?xml version="1.0" encoding="utf-8"?>
<!-- Generator: Adobe Illustrator 25.2.1, SVG Export Plug-In . SVG Version: 6.00 Build 0)  -->
<svg version="1.1" id="Layer_2_1_" xmlns="http://www.w3.org/2000/svg" xmlns:xlink="http://www.w3.org/1999/xlink" x="0px" y="0px"
	 viewBox="0 0 637 306" style="enable-background:new 0 0 637 306;" xml:space="preserve">
<style type="text/css">
	.st0{fill:#FFBF00;}
	.st1{fill:#FFFFFF;}
	.st2{fill:#EEEEEE;}
	.st3{fill:#FEE28B;}
	.st4{fill:#5C5C5C;}
	.st5{font-family:'ArialMT';}
	.st6{font-size:13.6051px;}
</style>
<g>
	<path class="st0" d="M465.3,155.2H480c2.5,0,4.5,2,4.5,4.5v14.7c0,2.5-2,4.5-4.5,4.5h-14.7c-2.5,0-4.5-2-4.5-4.5v-14.7
		C460.8,157.2,462.8,155.2,465.3,155.2z"/>
	<circle class="st1" cx="472.7" cy="167.1" r="4.7"/>
</g>
<g>
	<path class="st2" d="M465.3,219.7H480c2.5,0,4.5,2,4.5,4.5V239c0,2.5-2,4.5-4.5,4.5h-14.7c-2.5,0-4.5-2-4.5-4.5v-14.7
		C460.8,221.7,462.8,219.7,465.3,219.7z"/>
	<circle class="st1" cx="472.7" cy="231.6" r="4.7"/>
</g>
<g>
	<path class="st3" d="M465.3,187.4H480c2.5,0,4.5,2,4.5,4.5v14.7c0,2.5-2,4.5-4.5,4.5h-14.7c-2.5,0-4.5-2-4.5-4.5V192
		C460.8,189.5,462.8,187.4,465.3,187.4z"/>
	<circle class="st1" cx="472.7" cy="199.3" r="4.7"/>
</g>
<text transform="matrix(1 0 0 1 497.3012 172.4457)" class="st4 st5 st6">Y</text>
<text transform="matrix(1 0 0 1 503.6273 172.4457)" class="st4 st5 st6">es 50%</text>
<text transform="matrix(1 0 0 1 497.3012 204.1908)" class="st4 st5 st6">No 35%</text>
<text transform="matrix(1 0 0 1 497.3012 235.9359)" class="st4 st5 st6">Not Su</text>
<text transform="matrix(1 0 0 1 535.3158 235.9359)" class="st4 st5 st6">r</text>
<text transform="matrix(1 0 0 1 539.6244 235.9359)" class="st4 st5 st6">e 15%</text>
<g>
	<path class="st0" d="M165.4,246.8c-42.2,0-76.4-34.3-76.4-76.4c0-3.7,0.3-7.5,0.8-11.2l75.3,13.2c0.1,0,0.2,0,0.3,0l76.4,0.7
		C240.4,213.9,206.5,246.8,165.4,246.8z"/>
	<path class="st1" d="M91.5,161.5l73.2,12.8c0.2,0,0.4,0.1,0.7,0.1l74.3,0.7c-1.1,18.2-8.8,35.2-21.9,48.2
		c-14,13.9-32.7,21.6-52.4,21.6c-41.1,0-74.4-33.4-74.4-74.4C91,167.4,91.2,164.4,91.5,161.5 M88.1,156.8c-0.8,4.4-1.2,8.9-1.2,13.5
		c0,43.3,35.1,78.4,78.4,78.4c43.1,0,78.1-34.7,78.4-77.7l-78.4-0.7L88.1,156.8L88.1,156.8z"/>
</g>
<g>
	<g>
		<path class="st3" d="M254.4,163.6c0.1,1,0.1,2,0.2,3C254.6,165.6,254.5,164.6,254.4,163.6z"/>
		<path class="st1" d="M254.4,163.6c0.1,1,0.1,2,0.2,3C254.6,165.5,254.5,164.5,254.4,163.6L254.4,163.6z M254.6,166.5
			C254.6,166.5,254.6,166.6,254.6,166.5C254.6,166.6,254.6,166.5,254.6,166.5L254.6,166.5z"/>
	</g>
	<g>
		<path class="st3" d="M254.1,160.5c0.1,1,0.2,2,0.3,3C254.3,162.5,254.2,161.5,254.1,160.5z"/>
		<path class="st1" d="M254.1,160.5c0.1,0.6,0.1,1.3,0.2,1.9C254.3,161.8,254.2,161.2,254.1,160.5L254.1,160.5z M254.3,162.5
			c0,0.3,0.1,0.7,0.1,1C254.4,163.1,254.4,162.8,254.3,162.5L254.3,162.5z"/>
	</g>
	<g>
		<path class="st3" d="M82.5,153.6c7.9-40.2,43.1-69.1,84.3-69.1c37.1,0,69.5,23.3,81.3,58.2l-81.5,25.6L82.5,153.6z"/>
		<path class="st1" d="M166.8,86.5c18.2,0,35.5,5.7,50.1,16.6c13,9.7,23.1,23.2,28.7,38.3l-79,24.9L84.9,152
			c4-17.7,13.7-33.8,27.6-45.6C127.6,93.6,146.9,86.5,166.8,86.5 M166.8,82.5c-43.4,0-79.4,31.4-86.6,72.7l86.6,15.2l83.9-26.4
			C239.4,108.3,206.1,82.5,166.8,82.5L166.8,82.5z"/>
	</g>
	<g>
		<path class="st3" d="M253.7,156.9c0.2,1,0.3,2,0.4,3C253.9,158.9,253.8,157.9,253.7,156.9z"/>
		<path class="st1" d="M253.7,156.9c0.1,0.6,0.2,1.2,0.3,1.8C253.8,158.1,253.7,157.5,253.7,156.9L253.7,156.9z M253.9,158.7
			c0.1,0.4,0.1,0.8,0.2,1.2C254,159.5,254,159.1,253.9,158.7L253.9,158.7z"/>
	</g>
	<g>
		<path class="st3" d="M254.6,167.3c0,1,0.1,2,0.1,3.1C254.7,169.4,254.7,168.3,254.6,167.3z"/>
		<path class="st1" d="M254.6,167.3c0,1,0.1,2,0.1,3C254.7,169.3,254.7,168.3,254.6,167.3L254.6,167.3z M254.7,170.4
			C254.7,170.4,254.7,170.4,254.7,170.4C254.7,170.4,254.7,170.4,254.7,170.4L254.7,170.4z"/>
	</g>
	<g>
		<path class="st3" d="M250.7,144c0.3,1,0.6,2,0.9,3C251.3,146,251,145,250.7,144z"/>
		<path class="st1" d="M250.7,144c0.3,1,0.6,2,0.9,3C251.3,146,251,145,250.7,144L250.7,144z"/>
	</g>
	<g>
		<path class="st3" d="M251.6,147.4c0.5,2,1,4,1.4,6C252.6,151.3,252.2,149.3,251.6,147.4z"/>
		<path class="st1" d="M251.6,147.4c0.2,0.6,0.3,1.2,0.5,1.8C252,148.6,251.8,148,251.6,147.4L251.6,147.4z M252.1,149.2
			c0.3,1.4,0.7,2.8,0.9,4.2C252.8,151.9,252.4,150.6,252.1,149.2L252.1,149.2z"/>
	</g>
	<g>
		<path class="st3" d="M253.1,153.9c0.2,1,0.4,2,0.5,3C253.5,155.8,253.3,154.8,253.1,153.9z"/>
		<path class="st1" d="M253.1,153.9c0.1,0.6,0.2,1.1,0.3,1.7C253.3,155,253.2,154.4,253.1,153.9L253.1,153.9z M253.4,155.5
			c0.1,0.4,0.1,0.9,0.2,1.3C253.6,156.4,253.5,156,253.4,155.5L253.4,155.5z"/>
	</g>
</g>
<g>
	<path class="st2" d="M179.1,168.6l85.2-26.8c2.6,8.9,4,18.2,4.1,27.6L179.1,168.6z"/>
	<path class="st1" d="M263,144.3c2,7.5,3.2,15.2,3.4,23.1l-74.6-0.7L263,144.3 M265.7,139.3l-99.2,31.2l104,0.9c0-0.3,0-0.6,0-0.9
		C270.4,159.6,268.8,149.1,265.7,139.3L265.7,139.3z"/>
</g>
</svg>
