<?xml version="1.0" encoding="utf-8"?>
<!-- Generator: Adobe Illustrator 25.2.1, SVG Export Plug-In . SVG Version: 6.00 Build 0)  -->
<svg version="1.1" id="Layer_1" xmlns="http://www.w3.org/2000/svg" xmlns:xlink="http://www.w3.org/1999/xlink" x="0px" y="0px"
	 viewBox="0 0 1256.5 921.7" style="enable-background:new 0 0 1256.5 921.7;" xml:space="preserve">
<style type="text/css">
	.st0{fill:none;stroke:#000000;stroke-width:0.3;stroke-linecap:round;stroke-linejoin:round;stroke-miterlimit:10;}
	.st1{fill:#FFFFFF;stroke:#000000;stroke-width:0.3;stroke-linecap:round;stroke-linejoin:round;stroke-miterlimit:10;}
	.st2{fill:#FCFCFC;stroke:#070707;stroke-miterlimit:10;}
	.st3{fill:#F9F9F9;stroke:#FFBF00;stroke-miterlimit:10;}
	.st4{fill:#FFFFFF;stroke:#D79196;stroke-width:0.3;stroke-miterlimit:10;}
	.st5{fill:#FFFFFF;stroke:#D79196;stroke-linecap:square;stroke-miterlimit:10;}
	.st6{fill:#FFFFFF;stroke:#77B7E9;stroke-width:0.3;stroke-miterlimit:10;}
	.st7{fill:#FFFFFF;stroke:#77B7E9;stroke-miterlimit:10;}
	.st8{fill:#FFE28B;}
	.st9{font-family:'AvenirNext-UltraLight';}
	.st10{font-size:7px;}
	.st11{fill:#050505;}
	.st12{font-family:'Helvetica-Light';}
	.st13{font-size:10px;}
	.st14{fill:#FFBF00;}
	.st15{font-family:'Helvetica-Bold';}
	.st16{font-size:18px;}
</style>
<g id="lines">
	<path class="st0" d="M330.3,185.3v576"/>
	<path class="st0" d="M1056.7,122.8v-6.2c0-11.9,9.7-21.6,21.6-21.6h68.8c11.9,0,21.6-9.7,21.6-21.6v-7.5"/>
	<line class="st0" x1="365.1" y1="503.6" x2="905.9" y2="503.6"/>
	<line class="st0" x1="109.2" y1="164.6" x2="1031.8" y2="164.6"/>
	<line class="st0" x1="365.1" y1="349.8" x2="1013" y2="349.8"/>
	<line class="st0" x1="946" y1="45.6" x2="1137.4" y2="45.6"/>
	<path class="st0" d="M823.5,356.4v61.7c0,11.9-9.7,21.6-21.6,21.6h-450c-11.9,0-21.6,9.7-21.6,21.6v8.2"/>
	<path class="st0" d="M823.5,509.5v61.7c0,11.9-9.7,21.6-21.6,21.6h-450c-11.9,0-21.6,9.7-21.6,21.6v8.2"/>
	<line class="st0" x1="365.1" y1="639.2" x2="905.7" y2="639.2"/>
	<line class="st0" x1="365" y1="780.3" x2="586.2" y2="780.3"/>
	<path class="st0" d="M823.5,645.5v61.7c0,11.9-9.7,21.6-21.6,21.6h-450c-11.9,0-21.6,9.7-21.6,21.6v8.2"/>
	<path class="st0" d="M330.3,799.4v44.5c0,11.9,9.7,21.6,21.6,21.6h683c11.9,0,21.6-9.7,21.6-21.6v-778"/>
	<path class="st0" d="M925,503.6h12.2c11.9,0,21.6-9.7,21.6-21.6V371.2c0-11.9,9.7-21.6,21.6-21.6"/>
	<path class="st0" d="M925,639.3h12.2c11.9,0,21.6-9.7,21.6-21.6V485.4"/>
	<line class="st0" x1="1088.4" y1="269.9" x2="1158.3" y2="269.9"/>
</g>
<path class="st1" d="M791,353.9v-8.4l6.2,4.2L791,353.9z"/>
<path class="st1" d="M999.4,49.8v-8.4l6.2,4.2L999.4,49.8z"/>
<path class="st1" d="M1129.9,49.8v-8.4l6.2,4.2L1129.9,49.8z"/>
<path class="st1" d="M638,353.9v-8.4l6.2,4.2L638,353.9z"/>
<path class="st1" d="M527.9,353.9v-8.4l6.2,4.2L527.9,353.9z"/>
<path class="st1" d="M403.1,353.9v-8.4l6.2,4.2L403.1,353.9z"/>
<path class="st1" d="M638,508.4V500l6.2,4.2L638,508.4z"/>
<path class="st1" d="M527.9,508.4V500l6.2,4.2L527.9,508.4z"/>
<path class="st1" d="M433,643.4V635l6.2,4.2L433,643.4z"/>
<path class="st1" d="M556.9,643.4V635l6.2,4.2L556.9,643.4z"/>
<path class="st1" d="M1013,353.8v-8.4l6.2,4.2L1013,353.8z"/>
<path class="st1" d="M1152.1,274.1v-8.4l6.2,4.2L1152.1,274.1z"/>
<path class="st1" d="M1094.6,274.1v-8.4l-6.2,4.2L1094.6,274.1z"/>
<path class="st1" d="M791,507.3v-8.4l6.2,4.2L791,507.3z"/>
<path class="st1" d="M791,643.3v-8.4l6.2,4.2L791,643.3z"/>
<path class="st1" d="M379.2,784.5v-8.4l-6.2,4.2L379.2,784.5z"/>
<path class="st1" d="M403.1,784.5v-8.4l6.2,4.2L403.1,784.5z"/>
<path class="st1" d="M527.9,784.5v-8.4l6.2,4.2L527.9,784.5z"/>
<path class="st1" d="M488.3,784.5v-8.4l-6.2,4.2L488.3,784.5z"/>
<path class="st1" d="M594.7,168.7v-8.4l-6.2,4.2L594.7,168.7z"/>
<path class="st1" d="M780.4,168.7v-8.4l-6.2,4.2L780.4,168.7z"/>
<path class="st1" d="M381.5,168.7v-8.4l-6.2,4.2L381.5,168.7z"/>
<path class="st1" d="M240.8,168.7v-8.4l-6.2,4.2L240.8,168.7z"/>
<path class="st1" d="M115.4,168.7v-8.4l-6.2,4.2L115.4,168.7z"/>
<path class="st1" d="M1052.3,131.8h8.4l-4.2,6.2L1052.3,131.8z"/>
<path class="st1" d="M326.1,479.2h8.4l-4.2,6.2L326.1,479.2z"/>
<path class="st1" d="M326.1,323.8h8.4l-4.2,6.2L326.1,323.8z"/>
<path class="st1" d="M326.1,616.5h8.4l-4.2,6.2L326.1,616.5z"/>
<path class="st1" d="M1052.1,323.9h8.4l-4.2,6.2L1052.1,323.9z"/>
<path class="st1" d="M1052.8,606.3h8.4l-4.2,6.2L1052.8,606.3z"/>
<path class="st1" d="M325.9,805.7h8.4l-4.2-6.2L325.9,805.7z"/>
<path class="st1" d="M325.9,755.1h8.4l-4.2,6.2L325.9,755.1z"/>
<path class="st1" d="M1052.1,755.5h8.4l-4.2,6.2L1052.1,755.5z"/>
<g id="start_x2F_end">
	<path id="Rectangle_2_Copy-2" class="st2" d="M309.3,141.4h44c12.2,0,22,9.8,22,22l0,0c0,12.2-9.8,22-22,22h-44
		c-12.2,0-22-9.8-22-22l0,0C287.3,151.3,297.1,141.4,309.3,141.4z"/>
	<g id="Rectangle_2-2" transform="translate(694 241)">
		<path class="st2" d="M-651-99.6h44c12.2,0,22,9.8,22,22l0,0c0,12.2-9.8,22-22,22h-44c-12.2,0-22-9.8-22-22l0,0
			C-673-89.7-663.1-99.6-651-99.6z"/>
		<path class="st2" d="M-651-99.3h44c12,0,21.8,9.7,21.8,21.8l0,0c0,12-9.7,21.8-21.8,21.8h-44c-12,0-21.8-9.7-21.8-21.8l0,0
			C-672.7-89.6-663-99.3-651-99.3z"/>
	</g>
</g>
<g id="Diamonds__x28_decisions_x29_">
	<g id="Rectangle_Copy_2-2_1_" transform="translate(192.72 156) rotate(-45)">
		<path class="st3" d="M589.7,596.8h30c2.8,0,5,2.2,5,5v30c0,2.8-2.2,5-5,5h-30c-2.8,0-5-2.2-5-5v-30
			C584.7,599.1,587,596.8,589.7,596.8z"/>
		<path class="st3" d="M589.7,596.9h30c2.7,0,5,2.2,5,5v30c0,2.7-2.2,5-5,5h-30c-2.7,0-4.9-2.2-4.9-5v-30
			C584.8,599.1,587,596.9,589.7,596.9z"/>
	</g>
	<g id="Rectangle_Copy-2_3_" transform="translate(194.72 667) rotate(-45)">
		<path class="st3" d="M653.7,200.5h30c2.8,0,5,2.2,5,5v30c0,2.8-2.2,5-5,5h-30c-2.8,0-5-2.2-5-5v-30
			C648.7,202.7,650.9,200.5,653.7,200.5z"/>
		<path class="st3" d="M653.7,200.6h30c2.7,0,5,2.2,5,4.9v30c0,2.7-2.2,4.9-5,4.9h-30c-2.7,0-5-2.2-5-4.9v-30
			C648.7,202.8,651,200.6,653.7,200.6z"/>
	</g>
	<g id="Rectangle_Copy-2_2_" transform="translate(194.72 667) rotate(-45)">
		<path class="st3" d="M545.4,308.8h30c2.8,0,5,2.2,5,5v30c0,2.8-2.2,5-5,5h-30c-2.8,0-5-2.2-5-5v-30
			C540.4,311,542.6,308.8,545.4,308.8z"/>
		<path class="st3" d="M545.4,308.9h30c2.7,0,4.9,2.2,4.9,4.9v30c0,2.7-2.2,5-4.9,5h-30c-2.7,0-5-2.2-5-5v-30
			C540.4,311.1,542.7,308.9,545.4,308.9z"/>
	</g>
	<g id="Rectangle_Copy-2_1_" transform="translate(194.72 667) rotate(-45)">
		<path class="st3" d="M449.2,405h30c2.8,0,5,2.2,5,5v30c0,2.8-2.2,5-5,5h-30c-2.8,0-5-2.2-5-5v-30C444.2,407.2,446.5,405,449.2,405
			z"/>
		<path class="st3" d="M449.2,405h30c2.7,0,5,2.2,5,5v30c0,2.7-2.2,5-5,5h-30c-2.7,0-4.9-2.2-4.9-5v-30
			C444.3,407.2,446.5,405,449.2,405z"/>
	</g>
</g>
<g id="Circles__x28_entry_points_x29_">
	<g>
		<circle id="Oval_Copy-6_9_" class="st4" cx="915.5" cy="349.3" r="9.5"/>
		<path id="Line-3_9_" class="st5" d="M918,351.8l-5-5"/>
		<path id="Line_Copy-3_9_" class="st5" d="M918,346.8l-5,5"/>
	</g>
	<g>
		<circle id="Oval_Copy-6_8_" class="st4" cx="915.5" cy="164.1" r="9.5"/>
		<path id="Line-3_8_" class="st5" d="M918,166.6l-5-5"/>
		<path id="Line_Copy-3_8_" class="st5" d="M918,161.6l-5,5"/>
	</g>
	<g>
		<circle id="Oval-4_8_" class="st6" cx="823.5" cy="402.4" r="9.5"/>
		<path id="Path_3_8_" class="st7" d="M820,402.7l2.8,3.2l4.2-6"/>
	</g>
	<g>
		<circle id="Oval_Copy-6_7_" class="st4" cx="915.5" cy="503.6" r="9.5"/>
		<path id="Line-3_7_" class="st5" d="M918,506.1l-5-5"/>
		<path id="Line_Copy-3_7_" class="st5" d="M918,501.1l-5,5"/>
	</g>
	<g>
		<circle id="Oval_Copy-6_6_" class="st4" cx="915.5" cy="639.2" r="9.5"/>
		<path id="Line-3_6_" class="st5" d="M918,641.7l-5-5"/>
		<path id="Line_Copy-3_6_" class="st5" d="M918,636.7l-5,5"/>
	</g>
	<g>
		<circle id="Oval-4_4_" class="st6" cx="823.5" cy="555.6" r="9.5"/>
		<path id="Path_3_4_" class="st7" d="M820,555.9l2.8,3.2l4.2-6"/>
	</g>
	<g>
		<circle id="Oval-4_2_" class="st6" cx="1055.7" cy="217.4" r="9.5"/>
		<path id="Path_3_2_" class="st7" d="M1052.2,217.7l2.8,3.2l4.2-6"/>
	</g>
	<g>
		<circle id="Oval-4_1_" class="st6" cx="823.5" cy="691.6" r="9.5"/>
		<path id="Path_3_1_" class="st7" d="M820,691.9l2.8,3.2l4.2-6"/>
	</g>
</g>
<g id="Transition_arrows__x28_user_navigation_x29__x0A_">
</g>
<path class="st8" d="M453.6,622.7h44c8,0,14.4,6.4,14.4,14.4v9c0,8-6.4,14.4-14.4,14.4h-44c-8,0-14.4-6.4-14.4-14.4v-9
	C439.2,629.1,445.6,622.7,453.6,622.7z"/>
<path class="st8" d="M423.7,761.5h44c8,0,14.4,6.4,14.4,14.4v9c0,8-6.4,14.4-14.4,14.4h-44c-8,0-14.4-6.4-14.4-14.4v-9
	C409.3,768,415.7,761.5,423.7,761.5z"/>
<path class="st8" d="M548.5,761.5h44c8,0,14.4,6.4,14.4,14.4v9c0,8-6.4,14.4-14.4,14.4h-44c-8,0-14.4-6.4-14.4-14.4v-9
	C534.1,768,540.5,761.5,548.5,761.5z"/>
<path class="st8" d="M308.3,622.7h44c8,0,14.4,6.4,14.4,14.4v9c0,8-6.4,14.4-14.4,14.4h-44c-8,0-14.4-6.4-14.4-14.4v-9
	C293.9,629.1,300.4,622.7,308.3,622.7z"/>
<path class="st8" d="M1020,26.7h71.2c8,0,14.4,6.4,14.4,14.4v9c0,8-6.4,14.4-14.4,14.4H1020c-8,0-14.4-6.4-14.4-14.4v-9
	C1005.6,33.2,1012,26.7,1020,26.7z"/>
<path class="st8" d="M1020,761.5h71.2c8,0,14.4,6.4,14.4,14.4v9c0,8-6.4,14.4-14.4,14.4H1020c-8,0-14.4-6.4-14.4-14.4v-9
	C1005.6,768,1012,761.5,1020,761.5z"/>
<path class="st8" d="M892.2,26.7h71.2c8,0,14.4,6.4,14.4,14.4v9c0,8-6.4,14.4-14.4,14.4h-71.2c-8,0-14.4-6.4-14.4-14.4v-9
	C877.8,33.2,884.2,26.7,892.2,26.7z"/>
<path class="st8" d="M1150.5,26.7h44c8,0,14.4,6.4,14.4,14.4v9c0,8-6.4,14.4-14.4,14.4h-44c-8,0-14.4-6.4-14.4-14.4v-9
	C1136.1,33.2,1142.6,26.7,1150.5,26.7z"/>
<path class="st8" d="M715.8,145.6h44c8,0,14.4,6.4,14.4,14.4v9c0,8-6.4,14.4-14.4,14.4h-44c-8,0-14.4-6.4-14.4-14.4v-9
	C701.4,152,707.8,145.6,715.8,145.6z"/>
<path class="st8" d="M452.1,145.6h122.1c8,0,14.4,6.4,14.4,14.4v9c0,8-6.4,14.4-14.4,14.4H452.1c-8,0-14.4-6.4-14.4-14.4v-9
	C437.7,152,444.1,145.6,452.1,145.6z"/>
<path class="st8" d="M1040.1,251h34c8,0,14.4,6.4,14.4,14.4v9c0,8-6.4,14.4-14.4,14.4h-34c-8,0-14.4-6.4-14.4-14.4v-9
	C1025.7,257.4,1032.1,251,1040.1,251z"/>
<path class="st8" d="M1172.7,251h44c8,0,14.4,6.4,14.4,14.4v9c0,8-6.4,14.4-14.4,14.4h-44c-8,0-14.4-6.4-14.4-14.4v-9
	C1158.3,257.4,1164.7,251,1172.7,251z"/>
<path class="st8" d="M176.1,144.5h44c8,0,14.4,6.4,14.4,14.4v9c0,8-6.4,14.4-14.4,14.4h-44c-8,0-14.4-6.4-14.4-14.4v-9
	C161.7,151,168.2,144.5,176.1,144.5z"/>
<path class="st8" d="M301.6,761.5h57c8,0,14.4,6.4,14.4,14.4v9c0,8-6.4,14.4-14.4,14.4h-57c-8,0-14.4-6.4-14.4-14.4v-9
	C287.2,768,293.6,761.5,301.6,761.5z"/>
<path class="st8" d="M1033.7,330.7h44c8,0,14.4,6.4,14.4,14.4v9c0,8-6.4,14.4-14.4,14.4h-44c-8,0-14.4-6.4-14.4-14.4v-9
	C1019.3,337.2,1025.7,330.7,1033.7,330.7z"/>
<path class="st8" d="M1033.7,612.5h44c8,0,14.4,6.4,14.4,14.4v9c0,8-6.4,14.4-14.4,14.4h-44c-8,0-14.4-6.4-14.4-14.4v-9
	C1019.3,618.9,1025.7,612.5,1033.7,612.5z"/>
<path class="st8" d="M306.5,330.7h44c8,0,14.4,6.4,14.4,14.4v9c0,8-6.4,14.4-14.4,14.4h-44c-8,0-14.4-6.4-14.4-14.4v-9
	C292.1,337.2,298.6,330.7,306.5,330.7z"/>
<path class="st8" d="M423.7,330.7h44c8,0,14.4,6.4,14.4,14.4v9c0,8-6.4,14.4-14.4,14.4h-44c-8,0-14.4-6.4-14.4-14.4v-9
	C409.3,337.2,415.7,330.7,423.7,330.7z"/>
<path class="st8" d="M548.5,330.7h44c8,0,14.4,6.4,14.4,14.4v9c0,8-6.4,14.4-14.4,14.4h-44c-8,0-14.4-6.4-14.4-14.4v-9
	C534.1,337.2,540.5,330.7,548.5,330.7z"/>
<path class="st8" d="M658,330.4h44c8,0,14.4,6.4,14.4,14.4v9c0,8-6.4,14.4-14.4,14.4h-44c-8,0-14.4-6.4-14.4-14.4v-9
	C643.6,336.8,650.1,330.4,658,330.4z"/>
<path class="st8" d="M308.3,485.4h44c8,0,14.4,6.4,14.4,14.4v9c0,8-6.4,14.4-14.4,14.4h-44c-8,0-14.4-6.4-14.4-14.4v-9
	C293.9,491.9,300.4,485.4,308.3,485.4z"/>
<path class="st8" d="M423.7,485.4h44c8,0,14.4,6.4,14.4,14.4v9c0,8-6.4,14.4-14.4,14.4h-44c-8,0-14.4-6.4-14.4-14.4v-9
	C409.3,491.9,415.7,485.4,423.7,485.4z"/>
<path class="st8" d="M548.5,485.4h44c8,0,14.4,6.4,14.4,14.4v9c0,8-6.4,14.4-14.4,14.4h-44c-8,0-14.4-6.4-14.4-14.4v-9
	C534.1,491.9,540.5,485.4,548.5,485.4z"/>
<path class="st8" d="M658,485h44c8,0,14.4,6.4,14.4,14.4v9c0,8-6.4,14.4-14.4,14.4h-44c-8,0-14.4-6.4-14.4-14.4v-9
	C643.6,491.5,650.1,485,658,485z"/>
<path class="st8" d="M577.3,622.5h83.3c8,0,14.4,6.4,14.4,14.4v9c0,8-6.4,14.4-14.4,14.4h-83.3c-8,0-14.4-6.4-14.4-14.4v-9
	C562.9,628.9,569.4,622.5,577.3,622.5z"/>
<text transform="matrix(1 0 0 1 808.0156 635.0352)" class="st9 st10">Generate </text>
<text transform="matrix(1 0 0 1 803.6156 643.4352)" class="st9 st10">shopping list</text>
<text transform="matrix(1 0 0 1 801.6671 348.1357)" class="st9 st10">Adding items </text>
<text transform="matrix(1 0 0 1 809.7671 356.5357)" class="st9 st10">to pantry</text>
<text transform="matrix(1 0 0 1 808.5662 503.1304)" class="st9 st10">Exploring</text>
<text transform="matrix(1 0 0 1 812.2662 511.5304)" class="st9 st10">recipes</text>
<text transform="matrix(1 0 0 1 1044.4504 162.5547)" class="st11 st9 st10">Have an </text>
<text transform="matrix(1 0 0 1 1043.0475 169.5547)" class="st11 st9 st10">account?</text>
<text transform="matrix(1 0 0 1 1020.1314 48.1613)" class="st12 st13">ONBOARDING</text>
<text transform="matrix(1 0 0 1 1041.1235 272.3932)" class="st12 st13">LOG IN</text>
<text transform="matrix(1 0 0 1 444.487 644.865)" class="st12 st13">LOW EFFORT</text>
<text transform="matrix(1 0 0 1 422.3772 782.9686)" class="st12 st13">ADD ITEM</text>
<text transform="matrix(1 0 0 1 537.1439 782.9684)" class="st12 st13">REMOVE ITEM</text>
<text transform="matrix(1 0 0 1 418.4825 346.1642)" class="st12 st13">BAKEWARE</text>
<text transform="matrix(1 0 0 1 432.0825 358.1642)" class="st12 st13">/ SKIP</text>
<text transform="matrix(1 0 0 1 541.5843 346.1641)" class="st12 st13">COOKWARE</text>
<text transform="matrix(1 0 0 1 556.8843 358.1641)" class="st12 st13">/ SKIP</text>
<text transform="matrix(1 0 0 1 656.7119 345.7857)" class="st12 st13">UTENSILS</text>
<text transform="matrix(1 0 0 1 666.4119 357.7857)" class="st12 st13">/ SKIP</text>
<text transform="matrix(1 0 0 1 427.6523 506.8308)" class="st12 st13">FRIDGE</text>
<text transform="matrix(1 0 0 1 551.3093 506.8308)" class="st12 st13">PANTRY</text>
<text transform="matrix(1 0 0 1 659.2114 506.4523)" class="st12 st13">GARDEN</text>
<text transform="matrix(1 0 0 1 1032.5808 630.2388)" class="st12 st13">POPULAR </text>
<text transform="matrix(1 0 0 1 1035.0808 642.2388)" class="st12 st13">RECIPES </text>
<text transform="matrix(1 0 0 1 1010.9163 776.9686)" class="st12 st13">ADD INGREDIENTS </text>
<text transform="matrix(1 0 0 1 1012.0163 788.9686)" class="st12 st13">TO SHOPPING LIST</text>
<text transform="matrix(1 0 0 1 591.803 638.5644)" class="st12 st13">20-MINUTE </text>
<text transform="matrix(1 0 0 1 572.603 650.5644)" class="st12 st13">FRITTATA FOR TWO</text>
<text transform="matrix(1 0 0 1 311.6125 645.5275)" class="st12 st13">RECIPE</text>
<text transform="matrix(1 0 0 1 1030.4183 352.1534)" class="st12 st13">TRENDING</text>
<text transform="matrix(1 0 0 1 310.8331 506.8307)" class="st12 st13">PANTRY</text>
<text transform="matrix(1 0 0 1 302.6772 352.1643)" class="st12 st13">EQUIPMENT</text>
<text transform="matrix(1 0 0 1 293.1563 782.9688)" class="st12 st13">SHOPPING LIST</text>
<text transform="matrix(1 0 0 1 302.4871 169.5547)" class="st14 st15 st16">START</text>
<text transform="matrix(1 0 0 1 177.5908 165.9366)" class="st12 st13">SETTING</text>
<text transform="matrix(1 0 0 1 1172.1826 266.3933)" class="st12 st13">CHANGE </text>
<text transform="matrix(1 0 0 1 1165.4827 278.3933)" class="st12 st13">PASSWORD </text>
<text transform="matrix(1 0 0 1 717.8244 166.9856)" class="st12 st13">SIGN UP</text>
<text transform="matrix(1 0 0 1 455.8936 166.9856)" class="st12 st13">SOCIAL MEDIA ACOUNT</text>
<text transform="matrix(1 0 0 1 1165.7605 48.1613)" class="st12 st13">SKIP</text>
<text transform="matrix(1 0 0 1 892.4464 48.1613)" class="st12 st13">LANDING PAGE</text>
<text transform="matrix(1 0 0 1 43.9022 169.8966)" class="st14 st15 st16">EXIT</text>
</svg>
