<svg width="123" height="32" viewBox="0 0 123 32" fill="none" xmlns="http://www.w3.org/2000/svg">
<g clip-path="url(#clip0_3601_22)">
<path d="M8.52145 27.0338C8.40316 26.9951 8.2791 26.969 8.1478 26.969C7.48453 26.969 6.94754 27.5063 6.94754 28.1695C6.94754 28.8323 7.48453 29.37 8.1478 29.37C8.2791 29.37 8.40316 29.3435 8.52145 29.305C8.04213 29.1469 7.69434 28.7008 7.69434 28.1695C7.69434 27.6374 8.04213 27.1919 8.52145 27.0338Z" fill="#2F3D53"/>
<path d="M27.0156 30.3251C25.8249 30.3251 24.8598 29.3601 24.8598 28.1695C24.8598 26.9786 25.8249 26.0136 27.0156 26.0136C28.2064 26.0136 29.1712 26.9786 29.1712 28.1695C29.1712 29.3601 28.2064 30.3251 27.0156 30.3251ZM23.7867 30.0244L10.4831 31.0715C11.3307 30.3881 11.8741 29.3426 11.8741 28.1695C11.8741 27.4897 11.6891 26.8541 11.3709 26.3054L22.9535 26.1146C23.6377 25.0279 24.8446 24.3046 26.223 24.3046C26.5901 24.3046 26.9418 24.3603 27.2776 24.456C27.1912 24.4505 27.1038 24.4432 27.0156 24.4432C24.9576 24.4432 23.2893 26.1112 23.2893 28.1695C23.2893 28.8456 23.4719 29.4779 23.7867 30.0244ZM8.14756 30.3251C6.95772 30.3251 5.992 29.3601 5.992 28.1695C5.992 26.9786 6.95772 26.0136 8.14756 26.0136C9.3383 26.0136 10.3033 26.9786 10.3033 28.1695C10.3033 29.3601 9.3383 30.3251 8.14756 30.3251ZM10.6014 12.7229C12.3194 14.1916 11.8651 23.1631 9.70709 23.6871C8.98304 23.7169 8.05094 10.5438 10.6014 12.7229ZM15.8496 12.6591C17.5564 14.1231 17.12 23.0006 14.9569 23.5076C14.2269 23.537 13.3065 10.4783 15.8496 12.6591ZM21.0961 12.5764C22.794 14.0388 22.3671 22.8167 20.203 23.3082C19.4659 23.3384 18.5639 10.3952 21.0961 12.5764ZM26.3422 12.4932C28.0309 13.9546 27.6136 22.6325 25.449 23.1089C24.7058 23.1394 23.8212 10.312 26.3422 12.4932ZM29.0496 25.0496C28.9258 19.6872 32.1003 10.6549 30.742 8.7532C30.1243 7.88941 29.1106 9.28798 25.1835 9.9908C21.8675 10.5842 12.1633 10.5665 7.36227 10.0792C6.7731 9.07529 6.0066 7.66744 6.0066 6.29009C6.0066 2.20718 9.71835 0.980602 11.1689 0.927061C11.1689 2.00399 11.1485 3.19694 11.1733 4.34654L11.8752 4.77878C11.8781 3.46754 11.8832 1.3774 11.8741 0.752006C11.8695 0.468568 11.8752 0.173187 11.5719 0.0213365C11.2418 -0.143814 4.90229 0.571122 4.90229 6.44573C4.90229 7.22043 5.06545 8.57101 5.28211 9.72729C6.07689 16.4029 6.27787 18.17 6.09902 24.5172C6.49339 24.3813 6.91504 24.3046 7.35542 24.3046C7.7284 24.3046 8.08875 24.3587 8.43009 24.4571C8.33682 24.4505 8.24349 24.4432 8.14756 24.4432C6.08997 24.4432 4.42121 26.1112 4.42121 28.1695C4.42121 29.5531 5.1771 30.7575 6.29711 31.4007L-0.000213623 31.8959H27.0156C29.0733 31.8959 30.742 30.2274 30.742 28.1695C30.742 26.8625 30.0679 25.7144 29.0496 25.0496Z" fill="#2F3D53"/>
<path d="M27.389 27.0338C27.2708 26.9951 27.1465 26.969 27.0154 26.969C26.3521 26.969 25.8149 27.5063 25.8149 28.1695C25.8149 28.8323 26.3521 29.37 27.0154 29.37C27.1465 29.37 27.2708 29.3435 27.389 29.305C26.91 29.1469 26.5622 28.7008 26.5622 28.1695C26.5622 27.6374 26.91 27.1919 27.389 27.0338Z" fill="#2F3D53"/>
<path d="M12.4994 7.74198L14.2147 7.5693L12.9747 6.4652L13.3381 4.92384L11.9663 5.77563L10.3825 4.75427L10.7152 6.56074L9.33899 7.68249L11.0667 7.79393L11.7092 9.40735L12.4994 7.74198Z" fill="#35A8B6"/>
<path d="M49.522 22.542C49.1846 25.5781 45.8708 25.6975 43.7084 23.8713C44.3631 22.463 44.7796 20.6568 45.117 19.5255C47.1217 19.3862 49.7937 19.9763 49.522 22.542ZM40.652 25.1216C38.5782 25.2281 39.5733 22.159 42.1209 24.0099C41.6639 24.7446 41.1881 25.0822 40.652 25.1216ZM46.6648 12.2628C44.027 12.2409 40.4274 13.3093 40.386 16.5237C40.3765 17.2742 40.7692 20.0271 41.9939 19.1484C42.6097 18.7068 41.5003 17.5053 42.0906 15.6851C42.8272 13.4157 47.4154 12.5311 49.1922 14.302C51.5832 16.6859 47.3696 18.6266 45.4345 18.5539C45.6305 17.922 45.7576 17.2603 46.0123 16.6486C46.1362 16.3503 47.0687 15.361 47.0817 15.2202C47.1951 13.9779 45.7824 14.7329 45.2671 15.3141C43.555 17.2466 43.5174 20.7072 42.5769 23.0378C41.1271 22.0258 37.9252 21.806 37.9541 24.3278C37.985 27.1047 42.0092 26.5122 43.1524 24.8835C45.1873 26.3634 48.5053 27.1456 50.3065 24.8357C51.9444 22.736 51.0428 19.3668 48.232 18.9699C50.1815 18.73 51.8536 16.8878 51.2573 14.8799C50.6885 12.9649 48.4569 12.2747 46.6648 12.2628Z" fill="#2F3D53"/>
<path d="M74.9278 28.8755C74.7206 29.4359 73.7579 31.3985 72.858 30.5402C71.8381 29.5664 74.78 27.8353 75.3132 27.5508C75.1847 27.9993 75.0993 28.4481 74.9278 28.8755ZM66.7467 24.1045C65.7228 25.1131 64.0391 25.5509 63.554 23.952C63.2308 22.8842 63.5846 20.8595 64.1245 19.8944C64.7771 18.7278 67.3732 17.3432 68.1242 19.1284C68.5844 20.2223 68.315 22.5591 66.7467 24.1045ZM79.5699 24.3687C79.4912 23.5529 78.8624 24.6329 78.7849 24.6964C78.3106 25.0855 77.9155 25.3581 77.3433 25.6477C77.7644 24.1521 78.1544 22.6481 78.5505 21.1458C78.8001 20.2013 80.3311 17.194 78.5771 17.1725C77.3071 17.1563 77.0637 20.2588 76.6489 21.2758C76.1774 22.431 75.1338 24.7572 73.6747 24.986C70.9439 25.4145 75.2543 17.9932 73.7653 17.2415C72.2275 16.4648 72.107 19.5514 71.871 20.3638C71.3842 22.0419 70.9892 24.231 68.7355 24.0183C69.6235 22.4856 70.4928 20.1096 69.6246 18.3873C68.5985 16.3523 65.9673 17.0796 64.5445 18.247C64.8959 17.0847 67.1338 12.2054 66.2882 11.5415C64.6673 10.2685 63.7306 15.0788 63.4714 15.9209C62.6801 18.4862 62.7328 21.9704 60.8532 23.9697C60.41 24.4406 59.5339 25.3541 58.908 24.7158C58.2922 24.0879 59.4054 21.33 59.5984 20.6307C59.7694 20.009 60.0303 19.7143 59.5209 19.2967C59.2407 19.0665 58.6793 19.0705 58.4025 19.2699C58.0947 19.4923 57.909 20.7003 57.7421 21.1137C57.4234 21.9026 57.0199 22.6752 56.527 23.3694C56.149 23.9011 55.2105 25.2447 54.3744 25.0459C53.2203 24.7705 53.6065 22.9317 53.8524 22.1495C54.2384 20.9187 55.0181 19.6468 56.0977 18.9062C57.4319 17.9905 58.5214 18.3475 59.9086 18.8351C60.4293 19.0179 60.5198 19.3402 60.9998 18.8803C61.5607 18.3436 60.946 18.216 60.4689 17.8512C59.5113 17.1179 58.1462 16.9021 56.9995 17.1139C54.0482 17.6582 51.4543 21.1007 51.7822 24.1023C51.9188 25.357 52.6649 26.3176 54.0062 26.3059C55.625 26.2921 56.618 24.8036 57.3623 23.5695C57.1455 24.6554 57.3385 26.0218 58.6453 26.1569C60.1146 26.3076 61.3841 24.7373 62.0814 23.6673C62.3287 27.0299 66.1348 26.7259 68.0297 24.7881C68.9268 24.9904 69.9365 24.9473 70.8896 24.2206C70.7696 25.5829 71.7097 26.4281 73.0459 26.2804C74.5135 26.1179 75.6692 24.8157 76.3868 23.6341C76.0025 25.0236 75.8039 25.7332 75.5905 26.2888C74.136 26.9216 72.1828 27.6578 71.4306 29.1788C70.7639 30.5285 71.3689 31.876 72.8886 31.9905C75.6239 32.1966 76.4695 28.9876 77.0015 26.909C79.2891 25.7974 79.6185 24.8717 79.5699 24.3687Z" fill="#2F3D53"/>
<path d="M82.5475 19.4479C82.5475 20.177 82.6754 20.8524 82.9323 21.4732C83.1887 22.0943 83.5441 22.6315 83.9992 23.0853C84.4548 23.5397 84.9896 23.8952 85.6048 24.151C86.22 24.4074 86.8873 24.5346 87.605 24.5346C88.3232 24.5346 88.9865 24.4074 89.5955 24.151C90.2045 23.8952 90.7303 23.543 91.1729 23.0953C91.6149 22.6469 91.9646 22.1099 92.221 21.483C92.4768 20.8558 92.6053 20.177 92.6053 19.4479C92.6053 18.7316 92.4768 18.0635 92.221 17.4422C91.9646 16.8214 91.6149 16.2846 91.1729 15.8294C90.7303 15.3756 90.2045 15.0172 89.5955 14.7552C88.9865 14.4928 88.3232 14.3615 87.605 14.3615C86.8873 14.3615 86.22 14.4928 85.6048 14.7552C84.9896 15.0172 84.4548 15.3789 83.9992 15.8396C83.5441 16.3003 83.1887 16.8376 82.9323 17.4522C82.6754 18.0661 82.5475 18.7316 82.5475 19.4479ZM93.9297 27.318C94.0836 27.4584 94.0961 27.6125 93.9687 27.7789L93.1238 28.7196C93.0592 28.8085 92.9828 28.8534 92.8934 28.8534C92.8034 28.8534 92.727 28.8218 92.663 28.7572L89.7262 26.07C89.0737 26.2623 88.3696 26.3585 87.6152 26.3585C86.5907 26.3585 85.6473 26.1821 84.7836 25.8301C83.9199 25.4785 83.174 24.9922 82.5475 24.3716C81.9198 23.7515 81.4308 23.0184 81.0788 22.1734C80.7267 21.3288 80.5513 20.4206 80.5513 19.4479C80.5513 18.4758 80.7267 17.5671 81.0788 16.7226C81.4308 15.8776 81.9198 15.1452 82.5475 14.5242C83.174 13.904 83.9199 13.4143 84.7836 13.0562C85.6473 12.698 86.5907 12.5185 87.6152 12.5185C88.639 12.5185 89.5796 12.6945 90.436 13.0464C91.2934 13.3986 92.0331 13.8848 92.6534 14.5052C93.2743 15.1258 93.7605 15.8591 94.1125 16.7032C94.464 17.5477 94.64 18.4629 94.64 19.4479C94.64 20.6892 94.3712 21.806 93.834 22.7979C93.2964 23.7895 92.5674 24.5925 91.646 25.2067L93.9297 27.318Z" fill="#35A8B6"/>
<path d="M120.332 17.8955H120.538C120.779 17.8955 120.973 17.8152 120.973 17.6207C120.973 17.4483 120.847 17.3333 120.572 17.3333C120.457 17.3333 120.377 17.345 120.332 17.3571V17.8955ZM120.319 18.9618H119.884V17.0812C120.056 17.0472 120.297 17.0238 120.607 17.0238C120.962 17.0238 121.122 17.0812 121.26 17.1615C121.363 17.2422 121.443 17.3908 121.443 17.5742C121.443 17.7805 121.283 17.9413 121.053 18.0104V18.033C121.237 18.1022 121.341 18.2397 121.397 18.4917C121.455 18.7783 121.489 18.893 121.535 18.9618H121.065C121.007 18.893 120.973 18.7212 120.916 18.5035C120.881 18.2972 120.767 18.205 120.526 18.205H120.319V18.9618ZM119.162 17.9755C119.162 18.813 119.781 19.4778 120.629 19.4778C121.455 19.4778 122.062 18.813 122.062 17.9879C122.062 17.1498 121.455 16.4737 120.617 16.4737C119.781 16.4737 119.162 17.1498 119.162 17.9755ZM122.545 17.9755C122.545 19.0423 121.707 19.8793 120.617 19.8793C119.54 19.8793 118.68 19.0423 118.68 17.9755C118.68 16.9327 119.54 16.0956 120.617 16.0956C121.707 16.0956 122.545 16.9327 122.545 17.9755Z" fill="#2F3D53"/>
<path d="M104.051 17.3561C104.268 17.3561 104.378 17.4648 104.378 17.6822V25.8595C104.378 26.0771 104.268 26.1854 104.051 26.1854H103.11C102.893 26.1854 102.784 26.0833 102.784 25.8781L102.727 24.8419C102.47 25.2641 102.096 25.6227 101.604 25.9164C101.111 26.2115 100.519 26.3585 99.8282 26.3585C99.2515 26.3585 98.7212 26.259 98.235 26.0605C97.7483 25.8627 97.3329 25.5841 96.9871 25.2259C96.6418 24.8677 96.373 24.4356 96.1811 23.9306C95.9892 23.4247 95.893 22.865 95.893 22.2508V17.6822C95.893 17.4648 95.9955 17.3561 96.1998 17.3561H97.4857C97.6906 17.3561 97.793 17.4648 97.793 17.6822V21.8666C97.793 22.6724 97.9979 23.3164 98.4071 23.7955C98.8168 24.2753 99.3675 24.5158 100.057 24.5158C100.442 24.5158 100.784 24.4455 101.085 24.3047C101.386 24.1643 101.635 23.9753 101.834 23.7381C102.032 23.5017 102.186 23.2362 102.294 22.9417C102.403 22.647 102.458 22.347 102.458 22.0397V17.6822C102.458 17.4648 102.566 17.3561 102.784 17.3561H104.051Z" fill="#35A8B6"/>
<path d="M106.22 26.1854C106.002 26.1854 105.894 26.0766 105.894 25.8595L105.913 17.6822C105.913 17.4644 106.015 17.3561 106.22 17.3561H107.506C107.711 17.3561 107.812 17.4644 107.812 17.6822V25.8595C107.812 26.0766 107.711 26.1854 107.506 26.1854H106.22ZM106.834 15.667C106.463 15.667 106.146 15.5454 105.884 15.302C105.622 15.059 105.49 14.7457 105.49 14.3613C105.49 13.9777 105.622 13.6704 105.884 13.4398C106.146 13.2096 106.463 13.0883 106.834 13.0752C107.218 13.0624 107.541 13.1778 107.803 13.4206C108.066 13.6639 108.197 13.9777 108.197 14.3613C108.197 14.7457 108.066 15.059 107.803 15.302C107.541 15.5454 107.218 15.667 106.834 15.667Z" fill="#35A8B6"/>
<path d="M113.936 24.6113C114.32 24.6113 114.675 24.5406 115.002 24.4002C115.328 24.2598 115.616 24.0615 115.866 23.805C116.115 23.549 116.309 23.249 116.45 22.903C116.591 22.5575 116.661 22.1801 116.661 21.7706C116.661 21.3614 116.591 20.984 116.45 20.638C116.309 20.2925 116.115 19.9925 115.866 19.7364C115.616 19.4807 115.328 19.2817 115.002 19.1413C114.675 19.0003 114.32 18.9301 113.936 18.9301C113.526 18.9301 113.152 19.0003 112.813 19.1413C112.474 19.2817 112.182 19.4767 111.939 19.7261C111.697 19.9763 111.508 20.2765 111.373 20.6285C111.239 20.9807 111.172 21.3614 111.172 21.7706C111.172 22.1801 111.239 22.5575 111.373 22.903C111.508 23.249 111.697 23.549 111.939 23.805C112.182 24.0615 112.474 24.2598 112.813 24.4002C113.152 24.5406 113.526 24.6113 113.936 24.6113ZM114.281 17.1829C114.883 17.1829 115.446 17.2979 115.971 17.5285C116.495 17.7591 116.95 18.079 117.334 18.4885C117.717 18.8981 118.021 19.3845 118.246 19.9471C118.47 20.5102 118.582 21.1178 118.582 21.7706C118.582 22.4239 118.472 23.0312 118.255 23.5939C118.038 24.1572 117.74 24.644 117.363 25.053C116.985 25.4631 116.537 25.7826 116.018 26.0132C115.5 26.2436 114.934 26.3585 114.32 26.3585C113.629 26.3585 113.027 26.2208 112.516 25.9455C112.004 25.6703 111.582 25.3283 111.249 24.9189V29.6025C111.249 29.8196 111.14 29.9283 110.922 29.9283H109.674C109.457 29.9283 109.348 29.8196 109.348 29.6025V17.6822C109.348 17.4644 109.457 17.3561 109.674 17.3561H110.673C110.891 17.3561 110.999 17.4582 110.999 17.6633L111.057 18.6996C111.402 18.2521 111.84 17.8867 112.371 17.6052C112.903 17.324 113.539 17.1829 114.281 17.1829Z" fill="#35A8B6"/>
</g>
<defs>
<clipPath id="clip0_3601_22">
<rect width="122.544" height="32" fill="white"/>
</clipPath>
</defs>
</svg>
