<?xml version="1.0" encoding="utf-8"?>
<!-- Generator: Adobe Illustrator 25.2.1, SVG Export Plug-In . SVG Version: 6.00 Build 0)  -->
<svg version="1.1" id="Layer_1" xmlns="http://www.w3.org/2000/svg" xmlns:xlink="http://www.w3.org/1999/xlink" x="0px" y="0px"
	 viewBox="0 0 603.4 288" style="enable-background:new 0 0 603.4 288;" xml:space="preserve">
<style type="text/css">
	.st0{fill:#4C665B;}
	.st1{fill:#EAF0EE;}
	.st2{fill:#FFE1AB;}
	.st3{fill:#424242;}
	.st4{fill:#EDD1BC;}
	.st5{fill:#020202;}
	.st6{fill:none;stroke:#494949;stroke-miterlimit:10;}
	.st7{font-family:'Lato-Regular';}
	.st8{font-size:10px;}
	.st9{font-family:'Lato-Hairline';}
	.st10{font-size:8px;}
	.st11{enable-background:new    ;}
</style>
<g id="Layer_2_1_">
</g>
<g>
	<g id="circle">
		<ellipse class="st0" cx="108" cy="129.5" rx="36" ry="36"/>
	</g>
	<g id="vector">
		<path class="st1" d="M128.6,150.3c0.6,0.2,1.2,0.5,1.7,0.8c0.5,0.5,0.9,1.1,1,1.8v4.1c-2.7,2.3-5.7,4.1-8.9,5.5l2.7-13.2l1.4,0.4
			L128.6,150.3z"/>
		<path class="st1" d="M87.4,150.3c-0.6,0.2-1.2,0.5-1.7,0.8c-0.5,0.5-0.9,1.1-1,1.8v4.1c2.7,2.3,5.7,4.1,8.9,5.5l-2.7-13.2
			l-1.4,0.4L87.4,150.3z"/>
		<path class="st2" d="M119.9,121.6c-2.8,0.3-5.6-0.1-8.2-1.1c-1.8-0.6-3.5-1.7-4.9-3.1c-1.1-1.1-2-2.3-2.8-3.7
			c-1.1,0.1-2.1,0.5-3,0.9c-0.9,0.5-1.6,1-2.3,1.6c-1.4,1.4-2.3,3.1-2.6,4.9v7.3c0,0.8,0.2,1.6,0.5,2.4c0.5,1.5,1.4,3,2.6,4.2
			c1.5,1.9,3.4,3.4,5.5,4.6c0.5,0.3,1.2,0.5,1.8,0.6c1.1,0.3,2.2,0.3,3.2,0c0.6-0.2,1.2-0.4,1.8-0.6c2.2-1.2,4-2.7,5.5-4.6
			c1.2-1.3,2-2.7,2.6-4.2c0.3-0.8,0.4-1.6,0.5-2.4L119.9,121.6z"/>
		<path class="st3" d="M120,113.5c-0.1-0.8-0.3-1.7-0.6-2.4c-0.5-1.1-1.2-2.2-2.2-2.9c-1.8-1.5-4.2-2-6.6-2.3
			c-1.4-0.2-2.9-0.3-4.3-0.2c-2.2,0.1-4.3,0.6-6.2,1.6c-1,0.5-1.9,1.3-2.7,2.2c-0.9,1.4-1.4,2.9-1.6,4.4c-0.5,2.4-0.3,5,0.3,7.3
			c0.4-1.9,1.3-3.5,2.6-4.9c0.7-0.6,1.4-1.3,2.3-1.6c1-0.5,2-0.7,3-0.9c0.8,1.4,1.7,2.5,2.8,3.7c1.4,1.4,3.1,2.4,4.9,3.1
			c3.1,1.2,6.8,1.5,9.7,0.7c1.1-0.3,2-0.8,2.8-1.6c-1.1,0.2-2.3-0.1-3.2-0.7c-0.5-0.4-0.9-0.9-1.2-1.4c1.6,0.7,3.4,0.3,4.5-1.1
			c-0.7,0-1.4-0.2-2-0.5C121.4,115.3,120.5,114.4,120,113.5z"/>
		<path class="st2" d="M119.9,121.6c0.2,0,0.3,0,0.5-0.1c0.3,0.3,0.5,0.5,0.7,0.9c0.3,0.6,0.5,1.4,0.4,2.1c-0.1,1.4-0.6,2.9-1.5,4
			L119.9,121.6z"/>
		<path class="st4" d="M102.6,138.4c0.6,0.5,1.3,0.9,2,1.3c0.5,0.3,1.2,0.5,1.8,0.6c1.1,0.3,2.2,0.3,3.2,0c0.6-0.2,1.2-0.4,1.8-0.6
			c0.7-0.4,1.4-0.7,2-1.3v6.6l-5.4,2.9l-5.4-2.9V138.4L102.6,138.4z"/>
		<path class="st1" d="M110.7,152c0,0.3-0.1,0.5-0.4,0.5l-0.6,0.4c-0.1,0-0.1,0.1-0.2,0.1h-0.2c0.3,1.5,0.6,3,0.9,4.4l1.8-4.1
			l-4.1-5.5l2.7,3.7L110.7,152L110.7,152L110.7,152z"/>
		<path class="st1" d="M103.9,153.4l1.8,4.1c0.3-1.5,0.6-3,0.9-4.4h-0.1c-0.1,0-0.1,0-0.2-0.1l-0.6-0.4c-0.2-0.1-0.4-0.4-0.4-0.6
			v-0.4l2.7-3.7L103.9,153.4L103.9,153.4z"/>
		<path class="st5" d="M119.3,147.6c-1.4-0.5-2.7-1-4.1-1.6l-1.8,6.1c-0.1,0.5-0.4,0.8-0.5,1.2l-0.2,0.2c-0.2,0.3-0.4,0.3-0.5,0
			v-0.1l-1.8,4.1c0.5,2.3,0.9,4.6,1.4,6.9l-0.2,1c3.8-0.4,7.5-1.3,10.9-2.8l2.7-13.2C123.2,148.8,121.2,148.3,119.3,147.6z"/>
		<path d="M105.7,157.5l-1.8-4.1v0.1c-0.2,0.3-0.4,0.3-0.5,0l-0.2-0.2c-0.3-0.4-0.5-0.7-0.5-1.2l-1.8-6c-1.4,0.5-2.7,1.2-4.1,1.6
			c-1.9,0.6-3.9,1.2-5.9,1.7l2.7,13.2c3.4,1.5,7.1,2.5,10.9,2.8l-0.2-1C104.8,162.1,105.3,159.8,105.7,157.5z"/>
		<path class="st1" d="M112.2,153.5c0.2,0.3,0.4,0.3,0.5,0l0.2-0.2c0.3-0.4,0.5-0.7,0.5-1.2l1.8-6l-1.8-1L108,148L112.2,153.5
			L112.2,153.5z"/>
		<path class="st1" d="M103.1,153.3l0.2,0.2c0.2,0.3,0.4,0.3,0.5,0l4.2-5.6l-5.4-2.9l-1.8,1l1.8,6.1
			C102.7,152.6,102.9,152.9,103.1,153.3z"/>
		<path class="st0" d="M110.3,157.5L110.3,157.5c-0.3-1.5-0.6-3-0.9-4.4h0.2c0.1,0,0.1,0,0.2-0.1l0.6-0.4c0.2-0.1,0.4-0.4,0.4-0.5
			v-0.5l-2.7-3.7l-2.7,3.7v0.5c0,0.3,0.1,0.5,0.4,0.6l0.6,0.4c0.1,0,0.1,0.1,0.2,0.1h0.2c-0.3,1.5-0.6,3-0.9,4.4l0,0
			c-0.5,2.3-0.9,4.6-1.4,6.9l0.2,1c2.3,0.2,4.6,0.2,6.9,0l0.2-1C111.2,162.1,110.7,159.8,110.3,157.5z"/>
		<path class="st2" d="M96.1,121.1v7.3c-0.9-1.2-1.4-2.5-1.4-4c-0.1-0.7,0.1-1.4,0.4-2.1C95.2,121.8,95.5,121.5,96.1,121.1z"/>
	</g>
	<g id="mouth">
		<line class="st6" x1="106.1" y1="134.5" x2="109.9" y2="134.5"/>
	</g>
</g>
<text transform="matrix(1 0 0 1 89.2399 183.8382)" class="st7 st8">Alex Wu</text>
<text transform="matrix(1 0 0 1 95.0001 198.8399)" class="st9 st10">Adg: 35</text>
<text transform="matrix(1 0 0 1 59.9283 208.4399)" class="st9 st10">Education: bachelor&apos;s degree</text>
<text transform="matrix(1 0 0 1 55.0084 218.0399)" class="st9 st10">Hometown: Berkeley, California</text>
<text transform="matrix(1 0 0 1 249.5894 115.9819)" class="st9 st10">Find an easy way to not kill my plants</text>
<text transform="matrix(1 0 0 1 249.5894 125.9434)" class="st9 st10">Regular watering schedule that i can put on my Google calendar</text>
<text transform="matrix(1 0 0 1 249.5894 218.2083)" class="st11"><tspan x="0" y="0" class="st9 st10">Alex Wu is a software engineer with a busy and demanding schedule. </tspan><tspan x="0" y="9.6" class="st9 st10">He works at a large social media company. </tspan><tspan x="0" y="19.2" class="st9 st10">Alex is working on collecting data technologies. </tspan><tspan x="0" y="28.8" class="st9 st10">a gardening app helps him to save time taking care of his plants effectively. </tspan></text>
<text transform="matrix(1 0 0 1 249.7493 160.8071)" class="st9 st10">I am always struggled about the plant is over whatering or under watering</text>
<text transform="matrix(1 0 0 1 249.7493 171.5943)" class="st9 st10">overwhelming information from the internet to made poor judgment.</text>
<text transform="matrix(1 0 0 1 249.7493 181.1939)" class="st9 st10">I followed the application instructions, but most of my plants died</text>
<text transform="matrix(1 0 0 1 250.0694 104.5283)" class="st7 st8">Goals</text>
<text transform="matrix(1 0 0 1 249.5894 79.1993)" class="st9 st10">“I am busy with work, but I grow several plants at home during this pandemic.”</text>
<text transform="matrix(1 0 0 1 250.0694 69.7457)" class="st7 st8">Attitude &amp; personality</text>
<text transform="matrix(1 0 0 1 250.0694 205.9208)" class="st7 st8">Story</text>
<text transform="matrix(1 0 0 1 249.8297 149.4676)" class="st7 st8">Frustrations</text>
</svg>
