<svg width="23" height="24" viewBox="0 0 23 24" fill="none" xmlns="http://www.w3.org/2000/svg">
<path d="M17.5907 15.2706C16.5256 14.3597 15.4448 13.8079 14.3928 14.7174L13.7647 15.2671C13.3051 15.6662 12.4506 17.5307 9.14684 13.7301C5.84376 9.93445 7.80937 9.34346 8.26964 8.94786L8.90123 8.39746C9.94768 7.48586 9.55276 6.33828 8.79803 5.15698L8.34257 4.44146C7.5844 3.26292 6.7588 2.48892 5.7096 3.39914L5.14268 3.8945C4.67897 4.23231 3.38278 5.33036 3.06836 7.41637C2.68996 9.91932 3.88364 12.7855 6.61844 15.9304C9.3498 19.0766 12.0241 20.6569 14.5573 20.6294C16.6626 20.6067 17.934 19.477 18.3316 19.0663L18.9006 18.5702C19.9471 17.6607 19.2969 16.7346 18.2312 15.8217L17.5907 15.2706Z" fill="#333333"/>
</svg>
