<svg width="38" height="38" viewBox="0 0 38 38" fill="none" xmlns="http://www.w3.org/2000/svg">
<rect width="38" height="38" rx="19" fill="#1A47C1"/>
<path d="M13.0621 14.8119C13.1121 13.1783 13.6872 11.9115 14.7874 11.0114C15.9042 10.0946 17.3543 9.63623 19.1379 9.63623C20.9381 9.63623 22.3466 10.0946 23.3634 11.0114C24.3802 11.9115 24.8886 13.0533 24.8886 14.4368C24.8886 15.5036 24.6136 16.4037 24.0635 17.1371C23.5134 17.8539 22.8967 18.329 22.2133 18.5623V18.6623C24.2135 19.3458 25.2136 20.8543 25.2136 23.1879C25.2136 24.7381 24.6802 25.9882 23.6134 26.9383C22.5466 27.8885 21.0798 28.3635 19.2129 28.3635C17.346 28.3635 15.8208 27.8885 14.6373 26.9383C13.4539 25.9882 12.8371 24.5964 12.7871 22.7628H16.1875C16.2209 23.5796 16.4959 24.238 17.0126 24.7381C17.546 25.2215 18.2544 25.4632 19.1379 25.4632C20.0213 25.4632 20.6881 25.2298 21.1381 24.7631C21.6049 24.2797 21.8382 23.5963 21.8382 22.7128C21.8382 21.8294 21.5215 21.1793 20.8881 20.7626C20.2714 20.3292 19.2879 20.1125 17.9377 20.1125H17.2126V17.2372H17.9377C20.3047 17.2372 21.4882 16.4454 21.4882 14.8619C21.4882 14.1785 21.2715 13.6367 20.8381 13.2367C20.4047 12.8366 19.788 12.6366 18.9879 12.6366C18.1878 12.6366 17.5877 12.8616 17.1876 13.3117C16.7876 13.7617 16.5542 14.2618 16.4876 14.8119H13.0621Z" fill="white"/>
</svg>
