<svg width="38" height="38" viewBox="0 0 38 38" fill="none" xmlns="http://www.w3.org/2000/svg">
<rect width="38" height="38" rx="19" fill="#1A47C1"/>
<path d="M12.8625 28.0261V25.4508C13.2959 25.0674 13.9627 24.4923 14.8628 23.7255C15.7629 22.9421 16.438 22.3503 16.8881 21.9503C17.3381 21.5502 17.8882 21.0252 18.5383 20.3751C19.205 19.7083 19.6968 19.1499 20.0135 18.6998C20.8303 17.533 21.2387 16.4995 21.2387 15.5994C21.2387 13.8325 20.4219 12.949 18.7883 12.949C17.9882 12.949 17.3631 13.2157 16.9131 13.7492C16.463 14.2826 16.2296 15.016 16.213 15.9495H12.8125C12.8292 13.9992 13.3959 12.5156 14.5127 11.4988C15.6462 10.482 17.1214 9.97363 18.9383 9.97363C20.7553 9.97363 22.1805 10.4904 23.2139 11.5238C24.2474 12.5573 24.7641 13.8575 24.7641 15.4244C24.7641 16.5912 24.4641 17.6747 23.864 18.6748C23.564 19.2082 23.2723 19.6833 22.9889 20.1C22.7055 20.5001 22.2971 20.9668 21.7637 21.5002C21.247 22.0336 20.8386 22.4503 20.5386 22.7504C20.2385 23.0504 19.7801 23.4755 19.1634 24.0256C18.5633 24.559 18.1466 24.934 17.9132 25.1507H25.1892V28.0261H12.8625Z" fill="white"/>
</svg>
