<svg width="85" height="85" viewBox="0 0 85 85" fill="none" xmlns="http://www.w3.org/2000/svg">
<rect x="0.5" y="0.5" width="84" height="84" rx="42" fill="#1A47C1"/>
<rect x="0.5" y="0.5" width="84" height="84" rx="42" stroke="white"/>
<path d="M16.4801 30.7273V54H13.6619V30.7273H16.4801ZM28.858 54.3636C27.2216 54.3636 25.8125 53.9773 24.6307 53.2045C23.4489 52.4318 22.5398 51.3674 21.9034 50.0114C21.267 48.6553 20.9489 47.1061 20.9489 45.3636C20.9489 43.5909 21.2746 42.0265 21.9261 40.6705C22.5852 39.3068 23.5019 38.2424 24.6761 37.4773C25.858 36.7045 27.2367 36.3182 28.8125 36.3182C30.0398 36.3182 31.1458 36.5455 32.1307 37C33.1155 37.4545 33.9223 38.0909 34.5511 38.9091C35.1799 39.7273 35.5701 40.6818 35.7216 41.7727H33.0398C32.8352 40.9773 32.3807 40.2727 31.6761 39.6591C30.9792 39.0379 30.0398 38.7273 28.858 38.7273C27.8125 38.7273 26.8958 39 26.108 39.5455C25.3277 40.0833 24.7178 40.8447 24.2784 41.8295C23.8466 42.8068 23.6307 43.9545 23.6307 45.2727C23.6307 46.6212 23.8428 47.7955 24.267 48.7955C24.6989 49.7955 25.3049 50.572 26.0852 51.125C26.8731 51.678 27.7973 51.9545 28.858 51.9545C29.5549 51.9545 30.1875 51.8333 30.7557 51.5909C31.3239 51.3485 31.8049 51 32.1989 50.5455C32.5928 50.0909 32.8731 49.5455 33.0398 48.9091H35.7216C35.5701 49.9394 35.1951 50.8674 34.5966 51.6932C34.0057 52.5114 33.2216 53.1629 32.2443 53.6477C31.2746 54.125 30.1458 54.3636 28.858 54.3636ZM46.733 54.3636C45.1572 54.3636 43.7746 53.9886 42.5852 53.2386C41.4034 52.4886 40.4792 51.4394 39.8125 50.0909C39.1534 48.7424 38.8239 47.1667 38.8239 45.3636C38.8239 43.5455 39.1534 41.9583 39.8125 40.6023C40.4792 39.2462 41.4034 38.1932 42.5852 37.4432C43.7746 36.6932 45.1572 36.3182 46.733 36.3182C48.3087 36.3182 49.6875 36.6932 50.8693 37.4432C52.0587 38.1932 52.983 39.2462 53.642 40.6023C54.3087 41.9583 54.642 43.5455 54.642 45.3636C54.642 47.1667 54.3087 48.7424 53.642 50.0909C52.983 51.4394 52.0587 52.4886 50.8693 53.2386C49.6875 53.9886 48.3087 54.3636 46.733 54.3636ZM46.733 51.9545C47.9299 51.9545 48.9148 51.6477 49.6875 51.0341C50.4602 50.4205 51.0322 49.6136 51.4034 48.6136C51.7746 47.6136 51.9602 46.5303 51.9602 45.3636C51.9602 44.197 51.7746 43.1098 51.4034 42.1023C51.0322 41.0947 50.4602 40.2803 49.6875 39.6591C48.9148 39.0379 47.9299 38.7273 46.733 38.7273C45.536 38.7273 44.5511 39.0379 43.7784 39.6591C43.0057 40.2803 42.4337 41.0947 42.0625 42.1023C41.6913 43.1098 41.5057 44.197 41.5057 45.3636C41.5057 46.5303 41.6913 47.6136 42.0625 48.6136C42.4337 49.6136 43.0057 50.4205 43.7784 51.0341C44.5511 51.6477 45.536 51.9545 46.733 51.9545ZM61.4176 43.5V54H58.7358V36.5455H61.3267V39.2727H61.554C61.9631 38.3864 62.5843 37.6742 63.4176 37.1364C64.2509 36.5909 65.3267 36.3182 66.6449 36.3182C67.8267 36.3182 68.8608 36.5606 69.7472 37.0455C70.6335 37.5227 71.3229 38.25 71.8153 39.2273C72.3078 40.197 72.554 41.4242 72.554 42.9091V54H69.8722V43.0909C69.8722 41.7197 69.5161 40.6515 68.804 39.8864C68.0919 39.1136 67.1146 38.7273 65.8722 38.7273C65.0161 38.7273 64.2509 38.9129 63.5767 39.2841C62.91 39.6553 62.3835 40.197 61.9972 40.9091C61.6108 41.6212 61.4176 42.4848 61.4176 43.5Z" fill="white"/>
</svg>
