<svg width="36" height="36" viewBox="0 0 36 36" fill="none" xmlns="http://www.w3.org/2000/svg">
<g clip-path="url(#clip0_3454_5205)">
<rect y="-0.390625" width="36" height="36" rx="8" fill="#1F293E"/>
<path fill-rule="evenodd" clip-rule="evenodd" d="M9 17.6094C9 14.0142 9 12.2167 9.85669 10.9219C10.2392 10.3438 10.7344 9.84862 11.3126 9.46607C12.6073 8.60938 14.4049 8.60938 18 8.60938C21.5951 8.60938 23.3927 8.60938 24.6874 9.46607C25.2656 9.84862 25.7608 10.3438 26.1433 10.9219C27 12.2167 27 14.0142 27 17.6094C27 21.2045 27 23.0021 26.1433 24.2968C25.7608 24.875 25.2656 25.3701 24.6874 25.7527C23.3927 26.6094 21.5951 26.6094 18 26.6094C14.4049 26.6094 12.6073 26.6094 11.3126 25.7527C10.7344 25.3701 10.2392 24.875 9.85669 24.2968C9 23.0021 9 21.2045 9 17.6094ZM22.6586 17.6094C22.6586 20.1827 20.5725 22.2688 17.9992 22.2688C15.4259 22.2688 13.3398 20.1827 13.3398 17.6094C13.3398 15.0361 15.4259 12.95 17.9992 12.95C20.5725 12.95 22.6586 15.0361 22.6586 17.6094ZM17.9992 20.6924C19.7019 20.6924 21.0822 19.3121 21.0822 17.6094C21.0822 15.9067 19.7019 14.5264 17.9992 14.5264C16.2965 14.5264 14.9162 15.9067 14.9162 17.6094C14.9162 19.3121 16.2965 20.6924 17.9992 20.6924ZM22.8427 13.8107C23.4473 13.8107 23.9375 13.3206 23.9375 12.7159C23.9375 12.1113 23.4473 11.6211 22.8427 11.6211C22.238 11.6211 21.7478 12.1113 21.7478 12.7159C21.7478 13.3206 22.238 13.8107 22.8427 13.8107Z" fill="white"/>
</g>
<defs>
<clipPath id="clip0_3454_5205">
<rect width="36" height="36" fill="white"/>
</clipPath>
</defs>
</svg>
