<svg width="36" height="37" viewBox="0 0 36 37" fill="none" xmlns="http://www.w3.org/2000/svg">
<rect y="0.0664062" width="36" height="36" rx="8" fill="#1F293E"/>
<path d="M9 11.4865C9 10.9092 9.20271 10.4331 9.60811 10.0579C10.0135 9.6827 10.5405 9.49512 11.1892 9.49512C11.8263 9.49512 12.3417 9.67981 12.7355 10.0492C13.1409 10.4302 13.3436 10.9266 13.3436 11.5384C13.3436 12.0925 13.1467 12.5543 12.7529 12.9237C12.3475 13.3046 11.8147 13.4951 11.1544 13.4951H11.1371C10.5 13.4951 9.98456 13.3046 9.59073 12.9237C9.19691 12.5427 9 12.0637 9 11.4865ZM9.22587 26.638V15.0709H13.083V26.638H9.22587ZM15.2201 26.638H19.0772V20.1791C19.0772 19.775 19.1236 19.4634 19.2162 19.244C19.3784 18.8515 19.6245 18.5196 19.9546 18.2484C20.2847 17.9771 20.6988 17.8414 21.1969 17.8414C22.4942 17.8414 23.1429 18.713 23.1429 20.4562V26.638H27V20.0059C27 18.2974 26.5946 17.0016 25.7838 16.1185C24.973 15.2354 23.9015 14.7938 22.5695 14.7938C21.0753 14.7938 19.9112 15.4345 19.0772 16.7159V16.7505H19.0598L19.0772 16.7159V15.0709H15.2201C15.2432 15.4403 15.2548 16.5889 15.2548 18.5168C15.2548 20.4446 15.2432 23.1517 15.2201 26.638Z" fill="white"/>
</svg>
