<svg width="75" height="40" viewBox="0 0 75 40" fill="none" xmlns="http://www.w3.org/2000/svg">
<path fill-rule="evenodd" clip-rule="evenodd" d="M65.416 23.4353L68.1118 19.5707C69.0077 18.1207 68.5389 16.8061 67.6285 16.2665C66.7181 15.7249 65.4535 15.9374 64.5868 17.3519L64.5348 17.4353C64.5473 17.4728 64.5598 17.5124 64.5681 17.5519C64.5827 17.6186 64.591 17.6894 64.5931 17.7582C64.5952 17.8936 64.5723 18.0228 64.5223 18.1478C64.4723 18.2707 64.4014 18.3811 64.3077 18.479C64.2139 18.5749 64.1056 18.6499 63.9827 18.7019C63.8577 18.754 63.7285 18.7811 63.5952 18.7832C63.3202 18.7832 63.0827 18.6874 62.8889 18.4936C62.691 18.2978 62.5931 18.0603 62.5931 17.7832C62.5889 17.5061 62.6889 17.2707 62.8889 17.0769C63.0618 16.9061 63.2702 16.8103 63.5118 16.7874C64.8723 14.7353 66.9785 14.6478 68.4118 15.5665C68.5952 15.6769 68.7639 15.8061 68.9223 15.9499C69.0785 16.0957 69.2202 16.2561 69.3452 16.429C69.4702 16.6019 69.5785 16.7853 69.666 16.9811C69.7556 17.1749 69.8243 17.3769 69.8723 17.5853C69.9202 17.7936 69.9473 18.004 69.9535 18.2165C69.9598 18.4311 69.9452 18.6436 69.9098 18.854C69.8743 19.0644 69.8181 19.2686 69.741 19.4686C69.6639 19.6686 69.5681 19.8582 69.4535 20.0394L66.4702 24.3082C66.2618 24.6249 65.9973 24.8874 65.6806 25.0957C65.3639 25.304 65.0181 25.4436 64.6452 25.5124C64.0493 32.6665 74.7452 24.6374 71.4243 16.879C71.0077 15.8936 70.4181 15.0269 69.6577 14.2749C68.8952 13.5311 68.0264 12.9499 67.0473 12.5311C66.0327 12.1061 64.9764 11.8936 63.8764 11.8936C62.7764 11.8936 61.7181 12.1061 60.7035 12.5311C59.7306 12.9499 58.8681 13.5311 58.1139 14.2749C57.3618 15.0311 56.7827 15.8978 56.3702 16.879C55.9348 17.8957 55.7202 18.9582 55.7264 20.0624C55.7202 21.1624 55.9348 22.2165 56.3702 23.2269C56.7806 24.204 57.3577 25.0665 58.1056 25.8165C58.8535 26.5686 59.7139 27.1499 60.691 27.5644C61.0723 27.7499 61.4743 27.8853 61.891 27.9707C62.0556 28.9978 62.4118 29.954 62.9556 30.8394C61.8348 30.7499 60.7556 30.4853 59.7223 30.0436C58.4014 29.4894 57.2327 28.7124 56.2118 27.7103C55.2035 26.6894 54.4243 25.5165 53.8723 24.1936C53.5973 23.5374 53.391 22.8624 53.2493 22.1665C53.1098 21.4707 53.041 20.7686 53.041 20.0582C53.041 19.3478 53.1098 18.6457 53.2493 17.9499C53.391 17.254 53.5973 16.5769 53.8723 15.9228C54.4243 14.5999 55.2056 13.4249 56.2118 12.4019C57.2348 11.404 58.4035 10.6249 59.7223 10.0686C61.0452 9.51027 62.4243 9.23318 63.8618 9.23735C65.3056 9.23318 66.6931 9.51027 68.0243 10.0686C69.3493 10.6228 70.5264 11.3999 71.5556 12.4019C72.5577 13.4269 73.3368 14.6019 73.8931 15.9228C74.0952 16.4144 74.2618 16.9186 74.391 17.4332C74.5181 17.9499 74.6098 18.4707 74.6598 18.9999C74.7118 19.529 74.7243 20.0603 74.6993 20.5894C74.6723 21.1207 74.6077 21.6478 74.5056 22.1686C74.4014 22.6894 74.2598 23.1999 74.0827 23.7019C73.9035 24.2019 73.6889 24.6874 73.4389 25.1561C73.1889 25.6249 72.9077 26.0749 72.591 26.5019C72.2743 26.929 71.9306 27.3332 71.5556 27.7103C67.8452 31.3582 62.9556 32.2561 62.8389 25.329C62.2056 25.0999 61.7223 24.6957 61.3868 24.1103L58.4139 19.5894C58.2827 19.329 58.1868 19.0561 58.1306 18.7707C58.0723 18.4853 58.0514 18.1978 58.0723 17.9061C58.0931 17.6144 58.1514 17.3332 58.2473 17.0561C58.3431 16.7811 58.4743 16.5249 58.641 16.2853C58.8056 16.0457 59.0014 15.8311 59.2243 15.6436C59.4493 15.4561 59.6931 15.3019 59.9598 15.1811C60.2243 15.0582 60.5014 14.9749 60.791 14.9269C61.0785 14.8811 61.3681 14.8728 61.6577 14.904C61.7389 14.829 61.8327 14.7707 61.9348 14.729C62.0598 14.6749 62.1931 14.6478 62.3306 14.6478C62.6056 14.6499 62.841 14.7457 63.0389 14.9374C63.1306 15.0311 63.2035 15.1394 63.2535 15.2624C63.3035 15.3832 63.3285 15.5103 63.3285 15.6436C63.3285 15.7749 63.3035 15.9019 63.2535 16.0249C63.2035 16.1457 63.1306 16.254 63.0389 16.3478C62.8452 16.5478 62.6098 16.6457 62.3306 16.6436C62.1035 16.6436 61.8973 16.5749 61.716 16.4353C61.5743 16.3228 61.4702 16.1853 61.4014 16.0186C59.7806 16.0686 58.6368 17.8499 59.7223 19.2561L62.5493 23.4936C63.3681 24.7207 64.6014 24.604 65.4535 23.4353H65.416Z" fill="#0099DE"/>
<path d="M44.9002 30.8753C44.6377 30.8753 44.319 30.8753 43.9315 30.8358C43.5294 30.8066 43.1315 30.7399 42.7398 30.6378C42.296 30.5274 41.8606 30.3899 41.4335 30.2233C40.969 30.0462 40.5335 29.8149 40.1252 29.5316C39.8002 29.2899 39.496 29.0274 39.2106 28.7399C38.8773 28.4024 38.594 28.0253 38.3585 27.6128C38.094 27.1378 37.8877 26.6378 37.744 26.1108C37.5773 25.4691 37.4981 24.8149 37.5065 24.1503H40.3044C40.3044 25.5503 40.7794 26.5795 41.7294 27.2378C42.6919 27.867 43.7502 28.1566 44.9002 28.1066C45.3919 28.1066 45.8752 28.0462 46.3523 27.9274C46.8065 27.8212 47.2294 27.6378 47.6169 27.3774C47.9919 27.1212 48.296 26.8003 48.5315 26.4108C48.7815 25.9899 48.8981 25.5378 48.8856 25.0483C48.896 24.492 48.7356 23.992 48.4002 23.5462C48.0606 23.0983 47.6502 22.7295 47.171 22.4358C46.6315 22.1003 46.0627 21.8233 45.4669 21.6045C44.821 21.3691 44.1877 21.1524 43.5627 20.9524C42.9294 20.7545 42.3335 20.5566 41.7815 20.3587C41.2856 20.192 40.8231 19.9628 40.3919 19.667C40.0294 19.4337 39.7023 19.1587 39.4106 18.842C39.119 18.5253 38.871 18.1753 38.671 17.7941C38.469 17.4128 38.319 17.0128 38.221 16.5941C38.1231 16.1753 38.0815 15.7503 38.0919 15.3191C38.0773 14.4253 38.2627 13.5753 38.6502 12.7691C39.0065 12.0295 39.4898 11.3858 40.1023 10.8358C40.721 10.2858 41.421 9.87117 42.2023 9.58992C43.0481 9.29409 43.919 9.14825 44.8148 9.15659C45.7085 9.16284 46.5773 9.31909 47.4169 9.6295C48.144 9.91909 48.7898 10.3358 49.3544 10.8753C49.8731 11.3545 50.2752 11.9149 50.5627 12.5587C50.8481 13.2024 50.996 13.8753 51.0044 14.5795H48.2315C48.221 14.1462 48.1023 13.7441 47.8773 13.3733C47.6648 13.0441 47.394 12.7733 47.0648 12.5608C46.719 12.3399 46.3481 12.1795 45.9502 12.0774C45.5565 11.9733 45.1544 11.9191 44.746 11.9191C44.2335 11.8899 43.7335 11.9566 43.246 12.117C42.7606 12.2774 42.321 12.5233 41.9273 12.8503C41.5815 13.167 41.3169 13.5399 41.1377 13.9712C40.9565 14.4024 40.8752 14.8524 40.896 15.3191C40.869 15.7274 40.9481 16.1149 41.1315 16.4795C41.3169 16.8441 41.5815 17.1378 41.9273 17.3587C42.9669 17.9399 44.0648 18.3816 45.219 18.6816L47.5002 19.4691C48.2648 19.7399 48.9585 20.1378 49.5815 20.6566C49.919 20.9128 50.2231 21.2066 50.4898 21.5337C50.7585 21.8628 50.9835 22.217 51.1669 22.5983C51.3481 22.9816 51.4835 23.3795 51.571 23.7941C51.6585 24.2066 51.696 24.6253 51.6835 25.0483C51.7023 25.9316 51.5044 26.7628 51.0877 27.542C50.7002 28.2545 50.1877 28.8649 49.5523 29.3733C48.896 29.8858 48.169 30.2628 47.369 30.5024C46.569 30.7503 45.7481 30.8753 44.9106 30.8753H44.9002Z" fill="#0099DE"/>
<path d="M31.8325 12.4019C32.8575 13.4165 33.6429 14.5894 34.1908 15.9227C34.7471 17.2519 35.0262 18.6373 35.0283 20.0769V29.9665H32.2304V26.9998C31.7408 27.6998 31.1596 28.3123 30.4866 28.8394C29.87 29.3206 29.2012 29.7144 28.4825 30.0248C27.7846 30.3269 27.0616 30.5456 26.3137 30.6811C25.6054 30.8081 24.8929 30.8727 24.1741 30.8748C22.7325 30.879 21.3491 30.6019 20.02 30.0477C18.7012 29.4977 17.5387 28.7186 16.5283 27.7102C16.0241 27.2102 15.5762 26.6644 15.1804 26.0769C14.7846 25.4873 14.4491 24.8644 14.1783 24.2102C13.9054 23.5561 13.7012 22.879 13.5616 22.1852C13.4241 21.4894 13.3554 20.7873 13.3575 20.0769C13.3533 18.6394 13.6241 17.254 14.17 15.9227C14.7179 14.5894 15.5033 13.4165 16.5283 12.4019C17.5387 11.3956 18.7033 10.6186 20.02 10.0686C20.6783 9.79355 21.3596 9.5873 22.0596 9.44772C22.7596 9.30814 23.4658 9.2373 24.1804 9.2373C24.895 9.2373 25.6033 9.30814 26.3033 9.44772C27.0033 9.5873 27.6825 9.79355 28.3429 10.0686C29.6596 10.6165 30.8241 11.3936 31.8325 12.4019ZM24.1825 28.1061C25.27 28.1144 26.3137 27.904 27.3116 27.4727C28.2762 27.0665 29.1304 26.4936 29.8721 25.7561C30.6116 25.0165 31.1866 24.1665 31.5971 23.2019C32.0241 22.204 32.2366 21.1623 32.2304 20.0769C32.2304 19.0061 32.0262 17.9769 31.6179 16.9873C31.2096 15.9977 30.6283 15.1227 29.8721 14.3623C29.1283 13.6248 28.2741 13.0498 27.3116 12.6373C26.3116 12.2165 25.2679 12.0061 24.1804 12.0061C23.095 12.0061 22.0512 12.2165 21.0512 12.6373C20.0887 13.0519 19.2346 13.6269 18.4887 14.3623C17.7491 15.1081 17.1741 15.9644 16.7658 16.9331C16.3429 17.9394 16.1366 18.9873 16.1471 20.0769C16.1408 21.1623 16.3512 22.204 16.7804 23.2019C17.1887 24.1665 17.7637 25.0165 18.5054 25.7561C19.2471 26.4936 20.0991 27.0665 21.0658 27.4727C22.0658 27.904 23.1096 28.1144 24.1971 28.1061H24.1825Z" fill="#0099DE"/>
<path fill-rule="evenodd" clip-rule="evenodd" d="M0.197136 19.5855C0.517969 30.2418 9.9638 32.3001 15.0576 30.0626L15.0221 27.4689C11.9055 28.648 3.13255 28.9564 3.11172 19.9085L3.07422 9.0293H0.167969L0.197136 19.5855Z" fill="#0099DE"/>
<path d="M72.1259 29.6771C72.1197 29.5125 72.1447 29.3542 72.203 29.2021C72.2614 29.05 72.3468 28.9125 72.4572 28.7938C72.5697 28.675 72.7009 28.5833 72.8509 28.5167C73.0009 28.45 73.1572 28.4146 73.3197 28.4104C73.4843 28.4063 73.6426 28.4354 73.7947 28.4938C73.9468 28.5542 74.0822 28.6396 74.2009 28.7521C74.3176 28.8667 74.4093 28.9979 74.4739 29.1479C74.5384 29.2979 74.5718 29.4542 74.5739 29.6188C74.5759 29.7813 74.5468 29.9375 74.4864 30.0896C74.4239 30.2417 74.3364 30.375 74.2218 30.4917C74.1072 30.6083 73.9739 30.6979 73.8218 30.7604C73.6718 30.8229 73.5134 30.8542 73.3509 30.8542C73.1905 30.8583 73.0364 30.8313 72.8884 30.7729C72.7384 30.7146 72.6072 30.6292 72.4926 30.5188C72.378 30.4083 72.2884 30.2813 72.2239 30.1354C72.1614 29.9875 72.128 29.8354 72.1259 29.6771ZM74.328 29.6771C74.3322 29.5479 74.3134 29.4229 74.2676 29.3021C74.2218 29.1813 74.153 29.0729 74.0655 28.9792C73.9759 28.8854 73.8739 28.8125 73.7551 28.7604C73.6364 28.7083 73.5134 28.6792 73.3843 28.6771C73.2551 28.6729 73.1301 28.6958 73.0093 28.7417C72.8884 28.7896 72.7822 28.8583 72.6884 28.9479C72.5947 29.0375 72.5239 29.1417 72.4718 29.2604C72.4197 29.3771 72.3947 29.5021 72.3926 29.6313C72.3905 29.7604 72.4134 29.8833 72.4634 30.0042C72.5114 30.1229 72.5801 30.2292 72.6718 30.3208C72.7634 30.4125 72.8676 30.4833 72.9864 30.5333C73.1072 30.5833 73.2301 30.6083 73.3593 30.6083C73.4864 30.6083 73.6072 30.5854 73.7239 30.5375C73.8405 30.4917 73.9426 30.425 74.0322 30.3375C74.1239 30.25 74.1947 30.15 74.2447 30.0354C74.2968 29.9208 74.3239 29.8021 74.328 29.6771ZM72.9447 29.0042H73.3801C73.4384 28.9958 73.4968 29 73.5551 29.0146C73.6134 29.0313 73.6655 29.0583 73.7114 29.0979C73.7572 29.1354 73.7947 29.1813 73.8218 29.2354C73.8468 29.2896 73.8614 29.3458 73.8634 29.4063C73.8593 29.5792 73.7759 29.6958 73.6114 29.7542L73.9801 30.3479H73.6843L73.3551 29.7771H73.2155V30.3479H72.9593L72.9447 29.0042ZM73.3989 29.5646C73.5239 29.5646 73.5926 29.4979 73.5926 29.4063C73.5926 29.3146 73.5155 29.2375 73.3801 29.2375H73.2009V29.5646H73.3989Z" fill="#0099DE"/>
</svg>
