<svg width="36" height="37" viewBox="0 0 36 37" fill="none" xmlns="http://www.w3.org/2000/svg">
<rect y="0.0664062" width="36" height="36" rx="8" fill="#1F293E"/>
<path d="M21.0271 10.7689V10.7656H21.8711L22.1794 10.8272C22.385 10.8672 22.5717 10.9196 22.7394 10.9844C22.9071 11.0493 23.0694 11.1249 23.2263 11.2114C23.3832 11.2978 23.5255 11.3859 23.6532 11.4756C23.7798 11.5642 23.8934 11.6582 23.9941 11.7576C24.0936 11.8581 24.2489 11.884 24.4599 11.8354C24.6709 11.7868 24.8981 11.7192 25.1416 11.6328C25.385 11.5463 25.6258 11.4491 25.8638 11.341C26.1019 11.233 26.2469 11.1644 26.2988 11.1352C26.3497 11.1049 26.3768 11.0887 26.38 11.0866L26.3832 11.0817L26.3995 11.0736L26.4157 11.0655L26.4319 11.0574L26.4482 11.0493L26.4514 11.0444L26.4563 11.0412L26.4612 11.0379L26.4644 11.0331L26.4806 11.0282L26.4968 11.025L26.4936 11.0493L26.4887 11.0736L26.4806 11.0979L26.4725 11.1222L26.4644 11.1384L26.4563 11.1546L26.4482 11.1789C26.4427 11.1951 26.4373 11.2168 26.4319 11.2438C26.4265 11.2708 26.3751 11.3788 26.2777 11.5679C26.1803 11.757 26.0586 11.9488 25.9125 12.1433C25.7665 12.3378 25.6355 12.4848 25.5198 12.5842C25.4029 12.6847 25.3255 12.7549 25.2876 12.7949C25.2498 12.836 25.2038 12.8738 25.1497 12.9084L25.0685 12.9619L25.0523 12.97L25.0361 12.9781L25.0328 12.9829L25.028 12.9862L25.0231 12.9894L25.0198 12.9943L25.0036 13.0024L24.9874 13.0105L24.9841 13.0154L24.9793 13.0186L24.9744 13.0218L24.9711 13.0267L24.9679 13.0316L24.963 13.0348L24.9582 13.038L24.9549 13.0429H25.0361L25.4905 12.9457C25.7935 12.8808 26.083 12.8025 26.3589 12.7106L26.7971 12.5648L26.8458 12.5485L26.8702 12.5404L26.8864 12.5323L26.9026 12.5242L26.9188 12.5161L26.9351 12.508L26.9675 12.5032L27 12.4999V12.5323L26.9919 12.5356L26.9838 12.5404L26.9805 12.5453L26.9757 12.5485L26.9708 12.5518L26.9675 12.5567L26.9643 12.5615L26.9594 12.5648L26.9546 12.568L26.9513 12.5729L26.9481 12.5777L26.9432 12.581L26.9351 12.5972L26.927 12.6134L26.9221 12.6166C26.9199 12.6199 26.8512 12.7117 26.716 12.8922C26.5807 13.0737 26.5077 13.1655 26.4968 13.1677C26.486 13.171 26.4709 13.1872 26.4514 13.2163C26.433 13.2466 26.3183 13.3671 26.1073 13.5778C25.8963 13.7885 25.6897 13.976 25.4873 14.1402C25.2839 14.3055 25.1811 14.5087 25.1789 14.7497C25.1757 14.9895 25.1632 15.2608 25.1416 15.5633C25.1199 15.8659 25.0794 16.1927 25.0198 16.5439C24.9603 16.8951 24.8684 17.2922 24.7439 17.7352C24.6195 18.1783 24.468 18.6105 24.2894 19.0319C24.1109 19.4533 23.9243 19.8315 23.7295 20.1665C23.5347 20.5015 23.3562 20.7851 23.1939 21.0174C23.0316 21.2498 22.8666 21.4686 22.6988 21.6739C22.5311 21.8792 22.319 22.1104 22.0626 22.3676C21.8051 22.6237 21.6644 22.7642 21.6406 22.789C21.6157 22.8128 21.5097 22.9014 21.3225 23.0548C21.1363 23.2094 20.9362 23.3639 20.7219 23.5184C20.5088 23.6718 20.3129 23.7999 20.1344 23.9025C19.9558 24.0052 19.7405 24.1224 19.4884 24.2543C19.2373 24.3872 18.9657 24.5104 18.6736 24.6238C18.3814 24.7373 18.073 24.8426 17.7484 24.9399C17.4238 25.0371 17.11 25.1128 16.807 25.1668C16.5041 25.2208 16.1605 25.2668 15.7764 25.3046L15.2002 25.3613V25.3694H14.1452V25.3613L14.0072 25.3532C13.9152 25.3478 13.8395 25.3424 13.78 25.337C13.7205 25.3316 13.4959 25.3019 13.1064 25.2478C12.7169 25.1938 12.4112 25.1398 12.1894 25.0858C11.9675 25.0317 11.6375 24.9291 11.1993 24.7778C10.761 24.6265 10.3861 24.4736 10.0745 24.3191C9.76394 24.1657 9.56917 24.0684 9.49017 24.0273C9.41226 23.9874 9.32462 23.9377 9.22723 23.8782L9.08115 23.7891L9.07792 23.7842L9.07304 23.781L9.06817 23.7777L9.06492 23.7729L9.04869 23.7648L9.03246 23.7567L9.02923 23.7518L9.02435 23.7486L9.01948 23.7453L9.01623 23.7405L9.013 23.7356L9.00812 23.7324H9V23.6999L9.01623 23.7032L9.03246 23.708L9.1055 23.7161C9.15419 23.7215 9.28675 23.7296 9.50316 23.7405C9.71958 23.7513 9.9495 23.7513 10.193 23.7405C10.4364 23.7296 10.6853 23.7053 10.9396 23.6675C11.1939 23.6297 11.4941 23.5649 11.8404 23.473C12.1867 23.3812 12.5048 23.272 12.7948 23.1456C13.0837 23.0181 13.2893 22.923 13.4116 22.8603C13.5327 22.7987 13.7178 22.6842 13.9666 22.5167L14.3399 22.2655L14.3432 22.2606L14.3481 22.2574L14.3529 22.2541L14.3562 22.2493L14.3594 22.2444L14.3643 22.2412L14.3692 22.2379L14.3724 22.2331L14.3886 22.2282L14.4049 22.225L14.4081 22.2088L14.413 22.1926L14.4179 22.1893L14.4211 22.1844L14.2913 22.1763C14.2047 22.1709 14.1208 22.1655 14.0397 22.1601C13.9585 22.1547 13.8314 22.1304 13.6583 22.0872C13.4851 22.044 13.2985 21.9791 13.0983 21.8927C12.8981 21.8063 12.7033 21.7036 12.514 21.5847C12.3246 21.4659 12.1877 21.367 12.1033 21.2881C12.02 21.2103 11.9118 21.1001 11.7787 20.9575C11.6467 20.8138 11.532 20.6663 11.4346 20.515C11.3372 20.3637 11.2442 20.1892 11.1555 19.9915L11.0207 19.6965L11.0126 19.6721L11.0045 19.6478L10.9996 19.6316L10.9964 19.6154L11.0207 19.6187L11.0451 19.6235L11.2236 19.6478C11.3427 19.664 11.5293 19.6694 11.7836 19.664C12.0379 19.6586 12.2137 19.6478 12.3111 19.6316C12.4085 19.6154 12.468 19.6046 12.4896 19.5992L12.5221 19.5911L12.5627 19.583L12.6032 19.5749L12.6065 19.57L12.6114 19.5668L12.6162 19.5635L12.6195 19.5587L12.587 19.5506L12.5546 19.5425L12.5221 19.5344L12.4896 19.5263L12.4572 19.5182C12.4355 19.5128 12.3977 19.502 12.3436 19.4857C12.2895 19.4695 12.1434 19.4101 11.9053 19.3075C11.6673 19.2048 11.4779 19.1049 11.3372 19.0076C11.1962 18.9101 11.0618 18.8034 10.9347 18.6883C10.8081 18.5716 10.6691 18.4214 10.5176 18.2377C10.3661 18.054 10.2308 17.8406 10.1118 17.5975C9.99279 17.3543 9.90352 17.122 9.844 16.9005C9.78472 16.6803 9.74561 16.4551 9.72716 16.2279L9.69793 15.8875L9.71416 15.8907L9.73039 15.8956L9.74662 15.9037L9.76285 15.9118L9.77908 15.9199L9.79531 15.928L10.0469 16.0415C10.2146 16.1171 10.4229 16.1819 10.6718 16.236C10.9207 16.29 11.0694 16.3197 11.1181 16.3251L11.1912 16.3332H11.3372L11.334 16.3284L11.3291 16.3251L11.3243 16.3219L11.321 16.317L11.3178 16.3121L11.3129 16.3089L11.308 16.3057L11.3048 16.3008L11.2885 16.2927L11.2723 16.2846L11.2691 16.2797L11.2642 16.2765L11.2593 16.2732L11.2561 16.2684L11.2399 16.2603L11.2236 16.2522L11.2204 16.2473C11.2171 16.2451 11.1706 16.2106 11.0808 16.1436C10.9921 16.0755 10.899 15.9874 10.8016 15.8794C10.7042 15.7713 10.6069 15.6579 10.5095 15.539C10.4119 15.4199 10.325 15.2924 10.2498 15.1581C10.174 15.023 10.094 14.8512 10.0096 14.6427C9.92625 14.4352 9.86294 14.2261 9.81966 14.0154C9.77639 13.8047 9.75204 13.5967 9.74662 13.3914C9.74121 13.1861 9.74662 13.0105 9.76285 12.8646C9.77908 12.7187 9.81154 12.5539 9.86023 12.3703C9.90893 12.1866 9.97927 11.9921 10.0712 11.7868L10.2092 11.4788L10.2173 11.4545L10.2254 11.4302L10.2303 11.4269L10.2335 11.4221L10.2368 11.4172L10.2417 11.414L10.2465 11.4172L10.2498 11.4221L10.253 11.4269L10.2579 11.4302L10.2628 11.4334L10.266 11.4383L10.2693 11.4431L10.2741 11.4464L10.2822 11.4626L10.2904 11.4788L10.2952 11.482L10.2985 11.4869L10.5176 11.73C10.6637 11.8921 10.8368 12.0731 11.037 12.273C11.2372 12.4729 11.3481 12.5766 11.3697 12.5842C11.3914 12.5928 11.4184 12.6177 11.4509 12.6588C11.4833 12.6988 11.5915 12.7944 11.7755 12.9457C11.9594 13.0969 12.2002 13.2725 12.4977 13.4724C12.7953 13.6723 13.1253 13.8695 13.4878 14.064C13.8503 14.2585 14.2399 14.4341 14.6564 14.5908C15.073 14.7475 15.3652 14.8501 15.5329 14.8988C15.7006 14.9474 15.9874 15.0095 16.3931 15.0852C16.7989 15.1608 17.1046 15.2094 17.3102 15.231C17.5158 15.2526 17.6565 15.2651 17.7322 15.2683L17.8458 15.2716L17.8426 15.2473L17.8377 15.2229L17.8052 15.0203C17.7836 14.8853 17.7728 14.6962 17.7728 14.453C17.7728 14.2099 17.7917 13.9857 17.8296 13.7804C17.8675 13.5751 17.9243 13.3671 18 13.1564C18.0757 12.9457 18.1499 12.7765 18.2224 12.649C18.296 12.5226 18.3923 12.3784 18.5113 12.2163C18.6303 12.0542 18.7845 11.8867 18.9739 11.7138C19.1632 11.5409 19.3796 11.3869 19.6231 11.2519C19.8665 11.1168 20.0911 11.0141 20.2967 10.9439C20.5023 10.8737 20.6754 10.8278 20.8161 10.8061C20.9567 10.7845 21.0271 10.7721 21.0271 10.7689Z" fill="white"/>
</svg>
