<svg width="36" height="37" viewBox="0 0 36 37" fill="none" xmlns="http://www.w3.org/2000/svg">
<rect y="0.0664062" width="36" height="36" rx="8" fill="#1F293E"/>
<path d="M18.4383 25.0466L14.3761 24.9707C13.0608 24.9442 11.7423 24.997 10.4528 24.7229C8.49128 24.3134 8.35232 22.3055 8.20691 20.6213C8.00654 18.2534 8.08411 15.8426 8.46222 13.4945C8.67567 12.177 9.51571 11.3908 10.8148 11.3053C15.2001 10.9948 19.6146 11.0316 23.9903 11.1765C24.4524 11.1897 24.9177 11.2623 25.3734 11.3449C27.6227 11.7478 27.6775 14.0232 27.8233 15.9387C27.9688 17.8739 27.9074 19.8191 27.6294 21.7411C27.4065 23.3325 26.9798 24.6671 25.1795 24.7959C22.9237 24.9644 20.7197 25.1 18.4576 25.0568C18.4577 25.0466 18.4447 25.0466 18.4383 25.0466ZM16.0501 21.0176C17.75 20.0202 19.4175 19.0394 21.1076 18.0487C19.4046 17.0513 17.7403 16.0705 16.0501 15.0798V21.0176Z" fill="white"/>
</svg>
