<svg xmlns="http://www.w3.org/2000/svg" viewBox="0 0 298.71 367.24"><defs><style>.cls-1,.cls-2,.cls-27,.cls-3{fill:#a9d9d9;}.cls-1,.cls-28,.cls-8{opacity:0.3;}.cls-29,.cls-3,.cls-7{opacity:0.6;}.cls-10,.cls-11,.cls-12,.cls-13,.cls-14,.cls-15,.cls-16,.cls-17,.cls-18,.cls-19,.cls-20,.cls-21,.cls-22,.cls-23,.cls-24,.cls-25,.cls-28,.cls-29,.cls-30,.cls-4,.cls-5,.cls-9{fill:none;}.cls-10,.cls-12,.cls-13,.cls-14,.cls-15,.cls-16,.cls-17,.cls-18,.cls-19,.cls-20,.cls-21,.cls-22,.cls-23,.cls-30,.cls-4,.cls-9{stroke:#010101;}.cls-10,.cls-12,.cls-13,.cls-14,.cls-15,.cls-16,.cls-17,.cls-18,.cls-19,.cls-20,.cls-21,.cls-22,.cls-23,.cls-24,.cls-25,.cls-30,.cls-4,.cls-5,.cls-9{stroke-linecap:round;stroke-linejoin:round;}.cls-10,.cls-25,.cls-27,.cls-4,.cls-5{stroke-width:0.1px;}.cls-5{stroke:#bfbebe;}.cls-6,.cls-7,.cls-8{fill:#aad9d9;}.cls-9{stroke-width:0.3px;}.cls-10{stroke-dasharray:6 3;}.cls-12,.cls-13,.cls-14,.cls-15,.cls-16,.cls-17,.cls-18,.cls-19,.cls-20,.cls-24{stroke-width:0.25px;}.cls-13{stroke-dasharray:6.25 3.12;}.cls-14{stroke-dasharray:6.24 3.12;}.cls-15{stroke-dasharray:5.78 2.89;}.cls-16{stroke-dasharray:6.46 3.23;}.cls-17{stroke-dasharray:5.86 2.93;}.cls-18{stroke-dasharray:5.89 2.94;}.cls-19{stroke-dasharray:5.89 2.95;}.cls-20{stroke-dasharray:5.65 2.82;}.cls-21{stroke-width:0.05px;}.cls-22,.cls-23{stroke-width:0.15px;}.cls-23{stroke-dasharray:3 2;}.cls-24,.cls-25{stroke:#0c0c0c;}.cls-25{stroke-dasharray:3 1;}.cls-26{fill:#0c0c0c;}.cls-27{stroke:#030303;stroke-miterlimit:10;opacity:0.33;}</style></defs><title>Diagram for Portfolio</title><g id="Make2D::visible::lines::Stair"><polygon class="cls-1" points="95.46 178.28 90.96 183.09 85 180.28 81.12 178.47 83.64 172.78 95.46 178.28"/><polygon class="cls-1" points="95.46 204.59 90.96 209.5 85 206.63 81.28 204.85 81.27 204.85 83.85 199.06 83.86 199.06 95.46 204.59"/><polygon class="cls-1" points="94.96 98.55 90.47 103.02 84.5 100.42 79.25 98.13 80.08 96.34 80.09 96.33 83.09 93.41 94.96 98.55"/><polygon class="cls-2" points="90.37 133.59 83.16 149.88 80.67 155.49 80.33 156.25 79.62 157.84 73.62 155.09 74.33 153.5 84.41 130.93 90.37 133.59"/><polygon class="cls-3" points="85 180.28 80.54 179.81 80.53 179.81 81.12 178.47 85 180.28"/><polygon class="cls-3" points="85 206.63 80.65 206.26 81.27 204.85 81.28 204.85 85 206.63"/><polygon class="cls-3" points="84.5 71.75 78.52 70.59 79.07 69.44 84.5 71.75"/><polygon class="cls-3" points="84.5 100.42 78.62 99.44 79.24 98.13 79.25 98.13 84.5 100.42"/><polygon class="cls-3" points="83.52 156.79 80.33 156.25 80.67 155.49 83.52 156.79"/><polygon class="cls-1" points="83.16 149.88 93.99 154.82 89.49 159.53 83.52 156.79 80.67 155.49 83.16 149.88"/><polygon class="cls-1" points="79.68 68.17 79.69 68.16 83.09 64.92 94.96 69.92 90.47 74.28 84.5 71.75 79.07 69.44 79.68 68.17"/><polygon class="cls-1" points="79.68 127.05 82.99 123.7 94.87 129 90.37 133.59 84.41 130.93 79.02 128.5 79.68 127.05"/><polygon class="cls-1" points="79.62 157.84 75 162.63 63 157.07 67.65 152.34 73.62 155.09 79.62 157.84"/><polygon class="cls-1" points="79.62 181.87 75 186.76 63 181.09 67.65 176.24 73.62 179.04 79.62 181.87"/><polygon class="cls-1" points="79.62 208.56 75 213.57 63 207.75 67.65 202.81 73.62 205.68 79.62 208.56"/><polygon class="cls-3" points="79.02 128.5 84.41 130.93 78.5 129.68 79.02 128.5"/><polygon class="cls-1" points="77.91 130.99 73.27 135.66 61.26 130.24 65.93 125.59 71.9 128.28 77.91 130.99"/><polygon class="cls-1" points="77.91 71.89 73.27 76.31 61.26 71.17 65.93 66.8 71.9 69.33 77.91 71.89"/><polygon class="cls-1" points="77.91 100.97 73.27 105.52 61.26 100.23 65.93 95.72 71.9 98.33 77.91 100.97"/><polygon class="cls-2" points="74.64 203.41 85 180.28 90.96 183.09 83.85 199.06 81.27 204.85 80.65 206.26 79.62 208.56 73.62 205.68 74.64 203.41"/><polygon class="cls-3" points="74.64 203.41 73.62 205.68 67.65 202.81 74.64 203.41"/><polygon class="cls-2" points="74.53 177 83.52 156.79 89.49 159.53 83.64 172.78 81.12 178.47 80.53 179.81 79.62 181.87 73.62 179.04 74.53 177"/><polygon class="cls-3" points="74.53 177 73.62 179.04 67.65 176.24 74.53 177"/><polygon class="cls-3" points="67.65 152.34 74.33 153.5 73.62 155.09 67.65 152.34"/><polygon class="cls-3" points="72.61 96.83 71.9 98.33 65.93 95.72 72.61 96.83"/><polygon class="cls-2" points="72.61 96.83 84.5 71.75 90.47 74.28 80.09 96.33 80.08 96.34 79.25 98.13 79.24 98.13 78.62 99.44 77.91 100.97 71.9 98.33 72.61 96.83"/><polygon class="cls-3" points="72.51 68.06 71.9 69.33 65.93 66.8 72.51 68.06"/><polygon class="cls-2" points="72.49 127 84.5 100.42 90.47 103.02 79.68 127.05 79.02 128.5 78.5 129.68 77.91 130.99 71.9 128.28 72.48 127 72.49 127"/><polygon class="cls-3" points="72.48 127 71.9 128.28 65.93 125.59 72.48 127"/><polygon class="cls-1" points="94.96 41.31 90.47 45.53 84.5 43.08 78.56 40.63 83.09 36.45 94.96 41.31"/><polygon class="cls-2" points="72.51 68.06 84.5 43.08 90.47 45.53 79.69 68.16 79.68 68.17 79.07 69.44 78.52 70.59 77.91 71.89 71.9 69.33 72.51 68.06"/><line class="cls-4" x1="80.09" y1="96.33" x2="83.09" y2="93.4"/><line class="cls-4" x1="65.93" y1="125.59" x2="71.9" y2="128.28"/><line class="cls-4" x1="94.96" y1="98.54" x2="90.47" y2="103.01"/><line class="cls-4" x1="72.48" y1="126.99" x2="71.9" y2="128.28"/><line class="cls-4" x1="84.5" y1="100.41" x2="72.49" y2="126.99"/><line class="cls-4" x1="90.47" y1="103.01" x2="84.5" y2="100.41"/><polyline class="cls-4" points="77.91 130.99 78.5 129.68 79.02 128.5 79.68 127.05 90.47 103.02"/><line class="cls-4" x1="77.91" y1="130.98" x2="71.9" y2="128.28"/><line class="cls-4" x1="61.26" y1="130.23" x2="65.93" y2="125.59"/><line class="cls-4" x1="73.27" y1="135.66" x2="61.26" y2="130.23"/><line class="cls-4" x1="77.91" y1="130.98" x2="73.27" y2="135.66"/><line class="cls-4" x1="61.26" y1="100.23" x2="65.93" y2="95.72"/><line class="cls-4" x1="73.27" y1="105.51" x2="61.26" y2="100.23"/><line class="cls-4" x1="77.91" y1="100.96" x2="73.27" y2="105.51"/><polyline class="cls-4" points="84.5 43.08 72.51 68.06 71.9 69.33"/><line class="cls-4" x1="79.69" y1="68.15" x2="90.47" y2="45.53"/><polyline class="cls-4" points="77.91 71.89 78.52 70.59 79.07 69.44 79.68 68.17"/><line class="cls-4" x1="83.09" y1="36.44" x2="94.96" y2="41.31"/><line class="cls-4" x1="78.56" y1="40.63" x2="83.09" y2="36.44"/><line class="cls-4" x1="84.5" y1="43.07" x2="78.56" y2="40.63"/><line class="cls-4" x1="90.47" y1="45.53" x2="84.5" y2="43.07"/><line class="cls-4" x1="94.96" y1="41.31" x2="90.47" y2="45.53"/><line class="cls-4" x1="71.9" y1="69.33" x2="77.91" y2="71.88"/><line class="cls-4" x1="61.26" y1="71.17" x2="65.93" y2="66.79"/><line class="cls-4" x1="73.27" y1="76.31" x2="61.26" y2="71.17"/><line class="cls-4" x1="77.91" y1="71.88" x2="73.27" y2="76.31"/><polyline class="cls-4" points="84.5 71.75 72.61 96.83 71.9 98.33"/><polyline class="cls-4" points="79.25 98.13 80.08 96.34 80.09 96.33 90.47 74.28"/><polyline class="cls-4" points="77.91 100.97 78.62 99.44 79.24 98.13"/><line class="cls-4" x1="77.91" y1="100.96" x2="71.9" y2="98.33"/><line class="cls-4" x1="72.51" y1="68.06" x2="65.93" y2="66.79"/><line class="cls-4" x1="78.5" y1="129.67" x2="84.41" y2="130.92"/><line class="cls-4" x1="78.52" y1="70.59" x2="84.5" y2="71.74"/><line class="cls-4" x1="84.41" y1="130.92" x2="79.02" y2="128.5"/><line class="cls-4" x1="65.93" y1="66.79" x2="71.9" y2="69.33"/><line class="cls-4" x1="90.47" y1="74.27" x2="84.5" y2="71.74"/><polyline class="cls-4" points="72.49 127 72.48 127 65.93 125.59"/><line class="cls-4" x1="84.5" y1="71.74" x2="79.07" y2="69.44"/><polyline class="cls-4" points="85 180.28 74.64 203.41 73.62 205.68"/><polyline class="cls-4" points="83.09 64.92 79.69 68.16 79.68 68.17"/><line class="cls-4" x1="94.96" y1="69.92" x2="83.09" y2="64.92"/><line class="cls-4" x1="90.47" y1="74.27" x2="94.96" y2="69.92"/><line class="cls-4" x1="72.61" y1="96.83" x2="65.93" y2="95.72"/><line class="cls-4" x1="73.62" y1="205.67" x2="79.62" y2="208.56"/><polyline class="cls-4" points="79.62 208.56 80.65 206.26 81.27 204.85 83.85 199.06 90.96 183.09"/><polyline class="cls-4" points="84.5 100.42 79.25 98.13 79.24 98.13"/><line class="cls-4" x1="78.62" y1="99.44" x2="84.5" y2="100.41"/><line class="cls-4" x1="90.96" y1="183.08" x2="85" y2="180.28"/><line class="cls-4" x1="65.93" y1="95.72" x2="71.9" y2="98.33"/><line class="cls-4" x1="75" y1="162.63" x2="79.62" y2="157.84"/><line class="cls-4" x1="63" y1="157.07" x2="75" y2="162.63"/><line class="cls-4" x1="67.65" y1="152.33" x2="63" y2="157.07"/><line class="cls-4" x1="79.62" y1="157.84" x2="73.62" y2="155.08"/><polyline class="cls-4" points="84.41 130.93 74.33 153.5 73.62 155.09"/><polyline class="cls-4" points="79.62 157.84 80.33 156.25 80.67 155.49 83.16 149.88 90.37 133.59"/><line class="cls-4" x1="82.99" y1="123.7" x2="94.87" y2="128.99"/><line class="cls-4" x1="79.68" y1="127.04" x2="82.99" y2="123.7"/><line class="cls-4" x1="67.65" y1="202.8" x2="63" y2="207.75"/><line class="cls-4" x1="90.37" y1="133.59" x2="84.41" y2="130.92"/><line class="cls-4" x1="94.87" y1="128.99" x2="90.37" y2="133.59"/><polyline class="cls-4" points="73.62 179.04 74.53 177 83.52 156.79"/><polyline class="cls-4" points="89.49 159.53 83.64 172.78 81.12 178.47 80.53 179.81 79.62 181.87"/><line class="cls-4" x1="83.52" y1="156.79" x2="89.49" y2="159.53"/><line class="cls-4" x1="93.99" y1="154.82" x2="89.49" y2="159.53"/><line class="cls-4" x1="83.16" y1="149.87" x2="93.99" y2="154.82"/><line class="cls-4" x1="63" y1="207.75" x2="75" y2="213.57"/><line class="cls-4" x1="75" y1="213.57" x2="79.62" y2="208.56"/><line class="cls-4" x1="67.65" y1="152.33" x2="73.62" y2="155.08"/><line class="cls-4" x1="74.33" y1="153.49" x2="67.65" y2="152.33"/><line class="cls-4" x1="67.65" y1="202.8" x2="73.62" y2="205.67"/><line class="cls-4" x1="80.67" y1="155.48" x2="83.52" y2="156.79"/><line class="cls-4" x1="74.64" y1="203.4" x2="67.65" y2="202.8"/><line class="cls-4" x1="80.33" y1="156.24" x2="83.52" y2="156.79"/><line class="cls-4" x1="80.65" y1="206.26" x2="85" y2="206.63"/><line class="cls-4" x1="83.64" y1="172.77" x2="95.46" y2="178.27"/><line class="cls-4" x1="85" y1="206.63" x2="81.28" y2="204.85"/><line class="cls-4" x1="85" y1="206.63" x2="90.96" y2="209.49"/><line class="cls-4" x1="95.46" y1="178.27" x2="90.96" y2="183.08"/><line class="cls-4" x1="90.96" y1="209.49" x2="95.46" y2="204.58"/><line class="cls-4" x1="85" y1="180.28" x2="81.12" y2="178.47"/><line class="cls-4" x1="95.46" y1="204.58" x2="83.86" y2="199.05"/><line class="cls-4" x1="67.65" y1="176.23" x2="74.53" y2="177"/><line class="cls-4" x1="79.62" y1="181.86" x2="75" y2="186.76"/><line class="cls-4" x1="85" y1="180.28" x2="80.54" y2="179.8"/><line class="cls-4" x1="79.62" y1="181.86" x2="73.62" y2="179.04"/><line class="cls-4" x1="67.65" y1="176.23" x2="73.62" y2="179.04"/><line class="cls-4" x1="63" y1="181.08" x2="67.65" y2="176.23"/><line class="cls-4" x1="75" y1="186.76" x2="63" y2="181.08"/><line class="cls-4" x1="83.09" y1="93.4" x2="94.96" y2="98.54"/></g><g id="Make2D::hidden::lines::Stair"><line class="cls-5" x1="83.86" y1="199.05" x2="83.58" y2="198.92"/><line class="cls-5" x1="74.53" y1="177" x2="79.06" y2="177.51"/><line class="cls-5" x1="81.12" y1="178.47" x2="79.06" y2="177.51"/><line class="cls-5" x1="79.06" y1="177.51" x2="83.58" y2="172.75"/><line class="cls-5" x1="83.58" y1="198.92" x2="79.06" y2="203.79"/><line class="cls-5" x1="81.28" y1="204.85" x2="79.06" y2="203.79"/><line class="cls-5" x1="83.58" y1="172.75" x2="83.64" y2="172.77"/><line class="cls-5" x1="73.62" y1="155.08" x2="80.33" y2="156.24"/><line class="cls-5" x1="73.62" y1="205.68" x2="80.64" y2="206.27"/><line class="cls-5" x1="77.57" y1="154.07" x2="80.67" y2="155.49"/><line class="cls-5" x1="79.06" y1="203.79" x2="74.64" y2="203.41"/><line class="cls-5" x1="77.57" y1="154.07" x2="74.33" y2="153.5"/><line class="cls-5" x1="77.57" y1="154.07" x2="82.11" y2="149.4"/><line class="cls-5" x1="82.11" y1="149.4" x2="83.15" y2="149.88"/><line class="cls-5" x1="78.47" y1="128.26" x2="79.68" y2="127.04"/><line class="cls-5" x1="71.9" y1="98.34" x2="78.62" y2="99.44"/><line class="cls-5" x1="79.24" y1="98.12" x2="78.56" y2="97.83"/><line class="cls-5" x1="78.56" y1="97.83" x2="72.61" y2="96.84"/><line class="cls-5" x1="79.68" y1="68.17" x2="78.56" y2="69.23"/><line class="cls-5" x1="79.07" y1="69.44" x2="78.56" y2="69.23"/><line class="cls-5" x1="78.47" y1="128.26" x2="72.49" y2="126.99"/><line class="cls-5" x1="79.02" y1="128.51" x2="78.47" y2="128.26"/><line class="cls-5" x1="71.9" y1="69.33" x2="78.52" y2="70.6"/><line class="cls-5" x1="78.56" y1="69.23" x2="72.51" y2="68.06"/><line class="cls-5" x1="71.9" y1="128.28" x2="78.49" y2="129.68"/><line class="cls-5" x1="78.56" y1="97.83" x2="80.08" y2="96.34"/><line class="cls-5" x1="80.54" y1="179.8" x2="73.62" y2="179.05"/></g><g id="Make2D::visible::lines::Stair_Atruim"><polygon class="cls-6" points="251.89 289.3 251.89 296.75 225.75 318.17 225.75 310.49 251.89 289.3"/><polygon class="cls-6" points="246.71 173.35 246.71 180.72 241.57 187.16 219.78 202.49 214.53 209 214.53 201.36 215.27 200.45 219.78 194.9 235.05 184.28 241.57 179.75 242.33 178.8 246.71 173.35"/><polygon class="cls-7" points="246.71 173.35 242.33 178.8 237.52 176.68 232.34 176.73 232.34 175.68 222.26 175.79 225.58 169.49 237.52 169.33 246.71 173.35"/><polygon class="cls-7" points="246.71 220.76 242.51 226.21 237.52 223.93 232.34 224.1 232.34 223.2 210.31 223.93 203.15 220.62 203.15 213.37 212.11 217.49 237.52 216.58 246.71 220.76"/><polygon class="cls-7" points="246.53 117.73 241.91 123.18 228.19 117.44 228.19 110.11 246.53 117.73"/><polygon class="cls-7" points="246.53 147.24 242.04 152.68 228.19 146.74 228.19 139.41 246.53 147.24"/><polygon class="cls-8" points="241.57 227.43 235.74 232.16 232.34 230.59 237.52 223.93 242.51 226.21 241.57 227.43"/><polygon class="cls-8" points="237.52 176.68 242.33 178.8 241.57 179.75 235.05 184.28 232.34 183.07 237.52 176.68"/><polygon class="cls-8" points="237.52 176.68 232.34 183.07 232.34 176.73 237.52 176.68"/><polygon class="cls-8" points="237.52 223.93 232.34 230.59 232.34 224.1 237.52 223.93"/><polygon class="cls-8" points="235.74 232.16 214.53 249.37 210.18 254.94 205.12 252.54 232.34 230.59 235.74 232.16"/><polygon class="cls-8" points="228.19 146.74 242.04 152.68 241.57 153.26 233.76 157.29 232.34 156.68 232.34 149.29 224.47 153.28 223.17 152.71 228.19 146.74"/><polygon class="cls-8" points="228.19 117.44 241.91 123.18 241.57 123.59 233.32 127.53 232.34 127.12 232.34 119.72 224.03 123.62 223.17 123.25 228.19 117.44"/><polygon class="cls-6" points="232.34 224.1 232.34 230.59 205.12 252.54 205.12 244.93 222.71 230.88 232.34 223.2 232.34 224.1"/><polygon class="cls-6" points="232.09 176.85 232.09 183.19 210.16 198.37 216.41 186.53 221.15 183.28 232.09 175.8 232.09 176.85"/><polygon class="cls-6" points="232.34 149.29 232.34 156.68 226.95 159.45 232.34 149.29"/><polygon class="cls-6" points="232.34 119.72 232.34 127.12 226.98 129.67 232.34 119.72"/><polygon class="cls-6" points="232.34 119.72 226.98 129.67 210.61 137.48 205.12 143.84 205.12 136.23 210.61 129.92 217.21 126.82 222.61 124.29 224.03 123.62 232.34 119.72"/><polygon class="cls-6" points="232.34 175.68 221.4 183.16 218.36 183.19 222.26 175.79 232.34 175.68"/><polygon class="cls-6" points="232.34 223.2 222.71 230.88 206.84 231.36 206.84 224.05 210.31 223.93 232.34 223.2"/><polygon class="cls-6" points="231.21 320.88 235.31 315.22 261.28 293.81 261.28 301.29 235.31 322.91 229.86 330.48 229.86 322.74 231.21 320.88"/><polygon class="cls-7" points="168.66 277.71 173.51 280.1 177.16 283.05 220.27 317.96 224.4 320.02 229.86 322.74 229.86 330.48 220.27 325.68 173.51 287.68 164.33 283.13 164.33 275.58 168.66 277.71"/><polygon class="cls-6" points="228.19 139.41 228.19 146.74 223.17 152.71 222.27 154.39 222.27 154.4 216.84 157.15 223.17 145.35 228.19 139.41"/><polygon class="cls-6" points="228.19 110.11 228.19 117.44 223.17 123.25 222.61 124.29 217.21 126.82 223.17 115.89 228.19 110.11"/><polygon class="cls-6" points="226.95 159.45 210.41 167.98 215.99 157.58 216.84 157.15 222.27 154.4 222.27 154.39 224.47 153.28 232.34 149.29 226.95 159.45"/><polygon class="cls-6" points="226.25 138.45 215.99 157.58 210.41 160.41 220.82 141.09 226.25 138.45"/><polygon class="cls-8" points="225.75 318.17 231.21 320.88 229.86 322.74 224.4 320.02 225.75 318.17"/><polygon class="cls-8" points="225.75 318.17 224.4 320.02 220.27 317.96 177.16 283.05 179.16 280.52 225.75 318.17"/><polygon class="cls-6" points="220.43 171.77 225.89 168.9 225.89 168.91 225.58 169.49 222.26 175.79 218.36 183.19 216.66 186.41 210.41 190.68 220.43 171.77"/><polygon class="cls-6" points="224.47 153.28 222.27 154.39 223.17 152.71 224.47 153.28"/><polygon class="cls-8" points="223.17 123.25 224.03 123.62 222.61 124.29 223.17 123.25"/><polygon class="cls-8" points="233.32 127.53 219.98 133.91 215.22 139.46 210.61 137.48 226.98 129.67 232.34 127.12 233.32 127.53"/><polygon class="cls-8" points="233.76 157.29 219.78 164.52 215.15 170.07 210.41 167.98 226.95 159.45 232.34 156.68 233.76 157.29"/><polygon class="cls-8" points="235.05 184.28 219.78 194.9 215.27 200.45 210.41 198.25 232.34 183.07 235.05 184.28"/><polygon class="cls-6" points="216.66 186.41 210.41 198.25 210.41 190.68 216.66 186.41"/><polygon class="cls-8" points="219.98 141.5 220.82 141.09 210.41 160.41 210.41 167.98 201.11 163.88 210.69 146.24 214.53 147.9 219.98 141.5"/><polygon class="cls-8" points="219.78 172.11 220.43 171.77 210.41 190.68 210.41 198.25 201.11 194.04 210.41 176.62 214.53 178.45 219.78 172.11"/><polygon class="cls-6" points="215.99 157.58 210.41 167.98 210.41 160.41 215.99 157.58"/><polygon class="cls-6" points="215.22 139.46 219.98 133.91 233.32 127.53 241.57 123.59 241.91 123.18 246.53 117.73 246.53 125.1 241.57 131 226.25 138.45 220.82 141.09 219.98 141.5 214.53 147.9 214.53 140.26 215.22 139.46"/><polygon class="cls-8" points="215.22 139.46 214.53 140.26 214.53 147.9 210.69 146.24 207.39 144.82 205.12 143.84 210.61 137.48 215.22 139.46"/><polygon class="cls-6" points="215.15 170.07 219.78 164.52 233.76 157.29 241.57 153.26 242.04 152.68 246.53 147.24 246.53 154.61 241.57 160.67 225.89 168.9 220.43 171.77 219.78 172.11 214.53 178.45 214.53 170.81 215.15 170.07"/><polygon class="cls-7" points="214.53 201.36 214.53 209 196.18 200.63 195.79 200.45 195.79 193.87 195.79 192.87 200.36 194.94 214.53 201.36"/><polygon class="cls-7" points="200.49 164.61 214.53 170.81 214.53 178.45 210.41 176.62 207.17 175.18 202.89 173.28 198.42 171.3 195.79 170.13 195.79 162.54 200.49 164.61"/><polygon class="cls-6" points="210.69 146.24 201.11 163.88 200.49 164.61 195.79 162.54 201.11 156.34 207.39 144.82 210.69 146.24"/><polygon class="cls-6" points="210.41 176.62 201.11 194.04 200.36 194.94 195.79 192.87 198.15 190.04 201.11 186.5 206.2 176.99 206.25 176.91 207.17 175.18 210.41 176.62"/><polygon class="cls-6" points="210.18 254.94 214.53 249.37 235.74 232.16 241.57 227.43 242.51 226.21 246.71 220.76 246.71 228.14 241.57 234.85 214.53 257.01 209.01 264.13 209.01 256.44 210.18 254.94"/><polygon class="cls-7" points="209.01 256.44 209.01 264.13 199.57 259.61 193.91 254.31 191.17 251.75 186.39 247.28 183.64 244.7 173.51 235.22 164.33 230.87 164.33 223.32 168.85 225.45 173.51 227.65 177.04 230.94 199.57 251.95 203.95 254.04 209.01 256.44"/><polygon class="cls-8" points="203.15 220.62 210.31 223.93 206.84 224.05 203.56 229.84 197.85 227.17 203.15 220.62"/><polygon class="cls-6" points="206.84 224.05 206.84 231.36 201.23 241.32 198.5 238.78 203.56 229.84 206.84 224.05"/><polygon class="cls-6" points="206.2 176.99 201.11 186.5 198.15 190.04 203.3 181.69 206.2 176.99"/><polygon class="cls-8" points="205.12 252.54 210.18 254.94 209.01 256.44 203.95 254.04 205.12 252.54"/><polygon class="cls-8" points="205.12 252.54 203.95 254.04 199.57 251.95 177.04 230.94 179.16 228.37 205.12 252.54"/><polygon class="cls-8" points="203.56 229.84 198.5 238.78 193.75 234.37 197.85 227.17 203.56 229.84"/><polygon class="cls-6" points="203.15 213.37 203.15 220.62 197.85 227.17 193.75 234.37 191.01 231.83 197.85 219.88 203.15 213.37"/><polygon class="cls-6" points="202.89 173.28 197.85 179.26 170.01 224.07 168.85 225.45 164.33 223.32 170.01 216.56 197.85 171.97 198.42 171.3 202.89 173.28"/><polygon class="cls-8" points="210.41 167.98 215.15 170.07 214.53 170.81 200.49 164.61 201.11 163.88 210.41 167.98"/><polygon class="cls-8" points="210.41 198.25 215.27 200.45 214.53 201.36 200.36 194.94 201.11 194.04 210.41 198.25"/><polygon class="cls-6" points="195.79 200.45 196.18 200.63 182.1 223.57 179.16 220.84 195.79 193.87 195.79 200.45"/><polygon class="cls-6" points="193.91 254.31 182.07 275.33 179.16 272.99 191.17 251.75 193.91 254.31"/><polygon class="cls-8" points="186.39 247.28 191.17 251.75 179.16 272.99 179.16 280.52 170.01 276.03 186.39 247.28"/><polygon class="cls-6" points="183.64 244.7 186.39 247.28 170.01 276.03 168.66 277.71 164.33 275.58 170.01 268.52 183.64 244.7"/><polygon class="cls-6" points="182.1 223.57 191.01 231.83 193.75 234.37 198.5 238.78 201.23 241.32 205.12 244.93 205.12 252.54 179.16 228.37 179.16 220.84 182.1 223.57"/><polygon class="cls-7" points="182.07 275.34 225.75 310.49 225.75 318.17 179.16 280.52 179.16 272.99 182.07 275.33 182.07 275.34"/><polygon class="cls-8" points="170.01 224.07 179.16 228.37 177.04 230.94 173.51 227.65 168.85 225.45 170.01 224.07"/><polygon class="cls-8" points="170.01 276.03 179.16 280.52 177.16 283.05 173.51 280.1 168.66 277.71 170.01 276.03"/><polygon class="cls-8" points="207.17 175.18 206.25 176.91 206.2 176.99 203.3 181.69 197.85 179.26 202.89 173.28 207.17 175.18"/><polygon class="cls-8" points="195.79 192.87 195.79 193.87 179.16 220.84 179.16 228.37 170.01 224.07 197.85 179.26 203.3 181.69 198.15 190.04 195.79 192.87"/><polyline class="cls-9" points="241.57 160.67 225.89 168.9 220.43 171.77 219.78 172.11"/><line class="cls-9" x1="210.41" y1="190.68" x2="220.43" y2="171.77"/><line class="cls-9" x1="210.41" y1="198.25" x2="210.41" y2="190.68"/><polyline class="cls-9" points="225.89 168.91 225.7 169.25 223.72 173.01 221.4 177.41 220.39 179.33 216.67 186.38"/><line class="cls-9" x1="220.82" y1="141.09" x2="210.41" y2="160.41"/><line class="cls-9" x1="232.34" y1="127.12" x2="232.34" y2="119.72"/><line class="cls-9" x1="228.19" y1="117.44" x2="241.91" y2="123.18"/><polyline class="cls-9" points="215.99 157.58 219.6 150.84 226.25 138.45"/><line class="cls-9" x1="210.41" y1="160.41" x2="210.41" y2="167.98"/><line class="cls-9" x1="228.19" y1="110.11" x2="246.53" y2="117.73"/><line class="cls-9" x1="232.34" y1="156.68" x2="232.34" y2="149.29"/><polyline class="cls-9" points="210.41 167.98 226.95 159.45 232.34 156.68"/><polyline class="cls-9" points="214.53 201.36 200.36 194.94 195.79 192.87"/><polyline class="cls-9" points="195.79 200.45 195.79 193.87 195.79 192.87"/><polyline class="cls-9" points="214.53 209 196.18 200.63 195.79 200.45"/><line class="cls-9" x1="223.17" y1="152.71" x2="228.19" y2="146.74"/><line class="cls-9" x1="228.19" y1="117.44" x2="228.19" y2="110.11"/><line class="cls-9" x1="228.19" y1="146.74" x2="228.19" y2="139.41"/><line class="cls-9" x1="228.19" y1="139.41" x2="246.53" y2="147.24"/><polyline class="cls-9" points="210.61 137.48 226.98 129.67 232.34 127.12"/><line class="cls-9" x1="228.19" y1="146.74" x2="242.04" y2="152.68"/><polyline class="cls-9" points="241.57 131 226.25 138.45 220.82 141.09 219.98 141.5"/><polyline class="cls-9" points="214.53 170.81 200.49 164.61 195.79 162.54"/><line class="cls-9" x1="203.15" y1="220.62" x2="203.15" y2="213.37"/><polyline class="cls-9" points="214.53 178.45 210.41 176.62 207.17 175.18 202.89 173.28 198.42 171.3 195.79 170.13"/><line class="cls-9" x1="246.53" y1="125.1" x2="241.57" y2="131"/><line class="cls-9" x1="246.53" y1="117.73" x2="246.53" y2="125.1"/><polyline class="cls-9" points="241.57 123.59 241.91 123.18 246.53 117.73"/><polyline class="cls-9" points="219.98 133.91 233.32 127.53 241.57 123.59"/><polyline class="cls-9" points="214.53 140.26 215.22 139.46 219.98 133.91"/><line class="cls-9" x1="214.53" y1="147.9" x2="214.53" y2="140.26"/><line class="cls-9" x1="219.98" y1="141.5" x2="214.53" y2="147.9"/><line class="cls-9" x1="214.53" y1="209" x2="219.78" y2="202.49"/><line class="cls-9" x1="214.53" y1="201.36" x2="214.53" y2="209"/><polyline class="cls-9" points="219.78 194.9 215.27 200.45 214.53 201.36"/><polyline class="cls-9" points="241.57 179.75 235.05 184.28 219.78 194.9"/><polyline class="cls-9" points="246.71 173.35 242.33 178.8 241.57 179.75"/><line class="cls-9" x1="241.57" y1="187.16" x2="246.71" y2="180.72"/><line class="cls-9" x1="246.53" y1="147.24" x2="246.53" y2="154.61"/><polyline class="cls-9" points="241.57 153.26 242.04 152.68 246.53 147.24"/><polyline class="cls-9" points="219.78 164.52 233.76 157.29 241.57 153.26"/><polyline class="cls-9" points="214.53 170.81 215.15 170.07 219.78 164.52"/><line class="cls-9" x1="214.53" y1="178.45" x2="214.53" y2="170.81"/><line class="cls-9" x1="219.78" y1="172.11" x2="214.53" y2="178.45"/><line class="cls-9" x1="246.53" y1="154.61" x2="241.57" y2="160.67"/><line class="cls-9" x1="246.71" y1="220.76" x2="246.71" y2="228.14"/><polyline class="cls-9" points="241.57 227.43 242.51 226.21 246.71 220.76"/><polyline class="cls-9" points="214.53 249.37 235.74 232.16 241.57 227.43"/><polyline class="cls-9" points="209.01 256.44 210.18 254.94 214.53 249.37"/><line class="cls-9" x1="261.28" y1="293.81" x2="261.28" y2="301.29"/><line class="cls-9" x1="235.31" y1="315.22" x2="261.28" y2="293.81"/><polyline class="cls-9" points="229.86 322.74 231.21 320.88 235.31 315.22"/><line class="cls-9" x1="164.33" y1="283.13" x2="173.51" y2="287.68"/><polyline class="cls-9" points="173.51 280.1 168.66 277.71 164.33 275.58"/><polyline class="cls-9" points="220.27 317.96 177.16 283.05 173.51 280.1"/><polyline class="cls-9" points="229.86 322.74 224.4 320.02 220.27 317.96"/><line class="cls-9" x1="229.86" y1="330.48" x2="229.86" y2="322.74"/><line class="cls-9" x1="220.27" y1="325.68" x2="229.86" y2="330.48"/><polyline class="cls-9" points="214.53 147.9 210.69 146.24 207.39 144.82 205.12 143.84"/><line class="cls-9" x1="210.61" y1="137.48" x2="205.12" y2="143.84"/><line class="cls-9" x1="197.85" y1="227.17" x2="203.15" y2="220.62"/><line class="cls-9" x1="203.15" y1="213.37" x2="197.85" y2="219.88"/><line class="cls-9" x1="197.85" y1="219.88" x2="191.01" y2="231.83"/><line class="cls-9" x1="218.36" y1="183.19" x2="221.4" y2="183.16"/><polyline class="cls-9" points="232.34 183.07 232.34 176.73 232.34 175.68"/><polyline class="cls-9" points="232.34 175.68 222.26 175.79 222.25 175.79"/><line class="cls-9" x1="232.34" y1="183.07" x2="210.41" y2="198.25"/><polyline class="cls-9" points="210.41 190.68 216.66 186.41 221.4 183.16 232.34 175.68"/><line class="cls-9" x1="237.52" y1="176.68" x2="232.34" y2="176.73"/><line class="cls-9" x1="219.78" y1="202.49" x2="241.57" y2="187.16"/><line class="cls-9" x1="200.36" y1="194.94" x2="201.11" y2="194.04"/><line class="cls-9" x1="183.64" y1="244.7" x2="170.01" y2="268.52"/><line class="cls-9" x1="237.52" y1="176.68" x2="242.33" y2="178.8"/><line class="cls-9" x1="170.01" y1="268.52" x2="164.33" y2="275.58"/><line class="cls-9" x1="164.33" y1="275.58" x2="164.33" y2="283.13"/><line class="cls-9" x1="182.1" y1="223.57" x2="196.18" y2="200.63"/><polyline class="cls-9" points="206.2 176.99 203.3 181.69 198.15 190.04"/><line class="cls-9" x1="195.79" y1="193.87" x2="179.16" y2="220.84"/><polyline class="cls-9" points="168.66 277.72 168.66 277.71 170.01 276.03"/><line class="cls-9" x1="197.85" y1="227.17" x2="193.75" y2="234.37"/><line class="cls-9" x1="179.16" y1="220.84" x2="179.16" y2="228.37"/><line class="cls-9" x1="186.39" y1="247.28" x2="170.01" y2="276.03"/><line class="cls-9" x1="209.01" y1="264.13" x2="199.57" y2="259.61"/><polyline class="cls-9" points="199.57 259.61 193.91 254.31 191.17 251.75 186.39 247.28 183.64 244.7 173.51 235.22"/><line class="cls-9" x1="164.33" y1="230.87" x2="173.51" y2="235.22"/><line class="cls-9" x1="164.33" y1="230.87" x2="164.33" y2="223.32"/><polyline class="cls-9" points="164.33 223.32 168.85 225.45 173.51 227.65"/><polyline class="cls-9" points="173.51 227.65 177.04 230.94 199.57 251.95"/><line class="cls-9" x1="197.85" y1="179.26" x2="202.89" y2="173.28"/><polyline class="cls-9" points="199.57 251.95 203.95 254.04 209.01 256.44"/><line class="cls-9" x1="209.01" y1="264.13" x2="209.01" y2="256.44"/><line class="cls-9" x1="205.12" y1="252.54" x2="232.34" y2="230.59"/><polyline class="cls-9" points="232.34 230.59 232.34 224.1 232.34 223.2"/><polyline class="cls-9" points="232.34 223.2 222.71 230.88 205.12 244.93"/><line class="cls-9" x1="205.12" y1="252.54" x2="205.12" y2="244.93"/><line class="cls-9" x1="206.84" y1="231.36" x2="222.71" y2="230.88"/><polyline class="cls-9" points="232.34 223.2 210.31 223.93 206.84 224.05"/><line class="cls-9" x1="206.84" y1="231.36" x2="206.84" y2="224.05"/><line class="cls-9" x1="237.52" y1="223.93" x2="232.34" y2="224.1"/><line class="cls-9" x1="241.57" y1="234.85" x2="214.53" y2="257.01"/><line class="cls-9" x1="237.52" y1="223.93" x2="242.51" y2="226.21"/><line class="cls-9" x1="246.71" y1="228.14" x2="241.57" y2="234.85"/><line class="cls-9" x1="182.07" y1="275.33" x2="193.91" y2="254.31"/><line class="cls-9" x1="201.23" y1="241.32" x2="206.84" y2="231.36"/><polyline class="cls-9" points="206.84 224.05 203.56 229.84 198.5 238.78"/><line class="cls-9" x1="191.17" y1="251.75" x2="179.16" y2="272.99"/><line class="cls-9" x1="179.16" y1="280.52" x2="179.16" y2="272.99"/><line class="cls-9" x1="225.75" y1="318.17" x2="179.16" y2="280.52"/><polyline class="cls-9" points="179.16 272.99 182.07 275.33 182.07 275.34 225.75 310.49"/><line class="cls-9" x1="225.75" y1="310.49" x2="225.75" y2="318.17"/><line class="cls-9" x1="225.75" y1="318.17" x2="251.89" y2="296.75"/><line class="cls-9" x1="251.89" y1="296.75" x2="251.89" y2="289.3"/><line class="cls-9" x1="251.89" y1="289.3" x2="225.75" y2="310.49"/><line class="cls-9" x1="173.51" y1="287.68" x2="220.27" y2="325.68"/><line class="cls-9" x1="261.28" y1="301.29" x2="235.31" y2="322.91"/><line class="cls-9" x1="235.31" y1="322.91" x2="229.86" y2="330.48"/><line class="cls-9" x1="179.16" y1="228.37" x2="205.12" y2="252.54"/><polyline class="cls-9" points="205.12 244.93 201.23 241.32 198.5 238.78 193.75 234.37 191.01 231.83 182.1 223.57 179.16 220.84"/><line class="cls-9" x1="214.53" y1="257.01" x2="209.01" y2="264.13"/><line class="cls-9" x1="201.11" y1="194.04" x2="210.41" y2="176.62"/><line class="cls-9" x1="222.27" y1="154.39" x2="223.17" y2="152.71"/><line class="cls-9" x1="228.19" y1="139.41" x2="223.17" y2="145.35"/><line class="cls-9" x1="223.17" y1="145.35" x2="216.84" y2="157.15"/><polyline class="cls-9" points="207.17 175.18 206.25 176.91 206.2 176.99 201.11 186.5"/><polyline class="cls-9" points="201.11 186.5 198.15 190.04 195.79 192.87"/><line class="cls-9" x1="223.17" y1="123.25" x2="228.19" y2="117.44"/><line class="cls-9" x1="223.17" y1="123.25" x2="222.61" y2="124.29"/><line class="cls-9" x1="210.69" y1="146.24" x2="201.11" y2="163.88"/><polyline class="cls-9" points="201.11 163.88 200.49 164.61 200.48 164.62"/><line class="cls-9" x1="195.79" y1="162.54" x2="201.11" y2="156.34"/><line class="cls-9" x1="201.11" y1="156.34" x2="207.39" y2="144.82"/><line class="cls-9" x1="217.21" y1="126.82" x2="223.17" y2="115.89"/><line class="cls-9" x1="223.17" y1="115.89" x2="228.19" y2="110.11"/><polyline class="cls-9" points="232.34 119.72 224.03 123.62 222.61 124.29 217.21 126.82 210.61 129.92"/><line class="cls-9" x1="210.61" y1="129.92" x2="205.12" y2="136.23"/><line class="cls-9" x1="205.12" y1="136.23" x2="205.12" y2="143.84"/><line class="cls-9" x1="225.58" y1="169.49" x2="237.52" y2="169.33"/><line class="cls-9" x1="237.52" y1="169.33" x2="246.71" y2="173.35"/><line class="cls-9" x1="246.71" y1="180.72" x2="246.71" y2="173.35"/><line class="cls-9" x1="197.85" y1="179.26" x2="170.01" y2="224.07"/><line class="cls-9" x1="170.01" y1="224.07" x2="168.85" y2="225.45"/><line class="cls-9" x1="164.33" y1="223.32" x2="170.01" y2="216.56"/><line class="cls-9" x1="170.01" y1="216.56" x2="197.85" y2="171.97"/><polyline class="cls-9" points="197.85 171.97 198.42 171.3 198.42 171.29"/><line class="cls-9" x1="203.15" y1="220.62" x2="210.31" y2="223.93"/><line class="cls-9" x1="203.15" y1="213.37" x2="212.11" y2="217.49"/><line class="cls-9" x1="212.11" y1="217.49" x2="237.52" y2="216.58"/><line class="cls-9" x1="237.52" y1="216.58" x2="246.71" y2="220.76"/><polyline class="cls-9" points="232.34 149.29 224.47 153.28 222.27 154.39 222.27 154.4 216.84 157.15 215.99 157.58 210.41 160.41"/><line class="cls-9" x1="195.79" y1="170.13" x2="195.79" y2="162.54"/><polygon class="cls-8" points="252.18 296.65 226.04 318.07 231.5 320.78 235.55 315 256.61 297.71 252.18 296.65"/></g><g id="Stair_Line_thin" data-name="Stair Line thin"><line class="cls-4" x1="232.34" y1="127.12" x2="233.32" y2="127.53"/><line class="cls-4" x1="224.03" y1="123.62" x2="223.17" y2="123.25"/><line class="cls-4" x1="215.22" y1="139.46" x2="210.61" y2="137.48"/><line class="cls-4" x1="223.17" y1="152.71" x2="224.47" y2="153.28"/><line class="cls-4" x1="232.34" y1="156.68" x2="233.76" y2="157.29"/><line class="cls-4" x1="201.11" y1="163.88" x2="210.41" y2="167.98"/><line class="cls-4" x1="215.15" y1="170.07" x2="210.41" y2="167.98"/><line class="cls-4" x1="232.34" y1="183.07" x2="237.52" y2="176.68"/><line class="cls-4" x1="235.05" y1="184.28" x2="232.34" y2="183.07"/><line class="cls-4" x1="203.3" y1="181.69" x2="197.85" y2="179.26"/><line class="cls-4" x1="201.11" y1="194.04" x2="210.41" y2="198.25"/><line class="cls-4" x1="210.41" y1="198.25" x2="215.27" y2="200.45"/><line class="cls-4" x1="197.85" y1="227.17" x2="203.56" y2="229.84"/><line class="cls-4" x1="170.01" y1="224.07" x2="179.16" y2="228.37"/><line class="cls-4" x1="177.04" y1="230.94" x2="179.16" y2="228.37"/><line class="cls-4" x1="232.34" y1="230.59" x2="237.52" y2="223.93"/><line class="cls-4" x1="235.74" y1="232.16" x2="232.34" y2="230.59"/><line class="cls-4" x1="205.12" y1="252.54" x2="203.95" y2="254.04"/><line class="cls-4" x1="210.18" y1="254.94" x2="205.12" y2="252.54"/><line class="cls-4" x1="179.16" y1="280.52" x2="170.01" y2="276.03"/><line class="cls-4" x1="179.16" y1="280.52" x2="177.16" y2="283.05"/><line class="cls-4" x1="231.21" y1="320.88" x2="225.75" y2="318.17"/><line class="cls-4" x1="225.75" y1="318.17" x2="224.4" y2="320.02"/></g><g id="Make2D::hidden::lines::Stair_Atruim"><line class="cls-10" x1="210.3" y1="223.93" x2="212.1" y2="224.76"/><line class="cls-10" x1="203.15" y1="172.97" x2="203.15" y2="165.72"/><line class="cls-10" x1="198.42" y1="171.29" x2="203.15" y2="165.72"/><line class="cls-10" x1="168.85" y1="225.45" x2="164.33" y2="230.87"/><line class="cls-10" x1="212.1" y1="169.67" x2="225.58" y2="169.49"/><line class="cls-10" x1="203.15" y1="165.72" x2="212.1" y2="169.67"/><line class="cls-10" x1="203.15" y1="172.97" x2="212.1" y2="176.94"/><line class="cls-10" x1="207.39" y1="144.82" x2="217.2" y2="126.82"/><line class="cls-10" x1="200.48" y1="164.61" x2="195.79" y2="170.12"/><line class="cls-10" x1="222.61" y1="124.29" x2="210.68" y2="146.24"/><line class="cls-10" x1="216.84" y1="157.15" x2="207.17" y2="175.18"/><line class="cls-10" x1="210.4" y1="176.62" x2="222.27" y2="154.39"/><line class="cls-10" x1="203.94" y1="254.03" x2="199.57" y2="259.6"/><line class="cls-10" x1="235.3" y1="322.91" x2="231.21" y2="320.88"/><line class="cls-10" x1="251.89" y1="296.75" x2="261.27" y2="301.29"/><line class="cls-10" x1="224.39" y1="320.01" x2="220.27" y2="325.68"/><line class="cls-10" x1="177.15" y1="283.05" x2="173.51" y2="287.67"/><line class="cls-10" x1="203.56" y1="229.83" x2="206.83" y2="231.36"/><line class="cls-10" x1="198.5" y1="238.78" x2="191.17" y2="251.74"/><line class="cls-10" x1="193.74" y1="234.37" x2="186.39" y2="247.28"/><line class="cls-10" x1="193.91" y1="254.31" x2="201.23" y2="241.32"/><line class="cls-10" x1="164.33" y1="283.13" x2="168.66" y2="277.71"/><line class="cls-10" x1="179.15" y1="280.52" x2="182.07" y2="275.34"/><line class="cls-10" x1="242.5" y1="226.21" x2="246.71" y2="228.14"/><line class="cls-10" x1="241.56" y1="234.85" x2="235.74" y2="232.16"/><line class="cls-10" x1="214.53" y1="257.01" x2="210.18" y2="254.94"/><line class="cls-10" x1="191.01" y1="231.83" x2="183.64" y2="244.7"/><line class="cls-10" x1="219.78" y1="172.11" x2="215.15" y2="170.07"/><line class="cls-10" x1="206.83" y1="231.36" x2="212.1" y2="224.76"/><line class="cls-10" x1="232.33" y1="224.09" x2="212.1" y2="224.76"/><line class="cls-10" x1="222.71" y1="230.88" x2="232.33" y2="230.59"/><line class="cls-10" x1="242.03" y1="152.68" x2="246.52" y2="154.61"/><line class="cls-10" x1="233.75" y1="157.29" x2="241.56" y2="160.67"/><line class="cls-10" x1="224.47" y1="153.28" x2="232.33" y2="156.68"/><line class="cls-10" x1="173.51" y1="235.22" x2="177.03" y2="230.94"/><line class="cls-10" x1="226.25" y1="138.45" x2="232.33" y2="127.11"/><line class="cls-10" x1="226.97" y1="129.67" x2="220.82" y2="141.09"/><line class="cls-10" x1="202.89" y1="173.28" x2="203.15" y2="172.97"/><line class="cls-10" x1="232.33" y1="156.68" x2="225.88" y2="168.91"/><line class="cls-10" x1="220.42" y1="171.77" x2="226.95" y2="159.45"/><line class="cls-10" x1="232.33" y1="127.11" x2="224.03" y2="123.62"/><line class="cls-10" x1="241.91" y1="123.17" x2="246.52" y2="125.1"/><line class="cls-10" x1="233.32" y1="127.53" x2="241.56" y2="131"/><line class="cls-10" x1="219.98" y1="141.5" x2="215.22" y2="139.46"/><line class="cls-10" x1="206.83" y1="183.28" x2="218.35" y2="183.18"/><line class="cls-10" x1="221.4" y1="183.16" x2="232.33" y2="183.07"/><line class="cls-10" x1="222.25" y1="175.79" x2="206.83" y2="175.96"/><line class="cls-10" x1="206.83" y1="183.28" x2="206.83" y2="175.96"/><line class="cls-10" x1="232.33" y1="176.73" x2="212.1" y2="176.94"/><line class="cls-10" x1="212.1" y1="176.94" x2="206.83" y2="183.28"/><line class="cls-10" x1="241.56" y1="187.16" x2="235.05" y2="184.28"/><line class="cls-10" x1="215.27" y1="200.45" x2="219.78" y2="202.49"/><line class="cls-10" x1="195.79" y1="200.45" x2="200.36" y2="194.94"/><line class="cls-10" x1="242.33" y1="178.8" x2="246.71" y2="180.72"/><line class="cls-10" x1="179.15" y1="228.37" x2="182.1" y2="223.57"/><line class="cls-10" x1="196.18" y1="200.63" x2="206.83" y2="183.28"/><line class="cls-10" x1="206.83" y1="175.96" x2="206.25" y2="176.91"/><line class="cls-10" x1="206.83" y1="183.28" x2="203.29" y2="181.69"/><line class="cls-10" x1="198.15" y1="190.04" x2="195.79" y2="193.87"/></g><g id="Make2D::visible::lines::Solid"><line class="cls-9" x1="123.25" y1="199.75" x2="96.48" y2="187.18"/><line class="cls-9" x1="55" y1="67.75" x2="39.57" y2="61.15"/><line class="cls-9" x1="84.53" y1="9.05" x2="84.53" y2="24.34"/><line class="cls-9" x1="123.25" y1="24.46" x2="84.53" y2="9.05"/><line class="cls-9" x1="96.48" y1="205.3" x2="55" y2="250.79"/><line class="cls-9" x1="96.48" y1="29.17" x2="55" y2="67.75"/><line class="cls-9" x1="39.57" y1="61.15" x2="39.57" y2="243.01"/><line class="cls-9" x1="94.41" y1="0.15" x2="132.92" y2="15.28"/><line class="cls-9" x1="123.25" y1="24.46" x2="123.25" y2="199.75"/><line class="cls-9" x1="96.48" y1="29.17" x2="96.48" y2="205.3"/><line class="cls-9" x1="81.37" y1="23.06" x2="96.48" y2="29.17"/><line class="cls-9" x1="55" y1="250.79" x2="39.57" y2="243.01"/><line class="cls-9" x1="84.53" y1="9.05" x2="94.41" y2="0.15"/><line class="cls-9" x1="39.57" y1="61.15" x2="81.37" y2="23.06"/><line class="cls-9" x1="55" y1="67.75" x2="55" y2="250.79"/><line class="cls-9" x1="132.92" y1="188.92" x2="123.25" y2="199.75"/><line class="cls-9" x1="132.92" y1="15.28" x2="123.25" y2="24.46"/><line class="cls-9" x1="132.92" y1="15.28" x2="132.92" y2="188.92"/></g><g id="Make2D::hidden::lines::Solid"><line class="cls-4" x1="96.48" y1="187.18" x2="84.53" y2="181.57"/><line class="cls-4" x1="84.53" y1="181.57" x2="94.41" y2="171.08"/><line class="cls-4" x1="81.37" y1="198.1" x2="96.48" y2="205.3"/><line class="cls-4" x1="84.53" y1="24.34" x2="84.53" y2="181.57"/><line class="cls-4" x1="81.37" y1="23.06" x2="81.37" y2="198.1"/><line class="cls-4" x1="39.57" y1="243.01" x2="81.37" y2="198.1"/><line class="cls-4" x1="94.41" y1="0.15" x2="94.41" y2="171.08"/><line class="cls-4" x1="94.41" y1="171.08" x2="132.92" y2="188.92"/></g><g id="Make2D::visible::lines::BOX"><polygon class="cls-2" points="249.66 114.41 249.66 255.66 212.22 305.83 212.22 158.72 249.66 114.41"/><polygon class="cls-1" points="249.66 114.41 212.22 158.72 167.65 139.23 172.01 134.39 206.21 96.42 249.66 114.41"/><polygon class="cls-3" points="212.22 158.72 212.22 305.83 167.65 283.76 167.65 223.67 167.65 139.23 212.22 158.72"/><polygon class="cls-2" points="172.01 72.53 172.01 134.39 167.65 139.23 167.65 223.67 132.28 265.93 132.28 114.09 172.01 72.53"/><polygon class="cls-1" points="172.01 72.53 132.28 114.09 54.48 80.4 95.94 41.37 172.01 72.53"/><polygon class="cls-3" points="132.28 114.09 132.28 265.93 54.48 227.45 54.48 80.4 132.28 114.09"/><line class="cls-11" x1="132.28" y1="265.93" x2="54.48" y2="227.45"/><line class="cls-11" x1="167.65" y1="139.23" x2="212.22" y2="158.72"/><line class="cls-11" x1="212.22" y1="305.83" x2="212.22" y2="158.72"/><line class="cls-11" x1="212.22" y1="158.72" x2="249.66" y2="114.41"/><line class="cls-11" x1="249.66" y1="255.66" x2="249.66" y2="114.41"/><line class="cls-11" x1="132.28" y1="114.09" x2="54.48" y2="80.4"/><line class="cls-11" x1="212.22" y1="305.83" x2="249.66" y2="255.66"/><line class="cls-11" x1="167.65" y1="223.67" x2="132.28" y2="265.93"/><line class="cls-11" x1="167.65" y1="283.76" x2="212.22" y2="305.83"/><line class="cls-11" x1="172.01" y1="72.53" x2="132.28" y2="114.09"/><polyline class="cls-11" points="206.21 96.42 172.01 134.39 167.65 139.23"/><line class="cls-11" x1="54.48" y1="80.4" x2="54.48" y2="227.45"/><line class="cls-11" x1="95.94" y1="41.37" x2="172.01" y2="72.53"/><line class="cls-11" x1="54.48" y1="80.4" x2="95.94" y2="41.37"/><line class="cls-11" x1="132.28" y1="114.09" x2="132.28" y2="265.93"/><line class="cls-11" x1="172.01" y1="72.53" x2="172.01" y2="134.39"/><line class="cls-11" x1="249.66" y1="114.41" x2="206.21" y2="96.42"/><polyline class="cls-11" points="167.65 283.76 167.65 223.67 167.65 139.23"/></g><g id="Make2D::hidden::lines::BOX"><line class="cls-12" x1="172.01" y1="134.38" x2="172.01" y2="137.38"/><line class="cls-13" x1="172.01" y1="140.51" x2="172.01" y2="213.89"/><line class="cls-12" x1="172.01" y1="215.46" x2="172.01" y2="218.46"/><line class="cls-12" x1="95.94" y1="182.87" x2="98.65" y2="184.14"/><line class="cls-14" x1="101.48" y1="185.47" x2="167.88" y2="216.52"/><line class="cls-12" x1="169.29" y1="217.19" x2="172.01" y2="218.46"/><line class="cls-12" x1="54.47" y1="227.45" x2="56.52" y2="225.25"/><line class="cls-15" x1="58.48" y1="223.14" x2="92.91" y2="186.13"/><line class="cls-12" x1="93.89" y1="185.07" x2="95.94" y2="182.87"/><line class="cls-12" x1="172.01" y1="218.46" x2="170.08" y2="220.76"/><line class="cls-12" x1="169.57" y1="221.36" x2="167.65" y2="223.67"/><line class="cls-12" x1="249.66" y1="255.66" x2="246.94" y2="254.38"/><line class="cls-16" x1="244.02" y1="253.01" x2="210.38" y2="237.25"/><line class="cls-12" x1="208.92" y1="236.57" x2="206.2" y2="235.29"/><line class="cls-12" x1="206.2" y1="235.29" x2="206.2" y2="232.29"/><line class="cls-17" x1="206.2" y1="229.37" x2="206.2" y2="160.55"/><line class="cls-12" x1="206.2" y1="159.09" x2="206.2" y2="156.09"/><line class="cls-12" x1="206.2" y1="235.29" x2="204.34" y2="237.64"/><line class="cls-18" x1="202.5" y1="239.94" x2="170.43" y2="280.26"/><line class="cls-12" x1="169.52" y1="281.41" x2="167.65" y2="283.76"/><line class="cls-12" x1="95.94" y1="41.37" x2="95.94" y2="44.37"/><line class="cls-19" x1="95.94" y1="47.32" x2="95.94" y2="178.4"/><line class="cls-12" x1="95.94" y1="179.87" x2="95.94" y2="182.87"/><line class="cls-12" x1="206.2" y1="156.09" x2="206.2" y2="153.09"/><line class="cls-20" x1="206.2" y1="150.26" x2="206.2" y2="100.83"/><line class="cls-12" x1="206.2" y1="99.42" x2="206.2" y2="96.42"/></g><g id="Slab_new" data-name="Slab new"><line class="cls-21" x1="246.42" y1="282.91" x2="246.31" y2="282.85"/><line class="cls-21" x1="282.35" y1="104.31" x2="217.76" y2="182.79"/><line class="cls-21" x1="217.76" y1="176.34" x2="217.76" y2="182.79"/><line class="cls-21" x1="217.76" y1="182.79" x2="13.48" y2="91.8"/><line class="cls-21" x1="13.48" y1="85.87" x2="13.48" y2="91.8"/><line class="cls-21" x1="282.35" y1="104.31" x2="282.35" y2="98.3"/><line class="cls-21" x1="221.93" y1="102.38" x2="189.58" y2="139.07"/><line class="cls-21" x1="221.93" y1="93.04" x2="221.93" y2="102.38"/><line class="cls-21" x1="244.42" y1="111.68" x2="221.93" y2="102.38"/><line class="cls-21" x1="231.31" y1="228.19" x2="236" y2="230.35"/><line class="cls-21" x1="182.35" y1="246.2" x2="192.48" y2="233.68"/><line class="cls-21" x1="217.76" y1="321.79" x2="13.48" y2="219.68"/><line class="cls-21" x1="13.48" y1="215.81" x2="13.48" y2="219.68"/><line class="cls-21" x1="282.35" y1="233.71" x2="217.76" y2="321.79"/><line class="cls-21" x1="217.76" y1="317.58" x2="217.76" y2="321.79"/><line class="cls-21" x1="196.76" y1="235.69" x2="186.66" y2="248.25"/><line class="cls-21" x1="231.83" y1="235.73" x2="227.13" y2="233.55"/><line class="cls-21" x1="282.35" y1="233.71" x2="282.35" y2="229.79"/><line class="cls-21" x1="217.76" y1="245.56" x2="13.48" y2="149.55"/><line class="cls-21" x1="13.48" y1="145.68" x2="13.48" y2="149.55"/><line class="cls-21" x1="282.35" y1="162.75" x2="217.76" y2="245.56"/><line class="cls-21" x1="217.76" y1="241.35" x2="217.76" y2="245.56"/><line class="cls-21" x1="207.24" y1="178.1" x2="187.94" y2="201.2"/><line class="cls-21" x1="246" y1="171.02" x2="232.34" y2="165.07"/><line class="cls-21" x1="225.01" y1="134.44" x2="202.21" y2="124.75"/><line class="cls-21" x1="282.35" y1="162.75" x2="282.35" y2="158.83"/><line class="cls-21" x1="206.26" y1="191.88" x2="206.26" y2="199.11"/><line class="cls-21" x1="206.26" y1="191.88" x2="223.06" y2="199.46"/><line class="cls-21" x1="195.65" y1="204.72" x2="206.26" y2="191.88"/><line class="cls-21" x1="217.76" y1="294.88" x2="13.48" y2="194.93"/><line class="cls-21" x1="13.48" y1="191.06" x2="13.48" y2="194.93"/><line class="cls-21" x1="282.35" y1="208.66" x2="217.76" y2="294.88"/><line class="cls-21" x1="217.76" y1="290.68" x2="217.76" y2="294.88"/><line class="cls-21" x1="181.93" y1="228.72" x2="171.74" y2="241.13"/><line class="cls-21" x1="206.26" y1="199.11" x2="200.01" y2="206.72"/><line class="cls-21" x1="218.77" y1="204.78" x2="206.26" y2="199.11"/><line class="cls-21" x1="246.17" y1="217.22" x2="241.51" y2="215.11"/><line class="cls-21" x1="235.52" y1="184.01" x2="221.77" y2="177.92"/><line class="cls-21" x1="282.35" y1="208.66" x2="282.35" y2="204.75"/></g><g id="Slab_outline" data-name="Slab outline"><line class="cls-22" x1="217.76" y1="176.34" x2="13.48" y2="85.87"/><line class="cls-22" x1="13.48" y1="85.87" x2="84.53" y2="21.05"/><line class="cls-22" x1="282.35" y1="98.3" x2="132.92" y2="38.21"/><line class="cls-22" x1="282.35" y1="98.3" x2="217.76" y2="176.34"/><line class="cls-22" x1="212.57" y1="149.03" x2="183.37" y2="136.38"/><line class="cls-22" x1="183.37" y1="136.38" x2="221.93" y2="93.04"/><line class="cls-22" x1="221.93" y1="93.04" x2="250.38" y2="104.69"/><line class="cls-22" x1="250.38" y1="104.69" x2="212.57" y2="149.03"/><line class="cls-22" x1="236.77" y1="159.69" x2="250.38" y2="165.59"/><line class="cls-22" x1="183.37" y1="199.1" x2="202.72" y2="176.09"/><line class="cls-22" x1="212.57" y1="212.47" x2="183.37" y2="199.1"/><line class="cls-22" x1="250.38" y1="165.59" x2="212.57" y2="212.47"/><line class="cls-22" x1="217.76" y1="241.35" x2="13.48" y2="145.68"/><line class="cls-22" x1="13.48" y1="145.68" x2="51.69" y2="108.82"/><line class="cls-22" x1="282.35" y1="158.83" x2="217.76" y2="241.35"/><line class="cls-22" x1="282.35" y1="158.83" x2="249.11" y2="144.69"/><line class="cls-22" x1="245.74" y1="209.69" x2="250.38" y2="211.78"/><line class="cls-22" x1="167.3" y1="239.02" x2="177.52" y2="226.65"/><line class="cls-22" x1="212.57" y1="260.6" x2="167.3" y2="239.02"/><line class="cls-22" x1="250.38" y1="211.78" x2="212.57" y2="260.6"/><line class="cls-22" x1="217.76" y1="290.68" x2="13.48" y2="191.06"/><line class="cls-22" x1="13.48" y1="191.06" x2="41.63" y2="162.78"/><line class="cls-22" x1="282.35" y1="204.75" x2="217.76" y2="290.68"/><line class="cls-22" x1="282.35" y1="204.75" x2="258" y2="193.96"/><line class="cls-22" x1="217.76" y1="317.58" x2="13.48" y2="215.81"/><line class="cls-22" x1="13.48" y1="215.81" x2="27.26" y2="201.67"/><line class="cls-22" x1="282.35" y1="229.79" x2="217.76" y2="317.58"/><line class="cls-22" x1="282.35" y1="229.79" x2="270.53" y2="224.44"/><line class="cls-22" x1="55.34" y1="259.82" x2="206.91" y2="336.8"/><line class="cls-22" x1="206.91" y1="336.8" x2="246.42" y2="282.91"/><line class="cls-22" x1="292.9" y1="263.02" x2="268.98" y2="251.94"/><line class="cls-22" x1="219.26" y1="367.17" x2="292.9" y2="263.02"/><line class="cls-22" x1="8.15" y1="257.96" x2="219.26" y2="367.17"/><line class="cls-22" x1="34.43" y1="230.15" x2="8.15" y2="257.96"/><line class="cls-22" x1="67.31" y1="246.59" x2="55.34" y2="259.82"/></g><g id="Slab_Desh" data-name="Slab Desh"><line class="cls-23" x1="132.92" y1="38.21" x2="86.28" y2="19.45"/><line class="cls-23" x1="84.53" y1="21.05" x2="86.28" y2="19.45"/></g><g id="Make2D::visible::lines::Elevtor"><polygon class="cls-2" points="130 98.28 130 115.8 122.47 123.67 122.47 106.02 130 98.28"/><polygon class="cls-1" points="130 98.28 122.47 106.02 109.47 100.4 115.44 94.37 117.05 92.74 130 98.28"/><polygon class="cls-3" points="122.47 106.02 122.47 123.67 109.47 117.96 109.47 115.59 109.47 100.4 122.47 106.02"/><polygon class="cls-2" points="115.44 92.05 115.44 94.37 109.47 100.4 109.47 115.59 107.84 117.25 107.84 99.7 115.44 92.05"/><polygon class="cls-1" points="115.44 92.05 107.84 99.7 94.97 94.15 102.61 86.58 115.44 92.05"/><polygon class="cls-3" points="107.84 99.7 107.84 117.25 94.97 111.61 94.97 94.15 107.84 99.7"/><line class="cls-24" x1="130" y1="115.8" x2="130" y2="98.28"/><line class="cls-24" x1="122.47" y1="106.02" x2="130" y2="98.28"/><line class="cls-24" x1="122.47" y1="123.67" x2="122.47" y2="106.02"/><line class="cls-24" x1="130" y1="98.28" x2="117.04" y2="92.74"/><line class="cls-24" x1="94.97" y1="94.15" x2="107.84" y2="99.7"/><polyline class="cls-24" points="109.47 117.96 109.47 115.59 109.47 100.4"/><polyline class="cls-24" points="117.05 92.74 115.44 94.37 109.47 100.4"/><line class="cls-24" x1="109.46" y1="117.96" x2="122.47" y2="123.67"/><line class="cls-24" x1="109.46" y1="100.4" x2="122.47" y2="106.02"/><line class="cls-24" x1="107.84" y1="117.25" x2="109.46" y2="115.59"/><line class="cls-24" x1="94.97" y1="111.61" x2="107.84" y2="117.25"/><line class="cls-24" x1="122.47" y1="123.67" x2="130" y2="115.8"/><line class="cls-24" x1="115.43" y1="94.37" x2="115.43" y2="92.05"/><line class="cls-24" x1="107.84" y1="99.7" x2="115.43" y2="92.05"/><line class="cls-24" x1="107.84" y1="117.25" x2="107.84" y2="99.7"/><line class="cls-24" x1="102.61" y1="86.58" x2="94.97" y2="94.15"/><line class="cls-24" x1="94.97" y1="111.61" x2="94.97" y2="94.15"/><line class="cls-24" x1="115.43" y1="92.05" x2="102.61" y2="86.58"/></g><g id="Make2D::hidden::lines::Elevtor"><line class="cls-25" x1="102.62" y1="103.91" x2="102.62" y2="86.58"/><line class="cls-25" x1="115.43" y1="109.47" x2="102.62" y2="103.91"/><line class="cls-25" x1="109.46" y1="115.59" x2="115.43" y2="109.47"/><line class="cls-25" x1="117.04" y1="110.17" x2="109.46" y2="117.96"/><line class="cls-25" x1="117.04" y1="110.17" x2="117.04" y2="92.74"/><line class="cls-25" x1="130" y1="115.8" x2="117.04" y2="110.17"/><line class="cls-25" x1="115.43" y1="109.47" x2="115.43" y2="94.36"/><line class="cls-25" x1="102.62" y1="103.91" x2="94.98" y2="111.6"/><line class="cls-25" x1="119.74" y1="98.98" x2="119.74" y2="16.97"/><circle class="cls-26" cx="119.74" cy="98.96" r="0.38"/><circle class="cls-26" cx="119.74" cy="16.99" r="0.38"/><line class="cls-25" x1="105.21" y1="92.74" x2="105.21" y2="11.22"/><circle class="cls-26" cx="105.21" cy="92.72" r="0.38"/><circle class="cls-26" cx="105.21" cy="11.24" r="0.38"/></g><g id="Make2D::visible::lines::Massing_Facade" data-name="Make2D::visible::lines::Massing Facade"><line class="cls-27" x1="0.04" y1="253.68" x2="0.05" y2="253.68"/><polygon class="cls-27" points="99.87 131.22 99.87 168.35 105.95 171.11 105.95 208.15 77.83 194.96 77.83 158.35 62.06 151.19 62.06 114.63 99.87 131.22"/><polyline class="cls-27" points="18.12 131.24 18.12 106.47 8.19 115.58 8.19 80.22 0.05 87.43 0.05 123.04"/><polyline class="cls-27" points="46.9 114.05 46.91 45.92 27.88 62.77 27.88 132.08"/><polyline class="cls-27" points="65.29 116.05 65.29 96.62 74.26 88.12 74.26 21.69 65.3 29.63 65.29 63.21 56.18 71.57 56.17 105.26 46.9 114.05"/><line class="cls-27" x1="65.29" y1="169.08" x2="76.47" y2="157.73"/><line class="cls-27" x1="65.29" y1="152.65" x2="65.29" y2="169.08"/><polyline class="cls-27" points="74.26 119.98 74.26 108.77 66.28 116.48"/><polyline class="cls-27" points="221.98 366.94 229.16 356.88 229.17 336.87 221.98 346.78 221.98 366.94"/><polygon class="cls-27" points="298.65 259.58 298.65 186.06 294.86 191.04 294.86 246.32 287.16 256.92 287.16 275.67 298.65 259.58"/><polygon class="cls-27" points="252.57 147.98 237.31 166.34 237.31 204.69 246.53 193.22 246.52 231 271.36 199.02 271.36 162.28 252.56 185.69 252.57 147.98"/><polyline class="cls-27" points="83.08 79.77 83.07 123.85 87.43 125.76 87.43 75.64"/><line class="cls-27" x1="87.43" y1="75.64" x2="83.08" y2="79.77"/><line class="cls-27" x1="48.5" y1="203.73" x2="46.23" y2="206.07"/><polygon class="cls-27" points="295.41 96.42 287.72 105.67 287.72 141.9 279.34 152.34 279.33 188.75 298.65 163.88 298.66 128.28 295.4 132.33 295.41 96.42"/><line class="cls-27" x1="56.17" y1="195.82" x2="50.36" y2="201.81"/><line class="cls-27" x1="46.23" y1="202.64" x2="46.23" y2="206.07"/><polygon class="cls-27" points="221.98 286.78 221.98 320.53 237.93 299 237.93 265.83 221.98 286.78"/><polygon class="cls-27" points="287.17 232.52 287.17 201.15 263.23 232.59 263.23 264.84 254.95 276.01 254.95 320.77 279.33 286.64 279.33 267.72 271.35 278.71 271.36 253.87 287.17 232.52"/><line class="cls-27" x1="36.79" y1="198" x2="36.86" y2="197.93"/><line class="cls-27" x1="36.79" y1="198.12" x2="36.79" y2="198"/><polyline class="cls-27" points="221.98 262.6 179.19 242.52 179.25 204.38 164.21 197.56 164.19 235.48 120.26 214.86 120.26 177.6 150.44 191.3 150.44 153.4 185.7 168.87 185.7 207.31 221.98 223.78"/><polygon class="cls-27" points="221.98 223.78 221.98 262.6 229.17 253.34 229.17 214.83 221.98 223.78"/><polyline class="cls-27" points="179.22 345.12 134.73 322.42 134.73 277.6 149.38 284.81 149.38 252.03 179.22 266.31 179.22 345.12"/><polygon class="cls-27" points="64.02 286.33 64.02 211.16 105.95 231.23 105.95 263.44 91.81 256.48 91.81 300.51 64.02 286.33"/><polygon class="cls-27" points="10.32 258.92 10.32 240.44 23.51 247.07 23.51 191.76 36.86 198.16 36.86 272.47 10.32 258.92"/><polygon class="cls-27" points="0.05 123.04 34.95 138.88 34.95 102.74 46.49 107.8 46.49 144.12 50.36 145.88 50.36 204.62 36.86 198.16 36.86 175.73 0.05 158.46 0.05 123.04"/><line class="cls-27" x1="46.9" y1="114.05" x2="46.9" y2="135.22"/><line class="cls-27" x1="46.9" y1="135.22" x2="62.06" y2="120.57"/><line class="cls-27" x1="27.88" y1="132.08" x2="34.95" y2="125.38"/><line class="cls-27" x1="46.49" y1="114.44" x2="46.9" y2="114.05"/><line class="cls-27" x1="56.17" y1="195.82" x2="56.17" y2="155.55"/><line class="cls-27" x1="56.17" y1="155.55" x2="50.36" y2="161.32"/><line class="cls-27" x1="27.88" y1="135.67" x2="27.88" y2="132.08"/><line class="cls-27" x1="27.88" y1="132.08" x2="25.32" y2="134.51"/><polygon class="cls-27" points="194.37 306.9 209.74 314.46 209.74 340.58 221.94 346.71 221.94 366.88 194.37 352.81 194.37 306.9"/></g><g id="BOX_Outline" data-name="BOX Outline"><polygon class="cls-11" points="249.66 114.41 249.66 255.66 212.22 305.83 212.22 158.72 249.66 114.41"/><polygon class="cls-28" points="249.66 114.41 212.22 158.72 167.65 139.23 172.01 134.39 206.21 96.42 249.66 114.41"/><polygon class="cls-29" points="212.22 158.72 212.22 305.83 167.65 283.76 167.65 223.67 167.65 139.23 212.22 158.72"/><polygon class="cls-11" points="172.01 72.53 172.01 134.39 167.65 139.23 167.65 223.67 132.28 265.93 132.28 114.09 172.01 72.53"/><polygon class="cls-28" points="172.01 72.53 132.28 114.09 54.48 80.4 95.94 41.37 172.01 72.53"/><polygon class="cls-29" points="132.28 114.09 132.28 265.93 54.48 227.45 54.48 80.4 132.28 114.09"/><line class="cls-30" x1="132.28" y1="265.93" x2="54.48" y2="227.45"/><line class="cls-30" x1="167.65" y1="139.23" x2="212.22" y2="158.72"/><line class="cls-30" x1="212.22" y1="305.83" x2="212.22" y2="158.72"/><line class="cls-30" x1="212.22" y1="158.72" x2="249.66" y2="114.41"/><line class="cls-30" x1="249.66" y1="255.66" x2="249.66" y2="114.41"/><line class="cls-30" x1="132.28" y1="114.09" x2="54.48" y2="80.4"/><line class="cls-30" x1="212.22" y1="305.83" x2="249.66" y2="255.66"/><line class="cls-30" x1="167.65" y1="223.67" x2="132.28" y2="265.93"/><line class="cls-30" x1="167.65" y1="283.76" x2="212.22" y2="305.83"/><line class="cls-30" x1="172.01" y1="72.53" x2="132.28" y2="114.09"/><polyline class="cls-30" points="206.21 96.42 172.01 134.39 167.65 139.23"/><line class="cls-30" x1="54.48" y1="80.4" x2="54.48" y2="227.45"/><line class="cls-30" x1="95.94" y1="41.37" x2="172.01" y2="72.53"/><line class="cls-30" x1="54.48" y1="80.4" x2="95.94" y2="41.37"/><line class="cls-30" x1="132.28" y1="114.09" x2="132.28" y2="265.93"/><line class="cls-30" x1="172.01" y1="72.53" x2="172.01" y2="134.39"/><line class="cls-30" x1="249.66" y1="114.41" x2="206.21" y2="96.42"/><polyline class="cls-30" points="167.65 283.76 167.65 223.67 167.65 139.23"/></g></svg>