<?xml version="1.0" encoding="utf-8"?>
<!-- Generator: Adobe Illustrator 25.2.1, SVG Export Plug-In . SVG Version: 6.00 Build 0)  -->
<svg version="1.1" id="Layer_1" xmlns="http://www.w3.org/2000/svg" xmlns:xlink="http://www.w3.org/1999/xlink" x="0px" y="0px"
	 viewBox="0 0 606.8 367.2" style="enable-background:new 0 0 606.8 367.2;" xml:space="preserve">
<style type="text/css">
	.st0{opacity:0.3;fill:#A9D9D9;enable-background:new    ;}
	.st1{fill:#A9D9D9;}
	.st2{opacity:0.6;fill:#A9D9D9;enable-background:new    ;}
	.st3{fill:none;stroke:#010101;stroke-width:0.1;stroke-linecap:round;stroke-linejoin:round;}
	.st4{fill:none;stroke:#BFBEBE;stroke-width:0.1;stroke-linecap:round;stroke-linejoin:round;}
	.st5{fill:#AAD9D9;}
	.st6{opacity:0.6;fill:#AAD9D9;enable-background:new    ;}
	.st7{opacity:0.3;fill:#AAD9D9;enable-background:new    ;}
	.st8{fill:none;stroke:#010101;stroke-width:0.3;stroke-linecap:round;stroke-linejoin:round;}
	.st9{fill:none;stroke:#010101;stroke-width:0.1;stroke-linecap:round;stroke-linejoin:round;stroke-dasharray:6,3;}
	.st10{fill:none;}
	.st11{fill:none;stroke:#010101;stroke-width:0.25;stroke-linecap:round;stroke-linejoin:round;}
	.st12{fill:none;stroke:#010101;stroke-width:0.25;stroke-linecap:round;stroke-linejoin:round;stroke-dasharray:6.25,3.12;}
	.st13{fill:none;stroke:#010101;stroke-width:0.25;stroke-linecap:round;stroke-linejoin:round;stroke-dasharray:6.24,3.12;}
	.st14{fill:none;stroke:#010101;stroke-width:0.25;stroke-linecap:round;stroke-linejoin:round;stroke-dasharray:5.78,2.89;}
	.st15{fill:none;stroke:#010101;stroke-width:0.25;stroke-linecap:round;stroke-linejoin:round;stroke-dasharray:6.46,3.23;}
	.st16{fill:none;stroke:#010101;stroke-width:0.25;stroke-linecap:round;stroke-linejoin:round;stroke-dasharray:5.86,2.93;}
	.st17{fill:none;stroke:#010101;stroke-width:0.25;stroke-linecap:round;stroke-linejoin:round;stroke-dasharray:5.89,2.94;}
	.st18{fill:none;stroke:#010101;stroke-width:0.25;stroke-linecap:round;stroke-linejoin:round;stroke-dasharray:5.89,2.95;}
	.st19{fill:none;stroke:#010101;stroke-width:0.25;stroke-linecap:round;stroke-linejoin:round;stroke-dasharray:5.65,2.82;}
	.st20{fill:none;stroke:#010101;stroke-width:5.000000e-02;stroke-linecap:round;stroke-linejoin:round;}
	.st21{fill:none;stroke:#010101;stroke-width:0.15;stroke-linecap:round;stroke-linejoin:round;}
	.st22{fill:none;stroke:#010101;stroke-width:0.15;stroke-linecap:round;stroke-linejoin:round;stroke-dasharray:3,2;}
	.st23{fill:none;stroke:#0C0C0C;stroke-width:0.25;stroke-linecap:round;stroke-linejoin:round;}
	.st24{fill:none;stroke:#0C0C0C;stroke-width:0.1;stroke-linecap:round;stroke-linejoin:round;stroke-dasharray:3,1;}
	.st25{fill:#0C0C0C;}
	.st26{opacity:0.33;fill:none;stroke:#030303;stroke-width:0.1;stroke-miterlimit:10;enable-background:new    ;}
	.st27{opacity:0.33;fill:#A9D9D9;stroke:#030303;stroke-width:0.1;stroke-miterlimit:10;enable-background:new    ;}
	.st28{fill:none;stroke:#010101;stroke-linecap:round;stroke-linejoin:round;}
</style>
<g id="Make2D::visible::lines::Stair">
	<polygon class="st0" points="240.7,178.3 236.2,183.1 230.2,180.3 226.3,178.5 228.8,172.8 	"/>
	<polygon class="st0" points="240.7,204.6 236.2,209.5 230.2,206.6 226.5,204.9 226.5,204.9 229.1,199.1 229.1,199.1 	"/>
	<polygon class="st0" points="240.2,98.6 235.7,103 229.7,100.4 224.5,98.1 225.3,96.3 225.3,96.3 228.3,93.4 	"/>
	<polygon class="st1" points="235.6,133.6 228.4,149.9 225.9,155.5 225.5,156.2 224.8,157.8 218.8,155.1 219.5,153.5 229.6,130.9 	
		"/>
	<polygon class="st2" points="230.2,180.3 225.7,179.8 225.7,179.8 226.3,178.5 	"/>
	<polygon class="st2" points="230.2,206.6 225.9,206.3 226.5,204.9 226.5,204.9 	"/>
	<polygon class="st2" points="229.7,71.8 223.7,70.6 224.3,69.4 	"/>
	<polygon class="st2" points="229.7,100.4 223.8,99.4 224.4,98.1 224.5,98.1 	"/>
	<polygon class="st2" points="228.7,156.8 225.5,156.2 225.9,155.5 	"/>
	<polygon class="st0" points="228.4,149.9 239.2,154.8 234.7,159.5 228.7,156.8 225.9,155.5 	"/>
	<polygon class="st0" points="224.9,68.2 224.9,68.2 228.3,64.9 240.2,69.9 235.7,74.3 229.7,71.8 224.3,69.4 	"/>
	<polygon class="st0" points="224.9,127.1 228.2,123.7 240.1,129 235.6,133.6 229.6,130.9 224.2,128.5 	"/>
	<polygon class="st0" points="224.8,157.8 220.2,162.6 208.2,157.1 212.9,152.3 218.8,155.1 	"/>
	<polygon class="st0" points="224.8,181.9 220.2,186.8 208.2,181.1 212.9,176.2 218.8,179 	"/>
	<polygon class="st0" points="224.8,208.6 220.2,213.6 208.2,207.8 212.9,202.8 218.8,205.7 	"/>
	<polygon class="st2" points="224.2,128.5 229.6,130.9 223.7,129.7 	"/>
	<polygon class="st0" points="223.1,131 218.5,135.7 206.5,130.2 211.1,125.6 217.1,128.3 	"/>
	<polygon class="st0" points="223.1,71.9 218.5,76.3 206.5,71.2 211.1,66.8 217.1,69.3 	"/>
	<polygon class="st0" points="223.1,101 218.5,105.5 206.5,100.2 211.1,95.7 217.1,98.3 	"/>
	<polygon class="st1" points="219.8,203.4 230.2,180.3 236.2,183.1 229.1,199.1 226.5,204.9 225.9,206.3 224.8,208.6 218.8,205.7 	
		"/>
	<polygon class="st2" points="219.8,203.4 218.8,205.7 212.9,202.8 	"/>
	<polygon class="st1" points="219.7,177 228.7,156.8 234.7,159.5 228.8,172.8 226.3,178.5 225.7,179.8 224.8,181.9 218.8,179 	"/>
	<polygon class="st2" points="219.7,177 218.8,179 212.9,176.2 	"/>
	<polygon class="st2" points="212.9,152.3 219.5,153.5 218.8,155.1 	"/>
	<polygon class="st2" points="217.8,96.8 217.1,98.3 211.1,95.7 	"/>
	<polygon class="st1" points="217.8,96.8 229.7,71.8 235.7,74.3 225.3,96.3 225.3,96.3 224.5,98.1 224.4,98.1 223.8,99.4 223.1,101 
		217.1,98.3 	"/>
	<polygon class="st2" points="217.7,68.1 217.1,69.3 211.1,66.8 	"/>
	<polygon class="st1" points="217.7,127 229.7,100.4 235.7,103 224.9,127.1 224.2,128.5 223.7,129.7 223.1,131 217.1,128.3 
		217.7,127 	"/>
	<polygon class="st2" points="217.7,127 217.1,128.3 211.1,125.6 	"/>
	<polygon class="st0" points="240.2,41.3 235.7,45.5 229.7,43.1 223.8,40.6 228.3,36.5 	"/>
	<polygon class="st1" points="217.7,68.1 229.7,43.1 235.7,45.5 224.9,68.2 224.9,68.2 224.3,69.4 223.7,70.6 223.1,71.9 
		217.1,69.3 	"/>
	<line class="st3" x1="225.3" y1="96.3" x2="228.3" y2="93.4"/>
	<line class="st3" x1="211.1" y1="125.6" x2="217.1" y2="128.3"/>
	<line class="st3" x1="240.2" y1="98.5" x2="235.7" y2="103"/>
	<line class="st3" x1="217.7" y1="127" x2="217.1" y2="128.3"/>
	<line class="st3" x1="229.7" y1="100.4" x2="217.7" y2="127"/>
	<line class="st3" x1="235.7" y1="103" x2="229.7" y2="100.4"/>
	<polyline class="st3" points="223.1,131 223.7,129.7 224.2,128.5 224.9,127.1 235.7,103 	"/>
	<line class="st3" x1="223.1" y1="131" x2="217.1" y2="128.3"/>
	<line class="st3" x1="206.5" y1="130.2" x2="211.1" y2="125.6"/>
	<line class="st3" x1="218.5" y1="135.7" x2="206.5" y2="130.2"/>
	<line class="st3" x1="223.1" y1="131" x2="218.5" y2="135.7"/>
	<line class="st3" x1="206.5" y1="100.2" x2="211.1" y2="95.7"/>
	<line class="st3" x1="218.5" y1="105.5" x2="206.5" y2="100.2"/>
	<line class="st3" x1="223.1" y1="101" x2="218.5" y2="105.5"/>
	<polyline class="st3" points="229.7,43.1 217.7,68.1 217.1,69.3 	"/>
	<line class="st3" x1="224.9" y1="68.2" x2="235.7" y2="45.5"/>
	<polyline class="st3" points="223.1,71.9 223.7,70.6 224.3,69.4 224.9,68.2 	"/>
	<line class="st3" x1="228.3" y1="36.4" x2="240.2" y2="41.3"/>
	<line class="st3" x1="223.8" y1="40.6" x2="228.3" y2="36.4"/>
	<line class="st3" x1="229.7" y1="43.1" x2="223.8" y2="40.6"/>
	<line class="st3" x1="235.7" y1="45.5" x2="229.7" y2="43.1"/>
	<line class="st3" x1="240.2" y1="41.3" x2="235.7" y2="45.5"/>
	<line class="st3" x1="217.1" y1="69.3" x2="223.1" y2="71.9"/>
	<line class="st3" x1="206.5" y1="71.2" x2="211.1" y2="66.8"/>
	<line class="st3" x1="218.5" y1="76.3" x2="206.5" y2="71.2"/>
	<line class="st3" x1="223.1" y1="71.9" x2="218.5" y2="76.3"/>
	<polyline class="st3" points="229.7,71.8 217.8,96.8 217.1,98.3 	"/>
	<polyline class="st3" points="224.5,98.1 225.3,96.3 225.3,96.3 235.7,74.3 	"/>
	<polyline class="st3" points="223.1,101 223.8,99.4 224.4,98.1 	"/>
	<line class="st3" x1="223.1" y1="101" x2="217.1" y2="98.3"/>
	<line class="st3" x1="217.7" y1="68.1" x2="211.1" y2="66.8"/>
	<line class="st3" x1="223.7" y1="129.7" x2="229.6" y2="130.9"/>
	<line class="st3" x1="223.7" y1="70.6" x2="229.7" y2="71.7"/>
	<line class="st3" x1="229.6" y1="130.9" x2="224.2" y2="128.5"/>
	<line class="st3" x1="211.1" y1="66.8" x2="217.1" y2="69.3"/>
	<line class="st3" x1="235.7" y1="74.3" x2="229.7" y2="71.7"/>
	<polyline class="st3" points="217.7,127 217.7,127 211.1,125.6 	"/>
	<line class="st3" x1="229.7" y1="71.7" x2="224.3" y2="69.4"/>
	<polyline class="st3" points="230.2,180.3 219.8,203.4 218.8,205.7 	"/>
	<polyline class="st3" points="228.3,64.9 224.9,68.2 224.9,68.2 	"/>
	<line class="st3" x1="240.2" y1="69.9" x2="228.3" y2="64.9"/>
	<line class="st3" x1="235.7" y1="74.3" x2="240.2" y2="69.9"/>
	<line class="st3" x1="217.8" y1="96.8" x2="211.1" y2="95.7"/>
	<line class="st3" x1="218.8" y1="205.7" x2="224.8" y2="208.6"/>
	<polyline class="st3" points="224.8,208.6 225.9,206.3 226.5,204.9 229.1,199.1 236.2,183.1 	"/>
	<polyline class="st3" points="229.7,100.4 224.5,98.1 224.4,98.1 	"/>
	<line class="st3" x1="223.8" y1="99.4" x2="229.7" y2="100.4"/>
	<line class="st3" x1="236.2" y1="183.1" x2="230.2" y2="180.3"/>
	<line class="st3" x1="211.1" y1="95.7" x2="217.1" y2="98.3"/>
	<line class="st3" x1="220.2" y1="162.6" x2="224.8" y2="157.8"/>
	<line class="st3" x1="208.2" y1="157.1" x2="220.2" y2="162.6"/>
	<line class="st3" x1="212.9" y1="152.3" x2="208.2" y2="157.1"/>
	<line class="st3" x1="224.8" y1="157.8" x2="218.8" y2="155.1"/>
	<polyline class="st3" points="229.6,130.9 219.5,153.5 218.8,155.1 	"/>
	<polyline class="st3" points="224.8,157.8 225.5,156.2 225.9,155.5 228.4,149.9 235.6,133.6 	"/>
	<line class="st3" x1="228.2" y1="123.7" x2="240.1" y2="129"/>
	<line class="st3" x1="224.9" y1="127" x2="228.2" y2="123.7"/>
	<line class="st3" x1="212.9" y1="202.8" x2="208.2" y2="207.8"/>
	<line class="st3" x1="235.6" y1="133.6" x2="229.6" y2="130.9"/>
	<line class="st3" x1="240.1" y1="129" x2="235.6" y2="133.6"/>
	<polyline class="st3" points="218.8,179 219.7,177 228.7,156.8 	"/>
	<polyline class="st3" points="234.7,159.5 228.8,172.8 226.3,178.5 225.7,179.8 224.8,181.9 	"/>
	<line class="st3" x1="228.7" y1="156.8" x2="234.7" y2="159.5"/>
	<line class="st3" x1="239.2" y1="154.8" x2="234.7" y2="159.5"/>
	<line class="st3" x1="228.4" y1="149.9" x2="239.2" y2="154.8"/>
	<line class="st3" x1="208.2" y1="207.8" x2="220.2" y2="213.6"/>
	<line class="st3" x1="220.2" y1="213.6" x2="224.8" y2="208.6"/>
	<line class="st3" x1="212.9" y1="152.3" x2="218.8" y2="155.1"/>
	<line class="st3" x1="219.5" y1="153.5" x2="212.9" y2="152.3"/>
	<line class="st3" x1="212.9" y1="202.8" x2="218.8" y2="205.7"/>
	<line class="st3" x1="225.9" y1="155.5" x2="228.7" y2="156.8"/>
	<line class="st3" x1="219.8" y1="203.4" x2="212.9" y2="202.8"/>
	<line class="st3" x1="225.5" y1="156.2" x2="228.7" y2="156.8"/>
	<line class="st3" x1="225.9" y1="206.3" x2="230.2" y2="206.6"/>
	<line class="st3" x1="228.8" y1="172.8" x2="240.7" y2="178.3"/>
	<line class="st3" x1="230.2" y1="206.6" x2="226.5" y2="204.9"/>
	<line class="st3" x1="230.2" y1="206.6" x2="236.2" y2="209.5"/>
	<line class="st3" x1="240.7" y1="178.3" x2="236.2" y2="183.1"/>
	<line class="st3" x1="236.2" y1="209.5" x2="240.7" y2="204.6"/>
	<line class="st3" x1="230.2" y1="180.3" x2="226.3" y2="178.5"/>
	<line class="st3" x1="240.7" y1="204.6" x2="229.1" y2="199.1"/>
	<line class="st3" x1="212.9" y1="176.2" x2="219.7" y2="177"/>
	<line class="st3" x1="224.8" y1="181.9" x2="220.2" y2="186.8"/>
	<line class="st3" x1="230.2" y1="180.3" x2="225.7" y2="179.8"/>
	<line class="st3" x1="224.8" y1="181.9" x2="218.8" y2="179"/>
	<line class="st3" x1="212.9" y1="176.2" x2="218.8" y2="179"/>
	<line class="st3" x1="208.2" y1="181.1" x2="212.9" y2="176.2"/>
	<line class="st3" x1="220.2" y1="186.8" x2="208.2" y2="181.1"/>
	<line class="st3" x1="228.3" y1="93.4" x2="240.2" y2="98.5"/>
</g>
<g id="Make2D::hidden::lines::Stair">
	<line class="st4" x1="229.1" y1="199.1" x2="228.8" y2="198.9"/>
	<line class="st4" x1="219.7" y1="177" x2="224.3" y2="177.5"/>
	<line class="st4" x1="226.3" y1="178.5" x2="224.3" y2="177.5"/>
	<line class="st4" x1="224.3" y1="177.5" x2="228.8" y2="172.8"/>
	<line class="st4" x1="228.8" y1="198.9" x2="224.3" y2="203.8"/>
	<line class="st4" x1="226.5" y1="204.9" x2="224.3" y2="203.8"/>
	<line class="st4" x1="228.8" y1="172.8" x2="228.8" y2="172.8"/>
	<line class="st4" x1="218.8" y1="155.1" x2="225.5" y2="156.2"/>
	<line class="st4" x1="218.8" y1="205.7" x2="225.8" y2="206.3"/>
	<line class="st4" x1="222.8" y1="154.1" x2="225.9" y2="155.5"/>
	<line class="st4" x1="224.3" y1="203.8" x2="219.8" y2="203.4"/>
	<line class="st4" x1="222.8" y1="154.1" x2="219.5" y2="153.5"/>
	<line class="st4" x1="222.8" y1="154.1" x2="227.3" y2="149.4"/>
	<line class="st4" x1="227.3" y1="149.4" x2="228.4" y2="149.9"/>
	<line class="st4" x1="223.7" y1="128.3" x2="224.9" y2="127"/>
	<line class="st4" x1="217.1" y1="98.3" x2="223.8" y2="99.4"/>
	<line class="st4" x1="224.4" y1="98.1" x2="223.8" y2="97.8"/>
	<line class="st4" x1="223.8" y1="97.8" x2="217.8" y2="96.8"/>
	<line class="st4" x1="224.9" y1="68.2" x2="223.8" y2="69.2"/>
	<line class="st4" x1="224.3" y1="69.4" x2="223.8" y2="69.2"/>
	<line class="st4" x1="223.7" y1="128.3" x2="217.7" y2="127"/>
	<line class="st4" x1="224.2" y1="128.5" x2="223.7" y2="128.3"/>
	<line class="st4" x1="217.1" y1="69.3" x2="223.7" y2="70.6"/>
	<line class="st4" x1="223.8" y1="69.2" x2="217.7" y2="68.1"/>
	<line class="st4" x1="217.1" y1="128.3" x2="223.7" y2="129.7"/>
	<line class="st4" x1="223.8" y1="97.8" x2="225.3" y2="96.3"/>
	<line class="st4" x1="225.7" y1="179.8" x2="218.8" y2="179.1"/>
</g>
<g id="Make2D::visible::lines::Stair_Atruim">
	<polygon class="st5" points="397.1,289.3 397.1,296.8 371,318.2 371,310.5 	"/>
	<polygon class="st5" points="391.9,173.4 391.9,180.7 386.8,187.2 365,202.5 359.7,209 359.7,201.4 360.5,200.4 365,194.9 
		380.3,184.3 386.8,179.8 387.5,178.8 	"/>
	<polygon class="st6" points="391.9,173.4 387.5,178.8 382.7,176.7 377.5,176.7 377.5,175.7 367.5,175.8 370.8,169.5 382.7,169.3 	
		"/>
	<polygon class="st6" points="391.9,220.8 387.7,226.2 382.7,223.9 377.5,224.1 377.5,223.2 355.5,223.9 348.4,220.6 348.4,213.4 
		357.3,217.5 382.7,216.6 	"/>
	<polygon class="st6" points="391.7,117.7 387.1,123.2 373.4,117.4 373.4,110.1 	"/>
	<polygon class="st6" points="391.7,147.2 387.2,152.7 373.4,146.7 373.4,139.4 	"/>
	<polygon class="st7" points="386.8,227.4 380.9,232.2 377.5,230.6 382.7,223.9 387.7,226.2 	"/>
	<polygon class="st7" points="382.7,176.7 387.5,178.8 386.8,179.8 380.3,184.3 377.5,183.1 	"/>
	<polygon class="st7" points="382.7,176.7 377.5,183.1 377.5,176.7 	"/>
	<polygon class="st7" points="382.7,223.9 377.5,230.6 377.5,224.1 	"/>
	<polygon class="st7" points="380.9,232.2 359.7,249.4 355.4,254.9 350.3,252.5 377.5,230.6 	"/>
	<polygon class="st7" points="373.4,146.7 387.2,152.7 386.8,153.3 379,157.3 377.5,156.7 377.5,149.3 369.7,153.3 368.4,152.7 	"/>
	<polygon class="st7" points="373.4,117.4 387.1,123.2 386.8,123.6 378.5,127.5 377.5,127.1 377.5,119.7 369.2,123.6 368.4,123.2 	
		"/>
	<polygon class="st5" points="377.5,224.1 377.5,230.6 350.3,252.5 350.3,244.9 367.9,230.9 377.5,223.2 	"/>
	<polygon class="st5" points="377.3,176.9 377.3,183.2 355.4,198.4 361.6,186.5 366.4,183.3 377.3,175.8 	"/>
	<polygon class="st5" points="377.5,149.3 377.5,156.7 372.2,159.4 	"/>
	<polygon class="st5" points="377.5,119.7 377.5,127.1 372.2,129.7 	"/>
	<polygon class="st5" points="377.5,119.7 372.2,129.7 355.8,137.5 350.3,143.8 350.3,136.2 355.8,129.9 362.4,126.8 367.8,124.3 
		369.2,123.6 	"/>
	<polygon class="st5" points="377.5,175.7 366.6,183.2 363.6,183.2 367.5,175.8 	"/>
	<polygon class="st5" points="377.5,223.2 367.9,230.9 352,231.4 352,224.1 355.5,223.9 	"/>
	<polygon class="st5" points="376.4,320.9 380.5,315.2 406.5,293.8 406.5,301.3 380.5,322.9 375.1,330.5 375.1,322.7 	"/>
	<polygon class="st6" points="313.9,277.7 318.7,280.1 322.4,283 365.5,318 369.6,320 375.1,322.7 375.1,330.5 365.5,325.7 
		318.7,287.7 309.5,283.1 309.5,275.6 	"/>
	<polygon class="st5" points="373.4,139.4 373.4,146.7 368.4,152.7 367.5,154.4 367.5,154.4 362,157.1 368.4,145.4 	"/>
	<polygon class="st5" points="373.4,110.1 373.4,117.4 368.4,123.2 367.8,124.3 362.4,126.8 368.4,115.9 	"/>
	<polygon class="st5" points="372.2,159.4 355.6,168 361.2,157.6 362,157.1 367.5,154.4 367.5,154.4 369.7,153.3 377.5,149.3 	"/>
	<polygon class="st5" points="371.5,138.4 361.2,157.6 355.6,160.4 366,141.1 	"/>
	<polygon class="st7" points="371,318.2 376.4,320.9 375.1,322.7 369.6,320 	"/>
	<polygon class="st7" points="371,318.2 369.6,320 365.5,318 322.4,283 324.4,280.5 	"/>
	<polygon class="st5" points="365.6,171.8 371.1,168.9 371.1,168.9 370.8,169.5 367.5,175.8 363.6,183.2 361.9,186.4 355.6,190.7 	
		"/>
	<polygon class="st5" points="369.7,153.3 367.5,154.4 368.4,152.7 	"/>
	<polygon class="st7" points="368.4,123.2 369.2,123.6 367.8,124.3 	"/>
	<polygon class="st7" points="378.5,127.5 365.2,133.9 360.4,139.5 355.8,137.5 372.2,129.7 377.5,127.1 	"/>
	<polygon class="st7" points="379,157.3 365,164.5 360.4,170.1 355.6,168 372.2,159.4 377.5,156.7 	"/>
	<polygon class="st7" points="380.3,184.3 365,194.9 360.5,200.4 355.6,198.2 377.5,183.1 	"/>
	<polygon class="st5" points="361.9,186.4 355.6,198.2 355.6,190.7 	"/>
	<polygon class="st7" points="365.2,141.5 366,141.1 355.6,160.4 355.6,168 346.3,163.9 355.9,146.2 359.7,147.9 	"/>
	<polygon class="st7" points="365,172.1 365.6,171.8 355.6,190.7 355.6,198.2 346.3,194 355.6,176.6 359.7,178.4 	"/>
	<polygon class="st5" points="361.2,157.6 355.6,168 355.6,160.4 	"/>
	<polygon class="st5" points="360.4,139.5 365.2,133.9 378.5,127.5 386.8,123.6 387.1,123.2 391.7,117.7 391.7,125.1 386.8,131 
		371.5,138.4 366,141.1 365.2,141.5 359.7,147.9 359.7,140.3 	"/>
	<polygon class="st7" points="360.4,139.5 359.7,140.3 359.7,147.9 355.9,146.2 352.6,144.8 350.3,143.8 355.8,137.5 	"/>
	<polygon class="st5" points="360.4,170.1 365,164.5 379,157.3 386.8,153.3 387.2,152.7 391.7,147.2 391.7,154.6 386.8,160.7 
		371.1,168.9 365.6,171.8 365,172.1 359.7,178.4 359.7,170.8 	"/>
	<polygon class="st6" points="359.7,201.4 359.7,209 341.4,200.6 341,200.4 341,193.9 341,192.9 345.6,194.9 	"/>
	<polygon class="st6" points="345.7,164.6 359.7,170.8 359.7,178.4 355.6,176.6 352.4,175.2 348.1,173.3 343.6,171.3 341,170.1 
		341,162.5 	"/>
	<polygon class="st5" points="355.9,146.2 346.3,163.9 345.7,164.6 341,162.5 346.3,156.3 352.6,144.8 	"/>
	<polygon class="st5" points="355.6,176.6 346.3,194 345.6,194.9 341,192.9 343.4,190 346.3,186.5 351.4,177 351.5,176.9 
		352.4,175.2 	"/>
	<polygon class="st5" points="355.4,254.9 359.7,249.4 380.9,232.2 386.8,227.4 387.7,226.2 391.9,220.8 391.9,228.1 386.8,234.9 
		359.7,257 354.2,264.1 354.2,256.4 	"/>
	<polygon class="st6" points="354.2,256.4 354.2,264.1 344.8,259.6 339.1,254.3 336.4,251.8 331.6,247.3 328.8,244.7 318.7,235.2 
		309.5,230.9 309.5,223.3 314.1,225.4 318.7,227.6 322.2,230.9 344.8,251.9 349.2,254 	"/>
	<polygon class="st7" points="348.4,220.6 355.5,223.9 352,224.1 348.8,229.8 343.1,227.2 	"/>
	<polygon class="st5" points="352,224.1 352,231.4 346.4,241.3 343.7,238.8 348.8,229.8 	"/>
	<polygon class="st5" points="351.4,177 346.3,186.5 343.4,190 348.5,181.7 	"/>
	<polygon class="st7" points="350.3,252.5 355.4,254.9 354.2,256.4 349.2,254 	"/>
	<polygon class="st7" points="350.3,252.5 349.2,254 344.8,251.9 322.2,230.9 324.4,228.4 	"/>
	<polygon class="st7" points="348.8,229.8 343.7,238.8 339,234.4 343.1,227.2 	"/>
	<polygon class="st5" points="348.4,213.4 348.4,220.6 343.1,227.2 339,234.4 336.2,231.8 343.1,219.9 	"/>
	<polygon class="st5" points="348.1,173.3 343.1,179.3 315.2,224.1 314.1,225.4 309.5,223.3 315.2,216.6 343.1,172 343.6,171.3 	"/>
	<polygon class="st7" points="355.6,168 360.4,170.1 359.7,170.8 345.7,164.6 346.3,163.9 	"/>
	<polygon class="st7" points="355.6,198.2 360.5,200.4 359.7,201.4 345.6,194.9 346.3,194 	"/>
	<polygon class="st5" points="341,200.4 341.4,200.6 327.3,223.6 324.4,220.8 341,193.9 	"/>
	<polygon class="st5" points="339.1,254.3 327.3,275.3 324.4,273 336.4,251.8 	"/>
	<polygon class="st7" points="331.6,247.3 336.4,251.8 324.4,273 324.4,280.5 315.2,276 	"/>
	<polygon class="st5" points="328.8,244.7 331.6,247.3 315.2,276 313.9,277.7 309.5,275.6 315.2,268.5 	"/>
	<polygon class="st5" points="327.3,223.6 336.2,231.8 339,234.4 343.7,238.8 346.4,241.3 350.3,244.9 350.3,252.5 324.4,228.4 
		324.4,220.8 	"/>
	<polygon class="st6" points="327.3,275.3 371,310.5 371,318.2 324.4,280.5 324.4,273 327.3,275.3 	"/>
	<polygon class="st7" points="315.2,224.1 324.4,228.4 322.2,230.9 318.7,227.6 314.1,225.4 	"/>
	<polygon class="st7" points="315.2,276 324.4,280.5 322.4,283 318.7,280.1 313.9,277.7 	"/>
	<polygon class="st7" points="352.4,175.2 351.5,176.9 351.4,177 348.5,181.7 343.1,179.3 348.1,173.3 	"/>
	<polygon class="st7" points="341,192.9 341,193.9 324.4,220.8 324.4,228.4 315.2,224.1 343.1,179.3 348.5,181.7 343.4,190 	"/>
	<polyline class="st8" points="386.8,160.7 371.1,168.9 365.6,171.8 365,172.1 	"/>
	<line class="st8" x1="355.6" y1="190.7" x2="365.6" y2="171.8"/>
	<line class="st8" x1="355.6" y1="198.2" x2="355.6" y2="190.7"/>
	<polyline class="st8" points="371.1,168.9 370.9,169.2 368.9,173 366.6,177.4 365.6,179.3 361.9,186.4 	"/>
	<line class="st8" x1="366" y1="141.1" x2="355.6" y2="160.4"/>
	<line class="st8" x1="377.5" y1="127.1" x2="377.5" y2="119.7"/>
	<line class="st8" x1="373.4" y1="117.4" x2="387.1" y2="123.2"/>
	<polyline class="st8" points="361.2,157.6 364.8,150.8 371.5,138.4 	"/>
	<line class="st8" x1="355.6" y1="160.4" x2="355.6" y2="168"/>
	<line class="st8" x1="373.4" y1="110.1" x2="391.7" y2="117.7"/>
	<line class="st8" x1="377.5" y1="156.7" x2="377.5" y2="149.3"/>
	<polyline class="st8" points="355.6,168 372.2,159.4 377.5,156.7 	"/>
	<polyline class="st8" points="359.7,201.4 345.6,194.9 341,192.9 	"/>
	<polyline class="st8" points="341,200.4 341,193.9 341,192.9 	"/>
	<polyline class="st8" points="359.7,209 341.4,200.6 341,200.4 	"/>
	<line class="st8" x1="368.4" y1="152.7" x2="373.4" y2="146.7"/>
	<line class="st8" x1="373.4" y1="117.4" x2="373.4" y2="110.1"/>
	<line class="st8" x1="373.4" y1="146.7" x2="373.4" y2="139.4"/>
	<line class="st8" x1="373.4" y1="139.4" x2="391.7" y2="147.2"/>
	<polyline class="st8" points="355.8,137.5 372.2,129.7 377.5,127.1 	"/>
	<line class="st8" x1="373.4" y1="146.7" x2="387.2" y2="152.7"/>
	<polyline class="st8" points="386.8,131 371.5,138.4 366,141.1 365.2,141.5 	"/>
	<polyline class="st8" points="359.7,170.8 345.7,164.6 341,162.5 	"/>
	<line class="st8" x1="348.4" y1="220.6" x2="348.4" y2="213.4"/>
	<polyline class="st8" points="359.7,178.4 355.6,176.6 352.4,175.2 348.1,173.3 343.6,171.3 341,170.1 	"/>
	<line class="st8" x1="391.7" y1="125.1" x2="386.8" y2="131"/>
	<line class="st8" x1="391.7" y1="117.7" x2="391.7" y2="125.1"/>
	<polyline class="st8" points="386.8,123.6 387.1,123.2 391.7,117.7 	"/>
	<polyline class="st8" points="365.2,133.9 378.5,127.5 386.8,123.6 	"/>
	<polyline class="st8" points="359.7,140.3 360.4,139.5 365.2,133.9 	"/>
	<line class="st8" x1="359.7" y1="147.9" x2="359.7" y2="140.3"/>
	<line class="st8" x1="365.2" y1="141.5" x2="359.7" y2="147.9"/>
	<line class="st8" x1="359.7" y1="209" x2="365" y2="202.5"/>
	<line class="st8" x1="359.7" y1="201.4" x2="359.7" y2="209"/>
	<polyline class="st8" points="365,194.9 360.5,200.4 359.7,201.4 	"/>
	<polyline class="st8" points="386.8,179.8 380.3,184.3 365,194.9 	"/>
	<polyline class="st8" points="391.9,173.4 387.5,178.8 386.8,179.8 	"/>
	<line class="st8" x1="386.8" y1="187.2" x2="391.9" y2="180.7"/>
	<line class="st8" x1="391.7" y1="147.2" x2="391.7" y2="154.6"/>
	<polyline class="st8" points="386.8,153.3 387.2,152.7 391.7,147.2 	"/>
	<polyline class="st8" points="365,164.5 379,157.3 386.8,153.3 	"/>
	<polyline class="st8" points="359.7,170.8 360.4,170.1 365,164.5 	"/>
	<line class="st8" x1="359.7" y1="178.4" x2="359.7" y2="170.8"/>
	<line class="st8" x1="365" y1="172.1" x2="359.7" y2="178.4"/>
	<line class="st8" x1="391.7" y1="154.6" x2="386.8" y2="160.7"/>
	<line class="st8" x1="391.9" y1="220.8" x2="391.9" y2="228.1"/>
	<polyline class="st8" points="386.8,227.4 387.7,226.2 391.9,220.8 	"/>
	<polyline class="st8" points="359.7,249.4 380.9,232.2 386.8,227.4 	"/>
	<polyline class="st8" points="354.2,256.4 355.4,254.9 359.7,249.4 	"/>
	<line class="st8" x1="406.5" y1="293.8" x2="406.5" y2="301.3"/>
	<line class="st8" x1="380.5" y1="315.2" x2="406.5" y2="293.8"/>
	<polyline class="st8" points="375.1,322.7 376.4,320.9 380.5,315.2 	"/>
	<line class="st8" x1="309.5" y1="283.1" x2="318.7" y2="287.7"/>
	<polyline class="st8" points="318.7,280.1 313.9,277.7 309.5,275.6 	"/>
	<polyline class="st8" points="365.5,318 322.4,283 318.7,280.1 	"/>
	<polyline class="st8" points="375.1,322.7 369.6,320 365.5,318 	"/>
	<line class="st8" x1="375.1" y1="330.5" x2="375.1" y2="322.7"/>
	<line class="st8" x1="365.5" y1="325.7" x2="375.1" y2="330.5"/>
	<polyline class="st8" points="359.7,147.9 355.9,146.2 352.6,144.8 350.3,143.8 	"/>
	<line class="st8" x1="355.8" y1="137.5" x2="350.3" y2="143.8"/>
	<line class="st8" x1="343.1" y1="227.2" x2="348.4" y2="220.6"/>
	<line class="st8" x1="348.4" y1="213.4" x2="343.1" y2="219.9"/>
	<line class="st8" x1="343.1" y1="219.9" x2="336.2" y2="231.8"/>
	<line class="st8" x1="363.6" y1="183.2" x2="366.6" y2="183.2"/>
	<polyline class="st8" points="377.5,183.1 377.5,176.7 377.5,175.7 	"/>
	<polyline class="st8" points="377.5,175.7 367.5,175.8 367.5,175.8 	"/>
	<line class="st8" x1="377.5" y1="183.1" x2="355.6" y2="198.2"/>
	<polyline class="st8" points="355.6,190.7 361.9,186.4 366.6,183.2 377.5,175.7 	"/>
	<line class="st8" x1="382.7" y1="176.7" x2="377.5" y2="176.7"/>
	<line class="st8" x1="365" y1="202.5" x2="386.8" y2="187.2"/>
	<line class="st8" x1="345.6" y1="194.9" x2="346.3" y2="194"/>
	<line class="st8" x1="328.8" y1="244.7" x2="315.2" y2="268.5"/>
	<line class="st8" x1="382.7" y1="176.7" x2="387.5" y2="178.8"/>
	<line class="st8" x1="315.2" y1="268.5" x2="309.5" y2="275.6"/>
	<line class="st8" x1="309.5" y1="275.6" x2="309.5" y2="283.1"/>
	<line class="st8" x1="327.3" y1="223.6" x2="341.4" y2="200.6"/>
	<polyline class="st8" points="351.4,177 348.5,181.7 343.4,190 	"/>
	<line class="st8" x1="341" y1="193.9" x2="324.4" y2="220.8"/>
	<polyline class="st8" points="313.9,277.7 313.9,277.7 315.2,276 	"/>
	<line class="st8" x1="343.1" y1="227.2" x2="339" y2="234.4"/>
	<line class="st8" x1="324.4" y1="220.8" x2="324.4" y2="228.4"/>
	<line class="st8" x1="331.6" y1="247.3" x2="315.2" y2="276"/>
	<line class="st8" x1="354.2" y1="264.1" x2="344.8" y2="259.6"/>
	<polyline class="st8" points="344.8,259.6 339.1,254.3 336.4,251.8 331.6,247.3 328.8,244.7 318.7,235.2 	"/>
	<line class="st8" x1="309.5" y1="230.9" x2="318.7" y2="235.2"/>
	<line class="st8" x1="309.5" y1="230.9" x2="309.5" y2="223.3"/>
	<polyline class="st8" points="309.5,223.3 314.1,225.4 318.7,227.6 	"/>
	<polyline class="st8" points="318.7,227.6 322.2,230.9 344.8,251.9 	"/>
	<line class="st8" x1="343.1" y1="179.3" x2="348.1" y2="173.3"/>
	<polyline class="st8" points="344.8,251.9 349.2,254 354.2,256.4 	"/>
	<line class="st8" x1="354.2" y1="264.1" x2="354.2" y2="256.4"/>
	<line class="st8" x1="350.3" y1="252.5" x2="377.5" y2="230.6"/>
	<polyline class="st8" points="377.5,230.6 377.5,224.1 377.5,223.2 	"/>
	<polyline class="st8" points="377.5,223.2 367.9,230.9 350.3,244.9 	"/>
	<line class="st8" x1="350.3" y1="252.5" x2="350.3" y2="244.9"/>
	<line class="st8" x1="352" y1="231.4" x2="367.9" y2="230.9"/>
	<polyline class="st8" points="377.5,223.2 355.5,223.9 352,224.1 	"/>
	<line class="st8" x1="352" y1="231.4" x2="352" y2="224.1"/>
	<line class="st8" x1="382.7" y1="223.9" x2="377.5" y2="224.1"/>
	<line class="st8" x1="386.8" y1="234.9" x2="359.7" y2="257"/>
	<line class="st8" x1="382.7" y1="223.9" x2="387.7" y2="226.2"/>
	<line class="st8" x1="391.9" y1="228.1" x2="386.8" y2="234.9"/>
	<line class="st8" x1="327.3" y1="275.3" x2="339.1" y2="254.3"/>
	<line class="st8" x1="346.4" y1="241.3" x2="352" y2="231.4"/>
	<polyline class="st8" points="352,224.1 348.8,229.8 343.7,238.8 	"/>
	<line class="st8" x1="336.4" y1="251.8" x2="324.4" y2="273"/>
	<line class="st8" x1="324.4" y1="280.5" x2="324.4" y2="273"/>
	<line class="st8" x1="371" y1="318.2" x2="324.4" y2="280.5"/>
	<polyline class="st8" points="324.4,273 327.3,275.3 327.3,275.3 371,310.5 	"/>
	<line class="st8" x1="371" y1="310.5" x2="371" y2="318.2"/>
	<line class="st8" x1="371" y1="318.2" x2="397.1" y2="296.8"/>
	<line class="st8" x1="397.1" y1="296.8" x2="397.1" y2="289.3"/>
	<line class="st8" x1="397.1" y1="289.3" x2="371" y2="310.5"/>
	<line class="st8" x1="318.7" y1="287.7" x2="365.5" y2="325.7"/>
	<line class="st8" x1="406.5" y1="301.3" x2="380.5" y2="322.9"/>
	<line class="st8" x1="380.5" y1="322.9" x2="375.1" y2="330.5"/>
	<line class="st8" x1="324.4" y1="228.4" x2="350.3" y2="252.5"/>
	<polyline class="st8" points="350.3,244.9 346.4,241.3 343.7,238.8 339,234.4 336.2,231.8 327.3,223.6 324.4,220.8 	"/>
	<line class="st8" x1="359.7" y1="257" x2="354.2" y2="264.1"/>
	<line class="st8" x1="346.3" y1="194" x2="355.6" y2="176.6"/>
	<line class="st8" x1="367.5" y1="154.4" x2="368.4" y2="152.7"/>
	<line class="st8" x1="373.4" y1="139.4" x2="368.4" y2="145.4"/>
	<line class="st8" x1="368.4" y1="145.4" x2="362" y2="157.1"/>
	<polyline class="st8" points="352.4,175.2 351.5,176.9 351.4,177 346.3,186.5 	"/>
	<polyline class="st8" points="346.3,186.5 343.4,190 341,192.9 	"/>
	<line class="st8" x1="368.4" y1="123.2" x2="373.4" y2="117.4"/>
	<line class="st8" x1="368.4" y1="123.2" x2="367.8" y2="124.3"/>
	<line class="st8" x1="355.9" y1="146.2" x2="346.3" y2="163.9"/>
	<polyline class="st8" points="346.3,163.9 345.7,164.6 345.7,164.6 	"/>
	<line class="st8" x1="341" y1="162.5" x2="346.3" y2="156.3"/>
	<line class="st8" x1="346.3" y1="156.3" x2="352.6" y2="144.8"/>
	<line class="st8" x1="362.4" y1="126.8" x2="368.4" y2="115.9"/>
	<line class="st8" x1="368.4" y1="115.9" x2="373.4" y2="110.1"/>
	<polyline class="st8" points="377.5,119.7 369.2,123.6 367.8,124.3 362.4,126.8 355.8,129.9 	"/>
	<line class="st8" x1="355.8" y1="129.9" x2="350.3" y2="136.2"/>
	<line class="st8" x1="350.3" y1="136.2" x2="350.3" y2="143.8"/>
	<line class="st8" x1="370.8" y1="169.5" x2="382.7" y2="169.3"/>
	<line class="st8" x1="382.7" y1="169.3" x2="391.9" y2="173.4"/>
	<line class="st8" x1="391.9" y1="180.7" x2="391.9" y2="173.4"/>
	<line class="st8" x1="343.1" y1="179.3" x2="315.2" y2="224.1"/>
	<line class="st8" x1="315.2" y1="224.1" x2="314.1" y2="225.4"/>
	<line class="st8" x1="309.5" y1="223.3" x2="315.2" y2="216.6"/>
	<line class="st8" x1="315.2" y1="216.6" x2="343.1" y2="172"/>
	<polyline class="st8" points="343.1,172 343.6,171.3 343.6,171.3 	"/>
	<line class="st8" x1="348.4" y1="220.6" x2="355.5" y2="223.9"/>
	<line class="st8" x1="348.4" y1="213.4" x2="357.3" y2="217.5"/>
	<line class="st8" x1="357.3" y1="217.5" x2="382.7" y2="216.6"/>
	<line class="st8" x1="382.7" y1="216.6" x2="391.9" y2="220.8"/>
	<polyline class="st8" points="377.5,149.3 369.7,153.3 367.5,154.4 367.5,154.4 362,157.1 361.2,157.6 355.6,160.4 	"/>
	<line class="st8" x1="341" y1="170.1" x2="341" y2="162.5"/>
	<polygon class="st7" points="397.4,296.6 371.2,318.1 376.7,320.8 380.8,315 401.8,297.7 	"/>
</g>
<g id="Stair_Line_thin">
	<line class="st3" x1="377.5" y1="127.1" x2="378.5" y2="127.5"/>
	<line class="st3" x1="369.2" y1="123.6" x2="368.4" y2="123.2"/>
	<line class="st3" x1="360.4" y1="139.5" x2="355.8" y2="137.5"/>
	<line class="st3" x1="368.4" y1="152.7" x2="369.7" y2="153.3"/>
	<line class="st3" x1="377.5" y1="156.7" x2="379" y2="157.3"/>
	<line class="st3" x1="346.3" y1="163.9" x2="355.6" y2="168"/>
	<line class="st3" x1="360.4" y1="170.1" x2="355.6" y2="168"/>
	<line class="st3" x1="377.5" y1="183.1" x2="382.7" y2="176.7"/>
	<line class="st3" x1="380.3" y1="184.3" x2="377.5" y2="183.1"/>
	<line class="st3" x1="348.5" y1="181.7" x2="343.1" y2="179.3"/>
	<line class="st3" x1="346.3" y1="194" x2="355.6" y2="198.2"/>
	<line class="st3" x1="355.6" y1="198.2" x2="360.5" y2="200.4"/>
	<line class="st3" x1="343.1" y1="227.2" x2="348.8" y2="229.8"/>
	<line class="st3" x1="315.2" y1="224.1" x2="324.4" y2="228.4"/>
	<line class="st3" x1="322.2" y1="230.9" x2="324.4" y2="228.4"/>
	<line class="st3" x1="377.5" y1="230.6" x2="382.7" y2="223.9"/>
	<line class="st3" x1="380.9" y1="232.2" x2="377.5" y2="230.6"/>
	<line class="st3" x1="350.3" y1="252.5" x2="349.2" y2="254"/>
	<line class="st3" x1="355.4" y1="254.9" x2="350.3" y2="252.5"/>
	<line class="st3" x1="324.4" y1="280.5" x2="315.2" y2="276"/>
	<line class="st3" x1="324.4" y1="280.5" x2="322.4" y2="283"/>
	<line class="st3" x1="376.4" y1="320.9" x2="371" y2="318.2"/>
	<line class="st3" x1="371" y1="318.2" x2="369.6" y2="320"/>
</g>
<g id="Make2D::hidden::lines::Stair_Atruim">
	<line class="st9" x1="355.5" y1="223.9" x2="357.3" y2="224.8"/>
	<line class="st9" x1="348.4" y1="173" x2="348.4" y2="165.7"/>
	<line class="st9" x1="343.6" y1="171.3" x2="348.4" y2="165.7"/>
	<line class="st9" x1="314.1" y1="225.4" x2="309.5" y2="230.9"/>
	<line class="st9" x1="357.3" y1="169.7" x2="370.8" y2="169.5"/>
	<line class="st9" x1="348.4" y1="165.7" x2="357.3" y2="169.7"/>
	<line class="st9" x1="348.4" y1="173" x2="357.3" y2="176.9"/>
	<line class="st9" x1="352.6" y1="144.8" x2="362.4" y2="126.8"/>
	<line class="st9" x1="345.7" y1="164.6" x2="341" y2="170.1"/>
	<line class="st9" x1="367.8" y1="124.3" x2="355.9" y2="146.2"/>
	<line class="st9" x1="362" y1="157.1" x2="352.4" y2="175.2"/>
	<line class="st9" x1="355.6" y1="176.6" x2="367.5" y2="154.4"/>
	<line class="st9" x1="349.1" y1="254" x2="344.8" y2="259.6"/>
	<line class="st9" x1="380.5" y1="322.9" x2="376.4" y2="320.9"/>
	<line class="st9" x1="397.1" y1="296.8" x2="406.5" y2="301.3"/>
	<line class="st9" x1="369.6" y1="320" x2="365.5" y2="325.7"/>
	<line class="st9" x1="322.4" y1="283" x2="318.7" y2="287.7"/>
	<line class="st9" x1="348.8" y1="229.8" x2="352" y2="231.4"/>
	<line class="st9" x1="343.7" y1="238.8" x2="336.4" y2="251.7"/>
	<line class="st9" x1="338.9" y1="234.4" x2="331.6" y2="247.3"/>
	<line class="st9" x1="339.1" y1="254.3" x2="346.4" y2="241.3"/>
	<line class="st9" x1="309.5" y1="283.1" x2="313.9" y2="277.7"/>
	<line class="st9" x1="324.4" y1="280.5" x2="327.3" y2="275.3"/>
	<line class="st9" x1="387.7" y1="226.2" x2="391.9" y2="228.1"/>
	<line class="st9" x1="386.8" y1="234.9" x2="380.9" y2="232.2"/>
	<line class="st9" x1="359.7" y1="257" x2="355.4" y2="254.9"/>
	<line class="st9" x1="336.2" y1="231.8" x2="328.8" y2="244.7"/>
	<line class="st9" x1="365" y1="172.1" x2="360.4" y2="170.1"/>
	<line class="st9" x1="352" y1="231.4" x2="357.3" y2="224.8"/>
	<line class="st9" x1="377.5" y1="224.1" x2="357.3" y2="224.8"/>
	<line class="st9" x1="367.9" y1="230.9" x2="377.5" y2="230.6"/>
	<line class="st9" x1="387.2" y1="152.7" x2="391.7" y2="154.6"/>
	<line class="st9" x1="379" y1="157.3" x2="386.8" y2="160.7"/>
	<line class="st9" x1="369.7" y1="153.3" x2="377.5" y2="156.7"/>
	<line class="st9" x1="318.7" y1="235.2" x2="322.2" y2="230.9"/>
	<line class="st9" x1="371.5" y1="138.4" x2="377.5" y2="127.1"/>
	<line class="st9" x1="372.2" y1="129.7" x2="366" y2="141.1"/>
	<line class="st9" x1="348.1" y1="173.3" x2="348.4" y2="173"/>
	<line class="st9" x1="377.5" y1="156.7" x2="371.1" y2="168.9"/>
	<line class="st9" x1="365.6" y1="171.8" x2="372.2" y2="159.4"/>
	<line class="st9" x1="377.5" y1="127.1" x2="369.2" y2="123.6"/>
	<line class="st9" x1="387.1" y1="123.2" x2="391.7" y2="125.1"/>
	<line class="st9" x1="378.5" y1="127.5" x2="386.8" y2="131"/>
	<line class="st9" x1="365.2" y1="141.5" x2="360.4" y2="139.5"/>
	<line class="st9" x1="352" y1="183.3" x2="363.6" y2="183.2"/>
	<line class="st9" x1="366.6" y1="183.2" x2="377.5" y2="183.1"/>
	<line class="st9" x1="367.5" y1="175.8" x2="352" y2="176"/>
	<line class="st9" x1="352" y1="183.3" x2="352" y2="176"/>
	<line class="st9" x1="377.5" y1="176.7" x2="357.3" y2="176.9"/>
	<line class="st9" x1="357.3" y1="176.9" x2="352" y2="183.3"/>
	<line class="st9" x1="386.8" y1="187.2" x2="380.3" y2="184.3"/>
	<line class="st9" x1="360.5" y1="200.4" x2="365" y2="202.5"/>
	<line class="st9" x1="341" y1="200.4" x2="345.6" y2="194.9"/>
	<line class="st9" x1="387.5" y1="178.8" x2="391.9" y2="180.7"/>
	<line class="st9" x1="324.4" y1="228.4" x2="327.3" y2="223.6"/>
	<line class="st9" x1="341.4" y1="200.6" x2="352" y2="183.3"/>
	<line class="st9" x1="352" y1="176" x2="351.5" y2="176.9"/>
	<line class="st9" x1="352" y1="183.3" x2="348.5" y2="181.7"/>
	<line class="st9" x1="343.4" y1="190" x2="341" y2="193.9"/>
</g>
<g id="Make2D::visible::lines::Solid">
	<line class="st8" x1="268.5" y1="199.8" x2="241.7" y2="187.2"/>
	<line class="st8" x1="200.2" y1="67.8" x2="184.8" y2="61.2"/>
	<line class="st8" x1="229.7" y1="9.1" x2="229.7" y2="24.3"/>
	<line class="st8" x1="268.5" y1="24.5" x2="229.7" y2="9.1"/>
	<line class="st8" x1="241.7" y1="205.3" x2="200.2" y2="250.8"/>
	<line class="st8" x1="241.7" y1="29.2" x2="200.2" y2="67.8"/>
	<line class="st8" x1="184.8" y1="61.2" x2="184.8" y2="243"/>
	<line class="st8" x1="239.6" y1="0.2" x2="278.1" y2="15.3"/>
	<line class="st8" x1="268.5" y1="24.5" x2="268.5" y2="199.8"/>
	<line class="st8" x1="241.7" y1="29.2" x2="241.7" y2="205.3"/>
	<line class="st8" x1="226.6" y1="23.1" x2="241.7" y2="29.2"/>
	<line class="st8" x1="200.2" y1="250.8" x2="184.8" y2="243"/>
	<line class="st8" x1="229.7" y1="9.1" x2="239.6" y2="0.2"/>
	<line class="st8" x1="184.8" y1="61.2" x2="226.6" y2="23.1"/>
	<line class="st8" x1="200.2" y1="67.8" x2="200.2" y2="250.8"/>
	<line class="st8" x1="278.1" y1="188.9" x2="268.5" y2="199.8"/>
	<line class="st8" x1="278.1" y1="15.3" x2="268.5" y2="24.5"/>
	<line class="st8" x1="278.1" y1="15.3" x2="278.1" y2="188.9"/>
</g>
<g id="Make2D::hidden::lines::Solid">
	<line class="st3" x1="241.7" y1="187.2" x2="229.7" y2="181.6"/>
	<line class="st3" x1="229.7" y1="181.6" x2="239.6" y2="171.1"/>
	<line class="st3" x1="226.6" y1="198.1" x2="241.7" y2="205.3"/>
	<line class="st3" x1="229.7" y1="24.3" x2="229.7" y2="181.6"/>
	<line class="st3" x1="226.6" y1="23.1" x2="226.6" y2="198.1"/>
	<line class="st3" x1="184.8" y1="243" x2="226.6" y2="198.1"/>
	<line class="st3" x1="239.6" y1="0.2" x2="239.6" y2="171.1"/>
	<line class="st3" x1="239.6" y1="171.1" x2="278.1" y2="188.9"/>
</g>
<g id="Make2D::visible::lines::BOX">
	<polygon class="st1" points="394.9,114.4 394.9,255.7 357.4,305.8 357.4,158.7 	"/>
	<polygon class="st0" points="394.9,114.4 357.4,158.7 312.9,139.2 317.2,134.4 351.4,96.4 	"/>
	<polygon class="st2" points="357.4,158.7 357.4,305.8 312.9,283.8 312.9,223.7 312.9,139.2 	"/>
	<polygon class="st1" points="317.2,72.5 317.2,134.4 312.9,139.2 312.9,223.7 277.5,265.9 277.5,114.1 	"/>
	<polygon class="st0" points="317.2,72.5 277.5,114.1 199.7,80.4 241.1,41.4 	"/>
	<polygon class="st2" points="277.5,114.1 277.5,265.9 199.7,227.4 199.7,80.4 	"/>
	<line class="st10" x1="277.5" y1="265.9" x2="199.7" y2="227.4"/>
	<line class="st10" x1="312.9" y1="139.2" x2="357.4" y2="158.7"/>
	<line class="st10" x1="357.4" y1="305.8" x2="357.4" y2="158.7"/>
	<line class="st10" x1="357.4" y1="158.7" x2="394.9" y2="114.4"/>
	<line class="st10" x1="394.9" y1="255.7" x2="394.9" y2="114.4"/>
	<line class="st10" x1="277.5" y1="114.1" x2="199.7" y2="80.4"/>
	<line class="st10" x1="357.4" y1="305.8" x2="394.9" y2="255.7"/>
	<line class="st10" x1="312.9" y1="223.7" x2="277.5" y2="265.9"/>
	<line class="st10" x1="312.9" y1="283.8" x2="357.4" y2="305.8"/>
	<line class="st10" x1="317.2" y1="72.5" x2="277.5" y2="114.1"/>
	<polyline class="st10" points="351.4,96.4 317.2,134.4 312.9,139.2 	"/>
	<line class="st10" x1="199.7" y1="80.4" x2="199.7" y2="227.4"/>
	<line class="st10" x1="241.1" y1="41.4" x2="317.2" y2="72.5"/>
	<line class="st10" x1="199.7" y1="80.4" x2="241.1" y2="41.4"/>
	<line class="st10" x1="277.5" y1="114.1" x2="277.5" y2="265.9"/>
	<line class="st10" x1="317.2" y1="72.5" x2="317.2" y2="134.4"/>
	<line class="st10" x1="394.9" y1="114.4" x2="351.4" y2="96.4"/>
	<polyline class="st10" points="312.9,283.8 312.9,223.7 312.9,139.2 	"/>
</g>
<g id="Make2D::hidden::lines::BOX">
	<line class="st11" x1="317.2" y1="134.4" x2="317.2" y2="137.4"/>
	<line class="st12" x1="317.2" y1="140.5" x2="317.2" y2="213.9"/>
	<line class="st11" x1="317.2" y1="215.5" x2="317.2" y2="218.5"/>
	<line class="st11" x1="241.1" y1="182.9" x2="243.9" y2="184.1"/>
	<line class="st13" x1="246.7" y1="185.5" x2="313.1" y2="216.5"/>
	<line class="st11" x1="314.5" y1="217.2" x2="317.2" y2="218.5"/>
	<line class="st11" x1="199.7" y1="227.4" x2="201.7" y2="225.2"/>
	<line class="st14" x1="203.7" y1="223.1" x2="238.1" y2="186.1"/>
	<line class="st11" x1="239.1" y1="185.1" x2="241.1" y2="182.9"/>
	<line class="st11" x1="317.2" y1="218.5" x2="315.3" y2="220.8"/>
	<line class="st11" x1="314.8" y1="221.4" x2="312.9" y2="223.7"/>
	<line class="st11" x1="394.9" y1="255.7" x2="392.1" y2="254.4"/>
	<line class="st15" x1="389.2" y1="253" x2="355.6" y2="237.2"/>
	<line class="st11" x1="354.1" y1="236.6" x2="351.4" y2="235.3"/>
	<line class="st11" x1="351.4" y1="235.3" x2="351.4" y2="232.3"/>
	<line class="st16" x1="351.4" y1="229.4" x2="351.4" y2="160.6"/>
	<line class="st11" x1="351.4" y1="159.1" x2="351.4" y2="156.1"/>
	<line class="st11" x1="351.4" y1="235.3" x2="349.5" y2="237.6"/>
	<line class="st17" x1="347.7" y1="239.9" x2="315.6" y2="280.3"/>
	<line class="st11" x1="314.7" y1="281.4" x2="312.9" y2="283.8"/>
	<line class="st11" x1="241.1" y1="41.4" x2="241.1" y2="44.4"/>
	<line class="st18" x1="241.1" y1="47.3" x2="241.1" y2="178.4"/>
	<line class="st11" x1="241.1" y1="179.9" x2="241.1" y2="182.9"/>
	<line class="st11" x1="351.4" y1="156.1" x2="351.4" y2="153.1"/>
	<line class="st19" x1="351.4" y1="150.3" x2="351.4" y2="100.8"/>
	<line class="st11" x1="351.4" y1="99.4" x2="351.4" y2="96.4"/>
</g>
<g id="Slab_new">
	<line class="st20" x1="391.6" y1="282.9" x2="391.5" y2="282.9"/>
	<line class="st20" x1="427.6" y1="104.3" x2="363" y2="182.8"/>
	<line class="st20" x1="363" y1="176.3" x2="363" y2="182.8"/>
	<line class="st20" x1="363" y1="182.8" x2="158.7" y2="91.8"/>
	<line class="st20" x1="158.7" y1="85.9" x2="158.7" y2="91.8"/>
	<line class="st20" x1="427.6" y1="104.3" x2="427.6" y2="98.3"/>
	<line class="st20" x1="367.1" y1="102.4" x2="334.8" y2="139.1"/>
	<line class="st20" x1="367.1" y1="93" x2="367.1" y2="102.4"/>
	<line class="st20" x1="389.6" y1="111.7" x2="367.1" y2="102.4"/>
	<line class="st20" x1="376.5" y1="228.2" x2="381.2" y2="230.4"/>
	<line class="st20" x1="327.6" y1="246.2" x2="337.7" y2="233.7"/>
	<line class="st20" x1="363" y1="321.8" x2="158.7" y2="219.7"/>
	<line class="st20" x1="158.7" y1="215.8" x2="158.7" y2="219.7"/>
	<line class="st20" x1="427.6" y1="233.7" x2="363" y2="321.8"/>
	<line class="st20" x1="363" y1="317.6" x2="363" y2="321.8"/>
	<line class="st20" x1="342" y1="235.7" x2="331.9" y2="248.2"/>
	<line class="st20" x1="377" y1="235.7" x2="372.3" y2="233.6"/>
	<line class="st20" x1="427.6" y1="233.7" x2="427.6" y2="229.8"/>
	<line class="st20" x1="363" y1="245.6" x2="158.7" y2="149.6"/>
	<line class="st20" x1="158.7" y1="145.7" x2="158.7" y2="149.6"/>
	<line class="st20" x1="427.6" y1="162.8" x2="363" y2="245.6"/>
	<line class="st20" x1="363" y1="241.4" x2="363" y2="245.6"/>
	<line class="st20" x1="352.4" y1="178.1" x2="333.1" y2="201.2"/>
	<line class="st20" x1="391.2" y1="171" x2="377.5" y2="165.1"/>
	<line class="st20" x1="370.2" y1="134.4" x2="347.4" y2="124.8"/>
	<line class="st20" x1="427.6" y1="162.8" x2="427.6" y2="158.8"/>
	<line class="st20" x1="351.5" y1="191.9" x2="351.5" y2="199.1"/>
	<line class="st20" x1="351.5" y1="191.9" x2="368.3" y2="199.5"/>
	<line class="st20" x1="340.9" y1="204.7" x2="351.5" y2="191.9"/>
	<line class="st20" x1="363" y1="294.9" x2="158.7" y2="194.9"/>
	<line class="st20" x1="158.7" y1="191.1" x2="158.7" y2="194.9"/>
	<line class="st20" x1="427.6" y1="208.7" x2="363" y2="294.9"/>
	<line class="st20" x1="363" y1="290.7" x2="363" y2="294.9"/>
	<line class="st20" x1="327.1" y1="228.7" x2="316.9" y2="241.1"/>
	<line class="st20" x1="351.5" y1="199.1" x2="345.2" y2="206.7"/>
	<line class="st20" x1="364" y1="204.8" x2="351.5" y2="199.1"/>
	<line class="st20" x1="391.4" y1="217.2" x2="386.7" y2="215.1"/>
	<line class="st20" x1="380.7" y1="184" x2="367" y2="177.9"/>
	<line class="st20" x1="427.6" y1="208.7" x2="427.6" y2="204.8"/>
</g>
<g id="Slab_outline">
	<line class="st21" x1="363" y1="176.3" x2="158.7" y2="85.9"/>
	<line class="st21" x1="158.7" y1="85.9" x2="229.7" y2="21"/>
	<line class="st21" x1="427.6" y1="98.3" x2="278.1" y2="38.2"/>
	<line class="st21" x1="427.6" y1="98.3" x2="363" y2="176.3"/>
	<line class="st21" x1="357.8" y1="149" x2="328.6" y2="136.4"/>
	<line class="st21" x1="328.6" y1="136.4" x2="367.1" y2="93"/>
	<line class="st21" x1="367.1" y1="93" x2="395.6" y2="104.7"/>
	<line class="st21" x1="395.6" y1="104.7" x2="357.8" y2="149"/>
	<line class="st21" x1="382" y1="159.7" x2="395.6" y2="165.6"/>
	<line class="st21" x1="328.6" y1="199.1" x2="347.9" y2="176.1"/>
	<line class="st21" x1="357.8" y1="212.5" x2="328.6" y2="199.1"/>
	<line class="st21" x1="395.6" y1="165.6" x2="357.8" y2="212.5"/>
	<line class="st21" x1="363" y1="241.4" x2="158.7" y2="145.7"/>
	<line class="st21" x1="158.7" y1="145.7" x2="196.9" y2="108.8"/>
	<line class="st21" x1="427.6" y1="158.8" x2="363" y2="241.4"/>
	<line class="st21" x1="427.6" y1="158.8" x2="394.3" y2="144.7"/>
	<line class="st21" x1="390.9" y1="209.7" x2="395.6" y2="211.8"/>
	<line class="st21" x1="312.5" y1="239" x2="322.7" y2="226.6"/>
	<line class="st21" x1="357.8" y1="260.6" x2="312.5" y2="239"/>
	<line class="st21" x1="395.6" y1="211.8" x2="357.8" y2="260.6"/>
	<line class="st21" x1="363" y1="290.7" x2="158.7" y2="191.1"/>
	<line class="st21" x1="158.7" y1="191.1" x2="186.8" y2="162.8"/>
	<line class="st21" x1="427.6" y1="204.8" x2="363" y2="290.7"/>
	<line class="st21" x1="427.6" y1="204.8" x2="403.2" y2="194"/>
	<line class="st21" x1="363" y1="317.6" x2="158.7" y2="215.8"/>
	<line class="st21" x1="158.7" y1="215.8" x2="172.5" y2="201.7"/>
	<line class="st21" x1="427.6" y1="229.8" x2="363" y2="317.6"/>
	<line class="st21" x1="427.6" y1="229.8" x2="415.7" y2="224.4"/>
	<line class="st21" x1="200.5" y1="259.8" x2="352.1" y2="336.8"/>
	<line class="st21" x1="352.1" y1="336.8" x2="391.6" y2="282.9"/>
	<line class="st21" x1="438.1" y1="263" x2="414.2" y2="251.9"/>
	<line class="st21" x1="364.5" y1="367.2" x2="438.1" y2="263"/>
	<line class="st21" x1="153.4" y1="258" x2="364.5" y2="367.2"/>
	<line class="st21" x1="179.6" y1="230.1" x2="153.4" y2="258"/>
	<line class="st21" x1="212.5" y1="246.6" x2="200.5" y2="259.8"/>
</g>
<g id="Slab_Desh">
	<line class="st22" x1="278.1" y1="38.2" x2="231.5" y2="19.5"/>
	<line class="st22" x1="229.7" y1="21" x2="231.5" y2="19.5"/>
</g>
<g id="Make2D::visible::lines::Elevtor">
	<polygon class="st1" points="275.2,98.3 275.2,115.8 267.7,123.7 267.7,106 	"/>
	<polygon class="st0" points="275.2,98.3 267.7,106 254.7,100.4 260.6,94.4 262.3,92.7 	"/>
	<polygon class="st2" points="267.7,106 267.7,123.7 254.7,118 254.7,115.6 254.7,100.4 	"/>
	<polygon class="st1" points="260.6,92.1 260.6,94.4 254.7,100.4 254.7,115.6 253,117.2 253,99.7 	"/>
	<polygon class="st0" points="260.6,92.1 253,99.7 240.2,94.2 247.8,86.6 	"/>
	<polygon class="st2" points="253,99.7 253,117.2 240.2,111.6 240.2,94.2 	"/>
	<line class="st23" x1="275.2" y1="115.8" x2="275.2" y2="98.3"/>
	<line class="st23" x1="267.7" y1="106" x2="275.2" y2="98.3"/>
	<line class="st23" x1="267.7" y1="123.7" x2="267.7" y2="106"/>
	<line class="st23" x1="275.2" y1="98.3" x2="262.2" y2="92.7"/>
	<line class="st23" x1="240.2" y1="94.2" x2="253" y2="99.7"/>
	<polyline class="st23" points="254.7,118 254.7,115.6 254.7,100.4 	"/>
	<polyline class="st23" points="262.3,92.7 260.6,94.4 254.7,100.4 	"/>
	<line class="st23" x1="254.7" y1="118" x2="267.7" y2="123.7"/>
	<line class="st23" x1="254.7" y1="100.4" x2="267.7" y2="106"/>
	<line class="st23" x1="253" y1="117.2" x2="254.7" y2="115.6"/>
	<line class="st23" x1="240.2" y1="111.6" x2="253" y2="117.2"/>
	<line class="st23" x1="267.7" y1="123.7" x2="275.2" y2="115.8"/>
	<line class="st23" x1="260.6" y1="94.4" x2="260.6" y2="92.1"/>
	<line class="st23" x1="253" y1="99.7" x2="260.6" y2="92.1"/>
	<line class="st23" x1="253" y1="117.2" x2="253" y2="99.7"/>
	<line class="st23" x1="247.8" y1="86.6" x2="240.2" y2="94.2"/>
	<line class="st23" x1="240.2" y1="111.6" x2="240.2" y2="94.2"/>
	<line class="st23" x1="260.6" y1="92.1" x2="247.8" y2="86.6"/>
</g>
<g id="Make2D::hidden::lines::Elevtor">
	<line class="st24" x1="247.8" y1="103.9" x2="247.8" y2="86.6"/>
	<line class="st24" x1="260.6" y1="109.5" x2="247.8" y2="103.9"/>
	<line class="st24" x1="254.7" y1="115.6" x2="260.6" y2="109.5"/>
	<line class="st24" x1="262.2" y1="110.2" x2="254.7" y2="118"/>
	<line class="st24" x1="262.2" y1="110.2" x2="262.2" y2="92.7"/>
	<line class="st24" x1="275.2" y1="115.8" x2="262.2" y2="110.2"/>
	<line class="st24" x1="260.6" y1="109.5" x2="260.6" y2="94.4"/>
	<line class="st24" x1="247.8" y1="103.9" x2="240.2" y2="111.6"/>
	<line class="st24" x1="264.9" y1="99" x2="264.9" y2="17"/>
	<circle class="st25" cx="264.9" cy="99" r="0.4"/>
	<circle class="st25" cx="264.9" cy="17" r="0.4"/>
	<line class="st24" x1="250.4" y1="92.7" x2="250.4" y2="11.2"/>
	<circle class="st25" cx="250.4" cy="92.7" r="0.4"/>
	<circle class="st25" cx="250.4" cy="11.2" r="0.4"/>
</g>
<g id="Make2D::visible::lines::Massing_Facade">
	<line class="st26" x1="145.2" y1="253.7" x2="145.3" y2="253.7"/>
	<polygon class="st27" points="245.1,131.2 245.1,168.4 251.2,171.1 251.2,208.1 223,195 223,158.4 207.3,151.2 207.3,114.6 	"/>
	<polyline class="st27" points="163.3,131.2 163.3,106.5 153.4,115.6 153.4,80.2 145.3,87.4 145.3,123 	"/>
	<polyline class="st27" points="192.1,114.1 192.1,45.9 173.1,62.8 173.1,132.1 	"/>
	<polyline class="st27" points="210.5,116.1 210.5,96.6 219.5,88.1 219.5,21.7 210.5,29.6 210.5,63.2 201.4,71.6 201.4,105.3 
		192.1,114.1 	"/>
	<line class="st26" x1="210.5" y1="169.1" x2="221.7" y2="157.7"/>
	<line class="st26" x1="210.5" y1="152.6" x2="210.5" y2="169.1"/>
	<polyline class="st27" points="219.5,120 219.5,108.8 211.5,116.5 	"/>
	<polyline class="st27" points="367.2,366.9 374.4,356.9 374.4,336.9 367.2,346.8 367.2,366.9 	"/>
	<polygon class="st27" points="443.9,259.6 443.9,186.1 440.1,191 440.1,246.3 432.4,256.9 432.4,275.7 	"/>
	<polygon class="st27" points="397.8,148 382.5,166.3 382.5,204.7 391.7,193.2 391.7,231 416.6,199 416.6,162.3 397.8,185.7 	"/>
	<polyline class="st27" points="228.3,79.8 228.3,123.8 232.6,125.8 232.6,75.6 	"/>
	<line class="st26" x1="232.6" y1="75.6" x2="228.3" y2="79.8"/>
	<line class="st26" x1="193.7" y1="203.7" x2="191.4" y2="206.1"/>
	<polygon class="st27" points="440.6,96.4 432.9,105.7 432.9,141.9 424.5,152.3 424.5,188.8 443.9,163.9 443.9,128.3 440.6,132.3 	
		"/>
	<line class="st26" x1="201.4" y1="195.8" x2="195.6" y2="201.8"/>
	<line class="st26" x1="191.4" y1="202.6" x2="191.4" y2="206.1"/>
	<polygon class="st27" points="367.2,286.8 367.2,320.5 383.1,299 383.1,265.8 	"/>
	<polygon class="st27" points="432.4,232.5 432.4,201.1 408.4,232.6 408.4,264.8 400.2,276 400.2,320.8 424.5,286.6 424.5,267.7 
		416.6,278.7 416.6,253.9 	"/>
	<line class="st26" x1="182" y1="198" x2="182.1" y2="197.9"/>
	<line class="st26" x1="182" y1="198.1" x2="182" y2="198"/>
	<polyline class="st27" points="367.2,262.6 324.4,242.5 324.5,204.4 309.4,197.6 309.4,235.5 265.5,214.9 265.5,177.6 295.6,191.3 
		295.6,153.4 330.9,168.9 330.9,207.3 367.2,223.8 	"/>
	<polygon class="st27" points="367.2,223.8 367.2,262.6 374.4,253.3 374.4,214.8 	"/>
	<polyline class="st27" points="324.4,345.1 279.9,322.4 279.9,277.6 294.6,284.8 294.6,252 324.4,266.3 324.4,345.1 	"/>
	<polygon class="st27" points="209.2,286.3 209.2,211.2 251.2,231.2 251.2,263.4 237,256.5 237,300.5 	"/>
	<polygon class="st27" points="155.5,258.9 155.5,240.4 168.7,247.1 168.7,191.8 182.1,198.2 182.1,272.5 	"/>
	<polygon class="st27" points="145.3,123 180.2,138.9 180.2,102.7 191.7,107.8 191.7,144.1 195.6,145.9 195.6,204.6 182.1,198.2 
		182.1,175.7 145.3,158.5 	"/>
	<line class="st26" x1="192.1" y1="114.1" x2="192.1" y2="135.2"/>
	<line class="st26" x1="192.1" y1="135.2" x2="207.3" y2="120.6"/>
	<line class="st26" x1="173.1" y1="132.1" x2="180.2" y2="125.4"/>
	<line class="st26" x1="191.7" y1="114.4" x2="192.1" y2="114.1"/>
	<line class="st26" x1="201.4" y1="195.8" x2="201.4" y2="155.6"/>
	<line class="st26" x1="201.4" y1="155.6" x2="195.6" y2="161.3"/>
	<line class="st26" x1="173.1" y1="135.7" x2="173.1" y2="132.1"/>
	<line class="st26" x1="173.1" y1="132.1" x2="170.5" y2="134.5"/>
	<polygon class="st27" points="339.6,306.9 354.9,314.5 354.9,340.6 367.1,346.7 367.1,366.9 339.6,352.8 	"/>
</g>
<g id="BOX_Outline">
	<polygon class="st10" points="394.9,114.4 394.9,255.7 357.4,305.8 357.4,158.7 	"/>
	<polygon class="st10" points="394.9,114.4 357.4,158.7 312.9,139.2 317.2,134.4 351.4,96.4 	"/>
	<polygon class="st10" points="357.4,158.7 357.4,305.8 312.9,283.8 312.9,223.7 312.9,139.2 	"/>
	<polygon class="st10" points="317.2,72.5 317.2,134.4 312.9,139.2 312.9,223.7 277.5,265.9 277.5,114.1 	"/>
	<polygon class="st10" points="317.2,72.5 277.5,114.1 199.7,80.4 241.1,41.4 	"/>
	<polygon class="st10" points="277.5,114.1 277.5,265.9 199.7,227.4 199.7,80.4 	"/>
	<line class="st28" x1="277.5" y1="265.9" x2="199.7" y2="227.4"/>
	<line class="st28" x1="312.9" y1="139.2" x2="357.4" y2="158.7"/>
	<line class="st28" x1="357.4" y1="305.8" x2="357.4" y2="158.7"/>
	<line class="st28" x1="357.4" y1="158.7" x2="394.9" y2="114.4"/>
	<line class="st28" x1="394.9" y1="255.7" x2="394.9" y2="114.4"/>
	<line class="st28" x1="277.5" y1="114.1" x2="199.7" y2="80.4"/>
	<line class="st28" x1="357.4" y1="305.8" x2="394.9" y2="255.7"/>
	<line class="st28" x1="312.9" y1="223.7" x2="277.5" y2="265.9"/>
	<line class="st28" x1="312.9" y1="283.8" x2="357.4" y2="305.8"/>
	<line class="st28" x1="317.2" y1="72.5" x2="277.5" y2="114.1"/>
	<polyline class="st28" points="351.4,96.4 317.2,134.4 312.9,139.2 	"/>
	<line class="st28" x1="199.7" y1="80.4" x2="199.7" y2="227.4"/>
	<line class="st28" x1="241.1" y1="41.4" x2="317.2" y2="72.5"/>
	<line class="st28" x1="199.7" y1="80.4" x2="241.1" y2="41.4"/>
	<line class="st28" x1="277.5" y1="114.1" x2="277.5" y2="265.9"/>
	<line class="st28" x1="317.2" y1="72.5" x2="317.2" y2="134.4"/>
	<line class="st28" x1="394.9" y1="114.4" x2="351.4" y2="96.4"/>
	<polyline class="st28" points="312.9,283.8 312.9,223.7 312.9,139.2 	"/>
</g>
</svg>
