<svg xmlns="http://www.w3.org/2000/svg" viewBox="0 0 360 360"><g id="Layer_4" data-name="Layer 4"><path d="M180,67a113,113,0,1,1-79.93,33.11A112.31,112.31,0,0,1,180,67m0-60A173,173,0,1,0,353,180,173,173,0,0,0,180,7Z"/></g><g id="Layer_1" data-name="Layer 1"><path d="M180,43.68a127.13,127.13,0,0,0-32.85,250v-31a70.15,70.15,0,0,1-18.29,1.16c-9.39-.79-13.09-4.31-15.6-6.11-3.33-2.39-7-8.14-8.47-11.72-2-5-3.26-8.09-7.28-12.33-4.47-4.73-10-8-10.54-8.91s-3.13-4,3.41-4,9.75,2,14.11,5a33.13,33.13,0,0,1,9.36,11.14c1.49,3.12,5.5,8.32,14.56,10.7,5.52,1.44,13.67-.69,19.21-2.58a66.49,66.49,0,0,1,1.42-6.67,23.59,23.59,0,0,1,8.49-11.95,112.29,112.29,0,0,1-27.79-6.32A64.94,64.94,0,0,1,115.66,211a58.64,58.64,0,0,1-17-37.7,77.82,77.82,0,0,1,1.57-22.68A49.28,49.28,0,0,1,111.89,130a43.85,43.85,0,0,1,1.28-33.4,44.24,44.24,0,0,1,6.81.16,63.36,63.36,0,0,1,27.86,13,97.14,97.14,0,0,1,32.24-4.57,97,97,0,0,1,32.23,4.57,63.45,63.45,0,0,1,27.87-13,44.14,44.14,0,0,1,6.8-.16,43.76,43.76,0,0,1,1.29,33.4,49.09,49.09,0,0,1,11.65,20.57,78.9,78.9,0,0,1,1.53,22.68,58.7,58.7,0,0,1-17,37.7,65.18,65.18,0,0,1-14.08,9.06,112.39,112.39,0,0,1-27.79,6.32,23.63,23.63,0,0,1,8.48,11.95,64.58,64.58,0,0,1,1.9,10.13v45.16A127.14,127.14,0,0,0,180,43.68Z"/></g></svg>