<?xml version="1.0" encoding="utf-8"?>
<!-- Generator: Adobe Illustrator 25.2.1, SVG Export Plug-In . SVG Version: 6.00 Build 0)  -->
<svg version="1.1" xmlns="http://www.w3.org/2000/svg" xmlns:xlink="http://www.w3.org/1999/xlink" x="0px" y="0px"
	 viewBox="0 0 360 360" style="enable-background:new 0 0 360 360;" xml:space="preserve">
<style type="text/css">
	.st0{fill:#FFFFFF;}
	.st1{fill:#FFFFFF;stroke:#050505;stroke-width:16;stroke-miterlimit:10;}
</style>
<g id="Layer_4">
	<circle cx="-200" cy="180" r="173"/>
	<circle cx="940" cy="180" r="173"/>
	<circle cx="180" cy="180" r="173"/>
	<g>
		<path d="M560,67c30.2,0,58.6,11.8,79.9,33.1c21.3,21.3,33.1,49.7,33.1,79.9s-11.8,58.6-33.1,79.9C618.6,281.3,590.2,293,560,293
			s-58.6-11.8-79.9-33.1S447,210.2,447,180s11.8-58.6,33.1-79.9S529.8,67,560,67 M560,7c-95.6,0-173,77.5-173,173s77.5,173,173,173
			s173-77.5,173-173S655.6,7,560,7L560,7z"/>
	</g>
</g>
<g id="Layer_5">
</g>
<g id="Layer_3">
	<g>
		<circle class="st0" cx="940" cy="180" r="29.2"/>
		<path class="st0" d="M979.2,91.8h-78.4c-27.1,0-49,21.9-49,49v78.4c0,27.1,21.9,49,49,49h78.4c27.1,0,49-21.9,49-49v-78.4
			C1028.2,113.8,1006.2,91.8,979.2,91.8z M940,223.3c-23.9,0-43.3-19.4-43.3-43.3c0-23.9,19.4-43.3,43.3-43.3s43.3,19.4,43.3,43.3
			C983.3,203.9,963.9,223.3,940,223.3z M991.1,135.7c-4,0-7.2-3.2-7.2-7.2c0-4,3.2-7.2,7.2-7.2c4,0,7.2,3.2,7.2,7.2
			C998.4,132.4,995.1,135.7,991.1,135.7z"/>
	</g>
</g>
<g id="Layer_1">
	<g>
		<rect x="86.5" y="132.3" class="st0" width="44.2" height="131.7"/>
		<ellipse class="st0" cx="108.7" cy="91.4" rx="25.8" ry="23.2"/>
		<path class="st0" d="M245.1,187.2v76.5c0,0.1,0,0.3,0.1,0.3H289c0.1,0,0.3,0.1,0.3,0v-78.1c0-7.6,0.4-13-1.7-20.5
			c-4.8-16.5-17.8-29.4-34.3-34.1c-5.7-1.6-14.6-2.5-20.6-1.7c-8.7,1.1-16.9,4.7-23.8,10.2c-3.1,2.5-5.8,5.5-8.1,8.8
			c-0.5,0.7-0.9,1.5-1.4,2.3c-0.1,0.2,0-0.2,0-0.4v-17.6c0-0.2,0.1-0.4-0.2-0.4h-43.4c-0.1,0-0.6-0.2-0.6,0v131.4
			c0,0.2,0.1,0.2,0.3,0.2h42.9c0.2,0,1.1,0.2,1.1-0.2v-77.7c0-0.8,0-1.5,0.1-2.3c0.2-0.9,0.4-1.9,0.6-2.8c0.5-1.9,1.3-3.8,2.3-5.5
			c2.1-3.7,5.1-6.7,8.8-8.8c6.5-3.7,15.7-4.2,22.5-0.5C241.4,170.4,245.1,178.9,245.1,187.2z"/>
	</g>
	<path class="st1" d="M-101.7,259.5h-196.6c-7,0-12.6-5.6-12.6-12.6V119.6c0-7,5.6-12.6,12.6-12.6h196.6c7,0,12.6,5.6,12.6,12.6
		v127.3C-89.1,253.9-94.7,259.5-101.7,259.5z"/>
	<line class="st1" x1="-174" y1="183.3" x2="-95.8" y2="254.9"/>
	<path class="st1" d="M-304.2,111.6l91,83.4c7.5,6.8,18.9,6.8,26.4,0l91-83.4"/>
	<line class="st1" x1="-304.2" y1="254.9" x2="-226" y2="183.3"/>
	<path d="M560,43.7c-70.2,0-127.1,56.9-127.1,127.1c0,58.8,40,108.3,94.3,122.8c0-8.8,0-23.9,0-31c-4.9,1-12,1.7-18.3,1.2
		c-9.4-0.8-13.1-4.3-15.6-6.1c-3.3-2.4-7-8.1-8.5-11.7c-2-5-3.3-8.1-7.3-12.3c-4.5-4.7-10-8-10.5-8.9s-3.1-4,3.4-4
		c6.5,0,9.8,2,14.1,5.1c4,2.8,7.9,8,9.4,11.1c1.5,3.1,5.5,8.3,14.6,10.7c5.5,1.4,13.7-0.7,19.2-2.6c0.4-2.2,0.8-4.5,1.4-6.7
		c1.5-4.8,4.5-9,8.5-12c-9.5-0.9-18.8-3-27.8-6.3c-5.1-2.4-9.8-5.4-14.1-9.1c-10.1-10.1-16.1-23.5-17-37.7
		c-0.6-7.6-0.1-15.2,1.6-22.7c2.2-7.7,6.2-14.8,11.7-20.6c-4-10.9-3.5-22.9,1.3-33.4c2.3-0.1,4.5-0.1,6.8,0.2
		c10.2,2,19.8,6.4,27.9,13c10.4-3.3,21.3-4.9,32.2-4.6c10.9-0.3,21.8,1.2,32.2,4.6c8.1-6.5,17.7-11,27.9-13c2.3-0.2,4.5-0.3,6.8-0.2
		c4.8,10.5,5.3,22.5,1.3,33.4c5.5,5.8,9.5,12.9,11.6,20.6c1.6,7.4,2.1,15.1,1.5,22.7c-0.9,14.2-7,27.6-17,37.7
		c-4.3,3.6-9,6.7-14.1,9.1c-9,3.3-18.3,5.4-27.8,6.3c4,3,7,7.2,8.5,12c0.9,3.3,1.5,6.7,1.9,10.1c0,12.7,0,30.9,0,45.2
		c54.2-14.5,94.2-64,94.2-122.8C687.1,100.6,630.2,43.7,560,43.7z"/>
</g>
</svg>
