<svg xmlns="http://www.w3.org/2000/svg" viewBox="0 0 360 360"><defs><style>.cls-1{fill:#fff;}</style></defs><g id="Layer_4" data-name="Layer 4"><circle cx="180" cy="180" r="173.04"/></g><g id="Layer_3" data-name="Layer 3"><circle class="cls-1" cx="180" cy="180" r="29.22"/><path class="cls-1" d="M219.18,91.82H140.82a49,49,0,0,0-49,49v78.36a49,49,0,0,0,49,49h78.36a49,49,0,0,0,49-49V140.82A49,49,0,0,0,219.18,91.82ZM180,223.3A43.3,43.3,0,1,1,223.3,180,43.31,43.31,0,0,1,180,223.3Zm51.15-87.61a7.24,7.24,0,1,1,7.24-7.24A7.25,7.25,0,0,1,231.15,135.69Z"/></g></svg>