<svg width="1359" height="447" viewBox="0 0 1359 447" fill="none" xmlns="http://www.w3.org/2000/svg">
<rect width="1359" height="447" rx="32" fill="#F5F5F5"/>
<path d="M456.581 204.182V242H449.73V204.182H456.581ZM463.704 242V213.636H470.093V218.456H470.426C471.017 216.831 471.995 215.563 473.362 214.652C474.728 213.729 476.359 213.267 478.255 213.267C480.176 213.267 481.795 213.735 483.112 214.67C484.441 215.594 485.377 216.856 485.919 218.456H486.214C486.842 216.88 487.901 215.625 489.39 214.689C490.892 213.741 492.671 213.267 494.727 213.267C497.337 213.267 499.467 214.092 501.116 215.741C502.766 217.391 503.591 219.798 503.591 222.962V242H496.887V223.996C496.887 222.235 496.42 220.949 495.484 220.136C494.548 219.312 493.404 218.899 492.049 218.899C490.437 218.899 489.175 219.404 488.264 220.413C487.365 221.411 486.916 222.709 486.916 224.31V242H480.36V223.719C480.36 222.254 479.917 221.084 479.031 220.21C478.157 219.336 477.012 218.899 475.596 218.899C474.636 218.899 473.762 219.145 472.974 219.638C472.186 220.118 471.558 220.801 471.091 221.688C470.623 222.562 470.389 223.583 470.389 224.753V242H463.704ZM518.534 242.572C516.737 242.572 515.118 242.252 513.678 241.612C512.25 240.96 511.117 240 510.28 238.732C509.455 237.464 509.043 235.9 509.043 234.041C509.043 232.441 509.338 231.117 509.929 230.071C510.52 229.025 511.326 228.188 512.348 227.56C513.37 226.932 514.521 226.458 515.801 226.138C517.094 225.805 518.429 225.565 519.808 225.418C521.47 225.245 522.818 225.091 523.852 224.956C524.886 224.808 525.637 224.587 526.105 224.291C526.585 223.983 526.825 223.509 526.825 222.869V222.759C526.825 221.367 526.413 220.29 525.588 219.527C524.763 218.764 523.575 218.382 522.024 218.382C520.387 218.382 519.088 218.739 518.128 219.453C517.18 220.167 516.54 221.01 516.207 221.983L509.966 221.097C510.458 219.373 511.271 217.933 512.403 216.776C513.536 215.606 514.921 214.732 516.558 214.153C518.196 213.562 520.005 213.267 521.987 213.267C523.354 213.267 524.714 213.427 526.068 213.747C527.422 214.067 528.66 214.597 529.78 215.335C530.9 216.062 531.799 217.053 532.476 218.308C533.165 219.564 533.51 221.134 533.51 223.017V242H527.084V238.104H526.862C526.456 238.892 525.884 239.63 525.145 240.32C524.419 240.997 523.501 241.545 522.393 241.963C521.298 242.369 520.011 242.572 518.534 242.572ZM520.27 237.661C521.612 237.661 522.775 237.396 523.76 236.866C524.745 236.325 525.502 235.611 526.031 234.724C526.573 233.838 526.844 232.872 526.844 231.825V228.483C526.634 228.655 526.277 228.815 525.773 228.963C525.28 229.111 524.726 229.24 524.111 229.351C523.495 229.462 522.886 229.56 522.283 229.646C521.679 229.732 521.156 229.806 520.713 229.868C519.716 230.003 518.823 230.225 518.036 230.533C517.248 230.84 516.626 231.271 516.17 231.825C515.715 232.367 515.487 233.069 515.487 233.93C515.487 235.161 515.937 236.091 516.835 236.719C517.734 237.347 518.879 237.661 520.27 237.661ZM552.567 253.227C550.166 253.227 548.104 252.901 546.381 252.249C544.657 251.608 543.272 250.747 542.226 249.663C541.179 248.58 540.453 247.38 540.047 246.062L546.067 244.604C546.338 245.158 546.732 245.705 547.249 246.247C547.766 246.801 548.461 247.257 549.335 247.614C550.222 247.983 551.336 248.168 552.678 248.168C554.573 248.168 556.143 247.706 557.386 246.783C558.63 245.872 559.251 244.37 559.251 242.277V236.903H558.919C558.574 237.593 558.07 238.301 557.405 239.027C556.752 239.753 555.884 240.363 554.801 240.855C553.73 241.348 552.382 241.594 550.757 241.594C548.578 241.594 546.602 241.083 544.83 240.061C543.069 239.027 541.666 237.488 540.619 235.445C539.585 233.389 539.068 230.816 539.068 227.726C539.068 224.611 539.585 221.983 540.619 219.841C541.666 217.687 543.075 216.055 544.848 214.947C546.621 213.827 548.597 213.267 550.776 213.267C552.438 213.267 553.804 213.55 554.875 214.116C555.958 214.67 556.82 215.341 557.46 216.129C558.1 216.905 558.587 217.637 558.919 218.327H559.288V213.636H565.881V242.462C565.881 244.887 565.302 246.893 564.145 248.482C562.988 250.07 561.406 251.258 559.399 252.045C557.393 252.833 555.115 253.227 552.567 253.227ZM552.622 236.349C554.038 236.349 555.244 236.005 556.241 235.315C557.239 234.626 557.996 233.635 558.513 232.342C559.03 231.05 559.288 229.499 559.288 227.689C559.288 225.904 559.03 224.34 558.513 222.999C558.008 221.657 557.257 220.616 556.26 219.878C555.275 219.127 554.063 218.751 552.622 218.751C551.133 218.751 549.889 219.139 548.892 219.915C547.895 220.69 547.144 221.755 546.639 223.109C546.134 224.451 545.882 225.978 545.882 227.689C545.882 229.425 546.134 230.945 546.639 232.25C547.156 233.543 547.913 234.552 548.911 235.278C549.92 235.992 551.157 236.349 552.622 236.349ZM585.288 242.554C582.445 242.554 579.989 241.963 577.92 240.781C575.865 239.587 574.283 237.901 573.175 235.722C572.067 233.53 571.513 230.951 571.513 227.984C571.513 225.067 572.067 222.506 573.175 220.303C574.295 218.087 575.858 216.363 577.865 215.132C579.872 213.889 582.229 213.267 584.938 213.267C586.686 213.267 588.335 213.55 589.886 214.116C591.45 214.67 592.829 215.532 594.023 216.702C595.229 217.871 596.177 219.361 596.866 221.17C597.556 222.968 597.901 225.11 597.901 227.597V229.646H574.652V225.141H591.493C591.481 223.86 591.204 222.722 590.662 221.724C590.12 220.715 589.363 219.921 588.391 219.342C587.43 218.764 586.31 218.474 585.03 218.474C583.663 218.474 582.463 218.807 581.429 219.472C580.395 220.124 579.589 220.986 579.01 222.057C578.444 223.116 578.154 224.279 578.142 225.547V229.48C578.142 231.13 578.444 232.545 579.047 233.727C579.65 234.897 580.493 235.795 581.577 236.423C582.66 237.039 583.928 237.347 585.381 237.347C586.353 237.347 587.233 237.211 588.021 236.94C588.809 236.657 589.492 236.245 590.071 235.703C590.65 235.161 591.087 234.491 591.382 233.69L597.624 234.392C597.23 236.042 596.479 237.482 595.371 238.713C594.275 239.932 592.872 240.88 591.161 241.557C589.449 242.222 587.492 242.554 585.288 242.554ZM616.75 242V204.182H630.931C633.837 204.182 636.274 204.723 638.244 205.807C640.226 206.89 641.722 208.38 642.731 210.276C643.753 212.159 644.264 214.301 644.264 216.702C644.264 219.127 643.753 221.281 642.731 223.165C641.709 225.048 640.201 226.532 638.207 227.615C636.213 228.686 633.757 229.222 630.839 229.222H621.44V223.589H629.916C631.615 223.589 633.006 223.294 634.089 222.703C635.172 222.112 635.973 221.3 636.49 220.266C637.019 219.232 637.284 218.044 637.284 216.702C637.284 215.36 637.019 214.178 636.49 213.156C635.973 212.134 635.166 211.34 634.071 210.774C632.987 210.196 631.59 209.906 629.879 209.906H623.6V242H616.75ZM656.604 204.182V242H649.919V204.182H656.604ZM671.64 242.572C669.842 242.572 668.223 242.252 666.783 241.612C665.355 240.96 664.222 240 663.385 238.732C662.56 237.464 662.148 235.9 662.148 234.041C662.148 232.441 662.444 231.117 663.034 230.071C663.625 229.025 664.432 228.188 665.453 227.56C666.475 226.932 667.626 226.458 668.907 226.138C670.199 225.805 671.535 225.565 672.914 225.418C674.576 225.245 675.924 225.091 676.958 224.956C677.992 224.808 678.743 224.587 679.211 224.291C679.691 223.983 679.931 223.509 679.931 222.869V222.759C679.931 221.367 679.518 220.29 678.694 219.527C677.869 218.764 676.681 218.382 675.13 218.382C673.492 218.382 672.194 218.739 671.233 219.453C670.285 220.167 669.645 221.01 669.313 221.983L663.071 221.097C663.564 219.373 664.376 217.933 665.509 216.776C666.641 215.606 668.026 214.732 669.664 214.153C671.301 213.562 673.111 213.267 675.093 213.267C676.459 213.267 677.819 213.427 679.174 213.747C680.528 214.067 681.765 214.597 682.885 215.335C684.006 216.062 684.904 217.053 685.581 218.308C686.271 219.564 686.615 221.134 686.615 223.017V242H680.189V238.104H679.968C679.561 238.892 678.989 239.63 678.25 240.32C677.524 240.997 676.607 241.545 675.499 241.963C674.403 242.369 673.117 242.572 671.64 242.572ZM673.375 237.661C674.717 237.661 675.881 237.396 676.865 236.866C677.85 236.325 678.607 235.611 679.137 234.724C679.678 233.838 679.949 232.872 679.949 231.825V228.483C679.74 228.655 679.383 228.815 678.878 228.963C678.386 229.111 677.832 229.24 677.216 229.351C676.601 229.462 675.991 229.56 675.388 229.646C674.785 229.732 674.262 229.806 673.819 229.868C672.821 230.003 671.929 230.225 671.141 230.533C670.353 230.84 669.731 231.271 669.276 231.825C668.82 232.367 668.593 233.069 668.593 233.93C668.593 235.161 669.042 236.091 669.941 236.719C670.839 237.347 671.984 237.661 673.375 237.661ZM705.709 242.554C702.878 242.554 700.446 241.932 698.415 240.689C696.396 239.446 694.839 237.728 693.743 235.537C692.66 233.333 692.118 230.797 692.118 227.929C692.118 225.048 692.672 222.506 693.78 220.303C694.888 218.087 696.452 216.363 698.471 215.132C700.502 213.889 702.902 213.267 705.672 213.267C707.974 213.267 710.012 213.692 711.784 214.541C713.569 215.378 714.991 216.566 716.05 218.105C717.109 219.632 717.712 221.417 717.86 223.46H711.471C711.212 222.094 710.596 220.955 709.624 220.044C708.664 219.121 707.377 218.659 705.765 218.659C704.398 218.659 703.198 219.028 702.164 219.767C701.13 220.493 700.323 221.54 699.745 222.906C699.178 224.273 698.895 225.91 698.895 227.818C698.895 229.751 699.178 231.413 699.745 232.804C700.311 234.183 701.105 235.248 702.127 235.999C703.161 236.737 704.373 237.107 705.765 237.107C706.749 237.107 707.63 236.922 708.405 236.553C709.193 236.171 709.852 235.623 710.381 234.909C710.91 234.195 711.274 233.327 711.471 232.305H717.86C717.7 234.312 717.109 236.091 716.087 237.642C715.065 239.181 713.674 240.387 711.914 241.261C710.153 242.123 708.085 242.554 705.709 242.554ZM735.906 242.554C733.062 242.554 730.606 241.963 728.538 240.781C726.482 239.587 724.9 237.901 723.792 235.722C722.684 233.53 722.13 230.951 722.13 227.984C722.13 225.067 722.684 222.506 723.792 220.303C724.912 218.087 726.476 216.363 728.482 215.132C730.489 213.889 732.846 213.267 735.555 213.267C737.303 213.267 738.952 213.55 740.504 214.116C742.067 214.67 743.446 215.532 744.64 216.702C745.846 217.871 746.794 219.361 747.484 221.17C748.173 222.968 748.518 225.11 748.518 227.597V229.646H725.269V225.141H742.11C742.098 223.86 741.821 222.722 741.279 221.724C740.737 220.715 739.98 219.921 739.008 219.342C738.048 218.764 736.927 218.474 735.647 218.474C734.281 218.474 733.08 218.807 732.046 219.472C731.012 220.124 730.206 220.986 729.627 222.057C729.061 223.116 728.772 224.279 728.759 225.547V229.48C728.759 231.13 729.061 232.545 729.664 233.727C730.267 234.897 731.111 235.795 732.194 236.423C733.277 237.039 734.545 237.347 735.998 237.347C736.97 237.347 737.851 237.211 738.638 236.94C739.426 236.657 740.11 236.245 740.688 235.703C741.267 235.161 741.704 234.491 741.999 233.69L748.241 234.392C747.847 236.042 747.096 237.482 745.988 238.713C744.892 239.932 743.489 240.88 741.778 241.557C740.067 242.222 738.109 242.554 735.906 242.554ZM760.858 225.381V242H754.173V204.182H760.71V218.456H761.042C761.707 216.856 762.735 215.594 764.126 214.67C765.529 213.735 767.315 213.267 769.481 213.267C771.451 213.267 773.168 213.679 774.633 214.504C776.098 215.329 777.231 216.536 778.031 218.124C778.843 219.712 779.25 221.651 779.25 223.94V242H772.565V224.974C772.565 223.066 772.073 221.583 771.088 220.524C770.115 219.453 768.749 218.918 766.988 218.918C765.806 218.918 764.748 219.176 763.812 219.693C762.889 220.198 762.163 220.93 761.633 221.891C761.116 222.851 760.858 224.014 760.858 225.381ZM798.436 242.554C795.666 242.554 793.265 241.945 791.234 240.726C789.203 239.507 787.627 237.802 786.507 235.611C785.399 233.42 784.845 230.859 784.845 227.929C784.845 224.999 785.399 222.432 786.507 220.229C787.627 218.025 789.203 216.314 791.234 215.095C793.265 213.876 795.666 213.267 798.436 213.267C801.206 213.267 803.606 213.876 805.637 215.095C807.669 216.314 809.238 218.025 810.346 220.229C811.467 222.432 812.027 224.999 812.027 227.929C812.027 230.859 811.467 233.42 810.346 235.611C809.238 237.802 807.669 239.507 805.637 240.726C803.606 241.945 801.206 242.554 798.436 242.554ZM798.473 237.199C799.975 237.199 801.23 236.786 802.24 235.962C803.249 235.125 804 234.004 804.493 232.601C804.997 231.197 805.25 229.634 805.25 227.911C805.25 226.175 804.997 224.605 804.493 223.202C804 221.786 803.249 220.66 802.24 219.822C801.23 218.985 799.975 218.567 798.473 218.567C796.934 218.567 795.654 218.985 794.632 219.822C793.622 220.66 792.865 221.786 792.36 223.202C791.868 224.605 791.622 226.175 791.622 227.911C791.622 229.634 791.868 231.197 792.36 232.601C792.865 234.004 793.622 235.125 794.632 235.962C795.654 236.786 796.934 237.199 798.473 237.199ZM824.385 204.182V242H817.7V204.182H824.385ZM841.784 242.499C839.556 242.499 837.562 241.926 835.801 240.781C834.041 239.636 832.65 237.974 831.628 235.795C830.606 233.616 830.096 230.97 830.096 227.855C830.096 224.704 830.613 222.045 831.647 219.878C832.693 217.699 834.103 216.055 835.875 214.947C837.648 213.827 839.624 213.267 841.803 213.267C843.465 213.267 844.831 213.55 845.902 214.116C846.973 214.67 847.823 215.341 848.451 216.129C849.078 216.905 849.565 217.637 849.909 218.327H850.186V204.182H856.89V242H850.316V237.531H849.909C849.565 238.221 849.066 238.953 848.414 239.729C847.761 240.492 846.9 241.144 845.828 241.686C844.757 242.228 843.409 242.499 841.784 242.499ZM843.65 237.014C845.065 237.014 846.272 236.633 847.269 235.869C848.266 235.094 849.023 234.017 849.54 232.638C850.057 231.259 850.316 229.652 850.316 227.818C850.316 225.984 850.057 224.39 849.54 223.036C849.035 221.681 848.284 220.629 847.287 219.878C846.302 219.127 845.09 218.751 843.65 218.751C842.16 218.751 840.917 219.139 839.919 219.915C838.922 220.69 838.171 221.761 837.667 223.128C837.162 224.494 836.909 226.058 836.909 227.818C836.909 229.591 837.162 231.173 837.667 232.564C838.184 233.943 838.941 235.032 839.938 235.832C840.947 236.62 842.185 237.014 843.65 237.014ZM876.57 242.554C873.726 242.554 871.27 241.963 869.202 240.781C867.146 239.587 865.564 237.901 864.456 235.722C863.348 233.53 862.794 230.951 862.794 227.984C862.794 225.067 863.348 222.506 864.456 220.303C865.576 218.087 867.14 216.363 869.146 215.132C871.153 213.889 873.51 213.267 876.219 213.267C877.967 213.267 879.616 213.55 881.168 214.116C882.731 214.67 884.11 215.532 885.304 216.702C886.51 217.871 887.458 219.361 888.148 221.17C888.837 222.968 889.182 225.11 889.182 227.597V229.646H865.933V225.141H882.774C882.762 223.86 882.485 222.722 881.943 221.724C881.402 220.715 880.644 219.921 879.672 219.342C878.712 218.764 877.591 218.474 876.311 218.474C874.945 218.474 873.744 218.807 872.71 219.472C871.676 220.124 870.87 220.986 870.291 222.057C869.725 223.116 869.436 224.279 869.423 225.547V229.48C869.423 231.13 869.725 232.545 870.328 233.727C870.931 234.897 871.775 235.795 872.858 236.423C873.941 237.039 875.209 237.347 876.662 237.347C877.634 237.347 878.515 237.211 879.303 236.94C880.09 236.657 880.774 236.245 881.352 235.703C881.931 235.161 882.368 234.491 882.663 233.69L888.905 234.392C888.511 236.042 887.76 237.482 886.652 238.713C885.556 239.932 884.153 240.88 882.442 241.557C880.731 242.222 878.773 242.554 876.57 242.554ZM894.837 242V213.636H901.319V218.364H901.614C902.131 216.726 903.017 215.464 904.273 214.578C905.541 213.679 906.988 213.23 908.613 213.23C908.982 213.23 909.394 213.249 909.85 213.286C910.318 213.31 910.705 213.353 911.013 213.415V219.564C910.73 219.465 910.281 219.379 909.665 219.305C909.062 219.219 908.477 219.176 907.911 219.176C906.692 219.176 905.596 219.441 904.624 219.97C903.664 220.487 902.907 221.207 902.353 222.131C901.799 223.054 901.522 224.119 901.522 225.325V242H894.837Z" fill="white"/>
</svg>
