<svg width="1359" height="221" viewBox="0 0 1359 221" fill="none" xmlns="http://www.w3.org/2000/svg">
<path d="M542.101 103.942H535.195C534.998 102.809 534.634 101.806 534.105 100.932C533.576 100.045 532.917 99.2945 532.129 98.679C531.341 98.0634 530.443 97.6018 529.433 97.294C528.436 96.974 527.359 96.8139 526.202 96.8139C524.146 96.8139 522.324 97.331 520.736 98.3651C519.148 99.3868 517.904 100.889 517.006 102.871C516.107 104.84 515.658 107.247 515.658 110.091C515.658 112.984 516.107 115.421 517.006 117.403C517.917 119.373 519.16 120.863 520.736 121.872C522.324 122.869 524.14 123.368 526.183 123.368C527.316 123.368 528.375 123.22 529.359 122.925C530.357 122.617 531.249 122.168 532.037 121.577C532.837 120.986 533.508 120.259 534.05 119.398C534.604 118.536 534.985 117.551 535.195 116.443L542.101 116.48C541.842 118.277 541.282 119.964 540.42 121.54C539.571 123.116 538.457 124.507 537.078 125.713C535.699 126.907 534.087 127.843 532.24 128.52C530.393 129.185 528.344 129.517 526.091 129.517C522.767 129.517 519.8 128.748 517.19 127.209C514.58 125.67 512.525 123.448 511.023 120.543C509.521 117.637 508.77 114.153 508.77 110.091C508.77 106.016 509.527 102.532 511.041 99.6392C512.555 96.7339 514.617 94.5118 517.227 92.973C519.837 91.4342 522.792 90.6648 526.091 90.6648C528.196 90.6648 530.153 90.9602 531.963 91.5511C533.773 92.142 535.385 93.0099 536.801 94.1548C538.217 95.2874 539.38 96.6785 540.291 98.3281C541.214 99.9654 541.818 101.837 542.101 103.942ZM560.451 129.554C557.681 129.554 555.281 128.945 553.25 127.726C551.218 126.507 549.643 124.802 548.522 122.611C547.414 120.42 546.86 117.859 546.86 114.929C546.86 111.999 547.414 109.432 548.522 107.229C549.643 105.025 551.218 103.314 553.25 102.095C555.281 100.876 557.681 100.267 560.451 100.267C563.221 100.267 565.622 100.876 567.653 102.095C569.684 103.314 571.254 105.025 572.362 107.229C573.482 109.432 574.042 111.999 574.042 114.929C574.042 117.859 573.482 120.42 572.362 122.611C571.254 124.802 569.684 126.507 567.653 127.726C565.622 128.945 563.221 129.554 560.451 129.554ZM560.488 124.199C561.99 124.199 563.246 123.786 564.255 122.962C565.265 122.125 566.016 121.004 566.508 119.601C567.013 118.197 567.265 116.634 567.265 114.911C567.265 113.175 567.013 111.605 566.508 110.202C566.016 108.786 565.265 107.66 564.255 106.822C563.246 105.985 561.99 105.567 560.488 105.567C558.949 105.567 557.669 105.985 556.647 106.822C555.638 107.66 554.881 108.786 554.376 110.202C553.884 111.605 553.637 113.175 553.637 114.911C553.637 116.634 553.884 118.197 554.376 119.601C554.881 121.004 555.638 122.125 556.647 122.962C557.669 123.786 558.949 124.199 560.488 124.199ZM579.716 129V100.636H586.105V105.456H586.438C587.028 103.831 588.007 102.563 589.374 101.652C590.74 100.729 592.371 100.267 594.267 100.267C596.188 100.267 597.806 100.735 599.124 101.67C600.453 102.594 601.389 103.856 601.93 105.456H602.226C602.854 103.88 603.912 102.625 605.402 101.689C606.904 100.741 608.683 100.267 610.739 100.267C613.348 100.267 615.478 101.092 617.128 102.741C618.777 104.391 619.602 106.798 619.602 109.962V129H612.899V110.996C612.899 109.235 612.431 107.949 611.496 107.136C610.56 106.312 609.415 105.899 608.061 105.899C606.448 105.899 605.187 106.404 604.276 107.413C603.377 108.411 602.928 109.709 602.928 111.31V129H596.372V110.719C596.372 109.254 595.929 108.084 595.043 107.21C594.169 106.336 593.024 105.899 591.608 105.899C590.648 105.899 589.774 106.145 588.986 106.638C588.198 107.118 587.57 107.801 587.102 108.688C586.634 109.562 586.401 110.583 586.401 111.753V129H579.716ZM626.384 129V100.636H633.069V129H626.384ZM629.745 96.6108C628.686 96.6108 627.775 96.2599 627.012 95.5582C626.248 94.8442 625.867 93.9886 625.867 92.9915C625.867 91.982 626.248 91.1264 627.012 90.4247C627.775 89.7107 628.686 89.3537 629.745 89.3537C630.816 89.3537 631.727 89.7107 632.478 90.4247C633.241 91.1264 633.623 91.982 633.623 92.9915C633.623 93.9886 633.241 94.8442 632.478 95.5582C631.727 96.2599 630.816 96.6108 629.745 96.6108ZM646.627 112.381V129H639.942V100.636H646.332V105.456H646.664C647.317 103.868 648.357 102.606 649.785 101.67C651.225 100.735 653.004 100.267 655.121 100.267C657.079 100.267 658.784 100.686 660.237 101.523C661.701 102.36 662.834 103.572 663.634 105.161C664.447 106.749 664.847 108.675 664.835 110.94V129H658.15V111.974C658.15 110.079 657.657 108.595 656.673 107.524C655.7 106.453 654.352 105.918 652.629 105.918C651.459 105.918 650.419 106.176 649.508 106.693C648.609 107.198 647.901 107.93 647.384 108.891C646.879 109.851 646.627 111.014 646.627 112.381ZM683.965 140.227C681.565 140.227 679.503 139.901 677.779 139.249C676.056 138.608 674.671 137.747 673.624 136.663C672.578 135.58 671.852 134.38 671.445 133.062L677.465 131.604C677.736 132.158 678.13 132.705 678.647 133.247C679.164 133.801 679.86 134.257 680.734 134.614C681.62 134.983 682.734 135.168 684.076 135.168C685.972 135.168 687.541 134.706 688.785 133.783C690.028 132.872 690.65 131.37 690.65 129.277V123.903H690.317C689.973 124.593 689.468 125.301 688.803 126.027C688.151 126.753 687.283 127.363 686.2 127.855C685.129 128.348 683.781 128.594 682.156 128.594C679.977 128.594 678.001 128.083 676.228 127.061C674.468 126.027 673.064 124.488 672.018 122.445C670.984 120.389 670.467 117.816 670.467 114.726C670.467 111.611 670.984 108.983 672.018 106.841C673.064 104.687 674.474 103.055 676.246 101.947C678.019 100.827 679.995 100.267 682.174 100.267C683.836 100.267 685.202 100.55 686.273 101.116C687.357 101.67 688.219 102.341 688.859 103.129C689.499 103.905 689.985 104.637 690.317 105.327H690.687V100.636H697.279V129.462C697.279 131.887 696.701 133.893 695.543 135.482C694.386 137.07 692.804 138.258 690.798 139.045C688.791 139.833 686.513 140.227 683.965 140.227ZM684.021 123.349C685.436 123.349 686.643 123.005 687.64 122.315C688.637 121.626 689.394 120.635 689.911 119.342C690.428 118.05 690.687 116.499 690.687 114.689C690.687 112.904 690.428 111.34 689.911 109.999C689.406 108.657 688.656 107.616 687.658 106.878C686.674 106.127 685.461 105.751 684.021 105.751C682.531 105.751 681.288 106.139 680.29 106.915C679.293 107.69 678.542 108.755 678.038 110.109C677.533 111.451 677.281 112.978 677.281 114.689C677.281 116.425 677.533 117.945 678.038 119.25C678.555 120.543 679.312 121.552 680.309 122.278C681.318 122.992 682.556 123.349 684.021 123.349ZM739.446 108.134L733.352 108.798C733.18 108.183 732.878 107.604 732.447 107.062C732.029 106.521 731.463 106.084 730.749 105.751C730.035 105.419 729.161 105.253 728.126 105.253C726.735 105.253 725.566 105.554 724.618 106.158C723.682 106.761 723.221 107.543 723.233 108.503C723.221 109.328 723.522 109.999 724.138 110.516C724.766 111.033 725.8 111.457 727.24 111.79L732.078 112.824C734.762 113.402 736.756 114.32 738.061 115.575C739.378 116.831 740.043 118.474 740.055 120.506C740.043 122.291 739.52 123.866 738.486 125.233C737.464 126.587 736.042 127.646 734.22 128.409C732.398 129.172 730.305 129.554 727.942 129.554C724.47 129.554 721.676 128.828 719.558 127.375C717.441 125.91 716.179 123.873 715.773 121.263L722.291 120.635C722.587 121.915 723.214 122.882 724.175 123.534C725.135 124.187 726.384 124.513 727.923 124.513C729.511 124.513 730.786 124.187 731.746 123.534C732.718 122.882 733.205 122.075 733.205 121.115C733.205 120.303 732.891 119.632 732.263 119.102C731.647 118.573 730.687 118.167 729.382 117.884L724.544 116.868C721.823 116.302 719.811 115.348 718.506 114.006C717.201 112.652 716.554 110.94 716.567 108.872C716.554 107.124 717.028 105.61 717.989 104.33C718.961 103.037 720.309 102.04 722.033 101.338C723.768 100.624 725.769 100.267 728.034 100.267C731.358 100.267 733.974 100.975 735.882 102.391C737.803 103.806 738.991 105.721 739.446 108.134ZM757.94 129.554C755.17 129.554 752.769 128.945 750.738 127.726C748.707 126.507 747.131 124.802 746.011 122.611C744.903 120.42 744.349 117.859 744.349 114.929C744.349 111.999 744.903 109.432 746.011 107.229C747.131 105.025 748.707 103.314 750.738 102.095C752.769 100.876 755.17 100.267 757.94 100.267C760.71 100.267 763.11 100.876 765.141 102.095C767.173 103.314 768.742 105.025 769.85 107.229C770.97 109.432 771.531 111.999 771.531 114.929C771.531 117.859 770.97 120.42 769.85 122.611C768.742 124.802 767.173 126.507 765.141 127.726C763.11 128.945 760.71 129.554 757.94 129.554ZM757.977 124.199C759.478 124.199 760.734 123.786 761.744 122.962C762.753 122.125 763.504 121.004 763.996 119.601C764.501 118.197 764.754 116.634 764.754 114.911C764.754 113.175 764.501 111.605 763.996 110.202C763.504 108.786 762.753 107.66 761.744 106.822C760.734 105.985 759.478 105.567 757.977 105.567C756.438 105.567 755.157 105.985 754.136 106.822C753.126 107.66 752.369 108.786 751.864 110.202C751.372 111.605 751.126 113.175 751.126 114.911C751.126 116.634 751.372 118.197 751.864 119.601C752.369 121.004 753.126 122.125 754.136 122.962C755.157 123.786 756.438 124.199 757.977 124.199ZM789.576 129.554C786.806 129.554 784.406 128.945 782.375 127.726C780.343 126.507 778.768 124.802 777.647 122.611C776.539 120.42 775.985 117.859 775.985 114.929C775.985 111.999 776.539 109.432 777.647 107.229C778.768 105.025 780.343 103.314 782.375 102.095C784.406 100.876 786.806 100.267 789.576 100.267C792.346 100.267 794.747 100.876 796.778 102.095C798.809 103.314 800.379 105.025 801.487 107.229C802.607 109.432 803.167 111.999 803.167 114.929C803.167 117.859 802.607 120.42 801.487 122.611C800.379 124.802 798.809 126.507 796.778 127.726C794.747 128.945 792.346 129.554 789.576 129.554ZM789.613 124.199C791.115 124.199 792.371 123.786 793.38 122.962C794.39 122.125 795.141 121.004 795.633 119.601C796.138 118.197 796.39 116.634 796.39 114.911C796.39 113.175 796.138 111.605 795.633 110.202C795.141 108.786 794.39 107.66 793.38 106.822C792.371 105.985 791.115 105.567 789.613 105.567C788.074 105.567 786.794 105.985 785.772 106.822C784.763 107.66 784.006 108.786 783.501 110.202C783.009 111.605 782.762 113.175 782.762 114.911C782.762 116.634 783.009 118.197 783.501 119.601C784.006 121.004 784.763 122.125 785.772 122.962C786.794 123.786 788.074 124.199 789.613 124.199ZM808.841 129V100.636H815.23V105.456H815.562C816.153 103.831 817.132 102.563 818.499 101.652C819.865 100.729 821.496 100.267 823.392 100.267C825.312 100.267 826.931 100.735 828.249 101.67C829.578 102.594 830.514 103.856 831.055 105.456H831.351C831.979 103.88 833.037 102.625 834.527 101.689C836.029 100.741 837.808 100.267 839.864 100.267C842.473 100.267 844.603 101.092 846.253 102.741C847.902 104.391 848.727 106.798 848.727 109.962V129H842.024V110.996C842.024 109.235 841.556 107.949 840.621 107.136C839.685 106.312 838.54 105.899 837.186 105.899C835.573 105.899 834.312 106.404 833.401 107.413C832.502 108.411 832.053 109.709 832.053 111.31V129H825.497V110.719C825.497 109.254 825.054 108.084 824.168 107.21C823.294 106.336 822.149 105.899 820.733 105.899C819.773 105.899 818.899 106.145 818.111 106.638C817.323 107.118 816.695 107.801 816.227 108.688C815.759 109.562 815.526 110.583 815.526 111.753V129H808.841Z" fill="#EFEFEF"/>
</svg>
