<svg width="1359" height="636" viewBox="0 0 1359 636" fill="none" xmlns="http://www.w3.org/2000/svg">
<rect width="1359" height="636" rx="32" fill="#F5F5F5"/>
<path d="M456.581 298.182V336H449.73V298.182H456.581ZM463.704 336V307.636H470.093V312.456H470.426C471.017 310.831 471.995 309.563 473.362 308.652C474.728 307.729 476.359 307.267 478.255 307.267C480.176 307.267 481.795 307.735 483.112 308.67C484.441 309.594 485.377 310.856 485.919 312.456H486.214C486.842 310.88 487.901 309.625 489.39 308.689C490.892 307.741 492.671 307.267 494.727 307.267C497.337 307.267 499.467 308.092 501.116 309.741C502.766 311.391 503.591 313.798 503.591 316.962V336H496.887V317.996C496.887 316.235 496.42 314.949 495.484 314.136C494.548 313.312 493.404 312.899 492.049 312.899C490.437 312.899 489.175 313.404 488.264 314.413C487.365 315.411 486.916 316.709 486.916 318.31V336H480.36V317.719C480.36 316.254 479.917 315.084 479.031 314.21C478.157 313.336 477.012 312.899 475.596 312.899C474.636 312.899 473.762 313.145 472.974 313.638C472.186 314.118 471.558 314.801 471.091 315.688C470.623 316.562 470.389 317.583 470.389 318.753V336H463.704ZM518.534 336.572C516.737 336.572 515.118 336.252 513.678 335.612C512.25 334.96 511.117 334 510.28 332.732C509.455 331.464 509.043 329.9 509.043 328.041C509.043 326.441 509.338 325.117 509.929 324.071C510.52 323.025 511.326 322.188 512.348 321.56C513.37 320.932 514.521 320.458 515.801 320.138C517.094 319.805 518.429 319.565 519.808 319.418C521.47 319.245 522.818 319.091 523.852 318.956C524.886 318.808 525.637 318.587 526.105 318.291C526.585 317.983 526.825 317.509 526.825 316.869V316.759C526.825 315.367 526.413 314.29 525.588 313.527C524.763 312.764 523.575 312.382 522.024 312.382C520.387 312.382 519.088 312.739 518.128 313.453C517.18 314.167 516.54 315.01 516.207 315.983L509.966 315.097C510.458 313.373 511.271 311.933 512.403 310.776C513.536 309.606 514.921 308.732 516.558 308.153C518.196 307.562 520.005 307.267 521.987 307.267C523.354 307.267 524.714 307.427 526.068 307.747C527.422 308.067 528.66 308.597 529.78 309.335C530.9 310.062 531.799 311.053 532.476 312.308C533.165 313.564 533.51 315.134 533.51 317.017V336H527.084V332.104H526.862C526.456 332.892 525.884 333.63 525.145 334.32C524.419 334.997 523.501 335.545 522.393 335.963C521.298 336.369 520.011 336.572 518.534 336.572ZM520.27 331.661C521.612 331.661 522.775 331.396 523.76 330.866C524.745 330.325 525.502 329.611 526.031 328.724C526.573 327.838 526.844 326.872 526.844 325.825V322.483C526.634 322.655 526.277 322.815 525.773 322.963C525.28 323.111 524.726 323.24 524.111 323.351C523.495 323.462 522.886 323.56 522.283 323.646C521.679 323.732 521.156 323.806 520.713 323.868C519.716 324.003 518.823 324.225 518.036 324.533C517.248 324.84 516.626 325.271 516.17 325.825C515.715 326.367 515.487 327.069 515.487 327.93C515.487 329.161 515.937 330.091 516.835 330.719C517.734 331.347 518.879 331.661 520.27 331.661ZM552.567 347.227C550.166 347.227 548.104 346.901 546.381 346.249C544.657 345.608 543.272 344.747 542.226 343.663C541.179 342.58 540.453 341.38 540.047 340.062L546.067 338.604C546.338 339.158 546.732 339.705 547.249 340.247C547.766 340.801 548.461 341.257 549.335 341.614C550.222 341.983 551.336 342.168 552.678 342.168C554.573 342.168 556.143 341.706 557.386 340.783C558.63 339.872 559.251 338.37 559.251 336.277V330.903H558.919C558.574 331.593 558.07 332.301 557.405 333.027C556.752 333.753 555.884 334.363 554.801 334.855C553.73 335.348 552.382 335.594 550.757 335.594C548.578 335.594 546.602 335.083 544.83 334.061C543.069 333.027 541.666 331.488 540.619 329.445C539.585 327.389 539.068 324.816 539.068 321.726C539.068 318.611 539.585 315.983 540.619 313.841C541.666 311.687 543.075 310.055 544.848 308.947C546.621 307.827 548.597 307.267 550.776 307.267C552.438 307.267 553.804 307.55 554.875 308.116C555.958 308.67 556.82 309.341 557.46 310.129C558.1 310.905 558.587 311.637 558.919 312.327H559.288V307.636H565.881V336.462C565.881 338.887 565.302 340.893 564.145 342.482C562.988 344.07 561.406 345.258 559.399 346.045C557.393 346.833 555.115 347.227 552.567 347.227ZM552.622 330.349C554.038 330.349 555.244 330.005 556.241 329.315C557.239 328.626 557.996 327.635 558.513 326.342C559.03 325.05 559.288 323.499 559.288 321.689C559.288 319.904 559.03 318.34 558.513 316.999C558.008 315.657 557.257 314.616 556.26 313.878C555.275 313.127 554.063 312.751 552.622 312.751C551.133 312.751 549.889 313.139 548.892 313.915C547.895 314.69 547.144 315.755 546.639 317.109C546.134 318.451 545.882 319.978 545.882 321.689C545.882 323.425 546.134 324.945 546.639 326.25C547.156 327.543 547.913 328.552 548.911 329.278C549.92 329.992 551.157 330.349 552.622 330.349ZM585.288 336.554C582.445 336.554 579.989 335.963 577.92 334.781C575.865 333.587 574.283 331.901 573.175 329.722C572.067 327.53 571.513 324.951 571.513 321.984C571.513 319.067 572.067 316.506 573.175 314.303C574.295 312.087 575.858 310.363 577.865 309.132C579.872 307.889 582.229 307.267 584.938 307.267C586.686 307.267 588.335 307.55 589.886 308.116C591.45 308.67 592.829 309.532 594.023 310.702C595.229 311.871 596.177 313.361 596.866 315.17C597.556 316.968 597.901 319.11 597.901 321.597V323.646H574.652V319.141H591.493C591.481 317.86 591.204 316.722 590.662 315.724C590.12 314.715 589.363 313.921 588.391 313.342C587.43 312.764 586.31 312.474 585.03 312.474C583.663 312.474 582.463 312.807 581.429 313.472C580.395 314.124 579.589 314.986 579.01 316.057C578.444 317.116 578.154 318.279 578.142 319.547V323.48C578.142 325.13 578.444 326.545 579.047 327.727C579.65 328.897 580.493 329.795 581.577 330.423C582.66 331.039 583.928 331.347 585.381 331.347C586.353 331.347 587.233 331.211 588.021 330.94C588.809 330.657 589.492 330.245 590.071 329.703C590.65 329.161 591.087 328.491 591.382 327.69L597.624 328.392C597.23 330.042 596.479 331.482 595.371 332.713C594.275 333.932 592.872 334.88 591.161 335.557C589.449 336.222 587.492 336.554 585.288 336.554ZM616.75 336V298.182H630.931C633.837 298.182 636.274 298.723 638.244 299.807C640.226 300.89 641.722 302.38 642.731 304.276C643.753 306.159 644.264 308.301 644.264 310.702C644.264 313.127 643.753 315.281 642.731 317.165C641.709 319.048 640.201 320.532 638.207 321.615C636.213 322.686 633.757 323.222 630.839 323.222H621.44V317.589H629.916C631.615 317.589 633.006 317.294 634.089 316.703C635.172 316.112 635.973 315.3 636.49 314.266C637.019 313.232 637.284 312.044 637.284 310.702C637.284 309.36 637.019 308.178 636.49 307.156C635.973 306.134 635.166 305.34 634.071 304.774C632.987 304.196 631.59 303.906 629.879 303.906H623.6V336H616.75ZM656.604 298.182V336H649.919V298.182H656.604ZM671.64 336.572C669.842 336.572 668.223 336.252 666.783 335.612C665.355 334.96 664.222 334 663.385 332.732C662.56 331.464 662.148 329.9 662.148 328.041C662.148 326.441 662.444 325.117 663.034 324.071C663.625 323.025 664.432 322.188 665.453 321.56C666.475 320.932 667.626 320.458 668.907 320.138C670.199 319.805 671.535 319.565 672.914 319.418C674.576 319.245 675.924 319.091 676.958 318.956C677.992 318.808 678.743 318.587 679.211 318.291C679.691 317.983 679.931 317.509 679.931 316.869V316.759C679.931 315.367 679.518 314.29 678.694 313.527C677.869 312.764 676.681 312.382 675.13 312.382C673.492 312.382 672.194 312.739 671.233 313.453C670.285 314.167 669.645 315.01 669.313 315.983L663.071 315.097C663.564 313.373 664.376 311.933 665.509 310.776C666.641 309.606 668.026 308.732 669.664 308.153C671.301 307.562 673.111 307.267 675.093 307.267C676.459 307.267 677.819 307.427 679.174 307.747C680.528 308.067 681.765 308.597 682.885 309.335C684.006 310.062 684.904 311.053 685.581 312.308C686.271 313.564 686.615 315.134 686.615 317.017V336H680.189V332.104H679.968C679.561 332.892 678.989 333.63 678.25 334.32C677.524 334.997 676.607 335.545 675.499 335.963C674.403 336.369 673.117 336.572 671.64 336.572ZM673.375 331.661C674.717 331.661 675.881 331.396 676.865 330.866C677.85 330.325 678.607 329.611 679.137 328.724C679.678 327.838 679.949 326.872 679.949 325.825V322.483C679.74 322.655 679.383 322.815 678.878 322.963C678.386 323.111 677.832 323.24 677.216 323.351C676.601 323.462 675.991 323.56 675.388 323.646C674.785 323.732 674.262 323.806 673.819 323.868C672.821 324.003 671.929 324.225 671.141 324.533C670.353 324.84 669.731 325.271 669.276 325.825C668.82 326.367 668.593 327.069 668.593 327.93C668.593 329.161 669.042 330.091 669.941 330.719C670.839 331.347 671.984 331.661 673.375 331.661ZM705.709 336.554C702.878 336.554 700.446 335.932 698.415 334.689C696.396 333.446 694.839 331.728 693.743 329.537C692.66 327.333 692.118 324.797 692.118 321.929C692.118 319.048 692.672 316.506 693.78 314.303C694.888 312.087 696.452 310.363 698.471 309.132C700.502 307.889 702.902 307.267 705.672 307.267C707.974 307.267 710.012 307.692 711.784 308.541C713.569 309.378 714.991 310.566 716.05 312.105C717.109 313.632 717.712 315.417 717.86 317.46H711.471C711.212 316.094 710.596 314.955 709.624 314.044C708.664 313.121 707.377 312.659 705.765 312.659C704.398 312.659 703.198 313.028 702.164 313.767C701.13 314.493 700.323 315.54 699.745 316.906C699.178 318.273 698.895 319.91 698.895 321.818C698.895 323.751 699.178 325.413 699.745 326.804C700.311 328.183 701.105 329.248 702.127 329.999C703.161 330.737 704.373 331.107 705.765 331.107C706.749 331.107 707.63 330.922 708.405 330.553C709.193 330.171 709.852 329.623 710.381 328.909C710.91 328.195 711.274 327.327 711.471 326.305H717.86C717.7 328.312 717.109 330.091 716.087 331.642C715.065 333.181 713.674 334.387 711.914 335.261C710.153 336.123 708.085 336.554 705.709 336.554ZM735.906 336.554C733.062 336.554 730.606 335.963 728.538 334.781C726.482 333.587 724.9 331.901 723.792 329.722C722.684 327.53 722.13 324.951 722.13 321.984C722.13 319.067 722.684 316.506 723.792 314.303C724.912 312.087 726.476 310.363 728.482 309.132C730.489 307.889 732.846 307.267 735.555 307.267C737.303 307.267 738.952 307.55 740.504 308.116C742.067 308.67 743.446 309.532 744.64 310.702C745.846 311.871 746.794 313.361 747.484 315.17C748.173 316.968 748.518 319.11 748.518 321.597V323.646H725.269V319.141H742.11C742.098 317.86 741.821 316.722 741.279 315.724C740.737 314.715 739.98 313.921 739.008 313.342C738.048 312.764 736.927 312.474 735.647 312.474C734.281 312.474 733.08 312.807 732.046 313.472C731.012 314.124 730.206 314.986 729.627 316.057C729.061 317.116 728.772 318.279 728.759 319.547V323.48C728.759 325.13 729.061 326.545 729.664 327.727C730.267 328.897 731.111 329.795 732.194 330.423C733.277 331.039 734.545 331.347 735.998 331.347C736.97 331.347 737.851 331.211 738.638 330.94C739.426 330.657 740.11 330.245 740.688 329.703C741.267 329.161 741.704 328.491 741.999 327.69L748.241 328.392C747.847 330.042 747.096 331.482 745.988 332.713C744.892 333.932 743.489 334.88 741.778 335.557C740.067 336.222 738.109 336.554 735.906 336.554ZM760.858 319.381V336H754.173V298.182H760.71V312.456H761.042C761.707 310.856 762.735 309.594 764.126 308.67C765.529 307.735 767.315 307.267 769.481 307.267C771.451 307.267 773.168 307.679 774.633 308.504C776.098 309.329 777.231 310.536 778.031 312.124C778.843 313.712 779.25 315.651 779.25 317.94V336H772.565V318.974C772.565 317.066 772.073 315.583 771.088 314.524C770.115 313.453 768.749 312.918 766.988 312.918C765.806 312.918 764.748 313.176 763.812 313.693C762.889 314.198 762.163 314.93 761.633 315.891C761.116 316.851 760.858 318.014 760.858 319.381ZM798.436 336.554C795.666 336.554 793.265 335.945 791.234 334.726C789.203 333.507 787.627 331.802 786.507 329.611C785.399 327.42 784.845 324.859 784.845 321.929C784.845 318.999 785.399 316.432 786.507 314.229C787.627 312.025 789.203 310.314 791.234 309.095C793.265 307.876 795.666 307.267 798.436 307.267C801.206 307.267 803.606 307.876 805.637 309.095C807.669 310.314 809.238 312.025 810.346 314.229C811.467 316.432 812.027 318.999 812.027 321.929C812.027 324.859 811.467 327.42 810.346 329.611C809.238 331.802 807.669 333.507 805.637 334.726C803.606 335.945 801.206 336.554 798.436 336.554ZM798.473 331.199C799.975 331.199 801.23 330.786 802.24 329.962C803.249 329.125 804 328.004 804.493 326.601C804.997 325.197 805.25 323.634 805.25 321.911C805.25 320.175 804.997 318.605 804.493 317.202C804 315.786 803.249 314.66 802.24 313.822C801.23 312.985 799.975 312.567 798.473 312.567C796.934 312.567 795.654 312.985 794.632 313.822C793.622 314.66 792.865 315.786 792.36 317.202C791.868 318.605 791.622 320.175 791.622 321.911C791.622 323.634 791.868 325.197 792.36 326.601C792.865 328.004 793.622 329.125 794.632 329.962C795.654 330.786 796.934 331.199 798.473 331.199ZM824.385 298.182V336H817.7V298.182H824.385ZM841.784 336.499C839.556 336.499 837.562 335.926 835.801 334.781C834.041 333.636 832.65 331.974 831.628 329.795C830.606 327.616 830.096 324.97 830.096 321.855C830.096 318.704 830.613 316.045 831.647 313.878C832.693 311.699 834.103 310.055 835.875 308.947C837.648 307.827 839.624 307.267 841.803 307.267C843.465 307.267 844.831 307.55 845.902 308.116C846.973 308.67 847.823 309.341 848.451 310.129C849.078 310.905 849.565 311.637 849.909 312.327H850.186V298.182H856.89V336H850.316V331.531H849.909C849.565 332.221 849.066 332.953 848.414 333.729C847.761 334.492 846.9 335.144 845.828 335.686C844.757 336.228 843.409 336.499 841.784 336.499ZM843.65 331.014C845.065 331.014 846.272 330.633 847.269 329.869C848.266 329.094 849.023 328.017 849.54 326.638C850.057 325.259 850.316 323.652 850.316 321.818C850.316 319.984 850.057 318.39 849.54 317.036C849.035 315.681 848.284 314.629 847.287 313.878C846.302 313.127 845.09 312.751 843.65 312.751C842.16 312.751 840.917 313.139 839.919 313.915C838.922 314.69 838.171 315.761 837.667 317.128C837.162 318.494 836.909 320.058 836.909 321.818C836.909 323.591 837.162 325.173 837.667 326.564C838.184 327.943 838.941 329.032 839.938 329.832C840.947 330.62 842.185 331.014 843.65 331.014ZM876.57 336.554C873.726 336.554 871.27 335.963 869.202 334.781C867.146 333.587 865.564 331.901 864.456 329.722C863.348 327.53 862.794 324.951 862.794 321.984C862.794 319.067 863.348 316.506 864.456 314.303C865.576 312.087 867.14 310.363 869.146 309.132C871.153 307.889 873.51 307.267 876.219 307.267C877.967 307.267 879.616 307.55 881.168 308.116C882.731 308.67 884.11 309.532 885.304 310.702C886.51 311.871 887.458 313.361 888.148 315.17C888.837 316.968 889.182 319.11 889.182 321.597V323.646H865.933V319.141H882.774C882.762 317.86 882.485 316.722 881.943 315.724C881.402 314.715 880.644 313.921 879.672 313.342C878.712 312.764 877.591 312.474 876.311 312.474C874.945 312.474 873.744 312.807 872.71 313.472C871.676 314.124 870.87 314.986 870.291 316.057C869.725 317.116 869.436 318.279 869.423 319.547V323.48C869.423 325.13 869.725 326.545 870.328 327.727C870.931 328.897 871.775 329.795 872.858 330.423C873.941 331.039 875.209 331.347 876.662 331.347C877.634 331.347 878.515 331.211 879.303 330.94C880.09 330.657 880.774 330.245 881.352 329.703C881.931 329.161 882.368 328.491 882.663 327.69L888.905 328.392C888.511 330.042 887.76 331.482 886.652 332.713C885.556 333.932 884.153 334.88 882.442 335.557C880.731 336.222 878.773 336.554 876.57 336.554ZM894.837 336V307.636H901.319V312.364H901.614C902.131 310.726 903.017 309.464 904.273 308.578C905.541 307.679 906.988 307.23 908.613 307.23C908.982 307.23 909.394 307.249 909.85 307.286C910.318 307.31 910.705 307.353 911.013 307.415V313.564C910.73 313.465 910.281 313.379 909.665 313.305C909.062 313.219 908.477 313.176 907.911 313.176C906.692 313.176 905.596 313.441 904.624 313.97C903.664 314.487 902.907 315.207 902.353 316.131C901.799 317.054 901.522 318.119 901.522 319.325V336H894.837Z" fill="white"/>
</svg>
