<?xml version="1.0" encoding="utf-8"?>
<!-- Generator: Adobe Illustrator 25.2.1, SVG Export Plug-In . SVG Version: 6.00 Build 0)  -->
<svg version="1.1" id="Layer_1" xmlns="http://www.w3.org/2000/svg" xmlns:xlink="http://www.w3.org/1999/xlink" x="0px" y="0px"
	 viewBox="0 0 144 144" style="enable-background:new 0 0 144 144;" xml:space="preserve">
<style type="text/css">
	.st0{fill:#FFBF00;}
	.st1{fill:#E5E5E5;}
	.st2{fill:#FFE1AB;}
	.st3{fill:#424242;}
	.st4{fill:#EDD1BC;}
	.st5{fill:#544A45;}
	.st6{fill:#FFFFFF;}
	.st7{fill:#D89B12;}
	.st8{fill:none;stroke:#494949;stroke-miterlimit:10;}
</style>
<g id="circle">
	<circle class="st0" cx="72" cy="72" r="72"/>
</g>
<g id="vector">
	<path class="st1" d="M113.2,113.6c1.3,0.3,2.4,0.9,3.4,1.7c1.1,0.9,1.8,2.1,2,3.5v8.1c-5.4,4.5-11.4,8.3-17.8,11.1l5.5-26.4
		l2.9,0.8L113.2,113.6z"/>
	<path class="st1" d="M30.8,113.6c-1.3,0.3-2.4,0.9-3.4,1.7c-1.1,0.9-1.8,2.2-2,3.5v8.1c5.3,4.5,11.3,8.3,17.8,11.1l-5.5-26.4
		l-2.9,0.8L30.8,113.6z"/>
	<path class="st2" d="M95.8,56c-5.6,0.6-11.2-0.1-16.4-2.1c-3.7-1.3-7-3.4-9.8-6.2c-2.1-2.2-4-4.7-5.6-7.3c-2.1,0.3-4.1,0.9-6,1.8
		c-1.7,0.8-3.3,1.9-4.7,3.3c-2.6,2.7-4.5,6.1-5.2,9.8v14.7c0.1,1.6,0.4,3.2,0.8,4.8c1.1,3.1,2.9,6,5.2,8.5c3.1,3.7,6.8,6.8,11.1,9.1
		c1.1,0.6,2.3,1,3.5,1.3c2.1,0.5,4.3,0.5,6.5,0c1.2-0.3,2.4-0.7,3.5-1.3c4.2-2.3,8-5.4,11-9.1c2.3-2.5,4-5.3,5.2-8.5
		c0.5-1.6,0.7-3.2,0.8-4.8L95.8,56z"/>
	<path class="st3" d="M95.9,39.8c-0.2-1.7-0.6-3.4-1.2-4.9c-0.9-2.2-2.4-4.2-4.2-5.8c-3.6-3-8.5-4-13.2-4.5
		c-2.8-0.4-5.7-0.5-8.6-0.4c-4.4,0.1-8.6,1.3-12.5,3.3c-2.1,1.1-3.9,2.5-5.3,4.3c-1.8,2.7-2.9,5.7-3.3,8.9
		c-0.8,4.9-0.6,9.9,0.6,14.6c0.8-3.7,2.6-7.1,5.2-9.8c1.4-1.3,3-2.4,4.7-3.3c1.9-0.9,3.9-1.5,6-1.8c1.6,2.6,3.5,5.1,5.6,7.3
		c2.8,2.7,6.1,4.9,9.8,6.2c6.2,2.3,13.6,3.1,19.5,1.5c2.1-0.5,4-1.6,5.5-3.2c-2.2,0.4-4.5-0.1-6.4-1.4c-1-0.8-1.8-1.8-2.3-2.9
		c3.2,1.4,6.9,0.5,9-2.2c-1.4-0.1-2.7-0.4-4-1C98.7,43.6,97,41.9,95.9,39.8z"/>
	<path class="st2" d="M95.8,56c0.3,0,0.6-0.1,0.9-0.1c0.6,0.5,1,1.1,1.4,1.8c0.6,1.3,0.8,2.7,0.7,4.1c-0.2,2.9-1.2,5.7-3,8L95.8,56z
		"/>
	<path class="st4" d="M61.2,89.8c1.3,0.9,2.6,1.7,4,2.4c1.1,0.6,2.3,1,3.5,1.3c2.1,0.5,4.3,0.5,6.5,0c1.2-0.3,2.4-0.7,3.5-1.3
		c1.4-0.7,2.7-1.5,4-2.4V103L72,108.8L61.2,103V89.8z"/>
	<path class="st1" d="M77.4,117c0,0.5-0.2,0.9-0.7,1.2l-1.2,0.7c-0.1,0.1-0.2,0.1-0.3,0.1h-0.4c0.6,3,1.2,5.9,1.8,8.9l3.6-8.1
		l-8.2-11l5.4,7.3L77.4,117z"/>
	<path class="st1" d="M63.8,119.8l3.6,8.1c0.6-3,1.2-5.9,1.8-8.9h-0.4c-0.1,0-0.2,0-0.3-0.1l-1.2-0.7c-0.4-0.2-0.7-0.7-0.7-1.2v-0.9
		l5.4-7.4l-8.2,11.1L63.8,119.8z"/>
	<path class="st5" d="M94.5,108.2c-2.8-1-5.4-2.1-8.1-3.2l-3.5,12.2c-0.2,0.8-0.6,1.6-1.2,2.3l-0.3,0.4c-0.4,0.5-0.8,0.5-1.2,0
		l-0.1-0.1l-3.6,8.1c0.9,4.6,1.8,9.2,2.8,13.7l-0.4,2c7.5-0.7,14.9-2.6,21.9-5.6l5.5-26.4C102.3,110.5,98.4,109.5,94.5,108.2z"/>
	<path class="st5" d="M67.5,127.9l-3.6-8.1l-0.1,0.1c-0.4,0.5-0.8,0.5-1.2,0l-0.3-0.4c-0.5-0.7-0.9-1.5-1.2-2.3L57.6,105
		c-2.7,1.2-5.3,2.3-8.1,3.2c-3.9,1.3-7.8,2.3-11.8,3.4l5.5,26.3c6.9,3,14.3,5,21.9,5.7l-0.4-2C65.6,137.1,66.5,132.5,67.5,127.9z"/>
	<path class="st6" d="M80.2,119.9c0.4,0.5,0.8,0.5,1.2,0l0.3-0.4c0.5-0.7,0.9-1.5,1.2-2.3l3.5-12.1l-3.7-2L72,108.8l8.2,11
		L80.2,119.9z"/>
	<path class="st6" d="M62.3,119.5l0.3,0.4c0.4,0.5,0.8,0.5,1.2,0l8.2-11.1L61.2,103l-3.7,2l3.5,12.2C61.4,118,61.8,118.8,62.3,119.5
		z"/>
	<path class="st7" d="M76.5,127.9L76.5,127.9c-0.6-3-1.2-5.9-1.8-8.9h0.4c0.1,0,0.2,0,0.3-0.1l1.2-0.7c0.4-0.2,0.7-0.7,0.7-1.2v-0.9
		l-5.4-7.4l-5.4,7.3v0.9c0,0.5,0.3,1,0.7,1.2l1.2,0.7c0.1,0.1,0.2,0.1,0.3,0.1h0.4c-0.6,3-1.2,5.9-1.8,8.9l0,0
		c-0.9,4.6-1.8,9.2-2.8,13.8l0.4,2c4.6,0.4,9.2,0.4,13.8,0l0.4-2C78.4,137.1,77.5,132.5,76.5,127.9z"/>
	<path class="st2" d="M48.2,55.2v14.6c-1.7-2.3-2.8-5.1-3-8c-0.1-1.4,0.1-2.8,0.7-4.1C46.4,56.7,47.2,55.8,48.2,55.2z"/>
</g>
<g id="mouth">
	<line class="st8" x1="68.2" y1="81.9" x2="75.8" y2="81.9"/>
</g>
</svg>
