<?xml version="1.0" encoding="utf-8"?>
<!-- Generator: Adobe Illustrator 25.2.1, SVG Export Plug-In . SVG Version: 6.00 Build 0)  -->
<svg version="1.1" id="Layer_1" xmlns="http://www.w3.org/2000/svg" xmlns:xlink="http://www.w3.org/1999/xlink" x="0px" y="0px"
	 viewBox="0 0 144 144" style="enable-background:new 0 0 144 144;" xml:space="preserve">
<style type="text/css">
	.st0{fill:#FFBF00;}
	.st1{fill:#FFE1AB;}
	.st2{fill:#912C2C;}
	.st3{fill:#661D06;}
	.st4{fill:#603532;}
	.st5{fill:#EDD1BC;}
	.st6{fill:none;stroke:#9E745F;stroke-miterlimit:10;}
</style>
<g>
	<g id="circle">
		<circle class="st0" cx="72.1" cy="72.1" r="72"/>
	</g>
	<g id="vector">
		<path class="st1" d="M95.4,57.1v14.7c0,0.5-0.1,1-0.3,1.5c-4.3,9.7-11.7,17.6-21,22.6L73.9,96c-0.5,0.3-1.1,0.4-1.6,0.4H72
			c-0.6,0-1.2-0.1-1.7-0.4l-0.2-0.1c-9.3-5-16.7-13-21-22.6c-0.2-0.5-0.3-1-0.3-1.5V57.1c3.9-1,7.5-2.5,10.9-4.7
			c5.2-3.4,9.4-8.1,12.4-13.5c3,5.4,7.3,10.1,12.5,13.5C87.9,54.6,91.6,56.1,95.4,57.1z"/>
		<path class="st2" d="M87.6,106.1l-5-2.5V90.1c5.4-4.6,9.7-10.3,12.5-16.8c0.2-0.5,0.3-1,0.3-1.5V57.1c-3.9-1-7.5-2.5-10.9-4.7
			c-5.2-3.4-9.4-8.1-12.5-13.5c-3,5.4-7.3,10.1-12.5,13.5c-3.4,2.1-7,3.7-10.9,4.7v14.7c0,0.5,0.1,1,0.3,1.5
			c2.8,6.5,7.1,12.3,12.6,16.8v13.3l-5.3,2.6c-0.9,0.4-1.8,0.8-2.7,1.2c-0.8-0.9-1.7-1.9-2.4-2.9C46.5,98.2,43.4,91,41,83.5
			c-3.4-10.9-5.2-22.4-2.9-33.6c1.6-7.6,5-15.2,10.7-20.2c3.3-2.9,7.2-5,11.4-6.3c7.7-2.3,15.9-2.3,23.6,0c4.2,1.3,8.1,3.4,11.4,6.3
			c5.7,5.1,9.2,12.6,10.7,20.2c2.3,11.2,0.5,22.7-2.9,33.6c-2.3,7.5-5.4,14.7-10.1,20.8c-0.8,1-1.6,2-2.5,3
			C89.5,106.9,88.6,106.5,87.6,106.1z"/>
		<path class="st3" d="M61.6,105.4c0,5.8,4.7,10.5,10.5,10.5c5.8,0,10.5-4.7,10.5-10.5c0,0,0,0,0,0v-1.9l2.9,1.5v0.4
			c0,7.4-6,13.3-13.3,13.3c-7.4,0-13.3-6-13.3-13.3v-0.6l2.9-1.4L61.6,105.4z"/>
		<path class="st4" d="M118.5,118.6c0-1.4-0.9-2.7-2.2-3.3l-2.8-1.2c-0.7-0.3-1.5-0.6-2.3-0.8l-11.1-2.8c-0.9-0.2-1.8-0.5-2.7-0.8
			l-5.2-1.8c-1.6-0.5-3.1-1.2-4.6-1.9l-2.2-1.1v0.4c0,7.4-6,13.3-13.3,13.3c-7.4,0-13.3-6-13.3-13.3l0,0c0-0.2,0-0.4,0-0.6l-2.4,1.2
			c-1.5,0.7-3,1.4-4.6,1.9l-5.2,1.8c-0.9,0.3-1.8,0.6-2.7,0.8l-11.1,2.8c-0.8,0.2-1.5,0.4-2.3,0.8l-2.9,1.2
			c-1.3,0.6-2.2,1.9-2.2,3.3v8.3c26.8,22.8,66.2,22.9,93.1,0.2L118.5,118.6z"/>
		<path class="st5" d="M82.6,103.5V90.1c-2.6,2.2-5.4,4.2-8.5,5.8L73.9,96c-0.5,0.3-1.1,0.4-1.6,0.4H72c-0.6,0-1.2-0.1-1.7-0.4
			l-0.2-0.1c-3-1.6-5.9-3.5-8.5-5.8v15.3c0,5.8,4.7,10.5,10.5,10.5c5.8,0,10.5-4.7,10.5-10.5c0,0,0,0,0,0V103.5z"/>
	</g>
	<g id="mouth">
		<line class="st6" x1="67.3" y1="81.6" x2="76.9" y2="81.6"/>
	</g>
</g>
</svg>
