<svg width="800" height="502" viewBox="0 0 800 502" fill="none" xmlns="http://www.w3.org/2000/svg">
<rect width="800" height="502" fill="url(#paint0_linear_5121_10201)"/>
<rect x="79" y="62" width="641" height="378" rx="18" fill="white" fill-opacity="0.6"/>
<path d="M191.123 230.3L171.851 276.5H171.191L151.919 230.3H152.513C152.711 230.3 152.843 230.41 152.909 230.63L170.993 274.058C171.103 274.3 171.191 274.531 171.257 274.751C171.345 274.971 171.433 275.202 171.521 275.444C171.609 275.202 171.686 274.971 171.752 274.751C171.84 274.531 171.939 274.3 172.049 274.058L190.133 230.63C190.199 230.41 190.353 230.3 190.595 230.3H191.123ZM200.971 276.5H200.179V230.3H200.971V276.5ZM250.415 270.263C250.503 270.263 250.58 270.296 250.646 270.362L250.943 270.626C249.975 271.572 248.93 272.441 247.808 273.233C246.708 274.003 245.498 274.674 244.178 275.246C242.858 275.796 241.406 276.225 239.822 276.533C238.238 276.863 236.489 277.028 234.575 277.028C231.473 277.028 228.613 276.489 225.995 275.411C223.377 274.311 221.111 272.738 219.197 270.692C217.283 268.646 215.787 266.171 214.709 263.267C213.653 260.341 213.125 257.052 213.125 253.4C213.125 249.88 213.653 246.668 214.709 243.764C215.787 240.86 217.294 238.374 219.23 236.306C221.188 234.216 223.52 232.61 226.226 231.488C228.954 230.344 231.957 229.772 235.235 229.772C236.753 229.772 238.183 229.893 239.525 230.135C240.867 230.355 242.132 230.696 243.32 231.158C244.53 231.62 245.685 232.192 246.785 232.874C247.885 233.534 248.963 234.304 250.019 235.184L249.887 235.382C249.843 235.47 249.733 235.514 249.557 235.514C249.403 235.514 249.007 235.25 248.369 234.722C247.753 234.194 246.862 233.611 245.696 232.973C244.53 232.335 243.078 231.752 241.34 231.224C239.624 230.696 237.589 230.432 235.235 230.432C232.111 230.432 229.24 230.971 226.622 232.049C224.026 233.105 221.782 234.634 219.89 236.636C218.02 238.616 216.557 241.025 215.501 243.863C214.445 246.701 213.917 249.88 213.917 253.4C213.917 256.986 214.434 260.198 215.468 263.036C216.524 265.874 217.976 268.283 219.824 270.263C221.672 272.243 223.85 273.761 226.358 274.817C228.888 275.851 231.627 276.368 234.575 276.368C236.445 276.368 238.117 276.236 239.591 275.972C241.065 275.708 242.407 275.323 243.617 274.817C244.849 274.311 245.982 273.695 247.016 272.969C248.072 272.221 249.117 271.374 250.151 270.428C250.261 270.318 250.349 270.263 250.415 270.263ZM262.137 252.608H265.239C265.657 252.608 266.009 252.597 266.295 252.575C266.603 252.553 266.867 252.509 267.087 252.443C267.329 252.355 267.56 252.234 267.78 252.08C268 251.926 268.231 251.728 268.473 251.486L289.989 230.828C290.231 230.63 290.429 230.498 290.583 230.432C290.737 230.344 290.935 230.3 291.177 230.3H291.573L269.133 251.816C268.737 252.168 268.407 252.421 268.143 252.575C267.901 252.729 267.571 252.85 267.153 252.938C267.549 253.004 267.89 253.125 268.176 253.301C268.462 253.455 268.759 253.686 269.067 253.994L292.893 276.5H292.563C292.233 276.5 291.991 276.467 291.837 276.401C291.705 276.335 291.551 276.214 291.375 276.038L268.671 254.588C268.429 254.368 268.209 254.17 268.011 253.994C267.813 253.818 267.593 253.686 267.351 253.598C267.131 253.488 266.856 253.411 266.526 253.367C266.196 253.301 265.767 253.268 265.239 253.268H262.137V276.5H261.345V230.3H262.137V252.608ZM313.243 256.865V276.5H312.451V256.865L295.225 230.3H295.885C296.083 230.3 296.237 230.388 296.347 230.564L311.89 254.654C312.066 254.94 312.242 255.215 312.418 255.479C312.594 255.721 312.737 255.974 312.847 256.238C312.979 255.974 313.122 255.721 313.276 255.479C313.452 255.215 313.628 254.94 313.804 254.654L329.347 230.564C329.457 230.388 329.611 230.3 329.809 230.3H330.469L313.243 256.865ZM395.698 230.3L381.046 276.5H380.386L365.008 232.148C364.942 231.928 364.887 231.741 364.843 231.587C364.799 231.411 364.755 231.246 364.711 231.092C364.645 231.378 364.546 231.73 364.414 232.148L349.036 276.5H348.376L333.724 230.3H334.318C334.516 230.3 334.648 230.41 334.714 230.63L348.211 273.761C348.365 274.289 348.53 274.883 348.706 275.543C348.86 274.883 349.025 274.289 349.201 273.761L364.216 230.63C364.282 230.41 364.436 230.3 364.678 230.3H364.81C365.008 230.3 365.14 230.41 365.206 230.63L380.221 273.761C380.375 274.289 380.54 274.883 380.716 275.543C380.87 274.883 381.035 274.289 381.211 273.761L394.708 230.63C394.774 230.41 394.928 230.3 395.17 230.3H395.698ZM428.549 260.066L417.164 232.742C417.054 232.5 416.955 232.269 416.867 232.049C416.801 231.829 416.724 231.598 416.636 231.356C416.548 231.598 416.46 231.829 416.372 232.049C416.306 232.269 416.218 232.5 416.108 232.742L404.723 260.066H428.549ZM436.238 276.5H435.644C435.446 276.5 435.314 276.39 435.248 276.17L428.813 260.726H404.459L398.024 276.17C397.958 276.39 397.804 276.5 397.562 276.5H397.034L416.306 230.3H416.966L436.238 276.5ZM479.351 230.3V276.5H479.153C479.021 276.5 478.9 276.423 478.79 276.269L445.922 231.521C445.944 231.675 445.955 231.818 445.955 231.95C445.955 232.082 445.955 232.214 445.955 232.346V276.5H445.295V230.3H445.559C445.757 230.3 445.911 230.388 446.021 230.564L478.724 275.081C478.702 274.971 478.691 274.861 478.691 274.751C478.691 274.619 478.691 274.498 478.691 274.388V230.3H479.351ZM530.999 256.634V271.946C529.855 272.716 528.678 273.42 527.468 274.058C526.258 274.674 524.982 275.202 523.64 275.642C522.32 276.082 520.912 276.423 519.416 276.665C517.942 276.907 516.369 277.028 514.697 277.028C511.089 277.028 507.855 276.489 504.995 275.411C502.135 274.311 499.704 272.738 497.702 270.692C495.722 268.646 494.193 266.171 493.115 263.267C492.059 260.341 491.531 257.052 491.531 253.4C491.531 249.77 492.059 246.503 493.115 243.599C494.171 240.673 495.689 238.187 497.669 236.141C499.649 234.095 502.036 232.522 504.83 231.422C507.646 230.322 510.803 229.772 514.301 229.772C516.017 229.772 517.59 229.882 519.02 230.102C520.45 230.3 521.781 230.619 523.013 231.059C524.245 231.477 525.4 232.027 526.478 232.709C527.578 233.369 528.645 234.15 529.679 235.052L529.547 235.25C529.481 235.382 529.371 235.448 529.217 235.448C529.107 235.448 528.909 235.327 528.623 235.085C528.359 234.821 527.974 234.513 527.468 234.161C526.962 233.787 526.324 233.38 525.554 232.94C524.784 232.5 523.86 232.104 522.782 231.752C521.704 231.378 520.461 231.07 519.053 230.828C517.667 230.564 516.083 230.432 514.301 230.432C510.957 230.432 507.932 230.96 505.226 232.016C502.52 233.05 500.21 234.557 498.296 236.537C496.382 238.517 494.908 240.926 493.874 243.764C492.84 246.602 492.323 249.814 492.323 253.4C492.323 256.942 492.829 260.132 493.841 262.97C494.853 265.808 496.316 268.217 498.23 270.197C500.166 272.177 502.52 273.706 505.292 274.784C508.064 275.84 511.199 276.368 514.697 276.368C516.325 276.368 517.821 276.269 519.185 276.071C520.571 275.851 521.88 275.543 523.112 275.147C524.366 274.729 525.576 274.234 526.742 273.662C527.908 273.068 529.085 272.397 530.273 271.649V257.294H519.911C519.801 257.294 519.702 257.261 519.614 257.195C519.548 257.107 519.515 257.03 519.515 256.964V256.634H530.999ZM541.312 274.916C541.312 274.322 541.51 273.816 541.906 273.398C542.324 272.958 542.83 272.738 543.424 272.738C544.018 272.738 544.524 272.958 544.942 273.398C545.382 273.816 545.602 274.322 545.602 274.916C545.602 275.51 545.382 276.016 544.942 276.434C544.524 276.83 544.018 277.028 543.424 277.028C542.83 277.028 542.324 276.83 541.906 276.434C541.51 276.016 541.312 275.51 541.312 274.916ZM602.291 230.3V276.5H601.631V232.346C601.631 232.236 601.631 232.137 601.631 232.049C601.631 231.939 601.642 231.829 601.664 231.719L581.435 266.93C581.281 267.15 581.127 267.26 580.973 267.26H580.775C580.621 267.26 580.467 267.15 580.313 266.93L559.424 231.686C559.446 231.796 559.457 231.906 559.457 232.016C559.457 232.126 559.457 232.236 559.457 232.346V276.5H558.797V230.3H559.061C559.259 230.3 559.413 230.388 559.523 230.564L580.511 265.907C580.599 266.039 580.665 266.16 580.709 266.27C580.775 266.38 580.83 266.49 580.874 266.6C580.918 266.49 580.962 266.38 581.006 266.27C581.072 266.16 581.149 266.039 581.237 265.907L601.565 230.564C601.675 230.388 601.829 230.3 602.027 230.3H602.291ZM644.638 275.774L644.572 276.5H617.578V230.3H644.572V231.026H618.37V252.674H640.612V253.4H618.37V275.774H644.638Z" fill="#1B1B1B"/>
<defs>
<linearGradient id="paint0_linear_5121_10201" x1="0" y1="502" x2="821.532" y2="38.1343" gradientUnits="userSpaceOnUse">
<stop stop-color="#FCD0BB"/>
<stop offset="1" stop-color="#F6D8FA"/>
</linearGradient>
</defs>
</svg>
