<svg width="1354" height="241" viewBox="0 0 1354 241" fill="none" xmlns="http://www.w3.org/2000/svg">
<rect width="1354" height="241" rx="32" fill="white" fill-opacity="0.6"/>
<path d="M456.655 95.5655L436.178 145.044H435.477L415 95.5655H415.631C415.842 95.5655 415.982 95.6835 416.052 95.9189L435.266 142.429C435.383 142.689 435.477 142.936 435.547 143.171C435.64 143.407 435.734 143.654 435.827 143.913C435.921 143.654 436.003 143.407 436.073 143.171C436.166 142.936 436.271 142.689 436.388 142.429L455.603 95.9189C455.673 95.6835 455.836 95.5655 456.094 95.5655H456.655ZM467.119 145.044H466.277V95.5655H467.119V145.044ZM519.653 138.365C519.746 138.365 519.828 138.4 519.898 138.471L520.214 138.754C519.185 139.766 518.075 140.697 516.883 141.546C515.714 142.37 514.428 143.089 513.026 143.701C511.623 144.29 510.081 144.75 508.397 145.08C506.714 145.433 504.856 145.61 502.822 145.61C499.527 145.61 496.488 145.032 493.706 143.878C490.924 142.7 488.517 141.015 486.483 138.824C484.45 136.633 482.86 133.982 481.715 130.872C480.593 127.739 480.032 124.216 480.032 120.305C480.032 116.535 480.593 113.095 481.715 109.985C482.86 106.875 484.461 104.212 486.518 101.998C488.599 99.7592 491.076 98.0394 493.952 96.8378C496.85 95.6128 500.041 95 503.524 95C505.137 95 506.656 95.1294 508.082 95.3888C509.508 95.6242 510.852 95.9896 512.114 96.4844C513.4 96.9792 514.627 97.592 515.796 98.3222C516.965 99.029 518.11 99.8539 519.232 100.796L519.092 101.008C519.045 101.102 518.928 101.15 518.741 101.15C518.578 101.15 518.157 100.867 517.479 100.301C516.824 99.7358 515.878 99.1117 514.639 98.4282C513.4 97.7447 511.857 97.1205 510.01 96.5551C508.187 95.9896 506.025 95.7068 503.524 95.7068C500.205 95.7068 497.154 96.2843 494.372 97.4386C491.614 98.5696 489.23 100.207 487.22 102.351C485.233 104.472 483.678 107.052 482.556 110.091C481.434 113.131 480.873 116.535 480.873 120.305C480.873 124.145 481.422 127.585 482.521 130.625C483.643 133.664 485.186 136.244 487.149 138.365C489.113 140.485 491.427 142.111 494.092 143.242C496.78 144.35 499.69 144.903 502.822 144.903C504.809 144.903 506.586 144.762 508.152 144.479C509.718 144.196 511.144 143.784 512.43 143.242C513.739 142.7 514.942 142.04 516.041 141.263C517.163 140.462 518.273 139.554 519.372 138.541C519.489 138.423 519.583 138.365 519.653 138.365ZM532.109 119.457H535.404C535.848 119.457 536.222 119.445 536.526 119.421C536.853 119.398 537.134 119.351 537.368 119.28C537.625 119.186 537.87 119.056 538.104 118.891C538.338 118.727 538.583 118.514 538.841 118.255L561.702 96.131C561.958 95.9189 562.169 95.7775 562.333 95.7068C562.496 95.6128 562.707 95.5655 562.964 95.5655H563.385L539.542 118.609C539.121 118.985 538.771 119.257 538.49 119.421C538.233 119.586 537.882 119.716 537.438 119.81C537.859 119.881 538.221 120.01 538.525 120.199C538.829 120.364 539.144 120.611 539.472 120.941L564.787 145.044H564.437C564.086 145.044 563.829 145.009 563.665 144.938C563.525 144.868 563.361 144.738 563.174 144.55L539.051 121.577C538.794 121.342 538.56 121.13 538.35 120.941C538.139 120.752 537.905 120.611 537.649 120.517C537.414 120.399 537.123 120.317 536.772 120.27C536.421 120.199 535.965 120.164 535.404 120.164H532.109V145.044H531.267V95.5655H532.109V119.457ZM586.408 124.016V145.044H585.567V124.016L567.264 95.5655H567.965C568.176 95.5655 568.34 95.6595 568.456 95.8482L584.971 121.648C585.158 121.954 585.345 122.249 585.532 122.532C585.719 122.791 585.871 123.062 585.988 123.344C586.128 123.062 586.28 122.791 586.443 122.532C586.631 122.249 586.818 121.954 587.004 121.648L603.519 95.8482C603.636 95.6595 603.8 95.5655 604.01 95.5655H604.711L586.408 124.016ZM674.017 95.5655L658.449 145.044H657.748L641.409 97.5446C641.339 97.3092 641.28 97.1085 641.233 96.9438C641.187 96.7551 641.14 96.5784 641.093 96.4137C641.023 96.7198 640.918 97.0972 640.778 97.5446L624.438 145.044H623.737L608.169 95.5655H608.8C609.011 95.5655 609.151 95.6835 609.221 95.9189L623.562 142.111C623.726 142.677 623.901 143.313 624.088 144.02C624.252 143.313 624.427 142.677 624.614 142.111L640.567 95.9189C640.637 95.6835 640.801 95.5655 641.058 95.5655H641.198C641.409 95.5655 641.549 95.6835 641.619 95.9189L657.573 142.111C657.737 142.677 657.912 143.313 658.099 144.02C658.263 143.313 658.438 142.677 658.625 142.111L672.965 95.9189C673.035 95.6835 673.199 95.5655 673.456 95.5655H674.017ZM708.923 127.444L696.826 98.1808C696.709 97.9214 696.604 97.674 696.51 97.4386C696.44 97.2032 696.358 96.9558 696.265 96.6964C696.172 96.9558 696.078 97.2032 695.984 97.4386C695.914 97.674 695.821 97.9214 695.704 98.1808L683.607 127.444H708.923ZM717.092 145.044H716.461C716.251 145.044 716.11 144.926 716.04 144.691L709.203 128.151H683.327L676.489 144.691C676.419 144.926 676.256 145.044 675.999 145.044H675.438L695.914 95.5655H696.615L717.092 145.044ZM762.899 95.5655V145.044H762.689C762.549 145.044 762.421 144.962 762.303 144.797L727.381 96.8731C727.404 97.0378 727.416 97.1912 727.416 97.3326C727.416 97.474 727.416 97.6153 727.416 97.7567V145.044H726.715V95.5655H726.995C727.206 95.5655 727.369 95.6595 727.486 95.8482L762.233 143.525C762.21 143.407 762.198 143.289 762.198 143.171C762.198 143.03 762.198 142.901 762.198 142.783V95.5655H762.899ZM817.773 123.768V140.167C816.563 140.992 815.312 141.746 814.022 142.429C812.739 143.089 811.383 143.654 809.96 144.126C808.558 144.597 807.056 144.962 805.468 145.221C803.901 145.481 802.233 145.61 800.454 145.61C796.623 145.61 793.185 145.032 790.147 143.878C787.108 142.7 784.525 141.015 782.398 138.824C780.294 136.633 778.669 133.982 777.524 130.872C776.402 127.739 775.841 124.216 775.841 120.305C775.841 116.417 776.402 112.918 777.524 109.808C778.646 106.675 780.259 104.012 782.363 101.821C784.466 99.6298 787.003 97.9454 789.971 96.7671C792.964 95.5888 796.318 95 800.037 95C801.856 95 803.53 95.118 805.052 95.3534C806.567 95.5655 807.982 95.9069 809.292 96.3784C810.602 96.8258 811.826 97.4153 812.971 98.1455C814.141 98.8523 815.273 99.6885 816.371 100.655L816.232 100.867C816.166 101.008 816.047 101.079 815.881 101.079C815.769 101.079 815.557 100.949 815.253 100.69C814.968 100.407 814.565 100.077 814.022 99.7005C813.487 99.2997 812.812 98.8643 811.991 98.3929C811.171 97.9214 810.192 97.4973 809.047 97.1205C807.903 96.7198 806.58 96.3904 805.085 96.131C803.609 95.8482 801.929 95.7068 800.037 95.7068C796.481 95.7068 793.267 96.2723 790.392 97.4033C787.517 98.5109 785.062 100.125 783.029 102.245C780.995 104.366 779.429 106.946 778.33 109.985C777.232 113.024 776.682 116.465 776.682 120.305C776.682 124.099 777.22 127.515 778.295 130.554C779.37 133.594 780.925 136.174 782.959 138.294C785.016 140.415 787.517 142.052 790.462 143.207C793.407 144.338 796.736 144.903 800.454 144.903C802.187 144.903 803.775 144.797 805.224 144.585C806.699 144.35 808.088 144.019 809.398 143.595C810.728 143.148 812.011 142.618 813.255 142.005C814.492 141.369 815.742 140.65 817.006 139.849V124.475H805.998C805.879 124.475 805.773 124.44 805.68 124.369C805.607 124.275 805.574 124.193 805.574 124.122V123.768H817.773ZM828.736 143.348C828.736 142.712 828.947 142.17 829.364 141.722C829.807 141.251 830.35 141.015 830.978 141.015C831.607 141.015 832.149 141.251 832.592 141.722C833.056 142.17 833.294 142.712 833.294 143.348C833.294 143.984 833.056 144.526 832.592 144.974C832.149 145.398 831.607 145.61 830.978 145.61C830.35 145.61 829.807 145.398 829.364 144.974C828.947 144.526 828.736 143.984 828.736 143.348ZM893.522 95.5655V145.044H892.821V97.7567C892.821 97.6387 892.821 97.5326 892.821 97.4386C892.821 97.3206 892.834 97.2032 892.861 97.0852L871.367 134.795C871.201 135.031 871.036 135.149 870.877 135.149H870.665C870.5 135.149 870.335 135.031 870.176 134.795L847.98 97.0498C848 97.1679 848.014 97.2852 848.014 97.4033C848.014 97.5213 848.014 97.6387 848.014 97.7567V145.044H847.312V95.5655H847.59C847.802 95.5655 847.967 95.6595 848.086 95.8482L870.381 133.7C870.474 133.841 870.546 133.97 870.593 134.088C870.665 134.206 870.725 134.324 870.771 134.442C870.818 134.324 870.864 134.206 870.91 134.088C870.976 133.97 871.062 133.841 871.155 133.7L892.755 95.8482C892.867 95.6595 893.033 95.5655 893.245 95.5655H893.522ZM938.522 144.267L938.449 145.044H909.77V95.5655H938.449V96.343H910.611V119.527H934.242V120.305H910.611V144.267H938.522Z" fill="#1B1B1B"/>
</svg>
