<svg width="1765" height="271" viewBox="0 0 1765 271" fill="none" xmlns="http://www.w3.org/2000/svg">
<rect width="1765" height="271" rx="32" fill="white" fill-opacity="0.6"/>
<path d="M724.068 117.408L709.287 153.125H708.781L694 117.408H694.455C694.607 117.408 694.709 117.493 694.759 117.663L708.629 151.237C708.714 151.424 708.781 151.603 708.832 151.773C708.899 151.943 708.967 152.121 709.034 152.308C709.102 152.121 709.161 151.943 709.211 151.773C709.279 151.603 709.355 151.424 709.439 151.237L723.309 117.663C723.36 117.493 723.478 117.408 723.664 117.408H724.068ZM731.622 153.125H731.014V117.408H731.622V153.125ZM769.544 148.303C769.611 148.303 769.67 148.329 769.721 148.38L769.949 148.584C769.206 149.315 768.405 149.987 767.544 150.599C766.701 151.195 765.773 151.713 764.76 152.155C763.748 152.58 762.634 152.912 761.419 153.15C760.204 153.405 758.863 153.533 757.395 153.533C755.016 153.533 752.822 153.116 750.814 152.283C748.806 151.432 747.068 150.216 745.6 148.635C744.132 147.053 742.985 145.14 742.158 142.895C741.348 140.633 740.943 138.09 740.943 135.266C740.943 132.545 741.348 130.062 742.158 127.817C742.985 125.572 744.141 123.65 745.626 122.051C747.128 120.435 748.916 119.194 750.991 118.327C753.084 117.442 755.387 117 757.901 117C759.065 117 760.162 117.093 761.191 117.281C762.221 117.451 763.191 117.714 764.102 118.072C765.03 118.429 765.916 118.871 766.76 119.398C767.604 119.908 768.43 120.504 769.24 121.184L769.139 121.337C769.105 121.405 769.021 121.439 768.886 121.439C768.768 121.439 768.464 121.235 767.975 120.827C767.502 120.419 766.819 119.968 765.924 119.475C765.03 118.981 763.916 118.531 762.584 118.123C761.267 117.714 759.707 117.51 757.901 117.51C755.505 117.51 753.303 117.927 751.295 118.76C749.304 119.577 747.583 120.759 746.132 122.306C744.698 123.837 743.576 125.7 742.766 127.894C741.956 130.088 741.551 132.545 741.551 135.266C741.551 138.039 741.947 140.522 742.74 142.716C743.55 144.91 744.664 146.772 746.081 148.303C747.499 149.834 749.169 151.007 751.093 151.824C753.033 152.623 755.134 153.023 757.395 153.023C758.829 153.023 760.112 152.921 761.242 152.717C762.372 152.513 763.402 152.215 764.33 151.824C765.275 151.432 766.144 150.956 766.937 150.395C767.747 149.817 768.548 149.162 769.341 148.431C769.426 148.345 769.493 148.303 769.544 148.303ZM778.535 134.654H780.914C781.235 134.654 781.505 134.646 781.724 134.629C781.96 134.612 782.163 134.578 782.332 134.527C782.517 134.459 782.694 134.365 782.863 134.246C783.032 134.127 783.209 133.974 783.395 133.787L799.897 117.816C800.082 117.663 800.234 117.561 800.353 117.51C800.471 117.442 800.622 117.408 800.808 117.408H801.112L783.901 134.042C783.597 134.314 783.344 134.51 783.142 134.629C782.956 134.748 782.703 134.841 782.382 134.909C782.686 134.96 782.947 135.054 783.167 135.19C783.386 135.309 783.614 135.487 783.85 135.726L802.124 153.125H801.871C801.618 153.125 801.432 153.099 801.314 153.048C801.213 152.997 801.095 152.904 800.96 152.768L783.547 136.185C783.361 136.015 783.192 135.862 783.04 135.726C782.889 135.589 782.72 135.487 782.534 135.42C782.365 135.334 782.155 135.275 781.901 135.241C781.648 135.19 781.319 135.164 780.914 135.164H778.535V153.125H777.928V117.408H778.535V134.654ZM817.732 137.945V153.125H817.124V137.945L803.912 117.408H804.419C804.57 117.408 804.689 117.476 804.773 117.612L816.694 136.236C816.829 136.457 816.964 136.67 817.099 136.874C817.234 137.061 817.344 137.256 817.428 137.461C817.529 137.256 817.639 137.061 817.757 136.874C817.892 136.67 818.027 136.457 818.162 136.236L830.083 117.612C830.168 117.476 830.286 117.408 830.438 117.408H830.944L817.732 137.945ZM880.973 117.408L869.735 153.125H869.229L857.434 118.837C857.383 118.667 857.341 118.522 857.307 118.403C857.274 118.267 857.24 118.139 857.206 118.02C857.156 118.241 857.08 118.514 856.978 118.837L845.184 153.125H844.678L833.44 117.408H833.895C834.047 117.408 834.149 117.493 834.199 117.663L844.551 151.007C844.669 151.415 844.796 151.875 844.931 152.385C845.049 151.875 845.176 151.415 845.31 151.007L856.827 117.663C856.877 117.493 856.996 117.408 857.181 117.408H857.282C857.434 117.408 857.535 117.493 857.586 117.663L869.102 151.007C869.22 151.415 869.347 151.875 869.482 152.385C869.6 151.875 869.727 151.415 869.861 151.007L880.213 117.663C880.264 117.493 880.382 117.408 880.568 117.408H880.973ZM906.169 140.42L897.437 119.296C897.353 119.109 897.277 118.93 897.209 118.76C897.159 118.59 897.099 118.412 897.032 118.225C896.965 118.412 896.897 118.59 896.83 118.76C896.779 118.93 896.712 119.109 896.627 119.296L887.895 140.42H906.169ZM912.066 153.125H911.611C911.459 153.125 911.358 153.04 911.307 152.87L906.372 140.93H887.693L882.757 152.87C882.707 153.04 882.589 153.125 882.403 153.125H881.998L896.779 117.408H897.285L912.066 153.125ZM945.133 117.408V153.125H944.981C944.88 153.125 944.787 153.065 944.702 152.946L919.493 118.352C919.51 118.471 919.519 118.582 919.519 118.684C919.519 118.786 919.519 118.888 919.519 118.99V153.125H919.012V117.408H919.215C919.367 117.408 919.485 117.476 919.569 117.612L944.652 152.028C944.635 151.943 944.626 151.858 944.626 151.773C944.626 151.671 944.626 151.577 944.626 151.492V117.408H945.133ZM984.744 137.767V149.604C983.87 150.2 982.967 150.744 982.036 151.237C981.109 151.713 980.13 152.121 979.104 152.461C978.091 152.802 977.007 153.065 975.861 153.252C974.729 153.44 973.526 153.533 972.241 153.533C969.476 153.533 966.994 153.116 964.801 152.283C962.608 151.432 960.743 150.216 959.208 148.635C957.689 147.053 956.516 145.14 955.689 142.895C954.879 140.633 954.474 138.09 954.474 135.266C954.474 132.46 954.879 129.935 955.689 127.689C956.499 125.428 957.664 123.506 959.182 121.924C960.701 120.342 962.532 119.126 964.675 118.276C966.835 117.425 969.256 117 971.94 117C973.254 117 974.462 117.085 975.56 117.255C976.654 117.408 977.676 117.655 978.621 117.995C979.567 118.318 980.45 118.743 981.277 119.271C982.122 119.781 982.939 120.384 983.731 121.082L983.631 121.235C983.583 121.337 983.497 121.388 983.378 121.388C983.297 121.388 983.144 121.295 982.924 121.107C982.719 120.903 982.428 120.665 982.036 120.393C981.649 120.104 981.162 119.789 980.57 119.449C979.978 119.109 979.271 118.803 978.445 118.531C977.619 118.241 976.663 118.004 975.584 117.816C974.519 117.612 973.306 117.51 971.94 117.51C969.374 117.51 967.054 117.918 964.978 118.735C962.903 119.534 961.131 120.699 959.663 122.23C958.195 123.761 957.065 125.623 956.272 127.817C955.478 130.011 955.082 132.494 955.082 135.266C955.082 138.005 955.47 140.471 956.246 142.665C957.022 144.859 958.144 146.721 959.612 148.252C961.097 149.783 962.903 150.965 965.029 151.798C967.155 152.615 969.557 153.023 972.241 153.023C973.493 153.023 974.639 152.946 975.685 152.793C976.749 152.623 977.752 152.385 978.698 152.079C979.658 151.756 980.584 151.373 981.482 150.931C982.375 150.472 983.278 149.953 984.19 149.375V138.277H976.243C976.157 138.277 976.081 138.251 976.014 138.2C975.961 138.132 975.938 138.073 975.938 138.022V137.767H984.744ZM992.657 151.9C992.657 151.441 992.81 151.05 993.11 150.727C993.43 150.386 993.822 150.216 994.276 150.216C994.729 150.216 995.121 150.386 995.441 150.727C995.775 151.05 995.947 151.441 995.947 151.9C995.947 152.359 995.775 152.751 995.441 153.074C995.121 153.38 994.729 153.533 994.276 153.533C993.822 153.533 993.43 153.38 993.11 153.074C992.81 152.751 992.657 152.359 992.657 151.9ZM1039.42 117.408V153.125H1038.92V118.99C1038.92 118.905 1038.92 118.828 1038.92 118.76C1038.92 118.675 1038.93 118.59 1038.95 118.505L1023.43 145.726C1023.31 145.896 1023.19 145.981 1023.08 145.981H1022.92C1022.8 145.981 1022.69 145.896 1022.57 145.726L1006.55 118.48C1006.56 118.565 1006.57 118.65 1006.57 118.735C1006.57 118.82 1006.57 118.905 1006.57 118.99V153.125H1006.07V117.408H1006.27C1006.42 117.408 1006.54 117.476 1006.63 117.612L1022.72 144.935C1022.79 145.038 1022.84 145.131 1022.87 145.216C1022.92 145.301 1022.97 145.386 1023 145.471C1023.03 145.386 1023.07 145.301 1023.1 145.216C1023.15 145.131 1023.21 145.038 1023.28 144.935L1038.87 117.612C1038.95 117.476 1039.07 117.408 1039.22 117.408H1039.42ZM1071.91 152.564L1071.85 153.125H1051.15V117.408H1071.85V117.969H1051.76V134.705H1068.82V135.266H1051.76V152.564H1071.91Z" fill="#1B1B1B"/>
</svg>
