<svg width="1512" height="580" viewBox="0 0 1512 580" fill="none" xmlns="http://www.w3.org/2000/svg">
<rect x="0.05" y="0.05" width="1511.9" height="579.9" rx="19.95" fill="white"/>
<rect x="0.05" y="0.05" width="1511.9" height="579.9" rx="19.95" stroke="#AAAAAA" stroke-width="0.1"/>
<path d="M494.758 269.444L478.174 311.245" stroke="#AAAAAA" stroke-width="2" stroke-linecap="round"/>
<path d="M463.248 268.754L478.737 311.16" stroke="#777777" stroke-width="6" stroke-linecap="round"/>
<path d="M512.064 268.754L498.044 305.383" stroke="#AAAAAA" stroke-width="2" stroke-linecap="round"/>
<path d="M483.734 268.813L498.695 311.245" stroke="black" stroke-width="8" stroke-linecap="round"/>
<path d="M525.752 268.754L513.669 299.956" stroke="#777777" stroke-width="2" stroke-linecap="round"/>
<path d="M502.17 268.914L517.868 311.246" stroke="black" stroke-width="8" stroke-linecap="round"/>
<path d="M574.854 268.4L554.998 316H554.318L534.462 268.4H535.074C535.278 268.4 535.414 268.513 535.482 268.74L554.114 313.484C554.227 313.733 554.318 313.971 554.386 314.198C554.477 314.425 554.567 314.663 554.658 314.912C554.749 314.663 554.828 314.425 554.896 314.198C554.987 313.971 555.089 313.733 555.202 313.484L573.834 268.74C573.902 268.513 574.061 268.4 574.31 268.4H574.854ZM585.001 316H584.185V268.4H585.001V316ZM635.942 309.574C636.033 309.574 636.112 309.608 636.18 309.676L636.486 309.948C635.489 310.923 634.412 311.818 633.256 312.634C632.123 313.427 630.876 314.119 629.516 314.708C628.156 315.275 626.66 315.717 625.028 316.034C623.396 316.374 621.594 316.544 619.622 316.544C616.426 316.544 613.48 315.989 610.782 314.878C608.085 313.745 605.75 312.124 603.778 310.016C601.806 307.908 600.265 305.358 599.154 302.366C598.066 299.351 597.522 295.963 597.522 292.2C597.522 288.573 598.066 285.264 599.154 282.272C600.265 279.28 601.818 276.719 603.812 274.588C605.83 272.435 608.232 270.78 611.02 269.624C613.831 268.445 616.925 267.856 620.302 267.856C621.866 267.856 623.34 267.981 624.722 268.23C626.105 268.457 627.408 268.808 628.632 269.284C629.879 269.76 631.069 270.349 632.202 271.052C633.336 271.732 634.446 272.525 635.534 273.432L635.398 273.636C635.353 273.727 635.24 273.772 635.058 273.772C634.9 273.772 634.492 273.5 633.834 272.956C633.2 272.412 632.282 271.811 631.08 271.154C629.879 270.497 628.383 269.896 626.592 269.352C624.824 268.808 622.728 268.536 620.302 268.536C617.084 268.536 614.126 269.091 611.428 270.202C608.754 271.29 606.442 272.865 604.492 274.928C602.566 276.968 601.058 279.45 599.97 282.374C598.882 285.298 598.338 288.573 598.338 292.2C598.338 295.895 598.871 299.204 599.936 302.128C601.024 305.052 602.52 307.534 604.424 309.574C606.328 311.614 608.572 313.178 611.156 314.266C613.763 315.331 616.585 315.864 619.622 315.864C621.549 315.864 623.272 315.728 624.79 315.456C626.309 315.184 627.692 314.787 628.938 314.266C630.208 313.745 631.375 313.11 632.44 312.362C633.528 311.591 634.605 310.719 635.67 309.744C635.784 309.631 635.874 309.574 635.942 309.574ZM648.02 291.384H651.216C651.647 291.384 652.01 291.373 652.304 291.35C652.622 291.327 652.894 291.282 653.12 291.214C653.37 291.123 653.608 290.999 653.834 290.84C654.061 290.681 654.299 290.477 654.548 290.228L676.716 268.944C676.966 268.74 677.17 268.604 677.328 268.536C677.487 268.445 677.691 268.4 677.94 268.4H678.348L655.228 290.568C654.82 290.931 654.48 291.191 654.208 291.35C653.959 291.509 653.619 291.633 653.188 291.724C653.596 291.792 653.948 291.917 654.242 292.098C654.537 292.257 654.843 292.495 655.16 292.812L679.708 316H679.368C679.028 316 678.779 315.966 678.62 315.898C678.484 315.83 678.326 315.705 678.144 315.524L654.752 293.424C654.503 293.197 654.276 292.993 654.072 292.812C653.868 292.631 653.642 292.495 653.392 292.404C653.166 292.291 652.882 292.211 652.542 292.166C652.202 292.098 651.76 292.064 651.216 292.064H648.02V316H647.204V268.4H648.02V291.384ZM700.675 295.77V316H699.859V295.77L682.111 268.4H682.791C682.995 268.4 683.153 268.491 683.267 268.672L699.281 293.492C699.462 293.787 699.643 294.07 699.825 294.342C700.006 294.591 700.153 294.852 700.267 295.124C700.403 294.852 700.55 294.591 700.709 294.342C700.89 294.07 701.071 293.787 701.253 293.492L717.267 268.672C717.38 268.491 717.539 268.4 717.743 268.4H718.423L700.675 295.77ZM785.628 268.4L770.532 316H769.852L754.008 270.304C753.94 270.077 753.883 269.885 753.838 269.726C753.793 269.545 753.747 269.375 753.702 269.216C753.634 269.511 753.532 269.873 753.396 270.304L737.552 316H736.872L721.776 268.4H722.388C722.592 268.4 722.728 268.513 722.796 268.74L736.702 313.178C736.861 313.722 737.031 314.334 737.212 315.014C737.371 314.334 737.541 313.722 737.722 313.178L753.192 268.74C753.26 268.513 753.419 268.4 753.668 268.4H753.804C754.008 268.4 754.144 268.513 754.212 268.74L769.682 313.178C769.841 313.722 770.011 314.334 770.192 315.014C770.351 314.334 770.521 313.722 770.702 313.178L784.608 268.74C784.676 268.513 784.835 268.4 785.084 268.4H785.628ZM819.475 299.068L807.745 270.916C807.632 270.667 807.53 270.429 807.439 270.202C807.371 269.975 807.292 269.737 807.201 269.488C807.11 269.737 807.02 269.975 806.929 270.202C806.861 270.429 806.77 270.667 806.657 270.916L794.927 299.068H819.475ZM827.397 316H826.785C826.581 316 826.445 315.887 826.377 315.66L819.747 299.748H794.655L788.025 315.66C787.957 315.887 787.798 316 787.549 316H787.005L806.861 268.4H807.541L827.397 316ZM871.816 268.4V316H871.612C871.476 316 871.351 315.921 871.238 315.762L837.374 269.658C837.397 269.817 837.408 269.964 837.408 270.1C837.408 270.236 837.408 270.372 837.408 270.508V316H836.728V268.4H837C837.204 268.4 837.363 268.491 837.476 268.672L871.17 314.538C871.147 314.425 871.136 314.311 871.136 314.198C871.136 314.062 871.136 313.937 871.136 313.824V268.4H871.816ZM925.029 295.532V311.308C923.85 312.101 922.638 312.827 921.391 313.484C920.144 314.119 918.83 314.663 917.447 315.116C916.087 315.569 914.636 315.921 913.095 316.17C911.576 316.419 909.956 316.544 908.233 316.544C904.516 316.544 901.184 315.989 898.237 314.878C895.29 313.745 892.786 312.124 890.723 310.016C888.683 307.908 887.108 305.358 885.997 302.366C884.909 299.351 884.365 295.963 884.365 292.2C884.365 288.46 884.909 285.094 885.997 282.102C887.085 279.087 888.649 276.526 890.689 274.418C892.729 272.31 895.188 270.689 898.067 269.556C900.968 268.423 904.221 267.856 907.825 267.856C909.593 267.856 911.214 267.969 912.687 268.196C914.16 268.4 915.532 268.729 916.801 269.182C918.07 269.613 919.26 270.179 920.371 270.882C921.504 271.562 922.604 272.367 923.669 273.296L923.533 273.5C923.465 273.636 923.352 273.704 923.193 273.704C923.08 273.704 922.876 273.579 922.581 273.33C922.309 273.058 921.912 272.741 921.391 272.378C920.87 271.993 920.212 271.573 919.419 271.12C918.626 270.667 917.674 270.259 916.563 269.896C915.452 269.511 914.172 269.193 912.721 268.944C911.293 268.672 909.661 268.536 907.825 268.536C904.38 268.536 901.263 269.08 898.475 270.168C895.687 271.233 893.307 272.786 891.335 274.826C889.363 276.866 887.844 279.348 886.779 282.272C885.714 285.196 885.181 288.505 885.181 292.2C885.181 295.849 885.702 299.136 886.745 302.06C887.788 304.984 889.295 307.466 891.267 309.506C893.262 311.546 895.687 313.121 898.543 314.232C901.399 315.32 904.629 315.864 908.233 315.864C909.91 315.864 911.452 315.762 912.857 315.558C914.285 315.331 915.634 315.014 916.903 314.606C918.195 314.175 919.442 313.665 920.643 313.076C921.844 312.464 923.057 311.773 924.281 311.002V296.212H913.605C913.492 296.212 913.39 296.178 913.299 296.11C913.231 296.019 913.197 295.94 913.197 295.872V295.532H925.029ZM935.655 314.368C935.655 313.756 935.859 313.235 936.267 312.804C936.697 312.351 937.219 312.124 937.831 312.124C938.443 312.124 938.964 312.351 939.395 312.804C939.848 313.235 940.075 313.756 940.075 314.368C940.075 314.98 939.848 315.501 939.395 315.932C938.964 316.34 938.443 316.544 937.831 316.544C937.219 316.544 936.697 316.34 936.267 315.932C935.859 315.501 935.655 314.98 935.655 314.368ZM998.481 268.4V316H997.801V270.508C997.801 270.395 997.801 270.293 997.801 270.202C997.801 270.089 997.813 269.975 997.835 269.862L976.993 306.14C976.835 306.367 976.676 306.48 976.517 306.48H976.313C976.155 306.48 975.996 306.367 975.837 306.14L954.315 269.828C954.338 269.941 954.349 270.055 954.349 270.168C954.349 270.281 954.349 270.395 954.349 270.508V316H953.669V268.4H953.941C954.145 268.4 954.304 268.491 954.417 268.672L976.041 305.086C976.132 305.222 976.2 305.347 976.245 305.46C976.313 305.573 976.37 305.687 976.415 305.8C976.461 305.687 976.506 305.573 976.551 305.46C976.619 305.347 976.699 305.222 976.789 305.086L997.733 268.672C997.847 268.491 998.005 268.4 998.209 268.4H998.481ZM1042.11 315.252L1042.04 316H1014.23V268.4H1042.04V269.148H1015.05V291.452H1037.96V292.2H1015.05V315.252H1042.11Z" fill="#1B1B1B"/>
</svg>
