<svg width="123" height="32" viewBox="0 0 123 32" fill="none" xmlns="http://www.w3.org/2000/svg">
<g clip-path="url(#clip0_294_6953)">
<path d="M8.52166 27.0338C8.40338 26.9951 8.27931 26.969 8.14801 26.969C7.48475 26.969 6.94775 27.5063 6.94775 28.1695C6.94775 28.8323 7.48475 29.37 8.14801 29.37C8.27931 29.37 8.40338 29.3435 8.52166 29.305C8.04234 29.1469 7.69455 28.7008 7.69455 28.1695C7.69455 27.6374 8.04234 27.1919 8.52166 27.0338Z" fill="#2F3D53"/>
<path d="M27.0158 30.3251C25.8251 30.3251 24.86 29.3601 24.86 28.1695C24.86 26.9786 25.8251 26.0136 27.0158 26.0136C28.2066 26.0136 29.1714 26.9786 29.1714 28.1695C29.1714 29.3601 28.2066 30.3251 27.0158 30.3251ZM23.7869 30.0244L10.4833 31.0715C11.3309 30.3881 11.8743 29.3426 11.8743 28.1695C11.8743 27.4897 11.6893 26.8541 11.3711 26.3054L22.9537 26.1146C23.6379 25.0279 24.8448 24.3046 26.2232 24.3046C26.5903 24.3046 26.942 24.3603 27.2778 24.456C27.1914 24.4505 27.1041 24.4432 27.0158 24.4432C24.9578 24.4432 23.2895 26.1112 23.2895 28.1695C23.2895 28.8456 23.4721 29.4779 23.7869 30.0244ZM8.14777 30.3251C6.95793 30.3251 5.99221 29.3601 5.99221 28.1695C5.99221 26.9786 6.95793 26.0136 8.14777 26.0136C9.33852 26.0136 10.3036 26.9786 10.3036 28.1695C10.3036 29.3601 9.33852 30.3251 8.14777 30.3251ZM10.6016 12.7229C12.3196 14.1916 11.8653 23.1631 9.7073 23.6871C8.98326 23.7169 8.05116 10.5438 10.6016 12.7229ZM15.8498 12.6591C17.5566 14.1231 17.1202 23.0006 14.9571 23.5076C14.2271 23.537 13.3067 10.4783 15.8498 12.6591ZM21.0963 12.5764C22.7943 14.0388 22.3673 22.8167 20.2032 23.3082C19.4661 23.3384 18.5641 10.3952 21.0963 12.5764ZM26.3424 12.4932C28.0311 13.9546 27.6138 22.6325 25.4492 23.1089C24.706 23.1394 23.8214 10.312 26.3424 12.4932ZM29.0498 25.0496C28.926 19.6872 32.1005 10.6549 30.7422 8.7532C30.1245 7.88941 29.1108 9.28798 25.1837 9.9908C21.8677 10.5842 12.1635 10.5665 7.36248 10.0792C6.77331 9.07529 6.00681 7.66744 6.00681 6.29009C6.00681 2.20718 9.71856 0.980602 11.1691 0.927061C11.1691 2.00399 11.1487 3.19694 11.1735 4.34654L11.8754 4.77878C11.8783 3.46754 11.8834 1.37741 11.8743 0.752007C11.8697 0.468569 11.8754 0.173187 11.5721 0.0213356C11.242 -0.143814 4.9025 0.571121 4.9025 6.44573C4.9025 7.22043 5.06566 8.57101 5.28232 9.72729C6.07711 16.4029 6.27808 18.17 6.09924 24.5172C6.49361 24.3813 6.91525 24.3046 7.35564 24.3046C7.72861 24.3046 8.08897 24.3587 8.4303 24.4571C8.33703 24.4505 8.2437 24.4432 8.14777 24.4432C6.09018 24.4432 4.42143 26.1112 4.42143 28.1695C4.42143 29.5531 5.17731 30.7575 6.29733 31.4007L0 31.8959H27.0158C29.0735 31.8959 30.7422 30.2274 30.7422 28.1695C30.7422 26.8625 30.0681 25.7144 29.0498 25.0496Z" fill="#2F3D53"/>
<path d="M27.3891 27.0338C27.2708 26.9951 27.1466 26.969 27.0154 26.969C26.3522 26.969 25.8149 27.5063 25.8149 28.1695C25.8149 28.8323 26.3522 29.37 27.0154 29.37C27.1466 29.37 27.2708 29.3435 27.3891 29.305C26.91 29.1469 26.5622 28.7008 26.5622 28.1695C26.5622 27.6374 26.91 27.1919 27.3891 27.0338Z" fill="#2F3D53"/>
<path d="M12.4997 7.74198L14.2151 7.5693L12.975 6.4652L13.3385 4.92384L11.9667 5.77563L10.3828 4.75427L10.7156 6.56074L9.33936 7.68249L11.0671 7.79393L11.7096 9.40735L12.4997 7.74198Z" fill="#35A8B6"/>
<path d="M49.5222 22.542C49.1848 25.5781 45.871 25.6975 43.7086 23.8713C44.3632 22.463 44.7797 20.6568 45.1171 19.5255C47.1219 19.3862 49.7939 19.9763 49.5222 22.542ZM40.6522 25.1216C38.5784 25.2281 39.5735 22.159 42.121 24.0099C41.664 24.7446 41.1883 25.0822 40.6522 25.1216ZM46.6649 12.2628C44.0272 12.2409 40.4275 13.3093 40.3862 16.5237C40.3767 17.2742 40.7693 20.0271 41.9941 19.1484C42.6098 18.7068 41.5004 17.5053 42.0908 15.6851C42.8274 13.4157 47.4155 12.5311 49.1923 14.302C51.5833 16.6859 47.3697 18.6266 45.4346 18.5539C45.6307 17.922 45.7578 17.2603 46.0125 16.6486C46.1363 16.3503 47.0689 15.361 47.0819 15.2202C47.1953 13.9779 45.7826 14.7329 45.2673 15.3141C43.5552 17.2466 43.5176 20.7072 42.5771 23.0378C41.1272 22.0258 37.9253 21.806 37.9543 24.3278C37.9852 27.1047 42.0094 26.5122 43.1526 24.8835C45.1874 26.3634 48.5054 27.1456 50.3066 24.8357C51.9446 22.736 51.043 19.3668 48.2322 18.9699C50.1817 18.73 51.8538 16.8878 51.2574 14.8799C50.6886 12.9649 48.457 12.2747 46.6649 12.2628Z" fill="#2F3D53"/>
<path d="M74.9281 28.8755C74.7209 29.4359 73.7582 31.3985 72.8583 30.5402C71.8384 29.5664 74.7803 27.8353 75.3135 27.5508C75.185 27.9993 75.0996 28.4481 74.9281 28.8755ZM66.747 24.1045C65.7231 25.1131 64.0394 25.5509 63.5543 23.952C63.2311 22.8842 63.5849 20.8595 64.1248 19.8944C64.7774 18.7278 67.3735 17.3432 68.1245 19.1284C68.5847 20.2223 68.3153 22.5591 66.747 24.1045ZM79.5702 24.3687C79.4915 23.5529 78.8627 24.6329 78.7852 24.6964C78.3109 25.0855 77.9158 25.3581 77.3436 25.6477C77.7647 24.1521 78.1547 22.6481 78.5509 21.1458C78.8004 20.2013 80.3314 17.194 78.5775 17.1725C77.3074 17.1563 77.064 20.2588 76.6492 21.2758C76.1777 22.431 75.1341 24.7572 73.675 24.986C70.9442 25.4145 75.2546 17.9932 73.7656 17.2415C72.2278 16.4648 72.1073 19.5514 71.8713 20.3638C71.3845 22.0419 70.9895 24.231 68.7358 24.0183C69.6238 22.4856 70.4931 20.1096 69.6249 18.3873C68.5988 16.3523 65.9676 17.0796 64.5448 18.247C64.8962 17.0847 67.1341 12.2054 66.2885 11.5415C64.6676 10.2685 63.7309 15.0788 63.4717 15.9209C62.6805 18.4862 62.7331 21.9704 60.8535 23.9697C60.4103 24.4406 59.5342 25.3541 58.9083 24.7158C58.2925 24.0879 59.4057 21.33 59.5987 20.6307C59.7697 20.009 60.0306 19.7143 59.5212 19.2967C59.2411 19.0665 58.6796 19.0705 58.4028 19.2699C58.095 19.4923 57.9093 20.7003 57.7424 21.1137C57.4237 21.9026 57.0202 22.6752 56.5273 23.3694C56.1493 23.9011 55.2108 25.2447 54.3747 25.0459C53.2206 24.7705 53.6068 22.9317 53.8527 22.1495C54.2387 20.9187 55.0185 19.6468 56.098 18.9062C57.4322 17.9905 58.5217 18.3475 59.9089 18.8351C60.4296 19.0179 60.5201 19.3402 61.0001 18.8803C61.561 18.3436 60.9463 18.216 60.4692 17.8512C59.5116 17.1179 58.1465 16.9021 56.9998 17.1139C54.0485 17.6582 51.4546 21.1007 51.7825 24.1023C51.9191 25.357 52.6652 26.3176 54.0066 26.3059C55.6253 26.2921 56.6183 24.8036 57.3626 23.5695C57.1458 24.6554 57.3388 26.0218 58.6456 26.1569C60.1149 26.3076 61.3844 24.7373 62.0817 23.6673C62.329 27.0299 66.1351 26.7259 68.03 24.7881C68.9271 24.9904 69.9368 24.9473 70.8899 24.2206C70.7699 25.5829 71.71 26.4281 73.0462 26.2804C74.5138 26.1179 75.6695 24.8157 76.3871 23.6341C76.0029 25.0236 75.8042 25.7332 75.5908 26.2888C74.1363 26.9216 72.1831 27.6578 71.4309 29.1788C70.7642 30.5285 71.3692 31.876 72.8889 31.9905C75.6242 32.1966 76.4698 28.9876 77.0018 26.909C79.2894 25.7974 79.6188 24.8717 79.5702 24.3687Z" fill="#2F3D53"/>
<path d="M82.5475 19.4479C82.5475 20.177 82.6754 20.8524 82.9323 21.4732C83.1887 22.0943 83.5441 22.6315 83.9992 23.0853C84.4548 23.5397 84.9896 23.8952 85.6048 24.1509C86.22 24.4074 86.8873 24.5346 87.605 24.5346C88.3232 24.5346 88.9865 24.4074 89.5955 24.1509C90.2045 23.8952 90.7303 23.543 91.1729 23.0953C91.6149 22.6469 91.9646 22.1099 92.221 21.483C92.4768 20.8558 92.6053 20.177 92.6053 19.4479C92.6053 18.7316 92.4768 18.0635 92.221 17.4422C91.9646 16.8214 91.6149 16.2846 91.1729 15.8294C90.7303 15.3756 90.2045 15.0172 89.5955 14.7552C88.9865 14.4928 88.3232 14.3615 87.605 14.3615C86.8873 14.3615 86.22 14.4928 85.6048 14.7552C84.9896 15.0172 84.4548 15.3789 83.9992 15.8396C83.5441 16.3003 83.1887 16.8376 82.9323 17.4522C82.6754 18.0661 82.5475 18.7316 82.5475 19.4479ZM93.9297 27.318C94.0836 27.4584 94.0961 27.6125 93.9687 27.7789L93.1238 28.7196C93.0592 28.8085 92.9828 28.8534 92.8934 28.8534C92.8034 28.8534 92.727 28.8218 92.663 28.7572L89.7262 26.07C89.0737 26.2623 88.3696 26.3585 87.6152 26.3585C86.5907 26.3585 85.6473 26.1821 84.7836 25.8301C83.9199 25.4785 83.174 24.9922 82.5475 24.3716C81.9198 23.7515 81.4308 23.0184 81.0788 22.1734C80.7267 21.3288 80.5513 20.4206 80.5513 19.4479C80.5513 18.4758 80.7267 17.5671 81.0788 16.7226C81.4308 15.8776 81.9198 15.1452 82.5475 14.5242C83.174 13.904 83.9199 13.4143 84.7836 13.0562C85.6473 12.698 86.5907 12.5185 87.6152 12.5185C88.639 12.5185 89.5796 12.6945 90.436 13.0464C91.2934 13.3986 92.0331 13.8848 92.6534 14.5052C93.2743 15.1258 93.7605 15.8591 94.1125 16.7032C94.464 17.5477 94.64 18.4629 94.64 19.4479C94.64 20.6892 94.3712 21.806 93.834 22.7979C93.2964 23.7895 92.5674 24.5925 91.646 25.2067L93.9297 27.318Z" fill="#35A8B6"/>
<path d="M120.332 17.8955H120.538C120.779 17.8955 120.973 17.8152 120.973 17.6207C120.973 17.4483 120.847 17.3333 120.572 17.3333C120.457 17.3333 120.377 17.345 120.332 17.3571V17.8955ZM120.319 18.9618H119.884V17.0812C120.056 17.0472 120.297 17.0238 120.607 17.0238C120.962 17.0238 121.122 17.0812 121.26 17.1615C121.363 17.2422 121.443 17.3908 121.443 17.5742C121.443 17.7805 121.283 17.9413 121.053 18.0104V18.033C121.237 18.1022 121.341 18.2397 121.397 18.4917C121.455 18.7783 121.489 18.893 121.535 18.9618H121.065C121.007 18.893 120.973 18.7212 120.916 18.5035C120.881 18.2972 120.767 18.205 120.526 18.205H120.319V18.9618ZM119.162 17.9755C119.162 18.813 119.781 19.4778 120.629 19.4778C121.455 19.4778 122.062 18.813 122.062 17.9879C122.062 17.1498 121.455 16.4737 120.617 16.4737C119.781 16.4737 119.162 17.1498 119.162 17.9755ZM122.545 17.9755C122.545 19.0423 121.707 19.8793 120.617 19.8793C119.54 19.8793 118.68 19.0423 118.68 17.9755C118.68 16.9327 119.54 16.0956 120.617 16.0956C121.707 16.0956 122.545 16.9327 122.545 17.9755Z" fill="#2F3D53"/>
<path d="M104.051 17.3561C104.268 17.3561 104.378 17.4648 104.378 17.6822V25.8595C104.378 26.0771 104.268 26.1854 104.051 26.1854H103.11C102.893 26.1854 102.784 26.0833 102.784 25.8781L102.727 24.8419C102.47 25.2641 102.096 25.6227 101.604 25.9164C101.111 26.2115 100.519 26.3585 99.8283 26.3585C99.2515 26.3585 98.7212 26.259 98.235 26.0605C97.7483 25.8627 97.3329 25.5841 96.9871 25.2259C96.6418 24.8677 96.373 24.4356 96.1811 23.9306C95.9893 23.4247 95.8931 22.865 95.8931 22.2508V17.6822C95.8931 17.4648 95.9955 17.3561 96.1998 17.3561H97.4857C97.6906 17.3561 97.793 17.4648 97.793 17.6822V21.8666C97.793 22.6724 97.9979 23.3164 98.4071 23.7955C98.8169 24.2753 99.3676 24.5158 100.057 24.5158C100.442 24.5158 100.784 24.4455 101.085 24.3047C101.386 24.1643 101.635 23.9753 101.834 23.7381C102.032 23.5017 102.186 23.2362 102.294 22.9417C102.403 22.647 102.458 22.347 102.458 22.0397V17.6822C102.458 17.4648 102.566 17.3561 102.784 17.3561H104.051Z" fill="#35A8B6"/>
<path d="M106.22 26.1854C106.002 26.1854 105.894 26.0766 105.894 25.8595L105.913 17.6822C105.913 17.4644 106.015 17.3561 106.22 17.3561H107.506C107.711 17.3561 107.812 17.4644 107.812 17.6822V25.8595C107.812 26.0766 107.711 26.1854 107.506 26.1854H106.22ZM106.834 15.667C106.463 15.667 106.146 15.5454 105.884 15.302C105.622 15.059 105.49 14.7457 105.49 14.3613C105.49 13.9777 105.622 13.6704 105.884 13.4398C106.146 13.2096 106.463 13.0883 106.834 13.0752C107.218 13.0624 107.541 13.1778 107.803 13.4206C108.066 13.6639 108.197 13.9777 108.197 14.3613C108.197 14.7457 108.066 15.059 107.803 15.302C107.541 15.5454 107.218 15.667 106.834 15.667Z" fill="#35A8B6"/>
<path d="M113.936 24.6113C114.32 24.6113 114.675 24.5406 115.002 24.4002C115.328 24.2598 115.616 24.0615 115.866 23.805C116.115 23.549 116.31 23.249 116.45 22.903C116.591 22.5575 116.662 22.1801 116.662 21.7706C116.662 21.3614 116.591 20.984 116.45 20.638C116.31 20.2925 116.115 19.9925 115.866 19.7364C115.616 19.4807 115.328 19.2817 115.002 19.1413C114.675 19.0003 114.32 18.9301 113.936 18.9301C113.526 18.9301 113.153 19.0003 112.813 19.1413C112.474 19.2817 112.182 19.4767 111.94 19.7261C111.697 19.9763 111.508 20.2765 111.374 20.6285C111.239 20.9807 111.172 21.3614 111.172 21.7706C111.172 22.1801 111.239 22.5575 111.374 22.903C111.508 23.249 111.697 23.549 111.94 23.805C112.182 24.0615 112.474 24.2598 112.813 24.4002C113.153 24.5406 113.526 24.6113 113.936 24.6113ZM114.282 17.1829C114.883 17.1829 115.446 17.2979 115.971 17.5285C116.495 17.7591 116.95 18.079 117.334 18.4885C117.718 18.8981 118.022 19.3845 118.246 19.9471C118.47 20.5102 118.582 21.1178 118.582 21.7706C118.582 22.4239 118.472 23.0312 118.255 23.5939C118.038 24.1572 117.74 24.644 117.363 25.053C116.985 25.4631 116.537 25.7826 116.019 26.0132C115.5 26.2436 114.934 26.3585 114.32 26.3585C113.63 26.3585 113.027 26.2208 112.516 25.9455C112.004 25.6703 111.582 25.3283 111.249 24.9189V29.6025C111.249 29.8196 111.14 29.9283 110.923 29.9283H109.675C109.457 29.9283 109.349 29.8196 109.349 29.6025V17.6822C109.349 17.4644 109.457 17.3561 109.675 17.3561H110.673C110.891 17.3561 110.999 17.4582 110.999 17.6633L111.057 18.6996C111.402 18.2521 111.841 17.8867 112.371 17.6052C112.903 17.324 113.54 17.1829 114.282 17.1829Z" fill="#35A8B6"/>
</g>
<defs>
<clipPath id="clip0_294_6953">
<rect width="122.544" height="32" fill="white"/>
</clipPath>
</defs>
</svg>
