<svg width="49" height="39" viewBox="0 0 49 39" fill="none" xmlns="http://www.w3.org/2000/svg">
<g clip-path="url(#clip0_435_5849)">
<mask id="mask0_435_5849" style="mask-type:luminance" maskUnits="userSpaceOnUse" x="0" y="0" width="49" height="39">
<path d="M0 0H49V39H0V0Z" fill="white"/>
</mask>
<g mask="url(#mask0_435_5849)">
<path d="M18.3708 19.2542C18.2864 19.2267 18.1975 19.2077 18.1035 19.2077C17.6295 19.2077 17.2451 19.5907 17.2451 20.0628C17.2451 20.5351 17.6295 20.9178 18.1035 20.9178C18.1975 20.9178 18.2864 20.8993 18.3708 20.8714C18.0283 20.759 17.7791 20.4415 17.7791 20.0628C17.7791 19.6841 18.0283 19.3665 18.3708 19.2542Z" fill="#314458"/>
<path d="M31.5962 21.5985C30.7447 21.5985 30.0543 20.9107 30.0543 20.0628C30.0543 19.2147 30.7447 18.5274 31.5962 18.5274C32.4477 18.5274 33.1378 19.2147 33.1378 20.0628C33.1378 20.9107 32.4477 21.5985 31.5962 21.5985ZM29.2873 21.3844L19.7734 22.1299C20.3797 21.6431 20.7686 20.8986 20.7686 20.0628C20.7686 19.5786 20.636 19.1261 20.4086 18.7354L28.6912 18.5994C29.1807 17.8258 30.0436 17.31 31.0295 17.31C31.2919 17.31 31.5436 17.3501 31.7836 17.4181C31.7215 17.4138 31.6595 17.4088 31.5962 17.4088C30.1243 17.4088 28.9313 18.5971 28.9313 20.0628C28.9313 20.5446 29.0622 20.9948 29.2873 21.3844ZM18.1036 21.5985C17.2523 21.5985 16.5621 20.9107 16.5621 20.0628C16.5621 19.2147 17.2523 18.5274 18.1036 18.5274C18.9551 18.5274 19.6454 19.2147 19.6454 20.0628C19.6454 20.9107 18.9551 21.5985 18.1036 21.5985ZM19.8578 9.06114C21.0871 10.1071 20.7621 16.4973 19.2189 16.8704C18.7009 16.8916 18.0343 7.50912 19.8578 9.06114ZM23.611 9.01554C24.832 10.0585 24.5196 16.3816 22.9731 16.7423C22.4509 16.7633 21.793 7.46252 23.611 9.01554ZM27.363 8.95649C28.5772 9.99841 28.2722 16.2507 26.7247 16.6006C26.1976 16.6216 25.5525 7.40333 27.363 8.95649ZM31.1146 8.89745C32.3223 9.93823 32.0241 16.1194 30.4763 16.459C29.9443 16.4804 29.3119 7.34429 31.1146 8.89745ZM33.051 17.8408C32.9623 14.0214 35.2326 7.58804 34.261 6.23374C33.8193 5.61857 33.0943 6.61474 30.2858 7.11555C27.9146 7.53786 20.975 7.52542 17.5419 7.17816C17.1208 6.4632 16.5722 5.46074 16.5722 4.47972C16.5722 1.57154 19.2267 0.698177 20.2639 0.659863C20.2639 1.42686 20.2496 2.27636 20.2673 3.0954L20.7692 3.4032C20.7713 2.4695 20.7751 0.980389 20.7683 0.535055C20.7649 0.333048 20.7689 0.122604 20.552 0.0146656C20.3164 -0.103136 15.7827 0.405958 15.7827 4.59037C15.7827 5.14221 15.8995 6.10436 16.0544 6.92769C16.6226 11.6824 16.7664 12.9412 16.6385 17.4617C16.9205 17.3651 17.2221 17.31 17.5371 17.31C17.8039 17.31 18.0616 17.3486 18.3054 17.419C18.2388 17.414 18.1719 17.4088 18.1036 17.4088C16.6317 17.4088 15.4388 18.5971 15.4388 20.0628C15.4388 21.0484 15.9791 21.9062 16.7799 22.3642L12.2769 22.7169H31.5962C33.0682 22.7169 34.261 21.5287 34.261 20.0628C34.261 19.1322 33.7789 18.3148 33.051 17.8408Z" fill="#314458"/>
<path d="M31.8636 19.2542C31.779 19.2267 31.6903 19.2077 31.5963 19.2077C31.1221 19.2077 30.7378 19.5907 30.7378 20.0628C30.7378 20.5351 31.1221 20.9178 31.5963 20.9178C31.6903 20.9178 31.779 20.8993 31.8636 20.8714C31.521 20.759 31.2719 20.4415 31.2719 20.0628C31.2719 19.6841 31.521 19.3665 31.8636 19.2542Z" fill="#314458"/>
<path d="M21.2156 5.51349L22.442 5.39026L21.5557 4.60367L21.8155 3.50599L20.8341 4.11302L19.7017 3.38547L19.9397 4.67186L18.9556 5.47103L20.1913 5.55081L20.6504 6.69995L21.2156 5.51349Z" fill="#19A6B6"/>
<path d="M6.71209 33.5342C6.51644 35.2885 4.59385 35.3573 3.33887 34.3025C3.71883 33.4885 3.96055 32.445 4.1562 31.7912C5.31945 31.7107 6.86998 32.0518 6.71209 33.5342ZM1.56586 35.0251C0.362552 35.0865 0.940017 33.3128 2.41791 34.3827C2.15294 34.8072 1.87677 35.0022 1.56586 35.0251ZM5.05433 27.5942C3.52375 27.5816 1.43538 28.1988 1.41141 30.0564C1.40595 30.4901 1.63389 32.0811 2.34428 31.5733C2.70155 31.3179 2.05806 30.6235 2.40055 29.572C2.82772 28.2604 5.48983 27.7489 6.52075 28.7725C7.90821 30.1503 5.46314 31.2717 4.3405 31.2295C4.45419 30.8645 4.52825 30.4821 4.67553 30.1288C4.74744 29.9563 5.28845 29.3846 5.29605 29.3031C5.36208 28.5851 4.54261 29.0217 4.24347 29.3575C3.25002 30.4745 3.2282 32.474 2.68246 33.821C1.84117 33.236 -0.0165396 33.1088 0.000111192 34.5661C0.0184844 36.1711 2.35318 35.8284 3.01634 34.8871C4.1971 35.7427 6.12242 36.1945 7.16725 34.8598C8.11764 33.6466 7.59458 31.6994 5.96381 31.47C7.09477 31.3317 8.06482 30.2669 7.71888 29.1066C7.38874 27.9998 6.094 27.6012 5.05433 27.5942Z" fill="#314458"/>
<path d="M21.4528 37.1942C21.3324 37.5179 20.7737 38.6522 20.2515 38.1561C19.66 37.5938 21.3671 36.5931 21.6762 36.4285C21.6018 36.688 21.5517 36.9473 21.4528 37.1942ZM16.7061 34.4373C16.112 35.0203 15.1346 35.2734 14.8538 34.3492C14.6662 33.7321 14.8716 32.5623 15.1847 32.0045C15.5634 31.3303 17.0697 30.5304 17.5053 31.5616C17.7722 32.1938 17.6158 33.5443 16.7061 34.4373ZM24.1464 34.5896C24.1009 34.1183 23.736 34.7427 23.6908 34.7793C23.4152 35.0044 23.1864 35.1614 22.8544 35.329C23.0983 34.4647 23.3249 33.5957 23.5547 32.7274C23.6991 32.1816 24.5879 30.4437 23.5704 30.4312C22.8333 30.4223 22.6922 32.2148 22.4512 32.8026C22.1777 33.4699 21.5724 34.8144 20.7258 34.9465C19.1414 35.1944 21.6423 30.9057 20.7783 30.4713C19.8864 30.0227 19.8158 31.806 19.679 32.2757C19.3968 33.2454 19.1677 34.5106 17.8597 34.3877C18.3752 33.5017 18.8794 32.1287 18.3758 31.1335C17.7805 29.9574 16.2539 30.3776 15.4283 31.0522C15.6323 30.3807 16.9306 27.5613 16.4401 27.1774C15.4995 26.4419 14.9559 29.2213 14.8053 29.7081C14.3467 31.1904 14.3771 33.2044 13.2867 34.359C13.0296 34.6314 12.521 35.1593 12.158 34.7903C11.8007 34.4277 12.4467 32.8338 12.5585 32.4301C12.6579 32.0707 12.8091 31.9003 12.5137 31.6588C12.3512 31.5261 12.0252 31.5281 11.8649 31.6436C11.6862 31.772 11.5784 32.4701 11.4816 32.7092C11.2967 33.1648 11.0626 33.6115 10.7764 34.0126C10.5571 34.3198 10.0128 35.0962 9.52746 34.9813C8.85784 34.822 9.08234 33.7594 9.22459 33.3075C9.44851 32.5962 9.90095 31.8611 10.5269 31.4333C11.3019 30.9042 11.9338 31.1102 12.7385 31.3925C13.0408 31.498 13.0933 31.684 13.3715 31.4185C13.6972 31.1082 13.3405 31.034 13.0637 30.8233C12.5078 30.3997 11.7162 30.2753 11.0506 30.3976C9.33827 30.7122 7.83353 32.7014 8.02358 34.436C8.10325 35.161 8.53559 35.716 9.31401 35.7092C10.2533 35.7017 10.8295 34.8413 11.2614 34.1282C11.1354 34.7557 11.2472 35.545 12.0055 35.623C12.8583 35.7105 13.5948 34.8027 13.9988 34.1845C14.1427 36.1278 16.3513 35.9521 17.4502 34.8322C17.971 34.9494 18.5563 34.9245 19.1101 34.5046C19.0401 35.2917 19.5857 35.7799 20.3609 35.6947C21.2124 35.6009 21.8826 34.848 22.2993 34.1655C22.0764 34.9684 21.9613 35.3783 21.8371 35.6994C20.9931 36.0651 19.86 36.4905 19.424 37.3696C19.0368 38.1499 19.3881 38.9285 20.2693 38.9946C21.8568 39.1134 22.347 37.2587 22.656 36.0578C23.9832 35.4156 24.1742 34.8805 24.1464 34.5896Z" fill="#314458"/>
<path d="M25.8736 31.7464C25.8736 32.1677 25.9479 32.5581 26.0966 32.9167C26.2452 33.2754 26.4516 33.5861 26.7157 33.8484C26.9803 34.1109 27.2905 34.3163 27.6476 34.464C28.0047 34.6121 28.3916 34.6859 28.8081 34.6859C29.2247 34.6859 29.6098 34.6121 29.963 34.464C30.3163 34.3163 30.6212 34.1129 30.878 33.854C31.1345 33.5952 31.3372 33.2847 31.486 32.9221C31.635 32.5599 31.7095 32.1677 31.7095 31.7464C31.7095 31.3324 31.635 30.9461 31.486 30.5874C31.3372 30.2288 31.1345 29.918 30.878 29.6554C30.6212 29.3931 30.3163 29.1859 29.963 29.0344C29.6098 28.8831 29.2247 28.8068 28.8081 28.8068C28.3916 28.8068 28.0047 28.8831 27.6476 29.0344C27.2905 29.1859 26.9803 29.3949 26.7157 29.661C26.4516 29.9272 26.2452 30.238 26.0966 30.5928C25.9479 30.9477 25.8736 31.3324 25.8736 31.7464ZM32.4777 36.2944C32.5669 36.3754 32.5742 36.4641 32.5001 36.5606L32.0099 37.1043C31.9728 37.1559 31.9283 37.1819 31.8763 37.1819C31.8245 37.1819 31.7798 37.1632 31.7428 37.1261L30.039 35.5733C29.6602 35.6843 29.2517 35.7398 28.8136 35.7398C28.2196 35.7398 27.6718 35.6382 27.171 35.4347C26.6696 35.2313 26.2372 34.9504 25.8736 34.5915C25.5095 34.2331 25.2258 33.8097 25.0214 33.3214C24.8172 32.8335 24.7153 32.3085 24.7153 31.7464C24.7153 31.1844 24.8172 30.6593 25.0214 30.1712C25.2258 29.6833 25.5095 29.2598 25.8736 28.9014C26.2372 28.5426 26.6696 28.2598 27.171 28.0528C27.6718 27.8459 28.2196 27.7423 28.8136 27.7423C29.4077 27.7423 29.9533 27.8438 30.4508 28.0473C30.9482 28.2508 31.3769 28.5316 31.7372 28.8901C32.0971 29.249 32.3794 29.6723 32.5837 30.1602C32.7876 30.6481 32.89 31.1773 32.89 31.7464C32.89 32.4639 32.734 33.109 32.4222 33.6821C32.1104 34.2554 31.6871 34.7192 31.1526 35.074L32.4777 36.2944Z" fill="#19A6B6"/>
<path d="M38.35 30.5373C38.4763 30.5373 38.5391 30.6004 38.5391 30.7259V35.4511C38.5391 35.5772 38.4763 35.6398 38.35 35.6398H37.8041C37.6779 35.6398 37.615 35.5805 37.615 35.4624L37.5814 34.8635C37.4327 35.1073 37.2157 35.3144 36.9299 35.4844C36.644 35.6546 36.3006 35.7396 35.8999 35.7396C35.5657 35.7396 35.2575 35.682 34.9755 35.5678C34.6933 35.453 34.4523 35.2924 34.2516 35.0853C34.0511 34.8781 33.8953 34.6288 33.7836 34.3363C33.6722 34.0445 33.6167 33.7208 33.6167 33.366V30.7259C33.6167 30.6004 33.6758 30.5373 33.7948 30.5373H34.5412C34.6598 30.5373 34.7194 30.6004 34.7194 30.7259V33.1441C34.7194 33.6097 34.8379 33.9815 35.0756 34.2589C35.3132 34.5362 35.6324 34.6747 36.0334 34.6747C36.2561 34.6747 36.4548 34.6342 36.6293 34.5526C36.8035 34.4717 36.9484 34.3625 37.0635 34.2256C37.1788 34.0888 37.268 33.9354 37.3308 33.7651C37.3938 33.5952 37.4256 33.4213 37.4256 33.2439V30.7259C37.4256 30.6004 37.4884 30.5373 37.615 30.5373H38.35Z" fill="#19A6B6"/>
<path d="M39.6084 35.6398C39.4821 35.6398 39.4192 35.5772 39.4192 35.4513L39.4303 30.7261C39.4303 30.6003 39.4896 30.5374 39.6084 30.5374H40.3548C40.4733 30.5374 40.5328 30.6003 40.5328 30.7261V35.4513C40.5328 35.5772 40.4733 35.6398 40.3548 35.6398H39.6084ZM39.965 29.5611C39.7494 29.5611 39.5656 29.491 39.4138 29.3504C39.2613 29.2098 39.1855 29.0288 39.1855 28.807C39.1855 28.5849 39.2613 28.4075 39.4138 28.2743C39.5656 28.1413 39.7494 28.0713 39.965 28.0637C40.1877 28.0562 40.3751 28.123 40.5274 28.2634C40.6795 28.4042 40.7556 28.5849 40.7556 28.807C40.7556 29.0288 40.6795 29.2098 40.5274 29.3504C40.3751 29.491 40.1877 29.5611 39.965 29.5611Z" fill="#19A6B6"/>
<path d="M44.0853 34.7302C44.3079 34.7302 44.5139 34.6896 44.7035 34.6081C44.8927 34.5269 45.0598 34.4124 45.2045 34.2643C45.3496 34.1166 45.4626 33.9427 45.5443 33.7432C45.6259 33.5433 45.6668 33.3256 45.6668 33.0887C45.6668 32.8518 45.6259 32.6337 45.5443 32.4342C45.4626 32.2345 45.3496 32.0608 45.2045 31.9129C45.0598 31.765 44.8927 31.6504 44.7035 31.5692C44.5139 31.4875 44.3079 31.447 44.0853 31.447C43.8475 31.447 43.6303 31.4875 43.4338 31.5692C43.2368 31.6504 43.0679 31.7631 42.9269 31.9072C42.786 32.0516 42.6767 32.2253 42.5987 32.4285C42.5206 32.6322 42.4815 32.8518 42.4815 33.0887C42.4815 33.3256 42.5206 33.5433 42.5987 33.7432C42.6767 33.9427 42.786 34.1166 42.9269 34.2643C43.0679 34.4124 43.2368 34.5269 43.4338 34.6081C43.6303 34.6896 43.8475 34.7302 44.0853 34.7302ZM44.2857 30.4375C44.6348 30.4375 44.9613 30.5042 45.2661 30.6373C45.5701 30.7704 45.8339 30.9552 46.0566 31.192C46.2792 31.4287 46.4556 31.7096 46.5855 32.0347C46.7154 32.3603 46.7804 32.7115 46.7804 33.0887C46.7804 33.4658 46.7173 33.8171 46.591 34.1423C46.4648 34.4677 46.2921 34.7489 46.0732 34.9854C45.8542 35.2221 45.5944 35.407 45.2936 35.5401C44.9929 35.6732 44.6645 35.7395 44.3079 35.7395C43.9072 35.7395 43.5581 35.6603 43.2611 35.5012C42.9641 35.3421 42.7189 35.1443 42.5262 34.9076V37.6142C42.5262 37.74 42.4627 37.8026 42.3368 37.8026H41.6128C41.4866 37.8026 41.4233 37.74 41.4233 37.6142V30.726C41.4233 30.6002 41.4866 30.5373 41.6128 30.5373H42.192C42.318 30.5373 42.3815 30.5967 42.3815 30.7149L42.4149 31.3139C42.6152 31.0549 42.8695 30.844 43.1776 30.6817C43.4856 30.5189 43.8549 30.4375 44.2857 30.4375Z" fill="#19A6B6"/>
<path d="M47.729 30.4849H47.8474C47.9858 30.4849 48.0979 30.4391 48.0979 30.3275C48.0979 30.229 48.0251 30.1634 47.8674 30.1634C47.8013 30.1634 47.7553 30.1701 47.729 30.1767V30.4849ZM47.7222 31.0948H47.4722V30.0192C47.5711 29.9994 47.7092 29.9864 47.8872 29.9864C48.0911 29.9864 48.1834 30.0192 48.2625 30.0651C48.3218 30.1111 48.3679 30.1962 48.3679 30.3012C48.3679 30.4192 48.2757 30.5111 48.1438 30.5506V30.5637C48.2493 30.6029 48.3086 30.6817 48.3413 30.8259C48.3744 30.9898 48.3942 31.0555 48.4203 31.0948H48.1506C48.1174 31.0555 48.0979 30.9573 48.0649 30.8326C48.0451 30.7144 47.979 30.6619 47.8411 30.6619H47.7222V31.0948ZM47.0574 30.5307C47.0574 31.0096 47.4129 31.39 47.9002 31.39C48.3744 31.39 48.7234 31.0096 48.7234 30.5374C48.7234 30.0585 48.3744 29.6716 47.8935 29.6716C47.4129 29.6716 47.0574 30.0585 47.0574 30.5307ZM48.9999 30.5307C48.9999 31.1407 48.5193 31.6195 47.8935 31.6195C47.2745 31.6195 46.7808 31.1407 46.7808 30.5307C46.7808 29.934 47.2745 29.4553 47.8935 29.4553C48.5193 29.4553 48.9999 29.934 48.9999 30.5307Z" fill="#314458"/>
</g>
</g>
<defs>
<clipPath id="clip0_435_5849">
<rect width="49" height="39" fill="white"/>
</clipPath>
</defs>
</svg>
