<svg width="70" height="18" viewBox="0 0 70 18" fill="none" xmlns="http://www.w3.org/2000/svg">
<g clip-path="url(#clip0_294_6954)">
<path d="M4.8067 15.2065C4.73998 15.1848 4.67 15.1701 4.59594 15.1701C4.22183 15.1701 3.91895 15.4723 3.91895 15.8454C3.91895 16.2182 4.22183 16.5206 4.59594 16.5206C4.67 16.5206 4.73998 16.5057 4.8067 16.4841C4.53634 16.3952 4.34017 16.1442 4.34017 15.8454C4.34017 15.546 4.53634 15.2954 4.8067 15.2065Z" fill="#2F3D53"/>
<path d="M15.2381 17.0578C14.5664 17.0578 14.0221 16.515 14.0221 15.8453C14.0221 15.1754 14.5664 14.6326 15.2381 14.6326C15.9097 14.6326 16.4539 15.1754 16.4539 15.8453C16.4539 16.515 15.9097 17.0578 15.2381 17.0578ZM13.4168 16.8887L5.91303 17.4777C6.39111 17.0933 6.69763 16.5052 6.69763 15.8453C6.69763 15.4629 6.59324 15.1054 6.4138 14.7967L12.9468 14.6894C13.3328 14.0782 14.0135 13.6713 14.791 13.6713C14.998 13.6713 15.1964 13.7026 15.3858 13.7565C15.3371 13.7534 15.2878 13.7493 15.2381 13.7493C14.0772 13.7493 13.1362 14.6876 13.1362 15.8453C13.1362 16.2256 13.2393 16.5813 13.4168 16.8887ZM4.59569 17.0578C3.92456 17.0578 3.37986 16.515 3.37986 15.8453C3.37986 15.1754 3.92456 14.6326 4.59569 14.6326C5.26732 14.6326 5.81164 15.1754 5.81164 15.8453C5.81164 16.515 5.26732 17.0578 4.59569 17.0578ZM5.97974 7.15662C6.94877 7.98276 6.69252 13.0292 5.47533 13.324C5.06693 13.3407 4.54119 5.93084 5.97974 7.15662ZM8.93998 7.12071C9.90265 7.9442 9.65649 12.9378 8.43645 13.223C8.02468 13.2395 7.50554 5.89401 8.93998 7.12071ZM11.8992 7.07419C12.8569 7.8968 12.6161 12.8344 11.3954 13.1108C10.9797 13.1278 10.4709 5.84727 11.8992 7.07419ZM14.8582 7.02743C15.8107 7.84943 15.5754 12.7308 14.3544 12.9988C13.9352 13.0159 13.4363 5.8005 14.8582 7.02743ZM16.3853 14.0904C16.3155 11.0741 18.106 5.99337 17.3399 4.92365C16.9915 4.43777 16.4197 5.22447 14.2047 5.6198C12.3343 5.95357 6.86073 5.94364 4.15275 5.66953C3.82043 5.10483 3.3881 4.31291 3.3881 3.53815C3.3881 1.24151 5.48168 0.551565 6.29984 0.521448C6.29984 1.12722 6.28835 1.79826 6.30233 2.44491L6.69824 2.68804C6.69987 1.95046 6.70274 0.774765 6.69763 0.422979C6.69501 0.263546 6.69824 0.097393 6.52716 0.0119781C6.34099 -0.0809193 2.76522 0.321232 2.76522 3.6257C2.76522 4.06147 2.85725 4.82117 2.97945 5.47158C3.42774 9.22659 3.5411 10.2206 3.44023 13.7909C3.66267 13.7145 3.90049 13.6713 4.14889 13.6713C4.35926 13.6713 4.56252 13.7018 4.75505 13.7571C4.70244 13.7534 4.64979 13.7493 4.59569 13.7493C3.43512 13.7493 2.49387 14.6876 2.49387 15.8453C2.49387 16.6236 2.92022 17.3011 3.55196 17.6628L0 17.9414H15.2381C16.3987 17.9414 17.3399 17.0029 17.3399 15.8453C17.3399 15.1101 16.9597 14.4643 16.3853 14.0904Z" fill="#2F3D53"/>
<path d="M15.4489 15.2065C15.3822 15.1848 15.3121 15.1701 15.2382 15.1701C14.864 15.1701 14.561 15.4723 14.561 15.8454C14.561 16.2182 14.864 16.5206 15.2382 16.5206C15.3121 16.5206 15.3822 16.5057 15.4489 16.4841C15.1787 16.3952 14.9825 16.1442 14.9825 15.8454C14.9825 15.546 15.1787 15.2954 15.4489 15.2065Z" fill="#2F3D53"/>
<path d="M7.05017 4.35485L8.01769 4.25772L7.31826 3.63667L7.52327 2.76965L6.74951 3.24878L5.85615 2.67427L6.04382 3.69041L5.26758 4.3214L6.2421 4.38408L6.60449 5.29163L7.05017 4.35485Z" fill="#35A8B6"/>
<path d="M27.9326 12.6799C27.7423 14.3877 25.8732 14.4548 24.6535 13.4276C25.0227 12.6355 25.2577 11.6194 25.448 10.9831C26.5787 10.9048 28.0859 11.2367 27.9326 12.6799ZM22.9295 14.1309C21.7598 14.1908 22.3211 12.4645 23.758 13.5056C23.5003 13.9189 23.2319 14.1088 22.9295 14.1309ZM26.321 6.89781C24.8332 6.88549 22.8028 7.48652 22.7795 9.29457C22.7741 9.71675 22.9956 11.2653 23.6864 10.771C24.0337 10.5226 23.408 9.84673 23.741 8.82286C24.1564 7.54634 26.7444 7.04877 27.7465 8.04489C29.0952 9.38584 26.7185 10.4775 25.627 10.4366C25.7376 10.0811 25.8093 9.70891 25.953 9.36483C26.0228 9.19706 26.5488 8.64057 26.5562 8.56136C26.6201 7.86256 25.8233 8.28725 25.5326 8.61421C24.567 9.70121 24.5457 11.6478 24.0153 12.9588C23.1975 12.3895 21.3915 12.2659 21.4078 13.6844C21.4253 15.2464 23.6951 14.9131 24.3399 13.997C25.4876 14.8294 27.3591 15.2694 28.3751 13.9701C29.2989 12.789 28.7904 10.8938 27.205 10.6706C28.3046 10.5357 29.2477 9.49937 28.9114 8.36996C28.5905 7.29276 27.3318 6.90452 26.321 6.89781Z" fill="#2F3D53"/>
<path d="M42.2623 16.2425C42.1455 16.5577 41.6025 17.6617 41.0949 17.1789C40.5197 16.6311 42.179 15.6574 42.4797 15.4973C42.4073 15.7496 42.3591 16.0021 42.2623 16.2425ZM37.6478 13.5588C37.0704 14.1261 36.1206 14.3724 35.8471 13.473C35.6648 12.8724 35.8643 11.7335 36.1688 11.1906C36.5369 10.5344 38.0012 9.75553 38.4249 10.7597C38.6844 11.3751 38.5324 12.6895 37.6478 13.5588ZM44.8807 13.7074C44.8363 13.2485 44.4816 13.856 44.4379 13.8917C44.1704 14.1106 43.9476 14.2639 43.6248 14.4268C43.8623 13.5855 44.0823 12.7395 44.3057 11.8945C44.4465 11.3632 45.31 9.67161 44.3207 9.65954C43.6044 9.65044 43.4671 11.3956 43.2331 11.9676C42.9672 12.6174 42.3785 13.9259 41.5556 14.0546C40.0153 14.2956 42.4465 10.1212 41.6066 9.69832C40.7393 9.26147 40.6713 10.9976 40.5382 11.4546C40.2636 12.3985 40.0408 13.6299 38.7696 13.5103C39.2705 12.6481 39.7608 11.3116 39.2711 10.3429C38.6924 9.19814 37.2083 9.6073 36.4057 10.2639C36.604 9.61016 37.8662 6.86556 37.3893 6.4921C36.475 5.77604 35.9467 8.48184 35.8004 8.95552C35.3542 10.3985 35.3839 12.3584 34.3237 13.4829C34.0737 13.7478 33.5796 14.2617 33.2265 13.9027C32.8792 13.5495 33.5071 11.9981 33.616 11.6047C33.7124 11.2551 33.8595 11.0893 33.5722 10.8544C33.4142 10.7249 33.0975 10.7272 32.9414 10.8393C32.7678 10.9644 32.663 11.6439 32.5689 11.8765C32.3891 12.3202 32.1615 12.7548 31.8835 13.1453C31.6703 13.4444 31.1409 14.2001 30.6693 14.0883C30.0184 13.9334 30.2362 12.8991 30.3749 12.4591C30.5926 11.7668 31.0325 11.0513 31.6414 10.6347C32.3939 10.1197 33.0085 10.3205 33.7909 10.5947C34.0846 10.6976 34.1357 10.8789 34.4064 10.6202C34.7227 10.3183 34.376 10.2465 34.1069 10.0413C33.5668 9.62882 32.7968 9.50743 32.15 9.62656C30.4854 9.93276 29.0223 11.8691 29.2072 13.5576C29.2843 14.2633 29.7051 14.8036 30.4617 14.7971C31.3748 14.7893 31.9349 13.952 32.3547 13.2579C32.2324 13.8687 32.3413 14.6372 33.0784 14.7132C33.9071 14.798 34.6231 13.9147 35.0164 13.3128C35.1559 15.2043 37.3028 15.0333 38.3715 13.9433C38.8775 14.0571 39.447 14.0329 39.9846 13.6241C39.9169 14.3904 40.4472 14.8658 41.2009 14.7827C42.0287 14.6913 42.6805 13.9588 43.0853 13.2942C42.8686 14.0758 42.7565 14.4749 42.6362 14.7875C41.8157 15.1434 40.7141 15.5575 40.2898 16.4131C39.9137 17.1723 40.255 17.9303 41.1121 17.9947C42.655 18.1106 43.1319 16.3055 43.432 15.1363C44.7223 14.511 44.9081 13.9903 44.8807 13.7074Z" fill="#2F3D53"/>
<path d="M46.5605 10.9394C46.5605 11.3495 46.6326 11.7294 46.7776 12.0786C46.9222 12.428 47.1227 12.7302 47.3793 12.9855C47.6363 13.241 47.938 13.441 48.285 13.5849C48.632 13.7291 49.0084 13.8006 49.4132 13.8006C49.8183 13.8006 50.1924 13.7291 50.5359 13.5849C50.8794 13.441 51.1759 13.2429 51.4256 12.9911C51.6749 12.7388 51.8722 12.4368 52.0168 12.0841C52.1611 11.7313 52.2336 11.3495 52.2336 10.9394C52.2336 10.5364 52.1611 10.1607 52.0168 9.81119C51.8722 9.46198 51.6749 9.16005 51.4256 8.904C51.1759 8.6487 50.8794 8.44712 50.5359 8.29975C50.1924 8.15213 49.8183 8.07827 49.4132 8.07827C49.0084 8.07827 48.632 8.15213 48.285 8.29975C47.938 8.44712 47.6363 8.65055 47.3793 8.90973C47.1227 9.16887 46.9222 9.47109 46.7776 9.81679C46.6326 10.1621 46.5605 10.5364 46.5605 10.9394ZM52.9806 15.3663C53.0674 15.4453 53.0744 15.532 53.0026 15.6256L52.526 16.1547C52.4896 16.2047 52.4465 16.23 52.3961 16.23C52.3453 16.23 52.3022 16.2122 52.2661 16.1759L50.6096 14.6643C50.2416 14.7725 49.8444 14.8266 49.4189 14.8266C48.8411 14.8266 48.3089 14.7273 47.8218 14.5294C47.3346 14.3316 46.9139 14.0581 46.5605 13.709C46.2065 13.3602 45.9307 12.9478 45.7321 12.4725C45.5335 11.9974 45.4346 11.4866 45.4346 10.9394C45.4346 10.3926 45.5335 9.88145 45.7321 9.4064C45.9307 8.93112 46.2065 8.5191 46.5605 8.1698C46.9139 7.82097 47.3346 7.5455 47.8218 7.34404C48.3089 7.14258 48.8411 7.0416 49.4189 7.0416C49.9964 7.0416 50.527 7.14061 51.0099 7.33856C51.4936 7.53668 51.9108 7.81015 52.2607 8.1591C52.6109 8.50818 52.8851 8.92068 53.0837 9.39548C53.2819 9.87053 53.3812 10.3854 53.3812 10.9394C53.3812 11.6376 53.2296 12.2658 52.9266 12.8238C52.6233 13.3816 52.2122 13.8332 51.6925 14.1787L52.9806 15.3663Z" fill="#35A8B6"/>
<path d="M67.8724 10.0661H67.9886C68.1246 10.0661 68.2344 10.021 68.2344 9.91157C68.2344 9.81456 68.1633 9.74987 68.0078 9.74987C67.9433 9.74987 67.898 9.75646 67.8724 9.76331V10.0661ZM67.8654 10.6659H67.6199V9.60811C67.717 9.58897 67.8526 9.57579 68.0276 9.57579C68.2281 9.57579 68.3184 9.60811 68.396 9.65325C68.4544 9.69865 68.4994 9.78222 68.4994 9.88543C68.4994 10.0015 68.4091 10.0919 68.2795 10.1308V10.1435C68.3832 10.1824 68.4416 10.2598 68.4735 10.4015C68.5061 10.5627 68.5253 10.6272 68.5514 10.6659H68.2858C68.2536 10.6272 68.2344 10.5306 68.2022 10.4081C68.1824 10.2921 68.1179 10.2402 67.9823 10.2402H67.8654V10.6659ZM67.2126 10.1111C67.2126 10.5822 67.5618 10.9562 68.0404 10.9562C68.5061 10.9562 68.8486 10.5822 68.8486 10.1181C68.8486 9.64666 68.5061 9.26638 68.0336 9.26638C67.5618 9.26638 67.2126 9.64666 67.2126 10.1111ZM69.1206 10.1111C69.1206 10.7112 68.6482 11.182 68.0336 11.182C67.4258 11.182 66.9409 10.7112 66.9409 10.1111C66.9409 9.52454 67.4258 9.05372 68.0336 9.05372C68.6482 9.05372 69.1206 9.52454 69.1206 10.1111Z" fill="#2F3D53"/>
<path d="M58.6893 9.76277C58.8119 9.76277 58.8735 9.82396 58.8735 9.94621V14.546C58.8735 14.6684 58.8119 14.7293 58.6893 14.7293H58.1587C58.0361 14.7293 57.9748 14.6718 57.9748 14.5564L57.9423 13.9735C57.7977 14.2111 57.5867 14.4128 57.3089 14.5779C57.0309 14.744 56.697 14.8267 56.3075 14.8267C55.9822 14.8267 55.6831 14.7707 55.4089 14.659C55.1343 14.5477 54.9 14.391 54.705 14.1896C54.5102 13.9881 54.3586 13.745 54.2504 13.461C54.1422 13.1764 54.0879 12.8615 54.0879 12.5161V9.94621C54.0879 9.82396 54.1457 9.76277 54.2609 9.76277H54.9862C55.1018 9.76277 55.1595 9.82396 55.1595 9.94621V12.2999C55.1595 12.7532 55.2751 13.1155 55.5059 13.385C55.737 13.6548 56.0477 13.7901 56.4368 13.7901C56.6539 13.7901 56.8467 13.7506 57.0165 13.6714C57.186 13.5924 57.3265 13.4861 57.4389 13.3527C57.5506 13.2197 57.6374 13.0703 57.6981 12.9047C57.7597 12.7389 57.7907 12.5702 57.7907 12.3973V9.94621C57.7907 9.82396 57.8519 9.76277 57.9748 9.76277H58.6893Z" fill="#35A8B6"/>
<path d="M59.9125 14.7292C59.7899 14.7292 59.7286 14.6681 59.7286 14.5459L59.7394 9.94616C59.7394 9.82366 59.7969 9.76273 59.9125 9.76273H60.6378C60.7533 9.76273 60.8108 9.82366 60.8108 9.94616V14.5459C60.8108 14.6681 60.7533 14.7292 60.6378 14.7292H59.9125ZM60.2588 8.81262C60.0494 8.81262 59.871 8.74423 59.7232 8.60731C59.575 8.47063 59.501 8.29442 59.501 8.07816C59.501 7.86238 59.575 7.68954 59.7232 7.55981C59.871 7.43037 60.0494 7.36211 60.2588 7.35476C60.4756 7.34756 60.6576 7.41247 60.8057 7.54902C60.9538 7.68591 61.0279 7.86238 61.0279 8.07816C61.0279 8.29442 60.9538 8.47063 60.8057 8.60731C60.6576 8.74423 60.4756 8.81262 60.2588 8.81262Z" fill="#35A8B6"/>
<path d="M64.2649 13.8439C64.4814 13.8439 64.6815 13.8041 64.866 13.7251C65.0499 13.6461 65.2124 13.5346 65.3532 13.3903C65.4937 13.2464 65.6035 13.0776 65.683 12.883C65.7621 12.6886 65.802 12.4763 65.802 12.246C65.802 12.0158 65.7621 11.8035 65.683 11.6089C65.6035 11.4145 65.4937 11.2458 65.3532 11.1018C65.2124 10.9579 65.0499 10.846 64.866 10.767C64.6815 10.6877 64.4814 10.6482 64.2649 10.6482C64.0335 10.6482 63.8228 10.6877 63.6313 10.767C63.4404 10.846 63.2756 10.9557 63.1387 11.0959C63.0017 11.2367 62.8954 11.4056 62.8195 11.6036C62.7435 11.8017 62.7058 12.0158 62.7058 12.246C62.7058 12.4763 62.7435 12.6886 62.8195 12.883C62.8954 13.0776 63.0017 13.2464 63.1387 13.3903C63.2756 13.5346 63.4404 13.6461 63.6313 13.7251C63.8228 13.8041 64.0335 13.8439 64.2649 13.8439ZM64.4597 9.66542C64.799 9.66542 65.1166 9.73008 65.4126 9.85981C65.7082 9.98951 65.9648 10.1694 66.1813 10.3998C66.3977 10.6302 66.5691 10.9038 66.6956 11.2203C66.822 11.537 66.8852 11.8788 66.8852 12.246C66.8852 12.6135 66.8233 12.9551 66.701 13.2716C66.5784 13.5885 66.4102 13.8623 66.1976 14.0924C65.9846 14.323 65.7318 14.5028 65.4394 14.6325C65.147 14.762 64.8277 14.8267 64.4814 14.8267C64.0919 14.8267 63.7522 14.7492 63.4637 14.5944C63.1751 14.4396 62.9369 14.2472 62.7492 14.0169V16.6514C62.7492 16.7735 62.6876 16.8347 62.565 16.8347H61.8611C61.7385 16.8347 61.6772 16.7735 61.6772 16.6514V9.94625C61.6772 9.82374 61.7385 9.76281 61.8611 9.76281H62.4242C62.5471 9.76281 62.6081 9.82024 62.6081 9.93564L62.641 10.5185C62.8354 10.2668 63.0828 10.0613 63.3823 9.90295C63.682 9.74476 64.0412 9.66542 64.4597 9.66542Z" fill="#35A8B6"/>
</g>
<defs>
<clipPath id="clip0_294_6954">
<rect width="69.12" height="18" fill="white"/>
</clipPath>
</defs>
</svg>
