<svg width="86" height="86" viewBox="0 0 86 86" fill="none" xmlns="http://www.w3.org/2000/svg">
<rect width="86" height="86" rx="12" fill="white"/>
<path fill-rule="evenodd" clip-rule="evenodd" d="M36.5633 59.6667C35.8767 59.6667 35.225 59.6134 34.6117 59.5084L34.2483 59.44C30.2967 58.6184 28 55.5917 28 50.985V35.015C28 34.4584 28.0333 33.925 28.1 33.415C28.6817 28.94 31.7567 26.3334 36.5633 26.3334H49.4383C54.765 26.3334 57.95 29.5334 58 34.8867V35.015V50.985C58 56.4134 54.8067 59.6667 49.4383 59.6667H36.5633ZM36.5634 28.7617C32.4701 28.7617 30.3951 30.8667 30.3951 35.0151V50.9851C30.3951 55.1334 32.4701 57.2384 36.5634 57.2384H49.4234C53.5151 57.2384 55.5767 55.1334 55.5767 50.9851V35.0151C55.5767 30.8667 53.5151 28.7617 49.4234 28.7617H36.5634ZM50.1767 50.0567C50.1767 49.39 49.6451 48.85 48.9884 48.85H36.9701C36.3134 48.85 35.7801 49.39 35.7801 50.0567C35.7801 50.7233 36.3134 51.2633 36.9701 51.2633H48.9884C49.6451 51.2633 50.1767 50.7233 50.1767 50.0567ZM48.9883 41.785C49.4467 41.735 49.895 41.955 50.14 42.35C50.385 42.7483 50.385 43.2517 50.14 43.65C49.895 44.045 49.4467 44.265 48.9883 44.215H36.97C36.36 44.145 35.8983 43.6233 35.8983 43C35.8983 42.3767 36.36 41.8533 36.97 41.785H48.9883ZM42.6282 35.9517C42.6282 35.3284 42.1666 34.805 41.5566 34.7367H36.9849C36.3732 34.805 35.9116 35.3284 35.9116 35.9517C35.9116 36.5734 36.3732 37.0967 36.9849 37.165H41.5566C42.1666 37.0967 42.6282 36.5734 42.6282 35.9517Z" fill="#605DEC"/>
<path d="M34.6117 59.5084L34.5655 59.7541L34.5695 59.7548L34.6117 59.5084ZM34.2483 59.44L34.1974 59.6849L34.2021 59.6857L34.2483 59.44ZM28.1 33.415L28.3479 33.4474L28.3479 33.4473L28.1 33.415ZM58 34.8867H58.25L58.25 34.8844L58 34.8867ZM50.14 42.35L50.3529 42.219L50.3524 42.2182L50.14 42.35ZM48.9883 41.785V42.035H49.0019L49.0154 42.0335L48.9883 41.785ZM50.14 43.65L50.3524 43.7818L50.3529 43.781L50.14 43.65ZM48.9883 44.215L49.0154 43.9665L49.0019 43.965H48.9883V44.215ZM36.97 44.215L36.9415 44.4634L36.9557 44.465H36.97V44.215ZM36.97 41.785V41.535H36.956L36.9422 41.5366L36.97 41.785ZM41.5566 34.7367L41.5844 34.4883L41.5705 34.4867H41.5566V34.7367ZM36.9849 34.7367V34.4867H36.971L36.9571 34.4883L36.9849 34.7367ZM36.9849 37.165L36.9571 37.4135L36.971 37.415H36.9849V37.165ZM41.5566 37.165V37.415H41.5705L41.5844 37.4135L41.5566 37.165ZM34.5695 59.7548C35.1979 59.8624 35.8638 59.9167 36.5633 59.9167V59.4167C35.8896 59.4167 35.2521 59.3644 34.6539 59.262L34.5695 59.7548ZM34.2021 59.6857L34.5655 59.7541L34.6579 59.2627L34.2945 59.1943L34.2021 59.6857ZM27.75 50.985C27.75 53.3294 28.3346 55.2936 29.4417 56.7812C30.5504 58.2709 32.1686 59.263 34.1974 59.6848L34.2992 59.1953C32.3764 58.7955 30.8704 57.8634 29.8428 56.4827C28.8137 55.0998 28.25 53.2474 28.25 50.985H27.75ZM27.75 35.015V50.985H28.25V35.015H27.75ZM27.8521 33.3826C27.7839 33.9042 27.75 34.4484 27.75 35.015H28.25C28.25 34.4683 28.2827 33.9459 28.3479 33.4474L27.8521 33.3826ZM36.5633 26.0834C34.1149 26.0834 32.0834 26.7478 30.5865 28.0046C29.0885 29.2625 28.1496 31.0941 27.8521 33.3828L28.3479 33.4473C28.6321 31.261 29.5215 29.5518 30.9081 28.3875C32.2958 27.2223 34.2051 26.5834 36.5633 26.5834V26.0834ZM49.4383 26.0834H36.5633V26.5834H49.4383V26.0834ZM58.25 34.8844C58.2245 32.1587 57.3998 29.9518 55.8747 28.4258C54.3493 26.8995 52.1521 26.0834 49.4383 26.0834V26.5834C52.0513 26.5834 54.1098 27.3672 55.5211 28.7793C56.9327 30.1917 57.7255 32.2614 57.75 34.889L58.25 34.8844ZM58.25 35.015V34.8867H57.75V35.015H58.25ZM58.25 50.985V35.015H57.75V50.985H58.25ZM49.4383 59.9167C52.1734 59.9167 54.3839 59.0869 55.9104 57.5369C57.4365 55.9875 58.25 53.748 58.25 50.985H57.75C57.75 53.6504 56.9669 55.7518 55.5542 57.1861C54.142 58.6199 52.0716 59.4167 49.4383 59.4167V59.9167ZM36.5633 59.9167H49.4383V59.4167H36.5633V59.9167ZM30.6451 35.0151C30.6451 32.9795 31.154 31.49 32.1222 30.5083C33.0898 29.5272 34.5571 29.0117 36.5634 29.0117V28.5117C34.4764 28.5117 32.8595 29.0487 31.7662 30.1572C30.6736 31.2651 30.1451 32.9023 30.1451 35.0151H30.6451ZM30.6451 50.9851V35.0151H30.1451V50.9851H30.6451ZM36.5634 56.9884C34.5571 56.9884 33.0898 56.4729 32.1222 55.4918C31.154 54.5101 30.6451 53.0207 30.6451 50.9851H30.1451C30.1451 53.0978 30.6736 54.735 31.7662 55.8429C32.8595 56.9514 34.4764 57.4884 36.5634 57.4884V56.9884ZM49.4234 56.9884H36.5634V57.4884H49.4234V56.9884ZM55.3267 50.9851C55.3267 53.0211 54.8209 54.5105 53.8562 55.4921C52.8922 56.4729 51.4289 56.9884 49.4234 56.9884V57.4884C51.5096 57.4884 53.123 56.9514 54.2128 55.8426C55.3017 54.7346 55.8267 53.0974 55.8267 50.9851H55.3267ZM55.3267 35.0151V50.9851H55.8267V35.0151H55.3267ZM49.4234 29.0117C51.4289 29.0117 52.8922 29.5272 53.8562 30.508C54.8209 31.4896 55.3267 32.9791 55.3267 35.0151H55.8267C55.8267 32.9027 55.3017 31.2655 54.2128 30.1575C53.123 29.0488 51.5096 28.5117 49.4234 28.5117V29.0117ZM36.5634 29.0117H49.4234V28.5117H36.5634V29.0117ZM48.9884 49.1C49.5034 49.1 49.9267 49.5244 49.9267 50.0567H50.4267C50.4267 49.2556 49.7868 48.6 48.9884 48.6V49.1ZM36.9701 49.1H48.9884V48.6H36.9701V49.1ZM36.0301 50.0567C36.0301 49.5249 36.4546 49.1 36.9701 49.1V48.6C36.1722 48.6 35.5301 49.2551 35.5301 50.0567H36.0301ZM36.9701 51.0133C36.4546 51.0133 36.0301 50.5885 36.0301 50.0567H35.5301C35.5301 50.8582 36.1722 51.5133 36.9701 51.5133V51.0133ZM48.9884 51.0133H36.9701V51.5133H48.9884V51.0133ZM49.9267 50.0567C49.9267 50.5889 49.5034 51.0133 48.9884 51.0133V51.5133C49.7868 51.5133 50.4267 50.8578 50.4267 50.0567H49.9267ZM50.3524 42.2182C50.0573 41.7423 49.5162 41.4759 48.9612 41.5365L49.0154 42.0335C49.3771 41.9941 49.7327 42.1677 49.9275 42.4818L50.3524 42.2182ZM50.3529 43.781C50.6473 43.3023 50.6473 42.6977 50.3529 42.219L49.927 42.481C50.1226 42.799 50.1226 43.201 49.927 43.519L50.3529 43.781ZM48.9612 44.4635C49.5162 44.5241 50.0573 44.2577 50.3524 43.7818L49.9275 43.5182C49.7327 43.8323 49.3771 44.0059 49.0154 43.9665L48.9612 44.4635ZM36.97 44.465H48.9883V43.965H36.97V44.465ZM35.6483 43C35.6483 43.7482 36.2031 44.3786 36.9415 44.4634L36.9985 43.9666C36.5169 43.9114 36.1483 43.4985 36.1483 43H35.6483ZM36.9422 41.5366C36.2026 41.6194 35.6483 42.2524 35.6483 43H36.1483C36.1483 42.5009 36.5173 42.0873 36.9978 42.0335L36.9422 41.5366ZM48.9883 41.535H36.97V42.035H48.9883V41.535ZM41.5287 34.9852C42.0092 35.039 42.3782 35.4526 42.3782 35.9517H42.8782C42.8782 35.2041 42.3239 34.5711 41.5844 34.4883L41.5287 34.9852ZM36.9849 34.9867H41.5566V34.4867H36.9849V34.9867ZM36.1616 35.9517C36.1616 35.4528 36.5304 35.039 37.0127 34.9852L36.9571 34.4883C36.2161 34.571 35.6616 35.2039 35.6616 35.9517H36.1616ZM37.0127 36.9166C36.5302 36.8627 36.1616 36.4487 36.1616 35.9517H35.6616C35.6616 36.698 36.2163 37.3307 36.9571 37.4135L37.0127 36.9166ZM41.5566 36.915H36.9849V37.415H41.5566V36.915ZM42.3782 35.9517C42.3782 36.4489 42.0094 36.8628 41.5287 36.9166L41.5844 37.4135C42.3237 37.3307 42.8782 36.6978 42.8782 35.9517H42.3782Z" fill="#605DEC"/>
</svg>
