<svg width="1280" height="771" viewBox="0 0 1280 771" fill="none" xmlns="http://www.w3.org/2000/svg">
<rect width="456" height="51" fill="#605DEC"/>
<text fill="white" xml:space="preserve" style="white-space: pre" font-family="Roboto" font-size="30" font-weight="500" letter-spacing="0em"><tspan x="16" y="35.7539">All in one screen - Mid-fi screen</tspan></text>
<g clip-path="url(#clip0_3271_23650)">
<rect width="1280" height="720" transform="translate(0 51)" fill="white"/>
<rect width="315" height="720" transform="translate(0 51)" fill="#F9F9F9"/>
<path d="M36.824 108.92C35.936 108.92 35.12 108.704 34.376 108.272C33.656 107.84 33.08 107.252 32.648 106.508C32.216 105.764 32 104.948 32 104.06V102.332H36.32V103.916C36.32 104.108 36.38 104.264 36.5 104.384C36.62 104.504 36.776 104.564 36.968 104.564H52.88C53.072 104.564 53.228 104.504 53.348 104.384C53.492 104.264 53.564 104.108 53.564 103.916V98.768C53.564 98.6 53.492 98.456 53.348 98.336C53.228 98.192 53.072 98.12 52.88 98.12H36.824C35.936 98.12 35.12 97.904 34.376 97.472C33.656 97.04 33.08 96.464 32.648 95.744C32.216 95 32 94.184 32 93.296V87.86C32 86.972 32.216 86.156 32.648 85.412C33.08 84.668 33.656 84.08 34.376 83.648C35.12 83.216 35.936 83 36.824 83H53.06C53.948 83 54.752 83.216 55.472 83.648C56.216 84.08 56.804 84.668 57.236 85.412C57.692 86.156 57.92 86.972 57.92 87.86V89.588H53.564V88.004C53.564 87.812 53.492 87.656 53.348 87.536C53.228 87.416 53.072 87.356 52.88 87.356H36.968C36.776 87.356 36.62 87.416 36.5 87.536C36.38 87.656 36.32 87.812 36.32 88.004V93.152C36.32 93.32 36.38 93.476 36.5 93.62C36.62 93.74 36.776 93.8 36.968 93.8H53.06C53.948 93.8 54.752 94.016 55.472 94.448C56.216 94.88 56.804 95.468 57.236 96.212C57.692 96.932 57.92 97.736 57.92 98.624V104.06C57.92 104.948 57.692 105.764 57.236 106.508C56.804 107.252 56.216 107.84 55.472 108.272C54.752 108.704 53.948 108.92 53.06 108.92H36.824Z" fill="#605DEC"/>
<path d="M61.887 108.92V83H85.683V87.356H66.243V93.8H81.903V98.12H66.243V104.564H85.683V108.92H61.887Z" fill="#605DEC"/>
<path d="M89.4495 108.92V83H113.246V87.356H93.8055V93.8H109.466V98.12H93.8055V104.564H113.246V108.92H89.4495Z" fill="#605DEC"/>
<path d="M137.892 108.92L129.936 99.416H135.588L142.752 107.912V108.92H137.892ZM116.94 108.92V83.036H138C138.888 83.036 139.692 83.264 140.412 83.72C141.156 84.152 141.744 84.74 142.176 85.484C142.632 86.204 142.86 87.008 142.86 87.896V95.024C142.86 95.888 142.632 96.692 142.176 97.436C141.744 98.18 141.156 98.768 140.412 99.2C139.692 99.632 138.888 99.848 138 99.848L121.26 99.884V108.92H116.94ZM121.908 95.492H137.856C138.024 95.492 138.168 95.432 138.288 95.312C138.432 95.192 138.504 95.036 138.504 94.844V88.004C138.504 87.836 138.432 87.692 138.288 87.572C138.168 87.428 138.024 87.356 137.856 87.356H121.908C121.74 87.356 121.584 87.428 121.44 87.572C121.32 87.692 121.26 87.836 121.26 88.004V94.844C121.26 95.036 121.32 95.192 121.44 95.312C121.584 95.432 121.74 95.492 121.908 95.492Z" fill="#605DEC"/>
<path d="M43 167.92C47.4183 167.92 51 164.338 51 159.92C51 155.502 47.4183 151.92 43 151.92C38.5817 151.92 35 155.502 35 159.92C35 164.338 38.5817 167.92 43 167.92Z" stroke="#6E7491" stroke-width="2" stroke-linecap="round" stroke-linejoin="round"/>
<path d="M53 169.92L48.65 165.57" stroke="#6E7491" stroke-width="2" stroke-linecap="round" stroke-linejoin="round"/>
<text fill="#36374A" xml:space="preserve" style="white-space: pre" font-family="Nunito Sans" font-size="18" font-weight="600" letter-spacing="0em"><tspan x="64.2051" y="167.342">Search keyword</tspan></text>
<path d="M241 154.42V168.42" stroke="#6E7491" stroke-width="2" stroke-linecap="round" stroke-linejoin="round"/>
<path d="M234 161.42H248" stroke="#6E7491" stroke-width="2" stroke-linecap="round" stroke-linejoin="round"/>
<path d="M275 152.42L280 157.42L267 170.42H262V165.42L275 152.42Z" stroke="#6E7491" stroke-width="2" stroke-linecap="round" stroke-linejoin="round"/>
<path d="M52 197.92L41 208.92L36 203.92" stroke="#6E7491" stroke-width="2" stroke-linecap="round" stroke-linejoin="round"/>
<text fill="#36374A" xml:space="preserve" style="white-space: pre" font-family="Nunito Sans" font-size="18" font-weight="600" letter-spacing="0em"><tspan x="64.4004" y="210.342">Adidas</tspan></text>
<path d="M265 201.42L271 207.42L277 201.42" stroke="#6E7491" stroke-width="2" stroke-linecap="round" stroke-linejoin="round"/>
<text fill="#36374A" xml:space="preserve" style="white-space: pre" font-family="Nunito Sans" font-size="18" font-weight="600" letter-spacing="0em"><tspan x="64.4463" y="252.842">Adidas, New item</tspan></text>
<rect x="235" y="230.92" width="48" height="32" rx="16" fill="#333333"/>
<text fill="white" xml:space="preserve" style="white-space: pre" font-family="Chalkboard" font-size="16" letter-spacing="0em"><tspan x="247" y="252.498">125</tspan></text>
<text fill="#36374A" xml:space="preserve" style="white-space: pre" font-family="Nunito Sans" font-size="18" font-weight="600" letter-spacing="0em"><tspan x="64.3066" y="295.342">Adidas, Hiking shoes</tspan></text>
<text fill="#36374A" xml:space="preserve" style="white-space: pre" font-family="Nunito Sans" font-size="14" font-weight="600" letter-spacing="0em"><tspan x="64.0312" y="324.026">1/21-1/31 2022</tspan></text>
<rect x="244" y="286.92" width="39" height="32" rx="16" fill="#333333"/>
<text fill="white" xml:space="preserve" style="white-space: pre" font-family="Chalkboard" font-size="16" letter-spacing="0em"><tspan x="256" y="308.498">12</tspan></text>
<text fill="#36374A" xml:space="preserve" style="white-space: pre" font-family="Nunito Sans" font-size="18" font-weight="600" letter-spacing="0em"><tspan x="64.1309" y="364.842">Adidas, Altraboost</tspan></text>
<rect x="231" y="342.92" width="52" height="32" rx="16" fill="#333333"/>
<text fill="white" xml:space="preserve" style="white-space: pre" font-family="Chalkboard" font-size="16" letter-spacing="0em"><tspan x="243" y="364.498">229</tspan></text>
<text fill="#EEEEEE" xml:space="preserve" style="white-space: pre" font-family="Chalkboard" font-size="30" letter-spacing="0em"><tspan x="480" y="288.459">Line graph</tspan></text>
<text fill="#36374A" xml:space="preserve" style="white-space: pre" font-family="Chalkboard" font-size="18" letter-spacing="0em"><tspan x="564" y="134.275">Count</tspan></text>
<text fill="#36374A" xml:space="preserve" style="white-space: pre" font-family="Chalkboard" font-size="18" letter-spacing="0em"><tspan x="647" y="134.275">Sentiment score</tspan></text>
<rect x="387" y="105" width="151" height="46" rx="12" fill="#F6F6FE"/>
<text fill="black" xml:space="preserve" style="white-space: pre" font-family="Chalkboard" font-size="24" letter-spacing="0em"><tspan x="397" y="136.367">Upvote ratio</tspan></text>
<path d="M382.5 387C382.5 387.828 383.172 388.5 384 388.5C384.828 388.5 385.5 387.828 385.5 387H382.5ZM385.061 174.939C384.475 174.354 383.525 174.354 382.939 174.939L373.393 184.485C372.808 185.071 372.808 186.021 373.393 186.607C373.979 187.192 374.929 187.192 375.515 186.607L384 178.121L392.485 186.607C393.071 187.192 394.021 187.192 394.607 186.607C395.192 186.021 395.192 185.071 394.607 184.485L385.061 174.939ZM385.5 387V176H382.5V387H385.5Z" fill="#7D7D7D"/>
<path d="M384 385.5C383.172 385.5 382.5 386.172 382.5 387C382.5 387.828 383.172 388.5 384 388.5V385.5ZM847.061 388.061C847.646 387.475 847.646 386.525 847.061 385.939L837.515 376.393C836.929 375.808 835.979 375.808 835.393 376.393C834.808 376.979 834.808 377.929 835.393 378.515L843.879 387L835.393 395.485C834.808 396.071 834.808 397.021 835.393 397.607C835.979 398.192 836.929 398.192 837.515 397.607L847.061 388.061ZM384 388.5H846V385.5H384V388.5Z" fill="#7D7D7D"/>
<text fill="#767676" xml:space="preserve" style="white-space: pre" font-family="Chalkboard" font-size="14" letter-spacing="0em"><tspan x="409" y="409.881">6/29</tspan></text>
<text fill="#767676" xml:space="preserve" style="white-space: pre" font-family="Chalkboard" font-size="14" letter-spacing="0em"><tspan x="458" y="409.881">6/29</tspan></text>
<text fill="#767676" xml:space="preserve" style="white-space: pre" font-family="Chalkboard" font-size="14" letter-spacing="0em"><tspan x="507" y="409.881">7/8</tspan></text>
<text fill="#767676" xml:space="preserve" style="white-space: pre" font-family="Chalkboard" font-size="14" letter-spacing="0em"><tspan x="548" y="409.881">7/15</tspan></text>
<text fill="#767676" xml:space="preserve" style="white-space: pre" font-family="Chalkboard" font-size="14" letter-spacing="0em"><tspan x="594" y="409.881">7/20</tspan></text>
<text fill="#767676" xml:space="preserve" style="white-space: pre" font-family="Chalkboard" font-size="14" letter-spacing="0em"><tspan x="642" y="409.881">7/20</tspan></text>
<text fill="#767676" xml:space="preserve" style="white-space: pre" font-family="Chalkboard" font-size="14" letter-spacing="0em"><tspan x="690" y="409.881">7/26</tspan></text>
<text fill="#767676" xml:space="preserve" style="white-space: pre" font-family="Chalkboard" font-size="14" letter-spacing="0em"><tspan x="366" y="217.881">1</tspan></text>
<text fill="#767676" xml:space="preserve" style="white-space: pre" font-family="Chalkboard" font-size="14" letter-spacing="0em"><tspan x="352" y="295.381">0.5</tspan></text>
<text fill="#767676" xml:space="preserve" style="white-space: pre" font-family="Chalkboard" font-size="14" letter-spacing="0em"><tspan x="364" y="372.881">0</tspan></text>
<path d="M404 313.464C468.462 355.044 532.884 350.484 588.087 343.252C654.408 334.564 676.509 320.25 697.796 298.57C733.746 261.956 771.555 207.965 823 203" stroke="#767676" stroke-width="3" stroke-linecap="round"/>
<text fill="black" xml:space="preserve" style="white-space: pre" font-family="Chalkboard" font-size="24" letter-spacing="0em"><tspan x="897" y="139.367">Community &#38; Post count</tspan></text>
<text fill="black" xml:space="preserve" style="white-space: pre" font-family="Chalkboard" font-size="24" letter-spacing="0em"><tspan x="374" y="499.367">Data table</tspan></text>
<mask id="path-42-inside-1_3271_23650" fill="white">
<path d="M1074.72 338.431C1068.61 352.334 1059.35 364.627 1047.67 374.339C1036 384.052 1022.23 390.918 1007.44 394.396C992.659 397.874 977.269 397.868 962.488 394.379C947.708 390.891 933.94 384.015 922.272 374.294C910.603 364.573 901.354 352.273 895.254 338.365C889.153 324.457 886.369 309.322 887.12 294.154C887.871 278.985 892.137 264.199 899.581 250.962C907.026 237.725 917.445 226.399 930.016 217.878L952.844 251.558C945.492 256.541 939.399 263.165 935.045 270.906C930.692 278.648 928.197 287.295 927.758 296.166C927.318 305.037 928.947 313.888 932.514 322.022C936.082 330.155 941.491 337.348 948.315 343.033C955.139 348.719 963.191 352.74 971.835 354.78C980.479 356.82 989.479 356.824 998.125 354.79C1006.77 352.756 1014.82 348.74 1021.65 343.06C1028.48 337.38 1033.9 330.191 1037.47 322.06L1074.72 338.431Z"/>
</mask>
<path d="M1074.72 338.431C1068.61 352.334 1059.35 364.627 1047.67 374.339C1036 384.052 1022.23 390.918 1007.44 394.396C992.659 397.874 977.269 397.868 962.488 394.379C947.708 390.891 933.94 384.015 922.272 374.294C910.603 364.573 901.354 352.273 895.254 338.365C889.153 324.457 886.369 309.322 887.12 294.154C887.871 278.985 892.137 264.199 899.581 250.962C907.026 237.725 917.445 226.399 930.016 217.878L952.844 251.558C945.492 256.541 939.399 263.165 935.045 270.906C930.692 278.648 928.197 287.295 927.758 296.166C927.318 305.037 928.947 313.888 932.514 322.022C936.082 330.155 941.491 337.348 948.315 343.033C955.139 348.719 963.191 352.74 971.835 354.78C980.479 356.82 989.479 356.824 998.125 354.79C1006.77 352.756 1014.82 348.74 1021.65 343.06C1028.48 337.38 1033.9 330.191 1037.47 322.06L1074.72 338.431Z" fill="#E6E6E6" stroke="#767676" stroke-width="6" mask="url(#path-42-inside-1_3271_23650)"/>
<mask id="path-43-inside-2_3271_23650" fill="white">
<path d="M927.826 219.406C938.883 211.464 951.473 205.913 964.794 203.106C978.115 200.299 991.875 200.298 1005.2 203.104C1018.52 205.909 1031.11 211.459 1042.17 219.4C1053.22 227.341 1062.5 237.499 1069.42 249.226L1034.37 269.891C1030.33 263.033 1024.9 257.092 1018.43 252.448C1011.96 247.804 1004.6 244.558 996.811 242.918C989.02 241.277 980.974 241.277 973.183 242.919C965.393 244.56 958.03 247.807 951.564 252.452L927.826 219.406Z"/>
</mask>
<path d="M927.826 219.406C938.883 211.464 951.473 205.913 964.794 203.106C978.115 200.299 991.875 200.298 1005.2 203.104C1018.52 205.909 1031.11 211.459 1042.17 219.4C1053.22 227.341 1062.5 237.499 1069.42 249.226L1034.37 269.891C1030.33 263.033 1024.9 257.092 1018.43 252.448C1011.96 247.804 1004.6 244.558 996.811 242.918C989.02 241.277 980.974 241.277 973.183 242.919C965.393 244.56 958.03 247.807 951.564 252.452L927.826 219.406Z" fill="#EEEEEE" stroke="#767676" stroke-width="6" mask="url(#path-43-inside-2_3271_23650)"/>
<mask id="path-44-inside-3_3271_23650" fill="white">
<path d="M1068.24 247.279C1076.92 261.252 1081.95 277.185 1082.85 293.611C1083.76 310.037 1080.51 326.426 1073.42 341.267L1036.71 323.719C1040.86 315.039 1042.75 305.454 1042.23 295.848C1041.7 286.242 1038.76 276.924 1033.68 268.752L1068.24 247.279Z"/>
</mask>
<path d="M1068.24 247.279C1076.92 261.252 1081.95 277.185 1082.85 293.611C1083.76 310.037 1080.51 326.426 1073.42 341.267L1036.71 323.719C1040.86 315.039 1042.75 305.454 1042.23 295.848C1041.7 286.242 1038.76 276.924 1033.68 268.752L1068.24 247.279Z" fill="#F5F5F5" stroke="#767676" stroke-width="6" mask="url(#path-44-inside-3_3271_23650)"/>
<rect x="1120.5" y="332.763" width="21.3846" height="4.8" fill="#F5F5F5" stroke="#AAAAAA"/>
<text fill="#4F4F4F" xml:space="preserve" style="white-space: pre" font-family="Chalkboard" font-size="12" letter-spacing="0em"><tspan x="1152.38" y="341.183">r/Funshion</tspan></text>
<rect x="1120.5" y="357.15" width="21" height="5" fill="#EEEEEE" stroke="#AAAAAA"/>
<text fill="#4F4F4F" xml:space="preserve" style="white-space: pre" font-family="Chalkboard" font-size="12" letter-spacing="0em"><tspan x="1152" y="362.509">r/Sneaker</tspan></text>
<rect x="1120.5" y="378.15" width="21" height="5" fill="#E6E6E6" stroke="#AAAAAA"/>
<text fill="#4F4F4F" xml:space="preserve" style="white-space: pre" font-family="Chalkboard" font-size="12" letter-spacing="0em"><tspan x="1150" y="383.833">r/Streetwear</tspan></text>
<rect x="383" y="515" width="845" height="426" rx="7" fill="white"/>
<rect x="383" y="515" width="845" height="426" rx="7" stroke="#AAAAAA" stroke-width="2"/>
<text fill="#7D7D7D" xml:space="preserve" style="white-space: pre" font-family="Chalkboard" font-size="14" letter-spacing="0em"><tspan x="407" y="543.881">Community</tspan></text>
<text fill="#7D7D7D" xml:space="preserve" style="white-space: pre" font-family="Chalkboard" font-size="14" letter-spacing="0em"><tspan x="526" y="543.881">Title</tspan></text>
<text fill="#7D7D7D" xml:space="preserve" style="white-space: pre" font-family="Chalkboard" font-size="14" letter-spacing="0em"><tspan x="605" y="543.881">Author</tspan></text>
<text fill="#7D7D7D" xml:space="preserve" style="white-space: pre" font-family="Chalkboard" font-size="14" letter-spacing="0em"><tspan x="699" y="546.881">Date &#38;  time</tspan></text>
<path d="M796 539L802 545L808 539" stroke="#898F9B" stroke-width="2" stroke-linecap="round" stroke-linejoin="round"/>
<text fill="#7D7D7D" xml:space="preserve" style="white-space: pre" font-family="Chalkboard" font-size="14" letter-spacing="0em"><tspan x="865" y="543.881">Content</tspan></text>
<text fill="#7D7D7D" xml:space="preserve" style="white-space: pre" font-family="Chalkboard" font-size="14" letter-spacing="0em"><tspan x="965" y="546.881">Upvote Ratio</tspan></text>
<path d="M1055 539L1061 545L1067 539" stroke="#898F9B" stroke-width="2" stroke-linecap="round" stroke-linejoin="round"/>
<text fill="#7D7D7D" xml:space="preserve" style="white-space: pre" font-family="Chalkboard" font-size="14" letter-spacing="0em"><tspan x="1124" y="543.881">Sentiment score</tspan></text>
<path d="M384 565H1228" stroke="#AAAAAA" stroke-width="2"/>
<g clip-path="url(#clip1_3271_23650)">
<text fill="#7D7D7D" xml:space="preserve" style="white-space: pre" font-family="Redacted Script" font-size="16" letter-spacing="0em"><tspan x="407" y="602.8">Lorem ipsum dolor sit amet, consec tetur adipiscing elit. Nam condimentum </tspan><tspan x="407" y="622.8">tempus diam, ultricies sollicitudin erat facilisis eget. Vestibulum rhoncus </tspan><tspan x="407" y="642.8">dui vel eros laoreet consectetur. Vivamus eget elementum ligula, vitae </tspan><tspan x="407" y="662.8">pharetra quam. Nullam at ligula sed metu</tspan></text>
</g>
<g clip-path="url(#clip2_3271_23650)">
<text fill="#7D7D7D" xml:space="preserve" style="white-space: pre" font-family="Redacted Script" font-size="16" letter-spacing="0em"><tspan x="407" y="631.8">Lorem ipsum dolor sit amet, consec tetur adipiscing elit. Nam condimentum tempus diam, ultricies </tspan><tspan x="407" y="651.8">sollicitudin erat facilisis eget. Vestibulum rhoncus dui vel eros laoreet consectetur. Vivamus </tspan><tspan x="407" y="671.8">eget elementum ligula, vitae pharetra quam. Nullam at ligula sed metu</tspan></text>
</g>
<g clip-path="url(#clip3_3271_23650)">
<text fill="#7D7D7D" xml:space="preserve" style="white-space: pre" font-family="Redacted Script" font-size="16" letter-spacing="0em"><tspan x="407" y="660.8">Lorem ipsum dolor sit amet, consec tetur adipiscing elit. Nam condimentum tempus diam, ultricies </tspan><tspan x="407" y="680.8">sollicitudin erat facilisis eget. Vestibulum rhoncus dui vel eros laoreet consectetur. Vivamus </tspan><tspan x="407" y="700.8">eget elementum ligula, vitae pharetra quam. Nullam at ligula sed metu</tspan></text>
</g>
<g clip-path="url(#clip4_3271_23650)">
<text fill="#7D7D7D" xml:space="preserve" style="white-space: pre" font-family="Redacted Script" font-size="16" letter-spacing="0em"><tspan x="407" y="689.8">Lorem ipsum dolor sit amet, consec tetur adipiscing elit. Nam condimentum tempus diam, ultricies </tspan><tspan x="407" y="709.8">sollicitudin erat facilisis eget. Vestibulum rhoncus dui vel eros laoreet consectetur. Vivamus </tspan><tspan x="407" y="729.8">eget elementum ligula, vitae pharetra quam. Nullam at ligula sed metu</tspan></text>
</g>
<g clip-path="url(#clip5_3271_23650)">
<text fill="#7D7D7D" xml:space="preserve" style="white-space: pre" font-family="Redacted Script" font-size="16" letter-spacing="0em"><tspan x="407" y="718.8">Lorem ipsum dolor sit amet, consec tetur adipiscing elit. Nam condimentum tempus diam, ultricies </tspan><tspan x="407" y="738.8">sollicitudin erat facilisis eget. Vestibulum rhoncus dui vel eros laoreet consectetur. Vivamus </tspan><tspan x="407" y="758.8">eget elementum ligula, vitae pharetra quam. Nullam at ligula sed metu</tspan></text>
</g>
<g clip-path="url(#clip6_3271_23650)">
<text fill="#7D7D7D" xml:space="preserve" style="white-space: pre" font-family="Redacted Script" font-size="16" letter-spacing="0em"><tspan x="407" y="747.8">Lorem ipsum dolor sit amet, consec tetur adipiscing elit. Nam condimentum tempus diam, </tspan><tspan x="407" y="767.8">ultricies sollicitudin erat facilisis eget. Vestibulum rhoncus dui vel eros laoreet </tspan><tspan x="407" y="787.8">consectetur. Vivamus eget elementum ligula, vitae pharetra quam. Nullam at ligula sed metu</tspan></text>
</g>
<text fill="#DEB650" xml:space="preserve" style="white-space: pre" font-family="Chalkboard" font-size="32" letter-spacing="0em"><tspan x="926" y="631.156">Link to reddite post</tspan></text>
</g>
<defs>
<clipPath id="clip0_3271_23650">
<rect width="1280" height="720" fill="white" transform="translate(0 51)"/>
</clipPath>
<clipPath id="clip1_3271_23650">
<rect width="551" height="20" fill="white" transform="translate(407 588)"/>
</clipPath>
<clipPath id="clip2_3271_23650">
<rect width="715" height="20" fill="white" transform="translate(407 617)"/>
</clipPath>
<clipPath id="clip3_3271_23650">
<rect width="719" height="20" fill="white" transform="translate(407 646)"/>
</clipPath>
<clipPath id="clip4_3271_23650">
<rect width="722" height="20" fill="white" transform="translate(407 675)"/>
</clipPath>
<clipPath id="clip5_3271_23650">
<rect width="719" height="20" fill="white" transform="translate(407 704)"/>
</clipPath>
<clipPath id="clip6_3271_23650">
<rect width="678" height="20" fill="white" transform="translate(407 733)"/>
</clipPath>
</defs>
</svg>
