<svg width="2468" height="1021" viewBox="0 0 2468 1021" fill="none" xmlns="http://www.w3.org/2000/svg">
<path fill-rule="evenodd" clip-rule="evenodd" d="M756.913 492.692C753.357 489.426 750.704 485.213 750.441 480.159C749.681 465.599 770.166 466.308 774.969 473.114C779.773 479.919 781.578 498.458 776.686 500.38C774.735 501.147 770.287 500.402 765.595 498.305L770.719 517.366L754.53 519.354L756.913 492.692Z" fill="#915B3C"/>
<path fill-rule="evenodd" clip-rule="evenodd" d="M764.711 465.849C762.534 465.761 756.76 466.226 755.7 466.356C755.023 466.44 754.309 466.684 753.831 466.112C753.44 465.643 753.455 464.767 753.284 464.189C753.086 463.516 752.841 462.859 752.595 462.203C751.894 460.337 750.965 458.594 749.77 456.998C747.527 454.002 744.512 451.81 740.915 450.761C736.944 449.603 732.629 449.755 728.612 450.583C724.313 451.468 720.558 453.384 716.624 455.236C712.875 457.001 708.845 458.01 704.681 457.884C700.487 457.757 697.102 455.907 693.369 454.216C689.548 452.484 685.311 451.565 681.149 452.407C677.263 453.193 673.846 455.257 670.868 457.819C668.081 460.216 665.876 462.96 664.883 466.561C663.815 470.436 664.313 474.483 667.215 477.435C671.42 481.714 678.301 482.11 683.885 481.301C687.116 480.833 690.224 479.851 693.15 478.4C697.052 476.465 700.277 473.601 703.85 471.16C705.527 470.015 707.284 469.027 709.157 468.242C710.974 467.479 712.798 467.007 714.642 467.935C716.593 468.917 718.353 469.9 720.509 470.4C722.576 470.879 724.721 471.026 726.828 470.751C730.925 470.216 734.812 468.441 738.69 467.096C741.853 465.999 745.244 464.877 748.638 465.141C750.055 465.251 752.144 465.582 752.82 466.957C744.605 469.511 742.582 480.306 745.887 487.642C747.67 491.602 755.945 495.471 758.667 492.94C760.391 491.336 759.021 489.677 758.132 488.58C756.428 486.48 755.582 483.617 758.023 481.709C760.128 480.063 762.916 483.015 762.961 483.006C763.58 482.88 768.603 479.164 771.775 474.252C775.471 474.019 775.731 471.531 774.612 469.661C773.493 467.79 767.718 465.971 764.711 465.849Z" fill="#191847"/>
<path fill-rule="evenodd" clip-rule="evenodd" d="M760.072 574.919L784.967 660.704L796.676 725.113H808.429L796.697 574.919H760.072Z" fill="#784931"/>
<path fill-rule="evenodd" clip-rule="evenodd" d="M748.884 574.919C750.621 619.484 749.936 643.791 749.548 647.84C749.159 651.889 746.952 679.006 731.912 726.473H744.135C764.053 680.936 771.007 653.819 773.291 647.84C775.575 641.86 782.322 617.553 792.173 574.919H748.884Z" fill="#915B3C"/>
<path fill-rule="evenodd" clip-rule="evenodd" d="M759.538 574.919C766.013 604.438 777.213 651.558 793.138 716.278H810.327C811.597 649.849 806.196 606.127 796.843 574.919H759.538Z" fill="#69A1AC"/>
<path fill-rule="evenodd" clip-rule="evenodd" d="M748.797 574.919C750.499 619.484 746.09 663.389 732.433 716.972H750.773C770.728 672.116 785.03 628.427 794.804 574.919H748.797Z" fill="#C5CFD6"/>
<path fill-rule="evenodd" clip-rule="evenodd" d="M730.169 735.308L730.844 724.434C734.793 725.589 739.739 725.136 745.682 723.075C752.072 727.601 760.117 730.692 769.816 732.347V732.347C770.556 732.474 771.054 733.176 770.927 733.916C770.919 733.964 770.908 734.011 770.895 734.058L769.963 737.346H745.682H731.518L730.169 735.308Z" fill="#191847"/>
<path fill-rule="evenodd" clip-rule="evenodd" d="M794.053 735.308L794.728 724.434C798.676 725.589 803.622 725.136 809.566 723.075C815.956 727.601 824.001 730.692 833.7 732.347V732.347C834.44 732.474 834.937 733.176 834.811 733.916C834.803 733.964 834.792 734.011 834.779 734.058L833.846 737.346H809.566H795.402L794.053 735.308Z" fill="#191847"/>
<path fill-rule="evenodd" clip-rule="evenodd" d="M816.196 559.49L840.309 571.403C846.375 571.945 851.555 573.035 855.85 574.676C856.916 575.35 858.323 576.848 854.466 577.227C850.608 577.605 846.568 578.177 846.272 579.567C845.975 580.958 848.552 582.104 847.799 584.043C847.298 585.335 843.438 582.997 836.22 577.028L813.533 571.989L816.196 559.49ZM734.321 574.485L748.317 572.074C744.597 601.475 742.543 617.089 742.155 618.916C741.283 623.027 745.591 628.295 747.547 631.189C743.342 634.036 742.495 626.386 737.209 630.08C732.385 633.452 729.168 638.588 722.435 635.912C721.607 635.583 720.483 633.993 722.221 632.289C726.55 628.044 732.604 620.883 733.22 618.768C734.06 615.885 734.427 601.124 734.321 574.485Z" fill="#915B3C"/>
<path fill-rule="evenodd" clip-rule="evenodd" d="M763.72 508.788L769.332 506.775C794.076 521.538 809.179 555.619 838.829 569.856L833.878 578.826C787.22 581.223 768.238 539.752 763.72 508.788Z" fill="#55479F"/>
<path fill-rule="evenodd" clip-rule="evenodd" d="M751.315 585.967C774.521 581.875 791.59 578.865 802.524 576.937C804.863 576.525 803.827 573.224 803.188 571.578C795.814 552.589 776.835 534.065 771.896 506.055L756.717 506.343C747.964 528.147 748.005 553.084 751.315 585.967Z" fill="#DDE3E9"/>
<path fill-rule="evenodd" clip-rule="evenodd" d="M741.679 528.91C739.425 528.671 737.472 527.532 735.821 525.493C728.705 516.704 729.709 510.997 735.168 508.216C740.626 505.436 746.412 508.16 755.604 506.539C756.104 506.451 756.568 506.402 756.995 506.391L761.665 505.84C782.861 548.463 791.809 577.817 788.511 593.9L748.206 601.007C746.8 606.997 745.341 612.085 743.829 616.271L732.847 618.208C725.92 584.97 728.864 555.204 741.679 528.91Z" fill="#6956E5"/>
<path fill-rule="evenodd" clip-rule="evenodd" d="M752.911 576.367C756.049 586.75 759.466 594.084 763.164 598.37L748.206 601.007C749.846 594.021 751.415 585.807 752.911 576.367L752.911 576.367Z" fill="black" fill-opacity="0.1"/>
<path fill-rule="evenodd" clip-rule="evenodd" d="M2082.29 491.786C2079.16 488.11 2077.04 483.605 2077.39 478.557C2078.41 464.013 2098.66 467.213 2102.6 474.553C2106.54 481.894 2106.07 500.514 2100.98 501.826C2098.95 502.349 2094.63 501.067 2090.22 498.415L2092.99 517.958H2076.68L2082.29 491.786Z" fill="#57331F"/>
<path fill-rule="evenodd" clip-rule="evenodd" d="M2091.04 480.163C2091.66 488.861 2093.32 493.209 2095.99 493.209C2100.01 493.209 2103.42 490.658 2105.19 490.658C2106.47 490.658 2106.18 492.267 2105.33 493.459C2104.63 494.443 2101.21 495.391 2101.21 496.917C2101.21 498.442 2103.91 497.262 2103.91 498.167C2103.91 499.663 2104.39 502.477 2101.79 502.477C2099.16 502.477 2091.62 501.519 2090.33 497.618C2089.5 495.1 2088.96 489.883 2088.72 481.967C2088.56 481.948 2088.39 481.938 2088.23 481.938C2085.98 481.938 2084.15 483.764 2084.15 486.016C2084.15 487.159 2084.62 488.192 2085.38 488.933C2084.44 490.265 2083.38 491.656 2082.17 493.091C2077.62 490.36 2074.24 482.365 2078.69 474.685C2079.92 470.923 2082.7 468.913 2085.99 467.98C2088.66 466.866 2091.42 466.74 2093.76 467.408C2098.33 467.801 2102.42 469.196 2103.58 470.025C2103.58 474.358 2102.74 475.643 2095.57 475.53C2093.81 476.46 2092.45 478.063 2091.04 480.163Z" fill="#191847"/>
<path fill-rule="evenodd" clip-rule="evenodd" d="M2075.37 574.197L2108.72 658.624L2131.1 729.999H2139.93L2105.73 574.197L2075.37 574.197Z" fill="#3D2216"/>
<path fill-rule="evenodd" clip-rule="evenodd" d="M2068.65 574.197C2068.3 603.865 2063.12 643.809 2062.29 645.658C2061.74 646.891 2042.69 662.569 2005.15 692.693L2011.23 699.205C2055.53 673.377 2078.7 658.741 2080.75 655.296C2083.83 650.129 2093.84 602.58 2101.87 574.197H2068.65Z" fill="#57331F"/>
<path fill-rule="evenodd" clip-rule="evenodd" d="M2004.33 690.52C2002.29 691.242 2000.88 691.927 2000.11 692.575C1999.17 693.363 1997.93 694.668 1996.39 696.493C1997.31 697.582 2005.52 707.37 2021.03 725.856C2024.2 724.503 2025.19 722.919 2024.01 721.107C2022.83 719.294 2021.87 717.776 2021.12 716.552L2015.75 697.799C2015.65 697.438 2015.27 697.229 2014.91 697.333C2014.9 697.334 2014.9 697.336 2014.89 697.338L2012.03 698.246C2010.04 697.32 2008.65 696.382 2007.85 695.43C2007.2 694.657 2006.62 693.327 2006.1 691.441L2006.1 691.441C2005.9 690.717 2005.15 690.292 2004.43 690.491C2004.39 690.499 2004.36 690.509 2004.33 690.52Z" fill="#E4E4E4"/>
<path fill-rule="evenodd" clip-rule="evenodd" d="M2127.48 726.704C2126.72 728.734 2126.34 730.253 2126.34 731.26C2126.34 732.486 2126.54 734.274 2126.95 736.625C2128.37 736.625 2141.15 736.625 2165.28 736.625C2166.28 733.332 2165.7 731.554 2163.56 731.292C2161.41 731.029 2159.63 730.792 2158.21 730.581L2140.39 722.638C2140.05 722.485 2139.65 722.639 2139.5 722.982C2139.49 722.988 2139.49 722.994 2139.49 723L2138.34 725.778C2136.36 726.705 2134.74 727.168 2133.5 727.168C2132.49 727.168 2131.1 726.761 2129.32 725.946L2129.32 725.946C2128.64 725.633 2127.83 725.932 2127.52 726.615C2127.5 726.644 2127.49 726.674 2127.48 726.704Z" fill="#E4E4E4"/>
<path fill-rule="evenodd" clip-rule="evenodd" d="M2097.79 722.648L2139.8 718.089L2108.67 574.197H2071.05L2097.79 722.648Z" fill="#69A1AC"/>
<path fill-rule="evenodd" clip-rule="evenodd" d="M2013.84 682.188L2041.39 714.8C2070.41 683.106 2087.32 662.425 2092.14 652.758C2096.96 643.091 2101.29 616.904 2105.13 574.197H2062.78C2060.68 611.769 2059.26 631.429 2058.53 633.178C2057.8 634.926 2042.9 651.263 2013.84 682.188Z" fill="#89C5CC"/>
<path fill-rule="evenodd" clip-rule="evenodd" d="M2134.82 565.77L2154.07 584.551C2159.67 586.94 2164.26 589.579 2167.84 592.466C2168.64 593.437 2169.52 595.296 2165.73 594.464C2161.95 593.632 2157.93 592.927 2157.22 594.158C2156.5 595.389 2158.6 597.276 2157.29 598.887C2156.41 599.961 2153.46 596.544 2148.44 588.637L2128.42 576.834L2134.82 565.77ZM2040.67 548.772L2055.55 548.828C2044.22 585.55 2038.2 604.777 2037.5 606.509C2035.93 610.407 2039.26 616.342 2040.68 619.532C2036.05 621.606 2036.54 613.925 2030.7 616.645C2025.36 619.128 2021.3 623.627 2015.13 619.822C2014.37 619.354 2013.54 617.593 2015.55 616.217C2020.55 612.788 2027.76 606.787 2028.73 604.812C2030.06 602.119 2034.04 583.439 2040.67 548.772Z" fill="#57331F"/>
<path fill-rule="evenodd" clip-rule="evenodd" d="M2086.02 506.556L2091.9 505.548C2101.15 538.273 2148.72 560.579 2151.64 572.813C2152.71 577.299 2149.48 579.567 2151.15 580.933L2143.51 586.525C2142.22 585.016 2139.46 587.776 2133.69 585.845C2127.93 583.914 2086.02 545.305 2086.02 506.556Z" fill="#191847"/>
<path fill-rule="evenodd" clip-rule="evenodd" d="M2095.91 510.907C2095.23 554.232 2120.27 565.283 2114.69 582.664C2110.09 597.016 2065.99 612.445 2058.36 598.376C2055.27 592.681 2053.87 585.794 2053.71 578.305C2051.76 584.058 2050.22 589.011 2049.09 593.163C2047.13 600.326 2039.54 601.465 2039.54 604.224L2029.55 601.465C2030.22 597.716 2025.51 595.89 2026.77 587.515C2032.44 549.989 2047.65 522.787 2072.41 505.91L2072.67 502.246C2072.77 500.748 2074.07 499.619 2075.57 499.724L2093.87 501.004C2095.37 501.109 2096.5 502.408 2096.4 503.905L2095.91 510.907Z" fill="#2F3676"/>
<path fill-rule="evenodd" clip-rule="evenodd" d="M330.598 482.347C327.345 478.529 325.143 473.85 325.511 468.607C326.571 453.5 347.6 456.823 351.69 464.448C355.781 472.072 355.295 491.412 350.008 492.775C347.9 493.319 343.409 491.987 338.838 489.232L341.707 509.531H324.765L330.598 482.347Z" fill="#B28B67"/>
<path fill-rule="evenodd" clip-rule="evenodd" d="M359.196 453.878C358.845 452.645 357.901 451.589 356.63 451.276C356.321 451.2 356.003 451.169 355.685 451.182C355.572 451.187 355.54 451.219 355.487 451.14C355.447 451.081 355.446 450.937 355.43 450.867C355.379 450.652 355.316 450.439 355.238 450.231C354.972 449.524 354.525 448.897 353.986 448.37C352.978 447.383 351.615 446.702 350.2 446.579C349.425 446.511 348.656 446.637 347.924 446.889C347.545 447.02 347.177 447.182 346.819 447.362C346.711 447.416 346.361 447.68 346.253 447.663C346.134 447.644 345.894 447.347 345.796 447.273C344.595 446.351 343.112 445.989 341.616 446C339.928 446.013 338.302 446.097 336.894 447.126C336.596 447.344 336.312 447.583 336.041 447.834C335.899 447.966 335.761 448.104 335.63 448.247C335.55 448.333 335.473 448.421 335.399 448.511C335.272 448.665 335.293 448.716 335.116 448.608C334.438 448.197 333.653 448.004 332.862 448.101C332.392 448.159 331.935 448.3 331.501 448.486C331.354 448.549 331.012 448.801 330.854 448.803C330.698 448.806 330.361 448.572 330.2 448.513C329.331 448.192 328.394 448.113 327.48 448.261C326.538 448.414 325.612 448.79 324.814 449.31C324.43 449.559 324.095 449.836 323.826 450.208C323.71 450.368 323.605 450.538 323.473 450.687C323.396 450.774 323.243 450.863 323.202 450.974C323.226 450.908 322.171 450.501 322.072 450.475C321.541 450.336 321.001 450.364 320.481 450.535C319.504 450.857 318.664 451.578 317.974 452.317C317.619 452.697 317.309 453.116 317.045 453.563C316.919 453.778 316.804 453.998 316.698 454.223C316.647 454.332 316.613 454.468 316.546 454.566C316.459 454.693 316.4 454.695 316.243 454.75C315.443 455.03 314.714 455.505 314.159 456.145C313.598 456.793 313.234 457.591 313.081 458.432C313.072 458.481 313.067 458.687 313.038 458.713C312.998 458.75 312.837 458.734 312.776 458.741C312.566 458.766 312.357 458.803 312.15 458.851C311.77 458.941 311.4 459.074 311.049 459.247C309.684 459.923 308.708 461.189 308.23 462.614C307.729 464.109 307.738 465.823 308.337 467.29C308.434 467.527 308.549 467.757 308.684 467.975C308.767 468.109 308.794 468.109 308.74 468.249C308.68 468.405 308.57 468.557 308.499 468.709C308.266 469.206 308.103 469.734 308 470.272C307.831 471.156 307.748 472.084 307.914 472.975C307.992 473.388 308.126 473.792 308.332 474.161C308.436 474.348 308.559 474.526 308.697 474.691C308.769 474.777 308.846 474.858 308.925 474.937C308.971 474.981 309.031 475.02 309.07 475.07C309.164 475.192 309.184 475.092 309.135 475.271C309.067 475.521 308.912 475.767 308.817 476.01C308.72 476.261 308.631 476.515 308.551 476.772C308.387 477.291 308.249 477.82 308.162 478.358C307.996 479.391 308.025 480.491 308.514 481.439C308.723 481.845 309.022 482.201 309.386 482.477C309.564 482.613 309.756 482.729 309.959 482.825C310.062 482.874 310.195 482.896 310.242 482.996C310.293 483.104 310.218 483.319 310.2 483.439C310.05 484.49 309.975 485.593 310.287 486.622C310.575 487.571 311.208 488.408 312.03 488.962C313.625 490.037 315.775 489.977 317.451 489.116C317.888 488.892 318.297 488.613 318.662 488.284C319.59 489.534 321.501 489.495 322.857 489.138C324.548 488.695 325.904 487.519 326.686 485.975C327.755 487.276 329.997 486.854 330.738 485.442C330.92 485.097 331.027 484.716 331.08 484.331C331.108 484.128 331.09 483.924 331.111 483.723C331.138 483.467 331.309 483.218 331.407 482.971C331.599 482.488 331.718 481.99 331.723 481.47C331.726 481.199 331.691 480.934 331.665 480.665C331.642 480.422 331.709 480.197 331.748 479.957C331.314 480.029 330.786 479.912 330.377 479.786C329.977 479.663 329.601 479.338 329.318 479.041C328.661 478.352 328.26 477.449 327.985 476.55C327.383 474.576 327.63 472.209 329.615 471.126C330.539 470.622 333.309 470.623 334.41 470.873C335.568 471.135 336.881 473.69 336.945 473.93C336.985 474.078 336.965 474.262 337.102 474.361C337.402 474.579 337.896 474.201 338.118 474.015C338.5 473.693 338.772 473.265 339.008 472.831C339.522 471.885 339.937 470.871 340.229 469.835C340.455 469.037 340.599 468.214 340.894 467.436C341.188 466.662 341.651 465.971 342.37 465.532C343.153 465.055 344.05 464.804 344.909 464.504C345.761 464.207 346.598 463.844 347.258 463.214C347.403 463.075 347.544 462.928 347.661 462.765C347.753 462.636 347.844 462.389 347.985 462.308C348.203 462.18 348.522 462.511 348.711 462.631C349.643 463.223 350.421 464.049 351.048 464.95C351.672 465.847 352.183 466.711 352.599 467.712C352.908 468.455 353.1 469.407 353.643 470.015C353.885 470.287 355.685 470.452 356.269 470.214C356.852 469.977 357.505 469.361 357.701 468.975C357.901 468.579 357.949 468.145 357.864 467.712C357.813 467.458 357.711 467.22 357.654 466.97C357.607 466.76 357.564 466.561 357.462 466.369C357.268 466.004 356.937 465.742 356.538 465.632C356.953 465.249 357.297 464.791 357.536 464.279C357.783 463.747 357.993 463.099 358.052 462.515C358.101 462.041 358.026 461.549 357.766 461.142C357.494 460.714 357.011 460.435 356.594 460.168C357.232 459.669 357.778 459.062 358.226 458.39C359.099 457.083 359.639 455.436 359.196 453.878Z" fill="#191847"/>
<path fill-rule="evenodd" clip-rule="evenodd" d="M319.126 568.136L353.066 657.945L376.856 724.139H390.421L357.719 568.136L319.126 568.136Z" fill="#6956E5"/>
<path fill-rule="evenodd" clip-rule="evenodd" d="M310.737 568.136C310.368 598.951 310.635 640.439 309.775 642.36C309.202 643.64 291.377 658.231 256.301 686.131L263.293 698.021C304.937 671.165 326.823 655.949 328.952 652.371C332.146 647.004 348.19 597.616 356.538 568.136H310.737Z" fill="#55479F"/>
<path fill-rule="evenodd" clip-rule="evenodd" d="M244 694.132L255.809 685.145L265.338 696.5C266.071 705.061 268.905 714.662 273.841 725.303L271.678 727.118L254.436 706.569L249.619 698.632L248.537 699.54L244 694.132Z" fill="#191847"/>
<path fill-rule="evenodd" clip-rule="evenodd" d="M375.597 736.845L376.303 722.021H391.127C398.156 726.963 407.332 730.963 418.657 734.021V736.845H391.833L382.656 735.433V736.845H375.597Z" fill="#191847"/>
<path fill-rule="evenodd" clip-rule="evenodd" d="M379.831 540.11L407.701 536.309C413.277 533.208 418.406 531.108 423.088 530.011C424.406 529.972 426.502 530.451 423.379 533.055C420.257 535.658 417.088 538.538 417.644 539.927C418.201 541.317 421.105 540.8 421.586 542.937C421.907 544.362 417.193 544.593 407.446 543.631L384.831 552.597L379.831 540.11ZM292.278 546.562L307.735 546.62C290.786 584.762 281.949 604.732 281.223 606.532C279.589 610.58 283.046 616.745 284.524 620.058C279.71 622.212 280.223 614.234 274.149 617.059C268.606 619.638 264.39 624.311 257.985 620.359C257.198 619.873 256.335 618.044 258.42 616.615C263.614 613.053 271.098 606.82 272.109 604.769C273.489 601.971 280.211 582.569 292.278 546.562Z" fill="#997659"/>
<path fill-rule="evenodd" clip-rule="evenodd" d="M334.618 497.537L346.72 498.344C349.701 525.31 365.936 542.343 402.286 536.576L407.115 571.303C373.141 575.693 343.345 562.091 337.238 525.264C335.658 515.73 334.41 505.809 334.618 497.537Z" fill="#AFB9C5"/>
<path fill-rule="evenodd" clip-rule="evenodd" d="M328.647 494.019L346.984 498.219C346.984 529.758 357.03 549.88 362.183 573.068H312.66C311.963 581.081 311.534 589.316 311.311 597.775H274.23C282.633 553.066 300.368 518.477 327.436 494.008H328.637L328.647 494.019Z" fill="#C5CFD6"/>
<path fill-rule="evenodd" clip-rule="evenodd" d="M320.474 528.074C319.197 547.727 319.948 562.725 322.725 573.068H312.66C314.042 557.195 316.481 542.197 320.474 528.074L320.474 528.074Z" fill="black" fill-opacity="0.1"/>
<path fill-rule="evenodd" clip-rule="evenodd" d="M541.682 484.719C537.56 481.906 534.234 477.996 533.244 472.881C530.393 458.144 551.557 455.883 557.464 462.124C563.371 468.365 567.863 487.007 563.106 489.679C561.209 490.745 556.529 490.633 551.407 489.179L559.386 507.869L543.022 512.254L541.682 484.719Z" fill="#784931"/>
<path fill-rule="evenodd" clip-rule="evenodd" d="M548.87 455.906C546.453 455.829 543.146 456.47 541.822 456.991C542.104 454.938 541.862 452.801 541.074 450.867C540.309 448.988 538.989 447.567 537.714 446.05C537.126 445.35 536.489 444.668 535.694 444.226C534.884 443.775 533.959 443.582 533.053 443.615C532.125 443.648 531.216 443.909 530.39 444.326C530.025 444.511 529.724 444.779 529.371 444.978C529.009 445.182 528.756 444.992 528.409 444.825C527.572 444.423 526.498 444.402 525.61 444.529C524.614 444.672 523.651 445.085 522.814 445.646C522 446.192 521.273 446.92 520.819 447.818C520.617 448.218 520.454 448.655 520.392 449.106C520.367 449.291 520.382 449.392 520.231 449.498C520.091 449.596 519.91 449.646 519.765 449.742C518.359 450.675 517.355 452.212 517.043 453.924C516.861 454.923 517.08 456.536 517.603 458.27C518.126 460.005 520.942 464.141 522.878 465.407C524.607 466.536 526.824 466.992 528.826 466.916C527.954 468.67 527.595 470.667 527.462 472.635C527.317 474.773 527.448 476.92 527.851 479.034C528.233 481.044 528.778 483.131 529.761 484.934C530.68 486.62 532.009 487.85 533.816 488.371C534.645 488.61 535.498 488.728 536.349 488.816C537.187 488.903 538.025 488.982 538.865 488.931C540.456 488.836 542.178 488.318 543.021 486.818C543.324 486.277 543.64 485.615 543.805 485.009C543.864 484.792 543.897 484.651 543.715 484.502C543.496 484.325 543.192 484.225 542.941 484.108C541.507 483.438 540.431 482.319 539.83 480.808C539.22 479.275 539.102 477.116 540.47 476.01C542.158 474.643 544.531 475.056 546.479 475.512C546.525 472.786 547.4 470.107 549.42 468.32C551.654 466.344 554.572 465.401 556.927 463.588C557.54 463.116 558.156 462.601 558.508 461.879C558.655 461.578 558.819 461.193 558.817 460.847C558.814 460.392 558.442 460.11 558.14 459.836C556.536 458.382 551.287 455.983 548.87 455.906Z" fill="#191847"/>
<path fill-rule="evenodd" clip-rule="evenodd" d="M546.753 569.237L572.346 658.699L591.018 724.637H604.637L584.795 569.237H546.753Z" fill="#191847"/>
<path fill-rule="evenodd" clip-rule="evenodd" d="M539.909 569.237C539.317 615.346 537.299 640.496 536.677 644.685C536.056 648.874 526.658 675.525 508.484 724.637H522.593C545.729 677.523 558.645 650.872 561.339 644.685C564.033 638.498 572.348 613.349 584.872 569.237H539.909Z" fill="#2F3676"/>
<path fill-rule="evenodd" clip-rule="evenodd" d="M507.223 737.403L507.929 722.579H522.753C529.782 727.521 538.959 731.521 550.283 734.58V737.403H523.459L514.282 735.991V737.403H507.223Z" fill="#191847"/>
<path fill-rule="evenodd" clip-rule="evenodd" d="M589.107 737.403L589.813 722.579H604.637C611.666 727.521 620.843 731.521 632.167 734.58V737.403H605.343L596.166 735.991V737.403H589.107Z" fill="#191847"/>
<path fill-rule="evenodd" clip-rule="evenodd" d="M604.292 550.6L628.398 564.603C634.642 565.594 639.929 567.088 644.258 569.085C645.312 569.857 646.66 571.502 642.637 571.617C638.613 571.732 634.385 572.034 633.976 573.447C633.568 574.86 636.153 576.226 635.231 578.172C634.617 579.469 630.79 576.782 623.75 570.112L600.618 563.3L604.292 550.6ZM507.917 559.695L520.544 559.303C512.358 590.168 507.934 606.508 507.27 608.323C505.775 612.407 509.439 618.416 511.029 621.659C506.292 623.972 506.532 616.019 500.56 619.045C495.109 621.808 491.054 626.605 484.52 622.903C483.717 622.447 482.792 620.659 484.827 619.163C489.895 615.436 497.162 608.971 498.103 606.894C499.386 604.062 502.657 588.329 507.917 559.695Z" fill="#B28B67"/>
<path fill-rule="evenodd" clip-rule="evenodd" d="M550.572 500.674L557.759 496.818C572.645 520.72 592.469 542.889 621.964 559.367L617.518 571.44C592.511 562.151 569.236 555.614 557.015 537.214C552.913 531.039 551.744 508.716 550.572 500.674Z" fill="#C5CFD6"/>
<path fill-rule="evenodd" clip-rule="evenodd" d="M537.134 577.699C559.396 576.151 576.598 573.117 588.741 568.599C590.246 568.039 590.034 565.405 589.003 563.775C572.948 538.377 561.036 515.847 557.683 496.832C555.805 498.229 552.226 499.019 546.948 499.204C536.559 521.241 534.161 544.847 537.134 577.699Z" fill="#323337"/>
<path fill-rule="evenodd" clip-rule="evenodd" d="M543.217 498.168L548.986 497.151C551.715 504.776 574.724 610.487 593.944 643.005L523.172 655.484C519.081 623.311 524.427 582.855 531.033 548.624C521.932 560.408 515.432 578.801 511.534 603.805L497.68 602.756C500.085 558.755 514.872 524.118 542.043 498.845C542.083 498.681 542.122 498.517 542.161 498.354L542.672 498.264C542.839 498.111 543.006 497.958 543.174 497.806L543.217 498.168Z" fill="#DDE3E9"/>
<path d="M1081.86 634.318H1064.86C1064.38 631.53 1063.48 629.061 1062.18 626.909C1060.88 624.727 1059.26 622.879 1057.32 621.364C1055.38 619.848 1053.17 618.712 1050.68 617.955C1048.23 617.167 1045.58 616.773 1042.73 616.773C1037.67 616.773 1033.18 618.045 1029.27 620.591C1025.36 623.106 1022.3 626.803 1020.09 631.682C1017.88 636.53 1016.77 642.455 1016.77 649.455C1016.77 656.576 1017.88 662.576 1020.09 667.455C1022.33 672.303 1025.39 675.97 1029.27 678.455C1033.18 680.909 1037.65 682.136 1042.68 682.136C1045.47 682.136 1048.08 681.773 1050.5 681.045C1052.95 680.288 1055.15 679.182 1057.09 677.727C1059.06 676.273 1060.71 674.485 1062.05 672.364C1063.41 670.242 1064.35 667.818 1064.86 665.091L1081.86 665.182C1081.23 669.606 1079.85 673.758 1077.73 677.636C1075.64 681.515 1072.89 684.939 1069.5 687.909C1066.11 690.848 1062.14 693.152 1057.59 694.818C1053.05 696.455 1048 697.273 1042.45 697.273C1034.27 697.273 1026.97 695.379 1020.55 691.591C1014.12 687.803 1009.06 682.333 1005.36 675.182C1001.67 668.03 999.818 659.455 999.818 649.455C999.818 639.424 1001.68 630.848 1005.41 623.727C1009.14 616.576 1014.21 611.106 1020.64 607.318C1027.06 603.53 1034.33 601.636 1042.45 601.636C1047.64 601.636 1052.45 602.364 1056.91 603.818C1061.36 605.273 1065.33 607.409 1068.82 610.227C1072.3 613.015 1075.17 616.439 1077.41 620.5C1079.68 624.53 1081.17 629.136 1081.86 634.318ZM1127.03 697.364C1120.22 697.364 1114.31 695.864 1109.31 692.864C1104.31 689.864 1100.43 685.667 1097.67 680.273C1094.94 674.879 1093.58 668.576 1093.58 661.364C1093.58 654.152 1094.94 647.833 1097.67 642.409C1100.43 636.985 1104.31 632.773 1109.31 629.773C1114.31 626.773 1120.22 625.273 1127.03 625.273C1133.85 625.273 1139.76 626.773 1144.76 629.773C1149.76 632.773 1153.63 636.985 1156.35 642.409C1159.11 647.833 1160.49 654.152 1160.49 661.364C1160.49 668.576 1159.11 674.879 1156.35 680.273C1153.63 685.667 1149.76 689.864 1144.76 692.864C1139.76 695.864 1133.85 697.364 1127.03 697.364ZM1127.12 684.182C1130.82 684.182 1133.91 683.167 1136.4 681.136C1138.88 679.076 1140.73 676.318 1141.94 672.864C1143.19 669.409 1143.81 665.561 1143.81 661.318C1143.81 657.045 1143.19 653.182 1141.94 649.727C1140.73 646.242 1138.88 643.47 1136.4 641.409C1133.91 639.348 1130.82 638.318 1127.12 638.318C1123.34 638.318 1120.19 639.348 1117.67 641.409C1115.19 643.47 1113.32 646.242 1112.08 649.727C1110.87 653.182 1110.26 657.045 1110.26 661.318C1110.26 665.561 1110.87 669.409 1112.08 672.864C1113.32 676.318 1115.19 679.076 1117.67 681.136C1120.19 683.167 1123.34 684.182 1127.12 684.182ZM1174.45 696V626.182H1190.18V638.045H1191C1192.45 634.045 1194.86 630.924 1198.23 628.682C1201.59 626.409 1205.61 625.273 1210.27 625.273C1215 625.273 1218.98 626.424 1222.23 628.727C1225.5 631 1227.8 634.106 1229.14 638.045H1229.86C1231.41 634.167 1234.02 631.076 1237.68 628.773C1241.38 626.439 1245.76 625.273 1250.82 625.273C1257.24 625.273 1262.48 627.303 1266.55 631.364C1270.61 635.424 1272.64 641.348 1272.64 649.136V696H1256.14V651.682C1256.14 647.348 1254.98 644.182 1252.68 642.182C1250.38 640.152 1247.56 639.136 1244.23 639.136C1240.26 639.136 1237.15 640.379 1234.91 642.864C1232.7 645.318 1231.59 648.515 1231.59 652.455V696H1215.45V651C1215.45 647.394 1214.36 644.515 1212.18 642.364C1210.03 640.212 1207.21 639.136 1203.73 639.136C1201.36 639.136 1199.21 639.742 1197.27 640.955C1195.33 642.136 1193.79 643.818 1192.64 646C1191.48 648.152 1190.91 650.667 1190.91 653.545V696H1174.45ZM1289.33 696V626.182H1305.78V696H1289.33ZM1297.6 616.273C1295 616.273 1292.75 615.409 1290.88 613.682C1289 611.924 1288.06 609.818 1288.06 607.364C1288.06 604.879 1289 602.773 1290.88 601.045C1292.75 599.288 1295 598.409 1297.6 598.409C1300.24 598.409 1302.48 599.288 1304.33 601.045C1306.21 602.773 1307.15 604.879 1307.15 607.364C1307.15 609.818 1306.21 611.924 1304.33 613.682C1302.48 615.409 1300.24 616.273 1297.6 616.273ZM1339.16 655.091V696H1322.7V626.182H1338.43V638.045H1339.25C1340.86 634.136 1343.42 631.03 1346.93 628.727C1350.48 626.424 1354.86 625.273 1360.07 625.273C1364.89 625.273 1369.08 626.303 1372.66 628.364C1376.27 630.424 1379.05 633.409 1381.02 637.318C1383.02 641.227 1384.01 645.97 1383.98 651.545V696H1367.52V654.091C1367.52 649.424 1366.31 645.773 1363.89 643.136C1361.49 640.5 1358.17 639.182 1353.93 639.182C1351.05 639.182 1348.49 639.818 1346.25 641.091C1344.04 642.333 1342.3 644.136 1341.02 646.5C1339.78 648.864 1339.16 651.727 1339.16 655.091ZM1431.07 723.636C1425.16 723.636 1420.08 722.833 1415.84 721.227C1411.6 719.652 1408.19 717.53 1405.61 714.864C1403.04 712.197 1401.25 709.242 1400.25 706L1415.07 702.409C1415.73 703.773 1416.7 705.121 1417.98 706.455C1419.25 707.818 1420.96 708.939 1423.11 709.818C1425.3 710.727 1428.04 711.182 1431.34 711.182C1436.01 711.182 1439.87 710.045 1442.93 707.773C1445.99 705.53 1447.52 701.833 1447.52 696.682V683.455H1446.7C1445.86 685.152 1444.61 686.894 1442.98 688.682C1441.37 690.47 1439.23 691.97 1436.57 693.182C1433.93 694.394 1430.61 695 1426.61 695C1421.25 695 1416.39 693.742 1412.02 691.227C1407.69 688.682 1404.23 684.894 1401.66 679.864C1399.11 674.803 1397.84 668.47 1397.84 660.864C1397.84 653.197 1399.11 646.727 1401.66 641.455C1404.23 636.152 1407.7 632.136 1412.07 629.409C1416.43 626.652 1421.3 625.273 1426.66 625.273C1430.75 625.273 1434.11 625.97 1436.75 627.364C1439.42 628.727 1441.54 630.379 1443.11 632.318C1444.69 634.227 1445.89 636.03 1446.7 637.727H1447.61V626.182H1463.84V697.136C1463.84 703.106 1462.42 708.045 1459.57 711.955C1456.72 715.864 1452.83 718.788 1447.89 720.727C1442.95 722.667 1437.34 723.636 1431.07 723.636ZM1431.2 682.091C1434.69 682.091 1437.66 681.242 1440.11 679.545C1442.57 677.848 1444.43 675.409 1445.7 672.227C1446.98 669.045 1447.61 665.227 1447.61 660.773C1447.61 656.379 1446.98 652.53 1445.7 649.227C1444.46 645.924 1442.61 643.364 1440.16 641.545C1437.73 639.697 1434.75 638.773 1431.2 638.773C1427.54 638.773 1424.48 639.727 1422.02 641.636C1419.57 643.545 1417.72 646.167 1416.48 649.5C1415.23 652.803 1414.61 656.561 1414.61 660.773C1414.61 665.045 1415.23 668.788 1416.48 672C1417.75 675.182 1419.61 677.667 1422.07 679.455C1424.55 681.212 1427.6 682.091 1431.2 682.091ZM1567.64 644.636L1552.64 646.273C1552.21 644.758 1551.47 643.333 1550.41 642C1549.38 640.667 1547.98 639.591 1546.23 638.773C1544.47 637.955 1542.32 637.545 1539.77 637.545C1536.35 637.545 1533.47 638.288 1531.14 639.773C1528.83 641.258 1527.7 643.182 1527.73 645.545C1527.7 647.576 1528.44 649.227 1529.95 650.5C1531.5 651.773 1534.05 652.818 1537.59 653.636L1549.5 656.182C1556.11 657.606 1561.02 659.864 1564.23 662.955C1567.47 666.045 1569.11 670.091 1569.14 675.091C1569.11 679.485 1567.82 683.364 1565.27 686.727C1562.76 690.061 1559.26 692.667 1554.77 694.545C1550.29 696.424 1545.14 697.364 1539.32 697.364C1530.77 697.364 1523.89 695.576 1518.68 692C1513.47 688.394 1510.36 683.379 1509.36 676.955L1525.41 675.409C1526.14 678.561 1527.68 680.939 1530.05 682.545C1532.41 684.152 1535.48 684.955 1539.27 684.955C1543.18 684.955 1546.32 684.152 1548.68 682.545C1551.08 680.939 1552.27 678.955 1552.27 676.591C1552.27 674.591 1551.5 672.939 1549.95 671.636C1548.44 670.333 1546.08 669.333 1542.86 668.636L1530.95 666.136C1524.26 664.742 1519.3 662.394 1516.09 659.091C1512.88 655.758 1511.29 651.545 1511.32 646.455C1511.29 642.152 1512.45 638.424 1514.82 635.273C1517.21 632.091 1520.53 629.636 1524.77 627.909C1529.05 626.152 1533.97 625.273 1539.55 625.273C1547.73 625.273 1554.17 627.015 1558.86 630.5C1563.59 633.985 1566.52 638.697 1567.64 644.636ZM1613.16 697.364C1606.34 697.364 1600.43 695.864 1595.43 692.864C1590.43 689.864 1586.55 685.667 1583.8 680.273C1581.07 674.879 1579.7 668.576 1579.7 661.364C1579.7 654.152 1581.07 647.833 1583.8 642.409C1586.55 636.985 1590.43 632.773 1595.43 629.773C1600.43 626.773 1606.34 625.273 1613.16 625.273C1619.98 625.273 1625.89 626.773 1630.89 629.773C1635.89 632.773 1639.75 636.985 1642.48 642.409C1645.23 647.833 1646.61 654.152 1646.61 661.364C1646.61 668.576 1645.23 674.879 1642.48 680.273C1639.75 685.667 1635.89 689.864 1630.89 692.864C1625.89 695.864 1619.98 697.364 1613.16 697.364ZM1613.25 684.182C1616.95 684.182 1620.04 683.167 1622.52 681.136C1625.01 679.076 1626.86 676.318 1628.07 672.864C1629.31 669.409 1629.93 665.561 1629.93 661.318C1629.93 657.045 1629.31 653.182 1628.07 649.727C1626.86 646.242 1625.01 643.47 1622.52 641.409C1620.04 639.348 1616.95 638.318 1613.25 638.318C1609.46 638.318 1606.31 639.348 1603.8 641.409C1601.31 643.47 1599.45 646.242 1598.2 649.727C1596.99 653.182 1596.39 657.045 1596.39 661.318C1596.39 665.561 1596.99 669.409 1598.2 672.864C1599.45 676.318 1601.31 679.076 1603.8 681.136C1606.31 683.167 1609.46 684.182 1613.25 684.182ZM1691.03 697.364C1684.22 697.364 1678.31 695.864 1673.31 692.864C1668.31 689.864 1664.43 685.667 1661.67 680.273C1658.94 674.879 1657.58 668.576 1657.58 661.364C1657.58 654.152 1658.94 647.833 1661.67 642.409C1664.43 636.985 1668.31 632.773 1673.31 629.773C1678.31 626.773 1684.22 625.273 1691.03 625.273C1697.85 625.273 1703.76 626.773 1708.76 629.773C1713.76 632.773 1717.63 636.985 1720.35 642.409C1723.11 647.833 1724.49 654.152 1724.49 661.364C1724.49 668.576 1723.11 674.879 1720.35 680.273C1717.63 685.667 1713.76 689.864 1708.76 692.864C1703.76 695.864 1697.85 697.364 1691.03 697.364ZM1691.12 684.182C1694.82 684.182 1697.91 683.167 1700.4 681.136C1702.88 679.076 1704.73 676.318 1705.94 672.864C1707.19 669.409 1707.81 665.561 1707.81 661.318C1707.81 657.045 1707.19 653.182 1705.94 649.727C1704.73 646.242 1702.88 643.47 1700.4 641.409C1697.91 639.348 1694.82 638.318 1691.12 638.318C1687.34 638.318 1684.19 639.348 1681.67 641.409C1679.19 643.47 1677.32 646.242 1676.08 649.727C1674.87 653.182 1674.26 657.045 1674.26 661.318C1674.26 665.561 1674.87 669.409 1676.08 672.864C1677.32 676.318 1679.19 679.076 1681.67 681.136C1684.19 683.167 1687.34 684.182 1691.12 684.182ZM1738.45 696V626.182H1754.18V638.045H1755C1756.45 634.045 1758.86 630.924 1762.23 628.682C1765.59 626.409 1769.61 625.273 1774.27 625.273C1779 625.273 1782.98 626.424 1786.23 628.727C1789.5 631 1791.8 634.106 1793.14 638.045H1793.86C1795.41 634.167 1798.02 631.076 1801.68 628.773C1805.38 626.439 1809.76 625.273 1814.82 625.273C1821.24 625.273 1826.48 627.303 1830.55 631.364C1834.61 635.424 1836.64 641.348 1836.64 649.136V696H1820.14V651.682C1820.14 647.348 1818.98 644.182 1816.68 642.182C1814.38 640.152 1811.56 639.136 1808.23 639.136C1804.26 639.136 1801.15 640.379 1798.91 642.864C1796.7 645.318 1795.59 648.515 1795.59 652.455V696H1779.45V651C1779.45 647.394 1778.36 644.515 1776.18 642.364C1774.03 640.212 1771.21 639.136 1767.73 639.136C1765.36 639.136 1763.21 639.742 1761.27 640.955C1759.33 642.136 1757.79 643.818 1756.64 646C1755.48 648.152 1754.91 650.667 1754.91 653.545V696H1738.45Z" fill="#EFEFEF"/>
</svg>
