<svg width="2401" height="219" viewBox="0 0 2401 219" fill="none" xmlns="http://www.w3.org/2000/svg">
<rect x="400" y="65.5" width="332" height="88" rx="44" fill="#EAFCFC"/>
<path fill-rule="evenodd" clip-rule="evenodd" d="M456.009 89.5C450.141 89.5 445.384 94.2773 445.384 100.17C445.384 106.063 450.141 110.841 456.009 110.841C461.877 110.841 466.634 106.063 466.634 100.17C466.634 94.2773 461.877 89.5 456.009 89.5ZM456.009 92.3953C460.284 92.3953 463.751 95.8763 463.751 100.17C463.751 104.464 460.284 107.945 456.009 107.945C451.733 107.945 448.267 104.464 448.267 100.17C448.267 95.8763 451.733 92.3953 456.009 92.3953ZM451.66 115.142C450.105 115.25 448.532 115.472 446.982 115.804C443.988 116.421 441.594 117.653 440.574 119.7C440.19 120.5 439.997 121.358 440 122.225C439.999 123.087 440.191 123.945 440.561 124.731C441.54 126.754 443.656 127.899 446.512 128.534L447.024 128.641C448.533 128.981 450.106 129.211 451.689 129.318C451.824 129.358 452.145 129.394 452.496 129.412L452.784 129.423C452.933 129.427 453.101 129.427 453.352 129.427C455.628 129.553 457.987 129.516 460.335 129.316C461.586 129.231 462.846 129.067 464.095 128.827L465.03 128.633C468.115 128.025 470.425 126.867 471.437 124.733C472.188 123.148 472.188 121.309 471.438 119.725C470.428 117.597 468.147 116.449 465.007 115.802C463.775 115.539 462.522 115.344 461.261 115.22L460.339 115.142C457.452 114.887 454.548 114.887 451.66 115.142ZM460.087 118.026L460.113 118.028C461.56 118.13 462.998 118.333 464.417 118.636C466.75 119.117 468.333 119.913 468.834 120.97C469.211 121.766 469.211 122.692 468.834 123.489C468.366 124.476 466.944 125.238 464.889 125.704L464.439 125.8C462.992 126.122 461.558 126.33 460.115 126.429C457.876 126.62 455.65 126.654 453.43 126.534L452.642 126.521C452.424 126.51 452.24 126.488 452.069 126.454C450.717 126.352 449.501 126.191 448.321 125.957L447.616 125.807C445.275 125.349 443.678 124.549 443.16 123.478C442.979 123.094 442.883 122.661 442.883 122.222C442.881 121.786 442.977 121.362 443.162 120.976C443.666 119.965 445.358 119.094 447.572 118.638C449.001 118.332 450.439 118.129 451.886 118.028C454.632 117.786 457.367 117.786 460.087 118.026Z" fill="#505050"/>
<path d="M518.978 103.5H514.927C514.688 102.335 514.268 101.311 513.669 100.429C513.081 99.5469 512.363 98.8063 511.513 98.2074C510.675 97.5975 509.744 97.1402 508.72 96.8352C507.696 96.5303 506.629 96.3778 505.518 96.3778C503.493 96.3778 501.658 96.8897 500.013 97.9134C498.38 98.937 497.078 100.445 496.109 102.438C495.151 104.431 494.672 106.876 494.672 109.773C494.672 112.67 495.151 115.114 496.109 117.107C497.078 119.1 498.38 120.608 500.013 121.632C501.658 122.656 503.493 123.168 505.518 123.168C506.629 123.168 507.696 123.015 508.72 122.71C509.744 122.405 510.675 121.953 511.513 121.354C512.363 120.745 513.081 119.999 513.669 119.116C514.268 118.223 514.688 117.2 514.927 116.045H518.978C518.674 117.755 518.118 119.285 517.312 120.636C516.506 121.986 515.504 123.135 514.307 124.082C513.109 125.019 511.764 125.732 510.272 126.222C508.791 126.712 507.206 126.957 505.518 126.957C502.665 126.957 500.128 126.26 497.906 124.866C495.684 123.473 493.937 121.491 492.662 118.92C491.388 116.35 490.751 113.301 490.751 109.773C490.751 106.244 491.388 103.195 492.662 100.625C493.937 98.0549 495.684 96.0729 497.906 94.679C500.128 93.285 502.665 92.5881 505.518 92.5881C507.206 92.5881 508.791 92.8331 510.272 93.3232C511.764 93.8132 513.109 94.532 514.307 95.4794C515.504 96.416 516.506 97.5594 517.312 98.9098C518.118 100.249 518.674 101.779 518.978 103.5ZM540.815 116.241V101.409H544.67V126.5H540.815V122.253H540.553C539.965 123.527 539.05 124.611 537.809 125.504C536.567 126.386 534.999 126.827 533.104 126.827C531.536 126.827 530.142 126.484 528.922 125.798C527.703 125.101 526.744 124.055 526.047 122.661C525.351 121.256 525.002 119.487 525.002 117.352V101.409H528.857V117.091C528.857 118.92 529.369 120.38 530.393 121.469C531.427 122.558 532.745 123.102 534.346 123.102C535.304 123.102 536.279 122.857 537.27 122.367C538.272 121.877 539.11 121.126 539.785 120.113C540.472 119.1 540.815 117.81 540.815 116.241ZM569.503 107.028L566.04 108.009C565.822 107.431 565.501 106.871 565.076 106.326C564.663 105.771 564.096 105.313 563.378 104.954C562.659 104.594 561.739 104.415 560.617 104.415C559.081 104.415 557.802 104.769 556.778 105.477C555.765 106.174 555.259 107.061 555.259 108.139C555.259 109.098 555.607 109.854 556.304 110.41C557.001 110.965 558.09 111.428 559.571 111.798L563.296 112.713C565.539 113.258 567.211 114.091 568.311 115.212C569.411 116.323 569.961 117.755 569.961 119.509C569.961 120.946 569.547 122.231 568.719 123.364C567.902 124.496 566.759 125.389 565.289 126.043C563.819 126.696 562.109 127.023 560.16 127.023C557.6 127.023 555.482 126.467 553.805 125.357C552.128 124.246 551.066 122.623 550.62 120.489L554.279 119.574C554.627 120.924 555.286 121.937 556.255 122.612C557.236 123.287 558.515 123.625 560.094 123.625C561.891 123.625 563.318 123.244 564.374 122.482C565.441 121.708 565.975 120.783 565.975 119.705C565.975 118.833 565.67 118.104 565.06 117.516C564.45 116.917 563.514 116.47 562.25 116.176L558.069 115.196C555.771 114.652 554.083 113.808 553.005 112.664C551.937 111.51 551.404 110.067 551.404 108.335C551.404 106.92 551.801 105.667 552.596 104.578C553.402 103.489 554.497 102.634 555.88 102.013C557.274 101.393 558.853 101.082 560.617 101.082C563.1 101.082 565.049 101.627 566.465 102.716C567.892 103.805 568.904 105.242 569.503 107.028ZM586.676 101.409V104.676H573.673V101.409H586.676ZM577.463 95.3977H581.318V119.312C581.318 120.402 581.476 121.218 581.791 121.763C582.118 122.296 582.532 122.656 583.033 122.841C583.545 123.015 584.084 123.102 584.65 123.102C585.075 123.102 585.423 123.08 585.696 123.037C585.968 122.982 586.186 122.939 586.349 122.906L587.133 126.369C586.872 126.467 586.507 126.565 586.039 126.663C585.57 126.772 584.977 126.827 584.258 126.827C583.169 126.827 582.102 126.593 581.056 126.124C580.022 125.656 579.161 124.943 578.475 123.984C577.8 123.026 577.463 121.817 577.463 120.358V95.3977ZM602.398 127.023C600.133 127.023 598.146 126.484 596.436 125.406C594.737 124.327 593.409 122.819 592.45 120.881C591.503 118.942 591.029 116.677 591.029 114.085C591.029 111.472 591.503 109.19 592.45 107.241C593.409 105.291 594.737 103.778 596.436 102.7C598.146 101.621 600.133 101.082 602.398 101.082C604.664 101.082 606.646 101.621 608.344 102.7C610.054 103.778 611.383 105.291 612.33 107.241C613.289 109.19 613.768 111.472 613.768 114.085C613.768 116.677 613.289 118.942 612.33 120.881C611.383 122.819 610.054 124.327 608.344 125.406C606.646 126.484 604.664 127.023 602.398 127.023ZM602.398 123.56C604.119 123.56 605.535 123.119 606.646 122.237C607.756 121.354 608.579 120.195 609.112 118.757C609.646 117.32 609.913 115.762 609.913 114.085C609.913 112.408 609.646 110.845 609.112 109.397C608.579 107.949 607.756 106.778 606.646 105.885C605.535 104.992 604.119 104.545 602.398 104.545C600.678 104.545 599.262 104.992 598.151 105.885C597.04 106.778 596.218 107.949 595.685 109.397C595.151 110.845 594.884 112.408 594.884 114.085C594.884 115.762 595.151 117.32 595.685 118.757C596.218 120.195 597.04 121.354 598.151 122.237C599.262 123.119 600.678 123.56 602.398 123.56ZM619.652 126.5V101.409H623.377V105.33H623.704C624.226 103.99 625.07 102.95 626.236 102.21C627.401 101.458 628.8 101.082 630.434 101.082C632.089 101.082 633.467 101.458 634.566 102.21C635.677 102.95 636.543 103.99 637.164 105.33H637.425C638.068 104.034 639.031 103.004 640.316 102.242C641.602 101.469 643.142 101.082 644.939 101.082C647.183 101.082 649.018 101.785 650.444 103.19C651.871 104.584 652.584 106.756 652.584 109.707V126.5H648.729V109.707C648.729 107.856 648.223 106.533 647.21 105.738C646.197 104.943 645.005 104.545 643.633 104.545C641.868 104.545 640.502 105.079 639.532 106.146C638.563 107.203 638.079 108.542 638.079 110.165V126.5H634.158V109.315C634.158 107.889 633.695 106.74 632.77 105.869C631.844 104.987 630.651 104.545 629.192 104.545C628.19 104.545 627.254 104.812 626.383 105.346C625.522 105.879 624.825 106.62 624.292 107.567C623.769 108.504 623.508 109.588 623.508 110.818V126.5H619.652ZM670.153 127.023C667.735 127.023 665.65 126.489 663.896 125.422C662.154 124.344 660.809 122.841 659.862 120.913C658.925 118.975 658.457 116.721 658.457 114.151C658.457 111.58 658.925 109.315 659.862 107.355C660.809 105.384 662.127 103.848 663.815 102.749C665.514 101.638 667.496 101.082 669.761 101.082C671.068 101.082 672.358 101.3 673.632 101.736C674.906 102.171 676.066 102.879 677.112 103.859C678.157 104.829 678.99 106.114 679.611 107.714C680.232 109.315 680.542 111.286 680.542 113.628V115.261H661.201V111.929H676.622C676.622 110.513 676.338 109.25 675.772 108.139C675.217 107.028 674.422 106.152 673.387 105.509C672.363 104.867 671.155 104.545 669.761 104.545C668.225 104.545 666.897 104.927 665.775 105.689C664.664 106.44 663.809 107.42 663.21 108.629C662.611 109.838 662.312 111.134 662.312 112.517V114.739C662.312 116.634 662.639 118.24 663.292 119.558C663.956 120.864 664.877 121.861 666.053 122.547C667.229 123.222 668.595 123.56 670.153 123.56C671.166 123.56 672.08 123.418 672.897 123.135C673.725 122.841 674.438 122.405 675.037 121.828C675.636 121.24 676.099 120.51 676.426 119.639L680.15 120.685C679.758 121.948 679.099 123.059 678.173 124.017C677.248 124.964 676.104 125.705 674.743 126.239C673.382 126.761 671.852 127.023 670.153 127.023ZM686.406 126.5V101.409H690.131V105.199H690.392C690.85 103.957 691.677 102.95 692.875 102.177C694.073 101.404 695.423 101.017 696.926 101.017C697.209 101.017 697.563 101.022 697.988 101.033C698.413 101.044 698.734 101.061 698.952 101.082V105.003C698.821 104.97 698.522 104.921 698.053 104.856C697.596 104.78 697.111 104.741 696.6 104.741C695.38 104.741 694.291 104.997 693.332 105.509C692.385 106.01 691.634 106.707 691.078 107.6C690.534 108.482 690.261 109.49 690.261 110.622V126.5H686.406Z" fill="#505050"/>
<path d="M764 109.5L774 115.274L774 103.726L764 109.5ZM884 109.5L874 103.726L874 115.274L884 109.5ZM773 110.5H824L824 108.5H773L773 110.5ZM824 110.5H875L875 108.5H824L824 110.5Z" fill="#AAAAAA"/>
<rect x="920" y="69.5" width="462" height="80" rx="40" fill="#EAFCFC"/>
<rect x="920" y="69.5" width="462" height="80" rx="40" stroke="#02DCC3" stroke-width="8"/>
<path fill-rule="evenodd" clip-rule="evenodd" d="M972.009 89.5C966.141 89.5 961.384 94.2773 961.384 100.17C961.384 106.063 966.141 110.841 972.009 110.841C977.877 110.841 982.634 106.063 982.634 100.17C982.634 94.2773 977.877 89.5 972.009 89.5ZM972.009 92.3953C976.284 92.3953 979.751 95.8763 979.751 100.17C979.751 104.464 976.284 107.945 972.009 107.945C967.733 107.945 964.267 104.464 964.267 100.17C964.267 95.8763 967.733 92.3953 972.009 92.3953ZM967.66 115.142C966.105 115.25 964.532 115.472 962.982 115.804C959.988 116.421 957.594 117.653 956.574 119.7C956.19 120.5 955.997 121.358 956 122.225C955.999 123.087 956.191 123.945 956.561 124.731C957.54 126.754 959.656 127.899 962.512 128.534L963.024 128.641C964.533 128.981 966.106 129.211 967.689 129.318C967.824 129.358 968.145 129.394 968.496 129.412L968.784 129.423C968.933 129.427 969.101 129.427 969.352 129.427C971.628 129.553 973.987 129.516 976.335 129.316C977.586 129.231 978.846 129.067 980.095 128.827L981.03 128.633C984.115 128.025 986.425 126.867 987.437 124.733C988.188 123.148 988.188 121.309 987.438 119.725C986.428 117.597 984.147 116.449 981.007 115.802C979.775 115.539 978.522 115.344 977.261 115.22L976.339 115.142C973.452 114.887 970.548 114.887 967.66 115.142ZM976.087 118.026L976.113 118.028C977.56 118.13 978.998 118.333 980.417 118.636C982.75 119.117 984.333 119.913 984.834 120.97C985.211 121.766 985.211 122.692 984.834 123.489C984.366 124.476 982.944 125.238 980.889 125.704L980.439 125.8C978.992 126.122 977.558 126.33 976.115 126.429C973.876 126.62 971.65 126.654 969.43 126.534L968.642 126.521C968.424 126.51 968.24 126.488 968.069 126.454C966.717 126.352 965.501 126.191 964.321 125.957L963.616 125.807C961.275 125.349 959.678 124.549 959.16 123.478C958.979 123.094 958.883 122.661 958.883 122.222C958.881 121.786 958.977 121.362 959.162 120.976C959.666 119.965 961.358 119.094 963.572 118.638C965.001 118.332 966.439 118.129 967.886 118.028C970.632 117.786 973.367 117.786 976.087 118.026Z" fill="#505050"/>
<path d="M1008.31 126.5V93.0455H1020C1022.33 93.0455 1024.25 93.4484 1025.77 94.2543C1027.28 95.0492 1028.41 96.1219 1029.15 97.4723C1029.89 98.8118 1030.26 100.298 1030.26 101.932C1030.26 103.369 1030 104.556 1029.49 105.493C1028.99 106.429 1028.33 107.17 1027.5 107.714C1026.68 108.259 1025.79 108.662 1024.84 108.923V109.25C1025.86 109.315 1026.89 109.675 1027.92 110.328C1028.96 110.982 1029.82 111.918 1030.52 113.138C1031.22 114.357 1031.57 115.849 1031.57 117.614C1031.57 119.291 1031.19 120.799 1030.42 122.138C1029.66 123.478 1028.46 124.54 1026.81 125.324C1025.17 126.108 1023.03 126.5 1020.39 126.5H1008.31ZM1012.36 122.906H1020.39C1023.04 122.906 1024.92 122.394 1026.03 121.371C1027.15 120.336 1027.71 119.084 1027.71 117.614C1027.71 116.481 1027.42 115.436 1026.85 114.477C1026.27 113.508 1025.45 112.735 1024.38 112.158C1023.31 111.57 1022.05 111.276 1020.59 111.276H1012.36V122.906ZM1012.36 107.747H1019.87C1021.09 107.747 1022.19 107.508 1023.17 107.028C1024.16 106.549 1024.95 105.874 1025.52 105.003C1026.11 104.132 1026.4 103.108 1026.4 101.932C1026.4 100.462 1025.89 99.2147 1024.87 98.1911C1023.85 97.1565 1022.22 96.6392 1020 96.6392H1012.36V107.747ZM1053.51 116.241V101.409H1057.37V126.5H1053.51V122.253H1053.25C1052.66 123.527 1051.75 124.611 1050.51 125.504C1049.27 126.386 1047.7 126.827 1045.8 126.827C1044.23 126.827 1042.84 126.484 1041.62 125.798C1040.4 125.101 1039.44 124.055 1038.75 122.661C1038.05 121.256 1037.7 119.487 1037.7 117.352V101.409H1041.56V117.091C1041.56 118.92 1042.07 120.38 1043.09 121.469C1044.13 122.558 1045.44 123.102 1047.04 123.102C1048 123.102 1048.98 122.857 1049.97 122.367C1050.97 121.877 1051.81 121.126 1052.48 120.113C1053.17 119.1 1053.51 117.81 1053.51 116.241ZM1082.2 107.028L1078.74 108.009C1078.52 107.431 1078.2 106.871 1077.77 106.326C1077.36 105.771 1076.79 105.313 1076.08 104.954C1075.36 104.594 1074.44 104.415 1073.32 104.415C1071.78 104.415 1070.5 104.769 1069.48 105.477C1068.46 106.174 1067.96 107.061 1067.96 108.139C1067.96 109.098 1068.31 109.854 1069 110.41C1069.7 110.965 1070.79 111.428 1072.27 111.798L1075.99 112.713C1078.24 113.258 1079.91 114.091 1081.01 115.212C1082.11 116.323 1082.66 117.755 1082.66 119.509C1082.66 120.946 1082.25 122.231 1081.42 123.364C1080.6 124.496 1079.46 125.389 1077.99 126.043C1076.52 126.696 1074.81 127.023 1072.86 127.023C1070.3 127.023 1068.18 126.467 1066.5 125.357C1064.83 124.246 1063.76 122.623 1063.32 120.489L1066.98 119.574C1067.33 120.924 1067.98 121.937 1068.95 122.612C1069.93 123.287 1071.21 123.625 1072.79 123.625C1074.59 123.625 1076.02 123.244 1077.07 122.482C1078.14 121.708 1078.67 120.783 1078.67 119.705C1078.67 118.833 1078.37 118.104 1077.76 117.516C1077.15 116.917 1076.21 116.47 1074.95 116.176L1070.77 115.196C1068.47 114.652 1066.78 113.808 1065.7 112.664C1064.64 111.51 1064.1 110.067 1064.1 108.335C1064.1 106.92 1064.5 105.667 1065.29 104.578C1066.1 103.489 1067.19 102.634 1068.58 102.013C1069.97 101.393 1071.55 101.082 1073.32 101.082C1075.8 101.082 1077.75 101.627 1079.16 102.716C1080.59 103.805 1081.6 105.242 1082.2 107.028ZM1088.46 126.5V101.409H1092.32V126.5H1088.46ZM1090.42 97.2273C1089.67 97.2273 1089.02 96.9714 1088.48 96.4595C1087.94 95.9477 1087.68 95.3324 1087.68 94.6136C1087.68 93.8949 1087.94 93.2796 1088.48 92.7678C1089.02 92.2559 1089.67 92 1090.42 92C1091.17 92 1091.82 92.2559 1092.35 92.7678C1092.89 93.2796 1093.17 93.8949 1093.17 94.6136C1093.17 95.3324 1092.89 95.9477 1092.35 96.4595C1091.82 96.9714 1091.17 97.2273 1090.42 97.2273ZM1103.23 111.406V126.5H1099.38V101.409H1103.1V105.33H1103.43C1104.02 104.055 1104.91 103.032 1106.11 102.259C1107.31 101.474 1108.85 101.082 1110.75 101.082C1112.45 101.082 1113.93 101.431 1115.21 102.128C1116.48 102.814 1117.47 103.859 1118.18 105.264C1118.89 106.658 1119.24 108.422 1119.24 110.557V126.5H1115.39V110.818C1115.39 108.847 1114.87 107.312 1113.85 106.212C1112.83 105.101 1111.42 104.545 1109.64 104.545C1108.41 104.545 1107.31 104.812 1106.34 105.346C1105.38 105.879 1104.62 106.658 1104.07 107.682C1103.51 108.705 1103.23 109.947 1103.23 111.406ZM1136.81 127.023C1134.39 127.023 1132.3 126.489 1130.55 125.422C1128.81 124.344 1127.46 122.841 1126.51 120.913C1125.58 118.975 1125.11 116.721 1125.11 114.151C1125.11 111.58 1125.58 109.315 1126.51 107.355C1127.46 105.384 1128.78 103.848 1130.47 102.749C1132.17 101.638 1134.15 101.082 1136.41 101.082C1137.72 101.082 1139.01 101.3 1140.29 101.736C1141.56 102.171 1142.72 102.879 1143.76 103.859C1144.81 104.829 1145.64 106.114 1146.26 107.714C1146.88 109.315 1147.2 111.286 1147.2 113.628V115.261H1127.85V111.929H1143.27C1143.27 110.513 1142.99 109.25 1142.43 108.139C1141.87 107.028 1141.08 106.152 1140.04 105.509C1139.02 104.867 1137.81 104.545 1136.41 104.545C1134.88 104.545 1133.55 104.927 1132.43 105.689C1131.32 106.44 1130.46 107.42 1129.86 108.629C1129.26 109.838 1128.97 111.134 1128.97 112.517V114.739C1128.97 116.634 1129.29 118.24 1129.95 119.558C1130.61 120.864 1131.53 121.861 1132.71 122.547C1133.88 123.222 1135.25 123.56 1136.81 123.56C1137.82 123.56 1138.73 123.418 1139.55 123.135C1140.38 122.841 1141.09 122.405 1141.69 121.828C1142.29 121.24 1142.75 120.51 1143.08 119.639L1146.8 120.685C1146.41 121.948 1145.75 123.059 1144.83 124.017C1143.9 124.964 1142.76 125.705 1141.4 126.239C1140.04 126.761 1138.5 127.023 1136.81 127.023ZM1170.83 107.028L1167.37 108.009C1167.15 107.431 1166.83 106.871 1166.41 106.326C1165.99 105.771 1165.43 105.313 1164.71 104.954C1163.99 104.594 1163.07 104.415 1161.95 104.415C1160.41 104.415 1159.13 104.769 1158.11 105.477C1157.09 106.174 1156.59 107.061 1156.59 108.139C1156.59 109.098 1156.94 109.854 1157.63 110.41C1158.33 110.965 1159.42 111.428 1160.9 111.798L1164.62 112.713C1166.87 113.258 1168.54 114.091 1169.64 115.212C1170.74 116.323 1171.29 117.755 1171.29 119.509C1171.29 120.946 1170.88 122.231 1170.05 123.364C1169.23 124.496 1168.09 125.389 1166.62 126.043C1165.15 126.696 1163.44 127.023 1161.49 127.023C1158.93 127.023 1156.81 126.467 1155.13 125.357C1153.46 124.246 1152.4 122.623 1151.95 120.489L1155.61 119.574C1155.96 120.924 1156.62 121.937 1157.58 122.612C1158.56 123.287 1159.84 123.625 1161.42 123.625C1163.22 123.625 1164.65 123.244 1165.7 122.482C1166.77 121.708 1167.3 120.783 1167.3 119.705C1167.3 118.833 1167 118.104 1166.39 117.516C1165.78 116.917 1164.84 116.47 1163.58 116.176L1159.4 115.196C1157.1 114.652 1155.41 113.808 1154.33 112.664C1153.27 111.51 1152.73 110.067 1152.73 108.335C1152.73 106.92 1153.13 105.667 1153.93 104.578C1154.73 103.489 1155.83 102.634 1157.21 102.013C1158.6 101.393 1160.18 101.082 1161.95 101.082C1164.43 101.082 1166.38 101.627 1167.79 102.716C1169.22 103.805 1170.23 105.242 1170.83 107.028ZM1194.87 107.028L1191.4 108.009C1191.18 107.431 1190.86 106.871 1190.44 106.326C1190.02 105.771 1189.46 105.313 1188.74 104.954C1188.02 104.594 1187.1 104.415 1185.98 104.415C1184.44 104.415 1183.16 104.769 1182.14 105.477C1181.13 106.174 1180.62 107.061 1180.62 108.139C1180.62 109.098 1180.97 109.854 1181.67 110.41C1182.36 110.965 1183.45 111.428 1184.93 111.798L1188.66 112.713C1190.9 113.258 1192.57 114.091 1193.67 115.212C1194.77 116.323 1195.32 117.755 1195.32 119.509C1195.32 120.946 1194.91 122.231 1194.08 123.364C1193.26 124.496 1192.12 125.389 1190.65 126.043C1189.18 126.696 1187.47 127.023 1185.52 127.023C1182.96 127.023 1180.84 126.467 1179.17 125.357C1177.49 124.246 1176.43 122.623 1175.98 120.489L1179.64 119.574C1179.99 120.924 1180.65 121.937 1181.62 122.612C1182.6 123.287 1183.88 123.625 1185.46 123.625C1187.25 123.625 1188.68 123.244 1189.74 122.482C1190.8 121.708 1191.34 120.783 1191.34 119.705C1191.34 118.833 1191.03 118.104 1190.42 117.516C1189.81 116.917 1188.88 116.47 1187.61 116.176L1183.43 115.196C1181.13 114.652 1179.45 113.808 1178.37 112.664C1177.3 111.51 1176.77 110.067 1176.77 108.335C1176.77 106.92 1177.16 105.667 1177.96 104.578C1178.76 103.489 1179.86 102.634 1181.24 102.013C1182.64 101.393 1184.22 101.082 1185.98 101.082C1188.46 101.082 1190.41 101.627 1191.83 102.716C1193.25 103.805 1194.27 105.242 1194.87 107.028ZM1242.81 109.773C1242.81 113.301 1242.18 116.35 1240.9 118.92C1239.63 121.491 1237.88 123.473 1235.66 124.866C1233.44 126.26 1230.9 126.957 1228.05 126.957C1225.19 126.957 1222.66 126.26 1220.43 124.866C1218.21 123.473 1216.46 121.491 1215.19 118.92C1213.92 116.35 1213.28 113.301 1213.28 109.773C1213.28 106.244 1213.92 103.195 1215.19 100.625C1216.46 98.0549 1218.21 96.0729 1220.43 94.679C1222.66 93.285 1225.19 92.5881 1228.05 92.5881C1230.9 92.5881 1233.44 93.285 1235.66 94.679C1237.88 96.0729 1239.63 98.0549 1240.9 100.625C1242.18 103.195 1242.81 106.244 1242.81 109.773ZM1238.89 109.773C1238.89 106.876 1238.41 104.431 1237.44 102.438C1236.48 100.445 1235.18 98.937 1233.54 97.9134C1231.9 96.8897 1230.07 96.3778 1228.05 96.3778C1226.02 96.3778 1224.19 96.8897 1222.54 97.9134C1220.91 98.937 1219.61 100.445 1218.64 102.438C1217.68 104.431 1217.2 106.876 1217.2 109.773C1217.2 112.67 1217.68 115.114 1218.64 117.107C1219.61 119.1 1220.91 120.608 1222.54 121.632C1224.19 122.656 1226.02 123.168 1228.05 123.168C1230.07 123.168 1231.9 122.656 1233.54 121.632C1235.18 120.608 1236.48 119.1 1237.44 117.107C1238.41 115.114 1238.89 112.67 1238.89 109.773ZM1254.79 126.5L1247.14 101.409H1251.19L1256.62 120.619H1256.88L1262.24 101.409H1266.35L1271.65 120.554H1271.91L1277.33 101.409H1281.38L1273.74 126.5H1269.95L1264.46 107.224H1264.07L1258.58 126.5H1254.79ZM1290.33 111.406V126.5H1286.48V101.409H1290.2V105.33H1290.53C1291.12 104.055 1292.01 103.032 1293.21 102.259C1294.41 101.474 1295.95 101.082 1297.85 101.082C1299.55 101.082 1301.03 101.431 1302.31 102.128C1303.58 102.814 1304.57 103.859 1305.28 105.264C1305.99 106.658 1306.34 108.422 1306.34 110.557V126.5H1302.49V110.818C1302.49 108.847 1301.97 107.312 1300.95 106.212C1299.93 105.101 1298.52 104.545 1296.74 104.545C1295.51 104.545 1294.41 104.812 1293.44 105.346C1292.48 105.879 1291.72 106.658 1291.17 107.682C1290.61 108.705 1290.33 109.947 1290.33 111.406ZM1323.91 127.023C1321.49 127.023 1319.4 126.489 1317.65 125.422C1315.91 124.344 1314.56 122.841 1313.61 120.913C1312.68 118.975 1312.21 116.721 1312.21 114.151C1312.21 111.58 1312.68 109.315 1313.61 107.355C1314.56 105.384 1315.88 103.848 1317.57 102.749C1319.27 101.638 1321.25 101.082 1323.51 101.082C1324.82 101.082 1326.11 101.3 1327.39 101.736C1328.66 102.171 1329.82 102.879 1330.86 103.859C1331.91 104.829 1332.74 106.114 1333.36 107.714C1333.98 109.315 1334.29 111.286 1334.29 113.628V115.261H1314.95V111.929H1330.37C1330.37 110.513 1330.09 109.25 1329.53 108.139C1328.97 107.028 1328.17 106.152 1327.14 105.509C1326.12 104.867 1324.91 104.545 1323.51 104.545C1321.98 104.545 1320.65 104.927 1319.53 105.689C1318.42 106.44 1317.56 107.42 1316.96 108.629C1316.36 109.838 1316.06 111.134 1316.06 112.517V114.739C1316.06 116.634 1316.39 118.24 1317.04 119.558C1317.71 120.864 1318.63 121.861 1319.81 122.547C1320.98 123.222 1322.35 123.56 1323.91 123.56C1324.92 123.56 1325.83 123.418 1326.65 123.135C1327.48 122.841 1328.19 122.405 1328.79 121.828C1329.39 121.24 1329.85 120.51 1330.18 119.639L1333.9 120.685C1333.51 121.948 1332.85 123.059 1331.93 124.017C1331 124.964 1329.86 125.705 1328.5 126.239C1327.13 126.761 1325.6 127.023 1323.91 127.023ZM1340.16 126.5V101.409H1343.88V105.199H1344.15C1344.6 103.957 1345.43 102.95 1346.63 102.177C1347.83 101.404 1349.18 101.017 1350.68 101.017C1350.96 101.017 1351.32 101.022 1351.74 101.033C1352.17 101.044 1352.49 101.061 1352.7 101.082V105.003C1352.57 104.97 1352.27 104.921 1351.81 104.856C1351.35 104.78 1350.86 104.741 1350.35 104.741C1349.13 104.741 1348.04 104.997 1347.09 105.509C1346.14 106.01 1345.39 106.707 1344.83 107.6C1344.29 108.482 1344.01 109.49 1344.01 110.622V126.5H1340.16Z" fill="#505050"/>
<path d="M1418 109.5L1428 115.274L1428 103.726L1418 109.5ZM1538 109.5L1528 103.726L1528 115.274L1538 109.5ZM1427 110.5H1478L1478 108.5H1427L1427 110.5ZM1478 110.5H1529L1529 108.5H1478L1478 110.5Z" fill="#AAAAAA"/>
<rect x="1570" y="65.5" width="431" height="88" rx="44" fill="#EAFCFC"/>
<path fill-rule="evenodd" clip-rule="evenodd" d="M1626.01 89.5C1620.14 89.5 1615.38 94.2773 1615.38 100.17C1615.38 106.063 1620.14 110.841 1626.01 110.841C1631.88 110.841 1636.63 106.063 1636.63 100.17C1636.63 94.2773 1631.88 89.5 1626.01 89.5ZM1626.01 92.3953C1630.28 92.3953 1633.75 95.8763 1633.75 100.17C1633.75 104.464 1630.28 107.945 1626.01 107.945C1621.73 107.945 1618.27 104.464 1618.27 100.17C1618.27 95.8763 1621.73 92.3953 1626.01 92.3953ZM1621.66 115.142C1620.1 115.25 1618.53 115.472 1616.98 115.804C1613.99 116.421 1611.59 117.653 1610.57 119.7C1610.19 120.5 1610 121.358 1610 122.225C1610 123.087 1610.19 123.945 1610.56 124.731C1611.54 126.754 1613.66 127.899 1616.51 128.534L1617.02 128.641C1618.53 128.981 1620.11 129.211 1621.69 129.318C1621.82 129.358 1622.15 129.394 1622.5 129.412L1622.78 129.423C1622.93 129.427 1623.1 129.427 1623.35 129.427C1625.63 129.553 1627.99 129.516 1630.34 129.316C1631.59 129.231 1632.85 129.067 1634.1 128.827L1635.03 128.633C1638.12 128.025 1640.43 126.867 1641.44 124.733C1642.19 123.148 1642.19 121.309 1641.44 119.725C1640.43 117.597 1638.15 116.449 1635.01 115.802C1633.77 115.539 1632.52 115.344 1631.26 115.22L1630.34 115.142C1627.45 114.887 1624.55 114.887 1621.66 115.142ZM1630.09 118.026L1630.11 118.028C1631.56 118.13 1633 118.333 1634.42 118.636C1636.75 119.117 1638.33 119.913 1638.83 120.97C1639.21 121.766 1639.21 122.692 1638.83 123.489C1638.37 124.476 1636.94 125.238 1634.89 125.704L1634.44 125.8C1632.99 126.122 1631.56 126.33 1630.12 126.429C1627.88 126.62 1625.65 126.654 1623.43 126.534L1622.64 126.521C1622.42 126.51 1622.24 126.488 1622.07 126.454C1620.72 126.352 1619.5 126.191 1618.32 125.957L1617.62 125.807C1615.28 125.349 1613.68 124.549 1613.16 123.478C1612.98 123.094 1612.88 122.661 1612.88 122.222C1612.88 121.786 1612.98 121.362 1613.16 120.976C1613.67 119.965 1615.36 119.094 1617.57 118.638C1619 118.332 1620.44 118.129 1621.89 118.028C1624.63 117.786 1627.37 117.786 1630.09 118.026Z" fill="#505050"/>
<path d="M1660.38 96.6392V93.0455H1685.47V96.6392H1674.95V126.5H1670.9V96.6392H1660.38ZM1698.08 127.023C1695.67 127.023 1693.58 126.489 1691.83 125.422C1690.08 124.344 1688.74 122.841 1687.79 120.913C1686.86 118.975 1686.39 116.721 1686.39 114.151C1686.39 111.58 1686.86 109.315 1687.79 107.355C1688.74 105.384 1690.06 103.848 1691.75 102.749C1693.44 101.638 1695.43 101.082 1697.69 101.082C1699 101.082 1700.29 101.3 1701.56 101.736C1702.84 102.171 1704 102.879 1705.04 103.859C1706.09 104.829 1706.92 106.114 1707.54 107.714C1708.16 109.315 1708.47 111.286 1708.47 113.628V115.261H1689.13V111.929H1704.55C1704.55 110.513 1704.27 109.25 1703.7 108.139C1703.15 107.028 1702.35 106.152 1701.32 105.509C1700.29 104.867 1699.09 104.545 1697.69 104.545C1696.16 104.545 1694.83 104.927 1693.71 105.689C1692.59 106.44 1691.74 107.42 1691.14 108.629C1690.54 109.838 1690.24 111.134 1690.24 112.517V114.739C1690.24 116.634 1690.57 118.24 1691.22 119.558C1691.89 120.864 1692.81 121.861 1693.98 122.547C1695.16 123.222 1696.53 123.56 1698.08 123.56C1699.1 123.56 1700.01 123.418 1700.83 123.135C1701.66 122.841 1702.37 122.405 1702.97 121.828C1703.57 121.24 1704.03 120.51 1704.36 119.639L1708.08 120.685C1707.69 121.948 1707.03 123.059 1706.1 124.017C1705.18 124.964 1704.03 125.705 1702.67 126.239C1701.31 126.761 1699.78 127.023 1698.08 127.023ZM1721.72 127.088C1720.13 127.088 1718.69 126.789 1717.39 126.19C1716.1 125.58 1715.07 124.703 1714.3 123.56C1713.54 122.405 1713.16 121.011 1713.16 119.378C1713.16 117.94 1713.44 116.775 1714.01 115.882C1714.58 114.978 1715.33 114.27 1716.28 113.759C1717.23 113.247 1718.27 112.866 1719.42 112.615C1720.57 112.354 1721.73 112.147 1722.9 111.994C1724.42 111.798 1725.66 111.651 1726.6 111.553C1727.56 111.444 1728.26 111.265 1728.7 111.014C1729.14 110.764 1729.37 110.328 1729.37 109.707V109.577C1729.37 107.965 1728.92 106.713 1728.04 105.82C1727.17 104.927 1725.85 104.48 1724.07 104.48C1722.23 104.48 1720.79 104.883 1719.74 105.689C1718.7 106.495 1717.96 107.355 1717.54 108.27L1713.88 106.963C1714.53 105.438 1715.4 104.251 1716.49 103.402C1717.59 102.542 1718.79 101.943 1720.09 101.605C1721.39 101.257 1722.68 101.082 1723.94 101.082C1724.75 101.082 1725.67 101.18 1726.72 101.376C1727.78 101.562 1728.79 101.948 1729.77 102.536C1730.76 103.124 1731.59 104.012 1732.24 105.199C1732.89 106.386 1733.22 107.976 1733.22 109.969V126.5H1729.37V123.102H1729.17C1728.91 123.647 1728.47 124.229 1727.86 124.85C1727.25 125.471 1726.44 125.999 1725.43 126.435C1724.42 126.87 1723.18 127.088 1721.72 127.088ZM1722.31 123.625C1723.83 123.625 1725.12 123.326 1726.16 122.727C1727.22 122.128 1728.02 121.354 1728.55 120.407C1729.09 119.46 1729.37 118.463 1729.37 117.418V113.889C1729.2 114.085 1728.84 114.265 1728.29 114.428C1727.74 114.581 1727.11 114.717 1726.39 114.837C1725.68 114.946 1724.99 115.044 1724.32 115.131C1723.65 115.207 1723.11 115.272 1722.7 115.327C1721.7 115.457 1720.76 115.67 1719.89 115.964C1719.03 116.247 1718.33 116.677 1717.8 117.254C1717.28 117.821 1717.02 118.594 1717.02 119.574C1717.02 120.913 1717.51 121.926 1718.5 122.612C1719.5 123.287 1720.77 123.625 1722.31 123.625ZM1740.26 126.5V101.409H1743.98V105.33H1744.31C1744.83 103.99 1745.67 102.95 1746.84 102.21C1748.01 101.458 1749.4 101.082 1751.04 101.082C1752.69 101.082 1754.07 101.458 1755.17 102.21C1756.28 102.95 1757.15 103.99 1757.77 105.33H1758.03C1758.67 104.034 1759.64 103.004 1760.92 102.242C1762.21 101.469 1763.75 101.082 1765.54 101.082C1767.79 101.082 1769.62 101.785 1771.05 103.19C1772.48 104.584 1773.19 106.756 1773.19 109.707V126.5H1769.33V109.707C1769.33 107.856 1768.83 106.533 1767.81 105.738C1766.8 104.943 1765.61 104.545 1764.24 104.545C1762.47 104.545 1761.11 105.079 1760.14 106.146C1759.17 107.203 1758.68 108.542 1758.68 110.165V126.5H1754.76V109.315C1754.76 107.889 1754.3 106.74 1753.37 105.869C1752.45 104.987 1751.26 104.545 1749.8 104.545C1748.79 104.545 1747.86 104.812 1746.99 105.346C1746.13 105.879 1745.43 106.62 1744.9 107.567C1744.37 108.504 1744.11 109.588 1744.11 110.818V126.5H1740.26ZM1793.17 126.5V101.409H1796.9V105.33H1797.23C1797.75 103.99 1798.59 102.95 1799.76 102.21C1800.92 101.458 1802.32 101.082 1803.96 101.082C1805.61 101.082 1806.99 101.458 1808.09 102.21C1809.2 102.95 1810.07 103.99 1810.69 105.33H1810.95C1811.59 104.034 1812.55 103.004 1813.84 102.242C1815.12 101.469 1816.66 101.082 1818.46 101.082C1820.71 101.082 1822.54 101.785 1823.97 103.19C1825.39 104.584 1826.11 106.756 1826.11 109.707V126.5H1822.25V109.707C1822.25 107.856 1821.75 106.533 1820.73 105.738C1819.72 104.943 1818.53 104.545 1817.16 104.545C1815.39 104.545 1814.02 105.079 1813.05 106.146C1812.09 107.203 1811.6 108.542 1811.6 110.165V126.5H1807.68V109.315C1807.68 107.889 1807.22 106.74 1806.29 105.869C1805.37 104.987 1804.17 104.545 1802.71 104.545C1801.71 104.545 1800.78 104.812 1799.91 105.346C1799.04 105.879 1798.35 106.62 1797.81 107.567C1797.29 108.504 1797.03 109.588 1797.03 110.818V126.5H1793.17ZM1843.68 127.023C1841.26 127.023 1839.17 126.489 1837.42 125.422C1835.68 124.344 1834.33 122.841 1833.38 120.913C1832.45 118.975 1831.98 116.721 1831.98 114.151C1831.98 111.58 1832.45 109.315 1833.38 107.355C1834.33 105.384 1835.65 103.848 1837.34 102.749C1839.04 101.638 1841.02 101.082 1843.28 101.082C1844.59 101.082 1845.88 101.3 1847.15 101.736C1848.43 102.171 1849.59 102.879 1850.63 103.859C1851.68 104.829 1852.51 106.114 1853.13 107.714C1853.75 109.315 1854.06 111.286 1854.06 113.628V115.261H1834.72V111.929H1850.14C1850.14 110.513 1849.86 109.25 1849.29 108.139C1848.74 107.028 1847.94 106.152 1846.91 105.509C1845.89 104.867 1844.68 104.545 1843.28 104.545C1841.75 104.545 1840.42 104.927 1839.3 105.689C1838.19 106.44 1837.33 107.42 1836.73 108.629C1836.13 109.838 1835.83 111.134 1835.83 112.517V114.739C1835.83 116.634 1836.16 118.24 1836.81 119.558C1837.48 120.864 1838.4 121.861 1839.58 122.547C1840.75 123.222 1842.12 123.56 1843.68 123.56C1844.69 123.56 1845.6 123.418 1846.42 123.135C1847.25 122.841 1847.96 122.405 1848.56 121.828C1849.16 121.24 1849.62 120.51 1849.95 119.639L1853.67 120.685C1853.28 121.948 1852.62 123.059 1851.7 124.017C1850.77 124.964 1849.63 125.705 1848.27 126.239C1846.9 126.761 1845.37 127.023 1843.68 127.023ZM1859.93 126.5V101.409H1863.65V105.33H1863.98C1864.5 103.99 1865.35 102.95 1866.51 102.21C1867.68 101.458 1869.08 101.082 1870.71 101.082C1872.37 101.082 1873.74 101.458 1874.84 102.21C1875.95 102.95 1876.82 103.99 1877.44 105.33H1877.7C1878.34 104.034 1879.31 103.004 1880.59 102.242C1881.88 101.469 1883.42 101.082 1885.22 101.082C1887.46 101.082 1889.29 101.785 1890.72 103.19C1892.15 104.584 1892.86 106.756 1892.86 109.707V126.5H1889.01V109.707C1889.01 107.856 1888.5 106.533 1887.49 105.738C1886.47 104.943 1885.28 104.545 1883.91 104.545C1882.14 104.545 1880.78 105.079 1879.81 106.146C1878.84 107.203 1878.35 108.542 1878.35 110.165V126.5H1874.43V109.315C1874.43 107.889 1873.97 106.74 1873.05 105.869C1872.12 104.987 1870.93 104.545 1869.47 104.545C1868.47 104.545 1867.53 104.812 1866.66 105.346C1865.8 105.879 1865.1 106.62 1864.57 107.567C1864.05 108.504 1863.78 109.588 1863.78 110.818V126.5H1859.93ZM1900.43 126.5V93.0455H1904.29V105.395H1904.61C1904.9 104.959 1905.29 104.404 1905.79 103.729C1906.3 103.043 1907.03 102.433 1907.98 101.899C1908.94 101.355 1910.23 101.082 1911.87 101.082C1913.98 101.082 1915.84 101.611 1917.45 102.667C1919.07 103.723 1920.32 105.221 1921.23 107.159C1922.13 109.098 1922.58 111.384 1922.58 114.02C1922.58 116.677 1922.13 118.98 1921.23 120.93C1920.32 122.868 1919.07 124.371 1917.47 125.438C1915.87 126.495 1914.02 127.023 1911.93 127.023C1910.32 127.023 1909.03 126.756 1908.06 126.222C1907.09 125.678 1906.35 125.062 1905.82 124.376C1905.3 123.679 1904.9 123.102 1904.61 122.645H1904.16V126.5H1900.43ZM1904.22 113.955C1904.22 115.849 1904.5 117.521 1905.05 118.969C1905.61 120.407 1906.42 121.534 1907.49 122.351C1908.56 123.157 1909.86 123.56 1911.41 123.56C1913.02 123.56 1914.37 123.135 1915.44 122.286C1916.53 121.425 1917.35 120.271 1917.89 118.822C1918.45 117.363 1918.73 115.741 1918.73 113.955C1918.73 112.19 1918.46 110.6 1917.91 109.185C1917.38 107.758 1916.57 106.631 1915.48 105.803C1914.4 104.965 1913.04 104.545 1911.41 104.545C1909.84 104.545 1908.52 104.943 1907.46 105.738C1906.39 106.522 1905.58 107.622 1905.04 109.038C1904.49 110.442 1904.22 112.081 1904.22 113.955ZM1939 127.023C1936.58 127.023 1934.5 126.489 1932.74 125.422C1931 124.344 1929.66 122.841 1928.71 120.913C1927.77 118.975 1927.3 116.721 1927.3 114.151C1927.3 111.58 1927.77 109.315 1928.71 107.355C1929.66 105.384 1930.97 103.848 1932.66 102.749C1934.36 101.638 1936.34 101.082 1938.61 101.082C1939.91 101.082 1941.2 101.3 1942.48 101.736C1943.75 102.171 1944.91 102.879 1945.96 103.859C1947 104.829 1947.84 106.114 1948.46 107.714C1949.08 109.315 1949.39 111.286 1949.39 113.628V115.261H1930.05V111.929H1945.47C1945.47 110.513 1945.19 109.25 1944.62 108.139C1944.06 107.028 1943.27 106.152 1942.23 105.509C1941.21 104.867 1940 104.545 1938.61 104.545C1937.07 104.545 1935.74 104.927 1934.62 105.689C1933.51 106.44 1932.66 107.42 1932.06 108.629C1931.46 109.838 1931.16 111.134 1931.16 112.517V114.739C1931.16 116.634 1931.49 118.24 1932.14 119.558C1932.8 120.864 1933.72 121.861 1934.9 122.547C1936.08 123.222 1937.44 123.56 1939 123.56C1940.01 123.56 1940.93 123.418 1941.74 123.135C1942.57 122.841 1943.28 122.405 1943.88 121.828C1944.48 121.24 1944.95 120.51 1945.27 119.639L1949 120.685C1948.6 121.948 1947.95 123.059 1947.02 124.017C1946.09 124.964 1944.95 125.705 1943.59 126.239C1942.23 126.761 1940.7 127.023 1939 127.023ZM1955.25 126.5V101.409H1958.98V105.199H1959.24C1959.7 103.957 1960.52 102.95 1961.72 102.177C1962.92 101.404 1964.27 101.017 1965.77 101.017C1966.06 101.017 1966.41 101.022 1966.83 101.033C1967.26 101.044 1967.58 101.061 1967.8 101.082V105.003C1967.67 104.97 1967.37 104.921 1966.9 104.856C1966.44 104.78 1965.96 104.741 1965.45 104.741C1964.23 104.741 1963.14 104.997 1962.18 105.509C1961.23 106.01 1960.48 106.707 1959.92 107.6C1959.38 108.482 1959.11 109.49 1959.11 110.622V126.5H1955.25Z" fill="#505050"/>
</svg>
