<svg width="118" height="57" viewBox="0 0 118 57" fill="none" xmlns="http://www.w3.org/2000/svg">
<path d="M114.83 29.646C114.811 29.6311 114.796 29.6122 114.785 29.5905C114.775 29.5689 114.769 29.545 114.768 29.5208L114.595 27.9622L114.075 28.0123C113.958 28.0123 113.896 27.9747 113.89 27.8746C113.884 27.7744 113.933 27.7118 114.045 27.6993L115.461 27.5741C115.579 27.5741 115.64 27.5741 115.647 27.7118C115.653 27.8495 115.603 27.8683 115.492 27.8808L114.966 27.9309L115.109 29.4958C115.112 29.5211 115.111 29.5469 115.105 29.5717C115.098 29.5964 115.087 29.6196 115.071 29.6398C115.036 29.675 114.991 29.6971 114.941 29.7024C114.9 29.695 114.861 29.6754 114.83 29.646Z" fill="#00C8AA"/>
<path d="M117.781 27.3801C117.799 27.3968 117.814 27.417 117.825 27.4395C117.835 27.4621 117.841 27.4866 117.843 27.5116L117.997 29.2329C118.002 29.2563 118.001 29.2803 117.994 29.3032C117.988 29.326 117.976 29.347 117.96 29.3644C117.948 29.3829 117.931 29.3979 117.912 29.4078C117.892 29.4177 117.871 29.4221 117.849 29.4207C117.829 29.429 117.808 29.4332 117.787 29.4332C117.766 29.4332 117.745 29.429 117.725 29.4207C117.692 29.3873 117.672 29.3427 117.669 29.2955L117.564 28.1L117.156 29.0765C117.144 29.1144 117.122 29.1487 117.094 29.1766C117.069 29.2011 117.036 29.2164 117.001 29.2204C116.969 29.2298 116.935 29.2298 116.902 29.2204C116.867 29.2009 116.839 29.1701 116.822 29.1328L116.247 28.2565L116.352 29.4395C116.356 29.4624 116.355 29.4858 116.349 29.5084C116.344 29.5309 116.334 29.5522 116.321 29.571C116.307 29.5891 116.289 29.6037 116.269 29.6135C116.248 29.6233 116.226 29.628 116.203 29.6273C116.184 29.6356 116.163 29.6398 116.141 29.6398C116.12 29.6398 116.099 29.6356 116.08 29.6273C116.047 29.5938 116.027 29.5493 116.024 29.5021L115.876 27.7807C115.869 27.7326 115.88 27.6836 115.906 27.643C115.938 27.6068 115.982 27.5844 116.03 27.5804C116.068 27.5784 116.105 27.5873 116.138 27.6062C116.171 27.625 116.198 27.653 116.216 27.6868L116.964 28.8574L117.49 27.5742C117.497 27.5441 117.512 27.5163 117.532 27.4932C117.553 27.4702 117.578 27.4526 117.607 27.4421C117.636 27.4315 117.667 27.4284 117.697 27.4329C117.727 27.4373 117.756 27.4493 117.781 27.4678V27.3801Z" fill="#00C8AA"/>
<path d="M25.4902 36.2561C26.5834 36.2561 27.4696 35.3593 27.4696 34.253C27.4696 33.1468 26.5834 32.25 25.4902 32.25C24.397 32.25 23.5107 33.1468 23.5107 34.253C23.5107 35.3593 24.397 36.2561 25.4902 36.2561Z" fill="#00C8AA"/>
<path d="M35.0346 26.8856C32.5603 27.5742 31.5521 29.9591 32.2572 32.3439C33.1108 35.2171 36.3027 37.2764 38.7275 38.7287C39.6924 36.0058 41.2574 32.7446 40.4409 29.884C40.3045 29.3132 40.0518 28.7775 39.699 28.3113C39.3463 27.845 38.9012 27.4584 38.3923 27.1762C37.8835 26.8939 37.322 26.7223 36.7438 26.6723C36.1656 26.6223 35.5834 26.6949 35.0346 26.8856V26.8856ZM36.8903 32.6757C36.5339 32.7964 36.1509 32.812 35.7861 32.7206C35.4212 32.6292 35.0897 32.4345 34.8301 32.1594C34.5706 31.8843 34.3938 31.5401 34.3205 31.1671C34.2472 30.7941 34.2803 30.4076 34.416 30.053C34.4995 29.7548 34.657 29.4832 34.8735 29.264C35.0901 29.0449 35.3585 28.8855 35.6532 28.8011C35.9231 28.7044 36.2118 28.6739 36.4957 28.712C36.7795 28.7501 37.0504 28.8557 37.2862 29.0201C37.6969 29.2808 37.9968 29.687 38.1274 30.1594C38.2062 30.4105 38.2351 30.6748 38.2127 30.9373C38.1903 31.1998 38.117 31.4552 37.9969 31.6889C37.8768 31.9227 37.7123 32.1302 37.5129 32.2995C37.3135 32.4688 37.083 32.5966 36.8346 32.6757H36.8903Z" fill="#00C8AA"/>
<path d="M46.3359 44.863C46.2547 44.8092 46.1638 44.772 46.0684 44.7538C45.973 44.7355 45.8749 44.7364 45.7799 44.7564C45.6848 44.7765 45.5946 44.8153 45.5143 44.8706C45.4341 44.926 45.3654 44.9968 45.3122 45.079C45.259 45.1612 45.2223 45.2532 45.2042 45.3497C45.1862 45.4463 45.1871 45.5455 45.2069 45.6417C45.2267 45.7379 45.265 45.8292 45.3197 45.9104C45.3744 45.9916 45.4444 46.0611 45.5256 46.1149C45.8383 46.539 46.023 47.0455 46.0576 47.5734C46.2308 49.3511 45.7978 50.5091 44.7709 51.0036C43.4348 51.6609 41.2142 51.2415 38.8512 50.0522C39.4698 48.6187 40.4224 48.0992 40.8987 46.4467C41.0166 45.9936 40.9904 45.5145 40.8239 45.0774C40.6573 44.6402 40.3588 44.2674 39.9708 44.0117C38.3069 43.2105 34.014 44.5876 32.8635 46.2714C32.6136 46.6235 32.5065 47.059 32.564 47.4886C32.6215 47.9181 32.8393 48.309 33.1728 48.5812C34.4656 49.8331 35.5295 49.8331 36.9275 50.6781C36.711 51.0912 36.4945 51.4793 36.2718 51.8486C35.0346 53.9205 33.6491 55.1787 32.3624 55.4854C31.0758 55.7921 29.8881 55.2225 28.651 53.8454C28.2401 53.3402 27.9919 52.7199 27.9397 52.0677C27.9077 51.8814 27.8062 51.7146 27.6563 51.6017C27.5064 51.4887 27.3194 51.4383 27.1338 51.4608C26.9482 51.4833 26.7782 51.5769 26.6589 51.7224C26.5395 51.868 26.4798 52.0543 26.4922 52.243C26.5907 53.196 26.9823 54.0937 27.6118 54.8094C29.2325 56.5934 30.9459 57.3132 32.6903 56.875L32.9006 56.8187C34.5212 56.3555 36.0738 54.9408 37.5027 52.581C37.744 52.1867 37.979 51.7735 38.2079 51.3291C40.6822 52.581 43.0328 53.0254 44.7586 52.5309C44.9709 52.4639 45.1777 52.3802 45.3771 52.2805C46.4967 51.7297 47.771 50.4027 47.4741 47.3668C47.4679 47.0476 47.2328 45.489 46.3359 44.863Z" fill="#00C8AA"/>
<path d="M23.8138 47.9927C23.6831 48.0343 23.5436 48.0388 23.4105 48.0057C23.2774 47.9726 23.1559 47.9031 23.0591 47.8049C20.5424 45.1212 18.4384 42.0701 16.8178 38.7537C16.0008 39.5658 15.1126 40.3012 14.1641 40.9508C8.9743 44.5562 3.84636 45.4451 1.4092 43.1666C-0.223828 41.6393 -1.25684 38.2153 3.08552 30.56C6.5124 24.532 9.95783 21.2395 13.329 20.7826C14.5512 20.602 15.7975 20.8565 16.8549 21.5024C17.9869 20.2067 21.0797 17.296 25.6942 17.8156C25.7913 17.8267 25.8853 17.857 25.9708 17.9048C26.0562 17.9527 26.1316 18.0171 26.1925 18.0944C26.2534 18.1717 26.2986 18.2604 26.3256 18.3554C26.3526 18.4504 26.3609 18.5498 26.3499 18.6481C26.339 18.7463 26.309 18.8414 26.2617 18.9279C26.2144 19.0144 26.1508 19.0906 26.0744 19.1523C25.998 19.2139 25.9103 19.2597 25.8165 19.287C25.7226 19.3143 25.6243 19.3227 25.5272 19.3116C20.6343 18.7608 17.7147 22.7981 17.591 22.9546L17.0961 23.687L16.4776 23.061C16.0654 22.7211 15.5859 22.4748 15.0715 22.3387C14.5571 22.2027 14.0198 22.18 13.496 22.2723C11.5166 22.5603 8.33099 24.363 4.3907 31.3048C1.42157 36.5315 0.679285 40.4437 2.42984 42.0524C4.28555 43.7863 8.87533 42.8036 13.3352 39.7051C14.3712 39.0045 15.3239 38.1853 16.1745 37.2639C15.8811 36.5434 15.6251 35.808 15.4074 35.0605C14.3002 31.3048 14.3002 29.139 15.4074 28.3566C15.6843 28.1723 16.0098 28.0773 16.341 28.084C16.6723 28.0907 16.9938 28.1988 17.2631 28.3942C17.9532 29.0022 18.5071 29.7523 18.8879 30.5942C19.2687 31.4362 19.4677 32.3506 19.4714 33.2766C19.4156 34.8204 18.864 36.3037 17.9003 37.5018C19.4823 40.8915 21.58 44.0091 24.1169 46.7408C24.1861 46.8106 24.241 46.8935 24.2785 46.9848C24.3159 47.0761 24.3352 47.174 24.3352 47.2729C24.3352 47.3717 24.3159 47.4696 24.2785 47.5609C24.241 47.6522 24.1861 47.7351 24.1169 47.8049C24.0332 47.8925 23.9289 47.9571 23.8138 47.9927ZM16.2487 29.5897C16.2487 29.5897 15.5497 30.2845 16.8178 34.6412C16.9353 35.0418 17.0652 35.4424 17.2075 35.8367C17.6655 35.0799 17.9292 34.2192 17.9745 33.3329C17.978 32.6283 17.8368 31.9307 17.5599 31.2842C17.2831 30.6377 16.8766 30.0565 16.3662 29.5772C16.3266 29.5748 16.2869 29.579 16.2487 29.5897V29.5897Z" fill="#00C8AA"/>
<path d="M46.3173 40.763C46.2032 40.7885 46.085 40.7885 45.9709 40.763C45.8734 40.7478 45.7799 40.7132 45.6959 40.661C45.6118 40.6089 45.5388 40.5403 45.4813 40.4593C45.4237 40.3783 45.3826 40.2865 45.3605 40.1892C45.3383 40.092 45.3356 39.9913 45.3523 39.8929C45.8702 36.1848 45.8181 32.4179 45.1977 28.726C43.7215 28.3072 42.4193 27.4155 41.4863 26.1846C40.9652 25.4244 40.6092 24.5611 40.4418 23.6515C40.2744 22.742 40.2994 21.8069 40.5151 20.9078C40.6315 20.592 40.8399 20.3195 41.1127 20.1261C41.3856 19.9327 41.7099 19.8277 42.043 19.8249C43.3976 19.8249 44.61 21.5651 45.8596 25.3083C46.107 26.0469 46.3111 26.8043 46.4781 27.5554C47.6982 27.8136 48.9435 27.9291 50.1895 27.8997C55.602 27.8308 59.9073 25.9718 60.4392 23.468C60.9341 21.1519 58.1196 18.3664 52.7257 15.8188C45.5503 12.4136 41.8883 12.8205 40.113 13.7532C39.6409 13.9844 39.2227 14.3143 38.8857 14.7211C38.5488 15.1278 38.3009 15.6022 38.1584 16.113L38.0037 16.9894L37.181 16.6952C36.9831 16.6263 32.3005 15.0239 28.6076 18.3289C28.4592 18.4625 28.2643 18.531 28.066 18.5193C27.8676 18.5075 27.682 18.4165 27.5499 18.2663C27.4178 18.1161 27.3502 17.9189 27.3618 17.7181C27.3734 17.5174 27.4633 17.3296 27.6117 17.1959C31.0881 14.0662 35.2696 14.6921 36.9336 15.0614C37.4311 13.9175 38.3057 12.9839 39.4079 12.4199C42.4203 10.83 47.1091 11.5123 53.3381 14.448C61.2496 18.2037 62.3506 21.5776 61.8805 23.7747C61.1877 27.0609 56.4866 29.3206 50.1957 29.4082C49.0503 29.4332 47.905 29.3493 46.775 29.1579C47.3286 32.8099 47.3411 36.5251 46.8122 40.1809C46.7884 40.3137 46.73 40.4378 46.643 40.5401C46.556 40.6425 46.4436 40.7194 46.3173 40.763ZM42.043 21.3209C42.0061 21.3506 41.9747 21.3867 41.9502 21.4273C41.8121 22.1082 41.8133 22.8105 41.9537 23.4909C42.0942 24.1713 42.3708 24.8153 42.7667 25.3834C43.3041 26.0858 44.0085 26.6392 44.8142 26.9921C44.7028 26.5852 44.5853 26.1846 44.4492 25.784C43.0141 21.4837 42.0554 21.3209 42.043 21.3209Z" fill="#00C8AA"/>
<path d="M47.4061 43.2856C47.3901 43.2717 47.3774 43.2544 47.3688 43.2349C47.3603 43.2154 47.3561 43.1942 47.3566 43.1729L47.3195 42.1651H46.9978C46.8988 42.1651 46.8494 42.1276 46.8494 42.0462C46.8494 41.9648 46.8927 41.9148 46.9855 41.9148L47.9319 41.8772C48.0308 41.8772 48.0803 41.8772 48.0865 41.9961C48.0927 42.1151 48.0432 42.1213 47.9442 42.1276H47.6226L47.6659 43.1354C47.6676 43.1557 47.6652 43.1762 47.6588 43.1956C47.6524 43.2149 47.6422 43.2328 47.6288 43.248C47.5992 43.2783 47.5594 43.2962 47.5174 43.2981C47.4801 43.3088 47.4402 43.3043 47.4061 43.2856V43.2856Z" fill="#00C8AA"/>
<path d="M49.5772 41.8522C49.6039 41.8836 49.6192 41.9234 49.6205 41.9648L49.6638 43.0978C49.6657 43.1158 49.6639 43.1339 49.6586 43.1511C49.6533 43.1684 49.6445 43.1843 49.6328 43.198C49.621 43.2127 49.6058 43.2244 49.5886 43.2321C49.5714 43.2397 49.5526 43.243 49.5339 43.2418C49.5016 43.2515 49.4672 43.2515 49.4349 43.2418C49.4094 43.212 49.3942 43.1746 49.3916 43.1354V42.4343L49.1318 42.9789C49.1179 43.0072 49.0991 43.0326 49.0761 43.054C49.0517 43.0598 49.0263 43.0598 49.0019 43.054C48.9758 43.0631 48.9475 43.0631 48.9215 43.054C48.8934 43.0363 48.8718 43.01 48.8596 42.9789L48.5565 42.4719V43.1667C48.5641 43.1822 48.5681 43.1994 48.5681 43.2167C48.5681 43.2341 48.5641 43.2513 48.5565 43.2668C48.5447 43.2816 48.5295 43.2933 48.5123 43.3009C48.4951 43.3085 48.4763 43.3119 48.4575 43.3106C48.4278 43.3228 48.3945 43.3228 48.3648 43.3106C48.35 43.2974 48.3385 43.2809 48.331 43.2625C48.3235 43.244 48.3202 43.2241 48.3215 43.2042L48.2782 42.0775C48.2699 42.0599 48.2656 42.0407 48.2656 42.0212C48.2656 42.0017 48.2699 41.9824 48.2782 41.9648C48.3062 41.9359 48.3435 41.9182 48.3833 41.9148C48.4151 41.9148 48.4461 41.9243 48.4725 41.9421C48.4989 41.9599 48.5196 41.9852 48.5318 42.0149L48.9648 42.7661L49.3297 41.9774C49.3407 41.9488 49.3592 41.9238 49.3832 41.9051C49.4072 41.8863 49.4357 41.8745 49.4658 41.8709C49.4998 41.8523 49.539 41.8457 49.5772 41.8522V41.8522Z" fill="#00C8AA"/>
<path d="M61.1569 7.0429C61.4927 7.58647 61.6446 8.22579 61.5899 8.86442C61.5777 9.3055 61.4634 9.73752 61.256 10.1257C61.0487 10.5138 60.7541 10.8472 60.396 11.0991C59.5132 11.6529 58.4707 11.8868 57.4393 11.7626L53.2144 11.4997C53.0561 11.5063 52.8983 11.4773 52.7524 11.4147C52.6065 11.352 52.4762 11.2574 52.3709 11.1376C52.2655 11.0179 52.1878 10.8759 52.1432 10.722C52.0987 10.5681 52.0885 10.4061 52.1134 10.2478L52.6701 1.13391C52.6626 0.973184 52.6906 0.812786 52.7521 0.664381C52.8135 0.515975 52.9069 0.383293 53.0254 0.275983C53.1439 0.168673 53.2845 0.089431 53.437 0.0440197C53.5896 -0.00139157 53.7502 -0.0118311 53.9072 0.0134604L57.9651 0.270101C58.9677 0.279483 59.9394 0.622644 60.7301 1.24659C61.0481 1.51727 61.2964 1.86205 61.4537 2.25129C61.6111 2.64053 61.6726 3.0626 61.6332 3.48123C61.6115 4.04487 61.412 4.58667 61.0641 5.02734C60.7097 5.4645 60.2298 5.77946 59.6909 5.92871C60.2868 6.12793 60.8017 6.5193 61.1569 7.0429V7.0429ZM58.7321 9.54671C58.8984 9.42186 59.0325 9.25821 59.123 9.06968C59.2134 8.88115 59.2576 8.67331 59.2517 8.46381C59.281 8.25487 59.2616 8.04187 59.195 7.84187C59.1284 7.64188 59.0165 7.46043 58.8682 7.31206C58.4523 7.00994 57.9511 6.85186 57.4393 6.86138L54.7794 6.69863L54.6 9.63435L57.2599 9.79709C57.7637 9.87093 58.2779 9.78568 58.7321 9.55297V9.54671ZM54.8969 4.75818L57.2661 4.90215C57.7619 4.97401 58.2675 4.88873 58.7135 4.65803C58.8761 4.55154 59.0092 4.40481 59.1001 4.23174C59.1911 4.05868 59.2368 3.86499 59.2331 3.66902C59.2619 3.46998 59.2413 3.26683 59.1733 3.07781C59.1053 2.8888 58.9919 2.71984 58.8434 2.58612C58.4261 2.30498 57.9343 2.15873 57.4331 2.16674L55.064 2.01651L54.8969 4.75818Z" fill="#00C8AA"/>
<path d="M65.3447 11.8752C64.7454 11.5092 64.2674 10.971 63.9714 10.3291C63.6729 9.62238 63.5415 8.85487 63.5876 8.08767C63.6338 7.32048 63.8563 6.57478 64.2374 5.90991C64.6125 5.31624 65.1527 4.84803 65.79 4.56411C66.4998 4.27343 67.2649 4.14729 68.0292 4.19495C68.7934 4.24261 69.5375 4.46286 70.2066 4.83953C70.807 5.20037 71.2873 5.73436 71.586 6.37311C71.8813 7.0809 72.0104 7.84832 71.9631 8.61509C71.9159 9.38187 71.6937 10.1271 71.3138 10.7923C70.9406 11.3906 70.4002 11.8634 69.7612 12.1507C69.0565 12.4595 68.2876 12.5885 67.522 12.5262C66.754 12.4961 66.0055 12.2723 65.3447 11.8752ZM69.5509 8.46379C69.6298 7.85413 69.5058 7.23524 69.1983 6.70487C69.0466 6.50819 68.8522 6.34945 68.6302 6.24091C68.4082 6.13237 68.1645 6.07695 67.9179 6.07892C66.7364 6.0038 66.0993 6.70487 66.0065 8.26349C65.9137 9.82211 66.4581 10.6046 67.6395 10.6734C68.821 10.7423 69.4767 9.99738 69.5695 8.46379H69.5509Z" fill="#00C8AA"/>
<path d="M75.6438 12.52C75.0455 12.1509 74.5663 11.6137 74.2644 10.9739C73.9525 10.2715 73.8226 9.50025 73.887 8.73297C73.9139 7.96228 74.1377 7.21178 74.5365 6.55466C74.913 5.96063 75.4526 5.49072 76.0891 5.2026C76.795 4.898 77.5639 4.77333 78.3284 4.83955C79.0944 4.86099 79.843 5.07618 80.5057 5.4655C81.1059 5.82663 81.5862 6.36054 81.8852 6.99908C82.1804 7.70687 82.3095 8.47429 82.2623 9.24106C82.215 10.0078 81.9928 10.7531 81.613 11.4183C81.2366 12.0139 80.6972 12.4859 80.0604 12.7766C79.3515 13.0713 78.5858 13.1997 77.8208 13.152C77.0559 13.1043 76.3116 12.8818 75.6438 12.5012V12.52ZM79.8501 9.10854C79.931 8.49803 79.8045 7.87781 79.4913 7.34962C79.3421 7.15161 79.1492 6.99181 78.9278 6.88309C78.7065 6.77437 78.463 6.71976 78.217 6.72367C77.0335 6.64855 76.3964 7.37674 76.3057 8.90824C76.2149 10.4397 76.7572 11.243 77.9325 11.3182C79.1119 11.3766 79.7511 10.64 79.8501 9.10854V9.10854Z" fill="#00C8AA"/>
<path d="M92.2028 12.8392C92.1833 13.145 92.0455 13.4306 91.8193 13.6342C91.7185 13.7407 91.5961 13.8239 91.4604 13.8779C91.3248 13.9319 91.1792 13.9556 91.0337 13.9472C90.7435 13.9225 90.4746 13.783 90.2852 13.5591L86.9573 10.0287L86.8027 12.5325C86.8038 12.6944 86.7687 12.8545 86.7002 13.0008C86.6316 13.1471 86.5314 13.2759 86.4068 13.3776C86.143 13.5518 85.8305 13.6349 85.5161 13.6146C85.2017 13.5943 84.9023 13.4716 84.6624 13.2649C84.5503 13.1502 84.4658 13.0109 84.4154 12.8579C84.365 12.7048 84.35 12.5421 84.3717 12.3823L84.9408 3.03683C84.9414 2.87546 84.9779 2.7163 85.0475 2.57112C85.1171 2.42593 85.218 2.29843 85.3429 2.19805C85.6055 2.02448 85.9163 1.94111 86.2294 1.96028C86.5424 1.97944 86.8411 2.10013 87.0811 2.30446C87.1925 2.42111 87.277 2.56137 87.3283 2.71509C87.3797 2.86881 87.3966 3.03215 87.378 3.19331L86.9945 9.01467L90.4151 6.00384C90.5219 5.89877 90.649 5.81726 90.7885 5.76446C90.928 5.71167 91.0768 5.68874 91.2255 5.69712C91.3722 5.7051 91.5157 5.74305 91.6476 5.80867C91.7794 5.87429 91.8967 5.96623 91.9925 6.07895C92.0939 6.18686 92.1722 6.3149 92.2222 6.45496C92.2722 6.59503 92.293 6.74408 92.2832 6.89269C92.2672 7.04375 92.2217 7.19009 92.1495 7.32331C92.0774 7.45652 91.9798 7.57396 91.8626 7.66887L89.5924 9.60306L91.8564 12.0067C91.97 12.1121 92.0597 12.241 92.1195 12.3847C92.1793 12.5284 92.2077 12.6834 92.2028 12.8392V12.8392Z" fill="#00C8AA"/>
<path d="M73.6396 15.8751C73.7901 15.8601 73.942 15.8757 74.0864 15.9209C74.2308 15.966 74.3649 16.0398 74.4809 16.138C74.6042 16.2262 74.7076 16.3399 74.7844 16.4715C74.8611 16.6032 74.9095 16.7497 74.9263 16.9016C74.9539 17.1875 74.8744 17.4735 74.7036 17.7028L71.6107 22.2973L72.0561 26.5413C72.0859 26.7134 72.0781 26.89 72.0332 27.0587C71.9884 27.2274 71.9075 27.3841 71.7963 27.5178C71.5796 27.7653 71.275 27.9161 70.9488 27.9371C70.6166 27.985 70.2787 27.9045 70.0024 27.7118C69.8687 27.6009 69.7593 27.4628 69.6816 27.3064C69.6038 27.1501 69.5593 26.979 69.5509 26.8042L69.1117 22.5665L65.1838 18.7106C65.0727 18.6162 64.9814 18.5003 64.9152 18.3697C64.849 18.2391 64.8092 18.0964 64.7983 17.9501C64.7873 17.8037 64.8054 17.6566 64.8514 17.5174C64.8974 17.3782 64.9705 17.2497 65.0663 17.1395C65.1561 17.019 65.2694 16.9185 65.3993 16.8442C65.5291 16.7699 65.6726 16.7234 65.8209 16.7076C65.9827 16.6908 66.1461 16.712 66.2984 16.7696C66.4507 16.8271 66.5879 16.9194 66.6993 17.0393L70.1633 20.5008L72.8355 16.3883C72.9217 16.2462 73.0391 16.126 73.1785 16.037C73.3179 15.948 73.4757 15.8926 73.6396 15.8751V15.8751Z" fill="#00C8AA"/>
<path d="M78.0377 26.7103C77.3877 26.4504 76.8281 26.0017 76.4294 25.4209C76.0236 24.776 75.7711 24.0447 75.6916 23.2845C75.6122 22.5242 75.7081 21.7557 75.9717 21.0392C76.2453 20.3889 76.7012 19.834 77.283 19.443C77.9292 19.0254 78.6656 18.7719 79.4295 18.7044C80.191 18.6086 80.9641 18.7032 81.6811 18.9798C82.3288 19.225 82.889 19.6611 83.2893 20.2317C83.6979 20.8754 83.952 21.6069 84.0315 22.3676C84.111 23.1284 84.0136 23.8975 83.7471 24.6134C83.4743 25.264 83.0209 25.8206 82.4419 26.2158C81.7905 26.6258 81.0555 26.8806 80.2925 26.9608C79.5295 27.0411 78.7585 26.9447 78.0377 26.679V26.7103ZM81.6254 22.6416C81.614 22.0294 81.3957 21.4395 81.0068 20.9703C80.8272 20.7968 80.6103 20.6675 80.3732 20.5926C80.1361 20.5177 79.8851 20.4992 79.6398 20.5384C78.4645 20.6636 77.9552 21.4982 78.1119 23.0422C78.2686 24.5863 78.9367 25.2873 80.1161 25.1454C81.2831 24.9952 81.7862 24.1564 81.6254 22.6291V22.6416Z" fill="#00C8AA"/>
<path d="M93.1802 17.5589C93.3015 17.6564 93.4012 17.7787 93.4726 17.9179C93.544 18.057 93.5856 18.2098 93.5946 18.3664L94.2132 24.3254C94.2359 24.478 94.2243 24.6337 94.1793 24.7811C94.1344 24.9285 94.0571 25.0637 93.9534 25.1767C93.7264 25.4152 93.4201 25.5602 93.0936 25.5836C92.7953 25.6292 92.4912 25.5551 92.2462 25.377C92.1335 25.2858 92.0407 25.172 91.9736 25.0427C91.9066 24.9134 91.8667 24.7715 91.8565 24.6259V24.4631C91.6645 24.8866 91.3631 25.2499 90.9843 25.5147C90.5868 25.7768 90.1327 25.9379 89.6605 25.9842C89.2531 26.0558 88.8352 26.037 88.4357 25.9289C88.0363 25.8208 87.6648 25.6261 87.3471 25.3582C86.7512 24.6994 86.4069 23.8472 86.3759 22.9546L85.9862 19.1989C85.9624 19.0429 85.9715 18.8835 86.0131 18.7313C86.0547 18.5792 86.1278 18.4377 86.2275 18.3163C86.4488 18.0742 86.7555 17.9302 87.0811 17.9157C87.402 17.8621 87.7309 17.9385 87.9966 18.1285C88.1164 18.2288 88.2149 18.3526 88.2862 18.4924C88.3574 18.6323 88.3999 18.7853 88.411 18.9422L88.8007 22.7418C88.8098 23.1226 88.9549 23.4873 89.209 23.7683C89.3387 23.8759 89.49 23.9535 89.6524 23.9956C89.8148 24.0378 89.9844 24.0435 90.1492 24.0124C90.3668 23.996 90.5782 23.9314 90.7685 23.8233C90.9587 23.7151 91.1232 23.566 91.2503 23.3865C91.5192 23.0013 91.6301 22.5256 91.5596 22.0595L91.2008 18.6293C91.1766 18.4747 91.185 18.3166 91.2255 18.1656C91.266 18.0146 91.3377 17.8739 91.4358 17.7529C91.6556 17.5123 91.9599 17.3685 92.2833 17.3523C92.5974 17.302 92.9186 17.3759 93.1802 17.5589Z" fill="#00C8AA"/>
<path d="M101.636 16.5637C101.744 16.6528 101.832 16.7643 101.894 16.8906C101.956 17.0169 101.99 17.1552 101.995 17.296C102.045 17.5818 101.983 17.8762 101.822 18.116C101.581 18.352 101.27 18.4997 100.937 18.5354L100.461 18.6356C100.217 18.6678 99.9826 18.7486 99.7703 18.8732C99.5579 18.9978 99.3721 19.1639 99.2236 19.3617C98.9886 19.7468 98.8945 20.2031 98.9576 20.6512L99.2793 23.7809C99.3083 23.9398 99.3004 24.1033 99.2564 24.2586C99.2124 24.4139 99.1334 24.5568 99.0257 24.676C98.7968 24.8943 98.5036 25.0307 98.1909 25.0647C97.8782 25.0986 97.5631 25.028 97.2937 24.8638C97.1636 24.7685 97.0565 24.6447 96.9805 24.5016C96.9044 24.3585 96.8613 24.1999 96.8545 24.0376L96.2359 18.0722C96.2121 17.9173 96.2237 17.7588 96.2698 17.6091C96.3159 17.4593 96.3953 17.3223 96.5019 17.2084C96.7233 16.9873 97.0146 16.8521 97.3246 16.8266C97.6179 16.7863 97.9155 16.8577 98.1597 17.0269C98.2767 17.115 98.3732 17.2278 98.4427 17.3575C98.5121 17.4873 98.5528 17.6308 98.5617 17.778L98.6051 18.2162C98.7345 17.7567 99.0027 17.3496 99.3721 17.0519C99.7313 16.7635 100.157 16.5718 100.609 16.4948L100.832 16.4573C100.966 16.4188 101.107 16.4084 101.245 16.4267C101.383 16.445 101.516 16.4916 101.636 16.5637V16.5637Z" fill="#00C8AA"/>
<path d="M60.062 43.0665C59.9339 42.956 59.8294 42.8201 59.7549 42.6673C59.6805 42.5144 59.6376 42.3478 59.629 42.1776L58.6826 33.0763C58.6493 32.9181 58.6515 32.7544 58.689 32.5971C58.7265 32.4399 58.7983 32.2931 58.8991 32.1676C59 32.0421 59.1274 31.9411 59.2719 31.872C59.4164 31.8028 59.5743 31.7673 59.7342 31.7681L63.7611 31.3362C64.7954 31.1567 65.8585 31.3803 66.7364 31.9621C67.4699 32.6061 67.9342 33.5081 68.0353 34.4855C68.1363 35.4629 67.8666 36.4426 67.2807 37.2264C66.5447 37.9841 65.5523 38.4315 64.5033 38.4783L61.8064 38.7662L62.1342 41.896C62.1612 42.0648 62.1537 42.2374 62.1122 42.4032C62.0708 42.569 61.9961 42.7245 61.893 42.8599C61.7837 42.9896 61.6495 43.0954 61.4985 43.1707C61.3474 43.2461 61.1828 43.2894 61.0146 43.2981C60.8486 43.325 60.6789 43.3184 60.5154 43.2786C60.352 43.2389 60.1978 43.1668 60.062 43.0665ZM63.9838 36.6067C65.2209 36.469 65.79 35.8555 65.691 34.7664C65.5797 33.6584 64.893 33.1702 63.6435 33.3079L61.2682 33.5583L61.6084 36.8571L63.9838 36.6067Z" fill="#00C8AA"/>
<path d="M77.3943 39.3296C77.5484 39.5031 77.6418 39.723 77.6603 39.9555C77.6813 40.1397 77.6445 40.3258 77.5551 40.4876C77.455 40.6658 77.3152 40.818 77.1469 40.932C76.3847 41.4348 75.5235 41.7637 74.6231 41.896C73.8479 41.9947 73.0606 41.9023 72.3282 41.6268C71.6786 41.3821 71.1163 40.946 70.7137 40.3749C70.3018 39.7328 70.0447 39.0018 69.963 38.2408C69.8814 37.4797 69.9775 36.7099 70.2436 35.9933C70.498 35.3481 70.9267 34.7884 71.4808 34.3783C72.054 33.956 72.7294 33.6987 73.4355 33.6334C74.0941 33.5504 74.7627 33.6477 75.3716 33.9151C75.9482 34.1856 76.4341 34.6207 76.7695 35.167C77.1515 35.7782 77.3808 36.4742 77.4376 37.1951C77.4721 37.3884 77.4322 37.5877 77.3263 37.7522C77.2713 37.8228 77.202 37.8805 77.123 37.9216C77.044 37.9626 76.9572 37.986 76.8685 37.99L72.3777 38.472C72.4504 38.9876 72.7053 39.4591 73.0952 39.7991C73.503 40.0669 73.9954 40.1697 74.4746 40.087C74.7572 40.0618 75.0344 39.9943 75.2973 39.8867C75.5659 39.7669 75.8281 39.6332 76.0829 39.4861C76.2252 39.4047 76.3675 39.3358 76.4974 39.2733C76.6125 39.2168 76.7356 39.1788 76.8623 39.1606C76.9579 39.1446 77.0558 39.1516 77.1482 39.181C77.2406 39.2103 77.3249 39.2612 77.3943 39.3296V39.3296ZM72.5942 35.8743C72.327 36.2689 72.1984 36.7428 72.2292 37.2201L75.3221 36.8884C75.2779 36.4192 75.0798 35.9784 74.7592 35.6365C74.6092 35.5019 74.4314 35.4028 74.2388 35.3465C74.0462 35.2902 73.8436 35.2781 73.6458 35.311C73.4413 35.3253 73.2421 35.3828 73.061 35.4798C72.8798 35.5769 72.7208 35.7113 72.5942 35.8743V35.8743Z" fill="#00C8AA"/>
<path d="M84.9038 39.2294C84.9935 39.3068 85.0658 39.4027 85.1159 39.5106C85.166 39.6186 85.1928 39.7361 85.1945 39.8553C85.2146 39.9968 85.1977 40.1412 85.1456 40.274C85.0935 40.4069 85.008 40.5236 84.8976 40.6127C84.5921 40.8239 84.2282 40.9313 83.8584 40.9195H83.4069C81.514 40.9695 80.4748 40.0744 80.314 38.2467L79.98 35.0293L79.3614 35.0981C79.0783 35.1494 78.7863 35.0961 78.5387 34.9479C78.4391 34.8757 78.3565 34.7821 78.2966 34.674C78.2368 34.5658 78.2011 34.4456 78.1923 34.3219C78.1708 34.1941 78.178 34.0631 78.2133 33.9385C78.2486 33.8138 78.3112 33.6989 78.3965 33.6021C78.6115 33.4069 78.8872 33.2939 79.1758 33.2829L79.7944 33.214L79.6645 31.9621C79.6399 31.8071 79.6488 31.6485 79.6904 31.4972C79.732 31.346 79.8055 31.2056 79.9058 31.0858C80.1306 30.8442 80.4382 30.6987 80.7656 30.6789C81.0873 30.6271 81.4163 30.7058 81.6811 30.898C81.8015 30.9958 81.9002 31.1183 81.9706 31.2575C82.0409 31.3967 82.0814 31.5493 82.0893 31.7055L82.2192 32.9574L83.345 32.8384C84.0502 32.7174 84.4419 32.9699 84.5203 33.5958C84.5417 33.7207 84.5344 33.8489 84.499 33.9704C84.4636 34.092 84.401 34.2037 84.3162 34.2969C84.1013 34.5011 83.8191 34.6171 83.5244 34.6224L82.3986 34.7413L82.7512 38.134C82.7629 38.4031 82.8706 38.6588 83.0543 38.8538C83.2476 39.0115 83.4935 39.0877 83.7409 39.0666H84.1924C84.4408 39.0409 84.6906 39.0981 84.9038 39.2294V39.2294Z" fill="#00C8AA"/>
<path d="M94.4023 40.0677C93.6835 40.1405 93.0405 40.0632 92.4735 39.8359C91.9146 39.5985 91.4653 39.2307 91.1257 38.7324C90.786 38.2341 90.5807 37.6258 90.5097 36.9075C90.4387 36.1891 90.5214 35.5563 90.7577 35.0089C90.994 34.4615 91.3638 34.0245 91.867 33.6981C92.3783 33.3617 92.9934 33.1571 93.7122 33.0843C93.9908 33.0561 94.2909 33.0625 94.6126 33.1034C94.9424 33.1343 95.2636 33.2166 95.5763 33.3503C95.8118 33.4367 95.9663 33.5772 96.04 33.7718C96.1128 33.9572 96.1182 34.1496 96.0562 34.3487C96.0031 34.5469 95.8958 34.7001 95.734 34.8084C95.5804 34.9066 95.3854 34.9079 95.1491 34.8124C94.7708 34.6579 94.4109 34.5978 94.0694 34.6324C93.5393 34.6861 93.1425 34.8961 92.8792 35.2625C92.6241 35.619 92.5266 36.1018 92.5868 36.7111C92.6461 37.3112 92.8366 37.7695 93.1583 38.0859C93.488 38.3924 93.918 38.5187 94.4482 38.4651C94.6099 38.4487 94.7788 38.4133 94.955 38.3587C95.1302 38.2951 95.3027 38.2041 95.4725 38.0859C95.6855 37.945 95.8773 37.9118 96.0481 37.9864C96.2278 38.06 96.3585 38.1891 96.4403 38.3737C96.5212 38.5492 96.5445 38.7397 96.5104 38.9452C96.4762 39.1507 96.3567 39.3189 96.1519 39.4499C95.8616 39.6354 95.5669 39.7754 95.2677 39.87C94.9693 39.9736 94.6809 40.0396 94.4023 40.0677Z" fill="#00C8AA"/>
<path d="M100.667 39.4338C99.957 39.5056 99.323 39.4274 98.765 39.1992C98.2151 38.961 97.7707 38.5973 97.432 38.1081C97.0923 37.6098 96.887 37.0014 96.816 36.2831C96.7459 35.5738 96.829 34.9455 97.0654 34.3981C97.3008 33.8416 97.6652 33.3961 98.1585 33.0614C98.6608 32.7259 99.2669 32.5222 99.9767 32.4504C100.687 32.3786 101.316 32.4572 101.865 32.6864C102.423 32.9146 102.872 33.2779 103.212 33.7762C103.559 34.2644 103.768 34.8632 103.838 35.5725C103.909 36.2908 103.823 36.9287 103.578 37.4861C103.342 38.0335 102.973 38.4795 102.472 38.8241C101.978 39.1588 101.377 39.362 100.667 39.4338ZM100.515 37.8926C100.946 37.8489 101.281 37.6543 101.519 37.3088C101.766 36.9623 101.856 36.4527 101.79 35.7798C101.724 35.116 101.537 34.6436 101.228 34.3627C100.927 34.0717 100.56 33.948 100.129 33.9917C99.6977 34.0353 99.363 34.2299 99.1249 34.5754C98.8859 34.9119 98.7992 35.412 98.8648 36.0758C98.9312 36.7487 99.115 37.2306 99.416 37.5216C99.7171 37.8125 100.083 37.9362 100.515 37.8926Z" fill="#00C8AA"/>
<path d="M106.472 38.8189C105.789 38.888 105.413 38.5724 105.343 37.8723L104.865 33.0303C104.797 32.3392 105.095 31.96 105.76 31.8927C106.425 31.8254 106.792 32.1373 106.86 32.8284L106.864 32.8693C107.027 32.5038 107.27 32.2082 107.593 31.9827C107.924 31.7472 108.318 31.6063 108.777 31.5599C109.244 31.5126 109.649 31.5772 109.994 31.7536C110.347 31.9291 110.63 32.2219 110.843 32.632C111.01 32.211 111.276 31.8718 111.641 31.6145C112.014 31.3471 112.438 31.1894 112.914 31.1412C113.669 31.0648 114.254 31.2398 114.668 31.6663C115.081 32.0837 115.335 32.7697 115.43 33.7245L115.736 36.8207C115.769 37.1571 115.705 37.4254 115.543 37.6254C115.39 37.8245 115.152 37.9405 114.828 37.9732C114.145 38.0423 113.769 37.7268 113.7 37.0266L113.401 33.9987C113.357 33.5531 113.253 33.2376 113.09 33.0521C112.934 32.8566 112.69 32.7756 112.358 32.8093C111.971 32.8484 111.684 33.0152 111.495 33.3099C111.306 33.6045 111.237 34.0018 111.286 34.502L111.557 37.2435C111.626 37.9437 111.324 38.3278 110.65 38.396C110.327 38.4288 110.066 38.3633 109.868 38.1996C109.671 38.0359 109.555 37.7859 109.522 37.4494L109.223 34.4215C109.179 33.9759 109.075 33.6604 108.911 33.4749C108.747 33.2803 108.503 33.1994 108.179 33.2321C107.793 33.2712 107.505 33.4381 107.317 33.7327C107.128 34.0273 107.058 34.4247 107.108 34.9248L107.379 37.6663C107.448 38.3665 107.146 38.7507 106.472 38.8189Z" fill="#00C8AA"/>
<rect x="86.7429" y="37.4387" width="2.2646" height="2.28195" rx="1.1323" fill="#00C8AA"/>
</svg>
