<?xml version="1.0" encoding="utf-8"?>
<!-- Generator: Adobe Illustrator 25.2.1, SVG Export Plug-In . SVG Version: 6.00 Build 0)  -->
<svg version="1.1" id="Layer_1" xmlns="http://www.w3.org/2000/svg" xmlns:xlink="http://www.w3.org/1999/xlink" x="0px" y="0px"
	 viewBox="0 0 1920 1080" style="enable-background:new 0 0 1920 1080;" xml:space="preserve">
<style type="text/css">
	.st0{opacity:0.3;fill:#A9D9D9;enable-background:new    ;}
	.st1{fill:#A9D9D9;}
	.st2{opacity:0.6;fill:#A9D9D9;enable-background:new    ;}
	.st3{fill:none;stroke:#010101;stroke-width:0.1;stroke-linecap:round;stroke-linejoin:round;}
	.st4{fill:none;stroke:#BFBEBE;stroke-width:0.1;stroke-linecap:round;stroke-linejoin:round;}
	.st5{fill:#AAD9D9;}
	.st6{opacity:0.6;fill:#AAD9D9;enable-background:new    ;}
	.st7{opacity:0.3;fill:#AAD9D9;enable-background:new    ;}
	.st8{fill:none;stroke:#010101;stroke-width:0.3;stroke-linecap:round;stroke-linejoin:round;}
	.st9{fill:none;stroke:#010101;stroke-width:0.1;stroke-linecap:round;stroke-linejoin:round;stroke-dasharray:6,3;}
	.st10{fill:none;}
	.st11{fill:none;stroke:#010101;stroke-width:0.25;stroke-linecap:round;stroke-linejoin:round;}
	.st12{fill:none;stroke:#010101;stroke-width:0.25;stroke-linecap:round;stroke-linejoin:round;stroke-dasharray:6.25,3.12;}
	.st13{fill:none;stroke:#010101;stroke-width:0.25;stroke-linecap:round;stroke-linejoin:round;stroke-dasharray:6.24,3.12;}
	.st14{fill:none;stroke:#010101;stroke-width:0.25;stroke-linecap:round;stroke-linejoin:round;stroke-dasharray:5.78,2.89;}
	.st15{fill:none;stroke:#010101;stroke-width:0.25;stroke-linecap:round;stroke-linejoin:round;stroke-dasharray:6.46,3.23;}
	.st16{fill:none;stroke:#010101;stroke-width:0.25;stroke-linecap:round;stroke-linejoin:round;stroke-dasharray:5.86,2.93;}
	.st17{fill:none;stroke:#010101;stroke-width:0.25;stroke-linecap:round;stroke-linejoin:round;stroke-dasharray:5.89,2.94;}
	.st18{fill:none;stroke:#010101;stroke-width:0.25;stroke-linecap:round;stroke-linejoin:round;stroke-dasharray:5.89,2.95;}
	.st19{fill:none;stroke:#010101;stroke-width:0.25;stroke-linecap:round;stroke-linejoin:round;stroke-dasharray:5.65,2.82;}
	.st20{fill:none;stroke:#010101;stroke-width:5.000000e-02;stroke-linecap:round;stroke-linejoin:round;}
	.st21{fill:none;stroke:#010101;stroke-width:0.15;stroke-linecap:round;stroke-linejoin:round;}
	.st22{fill:none;stroke:#010101;stroke-width:0.15;stroke-linecap:round;stroke-linejoin:round;stroke-dasharray:3,2;}
	.st23{fill:none;stroke:#0C0C0C;stroke-width:0.25;stroke-linecap:round;stroke-linejoin:round;}
	.st24{fill:none;stroke:#0C0C0C;stroke-width:0.1;stroke-linecap:round;stroke-linejoin:round;stroke-dasharray:3,1;}
	.st25{fill:#0C0C0C;}
	.st26{opacity:0.33;fill:none;stroke:#030303;stroke-width:0.1;stroke-miterlimit:10;enable-background:new    ;}
	.st27{opacity:0.33;fill:#A9D9D9;stroke:#030303;stroke-width:0.1;stroke-miterlimit:10;enable-background:new    ;}
	.st28{fill:none;stroke:#010101;stroke-linecap:round;stroke-linejoin:round;}
</style>
<g id="Make2D::visible::lines::Stair">
	<polygon class="st0" points="800.7,529.4 788,542.9 771.2,535 760.3,529.9 767.4,513.9 	"/>
	<polygon class="st0" points="800.7,603.6 788,617.4 771.2,609.3 760.7,604.3 760.7,604.3 768,588 768,588 	"/>
	<polygon class="st0" points="799.3,304.6 786.6,317.2 769.8,309.8 755,303.4 757.3,298.3 757.4,298.3 765.8,290.1 	"/>
	<polygon class="st1" points="786.4,403.4 766,449.3 759,465.1 758,467.2 756,471.7 739.1,464 741.1,459.5 769.5,395.9 	"/>
	<polygon class="st2" points="771.2,535 758.6,533.7 758.6,533.7 760.3,529.9 	"/>
	<polygon class="st2" points="771.2,609.3 758.9,608.3 760.7,604.3 760.7,604.3 	"/>
	<polygon class="st2" points="769.8,229 752.9,225.7 754.5,222.5 	"/>
	<polygon class="st2" points="769.8,309.8 753.2,307.1 755,303.4 755,303.4 	"/>
	<polygon class="st2" points="767,468.8 758,467.2 759,465.1 	"/>
	<polygon class="st0" points="766,449.3 796.6,463.2 783.9,476.5 767,468.8 759,465.1 	"/>
	<polygon class="st0" points="756.2,218.9 756.2,218.9 765.8,209.7 799.3,223.8 786.6,236.1 769.8,229 754.5,222.5 	"/>
	<polygon class="st0" points="756.2,384.9 765.5,375.5 799,390.4 786.4,403.4 769.5,395.9 754.4,389 	"/>
	<polygon class="st0" points="756,471.7 743,485.2 709.2,469.6 722.3,456.2 739.1,464 	"/>
	<polygon class="st0" points="756,539.5 743,553.3 709.2,537.3 722.3,523.6 739.1,531.5 	"/>
	<polygon class="st0" points="756,614.7 743,628.9 709.2,612.5 722.3,598.5 739.1,606.6 	"/>
	<polygon class="st2" points="754.4,389 769.5,395.9 752.9,392.3 	"/>
	<polygon class="st0" points="751.2,396 738.1,409.2 704.3,393.9 717.4,380.8 734.3,388.4 	"/>
	<polygon class="st0" points="751.2,229.4 738.1,241.8 704.3,227.3 717.4,215 734.3,222.2 	"/>
	<polygon class="st0" points="751.2,311.4 738.1,324.2 704.3,309.3 717.4,296.6 734.3,303.9 	"/>
	<polygon class="st1" points="742,600.2 771.2,535 788,542.9 768,588 760.7,604.3 758.9,608.3 756,614.7 739.1,606.6 	"/>
	<polygon class="st2" points="742,600.2 739.1,606.6 722.3,598.5 	"/>
	<polygon class="st1" points="741.7,525.8 767,468.8 783.9,476.5 767.4,513.9 760.3,529.9 758.6,533.7 756,539.5 739.1,531.5 	"/>
	<polygon class="st2" points="741.7,525.8 739.1,531.5 722.3,523.6 	"/>
	<polygon class="st2" points="722.3,456.2 741.1,459.5 739.1,464 	"/>
	<polygon class="st2" points="736.3,299.7 734.3,303.9 717.4,296.6 	"/>
	<polygon class="st1" points="736.3,299.7 769.8,229 786.6,236.1 757.4,298.3 757.3,298.3 755,303.4 755,303.4 753.2,307.1 
		751.2,311.4 734.3,303.9 	"/>
	<polygon class="st2" points="736,218.6 734.3,222.2 717.4,215 	"/>
	<polygon class="st1" points="735.9,384.8 769.8,309.8 786.6,317.2 756.2,384.9 754.4,389 752.9,392.3 751.2,396 734.3,388.4 
		735.9,384.8 	"/>
	<polygon class="st2" points="735.9,384.8 734.3,388.4 717.4,380.8 	"/>
	<polygon class="st0" points="799.3,143.1 786.6,155 769.8,148.1 753.1,141.2 765.8,129.4 	"/>
	<polygon class="st1" points="736,218.6 769.8,148.1 786.6,155 756.2,218.9 756.2,218.9 754.5,222.5 752.9,225.7 751.2,229.4 
		734.3,222.2 	"/>
	<line class="st3" x1="757.4" y1="298.3" x2="765.8" y2="290"/>
	<line class="st3" x1="717.4" y1="380.8" x2="734.3" y2="388.4"/>
	<line class="st3" x1="799.3" y1="304.5" x2="786.6" y2="317.1"/>
	<line class="st3" x1="735.9" y1="384.7" x2="734.3" y2="388.4"/>
	<line class="st3" x1="769.8" y1="309.8" x2="735.9" y2="384.7"/>
	<line class="st3" x1="786.6" y1="317.1" x2="769.8" y2="309.8"/>
	<polyline class="st3" points="751.2,396 752.9,392.3 754.4,389 756.2,384.9 786.6,317.2 	"/>
	<line class="st3" x1="751.2" y1="396" x2="734.3" y2="388.4"/>
	<line class="st3" x1="704.3" y1="393.9" x2="717.4" y2="380.8"/>
	<line class="st3" x1="738.1" y1="409.2" x2="704.3" y2="393.9"/>
	<line class="st3" x1="751.2" y1="396" x2="738.1" y2="409.2"/>
	<line class="st3" x1="704.3" y1="309.3" x2="717.4" y2="296.6"/>
	<line class="st3" x1="738.1" y1="324.2" x2="704.3" y2="309.3"/>
	<line class="st3" x1="751.2" y1="311.3" x2="738.1" y2="324.2"/>
	<polyline class="st3" points="769.8,148.1 736,218.6 734.3,222.2 	"/>
	<line class="st3" x1="756.2" y1="218.8" x2="786.6" y2="155"/>
	<polyline class="st3" points="751.2,229.4 752.9,225.7 754.5,222.5 756.2,218.9 	"/>
	<line class="st3" x1="765.8" y1="129.4" x2="799.3" y2="143.1"/>
	<line class="st3" x1="753.1" y1="141.2" x2="765.8" y2="129.4"/>
	<line class="st3" x1="769.8" y1="148.1" x2="753.1" y2="141.2"/>
	<line class="st3" x1="786.6" y1="155" x2="769.8" y2="148.1"/>
	<line class="st3" x1="799.3" y1="143.1" x2="786.6" y2="155"/>
	<line class="st3" x1="734.3" y1="222.2" x2="751.2" y2="229.3"/>
	<line class="st3" x1="704.3" y1="227.3" x2="717.4" y2="215"/>
	<line class="st3" x1="738.1" y1="241.8" x2="704.3" y2="227.3"/>
	<line class="st3" x1="751.2" y1="229.3" x2="738.1" y2="241.8"/>
	<polyline class="st3" points="769.8,229 736.3,299.7 734.3,303.9 	"/>
	<polyline class="st3" points="755,303.4 757.3,298.3 757.4,298.3 786.6,236.1 	"/>
	<polyline class="st3" points="751.2,311.4 753.2,307.1 755,303.4 	"/>
	<line class="st3" x1="751.2" y1="311.3" x2="734.3" y2="303.9"/>
	<line class="st3" x1="736" y1="218.6" x2="717.4" y2="215"/>
	<line class="st3" x1="752.9" y1="392.3" x2="769.5" y2="395.8"/>
	<line class="st3" x1="752.9" y1="225.7" x2="769.8" y2="229"/>
	<line class="st3" x1="769.5" y1="395.8" x2="754.4" y2="389"/>
	<line class="st3" x1="717.4" y1="215" x2="734.3" y2="222.2"/>
	<line class="st3" x1="786.6" y1="236.1" x2="769.8" y2="229"/>
	<polyline class="st3" points="735.9,384.8 735.9,384.8 717.4,380.8 	"/>
	<line class="st3" x1="769.8" y1="229" x2="754.5" y2="222.5"/>
	<polyline class="st3" points="771.2,535 742,600.2 739.1,606.6 	"/>
	<polyline class="st3" points="765.8,209.7 756.2,218.9 756.2,218.9 	"/>
	<line class="st3" x1="799.3" y1="223.8" x2="765.8" y2="209.7"/>
	<line class="st3" x1="786.6" y1="236.1" x2="799.3" y2="223.8"/>
	<line class="st3" x1="736.3" y1="299.7" x2="717.4" y2="296.6"/>
	<line class="st3" x1="739.1" y1="606.6" x2="756" y2="614.7"/>
	<polyline class="st3" points="756,614.7 758.9,608.3 760.7,604.3 768,588 788,542.9 	"/>
	<polyline class="st3" points="769.8,309.8 755,303.4 755,303.4 	"/>
	<line class="st3" x1="753.2" y1="307.1" x2="769.8" y2="309.8"/>
	<line class="st3" x1="788" y1="542.9" x2="771.2" y2="535"/>
	<line class="st3" x1="717.4" y1="296.6" x2="734.3" y2="303.9"/>
	<line class="st3" x1="743" y1="485.2" x2="756" y2="471.7"/>
	<line class="st3" x1="709.2" y1="469.6" x2="743" y2="485.2"/>
	<line class="st3" x1="722.3" y1="456.2" x2="709.2" y2="469.6"/>
	<line class="st3" x1="756" y1="471.7" x2="739.1" y2="463.9"/>
	<polyline class="st3" points="769.5,395.9 741.1,459.5 739.1,464 	"/>
	<polyline class="st3" points="756,471.7 758,467.2 759,465.1 766,449.3 786.4,403.4 	"/>
	<line class="st3" x1="765.5" y1="375.5" x2="799" y2="390.4"/>
	<line class="st3" x1="756.2" y1="384.9" x2="765.5" y2="375.5"/>
	<line class="st3" x1="722.3" y1="598.5" x2="709.2" y2="612.5"/>
	<line class="st3" x1="786.4" y1="403.4" x2="769.5" y2="395.8"/>
	<line class="st3" x1="799" y1="390.4" x2="786.4" y2="403.4"/>
	<polyline class="st3" points="739.1,531.5 741.7,525.8 767,468.8 	"/>
	<polyline class="st3" points="783.9,476.5 767.4,513.9 760.3,529.9 758.6,533.7 756,539.5 	"/>
	<line class="st3" x1="767" y1="468.8" x2="783.9" y2="476.5"/>
	<line class="st3" x1="796.6" y1="463.2" x2="783.9" y2="476.5"/>
	<line class="st3" x1="766" y1="449.3" x2="796.6" y2="463.2"/>
	<line class="st3" x1="709.2" y1="612.5" x2="743" y2="628.9"/>
	<line class="st3" x1="743" y1="628.9" x2="756" y2="614.7"/>
	<line class="st3" x1="722.3" y1="456.2" x2="739.1" y2="463.9"/>
	<line class="st3" x1="741.1" y1="459.5" x2="722.3" y2="456.2"/>
	<line class="st3" x1="722.3" y1="598.5" x2="739.1" y2="606.6"/>
	<line class="st3" x1="759" y1="465.1" x2="767" y2="468.8"/>
	<line class="st3" x1="742" y1="600.2" x2="722.3" y2="598.5"/>
	<line class="st3" x1="758" y1="467.2" x2="767" y2="468.8"/>
	<line class="st3" x1="758.9" y1="608.3" x2="771.2" y2="609.3"/>
	<line class="st3" x1="767.4" y1="513.8" x2="800.7" y2="529.3"/>
	<line class="st3" x1="771.2" y1="609.3" x2="760.7" y2="604.3"/>
	<line class="st3" x1="771.2" y1="609.3" x2="788" y2="617.4"/>
	<line class="st3" x1="800.7" y1="529.3" x2="788" y2="542.9"/>
	<line class="st3" x1="788" y1="617.4" x2="800.7" y2="603.5"/>
	<line class="st3" x1="771.2" y1="535" x2="760.3" y2="529.9"/>
	<line class="st3" x1="800.7" y1="603.5" x2="768" y2="587.9"/>
	<line class="st3" x1="722.3" y1="523.6" x2="741.7" y2="525.8"/>
	<line class="st3" x1="756" y1="539.5" x2="743" y2="553.3"/>
	<line class="st3" x1="771.2" y1="535" x2="758.6" y2="533.7"/>
	<line class="st3" x1="756" y1="539.5" x2="739.1" y2="531.5"/>
	<line class="st3" x1="722.3" y1="523.6" x2="739.1" y2="531.5"/>
	<line class="st3" x1="709.2" y1="537.3" x2="722.3" y2="523.6"/>
	<line class="st3" x1="743" y1="553.3" x2="709.2" y2="537.3"/>
	<line class="st3" x1="765.8" y1="290" x2="799.3" y2="304.5"/>
</g>
<g id="Make2D::hidden::lines::Stair">
	<line class="st4" x1="768" y1="587.9" x2="767.2" y2="587.6"/>
	<line class="st4" x1="741.7" y1="525.8" x2="754.5" y2="527.2"/>
	<line class="st4" x1="760.3" y1="529.9" x2="754.5" y2="527.2"/>
	<line class="st4" x1="754.5" y1="527.2" x2="767.2" y2="513.8"/>
	<line class="st4" x1="767.2" y1="587.6" x2="754.5" y2="601.3"/>
	<line class="st4" x1="760.7" y1="604.3" x2="754.5" y2="601.3"/>
	<line class="st4" x1="767.2" y1="513.8" x2="767.4" y2="513.8"/>
	<line class="st4" x1="739.1" y1="463.9" x2="758" y2="467.2"/>
	<line class="st4" x1="739.1" y1="606.6" x2="758.9" y2="608.3"/>
	<line class="st4" x1="750.3" y1="461.1" x2="759" y2="465.1"/>
	<line class="st4" x1="754.5" y1="601.3" x2="742" y2="600.2"/>
	<line class="st4" x1="750.3" y1="461.1" x2="741.1" y2="459.5"/>
	<line class="st4" x1="750.3" y1="461.1" x2="763.1" y2="447.9"/>
	<line class="st4" x1="763.1" y1="447.9" x2="766" y2="449.3"/>
	<line class="st4" x1="752.8" y1="388.3" x2="756.2" y2="384.9"/>
	<line class="st4" x1="734.3" y1="304" x2="753.2" y2="307.1"/>
	<line class="st4" x1="755" y1="303.3" x2="753.1" y2="302.5"/>
	<line class="st4" x1="753.1" y1="302.5" x2="736.3" y2="299.7"/>
	<line class="st4" x1="756.2" y1="218.9" x2="753.1" y2="221.9"/>
	<line class="st4" x1="754.5" y1="222.5" x2="753.1" y2="221.9"/>
	<line class="st4" x1="752.8" y1="388.3" x2="735.9" y2="384.7"/>
	<line class="st4" x1="754.4" y1="389" x2="752.8" y2="388.3"/>
	<line class="st4" x1="734.3" y1="222.2" x2="752.9" y2="225.7"/>
	<line class="st4" x1="753.1" y1="221.9" x2="736" y2="218.6"/>
	<line class="st4" x1="734.3" y1="388.4" x2="752.9" y2="392.3"/>
	<line class="st4" x1="753.1" y1="302.5" x2="757.3" y2="298.3"/>
	<line class="st4" x1="758.6" y1="533.7" x2="739.1" y2="531.5"/>
</g>
<g id="Make2D::visible::lines::Stair_Atruim">
	<polygon class="st5" points="1241.8,842.4 1241.8,863.4 1168.1,923.8 1168.1,902.2 	"/>
	<polygon class="st5" points="1227.2,515.5 1227.2,536.2 1212.7,554.4 1151.3,597.6 1136.4,616 1136.4,594.4 1138.5,591.9 
		1151.3,576.2 1194.3,546.3 1212.7,533.5 1214.8,530.8 	"/>
	<polygon class="st6" points="1227.2,515.5 1214.8,530.8 1201.3,524.9 1186.7,525 1186.7,522 1158.2,522.3 1167.6,504.6 
		1201.3,504.1 	"/>
	<polygon class="st6" points="1227.2,649.1 1215.3,664.5 1201.3,658.1 1186.7,658.6 1186.7,656 1124.6,658.1 1104.4,648.8 
		1104.4,628.3 1129.6,639.9 1201.3,637.4 	"/>
	<polygon class="st6" points="1226.7,358.6 1213.7,374 1175,357.8 1175,337.1 	"/>
	<polygon class="st6" points="1226.7,441.8 1214,457.2 1175,440.4 1175,419.8 	"/>
	<polygon class="st7" points="1212.7,668 1196.3,681.3 1186.7,676.9 1201.3,658.1 1215.3,664.5 	"/>
	<polygon class="st7" points="1201.3,524.9 1214.8,530.8 1212.7,533.5 1194.3,546.3 1186.7,542.9 	"/>
	<polygon class="st7" points="1201.3,524.9 1186.7,542.9 1186.7,525 	"/>
	<polygon class="st7" points="1201.3,658.1 1186.7,676.9 1186.7,658.6 	"/>
	<polygon class="st7" points="1196.3,681.3 1136.4,729.8 1124.2,745.5 1109.9,738.8 1186.7,676.9 	"/>
	<polygon class="st7" points="1175,440.4 1214,457.2 1212.7,458.8 1190.7,470.2 1186.7,468.5 1186.7,447.6 1164.5,458.9 
		1160.8,457.3 	"/>
	<polygon class="st7" points="1175,357.8 1213.7,374 1212.7,375.2 1189.4,386.3 1186.7,385.1 1186.7,364.2 1163.2,375.2 
		1160.8,374.2 	"/>
	<polygon class="st5" points="1186.7,658.6 1186.7,676.9 1109.9,738.8 1109.9,717.3 1159.5,677.7 1186.7,656 	"/>
	<polygon class="st5" points="1186,525.3 1186,543.2 1124.1,586 1141.8,552.6 1155.1,543.5 1186,522.4 	"/>
	<polygon class="st5" points="1186.7,447.6 1186.7,468.5 1171.5,476.3 	"/>
	<polygon class="st5" points="1186.7,364.2 1186.7,385.1 1171.6,392.3 	"/>
	<polygon class="st5" points="1186.7,364.2 1171.6,392.3 1125.4,414.3 1109.9,432.3 1109.9,410.8 1125.4,393 1144,384.3 
		1159.2,377.1 1163.2,375.2 	"/>
	<polygon class="st5" points="1186.7,522 1155.8,543.1 1147.2,543.2 1158.2,522.3 	"/>
	<polygon class="st5" points="1186.7,656 1159.5,677.7 1114.8,679 1114.8,658.4 1124.6,658.1 	"/>
	<polygon class="st5" points="1183.5,931.5 1195,915.5 1268.3,855.1 1268.3,876.2 1195,937.2 1179.7,958.5 1179.7,936.7 	"/>
	<polygon class="st6" points="1007.1,809.7 1020.8,816.5 1031.1,824.8 1152.6,923.2 1164.3,929 1179.7,936.7 1179.7,958.5 
		1152.6,945 1020.8,837.8 994.9,825 994.9,803.7 	"/>
	<polygon class="st5" points="1175,419.8 1175,440.4 1160.8,457.3 1158.3,462 1158.3,462 1143,469.8 1160.8,436.5 	"/>
	<polygon class="st5" points="1175,337.1 1175,357.8 1160.8,374.2 1159.2,377.1 1144,384.3 1160.8,353.4 	"/>
	<polygon class="st5" points="1171.5,476.3 1124.8,500.3 1140.6,471 1143,469.8 1158.3,462 1158.3,462 1164.5,458.9 1186.7,447.6 	
		"/>
	<polygon class="st5" points="1169.5,417.1 1140.6,471 1124.8,479 1154.2,424.5 	"/>
	<polygon class="st7" points="1168.1,923.8 1183.5,931.5 1179.7,936.7 1164.3,929 	"/>
	<polygon class="st7" points="1168.1,923.8 1164.3,929 1152.6,923.2 1031.1,824.8 1036.7,817.7 	"/>
	<polygon class="st5" points="1153.1,511 1168.5,502.9 1168.5,502.9 1167.6,504.6 1158.2,522.3 1147.2,543.2 1142.5,552.3 
		1124.8,564.3 	"/>
	<polygon class="st5" points="1164.5,458.9 1158.3,462 1160.8,457.3 	"/>
	<polygon class="st7" points="1160.8,374.2 1163.2,375.2 1159.2,377.1 	"/>
	<polygon class="st7" points="1189.4,386.3 1151.8,404.3 1138.4,419.9 1125.4,414.3 1171.6,392.3 1186.7,385.1 	"/>
	<polygon class="st7" points="1190.7,470.2 1151.3,490.6 1138.2,506.2 1124.8,500.3 1171.5,476.3 1186.7,468.5 	"/>
	<polygon class="st7" points="1194.3,546.3 1151.3,576.2 1138.5,591.9 1124.8,585.7 1186.7,542.9 	"/>
	<polygon class="st5" points="1142.5,552.3 1124.8,585.7 1124.8,564.3 	"/>
	<polygon class="st7" points="1151.8,425.7 1154.2,424.5 1124.8,479 1124.8,500.3 1098.6,488.8 1125.6,439 1136.4,443.7 	"/>
	<polygon class="st7" points="1151.3,512 1153.1,511 1124.8,564.3 1124.8,585.7 1098.6,573.8 1124.8,524.7 1136.4,529.8 	"/>
	<polygon class="st5" points="1140.6,471 1124.8,500.3 1124.8,479 	"/>
	<polygon class="st5" points="1138.4,419.9 1151.8,404.3 1189.4,386.3 1212.7,375.2 1213.7,374 1226.7,358.6 1226.7,379.4 
		1212.7,396 1169.5,417.1 1154.2,424.5 1151.8,425.7 1136.4,443.7 1136.4,422.2 	"/>
	<polygon class="st7" points="1138.4,419.9 1136.4,422.2 1136.4,443.7 1125.6,439 1116.3,435 1109.9,432.3 1125.4,414.3 	"/>
	<polygon class="st5" points="1138.2,506.2 1151.3,490.6 1190.7,470.2 1212.7,458.8 1214,457.2 1226.7,441.8 1226.7,462.6 
		1212.7,479.7 1168.5,502.9 1153.1,511 1151.3,512 1136.4,529.8 1136.4,508.3 	"/>
	<polygon class="st6" points="1136.4,594.4 1136.4,616 1084.7,592.4 1083.6,591.9 1083.6,573.3 1083.6,570.5 1096.5,576.3 	"/>
	<polygon class="st6" points="1096.9,490.8 1136.4,508.3 1136.4,529.8 1124.8,524.7 1115.7,520.6 1103.6,515.3 1091,509.7 
		1083.6,506.4 1083.6,485 	"/>
	<polygon class="st5" points="1125.6,439 1098.6,488.8 1096.9,490.8 1083.6,485 1098.6,467.5 1116.3,435 	"/>
	<polygon class="st5" points="1124.8,524.7 1098.6,573.8 1096.5,576.3 1083.6,570.5 1090.3,562.5 1098.6,552.5 1113,525.7 
		1113.1,525.5 1115.7,520.6 	"/>
	<polygon class="st5" points="1124.2,745.5 1136.4,729.8 1196.3,681.3 1212.7,668 1215.3,664.5 1227.2,649.1 1227.2,670 
		1212.7,688.9 1136.4,751.4 1120.9,771.4 1120.9,749.8 	"/>
	<polygon class="st6" points="1120.9,749.8 1120.9,771.4 1094.3,758.7 1078.3,743.7 1070.6,736.5 1057.1,723.9 1049.3,716.7 
		1020.8,689.9 994.9,677.7 994.9,656.4 1007.6,662.4 1020.8,668.6 1030.7,677.9 1094.3,737.1 1106.6,743 	"/>
	<polygon class="st7" points="1104.4,648.8 1124.6,658.1 1114.8,658.4 1105.5,674.8 1089.4,667.2 	"/>
	<polygon class="st5" points="1114.8,658.4 1114.8,679 1098.9,707.1 1091.2,700 1105.5,674.8 	"/>
	<polygon class="st5" points="1113,525.7 1098.6,552.5 1090.3,562.5 1104.8,539 	"/>
	<polygon class="st7" points="1109.9,738.8 1124.2,745.5 1120.9,749.8 1106.6,743 	"/>
	<polygon class="st7" points="1109.9,738.8 1106.6,743 1094.3,737.1 1030.7,677.9 1036.7,670.6 	"/>
	<polygon class="st7" points="1105.5,674.8 1091.2,700 1077.9,687.5 1089.4,667.2 	"/>
	<polygon class="st5" points="1104.4,628.3 1104.4,648.8 1089.4,667.2 1077.9,687.5 1070.1,680.4 1089.4,646.7 	"/>
	<polygon class="st5" points="1103.6,515.3 1089.4,532.1 1010.9,658.5 1007.6,662.4 994.9,656.4 1010.9,637.3 1089.4,511.6 
		1091,509.7 	"/>
	<polygon class="st7" points="1124.8,500.3 1138.2,506.2 1136.4,508.3 1096.9,490.8 1098.6,488.8 	"/>
	<polygon class="st7" points="1124.8,585.7 1138.5,591.9 1136.4,594.4 1096.5,576.3 1098.6,573.8 	"/>
	<polygon class="st5" points="1083.6,591.9 1084.7,592.4 1045,657.1 1036.7,649.4 1083.6,573.3 	"/>
	<polygon class="st5" points="1078.3,743.7 1044.9,803 1036.7,796.4 1070.6,736.5 	"/>
	<polygon class="st7" points="1057.1,723.9 1070.6,736.5 1036.7,796.4 1036.7,817.7 1010.9,805 	"/>
	<polygon class="st5" points="1049.3,716.7 1057.1,723.9 1010.9,805 1007.1,809.7 994.9,803.7 1010.9,783.8 	"/>
	<polygon class="st5" points="1045,657.1 1070.1,680.4 1077.9,687.5 1091.2,700 1098.9,707.1 1109.9,717.3 1109.9,738.8 
		1036.7,670.6 1036.7,649.4 	"/>
	<polygon class="st6" points="1044.9,803 1168.1,902.2 1168.1,923.8 1036.7,817.7 1036.7,796.4 1044.9,803 	"/>
	<polygon class="st7" points="1010.9,658.5 1036.7,670.6 1030.7,677.9 1020.8,668.6 1007.6,662.4 	"/>
	<polygon class="st7" points="1010.9,805 1036.7,817.7 1031.1,824.8 1020.8,816.5 1007.1,809.7 	"/>
	<polygon class="st7" points="1115.7,520.6 1113.1,525.5 1113,525.7 1104.8,539 1089.4,532.1 1103.6,515.3 	"/>
	<polygon class="st7" points="1083.6,570.5 1083.6,573.3 1036.7,649.4 1036.7,670.6 1010.9,658.5 1089.4,532.1 1104.8,539 
		1090.3,562.5 	"/>
	<polyline class="st8" points="1212.7,479.7 1168.5,502.9 1153.1,511 1151.3,512 	"/>
	<line class="st8" x1="1124.8" y1="564.3" x2="1153.1" y2="511"/>
	<line class="st8" x1="1124.8" y1="585.7" x2="1124.8" y2="564.3"/>
	<polyline class="st8" points="1168.5,502.9 1167.9,503.9 1162.4,514.5 1155.8,526.9 1153,532.3 1142.5,552.2 	"/>
	<line class="st8" x1="1154.2" y1="424.5" x2="1124.8" y2="479"/>
	<line class="st8" x1="1186.7" y1="385.1" x2="1186.7" y2="364.2"/>
	<line class="st8" x1="1175" y1="357.8" x2="1213.7" y2="374"/>
	<polyline class="st8" points="1140.6,471 1150.7,452 1169.5,417.1 	"/>
	<line class="st8" x1="1124.8" y1="479" x2="1124.8" y2="500.3"/>
	<line class="st8" x1="1175" y1="337.1" x2="1226.7" y2="358.6"/>
	<line class="st8" x1="1186.7" y1="468.5" x2="1186.7" y2="447.6"/>
	<polyline class="st8" points="1124.8,500.3 1171.5,476.3 1186.7,468.5 	"/>
	<polyline class="st8" points="1136.4,594.4 1096.5,576.3 1083.6,570.5 	"/>
	<polyline class="st8" points="1083.6,591.9 1083.6,573.3 1083.6,570.5 	"/>
	<polyline class="st8" points="1136.4,616 1084.7,592.4 1083.6,591.9 	"/>
	<line class="st8" x1="1160.8" y1="457.3" x2="1175" y2="440.4"/>
	<line class="st8" x1="1175" y1="357.8" x2="1175" y2="337.1"/>
	<line class="st8" x1="1175" y1="440.4" x2="1175" y2="419.8"/>
	<line class="st8" x1="1175" y1="419.8" x2="1226.7" y2="441.8"/>
	<polyline class="st8" points="1125.4,414.3 1171.6,392.3 1186.7,385.1 	"/>
	<line class="st8" x1="1175" y1="440.4" x2="1214" y2="457.2"/>
	<polyline class="st8" points="1212.7,396 1169.5,417.1 1154.2,424.5 1151.8,425.7 	"/>
	<polyline class="st8" points="1136.4,508.3 1096.9,490.8 1083.6,485 	"/>
	<line class="st8" x1="1104.4" y1="648.8" x2="1104.4" y2="628.3"/>
	<polyline class="st8" points="1136.4,529.8 1124.8,524.7 1115.7,520.6 1103.6,515.3 1091,509.7 1083.6,506.4 	"/>
	<line class="st8" x1="1226.7" y1="379.4" x2="1212.7" y2="396"/>
	<line class="st8" x1="1226.7" y1="358.6" x2="1226.7" y2="379.4"/>
	<polyline class="st8" points="1212.7,375.2 1213.7,374 1226.7,358.6 	"/>
	<polyline class="st8" points="1151.8,404.3 1189.4,386.3 1212.7,375.2 	"/>
	<polyline class="st8" points="1136.4,422.2 1138.4,419.9 1151.8,404.3 	"/>
	<line class="st8" x1="1136.4" y1="443.7" x2="1136.4" y2="422.2"/>
	<line class="st8" x1="1151.8" y1="425.7" x2="1136.4" y2="443.7"/>
	<line class="st8" x1="1136.4" y1="616" x2="1151.3" y2="597.6"/>
	<line class="st8" x1="1136.4" y1="594.4" x2="1136.4" y2="616"/>
	<polyline class="st8" points="1151.3,576.2 1138.5,591.9 1136.4,594.4 	"/>
	<polyline class="st8" points="1212.7,533.5 1194.3,546.3 1151.3,576.2 	"/>
	<polyline class="st8" points="1227.2,515.5 1214.8,530.8 1212.7,533.5 	"/>
	<line class="st8" x1="1212.7" y1="554.4" x2="1227.2" y2="536.2"/>
	<line class="st8" x1="1226.7" y1="441.8" x2="1226.7" y2="462.6"/>
	<polyline class="st8" points="1212.7,458.8 1214,457.2 1226.7,441.8 	"/>
	<polyline class="st8" points="1151.3,490.6 1190.7,470.2 1212.7,458.8 	"/>
	<polyline class="st8" points="1136.4,508.3 1138.2,506.2 1151.3,490.6 	"/>
	<line class="st8" x1="1136.4" y1="529.8" x2="1136.4" y2="508.3"/>
	<line class="st8" x1="1151.3" y1="512" x2="1136.4" y2="529.8"/>
	<line class="st8" x1="1226.7" y1="462.6" x2="1212.7" y2="479.7"/>
	<line class="st8" x1="1227.2" y1="649.1" x2="1227.2" y2="670"/>
	<polyline class="st8" points="1212.7,668 1215.3,664.5 1227.2,649.1 	"/>
	<polyline class="st8" points="1136.4,729.8 1196.3,681.3 1212.7,668 	"/>
	<polyline class="st8" points="1120.9,749.8 1124.2,745.5 1136.4,729.8 	"/>
	<line class="st8" x1="1268.3" y1="855.1" x2="1268.3" y2="876.2"/>
	<line class="st8" x1="1195" y1="915.5" x2="1268.3" y2="855.1"/>
	<polyline class="st8" points="1179.7,936.7 1183.5,931.5 1195,915.5 	"/>
	<line class="st8" x1="994.9" y1="825" x2="1020.8" y2="837.8"/>
	<polyline class="st8" points="1020.8,816.5 1007.1,809.7 994.9,803.7 	"/>
	<polyline class="st8" points="1152.6,923.2 1031.1,824.8 1020.8,816.5 	"/>
	<polyline class="st8" points="1179.7,936.7 1164.3,929 1152.6,923.2 	"/>
	<line class="st8" x1="1179.7" y1="958.5" x2="1179.7" y2="936.7"/>
	<line class="st8" x1="1152.6" y1="945" x2="1179.7" y2="958.5"/>
	<polyline class="st8" points="1136.4,443.7 1125.6,439 1116.3,435 1109.9,432.3 	"/>
	<line class="st8" x1="1125.4" y1="414.3" x2="1109.9" y2="432.3"/>
	<line class="st8" x1="1089.4" y1="667.2" x2="1104.4" y2="648.8"/>
	<line class="st8" x1="1104.4" y1="628.3" x2="1089.4" y2="646.7"/>
	<line class="st8" x1="1089.4" y1="646.7" x2="1070.1" y2="680.4"/>
	<line class="st8" x1="1147.2" y1="543.2" x2="1155.8" y2="543.1"/>
	<polyline class="st8" points="1186.7,542.9 1186.7,525 1186.7,522 	"/>
	<polyline class="st8" points="1186.7,522 1158.2,522.3 1158.2,522.3 	"/>
	<line class="st8" x1="1186.7" y1="542.9" x2="1124.8" y2="585.7"/>
	<polyline class="st8" points="1124.8,564.3 1142.5,552.3 1155.8,543.1 1186.7,522 	"/>
	<line class="st8" x1="1201.3" y1="524.9" x2="1186.7" y2="525"/>
	<line class="st8" x1="1151.3" y1="597.6" x2="1212.7" y2="554.4"/>
	<line class="st8" x1="1096.5" y1="576.3" x2="1098.6" y2="573.8"/>
	<line class="st8" x1="1049.3" y1="716.7" x2="1010.9" y2="783.8"/>
	<line class="st8" x1="1201.3" y1="524.9" x2="1214.8" y2="530.8"/>
	<line class="st8" x1="1010.9" y1="783.8" x2="994.9" y2="803.7"/>
	<line class="st8" x1="994.9" y1="803.7" x2="994.9" y2="825"/>
	<line class="st8" x1="1045" y1="657.1" x2="1084.7" y2="592.4"/>
	<polyline class="st8" points="1113,525.7 1104.8,539 1090.3,562.5 	"/>
	<line class="st8" x1="1083.6" y1="573.3" x2="1036.7" y2="649.4"/>
	<polyline class="st8" points="1007.1,809.8 1007.1,809.7 1010.9,805 	"/>
	<line class="st8" x1="1089.4" y1="667.2" x2="1077.9" y2="687.5"/>
	<line class="st8" x1="1036.7" y1="649.4" x2="1036.7" y2="670.6"/>
	<line class="st8" x1="1057.1" y1="723.9" x2="1010.9" y2="805"/>
	<line class="st8" x1="1120.9" y1="771.4" x2="1094.3" y2="758.7"/>
	<polyline class="st8" points="1094.3,758.7 1078.3,743.7 1070.6,736.5 1057.1,723.9 1049.3,716.7 1020.8,689.9 	"/>
	<line class="st8" x1="994.9" y1="677.7" x2="1020.8" y2="689.9"/>
	<line class="st8" x1="994.9" y1="677.7" x2="994.9" y2="656.4"/>
	<polyline class="st8" points="994.9,656.4 1007.6,662.4 1020.8,668.6 	"/>
	<polyline class="st8" points="1020.8,668.6 1030.7,677.9 1094.3,737.1 	"/>
	<line class="st8" x1="1089.4" y1="532.1" x2="1103.6" y2="515.3"/>
	<polyline class="st8" points="1094.3,737.1 1106.6,743 1120.9,749.8 	"/>
	<line class="st8" x1="1120.9" y1="771.4" x2="1120.9" y2="749.8"/>
	<line class="st8" x1="1109.9" y1="738.8" x2="1186.7" y2="676.9"/>
	<polyline class="st8" points="1186.7,676.9 1186.7,658.6 1186.7,656 	"/>
	<polyline class="st8" points="1186.7,656 1159.5,677.7 1109.9,717.3 	"/>
	<line class="st8" x1="1109.9" y1="738.8" x2="1109.9" y2="717.3"/>
	<line class="st8" x1="1114.8" y1="679" x2="1159.5" y2="677.7"/>
	<polyline class="st8" points="1186.7,656 1124.6,658.1 1114.8,658.4 	"/>
	<line class="st8" x1="1114.8" y1="679" x2="1114.8" y2="658.4"/>
	<line class="st8" x1="1201.3" y1="658.1" x2="1186.7" y2="658.6"/>
	<line class="st8" x1="1212.7" y1="688.9" x2="1136.4" y2="751.4"/>
	<line class="st8" x1="1201.3" y1="658.1" x2="1215.3" y2="664.5"/>
	<line class="st8" x1="1227.2" y1="670" x2="1212.7" y2="688.9"/>
	<line class="st8" x1="1044.9" y1="803" x2="1078.3" y2="743.7"/>
	<line class="st8" x1="1098.9" y1="707.1" x2="1114.8" y2="679"/>
	<polyline class="st8" points="1114.8,658.4 1105.5,674.8 1091.2,700 	"/>
	<line class="st8" x1="1070.6" y1="736.5" x2="1036.7" y2="796.4"/>
	<line class="st8" x1="1036.7" y1="817.7" x2="1036.7" y2="796.4"/>
	<line class="st8" x1="1168.1" y1="923.8" x2="1036.7" y2="817.7"/>
	<polyline class="st8" points="1036.7,796.4 1044.9,803 1044.9,803 1168.1,902.2 	"/>
	<line class="st8" x1="1168.1" y1="902.2" x2="1168.1" y2="923.8"/>
	<line class="st8" x1="1168.1" y1="923.8" x2="1241.8" y2="863.4"/>
	<line class="st8" x1="1241.8" y1="863.4" x2="1241.8" y2="842.4"/>
	<line class="st8" x1="1241.8" y1="842.4" x2="1168.1" y2="902.2"/>
	<line class="st8" x1="1020.8" y1="837.8" x2="1152.6" y2="945"/>
	<line class="st8" x1="1268.3" y1="876.2" x2="1195" y2="937.2"/>
	<line class="st8" x1="1195" y1="937.2" x2="1179.7" y2="958.5"/>
	<line class="st8" x1="1036.7" y1="670.6" x2="1109.9" y2="738.8"/>
	<polyline class="st8" points="1109.9,717.3 1098.9,707.1 1091.2,700 1077.9,687.5 1070.1,680.4 1045,657.1 1036.7,649.4 	"/>
	<line class="st8" x1="1136.4" y1="751.4" x2="1120.9" y2="771.4"/>
	<line class="st8" x1="1098.6" y1="573.8" x2="1124.8" y2="524.7"/>
	<line class="st8" x1="1158.3" y1="462" x2="1160.8" y2="457.3"/>
	<line class="st8" x1="1175" y1="419.8" x2="1160.8" y2="436.5"/>
	<line class="st8" x1="1160.8" y1="436.5" x2="1143" y2="469.8"/>
	<polyline class="st8" points="1115.7,520.6 1113.1,525.5 1113,525.7 1098.6,552.5 	"/>
	<polyline class="st8" points="1098.6,552.5 1090.3,562.5 1083.6,570.5 	"/>
	<line class="st8" x1="1160.8" y1="374.2" x2="1175" y2="357.8"/>
	<line class="st8" x1="1160.8" y1="374.2" x2="1159.2" y2="377.1"/>
	<line class="st8" x1="1125.6" y1="439" x2="1098.6" y2="488.8"/>
	<polyline class="st8" points="1098.6,488.8 1096.9,490.8 1096.8,490.8 	"/>
	<line class="st8" x1="1083.6" y1="485" x2="1098.6" y2="467.5"/>
	<line class="st8" x1="1098.6" y1="467.5" x2="1116.3" y2="435"/>
	<line class="st8" x1="1144" y1="384.3" x2="1160.8" y2="353.4"/>
	<line class="st8" x1="1160.8" y1="353.4" x2="1175" y2="337.1"/>
	<polyline class="st8" points="1186.7,364.2 1163.2,375.2 1159.2,377.1 1144,384.3 1125.4,393 	"/>
	<line class="st8" x1="1125.4" y1="393" x2="1109.9" y2="410.8"/>
	<line class="st8" x1="1109.9" y1="410.8" x2="1109.9" y2="432.3"/>
	<line class="st8" x1="1167.6" y1="504.6" x2="1201.3" y2="504.1"/>
	<line class="st8" x1="1201.3" y1="504.1" x2="1227.2" y2="515.5"/>
	<line class="st8" x1="1227.2" y1="536.2" x2="1227.2" y2="515.5"/>
	<line class="st8" x1="1089.4" y1="532.1" x2="1010.9" y2="658.5"/>
	<line class="st8" x1="1010.9" y1="658.5" x2="1007.6" y2="662.4"/>
	<line class="st8" x1="994.9" y1="656.4" x2="1010.9" y2="637.3"/>
	<line class="st8" x1="1010.9" y1="637.3" x2="1089.4" y2="511.6"/>
	<polyline class="st8" points="1089.4,511.6 1091,509.7 1091,509.7 	"/>
	<line class="st8" x1="1104.4" y1="648.8" x2="1124.6" y2="658.1"/>
	<line class="st8" x1="1104.4" y1="628.3" x2="1129.6" y2="639.9"/>
	<line class="st8" x1="1129.6" y1="639.9" x2="1201.3" y2="637.4"/>
	<line class="st8" x1="1201.3" y1="637.4" x2="1227.2" y2="649.1"/>
	<polyline class="st8" points="1186.7,447.6 1164.5,458.9 1158.3,462 1158.3,462 1143,469.8 1140.6,471 1124.8,479 	"/>
	<line class="st8" x1="1083.6" y1="506.4" x2="1083.6" y2="485"/>
	<polygon class="st7" points="1242.6,863.1 1168.9,923.5 1184.3,931.2 1195.7,914.9 1255.1,866.1 	"/>
</g>
<g id="Stair_Line_thin">
	<line class="st3" x1="1186.7" y1="385.1" x2="1189.4" y2="386.3"/>
	<line class="st3" x1="1163.2" y1="375.2" x2="1160.8" y2="374.2"/>
	<line class="st3" x1="1138.4" y1="419.9" x2="1125.4" y2="414.3"/>
	<line class="st3" x1="1160.8" y1="457.3" x2="1164.5" y2="458.9"/>
	<line class="st3" x1="1186.7" y1="468.5" x2="1190.7" y2="470.2"/>
	<line class="st3" x1="1098.6" y1="488.8" x2="1124.8" y2="500.3"/>
	<line class="st3" x1="1138.2" y1="506.2" x2="1124.8" y2="500.3"/>
	<line class="st3" x1="1186.7" y1="542.9" x2="1201.3" y2="524.9"/>
	<line class="st3" x1="1194.3" y1="546.3" x2="1186.7" y2="542.9"/>
	<line class="st3" x1="1104.8" y1="539" x2="1089.4" y2="532.1"/>
	<line class="st3" x1="1098.6" y1="573.8" x2="1124.8" y2="585.7"/>
	<line class="st3" x1="1124.8" y1="585.7" x2="1138.5" y2="591.9"/>
	<line class="st3" x1="1089.4" y1="667.2" x2="1105.5" y2="674.8"/>
	<line class="st3" x1="1010.9" y1="658.5" x2="1036.7" y2="670.6"/>
	<line class="st3" x1="1030.7" y1="677.9" x2="1036.7" y2="670.6"/>
	<line class="st3" x1="1186.7" y1="676.9" x2="1201.3" y2="658.1"/>
	<line class="st3" x1="1196.3" y1="681.3" x2="1186.7" y2="676.9"/>
	<line class="st3" x1="1109.9" y1="738.8" x2="1106.6" y2="743"/>
	<line class="st3" x1="1124.2" y1="745.5" x2="1109.9" y2="738.8"/>
	<line class="st3" x1="1036.7" y1="817.7" x2="1010.9" y2="805"/>
	<line class="st3" x1="1036.7" y1="817.7" x2="1031.1" y2="824.8"/>
	<line class="st3" x1="1183.5" y1="931.5" x2="1168.1" y2="923.8"/>
	<line class="st3" x1="1168.1" y1="923.8" x2="1164.3" y2="929"/>
</g>
<g id="Make2D::hidden::lines::Stair_Atruim">
	<line class="st9" x1="1124.5" y1="658.1" x2="1129.6" y2="660.4"/>
	<line class="st9" x1="1104.4" y1="514.4" x2="1104.4" y2="494"/>
	<line class="st9" x1="1091" y1="509.7" x2="1104.4" y2="494"/>
	<line class="st9" x1="1007.6" y1="662.4" x2="994.9" y2="677.7"/>
	<line class="st9" x1="1129.6" y1="505.1" x2="1167.6" y2="504.6"/>
	<line class="st9" x1="1104.4" y1="494" x2="1129.6" y2="505.1"/>
	<line class="st9" x1="1104.4" y1="514.4" x2="1129.6" y2="525.6"/>
	<line class="st9" x1="1116.3" y1="435" x2="1144" y2="384.3"/>
	<line class="st9" x1="1096.8" y1="490.8" x2="1083.6" y2="506.4"/>
	<line class="st9" x1="1159.2" y1="377.1" x2="1125.6" y2="439"/>
	<line class="st9" x1="1143" y1="469.8" x2="1115.7" y2="520.6"/>
	<line class="st9" x1="1124.8" y1="524.7" x2="1158.3" y2="462"/>
	<line class="st9" x1="1106.6" y1="743" x2="1094.3" y2="758.7"/>
	<line class="st9" x1="1195" y1="937.2" x2="1183.5" y2="931.5"/>
	<line class="st9" x1="1241.8" y1="863.4" x2="1268.2" y2="876.2"/>
	<line class="st9" x1="1164.3" y1="929" x2="1152.6" y2="945"/>
	<line class="st9" x1="1031" y1="824.8" x2="1020.8" y2="837.8"/>
	<line class="st9" x1="1105.5" y1="674.7" x2="1114.7" y2="679"/>
	<line class="st9" x1="1091.2" y1="700" x2="1070.6" y2="736.5"/>
	<line class="st9" x1="1077.8" y1="687.5" x2="1057.1" y2="723.9"/>
	<line class="st9" x1="1078.3" y1="743.7" x2="1098.9" y2="707.1"/>
	<line class="st9" x1="994.9" y1="825" x2="1007.1" y2="809.7"/>
	<line class="st9" x1="1036.7" y1="817.7" x2="1044.9" y2="803"/>
	<line class="st9" x1="1215.3" y1="664.5" x2="1227.2" y2="670"/>
	<line class="st9" x1="1212.7" y1="688.9" x2="1196.3" y2="681.3"/>
	<line class="st9" x1="1136.4" y1="751.4" x2="1124.2" y2="745.5"/>
	<line class="st9" x1="1070.1" y1="680.4" x2="1049.3" y2="716.7"/>
	<line class="st9" x1="1151.3" y1="512" x2="1138.2" y2="506.2"/>
	<line class="st9" x1="1114.7" y1="679" x2="1129.6" y2="660.4"/>
	<line class="st9" x1="1186.6" y1="658.5" x2="1129.6" y2="660.4"/>
	<line class="st9" x1="1159.5" y1="677.7" x2="1186.6" y2="676.9"/>
	<line class="st9" x1="1214" y1="457.2" x2="1226.7" y2="462.6"/>
	<line class="st9" x1="1190.6" y1="470.2" x2="1212.7" y2="479.7"/>
	<line class="st9" x1="1164.5" y1="458.9" x2="1186.6" y2="468.5"/>
	<line class="st9" x1="1020.8" y1="689.9" x2="1030.7" y2="677.9"/>
	<line class="st9" x1="1169.5" y1="417.1" x2="1186.6" y2="385.1"/>
	<line class="st9" x1="1171.5" y1="392.3" x2="1154.2" y2="424.5"/>
	<line class="st9" x1="1103.6" y1="515.3" x2="1104.4" y2="514.4"/>
	<line class="st9" x1="1186.6" y1="468.5" x2="1168.5" y2="502.9"/>
	<line class="st9" x1="1153.1" y1="511" x2="1171.5" y2="476.3"/>
	<line class="st9" x1="1186.6" y1="385.1" x2="1163.2" y2="375.2"/>
	<line class="st9" x1="1213.7" y1="374" x2="1226.7" y2="379.4"/>
	<line class="st9" x1="1189.4" y1="386.3" x2="1212.7" y2="396"/>
	<line class="st9" x1="1151.8" y1="425.7" x2="1138.4" y2="419.9"/>
	<line class="st9" x1="1114.7" y1="543.5" x2="1147.2" y2="543.2"/>
	<line class="st9" x1="1155.8" y1="543.1" x2="1186.6" y2="542.9"/>
	<line class="st9" x1="1158.2" y1="522.3" x2="1114.7" y2="522.8"/>
	<line class="st9" x1="1114.7" y1="543.5" x2="1114.7" y2="522.8"/>
	<line class="st9" x1="1186.6" y1="525" x2="1129.6" y2="525.6"/>
	<line class="st9" x1="1129.6" y1="525.6" x2="1114.7" y2="543.5"/>
	<line class="st9" x1="1212.7" y1="554.4" x2="1194.3" y2="546.3"/>
	<line class="st9" x1="1138.5" y1="591.9" x2="1151.3" y2="597.6"/>
	<line class="st9" x1="1083.6" y1="591.9" x2="1096.5" y2="576.3"/>
	<line class="st9" x1="1214.8" y1="530.8" x2="1227.2" y2="536.2"/>
	<line class="st9" x1="1036.7" y1="670.6" x2="1045" y2="657.1"/>
	<line class="st9" x1="1084.7" y1="592.4" x2="1114.7" y2="543.5"/>
	<line class="st9" x1="1114.7" y1="522.8" x2="1113.1" y2="525.5"/>
	<line class="st9" x1="1114.7" y1="543.5" x2="1104.8" y2="539"/>
	<line class="st9" x1="1090.3" y1="562.5" x2="1083.6" y2="573.3"/>
</g>
<g id="Make2D::visible::lines::Solid">
	<line class="st8" x1="879.1" y1="589.9" x2="803.6" y2="554.5"/>
	<line class="st8" x1="686.6" y1="217.7" x2="643.1" y2="199.1"/>
	<line class="st8" x1="769.9" y1="52.2" x2="769.9" y2="95.3"/>
	<line class="st8" x1="879.1" y1="95.6" x2="769.9" y2="52.2"/>
	<line class="st8" x1="803.6" y1="605.6" x2="686.6" y2="733.8"/>
	<line class="st8" x1="803.6" y1="108.9" x2="686.6" y2="217.7"/>
	<line class="st8" x1="643.1" y1="199.1" x2="643.1" y2="711.9"/>
	<line class="st8" x1="797.7" y1="27.1" x2="906.3" y2="69.8"/>
	<line class="st8" x1="879.1" y1="95.6" x2="879.1" y2="589.9"/>
	<line class="st8" x1="803.6" y1="108.9" x2="803.6" y2="605.6"/>
	<line class="st8" x1="761" y1="91.7" x2="803.6" y2="108.9"/>
	<line class="st8" x1="686.6" y1="733.8" x2="643.1" y2="711.9"/>
	<line class="st8" x1="769.9" y1="52.2" x2="797.7" y2="27.1"/>
	<line class="st8" x1="643.1" y1="199.1" x2="761" y2="91.7"/>
	<line class="st8" x1="686.6" y1="217.7" x2="686.6" y2="733.8"/>
	<line class="st8" x1="906.3" y1="559.4" x2="879.1" y2="589.9"/>
	<line class="st8" x1="906.3" y1="69.8" x2="879.1" y2="95.6"/>
	<line class="st8" x1="906.3" y1="69.8" x2="906.3" y2="559.4"/>
</g>
<g id="Make2D::hidden::lines::Solid">
	<line class="st3" x1="803.6" y1="554.5" x2="769.9" y2="538.6"/>
	<line class="st3" x1="769.9" y1="538.6" x2="797.7" y2="509.1"/>
	<line class="st3" x1="761" y1="585.3" x2="803.6" y2="605.6"/>
	<line class="st3" x1="769.9" y1="95.3" x2="769.9" y2="538.6"/>
	<line class="st3" x1="761" y1="91.7" x2="761" y2="585.3"/>
	<line class="st3" x1="643.1" y1="711.9" x2="761" y2="585.3"/>
	<line class="st3" x1="797.7" y1="27.1" x2="797.7" y2="509.1"/>
	<line class="st3" x1="797.7" y1="509.1" x2="906.3" y2="559.4"/>
</g>
<g id="Make2D::visible::lines::BOX">
	<polygon class="st1" points="1235.5,349.3 1235.5,747.6 1129.9,889 1129.9,474.2 	"/>
	<polygon class="st0" points="1235.5,349.3 1129.9,474.2 1004.3,419.3 1016.6,405.6 1113,298.5 	"/>
	<polygon class="st2" points="1129.9,474.2 1129.9,889 1004.3,826.8 1004.3,657.4 1004.3,419.3 	"/>
	<polygon class="st1" points="1016.6,231.2 1016.6,405.6 1004.3,419.3 1004.3,657.4 904.5,776.5 904.5,348.4 	"/>
	<polygon class="st0" points="1016.6,231.2 904.5,348.4 685.2,253.4 802.1,143.3 	"/>
	<polygon class="st2" points="904.5,348.4 904.5,776.5 685.2,668 685.2,253.4 	"/>
	<line class="st10" x1="904.5" y1="776.5" x2="685.2" y2="668"/>
	<line class="st10" x1="1004.3" y1="419.3" x2="1129.9" y2="474.2"/>
	<line class="st10" x1="1129.9" y1="889" x2="1129.9" y2="474.2"/>
	<line class="st10" x1="1129.9" y1="474.2" x2="1235.5" y2="349.3"/>
	<line class="st10" x1="1235.5" y1="747.6" x2="1235.5" y2="349.3"/>
	<line class="st10" x1="904.5" y1="348.4" x2="685.2" y2="253.4"/>
	<line class="st10" x1="1129.9" y1="889" x2="1235.5" y2="747.6"/>
	<line class="st10" x1="1004.3" y1="657.4" x2="904.5" y2="776.5"/>
	<line class="st10" x1="1004.3" y1="826.8" x2="1129.9" y2="889"/>
	<line class="st10" x1="1016.6" y1="231.2" x2="904.5" y2="348.4"/>
	<polyline class="st10" points="1113,298.5 1016.6,405.6 1004.3,419.3 	"/>
	<line class="st10" x1="685.2" y1="253.4" x2="685.2" y2="668"/>
	<line class="st10" x1="802.1" y1="143.3" x2="1016.6" y2="231.2"/>
	<line class="st10" x1="685.2" y1="253.4" x2="802.1" y2="143.3"/>
	<line class="st10" x1="904.5" y1="348.4" x2="904.5" y2="776.5"/>
	<line class="st10" x1="1016.6" y1="231.2" x2="1016.6" y2="405.6"/>
	<line class="st10" x1="1235.5" y1="349.3" x2="1113" y2="298.5"/>
	<polyline class="st10" points="1004.3,826.8 1004.3,657.4 1004.3,419.3 	"/>
</g>
<g id="Make2D::hidden::lines::BOX">
	<line class="st11" x1="1016.6" y1="405.6" x2="1016.6" y2="414"/>
	<line class="st12" x1="1016.6" y1="422.9" x2="1016.6" y2="629.8"/>
	<line class="st11" x1="1016.6" y1="634.2" x2="1016.6" y2="642.7"/>
	<line class="st11" x1="802.1" y1="542.3" x2="809.7" y2="545.9"/>
	<line class="st13" x1="817.7" y1="549.6" x2="1004.9" y2="637.2"/>
	<line class="st11" x1="1008.9" y1="639.1" x2="1016.6" y2="642.7"/>
	<line class="st11" x1="685.1" y1="668" x2="690.9" y2="661.8"/>
	<line class="st14" x1="696.4" y1="655.9" x2="793.5" y2="551.5"/>
	<line class="st11" x1="796.3" y1="548.5" x2="802.1" y2="542.3"/>
	<line class="st11" x1="1016.6" y1="642.7" x2="1011.1" y2="649.1"/>
	<line class="st11" x1="1009.7" y1="650.8" x2="1004.3" y2="657.4"/>
	<line class="st11" x1="1235.5" y1="747.6" x2="1227.8" y2="743.9"/>
	<line class="st15" x1="1219.6" y1="740.1" x2="1124.7" y2="695.6"/>
	<line class="st11" x1="1120.6" y1="693.7" x2="1113" y2="690.1"/>
	<line class="st11" x1="1113" y1="690.1" x2="1113" y2="681.7"/>
	<line class="st16" x1="1113" y1="673.4" x2="1113" y2="479.4"/>
	<line class="st11" x1="1113" y1="475.3" x2="1113" y2="466.8"/>
	<line class="st11" x1="1113" y1="690.1" x2="1107.7" y2="696.7"/>
	<line class="st17" x1="1102.5" y1="703.2" x2="1012.1" y2="816.9"/>
	<line class="st11" x1="1009.5" y1="820.2" x2="1004.3" y2="826.8"/>
	<line class="st11" x1="802.1" y1="143.3" x2="802.1" y2="151.8"/>
	<line class="st18" x1="802.1" y1="160.1" x2="802.1" y2="529.7"/>
	<line class="st11" x1="802.1" y1="533.8" x2="802.1" y2="542.3"/>
	<line class="st11" x1="1113" y1="466.8" x2="1113" y2="458.3"/>
	<line class="st19" x1="1113" y1="450.4" x2="1113" y2="311"/>
	<line class="st11" x1="1113" y1="307" x2="1113" y2="298.5"/>
</g>
<g id="Slab_new">
	<line class="st20" x1="1226.4" y1="824.4" x2="1226.1" y2="824.2"/>
	<line class="st20" x1="1327.7" y1="320.8" x2="1145.6" y2="542.1"/>
	<line class="st20" x1="1145.6" y1="523.9" x2="1145.6" y2="542.1"/>
	<line class="st20" x1="1145.6" y1="542.1" x2="569.5" y2="285.5"/>
	<line class="st20" x1="569.5" y1="268.8" x2="569.5" y2="285.5"/>
	<line class="st20" x1="1327.7" y1="320.8" x2="1327.7" y2="303.8"/>
	<line class="st20" x1="1157.3" y1="315.3" x2="1066.1" y2="418.8"/>
	<line class="st20" x1="1157.3" y1="289" x2="1157.3" y2="315.3"/>
	<line class="st20" x1="1220.7" y1="341.6" x2="1157.3" y2="315.3"/>
	<line class="st20" x1="1183.8" y1="670.1" x2="1197" y2="676.2"/>
	<line class="st20" x1="1045.7" y1="720.9" x2="1074.3" y2="685.6"/>
	<line class="st20" x1="1145.6" y1="934" x2="569.5" y2="646.1"/>
	<line class="st20" x1="569.5" y1="635.2" x2="569.5" y2="646.1"/>
	<line class="st20" x1="1327.7" y1="685.7" x2="1145.6" y2="934"/>
	<line class="st20" x1="1145.6" y1="922.2" x2="1145.6" y2="934"/>
	<line class="st20" x1="1086.3" y1="691.2" x2="1057.9" y2="726.7"/>
	<line class="st20" x1="1185.2" y1="691.4" x2="1172" y2="685.2"/>
	<line class="st20" x1="1327.7" y1="685.7" x2="1327.7" y2="674.6"/>
	<line class="st20" x1="1145.6" y1="719.1" x2="569.5" y2="448.4"/>
	<line class="st20" x1="569.5" y1="437.4" x2="569.5" y2="448.4"/>
	<line class="st20" x1="1327.7" y1="485.6" x2="1145.6" y2="719.1"/>
	<line class="st20" x1="1145.6" y1="707.2" x2="1145.6" y2="719.1"/>
	<line class="st20" x1="1115.9" y1="528.9" x2="1061.5" y2="594"/>
	<line class="st20" x1="1225.2" y1="508.9" x2="1186.7" y2="492.1"/>
	<line class="st20" x1="1166" y1="405.7" x2="1101.7" y2="378.4"/>
	<line class="st20" x1="1327.7" y1="485.6" x2="1327.7" y2="474.5"/>
	<line class="st20" x1="1113.1" y1="567.7" x2="1113.1" y2="588.1"/>
	<line class="st20" x1="1113.1" y1="567.7" x2="1160.5" y2="589.1"/>
	<line class="st20" x1="1083.2" y1="603.9" x2="1113.1" y2="567.7"/>
	<line class="st20" x1="1145.6" y1="858.1" x2="569.5" y2="576.3"/>
	<line class="st20" x1="569.5" y1="565.4" x2="569.5" y2="576.3"/>
	<line class="st20" x1="1327.7" y1="615" x2="1145.6" y2="858.1"/>
	<line class="st20" x1="1145.6" y1="846.3" x2="1145.6" y2="858.1"/>
	<line class="st20" x1="1044.5" y1="671.6" x2="1015.8" y2="706.6"/>
	<line class="st20" x1="1113.1" y1="588.1" x2="1095.5" y2="609.6"/>
	<line class="st20" x1="1148.4" y1="604.1" x2="1113.1" y2="588.1"/>
	<line class="st20" x1="1225.7" y1="639.2" x2="1212.5" y2="633.2"/>
	<line class="st20" x1="1195.6" y1="545.5" x2="1156.9" y2="528.4"/>
	<line class="st20" x1="1327.7" y1="615" x2="1327.7" y2="604"/>
</g>
<g id="Slab_outline">
	<line class="st21" x1="1145.6" y1="523.9" x2="569.5" y2="268.8"/>
	<line class="st21" x1="569.5" y1="268.8" x2="769.9" y2="86"/>
	<line class="st21" x1="1327.7" y1="303.8" x2="906.3" y2="134.4"/>
	<line class="st21" x1="1327.7" y1="303.8" x2="1145.6" y2="523.9"/>
	<line class="st21" x1="1130.9" y1="446.9" x2="1048.6" y2="411.2"/>
	<line class="st21" x1="1048.6" y1="411.2" x2="1157.3" y2="289"/>
	<line class="st21" x1="1157.3" y1="289" x2="1237.5" y2="321.9"/>
	<line class="st21" x1="1237.5" y1="321.9" x2="1130.9" y2="446.9"/>
	<line class="st21" x1="1199.2" y1="476.9" x2="1237.5" y2="493.6"/>
	<line class="st21" x1="1048.6" y1="588.1" x2="1103.1" y2="523.2"/>
	<line class="st21" x1="1130.9" y1="625.8" x2="1048.6" y2="588.1"/>
	<line class="st21" x1="1237.5" y1="493.6" x2="1130.9" y2="625.8"/>
	<line class="st21" x1="1145.6" y1="707.2" x2="569.5" y2="437.4"/>
	<line class="st21" x1="569.5" y1="437.4" x2="677.3" y2="333.5"/>
	<line class="st21" x1="1327.7" y1="474.5" x2="1145.6" y2="707.2"/>
	<line class="st21" x1="1327.7" y1="474.5" x2="1234" y2="434.7"/>
	<line class="st21" x1="1224.5" y1="617.9" x2="1237.5" y2="623.8"/>
	<line class="st21" x1="1003.3" y1="700.6" x2="1032.1" y2="665.8"/>
	<line class="st21" x1="1130.9" y1="761.5" x2="1003.3" y2="700.6"/>
	<line class="st21" x1="1237.5" y1="623.8" x2="1130.9" y2="761.5"/>
	<line class="st21" x1="1145.6" y1="846.3" x2="569.5" y2="565.4"/>
	<line class="st21" x1="569.5" y1="565.4" x2="648.9" y2="485.7"/>
	<line class="st21" x1="1327.7" y1="604" x2="1145.6" y2="846.3"/>
	<line class="st21" x1="1327.7" y1="604" x2="1259" y2="573.6"/>
	<line class="st21" x1="1145.6" y1="922.2" x2="569.5" y2="635.2"/>
	<line class="st21" x1="569.5" y1="635.2" x2="608.4" y2="595.3"/>
	<line class="st21" x1="1327.7" y1="674.6" x2="1145.6" y2="922.2"/>
	<line class="st21" x1="1327.7" y1="674.6" x2="1294.4" y2="659.5"/>
	<line class="st21" x1="687.6" y1="759.3" x2="1115" y2="976.3"/>
	<line class="st21" x1="1115" y1="976.3" x2="1226.4" y2="824.4"/>
	<line class="st21" x1="1357.4" y1="768.3" x2="1290" y2="737.1"/>
	<line class="st21" x1="1149.8" y1="1062" x2="1357.4" y2="768.3"/>
	<line class="st21" x1="554.5" y1="754" x2="1149.8" y2="1062"/>
	<line class="st21" x1="628.6" y1="675.6" x2="554.5" y2="754"/>
	<line class="st21" x1="721.3" y1="722" x2="687.6" y2="759.3"/>
</g>
<g id="Slab_Desh">
	<line class="st22" x1="906.3" y1="134.4" x2="774.8" y2="81.5"/>
	<line class="st22" x1="769.9" y1="86" x2="774.8" y2="81.5"/>
</g>
<g id="Make2D::visible::lines::Elevtor">
	<polygon class="st1" points="898.1,303.8 898.1,353.2 876.9,375.4 876.9,325.6 	"/>
	<polygon class="st0" points="898.1,303.8 876.9,325.6 840.2,309.8 857,292.8 861.6,288.2 	"/>
	<polygon class="st2" points="876.9,325.6 876.9,375.4 840.2,359.3 840.2,352.6 840.2,309.8 	"/>
	<polygon class="st1" points="857,286.2 857,292.8 840.2,309.8 840.2,352.6 835.6,357.3 835.6,307.8 	"/>
	<polygon class="st0" points="857,286.2 835.6,307.8 799.3,292.1 820.9,270.8 	"/>
	<polygon class="st2" points="835.6,307.8 835.6,357.3 799.3,341.4 799.3,292.1 	"/>
	<line class="st23" x1="898.1" y1="353.2" x2="898.1" y2="303.8"/>
	<line class="st23" x1="876.9" y1="325.6" x2="898.1" y2="303.8"/>
	<line class="st23" x1="876.9" y1="375.4" x2="876.9" y2="325.6"/>
	<line class="st23" x1="898.1" y1="303.8" x2="861.6" y2="288.2"/>
	<line class="st23" x1="799.3" y1="292.1" x2="835.6" y2="307.8"/>
	<polyline class="st23" points="840.2,359.3 840.2,352.6 840.2,309.8 	"/>
	<polyline class="st23" points="861.6,288.2 857,292.8 840.2,309.8 	"/>
	<line class="st23" x1="840.2" y1="359.3" x2="876.9" y2="375.4"/>
	<line class="st23" x1="840.2" y1="309.8" x2="876.9" y2="325.6"/>
	<line class="st23" x1="835.6" y1="357.3" x2="840.2" y2="352.6"/>
	<line class="st23" x1="799.3" y1="341.4" x2="835.6" y2="357.3"/>
	<line class="st23" x1="876.9" y1="375.4" x2="898.1" y2="353.2"/>
	<line class="st23" x1="857" y1="292.8" x2="857" y2="286.2"/>
	<line class="st23" x1="835.6" y1="307.8" x2="857" y2="286.2"/>
	<line class="st23" x1="835.6" y1="357.3" x2="835.6" y2="307.8"/>
	<line class="st23" x1="820.9" y1="270.8" x2="799.3" y2="292.1"/>
	<line class="st23" x1="799.3" y1="341.4" x2="799.3" y2="292.1"/>
	<line class="st23" x1="857" y1="286.2" x2="820.9" y2="270.8"/>
</g>
<g id="Make2D::hidden::lines::Elevtor">
	<line class="st24" x1="820.9" y1="319.7" x2="820.9" y2="270.8"/>
	<line class="st24" x1="857" y1="335.3" x2="820.9" y2="319.7"/>
	<line class="st24" x1="840.2" y1="352.6" x2="857" y2="335.3"/>
	<line class="st24" x1="861.6" y1="337.3" x2="840.2" y2="359.3"/>
	<line class="st24" x1="861.6" y1="337.3" x2="861.6" y2="288.2"/>
	<line class="st24" x1="898.1" y1="353.2" x2="861.6" y2="337.3"/>
	<line class="st24" x1="857" y1="335.3" x2="857" y2="292.7"/>
	<line class="st24" x1="820.9" y1="319.7" x2="799.4" y2="341.3"/>
	<line class="st24" x1="869.2" y1="305.8" x2="869.2" y2="74.5"/>
	<circle class="st25" cx="869.2" cy="305.7" r="1.1"/>
	<circle class="st25" cx="869.2" cy="74.6" r="1.1"/>
	<line class="st24" x1="828.2" y1="288.2" x2="828.2" y2="58.3"/>
	<circle class="st25" cx="828.2" cy="288.1" r="1.1"/>
	<circle class="st25" cx="828.2" cy="58.4" r="1.1"/>
</g>
<g id="Make2D::visible::lines::Massing_Facade">
	<line class="st26" x1="531.6" y1="742" x2="531.7" y2="742"/>
	<polygon class="st27" points="813.1,396.7 813.1,501.4 830.3,509.1 830.3,613.6 751,576.4 751,473.2 706.5,453 706.5,349.9 	"/>
	<polyline class="st27" points="582.6,396.7 582.6,326.9 554.6,352.6 554.6,252.9 531.7,273.2 531.7,373.6 	"/>
	<polyline class="st27" points="663.8,348.3 663.8,156.1 610.2,203.7 610.2,399.1 	"/>
	<polyline class="st27" points="715.6,353.9 715.6,299.1 740.9,275.1 740.9,87.8 715.7,110.2 715.6,204.9 689.9,228.5 689.9,323.5 
		663.8,348.3 	"/>
	<line class="st26" x1="715.6" y1="503.4" x2="747.2" y2="471.4"/>
	<line class="st26" x1="715.6" y1="457.1" x2="715.6" y2="503.4"/>
	<polyline class="st27" points="740.9,365 740.9,333.4 718.4,355.1 	"/>
	<polyline class="st27" points="1157.5,1061.3 1177.7,1033 1177.7,976.5 1157.5,1004.5 1157.5,1061.3 	"/>
	<polygon class="st27" points="1373.6,758.6 1373.6,551.3 1363,565.3 1363,721.2 1341.2,751.1 1341.2,804 	"/>
	<polygon class="st27" points="1243.7,443.9 1200.7,495.7 1200.7,603.8 1226.7,571.5 1226.7,678 1296.7,587.8 1296.7,484.3 
		1243.7,550.3 	"/>
	<polyline class="st27" points="765.8,251.6 765.8,375.9 778.1,381.3 778.1,240 	"/>
	<line class="st26" x1="778.1" y1="240" x2="765.8" y2="251.6"/>
	<line class="st26" x1="668.3" y1="601.1" x2="661.9" y2="607.7"/>
	<polygon class="st27" points="1364.5,298.5 1342.8,324.6 1342.8,426.8 1319.2,456.2 1319.2,558.9 1373.6,488.8 1373.7,388.4 
		1364.5,399.8 	"/>
	<line class="st26" x1="689.9" y1="578.8" x2="673.5" y2="595.7"/>
	<line class="st26" x1="661.9" y1="598.1" x2="661.9" y2="607.7"/>
	<polygon class="st27" points="1157.5,835.3 1157.5,930.5 1202.4,869.8 1202.4,776.2 	"/>
	<polygon class="st27" points="1341.3,682.3 1341.3,593.9 1273.8,682.5 1273.8,773.4 1250.4,804.9 1250.4,931.1 1319.2,834.9 
		1319.2,781.6 1296.7,812.5 1296.7,742.5 	"/>
	<line class="st26" x1="635.3" y1="585" x2="635.5" y2="584.8"/>
	<line class="st26" x1="635.3" y1="585.3" x2="635.3" y2="585"/>
	<polyline class="st27" points="1157.5,767.1 1036.8,710.5 1037,603 994.6,583.7 994.5,690.7 870.6,632.5 870.6,527.4 955.7,566.1 
		955.7,459.2 1055.2,502.8 1055.2,611.2 1157.5,657.7 	"/>
	<polygon class="st27" points="1157.5,657.7 1157.5,767.1 1177.7,741 1177.7,632.4 	"/>
	<polyline class="st27" points="1036.9,999.8 911.4,935.8 911.4,809.4 952.7,829.7 952.7,737.3 1036.9,777.6 1036.9,999.8 	"/>
	<polygon class="st27" points="712.1,834 712.1,622.1 830.3,678.7 830.3,769.5 790.4,749.9 790.4,874 	"/>
	<polygon class="st27" points="560.6,756.7 560.6,704.6 597.8,723.3 597.8,567.4 635.5,585.4 635.5,795 	"/>
	<polygon class="st27" points="531.7,373.6 630.1,418.3 630.1,316.4 662.6,330.6 662.6,433 673.5,438 673.5,603.6 635.5,585.4 
		635.5,522.2 531.7,473.5 	"/>
	<line class="st26" x1="663.8" y1="348.3" x2="663.8" y2="407.9"/>
	<line class="st26" x1="663.8" y1="407.9" x2="706.5" y2="366.6"/>
	<line class="st26" x1="610.2" y1="399.1" x2="630.1" y2="380.2"/>
	<line class="st26" x1="662.6" y1="349.4" x2="663.8" y2="348.3"/>
	<line class="st26" x1="689.9" y1="578.8" x2="689.9" y2="465.3"/>
	<line class="st26" x1="689.9" y1="465.3" x2="673.5" y2="481.5"/>
	<line class="st26" x1="610.2" y1="409.2" x2="610.2" y2="399.1"/>
	<line class="st26" x1="610.2" y1="399.1" x2="602.9" y2="405.9"/>
	<polygon class="st27" points="1079.6,892 1122.9,913.4 1122.9,987 1157.3,1004.3 1157.3,1061.2 1079.6,1021.5 	"/>
</g>
<g id="BOX_Outline">
	<polygon class="st10" points="1235.5,349.3 1235.5,747.6 1129.9,889 1129.9,474.2 	"/>
	<polygon class="st10" points="1235.5,349.3 1129.9,474.2 1004.3,419.3 1016.6,405.6 1113,298.5 	"/>
	<polygon class="st10" points="1129.9,474.2 1129.9,889 1004.3,826.8 1004.3,657.4 1004.3,419.3 	"/>
	<polygon class="st10" points="1016.6,231.2 1016.6,405.6 1004.3,419.3 1004.3,657.4 904.5,776.5 904.5,348.4 	"/>
	<polygon class="st10" points="1016.6,231.2 904.5,348.4 685.2,253.4 802.1,143.3 	"/>
	<polygon class="st10" points="904.5,348.4 904.5,776.5 685.2,668 685.2,253.4 	"/>
	<line class="st28" x1="904.5" y1="776.5" x2="685.2" y2="668"/>
	<line class="st28" x1="1004.3" y1="419.3" x2="1129.9" y2="474.2"/>
	<line class="st28" x1="1129.9" y1="889" x2="1129.9" y2="474.2"/>
	<line class="st28" x1="1129.9" y1="474.2" x2="1235.5" y2="349.3"/>
	<line class="st28" x1="1235.5" y1="747.6" x2="1235.5" y2="349.3"/>
	<line class="st28" x1="904.5" y1="348.4" x2="685.2" y2="253.4"/>
	<line class="st28" x1="1129.9" y1="889" x2="1235.5" y2="747.6"/>
	<line class="st28" x1="1004.3" y1="657.4" x2="904.5" y2="776.5"/>
	<line class="st28" x1="1004.3" y1="826.8" x2="1129.9" y2="889"/>
	<line class="st28" x1="1016.6" y1="231.2" x2="904.5" y2="348.4"/>
	<polyline class="st28" points="1113,298.5 1016.6,405.6 1004.3,419.3 	"/>
	<line class="st28" x1="685.2" y1="253.4" x2="685.2" y2="668"/>
	<line class="st28" x1="802.1" y1="143.3" x2="1016.6" y2="231.2"/>
	<line class="st28" x1="685.2" y1="253.4" x2="802.1" y2="143.3"/>
	<line class="st28" x1="904.5" y1="348.4" x2="904.5" y2="776.5"/>
	<line class="st28" x1="1016.6" y1="231.2" x2="1016.6" y2="405.6"/>
	<line class="st28" x1="1235.5" y1="349.3" x2="1113" y2="298.5"/>
	<polyline class="st28" points="1004.3,826.8 1004.3,657.4 1004.3,419.3 	"/>
</g>
</svg>
