<?xml version="1.0" encoding="utf-8"?>
<!-- Generator: Adobe Illustrator 25.2.1, SVG Export Plug-In . SVG Version: 6.00 Build 0)  -->
<svg version="1.1" id="Layer_1" xmlns="http://www.w3.org/2000/svg" xmlns:xlink="http://www.w3.org/1999/xlink" x="0px" y="0px"
	 viewBox="0 0 1920 1034.9" style="enable-background:new 0 0 1920 1034.9;" xml:space="preserve">
<style type="text/css">
	.st0{opacity:0.3;fill:#A9D9D9;enable-background:new    ;}
	.st1{fill:#A9D9D9;}
	.st2{opacity:0.6;fill:#A9D9D9;enable-background:new    ;}
	.st3{fill:none;stroke:#010101;stroke-width:0.1;stroke-linecap:round;stroke-linejoin:round;}
	.st4{fill:none;stroke:#BFBEBE;stroke-width:0.1;stroke-linecap:round;stroke-linejoin:round;}
	.st5{fill:#AAD9D9;}
	.st6{opacity:0.6;fill:#AAD9D9;enable-background:new    ;}
	.st7{opacity:0.3;fill:#AAD9D9;enable-background:new    ;}
	.st8{fill:none;stroke:#010101;stroke-width:0.3;stroke-linecap:round;stroke-linejoin:round;}
	.st9{fill:none;stroke:#010101;stroke-width:0.1;stroke-linecap:round;stroke-linejoin:round;stroke-dasharray:6,3;}
	.st10{fill:none;}
	.st11{fill:none;stroke:#010101;stroke-width:0.25;stroke-linecap:round;stroke-linejoin:round;}
	.st12{fill:none;stroke:#010101;stroke-width:0.25;stroke-linecap:round;stroke-linejoin:round;stroke-dasharray:6.25,3.12;}
	.st13{fill:none;stroke:#010101;stroke-width:0.25;stroke-linecap:round;stroke-linejoin:round;stroke-dasharray:6.24,3.12;}
	.st14{fill:none;stroke:#010101;stroke-width:0.25;stroke-linecap:round;stroke-linejoin:round;stroke-dasharray:5.78,2.89;}
	.st15{fill:none;stroke:#010101;stroke-width:0.25;stroke-linecap:round;stroke-linejoin:round;stroke-dasharray:6.46,3.23;}
	.st16{fill:none;stroke:#010101;stroke-width:0.25;stroke-linecap:round;stroke-linejoin:round;stroke-dasharray:5.86,2.93;}
	.st17{fill:none;stroke:#010101;stroke-width:0.25;stroke-linecap:round;stroke-linejoin:round;stroke-dasharray:5.89,2.94;}
	.st18{fill:none;stroke:#010101;stroke-width:0.25;stroke-linecap:round;stroke-linejoin:round;stroke-dasharray:5.89,2.95;}
	.st19{fill:none;stroke:#010101;stroke-width:0.25;stroke-linecap:round;stroke-linejoin:round;stroke-dasharray:5.65,2.82;}
	.st20{fill:none;stroke:#010101;stroke-width:5.000000e-02;stroke-linecap:round;stroke-linejoin:round;}
	.st21{fill:none;stroke:#010101;stroke-width:0.15;stroke-linecap:round;stroke-linejoin:round;}
	.st22{fill:none;stroke:#010101;stroke-width:0.15;stroke-linecap:round;stroke-linejoin:round;stroke-dasharray:3,2;}
	.st23{fill:none;stroke:#0C0C0C;stroke-width:0.25;stroke-linecap:round;stroke-linejoin:round;}
	.st24{fill:none;stroke:#0C0C0C;stroke-width:0.1;stroke-linecap:round;stroke-linejoin:round;stroke-dasharray:3,1;}
	.st25{fill:#0C0C0C;}
	.st26{opacity:0.33;fill:none;stroke:#030303;stroke-width:0.1;stroke-miterlimit:10;enable-background:new    ;}
	.st27{opacity:0.33;fill:#A9D9D9;stroke:#030303;stroke-width:0.1;stroke-miterlimit:10;enable-background:new    ;}
	.st28{fill:none;stroke:#010101;stroke-linecap:round;stroke-linejoin:round;}
</style>
<g id="Make2D::visible::lines::Stair">
	<polygon class="st0" points="800.7,502.3 788,515.8 771.2,507.9 760.3,502.8 767.4,486.8 	"/>
	<polygon class="st0" points="800.7,576.5 788,590.3 771.2,582.2 760.7,577.2 760.7,577.2 768,560.9 768,560.9 	"/>
	<polygon class="st0" points="799.3,277.5 786.6,290.1 769.8,282.7 755,276.3 757.3,271.2 757.4,271.2 765.8,263 	"/>
	<polygon class="st1" points="786.4,376.3 766,422.2 759,438 758,440.1 756,444.6 739.1,436.9 741.1,432.4 769.5,368.8 	"/>
	<polygon class="st2" points="771.2,507.9 758.6,506.6 758.6,506.6 760.3,502.8 	"/>
	<polygon class="st2" points="771.2,582.2 758.9,581.2 760.7,577.2 760.7,577.2 	"/>
	<polygon class="st2" points="769.8,201.9 752.9,198.6 754.5,195.4 	"/>
	<polygon class="st2" points="769.8,282.7 753.2,280 755,276.3 755,276.3 	"/>
	<polygon class="st2" points="767,441.7 758,440.1 759,438 	"/>
	<polygon class="st0" points="766,422.2 796.6,436.1 783.9,449.4 767,441.7 759,438 	"/>
	<polygon class="st0" points="756.2,191.8 756.2,191.8 765.8,182.6 799.3,196.7 786.6,209 769.8,201.9 754.5,195.4 	"/>
	<polygon class="st0" points="756.2,357.8 765.5,348.4 799,363.3 786.4,376.3 769.5,368.8 754.4,361.9 	"/>
	<polygon class="st0" points="756,444.6 743,458.1 709.2,442.5 722.3,429.1 739.1,436.9 	"/>
	<polygon class="st0" points="756,512.4 743,526.2 709.2,510.2 722.3,496.5 739.1,504.4 	"/>
	<polygon class="st0" points="756,587.6 743,601.8 709.2,585.4 722.3,571.4 739.1,579.5 	"/>
	<polygon class="st2" points="754.4,361.9 769.5,368.8 752.9,365.2 	"/>
	<polygon class="st0" points="751.2,368.9 738.1,382.1 704.3,366.8 717.4,353.7 734.3,361.3 	"/>
	<polygon class="st0" points="751.2,202.3 738.1,214.7 704.3,200.2 717.4,187.9 734.3,195.1 	"/>
	<polygon class="st0" points="751.2,284.3 738.1,297.1 704.3,282.2 717.4,269.5 734.3,276.8 	"/>
	<polygon class="st1" points="742,573.1 771.2,507.9 788,515.8 768,560.9 760.7,577.2 758.9,581.2 756,587.6 739.1,579.5 	"/>
	<polygon class="st2" points="742,573.1 739.1,579.5 722.3,571.4 	"/>
	<polygon class="st1" points="741.7,498.7 767,441.7 783.9,449.4 767.4,486.8 760.3,502.8 758.6,506.6 756,512.4 739.1,504.4 	"/>
	<polygon class="st2" points="741.7,498.7 739.1,504.4 722.3,496.5 	"/>
	<polygon class="st2" points="722.3,429.1 741.1,432.4 739.1,436.9 	"/>
	<polygon class="st2" points="736.3,272.6 734.3,276.8 717.4,269.5 	"/>
	<polygon class="st1" points="736.3,272.6 769.8,201.9 786.6,209 757.4,271.2 757.3,271.2 755,276.3 755,276.3 753.2,280 
		751.2,284.3 734.3,276.8 	"/>
	<polygon class="st2" points="736,191.5 734.3,195.1 717.4,187.9 	"/>
	<polygon class="st1" points="735.9,357.7 769.8,282.7 786.6,290.1 756.2,357.8 754.4,361.9 752.9,365.2 751.2,368.9 734.3,361.3 	
		"/>
	<polygon class="st2" points="735.9,357.7 734.3,361.3 717.4,353.7 	"/>
	<polygon class="st0" points="799.3,116 786.6,127.9 769.8,121 753.1,114.1 765.8,102.3 	"/>
	<polygon class="st1" points="736,191.5 769.8,121 786.6,127.9 756.2,191.8 756.2,191.8 754.5,195.4 752.9,198.6 751.2,202.3 
		734.3,195.1 	"/>
	<line class="st3" x1="757.4" y1="271.2" x2="765.8" y2="262.9"/>
	<line class="st3" x1="717.4" y1="353.7" x2="734.3" y2="361.3"/>
	<line class="st3" x1="799.3" y1="277.4" x2="786.6" y2="290"/>
	<line class="st3" x1="735.9" y1="357.6" x2="734.3" y2="361.3"/>
	<line class="st3" x1="769.8" y1="282.7" x2="735.9" y2="357.6"/>
	<line class="st3" x1="786.6" y1="290" x2="769.8" y2="282.7"/>
	<polyline class="st3" points="751.2,368.9 752.9,365.2 754.4,361.9 756.2,357.8 786.6,290.1 	"/>
	<line class="st3" x1="751.2" y1="368.9" x2="734.3" y2="361.3"/>
	<line class="st3" x1="704.3" y1="366.8" x2="717.4" y2="353.7"/>
	<line class="st3" x1="738.1" y1="382.1" x2="704.3" y2="366.8"/>
	<line class="st3" x1="751.2" y1="368.9" x2="738.1" y2="382.1"/>
	<line class="st3" x1="704.3" y1="282.2" x2="717.4" y2="269.5"/>
	<line class="st3" x1="738.1" y1="297.1" x2="704.3" y2="282.2"/>
	<line class="st3" x1="751.2" y1="284.2" x2="738.1" y2="297.1"/>
	<polyline class="st3" points="769.8,121 736,191.5 734.3,195.1 	"/>
	<line class="st3" x1="756.2" y1="191.7" x2="786.6" y2="127.9"/>
	<polyline class="st3" points="751.2,202.3 752.9,198.6 754.5,195.4 756.2,191.8 	"/>
	<line class="st3" x1="765.8" y1="102.3" x2="799.3" y2="116"/>
	<line class="st3" x1="753.1" y1="114.1" x2="765.8" y2="102.3"/>
	<line class="st3" x1="769.8" y1="121" x2="753.1" y2="114.1"/>
	<line class="st3" x1="786.6" y1="127.9" x2="769.8" y2="121"/>
	<line class="st3" x1="799.3" y1="116" x2="786.6" y2="127.9"/>
	<line class="st3" x1="734.3" y1="195.1" x2="751.2" y2="202.2"/>
	<line class="st3" x1="704.3" y1="200.2" x2="717.4" y2="187.9"/>
	<line class="st3" x1="738.1" y1="214.7" x2="704.3" y2="200.2"/>
	<line class="st3" x1="751.2" y1="202.2" x2="738.1" y2="214.7"/>
	<polyline class="st3" points="769.8,201.9 736.3,272.6 734.3,276.8 	"/>
	<polyline class="st3" points="755,276.3 757.3,271.2 757.4,271.2 786.6,209 	"/>
	<polyline class="st3" points="751.2,284.3 753.2,280 755,276.3 	"/>
	<line class="st3" x1="751.2" y1="284.2" x2="734.3" y2="276.8"/>
	<line class="st3" x1="736" y1="191.5" x2="717.4" y2="187.9"/>
	<line class="st3" x1="752.9" y1="365.2" x2="769.5" y2="368.7"/>
	<line class="st3" x1="752.9" y1="198.6" x2="769.8" y2="201.9"/>
	<line class="st3" x1="769.5" y1="368.7" x2="754.4" y2="361.9"/>
	<line class="st3" x1="717.4" y1="187.9" x2="734.3" y2="195.1"/>
	<line class="st3" x1="786.6" y1="209" x2="769.8" y2="201.9"/>
	<polyline class="st3" points="735.9,357.7 735.9,357.7 717.4,353.7 	"/>
	<line class="st3" x1="769.8" y1="201.9" x2="754.5" y2="195.4"/>
	<polyline class="st3" points="771.2,507.9 742,573.1 739.1,579.5 	"/>
	<polyline class="st3" points="765.8,182.6 756.2,191.8 756.2,191.8 	"/>
	<line class="st3" x1="799.3" y1="196.7" x2="765.8" y2="182.6"/>
	<line class="st3" x1="786.6" y1="209" x2="799.3" y2="196.7"/>
	<line class="st3" x1="736.3" y1="272.6" x2="717.4" y2="269.5"/>
	<line class="st3" x1="739.1" y1="579.5" x2="756" y2="587.6"/>
	<polyline class="st3" points="756,587.6 758.9,581.2 760.7,577.2 768,560.9 788,515.8 	"/>
	<polyline class="st3" points="769.8,282.7 755,276.3 755,276.3 	"/>
	<line class="st3" x1="753.2" y1="280" x2="769.8" y2="282.7"/>
	<line class="st3" x1="788" y1="515.8" x2="771.2" y2="507.9"/>
	<line class="st3" x1="717.4" y1="269.5" x2="734.3" y2="276.8"/>
	<line class="st3" x1="743" y1="458.1" x2="756" y2="444.6"/>
	<line class="st3" x1="709.2" y1="442.5" x2="743" y2="458.1"/>
	<line class="st3" x1="722.3" y1="429.1" x2="709.2" y2="442.5"/>
	<line class="st3" x1="756" y1="444.6" x2="739.1" y2="436.8"/>
	<polyline class="st3" points="769.5,368.8 741.1,432.4 739.1,436.9 	"/>
	<polyline class="st3" points="756,444.6 758,440.1 759,438 766,422.2 786.4,376.3 	"/>
	<line class="st3" x1="765.5" y1="348.4" x2="799" y2="363.3"/>
	<line class="st3" x1="756.2" y1="357.8" x2="765.5" y2="348.4"/>
	<line class="st3" x1="722.3" y1="571.4" x2="709.2" y2="585.4"/>
	<line class="st3" x1="786.4" y1="376.3" x2="769.5" y2="368.7"/>
	<line class="st3" x1="799" y1="363.3" x2="786.4" y2="376.3"/>
	<polyline class="st3" points="739.1,504.4 741.7,498.7 767,441.7 	"/>
	<polyline class="st3" points="783.9,449.4 767.4,486.8 760.3,502.8 758.6,506.6 756,512.4 	"/>
	<line class="st3" x1="767" y1="441.7" x2="783.9" y2="449.4"/>
	<line class="st3" x1="796.6" y1="436.1" x2="783.9" y2="449.4"/>
	<line class="st3" x1="766" y1="422.2" x2="796.6" y2="436.1"/>
	<line class="st3" x1="709.2" y1="585.4" x2="743" y2="601.8"/>
	<line class="st3" x1="743" y1="601.8" x2="756" y2="587.6"/>
	<line class="st3" x1="722.3" y1="429.1" x2="739.1" y2="436.8"/>
	<line class="st3" x1="741.1" y1="432.4" x2="722.3" y2="429.1"/>
	<line class="st3" x1="722.3" y1="571.4" x2="739.1" y2="579.5"/>
	<line class="st3" x1="759" y1="438" x2="767" y2="441.7"/>
	<line class="st3" x1="742" y1="573.1" x2="722.3" y2="571.4"/>
	<line class="st3" x1="758" y1="440.1" x2="767" y2="441.7"/>
	<line class="st3" x1="758.9" y1="581.2" x2="771.2" y2="582.2"/>
	<line class="st3" x1="767.4" y1="486.7" x2="800.7" y2="502.2"/>
	<line class="st3" x1="771.2" y1="582.2" x2="760.7" y2="577.2"/>
	<line class="st3" x1="771.2" y1="582.2" x2="788" y2="590.3"/>
	<line class="st3" x1="800.7" y1="502.2" x2="788" y2="515.8"/>
	<line class="st3" x1="788" y1="590.3" x2="800.7" y2="576.4"/>
	<line class="st3" x1="771.2" y1="507.9" x2="760.3" y2="502.8"/>
	<line class="st3" x1="800.7" y1="576.4" x2="768" y2="560.8"/>
	<line class="st3" x1="722.3" y1="496.5" x2="741.7" y2="498.7"/>
	<line class="st3" x1="756" y1="512.4" x2="743" y2="526.2"/>
	<line class="st3" x1="771.2" y1="507.9" x2="758.6" y2="506.6"/>
	<line class="st3" x1="756" y1="512.4" x2="739.1" y2="504.4"/>
	<line class="st3" x1="722.3" y1="496.5" x2="739.1" y2="504.4"/>
	<line class="st3" x1="709.2" y1="510.2" x2="722.3" y2="496.5"/>
	<line class="st3" x1="743" y1="526.2" x2="709.2" y2="510.2"/>
	<line class="st3" x1="765.8" y1="262.9" x2="799.3" y2="277.4"/>
</g>
<g id="Make2D::hidden::lines::Stair">
	<line class="st4" x1="768" y1="560.8" x2="767.2" y2="560.5"/>
	<line class="st4" x1="741.7" y1="498.7" x2="754.5" y2="500.1"/>
	<line class="st4" x1="760.3" y1="502.8" x2="754.5" y2="500.1"/>
	<line class="st4" x1="754.5" y1="500.1" x2="767.2" y2="486.7"/>
	<line class="st4" x1="767.2" y1="560.5" x2="754.5" y2="574.2"/>
	<line class="st4" x1="760.7" y1="577.2" x2="754.5" y2="574.2"/>
	<line class="st4" x1="767.2" y1="486.7" x2="767.4" y2="486.7"/>
	<line class="st4" x1="739.1" y1="436.8" x2="758" y2="440.1"/>
	<line class="st4" x1="739.1" y1="579.5" x2="758.9" y2="581.2"/>
	<line class="st4" x1="750.3" y1="434" x2="759" y2="438"/>
	<line class="st4" x1="754.5" y1="574.2" x2="742" y2="573.1"/>
	<line class="st4" x1="750.3" y1="434" x2="741.1" y2="432.4"/>
	<line class="st4" x1="750.3" y1="434" x2="763.1" y2="420.8"/>
	<line class="st4" x1="763.1" y1="420.8" x2="766" y2="422.2"/>
	<line class="st4" x1="752.8" y1="361.2" x2="756.2" y2="357.8"/>
	<line class="st4" x1="734.3" y1="276.9" x2="753.2" y2="280"/>
	<line class="st4" x1="755" y1="276.2" x2="753.1" y2="275.4"/>
	<line class="st4" x1="753.1" y1="275.4" x2="736.3" y2="272.6"/>
	<line class="st4" x1="756.2" y1="191.8" x2="753.1" y2="194.8"/>
	<line class="st4" x1="754.5" y1="195.4" x2="753.1" y2="194.8"/>
	<line class="st4" x1="752.8" y1="361.2" x2="735.9" y2="357.6"/>
	<line class="st4" x1="754.4" y1="361.9" x2="752.8" y2="361.2"/>
	<line class="st4" x1="734.3" y1="195.1" x2="752.9" y2="198.6"/>
	<line class="st4" x1="753.1" y1="194.8" x2="736" y2="191.5"/>
	<line class="st4" x1="734.3" y1="361.3" x2="752.9" y2="365.2"/>
	<line class="st4" x1="753.1" y1="275.4" x2="757.3" y2="271.2"/>
	<line class="st4" x1="758.6" y1="506.6" x2="739.1" y2="504.4"/>
</g>
<g id="Make2D::visible::lines::Stair_Atruim">
	<polygon class="st5" points="1241.8,815.3 1241.8,836.3 1168.1,896.7 1168.1,875.1 	"/>
	<polygon class="st5" points="1227.2,488.4 1227.2,509.1 1212.7,527.3 1151.3,570.5 1136.4,588.9 1136.4,567.3 1138.5,564.8 
		1151.3,549.1 1194.3,519.2 1212.7,506.4 1214.8,503.7 	"/>
	<polygon class="st6" points="1227.2,488.4 1214.8,503.7 1201.3,497.8 1186.7,497.9 1186.7,494.9 1158.2,495.2 1167.6,477.5 
		1201.3,477 	"/>
	<polygon class="st6" points="1227.2,622 1215.3,637.4 1201.3,631 1186.7,631.5 1186.7,628.9 1124.6,631 1104.4,621.7 1104.4,601.2 
		1129.6,612.8 1201.3,610.3 	"/>
	<polygon class="st6" points="1226.7,331.5 1213.7,346.9 1175,330.7 1175,310 	"/>
	<polygon class="st6" points="1226.7,414.7 1214,430.1 1175,413.3 1175,392.7 	"/>
	<polygon class="st7" points="1212.7,640.9 1196.3,654.2 1186.7,649.8 1201.3,631 1215.3,637.4 	"/>
	<polygon class="st7" points="1201.3,497.8 1214.8,503.7 1212.7,506.4 1194.3,519.2 1186.7,515.8 	"/>
	<polygon class="st7" points="1201.3,497.8 1186.7,515.8 1186.7,497.9 	"/>
	<polygon class="st7" points="1201.3,631 1186.7,649.8 1186.7,631.5 	"/>
	<polygon class="st7" points="1196.3,654.2 1136.4,702.7 1124.2,718.4 1109.9,711.7 1186.7,649.8 	"/>
	<polygon class="st7" points="1175,413.3 1214,430.1 1212.7,431.7 1190.7,443.1 1186.7,441.4 1186.7,420.5 1164.5,431.8 
		1160.8,430.2 	"/>
	<polygon class="st7" points="1175,330.7 1213.7,346.9 1212.7,348.1 1189.4,359.2 1186.7,358 1186.7,337.1 1163.2,348.1 
		1160.8,347.1 	"/>
	<polygon class="st5" points="1186.7,631.5 1186.7,649.8 1109.9,711.7 1109.9,690.2 1159.5,650.6 1186.7,628.9 	"/>
	<polygon class="st5" points="1186,498.2 1186,516.1 1124.1,558.9 1141.8,525.5 1155.1,516.4 1186,495.3 	"/>
	<polygon class="st5" points="1186.7,420.5 1186.7,441.4 1171.5,449.2 	"/>
	<polygon class="st5" points="1186.7,337.1 1186.7,358 1171.6,365.2 	"/>
	<polygon class="st5" points="1186.7,337.1 1171.6,365.2 1125.4,387.2 1109.9,405.2 1109.9,383.7 1125.4,365.9 1144,357.2 
		1159.2,350 1163.2,348.1 	"/>
	<polygon class="st5" points="1186.7,494.9 1155.8,516 1147.2,516.1 1158.2,495.2 	"/>
	<polygon class="st5" points="1186.7,628.9 1159.5,650.6 1114.8,651.9 1114.8,631.3 1124.6,631 	"/>
	<polygon class="st5" points="1183.5,904.4 1195,888.4 1268.3,828 1268.3,849.1 1195,910.1 1179.7,931.4 1179.7,909.6 	"/>
	<polygon class="st6" points="1007.1,782.6 1020.8,789.4 1031.1,797.7 1152.6,896.1 1164.3,901.9 1179.7,909.6 1179.7,931.4 
		1152.6,917.9 1020.8,810.7 994.9,797.9 994.9,776.6 	"/>
	<polygon class="st5" points="1175,392.7 1175,413.3 1160.8,430.2 1158.3,434.9 1158.3,434.9 1143,442.7 1160.8,409.4 	"/>
	<polygon class="st5" points="1175,310 1175,330.7 1160.8,347.1 1159.2,350 1144,357.2 1160.8,326.3 	"/>
	<polygon class="st5" points="1171.5,449.2 1124.8,473.2 1140.6,443.9 1143,442.7 1158.3,434.9 1158.3,434.9 1164.5,431.8 
		1186.7,420.5 	"/>
	<polygon class="st5" points="1169.5,390 1140.6,443.9 1124.8,451.9 1154.2,397.4 	"/>
	<polygon class="st7" points="1168.1,896.7 1183.5,904.4 1179.7,909.6 1164.3,901.9 	"/>
	<polygon class="st7" points="1168.1,896.7 1164.3,901.9 1152.6,896.1 1031.1,797.7 1036.7,790.6 	"/>
	<polygon class="st5" points="1153.1,483.9 1168.5,475.8 1168.5,475.8 1167.6,477.5 1158.2,495.2 1147.2,516.1 1142.5,525.2 
		1124.8,537.2 	"/>
	<polygon class="st5" points="1164.5,431.8 1158.3,434.9 1160.8,430.2 	"/>
	<polygon class="st7" points="1160.8,347.1 1163.2,348.1 1159.2,350 	"/>
	<polygon class="st7" points="1189.4,359.2 1151.8,377.2 1138.4,392.8 1125.4,387.2 1171.6,365.2 1186.7,358 	"/>
	<polygon class="st7" points="1190.7,443.1 1151.3,463.5 1138.2,479.1 1124.8,473.2 1171.5,449.2 1186.7,441.4 	"/>
	<polygon class="st7" points="1194.3,519.2 1151.3,549.1 1138.5,564.8 1124.8,558.6 1186.7,515.8 	"/>
	<polygon class="st5" points="1142.5,525.2 1124.8,558.6 1124.8,537.2 	"/>
	<polygon class="st7" points="1151.8,398.6 1154.2,397.4 1124.8,451.9 1124.8,473.2 1098.6,461.7 1125.6,411.9 1136.4,416.6 	"/>
	<polygon class="st7" points="1151.3,484.9 1153.1,483.9 1124.8,537.2 1124.8,558.6 1098.6,546.7 1124.8,497.6 1136.4,502.7 	"/>
	<polygon class="st5" points="1140.6,443.9 1124.8,473.2 1124.8,451.9 	"/>
	<polygon class="st5" points="1138.4,392.8 1151.8,377.2 1189.4,359.2 1212.7,348.1 1213.7,346.9 1226.7,331.5 1226.7,352.3 
		1212.7,368.9 1169.5,390 1154.2,397.4 1151.8,398.6 1136.4,416.6 1136.4,395.1 	"/>
	<polygon class="st7" points="1138.4,392.8 1136.4,395.1 1136.4,416.6 1125.6,411.9 1116.3,407.9 1109.9,405.2 1125.4,387.2 	"/>
	<polygon class="st5" points="1138.2,479.1 1151.3,463.5 1190.7,443.1 1212.7,431.7 1214,430.1 1226.7,414.7 1226.7,435.5 
		1212.7,452.6 1168.5,475.8 1153.1,483.9 1151.3,484.9 1136.4,502.7 1136.4,481.2 	"/>
	<polygon class="st6" points="1136.4,567.3 1136.4,588.9 1084.7,565.3 1083.6,564.8 1083.6,546.2 1083.6,543.4 1096.5,549.2 	"/>
	<polygon class="st6" points="1096.9,463.7 1136.4,481.2 1136.4,502.7 1124.8,497.6 1115.7,493.5 1103.6,488.2 1091,482.6 
		1083.6,479.3 1083.6,457.9 	"/>
	<polygon class="st5" points="1125.6,411.9 1098.6,461.7 1096.9,463.7 1083.6,457.9 1098.6,440.4 1116.3,407.9 	"/>
	<polygon class="st5" points="1124.8,497.6 1098.6,546.7 1096.5,549.2 1083.6,543.4 1090.3,535.4 1098.6,525.4 1113,498.6 
		1113.1,498.4 1115.7,493.5 	"/>
	<polygon class="st5" points="1124.2,718.4 1136.4,702.7 1196.3,654.2 1212.7,640.9 1215.3,637.4 1227.2,622 1227.2,642.9 
		1212.7,661.8 1136.4,724.3 1120.9,744.3 1120.9,722.7 	"/>
	<polygon class="st6" points="1120.9,722.7 1120.9,744.3 1094.3,731.6 1078.3,716.6 1070.6,709.4 1057.1,696.8 1049.3,689.6 
		1020.8,662.8 994.9,650.6 994.9,629.3 1007.6,635.3 1020.8,641.5 1030.7,650.8 1094.3,710 1106.6,715.9 	"/>
	<polygon class="st7" points="1104.4,621.7 1124.6,631 1114.8,631.3 1105.5,647.7 1089.4,640.1 	"/>
	<polygon class="st5" points="1114.8,631.3 1114.8,651.9 1098.9,680 1091.2,672.9 1105.5,647.7 	"/>
	<polygon class="st5" points="1113,498.6 1098.6,525.4 1090.3,535.4 1104.8,511.9 	"/>
	<polygon class="st7" points="1109.9,711.7 1124.2,718.4 1120.9,722.7 1106.6,715.9 	"/>
	<polygon class="st7" points="1109.9,711.7 1106.6,715.9 1094.3,710 1030.7,650.8 1036.7,643.5 	"/>
	<polygon class="st7" points="1105.5,647.7 1091.2,672.9 1077.9,660.4 1089.4,640.1 	"/>
	<polygon class="st5" points="1104.4,601.2 1104.4,621.7 1089.4,640.1 1077.9,660.4 1070.1,653.3 1089.4,619.6 	"/>
	<polygon class="st5" points="1103.6,488.2 1089.4,505 1010.9,631.4 1007.6,635.3 994.9,629.3 1010.9,610.2 1089.4,484.5 
		1091,482.6 	"/>
	<polygon class="st7" points="1124.8,473.2 1138.2,479.1 1136.4,481.2 1096.9,463.7 1098.6,461.7 	"/>
	<polygon class="st7" points="1124.8,558.6 1138.5,564.8 1136.4,567.3 1096.5,549.2 1098.6,546.7 	"/>
	<polygon class="st5" points="1083.6,564.8 1084.7,565.3 1045,630 1036.7,622.3 1083.6,546.2 	"/>
	<polygon class="st5" points="1078.3,716.6 1044.9,775.9 1036.7,769.3 1070.6,709.4 	"/>
	<polygon class="st7" points="1057.1,696.8 1070.6,709.4 1036.7,769.3 1036.7,790.6 1010.9,777.9 	"/>
	<polygon class="st5" points="1049.3,689.6 1057.1,696.8 1010.9,777.9 1007.1,782.6 994.9,776.6 1010.9,756.7 	"/>
	<polygon class="st5" points="1045,630 1070.1,653.3 1077.9,660.4 1091.2,672.9 1098.9,680 1109.9,690.2 1109.9,711.7 1036.7,643.5 
		1036.7,622.3 	"/>
	<polygon class="st6" points="1044.9,775.9 1168.1,875.1 1168.1,896.7 1036.7,790.6 1036.7,769.3 	"/>
	<polygon class="st7" points="1010.9,631.4 1036.7,643.5 1030.7,650.8 1020.8,641.5 1007.6,635.3 	"/>
	<polygon class="st7" points="1010.9,777.9 1036.7,790.6 1031.1,797.7 1020.8,789.4 1007.1,782.6 	"/>
	<polygon class="st7" points="1115.7,493.5 1113.1,498.4 1113,498.6 1104.8,511.9 1089.4,505 1103.6,488.2 	"/>
	<polygon class="st7" points="1083.6,543.4 1083.6,546.2 1036.7,622.3 1036.7,643.5 1010.9,631.4 1089.4,505 1104.8,511.9 
		1090.3,535.4 	"/>
	<polyline class="st8" points="1212.7,452.6 1168.5,475.8 1153.1,483.9 1151.3,484.9 	"/>
	<line class="st8" x1="1124.8" y1="537.2" x2="1153.1" y2="483.9"/>
	<line class="st8" x1="1124.8" y1="558.6" x2="1124.8" y2="537.2"/>
	<polyline class="st8" points="1168.5,475.8 1167.9,476.8 1162.4,487.4 1155.8,499.8 1153,505.2 1142.5,525.1 	"/>
	<line class="st8" x1="1154.2" y1="397.4" x2="1124.8" y2="451.9"/>
	<line class="st8" x1="1186.7" y1="358" x2="1186.7" y2="337.1"/>
	<line class="st8" x1="1175" y1="330.7" x2="1213.7" y2="346.9"/>
	<polyline class="st8" points="1140.6,443.9 1150.7,424.9 1169.5,390 	"/>
	<line class="st8" x1="1124.8" y1="451.9" x2="1124.8" y2="473.2"/>
	<line class="st8" x1="1175" y1="310" x2="1226.7" y2="331.5"/>
	<line class="st8" x1="1186.7" y1="441.4" x2="1186.7" y2="420.5"/>
	<polyline class="st8" points="1124.8,473.2 1171.5,449.2 1186.7,441.4 	"/>
	<polyline class="st8" points="1136.4,567.3 1096.5,549.2 1083.6,543.4 	"/>
	<polyline class="st8" points="1083.6,564.8 1083.6,546.2 1083.6,543.4 	"/>
	<polyline class="st8" points="1136.4,588.9 1084.7,565.3 1083.6,564.8 	"/>
	<line class="st8" x1="1160.8" y1="430.2" x2="1175" y2="413.3"/>
	<line class="st8" x1="1175" y1="330.7" x2="1175" y2="310"/>
	<line class="st8" x1="1175" y1="413.3" x2="1175" y2="392.7"/>
	<line class="st8" x1="1175" y1="392.7" x2="1226.7" y2="414.7"/>
	<polyline class="st8" points="1125.4,387.2 1171.6,365.2 1186.7,358 	"/>
	<line class="st8" x1="1175" y1="413.3" x2="1214" y2="430.1"/>
	<polyline class="st8" points="1212.7,368.9 1169.5,390 1154.2,397.4 1151.8,398.6 	"/>
	<polyline class="st8" points="1136.4,481.2 1096.9,463.7 1083.6,457.9 	"/>
	<line class="st8" x1="1104.4" y1="621.7" x2="1104.4" y2="601.2"/>
	<polyline class="st8" points="1136.4,502.7 1124.8,497.6 1115.7,493.5 1103.6,488.2 1091,482.6 1083.6,479.3 	"/>
	<line class="st8" x1="1226.7" y1="352.3" x2="1212.7" y2="368.9"/>
	<line class="st8" x1="1226.7" y1="331.5" x2="1226.7" y2="352.3"/>
	<polyline class="st8" points="1212.7,348.1 1213.7,346.9 1226.7,331.5 	"/>
	<polyline class="st8" points="1151.8,377.2 1189.4,359.2 1212.7,348.1 	"/>
	<polyline class="st8" points="1136.4,395.1 1138.4,392.8 1151.8,377.2 	"/>
	<line class="st8" x1="1136.4" y1="416.6" x2="1136.4" y2="395.1"/>
	<line class="st8" x1="1151.8" y1="398.6" x2="1136.4" y2="416.6"/>
	<line class="st8" x1="1136.4" y1="588.9" x2="1151.3" y2="570.5"/>
	<line class="st8" x1="1136.4" y1="567.3" x2="1136.4" y2="588.9"/>
	<polyline class="st8" points="1151.3,549.1 1138.5,564.8 1136.4,567.3 	"/>
	<polyline class="st8" points="1212.7,506.4 1194.3,519.2 1151.3,549.1 	"/>
	<polyline class="st8" points="1227.2,488.4 1214.8,503.7 1212.7,506.4 	"/>
	<line class="st8" x1="1212.7" y1="527.3" x2="1227.2" y2="509.1"/>
	<line class="st8" x1="1226.7" y1="414.7" x2="1226.7" y2="435.5"/>
	<polyline class="st8" points="1212.7,431.7 1214,430.1 1226.7,414.7 	"/>
	<polyline class="st8" points="1151.3,463.5 1190.7,443.1 1212.7,431.7 	"/>
	<polyline class="st8" points="1136.4,481.2 1138.2,479.1 1151.3,463.5 	"/>
	<line class="st8" x1="1136.4" y1="502.7" x2="1136.4" y2="481.2"/>
	<line class="st8" x1="1151.3" y1="484.9" x2="1136.4" y2="502.7"/>
	<line class="st8" x1="1226.7" y1="435.5" x2="1212.7" y2="452.6"/>
	<line class="st8" x1="1227.2" y1="622" x2="1227.2" y2="642.9"/>
	<polyline class="st8" points="1212.7,640.9 1215.3,637.4 1227.2,622 	"/>
	<polyline class="st8" points="1136.4,702.7 1196.3,654.2 1212.7,640.9 	"/>
	<polyline class="st8" points="1120.9,722.7 1124.2,718.4 1136.4,702.7 	"/>
	<line class="st8" x1="1268.3" y1="828" x2="1268.3" y2="849.1"/>
	<line class="st8" x1="1195" y1="888.4" x2="1268.3" y2="828"/>
	<polyline class="st8" points="1179.7,909.6 1183.5,904.4 1195,888.4 	"/>
	<line class="st8" x1="994.9" y1="797.9" x2="1020.8" y2="810.7"/>
	<polyline class="st8" points="1020.8,789.4 1007.1,782.6 994.9,776.6 	"/>
	<polyline class="st8" points="1152.6,896.1 1031.1,797.7 1020.8,789.4 	"/>
	<polyline class="st8" points="1179.7,909.6 1164.3,901.9 1152.6,896.1 	"/>
	<line class="st8" x1="1179.7" y1="931.4" x2="1179.7" y2="909.6"/>
	<line class="st8" x1="1152.6" y1="917.9" x2="1179.7" y2="931.4"/>
	<polyline class="st8" points="1136.4,416.6 1125.6,411.9 1116.3,407.9 1109.9,405.2 	"/>
	<line class="st8" x1="1125.4" y1="387.2" x2="1109.9" y2="405.2"/>
	<line class="st8" x1="1089.4" y1="640.1" x2="1104.4" y2="621.7"/>
	<line class="st8" x1="1104.4" y1="601.2" x2="1089.4" y2="619.6"/>
	<line class="st8" x1="1089.4" y1="619.6" x2="1070.1" y2="653.3"/>
	<line class="st8" x1="1147.2" y1="516.1" x2="1155.8" y2="516"/>
	<polyline class="st8" points="1186.7,515.8 1186.7,497.9 1186.7,494.9 	"/>
	<polyline class="st8" points="1186.7,494.9 1158.2,495.2 1158.2,495.2 	"/>
	<line class="st8" x1="1186.7" y1="515.8" x2="1124.8" y2="558.6"/>
	<polyline class="st8" points="1124.8,537.2 1142.5,525.2 1155.8,516 1186.7,494.9 	"/>
	<line class="st8" x1="1201.3" y1="497.8" x2="1186.7" y2="497.9"/>
	<line class="st8" x1="1151.3" y1="570.5" x2="1212.7" y2="527.3"/>
	<line class="st8" x1="1096.5" y1="549.2" x2="1098.6" y2="546.7"/>
	<line class="st8" x1="1049.3" y1="689.6" x2="1010.9" y2="756.7"/>
	<line class="st8" x1="1201.3" y1="497.8" x2="1214.8" y2="503.7"/>
	<line class="st8" x1="1010.9" y1="756.7" x2="994.9" y2="776.6"/>
	<line class="st8" x1="994.9" y1="776.6" x2="994.9" y2="797.9"/>
	<line class="st8" x1="1045" y1="630" x2="1084.7" y2="565.3"/>
	<polyline class="st8" points="1113,498.6 1104.8,511.9 1090.3,535.4 	"/>
	<line class="st8" x1="1083.6" y1="546.2" x2="1036.7" y2="622.3"/>
	<polyline class="st8" points="1007.1,782.7 1007.1,782.6 1010.9,777.9 	"/>
	<line class="st8" x1="1089.4" y1="640.1" x2="1077.9" y2="660.4"/>
	<line class="st8" x1="1036.7" y1="622.3" x2="1036.7" y2="643.5"/>
	<line class="st8" x1="1057.1" y1="696.8" x2="1010.9" y2="777.9"/>
	<line class="st8" x1="1120.9" y1="744.3" x2="1094.3" y2="731.6"/>
	<polyline class="st8" points="1094.3,731.6 1078.3,716.6 1070.6,709.4 1057.1,696.8 1049.3,689.6 1020.8,662.8 	"/>
	<line class="st8" x1="994.9" y1="650.6" x2="1020.8" y2="662.8"/>
	<line class="st8" x1="994.9" y1="650.6" x2="994.9" y2="629.3"/>
	<polyline class="st8" points="994.9,629.3 1007.6,635.3 1020.8,641.5 	"/>
	<polyline class="st8" points="1020.8,641.5 1030.7,650.8 1094.3,710 	"/>
	<line class="st8" x1="1089.4" y1="505" x2="1103.6" y2="488.2"/>
	<polyline class="st8" points="1094.3,710 1106.6,715.9 1120.9,722.7 	"/>
	<line class="st8" x1="1120.9" y1="744.3" x2="1120.9" y2="722.7"/>
	<line class="st8" x1="1109.9" y1="711.7" x2="1186.7" y2="649.8"/>
	<polyline class="st8" points="1186.7,649.8 1186.7,631.5 1186.7,628.9 	"/>
	<polyline class="st8" points="1186.7,628.9 1159.5,650.6 1109.9,690.2 	"/>
	<line class="st8" x1="1109.9" y1="711.7" x2="1109.9" y2="690.2"/>
	<line class="st8" x1="1114.8" y1="651.9" x2="1159.5" y2="650.6"/>
	<polyline class="st8" points="1186.7,628.9 1124.6,631 1114.8,631.3 	"/>
	<line class="st8" x1="1114.8" y1="651.9" x2="1114.8" y2="631.3"/>
	<line class="st8" x1="1201.3" y1="631" x2="1186.7" y2="631.5"/>
	<line class="st8" x1="1212.7" y1="661.8" x2="1136.4" y2="724.3"/>
	<line class="st8" x1="1201.3" y1="631" x2="1215.3" y2="637.4"/>
	<line class="st8" x1="1227.2" y1="642.9" x2="1212.7" y2="661.8"/>
	<line class="st8" x1="1044.9" y1="775.9" x2="1078.3" y2="716.6"/>
	<line class="st8" x1="1098.9" y1="680" x2="1114.8" y2="651.9"/>
	<polyline class="st8" points="1114.8,631.3 1105.5,647.7 1091.2,672.9 	"/>
	<line class="st8" x1="1070.6" y1="709.4" x2="1036.7" y2="769.3"/>
	<line class="st8" x1="1036.7" y1="790.6" x2="1036.7" y2="769.3"/>
	<line class="st8" x1="1168.1" y1="896.7" x2="1036.7" y2="790.6"/>
	<polyline class="st8" points="1036.7,769.3 1044.9,775.9 1044.9,775.9 1168.1,875.1 	"/>
	<line class="st8" x1="1168.1" y1="875.1" x2="1168.1" y2="896.7"/>
	<line class="st8" x1="1168.1" y1="896.7" x2="1241.8" y2="836.3"/>
	<line class="st8" x1="1241.8" y1="836.3" x2="1241.8" y2="815.3"/>
	<line class="st8" x1="1241.8" y1="815.3" x2="1168.1" y2="875.1"/>
	<line class="st8" x1="1020.8" y1="810.7" x2="1152.6" y2="917.9"/>
	<line class="st8" x1="1268.3" y1="849.1" x2="1195" y2="910.1"/>
	<line class="st8" x1="1195" y1="910.1" x2="1179.7" y2="931.4"/>
	<line class="st8" x1="1036.7" y1="643.5" x2="1109.9" y2="711.7"/>
	<polyline class="st8" points="1109.9,690.2 1098.9,680 1091.2,672.9 1077.9,660.4 1070.1,653.3 1045,630 1036.7,622.3 	"/>
	<line class="st8" x1="1136.4" y1="724.3" x2="1120.9" y2="744.3"/>
	<line class="st8" x1="1098.6" y1="546.7" x2="1124.8" y2="497.6"/>
	<line class="st8" x1="1158.3" y1="434.9" x2="1160.8" y2="430.2"/>
	<line class="st8" x1="1175" y1="392.7" x2="1160.8" y2="409.4"/>
	<line class="st8" x1="1160.8" y1="409.4" x2="1143" y2="442.7"/>
	<polyline class="st8" points="1115.7,493.5 1113.1,498.4 1113,498.6 1098.6,525.4 	"/>
	<polyline class="st8" points="1098.6,525.4 1090.3,535.4 1083.6,543.4 	"/>
	<line class="st8" x1="1160.8" y1="347.1" x2="1175" y2="330.7"/>
	<line class="st8" x1="1160.8" y1="347.1" x2="1159.2" y2="350"/>
	<line class="st8" x1="1125.6" y1="411.9" x2="1098.6" y2="461.7"/>
	<polyline class="st8" points="1098.6,461.7 1096.9,463.7 1096.8,463.7 	"/>
	<line class="st8" x1="1083.6" y1="457.9" x2="1098.6" y2="440.4"/>
	<line class="st8" x1="1098.6" y1="440.4" x2="1116.3" y2="407.9"/>
	<line class="st8" x1="1144" y1="357.2" x2="1160.8" y2="326.3"/>
	<line class="st8" x1="1160.8" y1="326.3" x2="1175" y2="310"/>
	<polyline class="st8" points="1186.7,337.1 1163.2,348.1 1159.2,350 1144,357.2 1125.4,365.9 	"/>
	<line class="st8" x1="1125.4" y1="365.9" x2="1109.9" y2="383.7"/>
	<line class="st8" x1="1109.9" y1="383.7" x2="1109.9" y2="405.2"/>
	<line class="st8" x1="1167.6" y1="477.5" x2="1201.3" y2="477"/>
	<line class="st8" x1="1201.3" y1="477" x2="1227.2" y2="488.4"/>
	<line class="st8" x1="1227.2" y1="509.1" x2="1227.2" y2="488.4"/>
	<line class="st8" x1="1089.4" y1="505" x2="1010.9" y2="631.4"/>
	<line class="st8" x1="1010.9" y1="631.4" x2="1007.6" y2="635.3"/>
	<line class="st8" x1="994.9" y1="629.3" x2="1010.9" y2="610.2"/>
	<line class="st8" x1="1010.9" y1="610.2" x2="1089.4" y2="484.5"/>
	<polyline class="st8" points="1089.4,484.5 1091,482.6 1091,482.6 	"/>
	<line class="st8" x1="1104.4" y1="621.7" x2="1124.6" y2="631"/>
	<line class="st8" x1="1104.4" y1="601.2" x2="1129.6" y2="612.8"/>
	<line class="st8" x1="1129.6" y1="612.8" x2="1201.3" y2="610.3"/>
	<line class="st8" x1="1201.3" y1="610.3" x2="1227.2" y2="622"/>
	<polyline class="st8" points="1186.7,420.5 1164.5,431.8 1158.3,434.9 1158.3,434.9 1143,442.7 1140.6,443.9 1124.8,451.9 	"/>
	<line class="st8" x1="1083.6" y1="479.3" x2="1083.6" y2="457.9"/>
	<polygon class="st7" points="1242.6,836 1168.9,896.4 1184.3,904.1 1195.7,887.8 1255.1,839 	"/>
</g>
<g id="Stair_Line_thin">
	<line class="st3" x1="1186.7" y1="358" x2="1189.4" y2="359.2"/>
	<line class="st3" x1="1163.2" y1="348.1" x2="1160.8" y2="347.1"/>
	<line class="st3" x1="1138.4" y1="392.8" x2="1125.4" y2="387.2"/>
	<line class="st3" x1="1160.8" y1="430.2" x2="1164.5" y2="431.8"/>
	<line class="st3" x1="1186.7" y1="441.4" x2="1190.7" y2="443.1"/>
	<line class="st3" x1="1098.6" y1="461.7" x2="1124.8" y2="473.2"/>
	<line class="st3" x1="1138.2" y1="479.1" x2="1124.8" y2="473.2"/>
	<line class="st3" x1="1186.7" y1="515.8" x2="1201.3" y2="497.8"/>
	<line class="st3" x1="1194.3" y1="519.2" x2="1186.7" y2="515.8"/>
	<line class="st3" x1="1104.8" y1="511.9" x2="1089.4" y2="505"/>
	<line class="st3" x1="1098.6" y1="546.7" x2="1124.8" y2="558.6"/>
	<line class="st3" x1="1124.8" y1="558.6" x2="1138.5" y2="564.8"/>
	<line class="st3" x1="1089.4" y1="640.1" x2="1105.5" y2="647.7"/>
	<line class="st3" x1="1010.9" y1="631.4" x2="1036.7" y2="643.5"/>
	<line class="st3" x1="1030.7" y1="650.8" x2="1036.7" y2="643.5"/>
	<line class="st3" x1="1186.7" y1="649.8" x2="1201.3" y2="631"/>
	<line class="st3" x1="1196.3" y1="654.2" x2="1186.7" y2="649.8"/>
	<line class="st3" x1="1109.9" y1="711.7" x2="1106.6" y2="715.9"/>
	<line class="st3" x1="1124.2" y1="718.4" x2="1109.9" y2="711.7"/>
	<line class="st3" x1="1036.7" y1="790.6" x2="1010.9" y2="777.9"/>
	<line class="st3" x1="1036.7" y1="790.6" x2="1031.1" y2="797.7"/>
	<line class="st3" x1="1183.5" y1="904.4" x2="1168.1" y2="896.7"/>
	<line class="st3" x1="1168.1" y1="896.7" x2="1164.3" y2="901.9"/>
</g>
<g id="Make2D::hidden::lines::Stair_Atruim">
	<line class="st9" x1="1124.5" y1="631" x2="1129.6" y2="633.3"/>
	<line class="st9" x1="1104.4" y1="487.3" x2="1104.4" y2="466.9"/>
	<line class="st9" x1="1091" y1="482.6" x2="1104.4" y2="466.9"/>
	<line class="st9" x1="1007.6" y1="635.3" x2="994.9" y2="650.6"/>
	<line class="st9" x1="1129.6" y1="478" x2="1167.6" y2="477.5"/>
	<line class="st9" x1="1104.4" y1="466.9" x2="1129.6" y2="478"/>
	<line class="st9" x1="1104.4" y1="487.3" x2="1129.6" y2="498.5"/>
	<line class="st9" x1="1116.3" y1="407.9" x2="1144" y2="357.2"/>
	<line class="st9" x1="1096.8" y1="463.7" x2="1083.6" y2="479.3"/>
	<line class="st9" x1="1159.2" y1="350" x2="1125.6" y2="411.9"/>
	<line class="st9" x1="1143" y1="442.7" x2="1115.7" y2="493.5"/>
	<line class="st9" x1="1124.8" y1="497.6" x2="1158.3" y2="434.9"/>
	<line class="st9" x1="1106.6" y1="715.9" x2="1094.3" y2="731.6"/>
	<line class="st9" x1="1195" y1="910.1" x2="1183.5" y2="904.4"/>
	<line class="st9" x1="1241.8" y1="836.3" x2="1268.2" y2="849.1"/>
	<line class="st9" x1="1164.3" y1="901.9" x2="1152.6" y2="917.9"/>
	<line class="st9" x1="1031" y1="797.7" x2="1020.8" y2="810.7"/>
	<line class="st9" x1="1105.5" y1="647.6" x2="1114.7" y2="651.9"/>
	<line class="st9" x1="1091.2" y1="672.9" x2="1070.6" y2="709.4"/>
	<line class="st9" x1="1077.8" y1="660.4" x2="1057.1" y2="696.8"/>
	<line class="st9" x1="1078.3" y1="716.6" x2="1098.9" y2="680"/>
	<line class="st9" x1="994.9" y1="797.9" x2="1007.1" y2="782.6"/>
	<line class="st9" x1="1036.7" y1="790.6" x2="1044.9" y2="775.9"/>
	<line class="st9" x1="1215.3" y1="637.4" x2="1227.2" y2="642.9"/>
	<line class="st9" x1="1212.7" y1="661.8" x2="1196.3" y2="654.2"/>
	<line class="st9" x1="1136.4" y1="724.3" x2="1124.2" y2="718.4"/>
	<line class="st9" x1="1070.1" y1="653.3" x2="1049.3" y2="689.6"/>
	<line class="st9" x1="1151.3" y1="484.9" x2="1138.2" y2="479.1"/>
	<line class="st9" x1="1114.7" y1="651.9" x2="1129.6" y2="633.3"/>
	<line class="st9" x1="1186.6" y1="631.4" x2="1129.6" y2="633.3"/>
	<line class="st9" x1="1159.5" y1="650.6" x2="1186.6" y2="649.8"/>
	<line class="st9" x1="1214" y1="430.1" x2="1226.7" y2="435.5"/>
	<line class="st9" x1="1190.6" y1="443.1" x2="1212.7" y2="452.6"/>
	<line class="st9" x1="1164.5" y1="431.8" x2="1186.6" y2="441.4"/>
	<line class="st9" x1="1020.8" y1="662.8" x2="1030.7" y2="650.8"/>
	<line class="st9" x1="1169.5" y1="390" x2="1186.6" y2="358"/>
	<line class="st9" x1="1171.5" y1="365.2" x2="1154.2" y2="397.4"/>
	<line class="st9" x1="1103.6" y1="488.2" x2="1104.4" y2="487.3"/>
	<line class="st9" x1="1186.6" y1="441.4" x2="1168.5" y2="475.8"/>
	<line class="st9" x1="1153.1" y1="483.9" x2="1171.5" y2="449.2"/>
	<line class="st9" x1="1186.6" y1="358" x2="1163.2" y2="348.1"/>
	<line class="st9" x1="1213.7" y1="346.9" x2="1226.7" y2="352.3"/>
	<line class="st9" x1="1189.4" y1="359.2" x2="1212.7" y2="368.9"/>
	<line class="st9" x1="1151.8" y1="398.6" x2="1138.4" y2="392.8"/>
	<line class="st9" x1="1114.7" y1="516.4" x2="1147.2" y2="516.1"/>
	<line class="st9" x1="1155.8" y1="516" x2="1186.6" y2="515.8"/>
	<line class="st9" x1="1158.2" y1="495.2" x2="1114.7" y2="495.7"/>
	<line class="st9" x1="1114.7" y1="516.4" x2="1114.7" y2="495.7"/>
	<line class="st9" x1="1186.6" y1="497.9" x2="1129.6" y2="498.5"/>
	<line class="st9" x1="1129.6" y1="498.5" x2="1114.7" y2="516.4"/>
	<line class="st9" x1="1212.7" y1="527.3" x2="1194.3" y2="519.2"/>
	<line class="st9" x1="1138.5" y1="564.8" x2="1151.3" y2="570.5"/>
	<line class="st9" x1="1083.6" y1="564.8" x2="1096.5" y2="549.2"/>
	<line class="st9" x1="1214.8" y1="503.7" x2="1227.2" y2="509.1"/>
	<line class="st9" x1="1036.7" y1="643.5" x2="1045" y2="630"/>
	<line class="st9" x1="1084.7" y1="565.3" x2="1114.7" y2="516.4"/>
	<line class="st9" x1="1114.7" y1="495.7" x2="1113.1" y2="498.4"/>
	<line class="st9" x1="1114.7" y1="516.4" x2="1104.8" y2="511.9"/>
	<line class="st9" x1="1090.3" y1="535.4" x2="1083.6" y2="546.2"/>
</g>
<g id="Make2D::visible::lines::Solid">
	<line class="st8" x1="879.1" y1="562.8" x2="803.6" y2="527.4"/>
	<line class="st8" x1="686.6" y1="190.6" x2="643.1" y2="172"/>
	<line class="st8" x1="769.9" y1="25.1" x2="769.9" y2="68.2"/>
	<line class="st8" x1="879.1" y1="68.5" x2="769.9" y2="25.1"/>
	<line class="st8" x1="803.6" y1="578.5" x2="686.6" y2="706.7"/>
	<line class="st8" x1="803.6" y1="81.8" x2="686.6" y2="190.6"/>
	<line class="st8" x1="643.1" y1="172" x2="643.1" y2="684.8"/>
	<line class="st8" x1="797.7" y1="0" x2="906.3" y2="42.7"/>
	<line class="st8" x1="879.1" y1="68.5" x2="879.1" y2="562.8"/>
	<line class="st8" x1="803.6" y1="81.8" x2="803.6" y2="578.5"/>
	<line class="st8" x1="761" y1="64.6" x2="803.6" y2="81.8"/>
	<line class="st8" x1="686.6" y1="706.7" x2="643.1" y2="684.8"/>
	<line class="st8" x1="769.9" y1="25.1" x2="797.7" y2="0"/>
	<line class="st8" x1="643.1" y1="172" x2="761" y2="64.6"/>
	<line class="st8" x1="686.6" y1="190.6" x2="686.6" y2="706.7"/>
	<line class="st8" x1="906.3" y1="532.3" x2="879.1" y2="562.8"/>
	<line class="st8" x1="906.3" y1="42.7" x2="879.1" y2="68.5"/>
	<line class="st8" x1="906.3" y1="42.7" x2="906.3" y2="532.3"/>
</g>
<g id="Make2D::hidden::lines::Solid">
	<line class="st3" x1="803.6" y1="527.4" x2="769.9" y2="511.5"/>
	<line class="st3" x1="769.9" y1="511.5" x2="797.7" y2="482"/>
	<line class="st3" x1="761" y1="558.2" x2="803.6" y2="578.5"/>
	<line class="st3" x1="769.9" y1="68.2" x2="769.9" y2="511.5"/>
	<line class="st3" x1="761" y1="64.6" x2="761" y2="558.2"/>
	<line class="st3" x1="643.1" y1="684.8" x2="761" y2="558.2"/>
	<line class="st3" x1="797.7" y1="0" x2="797.7" y2="482"/>
	<line class="st3" x1="797.7" y1="482" x2="906.3" y2="532.3"/>
</g>
<g id="Make2D::visible::lines::BOX">
	<polygon class="st1" points="1235.5,322.2 1235.5,720.5 1129.9,861.9 1129.9,447.1 	"/>
	<polygon class="st0" points="1235.5,322.2 1129.9,447.1 1004.3,392.2 1016.6,378.5 1113,271.4 	"/>
	<polygon class="st2" points="1129.9,447.1 1129.9,861.9 1004.3,799.7 1004.3,630.3 1004.3,392.2 	"/>
	<polygon class="st1" points="1016.6,204.1 1016.6,378.5 1004.3,392.2 1004.3,630.3 904.5,749.4 904.5,321.3 	"/>
	<polygon class="st0" points="1016.6,204.1 904.5,321.3 685.2,226.3 802.1,116.2 	"/>
	<polygon class="st2" points="904.5,321.3 904.5,749.4 685.2,640.9 685.2,226.3 	"/>
	<line class="st10" x1="904.5" y1="749.4" x2="685.2" y2="640.9"/>
	<line class="st10" x1="1004.3" y1="392.2" x2="1129.9" y2="447.1"/>
	<line class="st10" x1="1129.9" y1="861.9" x2="1129.9" y2="447.1"/>
	<line class="st10" x1="1129.9" y1="447.1" x2="1235.5" y2="322.2"/>
	<line class="st10" x1="1235.5" y1="720.5" x2="1235.5" y2="322.2"/>
	<line class="st10" x1="904.5" y1="321.3" x2="685.2" y2="226.3"/>
	<line class="st10" x1="1129.9" y1="861.9" x2="1235.5" y2="720.5"/>
	<line class="st10" x1="1004.3" y1="630.3" x2="904.5" y2="749.4"/>
	<line class="st10" x1="1004.3" y1="799.7" x2="1129.9" y2="861.9"/>
	<line class="st10" x1="1016.6" y1="204.1" x2="904.5" y2="321.3"/>
	<polyline class="st10" points="1113,271.4 1016.6,378.5 1004.3,392.2 	"/>
	<line class="st10" x1="685.2" y1="226.3" x2="685.2" y2="640.9"/>
	<line class="st10" x1="802.1" y1="116.2" x2="1016.6" y2="204.1"/>
	<line class="st10" x1="685.2" y1="226.3" x2="802.1" y2="116.2"/>
	<line class="st10" x1="904.5" y1="321.3" x2="904.5" y2="749.4"/>
	<line class="st10" x1="1016.6" y1="204.1" x2="1016.6" y2="378.5"/>
	<line class="st10" x1="1235.5" y1="322.2" x2="1113" y2="271.4"/>
	<polyline class="st10" points="1004.3,799.7 1004.3,630.3 1004.3,392.2 	"/>
</g>
<g id="Make2D::hidden::lines::BOX">
	<line class="st11" x1="1016.6" y1="378.5" x2="1016.6" y2="386.9"/>
	<line class="st12" x1="1016.6" y1="395.8" x2="1016.6" y2="602.7"/>
	<line class="st11" x1="1016.6" y1="607.1" x2="1016.6" y2="615.6"/>
	<line class="st11" x1="802.1" y1="515.2" x2="809.7" y2="518.8"/>
	<line class="st13" x1="817.7" y1="522.5" x2="1004.9" y2="610.1"/>
	<line class="st11" x1="1008.9" y1="612" x2="1016.6" y2="615.6"/>
	<line class="st11" x1="685.1" y1="640.9" x2="690.9" y2="634.7"/>
	<line class="st14" x1="696.4" y1="628.8" x2="793.5" y2="524.4"/>
	<line class="st11" x1="796.3" y1="521.4" x2="802.1" y2="515.2"/>
	<line class="st11" x1="1016.6" y1="615.6" x2="1011.1" y2="622"/>
	<line class="st11" x1="1009.7" y1="623.7" x2="1004.3" y2="630.3"/>
	<line class="st11" x1="1235.5" y1="720.5" x2="1227.8" y2="716.8"/>
	<line class="st15" x1="1219.6" y1="713" x2="1124.7" y2="668.5"/>
	<line class="st11" x1="1120.6" y1="666.6" x2="1113" y2="663"/>
	<line class="st11" x1="1113" y1="663" x2="1113" y2="654.6"/>
	<line class="st16" x1="1113" y1="646.3" x2="1113" y2="452.3"/>
	<line class="st11" x1="1113" y1="448.2" x2="1113" y2="439.7"/>
	<line class="st11" x1="1113" y1="663" x2="1107.7" y2="669.6"/>
	<line class="st17" x1="1102.5" y1="676.1" x2="1012.1" y2="789.8"/>
	<line class="st11" x1="1009.5" y1="793.1" x2="1004.3" y2="799.7"/>
	<line class="st11" x1="802.1" y1="116.2" x2="802.1" y2="124.7"/>
	<line class="st18" x1="802.1" y1="133" x2="802.1" y2="502.6"/>
	<line class="st11" x1="802.1" y1="506.7" x2="802.1" y2="515.2"/>
	<line class="st11" x1="1113" y1="439.7" x2="1113" y2="431.2"/>
	<line class="st19" x1="1113" y1="423.3" x2="1113" y2="283.9"/>
	<line class="st11" x1="1113" y1="279.9" x2="1113" y2="271.4"/>
</g>
<g id="Slab_new">
	<line class="st20" x1="1226.4" y1="797.3" x2="1226.1" y2="797.1"/>
	<line class="st20" x1="1327.7" y1="293.7" x2="1145.6" y2="515"/>
	<line class="st20" x1="1145.6" y1="496.8" x2="1145.6" y2="515"/>
	<line class="st20" x1="1145.6" y1="515" x2="569.5" y2="258.4"/>
	<line class="st20" x1="569.5" y1="241.7" x2="569.5" y2="258.4"/>
	<line class="st20" x1="1327.7" y1="293.7" x2="1327.7" y2="276.7"/>
	<line class="st20" x1="1157.3" y1="288.2" x2="1066.1" y2="391.7"/>
	<line class="st20" x1="1157.3" y1="261.9" x2="1157.3" y2="288.2"/>
	<line class="st20" x1="1220.7" y1="314.5" x2="1157.3" y2="288.2"/>
	<line class="st20" x1="1183.8" y1="643" x2="1197" y2="649.1"/>
	<line class="st20" x1="1045.7" y1="693.8" x2="1074.3" y2="658.5"/>
	<line class="st20" x1="1145.6" y1="906.9" x2="569.5" y2="619"/>
	<line class="st20" x1="569.5" y1="608.1" x2="569.5" y2="619"/>
	<line class="st20" x1="1327.7" y1="658.6" x2="1145.6" y2="906.9"/>
	<line class="st20" x1="1145.6" y1="895.1" x2="1145.6" y2="906.9"/>
	<line class="st20" x1="1086.3" y1="664.1" x2="1057.9" y2="699.6"/>
	<line class="st20" x1="1185.2" y1="664.3" x2="1172" y2="658.1"/>
	<line class="st20" x1="1327.7" y1="658.6" x2="1327.7" y2="647.5"/>
	<line class="st20" x1="1145.6" y1="692" x2="569.5" y2="421.3"/>
	<line class="st20" x1="569.5" y1="410.3" x2="569.5" y2="421.3"/>
	<line class="st20" x1="1327.7" y1="458.5" x2="1145.6" y2="692"/>
	<line class="st20" x1="1145.6" y1="680.1" x2="1145.6" y2="692"/>
	<line class="st20" x1="1115.9" y1="501.8" x2="1061.5" y2="566.9"/>
	<line class="st20" x1="1225.2" y1="481.8" x2="1186.7" y2="465"/>
	<line class="st20" x1="1166" y1="378.6" x2="1101.7" y2="351.3"/>
	<line class="st20" x1="1327.7" y1="458.5" x2="1327.7" y2="447.4"/>
	<line class="st20" x1="1113.1" y1="540.6" x2="1113.1" y2="561"/>
	<line class="st20" x1="1113.1" y1="540.6" x2="1160.5" y2="562"/>
	<line class="st20" x1="1083.2" y1="576.8" x2="1113.1" y2="540.6"/>
	<line class="st20" x1="1145.6" y1="831" x2="569.5" y2="549.2"/>
	<line class="st20" x1="569.5" y1="538.3" x2="569.5" y2="549.2"/>
	<line class="st20" x1="1327.7" y1="587.9" x2="1145.6" y2="831"/>
	<line class="st20" x1="1145.6" y1="819.2" x2="1145.6" y2="831"/>
	<line class="st20" x1="1044.5" y1="644.5" x2="1015.8" y2="679.5"/>
	<line class="st20" x1="1113.1" y1="561" x2="1095.5" y2="582.5"/>
	<line class="st20" x1="1148.4" y1="577" x2="1113.1" y2="561"/>
	<line class="st20" x1="1225.7" y1="612.1" x2="1212.5" y2="606.1"/>
	<line class="st20" x1="1195.6" y1="518.4" x2="1156.9" y2="501.3"/>
	<line class="st20" x1="1327.7" y1="587.9" x2="1327.7" y2="576.9"/>
</g>
<g id="Slab_outline">
	<line class="st21" x1="1145.6" y1="496.8" x2="569.5" y2="241.7"/>
	<line class="st21" x1="569.5" y1="241.7" x2="769.9" y2="58.9"/>
	<line class="st21" x1="1327.7" y1="276.7" x2="906.3" y2="107.3"/>
	<line class="st21" x1="1327.7" y1="276.7" x2="1145.6" y2="496.8"/>
	<line class="st21" x1="1130.9" y1="419.8" x2="1048.6" y2="384.1"/>
	<line class="st21" x1="1048.6" y1="384.1" x2="1157.3" y2="261.9"/>
	<line class="st21" x1="1157.3" y1="261.9" x2="1237.5" y2="294.8"/>
	<line class="st21" x1="1237.5" y1="294.8" x2="1130.9" y2="419.8"/>
	<line class="st21" x1="1199.2" y1="449.8" x2="1237.5" y2="466.5"/>
	<line class="st21" x1="1048.6" y1="561" x2="1103.1" y2="496.1"/>
	<line class="st21" x1="1130.9" y1="598.7" x2="1048.6" y2="561"/>
	<line class="st21" x1="1237.5" y1="466.5" x2="1130.9" y2="598.7"/>
	<line class="st21" x1="1145.6" y1="680.1" x2="569.5" y2="410.3"/>
	<line class="st21" x1="569.5" y1="410.3" x2="677.3" y2="306.4"/>
	<line class="st21" x1="1327.7" y1="447.4" x2="1145.6" y2="680.1"/>
	<line class="st21" x1="1327.7" y1="447.4" x2="1234" y2="407.6"/>
	<line class="st21" x1="1224.5" y1="590.8" x2="1237.5" y2="596.7"/>
	<line class="st21" x1="1003.3" y1="673.5" x2="1032.1" y2="638.7"/>
	<line class="st21" x1="1130.9" y1="734.4" x2="1003.3" y2="673.5"/>
	<line class="st21" x1="1237.5" y1="596.7" x2="1130.9" y2="734.4"/>
	<line class="st21" x1="1145.6" y1="819.2" x2="569.5" y2="538.3"/>
	<line class="st21" x1="569.5" y1="538.3" x2="648.9" y2="458.6"/>
	<line class="st21" x1="1327.7" y1="576.9" x2="1145.6" y2="819.2"/>
	<line class="st21" x1="1327.7" y1="576.9" x2="1259" y2="546.5"/>
	<line class="st21" x1="1145.6" y1="895.1" x2="569.5" y2="608.1"/>
	<line class="st21" x1="569.5" y1="608.1" x2="608.4" y2="568.2"/>
	<line class="st21" x1="1327.7" y1="647.5" x2="1145.6" y2="895.1"/>
	<line class="st21" x1="1327.7" y1="647.5" x2="1294.4" y2="632.4"/>
	<line class="st21" x1="687.6" y1="732.2" x2="1115" y2="949.2"/>
	<line class="st21" x1="1115" y1="949.2" x2="1226.4" y2="797.3"/>
	<line class="st21" x1="1357.4" y1="741.2" x2="1290" y2="710"/>
	<line class="st21" x1="1149.8" y1="1034.9" x2="1357.4" y2="741.2"/>
	<line class="st21" x1="554.5" y1="726.9" x2="1149.8" y2="1034.9"/>
	<line class="st21" x1="628.6" y1="648.5" x2="554.5" y2="726.9"/>
	<line class="st21" x1="721.3" y1="694.9" x2="687.6" y2="732.2"/>
</g>
<g id="Slab_Desh">
	<line class="st22" x1="906.3" y1="107.3" x2="774.8" y2="54.4"/>
	<line class="st22" x1="769.9" y1="58.9" x2="774.8" y2="54.4"/>
</g>
<g id="Make2D::visible::lines::Elevtor">
	<polygon class="st1" points="898.1,276.7 898.1,326.1 876.9,348.3 876.9,298.5 	"/>
	<polygon class="st0" points="898.1,276.7 876.9,298.5 840.2,282.7 857,265.7 861.6,261.1 	"/>
	<polygon class="st2" points="876.9,298.5 876.9,348.3 840.2,332.2 840.2,325.5 840.2,282.7 	"/>
	<polygon class="st1" points="857,259.1 857,265.7 840.2,282.7 840.2,325.5 835.6,330.2 835.6,280.7 	"/>
	<polygon class="st0" points="857,259.1 835.6,280.7 799.3,265 820.9,243.7 	"/>
	<polygon class="st2" points="835.6,280.7 835.6,330.2 799.3,314.3 799.3,265 	"/>
	<line class="st23" x1="898.1" y1="326.1" x2="898.1" y2="276.7"/>
	<line class="st23" x1="876.9" y1="298.5" x2="898.1" y2="276.7"/>
	<line class="st23" x1="876.9" y1="348.3" x2="876.9" y2="298.5"/>
	<line class="st23" x1="898.1" y1="276.7" x2="861.6" y2="261.1"/>
	<line class="st23" x1="799.3" y1="265" x2="835.6" y2="280.7"/>
	<polyline class="st23" points="840.2,332.2 840.2,325.5 840.2,282.7 	"/>
	<polyline class="st23" points="861.6,261.1 857,265.7 840.2,282.7 	"/>
	<line class="st23" x1="840.2" y1="332.2" x2="876.9" y2="348.3"/>
	<line class="st23" x1="840.2" y1="282.7" x2="876.9" y2="298.5"/>
	<line class="st23" x1="835.6" y1="330.2" x2="840.2" y2="325.5"/>
	<line class="st23" x1="799.3" y1="314.3" x2="835.6" y2="330.2"/>
	<line class="st23" x1="876.9" y1="348.3" x2="898.1" y2="326.1"/>
	<line class="st23" x1="857" y1="265.7" x2="857" y2="259.1"/>
	<line class="st23" x1="835.6" y1="280.7" x2="857" y2="259.1"/>
	<line class="st23" x1="835.6" y1="330.2" x2="835.6" y2="280.7"/>
	<line class="st23" x1="820.9" y1="243.7" x2="799.3" y2="265"/>
	<line class="st23" x1="799.3" y1="314.3" x2="799.3" y2="265"/>
	<line class="st23" x1="857" y1="259.1" x2="820.9" y2="243.7"/>
</g>
<g id="Make2D::hidden::lines::Elevtor">
	<line class="st24" x1="820.9" y1="292.6" x2="820.9" y2="243.7"/>
	<line class="st24" x1="857" y1="308.2" x2="820.9" y2="292.6"/>
	<line class="st24" x1="840.2" y1="325.5" x2="857" y2="308.2"/>
	<line class="st24" x1="861.6" y1="310.2" x2="840.2" y2="332.2"/>
	<line class="st24" x1="861.6" y1="310.2" x2="861.6" y2="261.1"/>
	<line class="st24" x1="898.1" y1="326.1" x2="861.6" y2="310.2"/>
	<line class="st24" x1="857" y1="308.2" x2="857" y2="265.6"/>
	<line class="st24" x1="820.9" y1="292.6" x2="799.4" y2="314.2"/>
	<line class="st24" x1="869.2" y1="278.7" x2="869.2" y2="47.4"/>
	<circle class="st25" cx="869.2" cy="278.6" r="1.1"/>
	<circle class="st25" cx="869.2" cy="47.5" r="1.1"/>
	<line class="st24" x1="828.2" y1="261.1" x2="828.2" y2="31.2"/>
	<circle class="st25" cx="828.2" cy="261" r="1.1"/>
	<circle class="st25" cx="828.2" cy="31.3" r="1.1"/>
</g>
<g id="Make2D::visible::lines::Massing_Facade">
	<line class="st26" x1="531.6" y1="714.9" x2="531.7" y2="714.9"/>
	<polygon class="st27" points="813.1,369.6 813.1,474.3 830.3,482 830.3,586.5 751,549.3 751,446.1 706.5,425.9 706.5,322.8 	"/>
	<polyline class="st27" points="582.6,369.6 582.6,299.8 554.6,325.5 554.6,225.8 531.7,246.1 531.7,346.5 	"/>
	<polyline class="st27" points="663.8,321.2 663.8,129 610.2,176.6 610.2,372 	"/>
	<polyline class="st27" points="715.6,326.8 715.6,272 740.9,248 740.9,60.7 715.7,83.1 715.6,177.8 689.9,201.4 689.9,296.4 
		663.8,321.2 	"/>
	<line class="st26" x1="715.6" y1="476.3" x2="747.2" y2="444.3"/>
	<line class="st26" x1="715.6" y1="430" x2="715.6" y2="476.3"/>
	<polyline class="st27" points="740.9,337.9 740.9,306.3 718.4,328 	"/>
	<polyline class="st27" points="1157.5,1034.2 1177.7,1005.9 1177.7,949.4 1157.5,977.4 1157.5,1034.2 	"/>
	<polygon class="st27" points="1373.6,731.5 1373.6,524.2 1363,538.2 1363,694.1 1341.2,724 1341.2,776.9 	"/>
	<polygon class="st27" points="1243.7,416.8 1200.7,468.6 1200.7,576.7 1226.7,544.4 1226.7,650.9 1296.7,560.7 1296.7,457.2 
		1243.7,523.2 	"/>
	<polyline class="st27" points="765.8,224.5 765.8,348.8 778.1,354.2 778.1,212.9 	"/>
	<line class="st26" x1="778.1" y1="212.9" x2="765.8" y2="224.5"/>
	<line class="st26" x1="668.3" y1="574" x2="661.9" y2="580.6"/>
	<polygon class="st27" points="1364.5,271.4 1342.8,297.5 1342.8,399.7 1319.2,429.1 1319.2,531.8 1373.6,461.7 1373.7,361.3 
		1364.5,372.7 	"/>
	<line class="st26" x1="689.9" y1="551.7" x2="673.5" y2="568.6"/>
	<line class="st26" x1="661.9" y1="571" x2="661.9" y2="580.6"/>
	<polygon class="st27" points="1157.5,808.2 1157.5,903.4 1202.4,842.7 1202.4,749.1 	"/>
	<polygon class="st27" points="1341.3,655.2 1341.3,566.8 1273.8,655.4 1273.8,746.3 1250.4,777.8 1250.4,904 1319.2,807.8 
		1319.2,754.5 1296.7,785.4 1296.7,715.4 	"/>
	<line class="st26" x1="635.3" y1="557.9" x2="635.5" y2="557.7"/>
	<line class="st26" x1="635.3" y1="558.2" x2="635.3" y2="557.9"/>
	<polyline class="st27" points="1157.5,740 1036.8,683.4 1037,575.9 994.6,556.6 994.5,663.6 870.6,605.4 870.6,500.3 955.7,539 
		955.7,432.1 1055.2,475.7 1055.2,584.1 1157.5,630.6 	"/>
	<polygon class="st27" points="1157.5,630.6 1157.5,740 1177.7,713.9 1177.7,605.3 	"/>
	<polyline class="st27" points="1036.9,972.7 911.4,908.7 911.4,782.3 952.7,802.6 952.7,710.2 1036.9,750.5 1036.9,972.7 	"/>
	<polygon class="st27" points="712.1,806.9 712.1,595 830.3,651.6 830.3,742.4 790.4,722.8 790.4,846.9 	"/>
	<polygon class="st27" points="560.6,729.6 560.6,677.5 597.8,696.2 597.8,540.3 635.5,558.3 635.5,767.9 	"/>
	<polygon class="st27" points="531.7,346.5 630.1,391.2 630.1,289.3 662.6,303.5 662.6,405.9 673.5,410.9 673.5,576.5 635.5,558.3 
		635.5,495.1 531.7,446.4 	"/>
	<line class="st26" x1="663.8" y1="321.2" x2="663.8" y2="380.8"/>
	<line class="st26" x1="663.8" y1="380.8" x2="706.5" y2="339.5"/>
	<line class="st26" x1="610.2" y1="372" x2="630.1" y2="353.1"/>
	<line class="st26" x1="662.6" y1="322.3" x2="663.8" y2="321.2"/>
	<line class="st26" x1="689.9" y1="551.7" x2="689.9" y2="438.2"/>
	<line class="st26" x1="689.9" y1="438.2" x2="673.5" y2="454.4"/>
	<line class="st26" x1="610.2" y1="382.1" x2="610.2" y2="372"/>
	<line class="st26" x1="610.2" y1="372" x2="602.9" y2="378.8"/>
	<polygon class="st27" points="1079.6,864.9 1122.9,886.3 1122.9,959.9 1157.3,977.2 1157.3,1034.1 1079.6,994.4 	"/>
</g>
<g id="BOX_Outline">
	<polygon class="st10" points="1235.5,322.2 1235.5,720.5 1129.9,861.9 1129.9,447.1 	"/>
	<polygon class="st10" points="1235.5,322.2 1129.9,447.1 1004.3,392.2 1016.6,378.5 1113,271.4 	"/>
	<polygon class="st10" points="1129.9,447.1 1129.9,861.9 1004.3,799.7 1004.3,630.3 1004.3,392.2 	"/>
	<polygon class="st10" points="1016.6,204.1 1016.6,378.5 1004.3,392.2 1004.3,630.3 904.5,749.4 904.5,321.3 	"/>
	<polygon class="st10" points="1016.6,204.1 904.5,321.3 685.2,226.3 802.1,116.2 	"/>
	<polygon class="st10" points="904.5,321.3 904.5,749.4 685.2,640.9 685.2,226.3 	"/>
	<line class="st28" x1="904.5" y1="749.4" x2="685.2" y2="640.9"/>
	<line class="st28" x1="1004.3" y1="392.2" x2="1129.9" y2="447.1"/>
	<line class="st28" x1="1129.9" y1="861.9" x2="1129.9" y2="447.1"/>
	<line class="st28" x1="1129.9" y1="447.1" x2="1235.5" y2="322.2"/>
	<line class="st28" x1="1235.5" y1="720.5" x2="1235.5" y2="322.2"/>
	<line class="st28" x1="904.5" y1="321.3" x2="685.2" y2="226.3"/>
	<line class="st28" x1="1129.9" y1="861.9" x2="1235.5" y2="720.5"/>
	<line class="st28" x1="1004.3" y1="630.3" x2="904.5" y2="749.4"/>
	<line class="st28" x1="1004.3" y1="799.7" x2="1129.9" y2="861.9"/>
	<line class="st28" x1="1016.6" y1="204.1" x2="904.5" y2="321.3"/>
	<polyline class="st28" points="1113,271.4 1016.6,378.5 1004.3,392.2 	"/>
	<line class="st28" x1="685.2" y1="226.3" x2="685.2" y2="640.9"/>
	<line class="st28" x1="802.1" y1="116.2" x2="1016.6" y2="204.1"/>
	<line class="st28" x1="685.2" y1="226.3" x2="802.1" y2="116.2"/>
	<line class="st28" x1="904.5" y1="321.3" x2="904.5" y2="749.4"/>
	<line class="st28" x1="1016.6" y1="204.1" x2="1016.6" y2="378.5"/>
	<line class="st28" x1="1235.5" y1="322.2" x2="1113" y2="271.4"/>
	<polyline class="st28" points="1004.3,799.7 1004.3,630.3 1004.3,392.2 	"/>
</g>
</svg>
