<svg width="420" height="80" viewBox="0 0 420 80" fill="none" xmlns="http://www.w3.org/2000/svg">
<rect x="64" y="47" width="292" height="5" rx="2.5" fill="#FFE6AA"/>
<rect x="64" y="56.333" width="292" height="5" rx="2.5" fill="#FFE6AA"/>
<rect x="64" y="65.667" width="292" height="5" rx="2.5" fill="#FFF1CD"/>
<rect x="64" y="75" width="292" height="5" rx="2.5" fill="#FFF1CD"/>
<rect x="64.75" y="0.75" width="26.5" height="26.5" rx="7.25" fill="#FFF1CD"/>
<rect x="64.75" y="0.75" width="26.5" height="26.5" rx="7.25" stroke="#FFE6AA" stroke-width="1.5"/>
<path d="M70.0996 19.5H85.8975C86.1507 19.5 86.3814 19.5949 86.5576 19.75H69.4404C69.6166 19.5951 69.8466 19.5 70.0996 19.5Z" fill="#707070" stroke="#707070" stroke-width="1.12489"/>
<path d="M67.875 23.9087V6.15734C67.875 6.15734 68.1161 3.87598 70.8881 3.87598C73.6602 3.87598 73.9013 6.15734 73.9013 6.15734V7.90184" stroke="#707070" stroke-width="2" stroke-linecap="round"/>
<path d="M67.877 11.8311L87.9453 11.8311" stroke="#707070" stroke-width="2" stroke-linecap="round"/>
<path d="M67.875 22.3994C67.875 20.7686 69.4418 20.8938 69.4418 20.8938H86.6768C86.6768 20.8938 88.123 20.8938 88.123 22.3994" stroke="#707070" stroke-width="2" stroke-linecap="round"/>
<path d="M88.123 24.124L88.123 10.7458" stroke="#707070" stroke-width="2" stroke-linecap="round"/>
<path d="M72.1875 8.62083C72.1875 8.62083 72.6396 7.97461 73.9959 7.97461C75.3522 7.97461 75.8043 8.62083 75.8043 8.62083" stroke="#707070" stroke-width="2" stroke-linecap="round"/>
<path d="M72.0703 20.5078L72.0703 12.1916" stroke="#707070" stroke-width="2"/>
<path d="M76.084 20.5078L76.084 12.1916" stroke="#707070" stroke-width="2"/>
<path d="M80.0996 20.5078L80.0996 12.1916" stroke="#707070" stroke-width="2"/>
<path d="M84.1133 20.5078L84.1133 12.1916" stroke="#707070" stroke-width="2"/>
<rect x="152" width="28" height="28" rx="8" fill="#FFD500"/>
<rect x="152.75" y="0.75" width="26.5" height="26.5" rx="7.25" stroke="#FFC93C" stroke-opacity="0.9" stroke-width="1.5"/>
<path d="M171.998 12.6201C171.998 14.4633 171.225 16.2309 169.85 17.5343C168.475 18.8376 166.61 19.5698 164.666 19.5698C162.721 19.5698 160.856 18.8376 159.481 17.5343C158.106 16.2309 157.334 14.4633 157.334 12.6201L171.998 12.6201Z" fill="#505050" stroke="#505050"/>
<path d="M158.053 12.4584C158.053 10.8232 158.61 9.22811 159.647 7.89254C160.666 6.58096 162.099 5.58288 163.755 5.02989C163.806 5.01293 163.861 5.03962 163.879 5.08985L166.754 12.8525" stroke="#505050"/>
<path d="M163.377 21.4894C163.377 22.3238 162.701 23.0002 161.866 23.0002C161.032 23.0002 160.355 22.3238 160.355 21.4894C160.355 20.6549 161.032 19.9785 161.866 19.9785C162.701 19.9785 163.377 20.6549 163.377 21.4894Z" fill="#505050" stroke="#505050"/>
<path d="M176.766 11.4443C176.766 12.4178 175.976 13.2069 175.003 13.2069C174.029 13.2069 173.24 12.4178 173.24 11.4443C173.24 10.4708 174.029 9.68164 175.003 9.68164C175.976 9.68164 176.766 10.4708 176.766 11.4443Z" fill="#505050" stroke="#505050"/>
<path d="M171.697 12.7522C171.755 12.663 171.855 12.4894 172.414 12.2266C172.713 12.086 172.987 12.0164 173.274 11.9639" stroke="#505050"/>
<path d="M168.918 21.4894C168.918 22.3238 168.242 23.0002 167.407 23.0002C166.573 23.0002 165.896 22.3238 165.896 21.4894C165.896 20.6549 166.573 19.9785 167.407 19.9785C168.242 19.9785 168.918 20.6549 168.918 21.4894Z" fill="#505050" stroke="#505050"/>
<rect x="240.75" y="0.75" width="26.5" height="26.5" rx="7.25" fill="#FFF1CD"/>
<rect x="240.75" y="0.75" width="26.5" height="26.5" rx="7.25" stroke="#FFE6AA" stroke-width="1.5"/>
<path fill-rule="evenodd" clip-rule="evenodd" d="M254 2.57129C255.739 2.57129 257.149 3.99799 257.149 5.75765C257.149 7.51731 255.739 8.94401 254 8.94401C252.261 8.94401 250.851 7.51731 250.851 5.75765C250.851 3.99799 252.261 2.57129 254 2.57129ZM250.662 17.0485L253.164 19.6136L251.32 21.4793L252.798 23.0139L253.302 23.5366C254.164 24.6898 252.872 26.0589 251.748 25.1083L248.469 21.7211C247.973 21.0254 247.826 20.2702 248.333 19.4053L250.662 17.0485ZM257.337 17.0485L254.837 19.6154L256.68 21.4811L255.202 23.0157L254.699 23.5384C253.837 24.6917 255.129 26.0607 256.252 25.1102L259.531 21.7229C260.028 21.0273 260.175 20.2721 259.667 19.4071L257.337 17.0485ZM261.489 16.204C260.976 16.5779 260.322 16.4049 259.886 15.9417L257.373 13.2762V15.7018H250.62V13.2836L248.114 15.9417C247.679 16.4049 247.022 16.5779 246.511 16.204C245.998 15.8301 245.8 15.0266 246.252 14.582L249.552 11.338C250.089 10.8097 251.122 9.55971 251.818 9.55971H256.239C256.892 9.55971 257.903 10.8004 258.447 11.338L261.747 14.582C262.201 15.0266 262 15.8301 261.489 16.204Z" fill="#707070"/>
<rect x="328.75" y="0.75" width="26.5" height="26.5" rx="7.25" fill="#FFF1CD"/>
<rect x="328.75" y="0.75" width="26.5" height="26.5" rx="7.25" stroke="#FFE6AA" stroke-width="1.5"/>
<path fill-rule="evenodd" clip-rule="evenodd" d="M350.601 6.43555L350.792 7.55183C352.088 11.3536 349.786 11.3925 348.877 9.36158C348.118 9.05023 347.633 9.25544 347.511 10.1541L348.446 14.5927L348.41 18.3679C348.967 17.6284 349.412 16.7669 349.702 15.7886C349.935 15.0067 350.734 14.5679 351.49 14.8085C352.245 15.0491 352.669 15.8771 352.436 16.659C351.661 19.2772 350.078 21.2869 348.101 22.619C346.351 23.7989 344.29 24.4411 342.212 24.4959C340.131 24.5526 338.026 24.0165 336.19 22.8436C334.191 21.5646 332.525 19.5373 331.578 16.7032C331.322 15.9319 331.718 15.0898 332.463 14.8245C333.208 14.5591 334.022 14.9695 334.278 15.7408C334.546 16.544 334.888 17.2587 335.288 17.8885L335.322 14.7413C335.394 13.9824 335.654 13.25 336.185 12.5601H334.652C333.302 12.4539 333.152 10.8087 334.652 10.4779H338.752C338.81 11.3712 339.184 12.1762 339.758 12.7723C340.385 13.4216 341.252 13.8232 342.209 13.8232C343.166 13.8232 344.032 13.4216 344.659 12.7723C345.286 12.1231 345.674 11.2262 345.674 10.2355C345.674 9.24483 345.286 8.34791 344.659 7.69866C344.23 7.25462 343.69 6.92735 343.085 6.76282C343.641 5.70138 344.57 4.7514 345.956 3.93232C347.308 3.39452 348.844 3.27599 350.77 4.05615C351.531 4.40997 351.96 4.76555 351.828 5.11936C351.702 5.46256 351.462 5.45371 351.199 5.52978C350.784 5.65008 350.553 5.92429 350.601 6.43555ZM346.997 19.8044C346.131 13.7046 337.742 13.6445 336.752 19.6169C337.051 19.8822 337.366 20.1175 337.691 20.3263C339.037 21.1878 340.594 21.5788 342.144 21.5381C343.697 21.4974 345.235 21.0162 346.542 20.1352C346.698 20.0308 346.85 19.9211 346.997 19.8044ZM339.589 10.4761H342.482C342.363 9.4465 342.434 8.47174 342.74 7.56598C343.253 7.67566 343.711 7.93925 344.068 8.30722C344.543 8.79902 344.839 9.48011 344.839 10.232C344.839 10.9838 344.545 11.6649 344.068 12.1567C343.593 12.6485 342.935 12.9546 342.209 12.9546C341.483 12.9546 340.825 12.6503 340.35 12.1567C339.926 11.7197 339.646 11.1324 339.589 10.4761ZM349.436 6.27456C349.627 6.27456 349.784 6.43732 349.784 6.63545V6.98573C349.784 7.18386 349.627 7.34662 349.436 7.34662C349.244 7.34662 349.087 7.18386 349.087 6.98573V6.63545C349.087 6.43555 349.242 6.27456 349.436 6.27456Z" fill="#707070"/>
<g clip-path="url(#clip0_3684_765)">
<path d="M343.066 36.2338C342.822 36.4752 342.552 36.7407 342.307 36.982C340.127 39.0807 337.897 41.1786 335.717 43.2773C335.472 43.5187 335.252 43.7359 334.982 43.9522C334.639 44.2409 334.173 44.5519 333.827 44.0538C333.679 43.8544 333.849 43.292 334.045 43.0498C335.759 41.1637 337.473 39.3268 339.212 37.4657C339.603 37.0304 340.044 36.6452 340.263 35.9854C339.477 36.1676 338.716 36.424 337.93 36.557C337.561 36.6239 336.946 36.4897 336.773 36.216C336.427 35.6687 336.967 35.2361 337.409 35.0968C339.52 34.2998 341.655 33.4787 343.841 32.8552C345.241 32.4631 345.981 33.2144 345.568 34.6082C345.034 36.4668 344.229 38.2468 343.523 40.0285C343.45 40.2485 343.032 40.3145 342.787 40.4575C342.663 40.1848 342.367 39.8843 342.415 39.6393C342.462 39.0993 342.706 38.5629 342.852 38.0247C343.022 37.4623 343.192 36.9 343.337 36.3618C343.239 36.36 343.14 36.309 343.066 36.2338Z" fill="#FFD500"/>
</g>
<g clip-path="url(#clip1_3684_765)">
<path d="M79.2679 31.7156C79.481 32.055 79.7153 32.4283 79.9283 32.7677C81.768 35.7761 83.5944 38.8403 85.4342 41.8487C85.6472 42.1881 85.8389 42.4935 86.0172 42.8547C86.2594 43.3177 86.4961 43.9261 85.8424 44.1944C85.5782 44.3129 84.9811 43.978 84.7547 43.6944C83.0397 41.27 81.3807 38.8577 79.7003 36.4116C79.3035 35.8564 78.9761 35.2576 78.2804 34.8427C78.2901 35.7828 78.3905 36.7133 78.3441 37.6412C78.3276 38.0773 78.0202 38.7433 77.6654 38.8714C76.9556 39.1276 76.599 38.4053 76.5516 37.8674C76.1756 35.2649 75.7784 32.6284 75.6185 29.9849C75.5243 28.2936 76.5652 27.6404 78.0472 28.4606C80.0277 29.5357 81.8506 30.8989 83.7002 32.1508C83.9321 32.2891 83.9023 32.7809 84.0033 33.096C83.6618 33.1684 83.2455 33.4297 82.9789 33.3131C82.3763 33.1236 81.8273 32.7112 81.2515 32.4103C80.6545 32.0754 80.0574 31.7405 79.4816 31.4396C79.4548 31.551 79.372 31.6503 79.2679 31.7156Z" fill="#FFD500"/>
</g>
<g clip-path="url(#clip2_3684_765)">
<path d="M254.121 34.8156C253.916 35.1604 253.692 35.5396 253.487 35.8843C251.655 38.8969 249.766 41.9232 247.933 44.9358C247.729 45.2806 247.545 45.5908 247.306 45.9146C247.005 46.3419 246.572 46.8308 246.035 46.3724C245.808 46.1917 245.833 45.5076 245.981 45.1765C247.352 42.542 248.737 39.9629 250.143 37.3493C250.455 36.7424 250.838 36.1773 250.888 35.3688C250.057 35.8077 249.276 36.3228 248.429 36.7063C248.034 36.8912 247.301 36.9227 247.025 36.6658C246.472 36.152 246.951 35.5044 247.408 35.216C249.55 33.6906 251.712 32.1308 253.989 30.7787C255.45 29.9209 256.507 30.5474 256.456 32.2405C256.407 34.4935 256.029 36.7381 255.762 38.9556C255.746 39.2251 255.295 39.4237 255.061 39.6577C254.84 39.3872 254.417 39.1366 254.399 38.8462C254.291 38.2238 254.407 37.5469 254.411 36.8972C254.435 36.2131 254.46 35.529 254.464 34.8793C254.353 34.9065 254.226 34.8783 254.121 34.8156Z" fill="#FFD500"/>
</g>
<defs>
<clipPath id="clip0_3684_765">
<rect width="7.97981" height="15.9596" fill="white" transform="translate(336.6 46.8857) rotate(-134.574)"/>
</clipPath>
<clipPath id="clip1_3684_765">
<rect width="9.29853" height="18.597" fill="white" transform="translate(89.7617 41.752) rotate(147.887)"/>
</clipPath>
<clipPath id="clip2_3684_765">
<rect width="9.29853" height="18.597" fill="white" transform="translate(250 48.7393) rotate(-149.35)"/>
</clipPath>
</defs>
</svg>
