<svg width="518" height="424" viewBox="0 0 518 424" fill="none" xmlns="http://www.w3.org/2000/svg">
<rect x="102.5" y="0.5" width="313" height="38" rx="7.5" fill="#F8F8F8"/>
<rect x="102.5" y="0.5" width="313" height="38" rx="7.5" stroke="#EFEFEF"/>
<path d="M214.773 14.6136V13.3636H223.5V14.6136H219.841V25H218.432V14.6136H214.773ZM224.587 25V16.2727H225.882V17.5909H225.973C226.132 17.1591 226.42 16.8087 226.837 16.5398C227.253 16.2708 227.723 16.1364 228.246 16.1364C228.344 16.1364 228.467 16.1383 228.615 16.142C228.763 16.1458 228.875 16.1515 228.95 16.1591V17.5227C228.905 17.5114 228.801 17.4943 228.638 17.4716C228.479 17.4451 228.31 17.4318 228.132 17.4318C227.708 17.4318 227.329 17.5208 226.996 17.6989C226.666 17.8731 226.405 18.1155 226.212 18.4261C226.022 18.733 225.928 19.0833 225.928 19.4773V25H224.587ZM230.54 25V16.2727H231.881V25H230.54ZM231.222 14.8182C230.96 14.8182 230.735 14.7292 230.545 14.5511C230.36 14.3731 230.267 14.1591 230.267 13.9091C230.267 13.6591 230.36 13.4451 230.545 13.267C230.735 13.089 230.96 13 231.222 13C231.483 13 231.706 13.089 231.892 13.267C232.081 13.4451 232.176 13.6591 232.176 13.9091C232.176 14.1591 232.081 14.3731 231.892 14.5511C231.706 14.7292 231.483 14.8182 231.222 14.8182ZM234.337 28.2727V16.2727H235.632V17.6591H235.791C235.89 17.5076 236.026 17.3144 236.2 17.0795C236.378 16.8409 236.632 16.6288 236.962 16.4432C237.295 16.2538 237.746 16.1591 238.314 16.1591C239.049 16.1591 239.696 16.3428 240.257 16.7102C240.818 17.0777 241.255 17.5985 241.57 18.2727C241.884 18.947 242.041 19.7424 242.041 20.6591C242.041 21.5833 241.884 22.3845 241.57 23.0625C241.255 23.7367 240.82 24.2595 240.263 24.6307C239.706 24.9981 239.064 25.1818 238.337 25.1818C237.776 25.1818 237.327 25.089 236.99 24.9034C236.653 24.714 236.393 24.5 236.212 24.2614C236.03 24.0189 235.89 23.8182 235.791 23.6591H235.678V28.2727H234.337ZM235.655 20.6364C235.655 21.2955 235.751 21.8769 235.945 22.3807C236.138 22.8807 236.42 23.2727 236.791 23.5568C237.162 23.8371 237.617 23.9773 238.155 23.9773C238.715 23.9773 239.183 23.8295 239.558 23.5341C239.937 23.2348 240.221 22.8333 240.411 22.3295C240.604 21.822 240.7 21.2576 240.7 20.6364C240.7 20.0227 240.606 19.4697 240.416 18.9773C240.231 18.4811 239.948 18.089 239.57 17.8011C239.195 17.5095 238.723 17.3636 238.155 17.3636C237.609 17.3636 237.151 17.5019 236.78 17.7784C236.409 18.0511 236.128 18.4337 235.939 18.9261C235.75 19.4148 235.655 19.9848 235.655 20.6364ZM248.768 25V13.3636H250.109V17.6591H250.223C250.321 17.5076 250.458 17.3144 250.632 17.0795C250.81 16.8409 251.064 16.6288 251.393 16.4432C251.727 16.2538 252.178 16.1591 252.746 16.1591C253.481 16.1591 254.128 16.3428 254.689 16.7102C255.25 17.0777 255.687 17.5985 256.001 18.2727C256.316 18.947 256.473 19.7424 256.473 20.6591C256.473 21.5833 256.316 22.3845 256.001 23.0625C255.687 23.7367 255.251 24.2595 254.695 24.6307C254.138 24.9981 253.496 25.1818 252.768 25.1818C252.208 25.1818 251.759 25.089 251.422 24.9034C251.085 24.714 250.825 24.5 250.643 24.2614C250.462 24.0189 250.321 23.8182 250.223 23.6591H250.064V25H248.768ZM250.087 20.6364C250.087 21.2955 250.183 21.8769 250.376 22.3807C250.57 22.8807 250.852 23.2727 251.223 23.5568C251.594 23.8371 252.049 23.9773 252.587 23.9773C253.147 23.9773 253.615 23.8295 253.99 23.5341C254.369 23.2348 254.653 22.8333 254.842 22.3295C255.036 21.822 255.132 21.2576 255.132 20.6364C255.132 20.0227 255.037 19.4697 254.848 18.9773C254.662 18.4811 254.38 18.089 254.001 17.8011C253.626 17.5095 253.155 17.3636 252.587 17.3636C252.041 17.3636 251.583 17.5019 251.212 17.7784C250.84 18.0511 250.56 18.4337 250.371 18.9261C250.181 19.4148 250.087 19.9848 250.087 20.6364ZM262.07 25.1818C261.282 25.1818 260.59 24.9943 259.996 24.6193C259.405 24.2443 258.943 23.7197 258.609 23.0455C258.28 22.3712 258.115 21.5833 258.115 20.6818C258.115 19.7727 258.28 18.9792 258.609 18.3011C258.943 17.6231 259.405 17.0966 259.996 16.7216C260.59 16.3466 261.282 16.1591 262.07 16.1591C262.857 16.1591 263.547 16.3466 264.138 16.7216C264.732 17.0966 265.195 17.6231 265.524 18.3011C265.857 18.9792 266.024 19.7727 266.024 20.6818C266.024 21.5833 265.857 22.3712 265.524 23.0455C265.195 23.7197 264.732 24.2443 264.138 24.6193C263.547 24.9943 262.857 25.1818 262.07 25.1818ZM262.07 23.9773C262.668 23.9773 263.161 23.8239 263.547 23.517C263.933 23.2102 264.219 22.8068 264.405 22.3068C264.59 21.8068 264.683 21.2652 264.683 20.6818C264.683 20.0985 264.59 19.5549 264.405 19.0511C264.219 18.5473 263.933 18.1402 263.547 17.8295C263.161 17.5189 262.668 17.3636 262.07 17.3636C261.471 17.3636 260.979 17.5189 260.592 17.8295C260.206 18.1402 259.92 18.5473 259.734 19.0511C259.549 19.5549 259.456 20.0985 259.456 20.6818C259.456 21.2652 259.549 21.8068 259.734 22.3068C259.92 22.8068 260.206 23.2102 260.592 23.517C260.979 23.8239 261.471 23.9773 262.07 23.9773ZM271.616 25.1818C270.829 25.1818 270.137 24.9943 269.543 24.6193C268.952 24.2443 268.49 23.7197 268.156 23.0455C267.827 22.3712 267.662 21.5833 267.662 20.6818C267.662 19.7727 267.827 18.9792 268.156 18.3011C268.49 17.6231 268.952 17.0966 269.543 16.7216C270.137 16.3466 270.829 16.1591 271.616 16.1591C272.404 16.1591 273.094 16.3466 273.685 16.7216C274.279 17.0966 274.741 17.6231 275.071 18.3011C275.404 18.9792 275.571 19.7727 275.571 20.6818C275.571 21.5833 275.404 22.3712 275.071 23.0455C274.741 23.7197 274.279 24.2443 273.685 24.6193C273.094 24.9943 272.404 25.1818 271.616 25.1818ZM271.616 23.9773C272.215 23.9773 272.707 23.8239 273.094 23.517C273.48 23.2102 273.766 22.8068 273.952 22.3068C274.137 21.8068 274.23 21.2652 274.23 20.6818C274.23 20.0985 274.137 19.5549 273.952 19.0511C273.766 18.5473 273.48 18.1402 273.094 17.8295C272.707 17.5189 272.215 17.3636 271.616 17.3636C271.018 17.3636 270.526 17.5189 270.139 17.8295C269.753 18.1402 269.467 18.5473 269.281 19.0511C269.096 19.5549 269.003 20.0985 269.003 20.6818C269.003 21.2652 269.096 21.8068 269.281 22.3068C269.467 22.8068 269.753 23.2102 270.139 23.517C270.526 23.8239 271.018 23.9773 271.616 23.9773ZM278.868 21.8182L278.845 20.1591H279.118L282.936 16.2727H284.595L280.527 20.3864H280.413L278.868 21.8182ZM277.618 25V13.3636H278.959V25H277.618ZM283.163 25L279.754 20.6818L280.709 19.75L284.868 25H283.163ZM289.621 25.1818C288.78 25.1818 288.054 24.9962 287.445 24.625C286.839 24.25 286.371 23.7273 286.041 23.0568C285.715 22.3826 285.553 21.5985 285.553 20.7045C285.553 19.8106 285.715 19.0227 286.041 18.3409C286.371 17.6553 286.829 17.1212 287.416 16.7386C288.007 16.3523 288.696 16.1591 289.484 16.1591C289.939 16.1591 290.388 16.2348 290.831 16.3864C291.274 16.5379 291.678 16.7841 292.041 17.125C292.405 17.4621 292.695 17.9091 292.911 18.4659C293.126 19.0227 293.234 19.7083 293.234 20.5227V21.0909H286.507V19.9318H291.871C291.871 19.4394 291.772 19 291.575 18.6136C291.382 18.2273 291.106 17.9223 290.746 17.6989C290.39 17.4754 289.969 17.3636 289.484 17.3636C288.95 17.3636 288.488 17.4962 288.098 17.7614C287.712 18.0227 287.414 18.3636 287.206 18.7841C286.998 19.2045 286.893 19.6553 286.893 20.1364V20.9091C286.893 21.5682 287.007 22.1269 287.234 22.5852C287.465 23.0398 287.786 23.3864 288.195 23.625C288.604 23.8598 289.079 23.9773 289.621 23.9773C289.973 23.9773 290.291 23.928 290.575 23.8295C290.863 23.7273 291.111 23.5758 291.32 23.375C291.528 23.1705 291.689 22.9167 291.803 22.6136L293.098 22.9773C292.962 23.4167 292.732 23.803 292.411 24.1364C292.089 24.4659 291.691 24.7235 291.217 24.9091C290.744 25.0909 290.212 25.1818 289.621 25.1818ZM298.57 25.1818C297.842 25.1818 297.2 24.9981 296.643 24.6307C296.087 24.2595 295.651 23.7367 295.337 23.0625C295.022 22.3845 294.865 21.5833 294.865 20.6591C294.865 19.7424 295.022 18.947 295.337 18.2727C295.651 17.5985 296.089 17.0777 296.649 16.7102C297.21 16.3428 297.857 16.1591 298.592 16.1591C299.161 16.1591 299.609 16.2538 299.939 16.4432C300.272 16.6288 300.526 16.8409 300.7 17.0795C300.878 17.3144 301.017 17.5076 301.115 17.6591H301.229V13.3636H302.57V25H301.274V23.6591H301.115C301.017 23.8182 300.876 24.0189 300.695 24.2614C300.513 24.5 300.253 24.714 299.916 24.9034C299.579 25.089 299.13 25.1818 298.57 25.1818ZM298.751 23.9773C299.289 23.9773 299.744 23.8371 300.115 23.5568C300.486 23.2727 300.768 22.8807 300.962 22.3807C301.155 21.8769 301.251 21.2955 301.251 20.6364C301.251 19.9848 301.157 19.4148 300.967 18.9261C300.778 18.4337 300.498 18.0511 300.126 17.7784C299.755 17.5019 299.297 17.3636 298.751 17.3636C298.183 17.3636 297.71 17.5095 297.331 17.8011C296.956 18.089 296.674 18.4811 296.484 18.9773C296.299 19.4697 296.206 20.0227 296.206 20.6364C296.206 21.2576 296.301 21.822 296.49 22.3295C296.683 22.8333 296.967 23.2348 297.342 23.5341C297.721 23.8295 298.191 23.9773 298.751 23.9773Z" fill="black"/>
<path fill-rule="evenodd" clip-rule="evenodd" d="M259.789 40C259.986 40 260.146 40.0961 260.146 40.2147L260.146 69.0242C260.146 69.1428 259.986 69.2389 259.789 69.2389C259.592 69.2389 259.433 69.1428 259.433 69.0242L259.433 40.2147C259.433 40.0961 259.592 40 259.789 40Z" fill="#505050"/>
<path fill-rule="evenodd" clip-rule="evenodd" d="M263.963 61.506C264.182 61.5607 264.315 61.7823 264.26 62.0011C264.131 62.5178 264.001 63.0333 263.871 63.5482C263.163 66.3478 262.461 69.1269 261.962 71.9571C261.939 72.0881 261.915 72.2662 261.886 72.4839C261.859 72.6876 261.828 72.9259 261.787 73.1926C261.708 73.7177 261.601 74.3178 261.443 74.8123C261.365 75.0587 261.268 75.2983 261.144 75.4945C261.025 75.6833 260.847 75.8876 260.583 75.9671C260.294 76.0542 260.02 75.9594 259.794 75.7886C259.577 75.6241 259.37 75.3658 259.164 75.0293C258.342 73.6888 257.733 72.1952 257.181 70.7043C257.026 70.2866 256.876 69.8703 256.727 69.4573C256.34 68.3837 255.961 67.3318 255.525 66.332C255.504 66.2838 255.458 66.1753 255.394 66.0236C255.218 65.607 254.905 64.8653 254.592 64.1568C254.38 63.6782 254.177 63.2327 254.028 62.9387C253.993 62.8707 253.964 62.8155 253.94 62.7723C253.813 62.703 253.728 62.5686 253.728 62.4141C253.728 62.3871 253.728 62.3009 253.771 62.2094C253.795 62.1573 253.845 62.0773 253.943 62.0212C254.047 61.9611 254.155 61.9572 254.238 61.9744C254.365 62.001 254.444 62.0798 254.463 62.0981L254.464 62.0992C254.495 62.1301 254.52 62.1622 254.537 62.1861C254.603 62.2772 254.68 62.4189 254.756 62.5695C254.916 62.8845 255.127 63.3472 255.338 63.8268C255.656 64.5443 255.992 65.3406 256.164 65.748C256.22 65.8799 256.259 65.9711 256.274 66.0055C256.721 67.0317 257.114 68.1222 257.504 69.205C257.651 69.6125 257.797 70.019 257.946 70.4206C258.495 71.9015 259.082 73.3331 259.86 74.6026C260.044 74.9031 260.188 75.0626 260.287 75.1379C260.32 75.1627 260.342 75.1743 260.355 75.1795C260.37 75.1677 260.405 75.1361 260.453 75.0596C260.525 74.9462 260.596 74.7798 260.665 74.5644C260.802 74.1353 260.902 73.589 260.98 73.0712C261.014 72.844 261.045 72.6129 261.073 72.4049C261.105 72.1632 261.134 71.9526 261.158 71.8152C261.663 68.9532 262.373 66.141 263.081 63.342C263.21 62.8286 263.34 62.3157 263.468 61.8031C263.523 61.5843 263.744 61.4513 263.963 61.506ZM260.369 75.1834C260.369 75.1837 260.367 75.1837 260.363 75.1826C260.367 75.1825 260.369 75.1831 260.369 75.1834ZM253.873 62.6615C253.873 62.6615 253.873 62.6618 253.874 62.6625C253.873 62.6619 253.873 62.6615 253.873 62.6615Z" fill="#505050"/>
<rect x="102.5" y="77.5" width="313" height="38" rx="7.5" fill="#F8F8F8"/>
<rect x="102.5" y="77.5" width="313" height="38" rx="7.5" stroke="#EFEFEF"/>
<path d="M208.636 90.3636V102H207.273L200.932 92.8636H200.818V102H199.409V90.3636H200.773L207.136 99.5227H207.25V90.3636H208.636ZM214.933 102.182C214.092 102.182 213.367 101.996 212.757 101.625C212.151 101.25 211.683 100.727 211.354 100.057C211.028 99.3826 210.865 98.5985 210.865 97.7045C210.865 96.8106 211.028 96.0227 211.354 95.3409C211.683 94.6553 212.142 94.1212 212.729 93.7386C213.32 93.3523 214.009 93.1591 214.797 93.1591C215.251 93.1591 215.7 93.2348 216.143 93.3864C216.587 93.5379 216.99 93.7841 217.354 94.125C217.717 94.4621 218.007 94.9091 218.223 95.4659C218.439 96.0227 218.547 96.7083 218.547 97.5227V98.0909H211.82V96.9318H217.183C217.183 96.4394 217.085 96 216.888 95.6136C216.695 95.2273 216.418 94.9223 216.058 94.6989C215.702 94.4754 215.282 94.3636 214.797 94.3636C214.263 94.3636 213.801 94.4962 213.411 94.7614C213.024 95.0227 212.727 95.3636 212.518 95.7841C212.31 96.2045 212.206 96.6553 212.206 97.1364V97.9091C212.206 98.5682 212.32 99.1269 212.547 99.5852C212.778 100.04 213.098 100.386 213.507 100.625C213.916 100.86 214.392 100.977 214.933 100.977C215.286 100.977 215.604 100.928 215.888 100.83C216.176 100.727 216.424 100.576 216.632 100.375C216.84 100.17 217.001 99.9167 217.115 99.6136L218.411 99.9773C218.274 100.417 218.045 100.803 217.723 101.136C217.401 101.466 217.003 101.723 216.53 101.909C216.056 102.091 215.524 102.182 214.933 102.182ZM224.246 102.182C223.405 102.182 222.679 101.996 222.07 101.625C221.464 101.25 220.996 100.727 220.666 100.057C220.34 99.3826 220.178 98.5985 220.178 97.7045C220.178 96.8106 220.34 96.0227 220.666 95.3409C220.996 94.6553 221.454 94.1212 222.041 93.7386C222.632 93.3523 223.321 93.1591 224.109 93.1591C224.564 93.1591 225.013 93.2348 225.456 93.3864C225.899 93.5379 226.303 93.7841 226.666 94.125C227.03 94.4621 227.32 94.9091 227.536 95.4659C227.751 96.0227 227.859 96.7083 227.859 97.5227V98.0909H221.132V96.9318H226.496C226.496 96.4394 226.397 96 226.2 95.6136C226.007 95.2273 225.731 94.9223 225.371 94.6989C225.015 94.4754 224.594 94.3636 224.109 94.3636C223.575 94.3636 223.113 94.4962 222.723 94.7614C222.337 95.0227 222.039 95.3636 221.831 95.7841C221.623 96.2045 221.518 96.6553 221.518 97.1364V97.9091C221.518 98.5682 221.632 99.1269 221.859 99.5852C222.09 100.04 222.411 100.386 222.82 100.625C223.229 100.86 223.704 100.977 224.246 100.977C224.598 100.977 224.916 100.928 225.2 100.83C225.488 100.727 225.736 100.576 225.945 100.375C226.153 100.17 226.314 99.9167 226.428 99.6136L227.723 99.9773C227.587 100.417 227.357 100.803 227.036 101.136C226.714 101.466 226.316 101.723 225.842 101.909C225.369 102.091 224.837 102.182 224.246 102.182ZM233.195 102.182C232.467 102.182 231.825 101.998 231.268 101.631C230.712 101.259 230.276 100.737 229.962 100.062C229.647 99.3845 229.49 98.5833 229.49 97.6591C229.49 96.7424 229.647 95.947 229.962 95.2727C230.276 94.5985 230.714 94.0777 231.274 93.7102C231.835 93.3428 232.482 93.1591 233.217 93.1591C233.786 93.1591 234.234 93.2538 234.564 93.4432C234.897 93.6288 235.151 93.8409 235.325 94.0795C235.503 94.3144 235.642 94.5076 235.74 94.6591H235.854V90.3636H237.195V102H235.899V100.659H235.74C235.642 100.818 235.501 101.019 235.32 101.261C235.138 101.5 234.878 101.714 234.541 101.903C234.204 102.089 233.755 102.182 233.195 102.182ZM233.376 100.977C233.914 100.977 234.369 100.837 234.74 100.557C235.111 100.273 235.393 99.8807 235.587 99.3807C235.78 98.8769 235.876 98.2955 235.876 97.6364C235.876 96.9848 235.782 96.4148 235.592 95.9261C235.403 95.4337 235.123 95.0511 234.751 94.7784C234.38 94.5019 233.922 94.3636 233.376 94.3636C232.808 94.3636 232.335 94.5095 231.956 94.8011C231.581 95.089 231.299 95.4811 231.109 95.9773C230.924 96.4697 230.831 97.0227 230.831 97.6364C230.831 98.2576 230.926 98.822 231.115 99.3295C231.308 99.8333 231.592 100.235 231.967 100.534C232.346 100.83 232.816 100.977 233.376 100.977ZM244.518 102V90.3636H245.859V94.6591H245.973C246.071 94.5076 246.208 94.3144 246.382 94.0795C246.56 93.8409 246.814 93.6288 247.143 93.4432C247.477 93.2538 247.928 93.1591 248.496 93.1591C249.231 93.1591 249.878 93.3428 250.439 93.7102C251 94.0777 251.437 94.5985 251.751 95.2727C252.066 95.947 252.223 96.7424 252.223 97.6591C252.223 98.5833 252.066 99.3845 251.751 100.062C251.437 100.737 251.001 101.259 250.445 101.631C249.888 101.998 249.246 102.182 248.518 102.182C247.958 102.182 247.509 102.089 247.172 101.903C246.835 101.714 246.575 101.5 246.393 101.261C246.212 101.019 246.071 100.818 245.973 100.659H245.814V102H244.518ZM245.837 97.6364C245.837 98.2955 245.933 98.8769 246.126 99.3807C246.32 99.8807 246.602 100.273 246.973 100.557C247.344 100.837 247.799 100.977 248.337 100.977C248.897 100.977 249.365 100.83 249.74 100.534C250.119 100.235 250.403 99.8333 250.592 99.3295C250.786 98.822 250.882 98.2576 250.882 97.6364C250.882 97.0227 250.787 96.4697 250.598 95.9773C250.412 95.4811 250.13 95.089 249.751 94.8011C249.376 94.5095 248.905 94.3636 248.337 94.3636C247.791 94.3636 247.333 94.5019 246.962 94.7784C246.59 95.0511 246.31 95.4337 246.121 95.9261C245.931 96.4148 245.837 96.9848 245.837 97.6364ZM256.842 102.205C256.289 102.205 255.787 102.1 255.337 101.892C254.886 101.68 254.528 101.375 254.263 100.977C253.998 100.576 253.865 100.091 253.865 99.5227C253.865 99.0227 253.964 98.6174 254.161 98.3068C254.357 97.9924 254.621 97.7462 254.95 97.5682C255.28 97.3902 255.643 97.2576 256.041 97.1705C256.443 97.0795 256.846 97.0076 257.251 96.9545C257.782 96.8864 258.212 96.8352 258.541 96.8011C258.875 96.7633 259.117 96.7008 259.268 96.6136C259.424 96.5265 259.501 96.375 259.501 96.1591V96.1136C259.501 95.553 259.348 95.1174 259.041 94.8068C258.738 94.4962 258.278 94.3409 257.661 94.3409C257.02 94.3409 256.518 94.4811 256.155 94.7614C255.791 95.0417 255.536 95.3409 255.388 95.6591L254.115 95.2045C254.342 94.6742 254.645 94.2614 255.024 93.9659C255.407 93.6667 255.823 93.4583 256.274 93.3409C256.729 93.2197 257.176 93.1591 257.615 93.1591C257.895 93.1591 258.217 93.1932 258.581 93.2614C258.948 93.3258 259.303 93.4602 259.643 93.6648C259.988 93.8693 260.274 94.178 260.501 94.5909C260.729 95.0038 260.842 95.5568 260.842 96.25V102H259.501V100.818H259.433C259.342 101.008 259.191 101.21 258.979 101.426C258.767 101.642 258.484 101.826 258.132 101.977C257.78 102.129 257.35 102.205 256.842 102.205ZM257.047 101C257.577 101 258.024 100.896 258.388 100.688C258.755 100.479 259.032 100.21 259.217 99.8807C259.407 99.5511 259.501 99.2045 259.501 98.8409V97.6136C259.445 97.6818 259.32 97.7443 259.126 97.8011C258.937 97.8542 258.717 97.9015 258.467 97.9432C258.221 97.9811 257.981 98.0152 257.746 98.0455C257.515 98.072 257.327 98.0947 257.183 98.1136C256.835 98.1591 256.509 98.233 256.206 98.3352C255.907 98.4337 255.664 98.5833 255.479 98.7841C255.297 98.9811 255.206 99.25 255.206 99.5909C255.206 100.057 255.378 100.409 255.723 100.648C256.071 100.883 256.513 101 257.047 101ZM263.472 102V90.3636H264.812V94.6591H264.926C265.025 94.5076 265.161 94.3144 265.335 94.0795C265.513 93.8409 265.767 93.6288 266.097 93.4432C266.43 93.2538 266.881 93.1591 267.449 93.1591C268.184 93.1591 268.831 93.3428 269.392 93.7102C269.953 94.0777 270.39 94.5985 270.705 95.2727C271.019 95.947 271.176 96.7424 271.176 97.6591C271.176 98.5833 271.019 99.3845 270.705 100.062C270.39 100.737 269.955 101.259 269.398 101.631C268.841 101.998 268.199 102.182 267.472 102.182C266.911 102.182 266.462 102.089 266.125 101.903C265.788 101.714 265.528 101.5 265.347 101.261C265.165 101.019 265.025 100.818 264.926 100.659H264.767V102H263.472ZM264.79 97.6364C264.79 98.2955 264.886 98.8769 265.08 99.3807C265.273 99.8807 265.555 100.273 265.926 100.557C266.297 100.837 266.752 100.977 267.29 100.977C267.85 100.977 268.318 100.83 268.693 100.534C269.072 100.235 269.356 99.8333 269.545 99.3295C269.739 98.822 269.835 98.2576 269.835 97.6364C269.835 97.0227 269.741 96.4697 269.551 95.9773C269.366 95.4811 269.083 95.089 268.705 94.8011C268.33 94.5095 267.858 94.3636 267.29 94.3636C266.744 94.3636 266.286 94.5019 265.915 94.7784C265.544 95.0511 265.263 95.4337 265.074 95.9261C264.884 96.4148 264.79 96.9848 264.79 97.6364ZM273.778 105.273C273.551 105.273 273.348 105.254 273.17 105.216C272.992 105.182 272.869 105.148 272.801 105.114L273.142 103.932C273.468 104.015 273.756 104.045 274.006 104.023C274.256 104 274.477 103.888 274.67 103.688C274.867 103.491 275.047 103.17 275.21 102.727L275.46 102.045L272.233 93.2727H273.688L276.097 100.227H276.188L278.597 93.2727H280.051L276.347 103.273C276.18 103.723 275.973 104.097 275.727 104.392C275.481 104.691 275.195 104.913 274.869 105.057C274.547 105.201 274.184 105.273 273.778 105.273ZM289.844 105.455C289.196 105.455 288.639 105.371 288.173 105.205C287.707 105.042 287.319 104.826 287.009 104.557C286.702 104.292 286.457 104.008 286.276 103.705L287.344 102.955C287.465 103.114 287.618 103.295 287.804 103.5C287.99 103.708 288.243 103.888 288.565 104.04C288.891 104.195 289.317 104.273 289.844 104.273C290.548 104.273 291.13 104.102 291.588 103.761C292.046 103.42 292.276 102.886 292.276 102.159V100.386H292.162C292.063 100.545 291.923 100.742 291.741 100.977C291.563 101.208 291.306 101.415 290.969 101.597C290.635 101.775 290.185 101.864 289.616 101.864C288.912 101.864 288.279 101.697 287.719 101.364C287.162 101.03 286.721 100.545 286.395 99.9091C286.073 99.2727 285.912 98.5 285.912 97.5909C285.912 96.697 286.069 95.9186 286.384 95.2557C286.698 94.589 287.135 94.0739 287.696 93.7102C288.257 93.3428 288.904 93.1591 289.639 93.1591C290.207 93.1591 290.658 93.2538 290.991 93.4432C291.329 93.6288 291.586 93.8409 291.764 94.0795C291.946 94.3144 292.086 94.5076 292.185 94.6591H292.321V93.2727H293.616V102.25C293.616 103 293.446 103.61 293.105 104.08C292.768 104.553 292.313 104.9 291.741 105.119C291.173 105.343 290.541 105.455 289.844 105.455ZM289.798 100.659C290.336 100.659 290.791 100.536 291.162 100.29C291.533 100.044 291.815 99.6894 292.009 99.2273C292.202 98.7652 292.298 98.2121 292.298 97.5682C292.298 96.9394 292.204 96.3845 292.014 95.9034C291.825 95.4223 291.545 95.0455 291.173 94.7727C290.802 94.5 290.344 94.3636 289.798 94.3636C289.23 94.3636 288.757 94.5076 288.378 94.7955C288.003 95.0833 287.721 95.4697 287.531 95.9545C287.346 96.4394 287.253 96.9773 287.253 97.5682C287.253 98.1742 287.348 98.7102 287.537 99.1761C287.73 99.6383 288.014 100.002 288.389 100.267C288.768 100.528 289.238 100.659 289.798 100.659ZM299.73 102.182C298.889 102.182 298.164 101.996 297.554 101.625C296.948 101.25 296.48 100.727 296.151 100.057C295.825 99.3826 295.662 98.5985 295.662 97.7045C295.662 96.8106 295.825 96.0227 296.151 95.3409C296.48 94.6553 296.938 94.1212 297.526 93.7386C298.116 93.3523 298.806 93.1591 299.594 93.1591C300.048 93.1591 300.497 93.2348 300.94 93.3864C301.384 93.5379 301.787 93.7841 302.151 94.125C302.514 94.4621 302.804 94.9091 303.02 95.4659C303.236 96.0227 303.344 96.7083 303.344 97.5227V98.0909H296.616V96.9318H301.98C301.98 96.4394 301.882 96 301.685 95.6136C301.491 95.2273 301.215 94.9223 300.855 94.6989C300.499 94.4754 300.079 94.3636 299.594 94.3636C299.06 94.3636 298.598 94.4962 298.207 94.7614C297.821 95.0227 297.524 95.3636 297.315 95.7841C297.107 96.2045 297.003 96.6553 297.003 97.1364V97.9091C297.003 98.5682 297.116 99.1269 297.344 99.5852C297.575 100.04 297.895 100.386 298.304 100.625C298.713 100.86 299.188 100.977 299.73 100.977C300.082 100.977 300.401 100.928 300.685 100.83C300.973 100.727 301.221 100.576 301.429 100.375C301.637 100.17 301.798 99.9167 301.912 99.6136L303.207 99.9773C303.071 100.417 302.842 100.803 302.52 101.136C302.198 101.466 301.8 101.723 301.327 101.909C300.853 102.091 300.321 102.182 299.73 102.182ZM307.952 102.205C307.399 102.205 306.897 102.1 306.446 101.892C305.995 101.68 305.637 101.375 305.372 100.977C305.107 100.576 304.974 100.091 304.974 99.5227C304.974 99.0227 305.073 98.6174 305.27 98.3068C305.467 97.9924 305.73 97.7462 306.06 97.5682C306.389 97.3902 306.753 97.2576 307.151 97.1705C307.552 97.0795 307.955 97.0076 308.361 96.9545C308.891 96.8864 309.321 96.8352 309.651 96.8011C309.984 96.7633 310.226 96.7008 310.378 96.6136C310.533 96.5265 310.611 96.375 310.611 96.1591V96.1136C310.611 95.553 310.457 95.1174 310.151 94.8068C309.848 94.4962 309.387 94.3409 308.77 94.3409C308.13 94.3409 307.628 94.4811 307.264 94.7614C306.901 95.0417 306.645 95.3409 306.497 95.6591L305.224 95.2045C305.452 94.6742 305.755 94.2614 306.134 93.9659C306.516 93.6667 306.933 93.4583 307.384 93.3409C307.838 93.2197 308.285 93.1591 308.724 93.1591C309.005 93.1591 309.327 93.1932 309.69 93.2614C310.058 93.3258 310.412 93.4602 310.753 93.6648C311.098 93.8693 311.384 94.178 311.611 94.5909C311.838 95.0038 311.952 95.5568 311.952 96.25V102H310.611V100.818H310.543C310.452 101.008 310.3 101.21 310.088 101.426C309.876 101.642 309.594 101.826 309.241 101.977C308.889 102.129 308.459 102.205 307.952 102.205ZM308.156 101C308.687 101 309.134 100.896 309.497 100.688C309.865 100.479 310.141 100.21 310.327 99.8807C310.516 99.5511 310.611 99.2045 310.611 98.8409V97.6136C310.554 97.6818 310.429 97.7443 310.236 97.8011C310.046 97.8542 309.827 97.9015 309.577 97.9432C309.33 97.9811 309.09 98.0152 308.855 98.0455C308.624 98.072 308.437 98.0947 308.293 98.1136C307.944 98.1591 307.618 98.233 307.315 98.3352C307.016 98.4337 306.774 98.5833 306.588 98.7841C306.406 98.9811 306.315 99.25 306.315 99.5909C306.315 100.057 306.488 100.409 306.832 100.648C307.181 100.883 307.622 101 308.156 101ZM314.399 102V93.2727H315.695V94.5909H315.786C315.945 94.1591 316.232 93.8087 316.649 93.5398C317.066 93.2708 317.536 93.1364 318.058 93.1364C318.157 93.1364 318.28 93.1383 318.428 93.142C318.575 93.1458 318.687 93.1515 318.763 93.1591V94.5227C318.717 94.5114 318.613 94.4943 318.45 94.4716C318.291 94.4451 318.123 94.4318 317.945 94.4318C317.52 94.4318 317.142 94.5208 316.808 94.6989C316.479 94.8731 316.217 95.1155 316.024 95.4261C315.835 95.733 315.74 96.0833 315.74 96.4773V102H314.399Z" fill="black"/>
<path fill-rule="evenodd" clip-rule="evenodd" d="M259.789 117C259.986 117 260.146 117.096 260.146 117.215L260.146 146.024C260.146 146.143 259.986 146.239 259.789 146.239C259.592 146.239 259.433 146.143 259.433 146.024L259.433 117.215C259.433 117.096 259.592 117 259.789 117Z" fill="#505050"/>
<path fill-rule="evenodd" clip-rule="evenodd" d="M263.963 138.506C264.182 138.561 264.315 138.782 264.26 139.001C264.131 139.518 264.001 140.033 263.871 140.548C263.163 143.348 262.461 146.127 261.962 148.957C261.939 149.088 261.915 149.266 261.886 149.484C261.859 149.688 261.828 149.926 261.787 150.193C261.708 150.718 261.601 151.318 261.443 151.812C261.365 152.059 261.268 152.298 261.144 152.494C261.025 152.683 260.847 152.888 260.583 152.967C260.294 153.054 260.02 152.959 259.794 152.789C259.577 152.624 259.37 152.366 259.164 152.029C258.342 150.689 257.733 149.195 257.181 147.704C257.026 147.287 256.876 146.87 256.727 146.457C256.34 145.384 255.961 144.332 255.525 143.332C255.504 143.284 255.458 143.175 255.394 143.024C255.218 142.607 254.905 141.865 254.592 141.157C254.38 140.678 254.177 140.233 254.028 139.939C253.993 139.871 253.964 139.816 253.94 139.772C253.813 139.703 253.728 139.569 253.728 139.414C253.728 139.387 253.728 139.301 253.771 139.209C253.795 139.157 253.845 139.077 253.943 139.021C254.047 138.961 254.155 138.957 254.238 138.974C254.365 139.001 254.444 139.08 254.463 139.098L254.464 139.099C254.495 139.13 254.52 139.162 254.537 139.186C254.603 139.277 254.68 139.419 254.756 139.569C254.916 139.884 255.127 140.347 255.338 140.827C255.656 141.544 255.992 142.341 256.164 142.748C256.22 142.88 256.259 142.971 256.274 143.006C256.721 144.032 257.114 145.122 257.504 146.205C257.651 146.613 257.797 147.019 257.946 147.421C258.495 148.902 259.082 150.333 259.86 151.603C260.044 151.903 260.188 152.063 260.287 152.138C260.32 152.163 260.342 152.174 260.355 152.18C260.37 152.168 260.405 152.136 260.453 152.06C260.525 151.946 260.596 151.78 260.665 151.564C260.802 151.135 260.902 150.589 260.98 150.071C261.014 149.844 261.045 149.613 261.073 149.405C261.105 149.163 261.134 148.953 261.158 148.815C261.663 145.953 262.373 143.141 263.081 140.342C263.21 139.829 263.34 139.316 263.468 138.803C263.523 138.584 263.744 138.451 263.963 138.506ZM260.369 152.183C260.369 152.184 260.367 152.184 260.363 152.183C260.367 152.183 260.369 152.183 260.369 152.183ZM253.873 139.662C253.873 139.661 253.873 139.662 253.874 139.663C253.873 139.662 253.873 139.662 253.873 139.662Z" fill="#505050"/>
<rect x="102.5" y="154.5" width="313" height="38" rx="7.5" fill="#F8F8F8"/>
<rect x="102.5" y="154.5" width="313" height="38" rx="7.5" stroke="#EFEFEF"/>
<path d="M210.273 171H208.864C208.78 170.595 208.634 170.239 208.426 169.932C208.222 169.625 207.972 169.367 207.676 169.159C207.384 168.947 207.061 168.788 206.705 168.682C206.348 168.576 205.977 168.523 205.591 168.523C204.886 168.523 204.248 168.701 203.676 169.057C203.108 169.413 202.655 169.938 202.318 170.631C201.985 171.324 201.818 172.174 201.818 173.182C201.818 174.189 201.985 175.04 202.318 175.733C202.655 176.426 203.108 176.951 203.676 177.307C204.248 177.663 204.886 177.841 205.591 177.841C205.977 177.841 206.348 177.788 206.705 177.682C207.061 177.576 207.384 177.419 207.676 177.21C207.972 176.998 208.222 176.739 208.426 176.432C208.634 176.121 208.78 175.765 208.864 175.364H210.273C210.167 175.958 209.973 176.491 209.693 176.96C209.413 177.43 209.064 177.83 208.648 178.159C208.231 178.485 207.763 178.733 207.244 178.903C206.729 179.074 206.178 179.159 205.591 179.159C204.598 179.159 203.716 178.917 202.943 178.432C202.17 177.947 201.563 177.258 201.119 176.364C200.676 175.47 200.455 174.409 200.455 173.182C200.455 171.955 200.676 170.894 201.119 170C201.563 169.106 202.17 168.417 202.943 167.932C203.716 167.447 204.598 167.205 205.591 167.205C206.178 167.205 206.729 167.29 207.244 167.46C207.763 167.631 208.231 167.881 208.648 168.21C209.064 168.536 209.413 168.934 209.693 169.403C209.973 169.869 210.167 170.402 210.273 171ZM214.936 179.205C214.383 179.205 213.881 179.1 213.43 178.892C212.98 178.68 212.622 178.375 212.357 177.977C212.091 177.576 211.959 177.091 211.959 176.523C211.959 176.023 212.057 175.617 212.254 175.307C212.451 174.992 212.714 174.746 213.044 174.568C213.374 174.39 213.737 174.258 214.135 174.17C214.536 174.08 214.94 174.008 215.345 173.955C215.875 173.886 216.305 173.835 216.635 173.801C216.968 173.763 217.211 173.701 217.362 173.614C217.518 173.527 217.595 173.375 217.595 173.159V173.114C217.595 172.553 217.442 172.117 217.135 171.807C216.832 171.496 216.372 171.341 215.754 171.341C215.114 171.341 214.612 171.481 214.249 171.761C213.885 172.042 213.629 172.341 213.482 172.659L212.209 172.205C212.436 171.674 212.739 171.261 213.118 170.966C213.5 170.667 213.917 170.458 214.368 170.341C214.822 170.22 215.269 170.159 215.709 170.159C215.989 170.159 216.311 170.193 216.675 170.261C217.042 170.326 217.396 170.46 217.737 170.665C218.082 170.869 218.368 171.178 218.595 171.591C218.822 172.004 218.936 172.557 218.936 173.25V179H217.595V177.818H217.527C217.436 178.008 217.285 178.21 217.072 178.426C216.86 178.642 216.578 178.826 216.226 178.977C215.874 179.129 215.444 179.205 214.936 179.205ZM215.141 178C215.671 178 216.118 177.896 216.482 177.688C216.849 177.479 217.125 177.21 217.311 176.881C217.5 176.551 217.595 176.205 217.595 175.841V174.614C217.538 174.682 217.413 174.744 217.22 174.801C217.031 174.854 216.811 174.902 216.561 174.943C216.315 174.981 216.074 175.015 215.839 175.045C215.608 175.072 215.421 175.095 215.277 175.114C214.929 175.159 214.603 175.233 214.3 175.335C214 175.434 213.758 175.583 213.572 175.784C213.391 175.981 213.3 176.25 213.3 176.591C213.3 177.057 213.472 177.409 213.817 177.648C214.165 177.883 214.607 178 215.141 178ZM222.724 173.75V179H221.384V170.273H222.679V171.636H222.793C222.997 171.193 223.308 170.837 223.724 170.568C224.141 170.295 224.679 170.159 225.338 170.159C225.929 170.159 226.446 170.28 226.889 170.523C227.332 170.761 227.677 171.125 227.923 171.614C228.17 172.098 228.293 172.712 228.293 173.455V179H226.952V173.545C226.952 172.86 226.774 172.326 226.418 171.943C226.062 171.557 225.573 171.364 224.952 171.364C224.524 171.364 224.141 171.456 223.804 171.642C223.471 171.828 223.207 172.098 223.014 172.455C222.821 172.811 222.724 173.242 222.724 173.75ZM236.834 167.364V179H235.425V167.364H236.834ZM247.773 170.273V171.409H243.25V170.273H247.773ZM244.568 168.182H245.909V176.5C245.909 176.879 245.964 177.163 246.074 177.352C246.188 177.538 246.331 177.663 246.506 177.727C246.684 177.788 246.871 177.818 247.068 177.818C247.216 177.818 247.337 177.811 247.432 177.795C247.527 177.777 247.602 177.761 247.659 177.75L247.932 178.955C247.841 178.989 247.714 179.023 247.551 179.057C247.388 179.095 247.182 179.114 246.932 179.114C246.553 179.114 246.182 179.032 245.818 178.869C245.458 178.706 245.159 178.458 244.92 178.125C244.686 177.792 244.568 177.371 244.568 176.864V168.182ZM249.79 179V170.273H251.085V171.591H251.176C251.335 171.159 251.623 170.809 252.04 170.54C252.456 170.271 252.926 170.136 253.449 170.136C253.547 170.136 253.67 170.138 253.818 170.142C253.966 170.146 254.078 170.152 254.153 170.159V171.523C254.108 171.511 254.004 171.494 253.841 171.472C253.682 171.445 253.513 171.432 253.335 171.432C252.911 171.432 252.532 171.521 252.199 171.699C251.869 171.873 251.608 172.116 251.415 172.426C251.225 172.733 251.131 173.083 251.131 173.477V179H249.79ZM261.243 175.432V170.273H262.584V179H261.243V177.523H261.152C260.947 177.966 260.629 178.343 260.197 178.653C259.766 178.96 259.22 179.114 258.561 179.114C258.016 179.114 257.531 178.994 257.107 178.756C256.682 178.513 256.349 178.15 256.107 177.665C255.864 177.176 255.743 176.561 255.743 175.818V170.273H257.084V175.727C257.084 176.364 257.262 176.871 257.618 177.25C257.978 177.629 258.436 177.818 258.993 177.818C259.326 177.818 259.665 177.733 260.01 177.562C260.358 177.392 260.65 177.131 260.885 176.778C261.124 176.426 261.243 175.977 261.243 175.432ZM271.222 172.227L270.017 172.568C269.941 172.367 269.83 172.172 269.682 171.983C269.538 171.79 269.341 171.631 269.091 171.506C268.841 171.381 268.521 171.318 268.131 171.318C267.597 171.318 267.152 171.441 266.795 171.688C266.443 171.93 266.267 172.239 266.267 172.614C266.267 172.947 266.388 173.21 266.631 173.403C266.873 173.597 267.252 173.758 267.767 173.886L269.062 174.205C269.843 174.394 270.424 174.684 270.807 175.074C271.189 175.46 271.381 175.958 271.381 176.568C271.381 177.068 271.237 177.515 270.949 177.909C270.665 178.303 270.267 178.614 269.756 178.841C269.244 179.068 268.65 179.182 267.972 179.182C267.081 179.182 266.345 178.989 265.761 178.602C265.178 178.216 264.809 177.652 264.653 176.909L265.926 176.591C266.047 177.061 266.277 177.413 266.614 177.648C266.955 177.883 267.4 178 267.949 178C268.574 178 269.07 177.867 269.438 177.602C269.809 177.333 269.994 177.011 269.994 176.636C269.994 176.333 269.888 176.08 269.676 175.875C269.464 175.667 269.138 175.511 268.699 175.409L267.244 175.068C266.445 174.879 265.858 174.585 265.483 174.188C265.112 173.786 264.926 173.284 264.926 172.682C264.926 172.189 265.064 171.754 265.341 171.375C265.621 170.996 266.002 170.699 266.483 170.483C266.968 170.267 267.517 170.159 268.131 170.159C268.994 170.159 269.672 170.348 270.165 170.727C270.661 171.106 271.013 171.606 271.222 172.227ZM277.195 170.273V171.409H272.672V170.273H277.195ZM273.99 168.182H275.331V176.5C275.331 176.879 275.386 177.163 275.496 177.352C275.609 177.538 275.753 177.663 275.928 177.727C276.106 177.788 276.293 177.818 276.49 177.818C276.638 177.818 276.759 177.811 276.854 177.795C276.948 177.777 277.024 177.761 277.081 177.75L277.354 178.955C277.263 178.989 277.136 179.023 276.973 179.057C276.81 179.095 276.604 179.114 276.354 179.114C275.975 179.114 275.604 179.032 275.24 178.869C274.88 178.706 274.581 178.458 274.342 178.125C274.107 177.792 273.99 177.371 273.99 176.864V168.182ZM287.507 170.273V171.409H282.984V170.273H287.507ZM284.303 168.182H285.643V176.5C285.643 176.879 285.698 177.163 285.808 177.352C285.922 177.538 286.066 177.663 286.24 177.727C286.418 177.788 286.606 177.818 286.803 177.818C286.95 177.818 287.071 177.811 287.166 177.795C287.261 177.777 287.337 177.761 287.393 177.75L287.666 178.955C287.575 178.989 287.448 179.023 287.286 179.057C287.123 179.095 286.916 179.114 286.666 179.114C286.287 179.114 285.916 179.032 285.553 178.869C285.193 178.706 284.893 178.458 284.655 178.125C284.42 177.792 284.303 177.371 284.303 176.864V168.182ZM291.053 173.75V179H289.712V167.364H291.053V171.636H291.166C291.371 171.186 291.678 170.828 292.087 170.562C292.5 170.294 293.049 170.159 293.734 170.159C294.329 170.159 294.85 170.278 295.297 170.517C295.744 170.752 296.09 171.114 296.337 171.602C296.587 172.087 296.712 172.705 296.712 173.455V179H295.371V173.545C295.371 172.852 295.191 172.316 294.831 171.938C294.475 171.555 293.981 171.364 293.348 171.364C292.909 171.364 292.515 171.456 292.166 171.642C291.821 171.828 291.549 172.098 291.348 172.455C291.151 172.811 291.053 173.242 291.053 173.75ZM299.165 179V170.273H300.506V179H299.165ZM299.847 168.818C299.585 168.818 299.36 168.729 299.17 168.551C298.985 168.373 298.892 168.159 298.892 167.909C298.892 167.659 298.985 167.445 299.17 167.267C299.36 167.089 299.585 167 299.847 167C300.108 167 300.331 167.089 300.517 167.267C300.706 167.445 300.801 167.659 300.801 167.909C300.801 168.159 300.706 168.373 300.517 168.551C300.331 168.729 300.108 168.818 299.847 168.818ZM309.143 172.227L307.939 172.568C307.863 172.367 307.751 172.172 307.604 171.983C307.46 171.79 307.263 171.631 307.013 171.506C306.763 171.381 306.443 171.318 306.053 171.318C305.518 171.318 305.073 171.441 304.717 171.688C304.365 171.93 304.189 172.239 304.189 172.614C304.189 172.947 304.31 173.21 304.553 173.403C304.795 173.597 305.174 173.758 305.689 173.886L306.984 174.205C307.765 174.394 308.346 174.684 308.729 175.074C309.111 175.46 309.303 175.958 309.303 176.568C309.303 177.068 309.159 177.515 308.871 177.909C308.587 178.303 308.189 178.614 307.678 178.841C307.166 179.068 306.571 179.182 305.893 179.182C305.003 179.182 304.267 178.989 303.683 178.602C303.1 178.216 302.731 177.652 302.575 176.909L303.848 176.591C303.969 177.061 304.198 177.413 304.536 177.648C304.876 177.883 305.321 178 305.871 178C306.496 178 306.992 177.867 307.359 177.602C307.731 177.333 307.916 177.011 307.916 176.636C307.916 176.333 307.81 176.08 307.598 175.875C307.386 175.667 307.06 175.511 306.621 175.409L305.166 175.068C304.367 174.879 303.78 174.585 303.405 174.188C303.034 173.786 302.848 173.284 302.848 172.682C302.848 172.189 302.986 171.754 303.263 171.375C303.543 170.996 303.924 170.699 304.405 170.483C304.89 170.267 305.439 170.159 306.053 170.159C306.916 170.159 307.594 170.348 308.087 170.727C308.583 171.106 308.935 171.606 309.143 172.227ZM313.071 175.727V175.659C313.079 174.936 313.154 174.36 313.298 173.932C313.442 173.504 313.647 173.157 313.912 172.892C314.177 172.627 314.495 172.383 314.866 172.159C315.09 172.023 315.291 171.862 315.469 171.676C315.647 171.487 315.787 171.269 315.889 171.023C315.995 170.777 316.048 170.504 316.048 170.205C316.048 169.833 315.961 169.511 315.787 169.239C315.613 168.966 315.38 168.756 315.088 168.608C314.796 168.46 314.473 168.386 314.116 168.386C313.806 168.386 313.507 168.451 313.219 168.58C312.931 168.708 312.69 168.911 312.497 169.188C312.304 169.464 312.192 169.826 312.162 170.273H310.73C310.76 169.629 310.927 169.078 311.23 168.619C311.537 168.161 311.94 167.811 312.44 167.568C312.944 167.326 313.503 167.205 314.116 167.205C314.783 167.205 315.363 167.337 315.855 167.602C316.351 167.867 316.734 168.231 317.003 168.693C317.276 169.155 317.412 169.682 317.412 170.273C317.412 170.689 317.348 171.066 317.219 171.403C317.094 171.741 316.912 172.042 316.673 172.307C316.438 172.572 316.154 172.807 315.821 173.011C315.488 173.22 315.221 173.439 315.02 173.67C314.819 173.898 314.673 174.169 314.582 174.483C314.491 174.797 314.442 175.189 314.435 175.659V175.727H313.071ZM313.798 179.091C313.518 179.091 313.277 178.991 313.077 178.79C312.876 178.589 312.776 178.348 312.776 178.068C312.776 177.788 312.876 177.547 313.077 177.347C313.277 177.146 313.518 177.045 313.798 177.045C314.079 177.045 314.319 177.146 314.52 177.347C314.721 177.547 314.821 177.788 314.821 178.068C314.821 178.254 314.774 178.424 314.679 178.58C314.588 178.735 314.465 178.86 314.31 178.955C314.158 179.045 313.988 179.091 313.798 179.091Z" fill="black"/>
<path fill-rule="evenodd" clip-rule="evenodd" d="M259.789 194C259.986 194 260.146 194.096 260.146 194.215L260.146 223.024C260.146 223.143 259.986 223.239 259.789 223.239C259.592 223.239 259.433 223.143 259.433 223.024L259.433 194.215C259.433 194.096 259.592 194 259.789 194Z" fill="#505050"/>
<path fill-rule="evenodd" clip-rule="evenodd" d="M263.963 215.506C264.182 215.561 264.315 215.782 264.26 216.001C264.131 216.518 264.001 217.033 263.871 217.548C263.163 220.348 262.461 223.127 261.962 225.957C261.939 226.088 261.915 226.266 261.886 226.484C261.859 226.688 261.828 226.926 261.787 227.193C261.708 227.718 261.601 228.318 261.443 228.812C261.365 229.059 261.268 229.298 261.144 229.494C261.025 229.683 260.847 229.888 260.583 229.967C260.294 230.054 260.02 229.959 259.794 229.789C259.577 229.624 259.37 229.366 259.164 229.029C258.342 227.689 257.733 226.195 257.181 224.704C257.026 224.287 256.876 223.87 256.727 223.457C256.34 222.384 255.961 221.332 255.525 220.332C255.504 220.284 255.458 220.175 255.394 220.024C255.218 219.607 254.905 218.865 254.592 218.157C254.38 217.678 254.177 217.233 254.028 216.939C253.993 216.871 253.964 216.816 253.94 216.772C253.813 216.703 253.728 216.569 253.728 216.414C253.728 216.387 253.728 216.301 253.771 216.209C253.795 216.157 253.845 216.077 253.943 216.021C254.047 215.961 254.155 215.957 254.238 215.974C254.365 216.001 254.444 216.08 254.463 216.098L254.464 216.099C254.495 216.13 254.52 216.162 254.537 216.186C254.603 216.277 254.68 216.419 254.756 216.569C254.916 216.884 255.127 217.347 255.338 217.827C255.656 218.544 255.992 219.341 256.164 219.748C256.22 219.88 256.259 219.971 256.274 220.006C256.721 221.032 257.114 222.122 257.504 223.205C257.651 223.613 257.797 224.019 257.946 224.421C258.495 225.902 259.082 227.333 259.86 228.603C260.044 228.903 260.188 229.063 260.287 229.138C260.32 229.163 260.342 229.174 260.355 229.18C260.37 229.168 260.405 229.136 260.453 229.06C260.525 228.946 260.596 228.78 260.665 228.564C260.802 228.135 260.902 227.589 260.98 227.071C261.014 226.844 261.045 226.613 261.073 226.405C261.105 226.163 261.134 225.953 261.158 225.815C261.663 222.953 262.373 220.141 263.081 217.342C263.21 216.829 263.34 216.316 263.468 215.803C263.523 215.584 263.744 215.451 263.963 215.506ZM260.369 229.183C260.369 229.184 260.367 229.184 260.363 229.183C260.367 229.183 260.369 229.183 260.369 229.183ZM253.873 216.661C253.873 216.661 253.873 216.662 253.874 216.662C253.873 216.662 253.873 216.662 253.873 216.661Z" fill="#505050"/>
<rect x="102.5" y="231.5" width="313" height="38" rx="7.5" fill="#F8F8F8"/>
<rect x="102.5" y="231.5" width="313" height="38" rx="7.5" stroke="#EFEFEF"/>
<path d="M224.409 256V244.364H231.386V245.614H225.818V249.545H230.864V250.795H225.818V256H224.409ZM233.618 256V247.273H234.959V256H233.618ZM234.3 245.818C234.038 245.818 233.813 245.729 233.624 245.551C233.438 245.373 233.345 245.159 233.345 244.909C233.345 244.659 233.438 244.445 233.624 244.267C233.813 244.089 234.038 244 234.3 244C234.561 244 234.785 244.089 234.97 244.267C235.16 244.445 235.254 244.659 235.254 244.909C235.254 245.159 235.16 245.373 234.97 245.551C234.785 245.729 234.561 245.818 234.3 245.818ZM238.756 250.75V256H237.415V247.273H238.71V248.636H238.824C239.028 248.193 239.339 247.837 239.756 247.568C240.172 247.295 240.71 247.159 241.369 247.159C241.96 247.159 242.477 247.28 242.92 247.523C243.364 247.761 243.708 248.125 243.955 248.614C244.201 249.098 244.324 249.712 244.324 250.455V256H242.983V250.545C242.983 249.86 242.805 249.326 242.449 248.943C242.093 248.557 241.604 248.364 240.983 248.364C240.555 248.364 240.172 248.456 239.835 248.642C239.502 248.828 239.239 249.098 239.045 249.455C238.852 249.811 238.756 250.242 238.756 250.75ZM250.07 256.182C249.342 256.182 248.7 255.998 248.143 255.631C247.587 255.259 247.151 254.737 246.837 254.062C246.522 253.384 246.365 252.583 246.365 251.659C246.365 250.742 246.522 249.947 246.837 249.273C247.151 248.598 247.589 248.078 248.149 247.71C248.71 247.343 249.357 247.159 250.092 247.159C250.661 247.159 251.109 247.254 251.439 247.443C251.772 247.629 252.026 247.841 252.2 248.08C252.378 248.314 252.517 248.508 252.615 248.659H252.729V244.364H254.07V256H252.774V254.659H252.615C252.517 254.818 252.376 255.019 252.195 255.261C252.013 255.5 251.753 255.714 251.416 255.903C251.079 256.089 250.63 256.182 250.07 256.182ZM250.251 254.977C250.789 254.977 251.244 254.837 251.615 254.557C251.986 254.273 252.268 253.881 252.462 253.381C252.655 252.877 252.751 252.295 252.751 251.636C252.751 250.985 252.657 250.415 252.467 249.926C252.278 249.434 251.998 249.051 251.626 248.778C251.255 248.502 250.797 248.364 250.251 248.364C249.683 248.364 249.21 248.509 248.831 248.801C248.456 249.089 248.174 249.481 247.984 249.977C247.799 250.47 247.706 251.023 247.706 251.636C247.706 252.258 247.801 252.822 247.99 253.33C248.183 253.833 248.467 254.235 248.842 254.534C249.221 254.83 249.691 254.977 250.251 254.977ZM264.734 259.455C264.087 259.455 263.53 259.371 263.064 259.205C262.598 259.042 262.21 258.826 261.899 258.557C261.592 258.292 261.348 258.008 261.166 257.705L262.234 256.955C262.356 257.114 262.509 257.295 262.695 257.5C262.88 257.708 263.134 257.888 263.456 258.04C263.782 258.195 264.208 258.273 264.734 258.273C265.439 258.273 266.02 258.102 266.479 257.761C266.937 257.42 267.166 256.886 267.166 256.159V254.386H267.053C266.954 254.545 266.814 254.742 266.632 254.977C266.454 255.208 266.196 255.415 265.859 255.597C265.526 255.775 265.075 255.864 264.507 255.864C263.803 255.864 263.17 255.697 262.609 255.364C262.053 255.03 261.611 254.545 261.286 253.909C260.964 253.273 260.803 252.5 260.803 251.591C260.803 250.697 260.96 249.919 261.274 249.256C261.589 248.589 262.026 248.074 262.587 247.71C263.147 247.343 263.795 247.159 264.53 247.159C265.098 247.159 265.549 247.254 265.882 247.443C266.219 247.629 266.477 247.841 266.655 248.08C266.837 248.314 266.977 248.508 267.075 248.659H267.212V247.273H268.507V256.25C268.507 257 268.337 257.61 267.996 258.08C267.659 258.553 267.204 258.9 266.632 259.119C266.064 259.343 265.431 259.455 264.734 259.455ZM264.689 254.659C265.227 254.659 265.681 254.536 266.053 254.29C266.424 254.044 266.706 253.689 266.899 253.227C267.092 252.765 267.189 252.212 267.189 251.568C267.189 250.939 267.094 250.384 266.905 249.903C266.715 249.422 266.435 249.045 266.064 248.773C265.693 248.5 265.234 248.364 264.689 248.364C264.121 248.364 263.647 248.508 263.268 248.795C262.893 249.083 262.611 249.47 262.422 249.955C262.236 250.439 262.143 250.977 262.143 251.568C262.143 252.174 262.238 252.71 262.428 253.176C262.621 253.638 262.905 254.002 263.28 254.267C263.659 254.528 264.128 254.659 264.689 254.659ZM274.621 256.182C273.78 256.182 273.054 255.996 272.445 255.625C271.839 255.25 271.371 254.727 271.041 254.057C270.715 253.383 270.553 252.598 270.553 251.705C270.553 250.811 270.715 250.023 271.041 249.341C271.371 248.655 271.829 248.121 272.416 247.739C273.007 247.352 273.696 247.159 274.484 247.159C274.939 247.159 275.388 247.235 275.831 247.386C276.274 247.538 276.678 247.784 277.041 248.125C277.405 248.462 277.695 248.909 277.911 249.466C278.126 250.023 278.234 250.708 278.234 251.523V252.091H271.507V250.932H276.871C276.871 250.439 276.772 250 276.575 249.614C276.382 249.227 276.106 248.922 275.746 248.699C275.39 248.475 274.969 248.364 274.484 248.364C273.95 248.364 273.488 248.496 273.098 248.761C272.712 249.023 272.414 249.364 272.206 249.784C271.998 250.205 271.893 250.655 271.893 251.136V251.909C271.893 252.568 272.007 253.127 272.234 253.585C272.465 254.04 272.786 254.386 273.195 254.625C273.604 254.86 274.079 254.977 274.621 254.977C274.973 254.977 275.291 254.928 275.575 254.83C275.863 254.727 276.111 254.576 276.32 254.375C276.528 254.17 276.689 253.917 276.803 253.614L278.098 253.977C277.962 254.417 277.732 254.803 277.411 255.136C277.089 255.466 276.691 255.723 276.217 255.909C275.744 256.091 275.212 256.182 274.621 256.182ZM282.842 256.205C282.289 256.205 281.787 256.1 281.337 255.892C280.886 255.68 280.528 255.375 280.263 254.977C279.998 254.576 279.865 254.091 279.865 253.523C279.865 253.023 279.964 252.617 280.161 252.307C280.357 251.992 280.621 251.746 280.95 251.568C281.28 251.39 281.643 251.258 282.041 251.17C282.443 251.08 282.846 251.008 283.251 250.955C283.782 250.886 284.212 250.835 284.541 250.801C284.875 250.763 285.117 250.701 285.268 250.614C285.424 250.527 285.501 250.375 285.501 250.159V250.114C285.501 249.553 285.348 249.117 285.041 248.807C284.738 248.496 284.278 248.341 283.661 248.341C283.02 248.341 282.518 248.481 282.155 248.761C281.791 249.042 281.536 249.341 281.388 249.659L280.115 249.205C280.342 248.674 280.645 248.261 281.024 247.966C281.407 247.667 281.823 247.458 282.274 247.341C282.729 247.22 283.176 247.159 283.615 247.159C283.895 247.159 284.217 247.193 284.581 247.261C284.948 247.326 285.303 247.46 285.643 247.665C285.988 247.869 286.274 248.178 286.501 248.591C286.729 249.004 286.842 249.557 286.842 250.25V256H285.501V254.818H285.433C285.342 255.008 285.191 255.21 284.979 255.426C284.767 255.642 284.484 255.826 284.132 255.977C283.78 256.129 283.35 256.205 282.842 256.205ZM283.047 255C283.577 255 284.024 254.896 284.388 254.688C284.755 254.479 285.032 254.21 285.217 253.881C285.407 253.551 285.501 253.205 285.501 252.841V251.614C285.445 251.682 285.32 251.744 285.126 251.801C284.937 251.854 284.717 251.902 284.467 251.943C284.221 251.981 283.981 252.015 283.746 252.045C283.515 252.072 283.327 252.095 283.183 252.114C282.835 252.159 282.509 252.233 282.206 252.335C281.907 252.434 281.664 252.583 281.479 252.784C281.297 252.981 281.206 253.25 281.206 253.591C281.206 254.057 281.378 254.409 281.723 254.648C282.071 254.883 282.513 255 283.047 255ZM289.29 256V247.273H290.585V248.591H290.676C290.835 248.159 291.123 247.809 291.54 247.54C291.956 247.271 292.426 247.136 292.949 247.136C293.047 247.136 293.17 247.138 293.318 247.142C293.466 247.146 293.578 247.152 293.653 247.159V248.523C293.608 248.511 293.504 248.494 293.341 248.472C293.182 248.445 293.013 248.432 292.835 248.432C292.411 248.432 292.032 248.521 291.699 248.699C291.369 248.873 291.108 249.116 290.915 249.426C290.725 249.733 290.631 250.083 290.631 250.477V256H289.29Z" fill="black"/>
<path fill-rule="evenodd" clip-rule="evenodd" d="M259.789 271C259.986 271 260.146 271.096 260.146 271.215L260.146 300.024C260.146 300.143 259.986 300.239 259.789 300.239C259.592 300.239 259.433 300.143 259.433 300.024L259.433 271.215C259.433 271.096 259.592 271 259.789 271Z" fill="#505050"/>
<path fill-rule="evenodd" clip-rule="evenodd" d="M263.963 292.506C264.182 292.561 264.315 292.782 264.26 293.001C264.131 293.518 264.001 294.033 263.871 294.548C263.163 297.348 262.461 300.127 261.962 302.957C261.939 303.088 261.915 303.266 261.886 303.484C261.859 303.688 261.828 303.926 261.787 304.193C261.708 304.718 261.601 305.318 261.443 305.812C261.365 306.059 261.268 306.298 261.144 306.494C261.025 306.683 260.847 306.888 260.583 306.967C260.294 307.054 260.02 306.959 259.794 306.789C259.577 306.624 259.37 306.366 259.164 306.029C258.342 304.689 257.733 303.195 257.181 301.704C257.026 301.287 256.876 300.87 256.727 300.457C256.34 299.384 255.961 298.332 255.525 297.332C255.504 297.284 255.458 297.175 255.394 297.024C255.218 296.607 254.905 295.865 254.592 295.157C254.38 294.678 254.177 294.233 254.028 293.939C253.993 293.871 253.964 293.816 253.94 293.772C253.813 293.703 253.728 293.569 253.728 293.414C253.728 293.387 253.728 293.301 253.771 293.209C253.795 293.157 253.845 293.077 253.943 293.021C254.047 292.961 254.155 292.957 254.238 292.974C254.365 293.001 254.444 293.08 254.463 293.098L254.464 293.099C254.495 293.13 254.52 293.162 254.537 293.186C254.603 293.277 254.68 293.419 254.756 293.569C254.916 293.884 255.127 294.347 255.338 294.827C255.656 295.544 255.992 296.341 256.164 296.748C256.22 296.88 256.259 296.971 256.274 297.006C256.721 298.032 257.114 299.122 257.504 300.205C257.651 300.613 257.797 301.019 257.946 301.421C258.495 302.902 259.082 304.333 259.86 305.603C260.044 305.903 260.188 306.063 260.287 306.138C260.32 306.163 260.342 306.174 260.355 306.18C260.37 306.168 260.405 306.136 260.453 306.06C260.525 305.946 260.596 305.78 260.665 305.564C260.802 305.135 260.902 304.589 260.98 304.071C261.014 303.844 261.045 303.613 261.073 303.405C261.105 303.163 261.134 302.953 261.158 302.815C261.663 299.953 262.373 297.141 263.081 294.342C263.21 293.829 263.34 293.316 263.468 292.803C263.523 292.584 263.744 292.451 263.963 292.506ZM260.369 306.183C260.369 306.184 260.367 306.184 260.363 306.183C260.367 306.183 260.369 306.183 260.369 306.183ZM253.873 293.662C253.873 293.661 253.873 293.662 253.874 293.663C253.873 293.662 253.873 293.662 253.873 293.662Z" fill="#505050"/>
<rect x="102.5" y="308.5" width="313" height="38" rx="7.5" fill="#F8F8F8"/>
<rect x="102.5" y="308.5" width="313" height="38" rx="7.5" stroke="#EFEFEF"/>
<path d="M217.909 333V321.364H219.318V327.136H219.455L224.682 321.364H226.523L221.636 326.614L226.523 333H224.818L220.773 327.591L219.318 329.227V333H217.909ZM229.506 327.75V333H228.165V324.273H229.46V325.636H229.574C229.778 325.193 230.089 324.837 230.506 324.568C230.922 324.295 231.46 324.159 232.119 324.159C232.71 324.159 233.227 324.28 233.67 324.523C234.114 324.761 234.458 325.125 234.705 325.614C234.951 326.098 235.074 326.712 235.074 327.455V333H233.733V327.545C233.733 326.86 233.555 326.326 233.199 325.943C232.843 325.557 232.354 325.364 231.733 325.364C231.305 325.364 230.922 325.456 230.585 325.642C230.252 325.828 229.989 326.098 229.795 326.455C229.602 326.811 229.506 327.242 229.506 327.75ZM241.07 333.182C240.282 333.182 239.59 332.994 238.996 332.619C238.405 332.244 237.943 331.72 237.609 331.045C237.28 330.371 237.115 329.583 237.115 328.682C237.115 327.773 237.28 326.979 237.609 326.301C237.943 325.623 238.405 325.097 238.996 324.722C239.59 324.347 240.282 324.159 241.07 324.159C241.857 324.159 242.547 324.347 243.138 324.722C243.732 325.097 244.195 325.623 244.524 326.301C244.857 326.979 245.024 327.773 245.024 328.682C245.024 329.583 244.857 330.371 244.524 331.045C244.195 331.72 243.732 332.244 243.138 332.619C242.547 332.994 241.857 333.182 241.07 333.182ZM241.07 331.977C241.668 331.977 242.161 331.824 242.547 331.517C242.933 331.21 243.219 330.807 243.405 330.307C243.59 329.807 243.683 329.265 243.683 328.682C243.683 328.098 243.59 327.555 243.405 327.051C243.219 326.547 242.933 326.14 242.547 325.83C242.161 325.519 241.668 325.364 241.07 325.364C240.471 325.364 239.979 325.519 239.592 325.83C239.206 326.14 238.92 326.547 238.734 327.051C238.549 327.555 238.456 328.098 238.456 328.682C238.456 329.265 238.549 329.807 238.734 330.307C238.92 330.807 239.206 331.21 239.592 331.517C239.979 331.824 240.471 331.977 241.07 331.977ZM248.751 333L246.092 324.273H247.501L249.388 330.955H249.479L251.342 324.273H252.774L254.615 330.932H254.706L256.592 324.273H258.001L255.342 333H254.024L252.115 326.295H251.979L250.07 333H248.751ZM264.274 336.273V324.273H265.57V325.659H265.729C265.827 325.508 265.964 325.314 266.138 325.08C266.316 324.841 266.57 324.629 266.899 324.443C267.232 324.254 267.683 324.159 268.251 324.159C268.986 324.159 269.634 324.343 270.195 324.71C270.755 325.078 271.193 325.598 271.507 326.273C271.821 326.947 271.979 327.742 271.979 328.659C271.979 329.583 271.821 330.384 271.507 331.062C271.193 331.737 270.757 332.259 270.2 332.631C269.643 332.998 269.001 333.182 268.274 333.182C267.714 333.182 267.265 333.089 266.928 332.903C266.59 332.714 266.331 332.5 266.149 332.261C265.967 332.019 265.827 331.818 265.729 331.659H265.615V336.273H264.274ZM265.592 328.636C265.592 329.295 265.689 329.877 265.882 330.381C266.075 330.881 266.357 331.273 266.729 331.557C267.1 331.837 267.554 331.977 268.092 331.977C268.653 331.977 269.121 331.83 269.496 331.534C269.875 331.235 270.159 330.833 270.348 330.33C270.541 329.822 270.638 329.258 270.638 328.636C270.638 328.023 270.543 327.47 270.354 326.977C270.168 326.481 269.886 326.089 269.507 325.801C269.132 325.509 268.661 325.364 268.092 325.364C267.547 325.364 267.089 325.502 266.717 325.778C266.346 326.051 266.066 326.434 265.876 326.926C265.687 327.415 265.592 327.985 265.592 328.636ZM274.024 333V324.273H275.32V325.591H275.411C275.57 325.159 275.857 324.809 276.274 324.54C276.691 324.271 277.161 324.136 277.683 324.136C277.782 324.136 277.905 324.138 278.053 324.142C278.2 324.146 278.312 324.152 278.388 324.159V325.523C278.342 325.511 278.238 325.494 278.075 325.472C277.916 325.445 277.748 325.432 277.57 325.432C277.145 325.432 276.767 325.521 276.433 325.699C276.104 325.873 275.842 326.116 275.649 326.426C275.46 326.733 275.365 327.083 275.365 327.477V333H274.024ZM279.977 333V324.273H281.318V333H279.977ZM280.659 322.818C280.398 322.818 280.172 322.729 279.983 322.551C279.797 322.373 279.705 322.159 279.705 321.909C279.705 321.659 279.797 321.445 279.983 321.267C280.172 321.089 280.398 321 280.659 321C280.92 321 281.144 321.089 281.33 321.267C281.519 321.445 281.614 321.659 281.614 321.909C281.614 322.159 281.519 322.373 281.33 322.551C281.144 322.729 280.92 322.818 280.659 322.818ZM287.32 333.182C286.501 333.182 285.797 332.989 285.206 332.602C284.615 332.216 284.161 331.684 283.842 331.006C283.524 330.328 283.365 329.553 283.365 328.682C283.365 327.795 283.528 327.013 283.854 326.335C284.183 325.653 284.642 325.121 285.229 324.739C285.82 324.352 286.509 324.159 287.297 324.159C287.911 324.159 288.464 324.273 288.956 324.5C289.448 324.727 289.852 325.045 290.166 325.455C290.481 325.864 290.676 326.341 290.751 326.886H289.411C289.308 326.489 289.081 326.136 288.729 325.83C288.38 325.519 287.911 325.364 287.32 325.364C286.797 325.364 286.339 325.5 285.945 325.773C285.554 326.042 285.25 326.422 285.03 326.915C284.814 327.403 284.706 327.977 284.706 328.636C284.706 329.311 284.812 329.898 285.024 330.398C285.24 330.898 285.543 331.286 285.933 331.562C286.327 331.839 286.789 331.977 287.32 331.977C287.668 331.977 287.984 331.917 288.268 331.795C288.553 331.674 288.793 331.5 288.99 331.273C289.187 331.045 289.327 330.773 289.411 330.455H290.751C290.676 330.97 290.488 331.434 290.189 331.847C289.893 332.256 289.501 332.581 289.013 332.824C288.528 333.062 287.964 333.182 287.32 333.182ZM296.371 333.182C295.53 333.182 294.804 332.996 294.195 332.625C293.589 332.25 293.121 331.727 292.791 331.057C292.465 330.383 292.303 329.598 292.303 328.705C292.303 327.811 292.465 327.023 292.791 326.341C293.121 325.655 293.579 325.121 294.166 324.739C294.757 324.352 295.446 324.159 296.234 324.159C296.689 324.159 297.138 324.235 297.581 324.386C298.024 324.538 298.428 324.784 298.791 325.125C299.155 325.462 299.445 325.909 299.661 326.466C299.876 327.023 299.984 327.708 299.984 328.523V329.091H293.257V327.932H298.621C298.621 327.439 298.522 327 298.325 326.614C298.132 326.227 297.856 325.922 297.496 325.699C297.14 325.475 296.719 325.364 296.234 325.364C295.7 325.364 295.238 325.496 294.848 325.761C294.462 326.023 294.164 326.364 293.956 326.784C293.748 327.205 293.643 327.655 293.643 328.136V328.909C293.643 329.568 293.757 330.127 293.984 330.585C294.215 331.04 294.536 331.386 294.945 331.625C295.354 331.86 295.829 331.977 296.371 331.977C296.723 331.977 297.041 331.928 297.325 331.83C297.613 331.727 297.861 331.576 298.07 331.375C298.278 331.17 298.439 330.917 298.553 330.614L299.848 330.977C299.712 331.417 299.482 331.803 299.161 332.136C298.839 332.466 298.441 332.723 297.967 332.909C297.494 333.091 296.962 333.182 296.371 333.182Z" fill="black"/>
<path fill-rule="evenodd" clip-rule="evenodd" d="M259.789 348C259.986 348 260.146 348.096 260.146 348.215L260.146 377.024C260.146 377.143 259.986 377.239 259.789 377.239C259.592 377.239 259.433 377.143 259.433 377.024L259.433 348.215C259.433 348.096 259.592 348 259.789 348Z" fill="#505050"/>
<path fill-rule="evenodd" clip-rule="evenodd" d="M263.963 369.506C264.182 369.561 264.315 369.782 264.26 370.001C264.131 370.518 264.001 371.033 263.871 371.548C263.163 374.348 262.461 377.127 261.962 379.957C261.939 380.088 261.915 380.266 261.886 380.484C261.859 380.688 261.828 380.926 261.787 381.193C261.708 381.718 261.601 382.318 261.443 382.812C261.365 383.059 261.268 383.298 261.144 383.494C261.025 383.683 260.847 383.888 260.583 383.967C260.294 384.054 260.02 383.959 259.794 383.789C259.577 383.624 259.37 383.366 259.164 383.029C258.342 381.689 257.733 380.195 257.181 378.704C257.026 378.287 256.876 377.87 256.727 377.457C256.34 376.384 255.961 375.332 255.525 374.332C255.504 374.284 255.458 374.175 255.394 374.024C255.218 373.607 254.905 372.865 254.592 372.157C254.38 371.678 254.177 371.233 254.028 370.939C253.993 370.871 253.964 370.816 253.94 370.772C253.813 370.703 253.728 370.569 253.728 370.414C253.728 370.387 253.728 370.301 253.771 370.209C253.795 370.157 253.845 370.077 253.943 370.021C254.047 369.961 254.155 369.957 254.238 369.974C254.365 370.001 254.444 370.08 254.463 370.098L254.464 370.099C254.495 370.13 254.52 370.162 254.537 370.186C254.603 370.277 254.68 370.419 254.756 370.569C254.916 370.884 255.127 371.347 255.338 371.827C255.656 372.544 255.992 373.341 256.164 373.748C256.22 373.88 256.259 373.971 256.274 374.006C256.721 375.032 257.114 376.122 257.504 377.205C257.651 377.613 257.797 378.019 257.946 378.421C258.495 379.902 259.082 381.333 259.86 382.603C260.044 382.903 260.188 383.063 260.287 383.138C260.32 383.163 260.342 383.174 260.355 383.18C260.37 383.168 260.405 383.136 260.453 383.06C260.525 382.946 260.596 382.78 260.665 382.564C260.802 382.135 260.902 381.589 260.98 381.071C261.014 380.844 261.045 380.613 261.073 380.405C261.105 380.163 261.134 379.953 261.158 379.815C261.663 376.953 262.373 374.141 263.081 371.342C263.21 370.829 263.34 370.316 263.468 369.803C263.523 369.584 263.744 369.451 263.963 369.506ZM260.369 383.183C260.369 383.184 260.367 383.184 260.363 383.183C260.367 383.183 260.369 383.183 260.369 383.183ZM253.873 370.662C253.873 370.661 253.873 370.662 253.874 370.663C253.873 370.662 253.873 370.662 253.873 370.662Z" fill="#505050"/>
<rect x="102.5" y="385.5" width="313" height="38" rx="7.5" fill="#F8F8F8"/>
<rect x="102.5" y="385.5" width="313" height="38" rx="7.5" stroke="#EFEFEF"/>
<path d="M240.909 410V398.364H244.977C245.788 398.364 246.456 398.504 246.983 398.784C247.509 399.061 247.902 399.434 248.159 399.903C248.417 400.369 248.545 400.886 248.545 401.455C248.545 401.955 248.456 402.367 248.278 402.693C248.104 403.019 247.873 403.277 247.585 403.466C247.301 403.655 246.992 403.795 246.659 403.886V404C247.015 404.023 247.373 404.148 247.733 404.375C248.093 404.602 248.394 404.928 248.636 405.352C248.879 405.777 249 406.295 249 406.909C249 407.492 248.867 408.017 248.602 408.483C248.337 408.949 247.919 409.318 247.347 409.591C246.775 409.864 246.03 410 245.114 410H240.909ZM242.318 408.75H245.114C246.034 408.75 246.688 408.572 247.074 408.216C247.464 407.856 247.659 407.42 247.659 406.909C247.659 406.515 247.559 406.152 247.358 405.818C247.157 405.481 246.871 405.212 246.5 405.011C246.129 404.807 245.689 404.705 245.182 404.705H242.318V408.75ZM242.318 403.477H244.932C245.356 403.477 245.739 403.394 246.08 403.227C246.424 403.061 246.697 402.826 246.898 402.523C247.102 402.22 247.205 401.864 247.205 401.455C247.205 400.943 247.027 400.509 246.67 400.153C246.314 399.794 245.75 399.614 244.977 399.614H242.318V403.477ZM254.679 410.182C253.891 410.182 253.2 409.994 252.605 409.619C252.014 409.244 251.552 408.72 251.219 408.045C250.889 407.371 250.724 406.583 250.724 405.682C250.724 404.773 250.889 403.979 251.219 403.301C251.552 402.623 252.014 402.097 252.605 401.722C253.2 401.347 253.891 401.159 254.679 401.159C255.467 401.159 256.156 401.347 256.747 401.722C257.342 402.097 257.804 402.623 258.134 403.301C258.467 403.979 258.634 404.773 258.634 405.682C258.634 406.583 258.467 407.371 258.134 408.045C257.804 408.72 257.342 409.244 256.747 409.619C256.156 409.994 255.467 410.182 254.679 410.182ZM254.679 408.977C255.277 408.977 255.77 408.824 256.156 408.517C256.543 408.21 256.829 407.807 257.014 407.307C257.2 406.807 257.293 406.265 257.293 405.682C257.293 405.098 257.2 404.555 257.014 404.051C256.829 403.547 256.543 403.14 256.156 402.83C255.77 402.519 255.277 402.364 254.679 402.364C254.08 402.364 253.588 402.519 253.202 402.83C252.815 403.14 252.529 403.547 252.344 404.051C252.158 404.555 252.065 405.098 252.065 405.682C252.065 406.265 252.158 406.807 252.344 407.307C252.529 407.807 252.815 408.21 253.202 408.517C253.588 408.824 254.08 408.977 254.679 408.977ZM264.226 410.182C263.438 410.182 262.747 409.994 262.152 409.619C261.561 409.244 261.099 408.72 260.766 408.045C260.436 407.371 260.271 406.583 260.271 405.682C260.271 404.773 260.436 403.979 260.766 403.301C261.099 402.623 261.561 402.097 262.152 401.722C262.747 401.347 263.438 401.159 264.226 401.159C265.014 401.159 265.703 401.347 266.294 401.722C266.889 402.097 267.351 402.623 267.68 403.301C268.014 403.979 268.18 404.773 268.18 405.682C268.18 406.583 268.014 407.371 267.68 408.045C267.351 408.72 266.889 409.244 266.294 409.619C265.703 409.994 265.014 410.182 264.226 410.182ZM264.226 408.977C264.824 408.977 265.317 408.824 265.703 408.517C266.089 408.21 266.375 407.807 266.561 407.307C266.747 406.807 266.839 406.265 266.839 405.682C266.839 405.098 266.747 404.555 266.561 404.051C266.375 403.547 266.089 403.14 265.703 402.83C265.317 402.519 264.824 402.364 264.226 402.364C263.627 402.364 263.135 402.519 262.749 402.83C262.362 403.14 262.076 403.547 261.891 404.051C261.705 404.555 261.612 405.098 261.612 405.682C261.612 406.265 261.705 406.807 261.891 407.307C262.076 407.807 262.362 408.21 262.749 408.517C263.135 408.824 263.627 408.977 264.226 408.977ZM271.477 406.818L271.455 405.159H271.727L275.545 401.273H277.205L273.136 405.386H273.023L271.477 406.818ZM270.227 410V398.364H271.568V410H270.227ZM275.773 410L272.364 405.682L273.318 404.75L277.477 410H275.773Z" fill="black"/>
</svg>
