<svg width="518" height="424" viewBox="0 0 518 424" fill="none" xmlns="http://www.w3.org/2000/svg">
<rect x="102.5" y="0.5" width="313" height="38" rx="7.5" fill="#F8F8F8"/>
<rect x="102.5" y="0.5" width="313" height="38" rx="7.5" stroke="#EFEFEF"/>
<path d="M208.773 14.6136V13.3636H217.5V14.6136H213.841V25H212.432V14.6136H208.773ZM218.587 25V16.2727H219.882V17.5909H219.973C220.132 17.1591 220.42 16.8087 220.837 16.5398C221.253 16.2708 221.723 16.1364 222.246 16.1364C222.344 16.1364 222.467 16.1383 222.615 16.142C222.763 16.1458 222.875 16.1515 222.95 16.1591V17.5227C222.905 17.5114 222.801 17.4943 222.638 17.4716C222.479 17.4451 222.31 17.4318 222.132 17.4318C221.708 17.4318 221.329 17.5208 220.996 17.6989C220.666 17.8731 220.405 18.1155 220.212 18.4261C220.022 18.733 219.928 19.0833 219.928 19.4773V25H218.587ZM224.54 25V16.2727H225.881V25H224.54ZM225.222 14.8182C224.96 14.8182 224.735 14.7292 224.545 14.5511C224.36 14.3731 224.267 14.1591 224.267 13.9091C224.267 13.6591 224.36 13.4451 224.545 13.267C224.735 13.089 224.96 13 225.222 13C225.483 13 225.706 13.089 225.892 13.267C226.081 13.4451 226.176 13.6591 226.176 13.9091C226.176 14.1591 226.081 14.3731 225.892 14.5511C225.706 14.7292 225.483 14.8182 225.222 14.8182ZM228.337 28.2727V16.2727H229.632V17.6591H229.791C229.89 17.5076 230.026 17.3144 230.2 17.0795C230.378 16.8409 230.632 16.6288 230.962 16.4432C231.295 16.2538 231.746 16.1591 232.314 16.1591C233.049 16.1591 233.696 16.3428 234.257 16.7102C234.818 17.0777 235.255 17.5985 235.57 18.2727C235.884 18.947 236.041 19.7424 236.041 20.6591C236.041 21.5833 235.884 22.3845 235.57 23.0625C235.255 23.7367 234.82 24.2595 234.263 24.6307C233.706 24.9981 233.064 25.1818 232.337 25.1818C231.776 25.1818 231.327 25.089 230.99 24.9034C230.653 24.714 230.393 24.5 230.212 24.2614C230.03 24.0189 229.89 23.8182 229.791 23.6591H229.678V28.2727H228.337ZM229.655 20.6364C229.655 21.2955 229.751 21.8769 229.945 22.3807C230.138 22.8807 230.42 23.2727 230.791 23.5568C231.162 23.8371 231.617 23.9773 232.155 23.9773C232.715 23.9773 233.183 23.8295 233.558 23.5341C233.937 23.2348 234.221 22.8333 234.411 22.3295C234.604 21.822 234.7 21.2576 234.7 20.6364C234.7 20.0227 234.606 19.4697 234.416 18.9773C234.231 18.4811 233.948 18.089 233.57 17.8011C233.195 17.5095 232.723 17.3636 232.155 17.3636C231.609 17.3636 231.151 17.5019 230.78 17.7784C230.409 18.0511 230.128 18.4337 229.939 18.9261C229.75 19.4148 229.655 19.9848 229.655 20.6364ZM242.587 25V16.2727H243.928V25H242.587ZM243.268 14.8182C243.007 14.8182 242.782 14.7292 242.592 14.5511C242.407 14.3731 242.314 14.1591 242.314 13.9091C242.314 13.6591 242.407 13.4451 242.592 13.267C242.782 13.089 243.007 13 243.268 13C243.53 13 243.753 13.089 243.939 13.267C244.128 13.4451 244.223 13.6591 244.223 13.9091C244.223 14.1591 244.128 14.3731 243.939 14.5511C243.753 14.7292 243.53 14.8182 243.268 14.8182ZM246.384 25V16.2727H247.679V17.6364H247.793C247.974 17.1705 248.268 16.8087 248.673 16.5511C249.079 16.2898 249.565 16.1591 250.134 16.1591C250.709 16.1591 251.188 16.2898 251.571 16.5511C251.957 16.8087 252.259 17.1705 252.474 17.6364H252.565C252.789 17.1856 253.124 16.8277 253.571 16.5625C254.018 16.2936 254.554 16.1591 255.179 16.1591C255.959 16.1591 256.598 16.4034 257.094 16.892C257.59 17.3769 257.838 18.1326 257.838 19.1591V25H256.497V19.1591C256.497 18.5152 256.321 18.0549 255.969 17.7784C255.616 17.5019 255.202 17.3636 254.724 17.3636C254.111 17.3636 253.635 17.5492 253.298 17.9205C252.961 18.2879 252.793 18.7538 252.793 19.3182V25H251.429V19.0227C251.429 18.5265 251.268 18.1269 250.946 17.8239C250.624 17.517 250.209 17.3636 249.702 17.3636C249.353 17.3636 249.027 17.4564 248.724 17.642C248.425 17.8277 248.183 18.0852 247.997 18.4148C247.815 18.7405 247.724 19.1174 247.724 19.5455V25H246.384ZM260.29 28.2727V16.2727H261.585V17.6591H261.744C261.843 17.5076 261.979 17.3144 262.153 17.0795C262.331 16.8409 262.585 16.6288 262.915 16.4432C263.248 16.2538 263.699 16.1591 264.267 16.1591C265.002 16.1591 265.65 16.3428 266.21 16.7102C266.771 17.0777 267.208 17.5985 267.523 18.2727C267.837 18.947 267.994 19.7424 267.994 20.6591C267.994 21.5833 267.837 22.3845 267.523 23.0625C267.208 23.7367 266.773 24.2595 266.216 24.6307C265.659 24.9981 265.017 25.1818 264.29 25.1818C263.729 25.1818 263.28 25.089 262.943 24.9034C262.606 24.714 262.347 24.5 262.165 24.2614C261.983 24.0189 261.843 23.8182 261.744 23.6591H261.631V28.2727H260.29ZM261.608 20.6364C261.608 21.2955 261.705 21.8769 261.898 22.3807C262.091 22.8807 262.373 23.2727 262.744 23.5568C263.116 23.8371 263.57 23.9773 264.108 23.9773C264.669 23.9773 265.136 23.8295 265.511 23.5341C265.89 23.2348 266.174 22.8333 266.364 22.3295C266.557 21.822 266.653 21.2576 266.653 20.6364C266.653 20.0227 266.559 19.4697 266.369 18.9773C266.184 18.4811 265.902 18.089 265.523 17.8011C265.148 17.5095 264.676 17.3636 264.108 17.3636C263.563 17.3636 263.104 17.5019 262.733 17.7784C262.362 18.0511 262.081 18.4337 261.892 18.9261C261.703 19.4148 261.608 19.9848 261.608 20.6364ZM273.585 25.1818C272.797 25.1818 272.106 24.9943 271.511 24.6193C270.92 24.2443 270.458 23.7197 270.125 23.0455C269.795 22.3712 269.631 21.5833 269.631 20.6818C269.631 19.7727 269.795 18.9792 270.125 18.3011C270.458 17.6231 270.92 17.0966 271.511 16.7216C272.106 16.3466 272.797 16.1591 273.585 16.1591C274.373 16.1591 275.063 16.3466 275.653 16.7216C276.248 17.0966 276.71 17.6231 277.04 18.3011C277.373 18.9792 277.54 19.7727 277.54 20.6818C277.54 21.5833 277.373 22.3712 277.04 23.0455C276.71 23.7197 276.248 24.2443 275.653 24.6193C275.063 24.9943 274.373 25.1818 273.585 25.1818ZM273.585 23.9773C274.184 23.9773 274.676 23.8239 275.062 23.517C275.449 23.2102 275.735 22.8068 275.92 22.3068C276.106 21.8068 276.199 21.2652 276.199 20.6818C276.199 20.0985 276.106 19.5549 275.92 19.0511C275.735 18.5473 275.449 18.1402 275.062 17.8295C274.676 17.5189 274.184 17.3636 273.585 17.3636C272.987 17.3636 272.494 17.5189 272.108 17.8295C271.722 18.1402 271.436 18.5473 271.25 19.0511C271.064 19.5549 270.972 20.0985 270.972 20.6818C270.972 21.2652 271.064 21.8068 271.25 22.3068C271.436 22.8068 271.722 23.2102 272.108 23.517C272.494 23.8239 272.987 23.9773 273.585 23.9773ZM279.587 25V16.2727H280.882V17.5909H280.973C281.132 17.1591 281.42 16.8087 281.837 16.5398C282.253 16.2708 282.723 16.1364 283.246 16.1364C283.344 16.1364 283.467 16.1383 283.615 16.142C283.763 16.1458 283.875 16.1515 283.95 16.1591V17.5227C283.905 17.5114 283.801 17.4943 283.638 17.4716C283.479 17.4451 283.31 17.4318 283.132 17.4318C282.708 17.4318 282.329 17.5208 281.996 17.6989C281.666 17.8731 281.405 18.1155 281.212 18.4261C281.022 18.733 280.928 19.0833 280.928 19.4773V25H279.587ZM289.882 16.2727V17.4091H285.359V16.2727H289.882ZM286.678 14.1818H288.018V22.5C288.018 22.8788 288.073 23.1629 288.183 23.3523C288.297 23.5379 288.441 23.6629 288.615 23.7273C288.793 23.7879 288.981 23.8182 289.178 23.8182C289.325 23.8182 289.446 23.8106 289.541 23.7955C289.636 23.7765 289.712 23.7614 289.768 23.75L290.041 24.9545C289.95 24.9886 289.823 25.0227 289.661 25.0568C289.498 25.0947 289.291 25.1136 289.041 25.1136C288.662 25.1136 288.291 25.0322 287.928 24.8693C287.568 24.7064 287.268 24.4583 287.03 24.125C286.795 23.7917 286.678 23.3712 286.678 22.8636V14.1818ZM295.464 25.1818C294.624 25.1818 293.898 24.9962 293.288 24.625C292.682 24.25 292.214 23.7273 291.885 23.0568C291.559 22.3826 291.396 21.5985 291.396 20.7045C291.396 19.8106 291.559 19.0227 291.885 18.3409C292.214 17.6553 292.673 17.1212 293.26 16.7386C293.851 16.3523 294.54 16.1591 295.328 16.1591C295.783 16.1591 296.232 16.2348 296.675 16.3864C297.118 16.5379 297.521 16.7841 297.885 17.125C298.249 17.4621 298.538 17.9091 298.754 18.4659C298.97 19.0227 299.078 19.7083 299.078 20.5227V21.0909H292.351V19.9318H297.714C297.714 19.4394 297.616 19 297.419 18.6136C297.226 18.2273 296.949 17.9223 296.589 17.6989C296.233 17.4754 295.813 17.3636 295.328 17.3636C294.794 17.3636 294.332 17.4962 293.942 17.7614C293.555 18.0227 293.258 18.3636 293.05 18.7841C292.841 19.2045 292.737 19.6553 292.737 20.1364V20.9091C292.737 21.5682 292.851 22.1269 293.078 22.5852C293.309 23.0398 293.629 23.3864 294.038 23.625C294.447 23.8598 294.923 23.9773 295.464 23.9773C295.817 23.9773 296.135 23.928 296.419 23.8295C296.707 23.7273 296.955 23.5758 297.163 23.375C297.372 23.1705 297.533 22.9167 297.646 22.6136L298.942 22.9773C298.805 23.4167 298.576 23.803 298.254 24.1364C297.932 24.4659 297.535 24.7235 297.061 24.9091C296.588 25.0909 296.055 25.1818 295.464 25.1818ZM304.413 25.1818C303.686 25.1818 303.044 24.9981 302.487 24.6307C301.93 24.2595 301.495 23.7367 301.18 23.0625C300.866 22.3845 300.709 21.5833 300.709 20.6591C300.709 19.7424 300.866 18.947 301.18 18.2727C301.495 17.5985 301.932 17.0777 302.493 16.7102C303.054 16.3428 303.701 16.1591 304.436 16.1591C305.004 16.1591 305.453 16.2538 305.783 16.4432C306.116 16.6288 306.37 16.8409 306.544 17.0795C306.722 17.3144 306.86 17.5076 306.959 17.6591H307.072V13.3636H308.413V25H307.118V23.6591H306.959C306.86 23.8182 306.72 24.0189 306.538 24.2614C306.357 24.5 306.097 24.714 305.76 24.9034C305.423 25.089 304.974 25.1818 304.413 25.1818ZM304.595 23.9773C305.133 23.9773 305.588 23.8371 305.959 23.5568C306.33 23.2727 306.612 22.8807 306.805 22.3807C306.999 21.8769 307.095 21.2955 307.095 20.6364C307.095 19.9848 307 19.4148 306.811 18.9261C306.622 18.4337 306.341 18.0511 305.97 17.7784C305.599 17.5019 305.141 17.3636 304.595 17.3636C304.027 17.3636 303.554 17.5095 303.175 17.8011C302.8 18.089 302.518 18.4811 302.328 18.9773C302.143 19.4697 302.05 20.0227 302.05 20.6364C302.05 21.2576 302.144 21.822 302.334 22.3295C302.527 22.8333 302.811 23.2348 303.186 23.5341C303.565 23.8295 304.035 23.9773 304.595 23.9773Z" fill="black"/>
<path fill-rule="evenodd" clip-rule="evenodd" d="M259.789 40C259.986 40 260.146 40.0961 260.146 40.2147L260.146 69.0242C260.146 69.1428 259.986 69.2389 259.789 69.2389C259.592 69.2389 259.433 69.1428 259.433 69.0242L259.433 40.2147C259.433 40.0961 259.592 40 259.789 40Z" fill="#505050"/>
<path fill-rule="evenodd" clip-rule="evenodd" d="M263.963 61.506C264.182 61.5607 264.315 61.7823 264.26 62.0011C264.131 62.5178 264.001 63.0333 263.871 63.5482C263.163 66.3478 262.461 69.1269 261.962 71.9571C261.939 72.0881 261.915 72.2662 261.886 72.4839C261.859 72.6876 261.828 72.9259 261.787 73.1926C261.708 73.7177 261.601 74.3178 261.443 74.8123C261.365 75.0587 261.268 75.2983 261.144 75.4945C261.025 75.6833 260.847 75.8876 260.583 75.9671C260.294 76.0542 260.02 75.9594 259.794 75.7886C259.577 75.6241 259.37 75.3658 259.164 75.0293C258.342 73.6888 257.733 72.1952 257.181 70.7043C257.026 70.2866 256.876 69.8703 256.727 69.4573C256.34 68.3837 255.961 67.3318 255.525 66.332C255.504 66.2838 255.458 66.1753 255.394 66.0236C255.218 65.607 254.905 64.8653 254.592 64.1568C254.38 63.6782 254.177 63.2327 254.028 62.9387C253.993 62.8707 253.964 62.8155 253.94 62.7723C253.813 62.703 253.728 62.5686 253.728 62.4141C253.728 62.3871 253.728 62.3009 253.771 62.2094C253.795 62.1573 253.845 62.0773 253.943 62.0212C254.047 61.9611 254.155 61.9572 254.238 61.9744C254.365 62.001 254.444 62.0798 254.463 62.0981L254.464 62.0992C254.495 62.1301 254.52 62.1622 254.537 62.1861C254.603 62.2772 254.68 62.4189 254.756 62.5695C254.916 62.8845 255.127 63.3472 255.338 63.8268C255.656 64.5443 255.992 65.3406 256.164 65.748C256.22 65.8799 256.259 65.9711 256.274 66.0055C256.721 67.0317 257.114 68.1222 257.504 69.205C257.651 69.6125 257.797 70.019 257.946 70.4206C258.495 71.9015 259.082 73.3331 259.86 74.6026C260.044 74.9031 260.188 75.0626 260.287 75.1379C260.32 75.1627 260.342 75.1743 260.355 75.1795C260.37 75.1677 260.405 75.1361 260.453 75.0596C260.525 74.9462 260.596 74.7798 260.665 74.5644C260.802 74.1353 260.902 73.589 260.98 73.0712C261.014 72.844 261.045 72.6129 261.073 72.4049C261.105 72.1632 261.134 71.9526 261.158 71.8152C261.663 68.9532 262.373 66.141 263.081 63.342C263.21 62.8286 263.34 62.3157 263.468 61.8031C263.523 61.5843 263.744 61.4513 263.963 61.506ZM260.369 75.1834C260.369 75.1837 260.367 75.1837 260.363 75.1826C260.367 75.1825 260.369 75.1831 260.369 75.1834ZM253.873 62.6615C253.873 62.6615 253.873 62.6618 253.874 62.6625C253.873 62.6619 253.873 62.6615 253.873 62.6615Z" fill="#505050"/>
<rect x="102.5" y="77.5" width="313" height="38" rx="7.5" fill="#F8F8F8"/>
<rect x="102.5" y="77.5" width="313" height="38" rx="7.5" stroke="#EFEFEF"/>
<path d="M177.909 102V90.3636H181.841C182.754 90.3636 183.5 90.5284 184.08 90.858C184.663 91.1837 185.095 91.625 185.375 92.1818C185.655 92.7386 185.795 93.3598 185.795 94.0455C185.795 94.7311 185.655 95.3542 185.375 95.9148C185.098 96.4754 184.67 96.9223 184.091 97.2557C183.511 97.5852 182.769 97.75 181.864 97.75H179.045V96.5H181.818C182.443 96.5 182.945 96.392 183.324 96.1761C183.703 95.9602 183.977 95.6686 184.148 95.3011C184.322 94.9299 184.409 94.5114 184.409 94.0455C184.409 93.5795 184.322 93.1629 184.148 92.7955C183.977 92.428 183.701 92.1402 183.318 91.9318C182.936 91.7197 182.428 91.6136 181.795 91.6136H179.318V102H177.909ZM189.224 90.3636V102H187.884V90.3636H189.224ZM194.249 102.205C193.696 102.205 193.194 102.1 192.743 101.892C192.292 101.68 191.934 101.375 191.669 100.977C191.404 100.576 191.271 100.091 191.271 99.5227C191.271 99.0227 191.37 98.6174 191.567 98.3068C191.764 97.9924 192.027 97.7462 192.357 97.5682C192.686 97.3902 193.05 97.2576 193.447 97.1705C193.849 97.0795 194.252 97.0076 194.658 96.9545C195.188 96.8864 195.618 96.8352 195.947 96.8011C196.281 96.7633 196.523 96.7008 196.675 96.6136C196.83 96.5265 196.908 96.375 196.908 96.1591V96.1136C196.908 95.553 196.754 95.1174 196.447 94.8068C196.144 94.4962 195.684 94.3409 195.067 94.3409C194.427 94.3409 193.925 94.4811 193.561 94.7614C193.197 95.0417 192.942 95.3409 192.794 95.6591L191.521 95.2045C191.749 94.6742 192.052 94.2614 192.43 93.9659C192.813 93.6667 193.23 93.4583 193.68 93.3409C194.135 93.2197 194.582 93.1591 195.021 93.1591C195.302 93.1591 195.624 93.1932 195.987 93.2614C196.355 93.3258 196.709 93.4602 197.05 93.6648C197.394 93.8693 197.68 94.178 197.908 94.5909C198.135 95.0038 198.249 95.5568 198.249 96.25V102H196.908V100.818H196.839C196.749 101.008 196.597 101.21 196.385 101.426C196.173 101.642 195.891 101.826 195.538 101.977C195.186 102.129 194.756 102.205 194.249 102.205ZM194.453 101C194.983 101 195.43 100.896 195.794 100.688C196.161 100.479 196.438 100.21 196.624 99.8807C196.813 99.5511 196.908 99.2045 196.908 98.8409V97.6136C196.851 97.6818 196.726 97.7443 196.533 97.8011C196.343 97.8542 196.124 97.9015 195.874 97.9432C195.627 97.9811 195.387 98.0152 195.152 98.0455C194.921 98.072 194.733 98.0947 194.589 98.1136C194.241 98.1591 193.915 98.233 193.612 98.3352C193.313 98.4337 193.071 98.5833 192.885 98.7841C192.703 98.9811 192.612 99.25 192.612 99.5909C192.612 100.057 192.785 100.409 193.129 100.648C193.478 100.883 193.919 101 194.453 101ZM204.241 102.182C203.423 102.182 202.719 101.989 202.128 101.602C201.537 101.216 201.082 100.684 200.764 100.006C200.446 99.3277 200.287 98.553 200.287 97.6818C200.287 96.7955 200.45 96.0133 200.776 95.3352C201.105 94.6534 201.563 94.1212 202.151 93.7386C202.741 93.3523 203.431 93.1591 204.219 93.1591C204.832 93.1591 205.385 93.2727 205.878 93.5C206.37 93.7273 206.774 94.0455 207.088 94.4545C207.402 94.8636 207.598 95.3409 207.673 95.8864H206.332C206.23 95.4886 206.003 95.1364 205.651 94.8295C205.302 94.5189 204.832 94.3636 204.241 94.3636C203.719 94.3636 203.26 94.5 202.866 94.7727C202.476 95.0417 202.171 95.4223 201.952 95.9148C201.736 96.4034 201.628 96.9773 201.628 97.6364C201.628 98.3106 201.734 98.8977 201.946 99.3977C202.162 99.8977 202.465 100.286 202.855 100.562C203.249 100.839 203.711 100.977 204.241 100.977C204.59 100.977 204.906 100.917 205.19 100.795C205.474 100.674 205.715 100.5 205.912 100.273C206.109 100.045 206.249 99.7727 206.332 99.4545H207.673C207.598 99.9697 207.41 100.434 207.111 100.847C206.815 101.256 206.423 101.581 205.935 101.824C205.45 102.062 204.885 102.182 204.241 102.182ZM213.293 102.182C212.452 102.182 211.726 101.996 211.116 101.625C210.51 101.25 210.043 100.727 209.713 100.057C209.387 99.3826 209.224 98.5985 209.224 97.7045C209.224 96.8106 209.387 96.0227 209.713 95.3409C210.043 94.6553 210.501 94.1212 211.088 93.7386C211.679 93.3523 212.368 93.1591 213.156 93.1591C213.611 93.1591 214.06 93.2348 214.503 93.3864C214.946 93.5379 215.349 93.7841 215.713 94.125C216.077 94.4621 216.366 94.9091 216.582 95.4659C216.798 96.0227 216.906 96.7083 216.906 97.5227V98.0909H210.179V96.9318H215.543C215.543 96.4394 215.444 96 215.247 95.6136C215.054 95.2273 214.777 94.9223 214.418 94.6989C214.062 94.4754 213.641 94.3636 213.156 94.3636C212.622 94.3636 212.16 94.4962 211.77 94.7614C211.384 95.0227 211.086 95.3636 210.878 95.7841C210.67 96.2045 210.565 96.6553 210.565 97.1364V97.9091C210.565 98.5682 210.679 99.1269 210.906 99.5852C211.137 100.04 211.457 100.386 211.866 100.625C212.276 100.86 212.751 100.977 213.293 100.977C213.645 100.977 213.963 100.928 214.247 100.83C214.535 100.727 214.783 100.576 214.991 100.375C215.2 100.17 215.361 99.9167 215.474 99.6136L216.77 99.9773C216.634 100.417 216.404 100.803 216.082 101.136C215.76 101.466 215.363 101.723 214.889 101.909C214.416 102.091 213.884 102.182 213.293 102.182ZM220.287 96.75V102H218.946V90.3636H220.287V94.6364H220.401C220.605 94.1856 220.912 93.8277 221.321 93.5625C221.734 93.2936 222.283 93.1591 222.969 93.1591C223.563 93.1591 224.084 93.2784 224.531 93.517C224.978 93.7519 225.325 94.1136 225.571 94.6023C225.821 95.0871 225.946 95.7045 225.946 96.4545V102H224.605V96.5455C224.605 95.8523 224.425 95.3163 224.065 94.9375C223.709 94.5549 223.215 94.3636 222.582 94.3636C222.143 94.3636 221.749 94.4564 221.401 94.642C221.056 94.8277 220.783 95.0985 220.582 95.4545C220.385 95.8106 220.287 96.2424 220.287 96.75ZM231.945 102.182C231.157 102.182 230.465 101.994 229.871 101.619C229.28 101.244 228.818 100.72 228.484 100.045C228.155 99.3712 227.99 98.5833 227.99 97.6818C227.99 96.7727 228.155 95.9792 228.484 95.3011C228.818 94.6231 229.28 94.0966 229.871 93.7216C230.465 93.3466 231.157 93.1591 231.945 93.1591C232.732 93.1591 233.422 93.3466 234.013 93.7216C234.607 94.0966 235.07 94.6231 235.399 95.3011C235.732 95.9792 235.899 96.7727 235.899 97.6818C235.899 98.5833 235.732 99.3712 235.399 100.045C235.07 100.72 234.607 101.244 234.013 101.619C233.422 101.994 232.732 102.182 231.945 102.182ZM231.945 100.977C232.543 100.977 233.036 100.824 233.422 100.517C233.808 100.21 234.094 99.8068 234.28 99.3068C234.465 98.8068 234.558 98.2652 234.558 97.6818C234.558 97.0985 234.465 96.5549 234.28 96.0511C234.094 95.5473 233.808 95.1402 233.422 94.8295C233.036 94.5189 232.543 94.3636 231.945 94.3636C231.346 94.3636 230.854 94.5189 230.467 94.8295C230.081 95.1402 229.795 95.5473 229.609 96.0511C229.424 96.5549 229.331 97.0985 229.331 97.6818C229.331 98.2652 229.424 98.8068 229.609 99.3068C229.795 99.8068 230.081 100.21 230.467 100.517C230.854 100.824 231.346 100.977 231.945 100.977ZM239.287 90.3636V102H237.946V90.3636H239.287ZM245.038 102.182C244.311 102.182 243.669 101.998 243.112 101.631C242.555 101.259 242.12 100.737 241.805 100.062C241.491 99.3845 241.334 98.5833 241.334 97.6591C241.334 96.7424 241.491 95.947 241.805 95.2727C242.12 94.5985 242.557 94.0777 243.118 93.7102C243.679 93.3428 244.326 93.1591 245.061 93.1591C245.629 93.1591 246.078 93.2538 246.408 93.4432C246.741 93.6288 246.995 93.8409 247.169 94.0795C247.347 94.3144 247.485 94.5076 247.584 94.6591H247.697V90.3636H249.038V102H247.743V100.659H247.584C247.485 100.818 247.345 101.019 247.163 101.261C246.982 101.5 246.722 101.714 246.385 101.903C246.048 102.089 245.599 102.182 245.038 102.182ZM245.22 100.977C245.758 100.977 246.213 100.837 246.584 100.557C246.955 100.273 247.237 99.8807 247.43 99.3807C247.624 98.8769 247.72 98.2955 247.72 97.6364C247.72 96.9848 247.625 96.4148 247.436 95.9261C247.247 95.4337 246.966 95.0511 246.595 94.7784C246.224 94.5019 245.766 94.3636 245.22 94.3636C244.652 94.3636 244.179 94.5095 243.8 94.8011C243.425 95.089 243.143 95.4811 242.953 95.9773C242.768 96.4697 242.675 97.0227 242.675 97.6364C242.675 98.2576 242.769 98.822 242.959 99.3295C243.152 99.8333 243.436 100.235 243.811 100.534C244.19 100.83 244.66 100.977 245.22 100.977ZM255.339 102.182C254.499 102.182 253.773 101.996 253.163 101.625C252.557 101.25 252.089 100.727 251.76 100.057C251.434 99.3826 251.271 98.5985 251.271 97.7045C251.271 96.8106 251.434 96.0227 251.76 95.3409C252.089 94.6553 252.548 94.1212 253.135 93.7386C253.726 93.3523 254.415 93.1591 255.203 93.1591C255.658 93.1591 256.107 93.2348 256.55 93.3864C256.993 93.5379 257.396 93.7841 257.76 94.125C258.124 94.4621 258.413 94.9091 258.629 95.4659C258.845 96.0227 258.953 96.7083 258.953 97.5227V98.0909H252.226V96.9318H257.589C257.589 96.4394 257.491 96 257.294 95.6136C257.101 95.2273 256.824 94.9223 256.464 94.6989C256.108 94.4754 255.688 94.3636 255.203 94.3636C254.669 94.3636 254.207 94.4962 253.817 94.7614C253.43 95.0227 253.133 95.3636 252.925 95.7841C252.716 96.2045 252.612 96.6553 252.612 97.1364V97.9091C252.612 98.5682 252.726 99.1269 252.953 99.5852C253.184 100.04 253.504 100.386 253.913 100.625C254.322 100.86 254.798 100.977 255.339 100.977C255.692 100.977 256.01 100.928 256.294 100.83C256.582 100.727 256.83 100.576 257.038 100.375C257.247 100.17 257.408 99.9167 257.521 99.6136L258.817 99.9773C258.68 100.417 258.451 100.803 258.129 101.136C257.807 101.466 257.41 101.723 256.936 101.909C256.463 102.091 255.93 102.182 255.339 102.182ZM260.993 102V93.2727H262.288V94.5909H262.379C262.538 94.1591 262.826 93.8087 263.243 93.5398C263.66 93.2708 264.129 93.1364 264.652 93.1364C264.75 93.1364 264.874 93.1383 265.021 93.142C265.169 93.1458 265.281 93.1515 265.357 93.1591V94.5227C265.311 94.5114 265.207 94.4943 265.044 94.4716C264.885 94.4451 264.716 94.4318 264.538 94.4318C264.114 94.4318 263.735 94.5208 263.402 94.6989C263.072 94.8731 262.811 95.1155 262.618 95.4261C262.429 95.733 262.334 96.0833 262.334 96.4773V102H260.993ZM271.446 102V93.2727H272.787V102H271.446ZM272.128 91.8182C271.866 91.8182 271.641 91.7292 271.452 91.5511C271.266 91.3731 271.173 91.1591 271.173 90.9091C271.173 90.6591 271.266 90.4451 271.452 90.267C271.641 90.089 271.866 90 272.128 90C272.389 90 272.613 90.089 272.798 90.267C272.988 90.4451 273.082 90.6591 273.082 90.9091C273.082 91.1591 272.988 91.3731 272.798 91.5511C272.613 91.7292 272.389 91.8182 272.128 91.8182ZM276.584 96.75V102H275.243V93.2727H276.538V94.6364H276.652C276.857 94.1932 277.167 93.8371 277.584 93.5682C278 93.2955 278.538 93.1591 279.197 93.1591C279.788 93.1591 280.305 93.2803 280.749 93.5227C281.192 93.7614 281.536 94.125 281.783 94.6136C282.029 95.0985 282.152 95.7121 282.152 96.4545V102H280.811V96.5455C280.811 95.8598 280.633 95.3258 280.277 94.9432C279.921 94.5568 279.432 94.3636 278.811 94.3636C278.383 94.3636 278 94.4564 277.663 94.642C277.33 94.8277 277.067 95.0985 276.874 95.4545C276.68 95.8106 276.584 96.2424 276.584 96.75ZM291.426 93.2727L288.199 102H286.835L283.608 93.2727H285.062L287.472 100.227H287.562L289.972 93.2727H291.426ZM296.543 102.182C295.702 102.182 294.976 101.996 294.366 101.625C293.76 101.25 293.293 100.727 292.963 100.057C292.637 99.3826 292.474 98.5985 292.474 97.7045C292.474 96.8106 292.637 96.0227 292.963 95.3409C293.293 94.6553 293.751 94.1212 294.338 93.7386C294.929 93.3523 295.618 93.1591 296.406 93.1591C296.861 93.1591 297.31 93.2348 297.753 93.3864C298.196 93.5379 298.599 93.7841 298.963 94.125C299.327 94.4621 299.616 94.9091 299.832 95.4659C300.048 96.0227 300.156 96.7083 300.156 97.5227V98.0909H293.429V96.9318H298.793C298.793 96.4394 298.694 96 298.497 95.6136C298.304 95.2273 298.027 94.9223 297.668 94.6989C297.312 94.4754 296.891 94.3636 296.406 94.3636C295.872 94.3636 295.41 94.4962 295.02 94.7614C294.634 95.0227 294.336 95.3636 294.128 95.7841C293.92 96.2045 293.815 96.6553 293.815 97.1364V97.9091C293.815 98.5682 293.929 99.1269 294.156 99.5852C294.387 100.04 294.707 100.386 295.116 100.625C295.526 100.86 296.001 100.977 296.543 100.977C296.895 100.977 297.213 100.928 297.497 100.83C297.785 100.727 298.033 100.576 298.241 100.375C298.45 100.17 298.611 99.9167 298.724 99.6136L300.02 99.9773C299.884 100.417 299.654 100.803 299.332 101.136C299.01 101.466 298.613 101.723 298.139 101.909C297.666 102.091 297.134 102.182 296.543 102.182ZM303.537 96.75V102H302.196V93.2727H303.491V94.6364H303.605C303.81 94.1932 304.12 93.8371 304.537 93.5682C304.954 93.2955 305.491 93.1591 306.151 93.1591C306.741 93.1591 307.259 93.2803 307.702 93.5227C308.145 93.7614 308.49 94.125 308.736 94.6136C308.982 95.0985 309.105 95.7121 309.105 96.4545V102H307.764V96.5455C307.764 95.8598 307.586 95.3258 307.23 94.9432C306.874 94.5568 306.385 94.3636 305.764 94.3636C305.336 94.3636 304.954 94.4564 304.616 94.642C304.283 94.8277 304.02 95.0985 303.827 95.4545C303.634 95.8106 303.537 96.2424 303.537 96.75ZM315.351 93.2727V94.4091H310.828V93.2727H315.351ZM312.146 91.1818H313.487V99.5C313.487 99.8788 313.542 100.163 313.652 100.352C313.766 100.538 313.91 100.663 314.084 100.727C314.262 100.788 314.449 100.818 314.646 100.818C314.794 100.818 314.915 100.811 315.01 100.795C315.105 100.777 315.18 100.761 315.237 100.75L315.51 101.955C315.419 101.989 315.292 102.023 315.129 102.057C314.966 102.095 314.76 102.114 314.51 102.114C314.131 102.114 313.76 102.032 313.396 101.869C313.036 101.706 312.737 101.458 312.499 101.125C312.264 100.792 312.146 100.371 312.146 99.8636V91.1818ZM320.82 102.182C320.032 102.182 319.34 101.994 318.746 101.619C318.155 101.244 317.693 100.72 317.359 100.045C317.03 99.3712 316.865 98.5833 316.865 97.6818C316.865 96.7727 317.03 95.9792 317.359 95.3011C317.693 94.6231 318.155 94.0966 318.746 93.7216C319.34 93.3466 320.032 93.1591 320.82 93.1591C321.607 93.1591 322.297 93.3466 322.888 93.7216C323.482 94.0966 323.945 94.6231 324.274 95.3011C324.607 95.9792 324.774 96.7727 324.774 97.6818C324.774 98.5833 324.607 99.3712 324.274 100.045C323.945 100.72 323.482 101.244 322.888 101.619C322.297 101.994 321.607 102.182 320.82 102.182ZM320.82 100.977C321.418 100.977 321.911 100.824 322.297 100.517C322.683 100.21 322.969 99.8068 323.155 99.3068C323.34 98.8068 323.433 98.2652 323.433 97.6818C323.433 97.0985 323.34 96.5549 323.155 96.0511C322.969 95.5473 322.683 95.1402 322.297 94.8295C321.911 94.5189 321.418 94.3636 320.82 94.3636C320.221 94.3636 319.729 94.5189 319.342 94.8295C318.956 95.1402 318.67 95.5473 318.484 96.0511C318.299 96.5549 318.206 97.0985 318.206 97.6818C318.206 98.2652 318.299 98.8068 318.484 99.3068C318.67 99.8068 318.956 100.21 319.342 100.517C319.729 100.824 320.221 100.977 320.82 100.977ZM326.821 102V93.2727H328.116V94.5909H328.207C328.366 94.1591 328.654 93.8087 329.071 93.5398C329.488 93.2708 329.957 93.1364 330.48 93.1364C330.579 93.1364 330.702 93.1383 330.849 93.142C330.997 93.1458 331.109 93.1515 331.185 93.1591V94.5227C331.139 94.5114 331.035 94.4943 330.872 94.4716C330.713 94.4451 330.545 94.4318 330.366 94.4318C329.942 94.4318 329.563 94.5208 329.23 94.6989C328.901 94.8731 328.639 95.1155 328.446 95.4261C328.257 95.733 328.162 96.0833 328.162 96.4773V102H326.821ZM333.903 105.273C333.676 105.273 333.473 105.254 333.295 105.216C333.117 105.182 332.994 105.148 332.926 105.114L333.267 103.932C333.593 104.015 333.881 104.045 334.131 104.023C334.381 104 334.602 103.888 334.795 103.688C334.992 103.491 335.172 103.17 335.335 102.727L335.585 102.045L332.358 93.2727H333.812L336.222 100.227H336.312L338.722 93.2727H340.176L336.472 103.273C336.305 103.723 336.098 104.097 335.852 104.392C335.606 104.691 335.32 104.913 334.994 105.057C334.672 105.201 334.309 105.273 333.903 105.273Z" fill="black"/>
<path fill-rule="evenodd" clip-rule="evenodd" d="M259.789 117C259.986 117 260.146 117.096 260.146 117.215L260.146 146.024C260.146 146.143 259.986 146.239 259.789 146.239C259.592 146.239 259.433 146.143 259.433 146.024L259.433 117.215C259.433 117.096 259.592 117 259.789 117Z" fill="#505050"/>
<path fill-rule="evenodd" clip-rule="evenodd" d="M263.963 138.506C264.182 138.561 264.315 138.782 264.26 139.001C264.131 139.518 264.001 140.033 263.871 140.548C263.163 143.348 262.461 146.127 261.962 148.957C261.939 149.088 261.915 149.266 261.886 149.484C261.859 149.688 261.828 149.926 261.787 150.193C261.708 150.718 261.601 151.318 261.443 151.812C261.365 152.059 261.268 152.298 261.144 152.494C261.025 152.683 260.847 152.888 260.583 152.967C260.294 153.054 260.02 152.959 259.794 152.789C259.577 152.624 259.37 152.366 259.164 152.029C258.342 150.689 257.733 149.195 257.181 147.704C257.026 147.287 256.876 146.87 256.727 146.457C256.34 145.384 255.961 144.332 255.525 143.332C255.504 143.284 255.458 143.175 255.394 143.024C255.218 142.607 254.905 141.865 254.592 141.157C254.38 140.678 254.177 140.233 254.028 139.939C253.993 139.871 253.964 139.816 253.94 139.772C253.813 139.703 253.728 139.569 253.728 139.414C253.728 139.387 253.728 139.301 253.771 139.209C253.795 139.157 253.845 139.077 253.943 139.021C254.047 138.961 254.155 138.957 254.238 138.974C254.365 139.001 254.444 139.08 254.463 139.098L254.464 139.099C254.495 139.13 254.52 139.162 254.537 139.186C254.603 139.277 254.68 139.419 254.756 139.569C254.916 139.884 255.127 140.347 255.338 140.827C255.656 141.544 255.992 142.341 256.164 142.748C256.22 142.88 256.259 142.971 256.274 143.006C256.721 144.032 257.114 145.122 257.504 146.205C257.651 146.613 257.797 147.019 257.946 147.421C258.495 148.902 259.082 150.333 259.86 151.603C260.044 151.903 260.188 152.063 260.287 152.138C260.32 152.163 260.342 152.174 260.355 152.18C260.37 152.168 260.405 152.136 260.453 152.06C260.525 151.946 260.596 151.78 260.665 151.564C260.802 151.135 260.902 150.589 260.98 150.071C261.014 149.844 261.045 149.613 261.073 149.405C261.105 149.163 261.134 148.953 261.158 148.815C261.663 145.953 262.373 143.141 263.081 140.342C263.21 139.829 263.34 139.316 263.468 138.803C263.523 138.584 263.744 138.451 263.963 138.506ZM260.369 152.183C260.369 152.184 260.367 152.184 260.363 152.183C260.367 152.183 260.369 152.183 260.369 152.183ZM253.873 139.662C253.873 139.661 253.873 139.662 253.874 139.663C253.873 139.662 253.873 139.662 253.873 139.662Z" fill="#505050"/>
<rect x="102.5" y="154.5" width="313" height="38" rx="7.5" fill="#F8F8F8"/>
<rect x="102.5" y="154.5" width="313" height="38" rx="7.5" stroke="#EFEFEF"/>
<path d="M192.409 179V167.364H196.341C197.254 167.364 198 167.528 198.58 167.858C199.163 168.184 199.595 168.625 199.875 169.182C200.155 169.739 200.295 170.36 200.295 171.045C200.295 171.731 200.155 172.354 199.875 172.915C199.598 173.475 199.17 173.922 198.591 174.256C198.011 174.585 197.269 174.75 196.364 174.75H193.545V173.5H196.318C196.943 173.5 197.445 173.392 197.824 173.176C198.203 172.96 198.477 172.669 198.648 172.301C198.822 171.93 198.909 171.511 198.909 171.045C198.909 170.58 198.822 170.163 198.648 169.795C198.477 169.428 198.201 169.14 197.818 168.932C197.436 168.72 196.928 168.614 196.295 168.614H193.818V179H192.409ZM202.384 179V170.273H203.679V171.591H203.77C203.929 171.159 204.217 170.809 204.634 170.54C205.05 170.271 205.52 170.136 206.043 170.136C206.141 170.136 206.264 170.138 206.412 170.142C206.56 170.146 206.671 170.152 206.747 170.159V171.523C206.702 171.511 206.598 171.494 206.435 171.472C206.276 171.445 206.107 171.432 205.929 171.432C205.505 171.432 205.126 171.521 204.793 171.699C204.463 171.873 204.202 172.116 204.009 172.426C203.819 172.733 203.724 173.083 203.724 173.477V179H202.384ZM211.616 179.182C210.829 179.182 210.137 178.994 209.543 178.619C208.952 178.244 208.49 177.72 208.156 177.045C207.827 176.371 207.662 175.583 207.662 174.682C207.662 173.773 207.827 172.979 208.156 172.301C208.49 171.623 208.952 171.097 209.543 170.722C210.137 170.347 210.829 170.159 211.616 170.159C212.404 170.159 213.094 170.347 213.685 170.722C214.279 171.097 214.741 171.623 215.071 172.301C215.404 172.979 215.571 173.773 215.571 174.682C215.571 175.583 215.404 176.371 215.071 177.045C214.741 177.72 214.279 178.244 213.685 178.619C213.094 178.994 212.404 179.182 211.616 179.182ZM211.616 177.977C212.215 177.977 212.707 177.824 213.094 177.517C213.48 177.21 213.766 176.807 213.952 176.307C214.137 175.807 214.23 175.265 214.23 174.682C214.23 174.098 214.137 173.555 213.952 173.051C213.766 172.547 213.48 172.14 213.094 171.83C212.707 171.519 212.215 171.364 211.616 171.364C211.018 171.364 210.526 171.519 210.139 171.83C209.753 172.14 209.467 172.547 209.281 173.051C209.096 173.555 209.003 174.098 209.003 174.682C209.003 175.265 209.096 175.807 209.281 176.307C209.467 176.807 209.753 177.21 210.139 177.517C210.526 177.824 211.018 177.977 211.616 177.977ZM224.442 170.273L221.214 179H219.851L216.624 170.273H218.078L220.487 177.227H220.578L222.987 170.273H224.442ZM226.212 179V170.273H227.553V179H226.212ZM226.893 168.818C226.632 168.818 226.407 168.729 226.217 168.551C226.032 168.373 225.939 168.159 225.939 167.909C225.939 167.659 226.032 167.445 226.217 167.267C226.407 167.089 226.632 167 226.893 167C227.155 167 227.378 167.089 227.564 167.267C227.753 167.445 227.848 167.659 227.848 167.909C227.848 168.159 227.753 168.373 227.564 168.551C227.378 168.729 227.155 168.818 226.893 168.818ZM233.304 179.182C232.577 179.182 231.935 178.998 231.378 178.631C230.821 178.259 230.385 177.737 230.071 177.062C229.757 176.384 229.599 175.583 229.599 174.659C229.599 173.742 229.757 172.947 230.071 172.273C230.385 171.598 230.823 171.078 231.384 170.71C231.944 170.343 232.592 170.159 233.327 170.159C233.895 170.159 234.344 170.254 234.673 170.443C235.007 170.629 235.26 170.841 235.435 171.08C235.613 171.314 235.751 171.508 235.849 171.659H235.963V167.364H237.304V179H236.009V177.659H235.849C235.751 177.818 235.611 178.019 235.429 178.261C235.247 178.5 234.988 178.714 234.651 178.903C234.313 179.089 233.865 179.182 233.304 179.182ZM233.486 177.977C234.024 177.977 234.478 177.837 234.849 177.557C235.221 177.273 235.503 176.881 235.696 176.381C235.889 175.877 235.986 175.295 235.986 174.636C235.986 173.985 235.891 173.415 235.702 172.926C235.512 172.434 235.232 172.051 234.861 171.778C234.49 171.502 234.031 171.364 233.486 171.364C232.918 171.364 232.444 171.509 232.065 171.801C231.69 172.089 231.408 172.481 231.219 172.977C231.033 173.47 230.94 174.023 230.94 174.636C230.94 175.258 231.035 175.822 231.224 176.33C231.418 176.833 231.702 177.235 232.077 177.534C232.455 177.83 232.925 177.977 233.486 177.977ZM243.605 179.182C242.764 179.182 242.039 178.996 241.429 178.625C240.823 178.25 240.355 177.727 240.026 177.057C239.7 176.383 239.537 175.598 239.537 174.705C239.537 173.811 239.7 173.023 240.026 172.341C240.355 171.655 240.813 171.121 241.401 170.739C241.991 170.352 242.681 170.159 243.469 170.159C243.923 170.159 244.372 170.235 244.815 170.386C245.259 170.538 245.662 170.784 246.026 171.125C246.389 171.462 246.679 171.909 246.895 172.466C247.111 173.023 247.219 173.708 247.219 174.523V175.091H240.491V173.932H245.855C245.855 173.439 245.757 173 245.56 172.614C245.366 172.227 245.09 171.922 244.73 171.699C244.374 171.475 243.954 171.364 243.469 171.364C242.935 171.364 242.473 171.496 242.082 171.761C241.696 172.023 241.399 172.364 241.19 172.784C240.982 173.205 240.878 173.655 240.878 174.136V174.909C240.878 175.568 240.991 176.127 241.219 176.585C241.45 177.04 241.77 177.386 242.179 177.625C242.588 177.86 243.063 177.977 243.605 177.977C243.957 177.977 244.276 177.928 244.56 177.83C244.848 177.727 245.096 177.576 245.304 177.375C245.512 177.17 245.673 176.917 245.787 176.614L247.082 176.977C246.946 177.417 246.717 177.803 246.395 178.136C246.073 178.466 245.675 178.723 245.202 178.909C244.728 179.091 244.196 179.182 243.605 179.182ZM249.259 179V170.273H250.554V171.591H250.645C250.804 171.159 251.092 170.809 251.509 170.54C251.925 170.271 252.395 170.136 252.918 170.136C253.016 170.136 253.139 170.138 253.287 170.142C253.435 170.146 253.546 170.152 253.622 170.159V171.523C253.577 171.511 253.473 171.494 253.31 171.472C253.151 171.445 252.982 171.432 252.804 171.432C252.38 171.432 252.001 171.521 251.668 171.699C251.338 171.873 251.077 172.116 250.884 172.426C250.694 172.733 250.599 173.083 250.599 173.477V179H249.259ZM265.212 175.432V170.273H266.553V179H265.212V177.523H265.121C264.916 177.966 264.598 178.343 264.166 178.653C263.734 178.96 263.189 179.114 262.53 179.114C261.984 179.114 261.5 178.994 261.075 178.756C260.651 178.513 260.318 178.15 260.075 177.665C259.833 177.176 259.712 176.561 259.712 175.818V170.273H261.053V175.727C261.053 176.364 261.231 176.871 261.587 177.25C261.946 177.629 262.405 177.818 262.962 177.818C263.295 177.818 263.634 177.733 263.979 177.562C264.327 177.392 264.619 177.131 264.854 176.778C265.092 176.426 265.212 175.977 265.212 175.432ZM270.349 173.75V179H269.009V170.273H270.304V171.636H270.418C270.622 171.193 270.933 170.837 271.349 170.568C271.766 170.295 272.304 170.159 272.963 170.159C273.554 170.159 274.071 170.28 274.514 170.523C274.957 170.761 275.302 171.125 275.548 171.614C275.795 172.098 275.918 172.712 275.918 173.455V179H274.577V173.545C274.577 172.86 274.399 172.326 274.043 171.943C273.687 171.557 273.198 171.364 272.577 171.364C272.149 171.364 271.766 171.456 271.429 171.642C271.096 171.828 270.832 172.098 270.639 172.455C270.446 172.811 270.349 173.242 270.349 173.75ZM279.618 175.818L279.595 174.159H279.868L283.686 170.273H285.345L281.277 174.386H281.163L279.618 175.818ZM278.368 179V167.364H279.709V179H278.368ZM283.913 179L280.504 174.682L281.459 173.75L285.618 179H283.913ZM288.412 173.75V179H287.071V170.273H288.366V171.636H288.48C288.685 171.193 288.995 170.837 289.412 170.568C289.829 170.295 290.366 170.159 291.026 170.159C291.616 170.159 292.134 170.28 292.577 170.523C293.02 170.761 293.365 171.125 293.611 171.614C293.857 172.098 293.98 172.712 293.98 173.455V179H292.639V173.545C292.639 172.86 292.461 172.326 292.105 171.943C291.749 171.557 291.26 171.364 290.639 171.364C290.211 171.364 289.829 171.456 289.491 171.642C289.158 171.828 288.895 172.098 288.702 172.455C288.509 172.811 288.412 173.242 288.412 173.75ZM299.976 179.182C299.188 179.182 298.497 178.994 297.902 178.619C297.311 178.244 296.849 177.72 296.516 177.045C296.186 176.371 296.021 175.583 296.021 174.682C296.021 173.773 296.186 172.979 296.516 172.301C296.849 171.623 297.311 171.097 297.902 170.722C298.497 170.347 299.188 170.159 299.976 170.159C300.764 170.159 301.453 170.347 302.044 170.722C302.639 171.097 303.101 171.623 303.43 172.301C303.764 172.979 303.93 173.773 303.93 174.682C303.93 175.583 303.764 176.371 303.43 177.045C303.101 177.72 302.639 178.244 302.044 178.619C301.453 178.994 300.764 179.182 299.976 179.182ZM299.976 177.977C300.574 177.977 301.067 177.824 301.453 177.517C301.839 177.21 302.125 176.807 302.311 176.307C302.497 175.807 302.589 175.265 302.589 174.682C302.589 174.098 302.497 173.555 302.311 173.051C302.125 172.547 301.839 172.14 301.453 171.83C301.067 171.519 300.574 171.364 299.976 171.364C299.377 171.364 298.885 171.519 298.499 171.83C298.112 172.14 297.826 172.547 297.641 173.051C297.455 173.555 297.362 174.098 297.362 174.682C297.362 175.265 297.455 175.807 297.641 176.307C297.826 176.807 298.112 177.21 298.499 177.517C298.885 177.824 299.377 177.977 299.976 177.977ZM307.658 179L304.999 170.273H306.408L308.294 176.955H308.385L310.249 170.273H311.68L313.521 176.932H313.612L315.499 170.273H316.908L314.249 179H312.93L311.021 172.295H310.885L308.976 179H307.658ZM320.021 173.75V179H318.68V170.273H319.976V171.636H320.089C320.294 171.193 320.605 170.837 321.021 170.568C321.438 170.295 321.976 170.159 322.635 170.159C323.226 170.159 323.743 170.28 324.186 170.523C324.629 170.761 324.974 171.125 325.22 171.614C325.466 172.098 325.589 172.712 325.589 173.455V179H324.249V173.545C324.249 172.86 324.071 172.326 323.714 171.943C323.358 171.557 322.87 171.364 322.249 171.364C321.821 171.364 321.438 171.456 321.101 171.642C320.768 171.828 320.504 172.098 320.311 172.455C320.118 172.811 320.021 173.242 320.021 173.75Z" fill="black"/>
<path fill-rule="evenodd" clip-rule="evenodd" d="M259.789 194C259.986 194 260.146 194.096 260.146 194.215L260.146 223.024C260.146 223.143 259.986 223.239 259.789 223.239C259.592 223.239 259.433 223.143 259.433 223.024L259.433 194.215C259.433 194.096 259.592 194 259.789 194Z" fill="#505050"/>
<path fill-rule="evenodd" clip-rule="evenodd" d="M263.963 215.506C264.182 215.561 264.315 215.782 264.26 216.001C264.131 216.518 264.001 217.033 263.871 217.548C263.163 220.348 262.461 223.127 261.962 225.957C261.939 226.088 261.915 226.266 261.886 226.484C261.859 226.688 261.828 226.926 261.787 227.193C261.708 227.718 261.601 228.318 261.443 228.812C261.365 229.059 261.268 229.298 261.144 229.494C261.025 229.683 260.847 229.888 260.583 229.967C260.294 230.054 260.02 229.959 259.794 229.789C259.577 229.624 259.37 229.366 259.164 229.029C258.342 227.689 257.733 226.195 257.181 224.704C257.026 224.287 256.876 223.87 256.727 223.457C256.34 222.384 255.961 221.332 255.525 220.332C255.504 220.284 255.458 220.175 255.394 220.024C255.218 219.607 254.905 218.865 254.592 218.157C254.38 217.678 254.177 217.233 254.028 216.939C253.993 216.871 253.964 216.816 253.94 216.772C253.813 216.703 253.728 216.569 253.728 216.414C253.728 216.387 253.728 216.301 253.771 216.209C253.795 216.157 253.845 216.077 253.943 216.021C254.047 215.961 254.155 215.957 254.238 215.974C254.365 216.001 254.444 216.08 254.463 216.098L254.464 216.099C254.495 216.13 254.52 216.162 254.537 216.186C254.603 216.277 254.68 216.419 254.756 216.569C254.916 216.884 255.127 217.347 255.338 217.827C255.656 218.544 255.992 219.341 256.164 219.748C256.22 219.88 256.259 219.971 256.274 220.006C256.721 221.032 257.114 222.122 257.504 223.205C257.651 223.613 257.797 224.019 257.946 224.421C258.495 225.902 259.082 227.333 259.86 228.603C260.044 228.903 260.188 229.063 260.287 229.138C260.32 229.163 260.342 229.174 260.355 229.18C260.37 229.168 260.405 229.136 260.453 229.06C260.525 228.946 260.596 228.78 260.665 228.564C260.802 228.135 260.902 227.589 260.98 227.071C261.014 226.844 261.045 226.613 261.073 226.405C261.105 226.163 261.134 225.953 261.158 225.815C261.663 222.953 262.373 220.141 263.081 217.342C263.21 216.829 263.34 216.316 263.468 215.803C263.523 215.584 263.744 215.451 263.963 215.506ZM260.369 229.183C260.369 229.184 260.367 229.184 260.363 229.183C260.367 229.183 260.369 229.183 260.369 229.183ZM253.873 216.661C253.873 216.661 253.873 216.662 253.874 216.662C253.873 216.662 253.873 216.662 253.873 216.661Z" fill="#505050"/>
<rect x="102.5" y="231.5" width="313" height="38" rx="7.5" fill="#F8F8F8"/>
<rect x="102.5" y="231.5" width="313" height="38" rx="7.5" stroke="#EFEFEF"/>
<path d="M196.409 256V244.364H200.341C201.254 244.364 202 244.528 202.58 244.858C203.163 245.184 203.595 245.625 203.875 246.182C204.155 246.739 204.295 247.36 204.295 248.045C204.295 248.731 204.155 249.354 203.875 249.915C203.598 250.475 203.17 250.922 202.591 251.256C202.011 251.585 201.269 251.75 200.364 251.75H197.545V250.5H200.318C200.943 250.5 201.445 250.392 201.824 250.176C202.203 249.96 202.477 249.669 202.648 249.301C202.822 248.93 202.909 248.511 202.909 248.045C202.909 247.58 202.822 247.163 202.648 246.795C202.477 246.428 202.201 246.14 201.818 245.932C201.436 245.72 200.928 245.614 200.295 245.614H197.818V256H196.409ZM206.384 256V247.273H207.679V248.591H207.77C207.929 248.159 208.217 247.809 208.634 247.54C209.05 247.271 209.52 247.136 210.043 247.136C210.141 247.136 210.264 247.138 210.412 247.142C210.56 247.146 210.671 247.152 210.747 247.159V248.523C210.702 248.511 210.598 248.494 210.435 248.472C210.276 248.445 210.107 248.432 209.929 248.432C209.505 248.432 209.126 248.521 208.793 248.699C208.463 248.873 208.202 249.116 208.009 249.426C207.819 249.733 207.724 250.083 207.724 250.477V256H206.384ZM212.337 256V247.273H213.678V256H212.337ZM213.018 245.818C212.757 245.818 212.532 245.729 212.342 245.551C212.157 245.373 212.064 245.159 212.064 244.909C212.064 244.659 212.157 244.445 212.342 244.267C212.532 244.089 212.757 244 213.018 244C213.28 244 213.503 244.089 213.689 244.267C213.878 244.445 213.973 244.659 213.973 244.909C213.973 245.159 213.878 245.373 213.689 245.551C213.503 245.729 213.28 245.818 213.018 245.818ZM219.679 256.182C218.861 256.182 218.156 255.989 217.565 255.602C216.974 255.216 216.52 254.684 216.202 254.006C215.884 253.328 215.724 252.553 215.724 251.682C215.724 250.795 215.887 250.013 216.213 249.335C216.543 248.653 217.001 248.121 217.588 247.739C218.179 247.352 218.868 247.159 219.656 247.159C220.27 247.159 220.823 247.273 221.315 247.5C221.808 247.727 222.211 248.045 222.526 248.455C222.84 248.864 223.035 249.341 223.111 249.886H221.77C221.668 249.489 221.44 249.136 221.088 248.83C220.74 248.519 220.27 248.364 219.679 248.364C219.156 248.364 218.698 248.5 218.304 248.773C217.914 249.042 217.609 249.422 217.389 249.915C217.173 250.403 217.065 250.977 217.065 251.636C217.065 252.311 217.171 252.898 217.384 253.398C217.599 253.898 217.902 254.286 218.293 254.562C218.687 254.839 219.149 254.977 219.679 254.977C220.027 254.977 220.344 254.917 220.628 254.795C220.912 254.674 221.152 254.5 221.349 254.273C221.546 254.045 221.687 253.773 221.77 253.455H223.111C223.035 253.97 222.848 254.434 222.548 254.847C222.253 255.256 221.861 255.581 221.372 255.824C220.887 256.062 220.323 256.182 219.679 256.182ZM225.071 256V247.273H226.412V256H225.071ZM225.753 245.818C225.491 245.818 225.266 245.729 225.077 245.551C224.891 245.373 224.798 245.159 224.798 244.909C224.798 244.659 224.891 244.445 225.077 244.267C225.266 244.089 225.491 244 225.753 244C226.014 244 226.238 244.089 226.423 244.267C226.613 244.445 226.707 244.659 226.707 244.909C226.707 245.159 226.613 245.373 226.423 245.551C226.238 245.729 226.014 245.818 225.753 245.818ZM230.209 250.75V256H228.868V247.273H230.163V248.636H230.277C230.482 248.193 230.792 247.837 231.209 247.568C231.625 247.295 232.163 247.159 232.822 247.159C233.413 247.159 233.93 247.28 234.374 247.523C234.817 247.761 235.161 248.125 235.408 248.614C235.654 249.098 235.777 249.712 235.777 250.455V256H234.436V250.545C234.436 249.86 234.258 249.326 233.902 248.943C233.546 248.557 233.057 248.364 232.436 248.364C232.008 248.364 231.625 248.456 231.288 248.642C230.955 248.828 230.692 249.098 230.499 249.455C230.305 249.811 230.209 250.242 230.209 250.75ZM241.75 259.455C241.102 259.455 240.545 259.371 240.08 259.205C239.614 259.042 239.225 258.826 238.915 258.557C238.608 258.292 238.364 258.008 238.182 257.705L239.25 256.955C239.371 257.114 239.525 257.295 239.71 257.5C239.896 257.708 240.15 257.888 240.472 258.04C240.797 258.195 241.223 258.273 241.75 258.273C242.455 258.273 243.036 258.102 243.494 257.761C243.953 257.42 244.182 256.886 244.182 256.159V254.386H244.068C243.97 254.545 243.83 254.742 243.648 254.977C243.47 255.208 243.212 255.415 242.875 255.597C242.542 255.775 242.091 255.864 241.523 255.864C240.818 255.864 240.186 255.697 239.625 255.364C239.068 255.03 238.627 254.545 238.301 253.909C237.979 253.273 237.818 252.5 237.818 251.591C237.818 250.697 237.975 249.919 238.29 249.256C238.604 248.589 239.042 248.074 239.602 247.71C240.163 247.343 240.811 247.159 241.545 247.159C242.114 247.159 242.564 247.254 242.898 247.443C243.235 247.629 243.492 247.841 243.67 248.08C243.852 248.314 243.992 248.508 244.091 248.659H244.227V247.273H245.523V256.25C245.523 257 245.352 257.61 245.011 258.08C244.674 258.553 244.22 258.9 243.648 259.119C243.08 259.343 242.447 259.455 241.75 259.455ZM241.705 254.659C242.242 254.659 242.697 254.536 243.068 254.29C243.439 254.044 243.722 253.689 243.915 253.227C244.108 252.765 244.205 252.212 244.205 251.568C244.205 250.939 244.11 250.384 243.92 249.903C243.731 249.422 243.451 249.045 243.08 248.773C242.708 248.5 242.25 248.364 241.705 248.364C241.136 248.364 240.663 248.508 240.284 248.795C239.909 249.083 239.627 249.47 239.438 249.955C239.252 250.439 239.159 250.977 239.159 251.568C239.159 252.174 239.254 252.71 239.443 253.176C239.636 253.638 239.92 254.002 240.295 254.267C240.674 254.528 241.144 254.659 241.705 254.659ZM257.977 252.432V247.273H259.318V256H257.977V254.523H257.886C257.682 254.966 257.364 255.343 256.932 255.653C256.5 255.96 255.955 256.114 255.295 256.114C254.75 256.114 254.265 255.994 253.841 255.756C253.417 255.513 253.083 255.15 252.841 254.665C252.598 254.176 252.477 253.561 252.477 252.818V247.273H253.818V252.727C253.818 253.364 253.996 253.871 254.352 254.25C254.712 254.629 255.17 254.818 255.727 254.818C256.061 254.818 256.4 254.733 256.744 254.562C257.093 254.392 257.384 254.131 257.619 253.778C257.858 253.426 257.977 252.977 257.977 252.432ZM263.115 250.75V256H261.774V247.273H263.07V248.636H263.183C263.388 248.193 263.698 247.837 264.115 247.568C264.532 247.295 265.07 247.159 265.729 247.159C266.32 247.159 266.837 247.28 267.28 247.523C267.723 247.761 268.068 248.125 268.314 248.614C268.56 249.098 268.683 249.712 268.683 250.455V256H267.342V250.545C267.342 249.86 267.164 249.326 266.808 248.943C266.452 248.557 265.964 248.364 265.342 248.364C264.914 248.364 264.532 248.456 264.195 248.642C263.861 248.828 263.598 249.098 263.405 249.455C263.212 249.811 263.115 250.242 263.115 250.75ZM274.679 256.182C273.861 256.182 273.156 255.989 272.565 255.602C271.974 255.216 271.52 254.684 271.202 254.006C270.884 253.328 270.724 252.553 270.724 251.682C270.724 250.795 270.887 250.013 271.213 249.335C271.543 248.653 272.001 248.121 272.588 247.739C273.179 247.352 273.868 247.159 274.656 247.159C275.27 247.159 275.823 247.273 276.315 247.5C276.808 247.727 277.211 248.045 277.526 248.455C277.84 248.864 278.035 249.341 278.111 249.886H276.77C276.668 249.489 276.44 249.136 276.088 248.83C275.74 248.519 275.27 248.364 274.679 248.364C274.156 248.364 273.698 248.5 273.304 248.773C272.914 249.042 272.609 249.422 272.389 249.915C272.173 250.403 272.065 250.977 272.065 251.636C272.065 252.311 272.171 252.898 272.384 253.398C272.599 253.898 272.902 254.286 273.293 254.562C273.687 254.839 274.149 254.977 274.679 254.977C275.027 254.977 275.344 254.917 275.628 254.795C275.912 254.674 276.152 254.5 276.349 254.273C276.546 254.045 276.687 253.773 276.77 253.455H278.111C278.035 253.97 277.848 254.434 277.548 254.847C277.253 255.256 276.861 255.581 276.372 255.824C275.887 256.062 275.323 256.182 274.679 256.182ZM283.73 256.182C282.889 256.182 282.164 255.996 281.554 255.625C280.948 255.25 280.48 254.727 280.151 254.057C279.825 253.383 279.662 252.598 279.662 251.705C279.662 250.811 279.825 250.023 280.151 249.341C280.48 248.655 280.938 248.121 281.526 247.739C282.116 247.352 282.806 247.159 283.594 247.159C284.048 247.159 284.497 247.235 284.94 247.386C285.384 247.538 285.787 247.784 286.151 248.125C286.514 248.462 286.804 248.909 287.02 249.466C287.236 250.023 287.344 250.708 287.344 251.523V252.091H280.616V250.932H285.98C285.98 250.439 285.882 250 285.685 249.614C285.491 249.227 285.215 248.922 284.855 248.699C284.499 248.475 284.079 248.364 283.594 248.364C283.06 248.364 282.598 248.496 282.207 248.761C281.821 249.023 281.524 249.364 281.315 249.784C281.107 250.205 281.003 250.655 281.003 251.136V251.909C281.003 252.568 281.116 253.127 281.344 253.585C281.575 254.04 281.895 254.386 282.304 254.625C282.713 254.86 283.188 254.977 283.73 254.977C284.082 254.977 284.401 254.928 284.685 254.83C284.973 254.727 285.221 254.576 285.429 254.375C285.637 254.17 285.798 253.917 285.912 253.614L287.207 253.977C287.071 254.417 286.842 254.803 286.52 255.136C286.198 255.466 285.8 255.723 285.327 255.909C284.853 256.091 284.321 256.182 283.73 256.182ZM289.384 256V247.273H290.679V248.591H290.77C290.929 248.159 291.217 247.809 291.634 247.54C292.05 247.271 292.52 247.136 293.043 247.136C293.141 247.136 293.264 247.138 293.412 247.142C293.56 247.146 293.671 247.152 293.747 247.159V248.523C293.702 248.511 293.598 248.494 293.435 248.472C293.276 248.445 293.107 248.432 292.929 248.432C292.505 248.432 292.126 248.521 291.793 248.699C291.463 248.873 291.202 249.116 291.009 249.426C290.819 249.733 290.724 250.083 290.724 250.477V256H289.384ZM299.679 247.273V248.409H295.156V247.273H299.679ZM296.474 245.182H297.815V253.5C297.815 253.879 297.87 254.163 297.98 254.352C298.094 254.538 298.238 254.663 298.412 254.727C298.59 254.788 298.777 254.818 298.974 254.818C299.122 254.818 299.243 254.811 299.338 254.795C299.433 254.777 299.509 254.761 299.565 254.75L299.838 255.955C299.747 255.989 299.62 256.023 299.457 256.057C299.295 256.095 299.088 256.114 298.838 256.114C298.459 256.114 298.088 256.032 297.724 255.869C297.365 255.706 297.065 255.458 296.827 255.125C296.592 254.792 296.474 254.371 296.474 253.864V245.182ZM304.264 256.205C303.711 256.205 303.209 256.1 302.759 255.892C302.308 255.68 301.95 255.375 301.685 254.977C301.42 254.576 301.287 254.091 301.287 253.523C301.287 253.023 301.385 252.617 301.582 252.307C301.779 251.992 302.043 251.746 302.372 251.568C302.702 251.39 303.065 251.258 303.463 251.17C303.865 251.08 304.268 251.008 304.673 250.955C305.204 250.886 305.634 250.835 305.963 250.801C306.296 250.763 306.539 250.701 306.69 250.614C306.846 250.527 306.923 250.375 306.923 250.159V250.114C306.923 249.553 306.77 249.117 306.463 248.807C306.16 248.496 305.7 248.341 305.082 248.341C304.442 248.341 303.94 248.481 303.577 248.761C303.213 249.042 302.957 249.341 302.81 249.659L301.537 249.205C301.764 248.674 302.067 248.261 302.446 247.966C302.829 247.667 303.245 247.458 303.696 247.341C304.151 247.22 304.598 247.159 305.037 247.159C305.317 247.159 305.639 247.193 306.003 247.261C306.37 247.326 306.724 247.46 307.065 247.665C307.41 247.869 307.696 248.178 307.923 248.591C308.151 249.004 308.264 249.557 308.264 250.25V256H306.923V254.818H306.855C306.764 255.008 306.613 255.21 306.401 255.426C306.188 255.642 305.906 255.826 305.554 255.977C305.202 256.129 304.772 256.205 304.264 256.205ZM304.469 255C304.999 255 305.446 254.896 305.81 254.688C306.177 254.479 306.454 254.21 306.639 253.881C306.829 253.551 306.923 253.205 306.923 252.841V251.614C306.866 251.682 306.741 251.744 306.548 251.801C306.359 251.854 306.139 251.902 305.889 251.943C305.643 251.981 305.402 252.015 305.168 252.045C304.937 252.072 304.749 252.095 304.605 252.114C304.257 252.159 303.931 252.233 303.628 252.335C303.329 252.434 303.086 252.583 302.901 252.784C302.719 252.981 302.628 253.25 302.628 253.591C302.628 254.057 302.8 254.409 303.145 254.648C303.493 254.883 303.935 255 304.469 255ZM310.712 256V247.273H312.053V256H310.712ZM311.393 245.818C311.132 245.818 310.907 245.729 310.717 245.551C310.532 245.373 310.439 245.159 310.439 244.909C310.439 244.659 310.532 244.445 310.717 244.267C310.907 244.089 311.132 244 311.393 244C311.655 244 311.878 244.089 312.064 244.267C312.253 244.445 312.348 244.659 312.348 244.909C312.348 245.159 312.253 245.373 312.064 245.551C311.878 245.729 311.655 245.818 311.393 245.818ZM315.849 250.75V256H314.509V247.273H315.804V248.636H315.918C316.122 248.193 316.433 247.837 316.849 247.568C317.266 247.295 317.804 247.159 318.463 247.159C319.054 247.159 319.571 247.28 320.014 247.523C320.457 247.761 320.802 248.125 321.048 248.614C321.295 249.098 321.418 249.712 321.418 250.455V256H320.077V250.545C320.077 249.86 319.899 249.326 319.543 248.943C319.187 248.557 318.698 248.364 318.077 248.364C317.649 248.364 317.266 248.456 316.929 248.642C316.596 248.828 316.332 249.098 316.139 249.455C315.946 249.811 315.849 250.242 315.849 250.75Z" fill="black"/>
<path fill-rule="evenodd" clip-rule="evenodd" d="M259.789 271C259.986 271 260.146 271.096 260.146 271.215L260.146 300.024C260.146 300.143 259.986 300.239 259.789 300.239C259.592 300.239 259.433 300.143 259.433 300.024L259.433 271.215C259.433 271.096 259.592 271 259.789 271Z" fill="#505050"/>
<path fill-rule="evenodd" clip-rule="evenodd" d="M263.963 292.506C264.182 292.561 264.315 292.782 264.26 293.001C264.131 293.518 264.001 294.033 263.871 294.548C263.163 297.348 262.461 300.127 261.962 302.957C261.939 303.088 261.915 303.266 261.886 303.484C261.859 303.688 261.828 303.926 261.787 304.193C261.708 304.718 261.601 305.318 261.443 305.812C261.365 306.059 261.268 306.298 261.144 306.494C261.025 306.683 260.847 306.888 260.583 306.967C260.294 307.054 260.02 306.959 259.794 306.789C259.577 306.624 259.37 306.366 259.164 306.029C258.342 304.689 257.733 303.195 257.181 301.704C257.026 301.287 256.876 300.87 256.727 300.457C256.34 299.384 255.961 298.332 255.525 297.332C255.504 297.284 255.458 297.175 255.394 297.024C255.218 296.607 254.905 295.865 254.592 295.157C254.38 294.678 254.177 294.233 254.028 293.939C253.993 293.871 253.964 293.816 253.94 293.772C253.813 293.703 253.728 293.569 253.728 293.414C253.728 293.387 253.728 293.301 253.771 293.209C253.795 293.157 253.845 293.077 253.943 293.021C254.047 292.961 254.155 292.957 254.238 292.974C254.365 293.001 254.444 293.08 254.463 293.098L254.464 293.099C254.495 293.13 254.52 293.162 254.537 293.186C254.603 293.277 254.68 293.419 254.756 293.569C254.916 293.884 255.127 294.347 255.338 294.827C255.656 295.544 255.992 296.341 256.164 296.748C256.22 296.88 256.259 296.971 256.274 297.006C256.721 298.032 257.114 299.122 257.504 300.205C257.651 300.613 257.797 301.019 257.946 301.421C258.495 302.902 259.082 304.333 259.86 305.603C260.044 305.903 260.188 306.063 260.287 306.138C260.32 306.163 260.342 306.174 260.355 306.18C260.37 306.168 260.405 306.136 260.453 306.06C260.525 305.946 260.596 305.78 260.665 305.564C260.802 305.135 260.902 304.589 260.98 304.071C261.014 303.844 261.045 303.613 261.073 303.405C261.105 303.163 261.134 302.953 261.158 302.815C261.663 299.953 262.373 297.141 263.081 294.342C263.21 293.829 263.34 293.316 263.468 292.803C263.523 292.584 263.744 292.451 263.963 292.506ZM260.369 306.183C260.369 306.184 260.367 306.184 260.363 306.183C260.367 306.183 260.369 306.183 260.369 306.183ZM253.873 293.662C253.873 293.661 253.873 293.662 253.874 293.663C253.873 293.662 253.873 293.662 253.873 293.662Z" fill="#505050"/>
<rect x="102.5" y="308.5" width="313" height="38" rx="7.5" fill="#F8F8F8"/>
<rect x="102.5" y="308.5" width="313" height="38" rx="7.5" stroke="#EFEFEF"/>
<path d="M192.409 333V321.364H196.341C197.254 321.364 198 321.528 198.58 321.858C199.163 322.184 199.595 322.625 199.875 323.182C200.155 323.739 200.295 324.36 200.295 325.045C200.295 325.731 200.155 326.354 199.875 326.915C199.598 327.475 199.17 327.922 198.591 328.256C198.011 328.585 197.269 328.75 196.364 328.75H193.545V327.5H196.318C196.943 327.5 197.445 327.392 197.824 327.176C198.203 326.96 198.477 326.669 198.648 326.301C198.822 325.93 198.909 325.511 198.909 325.045C198.909 324.58 198.822 324.163 198.648 323.795C198.477 323.428 198.201 323.14 197.818 322.932C197.436 322.72 196.928 322.614 196.295 322.614H193.818V333H192.409ZM202.384 333V324.273H203.679V325.591H203.77C203.929 325.159 204.217 324.809 204.634 324.54C205.05 324.271 205.52 324.136 206.043 324.136C206.141 324.136 206.264 324.138 206.412 324.142C206.56 324.146 206.671 324.152 206.747 324.159V325.523C206.702 325.511 206.598 325.494 206.435 325.472C206.276 325.445 206.107 325.432 205.929 325.432C205.505 325.432 205.126 325.521 204.793 325.699C204.463 325.873 204.202 326.116 204.009 326.426C203.819 326.733 203.724 327.083 203.724 327.477V333H202.384ZM211.616 333.182C210.829 333.182 210.137 332.994 209.543 332.619C208.952 332.244 208.49 331.72 208.156 331.045C207.827 330.371 207.662 329.583 207.662 328.682C207.662 327.773 207.827 326.979 208.156 326.301C208.49 325.623 208.952 325.097 209.543 324.722C210.137 324.347 210.829 324.159 211.616 324.159C212.404 324.159 213.094 324.347 213.685 324.722C214.279 325.097 214.741 325.623 215.071 326.301C215.404 326.979 215.571 327.773 215.571 328.682C215.571 329.583 215.404 330.371 215.071 331.045C214.741 331.72 214.279 332.244 213.685 332.619C213.094 332.994 212.404 333.182 211.616 333.182ZM211.616 331.977C212.215 331.977 212.707 331.824 213.094 331.517C213.48 331.21 213.766 330.807 213.952 330.307C214.137 329.807 214.23 329.265 214.23 328.682C214.23 328.098 214.137 327.555 213.952 327.051C213.766 326.547 213.48 326.14 213.094 325.83C212.707 325.519 212.215 325.364 211.616 325.364C211.018 325.364 210.526 325.519 210.139 325.83C209.753 326.14 209.467 326.547 209.281 327.051C209.096 327.555 209.003 328.098 209.003 328.682C209.003 329.265 209.096 329.807 209.281 330.307C209.467 330.807 209.753 331.21 210.139 331.517C210.526 331.824 211.018 331.977 211.616 331.977ZM224.442 324.273L221.214 333H219.851L216.624 324.273H218.078L220.487 331.227H220.578L222.987 324.273H224.442ZM226.212 333V324.273H227.553V333H226.212ZM226.893 322.818C226.632 322.818 226.407 322.729 226.217 322.551C226.032 322.373 225.939 322.159 225.939 321.909C225.939 321.659 226.032 321.445 226.217 321.267C226.407 321.089 226.632 321 226.893 321C227.155 321 227.378 321.089 227.564 321.267C227.753 321.445 227.848 321.659 227.848 321.909C227.848 322.159 227.753 322.373 227.564 322.551C227.378 322.729 227.155 322.818 226.893 322.818ZM233.304 333.182C232.577 333.182 231.935 332.998 231.378 332.631C230.821 332.259 230.385 331.737 230.071 331.062C229.757 330.384 229.599 329.583 229.599 328.659C229.599 327.742 229.757 326.947 230.071 326.273C230.385 325.598 230.823 325.078 231.384 324.71C231.944 324.343 232.592 324.159 233.327 324.159C233.895 324.159 234.344 324.254 234.673 324.443C235.007 324.629 235.26 324.841 235.435 325.08C235.613 325.314 235.751 325.508 235.849 325.659H235.963V321.364H237.304V333H236.009V331.659H235.849C235.751 331.818 235.611 332.019 235.429 332.261C235.247 332.5 234.988 332.714 234.651 332.903C234.313 333.089 233.865 333.182 233.304 333.182ZM233.486 331.977C234.024 331.977 234.478 331.837 234.849 331.557C235.221 331.273 235.503 330.881 235.696 330.381C235.889 329.877 235.986 329.295 235.986 328.636C235.986 327.985 235.891 327.415 235.702 326.926C235.512 326.434 235.232 326.051 234.861 325.778C234.49 325.502 234.031 325.364 233.486 325.364C232.918 325.364 232.444 325.509 232.065 325.801C231.69 326.089 231.408 326.481 231.219 326.977C231.033 327.47 230.94 328.023 230.94 328.636C230.94 329.258 231.035 329.822 231.224 330.33C231.418 330.833 231.702 331.235 232.077 331.534C232.455 331.83 232.925 331.977 233.486 331.977ZM243.605 333.182C242.764 333.182 242.039 332.996 241.429 332.625C240.823 332.25 240.355 331.727 240.026 331.057C239.7 330.383 239.537 329.598 239.537 328.705C239.537 327.811 239.7 327.023 240.026 326.341C240.355 325.655 240.813 325.121 241.401 324.739C241.991 324.352 242.681 324.159 243.469 324.159C243.923 324.159 244.372 324.235 244.815 324.386C245.259 324.538 245.662 324.784 246.026 325.125C246.389 325.462 246.679 325.909 246.895 326.466C247.111 327.023 247.219 327.708 247.219 328.523V329.091H240.491V327.932H245.855C245.855 327.439 245.757 327 245.56 326.614C245.366 326.227 245.09 325.922 244.73 325.699C244.374 325.475 243.954 325.364 243.469 325.364C242.935 325.364 242.473 325.496 242.082 325.761C241.696 326.023 241.399 326.364 241.19 326.784C240.982 327.205 240.878 327.655 240.878 328.136V328.909C240.878 329.568 240.991 330.127 241.219 330.585C241.45 331.04 241.77 331.386 242.179 331.625C242.588 331.86 243.063 331.977 243.605 331.977C243.957 331.977 244.276 331.928 244.56 331.83C244.848 331.727 245.096 331.576 245.304 331.375C245.512 331.17 245.673 330.917 245.787 330.614L247.082 330.977C246.946 331.417 246.717 331.803 246.395 332.136C246.073 332.466 245.675 332.723 245.202 332.909C244.728 333.091 244.196 333.182 243.605 333.182ZM249.259 333V324.273H250.554V325.591H250.645C250.804 325.159 251.092 324.809 251.509 324.54C251.925 324.271 252.395 324.136 252.918 324.136C253.016 324.136 253.139 324.138 253.287 324.142C253.435 324.146 253.546 324.152 253.622 324.159V325.523C253.577 325.511 253.473 325.494 253.31 325.472C253.151 325.445 252.982 325.432 252.804 325.432C252.38 325.432 252.001 325.521 251.668 325.699C251.338 325.873 251.077 326.116 250.884 326.426C250.694 326.733 250.599 327.083 250.599 327.477V333H249.259ZM265.893 326.227L264.689 326.568C264.613 326.367 264.501 326.172 264.354 325.983C264.21 325.79 264.013 325.631 263.763 325.506C263.513 325.381 263.193 325.318 262.803 325.318C262.268 325.318 261.823 325.441 261.467 325.688C261.115 325.93 260.939 326.239 260.939 326.614C260.939 326.947 261.06 327.21 261.303 327.403C261.545 327.597 261.924 327.758 262.439 327.886L263.734 328.205C264.515 328.394 265.096 328.684 265.479 329.074C265.861 329.46 266.053 329.958 266.053 330.568C266.053 331.068 265.909 331.515 265.621 331.909C265.337 332.303 264.939 332.614 264.428 332.841C263.916 333.068 263.321 333.182 262.643 333.182C261.753 333.182 261.017 332.989 260.433 332.602C259.85 332.216 259.481 331.652 259.325 330.909L260.598 330.591C260.719 331.061 260.948 331.413 261.286 331.648C261.626 331.883 262.071 332 262.621 332C263.246 332 263.742 331.867 264.109 331.602C264.481 331.333 264.666 331.011 264.666 330.636C264.666 330.333 264.56 330.08 264.348 329.875C264.136 329.667 263.81 329.511 263.371 329.409L261.916 329.068C261.117 328.879 260.53 328.585 260.155 328.188C259.784 327.786 259.598 327.284 259.598 326.682C259.598 326.189 259.736 325.754 260.013 325.375C260.293 324.996 260.674 324.699 261.155 324.483C261.64 324.267 262.189 324.159 262.803 324.159C263.666 324.159 264.344 324.348 264.837 324.727C265.333 325.106 265.685 325.606 265.893 326.227ZM271.73 333.182C270.889 333.182 270.164 332.996 269.554 332.625C268.948 332.25 268.48 331.727 268.151 331.057C267.825 330.383 267.662 329.598 267.662 328.705C267.662 327.811 267.825 327.023 268.151 326.341C268.48 325.655 268.938 325.121 269.526 324.739C270.116 324.352 270.806 324.159 271.594 324.159C272.048 324.159 272.497 324.235 272.94 324.386C273.384 324.538 273.787 324.784 274.151 325.125C274.514 325.462 274.804 325.909 275.02 326.466C275.236 327.023 275.344 327.708 275.344 328.523V329.091H268.616V327.932H273.98C273.98 327.439 273.882 327 273.685 326.614C273.491 326.227 273.215 325.922 272.855 325.699C272.499 325.475 272.079 325.364 271.594 325.364C271.06 325.364 270.598 325.496 270.207 325.761C269.821 326.023 269.524 326.364 269.315 326.784C269.107 327.205 269.003 327.655 269.003 328.136V328.909C269.003 329.568 269.116 330.127 269.344 330.585C269.575 331.04 269.895 331.386 270.304 331.625C270.713 331.86 271.188 331.977 271.73 331.977C272.082 331.977 272.401 331.928 272.685 331.83C272.973 331.727 273.221 331.576 273.429 331.375C273.637 331.17 273.798 330.917 273.912 330.614L275.207 330.977C275.071 331.417 274.842 331.803 274.52 332.136C274.198 332.466 273.8 332.723 273.327 332.909C272.853 333.091 272.321 333.182 271.73 333.182ZM278.724 321.364V333H277.384V321.364H278.724ZM284.839 333.182C283.999 333.182 283.273 332.996 282.663 332.625C282.057 332.25 281.589 331.727 281.26 331.057C280.934 330.383 280.771 329.598 280.771 328.705C280.771 327.811 280.934 327.023 281.26 326.341C281.589 325.655 282.048 325.121 282.635 324.739C283.226 324.352 283.915 324.159 284.703 324.159C285.158 324.159 285.607 324.235 286.05 324.386C286.493 324.538 286.896 324.784 287.26 325.125C287.624 325.462 287.913 325.909 288.129 326.466C288.345 327.023 288.453 327.708 288.453 328.523V329.091H281.726V327.932H287.089C287.089 327.439 286.991 327 286.794 326.614C286.601 326.227 286.324 325.922 285.964 325.699C285.608 325.475 285.188 325.364 284.703 325.364C284.169 325.364 283.707 325.496 283.317 325.761C282.93 326.023 282.633 326.364 282.425 326.784C282.216 327.205 282.112 327.655 282.112 328.136V328.909C282.112 329.568 282.226 330.127 282.453 330.585C282.684 331.04 283.004 331.386 283.413 331.625C283.822 331.86 284.298 331.977 284.839 331.977C285.192 331.977 285.51 331.928 285.794 331.83C286.082 331.727 286.33 331.576 286.538 331.375C286.747 331.17 286.908 330.917 287.021 330.614L288.317 330.977C288.18 331.417 287.951 331.803 287.629 332.136C287.307 332.466 286.91 332.723 286.436 332.909C285.963 333.091 285.43 333.182 284.839 333.182ZM294.038 333.182C293.22 333.182 292.516 332.989 291.925 332.602C291.334 332.216 290.879 331.684 290.561 331.006C290.243 330.328 290.084 329.553 290.084 328.682C290.084 327.795 290.247 327.013 290.572 326.335C290.902 325.653 291.36 325.121 291.947 324.739C292.538 324.352 293.228 324.159 294.016 324.159C294.629 324.159 295.182 324.273 295.675 324.5C296.167 324.727 296.571 325.045 296.885 325.455C297.199 325.864 297.394 326.341 297.47 326.886H296.129C296.027 326.489 295.8 326.136 295.447 325.83C295.099 325.519 294.629 325.364 294.038 325.364C293.516 325.364 293.057 325.5 292.663 325.773C292.273 326.042 291.968 326.422 291.749 326.915C291.533 327.403 291.425 327.977 291.425 328.636C291.425 329.311 291.531 329.898 291.743 330.398C291.959 330.898 292.262 331.286 292.652 331.562C293.046 331.839 293.508 331.977 294.038 331.977C294.387 331.977 294.703 331.917 294.987 331.795C295.271 331.674 295.512 331.5 295.709 331.273C295.906 331.045 296.046 330.773 296.129 330.455H297.47C297.394 330.97 297.207 331.434 296.908 331.847C296.612 332.256 296.22 332.581 295.732 332.824C295.247 333.062 294.682 333.182 294.038 333.182ZM303.226 324.273V325.409H298.703V324.273H303.226ZM300.021 322.182H301.362V330.5C301.362 330.879 301.417 331.163 301.527 331.352C301.641 331.538 301.785 331.663 301.959 331.727C302.137 331.788 302.324 331.818 302.521 331.818C302.669 331.818 302.79 331.811 302.885 331.795C302.98 331.777 303.055 331.761 303.112 331.75L303.385 332.955C303.294 332.989 303.167 333.023 303.004 333.057C302.841 333.095 302.635 333.114 302.385 333.114C302.006 333.114 301.635 333.032 301.271 332.869C300.911 332.706 300.612 332.458 300.374 332.125C300.139 331.792 300.021 331.371 300.021 330.864V322.182ZM305.243 333V324.273H306.584V333H305.243ZM305.925 322.818C305.663 322.818 305.438 322.729 305.249 322.551C305.063 322.373 304.97 322.159 304.97 321.909C304.97 321.659 305.063 321.445 305.249 321.267C305.438 321.089 305.663 321 305.925 321C306.186 321 306.41 321.089 306.595 321.267C306.785 321.445 306.879 321.659 306.879 321.909C306.879 322.159 306.785 322.373 306.595 322.551C306.41 322.729 306.186 322.818 305.925 322.818ZM312.585 333.182C311.797 333.182 311.106 332.994 310.511 332.619C309.92 332.244 309.458 331.72 309.125 331.045C308.795 330.371 308.631 329.583 308.631 328.682C308.631 327.773 308.795 326.979 309.125 326.301C309.458 325.623 309.92 325.097 310.511 324.722C311.106 324.347 311.797 324.159 312.585 324.159C313.373 324.159 314.063 324.347 314.653 324.722C315.248 325.097 315.71 325.623 316.04 326.301C316.373 326.979 316.54 327.773 316.54 328.682C316.54 329.583 316.373 330.371 316.04 331.045C315.71 331.72 315.248 332.244 314.653 332.619C314.063 332.994 313.373 333.182 312.585 333.182ZM312.585 331.977C313.184 331.977 313.676 331.824 314.062 331.517C314.449 331.21 314.735 330.807 314.92 330.307C315.106 329.807 315.199 329.265 315.199 328.682C315.199 328.098 315.106 327.555 314.92 327.051C314.735 326.547 314.449 326.14 314.062 325.83C313.676 325.519 313.184 325.364 312.585 325.364C311.987 325.364 311.494 325.519 311.108 325.83C310.722 326.14 310.436 326.547 310.25 327.051C310.064 327.555 309.972 328.098 309.972 328.682C309.972 329.265 310.064 329.807 310.25 330.307C310.436 330.807 310.722 331.21 311.108 331.517C311.494 331.824 311.987 331.977 312.585 331.977ZM319.928 327.75V333H318.587V324.273H319.882V325.636H319.996C320.2 325.193 320.511 324.837 320.928 324.568C321.344 324.295 321.882 324.159 322.541 324.159C323.132 324.159 323.649 324.28 324.092 324.523C324.536 324.761 324.88 325.125 325.126 325.614C325.373 326.098 325.496 326.712 325.496 327.455V333H324.155V327.545C324.155 326.86 323.977 326.326 323.621 325.943C323.265 325.557 322.776 325.364 322.155 325.364C321.727 325.364 321.344 325.456 321.007 325.642C320.674 325.828 320.411 326.098 320.217 326.455C320.024 326.811 319.928 327.242 319.928 327.75Z" fill="black"/>
<path fill-rule="evenodd" clip-rule="evenodd" d="M259.789 348C259.986 348 260.146 348.096 260.146 348.215L260.146 377.024C260.146 377.143 259.986 377.239 259.789 377.239C259.592 377.239 259.433 377.143 259.433 377.024L259.433 348.215C259.433 348.096 259.592 348 259.789 348Z" fill="#505050"/>
<path fill-rule="evenodd" clip-rule="evenodd" d="M263.963 369.506C264.182 369.561 264.315 369.782 264.26 370.001C264.131 370.518 264.001 371.033 263.871 371.548C263.163 374.348 262.461 377.127 261.962 379.957C261.939 380.088 261.915 380.266 261.886 380.484C261.859 380.688 261.828 380.926 261.787 381.193C261.708 381.718 261.601 382.318 261.443 382.812C261.365 383.059 261.268 383.298 261.144 383.494C261.025 383.683 260.847 383.888 260.583 383.967C260.294 384.054 260.02 383.959 259.794 383.789C259.577 383.624 259.37 383.366 259.164 383.029C258.342 381.689 257.733 380.195 257.181 378.704C257.026 378.287 256.876 377.87 256.727 377.457C256.34 376.384 255.961 375.332 255.525 374.332C255.504 374.284 255.458 374.175 255.394 374.024C255.218 373.607 254.905 372.865 254.592 372.157C254.38 371.678 254.177 371.233 254.028 370.939C253.993 370.871 253.964 370.816 253.94 370.772C253.813 370.703 253.728 370.569 253.728 370.414C253.728 370.387 253.728 370.301 253.771 370.209C253.795 370.157 253.845 370.077 253.943 370.021C254.047 369.961 254.155 369.957 254.238 369.974C254.365 370.001 254.444 370.08 254.463 370.098L254.464 370.099C254.495 370.13 254.52 370.162 254.537 370.186C254.603 370.277 254.68 370.419 254.756 370.569C254.916 370.884 255.127 371.347 255.338 371.827C255.656 372.544 255.992 373.341 256.164 373.748C256.22 373.88 256.259 373.971 256.274 374.006C256.721 375.032 257.114 376.122 257.504 377.205C257.651 377.613 257.797 378.019 257.946 378.421C258.495 379.902 259.082 381.333 259.86 382.603C260.044 382.903 260.188 383.063 260.287 383.138C260.32 383.163 260.342 383.174 260.355 383.18C260.37 383.168 260.405 383.136 260.453 383.06C260.525 382.946 260.596 382.78 260.665 382.564C260.802 382.135 260.902 381.589 260.98 381.071C261.014 380.844 261.045 380.613 261.073 380.405C261.105 380.163 261.134 379.953 261.158 379.815C261.663 376.953 262.373 374.141 263.081 371.342C263.21 370.829 263.34 370.316 263.468 369.803C263.523 369.584 263.744 369.451 263.963 369.506ZM260.369 383.183C260.369 383.184 260.367 383.184 260.363 383.183C260.367 383.183 260.369 383.183 260.369 383.183ZM253.873 370.662C253.873 370.661 253.873 370.662 253.874 370.663C253.873 370.662 253.873 370.662 253.873 370.662Z" fill="#505050"/>
<rect x="102.5" y="385.5" width="313" height="38" rx="7.5" fill="#F8F8F8"/>
<rect x="102.5" y="385.5" width="313" height="38" rx="7.5" stroke="#EFEFEF"/>
<path d="M233.273 402H231.864C231.78 401.595 231.634 401.239 231.426 400.932C231.222 400.625 230.972 400.367 230.676 400.159C230.384 399.947 230.061 399.788 229.705 399.682C229.348 399.576 228.977 399.523 228.591 399.523C227.886 399.523 227.248 399.701 226.676 400.057C226.108 400.413 225.655 400.938 225.318 401.631C224.985 402.324 224.818 403.174 224.818 404.182C224.818 405.189 224.985 406.04 225.318 406.733C225.655 407.426 226.108 407.951 226.676 408.307C227.248 408.663 227.886 408.841 228.591 408.841C228.977 408.841 229.348 408.788 229.705 408.682C230.061 408.576 230.384 408.419 230.676 408.21C230.972 407.998 231.222 407.739 231.426 407.432C231.634 407.121 231.78 406.765 231.864 406.364H233.273C233.167 406.958 232.973 407.491 232.693 407.96C232.413 408.43 232.064 408.83 231.648 409.159C231.231 409.485 230.763 409.733 230.244 409.903C229.729 410.074 229.178 410.159 228.591 410.159C227.598 410.159 226.716 409.917 225.943 409.432C225.17 408.947 224.563 408.258 224.119 407.364C223.676 406.47 223.455 405.409 223.455 404.182C223.455 402.955 223.676 401.894 224.119 401C224.563 400.106 225.17 399.417 225.943 398.932C226.716 398.447 227.598 398.205 228.591 398.205C229.178 398.205 229.729 398.29 230.244 398.46C230.763 398.631 231.231 398.881 231.648 399.21C232.064 399.536 232.413 399.934 232.693 400.403C232.973 400.869 233.167 401.402 233.273 402ZM236.709 404.75V410H235.368V398.364H236.709V402.636H236.822C237.027 402.186 237.334 401.828 237.743 401.562C238.156 401.294 238.705 401.159 239.391 401.159C239.985 401.159 240.506 401.278 240.953 401.517C241.4 401.752 241.747 402.114 241.993 402.602C242.243 403.087 242.368 403.705 242.368 404.455V410H241.027V404.545C241.027 403.852 240.847 403.316 240.487 402.938C240.131 402.555 239.637 402.364 239.004 402.364C238.565 402.364 238.171 402.456 237.822 402.642C237.478 402.828 237.205 403.098 237.004 403.455C236.807 403.811 236.709 404.242 236.709 404.75ZM248.48 410.182C247.639 410.182 246.914 409.996 246.304 409.625C245.698 409.25 245.23 408.727 244.901 408.057C244.575 407.383 244.412 406.598 244.412 405.705C244.412 404.811 244.575 404.023 244.901 403.341C245.23 402.655 245.688 402.121 246.276 401.739C246.866 401.352 247.556 401.159 248.344 401.159C248.798 401.159 249.247 401.235 249.69 401.386C250.134 401.538 250.537 401.784 250.901 402.125C251.264 402.462 251.554 402.909 251.77 403.466C251.986 404.023 252.094 404.708 252.094 405.523V406.091H245.366V404.932H250.73C250.73 404.439 250.632 404 250.435 403.614C250.241 403.227 249.965 402.922 249.605 402.699C249.249 402.475 248.829 402.364 248.344 402.364C247.81 402.364 247.348 402.496 246.957 402.761C246.571 403.023 246.274 403.364 246.065 403.784C245.857 404.205 245.753 404.655 245.753 405.136V405.909C245.753 406.568 245.866 407.127 246.094 407.585C246.325 408.04 246.645 408.386 247.054 408.625C247.463 408.86 247.938 408.977 248.48 408.977C248.832 408.977 249.151 408.928 249.435 408.83C249.723 408.727 249.971 408.576 250.179 408.375C250.387 408.17 250.548 407.917 250.662 407.614L251.957 407.977C251.821 408.417 251.592 408.803 251.27 409.136C250.948 409.466 250.55 409.723 250.077 409.909C249.603 410.091 249.071 410.182 248.48 410.182ZM257.679 410.182C256.861 410.182 256.156 409.989 255.565 409.602C254.974 409.216 254.52 408.684 254.202 408.006C253.884 407.328 253.724 406.553 253.724 405.682C253.724 404.795 253.887 404.013 254.213 403.335C254.543 402.653 255.001 402.121 255.588 401.739C256.179 401.352 256.868 401.159 257.656 401.159C258.27 401.159 258.823 401.273 259.315 401.5C259.808 401.727 260.211 402.045 260.526 402.455C260.84 402.864 261.035 403.341 261.111 403.886H259.77C259.668 403.489 259.44 403.136 259.088 402.83C258.74 402.519 258.27 402.364 257.679 402.364C257.156 402.364 256.698 402.5 256.304 402.773C255.914 403.042 255.609 403.422 255.389 403.915C255.173 404.403 255.065 404.977 255.065 405.636C255.065 406.311 255.171 406.898 255.384 407.398C255.599 407.898 255.902 408.286 256.293 408.562C256.687 408.839 257.149 408.977 257.679 408.977C258.027 408.977 258.344 408.917 258.628 408.795C258.912 408.674 259.152 408.5 259.349 408.273C259.546 408.045 259.687 407.773 259.77 407.455H261.111C261.035 407.97 260.848 408.434 260.548 408.847C260.253 409.256 259.861 409.581 259.372 409.824C258.887 410.062 258.323 410.182 257.679 410.182ZM264.321 406.818L264.298 405.159H264.571L268.389 401.273H270.048L265.98 405.386H265.866L264.321 406.818ZM263.071 410V398.364H264.412V410H263.071ZM268.616 410L265.207 405.682L266.162 404.75L270.321 410H268.616ZM274.96 410.182C274.172 410.182 273.481 409.994 272.886 409.619C272.295 409.244 271.833 408.72 271.5 408.045C271.17 407.371 271.006 406.583 271.006 405.682C271.006 404.773 271.17 403.979 271.5 403.301C271.833 402.623 272.295 402.097 272.886 401.722C273.481 401.347 274.172 401.159 274.96 401.159C275.748 401.159 276.438 401.347 277.028 401.722C277.623 402.097 278.085 402.623 278.415 403.301C278.748 403.979 278.915 404.773 278.915 405.682C278.915 406.583 278.748 407.371 278.415 408.045C278.085 408.72 277.623 409.244 277.028 409.619C276.438 409.994 275.748 410.182 274.96 410.182ZM274.96 408.977C275.559 408.977 276.051 408.824 276.438 408.517C276.824 408.21 277.11 407.807 277.295 407.307C277.481 406.807 277.574 406.265 277.574 405.682C277.574 405.098 277.481 404.555 277.295 404.051C277.11 403.547 276.824 403.14 276.438 402.83C276.051 402.519 275.559 402.364 274.96 402.364C274.362 402.364 273.869 402.519 273.483 402.83C273.097 403.14 272.811 403.547 272.625 404.051C272.439 404.555 272.347 405.098 272.347 405.682C272.347 406.265 272.439 406.807 272.625 407.307C272.811 407.807 273.097 408.21 273.483 408.517C273.869 408.824 274.362 408.977 274.96 408.977ZM286.462 406.432V401.273H287.803V410H286.462V408.523H286.371C286.166 408.966 285.848 409.343 285.416 409.653C284.984 409.96 284.439 410.114 283.78 410.114C283.234 410.114 282.75 409.994 282.325 409.756C281.901 409.513 281.568 409.15 281.325 408.665C281.083 408.176 280.962 407.561 280.962 406.818V401.273H282.303V406.727C282.303 407.364 282.481 407.871 282.837 408.25C283.196 408.629 283.655 408.818 284.212 408.818C284.545 408.818 284.884 408.733 285.229 408.562C285.577 408.392 285.869 408.131 286.104 407.778C286.342 407.426 286.462 406.977 286.462 406.432ZM294.054 401.273V402.409H289.531V401.273H294.054ZM290.849 399.182H292.19V407.5C292.19 407.879 292.245 408.163 292.355 408.352C292.469 408.538 292.613 408.663 292.787 408.727C292.965 408.788 293.152 408.818 293.349 408.818C293.497 408.818 293.618 408.811 293.713 408.795C293.808 408.777 293.884 408.761 293.94 408.75L294.213 409.955C294.122 409.989 293.995 410.023 293.832 410.057C293.67 410.095 293.463 410.114 293.213 410.114C292.834 410.114 292.463 410.032 292.099 409.869C291.74 409.706 291.44 409.458 291.202 409.125C290.967 408.792 290.849 408.371 290.849 407.864V399.182Z" fill="black"/>
</svg>
