<svg width="64" height="64" viewBox="0 0 64 64" fill="none" xmlns="http://www.w3.org/2000/svg">
<g clip-path="url(#clip0_3276_31847)">
<path fill-rule="evenodd" clip-rule="evenodd" d="M40.234 16.9092C41.6468 17.743 42.92 18.7944 44.007 20.0249C45.0713 21.2289 45.9247 22.6047 46.5311 24.0943C46.8757 24.9484 47.1469 25.8305 47.3418 26.731C47.7941 28.7532 47.8299 30.8467 47.447 32.8833C47.2394 33.9841 46.9238 35.0616 46.5048 36.1001L46.4523 36.21C45.5495 38.4073 44.0027 40.543 42.5083 42.6524C41.7415 43.7158 40.9834 44.7705 40.3436 45.7945C40.1427 46.1136 39.8583 46.3713 39.5214 46.5395C39.1845 46.7076 38.808 46.7798 38.433 46.7481L26.3559 48.5498C25.8613 48.6178 25.3589 48.5033 24.9421 48.2277C24.5254 47.9521 24.2227 47.534 24.0903 47.0513C23.7871 46.1707 23.4149 45.3154 22.9772 44.4937C22.6118 43.79 22.171 43.1284 21.6626 42.5205C21.036 41.8042 20.4005 41.0747 19.7827 40.2354C19.0733 39.2827 18.4611 38.2609 17.9553 37.1856C17.425 36.0594 17.0124 34.8813 16.724 33.6699C16.4387 32.4531 16.299 31.2065 16.3076 29.9566C16.3078 28.6536 16.4712 27.3559 16.7941 26.0938C17.1444 24.7444 17.6472 23.4396 18.2927 22.2046L18.3804 22.0508C19.2156 20.6291 20.2702 19.3491 21.5048 18.2583C22.7359 17.1803 24.1367 16.3145 25.6503 15.6963L25.773 15.6524C26.9009 15.2025 28.0775 14.8868 29.2787 14.7119C30.552 14.5331 31.8417 14.5036 33.1218 14.624C34.3726 14.7386 35.607 14.9906 36.8028 15.3755C37.994 15.7581 39.1389 16.2725 40.2165 16.9092H40.234ZM38.4812 55.2559C37.8184 56.401 36.8701 57.3536 35.7292 58.02C34.7661 58.5824 33.6861 58.9133 32.5741 58.9868C31.4624 59.0543 30.352 58.835 29.3488 58.3496C28.6256 57.9922 27.9737 57.5052 27.4251 56.9126L38.5075 55.2559H38.4812ZM39.5373 49.0376V49.7627V50.0176C39.5724 50.493 39.5724 50.9704 39.5373 51.4458L39.3225 52.4961L25.8957 54.5L25.6591 53.9595L25.1376 51.8062V51.1822L39.5066 49.0376H39.5373ZM31.6889 6.65676C31.697 6.21073 31.8808 5.78605 32.2003 5.47559C32.5197 5.16513 32.9487 4.99414 33.3935 5.00002H33.5119C33.9356 5.03774 34.3295 5.23504 34.614 5.55222C34.8986 5.86939 35.0528 6.2829 35.0456 6.7095C35.0479 6.73875 35.0479 6.76814 35.0456 6.79739L34.9536 10.4053C34.9559 10.4433 34.9559 10.4815 34.9536 10.5196C34.9203 10.9462 34.7266 11.3441 34.4117 11.633C34.0969 11.9218 33.6844 12.0799 33.2577 12.0752H33.1394C32.714 12.0407 32.3176 11.8454 32.0304 11.5288C31.7432 11.2123 31.5867 10.7981 31.5925 10.3701C31.5901 10.3424 31.5901 10.3144 31.5925 10.2866L31.6801 6.66116L31.6889 6.65676ZM13.135 12.9761C12.8898 12.7493 12.7174 12.4545 12.6396 12.1291C12.5619 11.8038 12.5823 11.4627 12.6983 11.149C12.8143 10.8354 13.0206 10.5634 13.2911 10.3676C13.5616 10.1718 13.884 10.061 14.2174 10.0493C14.4379 10.0392 14.6582 10.0728 14.8658 10.1483C15.0733 10.2237 15.264 10.3394 15.4268 10.4888L18.1262 13.0069C18.4507 13.3146 18.6425 13.7372 18.6608 14.1846C18.6712 14.4058 18.6378 14.6268 18.5626 14.8349C18.4874 15.0431 18.3718 15.2343 18.2226 15.3975C17.9183 15.7237 17.4978 15.9164 17.0526 15.9336C16.832 15.9445 16.6115 15.9112 16.4039 15.8357C16.1962 15.7603 16.0056 15.6442 15.8431 15.4942L13.135 12.9761ZM8.71782 31.5782C8.27437 31.5853 7.84586 31.4175 7.52457 31.1109C7.20327 30.8044 7.0149 30.3835 7.00002 29.939C6.99065 29.7156 7.02565 29.4925 7.103 29.2827C7.18035 29.073 7.2985 28.8807 7.45059 28.7172C7.60267 28.5536 7.78566 28.422 7.98892 28.33C8.19217 28.238 8.41164 28.1874 8.63455 28.1812L12.3199 28.0581C12.5424 28.0487 12.7645 28.0837 12.9733 28.161C13.1822 28.2383 13.3737 28.3564 13.5368 28.5084C13.6998 28.6605 13.8311 28.8435 13.9231 29.0468C14.0152 29.2501 14.066 29.4697 14.0728 29.6929V29.7193V29.7808C14.0651 30.2147 13.8909 30.629 13.5865 30.9376C13.2821 31.2461 12.8709 31.4252 12.4382 31.4375H12.3725L8.73534 31.5562L8.71782 31.5782ZM55.1683 26.3399H55.2034C55.6255 26.3145 56.0416 26.4494 56.369 26.7178C56.5414 26.8572 56.6845 27.0297 56.7898 27.2251C56.8951 27.4205 56.9606 27.6349 56.9825 27.856C56.985 27.8749 56.985 27.8942 56.9825 27.9131C57.0097 28.3482 56.8679 28.7769 56.5869 29.1095C56.3059 29.4421 55.9075 29.6527 55.475 29.6973L51.8072 30.0884C51.5875 30.1104 51.3657 30.0887 51.1544 30.0246C50.9431 29.9606 50.7465 29.8553 50.5758 29.7149C50.3179 29.5051 50.1276 29.2235 50.0289 28.9056C49.9302 28.5876 49.9275 28.2474 50.0212 27.9279C50.1149 27.6084 50.3008 27.3238 50.5555 27.1101C50.8101 26.8963 51.1221 26.7629 51.4523 26.7266C52.6749 26.5904 53.9062 26.4497 55.1332 26.3311L55.1683 26.3399ZM47.8984 11.6314C48.0197 11.446 48.1763 11.2864 48.3593 11.1619C48.5423 11.0374 48.7481 10.9504 48.9647 10.9059C49.1814 10.8614 49.4046 10.8602 49.6217 10.9025C49.8388 10.9448 50.0454 11.0297 50.2296 11.1524C50.4148 11.2734 50.5736 11.4308 50.6964 11.6151C50.8191 11.7994 50.9033 12.0068 50.9439 12.2246C51.0298 12.6636 50.9384 13.1188 50.6898 13.4903L48.6389 16.5664C48.5191 16.755 48.3627 16.9175 48.179 17.0444C47.9953 17.1712 47.7881 17.2597 47.5697 17.3047C47.1325 17.3902 46.6794 17.3003 46.3076 17.0542C45.9394 16.8049 45.6818 16.4221 45.589 15.9864C45.5031 15.5474 45.5945 15.0921 45.8431 14.7207L47.8984 11.6446V11.6314ZM23.7529 40.5386C22.4767 39.1958 21.4087 37.6685 20.5846 36.0078C19.6889 34.1497 19.223 32.1127 19.2218 30.0489C19.2664 27.8305 19.8388 25.6549 20.8913 23.7032C20.9004 23.6894 20.9077 23.6747 20.9133 23.6592C22.2478 21.3386 24.3133 19.5285 26.7853 18.5132C28.7202 17.7332 30.814 17.4318 32.8896 17.6343C34.947 17.8197 36.9384 18.4574 38.7222 19.502C41.0067 20.8235 42.7945 22.8618 43.8098 25.3028C44.4553 26.8514 44.7876 28.5132 44.7876 30.1917C44.7876 31.8702 44.4553 33.5319 43.8098 35.0806C42.631 37.959 39.9317 41.0352 38.1613 43.8477C38.0644 43.8278 37.9645 43.8278 37.8677 43.8477L26.4391 45.5396C25.8611 43.7198 24.9501 42.0239 23.7529 40.5386Z" fill="#707070"/>
</g>
<defs>
<clipPath id="clip0_3276_31847">
<rect width="50" height="54" fill="white" transform="translate(7 5)"/>
</clipPath>
</defs>
</svg>
