<svg width="64" height="64" viewBox="0 0 64 64" fill="none" xmlns="http://www.w3.org/2000/svg">
<g clip-path="url(#clip0_3276_31846)">
<path d="M46.3742 49.7749L50.5919 54.3531L47.6798 56.9998L43.6125 52.545C42.0661 53.567 40.2037 54.1697 38.2058 54.1697C35.5118 54.1697 33.0737 53.0841 31.3129 51.3322C29.5445 49.5727 28.4609 47.1469 28.4609 44.4741C28.4609 41.7937 29.552 39.368 31.3129 37.616C33.0813 35.8566 35.5194 34.7784 38.2058 34.7784C40.8997 34.7784 43.3378 35.8641 45.0987 37.616C46.8671 39.3754 47.9507 41.8012 47.9507 44.4741C47.9507 46.4319 47.3675 48.2587 46.3629 49.7898L46.3742 49.7749ZM51.5928 14.1967C51.8185 14.1518 52.0518 14.1967 52.2437 14.3128C52.5748 14.4475 52.8081 14.7695 52.8081 15.1476L52.9999 41.5654C53.015 41.8911 52.857 42.213 52.556 42.389L51.4084 43.0703C51.3745 42.7408 50.9343 41.236 51.1714 41.0937L50.9945 16.6412L42.0774 22.234V31.705C41.4829 31.5179 40.738 31.3719 40.1134 31.267V22.4961L28.2464 20.9725L27.8514 32.3864L23.6374 29.5301L19.4234 31.8997L20.2925 19.9655L14.0091 19.4077V44.1634L24.5554 45.3014C24.5968 45.9191 24.6796 46.6154 24.8 47.2068L12.8691 45.8891C12.3837 45.8629 12 45.4661 12 44.9757V18.1087C11.9887 17.7493 12.1956 17.4012 12.5455 17.2477L26.6662 11.0747C26.8129 11.011 26.9822 10.9848 27.1516 11.0035L51.5928 14.1967ZM38.345 14.3016L29.6724 19.1232L41.1857 20.5869L49.0794 15.7016L38.345 14.3016ZM21.4175 18.2734L29.9998 13.2122L27.1704 12.8416L16.2516 17.6183L21.4175 18.2734ZM43.8721 38.8364C42.4236 37.3951 40.4257 36.5042 38.2171 36.5042C36.0047 36.5042 34.0068 37.3951 32.562 38.8364C31.1135 40.2776 30.218 42.2654 30.218 44.4628C30.218 46.664 31.1135 48.6518 32.562 50.0893C34.0106 51.5306 36.0085 52.4215 38.2171 52.4215C40.4294 52.4215 42.4273 51.5306 43.8721 50.0893C45.3207 48.6481 46.2162 46.6603 46.2162 44.4628C46.2162 42.2617 45.3169 40.2739 43.8721 38.8364Z" fill="#707070"/>
</g>
<defs>
<clipPath id="clip0_3276_31846">
<rect width="41" height="46" fill="white" transform="translate(12 11)"/>
</clipPath>
</defs>
</svg>
