<svg width="64" height="64" viewBox="0 0 64 64" fill="none" xmlns="http://www.w3.org/2000/svg">
<g clip-path="url(#clip0_3276_31845)">
<path fill-rule="evenodd" clip-rule="evenodd" d="M27.873 10H36.127C38.6943 10 40.7959 12.1225 40.7959 14.7123V18.4565H52.7285C53.9023 18.4565 54.9727 18.9425 55.7461 19.7233C56.5186 20.503 57 21.5825 57 22.7685V48.688C57 49.8739 56.5186 50.9544 55.7461 51.7342C54.9727 52.515 53.9023 53 52.7285 53H11.2715C10.0957 53 9.02637 52.515 8.25391 51.7342C7.48145 50.9544 7 49.8739 7 48.688V22.7685C7 21.5825 7.48145 20.503 8.25391 19.7233C9.02637 18.9425 10.0957 18.4565 11.2715 18.4565H23.2041V14.7123C23.2041 12.1205 25.3057 10 27.873 10ZM44.2832 51.3615V20.0959H19.7168V51.3615H44.2832ZM46.9893 20.0959V51.3615H52.7285C53.4551 51.3615 54.1182 51.0599 54.5977 50.5758C55.0771 50.0918 55.376 49.4224 55.376 48.688V22.7685C55.376 22.035 55.0771 21.3657 54.5977 20.8816C54.1182 20.3976 53.4551 20.0959 52.7285 20.0959H46.9893ZM17.0107 51.3615V20.0959H11.2715C10.5439 20.0959 9.88086 20.3976 9.40234 20.8816C8.92285 21.3657 8.62305 22.035 8.62305 22.7685V48.688C8.62305 49.4224 8.92285 50.0918 9.40234 50.5758C9.88086 51.0599 10.5439 51.3615 11.2715 51.3615H17.0107ZM37.8213 18.4565V14.7014C37.8213 13.7935 37.083 13.0502 36.1855 13.0502H27.8145C26.916 13.0502 26.1787 13.7955 26.1787 14.7014V18.4565H37.8213Z" fill="#707070"/>
</g>
<defs>
<clipPath id="clip0_3276_31845">
<rect width="50" height="43" fill="white" transform="translate(7 10)"/>
</clipPath>
</defs>
</svg>
