<svg xmlns="http://www.w3.org/2000/svg" viewBox="0 0 360 360"><defs><style>.cls-1,.cls-2,.cls-3{fill:none;}.cls-1{stroke:#353535;}.cls-1,.cls-2{stroke-linecap:round;stroke-linejoin:round;stroke-width:5px;}.cls-2,.cls-3{stroke:#000;}.cls-3{stroke-miterlimit:10;stroke-width:12px;}</style></defs><title>Icons</title><g id="Edge"><line class="cls-1" x1="352.8" y1="331.2" x2="352.8" y2="28.8"/><path class="cls-1" d="M331.2,352.8a21.6,21.6,0,0,0,21.6-21.6"/><line class="cls-1" x1="28.8" y1="352.8" x2="331.2" y2="352.8"/><path class="cls-1" d="M7.2,331.2a21.6,21.6,0,0,0,21.6,21.6"/><line class="cls-1" x1="7.2" y1="28.8" x2="7.2" y2="331.2"/><path class="cls-1" d="M28.8,7.2A21.6,21.6,0,0,0,7.2,28.8"/><line class="cls-2" x1="331.2" y1="7.2" x2="28.8" y2="7.2"/><path class="cls-2" d="M352.8,28.8A21.6,21.6,0,0,0,331.2,7.2"/></g><g id="logo"><rect class="cls-3" x="64.8" y="100.8" width="230.4" height="158.4"/><line class="cls-3" x1="208.8" y1="180" x2="295.2" y2="259.2"/><path class="cls-3" d="M64.8,100.8,165.4,193a21.61,21.61,0,0,0,29.2,0L295.2,100.8"/><line class="cls-3" x1="64.8" y1="259.2" x2="151.2" y2="180"/></g></svg>