<svg width="83" height="83" viewBox="0 0 83 83" fill="none" xmlns="http://www.w3.org/2000/svg">
<path d="M26.56 36.5205C26.56 33.7698 24.3306 31.5405 21.58 31.5405C18.8294 31.5405 16.6 33.7698 16.6 36.5205V53.1205C16.6 66.8719 27.7485 78.0205 41.5 78.0205C55.2514 78.0205 66.4 66.8719 66.4 53.1205V41.5005C66.4 38.7498 64.1706 36.5205 61.42 36.5205C58.6694 36.5205 56.44 38.7498 56.44 41.5005V38.1805C56.44 35.4298 54.2106 33.2005 51.46 33.2005C48.7094 33.2005 46.48 35.4298 46.48 38.1805V34.8605C46.48 32.1098 44.2506 29.8805 41.5 29.8805C38.7494 29.8805 36.52 32.1098 36.52 34.8605V9.96047C36.52 7.20985 34.2906 4.98047 31.54 4.98047C28.7894 4.98047 26.56 7.20985 26.56 9.96047V51.4605V36.5205V36.5205Z" stroke="#79C25A" stroke-width="4" stroke-miterlimit="10" stroke-linecap="round" stroke-linejoin="round"/>
</svg>
