<svg width="1160" height="250" viewBox="0 0 1160 250" fill="none" xmlns="http://www.w3.org/2000/svg">
<g clip-path="url(#clip0_3369_35019)">
<path d="M1156 0H4C1.79086 0 0 1.79086 0 4V246C0 248.209 1.79086 250 4 250H1156C1158.21 250 1160 248.209 1160 246V4C1160 1.79086 1158.21 0 1156 0Z" fill="#EDEDEA"/>
<path d="M44.2461 40.8281H46.0918L47.8555 46.0098L49.6328 40.8281H51.4854V51H50.207V42.0107L48.3887 47.3701H47.3428L45.5176 42.0107V51H44.2461V40.8281ZM56.6465 42.0107L55.1904 47.2334H58.1025L56.6465 42.0107ZM55.8125 40.7939H57.4873L60.6113 51H59.1826L58.4307 48.3408H54.8555L54.1172 51H52.6885L55.8125 40.7939ZM66.0664 46.1807C66.4219 46.2718 66.7249 46.445 66.9756 46.7002C67.2262 46.9508 67.5384 47.4544 67.9121 48.2109L69.2998 51H67.8164L66.5996 48.4229C66.2487 47.6891 65.932 47.2174 65.6494 47.0078C65.3714 46.7936 65.0068 46.6865 64.5557 46.6865H63.2363V51H61.8486V40.7939H64.6924C65.8135 40.7939 66.6725 41.0469 67.2695 41.5527C67.8665 42.0586 68.165 42.79 68.165 43.7471C68.165 44.4215 67.9805 44.973 67.6113 45.4014C67.2467 45.8252 66.7318 46.085 66.0664 46.1807ZM63.2363 41.9287V45.5518H64.7471C65.4079 45.5518 65.9001 45.4036 66.2236 45.1074C66.5472 44.8112 66.709 44.3577 66.709 43.7471C66.709 43.1592 66.5358 42.7103 66.1895 42.4004C65.8477 42.0859 65.3486 41.9287 64.6924 41.9287H63.2363ZM70.2432 40.7939H71.6309V45.333L75.9443 40.7939H77.5645L73.5928 44.9639L77.6807 51H76.0127L72.6836 45.8867L71.6309 47.0078V51H70.2432V40.7939ZM79.0889 40.7939H85.1455V41.9561H80.4697V44.7041H84.9404V45.8662H80.4697V49.8379H85.2754V51H79.0889V40.7939ZM86.499 40.7939H94.2852V41.9561H91.0928V51H89.7051V41.9561H86.499V40.7939ZM97.3408 41.9287V45.7637H98.9404C99.5785 45.7637 100.075 45.5951 100.431 45.2578C100.791 44.9206 100.971 44.4489 100.971 43.8428C100.971 43.2367 100.793 42.7673 100.438 42.4346C100.082 42.0973 99.583 41.9287 98.9404 41.9287H97.3408ZM95.96 40.7939H98.9404C100.08 40.7939 100.943 41.0537 101.531 41.5732C102.119 42.0882 102.413 42.8447 102.413 43.8428C102.413 44.8499 102.119 45.611 101.531 46.126C100.948 46.641 100.084 46.8984 98.9404 46.8984H97.3408V51H95.96V40.7939ZM104.519 40.7939H105.906V49.8379H110.835V51H104.519V40.7939ZM115.695 42.0107L114.239 47.2334H117.151L115.695 42.0107ZM114.861 40.7939H116.536L119.66 51H118.231L117.479 48.3408H113.904L113.166 51H111.737L114.861 40.7939ZM127.255 50.6377C126.904 50.8245 126.544 50.9635 126.175 51.0547C125.806 51.1504 125.414 51.1982 124.999 51.1982C123.691 51.1982 122.675 50.7357 121.95 49.8105C121.23 48.8854 120.87 47.5843 120.87 45.9072C120.87 44.2393 121.232 42.9404 121.957 42.0107C122.686 41.0765 123.7 40.6094 124.999 40.6094C125.414 40.6094 125.806 40.6572 126.175 40.7529C126.544 40.8441 126.904 40.9831 127.255 41.1699V42.585C126.918 42.307 126.555 42.0951 126.168 41.9492C125.781 41.8034 125.391 41.7305 124.999 41.7305C124.101 41.7305 123.429 42.0768 122.982 42.7695C122.536 43.4622 122.312 44.5081 122.312 45.9072C122.312 47.3018 122.536 48.3454 122.982 49.0381C123.429 49.7308 124.101 50.0771 124.999 50.0771C125.4 50.0771 125.792 50.0042 126.175 49.8584C126.562 49.7126 126.922 49.5007 127.255 49.2227V50.6377ZM129.702 40.7939H135.759V41.9561H131.083V44.7041H135.554V45.8662H131.083V49.8379H135.889V51H129.702V40.7939ZM145.227 40.7939H146.573L147.551 49.0791L148.713 43.5967H150.155L151.331 49.0928L152.309 40.7939H153.655L152.131 51H150.825L149.438 44.9365L148.057 51H146.751L145.227 40.7939ZM159.849 45.9072C159.849 44.4079 159.694 43.3369 159.384 42.6943C159.078 42.0518 158.575 41.7305 157.873 41.7305C157.176 41.7305 156.672 42.0518 156.362 42.6943C156.057 43.3369 155.904 44.4079 155.904 45.9072C155.904 47.402 156.057 48.4707 156.362 49.1133C156.672 49.7559 157.176 50.0771 157.873 50.0771C158.575 50.0771 159.078 49.7581 159.384 49.1201C159.694 48.4775 159.849 47.4066 159.849 45.9072ZM161.291 45.9072C161.291 47.6846 161.008 49.0107 160.443 49.8857C159.883 50.7607 159.026 51.1982 157.873 51.1982C156.72 51.1982 155.863 50.763 155.303 49.8926C154.742 49.0221 154.462 47.6937 154.462 45.9072C154.462 44.1253 154.742 42.7969 155.303 41.9219C155.868 41.0469 156.725 40.6094 157.873 40.6094C159.026 40.6094 159.883 41.0469 160.443 41.9219C161.008 42.7969 161.291 44.1253 161.291 45.9072ZM167.293 46.1807C167.648 46.2718 167.951 46.445 168.202 46.7002C168.453 46.9508 168.765 47.4544 169.139 48.2109L170.526 51H169.043L167.826 48.4229C167.475 47.6891 167.159 47.2174 166.876 47.0078C166.598 46.7936 166.233 46.6865 165.782 46.6865H164.463V51H163.075V40.7939H165.919C167.04 40.7939 167.899 41.0469 168.496 41.5527C169.093 42.0586 169.392 42.79 169.392 43.7471C169.392 44.4215 169.207 44.973 168.838 45.4014C168.473 45.8252 167.958 46.085 167.293 46.1807ZM164.463 41.9287V45.5518H165.974C166.634 45.5518 167.127 45.4036 167.45 45.1074C167.774 44.8112 167.936 44.3577 167.936 43.7471C167.936 43.1592 167.762 42.7103 167.416 42.4004C167.074 42.0859 166.575 41.9287 165.919 41.9287H164.463ZM171.47 40.7939H172.857V45.333L177.171 40.7939H178.791L174.819 44.9639L178.907 51H177.239L173.91 45.8867L172.857 47.0078V51H171.47V40.7939ZM180.562 40.7939H186.57V41.9561H181.949V44.6904H186.14V45.8525H181.949V51H180.562V40.7939ZM188.874 40.7939H190.262V49.8379H195.19V51H188.874V40.7939ZM202.026 45.9072C202.026 44.4079 201.871 43.3369 201.562 42.6943C201.256 42.0518 200.753 41.7305 200.051 41.7305C199.354 41.7305 198.85 42.0518 198.54 42.6943C198.235 43.3369 198.082 44.4079 198.082 45.9072C198.082 47.402 198.235 48.4707 198.54 49.1133C198.85 49.7559 199.354 50.0771 200.051 50.0771C200.753 50.0771 201.256 49.7581 201.562 49.1201C201.871 48.4775 202.026 47.4066 202.026 45.9072ZM203.469 45.9072C203.469 47.6846 203.186 49.0107 202.621 49.8857C202.061 50.7607 201.204 51.1982 200.051 51.1982C198.898 51.1982 198.041 50.763 197.48 49.8926C196.92 49.0221 196.64 47.6937 196.64 45.9072C196.64 44.1253 196.92 42.7969 197.48 41.9219C198.046 41.0469 198.902 40.6094 200.051 40.6094C201.204 40.6094 202.061 41.0469 202.621 41.9219C203.186 42.7969 203.469 44.1253 203.469 45.9072ZM204.275 40.7939H205.622L206.6 49.0791L207.762 43.5967H209.204L210.38 49.0928L211.357 40.7939H212.704L211.18 51H209.874L208.486 44.9365L207.105 51H205.8L204.275 40.7939Z" fill="#41413C"/>
<path d="M998.743 48.5156V44.4492H999.821V48.5156C999.821 49.1055 999.924 49.5391 1000.13 49.8164C1000.34 50.0938 1000.67 50.2324 1001.1 50.2324C1001.61 50.2324 1002 50.0547 1002.27 49.6992C1002.54 49.3398 1002.67 48.8262 1002.67 48.1582V44.4492H1003.76V51H1002.67V50.0156C1002.48 50.3945 1002.22 50.6816 1001.89 50.877C1001.56 51.0723 1001.18 51.1699 1000.73 51.1699C1000.06 51.1699 999.563 50.9512 999.235 50.5137C998.907 50.0723 998.743 49.4062 998.743 48.5156ZM1010.99 46.9336V51H1009.9V46.9336C1009.9 46.3438 1009.8 45.9102 1009.59 45.6328C1009.39 45.3555 1009.06 45.2168 1008.62 45.2168C1008.12 45.2168 1007.73 45.3965 1007.46 45.7559C1007.19 46.1113 1007.05 46.623 1007.05 47.291V51H1005.97V44.4375H1007.05V45.4219C1007.24 45.0469 1007.5 44.7637 1007.83 44.5723C1008.16 44.377 1008.55 44.2793 1009 44.2793C1009.66 44.2793 1010.16 44.5 1010.49 44.9414C1010.82 45.3789 1010.99 46.043 1010.99 46.9336ZM1018.83 45.791C1018.6 45.6113 1018.36 45.4805 1018.13 45.3984C1017.89 45.3164 1017.63 45.2754 1017.34 45.2754C1016.67 45.2754 1016.15 45.4863 1015.8 45.9082C1015.44 46.3301 1015.27 46.9395 1015.27 47.7363V51H1014.18V44.4375H1015.27V45.7207C1015.45 45.2559 1015.72 44.9004 1016.09 44.6543C1016.47 44.4043 1016.91 44.2793 1017.42 44.2793C1017.69 44.2793 1017.94 44.3125 1018.17 44.3789C1018.4 44.4453 1018.62 44.5488 1018.83 44.6895V45.791ZM1025.85 47.1797V47.707H1021.18V47.7422C1021.15 48.6367 1021.32 49.2793 1021.69 49.6699C1022.07 50.0605 1022.6 50.2559 1023.28 50.2559C1023.62 50.2559 1023.98 50.2012 1024.35 50.0918C1024.73 49.9824 1025.13 49.8164 1025.56 49.5938V50.666C1025.14 50.834 1024.75 50.959 1024.37 51.041C1023.99 51.127 1023.62 51.1699 1023.26 51.1699C1022.24 51.1699 1021.45 50.8652 1020.87 50.2559C1020.3 49.6426 1020.01 48.7988 1020.01 47.7246C1020.01 46.6777 1020.29 45.8418 1020.86 45.2168C1021.42 44.5918 1022.17 44.2793 1023.11 44.2793C1023.94 44.2793 1024.6 44.5625 1025.08 45.1289C1025.56 45.6953 1025.82 46.3789 1025.85 47.1797ZM1024.78 46.8633C1024.73 46.4102 1024.56 46.0195 1024.28 45.6914C1024 45.3594 1023.59 45.1934 1023.06 45.1934C1022.54 45.1934 1022.11 45.3652 1021.78 45.709C1021.44 46.0527 1021.26 46.4395 1021.22 46.8691L1024.78 46.8633ZM1032.22 44.666V45.7207C1031.91 45.541 1031.6 45.4062 1031.29 45.3164C1030.98 45.2266 1030.66 45.1816 1030.34 45.1816C1029.85 45.1816 1029.48 45.2617 1029.24 45.4219C1029 45.5781 1028.88 45.8184 1028.88 46.1426C1028.88 46.4355 1028.97 46.6543 1029.15 46.7988C1029.33 46.9434 1029.78 47.084 1030.49 47.2207L1030.93 47.3027C1031.46 47.4043 1031.87 47.6074 1032.14 47.9121C1032.42 48.2168 1032.56 48.6133 1032.56 49.1016C1032.56 49.75 1032.33 50.2578 1031.87 50.625C1031.4 50.9883 1030.76 51.1699 1029.94 51.1699C1029.62 51.1699 1029.28 51.1348 1028.92 51.0645C1028.57 50.998 1028.18 50.8965 1027.77 50.7598V49.6465C1028.17 49.8535 1028.56 50.0098 1028.92 50.1152C1029.29 50.2168 1029.64 50.2676 1029.97 50.2676C1030.44 50.2676 1030.81 50.1719 1031.07 49.9805C1031.34 49.7852 1031.47 49.5137 1031.47 49.166C1031.47 48.666 1030.99 48.3203 1030.03 48.1289L1029.98 48.1172L1029.58 48.0352C1028.96 47.9141 1028.51 47.7109 1028.22 47.4258C1027.94 47.1367 1027.79 46.7441 1027.79 46.248C1027.79 45.6191 1028.01 45.1348 1028.43 44.7949C1028.86 44.4512 1029.47 44.2793 1030.25 44.2793C1030.61 44.2793 1030.94 44.3125 1031.27 44.3789C1031.59 44.4414 1031.91 44.5371 1032.22 44.666ZM1037.36 45.1934C1036.81 45.1934 1036.4 45.4062 1036.12 45.832C1035.84 46.2578 1035.7 46.8887 1035.7 47.7246C1035.7 48.5566 1035.84 49.1875 1036.12 49.6172C1036.4 50.043 1036.81 50.2559 1037.36 50.2559C1037.91 50.2559 1038.33 50.043 1038.61 49.6172C1038.89 49.1875 1039.03 48.5566 1039.03 47.7246C1039.03 46.8887 1038.89 46.2578 1038.61 45.832C1038.33 45.4062 1037.91 45.1934 1037.36 45.1934ZM1037.36 44.2793C1038.27 44.2793 1038.97 44.5742 1039.45 45.1641C1039.93 45.7539 1040.17 46.6074 1040.17 47.7246C1040.17 48.8457 1039.93 49.7012 1039.45 50.291C1038.97 50.877 1038.28 51.1699 1037.36 51.1699C1036.45 51.1699 1035.76 50.877 1035.28 50.291C1034.8 49.7012 1034.56 48.8457 1034.56 47.7246C1034.56 46.6074 1034.8 45.7539 1035.28 45.1641C1035.76 44.5742 1036.45 44.2793 1037.36 44.2793ZM1045.2 48.627C1045.2 49.1113 1045.28 49.4766 1045.46 49.7227C1045.64 49.9688 1045.9 50.0918 1046.25 50.0918H1047.51V51H1046.14C1045.5 51 1045 50.7949 1044.64 50.3848C1044.29 49.9707 1044.12 49.3848 1044.12 48.627V42.6914H1042.39V41.8477H1045.2V48.627ZM1048.8 44.4375H1049.92L1051.82 49.9453L1053.73 44.4375H1054.85L1052.52 51H1051.13L1048.8 44.4375ZM1062.01 47.1797V47.707H1057.34V47.7422C1057.31 48.6367 1057.47 49.2793 1057.85 49.6699C1058.22 50.0605 1058.75 50.2559 1059.43 50.2559C1059.77 50.2559 1060.13 50.2012 1060.51 50.0918C1060.88 49.9824 1061.28 49.8164 1061.71 49.5938V50.666C1061.3 50.834 1060.9 50.959 1060.52 51.041C1060.14 51.127 1059.77 51.1699 1059.42 51.1699C1058.4 51.1699 1057.6 50.8652 1057.03 50.2559C1056.45 49.6426 1056.16 48.7988 1056.16 47.7246C1056.16 46.6777 1056.45 45.8418 1057.01 45.2168C1057.57 44.5918 1058.32 44.2793 1059.26 44.2793C1060.09 44.2793 1060.75 44.5625 1061.23 45.1289C1061.72 45.6953 1061.97 46.3789 1062.01 47.1797ZM1060.93 46.8633C1060.88 46.4102 1060.72 46.0195 1060.43 45.6914C1060.15 45.3594 1059.74 45.1934 1059.21 45.1934C1058.69 45.1934 1058.26 45.3652 1057.93 45.709C1057.59 46.0527 1057.41 46.4395 1057.38 46.8691L1060.93 46.8633ZM1067.7 45.2754V41.8828H1068.78V51H1067.7V50.1738C1067.52 50.498 1067.28 50.7461 1066.98 50.918C1066.68 51.0859 1066.34 51.1699 1065.95 51.1699C1065.16 51.1699 1064.53 50.8633 1064.07 50.25C1063.62 49.6328 1063.39 48.7832 1063.39 47.7012C1063.39 46.6348 1063.62 45.7988 1064.08 45.1934C1064.54 44.584 1065.16 44.2793 1065.95 44.2793C1066.34 44.2793 1066.69 44.3652 1066.99 44.5371C1067.29 44.7051 1067.53 44.9512 1067.7 45.2754ZM1064.53 47.7246C1064.53 48.5605 1064.66 49.1914 1064.93 49.6172C1065.2 50.043 1065.59 50.2559 1066.11 50.2559C1066.63 50.2559 1067.02 50.041 1067.29 49.6113C1067.56 49.1816 1067.7 48.5527 1067.7 47.7246C1067.7 46.8926 1067.56 46.2637 1067.29 45.8379C1067.02 45.4082 1066.63 45.1934 1066.11 45.1934C1065.59 45.1934 1065.2 45.4062 1064.93 45.832C1064.66 46.2578 1064.53 46.8887 1064.53 47.7246ZM1082.84 44.666V45.7207C1082.53 45.541 1082.22 45.4062 1081.9 45.3164C1081.59 45.2266 1081.27 45.1816 1080.95 45.1816C1080.46 45.1816 1080.1 45.2617 1079.85 45.4219C1079.62 45.5781 1079.5 45.8184 1079.5 46.1426C1079.5 46.4355 1079.59 46.6543 1079.77 46.7988C1079.95 46.9434 1080.39 47.084 1081.11 47.2207L1081.54 47.3027C1082.08 47.4043 1082.48 47.6074 1082.75 47.9121C1083.03 48.2168 1083.17 48.6133 1083.17 49.1016C1083.17 49.75 1082.94 50.2578 1082.48 50.625C1082.02 50.9883 1081.38 51.1699 1080.56 51.1699C1080.23 51.1699 1079.89 51.1348 1079.54 51.0645C1079.18 50.998 1078.8 50.8965 1078.38 50.7598V49.6465C1078.79 49.8535 1079.17 50.0098 1079.54 50.1152C1079.9 50.2168 1080.25 50.2676 1080.58 50.2676C1081.06 50.2676 1081.43 50.1719 1081.69 49.9805C1081.95 49.7852 1082.08 49.5137 1082.08 49.166C1082.08 48.666 1081.6 48.3203 1080.64 48.1289L1080.6 48.1172L1080.19 48.0352C1079.57 47.9141 1079.12 47.7109 1078.83 47.4258C1078.55 47.1367 1078.41 46.7441 1078.41 46.248C1078.41 45.6191 1078.62 45.1348 1079.05 44.7949C1079.47 44.4512 1080.08 44.2793 1080.87 44.2793C1081.22 44.2793 1081.56 44.3125 1081.88 44.3789C1082.21 44.4414 1082.52 44.5371 1082.84 44.666ZM1087.96 42.5742V44.4375H1090.41V45.2754H1087.96V48.8379C1087.96 49.3223 1088.06 49.6602 1088.24 49.8516C1088.42 50.043 1088.74 50.1387 1089.2 50.1387H1090.41V51H1089.09C1088.29 51 1087.72 50.8379 1087.38 50.5137C1087.05 50.1895 1086.89 49.6309 1086.89 48.8379V45.2754H1085.13V44.4375H1086.89V42.5742H1087.96ZM1095.71 47.7012H1095.35C1094.72 47.7012 1094.25 47.8125 1093.93 48.0352C1093.61 48.2539 1093.45 48.582 1093.45 49.0195C1093.45 49.4141 1093.57 49.7207 1093.81 49.9395C1094.05 50.1582 1094.38 50.2676 1094.8 50.2676C1095.39 50.2676 1095.86 50.0625 1096.2 49.6523C1096.54 49.2383 1096.71 48.668 1096.72 47.9414V47.7012H1095.71ZM1097.8 47.2559V51H1096.72V50.0273C1096.49 50.418 1096.2 50.707 1095.84 50.8945C1095.5 51.0781 1095.07 51.1699 1094.57 51.1699C1093.9 51.1699 1093.37 50.9824 1092.97 50.6074C1092.57 50.2285 1092.38 49.7227 1092.38 49.0898C1092.38 48.3594 1092.62 47.8047 1093.11 47.4258C1093.6 47.0469 1094.32 46.8574 1095.27 46.8574H1096.72V46.6875C1096.71 46.1641 1096.58 45.7852 1096.32 45.5508C1096.06 45.3125 1095.64 45.1934 1095.06 45.1934C1094.7 45.1934 1094.33 45.2461 1093.95 45.3516C1093.58 45.457 1093.21 45.6113 1092.86 45.8145V44.7363C1093.25 44.584 1093.64 44.4707 1094 44.3965C1094.37 44.3184 1094.72 44.2793 1095.06 44.2793C1095.61 44.2793 1096.07 44.3594 1096.45 44.5195C1096.84 44.6797 1097.15 44.9199 1097.39 45.2402C1097.54 45.4355 1097.64 45.6777 1097.71 45.9668C1097.77 46.252 1097.8 46.6816 1097.8 47.2559ZM1102.42 42.5742V44.4375H1104.87V45.2754H1102.42V48.8379C1102.42 49.3223 1102.52 49.6602 1102.7 49.8516C1102.88 50.043 1103.2 50.1387 1103.66 50.1387H1104.87V51H1103.56C1102.75 51 1102.18 50.8379 1101.84 50.5137C1101.51 50.1895 1101.35 49.6309 1101.35 48.8379V45.2754H1099.59V44.4375H1101.35V42.5742H1102.42ZM1112.62 47.1797V47.707H1107.95V47.7422C1107.92 48.6367 1108.09 49.2793 1108.46 49.6699C1108.83 50.0605 1109.36 50.2559 1110.04 50.2559C1110.39 50.2559 1110.74 50.2012 1111.12 50.0918C1111.49 49.9824 1111.89 49.8164 1112.32 49.5938V50.666C1111.91 50.834 1111.51 50.959 1111.13 51.041C1110.75 51.127 1110.39 51.1699 1110.03 51.1699C1109.01 51.1699 1108.21 50.8652 1107.64 50.2559C1107.06 49.6426 1106.78 48.7988 1106.78 47.7246C1106.78 46.6777 1107.06 45.8418 1107.62 45.2168C1108.18 44.5918 1108.93 44.2793 1109.87 44.2793C1110.71 44.2793 1111.37 44.5625 1111.85 45.1289C1112.33 45.6953 1112.59 46.3789 1112.62 47.1797ZM1111.54 46.8633C1111.49 46.4102 1111.33 46.0195 1111.04 45.6914C1110.76 45.3594 1110.36 45.1934 1109.82 45.1934C1109.31 45.1934 1108.88 45.3652 1108.54 45.709C1108.21 46.0527 1108.02 46.4395 1107.99 46.8691L1111.54 46.8633Z" fill="#71716A"/>
<path d="M984.6 42H976.6C973.839 42 971.6 44.2386 971.6 47C971.6 49.7614 973.839 52 976.6 52H984.6C987.361 52 989.6 49.7614 989.6 47C989.6 44.2386 987.361 42 984.6 42Z" stroke="#A8845C" stroke-width="1.5" stroke-dasharray="3 2.5"/>
<path d="M875.901 44.666V45.7207C875.593 45.541 875.282 45.4062 874.97 45.3164C874.657 45.2266 874.339 45.1816 874.014 45.1816C873.526 45.1816 873.161 45.2617 872.919 45.4219C872.68 45.5781 872.561 45.8184 872.561 46.1426C872.561 46.4355 872.651 46.6543 872.831 46.7988C873.011 46.9434 873.458 47.084 874.173 47.2207L874.606 47.3027C875.141 47.4043 875.546 47.6074 875.819 47.9121C876.096 48.2168 876.235 48.6133 876.235 49.1016C876.235 49.75 876.005 50.2578 875.544 50.625C875.083 50.9883 874.442 51.1699 873.622 51.1699C873.298 51.1699 872.958 51.1348 872.602 51.0645C872.247 50.998 871.862 50.8965 871.448 50.7598V49.6465C871.85 49.8535 872.235 50.0098 872.602 50.1152C872.97 50.2168 873.317 50.2676 873.645 50.2676C874.122 50.2676 874.491 50.1719 874.753 49.9805C875.014 49.7852 875.145 49.5137 875.145 49.166C875.145 48.666 874.667 48.3203 873.71 48.1289L873.663 48.1172L873.259 48.0352C872.638 47.9141 872.184 47.7109 871.899 47.4258C871.614 47.1367 871.471 46.7441 871.471 46.248C871.471 45.6191 871.684 45.1348 872.11 44.7949C872.536 44.4512 873.143 44.2793 873.932 44.2793C874.284 44.2793 874.622 44.3125 874.946 44.3789C875.27 44.4414 875.589 44.5371 875.901 44.666ZM882.458 48.8906C882.278 49.3477 882.05 49.9492 881.772 50.6953C881.386 51.7266 881.126 52.3555 880.993 52.582C880.813 52.8867 880.589 53.1152 880.319 53.2676C880.05 53.4199 879.735 53.4961 879.376 53.4961H878.509V52.5938H879.147C879.464 52.5938 879.712 52.502 879.891 52.3184C880.071 52.1348 880.3 51.6602 880.577 50.8945L878.04 44.4375H879.182L881.128 49.5703L883.044 44.4375H884.186L882.458 48.8906ZM890.362 44.666V45.7207C890.054 45.541 889.743 45.4062 889.43 45.3164C889.118 45.2266 888.8 45.1816 888.475 45.1816C887.987 45.1816 887.622 45.2617 887.38 45.4219C887.141 45.5781 887.022 45.8184 887.022 46.1426C887.022 46.4355 887.112 46.6543 887.292 46.7988C887.471 46.9434 887.919 47.084 888.634 47.2207L889.067 47.3027C889.602 47.4043 890.007 47.6074 890.28 47.9121C890.557 48.2168 890.696 48.6133 890.696 49.1016C890.696 49.75 890.466 50.2578 890.005 50.625C889.544 50.9883 888.903 51.1699 888.083 51.1699C887.759 51.1699 887.419 51.1348 887.063 51.0645C886.708 50.998 886.323 50.8965 885.909 50.7598V49.6465C886.311 49.8535 886.696 50.0098 887.063 50.1152C887.43 50.2168 887.778 50.2676 888.106 50.2676C888.583 50.2676 888.952 50.1719 889.214 49.9805C889.475 49.7852 889.606 49.5137 889.606 49.166C889.606 48.666 889.128 48.3203 888.171 48.1289L888.124 48.1172L887.72 48.0352C887.098 47.9141 886.645 47.7109 886.36 47.4258C886.075 47.1367 885.932 46.7441 885.932 46.248C885.932 45.6191 886.145 45.1348 886.571 44.7949C886.997 44.4512 887.604 44.2793 888.393 44.2793C888.745 44.2793 889.083 44.3125 889.407 44.3789C889.731 44.4414 890.05 44.5371 890.362 44.666ZM895.489 42.5742V44.4375H897.938V45.2754H895.489V48.8379C895.489 49.3223 895.581 49.6602 895.764 49.8516C895.948 50.043 896.268 50.1387 896.725 50.1387H897.938V51H896.62C895.811 51 895.241 50.8379 894.909 50.5137C894.577 50.1895 894.411 49.6309 894.411 48.8379V45.2754H892.659V44.4375H894.411V42.5742H895.489ZM905.684 47.1797V47.707H901.014V47.7422C900.983 48.6367 901.153 49.2793 901.524 49.6699C901.899 50.0605 902.427 50.2559 903.106 50.2559C903.45 50.2559 903.809 50.2012 904.184 50.0918C904.559 49.9824 904.96 49.8164 905.386 49.5938V50.666C904.975 50.834 904.579 50.959 904.196 51.041C903.817 51.127 903.45 51.1699 903.095 51.1699C902.075 51.1699 901.278 50.8652 900.704 50.2559C900.13 49.6426 899.843 48.7988 899.843 47.7246C899.843 46.6777 900.124 45.8418 900.686 45.2168C901.249 44.5918 901.999 44.2793 902.936 44.2793C903.772 44.2793 904.43 44.5625 904.911 45.1289C905.395 45.6953 905.653 46.3789 905.684 47.1797ZM904.606 46.8633C904.559 46.4102 904.393 46.0195 904.108 45.6914C903.827 45.3594 903.421 45.1934 902.889 45.1934C902.37 45.1934 901.942 45.3652 901.606 45.709C901.27 46.0527 901.087 46.4395 901.055 46.8691L904.606 46.8633ZM910.313 45.1055C910.446 44.8242 910.614 44.6172 910.817 44.4844C911.024 44.3477 911.272 44.2793 911.561 44.2793C912.089 44.2793 912.46 44.4844 912.675 44.8945C912.893 45.3008 913.003 46.0684 913.003 47.1973V51H912.018V47.2441C912.018 46.3184 911.966 45.7441 911.86 45.5215C911.759 45.2949 911.571 45.1816 911.298 45.1816C910.985 45.1816 910.77 45.3027 910.653 45.5449C910.54 45.7832 910.483 46.3496 910.483 47.2441V51H909.499V47.2441C909.499 46.3066 909.442 45.7285 909.329 45.5098C909.22 45.291 909.02 45.1816 908.731 45.1816C908.446 45.1816 908.247 45.3027 908.134 45.5449C908.024 45.7832 907.97 46.3496 907.97 47.2441V51H906.991V44.4375H907.97V45C908.098 44.7656 908.259 44.5879 908.45 44.4668C908.645 44.3418 908.866 44.2793 909.112 44.2793C909.409 44.2793 909.655 44.3477 909.85 44.4844C910.05 44.6211 910.204 44.8281 910.313 45.1055ZM926.514 44.666V45.7207C926.206 45.541 925.895 45.4062 925.583 45.3164C925.27 45.2266 924.952 45.1816 924.628 45.1816C924.139 45.1816 923.774 45.2617 923.532 45.4219C923.294 45.5781 923.175 45.8184 923.175 46.1426C923.175 46.4355 923.264 46.6543 923.444 46.7988C923.624 46.9434 924.071 47.084 924.786 47.2207L925.22 47.3027C925.755 47.4043 926.159 47.6074 926.432 47.9121C926.71 48.2168 926.848 48.6133 926.848 49.1016C926.848 49.75 926.618 50.2578 926.157 50.625C925.696 50.9883 925.055 51.1699 924.235 51.1699C923.911 51.1699 923.571 51.1348 923.216 51.0645C922.86 50.998 922.475 50.8965 922.061 50.7598V49.6465C922.464 49.8535 922.848 50.0098 923.216 50.1152C923.583 50.2168 923.93 50.2676 924.259 50.2676C924.735 50.2676 925.104 50.1719 925.366 49.9805C925.628 49.7852 925.759 49.5137 925.759 49.166C925.759 48.666 925.28 48.3203 924.323 48.1289L924.276 48.1172L923.872 48.0352C923.251 47.9141 922.798 47.7109 922.513 47.4258C922.227 47.1367 922.085 46.7441 922.085 46.248C922.085 45.6191 922.298 45.1348 922.723 44.7949C923.149 44.4512 923.757 44.2793 924.546 44.2793C924.897 44.2793 925.235 44.3125 925.559 44.3789C925.884 44.4414 926.202 44.5371 926.514 44.666ZM931.641 42.5742V44.4375H934.091V45.2754H931.641V48.8379C931.641 49.3223 931.733 49.6602 931.917 49.8516C932.1 50.043 932.421 50.1387 932.878 50.1387H934.091V51H932.772C931.964 51 931.393 50.8379 931.061 50.5137C930.729 50.1895 930.563 49.6309 930.563 48.8379V45.2754H928.811V44.4375H930.563V42.5742H931.641ZM941.837 47.1797V47.707H937.167V47.7422C937.136 48.6367 937.305 49.2793 937.677 49.6699C938.052 50.0605 938.579 50.2559 939.259 50.2559C939.602 50.2559 939.962 50.2012 940.337 50.0918C940.712 49.9824 941.112 49.8164 941.538 49.5938V50.666C941.128 50.834 940.731 50.959 940.348 51.041C939.97 51.127 939.602 51.1699 939.247 51.1699C938.227 51.1699 937.43 50.8652 936.856 50.2559C936.282 49.6426 935.995 48.7988 935.995 47.7246C935.995 46.6777 936.276 45.8418 936.839 45.2168C937.401 44.5918 938.151 44.2793 939.089 44.2793C939.925 44.2793 940.583 44.5625 941.063 45.1289C941.548 45.6953 941.805 46.3789 941.837 47.1797ZM940.759 46.8633C940.712 46.4102 940.546 46.0195 940.261 45.6914C939.979 45.3594 939.573 45.1934 939.042 45.1934C938.522 45.1934 938.095 45.3652 937.759 45.709C937.423 46.0527 937.239 46.4395 937.208 46.8691L940.759 46.8633ZM944.702 50.1738V53.4961H943.618V44.4375H944.702V45.2754C944.882 44.9512 945.12 44.7051 945.417 44.5371C945.718 44.3652 946.063 44.2793 946.454 44.2793C947.247 44.2793 947.868 44.5859 948.317 45.1992C948.77 45.8125 948.997 46.6621 948.997 47.748C948.997 48.8145 948.77 49.6523 948.317 50.2617C947.864 50.8672 947.243 51.1699 946.454 51.1699C946.055 51.1699 945.706 51.0859 945.405 50.918C945.108 50.7461 944.874 50.498 944.702 50.1738ZM947.866 47.7246C947.866 46.8887 947.733 46.2578 947.468 45.832C947.206 45.4062 946.815 45.1934 946.296 45.1934C945.772 45.1934 945.376 45.4082 945.106 45.8379C944.837 46.2637 944.702 46.8926 944.702 47.7246C944.702 48.5527 944.837 49.1816 945.106 49.6113C945.376 50.041 945.772 50.2559 946.296 50.2559C946.815 50.2559 947.206 50.043 947.468 49.6172C947.733 49.1914 947.866 48.5605 947.866 47.7246Z" fill="#71716A"/>
<path d="M857.2 42H849.2C846.439 42 844.2 44.2386 844.2 47C844.2 49.7614 846.439 52 849.2 52H857.2C859.961 52 862.2 49.7614 862.2 47C862.2 44.2386 859.961 42 857.2 42Z" fill="#FCFCFA" stroke="#D6D6CF"/>
<path d="M133.333 110H1026.67" stroke="#C2C2BB"/>
<path d="M133.333 125C141.618 125 148.333 118.284 148.333 110C148.333 101.716 141.618 95 133.333 95C125.049 95 118.333 101.716 118.333 110C118.333 118.284 125.049 125 133.333 125Z" fill="#41413C"/>
<path d="M131.131 112.427H133.124V105.267L130.737 106.416V105.185L133.111 104.055H134.393V112.427H136.361V113.5H131.131V112.427Z" fill="#EDEDEA"/>
<path d="M206.667 150H60C55.5817 150 52 153.582 52 158V184C52 188.418 55.5817 192 60 192H206.667C211.085 192 214.667 188.418 214.667 184V158C214.667 153.582 211.085 150 206.667 150Z" fill="#FCFCFA" stroke="#D6D6CF"/>
<path d="M96.0287 163.523V164.891H92.1615V175H90.5833V164.891H86.7162V163.523H96.0287ZM96.7318 166.633H98.0677V168.078C98.1771 167.797 98.4453 167.456 98.8724 167.055C99.2995 166.648 99.7917 166.445 100.349 166.445C100.375 166.445 100.419 166.448 100.482 166.453C100.544 166.458 100.651 166.469 100.802 166.484V167.969C100.719 167.953 100.641 167.943 100.568 167.938C100.5 167.932 100.424 167.93 100.341 167.93C99.6328 167.93 99.0886 168.159 98.7083 168.617C98.3281 169.07 98.138 169.594 98.138 170.188V175H96.7318V166.633ZM102.021 166.672H103.451V175H102.021V166.672ZM102.021 163.523H103.451V165.117H102.021V163.523ZM109.115 174.055C109.771 174.055 110.315 173.781 110.747 173.234C111.185 172.682 111.404 171.859 111.404 170.766C111.404 170.099 111.307 169.526 111.115 169.047C110.75 168.125 110.083 167.664 109.115 167.664C108.141 167.664 107.474 168.151 107.115 169.125C106.922 169.646 106.826 170.307 106.826 171.109C106.826 171.755 106.922 172.305 107.115 172.758C107.479 173.622 108.146 174.055 109.115 174.055ZM105.474 166.672H106.841V167.781C107.122 167.401 107.43 167.107 107.763 166.898C108.237 166.586 108.794 166.43 109.435 166.43C110.383 166.43 111.188 166.794 111.849 167.523C112.51 168.247 112.841 169.284 112.841 170.633C112.841 172.456 112.365 173.758 111.411 174.539C110.807 175.034 110.104 175.281 109.302 175.281C108.672 175.281 108.143 175.143 107.716 174.867C107.466 174.711 107.188 174.443 106.88 174.062V178.336H105.474V166.672ZM118.943 166.672H120.372V175H118.943V166.672ZM118.943 163.523H120.372V165.117H118.943V163.523ZM122.505 166.633H123.896V167.82C124.229 167.409 124.531 167.109 124.802 166.922C125.266 166.604 125.792 166.445 126.38 166.445C127.047 166.445 127.583 166.609 127.99 166.938C128.219 167.125 128.427 167.401 128.615 167.766C128.927 167.318 129.294 166.987 129.716 166.773C130.138 166.555 130.612 166.445 131.138 166.445C132.263 166.445 133.029 166.852 133.435 167.664C133.654 168.102 133.763 168.69 133.763 169.43V175H132.302V169.188C132.302 168.63 132.161 168.247 131.88 168.039C131.604 167.831 131.266 167.727 130.865 167.727C130.313 167.727 129.836 167.911 129.435 168.281C129.039 168.651 128.841 169.268 128.841 170.133V175H127.411V169.539C127.411 168.971 127.344 168.557 127.208 168.297C126.995 167.906 126.596 167.711 126.013 167.711C125.482 167.711 124.997 167.917 124.56 168.328C124.128 168.74 123.911 169.484 123.911 170.562V175H122.505V166.633ZM139.365 174.055C140.021 174.055 140.565 173.781 140.997 173.234C141.435 172.682 141.654 171.859 141.654 170.766C141.654 170.099 141.557 169.526 141.365 169.047C141 168.125 140.333 167.664 139.365 167.664C138.391 167.664 137.724 168.151 137.365 169.125C137.172 169.646 137.076 170.307 137.076 171.109C137.076 171.755 137.172 172.305 137.365 172.758C137.729 173.622 138.396 174.055 139.365 174.055ZM135.724 166.672H137.091V167.781C137.372 167.401 137.68 167.107 138.013 166.898C138.487 166.586 139.044 166.43 139.685 166.43C140.633 166.43 141.438 166.794 142.099 167.523C142.76 168.247 143.091 169.284 143.091 170.633C143.091 172.456 142.615 173.758 141.661 174.539C141.057 175.034 140.354 175.281 139.552 175.281C138.922 175.281 138.393 175.143 137.966 174.867C137.716 174.711 137.438 174.443 137.13 174.062V178.336H135.724V166.672ZM148.06 174.094C148.992 174.094 149.63 173.742 149.974 173.039C150.323 172.331 150.497 171.544 150.497 170.68C150.497 169.898 150.372 169.263 150.122 168.773C149.727 168.003 149.044 167.617 148.076 167.617C147.216 167.617 146.591 167.945 146.201 168.602C145.81 169.258 145.615 170.049 145.615 170.977C145.615 171.867 145.81 172.609 146.201 173.203C146.591 173.797 147.211 174.094 148.06 174.094ZM148.115 166.391C149.193 166.391 150.104 166.75 150.849 167.469C151.594 168.188 151.966 169.245 151.966 170.641C151.966 171.99 151.638 173.104 150.982 173.984C150.326 174.865 149.307 175.305 147.927 175.305C146.776 175.305 145.862 174.917 145.185 174.141C144.508 173.359 144.169 172.312 144.169 171C144.169 169.594 144.526 168.474 145.24 167.641C145.953 166.807 146.911 166.391 148.115 166.391ZM153.685 166.633H155.021V168.078C155.13 167.797 155.398 167.456 155.826 167.055C156.253 166.648 156.745 166.445 157.302 166.445C157.328 166.445 157.372 166.448 157.435 166.453C157.497 166.458 157.604 166.469 157.755 166.484V167.969C157.672 167.953 157.594 167.943 157.521 167.938C157.453 167.932 157.378 167.93 157.294 167.93C156.586 167.93 156.042 168.159 155.661 168.617C155.281 169.07 155.091 169.594 155.091 170.188V175H153.685V166.633ZM159.255 164.297H160.677V166.633H162.013V167.781H160.677V173.242C160.677 173.534 160.776 173.729 160.974 173.828C161.083 173.885 161.266 173.914 161.521 173.914C161.589 173.914 161.661 173.914 161.74 173.914C161.818 173.909 161.909 173.901 162.013 173.891V175C161.852 175.047 161.682 175.081 161.505 175.102C161.333 175.122 161.146 175.133 160.943 175.133C160.286 175.133 159.841 174.966 159.607 174.633C159.372 174.294 159.255 173.857 159.255 173.32V167.781H158.122V166.633H159.255V164.297ZM166.911 166.445C167.505 166.445 168.081 166.586 168.638 166.867C169.195 167.143 169.62 167.503 169.911 167.945C170.193 168.367 170.38 168.859 170.474 169.422C170.557 169.807 170.599 170.422 170.599 171.266H164.466C164.492 172.115 164.693 172.797 165.068 173.312C165.443 173.823 166.023 174.078 166.81 174.078C167.544 174.078 168.13 173.836 168.568 173.352C168.818 173.07 168.995 172.745 169.099 172.375H170.482C170.445 172.682 170.323 173.026 170.115 173.406C169.911 173.781 169.682 174.089 169.427 174.328C169 174.745 168.471 175.026 167.841 175.172C167.503 175.255 167.12 175.297 166.693 175.297C165.651 175.297 164.768 174.919 164.044 174.164C163.32 173.404 162.958 172.341 162.958 170.977C162.958 169.633 163.323 168.542 164.052 167.703C164.781 166.865 165.734 166.445 166.911 166.445ZM169.154 170.148C169.096 169.539 168.964 169.052 168.755 168.688C168.37 168.01 167.727 167.672 166.826 167.672C166.18 167.672 165.638 167.906 165.201 168.375C164.763 168.839 164.531 169.43 164.505 170.148H169.154ZM173.224 170.914C173.224 171.81 173.414 172.56 173.794 173.164C174.174 173.768 174.784 174.07 175.622 174.07C176.273 174.07 176.807 173.792 177.224 173.234C177.646 172.672 177.857 171.867 177.857 170.82C177.857 169.763 177.641 168.982 177.208 168.477C176.776 167.966 176.242 167.711 175.607 167.711C174.898 167.711 174.323 167.982 173.88 168.523C173.443 169.065 173.224 169.862 173.224 170.914ZM175.341 166.484C175.982 166.484 176.518 166.62 176.951 166.891C177.201 167.047 177.484 167.32 177.802 167.711V163.484H179.154V175H177.888V173.836C177.56 174.352 177.172 174.724 176.724 174.953C176.276 175.182 175.763 175.297 175.185 175.297C174.253 175.297 173.445 174.906 172.763 174.125C172.081 173.339 171.74 172.294 171.74 170.992C171.74 169.773 172.049 168.719 172.669 167.828C173.294 166.932 174.185 166.484 175.341 166.484Z" fill="#2B2B27"/>
<path d="M312 125C320.284 125 327 118.284 327 110C327 101.716 320.284 95 312 95C303.716 95 297 101.716 297 110C297 118.284 303.716 125 312 125Z" fill="#41413C"/>
<path d="M310.451 112.421H314.806V113.5H309.048V112.421C309.84 111.587 310.532 110.851 311.124 110.212C311.716 109.573 312.125 109.122 312.349 108.86C312.772 108.344 313.058 107.927 313.206 107.609C313.354 107.288 313.428 106.96 313.428 106.625C313.428 106.097 313.272 105.682 312.958 105.381C312.65 105.081 312.224 104.931 311.683 104.931C311.298 104.931 310.893 105 310.47 105.14C310.047 105.28 309.598 105.491 309.125 105.775V104.48C309.56 104.273 309.988 104.116 310.407 104.01C310.83 103.904 311.247 103.852 311.657 103.852C312.584 103.852 313.329 104.099 313.892 104.594C314.459 105.085 314.742 105.73 314.742 106.53C314.742 106.937 314.647 107.343 314.457 107.749C314.27 108.155 313.966 108.604 313.542 109.095C313.306 109.37 312.961 109.751 312.508 110.237C312.059 110.724 311.374 111.452 310.451 112.421Z" fill="#EDEDEA"/>
<path d="M385.333 150H238.667C234.248 150 230.667 153.582 230.667 158V184C230.667 188.418 234.248 192 238.667 192H385.333C389.752 192 393.333 188.418 393.333 184V158C393.333 153.582 389.752 150 385.333 150Z" fill="#FCFCFA" stroke="#D6D6CF"/>
<path d="M236.375 163.523H241.539C242.56 163.523 243.383 163.812 244.008 164.391C244.633 164.964 244.945 165.771 244.945 166.812C244.945 167.708 244.667 168.49 244.109 169.156C243.552 169.818 242.695 170.148 241.539 170.148H237.93V175H236.375V163.523ZM243.375 166.82C243.375 165.977 243.062 165.404 242.438 165.102C242.094 164.94 241.622 164.859 241.023 164.859H237.93V168.836H241.023C241.721 168.836 242.286 168.688 242.719 168.391C243.156 168.094 243.375 167.57 243.375 166.82ZM246.75 163.523H248.156V175H246.75V163.523ZM251.352 172.773C251.352 173.18 251.5 173.5 251.797 173.734C252.094 173.969 252.445 174.086 252.852 174.086C253.346 174.086 253.826 173.971 254.289 173.742C255.07 173.362 255.461 172.74 255.461 171.875V170.742C255.289 170.852 255.068 170.943 254.797 171.016C254.526 171.089 254.26 171.141 254 171.172L253.148 171.281C252.638 171.349 252.255 171.456 252 171.602C251.568 171.846 251.352 172.237 251.352 172.773ZM254.758 169.93C255.081 169.888 255.297 169.753 255.406 169.523C255.469 169.398 255.5 169.219 255.5 168.984C255.5 168.505 255.328 168.159 254.984 167.945C254.646 167.727 254.159 167.617 253.523 167.617C252.789 167.617 252.268 167.815 251.961 168.211C251.789 168.43 251.677 168.755 251.625 169.188H250.312C250.339 168.156 250.672 167.44 251.312 167.039C251.958 166.633 252.706 166.43 253.555 166.43C254.539 166.43 255.339 166.617 255.953 166.992C256.562 167.367 256.867 167.951 256.867 168.742V173.562C256.867 173.708 256.896 173.826 256.953 173.914C257.016 174.003 257.143 174.047 257.336 174.047C257.398 174.047 257.469 174.044 257.547 174.039C257.625 174.029 257.708 174.016 257.797 174V175.039C257.578 175.102 257.411 175.141 257.297 175.156C257.182 175.172 257.026 175.18 256.828 175.18C256.344 175.18 255.992 175.008 255.773 174.664C255.659 174.482 255.578 174.224 255.531 173.891C255.245 174.266 254.833 174.591 254.297 174.867C253.76 175.143 253.169 175.281 252.523 175.281C251.747 175.281 251.112 175.047 250.617 174.578C250.128 174.104 249.883 173.513 249.883 172.805C249.883 172.029 250.125 171.427 250.609 171C251.094 170.573 251.729 170.31 252.516 170.211L254.758 169.93ZM262.406 166.391C263.349 166.391 264.115 166.62 264.703 167.078C265.297 167.536 265.654 168.326 265.773 169.445H264.406C264.323 168.93 264.133 168.503 263.836 168.164C263.539 167.82 263.062 167.648 262.406 167.648C261.51 167.648 260.87 168.086 260.484 168.961C260.234 169.529 260.109 170.229 260.109 171.062C260.109 171.901 260.286 172.607 260.641 173.18C260.995 173.753 261.552 174.039 262.312 174.039C262.896 174.039 263.357 173.862 263.695 173.508C264.039 173.148 264.276 172.659 264.406 172.039H265.773C265.617 173.148 265.227 173.961 264.602 174.477C263.977 174.987 263.177 175.242 262.203 175.242C261.109 175.242 260.237 174.844 259.586 174.047C258.935 173.245 258.609 172.245 258.609 171.047C258.609 169.578 258.966 168.435 259.68 167.617C260.393 166.799 261.302 166.391 262.406 166.391ZM270.664 166.445C271.258 166.445 271.833 166.586 272.391 166.867C272.948 167.143 273.372 167.503 273.664 167.945C273.945 168.367 274.133 168.859 274.227 169.422C274.31 169.807 274.352 170.422 274.352 171.266H268.219C268.245 172.115 268.445 172.797 268.82 173.312C269.195 173.823 269.776 174.078 270.562 174.078C271.297 174.078 271.883 173.836 272.32 173.352C272.57 173.07 272.747 172.745 272.852 172.375H274.234C274.198 172.682 274.076 173.026 273.867 173.406C273.664 173.781 273.435 174.089 273.18 174.328C272.753 174.745 272.224 175.026 271.594 175.172C271.255 175.255 270.872 175.297 270.445 175.297C269.404 175.297 268.521 174.919 267.797 174.164C267.073 173.404 266.711 172.341 266.711 170.977C266.711 169.633 267.076 168.542 267.805 167.703C268.534 166.865 269.487 166.445 270.664 166.445ZM272.906 170.148C272.849 169.539 272.716 169.052 272.508 168.688C272.122 168.01 271.479 167.672 270.578 167.672C269.932 167.672 269.391 167.906 268.953 168.375C268.516 168.839 268.284 169.43 268.258 170.148H272.906ZM276.086 163.484H277.492V167.766C277.826 167.344 278.125 167.047 278.391 166.875C278.844 166.578 279.409 166.43 280.086 166.43C281.299 166.43 282.122 166.854 282.555 167.703C282.789 168.167 282.906 168.81 282.906 169.633V175H281.461V169.727C281.461 169.112 281.383 168.661 281.227 168.375C280.971 167.917 280.492 167.688 279.789 167.688C279.206 167.688 278.677 167.888 278.203 168.289C277.729 168.69 277.492 169.448 277.492 170.562V175H276.086V163.484ZM288.312 174.094C289.245 174.094 289.883 173.742 290.227 173.039C290.576 172.331 290.75 171.544 290.75 170.68C290.75 169.898 290.625 169.263 290.375 168.773C289.979 168.003 289.297 167.617 288.328 167.617C287.469 167.617 286.844 167.945 286.453 168.602C286.062 169.258 285.867 170.049 285.867 170.977C285.867 171.867 286.062 172.609 286.453 173.203C286.844 173.797 287.464 174.094 288.312 174.094ZM288.367 166.391C289.445 166.391 290.357 166.75 291.102 167.469C291.846 168.188 292.219 169.245 292.219 170.641C292.219 171.99 291.891 173.104 291.234 173.984C290.578 174.865 289.56 175.305 288.18 175.305C287.029 175.305 286.115 174.917 285.438 174.141C284.76 173.359 284.422 172.312 284.422 171C284.422 169.594 284.779 168.474 285.492 167.641C286.206 166.807 287.164 166.391 288.367 166.391ZM293.938 163.523H295.344V175H293.938V163.523ZM298.352 170.914C298.352 171.81 298.542 172.56 298.922 173.164C299.302 173.768 299.911 174.07 300.75 174.07C301.401 174.07 301.935 173.792 302.352 173.234C302.773 172.672 302.984 171.867 302.984 170.82C302.984 169.763 302.768 168.982 302.336 168.477C301.904 167.966 301.37 167.711 300.734 167.711C300.026 167.711 299.451 167.982 299.008 168.523C298.57 169.065 298.352 169.862 298.352 170.914ZM300.469 166.484C301.109 166.484 301.646 166.62 302.078 166.891C302.328 167.047 302.612 167.32 302.93 167.711V163.484H304.281V175H303.016V173.836C302.688 174.352 302.299 174.724 301.852 174.953C301.404 175.182 300.891 175.297 300.312 175.297C299.38 175.297 298.573 174.906 297.891 174.125C297.208 173.339 296.867 172.294 296.867 170.992C296.867 169.773 297.177 168.719 297.797 167.828C298.422 166.932 299.312 166.484 300.469 166.484ZM309.852 166.445C310.445 166.445 311.021 166.586 311.578 166.867C312.135 167.143 312.56 167.503 312.852 167.945C313.133 168.367 313.32 168.859 313.414 169.422C313.497 169.807 313.539 170.422 313.539 171.266H307.406C307.432 172.115 307.633 172.797 308.008 173.312C308.383 173.823 308.964 174.078 309.75 174.078C310.484 174.078 311.07 173.836 311.508 173.352C311.758 173.07 311.935 172.745 312.039 172.375H313.422C313.385 172.682 313.263 173.026 313.055 173.406C312.852 173.781 312.622 174.089 312.367 174.328C311.94 174.745 311.411 175.026 310.781 175.172C310.443 175.255 310.06 175.297 309.633 175.297C308.591 175.297 307.708 174.919 306.984 174.164C306.26 173.404 305.898 172.341 305.898 170.977C305.898 169.633 306.263 168.542 306.992 167.703C307.721 166.865 308.674 166.445 309.852 166.445ZM312.094 170.148C312.036 169.539 311.904 169.052 311.695 168.688C311.31 168.01 310.667 167.672 309.766 167.672C309.12 167.672 308.578 167.906 308.141 168.375C307.703 168.839 307.471 169.43 307.445 170.148H312.094ZM315.312 166.633H316.648V168.078C316.758 167.797 317.026 167.456 317.453 167.055C317.88 166.648 318.372 166.445 318.93 166.445C318.956 166.445 319 166.448 319.062 166.453C319.125 166.458 319.232 166.469 319.383 166.484V167.969C319.299 167.953 319.221 167.943 319.148 167.938C319.081 167.932 319.005 167.93 318.922 167.93C318.214 167.93 317.669 168.159 317.289 168.617C316.909 169.07 316.719 169.594 316.719 170.188V175H315.312V166.633ZM325.055 166.672H326.484V175H325.055V166.672ZM325.055 163.523H326.484V165.117H325.055V163.523ZM328.617 166.633H329.953V167.82C330.349 167.331 330.768 166.979 331.211 166.766C331.654 166.552 332.146 166.445 332.688 166.445C333.875 166.445 334.677 166.859 335.094 167.688C335.323 168.141 335.438 168.789 335.438 169.633V175H334.008V169.727C334.008 169.216 333.932 168.805 333.781 168.492C333.531 167.971 333.078 167.711 332.422 167.711C332.089 167.711 331.815 167.745 331.602 167.812C331.216 167.927 330.878 168.156 330.586 168.5C330.352 168.776 330.198 169.062 330.125 169.359C330.057 169.651 330.023 170.07 330.023 170.617V175H328.617V166.633ZM338.211 166.633L340.445 173.445L342.781 166.633H344.32L341.164 175H339.664L336.578 166.633H338.211ZM349.008 166.445C349.602 166.445 350.177 166.586 350.734 166.867C351.292 167.143 351.716 167.503 352.008 167.945C352.289 168.367 352.477 168.859 352.57 169.422C352.654 169.807 352.695 170.422 352.695 171.266H346.562C346.589 172.115 346.789 172.797 347.164 173.312C347.539 173.823 348.12 174.078 348.906 174.078C349.641 174.078 350.227 173.836 350.664 173.352C350.914 173.07 351.091 172.745 351.195 172.375H352.578C352.542 172.682 352.419 173.026 352.211 173.406C352.008 173.781 351.779 174.089 351.523 174.328C351.096 174.745 350.568 175.026 349.938 175.172C349.599 175.255 349.216 175.297 348.789 175.297C347.747 175.297 346.865 174.919 346.141 174.164C345.417 173.404 345.055 172.341 345.055 170.977C345.055 169.633 345.419 168.542 346.148 167.703C346.878 166.865 347.831 166.445 349.008 166.445ZM351.25 170.148C351.193 169.539 351.06 169.052 350.852 168.688C350.466 168.01 349.823 167.672 348.922 167.672C348.276 167.672 347.734 167.906 347.297 168.375C346.859 168.839 346.628 169.43 346.602 170.148H351.25ZM354.43 166.633H355.766V167.82C356.161 167.331 356.581 166.979 357.023 166.766C357.466 166.552 357.958 166.445 358.5 166.445C359.688 166.445 360.49 166.859 360.906 167.688C361.135 168.141 361.25 168.789 361.25 169.633V175H359.82V169.727C359.82 169.216 359.745 168.805 359.594 168.492C359.344 167.971 358.891 167.711 358.234 167.711C357.901 167.711 357.628 167.745 357.414 167.812C357.029 167.927 356.69 168.156 356.398 168.5C356.164 168.776 356.01 169.062 355.938 169.359C355.87 169.651 355.836 170.07 355.836 170.617V175H354.43V166.633ZM363.617 164.297H365.039V166.633H366.375V167.781H365.039V173.242C365.039 173.534 365.138 173.729 365.336 173.828C365.445 173.885 365.628 173.914 365.883 173.914C365.951 173.914 366.023 173.914 366.102 173.914C366.18 173.909 366.271 173.901 366.375 173.891V175C366.214 175.047 366.044 175.081 365.867 175.102C365.695 175.122 365.508 175.133 365.305 175.133C364.648 175.133 364.203 174.966 363.969 174.633C363.734 174.294 363.617 173.857 363.617 173.32V167.781H362.484V166.633H363.617V164.297ZM371.109 174.094C372.042 174.094 372.68 173.742 373.023 173.039C373.372 172.331 373.547 171.544 373.547 170.68C373.547 169.898 373.422 169.263 373.172 168.773C372.776 168.003 372.094 167.617 371.125 167.617C370.266 167.617 369.641 167.945 369.25 168.602C368.859 169.258 368.664 170.049 368.664 170.977C368.664 171.867 368.859 172.609 369.25 173.203C369.641 173.797 370.26 174.094 371.109 174.094ZM371.164 166.391C372.242 166.391 373.154 166.75 373.898 167.469C374.643 168.188 375.016 169.245 375.016 170.641C375.016 171.99 374.688 173.104 374.031 173.984C373.375 174.865 372.357 175.305 370.977 175.305C369.826 175.305 368.911 174.917 368.234 174.141C367.557 173.359 367.219 172.312 367.219 171C367.219 169.594 367.576 168.474 368.289 167.641C369.003 166.807 369.961 166.391 371.164 166.391ZM376.734 166.633H378.07V168.078C378.18 167.797 378.448 167.456 378.875 167.055C379.302 166.648 379.794 166.445 380.352 166.445C380.378 166.445 380.422 166.448 380.484 166.453C380.547 166.458 380.654 166.469 380.805 166.484V167.969C380.721 167.953 380.643 167.943 380.57 167.938C380.503 167.932 380.427 167.93 380.344 167.93C379.635 167.93 379.091 168.159 378.711 168.617C378.331 169.07 378.141 169.594 378.141 170.188V175H376.734V166.633ZM387.25 166.633H388.805C388.607 167.169 388.167 168.393 387.484 170.305C386.974 171.742 386.547 172.914 386.203 173.82C385.391 175.956 384.818 177.258 384.484 177.727C384.151 178.195 383.578 178.43 382.766 178.43C382.568 178.43 382.414 178.422 382.305 178.406C382.201 178.391 382.07 178.362 381.914 178.32V177.039C382.159 177.107 382.336 177.148 382.445 177.164C382.555 177.18 382.651 177.188 382.734 177.188C382.995 177.188 383.185 177.143 383.305 177.055C383.43 176.971 383.534 176.867 383.617 176.742C383.643 176.701 383.737 176.487 383.898 176.102C384.06 175.716 384.177 175.43 384.25 175.242L381.156 166.633H382.75L384.992 173.445L387.25 166.633Z" fill="#2B2B27"/>
<path d="M490.667 125C498.951 125 505.667 118.284 505.667 110C505.667 101.716 498.951 95 490.667 95C482.382 95 475.667 101.716 475.667 110C475.667 118.284 482.382 125 490.667 125Z" fill="#FCFCFA" stroke="#A8845C" stroke-width="1.5" stroke-dasharray="4 3"/>
<path d="M491.092 110.955H489.886V109.977C489.886 109.562 489.949 109.211 490.076 108.923C490.208 108.631 490.451 108.312 490.806 107.965L491.378 107.4C491.64 107.15 491.82 106.932 491.917 106.746C492.019 106.56 492.069 106.363 492.069 106.156C492.069 105.779 491.93 105.474 491.651 105.242C491.375 105.009 491.007 104.893 490.546 104.893C490.216 104.893 489.863 104.967 489.486 105.115C489.109 105.259 488.714 105.474 488.299 105.762V104.569C488.697 104.328 489.097 104.148 489.499 104.029C489.905 103.911 490.328 103.852 490.768 103.852C491.555 103.852 492.182 104.055 492.647 104.461C493.117 104.867 493.352 105.411 493.352 106.092C493.352 106.414 493.28 106.714 493.136 106.994C492.996 107.269 492.728 107.601 492.33 107.99L491.771 108.536C491.479 108.815 491.293 109.044 491.213 109.222C491.132 109.399 491.092 109.617 491.092 109.875V110.174V110.955ZM489.841 111.888H491.13V113.5H489.841V111.888Z" fill="#8A6A44"/>
<path d="M564 150H417.333C412.915 150 409.333 153.582 409.333 158V184C409.333 188.418 412.915 192 417.333 192H564C568.418 192 572 188.418 572 184V158C572 153.582 568.418 150 564 150Z" stroke="#A8845C" stroke-width="1.5" stroke-dasharray="4 3"/>
<path d="M428.456 163.523H433.62C434.641 163.523 435.464 163.812 436.089 164.391C436.714 164.964 437.026 165.771 437.026 166.812C437.026 167.708 436.747 168.49 436.19 169.156C435.633 169.818 434.776 170.148 433.62 170.148H430.01V175H428.456V163.523ZM435.456 166.82C435.456 165.977 435.143 165.404 434.518 165.102C434.174 164.94 433.703 164.859 433.104 164.859H430.01V168.836H433.104C433.802 168.836 434.367 168.688 434.799 168.391C435.237 168.094 435.456 167.57 435.456 166.82ZM438.831 166.633H440.167V168.078C440.276 167.797 440.544 167.456 440.971 167.055C441.398 166.648 441.891 166.445 442.448 166.445C442.474 166.445 442.518 166.448 442.581 166.453C442.643 166.458 442.75 166.469 442.901 166.484V167.969C442.818 167.953 442.74 167.943 442.667 167.938C442.599 167.932 442.523 167.93 442.44 167.93C441.732 167.93 441.187 168.159 440.807 168.617C440.427 169.07 440.237 169.594 440.237 170.188V175H438.831V166.633ZM447.44 174.094C448.372 174.094 449.01 173.742 449.354 173.039C449.703 172.331 449.878 171.544 449.878 170.68C449.878 169.898 449.753 169.263 449.503 168.773C449.107 168.003 448.424 167.617 447.456 167.617C446.596 167.617 445.971 167.945 445.581 168.602C445.19 169.258 444.995 170.049 444.995 170.977C444.995 171.867 445.19 172.609 445.581 173.203C445.971 173.797 446.591 174.094 447.44 174.094ZM447.495 166.391C448.573 166.391 449.484 166.75 450.229 167.469C450.974 168.188 451.346 169.245 451.346 170.641C451.346 171.99 451.018 173.104 450.362 173.984C449.706 174.865 448.687 175.305 447.307 175.305C446.156 175.305 445.242 174.917 444.565 174.141C443.888 173.359 443.549 172.312 443.549 171C443.549 169.594 443.906 168.474 444.62 167.641C445.333 166.807 446.292 166.391 447.495 166.391ZM453.714 166.633L455.948 173.445L458.284 166.633H459.823L456.667 175H455.167L452.081 166.633H453.714ZM461.026 166.672H462.456V175H461.026V166.672ZM461.026 163.523H462.456V165.117H461.026V163.523ZM465.479 170.914C465.479 171.81 465.669 172.56 466.049 173.164C466.43 173.768 467.039 174.07 467.878 174.07C468.529 174.07 469.062 173.792 469.479 173.234C469.901 172.672 470.112 171.867 470.112 170.82C470.112 169.763 469.896 168.982 469.464 168.477C469.031 167.966 468.497 167.711 467.862 167.711C467.154 167.711 466.578 167.982 466.135 168.523C465.698 169.065 465.479 169.862 465.479 170.914ZM467.596 166.484C468.237 166.484 468.773 166.62 469.206 166.891C469.456 167.047 469.74 167.32 470.057 167.711V163.484H471.409V175H470.143V173.836C469.815 174.352 469.427 174.724 468.979 174.953C468.531 175.182 468.018 175.297 467.44 175.297C466.508 175.297 465.701 174.906 465.018 174.125C464.336 173.339 463.995 172.294 463.995 170.992C463.995 169.773 464.305 168.719 464.924 167.828C465.549 166.932 466.44 166.484 467.596 166.484ZM476.979 166.445C477.573 166.445 478.148 166.586 478.706 166.867C479.263 167.143 479.687 167.503 479.979 167.945C480.26 168.367 480.448 168.859 480.542 169.422C480.625 169.807 480.667 170.422 480.667 171.266H474.534C474.56 172.115 474.76 172.797 475.135 173.312C475.51 173.823 476.091 174.078 476.878 174.078C477.612 174.078 478.198 173.836 478.635 173.352C478.885 173.07 479.062 172.745 479.167 172.375H480.549C480.513 172.682 480.391 173.026 480.182 173.406C479.979 173.781 479.75 174.089 479.495 174.328C479.068 174.745 478.539 175.026 477.909 175.172C477.57 175.255 477.187 175.297 476.76 175.297C475.719 175.297 474.836 174.919 474.112 174.164C473.388 173.404 473.026 172.341 473.026 170.977C473.026 169.633 473.391 168.542 474.12 167.703C474.849 166.865 475.802 166.445 476.979 166.445ZM479.221 170.148C479.164 169.539 479.031 169.052 478.823 168.688C478.437 168.01 477.794 167.672 476.893 167.672C476.247 167.672 475.706 167.906 475.268 168.375C474.831 168.839 474.599 169.43 474.573 170.148H479.221ZM482.44 166.633H483.776V168.078C483.885 167.797 484.154 167.456 484.581 167.055C485.008 166.648 485.5 166.445 486.057 166.445C486.083 166.445 486.128 166.448 486.19 166.453C486.253 166.458 486.359 166.469 486.51 166.484V167.969C486.427 167.953 486.349 167.943 486.276 167.938C486.208 167.932 486.133 167.93 486.049 167.93C485.341 167.93 484.797 168.159 484.417 168.617C484.036 169.07 483.846 169.594 483.846 170.188V175H482.44V166.633ZM493.589 166.633V172.188C493.589 172.615 493.656 172.964 493.792 173.234C494.042 173.734 494.508 173.984 495.19 173.984C496.169 173.984 496.836 173.547 497.19 172.672C497.383 172.203 497.479 171.56 497.479 170.742V166.633H498.885V175H497.557L497.573 173.766C497.391 174.083 497.164 174.352 496.893 174.57C496.357 175.008 495.706 175.227 494.94 175.227C493.747 175.227 492.935 174.828 492.503 174.031C492.268 173.604 492.151 173.034 492.151 172.32V166.633H493.589ZM501.089 166.633H502.424V167.82C502.82 167.331 503.24 166.979 503.682 166.766C504.125 166.552 504.617 166.445 505.159 166.445C506.346 166.445 507.148 166.859 507.565 167.688C507.794 168.141 507.909 168.789 507.909 169.633V175H506.479V169.727C506.479 169.216 506.404 168.805 506.253 168.492C506.003 167.971 505.549 167.711 504.893 167.711C504.56 167.711 504.286 167.745 504.073 167.812C503.687 167.927 503.349 168.156 503.057 168.5C502.823 168.776 502.669 169.062 502.596 169.359C502.529 169.651 502.495 170.07 502.495 170.617V175H501.089V166.633ZM509.964 163.523H511.315V170.188L514.924 166.633H516.721L513.518 169.766L516.901 175H515.104L512.495 170.781L511.315 171.859V175H509.964V163.523ZM517.995 166.633H519.331V167.82C519.727 167.331 520.146 166.979 520.589 166.766C521.031 166.552 521.523 166.445 522.065 166.445C523.253 166.445 524.055 166.859 524.471 167.688C524.701 168.141 524.815 168.789 524.815 169.633V175H523.385V169.727C523.385 169.216 523.31 168.805 523.159 168.492C522.909 167.971 522.456 167.711 521.799 167.711C521.466 167.711 521.193 167.745 520.979 167.812C520.594 167.927 520.255 168.156 519.964 168.5C519.729 168.776 519.576 169.062 519.503 169.359C519.435 169.651 519.401 170.07 519.401 170.617V175H517.995V166.633ZM530.221 174.094C531.154 174.094 531.792 173.742 532.135 173.039C532.484 172.331 532.659 171.544 532.659 170.68C532.659 169.898 532.534 169.263 532.284 168.773C531.888 168.003 531.206 167.617 530.237 167.617C529.378 167.617 528.753 167.945 528.362 168.602C527.971 169.258 527.776 170.049 527.776 170.977C527.776 171.867 527.971 172.609 528.362 173.203C528.753 173.797 529.372 174.094 530.221 174.094ZM530.276 166.391C531.354 166.391 532.266 166.75 533.01 167.469C533.755 168.188 534.128 169.245 534.128 170.641C534.128 171.99 533.799 173.104 533.143 173.984C532.487 174.865 531.469 175.305 530.089 175.305C528.937 175.305 528.023 174.917 527.346 174.141C526.669 173.359 526.331 172.312 526.331 171C526.331 169.594 526.687 168.474 527.401 167.641C528.115 166.807 529.073 166.391 530.276 166.391ZM536.456 166.633L538.065 173.227L539.698 166.633H541.276L542.917 173.188L544.628 166.633H546.034L543.604 175H542.143L540.44 168.523L538.792 175H537.331L534.917 166.633H536.456ZM547.37 166.633H548.706V167.82C549.102 167.331 549.521 166.979 549.964 166.766C550.406 166.552 550.898 166.445 551.44 166.445C552.628 166.445 553.43 166.859 553.846 167.688C554.076 168.141 554.19 168.789 554.19 169.633V175H552.76V169.727C552.76 169.216 552.685 168.805 552.534 168.492C552.284 167.971 551.831 167.711 551.174 167.711C550.841 167.711 550.568 167.745 550.354 167.812C549.969 167.927 549.63 168.156 549.339 168.5C549.104 168.776 548.951 169.062 548.878 169.359C548.81 169.651 548.776 170.07 548.776 170.617V175H547.37V166.633Z" fill="#7A5E3C"/>
<path d="M669.333 125C677.618 125 684.333 118.284 684.333 110C684.333 101.716 677.618 95 669.333 95C661.049 95 654.333 101.716 654.333 110C654.333 118.284 661.049 125 669.333 125Z" fill="#FCFCFA" stroke="#A8845C" stroke-width="1.5" stroke-dasharray="4 3"/>
<path d="M669.759 110.955H668.553V109.977C668.553 109.562 668.616 109.211 668.743 108.923C668.874 108.631 669.117 108.312 669.473 107.965L670.044 107.4C670.307 107.15 670.486 106.932 670.584 106.746C670.685 106.56 670.736 106.363 670.736 106.156C670.736 105.779 670.596 105.474 670.317 105.242C670.042 105.009 669.674 104.893 669.213 104.893C668.883 104.893 668.529 104.967 668.153 105.115C667.776 105.259 667.38 105.474 666.966 105.762V104.569C667.363 104.328 667.763 104.148 668.165 104.029C668.572 103.911 668.995 103.852 669.435 103.852C670.222 103.852 670.848 104.055 671.314 104.461C671.784 104.867 672.018 105.411 672.018 106.092C672.018 106.414 671.946 106.714 671.803 106.994C671.663 107.269 671.394 107.601 670.996 107.99L670.438 108.536C670.146 108.815 669.96 109.044 669.879 109.222C669.799 109.399 669.759 109.617 669.759 109.875V110.174V110.955ZM668.508 111.888H669.797V113.5H668.508V111.888Z" fill="#8A6A44"/>
<path d="M742.667 150H596C591.582 150 588 153.582 588 158V184C588 188.418 591.582 192 596 192H742.667C747.085 192 750.667 188.418 750.667 184V158C750.667 153.582 747.085 150 742.667 150Z" stroke="#A8845C" stroke-width="1.5" stroke-dasharray="4 3"/>
<path d="M611.068 163.523H616.232C617.253 163.523 618.076 163.812 618.701 164.391C619.326 164.964 619.638 165.771 619.638 166.812C619.638 167.708 619.359 168.49 618.802 169.156C618.245 169.818 617.388 170.148 616.232 170.148H612.622V175H611.068V163.523ZM618.068 166.82C618.068 165.977 617.755 165.404 617.13 165.102C616.786 164.94 616.315 164.859 615.716 164.859H612.622V168.836H615.716C616.414 168.836 616.979 168.688 617.411 168.391C617.849 168.094 618.068 167.57 618.068 166.82ZM621.443 166.633H622.779V168.078C622.888 167.797 623.156 167.456 623.583 167.055C624.01 166.648 624.503 166.445 625.06 166.445C625.086 166.445 625.13 166.448 625.193 166.453C625.255 166.458 625.362 166.469 625.513 166.484V167.969C625.43 167.953 625.352 167.943 625.279 167.938C625.211 167.932 625.135 167.93 625.052 167.93C624.344 167.93 623.799 168.159 623.419 168.617C623.039 169.07 622.849 169.594 622.849 170.188V175H621.443V166.633ZM626.732 166.672H628.161V175H626.732V166.672ZM626.732 163.523H628.161V165.117H626.732V163.523ZM633.521 166.391C634.464 166.391 635.229 166.62 635.818 167.078C636.411 167.536 636.768 168.326 636.888 169.445H635.521C635.437 168.93 635.247 168.503 634.951 168.164C634.654 167.82 634.177 167.648 633.521 167.648C632.625 167.648 631.984 168.086 631.599 168.961C631.349 169.529 631.224 170.229 631.224 171.062C631.224 171.901 631.401 172.607 631.755 173.18C632.109 173.753 632.667 174.039 633.427 174.039C634.01 174.039 634.471 173.862 634.81 173.508C635.154 173.148 635.391 172.659 635.521 172.039H636.888C636.732 173.148 636.341 173.961 635.716 174.477C635.091 174.987 634.292 175.242 633.318 175.242C632.224 175.242 631.352 174.844 630.701 174.047C630.049 173.245 629.724 172.245 629.724 171.047C629.724 169.578 630.081 168.435 630.794 167.617C631.508 166.799 632.417 166.391 633.521 166.391ZM638.294 166.672H639.724V175H638.294V166.672ZM638.294 163.523H639.724V165.117H638.294V163.523ZM641.857 166.633H643.193V167.82C643.589 167.331 644.008 166.979 644.451 166.766C644.893 166.552 645.385 166.445 645.927 166.445C647.115 166.445 647.917 166.859 648.333 167.688C648.562 168.141 648.677 168.789 648.677 169.633V175H647.247V169.727C647.247 169.216 647.172 168.805 647.021 168.492C646.771 167.971 646.318 167.711 645.661 167.711C645.328 167.711 645.055 167.745 644.841 167.812C644.456 167.927 644.117 168.156 643.826 168.5C643.591 168.776 643.437 169.062 643.365 169.359C643.297 169.651 643.263 170.07 643.263 170.617V175H641.857V166.633ZM653.716 166.484C654.372 166.484 654.945 166.646 655.435 166.969C655.701 167.151 655.971 167.417 656.247 167.766V166.711H657.544V174.32C657.544 175.383 657.388 176.221 657.076 176.836C656.492 177.971 655.391 178.539 653.771 178.539C652.87 178.539 652.112 178.336 651.497 177.93C650.883 177.529 650.539 176.898 650.466 176.039H651.896C651.964 176.414 652.099 176.703 652.302 176.906C652.62 177.219 653.12 177.375 653.802 177.375C654.88 177.375 655.586 176.995 655.919 176.234C656.117 175.786 656.208 174.987 656.193 173.836C655.911 174.263 655.573 174.581 655.177 174.789C654.781 174.997 654.258 175.102 653.607 175.102C652.701 175.102 651.906 174.781 651.224 174.141C650.547 173.495 650.208 172.43 650.208 170.945C650.208 169.544 650.549 168.451 651.232 167.664C651.919 166.878 652.747 166.484 653.716 166.484ZM656.247 170.781C656.247 169.745 656.034 168.977 655.607 168.477C655.18 167.977 654.635 167.727 653.974 167.727C652.984 167.727 652.307 168.19 651.943 169.117C651.75 169.612 651.654 170.26 651.654 171.062C651.654 172.005 651.844 172.724 652.224 173.219C652.609 173.708 653.125 173.953 653.771 173.953C654.781 173.953 655.492 173.497 655.904 172.586C656.133 172.07 656.247 171.469 656.247 170.781ZM665.529 166.633V172.188C665.529 172.615 665.596 172.964 665.732 173.234C665.982 173.734 666.448 173.984 667.13 173.984C668.109 173.984 668.776 173.547 669.13 172.672C669.323 172.203 669.419 171.56 669.419 170.742V166.633H670.826V175H669.497L669.513 173.766C669.331 174.083 669.104 174.352 668.833 174.57C668.297 175.008 667.646 175.227 666.88 175.227C665.687 175.227 664.875 174.828 664.443 174.031C664.208 173.604 664.091 173.034 664.091 172.32V166.633H665.529ZM673.029 166.633H674.365V167.82C674.76 167.331 675.18 166.979 675.622 166.766C676.065 166.552 676.557 166.445 677.099 166.445C678.286 166.445 679.089 166.859 679.505 167.688C679.734 168.141 679.849 168.789 679.849 169.633V175H678.419V169.727C678.419 169.216 678.344 168.805 678.193 168.492C677.943 167.971 677.49 167.711 676.833 167.711C676.5 167.711 676.227 167.745 676.013 167.812C675.628 167.927 675.289 168.156 674.997 168.5C674.763 168.776 674.609 169.062 674.536 169.359C674.469 169.651 674.435 170.07 674.435 170.617V175H673.029V166.633ZM685.161 166.391C686.104 166.391 686.87 166.62 687.458 167.078C688.052 167.536 688.409 168.326 688.529 169.445H687.161C687.078 168.93 686.888 168.503 686.591 168.164C686.294 167.82 685.818 167.648 685.161 167.648C684.266 167.648 683.625 168.086 683.24 168.961C682.99 169.529 682.865 170.229 682.865 171.062C682.865 171.901 683.042 172.607 683.396 173.18C683.75 173.753 684.307 174.039 685.068 174.039C685.651 174.039 686.112 173.862 686.451 173.508C686.794 173.148 687.031 172.659 687.161 172.039H688.529C688.372 173.148 687.982 173.961 687.357 174.477C686.732 174.987 685.932 175.242 684.958 175.242C683.865 175.242 682.992 174.844 682.341 174.047C681.69 173.245 681.365 172.245 681.365 171.047C681.365 169.578 681.721 168.435 682.435 167.617C683.148 166.799 684.057 166.391 685.161 166.391ZM693.419 166.445C694.013 166.445 694.589 166.586 695.146 166.867C695.703 167.143 696.128 167.503 696.419 167.945C696.701 168.367 696.888 168.859 696.982 169.422C697.065 169.807 697.107 170.422 697.107 171.266H690.974C691 172.115 691.201 172.797 691.576 173.312C691.951 173.823 692.531 174.078 693.318 174.078C694.052 174.078 694.638 173.836 695.076 173.352C695.326 173.07 695.503 172.745 695.607 172.375H696.99C696.953 172.682 696.831 173.026 696.622 173.406C696.419 173.781 696.19 174.089 695.935 174.328C695.508 174.745 694.979 175.026 694.349 175.172C694.01 175.255 693.628 175.297 693.201 175.297C692.159 175.297 691.276 174.919 690.552 174.164C689.828 173.404 689.466 172.341 689.466 170.977C689.466 169.633 689.831 168.542 690.56 167.703C691.289 166.865 692.242 166.445 693.419 166.445ZM695.661 170.148C695.604 169.539 695.471 169.052 695.263 168.688C694.878 168.01 694.234 167.672 693.333 167.672C692.687 167.672 692.146 167.906 691.708 168.375C691.271 168.839 691.039 169.43 691.013 170.148H695.661ZM698.88 166.633H700.216V168.078C700.326 167.797 700.594 167.456 701.021 167.055C701.448 166.648 701.94 166.445 702.497 166.445C702.523 166.445 702.568 166.448 702.63 166.453C702.693 166.458 702.799 166.469 702.951 166.484V167.969C702.867 167.953 702.789 167.943 702.716 167.938C702.648 167.932 702.573 167.93 702.49 167.93C701.781 167.93 701.237 168.159 700.857 168.617C700.477 169.07 700.286 169.594 700.286 170.188V175H698.88V166.633ZM704.451 164.297H705.872V166.633H707.208V167.781H705.872V173.242C705.872 173.534 705.971 173.729 706.169 173.828C706.279 173.885 706.461 173.914 706.716 173.914C706.784 173.914 706.857 173.914 706.935 173.914C707.013 173.909 707.104 173.901 707.208 173.891V175C707.047 175.047 706.878 175.081 706.701 175.102C706.529 175.122 706.341 175.133 706.138 175.133C705.482 175.133 705.036 174.966 704.802 174.633C704.568 174.294 704.451 173.857 704.451 173.32V167.781H703.318V166.633H704.451V164.297ZM709.701 172.773C709.701 173.18 709.849 173.5 710.146 173.734C710.443 173.969 710.794 174.086 711.201 174.086C711.695 174.086 712.174 173.971 712.638 173.742C713.419 173.362 713.81 172.74 713.81 171.875V170.742C713.638 170.852 713.417 170.943 713.146 171.016C712.875 171.089 712.609 171.141 712.349 171.172L711.497 171.281C710.987 171.349 710.604 171.456 710.349 171.602C709.917 171.846 709.701 172.237 709.701 172.773ZM713.107 169.93C713.43 169.888 713.646 169.753 713.755 169.523C713.818 169.398 713.849 169.219 713.849 168.984C713.849 168.505 713.677 168.159 713.333 167.945C712.995 167.727 712.508 167.617 711.872 167.617C711.138 167.617 710.617 167.815 710.31 168.211C710.138 168.43 710.026 168.755 709.974 169.188H708.661C708.687 168.156 709.021 167.44 709.661 167.039C710.307 166.633 711.055 166.43 711.904 166.43C712.888 166.43 713.687 166.617 714.302 166.992C714.911 167.367 715.216 167.951 715.216 168.742V173.562C715.216 173.708 715.245 173.826 715.302 173.914C715.365 174.003 715.492 174.047 715.685 174.047C715.747 174.047 715.818 174.044 715.896 174.039C715.974 174.029 716.057 174.016 716.146 174V175.039C715.927 175.102 715.76 175.141 715.646 175.156C715.531 175.172 715.375 175.18 715.177 175.18C714.693 175.18 714.341 175.008 714.122 174.664C714.008 174.482 713.927 174.224 713.88 173.891C713.594 174.266 713.182 174.591 712.646 174.867C712.109 175.143 711.518 175.281 710.872 175.281C710.096 175.281 709.461 175.047 708.966 174.578C708.477 174.104 708.232 173.513 708.232 172.805C708.232 172.029 708.474 171.427 708.958 171C709.443 170.573 710.078 170.31 710.865 170.211L713.107 169.93ZM717.529 166.672H718.958V175H717.529V166.672ZM717.529 163.523H718.958V165.117H717.529V163.523ZM721.091 166.633H722.427V167.82C722.823 167.331 723.242 166.979 723.685 166.766C724.128 166.552 724.62 166.445 725.161 166.445C726.349 166.445 727.151 166.859 727.568 167.688C727.797 168.141 727.911 168.789 727.911 169.633V175H726.482V169.727C726.482 169.216 726.406 168.805 726.255 168.492C726.005 167.971 725.552 167.711 724.896 167.711C724.562 167.711 724.289 167.745 724.076 167.812C723.69 167.927 723.352 168.156 723.06 168.5C722.826 168.776 722.672 169.062 722.599 169.359C722.531 169.651 722.497 170.07 722.497 170.617V175H721.091V166.633Z" fill="#7A5E3C"/>
<path d="M848 125C856.284 125 863 118.284 863 110C863 101.716 856.284 95 848 95C839.716 95 833 101.716 833 110C833 118.284 839.716 125 848 125Z" fill="#41413C"/>
<path d="M849.009 108.428C849.631 108.593 850.107 108.887 850.438 109.311C850.768 109.729 850.933 110.254 850.933 110.885C850.933 111.757 850.639 112.442 850.05 112.941C849.466 113.437 848.656 113.684 847.619 113.684C847.183 113.684 846.739 113.644 846.286 113.563C845.833 113.483 845.389 113.367 844.953 113.214V111.938C845.385 112.163 845.81 112.33 846.229 112.44C846.648 112.55 847.065 112.605 847.479 112.605C848.182 112.605 848.722 112.446 849.098 112.129C849.475 111.812 849.663 111.354 849.663 110.758C849.663 110.208 849.475 109.772 849.098 109.45C848.722 109.124 848.212 108.961 847.568 108.961H846.591V107.908H847.568C848.157 107.908 848.616 107.779 848.946 107.521C849.276 107.262 849.441 106.903 849.441 106.441C849.441 105.955 849.286 105.582 848.978 105.324C848.673 105.062 848.237 104.931 847.67 104.931C847.293 104.931 846.904 104.973 846.502 105.058C846.1 105.142 845.679 105.269 845.239 105.438V104.258C845.751 104.122 846.206 104.021 846.604 103.953C847.006 103.885 847.361 103.852 847.67 103.852C848.592 103.852 849.329 104.084 849.879 104.55C850.433 105.011 850.71 105.625 850.71 106.391C850.71 106.911 850.564 107.345 850.272 107.692C849.985 108.039 849.564 108.284 849.009 108.428Z" fill="#EDEDEA"/>
<path d="M921.333 150H774.667C770.248 150 766.667 153.582 766.667 158V184C766.667 188.418 770.248 192 774.667 192H921.333C925.752 192 929.333 188.418 929.333 184V158C929.333 153.582 925.752 150 921.333 150Z" fill="#FCFCFA" stroke="#D6D6CF"/>
<path d="M785.734 163.523H790.898C791.919 163.523 792.742 163.812 793.367 164.391C793.992 164.964 794.305 165.771 794.305 166.812C794.305 167.708 794.026 168.49 793.469 169.156C792.911 169.818 792.055 170.148 790.898 170.148H787.289V175H785.734V163.523ZM792.734 166.82C792.734 165.977 792.422 165.404 791.797 165.102C791.453 164.94 790.982 164.859 790.383 164.859H787.289V168.836H790.383C791.081 168.836 791.646 168.688 792.078 168.391C792.516 168.094 792.734 167.57 792.734 166.82ZM796.109 166.633H797.445V168.078C797.555 167.797 797.823 167.456 798.25 167.055C798.677 166.648 799.169 166.445 799.727 166.445C799.753 166.445 799.797 166.448 799.859 166.453C799.922 166.458 800.029 166.469 800.18 166.484V167.969C800.096 167.953 800.018 167.943 799.945 167.938C799.878 167.932 799.802 167.93 799.719 167.93C799.01 167.93 798.466 168.159 798.086 168.617C797.706 169.07 797.516 169.594 797.516 170.188V175H796.109V166.633ZM804.719 174.094C805.651 174.094 806.289 173.742 806.633 173.039C806.982 172.331 807.156 171.544 807.156 170.68C807.156 169.898 807.031 169.263 806.781 168.773C806.385 168.003 805.703 167.617 804.734 167.617C803.875 167.617 803.25 167.945 802.859 168.602C802.469 169.258 802.273 170.049 802.273 170.977C802.273 171.867 802.469 172.609 802.859 173.203C803.25 173.797 803.87 174.094 804.719 174.094ZM804.773 166.391C805.852 166.391 806.763 166.75 807.508 167.469C808.253 168.188 808.625 169.245 808.625 170.641C808.625 171.99 808.297 173.104 807.641 173.984C806.984 174.865 805.966 175.305 804.586 175.305C803.435 175.305 802.521 174.917 801.844 174.141C801.167 173.359 800.828 172.312 800.828 171C800.828 169.594 801.185 168.474 801.898 167.641C802.612 166.807 803.57 166.391 804.773 166.391ZM810.992 166.633L813.227 173.445L815.562 166.633H817.102L813.945 175H812.445L809.359 166.633H810.992ZM818.305 166.672H819.734V175H818.305V166.672ZM818.305 163.523H819.734V165.117H818.305V163.523ZM822.758 170.914C822.758 171.81 822.948 172.56 823.328 173.164C823.708 173.768 824.318 174.07 825.156 174.07C825.807 174.07 826.341 173.792 826.758 173.234C827.18 172.672 827.391 171.867 827.391 170.82C827.391 169.763 827.174 168.982 826.742 168.477C826.31 167.966 825.776 167.711 825.141 167.711C824.432 167.711 823.857 167.982 823.414 168.523C822.977 169.065 822.758 169.862 822.758 170.914ZM824.875 166.484C825.516 166.484 826.052 166.62 826.484 166.891C826.734 167.047 827.018 167.32 827.336 167.711V163.484H828.688V175H827.422V173.836C827.094 174.352 826.706 174.724 826.258 174.953C825.81 175.182 825.297 175.297 824.719 175.297C823.786 175.297 822.979 174.906 822.297 174.125C821.615 173.339 821.273 172.294 821.273 170.992C821.273 169.773 821.583 168.719 822.203 167.828C822.828 166.932 823.719 166.484 824.875 166.484ZM834.258 166.445C834.852 166.445 835.427 166.586 835.984 166.867C836.542 167.143 836.966 167.503 837.258 167.945C837.539 168.367 837.727 168.859 837.82 169.422C837.904 169.807 837.945 170.422 837.945 171.266H831.812C831.839 172.115 832.039 172.797 832.414 173.312C832.789 173.823 833.37 174.078 834.156 174.078C834.891 174.078 835.477 173.836 835.914 173.352C836.164 173.07 836.341 172.745 836.445 172.375H837.828C837.792 172.682 837.669 173.026 837.461 173.406C837.258 173.781 837.029 174.089 836.773 174.328C836.346 174.745 835.818 175.026 835.188 175.172C834.849 175.255 834.466 175.297 834.039 175.297C832.997 175.297 832.115 174.919 831.391 174.164C830.667 173.404 830.305 172.341 830.305 170.977C830.305 169.633 830.669 168.542 831.398 167.703C832.128 166.865 833.081 166.445 834.258 166.445ZM836.5 170.148C836.443 169.539 836.31 169.052 836.102 168.688C835.716 168.01 835.073 167.672 834.172 167.672C833.526 167.672 832.984 167.906 832.547 168.375C832.109 168.839 831.878 169.43 831.852 170.148H836.5ZM839.719 166.633H841.055V168.078C841.164 167.797 841.432 167.456 841.859 167.055C842.286 166.648 842.779 166.445 843.336 166.445C843.362 166.445 843.406 166.448 843.469 166.453C843.531 166.458 843.638 166.469 843.789 166.484V167.969C843.706 167.953 843.628 167.943 843.555 167.938C843.487 167.932 843.411 167.93 843.328 167.93C842.62 167.93 842.076 168.159 841.695 168.617C841.315 169.07 841.125 169.594 841.125 170.188V175H839.719V166.633ZM850.297 172.375C850.339 172.844 850.456 173.203 850.648 173.453C851.003 173.906 851.617 174.133 852.492 174.133C853.013 174.133 853.471 174.021 853.867 173.797C854.263 173.568 854.461 173.216 854.461 172.742C854.461 172.383 854.302 172.109 853.984 171.922C853.781 171.807 853.38 171.674 852.781 171.523L851.664 171.242C850.951 171.065 850.424 170.867 850.086 170.648C849.482 170.268 849.18 169.742 849.18 169.07C849.18 168.279 849.464 167.638 850.031 167.148C850.604 166.659 851.372 166.414 852.336 166.414C853.596 166.414 854.505 166.784 855.062 167.523C855.411 167.992 855.581 168.497 855.57 169.039H854.242C854.216 168.721 854.104 168.432 853.906 168.172C853.583 167.802 853.023 167.617 852.227 167.617C851.695 167.617 851.292 167.719 851.016 167.922C850.745 168.125 850.609 168.393 850.609 168.727C850.609 169.091 850.789 169.383 851.148 169.602C851.357 169.732 851.664 169.846 852.07 169.945L853 170.172C854.01 170.417 854.688 170.654 855.031 170.883C855.578 171.242 855.852 171.807 855.852 172.578C855.852 173.323 855.568 173.966 855 174.508C854.438 175.049 853.578 175.32 852.422 175.32C851.177 175.32 850.294 175.039 849.773 174.477C849.258 173.909 848.982 173.208 848.945 172.375H850.297ZM860.945 166.445C861.539 166.445 862.115 166.586 862.672 166.867C863.229 167.143 863.654 167.503 863.945 167.945C864.227 168.367 864.414 168.859 864.508 169.422C864.591 169.807 864.633 170.422 864.633 171.266H858.5C858.526 172.115 858.727 172.797 859.102 173.312C859.477 173.823 860.057 174.078 860.844 174.078C861.578 174.078 862.164 173.836 862.602 173.352C862.852 173.07 863.029 172.745 863.133 172.375H864.516C864.479 172.682 864.357 173.026 864.148 173.406C863.945 173.781 863.716 174.089 863.461 174.328C863.034 174.745 862.505 175.026 861.875 175.172C861.536 175.255 861.154 175.297 860.727 175.297C859.685 175.297 858.802 174.919 858.078 174.164C857.354 173.404 856.992 172.341 856.992 170.977C856.992 169.633 857.357 168.542 858.086 167.703C858.815 166.865 859.768 166.445 860.945 166.445ZM863.188 170.148C863.13 169.539 862.997 169.052 862.789 168.688C862.404 168.01 861.76 167.672 860.859 167.672C860.214 167.672 859.672 167.906 859.234 168.375C858.797 168.839 858.565 169.43 858.539 170.148H863.188ZM866.406 163.523H867.812V175H866.406V163.523ZM873.414 166.445C874.008 166.445 874.583 166.586 875.141 166.867C875.698 167.143 876.122 167.503 876.414 167.945C876.695 168.367 876.883 168.859 876.977 169.422C877.06 169.807 877.102 170.422 877.102 171.266H870.969C870.995 172.115 871.195 172.797 871.57 173.312C871.945 173.823 872.526 174.078 873.312 174.078C874.047 174.078 874.633 173.836 875.07 173.352C875.32 173.07 875.497 172.745 875.602 172.375H876.984C876.948 172.682 876.826 173.026 876.617 173.406C876.414 173.781 876.185 174.089 875.93 174.328C875.503 174.745 874.974 175.026 874.344 175.172C874.005 175.255 873.622 175.297 873.195 175.297C872.154 175.297 871.271 174.919 870.547 174.164C869.823 173.404 869.461 172.341 869.461 170.977C869.461 169.633 869.826 168.542 870.555 167.703C871.284 166.865 872.237 166.445 873.414 166.445ZM875.656 170.148C875.599 169.539 875.466 169.052 875.258 168.688C874.872 168.01 874.229 167.672 873.328 167.672C872.682 167.672 872.141 167.906 871.703 168.375C871.266 168.839 871.034 169.43 871.008 170.148H875.656ZM882.062 166.391C883.005 166.391 883.771 166.62 884.359 167.078C884.953 167.536 885.31 168.326 885.43 169.445H884.062C883.979 168.93 883.789 168.503 883.492 168.164C883.195 167.82 882.719 167.648 882.062 167.648C881.167 167.648 880.526 168.086 880.141 168.961C879.891 169.529 879.766 170.229 879.766 171.062C879.766 171.901 879.943 172.607 880.297 173.18C880.651 173.753 881.208 174.039 881.969 174.039C882.552 174.039 883.013 173.862 883.352 173.508C883.695 173.148 883.932 172.659 884.062 172.039H885.43C885.273 173.148 884.883 173.961 884.258 174.477C883.633 174.987 882.833 175.242 881.859 175.242C880.766 175.242 879.893 174.844 879.242 174.047C878.591 173.245 878.266 172.245 878.266 171.047C878.266 169.578 878.622 168.435 879.336 167.617C880.049 166.799 880.958 166.391 882.062 166.391ZM887.117 164.297H888.539V166.633H889.875V167.781H888.539V173.242C888.539 173.534 888.638 173.729 888.836 173.828C888.945 173.885 889.128 173.914 889.383 173.914C889.451 173.914 889.523 173.914 889.602 173.914C889.68 173.909 889.771 173.901 889.875 173.891V175C889.714 175.047 889.544 175.081 889.367 175.102C889.195 175.122 889.008 175.133 888.805 175.133C888.148 175.133 887.703 174.966 887.469 174.633C887.234 174.294 887.117 173.857 887.117 173.32V167.781H885.984V166.633H887.117V164.297ZM891.289 166.672H892.719V175H891.289V166.672ZM891.289 163.523H892.719V165.117H891.289V163.523ZM898.172 174.094C899.104 174.094 899.742 173.742 900.086 173.039C900.435 172.331 900.609 171.544 900.609 170.68C900.609 169.898 900.484 169.263 900.234 168.773C899.839 168.003 899.156 167.617 898.188 167.617C897.328 167.617 896.703 167.945 896.312 168.602C895.922 169.258 895.727 170.049 895.727 170.977C895.727 171.867 895.922 172.609 896.312 173.203C896.703 173.797 897.323 174.094 898.172 174.094ZM898.227 166.391C899.305 166.391 900.216 166.75 900.961 167.469C901.706 168.188 902.078 169.245 902.078 170.641C902.078 171.99 901.75 173.104 901.094 173.984C900.438 174.865 899.419 175.305 898.039 175.305C896.888 175.305 895.974 174.917 895.297 174.141C894.62 173.359 894.281 172.312 894.281 171C894.281 169.594 894.638 168.474 895.352 167.641C896.065 166.807 897.023 166.391 898.227 166.391ZM903.758 166.633H905.094V167.82C905.49 167.331 905.909 166.979 906.352 166.766C906.794 166.552 907.286 166.445 907.828 166.445C909.016 166.445 909.818 166.859 910.234 167.688C910.464 168.141 910.578 168.789 910.578 169.633V175H909.148V169.727C909.148 169.216 909.073 168.805 908.922 168.492C908.672 167.971 908.219 167.711 907.562 167.711C907.229 167.711 906.956 167.745 906.742 167.812C906.357 167.927 906.018 168.156 905.727 168.5C905.492 168.776 905.339 169.062 905.266 169.359C905.198 169.651 905.164 170.07 905.164 170.617V175H903.758V166.633Z" fill="#2B2B27"/>
<path d="M1026.67 125C1034.95 125 1041.67 118.284 1041.67 110C1041.67 101.716 1034.95 95 1026.67 95C1018.38 95 1011.67 101.716 1011.67 110C1011.67 118.284 1018.38 125 1026.67 125Z" fill="#41413C"/>
<path d="M1027.42 105.191L1024.43 110.199H1027.42V105.191ZM1027.21 104.023H1028.69V110.199H1029.95V111.24H1028.69V113.5H1027.42V111.24H1023.4V110.028L1027.21 104.023Z" fill="#EDEDEA"/>
<path d="M1100 150H953.333C948.915 150 945.333 153.582 945.333 158V184C945.333 188.418 948.915 192 953.333 192H1100C1104.42 192 1108 188.418 1108 184V158C1108 153.582 1104.42 150 1100 150Z" fill="#41413C"/>
<path d="M998.901 163.211C1000.35 163.211 1001.48 163.594 1002.28 164.359C1003.09 165.125 1003.53 165.995 1003.62 166.969H1002.1C1001.93 166.229 1001.59 165.643 1001.07 165.211C1000.56 164.779 999.844 164.562 998.917 164.562C997.786 164.562 996.872 164.961 996.174 165.758C995.482 166.549 995.135 167.766 995.135 169.406C995.135 170.75 995.448 171.841 996.073 172.68C996.703 173.513 997.641 173.93 998.885 173.93C1000.03 173.93 1000.9 173.49 1001.5 172.609C1001.82 172.146 1002.06 171.536 1002.21 170.781H1003.73C1003.59 171.99 1003.15 173.003 1002.39 173.82C1001.47 174.805 1000.24 175.297 998.698 175.297C997.365 175.297 996.245 174.893 995.339 174.086C994.146 173.018 993.549 171.37 993.549 169.141C993.549 167.448 993.997 166.06 994.893 164.977C995.862 163.799 997.198 163.211 998.901 163.211ZM1005.44 163.484H1006.85V167.766C1007.18 167.344 1007.48 167.047 1007.74 166.875C1008.2 166.578 1008.76 166.43 1009.44 166.43C1010.65 166.43 1011.48 166.854 1011.91 167.703C1012.14 168.167 1012.26 168.81 1012.26 169.633V175H1010.82V169.727C1010.82 169.112 1010.74 168.661 1010.58 168.375C1010.33 167.917 1009.85 167.688 1009.14 167.688C1008.56 167.688 1008.03 167.888 1007.56 168.289C1007.08 168.69 1006.85 169.448 1006.85 170.562V175H1005.44V163.484ZM1017.83 166.445C1018.42 166.445 1019 166.586 1019.56 166.867C1020.11 167.143 1020.54 167.503 1020.83 167.945C1021.11 168.367 1021.3 168.859 1021.39 169.422C1021.48 169.807 1021.52 170.422 1021.52 171.266H1015.39C1015.41 172.115 1015.61 172.797 1015.99 173.312C1016.36 173.823 1016.94 174.078 1017.73 174.078C1018.46 174.078 1019.05 173.836 1019.49 173.352C1019.74 173.07 1019.91 172.745 1020.02 172.375H1021.4C1021.36 172.682 1021.24 173.026 1021.03 173.406C1020.83 173.781 1020.6 174.089 1020.35 174.328C1019.92 174.745 1019.39 175.026 1018.76 175.172C1018.42 175.255 1018.04 175.297 1017.61 175.297C1016.57 175.297 1015.69 174.919 1014.96 174.164C1014.24 173.404 1013.88 172.341 1013.88 170.977C1013.88 169.633 1014.24 168.542 1014.97 167.703C1015.7 166.865 1016.65 166.445 1017.83 166.445ZM1020.07 170.148C1020.02 169.539 1019.88 169.052 1019.67 168.688C1019.29 168.01 1018.65 167.672 1017.74 167.672C1017.1 167.672 1016.56 167.906 1016.12 168.375C1015.68 168.839 1015.45 169.43 1015.42 170.148H1020.07ZM1026.48 166.391C1027.42 166.391 1028.19 166.62 1028.78 167.078C1029.37 167.536 1029.73 168.326 1029.85 169.445H1028.48C1028.4 168.93 1028.21 168.503 1027.91 168.164C1027.61 167.82 1027.14 167.648 1026.48 167.648C1025.58 167.648 1024.94 168.086 1024.56 168.961C1024.31 169.529 1024.18 170.229 1024.18 171.062C1024.18 171.901 1024.36 172.607 1024.71 173.18C1025.07 173.753 1025.63 174.039 1026.39 174.039C1026.97 174.039 1027.43 173.862 1027.77 173.508C1028.11 173.148 1028.35 172.659 1028.48 172.039H1029.85C1029.69 173.148 1029.3 173.961 1028.67 174.477C1028.05 174.987 1027.25 175.242 1026.28 175.242C1025.18 175.242 1024.31 174.844 1023.66 174.047C1023.01 173.245 1022.68 172.245 1022.68 171.047C1022.68 169.578 1023.04 168.435 1023.75 167.617C1024.47 166.799 1025.38 166.391 1026.48 166.391ZM1031.22 163.523H1032.57V170.188L1036.18 166.633H1037.98L1034.78 169.766L1038.16 175H1036.36L1033.75 170.781L1032.57 171.859V175H1031.22V163.523ZM1042.57 174.094C1043.51 174.094 1044.14 173.742 1044.49 173.039C1044.84 172.331 1045.01 171.544 1045.01 170.68C1045.01 169.898 1044.89 169.263 1044.64 168.773C1044.24 168.003 1043.56 167.617 1042.59 167.617C1041.73 167.617 1041.1 167.945 1040.71 168.602C1040.32 169.258 1040.13 170.049 1040.13 170.977C1040.13 171.867 1040.32 172.609 1040.71 173.203C1041.1 173.797 1041.72 174.094 1042.57 174.094ZM1042.63 166.391C1043.71 166.391 1044.62 166.75 1045.36 167.469C1046.11 168.188 1046.48 169.245 1046.48 170.641C1046.48 171.99 1046.15 173.104 1045.49 173.984C1044.84 174.865 1043.82 175.305 1042.44 175.305C1041.29 175.305 1040.38 174.917 1039.7 174.141C1039.02 173.359 1038.68 172.312 1038.68 171C1038.68 169.594 1039.04 168.474 1039.75 167.641C1040.47 166.807 1041.42 166.391 1042.63 166.391ZM1049.57 166.633V172.188C1049.57 172.615 1049.63 172.964 1049.77 173.234C1050.02 173.734 1050.48 173.984 1051.17 173.984C1052.15 173.984 1052.81 173.547 1053.17 172.672C1053.36 172.203 1053.46 171.56 1053.46 170.742V166.633H1054.86V175H1053.53L1053.55 173.766C1053.37 174.083 1053.14 174.352 1052.87 174.57C1052.33 175.008 1051.68 175.227 1050.92 175.227C1049.72 175.227 1048.91 174.828 1048.48 174.031C1048.24 173.604 1048.13 173.034 1048.13 172.32V166.633H1049.57ZM1057.35 164.297H1058.77V166.633H1060.1V167.781H1058.77V173.242C1058.77 173.534 1058.87 173.729 1059.07 173.828C1059.17 173.885 1059.36 173.914 1059.61 173.914C1059.68 173.914 1059.75 173.914 1059.83 173.914C1059.91 173.909 1060 173.901 1060.1 173.891V175C1059.94 175.047 1059.77 175.081 1059.6 175.102C1059.42 175.122 1059.24 175.133 1059.03 175.133C1058.38 175.133 1057.93 174.966 1057.7 174.633C1057.46 174.294 1057.35 173.857 1057.35 173.32V167.781H1056.21V166.633H1057.35V164.297Z" fill="#EDEDEA"/>
</g>
<defs>
<clipPath id="clip0_3369_35019">
<rect width="1160" height="250" fill="white"/>
</clipPath>
</defs>
</svg>
