<svg width="518" height="342" viewBox="0 0 518 342" fill="none" xmlns="http://www.w3.org/2000/svg">
<rect x="160.5" y="0.5" width="197" height="31" rx="7.5" fill="#F8F8F8"/>
<rect x="160.5" y="0.5" width="197" height="31" rx="7.5" stroke="#EFEFEF"/>
<path d="M208.773 11.1136V9.86364H217.5V11.1136H213.841V21.5H212.432V11.1136H208.773ZM218.587 21.5V12.7727H219.882V14.0909H219.973C220.132 13.6591 220.42 13.3087 220.837 13.0398C221.253 12.7708 221.723 12.6364 222.246 12.6364C222.344 12.6364 222.467 12.6383 222.615 12.642C222.763 12.6458 222.875 12.6515 222.95 12.6591V14.0227C222.905 14.0114 222.801 13.9943 222.638 13.9716C222.479 13.9451 222.31 13.9318 222.132 13.9318C221.708 13.9318 221.329 14.0208 220.996 14.1989C220.666 14.3731 220.405 14.6155 220.212 14.9261C220.022 15.233 219.928 15.5833 219.928 15.9773V21.5H218.587ZM224.54 21.5V12.7727H225.881V21.5H224.54ZM225.222 11.3182C224.96 11.3182 224.735 11.2292 224.545 11.0511C224.36 10.8731 224.267 10.6591 224.267 10.4091C224.267 10.1591 224.36 9.94508 224.545 9.76705C224.735 9.58902 224.96 9.5 225.222 9.5C225.483 9.5 225.706 9.58902 225.892 9.76705C226.081 9.94508 226.176 10.1591 226.176 10.4091C226.176 10.6591 226.081 10.8731 225.892 11.0511C225.706 11.2292 225.483 11.3182 225.222 11.3182ZM228.337 24.7727V12.7727H229.632V14.1591H229.791C229.89 14.0076 230.026 13.8144 230.2 13.5795C230.378 13.3409 230.632 13.1288 230.962 12.9432C231.295 12.7538 231.746 12.6591 232.314 12.6591C233.049 12.6591 233.696 12.8428 234.257 13.2102C234.818 13.5777 235.255 14.0985 235.57 14.7727C235.884 15.447 236.041 16.2424 236.041 17.1591C236.041 18.0833 235.884 18.8845 235.57 19.5625C235.255 20.2367 234.82 20.7595 234.263 21.1307C233.706 21.4981 233.064 21.6818 232.337 21.6818C231.776 21.6818 231.327 21.589 230.99 21.4034C230.653 21.214 230.393 21 230.212 20.7614C230.03 20.5189 229.89 20.3182 229.791 20.1591H229.678V24.7727H228.337ZM229.655 17.1364C229.655 17.7955 229.751 18.3769 229.945 18.8807C230.138 19.3807 230.42 19.7727 230.791 20.0568C231.162 20.3371 231.617 20.4773 232.155 20.4773C232.715 20.4773 233.183 20.3295 233.558 20.0341C233.937 19.7348 234.221 19.3333 234.411 18.8295C234.604 18.322 234.7 17.7576 234.7 17.1364C234.7 16.5227 234.606 15.9697 234.416 15.4773C234.231 14.9811 233.948 14.589 233.57 14.3011C233.195 14.0095 232.723 13.8636 232.155 13.8636C231.609 13.8636 231.151 14.0019 230.78 14.2784C230.409 14.5511 230.128 14.9337 229.939 15.4261C229.75 15.9148 229.655 16.4848 229.655 17.1364ZM242.587 21.5V12.7727H243.928V21.5H242.587ZM243.268 11.3182C243.007 11.3182 242.782 11.2292 242.592 11.0511C242.407 10.8731 242.314 10.6591 242.314 10.4091C242.314 10.1591 242.407 9.94508 242.592 9.76705C242.782 9.58902 243.007 9.5 243.268 9.5C243.53 9.5 243.753 9.58902 243.939 9.76705C244.128 9.94508 244.223 10.1591 244.223 10.4091C244.223 10.6591 244.128 10.8731 243.939 11.0511C243.753 11.2292 243.53 11.3182 243.268 11.3182ZM246.384 21.5V12.7727H247.679V14.1364H247.793C247.974 13.6705 248.268 13.3087 248.673 13.0511C249.079 12.7898 249.565 12.6591 250.134 12.6591C250.709 12.6591 251.188 12.7898 251.571 13.0511C251.957 13.3087 252.259 13.6705 252.474 14.1364H252.565C252.789 13.6856 253.124 13.3277 253.571 13.0625C254.018 12.7936 254.554 12.6591 255.179 12.6591C255.959 12.6591 256.598 12.9034 257.094 13.392C257.59 13.8769 257.838 14.6326 257.838 15.6591V21.5H256.497V15.6591C256.497 15.0152 256.321 14.5549 255.969 14.2784C255.616 14.0019 255.202 13.8636 254.724 13.8636C254.111 13.8636 253.635 14.0492 253.298 14.4205C252.961 14.7879 252.793 15.2538 252.793 15.8182V21.5H251.429V15.5227C251.429 15.0265 251.268 14.6269 250.946 14.3239C250.624 14.017 250.209 13.8636 249.702 13.8636C249.353 13.8636 249.027 13.9564 248.724 14.142C248.425 14.3277 248.183 14.5852 247.997 14.9148C247.815 15.2405 247.724 15.6174 247.724 16.0455V21.5H246.384ZM260.29 24.7727V12.7727H261.585V14.1591H261.744C261.843 14.0076 261.979 13.8144 262.153 13.5795C262.331 13.3409 262.585 13.1288 262.915 12.9432C263.248 12.7538 263.699 12.6591 264.267 12.6591C265.002 12.6591 265.65 12.8428 266.21 13.2102C266.771 13.5777 267.208 14.0985 267.523 14.7727C267.837 15.447 267.994 16.2424 267.994 17.1591C267.994 18.0833 267.837 18.8845 267.523 19.5625C267.208 20.2367 266.773 20.7595 266.216 21.1307C265.659 21.4981 265.017 21.6818 264.29 21.6818C263.729 21.6818 263.28 21.589 262.943 21.4034C262.606 21.214 262.347 21 262.165 20.7614C261.983 20.5189 261.843 20.3182 261.744 20.1591H261.631V24.7727H260.29ZM261.608 17.1364C261.608 17.7955 261.705 18.3769 261.898 18.8807C262.091 19.3807 262.373 19.7727 262.744 20.0568C263.116 20.3371 263.57 20.4773 264.108 20.4773C264.669 20.4773 265.136 20.3295 265.511 20.0341C265.89 19.7348 266.174 19.3333 266.364 18.8295C266.557 18.322 266.653 17.7576 266.653 17.1364C266.653 16.5227 266.559 15.9697 266.369 15.4773C266.184 14.9811 265.902 14.589 265.523 14.3011C265.148 14.0095 264.676 13.8636 264.108 13.8636C263.563 13.8636 263.104 14.0019 262.733 14.2784C262.362 14.5511 262.081 14.9337 261.892 15.4261C261.703 15.9148 261.608 16.4848 261.608 17.1364ZM273.585 21.6818C272.797 21.6818 272.106 21.4943 271.511 21.1193C270.92 20.7443 270.458 20.2197 270.125 19.5455C269.795 18.8712 269.631 18.0833 269.631 17.1818C269.631 16.2727 269.795 15.4792 270.125 14.8011C270.458 14.1231 270.92 13.5966 271.511 13.2216C272.106 12.8466 272.797 12.6591 273.585 12.6591C274.373 12.6591 275.063 12.8466 275.653 13.2216C276.248 13.5966 276.71 14.1231 277.04 14.8011C277.373 15.4792 277.54 16.2727 277.54 17.1818C277.54 18.0833 277.373 18.8712 277.04 19.5455C276.71 20.2197 276.248 20.7443 275.653 21.1193C275.063 21.4943 274.373 21.6818 273.585 21.6818ZM273.585 20.4773C274.184 20.4773 274.676 20.3239 275.062 20.017C275.449 19.7102 275.735 19.3068 275.92 18.8068C276.106 18.3068 276.199 17.7652 276.199 17.1818C276.199 16.5985 276.106 16.0549 275.92 15.5511C275.735 15.0473 275.449 14.6402 275.062 14.3295C274.676 14.0189 274.184 13.8636 273.585 13.8636C272.987 13.8636 272.494 14.0189 272.108 14.3295C271.722 14.6402 271.436 15.0473 271.25 15.5511C271.064 16.0549 270.972 16.5985 270.972 17.1818C270.972 17.7652 271.064 18.3068 271.25 18.8068C271.436 19.3068 271.722 19.7102 272.108 20.017C272.494 20.3239 272.987 20.4773 273.585 20.4773ZM279.587 21.5V12.7727H280.882V14.0909H280.973C281.132 13.6591 281.42 13.3087 281.837 13.0398C282.253 12.7708 282.723 12.6364 283.246 12.6364C283.344 12.6364 283.467 12.6383 283.615 12.642C283.763 12.6458 283.875 12.6515 283.95 12.6591V14.0227C283.905 14.0114 283.801 13.9943 283.638 13.9716C283.479 13.9451 283.31 13.9318 283.132 13.9318C282.708 13.9318 282.329 14.0208 281.996 14.1989C281.666 14.3731 281.405 14.6155 281.212 14.9261C281.022 15.233 280.928 15.5833 280.928 15.9773V21.5H279.587ZM289.882 12.7727V13.9091H285.359V12.7727H289.882ZM286.678 10.6818H288.018V19C288.018 19.3788 288.073 19.6629 288.183 19.8523C288.297 20.0379 288.441 20.1629 288.615 20.2273C288.793 20.2879 288.981 20.3182 289.178 20.3182C289.325 20.3182 289.446 20.3106 289.541 20.2955C289.636 20.2765 289.712 20.2614 289.768 20.25L290.041 21.4545C289.95 21.4886 289.823 21.5227 289.661 21.5568C289.498 21.5947 289.291 21.6136 289.041 21.6136C288.662 21.6136 288.291 21.5322 287.928 21.3693C287.568 21.2064 287.268 20.9583 287.03 20.625C286.795 20.2917 286.678 19.8712 286.678 19.3636V10.6818ZM295.464 21.6818C294.624 21.6818 293.898 21.4962 293.288 21.125C292.682 20.75 292.214 20.2273 291.885 19.5568C291.559 18.8826 291.396 18.0985 291.396 17.2045C291.396 16.3106 291.559 15.5227 291.885 14.8409C292.214 14.1553 292.673 13.6212 293.26 13.2386C293.851 12.8523 294.54 12.6591 295.328 12.6591C295.783 12.6591 296.232 12.7348 296.675 12.8864C297.118 13.0379 297.521 13.2841 297.885 13.625C298.249 13.9621 298.538 14.4091 298.754 14.9659C298.97 15.5227 299.078 16.2083 299.078 17.0227V17.5909H292.351V16.4318H297.714C297.714 15.9394 297.616 15.5 297.419 15.1136C297.226 14.7273 296.949 14.4223 296.589 14.1989C296.233 13.9754 295.813 13.8636 295.328 13.8636C294.794 13.8636 294.332 13.9962 293.942 14.2614C293.555 14.5227 293.258 14.8636 293.05 15.2841C292.841 15.7045 292.737 16.1553 292.737 16.6364V17.4091C292.737 18.0682 292.851 18.6269 293.078 19.0852C293.309 19.5398 293.629 19.8864 294.038 20.125C294.447 20.3598 294.923 20.4773 295.464 20.4773C295.817 20.4773 296.135 20.428 296.419 20.3295C296.707 20.2273 296.955 20.0758 297.163 19.875C297.372 19.6705 297.533 19.4167 297.646 19.1136L298.942 19.4773C298.805 19.9167 298.576 20.303 298.254 20.6364C297.932 20.9659 297.535 21.2235 297.061 21.4091C296.588 21.5909 296.055 21.6818 295.464 21.6818ZM304.413 21.6818C303.686 21.6818 303.044 21.4981 302.487 21.1307C301.93 20.7595 301.495 20.2367 301.18 19.5625C300.866 18.8845 300.709 18.0833 300.709 17.1591C300.709 16.2424 300.866 15.447 301.18 14.7727C301.495 14.0985 301.932 13.5777 302.493 13.2102C303.054 12.8428 303.701 12.6591 304.436 12.6591C305.004 12.6591 305.453 12.7538 305.783 12.9432C306.116 13.1288 306.37 13.3409 306.544 13.5795C306.722 13.8144 306.86 14.0076 306.959 14.1591H307.072V9.86364H308.413V21.5H307.118V20.1591H306.959C306.86 20.3182 306.72 20.5189 306.538 20.7614C306.357 21 306.097 21.214 305.76 21.4034C305.423 21.589 304.974 21.6818 304.413 21.6818ZM304.595 20.4773C305.133 20.4773 305.588 20.3371 305.959 20.0568C306.33 19.7727 306.612 19.3807 306.805 18.8807C306.999 18.3769 307.095 17.7955 307.095 17.1364C307.095 16.4848 307 15.9148 306.811 15.4261C306.622 14.9337 306.341 14.5511 305.97 14.2784C305.599 14.0019 305.141 13.8636 304.595 13.8636C304.027 13.8636 303.554 14.0095 303.175 14.3011C302.8 14.589 302.518 14.9811 302.328 15.4773C302.143 15.9697 302.05 16.5227 302.05 17.1364C302.05 17.7576 302.144 18.322 302.334 18.8295C302.527 19.3333 302.811 19.7348 303.186 20.0341C303.565 20.3295 304.035 20.4773 304.595 20.4773Z" fill="black"/>
<path fill-rule="evenodd" clip-rule="evenodd" d="M259.599 34C259.748 34 259.869 34.0694 259.869 34.1551L259.869 54.962C259.869 55.0476 259.748 55.117 259.599 55.117C259.449 55.117 259.328 55.0476 259.328 54.962L259.328 34.1551C259.328 34.0694 259.449 34 259.599 34Z" fill="#505050"/>
<path fill-rule="evenodd" clip-rule="evenodd" d="M262.765 49.5321C262.931 49.5716 263.032 49.7317 262.991 49.8897C262.893 50.2629 262.794 50.6352 262.695 51.007C262.159 53.029 261.626 55.0361 261.247 57.0801C261.23 57.1748 261.212 57.3034 261.19 57.4606C261.169 57.6077 261.145 57.7798 261.115 57.9725C261.055 58.3517 260.973 58.7851 260.853 59.1422C260.794 59.3202 260.72 59.4932 260.627 59.6349C260.537 59.7713 260.401 59.9188 260.201 59.9762C259.982 60.0391 259.773 59.9707 259.603 59.8474C259.438 59.7286 259.281 59.542 259.124 59.299C258.501 58.3308 258.039 57.2521 257.62 56.1753C257.502 55.8736 257.388 55.573 257.276 55.2747C256.982 54.4994 256.695 53.7397 256.364 53.0176C256.348 52.9828 256.313 52.9044 256.264 52.7949C256.131 52.494 255.893 51.9582 255.656 51.4466C255.495 51.1009 255.341 50.7792 255.228 50.5668C255.201 50.5177 255.179 50.4779 255.161 50.4467C255.065 50.3966 255 50.2995 255 50.1879C255 50.1684 255 50.1062 255.033 50.0401C255.051 50.0025 255.089 49.9447 255.163 49.9042C255.242 49.8608 255.324 49.858 255.387 49.8704C255.484 49.8896 255.544 49.9465 255.558 49.9598L255.559 49.9606C255.582 49.9828 255.601 50.006 255.614 50.0233C255.664 50.0891 255.722 50.1914 255.78 50.3002C255.901 50.5277 256.061 50.8619 256.222 51.2082C256.463 51.7265 256.718 52.3015 256.849 52.5958C256.891 52.6911 256.92 52.7569 256.932 52.7818C257.271 53.5229 257.569 54.3105 257.865 55.0925C257.977 55.3868 258.088 55.6804 258.2 55.9704C258.617 57.04 259.062 58.0739 259.652 58.9908C259.792 59.2078 259.901 59.323 259.977 59.3774C260.002 59.3953 260.018 59.4036 260.028 59.4074C260.04 59.3989 260.066 59.3761 260.103 59.3209C260.157 59.239 260.211 59.1187 260.263 58.9632C260.367 58.6533 260.443 58.2587 260.502 57.8847C260.528 57.7207 260.552 57.5538 260.573 57.4035C260.597 57.229 260.619 57.0769 260.637 56.9777C261.02 54.9106 261.559 52.8796 262.096 50.8581C262.194 50.4874 262.292 50.1169 262.39 49.7467C262.431 49.5887 262.599 49.4926 262.765 49.5321ZM260.039 59.4103C260.039 59.4105 260.037 59.4105 260.034 59.4097C260.037 59.4096 260.039 59.41 260.039 59.4103ZM255.11 50.3666C255.11 50.3666 255.11 50.3669 255.111 50.3674C255.11 50.3669 255.11 50.3667 255.11 50.3666Z" fill="#505050"/>
<rect x="160.5" y="62.5" width="197" height="31" rx="7.5" fill="#F8F8F8"/>
<rect x="160.5" y="62.5" width="197" height="31" rx="7.5" stroke="#EFEFEF"/>
<path d="M177.909 83.5V71.8636H181.841C182.754 71.8636 183.5 72.0284 184.08 72.358C184.663 72.6837 185.095 73.125 185.375 73.6818C185.655 74.2386 185.795 74.8598 185.795 75.5455C185.795 76.2311 185.655 76.8542 185.375 77.4148C185.098 77.9754 184.67 78.4223 184.091 78.7557C183.511 79.0852 182.769 79.25 181.864 79.25H179.045V78H181.818C182.443 78 182.945 77.892 183.324 77.6761C183.703 77.4602 183.977 77.1686 184.148 76.8011C184.322 76.4299 184.409 76.0114 184.409 75.5455C184.409 75.0795 184.322 74.6629 184.148 74.2955C183.977 73.928 183.701 73.6402 183.318 73.4318C182.936 73.2197 182.428 73.1136 181.795 73.1136H179.318V83.5H177.909ZM189.224 71.8636V83.5H187.884V71.8636H189.224ZM194.249 83.7045C193.696 83.7045 193.194 83.6004 192.743 83.392C192.292 83.1799 191.934 82.875 191.669 82.4773C191.404 82.0758 191.271 81.5909 191.271 81.0227C191.271 80.5227 191.37 80.1174 191.567 79.8068C191.764 79.4924 192.027 79.2462 192.357 79.0682C192.686 78.8902 193.05 78.7576 193.447 78.6705C193.849 78.5795 194.252 78.5076 194.658 78.4545C195.188 78.3864 195.618 78.3352 195.947 78.3011C196.281 78.2633 196.523 78.2008 196.675 78.1136C196.83 78.0265 196.908 77.875 196.908 77.6591V77.6136C196.908 77.053 196.754 76.6174 196.447 76.3068C196.144 75.9962 195.684 75.8409 195.067 75.8409C194.427 75.8409 193.925 75.9811 193.561 76.2614C193.197 76.5417 192.942 76.8409 192.794 77.1591L191.521 76.7045C191.749 76.1742 192.052 75.7614 192.43 75.4659C192.813 75.1667 193.23 74.9583 193.68 74.8409C194.135 74.7197 194.582 74.6591 195.021 74.6591C195.302 74.6591 195.624 74.6932 195.987 74.7614C196.355 74.8258 196.709 74.9602 197.05 75.1648C197.394 75.3693 197.68 75.678 197.908 76.0909C198.135 76.5038 198.249 77.0568 198.249 77.75V83.5H196.908V82.3182H196.839C196.749 82.5076 196.597 82.7102 196.385 82.9261C196.173 83.142 195.891 83.3258 195.538 83.4773C195.186 83.6288 194.756 83.7045 194.249 83.7045ZM194.453 82.5C194.983 82.5 195.43 82.3958 195.794 82.1875C196.161 81.9792 196.438 81.7102 196.624 81.3807C196.813 81.0511 196.908 80.7045 196.908 80.3409V79.1136C196.851 79.1818 196.726 79.2443 196.533 79.3011C196.343 79.3542 196.124 79.4015 195.874 79.4432C195.627 79.4811 195.387 79.5152 195.152 79.5455C194.921 79.572 194.733 79.5947 194.589 79.6136C194.241 79.6591 193.915 79.733 193.612 79.8352C193.313 79.9337 193.071 80.0833 192.885 80.2841C192.703 80.4811 192.612 80.75 192.612 81.0909C192.612 81.5568 192.785 81.9091 193.129 82.1477C193.478 82.3826 193.919 82.5 194.453 82.5ZM204.241 83.6818C203.423 83.6818 202.719 83.4886 202.128 83.1023C201.537 82.7159 201.082 82.1837 200.764 81.5057C200.446 80.8277 200.287 80.053 200.287 79.1818C200.287 78.2955 200.45 77.5133 200.776 76.8352C201.105 76.1534 201.563 75.6212 202.151 75.2386C202.741 74.8523 203.431 74.6591 204.219 74.6591C204.832 74.6591 205.385 74.7727 205.878 75C206.37 75.2273 206.774 75.5455 207.088 75.9545C207.402 76.3636 207.598 76.8409 207.673 77.3864H206.332C206.23 76.9886 206.003 76.6364 205.651 76.3295C205.302 76.0189 204.832 75.8636 204.241 75.8636C203.719 75.8636 203.26 76 202.866 76.2727C202.476 76.5417 202.171 76.9223 201.952 77.4148C201.736 77.9034 201.628 78.4773 201.628 79.1364C201.628 79.8106 201.734 80.3977 201.946 80.8977C202.162 81.3977 202.465 81.786 202.855 82.0625C203.249 82.339 203.711 82.4773 204.241 82.4773C204.59 82.4773 204.906 82.4167 205.19 82.2955C205.474 82.1742 205.715 82 205.912 81.7727C206.109 81.5455 206.249 81.2727 206.332 80.9545H207.673C207.598 81.4697 207.41 81.9337 207.111 82.3466C206.815 82.7557 206.423 83.0814 205.935 83.3239C205.45 83.5625 204.885 83.6818 204.241 83.6818ZM213.293 83.6818C212.452 83.6818 211.726 83.4962 211.116 83.125C210.51 82.75 210.043 82.2273 209.713 81.5568C209.387 80.8826 209.224 80.0985 209.224 79.2045C209.224 78.3106 209.387 77.5227 209.713 76.8409C210.043 76.1553 210.501 75.6212 211.088 75.2386C211.679 74.8523 212.368 74.6591 213.156 74.6591C213.611 74.6591 214.06 74.7348 214.503 74.8864C214.946 75.0379 215.349 75.2841 215.713 75.625C216.077 75.9621 216.366 76.4091 216.582 76.9659C216.798 77.5227 216.906 78.2083 216.906 79.0227V79.5909H210.179V78.4318H215.543C215.543 77.9394 215.444 77.5 215.247 77.1136C215.054 76.7273 214.777 76.4223 214.418 76.1989C214.062 75.9754 213.641 75.8636 213.156 75.8636C212.622 75.8636 212.16 75.9962 211.77 76.2614C211.384 76.5227 211.086 76.8636 210.878 77.2841C210.67 77.7045 210.565 78.1553 210.565 78.6364V79.4091C210.565 80.0682 210.679 80.6269 210.906 81.0852C211.137 81.5398 211.457 81.8864 211.866 82.125C212.276 82.3598 212.751 82.4773 213.293 82.4773C213.645 82.4773 213.963 82.428 214.247 82.3295C214.535 82.2273 214.783 82.0758 214.991 81.875C215.2 81.6705 215.361 81.4167 215.474 81.1136L216.77 81.4773C216.634 81.9167 216.404 82.303 216.082 82.6364C215.76 82.9659 215.363 83.2235 214.889 83.4091C214.416 83.5909 213.884 83.6818 213.293 83.6818ZM220.287 78.25V83.5H218.946V71.8636H220.287V76.1364H220.401C220.605 75.6856 220.912 75.3277 221.321 75.0625C221.734 74.7936 222.283 74.6591 222.969 74.6591C223.563 74.6591 224.084 74.7784 224.531 75.017C224.978 75.2519 225.325 75.6136 225.571 76.1023C225.821 76.5871 225.946 77.2045 225.946 77.9545V83.5H224.605V78.0455C224.605 77.3523 224.425 76.8163 224.065 76.4375C223.709 76.0549 223.215 75.8636 222.582 75.8636C222.143 75.8636 221.749 75.9564 221.401 76.142C221.056 76.3277 220.783 76.5985 220.582 76.9545C220.385 77.3106 220.287 77.7424 220.287 78.25ZM231.945 83.6818C231.157 83.6818 230.465 83.4943 229.871 83.1193C229.28 82.7443 228.818 82.2197 228.484 81.5455C228.155 80.8712 227.99 80.0833 227.99 79.1818C227.99 78.2727 228.155 77.4792 228.484 76.8011C228.818 76.1231 229.28 75.5966 229.871 75.2216C230.465 74.8466 231.157 74.6591 231.945 74.6591C232.732 74.6591 233.422 74.8466 234.013 75.2216C234.607 75.5966 235.07 76.1231 235.399 76.8011C235.732 77.4792 235.899 78.2727 235.899 79.1818C235.899 80.0833 235.732 80.8712 235.399 81.5455C235.07 82.2197 234.607 82.7443 234.013 83.1193C233.422 83.4943 232.732 83.6818 231.945 83.6818ZM231.945 82.4773C232.543 82.4773 233.036 82.3239 233.422 82.017C233.808 81.7102 234.094 81.3068 234.28 80.8068C234.465 80.3068 234.558 79.7652 234.558 79.1818C234.558 78.5985 234.465 78.0549 234.28 77.5511C234.094 77.0473 233.808 76.6402 233.422 76.3295C233.036 76.0189 232.543 75.8636 231.945 75.8636C231.346 75.8636 230.854 76.0189 230.467 76.3295C230.081 76.6402 229.795 77.0473 229.609 77.5511C229.424 78.0549 229.331 78.5985 229.331 79.1818C229.331 79.7652 229.424 80.3068 229.609 80.8068C229.795 81.3068 230.081 81.7102 230.467 82.017C230.854 82.3239 231.346 82.4773 231.945 82.4773ZM239.287 71.8636V83.5H237.946V71.8636H239.287ZM245.038 83.6818C244.311 83.6818 243.669 83.4981 243.112 83.1307C242.555 82.7595 242.12 82.2367 241.805 81.5625C241.491 80.8845 241.334 80.0833 241.334 79.1591C241.334 78.2424 241.491 77.447 241.805 76.7727C242.12 76.0985 242.557 75.5777 243.118 75.2102C243.679 74.8428 244.326 74.6591 245.061 74.6591C245.629 74.6591 246.078 74.7538 246.408 74.9432C246.741 75.1288 246.995 75.3409 247.169 75.5795C247.347 75.8144 247.485 76.0076 247.584 76.1591H247.697V71.8636H249.038V83.5H247.743V82.1591H247.584C247.485 82.3182 247.345 82.5189 247.163 82.7614C246.982 83 246.722 83.214 246.385 83.4034C246.048 83.589 245.599 83.6818 245.038 83.6818ZM245.22 82.4773C245.758 82.4773 246.213 82.3371 246.584 82.0568C246.955 81.7727 247.237 81.3807 247.43 80.8807C247.624 80.3769 247.72 79.7955 247.72 79.1364C247.72 78.4848 247.625 77.9148 247.436 77.4261C247.247 76.9337 246.966 76.5511 246.595 76.2784C246.224 76.0019 245.766 75.8636 245.22 75.8636C244.652 75.8636 244.179 76.0095 243.8 76.3011C243.425 76.589 243.143 76.9811 242.953 77.4773C242.768 77.9697 242.675 78.5227 242.675 79.1364C242.675 79.7576 242.769 80.322 242.959 80.8295C243.152 81.3333 243.436 81.7348 243.811 82.0341C244.19 82.3295 244.66 82.4773 245.22 82.4773ZM255.339 83.6818C254.499 83.6818 253.773 83.4962 253.163 83.125C252.557 82.75 252.089 82.2273 251.76 81.5568C251.434 80.8826 251.271 80.0985 251.271 79.2045C251.271 78.3106 251.434 77.5227 251.76 76.8409C252.089 76.1553 252.548 75.6212 253.135 75.2386C253.726 74.8523 254.415 74.6591 255.203 74.6591C255.658 74.6591 256.107 74.7348 256.55 74.8864C256.993 75.0379 257.396 75.2841 257.76 75.625C258.124 75.9621 258.413 76.4091 258.629 76.9659C258.845 77.5227 258.953 78.2083 258.953 79.0227V79.5909H252.226V78.4318H257.589C257.589 77.9394 257.491 77.5 257.294 77.1136C257.101 76.7273 256.824 76.4223 256.464 76.1989C256.108 75.9754 255.688 75.8636 255.203 75.8636C254.669 75.8636 254.207 75.9962 253.817 76.2614C253.43 76.5227 253.133 76.8636 252.925 77.2841C252.716 77.7045 252.612 78.1553 252.612 78.6364V79.4091C252.612 80.0682 252.726 80.6269 252.953 81.0852C253.184 81.5398 253.504 81.8864 253.913 82.125C254.322 82.3598 254.798 82.4773 255.339 82.4773C255.692 82.4773 256.01 82.428 256.294 82.3295C256.582 82.2273 256.83 82.0758 257.038 81.875C257.247 81.6705 257.408 81.4167 257.521 81.1136L258.817 81.4773C258.68 81.9167 258.451 82.303 258.129 82.6364C257.807 82.9659 257.41 83.2235 256.936 83.4091C256.463 83.5909 255.93 83.6818 255.339 83.6818ZM260.993 83.5V74.7727H262.288V76.0909H262.379C262.538 75.6591 262.826 75.3087 263.243 75.0398C263.66 74.7708 264.129 74.6364 264.652 74.6364C264.75 74.6364 264.874 74.6383 265.021 74.642C265.169 74.6458 265.281 74.6515 265.357 74.6591V76.0227C265.311 76.0114 265.207 75.9943 265.044 75.9716C264.885 75.9451 264.716 75.9318 264.538 75.9318C264.114 75.9318 263.735 76.0208 263.402 76.1989C263.072 76.3731 262.811 76.6155 262.618 76.9261C262.429 77.233 262.334 77.5833 262.334 77.9773V83.5H260.993ZM271.446 83.5V74.7727H272.787V83.5H271.446ZM272.128 73.3182C271.866 73.3182 271.641 73.2292 271.452 73.0511C271.266 72.8731 271.173 72.6591 271.173 72.4091C271.173 72.1591 271.266 71.9451 271.452 71.767C271.641 71.589 271.866 71.5 272.128 71.5C272.389 71.5 272.613 71.589 272.798 71.767C272.988 71.9451 273.082 72.1591 273.082 72.4091C273.082 72.6591 272.988 72.8731 272.798 73.0511C272.613 73.2292 272.389 73.3182 272.128 73.3182ZM276.584 78.25V83.5H275.243V74.7727H276.538V76.1364H276.652C276.857 75.6932 277.167 75.3371 277.584 75.0682C278 74.7955 278.538 74.6591 279.197 74.6591C279.788 74.6591 280.305 74.7803 280.749 75.0227C281.192 75.2614 281.536 75.625 281.783 76.1136C282.029 76.5985 282.152 77.2121 282.152 77.9545V83.5H280.811V78.0455C280.811 77.3598 280.633 76.8258 280.277 76.4432C279.921 76.0568 279.432 75.8636 278.811 75.8636C278.383 75.8636 278 75.9564 277.663 76.142C277.33 76.3277 277.067 76.5985 276.874 76.9545C276.68 77.3106 276.584 77.7424 276.584 78.25ZM291.426 74.7727L288.199 83.5H286.835L283.608 74.7727H285.062L287.472 81.7273H287.562L289.972 74.7727H291.426ZM296.543 83.6818C295.702 83.6818 294.976 83.4962 294.366 83.125C293.76 82.75 293.293 82.2273 292.963 81.5568C292.637 80.8826 292.474 80.0985 292.474 79.2045C292.474 78.3106 292.637 77.5227 292.963 76.8409C293.293 76.1553 293.751 75.6212 294.338 75.2386C294.929 74.8523 295.618 74.6591 296.406 74.6591C296.861 74.6591 297.31 74.7348 297.753 74.8864C298.196 75.0379 298.599 75.2841 298.963 75.625C299.327 75.9621 299.616 76.4091 299.832 76.9659C300.048 77.5227 300.156 78.2083 300.156 79.0227V79.5909H293.429V78.4318H298.793C298.793 77.9394 298.694 77.5 298.497 77.1136C298.304 76.7273 298.027 76.4223 297.668 76.1989C297.312 75.9754 296.891 75.8636 296.406 75.8636C295.872 75.8636 295.41 75.9962 295.02 76.2614C294.634 76.5227 294.336 76.8636 294.128 77.2841C293.92 77.7045 293.815 78.1553 293.815 78.6364V79.4091C293.815 80.0682 293.929 80.6269 294.156 81.0852C294.387 81.5398 294.707 81.8864 295.116 82.125C295.526 82.3598 296.001 82.4773 296.543 82.4773C296.895 82.4773 297.213 82.428 297.497 82.3295C297.785 82.2273 298.033 82.0758 298.241 81.875C298.45 81.6705 298.611 81.4167 298.724 81.1136L300.02 81.4773C299.884 81.9167 299.654 82.303 299.332 82.6364C299.01 82.9659 298.613 83.2235 298.139 83.4091C297.666 83.5909 297.134 83.6818 296.543 83.6818ZM303.537 78.25V83.5H302.196V74.7727H303.491V76.1364H303.605C303.81 75.6932 304.12 75.3371 304.537 75.0682C304.954 74.7955 305.491 74.6591 306.151 74.6591C306.741 74.6591 307.259 74.7803 307.702 75.0227C308.145 75.2614 308.49 75.625 308.736 76.1136C308.982 76.5985 309.105 77.2121 309.105 77.9545V83.5H307.764V78.0455C307.764 77.3598 307.586 76.8258 307.23 76.4432C306.874 76.0568 306.385 75.8636 305.764 75.8636C305.336 75.8636 304.954 75.9564 304.616 76.142C304.283 76.3277 304.02 76.5985 303.827 76.9545C303.634 77.3106 303.537 77.7424 303.537 78.25ZM315.351 74.7727V75.9091H310.828V74.7727H315.351ZM312.146 72.6818H313.487V81C313.487 81.3788 313.542 81.6629 313.652 81.8523C313.766 82.0379 313.91 82.1629 314.084 82.2273C314.262 82.2879 314.449 82.3182 314.646 82.3182C314.794 82.3182 314.915 82.3106 315.01 82.2955C315.105 82.2765 315.18 82.2614 315.237 82.25L315.51 83.4545C315.419 83.4886 315.292 83.5227 315.129 83.5568C314.966 83.5947 314.76 83.6136 314.51 83.6136C314.131 83.6136 313.76 83.5322 313.396 83.3693C313.036 83.2064 312.737 82.9583 312.499 82.625C312.264 82.2917 312.146 81.8712 312.146 81.3636V72.6818ZM320.82 83.6818C320.032 83.6818 319.34 83.4943 318.746 83.1193C318.155 82.7443 317.693 82.2197 317.359 81.5455C317.03 80.8712 316.865 80.0833 316.865 79.1818C316.865 78.2727 317.03 77.4792 317.359 76.8011C317.693 76.1231 318.155 75.5966 318.746 75.2216C319.34 74.8466 320.032 74.6591 320.82 74.6591C321.607 74.6591 322.297 74.8466 322.888 75.2216C323.482 75.5966 323.945 76.1231 324.274 76.8011C324.607 77.4792 324.774 78.2727 324.774 79.1818C324.774 80.0833 324.607 80.8712 324.274 81.5455C323.945 82.2197 323.482 82.7443 322.888 83.1193C322.297 83.4943 321.607 83.6818 320.82 83.6818ZM320.82 82.4773C321.418 82.4773 321.911 82.3239 322.297 82.017C322.683 81.7102 322.969 81.3068 323.155 80.8068C323.34 80.3068 323.433 79.7652 323.433 79.1818C323.433 78.5985 323.34 78.0549 323.155 77.5511C322.969 77.0473 322.683 76.6402 322.297 76.3295C321.911 76.0189 321.418 75.8636 320.82 75.8636C320.221 75.8636 319.729 76.0189 319.342 76.3295C318.956 76.6402 318.67 77.0473 318.484 77.5511C318.299 78.0549 318.206 78.5985 318.206 79.1818C318.206 79.7652 318.299 80.3068 318.484 80.8068C318.67 81.3068 318.956 81.7102 319.342 82.017C319.729 82.3239 320.221 82.4773 320.82 82.4773ZM326.821 83.5V74.7727H328.116V76.0909H328.207C328.366 75.6591 328.654 75.3087 329.071 75.0398C329.488 74.7708 329.957 74.6364 330.48 74.6364C330.579 74.6364 330.702 74.6383 330.849 74.642C330.997 74.6458 331.109 74.6515 331.185 74.6591V76.0227C331.139 76.0114 331.035 75.9943 330.872 75.9716C330.713 75.9451 330.545 75.9318 330.366 75.9318C329.942 75.9318 329.563 76.0208 329.23 76.1989C328.901 76.3731 328.639 76.6155 328.446 76.9261C328.257 77.233 328.162 77.5833 328.162 77.9773V83.5H326.821ZM333.903 86.7727C333.676 86.7727 333.473 86.7538 333.295 86.7159C333.117 86.6818 332.994 86.6477 332.926 86.6136L333.267 85.4318C333.593 85.5152 333.881 85.5455 334.131 85.5227C334.381 85.5 334.602 85.3883 334.795 85.1875C334.992 84.9905 335.172 84.6705 335.335 84.2273L335.585 83.5455L332.358 74.7727H333.812L336.222 81.7273H336.312L338.722 74.7727H340.176L336.472 84.7727C336.305 85.2235 336.098 85.5966 335.852 85.892C335.606 86.1913 335.32 86.4129 334.994 86.5568C334.672 86.7008 334.309 86.7727 333.903 86.7727Z" fill="black"/>
<path fill-rule="evenodd" clip-rule="evenodd" d="M259.599 96C259.748 96 259.869 96.0694 259.869 96.1551L259.869 116.962C259.869 117.048 259.748 117.117 259.599 117.117C259.449 117.117 259.328 117.048 259.328 116.962L259.328 96.1551C259.328 96.0694 259.449 96 259.599 96Z" fill="#505050"/>
<path fill-rule="evenodd" clip-rule="evenodd" d="M262.765 111.532C262.931 111.572 263.032 111.732 262.991 111.89C262.893 112.263 262.794 112.635 262.695 113.007C262.159 115.029 261.626 117.036 261.247 119.08C261.23 119.175 261.212 119.303 261.19 119.461C261.169 119.608 261.145 119.78 261.115 119.972C261.055 120.352 260.973 120.785 260.853 121.142C260.794 121.32 260.72 121.493 260.627 121.635C260.537 121.771 260.401 121.919 260.201 121.976C259.982 122.039 259.773 121.971 259.603 121.847C259.438 121.729 259.281 121.542 259.124 121.299C258.501 120.331 258.039 119.252 257.62 118.175C257.502 117.874 257.388 117.573 257.276 117.275C256.982 116.499 256.695 115.74 256.364 115.018C256.348 114.983 256.313 114.904 256.264 114.795C256.131 114.494 255.893 113.958 255.656 113.447C255.495 113.101 255.341 112.779 255.228 112.567C255.201 112.518 255.179 112.478 255.161 112.447C255.065 112.397 255 112.3 255 112.188C255 112.168 255 112.106 255.033 112.04C255.051 112.002 255.089 111.945 255.163 111.904C255.242 111.861 255.324 111.858 255.387 111.87C255.484 111.89 255.544 111.947 255.558 111.96L255.559 111.961C255.582 111.983 255.601 112.006 255.614 112.023C255.664 112.089 255.722 112.191 255.78 112.3C255.901 112.528 256.061 112.862 256.222 113.208C256.463 113.726 256.718 114.302 256.849 114.596C256.891 114.691 256.92 114.757 256.932 114.782C257.271 115.523 257.569 116.31 257.865 117.092C257.977 117.387 258.088 117.68 258.2 117.97C258.617 119.04 259.062 120.074 259.652 120.991C259.792 121.208 259.901 121.323 259.977 121.377C260.002 121.395 260.018 121.404 260.028 121.407C260.04 121.399 260.066 121.376 260.103 121.321C260.157 121.239 260.211 121.119 260.263 120.963C260.367 120.653 260.443 120.259 260.502 119.885C260.528 119.721 260.552 119.554 260.573 119.404C260.597 119.229 260.619 119.077 260.637 118.978C261.02 116.911 261.559 114.88 262.096 112.858C262.194 112.487 262.292 112.117 262.39 111.747C262.431 111.589 262.599 111.493 262.765 111.532ZM260.039 121.41C260.039 121.41 260.037 121.41 260.034 121.41C260.037 121.41 260.039 121.41 260.039 121.41ZM255.11 112.367C255.11 112.367 255.11 112.367 255.111 112.367C255.11 112.367 255.11 112.367 255.11 112.367Z" fill="#505050"/>
<rect x="160.5" y="124.5" width="197" height="31" rx="7.5" fill="#F8F8F8"/>
<rect x="160.5" y="124.5" width="197" height="31" rx="7.5" stroke="#EFEFEF"/>
<path d="M192.409 145.5V133.864H196.341C197.254 133.864 198 134.028 198.58 134.358C199.163 134.684 199.595 135.125 199.875 135.682C200.155 136.239 200.295 136.86 200.295 137.545C200.295 138.231 200.155 138.854 199.875 139.415C199.598 139.975 199.17 140.422 198.591 140.756C198.011 141.085 197.269 141.25 196.364 141.25H193.545V140H196.318C196.943 140 197.445 139.892 197.824 139.676C198.203 139.46 198.477 139.169 198.648 138.801C198.822 138.43 198.909 138.011 198.909 137.545C198.909 137.08 198.822 136.663 198.648 136.295C198.477 135.928 198.201 135.64 197.818 135.432C197.436 135.22 196.928 135.114 196.295 135.114H193.818V145.5H192.409ZM202.384 145.5V136.773H203.679V138.091H203.77C203.929 137.659 204.217 137.309 204.634 137.04C205.05 136.771 205.52 136.636 206.043 136.636C206.141 136.636 206.264 136.638 206.412 136.642C206.56 136.646 206.671 136.652 206.747 136.659V138.023C206.702 138.011 206.598 137.994 206.435 137.972C206.276 137.945 206.107 137.932 205.929 137.932C205.505 137.932 205.126 138.021 204.793 138.199C204.463 138.373 204.202 138.616 204.009 138.926C203.819 139.233 203.724 139.583 203.724 139.977V145.5H202.384ZM211.616 145.682C210.829 145.682 210.137 145.494 209.543 145.119C208.952 144.744 208.49 144.22 208.156 143.545C207.827 142.871 207.662 142.083 207.662 141.182C207.662 140.273 207.827 139.479 208.156 138.801C208.49 138.123 208.952 137.597 209.543 137.222C210.137 136.847 210.829 136.659 211.616 136.659C212.404 136.659 213.094 136.847 213.685 137.222C214.279 137.597 214.741 138.123 215.071 138.801C215.404 139.479 215.571 140.273 215.571 141.182C215.571 142.083 215.404 142.871 215.071 143.545C214.741 144.22 214.279 144.744 213.685 145.119C213.094 145.494 212.404 145.682 211.616 145.682ZM211.616 144.477C212.215 144.477 212.707 144.324 213.094 144.017C213.48 143.71 213.766 143.307 213.952 142.807C214.137 142.307 214.23 141.765 214.23 141.182C214.23 140.598 214.137 140.055 213.952 139.551C213.766 139.047 213.48 138.64 213.094 138.33C212.707 138.019 212.215 137.864 211.616 137.864C211.018 137.864 210.526 138.019 210.139 138.33C209.753 138.64 209.467 139.047 209.281 139.551C209.096 140.055 209.003 140.598 209.003 141.182C209.003 141.765 209.096 142.307 209.281 142.807C209.467 143.307 209.753 143.71 210.139 144.017C210.526 144.324 211.018 144.477 211.616 144.477ZM224.442 136.773L221.214 145.5H219.851L216.624 136.773H218.078L220.487 143.727H220.578L222.987 136.773H224.442ZM226.212 145.5V136.773H227.553V145.5H226.212ZM226.893 135.318C226.632 135.318 226.407 135.229 226.217 135.051C226.032 134.873 225.939 134.659 225.939 134.409C225.939 134.159 226.032 133.945 226.217 133.767C226.407 133.589 226.632 133.5 226.893 133.5C227.155 133.5 227.378 133.589 227.564 133.767C227.753 133.945 227.848 134.159 227.848 134.409C227.848 134.659 227.753 134.873 227.564 135.051C227.378 135.229 227.155 135.318 226.893 135.318ZM233.304 145.682C232.577 145.682 231.935 145.498 231.378 145.131C230.821 144.759 230.385 144.237 230.071 143.562C229.757 142.884 229.599 142.083 229.599 141.159C229.599 140.242 229.757 139.447 230.071 138.773C230.385 138.098 230.823 137.578 231.384 137.21C231.944 136.843 232.592 136.659 233.327 136.659C233.895 136.659 234.344 136.754 234.673 136.943C235.007 137.129 235.26 137.341 235.435 137.58C235.613 137.814 235.751 138.008 235.849 138.159H235.963V133.864H237.304V145.5H236.009V144.159H235.849C235.751 144.318 235.611 144.519 235.429 144.761C235.247 145 234.988 145.214 234.651 145.403C234.313 145.589 233.865 145.682 233.304 145.682ZM233.486 144.477C234.024 144.477 234.478 144.337 234.849 144.057C235.221 143.773 235.503 143.381 235.696 142.881C235.889 142.377 235.986 141.795 235.986 141.136C235.986 140.485 235.891 139.915 235.702 139.426C235.512 138.934 235.232 138.551 234.861 138.278C234.49 138.002 234.031 137.864 233.486 137.864C232.918 137.864 232.444 138.009 232.065 138.301C231.69 138.589 231.408 138.981 231.219 139.477C231.033 139.97 230.94 140.523 230.94 141.136C230.94 141.758 231.035 142.322 231.224 142.83C231.418 143.333 231.702 143.735 232.077 144.034C232.455 144.33 232.925 144.477 233.486 144.477ZM243.605 145.682C242.764 145.682 242.039 145.496 241.429 145.125C240.823 144.75 240.355 144.227 240.026 143.557C239.7 142.883 239.537 142.098 239.537 141.205C239.537 140.311 239.7 139.523 240.026 138.841C240.355 138.155 240.813 137.621 241.401 137.239C241.991 136.852 242.681 136.659 243.469 136.659C243.923 136.659 244.372 136.735 244.815 136.886C245.259 137.038 245.662 137.284 246.026 137.625C246.389 137.962 246.679 138.409 246.895 138.966C247.111 139.523 247.219 140.208 247.219 141.023V141.591H240.491V140.432H245.855C245.855 139.939 245.757 139.5 245.56 139.114C245.366 138.727 245.09 138.422 244.73 138.199C244.374 137.975 243.954 137.864 243.469 137.864C242.935 137.864 242.473 137.996 242.082 138.261C241.696 138.523 241.399 138.864 241.19 139.284C240.982 139.705 240.878 140.155 240.878 140.636V141.409C240.878 142.068 240.991 142.627 241.219 143.085C241.45 143.54 241.77 143.886 242.179 144.125C242.588 144.36 243.063 144.477 243.605 144.477C243.957 144.477 244.276 144.428 244.56 144.33C244.848 144.227 245.096 144.076 245.304 143.875C245.512 143.67 245.673 143.417 245.787 143.114L247.082 143.477C246.946 143.917 246.717 144.303 246.395 144.636C246.073 144.966 245.675 145.223 245.202 145.409C244.728 145.591 244.196 145.682 243.605 145.682ZM249.259 145.5V136.773H250.554V138.091H250.645C250.804 137.659 251.092 137.309 251.509 137.04C251.925 136.771 252.395 136.636 252.918 136.636C253.016 136.636 253.139 136.638 253.287 136.642C253.435 136.646 253.546 136.652 253.622 136.659V138.023C253.577 138.011 253.473 137.994 253.31 137.972C253.151 137.945 252.982 137.932 252.804 137.932C252.38 137.932 252.001 138.021 251.668 138.199C251.338 138.373 251.077 138.616 250.884 138.926C250.694 139.233 250.599 139.583 250.599 139.977V145.5H249.259ZM265.212 141.932V136.773H266.553V145.5H265.212V144.023H265.121C264.916 144.466 264.598 144.843 264.166 145.153C263.734 145.46 263.189 145.614 262.53 145.614C261.984 145.614 261.5 145.494 261.075 145.256C260.651 145.013 260.318 144.65 260.075 144.165C259.833 143.676 259.712 143.061 259.712 142.318V136.773H261.053V142.227C261.053 142.864 261.231 143.371 261.587 143.75C261.946 144.129 262.405 144.318 262.962 144.318C263.295 144.318 263.634 144.233 263.979 144.062C264.327 143.892 264.619 143.631 264.854 143.278C265.092 142.926 265.212 142.477 265.212 141.932ZM270.349 140.25V145.5H269.009V136.773H270.304V138.136H270.418C270.622 137.693 270.933 137.337 271.349 137.068C271.766 136.795 272.304 136.659 272.963 136.659C273.554 136.659 274.071 136.78 274.514 137.023C274.957 137.261 275.302 137.625 275.548 138.114C275.795 138.598 275.918 139.212 275.918 139.955V145.5H274.577V140.045C274.577 139.36 274.399 138.826 274.043 138.443C273.687 138.057 273.198 137.864 272.577 137.864C272.149 137.864 271.766 137.956 271.429 138.142C271.096 138.328 270.832 138.598 270.639 138.955C270.446 139.311 270.349 139.742 270.349 140.25ZM279.618 142.318L279.595 140.659H279.868L283.686 136.773H285.345L281.277 140.886H281.163L279.618 142.318ZM278.368 145.5V133.864H279.709V145.5H278.368ZM283.913 145.5L280.504 141.182L281.459 140.25L285.618 145.5H283.913ZM288.412 140.25V145.5H287.071V136.773H288.366V138.136H288.48C288.685 137.693 288.995 137.337 289.412 137.068C289.829 136.795 290.366 136.659 291.026 136.659C291.616 136.659 292.134 136.78 292.577 137.023C293.02 137.261 293.365 137.625 293.611 138.114C293.857 138.598 293.98 139.212 293.98 139.955V145.5H292.639V140.045C292.639 139.36 292.461 138.826 292.105 138.443C291.749 138.057 291.26 137.864 290.639 137.864C290.211 137.864 289.829 137.956 289.491 138.142C289.158 138.328 288.895 138.598 288.702 138.955C288.509 139.311 288.412 139.742 288.412 140.25ZM299.976 145.682C299.188 145.682 298.497 145.494 297.902 145.119C297.311 144.744 296.849 144.22 296.516 143.545C296.186 142.871 296.021 142.083 296.021 141.182C296.021 140.273 296.186 139.479 296.516 138.801C296.849 138.123 297.311 137.597 297.902 137.222C298.497 136.847 299.188 136.659 299.976 136.659C300.764 136.659 301.453 136.847 302.044 137.222C302.639 137.597 303.101 138.123 303.43 138.801C303.764 139.479 303.93 140.273 303.93 141.182C303.93 142.083 303.764 142.871 303.43 143.545C303.101 144.22 302.639 144.744 302.044 145.119C301.453 145.494 300.764 145.682 299.976 145.682ZM299.976 144.477C300.574 144.477 301.067 144.324 301.453 144.017C301.839 143.71 302.125 143.307 302.311 142.807C302.497 142.307 302.589 141.765 302.589 141.182C302.589 140.598 302.497 140.055 302.311 139.551C302.125 139.047 301.839 138.64 301.453 138.33C301.067 138.019 300.574 137.864 299.976 137.864C299.377 137.864 298.885 138.019 298.499 138.33C298.112 138.64 297.826 139.047 297.641 139.551C297.455 140.055 297.362 140.598 297.362 141.182C297.362 141.765 297.455 142.307 297.641 142.807C297.826 143.307 298.112 143.71 298.499 144.017C298.885 144.324 299.377 144.477 299.976 144.477ZM307.658 145.5L304.999 136.773H306.408L308.294 143.455H308.385L310.249 136.773H311.68L313.521 143.432H313.612L315.499 136.773H316.908L314.249 145.5H312.93L311.021 138.795H310.885L308.976 145.5H307.658ZM320.021 140.25V145.5H318.68V136.773H319.976V138.136H320.089C320.294 137.693 320.605 137.337 321.021 137.068C321.438 136.795 321.976 136.659 322.635 136.659C323.226 136.659 323.743 136.78 324.186 137.023C324.629 137.261 324.974 137.625 325.22 138.114C325.466 138.598 325.589 139.212 325.589 139.955V145.5H324.249V140.045C324.249 139.36 324.071 138.826 323.714 138.443C323.358 138.057 322.87 137.864 322.249 137.864C321.821 137.864 321.438 137.956 321.101 138.142C320.768 138.328 320.504 138.598 320.311 138.955C320.118 139.311 320.021 139.742 320.021 140.25Z" fill="black"/>
<path fill-rule="evenodd" clip-rule="evenodd" d="M259.599 158C259.748 158 259.869 158.069 259.869 158.155L259.869 178.962C259.869 179.048 259.748 179.117 259.599 179.117C259.449 179.117 259.328 179.048 259.328 178.962L259.328 158.155C259.328 158.069 259.449 158 259.599 158Z" fill="#505050"/>
<path fill-rule="evenodd" clip-rule="evenodd" d="M262.765 173.532C262.931 173.572 263.032 173.732 262.991 173.89C262.893 174.263 262.794 174.635 262.695 175.007C262.159 177.029 261.626 179.036 261.247 181.08C261.23 181.175 261.212 181.303 261.19 181.461C261.169 181.608 261.145 181.78 261.115 181.972C261.055 182.352 260.973 182.785 260.853 183.142C260.794 183.32 260.72 183.493 260.627 183.635C260.537 183.771 260.401 183.919 260.201 183.976C259.982 184.039 259.773 183.971 259.603 183.847C259.438 183.729 259.281 183.542 259.124 183.299C258.501 182.331 258.039 181.252 257.62 180.175C257.502 179.874 257.388 179.573 257.276 179.275C256.982 178.499 256.695 177.74 256.364 177.018C256.348 176.983 256.313 176.904 256.264 176.795C256.131 176.494 255.893 175.958 255.656 175.447C255.495 175.101 255.341 174.779 255.228 174.567C255.201 174.518 255.179 174.478 255.161 174.447C255.065 174.397 255 174.3 255 174.188C255 174.168 255 174.106 255.033 174.04C255.051 174.002 255.089 173.945 255.163 173.904C255.242 173.861 255.324 173.858 255.387 173.87C255.484 173.89 255.544 173.947 255.558 173.96L255.559 173.961C255.582 173.983 255.601 174.006 255.614 174.023C255.664 174.089 255.722 174.191 255.78 174.3C255.901 174.528 256.061 174.862 256.222 175.208C256.463 175.726 256.718 176.302 256.849 176.596C256.891 176.691 256.92 176.757 256.932 176.782C257.271 177.523 257.569 178.31 257.865 179.092C257.977 179.387 258.088 179.68 258.2 179.97C258.617 181.04 259.062 182.074 259.652 182.991C259.792 183.208 259.901 183.323 259.977 183.377C260.002 183.395 260.018 183.404 260.028 183.407C260.04 183.399 260.066 183.376 260.103 183.321C260.157 183.239 260.211 183.119 260.263 182.963C260.367 182.653 260.443 182.259 260.502 181.885C260.528 181.721 260.552 181.554 260.573 181.404C260.597 181.229 260.619 181.077 260.637 180.978C261.02 178.911 261.559 176.88 262.096 174.858C262.194 174.487 262.292 174.117 262.39 173.747C262.431 173.589 262.599 173.493 262.765 173.532ZM260.039 183.41C260.039 183.41 260.037 183.41 260.034 183.41C260.037 183.41 260.039 183.41 260.039 183.41ZM255.11 174.367C255.11 174.367 255.11 174.367 255.111 174.367C255.11 174.367 255.11 174.367 255.11 174.367Z" fill="#505050"/>
<rect x="160.5" y="186.5" width="197" height="31" rx="7.5" fill="#F8F8F8"/>
<rect x="160.5" y="186.5" width="197" height="31" rx="7.5" stroke="#EFEFEF"/>
<path d="M196.409 207.5V195.864H200.341C201.254 195.864 202 196.028 202.58 196.358C203.163 196.684 203.595 197.125 203.875 197.682C204.155 198.239 204.295 198.86 204.295 199.545C204.295 200.231 204.155 200.854 203.875 201.415C203.598 201.975 203.17 202.422 202.591 202.756C202.011 203.085 201.269 203.25 200.364 203.25H197.545V202H200.318C200.943 202 201.445 201.892 201.824 201.676C202.203 201.46 202.477 201.169 202.648 200.801C202.822 200.43 202.909 200.011 202.909 199.545C202.909 199.08 202.822 198.663 202.648 198.295C202.477 197.928 202.201 197.64 201.818 197.432C201.436 197.22 200.928 197.114 200.295 197.114H197.818V207.5H196.409ZM206.384 207.5V198.773H207.679V200.091H207.77C207.929 199.659 208.217 199.309 208.634 199.04C209.05 198.771 209.52 198.636 210.043 198.636C210.141 198.636 210.264 198.638 210.412 198.642C210.56 198.646 210.671 198.652 210.747 198.659V200.023C210.702 200.011 210.598 199.994 210.435 199.972C210.276 199.945 210.107 199.932 209.929 199.932C209.505 199.932 209.126 200.021 208.793 200.199C208.463 200.373 208.202 200.616 208.009 200.926C207.819 201.233 207.724 201.583 207.724 201.977V207.5H206.384ZM212.337 207.5V198.773H213.678V207.5H212.337ZM213.018 197.318C212.757 197.318 212.532 197.229 212.342 197.051C212.157 196.873 212.064 196.659 212.064 196.409C212.064 196.159 212.157 195.945 212.342 195.767C212.532 195.589 212.757 195.5 213.018 195.5C213.28 195.5 213.503 195.589 213.689 195.767C213.878 195.945 213.973 196.159 213.973 196.409C213.973 196.659 213.878 196.873 213.689 197.051C213.503 197.229 213.28 197.318 213.018 197.318ZM219.679 207.682C218.861 207.682 218.156 207.489 217.565 207.102C216.974 206.716 216.52 206.184 216.202 205.506C215.884 204.828 215.724 204.053 215.724 203.182C215.724 202.295 215.887 201.513 216.213 200.835C216.543 200.153 217.001 199.621 217.588 199.239C218.179 198.852 218.868 198.659 219.656 198.659C220.27 198.659 220.823 198.773 221.315 199C221.808 199.227 222.211 199.545 222.526 199.955C222.84 200.364 223.035 200.841 223.111 201.386H221.77C221.668 200.989 221.44 200.636 221.088 200.33C220.74 200.019 220.27 199.864 219.679 199.864C219.156 199.864 218.698 200 218.304 200.273C217.914 200.542 217.609 200.922 217.389 201.415C217.173 201.903 217.065 202.477 217.065 203.136C217.065 203.811 217.171 204.398 217.384 204.898C217.599 205.398 217.902 205.786 218.293 206.062C218.687 206.339 219.149 206.477 219.679 206.477C220.027 206.477 220.344 206.417 220.628 206.295C220.912 206.174 221.152 206 221.349 205.773C221.546 205.545 221.687 205.273 221.77 204.955H223.111C223.035 205.47 222.848 205.934 222.548 206.347C222.253 206.756 221.861 207.081 221.372 207.324C220.887 207.562 220.323 207.682 219.679 207.682ZM225.071 207.5V198.773H226.412V207.5H225.071ZM225.753 197.318C225.491 197.318 225.266 197.229 225.077 197.051C224.891 196.873 224.798 196.659 224.798 196.409C224.798 196.159 224.891 195.945 225.077 195.767C225.266 195.589 225.491 195.5 225.753 195.5C226.014 195.5 226.238 195.589 226.423 195.767C226.613 195.945 226.707 196.159 226.707 196.409C226.707 196.659 226.613 196.873 226.423 197.051C226.238 197.229 226.014 197.318 225.753 197.318ZM230.209 202.25V207.5H228.868V198.773H230.163V200.136H230.277C230.482 199.693 230.792 199.337 231.209 199.068C231.625 198.795 232.163 198.659 232.822 198.659C233.413 198.659 233.93 198.78 234.374 199.023C234.817 199.261 235.161 199.625 235.408 200.114C235.654 200.598 235.777 201.212 235.777 201.955V207.5H234.436V202.045C234.436 201.36 234.258 200.826 233.902 200.443C233.546 200.057 233.057 199.864 232.436 199.864C232.008 199.864 231.625 199.956 231.288 200.142C230.955 200.328 230.692 200.598 230.499 200.955C230.305 201.311 230.209 201.742 230.209 202.25ZM241.75 210.955C241.102 210.955 240.545 210.871 240.08 210.705C239.614 210.542 239.225 210.326 238.915 210.057C238.608 209.792 238.364 209.508 238.182 209.205L239.25 208.455C239.371 208.614 239.525 208.795 239.71 209C239.896 209.208 240.15 209.388 240.472 209.54C240.797 209.695 241.223 209.773 241.75 209.773C242.455 209.773 243.036 209.602 243.494 209.261C243.953 208.92 244.182 208.386 244.182 207.659V205.886H244.068C243.97 206.045 243.83 206.242 243.648 206.477C243.47 206.708 243.212 206.915 242.875 207.097C242.542 207.275 242.091 207.364 241.523 207.364C240.818 207.364 240.186 207.197 239.625 206.864C239.068 206.53 238.627 206.045 238.301 205.409C237.979 204.773 237.818 204 237.818 203.091C237.818 202.197 237.975 201.419 238.29 200.756C238.604 200.089 239.042 199.574 239.602 199.21C240.163 198.843 240.811 198.659 241.545 198.659C242.114 198.659 242.564 198.754 242.898 198.943C243.235 199.129 243.492 199.341 243.67 199.58C243.852 199.814 243.992 200.008 244.091 200.159H244.227V198.773H245.523V207.75C245.523 208.5 245.352 209.11 245.011 209.58C244.674 210.053 244.22 210.4 243.648 210.619C243.08 210.843 242.447 210.955 241.75 210.955ZM241.705 206.159C242.242 206.159 242.697 206.036 243.068 205.79C243.439 205.544 243.722 205.189 243.915 204.727C244.108 204.265 244.205 203.712 244.205 203.068C244.205 202.439 244.11 201.884 243.92 201.403C243.731 200.922 243.451 200.545 243.08 200.273C242.708 200 242.25 199.864 241.705 199.864C241.136 199.864 240.663 200.008 240.284 200.295C239.909 200.583 239.627 200.97 239.438 201.455C239.252 201.939 239.159 202.477 239.159 203.068C239.159 203.674 239.254 204.21 239.443 204.676C239.636 205.138 239.92 205.502 240.295 205.767C240.674 206.028 241.144 206.159 241.705 206.159ZM257.977 203.932V198.773H259.318V207.5H257.977V206.023H257.886C257.682 206.466 257.364 206.843 256.932 207.153C256.5 207.46 255.955 207.614 255.295 207.614C254.75 207.614 254.265 207.494 253.841 207.256C253.417 207.013 253.083 206.65 252.841 206.165C252.598 205.676 252.477 205.061 252.477 204.318V198.773H253.818V204.227C253.818 204.864 253.996 205.371 254.352 205.75C254.712 206.129 255.17 206.318 255.727 206.318C256.061 206.318 256.4 206.233 256.744 206.062C257.093 205.892 257.384 205.631 257.619 205.278C257.858 204.926 257.977 204.477 257.977 203.932ZM263.115 202.25V207.5H261.774V198.773H263.07V200.136H263.183C263.388 199.693 263.698 199.337 264.115 199.068C264.532 198.795 265.07 198.659 265.729 198.659C266.32 198.659 266.837 198.78 267.28 199.023C267.723 199.261 268.068 199.625 268.314 200.114C268.56 200.598 268.683 201.212 268.683 201.955V207.5H267.342V202.045C267.342 201.36 267.164 200.826 266.808 200.443C266.452 200.057 265.964 199.864 265.342 199.864C264.914 199.864 264.532 199.956 264.195 200.142C263.861 200.328 263.598 200.598 263.405 200.955C263.212 201.311 263.115 201.742 263.115 202.25ZM274.679 207.682C273.861 207.682 273.156 207.489 272.565 207.102C271.974 206.716 271.52 206.184 271.202 205.506C270.884 204.828 270.724 204.053 270.724 203.182C270.724 202.295 270.887 201.513 271.213 200.835C271.543 200.153 272.001 199.621 272.588 199.239C273.179 198.852 273.868 198.659 274.656 198.659C275.27 198.659 275.823 198.773 276.315 199C276.808 199.227 277.211 199.545 277.526 199.955C277.84 200.364 278.035 200.841 278.111 201.386H276.77C276.668 200.989 276.44 200.636 276.088 200.33C275.74 200.019 275.27 199.864 274.679 199.864C274.156 199.864 273.698 200 273.304 200.273C272.914 200.542 272.609 200.922 272.389 201.415C272.173 201.903 272.065 202.477 272.065 203.136C272.065 203.811 272.171 204.398 272.384 204.898C272.599 205.398 272.902 205.786 273.293 206.062C273.687 206.339 274.149 206.477 274.679 206.477C275.027 206.477 275.344 206.417 275.628 206.295C275.912 206.174 276.152 206 276.349 205.773C276.546 205.545 276.687 205.273 276.77 204.955H278.111C278.035 205.47 277.848 205.934 277.548 206.347C277.253 206.756 276.861 207.081 276.372 207.324C275.887 207.562 275.323 207.682 274.679 207.682ZM283.73 207.682C282.889 207.682 282.164 207.496 281.554 207.125C280.948 206.75 280.48 206.227 280.151 205.557C279.825 204.883 279.662 204.098 279.662 203.205C279.662 202.311 279.825 201.523 280.151 200.841C280.48 200.155 280.938 199.621 281.526 199.239C282.116 198.852 282.806 198.659 283.594 198.659C284.048 198.659 284.497 198.735 284.94 198.886C285.384 199.038 285.787 199.284 286.151 199.625C286.514 199.962 286.804 200.409 287.02 200.966C287.236 201.523 287.344 202.208 287.344 203.023V203.591H280.616V202.432H285.98C285.98 201.939 285.882 201.5 285.685 201.114C285.491 200.727 285.215 200.422 284.855 200.199C284.499 199.975 284.079 199.864 283.594 199.864C283.06 199.864 282.598 199.996 282.207 200.261C281.821 200.523 281.524 200.864 281.315 201.284C281.107 201.705 281.003 202.155 281.003 202.636V203.409C281.003 204.068 281.116 204.627 281.344 205.085C281.575 205.54 281.895 205.886 282.304 206.125C282.713 206.36 283.188 206.477 283.73 206.477C284.082 206.477 284.401 206.428 284.685 206.33C284.973 206.227 285.221 206.076 285.429 205.875C285.637 205.67 285.798 205.417 285.912 205.114L287.207 205.477C287.071 205.917 286.842 206.303 286.52 206.636C286.198 206.966 285.8 207.223 285.327 207.409C284.853 207.591 284.321 207.682 283.73 207.682ZM289.384 207.5V198.773H290.679V200.091H290.77C290.929 199.659 291.217 199.309 291.634 199.04C292.05 198.771 292.52 198.636 293.043 198.636C293.141 198.636 293.264 198.638 293.412 198.642C293.56 198.646 293.671 198.652 293.747 198.659V200.023C293.702 200.011 293.598 199.994 293.435 199.972C293.276 199.945 293.107 199.932 292.929 199.932C292.505 199.932 292.126 200.021 291.793 200.199C291.463 200.373 291.202 200.616 291.009 200.926C290.819 201.233 290.724 201.583 290.724 201.977V207.5H289.384ZM299.679 198.773V199.909H295.156V198.773H299.679ZM296.474 196.682H297.815V205C297.815 205.379 297.87 205.663 297.98 205.852C298.094 206.038 298.238 206.163 298.412 206.227C298.59 206.288 298.777 206.318 298.974 206.318C299.122 206.318 299.243 206.311 299.338 206.295C299.433 206.277 299.509 206.261 299.565 206.25L299.838 207.455C299.747 207.489 299.62 207.523 299.457 207.557C299.295 207.595 299.088 207.614 298.838 207.614C298.459 207.614 298.088 207.532 297.724 207.369C297.365 207.206 297.065 206.958 296.827 206.625C296.592 206.292 296.474 205.871 296.474 205.364V196.682ZM304.264 207.705C303.711 207.705 303.209 207.6 302.759 207.392C302.308 207.18 301.95 206.875 301.685 206.477C301.42 206.076 301.287 205.591 301.287 205.023C301.287 204.523 301.385 204.117 301.582 203.807C301.779 203.492 302.043 203.246 302.372 203.068C302.702 202.89 303.065 202.758 303.463 202.67C303.865 202.58 304.268 202.508 304.673 202.455C305.204 202.386 305.634 202.335 305.963 202.301C306.296 202.263 306.539 202.201 306.69 202.114C306.846 202.027 306.923 201.875 306.923 201.659V201.614C306.923 201.053 306.77 200.617 306.463 200.307C306.16 199.996 305.7 199.841 305.082 199.841C304.442 199.841 303.94 199.981 303.577 200.261C303.213 200.542 302.957 200.841 302.81 201.159L301.537 200.705C301.764 200.174 302.067 199.761 302.446 199.466C302.829 199.167 303.245 198.958 303.696 198.841C304.151 198.72 304.598 198.659 305.037 198.659C305.317 198.659 305.639 198.693 306.003 198.761C306.37 198.826 306.724 198.96 307.065 199.165C307.41 199.369 307.696 199.678 307.923 200.091C308.151 200.504 308.264 201.057 308.264 201.75V207.5H306.923V206.318H306.855C306.764 206.508 306.613 206.71 306.401 206.926C306.188 207.142 305.906 207.326 305.554 207.477C305.202 207.629 304.772 207.705 304.264 207.705ZM304.469 206.5C304.999 206.5 305.446 206.396 305.81 206.188C306.177 205.979 306.454 205.71 306.639 205.381C306.829 205.051 306.923 204.705 306.923 204.341V203.114C306.866 203.182 306.741 203.244 306.548 203.301C306.359 203.354 306.139 203.402 305.889 203.443C305.643 203.481 305.402 203.515 305.168 203.545C304.937 203.572 304.749 203.595 304.605 203.614C304.257 203.659 303.931 203.733 303.628 203.835C303.329 203.934 303.086 204.083 302.901 204.284C302.719 204.481 302.628 204.75 302.628 205.091C302.628 205.557 302.8 205.909 303.145 206.148C303.493 206.383 303.935 206.5 304.469 206.5ZM310.712 207.5V198.773H312.053V207.5H310.712ZM311.393 197.318C311.132 197.318 310.907 197.229 310.717 197.051C310.532 196.873 310.439 196.659 310.439 196.409C310.439 196.159 310.532 195.945 310.717 195.767C310.907 195.589 311.132 195.5 311.393 195.5C311.655 195.5 311.878 195.589 312.064 195.767C312.253 195.945 312.348 196.159 312.348 196.409C312.348 196.659 312.253 196.873 312.064 197.051C311.878 197.229 311.655 197.318 311.393 197.318ZM315.849 202.25V207.5H314.509V198.773H315.804V200.136H315.918C316.122 199.693 316.433 199.337 316.849 199.068C317.266 198.795 317.804 198.659 318.463 198.659C319.054 198.659 319.571 198.78 320.014 199.023C320.457 199.261 320.802 199.625 321.048 200.114C321.295 200.598 321.418 201.212 321.418 201.955V207.5H320.077V202.045C320.077 201.36 319.899 200.826 319.543 200.443C319.187 200.057 318.698 199.864 318.077 199.864C317.649 199.864 317.266 199.956 316.929 200.142C316.596 200.328 316.332 200.598 316.139 200.955C315.946 201.311 315.849 201.742 315.849 202.25Z" fill="black"/>
<path fill-rule="evenodd" clip-rule="evenodd" d="M259.599 220C259.748 220 259.869 220.069 259.869 220.155L259.869 240.962C259.869 241.048 259.748 241.117 259.599 241.117C259.449 241.117 259.328 241.048 259.328 240.962L259.328 220.155C259.328 220.069 259.449 220 259.599 220Z" fill="#505050"/>
<path fill-rule="evenodd" clip-rule="evenodd" d="M262.765 235.532C262.931 235.572 263.032 235.732 262.991 235.89C262.893 236.263 262.794 236.635 262.695 237.007C262.159 239.029 261.626 241.036 261.247 243.08C261.23 243.175 261.212 243.303 261.19 243.461C261.169 243.608 261.145 243.78 261.115 243.972C261.055 244.352 260.973 244.785 260.853 245.142C260.794 245.32 260.72 245.493 260.627 245.635C260.537 245.771 260.401 245.919 260.201 245.976C259.982 246.039 259.773 245.971 259.603 245.847C259.438 245.729 259.281 245.542 259.124 245.299C258.501 244.331 258.039 243.252 257.62 242.175C257.502 241.874 257.388 241.573 257.276 241.275C256.982 240.499 256.695 239.74 256.364 239.018C256.348 238.983 256.313 238.904 256.264 238.795C256.131 238.494 255.893 237.958 255.656 237.447C255.495 237.101 255.341 236.779 255.228 236.567C255.201 236.518 255.179 236.478 255.161 236.447C255.065 236.397 255 236.3 255 236.188C255 236.168 255 236.106 255.033 236.04C255.051 236.002 255.089 235.945 255.163 235.904C255.242 235.861 255.324 235.858 255.387 235.87C255.484 235.89 255.544 235.947 255.558 235.96L255.559 235.961C255.582 235.983 255.601 236.006 255.614 236.023C255.664 236.089 255.722 236.191 255.78 236.3C255.901 236.528 256.061 236.862 256.222 237.208C256.463 237.726 256.718 238.302 256.849 238.596C256.891 238.691 256.92 238.757 256.932 238.782C257.271 239.523 257.569 240.31 257.865 241.092C257.977 241.387 258.088 241.68 258.2 241.97C258.617 243.04 259.062 244.074 259.652 244.991C259.792 245.208 259.901 245.323 259.977 245.377C260.002 245.395 260.018 245.404 260.028 245.407C260.04 245.399 260.066 245.376 260.103 245.321C260.157 245.239 260.211 245.119 260.263 244.963C260.367 244.653 260.443 244.259 260.502 243.885C260.528 243.721 260.552 243.554 260.573 243.404C260.597 243.229 260.619 243.077 260.637 242.978C261.02 240.911 261.559 238.88 262.096 236.858C262.194 236.487 262.292 236.117 262.39 235.747C262.431 235.589 262.599 235.493 262.765 235.532ZM260.039 245.41C260.039 245.41 260.037 245.41 260.034 245.41C260.037 245.41 260.039 245.41 260.039 245.41ZM255.11 236.367C255.11 236.367 255.11 236.367 255.111 236.367C255.11 236.367 255.11 236.367 255.11 236.367Z" fill="#505050"/>
<rect x="160.5" y="248.5" width="197" height="31" rx="7.5" fill="#F8F8F8"/>
<rect x="160.5" y="248.5" width="197" height="31" rx="7.5" stroke="#EFEFEF"/>
<path d="M192.409 269.5V257.864H196.341C197.254 257.864 198 258.028 198.58 258.358C199.163 258.684 199.595 259.125 199.875 259.682C200.155 260.239 200.295 260.86 200.295 261.545C200.295 262.231 200.155 262.854 199.875 263.415C199.598 263.975 199.17 264.422 198.591 264.756C198.011 265.085 197.269 265.25 196.364 265.25H193.545V264H196.318C196.943 264 197.445 263.892 197.824 263.676C198.203 263.46 198.477 263.169 198.648 262.801C198.822 262.43 198.909 262.011 198.909 261.545C198.909 261.08 198.822 260.663 198.648 260.295C198.477 259.928 198.201 259.64 197.818 259.432C197.436 259.22 196.928 259.114 196.295 259.114H193.818V269.5H192.409ZM202.384 269.5V260.773H203.679V262.091H203.77C203.929 261.659 204.217 261.309 204.634 261.04C205.05 260.771 205.52 260.636 206.043 260.636C206.141 260.636 206.264 260.638 206.412 260.642C206.56 260.646 206.671 260.652 206.747 260.659V262.023C206.702 262.011 206.598 261.994 206.435 261.972C206.276 261.945 206.107 261.932 205.929 261.932C205.505 261.932 205.126 262.021 204.793 262.199C204.463 262.373 204.202 262.616 204.009 262.926C203.819 263.233 203.724 263.583 203.724 263.977V269.5H202.384ZM211.616 269.682C210.829 269.682 210.137 269.494 209.543 269.119C208.952 268.744 208.49 268.22 208.156 267.545C207.827 266.871 207.662 266.083 207.662 265.182C207.662 264.273 207.827 263.479 208.156 262.801C208.49 262.123 208.952 261.597 209.543 261.222C210.137 260.847 210.829 260.659 211.616 260.659C212.404 260.659 213.094 260.847 213.685 261.222C214.279 261.597 214.741 262.123 215.071 262.801C215.404 263.479 215.571 264.273 215.571 265.182C215.571 266.083 215.404 266.871 215.071 267.545C214.741 268.22 214.279 268.744 213.685 269.119C213.094 269.494 212.404 269.682 211.616 269.682ZM211.616 268.477C212.215 268.477 212.707 268.324 213.094 268.017C213.48 267.71 213.766 267.307 213.952 266.807C214.137 266.307 214.23 265.765 214.23 265.182C214.23 264.598 214.137 264.055 213.952 263.551C213.766 263.047 213.48 262.64 213.094 262.33C212.707 262.019 212.215 261.864 211.616 261.864C211.018 261.864 210.526 262.019 210.139 262.33C209.753 262.64 209.467 263.047 209.281 263.551C209.096 264.055 209.003 264.598 209.003 265.182C209.003 265.765 209.096 266.307 209.281 266.807C209.467 267.307 209.753 267.71 210.139 268.017C210.526 268.324 211.018 268.477 211.616 268.477ZM224.442 260.773L221.214 269.5H219.851L216.624 260.773H218.078L220.487 267.727H220.578L222.987 260.773H224.442ZM226.212 269.5V260.773H227.553V269.5H226.212ZM226.893 259.318C226.632 259.318 226.407 259.229 226.217 259.051C226.032 258.873 225.939 258.659 225.939 258.409C225.939 258.159 226.032 257.945 226.217 257.767C226.407 257.589 226.632 257.5 226.893 257.5C227.155 257.5 227.378 257.589 227.564 257.767C227.753 257.945 227.848 258.159 227.848 258.409C227.848 258.659 227.753 258.873 227.564 259.051C227.378 259.229 227.155 259.318 226.893 259.318ZM233.304 269.682C232.577 269.682 231.935 269.498 231.378 269.131C230.821 268.759 230.385 268.237 230.071 267.562C229.757 266.884 229.599 266.083 229.599 265.159C229.599 264.242 229.757 263.447 230.071 262.773C230.385 262.098 230.823 261.578 231.384 261.21C231.944 260.843 232.592 260.659 233.327 260.659C233.895 260.659 234.344 260.754 234.673 260.943C235.007 261.129 235.26 261.341 235.435 261.58C235.613 261.814 235.751 262.008 235.849 262.159H235.963V257.864H237.304V269.5H236.009V268.159H235.849C235.751 268.318 235.611 268.519 235.429 268.761C235.247 269 234.988 269.214 234.651 269.403C234.313 269.589 233.865 269.682 233.304 269.682ZM233.486 268.477C234.024 268.477 234.478 268.337 234.849 268.057C235.221 267.773 235.503 267.381 235.696 266.881C235.889 266.377 235.986 265.795 235.986 265.136C235.986 264.485 235.891 263.915 235.702 263.426C235.512 262.934 235.232 262.551 234.861 262.278C234.49 262.002 234.031 261.864 233.486 261.864C232.918 261.864 232.444 262.009 232.065 262.301C231.69 262.589 231.408 262.981 231.219 263.477C231.033 263.97 230.94 264.523 230.94 265.136C230.94 265.758 231.035 266.322 231.224 266.83C231.418 267.333 231.702 267.735 232.077 268.034C232.455 268.33 232.925 268.477 233.486 268.477ZM243.605 269.682C242.764 269.682 242.039 269.496 241.429 269.125C240.823 268.75 240.355 268.227 240.026 267.557C239.7 266.883 239.537 266.098 239.537 265.205C239.537 264.311 239.7 263.523 240.026 262.841C240.355 262.155 240.813 261.621 241.401 261.239C241.991 260.852 242.681 260.659 243.469 260.659C243.923 260.659 244.372 260.735 244.815 260.886C245.259 261.038 245.662 261.284 246.026 261.625C246.389 261.962 246.679 262.409 246.895 262.966C247.111 263.523 247.219 264.208 247.219 265.023V265.591H240.491V264.432H245.855C245.855 263.939 245.757 263.5 245.56 263.114C245.366 262.727 245.09 262.422 244.73 262.199C244.374 261.975 243.954 261.864 243.469 261.864C242.935 261.864 242.473 261.996 242.082 262.261C241.696 262.523 241.399 262.864 241.19 263.284C240.982 263.705 240.878 264.155 240.878 264.636V265.409C240.878 266.068 240.991 266.627 241.219 267.085C241.45 267.54 241.77 267.886 242.179 268.125C242.588 268.36 243.063 268.477 243.605 268.477C243.957 268.477 244.276 268.428 244.56 268.33C244.848 268.227 245.096 268.076 245.304 267.875C245.512 267.67 245.673 267.417 245.787 267.114L247.082 267.477C246.946 267.917 246.717 268.303 246.395 268.636C246.073 268.966 245.675 269.223 245.202 269.409C244.728 269.591 244.196 269.682 243.605 269.682ZM249.259 269.5V260.773H250.554V262.091H250.645C250.804 261.659 251.092 261.309 251.509 261.04C251.925 260.771 252.395 260.636 252.918 260.636C253.016 260.636 253.139 260.638 253.287 260.642C253.435 260.646 253.546 260.652 253.622 260.659V262.023C253.577 262.011 253.473 261.994 253.31 261.972C253.151 261.945 252.982 261.932 252.804 261.932C252.38 261.932 252.001 262.021 251.668 262.199C251.338 262.373 251.077 262.616 250.884 262.926C250.694 263.233 250.599 263.583 250.599 263.977V269.5H249.259ZM265.893 262.727L264.689 263.068C264.613 262.867 264.501 262.672 264.354 262.483C264.21 262.29 264.013 262.131 263.763 262.006C263.513 261.881 263.193 261.818 262.803 261.818C262.268 261.818 261.823 261.941 261.467 262.188C261.115 262.43 260.939 262.739 260.939 263.114C260.939 263.447 261.06 263.71 261.303 263.903C261.545 264.097 261.924 264.258 262.439 264.386L263.734 264.705C264.515 264.894 265.096 265.184 265.479 265.574C265.861 265.96 266.053 266.458 266.053 267.068C266.053 267.568 265.909 268.015 265.621 268.409C265.337 268.803 264.939 269.114 264.428 269.341C263.916 269.568 263.321 269.682 262.643 269.682C261.753 269.682 261.017 269.489 260.433 269.102C259.85 268.716 259.481 268.152 259.325 267.409L260.598 267.091C260.719 267.561 260.948 267.913 261.286 268.148C261.626 268.383 262.071 268.5 262.621 268.5C263.246 268.5 263.742 268.367 264.109 268.102C264.481 267.833 264.666 267.511 264.666 267.136C264.666 266.833 264.56 266.58 264.348 266.375C264.136 266.167 263.81 266.011 263.371 265.909L261.916 265.568C261.117 265.379 260.53 265.085 260.155 264.688C259.784 264.286 259.598 263.784 259.598 263.182C259.598 262.689 259.736 262.254 260.013 261.875C260.293 261.496 260.674 261.199 261.155 260.983C261.64 260.767 262.189 260.659 262.803 260.659C263.666 260.659 264.344 260.848 264.837 261.227C265.333 261.606 265.685 262.106 265.893 262.727ZM271.73 269.682C270.889 269.682 270.164 269.496 269.554 269.125C268.948 268.75 268.48 268.227 268.151 267.557C267.825 266.883 267.662 266.098 267.662 265.205C267.662 264.311 267.825 263.523 268.151 262.841C268.48 262.155 268.938 261.621 269.526 261.239C270.116 260.852 270.806 260.659 271.594 260.659C272.048 260.659 272.497 260.735 272.94 260.886C273.384 261.038 273.787 261.284 274.151 261.625C274.514 261.962 274.804 262.409 275.02 262.966C275.236 263.523 275.344 264.208 275.344 265.023V265.591H268.616V264.432H273.98C273.98 263.939 273.882 263.5 273.685 263.114C273.491 262.727 273.215 262.422 272.855 262.199C272.499 261.975 272.079 261.864 271.594 261.864C271.06 261.864 270.598 261.996 270.207 262.261C269.821 262.523 269.524 262.864 269.315 263.284C269.107 263.705 269.003 264.155 269.003 264.636V265.409C269.003 266.068 269.116 266.627 269.344 267.085C269.575 267.54 269.895 267.886 270.304 268.125C270.713 268.36 271.188 268.477 271.73 268.477C272.082 268.477 272.401 268.428 272.685 268.33C272.973 268.227 273.221 268.076 273.429 267.875C273.637 267.67 273.798 267.417 273.912 267.114L275.207 267.477C275.071 267.917 274.842 268.303 274.52 268.636C274.198 268.966 273.8 269.223 273.327 269.409C272.853 269.591 272.321 269.682 271.73 269.682ZM278.724 257.864V269.5H277.384V257.864H278.724ZM284.839 269.682C283.999 269.682 283.273 269.496 282.663 269.125C282.057 268.75 281.589 268.227 281.26 267.557C280.934 266.883 280.771 266.098 280.771 265.205C280.771 264.311 280.934 263.523 281.26 262.841C281.589 262.155 282.048 261.621 282.635 261.239C283.226 260.852 283.915 260.659 284.703 260.659C285.158 260.659 285.607 260.735 286.05 260.886C286.493 261.038 286.896 261.284 287.26 261.625C287.624 261.962 287.913 262.409 288.129 262.966C288.345 263.523 288.453 264.208 288.453 265.023V265.591H281.726V264.432H287.089C287.089 263.939 286.991 263.5 286.794 263.114C286.601 262.727 286.324 262.422 285.964 262.199C285.608 261.975 285.188 261.864 284.703 261.864C284.169 261.864 283.707 261.996 283.317 262.261C282.93 262.523 282.633 262.864 282.425 263.284C282.216 263.705 282.112 264.155 282.112 264.636V265.409C282.112 266.068 282.226 266.627 282.453 267.085C282.684 267.54 283.004 267.886 283.413 268.125C283.822 268.36 284.298 268.477 284.839 268.477C285.192 268.477 285.51 268.428 285.794 268.33C286.082 268.227 286.33 268.076 286.538 267.875C286.747 267.67 286.908 267.417 287.021 267.114L288.317 267.477C288.18 267.917 287.951 268.303 287.629 268.636C287.307 268.966 286.91 269.223 286.436 269.409C285.963 269.591 285.43 269.682 284.839 269.682ZM294.038 269.682C293.22 269.682 292.516 269.489 291.925 269.102C291.334 268.716 290.879 268.184 290.561 267.506C290.243 266.828 290.084 266.053 290.084 265.182C290.084 264.295 290.247 263.513 290.572 262.835C290.902 262.153 291.36 261.621 291.947 261.239C292.538 260.852 293.228 260.659 294.016 260.659C294.629 260.659 295.182 260.773 295.675 261C296.167 261.227 296.571 261.545 296.885 261.955C297.199 262.364 297.394 262.841 297.47 263.386H296.129C296.027 262.989 295.8 262.636 295.447 262.33C295.099 262.019 294.629 261.864 294.038 261.864C293.516 261.864 293.057 262 292.663 262.273C292.273 262.542 291.968 262.922 291.749 263.415C291.533 263.903 291.425 264.477 291.425 265.136C291.425 265.811 291.531 266.398 291.743 266.898C291.959 267.398 292.262 267.786 292.652 268.062C293.046 268.339 293.508 268.477 294.038 268.477C294.387 268.477 294.703 268.417 294.987 268.295C295.271 268.174 295.512 268 295.709 267.773C295.906 267.545 296.046 267.273 296.129 266.955H297.47C297.394 267.47 297.207 267.934 296.908 268.347C296.612 268.756 296.22 269.081 295.732 269.324C295.247 269.562 294.682 269.682 294.038 269.682ZM303.226 260.773V261.909H298.703V260.773H303.226ZM300.021 258.682H301.362V267C301.362 267.379 301.417 267.663 301.527 267.852C301.641 268.038 301.785 268.163 301.959 268.227C302.137 268.288 302.324 268.318 302.521 268.318C302.669 268.318 302.79 268.311 302.885 268.295C302.98 268.277 303.055 268.261 303.112 268.25L303.385 269.455C303.294 269.489 303.167 269.523 303.004 269.557C302.841 269.595 302.635 269.614 302.385 269.614C302.006 269.614 301.635 269.532 301.271 269.369C300.911 269.206 300.612 268.958 300.374 268.625C300.139 268.292 300.021 267.871 300.021 267.364V258.682ZM305.243 269.5V260.773H306.584V269.5H305.243ZM305.925 259.318C305.663 259.318 305.438 259.229 305.249 259.051C305.063 258.873 304.97 258.659 304.97 258.409C304.97 258.159 305.063 257.945 305.249 257.767C305.438 257.589 305.663 257.5 305.925 257.5C306.186 257.5 306.41 257.589 306.595 257.767C306.785 257.945 306.879 258.159 306.879 258.409C306.879 258.659 306.785 258.873 306.595 259.051C306.41 259.229 306.186 259.318 305.925 259.318ZM312.585 269.682C311.797 269.682 311.106 269.494 310.511 269.119C309.92 268.744 309.458 268.22 309.125 267.545C308.795 266.871 308.631 266.083 308.631 265.182C308.631 264.273 308.795 263.479 309.125 262.801C309.458 262.123 309.92 261.597 310.511 261.222C311.106 260.847 311.797 260.659 312.585 260.659C313.373 260.659 314.063 260.847 314.653 261.222C315.248 261.597 315.71 262.123 316.04 262.801C316.373 263.479 316.54 264.273 316.54 265.182C316.54 266.083 316.373 266.871 316.04 267.545C315.71 268.22 315.248 268.744 314.653 269.119C314.063 269.494 313.373 269.682 312.585 269.682ZM312.585 268.477C313.184 268.477 313.676 268.324 314.062 268.017C314.449 267.71 314.735 267.307 314.92 266.807C315.106 266.307 315.199 265.765 315.199 265.182C315.199 264.598 315.106 264.055 314.92 263.551C314.735 263.047 314.449 262.64 314.062 262.33C313.676 262.019 313.184 261.864 312.585 261.864C311.987 261.864 311.494 262.019 311.108 262.33C310.722 262.64 310.436 263.047 310.25 263.551C310.064 264.055 309.972 264.598 309.972 265.182C309.972 265.765 310.064 266.307 310.25 266.807C310.436 267.307 310.722 267.71 311.108 268.017C311.494 268.324 311.987 268.477 312.585 268.477ZM319.928 264.25V269.5H318.587V260.773H319.882V262.136H319.996C320.2 261.693 320.511 261.337 320.928 261.068C321.344 260.795 321.882 260.659 322.541 260.659C323.132 260.659 323.649 260.78 324.092 261.023C324.536 261.261 324.88 261.625 325.126 262.114C325.373 262.598 325.496 263.212 325.496 263.955V269.5H324.155V264.045C324.155 263.36 323.977 262.826 323.621 262.443C323.265 262.057 322.776 261.864 322.155 261.864C321.727 261.864 321.344 261.956 321.007 262.142C320.674 262.328 320.411 262.598 320.217 262.955C320.024 263.311 319.928 263.742 319.928 264.25Z" fill="black"/>
<path fill-rule="evenodd" clip-rule="evenodd" d="M259.599 282C259.748 282 259.869 282.069 259.869 282.155L259.869 302.962C259.869 303.048 259.748 303.117 259.599 303.117C259.449 303.117 259.328 303.048 259.328 302.962L259.328 282.155C259.328 282.069 259.449 282 259.599 282Z" fill="#505050"/>
<path fill-rule="evenodd" clip-rule="evenodd" d="M262.765 297.532C262.931 297.572 263.032 297.732 262.991 297.89C262.893 298.263 262.794 298.635 262.695 299.007C262.159 301.029 261.626 303.036 261.247 305.08C261.23 305.175 261.212 305.303 261.19 305.461C261.169 305.608 261.145 305.78 261.115 305.972C261.055 306.352 260.973 306.785 260.853 307.142C260.794 307.32 260.72 307.493 260.627 307.635C260.537 307.771 260.401 307.919 260.201 307.976C259.982 308.039 259.773 307.971 259.603 307.847C259.438 307.729 259.281 307.542 259.124 307.299C258.501 306.331 258.039 305.252 257.62 304.175C257.502 303.874 257.388 303.573 257.276 303.275C256.982 302.499 256.695 301.74 256.364 301.018C256.348 300.983 256.313 300.904 256.264 300.795C256.131 300.494 255.893 299.958 255.656 299.447C255.495 299.101 255.341 298.779 255.228 298.567C255.201 298.518 255.179 298.478 255.161 298.447C255.065 298.397 255 298.3 255 298.188C255 298.168 255 298.106 255.033 298.04C255.051 298.002 255.089 297.945 255.163 297.904C255.242 297.861 255.324 297.858 255.387 297.87C255.484 297.89 255.544 297.947 255.558 297.96L255.559 297.961C255.582 297.983 255.601 298.006 255.614 298.023C255.664 298.089 255.722 298.191 255.78 298.3C255.901 298.528 256.061 298.862 256.222 299.208C256.463 299.726 256.718 300.302 256.849 300.596C256.891 300.691 256.92 300.757 256.932 300.782C257.271 301.523 257.569 302.31 257.865 303.092C257.977 303.387 258.088 303.68 258.2 303.97C258.617 305.04 259.062 306.074 259.652 306.991C259.792 307.208 259.901 307.323 259.977 307.377C260.002 307.395 260.018 307.404 260.028 307.407C260.04 307.399 260.066 307.376 260.103 307.321C260.157 307.239 260.211 307.119 260.263 306.963C260.367 306.653 260.443 306.259 260.502 305.885C260.528 305.721 260.552 305.554 260.573 305.404C260.597 305.229 260.619 305.077 260.637 304.978C261.02 302.911 261.559 300.88 262.096 298.858C262.194 298.487 262.292 298.117 262.39 297.747C262.431 297.589 262.599 297.493 262.765 297.532ZM260.039 307.41C260.039 307.41 260.037 307.41 260.034 307.41C260.037 307.41 260.039 307.41 260.039 307.41ZM255.11 298.367C255.11 298.367 255.11 298.367 255.111 298.367C255.11 298.367 255.11 298.367 255.11 298.367Z" fill="#505050"/>
<rect x="160.5" y="310.5" width="197" height="31" rx="7.5" fill="#F8F8F8"/>
<rect x="160.5" y="310.5" width="197" height="31" rx="7.5" stroke="#EFEFEF"/>
<path d="M233.273 323.5H231.864C231.78 323.095 231.634 322.739 231.426 322.432C231.222 322.125 230.972 321.867 230.676 321.659C230.384 321.447 230.061 321.288 229.705 321.182C229.348 321.076 228.977 321.023 228.591 321.023C227.886 321.023 227.248 321.201 226.676 321.557C226.108 321.913 225.655 322.438 225.318 323.131C224.985 323.824 224.818 324.674 224.818 325.682C224.818 326.689 224.985 327.54 225.318 328.233C225.655 328.926 226.108 329.451 226.676 329.807C227.248 330.163 227.886 330.341 228.591 330.341C228.977 330.341 229.348 330.288 229.705 330.182C230.061 330.076 230.384 329.919 230.676 329.71C230.972 329.498 231.222 329.239 231.426 328.932C231.634 328.621 231.78 328.265 231.864 327.864H233.273C233.167 328.458 232.973 328.991 232.693 329.46C232.413 329.93 232.064 330.33 231.648 330.659C231.231 330.985 230.763 331.233 230.244 331.403C229.729 331.574 229.178 331.659 228.591 331.659C227.598 331.659 226.716 331.417 225.943 330.932C225.17 330.447 224.563 329.758 224.119 328.864C223.676 327.97 223.455 326.909 223.455 325.682C223.455 324.455 223.676 323.394 224.119 322.5C224.563 321.606 225.17 320.917 225.943 320.432C226.716 319.947 227.598 319.705 228.591 319.705C229.178 319.705 229.729 319.79 230.244 319.96C230.763 320.131 231.231 320.381 231.648 320.71C232.064 321.036 232.413 321.434 232.693 321.903C232.973 322.369 233.167 322.902 233.273 323.5ZM236.709 326.25V331.5H235.368V319.864H236.709V324.136H236.822C237.027 323.686 237.334 323.328 237.743 323.062C238.156 322.794 238.705 322.659 239.391 322.659C239.985 322.659 240.506 322.778 240.953 323.017C241.4 323.252 241.747 323.614 241.993 324.102C242.243 324.587 242.368 325.205 242.368 325.955V331.5H241.027V326.045C241.027 325.352 240.847 324.816 240.487 324.438C240.131 324.055 239.637 323.864 239.004 323.864C238.565 323.864 238.171 323.956 237.822 324.142C237.478 324.328 237.205 324.598 237.004 324.955C236.807 325.311 236.709 325.742 236.709 326.25ZM248.48 331.682C247.639 331.682 246.914 331.496 246.304 331.125C245.698 330.75 245.23 330.227 244.901 329.557C244.575 328.883 244.412 328.098 244.412 327.205C244.412 326.311 244.575 325.523 244.901 324.841C245.23 324.155 245.688 323.621 246.276 323.239C246.866 322.852 247.556 322.659 248.344 322.659C248.798 322.659 249.247 322.735 249.69 322.886C250.134 323.038 250.537 323.284 250.901 323.625C251.264 323.962 251.554 324.409 251.77 324.966C251.986 325.523 252.094 326.208 252.094 327.023V327.591H245.366V326.432H250.73C250.73 325.939 250.632 325.5 250.435 325.114C250.241 324.727 249.965 324.422 249.605 324.199C249.249 323.975 248.829 323.864 248.344 323.864C247.81 323.864 247.348 323.996 246.957 324.261C246.571 324.523 246.274 324.864 246.065 325.284C245.857 325.705 245.753 326.155 245.753 326.636V327.409C245.753 328.068 245.866 328.627 246.094 329.085C246.325 329.54 246.645 329.886 247.054 330.125C247.463 330.36 247.938 330.477 248.48 330.477C248.832 330.477 249.151 330.428 249.435 330.33C249.723 330.227 249.971 330.076 250.179 329.875C250.387 329.67 250.548 329.417 250.662 329.114L251.957 329.477C251.821 329.917 251.592 330.303 251.27 330.636C250.948 330.966 250.55 331.223 250.077 331.409C249.603 331.591 249.071 331.682 248.48 331.682ZM257.679 331.682C256.861 331.682 256.156 331.489 255.565 331.102C254.974 330.716 254.52 330.184 254.202 329.506C253.884 328.828 253.724 328.053 253.724 327.182C253.724 326.295 253.887 325.513 254.213 324.835C254.543 324.153 255.001 323.621 255.588 323.239C256.179 322.852 256.868 322.659 257.656 322.659C258.27 322.659 258.823 322.773 259.315 323C259.808 323.227 260.211 323.545 260.526 323.955C260.84 324.364 261.035 324.841 261.111 325.386H259.77C259.668 324.989 259.44 324.636 259.088 324.33C258.74 324.019 258.27 323.864 257.679 323.864C257.156 323.864 256.698 324 256.304 324.273C255.914 324.542 255.609 324.922 255.389 325.415C255.173 325.903 255.065 326.477 255.065 327.136C255.065 327.811 255.171 328.398 255.384 328.898C255.599 329.398 255.902 329.786 256.293 330.062C256.687 330.339 257.149 330.477 257.679 330.477C258.027 330.477 258.344 330.417 258.628 330.295C258.912 330.174 259.152 330 259.349 329.773C259.546 329.545 259.687 329.273 259.77 328.955H261.111C261.035 329.47 260.848 329.934 260.548 330.347C260.253 330.756 259.861 331.081 259.372 331.324C258.887 331.562 258.323 331.682 257.679 331.682ZM264.321 328.318L264.298 326.659H264.571L268.389 322.773H270.048L265.98 326.886H265.866L264.321 328.318ZM263.071 331.5V319.864H264.412V331.5H263.071ZM268.616 331.5L265.207 327.182L266.162 326.25L270.321 331.5H268.616ZM274.96 331.682C274.172 331.682 273.481 331.494 272.886 331.119C272.295 330.744 271.833 330.22 271.5 329.545C271.17 328.871 271.006 328.083 271.006 327.182C271.006 326.273 271.17 325.479 271.5 324.801C271.833 324.123 272.295 323.597 272.886 323.222C273.481 322.847 274.172 322.659 274.96 322.659C275.748 322.659 276.438 322.847 277.028 323.222C277.623 323.597 278.085 324.123 278.415 324.801C278.748 325.479 278.915 326.273 278.915 327.182C278.915 328.083 278.748 328.871 278.415 329.545C278.085 330.22 277.623 330.744 277.028 331.119C276.438 331.494 275.748 331.682 274.96 331.682ZM274.96 330.477C275.559 330.477 276.051 330.324 276.438 330.017C276.824 329.71 277.11 329.307 277.295 328.807C277.481 328.307 277.574 327.765 277.574 327.182C277.574 326.598 277.481 326.055 277.295 325.551C277.11 325.047 276.824 324.64 276.438 324.33C276.051 324.019 275.559 323.864 274.96 323.864C274.362 323.864 273.869 324.019 273.483 324.33C273.097 324.64 272.811 325.047 272.625 325.551C272.439 326.055 272.347 326.598 272.347 327.182C272.347 327.765 272.439 328.307 272.625 328.807C272.811 329.307 273.097 329.71 273.483 330.017C273.869 330.324 274.362 330.477 274.96 330.477ZM286.462 327.932V322.773H287.803V331.5H286.462V330.023H286.371C286.166 330.466 285.848 330.843 285.416 331.153C284.984 331.46 284.439 331.614 283.78 331.614C283.234 331.614 282.75 331.494 282.325 331.256C281.901 331.013 281.568 330.65 281.325 330.165C281.083 329.676 280.962 329.061 280.962 328.318V322.773H282.303V328.227C282.303 328.864 282.481 329.371 282.837 329.75C283.196 330.129 283.655 330.318 284.212 330.318C284.545 330.318 284.884 330.233 285.229 330.062C285.577 329.892 285.869 329.631 286.104 329.278C286.342 328.926 286.462 328.477 286.462 327.932ZM294.054 322.773V323.909H289.531V322.773H294.054ZM290.849 320.682H292.19V329C292.19 329.379 292.245 329.663 292.355 329.852C292.469 330.038 292.613 330.163 292.787 330.227C292.965 330.288 293.152 330.318 293.349 330.318C293.497 330.318 293.618 330.311 293.713 330.295C293.808 330.277 293.884 330.261 293.94 330.25L294.213 331.455C294.122 331.489 293.995 331.523 293.832 331.557C293.67 331.595 293.463 331.614 293.213 331.614C292.834 331.614 292.463 331.532 292.099 331.369C291.74 331.206 291.44 330.958 291.202 330.625C290.967 330.292 290.849 329.871 290.849 329.364V320.682Z" fill="black"/>
</svg>
