<svg width="518" height="342" viewBox="0 0 518 342" fill="none" xmlns="http://www.w3.org/2000/svg">
<rect x="160.5" y="0.5" width="197" height="31" rx="7.5" fill="#F8F8F8"/>
<rect x="160.5" y="0.5" width="197" height="31" rx="7.5" stroke="#EFEFEF"/>
<path d="M214.773 11.1136V9.86364H223.5V11.1136H219.841V21.5H218.432V11.1136H214.773ZM224.587 21.5V12.7727H225.882V14.0909H225.973C226.132 13.6591 226.42 13.3087 226.837 13.0398C227.253 12.7708 227.723 12.6364 228.246 12.6364C228.344 12.6364 228.467 12.6383 228.615 12.642C228.763 12.6458 228.875 12.6515 228.95 12.6591V14.0227C228.905 14.0114 228.801 13.9943 228.638 13.9716C228.479 13.9451 228.31 13.9318 228.132 13.9318C227.708 13.9318 227.329 14.0208 226.996 14.1989C226.666 14.3731 226.405 14.6155 226.212 14.9261C226.022 15.233 225.928 15.5833 225.928 15.9773V21.5H224.587ZM230.54 21.5V12.7727H231.881V21.5H230.54ZM231.222 11.3182C230.96 11.3182 230.735 11.2292 230.545 11.0511C230.36 10.8731 230.267 10.6591 230.267 10.4091C230.267 10.1591 230.36 9.94508 230.545 9.76705C230.735 9.58902 230.96 9.5 231.222 9.5C231.483 9.5 231.706 9.58902 231.892 9.76705C232.081 9.94508 232.176 10.1591 232.176 10.4091C232.176 10.6591 232.081 10.8731 231.892 11.0511C231.706 11.2292 231.483 11.3182 231.222 11.3182ZM234.337 24.7727V12.7727H235.632V14.1591H235.791C235.89 14.0076 236.026 13.8144 236.2 13.5795C236.378 13.3409 236.632 13.1288 236.962 12.9432C237.295 12.7538 237.746 12.6591 238.314 12.6591C239.049 12.6591 239.696 12.8428 240.257 13.2102C240.818 13.5777 241.255 14.0985 241.57 14.7727C241.884 15.447 242.041 16.2424 242.041 17.1591C242.041 18.0833 241.884 18.8845 241.57 19.5625C241.255 20.2367 240.82 20.7595 240.263 21.1307C239.706 21.4981 239.064 21.6818 238.337 21.6818C237.776 21.6818 237.327 21.589 236.99 21.4034C236.653 21.214 236.393 21 236.212 20.7614C236.03 20.5189 235.89 20.3182 235.791 20.1591H235.678V24.7727H234.337ZM235.655 17.1364C235.655 17.7955 235.751 18.3769 235.945 18.8807C236.138 19.3807 236.42 19.7727 236.791 20.0568C237.162 20.3371 237.617 20.4773 238.155 20.4773C238.715 20.4773 239.183 20.3295 239.558 20.0341C239.937 19.7348 240.221 19.3333 240.411 18.8295C240.604 18.322 240.7 17.7576 240.7 17.1364C240.7 16.5227 240.606 15.9697 240.416 15.4773C240.231 14.9811 239.948 14.589 239.57 14.3011C239.195 14.0095 238.723 13.8636 238.155 13.8636C237.609 13.8636 237.151 14.0019 236.78 14.2784C236.409 14.5511 236.128 14.9337 235.939 15.4261C235.75 15.9148 235.655 16.4848 235.655 17.1364ZM248.768 21.5V9.86364H250.109V14.1591H250.223C250.321 14.0076 250.458 13.8144 250.632 13.5795C250.81 13.3409 251.064 13.1288 251.393 12.9432C251.727 12.7538 252.178 12.6591 252.746 12.6591C253.481 12.6591 254.128 12.8428 254.689 13.2102C255.25 13.5777 255.687 14.0985 256.001 14.7727C256.316 15.447 256.473 16.2424 256.473 17.1591C256.473 18.0833 256.316 18.8845 256.001 19.5625C255.687 20.2367 255.251 20.7595 254.695 21.1307C254.138 21.4981 253.496 21.6818 252.768 21.6818C252.208 21.6818 251.759 21.589 251.422 21.4034C251.085 21.214 250.825 21 250.643 20.7614C250.462 20.5189 250.321 20.3182 250.223 20.1591H250.064V21.5H248.768ZM250.087 17.1364C250.087 17.7955 250.183 18.3769 250.376 18.8807C250.57 19.3807 250.852 19.7727 251.223 20.0568C251.594 20.3371 252.049 20.4773 252.587 20.4773C253.147 20.4773 253.615 20.3295 253.99 20.0341C254.369 19.7348 254.653 19.3333 254.842 18.8295C255.036 18.322 255.132 17.7576 255.132 17.1364C255.132 16.5227 255.037 15.9697 254.848 15.4773C254.662 14.9811 254.38 14.589 254.001 14.3011C253.626 14.0095 253.155 13.8636 252.587 13.8636C252.041 13.8636 251.583 14.0019 251.212 14.2784C250.84 14.5511 250.56 14.9337 250.371 15.4261C250.181 15.9148 250.087 16.4848 250.087 17.1364ZM262.07 21.6818C261.282 21.6818 260.59 21.4943 259.996 21.1193C259.405 20.7443 258.943 20.2197 258.609 19.5455C258.28 18.8712 258.115 18.0833 258.115 17.1818C258.115 16.2727 258.28 15.4792 258.609 14.8011C258.943 14.1231 259.405 13.5966 259.996 13.2216C260.59 12.8466 261.282 12.6591 262.07 12.6591C262.857 12.6591 263.547 12.8466 264.138 13.2216C264.732 13.5966 265.195 14.1231 265.524 14.8011C265.857 15.4792 266.024 16.2727 266.024 17.1818C266.024 18.0833 265.857 18.8712 265.524 19.5455C265.195 20.2197 264.732 20.7443 264.138 21.1193C263.547 21.4943 262.857 21.6818 262.07 21.6818ZM262.07 20.4773C262.668 20.4773 263.161 20.3239 263.547 20.017C263.933 19.7102 264.219 19.3068 264.405 18.8068C264.59 18.3068 264.683 17.7652 264.683 17.1818C264.683 16.5985 264.59 16.0549 264.405 15.5511C264.219 15.0473 263.933 14.6402 263.547 14.3295C263.161 14.0189 262.668 13.8636 262.07 13.8636C261.471 13.8636 260.979 14.0189 260.592 14.3295C260.206 14.6402 259.92 15.0473 259.734 15.5511C259.549 16.0549 259.456 16.5985 259.456 17.1818C259.456 17.7652 259.549 18.3068 259.734 18.8068C259.92 19.3068 260.206 19.7102 260.592 20.017C260.979 20.3239 261.471 20.4773 262.07 20.4773ZM271.616 21.6818C270.829 21.6818 270.137 21.4943 269.543 21.1193C268.952 20.7443 268.49 20.2197 268.156 19.5455C267.827 18.8712 267.662 18.0833 267.662 17.1818C267.662 16.2727 267.827 15.4792 268.156 14.8011C268.49 14.1231 268.952 13.5966 269.543 13.2216C270.137 12.8466 270.829 12.6591 271.616 12.6591C272.404 12.6591 273.094 12.8466 273.685 13.2216C274.279 13.5966 274.741 14.1231 275.071 14.8011C275.404 15.4792 275.571 16.2727 275.571 17.1818C275.571 18.0833 275.404 18.8712 275.071 19.5455C274.741 20.2197 274.279 20.7443 273.685 21.1193C273.094 21.4943 272.404 21.6818 271.616 21.6818ZM271.616 20.4773C272.215 20.4773 272.707 20.3239 273.094 20.017C273.48 19.7102 273.766 19.3068 273.952 18.8068C274.137 18.3068 274.23 17.7652 274.23 17.1818C274.23 16.5985 274.137 16.0549 273.952 15.5511C273.766 15.0473 273.48 14.6402 273.094 14.3295C272.707 14.0189 272.215 13.8636 271.616 13.8636C271.018 13.8636 270.526 14.0189 270.139 14.3295C269.753 14.6402 269.467 15.0473 269.281 15.5511C269.096 16.0549 269.003 16.5985 269.003 17.1818C269.003 17.7652 269.096 18.3068 269.281 18.8068C269.467 19.3068 269.753 19.7102 270.139 20.017C270.526 20.3239 271.018 20.4773 271.616 20.4773ZM278.868 18.3182L278.845 16.6591H279.118L282.936 12.7727H284.595L280.527 16.8864H280.413L278.868 18.3182ZM277.618 21.5V9.86364H278.959V21.5H277.618ZM283.163 21.5L279.754 17.1818L280.709 16.25L284.868 21.5H283.163ZM289.621 21.6818C288.78 21.6818 288.054 21.4962 287.445 21.125C286.839 20.75 286.371 20.2273 286.041 19.5568C285.715 18.8826 285.553 18.0985 285.553 17.2045C285.553 16.3106 285.715 15.5227 286.041 14.8409C286.371 14.1553 286.829 13.6212 287.416 13.2386C288.007 12.8523 288.696 12.6591 289.484 12.6591C289.939 12.6591 290.388 12.7348 290.831 12.8864C291.274 13.0379 291.678 13.2841 292.041 13.625C292.405 13.9621 292.695 14.4091 292.911 14.9659C293.126 15.5227 293.234 16.2083 293.234 17.0227V17.5909H286.507V16.4318H291.871C291.871 15.9394 291.772 15.5 291.575 15.1136C291.382 14.7273 291.106 14.4223 290.746 14.1989C290.39 13.9754 289.969 13.8636 289.484 13.8636C288.95 13.8636 288.488 13.9962 288.098 14.2614C287.712 14.5227 287.414 14.8636 287.206 15.2841C286.998 15.7045 286.893 16.1553 286.893 16.6364V17.4091C286.893 18.0682 287.007 18.6269 287.234 19.0852C287.465 19.5398 287.786 19.8864 288.195 20.125C288.604 20.3598 289.079 20.4773 289.621 20.4773C289.973 20.4773 290.291 20.428 290.575 20.3295C290.863 20.2273 291.111 20.0758 291.32 19.875C291.528 19.6705 291.689 19.4167 291.803 19.1136L293.098 19.4773C292.962 19.9167 292.732 20.303 292.411 20.6364C292.089 20.9659 291.691 21.2235 291.217 21.4091C290.744 21.5909 290.212 21.6818 289.621 21.6818ZM298.57 21.6818C297.842 21.6818 297.2 21.4981 296.643 21.1307C296.087 20.7595 295.651 20.2367 295.337 19.5625C295.022 18.8845 294.865 18.0833 294.865 17.1591C294.865 16.2424 295.022 15.447 295.337 14.7727C295.651 14.0985 296.089 13.5777 296.649 13.2102C297.21 12.8428 297.857 12.6591 298.592 12.6591C299.161 12.6591 299.609 12.7538 299.939 12.9432C300.272 13.1288 300.526 13.3409 300.7 13.5795C300.878 13.8144 301.017 14.0076 301.115 14.1591H301.229V9.86364H302.57V21.5H301.274V20.1591H301.115C301.017 20.3182 300.876 20.5189 300.695 20.7614C300.513 21 300.253 21.214 299.916 21.4034C299.579 21.589 299.13 21.6818 298.57 21.6818ZM298.751 20.4773C299.289 20.4773 299.744 20.3371 300.115 20.0568C300.486 19.7727 300.768 19.3807 300.962 18.8807C301.155 18.3769 301.251 17.7955 301.251 17.1364C301.251 16.4848 301.157 15.9148 300.967 15.4261C300.778 14.9337 300.498 14.5511 300.126 14.2784C299.755 14.0019 299.297 13.8636 298.751 13.8636C298.183 13.8636 297.71 14.0095 297.331 14.3011C296.956 14.589 296.674 14.9811 296.484 15.4773C296.299 15.9697 296.206 16.5227 296.206 17.1364C296.206 17.7576 296.301 18.322 296.49 18.8295C296.683 19.3333 296.967 19.7348 297.342 20.0341C297.721 20.3295 298.191 20.4773 298.751 20.4773Z" fill="black"/>
<path fill-rule="evenodd" clip-rule="evenodd" d="M259.599 34C259.748 34 259.869 34.0694 259.869 34.1551L259.869 54.962C259.869 55.0476 259.748 55.117 259.599 55.117C259.449 55.117 259.328 55.0476 259.328 54.962L259.328 34.1551C259.328 34.0694 259.449 34 259.599 34Z" fill="#505050"/>
<path fill-rule="evenodd" clip-rule="evenodd" d="M262.765 49.5321C262.931 49.5716 263.032 49.7317 262.991 49.8897C262.893 50.2629 262.794 50.6352 262.695 51.007C262.159 53.029 261.626 55.0361 261.247 57.0801C261.23 57.1748 261.212 57.3034 261.19 57.4606C261.169 57.6077 261.145 57.7798 261.115 57.9725C261.055 58.3517 260.973 58.7851 260.853 59.1422C260.794 59.3202 260.72 59.4932 260.627 59.6349C260.537 59.7713 260.401 59.9188 260.201 59.9762C259.982 60.0391 259.773 59.9707 259.603 59.8474C259.438 59.7286 259.281 59.542 259.124 59.299C258.501 58.3308 258.039 57.2521 257.62 56.1753C257.502 55.8736 257.388 55.573 257.276 55.2747C256.982 54.4994 256.695 53.7397 256.364 53.0176C256.348 52.9828 256.313 52.9044 256.264 52.7949C256.131 52.494 255.893 51.9582 255.656 51.4466C255.495 51.1009 255.341 50.7792 255.228 50.5668C255.201 50.5177 255.179 50.4779 255.161 50.4467C255.065 50.3966 255 50.2995 255 50.1879C255 50.1684 255 50.1062 255.033 50.0401C255.051 50.0025 255.089 49.9447 255.163 49.9042C255.242 49.8608 255.324 49.858 255.387 49.8704C255.484 49.8896 255.544 49.9465 255.558 49.9598L255.559 49.9606C255.582 49.9828 255.601 50.006 255.614 50.0233C255.664 50.0891 255.722 50.1914 255.78 50.3002C255.901 50.5277 256.061 50.8619 256.222 51.2082C256.463 51.7265 256.718 52.3015 256.849 52.5958C256.891 52.6911 256.92 52.7569 256.932 52.7818C257.271 53.5229 257.569 54.3105 257.865 55.0925C257.977 55.3868 258.088 55.6804 258.2 55.9704C258.617 57.04 259.062 58.0739 259.652 58.9908C259.792 59.2078 259.901 59.323 259.977 59.3774C260.002 59.3953 260.018 59.4036 260.028 59.4074C260.04 59.3989 260.066 59.3761 260.103 59.3209C260.157 59.239 260.211 59.1187 260.263 58.9632C260.367 58.6533 260.443 58.2587 260.502 57.8847C260.528 57.7207 260.552 57.5538 260.573 57.4035C260.597 57.229 260.619 57.0769 260.637 56.9777C261.02 54.9106 261.559 52.8796 262.096 50.8581C262.194 50.4874 262.292 50.1169 262.39 49.7467C262.431 49.5887 262.599 49.4926 262.765 49.5321ZM260.039 59.4103C260.039 59.4105 260.037 59.4105 260.034 59.4097C260.037 59.4096 260.039 59.41 260.039 59.4103ZM255.11 50.3666C255.11 50.3666 255.11 50.3669 255.111 50.3674C255.11 50.3669 255.11 50.3667 255.11 50.3666Z" fill="#505050"/>
<rect x="160.5" y="62.5" width="197" height="31" rx="7.5" fill="#F8F8F8"/>
<rect x="160.5" y="62.5" width="197" height="31" rx="7.5" stroke="#EFEFEF"/>
<path d="M208.636 71.8636V83.5H207.273L200.932 74.3636H200.818V83.5H199.409V71.8636H200.773L207.136 81.0227H207.25V71.8636H208.636ZM214.933 83.6818C214.092 83.6818 213.367 83.4962 212.757 83.125C212.151 82.75 211.683 82.2273 211.354 81.5568C211.028 80.8826 210.865 80.0985 210.865 79.2045C210.865 78.3106 211.028 77.5227 211.354 76.8409C211.683 76.1553 212.142 75.6212 212.729 75.2386C213.32 74.8523 214.009 74.6591 214.797 74.6591C215.251 74.6591 215.7 74.7348 216.143 74.8864C216.587 75.0379 216.99 75.2841 217.354 75.625C217.717 75.9621 218.007 76.4091 218.223 76.9659C218.439 77.5227 218.547 78.2083 218.547 79.0227V79.5909H211.82V78.4318H217.183C217.183 77.9394 217.085 77.5 216.888 77.1136C216.695 76.7273 216.418 76.4223 216.058 76.1989C215.702 75.9754 215.282 75.8636 214.797 75.8636C214.263 75.8636 213.801 75.9962 213.411 76.2614C213.024 76.5227 212.727 76.8636 212.518 77.2841C212.31 77.7045 212.206 78.1553 212.206 78.6364V79.4091C212.206 80.0682 212.32 80.6269 212.547 81.0852C212.778 81.5398 213.098 81.8864 213.507 82.125C213.916 82.3598 214.392 82.4773 214.933 82.4773C215.286 82.4773 215.604 82.428 215.888 82.3295C216.176 82.2273 216.424 82.0758 216.632 81.875C216.84 81.6705 217.001 81.4167 217.115 81.1136L218.411 81.4773C218.274 81.9167 218.045 82.303 217.723 82.6364C217.401 82.9659 217.003 83.2235 216.53 83.4091C216.056 83.5909 215.524 83.6818 214.933 83.6818ZM224.246 83.6818C223.405 83.6818 222.679 83.4962 222.07 83.125C221.464 82.75 220.996 82.2273 220.666 81.5568C220.34 80.8826 220.178 80.0985 220.178 79.2045C220.178 78.3106 220.34 77.5227 220.666 76.8409C220.996 76.1553 221.454 75.6212 222.041 75.2386C222.632 74.8523 223.321 74.6591 224.109 74.6591C224.564 74.6591 225.013 74.7348 225.456 74.8864C225.899 75.0379 226.303 75.2841 226.666 75.625C227.03 75.9621 227.32 76.4091 227.536 76.9659C227.751 77.5227 227.859 78.2083 227.859 79.0227V79.5909H221.132V78.4318H226.496C226.496 77.9394 226.397 77.5 226.2 77.1136C226.007 76.7273 225.731 76.4223 225.371 76.1989C225.015 75.9754 224.594 75.8636 224.109 75.8636C223.575 75.8636 223.113 75.9962 222.723 76.2614C222.337 76.5227 222.039 76.8636 221.831 77.2841C221.623 77.7045 221.518 78.1553 221.518 78.6364V79.4091C221.518 80.0682 221.632 80.6269 221.859 81.0852C222.09 81.5398 222.411 81.8864 222.82 82.125C223.229 82.3598 223.704 82.4773 224.246 82.4773C224.598 82.4773 224.916 82.428 225.2 82.3295C225.488 82.2273 225.736 82.0758 225.945 81.875C226.153 81.6705 226.314 81.4167 226.428 81.1136L227.723 81.4773C227.587 81.9167 227.357 82.303 227.036 82.6364C226.714 82.9659 226.316 83.2235 225.842 83.4091C225.369 83.5909 224.837 83.6818 224.246 83.6818ZM233.195 83.6818C232.467 83.6818 231.825 83.4981 231.268 83.1307C230.712 82.7595 230.276 82.2367 229.962 81.5625C229.647 80.8845 229.49 80.0833 229.49 79.1591C229.49 78.2424 229.647 77.447 229.962 76.7727C230.276 76.0985 230.714 75.5777 231.274 75.2102C231.835 74.8428 232.482 74.6591 233.217 74.6591C233.786 74.6591 234.234 74.7538 234.564 74.9432C234.897 75.1288 235.151 75.3409 235.325 75.5795C235.503 75.8144 235.642 76.0076 235.74 76.1591H235.854V71.8636H237.195V83.5H235.899V82.1591H235.74C235.642 82.3182 235.501 82.5189 235.32 82.7614C235.138 83 234.878 83.214 234.541 83.4034C234.204 83.589 233.755 83.6818 233.195 83.6818ZM233.376 82.4773C233.914 82.4773 234.369 82.3371 234.74 82.0568C235.111 81.7727 235.393 81.3807 235.587 80.8807C235.78 80.3769 235.876 79.7955 235.876 79.1364C235.876 78.4848 235.782 77.9148 235.592 77.4261C235.403 76.9337 235.123 76.5511 234.751 76.2784C234.38 76.0019 233.922 75.8636 233.376 75.8636C232.808 75.8636 232.335 76.0095 231.956 76.3011C231.581 76.589 231.299 76.9811 231.109 77.4773C230.924 77.9697 230.831 78.5227 230.831 79.1364C230.831 79.7576 230.926 80.322 231.115 80.8295C231.308 81.3333 231.592 81.7348 231.967 82.0341C232.346 82.3295 232.816 82.4773 233.376 82.4773ZM244.518 83.5V71.8636H245.859V76.1591H245.973C246.071 76.0076 246.208 75.8144 246.382 75.5795C246.56 75.3409 246.814 75.1288 247.143 74.9432C247.477 74.7538 247.928 74.6591 248.496 74.6591C249.231 74.6591 249.878 74.8428 250.439 75.2102C251 75.5777 251.437 76.0985 251.751 76.7727C252.066 77.447 252.223 78.2424 252.223 79.1591C252.223 80.0833 252.066 80.8845 251.751 81.5625C251.437 82.2367 251.001 82.7595 250.445 83.1307C249.888 83.4981 249.246 83.6818 248.518 83.6818C247.958 83.6818 247.509 83.589 247.172 83.4034C246.835 83.214 246.575 83 246.393 82.7614C246.212 82.5189 246.071 82.3182 245.973 82.1591H245.814V83.5H244.518ZM245.837 79.1364C245.837 79.7955 245.933 80.3769 246.126 80.8807C246.32 81.3807 246.602 81.7727 246.973 82.0568C247.344 82.3371 247.799 82.4773 248.337 82.4773C248.897 82.4773 249.365 82.3295 249.74 82.0341C250.119 81.7348 250.403 81.3333 250.592 80.8295C250.786 80.322 250.882 79.7576 250.882 79.1364C250.882 78.5227 250.787 77.9697 250.598 77.4773C250.412 76.9811 250.13 76.589 249.751 76.3011C249.376 76.0095 248.905 75.8636 248.337 75.8636C247.791 75.8636 247.333 76.0019 246.962 76.2784C246.59 76.5511 246.31 76.9337 246.121 77.4261C245.931 77.9148 245.837 78.4848 245.837 79.1364ZM256.842 83.7045C256.289 83.7045 255.787 83.6004 255.337 83.392C254.886 83.1799 254.528 82.875 254.263 82.4773C253.998 82.0758 253.865 81.5909 253.865 81.0227C253.865 80.5227 253.964 80.1174 254.161 79.8068C254.357 79.4924 254.621 79.2462 254.95 79.0682C255.28 78.8902 255.643 78.7576 256.041 78.6705C256.443 78.5795 256.846 78.5076 257.251 78.4545C257.782 78.3864 258.212 78.3352 258.541 78.3011C258.875 78.2633 259.117 78.2008 259.268 78.1136C259.424 78.0265 259.501 77.875 259.501 77.6591V77.6136C259.501 77.053 259.348 76.6174 259.041 76.3068C258.738 75.9962 258.278 75.8409 257.661 75.8409C257.02 75.8409 256.518 75.9811 256.155 76.2614C255.791 76.5417 255.536 76.8409 255.388 77.1591L254.115 76.7045C254.342 76.1742 254.645 75.7614 255.024 75.4659C255.407 75.1667 255.823 74.9583 256.274 74.8409C256.729 74.7197 257.176 74.6591 257.615 74.6591C257.895 74.6591 258.217 74.6932 258.581 74.7614C258.948 74.8258 259.303 74.9602 259.643 75.1648C259.988 75.3693 260.274 75.678 260.501 76.0909C260.729 76.5038 260.842 77.0568 260.842 77.75V83.5H259.501V82.3182H259.433C259.342 82.5076 259.191 82.7102 258.979 82.9261C258.767 83.142 258.484 83.3258 258.132 83.4773C257.78 83.6288 257.35 83.7045 256.842 83.7045ZM257.047 82.5C257.577 82.5 258.024 82.3958 258.388 82.1875C258.755 81.9792 259.032 81.7102 259.217 81.3807C259.407 81.0511 259.501 80.7045 259.501 80.3409V79.1136C259.445 79.1818 259.32 79.2443 259.126 79.3011C258.937 79.3542 258.717 79.4015 258.467 79.4432C258.221 79.4811 257.981 79.5152 257.746 79.5455C257.515 79.572 257.327 79.5947 257.183 79.6136C256.835 79.6591 256.509 79.733 256.206 79.8352C255.907 79.9337 255.664 80.0833 255.479 80.2841C255.297 80.4811 255.206 80.75 255.206 81.0909C255.206 81.5568 255.378 81.9091 255.723 82.1477C256.071 82.3826 256.513 82.5 257.047 82.5ZM263.472 83.5V71.8636H264.812V76.1591H264.926C265.025 76.0076 265.161 75.8144 265.335 75.5795C265.513 75.3409 265.767 75.1288 266.097 74.9432C266.43 74.7538 266.881 74.6591 267.449 74.6591C268.184 74.6591 268.831 74.8428 269.392 75.2102C269.953 75.5777 270.39 76.0985 270.705 76.7727C271.019 77.447 271.176 78.2424 271.176 79.1591C271.176 80.0833 271.019 80.8845 270.705 81.5625C270.39 82.2367 269.955 82.7595 269.398 83.1307C268.841 83.4981 268.199 83.6818 267.472 83.6818C266.911 83.6818 266.462 83.589 266.125 83.4034C265.788 83.214 265.528 83 265.347 82.7614C265.165 82.5189 265.025 82.3182 264.926 82.1591H264.767V83.5H263.472ZM264.79 79.1364C264.79 79.7955 264.886 80.3769 265.08 80.8807C265.273 81.3807 265.555 81.7727 265.926 82.0568C266.297 82.3371 266.752 82.4773 267.29 82.4773C267.85 82.4773 268.318 82.3295 268.693 82.0341C269.072 81.7348 269.356 81.3333 269.545 80.8295C269.739 80.322 269.835 79.7576 269.835 79.1364C269.835 78.5227 269.741 77.9697 269.551 77.4773C269.366 76.9811 269.083 76.589 268.705 76.3011C268.33 76.0095 267.858 75.8636 267.29 75.8636C266.744 75.8636 266.286 76.0019 265.915 76.2784C265.544 76.5511 265.263 76.9337 265.074 77.4261C264.884 77.9148 264.79 78.4848 264.79 79.1364ZM273.778 86.7727C273.551 86.7727 273.348 86.7538 273.17 86.7159C272.992 86.6818 272.869 86.6477 272.801 86.6136L273.142 85.4318C273.468 85.5152 273.756 85.5455 274.006 85.5227C274.256 85.5 274.477 85.3883 274.67 85.1875C274.867 84.9905 275.047 84.6705 275.21 84.2273L275.46 83.5455L272.233 74.7727H273.688L276.097 81.7273H276.188L278.597 74.7727H280.051L276.347 84.7727C276.18 85.2235 275.973 85.5966 275.727 85.892C275.481 86.1913 275.195 86.4129 274.869 86.5568C274.547 86.7008 274.184 86.7727 273.778 86.7727ZM289.844 86.9545C289.196 86.9545 288.639 86.8712 288.173 86.7045C287.707 86.5417 287.319 86.3258 287.009 86.0568C286.702 85.7917 286.457 85.5076 286.276 85.2045L287.344 84.4545C287.465 84.6136 287.618 84.7955 287.804 85C287.99 85.2083 288.243 85.3883 288.565 85.5398C288.891 85.6951 289.317 85.7727 289.844 85.7727C290.548 85.7727 291.13 85.6023 291.588 85.2614C292.046 84.9205 292.276 84.3864 292.276 83.6591V81.8864H292.162C292.063 82.0455 291.923 82.2424 291.741 82.4773C291.563 82.7083 291.306 82.9148 290.969 83.0966C290.635 83.2746 290.185 83.3636 289.616 83.3636C288.912 83.3636 288.279 83.197 287.719 82.8636C287.162 82.5303 286.721 82.0455 286.395 81.4091C286.073 80.7727 285.912 80 285.912 79.0909C285.912 78.197 286.069 77.4186 286.384 76.7557C286.698 76.089 287.135 75.5739 287.696 75.2102C288.257 74.8428 288.904 74.6591 289.639 74.6591C290.207 74.6591 290.658 74.7538 290.991 74.9432C291.329 75.1288 291.586 75.3409 291.764 75.5795C291.946 75.8144 292.086 76.0076 292.185 76.1591H292.321V74.7727H293.616V83.75C293.616 84.5 293.446 85.1098 293.105 85.5795C292.768 86.053 292.313 86.3996 291.741 86.6193C291.173 86.8428 290.541 86.9545 289.844 86.9545ZM289.798 82.1591C290.336 82.1591 290.791 82.036 291.162 81.7898C291.533 81.5436 291.815 81.1894 292.009 80.7273C292.202 80.2652 292.298 79.7121 292.298 79.0682C292.298 78.4394 292.204 77.8845 292.014 77.4034C291.825 76.9223 291.545 76.5455 291.173 76.2727C290.802 76 290.344 75.8636 289.798 75.8636C289.23 75.8636 288.757 76.0076 288.378 76.2955C288.003 76.5833 287.721 76.9697 287.531 77.4545C287.346 77.9394 287.253 78.4773 287.253 79.0682C287.253 79.6742 287.348 80.2102 287.537 80.6761C287.73 81.1383 288.014 81.5019 288.389 81.767C288.768 82.0284 289.238 82.1591 289.798 82.1591ZM299.73 83.6818C298.889 83.6818 298.164 83.4962 297.554 83.125C296.948 82.75 296.48 82.2273 296.151 81.5568C295.825 80.8826 295.662 80.0985 295.662 79.2045C295.662 78.3106 295.825 77.5227 296.151 76.8409C296.48 76.1553 296.938 75.6212 297.526 75.2386C298.116 74.8523 298.806 74.6591 299.594 74.6591C300.048 74.6591 300.497 74.7348 300.94 74.8864C301.384 75.0379 301.787 75.2841 302.151 75.625C302.514 75.9621 302.804 76.4091 303.02 76.9659C303.236 77.5227 303.344 78.2083 303.344 79.0227V79.5909H296.616V78.4318H301.98C301.98 77.9394 301.882 77.5 301.685 77.1136C301.491 76.7273 301.215 76.4223 300.855 76.1989C300.499 75.9754 300.079 75.8636 299.594 75.8636C299.06 75.8636 298.598 75.9962 298.207 76.2614C297.821 76.5227 297.524 76.8636 297.315 77.2841C297.107 77.7045 297.003 78.1553 297.003 78.6364V79.4091C297.003 80.0682 297.116 80.6269 297.344 81.0852C297.575 81.5398 297.895 81.8864 298.304 82.125C298.713 82.3598 299.188 82.4773 299.73 82.4773C300.082 82.4773 300.401 82.428 300.685 82.3295C300.973 82.2273 301.221 82.0758 301.429 81.875C301.637 81.6705 301.798 81.4167 301.912 81.1136L303.207 81.4773C303.071 81.9167 302.842 82.303 302.52 82.6364C302.198 82.9659 301.8 83.2235 301.327 83.4091C300.853 83.5909 300.321 83.6818 299.73 83.6818ZM307.952 83.7045C307.399 83.7045 306.897 83.6004 306.446 83.392C305.995 83.1799 305.637 82.875 305.372 82.4773C305.107 82.0758 304.974 81.5909 304.974 81.0227C304.974 80.5227 305.073 80.1174 305.27 79.8068C305.467 79.4924 305.73 79.2462 306.06 79.0682C306.389 78.8902 306.753 78.7576 307.151 78.6705C307.552 78.5795 307.955 78.5076 308.361 78.4545C308.891 78.3864 309.321 78.3352 309.651 78.3011C309.984 78.2633 310.226 78.2008 310.378 78.1136C310.533 78.0265 310.611 77.875 310.611 77.6591V77.6136C310.611 77.053 310.457 76.6174 310.151 76.3068C309.848 75.9962 309.387 75.8409 308.77 75.8409C308.13 75.8409 307.628 75.9811 307.264 76.2614C306.901 76.5417 306.645 76.8409 306.497 77.1591L305.224 76.7045C305.452 76.1742 305.755 75.7614 306.134 75.4659C306.516 75.1667 306.933 74.9583 307.384 74.8409C307.838 74.7197 308.285 74.6591 308.724 74.6591C309.005 74.6591 309.327 74.6932 309.69 74.7614C310.058 74.8258 310.412 74.9602 310.753 75.1648C311.098 75.3693 311.384 75.678 311.611 76.0909C311.838 76.5038 311.952 77.0568 311.952 77.75V83.5H310.611V82.3182H310.543C310.452 82.5076 310.3 82.7102 310.088 82.9261C309.876 83.142 309.594 83.3258 309.241 83.4773C308.889 83.6288 308.459 83.7045 307.952 83.7045ZM308.156 82.5C308.687 82.5 309.134 82.3958 309.497 82.1875C309.865 81.9792 310.141 81.7102 310.327 81.3807C310.516 81.0511 310.611 80.7045 310.611 80.3409V79.1136C310.554 79.1818 310.429 79.2443 310.236 79.3011C310.046 79.3542 309.827 79.4015 309.577 79.4432C309.33 79.4811 309.09 79.5152 308.855 79.5455C308.624 79.572 308.437 79.5947 308.293 79.6136C307.944 79.6591 307.618 79.733 307.315 79.8352C307.016 79.9337 306.774 80.0833 306.588 80.2841C306.406 80.4811 306.315 80.75 306.315 81.0909C306.315 81.5568 306.488 81.9091 306.832 82.1477C307.181 82.3826 307.622 82.5 308.156 82.5ZM314.399 83.5V74.7727H315.695V76.0909H315.786C315.945 75.6591 316.232 75.3087 316.649 75.0398C317.066 74.7708 317.536 74.6364 318.058 74.6364C318.157 74.6364 318.28 74.6383 318.428 74.642C318.575 74.6458 318.687 74.6515 318.763 74.6591V76.0227C318.717 76.0114 318.613 75.9943 318.45 75.9716C318.291 75.9451 318.123 75.9318 317.945 75.9318C317.52 75.9318 317.142 76.0208 316.808 76.1989C316.479 76.3731 316.217 76.6155 316.024 76.9261C315.835 77.233 315.74 77.5833 315.74 77.9773V83.5H314.399Z" fill="black"/>
<path fill-rule="evenodd" clip-rule="evenodd" d="M259.599 96C259.748 96 259.869 96.0694 259.869 96.1551L259.869 116.962C259.869 117.048 259.748 117.117 259.599 117.117C259.449 117.117 259.328 117.048 259.328 116.962L259.328 96.1551C259.328 96.0694 259.449 96 259.599 96Z" fill="#505050"/>
<path fill-rule="evenodd" clip-rule="evenodd" d="M262.765 111.532C262.931 111.572 263.032 111.732 262.991 111.89C262.893 112.263 262.794 112.635 262.695 113.007C262.159 115.029 261.626 117.036 261.247 119.08C261.23 119.175 261.212 119.303 261.19 119.461C261.169 119.608 261.145 119.78 261.115 119.972C261.055 120.352 260.973 120.785 260.853 121.142C260.794 121.32 260.72 121.493 260.627 121.635C260.537 121.771 260.401 121.919 260.201 121.976C259.982 122.039 259.773 121.971 259.603 121.847C259.438 121.729 259.281 121.542 259.124 121.299C258.501 120.331 258.039 119.252 257.62 118.175C257.502 117.874 257.388 117.573 257.276 117.275C256.982 116.499 256.695 115.74 256.364 115.018C256.348 114.983 256.313 114.904 256.264 114.795C256.131 114.494 255.893 113.958 255.656 113.447C255.495 113.101 255.341 112.779 255.228 112.567C255.201 112.518 255.179 112.478 255.161 112.447C255.065 112.397 255 112.3 255 112.188C255 112.168 255 112.106 255.033 112.04C255.051 112.002 255.089 111.945 255.163 111.904C255.242 111.861 255.324 111.858 255.387 111.87C255.484 111.89 255.544 111.947 255.558 111.96L255.559 111.961C255.582 111.983 255.601 112.006 255.614 112.023C255.664 112.089 255.722 112.191 255.78 112.3C255.901 112.528 256.061 112.862 256.222 113.208C256.463 113.726 256.718 114.302 256.849 114.596C256.891 114.691 256.92 114.757 256.932 114.782C257.271 115.523 257.569 116.31 257.865 117.092C257.977 117.387 258.088 117.68 258.2 117.97C258.617 119.04 259.062 120.074 259.652 120.991C259.792 121.208 259.901 121.323 259.977 121.377C260.002 121.395 260.018 121.404 260.028 121.407C260.04 121.399 260.066 121.376 260.103 121.321C260.157 121.239 260.211 121.119 260.263 120.963C260.367 120.653 260.443 120.259 260.502 119.885C260.528 119.721 260.552 119.554 260.573 119.404C260.597 119.229 260.619 119.077 260.637 118.978C261.02 116.911 261.559 114.88 262.096 112.858C262.194 112.487 262.292 112.117 262.39 111.747C262.431 111.589 262.599 111.493 262.765 111.532ZM260.039 121.41C260.039 121.41 260.037 121.41 260.034 121.41C260.037 121.41 260.039 121.41 260.039 121.41ZM255.11 112.367C255.11 112.367 255.11 112.367 255.111 112.367C255.11 112.367 255.11 112.367 255.11 112.367Z" fill="#505050"/>
<rect x="160.5" y="124.5" width="197" height="31" rx="7.5" fill="#F8F8F8"/>
<rect x="160.5" y="124.5" width="197" height="31" rx="7.5" stroke="#EFEFEF"/>
<path d="M210.273 137.5H208.864C208.78 137.095 208.634 136.739 208.426 136.432C208.222 136.125 207.972 135.867 207.676 135.659C207.384 135.447 207.061 135.288 206.705 135.182C206.348 135.076 205.977 135.023 205.591 135.023C204.886 135.023 204.248 135.201 203.676 135.557C203.108 135.913 202.655 136.438 202.318 137.131C201.985 137.824 201.818 138.674 201.818 139.682C201.818 140.689 201.985 141.54 202.318 142.233C202.655 142.926 203.108 143.451 203.676 143.807C204.248 144.163 204.886 144.341 205.591 144.341C205.977 144.341 206.348 144.288 206.705 144.182C207.061 144.076 207.384 143.919 207.676 143.71C207.972 143.498 208.222 143.239 208.426 142.932C208.634 142.621 208.78 142.265 208.864 141.864H210.273C210.167 142.458 209.973 142.991 209.693 143.46C209.413 143.93 209.064 144.33 208.648 144.659C208.231 144.985 207.763 145.233 207.244 145.403C206.729 145.574 206.178 145.659 205.591 145.659C204.598 145.659 203.716 145.417 202.943 144.932C202.17 144.447 201.563 143.758 201.119 142.864C200.676 141.97 200.455 140.909 200.455 139.682C200.455 138.455 200.676 137.394 201.119 136.5C201.563 135.606 202.17 134.917 202.943 134.432C203.716 133.947 204.598 133.705 205.591 133.705C206.178 133.705 206.729 133.79 207.244 133.96C207.763 134.131 208.231 134.381 208.648 134.71C209.064 135.036 209.413 135.434 209.693 135.903C209.973 136.369 210.167 136.902 210.273 137.5ZM214.936 145.705C214.383 145.705 213.881 145.6 213.43 145.392C212.98 145.18 212.622 144.875 212.357 144.477C212.091 144.076 211.959 143.591 211.959 143.023C211.959 142.523 212.057 142.117 212.254 141.807C212.451 141.492 212.714 141.246 213.044 141.068C213.374 140.89 213.737 140.758 214.135 140.67C214.536 140.58 214.94 140.508 215.345 140.455C215.875 140.386 216.305 140.335 216.635 140.301C216.968 140.263 217.211 140.201 217.362 140.114C217.518 140.027 217.595 139.875 217.595 139.659V139.614C217.595 139.053 217.442 138.617 217.135 138.307C216.832 137.996 216.372 137.841 215.754 137.841C215.114 137.841 214.612 137.981 214.249 138.261C213.885 138.542 213.629 138.841 213.482 139.159L212.209 138.705C212.436 138.174 212.739 137.761 213.118 137.466C213.5 137.167 213.917 136.958 214.368 136.841C214.822 136.72 215.269 136.659 215.709 136.659C215.989 136.659 216.311 136.693 216.675 136.761C217.042 136.826 217.396 136.96 217.737 137.165C218.082 137.369 218.368 137.678 218.595 138.091C218.822 138.504 218.936 139.057 218.936 139.75V145.5H217.595V144.318H217.527C217.436 144.508 217.285 144.71 217.072 144.926C216.86 145.142 216.578 145.326 216.226 145.477C215.874 145.629 215.444 145.705 214.936 145.705ZM215.141 144.5C215.671 144.5 216.118 144.396 216.482 144.188C216.849 143.979 217.125 143.71 217.311 143.381C217.5 143.051 217.595 142.705 217.595 142.341V141.114C217.538 141.182 217.413 141.244 217.22 141.301C217.031 141.354 216.811 141.402 216.561 141.443C216.315 141.481 216.074 141.515 215.839 141.545C215.608 141.572 215.421 141.595 215.277 141.614C214.929 141.659 214.603 141.733 214.3 141.835C214 141.934 213.758 142.083 213.572 142.284C213.391 142.481 213.3 142.75 213.3 143.091C213.3 143.557 213.472 143.909 213.817 144.148C214.165 144.383 214.607 144.5 215.141 144.5ZM222.724 140.25V145.5H221.384V136.773H222.679V138.136H222.793C222.997 137.693 223.308 137.337 223.724 137.068C224.141 136.795 224.679 136.659 225.338 136.659C225.929 136.659 226.446 136.78 226.889 137.023C227.332 137.261 227.677 137.625 227.923 138.114C228.17 138.598 228.293 139.212 228.293 139.955V145.5H226.952V140.045C226.952 139.36 226.774 138.826 226.418 138.443C226.062 138.057 225.573 137.864 224.952 137.864C224.524 137.864 224.141 137.956 223.804 138.142C223.471 138.328 223.207 138.598 223.014 138.955C222.821 139.311 222.724 139.742 222.724 140.25ZM236.834 133.864V145.5H235.425V133.864H236.834ZM247.773 136.773V137.909H243.25V136.773H247.773ZM244.568 134.682H245.909V143C245.909 143.379 245.964 143.663 246.074 143.852C246.188 144.038 246.331 144.163 246.506 144.227C246.684 144.288 246.871 144.318 247.068 144.318C247.216 144.318 247.337 144.311 247.432 144.295C247.527 144.277 247.602 144.261 247.659 144.25L247.932 145.455C247.841 145.489 247.714 145.523 247.551 145.557C247.388 145.595 247.182 145.614 246.932 145.614C246.553 145.614 246.182 145.532 245.818 145.369C245.458 145.206 245.159 144.958 244.92 144.625C244.686 144.292 244.568 143.871 244.568 143.364V134.682ZM249.79 145.5V136.773H251.085V138.091H251.176C251.335 137.659 251.623 137.309 252.04 137.04C252.456 136.771 252.926 136.636 253.449 136.636C253.547 136.636 253.67 136.638 253.818 136.642C253.966 136.646 254.078 136.652 254.153 136.659V138.023C254.108 138.011 254.004 137.994 253.841 137.972C253.682 137.945 253.513 137.932 253.335 137.932C252.911 137.932 252.532 138.021 252.199 138.199C251.869 138.373 251.608 138.616 251.415 138.926C251.225 139.233 251.131 139.583 251.131 139.977V145.5H249.79ZM261.243 141.932V136.773H262.584V145.5H261.243V144.023H261.152C260.947 144.466 260.629 144.843 260.197 145.153C259.766 145.46 259.22 145.614 258.561 145.614C258.016 145.614 257.531 145.494 257.107 145.256C256.682 145.013 256.349 144.65 256.107 144.165C255.864 143.676 255.743 143.061 255.743 142.318V136.773H257.084V142.227C257.084 142.864 257.262 143.371 257.618 143.75C257.978 144.129 258.436 144.318 258.993 144.318C259.326 144.318 259.665 144.233 260.01 144.062C260.358 143.892 260.65 143.631 260.885 143.278C261.124 142.926 261.243 142.477 261.243 141.932ZM271.222 138.727L270.017 139.068C269.941 138.867 269.83 138.672 269.682 138.483C269.538 138.29 269.341 138.131 269.091 138.006C268.841 137.881 268.521 137.818 268.131 137.818C267.597 137.818 267.152 137.941 266.795 138.188C266.443 138.43 266.267 138.739 266.267 139.114C266.267 139.447 266.388 139.71 266.631 139.903C266.873 140.097 267.252 140.258 267.767 140.386L269.062 140.705C269.843 140.894 270.424 141.184 270.807 141.574C271.189 141.96 271.381 142.458 271.381 143.068C271.381 143.568 271.237 144.015 270.949 144.409C270.665 144.803 270.267 145.114 269.756 145.341C269.244 145.568 268.65 145.682 267.972 145.682C267.081 145.682 266.345 145.489 265.761 145.102C265.178 144.716 264.809 144.152 264.653 143.409L265.926 143.091C266.047 143.561 266.277 143.913 266.614 144.148C266.955 144.383 267.4 144.5 267.949 144.5C268.574 144.5 269.07 144.367 269.438 144.102C269.809 143.833 269.994 143.511 269.994 143.136C269.994 142.833 269.888 142.58 269.676 142.375C269.464 142.167 269.138 142.011 268.699 141.909L267.244 141.568C266.445 141.379 265.858 141.085 265.483 140.688C265.112 140.286 264.926 139.784 264.926 139.182C264.926 138.689 265.064 138.254 265.341 137.875C265.621 137.496 266.002 137.199 266.483 136.983C266.968 136.767 267.517 136.659 268.131 136.659C268.994 136.659 269.672 136.848 270.165 137.227C270.661 137.606 271.013 138.106 271.222 138.727ZM277.195 136.773V137.909H272.672V136.773H277.195ZM273.99 134.682H275.331V143C275.331 143.379 275.386 143.663 275.496 143.852C275.609 144.038 275.753 144.163 275.928 144.227C276.106 144.288 276.293 144.318 276.49 144.318C276.638 144.318 276.759 144.311 276.854 144.295C276.948 144.277 277.024 144.261 277.081 144.25L277.354 145.455C277.263 145.489 277.136 145.523 276.973 145.557C276.81 145.595 276.604 145.614 276.354 145.614C275.975 145.614 275.604 145.532 275.24 145.369C274.88 145.206 274.581 144.958 274.342 144.625C274.107 144.292 273.99 143.871 273.99 143.364V134.682ZM287.507 136.773V137.909H282.984V136.773H287.507ZM284.303 134.682H285.643V143C285.643 143.379 285.698 143.663 285.808 143.852C285.922 144.038 286.066 144.163 286.24 144.227C286.418 144.288 286.606 144.318 286.803 144.318C286.95 144.318 287.071 144.311 287.166 144.295C287.261 144.277 287.337 144.261 287.393 144.25L287.666 145.455C287.575 145.489 287.448 145.523 287.286 145.557C287.123 145.595 286.916 145.614 286.666 145.614C286.287 145.614 285.916 145.532 285.553 145.369C285.193 145.206 284.893 144.958 284.655 144.625C284.42 144.292 284.303 143.871 284.303 143.364V134.682ZM291.053 140.25V145.5H289.712V133.864H291.053V138.136H291.166C291.371 137.686 291.678 137.328 292.087 137.062C292.5 136.794 293.049 136.659 293.734 136.659C294.329 136.659 294.85 136.778 295.297 137.017C295.744 137.252 296.09 137.614 296.337 138.102C296.587 138.587 296.712 139.205 296.712 139.955V145.5H295.371V140.045C295.371 139.352 295.191 138.816 294.831 138.438C294.475 138.055 293.981 137.864 293.348 137.864C292.909 137.864 292.515 137.956 292.166 138.142C291.821 138.328 291.549 138.598 291.348 138.955C291.151 139.311 291.053 139.742 291.053 140.25ZM299.165 145.5V136.773H300.506V145.5H299.165ZM299.847 135.318C299.585 135.318 299.36 135.229 299.17 135.051C298.985 134.873 298.892 134.659 298.892 134.409C298.892 134.159 298.985 133.945 299.17 133.767C299.36 133.589 299.585 133.5 299.847 133.5C300.108 133.5 300.331 133.589 300.517 133.767C300.706 133.945 300.801 134.159 300.801 134.409C300.801 134.659 300.706 134.873 300.517 135.051C300.331 135.229 300.108 135.318 299.847 135.318ZM309.143 138.727L307.939 139.068C307.863 138.867 307.751 138.672 307.604 138.483C307.46 138.29 307.263 138.131 307.013 138.006C306.763 137.881 306.443 137.818 306.053 137.818C305.518 137.818 305.073 137.941 304.717 138.188C304.365 138.43 304.189 138.739 304.189 139.114C304.189 139.447 304.31 139.71 304.553 139.903C304.795 140.097 305.174 140.258 305.689 140.386L306.984 140.705C307.765 140.894 308.346 141.184 308.729 141.574C309.111 141.96 309.303 142.458 309.303 143.068C309.303 143.568 309.159 144.015 308.871 144.409C308.587 144.803 308.189 145.114 307.678 145.341C307.166 145.568 306.571 145.682 305.893 145.682C305.003 145.682 304.267 145.489 303.683 145.102C303.1 144.716 302.731 144.152 302.575 143.409L303.848 143.091C303.969 143.561 304.198 143.913 304.536 144.148C304.876 144.383 305.321 144.5 305.871 144.5C306.496 144.5 306.992 144.367 307.359 144.102C307.731 143.833 307.916 143.511 307.916 143.136C307.916 142.833 307.81 142.58 307.598 142.375C307.386 142.167 307.06 142.011 306.621 141.909L305.166 141.568C304.367 141.379 303.78 141.085 303.405 140.688C303.034 140.286 302.848 139.784 302.848 139.182C302.848 138.689 302.986 138.254 303.263 137.875C303.543 137.496 303.924 137.199 304.405 136.983C304.89 136.767 305.439 136.659 306.053 136.659C306.916 136.659 307.594 136.848 308.087 137.227C308.583 137.606 308.935 138.106 309.143 138.727ZM313.071 142.227V142.159C313.079 141.436 313.154 140.86 313.298 140.432C313.442 140.004 313.647 139.657 313.912 139.392C314.177 139.127 314.495 138.883 314.866 138.659C315.09 138.523 315.291 138.362 315.469 138.176C315.647 137.987 315.787 137.769 315.889 137.523C315.995 137.277 316.048 137.004 316.048 136.705C316.048 136.333 315.961 136.011 315.787 135.739C315.613 135.466 315.38 135.256 315.088 135.108C314.796 134.96 314.473 134.886 314.116 134.886C313.806 134.886 313.507 134.951 313.219 135.08C312.931 135.208 312.69 135.411 312.497 135.688C312.304 135.964 312.192 136.326 312.162 136.773H310.73C310.76 136.129 310.927 135.578 311.23 135.119C311.537 134.661 311.94 134.311 312.44 134.068C312.944 133.826 313.503 133.705 314.116 133.705C314.783 133.705 315.363 133.837 315.855 134.102C316.351 134.367 316.734 134.731 317.003 135.193C317.276 135.655 317.412 136.182 317.412 136.773C317.412 137.189 317.348 137.566 317.219 137.903C317.094 138.241 316.912 138.542 316.673 138.807C316.438 139.072 316.154 139.307 315.821 139.511C315.488 139.72 315.221 139.939 315.02 140.17C314.819 140.398 314.673 140.669 314.582 140.983C314.491 141.297 314.442 141.689 314.435 142.159V142.227H313.071ZM313.798 145.591C313.518 145.591 313.277 145.491 313.077 145.29C312.876 145.089 312.776 144.848 312.776 144.568C312.776 144.288 312.876 144.047 313.077 143.847C313.277 143.646 313.518 143.545 313.798 143.545C314.079 143.545 314.319 143.646 314.52 143.847C314.721 144.047 314.821 144.288 314.821 144.568C314.821 144.754 314.774 144.924 314.679 145.08C314.588 145.235 314.465 145.36 314.31 145.455C314.158 145.545 313.988 145.591 313.798 145.591Z" fill="black"/>
<path fill-rule="evenodd" clip-rule="evenodd" d="M259.599 158C259.748 158 259.869 158.069 259.869 158.155L259.869 178.962C259.869 179.048 259.748 179.117 259.599 179.117C259.449 179.117 259.328 179.048 259.328 178.962L259.328 158.155C259.328 158.069 259.449 158 259.599 158Z" fill="#505050"/>
<path fill-rule="evenodd" clip-rule="evenodd" d="M262.765 173.532C262.931 173.572 263.032 173.732 262.991 173.89C262.893 174.263 262.794 174.635 262.695 175.007C262.159 177.029 261.626 179.036 261.247 181.08C261.23 181.175 261.212 181.303 261.19 181.461C261.169 181.608 261.145 181.78 261.115 181.972C261.055 182.352 260.973 182.785 260.853 183.142C260.794 183.32 260.72 183.493 260.627 183.635C260.537 183.771 260.401 183.919 260.201 183.976C259.982 184.039 259.773 183.971 259.603 183.847C259.438 183.729 259.281 183.542 259.124 183.299C258.501 182.331 258.039 181.252 257.62 180.175C257.502 179.874 257.388 179.573 257.276 179.275C256.982 178.499 256.695 177.74 256.364 177.018C256.348 176.983 256.313 176.904 256.264 176.795C256.131 176.494 255.893 175.958 255.656 175.447C255.495 175.101 255.341 174.779 255.228 174.567C255.201 174.518 255.179 174.478 255.161 174.447C255.065 174.397 255 174.3 255 174.188C255 174.168 255 174.106 255.033 174.04C255.051 174.002 255.089 173.945 255.163 173.904C255.242 173.861 255.324 173.858 255.387 173.87C255.484 173.89 255.544 173.947 255.558 173.96L255.559 173.961C255.582 173.983 255.601 174.006 255.614 174.023C255.664 174.089 255.722 174.191 255.78 174.3C255.901 174.528 256.061 174.862 256.222 175.208C256.463 175.726 256.718 176.302 256.849 176.596C256.891 176.691 256.92 176.757 256.932 176.782C257.271 177.523 257.569 178.31 257.865 179.092C257.977 179.387 258.088 179.68 258.2 179.97C258.617 181.04 259.062 182.074 259.652 182.991C259.792 183.208 259.901 183.323 259.977 183.377C260.002 183.395 260.018 183.404 260.028 183.407C260.04 183.399 260.066 183.376 260.103 183.321C260.157 183.239 260.211 183.119 260.263 182.963C260.367 182.653 260.443 182.259 260.502 181.885C260.528 181.721 260.552 181.554 260.573 181.404C260.597 181.229 260.619 181.077 260.637 180.978C261.02 178.911 261.559 176.88 262.096 174.858C262.194 174.487 262.292 174.117 262.39 173.747C262.431 173.589 262.599 173.493 262.765 173.532ZM260.039 183.41C260.039 183.41 260.037 183.41 260.034 183.41C260.037 183.41 260.039 183.41 260.039 183.41ZM255.11 174.367C255.11 174.367 255.11 174.367 255.111 174.367C255.11 174.367 255.11 174.367 255.11 174.367Z" fill="#505050"/>
<rect x="160.5" y="186.5" width="197" height="31" rx="7.5" fill="#F8F8F8"/>
<rect x="160.5" y="186.5" width="197" height="31" rx="7.5" stroke="#EFEFEF"/>
<path d="M224.409 207.5V195.864H231.386V197.114H225.818V201.045H230.864V202.295H225.818V207.5H224.409ZM233.618 207.5V198.773H234.959V207.5H233.618ZM234.3 197.318C234.038 197.318 233.813 197.229 233.624 197.051C233.438 196.873 233.345 196.659 233.345 196.409C233.345 196.159 233.438 195.945 233.624 195.767C233.813 195.589 234.038 195.5 234.3 195.5C234.561 195.5 234.785 195.589 234.97 195.767C235.16 195.945 235.254 196.159 235.254 196.409C235.254 196.659 235.16 196.873 234.97 197.051C234.785 197.229 234.561 197.318 234.3 197.318ZM238.756 202.25V207.5H237.415V198.773H238.71V200.136H238.824C239.028 199.693 239.339 199.337 239.756 199.068C240.172 198.795 240.71 198.659 241.369 198.659C241.96 198.659 242.477 198.78 242.92 199.023C243.364 199.261 243.708 199.625 243.955 200.114C244.201 200.598 244.324 201.212 244.324 201.955V207.5H242.983V202.045C242.983 201.36 242.805 200.826 242.449 200.443C242.093 200.057 241.604 199.864 240.983 199.864C240.555 199.864 240.172 199.956 239.835 200.142C239.502 200.328 239.239 200.598 239.045 200.955C238.852 201.311 238.756 201.742 238.756 202.25ZM250.07 207.682C249.342 207.682 248.7 207.498 248.143 207.131C247.587 206.759 247.151 206.237 246.837 205.562C246.522 204.884 246.365 204.083 246.365 203.159C246.365 202.242 246.522 201.447 246.837 200.773C247.151 200.098 247.589 199.578 248.149 199.21C248.71 198.843 249.357 198.659 250.092 198.659C250.661 198.659 251.109 198.754 251.439 198.943C251.772 199.129 252.026 199.341 252.2 199.58C252.378 199.814 252.517 200.008 252.615 200.159H252.729V195.864H254.07V207.5H252.774V206.159H252.615C252.517 206.318 252.376 206.519 252.195 206.761C252.013 207 251.753 207.214 251.416 207.403C251.079 207.589 250.63 207.682 250.07 207.682ZM250.251 206.477C250.789 206.477 251.244 206.337 251.615 206.057C251.986 205.773 252.268 205.381 252.462 204.881C252.655 204.377 252.751 203.795 252.751 203.136C252.751 202.485 252.657 201.915 252.467 201.426C252.278 200.934 251.998 200.551 251.626 200.278C251.255 200.002 250.797 199.864 250.251 199.864C249.683 199.864 249.21 200.009 248.831 200.301C248.456 200.589 248.174 200.981 247.984 201.477C247.799 201.97 247.706 202.523 247.706 203.136C247.706 203.758 247.801 204.322 247.99 204.83C248.183 205.333 248.467 205.735 248.842 206.034C249.221 206.33 249.691 206.477 250.251 206.477ZM264.734 210.955C264.087 210.955 263.53 210.871 263.064 210.705C262.598 210.542 262.21 210.326 261.899 210.057C261.592 209.792 261.348 209.508 261.166 209.205L262.234 208.455C262.356 208.614 262.509 208.795 262.695 209C262.88 209.208 263.134 209.388 263.456 209.54C263.782 209.695 264.208 209.773 264.734 209.773C265.439 209.773 266.02 209.602 266.479 209.261C266.937 208.92 267.166 208.386 267.166 207.659V205.886H267.053C266.954 206.045 266.814 206.242 266.632 206.477C266.454 206.708 266.196 206.915 265.859 207.097C265.526 207.275 265.075 207.364 264.507 207.364C263.803 207.364 263.17 207.197 262.609 206.864C262.053 206.53 261.611 206.045 261.286 205.409C260.964 204.773 260.803 204 260.803 203.091C260.803 202.197 260.96 201.419 261.274 200.756C261.589 200.089 262.026 199.574 262.587 199.21C263.147 198.843 263.795 198.659 264.53 198.659C265.098 198.659 265.549 198.754 265.882 198.943C266.219 199.129 266.477 199.341 266.655 199.58C266.837 199.814 266.977 200.008 267.075 200.159H267.212V198.773H268.507V207.75C268.507 208.5 268.337 209.11 267.996 209.58C267.659 210.053 267.204 210.4 266.632 210.619C266.064 210.843 265.431 210.955 264.734 210.955ZM264.689 206.159C265.227 206.159 265.681 206.036 266.053 205.79C266.424 205.544 266.706 205.189 266.899 204.727C267.092 204.265 267.189 203.712 267.189 203.068C267.189 202.439 267.094 201.884 266.905 201.403C266.715 200.922 266.435 200.545 266.064 200.273C265.693 200 265.234 199.864 264.689 199.864C264.121 199.864 263.647 200.008 263.268 200.295C262.893 200.583 262.611 200.97 262.422 201.455C262.236 201.939 262.143 202.477 262.143 203.068C262.143 203.674 262.238 204.21 262.428 204.676C262.621 205.138 262.905 205.502 263.28 205.767C263.659 206.028 264.128 206.159 264.689 206.159ZM274.621 207.682C273.78 207.682 273.054 207.496 272.445 207.125C271.839 206.75 271.371 206.227 271.041 205.557C270.715 204.883 270.553 204.098 270.553 203.205C270.553 202.311 270.715 201.523 271.041 200.841C271.371 200.155 271.829 199.621 272.416 199.239C273.007 198.852 273.696 198.659 274.484 198.659C274.939 198.659 275.388 198.735 275.831 198.886C276.274 199.038 276.678 199.284 277.041 199.625C277.405 199.962 277.695 200.409 277.911 200.966C278.126 201.523 278.234 202.208 278.234 203.023V203.591H271.507V202.432H276.871C276.871 201.939 276.772 201.5 276.575 201.114C276.382 200.727 276.106 200.422 275.746 200.199C275.39 199.975 274.969 199.864 274.484 199.864C273.95 199.864 273.488 199.996 273.098 200.261C272.712 200.523 272.414 200.864 272.206 201.284C271.998 201.705 271.893 202.155 271.893 202.636V203.409C271.893 204.068 272.007 204.627 272.234 205.085C272.465 205.54 272.786 205.886 273.195 206.125C273.604 206.36 274.079 206.477 274.621 206.477C274.973 206.477 275.291 206.428 275.575 206.33C275.863 206.227 276.111 206.076 276.32 205.875C276.528 205.67 276.689 205.417 276.803 205.114L278.098 205.477C277.962 205.917 277.732 206.303 277.411 206.636C277.089 206.966 276.691 207.223 276.217 207.409C275.744 207.591 275.212 207.682 274.621 207.682ZM282.842 207.705C282.289 207.705 281.787 207.6 281.337 207.392C280.886 207.18 280.528 206.875 280.263 206.477C279.998 206.076 279.865 205.591 279.865 205.023C279.865 204.523 279.964 204.117 280.161 203.807C280.357 203.492 280.621 203.246 280.95 203.068C281.28 202.89 281.643 202.758 282.041 202.67C282.443 202.58 282.846 202.508 283.251 202.455C283.782 202.386 284.212 202.335 284.541 202.301C284.875 202.263 285.117 202.201 285.268 202.114C285.424 202.027 285.501 201.875 285.501 201.659V201.614C285.501 201.053 285.348 200.617 285.041 200.307C284.738 199.996 284.278 199.841 283.661 199.841C283.02 199.841 282.518 199.981 282.155 200.261C281.791 200.542 281.536 200.841 281.388 201.159L280.115 200.705C280.342 200.174 280.645 199.761 281.024 199.466C281.407 199.167 281.823 198.958 282.274 198.841C282.729 198.72 283.176 198.659 283.615 198.659C283.895 198.659 284.217 198.693 284.581 198.761C284.948 198.826 285.303 198.96 285.643 199.165C285.988 199.369 286.274 199.678 286.501 200.091C286.729 200.504 286.842 201.057 286.842 201.75V207.5H285.501V206.318H285.433C285.342 206.508 285.191 206.71 284.979 206.926C284.767 207.142 284.484 207.326 284.132 207.477C283.78 207.629 283.35 207.705 282.842 207.705ZM283.047 206.5C283.577 206.5 284.024 206.396 284.388 206.188C284.755 205.979 285.032 205.71 285.217 205.381C285.407 205.051 285.501 204.705 285.501 204.341V203.114C285.445 203.182 285.32 203.244 285.126 203.301C284.937 203.354 284.717 203.402 284.467 203.443C284.221 203.481 283.981 203.515 283.746 203.545C283.515 203.572 283.327 203.595 283.183 203.614C282.835 203.659 282.509 203.733 282.206 203.835C281.907 203.934 281.664 204.083 281.479 204.284C281.297 204.481 281.206 204.75 281.206 205.091C281.206 205.557 281.378 205.909 281.723 206.148C282.071 206.383 282.513 206.5 283.047 206.5ZM289.29 207.5V198.773H290.585V200.091H290.676C290.835 199.659 291.123 199.309 291.54 199.04C291.956 198.771 292.426 198.636 292.949 198.636C293.047 198.636 293.17 198.638 293.318 198.642C293.466 198.646 293.578 198.652 293.653 198.659V200.023C293.608 200.011 293.504 199.994 293.341 199.972C293.182 199.945 293.013 199.932 292.835 199.932C292.411 199.932 292.032 200.021 291.699 200.199C291.369 200.373 291.108 200.616 290.915 200.926C290.725 201.233 290.631 201.583 290.631 201.977V207.5H289.29Z" fill="black"/>
<path fill-rule="evenodd" clip-rule="evenodd" d="M259.599 220C259.748 220 259.869 220.069 259.869 220.155L259.869 240.962C259.869 241.048 259.748 241.117 259.599 241.117C259.449 241.117 259.328 241.048 259.328 240.962L259.328 220.155C259.328 220.069 259.449 220 259.599 220Z" fill="#505050"/>
<path fill-rule="evenodd" clip-rule="evenodd" d="M262.765 235.532C262.931 235.572 263.032 235.732 262.991 235.89C262.893 236.263 262.794 236.635 262.695 237.007C262.159 239.029 261.626 241.036 261.247 243.08C261.23 243.175 261.212 243.303 261.19 243.461C261.169 243.608 261.145 243.78 261.115 243.972C261.055 244.352 260.973 244.785 260.853 245.142C260.794 245.32 260.72 245.493 260.627 245.635C260.537 245.771 260.401 245.919 260.201 245.976C259.982 246.039 259.773 245.971 259.603 245.847C259.438 245.729 259.281 245.542 259.124 245.299C258.501 244.331 258.039 243.252 257.62 242.175C257.502 241.874 257.388 241.573 257.276 241.275C256.982 240.499 256.695 239.74 256.364 239.018C256.348 238.983 256.313 238.904 256.264 238.795C256.131 238.494 255.893 237.958 255.656 237.447C255.495 237.101 255.341 236.779 255.228 236.567C255.201 236.518 255.179 236.478 255.161 236.447C255.065 236.397 255 236.3 255 236.188C255 236.168 255 236.106 255.033 236.04C255.051 236.002 255.089 235.945 255.163 235.904C255.242 235.861 255.324 235.858 255.387 235.87C255.484 235.89 255.544 235.947 255.558 235.96L255.559 235.961C255.582 235.983 255.601 236.006 255.614 236.023C255.664 236.089 255.722 236.191 255.78 236.3C255.901 236.528 256.061 236.862 256.222 237.208C256.463 237.726 256.718 238.302 256.849 238.596C256.891 238.691 256.92 238.757 256.932 238.782C257.271 239.523 257.569 240.31 257.865 241.092C257.977 241.387 258.088 241.68 258.2 241.97C258.617 243.04 259.062 244.074 259.652 244.991C259.792 245.208 259.901 245.323 259.977 245.377C260.002 245.395 260.018 245.404 260.028 245.407C260.04 245.399 260.066 245.376 260.103 245.321C260.157 245.239 260.211 245.119 260.263 244.963C260.367 244.653 260.443 244.259 260.502 243.885C260.528 243.721 260.552 243.554 260.573 243.404C260.597 243.229 260.619 243.077 260.637 242.978C261.02 240.911 261.559 238.88 262.096 236.858C262.194 236.487 262.292 236.117 262.39 235.747C262.431 235.589 262.599 235.493 262.765 235.532ZM260.039 245.41C260.039 245.41 260.037 245.41 260.034 245.41C260.037 245.41 260.039 245.41 260.039 245.41ZM255.11 236.367C255.11 236.367 255.11 236.367 255.111 236.367C255.11 236.367 255.11 236.367 255.11 236.367Z" fill="#505050"/>
<rect x="160.5" y="248.5" width="197" height="31" rx="7.5" fill="#F8F8F8"/>
<rect x="160.5" y="248.5" width="197" height="31" rx="7.5" stroke="#EFEFEF"/>
<path d="M217.909 269.5V257.864H219.318V263.636H219.455L224.682 257.864H226.523L221.636 263.114L226.523 269.5H224.818L220.773 264.091L219.318 265.727V269.5H217.909ZM229.506 264.25V269.5H228.165V260.773H229.46V262.136H229.574C229.778 261.693 230.089 261.337 230.506 261.068C230.922 260.795 231.46 260.659 232.119 260.659C232.71 260.659 233.227 260.78 233.67 261.023C234.114 261.261 234.458 261.625 234.705 262.114C234.951 262.598 235.074 263.212 235.074 263.955V269.5H233.733V264.045C233.733 263.36 233.555 262.826 233.199 262.443C232.843 262.057 232.354 261.864 231.733 261.864C231.305 261.864 230.922 261.956 230.585 262.142C230.252 262.328 229.989 262.598 229.795 262.955C229.602 263.311 229.506 263.742 229.506 264.25ZM241.07 269.682C240.282 269.682 239.59 269.494 238.996 269.119C238.405 268.744 237.943 268.22 237.609 267.545C237.28 266.871 237.115 266.083 237.115 265.182C237.115 264.273 237.28 263.479 237.609 262.801C237.943 262.123 238.405 261.597 238.996 261.222C239.59 260.847 240.282 260.659 241.07 260.659C241.857 260.659 242.547 260.847 243.138 261.222C243.732 261.597 244.195 262.123 244.524 262.801C244.857 263.479 245.024 264.273 245.024 265.182C245.024 266.083 244.857 266.871 244.524 267.545C244.195 268.22 243.732 268.744 243.138 269.119C242.547 269.494 241.857 269.682 241.07 269.682ZM241.07 268.477C241.668 268.477 242.161 268.324 242.547 268.017C242.933 267.71 243.219 267.307 243.405 266.807C243.59 266.307 243.683 265.765 243.683 265.182C243.683 264.598 243.59 264.055 243.405 263.551C243.219 263.047 242.933 262.64 242.547 262.33C242.161 262.019 241.668 261.864 241.07 261.864C240.471 261.864 239.979 262.019 239.592 262.33C239.206 262.64 238.92 263.047 238.734 263.551C238.549 264.055 238.456 264.598 238.456 265.182C238.456 265.765 238.549 266.307 238.734 266.807C238.92 267.307 239.206 267.71 239.592 268.017C239.979 268.324 240.471 268.477 241.07 268.477ZM248.751 269.5L246.092 260.773H247.501L249.388 267.455H249.479L251.342 260.773H252.774L254.615 267.432H254.706L256.592 260.773H258.001L255.342 269.5H254.024L252.115 262.795H251.979L250.07 269.5H248.751ZM264.274 272.773V260.773H265.57V262.159H265.729C265.827 262.008 265.964 261.814 266.138 261.58C266.316 261.341 266.57 261.129 266.899 260.943C267.232 260.754 267.683 260.659 268.251 260.659C268.986 260.659 269.634 260.843 270.195 261.21C270.755 261.578 271.193 262.098 271.507 262.773C271.821 263.447 271.979 264.242 271.979 265.159C271.979 266.083 271.821 266.884 271.507 267.562C271.193 268.237 270.757 268.759 270.2 269.131C269.643 269.498 269.001 269.682 268.274 269.682C267.714 269.682 267.265 269.589 266.928 269.403C266.59 269.214 266.331 269 266.149 268.761C265.967 268.519 265.827 268.318 265.729 268.159H265.615V272.773H264.274ZM265.592 265.136C265.592 265.795 265.689 266.377 265.882 266.881C266.075 267.381 266.357 267.773 266.729 268.057C267.1 268.337 267.554 268.477 268.092 268.477C268.653 268.477 269.121 268.33 269.496 268.034C269.875 267.735 270.159 267.333 270.348 266.83C270.541 266.322 270.638 265.758 270.638 265.136C270.638 264.523 270.543 263.97 270.354 263.477C270.168 262.981 269.886 262.589 269.507 262.301C269.132 262.009 268.661 261.864 268.092 261.864C267.547 261.864 267.089 262.002 266.717 262.278C266.346 262.551 266.066 262.934 265.876 263.426C265.687 263.915 265.592 264.485 265.592 265.136ZM274.024 269.5V260.773H275.32V262.091H275.411C275.57 261.659 275.857 261.309 276.274 261.04C276.691 260.771 277.161 260.636 277.683 260.636C277.782 260.636 277.905 260.638 278.053 260.642C278.2 260.646 278.312 260.652 278.388 260.659V262.023C278.342 262.011 278.238 261.994 278.075 261.972C277.916 261.945 277.748 261.932 277.57 261.932C277.145 261.932 276.767 262.021 276.433 262.199C276.104 262.373 275.842 262.616 275.649 262.926C275.46 263.233 275.365 263.583 275.365 263.977V269.5H274.024ZM279.977 269.5V260.773H281.318V269.5H279.977ZM280.659 259.318C280.398 259.318 280.172 259.229 279.983 259.051C279.797 258.873 279.705 258.659 279.705 258.409C279.705 258.159 279.797 257.945 279.983 257.767C280.172 257.589 280.398 257.5 280.659 257.5C280.92 257.5 281.144 257.589 281.33 257.767C281.519 257.945 281.614 258.159 281.614 258.409C281.614 258.659 281.519 258.873 281.33 259.051C281.144 259.229 280.92 259.318 280.659 259.318ZM287.32 269.682C286.501 269.682 285.797 269.489 285.206 269.102C284.615 268.716 284.161 268.184 283.842 267.506C283.524 266.828 283.365 266.053 283.365 265.182C283.365 264.295 283.528 263.513 283.854 262.835C284.183 262.153 284.642 261.621 285.229 261.239C285.82 260.852 286.509 260.659 287.297 260.659C287.911 260.659 288.464 260.773 288.956 261C289.448 261.227 289.852 261.545 290.166 261.955C290.481 262.364 290.676 262.841 290.751 263.386H289.411C289.308 262.989 289.081 262.636 288.729 262.33C288.38 262.019 287.911 261.864 287.32 261.864C286.797 261.864 286.339 262 285.945 262.273C285.554 262.542 285.25 262.922 285.03 263.415C284.814 263.903 284.706 264.477 284.706 265.136C284.706 265.811 284.812 266.398 285.024 266.898C285.24 267.398 285.543 267.786 285.933 268.062C286.327 268.339 286.789 268.477 287.32 268.477C287.668 268.477 287.984 268.417 288.268 268.295C288.553 268.174 288.793 268 288.99 267.773C289.187 267.545 289.327 267.273 289.411 266.955H290.751C290.676 267.47 290.488 267.934 290.189 268.347C289.893 268.756 289.501 269.081 289.013 269.324C288.528 269.562 287.964 269.682 287.32 269.682ZM296.371 269.682C295.53 269.682 294.804 269.496 294.195 269.125C293.589 268.75 293.121 268.227 292.791 267.557C292.465 266.883 292.303 266.098 292.303 265.205C292.303 264.311 292.465 263.523 292.791 262.841C293.121 262.155 293.579 261.621 294.166 261.239C294.757 260.852 295.446 260.659 296.234 260.659C296.689 260.659 297.138 260.735 297.581 260.886C298.024 261.038 298.428 261.284 298.791 261.625C299.155 261.962 299.445 262.409 299.661 262.966C299.876 263.523 299.984 264.208 299.984 265.023V265.591H293.257V264.432H298.621C298.621 263.939 298.522 263.5 298.325 263.114C298.132 262.727 297.856 262.422 297.496 262.199C297.14 261.975 296.719 261.864 296.234 261.864C295.7 261.864 295.238 261.996 294.848 262.261C294.462 262.523 294.164 262.864 293.956 263.284C293.748 263.705 293.643 264.155 293.643 264.636V265.409C293.643 266.068 293.757 266.627 293.984 267.085C294.215 267.54 294.536 267.886 294.945 268.125C295.354 268.36 295.829 268.477 296.371 268.477C296.723 268.477 297.041 268.428 297.325 268.33C297.613 268.227 297.861 268.076 298.07 267.875C298.278 267.67 298.439 267.417 298.553 267.114L299.848 267.477C299.712 267.917 299.482 268.303 299.161 268.636C298.839 268.966 298.441 269.223 297.967 269.409C297.494 269.591 296.962 269.682 296.371 269.682Z" fill="black"/>
<path fill-rule="evenodd" clip-rule="evenodd" d="M259.599 282C259.748 282 259.869 282.069 259.869 282.155L259.869 302.962C259.869 303.048 259.748 303.117 259.599 303.117C259.449 303.117 259.328 303.048 259.328 302.962L259.328 282.155C259.328 282.069 259.449 282 259.599 282Z" fill="#505050"/>
<path fill-rule="evenodd" clip-rule="evenodd" d="M262.765 297.532C262.931 297.572 263.032 297.732 262.991 297.89C262.893 298.263 262.794 298.635 262.695 299.007C262.159 301.029 261.626 303.036 261.247 305.08C261.23 305.175 261.212 305.303 261.19 305.461C261.169 305.608 261.145 305.78 261.115 305.972C261.055 306.352 260.973 306.785 260.853 307.142C260.794 307.32 260.72 307.493 260.627 307.635C260.537 307.771 260.401 307.919 260.201 307.976C259.982 308.039 259.773 307.971 259.603 307.847C259.438 307.729 259.281 307.542 259.124 307.299C258.501 306.331 258.039 305.252 257.62 304.175C257.502 303.874 257.388 303.573 257.276 303.275C256.982 302.499 256.695 301.74 256.364 301.018C256.348 300.983 256.313 300.904 256.264 300.795C256.131 300.494 255.893 299.958 255.656 299.447C255.495 299.101 255.341 298.779 255.228 298.567C255.201 298.518 255.179 298.478 255.161 298.447C255.065 298.397 255 298.3 255 298.188C255 298.168 255 298.106 255.033 298.04C255.051 298.002 255.089 297.945 255.163 297.904C255.242 297.861 255.324 297.858 255.387 297.87C255.484 297.89 255.544 297.947 255.558 297.96L255.559 297.961C255.582 297.983 255.601 298.006 255.614 298.023C255.664 298.089 255.722 298.191 255.78 298.3C255.901 298.528 256.061 298.862 256.222 299.208C256.463 299.726 256.718 300.302 256.849 300.596C256.891 300.691 256.92 300.757 256.932 300.782C257.271 301.523 257.569 302.31 257.865 303.092C257.977 303.387 258.088 303.68 258.2 303.97C258.617 305.04 259.062 306.074 259.652 306.991C259.792 307.208 259.901 307.323 259.977 307.377C260.002 307.395 260.018 307.404 260.028 307.407C260.04 307.399 260.066 307.376 260.103 307.321C260.157 307.239 260.211 307.119 260.263 306.963C260.367 306.653 260.443 306.259 260.502 305.885C260.528 305.721 260.552 305.554 260.573 305.404C260.597 305.229 260.619 305.077 260.637 304.978C261.02 302.911 261.559 300.88 262.096 298.858C262.194 298.487 262.292 298.117 262.39 297.747C262.431 297.589 262.599 297.493 262.765 297.532ZM260.039 307.41C260.039 307.41 260.037 307.41 260.034 307.41C260.037 307.41 260.039 307.41 260.039 307.41ZM255.11 298.367C255.11 298.367 255.11 298.367 255.111 298.367C255.11 298.367 255.11 298.367 255.11 298.367Z" fill="#505050"/>
<rect x="160.5" y="310.5" width="197" height="31" rx="7.5" fill="#F8F8F8"/>
<rect x="160.5" y="310.5" width="197" height="31" rx="7.5" stroke="#EFEFEF"/>
<path d="M240.909 331.5V319.864H244.977C245.788 319.864 246.456 320.004 246.983 320.284C247.509 320.561 247.902 320.934 248.159 321.403C248.417 321.869 248.545 322.386 248.545 322.955C248.545 323.455 248.456 323.867 248.278 324.193C248.104 324.519 247.873 324.777 247.585 324.966C247.301 325.155 246.992 325.295 246.659 325.386V325.5C247.015 325.523 247.373 325.648 247.733 325.875C248.093 326.102 248.394 326.428 248.636 326.852C248.879 327.277 249 327.795 249 328.409C249 328.992 248.867 329.517 248.602 329.983C248.337 330.449 247.919 330.818 247.347 331.091C246.775 331.364 246.03 331.5 245.114 331.5H240.909ZM242.318 330.25H245.114C246.034 330.25 246.688 330.072 247.074 329.716C247.464 329.356 247.659 328.92 247.659 328.409C247.659 328.015 247.559 327.652 247.358 327.318C247.157 326.981 246.871 326.712 246.5 326.511C246.129 326.307 245.689 326.205 245.182 326.205H242.318V330.25ZM242.318 324.977H244.932C245.356 324.977 245.739 324.894 246.08 324.727C246.424 324.561 246.697 324.326 246.898 324.023C247.102 323.72 247.205 323.364 247.205 322.955C247.205 322.443 247.027 322.009 246.67 321.653C246.314 321.294 245.75 321.114 244.977 321.114H242.318V324.977ZM254.679 331.682C253.891 331.682 253.2 331.494 252.605 331.119C252.014 330.744 251.552 330.22 251.219 329.545C250.889 328.871 250.724 328.083 250.724 327.182C250.724 326.273 250.889 325.479 251.219 324.801C251.552 324.123 252.014 323.597 252.605 323.222C253.2 322.847 253.891 322.659 254.679 322.659C255.467 322.659 256.156 322.847 256.747 323.222C257.342 323.597 257.804 324.123 258.134 324.801C258.467 325.479 258.634 326.273 258.634 327.182C258.634 328.083 258.467 328.871 258.134 329.545C257.804 330.22 257.342 330.744 256.747 331.119C256.156 331.494 255.467 331.682 254.679 331.682ZM254.679 330.477C255.277 330.477 255.77 330.324 256.156 330.017C256.543 329.71 256.829 329.307 257.014 328.807C257.2 328.307 257.293 327.765 257.293 327.182C257.293 326.598 257.2 326.055 257.014 325.551C256.829 325.047 256.543 324.64 256.156 324.33C255.77 324.019 255.277 323.864 254.679 323.864C254.08 323.864 253.588 324.019 253.202 324.33C252.815 324.64 252.529 325.047 252.344 325.551C252.158 326.055 252.065 326.598 252.065 327.182C252.065 327.765 252.158 328.307 252.344 328.807C252.529 329.307 252.815 329.71 253.202 330.017C253.588 330.324 254.08 330.477 254.679 330.477ZM264.226 331.682C263.438 331.682 262.747 331.494 262.152 331.119C261.561 330.744 261.099 330.22 260.766 329.545C260.436 328.871 260.271 328.083 260.271 327.182C260.271 326.273 260.436 325.479 260.766 324.801C261.099 324.123 261.561 323.597 262.152 323.222C262.747 322.847 263.438 322.659 264.226 322.659C265.014 322.659 265.703 322.847 266.294 323.222C266.889 323.597 267.351 324.123 267.68 324.801C268.014 325.479 268.18 326.273 268.18 327.182C268.18 328.083 268.014 328.871 267.68 329.545C267.351 330.22 266.889 330.744 266.294 331.119C265.703 331.494 265.014 331.682 264.226 331.682ZM264.226 330.477C264.824 330.477 265.317 330.324 265.703 330.017C266.089 329.71 266.375 329.307 266.561 328.807C266.747 328.307 266.839 327.765 266.839 327.182C266.839 326.598 266.747 326.055 266.561 325.551C266.375 325.047 266.089 324.64 265.703 324.33C265.317 324.019 264.824 323.864 264.226 323.864C263.627 323.864 263.135 324.019 262.749 324.33C262.362 324.64 262.076 325.047 261.891 325.551C261.705 326.055 261.612 326.598 261.612 327.182C261.612 327.765 261.705 328.307 261.891 328.807C262.076 329.307 262.362 329.71 262.749 330.017C263.135 330.324 263.627 330.477 264.226 330.477ZM271.477 328.318L271.455 326.659H271.727L275.545 322.773H277.205L273.136 326.886H273.023L271.477 328.318ZM270.227 331.5V319.864H271.568V331.5H270.227ZM275.773 331.5L272.364 327.182L273.318 326.25L277.477 331.5H275.773Z" fill="black"/>
</svg>
