<svg width="1160" height="250" viewBox="0 0 1160 250" fill="none" xmlns="http://www.w3.org/2000/svg">
<g clip-path="url(#clip0_3369_34987)">
<path d="M1156 0H4C1.79086 0 0 1.79086 0 4V246C0 248.209 1.79086 250 4 250H1156C1158.21 250 1160 248.209 1160 246V4C1160 1.79086 1158.21 0 1156 0Z" fill="#ECF1E9"/>
<path d="M44.3213 40.7939H52.1074V41.9561H48.915V51H47.5273V41.9561H44.3213V40.7939ZM57.6309 46.1807C57.9863 46.2718 58.2894 46.445 58.54 46.7002C58.7907 46.9508 59.1029 47.4544 59.4766 48.2109L60.8643 51H59.3809L58.1641 48.4229C57.8132 47.6891 57.4964 47.2174 57.2139 47.0078C56.9359 46.7936 56.5713 46.6865 56.1201 46.6865H54.8008V51H53.4131V40.7939H56.2568C57.3779 40.7939 58.237 41.0469 58.834 41.5527C59.431 42.0586 59.7295 42.79 59.7295 43.7471C59.7295 44.4215 59.5449 44.973 59.1758 45.4014C58.8112 45.8252 58.2962 46.085 57.6309 46.1807ZM54.8008 41.9287V45.5518H56.3115C56.9723 45.5518 57.4645 45.4036 57.7881 45.1074C58.1117 44.8112 58.2734 44.3577 58.2734 43.7471C58.2734 43.1592 58.1003 42.7103 57.7539 42.4004C57.4121 42.0859 56.9131 41.9287 56.2568 41.9287H54.8008ZM65.082 42.0107L63.626 47.2334H66.5381L65.082 42.0107ZM64.248 40.7939H65.9229L69.0469 51H67.6182L66.8662 48.3408H63.291L62.5527 51H61.124L64.248 40.7939ZM73.5176 49.8379L75.917 40.7939H77.3457L74.3584 51H72.6836L69.6963 40.7939H71.125L73.5176 49.8379ZM79.0889 40.7939H85.1455V41.9561H80.4697V44.7041H84.9404V45.8662H80.4697V49.8379H85.2754V51H79.0889V40.7939ZM87.6475 40.7939H89.0352V49.8379H93.9639V51H87.6475V40.7939ZM95.96 40.7939H102.017V41.9561H97.3408V44.7041H101.812V45.8662H97.3408V49.8379H102.146V51H95.96V40.7939ZM108.244 46.1807C108.6 46.2718 108.903 46.445 109.153 46.7002C109.404 46.9508 109.716 47.4544 110.09 48.2109L111.478 51H109.994L108.777 48.4229C108.426 47.6891 108.11 47.2174 107.827 47.0078C107.549 46.7936 107.185 46.6865 106.733 46.6865H105.414V51H104.026V40.7939H106.87C107.991 40.7939 108.85 41.0469 109.447 41.5527C110.044 42.0586 110.343 42.79 110.343 43.7471C110.343 44.4215 110.158 44.973 109.789 45.4014C109.424 45.8252 108.91 46.085 108.244 46.1807ZM105.414 41.9287V45.5518H106.925C107.586 45.5518 108.078 45.4036 108.401 45.1074C108.725 44.8112 108.887 44.3577 108.887 43.7471C108.887 43.1592 108.714 42.7103 108.367 42.4004C108.025 42.0859 107.526 41.9287 106.87 41.9287H105.414ZM120.166 40.8281H122.012L123.775 46.0098L125.553 40.8281H127.405V51H126.127V42.0107L124.309 47.3701H123.263L121.438 42.0107V51H120.166V40.8281ZM129.729 40.7939H135.396V41.9561H133.257V49.8379H135.396V51H129.729V49.8379H131.869V41.9561H129.729V40.7939ZM136.921 40.8281H138.808L142.8 49.2021V40.8281H144.27V51H142.383L138.391 42.626V51H136.921V40.8281ZM148.207 49.8652C149.369 49.8652 150.18 49.5804 150.641 49.0107C151.101 48.4365 151.331 47.402 151.331 45.9072C151.331 44.3988 151.101 43.3597 150.641 42.79C150.185 42.2158 149.374 41.9287 148.207 41.9287H147.551V49.8652H148.207ZM148.234 40.7939C149.793 40.7939 150.941 41.2087 151.68 42.0381C152.418 42.8675 152.787 44.1572 152.787 45.9072C152.787 47.6481 152.418 48.9333 151.68 49.7627C150.941 50.5876 149.793 51 148.234 51H146.163V40.7939H148.234ZM160.58 41.1426V42.5439C160.161 42.2751 159.739 42.0723 159.315 41.9355C158.896 41.7988 158.472 41.7305 158.044 41.7305C157.392 41.7305 156.877 41.8831 156.499 42.1885C156.121 42.4893 155.932 42.8971 155.932 43.4121C155.932 43.8633 156.055 44.2074 156.301 44.4443C156.551 44.6813 157.016 44.8796 157.695 45.0391L158.42 45.2031C159.377 45.4264 160.074 45.7773 160.512 46.2559C160.949 46.7344 161.168 47.3861 161.168 48.2109C161.168 49.1816 160.867 49.9222 160.266 50.4326C159.664 50.943 158.789 51.1982 157.641 51.1982C157.162 51.1982 156.681 51.1458 156.198 51.041C155.715 50.9408 155.23 50.7881 154.742 50.583V49.1133C155.266 49.446 155.761 49.6898 156.226 49.8447C156.695 49.9997 157.167 50.0771 157.641 50.0771C158.338 50.0771 158.88 49.9222 159.268 49.6123C159.655 49.2979 159.849 48.8604 159.849 48.2998C159.849 47.7894 159.714 47.3997 159.445 47.1309C159.181 46.862 158.718 46.6546 158.058 46.5088L157.319 46.3379C156.371 46.1237 155.683 45.8001 155.255 45.3672C154.826 44.9342 154.612 44.3532 154.612 43.624C154.612 42.7126 154.918 41.9834 155.528 41.4365C156.144 40.8851 156.959 40.6094 157.976 40.6094C158.368 40.6094 158.78 40.6549 159.213 40.7461C159.646 40.8327 160.102 40.9648 160.58 41.1426ZM163.444 40.7939H169.501V41.9561H164.825V44.7041H169.296V45.8662H164.825V49.8379H169.631V51H163.444V40.7939ZM170.854 40.7939H178.641V41.9561H175.448V51H174.061V41.9561H170.854V40.7939Z" fill="#3E4A3A"/>
<path d="M1084.03 45.2754V41.8828H1085.11V51H1084.03V50.1738C1083.85 50.498 1083.61 50.7461 1083.31 50.918C1083.01 51.0859 1082.67 51.1699 1082.28 51.1699C1081.48 51.1699 1080.86 50.8633 1080.4 50.25C1079.95 49.6328 1079.72 48.7832 1079.72 47.7012C1079.72 46.6348 1079.95 45.7988 1080.41 45.1934C1080.86 44.584 1081.49 44.2793 1082.28 44.2793C1082.67 44.2793 1083.02 44.3652 1083.32 44.5371C1083.62 44.7051 1083.86 44.9512 1084.03 45.2754ZM1080.86 47.7246C1080.86 48.5605 1080.99 49.1914 1081.26 49.6172C1081.52 50.043 1081.91 50.2559 1082.43 50.2559C1082.95 50.2559 1083.35 50.041 1083.62 49.6113C1083.89 49.1816 1084.03 48.5527 1084.03 47.7246C1084.03 46.8926 1083.89 46.2637 1083.62 45.8379C1083.35 45.4082 1082.95 45.1934 1082.43 45.1934C1081.91 45.1934 1081.52 45.4062 1081.26 45.832C1080.99 46.2578 1080.86 46.8887 1080.86 47.7246ZM1089.84 45.1934C1089.29 45.1934 1088.88 45.4062 1088.6 45.832C1088.32 46.2578 1088.18 46.8887 1088.18 47.7246C1088.18 48.5566 1088.32 49.1875 1088.6 49.6172C1088.88 50.043 1089.29 50.2559 1089.84 50.2559C1090.39 50.2559 1090.81 50.043 1091.09 49.6172C1091.37 49.1875 1091.51 48.5566 1091.51 47.7246C1091.51 46.8887 1091.37 46.2578 1091.09 45.832C1090.81 45.4062 1090.39 45.1934 1089.84 45.1934ZM1089.84 44.2793C1090.75 44.2793 1091.45 44.5742 1091.93 45.1641C1092.41 45.7539 1092.65 46.6074 1092.65 47.7246C1092.65 48.8457 1092.41 49.7012 1091.93 50.291C1091.45 50.877 1090.75 51.1699 1089.84 51.1699C1088.93 51.1699 1088.23 50.877 1087.75 50.291C1087.27 49.7012 1087.03 48.8457 1087.03 47.7246C1087.03 46.6074 1087.27 45.7539 1087.75 45.1641C1088.23 44.5742 1088.93 44.2793 1089.84 44.2793ZM1094.6 48.5156V44.4492H1095.68V48.5156C1095.68 49.1055 1095.79 49.5391 1095.99 49.8164C1096.2 50.0938 1096.53 50.2324 1096.96 50.2324C1097.47 50.2324 1097.86 50.0547 1098.13 49.6992C1098.4 49.3398 1098.54 48.8262 1098.54 48.1582V44.4492H1099.62V51H1098.54V50.0156C1098.34 50.3945 1098.08 50.6816 1097.75 50.877C1097.42 51.0723 1097.04 51.1699 1096.6 51.1699C1095.92 51.1699 1095.42 50.9512 1095.1 50.5137C1094.77 50.0723 1094.6 49.4062 1094.6 48.5156ZM1106.07 47.7246C1106.07 46.8887 1105.94 46.2578 1105.67 45.832C1105.41 45.4062 1105.01 45.1934 1104.49 45.1934C1103.97 45.1934 1103.57 45.4082 1103.3 45.8379C1103.04 46.2637 1102.9 46.8926 1102.9 47.7246C1102.9 48.5527 1103.04 49.1816 1103.3 49.6113C1103.57 50.041 1103.97 50.2559 1104.49 50.2559C1105.01 50.2559 1105.41 50.043 1105.67 49.6172C1105.94 49.1914 1106.07 48.5605 1106.07 47.7246ZM1102.9 45.2754C1103.07 44.9551 1103.31 44.709 1103.61 44.5371C1103.91 44.3652 1104.27 44.2793 1104.66 44.2793C1105.45 44.2793 1106.07 44.584 1106.53 45.1934C1106.98 45.7988 1107.21 46.6348 1107.21 47.7012C1107.21 48.7832 1106.98 49.6328 1106.52 50.25C1106.07 50.8633 1105.45 51.1699 1104.65 51.1699C1104.26 51.1699 1103.92 51.0859 1103.62 50.918C1103.32 50.7461 1103.08 50.498 1102.9 50.1738V51H1101.82V41.8828H1102.9V45.2754ZM1111.52 42.5742V44.4375H1113.97V45.2754H1111.52V48.8379C1111.52 49.3223 1111.61 49.6602 1111.79 49.8516C1111.98 50.043 1112.3 50.1387 1112.76 50.1387H1113.97V51H1112.65C1111.84 51 1111.27 50.8379 1110.94 50.5137C1110.61 50.1895 1110.44 49.6309 1110.44 48.8379V45.2754H1108.69V44.4375H1110.44V42.5742H1111.52Z" fill="#71716A"/>
<path d="M1066 42H1058C1055.24 42 1053 44.2386 1053 47C1053 49.7614 1055.24 52 1058 52H1066C1068.76 52 1071 49.7614 1071 47C1071 44.2386 1068.76 42 1066 42Z" stroke="#A8845C" stroke-width="1.5" stroke-dasharray="3 2.5"/>
<path d="M992.713 47.7012H992.356C991.727 47.7012 991.252 47.8125 990.932 48.0352C990.616 48.2539 990.457 48.582 990.457 49.0195C990.457 49.4141 990.577 49.7207 990.815 49.9395C991.053 50.1582 991.383 50.2676 991.805 50.2676C992.399 50.2676 992.866 50.0625 993.205 49.6523C993.545 49.2383 993.717 48.668 993.721 47.9414V47.7012H992.713ZM994.805 47.2559V51H993.721V50.0273C993.491 50.418 993.2 50.707 992.848 50.8945C992.5 51.0781 992.077 51.1699 991.577 51.1699C990.909 51.1699 990.375 50.9824 989.977 50.6074C989.578 50.2285 989.379 49.7227 989.379 49.0898C989.379 48.3594 989.623 47.8047 990.112 47.4258C990.604 47.0469 991.325 46.8574 992.274 46.8574H993.721V46.6875C993.717 46.1641 993.584 45.7852 993.323 45.5508C993.061 45.3125 992.643 45.1934 992.069 45.1934C991.702 45.1934 991.33 45.2461 990.955 45.3516C990.58 45.457 990.215 45.6113 989.86 45.8145V44.7363C990.258 44.584 990.639 44.4707 991.002 44.3965C991.37 44.3184 991.725 44.2793 992.069 44.2793C992.612 44.2793 993.075 44.3594 993.457 44.5195C993.844 44.6797 994.157 44.9199 994.395 45.2402C994.543 45.4355 994.649 45.6777 994.711 45.9668C994.774 46.252 994.805 46.6816 994.805 47.2559ZM1002.05 50.666C1001.76 50.834 1001.46 50.959 1001.15 51.041C1000.85 51.127 1000.53 51.1699 1000.21 51.1699C999.198 51.1699 998.403 50.8652 997.828 50.2559C997.258 49.6465 996.973 48.8027 996.973 47.7246C996.973 46.6465 997.258 45.8027 997.828 45.1934C998.403 44.584 999.198 44.2793 1000.21 44.2793C1000.53 44.2793 1000.84 44.3203 1001.14 44.4023C1001.44 44.4844 1001.74 44.6113 1002.05 44.7832V45.9141C1001.76 45.6602 1001.47 45.4766 1001.19 45.3633C1000.9 45.25 1000.58 45.1934 1000.21 45.1934C999.537 45.1934 999.018 45.4121 998.655 45.8496C998.291 46.2871 998.11 46.9121 998.11 47.7246C998.11 48.5332 998.291 49.1582 998.655 49.5996C999.022 50.0371 999.541 50.2559 1000.21 50.2559C1000.59 50.2559 1000.92 50.1992 1001.22 50.0859C1001.52 49.9688 1001.79 49.7891 1002.05 49.5469V50.666ZM1006.66 42.5742V44.4375H1009.11V45.2754H1006.66V48.8379C1006.66 49.3223 1006.75 49.6602 1006.93 49.8516C1007.12 50.043 1007.44 50.1387 1007.89 50.1387H1009.11V51H1007.79C1006.98 51 1006.41 50.8379 1006.08 50.5137C1005.75 50.1895 1005.58 49.6309 1005.58 48.8379V45.2754H1003.83V44.4375H1005.58V42.5742H1006.66ZM1012.14 44.4609H1014.9V50.1621H1017.04V51H1011.69V50.1621H1013.82V45.2988H1012.14V44.4609ZM1013.82 41.9121H1014.9V43.2715H1013.82V41.9121ZM1021.13 45.1934C1020.58 45.1934 1020.17 45.4062 1019.89 45.832C1019.61 46.2578 1019.47 46.8887 1019.47 47.7246C1019.47 48.5566 1019.61 49.1875 1019.89 49.6172C1020.17 50.043 1020.58 50.2559 1021.13 50.2559C1021.68 50.2559 1022.1 50.043 1022.38 49.6172C1022.66 49.1875 1022.8 48.5566 1022.8 47.7246C1022.8 46.8887 1022.66 46.2578 1022.38 45.832C1022.1 45.4062 1021.68 45.1934 1021.13 45.1934ZM1021.13 44.2793C1022.04 44.2793 1022.74 44.5742 1023.22 45.1641C1023.7 45.7539 1023.94 46.6074 1023.94 47.7246C1023.94 48.8457 1023.7 49.7012 1023.22 50.291C1022.74 50.877 1022.05 51.1699 1021.13 51.1699C1020.22 51.1699 1019.53 50.877 1019.05 50.291C1018.56 49.7012 1018.32 48.8457 1018.32 47.7246C1018.32 46.6074 1018.56 45.7539 1019.05 45.1641C1019.53 44.5742 1020.22 44.2793 1021.13 44.2793ZM1030.91 46.9336V51H1029.83V46.9336C1029.83 46.3438 1029.72 45.9102 1029.52 45.6328C1029.31 45.3555 1028.98 45.2168 1028.54 45.2168C1028.04 45.2168 1027.65 45.3965 1027.38 45.7559C1027.11 46.1113 1026.97 46.623 1026.97 47.291V51H1025.89V44.4375H1026.97V45.4219C1027.16 45.0469 1027.42 44.7637 1027.75 44.5723C1028.08 44.377 1028.47 44.2793 1028.92 44.2793C1029.59 44.2793 1030.08 44.5 1030.41 44.9414C1030.74 45.3789 1030.91 46.043 1030.91 46.9336Z" fill="#71716A"/>
<path d="M975.6 42H967.6C964.839 42 962.6 44.2386 962.6 47C962.6 49.7614 964.839 52 967.6 52H975.6C978.361 52 980.6 49.7614 980.6 47C980.6 44.2386 978.361 42 975.6 42Z" fill="#FCFCFA" stroke="#D5DCD0"/>
<path d="M133.333 110H1026.67" stroke="#B9C4B3"/>
<path d="M133.333 125C141.618 125 148.333 118.284 148.333 110C148.333 101.716 141.618 95 133.333 95C125.049 95 118.333 101.716 118.333 110C118.333 118.284 125.049 125 133.333 125Z" fill="#3E4A3A"/>
<path d="M131.131 112.427H133.124V105.267L130.737 106.416V105.185L133.111 104.055H134.393V112.427H136.361V113.5H131.131V112.427Z" fill="#ECF1E9"/>
<path d="M206.667 150H60C55.5817 150 52 153.582 52 158V184C52 188.418 55.5817 192 60 192H206.667C211.085 192 214.667 188.418 214.667 184V158C214.667 153.582 211.085 150 206.667 150Z" fill="#FCFCFA" stroke="#D5DCD0"/>
<path d="M100.911 163.523V164.891H97.0443V175H95.4661V164.891H91.5989V163.523H100.911ZM101.615 166.633H102.951V168.078C103.06 167.797 103.328 167.456 103.755 167.055C104.182 166.648 104.674 166.445 105.232 166.445C105.258 166.445 105.302 166.448 105.365 166.453C105.427 166.458 105.534 166.469 105.685 166.484V167.969C105.602 167.953 105.523 167.943 105.451 167.938C105.383 167.932 105.307 167.93 105.224 167.93C104.516 167.93 103.971 168.159 103.591 168.617C103.211 169.07 103.021 169.594 103.021 170.188V175H101.615V166.633ZM106.904 166.672H108.333V175H106.904V166.672ZM106.904 163.523H108.333V165.117H106.904V163.523ZM113.997 174.055C114.654 174.055 115.198 173.781 115.63 173.234C116.068 172.682 116.286 171.859 116.286 170.766C116.286 170.099 116.19 169.526 115.997 169.047C115.633 168.125 114.966 167.664 113.997 167.664C113.023 167.664 112.357 168.151 111.997 169.125C111.805 169.646 111.708 170.307 111.708 171.109C111.708 171.755 111.805 172.305 111.997 172.758C112.362 173.622 113.029 174.055 113.997 174.055ZM110.357 166.672H111.724V167.781C112.005 167.401 112.312 167.107 112.646 166.898C113.12 166.586 113.677 166.43 114.318 166.43C115.266 166.43 116.07 166.794 116.732 167.523C117.393 168.247 117.724 169.284 117.724 170.633C117.724 172.456 117.247 173.758 116.294 174.539C115.69 175.034 114.987 175.281 114.185 175.281C113.555 175.281 113.026 175.143 112.599 174.867C112.349 174.711 112.07 174.443 111.763 174.062V178.336H110.357V166.672ZM123.716 163.484H125.083V167.648C125.391 167.247 125.758 166.943 126.185 166.734C126.612 166.521 127.076 166.414 127.576 166.414C128.617 166.414 129.461 166.773 130.107 167.492C130.758 168.206 131.083 169.26 131.083 170.656C131.083 171.979 130.763 173.078 130.122 173.953C129.482 174.828 128.594 175.266 127.458 175.266C126.823 175.266 126.286 175.112 125.849 174.805C125.589 174.622 125.31 174.331 125.013 173.93V175H123.716V163.484ZM127.372 174.023C128.133 174.023 128.701 173.721 129.076 173.117C129.456 172.513 129.646 171.716 129.646 170.727C129.646 169.846 129.456 169.117 129.076 168.539C128.701 167.961 128.146 167.672 127.411 167.672C126.771 167.672 126.208 167.909 125.724 168.383C125.245 168.857 125.005 169.638 125.005 170.727C125.005 171.513 125.104 172.151 125.302 172.641C125.672 173.562 126.362 174.023 127.372 174.023ZM136.052 174.094C136.984 174.094 137.622 173.742 137.966 173.039C138.315 172.331 138.49 171.544 138.49 170.68C138.49 169.898 138.365 169.263 138.115 168.773C137.719 168.003 137.036 167.617 136.068 167.617C135.208 167.617 134.583 167.945 134.193 168.602C133.802 169.258 133.607 170.049 133.607 170.977C133.607 171.867 133.802 172.609 134.193 173.203C134.583 173.797 135.203 174.094 136.052 174.094ZM136.107 166.391C137.185 166.391 138.096 166.75 138.841 167.469C139.586 168.188 139.958 169.245 139.958 170.641C139.958 171.99 139.63 173.104 138.974 173.984C138.318 174.865 137.299 175.305 135.919 175.305C134.768 175.305 133.854 174.917 133.177 174.141C132.5 173.359 132.161 172.312 132.161 171C132.161 169.594 132.518 168.474 133.232 167.641C133.945 166.807 134.904 166.391 136.107 166.391ZM144.958 174.094C145.891 174.094 146.529 173.742 146.872 173.039C147.221 172.331 147.396 171.544 147.396 170.68C147.396 169.898 147.271 169.263 147.021 168.773C146.625 168.003 145.943 167.617 144.974 167.617C144.115 167.617 143.49 167.945 143.099 168.602C142.708 169.258 142.513 170.049 142.513 170.977C142.513 171.867 142.708 172.609 143.099 173.203C143.49 173.797 144.109 174.094 144.958 174.094ZM145.013 166.391C146.091 166.391 147.003 166.75 147.747 167.469C148.492 168.188 148.865 169.245 148.865 170.641C148.865 171.99 148.536 173.104 147.88 173.984C147.224 174.865 146.206 175.305 144.826 175.305C143.674 175.305 142.76 174.917 142.083 174.141C141.406 173.359 141.068 172.312 141.068 171C141.068 169.594 141.424 168.474 142.138 167.641C142.852 166.807 143.81 166.391 145.013 166.391ZM150.513 163.523H151.865V170.188L155.474 166.633H157.271L154.068 169.766L157.451 175H155.654L153.044 170.781L151.865 171.859V175H150.513V163.523ZM162.029 166.445C162.622 166.445 163.198 166.586 163.755 166.867C164.312 167.143 164.737 167.503 165.029 167.945C165.31 168.367 165.497 168.859 165.591 169.422C165.674 169.807 165.716 170.422 165.716 171.266H159.583C159.609 172.115 159.81 172.797 160.185 173.312C160.56 173.823 161.141 174.078 161.927 174.078C162.661 174.078 163.247 173.836 163.685 173.352C163.935 173.07 164.112 172.745 164.216 172.375H165.599C165.562 172.682 165.44 173.026 165.232 173.406C165.029 173.781 164.799 174.089 164.544 174.328C164.117 174.745 163.589 175.026 162.958 175.172C162.62 175.255 162.237 175.297 161.81 175.297C160.768 175.297 159.885 174.919 159.161 174.164C158.437 173.404 158.076 172.341 158.076 170.977C158.076 169.633 158.44 168.542 159.169 167.703C159.898 166.865 160.852 166.445 162.029 166.445ZM164.271 170.148C164.214 169.539 164.081 169.052 163.872 168.688C163.487 168.01 162.844 167.672 161.943 167.672C161.297 167.672 160.755 167.906 160.318 168.375C159.88 168.839 159.648 169.43 159.622 170.148H164.271ZM168.341 170.914C168.341 171.81 168.531 172.56 168.911 173.164C169.292 173.768 169.901 174.07 170.74 174.07C171.391 174.07 171.924 173.792 172.341 173.234C172.763 172.672 172.974 171.867 172.974 170.82C172.974 169.763 172.758 168.982 172.326 168.477C171.893 167.966 171.359 167.711 170.724 167.711C170.016 167.711 169.44 167.982 168.997 168.523C168.56 169.065 168.341 169.862 168.341 170.914ZM170.458 166.484C171.099 166.484 171.635 166.62 172.068 166.891C172.318 167.047 172.602 167.32 172.919 167.711V163.484H174.271V175H173.005V173.836C172.677 174.352 172.289 174.724 171.841 174.953C171.393 175.182 170.88 175.297 170.302 175.297C169.37 175.297 168.562 174.906 167.88 174.125C167.198 173.339 166.857 172.294 166.857 170.992C166.857 169.773 167.167 168.719 167.786 167.828C168.411 166.932 169.302 166.484 170.458 166.484Z" fill="#263023"/>
<path d="M312 125C320.284 125 327 118.284 327 110C327 101.716 320.284 95 312 95C303.716 95 297 101.716 297 110C297 118.284 303.716 125 312 125Z" fill="#3E4A3A"/>
<path d="M310.451 112.421H314.806V113.5H309.048V112.421C309.84 111.587 310.532 110.851 311.124 110.212C311.716 109.573 312.125 109.122 312.349 108.86C312.772 108.344 313.058 107.927 313.206 107.609C313.354 107.288 313.428 106.96 313.428 106.625C313.428 106.097 313.272 105.682 312.958 105.381C312.65 105.081 312.224 104.931 311.683 104.931C311.298 104.931 310.893 105 310.47 105.14C310.047 105.28 309.598 105.491 309.125 105.775V104.48C309.56 104.273 309.988 104.116 310.407 104.01C310.83 103.904 311.247 103.852 311.657 103.852C312.584 103.852 313.329 104.099 313.892 104.594C314.459 105.085 314.742 105.73 314.742 106.53C314.742 106.937 314.647 107.343 314.457 107.749C314.27 108.155 313.966 108.604 313.542 109.095C313.306 109.37 312.961 109.751 312.508 110.237C312.059 110.724 311.374 111.452 310.451 112.421Z" fill="#ECF1E9"/>
<path d="M385.333 150H238.667C234.248 150 230.667 153.582 230.667 158V184C230.667 188.418 234.248 192 238.667 192H385.333C389.752 192 393.333 188.418 393.333 184V158C393.333 153.582 389.752 150 385.333 150Z" fill="#FCFCFA" stroke="#D5DCD0"/>
<path d="M256.242 163.523H258.078L263.875 172.82V163.523H265.352V175H263.609L257.727 165.711V175H256.242V163.523ZM271.102 166.445C271.695 166.445 272.271 166.586 272.828 166.867C273.385 167.143 273.81 167.503 274.102 167.945C274.383 168.367 274.57 168.859 274.664 169.422C274.747 169.807 274.789 170.422 274.789 171.266H268.656C268.682 172.115 268.883 172.797 269.258 173.312C269.633 173.823 270.214 174.078 271 174.078C271.734 174.078 272.32 173.836 272.758 173.352C273.008 173.07 273.185 172.745 273.289 172.375H274.672C274.635 172.682 274.513 173.026 274.305 173.406C274.102 173.781 273.872 174.089 273.617 174.328C273.19 174.745 272.661 175.026 272.031 175.172C271.693 175.255 271.31 175.297 270.883 175.297C269.841 175.297 268.958 174.919 268.234 174.164C267.51 173.404 267.148 172.341 267.148 170.977C267.148 169.633 267.513 168.542 268.242 167.703C268.971 166.865 269.924 166.445 271.102 166.445ZM273.344 170.148C273.286 169.539 273.154 169.052 272.945 168.688C272.56 168.01 271.917 167.672 271.016 167.672C270.37 167.672 269.828 167.906 269.391 168.375C268.953 168.839 268.721 169.43 268.695 170.148H273.344ZM280.008 166.445C280.602 166.445 281.177 166.586 281.734 166.867C282.292 167.143 282.716 167.503 283.008 167.945C283.289 168.367 283.477 168.859 283.57 169.422C283.654 169.807 283.695 170.422 283.695 171.266H277.562C277.589 172.115 277.789 172.797 278.164 173.312C278.539 173.823 279.12 174.078 279.906 174.078C280.641 174.078 281.227 173.836 281.664 173.352C281.914 173.07 282.091 172.745 282.195 172.375H283.578C283.542 172.682 283.419 173.026 283.211 173.406C283.008 173.781 282.779 174.089 282.523 174.328C282.096 174.745 281.568 175.026 280.938 175.172C280.599 175.255 280.216 175.297 279.789 175.297C278.747 175.297 277.865 174.919 277.141 174.164C276.417 173.404 276.055 172.341 276.055 170.977C276.055 169.633 276.419 168.542 277.148 167.703C277.878 166.865 278.831 166.445 280.008 166.445ZM282.25 170.148C282.193 169.539 282.06 169.052 281.852 168.688C281.466 168.01 280.823 167.672 279.922 167.672C279.276 167.672 278.734 167.906 278.297 168.375C277.859 168.839 277.628 169.43 277.602 170.148H282.25ZM286.32 170.914C286.32 171.81 286.51 172.56 286.891 173.164C287.271 173.768 287.88 174.07 288.719 174.07C289.37 174.07 289.904 173.792 290.32 173.234C290.742 172.672 290.953 171.867 290.953 170.82C290.953 169.763 290.737 168.982 290.305 168.477C289.872 167.966 289.339 167.711 288.703 167.711C287.995 167.711 287.419 167.982 286.977 168.523C286.539 169.065 286.32 169.862 286.32 170.914ZM288.438 166.484C289.078 166.484 289.615 166.62 290.047 166.891C290.297 167.047 290.581 167.32 290.898 167.711V163.484H292.25V175H290.984V173.836C290.656 174.352 290.268 174.724 289.82 174.953C289.372 175.182 288.859 175.297 288.281 175.297C287.349 175.297 286.542 174.906 285.859 174.125C285.177 173.339 284.836 172.294 284.836 170.992C284.836 169.773 285.146 168.719 285.766 167.828C286.391 166.932 287.281 166.484 288.438 166.484ZM298.68 163.484H300.047V167.648C300.354 167.247 300.721 166.943 301.148 166.734C301.576 166.521 302.039 166.414 302.539 166.414C303.581 166.414 304.424 166.773 305.07 167.492C305.721 168.206 306.047 169.26 306.047 170.656C306.047 171.979 305.727 173.078 305.086 173.953C304.445 174.828 303.557 175.266 302.422 175.266C301.786 175.266 301.25 175.112 300.812 174.805C300.552 174.622 300.273 174.331 299.977 173.93V175H298.68V163.484ZM302.336 174.023C303.096 174.023 303.664 173.721 304.039 173.117C304.419 172.513 304.609 171.716 304.609 170.727C304.609 169.846 304.419 169.117 304.039 168.539C303.664 167.961 303.109 167.672 302.375 167.672C301.734 167.672 301.172 167.909 300.688 168.383C300.208 168.857 299.969 169.638 299.969 170.727C299.969 171.513 300.068 172.151 300.266 172.641C300.635 173.562 301.326 174.023 302.336 174.023ZM308.773 172.773C308.773 173.18 308.922 173.5 309.219 173.734C309.516 173.969 309.867 174.086 310.273 174.086C310.768 174.086 311.247 173.971 311.711 173.742C312.492 173.362 312.883 172.74 312.883 171.875V170.742C312.711 170.852 312.49 170.943 312.219 171.016C311.948 171.089 311.682 171.141 311.422 171.172L310.57 171.281C310.06 171.349 309.677 171.456 309.422 171.602C308.99 171.846 308.773 172.237 308.773 172.773ZM312.18 169.93C312.503 169.888 312.719 169.753 312.828 169.523C312.891 169.398 312.922 169.219 312.922 168.984C312.922 168.505 312.75 168.159 312.406 167.945C312.068 167.727 311.581 167.617 310.945 167.617C310.211 167.617 309.69 167.815 309.383 168.211C309.211 168.43 309.099 168.755 309.047 169.188H307.734C307.76 168.156 308.094 167.44 308.734 167.039C309.38 166.633 310.128 166.43 310.977 166.43C311.961 166.43 312.76 166.617 313.375 166.992C313.984 167.367 314.289 167.951 314.289 168.742V173.562C314.289 173.708 314.318 173.826 314.375 173.914C314.438 174.003 314.565 174.047 314.758 174.047C314.82 174.047 314.891 174.044 314.969 174.039C315.047 174.029 315.13 174.016 315.219 174V175.039C315 175.102 314.833 175.141 314.719 175.156C314.604 175.172 314.448 175.18 314.25 175.18C313.766 175.18 313.414 175.008 313.195 174.664C313.081 174.482 313 174.224 312.953 173.891C312.667 174.266 312.255 174.591 311.719 174.867C311.182 175.143 310.591 175.281 309.945 175.281C309.169 175.281 308.534 175.047 308.039 174.578C307.549 174.104 307.305 173.513 307.305 172.805C307.305 172.029 307.547 171.427 308.031 171C308.516 170.573 309.151 170.31 309.938 170.211L312.18 169.93ZM316.492 163.484H317.859V167.648C318.167 167.247 318.534 166.943 318.961 166.734C319.388 166.521 319.852 166.414 320.352 166.414C321.393 166.414 322.237 166.773 322.883 167.492C323.534 168.206 323.859 169.26 323.859 170.656C323.859 171.979 323.539 173.078 322.898 173.953C322.258 174.828 321.37 175.266 320.234 175.266C319.599 175.266 319.062 175.112 318.625 174.805C318.365 174.622 318.086 174.331 317.789 173.93V175H316.492V163.484ZM320.148 174.023C320.909 174.023 321.477 173.721 321.852 173.117C322.232 172.513 322.422 171.716 322.422 170.727C322.422 169.846 322.232 169.117 321.852 168.539C321.477 167.961 320.922 167.672 320.188 167.672C319.547 167.672 318.984 167.909 318.5 168.383C318.021 168.857 317.781 169.638 317.781 170.727C317.781 171.513 317.88 172.151 318.078 172.641C318.448 173.562 319.138 174.023 320.148 174.023ZM330.734 166.633H332.289C332.091 167.169 331.651 168.393 330.969 170.305C330.458 171.742 330.031 172.914 329.688 173.82C328.875 175.956 328.302 177.258 327.969 177.727C327.635 178.195 327.062 178.43 326.25 178.43C326.052 178.43 325.898 178.422 325.789 178.406C325.685 178.391 325.555 178.362 325.398 178.32V177.039C325.643 177.107 325.82 177.148 325.93 177.164C326.039 177.18 326.135 177.188 326.219 177.188C326.479 177.188 326.669 177.143 326.789 177.055C326.914 176.971 327.018 176.867 327.102 176.742C327.128 176.701 327.221 176.487 327.383 176.102C327.544 175.716 327.661 175.43 327.734 175.242L324.641 166.633H326.234L328.477 173.445L330.734 166.633ZM340.914 166.484C341.57 166.484 342.143 166.646 342.633 166.969C342.898 167.151 343.169 167.417 343.445 167.766V166.711H344.742V174.32C344.742 175.383 344.586 176.221 344.273 176.836C343.69 177.971 342.589 178.539 340.969 178.539C340.068 178.539 339.31 178.336 338.695 177.93C338.081 177.529 337.737 176.898 337.664 176.039H339.094C339.161 176.414 339.297 176.703 339.5 176.906C339.818 177.219 340.318 177.375 341 177.375C342.078 177.375 342.784 176.995 343.117 176.234C343.315 175.786 343.406 174.987 343.391 173.836C343.109 174.263 342.771 174.581 342.375 174.789C341.979 174.997 341.456 175.102 340.805 175.102C339.898 175.102 339.104 174.781 338.422 174.141C337.745 173.495 337.406 172.43 337.406 170.945C337.406 169.544 337.747 168.451 338.43 167.664C339.117 166.878 339.945 166.484 340.914 166.484ZM343.445 170.781C343.445 169.745 343.232 168.977 342.805 168.477C342.378 167.977 341.833 167.727 341.172 167.727C340.182 167.727 339.505 168.19 339.141 169.117C338.948 169.612 338.852 170.26 338.852 171.062C338.852 172.005 339.042 172.724 339.422 173.219C339.807 173.708 340.323 173.953 340.969 173.953C341.979 173.953 342.69 173.497 343.102 172.586C343.331 172.07 343.445 171.469 343.445 170.781ZM350.352 166.445C350.945 166.445 351.521 166.586 352.078 166.867C352.635 167.143 353.06 167.503 353.352 167.945C353.633 168.367 353.82 168.859 353.914 169.422C353.997 169.807 354.039 170.422 354.039 171.266H347.906C347.932 172.115 348.133 172.797 348.508 173.312C348.883 173.823 349.464 174.078 350.25 174.078C350.984 174.078 351.57 173.836 352.008 173.352C352.258 173.07 352.435 172.745 352.539 172.375H353.922C353.885 172.682 353.763 173.026 353.555 173.406C353.352 173.781 353.122 174.089 352.867 174.328C352.44 174.745 351.911 175.026 351.281 175.172C350.943 175.255 350.56 175.297 350.133 175.297C349.091 175.297 348.208 174.919 347.484 174.164C346.76 173.404 346.398 172.341 346.398 170.977C346.398 169.633 346.763 168.542 347.492 167.703C348.221 166.865 349.174 166.445 350.352 166.445ZM352.594 170.148C352.536 169.539 352.404 169.052 352.195 168.688C351.81 168.01 351.167 167.672 350.266 167.672C349.62 167.672 349.078 167.906 348.641 168.375C348.203 168.839 347.971 169.43 347.945 170.148H352.594ZM356.852 172.773C356.852 173.18 357 173.5 357.297 173.734C357.594 173.969 357.945 174.086 358.352 174.086C358.846 174.086 359.326 173.971 359.789 173.742C360.57 173.362 360.961 172.74 360.961 171.875V170.742C360.789 170.852 360.568 170.943 360.297 171.016C360.026 171.089 359.76 171.141 359.5 171.172L358.648 171.281C358.138 171.349 357.755 171.456 357.5 171.602C357.068 171.846 356.852 172.237 356.852 172.773ZM360.258 169.93C360.581 169.888 360.797 169.753 360.906 169.523C360.969 169.398 361 169.219 361 168.984C361 168.505 360.828 168.159 360.484 167.945C360.146 167.727 359.659 167.617 359.023 167.617C358.289 167.617 357.768 167.815 357.461 168.211C357.289 168.43 357.177 168.755 357.125 169.188H355.812C355.839 168.156 356.172 167.44 356.812 167.039C357.458 166.633 358.206 166.43 359.055 166.43C360.039 166.43 360.839 166.617 361.453 166.992C362.062 167.367 362.367 167.951 362.367 168.742V173.562C362.367 173.708 362.396 173.826 362.453 173.914C362.516 174.003 362.643 174.047 362.836 174.047C362.898 174.047 362.969 174.044 363.047 174.039C363.125 174.029 363.208 174.016 363.297 174V175.039C363.078 175.102 362.911 175.141 362.797 175.156C362.682 175.172 362.526 175.18 362.328 175.18C361.844 175.18 361.492 175.008 361.273 174.664C361.159 174.482 361.078 174.224 361.031 173.891C360.745 174.266 360.333 174.591 359.797 174.867C359.26 175.143 358.669 175.281 358.023 175.281C357.247 175.281 356.612 175.047 356.117 174.578C355.628 174.104 355.383 173.513 355.383 172.805C355.383 172.029 355.625 171.427 356.109 171C356.594 170.573 357.229 170.31 358.016 170.211L360.258 169.93ZM364.719 166.633H366.055V168.078C366.164 167.797 366.432 167.456 366.859 167.055C367.286 166.648 367.779 166.445 368.336 166.445C368.362 166.445 368.406 166.448 368.469 166.453C368.531 166.458 368.638 166.469 368.789 166.484V167.969C368.706 167.953 368.628 167.943 368.555 167.938C368.487 167.932 368.411 167.93 368.328 167.93C367.62 167.93 367.076 168.159 366.695 168.617C366.315 169.07 366.125 169.594 366.125 170.188V175H364.719V166.633Z" fill="#263023"/>
<path d="M490.667 125C498.951 125 505.667 118.284 505.667 110C505.667 101.716 498.951 95 490.667 95C482.382 95 475.667 101.716 475.667 110C475.667 118.284 482.382 125 490.667 125Z" fill="#FCFCFA" stroke="#A8845C" stroke-width="1.5" stroke-dasharray="4 3"/>
<path d="M491.092 110.955H489.886V109.977C489.886 109.562 489.949 109.211 490.076 108.923C490.207 108.631 490.451 108.312 490.806 107.965L491.378 107.4C491.64 107.15 491.82 106.932 491.917 106.746C492.019 106.56 492.069 106.363 492.069 106.156C492.069 105.779 491.93 105.474 491.651 105.242C491.375 105.009 491.007 104.893 490.546 104.893C490.216 104.893 489.863 104.967 489.486 105.115C489.109 105.259 488.714 105.474 488.299 105.762V104.569C488.697 104.328 489.097 104.148 489.499 104.029C489.905 103.911 490.328 103.852 490.768 103.852C491.555 103.852 492.182 104.055 492.647 104.461C493.117 104.867 493.352 105.411 493.352 106.092C493.352 106.414 493.28 106.714 493.136 106.994C492.996 107.269 492.727 107.601 492.33 107.99L491.771 108.536C491.479 108.815 491.293 109.044 491.213 109.222C491.132 109.399 491.092 109.617 491.092 109.875V110.174V110.955ZM489.841 111.888H491.13V113.5H489.841V111.888Z" fill="#8A6A44"/>
<path d="M564 150H417.333C412.915 150 409.333 153.582 409.333 158V184C409.333 188.418 412.915 192 417.333 192H564C568.418 192 572 188.418 572 184V158C572 153.582 568.418 150 564 150Z" stroke="#A8845C" stroke-width="1.5" stroke-dasharray="4 3"/>
<path d="M441.143 163.211C442.596 163.211 443.724 163.594 444.526 164.359C445.328 165.125 445.773 165.995 445.862 166.969H444.346C444.174 166.229 443.831 165.643 443.315 165.211C442.805 164.779 442.086 164.562 441.159 164.562C440.029 164.562 439.115 164.961 438.417 165.758C437.724 166.549 437.378 167.766 437.378 169.406C437.378 170.75 437.69 171.841 438.315 172.68C438.945 173.513 439.883 173.93 441.128 173.93C442.273 173.93 443.146 173.49 443.745 172.609C444.062 172.146 444.299 171.536 444.456 170.781H445.971C445.836 171.99 445.388 173.003 444.628 173.82C443.716 174.805 442.487 175.297 440.94 175.297C439.607 175.297 438.487 174.893 437.581 174.086C436.388 173.018 435.792 171.37 435.792 169.141C435.792 167.448 436.24 166.06 437.135 164.977C438.104 163.799 439.44 163.211 441.143 163.211ZM448.76 172.773C448.76 173.18 448.909 173.5 449.206 173.734C449.503 173.969 449.854 174.086 450.26 174.086C450.755 174.086 451.234 173.971 451.698 173.742C452.479 173.362 452.87 172.74 452.87 171.875V170.742C452.698 170.852 452.477 170.943 452.206 171.016C451.935 171.089 451.669 171.141 451.409 171.172L450.557 171.281C450.047 171.349 449.664 171.456 449.409 171.602C448.977 171.846 448.76 172.237 448.76 172.773ZM452.167 169.93C452.49 169.888 452.706 169.753 452.815 169.523C452.878 169.398 452.909 169.219 452.909 168.984C452.909 168.505 452.737 168.159 452.393 167.945C452.055 167.727 451.568 167.617 450.932 167.617C450.198 167.617 449.677 167.815 449.37 168.211C449.198 168.43 449.086 168.755 449.034 169.188H447.721C447.747 168.156 448.081 167.44 448.721 167.039C449.367 166.633 450.115 166.43 450.964 166.43C451.948 166.43 452.747 166.617 453.362 166.992C453.971 167.367 454.276 167.951 454.276 168.742V173.562C454.276 173.708 454.305 173.826 454.362 173.914C454.424 174.003 454.552 174.047 454.745 174.047C454.807 174.047 454.878 174.044 454.956 174.039C455.034 174.029 455.117 174.016 455.206 174V175.039C454.987 175.102 454.82 175.141 454.706 175.156C454.591 175.172 454.435 175.18 454.237 175.18C453.753 175.18 453.401 175.008 453.182 174.664C453.068 174.482 452.987 174.224 452.94 173.891C452.654 174.266 452.242 174.591 451.706 174.867C451.169 175.143 450.578 175.281 449.932 175.281C449.156 175.281 448.521 175.047 448.026 174.578C447.536 174.104 447.292 173.513 447.292 172.805C447.292 172.029 447.534 171.427 448.018 171C448.503 170.573 449.138 170.31 449.924 170.211L452.167 169.93ZM456.589 166.633H457.924V167.82C458.32 167.331 458.74 166.979 459.182 166.766C459.625 166.552 460.117 166.445 460.659 166.445C461.846 166.445 462.648 166.859 463.065 167.688C463.294 168.141 463.409 168.789 463.409 169.633V175H461.979V169.727C461.979 169.216 461.904 168.805 461.753 168.492C461.503 167.971 461.049 167.711 460.393 167.711C460.06 167.711 459.786 167.745 459.573 167.812C459.187 167.927 458.849 168.156 458.557 168.5C458.323 168.776 458.169 169.062 458.096 169.359C458.029 169.651 457.995 170.07 457.995 170.617V175H456.589V166.633ZM470.487 163.523H472.057V175H470.487V163.523ZM479.135 164.297H480.557V166.633H481.893V167.781H480.557V173.242C480.557 173.534 480.656 173.729 480.854 173.828C480.964 173.885 481.146 173.914 481.401 173.914C481.469 173.914 481.542 173.914 481.62 173.914C481.698 173.909 481.789 173.901 481.893 173.891V175C481.732 175.047 481.562 175.081 481.385 175.102C481.214 175.122 481.026 175.133 480.823 175.133C480.167 175.133 479.721 174.966 479.487 174.633C479.253 174.294 479.135 173.857 479.135 173.32V167.781H478.003V166.633H479.135V164.297ZM483.346 166.633H484.682V168.078C484.792 167.797 485.06 167.456 485.487 167.055C485.914 166.648 486.406 166.445 486.964 166.445C486.99 166.445 487.034 166.448 487.096 166.453C487.159 166.458 487.266 166.469 487.417 166.484V167.969C487.333 167.953 487.255 167.943 487.182 167.938C487.115 167.932 487.039 167.93 486.956 167.93C486.247 167.93 485.703 168.159 485.323 168.617C484.943 169.07 484.753 169.594 484.753 170.188V175H483.346V166.633ZM490.042 166.633V172.188C490.042 172.615 490.109 172.964 490.245 173.234C490.495 173.734 490.961 173.984 491.643 173.984C492.622 173.984 493.289 173.547 493.643 172.672C493.836 172.203 493.932 171.56 493.932 170.742V166.633H495.339V175H494.01L494.026 173.766C493.844 174.083 493.617 174.352 493.346 174.57C492.81 175.008 492.159 175.227 491.393 175.227C490.2 175.227 489.388 174.828 488.956 174.031C488.721 173.604 488.604 173.034 488.604 172.32V166.633H490.042ZM498.378 172.375C498.419 172.844 498.536 173.203 498.729 173.453C499.083 173.906 499.698 174.133 500.573 174.133C501.094 174.133 501.552 174.021 501.948 173.797C502.344 173.568 502.542 173.216 502.542 172.742C502.542 172.383 502.383 172.109 502.065 171.922C501.862 171.807 501.461 171.674 500.862 171.523L499.745 171.242C499.031 171.065 498.505 170.867 498.167 170.648C497.562 170.268 497.26 169.742 497.26 169.07C497.26 168.279 497.544 167.638 498.112 167.148C498.685 166.659 499.453 166.414 500.417 166.414C501.677 166.414 502.586 166.784 503.143 167.523C503.492 167.992 503.661 168.497 503.651 169.039H502.323C502.297 168.721 502.185 168.432 501.987 168.172C501.664 167.802 501.104 167.617 500.307 167.617C499.776 167.617 499.372 167.719 499.096 167.922C498.825 168.125 498.69 168.393 498.69 168.727C498.69 169.091 498.87 169.383 499.229 169.602C499.437 169.732 499.745 169.846 500.151 169.945L501.081 170.172C502.091 170.417 502.768 170.654 503.112 170.883C503.659 171.242 503.932 171.807 503.932 172.578C503.932 173.323 503.648 173.966 503.081 174.508C502.518 175.049 501.659 175.32 500.503 175.32C499.258 175.32 498.375 175.039 497.854 174.477C497.339 173.909 497.062 173.208 497.026 172.375H498.378ZM505.823 164.297H507.245V166.633H508.581V167.781H507.245V173.242C507.245 173.534 507.344 173.729 507.542 173.828C507.651 173.885 507.833 173.914 508.089 173.914C508.156 173.914 508.229 173.914 508.307 173.914C508.385 173.909 508.477 173.901 508.581 173.891V175C508.419 175.047 508.25 175.081 508.073 175.102C507.901 175.122 507.714 175.133 507.51 175.133C506.854 175.133 506.409 174.966 506.174 174.633C505.94 174.294 505.823 173.857 505.823 173.32V167.781H504.69V166.633H505.823V164.297ZM514.729 164.297H516.151V166.633H517.487V167.781H516.151V173.242C516.151 173.534 516.25 173.729 516.448 173.828C516.557 173.885 516.74 173.914 516.995 173.914C517.062 173.914 517.135 173.914 517.214 173.914C517.292 173.909 517.383 173.901 517.487 173.891V175C517.325 175.047 517.156 175.081 516.979 175.102C516.807 175.122 516.62 175.133 516.417 175.133C515.76 175.133 515.315 174.966 515.081 174.633C514.846 174.294 514.729 173.857 514.729 173.32V167.781H513.596V166.633H514.729V164.297ZM518.901 163.484H520.307V167.766C520.641 167.344 520.94 167.047 521.206 166.875C521.659 166.578 522.224 166.43 522.901 166.43C524.115 166.43 524.937 166.854 525.37 167.703C525.604 168.167 525.721 168.81 525.721 169.633V175H524.276V169.727C524.276 169.112 524.198 168.661 524.042 168.375C523.786 167.917 523.307 167.688 522.604 167.688C522.021 167.688 521.492 167.888 521.018 168.289C520.544 168.69 520.307 169.448 520.307 170.562V175H518.901V163.484ZM527.807 166.672H529.237V175H527.807V166.672ZM527.807 163.523H529.237V165.117H527.807V163.523ZM532.206 172.375C532.247 172.844 532.365 173.203 532.557 173.453C532.911 173.906 533.526 174.133 534.401 174.133C534.922 174.133 535.38 174.021 535.776 173.797C536.172 173.568 536.37 173.216 536.37 172.742C536.37 172.383 536.211 172.109 535.893 171.922C535.69 171.807 535.289 171.674 534.69 171.523L533.573 171.242C532.859 171.065 532.333 170.867 531.995 170.648C531.391 170.268 531.089 169.742 531.089 169.07C531.089 168.279 531.372 167.638 531.94 167.148C532.513 166.659 533.281 166.414 534.245 166.414C535.505 166.414 536.414 166.784 536.971 167.523C537.32 167.992 537.49 168.497 537.479 169.039H536.151C536.125 168.721 536.013 168.432 535.815 168.172C535.492 167.802 534.932 167.617 534.135 167.617C533.604 167.617 533.2 167.719 532.924 167.922C532.654 168.125 532.518 168.393 532.518 168.727C532.518 169.091 532.698 169.383 533.057 169.602C533.266 169.732 533.573 169.846 533.979 169.945L534.909 170.172C535.919 170.417 536.596 170.654 536.94 170.883C537.487 171.242 537.76 171.807 537.76 172.578C537.76 173.323 537.477 173.966 536.909 174.508C536.346 175.049 535.487 175.32 534.331 175.32C533.086 175.32 532.203 175.039 531.682 174.477C531.167 173.909 530.891 173.208 530.854 172.375H532.206ZM542.19 173.375H543.745V175H542.19V173.375ZM539.557 167.117C539.557 165.992 539.875 165.089 540.51 164.406C541.146 163.719 542.018 163.375 543.128 163.375C544.154 163.375 544.974 163.669 545.589 164.258C546.208 164.841 546.518 165.589 546.518 166.5C546.518 167.052 546.404 167.5 546.174 167.844C545.95 168.188 545.495 168.693 544.807 169.359C544.307 169.844 543.982 170.255 543.831 170.594C543.685 170.927 543.612 171.422 543.612 172.078H542.221C542.221 171.333 542.31 170.734 542.487 170.281C542.664 169.823 543.052 169.299 543.651 168.711L544.276 168.094C544.464 167.917 544.615 167.732 544.729 167.539C544.937 167.201 545.042 166.849 545.042 166.484C545.042 165.974 544.888 165.531 544.581 165.156C544.279 164.781 543.776 164.594 543.073 164.594C542.203 164.594 541.602 164.917 541.268 165.562C541.081 165.922 540.974 166.44 540.948 167.117H539.557Z" fill="#7A5E3C"/>
<path d="M669.333 125C677.618 125 684.333 118.284 684.333 110C684.333 101.716 677.618 95 669.333 95C661.049 95 654.333 101.716 654.333 110C654.333 118.284 661.049 125 669.333 125Z" fill="#3E4A3A"/>
<path d="M670.343 108.428C670.965 108.593 671.441 108.887 671.771 109.311C672.101 109.729 672.266 110.254 672.266 110.885C672.266 111.757 671.972 112.442 671.384 112.941C670.8 113.437 669.989 113.684 668.952 113.684C668.517 113.684 668.072 113.644 667.619 113.563C667.167 113.483 666.722 113.367 666.286 113.214V111.938C666.718 112.163 667.143 112.33 667.562 112.44C667.981 112.55 668.398 112.605 668.813 112.605C669.515 112.605 670.055 112.446 670.431 112.129C670.808 111.812 670.996 111.354 670.996 110.758C670.996 110.208 670.808 109.772 670.431 109.45C670.055 109.124 669.545 108.961 668.902 108.961H667.924V107.908H668.902C669.49 107.908 669.949 107.779 670.279 107.521C670.609 107.262 670.774 106.903 670.774 106.441C670.774 105.955 670.62 105.582 670.311 105.324C670.006 105.062 669.57 104.931 669.003 104.931C668.627 104.931 668.237 104.973 667.835 105.058C667.433 105.142 667.012 105.269 666.572 105.438V104.258C667.084 104.122 667.539 104.021 667.937 103.953C668.339 103.885 668.694 103.852 669.003 103.852C669.926 103.852 670.662 104.084 671.212 104.55C671.767 105.011 672.044 105.625 672.044 106.391C672.044 106.911 671.898 107.345 671.606 107.692C671.318 108.039 670.897 108.284 670.343 108.428Z" fill="#ECF1E9"/>
<path d="M742.667 150H596C591.582 150 588 153.582 588 158V184C588 188.418 591.582 192 596 192H742.667C747.085 192 750.667 188.418 750.667 184V158C750.667 153.582 747.085 150 742.667 150Z" fill="#FCFCFA" stroke="#D5DCD0"/>
<path d="M636.872 163.523H644.833V164.93H638.427V168.414H644.06V169.781H638.427V175H636.872V163.523ZM646.318 166.672H647.747V175H646.318V166.672ZM646.318 163.523H647.747V165.117H646.318V163.523ZM649.88 166.633H651.216V167.82C651.612 167.331 652.031 166.979 652.474 166.766C652.917 166.552 653.409 166.445 653.95 166.445C655.138 166.445 655.94 166.859 656.357 167.688C656.586 168.141 656.7 168.789 656.7 169.633V175H655.271V169.727C655.271 169.216 655.195 168.805 655.044 168.492C654.794 167.971 654.341 167.711 653.685 167.711C653.351 167.711 653.078 167.745 652.865 167.812C652.479 167.927 652.141 168.156 651.849 168.5C651.615 168.776 651.461 169.062 651.388 169.359C651.32 169.651 651.286 170.07 651.286 170.617V175H649.88V166.633ZM659.677 170.914C659.677 171.81 659.867 172.56 660.247 173.164C660.628 173.768 661.237 174.07 662.075 174.07C662.726 174.07 663.26 173.792 663.677 173.234C664.099 172.672 664.31 171.867 664.31 170.82C664.31 169.763 664.094 168.982 663.661 168.477C663.229 167.966 662.695 167.711 662.06 167.711C661.351 167.711 660.776 167.982 660.333 168.523C659.896 169.065 659.677 169.862 659.677 170.914ZM661.794 166.484C662.435 166.484 662.971 166.62 663.404 166.891C663.654 167.047 663.937 167.32 664.255 167.711V163.484H665.607V175H664.341V173.836C664.013 174.352 663.625 174.724 663.177 174.953C662.729 175.182 662.216 175.297 661.638 175.297C660.706 175.297 659.898 174.906 659.216 174.125C658.534 173.339 658.193 172.294 658.193 170.992C658.193 169.773 658.503 168.719 659.122 167.828C659.747 166.932 660.638 166.484 661.794 166.484ZM675.099 166.484C675.755 166.484 676.328 166.646 676.818 166.969C677.083 167.151 677.354 167.417 677.63 167.766V166.711H678.927V174.32C678.927 175.383 678.771 176.221 678.458 176.836C677.875 177.971 676.773 178.539 675.154 178.539C674.253 178.539 673.495 178.336 672.88 177.93C672.266 177.529 671.922 176.898 671.849 176.039H673.279C673.346 176.414 673.482 176.703 673.685 176.906C674.003 177.219 674.503 177.375 675.185 177.375C676.263 177.375 676.969 176.995 677.302 176.234C677.5 175.786 677.591 174.987 677.575 173.836C677.294 174.263 676.956 174.581 676.56 174.789C676.164 174.997 675.641 175.102 674.99 175.102C674.083 175.102 673.289 174.781 672.607 174.141C671.93 173.495 671.591 172.43 671.591 170.945C671.591 169.544 671.932 168.451 672.615 167.664C673.302 166.878 674.13 166.484 675.099 166.484ZM677.63 170.781C677.63 169.745 677.417 168.977 676.99 168.477C676.562 167.977 676.018 167.727 675.357 167.727C674.367 167.727 673.69 168.19 673.325 169.117C673.133 169.612 673.036 170.26 673.036 171.062C673.036 172.005 673.226 172.724 673.607 173.219C673.992 173.708 674.508 173.953 675.154 173.953C676.164 173.953 676.875 173.497 677.286 172.586C677.516 172.07 677.63 171.469 677.63 170.781ZM684.536 166.445C685.13 166.445 685.706 166.586 686.263 166.867C686.82 167.143 687.245 167.503 687.536 167.945C687.818 168.367 688.005 168.859 688.099 169.422C688.182 169.807 688.224 170.422 688.224 171.266H682.091C682.117 172.115 682.318 172.797 682.693 173.312C683.068 173.823 683.648 174.078 684.435 174.078C685.169 174.078 685.755 173.836 686.193 173.352C686.443 173.07 686.62 172.745 686.724 172.375H688.107C688.07 172.682 687.948 173.026 687.74 173.406C687.536 173.781 687.307 174.089 687.052 174.328C686.625 174.745 686.096 175.026 685.466 175.172C685.128 175.255 684.745 175.297 684.318 175.297C683.276 175.297 682.393 174.919 681.669 174.164C680.945 173.404 680.583 172.341 680.583 170.977C680.583 169.633 680.948 168.542 681.677 167.703C682.406 166.865 683.359 166.445 684.536 166.445ZM686.779 170.148C686.721 169.539 686.588 169.052 686.38 168.688C685.995 168.01 685.351 167.672 684.45 167.672C683.805 167.672 683.263 167.906 682.825 168.375C682.388 168.839 682.156 169.43 682.13 170.148H686.779ZM691.036 172.773C691.036 173.18 691.185 173.5 691.482 173.734C691.779 173.969 692.13 174.086 692.536 174.086C693.031 174.086 693.51 173.971 693.974 173.742C694.755 173.362 695.146 172.74 695.146 171.875V170.742C694.974 170.852 694.753 170.943 694.482 171.016C694.211 171.089 693.945 171.141 693.685 171.172L692.833 171.281C692.323 171.349 691.94 171.456 691.685 171.602C691.253 171.846 691.036 172.237 691.036 172.773ZM694.443 169.93C694.766 169.888 694.982 169.753 695.091 169.523C695.154 169.398 695.185 169.219 695.185 168.984C695.185 168.505 695.013 168.159 694.669 167.945C694.331 167.727 693.844 167.617 693.208 167.617C692.474 167.617 691.953 167.815 691.646 168.211C691.474 168.43 691.362 168.755 691.31 169.188H689.997C690.023 168.156 690.357 167.44 690.997 167.039C691.643 166.633 692.391 166.43 693.24 166.43C694.224 166.43 695.023 166.617 695.638 166.992C696.247 167.367 696.552 167.951 696.552 168.742V173.562C696.552 173.708 696.581 173.826 696.638 173.914C696.7 174.003 696.828 174.047 697.021 174.047C697.083 174.047 697.154 174.044 697.232 174.039C697.31 174.029 697.393 174.016 697.482 174V175.039C697.263 175.102 697.096 175.141 696.982 175.156C696.867 175.172 696.711 175.18 696.513 175.18C696.029 175.18 695.677 175.008 695.458 174.664C695.344 174.482 695.263 174.224 695.216 173.891C694.93 174.266 694.518 174.591 693.982 174.867C693.445 175.143 692.854 175.281 692.208 175.281C691.432 175.281 690.797 175.047 690.302 174.578C689.812 174.104 689.568 173.513 689.568 172.805C689.568 172.029 689.81 171.427 690.294 171C690.779 170.573 691.414 170.31 692.2 170.211L694.443 169.93ZM698.904 166.633H700.24V168.078C700.349 167.797 700.617 167.456 701.044 167.055C701.471 166.648 701.963 166.445 702.521 166.445C702.547 166.445 702.591 166.448 702.654 166.453C702.716 166.458 702.823 166.469 702.974 166.484V167.969C702.891 167.953 702.812 167.943 702.74 167.938C702.672 167.932 702.596 167.93 702.513 167.93C701.805 167.93 701.26 168.159 700.88 168.617C700.5 169.07 700.31 169.594 700.31 170.188V175H698.904V166.633Z" fill="#263023"/>
<path d="M848 125C856.284 125 863 118.284 863 110C863 101.716 856.284 95 848 95C839.716 95 833 101.716 833 110C833 118.284 839.716 125 848 125Z" fill="#3E4A3A"/>
<path d="M848.749 105.191L845.759 110.199H848.749V105.191ZM848.54 104.023H850.025V110.199H851.288V111.24H850.025V113.5H848.749V111.24H844.731V110.028L848.54 104.023Z" fill="#ECF1E9"/>
<path d="M921.333 150H774.667C770.248 150 766.667 153.582 766.667 158V184C766.667 188.418 770.248 192 774.667 192H921.333C925.752 192 929.333 188.418 929.333 184V158C929.333 153.582 925.752 150 921.333 150Z" fill="#FCFCFA" stroke="#D5DCD0"/>
<path d="M809.617 163.523H811.133V169.117L816.727 163.523H818.875L814.102 168.148L819.008 175H816.984L812.969 169.242L811.133 171V175H809.617V163.523ZM820.102 166.633H821.438V167.82C821.833 167.331 822.253 166.979 822.695 166.766C823.138 166.552 823.63 166.445 824.172 166.445C825.359 166.445 826.161 166.859 826.578 167.688C826.807 168.141 826.922 168.789 826.922 169.633V175H825.492V169.727C825.492 169.216 825.417 168.805 825.266 168.492C825.016 167.971 824.562 167.711 823.906 167.711C823.573 167.711 823.299 167.745 823.086 167.812C822.701 167.927 822.362 168.156 822.07 168.5C821.836 168.776 821.682 169.062 821.609 169.359C821.542 169.651 821.508 170.07 821.508 170.617V175H820.102V166.633ZM832.328 174.094C833.26 174.094 833.898 173.742 834.242 173.039C834.591 172.331 834.766 171.544 834.766 170.68C834.766 169.898 834.641 169.263 834.391 168.773C833.995 168.003 833.312 167.617 832.344 167.617C831.484 167.617 830.859 167.945 830.469 168.602C830.078 169.258 829.883 170.049 829.883 170.977C829.883 171.867 830.078 172.609 830.469 173.203C830.859 173.797 831.479 174.094 832.328 174.094ZM832.383 166.391C833.461 166.391 834.372 166.75 835.117 167.469C835.862 168.188 836.234 169.245 836.234 170.641C836.234 171.99 835.906 173.104 835.25 173.984C834.594 174.865 833.576 175.305 832.195 175.305C831.044 175.305 830.13 174.917 829.453 174.141C828.776 173.359 828.438 172.312 828.438 171C828.438 169.594 828.794 168.474 829.508 167.641C830.221 166.807 831.18 166.391 832.383 166.391ZM838.562 166.633L840.172 173.227L841.805 166.633H843.383L845.023 173.188L846.734 166.633H848.141L845.711 175H844.25L842.547 168.523L840.898 175H839.438L837.023 166.633H838.562ZM857.461 174.055C858.117 174.055 858.661 173.781 859.094 173.234C859.531 172.682 859.75 171.859 859.75 170.766C859.75 170.099 859.654 169.526 859.461 169.047C859.096 168.125 858.43 167.664 857.461 167.664C856.487 167.664 855.82 168.151 855.461 169.125C855.268 169.646 855.172 170.307 855.172 171.109C855.172 171.755 855.268 172.305 855.461 172.758C855.826 173.622 856.492 174.055 857.461 174.055ZM853.82 166.672H855.188V167.781C855.469 167.401 855.776 167.107 856.109 166.898C856.583 166.586 857.141 166.43 857.781 166.43C858.729 166.43 859.534 166.794 860.195 167.523C860.857 168.247 861.188 169.284 861.188 170.633C861.188 172.456 860.711 173.758 859.758 174.539C859.154 175.034 858.451 175.281 857.648 175.281C857.018 175.281 856.49 175.143 856.062 174.867C855.812 174.711 855.534 174.443 855.227 174.062V178.336H853.82V166.672ZM862.875 166.633H864.211V168.078C864.32 167.797 864.589 167.456 865.016 167.055C865.443 166.648 865.935 166.445 866.492 166.445C866.518 166.445 866.562 166.448 866.625 166.453C866.688 166.458 866.794 166.469 866.945 166.484V167.969C866.862 167.953 866.784 167.943 866.711 167.938C866.643 167.932 866.568 167.93 866.484 167.93C865.776 167.93 865.232 168.159 864.852 168.617C864.471 169.07 864.281 169.594 864.281 170.188V175H862.875V166.633ZM868.164 166.672H869.594V175H868.164V166.672ZM868.164 163.523H869.594V165.117H868.164V163.523ZM874.953 166.391C875.896 166.391 876.661 166.62 877.25 167.078C877.844 167.536 878.201 168.326 878.32 169.445H876.953C876.87 168.93 876.68 168.503 876.383 168.164C876.086 167.82 875.609 167.648 874.953 167.648C874.057 167.648 873.417 168.086 873.031 168.961C872.781 169.529 872.656 170.229 872.656 171.062C872.656 171.901 872.833 172.607 873.188 173.18C873.542 173.753 874.099 174.039 874.859 174.039C875.443 174.039 875.904 173.862 876.242 173.508C876.586 173.148 876.823 172.659 876.953 172.039H878.32C878.164 173.148 877.773 173.961 877.148 174.477C876.523 174.987 875.724 175.242 874.75 175.242C873.656 175.242 872.784 174.844 872.133 174.047C871.482 173.245 871.156 172.245 871.156 171.047C871.156 169.578 871.513 168.435 872.227 167.617C872.94 166.799 873.849 166.391 874.953 166.391ZM883.211 166.445C883.805 166.445 884.38 166.586 884.938 166.867C885.495 167.143 885.919 167.503 886.211 167.945C886.492 168.367 886.68 168.859 886.773 169.422C886.857 169.807 886.898 170.422 886.898 171.266H880.766C880.792 172.115 880.992 172.797 881.367 173.312C881.742 173.823 882.323 174.078 883.109 174.078C883.844 174.078 884.43 173.836 884.867 173.352C885.117 173.07 885.294 172.745 885.398 172.375H886.781C886.745 172.682 886.622 173.026 886.414 173.406C886.211 173.781 885.982 174.089 885.727 174.328C885.299 174.745 884.771 175.026 884.141 175.172C883.802 175.255 883.419 175.297 882.992 175.297C881.951 175.297 881.068 174.919 880.344 174.164C879.62 173.404 879.258 172.341 879.258 170.977C879.258 169.633 879.622 168.542 880.352 167.703C881.081 166.865 882.034 166.445 883.211 166.445ZM885.453 170.148C885.396 169.539 885.263 169.052 885.055 168.688C884.669 168.01 884.026 167.672 883.125 167.672C882.479 167.672 881.938 167.906 881.5 168.375C881.062 168.839 880.831 169.43 880.805 170.148H885.453Z" fill="#263023"/>
<path d="M1026.67 125C1034.95 125 1041.67 118.284 1041.67 110C1041.67 101.716 1034.95 95 1026.67 95C1018.38 95 1011.67 101.716 1011.67 110C1011.67 118.284 1018.38 125 1026.67 125Z" fill="#3E4A3A"/>
<path d="M1024.06 104.023H1028.86V105.102H1025.23V107.432C1025.41 107.364 1025.6 107.315 1025.78 107.286C1025.96 107.252 1026.15 107.235 1026.34 107.235C1027.32 107.235 1028.1 107.525 1028.67 108.104C1029.25 108.684 1029.54 109.469 1029.54 110.459C1029.54 111.458 1029.23 112.245 1028.63 112.821C1028.03 113.396 1027.2 113.684 1026.16 113.684C1025.66 113.684 1025.19 113.65 1024.78 113.583C1024.36 113.515 1023.99 113.413 1023.66 113.278V111.977C1024.05 112.188 1024.44 112.347 1024.83 112.453C1025.23 112.554 1025.63 112.605 1026.04 112.605C1026.75 112.605 1027.29 112.419 1027.67 112.046C1028.05 111.674 1028.25 111.145 1028.25 110.459C1028.25 109.782 1028.05 109.256 1027.65 108.879C1027.26 108.502 1026.71 108.314 1026 108.314C1025.66 108.314 1025.32 108.354 1025 108.435C1024.67 108.511 1024.36 108.627 1024.06 108.784V104.023Z" fill="#ECF1E9"/>
<path d="M1100 150H953.333C948.915 150 945.333 153.582 945.333 158V184C945.333 188.418 948.915 192 953.333 192H1100C1104.42 192 1108 188.418 1108 184V158C1108 153.582 1104.42 150 1100 150Z" fill="#3E4A3A"/>
<path d="M1014.46 168.375C1015.11 168.375 1015.62 168.284 1015.99 168.102C1016.56 167.815 1016.85 167.299 1016.85 166.555C1016.85 165.805 1016.54 165.299 1015.93 165.039C1015.59 164.893 1015.08 164.82 1014.4 164.82H1011.63V168.375H1014.46ZM1014.98 173.672C1015.93 173.672 1016.61 173.396 1017.02 172.844C1017.27 172.495 1017.4 172.073 1017.4 171.578C1017.4 170.745 1017.03 170.177 1016.28 169.875C1015.89 169.714 1015.36 169.633 1014.71 169.633H1011.63V173.672H1014.98ZM1010.1 163.523H1015.03C1016.38 163.523 1017.33 163.924 1017.9 164.727C1018.23 165.201 1018.4 165.747 1018.4 166.367C1018.4 167.091 1018.2 167.685 1017.78 168.148C1017.57 168.393 1017.26 168.617 1016.86 168.82C1017.45 169.044 1017.89 169.297 1018.18 169.578C1018.7 170.078 1018.96 170.768 1018.96 171.648C1018.96 172.388 1018.72 173.057 1018.26 173.656C1017.57 174.552 1016.47 175 1014.96 175H1010.1V163.523ZM1023.95 174.094C1024.88 174.094 1025.52 173.742 1025.86 173.039C1026.21 172.331 1026.39 171.544 1026.39 170.68C1026.39 169.898 1026.26 169.263 1026.01 168.773C1025.61 168.003 1024.93 167.617 1023.96 167.617C1023.1 167.617 1022.48 167.945 1022.09 168.602C1021.7 169.258 1021.5 170.049 1021.5 170.977C1021.5 171.867 1021.7 172.609 1022.09 173.203C1022.48 173.797 1023.1 174.094 1023.95 174.094ZM1024 166.391C1025.08 166.391 1025.99 166.75 1026.74 167.469C1027.48 168.188 1027.85 169.245 1027.85 170.641C1027.85 171.99 1027.53 173.104 1026.87 173.984C1026.21 174.865 1025.2 175.305 1023.82 175.305C1022.66 175.305 1021.75 174.917 1021.07 174.141C1020.4 173.359 1020.06 172.312 1020.06 171C1020.06 169.594 1020.41 168.474 1021.13 167.641C1021.84 166.807 1022.8 166.391 1024 166.391ZM1032.85 174.094C1033.79 174.094 1034.42 173.742 1034.77 173.039C1035.12 172.331 1035.29 171.544 1035.29 170.68C1035.29 169.898 1035.17 169.263 1034.92 168.773C1034.52 168.003 1033.84 167.617 1032.87 167.617C1032.01 167.617 1031.39 167.945 1030.99 168.602C1030.6 169.258 1030.41 170.049 1030.41 170.977C1030.41 171.867 1030.6 172.609 1030.99 173.203C1031.39 173.797 1032.01 174.094 1032.85 174.094ZM1032.91 166.391C1033.99 166.391 1034.9 166.75 1035.64 167.469C1036.39 168.188 1036.76 169.245 1036.76 170.641C1036.76 171.99 1036.43 173.104 1035.78 173.984C1035.12 174.865 1034.1 175.305 1032.72 175.305C1031.57 175.305 1030.66 174.917 1029.98 174.141C1029.3 173.359 1028.96 172.312 1028.96 171C1028.96 169.594 1029.32 168.474 1030.03 167.641C1030.75 166.807 1031.71 166.391 1032.91 166.391ZM1038.41 163.523H1039.76V170.188L1043.37 166.633H1045.17L1041.96 169.766L1045.35 175H1043.55L1040.94 170.781L1039.76 171.859V175H1038.41V163.523Z" fill="#ECF1E9"/>
</g>
<defs>
<clipPath id="clip0_3369_34987">
<rect width="1160" height="250" fill="white"/>
</clipPath>
</defs>
</svg>
