<svg width="192" height="38" viewBox="0 0 192 38" fill="none" xmlns="http://www.w3.org/2000/svg">
<path d="M19.1266 8.97668L11.0399 29.3599" stroke="#FFB400" stroke-width="1.2" stroke-linecap="round"/>
<path d="M3.76155 8.64014L11.3145 29.3188" stroke="#FFB400" stroke-width="4" stroke-linecap="round"/>
<path d="M27.5654 8.64014L20.7287 26.5014" stroke="#FFB400" stroke-width="1.2" stroke-linecap="round"/>
<path d="M13.7507 8.66907L21.0458 29.36" stroke="#FFB400" stroke-width="4" stroke-linecap="round"/>
<path d="M34.2385 8.64014L28.3463 23.8552" stroke="#FFB400" stroke-width="1.2" stroke-linecap="round"/>
<path d="M22.7399 8.71765L30.3948 29.36" stroke="#FFB400" stroke-width="4" stroke-linecap="round"/>
<g opacity="0.8">
<path d="M52.5824 7.90909L56.2259 18.571H56.3729L60.0163 7.90909H62.1513L57.4403 21H55.1584L50.4474 7.90909H52.5824ZM66.0169 7.90909V21H64.0417V7.90909H66.0169ZM79.7662 12.1662H77.7718C77.6951 11.7401 77.5524 11.3651 77.3436 11.0412C77.1348 10.7173 76.8791 10.4425 76.5765 10.2166C76.274 9.99077 75.9352 9.82031 75.5602 9.70526C75.1895 9.5902 74.7953 9.53267 74.3777 9.53267C73.6234 9.53267 72.948 9.7223 72.3514 10.1016C71.7591 10.4808 71.2903 11.0369 70.9451 11.7699C70.6042 12.5028 70.4338 13.3977 70.4338 14.4545C70.4338 15.5199 70.6042 16.419 70.9451 17.152C71.2903 17.8849 71.7612 18.4389 72.3578 18.8139C72.9544 19.1889 73.6255 19.3764 74.3713 19.3764C74.7846 19.3764 75.1767 19.321 75.5474 19.2102C75.9224 19.0952 76.2612 18.9268 76.5637 18.7053C76.8663 18.4837 77.122 18.2131 77.3308 17.8935C77.5439 17.5696 77.6909 17.1989 77.7718 16.7812L79.7662 16.7876C79.6596 17.4311 79.4529 18.0234 79.1461 18.5646C78.8436 19.1016 78.4537 19.5661 77.9764 19.9581C77.5034 20.3459 76.9622 20.6463 76.3528 20.8594C75.7434 21.0724 75.0787 21.179 74.3585 21.179C73.225 21.179 72.215 20.9105 71.3287 20.3736C70.4423 19.8324 69.7434 19.0589 69.2321 18.0533C68.725 17.0476 68.4714 15.848 68.4714 14.4545C68.4714 13.0568 68.7271 11.8572 69.2385 10.8558C69.7498 9.85014 70.4487 9.07883 71.335 8.5419C72.2214 8.00071 73.2292 7.73011 74.3585 7.73011C75.0531 7.73011 75.7008 7.83026 76.3017 8.03054C76.9068 8.22656 77.4501 8.51633 77.9316 8.89986C78.4132 9.27912 78.8116 9.74361 79.127 10.2933C79.4423 10.8388 79.6554 11.4631 79.7662 12.1662ZM82.1296 21V7.90909H84.1048V14.1605H84.2646L89.7553 7.90909H92.2418L86.962 13.8026L92.261 21H89.8832L85.6516 15.1513L84.1048 16.9283V21H82.1296ZM93.0728 7.90909H95.3164L98.7362 13.8601H98.8768L102.297 7.90909H104.54L99.7908 15.8608V21H97.8221V15.8608L93.0728 7.90909ZM113.732 21L110.101 7.90909H112.179L114.729 18.0469H114.85L117.503 7.90909H119.561L122.214 18.0533H122.336L124.88 7.90909H126.963L123.326 21H121.338L118.583 11.1946H118.481L115.726 21H113.732ZM128.745 21H126.649L131.36 7.90909H133.642L138.352 21H136.256L132.555 10.2869H132.453L128.745 21ZM129.097 15.8736H135.898V17.5355H129.097V15.8736ZM150.809 7.90909V21H148.994L142.339 11.3991H142.218V21H140.243V7.90909H142.071L148.732 17.5227H148.853V7.90909H150.809ZM162.55 12.0447C162.426 11.657 162.26 11.3097 162.051 11.0028C161.846 10.6918 161.601 10.4276 161.316 10.2102C161.03 9.98864 160.704 9.82031 160.338 9.70526C159.976 9.5902 159.577 9.53267 159.143 9.53267C158.405 9.53267 157.741 9.7223 157.148 10.1016C156.556 10.4808 156.087 11.0369 155.742 11.7699C155.401 12.4986 155.231 13.3913 155.231 14.4482C155.231 15.5092 155.403 16.4062 155.748 17.1392C156.094 17.8722 156.567 18.4283 157.167 18.8075C157.768 19.1868 158.452 19.3764 159.219 19.3764C159.931 19.3764 160.551 19.2315 161.079 18.9418C161.612 18.652 162.023 18.2429 162.313 17.7145C162.607 17.1818 162.754 16.5554 162.754 15.8352L163.265 15.9311H159.52V14.3011H164.665V15.7905C164.665 16.8899 164.431 17.8445 163.962 18.6541C163.498 19.4595 162.854 20.0817 162.032 20.5206C161.214 20.9595 160.276 21.179 159.219 21.179C158.035 21.179 156.995 20.9062 156.1 20.3608C155.209 19.8153 154.515 19.0419 154.016 18.0405C153.518 17.0348 153.268 15.8416 153.268 14.4609C153.268 13.4169 153.413 12.4794 153.703 11.6484C153.993 10.8175 154.4 10.1122 154.924 9.53267C155.452 8.94886 156.072 8.50355 156.784 8.19673C157.5 7.88565 158.282 7.73011 159.13 7.73011C159.837 7.73011 160.496 7.83452 161.105 8.04332C161.719 8.25213 162.264 8.54829 162.741 8.93182C163.223 9.31534 163.621 9.77131 163.937 10.2997C164.252 10.8239 164.465 11.4055 164.576 12.0447H162.55Z" fill="#FFB400"/>
<path d="M54.5227 27.1818H55.2273V31.0341C55.2273 31.4318 55.1335 31.7869 54.946 32.0994C54.7604 32.41 54.4981 32.6553 54.1591 32.8352C53.8201 33.0133 53.4223 33.1023 52.9659 33.1023C52.5095 33.1023 52.1117 33.0133 51.7727 32.8352C51.4337 32.6553 51.1705 32.41 50.983 32.0994C50.7973 31.7869 50.7045 31.4318 50.7045 31.0341V27.1818H51.4091V30.9773C51.4091 31.2614 51.4716 31.5142 51.5966 31.7358C51.7216 31.9555 51.8996 32.1288 52.1307 32.2557C52.3636 32.3807 52.642 32.4432 52.9659 32.4432C53.2898 32.4432 53.5682 32.3807 53.8011 32.2557C54.0341 32.1288 54.2121 31.9555 54.3352 31.7358C54.4602 31.5142 54.5227 31.2614 54.5227 30.9773V27.1818ZM56.9751 27.1818L58.4751 29.6023H58.5206L60.0206 27.1818H60.8501L59.0206 30.0909L60.8501 33H60.0206L58.5206 30.625H58.4751L56.9751 33H56.1456L58.0206 30.0909L56.1456 27.1818H56.9751ZM65.8125 33H64.017V27.1818H65.892C66.4564 27.1818 66.9394 27.2983 67.3409 27.5312C67.7424 27.7623 68.0502 28.0947 68.2642 28.5284C68.4782 28.9602 68.5852 29.4773 68.5852 30.0795C68.5852 30.6856 68.4773 31.2074 68.2614 31.6449C68.0455 32.0805 67.7311 32.4157 67.3182 32.6506C66.9053 32.8835 66.4034 33 65.8125 33ZM64.7216 32.375H65.767C66.2481 32.375 66.6468 32.2822 66.9631 32.0966C67.2794 31.911 67.5152 31.6468 67.6705 31.304C67.8258 30.9612 67.9034 30.553 67.9034 30.0795C67.9034 29.6098 67.8267 29.2055 67.6733 28.8665C67.5199 28.5256 67.2907 28.2642 66.9858 28.0824C66.6809 27.8987 66.3011 27.8068 65.8466 27.8068H64.7216V32.375ZM71.5057 33.0909C71.0852 33.0909 70.7225 32.9981 70.4176 32.8125C70.1146 32.625 69.8807 32.3636 69.7159 32.0284C69.553 31.6913 69.4716 31.2992 69.4716 30.8523C69.4716 30.4053 69.553 30.0114 69.7159 29.6705C69.8807 29.3277 70.1098 29.0606 70.4034 28.8693C70.6989 28.6761 71.0436 28.5795 71.4375 28.5795C71.6648 28.5795 71.8892 28.6174 72.1108 28.6932C72.3324 28.7689 72.5341 28.892 72.7159 29.0625C72.8977 29.2311 73.0426 29.4545 73.1506 29.733C73.2585 30.0114 73.3125 30.3542 73.3125 30.7614V31.0455H69.9489V30.4659H72.6307C72.6307 30.2197 72.5814 30 72.483 29.8068C72.3864 29.6136 72.2481 29.4612 72.0682 29.3494C71.8902 29.2377 71.6799 29.1818 71.4375 29.1818C71.1705 29.1818 70.9394 29.2481 70.7443 29.3807C70.5511 29.5114 70.4025 29.6818 70.2983 29.892C70.1941 30.1023 70.142 30.3277 70.142 30.5682V30.9545C70.142 31.2841 70.1989 31.5634 70.3125 31.7926C70.428 32.0199 70.5881 32.1932 70.7926 32.3125C70.9972 32.4299 71.2348 32.4886 71.5057 32.4886C71.6818 32.4886 71.8409 32.464 71.983 32.4148C72.1269 32.3636 72.2509 32.2879 72.3551 32.1875C72.4593 32.0852 72.5398 31.9583 72.5966 31.8068L73.2443 31.9886C73.1761 32.2083 73.0616 32.4015 72.9006 32.5682C72.7396 32.733 72.5407 32.8617 72.304 32.9545C72.0672 33.0455 71.8011 33.0909 71.5057 33.0909ZM77.4233 29.6136L76.821 29.7841C76.7831 29.6837 76.7273 29.5862 76.6534 29.4915C76.5814 29.3949 76.483 29.3153 76.358 29.2528C76.233 29.1903 76.0729 29.1591 75.8778 29.1591C75.6108 29.1591 75.3883 29.2206 75.2102 29.3438C75.0341 29.465 74.946 29.6193 74.946 29.8068C74.946 29.9735 75.0066 30.1051 75.1278 30.2017C75.2491 30.2983 75.4384 30.3788 75.696 30.4432L76.3438 30.6023C76.7339 30.697 77.0246 30.8419 77.2159 31.0369C77.4072 31.2301 77.5028 31.4792 77.5028 31.7841C77.5028 32.0341 77.4309 32.2576 77.2869 32.4545C77.1449 32.6515 76.946 32.8068 76.6903 32.9205C76.4347 33.0341 76.1373 33.0909 75.7983 33.0909C75.3532 33.0909 74.9848 32.9943 74.6932 32.8011C74.4015 32.608 74.2169 32.3258 74.1392 31.9545L74.7756 31.7955C74.8362 32.0303 74.9508 32.2064 75.1193 32.3239C75.2898 32.4413 75.5123 32.5 75.7869 32.5C76.0994 32.5 76.3475 32.4337 76.5312 32.3011C76.7169 32.1667 76.8097 32.0057 76.8097 31.8182C76.8097 31.6667 76.7566 31.5398 76.6506 31.4375C76.5445 31.3333 76.3816 31.2557 76.1619 31.2045L75.4347 31.0341C75.035 30.9394 74.7415 30.7926 74.554 30.5938C74.3684 30.393 74.2756 30.142 74.2756 29.8409C74.2756 29.5947 74.3447 29.3769 74.483 29.1875C74.6231 28.9981 74.8134 28.8494 75.054 28.7415C75.2964 28.6335 75.571 28.5795 75.8778 28.5795C76.3097 28.5795 76.6487 28.6742 76.8949 28.8636C77.143 29.053 77.3191 29.303 77.4233 29.6136ZM78.5121 33V28.6364H79.1825V33H78.5121ZM78.853 27.9091C78.7223 27.9091 78.6096 27.8646 78.5149 27.7756C78.4221 27.6866 78.3757 27.5795 78.3757 27.4545C78.3757 27.3295 78.4221 27.2225 78.5149 27.1335C78.6096 27.0445 78.7223 27 78.853 27C78.9837 27 79.0954 27.0445 79.1882 27.1335C79.2829 27.2225 79.3303 27.3295 79.3303 27.4545C79.3303 27.5795 79.2829 27.6866 79.1882 27.7756C79.0954 27.8646 78.9837 27.9091 78.853 27.9091ZM82.1719 34.7273C81.848 34.7273 81.5696 34.6856 81.3366 34.6023C81.1037 34.5208 80.9096 34.4129 80.7543 34.2784C80.6009 34.1458 80.4787 34.0038 80.3878 33.8523L80.9219 33.4773C80.9825 33.5568 81.0592 33.6477 81.152 33.75C81.2448 33.8542 81.3717 33.9441 81.5327 34.0199C81.6955 34.0975 81.9086 34.1364 82.1719 34.1364C82.5241 34.1364 82.8149 34.0511 83.044 33.8807C83.2732 33.7102 83.3878 33.4432 83.3878 33.0795V32.1932H83.331C83.2817 32.2727 83.2116 32.3712 83.1207 32.4886C83.0317 32.6042 82.9029 32.7074 82.7344 32.7983C82.5677 32.8873 82.3423 32.9318 82.0582 32.9318C81.706 32.9318 81.3897 32.8485 81.1094 32.6818C80.831 32.5152 80.6103 32.2727 80.4474 31.9545C80.2865 31.6364 80.206 31.25 80.206 30.7955C80.206 30.3485 80.2846 29.9593 80.4418 29.6278C80.599 29.2945 80.8177 29.0369 81.098 28.8551C81.3783 28.6714 81.7022 28.5795 82.0696 28.5795C82.3537 28.5795 82.5791 28.6269 82.7457 28.7216C82.9143 28.8144 83.0431 28.9205 83.1321 29.0398C83.223 29.1572 83.2931 29.2538 83.3423 29.3295H83.4105V28.6364H84.0582V33.125C84.0582 33.5 83.973 33.8049 83.8026 34.0398C83.634 34.2765 83.4067 34.4498 83.1207 34.5597C82.8366 34.6714 82.5204 34.7273 82.1719 34.7273ZM82.1491 32.3295C82.4181 32.3295 82.6454 32.268 82.831 32.1449C83.0166 32.0218 83.1577 31.8447 83.2543 31.6136C83.3509 31.3826 83.3991 31.1061 83.3991 30.7841C83.3991 30.4697 83.3518 30.1922 83.2571 29.9517C83.1624 29.7112 83.0223 29.5227 82.8366 29.3864C82.651 29.25 82.4219 29.1818 82.1491 29.1818C81.8651 29.1818 81.6283 29.2538 81.4389 29.3977C81.2514 29.5417 81.1103 29.7348 81.0156 29.9773C80.9228 30.2197 80.8764 30.4886 80.8764 30.7841C80.8764 31.0871 80.9238 31.3551 81.0185 31.5881C81.1151 31.8191 81.2571 32.0009 81.4446 32.1335C81.634 32.2642 81.8688 32.3295 82.1491 32.3295ZM85.956 30.375V33H85.2855V28.6364H85.9332V29.3182H85.9901C86.0923 29.0966 86.2476 28.9186 86.456 28.7841C86.6643 28.6477 86.9332 28.5795 87.2628 28.5795C87.5582 28.5795 87.8168 28.6402 88.0384 28.7614C88.2599 28.8807 88.4323 29.0625 88.5554 29.3068C88.6785 29.5492 88.7401 29.8561 88.7401 30.2273V33H88.0696V30.2727C88.0696 29.9299 87.9806 29.6629 87.8026 29.4716C87.6245 29.2784 87.3802 29.1818 87.0696 29.1818C86.8556 29.1818 86.6643 29.2282 86.4957 29.321C86.3291 29.4138 86.1974 29.5492 86.1009 29.7273C86.0043 29.9053 85.956 30.1212 85.956 30.375ZM91.7947 33.0909C91.3743 33.0909 91.0116 32.9981 90.7067 32.8125C90.4036 32.625 90.1697 32.3636 90.005 32.0284C89.8421 31.6913 89.7607 31.2992 89.7607 30.8523C89.7607 30.4053 89.8421 30.0114 90.005 29.6705C90.1697 29.3277 90.3989 29.0606 90.6925 28.8693C90.9879 28.6761 91.3326 28.5795 91.7266 28.5795C91.9538 28.5795 92.1783 28.6174 92.3999 28.6932C92.6214 28.7689 92.8232 28.892 93.005 29.0625C93.1868 29.2311 93.3317 29.4545 93.4396 29.733C93.5476 30.0114 93.6016 30.3542 93.6016 30.7614V31.0455H90.2379V30.4659H92.9197C92.9197 30.2197 92.8705 30 92.772 29.8068C92.6754 29.6136 92.5372 29.4612 92.3572 29.3494C92.1792 29.2377 91.969 29.1818 91.7266 29.1818C91.4595 29.1818 91.2285 29.2481 91.0334 29.3807C90.8402 29.5114 90.6915 29.6818 90.5874 29.892C90.4832 30.1023 90.4311 30.3277 90.4311 30.5682V30.9545C90.4311 31.2841 90.4879 31.5634 90.6016 31.7926C90.7171 32.0199 90.8771 32.1932 91.0817 32.3125C91.2862 32.4299 91.5239 32.4886 91.7947 32.4886C91.9709 32.4886 92.13 32.464 92.272 32.4148C92.416 32.3636 92.54 32.2879 92.6442 32.1875C92.7483 32.0852 92.8288 31.9583 92.8857 31.8068L93.5334 31.9886C93.4652 32.2083 93.3506 32.4015 93.1896 32.5682C93.0286 32.733 92.8298 32.8617 92.593 32.9545C92.3563 33.0455 92.0902 33.0909 91.7947 33.0909ZM94.6214 33V28.6364H95.2692V29.2955H95.3146C95.3942 29.0795 95.5381 28.9044 95.7464 28.7699C95.9548 28.6354 96.1896 28.5682 96.451 28.5682C96.5002 28.5682 96.5618 28.5691 96.6357 28.571C96.7095 28.5729 96.7654 28.5758 96.8033 28.5795V29.2614C96.7805 29.2557 96.7285 29.2472 96.647 29.2358C96.5675 29.2225 96.4832 29.2159 96.3942 29.2159C96.1821 29.2159 95.9927 29.2604 95.826 29.3494C95.6612 29.4366 95.5305 29.5578 95.4339 29.7131C95.3393 29.8665 95.2919 30.0417 95.2919 30.2386V33H94.6214ZM103.075 25.3068V34.875H102.507V25.3068H103.075ZM107.056 33V27.1818H109.022C109.478 27.1818 109.852 27.2642 110.141 27.429C110.433 27.5919 110.649 27.8125 110.789 28.0909C110.929 28.3693 110.999 28.6799 110.999 29.0227C110.999 29.3655 110.929 29.6771 110.789 29.9574C110.651 30.2377 110.437 30.4612 110.147 30.6278C109.857 30.7926 109.486 30.875 109.033 30.875H107.624V30.25H109.011C109.323 30.25 109.574 30.196 109.763 30.0881C109.953 29.9801 110.09 29.8343 110.175 29.6506C110.263 29.465 110.306 29.2557 110.306 29.0227C110.306 28.7898 110.263 28.5814 110.175 28.3977C110.09 28.214 109.952 28.0701 109.761 27.9659C109.569 27.8598 109.316 27.8068 108.999 27.8068H107.761V33H107.056ZM112.043 33V28.6364H112.691V29.2955H112.737C112.816 29.0795 112.96 28.9044 113.168 28.7699C113.377 28.6354 113.612 28.5682 113.873 28.5682C113.922 28.5682 113.984 28.5691 114.058 28.571C114.131 28.5729 114.187 28.5758 114.225 28.5795V29.2614C114.202 29.2557 114.15 29.2472 114.069 29.2358C113.989 29.2225 113.905 29.2159 113.816 29.2159C113.604 29.2159 113.415 29.2604 113.248 29.3494C113.083 29.4366 112.952 29.5578 112.856 29.7131C112.761 29.8665 112.714 30.0417 112.714 30.2386V33H112.043ZM116.66 33.0909C116.266 33.0909 115.92 32.9972 115.623 32.8097C115.327 32.6222 115.096 32.3598 114.93 32.0227C114.765 31.6856 114.683 31.2917 114.683 30.8409C114.683 30.3864 114.765 29.9896 114.93 29.6506C115.096 29.3116 115.327 29.0483 115.623 28.8608C115.92 28.6733 116.266 28.5795 116.66 28.5795C117.054 28.5795 117.398 28.6733 117.694 28.8608C117.991 29.0483 118.222 29.3116 118.387 29.6506C118.554 29.9896 118.637 30.3864 118.637 30.8409C118.637 31.2917 118.554 31.6856 118.387 32.0227C118.222 32.3598 117.991 32.6222 117.694 32.8097C117.398 32.9972 117.054 33.0909 116.66 33.0909ZM116.66 32.4886C116.959 32.4886 117.205 32.4119 117.398 32.2585C117.592 32.1051 117.735 31.9034 117.827 31.6534C117.92 31.4034 117.967 31.1326 117.967 30.8409C117.967 30.5492 117.92 30.2775 117.827 30.0256C117.735 29.7737 117.592 29.5701 117.398 29.4148C117.205 29.2595 116.959 29.1818 116.66 29.1818C116.361 29.1818 116.114 29.2595 115.921 29.4148C115.728 29.5701 115.585 29.7737 115.492 30.0256C115.399 30.2775 115.353 30.5492 115.353 30.8409C115.353 31.1326 115.399 31.4034 115.492 31.6534C115.585 31.9034 115.728 32.1051 115.921 32.2585C116.114 32.4119 116.361 32.4886 116.66 32.4886ZM121.308 33.0909C120.945 33.0909 120.624 32.9991 120.345 32.8153C120.067 32.6297 119.849 32.3684 119.692 32.0312C119.535 31.6922 119.456 31.2917 119.456 30.8295C119.456 30.3712 119.535 29.9735 119.692 29.6364C119.849 29.2992 120.068 29.0388 120.348 28.8551C120.628 28.6714 120.952 28.5795 121.32 28.5795C121.604 28.5795 121.828 28.6269 121.993 28.7216C122.16 28.8144 122.286 28.9205 122.374 29.0398C122.463 29.1572 122.532 29.2538 122.581 29.3295H122.638V27.1818H123.308V33H122.661V32.3295H122.581C122.532 32.4091 122.462 32.5095 122.371 32.6307C122.28 32.75 122.15 32.857 121.982 32.9517C121.813 33.0445 121.589 33.0909 121.308 33.0909ZM121.399 32.4886C121.668 32.4886 121.895 32.4186 122.081 32.2784C122.267 32.1364 122.408 31.9403 122.504 31.6903C122.601 31.4384 122.649 31.1477 122.649 30.8182C122.649 30.4924 122.602 30.2074 122.507 29.9631C122.412 29.7169 122.272 29.5256 122.087 29.3892C121.901 29.2509 121.672 29.1818 121.399 29.1818C121.115 29.1818 120.878 29.2547 120.689 29.4006C120.501 29.5445 120.36 29.7405 120.266 29.9886C120.173 30.2348 120.126 30.5114 120.126 30.8182C120.126 31.1288 120.174 31.411 120.268 31.6648C120.365 31.9167 120.507 32.1174 120.695 32.267C120.884 32.4148 121.119 32.4886 121.399 32.4886ZM127.379 31.2159V28.6364H128.05V33H127.379V32.2614H127.334C127.232 32.483 127.072 32.6714 126.857 32.8267C126.641 32.9801 126.368 33.0568 126.038 33.0568C125.766 33.0568 125.523 32.9972 125.311 32.8778C125.099 32.7566 124.932 32.5748 124.811 32.3324C124.69 32.0881 124.629 31.7803 124.629 31.4091V28.6364H125.3V31.3636C125.3 31.6818 125.389 31.9356 125.567 32.125C125.747 32.3144 125.976 32.4091 126.254 32.4091C126.421 32.4091 126.59 32.3665 126.763 32.2812C126.937 32.196 127.083 32.0653 127.2 31.8892C127.32 31.7131 127.379 31.4886 127.379 31.2159ZM131.05 33.0909C130.641 33.0909 130.289 32.9943 129.994 32.8011C129.698 32.608 129.471 32.3419 129.312 32.0028C129.153 31.6638 129.073 31.2765 129.073 30.8409C129.073 30.3977 129.155 30.0066 129.317 29.6676C129.482 29.3267 129.711 29.0606 130.005 28.8693C130.3 28.6761 130.645 28.5795 131.039 28.5795C131.346 28.5795 131.622 28.6364 131.869 28.75C132.115 28.8636 132.317 29.0227 132.474 29.2273C132.631 29.4318 132.728 29.6705 132.766 29.9432H132.096C132.045 29.7443 131.931 29.5682 131.755 29.4148C131.581 29.2595 131.346 29.1818 131.05 29.1818C130.789 29.1818 130.56 29.25 130.363 29.3864C130.168 29.5208 130.015 29.7112 129.906 29.9574C129.798 30.2017 129.744 30.4886 129.744 30.8182C129.744 31.1553 129.797 31.4489 129.903 31.6989C130.011 31.9489 130.162 32.143 130.357 32.2812C130.554 32.4195 130.785 32.4886 131.05 32.4886C131.225 32.4886 131.383 32.4583 131.525 32.3977C131.667 32.3371 131.787 32.25 131.886 32.1364C131.984 32.0227 132.054 31.8864 132.096 31.7273H132.766C132.728 31.9848 132.635 32.2169 132.485 32.4233C132.337 32.6278 132.141 32.7907 131.897 32.9119C131.655 33.0312 131.372 33.0909 131.05 33.0909ZM135.644 28.6364V29.2045H133.383V28.6364H135.644ZM134.042 27.5909H134.712V31.75C134.712 31.9394 134.74 32.0814 134.795 32.1761C134.852 32.2689 134.924 32.3314 135.011 32.3636C135.1 32.3939 135.193 32.4091 135.292 32.4091C135.366 32.4091 135.426 32.4053 135.474 32.3977C135.521 32.3883 135.559 32.3807 135.587 32.375L135.724 32.9773C135.678 32.9943 135.615 33.0114 135.533 33.0284C135.452 33.0473 135.349 33.0568 135.224 33.0568C135.034 33.0568 134.849 33.0161 134.667 32.9347C134.487 32.8532 134.337 32.7292 134.218 32.5625C134.101 32.3958 134.042 32.1856 134.042 31.9318V27.5909ZM140.789 33H138.994V27.1818H140.869C141.433 27.1818 141.916 27.2983 142.317 27.5312C142.719 27.7623 143.027 28.0947 143.241 28.5284C143.455 28.9602 143.562 29.4773 143.562 30.0795C143.562 30.6856 143.454 31.2074 143.238 31.6449C143.022 32.0805 142.708 32.4157 142.295 32.6506C141.882 32.8835 141.38 33 140.789 33ZM139.698 32.375H140.744C141.225 32.375 141.623 32.2822 141.94 32.0966C142.256 31.911 142.492 31.6468 142.647 31.304C142.802 30.9612 142.88 30.553 142.88 30.0795C142.88 29.6098 142.803 29.2055 142.65 28.8665C142.496 28.5256 142.267 28.2642 141.962 28.0824C141.657 27.8987 141.278 27.8068 140.823 27.8068H139.698V32.375ZM146.482 33.0909C146.062 33.0909 145.699 32.9981 145.394 32.8125C145.091 32.625 144.857 32.3636 144.692 32.0284C144.53 31.6913 144.448 31.2992 144.448 30.8523C144.448 30.4053 144.53 30.0114 144.692 29.6705C144.857 29.3277 145.086 29.0606 145.38 28.8693C145.675 28.6761 146.02 28.5795 146.414 28.5795C146.641 28.5795 146.866 28.6174 147.087 28.6932C147.309 28.7689 147.511 28.892 147.692 29.0625C147.874 29.2311 148.019 29.4545 148.127 29.733C148.235 30.0114 148.289 30.3542 148.289 30.7614V31.0455H144.925V30.4659H147.607C147.607 30.2197 147.558 30 147.46 29.8068C147.363 29.6136 147.225 29.4612 147.045 29.3494C146.867 29.2377 146.656 29.1818 146.414 29.1818C146.147 29.1818 145.916 29.2481 145.721 29.3807C145.528 29.5114 145.379 29.6818 145.275 29.892C145.171 30.1023 145.119 30.3277 145.119 30.5682V30.9545C145.119 31.2841 145.175 31.5634 145.289 31.7926C145.405 32.0199 145.565 32.1932 145.769 32.3125C145.974 32.4299 146.211 32.4886 146.482 32.4886C146.658 32.4886 146.817 32.464 146.96 32.4148C147.103 32.3636 147.228 32.2879 147.332 32.1875C147.436 32.0852 147.516 31.9583 147.573 31.8068L148.221 31.9886C148.153 32.2083 148.038 32.4015 147.877 32.5682C147.716 32.733 147.517 32.8617 147.281 32.9545C147.044 33.0455 146.778 33.0909 146.482 33.0909ZM152.4 29.6136L151.798 29.7841C151.76 29.6837 151.704 29.5862 151.63 29.4915C151.558 29.3949 151.46 29.3153 151.335 29.2528C151.21 29.1903 151.049 29.1591 150.854 29.1591C150.587 29.1591 150.365 29.2206 150.187 29.3438C150.011 29.465 149.923 29.6193 149.923 29.8068C149.923 29.9735 149.983 30.1051 150.104 30.2017C150.226 30.2983 150.415 30.3788 150.673 30.4432L151.32 30.6023C151.71 30.697 152.001 30.8419 152.192 31.0369C152.384 31.2301 152.479 31.4792 152.479 31.7841C152.479 32.0341 152.407 32.2576 152.263 32.4545C152.121 32.6515 151.923 32.8068 151.667 32.9205C151.411 33.0341 151.114 33.0909 150.775 33.0909C150.33 33.0909 149.961 32.9943 149.67 32.8011C149.378 32.608 149.193 32.3258 149.116 31.9545L149.752 31.7955C149.813 32.0303 149.927 32.2064 150.096 32.3239C150.266 32.4413 150.489 32.5 150.763 32.5C151.076 32.5 151.324 32.4337 151.508 32.3011C151.693 32.1667 151.786 32.0057 151.786 31.8182C151.786 31.6667 151.733 31.5398 151.627 31.4375C151.521 31.3333 151.358 31.2557 151.138 31.2045L150.411 31.0341C150.012 30.9394 149.718 30.7926 149.531 30.5938C149.345 30.393 149.252 30.142 149.252 29.8409C149.252 29.5947 149.321 29.3769 149.46 29.1875C149.6 28.9981 149.79 28.8494 150.031 28.7415C150.273 28.6335 150.548 28.5795 150.854 28.5795C151.286 28.5795 151.625 28.6742 151.871 28.8636C152.12 29.053 152.296 29.303 152.4 29.6136ZM153.489 33V28.6364H154.159V33H153.489ZM153.83 27.9091C153.699 27.9091 153.586 27.8646 153.491 27.7756C153.399 27.6866 153.352 27.5795 153.352 27.4545C153.352 27.3295 153.399 27.2225 153.491 27.1335C153.586 27.0445 153.699 27 153.83 27C153.96 27 154.072 27.0445 154.165 27.1335C154.259 27.2225 154.307 27.3295 154.307 27.4545C154.307 27.5795 154.259 27.6866 154.165 27.7756C154.072 27.8646 153.96 27.9091 153.83 27.9091ZM157.148 34.7273C156.825 34.7273 156.546 34.6856 156.313 34.6023C156.08 34.5208 155.886 34.4129 155.731 34.2784C155.577 34.1458 155.455 34.0038 155.364 33.8523L155.898 33.4773C155.959 33.5568 156.036 33.6477 156.129 33.75C156.221 33.8542 156.348 33.9441 156.509 34.0199C156.672 34.0975 156.885 34.1364 157.148 34.1364C157.501 34.1364 157.791 34.0511 158.021 33.8807C158.25 33.7102 158.364 33.4432 158.364 33.0795V32.1932H158.308C158.258 32.2727 158.188 32.3712 158.097 32.4886C158.008 32.6042 157.879 32.7074 157.711 32.7983C157.544 32.8873 157.319 32.9318 157.035 32.9318C156.683 32.9318 156.366 32.8485 156.086 32.6818C155.808 32.5152 155.587 32.2727 155.424 31.9545C155.263 31.6364 155.183 31.25 155.183 30.7955C155.183 30.3485 155.261 29.9593 155.418 29.6278C155.576 29.2945 155.794 29.0369 156.075 28.8551C156.355 28.6714 156.679 28.5795 157.046 28.5795C157.33 28.5795 157.556 28.6269 157.722 28.7216C157.891 28.8144 158.02 28.9205 158.109 29.0398C158.2 29.1572 158.27 29.2538 158.319 29.3295H158.387V28.6364H159.035V33.125C159.035 33.5 158.95 33.8049 158.779 34.0398C158.611 34.2765 158.383 34.4498 158.097 34.5597C157.813 34.6714 157.497 34.7273 157.148 34.7273ZM157.126 32.3295C157.395 32.3295 157.622 32.268 157.808 32.1449C157.993 32.0218 158.134 31.8447 158.231 31.6136C158.327 31.3826 158.376 31.1061 158.376 30.7841C158.376 30.4697 158.328 30.1922 158.234 29.9517C158.139 29.7112 157.999 29.5227 157.813 29.3864C157.628 29.25 157.398 29.1818 157.126 29.1818C156.842 29.1818 156.605 29.2538 156.415 29.3977C156.228 29.5417 156.087 29.7348 155.992 29.9773C155.899 30.2197 155.853 30.4886 155.853 30.7841C155.853 31.0871 155.9 31.3551 155.995 31.5881C156.092 31.8191 156.234 32.0009 156.421 32.1335C156.611 32.2642 156.845 32.3295 157.126 32.3295ZM160.933 30.375V33H160.262V28.6364H160.91V29.3182H160.967C161.069 29.0966 161.224 28.9186 161.433 28.7841C161.641 28.6477 161.91 28.5795 162.239 28.5795C162.535 28.5795 162.793 28.6402 163.015 28.7614C163.237 28.8807 163.409 29.0625 163.532 29.3068C163.655 29.5492 163.717 29.8561 163.717 30.2273V33H163.046V30.2727C163.046 29.9299 162.957 29.6629 162.779 29.4716C162.601 29.2784 162.357 29.1818 162.046 29.1818C161.832 29.1818 161.641 29.2282 161.472 29.321C161.306 29.4138 161.174 29.5492 161.077 29.7273C160.981 29.9053 160.933 30.1212 160.933 30.375ZM166.771 33.0909C166.351 33.0909 165.988 32.9981 165.683 32.8125C165.38 32.625 165.146 32.3636 164.982 32.0284C164.819 31.6913 164.737 31.2992 164.737 30.8523C164.737 30.4053 164.819 30.0114 164.982 29.6705C165.146 29.3277 165.375 29.0606 165.669 28.8693C165.964 28.6761 166.309 28.5795 166.703 28.5795C166.93 28.5795 167.155 28.6174 167.376 28.6932C167.598 28.7689 167.8 28.892 167.982 29.0625C168.163 29.2311 168.308 29.4545 168.416 29.733C168.524 30.0114 168.578 30.3542 168.578 30.7614V31.0455H165.214V30.4659H167.896C167.896 30.2197 167.847 30 167.749 29.8068C167.652 29.6136 167.514 29.4612 167.334 29.3494C167.156 29.2377 166.946 29.1818 166.703 29.1818C166.436 29.1818 166.205 29.2481 166.01 29.3807C165.817 29.5114 165.668 29.6818 165.564 29.892C165.46 30.1023 165.408 30.3277 165.408 30.5682V30.9545C165.408 31.2841 165.464 31.5634 165.578 31.7926C165.694 32.0199 165.854 32.1932 166.058 32.3125C166.263 32.4299 166.5 32.4886 166.771 32.4886C166.947 32.4886 167.107 32.464 167.249 32.4148C167.393 32.3636 167.517 32.2879 167.621 32.1875C167.725 32.0852 167.805 31.9583 167.862 31.8068L168.51 31.9886C168.442 32.2083 168.327 32.4015 168.166 32.5682C168.005 32.733 167.806 32.8617 167.57 32.9545C167.333 33.0455 167.067 33.0909 166.771 33.0909ZM169.598 33V28.6364H170.246V29.2955H170.291C170.371 29.0795 170.515 28.9044 170.723 28.7699C170.931 28.6354 171.166 28.5682 171.428 28.5682C171.477 28.5682 171.538 28.5691 171.612 28.571C171.686 28.5729 171.742 28.5758 171.78 28.5795V29.2614C171.757 29.2557 171.705 29.2472 171.624 29.2358C171.544 29.2225 171.46 29.2159 171.371 29.2159C171.159 29.2159 170.969 29.2604 170.803 29.3494C170.638 29.4366 170.507 29.5578 170.411 29.7131C170.316 29.8665 170.268 30.0417 170.268 30.2386V33H169.598Z" fill="#1B1B1B"/>
</g>
</svg>
