<svg width="365" height="112" viewBox="0 0 365 112" fill="none" xmlns="http://www.w3.org/2000/svg">
<g clip-path="url(#clip0_3643_10466)">
<rect x="64.75" y="-0.25" width="34.5" height="34.5" rx="11.25" fill="#FFF1CD"/>
<rect x="64.75" y="-0.25" width="34.5" height="34.5" rx="11.25" stroke="#FFE6AA" stroke-width="1.5"/>
<path d="M74.0996 22.5H89.8975C90.1507 22.5 90.3814 22.5949 90.5576 22.75H73.4404C73.6166 22.5951 73.8466 22.5 74.0996 22.5Z" fill="#707070" stroke="#707070" stroke-width="1.12489"/>
<path d="M71.875 26.9087V9.15734C71.875 9.15734 72.1161 6.87598 74.8881 6.87598C77.6602 6.87598 77.9013 9.15734 77.9013 9.15734V10.9018" stroke="#707070" stroke-width="2" stroke-linecap="round"/>
<path d="M71.877 14.8311L91.9453 14.8311" stroke="#707070" stroke-width="2" stroke-linecap="round"/>
<path d="M71.875 25.3994C71.875 23.7686 73.4418 23.8938 73.4418 23.8938H90.6768C90.6768 23.8938 92.123 23.8938 92.123 25.3994" stroke="#707070" stroke-width="2" stroke-linecap="round"/>
<path d="M92.123 27.124L92.123 13.7458" stroke="#707070" stroke-width="2" stroke-linecap="round"/>
<path d="M76.1875 11.6208C76.1875 11.6208 76.6396 10.9746 77.9959 10.9746C79.3522 10.9746 79.8043 11.6208 79.8043 11.6208" stroke="#707070" stroke-width="2" stroke-linecap="round"/>
<path d="M76.0703 23.5078L76.0703 15.1916" stroke="#707070" stroke-width="2"/>
<path d="M80.084 23.5078L80.084 15.1916" stroke="#707070" stroke-width="2"/>
<path d="M84.0996 23.5078L84.0996 15.1916" stroke="#707070" stroke-width="2"/>
<path d="M88.1133 23.5078L88.1133 15.1916" stroke="#707070" stroke-width="2"/>
<rect x="64" y="65" width="36" height="36" rx="12" fill="#FFD500"/>
<rect x="64.75" y="65.75" width="34.5" height="34.5" rx="11.25" stroke="#FFC93C" stroke-opacity="0.9" stroke-width="1.5"/>
<path d="M87.5578 81.6045C87.5578 83.6857 86.6855 85.6817 85.1329 87.1534C83.5804 88.6251 81.4746 89.4518 79.2789 89.4518C77.0832 89.4518 74.9774 88.6251 73.4248 87.1534C71.8722 85.6817 71 83.6857 71 81.6045L87.5578 81.6045Z" fill="#505050" stroke="#505050" stroke-width="2"/>
<path d="M71.8125 81.4218C71.8125 79.5753 72.4415 77.7743 73.6129 76.2662C74.7657 74.7821 76.3881 73.6535 78.2632 73.0298C78.314 73.0129 78.3689 73.0396 78.3875 73.0899L81.6379 81.8668" stroke="#505050" stroke-width="2"/>
<path d="M77.8241 91.6191C77.8241 92.5613 77.0603 93.3251 76.1181 93.3251C75.1759 93.3251 74.4121 92.5613 74.4121 91.6191C74.4121 90.6769 75.1759 89.9131 76.1181 89.9131C77.0603 89.9131 77.8241 90.6769 77.8241 91.6191Z" fill="#505050" stroke="#505050" stroke-width="2"/>
<path d="M92.9416 80.2765C92.9416 81.3757 92.0505 82.2668 90.9513 82.2668C89.852 82.2668 88.9609 81.3757 88.9609 80.2765C88.9609 79.1772 89.852 78.2861 90.9513 78.2861C92.0505 78.2861 92.9416 79.1772 92.9416 80.2765Z" fill="#505050" stroke="#505050" stroke-width="2"/>
<path d="M87.2188 81.7534C87.2835 81.6527 87.3968 81.4567 88.028 81.16C88.3658 81.0012 88.6753 80.9226 88.999 80.8633" stroke="#505050" stroke-width="2"/>
<path d="M84.08 91.6191C84.08 92.5613 83.3162 93.3251 82.374 93.3251C81.4318 93.3251 80.668 92.5613 80.668 91.6191C80.668 90.6769 81.4318 89.9131 82.374 89.9131C83.3162 89.9131 84.08 90.6769 84.08 91.6191Z" fill="#505050" stroke="#505050" stroke-width="2"/>
<rect x="265.75" y="-0.25" width="34.5" height="34.5" rx="11.25" fill="#FFF1CD"/>
<rect x="265.75" y="-0.25" width="34.5" height="34.5" rx="11.25" stroke="#FFE6AA" stroke-width="1.5"/>
<path fill-rule="evenodd" clip-rule="evenodd" d="M291.601 9.43555L291.792 10.5518C293.088 14.3536 290.786 14.3925 289.877 12.3616C289.118 12.0502 288.633 12.2554 288.511 13.1541L289.446 17.5927L289.41 21.3679C289.967 20.6284 290.412 19.7669 290.702 18.7886C290.935 18.0067 291.734 17.5679 292.49 17.8085C293.245 18.0491 293.669 18.8771 293.436 19.659C292.661 22.2772 291.078 24.2869 289.101 25.619C287.351 26.7989 285.29 27.4411 283.212 27.4959C281.131 27.5526 279.026 27.0165 277.19 25.8436C275.191 24.5646 273.525 22.5373 272.578 19.7032C272.322 18.9319 272.718 18.0898 273.463 17.8245C274.208 17.5591 275.022 17.9695 275.278 18.7408C275.546 19.544 275.888 20.2587 276.288 20.8885L276.322 17.7413C276.394 16.9824 276.654 16.25 277.185 15.5601H275.652C274.302 15.4539 274.152 13.8087 275.652 13.4779H279.752C279.81 14.3712 280.184 15.1762 280.758 15.7723C281.385 16.4216 282.252 16.8232 283.209 16.8232C284.166 16.8232 285.032 16.4216 285.659 15.7723C286.286 15.1231 286.674 14.2262 286.674 13.2355C286.674 12.2448 286.286 11.3479 285.659 10.6987C285.23 10.2546 284.69 9.92735 284.085 9.76282C284.641 8.70138 285.57 7.7514 286.956 6.93232C288.308 6.39452 289.844 6.27599 291.77 7.05615C292.531 7.40997 292.96 7.76555 292.828 8.11936C292.702 8.46256 292.462 8.45371 292.199 8.52978C291.784 8.65008 291.553 8.92429 291.601 9.43555ZM287.997 22.8044C287.131 16.7046 278.742 16.6445 277.752 22.6169C278.051 22.8822 278.366 23.1175 278.691 23.3263C280.037 24.1878 281.594 24.5788 283.144 24.5381C284.697 24.4974 286.235 24.0162 287.542 23.1352C287.698 23.0308 287.85 22.9211 287.997 22.8044ZM280.589 13.4761H283.482C283.363 12.4465 283.434 11.4717 283.74 10.566C284.253 10.6757 284.711 10.9393 285.068 11.3072C285.543 11.799 285.839 12.4801 285.839 13.232C285.839 13.9838 285.545 14.6649 285.068 15.1567C284.593 15.6485 283.935 15.9546 283.209 15.9546C282.483 15.9546 281.825 15.6503 281.35 15.1567C280.926 14.7197 280.646 14.1324 280.589 13.4761ZM290.436 9.27456C290.627 9.27456 290.784 9.43732 290.784 9.63545V9.98573C290.784 10.1839 290.627 10.3466 290.436 10.3466C290.244 10.3466 290.087 10.1839 290.087 9.98573V9.63545C290.087 9.43555 290.242 9.27456 290.436 9.27456Z" fill="#707070"/>
<rect x="265.75" y="65.75" width="34.5" height="34.5" rx="11.25" fill="#FFF1CD"/>
<rect x="265.75" y="65.75" width="34.5" height="34.5" rx="11.25" stroke="#FFE6AA" stroke-width="1.5"/>
<path fill-rule="evenodd" clip-rule="evenodd" d="M283 71.5713C284.739 71.5713 286.149 72.998 286.149 74.7577C286.149 76.5173 284.739 77.944 283 77.944C281.261 77.944 279.851 76.5173 279.851 74.7577C279.851 72.998 281.261 71.5713 283 71.5713ZM279.662 86.0485L282.164 88.6136L280.32 90.4793L281.798 92.0139L282.302 92.5366C283.164 93.6898 281.872 95.0589 280.748 94.1083L277.469 90.7211C276.973 90.0254 276.826 89.2702 277.333 88.4053L279.662 86.0485ZM286.337 86.0485L283.837 88.6154L285.68 90.4811L284.202 92.0157L283.699 92.5384C282.837 93.6917 284.129 95.0607 285.252 94.1102L288.531 90.7229C289.028 90.0273 289.175 89.2721 288.667 88.4071L286.337 86.0485ZM290.489 85.204C289.976 85.5779 289.322 85.4049 288.886 84.9417L286.373 82.2762V84.7018H279.62V82.2836L277.114 84.9417C276.679 85.4049 276.022 85.5779 275.511 85.204C274.998 84.8301 274.8 84.0266 275.252 83.582L278.552 80.338C279.089 79.8097 280.122 78.5597 280.818 78.5597H285.239C285.892 78.5597 286.903 79.8004 287.447 80.338L290.747 83.582C291.201 84.0266 291 84.8301 290.489 85.204Z" fill="#707070"/>
<g clip-path="url(#clip1_3643_10466)">
<path d="M282.325 55.3437C282.351 54.9135 282.38 54.4404 282.406 54.0102C282.678 50.2276 282.996 46.4046 283.268 42.622C283.294 42.1918 283.318 41.8047 283.388 41.3772C283.465 40.8207 283.639 40.1404 284.378 40.3145C284.684 40.376 284.997 41.0424 285.017 41.4322C285.001 44.6259 284.944 47.7739 284.884 50.9649C284.884 51.6988 284.796 52.4274 285.145 53.2255C285.725 52.397 286.219 51.5202 286.84 50.7374C287.127 50.3661 287.812 49.9757 288.203 50.0856C288.984 50.3054 288.844 51.1604 288.549 51.6606C287.251 54.1726 285.949 56.7276 284.436 59.1403C283.46 60.6789 282.141 60.5994 281.358 58.9549C280.297 56.7756 279.555 54.4429 278.72 52.1909C278.604 51.9248 278.937 51.5132 279.046 51.1744C279.39 51.3246 279.918 51.3564 280.078 51.6251C280.487 52.1678 280.709 52.8719 281.025 53.4953C281.337 54.1617 281.65 54.8281 281.966 55.4515C282.059 55.3708 282.194 55.3357 282.325 55.3437Z" fill="#FFD500"/>
</g>
<g clip-path="url(#clip2_3643_10466)">
<path d="M83.6029 44.0439C83.6251 44.4742 83.6495 44.9476 83.6716 45.378C83.8225 49.1674 83.9317 53.0021 84.0826 56.7915C84.1048 57.2218 84.1247 57.6092 84.1029 58.0418C84.0877 58.6035 83.9911 59.2989 83.2366 59.2083C82.9264 59.1811 82.5412 58.5537 82.4773 58.1686C82.1374 54.993 81.8437 51.8582 81.5478 48.6804C81.4661 47.951 81.4725 47.2172 81.0366 46.4629C80.553 47.3508 80.1596 48.2772 79.6297 49.1243C79.3857 49.5252 78.7479 49.9895 78.3475 49.9238C77.5467 49.7925 77.5904 48.9272 77.8278 48.3972C78.8388 45.7562 79.8475 43.0721 81.0829 40.5059C81.8808 38.8683 83.2007 38.8003 84.1626 40.3474C85.459 42.395 86.4563 44.6306 87.5372 46.7756C87.6824 47.027 87.3966 47.4732 87.3263 47.822C86.9677 47.711 86.4398 47.7382 86.2505 47.489C85.784 46.9952 85.4846 46.3203 85.1016 45.7359C84.7164 45.1085 84.3312 44.481 83.9483 43.8967C83.8647 43.9873 83.7349 44.0371 83.6029 44.0439Z" fill="#FFD500"/>
</g>
<g clip-path="url(#clip3_3643_10466)">
<path d="M184.152 22.4321C183.635 22.4316 183.067 22.431 182.549 22.4305C177.999 22.3733 173.397 22.2632 168.846 22.206C168.329 22.2055 167.864 22.2051 167.347 22.1517C166.674 22.0982 165.847 21.9388 166.003 21.0403C166.055 20.6703 166.831 20.2481 167.297 20.1957C171.124 19.9879 174.899 19.8329 178.725 19.678C179.605 19.6259 180.484 19.6796 181.415 19.2047C180.381 18.5694 179.296 18.0397 178.314 17.3515C177.849 17.0339 177.332 16.2405 177.436 15.7648C177.644 14.8134 178.678 14.9201 179.298 15.2379C182.4 16.6153 185.553 17.9928 188.551 19.6345C190.463 20.6936 190.461 22.2795 188.547 23.335C186.012 24.7599 183.27 25.8145 180.632 26.975C180.321 27.1333 179.805 26.7628 179.391 26.6567C179.547 26.2339 179.547 25.5995 179.858 25.3884C180.479 24.8603 181.306 24.5439 182.031 24.1217C182.807 23.6995 183.583 23.2774 184.307 22.8551C184.204 22.7493 184.152 22.5907 184.152 22.4321Z" fill="#FFD500"/>
</g>
<g clip-path="url(#clip4_3643_10466)">
<path d="M171.834 84.6081C172.351 84.6074 172.92 84.6067 173.437 84.6061C177.988 84.6532 182.59 84.7532 187.141 84.8003C187.658 84.7997 188.123 84.7991 188.641 84.8513C189.313 84.9033 190.141 85.0609 189.987 85.9598C189.935 86.3299 189.16 86.7538 188.695 86.8072C184.868 87.0235 181.094 87.1868 177.267 87.3502C176.388 87.4042 175.509 87.3524 174.579 87.8293C175.614 88.4624 176.701 88.9897 177.684 89.6757C178.15 89.9923 178.668 90.7846 178.565 91.2605C178.359 92.2123 177.325 92.1079 176.704 91.7915C173.6 90.4209 170.444 89.0504 167.442 87.4154C165.528 86.3605 165.526 84.7746 167.438 83.7149C169.97 82.2844 172.709 81.2237 175.345 80.0573C175.655 79.8984 176.173 80.2678 176.586 80.373C176.432 80.7961 176.433 81.4304 176.123 81.6423C175.503 82.1717 174.676 82.4899 173.952 82.9138C173.177 83.3376 172.402 83.7615 171.679 84.1853C171.782 84.2909 171.834 84.4495 171.834 84.6081Z" fill="#FFD500"/>
</g>
</g>
<defs>
<clipPath id="clip0_3643_10466">
<rect width="365" height="112" rx="32" fill="white"/>
</clipPath>
<clipPath id="clip1_3643_10466">
<rect width="10" height="20" fill="white" transform="translate(279.422 40) rotate(3.44778)"/>
</clipPath>
<clipPath id="clip2_3643_10466">
<rect width="10" height="20" fill="white" transform="translate(88.1973 58.9688) rotate(177.053)"/>
</clipPath>
<clipPath id="clip3_3643_10466">
<rect width="12" height="24" fill="white" transform="translate(165.979 27) rotate(-89.9453)"/>
</clipPath>
<clipPath id="clip4_3643_10466">
<rect width="12" height="24" fill="white" transform="translate(189.998 80) rotate(89.9281)"/>
</clipPath>
</defs>
</svg>
