<svg width="365" height="112" viewBox="0 0 365 112" fill="none" xmlns="http://www.w3.org/2000/svg">
<g clip-path="url(#clip0_3643_10437)">
<path d="M194.642 36.7958C194.378 37.2407 194.089 37.7301 193.825 38.1749C191.46 42.0629 189.022 45.9683 186.657 49.8562C186.394 50.3011 186.156 50.7015 185.847 51.1194C185.459 51.6708 184.901 52.3017 184.207 51.7101C183.915 51.477 183.946 50.5941 184.138 50.1668C185.907 46.7669 187.695 43.4385 189.509 40.0656C189.912 39.2824 190.406 38.5531 190.471 37.5097C189.398 38.0761 188.389 38.7408 187.297 39.2357C186.787 39.4744 185.841 39.5151 185.485 39.1835C184.772 38.5205 185.39 37.6847 185.979 37.3125C188.743 35.344 191.534 33.3309 194.472 31.5861C196.357 30.4791 197.722 31.2876 197.656 33.4726C197.592 36.3801 197.105 39.2769 196.761 42.1386C196.739 42.4864 196.157 42.7426 195.855 43.0446C195.57 42.6956 195.025 42.3722 195.001 41.9974C194.862 41.1941 195.011 40.3206 195.017 39.4822C195.048 38.5993 195.08 37.7164 195.085 36.878C194.941 36.913 194.779 36.8767 194.642 36.7958Z" fill="#FFD500"/>
</g>
<g clip-path="url(#clip1_3643_10437)">
<path d="M103.379 35.376C103.654 35.814 103.957 36.2957 104.232 36.7337C106.606 40.6162 108.963 44.5705 111.337 48.453C111.612 48.891 111.859 49.2852 112.089 49.7513C112.402 50.3488 112.708 51.1339 111.864 51.4802C111.523 51.6331 110.752 51.2009 110.46 50.8348C108.247 47.7061 106.106 44.593 103.937 41.4362C103.425 40.7197 103.003 39.947 102.105 39.4116C102.117 40.6248 102.247 41.8256 102.187 43.0231C102.166 43.5859 101.769 44.4454 101.311 44.6107C100.395 44.9414 99.935 44.0092 99.8738 43.315C99.3886 39.9564 98.876 36.554 98.6697 33.1424C98.5481 30.9598 99.8914 30.1167 101.804 31.1753C104.36 32.5627 106.712 34.322 109.099 35.9375C109.399 36.116 109.36 36.7507 109.49 37.1573C109.05 37.2508 108.512 37.588 108.168 37.4376C107.391 37.193 106.682 36.6608 105.939 36.2725C105.169 35.8403 104.398 35.4081 103.655 35.0197C103.621 35.1635 103.514 35.2917 103.379 35.376Z" fill="#FFD500"/>
</g>
<g clip-path="url(#clip2_3643_10437)">
<path d="M264.147 40.3733C263.778 40.7362 263.373 41.1355 263.005 41.4984C259.726 44.6545 256.374 47.8092 253.095 50.9653C252.727 51.3282 252.395 51.6548 251.99 51.9801C251.474 52.4143 250.773 52.882 250.253 52.1329C250.03 51.833 250.286 50.9874 250.58 50.6231C253.157 47.7868 255.735 45.0245 258.35 42.2259C258.939 41.5712 259.602 40.9919 259.931 39.9997C258.749 40.2737 257.605 40.6593 256.422 40.8593C255.868 40.96 254.943 40.758 254.683 40.3465C254.163 39.5235 254.974 38.873 255.638 38.6634C258.813 37.465 262.025 36.2302 265.311 35.2926C267.416 34.7029 268.529 35.8327 267.909 37.9286C267.105 40.7237 265.895 43.4004 264.833 46.0797C264.723 46.4105 264.095 46.5098 263.726 46.7248C263.54 46.3147 263.094 45.8628 263.167 45.4944C263.238 44.6823 263.605 43.8757 263.824 43.0664C264.079 42.2207 264.335 41.3751 264.554 40.5657C264.406 40.563 264.258 40.4863 264.147 40.3733Z" fill="#FFD500"/>
</g>
<rect x="64.75" y="0.75" width="34.5" height="34.5" rx="11.25" fill="#FFF1CD"/>
<rect x="64.75" y="0.75" width="34.5" height="34.5" rx="11.25" stroke="#FFE6AA" stroke-width="1.5"/>
<path d="M74.0996 23.5H89.8975C90.1507 23.5 90.3814 23.5949 90.5576 23.75H73.4404C73.6166 23.5951 73.8466 23.5 74.0996 23.5Z" fill="#707070" stroke="#707070" stroke-width="1.12489"/>
<path d="M71.875 27.9087V10.1573C71.875 10.1573 72.1161 7.87598 74.8881 7.87598C77.6602 7.87598 77.9013 10.1573 77.9013 10.1573V11.9018" stroke="#707070" stroke-width="2" stroke-linecap="round"/>
<path d="M71.877 15.8311L91.9453 15.8311" stroke="#707070" stroke-width="2" stroke-linecap="round"/>
<path d="M71.875 26.3994C71.875 24.7686 73.4418 24.8938 73.4418 24.8938H90.6768C90.6768 24.8938 92.123 24.8938 92.123 26.3994" stroke="#707070" stroke-width="2" stroke-linecap="round"/>
<path d="M92.123 28.124L92.123 14.7458" stroke="#707070" stroke-width="2" stroke-linecap="round"/>
<path d="M76.1875 12.6208C76.1875 12.6208 76.6396 11.9746 77.9959 11.9746C79.3522 11.9746 79.8043 12.6208 79.8043 12.6208" stroke="#707070" stroke-width="2" stroke-linecap="round"/>
<path d="M76.0703 24.5078L76.0703 16.1916" stroke="#707070" stroke-width="2"/>
<path d="M80.084 24.5078L80.084 16.1916" stroke="#707070" stroke-width="2"/>
<path d="M84.0996 24.5078L84.0996 16.1916" stroke="#707070" stroke-width="2"/>
<path d="M88.1133 24.5078L88.1133 16.1916" stroke="#707070" stroke-width="2"/>
<rect x="131" width="36" height="36" rx="12" fill="#FFD500"/>
<rect x="131.75" y="0.75" width="34.5" height="34.5" rx="11.25" stroke="#FFC93C" stroke-opacity="0.9" stroke-width="1.5"/>
<path d="M154.558 16.6045C154.558 18.6857 153.686 20.6817 152.133 22.1534C150.58 23.6251 148.475 24.4518 146.279 24.4518C144.083 24.4518 141.977 23.6251 140.425 22.1534C138.872 20.6817 138 18.6857 138 16.6045L154.558 16.6045Z" fill="#505050" stroke="#505050" stroke-width="2"/>
<path d="M138.812 16.4218C138.813 14.5753 139.441 12.7743 140.613 11.2662C141.766 9.78208 143.388 8.65346 145.263 8.02984C145.314 8.01294 145.369 8.03962 145.388 8.08985L148.638 16.8668" stroke="#505050" stroke-width="2"/>
<path d="M144.824 26.6191C144.824 27.5613 144.06 28.3251 143.118 28.3251C142.176 28.3251 141.412 27.5613 141.412 26.6191C141.412 25.6769 142.176 24.9131 143.118 24.9131C144.06 24.9131 144.824 25.6769 144.824 26.6191Z" fill="#505050" stroke="#505050" stroke-width="2"/>
<path d="M159.942 15.2765C159.942 16.3757 159.05 17.2668 157.951 17.2668C156.852 17.2668 155.961 16.3757 155.961 15.2765C155.961 14.1772 156.852 13.2861 157.951 13.2861C159.05 13.2861 159.942 14.1772 159.942 15.2765Z" fill="#505050" stroke="#505050" stroke-width="2"/>
<path d="M154.219 16.7534C154.283 16.6527 154.397 16.4567 155.028 16.16C155.366 16.0012 155.675 15.9226 155.999 15.8633" stroke="#505050" stroke-width="2"/>
<path d="M151.08 26.6191C151.08 27.5613 150.316 28.3251 149.374 28.3251C148.432 28.3251 147.668 27.5613 147.668 26.6191C147.668 25.6769 148.432 24.9131 149.374 24.9131C150.316 24.9131 151.08 25.6769 151.08 26.6191Z" fill="#505050" stroke="#505050" stroke-width="2"/>
<rect x="198.75" y="0.75" width="34.5" height="34.5" rx="11.25" fill="#FFF1CD"/>
<rect x="198.75" y="0.75" width="34.5" height="34.5" rx="11.25" stroke="#FFE6AA" stroke-width="1.5"/>
<path fill-rule="evenodd" clip-rule="evenodd" d="M216 6.57129C217.739 6.57129 219.149 7.99799 219.149 9.75765C219.149 11.5173 217.739 12.944 216 12.944C214.261 12.944 212.851 11.5173 212.851 9.75765C212.851 7.99799 214.261 6.57129 216 6.57129ZM212.662 21.0485L215.164 23.6136L213.32 25.4793L214.798 27.0139L215.302 27.5366C216.164 28.6898 214.872 30.0589 213.748 29.1083L210.469 25.7211C209.973 25.0254 209.826 24.2702 210.333 23.4053L212.662 21.0485ZM219.337 21.0485L216.837 23.6154L218.68 25.4811L217.202 27.0157L216.699 27.5384C215.837 28.6917 217.129 30.0607 218.252 29.1102L221.531 25.7229C222.028 25.0273 222.175 24.2721 221.667 23.4071L219.337 21.0485ZM223.489 20.204C222.976 20.5779 222.322 20.4049 221.886 19.9417L219.373 17.2762V19.7018H212.62V17.2836L210.114 19.9417C209.679 20.4049 209.022 20.5779 208.511 20.204C207.998 19.8301 207.8 19.0266 208.252 18.582L211.552 15.338C212.089 14.8097 213.122 13.5597 213.818 13.5597H218.239C218.892 13.5597 219.903 14.8004 220.447 15.338L223.747 18.582C224.201 19.0266 224 19.8301 223.489 20.204Z" fill="#707070"/>
<rect x="265.75" y="0.75" width="34.5" height="34.5" rx="11.25" fill="#FFF1CD"/>
<rect x="265.75" y="0.75" width="34.5" height="34.5" rx="11.25" stroke="#FFE6AA" stroke-width="1.5"/>
<path fill-rule="evenodd" clip-rule="evenodd" d="M291.601 10.4355L291.792 11.5518C293.088 15.3536 290.786 15.3925 289.877 13.3616C289.118 13.0502 288.633 13.2554 288.511 14.1541L289.446 18.5927L289.41 22.3679C289.967 21.6284 290.412 20.7669 290.702 19.7886C290.935 19.0067 291.734 18.5679 292.49 18.8085C293.245 19.0491 293.669 19.8771 293.436 20.659C292.661 23.2772 291.078 25.2869 289.101 26.619C287.351 27.7989 285.29 28.4411 283.212 28.4959C281.131 28.5526 279.026 28.0165 277.19 26.8436C275.191 25.5646 273.525 23.5373 272.578 20.7032C272.322 19.9319 272.718 19.0898 273.463 18.8245C274.208 18.5591 275.022 18.9695 275.278 19.7408C275.546 20.544 275.888 21.2587 276.288 21.8885L276.322 18.7413C276.394 17.9824 276.654 17.25 277.185 16.5601H275.652C274.302 16.4539 274.152 14.8087 275.652 14.4779H279.752C279.81 15.3712 280.184 16.1762 280.758 16.7723C281.385 17.4216 282.252 17.8232 283.209 17.8232C284.166 17.8232 285.032 17.4216 285.659 16.7723C286.286 16.1231 286.674 15.2262 286.674 14.2355C286.674 13.2448 286.286 12.3479 285.659 11.6987C285.23 11.2546 284.69 10.9273 284.085 10.7628C284.641 9.70138 285.57 8.7514 286.956 7.93232C288.308 7.39452 289.844 7.27599 291.77 8.05615C292.531 8.40997 292.96 8.76555 292.828 9.11936C292.702 9.46256 292.462 9.45371 292.199 9.52978C291.784 9.65008 291.553 9.92429 291.601 10.4355ZM287.997 23.8044C287.131 17.7046 278.742 17.6445 277.752 23.6169C278.051 23.8822 278.366 24.1175 278.691 24.3263C280.037 25.1878 281.594 25.5788 283.144 25.5381C284.697 25.4974 286.235 25.0162 287.542 24.1352C287.698 24.0308 287.85 23.9211 287.997 23.8044ZM280.589 14.4761H283.482C283.363 13.4465 283.434 12.4717 283.74 11.566C284.253 11.6757 284.711 11.9393 285.068 12.3072C285.543 12.799 285.839 13.4801 285.839 14.232C285.839 14.9838 285.545 15.6649 285.068 16.1567C284.593 16.6485 283.935 16.9546 283.209 16.9546C282.483 16.9546 281.825 16.6503 281.35 16.1567C280.926 15.7197 280.646 15.1324 280.589 14.4761ZM290.436 10.2746C290.627 10.2746 290.784 10.4373 290.784 10.6355V10.9857C290.784 11.1839 290.627 11.3466 290.436 11.3466C290.244 11.3466 290.087 11.1839 290.087 10.9857V10.6355C290.087 10.4355 290.242 10.2746 290.436 10.2746Z" fill="#707070"/>
<rect x="64" y="54" width="237" height="6" rx="3" fill="#FFE6AA"/>
<rect x="64" y="67.333" width="237" height="6" rx="3" fill="#FFE6AA"/>
<rect x="64" y="80.667" width="237" height="6" rx="3" fill="#FFF1CD"/>
<rect x="64" y="94" width="237" height="6" rx="3" fill="#FFF1CD"/>
<defs>
<clipPath id="clip0_3643_10437">
<rect width="12" height="24" fill="white" transform="translate(189.324 54.7646) rotate(-149.35)"/>
</clipPath>
<clipPath id="clip1_3643_10437">
<rect width="12" height="24" fill="white" transform="translate(116.922 48.3281) rotate(147.887)"/>
</clipPath>
<clipPath id="clip2_3643_10437">
<rect width="12" height="24" fill="white" transform="translate(254.422 56.3916) rotate(-134.574)"/>
</clipPath>
</defs>
</svg>
