<svg width="1971" height="173" viewBox="0 0 1971 173" fill="none" xmlns="http://www.w3.org/2000/svg">
<rect x="31.5" y="28" width="107" height="50" rx="25" fill="#F6F9FE"/>
<path d="M68.5654 46.7031V59.5H66.377V46.7031H68.5654ZM72.582 46.7031V48.4609H62.3955V46.7031H72.582ZM77.4072 59.6758C76.7041 59.6758 76.0684 59.5615 75.5 59.333C74.9375 59.0986 74.457 58.7734 74.0586 58.3574C73.666 57.9414 73.3643 57.4521 73.1533 56.8896C72.9424 56.3271 72.8369 55.7207 72.8369 55.0703V54.7188C72.8369 53.9746 72.9453 53.3008 73.1621 52.6973C73.3789 52.0938 73.6807 51.5781 74.0674 51.1504C74.4541 50.7168 74.9111 50.3857 75.4385 50.1572C75.9658 49.9287 76.5371 49.8145 77.1523 49.8145C77.832 49.8145 78.4268 49.9287 78.9365 50.1572C79.4463 50.3857 79.8682 50.708 80.2021 51.124C80.542 51.5342 80.7939 52.0234 80.958 52.5918C81.1279 53.1602 81.2129 53.7871 81.2129 54.4727V55.3779H73.8652V53.8574H79.1211V53.6904C79.1094 53.3096 79.0332 52.9521 78.8926 52.6182C78.7578 52.2842 78.5498 52.0146 78.2686 51.8096C77.9873 51.6045 77.6123 51.502 77.1436 51.502C76.792 51.502 76.4785 51.5781 76.2031 51.7305C75.9336 51.877 75.708 52.0908 75.5264 52.3721C75.3447 52.6533 75.2041 52.9932 75.1045 53.3916C75.0107 53.7842 74.9639 54.2266 74.9639 54.7188V55.0703C74.9639 55.4863 75.0195 55.873 75.1309 56.2305C75.248 56.582 75.418 56.8896 75.6406 57.1533C75.8633 57.417 76.1328 57.625 76.4492 57.7773C76.7656 57.9238 77.126 57.9971 77.5303 57.9971C78.04 57.9971 78.4941 57.8945 78.8926 57.6895C79.291 57.4844 79.6367 57.1943 79.9297 56.8193L81.0459 57.9004C80.8408 58.1992 80.5742 58.4863 80.2461 58.7617C79.918 59.0312 79.5166 59.251 79.042 59.4209C78.5732 59.5908 78.0283 59.6758 77.4072 59.6758ZM88.2266 57.5928V53.0576C88.2266 52.7178 88.165 52.4248 88.042 52.1787C87.9189 51.9326 87.7314 51.7422 87.4795 51.6074C87.2334 51.4727 86.9229 51.4053 86.5479 51.4053C86.2021 51.4053 85.9033 51.4639 85.6514 51.5811C85.3994 51.6982 85.2031 51.8564 85.0625 52.0557C84.9219 52.2549 84.8516 52.4805 84.8516 52.7324H82.7422C82.7422 52.3574 82.833 51.9941 83.0146 51.6426C83.1963 51.291 83.46 50.9775 83.8057 50.7021C84.1514 50.4268 84.5645 50.21 85.0449 50.0518C85.5254 49.8936 86.0645 49.8145 86.6621 49.8145C87.377 49.8145 88.0098 49.9346 88.5605 50.1748C89.1172 50.415 89.5537 50.7783 89.8701 51.2646C90.1924 51.7451 90.3535 52.3486 90.3535 53.0752V57.3027C90.3535 57.7363 90.3828 58.126 90.4414 58.4717C90.5059 58.8115 90.5967 59.1074 90.7139 59.3594V59.5H88.543C88.4434 59.2715 88.3643 58.9814 88.3057 58.6299C88.2529 58.2725 88.2266 57.9268 88.2266 57.5928ZM88.5342 53.7168L88.5518 55.0264H87.0312C86.6387 55.0264 86.293 55.0645 85.9941 55.1406C85.6953 55.2109 85.4463 55.3164 85.2471 55.457C85.0479 55.5977 84.8984 55.7676 84.7988 55.9668C84.6992 56.166 84.6494 56.3916 84.6494 56.6436C84.6494 56.8955 84.708 57.127 84.8252 57.3379C84.9424 57.543 85.1123 57.7041 85.335 57.8213C85.5635 57.9385 85.8389 57.9971 86.1611 57.9971C86.5947 57.9971 86.9727 57.9092 87.2949 57.7334C87.623 57.5518 87.8809 57.332 88.0684 57.0742C88.2559 56.8105 88.3555 56.5615 88.3672 56.3271L89.0527 57.2676C88.9824 57.5078 88.8623 57.7656 88.6924 58.041C88.5225 58.3164 88.2998 58.5801 88.0244 58.832C87.7549 59.0781 87.4297 59.2803 87.0488 59.4385C86.6738 59.5967 86.2402 59.6758 85.748 59.6758C85.127 59.6758 84.5732 59.5527 84.0869 59.3066C83.6006 59.0547 83.2197 58.7178 82.9443 58.2959C82.6689 57.8682 82.5312 57.3848 82.5312 56.8457C82.5312 56.3418 82.625 55.8965 82.8125 55.5098C83.0059 55.1172 83.2871 54.7891 83.6562 54.5254C84.0312 54.2617 84.4883 54.0625 85.0273 53.9277C85.5664 53.7871 86.1816 53.7168 86.873 53.7168H88.5342ZM94.6865 51.9238V59.5H92.5684V49.9902H94.5635L94.6865 51.9238ZM94.3438 54.3936L93.623 54.3848C93.623 53.7285 93.7051 53.1221 93.8691 52.5654C94.0332 52.0088 94.2734 51.5254 94.5898 51.1152C94.9062 50.6992 95.2988 50.3799 95.7676 50.1572C96.2422 49.9287 96.79 49.8145 97.4111 49.8145C97.8447 49.8145 98.2402 49.8789 98.5977 50.0078C98.9609 50.1309 99.2744 50.3271 99.5381 50.5967C99.8076 50.8662 100.013 51.2119 100.153 51.6338C100.3 52.0557 100.373 52.5654 100.373 53.1631V59.5H98.2549V53.3477C98.2549 52.8848 98.1846 52.5215 98.0439 52.2578C97.9092 51.9941 97.7129 51.8066 97.4551 51.6953C97.2031 51.5781 96.9014 51.5195 96.5498 51.5195C96.1514 51.5195 95.8115 51.5957 95.5303 51.748C95.2549 51.9004 95.0293 52.1084 94.8535 52.3721C94.6777 52.6357 94.5488 52.9404 94.4668 53.2861C94.3848 53.6318 94.3438 54.001 94.3438 54.3936ZM100.241 53.8311L99.248 54.0508C99.248 53.4766 99.3271 52.9346 99.4854 52.4248C99.6494 51.9092 99.8867 51.458 100.197 51.0713C100.514 50.6787 100.903 50.3711 101.366 50.1484C101.829 49.9258 102.359 49.8145 102.957 49.8145C103.443 49.8145 103.877 49.8818 104.258 50.0166C104.645 50.1455 104.973 50.3506 105.242 50.6318C105.512 50.9131 105.717 51.2793 105.857 51.7305C105.998 52.1758 106.068 52.7148 106.068 53.3477V59.5H103.941V53.3389C103.941 52.8584 103.871 52.4863 103.73 52.2227C103.596 51.959 103.402 51.7773 103.15 51.6777C102.898 51.5723 102.597 51.5195 102.245 51.5195C101.917 51.5195 101.627 51.5811 101.375 51.7041C101.129 51.8213 100.921 51.9883 100.751 52.2051C100.581 52.416 100.452 52.6592 100.364 52.9346C100.282 53.21 100.241 53.5088 100.241 53.8311Z" fill="#5384ED"/>
<rect x="31.5" y="28" width="107" height="50" rx="25" stroke="#5384ED" stroke-width="3"/>
<path d="M212 53L202 47.2265L202 58.7735L212 53ZM145.333 53C145.333 50.0545 142.946 47.6666 140 47.6666C137.054 47.6666 134.667 50.0545 134.667 53C134.667 55.9455 137.054 58.3333 140 58.3333C142.946 58.3333 145.333 55.9455 145.333 53ZM203 52L140 52L140 54L203 54L203 52Z" fill="#5384ED"/>
<path d="M320.391 13.4975C323.045 12.5303 325.955 12.5303 328.609 13.4975L421.532 47.3627C426.793 49.2799 426.793 56.7201 421.532 58.6373L328.609 92.5025C325.955 93.4697 323.045 93.4697 320.391 92.5025L227.468 58.6373C222.208 56.7201 222.208 49.2799 227.468 47.3627L320.391 13.4975Z" fill="url(#paint0_linear_3239_10743)" stroke="#E2EDFD" stroke-width="3"/>
<path d="M265.507 47.0039V59.8008H263.09V47.0039H265.507ZM270.218 52.3213V59.8008H267.898V50.291H270.078L270.218 52.3213ZM269.849 54.7031H269.164C269.169 54.0117 269.263 53.3848 269.445 52.8223C269.626 52.2598 269.881 51.7764 270.209 51.3721C270.543 50.9678 270.939 50.6572 271.396 50.4404C271.853 50.2236 272.363 50.1152 272.925 50.1152C273.382 50.1152 273.795 50.1797 274.164 50.3086C274.534 50.4375 274.85 50.6426 275.114 50.9238C275.383 51.2051 275.588 51.5742 275.729 52.0312C275.875 52.4824 275.949 53.0391 275.949 53.7012V59.8008H273.611V53.6836C273.611 53.25 273.546 52.9072 273.417 52.6553C273.294 52.4033 273.113 52.2246 272.873 52.1191C272.638 52.0137 272.348 51.9609 272.002 51.9609C271.645 51.9609 271.331 52.0342 271.062 52.1807C270.798 52.3213 270.576 52.5176 270.394 52.7695C270.218 53.0215 270.083 53.3115 269.99 53.6396C269.896 53.9678 269.849 54.3223 269.849 54.7031ZM281.152 58.043L283.367 50.291H285.792L282.532 59.8008H281.055L281.152 58.043ZM279.535 50.291L281.776 58.0605L281.855 59.8008H280.37L277.1 50.291H279.535ZM289.475 50.291V59.8008H287.146V50.291H289.475ZM286.988 47.8037C286.988 47.458 287.105 47.1709 287.339 46.9424C287.58 46.7139 287.902 46.5996 288.306 46.5996C288.71 46.5996 289.03 46.7139 289.264 46.9424C289.504 47.1709 289.624 47.458 289.624 47.8037C289.624 48.1436 289.504 48.4277 289.264 48.6562C289.03 48.8848 288.71 48.999 288.306 48.999C287.902 48.999 287.58 48.8848 287.339 48.6562C287.105 48.4277 286.988 48.1436 286.988 47.8037ZM296.19 50.291V51.9609H290.741V50.291H296.19ZM292.2 47.9531H294.529V57.0586C294.529 57.3398 294.567 57.5566 294.643 57.709C294.719 57.8613 294.833 57.9639 294.986 58.0166C295.138 58.0693 295.32 58.0957 295.531 58.0957C295.683 58.0957 295.824 58.0869 295.953 58.0693C296.081 58.0518 296.19 58.0342 296.278 58.0166L296.287 59.7568C296.093 59.8213 295.873 59.874 295.627 59.915C295.387 59.9561 295.115 59.9766 294.81 59.9766C294.289 59.9766 293.831 59.8887 293.439 59.7129C293.046 59.5312 292.742 59.2412 292.525 58.8428C292.308 58.4385 292.2 57.9053 292.2 57.2432V47.9531ZM302.008 59.9766C301.288 59.9766 300.64 59.8594 300.066 59.625C299.492 59.3906 299.002 59.0654 298.598 58.6494C298.2 58.2275 297.892 57.7383 297.675 57.1816C297.464 56.6191 297.359 56.0156 297.359 55.3711V55.0195C297.359 54.2871 297.464 53.6221 297.675 53.0244C297.886 52.4209 298.185 51.9023 298.572 51.4687C298.958 51.0352 299.421 50.7012 299.96 50.4668C300.499 50.2324 301.094 50.1152 301.745 50.1152C302.418 50.1152 303.013 50.2295 303.529 50.458C304.044 50.6807 304.475 50.9971 304.821 51.4072C305.166 51.8174 305.427 52.3096 305.603 52.8838C305.779 53.4521 305.867 54.082 305.867 54.7734V55.749H298.414V54.1494H303.581V53.9736C303.57 53.6045 303.499 53.2676 303.371 52.9629C303.242 52.6523 303.042 52.4062 302.773 52.2246C302.503 52.0371 302.155 51.9434 301.727 51.9434C301.381 51.9434 301.08 52.0195 300.822 52.1719C300.57 52.3184 300.359 52.5293 300.189 52.8047C300.025 53.0742 299.902 53.3965 299.82 53.7715C299.738 54.1465 299.697 54.5625 299.697 55.0195V55.3711C299.697 55.7695 299.749 56.1387 299.855 56.4785C299.966 56.8184 300.127 57.1143 300.338 57.3662C300.555 57.6123 300.813 57.8057 301.112 57.9463C301.416 58.0811 301.762 58.1484 302.149 58.1484C302.635 58.1484 303.075 58.0547 303.467 57.8672C303.866 57.6738 304.211 57.3896 304.504 57.0146L305.673 58.2275C305.474 58.5205 305.205 58.8018 304.865 59.0713C304.531 59.3408 304.126 59.5605 303.652 59.7305C303.177 59.8945 302.629 59.9766 302.008 59.9766ZM314.216 52.2422V59.8008H311.896V50.291H314.084L314.216 52.2422ZM313.873 54.7031H313.162C313.162 54.041 313.241 53.4316 313.399 52.875C313.563 52.3184 313.803 51.835 314.12 51.4248C314.436 51.0088 314.826 50.6865 315.289 50.458C315.757 50.2295 316.299 50.1152 316.914 50.1152C317.342 50.1152 317.735 50.1797 318.092 50.3086C318.45 50.4316 318.757 50.6279 319.015 50.8975C319.279 51.1611 319.481 51.5068 319.622 51.9346C319.762 52.3564 319.832 52.8633 319.832 53.4551V59.8008H317.512V53.6924C317.512 53.2471 317.448 52.8984 317.319 52.6465C317.196 52.3945 317.017 52.2187 316.783 52.1191C316.548 52.0137 316.267 51.9609 315.939 51.9609C315.576 51.9609 315.262 52.0342 314.998 52.1807C314.741 52.3213 314.527 52.5176 314.357 52.7695C314.193 53.0215 314.07 53.3115 313.988 53.6396C313.912 53.9678 313.873 54.3223 313.873 54.7031ZM319.657 54.2725L318.699 54.4482C318.705 53.8506 318.787 53.291 318.945 52.7695C319.103 52.2422 319.334 51.7822 319.639 51.3896C319.95 50.9912 320.333 50.6807 320.79 50.458C321.253 50.2295 321.787 50.1152 322.39 50.1152C322.859 50.1152 323.281 50.1826 323.656 50.3174C324.037 50.4463 324.362 50.6543 324.631 50.9414C324.901 51.2227 325.106 51.5889 325.247 52.04C325.393 52.4912 325.466 53.042 325.466 53.6924V59.8008H323.128V53.6836C323.128 53.2207 323.064 52.8662 322.935 52.6201C322.812 52.374 322.633 52.2041 322.399 52.1104C322.164 52.0107 321.889 51.9609 321.573 51.9609C321.25 51.9609 320.969 52.0225 320.729 52.1455C320.495 52.2627 320.295 52.4268 320.131 52.6377C319.973 52.8486 319.853 53.0947 319.771 53.376C319.695 53.6514 319.657 53.9502 319.657 54.2725ZM331.821 59.9766C331.1 59.9766 330.453 59.8594 329.878 59.625C329.304 59.3906 328.815 59.0654 328.411 58.6494C328.012 58.2275 327.705 57.7383 327.488 57.1816C327.277 56.6191 327.171 56.0156 327.171 55.3711V55.0195C327.171 54.2871 327.277 53.6221 327.488 53.0244C327.699 52.4209 327.997 51.9023 328.384 51.4687C328.771 51.0352 329.234 50.7012 329.773 50.4668C330.312 50.2324 330.907 50.1152 331.557 50.1152C332.231 50.1152 332.826 50.2295 333.341 50.458C333.857 50.6807 334.288 50.9971 334.633 51.4072C334.979 51.8174 335.24 52.3096 335.415 52.8838C335.591 53.4521 335.679 54.082 335.679 54.7734V55.749H328.226V54.1494H333.394V53.9736C333.382 53.6045 333.312 53.2676 333.183 52.9629C333.054 52.6523 332.855 52.4062 332.585 52.2246C332.316 52.0371 331.967 51.9434 331.539 51.9434C331.194 51.9434 330.892 52.0195 330.634 52.1719C330.382 52.3184 330.171 52.5293 330.001 52.8047C329.837 53.0742 329.714 53.3965 329.632 53.7715C329.55 54.1465 329.509 54.5625 329.509 55.0195V55.3711C329.509 55.7695 329.562 56.1387 329.667 56.4785C329.779 56.8184 329.94 57.1143 330.151 57.3662C330.368 57.6123 330.625 57.8057 330.924 57.9463C331.229 58.0811 331.575 58.1484 331.961 58.1484C332.448 58.1484 332.887 58.0547 333.28 57.8672C333.678 57.6738 334.024 57.3896 334.317 57.0146L335.486 58.2275C335.287 58.5205 335.017 58.8018 334.677 59.0713C334.343 59.3408 333.939 59.5605 333.464 59.7305C332.99 59.8945 332.442 59.9766 331.821 59.9766ZM339.546 52.2422V59.8008H337.226V50.291H339.414L339.546 52.2422ZM339.204 54.7031H338.492C338.492 54.041 338.571 53.4316 338.729 52.875C338.893 52.3184 339.133 51.835 339.45 51.4248C339.766 51.0088 340.156 50.6865 340.619 50.458C341.087 50.2295 341.629 50.1152 342.245 50.1152C342.672 50.1152 343.065 50.1797 343.422 50.3086C343.78 50.4316 344.087 50.6279 344.345 50.8975C344.609 51.1611 344.811 51.5068 344.952 51.9346C345.092 52.3564 345.163 52.8633 345.163 53.4551V59.8008H342.842V53.6924C342.842 53.2471 342.778 52.8984 342.649 52.6465C342.526 52.3945 342.347 52.2187 342.113 52.1191C341.878 52.0137 341.597 51.9609 341.269 51.9609C340.906 51.9609 340.592 52.0342 340.329 52.1807C340.071 52.3213 339.857 52.5176 339.687 52.7695C339.523 53.0215 339.4 53.3115 339.318 53.6396C339.242 53.9678 339.204 54.3223 339.204 54.7031ZM344.987 54.2725L344.029 54.4482C344.035 53.8506 344.117 53.291 344.275 52.7695C344.433 52.2422 344.664 51.7822 344.969 51.3896C345.28 50.9912 345.664 50.6807 346.121 50.458C346.583 50.2295 347.117 50.1152 347.72 50.1152C348.189 50.1152 348.611 50.1826 348.986 50.3174C349.367 50.4463 349.692 50.6543 349.961 50.9414C350.231 51.2227 350.436 51.5889 350.577 52.04C350.723 52.4912 350.796 53.042 350.796 53.6924V59.8008H348.458V53.6836C348.458 53.2207 348.394 52.8662 348.265 52.6201C348.142 52.374 347.963 52.2041 347.729 52.1104C347.495 52.0107 347.219 51.9609 346.903 51.9609C346.581 51.9609 346.299 52.0225 346.059 52.1455C345.825 52.2627 345.625 52.4268 345.461 52.6377C345.303 52.8486 345.183 53.0947 345.101 53.376C345.025 53.6514 344.987 53.9502 344.987 54.2725ZM352.871 46.3008H355.2V57.7002L354.971 59.8008H352.871V46.3008ZM361.317 54.9492V55.1338C361.317 55.8428 361.238 56.4932 361.08 57.085C360.927 57.6768 360.696 58.1895 360.385 58.623C360.075 59.0508 359.688 59.3848 359.225 59.625C358.768 59.8594 358.232 59.9766 357.617 59.9766C357.031 59.9766 356.521 59.8623 356.087 59.6338C355.66 59.4053 355.299 59.083 355.006 58.667C354.713 58.2451 354.479 57.75 354.303 57.1816C354.127 56.6074 353.996 55.9805 353.908 55.3008V54.7998C353.996 54.1143 354.127 53.4873 354.303 52.9189C354.479 52.3506 354.713 51.8555 355.006 51.4336C355.299 51.0117 355.66 50.6865 356.087 50.458C356.515 50.2295 357.019 50.1152 357.599 50.1152C358.22 50.1152 358.762 50.2354 359.225 50.4756C359.694 50.71 360.08 51.0439 360.385 51.4775C360.696 51.9053 360.927 52.415 361.08 53.0068C361.238 53.5928 361.317 54.2402 361.317 54.9492ZM358.988 55.1338V54.9492C358.988 54.5449 358.955 54.1641 358.891 53.8066C358.827 53.4434 358.721 53.124 358.575 52.8486C358.428 52.5732 358.229 52.3564 357.977 52.1982C357.725 52.04 357.409 51.9609 357.028 51.9609C356.664 51.9609 356.354 52.0225 356.096 52.1455C355.844 52.2686 355.633 52.4385 355.463 52.6553C355.299 52.8721 355.17 53.127 355.077 53.4199C354.989 53.7129 354.93 54.0293 354.901 54.3691V55.7402C354.942 56.1914 355.039 56.5986 355.191 56.9619C355.343 57.3193 355.569 57.6035 355.868 57.8145C356.172 58.0254 356.565 58.1309 357.045 58.1309C357.42 58.1309 357.734 58.0576 357.986 57.9111C358.238 57.7588 358.437 57.5479 358.583 57.2783C358.73 57.0029 358.832 56.6836 358.891 56.3203C358.955 55.957 358.988 55.5615 358.988 55.1338ZM367.276 59.9766C366.555 59.9766 365.908 59.8594 365.333 59.625C364.759 59.3906 364.27 59.0654 363.866 58.6494C363.467 58.2275 363.16 57.7383 362.943 57.1816C362.732 56.6191 362.626 56.0156 362.626 55.3711V55.0195C362.626 54.2871 362.732 53.6221 362.943 53.0244C363.154 52.4209 363.453 51.9023 363.839 51.4687C364.226 51.0352 364.689 50.7012 365.228 50.4668C365.767 50.2324 366.362 50.1152 367.012 50.1152C367.686 50.1152 368.281 50.2295 368.796 50.458C369.312 50.6807 369.743 50.9971 370.088 51.4072C370.434 51.8174 370.695 52.3096 370.871 52.8838C371.046 53.4521 371.134 54.082 371.134 54.7734V55.749H363.681V54.1494H368.849V53.9736C368.837 53.6045 368.767 53.2676 368.638 52.9629C368.509 52.6523 368.31 52.4062 368.04 52.2246C367.771 52.0371 367.422 51.9434 366.995 51.9434C366.649 51.9434 366.347 52.0195 366.089 52.1719C365.837 52.3184 365.626 52.5293 365.456 52.8047C365.292 53.0742 365.169 53.3965 365.087 53.7715C365.005 54.1465 364.964 54.5625 364.964 55.0195V55.3711C364.964 55.7695 365.017 56.1387 365.122 56.4785C365.234 56.8184 365.395 57.1143 365.606 57.3662C365.823 57.6123 366.08 57.8057 366.379 57.9463C366.684 58.0811 367.03 58.1484 367.416 58.1484C367.903 58.1484 368.342 58.0547 368.735 57.8672C369.133 57.6738 369.479 57.3896 369.772 57.0146L370.941 58.2275C370.742 58.5205 370.472 58.8018 370.132 59.0713C369.798 59.3408 369.394 59.5605 368.919 59.7305C368.445 59.8945 367.897 59.9766 367.276 59.9766ZM375.01 52.2334V59.8008H372.69V50.291H374.887L375.01 52.2334ZM377.902 50.2295L377.867 52.3916C377.738 52.3682 377.591 52.3506 377.427 52.3389C377.269 52.3271 377.12 52.3213 376.979 52.3213C376.622 52.3213 376.308 52.3711 376.039 52.4707C375.769 52.5645 375.543 52.7021 375.362 52.8838C375.186 53.0654 375.051 53.2881 374.957 53.5518C374.864 53.8096 374.811 54.1025 374.799 54.4307L374.298 54.3691C374.298 53.7656 374.36 53.2061 374.483 52.6904C374.606 52.1748 374.785 51.7236 375.019 51.3369C375.253 50.9502 375.546 50.6514 375.898 50.4404C376.255 50.2236 376.665 50.1152 377.128 50.1152C377.257 50.1152 377.395 50.127 377.541 50.1504C377.694 50.168 377.814 50.1943 377.902 50.2295ZM383.307 55.96H381.206C381.212 55.4268 381.256 54.9697 381.338 54.5889C381.426 54.208 381.57 53.8652 381.769 53.5605C381.968 53.25 382.238 52.9336 382.578 52.6113C382.847 52.3594 383.087 52.1221 383.298 51.8994C383.515 51.6709 383.685 51.4336 383.808 51.1875C383.931 50.9355 383.993 50.6514 383.993 50.335C383.993 49.9775 383.934 49.6787 383.817 49.4385C383.705 49.1982 383.539 49.0166 383.316 48.8936C383.099 48.7646 382.827 48.7002 382.498 48.7002C382.229 48.7002 381.974 48.7559 381.734 48.8672C381.494 48.9785 381.3 49.1514 381.154 49.3857C381.007 49.6143 380.928 49.9131 380.916 50.2822H378.587C378.605 49.5146 378.787 48.876 379.132 48.3662C379.478 47.8506 379.944 47.4668 380.53 47.2148C381.116 46.957 381.772 46.8281 382.498 46.8281C383.301 46.8281 383.987 46.9629 384.555 47.2324C385.129 47.4961 385.566 47.8828 385.865 48.3926C386.169 48.9023 386.322 49.5176 386.322 50.2383C386.322 50.7539 386.222 51.2168 386.023 51.627C385.824 52.0312 385.56 52.4092 385.232 52.7607C384.904 53.1123 384.549 53.4668 384.168 53.8242C383.834 54.123 383.609 54.4424 383.492 54.7822C383.374 55.1221 383.313 55.5146 383.307 55.96ZM380.987 58.6934C380.987 58.3418 381.104 58.0488 381.338 57.8145C381.579 57.5801 381.901 57.4629 382.305 57.4629C382.709 57.4629 383.029 57.5801 383.263 57.8145C383.503 58.0488 383.623 58.3418 383.623 58.6934C383.623 59.0332 383.503 59.3203 383.263 59.5547C383.029 59.7891 382.709 59.9062 382.305 59.9062C381.901 59.9062 381.579 59.7891 381.338 59.5547C381.104 59.3203 380.987 59.0332 380.987 58.6934Z" fill="white"/>
<path d="M509 53L499 47.2265L499 58.7735L509 53ZM442.333 53C442.333 50.0545 439.946 47.6666 437 47.6666C434.054 47.6666 431.667 50.0545 431.667 53C431.667 55.9455 434.054 58.3333 437 58.3333C439.946 58.3333 442.333 55.9455 442.333 53ZM500 52L437 52L437 54L500 54L500 52Z" fill="#5384ED"/>
<rect x="509" y="30.5" width="246" height="45" rx="8" fill="#E2EDFD"/>
<path d="M569.656 46.7031V59.5H567.45V46.7031H569.656ZM574.288 52.0205V59.5H572.17V49.9902H574.165L574.288 52.0205ZM573.91 54.3936L573.225 54.3848C573.23 53.7109 573.324 53.0928 573.506 52.5303C573.693 51.9678 573.951 51.4844 574.279 51.0801C574.613 50.6758 575.012 50.3652 575.475 50.1484C575.938 49.9258 576.453 49.8145 577.021 49.8145C577.479 49.8145 577.892 49.8789 578.261 50.0078C578.636 50.1309 578.955 50.333 579.219 50.6143C579.488 50.8955 579.693 51.2617 579.834 51.7129C579.975 52.1582 580.045 52.7061 580.045 53.3564V59.5H577.918V53.3477C577.918 52.8906 577.851 52.5303 577.716 52.2666C577.587 51.9971 577.396 51.8066 577.145 51.6953C576.898 51.5781 576.591 51.5195 576.222 51.5195C575.858 51.5195 575.533 51.5957 575.246 51.748C574.959 51.9004 574.716 52.1084 574.517 52.3721C574.323 52.6357 574.174 52.9404 574.068 53.2861C573.963 53.6318 573.91 54.001 573.91 54.3936ZM585.301 57.8213L587.63 49.9902H589.827L586.522 59.5H585.151L585.301 57.8213ZM583.517 49.9902L585.89 57.8564L586.004 59.5H584.633L581.311 49.9902H583.517ZM593.404 49.9902V59.5H591.277V49.9902H593.404ZM591.137 47.4941C591.137 47.1719 591.242 46.9053 591.453 46.6943C591.67 46.4775 591.969 46.3691 592.35 46.3691C592.725 46.3691 593.021 46.4775 593.237 46.6943C593.454 46.9053 593.562 47.1719 593.562 47.4941C593.562 47.8105 593.454 48.0742 593.237 48.2852C593.021 48.4961 592.725 48.6016 592.35 48.6016C591.969 48.6016 591.67 48.4961 591.453 48.2852C591.242 48.0742 591.137 47.8105 591.137 47.4941ZM600.084 49.9902V51.5371H594.723V49.9902H600.084ZM596.27 47.6611H598.388V56.8721C598.388 57.165 598.429 57.3906 598.511 57.5488C598.599 57.7012 598.719 57.8037 598.871 57.8564C599.023 57.9092 599.202 57.9355 599.407 57.9355C599.554 57.9355 599.694 57.9268 599.829 57.9092C599.964 57.8916 600.072 57.874 600.154 57.8564L600.163 59.4736C599.987 59.5264 599.782 59.5732 599.548 59.6143C599.319 59.6553 599.056 59.6758 598.757 59.6758C598.271 59.6758 597.84 59.5908 597.465 59.4209C597.09 59.2451 596.797 58.9609 596.586 58.5684C596.375 58.1758 596.27 57.6543 596.27 57.0039V47.6611ZM605.911 59.6758C605.208 59.6758 604.572 59.5615 604.004 59.333C603.441 59.0986 602.961 58.7734 602.562 58.3574C602.17 57.9414 601.868 57.4521 601.657 56.8896C601.446 56.3271 601.341 55.7207 601.341 55.0703V54.7188C601.341 53.9746 601.449 53.3008 601.666 52.6973C601.883 52.0938 602.185 51.5781 602.571 51.1504C602.958 50.7168 603.415 50.3857 603.942 50.1572C604.47 49.9287 605.041 49.8145 605.656 49.8145C606.336 49.8145 606.931 49.9287 607.44 50.1572C607.95 50.3857 608.372 50.708 608.706 51.124C609.046 51.5342 609.298 52.0234 609.462 52.5918C609.632 53.1602 609.717 53.7871 609.717 54.4727V55.3779H602.369V53.8574H607.625V53.6904C607.613 53.3096 607.537 52.9521 607.396 52.6182C607.262 52.2842 607.054 52.0146 606.772 51.8096C606.491 51.6045 606.116 51.502 605.647 51.502C605.296 51.502 604.982 51.5781 604.707 51.7305C604.438 51.877 604.212 52.0908 604.03 52.3721C603.849 52.6533 603.708 52.9932 603.608 53.3916C603.515 53.7842 603.468 54.2266 603.468 54.7188V55.0703C603.468 55.4863 603.523 55.873 603.635 56.2305C603.752 56.582 603.922 56.8896 604.145 57.1533C604.367 57.417 604.637 57.625 604.953 57.7773C605.27 57.9238 605.63 57.9971 606.034 57.9971C606.544 57.9971 606.998 57.8945 607.396 57.6895C607.795 57.4844 608.141 57.1943 608.434 56.8193L609.55 57.9004C609.345 58.1992 609.078 58.4863 608.75 58.7617C608.422 59.0312 608.021 59.251 607.546 59.4209C607.077 59.5908 606.532 59.6758 605.911 59.6758ZM618.436 57.3906L620.633 49.9902H621.986L621.617 52.2051L619.402 59.5H618.189L618.436 57.3906ZM617.144 49.9902L618.857 57.4258L618.998 59.5H617.645L615.069 49.9902H617.144ZM624.043 57.3379L625.704 49.9902H627.77L625.203 59.5H623.85L624.043 57.3379ZM622.215 49.9902L624.386 57.3027L624.658 59.5H623.445L621.204 52.1963L620.835 49.9902H622.215ZM631.479 49.9902V59.5H629.352V49.9902H631.479ZM629.211 47.4941C629.211 47.1719 629.316 46.9053 629.527 46.6943C629.744 46.4775 630.043 46.3691 630.424 46.3691C630.799 46.3691 631.095 46.4775 631.312 46.6943C631.528 46.9053 631.637 47.1719 631.637 47.4941C631.637 47.8105 631.528 48.0742 631.312 48.2852C631.095 48.4961 630.799 48.6016 630.424 48.6016C630.043 48.6016 629.744 48.4961 629.527 48.2852C629.316 48.0742 629.211 47.8105 629.211 47.4941ZM638.158 49.9902V51.5371H632.797V49.9902H638.158ZM634.344 47.6611H636.462V56.8721C636.462 57.165 636.503 57.3906 636.585 57.5488C636.673 57.7012 636.793 57.8037 636.945 57.8564C637.098 57.9092 637.276 57.9355 637.481 57.9355C637.628 57.9355 637.769 57.9268 637.903 57.9092C638.038 57.8916 638.146 57.874 638.229 57.8564L638.237 59.4736C638.062 59.5264 637.856 59.5732 637.622 59.6143C637.394 59.6553 637.13 59.6758 636.831 59.6758C636.345 59.6758 635.914 59.5908 635.539 59.4209C635.164 59.2451 634.871 58.9609 634.66 58.5684C634.449 58.1758 634.344 57.6543 634.344 57.0039V47.6611ZM641.885 46V59.5H639.775V46H641.885ZM641.516 54.3936L640.83 54.3848C640.836 53.7285 640.927 53.1221 641.103 52.5654C641.284 52.0088 641.536 51.5254 641.858 51.1152C642.187 50.6992 642.579 50.3799 643.036 50.1572C643.493 49.9287 644 49.8145 644.557 49.8145C645.025 49.8145 645.447 49.8789 645.822 50.0078C646.203 50.1367 646.531 50.3447 646.807 50.6318C647.082 50.9131 647.29 51.2822 647.431 51.7393C647.577 52.1904 647.65 52.7412 647.65 53.3916V59.5H645.523V53.374C645.523 52.917 645.456 52.5537 645.321 52.2842C645.192 52.0146 645.002 51.8213 644.75 51.7041C644.498 51.5811 644.19 51.5195 643.827 51.5195C643.446 51.5195 643.109 51.5957 642.816 51.748C642.529 51.9004 642.289 52.1084 642.096 52.3721C641.902 52.6357 641.756 52.9404 641.656 53.2861C641.562 53.6318 641.516 54.001 641.516 54.3936ZM658.47 59.6758C657.767 59.6758 657.131 59.5615 656.562 59.333C656 59.0986 655.52 58.7734 655.121 58.3574C654.729 57.9414 654.427 57.4521 654.216 56.8896C654.005 56.3271 653.899 55.7207 653.899 55.0703V54.7188C653.899 53.9746 654.008 53.3008 654.225 52.6973C654.441 52.0938 654.743 51.5781 655.13 51.1504C655.517 50.7168 655.974 50.3857 656.501 50.1572C657.028 49.9287 657.6 49.8145 658.215 49.8145C658.895 49.8145 659.489 49.9287 659.999 50.1572C660.509 50.3857 660.931 50.708 661.265 51.124C661.604 51.5342 661.856 52.0234 662.021 52.5918C662.19 53.1602 662.275 53.7871 662.275 54.4727V55.3779H654.928V53.8574H660.184V53.6904C660.172 53.3096 660.096 52.9521 659.955 52.6182C659.82 52.2842 659.612 52.0146 659.331 51.8096C659.05 51.6045 658.675 51.502 658.206 51.502C657.854 51.502 657.541 51.5781 657.266 51.7305C656.996 51.877 656.771 52.0908 656.589 52.3721C656.407 52.6533 656.267 52.9932 656.167 53.3916C656.073 53.7842 656.026 54.2266 656.026 54.7188V55.0703C656.026 55.4863 656.082 55.873 656.193 56.2305C656.311 56.582 656.48 56.8896 656.703 57.1533C656.926 57.417 657.195 57.625 657.512 57.7773C657.828 57.9238 658.188 57.9971 658.593 57.9971C659.103 57.9971 659.557 57.8945 659.955 57.6895C660.354 57.4844 660.699 57.1943 660.992 56.8193L662.108 57.9004C661.903 58.1992 661.637 58.4863 661.309 58.7617C660.98 59.0312 660.579 59.251 660.104 59.4209C659.636 59.5908 659.091 59.6758 658.47 59.6758ZM666.046 51.9238V59.5H663.928V49.9902H665.923L666.046 51.9238ZM665.703 54.3936L664.982 54.3848C664.982 53.7285 665.064 53.1221 665.229 52.5654C665.393 52.0088 665.633 51.5254 665.949 51.1152C666.266 50.6992 666.658 50.3799 667.127 50.1572C667.602 49.9287 668.149 49.8145 668.771 49.8145C669.204 49.8145 669.6 49.8789 669.957 50.0078C670.32 50.1309 670.634 50.3271 670.897 50.5967C671.167 50.8662 671.372 51.2119 671.513 51.6338C671.659 52.0557 671.732 52.5654 671.732 53.1631V59.5H669.614V53.3477C669.614 52.8848 669.544 52.5215 669.403 52.2578C669.269 51.9941 669.072 51.8066 668.814 51.6953C668.562 51.5781 668.261 51.5195 667.909 51.5195C667.511 51.5195 667.171 51.5957 666.89 51.748C666.614 51.9004 666.389 52.1084 666.213 52.3721C666.037 52.6357 665.908 52.9404 665.826 53.2861C665.744 53.6318 665.703 54.001 665.703 54.3936ZM671.601 53.8311L670.607 54.0508C670.607 53.4766 670.687 52.9346 670.845 52.4248C671.009 51.9092 671.246 51.458 671.557 51.0713C671.873 50.6787 672.263 50.3711 672.726 50.1484C673.188 49.9258 673.719 49.8145 674.316 49.8145C674.803 49.8145 675.236 49.8818 675.617 50.0166C676.004 50.1455 676.332 50.3506 676.602 50.6318C676.871 50.9131 677.076 51.2793 677.217 51.7305C677.357 52.1758 677.428 52.7148 677.428 53.3477V59.5H675.301V53.3389C675.301 52.8584 675.23 52.4863 675.09 52.2227C674.955 51.959 674.762 51.7773 674.51 51.6777C674.258 51.5723 673.956 51.5195 673.604 51.5195C673.276 51.5195 672.986 51.5811 672.734 51.7041C672.488 51.8213 672.28 51.9883 672.11 52.2051C671.94 52.416 671.812 52.6592 671.724 52.9346C671.642 53.21 671.601 53.5088 671.601 53.8311ZM684.969 57.5928V53.0576C684.969 52.7178 684.907 52.4248 684.784 52.1787C684.661 51.9326 684.474 51.7422 684.222 51.6074C683.976 51.4727 683.665 51.4053 683.29 51.4053C682.944 51.4053 682.646 51.4639 682.394 51.5811C682.142 51.6982 681.945 51.8564 681.805 52.0557C681.664 52.2549 681.594 52.4805 681.594 52.7324H679.484C679.484 52.3574 679.575 51.9941 679.757 51.6426C679.938 51.291 680.202 50.9775 680.548 50.7021C680.894 50.4268 681.307 50.21 681.787 50.0518C682.268 49.8936 682.807 49.8145 683.404 49.8145C684.119 49.8145 684.752 49.9346 685.303 50.1748C685.859 50.415 686.296 50.7783 686.612 51.2646C686.935 51.7451 687.096 52.3486 687.096 53.0752V57.3027C687.096 57.7363 687.125 58.126 687.184 58.4717C687.248 58.8115 687.339 59.1074 687.456 59.3594V59.5H685.285C685.186 59.2715 685.106 58.9814 685.048 58.6299C684.995 58.2725 684.969 57.9268 684.969 57.5928ZM685.276 53.7168L685.294 55.0264H683.773C683.381 55.0264 683.035 55.0645 682.736 55.1406C682.438 55.2109 682.188 55.3164 681.989 55.457C681.79 55.5977 681.641 55.7676 681.541 55.9668C681.441 56.166 681.392 56.3916 681.392 56.6436C681.392 56.8955 681.45 57.127 681.567 57.3379C681.685 57.543 681.854 57.7041 682.077 57.8213C682.306 57.9385 682.581 57.9971 682.903 57.9971C683.337 57.9971 683.715 57.9092 684.037 57.7334C684.365 57.5518 684.623 57.332 684.811 57.0742C684.998 56.8105 685.098 56.5615 685.109 56.3271L685.795 57.2676C685.725 57.5078 685.604 57.7656 685.435 58.041C685.265 58.3164 685.042 58.5801 684.767 58.832C684.497 59.0781 684.172 59.2803 683.791 59.4385C683.416 59.5967 682.982 59.6758 682.49 59.6758C681.869 59.6758 681.315 59.5527 680.829 59.3066C680.343 59.0547 679.962 58.7178 679.687 58.2959C679.411 57.8682 679.273 57.3848 679.273 56.8457C679.273 56.3418 679.367 55.8965 679.555 55.5098C679.748 55.1172 680.029 54.7891 680.398 54.5254C680.773 54.2617 681.23 54.0625 681.77 53.9277C682.309 53.7871 682.924 53.7168 683.615 53.7168H685.276ZM691.578 49.9902V59.5H689.451V49.9902H691.578ZM689.311 47.4941C689.311 47.1719 689.416 46.9053 689.627 46.6943C689.844 46.4775 690.143 46.3691 690.523 46.3691C690.898 46.3691 691.194 46.4775 691.411 46.6943C691.628 46.9053 691.736 47.1719 691.736 47.4941C691.736 47.8105 691.628 48.0742 691.411 48.2852C691.194 48.4961 690.898 48.6016 690.523 48.6016C690.143 48.6016 689.844 48.4961 689.627 48.2852C689.416 48.0742 689.311 47.8105 689.311 47.4941ZM696.166 46V59.5H694.039V46H696.166Z" fill="#5384ED"/>
<path d="M827 53L817 47.2265L817 58.7735L827 53ZM760.333 53C760.333 50.0545 757.946 47.6666 755 47.6666C752.054 47.6666 749.667 50.0545 749.667 53C749.667 55.9455 752.054 58.3333 755 58.3333C757.946 58.3333 760.333 55.9455 760.333 53ZM818 52L755 52L755 54L818 54L818 52Z" fill="#5384ED"/>
<path d="M935.391 13.4975C938.045 12.5303 940.955 12.5303 943.609 13.4975L1036.53 47.3627C1041.79 49.2799 1041.79 56.7201 1036.53 58.6373L943.609 92.5025C940.955 93.4697 938.045 93.4697 935.391 92.5025L842.468 58.6373C837.208 56.7201 837.208 49.2799 842.468 47.3627L935.391 13.4975Z" fill="url(#paint1_linear_3239_10743)" stroke="#E2EDFD" stroke-width="3"/>
<path d="M855.678 48.9463L852.031 59.8008H849.473L854.254 47.0039H855.889L855.678 48.9463ZM858.728 59.8008L855.063 48.9463L854.843 47.0039H856.487L861.294 59.8008H858.728ZM858.561 55.0459V56.9531H851.697V55.0459H858.561ZM868.141 57.7793V46.3008H870.479V59.8008H868.37L868.141 57.7793ZM862.033 55.1602V54.9756C862.033 54.249 862.115 53.5898 862.279 52.998C862.449 52.4004 862.695 51.8877 863.017 51.46C863.339 51.0322 863.729 50.7012 864.186 50.4668C864.649 50.2324 865.173 50.1152 865.759 50.1152C866.328 50.1152 866.823 50.2295 867.245 50.458C867.672 50.6865 868.036 51.0117 868.334 51.4336C868.639 51.8555 868.882 52.3564 869.064 52.9365C869.246 53.5107 869.377 54.1436 869.459 54.835V55.3359C869.377 56.0098 869.246 56.6279 869.064 57.1904C868.882 57.7529 868.639 58.2451 868.334 58.667C868.036 59.083 867.672 59.4053 867.245 59.6338C866.817 59.8623 866.316 59.9766 865.742 59.9766C865.162 59.9766 864.64 59.8564 864.177 59.6162C863.72 59.376 863.331 59.0391 863.008 58.6055C862.692 58.1719 862.449 57.6621 862.279 57.0762C862.115 56.4902 862.033 55.8516 862.033 55.1602ZM864.362 54.9756V55.1602C864.362 55.5703 864.397 55.9541 864.467 56.3115C864.538 56.6689 864.652 56.9854 864.81 57.2607C864.968 57.5303 865.17 57.7412 865.416 57.8936C865.668 58.0459 865.973 58.1221 866.331 58.1221C866.788 58.1221 867.163 58.0225 867.456 57.8232C867.754 57.6182 867.986 57.3398 868.15 56.9883C868.314 56.6309 868.419 56.2295 868.466 55.7842V54.4043C868.443 54.0527 868.381 53.7275 868.282 53.4287C868.188 53.1299 868.053 52.8721 867.877 52.6553C867.707 52.4385 867.497 52.2686 867.245 52.1455C866.993 52.0225 866.694 51.9609 866.348 51.9609C865.991 51.9609 865.686 52.04 865.434 52.1982C865.182 52.3506 864.977 52.5645 864.819 52.8398C864.661 53.1152 864.543 53.4346 864.467 53.7979C864.397 54.1611 864.362 54.5537 864.362 54.9756ZM878.284 57.7793V46.3008H880.622V59.8008H878.512L878.284 57.7793ZM872.175 55.1602V54.9756C872.175 54.249 872.257 53.5898 872.421 52.998C872.591 52.4004 872.837 51.8877 873.16 51.46C873.482 51.0322 873.872 50.7012 874.329 50.4668C874.791 50.2324 875.316 50.1152 875.902 50.1152C876.47 50.1152 876.965 50.2295 877.387 50.458C877.815 50.6865 878.178 51.0117 878.477 51.4336C878.782 51.8555 879.025 52.3564 879.206 52.9365C879.388 53.5107 879.52 54.1436 879.602 54.835V55.3359C879.52 56.0098 879.388 56.6279 879.206 57.1904C879.025 57.7529 878.782 58.2451 878.477 58.667C878.178 59.083 877.815 59.4053 877.387 59.6338C876.959 59.8623 876.458 59.9766 875.884 59.9766C875.304 59.9766 874.783 59.8564 874.32 59.6162C873.863 59.376 873.473 59.0391 873.151 58.6055C872.834 58.1719 872.591 57.6621 872.421 57.0762C872.257 56.4902 872.175 55.8516 872.175 55.1602ZM874.504 54.9756V55.1602C874.504 55.5703 874.539 55.9541 874.61 56.3115C874.68 56.6689 874.794 56.9854 874.953 57.2607C875.111 57.5303 875.313 57.7412 875.559 57.8936C875.811 58.0459 876.116 58.1221 876.473 58.1221C876.93 58.1221 877.305 58.0225 877.598 57.8232C877.897 57.6182 878.128 57.3398 878.292 56.9883C878.456 56.6309 878.562 56.2295 878.609 55.7842V54.4043C878.585 54.0527 878.524 53.7275 878.424 53.4287C878.331 53.1299 878.196 52.8721 878.02 52.6553C877.85 52.4385 877.639 52.2686 877.387 52.1455C877.135 52.0225 876.836 51.9609 876.491 51.9609C876.133 51.9609 875.829 52.04 875.577 52.1982C875.325 52.3506 875.12 52.5645 874.961 52.8398C874.803 53.1152 874.686 53.4346 874.61 53.7979C874.539 54.1611 874.504 54.5537 874.504 54.9756ZM892.434 57.1992C892.434 57 892.381 56.8213 892.276 56.6631C892.17 56.5049 891.971 56.3613 891.678 56.2324C891.391 56.0977 890.969 55.9717 890.413 55.8545C889.92 55.749 889.466 55.6172 889.05 55.459C888.634 55.3008 888.277 55.1104 887.978 54.8877C887.679 54.6592 887.445 54.3926 887.275 54.0879C887.111 53.7773 887.029 53.4199 887.029 53.0156C887.029 52.623 887.114 52.2539 887.284 51.9082C887.454 51.5566 887.7 51.249 888.022 50.9854C888.344 50.7158 888.737 50.5049 889.2 50.3525C889.663 50.1943 890.184 50.1152 890.764 50.1152C891.573 50.1152 892.267 50.2471 892.847 50.5107C893.433 50.7744 893.881 51.1377 894.192 51.6006C894.502 52.0576 894.658 52.5732 894.658 53.1475H892.337C892.337 52.8955 892.279 52.667 892.162 52.4619C892.05 52.2568 891.877 52.0928 891.643 51.9697C891.409 51.8408 891.113 51.7764 890.755 51.7764C890.433 51.7764 890.161 51.8291 889.938 51.9346C889.721 52.04 889.557 52.1777 889.446 52.3477C889.334 52.5176 889.279 52.7051 889.279 52.9102C889.279 53.0625 889.308 53.2002 889.367 53.3232C889.431 53.4404 889.534 53.5488 889.674 53.6484C889.815 53.748 890.005 53.8389 890.246 53.9209C890.492 54.0029 890.793 54.082 891.151 54.1582C891.86 54.2988 892.478 54.4863 893.005 54.7207C893.539 54.9492 893.955 55.2539 894.253 55.6348C894.552 56.0156 894.702 56.502 894.702 57.0937C894.702 57.5156 894.611 57.9023 894.429 58.2539C894.248 58.5996 893.984 58.9014 893.638 59.1592C893.292 59.417 892.879 59.6191 892.399 59.7656C891.918 59.9062 891.376 59.9766 890.773 59.9766C889.9 59.9766 889.162 59.8213 888.558 59.5107C887.955 59.1943 887.498 58.7959 887.187 58.3154C886.876 57.8291 886.721 57.3252 886.721 56.8037H888.945C888.962 57.1729 889.062 57.4687 889.244 57.6914C889.425 57.9141 889.654 58.0752 889.929 58.1748C890.21 58.2686 890.506 58.3154 890.817 58.3154C891.168 58.3154 891.464 58.2686 891.705 58.1748C891.945 58.0752 892.126 57.9434 892.249 57.7793C892.373 57.6094 892.434 57.416 892.434 57.1992ZM898.789 46.292V59.8008H896.468V46.292H898.789ZM904.748 50.291L900.608 54.9404L898.367 57.2168L897.628 55.415L899.36 53.2354L901.944 50.291H904.748ZM902.374 59.8008L899.43 55.3711L900.977 53.8682L905.064 59.8008H902.374ZM908.439 50.291V59.8008H906.11V50.291H908.439ZM905.952 47.8037C905.952 47.458 906.069 47.1709 906.303 46.9424C906.543 46.7139 906.866 46.5996 907.27 46.5996C907.674 46.5996 907.994 46.7139 908.228 46.9424C908.468 47.1709 908.588 47.458 908.588 47.8037C908.588 48.1436 908.468 48.4277 908.228 48.6562C907.994 48.8848 907.674 48.999 907.27 48.999C906.866 48.999 906.543 48.8848 906.303 48.6562C906.069 48.4277 905.952 48.1436 905.952 47.8037ZM913.115 46.3008V59.8008H910.786V46.3008H913.115ZM917.79 46.3008V59.8008H915.461V46.3008H917.79ZM925.235 57.1992C925.235 57 925.182 56.8213 925.077 56.6631C924.971 56.5049 924.772 56.3613 924.479 56.2324C924.192 56.0977 923.77 55.9717 923.213 55.8545C922.721 55.749 922.267 55.6172 921.851 55.459C921.435 55.3008 921.078 55.1104 920.779 54.8877C920.48 54.6592 920.246 54.3926 920.076 54.0879C919.912 53.7773 919.83 53.4199 919.83 53.0156C919.83 52.623 919.914 52.2539 920.084 51.9082C920.254 51.5566 920.5 51.249 920.823 50.9854C921.145 50.7158 921.538 50.5049 922 50.3525C922.463 50.1943 922.985 50.1152 923.565 50.1152C924.373 50.1152 925.068 50.2471 925.648 50.5107C926.234 50.7744 926.682 51.1377 926.993 51.6006C927.303 52.0576 927.458 52.5732 927.458 53.1475H925.138C925.138 52.8955 925.08 52.667 924.962 52.4619C924.851 52.2568 924.678 52.0928 924.444 51.9697C924.209 51.8408 923.914 51.7764 923.556 51.7764C923.234 51.7764 922.961 51.8291 922.739 51.9346C922.522 52.04 922.358 52.1777 922.247 52.3477C922.135 52.5176 922.08 52.7051 922.08 52.9102C922.08 53.0625 922.109 53.2002 922.167 53.3232C922.232 53.4404 922.334 53.5488 922.475 53.6484C922.616 53.748 922.806 53.8389 923.046 53.9209C923.292 54.0029 923.594 54.082 923.952 54.1582C924.661 54.2988 925.279 54.4863 925.806 54.7207C926.339 54.9492 926.755 55.2539 927.054 55.6348C927.353 56.0156 927.502 56.502 927.502 57.0937C927.502 57.5156 927.412 57.9023 927.23 58.2539C927.048 58.5996 926.785 58.9014 926.439 59.1592C926.093 59.417 925.68 59.6191 925.2 59.7656C924.719 59.9062 924.177 59.9766 923.574 59.9766C922.701 59.9766 921.962 59.8213 921.359 59.5107C920.755 59.1943 920.298 58.7959 919.988 58.3154C919.677 57.8291 919.522 57.3252 919.522 56.8037H921.746C921.763 57.1729 921.863 57.4687 922.044 57.6914C922.226 57.9141 922.455 58.0752 922.73 58.1748C923.011 58.2686 923.307 58.3154 923.618 58.3154C923.969 58.3154 924.265 58.2686 924.505 58.1748C924.746 58.0752 924.927 57.9434 925.05 57.7793C925.173 57.6094 925.235 57.416 925.235 57.1992ZM938.251 50.291V51.9609H932.802V50.291H938.251ZM934.261 47.9531H936.59V57.0586C936.59 57.3398 936.628 57.5566 936.705 57.709C936.781 57.8613 936.895 57.9639 937.047 58.0166C937.2 58.0693 937.381 58.0957 937.592 58.0957C937.745 58.0957 937.885 58.0869 938.014 58.0693C938.143 58.0518 938.251 58.0342 938.339 58.0166L938.348 59.7568C938.155 59.8213 937.935 59.874 937.689 59.915C937.449 59.9561 937.176 59.9766 936.872 59.9766C936.35 59.9766 935.893 59.8887 935.5 59.7129C935.108 59.5312 934.803 59.2412 934.586 58.8428C934.37 58.4385 934.261 57.9053 934.261 57.2432V47.9531ZM939.157 55.1426V54.958C939.157 54.2607 939.256 53.6191 939.456 53.0332C939.655 52.4414 939.945 51.9287 940.326 51.4951C940.706 51.0615 941.172 50.7246 941.723 50.4844C942.274 50.2383 942.901 50.1152 943.604 50.1152C944.319 50.1152 944.952 50.2383 945.502 50.4844C946.059 50.7246 946.528 51.0615 946.909 51.4951C947.289 51.9287 947.58 52.4414 947.779 53.0332C947.978 53.6191 948.078 54.2607 948.078 54.958V55.1426C948.078 55.834 947.978 56.4756 947.779 57.0674C947.58 57.6533 947.289 58.166 946.909 58.6055C946.528 59.0391 946.062 59.376 945.511 59.6162C944.96 59.8564 944.331 59.9766 943.622 59.9766C942.918 59.9766 942.289 59.8564 941.732 59.6162C941.175 59.376 940.706 59.0391 940.326 58.6055C939.945 58.166 939.655 57.6533 939.456 57.0674C939.256 56.4756 939.157 55.834 939.157 55.1426ZM941.477 54.958V55.1426C941.477 55.5586 941.518 55.9482 941.6 56.3115C941.682 56.6748 941.808 56.9941 941.978 57.2695C942.148 57.5449 942.368 57.7617 942.637 57.9199C942.913 58.0723 943.241 58.1484 943.622 58.1484C943.997 58.1484 944.319 58.0723 944.588 57.9199C944.858 57.7617 945.078 57.5449 945.247 57.2695C945.423 56.9941 945.552 56.6748 945.634 56.3115C945.716 55.9482 945.757 55.5586 945.757 55.1426V54.958C945.757 54.5479 945.716 54.1641 945.634 53.8066C945.552 53.4434 945.423 53.124 945.247 52.8486C945.078 52.5674 944.855 52.3477 944.58 52.1895C944.31 52.0254 943.985 51.9434 943.604 51.9434C943.229 51.9434 942.907 52.0254 942.637 52.1895C942.368 52.3477 942.148 52.5674 941.978 52.8486C941.808 53.124 941.682 53.4434 941.6 53.8066C941.518 54.1641 941.477 54.5479 941.477 54.958ZM956.559 52.2422V59.8008H954.239V50.291H956.427L956.559 52.2422ZM956.216 54.7031H955.504C955.504 54.041 955.583 53.4316 955.742 52.875C955.906 52.3184 956.146 51.835 956.462 51.4248C956.779 51.0088 957.168 50.6865 957.631 50.458C958.1 50.2295 958.642 50.1152 959.257 50.1152C959.685 50.1152 960.078 50.1797 960.435 50.3086C960.792 50.4316 961.1 50.6279 961.358 50.8975C961.622 51.1611 961.824 51.5068 961.964 51.9346C962.105 52.3564 962.175 52.8633 962.175 53.4551V59.8008H959.855V53.6924C959.855 53.2471 959.79 52.8984 959.662 52.6465C959.539 52.3945 959.36 52.2187 959.125 52.1191C958.891 52.0137 958.61 51.9609 958.282 51.9609C957.918 51.9609 957.605 52.0342 957.341 52.1807C957.083 52.3213 956.87 52.5176 956.7 52.7695C956.536 53.0215 956.413 53.3115 956.331 53.6396C956.254 53.9678 956.216 54.3223 956.216 54.7031ZM961.999 54.2725L961.041 54.4482C961.047 53.8506 961.129 53.291 961.288 52.7695C961.446 52.2422 961.677 51.7822 961.982 51.3896C962.292 50.9912 962.676 50.6807 963.133 50.458C963.596 50.2295 964.129 50.1152 964.733 50.1152C965.202 50.1152 965.623 50.1826 965.998 50.3174C966.379 50.4463 966.705 50.6543 966.974 50.9414C967.244 51.2227 967.449 51.5889 967.589 52.04C967.736 52.4912 967.809 53.042 967.809 53.6924V59.8008H965.471V53.6836C965.471 53.2207 965.407 52.8662 965.278 52.6201C965.155 52.374 964.976 52.2041 964.742 52.1104C964.507 52.0107 964.232 51.9609 963.915 51.9609C963.593 51.9609 963.312 52.0225 963.072 52.1455C962.837 52.2627 962.638 52.4268 962.474 52.6377C962.316 52.8486 962.196 53.0947 962.114 53.376C962.038 53.6514 961.999 53.9502 961.999 54.2725ZM974.164 59.9766C973.443 59.9766 972.795 59.8594 972.221 59.625C971.647 59.3906 971.158 59.0654 970.753 58.6494C970.355 58.2275 970.047 57.7383 969.83 57.1816C969.62 56.6191 969.514 56.0156 969.514 55.3711V55.0195C969.514 54.2871 969.62 53.6221 969.83 53.0244C970.041 52.4209 970.34 51.9023 970.727 51.4687C971.114 51.0352 971.577 50.7012 972.116 50.4668C972.655 50.2324 973.249 50.1152 973.9 50.1152C974.574 50.1152 975.168 50.2295 975.684 50.458C976.2 50.6807 976.63 50.9971 976.976 51.4072C977.322 51.8174 977.582 52.3096 977.758 52.8838C977.934 53.4521 978.022 54.082 978.022 54.7734V55.749H970.569V54.1494H975.737V53.9736C975.725 53.6045 975.655 53.2676 975.526 52.9629C975.397 52.6523 975.198 52.4062 974.928 52.2246C974.659 52.0371 974.31 51.9434 973.882 51.9434C973.537 51.9434 973.235 52.0195 972.977 52.1719C972.725 52.3184 972.514 52.5293 972.344 52.8047C972.18 53.0742 972.057 53.3965 971.975 53.7715C971.893 54.1465 971.852 54.5625 971.852 55.0195V55.3711C971.852 55.7695 971.905 56.1387 972.01 56.4785C972.122 56.8184 972.283 57.1143 972.494 57.3662C972.71 57.6123 972.968 57.8057 973.267 57.9463C973.572 58.0811 973.917 58.1484 974.304 58.1484C974.79 58.1484 975.23 58.0547 975.622 57.8672C976.021 57.6738 976.367 57.3896 976.66 57.0146L977.829 58.2275C977.629 58.5205 977.36 58.8018 977.02 59.0713C976.686 59.3408 976.282 59.5605 975.807 59.7305C975.332 59.8945 974.785 59.9766 974.164 59.9766ZM981.889 52.2422V59.8008H979.569V50.291H981.757L981.889 52.2422ZM981.546 54.7031H980.834C980.834 54.041 980.914 53.4316 981.072 52.875C981.236 52.3184 981.476 51.835 981.792 51.4248C982.109 51.0088 982.498 50.6865 982.961 50.458C983.43 50.2295 983.972 50.1152 984.587 50.1152C985.015 50.1152 985.408 50.1797 985.765 50.3086C986.122 50.4316 986.43 50.6279 986.688 50.8975C986.952 51.1611 987.154 51.5068 987.294 51.9346C987.435 52.3564 987.505 52.8633 987.505 53.4551V59.8008H985.185V53.6924C985.185 53.2471 985.121 52.8984 984.992 52.6465C984.869 52.3945 984.69 52.2187 984.455 52.1191C984.221 52.0137 983.94 51.9609 983.612 51.9609C983.248 51.9609 982.935 52.0342 982.671 52.1807C982.414 52.3213 982.2 52.5176 982.03 52.7695C981.866 53.0215 981.743 53.3115 981.661 53.6396C981.584 53.9678 981.546 54.3223 981.546 54.7031ZM987.33 54.2725L986.372 54.4482C986.377 53.8506 986.459 53.291 986.618 52.7695C986.776 52.2422 987.007 51.7822 987.312 51.3896C987.622 50.9912 988.006 50.6807 988.463 50.458C988.926 50.2295 989.459 50.1152 990.063 50.1152C990.532 50.1152 990.954 50.1826 991.329 50.3174C991.709 50.4463 992.035 50.6543 992.304 50.9414C992.574 51.2227 992.779 51.5889 992.919 52.04C993.066 52.4912 993.139 53.042 993.139 53.6924V59.8008H990.801V53.6836C990.801 53.2207 990.737 52.8662 990.608 52.6201C990.485 52.374 990.306 52.2041 990.072 52.1104C989.837 52.0107 989.562 51.9609 989.246 51.9609C988.923 51.9609 988.642 52.0225 988.402 52.1455C988.167 52.2627 987.968 52.4268 987.804 52.6377C987.646 52.8486 987.526 53.0947 987.444 53.376C987.368 53.6514 987.33 53.9502 987.33 54.2725ZM995.213 46.3008H997.542V57.7002L997.314 59.8008H995.213V46.3008ZM1003.66 54.9492V55.1338C1003.66 55.8428 1003.58 56.4932 1003.42 57.085C1003.27 57.6768 1003.04 58.1895 1002.73 58.623C1002.42 59.0508 1002.03 59.3848 1001.57 59.625C1001.11 59.8594 1000.57 59.9766 999.959 59.9766C999.373 59.9766 998.864 59.8623 998.43 59.6338C998.002 59.4053 997.642 59.083 997.349 58.667C997.056 58.2451 996.822 57.75 996.646 57.1816C996.47 56.6074 996.338 55.9805 996.25 55.3008V54.7998C996.338 54.1143 996.47 53.4873 996.646 52.9189C996.822 52.3506 997.056 51.8555 997.349 51.4336C997.642 51.0117 998.002 50.6865 998.43 50.458C998.858 50.2295 999.362 50.1152 999.942 50.1152C1000.56 50.1152 1001.1 50.2354 1001.57 50.4756C1002.04 50.71 1002.42 51.0439 1002.73 51.4775C1003.04 51.9053 1003.27 52.415 1003.42 53.0068C1003.58 53.5928 1003.66 54.2402 1003.66 54.9492ZM1001.33 55.1338V54.9492C1001.33 54.5449 1001.3 54.1641 1001.23 53.8066C1001.17 53.4434 1001.06 53.124 1000.92 52.8486C1000.77 52.5732 1000.57 52.3564 1000.32 52.1982C1000.07 52.04 999.751 51.9609 999.371 51.9609C999.007 51.9609 998.697 52.0225 998.439 52.1455C998.187 52.2686 997.976 52.4385 997.806 52.6553C997.642 52.8721 997.513 53.127 997.419 53.4199C997.331 53.7129 997.273 54.0293 997.244 54.3691V55.7402C997.285 56.1914 997.381 56.5986 997.534 56.9619C997.686 57.3193 997.912 57.6035 998.21 57.8145C998.515 58.0254 998.908 58.1309 999.388 58.1309C999.763 58.1309 1000.08 58.0576 1000.33 57.9111C1000.58 57.7588 1000.78 57.5479 1000.93 57.2783C1001.07 57.0029 1001.18 56.6836 1001.23 56.3203C1001.3 55.957 1001.33 55.5615 1001.33 55.1338ZM1009.62 59.9766C1008.9 59.9766 1008.25 59.8594 1007.68 59.625C1007.1 59.3906 1006.61 59.0654 1006.21 58.6494C1005.81 58.2275 1005.5 57.7383 1005.29 57.1816C1005.07 56.6191 1004.97 56.0156 1004.97 55.3711V55.0195C1004.97 54.2871 1005.07 53.6221 1005.29 53.0244C1005.5 52.4209 1005.8 51.9023 1006.18 51.4687C1006.57 51.0352 1007.03 50.7012 1007.57 50.4668C1008.11 50.2324 1008.7 50.1152 1009.35 50.1152C1010.03 50.1152 1010.62 50.2295 1011.14 50.458C1011.65 50.6807 1012.09 50.9971 1012.43 51.4072C1012.78 51.8174 1013.04 52.3096 1013.21 52.8838C1013.39 53.4521 1013.48 54.082 1013.48 54.7734V55.749H1006.02V54.1494H1011.19V53.9736C1011.18 53.6045 1011.11 53.2676 1010.98 52.9629C1010.85 52.6523 1010.65 52.4062 1010.38 52.2246C1010.11 52.0371 1009.77 51.9434 1009.34 51.9434C1008.99 51.9434 1008.69 52.0195 1008.43 52.1719C1008.18 52.3184 1007.97 52.5293 1007.8 52.8047C1007.64 53.0742 1007.51 53.3965 1007.43 53.7715C1007.35 54.1465 1007.31 54.5625 1007.31 55.0195V55.3711C1007.31 55.7695 1007.36 56.1387 1007.47 56.4785C1007.58 56.8184 1007.74 57.1143 1007.95 57.3662C1008.17 57.6123 1008.42 57.8057 1008.72 57.9463C1009.03 58.0811 1009.37 58.1484 1009.76 58.1484C1010.25 58.1484 1010.68 58.0547 1011.08 57.8672C1011.48 57.6738 1011.82 57.3896 1012.11 57.0146L1013.28 58.2275C1013.08 58.5205 1012.81 58.8018 1012.48 59.0713C1012.14 59.3408 1011.74 59.5605 1011.26 59.7305C1010.79 59.8945 1010.24 59.9766 1009.62 59.9766ZM1017.35 52.2334V59.8008H1015.03V50.291H1017.23L1017.35 52.2334ZM1020.24 50.2295L1020.21 52.3916C1020.08 52.3682 1019.93 52.3506 1019.77 52.3389C1019.61 52.3271 1019.46 52.3213 1019.32 52.3213C1018.96 52.3213 1018.65 52.3711 1018.38 52.4707C1018.11 52.5645 1017.89 52.7021 1017.7 52.8838C1017.53 53.0654 1017.39 53.2881 1017.3 53.5518C1017.21 53.8096 1017.15 54.1025 1017.14 54.4307L1016.64 54.3691C1016.64 53.7656 1016.7 53.2061 1016.83 52.6904C1016.95 52.1748 1017.13 51.7236 1017.36 51.3369C1017.6 50.9502 1017.89 50.6514 1018.24 50.4404C1018.6 50.2236 1019.01 50.1152 1019.47 50.1152C1019.6 50.1152 1019.74 50.127 1019.88 50.1504C1020.04 50.168 1020.16 50.1943 1020.24 50.2295ZM1025.65 55.96H1023.55C1023.56 55.4268 1023.6 54.9697 1023.68 54.5889C1023.77 54.208 1023.91 53.8652 1024.11 53.5605C1024.31 53.25 1024.58 52.9336 1024.92 52.6113C1025.19 52.3594 1025.43 52.1221 1025.64 51.8994C1025.86 51.6709 1026.03 51.4336 1026.15 51.1875C1026.27 50.9355 1026.34 50.6514 1026.34 50.335C1026.34 49.9775 1026.28 49.6787 1026.16 49.4385C1026.05 49.1982 1025.88 49.0166 1025.66 48.8936C1025.44 48.7646 1025.17 48.7002 1024.84 48.7002C1024.57 48.7002 1024.32 48.7559 1024.08 48.8672C1023.84 48.9785 1023.64 49.1514 1023.5 49.3857C1023.35 49.6143 1023.27 49.9131 1023.26 50.2822H1020.93C1020.95 49.5146 1021.13 48.876 1021.48 48.3662C1021.82 47.8506 1022.29 47.4668 1022.87 47.2148C1023.46 46.957 1024.11 46.8281 1024.84 46.8281C1025.64 46.8281 1026.33 46.9629 1026.9 47.2324C1027.47 47.4961 1027.91 47.8828 1028.21 48.3926C1028.51 48.9023 1028.66 49.5176 1028.66 50.2383C1028.66 50.7539 1028.56 51.2168 1028.37 51.627C1028.17 52.0312 1027.9 52.4092 1027.57 52.7607C1027.25 53.1123 1026.89 53.4668 1026.51 53.8242C1026.18 54.123 1025.95 54.4424 1025.83 54.7822C1025.72 55.1221 1025.66 55.5146 1025.65 55.96ZM1023.33 58.6934C1023.33 58.3418 1023.45 58.0488 1023.68 57.8145C1023.92 57.5801 1024.24 57.4629 1024.65 57.4629C1025.05 57.4629 1025.37 57.5801 1025.61 57.8145C1025.85 58.0488 1025.97 58.3418 1025.97 58.6934C1025.97 59.0332 1025.85 59.3203 1025.61 59.5547C1025.37 59.7891 1025.05 59.9062 1024.65 59.9062C1024.24 59.9062 1023.92 59.7891 1023.68 59.5547C1023.45 59.3203 1023.33 59.0332 1023.33 58.6934Z" fill="white"/>
<path d="M1124 53L1114 47.2265L1114 58.7735L1124 53ZM1057.33 53C1057.33 50.0545 1054.95 47.6666 1052 47.6666C1049.05 47.6666 1046.67 50.0545 1046.67 53C1046.67 55.9455 1049.05 58.3333 1052 58.3333C1054.95 58.3333 1057.33 55.9455 1057.33 53ZM1115 52L1052 52L1052 54L1115 54L1115 52Z" fill="#5384ED"/>
<rect x="1124" y="30.5" width="246" height="45" rx="8" fill="#E2EDFD"/>
<path d="M1190.66 46.7031V59.5H1188.45V46.7031H1190.66ZM1195.29 52.0205V59.5H1193.17V49.9902H1195.17L1195.29 52.0205ZM1194.91 54.3936L1194.22 54.3848C1194.23 53.7109 1194.32 53.0928 1194.51 52.5303C1194.69 51.9678 1194.95 51.4844 1195.28 51.0801C1195.61 50.6758 1196.01 50.3652 1196.47 50.1484C1196.94 49.9258 1197.45 49.8145 1198.02 49.8145C1198.48 49.8145 1198.89 49.8789 1199.26 50.0078C1199.64 50.1309 1199.96 50.333 1200.22 50.6143C1200.49 50.8955 1200.69 51.2617 1200.83 51.7129C1200.97 52.1582 1201.04 52.7061 1201.04 53.3564V59.5H1198.92V53.3477C1198.92 52.8906 1198.85 52.5303 1198.72 52.2666C1198.59 51.9971 1198.4 51.8066 1198.14 51.6953C1197.9 51.5781 1197.59 51.5195 1197.22 51.5195C1196.86 51.5195 1196.53 51.5957 1196.25 51.748C1195.96 51.9004 1195.72 52.1084 1195.52 52.3721C1195.32 52.6357 1195.17 52.9404 1195.07 53.2861C1194.96 53.6318 1194.91 54.001 1194.91 54.3936ZM1207.57 49.9902V51.5371H1202.21V49.9902H1207.57ZM1203.75 47.6611H1205.87V56.8721C1205.87 57.165 1205.91 57.3906 1205.99 57.5488C1206.08 57.7012 1206.2 57.8037 1206.35 57.8564C1206.51 57.9092 1206.68 57.9355 1206.89 57.9355C1207.04 57.9355 1207.18 57.9268 1207.31 57.9092C1207.45 57.8916 1207.55 57.874 1207.64 57.8564L1207.65 59.4736C1207.47 59.5264 1207.26 59.5732 1207.03 59.6143C1206.8 59.6553 1206.54 59.6758 1206.24 59.6758C1205.75 59.6758 1205.32 59.5908 1204.95 59.4209C1204.57 59.2451 1204.28 58.9609 1204.07 58.5684C1203.86 58.1758 1203.75 57.6543 1203.75 57.0039V47.6611ZM1213.39 59.6758C1212.69 59.6758 1212.05 59.5615 1211.49 59.333C1210.92 59.0986 1210.44 58.7734 1210.04 58.3574C1209.65 57.9414 1209.35 57.4521 1209.14 56.8896C1208.93 56.3271 1208.82 55.7207 1208.82 55.0703V54.7188C1208.82 53.9746 1208.93 53.3008 1209.15 52.6973C1209.37 52.0938 1209.67 51.5781 1210.05 51.1504C1210.44 50.7168 1210.9 50.3857 1211.42 50.1572C1211.95 49.9287 1212.52 49.8145 1213.14 49.8145C1213.82 49.8145 1214.41 49.9287 1214.92 50.1572C1215.43 50.3857 1215.85 50.708 1216.19 51.124C1216.53 51.5342 1216.78 52.0234 1216.94 52.5918C1217.11 53.1602 1217.2 53.7871 1217.2 54.4727V55.3779H1209.85V53.8574H1215.11V53.6904C1215.1 53.3096 1215.02 52.9521 1214.88 52.6182C1214.74 52.2842 1214.54 52.0146 1214.25 51.8096C1213.97 51.6045 1213.6 51.502 1213.13 51.502C1212.78 51.502 1212.46 51.5781 1212.19 51.7305C1211.92 51.877 1211.69 52.0908 1211.51 52.3721C1211.33 52.6533 1211.19 52.9932 1211.09 53.3916C1211 53.7842 1210.95 54.2266 1210.95 54.7188V55.0703C1210.95 55.4863 1211.01 55.873 1211.12 56.2305C1211.23 56.582 1211.4 56.8896 1211.63 57.1533C1211.85 57.417 1212.12 57.625 1212.44 57.7773C1212.75 57.9238 1213.11 57.9971 1213.52 57.9971C1214.03 57.9971 1214.48 57.8945 1214.88 57.6895C1215.28 57.4844 1215.62 57.1943 1215.92 56.8193L1217.03 57.9004C1216.83 58.1992 1216.56 58.4863 1216.23 58.7617C1215.9 59.0312 1215.5 59.251 1215.03 59.4209C1214.56 59.5908 1214.01 59.6758 1213.39 59.6758ZM1220.98 51.8008V59.5H1218.86V49.9902H1220.88L1220.98 51.8008ZM1223.89 49.9287L1223.87 51.8975C1223.74 51.874 1223.6 51.8564 1223.45 51.8447C1223.3 51.833 1223.16 51.8271 1223.01 51.8271C1222.65 51.8271 1222.33 51.8799 1222.05 51.9854C1221.78 52.085 1221.54 52.2314 1221.36 52.4248C1221.17 52.6123 1221.03 52.8408 1220.93 53.1104C1220.83 53.3799 1220.78 53.6816 1220.76 54.0156L1220.28 54.0508C1220.28 53.4531 1220.33 52.8994 1220.45 52.3896C1220.57 51.8799 1220.74 51.4316 1220.98 51.0449C1221.22 50.6582 1221.52 50.3564 1221.88 50.1396C1222.24 49.9229 1222.66 49.8145 1223.13 49.8145C1223.26 49.8145 1223.4 49.8262 1223.54 49.8496C1223.7 49.873 1223.81 49.8994 1223.89 49.9287ZM1228.47 57.8213L1230.8 49.9902H1232.99L1229.69 59.5H1228.32L1228.47 57.8213ZM1226.68 49.9902L1229.06 57.8564L1229.17 59.5H1227.8L1224.48 49.9902H1226.68ZM1236.57 49.9902V59.5H1234.44V49.9902H1236.57ZM1234.3 47.4941C1234.3 47.1719 1234.41 46.9053 1234.62 46.6943C1234.84 46.4775 1235.13 46.3691 1235.52 46.3691C1235.89 46.3691 1236.19 46.4775 1236.4 46.6943C1236.62 46.9053 1236.73 47.1719 1236.73 47.4941C1236.73 47.8105 1236.62 48.0742 1236.4 48.2852C1236.19 48.4961 1235.89 48.6016 1235.52 48.6016C1235.13 48.6016 1234.84 48.4961 1234.62 48.2852C1234.41 48.0742 1234.3 47.8105 1234.3 47.4941ZM1243.08 59.6758C1242.38 59.6758 1241.74 59.5615 1241.18 59.333C1240.61 59.0986 1240.13 58.7734 1239.73 58.3574C1239.34 57.9414 1239.04 57.4521 1238.83 56.8896C1238.62 56.3271 1238.51 55.7207 1238.51 55.0703V54.7188C1238.51 53.9746 1238.62 53.3008 1238.84 52.6973C1239.05 52.0938 1239.36 51.5781 1239.74 51.1504C1240.13 50.7168 1240.59 50.3857 1241.11 50.1572C1241.64 49.9287 1242.21 49.8145 1242.83 49.8145C1243.51 49.8145 1244.1 49.9287 1244.61 50.1572C1245.12 50.3857 1245.54 50.708 1245.88 51.124C1246.22 51.5342 1246.47 52.0234 1246.63 52.5918C1246.8 53.1602 1246.89 53.7871 1246.89 54.4727V55.3779H1239.54V53.8574H1244.8V53.6904C1244.79 53.3096 1244.71 52.9521 1244.57 52.6182C1244.43 52.2842 1244.23 52.0146 1243.94 51.8096C1243.66 51.6045 1243.29 51.502 1242.82 51.502C1242.47 51.502 1242.15 51.5781 1241.88 51.7305C1241.61 51.877 1241.38 52.0908 1241.2 52.3721C1241.02 52.6533 1240.88 52.9932 1240.78 53.3916C1240.69 53.7842 1240.64 54.2266 1240.64 54.7188V55.0703C1240.64 55.4863 1240.7 55.873 1240.81 56.2305C1240.92 56.582 1241.09 56.8896 1241.32 57.1533C1241.54 57.417 1241.81 57.625 1242.12 57.7773C1242.44 57.9238 1242.8 57.9971 1243.21 57.9971C1243.72 57.9971 1244.17 57.8945 1244.57 57.6895C1244.97 57.4844 1245.31 57.1943 1245.61 56.8193L1246.72 57.9004C1246.52 58.1992 1246.25 58.4863 1245.92 58.7617C1245.59 59.0312 1245.19 59.251 1244.72 59.4209C1244.25 59.5908 1243.7 59.6758 1243.08 59.6758ZM1251.12 57.3906L1253.32 49.9902H1254.68L1254.31 52.2051L1252.09 59.5H1250.88L1251.12 57.3906ZM1249.83 49.9902L1251.55 57.4258L1251.69 59.5H1250.33L1247.76 49.9902H1249.83ZM1256.73 57.3379L1258.39 49.9902H1260.46L1257.89 59.5H1256.54L1256.73 57.3379ZM1254.9 49.9902L1257.08 57.3027L1257.35 59.5H1256.13L1253.89 52.1963L1253.52 49.9902H1254.9ZM1271.72 56.9248C1271.72 56.7139 1271.67 56.5234 1271.56 56.3535C1271.45 56.1777 1271.25 56.0195 1270.95 55.8789C1270.66 55.7383 1270.23 55.6094 1269.65 55.4922C1269.15 55.3809 1268.69 55.249 1268.26 55.0967C1267.85 54.9385 1267.49 54.748 1267.19 54.5254C1266.89 54.3027 1266.66 54.0391 1266.5 53.7344C1266.33 53.4297 1266.25 53.0781 1266.25 52.6797C1266.25 52.293 1266.34 51.9268 1266.51 51.5811C1266.68 51.2354 1266.92 50.9307 1267.24 50.667C1267.55 50.4033 1267.94 50.1953 1268.39 50.043C1268.84 49.8906 1269.35 49.8145 1269.92 49.8145C1270.71 49.8145 1271.4 49.9492 1271.96 50.2188C1272.54 50.4824 1272.98 50.8428 1273.28 51.2998C1273.59 51.751 1273.74 52.2607 1273.74 52.8291H1271.62C1271.62 52.5771 1271.56 52.3428 1271.43 52.126C1271.3 51.9033 1271.12 51.7246 1270.87 51.5898C1270.61 51.4492 1270.3 51.3789 1269.92 51.3789C1269.55 51.3789 1269.25 51.4375 1269.01 51.5547C1268.78 51.666 1268.6 51.8125 1268.48 51.9941C1268.37 52.1758 1268.32 52.375 1268.32 52.5918C1268.32 52.75 1268.35 52.8936 1268.4 53.0225C1268.47 53.1455 1268.57 53.2598 1268.72 53.3652C1268.87 53.4648 1269.07 53.5586 1269.32 53.6465C1269.58 53.7344 1269.9 53.8193 1270.29 53.9014C1271.01 54.0537 1271.64 54.25 1272.16 54.4902C1272.68 54.7246 1273.09 55.0293 1273.37 55.4043C1273.65 55.7734 1273.79 56.2422 1273.79 56.8105C1273.79 57.2324 1273.7 57.6191 1273.52 57.9707C1273.34 58.3164 1273.09 58.6182 1272.75 58.876C1272.41 59.1279 1272 59.3242 1271.52 59.4648C1271.06 59.6055 1270.53 59.6758 1269.94 59.6758C1269.08 59.6758 1268.35 59.5234 1267.75 59.2188C1267.16 58.9082 1266.7 58.5127 1266.39 58.0322C1266.09 57.5459 1265.93 57.042 1265.93 56.5205H1267.98C1268.01 56.9131 1268.11 57.2266 1268.31 57.4609C1268.51 57.6895 1268.75 57.8564 1269.05 57.9619C1269.34 58.0615 1269.65 58.1113 1269.97 58.1113C1270.35 58.1113 1270.67 58.0615 1270.93 57.9619C1271.18 57.8564 1271.38 57.7158 1271.52 57.54C1271.65 57.3584 1271.72 57.1533 1271.72 56.9248ZM1277.78 46V59.5H1275.66V46H1277.78ZM1283.69 49.9902L1279.55 54.5781L1277.28 56.8984L1276.73 55.1055L1278.44 52.9873L1281.13 49.9902H1283.69ZM1281.59 59.5L1278.5 55.0352L1279.84 53.5498L1284.04 59.5H1281.59ZM1287.3 49.9902V59.5H1285.17V49.9902H1287.3ZM1285.03 47.4941C1285.03 47.1719 1285.14 46.9053 1285.35 46.6943C1285.57 46.4775 1285.87 46.3691 1286.25 46.3691C1286.62 46.3691 1286.92 46.4775 1287.13 46.6943C1287.35 46.9053 1287.46 47.1719 1287.46 47.4941C1287.46 47.8105 1287.35 48.0742 1287.13 48.2852C1286.92 48.4961 1286.62 48.6016 1286.25 48.6016C1285.87 48.6016 1285.57 48.4961 1285.35 48.2852C1285.14 48.0742 1285.03 47.8105 1285.03 47.4941ZM1291.89 46V59.5H1289.76V46H1291.89ZM1296.48 46V59.5H1294.35V46H1296.48ZM1304.13 56.9248C1304.13 56.7139 1304.08 56.5234 1303.97 56.3535C1303.87 56.1777 1303.67 56.0195 1303.37 55.8789C1303.07 55.7383 1302.64 55.6094 1302.07 55.4922C1301.56 55.3809 1301.1 55.249 1300.68 55.0967C1300.26 54.9385 1299.9 54.748 1299.61 54.5254C1299.31 54.3027 1299.08 54.0391 1298.91 53.7344C1298.75 53.4297 1298.67 53.0781 1298.67 52.6797C1298.67 52.293 1298.75 51.9268 1298.92 51.5811C1299.09 51.2354 1299.33 50.9307 1299.65 50.667C1299.97 50.4033 1300.35 50.1953 1300.8 50.043C1301.26 49.8906 1301.77 49.8145 1302.33 49.8145C1303.13 49.8145 1303.81 49.9492 1304.38 50.2188C1304.95 50.4824 1305.39 50.8428 1305.7 51.2998C1306 51.751 1306.15 52.2607 1306.15 52.8291H1304.04C1304.04 52.5771 1303.97 52.3428 1303.84 52.126C1303.72 51.9033 1303.53 51.7246 1303.28 51.5898C1303.03 51.4492 1302.71 51.3789 1302.33 51.3789C1301.97 51.3789 1301.67 51.4375 1301.42 51.5547C1301.19 51.666 1301.01 51.8125 1300.9 51.9941C1300.79 52.1758 1300.73 52.375 1300.73 52.5918C1300.73 52.75 1300.76 52.8936 1300.82 53.0225C1300.88 53.1455 1300.99 53.2598 1301.13 53.3652C1301.28 53.4648 1301.48 53.5586 1301.73 53.6465C1301.99 53.7344 1302.31 53.8193 1302.7 53.9014C1303.43 54.0537 1304.05 54.25 1304.57 54.4902C1305.1 54.7246 1305.5 55.0293 1305.78 55.4043C1306.07 55.7734 1306.21 56.2422 1306.21 56.8105C1306.21 57.2324 1306.12 57.6191 1305.93 57.9707C1305.76 58.3164 1305.5 58.6182 1305.16 58.876C1304.82 59.1279 1304.41 59.3242 1303.94 59.4648C1303.47 59.6055 1302.94 59.6758 1302.36 59.6758C1301.5 59.6758 1300.77 59.5234 1300.17 59.2188C1299.57 58.9082 1299.12 58.5127 1298.81 58.0322C1298.5 57.5459 1298.35 57.042 1298.35 56.5205H1300.4C1300.42 56.9131 1300.53 57.2266 1300.72 57.4609C1300.92 57.6895 1301.17 57.8564 1301.46 57.9619C1301.76 58.0615 1302.07 58.1113 1302.38 58.1113C1302.76 58.1113 1303.08 58.0615 1303.34 57.9619C1303.6 57.8564 1303.79 57.7158 1303.93 57.54C1304.06 57.3584 1304.13 57.1533 1304.13 56.9248Z" fill="#5384ED"/>
<path d="M1442 53L1432 47.2265L1432 58.7735L1442 53ZM1375.33 53C1375.33 50.0545 1372.95 47.6666 1370 47.6666C1367.05 47.6666 1364.67 50.0545 1364.67 53C1364.67 55.9455 1367.05 58.3333 1370 58.3333C1372.95 58.3333 1375.33 55.9455 1375.33 53ZM1433 52L1370 52L1370 54L1433 54L1433 52Z" fill="#5384ED"/>
<rect x="1443.5" y="28" width="107" height="50" rx="25" fill="#F6F9FE"/>
<path d="M1480.57 46.7031V59.5H1478.38V46.7031H1480.57ZM1484.58 46.7031V48.4609H1474.4V46.7031H1484.58ZM1489.41 59.6758C1488.7 59.6758 1488.07 59.5615 1487.5 59.333C1486.94 59.0986 1486.46 58.7734 1486.06 58.3574C1485.67 57.9414 1485.36 57.4521 1485.15 56.8896C1484.94 56.3271 1484.84 55.7207 1484.84 55.0703V54.7188C1484.84 53.9746 1484.95 53.3008 1485.16 52.6973C1485.38 52.0938 1485.68 51.5781 1486.07 51.1504C1486.45 50.7168 1486.91 50.3857 1487.44 50.1572C1487.97 49.9287 1488.54 49.8145 1489.15 49.8145C1489.83 49.8145 1490.43 49.9287 1490.94 50.1572C1491.45 50.3857 1491.87 50.708 1492.2 51.124C1492.54 51.5342 1492.79 52.0234 1492.96 52.5918C1493.13 53.1602 1493.21 53.7871 1493.21 54.4727V55.3779H1485.87V53.8574H1491.12V53.6904C1491.11 53.3096 1491.03 52.9521 1490.89 52.6182C1490.76 52.2842 1490.55 52.0146 1490.27 51.8096C1489.99 51.6045 1489.61 51.502 1489.14 51.502C1488.79 51.502 1488.48 51.5781 1488.2 51.7305C1487.93 51.877 1487.71 52.0908 1487.53 52.3721C1487.34 52.6533 1487.2 52.9932 1487.1 53.3916C1487.01 53.7842 1486.96 54.2266 1486.96 54.7188V55.0703C1486.96 55.4863 1487.02 55.873 1487.13 56.2305C1487.25 56.582 1487.42 56.8896 1487.64 57.1533C1487.86 57.417 1488.13 57.625 1488.45 57.7773C1488.77 57.9238 1489.13 57.9971 1489.53 57.9971C1490.04 57.9971 1490.49 57.8945 1490.89 57.6895C1491.29 57.4844 1491.64 57.1943 1491.93 56.8193L1493.05 57.9004C1492.84 58.1992 1492.57 58.4863 1492.25 58.7617C1491.92 59.0312 1491.52 59.251 1491.04 59.4209C1490.57 59.5908 1490.03 59.6758 1489.41 59.6758ZM1500.23 57.5928V53.0576C1500.23 52.7178 1500.17 52.4248 1500.04 52.1787C1499.92 51.9326 1499.73 51.7422 1499.48 51.6074C1499.23 51.4727 1498.92 51.4053 1498.55 51.4053C1498.2 51.4053 1497.9 51.4639 1497.65 51.5811C1497.4 51.6982 1497.2 51.8564 1497.06 52.0557C1496.92 52.2549 1496.85 52.4805 1496.85 52.7324H1494.74C1494.74 52.3574 1494.83 51.9941 1495.01 51.6426C1495.2 51.291 1495.46 50.9775 1495.81 50.7021C1496.15 50.4268 1496.56 50.21 1497.04 50.0518C1497.53 49.8936 1498.06 49.8145 1498.66 49.8145C1499.38 49.8145 1500.01 49.9346 1500.56 50.1748C1501.12 50.415 1501.55 50.7783 1501.87 51.2646C1502.19 51.7451 1502.35 52.3486 1502.35 53.0752V57.3027C1502.35 57.7363 1502.38 58.126 1502.44 58.4717C1502.51 58.8115 1502.6 59.1074 1502.71 59.3594V59.5H1500.54C1500.44 59.2715 1500.36 58.9814 1500.31 58.6299C1500.25 58.2725 1500.23 57.9268 1500.23 57.5928ZM1500.53 53.7168L1500.55 55.0264H1499.03C1498.64 55.0264 1498.29 55.0645 1497.99 55.1406C1497.7 55.2109 1497.45 55.3164 1497.25 55.457C1497.05 55.5977 1496.9 55.7676 1496.8 55.9668C1496.7 56.166 1496.65 56.3916 1496.65 56.6436C1496.65 56.8955 1496.71 57.127 1496.83 57.3379C1496.94 57.543 1497.11 57.7041 1497.33 57.8213C1497.56 57.9385 1497.84 57.9971 1498.16 57.9971C1498.59 57.9971 1498.97 57.9092 1499.29 57.7334C1499.62 57.5518 1499.88 57.332 1500.07 57.0742C1500.26 56.8105 1500.36 56.5615 1500.37 56.3271L1501.05 57.2676C1500.98 57.5078 1500.86 57.7656 1500.69 58.041C1500.52 58.3164 1500.3 58.5801 1500.02 58.832C1499.75 59.0781 1499.43 59.2803 1499.05 59.4385C1498.67 59.5967 1498.24 59.6758 1497.75 59.6758C1497.13 59.6758 1496.57 59.5527 1496.09 59.3066C1495.6 59.0547 1495.22 58.7178 1494.94 58.2959C1494.67 57.8682 1494.53 57.3848 1494.53 56.8457C1494.53 56.3418 1494.62 55.8965 1494.81 55.5098C1495.01 55.1172 1495.29 54.7891 1495.66 54.5254C1496.03 54.2617 1496.49 54.0625 1497.03 53.9277C1497.57 53.7871 1498.18 53.7168 1498.87 53.7168H1500.53ZM1506.69 51.9238V59.5H1504.57V49.9902H1506.56L1506.69 51.9238ZM1506.34 54.3936L1505.62 54.3848C1505.62 53.7285 1505.71 53.1221 1505.87 52.5654C1506.03 52.0088 1506.27 51.5254 1506.59 51.1152C1506.91 50.6992 1507.3 50.3799 1507.77 50.1572C1508.24 49.9287 1508.79 49.8145 1509.41 49.8145C1509.84 49.8145 1510.24 49.8789 1510.6 50.0078C1510.96 50.1309 1511.27 50.3271 1511.54 50.5967C1511.81 50.8662 1512.01 51.2119 1512.15 51.6338C1512.3 52.0557 1512.37 52.5654 1512.37 53.1631V59.5H1510.25V53.3477C1510.25 52.8848 1510.18 52.5215 1510.04 52.2578C1509.91 51.9941 1509.71 51.8066 1509.46 51.6953C1509.2 51.5781 1508.9 51.5195 1508.55 51.5195C1508.15 51.5195 1507.81 51.5957 1507.53 51.748C1507.25 51.9004 1507.03 52.1084 1506.85 52.3721C1506.68 52.6357 1506.55 52.9404 1506.47 53.2861C1506.38 53.6318 1506.34 54.001 1506.34 54.3936ZM1512.24 53.8311L1511.25 54.0508C1511.25 53.4766 1511.33 52.9346 1511.49 52.4248C1511.65 51.9092 1511.89 51.458 1512.2 51.0713C1512.51 50.6787 1512.9 50.3711 1513.37 50.1484C1513.83 49.9258 1514.36 49.8145 1514.96 49.8145C1515.44 49.8145 1515.88 49.8818 1516.26 50.0166C1516.64 50.1455 1516.97 50.3506 1517.24 50.6318C1517.51 50.9131 1517.72 51.2793 1517.86 51.7305C1518 52.1758 1518.07 52.7148 1518.07 53.3477V59.5H1515.94V53.3389C1515.94 52.8584 1515.87 52.4863 1515.73 52.2227C1515.6 51.959 1515.4 51.7773 1515.15 51.6777C1514.9 51.5723 1514.6 51.5195 1514.25 51.5195C1513.92 51.5195 1513.63 51.5811 1513.38 51.7041C1513.13 51.8213 1512.92 51.9883 1512.75 52.2051C1512.58 52.416 1512.45 52.6592 1512.36 52.9346C1512.28 53.21 1512.24 53.5088 1512.24 53.8311Z" fill="#5384ED"/>
<rect x="1443.5" y="28" width="107" height="50" rx="25" stroke="#5384ED" stroke-width="3"/>
<rect x="509" y="108" width="246" height="45" rx="8" fill="#E2EDFD"/>
<path d="M574.033 133.704C574.033 133.44 573.992 133.206 573.91 133.001C573.834 132.796 573.696 132.608 573.497 132.438C573.298 132.269 573.017 132.104 572.653 131.946C572.296 131.782 571.839 131.615 571.282 131.445C570.673 131.258 570.11 131.05 569.595 130.821C569.085 130.587 568.64 130.317 568.259 130.013C567.878 129.702 567.582 129.348 567.371 128.949C567.16 128.545 567.055 128.079 567.055 127.552C567.055 127.03 567.163 126.556 567.38 126.128C567.603 125.7 567.916 125.331 568.32 125.021C568.73 124.704 569.214 124.461 569.771 124.291C570.327 124.115 570.942 124.027 571.616 124.027C572.565 124.027 573.383 124.203 574.068 124.555C574.76 124.906 575.29 125.378 575.659 125.97C576.034 126.562 576.222 127.215 576.222 127.93H574.033C574.033 127.508 573.942 127.136 573.761 126.813C573.585 126.485 573.315 126.228 572.952 126.04C572.595 125.853 572.141 125.759 571.59 125.759C571.068 125.759 570.635 125.838 570.289 125.996C569.943 126.154 569.686 126.368 569.516 126.638C569.346 126.907 569.261 127.212 569.261 127.552C569.261 127.792 569.316 128.012 569.428 128.211C569.539 128.404 569.709 128.586 569.938 128.756C570.166 128.92 570.453 129.075 570.799 129.222C571.145 129.368 571.552 129.509 572.021 129.644C572.729 129.854 573.348 130.089 573.875 130.347C574.402 130.599 574.842 130.886 575.193 131.208C575.545 131.53 575.809 131.896 575.984 132.307C576.16 132.711 576.248 133.171 576.248 133.687C576.248 134.226 576.14 134.712 575.923 135.146C575.706 135.573 575.396 135.939 574.991 136.244C574.593 136.543 574.112 136.774 573.55 136.938C572.993 137.097 572.372 137.176 571.687 137.176C571.071 137.176 570.465 137.094 569.867 136.93C569.275 136.766 568.736 136.517 568.25 136.183C567.764 135.843 567.377 135.421 567.09 134.917C566.803 134.407 566.659 133.812 566.659 133.133H568.865C568.865 133.549 568.936 133.903 569.076 134.196C569.223 134.489 569.425 134.729 569.683 134.917C569.94 135.099 570.239 135.233 570.579 135.321C570.925 135.409 571.294 135.453 571.687 135.453C572.202 135.453 572.633 135.38 572.979 135.233C573.33 135.087 573.594 134.882 573.77 134.618C573.945 134.354 574.033 134.05 574.033 133.704ZM582.181 137.176C581.478 137.176 580.842 137.062 580.273 136.833C579.711 136.599 579.23 136.273 578.832 135.857C578.439 135.441 578.138 134.952 577.927 134.39C577.716 133.827 577.61 133.221 577.61 132.57V132.219C577.61 131.475 577.719 130.801 577.936 130.197C578.152 129.594 578.454 129.078 578.841 128.65C579.228 128.217 579.685 127.886 580.212 127.657C580.739 127.429 581.311 127.314 581.926 127.314C582.605 127.314 583.2 127.429 583.71 127.657C584.22 127.886 584.642 128.208 584.976 128.624C585.315 129.034 585.567 129.523 585.731 130.092C585.901 130.66 585.986 131.287 585.986 131.973V132.878H578.639V131.357H583.895V131.19C583.883 130.81 583.807 130.452 583.666 130.118C583.531 129.784 583.323 129.515 583.042 129.31C582.761 129.104 582.386 129.002 581.917 129.002C581.565 129.002 581.252 129.078 580.977 129.23C580.707 129.377 580.481 129.591 580.3 129.872C580.118 130.153 579.978 130.493 579.878 130.892C579.784 131.284 579.737 131.727 579.737 132.219V132.57C579.737 132.986 579.793 133.373 579.904 133.73C580.021 134.082 580.191 134.39 580.414 134.653C580.637 134.917 580.906 135.125 581.223 135.277C581.539 135.424 581.899 135.497 582.304 135.497C582.813 135.497 583.268 135.395 583.666 135.189C584.064 134.984 584.41 134.694 584.703 134.319L585.819 135.4C585.614 135.699 585.348 135.986 585.02 136.262C584.691 136.531 584.29 136.751 583.815 136.921C583.347 137.091 582.802 137.176 582.181 137.176ZM589.906 123.5V137H587.779V123.5H589.906ZM596.419 137.176C595.716 137.176 595.08 137.062 594.512 136.833C593.949 136.599 593.469 136.273 593.07 135.857C592.678 135.441 592.376 134.952 592.165 134.39C591.954 133.827 591.849 133.221 591.849 132.57V132.219C591.849 131.475 591.957 130.801 592.174 130.197C592.391 129.594 592.692 129.078 593.079 128.65C593.466 128.217 593.923 127.886 594.45 127.657C594.978 127.429 595.549 127.314 596.164 127.314C596.844 127.314 597.438 127.429 597.948 127.657C598.458 127.886 598.88 128.208 599.214 128.624C599.554 129.034 599.806 129.523 599.97 130.092C600.14 130.66 600.225 131.287 600.225 131.973V132.878H592.877V131.357H598.133V131.19C598.121 130.81 598.045 130.452 597.904 130.118C597.77 129.784 597.562 129.515 597.28 129.31C596.999 129.104 596.624 129.002 596.155 129.002C595.804 129.002 595.49 129.078 595.215 129.23C594.945 129.377 594.72 129.591 594.538 129.872C594.356 130.153 594.216 130.493 594.116 130.892C594.022 131.284 593.976 131.727 593.976 132.219V132.57C593.976 132.986 594.031 133.373 594.143 133.73C594.26 134.082 594.43 134.39 594.652 134.653C594.875 134.917 595.145 135.125 595.461 135.277C595.777 135.424 596.138 135.497 596.542 135.497C597.052 135.497 597.506 135.395 597.904 135.189C598.303 134.984 598.648 134.694 598.941 134.319L600.058 135.4C599.853 135.699 599.586 135.986 599.258 136.262C598.93 136.531 598.528 136.751 598.054 136.921C597.585 137.091 597.04 137.176 596.419 137.176ZM605.762 135.488C606.107 135.488 606.418 135.421 606.693 135.286C606.975 135.146 607.2 134.952 607.37 134.706C607.546 134.46 607.643 134.176 607.66 133.854H609.655C609.644 134.469 609.462 135.028 609.11 135.532C608.759 136.036 608.293 136.438 607.713 136.736C607.133 137.029 606.491 137.176 605.788 137.176C605.062 137.176 604.429 137.053 603.89 136.807C603.351 136.555 602.902 136.209 602.545 135.77C602.188 135.33 601.918 134.823 601.736 134.249C601.561 133.675 601.473 133.06 601.473 132.403V132.096C601.473 131.439 601.561 130.824 601.736 130.25C601.918 129.67 602.188 129.16 602.545 128.721C602.902 128.281 603.351 127.938 603.89 127.692C604.429 127.44 605.059 127.314 605.779 127.314C606.541 127.314 607.209 127.467 607.783 127.771C608.357 128.07 608.809 128.489 609.137 129.028C609.471 129.562 609.644 130.183 609.655 130.892H607.66C607.643 130.54 607.555 130.224 607.396 129.942C607.244 129.655 607.027 129.427 606.746 129.257C606.471 129.087 606.14 129.002 605.753 129.002C605.325 129.002 604.971 129.09 604.689 129.266C604.408 129.436 604.188 129.67 604.03 129.969C603.872 130.262 603.758 130.593 603.688 130.962C603.623 131.325 603.591 131.703 603.591 132.096V132.403C603.591 132.796 603.623 133.177 603.688 133.546C603.752 133.915 603.863 134.246 604.021 134.539C604.186 134.826 604.408 135.058 604.689 135.233C604.971 135.403 605.328 135.488 605.762 135.488ZM615.641 127.49V129.037H610.279V127.49H615.641ZM611.826 125.161H613.944V134.372C613.944 134.665 613.985 134.891 614.067 135.049C614.155 135.201 614.275 135.304 614.428 135.356C614.58 135.409 614.759 135.436 614.964 135.436C615.11 135.436 615.251 135.427 615.386 135.409C615.521 135.392 615.629 135.374 615.711 135.356L615.72 136.974C615.544 137.026 615.339 137.073 615.104 137.114C614.876 137.155 614.612 137.176 614.313 137.176C613.827 137.176 613.396 137.091 613.021 136.921C612.646 136.745 612.354 136.461 612.143 136.068C611.932 135.676 611.826 135.154 611.826 134.504V125.161ZM623.876 129.424V137H621.758V127.49H623.753L623.876 129.424ZM623.533 131.894L622.812 131.885C622.812 131.229 622.895 130.622 623.059 130.065C623.223 129.509 623.463 129.025 623.779 128.615C624.096 128.199 624.488 127.88 624.957 127.657C625.432 127.429 625.979 127.314 626.601 127.314C627.034 127.314 627.43 127.379 627.787 127.508C628.15 127.631 628.464 127.827 628.728 128.097C628.997 128.366 629.202 128.712 629.343 129.134C629.489 129.556 629.562 130.065 629.562 130.663V137H627.444V130.848C627.444 130.385 627.374 130.021 627.233 129.758C627.099 129.494 626.902 129.307 626.645 129.195C626.393 129.078 626.091 129.02 625.739 129.02C625.341 129.02 625.001 129.096 624.72 129.248C624.444 129.4 624.219 129.608 624.043 129.872C623.867 130.136 623.738 130.44 623.656 130.786C623.574 131.132 623.533 131.501 623.533 131.894ZM629.431 131.331L628.438 131.551C628.438 130.977 628.517 130.435 628.675 129.925C628.839 129.409 629.076 128.958 629.387 128.571C629.703 128.179 630.093 127.871 630.556 127.648C631.019 127.426 631.549 127.314 632.146 127.314C632.633 127.314 633.066 127.382 633.447 127.517C633.834 127.646 634.162 127.851 634.432 128.132C634.701 128.413 634.906 128.779 635.047 129.23C635.188 129.676 635.258 130.215 635.258 130.848V137H633.131V130.839C633.131 130.358 633.061 129.986 632.92 129.723C632.785 129.459 632.592 129.277 632.34 129.178C632.088 129.072 631.786 129.02 631.435 129.02C631.106 129.02 630.816 129.081 630.564 129.204C630.318 129.321 630.11 129.488 629.94 129.705C629.771 129.916 629.642 130.159 629.554 130.435C629.472 130.71 629.431 131.009 629.431 131.331ZM641.63 137.176C640.927 137.176 640.291 137.062 639.723 136.833C639.16 136.599 638.68 136.273 638.281 135.857C637.889 135.441 637.587 134.952 637.376 134.39C637.165 133.827 637.06 133.221 637.06 132.57V132.219C637.06 131.475 637.168 130.801 637.385 130.197C637.602 129.594 637.903 129.078 638.29 128.65C638.677 128.217 639.134 127.886 639.661 127.657C640.188 127.429 640.76 127.314 641.375 127.314C642.055 127.314 642.649 127.429 643.159 127.657C643.669 127.886 644.091 128.208 644.425 128.624C644.765 129.034 645.017 129.523 645.181 130.092C645.351 130.66 645.436 131.287 645.436 131.973V132.878H638.088V131.357H643.344V131.19C643.332 130.81 643.256 130.452 643.115 130.118C642.98 129.784 642.772 129.515 642.491 129.31C642.21 129.104 641.835 129.002 641.366 129.002C641.015 129.002 640.701 129.078 640.426 129.23C640.156 129.377 639.931 129.591 639.749 129.872C639.567 130.153 639.427 130.493 639.327 130.892C639.233 131.284 639.187 131.727 639.187 132.219V132.57C639.187 132.986 639.242 133.373 639.354 133.73C639.471 134.082 639.641 134.39 639.863 134.653C640.086 134.917 640.355 135.125 640.672 135.277C640.988 135.424 641.349 135.497 641.753 135.497C642.263 135.497 642.717 135.395 643.115 135.189C643.514 134.984 643.859 134.694 644.152 134.319L645.269 135.4C645.063 135.699 644.797 135.986 644.469 136.262C644.141 136.531 643.739 136.751 643.265 136.921C642.796 137.091 642.251 137.176 641.63 137.176ZM649.206 129.424V137H647.088V127.49H649.083L649.206 129.424ZM648.863 131.894L648.143 131.885C648.143 131.229 648.225 130.622 648.389 130.065C648.553 129.509 648.793 129.025 649.109 128.615C649.426 128.199 649.818 127.88 650.287 127.657C650.762 127.429 651.31 127.314 651.931 127.314C652.364 127.314 652.76 127.379 653.117 127.508C653.48 127.631 653.794 127.827 654.058 128.097C654.327 128.366 654.532 128.712 654.673 129.134C654.819 129.556 654.893 130.065 654.893 130.663V137H652.774V130.848C652.774 130.385 652.704 130.021 652.563 129.758C652.429 129.494 652.232 129.307 651.975 129.195C651.723 129.078 651.421 129.02 651.069 129.02C650.671 129.02 650.331 129.096 650.05 129.248C649.774 129.4 649.549 129.608 649.373 129.872C649.197 130.136 649.068 130.44 648.986 130.786C648.904 131.132 648.863 131.501 648.863 131.894ZM654.761 131.331L653.768 131.551C653.768 130.977 653.847 130.435 654.005 129.925C654.169 129.409 654.406 128.958 654.717 128.571C655.033 128.179 655.423 127.871 655.886 127.648C656.349 127.426 656.879 127.314 657.477 127.314C657.963 127.314 658.396 127.382 658.777 127.517C659.164 127.646 659.492 127.851 659.762 128.132C660.031 128.413 660.236 128.779 660.377 129.23C660.518 129.676 660.588 130.215 660.588 130.848V137H658.461V130.839C658.461 130.358 658.391 129.986 658.25 129.723C658.115 129.459 657.922 129.277 657.67 129.178C657.418 129.072 657.116 129.02 656.765 129.02C656.437 129.02 656.146 129.081 655.895 129.204C655.648 129.321 655.44 129.488 655.271 129.705C655.101 129.916 654.972 130.159 654.884 130.435C654.802 130.71 654.761 131.009 654.761 131.331ZM662.776 123.5H664.895V134.97L664.692 137H662.776V123.5ZM671.1 132.157V132.342C671.1 133.045 671.021 133.692 670.862 134.284C670.71 134.87 670.476 135.38 670.159 135.813C669.849 136.247 669.462 136.584 668.999 136.824C668.542 137.059 668.012 137.176 667.408 137.176C666.816 137.176 666.301 137.064 665.861 136.842C665.422 136.619 665.053 136.303 664.754 135.893C664.461 135.482 664.224 134.993 664.042 134.425C663.86 133.856 663.731 133.229 663.655 132.544V131.955C663.731 131.264 663.86 130.637 664.042 130.074C664.224 129.506 664.461 129.017 664.754 128.606C665.053 128.19 665.419 127.871 665.853 127.648C666.292 127.426 666.805 127.314 667.391 127.314C668 127.314 668.536 127.432 668.999 127.666C669.468 127.9 669.857 128.234 670.168 128.668C670.479 129.096 670.71 129.605 670.862 130.197C671.021 130.789 671.1 131.442 671.1 132.157ZM668.981 132.342V132.157C668.981 131.729 668.946 131.328 668.876 130.953C668.806 130.572 668.688 130.238 668.524 129.951C668.366 129.664 668.149 129.438 667.874 129.274C667.604 129.104 667.268 129.02 666.863 129.02C666.488 129.02 666.166 129.084 665.896 129.213C665.627 129.342 665.401 129.518 665.22 129.74C665.038 129.963 664.895 130.221 664.789 130.514C664.689 130.807 664.622 131.123 664.587 131.463V133.054C664.64 133.493 664.751 133.897 664.921 134.267C665.097 134.63 665.343 134.923 665.659 135.146C665.976 135.362 666.383 135.471 666.881 135.471C667.273 135.471 667.604 135.392 667.874 135.233C668.144 135.075 668.357 134.855 668.516 134.574C668.68 134.287 668.797 133.953 668.867 133.572C668.943 133.191 668.981 132.781 668.981 132.342ZM677.085 137.176C676.382 137.176 675.746 137.062 675.178 136.833C674.615 136.599 674.135 136.273 673.736 135.857C673.344 135.441 673.042 134.952 672.831 134.39C672.62 133.827 672.515 133.221 672.515 132.57V132.219C672.515 131.475 672.623 130.801 672.84 130.197C673.057 129.594 673.358 129.078 673.745 128.65C674.132 128.217 674.589 127.886 675.116 127.657C675.644 127.429 676.215 127.314 676.83 127.314C677.51 127.314 678.104 127.429 678.614 127.657C679.124 127.886 679.546 128.208 679.88 128.624C680.22 129.034 680.472 129.523 680.636 130.092C680.806 130.66 680.891 131.287 680.891 131.973V132.878H673.543V131.357H678.799V131.19C678.787 130.81 678.711 130.452 678.57 130.118C678.436 129.784 678.228 129.515 677.946 129.31C677.665 129.104 677.29 129.002 676.821 129.002C676.47 129.002 676.156 129.078 675.881 129.23C675.611 129.377 675.386 129.591 675.204 129.872C675.022 130.153 674.882 130.493 674.782 130.892C674.688 131.284 674.642 131.727 674.642 132.219V132.57C674.642 132.986 674.697 133.373 674.809 133.73C674.926 134.082 675.096 134.39 675.318 134.653C675.541 134.917 675.811 135.125 676.127 135.277C676.443 135.424 676.804 135.497 677.208 135.497C677.718 135.497 678.172 135.395 678.57 135.189C678.969 134.984 679.314 134.694 679.607 134.319L680.724 135.4C680.519 135.699 680.252 135.986 679.924 136.262C679.596 136.531 679.194 136.751 678.72 136.921C678.251 137.091 677.706 137.176 677.085 137.176ZM684.67 129.301V137H682.552V127.49H684.573L684.67 129.301ZM687.579 127.429L687.562 129.397C687.433 129.374 687.292 129.356 687.14 129.345C686.993 129.333 686.847 129.327 686.7 129.327C686.337 129.327 686.018 129.38 685.742 129.485C685.467 129.585 685.235 129.731 685.048 129.925C684.866 130.112 684.726 130.341 684.626 130.61C684.526 130.88 684.468 131.182 684.45 131.516L683.967 131.551C683.967 130.953 684.025 130.399 684.143 129.89C684.26 129.38 684.436 128.932 684.67 128.545C684.91 128.158 685.209 127.856 685.566 127.64C685.93 127.423 686.349 127.314 686.823 127.314C686.952 127.314 687.09 127.326 687.236 127.35C687.389 127.373 687.503 127.399 687.579 127.429ZM694.241 134.425C694.241 134.214 694.188 134.023 694.083 133.854C693.978 133.678 693.775 133.52 693.477 133.379C693.184 133.238 692.75 133.109 692.176 132.992C691.672 132.881 691.209 132.749 690.787 132.597C690.371 132.438 690.014 132.248 689.715 132.025C689.416 131.803 689.185 131.539 689.021 131.234C688.856 130.93 688.774 130.578 688.774 130.18C688.774 129.793 688.859 129.427 689.029 129.081C689.199 128.735 689.442 128.431 689.759 128.167C690.075 127.903 690.459 127.695 690.91 127.543C691.367 127.391 691.877 127.314 692.439 127.314C693.236 127.314 693.919 127.449 694.487 127.719C695.062 127.982 695.501 128.343 695.806 128.8C696.11 129.251 696.263 129.761 696.263 130.329H694.145C694.145 130.077 694.08 129.843 693.951 129.626C693.828 129.403 693.641 129.225 693.389 129.09C693.137 128.949 692.82 128.879 692.439 128.879C692.076 128.879 691.774 128.938 691.534 129.055C691.3 129.166 691.124 129.312 691.007 129.494C690.896 129.676 690.84 129.875 690.84 130.092C690.84 130.25 690.869 130.394 690.928 130.522C690.992 130.646 691.098 130.76 691.244 130.865C691.391 130.965 691.59 131.059 691.842 131.146C692.1 131.234 692.422 131.319 692.809 131.401C693.535 131.554 694.159 131.75 694.681 131.99C695.208 132.225 695.612 132.529 695.894 132.904C696.175 133.273 696.315 133.742 696.315 134.311C696.315 134.732 696.225 135.119 696.043 135.471C695.867 135.816 695.609 136.118 695.27 136.376C694.93 136.628 694.522 136.824 694.048 136.965C693.579 137.105 693.052 137.176 692.466 137.176C691.604 137.176 690.875 137.023 690.277 136.719C689.68 136.408 689.226 136.013 688.915 135.532C688.61 135.046 688.458 134.542 688.458 134.021H690.506C690.529 134.413 690.638 134.727 690.831 134.961C691.03 135.189 691.276 135.356 691.569 135.462C691.868 135.562 692.176 135.611 692.492 135.611C692.873 135.611 693.192 135.562 693.45 135.462C693.708 135.356 693.904 135.216 694.039 135.04C694.174 134.858 694.241 134.653 694.241 134.425Z" fill="#5384ED"/>
<path d="M79.6667 79C79.6667 81.9455 82.0545 84.3333 85 84.3333C87.9455 84.3333 90.3333 81.9455 90.3333 79C90.3333 76.0545 87.9455 73.6667 85 73.6667C82.0545 73.6667 79.6667 76.0545 79.6667 79ZM509 131L499 125.226V136.774L509 131ZM84 79V125H86V79H84ZM91 132H500V130H91V132ZM84 125C84 128.866 87.134 132 91 132V130C88.2386 130 86 127.761 86 125H84Z" fill="#5384ED"/>
<path d="M750.667 130C750.667 132.946 753.054 135.333 756 135.333C758.946 135.333 761.333 132.946 761.333 130C761.333 127.054 758.946 124.667 756 124.667C753.054 124.667 750.667 127.054 750.667 130ZM939.5 96L933.726 106H945.274L939.5 96ZM756 131H933.5V129H756V131ZM940.5 124V105H938.5V124H940.5ZM933.5 131C937.366 131 940.5 127.866 940.5 124H938.5C938.5 126.761 936.261 129 933.5 129V131Z" fill="#5384ED"/>
<defs>
<linearGradient id="paint0_linear_3239_10743" x1="212" y1="8.08981" x2="377.688" y2="164.015" gradientUnits="userSpaceOnUse">
<stop stop-color="#5D85EC"/>
<stop offset="0.533854" stop-color="#9DBEFF"/>
<stop offset="1" stop-color="#5D87D8"/>
</linearGradient>
<linearGradient id="paint1_linear_3239_10743" x1="827" y1="8.08981" x2="992.688" y2="164.015" gradientUnits="userSpaceOnUse">
<stop stop-color="#5D85EC"/>
<stop offset="0.533854" stop-color="#9DBEFF"/>
<stop offset="1" stop-color="#5D87D8"/>
</linearGradient>
</defs>
</svg>
