<svg width="1971" height="108" viewBox="0 0 1971 108" fill="none" xmlns="http://www.w3.org/2000/svg">
<rect x="31.5" y="28" width="145" height="50" rx="25" fill="#F6F9FE"/>
<path d="M65.6562 46.7031V59.5H63.4502V46.7031H65.6562ZM70.2881 52.0205V59.5H68.1699V49.9902H70.165L70.2881 52.0205ZM69.9102 54.3936L69.2246 54.3848C69.2305 53.7109 69.3242 53.0928 69.5059 52.5303C69.6934 51.9678 69.9512 51.4844 70.2793 51.0801C70.6133 50.6758 71.0117 50.3652 71.4746 50.1484C71.9375 49.9258 72.4531 49.8145 73.0215 49.8145C73.4785 49.8145 73.8916 49.8789 74.2607 50.0078C74.6357 50.1309 74.9551 50.333 75.2188 50.6143C75.4883 50.8955 75.6934 51.2617 75.834 51.7129C75.9746 52.1582 76.0449 52.7061 76.0449 53.3564V59.5H73.918V53.3477C73.918 52.8906 73.8506 52.5303 73.7158 52.2666C73.5869 51.9971 73.3965 51.8066 73.1445 51.6953C72.8984 51.5781 72.5908 51.5195 72.2217 51.5195C71.8584 51.5195 71.5332 51.5957 71.2461 51.748C70.959 51.9004 70.7158 52.1084 70.5166 52.3721C70.3232 52.6357 70.1738 52.9404 70.0684 53.2861C69.9629 53.6318 69.9102 54.001 69.9102 54.3936ZM82.5664 49.9902V51.5371H77.2051V49.9902H82.5664ZM78.752 47.6611H80.8701V56.8721C80.8701 57.165 80.9111 57.3906 80.9932 57.5488C81.0811 57.7012 81.2012 57.8037 81.3535 57.8564C81.5059 57.9092 81.6846 57.9355 81.8896 57.9355C82.0361 57.9355 82.1768 57.9268 82.3115 57.9092C82.4463 57.8916 82.5547 57.874 82.6367 57.8564L82.6455 59.4736C82.4697 59.5264 82.2646 59.5732 82.0303 59.6143C81.8018 59.6553 81.5381 59.6758 81.2393 59.6758C80.7529 59.6758 80.3223 59.5908 79.9473 59.4209C79.5723 59.2451 79.2793 58.9609 79.0684 58.5684C78.8574 58.1758 78.752 57.6543 78.752 57.0039V47.6611ZM88.3936 59.6758C87.6904 59.6758 87.0547 59.5615 86.4863 59.333C85.9238 59.0986 85.4434 58.7734 85.0449 58.3574C84.6523 57.9414 84.3506 57.4521 84.1396 56.8896C83.9287 56.3271 83.8232 55.7207 83.8232 55.0703V54.7188C83.8232 53.9746 83.9316 53.3008 84.1484 52.6973C84.3652 52.0938 84.667 51.5781 85.0537 51.1504C85.4404 50.7168 85.8975 50.3857 86.4248 50.1572C86.9521 49.9287 87.5234 49.8145 88.1387 49.8145C88.8184 49.8145 89.4131 49.9287 89.9229 50.1572C90.4326 50.3857 90.8545 50.708 91.1885 51.124C91.5283 51.5342 91.7803 52.0234 91.9443 52.5918C92.1143 53.1602 92.1992 53.7871 92.1992 54.4727V55.3779H84.8516V53.8574H90.1074V53.6904C90.0957 53.3096 90.0195 52.9521 89.8789 52.6182C89.7441 52.2842 89.5361 52.0146 89.2549 51.8096C88.9736 51.6045 88.5986 51.502 88.1299 51.502C87.7783 51.502 87.4648 51.5781 87.1895 51.7305C86.9199 51.877 86.6943 52.0908 86.5127 52.3721C86.3311 52.6533 86.1904 52.9932 86.0908 53.3916C85.9971 53.7842 85.9502 54.2266 85.9502 54.7188V55.0703C85.9502 55.4863 86.0059 55.873 86.1172 56.2305C86.2344 56.582 86.4043 56.8896 86.627 57.1533C86.8496 57.417 87.1191 57.625 87.4355 57.7773C87.752 57.9238 88.1123 57.9971 88.5166 57.9971C89.0264 57.9971 89.4805 57.8945 89.8789 57.6895C90.2773 57.4844 90.623 57.1943 90.916 56.8193L92.0322 57.9004C91.8271 58.1992 91.5605 58.4863 91.2324 58.7617C90.9043 59.0312 90.5029 59.251 90.0283 59.4209C89.5596 59.5908 89.0146 59.6758 88.3936 59.6758ZM95.9785 51.8008V59.5H93.8604V49.9902H95.8818L95.9785 51.8008ZM98.8877 49.9287L98.8701 51.8975C98.7412 51.874 98.6006 51.8564 98.4482 51.8447C98.3018 51.833 98.1553 51.8271 98.0088 51.8271C97.6455 51.8271 97.3262 51.8799 97.0508 51.9854C96.7754 52.085 96.5439 52.2314 96.3564 52.4248C96.1748 52.6123 96.0342 52.8408 95.9346 53.1104C95.835 53.3799 95.7764 53.6816 95.7588 54.0156L95.2754 54.0508C95.2754 53.4531 95.334 52.8994 95.4512 52.3896C95.5684 51.8799 95.7441 51.4316 95.9785 51.0449C96.2188 50.6582 96.5176 50.3564 96.875 50.1396C97.2383 49.9229 97.6572 49.8145 98.1318 49.8145C98.2607 49.8145 98.3984 49.8262 98.5449 49.8496C98.6973 49.873 98.8115 49.8994 98.8877 49.9287ZM103.467 57.8213L105.796 49.9902H107.993L104.688 59.5H103.317L103.467 57.8213ZM101.683 49.9902L104.056 57.8564L104.17 59.5H102.799L99.4766 49.9902H101.683ZM111.57 49.9902V59.5H109.443V49.9902H111.57ZM109.303 47.4941C109.303 47.1719 109.408 46.9053 109.619 46.6943C109.836 46.4775 110.135 46.3691 110.516 46.3691C110.891 46.3691 111.187 46.4775 111.403 46.6943C111.62 46.9053 111.729 47.1719 111.729 47.4941C111.729 47.8105 111.62 48.0742 111.403 48.2852C111.187 48.4961 110.891 48.6016 110.516 48.6016C110.135 48.6016 109.836 48.4961 109.619 48.2852C109.408 48.0742 109.303 47.8105 109.303 47.4941ZM118.083 59.6758C117.38 59.6758 116.744 59.5615 116.176 59.333C115.613 59.0986 115.133 58.7734 114.734 58.3574C114.342 57.9414 114.04 57.4521 113.829 56.8896C113.618 56.3271 113.513 55.7207 113.513 55.0703V54.7188C113.513 53.9746 113.621 53.3008 113.838 52.6973C114.055 52.0938 114.356 51.5781 114.743 51.1504C115.13 50.7168 115.587 50.3857 116.114 50.1572C116.642 49.9287 117.213 49.8145 117.828 49.8145C118.508 49.8145 119.103 49.9287 119.612 50.1572C120.122 50.3857 120.544 50.708 120.878 51.124C121.218 51.5342 121.47 52.0234 121.634 52.5918C121.804 53.1602 121.889 53.7871 121.889 54.4727V55.3779H114.541V53.8574H119.797V53.6904C119.785 53.3096 119.709 52.9521 119.568 52.6182C119.434 52.2842 119.226 52.0146 118.944 51.8096C118.663 51.6045 118.288 51.502 117.819 51.502C117.468 51.502 117.154 51.5781 116.879 51.7305C116.609 51.877 116.384 52.0908 116.202 52.3721C116.021 52.6533 115.88 52.9932 115.78 53.3916C115.687 53.7842 115.64 54.2266 115.64 54.7188V55.0703C115.64 55.4863 115.695 55.873 115.807 56.2305C115.924 56.582 116.094 56.8896 116.316 57.1533C116.539 57.417 116.809 57.625 117.125 57.7773C117.441 57.9238 117.802 57.9971 118.206 57.9971C118.716 57.9971 119.17 57.8945 119.568 57.6895C119.967 57.4844 120.312 57.1943 120.605 56.8193L121.722 57.9004C121.517 58.1992 121.25 58.4863 120.922 58.7617C120.594 59.0312 120.192 59.251 119.718 59.4209C119.249 59.5908 118.704 59.6758 118.083 59.6758ZM126.125 57.3906L128.322 49.9902H129.676L129.307 52.2051L127.092 59.5H125.879L126.125 57.3906ZM124.833 49.9902L126.547 57.4258L126.688 59.5H125.334L122.759 49.9902H124.833ZM131.732 57.3379L133.394 49.9902H135.459L132.893 59.5H131.539L131.732 57.3379ZM129.904 49.9902L132.075 57.3027L132.348 59.5H131.135L128.894 52.1963L128.524 49.9902H129.904ZM142.235 56.9248C142.235 56.7139 142.183 56.5234 142.077 56.3535C141.972 56.1777 141.77 56.0195 141.471 55.8789C141.178 55.7383 140.744 55.6094 140.17 55.4922C139.666 55.3809 139.203 55.249 138.781 55.0967C138.365 54.9385 138.008 54.748 137.709 54.5254C137.41 54.3027 137.179 54.0391 137.015 53.7344C136.851 53.4297 136.769 53.0781 136.769 52.6797C136.769 52.293 136.854 51.9268 137.023 51.5811C137.193 51.2354 137.437 50.9307 137.753 50.667C138.069 50.4033 138.453 50.1953 138.904 50.043C139.361 49.8906 139.871 49.8145 140.434 49.8145C141.23 49.8145 141.913 49.9492 142.481 50.2188C143.056 50.4824 143.495 50.8428 143.8 51.2998C144.104 51.751 144.257 52.2607 144.257 52.8291H142.139C142.139 52.5771 142.074 52.3428 141.945 52.126C141.822 51.9033 141.635 51.7246 141.383 51.5898C141.131 51.4492 140.814 51.3789 140.434 51.3789C140.07 51.3789 139.769 51.4375 139.528 51.5547C139.294 51.666 139.118 51.8125 139.001 51.9941C138.89 52.1758 138.834 52.375 138.834 52.5918C138.834 52.75 138.863 52.8936 138.922 53.0225C138.986 53.1455 139.092 53.2598 139.238 53.3652C139.385 53.4648 139.584 53.5586 139.836 53.6465C140.094 53.7344 140.416 53.8193 140.803 53.9014C141.529 54.0537 142.153 54.25 142.675 54.4902C143.202 54.7246 143.606 55.0293 143.888 55.4043C144.169 55.7734 144.31 56.2422 144.31 56.8105C144.31 57.2324 144.219 57.6191 144.037 57.9707C143.861 58.3164 143.604 58.6182 143.264 58.876C142.924 59.1279 142.517 59.3242 142.042 59.4648C141.573 59.6055 141.046 59.6758 140.46 59.6758C139.599 59.6758 138.869 59.5234 138.271 59.2188C137.674 58.9082 137.22 58.5127 136.909 58.0322C136.604 57.5459 136.452 57.042 136.452 56.5205H138.5C138.523 56.9131 138.632 57.2266 138.825 57.4609C139.024 57.6895 139.271 57.8564 139.563 57.9619C139.862 58.0615 140.17 58.1113 140.486 58.1113C140.867 58.1113 141.187 58.0615 141.444 57.9619C141.702 57.8564 141.898 57.7158 142.033 57.54C142.168 57.3584 142.235 57.1533 142.235 56.9248Z" fill="#5384ED"/>
<rect x="31.5" y="28" width="145" height="50" rx="25" stroke="#5384ED" stroke-width="3"/>
<path d="M250 53L240 47.2265L240 58.7735L250 53ZM183.333 53C183.333 50.0545 180.946 47.6666 178 47.6666C175.054 47.6666 172.667 50.0545 172.667 53C172.667 55.9455 175.054 58.3333 178 58.3333C180.946 58.3333 183.333 55.9455 183.333 53ZM241 52L178 52L178 54L241 54L241 52Z" fill="#5384ED"/>
<path d="M358.391 13.4975C361.045 12.5303 363.955 12.5303 366.609 13.4975L459.532 47.3627C464.793 49.2799 464.793 56.7201 459.532 58.6373L366.609 92.5025C363.955 93.4697 361.045 93.4697 358.391 92.5025L265.468 58.6373C260.208 56.7201 260.208 49.2799 265.468 47.3627L358.391 13.4975Z" fill="url(#paint0_linear_3267_10921)" stroke="#E2EDFD" stroke-width="3"/>
<path d="M300.914 55.5908H303.331C303.267 56.4463 303.03 57.2051 302.62 57.8672C302.209 58.5234 301.638 59.0391 300.906 59.4141C300.173 59.7891 299.286 59.9766 298.243 59.9766C297.44 59.9766 296.716 59.8359 296.072 59.5547C295.433 59.2676 294.885 58.8604 294.428 58.333C293.977 57.7998 293.631 57.1611 293.391 56.417C293.151 55.667 293.031 54.8262 293.031 53.8945V52.9189C293.031 51.9873 293.154 51.1465 293.4 50.3965C293.646 49.6465 293.998 49.0078 294.455 48.4805C294.917 47.9473 295.471 47.5371 296.116 47.25C296.766 46.9629 297.493 46.8193 298.295 46.8193C299.338 46.8193 300.22 47.0127 300.941 47.3994C301.662 47.7803 302.221 48.3047 302.62 48.9727C303.018 49.6406 303.258 50.4082 303.34 51.2754H300.923C300.876 50.7363 300.759 50.2793 300.572 49.9043C300.39 49.5293 300.115 49.2451 299.746 49.0518C299.382 48.8525 298.899 48.7529 298.295 48.7529C297.827 48.7529 297.414 48.8408 297.056 49.0166C296.705 49.1924 296.412 49.4561 296.177 49.8076C295.943 50.1533 295.767 50.5869 295.65 51.1084C295.533 51.624 295.474 52.2217 295.474 52.9014V53.8945C295.474 54.5449 295.527 55.1279 295.632 55.6436C295.738 56.1592 295.902 56.5957 296.124 56.9531C296.347 57.3105 296.634 57.583 296.986 57.7705C297.337 57.958 297.756 58.0518 298.243 58.0518C298.834 58.0518 299.315 57.958 299.684 57.7705C300.059 57.583 300.343 57.3076 300.537 56.9443C300.736 56.5811 300.862 56.1299 300.914 55.5908ZM307.348 52.2334V59.8008H305.028V50.291H307.225L307.348 52.2334ZM310.24 50.2295L310.205 52.3916C310.076 52.3682 309.929 52.3506 309.765 52.3389C309.607 52.3271 309.457 52.3213 309.317 52.3213C308.959 52.3213 308.646 52.3711 308.376 52.4707C308.107 52.5645 307.881 52.7021 307.7 52.8838C307.524 53.0654 307.389 53.2881 307.295 53.5518C307.202 53.8096 307.149 54.1025 307.137 54.4307L306.636 54.3691C306.636 53.7656 306.698 53.2061 306.821 52.6904C306.944 52.1748 307.123 51.7236 307.357 51.3369C307.591 50.9502 307.884 50.6514 308.236 50.4404C308.593 50.2236 309.003 50.1152 309.466 50.1152C309.595 50.1152 309.733 50.127 309.879 50.1504C310.032 50.168 310.152 50.1943 310.24 50.2295ZM315.61 59.9766C314.889 59.9766 314.242 59.8594 313.667 59.625C313.093 59.3906 312.604 59.0654 312.2 58.6494C311.801 58.2275 311.494 57.7383 311.277 57.1816C311.066 56.6191 310.96 56.0156 310.96 55.3711V55.0195C310.96 54.2871 311.066 53.6221 311.277 53.0244C311.488 52.4209 311.787 51.9023 312.173 51.4687C312.56 51.0352 313.023 50.7012 313.562 50.4668C314.101 50.2324 314.696 50.1152 315.346 50.1152C316.02 50.1152 316.615 50.2295 317.13 50.458C317.646 50.6807 318.077 50.9971 318.422 51.4072C318.768 51.8174 319.029 52.3096 319.205 52.8838C319.38 53.4521 319.468 54.082 319.468 54.7734V55.749H312.015V54.1494H317.183V53.9736C317.171 53.6045 317.101 53.2676 316.972 52.9629C316.843 52.6523 316.644 52.4062 316.374 52.2246C316.105 52.0371 315.756 51.9434 315.329 51.9434C314.983 51.9434 314.681 52.0195 314.423 52.1719C314.171 52.3184 313.96 52.5293 313.79 52.8047C313.626 53.0742 313.503 53.3965 313.421 53.7715C313.339 54.1465 313.298 54.5625 313.298 55.0195V55.3711C313.298 55.7695 313.351 56.1387 313.456 56.4785C313.568 56.8184 313.729 57.1143 313.94 57.3662C314.157 57.6123 314.414 57.8057 314.713 57.9463C315.018 58.0811 315.364 58.1484 315.75 58.1484C316.237 58.1484 316.676 58.0547 317.069 57.8672C317.467 57.6738 317.813 57.3896 318.106 57.0146L319.275 58.2275C319.076 58.5205 318.806 58.8018 318.466 59.0713C318.132 59.3408 317.728 59.5605 317.253 59.7305C316.779 59.8945 316.231 59.9766 315.61 59.9766ZM326.262 57.7793V53.3936C326.262 53.0713 326.206 52.793 326.095 52.5586C325.984 52.3242 325.814 52.1426 325.585 52.0137C325.357 51.8848 325.067 51.8203 324.715 51.8203C324.405 51.8203 324.132 51.873 323.898 51.9785C323.669 52.084 323.494 52.2334 323.371 52.4268C323.248 52.6143 323.186 52.8311 323.186 53.0771H320.857C320.857 52.6846 320.951 52.3125 321.138 51.9609C321.326 51.6035 321.592 51.2871 321.938 51.0117C322.289 50.7305 322.708 50.5107 323.195 50.3525C323.687 50.1943 324.238 50.1152 324.847 50.1152C325.568 50.1152 326.209 50.2383 326.772 50.4844C327.34 50.7246 327.786 51.0879 328.108 51.5742C328.436 52.0605 328.6 52.6729 328.6 53.4111V57.5596C328.6 58.0342 328.629 58.4414 328.688 58.7812C328.752 59.1152 328.846 59.4053 328.969 59.6514V59.8008H326.605C326.494 59.5605 326.409 59.2559 326.35 58.8867C326.291 58.5117 326.262 58.1426 326.262 57.7793ZM326.587 54.0088L326.605 55.3887H325.137C324.774 55.3887 324.455 55.4268 324.179 55.5029C323.904 55.5732 323.678 55.6787 323.502 55.8193C323.327 55.9541 323.195 56.1182 323.107 56.3115C323.019 56.499 322.975 56.7129 322.975 56.9531C322.975 57.1875 323.028 57.3984 323.133 57.5859C323.245 57.7734 323.403 57.9229 323.608 58.0342C323.819 58.1396 324.065 58.1924 324.346 58.1924C324.756 58.1924 325.114 58.1104 325.418 57.9463C325.723 57.7764 325.96 57.5713 326.13 57.3311C326.3 57.0908 326.391 56.8623 326.403 56.6455L327.071 57.6475C326.989 57.8877 326.866 58.1426 326.702 58.4121C326.538 58.6816 326.327 58.9336 326.069 59.168C325.811 59.4023 325.5 59.5957 325.137 59.748C324.774 59.9004 324.352 59.9766 323.872 59.9766C323.256 59.9766 322.706 59.8535 322.219 59.6074C321.733 59.3613 321.349 59.0244 321.068 58.5967C320.787 58.1689 320.646 57.6826 320.646 57.1377C320.646 56.6338 320.74 56.1885 320.927 55.8018C321.115 55.415 321.393 55.0898 321.762 54.8262C322.131 54.5566 322.588 54.3545 323.133 54.2197C323.684 54.0791 324.314 54.0088 325.023 54.0088H326.587ZM335.192 50.291V51.9609H329.743V50.291H335.192ZM331.202 47.9531H333.531V57.0586C333.531 57.3398 333.569 57.5566 333.645 57.709C333.721 57.8613 333.835 57.9639 333.988 58.0166C334.14 58.0693 334.322 58.0957 334.533 58.0957C334.685 58.0957 334.826 58.0869 334.955 58.0693C335.083 58.0518 335.192 58.0342 335.28 58.0166L335.289 59.7568C335.095 59.8213 334.875 59.874 334.629 59.915C334.389 59.9561 334.117 59.9766 333.812 59.9766C333.29 59.9766 332.833 59.8887 332.441 59.7129C332.048 59.5312 331.744 59.2412 331.527 58.8428C331.31 58.4385 331.202 57.9053 331.202 57.2432V47.9531ZM341.01 59.9766C340.289 59.9766 339.642 59.8594 339.068 59.625C338.494 59.3906 338.004 59.0654 337.6 58.6494C337.202 58.2275 336.894 57.7383 336.677 57.1816C336.466 56.6191 336.361 56.0156 336.361 55.3711V55.0195C336.361 54.2871 336.466 53.6221 336.677 53.0244C336.888 52.4209 337.187 51.9023 337.574 51.4687C337.96 51.0352 338.423 50.7012 338.962 50.4668C339.501 50.2324 340.096 50.1152 340.747 50.1152C341.42 50.1152 342.015 50.2295 342.531 50.458C343.046 50.6807 343.477 50.9971 343.823 51.4072C344.168 51.8174 344.429 52.3096 344.605 52.8838C344.781 53.4521 344.869 54.082 344.869 54.7734V55.749H337.415V54.1494H342.583V53.9736C342.572 53.6045 342.501 53.2676 342.373 52.9629C342.244 52.6523 342.044 52.4062 341.775 52.2246C341.505 52.0371 341.157 51.9434 340.729 51.9434C340.383 51.9434 340.081 52.0195 339.824 52.1719C339.572 52.3184 339.361 52.5293 339.191 52.8047C339.027 53.0742 338.904 53.3965 338.822 53.7715C338.74 54.1465 338.699 54.5625 338.699 55.0195V55.3711C338.699 55.7695 338.751 56.1387 338.857 56.4785C338.968 56.8184 339.129 57.1143 339.34 57.3662C339.557 57.6123 339.815 57.8057 340.114 57.9463C340.418 58.0811 340.764 58.1484 341.151 58.1484C341.637 58.1484 342.077 58.0547 342.469 57.8672C342.868 57.6738 343.213 57.3896 343.506 57.0146L344.675 58.2275C344.476 58.5205 344.206 58.8018 343.867 59.0713C343.533 59.3408 343.128 59.5605 342.654 59.7305C342.179 59.8945 341.631 59.9766 341.01 59.9766ZM353.368 50.291V59.8008H351.039V50.291H353.368ZM350.88 47.8037C350.88 47.458 350.997 47.1709 351.232 46.9424C351.472 46.7139 351.794 46.5996 352.199 46.5996C352.603 46.5996 352.922 46.7139 353.157 46.9424C353.397 47.1709 353.517 47.458 353.517 47.8037C353.517 48.1436 353.397 48.4277 353.157 48.6562C352.922 48.8848 352.603 48.999 352.199 48.999C351.794 48.999 351.472 48.8848 351.232 48.6562C350.997 48.4277 350.88 48.1436 350.88 47.8037ZM357.859 52.3213V59.8008H355.539V50.291H357.718L357.859 52.3213ZM357.49 54.7031H356.804C356.81 54.0117 356.904 53.3848 357.085 52.8223C357.267 52.2598 357.522 51.7764 357.85 51.3721C358.184 50.9678 358.58 50.6572 359.037 50.4404C359.494 50.2236 360.003 50.1152 360.566 50.1152C361.023 50.1152 361.436 50.1797 361.805 50.3086C362.174 50.4375 362.491 50.6426 362.754 50.9238C363.024 51.2051 363.229 51.5742 363.37 52.0312C363.516 52.4824 363.589 53.0391 363.589 53.7012V59.8008H361.251V53.6836C361.251 53.25 361.187 52.9072 361.058 52.6553C360.935 52.4033 360.753 52.2246 360.513 52.1191C360.279 52.0137 359.989 51.9609 359.643 51.9609C359.286 51.9609 358.972 52.0342 358.703 52.1807C358.439 52.3213 358.216 52.5176 358.035 52.7695C357.859 53.0215 357.724 53.3115 357.63 53.6396C357.537 53.9678 357.49 54.3223 357.49 54.7031ZM370.137 50.291V51.9609H364.688V50.291H370.137ZM366.147 47.9531H368.476V57.0586C368.476 57.3398 368.514 57.5566 368.59 57.709C368.666 57.8613 368.781 57.9639 368.933 58.0166C369.085 58.0693 369.267 58.0957 369.478 58.0957C369.63 58.0957 369.771 58.0869 369.9 58.0693C370.029 58.0518 370.137 58.0342 370.225 58.0166L370.234 59.7568C370.04 59.8213 369.821 59.874 369.575 59.915C369.334 59.9561 369.062 59.9766 368.757 59.9766C368.236 59.9766 367.779 59.8887 367.386 59.7129C366.994 59.5312 366.689 59.2412 366.472 58.8428C366.255 58.4385 366.147 57.9053 366.147 57.2432V47.9531ZM375.956 59.9766C375.235 59.9766 374.587 59.8594 374.013 59.625C373.439 59.3906 372.95 59.0654 372.545 58.6494C372.147 58.2275 371.839 57.7383 371.622 57.1816C371.412 56.6191 371.306 56.0156 371.306 55.3711V55.0195C371.306 54.2871 371.412 53.6221 371.622 53.0244C371.833 52.4209 372.132 51.9023 372.519 51.4687C372.906 51.0352 373.369 50.7012 373.908 50.4668C374.447 50.2324 375.041 50.1152 375.692 50.1152C376.366 50.1152 376.96 50.2295 377.476 50.458C377.992 50.6807 378.422 50.9971 378.768 51.4072C379.114 51.8174 379.374 52.3096 379.55 52.8838C379.726 53.4521 379.814 54.082 379.814 54.7734V55.749H372.361V54.1494H377.529V53.9736C377.517 53.6045 377.447 53.2676 377.318 52.9629C377.189 52.6523 376.99 52.4062 376.72 52.2246C376.451 52.0371 376.102 51.9434 375.674 51.9434C375.329 51.9434 375.027 52.0195 374.769 52.1719C374.517 52.3184 374.306 52.5293 374.136 52.8047C373.972 53.0742 373.849 53.3965 373.767 53.7715C373.685 54.1465 373.644 54.5625 373.644 55.0195V55.3711C373.644 55.7695 373.697 56.1387 373.802 56.4785C373.914 56.8184 374.075 57.1143 374.286 57.3662C374.502 57.6123 374.76 57.8057 375.059 57.9463C375.364 58.0811 375.709 58.1484 376.096 58.1484C376.582 58.1484 377.022 58.0547 377.414 57.8672C377.813 57.6738 378.159 57.3896 378.452 57.0146L379.621 58.2275C379.421 58.5205 379.152 58.8018 378.812 59.0713C378.478 59.3408 378.074 59.5605 377.599 59.7305C377.124 59.8945 376.577 59.9766 375.956 59.9766ZM383.69 52.2334V59.8008H381.37V50.291H383.567L383.69 52.2334ZM386.581 50.2295L386.546 52.3916C386.417 52.3682 386.271 52.3506 386.107 52.3389C385.949 52.3271 385.799 52.3213 385.659 52.3213C385.301 52.3213 384.988 52.3711 384.718 52.4707C384.449 52.5645 384.223 52.7021 384.041 52.8838C383.866 53.0654 383.731 53.2881 383.637 53.5518C383.543 53.8096 383.491 54.1025 383.479 54.4307L382.978 54.3691C382.978 53.7656 383.039 53.2061 383.163 52.6904C383.286 52.1748 383.464 51.7236 383.699 51.3369C383.933 50.9502 384.226 50.6514 384.578 50.4404C384.935 50.2236 385.345 50.1152 385.808 50.1152C385.937 50.1152 386.075 50.127 386.221 50.1504C386.373 50.168 386.494 50.1943 386.581 50.2295ZM391.169 58.043L393.384 50.291H395.81L392.549 59.8008H391.073L391.169 58.043ZM389.552 50.291L391.793 58.0605L391.872 59.8008H390.387L387.118 50.291H389.552ZM399.493 50.291V59.8008H397.164V50.291H399.493ZM397.005 47.8037C397.005 47.458 397.122 47.1709 397.357 46.9424C397.597 46.7139 397.919 46.5996 398.324 46.5996C398.728 46.5996 399.047 46.7139 399.282 46.9424C399.522 47.1709 399.642 47.458 399.642 47.8037C399.642 48.1436 399.522 48.4277 399.282 48.6562C399.047 48.8848 398.728 48.999 398.324 48.999C397.919 48.999 397.597 48.8848 397.357 48.6562C397.122 48.4277 397.005 48.1436 397.005 47.8037ZM405.979 59.9766C405.258 59.9766 404.611 59.8594 404.037 59.625C403.462 59.3906 402.973 59.0654 402.569 58.6494C402.17 58.2275 401.863 57.7383 401.646 57.1816C401.435 56.6191 401.33 56.0156 401.33 55.3711V55.0195C401.33 54.2871 401.435 53.6221 401.646 53.0244C401.857 52.4209 402.156 51.9023 402.542 51.4687C402.929 51.0352 403.392 50.7012 403.931 50.4668C404.47 50.2324 405.065 50.1152 405.715 50.1152C406.389 50.1152 406.984 50.2295 407.499 50.458C408.015 50.6807 408.446 50.9971 408.791 51.4072C409.137 51.8174 409.398 52.3096 409.574 52.8838C409.749 53.4521 409.837 54.082 409.837 54.7734V55.749H402.384V54.1494H407.552V53.9736C407.54 53.6045 407.47 53.2676 407.341 52.9629C407.212 52.6523 407.013 52.4062 406.744 52.2246C406.474 52.0371 406.125 51.9434 405.698 51.9434C405.352 51.9434 405.05 52.0195 404.792 52.1719C404.54 52.3184 404.33 52.5293 404.16 52.8047C403.996 53.0742 403.872 53.3965 403.79 53.7715C403.708 54.1465 403.667 54.5625 403.667 55.0195V55.3711C403.667 55.7695 403.72 56.1387 403.826 56.4785C403.937 56.8184 404.098 57.1143 404.309 57.3662C404.526 57.6123 404.784 57.8057 405.082 57.9463C405.387 58.0811 405.733 58.1484 406.12 58.1484C406.606 58.1484 407.045 58.0547 407.438 57.8672C407.836 57.6738 408.182 57.3896 408.475 57.0146L409.644 58.2275C409.445 58.5205 409.175 58.8018 408.835 59.0713C408.501 59.3408 408.097 59.5605 407.622 59.7305C407.148 59.8945 406.6 59.9766 405.979 59.9766ZM414.039 57.5156L416.122 50.291H417.598L417.159 52.7871L415.058 59.8008H413.784L414.039 57.5156ZM412.887 50.291L414.452 57.5332L414.592 59.8008H413.124L410.628 50.291H412.887ZM419.532 57.4277L421.061 50.291H423.311L420.832 59.8008H419.365L419.532 57.4277ZM417.827 50.291L419.892 57.4453L420.164 59.8008H418.89L416.772 52.7871L416.341 50.291H417.827ZM428.813 55.96H426.712C426.718 55.4268 426.762 54.9697 426.844 54.5889C426.932 54.208 427.076 53.8652 427.275 53.5605C427.474 53.25 427.744 52.9336 428.083 52.6113C428.353 52.3594 428.593 52.1221 428.804 51.8994C429.021 51.6709 429.191 51.4336 429.314 51.1875C429.437 50.9355 429.498 50.6514 429.498 50.335C429.498 49.9775 429.44 49.6787 429.323 49.4385C429.211 49.1982 429.044 49.0166 428.822 48.8936C428.605 48.7646 428.332 48.7002 428.004 48.7002C427.735 48.7002 427.48 48.7559 427.24 48.8672C426.999 48.9785 426.806 49.1514 426.66 49.3857C426.513 49.6143 426.434 49.9131 426.422 50.2822H424.093C424.111 49.5146 424.292 48.876 424.638 48.3662C424.984 47.8506 425.45 47.4668 426.036 47.2148C426.622 46.957 427.278 46.8281 428.004 46.8281C428.807 46.8281 429.493 46.9629 430.061 47.2324C430.635 47.4961 431.072 47.8828 431.371 48.3926C431.675 48.9023 431.828 49.5176 431.828 50.2383C431.828 50.7539 431.728 51.2168 431.529 51.627C431.33 52.0312 431.066 52.4092 430.738 52.7607C430.41 53.1123 430.055 53.4668 429.674 53.8242C429.34 54.123 429.115 54.4424 428.997 54.7822C428.88 55.1221 428.819 55.5146 428.813 55.96ZM426.493 58.6934C426.493 58.3418 426.61 58.0488 426.844 57.8145C427.084 57.5801 427.407 57.4629 427.811 57.4629C428.215 57.4629 428.535 57.5801 428.769 57.8145C429.009 58.0488 429.129 58.3418 429.129 58.6934C429.129 59.0332 429.009 59.3203 428.769 59.5547C428.535 59.7891 428.215 59.9062 427.811 59.9062C427.407 59.9062 427.084 59.7891 426.844 59.5547C426.61 59.3203 426.493 59.0332 426.493 58.6934Z" fill="white"/>
<path d="M547 53L537 47.2265L537 58.7735L547 53ZM480.333 53C480.333 50.0545 477.946 47.6666 475 47.6666C472.054 47.6666 469.667 50.0545 469.667 53C469.667 55.9455 472.054 58.3333 475 58.3333C477.946 58.3333 480.333 55.9455 480.333 53ZM538 52L475 52L475 54L538 54L538 52Z" fill="#5384ED"/>
<rect x="547" y="30.5" width="246" height="45" rx="8" fill="#E2EDFD"/>
<path d="M611.656 46.7031V59.5H609.45V46.7031H611.656ZM616.288 52.0205V59.5H614.17V49.9902H616.165L616.288 52.0205ZM615.91 54.3936L615.225 54.3848C615.23 53.7109 615.324 53.0928 615.506 52.5303C615.693 51.9678 615.951 51.4844 616.279 51.0801C616.613 50.6758 617.012 50.3652 617.475 50.1484C617.938 49.9258 618.453 49.8145 619.021 49.8145C619.479 49.8145 619.892 49.8789 620.261 50.0078C620.636 50.1309 620.955 50.333 621.219 50.6143C621.488 50.8955 621.693 51.2617 621.834 51.7129C621.975 52.1582 622.045 52.7061 622.045 53.3564V59.5H619.918V53.3477C619.918 52.8906 619.851 52.5303 619.716 52.2666C619.587 51.9971 619.396 51.8066 619.145 51.6953C618.898 51.5781 618.591 51.5195 618.222 51.5195C617.858 51.5195 617.533 51.5957 617.246 51.748C616.959 51.9004 616.716 52.1084 616.517 52.3721C616.323 52.6357 616.174 52.9404 616.068 53.2861C615.963 53.6318 615.91 54.001 615.91 54.3936ZM628.566 49.9902V51.5371H623.205V49.9902H628.566ZM624.752 47.6611H626.87V56.8721C626.87 57.165 626.911 57.3906 626.993 57.5488C627.081 57.7012 627.201 57.8037 627.354 57.8564C627.506 57.9092 627.685 57.9355 627.89 57.9355C628.036 57.9355 628.177 57.9268 628.312 57.9092C628.446 57.8916 628.555 57.874 628.637 57.8564L628.646 59.4736C628.47 59.5264 628.265 59.5732 628.03 59.6143C627.802 59.6553 627.538 59.6758 627.239 59.6758C626.753 59.6758 626.322 59.5908 625.947 59.4209C625.572 59.2451 625.279 58.9609 625.068 58.5684C624.857 58.1758 624.752 57.6543 624.752 57.0039V47.6611ZM634.394 59.6758C633.69 59.6758 633.055 59.5615 632.486 59.333C631.924 59.0986 631.443 58.7734 631.045 58.3574C630.652 57.9414 630.351 57.4521 630.14 56.8896C629.929 56.3271 629.823 55.7207 629.823 55.0703V54.7188C629.823 53.9746 629.932 53.3008 630.148 52.6973C630.365 52.0938 630.667 51.5781 631.054 51.1504C631.44 50.7168 631.897 50.3857 632.425 50.1572C632.952 49.9287 633.523 49.8145 634.139 49.8145C634.818 49.8145 635.413 49.9287 635.923 50.1572C636.433 50.3857 636.854 50.708 637.188 51.124C637.528 51.5342 637.78 52.0234 637.944 52.5918C638.114 53.1602 638.199 53.7871 638.199 54.4727V55.3779H630.852V53.8574H636.107V53.6904C636.096 53.3096 636.02 52.9521 635.879 52.6182C635.744 52.2842 635.536 52.0146 635.255 51.8096C634.974 51.6045 634.599 51.502 634.13 51.502C633.778 51.502 633.465 51.5781 633.189 51.7305C632.92 51.877 632.694 52.0908 632.513 52.3721C632.331 52.6533 632.19 52.9932 632.091 53.3916C631.997 53.7842 631.95 54.2266 631.95 54.7188V55.0703C631.95 55.4863 632.006 55.873 632.117 56.2305C632.234 56.582 632.404 56.8896 632.627 57.1533C632.85 57.417 633.119 57.625 633.436 57.7773C633.752 57.9238 634.112 57.9971 634.517 57.9971C635.026 57.9971 635.48 57.8945 635.879 57.6895C636.277 57.4844 636.623 57.1943 636.916 56.8193L638.032 57.9004C637.827 58.1992 637.561 58.4863 637.232 58.7617C636.904 59.0312 636.503 59.251 636.028 59.4209C635.56 59.5908 635.015 59.6758 634.394 59.6758ZM641.979 51.8008V59.5H639.86V49.9902H641.882L641.979 51.8008ZM644.888 49.9287L644.87 51.8975C644.741 51.874 644.601 51.8564 644.448 51.8447C644.302 51.833 644.155 51.8271 644.009 51.8271C643.646 51.8271 643.326 51.8799 643.051 51.9854C642.775 52.085 642.544 52.2314 642.356 52.4248C642.175 52.6123 642.034 52.8408 641.935 53.1104C641.835 53.3799 641.776 53.6816 641.759 54.0156L641.275 54.0508C641.275 53.4531 641.334 52.8994 641.451 52.3896C641.568 51.8799 641.744 51.4316 641.979 51.0449C642.219 50.6582 642.518 50.3564 642.875 50.1396C643.238 49.9229 643.657 49.8145 644.132 49.8145C644.261 49.8145 644.398 49.8262 644.545 49.8496C644.697 49.873 644.812 49.8994 644.888 49.9287ZM649.467 57.8213L651.796 49.9902H653.993L650.688 59.5H649.317L649.467 57.8213ZM647.683 49.9902L650.056 57.8564L650.17 59.5H648.799L645.477 49.9902H647.683ZM657.57 49.9902V59.5H655.443V49.9902H657.57ZM655.303 47.4941C655.303 47.1719 655.408 46.9053 655.619 46.6943C655.836 46.4775 656.135 46.3691 656.516 46.3691C656.891 46.3691 657.187 46.4775 657.403 46.6943C657.62 46.9053 657.729 47.1719 657.729 47.4941C657.729 47.8105 657.62 48.0742 657.403 48.2852C657.187 48.4961 656.891 48.6016 656.516 48.6016C656.135 48.6016 655.836 48.4961 655.619 48.2852C655.408 48.0742 655.303 47.8105 655.303 47.4941ZM664.083 59.6758C663.38 59.6758 662.744 59.5615 662.176 59.333C661.613 59.0986 661.133 58.7734 660.734 58.3574C660.342 57.9414 660.04 57.4521 659.829 56.8896C659.618 56.3271 659.513 55.7207 659.513 55.0703V54.7188C659.513 53.9746 659.621 53.3008 659.838 52.6973C660.055 52.0938 660.356 51.5781 660.743 51.1504C661.13 50.7168 661.587 50.3857 662.114 50.1572C662.642 49.9287 663.213 49.8145 663.828 49.8145C664.508 49.8145 665.103 49.9287 665.612 50.1572C666.122 50.3857 666.544 50.708 666.878 51.124C667.218 51.5342 667.47 52.0234 667.634 52.5918C667.804 53.1602 667.889 53.7871 667.889 54.4727V55.3779H660.541V53.8574H665.797V53.6904C665.785 53.3096 665.709 52.9521 665.568 52.6182C665.434 52.2842 665.226 52.0146 664.944 51.8096C664.663 51.6045 664.288 51.502 663.819 51.502C663.468 51.502 663.154 51.5781 662.879 51.7305C662.609 51.877 662.384 52.0908 662.202 52.3721C662.021 52.6533 661.88 52.9932 661.78 53.3916C661.687 53.7842 661.64 54.2266 661.64 54.7188V55.0703C661.64 55.4863 661.695 55.873 661.807 56.2305C661.924 56.582 662.094 56.8896 662.316 57.1533C662.539 57.417 662.809 57.625 663.125 57.7773C663.441 57.9238 663.802 57.9971 664.206 57.9971C664.716 57.9971 665.17 57.8945 665.568 57.6895C665.967 57.4844 666.312 57.1943 666.605 56.8193L667.722 57.9004C667.517 58.1992 667.25 58.4863 666.922 58.7617C666.594 59.0312 666.192 59.251 665.718 59.4209C665.249 59.5908 664.704 59.6758 664.083 59.6758ZM672.125 57.3906L674.322 49.9902H675.676L675.307 52.2051L673.092 59.5H671.879L672.125 57.3906ZM670.833 49.9902L672.547 57.4258L672.688 59.5H671.334L668.759 49.9902H670.833ZM677.732 57.3379L679.394 49.9902H681.459L678.893 59.5H677.539L677.732 57.3379ZM675.904 49.9902L678.075 57.3027L678.348 59.5H677.135L674.894 52.1963L674.524 49.9902H675.904ZM689.483 52.0205V59.5H687.365V49.9902H689.36L689.483 52.0205ZM689.105 54.3936L688.42 54.3848C688.426 53.7109 688.52 53.0928 688.701 52.5303C688.889 51.9678 689.146 51.4844 689.475 51.0801C689.809 50.6758 690.207 50.3652 690.67 50.1484C691.133 49.9258 691.648 49.8145 692.217 49.8145C692.674 49.8145 693.087 49.8789 693.456 50.0078C693.831 50.1309 694.15 50.333 694.414 50.6143C694.684 50.8955 694.889 51.2617 695.029 51.7129C695.17 52.1582 695.24 52.7061 695.24 53.3564V59.5H693.113V53.3477C693.113 52.8906 693.046 52.5303 692.911 52.2666C692.782 51.9971 692.592 51.8066 692.34 51.6953C692.094 51.5781 691.786 51.5195 691.417 51.5195C691.054 51.5195 690.729 51.5957 690.441 51.748C690.154 51.9004 689.911 52.1084 689.712 52.3721C689.519 52.6357 689.369 52.9404 689.264 53.2861C689.158 53.6318 689.105 54.001 689.105 54.3936ZM702.764 57.5928V53.0576C702.764 52.7178 702.702 52.4248 702.579 52.1787C702.456 51.9326 702.269 51.7422 702.017 51.6074C701.771 51.4727 701.46 51.4053 701.085 51.4053C700.739 51.4053 700.44 51.4639 700.188 51.5811C699.937 51.6982 699.74 51.8564 699.6 52.0557C699.459 52.2549 699.389 52.4805 699.389 52.7324H697.279C697.279 52.3574 697.37 51.9941 697.552 51.6426C697.733 51.291 697.997 50.9775 698.343 50.7021C698.688 50.4268 699.102 50.21 699.582 50.0518C700.062 49.8936 700.602 49.8145 701.199 49.8145C701.914 49.8145 702.547 49.9346 703.098 50.1748C703.654 50.415 704.091 50.7783 704.407 51.2646C704.729 51.7451 704.891 52.3486 704.891 53.0752V57.3027C704.891 57.7363 704.92 58.126 704.979 58.4717C705.043 58.8115 705.134 59.1074 705.251 59.3594V59.5H703.08C702.98 59.2715 702.901 58.9814 702.843 58.6299C702.79 58.2725 702.764 57.9268 702.764 57.5928ZM703.071 53.7168L703.089 55.0264H701.568C701.176 55.0264 700.83 55.0645 700.531 55.1406C700.232 55.2109 699.983 55.3164 699.784 55.457C699.585 55.5977 699.436 55.7676 699.336 55.9668C699.236 56.166 699.187 56.3916 699.187 56.6436C699.187 56.8955 699.245 57.127 699.362 57.3379C699.479 57.543 699.649 57.7041 699.872 57.8213C700.101 57.9385 700.376 57.9971 700.698 57.9971C701.132 57.9971 701.51 57.9092 701.832 57.7334C702.16 57.5518 702.418 57.332 702.605 57.0742C702.793 56.8105 702.893 56.5615 702.904 56.3271L703.59 57.2676C703.52 57.5078 703.399 57.7656 703.229 58.041C703.06 58.3164 702.837 58.5801 702.562 58.832C702.292 59.0781 701.967 59.2803 701.586 59.4385C701.211 59.5967 700.777 59.6758 700.285 59.6758C699.664 59.6758 699.11 59.5527 698.624 59.3066C698.138 59.0547 697.757 58.7178 697.481 58.2959C697.206 57.8682 697.068 57.3848 697.068 56.8457C697.068 56.3418 697.162 55.8965 697.35 55.5098C697.543 55.1172 697.824 54.7891 698.193 54.5254C698.568 54.2617 699.025 54.0625 699.564 53.9277C700.104 53.7871 700.719 53.7168 701.41 53.7168H703.071ZM709.224 51.9238V59.5H707.105V49.9902H709.101L709.224 51.9238ZM708.881 54.3936L708.16 54.3848C708.16 53.7285 708.242 53.1221 708.406 52.5654C708.57 52.0088 708.811 51.5254 709.127 51.1152C709.443 50.6992 709.836 50.3799 710.305 50.1572C710.779 49.9287 711.327 49.8145 711.948 49.8145C712.382 49.8145 712.777 49.8789 713.135 50.0078C713.498 50.1309 713.812 50.3271 714.075 50.5967C714.345 50.8662 714.55 51.2119 714.69 51.6338C714.837 52.0557 714.91 52.5654 714.91 53.1631V59.5H712.792V53.3477C712.792 52.8848 712.722 52.5215 712.581 52.2578C712.446 51.9941 712.25 51.8066 711.992 51.6953C711.74 51.5781 711.438 51.5195 711.087 51.5195C710.688 51.5195 710.349 51.5957 710.067 51.748C709.792 51.9004 709.566 52.1084 709.391 52.3721C709.215 52.6357 709.086 52.9404 709.004 53.2861C708.922 53.6318 708.881 54.001 708.881 54.3936ZM714.778 53.8311L713.785 54.0508C713.785 53.4766 713.864 52.9346 714.022 52.4248C714.187 51.9092 714.424 51.458 714.734 51.0713C715.051 50.6787 715.44 50.3711 715.903 50.1484C716.366 49.9258 716.896 49.8145 717.494 49.8145C717.98 49.8145 718.414 49.8818 718.795 50.0166C719.182 50.1455 719.51 50.3506 719.779 50.6318C720.049 50.9131 720.254 51.2793 720.395 51.7305C720.535 52.1758 720.605 52.7148 720.605 53.3477V59.5H718.479V53.3389C718.479 52.8584 718.408 52.4863 718.268 52.2227C718.133 51.959 717.939 51.7773 717.688 51.6777C717.436 51.5723 717.134 51.5195 716.782 51.5195C716.454 51.5195 716.164 51.5811 715.912 51.7041C715.666 51.8213 715.458 51.9883 715.288 52.2051C715.118 52.416 714.989 52.6592 714.901 52.9346C714.819 53.21 714.778 53.5088 714.778 53.8311ZM726.978 59.6758C726.274 59.6758 725.639 59.5615 725.07 59.333C724.508 59.0986 724.027 58.7734 723.629 58.3574C723.236 57.9414 722.935 57.4521 722.724 56.8896C722.513 56.3271 722.407 55.7207 722.407 55.0703V54.7188C722.407 53.9746 722.516 53.3008 722.732 52.6973C722.949 52.0938 723.251 51.5781 723.638 51.1504C724.024 50.7168 724.481 50.3857 725.009 50.1572C725.536 49.9287 726.107 49.8145 726.723 49.8145C727.402 49.8145 727.997 49.9287 728.507 50.1572C729.017 50.3857 729.438 50.708 729.772 51.124C730.112 51.5342 730.364 52.0234 730.528 52.5918C730.698 53.1602 730.783 53.7871 730.783 54.4727V55.3779H723.436V53.8574H728.691V53.6904C728.68 53.3096 728.604 52.9521 728.463 52.6182C728.328 52.2842 728.12 52.0146 727.839 51.8096C727.558 51.6045 727.183 51.502 726.714 51.502C726.362 51.502 726.049 51.5781 725.773 51.7305C725.504 51.877 725.278 52.0908 725.097 52.3721C724.915 52.6533 724.774 52.9932 724.675 53.3916C724.581 53.7842 724.534 54.2266 724.534 54.7188V55.0703C724.534 55.4863 724.59 55.873 724.701 56.2305C724.818 56.582 724.988 56.8896 725.211 57.1533C725.434 57.417 725.703 57.625 726.02 57.7773C726.336 57.9238 726.696 57.9971 727.101 57.9971C727.61 57.9971 728.064 57.8945 728.463 57.6895C728.861 57.4844 729.207 57.1943 729.5 56.8193L730.616 57.9004C730.411 58.1992 730.145 58.4863 729.816 58.7617C729.488 59.0312 729.087 59.251 728.612 59.4209C728.144 59.5908 727.599 59.6758 726.978 59.6758Z" fill="#5384ED"/>
<path d="M865 53L855 47.2265L855 58.7735L865 53ZM798.333 53C798.333 50.0545 795.946 47.6666 793 47.6666C790.054 47.6666 787.667 50.0545 787.667 53C787.667 55.9455 790.054 58.3333 793 58.3333C795.946 58.3333 798.333 55.9455 798.333 53ZM856 52L793 52L793 54L856 54L856 52Z" fill="#5384ED"/>
<rect x="865" y="30.5" width="246" height="45" rx="8" fill="#E2EDFD"/>
<path d="M918.656 46.7031V59.5H916.45V46.7031H918.656ZM923.288 52.0205V59.5H921.17V49.9902H923.165L923.288 52.0205ZM922.91 54.3936L922.225 54.3848C922.23 53.7109 922.324 53.0928 922.506 52.5303C922.693 51.9678 922.951 51.4844 923.279 51.0801C923.613 50.6758 924.012 50.3652 924.475 50.1484C924.938 49.9258 925.453 49.8145 926.021 49.8145C926.479 49.8145 926.892 49.8789 927.261 50.0078C927.636 50.1309 927.955 50.333 928.219 50.6143C928.488 50.8955 928.693 51.2617 928.834 51.7129C928.975 52.1582 929.045 52.7061 929.045 53.3564V59.5H926.918V53.3477C926.918 52.8906 926.851 52.5303 926.716 52.2666C926.587 51.9971 926.396 51.8066 926.145 51.6953C925.898 51.5781 925.591 51.5195 925.222 51.5195C924.858 51.5195 924.533 51.5957 924.246 51.748C923.959 51.9004 923.716 52.1084 923.517 52.3721C923.323 52.6357 923.174 52.9404 923.068 53.2861C922.963 53.6318 922.91 54.001 922.91 54.3936ZM935.566 49.9902V51.5371H930.205V49.9902H935.566ZM931.752 47.6611H933.87V56.8721C933.87 57.165 933.911 57.3906 933.993 57.5488C934.081 57.7012 934.201 57.8037 934.354 57.8564C934.506 57.9092 934.685 57.9355 934.89 57.9355C935.036 57.9355 935.177 57.9268 935.312 57.9092C935.446 57.8916 935.555 57.874 935.637 57.8564L935.646 59.4736C935.47 59.5264 935.265 59.5732 935.03 59.6143C934.802 59.6553 934.538 59.6758 934.239 59.6758C933.753 59.6758 933.322 59.5908 932.947 59.4209C932.572 59.2451 932.279 58.9609 932.068 58.5684C931.857 58.1758 931.752 57.6543 931.752 57.0039V47.6611ZM941.394 59.6758C940.69 59.6758 940.055 59.5615 939.486 59.333C938.924 59.0986 938.443 58.7734 938.045 58.3574C937.652 57.9414 937.351 57.4521 937.14 56.8896C936.929 56.3271 936.823 55.7207 936.823 55.0703V54.7188C936.823 53.9746 936.932 53.3008 937.148 52.6973C937.365 52.0938 937.667 51.5781 938.054 51.1504C938.44 50.7168 938.897 50.3857 939.425 50.1572C939.952 49.9287 940.523 49.8145 941.139 49.8145C941.818 49.8145 942.413 49.9287 942.923 50.1572C943.433 50.3857 943.854 50.708 944.188 51.124C944.528 51.5342 944.78 52.0234 944.944 52.5918C945.114 53.1602 945.199 53.7871 945.199 54.4727V55.3779H937.852V53.8574H943.107V53.6904C943.096 53.3096 943.02 52.9521 942.879 52.6182C942.744 52.2842 942.536 52.0146 942.255 51.8096C941.974 51.6045 941.599 51.502 941.13 51.502C940.778 51.502 940.465 51.5781 940.189 51.7305C939.92 51.877 939.694 52.0908 939.513 52.3721C939.331 52.6533 939.19 52.9932 939.091 53.3916C938.997 53.7842 938.95 54.2266 938.95 54.7188V55.0703C938.95 55.4863 939.006 55.873 939.117 56.2305C939.234 56.582 939.404 56.8896 939.627 57.1533C939.85 57.417 940.119 57.625 940.436 57.7773C940.752 57.9238 941.112 57.9971 941.517 57.9971C942.026 57.9971 942.48 57.8945 942.879 57.6895C943.277 57.4844 943.623 57.1943 943.916 56.8193L945.032 57.9004C944.827 58.1992 944.561 58.4863 944.232 58.7617C943.904 59.0312 943.503 59.251 943.028 59.4209C942.56 59.5908 942.015 59.6758 941.394 59.6758ZM948.979 51.8008V59.5H946.86V49.9902H948.882L948.979 51.8008ZM951.888 49.9287L951.87 51.8975C951.741 51.874 951.601 51.8564 951.448 51.8447C951.302 51.833 951.155 51.8271 951.009 51.8271C950.646 51.8271 950.326 51.8799 950.051 51.9854C949.775 52.085 949.544 52.2314 949.356 52.4248C949.175 52.6123 949.034 52.8408 948.935 53.1104C948.835 53.3799 948.776 53.6816 948.759 54.0156L948.275 54.0508C948.275 53.4531 948.334 52.8994 948.451 52.3896C948.568 51.8799 948.744 51.4316 948.979 51.0449C949.219 50.6582 949.518 50.3564 949.875 50.1396C950.238 49.9229 950.657 49.8145 951.132 49.8145C951.261 49.8145 951.398 49.8262 951.545 49.8496C951.697 49.873 951.812 49.8994 951.888 49.9287ZM956.467 57.8213L958.796 49.9902H960.993L957.688 59.5H956.317L956.467 57.8213ZM954.683 49.9902L957.056 57.8564L957.17 59.5H955.799L952.477 49.9902H954.683ZM964.57 49.9902V59.5H962.443V49.9902H964.57ZM962.303 47.4941C962.303 47.1719 962.408 46.9053 962.619 46.6943C962.836 46.4775 963.135 46.3691 963.516 46.3691C963.891 46.3691 964.187 46.4775 964.403 46.6943C964.62 46.9053 964.729 47.1719 964.729 47.4941C964.729 47.8105 964.62 48.0742 964.403 48.2852C964.187 48.4961 963.891 48.6016 963.516 48.6016C963.135 48.6016 962.836 48.4961 962.619 48.2852C962.408 48.0742 962.303 47.8105 962.303 47.4941ZM971.083 59.6758C970.38 59.6758 969.744 59.5615 969.176 59.333C968.613 59.0986 968.133 58.7734 967.734 58.3574C967.342 57.9414 967.04 57.4521 966.829 56.8896C966.618 56.3271 966.513 55.7207 966.513 55.0703V54.7188C966.513 53.9746 966.621 53.3008 966.838 52.6973C967.055 52.0938 967.356 51.5781 967.743 51.1504C968.13 50.7168 968.587 50.3857 969.114 50.1572C969.642 49.9287 970.213 49.8145 970.828 49.8145C971.508 49.8145 972.103 49.9287 972.612 50.1572C973.122 50.3857 973.544 50.708 973.878 51.124C974.218 51.5342 974.47 52.0234 974.634 52.5918C974.804 53.1602 974.889 53.7871 974.889 54.4727V55.3779H967.541V53.8574H972.797V53.6904C972.785 53.3096 972.709 52.9521 972.568 52.6182C972.434 52.2842 972.226 52.0146 971.944 51.8096C971.663 51.6045 971.288 51.502 970.819 51.502C970.468 51.502 970.154 51.5781 969.879 51.7305C969.609 51.877 969.384 52.0908 969.202 52.3721C969.021 52.6533 968.88 52.9932 968.78 53.3916C968.687 53.7842 968.64 54.2266 968.64 54.7188V55.0703C968.64 55.4863 968.695 55.873 968.807 56.2305C968.924 56.582 969.094 56.8896 969.316 57.1533C969.539 57.417 969.809 57.625 970.125 57.7773C970.441 57.9238 970.802 57.9971 971.206 57.9971C971.716 57.9971 972.17 57.8945 972.568 57.6895C972.967 57.4844 973.312 57.1943 973.605 56.8193L974.722 57.9004C974.517 58.1992 974.25 58.4863 973.922 58.7617C973.594 59.0312 973.192 59.251 972.718 59.4209C972.249 59.5908 971.704 59.6758 971.083 59.6758ZM979.125 57.3906L981.322 49.9902H982.676L982.307 52.2051L980.092 59.5H978.879L979.125 57.3906ZM977.833 49.9902L979.547 57.4258L979.688 59.5H978.334L975.759 49.9902H977.833ZM984.732 57.3379L986.394 49.9902H988.459L985.893 59.5H984.539L984.732 57.3379ZM982.904 49.9902L985.075 57.3027L985.348 59.5H984.135L981.894 52.1963L981.524 49.9902H982.904ZM1000.18 57.5312V46H1002.31V59.5H1000.39L1000.18 57.5312ZM993.996 54.8506V54.666C993.996 53.9453 994.081 53.2891 994.251 52.6973C994.421 52.0996 994.667 51.5869 994.989 51.1592C995.312 50.7256 995.704 50.3945 996.167 50.166C996.63 49.9316 997.151 49.8145 997.731 49.8145C998.306 49.8145 998.81 49.9258 999.243 50.1484C999.677 50.3711 1000.05 50.6904 1000.35 51.1064C1000.66 51.5166 1000.9 52.0088 1001.08 52.583C1001.26 53.1514 1001.39 53.7842 1001.47 54.4814V55.0703C1001.39 55.75 1001.26 56.3711 1001.08 56.9336C1000.9 57.4961 1000.66 57.9824 1000.35 58.3926C1000.05 58.8027 999.674 59.1191 999.234 59.3418C998.801 59.5645 998.294 59.6758 997.714 59.6758C997.14 59.6758 996.621 59.5557 996.158 59.3154C995.701 59.0752 995.312 58.7383 994.989 58.3047C994.667 57.8711 994.421 57.3613 994.251 56.7754C994.081 56.1836 993.996 55.542 993.996 54.8506ZM996.114 54.666V54.8506C996.114 55.2842 996.152 55.6885 996.229 56.0635C996.311 56.4385 996.437 56.7695 996.606 57.0566C996.776 57.3379 996.996 57.5605 997.266 57.7246C997.541 57.8828 997.869 57.9619 998.25 57.9619C998.73 57.9619 999.126 57.8564 999.437 57.6455C999.747 57.4346 999.99 57.1504 1000.17 56.793C1000.35 56.4297 1000.47 56.0254 1000.54 55.5801V53.9893C1000.5 53.6436 1000.43 53.3213 1000.32 53.0225C1000.21 52.7236 1000.07 52.4629 999.885 52.2402C999.703 52.0117 999.478 51.8359 999.208 51.7129C998.944 51.584 998.631 51.5195 998.268 51.5195C997.881 51.5195 997.553 51.6016 997.283 51.7656C997.014 51.9297 996.791 52.1553 996.615 52.4424C996.445 52.7295 996.319 53.0635 996.237 53.4443C996.155 53.8252 996.114 54.2324 996.114 54.666ZM1010.25 57.2588V49.9902H1012.37V59.5H1010.37L1010.25 57.2588ZM1010.55 55.2812L1011.26 55.2637C1011.26 55.9023 1011.19 56.4912 1011.05 57.0303C1010.91 57.5635 1010.69 58.0293 1010.4 58.4277C1010.1 58.8203 1009.73 59.1279 1009.27 59.3506C1008.81 59.5674 1008.27 59.6758 1007.63 59.6758C1007.17 59.6758 1006.74 59.6084 1006.35 59.4736C1005.97 59.3389 1005.63 59.1309 1005.35 58.8496C1005.08 58.5684 1004.86 58.2021 1004.71 57.751C1004.56 57.2998 1004.48 56.7607 1004.48 56.1338V49.9902H1006.6V56.1514C1006.6 56.4971 1006.64 56.7871 1006.72 57.0215C1006.8 57.25 1006.92 57.4346 1007.06 57.5752C1007.2 57.7158 1007.36 57.8154 1007.55 57.874C1007.74 57.9326 1007.94 57.9619 1008.15 57.9619C1008.75 57.9619 1009.22 57.8447 1009.57 57.6104C1009.92 57.3701 1010.17 57.0479 1010.32 56.6436C1010.47 56.2393 1010.55 55.7852 1010.55 55.2812ZM1016.67 51.8008V59.5H1014.55V49.9902H1016.58L1016.67 51.8008ZM1019.58 49.9287L1019.56 51.8975C1019.43 51.874 1019.29 51.8564 1019.14 51.8447C1019 51.833 1018.85 51.8271 1018.7 51.8271C1018.34 51.8271 1018.02 51.8799 1017.74 51.9854C1017.47 52.085 1017.24 52.2314 1017.05 52.4248C1016.87 52.6123 1016.73 52.8408 1016.63 53.1104C1016.53 53.3799 1016.47 53.6816 1016.45 54.0156L1015.97 54.0508C1015.97 53.4531 1016.03 52.8994 1016.14 52.3896C1016.26 51.8799 1016.44 51.4316 1016.67 51.0449C1016.91 50.6582 1017.21 50.3564 1017.57 50.1396C1017.93 49.9229 1018.35 49.8145 1018.83 49.8145C1018.95 49.8145 1019.09 49.8262 1019.24 49.8496C1019.39 49.873 1019.5 49.8994 1019.58 49.9287ZM1025.95 57.5928V53.0576C1025.95 52.7178 1025.89 52.4248 1025.77 52.1787C1025.65 51.9326 1025.46 51.7422 1025.21 51.6074C1024.96 51.4727 1024.65 51.4053 1024.27 51.4053C1023.93 51.4053 1023.63 51.4639 1023.38 51.5811C1023.13 51.6982 1022.93 51.8564 1022.79 52.0557C1022.65 52.2549 1022.58 52.4805 1022.58 52.7324H1020.47C1020.47 52.3574 1020.56 51.9941 1020.74 51.6426C1020.92 51.291 1021.19 50.9775 1021.53 50.7021C1021.88 50.4268 1022.29 50.21 1022.77 50.0518C1023.25 49.8936 1023.79 49.8145 1024.39 49.8145C1025.1 49.8145 1025.74 49.9346 1026.29 50.1748C1026.84 50.415 1027.28 50.7783 1027.6 51.2646C1027.92 51.7451 1028.08 52.3486 1028.08 53.0752V57.3027C1028.08 57.7363 1028.11 58.126 1028.17 58.4717C1028.23 58.8115 1028.32 59.1074 1028.44 59.3594V59.5H1026.27C1026.17 59.2715 1026.09 58.9814 1026.03 58.6299C1025.98 58.2725 1025.95 57.9268 1025.95 57.5928ZM1026.26 53.7168L1026.28 55.0264H1024.76C1024.37 55.0264 1024.02 55.0645 1023.72 55.1406C1023.42 55.2109 1023.17 55.3164 1022.97 55.457C1022.77 55.5977 1022.62 55.7676 1022.53 55.9668C1022.43 56.166 1022.38 56.3916 1022.38 56.6436C1022.38 56.8955 1022.43 57.127 1022.55 57.3379C1022.67 57.543 1022.84 57.7041 1023.06 57.8213C1023.29 57.9385 1023.57 57.9971 1023.89 57.9971C1024.32 57.9971 1024.7 57.9092 1025.02 57.7334C1025.35 57.5518 1025.61 57.332 1025.79 57.0742C1025.98 56.8105 1026.08 56.5615 1026.09 56.3271L1026.78 57.2676C1026.71 57.5078 1026.59 57.7656 1026.42 58.041C1026.25 58.3164 1026.03 58.5801 1025.75 58.832C1025.48 59.0781 1025.16 59.2803 1024.78 59.4385C1024.4 59.5967 1023.97 59.6758 1023.47 59.6758C1022.85 59.6758 1022.3 59.5527 1021.81 59.3066C1021.33 59.0547 1020.95 58.7178 1020.67 58.2959C1020.4 57.8682 1020.26 57.3848 1020.26 56.8457C1020.26 56.3418 1020.35 55.8965 1020.54 55.5098C1020.73 55.1172 1021.01 54.7891 1021.38 54.5254C1021.76 54.2617 1022.21 54.0625 1022.75 53.9277C1023.29 53.7871 1023.91 53.7168 1024.6 53.7168H1026.26ZM1034.65 49.9902V51.5371H1029.29V49.9902H1034.65ZM1030.84 47.6611H1032.96V56.8721C1032.96 57.165 1033 57.3906 1033.08 57.5488C1033.17 57.7012 1033.29 57.8037 1033.44 57.8564C1033.59 57.9092 1033.77 57.9355 1033.98 57.9355C1034.12 57.9355 1034.26 57.9268 1034.4 57.9092C1034.53 57.8916 1034.64 57.874 1034.72 57.8564L1034.73 59.4736C1034.56 59.5264 1034.35 59.5732 1034.12 59.6143C1033.89 59.6553 1033.63 59.6758 1033.33 59.6758C1032.84 59.6758 1032.41 59.5908 1032.04 59.4209C1031.66 59.2451 1031.37 58.9609 1031.16 58.5684C1030.95 58.1758 1030.84 57.6543 1030.84 57.0039V47.6611ZM1038.56 49.9902V59.5H1036.43V49.9902H1038.56ZM1036.29 47.4941C1036.29 47.1719 1036.39 46.9053 1036.61 46.6943C1036.82 46.4775 1037.12 46.3691 1037.5 46.3691C1037.88 46.3691 1038.17 46.4775 1038.39 46.6943C1038.61 46.9053 1038.71 47.1719 1038.71 47.4941C1038.71 47.8105 1038.61 48.0742 1038.39 48.2852C1038.17 48.4961 1037.88 48.6016 1037.5 48.6016C1037.12 48.6016 1036.82 48.4961 1036.61 48.2852C1036.39 48.0742 1036.29 47.8105 1036.29 47.4941ZM1040.47 54.8506V54.6484C1040.47 53.9629 1040.57 53.3271 1040.77 52.7412C1040.97 52.1494 1041.26 51.6367 1041.63 51.2031C1042.01 50.7637 1042.48 50.4238 1043.02 50.1836C1043.57 49.9375 1044.19 49.8145 1044.88 49.8145C1045.58 49.8145 1046.2 49.9375 1046.75 50.1836C1047.3 50.4238 1047.76 50.7637 1048.15 51.2031C1048.53 51.6367 1048.82 52.1494 1049.02 52.7412C1049.21 53.3271 1049.31 53.9629 1049.31 54.6484V54.8506C1049.31 55.5361 1049.21 56.1719 1049.02 56.7578C1048.82 57.3438 1048.53 57.8564 1048.15 58.2959C1047.76 58.7295 1047.3 59.0693 1046.76 59.3154C1046.21 59.5557 1045.59 59.6758 1044.9 59.6758C1044.21 59.6758 1043.58 59.5557 1043.03 59.3154C1042.49 59.0693 1042.02 58.7295 1041.64 58.2959C1041.26 57.8564 1040.97 57.3438 1040.77 56.7578C1040.57 56.1719 1040.47 55.5361 1040.47 54.8506ZM1042.59 54.6484V54.8506C1042.59 55.2783 1042.63 55.6826 1042.72 56.0635C1042.81 56.4443 1042.95 56.7783 1043.14 57.0654C1043.32 57.3525 1043.56 57.5781 1043.86 57.7422C1044.15 57.9062 1044.5 57.9883 1044.9 57.9883C1045.29 57.9883 1045.63 57.9062 1045.92 57.7422C1046.21 57.5781 1046.46 57.3525 1046.64 57.0654C1046.83 56.7783 1046.97 56.4443 1047.06 56.0635C1047.15 55.6826 1047.2 55.2783 1047.2 54.8506V54.6484C1047.2 54.2266 1047.15 53.8281 1047.06 53.4531C1046.97 53.0723 1046.83 52.7354 1046.63 52.4424C1046.45 52.1494 1046.21 51.9209 1045.91 51.7568C1045.63 51.5869 1045.28 51.502 1044.88 51.502C1044.49 51.502 1044.14 51.5869 1043.85 51.7568C1043.56 51.9209 1043.32 52.1494 1043.14 52.4424C1042.95 52.7354 1042.81 53.0723 1042.72 53.4531C1042.63 53.8281 1042.59 54.2266 1042.59 54.6484ZM1053.19 52.0205V59.5H1051.07V49.9902H1053.07L1053.19 52.0205ZM1052.81 54.3936L1052.13 54.3848C1052.13 53.7109 1052.23 53.0928 1052.41 52.5303C1052.6 51.9678 1052.85 51.4844 1053.18 51.0801C1053.52 50.6758 1053.91 50.3652 1054.38 50.1484C1054.84 49.9258 1055.36 49.8145 1055.92 49.8145C1056.38 49.8145 1056.79 49.8789 1057.16 50.0078C1057.54 50.1309 1057.86 50.333 1058.12 50.6143C1058.39 50.8955 1058.6 51.2617 1058.74 51.7129C1058.88 52.1582 1058.95 52.7061 1058.95 53.3564V59.5H1056.82V53.3477C1056.82 52.8906 1056.75 52.5303 1056.62 52.2666C1056.49 51.9971 1056.3 51.8066 1056.05 51.6953C1055.8 51.5781 1055.49 51.5195 1055.12 51.5195C1054.76 51.5195 1054.44 51.5957 1054.15 51.748C1053.86 51.9004 1053.62 52.1084 1053.42 52.3721C1053.23 52.6357 1053.08 52.9404 1052.97 53.2861C1052.87 53.6318 1052.81 54.001 1052.81 54.3936Z" fill="#5384ED"/>
<path d="M1183 53L1173 47.2265L1173 58.7735L1183 53ZM1116.33 53C1116.33 50.0545 1113.95 47.6666 1111 47.6666C1108.05 47.6666 1105.67 50.0545 1105.67 53C1105.67 55.9455 1108.05 58.3333 1111 58.3333C1113.95 58.3333 1116.33 55.9455 1116.33 53ZM1174 52L1111 52L1111 54L1174 54L1174 52Z" fill="#5384ED"/>
<rect x="1183" y="30.5" width="246" height="45" rx="8" fill="#E2EDFD"/>
<path d="M1209.3 46.7031H1213.83C1214.8 46.7031 1215.63 46.8496 1216.31 47.1426C1217 47.4355 1217.52 47.8691 1217.89 48.4434C1218.26 49.0117 1218.44 49.7148 1218.44 50.5527C1218.44 51.1914 1218.32 51.7539 1218.09 52.2402C1217.86 52.7266 1217.52 53.1367 1217.1 53.4707C1216.67 53.7988 1216.16 54.0537 1215.57 54.2354L1214.9 54.5605H1210.83L1210.81 52.8115H1213.86C1214.39 52.8115 1214.83 52.7178 1215.18 52.5303C1215.53 52.3428 1215.8 52.0879 1215.97 51.7656C1216.15 51.4375 1216.24 51.0684 1216.24 50.6582C1216.24 50.2129 1216.16 49.8262 1215.98 49.498C1215.81 49.1641 1215.55 48.9092 1215.19 48.7334C1214.83 48.5518 1214.38 48.4609 1213.83 48.4609H1211.51V59.5H1209.3V46.7031ZM1216.6 59.5L1213.6 53.752L1215.91 53.7432L1218.96 59.3857V59.5H1216.6ZM1224.62 59.6758C1223.92 59.6758 1223.28 59.5615 1222.71 59.333C1222.15 59.0986 1221.67 58.7734 1221.27 58.3574C1220.88 57.9414 1220.58 57.4521 1220.37 56.8896C1220.16 56.3271 1220.05 55.7207 1220.05 55.0703V54.7188C1220.05 53.9746 1220.16 53.3008 1220.38 52.6973C1220.59 52.0938 1220.89 51.5781 1221.28 51.1504C1221.67 50.7168 1222.12 50.3857 1222.65 50.1572C1223.18 49.9287 1223.75 49.8145 1224.37 49.8145C1225.04 49.8145 1225.64 49.9287 1226.15 50.1572C1226.66 50.3857 1227.08 50.708 1227.42 51.124C1227.75 51.5342 1228.01 52.0234 1228.17 52.5918C1228.34 53.1602 1228.43 53.7871 1228.43 54.4727V55.3779H1221.08V53.8574H1226.33V53.6904C1226.32 53.3096 1226.25 52.9521 1226.11 52.6182C1225.97 52.2842 1225.76 52.0146 1225.48 51.8096C1225.2 51.6045 1224.83 51.502 1224.36 51.502C1224 51.502 1223.69 51.5781 1223.42 51.7305C1223.15 51.877 1222.92 52.0908 1222.74 52.3721C1222.56 52.6533 1222.42 52.9932 1222.32 53.3916C1222.22 53.7842 1222.18 54.2266 1222.18 54.7188V55.0703C1222.18 55.4863 1222.23 55.873 1222.34 56.2305C1222.46 56.582 1222.63 56.8896 1222.85 57.1533C1223.08 57.417 1223.35 57.625 1223.66 57.7773C1223.98 57.9238 1224.34 57.9971 1224.74 57.9971C1225.25 57.9971 1225.71 57.8945 1226.11 57.6895C1226.5 57.4844 1226.85 57.1943 1227.14 56.8193L1228.26 57.9004C1228.05 58.1992 1227.79 58.4863 1227.46 58.7617C1227.13 59.0312 1226.73 59.251 1226.25 59.4209C1225.79 59.5908 1225.24 59.6758 1224.62 59.6758ZM1235.87 63.1562V51.8799L1236.12 49.9902H1238.01V63.1562H1235.87ZM1229.69 54.8418V54.6572C1229.69 53.9365 1229.77 53.2803 1229.94 52.6885C1230.1 52.0908 1230.34 51.5781 1230.67 51.1504C1230.99 50.7227 1231.38 50.3945 1231.84 50.166C1232.31 49.9316 1232.84 49.8145 1233.44 49.8145C1234.03 49.8145 1234.54 49.9258 1234.97 50.1484C1235.41 50.3711 1235.78 50.6904 1236.08 51.1064C1236.39 51.5166 1236.63 52.0059 1236.81 52.5742C1236.99 53.1426 1237.12 53.7754 1237.21 54.4727V55.0615C1237.13 55.7412 1237 56.3623 1236.82 56.9248C1236.64 57.4873 1236.39 57.9736 1236.09 58.3838C1235.79 58.7939 1235.41 59.1133 1234.97 59.3418C1234.53 59.5645 1234.02 59.6758 1233.43 59.6758C1232.83 59.6758 1232.31 59.5557 1231.84 59.3154C1231.38 59.0752 1230.99 58.7383 1230.67 58.3047C1230.35 57.8652 1230.11 57.3525 1229.94 56.7666C1229.77 56.1748 1229.69 55.5332 1229.69 54.8418ZM1231.81 54.6572V54.8418C1231.81 55.2754 1231.85 55.6826 1231.92 56.0635C1232.01 56.4385 1232.13 56.7725 1232.31 57.0654C1232.49 57.3525 1232.71 57.5781 1232.98 57.7422C1233.25 57.9062 1233.57 57.9883 1233.95 57.9883C1234.45 57.9883 1234.86 57.8799 1235.18 57.6631C1235.5 57.4463 1235.74 57.1562 1235.91 56.793C1236.09 56.4238 1236.21 56.0166 1236.28 55.5713V53.9805C1236.24 53.6348 1236.17 53.3125 1236.06 53.0137C1235.96 52.709 1235.81 52.4453 1235.62 52.2227C1235.44 51.9941 1235.21 51.8184 1234.94 51.6953C1234.67 51.5664 1234.35 51.502 1233.97 51.502C1233.59 51.502 1233.26 51.584 1232.99 51.748C1232.71 51.9121 1232.49 52.1406 1232.31 52.4336C1232.14 52.7207 1232.01 53.0547 1231.93 53.4355C1231.85 53.8164 1231.81 54.2236 1231.81 54.6572ZM1246 57.2588V49.9902H1248.12V59.5H1246.12L1246 57.2588ZM1246.29 55.2812L1247.01 55.2637C1247.01 55.9023 1246.94 56.4912 1246.79 57.0303C1246.65 57.5635 1246.44 58.0293 1246.14 58.4277C1245.85 58.8203 1245.48 59.1279 1245.02 59.3506C1244.56 59.5674 1244.01 59.6758 1243.38 59.6758C1242.91 59.6758 1242.49 59.6084 1242.1 59.4736C1241.71 59.3389 1241.38 59.1309 1241.1 58.8496C1240.82 58.5684 1240.61 58.2021 1240.46 57.751C1240.31 57.2998 1240.23 56.7607 1240.23 56.1338V49.9902H1242.35V56.1514C1242.35 56.4971 1242.39 56.7871 1242.47 57.0215C1242.55 57.25 1242.66 57.4346 1242.8 57.5752C1242.95 57.7158 1243.11 57.8154 1243.3 57.874C1243.48 57.9326 1243.68 57.9619 1243.89 57.9619C1244.5 57.9619 1244.97 57.8447 1245.32 57.6104C1245.67 57.3701 1245.92 57.0479 1246.07 56.6436C1246.22 56.2393 1246.29 55.7852 1246.29 55.2812ZM1252.56 49.9902V59.5H1250.43V49.9902H1252.56ZM1250.29 47.4941C1250.29 47.1719 1250.4 46.9053 1250.61 46.6943C1250.83 46.4775 1251.12 46.3691 1251.51 46.3691C1251.88 46.3691 1252.18 46.4775 1252.39 46.6943C1252.61 46.9053 1252.72 47.1719 1252.72 47.4941C1252.72 47.8105 1252.61 48.0742 1252.39 48.2852C1252.18 48.4961 1251.88 48.6016 1251.51 48.6016C1251.12 48.6016 1250.83 48.4961 1250.61 48.2852C1250.4 48.0742 1250.29 47.8105 1250.29 47.4941ZM1257.01 51.8008V59.5H1254.89V49.9902H1256.91L1257.01 51.8008ZM1259.92 49.9287L1259.9 51.8975C1259.77 51.874 1259.63 51.8564 1259.48 51.8447C1259.33 51.833 1259.18 51.8271 1259.04 51.8271C1258.67 51.8271 1258.36 51.8799 1258.08 51.9854C1257.8 52.085 1257.57 52.2314 1257.39 52.4248C1257.2 52.6123 1257.06 52.8408 1256.96 53.1104C1256.86 53.3799 1256.81 53.6816 1256.79 54.0156L1256.3 54.0508C1256.3 53.4531 1256.36 52.8994 1256.48 52.3896C1256.6 51.8799 1256.77 51.4316 1257.01 51.0449C1257.25 50.6582 1257.55 50.3564 1257.9 50.1396C1258.27 49.9229 1258.69 49.8145 1259.16 49.8145C1259.29 49.8145 1259.43 49.8262 1259.57 49.8496C1259.73 49.873 1259.84 49.8994 1259.92 49.9287ZM1265.26 59.6758C1264.56 59.6758 1263.92 59.5615 1263.35 59.333C1262.79 59.0986 1262.31 58.7734 1261.91 58.3574C1261.52 57.9414 1261.22 57.4521 1261.01 56.8896C1260.8 56.3271 1260.69 55.7207 1260.69 55.0703V54.7188C1260.69 53.9746 1260.8 53.3008 1261.02 52.6973C1261.23 52.0938 1261.53 51.5781 1261.92 51.1504C1262.31 50.7168 1262.76 50.3857 1263.29 50.1572C1263.82 49.9287 1264.39 49.8145 1265.01 49.8145C1265.69 49.8145 1266.28 49.9287 1266.79 50.1572C1267.3 50.3857 1267.72 50.708 1268.06 51.124C1268.4 51.5342 1268.65 52.0234 1268.81 52.5918C1268.98 53.1602 1269.07 53.7871 1269.07 54.4727V55.3779H1261.72V53.8574H1266.97V53.6904C1266.96 53.3096 1266.89 52.9521 1266.75 52.6182C1266.61 52.2842 1266.4 52.0146 1266.12 51.8096C1265.84 51.6045 1265.47 51.502 1265 51.502C1264.65 51.502 1264.33 51.5781 1264.06 51.7305C1263.79 51.877 1263.56 52.0908 1263.38 52.3721C1263.2 52.6533 1263.06 52.9932 1262.96 53.3916C1262.86 53.7842 1262.82 54.2266 1262.82 54.7188V55.0703C1262.82 55.4863 1262.87 55.873 1262.98 56.2305C1263.1 56.582 1263.27 56.8896 1263.49 57.1533C1263.72 57.417 1263.99 57.625 1264.3 57.7773C1264.62 57.9238 1264.98 57.9971 1265.38 57.9971C1265.89 57.9971 1266.35 57.8945 1266.75 57.6895C1267.14 57.4844 1267.49 57.1943 1267.78 56.8193L1268.9 57.9004C1268.69 58.1992 1268.43 58.4863 1268.1 58.7617C1267.77 59.0312 1267.37 59.251 1266.9 59.4209C1266.43 59.5908 1265.88 59.6758 1265.26 59.6758ZM1276.52 57.5312V46H1278.65V59.5H1276.72L1276.52 57.5312ZM1270.33 54.8506V54.666C1270.33 53.9453 1270.42 53.2891 1270.59 52.6973C1270.76 52.0996 1271 51.5869 1271.33 51.1592C1271.65 50.7256 1272.04 50.3945 1272.5 50.166C1272.97 49.9316 1273.49 49.8145 1274.07 49.8145C1274.64 49.8145 1275.15 49.9258 1275.58 50.1484C1276.01 50.3711 1276.38 50.6904 1276.69 51.1064C1276.99 51.5166 1277.23 52.0088 1277.42 52.583C1277.6 53.1514 1277.73 53.7842 1277.8 54.4814V55.0703C1277.73 55.75 1277.6 56.3711 1277.42 56.9336C1277.23 57.4961 1276.99 57.9824 1276.69 58.3926C1276.38 58.8027 1276.01 59.1191 1275.57 59.3418C1275.14 59.5645 1274.63 59.6758 1274.05 59.6758C1273.48 59.6758 1272.96 59.5557 1272.49 59.3154C1272.04 59.0752 1271.65 58.7383 1271.33 58.3047C1271 57.8711 1270.76 57.3613 1270.59 56.7754C1270.42 56.1836 1270.33 55.542 1270.33 54.8506ZM1272.45 54.666V54.8506C1272.45 55.2842 1272.49 55.6885 1272.56 56.0635C1272.65 56.4385 1272.77 56.7695 1272.94 57.0566C1273.11 57.3379 1273.33 57.5605 1273.6 57.7246C1273.88 57.8828 1274.21 57.9619 1274.59 57.9619C1275.07 57.9619 1275.46 57.8564 1275.77 57.6455C1276.08 57.4346 1276.33 57.1504 1276.5 56.793C1276.68 56.4297 1276.81 56.0254 1276.87 55.5801V53.9893C1276.84 53.6436 1276.76 53.3213 1276.65 53.0225C1276.55 52.7236 1276.4 52.4629 1276.22 52.2402C1276.04 52.0117 1275.81 51.8359 1275.54 51.7129C1275.28 51.584 1274.97 51.5195 1274.6 51.5195C1274.22 51.5195 1273.89 51.6016 1273.62 51.7656C1273.35 51.9297 1273.13 52.1553 1272.95 52.4424C1272.78 52.7295 1272.66 53.0635 1272.57 53.4443C1272.49 53.8252 1272.45 54.2324 1272.45 54.666ZM1287.61 49.9902V59.5H1285.48V49.9902H1287.61ZM1285.34 47.4941C1285.34 47.1719 1285.45 46.9053 1285.66 46.6943C1285.88 46.4775 1286.18 46.3691 1286.56 46.3691C1286.93 46.3691 1287.23 46.4775 1287.44 46.6943C1287.66 46.9053 1287.77 47.1719 1287.77 47.4941C1287.77 47.8105 1287.66 48.0742 1287.44 48.2852C1287.23 48.4961 1286.93 48.6016 1286.56 48.6016C1286.18 48.6016 1285.88 48.4961 1285.66 48.2852C1285.45 48.0742 1285.34 47.8105 1285.34 47.4941ZM1292.03 52.0205V59.5H1289.91V49.9902H1291.91L1292.03 52.0205ZM1291.65 54.3936L1290.97 54.3848C1290.97 53.7109 1291.07 53.0928 1291.25 52.5303C1291.44 51.9678 1291.7 51.4844 1292.02 51.0801C1292.36 50.6758 1292.76 50.3652 1293.22 50.1484C1293.68 49.9258 1294.2 49.8145 1294.77 49.8145C1295.22 49.8145 1295.64 49.8789 1296 50.0078C1296.38 50.1309 1296.7 50.333 1296.96 50.6143C1297.23 50.8955 1297.44 51.2617 1297.58 51.7129C1297.72 52.1582 1297.79 52.7061 1297.79 53.3564V59.5H1295.66V53.3477C1295.66 52.8906 1295.59 52.5303 1295.46 52.2666C1295.33 51.9971 1295.14 51.8066 1294.89 51.6953C1294.64 51.5781 1294.33 51.5195 1293.97 51.5195C1293.6 51.5195 1293.28 51.5957 1292.99 51.748C1292.7 51.9004 1292.46 52.1084 1292.26 52.3721C1292.07 52.6357 1291.92 52.9404 1291.81 53.2861C1291.71 53.6318 1291.65 54.001 1291.65 54.3936ZM1304.31 49.9902V51.5371H1298.95V49.9902H1304.31ZM1300.5 47.6611H1302.61V56.8721C1302.61 57.165 1302.66 57.3906 1302.74 57.5488C1302.83 57.7012 1302.95 57.8037 1303.1 57.8564C1303.25 57.9092 1303.43 57.9355 1303.63 57.9355C1303.78 57.9355 1303.92 57.9268 1304.06 57.9092C1304.19 57.8916 1304.3 57.874 1304.38 57.8564L1304.39 59.4736C1304.21 59.5264 1304.01 59.5732 1303.77 59.6143C1303.55 59.6553 1303.28 59.6758 1302.98 59.6758C1302.5 59.6758 1302.07 59.5908 1301.69 59.4209C1301.32 59.2451 1301.02 58.9609 1300.81 58.5684C1300.6 58.1758 1300.5 57.6543 1300.5 57.0039V47.6611ZM1310.14 59.6758C1309.43 59.6758 1308.8 59.5615 1308.23 59.333C1307.67 59.0986 1307.19 58.7734 1306.79 58.3574C1306.4 57.9414 1306.09 57.4521 1305.88 56.8896C1305.67 56.3271 1305.57 55.7207 1305.57 55.0703V54.7188C1305.57 53.9746 1305.68 53.3008 1305.89 52.6973C1306.11 52.0938 1306.41 51.5781 1306.8 51.1504C1307.18 50.7168 1307.64 50.3857 1308.17 50.1572C1308.7 49.9287 1309.27 49.8145 1309.88 49.8145C1310.56 49.8145 1311.16 49.9287 1311.67 50.1572C1312.18 50.3857 1312.6 50.708 1312.93 51.124C1313.27 51.5342 1313.52 52.0234 1313.69 52.5918C1313.86 53.1602 1313.94 53.7871 1313.94 54.4727V55.3779H1306.6V53.8574H1311.85V53.6904C1311.84 53.3096 1311.76 52.9521 1311.62 52.6182C1311.49 52.2842 1311.28 52.0146 1311 51.8096C1310.72 51.6045 1310.34 51.502 1309.87 51.502C1309.52 51.502 1309.21 51.5781 1308.93 51.7305C1308.66 51.877 1308.44 52.0908 1308.26 52.3721C1308.08 52.6533 1307.93 52.9932 1307.83 53.3916C1307.74 53.7842 1307.69 54.2266 1307.69 54.7188V55.0703C1307.69 55.4863 1307.75 55.873 1307.86 56.2305C1307.98 56.582 1308.15 56.8896 1308.37 57.1533C1308.59 57.417 1308.86 57.625 1309.18 57.7773C1309.5 57.9238 1309.86 57.9971 1310.26 57.9971C1310.77 57.9971 1311.22 57.8945 1311.62 57.6895C1312.02 57.4844 1312.37 57.1943 1312.66 56.8193L1313.78 57.9004C1313.57 58.1992 1313.3 58.4863 1312.98 58.7617C1312.65 59.0312 1312.25 59.251 1311.77 59.4209C1311.3 59.5908 1310.76 59.6758 1310.14 59.6758ZM1317.72 51.8008V59.5H1315.6V49.9902H1317.63L1317.72 51.8008ZM1320.63 49.9287L1320.61 51.8975C1320.49 51.874 1320.34 51.8564 1320.19 51.8447C1320.05 51.833 1319.9 51.8271 1319.75 51.8271C1319.39 51.8271 1319.07 51.8799 1318.79 51.9854C1318.52 52.085 1318.29 52.2314 1318.1 52.4248C1317.92 52.6123 1317.78 52.8408 1317.68 53.1104C1317.58 53.3799 1317.52 53.6816 1317.5 54.0156L1317.02 54.0508C1317.02 53.4531 1317.08 52.8994 1317.2 52.3896C1317.31 51.8799 1317.49 51.4316 1317.72 51.0449C1317.96 50.6582 1318.26 50.3564 1318.62 50.1396C1318.98 49.9229 1319.4 49.8145 1319.88 49.8145C1320 49.8145 1320.14 49.8262 1320.29 49.8496C1320.44 49.873 1320.56 49.8994 1320.63 49.9287ZM1325.21 57.8213L1327.54 49.9902H1329.74L1326.43 59.5H1325.06L1325.21 57.8213ZM1323.43 49.9902L1325.8 57.8564L1325.91 59.5H1324.54L1321.22 49.9902H1323.43ZM1333.31 49.9902V59.5H1331.19V49.9902H1333.31ZM1331.05 47.4941C1331.05 47.1719 1331.15 46.9053 1331.36 46.6943C1331.58 46.4775 1331.88 46.3691 1332.26 46.3691C1332.63 46.3691 1332.93 46.4775 1333.15 46.6943C1333.36 46.9053 1333.47 47.1719 1333.47 47.4941C1333.47 47.8105 1333.36 48.0742 1333.15 48.2852C1332.93 48.4961 1332.63 48.6016 1332.26 48.6016C1331.88 48.6016 1331.58 48.4961 1331.36 48.2852C1331.15 48.0742 1331.05 47.8105 1331.05 47.4941ZM1339.83 59.6758C1339.12 59.6758 1338.49 59.5615 1337.92 59.333C1337.36 59.0986 1336.88 58.7734 1336.48 58.3574C1336.09 57.9414 1335.78 57.4521 1335.57 56.8896C1335.36 56.3271 1335.26 55.7207 1335.26 55.0703V54.7188C1335.26 53.9746 1335.37 53.3008 1335.58 52.6973C1335.8 52.0938 1336.1 51.5781 1336.49 51.1504C1336.87 50.7168 1337.33 50.3857 1337.86 50.1572C1338.39 49.9287 1338.96 49.8145 1339.57 49.8145C1340.25 49.8145 1340.85 49.9287 1341.36 50.1572C1341.87 50.3857 1342.29 50.708 1342.62 51.124C1342.96 51.5342 1343.21 52.0234 1343.38 52.5918C1343.55 53.1602 1343.63 53.7871 1343.63 54.4727V55.3779H1336.29V53.8574H1341.54V53.6904C1341.53 53.3096 1341.45 52.9521 1341.31 52.6182C1341.18 52.2842 1340.97 52.0146 1340.69 51.8096C1340.41 51.6045 1340.03 51.502 1339.56 51.502C1339.21 51.502 1338.9 51.5781 1338.62 51.7305C1338.35 51.877 1338.13 52.0908 1337.95 52.3721C1337.76 52.6533 1337.62 52.9932 1337.52 53.3916C1337.43 53.7842 1337.38 54.2266 1337.38 54.7188V55.0703C1337.38 55.4863 1337.44 55.873 1337.55 56.2305C1337.67 56.582 1337.84 56.8896 1338.06 57.1533C1338.28 57.417 1338.55 57.625 1338.87 57.7773C1339.19 57.9238 1339.55 57.9971 1339.95 57.9971C1340.46 57.9971 1340.91 57.8945 1341.31 57.6895C1341.71 57.4844 1342.06 57.1943 1342.35 56.8193L1343.47 57.9004C1343.26 58.1992 1342.99 58.4863 1342.67 58.7617C1342.34 59.0312 1341.94 59.251 1341.46 59.4209C1340.99 59.5908 1340.45 59.6758 1339.83 59.6758ZM1347.87 57.3906L1350.07 49.9902H1351.42L1351.05 52.2051L1348.84 59.5H1347.62L1347.87 57.3906ZM1346.58 49.9902L1348.29 57.4258L1348.43 59.5H1347.08L1344.5 49.9902H1346.58ZM1353.48 57.3379L1355.14 49.9902H1357.2L1354.64 59.5H1353.28L1353.48 57.3379ZM1351.65 49.9902L1353.82 57.3027L1354.09 59.5H1352.88L1350.64 52.1963L1350.27 49.9902H1351.65ZM1368.46 56.9248C1368.46 56.7139 1368.41 56.5234 1368.3 56.3535C1368.2 56.1777 1368 56.0195 1367.7 55.8789C1367.4 55.7383 1366.97 55.6094 1366.4 55.4922C1365.89 55.3809 1365.43 55.249 1365.01 55.0967C1364.59 54.9385 1364.23 54.748 1363.94 54.5254C1363.64 54.3027 1363.41 54.0391 1363.24 53.7344C1363.08 53.4297 1363 53.0781 1363 52.6797C1363 52.293 1363.08 51.9268 1363.25 51.5811C1363.42 51.2354 1363.66 50.9307 1363.98 50.667C1364.3 50.4033 1364.68 50.1953 1365.13 50.043C1365.59 49.8906 1366.1 49.8145 1366.66 49.8145C1367.46 49.8145 1368.14 49.9492 1368.71 50.2188C1369.28 50.4824 1369.72 50.8428 1370.03 51.2998C1370.33 51.751 1370.48 52.2607 1370.48 52.8291H1368.37C1368.37 52.5771 1368.3 52.3428 1368.17 52.126C1368.05 51.9033 1367.86 51.7246 1367.61 51.5898C1367.36 51.4492 1367.04 51.3789 1366.66 51.3789C1366.3 51.3789 1366 51.4375 1365.75 51.5547C1365.52 51.666 1365.34 51.8125 1365.23 51.9941C1365.12 52.1758 1365.06 52.375 1365.06 52.5918C1365.06 52.75 1365.09 52.8936 1365.15 53.0225C1365.21 53.1455 1365.32 53.2598 1365.46 53.3652C1365.61 53.4648 1365.81 53.5586 1366.06 53.6465C1366.32 53.7344 1366.64 53.8193 1367.03 53.9014C1367.76 54.0537 1368.38 54.25 1368.9 54.4902C1369.43 54.7246 1369.83 55.0293 1370.11 55.4043C1370.4 55.7734 1370.54 56.2422 1370.54 56.8105C1370.54 57.2324 1370.45 57.6191 1370.26 57.9707C1370.09 58.3164 1369.83 58.6182 1369.49 58.876C1369.15 59.1279 1368.74 59.3242 1368.27 59.4648C1367.8 59.6055 1367.27 59.6758 1366.69 59.6758C1365.83 59.6758 1365.1 59.5234 1364.5 59.2188C1363.9 58.9082 1363.45 58.5127 1363.14 58.0322C1362.83 57.5459 1362.68 57.042 1362.68 56.5205H1364.73C1364.75 56.9131 1364.86 57.2266 1365.05 57.4609C1365.25 57.6895 1365.5 57.8564 1365.79 57.9619C1366.09 58.0615 1366.4 58.1113 1366.71 58.1113C1367.09 58.1113 1367.41 58.0615 1367.67 57.9619C1367.93 57.8564 1368.12 57.7158 1368.26 57.54C1368.39 57.3584 1368.46 57.1533 1368.46 56.9248ZM1374.53 46V59.5H1372.4V46H1374.53ZM1380.43 49.9902L1376.29 54.5781L1374.03 56.8984L1373.47 55.1055L1375.19 52.9873L1377.88 49.9902H1380.43ZM1378.33 59.5L1375.25 55.0352L1376.58 53.5498L1380.78 59.5H1378.33ZM1384.04 49.9902V59.5H1381.92V49.9902H1384.04ZM1381.78 47.4941C1381.78 47.1719 1381.88 46.9053 1382.09 46.6943C1382.31 46.4775 1382.61 46.3691 1382.99 46.3691C1383.37 46.3691 1383.66 46.4775 1383.88 46.6943C1384.09 46.9053 1384.2 47.1719 1384.2 47.4941C1384.2 47.8105 1384.09 48.0742 1383.88 48.2852C1383.66 48.4961 1383.37 48.6016 1382.99 48.6016C1382.61 48.6016 1382.31 48.4961 1382.09 48.2852C1381.88 48.0742 1381.78 47.8105 1381.78 47.4941ZM1388.63 46V59.5H1386.51V46H1388.63ZM1393.22 46V59.5H1391.09V46H1393.22ZM1400.88 56.9248C1400.88 56.7139 1400.82 56.5234 1400.72 56.3535C1400.61 56.1777 1400.41 56.0195 1400.11 55.8789C1399.82 55.7383 1399.38 55.6094 1398.81 55.4922C1398.31 55.3809 1397.84 55.249 1397.42 55.0967C1397.01 54.9385 1396.65 54.748 1396.35 54.5254C1396.05 54.3027 1395.82 54.0391 1395.66 53.7344C1395.49 53.4297 1395.41 53.0781 1395.41 52.6797C1395.41 52.293 1395.49 51.9268 1395.66 51.5811C1395.83 51.2354 1396.08 50.9307 1396.39 50.667C1396.71 50.4033 1397.09 50.1953 1397.54 50.043C1398 49.8906 1398.51 49.8145 1399.07 49.8145C1399.87 49.8145 1400.55 49.9492 1401.12 50.2188C1401.7 50.4824 1402.14 50.8428 1402.44 51.2998C1402.75 51.751 1402.9 52.2607 1402.9 52.8291H1400.78C1400.78 52.5771 1400.71 52.3428 1400.59 52.126C1400.46 51.9033 1400.28 51.7246 1400.02 51.5898C1399.77 51.4492 1399.46 51.3789 1399.07 51.3789C1398.71 51.3789 1398.41 51.4375 1398.17 51.5547C1397.93 51.666 1397.76 51.8125 1397.64 51.9941C1397.53 52.1758 1397.47 52.375 1397.47 52.5918C1397.47 52.75 1397.5 52.8936 1397.56 53.0225C1397.63 53.1455 1397.73 53.2598 1397.88 53.3652C1398.03 53.4648 1398.22 53.5586 1398.48 53.6465C1398.73 53.7344 1399.06 53.8193 1399.44 53.9014C1400.17 54.0537 1400.79 54.25 1401.32 54.4902C1401.84 54.7246 1402.25 55.0293 1402.53 55.4043C1402.81 55.7734 1402.95 56.2422 1402.95 56.8105C1402.95 57.2324 1402.86 57.6191 1402.68 57.9707C1402.5 58.3164 1402.24 58.6182 1401.9 58.876C1401.56 59.1279 1401.16 59.3242 1400.68 59.4648C1400.21 59.6055 1399.69 59.6758 1399.1 59.6758C1398.24 59.6758 1397.51 59.5234 1396.91 59.2188C1396.31 58.9082 1395.86 58.5127 1395.55 58.0322C1395.25 57.5459 1395.09 57.042 1395.09 56.5205H1397.14C1397.16 56.9131 1397.27 57.2266 1397.47 57.4609C1397.67 57.6895 1397.91 57.8564 1398.2 57.9619C1398.5 58.0615 1398.81 58.1113 1399.13 58.1113C1399.51 58.1113 1399.83 58.0615 1400.08 57.9619C1400.34 57.8564 1400.54 57.7158 1400.67 57.54C1400.81 57.3584 1400.88 57.1533 1400.88 56.9248Z" fill="#5384ED"/>
<path d="M1501 53L1491 47.2265L1491 58.7735L1501 53ZM1434.33 53C1434.33 50.0545 1431.95 47.6666 1429 47.6666C1426.05 47.6666 1423.67 50.0545 1423.67 53C1423.67 55.9455 1426.05 58.3333 1429 58.3333C1431.95 58.3333 1434.33 55.9455 1434.33 53ZM1492 52L1429 52L1429 54L1492 54L1492 52Z" fill="#5384ED"/>
<rect x="1502.5" y="28" width="145" height="50" rx="25" fill="#F6F9FE"/>
<path d="M1536.66 46.7031V59.5H1534.45V46.7031H1536.66ZM1541.29 52.0205V59.5H1539.17V49.9902H1541.17L1541.29 52.0205ZM1540.91 54.3936L1540.22 54.3848C1540.23 53.7109 1540.32 53.0928 1540.51 52.5303C1540.69 51.9678 1540.95 51.4844 1541.28 51.0801C1541.61 50.6758 1542.01 50.3652 1542.47 50.1484C1542.94 49.9258 1543.45 49.8145 1544.02 49.8145C1544.48 49.8145 1544.89 49.8789 1545.26 50.0078C1545.64 50.1309 1545.96 50.333 1546.22 50.6143C1546.49 50.8955 1546.69 51.2617 1546.83 51.7129C1546.97 52.1582 1547.04 52.7061 1547.04 53.3564V59.5H1544.92V53.3477C1544.92 52.8906 1544.85 52.5303 1544.72 52.2666C1544.59 51.9971 1544.4 51.8066 1544.14 51.6953C1543.9 51.5781 1543.59 51.5195 1543.22 51.5195C1542.86 51.5195 1542.53 51.5957 1542.25 51.748C1541.96 51.9004 1541.72 52.1084 1541.52 52.3721C1541.32 52.6357 1541.17 52.9404 1541.07 53.2861C1540.96 53.6318 1540.91 54.001 1540.91 54.3936ZM1553.57 49.9902V51.5371H1548.21V49.9902H1553.57ZM1549.75 47.6611H1551.87V56.8721C1551.87 57.165 1551.91 57.3906 1551.99 57.5488C1552.08 57.7012 1552.2 57.8037 1552.35 57.8564C1552.51 57.9092 1552.68 57.9355 1552.89 57.9355C1553.04 57.9355 1553.18 57.9268 1553.31 57.9092C1553.45 57.8916 1553.55 57.874 1553.64 57.8564L1553.65 59.4736C1553.47 59.5264 1553.26 59.5732 1553.03 59.6143C1552.8 59.6553 1552.54 59.6758 1552.24 59.6758C1551.75 59.6758 1551.32 59.5908 1550.95 59.4209C1550.57 59.2451 1550.28 58.9609 1550.07 58.5684C1549.86 58.1758 1549.75 57.6543 1549.75 57.0039V47.6611ZM1559.39 59.6758C1558.69 59.6758 1558.05 59.5615 1557.49 59.333C1556.92 59.0986 1556.44 58.7734 1556.04 58.3574C1555.65 57.9414 1555.35 57.4521 1555.14 56.8896C1554.93 56.3271 1554.82 55.7207 1554.82 55.0703V54.7188C1554.82 53.9746 1554.93 53.3008 1555.15 52.6973C1555.37 52.0938 1555.67 51.5781 1556.05 51.1504C1556.44 50.7168 1556.9 50.3857 1557.42 50.1572C1557.95 49.9287 1558.52 49.8145 1559.14 49.8145C1559.82 49.8145 1560.41 49.9287 1560.92 50.1572C1561.43 50.3857 1561.85 50.708 1562.19 51.124C1562.53 51.5342 1562.78 52.0234 1562.94 52.5918C1563.11 53.1602 1563.2 53.7871 1563.2 54.4727V55.3779H1555.85V53.8574H1561.11V53.6904C1561.1 53.3096 1561.02 52.9521 1560.88 52.6182C1560.74 52.2842 1560.54 52.0146 1560.25 51.8096C1559.97 51.6045 1559.6 51.502 1559.13 51.502C1558.78 51.502 1558.46 51.5781 1558.19 51.7305C1557.92 51.877 1557.69 52.0908 1557.51 52.3721C1557.33 52.6533 1557.19 52.9932 1557.09 53.3916C1557 53.7842 1556.95 54.2266 1556.95 54.7188V55.0703C1556.95 55.4863 1557.01 55.873 1557.12 56.2305C1557.23 56.582 1557.4 56.8896 1557.63 57.1533C1557.85 57.417 1558.12 57.625 1558.44 57.7773C1558.75 57.9238 1559.11 57.9971 1559.52 57.9971C1560.03 57.9971 1560.48 57.8945 1560.88 57.6895C1561.28 57.4844 1561.62 57.1943 1561.92 56.8193L1563.03 57.9004C1562.83 58.1992 1562.56 58.4863 1562.23 58.7617C1561.9 59.0312 1561.5 59.251 1561.03 59.4209C1560.56 59.5908 1560.01 59.6758 1559.39 59.6758ZM1566.98 51.8008V59.5H1564.86V49.9902H1566.88L1566.98 51.8008ZM1569.89 49.9287L1569.87 51.8975C1569.74 51.874 1569.6 51.8564 1569.45 51.8447C1569.3 51.833 1569.16 51.8271 1569.01 51.8271C1568.65 51.8271 1568.33 51.8799 1568.05 51.9854C1567.78 52.085 1567.54 52.2314 1567.36 52.4248C1567.17 52.6123 1567.03 52.8408 1566.93 53.1104C1566.83 53.3799 1566.78 53.6816 1566.76 54.0156L1566.28 54.0508C1566.28 53.4531 1566.33 52.8994 1566.45 52.3896C1566.57 51.8799 1566.74 51.4316 1566.98 51.0449C1567.22 50.6582 1567.52 50.3564 1567.88 50.1396C1568.24 49.9229 1568.66 49.8145 1569.13 49.8145C1569.26 49.8145 1569.4 49.8262 1569.54 49.8496C1569.7 49.873 1569.81 49.8994 1569.89 49.9287ZM1574.47 57.8213L1576.8 49.9902H1578.99L1575.69 59.5H1574.32L1574.47 57.8213ZM1572.68 49.9902L1575.06 57.8564L1575.17 59.5H1573.8L1570.48 49.9902H1572.68ZM1582.57 49.9902V59.5H1580.44V49.9902H1582.57ZM1580.3 47.4941C1580.3 47.1719 1580.41 46.9053 1580.62 46.6943C1580.84 46.4775 1581.13 46.3691 1581.52 46.3691C1581.89 46.3691 1582.19 46.4775 1582.4 46.6943C1582.62 46.9053 1582.73 47.1719 1582.73 47.4941C1582.73 47.8105 1582.62 48.0742 1582.4 48.2852C1582.19 48.4961 1581.89 48.6016 1581.52 48.6016C1581.13 48.6016 1580.84 48.4961 1580.62 48.2852C1580.41 48.0742 1580.3 47.8105 1580.3 47.4941ZM1589.08 59.6758C1588.38 59.6758 1587.74 59.5615 1587.18 59.333C1586.61 59.0986 1586.13 58.7734 1585.73 58.3574C1585.34 57.9414 1585.04 57.4521 1584.83 56.8896C1584.62 56.3271 1584.51 55.7207 1584.51 55.0703V54.7188C1584.51 53.9746 1584.62 53.3008 1584.84 52.6973C1585.05 52.0938 1585.36 51.5781 1585.74 51.1504C1586.13 50.7168 1586.59 50.3857 1587.11 50.1572C1587.64 49.9287 1588.21 49.8145 1588.83 49.8145C1589.51 49.8145 1590.1 49.9287 1590.61 50.1572C1591.12 50.3857 1591.54 50.708 1591.88 51.124C1592.22 51.5342 1592.47 52.0234 1592.63 52.5918C1592.8 53.1602 1592.89 53.7871 1592.89 54.4727V55.3779H1585.54V53.8574H1590.8V53.6904C1590.79 53.3096 1590.71 52.9521 1590.57 52.6182C1590.43 52.2842 1590.23 52.0146 1589.94 51.8096C1589.66 51.6045 1589.29 51.502 1588.82 51.502C1588.47 51.502 1588.15 51.5781 1587.88 51.7305C1587.61 51.877 1587.38 52.0908 1587.2 52.3721C1587.02 52.6533 1586.88 52.9932 1586.78 53.3916C1586.69 53.7842 1586.64 54.2266 1586.64 54.7188V55.0703C1586.64 55.4863 1586.7 55.873 1586.81 56.2305C1586.92 56.582 1587.09 56.8896 1587.32 57.1533C1587.54 57.417 1587.81 57.625 1588.12 57.7773C1588.44 57.9238 1588.8 57.9971 1589.21 57.9971C1589.72 57.9971 1590.17 57.8945 1590.57 57.6895C1590.97 57.4844 1591.31 57.1943 1591.61 56.8193L1592.72 57.9004C1592.52 58.1992 1592.25 58.4863 1591.92 58.7617C1591.59 59.0312 1591.19 59.251 1590.72 59.4209C1590.25 59.5908 1589.7 59.6758 1589.08 59.6758ZM1597.12 57.3906L1599.32 49.9902H1600.68L1600.31 52.2051L1598.09 59.5H1596.88L1597.12 57.3906ZM1595.83 49.9902L1597.55 57.4258L1597.69 59.5H1596.33L1593.76 49.9902H1595.83ZM1602.73 57.3379L1604.39 49.9902H1606.46L1603.89 59.5H1602.54L1602.73 57.3379ZM1600.9 49.9902L1603.08 57.3027L1603.35 59.5H1602.13L1599.89 52.1963L1599.52 49.9902H1600.9ZM1613.24 56.9248C1613.24 56.7139 1613.18 56.5234 1613.08 56.3535C1612.97 56.1777 1612.77 56.0195 1612.47 55.8789C1612.18 55.7383 1611.74 55.6094 1611.17 55.4922C1610.67 55.3809 1610.2 55.249 1609.78 55.0967C1609.37 54.9385 1609.01 54.748 1608.71 54.5254C1608.41 54.3027 1608.18 54.0391 1608.01 53.7344C1607.85 53.4297 1607.77 53.0781 1607.77 52.6797C1607.77 52.293 1607.85 51.9268 1608.02 51.5811C1608.19 51.2354 1608.44 50.9307 1608.75 50.667C1609.07 50.4033 1609.45 50.1953 1609.9 50.043C1610.36 49.8906 1610.87 49.8145 1611.43 49.8145C1612.23 49.8145 1612.91 49.9492 1613.48 50.2188C1614.06 50.4824 1614.5 50.8428 1614.8 51.2998C1615.1 51.751 1615.26 52.2607 1615.26 52.8291H1613.14C1613.14 52.5771 1613.07 52.3428 1612.95 52.126C1612.82 51.9033 1612.63 51.7246 1612.38 51.5898C1612.13 51.4492 1611.81 51.3789 1611.43 51.3789C1611.07 51.3789 1610.77 51.4375 1610.53 51.5547C1610.29 51.666 1610.12 51.8125 1610 51.9941C1609.89 52.1758 1609.83 52.375 1609.83 52.5918C1609.83 52.75 1609.86 52.8936 1609.92 53.0225C1609.99 53.1455 1610.09 53.2598 1610.24 53.3652C1610.38 53.4648 1610.58 53.5586 1610.84 53.6465C1611.09 53.7344 1611.42 53.8193 1611.8 53.9014C1612.53 54.0537 1613.15 54.25 1613.67 54.4902C1614.2 54.7246 1614.61 55.0293 1614.89 55.4043C1615.17 55.7734 1615.31 56.2422 1615.31 56.8105C1615.31 57.2324 1615.22 57.6191 1615.04 57.9707C1614.86 58.3164 1614.6 58.6182 1614.26 58.876C1613.92 59.1279 1613.52 59.3242 1613.04 59.4648C1612.57 59.6055 1612.05 59.6758 1611.46 59.6758C1610.6 59.6758 1609.87 59.5234 1609.27 59.2188C1608.67 58.9082 1608.22 58.5127 1607.91 58.0322C1607.6 57.5459 1607.45 57.042 1607.45 56.5205H1609.5C1609.52 56.9131 1609.63 57.2266 1609.83 57.4609C1610.02 57.6895 1610.27 57.8564 1610.56 57.9619C1610.86 58.0615 1611.17 58.1113 1611.49 58.1113C1611.87 58.1113 1612.19 58.0615 1612.44 57.9619C1612.7 57.8564 1612.9 57.7158 1613.03 57.54C1613.17 57.3584 1613.24 57.1533 1613.24 56.9248Z" fill="#5384ED"/>
<rect x="1502.5" y="28" width="145" height="50" rx="25" stroke="#5384ED" stroke-width="3"/>
<defs>
<linearGradient id="paint0_linear_3267_10921" x1="250" y1="8.08981" x2="415.688" y2="164.015" gradientUnits="userSpaceOnUse">
<stop stop-color="#5D85EC"/>
<stop offset="0.533854" stop-color="#9DBEFF"/>
<stop offset="1" stop-color="#5D87D8"/>
</linearGradient>
</defs>
</svg>
