<svg width="44" height="44" viewBox="0 0 44 44" fill="none" xmlns="http://www.w3.org/2000/svg">
<rect width="44" height="44" rx="12" fill="#F5F8FA"/>
<path d="M20.5992 29.3065C25.3484 29.3065 29.1984 25.4323 29.1984 20.6532C29.1984 15.8742 25.3484 12 20.5992 12C15.85 12 12 15.8742 12 20.6532C12 25.4323 15.85 29.3065 20.5992 29.3065Z" fill="#5384ED" fill-opacity="0.4" stroke="#5384ED" stroke-width="2"/>
<path opacity="0.4" d="M30.6745 31.9553C30.3405 31.9445 30.0228 31.807 29.7853 31.5705L27.7488 29.1902C27.3122 28.7909 27.2765 28.1123 27.6688 27.6689V27.6689C27.8524 27.4831 28.102 27.3787 28.3624 27.3787C28.6228 27.3787 28.8725 27.4831 29.0561 27.6689L31.6172 29.7181C31.9861 30.0957 32.0999 30.6563 31.9078 31.1492C31.7157 31.6422 31.2535 31.9754 30.7279 32L30.6745 31.9553Z" fill="#5384ED"/>
</svg>
