<svg width="48" height="48" viewBox="0 0 48 48" fill="none" xmlns="http://www.w3.org/2000/svg">
<rect width="48" height="48" rx="12" fill="#F5F8FA"/>
<path opacity="0.4" d="M32.1902 26.06L31.0602 24.18C30.8102 23.77 30.5902 22.98 30.5902 22.5V20.63C30.5902 17 27.6402 14.05 24.0202 14.05C20.3902 14.06 17.4402 17 17.4402 20.63V22.49C17.4402 22.97 17.2202 23.76 16.9802 24.17L15.8502 26.05C15.4202 26.78 15.3202 27.61 15.5902 28.33C15.8602 29.06 16.4702 29.64 17.2702 29.9C18.3502 30.26 19.4402 30.52 20.5502 30.71C20.6602 30.73 20.7702 30.74 20.8802 30.76C21.0202 30.7801 21.1702 30.8 21.3202 30.82C21.5802 30.8601 21.8402 30.89 22.1102 30.91C22.7402 30.97 23.3802 31 24.0202 31C24.6502 31 25.2802 30.97 25.9002 30.91C26.1302 30.89 26.3602 30.8701 26.5802 30.84C26.7602 30.82 26.9402 30.8001 27.1202 30.7701C27.2302 30.76 27.3402 30.74 27.4502 30.72C28.5702 30.54 29.6802 30.26 30.7602 29.9C31.5302 29.64 32.1202 29.06 32.4002 28.32C32.6802 27.57 32.6002 26.75 32.1902 26.06ZM24.7502 22C24.7502 22.42 24.4102 22.76 23.9902 22.76C23.5702 22.76 23.2302 22.42 23.2302 22V18.9C23.2302 18.48 23.5702 18.14 23.9902 18.14C24.4102 18.14 24.7502 18.48 24.7502 18.9V22Z" fill="#5384ED"/>
<path d="M26.8302 32.01C26.4102 33.17 25.3002 34 24.0002 34C23.2102 34 22.4302 33.68 21.8802 33.11C21.5602 32.81 21.3202 32.41 21.1802 32C21.3102 32.02 21.4402 32.03 21.5802 32.05C21.8102 32.08 22.0502 32.11 22.2902 32.13C22.8602 32.18 23.4402 32.21 24.0202 32.21C24.5902 32.21 25.1602 32.18 25.7202 32.13C25.9302 32.11 26.1402 32.1 26.3402 32.07C26.5002 32.05 26.6602 32.03 26.8302 32.01Z" fill="#5384ED"/>
</svg>
