<svg width="44" height="44" viewBox="0 0 44 44" fill="none" xmlns="http://www.w3.org/2000/svg">
<rect width="44.0008" height="44" rx="12" fill="#F5F8FA"/>
<path d="M26.8843 15.1148H23.9413C23.2081 15.1197 22.512 14.7936 22.0474 14.2275L21.0782 12.8876C20.6214 12.3166 19.9253 11.9889 19.1932 12.0003H17.1126C13.3782 12.0003 12 14.192 12 17.9188V21.9474C11.9954 22.3904 31.9956 22.3898 31.9969 21.9474V20.7761C32.0147 17.0492 30.6721 15.1148 26.8843 15.1148Z" fill="#5384ED"/>
<path fill-rule="evenodd" clip-rule="evenodd" d="M30.8321 16.5434C31.1521 16.9175 31.3993 17.3478 31.5612 17.8123C31.8798 18.767 32.0273 19.7702 31.9969 20.776V26.0291C31.9956 26.4715 31.963 26.9133 31.8991 27.3512C31.7775 28.1239 31.5057 28.8655 31.0989 29.5341C30.9119 29.857 30.6849 30.1551 30.4231 30.4214C29.2383 31.5088 27.665 32.0748 26.0574 31.992H17.9306C16.3205 32.0742 14.7446 31.5084 13.556 30.4214C13.2974 30.1546 13.0734 29.8565 12.8891 29.5341C12.4847 28.8659 12.2187 28.1237 12.1067 27.3512C12.0355 26.9141 11.9998 26.4719 12 26.0291V20.776C11.9998 20.3373 12.0236 19.8989 12.0711 19.4628C12.0811 19.3862 12.0961 19.311 12.111 19.2365C12.1357 19.1123 12.16 18.9903 12.16 18.8682C12.2503 18.3419 12.415 17.831 12.6491 17.3509C13.3426 15.869 14.7652 15.1148 17.0948 15.1148H26.8754C28.1802 15.0139 29.4753 15.4067 30.5032 16.2151C30.6215 16.3155 30.7316 16.4253 30.8321 16.5434ZM16.9703 25.541H27.0355H27.0533C27.2741 25.5506 27.4896 25.4716 27.6517 25.3215C27.8137 25.1715 27.9088 24.9629 27.9157 24.7424C27.9282 24.5486 27.8644 24.3576 27.7379 24.21C27.5924 24.0117 27.3618 23.8934 27.1155 23.8906H16.9703C16.5136 23.8906 16.1434 24.26 16.1434 24.7158C16.1434 25.1716 16.5136 25.541 16.9703 25.541Z" fill="#BACCF4"/>
</svg>
