<svg width="42" height="44" viewBox="0 0 42 44" fill="none" xmlns="http://www.w3.org/2000/svg">
<path d="M0 12C0 5.37258 5.37258 0 12 0H30C36.6274 0 42 5.37258 42 12V32C42 38.6274 36.6274 44 30 44H12C5.37258 44 0 38.6274 0 32V12Z" fill="#F5F8FA"/>
<path opacity="0.4" d="M25.191 12H16.81C13.77 12 12 13.78 12 16.83V27.16C12 30.26 13.77 32 16.81 32H25.191C28.28 32 30 30.26 30 27.16V16.83C30 13.78 28.28 12 25.191 12" fill="#5384ED"/>
<path fill-rule="evenodd" clip-rule="evenodd" d="M17.08 16.65V16.66C16.649 16.66 16.3 17.01 16.3 17.44C16.3 17.87 16.649 18.22 17.08 18.22H20.069C20.5 18.22 20.85 17.87 20.85 17.429C20.85 17 20.5 16.65 20.069 16.65H17.08ZM24.92 22.74H17.08C16.649 22.74 16.3 22.39 16.3 21.96C16.3 21.53 16.649 21.179 17.08 21.179H24.92C25.35 21.179 25.7 21.53 25.7 21.96C25.7 22.39 25.35 22.74 24.92 22.74ZM24.92 27.31H17.08C16.78 27.35 16.49 27.2 16.33 26.95C16.17 26.69 16.17 26.36 16.33 26.11C16.49 25.85 16.78 25.71 17.08 25.74H24.92C25.319 25.78 25.62 26.12 25.62 26.53C25.62 26.929 25.319 27.27 24.92 27.31Z" fill="#5384ED"/>
</svg>
