<svg width="161" height="27" viewBox="0 0 161 27" fill="none" xmlns="http://www.w3.org/2000/svg">
<path d="M13.4375 15.75V11.2656C13.4375 10.651 13.3177 10.0729 13.0781 9.53125C12.849 8.97917 12.5312 8.5 12.125 8.09375C11.7188 7.6875 11.2396 7.36979 10.6875 7.14062C10.1458 6.90104 9.56771 6.78125 8.95312 6.78125C8.33854 6.78125 7.75521 6.90104 7.20312 7.14062C6.66146 7.36979 6.1875 7.6875 5.78125 8.09375C5.375 8.5 5.05208 8.97917 4.8125 9.53125C4.58333 10.0729 4.46875 10.651 4.46875 11.2656V15.75H13.4375ZM17.9219 24.7031H13.4375V20.2188H4.46875V24.7031H0V11.2656C0 10.026 0.234375 8.86458 0.703125 7.78125C1.17188 6.6875 1.80729 5.73438 2.60938 4.92188C3.42188 4.10938 4.36979 3.46875 5.45312 3C6.54688 2.53125 7.71354 2.29688 8.95312 2.29688C10.1927 2.29688 11.3542 2.53125 12.4375 3C13.5312 3.46875 14.4844 4.10938 15.2969 4.92188C16.1094 5.73438 16.75 6.6875 17.2188 7.78125C17.6875 8.86458 17.9219 10.026 17.9219 11.2656V24.7031Z" fill="#5384ED"/>
<path d="M26.2969 6.78125V15.75H30.7812C31.3958 15.75 31.974 15.6354 32.5156 15.4062C33.0573 15.1667 33.5312 14.8438 33.9375 14.4375C34.3438 14.0312 34.6615 13.5573 34.8906 13.0156C35.1302 12.4635 35.25 11.8802 35.25 11.2656C35.25 10.651 35.1302 10.0729 34.8906 9.53125C34.6615 8.97917 34.3438 8.5 33.9375 8.09375C33.5312 7.6875 33.0573 7.36979 32.5156 7.14062C31.974 6.90104 31.3958 6.78125 30.7812 6.78125H26.2969ZM26.2969 24.7031H21.8125V2.29688H30.7812C31.6042 2.29688 32.3958 2.40625 33.1562 2.625C33.9167 2.83333 34.625 3.13542 35.2812 3.53125C35.9479 3.91667 36.5521 4.38542 37.0938 4.9375C37.6458 5.47917 38.1146 6.08333 38.5 6.75C38.8958 7.41667 39.1979 8.13021 39.4062 8.89062C39.625 9.65104 39.7344 10.4427 39.7344 11.2656C39.7344 12.4948 39.5 13.6562 39.0312 14.75C38.5625 15.8333 37.9219 16.7812 37.1094 17.5938C36.2969 18.4062 35.3438 19.0469 34.25 19.5156C33.1667 19.9844 32.0104 20.2188 30.7812 20.2188H26.2969V24.7031Z" fill="#5384ED"/>
<path d="M46.8594 6.78125V15.75H51.3438C51.9583 15.75 52.5365 15.6354 53.0781 15.4062C53.6198 15.1667 54.0938 14.8438 54.5 14.4375C54.9062 14.0312 55.224 13.5573 55.4531 13.0156C55.6927 12.4635 55.8125 11.8802 55.8125 11.2656C55.8125 10.651 55.6927 10.0729 55.4531 9.53125C55.224 8.97917 54.9062 8.5 54.5 8.09375C54.0938 7.6875 53.6198 7.36979 53.0781 7.14062C52.5365 6.90104 51.9583 6.78125 51.3438 6.78125H46.8594ZM46.8594 24.7031H42.375V2.29688H51.3438C52.1667 2.29688 52.9583 2.40625 53.7188 2.625C54.4792 2.83333 55.1875 3.13542 55.8438 3.53125C56.5104 3.91667 57.1146 4.38542 57.6562 4.9375C58.2083 5.47917 58.6771 6.08333 59.0625 6.75C59.4583 7.41667 59.7604 8.13021 59.9688 8.89062C60.1875 9.65104 60.2969 10.4427 60.2969 11.2656C60.2969 12.4948 60.0625 13.6562 59.5938 14.75C59.125 15.8333 58.4844 16.7812 57.6719 17.5938C56.8594 18.4062 55.9062 19.0469 54.8125 19.5156C53.7292 19.9844 52.5729 20.2188 51.3438 20.2188H46.8594V24.7031Z" fill="#5384ED"/>
<path d="M85.7084 3.52488L89.5893 10.2457L84.7298 18.6635H81.4896L86.3491 10.2457L81.0117 1L85.7084 3.52488Z" fill="#5384ED" stroke="#5384ED" stroke-width="0.5" stroke-linecap="round" stroke-linejoin="round"/>
<path d="M64.2969 11.3907L68.1763 4.66986H77.8953L79.5162 7.4763H69.7971L64.4582 16.722L64.2969 11.3907Z" fill="#5384ED" stroke="#5384ED" stroke-width="0.5" stroke-linecap="round" stroke-linejoin="round"/>
<path d="M81.8152 26H74.0534L69.1938 17.5822L70.8147 14.7773L75.6727 23.1935H86.349L81.8152 26Z" fill="#5384ED" stroke="#5384ED" stroke-width="0.5" stroke-linecap="round" stroke-linejoin="round"/>
<path d="M89.8188 17.186L86.848 22.3316H76.1716L74.5508 19.5267H85.2271L89.6559 11.8547L89.8188 17.186Z" fill="#BACCF4" stroke="white" stroke-width="0.5" stroke-linecap="round" stroke-linejoin="round"/>
<path d="M67.9269 22.7294L64.9561 17.5822L70.2935 8.33649H73.5336L68.1962 17.5822L72.625 25.2542L67.9269 22.7294Z" fill="#BACCF4" stroke="white" stroke-width="0.5" stroke-linecap="round" stroke-linejoin="round"/>
<path d="M74.0719 1H80.015L85.3524 10.2457L83.7331 13.0521L78.3957 3.80644H69.5381L74.0719 1Z" fill="#BACCF4" stroke="white" stroke-width="0.5" stroke-linecap="round" stroke-linejoin="round"/>
<path d="M98.3032 24.7031H93.8188V2.29688H98.3032V24.7031Z" fill="#5384ED"/>
<path d="M120.397 24.7031H115.6L106.959 9.95312V24.7031H102.475V2.29688H107.272L115.913 17.0625V2.29688H120.397V24.7031Z" fill="#5384ED"/>
<path d="M133.975 24.7031H129.506V6.78125H122.772V2.29688H140.694V6.78125H133.975V24.7031Z" fill="#5384ED"/>
<path d="M155.569 15.75V11.2656C155.569 10.651 155.449 10.0729 155.209 9.53125C154.98 8.97917 154.663 8.5 154.256 8.09375C153.85 7.6875 153.371 7.36979 152.819 7.14062C152.277 6.90104 151.699 6.78125 151.084 6.78125C150.47 6.78125 149.887 6.90104 149.334 7.14062C148.793 7.36979 148.319 7.6875 147.913 8.09375C147.506 8.5 147.183 8.97917 146.944 9.53125C146.715 10.0729 146.6 10.651 146.6 11.2656V15.75H155.569ZM160.053 24.7031H155.569V20.2188H146.6V24.7031H142.131V11.2656C142.131 10.026 142.366 8.86458 142.834 7.78125C143.303 6.6875 143.939 5.73438 144.741 4.92188C145.553 4.10938 146.501 3.46875 147.584 3C148.678 2.53125 149.845 2.29688 151.084 2.29688C152.324 2.29688 153.486 2.53125 154.569 3C155.663 3.46875 156.616 4.10938 157.428 4.92188C158.241 5.73438 158.881 6.6875 159.35 7.78125C159.819 8.86458 160.053 10.026 160.053 11.2656V24.7031Z" fill="#5384ED"/>
</svg>
