<svg width="44" height="44" viewBox="0 0 44 44" fill="none" xmlns="http://www.w3.org/2000/svg">
<rect width="44" height="44" rx="12" fill="#AAD9D9" fill-opacity="0.1"/>
<path opacity="0.4" d="M26.0756 12H29.4616C30.8639 12 32.0001 13.1459 32.0001 14.56V17.9745C32.0001 19.3886 30.8639 20.5345 29.4616 20.5345H26.0756C24.6734 20.5345 23.5371 19.3886 23.5371 17.9745V14.56C23.5371 13.1459 24.6734 12 26.0756 12" fill="#AAD9D9"/>
<path fill-rule="evenodd" clip-rule="evenodd" d="M14.5385 12H17.9245C19.3268 12 20.463 13.1459 20.463 14.56V17.9745C20.463 19.3886 19.3268 20.5345 17.9245 20.5345H14.5385C13.1363 20.5345 12 19.3886 12 17.9745V14.56C12 13.1459 13.1363 12 14.5385 12ZM14.5385 23.4655H17.9245C19.3268 23.4655 20.463 24.6114 20.463 26.0255V29.44C20.463 30.8532 19.3268 32 17.9245 32H14.5385C13.1363 32 12 30.8532 12 29.44V26.0255C12 24.6114 13.1363 23.4655 14.5385 23.4655ZM29.4615 23.4655H26.0755C24.6732 23.4655 23.537 24.6114 23.537 26.0255V29.44C23.537 30.8532 24.6732 32 26.0755 32H29.4615C30.8637 32 32 30.8532 32 29.44V26.0255C32 24.6114 30.8637 23.4655 29.4615 23.4655Z" fill="#AAD9D9"/>
</svg>
