<svg width="2899" height="2013" viewBox="0 0 2899 2013" fill="none" xmlns="http://www.w3.org/2000/svg">
<g clip-path="url(#clip0_208_636)">
<rect width="2899" height="2013" fill="white"/>
<g opacity="0.15" filter="url(#filter0_f_208_636)">
<path d="M853 1231.68C1308.64 1231.68 1678 964.466 1678 634.841C1678 305.215 1308.64 38 853 38C397.365 38 28 305.215 28 634.841C28 964.466 397.365 1231.68 853 1231.68Z" fill="url(#paint0_radial_208_636)"/>
<path d="M2091 1231.68C2498.03 1231.68 2828 992.163 2828 696.703C2828 401.243 2498.03 161.725 2091 161.725C1683.97 161.725 1354 401.243 1354 696.703C1354 992.163 1683.97 1231.68 2091 1231.68Z" fill="url(#paint1_radial_208_636)"/>
<path d="M1055 1773.63C1511.19 1773.63 1881 1506.42 1881 1176.79C1881 847.164 1511.19 579.949 1055 579.949C598.813 579.949 229 847.164 229 1176.79C229 1506.42 598.813 1773.63 1055 1773.63Z" fill="url(#paint2_radial_208_636)"/>
<path d="M1996 1557.55C2403.03 1557.55 2733 1318.42 2733 1023.44C2733 728.462 2403.03 489.334 1996 489.334C1588.97 489.334 1259 728.462 1259 1023.44C1259 1318.42 1588.97 1557.55 1996 1557.55Z" fill="url(#paint3_radial_208_636)"/>
<path d="M2119.64 1592.86C2500.51 1592.86 2809.27 1353.24 2809.27 1057.65C2809.27 762.063 2500.51 522.443 2119.64 522.443C1738.76 522.443 1430 762.063 1430 1057.65C1430 1353.24 1738.76 1592.86 2119.64 1592.86Z" fill="url(#paint4_radial_208_636)"/>
<path d="M2157.64 1971C2538.51 1971 2847.27 1731.38 2847.27 1435.79C2847.27 1140.21 2538.51 900.587 2157.64 900.587C1776.76 900.587 1468 1140.21 1468 1435.79C1468 1731.38 1776.76 1971 2157.64 1971Z" fill="url(#paint5_radial_208_636)"/>
</g>
</g>
<defs>
<filter id="filter0_f_208_636" x="-132" y="-122" width="3139.27" height="2253" filterUnits="userSpaceOnUse" color-interpolation-filters="sRGB">
<feFlood flood-opacity="0" result="BackgroundImageFix"/>
<feBlend mode="normal" in="SourceGraphic" in2="BackgroundImageFix" result="shape"/>
<feGaussianBlur stdDeviation="80" result="effect1_foregroundBlur_208_636"/>
</filter>
<radialGradient id="paint0_radial_208_636" cx="0" cy="0" r="1" gradientUnits="userSpaceOnUse" gradientTransform="translate(-46172 126393) rotate(90) scale(699197 597138)">
<stop stop-color="#76E4FE"/>
<stop offset="1" stop-color="#1F9EFB" stop-opacity="0"/>
</radialGradient>
<radialGradient id="paint1_radial_208_636" cx="0" cy="0" r="1" gradientUnits="userSpaceOnUse" gradientTransform="translate(-107573 344555) rotate(90) scale(626726 533444)">
<stop stop-color="#FAD374"/>
<stop offset="1" stop-color="#F9CB76" stop-opacity="0"/>
</radialGradient>
<radialGradient id="paint2_radial_208_636" cx="0" cy="0" r="1" gradientUnits="userSpaceOnUse" gradientTransform="translate(-387248 35196.7) rotate(90) scale(699197 597862)">
<stop stop-color="#4F1FF2"/>
<stop offset="1" stop-color="#4E23F2" stop-opacity="0"/>
</radialGradient>
<radialGradient id="paint3_radial_208_636" cx="0" cy="0" r="1" gradientUnits="userSpaceOnUse" gradientTransform="translate(-373281 322129) rotate(90) scale(625705 533444)">
<stop stop-color="#F02BA6"/>
<stop offset="1" stop-color="#F024A9" stop-opacity="0"/>
</radialGradient>
<radialGradient id="paint4_radial_208_636" cx="0" cy="0" r="1" gradientUnits="userSpaceOnUse" gradientTransform="translate(-100497 658559) rotate(90) scale(626993 499162)">
<stop stop-color="#F57690"/>
<stop offset="1" stop-color="#F5818D" stop-opacity="0"/>
</radialGradient>
<radialGradient id="paint5_radial_208_636" cx="0" cy="0" r="1" gradientUnits="userSpaceOnUse" gradientTransform="translate(-348822 616694) rotate(90) scale(626993 499162)">
<stop stop-color="#2B7DF8"/>
<stop offset="1" stop-color="#2A80F9" stop-opacity="0"/>
</radialGradient>
<clipPath id="clip0_208_636">
<rect width="2899" height="2013" fill="white"/>
</clipPath>
</defs>
</svg>
