<svg width="2899" height="2013" viewBox="0 0 2899 2013" fill="none" xmlns="http://www.w3.org/2000/svg">
<g clip-path="url(#clip0_208_636)">
<rect width="2899" height="2013" fill="white"/>
<g opacity="0.15" filter="url(#filter0_f_208_636)">
<path d="M853 1291.5C1308.64 1291.5 1678 1061.49 1678 777.75C1678 494.013 1308.64 264 853 264C397.365 264 28 494.013 28 777.75C28 1061.49 397.365 1291.5 853 1291.5Z" fill="url(#paint0_radial_208_636)"/>
<path d="M2091 1291.5C2498.03 1291.5 2828 1085.33 2828 831C2828 576.672 2498.03 370.5 2091 370.5C1683.97 370.5 1354 576.672 1354 831C1354 1085.33 1683.97 1291.5 2091 1291.5Z" fill="url(#paint1_radial_208_636)"/>
<path d="M1055 1758C1511.19 1758 1881 1527.99 1881 1244.25C1881 960.513 1511.19 730.5 1055 730.5C598.813 730.5 229 960.513 229 1244.25C229 1527.99 598.813 1758 1055 1758Z" fill="url(#paint2_radial_208_636)"/>
<path d="M1996 1572C2403.03 1572 2733 1366.16 2733 1112.25C2733 858.337 2403.03 652.5 1996 652.5C1588.97 652.5 1259 858.337 1259 1112.25C1259 1366.16 1588.97 1572 1996 1572Z" fill="url(#paint3_radial_208_636)"/>
<path d="M2119.64 1602.39C2500.51 1602.39 2809.27 1396.13 2809.27 1141.7C2809.27 887.26 2500.51 681 2119.64 681C1738.76 681 1430 887.26 1430 1141.7C1430 1396.13 1738.76 1602.39 2119.64 1602.39Z" fill="url(#paint4_radial_208_636)"/>
<path d="M2157.64 1927.89C2538.51 1927.89 2847.27 1721.63 2847.27 1467.2C2847.27 1212.76 2538.51 1006.5 2157.64 1006.5C1776.76 1006.5 1468 1212.76 1468 1467.2C1468 1721.63 1776.76 1927.89 2157.64 1927.89Z" fill="url(#paint5_radial_208_636)"/>
</g>
</g>
<defs>
<filter id="filter0_f_208_636" x="-132" y="104" width="3139.27" height="1983.89" filterUnits="userSpaceOnUse" color-interpolation-filters="sRGB">
<feFlood flood-opacity="0" result="BackgroundImageFix"/>
<feBlend mode="normal" in="SourceGraphic" in2="BackgroundImageFix" result="shape"/>
<feGaussianBlur stdDeviation="80" result="effect1_foregroundBlur_208_636"/>
</filter>
<radialGradient id="paint0_radial_208_636" cx="0" cy="0" r="1" gradientUnits="userSpaceOnUse" gradientTransform="translate(-46172 109028) rotate(90) scale(601857 597138)">
<stop stop-color="#76E4FE"/>
<stop offset="1" stop-color="#1F9EFB" stop-opacity="0"/>
</radialGradient>
<radialGradient id="paint1_radial_208_636" cx="0" cy="0" r="1" gradientUnits="userSpaceOnUse" gradientTransform="translate(-107573 296818) rotate(90) scale(539475 533444)">
<stop stop-color="#FAD374"/>
<stop offset="1" stop-color="#F9CB76" stop-opacity="0"/>
</radialGradient>
<radialGradient id="paint2_radial_208_636" cx="0" cy="0" r="1" gradientUnits="userSpaceOnUse" gradientTransform="translate(-387248 30528) rotate(90) scale(601857 597862)">
<stop stop-color="#4F1FF2"/>
<stop offset="1" stop-color="#4E23F2" stop-opacity="0"/>
</radialGradient>
<radialGradient id="paint3_radial_208_636" cx="0" cy="0" r="1" gradientUnits="userSpaceOnUse" gradientTransform="translate(-373281 277514) rotate(90) scale(538596 533444)">
<stop stop-color="#F02BA6"/>
<stop offset="1" stop-color="#F024A9" stop-opacity="0"/>
</radialGradient>
<radialGradient id="paint4_radial_208_636" cx="0" cy="0" r="1" gradientUnits="userSpaceOnUse" gradientTransform="translate(-100497 567108) rotate(90) scale(539705 499162)">
<stop stop-color="#F57690"/>
<stop offset="1" stop-color="#F5818D" stop-opacity="0"/>
</radialGradient>
<radialGradient id="paint5_radial_208_636" cx="0" cy="0" r="1" gradientUnits="userSpaceOnUse" gradientTransform="translate(-348822 531070) rotate(90) scale(539705 499162)">
<stop stop-color="#2B7DF8"/>
<stop offset="1" stop-color="#2A80F9" stop-opacity="0"/>
</radialGradient>
<clipPath id="clip0_208_636">
<rect width="2899" height="2013" fill="white"/>
</clipPath>
</defs>
</svg>
