<svg width="86" height="86" viewBox="0 0 86 86" fill="none" xmlns="http://www.w3.org/2000/svg">
<rect width="86" height="86" rx="12" fill="white"/>
<path fill-rule="evenodd" clip-rule="evenodd" d="M36.5633 59.6666C35.8767 59.6666 35.225 59.6133 34.6117 59.5083L34.2483 59.4399C30.2967 58.6183 28 55.5916 28 50.9849V35.0149C28 34.4583 28.0333 33.9249 28.1 33.4149C28.6817 28.9399 31.7567 26.3333 36.5633 26.3333H49.4383C54.765 26.3333 57.95 29.5333 58 34.8866V35.0149V50.9849C58 56.4133 54.8067 59.6666 49.4383 59.6666H36.5633ZM36.5634 28.7616C32.4701 28.7616 30.3951 30.8666 30.3951 35.0149V50.9849C30.3951 55.1333 32.4701 57.2383 36.5634 57.2383H49.4234C53.5151 57.2383 55.5767 55.1333 55.5767 50.9849V35.0149C55.5767 30.8666 53.5151 28.7616 49.4234 28.7616H36.5634ZM50.1767 50.0566C50.1767 49.3899 49.6451 48.8499 48.9884 48.8499H36.9701C36.3134 48.8499 35.7801 49.3899 35.7801 50.0566C35.7801 50.7232 36.3134 51.2632 36.9701 51.2632H48.9884C49.6451 51.2632 50.1767 50.7232 50.1767 50.0566ZM48.9883 41.7849C49.4467 41.7349 49.895 41.9549 50.14 42.3499C50.385 42.7482 50.385 43.2515 50.14 43.6499C49.895 44.0449 49.4467 44.2649 48.9883 44.2149H36.97C36.36 44.1449 35.8983 43.6232 35.8983 42.9999C35.8983 42.3765 36.36 41.8532 36.97 41.7849H48.9883ZM42.6282 35.9516C42.6282 35.3283 42.1666 34.8049 41.5566 34.7366H36.9849C36.3732 34.8049 35.9116 35.3283 35.9116 35.9516C35.9116 36.5733 36.3732 37.0966 36.9849 37.1649H41.5566C42.1666 37.0966 42.6282 36.5733 42.6282 35.9516Z" fill="#55479F"/>
<path d="M34.6117 59.5083L34.5192 59.9997L34.5273 60.0011L34.6117 59.5083ZM34.2483 59.4399L34.1465 59.9295L34.1559 59.9313L34.2483 59.4399ZM28.1 33.4149L28.5958 33.4797L28.5958 33.4794L28.1 33.4149ZM58 34.8866L58.5 34.8866L58.5 34.8819L58 34.8866ZM50.14 42.3499L50.5659 42.0879L50.5649 42.0863L50.14 42.3499ZM48.9883 41.7849V42.2849H49.0155L49.0425 42.2819L48.9883 41.7849ZM50.14 43.6499L50.5649 43.9134L50.5659 43.9118L50.14 43.6499ZM48.9883 44.2149L49.0425 43.7178L49.0155 43.7149H48.9883V44.2149ZM36.97 44.2149L36.913 44.7116L36.9414 44.7149H36.97V44.2149ZM36.97 41.7849V41.2849H36.9421L36.9143 41.288L36.97 41.7849ZM41.5566 34.7366L41.6122 34.2397L41.5845 34.2366H41.5566V34.7366ZM36.9849 34.7366V34.2366H36.9571L36.9294 34.2397L36.9849 34.7366ZM36.9849 37.1649L36.9294 37.6618L36.9571 37.6649H36.9849V37.1649ZM41.5566 37.1649V37.6649H41.5845L41.6122 37.6618L41.5566 37.1649ZM34.5273 60.0011C35.1709 60.1113 35.8509 60.1666 36.5633 60.1666V59.1666C35.9024 59.1666 35.2791 59.1152 34.696 59.0154L34.5273 60.0011ZM34.1559 59.9313L34.5193 59.9996L34.7041 59.0169L34.3407 58.9485L34.1559 59.9313ZM27.5 50.9849C27.5 53.3703 28.0951 55.3904 29.2412 56.9303C30.3904 58.4745 32.0648 59.4966 34.1465 59.9294L34.3501 58.9504C32.4802 58.5616 31.0304 57.6595 30.0434 56.3333C29.0532 55.0028 28.5 53.2062 28.5 50.9849H27.5ZM27.5 35.0149V50.9849H28.5V35.0149H27.5ZM27.6042 33.3501C27.5345 33.8833 27.5 34.4383 27.5 35.0149H28.5C28.5 34.4782 28.5321 33.9666 28.5958 33.4797L27.6042 33.3501ZM36.5633 25.8333C34.0699 25.8333 31.9772 26.5104 30.4258 27.813C28.872 29.1177 27.9083 31.0105 27.6042 33.3505L28.5958 33.4794C28.8733 31.3444 29.738 29.6963 31.0688 28.5789C32.402 27.4594 34.2501 26.8333 36.5633 26.8333V25.8333ZM49.4383 25.8333H36.5633V26.8333H49.4383V25.8333ZM58.5 34.8819C58.4741 32.1072 57.6334 29.8317 56.0516 28.249C54.4691 26.6656 52.2024 25.8333 49.4383 25.8333V26.8333C52.0009 26.8333 53.9901 27.6009 55.3443 28.9559C56.6991 30.3115 57.4759 32.3126 57.5 34.8913L58.5 34.8819ZM58.5 35.0149V34.8866H57.5V35.0149H58.5ZM58.5 50.9849V35.0149H57.5V50.9849H58.5ZM49.4383 60.1666C52.2243 60.1666 54.5048 59.3202 56.0885 57.7122C57.6713 56.1052 58.5 53.7966 58.5 50.9849H57.5C57.5 53.6016 56.7321 55.6338 55.3761 57.0105C54.021 58.3863 52.0207 59.1666 49.4383 59.1666V60.1666ZM36.5633 60.1666H49.4383V59.1666H36.5633V60.1666ZM30.8951 35.0149C30.8951 33.0179 31.3943 31.6024 32.3002 30.6837C33.205 29.7664 34.5974 29.2616 36.5634 29.2616V28.2616C34.4361 28.2616 32.7443 28.8094 31.5883 29.9816C30.4334 31.1525 29.8951 32.8636 29.8951 35.0149H30.8951ZM30.8951 50.9849V35.0149H29.8951V50.9849H30.8951ZM36.5634 56.7383C34.5974 56.7383 33.205 56.2335 32.3002 55.3161C31.3943 54.3975 30.8951 52.982 30.8951 50.9849H29.8951C29.8951 53.1362 30.4334 54.8474 31.5883 56.0183C32.7443 57.1905 34.4361 57.7383 36.5634 57.7383V56.7383ZM49.4234 56.7383H36.5634V57.7383H49.4234V56.7383ZM55.0767 50.9849C55.0767 52.9828 54.5805 54.3984 53.6779 55.3168C52.7768 56.2336 51.3885 56.7383 49.4234 56.7383V57.7383C51.55 57.7383 53.2384 57.1905 54.3911 56.0177C55.5422 54.8465 56.0767 53.1354 56.0767 50.9849H55.0767ZM55.0767 35.0149V50.9849H56.0767V35.0149H55.0767ZM49.4234 29.2616C51.3885 29.2616 52.7768 29.7663 53.6779 30.6831C54.5805 31.6015 55.0767 33.0171 55.0767 35.0149H56.0767C56.0767 32.8645 55.5422 31.1534 54.3911 29.9822C53.2384 28.8094 51.55 28.2616 49.4234 28.2616V29.2616ZM36.5634 29.2616H49.4234V28.2616H36.5634V29.2616ZM48.9884 49.3499C49.3617 49.3499 49.6767 49.6588 49.6767 50.0566H50.6767C50.6767 49.121 49.9284 48.3499 48.9884 48.3499V49.3499ZM36.9701 49.3499H48.9884V48.3499H36.9701V49.3499ZM36.2801 50.0566C36.2801 49.6597 36.5959 49.3499 36.9701 49.3499V48.3499C36.031 48.3499 35.2801 49.1201 35.2801 50.0566H36.2801ZM36.9701 50.7632C36.5959 50.7632 36.2801 50.4534 36.2801 50.0566H35.2801C35.2801 50.993 36.031 51.7632 36.9701 51.7632V50.7632ZM48.9884 50.7632H36.9701V51.7632H48.9884V50.7632ZM49.6767 50.0566C49.6767 50.4544 49.3617 50.7632 48.9884 50.7632V51.7632C49.9284 51.7632 50.6767 50.9921 50.6767 50.0566H49.6767ZM50.5649 42.0863C50.2195 41.5295 49.5858 41.2167 48.9341 41.2878L49.0425 42.2819C49.3075 42.253 49.5704 42.3802 49.7151 42.6134L50.5649 42.0863ZM50.5659 43.9118C50.9097 43.3528 50.9097 42.6469 50.5659 42.0879L49.7141 42.6118C49.8603 42.8495 49.8603 43.1503 49.7141 43.3879L50.5659 43.9118ZM48.9341 44.7119C49.5858 44.783 50.2195 44.4702 50.5649 43.9134L49.7151 43.3863C49.5704 43.6195 49.3075 43.7467 49.0425 43.7178L48.9341 44.7119ZM36.97 44.7149H48.9883V43.7149H36.97V44.7149ZM35.3983 42.9999C35.3983 43.8728 36.0462 44.6121 36.913 44.7116L37.027 43.7181C36.6738 43.6776 36.3983 43.3736 36.3983 42.9999H35.3983ZM36.9143 41.288C36.0453 41.3853 35.3983 42.128 35.3983 42.9999H36.3983C36.3983 42.625 36.6747 42.3211 37.0256 42.2818L36.9143 41.288ZM48.9883 41.2849H36.97V42.2849H48.9883V41.2849ZM41.5009 35.2335C41.8519 35.2728 42.1282 35.5768 42.1282 35.9516H43.1282C43.1282 35.0798 42.4813 34.3371 41.6122 34.2397L41.5009 35.2335ZM36.9849 35.2366H41.5566V34.2366H36.9849V35.2366ZM36.4116 35.9516C36.4116 35.5772 36.6875 35.2729 37.0404 35.2335L36.9294 34.2397C36.059 34.3369 35.4116 35.0794 35.4116 35.9516H36.4116ZM37.0404 36.668C36.6871 36.6285 36.4116 36.3239 36.4116 35.9516H35.4116C35.4116 36.8226 36.0594 37.5646 36.9294 37.6618L37.0404 36.668ZM41.5566 36.6649H36.9849V37.6649H41.5566V36.6649ZM42.1282 35.9516C42.1282 36.3243 41.8523 36.6287 41.5009 36.668L41.6122 37.6618C42.4808 37.5645 43.1282 36.8222 43.1282 35.9516H42.1282Z" fill="#605DEC"/>
</svg>
