<svg width="86" height="86" viewBox="0 0 86 86" fill="none" xmlns="http://www.w3.org/2000/svg">
<rect width="86" height="86" rx="12" fill="white"/>
<path d="M35.7083 41.5416L41.5416 28.4166C42.7019 28.4166 43.8147 28.8776 44.6352 29.698C45.4557 30.5185 45.9166 31.6313 45.9166 32.7916V38.625H54.1708C54.5936 38.6202 55.0123 38.7074 55.3981 38.8805C55.7838 39.0536 56.1273 39.3085 56.4048 39.6276C56.6822 39.9466 56.8869 40.3222 57.0048 40.7282C57.1227 41.1343 57.1509 41.5611 57.0875 41.9791L55.075 55.1041C54.9695 55.7996 54.6162 56.4336 54.0802 56.8891C53.5443 57.3447 52.8617 57.5912 52.1583 57.5833H35.7083M35.7083 41.5416V57.5833M35.7083 41.5416H31.3333C30.5597 41.5416 29.8179 41.8489 29.2709 42.3959C28.7239 42.9429 28.4166 43.6847 28.4166 44.4583V54.6666C28.4166 55.4402 28.7239 56.182 29.2709 56.729C29.8179 57.276 30.5597 57.5833 31.3333 57.5833H35.7083" stroke="#605DEC" stroke-width="3" stroke-linecap="round" stroke-linejoin="round"/>
</svg>
