<svg width="3027" height="897" viewBox="0 0 3027 897" fill="none" xmlns="http://www.w3.org/2000/svg">
<g clip-path="url(#clip0_3253_23438)">
<rect width="1280" height="720" transform="translate(146 100)" fill="white"/>
<rect x="559" y="432" width="558" height="261" rx="12" fill="#F5F5F5"/>
<text fill="black" xml:space="preserve" style="white-space: pre" font-family="Chalkboard" font-size="24" letter-spacing="0em"><tspan x="591.398" y="485.367">Saved keywords</tspan></text>
<text fill="#DEB650" xml:space="preserve" style="white-space: pre" font-family="Chalkboard" font-size="24" letter-spacing="0em"><tspan x="1038.17" y="485.367">Edit</tspan></text>
<text fill="black" xml:space="preserve" style="white-space: pre" font-family="Chalkboard" font-size="18" letter-spacing="0em"><tspan x="591.019" y="560.275">Lululemon, Hoodies</tspan></text>
<rect x="1042" y="538" width="43" height="32" rx="16" fill="#333333"/>
<text fill="white" xml:space="preserve" style="white-space: pre" font-family="Chalkboard" font-size="16" letter-spacing="0em"><tspan x="1054" y="559.578">25</tspan></text>
<path d="M1085 585H591V587H1085V585Z" fill="black" mask="url(#path-4-inside-1_3253_23438)"/>
<text fill="black" xml:space="preserve" style="white-space: pre" font-family="Chalkboard" font-size="18" letter-spacing="0em"><tspan x="591.31" y="635.275">Lululemon, Leggins</tspan></text>
<rect x="1033" y="613" width="51" height="32" rx="16" fill="#333333"/>
<text fill="white" xml:space="preserve" style="white-space: pre" font-family="Chalkboard" font-size="16" letter-spacing="0em"><tspan x="1045" y="634.578">99+</tspan></text>
<path d="M1084 660H591V662H1084V660Z" fill="black" mask="url(#path-9-inside-2_3253_23438)"/>
<rect width="191" height="48" transform="translate(146 180)" fill="#F5F5F5"/>
<path d="M183.21 207.89C182.574 209.394 181.579 210.72 180.312 211.751C179.045 212.782 177.545 213.487 175.942 213.805C174.34 214.122 172.684 214.042 171.12 213.572C169.556 213.101 168.131 212.255 166.969 211.107C165.807 209.958 164.945 208.543 164.457 206.984C163.968 205.425 163.87 203.771 164.169 202.165C164.468 200.559 165.155 199.051 166.172 197.772C167.189 196.493 168.503 195.483 170 194.83" stroke="#7D7D7D" stroke-width="2" stroke-linecap="round" stroke-linejoin="round"/>
<path d="M184 204C184 202.687 183.741 201.386 183.239 200.173C182.736 198.96 182 197.858 181.071 196.929C180.142 196 179.04 195.264 177.827 194.761C176.614 194.259 175.313 194 174 194V204H184Z" stroke="#7D7D7D" stroke-width="2" stroke-linecap="round" stroke-linejoin="round"/>
<text fill="#7D7D7D" xml:space="preserve" style="white-space: pre" font-family="Chalkboard" font-size="16" letter-spacing="0em"><tspan x="194" y="209.578">Dashboard</tspan></text>
<g filter="url(#filter0_i_3253_23438)">
<rect width="191" height="48" transform="translate(146 228)" fill="white"/>
<path d="M180 248H181C182.061 248 183.078 248.421 183.828 249.172C184.579 249.922 185 250.939 185 252C185 253.061 184.579 254.078 183.828 254.828C183.078 255.579 182.061 256 181 256H180" stroke="#333333" stroke-width="2" stroke-linecap="round" stroke-linejoin="round"/>
<path d="M164 248H180V257C180 258.061 179.579 259.078 178.828 259.828C178.078 260.579 177.061 261 176 261H168C166.939 261 165.922 260.579 165.172 259.828C164.421 259.078 164 258.061 164 257V248Z" stroke="#333333" stroke-width="2" stroke-linecap="round" stroke-linejoin="round"/>
<path d="M168 241V244" stroke="#333333" stroke-width="2" stroke-linecap="round" stroke-linejoin="round"/>
<path d="M172 241V244" stroke="#898F9B" stroke-width="2" stroke-linecap="round" stroke-linejoin="round"/>
<path d="M176 241V244" stroke="#898F9B" stroke-width="2" stroke-linecap="round" stroke-linejoin="round"/>
<text fill="#333333" xml:space="preserve" style="white-space: pre" font-family="Chalkboard" font-size="16" letter-spacing="0em"><tspan x="194" y="257.578">Keywords</tspan></text>
<path d="M319 255L313 249L307 255" stroke="#333333" stroke-width="2" stroke-linecap="round" stroke-linejoin="round"/>
</g>
<rect width="191" height="108" transform="translate(146 276)" fill="white"/>
<text fill="#7D7D7D" xml:space="preserve" style="white-space: pre" font-family="Chalkboard" font-size="16" letter-spacing="0em"><tspan x="194" y="299.578">Keyword</tspan></text>
<rect width="191" height="36" transform="translate(146 312)" fill="#EEEEEE"/>
<text fill="#7D7D7D" xml:space="preserve" style="white-space: pre" font-family="Chalkboard" font-size="16" letter-spacing="0em"><tspan x="194" y="335.578">Keyword</tspan></text>
<text fill="#7D7D7D" xml:space="preserve" style="white-space: pre" font-family="Chalkboard" font-size="16" letter-spacing="0em"><tspan x="194" y="371.578">Keyword</tspan></text>
<rect width="191" height="48" transform="translate(146 384)" fill="#F5F5F5"/>
<path d="M174 411C175.657 411 177 409.657 177 408C177 406.343 175.657 405 174 405C172.343 405 171 406.343 171 408C171 409.657 172.343 411 174 411Z" stroke="#7D7D7D" stroke-width="2" stroke-linecap="round" stroke-linejoin="round"/>
<path d="M181.4 411C181.267 411.302 181.227 411.636 181.286 411.961C181.345 412.285 181.499 412.584 181.73 412.82L181.79 412.88C181.976 413.066 182.123 413.286 182.224 413.529C182.325 413.772 182.377 414.032 182.377 414.295C182.377 414.558 182.325 414.818 182.224 415.061C182.123 415.304 181.976 415.524 181.79 415.71C181.604 415.896 181.384 416.043 181.141 416.144C180.898 416.245 180.638 416.297 180.375 416.297C180.112 416.297 179.852 416.245 179.609 416.144C179.366 416.043 179.146 415.896 178.96 415.71L178.9 415.65C178.664 415.419 178.365 415.265 178.041 415.206C177.716 415.147 177.382 415.187 177.08 415.32C176.784 415.447 176.532 415.657 176.354 415.926C176.177 416.194 176.081 416.508 176.08 416.83V417C176.08 417.53 175.869 418.039 175.494 418.414C175.119 418.789 174.61 419 174.08 419C173.55 419 173.041 418.789 172.666 418.414C172.291 418.039 172.08 417.53 172.08 417V416.91C172.072 416.579 171.965 416.258 171.773 415.989C171.58 415.719 171.311 415.514 171 415.4C170.698 415.267 170.364 415.227 170.039 415.286C169.715 415.345 169.416 415.499 169.18 415.73L169.12 415.79C168.934 415.976 168.714 416.123 168.471 416.224C168.228 416.325 167.968 416.377 167.705 416.377C167.442 416.377 167.182 416.325 166.939 416.224C166.696 416.123 166.476 415.976 166.29 415.79C166.104 415.604 165.957 415.384 165.856 415.141C165.755 414.898 165.703 414.638 165.703 414.375C165.703 414.112 165.755 413.852 165.856 413.609C165.957 413.366 166.104 413.146 166.29 412.96L166.35 412.9C166.581 412.664 166.735 412.365 166.794 412.041C166.853 411.716 166.813 411.382 166.68 411.08C166.553 410.784 166.343 410.532 166.074 410.354C165.806 410.177 165.492 410.081 165.17 410.08H165C164.47 410.08 163.961 409.869 163.586 409.494C163.211 409.119 163 408.61 163 408.08C163 407.55 163.211 407.041 163.586 406.666C163.961 406.291 164.47 406.08 165 406.08H165.09C165.421 406.072 165.742 405.965 166.011 405.773C166.281 405.58 166.486 405.311 166.6 405C166.733 404.698 166.773 404.364 166.714 404.039C166.655 403.715 166.501 403.416 166.27 403.18L166.21 403.12C166.024 402.934 165.877 402.714 165.776 402.471C165.675 402.228 165.623 401.968 165.623 401.705C165.623 401.442 165.675 401.182 165.776 400.939C165.877 400.696 166.024 400.476 166.21 400.29C166.396 400.104 166.616 399.957 166.859 399.856C167.102 399.755 167.362 399.703 167.625 399.703C167.888 399.703 168.148 399.755 168.391 399.856C168.634 399.957 168.854 400.104 169.04 400.29L169.1 400.35C169.336 400.581 169.635 400.735 169.959 400.794C170.284 400.853 170.618 400.813 170.92 400.68H171C171.296 400.553 171.548 400.343 171.726 400.074C171.903 399.806 171.999 399.492 172 399.17V399C172 398.47 172.211 397.961 172.586 397.586C172.961 397.211 173.47 397 174 397C174.53 397 175.039 397.211 175.414 397.586C175.789 397.961 176 398.47 176 399V399.09C176.001 399.412 176.097 399.726 176.274 399.994C176.452 400.263 176.704 400.473 177 400.6C177.302 400.733 177.636 400.773 177.961 400.714C178.285 400.655 178.584 400.501 178.82 400.27L178.88 400.21C179.066 400.024 179.286 399.877 179.529 399.776C179.772 399.675 180.032 399.623 180.295 399.623C180.558 399.623 180.818 399.675 181.061 399.776C181.304 399.877 181.524 400.024 181.71 400.21C181.896 400.396 182.043 400.616 182.144 400.859C182.245 401.102 182.297 401.362 182.297 401.625C182.297 401.888 182.245 402.148 182.144 402.391C182.043 402.634 181.896 402.854 181.71 403.04L181.65 403.1C181.419 403.336 181.265 403.635 181.206 403.959C181.147 404.284 181.187 404.618 181.32 404.92V405C181.447 405.296 181.657 405.548 181.926 405.726C182.194 405.903 182.508 405.999 182.83 406H183C183.53 406 184.039 406.211 184.414 406.586C184.789 406.961 185 407.47 185 408C185 408.53 184.789 409.039 184.414 409.414C184.039 409.789 183.53 410 183 410H182.91C182.588 410.001 182.274 410.097 182.006 410.274C181.737 410.452 181.527 410.704 181.4 411V411Z" stroke="#7D7D7D" stroke-width="2" stroke-linecap="round" stroke-linejoin="round"/>
<text fill="#7D7D7D" xml:space="preserve" style="white-space: pre" font-family="Chalkboard" font-size="16" letter-spacing="0em"><tspan x="194" y="413.578">Settings</tspan></text>
<rect x="145" y="179" width="193" height="254" stroke="#EEEEEE" stroke-width="2"/>
<g filter="url(#filter1_d_3253_23438)">
<rect width="1280" height="80" transform="translate(146 100)" fill="white"/>
<rect x="211" y="117" width="39.8684" height="38" fill="#F5F5F5"/>
<path d="M216 122L246 150" stroke="#AAAAAA" stroke-width="2"/>
<path d="M246 122L216 150" stroke="#AAAAAA" stroke-width="2"/>
<rect x="211" y="117" width="39.8684" height="38" stroke="#AAAAAA" stroke-width="2"/>
<circle cx="1338" cy="140" r="23" fill="#F5F5F5" stroke="#AAAAAA" stroke-width="2"/>
<mask id="path-35-inside-3_3253_23438" fill="white">
<path fill-rule="evenodd" clip-rule="evenodd" d="M1320 155.875V155C1320 149.015 1331.99 146 1338 146C1344.01 146 1356 149.015 1356 155V155.875C1351.6 160.857 1345.17 164 1338 164C1330.83 164 1324.4 160.857 1320 155.875ZM1338 126C1333.03 126 1329 130.028 1329 135C1329 139.972 1333.03 144 1338 144C1342.97 144 1347 139.972 1347 135C1347 130.028 1342.97 126 1338 126Z"/>
</mask>
<path fill-rule="evenodd" clip-rule="evenodd" d="M1320 155.875V155C1320 149.015 1331.99 146 1338 146C1344.01 146 1356 149.015 1356 155V155.875C1351.6 160.857 1345.17 164 1338 164C1330.83 164 1324.4 160.857 1320 155.875ZM1338 126C1333.03 126 1329 130.028 1329 135C1329 139.972 1333.03 144 1338 144C1342.97 144 1347 139.972 1347 135C1347 130.028 1342.97 126 1338 126Z" fill="#F5F5F5"/>
<path d="M1320 155.875H1318V156.631L1318.5 157.198L1320 155.875ZM1356 155.875L1357.5 157.198L1358 156.631V155.875H1356ZM1322 155.875V155H1318V155.875H1322ZM1322 155C1322 154.238 1322.37 153.423 1323.32 152.539C1324.3 151.641 1325.74 150.814 1327.49 150.112C1331 148.707 1335.25 148 1338 148V144C1334.75 144 1329.99 144.801 1326 146.399C1324.01 147.199 1322.08 148.248 1320.61 149.599C1319.13 150.963 1318 152.769 1318 155H1322ZM1338 148C1340.75 148 1345 148.707 1348.51 150.112C1350.26 150.814 1351.7 151.641 1352.68 152.539C1353.63 153.423 1354 154.238 1354 155H1358C1358 152.769 1356.87 150.963 1355.39 149.599C1353.92 148.248 1351.99 147.199 1350 146.399C1346.01 144.801 1341.25 144 1338 144V148ZM1354 155V155.875H1358V155H1354ZM1354.5 154.551C1350.47 159.122 1344.57 162 1338 162V166C1345.77 166 1352.74 162.593 1357.5 157.198L1354.5 154.551ZM1338 162C1331.43 162 1325.53 159.122 1321.5 154.551L1318.5 157.198C1323.26 162.593 1330.23 166 1338 166V162ZM1331 135C1331 131.132 1334.13 128 1338 128V124C1331.92 124 1327 128.923 1327 135H1331ZM1338 142C1334.13 142 1331 138.868 1331 135H1327C1327 141.077 1331.92 146 1338 146V142ZM1345 135C1345 138.868 1341.87 142 1338 142V146C1344.08 146 1349 141.077 1349 135H1345ZM1338 128C1341.87 128 1345 131.132 1345 135H1349C1349 128.923 1344.08 124 1338 124V128Z" fill="#AAAAAA" mask="url(#path-35-inside-3_3253_23438)"/>
</g>
<rect x="559" y="216" width="558" height="170" rx="12" fill="#F5F5F5"/>
<text fill="#767676" xml:space="preserve" style="white-space: pre" font-family="Chalkboard" font-size="14" letter-spacing="0em"><tspan x="591" y="298.881">Enter keywords</tspan></text>
<text fill="black" xml:space="preserve" style="white-space: pre" font-family="Chalkboard" font-size="24" letter-spacing="0em"><tspan x="591.172" y="269.367">Setup keywords</tspan></text>
<rect x="592" y="315" width="492" height="169" rx="3" fill="white"/>
<rect x="592" y="315" width="492" height="169" rx="3" stroke="#AAAAAA" stroke-width="2"/>
<path d="M616 390C621.523 390 626 385.523 626 380C626 374.477 621.523 370 616 370C610.477 370 606 374.477 606 380C606 385.523 610.477 390 616 390Z" stroke="#898F9B" stroke-width="2" stroke-linecap="round" stroke-linejoin="round"/>
<path d="M616 374V380L620 382" stroke="#898F9B" stroke-width="2" stroke-linecap="round" stroke-linejoin="round"/>
<text fill="#7D7D7D" xml:space="preserve" style="white-space: pre" font-family="Chalkboard" font-size="16" letter-spacing="0em"><tspan x="640" y="385.578">Adidas, new item</tspan></text>
<path d="M1065 374L1053 386" stroke="#898F9B" stroke-width="2" stroke-linecap="round" stroke-linejoin="round"/>
<path d="M1053 374L1065 386" stroke="#898F9B" stroke-width="2" stroke-linecap="round" stroke-linejoin="round"/>
<path d="M616 430C621.523 430 626 425.523 626 420C626 414.477 621.523 410 616 410C610.477 410 606 414.477 606 420C606 425.523 610.477 430 616 430Z" stroke="#898F9B" stroke-width="2" stroke-linecap="round" stroke-linejoin="round"/>
<path d="M616 414V420L620 422" stroke="#898F9B" stroke-width="2" stroke-linecap="round" stroke-linejoin="round"/>
<text fill="#7D7D7D" xml:space="preserve" style="white-space: pre" font-family="Chalkboard" font-size="16" letter-spacing="0em"><tspan x="640" y="425.578">Adidas, new item review</tspan></text>
<path d="M1065 414L1053 426" stroke="#898F9B" stroke-width="2" stroke-linecap="round" stroke-linejoin="round"/>
<path d="M1053 414L1065 426" stroke="#898F9B" stroke-width="2" stroke-linecap="round" stroke-linejoin="round"/>
<path d="M616 470C621.523 470 626 465.523 626 460C626 454.477 621.523 450 616 450C610.477 450 606 454.477 606 460C606 465.523 610.477 470 616 470Z" stroke="#898F9B" stroke-width="2" stroke-linecap="round" stroke-linejoin="round"/>
<path d="M616 454V460L620 462" stroke="#898F9B" stroke-width="2" stroke-linecap="round" stroke-linejoin="round"/>
<text fill="#7D7D7D" xml:space="preserve" style="white-space: pre" font-family="Chalkboard" font-size="16" letter-spacing="0em"><tspan x="640" y="465.578">Adidas, Hiking shoes</tspan></text>
<path d="M1065 454L1053 466" stroke="#898F9B" stroke-width="2" stroke-linecap="round" stroke-linejoin="round"/>
<path d="M1053 454L1065 466" stroke="#898F9B" stroke-width="2" stroke-linecap="round" stroke-linejoin="round"/>
<path d="M615 342C619.418 342 623 338.418 623 334C623 329.582 619.418 326 615 326C610.582 326 607 329.582 607 334C607 338.418 610.582 342 615 342Z" stroke="#898F9B" stroke-width="2" stroke-linecap="round" stroke-linejoin="round"/>
<path d="M625 344L620.65 339.65" stroke="#898F9B" stroke-width="2" stroke-linecap="round" stroke-linejoin="round"/>
<text fill="#7D7D7D" xml:space="preserve" style="white-space: pre" font-family="Chalkboard" font-size="16" letter-spacing="0em"><tspan x="640" y="340.578">Adidas, ultraboost</tspan></text>
<path d="M604 355L1071 355" stroke="#AAAAAA"/>
</g>
<g clip-path="url(#clip1_3253_23438)">
<rect width="1280" height="720" transform="translate(1601 100)" fill="white"/>
<rect width="191" height="48" transform="translate(1601 180)" fill="#F5F5F5"/>
<path d="M1638.21 207.89C1637.57 209.394 1636.58 210.72 1635.31 211.751C1634.04 212.782 1632.54 213.487 1630.94 213.805C1629.34 214.122 1627.68 214.042 1626.12 213.572C1624.56 213.101 1623.13 212.255 1621.97 211.107C1620.81 209.958 1619.94 208.543 1619.46 206.984C1618.97 205.425 1618.87 203.771 1619.17 202.165C1619.47 200.559 1620.16 199.051 1621.17 197.772C1622.19 196.493 1623.5 195.483 1625 194.83" stroke="#7D7D7D" stroke-width="2" stroke-linecap="round" stroke-linejoin="round"/>
<path d="M1639 204C1639 202.687 1638.74 201.386 1638.24 200.173C1637.74 198.96 1637 197.858 1636.07 196.929C1635.14 196 1634.04 195.264 1632.83 194.761C1631.61 194.259 1630.31 194 1629 194V204H1639Z" stroke="#7D7D7D" stroke-width="2" stroke-linecap="round" stroke-linejoin="round"/>
<text fill="#7D7D7D" xml:space="preserve" style="white-space: pre" font-family="Chalkboard" font-size="16" letter-spacing="0em"><tspan x="1649" y="209.578">Dashboard</tspan></text>
<g filter="url(#filter2_i_3253_23438)">
<rect width="191" height="48" transform="translate(1601 228)" fill="white"/>
<path d="M1635 248H1636C1637.06 248 1638.08 248.421 1638.83 249.172C1639.58 249.922 1640 250.939 1640 252C1640 253.061 1639.58 254.078 1638.83 254.828C1638.08 255.579 1637.06 256 1636 256H1635" stroke="#333333" stroke-width="2" stroke-linecap="round" stroke-linejoin="round"/>
<path d="M1619 248H1635V257C1635 258.061 1634.58 259.078 1633.83 259.828C1633.08 260.579 1632.06 261 1631 261H1623C1621.94 261 1620.92 260.579 1620.17 259.828C1619.42 259.078 1619 258.061 1619 257V248Z" stroke="#333333" stroke-width="2" stroke-linecap="round" stroke-linejoin="round"/>
<path d="M1623 241V244" stroke="#333333" stroke-width="2" stroke-linecap="round" stroke-linejoin="round"/>
<path d="M1627 241V244" stroke="#898F9B" stroke-width="2" stroke-linecap="round" stroke-linejoin="round"/>
<path d="M1631 241V244" stroke="#898F9B" stroke-width="2" stroke-linecap="round" stroke-linejoin="round"/>
<text fill="#333333" xml:space="preserve" style="white-space: pre" font-family="Chalkboard" font-size="16" letter-spacing="0em"><tspan x="1649" y="257.578">Keywords</tspan></text>
<path d="M1774 255L1768 249L1762 255" stroke="#333333" stroke-width="2" stroke-linecap="round" stroke-linejoin="round"/>
</g>
<rect width="191" height="108" transform="translate(1601 276)" fill="white"/>
<text fill="#7D7D7D" xml:space="preserve" style="white-space: pre" font-family="Chalkboard" font-size="16" letter-spacing="0em"><tspan x="1649" y="299.578">Keyword</tspan></text>
<rect width="191" height="36" transform="translate(1601 312)" fill="#EEEEEE"/>
<text fill="#7D7D7D" xml:space="preserve" style="white-space: pre" font-family="Chalkboard" font-size="16" letter-spacing="0em"><tspan x="1649" y="335.578">Keyword</tspan></text>
<text fill="#7D7D7D" xml:space="preserve" style="white-space: pre" font-family="Chalkboard" font-size="16" letter-spacing="0em"><tspan x="1649" y="371.578">Keyword</tspan></text>
<rect width="191" height="48" transform="translate(1601 384)" fill="#F5F5F5"/>
<path d="M1629 411C1630.66 411 1632 409.657 1632 408C1632 406.343 1630.66 405 1629 405C1627.34 405 1626 406.343 1626 408C1626 409.657 1627.34 411 1629 411Z" stroke="#7D7D7D" stroke-width="2" stroke-linecap="round" stroke-linejoin="round"/>
<path d="M1636.4 411C1636.27 411.302 1636.23 411.636 1636.29 411.961C1636.34 412.285 1636.5 412.584 1636.73 412.82L1636.79 412.88C1636.98 413.066 1637.12 413.286 1637.22 413.529C1637.32 413.772 1637.38 414.032 1637.38 414.295C1637.38 414.558 1637.32 414.818 1637.22 415.061C1637.12 415.304 1636.98 415.524 1636.79 415.71C1636.6 415.896 1636.38 416.043 1636.14 416.144C1635.9 416.245 1635.64 416.297 1635.38 416.297C1635.11 416.297 1634.85 416.245 1634.61 416.144C1634.37 416.043 1634.15 415.896 1633.96 415.71L1633.9 415.65C1633.66 415.419 1633.36 415.265 1633.04 415.206C1632.72 415.147 1632.38 415.187 1632.08 415.32C1631.78 415.447 1631.53 415.657 1631.35 415.926C1631.18 416.194 1631.08 416.508 1631.08 416.83V417C1631.08 417.53 1630.87 418.039 1630.49 418.414C1630.12 418.789 1629.61 419 1629.08 419C1628.55 419 1628.04 418.789 1627.67 418.414C1627.29 418.039 1627.08 417.53 1627.08 417V416.91C1627.07 416.579 1626.97 416.258 1626.77 415.989C1626.58 415.719 1626.31 415.514 1626 415.4C1625.7 415.267 1625.36 415.227 1625.04 415.286C1624.72 415.345 1624.42 415.499 1624.18 415.73L1624.12 415.79C1623.93 415.976 1623.71 416.123 1623.47 416.224C1623.23 416.325 1622.97 416.377 1622.7 416.377C1622.44 416.377 1622.18 416.325 1621.94 416.224C1621.7 416.123 1621.48 415.976 1621.29 415.79C1621.1 415.604 1620.96 415.384 1620.86 415.141C1620.76 414.898 1620.7 414.638 1620.7 414.375C1620.7 414.112 1620.76 413.852 1620.86 413.609C1620.96 413.366 1621.1 413.146 1621.29 412.96L1621.35 412.9C1621.58 412.664 1621.74 412.365 1621.79 412.041C1621.85 411.716 1621.81 411.382 1621.68 411.08C1621.55 410.784 1621.34 410.532 1621.07 410.354C1620.81 410.177 1620.49 410.081 1620.17 410.08H1620C1619.47 410.08 1618.96 409.869 1618.59 409.494C1618.21 409.119 1618 408.61 1618 408.08C1618 407.55 1618.21 407.041 1618.59 406.666C1618.96 406.291 1619.47 406.08 1620 406.08H1620.09C1620.42 406.072 1620.74 405.965 1621.01 405.773C1621.28 405.58 1621.49 405.311 1621.6 405C1621.73 404.698 1621.77 404.364 1621.71 404.039C1621.66 403.715 1621.5 403.416 1621.27 403.18L1621.21 403.12C1621.02 402.934 1620.88 402.714 1620.78 402.471C1620.68 402.228 1620.62 401.968 1620.62 401.705C1620.62 401.442 1620.68 401.182 1620.78 400.939C1620.88 400.696 1621.02 400.476 1621.21 400.29C1621.4 400.104 1621.62 399.957 1621.86 399.856C1622.1 399.755 1622.36 399.703 1622.62 399.703C1622.89 399.703 1623.15 399.755 1623.39 399.856C1623.63 399.957 1623.85 400.104 1624.04 400.29L1624.1 400.35C1624.34 400.581 1624.64 400.735 1624.96 400.794C1625.28 400.853 1625.62 400.813 1625.92 400.68H1626C1626.3 400.553 1626.55 400.343 1626.73 400.074C1626.9 399.806 1627 399.492 1627 399.17V399C1627 398.47 1627.21 397.961 1627.59 397.586C1627.96 397.211 1628.47 397 1629 397C1629.53 397 1630.04 397.211 1630.41 397.586C1630.79 397.961 1631 398.47 1631 399V399.09C1631 399.412 1631.1 399.726 1631.27 399.994C1631.45 400.263 1631.7 400.473 1632 400.6C1632.3 400.733 1632.64 400.773 1632.96 400.714C1633.28 400.655 1633.58 400.501 1633.82 400.27L1633.88 400.21C1634.07 400.024 1634.29 399.877 1634.53 399.776C1634.77 399.675 1635.03 399.623 1635.3 399.623C1635.56 399.623 1635.82 399.675 1636.06 399.776C1636.3 399.877 1636.52 400.024 1636.71 400.21C1636.9 400.396 1637.04 400.616 1637.14 400.859C1637.24 401.102 1637.3 401.362 1637.3 401.625C1637.3 401.888 1637.24 402.148 1637.14 402.391C1637.04 402.634 1636.9 402.854 1636.71 403.04L1636.65 403.1C1636.42 403.336 1636.26 403.635 1636.21 403.959C1636.15 404.284 1636.19 404.618 1636.32 404.92V405C1636.45 405.296 1636.66 405.548 1636.93 405.726C1637.19 405.903 1637.51 405.999 1637.83 406H1638C1638.53 406 1639.04 406.211 1639.41 406.586C1639.79 406.961 1640 407.47 1640 408C1640 408.53 1639.79 409.039 1639.41 409.414C1639.04 409.789 1638.53 410 1638 410H1637.91C1637.59 410.001 1637.27 410.097 1637.01 410.274C1636.74 410.452 1636.53 410.704 1636.4 411V411Z" stroke="#7D7D7D" stroke-width="2" stroke-linecap="round" stroke-linejoin="round"/>
<text fill="#7D7D7D" xml:space="preserve" style="white-space: pre" font-family="Chalkboard" font-size="16" letter-spacing="0em"><tspan x="1649" y="413.578">Settings</tspan></text>
<rect x="1600" y="179" width="193" height="254" stroke="#EEEEEE" stroke-width="2"/>
<g filter="url(#filter3_d_3253_23438)">
<rect width="1280" height="80" transform="translate(1601 100)" fill="white"/>
<rect x="1666" y="117" width="39.8684" height="38" fill="#F5F5F5"/>
<path d="M1671 122L1701 150" stroke="#AAAAAA" stroke-width="2"/>
<path d="M1701 122L1671 150" stroke="#AAAAAA" stroke-width="2"/>
<rect x="1666" y="117" width="39.8684" height="38" stroke="#AAAAAA" stroke-width="2"/>
<circle cx="2793" cy="140" r="23" fill="#F5F5F5" stroke="#AAAAAA" stroke-width="2"/>
<mask id="path-81-inside-4_3253_23438" fill="white">
<path fill-rule="evenodd" clip-rule="evenodd" d="M2775 155.875V155C2775 149.015 2786.99 146 2793 146C2799.01 146 2811 149.015 2811 155V155.875C2806.6 160.857 2800.17 164 2793 164C2785.83 164 2779.4 160.857 2775 155.875ZM2793 126C2788.03 126 2784 130.028 2784 135C2784 139.972 2788.03 144 2793 144C2797.97 144 2802 139.972 2802 135C2802 130.028 2797.97 126 2793 126Z"/>
</mask>
<path fill-rule="evenodd" clip-rule="evenodd" d="M2775 155.875V155C2775 149.015 2786.99 146 2793 146C2799.01 146 2811 149.015 2811 155V155.875C2806.6 160.857 2800.17 164 2793 164C2785.83 164 2779.4 160.857 2775 155.875ZM2793 126C2788.03 126 2784 130.028 2784 135C2784 139.972 2788.03 144 2793 144C2797.97 144 2802 139.972 2802 135C2802 130.028 2797.97 126 2793 126Z" fill="#F5F5F5"/>
<path d="M2775 155.875H2773V156.631L2773.5 157.198L2775 155.875ZM2811 155.875L2812.5 157.198L2813 156.631V155.875H2811ZM2777 155.875V155H2773V155.875H2777ZM2777 155C2777 154.238 2777.37 153.423 2778.32 152.539C2779.3 151.641 2780.74 150.814 2782.49 150.112C2786 148.707 2790.25 148 2793 148V144C2789.75 144 2784.99 144.801 2781 146.399C2779.01 147.199 2777.08 148.248 2775.61 149.599C2774.13 150.963 2773 152.769 2773 155H2777ZM2793 148C2795.75 148 2800 148.707 2803.51 150.112C2805.26 150.814 2806.7 151.641 2807.68 152.539C2808.63 153.423 2809 154.238 2809 155H2813C2813 152.769 2811.87 150.963 2810.39 149.599C2808.92 148.248 2806.99 147.199 2805 146.399C2801.01 144.801 2796.25 144 2793 144V148ZM2809 155V155.875H2813V155H2809ZM2809.5 154.551C2805.47 159.122 2799.57 162 2793 162V166C2800.77 166 2807.74 162.593 2812.5 157.198L2809.5 154.551ZM2793 162C2786.43 162 2780.53 159.122 2776.5 154.551L2773.5 157.198C2778.26 162.593 2785.23 166 2793 166V162ZM2786 135C2786 131.132 2789.13 128 2793 128V124C2786.92 124 2782 128.923 2782 135H2786ZM2793 142C2789.13 142 2786 138.868 2786 135H2782C2782 141.077 2786.92 146 2793 146V142ZM2800 135C2800 138.868 2796.87 142 2793 142V146C2799.08 146 2804 141.077 2804 135H2800ZM2793 128C2796.87 128 2800 131.132 2800 135H2804C2804 128.923 2799.08 124 2793 124V128Z" fill="#AAAAAA" mask="url(#path-81-inside-4_3253_23438)"/>
</g>
<rect x="2014" y="216" width="558" height="170" rx="12" fill="#F5F5F5"/>
<text fill="black" xml:space="preserve" style="white-space: pre" font-family="Chalkboard" font-size="24" letter-spacing="0em"><tspan x="2046.17" y="269.367">Setup keywords</tspan></text>
<rect x="2047" y="307" width="387" height="46" rx="3" fill="white"/>
<path d="M2073 337C2077.42 337 2081 333.418 2081 329C2081 324.582 2077.42 321 2073 321C2068.58 321 2065 324.582 2065 329C2065 333.418 2068.58 337 2073 337Z" stroke="#7D7D7D" stroke-width="2" stroke-linecap="round" stroke-linejoin="round"/>
<path d="M2083 339L2078.65 334.65" stroke="#898F9B" stroke-width="2" stroke-linecap="round" stroke-linejoin="round"/>
<text fill="#7D7D7D" xml:space="preserve" style="white-space: pre" font-family="Chalkboard" font-size="16" letter-spacing="0em"><tspan x="2094" y="335.578">Adidas, ultraboost</tspan></text>
<text fill="#767676" xml:space="preserve" style="white-space: pre" font-family="Chalkboard" font-size="14" letter-spacing="0em"><tspan x="2046" y="298.881">Enter keywords</tspan></text>
<rect x="2047" y="307" width="387" height="46" rx="3" stroke="#AAAAAA" stroke-width="2"/>
<rect x="2408" y="306" width="132" height="48" rx="4" fill="#333333"/>
<text fill="white" xml:space="preserve" style="white-space: pre" font-family="Chalkboard" font-size="16" letter-spacing="0em"><tspan x="2424" y="335.578">Save keyword</tspan></text>
<rect x="2014" y="432" width="558" height="261" rx="12" fill="#F5F5F5"/>
<text fill="black" xml:space="preserve" style="white-space: pre" font-family="Chalkboard" font-size="24" letter-spacing="0em"><tspan x="2046.4" y="485.367">Saved keywords</tspan></text>
<text fill="#DEB650" xml:space="preserve" style="white-space: pre" font-family="Chalkboard" font-size="24" letter-spacing="0em"><tspan x="2493.17" y="485.367">Edit</tspan></text>
<text fill="black" xml:space="preserve" style="white-space: pre" font-family="Chalkboard" font-size="18" letter-spacing="0em"><tspan x="2046.02" y="560.275">Lululemon, Hoodies</tspan></text>
<rect x="2497" y="538" width="43" height="32" rx="16" fill="#333333"/>
<text fill="white" xml:space="preserve" style="white-space: pre" font-family="Chalkboard" font-size="16" letter-spacing="0em"><tspan x="2509" y="559.578">25</tspan></text>
<path d="M2540 585H2046V587H2540V585Z" fill="black" mask="url(#path-95-inside-5_3253_23438)"/>
<text fill="black" xml:space="preserve" style="white-space: pre" font-family="Chalkboard" font-size="18" letter-spacing="0em"><tspan x="2046.31" y="635.275">Lululemon, Leggins</tspan></text>
<rect x="2488" y="613" width="51" height="32" rx="16" fill="#333333"/>
<text fill="white" xml:space="preserve" style="white-space: pre" font-family="Chalkboard" font-size="16" letter-spacing="0em"><tspan x="2500" y="634.578">99+</tspan></text>
<path d="M2539 660H2046V662H2539V660Z" fill="black" mask="url(#path-100-inside-6_3253_23438)"/>
</g>
<rect width="192" height="53" transform="translate(144 43)" fill="#605DEC"/>
<text fill="white" xml:space="preserve" style="white-space: pre" font-family="Roboto" font-size="18" font-weight="500" letter-spacing="0em"><tspan x="176" y="75.6523">Setup keywords</tspan></text>
<rect width="195" height="53" transform="translate(1601 43)" fill="#605DEC"/>
<text fill="white" xml:space="preserve" style="white-space: pre" font-family="Roboto" font-size="18" font-weight="500" letter-spacing="0em"><tspan x="1633" y="75.6523">Saved keywords</tspan></text>
<defs>
<filter id="filter0_i_3253_23438" x="146" y="228" width="191" height="48" filterUnits="userSpaceOnUse" color-interpolation-filters="sRGB">
<feFlood flood-opacity="0" result="BackgroundImageFix"/>
<feBlend mode="normal" in="SourceGraphic" in2="BackgroundImageFix" result="shape"/>
<feColorMatrix in="SourceAlpha" type="matrix" values="0 0 0 0 0 0 0 0 0 0 0 0 0 0 0 0 0 0 127 0" result="hardAlpha"/>
<feOffset dx="2"/>
<feComposite in2="hardAlpha" operator="arithmetic" k2="-1" k3="1"/>
<feColorMatrix type="matrix" values="0 0 0 0 0.2 0 0 0 0 0.2 0 0 0 0 0.2 0 0 0 1 0"/>
<feBlend mode="normal" in2="shape" result="effect1_innerShadow_3253_23438"/>
</filter>
<filter id="filter1_d_3253_23438" x="142" y="100" width="1288" height="88" filterUnits="userSpaceOnUse" color-interpolation-filters="sRGB">
<feFlood flood-opacity="0" result="BackgroundImageFix"/>
<feColorMatrix in="SourceAlpha" type="matrix" values="0 0 0 0 0 0 0 0 0 0 0 0 0 0 0 0 0 0 127 0" result="hardAlpha"/>
<feOffset dy="4"/>
<feGaussianBlur stdDeviation="2"/>
<feComposite in2="hardAlpha" operator="out"/>
<feColorMatrix type="matrix" values="0 0 0 0 0 0 0 0 0 0 0 0 0 0 0 0 0 0 0.1 0"/>
<feBlend mode="normal" in2="BackgroundImageFix" result="effect1_dropShadow_3253_23438"/>
<feBlend mode="normal" in="SourceGraphic" in2="effect1_dropShadow_3253_23438" result="shape"/>
</filter>
<filter id="filter2_i_3253_23438" x="1601" y="228" width="191" height="48" filterUnits="userSpaceOnUse" color-interpolation-filters="sRGB">
<feFlood flood-opacity="0" result="BackgroundImageFix"/>
<feBlend mode="normal" in="SourceGraphic" in2="BackgroundImageFix" result="shape"/>
<feColorMatrix in="SourceAlpha" type="matrix" values="0 0 0 0 0 0 0 0 0 0 0 0 0 0 0 0 0 0 127 0" result="hardAlpha"/>
<feOffset dx="2"/>
<feComposite in2="hardAlpha" operator="arithmetic" k2="-1" k3="1"/>
<feColorMatrix type="matrix" values="0 0 0 0 0.2 0 0 0 0 0.2 0 0 0 0 0.2 0 0 0 1 0"/>
<feBlend mode="normal" in2="shape" result="effect1_innerShadow_3253_23438"/>
</filter>
<filter id="filter3_d_3253_23438" x="1597" y="100" width="1288" height="88" filterUnits="userSpaceOnUse" color-interpolation-filters="sRGB">
<feFlood flood-opacity="0" result="BackgroundImageFix"/>
<feColorMatrix in="SourceAlpha" type="matrix" values="0 0 0 0 0 0 0 0 0 0 0 0 0 0 0 0 0 0 127 0" result="hardAlpha"/>
<feOffset dy="4"/>
<feGaussianBlur stdDeviation="2"/>
<feComposite in2="hardAlpha" operator="out"/>
<feColorMatrix type="matrix" values="0 0 0 0 0 0 0 0 0 0 0 0 0 0 0 0 0 0 0.1 0"/>
<feBlend mode="normal" in2="BackgroundImageFix" result="effect1_dropShadow_3253_23438"/>
<feBlend mode="normal" in="SourceGraphic" in2="effect1_dropShadow_3253_23438" result="shape"/>
</filter>
<clipPath id="clip0_3253_23438">
<rect width="1280" height="720" fill="white" transform="translate(146 100)"/>
</clipPath>
<clipPath id="clip1_3253_23438">
<rect width="1280" height="720" fill="white" transform="translate(1601 100)"/>
</clipPath>
</defs>
</svg>
