<svg width="1280" height="771" viewBox="0 0 1280 771" fill="none" xmlns="http://www.w3.org/2000/svg">
<rect width="231" height="51" fill="#605DEC"/>
<text fill="white" xml:space="preserve" style="white-space: pre" font-family="Roboto" font-size="30" font-weight="500" letter-spacing="0em"><tspan x="16" y="35.7539">Drag keywords</tspan></text>
<g clip-path="url(#clip0_259_3267)">
<rect width="1280" height="720" transform="translate(0 51)" fill="white"/>
<rect width="300" height="720" transform="translate(0 51)" fill="#F9F9F9"/>
<path d="M28 91.5H21V98.5H28V91.5Z" fill="#E9E8FC" stroke="#BCBAF7" stroke-width="2" stroke-linecap="round" stroke-linejoin="round"/>
<path d="M39 91.5H32V98.5H39V91.5Z" fill="#BCBAF7" stroke="#605DEC" stroke-width="2" stroke-linecap="round" stroke-linejoin="round"/>
<path d="M39 102.5H32V109.5H39V102.5Z" fill="#BCBAF7" stroke="#605DEC" stroke-width="2" stroke-linecap="round" stroke-linejoin="round"/>
<path d="M28 102.5H21V109.5H28V102.5Z" fill="#E9E8FC" stroke="#BCBAF7" stroke-width="2" stroke-linecap="round" stroke-linejoin="round"/>
<path d="M49.752 110.58C49.0613 110.58 48.4267 110.412 47.848 110.076C47.288 109.74 46.84 109.283 46.504 108.704C46.168 108.125 46 107.491 46 106.8V105.456H49.36V106.688C49.36 106.837 49.4067 106.959 49.5 107.052C49.5933 107.145 49.7147 107.192 49.864 107.192H62.24C62.3893 107.192 62.5107 107.145 62.604 107.052C62.716 106.959 62.772 106.837 62.772 106.688V102.684C62.772 102.553 62.716 102.441 62.604 102.348C62.5107 102.236 62.3893 102.18 62.24 102.18H49.752C49.0613 102.18 48.4267 102.012 47.848 101.676C47.288 101.34 46.84 100.892 46.504 100.332C46.168 99.7533 46 99.1186 46 98.4279V94.1999C46 93.5093 46.168 92.8746 46.504 92.2959C46.84 91.7173 47.288 91.2599 47.848 90.9239C48.4267 90.5879 49.0613 90.4199 49.752 90.4199H62.38C63.0707 90.4199 63.696 90.5879 64.256 90.9239C64.8347 91.2599 65.292 91.7173 65.628 92.2959C65.9827 92.8746 66.16 93.5093 66.16 94.1999V95.5439H62.772V94.3119C62.772 94.1626 62.716 94.0413 62.604 93.9479C62.5107 93.8546 62.3893 93.8079 62.24 93.8079H49.864C49.7147 93.8079 49.5933 93.8546 49.5 93.9479C49.4067 94.0413 49.36 94.1626 49.36 94.3119V98.3159C49.36 98.4466 49.4067 98.5679 49.5 98.6799C49.5933 98.7733 49.7147 98.8199 49.864 98.8199H62.38C63.0707 98.8199 63.696 98.9879 64.256 99.3239C64.8347 99.6599 65.292 100.117 65.628 100.696C65.9827 101.256 66.16 101.881 66.16 102.572V106.8C66.16 107.491 65.9827 108.125 65.628 108.704C65.292 109.283 64.8347 109.74 64.256 110.076C63.696 110.412 63.0707 110.58 62.38 110.58H49.752Z" fill="#605DEC"/>
<path d="M69.2455 110.58V90.4199H87.7535V93.8079H72.6335V98.8199H84.8135V102.18H72.6335V107.192H87.7535V110.58H69.2455Z" fill="#605DEC"/>
<path d="M90.683 110.58V90.4199H109.191V93.8079H94.071V98.8199H106.251V102.18H94.071V107.192H109.191V110.58H90.683Z" fill="#605DEC"/>
<path d="M128.36 110.58L122.172 103.188H126.568L132.14 109.796V110.58H128.36ZM112.064 110.58V90.4479H128.444C129.135 90.4479 129.76 90.6253 130.32 90.9799C130.899 91.3159 131.356 91.7733 131.692 92.3519C132.047 92.9119 132.224 93.5373 132.224 94.2279V99.7719C132.224 100.444 132.047 101.069 131.692 101.648C131.356 102.227 130.899 102.684 130.32 103.02C129.76 103.356 129.135 103.524 128.444 103.524L115.424 103.552V110.58H112.064ZM115.928 100.136H128.332C128.463 100.136 128.575 100.089 128.668 99.9959C128.78 99.9026 128.836 99.7813 128.836 99.6319V94.3119C128.836 94.1813 128.78 94.0693 128.668 93.9759C128.575 93.8639 128.463 93.8079 128.332 93.8079H115.928C115.798 93.8079 115.676 93.8639 115.564 93.9759C115.471 94.0693 115.424 94.1813 115.424 94.3119V99.6319C115.424 99.7813 115.471 99.9026 115.564 99.9959C115.676 100.089 115.798 100.136 115.928 100.136Z" fill="#605DEC"/>
<path d="M266.833 106.333L261 100.5L266.833 94.6667" stroke="#605DEC" stroke-width="2" stroke-linecap="round" stroke-linejoin="round"/>
<path d="M275 106.333L269.167 100.5L275 94.6667" stroke="#605DEC" stroke-width="2" stroke-linecap="round" stroke-linejoin="round"/>
<path d="M29 177C33.4183 177 37 173.418 37 169C37 164.582 33.4183 161 29 161C24.5817 161 21 164.582 21 169C21 173.418 24.5817 177 29 177Z" stroke="#6E7491" stroke-width="2" stroke-linecap="round" stroke-linejoin="round"/>
<path d="M39 179L34.65 174.65" stroke="#6E7491" stroke-width="2" stroke-linecap="round" stroke-linejoin="round"/>
<text fill="#36374A" xml:space="preserve" style="white-space: pre" font-family="Nunito Sans" font-size="18" font-weight="600" letter-spacing="0em"><tspan x="50.1592" y="176.422">keywords</tspan></text>
<path d="M274 161.5L279 166.5L266 179.5H261V174.5L274 161.5Z" stroke="#6E7491" stroke-width="2" stroke-linecap="round" stroke-linejoin="round"/>
<path d="M37 229.5L30 224.5L23 229.5V213.5C23 212.97 23.2107 212.461 23.5858 212.086C23.9609 211.711 24.4696 211.5 25 211.5H35C35.5304 211.5 36.0391 211.711 36.4142 212.086C36.7893 212.461 37 212.97 37 213.5V229.5Z" stroke="#6E7491" stroke-width="2" stroke-linecap="round" stroke-linejoin="round"/>
<text fill="#36374A" xml:space="preserve" style="white-space: pre" font-family="Nunito Sans" font-size="18" font-weight="600" letter-spacing="0em"><tspan x="50.0791" y="226.922">Adidas sentiment</tspan></text>
<path d="M264 218L270 224L276 218" stroke="#6E7491" stroke-width="2" stroke-linecap="round" stroke-linejoin="round"/>
<path d="M38 264.5L27 275.5L22 270.5" stroke="#6E7491" stroke-width="2" stroke-linecap="round" stroke-linejoin="round"/>
<text fill="#36374A" xml:space="preserve" style="white-space: pre" font-family="Nunito Sans" font-size="18" font-weight="600" letter-spacing="0em"><tspan x="50.4004" y="276.922">Adidas</tspan></text>
<g filter="url(#filter0_d_259_3267)">
<path d="M140.27 286.28C139.99 285.92 139.64 285.19 139.03 284.28C138.68 283.78 137.82 282.83 137.56 282.34C137.373 282.042 137.318 281.68 137.41 281.34C137.567 280.694 138.18 280.266 138.84 280.34C139.351 280.443 139.82 280.693 140.19 281.06C140.448 281.303 140.686 281.567 140.9 281.85C141.06 282.05 141.1 282.13 141.28 282.36C141.46 282.59 141.58 282.82 141.49 282.48C141.42 281.98 141.3 281.14 141.13 280.39C141 279.82 140.97 279.73 140.85 279.3C140.73 278.87 140.66 278.51 140.53 278.02C140.411 277.538 140.318 277.051 140.25 276.56C140.124 275.932 140.216 275.279 140.51 274.71C140.859 274.381 141.372 274.295 141.81 274.49C142.251 274.815 142.579 275.27 142.75 275.79C143.012 276.43 143.187 277.103 143.27 277.79C143.43 278.79 143.74 280.25 143.75 280.55C143.75 280.18 143.68 279.4 143.75 279.05C143.819 278.685 144.073 278.382 144.42 278.25C144.718 278.159 145.033 278.138 145.34 278.19C145.65 278.255 145.925 278.433 146.11 278.69C146.342 279.273 146.47 279.893 146.49 280.52C146.517 279.971 146.611 279.426 146.77 278.9C146.937 278.664 147.181 278.495 147.46 278.42C147.791 278.359 148.129 278.359 148.46 278.42C148.731 278.511 148.968 278.681 149.14 278.91C149.352 279.44 149.48 280 149.52 280.57C149.52 280.71 149.59 280.18 149.81 279.83C149.924 279.491 150.211 279.238 150.562 279.167C150.913 279.097 151.275 279.218 151.512 279.487C151.749 279.756 151.824 280.131 151.71 280.47C151.71 281.12 151.71 281.09 151.71 281.53C151.71 281.97 151.71 282.36 151.71 282.73C151.674 283.315 151.593 283.897 151.47 284.47C151.296 284.977 151.054 285.458 150.75 285.9C150.264 286.44 149.863 287.05 149.56 287.71C149.485 288.038 149.451 288.374 149.46 288.71C149.459 289.021 149.499 289.33 149.58 289.63C149.171 289.673 148.759 289.673 148.35 289.63C147.96 289.57 147.48 288.79 147.35 288.55C147.286 288.421 147.154 288.34 147.01 288.34C146.866 288.34 146.734 288.421 146.67 288.55C146.45 288.93 145.96 289.62 145.62 289.66C144.95 289.74 143.57 289.66 142.48 289.66C142.48 289.66 142.66 288.66 142.25 288.3C141.84 287.94 141.42 287.52 141.11 287.24L140.27 286.28Z" fill="white"/>
<path fill-rule="evenodd" clip-rule="evenodd" d="M140.27 286.28C139.99 285.92 139.64 285.19 139.03 284.28C138.68 283.78 137.82 282.83 137.56 282.34C137.373 282.042 137.318 281.68 137.41 281.34C137.567 280.694 138.18 280.266 138.84 280.34C139.351 280.443 139.82 280.693 140.19 281.06C140.448 281.303 140.686 281.567 140.9 281.85C141.06 282.05 141.1 282.13 141.28 282.36C141.46 282.59 141.58 282.82 141.49 282.48C141.42 281.98 141.3 281.14 141.13 280.39C141 279.82 140.97 279.73 140.85 279.3C140.73 278.87 140.66 278.51 140.53 278.02C140.411 277.538 140.318 277.051 140.25 276.56C140.124 275.932 140.216 275.279 140.51 274.71C140.859 274.381 141.372 274.295 141.81 274.49C142.251 274.815 142.579 275.27 142.75 275.79C143.012 276.43 143.187 277.103 143.27 277.79C143.43 278.79 143.74 280.25 143.75 280.55C143.75 280.18 143.68 279.4 143.75 279.05C143.819 278.685 144.073 278.382 144.42 278.25C144.718 278.159 145.033 278.138 145.34 278.19C145.65 278.255 145.925 278.433 146.11 278.69C146.342 279.273 146.47 279.893 146.49 280.52C146.517 279.971 146.611 279.426 146.77 278.9C146.937 278.664 147.181 278.495 147.46 278.42C147.791 278.359 148.129 278.359 148.46 278.42C148.731 278.511 148.968 278.681 149.14 278.91C149.352 279.44 149.48 280 149.52 280.57C149.52 280.71 149.59 280.18 149.81 279.83C149.924 279.491 150.211 279.238 150.562 279.167C150.913 279.097 151.275 279.218 151.512 279.487C151.749 279.756 151.824 280.131 151.71 280.47C151.71 281.12 151.71 281.09 151.71 281.53C151.71 281.97 151.71 282.36 151.71 282.73C151.674 283.315 151.593 283.897 151.47 284.47C151.296 284.977 151.054 285.458 150.75 285.9C150.264 286.44 149.863 287.05 149.56 287.71C149.485 288.038 149.451 288.374 149.46 288.71C149.459 289.021 149.499 289.33 149.58 289.63C149.171 289.673 148.759 289.673 148.35 289.63C147.96 289.57 147.48 288.79 147.35 288.55C147.286 288.421 147.154 288.34 147.01 288.34C146.866 288.34 146.734 288.421 146.67 288.55C146.45 288.93 145.96 289.62 145.62 289.66C144.95 289.74 143.57 289.66 142.48 289.66C142.48 289.66 142.66 288.66 142.25 288.3C141.84 287.94 141.42 287.52 141.11 287.24L140.27 286.28Z" stroke="black" stroke-width="0.75" stroke-linecap="round" stroke-linejoin="round"/>
<path d="M148.75 286.826V283.374C148.75 283.167 148.582 283 148.375 283C148.168 283 148 283.167 148 283.374V286.826C148 287.033 148.168 287.2 148.375 287.2C148.582 287.2 148.75 287.033 148.75 286.826Z" fill="black"/>
<path d="M146.77 286.825L146.75 283.371C146.749 283.165 146.58 282.999 146.373 283C146.166 283.001 145.999 283.169 146 283.375L146.02 286.829C146.021 287.035 146.19 287.201 146.397 287.2C146.604 287.199 146.771 287.031 146.77 286.825Z" fill="black"/>
<path d="M144 283.379L144.02 286.825C144.021 287.033 144.19 287.201 144.397 287.2C144.604 287.199 144.771 287.029 144.77 286.821L144.75 283.375C144.749 283.167 144.58 282.999 144.373 283C144.166 283.001 143.999 283.171 144 283.379Z" fill="black"/>
</g>
<rect x="239" y="255" width="43" height="32" rx="16" fill="#535353"/>
<text fill="white" xml:space="preserve" style="white-space: pre" font-family="Chalkboard" font-size="16" letter-spacing="0em"><tspan x="251" y="276.578">95</tspan></text>
<text fill="#36374A" xml:space="preserve" style="white-space: pre" font-family="Nunito Sans" font-size="18" font-weight="600" letter-spacing="0em"><tspan x="50.4463" y="322.922">Adidas, New item</tspan></text>
<rect x="239" y="301" width="43" height="32" rx="16" fill="#535353"/>
<text fill="white" xml:space="preserve" style="white-space: pre" font-family="Chalkboard" font-size="16" letter-spacing="0em"><tspan x="251" y="322.578">36</tspan></text>
<text fill="#36374A" xml:space="preserve" style="white-space: pre" font-family="Nunito Sans" font-size="18" font-weight="600" letter-spacing="0em"><tspan x="50.3066" y="365.422">Adidas, Hiking shoes</tspan></text>
<text fill="#36374A" xml:space="preserve" style="white-space: pre" font-family="Nunito Sans" font-size="14" font-weight="600" letter-spacing="0em"><tspan x="50.0312" y="394.106">1/21-1/31 2022</tspan></text>
<rect x="234" y="357" width="48" height="32" rx="16" fill="#535353"/>
<text fill="white" xml:space="preserve" style="white-space: pre" font-family="Chalkboard" font-size="16" letter-spacing="0em"><tspan x="246" y="378.578">125</tspan></text>
<text fill="#36374A" xml:space="preserve" style="white-space: pre" font-family="Nunito Sans" font-size="18" font-weight="600" letter-spacing="0em"><tspan x="50.1572" y="434.922">Adidas, Ultraboost</tspan></text>
<rect x="239" y="413" width="43" height="32" rx="16" fill="#535353"/>
<text fill="white" xml:space="preserve" style="white-space: pre" font-family="Chalkboard" font-size="16" letter-spacing="0em"><tspan x="251" y="434.578">72</tspan></text>
<text fill="#EEEEEE" xml:space="preserve" style="white-space: pre" font-family="Chalkboard" font-size="30" letter-spacing="0em"><tspan x="480" y="288.459">Line graph</tspan></text>
<text fill="#36374A" xml:space="preserve" style="white-space: pre" font-family="Chalkboard" font-size="18" letter-spacing="0em"><tspan x="564" y="134.275">Count</tspan></text>
<text fill="#36374A" xml:space="preserve" style="white-space: pre" font-family="Chalkboard" font-size="18" letter-spacing="0em"><tspan x="647" y="134.275">Sentiment score</tspan></text>
<rect x="387" y="105" width="151" height="46" rx="12" fill="#F6F6FE"/>
<text fill="black" xml:space="preserve" style="white-space: pre" font-family="Chalkboard" font-size="24" letter-spacing="0em"><tspan x="397" y="136.367">Upvote ratio</tspan></text>
<path d="M382.5 387C382.5 387.828 383.172 388.5 384 388.5C384.828 388.5 385.5 387.828 385.5 387H382.5ZM385.061 174.939C384.475 174.354 383.525 174.354 382.939 174.939L373.393 184.485C372.808 185.071 372.808 186.021 373.393 186.607C373.979 187.192 374.929 187.192 375.515 186.607L384 178.121L392.485 186.607C393.071 187.192 394.021 187.192 394.607 186.607C395.192 186.021 395.192 185.071 394.607 184.485L385.061 174.939ZM385.5 387V176H382.5V387H385.5Z" fill="#7D7D7D"/>
<path d="M384 385.5C383.172 385.5 382.5 386.172 382.5 387C382.5 387.828 383.172 388.5 384 388.5V385.5ZM847.061 388.061C847.646 387.475 847.646 386.525 847.061 385.939L837.515 376.393C836.929 375.808 835.979 375.808 835.393 376.393C834.808 376.979 834.808 377.929 835.393 378.515L843.879 387L835.393 395.485C834.808 396.071 834.808 397.021 835.393 397.607C835.979 398.192 836.929 398.192 837.515 397.607L847.061 388.061ZM384 388.5H846V385.5H384V388.5Z" fill="#7D7D7D"/>
<text fill="#767676" xml:space="preserve" style="white-space: pre" font-family="Chalkboard" font-size="14" letter-spacing="0em"><tspan x="409" y="409.881">6/29</tspan></text>
<text fill="#767676" xml:space="preserve" style="white-space: pre" font-family="Chalkboard" font-size="14" letter-spacing="0em"><tspan x="458" y="409.881">6/29</tspan></text>
<text fill="#767676" xml:space="preserve" style="white-space: pre" font-family="Chalkboard" font-size="14" letter-spacing="0em"><tspan x="507" y="409.881">7/8</tspan></text>
<text fill="#767676" xml:space="preserve" style="white-space: pre" font-family="Chalkboard" font-size="14" letter-spacing="0em"><tspan x="548" y="409.881">7/15</tspan></text>
<text fill="#767676" xml:space="preserve" style="white-space: pre" font-family="Chalkboard" font-size="14" letter-spacing="0em"><tspan x="594" y="409.881">7/20</tspan></text>
<text fill="#767676" xml:space="preserve" style="white-space: pre" font-family="Chalkboard" font-size="14" letter-spacing="0em"><tspan x="642" y="409.881">7/20</tspan></text>
<text fill="#767676" xml:space="preserve" style="white-space: pre" font-family="Chalkboard" font-size="14" letter-spacing="0em"><tspan x="690" y="409.881">7/26</tspan></text>
<text fill="#767676" xml:space="preserve" style="white-space: pre" font-family="Chalkboard" font-size="14" letter-spacing="0em"><tspan x="366" y="217.881">1</tspan></text>
<text fill="#767676" xml:space="preserve" style="white-space: pre" font-family="Chalkboard" font-size="14" letter-spacing="0em"><tspan x="352" y="295.381">0.5</tspan></text>
<text fill="#767676" xml:space="preserve" style="white-space: pre" font-family="Chalkboard" font-size="14" letter-spacing="0em"><tspan x="364" y="372.881">0</tspan></text>
<path d="M404 313.464C468.462 355.044 532.884 350.484 588.087 343.252C654.408 334.564 676.509 320.25 697.796 298.57C733.746 261.956 771.555 207.965 823 203" stroke="#767676" stroke-width="3" stroke-linecap="round"/>
<text fill="black" xml:space="preserve" style="white-space: pre" font-family="Chalkboard" font-size="24" letter-spacing="0em"><tspan x="897" y="139.367">Community &#38; Post count</tspan></text>
<rect x="999" y="57" width="230" height="46" rx="4" fill="#F9F9F9"/>
<text fill="black" xml:space="preserve" style="white-space: pre" font-family="Chalkboard" font-size="24" letter-spacing="0em"><tspan x="1009" y="88.3668">Filter - Date picker</tspan></text>
<text fill="black" xml:space="preserve" style="white-space: pre" font-family="Chalkboard" font-size="24" letter-spacing="0em"><tspan x="374" y="499.367">Data table</tspan></text>
<mask id="path-57-inside-1_259_3267" fill="white">
<path d="M1074.72 338.431C1068.61 352.334 1059.35 364.627 1047.67 374.339C1036 384.052 1022.23 390.918 1007.44 394.396C992.659 397.874 977.269 397.868 962.488 394.379C947.708 390.891 933.94 384.015 922.272 374.294C910.603 364.573 901.354 352.273 895.254 338.365C889.153 324.457 886.369 309.322 887.12 294.154C887.871 278.985 892.137 264.199 899.581 250.962C907.026 237.725 917.445 226.399 930.016 217.878L952.844 251.558C945.492 256.541 939.399 263.165 935.045 270.906C930.692 278.648 928.197 287.295 927.758 296.166C927.318 305.037 928.947 313.888 932.514 322.022C936.082 330.155 941.491 337.348 948.315 343.033C955.139 348.719 963.191 352.74 971.835 354.78C980.479 356.82 989.479 356.824 998.125 354.79C1006.77 352.756 1014.82 348.74 1021.65 343.06C1028.48 337.38 1033.9 330.191 1037.47 322.06L1074.72 338.431Z"/>
</mask>
<path d="M1074.72 338.431C1068.61 352.334 1059.35 364.627 1047.67 374.339C1036 384.052 1022.23 390.918 1007.44 394.396C992.659 397.874 977.269 397.868 962.488 394.379C947.708 390.891 933.94 384.015 922.272 374.294C910.603 364.573 901.354 352.273 895.254 338.365C889.153 324.457 886.369 309.322 887.12 294.154C887.871 278.985 892.137 264.199 899.581 250.962C907.026 237.725 917.445 226.399 930.016 217.878L952.844 251.558C945.492 256.541 939.399 263.165 935.045 270.906C930.692 278.648 928.197 287.295 927.758 296.166C927.318 305.037 928.947 313.888 932.514 322.022C936.082 330.155 941.491 337.348 948.315 343.033C955.139 348.719 963.191 352.74 971.835 354.78C980.479 356.82 989.479 356.824 998.125 354.79C1006.77 352.756 1014.82 348.74 1021.65 343.06C1028.48 337.38 1033.9 330.191 1037.47 322.06L1074.72 338.431Z" fill="#E6E6E6" stroke="#767676" stroke-width="6" mask="url(#path-57-inside-1_259_3267)"/>
<mask id="path-58-inside-2_259_3267" fill="white">
<path d="M927.826 219.406C938.883 211.464 951.473 205.913 964.794 203.106C978.115 200.299 991.875 200.298 1005.2 203.104C1018.52 205.909 1031.11 211.459 1042.17 219.4C1053.22 227.341 1062.5 237.499 1069.42 249.226L1034.37 269.891C1030.33 263.033 1024.9 257.092 1018.43 252.448C1011.96 247.804 1004.6 244.558 996.811 242.918C989.02 241.277 980.974 241.277 973.183 242.919C965.393 244.56 958.03 247.807 951.564 252.452L927.826 219.406Z"/>
</mask>
<path d="M927.826 219.406C938.883 211.464 951.473 205.913 964.794 203.106C978.115 200.299 991.875 200.298 1005.2 203.104C1018.52 205.909 1031.11 211.459 1042.17 219.4C1053.22 227.341 1062.5 237.499 1069.42 249.226L1034.37 269.891C1030.33 263.033 1024.9 257.092 1018.43 252.448C1011.96 247.804 1004.6 244.558 996.811 242.918C989.02 241.277 980.974 241.277 973.183 242.919C965.393 244.56 958.03 247.807 951.564 252.452L927.826 219.406Z" fill="#EEEEEE" stroke="#767676" stroke-width="6" mask="url(#path-58-inside-2_259_3267)"/>
<mask id="path-59-inside-3_259_3267" fill="white">
<path d="M1068.24 247.279C1076.92 261.252 1081.95 277.185 1082.85 293.611C1083.76 310.037 1080.51 326.426 1073.42 341.267L1036.71 323.719C1040.86 315.039 1042.75 305.454 1042.23 295.848C1041.7 286.242 1038.76 276.924 1033.68 268.752L1068.24 247.279Z"/>
</mask>
<path d="M1068.24 247.279C1076.92 261.252 1081.95 277.185 1082.85 293.611C1083.76 310.037 1080.51 326.426 1073.42 341.267L1036.71 323.719C1040.86 315.039 1042.75 305.454 1042.23 295.848C1041.7 286.242 1038.76 276.924 1033.68 268.752L1068.24 247.279Z" fill="#F5F5F5" stroke="#767676" stroke-width="6" mask="url(#path-59-inside-3_259_3267)"/>
<rect x="1120.5" y="332.763" width="21.3846" height="4.8" fill="#F5F5F5" stroke="#AAAAAA"/>
<text fill="#4F4F4F" xml:space="preserve" style="white-space: pre" font-family="Chalkboard" font-size="12" letter-spacing="0em"><tspan x="1152.38" y="341.183">r/Funshion</tspan></text>
<rect x="1120.5" y="357.15" width="21" height="5" fill="#EEEEEE" stroke="#AAAAAA"/>
<text fill="#4F4F4F" xml:space="preserve" style="white-space: pre" font-family="Chalkboard" font-size="12" letter-spacing="0em"><tspan x="1152" y="362.509">r/Sneaker</tspan></text>
<rect x="1120.5" y="378.15" width="21" height="5" fill="#E6E6E6" stroke="#AAAAAA"/>
<text fill="#4F4F4F" xml:space="preserve" style="white-space: pre" font-family="Chalkboard" font-size="12" letter-spacing="0em"><tspan x="1150" y="383.833">r/Streetwear</tspan></text>
<rect x="383" y="515" width="845" height="426" rx="7" fill="white"/>
<rect x="383" y="515" width="845" height="426" rx="7" stroke="#AAAAAA" stroke-width="2"/>
<text fill="#7D7D7D" xml:space="preserve" style="white-space: pre" font-family="Chalkboard" font-size="14" letter-spacing="0em"><tspan x="407" y="543.881">Community</tspan></text>
<text fill="#7D7D7D" xml:space="preserve" style="white-space: pre" font-family="Chalkboard" font-size="14" letter-spacing="0em"><tspan x="526" y="543.881">Title</tspan></text>
<text fill="#7D7D7D" xml:space="preserve" style="white-space: pre" font-family="Chalkboard" font-size="14" letter-spacing="0em"><tspan x="605" y="543.881">Author</tspan></text>
<text fill="#7D7D7D" xml:space="preserve" style="white-space: pre" font-family="Chalkboard" font-size="14" letter-spacing="0em"><tspan x="699" y="546.881">Date &#38;  time</tspan></text>
<path d="M796 539L802 545L808 539" stroke="#898F9B" stroke-width="2" stroke-linecap="round" stroke-linejoin="round"/>
<text fill="#7D7D7D" xml:space="preserve" style="white-space: pre" font-family="Chalkboard" font-size="14" letter-spacing="0em"><tspan x="865" y="543.881">Content</tspan></text>
<text fill="#7D7D7D" xml:space="preserve" style="white-space: pre" font-family="Chalkboard" font-size="14" letter-spacing="0em"><tspan x="965" y="546.881">Upvote Ratio</tspan></text>
<path d="M1055 539L1061 545L1067 539" stroke="#898F9B" stroke-width="2" stroke-linecap="round" stroke-linejoin="round"/>
<text fill="#7D7D7D" xml:space="preserve" style="white-space: pre" font-family="Chalkboard" font-size="14" letter-spacing="0em"><tspan x="1124" y="543.881">Sentiment score</tspan></text>
<path d="M384 565H1228" stroke="#AAAAAA" stroke-width="2"/>
<g clip-path="url(#clip1_259_3267)">
<text fill="#7D7D7D" xml:space="preserve" style="white-space: pre" font-family="Redacted Script" font-size="16" letter-spacing="0em"><tspan x="407" y="602.8">Lorem ipsum dolor sit amet, consec tetur adipiscing elit. Nam condimentum </tspan><tspan x="407" y="622.8">tempus diam, ultricies sollicitudin erat facilisis eget. Vestibulum rhoncus </tspan><tspan x="407" y="642.8">dui vel eros laoreet consectetur. Vivamus eget elementum ligula, vitae </tspan><tspan x="407" y="662.8">pharetra quam. Nullam at ligula sed metu</tspan></text>
</g>
<g clip-path="url(#clip2_259_3267)">
<text fill="#7D7D7D" xml:space="preserve" style="white-space: pre" font-family="Redacted Script" font-size="16" letter-spacing="0em"><tspan x="407" y="631.8">Lorem ipsum dolor sit amet, consec tetur adipiscing elit. Nam condimentum tempus diam, ultricies </tspan><tspan x="407" y="651.8">sollicitudin erat facilisis eget. Vestibulum rhoncus dui vel eros laoreet consectetur. Vivamus </tspan><tspan x="407" y="671.8">eget elementum ligula, vitae pharetra quam. Nullam at ligula sed metu</tspan></text>
</g>
<g clip-path="url(#clip3_259_3267)">
<text fill="#7D7D7D" xml:space="preserve" style="white-space: pre" font-family="Redacted Script" font-size="16" letter-spacing="0em"><tspan x="407" y="660.8">Lorem ipsum dolor sit amet, consec tetur adipiscing elit. Nam condimentum tempus diam, ultricies </tspan><tspan x="407" y="680.8">sollicitudin erat facilisis eget. Vestibulum rhoncus dui vel eros laoreet consectetur. Vivamus </tspan><tspan x="407" y="700.8">eget elementum ligula, vitae pharetra quam. Nullam at ligula sed metu</tspan></text>
</g>
<g clip-path="url(#clip4_259_3267)">
<text fill="#7D7D7D" xml:space="preserve" style="white-space: pre" font-family="Redacted Script" font-size="16" letter-spacing="0em"><tspan x="407" y="689.8">Lorem ipsum dolor sit amet, consec tetur adipiscing elit. Nam condimentum tempus diam, ultricies </tspan><tspan x="407" y="709.8">sollicitudin erat facilisis eget. Vestibulum rhoncus dui vel eros laoreet consectetur. Vivamus </tspan><tspan x="407" y="729.8">eget elementum ligula, vitae pharetra quam. Nullam at ligula sed metu</tspan></text>
</g>
<g clip-path="url(#clip5_259_3267)">
<text fill="#7D7D7D" xml:space="preserve" style="white-space: pre" font-family="Redacted Script" font-size="16" letter-spacing="0em"><tspan x="407" y="718.8">Lorem ipsum dolor sit amet, consec tetur adipiscing elit. Nam condimentum tempus diam, ultricies </tspan><tspan x="407" y="738.8">sollicitudin erat facilisis eget. Vestibulum rhoncus dui vel eros laoreet consectetur. Vivamus </tspan><tspan x="407" y="758.8">eget elementum ligula, vitae pharetra quam. Nullam at ligula sed metu</tspan></text>
</g>
<g clip-path="url(#clip6_259_3267)">
<text fill="#7D7D7D" xml:space="preserve" style="white-space: pre" font-family="Redacted Script" font-size="16" letter-spacing="0em"><tspan x="407" y="747.8">Lorem ipsum dolor sit amet, consec tetur adipiscing elit. Nam condimentum tempus diam, </tspan><tspan x="407" y="767.8">ultricies sollicitudin erat facilisis eget. Vestibulum rhoncus dui vel eros laoreet </tspan><tspan x="407" y="787.8">consectetur. Vivamus eget elementum ligula, vitae pharetra quam. Nullam at ligula sed metu</tspan></text>
</g>
<text fill="#DEB650" xml:space="preserve" style="white-space: pre" font-family="Chalkboard" font-size="32" letter-spacing="0em"><tspan x="926" y="631.156">Link to reddite post</tspan></text>
</g>
<defs>
<filter id="filter0_d_259_3267" x="136.191" y="274.012" width="16.7461" height="17.8588" filterUnits="userSpaceOnUse" color-interpolation-filters="sRGB">
<feFlood flood-opacity="0" result="BackgroundImageFix"/>
<feColorMatrix in="SourceAlpha" type="matrix" values="0 0 0 0 0 0 0 0 0 0 0 0 0 0 0 0 0 0 127 0" result="hardAlpha"/>
<feOffset dy="1"/>
<feGaussianBlur stdDeviation="0.4"/>
<feColorMatrix type="matrix" values="0 0 0 0 0 0 0 0 0 0 0 0 0 0 0 0 0 0 0.5 0"/>
<feBlend mode="normal" in2="BackgroundImageFix" result="effect1_dropShadow_259_3267"/>
<feBlend mode="normal" in="SourceGraphic" in2="effect1_dropShadow_259_3267" result="shape"/>
</filter>
<clipPath id="clip0_259_3267">
<rect width="1280" height="720" fill="white" transform="translate(0 51)"/>
</clipPath>
<clipPath id="clip1_259_3267">
<rect width="551" height="20" fill="white" transform="translate(407 588)"/>
</clipPath>
<clipPath id="clip2_259_3267">
<rect width="715" height="20" fill="white" transform="translate(407 617)"/>
</clipPath>
<clipPath id="clip3_259_3267">
<rect width="719" height="20" fill="white" transform="translate(407 646)"/>
</clipPath>
<clipPath id="clip4_259_3267">
<rect width="722" height="20" fill="white" transform="translate(407 675)"/>
</clipPath>
<clipPath id="clip5_259_3267">
<rect width="719" height="20" fill="white" transform="translate(407 704)"/>
</clipPath>
<clipPath id="clip6_259_3267">
<rect width="678" height="20" fill="white" transform="translate(407 733)"/>
</clipPath>
</defs>
</svg>
