<svg width="3027" height="1450" viewBox="0 0 3027 1450" fill="none" xmlns="http://www.w3.org/2000/svg">
<g clip-path="url(#clip0_3253_23439)">
<rect width="1280" height="720" transform="translate(146 100)" fill="white"/>
<rect width="191" height="48" transform="translate(146 180)" fill="#F5F5F5"/>
<path d="M183.21 207.89C182.574 209.394 181.579 210.72 180.312 211.751C179.045 212.782 177.545 213.487 175.942 213.805C174.34 214.122 172.684 214.042 171.12 213.572C169.556 213.101 168.131 212.255 166.969 211.107C165.807 209.958 164.945 208.543 164.457 206.984C163.968 205.425 163.87 203.77 164.169 202.165C164.468 200.559 165.155 199.051 166.172 197.772C167.189 196.493 168.503 195.483 170 194.83" stroke="#7D7D7D" stroke-width="2" stroke-linecap="round" stroke-linejoin="round"/>
<path d="M184 204C184 202.687 183.741 201.386 183.239 200.173C182.736 198.96 182 197.858 181.071 196.929C180.142 196 179.04 195.264 177.827 194.761C176.614 194.259 175.313 194 174 194V204H184Z" stroke="#7D7D7D" stroke-width="2" stroke-linecap="round" stroke-linejoin="round"/>
<text fill="#7D7D7D" xml:space="preserve" style="white-space: pre" font-family="Chalkboard" font-size="16" letter-spacing="0em"><tspan x="194" y="209.578">Dashboard</tspan></text>
<g filter="url(#filter0_i_3253_23439)">
<rect width="191" height="48" transform="translate(146 228)" fill="white"/>
<path d="M180 248H181C182.061 248 183.078 248.421 183.828 249.172C184.579 249.922 185 250.939 185 252C185 253.061 184.579 254.078 183.828 254.828C183.078 255.579 182.061 256 181 256H180" stroke="#333333" stroke-width="2" stroke-linecap="round" stroke-linejoin="round"/>
<path d="M164 248H180V257C180 258.061 179.579 259.078 178.828 259.828C178.078 260.579 177.061 261 176 261H168C166.939 261 165.922 260.579 165.172 259.828C164.421 259.078 164 258.061 164 257V248Z" stroke="#333333" stroke-width="2" stroke-linecap="round" stroke-linejoin="round"/>
<path d="M168 241V244" stroke="#333333" stroke-width="2" stroke-linecap="round" stroke-linejoin="round"/>
<path d="M172 241V244" stroke="#898F9B" stroke-width="2" stroke-linecap="round" stroke-linejoin="round"/>
<path d="M176 241V244" stroke="#898F9B" stroke-width="2" stroke-linecap="round" stroke-linejoin="round"/>
<text fill="#333333" xml:space="preserve" style="white-space: pre" font-family="Chalkboard" font-size="16" letter-spacing="0em"><tspan x="194" y="257.578">Keywords</tspan></text>
<path d="M319 255L313 249L307 255" stroke="#333333" stroke-width="2" stroke-linecap="round" stroke-linejoin="round"/>
</g>
<rect width="191" height="108" transform="translate(146 276)" fill="white"/>
<text fill="#7D7D7D" xml:space="preserve" style="white-space: pre" font-family="Chalkboard" font-size="16" letter-spacing="0em"><tspan x="194" y="299.578">Keyword</tspan></text>
<rect width="191" height="36" transform="translate(146 312)" fill="#EEEEEE"/>
<text fill="#7D7D7D" xml:space="preserve" style="white-space: pre" font-family="Chalkboard" font-size="16" letter-spacing="0em"><tspan x="194" y="335.578">Keyword</tspan></text>
<text fill="#7D7D7D" xml:space="preserve" style="white-space: pre" font-family="Chalkboard" font-size="16" letter-spacing="0em"><tspan x="194" y="371.578">Keyword</tspan></text>
<rect width="191" height="48" transform="translate(146 384)" fill="#F5F5F5"/>
<path d="M174 411C175.657 411 177 409.657 177 408C177 406.343 175.657 405 174 405C172.343 405 171 406.343 171 408C171 409.657 172.343 411 174 411Z" stroke="#7D7D7D" stroke-width="2" stroke-linecap="round" stroke-linejoin="round"/>
<path d="M181.4 411C181.267 411.302 181.227 411.636 181.286 411.961C181.345 412.285 181.499 412.584 181.73 412.82L181.79 412.88C181.976 413.066 182.123 413.286 182.224 413.529C182.325 413.772 182.377 414.032 182.377 414.295C182.377 414.558 182.325 414.818 182.224 415.061C182.123 415.304 181.976 415.524 181.79 415.71C181.604 415.896 181.384 416.043 181.141 416.144C180.898 416.245 180.638 416.297 180.375 416.297C180.112 416.297 179.852 416.245 179.609 416.144C179.366 416.043 179.146 415.896 178.96 415.71L178.9 415.65C178.664 415.419 178.365 415.265 178.041 415.206C177.716 415.147 177.382 415.187 177.08 415.32C176.784 415.447 176.532 415.657 176.354 415.926C176.177 416.194 176.081 416.508 176.08 416.83V417C176.08 417.53 175.869 418.039 175.494 418.414C175.119 418.789 174.61 419 174.08 419C173.55 419 173.041 418.789 172.666 418.414C172.291 418.039 172.08 417.53 172.08 417V416.91C172.072 416.579 171.965 416.258 171.773 415.989C171.58 415.719 171.311 415.514 171 415.4C170.698 415.267 170.364 415.227 170.039 415.286C169.715 415.345 169.416 415.499 169.18 415.73L169.12 415.79C168.934 415.976 168.714 416.123 168.471 416.224C168.228 416.325 167.968 416.377 167.705 416.377C167.442 416.377 167.182 416.325 166.939 416.224C166.696 416.123 166.476 415.976 166.29 415.79C166.104 415.604 165.957 415.384 165.856 415.141C165.755 414.898 165.703 414.638 165.703 414.375C165.703 414.112 165.755 413.852 165.856 413.609C165.957 413.366 166.104 413.146 166.29 412.96L166.35 412.9C166.581 412.664 166.735 412.365 166.794 412.041C166.853 411.716 166.813 411.382 166.68 411.08C166.553 410.784 166.343 410.532 166.074 410.354C165.806 410.177 165.492 410.081 165.17 410.08H165C164.47 410.08 163.961 409.869 163.586 409.494C163.211 409.119 163 408.61 163 408.08C163 407.55 163.211 407.041 163.586 406.666C163.961 406.291 164.47 406.08 165 406.08H165.09C165.421 406.072 165.742 405.965 166.011 405.773C166.281 405.58 166.486 405.311 166.6 405C166.733 404.698 166.773 404.364 166.714 404.039C166.655 403.715 166.501 403.416 166.27 403.18L166.21 403.12C166.024 402.934 165.877 402.714 165.776 402.471C165.675 402.228 165.623 401.968 165.623 401.705C165.623 401.442 165.675 401.182 165.776 400.939C165.877 400.696 166.024 400.476 166.21 400.29C166.396 400.104 166.616 399.957 166.859 399.856C167.102 399.755 167.362 399.703 167.625 399.703C167.888 399.703 168.148 399.755 168.391 399.856C168.634 399.957 168.854 400.104 169.04 400.29L169.1 400.35C169.336 400.581 169.635 400.735 169.959 400.794C170.284 400.853 170.618 400.813 170.92 400.68H171C171.296 400.553 171.548 400.343 171.726 400.074C171.903 399.806 171.999 399.492 172 399.17V399C172 398.47 172.211 397.961 172.586 397.586C172.961 397.211 173.47 397 174 397C174.53 397 175.039 397.211 175.414 397.586C175.789 397.961 176 398.47 176 399V399.09C176.001 399.412 176.097 399.726 176.274 399.994C176.452 400.263 176.704 400.473 177 400.6C177.302 400.733 177.636 400.773 177.961 400.714C178.285 400.655 178.584 400.501 178.82 400.27L178.88 400.21C179.066 400.024 179.286 399.877 179.529 399.776C179.772 399.675 180.032 399.623 180.295 399.623C180.558 399.623 180.818 399.675 181.061 399.776C181.304 399.877 181.524 400.024 181.71 400.21C181.896 400.396 182.043 400.616 182.144 400.859C182.245 401.102 182.297 401.362 182.297 401.625C182.297 401.888 182.245 402.148 182.144 402.391C182.043 402.634 181.896 402.854 181.71 403.04L181.65 403.1C181.419 403.336 181.265 403.635 181.206 403.959C181.147 404.284 181.187 404.618 181.32 404.92V405C181.447 405.296 181.657 405.548 181.926 405.726C182.194 405.903 182.508 405.999 182.83 406H183C183.53 406 184.039 406.211 184.414 406.586C184.789 406.961 185 407.47 185 408C185 408.53 184.789 409.039 184.414 409.414C184.039 409.789 183.53 410 183 410H182.91C182.588 410.001 182.274 410.097 182.006 410.274C181.737 410.452 181.527 410.704 181.4 411V411Z" stroke="#7D7D7D" stroke-width="2" stroke-linecap="round" stroke-linejoin="round"/>
<text fill="#7D7D7D" xml:space="preserve" style="white-space: pre" font-family="Chalkboard" font-size="16" letter-spacing="0em"><tspan x="194" y="413.578">Settings</tspan></text>
<rect x="145" y="179" width="193" height="254" stroke="#EEEEEE" stroke-width="2"/>
<g filter="url(#filter1_d_3253_23439)">
<rect width="1280" height="80" transform="translate(146 100)" fill="white"/>
<rect x="211" y="117" width="39.8684" height="38" fill="#F5F5F5"/>
<path d="M216 122L246 150" stroke="#AAAAAA" stroke-width="2"/>
<path d="M246 122L216 150" stroke="#AAAAAA" stroke-width="2"/>
<rect x="211" y="117" width="39.8684" height="38" stroke="#AAAAAA" stroke-width="2"/>
<circle cx="1338" cy="140" r="23" fill="#F5F5F5" stroke="#AAAAAA" stroke-width="2"/>
<mask id="path-22-inside-1_3253_23439" fill="white">
<path fill-rule="evenodd" clip-rule="evenodd" d="M1320 155.875V155C1320 149.015 1331.99 146 1338 146C1344.01 146 1356 149.015 1356 155V155.875C1351.6 160.857 1345.17 164 1338 164C1330.83 164 1324.4 160.857 1320 155.875ZM1338 126C1333.03 126 1329 130.028 1329 135C1329 139.972 1333.03 144 1338 144C1342.97 144 1347 139.972 1347 135C1347 130.028 1342.97 126 1338 126Z"/>
</mask>
<path fill-rule="evenodd" clip-rule="evenodd" d="M1320 155.875V155C1320 149.015 1331.99 146 1338 146C1344.01 146 1356 149.015 1356 155V155.875C1351.6 160.857 1345.17 164 1338 164C1330.83 164 1324.4 160.857 1320 155.875ZM1338 126C1333.03 126 1329 130.028 1329 135C1329 139.972 1333.03 144 1338 144C1342.97 144 1347 139.972 1347 135C1347 130.028 1342.97 126 1338 126Z" fill="#F5F5F5"/>
<path d="M1320 155.875H1318V156.631L1318.5 157.198L1320 155.875ZM1356 155.875L1357.5 157.198L1358 156.631V155.875H1356ZM1322 155.875V155H1318V155.875H1322ZM1322 155C1322 154.238 1322.37 153.423 1323.32 152.539C1324.3 151.641 1325.74 150.814 1327.49 150.112C1331 148.707 1335.25 148 1338 148V144C1334.75 144 1329.99 144.801 1326 146.399C1324.01 147.199 1322.08 148.248 1320.61 149.599C1319.13 150.963 1318 152.769 1318 155H1322ZM1338 148C1340.75 148 1345 148.707 1348.51 150.112C1350.26 150.814 1351.7 151.641 1352.68 152.539C1353.63 153.423 1354 154.238 1354 155H1358C1358 152.769 1356.87 150.963 1355.39 149.599C1353.92 148.248 1351.99 147.199 1350 146.399C1346.01 144.801 1341.25 144 1338 144V148ZM1354 155V155.875H1358V155H1354ZM1354.5 154.551C1350.47 159.122 1344.57 162 1338 162V166C1345.77 166 1352.74 162.593 1357.5 157.198L1354.5 154.551ZM1338 162C1331.43 162 1325.53 159.122 1321.5 154.551L1318.5 157.198C1323.26 162.593 1330.23 166 1338 166V162ZM1331 135C1331 131.132 1334.13 128 1338 128V124C1331.92 124 1327 128.923 1327 135H1331ZM1338 142C1334.13 142 1331 138.868 1331 135H1327C1327 141.077 1331.92 146 1338 146V142ZM1345 135C1345 138.868 1341.87 142 1338 142V146C1344.08 146 1349 141.077 1349 135H1345ZM1338 128C1341.87 128 1345 131.132 1345 135H1349C1349 128.923 1344.08 124 1338 124V128Z" fill="#AAAAAA" mask="url(#path-22-inside-1_3253_23439)"/>
</g>
<rect x="559" y="216" width="558" height="170" rx="12" fill="#F5F5F5"/>
<text fill="black" xml:space="preserve" style="white-space: pre" font-family="Chalkboard" font-size="24" letter-spacing="0em"><tspan x="591.172" y="269.367">Setup keywords</tspan></text>
<rect x="592" y="307" width="492" height="46" rx="3" fill="white"/>
<path d="M618 337C622.418 337 626 333.418 626 329C626 324.582 622.418 321 618 321C613.582 321 610 324.582 610 329C610 333.418 613.582 337 618 337Z" stroke="#7D7D7D" stroke-width="2" stroke-linecap="round" stroke-linejoin="round"/>
<path d="M628 339L623.65 334.65" stroke="#898F9B" stroke-width="2" stroke-linecap="round" stroke-linejoin="round"/>
<text fill="#7D7D7D" xml:space="preserve" style="white-space: pre" font-family="Chalkboard" font-size="16" letter-spacing="0em"><tspan x="639" y="335.578">Adidas, ultraboost</tspan></text>
<text fill="#767676" xml:space="preserve" style="white-space: pre" font-family="Chalkboard" font-size="14" letter-spacing="0em"><tspan x="591" y="298.881">Enter keywords</tspan></text>
<rect x="592" y="307" width="492" height="46" rx="3" stroke="#AAAAAA" stroke-width="2"/>
<rect x="559" y="432" width="558" height="245" rx="12" fill="#F5F5F5"/>
<text fill="black" xml:space="preserve" style="white-space: pre" font-family="Chalkboard" font-size="24" letter-spacing="0em"><tspan x="591.398" y="485.367">Saved keywords</tspan></text>
<text fill="#DEB650" xml:space="preserve" style="white-space: pre" font-family="Chalkboard" font-size="24" letter-spacing="0em"><tspan x="1026.07" y="485.367">Done</tspan></text>
<text fill="black" xml:space="preserve" style="white-space: pre" font-family="Chalkboard" font-size="18" letter-spacing="0em"><tspan x="591.019" y="556.275">Lululemon, Hoodies</tspan></text>
<path d="M1079 544L1067 556" stroke="#898F9B" stroke-width="2" stroke-linecap="round" stroke-linejoin="round"/>
<path d="M1067 544L1079 556" stroke="#898F9B" stroke-width="2" stroke-linecap="round" stroke-linejoin="round"/>
<path d="M1085 577H591V579H1085V577Z" fill="black" mask="url(#path-34-inside-2_3253_23439)"/>
<text fill="black" xml:space="preserve" style="white-space: pre" font-family="Chalkboard" font-size="18" letter-spacing="0em"><tspan x="591.31" y="623.275">Lululemon, Leggins</tspan></text>
<path d="M1078 611L1066 623" stroke="#898F9B" stroke-width="2" stroke-linecap="round" stroke-linejoin="round"/>
<path d="M1066 611L1078 623" stroke="#898F9B" stroke-width="2" stroke-linecap="round" stroke-linejoin="round"/>
<path d="M1084 644H591V646H1084V644Z" fill="black" mask="url(#path-39-inside-3_3253_23439)"/>
</g>
<g clip-path="url(#clip1_3253_23439)">
<rect width="1280" height="1302" transform="translate(1601 100)" fill="white"/>
<rect width="191" height="48" transform="translate(1601 180)" fill="white"/>
<path d="M1638.21 207.89C1637.57 209.394 1636.58 210.72 1635.31 211.751C1634.04 212.782 1632.54 213.487 1630.94 213.805C1629.34 214.122 1627.68 214.042 1626.12 213.572C1624.56 213.101 1623.13 212.255 1621.97 211.107C1620.81 209.958 1619.94 208.543 1619.46 206.984C1618.97 205.425 1618.87 203.77 1619.17 202.165C1619.47 200.559 1620.16 199.051 1621.17 197.772C1622.19 196.493 1623.5 195.483 1625 194.83" stroke="#7D7D7D" stroke-width="2" stroke-linecap="round" stroke-linejoin="round"/>
<path d="M1639 204C1639 202.687 1638.74 201.386 1638.24 200.173C1637.74 198.96 1637 197.858 1636.07 196.929C1635.14 196 1634.04 195.264 1632.83 194.761C1631.61 194.259 1630.31 194 1629 194V204H1639Z" stroke="#7D7D7D" stroke-width="2" stroke-linecap="round" stroke-linejoin="round"/>
<text fill="#7D7D7D" xml:space="preserve" style="white-space: pre" font-family="Chalkboard" font-size="16" letter-spacing="0em"><tspan x="1649" y="209.578">Dashboard</tspan></text>
<g filter="url(#filter2_i_3253_23439)">
<rect width="191" height="48" transform="translate(1601 228)" fill="#F5F5F5"/>
<path d="M1635 248H1636C1637.06 248 1638.08 248.421 1638.83 249.172C1639.58 249.922 1640 250.939 1640 252C1640 253.061 1639.58 254.078 1638.83 254.828C1638.08 255.579 1637.06 256 1636 256H1635" stroke="#333333" stroke-width="2" stroke-linecap="round" stroke-linejoin="round"/>
<path d="M1619 248H1635V257C1635 258.061 1634.58 259.078 1633.83 259.828C1633.08 260.579 1632.06 261 1631 261H1623C1621.94 261 1620.92 260.579 1620.17 259.828C1619.42 259.078 1619 258.061 1619 257V248Z" stroke="#333333" stroke-width="2" stroke-linecap="round" stroke-linejoin="round"/>
<path d="M1623 241V244" stroke="#333333" stroke-width="2" stroke-linecap="round" stroke-linejoin="round"/>
<path d="M1627 241V244" stroke="#898F9B" stroke-width="2" stroke-linecap="round" stroke-linejoin="round"/>
<path d="M1631 241V244" stroke="#898F9B" stroke-width="2" stroke-linecap="round" stroke-linejoin="round"/>
<text fill="#333333" xml:space="preserve" style="white-space: pre" font-family="Chalkboard" font-size="16" letter-spacing="0em"><tspan x="1649" y="257.578">Keywords</tspan></text>
<path d="M1774 255L1768 249L1762 255" stroke="#333333" stroke-width="2" stroke-linecap="round" stroke-linejoin="round"/>
</g>
<rect width="191" height="48" transform="translate(1601 276)" fill="#F5F5F5"/>
<path d="M1629 303C1630.66 303 1632 301.657 1632 300C1632 298.343 1630.66 297 1629 297C1627.34 297 1626 298.343 1626 300C1626 301.657 1627.34 303 1629 303Z" stroke="#7D7D7D" stroke-width="2" stroke-linecap="round" stroke-linejoin="round"/>
<path d="M1636.4 303C1636.27 303.302 1636.23 303.636 1636.29 303.961C1636.34 304.285 1636.5 304.584 1636.73 304.82L1636.79 304.88C1636.98 305.066 1637.12 305.286 1637.22 305.529C1637.32 305.772 1637.38 306.032 1637.38 306.295C1637.38 306.558 1637.32 306.818 1637.22 307.061C1637.12 307.304 1636.98 307.524 1636.79 307.71C1636.6 307.896 1636.38 308.043 1636.14 308.144C1635.9 308.245 1635.64 308.297 1635.38 308.297C1635.11 308.297 1634.85 308.245 1634.61 308.144C1634.37 308.043 1634.15 307.896 1633.96 307.71L1633.9 307.65C1633.66 307.419 1633.36 307.265 1633.04 307.206C1632.72 307.147 1632.38 307.187 1632.08 307.32C1631.78 307.447 1631.53 307.657 1631.35 307.926C1631.18 308.194 1631.08 308.508 1631.08 308.83V309C1631.08 309.53 1630.87 310.039 1630.49 310.414C1630.12 310.789 1629.61 311 1629.08 311C1628.55 311 1628.04 310.789 1627.67 310.414C1627.29 310.039 1627.08 309.53 1627.08 309V308.91C1627.07 308.579 1626.97 308.258 1626.77 307.989C1626.58 307.719 1626.31 307.514 1626 307.4C1625.7 307.267 1625.36 307.227 1625.04 307.286C1624.72 307.345 1624.42 307.499 1624.18 307.73L1624.12 307.79C1623.93 307.976 1623.71 308.123 1623.47 308.224C1623.23 308.325 1622.97 308.377 1622.7 308.377C1622.44 308.377 1622.18 308.325 1621.94 308.224C1621.7 308.123 1621.48 307.976 1621.29 307.79C1621.1 307.604 1620.96 307.384 1620.86 307.141C1620.76 306.898 1620.7 306.638 1620.7 306.375C1620.7 306.112 1620.76 305.852 1620.86 305.609C1620.96 305.366 1621.1 305.146 1621.29 304.96L1621.35 304.9C1621.58 304.664 1621.74 304.365 1621.79 304.041C1621.85 303.716 1621.81 303.382 1621.68 303.08C1621.55 302.784 1621.34 302.532 1621.07 302.354C1620.81 302.177 1620.49 302.081 1620.17 302.08H1620C1619.47 302.08 1618.96 301.869 1618.59 301.494C1618.21 301.119 1618 300.61 1618 300.08C1618 299.55 1618.21 299.041 1618.59 298.666C1618.96 298.291 1619.47 298.08 1620 298.08H1620.09C1620.42 298.072 1620.74 297.965 1621.01 297.773C1621.28 297.58 1621.49 297.311 1621.6 297C1621.73 296.698 1621.77 296.364 1621.71 296.039C1621.66 295.715 1621.5 295.416 1621.27 295.18L1621.21 295.12C1621.02 294.934 1620.88 294.714 1620.78 294.471C1620.68 294.228 1620.62 293.968 1620.62 293.705C1620.62 293.442 1620.68 293.182 1620.78 292.939C1620.88 292.696 1621.02 292.476 1621.21 292.29C1621.4 292.104 1621.62 291.957 1621.86 291.856C1622.1 291.755 1622.36 291.703 1622.62 291.703C1622.89 291.703 1623.15 291.755 1623.39 291.856C1623.63 291.957 1623.85 292.104 1624.04 292.29L1624.1 292.35C1624.34 292.581 1624.64 292.735 1624.96 292.794C1625.28 292.853 1625.62 292.813 1625.92 292.68H1626C1626.3 292.553 1626.55 292.343 1626.73 292.074C1626.9 291.806 1627 291.492 1627 291.17V291C1627 290.47 1627.21 289.961 1627.59 289.586C1627.96 289.211 1628.47 289 1629 289C1629.53 289 1630.04 289.211 1630.41 289.586C1630.79 289.961 1631 290.47 1631 291V291.09C1631 291.412 1631.1 291.726 1631.27 291.994C1631.45 292.263 1631.7 292.473 1632 292.6C1632.3 292.733 1632.64 292.773 1632.96 292.714C1633.28 292.655 1633.58 292.501 1633.82 292.27L1633.88 292.21C1634.07 292.024 1634.29 291.877 1634.53 291.776C1634.77 291.675 1635.03 291.623 1635.3 291.623C1635.56 291.623 1635.82 291.675 1636.06 291.776C1636.3 291.877 1636.52 292.024 1636.71 292.21C1636.9 292.396 1637.04 292.616 1637.14 292.859C1637.24 293.102 1637.3 293.362 1637.3 293.625C1637.3 293.888 1637.24 294.148 1637.14 294.391C1637.04 294.634 1636.9 294.854 1636.71 295.04L1636.65 295.1C1636.42 295.336 1636.26 295.635 1636.21 295.959C1636.15 296.284 1636.19 296.618 1636.32 296.92V297C1636.45 297.296 1636.66 297.548 1636.93 297.726C1637.19 297.903 1637.51 297.999 1637.83 298H1638C1638.53 298 1639.04 298.211 1639.41 298.586C1639.79 298.961 1640 299.47 1640 300C1640 300.53 1639.79 301.039 1639.41 301.414C1639.04 301.789 1638.53 302 1638 302H1637.91C1637.59 302.001 1637.27 302.097 1637.01 302.274C1636.74 302.452 1636.53 302.704 1636.4 303V303Z" stroke="#7D7D7D" stroke-width="2" stroke-linecap="round" stroke-linejoin="round"/>
<text fill="#7D7D7D" xml:space="preserve" style="white-space: pre" font-family="Chalkboard" font-size="16" letter-spacing="0em"><tspan x="1649" y="305.578">Settings</tspan></text>
<rect x="1600" y="179" width="193" height="146" stroke="#EEEEEE" stroke-width="2"/>
<g filter="url(#filter3_d_3253_23439)">
<rect width="1280" height="80" transform="translate(1601 100)" fill="white"/>
<rect x="1666" y="117" width="39.8684" height="38" fill="#F5F5F5"/>
<path d="M1671 122L1701 150" stroke="#AAAAAA" stroke-width="2"/>
<path d="M1701 122L1671 150" stroke="#AAAAAA" stroke-width="2"/>
<rect x="1666" y="117" width="39.8684" height="38" stroke="#AAAAAA" stroke-width="2"/>
<circle cx="2793" cy="140" r="23" fill="#F5F5F5" stroke="#AAAAAA" stroke-width="2"/>
<mask id="path-62-inside-4_3253_23439" fill="white">
<path fill-rule="evenodd" clip-rule="evenodd" d="M2775 155.875V155C2775 149.015 2786.99 146 2793 146C2799.01 146 2811 149.015 2811 155V155.875C2806.6 160.857 2800.17 164 2793 164C2785.83 164 2779.4 160.857 2775 155.875ZM2793 126C2788.03 126 2784 130.028 2784 135C2784 139.972 2788.03 144 2793 144C2797.97 144 2802 139.972 2802 135C2802 130.028 2797.97 126 2793 126Z"/>
</mask>
<path fill-rule="evenodd" clip-rule="evenodd" d="M2775 155.875V155C2775 149.015 2786.99 146 2793 146C2799.01 146 2811 149.015 2811 155V155.875C2806.6 160.857 2800.17 164 2793 164C2785.83 164 2779.4 160.857 2775 155.875ZM2793 126C2788.03 126 2784 130.028 2784 135C2784 139.972 2788.03 144 2793 144C2797.97 144 2802 139.972 2802 135C2802 130.028 2797.97 126 2793 126Z" fill="#F5F5F5"/>
<path d="M2775 155.875H2773V156.631L2773.5 157.198L2775 155.875ZM2811 155.875L2812.5 157.198L2813 156.631V155.875H2811ZM2777 155.875V155H2773V155.875H2777ZM2777 155C2777 154.238 2777.37 153.423 2778.32 152.539C2779.3 151.641 2780.74 150.814 2782.49 150.112C2786 148.707 2790.25 148 2793 148V144C2789.75 144 2784.99 144.801 2781 146.399C2779.01 147.199 2777.08 148.248 2775.61 149.599C2774.13 150.963 2773 152.769 2773 155H2777ZM2793 148C2795.75 148 2800 148.707 2803.51 150.112C2805.26 150.814 2806.7 151.641 2807.68 152.539C2808.63 153.423 2809 154.238 2809 155H2813C2813 152.769 2811.87 150.963 2810.39 149.599C2808.92 148.248 2806.99 147.199 2805 146.399C2801.01 144.801 2796.25 144 2793 144V148ZM2809 155V155.875H2813V155H2809ZM2809.5 154.551C2805.47 159.122 2799.57 162 2793 162V166C2800.77 166 2807.74 162.593 2812.5 157.198L2809.5 154.551ZM2793 162C2786.43 162 2780.53 159.122 2776.5 154.551L2773.5 157.198C2778.26 162.593 2785.23 166 2793 166V162ZM2786 135C2786 131.132 2789.13 128 2793 128V124C2786.92 124 2782 128.923 2782 135H2786ZM2793 142C2789.13 142 2786 138.868 2786 135H2782C2782 141.077 2786.92 146 2793 146V142ZM2800 135C2800 138.868 2796.87 142 2793 142V146C2799.08 146 2804 141.077 2804 135H2800ZM2793 128C2796.87 128 2800 131.132 2800 135H2804C2804 128.923 2799.08 124 2793 124V128Z" fill="#AAAAAA" mask="url(#path-62-inside-4_3253_23439)"/>
</g>
<text fill="black" xml:space="preserve" style="white-space: pre" font-family="Chalkboard" font-size="18" letter-spacing="0em"><tspan x="2652" y="215.275">Jun29 - Jul26, 2022</tspan></text>
<text fill="black" xml:space="preserve" style="white-space: pre" font-family="Chalkboard" font-size="18" letter-spacing="0em"><tspan x="2527" y="215.275">Last 28 days</tspan></text>
<text fill="#EEEEEE" xml:space="preserve" style="white-space: pre" font-family="Chalkboard" font-size="30" letter-spacing="0em"><tspan x="2441" y="388.459">Line graph</tspan></text>
<text fill="#EEEEEE" xml:space="preserve" style="white-space: pre" font-family="Chalkboard" font-size="30" letter-spacing="0em"><tspan x="1988" y="388.459">Line graph</tspan></text>
<text fill="#EEEEEE" xml:space="preserve" style="white-space: pre" font-family="Chalkboard" font-size="30" letter-spacing="0em"><tspan x="1988" y="651.459">Line graph</tspan></text>
<text fill="#36374A" xml:space="preserve" style="white-space: pre" font-family="Chalkboard" font-size="18" letter-spacing="0em"><tspan x="2352" y="266.275">Sentiment score</tspan></text>
<text fill="#36374A" xml:space="preserve" style="white-space: pre" font-family="Chalkboard" font-size="18" letter-spacing="0em"><tspan x="1905" y="848.275">Community</tspan></text>
<text fill="#36374A" xml:space="preserve" style="white-space: pre" font-family="Chalkboard" font-size="18" letter-spacing="0em"><tspan x="2388" y="848.275">Post count</tspan></text>
<text fill="#36374A" xml:space="preserve" style="white-space: pre" font-family="Chalkboard" font-size="18" letter-spacing="0em"><tspan x="1905" y="533.275">Count</tspan></text>
<text fill="#36374A" xml:space="preserve" style="white-space: pre" font-family="Chalkboard" font-size="18" letter-spacing="0em"><tspan x="1899" y="266.275">Upvote ratio</tspan></text>
<rect x="1884" y="1119" width="864" height="426" fill="white"/>
<rect x="1884" y="1119" width="864" height="426" stroke="#AAAAAA" stroke-width="2"/>
<text fill="#7D7D7D" xml:space="preserve" style="white-space: pre" font-family="Chalkboard" font-size="14" letter-spacing="0em"><tspan x="1908" y="1147.88">Community</tspan></text>
<text fill="#7D7D7D" xml:space="preserve" style="white-space: pre" font-family="Chalkboard" font-size="14" letter-spacing="0em"><tspan x="2027" y="1147.88">Title</tspan></text>
<text fill="#7D7D7D" xml:space="preserve" style="white-space: pre" font-family="Chalkboard" font-size="14" letter-spacing="0em"><tspan x="2106" y="1147.88">Author</tspan></text>
<text fill="#7D7D7D" xml:space="preserve" style="white-space: pre" font-family="Chalkboard" font-size="14" letter-spacing="0em"><tspan x="2200" y="1150.88">Date &#38;  time</tspan></text>
<path d="M2297 1143L2303 1149L2309 1143" stroke="#898F9B" stroke-width="2" stroke-linecap="round" stroke-linejoin="round"/>
<text fill="#7D7D7D" xml:space="preserve" style="white-space: pre" font-family="Chalkboard" font-size="14" letter-spacing="0em"><tspan x="2366" y="1147.88">Content</tspan></text>
<text fill="#7D7D7D" xml:space="preserve" style="white-space: pre" font-family="Chalkboard" font-size="14" letter-spacing="0em"><tspan x="2466" y="1150.88">Upvote Ratio</tspan></text>
<path d="M2556 1143L2562 1149L2568 1143" stroke="#898F9B" stroke-width="2" stroke-linecap="round" stroke-linejoin="round"/>
<text fill="#7D7D7D" xml:space="preserve" style="white-space: pre" font-family="Chalkboard" font-size="14" letter-spacing="0em"><tspan x="2625" y="1147.88">Sentiment score</tspan></text>
<path d="M1885 1169H2748" stroke="#AAAAAA" stroke-width="2"/>
<g clip-path="url(#clip2_3253_23439)">
<text fill="#7D7D7D" xml:space="preserve" style="white-space: pre" font-family="Redacted Script" font-size="16" letter-spacing="0em"><tspan x="1908" y="1206.8">Lorem ipsum dolor sit amet, consec tetur adipiscing elit. Nam condimentum </tspan><tspan x="1908" y="1226.8">tempus diam, ultricies sollicitudin erat facilisis eget. Vestibulum rhoncus </tspan><tspan x="1908" y="1246.8">dui vel eros laoreet consectetur. Vivamus eget elementum ligula, vitae </tspan><tspan x="1908" y="1266.8">pharetra quam. Nullam at ligula sed metu</tspan></text>
</g>
<g clip-path="url(#clip3_3253_23439)">
<text fill="#7D7D7D" xml:space="preserve" style="white-space: pre" font-family="Redacted Script" font-size="16" letter-spacing="0em"><tspan x="1908" y="1235.8">Lorem ipsum dolor sit amet, consec tetur adipiscing elit. Nam condimentum tempus diam, ultricies </tspan><tspan x="1908" y="1255.8">sollicitudin erat facilisis eget. Vestibulum rhoncus dui vel eros laoreet consectetur. Vivamus eget </tspan><tspan x="1908" y="1275.8">elementum ligula, vitae pharetra quam. Nullam at ligula sed metu</tspan></text>
</g>
<g clip-path="url(#clip4_3253_23439)">
<text fill="#7D7D7D" xml:space="preserve" style="white-space: pre" font-family="Redacted Script" font-size="16" letter-spacing="0em"><tspan x="1908" y="1264.8">Lorem ipsum dolor sit amet, consec tetur adipiscing elit. Nam condimentum tempus diam, ultricies </tspan><tspan x="1908" y="1284.8">sollicitudin erat facilisis eget. Vestibulum rhoncus dui vel eros laoreet consectetur. Vivamus eget </tspan><tspan x="1908" y="1304.8">elementum ligula, vitae pharetra quam. Nullam at ligula sed metu</tspan></text>
</g>
<g clip-path="url(#clip5_3253_23439)">
<text fill="#7D7D7D" xml:space="preserve" style="white-space: pre" font-family="Redacted Script" font-size="16" letter-spacing="0em"><tspan x="1908" y="1293.8">Lorem ipsum dolor sit amet, consec tetur adipiscing elit. Nam condimentum tempus diam, ultricies </tspan><tspan x="1908" y="1313.8">sollicitudin erat facilisis eget. Vestibulum rhoncus dui vel eros laoreet consectetur. Vivamus eget </tspan><tspan x="1908" y="1333.8">elementum ligula, vitae pharetra quam. Nullam at ligula sed metu</tspan></text>
</g>
<g clip-path="url(#clip6_3253_23439)">
<text fill="#7D7D7D" xml:space="preserve" style="white-space: pre" font-family="Redacted Script" font-size="16" letter-spacing="0em"><tspan x="1908" y="1322.8">Lorem ipsum dolor sit amet, consec tetur adipiscing elit. Nam condimentum tempus diam, ultricies </tspan><tspan x="1908" y="1342.8">sollicitudin erat facilisis eget. Vestibulum rhoncus dui vel eros laoreet consectetur. Vivamus eget </tspan><tspan x="1908" y="1362.8">elementum ligula, vitae pharetra quam. Nullam at ligula sed metu</tspan></text>
</g>
<g clip-path="url(#clip7_3253_23439)">
<text fill="#7D7D7D" xml:space="preserve" style="white-space: pre" font-family="Redacted Script" font-size="16" letter-spacing="0em"><tspan x="1908" y="1351.8">Lorem ipsum dolor sit amet, consec tetur adipiscing elit. Nam condimentum tempus diam, </tspan><tspan x="1908" y="1371.8">ultricies sollicitudin erat facilisis eget. Vestibulum rhoncus dui vel eros laoreet </tspan><tspan x="1908" y="1391.8">consectetur. Vivamus eget elementum ligula, vitae pharetra quam. Nullam at ligula sed metu</tspan></text>
</g>
<g clip-path="url(#clip8_3253_23439)">
<text fill="#7D7D7D" xml:space="preserve" style="white-space: pre" font-family="Redacted Script" font-size="16" letter-spacing="0em"><tspan x="1908" y="1380.8">Lorem ipsum dolor sit amet, consec tetur adipiscing elit. Nam condimentum tempus </tspan><tspan x="1908" y="1400.8">diam, ultricies sollicitudin erat facilisis eget. Vestibulum rhoncus dui vel eros </tspan><tspan x="1908" y="1420.8">laoreet consectetur. Vivamus eget elementum ligula, vitae pharetra quam. Nullam </tspan><tspan x="1908" y="1440.8">at ligula sed metu</tspan></text>
</g>
<path d="M2362.5 462C2362.5 462.828 2363.17 463.5 2364 463.5C2364.83 463.5 2365.5 462.828 2365.5 462H2362.5ZM2365.06 290.939C2364.47 290.354 2363.53 290.354 2362.94 290.939L2353.39 300.485C2352.81 301.071 2352.81 302.021 2353.39 302.607C2353.98 303.192 2354.93 303.192 2355.51 302.607L2364 294.121L2372.49 302.607C2373.07 303.192 2374.02 303.192 2374.61 302.607C2375.19 302.021 2375.19 301.071 2374.61 300.485L2365.06 290.939ZM2365.5 462V292H2362.5V462H2365.5Z" fill="#7D7D7D"/>
<path d="M1909.5 462C1909.5 462.828 1910.17 463.5 1911 463.5C1911.83 463.5 1912.5 462.828 1912.5 462H1909.5ZM1912.06 290.939C1911.47 290.354 1910.53 290.354 1909.94 290.939L1900.39 300.485C1899.81 301.071 1899.81 302.021 1900.39 302.607C1900.98 303.192 1901.93 303.192 1902.51 302.607L1911 294.121L1919.49 302.607C1920.07 303.192 1921.02 303.192 1921.61 302.607C1922.19 302.021 1922.19 301.071 1921.61 300.485L1912.06 290.939ZM1912.5 462V292H1909.5V462H1912.5Z" fill="#7D7D7D"/>
<path d="M1909.5 725C1909.5 725.828 1910.17 726.5 1911 726.5C1911.83 726.5 1912.5 725.828 1912.5 725H1909.5ZM1912.06 553.939C1911.47 553.354 1910.53 553.354 1909.94 553.939L1900.39 563.485C1899.81 564.071 1899.81 565.021 1900.39 565.607C1900.98 566.192 1901.93 566.192 1902.51 565.607L1911 557.121L1919.49 565.607C1920.07 566.192 1921.02 566.192 1921.61 565.607C1922.19 565.021 1922.19 564.071 1921.61 563.485L1912.06 553.939ZM1912.5 725V555H1909.5V725H1912.5Z" fill="#7D7D7D"/>
<path d="M2364 460.5C2363.17 460.5 2362.5 461.172 2362.5 462C2362.5 462.828 2363.17 463.5 2364 463.5V460.5ZM2738.06 463.061C2738.65 462.475 2738.65 461.525 2738.06 460.939L2728.51 451.393C2727.93 450.808 2726.98 450.808 2726.39 451.393C2725.81 451.979 2725.81 452.929 2726.39 453.515L2734.88 462L2726.39 470.485C2725.81 471.071 2725.81 472.021 2726.39 472.607C2726.98 473.192 2727.93 473.192 2728.51 472.607L2738.06 463.061ZM2364 463.5H2737V460.5H2364V463.5Z" fill="#7D7D7D"/>
<path d="M1911 460.5C1910.17 460.5 1909.5 461.172 1909.5 462C1909.5 462.828 1910.17 463.5 1911 463.5V460.5ZM2285.06 463.061C2285.65 462.475 2285.65 461.525 2285.06 460.939L2275.51 451.393C2274.93 450.808 2273.98 450.808 2273.39 451.393C2272.81 451.979 2272.81 452.929 2273.39 453.515L2281.88 462L2273.39 470.485C2272.81 471.071 2272.81 472.021 2273.39 472.607C2273.98 473.192 2274.93 473.192 2275.51 472.607L2285.06 463.061ZM1911 463.5H2284V460.5H1911V463.5Z" fill="#7D7D7D"/>
<path d="M1911 723.5C1910.17 723.5 1909.5 724.172 1909.5 725C1909.5 725.828 1910.17 726.5 1911 726.5V723.5ZM2285.06 726.061C2285.65 725.475 2285.65 724.525 2285.06 723.939L2275.51 714.393C2274.93 713.808 2273.98 713.808 2273.39 714.393C2272.81 714.979 2272.81 715.929 2273.39 716.515L2281.88 725L2273.39 733.485C2272.81 734.071 2272.81 735.021 2273.39 735.607C2273.98 736.192 2274.93 736.192 2275.51 735.607L2285.06 726.061ZM1911 726.5H2284V723.5H1911V726.5Z" fill="#7D7D7D"/>
<text fill="#767676" xml:space="preserve" style="white-space: pre" font-family="Chalkboard" font-size="14" letter-spacing="0em"><tspan x="2384" y="481.881">6/29</tspan></text>
<text fill="#767676" xml:space="preserve" style="white-space: pre" font-family="Chalkboard" font-size="14" letter-spacing="0em"><tspan x="2433" y="481.881">6/29</tspan></text>
<text fill="#767676" xml:space="preserve" style="white-space: pre" font-family="Chalkboard" font-size="14" letter-spacing="0em"><tspan x="2482" y="481.881">7/8</tspan></text>
<text fill="#767676" xml:space="preserve" style="white-space: pre" font-family="Chalkboard" font-size="14" letter-spacing="0em"><tspan x="2523" y="481.881">7/15</tspan></text>
<text fill="#767676" xml:space="preserve" style="white-space: pre" font-family="Chalkboard" font-size="14" letter-spacing="0em"><tspan x="2569" y="481.881">7/20</tspan></text>
<text fill="#767676" xml:space="preserve" style="white-space: pre" font-family="Chalkboard" font-size="14" letter-spacing="0em"><tspan x="2617" y="481.881">7/20</tspan></text>
<text fill="#767676" xml:space="preserve" style="white-space: pre" font-family="Chalkboard" font-size="14" letter-spacing="0em"><tspan x="2665" y="481.881">7/26</tspan></text>
<text fill="#767676" xml:space="preserve" style="white-space: pre" font-family="Chalkboard" font-size="14" letter-spacing="0em"><tspan x="1931" y="481.881">6/29</tspan></text>
<text fill="#767676" xml:space="preserve" style="white-space: pre" font-family="Chalkboard" font-size="14" letter-spacing="0em"><tspan x="1980" y="481.881">6/29</tspan></text>
<text fill="#767676" xml:space="preserve" style="white-space: pre" font-family="Chalkboard" font-size="14" letter-spacing="0em"><tspan x="2029" y="481.881">7/8</tspan></text>
<text fill="#767676" xml:space="preserve" style="white-space: pre" font-family="Chalkboard" font-size="14" letter-spacing="0em"><tspan x="2070" y="481.881">7/15</tspan></text>
<text fill="#767676" xml:space="preserve" style="white-space: pre" font-family="Chalkboard" font-size="14" letter-spacing="0em"><tspan x="2116" y="481.881">7/20</tspan></text>
<text fill="#767676" xml:space="preserve" style="white-space: pre" font-family="Chalkboard" font-size="14" letter-spacing="0em"><tspan x="2164" y="481.881">7/20</tspan></text>
<text fill="#767676" xml:space="preserve" style="white-space: pre" font-family="Chalkboard" font-size="14" letter-spacing="0em"><tspan x="2212" y="481.881">7/26</tspan></text>
<text fill="#767676" xml:space="preserve" style="white-space: pre" font-family="Chalkboard" font-size="14" letter-spacing="0em"><tspan x="1931" y="744.881">6/29</tspan></text>
<text fill="#767676" xml:space="preserve" style="white-space: pre" font-family="Chalkboard" font-size="14" letter-spacing="0em"><tspan x="1980" y="744.881">6/29</tspan></text>
<text fill="#767676" xml:space="preserve" style="white-space: pre" font-family="Chalkboard" font-size="14" letter-spacing="0em"><tspan x="2029" y="744.881">7/8</tspan></text>
<text fill="#767676" xml:space="preserve" style="white-space: pre" font-family="Chalkboard" font-size="14" letter-spacing="0em"><tspan x="2070" y="744.881">7/15</tspan></text>
<text fill="#767676" xml:space="preserve" style="white-space: pre" font-family="Chalkboard" font-size="14" letter-spacing="0em"><tspan x="2116" y="744.881">7/20</tspan></text>
<text fill="#767676" xml:space="preserve" style="white-space: pre" font-family="Chalkboard" font-size="14" letter-spacing="0em"><tspan x="2164" y="744.881">7/20</tspan></text>
<text fill="#767676" xml:space="preserve" style="white-space: pre" font-family="Chalkboard" font-size="14" letter-spacing="0em"><tspan x="2212" y="744.881">7/26</tspan></text>
<text fill="#767676" xml:space="preserve" style="white-space: pre" font-family="Chalkboard" font-size="14" letter-spacing="0em"><tspan x="2340" y="330.881">10</tspan></text>
<text fill="#767676" xml:space="preserve" style="white-space: pre" font-family="Chalkboard" font-size="14" letter-spacing="0em"><tspan x="2340" y="389.381">5</tspan></text>
<text fill="#767676" xml:space="preserve" style="white-space: pre" font-family="Chalkboard" font-size="14" letter-spacing="0em"><tspan x="2340" y="447.881">0</tspan></text>
<text fill="#767676" xml:space="preserve" style="white-space: pre" font-family="Chalkboard" font-size="14" letter-spacing="0em"><tspan x="1893" y="330.881">1</tspan></text>
<text fill="#767676" xml:space="preserve" style="white-space: pre" font-family="Chalkboard" font-size="14" letter-spacing="0em"><tspan x="1879" y="389.381">0.5</tspan></text>
<text fill="#767676" xml:space="preserve" style="white-space: pre" font-family="Chalkboard" font-size="14" letter-spacing="0em"><tspan x="1891" y="447.881">0</tspan></text>
<text fill="#767676" xml:space="preserve" style="white-space: pre" font-family="Chalkboard" font-size="14" letter-spacing="0em"><tspan x="1853" y="593.881">150000</tspan></text>
<text fill="#767676" xml:space="preserve" style="white-space: pre" font-family="Chalkboard" font-size="14" letter-spacing="0em"><tspan x="1853" y="632.881">100000</tspan></text>
<text fill="#767676" xml:space="preserve" style="white-space: pre" font-family="Chalkboard" font-size="14" letter-spacing="0em"><tspan x="1858" y="671.881">50000</tspan></text>
<text fill="#767676" xml:space="preserve" style="white-space: pre" font-family="Chalkboard" font-size="14" letter-spacing="0em"><tspan x="1891" y="710.881">0</tspan></text>
<path d="M2379 393.068C2391.02 378.588 2415.05 358.442 2466.63 360.016C2518.2 361.59 2521.03 389.459 2557.26 394.957C2571.78 397.16 2598.82 397.16 2617.85 381.736C2632 370.269 2637.5 353.949 2660.41 346.48C2687.45 337.666 2703.48 342.388 2720 332" stroke="#767676" stroke-width="3" stroke-linecap="round"/>
<path d="M1927.5 402.5C1979.5 436 2031.47 432.326 2076 426.5C2129.5 419.5 2147.33 407.968 2164.5 390.5C2193.5 361 2224 317.5 2265.5 313.5" stroke="#767676" stroke-width="3" stroke-linecap="round"/>
<path d="M1926 656.068C1938.02 641.588 1960.92 581.926 2012.5 583.5C2064.08 585.074 2068.03 652.459 2104.26 657.957C2118.78 660.16 2145.82 660.16 2164.85 644.736C2179 633.269 2184.5 616.949 2207.41 609.48C2234.45 600.666 2265.5 627.5 2270 674" stroke="#767676" stroke-width="3" stroke-linecap="round"/>
<mask id="path-132-inside-5_3253_23439" fill="white">
<path d="M2125.72 1002.43C2119.61 1016.33 2110.35 1028.63 2098.67 1038.34C2087 1048.05 2073.23 1054.92 2058.44 1058.4C2043.66 1061.87 2028.27 1061.87 2013.49 1058.38C1998.71 1054.89 1984.94 1048.01 1973.27 1038.29C1961.6 1028.57 1952.35 1016.27 1946.25 1002.37C1940.15 988.457 1937.37 973.322 1938.12 958.154C1938.87 942.985 1943.14 928.199 1950.58 914.962C1958.03 901.725 1968.44 890.399 1981.02 881.878L2003.84 915.558C1996.49 920.541 1990.4 927.165 1986.05 934.906C1981.69 942.648 1979.2 951.295 1978.76 960.166C1978.32 969.037 1979.95 977.888 1983.51 986.022C1987.08 994.155 1992.49 1001.35 1999.32 1007.03C2006.14 1012.72 2014.19 1016.74 2022.83 1018.78C2031.48 1020.82 2040.48 1020.82 2049.12 1018.79C2057.77 1016.76 2065.82 1012.74 2072.65 1007.06C2079.48 1001.38 2084.9 994.191 2088.47 986.06L2125.72 1002.43Z"/>
</mask>
<path d="M2125.72 1002.43C2119.61 1016.33 2110.35 1028.63 2098.67 1038.34C2087 1048.05 2073.23 1054.92 2058.44 1058.4C2043.66 1061.87 2028.27 1061.87 2013.49 1058.38C1998.71 1054.89 1984.94 1048.01 1973.27 1038.29C1961.6 1028.57 1952.35 1016.27 1946.25 1002.37C1940.15 988.457 1937.37 973.322 1938.12 958.154C1938.87 942.985 1943.14 928.199 1950.58 914.962C1958.03 901.725 1968.44 890.399 1981.02 881.878L2003.84 915.558C1996.49 920.541 1990.4 927.165 1986.05 934.906C1981.69 942.648 1979.2 951.295 1978.76 960.166C1978.32 969.037 1979.95 977.888 1983.51 986.022C1987.08 994.155 1992.49 1001.35 1999.32 1007.03C2006.14 1012.72 2014.19 1016.74 2022.83 1018.78C2031.48 1020.82 2040.48 1020.82 2049.12 1018.79C2057.77 1016.76 2065.82 1012.74 2072.65 1007.06C2079.48 1001.38 2084.9 994.191 2088.47 986.06L2125.72 1002.43Z" fill="#E6E6E6" stroke="#AAAAAA" stroke-width="6" mask="url(#path-132-inside-5_3253_23439)"/>
<mask id="path-133-inside-6_3253_23439" fill="white">
<path d="M2568.72 1002.43C2562.61 1016.33 2553.35 1028.63 2541.67 1038.34C2530 1048.05 2516.23 1054.92 2501.44 1058.4C2486.66 1061.87 2471.27 1061.87 2456.49 1058.38C2441.71 1054.89 2427.94 1048.01 2416.27 1038.29C2404.6 1028.57 2395.35 1016.27 2389.25 1002.37C2383.15 988.457 2380.37 973.322 2381.12 958.154C2381.87 942.985 2386.14 928.199 2393.58 914.962C2401.03 901.725 2411.44 890.399 2424.02 881.878L2446.84 915.558C2439.49 920.541 2433.4 927.165 2429.05 934.906C2424.69 942.648 2422.2 951.295 2421.76 960.166C2421.32 969.037 2422.95 977.888 2426.51 986.022C2430.08 994.155 2435.49 1001.35 2442.32 1007.03C2449.14 1012.72 2457.19 1016.74 2465.83 1018.78C2474.48 1020.82 2483.48 1020.82 2492.12 1018.79C2500.77 1016.76 2508.82 1012.74 2515.65 1007.06C2522.48 1001.38 2527.9 994.191 2531.47 986.06L2568.72 1002.43Z"/>
</mask>
<path d="M2568.72 1002.43C2562.61 1016.33 2553.35 1028.63 2541.67 1038.34C2530 1048.05 2516.23 1054.92 2501.44 1058.4C2486.66 1061.87 2471.27 1061.87 2456.49 1058.38C2441.71 1054.89 2427.94 1048.01 2416.27 1038.29C2404.6 1028.57 2395.35 1016.27 2389.25 1002.37C2383.15 988.457 2380.37 973.322 2381.12 958.154C2381.87 942.985 2386.14 928.199 2393.58 914.962C2401.03 901.725 2411.44 890.399 2424.02 881.878L2446.84 915.558C2439.49 920.541 2433.4 927.165 2429.05 934.906C2424.69 942.648 2422.2 951.295 2421.76 960.166C2421.32 969.037 2422.95 977.888 2426.51 986.022C2430.08 994.155 2435.49 1001.35 2442.32 1007.03C2449.14 1012.72 2457.19 1016.74 2465.83 1018.78C2474.48 1020.82 2483.48 1020.82 2492.12 1018.79C2500.77 1016.76 2508.82 1012.74 2515.65 1007.06C2522.48 1001.38 2527.9 994.191 2531.47 986.06L2568.72 1002.43Z" fill="#E6E6E6" stroke="#AAAAAA" stroke-width="6" mask="url(#path-133-inside-6_3253_23439)"/>
<mask id="path-134-inside-7_3253_23439" fill="white">
<path d="M1978.83 883.406C1989.88 875.464 2002.47 869.913 2015.79 867.106C2029.12 864.299 2042.87 864.298 2056.2 867.104C2069.52 869.909 2082.11 875.459 2093.17 883.4C2104.22 891.341 2113.5 901.499 2120.42 913.226L2085.37 933.891C2081.33 927.033 2075.9 921.092 2069.43 916.448C2062.96 911.804 2055.6 908.558 2047.81 906.918C2040.02 905.277 2031.97 905.277 2024.18 906.919C2016.39 908.56 2009.03 911.807 2002.56 916.452L1978.83 883.406Z"/>
</mask>
<path d="M1978.83 883.406C1989.88 875.464 2002.47 869.913 2015.79 867.106C2029.12 864.299 2042.87 864.298 2056.2 867.104C2069.52 869.909 2082.11 875.459 2093.17 883.4C2104.22 891.341 2113.5 901.499 2120.42 913.226L2085.37 933.891C2081.33 927.033 2075.9 921.092 2069.43 916.448C2062.96 911.804 2055.6 908.558 2047.81 906.918C2040.02 905.277 2031.97 905.277 2024.18 906.919C2016.39 908.56 2009.03 911.807 2002.56 916.452L1978.83 883.406Z" fill="#EEEEEE" stroke="#AAAAAA" stroke-width="6" mask="url(#path-134-inside-7_3253_23439)"/>
<mask id="path-135-inside-8_3253_23439" fill="white">
<path d="M2421.83 883.406C2432.88 875.464 2445.47 869.913 2458.79 867.106C2472.12 864.299 2485.87 864.298 2499.2 867.104C2512.52 869.909 2525.11 875.459 2536.17 883.4C2547.22 891.341 2556.5 901.499 2563.42 913.226L2528.37 933.891C2524.33 927.033 2518.9 921.092 2512.43 916.448C2505.96 911.804 2498.6 908.558 2490.81 906.918C2483.02 905.277 2474.97 905.277 2467.18 906.919C2459.39 908.56 2452.03 911.807 2445.56 916.452L2421.83 883.406Z"/>
</mask>
<path d="M2421.83 883.406C2432.88 875.464 2445.47 869.913 2458.79 867.106C2472.12 864.299 2485.87 864.298 2499.2 867.104C2512.52 869.909 2525.11 875.459 2536.17 883.4C2547.22 891.341 2556.5 901.499 2563.42 913.226L2528.37 933.891C2524.33 927.033 2518.9 921.092 2512.43 916.448C2505.96 911.804 2498.6 908.558 2490.81 906.918C2483.02 905.277 2474.97 905.277 2467.18 906.919C2459.39 908.56 2452.03 911.807 2445.56 916.452L2421.83 883.406Z" fill="#EEEEEE" stroke="#AAAAAA" stroke-width="6" mask="url(#path-135-inside-8_3253_23439)"/>
<mask id="path-136-inside-9_3253_23439" fill="white">
<path d="M2119.24 911.279C2127.92 925.252 2132.95 941.185 2133.85 957.611C2134.76 974.037 2131.51 990.426 2124.42 1005.27L2087.71 987.719C2091.86 979.039 2093.75 969.454 2093.23 959.848C2092.7 950.242 2089.76 940.924 2084.68 932.752L2119.24 911.279Z"/>
</mask>
<path d="M2119.24 911.279C2127.92 925.252 2132.95 941.185 2133.85 957.611C2134.76 974.037 2131.51 990.426 2124.42 1005.27L2087.71 987.719C2091.86 979.039 2093.75 969.454 2093.23 959.848C2092.7 950.242 2089.76 940.924 2084.68 932.752L2119.24 911.279Z" fill="#F5F5F5" stroke="#AAAAAA" stroke-width="6" mask="url(#path-136-inside-9_3253_23439)"/>
<mask id="path-137-inside-10_3253_23439" fill="white">
<path d="M2562.24 911.279C2570.92 925.252 2575.95 941.185 2576.85 957.611C2577.76 974.037 2574.51 990.426 2567.42 1005.27L2530.71 987.719C2534.86 979.039 2536.75 969.454 2536.23 959.848C2535.7 950.242 2532.76 940.924 2527.68 932.752L2562.24 911.279Z"/>
</mask>
<path d="M2562.24 911.279C2570.92 925.252 2575.95 941.185 2576.85 957.611C2577.76 974.037 2574.51 990.426 2567.42 1005.27L2530.71 987.719C2534.86 979.039 2536.75 969.454 2536.23 959.848C2535.7 950.242 2532.76 940.924 2527.68 932.752L2562.24 911.279Z" fill="#F5F5F5" stroke="#AAAAAA" stroke-width="6" mask="url(#path-137-inside-10_3253_23439)"/>
<rect x="2185.5" y="996.762" width="21.3846" height="4.8" fill="#F5F5F5" stroke="#AAAAAA"/>
<rect x="2628.5" y="996.762" width="21.3846" height="4.8" fill="#F5F5F5" stroke="#AAAAAA"/>
<text fill="#4F4F4F" xml:space="preserve" style="white-space: pre" font-family="Chalkboard" font-size="12" letter-spacing="0em"><tspan x="2217.38" y="1005.18">r/Funshion</tspan></text>
<text fill="#4F4F4F" xml:space="preserve" style="white-space: pre" font-family="Chalkboard" font-size="12" letter-spacing="0em"><tspan x="2660.38" y="1005.18">r/Funshion</tspan></text>
<rect x="2185.5" y="1021.15" width="21" height="5" fill="#EEEEEE" stroke="#AAAAAA"/>
<rect x="2628.5" y="1021.15" width="21" height="5" fill="#EEEEEE" stroke="#AAAAAA"/>
<text fill="#4F4F4F" xml:space="preserve" style="white-space: pre" font-family="Chalkboard" font-size="12" letter-spacing="0em"><tspan x="2217" y="1026.51">r/Sneaker</tspan></text>
<text fill="#4F4F4F" xml:space="preserve" style="white-space: pre" font-family="Chalkboard" font-size="12" letter-spacing="0em"><tspan x="2660" y="1026.51">r/Sneaker</tspan></text>
<rect x="2185.5" y="1042.15" width="21" height="5" fill="#E6E6E6" stroke="#AAAAAA"/>
<rect x="2628.5" y="1042.15" width="21" height="5" fill="#E6E6E6" stroke="#AAAAAA"/>
<text fill="#4F4F4F" xml:space="preserve" style="white-space: pre" font-family="Chalkboard" font-size="12" letter-spacing="0em"><tspan x="2215" y="1047.83">r/Streetwear</tspan></text>
<text fill="#4F4F4F" xml:space="preserve" style="white-space: pre" font-family="Chalkboard" font-size="12" letter-spacing="0em"><tspan x="2658" y="1047.83">r/Streetwear</tspan></text>
<text fill="#DEB650" xml:space="preserve" style="white-space: pre" font-family="Chalkboard" font-size="32" letter-spacing="0em"><tspan x="2583" y="1235.16">Link to reddite post</tspan></text>
</g>
<rect width="145" height="53" transform="translate(1601 43)" fill="#605DEC"/>
<text fill="white" xml:space="preserve" style="white-space: pre" font-family="Roboto" font-size="18" font-weight="500" letter-spacing="0em"><tspan x="1633" y="75.6523">Dashboad</tspan></text>
<rect width="176" height="53" transform="translate(144 43)" fill="#605DEC"/>
<text fill="white" xml:space="preserve" style="white-space: pre" font-family="Roboto" font-size="18" font-weight="500" letter-spacing="0em"><tspan x="176" y="75.6523">Edit keywords</tspan></text>
<defs>
<filter id="filter0_i_3253_23439" x="146" y="228" width="191" height="48" filterUnits="userSpaceOnUse" color-interpolation-filters="sRGB">
<feFlood flood-opacity="0" result="BackgroundImageFix"/>
<feBlend mode="normal" in="SourceGraphic" in2="BackgroundImageFix" result="shape"/>
<feColorMatrix in="SourceAlpha" type="matrix" values="0 0 0 0 0 0 0 0 0 0 0 0 0 0 0 0 0 0 127 0" result="hardAlpha"/>
<feOffset dx="2"/>
<feComposite in2="hardAlpha" operator="arithmetic" k2="-1" k3="1"/>
<feColorMatrix type="matrix" values="0 0 0 0 0.2 0 0 0 0 0.2 0 0 0 0 0.2 0 0 0 1 0"/>
<feBlend mode="normal" in2="shape" result="effect1_innerShadow_3253_23439"/>
</filter>
<filter id="filter1_d_3253_23439" x="142" y="100" width="1288" height="88" filterUnits="userSpaceOnUse" color-interpolation-filters="sRGB">
<feFlood flood-opacity="0" result="BackgroundImageFix"/>
<feColorMatrix in="SourceAlpha" type="matrix" values="0 0 0 0 0 0 0 0 0 0 0 0 0 0 0 0 0 0 127 0" result="hardAlpha"/>
<feOffset dy="4"/>
<feGaussianBlur stdDeviation="2"/>
<feComposite in2="hardAlpha" operator="out"/>
<feColorMatrix type="matrix" values="0 0 0 0 0 0 0 0 0 0 0 0 0 0 0 0 0 0 0.1 0"/>
<feBlend mode="normal" in2="BackgroundImageFix" result="effect1_dropShadow_3253_23439"/>
<feBlend mode="normal" in="SourceGraphic" in2="effect1_dropShadow_3253_23439" result="shape"/>
</filter>
<filter id="filter2_i_3253_23439" x="1601" y="228" width="191" height="48" filterUnits="userSpaceOnUse" color-interpolation-filters="sRGB">
<feFlood flood-opacity="0" result="BackgroundImageFix"/>
<feBlend mode="normal" in="SourceGraphic" in2="BackgroundImageFix" result="shape"/>
<feColorMatrix in="SourceAlpha" type="matrix" values="0 0 0 0 0 0 0 0 0 0 0 0 0 0 0 0 0 0 127 0" result="hardAlpha"/>
<feOffset dx="2"/>
<feComposite in2="hardAlpha" operator="arithmetic" k2="-1" k3="1"/>
<feColorMatrix type="matrix" values="0 0 0 0 0.2 0 0 0 0 0.2 0 0 0 0 0.2 0 0 0 1 0"/>
<feBlend mode="normal" in2="shape" result="effect1_innerShadow_3253_23439"/>
</filter>
<filter id="filter3_d_3253_23439" x="1597" y="100" width="1288" height="88" filterUnits="userSpaceOnUse" color-interpolation-filters="sRGB">
<feFlood flood-opacity="0" result="BackgroundImageFix"/>
<feColorMatrix in="SourceAlpha" type="matrix" values="0 0 0 0 0 0 0 0 0 0 0 0 0 0 0 0 0 0 127 0" result="hardAlpha"/>
<feOffset dy="4"/>
<feGaussianBlur stdDeviation="2"/>
<feComposite in2="hardAlpha" operator="out"/>
<feColorMatrix type="matrix" values="0 0 0 0 0 0 0 0 0 0 0 0 0 0 0 0 0 0 0.1 0"/>
<feBlend mode="normal" in2="BackgroundImageFix" result="effect1_dropShadow_3253_23439"/>
<feBlend mode="normal" in="SourceGraphic" in2="effect1_dropShadow_3253_23439" result="shape"/>
</filter>
<clipPath id="clip0_3253_23439">
<rect width="1280" height="720" fill="white" transform="translate(146 100)"/>
</clipPath>
<clipPath id="clip1_3253_23439">
<rect width="1280" height="1302" fill="white" transform="translate(1601 100)"/>
</clipPath>
<clipPath id="clip2_3253_23439">
<rect width="570" height="20" fill="white" transform="translate(1908 1192)"/>
</clipPath>
<clipPath id="clip3_3253_23439">
<rect width="734" height="20" fill="white" transform="translate(1908 1221)"/>
</clipPath>
<clipPath id="clip4_3253_23439">
<rect width="738" height="20" fill="white" transform="translate(1908 1250)"/>
</clipPath>
<clipPath id="clip5_3253_23439">
<rect width="741" height="20" fill="white" transform="translate(1908 1279)"/>
</clipPath>
<clipPath id="clip6_3253_23439">
<rect width="738" height="20" fill="white" transform="translate(1908 1308)"/>
</clipPath>
<clipPath id="clip7_3253_23439">
<rect width="697" height="20" fill="white" transform="translate(1908 1337)"/>
</clipPath>
<clipPath id="clip8_3253_23439">
<rect width="601" height="20" fill="white" transform="translate(1908 1366)"/>
</clipPath>
</defs>
</svg>
