<svg width="1680" height="733" viewBox="0 0 1680 733" fill="none" xmlns="http://www.w3.org/2000/svg">
<g clip-path="url(#clip0_258_1000)">
<rect x="322" y="320" width="258" height="177" rx="4" fill="#F6F6FE"/>
<rect x="788" y="320" width="324" height="195" rx="4" fill="#F6F6FE"/>
<rect x="1310" y="320" width="351" height="124" rx="4" fill="#F6F6FE"/>
<text fill="#55479F" xml:space="preserve" style="white-space: pre" font-family="Nunito Sans" font-size="18" font-weight="600" letter-spacing="0em"><tspan x="347" y="202.422">Set keywords</tspan></text>
<text fill="#55479F" xml:space="preserve" style="white-space: pre" font-family="Nunito Sans" font-size="18" font-weight="600" letter-spacing="0em"><tspan x="347" y="357.422">Set keywords</tspan></text>
<text fill="#55479F" xml:space="preserve" style="white-space: pre" font-family="Nunito Sans" font-size="18" font-weight="600" letter-spacing="0em"><tspan x="347" y="386.422">Add keywords</tspan></text>
<text fill="#55479F" xml:space="preserve" style="white-space: pre" font-family="Nunito Sans" font-size="18" font-weight="600" letter-spacing="0em"><tspan x="347" y="415.422">Search keywords</tspan></text>
<text fill="#55479F" xml:space="preserve" style="white-space: pre" font-family="Nunito Sans" font-size="18" font-weight="600" letter-spacing="0em"><tspan x="347" y="444.422">New feed of the keywords</tspan></text>
<text fill="#55479F" xml:space="preserve" style="white-space: pre" font-family="Nunito Sans" font-size="18" font-weight="600" letter-spacing="0em"><tspan x="347" y="473.422">Organized keywords</tspan></text>
<text fill="#55479F" xml:space="preserve" style="white-space: pre" font-family="Nunito Sans" font-size="18" font-weight="600" letter-spacing="0em"><tspan x="816" y="202.422">Post type</tspan></text>
<text fill="#55479F" xml:space="preserve" style="white-space: pre" font-family="Nunito Sans" font-size="18" font-weight="600" letter-spacing="0em"><tspan x="816" y="231.422">Sentiment</tspan></text>
<text fill="#55479F" xml:space="preserve" style="white-space: pre" font-family="Nunito Sans" font-size="18" font-weight="600" letter-spacing="0em" text-decoration="line-through"><tspan x="816" y="260.422">Select social media</tspan></text>
<text fill="#55479F" xml:space="preserve" style="white-space: pre" font-family="Nunito Sans" font-size="18" font-weight="600" letter-spacing="0em"><tspan x="816" y="289.422">For Reddit only</tspan></text>
<text fill="#55479F" xml:space="preserve" style="white-space: pre" font-family="Nunito Sans" font-size="18" font-weight="600" letter-spacing="0em"><tspan x="816" y="357.422">Filter with date range</tspan></text>
<text fill="#55479F" xml:space="preserve" style="white-space: pre" font-family="Nunito Sans" font-size="18" font-weight="600" letter-spacing="0em"><tspan x="816" y="386.422">Sort - data table&#10;</tspan><tspan x="843" y="411.422">Conmmunity&#10;</tspan><tspan x="843" y="436.422">Upvote ratio&#10;</tspan><tspan x="843" y="461.422">Sentiment score</tspan></text>
<text fill="#55479F" xml:space="preserve" style="white-space: pre" font-family="Nunito Sans" font-size="18" font-weight="600" letter-spacing="0em"><tspan x="973.184" y="490.422"> Reddit only</tspan></text>
<text fill="#55479F" xml:space="preserve" style="white-space: pre" font-family="Nunito Sans" font-size="18" font-weight="600" letter-spacing="0em" text-decoration="line-through"><tspan x="816" y="490.422">Select social media</tspan></text>
<text fill="#55479F" xml:space="preserve" style="white-space: pre" font-family="Nunito Sans" font-size="18" font-weight="600" letter-spacing="0em"><tspan x="1342" y="202.422">Adjust settings</tspan></text>
<text fill="#55479F" xml:space="preserve" style="white-space: pre" font-family="Nunito Sans" font-size="18" font-weight="600" letter-spacing="0em"><tspan x="1342" y="231.422">Compare</tspan></text>
<text fill="#55479F" xml:space="preserve" style="white-space: pre" font-family="Nunito Sans" font-size="18" font-weight="600" letter-spacing="0em"><tspan x="1342" y="357.422">Adjust settings</tspan></text>
<text fill="#55479F" xml:space="preserve" style="white-space: pre" font-family="Nunito Sans" font-size="18" font-weight="600" letter-spacing="0em" text-decoration="line-through"><tspan x="1342" y="386.422">Compare,</tspan></text>
<text fill="#55479F" xml:space="preserve" style="white-space: pre" font-family="Nunito Sans" font-size="18" font-weight="600" letter-spacing="0em"><tspan x="1420.13" y="386.422"> will have it in 2.0&#10;</tspan><tspan x="1342" y="411.422">Open multiple windows to compare</tspan></text>
<rect width="198" height="53" transform="translate(0 170)" fill="#55479F"/>
<text fill="white" xml:space="preserve" style="white-space: pre" font-family="Nunito Sans" font-size="24" font-weight="600" letter-spacing="0em"><tspan x="4.5" y="204.396">Previous solution</tspan></text>
<rect width="198" height="53" transform="translate(0 373)" fill="#55479F"/>
<text fill="white" xml:space="preserve" style="white-space: pre" font-family="Nunito Sans" font-size="24" font-weight="600" letter-spacing="0em"><tspan x="11.5" y="407.396">Update solution</tspan></text>
<rect width="198" height="53" transform="translate(0 563)" fill="#55479F"/>
<text fill="white" xml:space="preserve" style="white-space: pre" font-family="Nunito Sans" font-size="24" font-weight="600" letter-spacing="0em"><tspan x="38" y="597.396">Pain points</tspan></text>
<rect width="198" height="53" transform="translate(0 668)" fill="#55479F"/>
<text fill="white" xml:space="preserve" style="white-space: pre" font-family="Nunito Sans" font-size="24" font-weight="600" letter-spacing="0em"><tspan x="53.5" y="702.396">Emotion</tspan></text>
<text fill="#55479F" xml:space="preserve" style="white-space: pre" font-family="Nunito Sans" font-size="18" font-weight="600" letter-spacing="0em"><tspan x="349" y="581.422">Looking for example for </tspan><tspan x="349" y="606.422">setting up keywords</tspan></text>
<text fill="#55479F" xml:space="preserve" style="white-space: pre" font-family="Nunito Sans" font-size="18" font-weight="600" letter-spacing="0em"><tspan x="815" y="581.422">Not sure do I need to focus </tspan><tspan x="815" y="606.422">on social media or many</tspan></text>
<text fill="#55479F" xml:space="preserve" style="white-space: pre" font-family="Nunito Sans" font-size="18" font-weight="600" letter-spacing="0em"><tspan x="1369" y="581.422">How to adjust the filter in order to </tspan><tspan x="1369" y="606.422">achive a better result</tspan></text>
<path d="M578 86C575.239 86 573 88.2386 573 91C573 93.7614 575.239 96 578 96V86ZM746.536 94.5355C748.488 92.5829 748.488 89.4171 746.536 87.4645L714.716 55.6447C712.763 53.692 709.597 53.692 707.645 55.6447C705.692 57.5973 705.692 60.7631 707.645 62.7157L735.929 91L707.645 119.284C705.692 121.237 705.692 124.403 707.645 126.355C709.597 128.308 712.763 128.308 714.716 126.355L746.536 94.5355ZM578 96H743V86H578V96Z" fill="#E9E8FC"/>
<path d="M660 172V700" stroke="#E9E8FC" stroke-width="8" stroke-linecap="round"/>
<path d="M1217 207L1217 700" stroke="#E9E8FC" stroke-width="8" stroke-linecap="round"/>
<path d="M902.962 63.0291C900.768 64.7072 900.351 67.8454 902.029 70.0385C903.707 72.2315 906.845 72.649 909.038 70.9709L902.962 63.0291ZM1428.7 71.9909C1431.45 72.1575 1433.82 70.058 1433.99 67.3016L1436.71 22.3836C1436.87 19.6272 1434.77 17.2577 1432.02 17.0911C1429.26 16.9245 1426.89 19.0239 1426.72 21.7803L1424.31 61.7075L1384.38 59.2944C1381.63 59.1278 1379.26 61.2272 1379.09 63.9836C1378.92 66.74 1381.02 69.1095 1383.78 69.2761L1428.7 71.9909ZM909.038 70.9709C941.446 46.1727 1025.97 5 1176.88 5V-5C1024.24 -5 937.449 36.6398 902.962 63.0291L909.038 70.9709ZM1176.88 5C1252.35 5 1308.76 14.8327 1349.19 27.9599C1389.72 41.119 1413.89 57.49 1425.26 70.3158L1432.74 63.6842C1419.78 49.0549 1393.79 31.9259 1352.28 18.4487C1310.67 4.93972 1253.19 -5 1176.88 -5V5Z" fill="#E9E8FC"/>
<path d="M1432.22 118.826C1434.33 117.047 1434.6 113.893 1432.83 111.78C1431.05 109.668 1427.89 109.396 1425.78 111.174L1432.22 118.826ZM906.539 110.029C903.794 109.731 901.327 111.716 901.029 114.461L896.178 159.199C895.88 161.944 897.864 164.411 900.61 164.709C903.355 165.006 905.822 163.022 906.119 160.277L910.432 120.51L950.199 124.822C952.944 125.12 955.411 123.136 955.709 120.39C956.006 117.645 954.022 115.178 951.277 114.881L906.539 110.029ZM1425.78 111.174C1390.47 140.89 1315.48 177 1164.46 177L1164.46 187C1316.99 187 1394.55 150.527 1432.22 118.826L1425.78 111.174ZM1164.46 177C1088.96 177 1030.93 167.855 988.892 155.058C946.676 142.206 921.137 125.841 909.896 111.866L902.104 118.134C915.189 134.402 942.991 151.537 985.98 164.624C1029.15 177.766 1088.19 187 1164.46 187L1164.46 177Z" fill="#E9E8FC"/>
<path d="M828 726.5C833.523 726.5 838 722.023 838 716.5C838 710.977 833.523 706.5 828 706.5C822.477 706.5 818 710.977 818 716.5C818 722.023 822.477 726.5 828 726.5Z" stroke="#605DEC" stroke-width="2" stroke-linecap="round" stroke-linejoin="round"/>
<path d="M832 720.5C832 720.5 830.5 718.5 828 718.5C825.5 718.5 824 720.5 824 720.5" stroke="#605DEC" stroke-width="2" stroke-linecap="round" stroke-linejoin="round"/>
<path d="M825 713.5H825.01" stroke="#605DEC" stroke-width="2" stroke-linecap="round" stroke-linejoin="round"/>
<path d="M831 713.5H831.01" stroke="#605DEC" stroke-width="2" stroke-linecap="round" stroke-linejoin="round"/>
<text fill="#55479F" xml:space="preserve" style="white-space: pre" font-family="Nunito Sans" font-size="24" font-weight="600" letter-spacing="0em"><tspan x="856.176" y="724.396">Overwhelmed</tspan></text>
<path d="M359 726.5C364.523 726.5 369 722.023 369 716.5C369 710.977 364.523 706.5 359 706.5C353.477 706.5 349 710.977 349 716.5C349 722.023 353.477 726.5 359 726.5Z" stroke="#605DEC" stroke-width="2" stroke-linecap="round" stroke-linejoin="round"/>
<path d="M363 720.5C363 720.5 361.5 718.5 359 718.5C356.5 718.5 355 720.5 355 720.5" stroke="#605DEC" stroke-width="2" stroke-linecap="round" stroke-linejoin="round"/>
<path d="M356 713.5H356.01" stroke="#605DEC" stroke-width="2" stroke-linecap="round" stroke-linejoin="round"/>
<path d="M362 713.5H362.01" stroke="#605DEC" stroke-width="2" stroke-linecap="round" stroke-linejoin="round"/>
<text fill="#55479F" xml:space="preserve" style="white-space: pre" font-family="Nunito Sans" font-size="24" font-weight="600" letter-spacing="0em"><tspan x="387.016" y="724.396">Lost</tspan></text>
<path d="M1354 726.5C1359.52 726.5 1364 722.023 1364 716.5C1364 710.977 1359.52 706.5 1354 706.5C1348.48 706.5 1344 710.977 1344 716.5C1344 722.023 1348.48 726.5 1354 726.5Z" stroke="#605DEC" stroke-width="2" stroke-linecap="round" stroke-linejoin="round"/>
<path d="M1350 719.5H1358" stroke="#605DEC" stroke-width="2" stroke-linecap="round" stroke-linejoin="round"/>
<path d="M1351 713.5H1351.01" stroke="#605DEC" stroke-width="2" stroke-linecap="round" stroke-linejoin="round"/>
<path d="M1357 713.5H1357.01" stroke="#605DEC" stroke-width="2" stroke-linecap="round" stroke-linejoin="round"/>
<text fill="#55479F" xml:space="preserve" style="white-space: pre" font-family="Nunito Sans" font-size="24" font-weight="600" letter-spacing="0em"><tspan x="1382.02" y="724.396">Lost</tspan></text>
<path d="M828 685.5C833.523 685.5 838 681.023 838 675.5C838 669.977 833.523 665.5 828 665.5C822.477 665.5 818 669.977 818 675.5C818 681.023 822.477 685.5 828 685.5Z" stroke="#605DEC" stroke-width="2" stroke-linecap="round" stroke-linejoin="round"/>
<path d="M824 677.5C824 677.5 825.5 679.5 828 679.5C830.5 679.5 832 677.5 832 677.5" stroke="#605DEC" stroke-width="2" stroke-linecap="round" stroke-linejoin="round"/>
<path d="M825 672.5H825.01" stroke="#605DEC" stroke-width="2" stroke-linecap="round" stroke-linejoin="round"/>
<path d="M831 672.5H831.01" stroke="#605DEC" stroke-width="2" stroke-linecap="round" stroke-linejoin="round"/>
<text fill="#55479F" xml:space="preserve" style="white-space: pre" font-family="Nunito Sans" font-size="24" font-weight="600" letter-spacing="0em"><tspan x="856.332" y="683.396">Hopeful</tspan></text>
<path d="M1354 685.5C1359.52 685.5 1364 681.023 1364 675.5C1364 669.977 1359.52 665.5 1354 665.5C1348.48 665.5 1344 669.977 1344 675.5C1344 681.023 1348.48 685.5 1354 685.5Z" stroke="#605DEC" stroke-width="2" stroke-linecap="round" stroke-linejoin="round"/>
<path d="M1350 677.5C1350 677.5 1351.5 679.5 1354 679.5C1356.5 679.5 1358 677.5 1358 677.5" stroke="#605DEC" stroke-width="2" stroke-linecap="round" stroke-linejoin="round"/>
<path d="M1351 672.5H1351.01" stroke="#605DEC" stroke-width="2" stroke-linecap="round" stroke-linejoin="round"/>
<path d="M1357 672.5H1357.01" stroke="#605DEC" stroke-width="2" stroke-linecap="round" stroke-linejoin="round"/>
<text fill="#55479F" xml:space="preserve" style="white-space: pre" font-family="Nunito Sans" font-size="24" font-weight="600" letter-spacing="0em"><tspan x="1382.46" y="683.396">Satisfied</tspan></text>
<path d="M359 685.5C364.523 685.5 369 681.023 369 675.5C369 669.977 364.523 665.5 359 665.5C353.477 665.5 349 669.977 349 675.5C349 681.023 353.477 685.5 359 685.5Z" stroke="#605DEC" stroke-width="2" stroke-linecap="round" stroke-linejoin="round"/>
<path d="M355 677.5C355 677.5 356.5 679.5 359 679.5C361.5 679.5 363 677.5 363 677.5" stroke="#605DEC" stroke-width="2" stroke-linecap="round" stroke-linejoin="round"/>
<path d="M356 672.5H356.01" stroke="#605DEC" stroke-width="2" stroke-linecap="round" stroke-linejoin="round"/>
<path d="M362 672.5H362.01" stroke="#605DEC" stroke-width="2" stroke-linecap="round" stroke-linejoin="round"/>
<text fill="#55479F" xml:space="preserve" style="white-space: pre" font-family="Nunito Sans" font-size="24" font-weight="600" letter-spacing="0em"><tspan x="387.285" y="683.396">Excited</tspan></text>
<text fill="#55479F" xml:space="preserve" style="white-space: pre" font-family="Roboto" font-size="52" font-weight="500" letter-spacing="0em"><tspan x="392.445" y="53.2734">01</tspan></text>
<text fill="#55479F" xml:space="preserve" style="white-space: pre" font-family="Nunito Sans" font-size="32" font-weight="600" letter-spacing="0em"><tspan x="349.156" y="98.528">Keywords</tspan></text>
<text fill="#55479F" xml:space="preserve" style="white-space: pre" font-family="Roboto" font-size="52" font-weight="500" letter-spacing="0em"><tspan x="869.445" y="53.2734">02</tspan></text>
<text fill="#55479F" xml:space="preserve" style="white-space: pre" font-family="Nunito Sans" font-size="32" font-weight="600" letter-spacing="0em"><tspan x="861.203" y="98.528">Filter</tspan></text>
<text fill="#55479F" xml:space="preserve" style="white-space: pre" font-family="Roboto" font-size="52" font-weight="500" letter-spacing="0em"><tspan x="1435.95" y="53.2734">03</tspan></text>
<text fill="#55479F" xml:space="preserve" style="white-space: pre" font-family="Nunito Sans" font-size="32" font-weight="600" letter-spacing="0em"><tspan x="1411.09" y="98.528">Results</tspan></text>
</g>
<defs>
<clipPath id="clip0_258_1000">
<rect width="1680" height="733" fill="white"/>
</clipPath>
</defs>
</svg>
