<svg width="32" height="32" viewBox="0 0 32 32" fill="none" xmlns="http://www.w3.org/2000/svg">
<path fill-rule="evenodd" clip-rule="evenodd" d="M10.9155 4H7.42211C5.53053 4 4 5.54381 4 7.44485V10.9686C4 12.8688 5.53085 14.4134 7.42211 14.4134H10.9155C12.8068 14.4134 14.3376 12.8688 14.3376 10.9686V7.44485C14.3376 5.54381 12.8071 4 10.9155 4ZM7.42188 5.60465H10.9153C11.9175 5.60465 12.7327 6.42694 12.7327 7.44485V10.9686C12.7327 11.9858 11.9171 12.8088 10.9153 12.8088H7.42188C6.42007 12.8088 5.60443 11.9858 5.60443 10.9686V7.44485C5.60443 6.42694 6.41964 5.60465 7.42188 5.60465ZM23.579 4.00003H20.0845C18.1929 4.00003 16.6624 5.54385 16.6624 7.44488V10.9686C16.6624 12.8689 18.1932 14.4135 20.0845 14.4135H23.579C25.4693 14.4135 27 12.8687 27 10.9686V7.44488C27 5.54407 25.4697 4.00003 23.579 4.00003ZM20.0847 5.60468H23.5792C24.5805 5.60468 25.3956 6.4271 25.3956 7.44488V10.9686C25.3956 11.9857 24.5801 12.8088 23.5792 12.8088H20.0847C19.0829 12.8088 18.2673 11.9858 18.2673 10.9686V7.44488C18.2673 6.42698 19.0825 5.60468 20.0847 5.60468ZM7.42211 16.5866H10.9155C12.8073 16.5866 14.3376 18.1307 14.3376 20.0326V23.5552C14.3376 25.4563 12.8071 27.0001 10.9155 27.0001H7.42211C5.53053 27.0001 4 25.4563 4 23.5552V20.0326C4 18.1307 5.5303 16.5866 7.42211 16.5866ZM10.9153 18.1913H7.42188C6.41953 18.1913 5.60443 19.0137 5.60443 20.0326V23.5552C5.60443 24.5731 6.41964 25.3954 7.42188 25.3954H10.9153C11.9175 25.3954 12.7327 24.5731 12.7327 23.5552V20.0326C12.7327 19.0137 11.9176 18.1913 10.9153 18.1913ZM23.579 16.5866H20.0845C18.1927 16.5866 16.6624 18.1307 16.6624 20.0326V23.5552C16.6624 25.4563 18.1929 27.0001 20.0845 27.0001H23.579C25.4697 27.0001 27 25.456 27 23.5552V20.0326C27 18.1309 25.4699 16.5866 23.579 16.5866ZM20.0847 18.1913H23.5792C24.5806 18.1913 25.3956 19.0138 25.3956 20.0326V23.5552C25.3956 24.573 24.5805 25.3954 23.5792 25.3954H20.0847C19.0825 25.3954 18.2673 24.5731 18.2673 23.5552V20.0326C18.2673 19.0137 19.0824 18.1913 20.0847 18.1913Z" fill="#505050"/>
</svg>
