<svg width="32" height="32" viewBox="0 0 32 32" fill="none" xmlns="http://www.w3.org/2000/svg">
<path fill-rule="evenodd" clip-rule="evenodd" d="M11.6148 5H8.27332C6.46398 5 5 6.47669 5 8.29507V11.6656C5 13.4832 6.46429 14.9607 8.27332 14.9607H11.6148C13.4239 14.9607 14.8882 13.4832 14.8882 11.6656V8.29507C14.8882 6.47669 13.4242 5 11.6148 5ZM8.27321 6.53487H11.6147C12.5734 6.53487 13.3532 7.32141 13.3532 8.29506V11.6656C13.3532 12.6386 12.573 13.4258 11.6147 13.4258H8.27321C7.31496 13.4258 6.53478 12.6386 6.53478 11.6656V8.29506C6.53478 7.32141 7.31455 6.53487 8.27321 6.53487ZM23.7277 5.00003H20.3852C18.5758 5.00003 17.1118 6.47672 17.1118 8.2951V11.6656C17.1118 13.4833 18.5761 14.9607 20.3852 14.9607H23.7277C25.5359 14.9607 27 13.4831 27 11.6656V8.2951C27 6.47693 25.5362 5.00003 23.7277 5.00003ZM20.3854 6.5349H23.7279C24.6856 6.5349 25.4653 7.32155 25.4653 8.29509V11.6656C25.4653 12.6385 24.6852 13.4258 23.7279 13.4258H20.3854C19.4271 13.4258 18.6469 12.6386 18.6469 11.6656V8.29509C18.6469 7.32144 19.4267 6.5349 20.3854 6.5349ZM8.27332 17.0394H11.6148C13.4244 17.0394 14.8882 18.5163 14.8882 20.3355V23.705C14.8882 25.5234 13.4242 27.0001 11.6148 27.0001H8.27332C6.46398 27.0001 5 25.5234 5 23.705V20.3355C5 18.5163 6.46377 17.0394 8.27332 17.0394ZM11.6147 18.5743H8.27321C7.31444 18.5743 6.53478 19.3609 6.53478 20.3355V23.705C6.53478 24.6786 7.31455 25.4652 8.27321 25.4652H11.6147C12.5734 25.4652 13.3532 24.6786 13.3532 23.705V20.3355C13.3532 19.3609 12.5735 18.5743 11.6147 18.5743ZM23.7277 17.0394H20.3852C18.5756 17.0394 17.1118 18.5163 17.1118 20.3355V23.705C17.1118 25.5234 18.5758 27.0001 20.3852 27.0001H23.7277C25.5362 27.0001 27 25.5232 27 23.705V20.3355C27 18.5165 25.5364 17.0394 23.7277 17.0394ZM20.3854 18.5743H23.7279C24.6858 18.5743 25.4653 19.361 25.4653 20.3355V23.705C25.4653 24.6785 24.6856 25.4652 23.7279 25.4652H20.3854C19.4267 25.4652 18.6469 24.6786 18.6469 23.705V20.3355C18.6469 19.3609 19.4266 18.5743 20.3854 18.5743Z" fill="#505050"/>
</svg>
