<svg width="32" height="32" viewBox="0 0 32 32" fill="none" xmlns="http://www.w3.org/2000/svg">
<path fill-rule="evenodd" clip-rule="evenodd" d="M21.4509 14.7174L17.0214 11.6262V6.65331L25.0268 12.2219L21.4509 14.7174ZM23.2886 16L25.845 14.2159V17.7839L23.2886 16ZM17.0214 20.3739L21.4509 17.2827L25.0268 19.7782L17.0214 25.3468V20.3739ZM10.549 17.2827L14.9785 20.3739V25.3468L6.97346 19.7782L10.549 17.2827ZM8.71122 16L6.15515 17.7839V14.2159L8.71122 16ZM14.9785 11.6262L10.549 14.7174L6.97346 12.2219L14.9785 6.65331V11.6262ZM16.0001 18.5219L12.3865 16L16.0001 13.4778L19.6138 16L16.0001 18.5219ZM27.8708 12.0351C27.8654 12.0047 27.8606 11.975 27.8529 11.9456C27.8481 11.9279 27.8423 11.9112 27.8369 11.8938C27.8289 11.8678 27.8209 11.8417 27.8106 11.816C27.8036 11.7986 27.7956 11.7812 27.7879 11.7642C27.777 11.7401 27.7658 11.7164 27.753 11.6933C27.7437 11.6763 27.7338 11.6603 27.7239 11.6439C27.7101 11.6218 27.696 11.6001 27.6806 11.5791C27.6694 11.5637 27.6579 11.5483 27.6457 11.5333C27.6297 11.5133 27.6124 11.4942 27.5948 11.4755C27.5814 11.4611 27.5679 11.4471 27.5541 11.4337C27.5356 11.4164 27.516 11.3997 27.4962 11.3833C27.4808 11.3709 27.4658 11.3582 27.4498 11.3469C27.4443 11.3425 27.4389 11.3375 27.4331 11.3335L16.5665 3.77426C16.2236 3.53537 15.7763 3.53537 15.4333 3.77426L4.56705 11.3335C4.56097 11.3375 4.55584 11.3425 4.55008 11.3469C4.53407 11.3582 4.51902 11.3709 4.50365 11.3833C4.48412 11.3997 4.46427 11.4164 4.44602 11.4337C4.43193 11.4471 4.41848 11.4611 4.40535 11.4755C4.38742 11.4942 4.37045 11.5133 4.35412 11.5333C4.34196 11.5483 4.33043 11.5637 4.31922 11.5791C4.30385 11.6001 4.28977 11.6218 4.276 11.6439C4.26607 11.6603 4.25615 11.6763 4.24718 11.6933C4.23405 11.7164 4.22285 11.7401 4.21228 11.7642C4.2046 11.7812 4.19627 11.7986 4.18955 11.816C4.17962 11.8417 4.17098 11.8678 4.16297 11.8938C4.15753 11.9112 4.15176 11.9279 4.14728 11.9456C4.13992 11.975 4.13447 12.0047 4.12935 12.0351C4.12679 12.0505 4.12327 12.0655 4.12103 12.0809C4.11526 12.127 4.11206 12.1735 4.11206 12.2202V19.7795C4.11206 19.8266 4.11526 19.8727 4.12103 19.9188C4.12327 19.9345 4.12679 19.9496 4.12935 19.9649C4.13447 19.9947 4.13992 20.0247 4.14728 20.0541C4.15176 20.0718 4.15753 20.0889 4.16297 20.1059C4.17098 20.1323 4.17962 20.1584 4.18955 20.1841C4.19627 20.2018 4.2046 20.2185 4.21228 20.2355C4.22285 20.2596 4.23405 20.2833 4.24718 20.3067C4.25615 20.3234 4.26607 20.3398 4.276 20.3555C4.28977 20.3779 4.30385 20.3993 4.31922 20.4206C4.33043 20.4367 4.34196 20.4517 4.35412 20.4668C4.37045 20.4865 4.38742 20.5058 4.40535 20.5242C4.41848 20.5383 4.43193 20.5526 4.44602 20.5657C4.46427 20.5834 4.48412 20.6004 4.50365 20.6168C4.51902 20.6291 4.53407 20.6415 4.55008 20.6532C4.55584 20.6575 4.56097 20.6622 4.56705 20.6662L15.4333 28.2255C15.605 28.3451 15.8022 28.4049 16.0001 28.4049C16.1976 28.4049 16.3952 28.3451 16.5665 28.2255L27.4331 20.6662C27.4389 20.6622 27.4443 20.6575 27.4498 20.6532C27.4658 20.6415 27.4808 20.6291 27.4962 20.6168C27.516 20.6004 27.5356 20.5834 27.5541 20.5657C27.5679 20.5526 27.5814 20.5383 27.5948 20.5242C27.6124 20.5058 27.6297 20.4865 27.6457 20.4668C27.6579 20.4517 27.6694 20.4367 27.6806 20.4206C27.696 20.3993 27.7101 20.3779 27.7239 20.3555C27.7338 20.3398 27.7437 20.3234 27.753 20.3067C27.7658 20.2833 27.777 20.2596 27.7879 20.2355C27.7956 20.2185 27.8036 20.2018 27.8106 20.1841C27.8209 20.1584 27.8289 20.1323 27.8369 20.1059C27.8423 20.0889 27.8481 20.0718 27.8529 20.0541C27.8606 20.0247 27.8654 19.9947 27.8708 19.9649C27.8734 19.9496 27.8769 19.9345 27.8788 19.9188C27.8846 19.8727 27.8881 19.8266 27.8881 19.7795V12.2202C27.8881 12.1735 27.8846 12.127 27.8788 12.0809C27.8769 12.0655 27.8734 12.0505 27.8708 12.0351Z" fill="#505050"/>
<path d="M21.4509 14.7174L21.2506 15.0044L21.4509 15.1442L21.6512 15.0044L21.4509 14.7174ZM17.0214 11.6262H16.6714V11.8088L16.8211 11.9132L17.0214 11.6262ZM17.0214 6.65331L17.2213 6.36599L16.6714 5.9835V6.65331H17.0214ZM25.0268 12.2219L25.2271 12.5089L25.6391 12.2215L25.2267 11.9346L25.0268 12.2219ZM23.2886 16L23.0883 15.713L22.6771 16.0001L23.0884 16.2871L23.2886 16ZM25.845 14.2159H26.195V13.5448L25.6447 13.9289L25.845 14.2159ZM25.845 17.7839L25.6448 18.0709L26.195 18.4549V17.7839H25.845ZM17.0214 20.3739L16.8211 20.0869L16.6714 20.1913V20.3739H17.0214ZM21.4509 17.2827L21.6512 16.9957L21.4509 16.8559L21.2506 16.9957L21.4509 17.2827ZM25.0268 19.7782L25.2267 20.0655L25.6391 19.7786L25.2271 19.4911L25.0268 19.7782ZM17.0214 25.3468H16.6714V26.0166L17.2213 25.6341L17.0214 25.3468ZM10.549 17.2827L10.7493 16.9957L10.549 16.8559L10.3487 16.9957L10.549 17.2827ZM14.9785 20.3739H15.3285V20.1913L15.1788 20.0869L14.9785 20.3739ZM14.9785 25.3468L14.7787 25.6341L15.3285 26.0166V25.3468H14.9785ZM6.97346 19.7782L6.77314 19.4912L6.36123 19.7786L6.77359 20.0655L6.97346 19.7782ZM8.71122 16L8.91153 16.2871L9.32276 16.0001L8.91155 15.713L8.71122 16ZM6.15515 17.7839H5.80515V18.4549L6.35545 18.0709L6.15515 17.7839ZM6.15515 14.2159L6.35547 13.9289L5.80515 13.5448V14.2159H6.15515ZM14.9785 11.6262L15.1788 11.9132L15.3285 11.8088V11.6262H14.9785ZM10.549 14.7174L10.3487 15.0044L10.549 15.1442L10.7493 15.0044L10.549 14.7174ZM6.97346 12.2219L6.77359 11.9346L6.36123 12.2215L6.77314 12.5089L6.97346 12.2219ZM14.9785 6.65331H15.3285V5.98348L14.7787 6.36599L14.9785 6.65331ZM16.0001 18.5219L15.7998 18.8089L16.0001 18.9487L16.2004 18.8089L16.0001 18.5219ZM12.3865 16L12.1861 15.713L11.7749 16.0001L12.1862 16.2871L12.3865 16ZM16.0001 13.4778L16.2005 13.1908L16.0001 13.051L15.7998 13.1908L16.0001 13.4778ZM19.6138 16L19.8141 16.2871L20.2254 16.0001L19.8141 15.713L19.6138 16ZM27.8708 12.0351L28.2161 11.9776L28.2153 11.9735L27.8708 12.0351ZM27.8529 11.9456L28.1915 11.8571L28.1907 11.854L27.8529 11.9456ZM27.8369 11.8938L27.5023 11.9966L27.5029 11.9985L27.8369 11.8938ZM27.8106 11.816L28.1358 11.6865L28.135 11.6845L27.8106 11.816ZM27.7879 11.7642L28.1069 11.6203L28.1068 11.6199L27.7879 11.7642ZM27.753 11.6933L27.4456 11.8608L27.447 11.8633L27.753 11.6933ZM27.7239 11.6439L28.0232 11.4624L28.0207 11.4585L27.7239 11.6439ZM27.6806 11.5791L27.3978 11.7853L27.398 11.7855L27.6806 11.5791ZM27.6457 11.5333L27.3722 11.7517L27.3737 11.7535L27.6457 11.5333ZM27.5948 11.4755L27.3393 11.7147L27.34 11.7154L27.5948 11.4755ZM27.5541 11.4337L27.798 11.1826L27.7933 11.1782L27.5541 11.4337ZM27.4962 11.3833L27.7189 11.1132L27.7156 11.1106L27.4962 11.3833ZM27.4498 11.3469L27.2315 11.6205L27.2392 11.6266L27.2472 11.6323L27.4498 11.3469ZM27.4331 11.3335L27.633 11.0462L27.633 11.0462L27.4331 11.3335ZM16.5665 3.77426L16.3664 4.06145L16.3666 4.06158L16.5665 3.77426ZM15.4333 3.77426L15.6332 4.06158L15.6334 4.06145L15.4333 3.77426ZM4.56705 11.3335L4.75971 11.6258L4.76693 11.6208L4.56705 11.3335ZM4.55008 11.3469L4.7527 11.6324L4.76073 11.6264L4.55008 11.3469ZM4.50365 11.3833L4.28424 11.1105L4.27882 11.1151L4.50365 11.3833ZM4.44602 11.4337L4.6869 11.6877L4.68734 11.6872L4.44602 11.4337ZM4.40535 11.4755L4.65812 11.7177L4.66373 11.7116L4.40535 11.4755ZM4.35412 11.5333L4.08276 11.3123L4.08205 11.3131L4.35412 11.5333ZM4.31922 11.5791L4.60189 11.7855L4.60203 11.7853L4.31922 11.5791ZM4.276 11.6439L3.97909 11.4585L3.97671 11.4624L4.276 11.6439ZM4.24718 11.6933L4.55149 11.8666L4.55692 11.8563L4.24718 11.6933ZM4.21228 11.7642L4.53135 11.9081L4.53273 11.9049L4.21228 11.7642ZM4.18955 11.816L3.86314 11.6896L3.86301 11.69L4.18955 11.816ZM4.16297 11.8938L4.49697 11.9985L4.49754 11.9966L4.16297 11.8938ZM4.14728 11.9456L3.80798 11.8597L3.80777 11.8606L4.14728 11.9456ZM4.12935 12.0351L3.78422 11.977L3.78411 11.9776L4.12935 12.0351ZM4.12103 12.0809L3.77462 12.0304L3.77373 12.0375L4.12103 12.0809ZM4.12103 19.9188L3.77368 19.9622L3.77454 19.9683L4.12103 19.9188ZM4.12935 19.9649L3.78411 20.0225L3.78443 20.0243L4.12935 19.9649ZM4.14728 20.0541L3.80777 20.1392L3.80798 20.14L4.14728 20.0541ZM4.16297 20.1059L4.49794 20.0043L4.49637 19.9994L4.16297 20.1059ZM4.18955 20.1841L4.51676 20.0598L4.51609 20.0581L4.18955 20.1841ZM4.21228 20.2355L4.53275 20.0948L4.53134 20.0917L4.21228 20.2355ZM4.24718 20.3067L4.55563 20.1412L4.55239 20.1354L4.24718 20.3067ZM4.276 20.3555L4.57415 20.1721L4.57185 20.1685L4.276 20.3555ZM4.31922 20.4206L4.60614 20.2201L4.60343 20.2164L4.31922 20.4206ZM4.35412 20.4668L4.08204 20.6869L4.08459 20.69L4.35412 20.4668ZM4.40535 20.5242L4.661 20.2851L4.65586 20.2798L4.40535 20.5242ZM4.44602 20.5657L4.68981 20.3144L4.68367 20.3087L4.44602 20.5657ZM4.50365 20.6168L4.27877 20.8851L4.28429 20.8895L4.50365 20.6168ZM4.55008 20.6532L4.76075 20.3736L4.75652 20.3706L4.55008 20.6532ZM4.56705 20.6662L4.76699 20.3788L4.75965 20.374L4.56705 20.6662ZM15.4333 28.2255L15.6335 27.9383L15.6332 27.9382L15.4333 28.2255ZM16.5665 28.2255L16.3666 27.9381L16.3661 27.9385L16.5665 28.2255ZM27.4331 20.6662L27.633 20.9535H27.633L27.4331 20.6662ZM27.4498 20.6532L27.2433 20.3706L27.2373 20.375L27.2315 20.3796L27.4498 20.6532ZM27.4962 20.6168L27.7156 20.8895L27.7189 20.8868L27.4962 20.6168ZM27.5541 20.5657L27.3136 20.3114L27.3126 20.3123L27.5541 20.5657ZM27.5948 20.5242L27.8475 20.7664L27.5948 20.5242ZM27.6457 20.4668L27.9174 20.6874L27.9178 20.6869L27.6457 20.4668ZM27.6806 20.4206L27.3964 20.2164L27.3937 20.2202L27.6806 20.4206ZM27.7239 20.3555L27.428 20.1685L27.4257 20.1721L27.7239 20.3555ZM27.753 20.3067L28.0589 20.4768L28.06 20.4748L27.753 20.3067ZM27.7879 20.2355L28.1068 20.3799L28.1069 20.3794L27.7879 20.2355ZM27.8106 20.1841L27.4855 20.0546L27.4854 20.0547L27.8106 20.1841ZM27.8369 20.1059L27.5034 19.9994L27.5019 20.0043L27.8369 20.1059ZM27.8529 20.0541L28.1907 20.1458L28.1915 20.1426L27.8529 20.0541ZM27.8708 19.9649L28.2151 20.0279L28.2161 20.0225L27.8708 19.9649ZM27.8788 19.9188L27.5315 19.8754L27.5314 19.8763L27.8788 19.9188ZM27.8788 12.0809L28.2261 12.0375L27.8788 12.0809ZM21.6512 14.4304L17.2217 11.3392L16.8211 11.9132L21.2506 15.0044L21.6512 14.4304ZM17.3714 11.6262V6.65331H16.6714V11.6262H17.3714ZM16.8216 6.94063L24.827 12.5093L25.2267 11.9346L17.2213 6.36599L16.8216 6.94063ZM24.8265 11.9349L21.2506 14.4304L21.6512 15.0044L25.2271 12.5089L24.8265 11.9349ZM23.489 16.2871L26.0454 14.5029L25.6447 13.9289L23.0883 15.713L23.489 16.2871ZM25.495 14.2159V17.7839H26.195V14.2159H25.495ZM26.0453 17.4968L23.4889 15.713L23.0884 16.2871L25.6448 18.0709L26.0453 17.4968ZM17.2217 20.6609L21.6512 17.5697L21.2506 16.9957L16.8211 20.0869L17.2217 20.6609ZM21.2506 17.5697L24.8265 20.0652L25.2271 19.4911L21.6512 16.9957L21.2506 17.5697ZM24.827 19.4908L16.8216 25.0595L17.2213 25.6341L25.2267 20.0655L24.827 19.4908ZM17.3714 25.3468V20.3739H16.6714V25.3468H17.3714ZM10.3487 17.5697L14.7782 20.6609L15.1788 20.0869L10.7493 16.9957L10.3487 17.5697ZM14.6285 20.3739V25.3468H15.3285V20.3739H14.6285ZM15.1784 25.0595L7.17333 19.4909L6.77359 20.0655L14.7787 25.6341L15.1784 25.0595ZM7.17377 20.0652L10.7493 17.5697L10.3487 16.9957L6.77314 19.4912L7.17377 20.0652ZM8.51092 15.713L5.95484 17.4968L6.35545 18.0709L8.91153 16.2871L8.51092 15.713ZM6.50515 17.7839V14.2159H5.80515V17.7839H6.50515ZM5.95482 14.5029L8.5109 16.287L8.91155 15.713L6.35547 13.9289L5.95482 14.5029ZM14.7782 11.3392L10.3487 14.4304L10.7493 15.0044L15.1788 11.9132L14.7782 11.3392ZM10.7493 14.4304L7.17377 11.9349L6.77314 12.5089L10.3487 15.0044L10.7493 14.4304ZM7.17333 12.5092L15.1784 6.94063L14.7787 6.36599L6.77359 11.9346L7.17333 12.5092ZM14.6285 6.65331V11.6262H15.3285V6.65331H14.6285ZM16.2004 18.2349L12.5868 15.713L12.1862 16.2871L15.7998 18.8089L16.2004 18.2349ZM12.5868 16.2871L16.2005 13.7649L15.7998 13.1908L12.1861 15.713L12.5868 16.2871ZM15.7998 13.7649L19.4135 16.2871L19.8141 15.713L16.2005 13.1908L15.7998 13.7649ZM19.4135 15.713L15.7998 18.2349L16.2004 18.8089L19.8141 16.2871L19.4135 15.713ZM28.2153 11.9735C28.2114 11.9516 28.2036 11.9035 28.1915 11.8571L27.5143 12.0341C27.5175 12.0465 27.5193 12.0579 27.5263 12.0968L28.2153 11.9735ZM28.1907 11.854C28.1836 11.8277 28.1724 11.794 28.1709 11.7892L27.5029 11.9985C27.5123 12.0284 27.5126 12.028 27.5151 12.0372L28.1907 11.854ZM28.1715 11.791C28.1641 11.7671 28.1521 11.7275 28.1358 11.6865L27.4855 11.9455C27.4896 11.9559 27.4937 11.9684 27.5023 11.9966L28.1715 11.791ZM28.135 11.6845C28.1247 11.6591 28.1129 11.6334 28.1069 11.6203L27.4688 11.9081C27.4783 11.929 27.4825 11.9381 27.4863 11.9475L28.135 11.6845ZM28.1068 11.6199C28.0947 11.5931 28.0788 11.5591 28.0589 11.5234L27.447 11.8633C27.4528 11.8737 27.4594 11.8871 27.469 11.9085L28.1068 11.6199ZM28.0603 11.5259C28.0461 11.4998 28.0307 11.4749 28.0231 11.4624L27.4246 11.8254C27.4369 11.8456 27.4413 11.8528 27.4457 11.8608L28.0603 11.5259ZM28.0207 11.4585C28.0051 11.4335 27.9859 11.4037 27.9633 11.3727L27.398 11.7855C27.4061 11.7966 27.4151 11.8102 27.427 11.8293L28.0207 11.4585ZM27.9634 11.3729C27.9505 11.3552 27.9352 11.3346 27.9178 11.3131L27.3737 11.7535C27.3806 11.7621 27.3883 11.7723 27.3978 11.7853L27.9634 11.3729ZM27.9192 11.3149C27.8944 11.2839 27.8696 11.2568 27.8497 11.2356L27.34 11.7154C27.3552 11.7316 27.365 11.7426 27.3722 11.7517L27.9192 11.3149ZM27.8503 11.2363C27.8353 11.2203 27.8175 11.2016 27.7979 11.1826L27.3104 11.6849C27.3183 11.6926 27.3274 11.702 27.3393 11.7147L27.8503 11.2363ZM27.7933 11.1782C27.7673 11.1539 27.7417 11.1321 27.7189 11.1133L27.2735 11.6533C27.2904 11.6673 27.3038 11.6789 27.315 11.6893L27.7933 11.1782ZM27.7156 11.1106C27.7088 11.1051 27.6797 11.0809 27.6523 11.0614L27.2472 11.6323C27.2518 11.6356 27.2528 11.6367 27.2768 11.656L27.7156 11.1106ZM27.6681 11.0733C27.6699 11.0748 27.671 11.0757 27.6703 11.0751C27.67 11.0748 27.6697 11.0746 27.6687 11.0738C27.668 11.0731 27.6667 11.0721 27.6654 11.071C27.6607 11.0671 27.6486 11.057 27.633 11.0462L27.2332 11.6208C27.2279 11.6171 27.2239 11.6141 27.2215 11.6122C27.2203 11.6112 27.2193 11.6104 27.2187 11.6099C27.2181 11.6095 27.2178 11.6092 27.2177 11.6091C27.2177 11.6091 27.2178 11.6092 27.2179 11.6093C27.2181 11.6094 27.2182 11.6096 27.2185 11.6098C27.2189 11.6101 27.22 11.6111 27.221 11.6119C27.2231 11.6136 27.2269 11.6168 27.2315 11.6205L27.6681 11.0733ZM27.633 11.0462L16.7664 3.48694L16.3666 4.06158L27.2332 11.6208L27.633 11.0462ZM16.7666 3.48707C16.3034 3.16443 15.6964 3.16443 15.2333 3.48707L15.6334 4.06145C15.8561 3.90631 16.1437 3.90631 16.3664 4.06145L16.7666 3.48707ZM15.2335 3.48694L4.36718 11.0462L4.76693 11.6208L15.6332 4.06158L15.2335 3.48694ZM4.37445 11.0413C4.3543 11.0545 4.33912 11.0672 4.33463 11.071C4.33341 11.072 4.33208 11.0731 4.33175 11.0734C4.33117 11.0739 4.33127 11.0738 4.33158 11.0735C4.33216 11.0731 4.33514 11.0706 4.33943 11.0674L4.76073 11.6264C4.76791 11.621 4.77368 11.6163 4.77704 11.6135C4.77874 11.6121 4.78022 11.6109 4.781 11.6102C4.78158 11.6097 4.78162 11.6097 4.78197 11.6094C4.78219 11.6092 4.78226 11.6091 4.78226 11.6092C4.78225 11.6092 4.78211 11.6093 4.78188 11.6095C4.78164 11.6097 4.78128 11.61 4.78081 11.6103C4.7799 11.6111 4.77846 11.6122 4.77662 11.6137C4.77297 11.6165 4.76717 11.6208 4.75965 11.6258L4.37445 11.0413ZM4.34754 11.0614C4.32013 11.0809 4.29104 11.1051 4.28429 11.1106L4.72302 11.656C4.74701 11.6367 4.74801 11.6356 4.75262 11.6323L4.34754 11.0614ZM4.27882 11.1151C4.26033 11.1306 4.23217 11.1541 4.2047 11.1802L4.68734 11.6872C4.69637 11.6787 4.70792 11.6688 4.72849 11.6515L4.27882 11.1151ZM4.20514 11.1798C4.18315 11.2007 4.16368 11.2211 4.14698 11.2394L4.66373 11.7116C4.67328 11.7011 4.68071 11.6935 4.6869 11.6877L4.20514 11.1798ZM4.15266 11.2333C4.12889 11.2581 4.10561 11.2842 4.08276 11.3123L4.62549 11.7544C4.6353 11.7423 4.64596 11.7303 4.65805 11.7177L4.15266 11.2333ZM4.08205 11.3131C4.0647 11.3346 4.04933 11.3552 4.03642 11.3729L4.60203 11.7853C4.61153 11.7723 4.61922 11.7621 4.62619 11.7535L4.08205 11.3131ZM4.03655 11.3727C4.01394 11.4037 3.99473 11.4335 3.97911 11.4585L4.57288 11.8293C4.5848 11.8102 4.59377 11.7966 4.60189 11.7855L4.03655 11.3727ZM3.97671 11.4624C3.96937 11.4745 3.95258 11.5016 3.93744 11.5304L4.55692 11.8563C4.55971 11.851 4.56277 11.846 4.57529 11.8254L3.97671 11.4624ZM3.94304 11.5202C3.92145 11.5581 3.90474 11.594 3.89183 11.6234L4.53273 11.9049C4.54095 11.8862 4.54665 11.8747 4.55133 11.8665L3.94304 11.5202ZM3.89322 11.6203C3.89016 11.6271 3.87444 11.6604 3.86314 11.6896L4.51595 11.9423C4.51595 11.9423 4.51602 11.9421 4.51619 11.9417C4.51635 11.9413 4.51658 11.9408 4.51691 11.94C4.51758 11.9384 4.51851 11.9363 4.51984 11.9333C4.52121 11.9303 4.5227 11.927 4.52469 11.9227C4.52652 11.9186 4.52893 11.9134 4.53134 11.9081L3.89322 11.6203ZM3.86301 11.69C3.84917 11.7259 3.83787 11.7602 3.8284 11.791L4.49754 11.9966C4.50409 11.9753 4.51007 11.9575 4.51609 11.942L3.86301 11.69ZM3.82898 11.7892C3.8274 11.7942 3.81566 11.8294 3.80798 11.8597L4.48658 12.0315C4.48656 12.0316 4.48698 12.0299 4.48877 12.0242C4.48967 12.0213 4.49066 12.0182 4.4921 12.0137C4.49342 12.0096 4.49518 12.0042 4.49696 11.9985L3.82898 11.7892ZM3.80777 11.8606C3.79697 11.9037 3.78972 11.9443 3.78422 11.977L4.47449 12.0933C4.47923 12.0651 4.48286 12.0463 4.48679 12.0306L3.80777 11.8606ZM3.78411 11.9776C3.78383 11.9793 3.78352 11.9809 3.78153 11.9911C3.77998 11.999 3.77712 12.0138 3.77469 12.0304L4.46736 12.1314C4.46718 12.1327 4.46719 12.1322 4.46861 12.125C4.46958 12.12 4.47231 12.1063 4.47459 12.0927L3.78411 11.9776ZM3.77373 12.0375C3.76636 12.0965 3.76206 12.1575 3.76206 12.2202H4.46206C4.46206 12.1894 4.46417 12.1576 4.46832 12.1243L3.77373 12.0375ZM3.76206 12.2202V19.7795H4.46206V12.2202H3.76206ZM3.76206 19.7795C3.76206 19.8426 3.76636 19.9033 3.77373 19.9622L4.46832 19.8754C4.46416 19.8421 4.46206 19.8106 4.46206 19.7795H3.76206ZM3.77454 19.9683C3.77697 19.9853 3.77985 20.0003 3.78146 20.0086C3.78352 20.0192 3.7838 20.0206 3.78411 20.0225L4.47459 19.9074C4.47335 19.8999 4.47212 19.8933 4.47113 19.8881C4.47026 19.8835 4.46914 19.8778 4.46868 19.8754C4.46732 19.8684 4.46732 19.868 4.46751 19.8694L3.77454 19.9683ZM3.78443 20.0243C3.78966 20.0547 3.79696 20.096 3.80777 20.1392L4.48679 19.9691C4.48288 19.9535 4.47928 19.9346 4.47427 19.9055L3.78443 20.0243ZM3.80798 20.14C3.81588 20.1712 3.82659 20.2031 3.82957 20.2124L4.49637 19.9994C4.49484 19.9946 4.49311 19.9893 4.49199 19.9858C4.49071 19.9818 4.48975 19.9788 4.48891 19.9761C4.48723 19.9707 4.48668 19.9686 4.48658 19.9682L3.80798 20.14ZM3.82803 20.2075C3.83774 20.2395 3.84913 20.2741 3.86301 20.3101L4.51609 20.0581C4.51011 20.0426 4.50422 20.0251 4.49791 20.0043L3.82803 20.2075ZM3.86234 20.3083C3.87406 20.3392 3.89292 20.3788 3.89322 20.3794L4.53134 20.0917C4.52857 20.0855 4.52591 20.0798 4.52394 20.0755C4.52174 20.0708 4.52038 20.0679 4.51904 20.0649C4.51645 20.0593 4.51622 20.0585 4.51675 20.0599L3.86234 20.3083ZM3.89183 20.3763C3.90482 20.4059 3.92115 20.4409 3.94197 20.478L4.55239 20.1354C4.54695 20.1257 4.54087 20.1133 4.53273 20.0948L3.89183 20.3763ZM3.93879 20.4722C3.9533 20.4993 3.96812 20.5235 3.98015 20.5425L4.57185 20.1685C4.56403 20.1561 4.55899 20.1476 4.55558 20.1412L3.93879 20.4722ZM3.97787 20.5389C3.99545 20.5674 4.01415 20.5959 4.03502 20.6249L4.60343 20.2164C4.59356 20.2026 4.58408 20.1883 4.57412 20.1721L3.97787 20.5389ZM4.03233 20.6211C4.04932 20.6454 4.06605 20.6672 4.08205 20.6869L4.62619 20.2466C4.61786 20.2363 4.61154 20.2279 4.60612 20.2202L4.03233 20.6211ZM4.08459 20.69C4.10485 20.7145 4.12831 20.7415 4.15485 20.7687L4.65586 20.2798C4.64653 20.2702 4.63606 20.2584 4.62366 20.2435L4.08459 20.69ZM4.14976 20.7633C4.1614 20.7758 4.18342 20.7995 4.20837 20.8226L4.68367 20.3087C4.68044 20.3057 4.67556 20.3007 4.66095 20.2851L4.14976 20.7633ZM4.2023 20.8168C4.23011 20.8438 4.25804 20.8676 4.27882 20.885L4.72849 20.3485C4.71021 20.3332 4.69843 20.3229 4.68974 20.3145L4.2023 20.8168ZM4.28429 20.8895C4.29568 20.8987 4.31922 20.918 4.34364 20.9358L4.75652 20.3706C4.74893 20.365 4.74236 20.3596 4.72302 20.344L4.28429 20.8895ZM4.33943 20.9327C4.33681 20.9307 4.3351 20.9293 4.33526 20.9295C4.33536 20.9295 4.33552 20.9297 4.33633 20.9303C4.33696 20.9308 4.33819 20.9318 4.33954 20.9329C4.34457 20.937 4.35752 20.9473 4.37445 20.9585L4.75965 20.374C4.76536 20.3777 4.76983 20.381 4.77275 20.3832C4.77422 20.3843 4.77537 20.3852 4.77613 20.3858C4.77686 20.3863 4.77733 20.3867 4.77735 20.3867C4.77737 20.3867 4.77732 20.3867 4.77716 20.3866C4.77699 20.3864 4.77678 20.3863 4.77643 20.386C4.77586 20.3855 4.77465 20.3845 4.77336 20.3835C4.77074 20.3814 4.76623 20.3778 4.76073 20.3737L4.33943 20.9327ZM4.36718 20.9535L15.2335 28.5128L15.6332 27.9382L4.76693 20.3789L4.36718 20.9535ZM15.2332 28.5126C15.4639 28.6734 15.7311 28.7549 16.0001 28.7549V28.0549C15.8733 28.0549 15.746 28.0168 15.6335 27.9383L15.2332 28.5126ZM16.0001 28.7549C16.2687 28.7549 16.5363 28.6734 16.7669 28.5124L16.3661 27.9385C16.2541 28.0167 16.1266 28.0549 16.0001 28.0549V28.7549ZM16.7664 28.5128L27.633 20.9535L27.2332 20.3789L16.3666 27.9381L16.7664 28.5128ZM27.633 20.9535C27.6454 20.9449 27.6552 20.9371 27.6605 20.9329C27.6631 20.9308 27.6656 20.9288 27.6667 20.9279C27.6681 20.9267 27.6682 20.9266 27.6681 20.9268L27.2315 20.3796C27.2286 20.3819 27.226 20.384 27.2247 20.3851C27.2239 20.3857 27.2235 20.3861 27.2231 20.3864C27.2227 20.3867 27.2226 20.3868 27.2227 20.3867C27.2227 20.3867 27.2237 20.3859 27.2254 20.3846C27.2271 20.3833 27.2297 20.3813 27.2332 20.3789L27.633 20.9535ZM27.6562 20.9358C27.6806 20.918 27.7042 20.8987 27.7156 20.8895L27.2768 20.344C27.2575 20.3596 27.2509 20.365 27.2433 20.3706L27.6562 20.9358ZM27.7189 20.8868C27.7436 20.8664 27.7697 20.8437 27.7957 20.819L27.3126 20.3123C27.3015 20.323 27.2885 20.3344 27.2735 20.3467L27.7189 20.8868ZM27.7947 20.8199C27.8165 20.7992 27.8383 20.776 27.8475 20.7664L27.3421 20.2821C27.3244 20.3005 27.3193 20.306 27.3136 20.3114L27.7947 20.8199ZM27.8475 20.7664C27.8708 20.7421 27.8946 20.7155 27.9174 20.6874L27.374 20.2461C27.3648 20.2574 27.354 20.2696 27.3421 20.2821L27.8475 20.7664ZM27.9178 20.6869C27.9338 20.6672 27.9505 20.6454 27.9675 20.6211L27.3937 20.2202C27.3883 20.2279 27.382 20.2363 27.3737 20.2466L27.9178 20.6869ZM27.9648 20.6249C27.9857 20.5959 28.0044 20.5674 28.022 20.5389L27.4257 20.1721C27.4158 20.1883 27.4063 20.2026 27.3964 20.2164L27.9648 20.6249ZM28.0197 20.5425C28.0319 20.5232 28.0455 20.5009 28.0589 20.4768L27.4471 20.1367C27.4419 20.1459 27.4356 20.1564 27.428 20.1685L28.0197 20.5425ZM28.06 20.4748C28.0791 20.4399 28.0946 20.4068 28.1068 20.3799L27.469 20.0912C27.4594 20.1124 27.4525 20.1268 27.446 20.1386L28.06 20.4748ZM28.1069 20.3794C28.1103 20.372 28.1249 20.3409 28.1358 20.3135L27.4854 20.0547C27.4823 20.0627 27.4809 20.065 27.4688 20.0917L28.1069 20.3794ZM28.1358 20.3136C28.1522 20.2723 28.1641 20.2328 28.1718 20.2075L27.5019 20.0043C27.4936 20.0318 27.4895 20.0445 27.4855 20.0546L28.1358 20.3136ZM28.1703 20.2124C28.1734 20.2028 28.1832 20.1734 28.1907 20.1457L27.5151 19.9625C27.513 19.9703 27.5113 19.9749 27.5035 19.9994L28.1703 20.2124ZM28.1915 20.1426C28.2035 20.0967 28.2116 20.0469 28.2151 20.0279L27.5265 19.9019C27.5191 19.9424 27.5176 19.9527 27.5143 19.9656L28.1915 20.1426ZM28.2161 20.0225C28.2165 20.0196 28.2166 20.0196 28.219 20.0068C28.2208 19.9974 28.2239 19.9807 28.2262 19.9613L27.5314 19.8763C27.5319 19.8726 27.5322 19.8713 27.5311 19.8772C27.5309 19.8785 27.5306 19.8799 27.5302 19.8819C27.5299 19.8837 27.5294 19.8861 27.529 19.8885C27.528 19.8934 27.5268 19.9 27.5256 19.9074L28.2161 20.0225ZM28.2261 19.9622C28.2333 19.905 28.2381 19.8441 28.2381 19.7795H27.5381C27.5381 19.8091 27.5359 19.8404 27.5315 19.8754L28.2261 19.9622ZM28.2381 19.7795V12.2202H27.5381V19.7795H28.2381ZM28.2381 12.2202C28.2381 12.156 28.2333 12.0948 28.2261 12.0375L27.5315 12.1243C27.5359 12.1593 27.5381 12.1909 27.5381 12.2202H28.2381ZM28.2261 12.0375C28.2237 12.0184 28.2207 12.002 28.2189 11.9928C28.2166 11.9806 28.2165 11.9802 28.2161 11.9776L27.5256 12.0927C27.5268 12.1001 27.528 12.1067 27.529 12.1116C27.5294 12.1141 27.5299 12.1165 27.5303 12.1183C27.5306 12.1204 27.5309 12.1218 27.5312 12.1232C27.5323 12.1293 27.532 12.128 27.5315 12.1243L28.2261 12.0375Z" fill="white"/>
</svg>
