<svg width="28" height="28" viewBox="0 0 28 28" fill="none" xmlns="http://www.w3.org/2000/svg">
<path fill-rule="evenodd" clip-rule="evenodd" d="M19.7124 12.6559L15.0704 9.41638V4.20491L23.4599 10.0407L19.7124 12.6559ZM21.6382 14L24.3172 12.1303V15.8694L21.6382 14ZM15.0704 18.5837L19.7124 15.3442L23.4599 17.9594L15.0704 23.7952V18.5837ZM8.28743 15.3442L12.9294 18.5837V23.7952L4.54034 17.9594L8.28743 15.3442ZM6.36165 14L3.68295 15.8694V12.1303L6.36165 14ZM12.9294 9.41638L8.28743 12.6559L4.54034 10.0407L12.9294 4.20491V9.41638ZM14.0001 16.6429L10.2131 14L14.0001 11.3568L17.7872 14L14.0001 16.6429ZM26.4403 9.84495C26.4346 9.81308 26.4296 9.78192 26.4215 9.75111C26.4165 9.73255 26.4104 9.71504 26.4047 9.69684C26.3963 9.66953 26.3879 9.64222 26.3772 9.61525C26.3698 9.59705 26.3614 9.57884 26.3534 9.56098C26.342 9.53577 26.3302 9.51091 26.3168 9.48675C26.3071 9.4689 26.2967 9.45209 26.2863 9.43493C26.2718 9.41182 26.2571 9.38906 26.241 9.36701C26.2292 9.3509 26.2172 9.33479 26.2044 9.31904C26.1876 9.29803 26.1695 9.27807 26.1511 9.25846C26.137 9.24341 26.1229 9.2287 26.1084 9.2147C26.089 9.19649 26.0685 9.17898 26.0477 9.16182C26.0316 9.14887 26.0158 9.13556 25.999 9.12366C25.9933 9.11911 25.9876 9.11386 25.9816 9.10965L14.5937 1.18776C14.2343 0.937413 13.7655 0.937413 13.4062 1.18776L2.01857 9.10965C2.01219 9.11386 2.00682 9.11911 2.00078 9.12366C1.984 9.13556 1.96823 9.14887 1.95213 9.16182C1.93166 9.17898 1.91085 9.19649 1.89173 9.2147C1.87696 9.2287 1.86287 9.24341 1.84911 9.25846C1.83032 9.27807 1.81254 9.29803 1.79542 9.31904C1.78267 9.33479 1.77059 9.3509 1.75885 9.36701C1.74274 9.38906 1.72798 9.41182 1.71355 9.43493C1.70315 9.45209 1.69275 9.4689 1.68335 9.48675C1.66959 9.51091 1.65785 9.53577 1.64678 9.56098C1.63872 9.57884 1.63 9.59705 1.62295 9.61525C1.61255 9.64222 1.60349 9.66953 1.5951 9.69684C1.5894 9.71504 1.58336 9.73255 1.57866 9.75111C1.57094 9.78192 1.56524 9.81308 1.55987 9.84495C1.55718 9.86105 1.55349 9.87681 1.55114 9.89291C1.5451 9.94123 1.54175 9.9899 1.54175 10.0389V17.9608C1.54175 18.0102 1.5451 18.0585 1.55114 18.1068C1.55349 18.1233 1.55718 18.139 1.55987 18.1551C1.56524 18.1863 1.57094 18.2178 1.57866 18.2486C1.58336 18.2672 1.5894 18.285 1.5951 18.3029C1.60349 18.3306 1.61255 18.3579 1.62295 18.3848C1.63 18.4034 1.63872 18.4209 1.64678 18.4388C1.65785 18.464 1.66959 18.4888 1.68335 18.5133C1.69275 18.5308 1.70315 18.548 1.71355 18.5645C1.72798 18.5879 1.74274 18.6103 1.75885 18.6327C1.77059 18.6495 1.78267 18.6653 1.79542 18.6811C1.81254 18.7017 1.83032 18.722 1.84911 18.7413C1.86287 18.756 1.87696 18.771 1.89173 18.7847C1.91085 18.8032 1.93166 18.8211 1.95213 18.8383C1.96823 18.8512 1.984 18.8642 2.00078 18.8764C2.00682 18.881 2.01219 18.8859 2.01857 18.8901L13.4062 26.812C13.586 26.9373 13.7927 27 14.0001 27C14.2071 27 14.4142 26.9373 14.5937 26.812L25.9816 18.8901C25.9876 18.8859 25.9933 18.881 25.999 18.8764C26.0158 18.8642 26.0316 18.8512 26.0477 18.8383C26.0685 18.8211 26.089 18.8032 26.1084 18.7847C26.1229 18.771 26.137 18.756 26.1511 18.7413C26.1695 18.722 26.1876 18.7017 26.2044 18.6811C26.2172 18.6653 26.2292 18.6495 26.241 18.6327C26.2571 18.6103 26.2718 18.5879 26.2863 18.5645C26.2967 18.548 26.3071 18.5308 26.3168 18.5133C26.3302 18.4888 26.342 18.464 26.3534 18.4388C26.3614 18.4209 26.3698 18.4034 26.3772 18.3848C26.3879 18.3579 26.3963 18.3306 26.4047 18.3029C26.4104 18.285 26.4165 18.2672 26.4215 18.2486C26.4296 18.2178 26.4346 18.1863 26.4403 18.1551C26.443 18.139 26.4467 18.1233 26.4487 18.1068C26.4547 18.0585 26.4584 18.0102 26.4584 17.9608V10.0389C26.4584 9.9899 26.4547 9.94123 26.4487 9.89291C26.4467 9.87681 26.443 9.86105 26.4403 9.84495Z" fill="#1B1B1B"/>
<path d="M19.7124 12.6559L19.4835 12.9839L19.7124 13.1436L19.9413 12.9839L19.7124 12.6559ZM15.0704 9.41638H14.6704V9.625L14.8415 9.7444L15.0704 9.41638ZM15.0704 4.20491L15.2988 3.87654L14.6704 3.43941V4.20491H15.0704ZM23.4599 10.0407L23.6888 10.3687L24.1596 10.0401L23.6883 9.7123L23.4599 10.0407ZM21.6382 14L21.4093 13.672L20.9392 14.0001L21.4093 14.3281L21.6382 14ZM24.3172 12.1303H24.7172V11.3634L24.0883 11.8023L24.3172 12.1303ZM24.3172 15.8694L24.0883 16.1975L24.7172 16.6363V15.8694H24.3172ZM15.0704 18.5837L14.8415 18.2557L14.6704 18.3751V18.5837H15.0704ZM19.7124 15.3442L19.9413 15.0162L19.7124 14.8565L19.4835 15.0162L19.7124 15.3442ZM23.4599 17.9594L23.6883 18.2878L24.1596 17.9599L23.6888 17.6314L23.4599 17.9594ZM15.0704 23.7952H14.6704V24.5607L15.2988 24.1235L15.0704 23.7952ZM8.28743 15.3442L8.51635 15.0162L8.28742 14.8564L8.0585 15.0162L8.28743 15.3442ZM12.9294 18.5837H13.3294V18.3751L13.1584 18.2557L12.9294 18.5837ZM12.9294 23.7952L12.701 24.1235L13.3294 24.5607V23.7952H12.9294ZM4.54034 17.9594L4.31141 17.6314L3.84065 17.96L4.31191 18.2878L4.54034 17.9594ZM6.36165 14L6.59057 14.3281L7.06055 14.0001L6.5906 13.672L6.36165 14ZM3.68295 15.8694H3.28295V16.6364L3.91186 16.1975L3.68295 15.8694ZM3.68295 12.1303L3.91189 11.8023L3.28295 11.3633V12.1303H3.68295ZM12.9294 9.41638L13.1584 9.7444L13.3294 9.625V9.41638H12.9294ZM8.28743 12.6559L8.0585 12.9839L8.28742 13.1436L8.51635 12.9839L8.28743 12.6559ZM4.54034 10.0407L4.31191 9.71231L3.84065 10.0401L4.31141 10.3687L4.54034 10.0407ZM12.9294 4.20491H13.3294V3.43939L12.701 3.87654L12.9294 4.20491ZM14.0001 16.6429L13.7712 16.9709L14.0001 17.1307L14.229 16.9709L14.0001 16.6429ZM10.2131 14L9.98416 13.672L9.51418 14.0001L9.98418 14.3281L10.2131 14ZM14.0001 11.3568L14.2291 11.0288L14.0001 10.869L13.7712 11.0288L14.0001 11.3568ZM17.7872 14L18.0161 14.3281L18.4861 14.0001L18.0161 13.672L17.7872 14ZM26.4403 9.84495L26.8349 9.77918L26.834 9.77445L26.4403 9.84495ZM26.4215 9.75111L26.8085 9.64996L26.8076 9.6464L26.4215 9.75111ZM26.4047 9.69684L26.0224 9.81429L26.023 9.81643L26.4047 9.69684ZM26.3772 9.61525L26.7488 9.46725L26.7479 9.46496L26.3772 9.61525ZM26.3534 9.56098L26.718 9.39654L26.7178 9.39607L26.3534 9.56098ZM26.3168 9.48675L25.9656 9.67816L25.9671 9.68101L26.3168 9.48675ZM26.2863 9.43493L26.6284 9.22754L26.6256 9.22309L26.2863 9.43493ZM26.241 9.36701L25.9178 9.60268L25.9179 9.60288L26.241 9.36701ZM26.2044 9.31904L25.8918 9.56866L25.8935 9.57067L26.2044 9.31904ZM26.1511 9.25846L25.859 9.53181L25.8598 9.53262L26.1511 9.25846ZM26.1084 9.2147L26.3871 8.92763L26.3817 8.92259L26.1084 9.2147ZM26.0477 9.16182L26.3022 8.8532L26.2984 8.85014L26.0477 9.16182ZM25.999 9.12366L25.7496 9.43632L25.7584 9.44335L25.7676 9.44988L25.999 9.12366ZM25.9816 9.10965L26.21 8.78129L26.21 8.78129L25.9816 9.10965ZM14.5937 1.18776L14.365 1.51597L14.3652 1.51613L14.5937 1.18776ZM13.4062 1.18776L13.6346 1.51612L13.6348 1.51597L13.4062 1.18776ZM2.01857 9.10965L2.23875 9.44375L2.24699 9.43801L2.01857 9.10965ZM2.00078 9.12366L2.23235 9.45001L2.24152 9.4431L2.00078 9.12366ZM1.95213 9.16182L1.70137 8.85007L1.69517 8.85527L1.95213 9.16182ZM1.89173 9.2147L2.16702 9.5049L2.16752 9.50441L1.89173 9.2147ZM1.84911 9.25846L2.13799 9.5353L2.1444 9.52829L1.84911 9.25846ZM1.79542 9.31904L1.48529 9.06641L1.48449 9.06741L1.79542 9.31904ZM1.75885 9.36701L2.0819 9.60288L2.08205 9.60268L1.75885 9.36701ZM1.71355 9.43493L1.37423 9.22307L1.37151 9.22755L1.71355 9.43493ZM1.68335 9.48675L2.03114 9.6848L2.03734 9.67301L1.68335 9.48675ZM1.64678 9.56098L2.01143 9.72543L2.013 9.72184L1.64678 9.56098ZM1.62295 9.61525L1.24991 9.47088L1.24976 9.47127L1.62295 9.61525ZM1.5951 9.69684L1.97681 9.81643L1.97747 9.81428L1.5951 9.69684ZM1.57866 9.75111L1.19089 9.65295L1.19064 9.65392L1.57866 9.75111ZM1.55987 9.84495L1.16543 9.77848L1.16531 9.77919L1.55987 9.84495ZM1.55114 9.89291L1.15525 9.83518L1.15423 9.8433L1.55114 9.89291ZM1.55114 18.1068L1.15417 18.1564L1.15516 18.1633L1.55114 18.1068ZM1.55987 18.1551L1.1653 18.2209L1.16568 18.2231L1.55987 18.1551ZM1.57866 18.2486L1.19064 18.3458L1.19089 18.3468L1.57866 18.2486ZM1.5951 18.3029L1.97793 18.1868L1.97613 18.1812L1.5951 18.3029ZM1.62295 18.3848L1.99691 18.2428L1.99614 18.2408L1.62295 18.3848ZM1.64678 18.4388L2.01302 18.2779L2.01141 18.2743L1.64678 18.4388ZM1.68335 18.5133L2.03587 18.3242L2.03216 18.3175L1.68335 18.5133ZM1.71355 18.5645L2.05429 18.3549L2.05167 18.3507L1.71355 18.5645ZM1.75885 18.6327L2.08676 18.4036L2.08366 18.3993L1.75885 18.6327ZM1.79542 18.6811L1.48447 18.9327L1.48739 18.9362L1.79542 18.6811ZM1.84911 18.7413L2.14128 18.4679L2.1354 18.4619L1.84911 18.7413ZM1.89173 18.7847L2.17035 18.4975L2.16333 18.491L1.89173 18.7847ZM1.95213 18.8383L1.69512 19.1449L1.70142 19.1499L1.95213 18.8383ZM2.00078 18.8764L2.24155 18.5569L2.23672 18.5534L2.00078 18.8764ZM2.01857 18.8901L2.24707 18.5616L2.23868 18.5561L2.01857 18.8901ZM13.4062 26.812L13.6349 26.4838L13.6346 26.4836L13.4062 26.812ZM14.5937 26.812L14.3652 26.4836L14.3647 26.484L14.5937 26.812ZM25.9816 18.8901L26.21 19.2184L26.21 19.2184L25.9816 18.8901ZM25.999 18.8764L25.7631 18.5534L25.7562 18.5584L25.7496 18.5638L25.999 18.8764ZM26.0477 18.8383L26.2984 19.15L26.3022 19.1469L26.0477 18.8383ZM26.1084 18.7847L25.8335 18.4942L25.8324 18.4952L26.1084 18.7847ZM26.1511 18.7413L26.4398 19.018L26.1511 18.7413ZM26.2044 18.6811L26.5149 18.9332L26.5153 18.9327L26.2044 18.6811ZM26.241 18.6327L25.9161 18.3993L25.9131 18.4036L26.241 18.6327ZM26.2863 18.5645L25.9481 18.3507L25.9456 18.3549L26.2863 18.5645ZM26.3168 18.5133L26.6664 18.7077L26.6676 18.7055L26.3168 18.5133ZM26.3534 18.4388L26.7178 18.6037L26.718 18.6032L26.3534 18.4388ZM26.3772 18.3848L26.0056 18.2368L26.0055 18.237L26.3772 18.3848ZM26.4047 18.3029L26.0237 18.1812L26.0219 18.1868L26.4047 18.3029ZM26.4215 18.2486L26.8076 18.3533L26.8085 18.3498L26.4215 18.2486ZM26.4403 18.1551L26.8338 18.2272L26.8349 18.2209L26.4403 18.1551ZM26.4487 18.1068L26.0518 18.0572L26.0516 18.0582L26.4487 18.1068ZM26.4487 9.89291L26.0518 9.94253L26.4487 9.89291ZM19.9413 12.3278L15.2993 9.08835L14.8415 9.7444L19.4835 12.9839L19.9413 12.3278ZM15.4704 9.41638V4.20491H14.6704V9.41638H15.4704ZM14.842 4.53328L23.2314 10.369L23.6883 9.7123L15.2988 3.87654L14.842 4.53328ZM23.2309 9.71265L19.4835 12.3278L19.9413 12.9839L23.6888 10.3687L23.2309 9.71265ZM21.8671 14.3281L24.5462 12.4583L24.0883 11.8023L21.4093 13.672L21.8671 14.3281ZM23.9172 12.1303V15.8694H24.7172V12.1303H23.9172ZM24.5461 15.5414L21.8671 13.672L21.4093 14.3281L24.0883 16.1975L24.5461 15.5414ZM15.2993 18.9117L19.9413 15.6722L19.4835 15.0162L14.8415 18.2557L15.2993 18.9117ZM19.4835 15.6722L23.2309 18.2874L23.6888 17.6314L19.9413 15.0162L19.4835 15.6722ZM23.2314 17.631L14.842 23.4668L15.2988 24.1235L23.6883 18.2878L23.2314 17.631ZM15.4704 23.7952V18.5837H14.6704V23.7952H15.4704ZM8.05852 15.6722L12.7005 18.9117L13.1584 18.2557L8.51635 15.0162L8.05852 15.6722ZM12.5294 18.5837V23.7952H13.3294V18.5837H12.5294ZM13.1579 23.4668L4.76876 17.631L4.31191 18.2878L12.701 24.1235L13.1579 23.4668ZM4.76926 18.2874L8.51636 15.6722L8.0585 15.0162L4.31141 17.6314L4.76926 18.2874ZM6.13274 13.672L3.45403 15.5414L3.91186 16.1975L6.59057 14.3281L6.13274 13.672ZM4.08295 15.8694V12.1303H3.28295V15.8694H4.08295ZM3.454 12.4583L6.13271 14.328L6.5906 13.672L3.91189 11.8023L3.454 12.4583ZM12.7005 9.08835L8.05852 12.3278L8.51635 12.9839L13.1584 9.7444L12.7005 9.08835ZM8.51636 12.3278L4.76926 9.71266L4.31141 10.3687L8.0585 12.9839L8.51636 12.3278ZM4.76876 10.369L13.1579 4.53327L12.701 3.87654L4.31191 9.71231L4.76876 10.369ZM12.5294 4.20491V9.41638H13.3294V4.20491H12.5294ZM14.229 16.3149L10.442 13.672L9.98418 14.3281L13.7712 16.9709L14.229 16.3149ZM10.442 14.3281L14.2291 11.6849L13.7712 11.0288L9.98416 13.672L10.442 14.3281ZM13.7712 11.6849L17.5582 14.3281L18.0161 13.672L14.2291 11.0288L13.7712 11.6849ZM17.5582 13.672L13.7712 16.3149L14.229 16.9709L18.0161 14.3281L17.5582 13.672ZM26.834 9.77445C26.8301 9.75231 26.8216 9.70021 26.8085 9.64996L26.0345 9.85226C26.0375 9.86363 26.0391 9.87386 26.0466 9.91544L26.834 9.77445ZM26.8076 9.6464C26.7999 9.6181 26.7876 9.58112 26.7864 9.57725L26.023 9.81643C26.0332 9.84897 26.0331 9.84701 26.0355 9.85582L26.8076 9.6464ZM26.7871 9.57939C26.7794 9.55449 26.7665 9.51172 26.7488 9.46725L26.0056 9.76326C26.0094 9.77271 26.0132 9.78457 26.0224 9.81428L26.7871 9.57939ZM26.7479 9.46496C26.7368 9.43762 26.7241 9.40994 26.718 9.39654L25.9888 9.72543C25.9988 9.74774 26.0028 9.75648 26.0065 9.76555L26.7479 9.46496ZM26.7178 9.39607C26.705 9.36777 26.6879 9.33112 26.6665 9.2925L25.9671 9.68101C25.9725 9.69071 25.979 9.70377 25.989 9.7259L26.7178 9.39607ZM26.668 9.29535C26.6527 9.26723 26.636 9.24025 26.6283 9.22755L25.9442 9.64231C25.9573 9.66393 25.9614 9.67056 25.9656 9.67815L26.668 9.29535ZM26.6256 9.22309C26.609 9.19659 26.5884 9.16453 26.564 9.13113L25.9179 9.60288C25.9258 9.6136 25.9347 9.62706 25.947 9.64678L26.6256 9.22309ZM26.5642 9.13134C26.5505 9.11257 26.534 9.09049 26.5153 9.06741L25.8935 9.57067C25.9003 9.5791 25.908 9.58923 25.9178 9.60268L26.5642 9.13134ZM26.517 9.06942C26.4902 9.03588 26.4635 9.00678 26.4423 8.98431L25.8598 9.53262C25.8755 9.54936 25.8851 9.56018 25.8918 9.56865L26.517 9.06942ZM26.4431 8.98511C26.4272 8.96814 26.4081 8.94815 26.387 8.92768L25.8298 9.50172C25.8376 9.50926 25.8467 9.51868 25.859 9.53181L26.4431 8.98511ZM26.3817 8.92259C26.3538 8.8965 26.3264 8.87315 26.3022 8.85323L25.7932 9.47042C25.8107 9.48481 25.8241 9.49647 25.8352 9.5068L26.3817 8.92259ZM26.2984 8.85014C26.2921 8.84511 26.2603 8.81859 26.2305 8.79744L25.7676 9.44988C25.7672 9.44961 25.7687 9.45067 25.774 9.45486C25.7766 9.45694 25.7794 9.45926 25.7834 9.46249C25.787 9.46542 25.792 9.46948 25.797 9.47351L26.2984 8.85014ZM26.2485 8.811C26.2508 8.81279 26.2522 8.81397 26.2515 8.81342C26.2511 8.81311 26.2509 8.81292 26.2499 8.81205C26.2491 8.81135 26.2477 8.81024 26.2462 8.809C26.2411 8.80473 26.2275 8.79348 26.21 8.78129L25.7532 9.43802C25.747 9.4337 25.7422 9.43008 25.7394 9.42783C25.7365 9.42562 25.7347 9.42408 25.7347 9.42405C25.7346 9.42401 25.7347 9.42411 25.7353 9.42463C25.7357 9.42496 25.737 9.42598 25.738 9.42686C25.7402 9.42871 25.7445 9.43225 25.7496 9.43632L26.2485 8.811ZM26.21 8.78129L14.8221 0.859398L14.3652 1.51613L25.7532 9.43802L26.21 8.78129ZM14.8223 0.85955C14.3255 0.513483 13.6743 0.513483 13.1775 0.85955L13.6348 1.51597C13.8568 1.36134 14.1431 1.36134 14.365 1.51597L14.8223 0.85955ZM13.1777 0.859401L1.79014 8.78129L2.24699 9.43801L13.6346 1.51612L13.1777 0.859401ZM1.79845 8.77566C1.77572 8.79065 1.75863 8.80495 1.75376 8.809C1.75243 8.81011 1.75097 8.81133 1.75067 8.81158C1.75006 8.81209 1.75024 8.81194 1.75066 8.81159C1.75146 8.81093 1.755 8.80802 1.76004 8.80422L2.24152 9.4431C2.24959 9.43702 2.25606 9.43175 2.25976 9.42869C2.26164 9.42715 2.26326 9.42579 2.2641 9.42509C2.26472 9.42457 2.26473 9.42456 2.2651 9.42425C2.26532 9.42406 2.26537 9.42402 2.26534 9.42405C2.26529 9.42409 2.26457 9.42469 2.26349 9.42557C2.26238 9.42647 2.26066 9.42784 2.25849 9.42952C2.25419 9.43284 2.24742 9.43788 2.23868 9.44365L1.79845 8.77566ZM1.76931 8.79744C1.7395 8.81859 1.70768 8.84511 1.70142 8.85014L2.20283 9.47351C2.20784 9.46948 2.21282 9.46542 2.21643 9.46249C2.2204 9.45926 2.22327 9.45694 2.22587 9.45486C2.23113 9.45066 2.23264 9.44961 2.23226 9.44988L1.76931 8.79744ZM1.69517 8.85527C1.67589 8.87143 1.6456 8.89674 1.61593 8.92498L2.16752 9.50441C2.17611 9.49624 2.18742 9.48653 2.20908 9.46838L1.69517 8.85527ZM1.61644 8.92449C1.59264 8.94707 1.57167 8.96911 1.55382 8.98864L2.1444 9.52829C2.15407 9.5177 2.16128 9.51033 2.16702 9.5049L1.61644 8.92449ZM1.56032 8.9817C1.53486 9.00827 1.50985 9.03626 1.4853 9.06641L2.10555 9.57166C2.11522 9.5598 2.12579 9.54787 2.13791 9.53523L1.56032 8.9817ZM1.48449 9.06741C1.46581 9.09049 1.44933 9.11256 1.43565 9.13134L2.08205 9.60268C2.09185 9.58923 2.09954 9.5791 2.10636 9.57067L1.48449 9.06741ZM1.4358 9.13113C1.41141 9.16453 1.3908 9.1966 1.37425 9.22309L2.05285 9.64678C2.06516 9.62705 2.07408 9.6136 2.0819 9.60288L1.4358 9.13113ZM1.37151 9.22755C1.36406 9.23984 1.34581 9.26922 1.32936 9.3005L2.03734 9.67301C2.03968 9.66857 2.04224 9.66434 2.05559 9.64231L1.37151 9.22755ZM1.33576 9.28882C1.31233 9.32995 1.2943 9.36882 1.28055 9.40012L2.013 9.72184C2.0214 9.70273 2.02685 9.69188 2.03094 9.68469L1.33576 9.28882ZM1.28214 9.39654C1.27937 9.40269 1.26219 9.43917 1.24991 9.47088L1.99599 9.75963C1.99585 9.75999 1.99656 9.75813 1.99938 9.75185C2.00076 9.74878 2.00228 9.74545 2.00437 9.74088C2.00628 9.73671 2.00885 9.73111 2.01141 9.72543L1.28214 9.39654ZM1.24976 9.47127C1.23489 9.50983 1.22279 9.54664 1.21273 9.57939L1.97747 9.81428C1.98419 9.79242 1.99021 9.77461 1.99614 9.75924L1.24976 9.47127ZM1.2134 9.57725C1.21211 9.58136 1.19923 9.61999 1.19089 9.65295L1.96643 9.84927C1.96619 9.85021 1.96643 9.8491 1.96822 9.8434C1.96913 9.84049 1.97013 9.83736 1.97164 9.83265C1.97302 9.82837 1.97489 9.82253 1.97681 9.81643L1.2134 9.57725ZM1.19064 9.65392C1.17901 9.70039 1.17123 9.74404 1.16543 9.77848L1.95431 9.91141C1.95924 9.88212 1.96288 9.86345 1.96667 9.8483L1.19064 9.65392ZM1.16531 9.77919C1.16532 9.7791 1.1652 9.77985 1.16476 9.78217C1.16421 9.78504 1.1638 9.78712 1.16276 9.79244C1.16114 9.80079 1.158 9.8169 1.15533 9.83519L1.94696 9.95064C1.94664 9.95283 1.94652 9.95301 1.948 9.94542C1.94851 9.94277 1.94967 9.93689 1.95065 9.93177C1.95173 9.9261 1.95307 9.91885 1.95443 9.91071L1.16531 9.77919ZM1.15423 9.8433C1.14635 9.90632 1.14175 9.97164 1.14175 10.0389H1.94175C1.94175 10.0082 1.94385 9.97614 1.94805 9.94253L1.15423 9.8433ZM1.14175 10.0389V17.9608H1.94175V10.0389H1.14175ZM1.14175 17.9608C1.14175 18.0285 1.14636 18.0935 1.15423 18.1564L1.94805 18.0572C1.94384 18.0235 1.94175 17.9919 1.94175 17.9608H1.14175ZM1.15516 18.1633C1.15783 18.1821 1.16099 18.1984 1.16268 18.2072C1.16378 18.2129 1.16414 18.2147 1.16474 18.2178C1.1652 18.2202 1.16532 18.221 1.16531 18.2209L1.95443 18.0894C1.95307 18.0813 1.95173 18.074 1.95067 18.0684C1.94974 18.0635 1.94853 18.0574 1.94808 18.055C1.94667 18.0478 1.9468 18.048 1.94713 18.0503L1.15516 18.1633ZM1.16568 18.2231C1.17117 18.2549 1.17899 18.2993 1.19064 18.3458L1.96667 18.1514C1.9629 18.1364 1.9593 18.1177 1.95406 18.0872L1.16568 18.2231ZM1.19089 18.3468C1.19949 18.3808 1.21118 18.4156 1.21407 18.4246L1.97613 18.1812C1.97451 18.1761 1.97266 18.1704 1.97151 18.1668C1.97018 18.1627 1.96921 18.1597 1.96838 18.157C1.96671 18.1516 1.96633 18.1501 1.96643 18.1505L1.19089 18.3468ZM1.21232 18.419C1.22264 18.453 1.23484 18.4901 1.24976 18.5288L1.99614 18.2408C1.99026 18.2256 1.98434 18.2081 1.97788 18.1868L1.21232 18.419ZM1.249 18.5268C1.25697 18.5478 1.26495 18.5658 1.2705 18.5779C1.28053 18.5999 1.276 18.5896 1.28214 18.6032L2.01141 18.2743C2.00844 18.2677 2.00558 18.2616 2.00351 18.2571C2.00119 18.2521 1.99981 18.2491 1.99848 18.2462C1.99588 18.2405 1.99598 18.2404 1.9969 18.2428L1.249 18.5268ZM1.28055 18.5996C1.29439 18.6311 1.31199 18.6689 1.33454 18.7091L2.03216 18.3175C2.02719 18.3087 2.0213 18.2968 2.013 18.2779L1.28055 18.5996ZM1.3309 18.7025C1.34664 18.7318 1.36263 18.7579 1.37543 18.7782L2.05167 18.3507C2.04367 18.3381 2.03885 18.3299 2.0358 18.3242L1.3309 18.7025ZM1.37284 18.774C1.39161 18.8045 1.41166 18.835 1.43404 18.8662L2.08366 18.3993C2.07383 18.3856 2.06434 18.3713 2.05426 18.3549L1.37284 18.774ZM1.43097 18.8618C1.44933 18.8881 1.46736 18.9115 1.48449 18.9327L2.10636 18.4294C2.09799 18.4191 2.09186 18.411 2.08673 18.4036L1.43097 18.8618ZM1.48739 18.9362C1.50899 18.9623 1.5342 18.9913 1.56282 19.0206L2.1354 18.4619C2.12645 18.4527 2.11609 18.4411 2.10346 18.4259L1.48739 18.9362ZM1.55701 19.0145C1.56907 19.0274 1.59296 19.0532 1.62013 19.0783L2.16333 18.491C2.16097 18.4889 2.15667 18.4845 2.14122 18.468L1.55701 19.0145ZM1.61319 19.0718C1.64324 19.1009 1.67328 19.1265 1.69517 19.1448L2.20908 18.5317C2.19004 18.5157 2.17847 18.5056 2.17027 18.4976L1.61319 19.0718ZM1.70142 19.1499C1.71299 19.1592 1.73846 19.1802 1.76485 19.1994L2.23672 18.5534C2.22955 18.5482 2.22348 18.5432 2.20283 18.5266L1.70142 19.1499ZM1.76004 19.1959C1.7584 19.1946 1.75711 19.1936 1.75626 19.193C1.75543 19.1923 1.7549 19.1919 1.75487 19.1919C1.75485 19.1918 1.7549 19.1919 1.75508 19.192C1.75528 19.1922 1.75549 19.1924 1.7559 19.1927C1.75655 19.1932 1.7579 19.1943 1.75937 19.1955C1.76485 19.1999 1.77939 19.2115 1.79845 19.2241L2.23868 18.5561C2.24535 18.5605 2.2506 18.5643 2.25407 18.5669C2.25741 18.5694 2.25966 18.5712 2.25973 18.5713C2.25975 18.5713 2.25966 18.5712 2.25887 18.5706C2.25828 18.5701 2.25696 18.569 2.25555 18.5679C2.2527 18.5656 2.24767 18.5616 2.24152 18.557L1.76004 19.1959ZM1.79014 19.2184L13.1777 27.1403L13.6346 26.4836L2.24699 18.5617L1.79014 19.2184ZM13.1774 27.1401C13.4248 27.3125 13.7114 27.4 14.0001 27.4V26.6C13.874 26.6 13.7472 26.5621 13.6349 26.4838L13.1774 27.1401ZM14.0001 27.4C14.2883 27.4 14.5754 27.3126 14.8227 27.1399L14.3647 26.484C14.2529 26.562 14.1259 26.6 14.0001 26.6V27.4ZM14.8221 27.1403L26.21 19.2184L25.7532 18.5617L14.3652 26.4836L14.8221 27.1403ZM26.21 19.2184C26.2239 19.2088 26.2349 19.2001 26.2406 19.1955C26.2435 19.1932 26.2462 19.191 26.2473 19.1901C26.2489 19.1888 26.2489 19.1888 26.2485 19.1891L25.7496 18.5638C25.7464 18.5663 25.7435 18.5686 25.7422 18.5697C25.7414 18.5704 25.741 18.5707 25.7406 18.571C25.7402 18.5713 25.7402 18.5714 25.7403 18.5713C25.7404 18.5712 25.7417 18.5701 25.7438 18.5686C25.7458 18.567 25.749 18.5646 25.7532 18.5617L26.21 19.2184ZM26.235 19.1994C26.2614 19.1802 26.2868 19.1592 26.2984 19.1499L25.797 18.5266C25.7763 18.5432 25.7703 18.5482 25.7631 18.5534L26.235 19.1994ZM26.3022 19.1469C26.3286 19.1251 26.3565 19.1008 26.3845 19.0742L25.8324 18.4952C25.8214 18.5057 25.8084 18.5171 25.7932 18.5297L26.3022 19.1469ZM26.3834 19.0752C26.407 19.0529 26.4306 19.0277 26.4398 19.018L25.8623 18.4645C25.8433 18.4843 25.8387 18.4892 25.8335 18.4942L26.3834 19.0752ZM26.4398 19.018C26.4648 18.992 26.4903 18.9635 26.5149 18.9332L25.8939 18.4289C25.8849 18.4399 25.8742 18.4521 25.8623 18.4645L26.4398 19.018ZM26.5153 18.9327C26.5325 18.9115 26.5505 18.8881 26.5689 18.8618L25.9131 18.4036C25.908 18.411 25.9018 18.4191 25.8935 18.4294L26.5153 18.9327ZM26.5658 18.8662C26.5882 18.835 26.6082 18.8045 26.627 18.774L25.9456 18.3549C25.9355 18.3713 25.926 18.3856 25.9162 18.3993L26.5658 18.8662ZM26.6244 18.7782C26.6374 18.7576 26.652 18.7337 26.6664 18.7077L25.9672 18.319C25.9622 18.328 25.956 18.3384 25.9482 18.3507L26.6244 18.7782ZM26.6676 18.7055C26.6883 18.6678 26.7049 18.6322 26.7178 18.6037L25.989 18.2738C25.9791 18.2957 25.9722 18.3099 25.966 18.3212L26.6676 18.7055ZM26.718 18.6032C26.7211 18.5963 26.7371 18.5624 26.7489 18.5327L26.0055 18.237C26.0026 18.2444 26.0018 18.2455 25.9888 18.2743L26.718 18.6032ZM26.7488 18.5328C26.7667 18.488 26.7795 18.4454 26.7875 18.419L26.0219 18.1868C26.0132 18.2157 26.0092 18.2277 26.0056 18.2368L26.7488 18.5328ZM26.7858 18.4246C26.7888 18.4153 26.7995 18.3832 26.8076 18.3533L26.0355 18.1439C26.0335 18.1512 26.0321 18.1548 26.0237 18.1812L26.7858 18.4246ZM26.8085 18.3498C26.8215 18.3001 26.8303 18.246 26.8338 18.2272L26.0468 18.0831C26.0389 18.1266 26.0376 18.1356 26.0345 18.1475L26.8085 18.3498ZM26.8349 18.2209C26.8348 18.2209 26.835 18.2201 26.8355 18.2173C26.8358 18.2159 26.8361 18.2144 26.8365 18.2123C26.8368 18.2104 26.8373 18.2079 26.8378 18.2052C26.8397 18.1951 26.8431 18.1768 26.8457 18.1554L26.0516 18.0582C26.0523 18.0533 26.0528 18.0511 26.0517 18.057C26.0514 18.0584 26.0511 18.0598 26.0507 18.0619C26.0504 18.0638 26.0499 18.0663 26.0494 18.0689C26.0484 18.0741 26.0471 18.0813 26.0457 18.0894L26.8349 18.2209ZM26.8456 18.1564C26.8532 18.0954 26.8584 18.0302 26.8584 17.9608H26.0584C26.0584 17.9902 26.0562 18.0216 26.0518 18.0572L26.8456 18.1564ZM26.8584 17.9608V10.0389H26.0584V17.9608H26.8584ZM26.8584 10.0389C26.8584 9.96995 26.8532 9.90436 26.8456 9.8433L26.0518 9.94253C26.0562 9.97811 26.0584 10.0099 26.0584 10.0389H26.8584ZM26.8456 9.8433C26.843 9.82223 26.8396 9.80413 26.8377 9.79443C26.8373 9.79187 26.8368 9.78937 26.8364 9.78751C26.836 9.78547 26.8357 9.78402 26.8355 9.78267C26.835 9.77997 26.8348 9.77914 26.8349 9.77919L26.0457 9.91071C26.0471 9.9188 26.0484 9.92598 26.0494 9.93127C26.0499 9.93392 26.0504 9.93645 26.0508 9.9384C26.0512 9.94052 26.0515 9.94201 26.0517 9.94343C26.0529 9.94966 26.0524 9.94749 26.0518 9.94253L26.8456 9.8433Z" fill="white"/>
</svg>
