<svg width="28" height="28" viewBox="0 0 28 28" fill="none" xmlns="http://www.w3.org/2000/svg">
<path fill-rule="evenodd" clip-rule="evenodd" d="M19.7124 12.6559L15.0704 9.41638V4.20491L23.4599 10.0407L19.7124 12.6559ZM21.6382 14L24.3172 12.1303V15.8694L21.6382 14ZM15.0704 18.5837L19.7124 15.3442L23.4599 17.9594L15.0704 23.7952V18.5837ZM8.28743 15.3442L12.9294 18.5837V23.7952L4.54034 17.9594L8.28743 15.3442ZM6.36165 14L3.68295 15.8694V12.1303L6.36165 14ZM12.9294 9.41638L8.28743 12.6559L4.54034 10.0407L12.9294 4.20491V9.41638ZM14.0001 16.6429L10.2131 14L14.0001 11.3568L17.7872 14L14.0001 16.6429ZM26.4403 9.84495C26.4346 9.81308 26.4296 9.78192 26.4215 9.75111C26.4165 9.73255 26.4104 9.71504 26.4047 9.69684C26.3963 9.66953 26.3879 9.64222 26.3772 9.61526C26.3698 9.59705 26.3614 9.57884 26.3534 9.56098C26.342 9.53577 26.3302 9.51091 26.3168 9.48675C26.3071 9.4689 26.2967 9.45209 26.2863 9.43493C26.2718 9.41182 26.2571 9.38906 26.241 9.36701C26.2292 9.3509 26.2172 9.33479 26.2044 9.31904C26.1876 9.29803 26.1695 9.27807 26.1511 9.25846C26.137 9.24341 26.1229 9.2287 26.1084 9.2147C26.089 9.19649 26.0685 9.17898 26.0477 9.16182C26.0316 9.14887 26.0158 9.13556 25.999 9.12366C25.9933 9.11911 25.9876 9.11386 25.9816 9.10965L14.5937 1.18776C14.2343 0.937413 13.7655 0.937413 13.4062 1.18776L2.01857 9.10965C2.01219 9.11386 2.00682 9.11911 2.00078 9.12366C1.984 9.13556 1.96823 9.14887 1.95213 9.16182C1.93166 9.17898 1.91085 9.19649 1.89173 9.2147C1.87696 9.2287 1.86287 9.24341 1.84911 9.25846C1.83032 9.27807 1.81254 9.29803 1.79542 9.31904C1.78267 9.33479 1.77059 9.3509 1.75885 9.36701C1.74274 9.38906 1.72798 9.41182 1.71355 9.43493C1.70315 9.45209 1.69275 9.4689 1.68335 9.48675C1.66959 9.51091 1.65785 9.53577 1.64678 9.56098C1.63872 9.57884 1.63 9.59705 1.62295 9.61526C1.61255 9.64222 1.60349 9.66953 1.5951 9.69684C1.5894 9.71504 1.58336 9.73255 1.57866 9.75111C1.57094 9.78192 1.56524 9.81308 1.55987 9.84495C1.55718 9.86105 1.55349 9.87681 1.55114 9.89291C1.5451 9.94123 1.54175 9.9899 1.54175 10.0389V17.9608C1.54175 18.0102 1.5451 18.0585 1.55114 18.1068C1.55349 18.1233 1.55718 18.139 1.55987 18.1551C1.56524 18.1863 1.57094 18.2178 1.57866 18.2486C1.58336 18.2672 1.5894 18.285 1.5951 18.3029C1.60349 18.3306 1.61255 18.3579 1.62295 18.3848C1.63 18.4034 1.63872 18.4209 1.64678 18.4388C1.65785 18.464 1.66959 18.4888 1.68335 18.5133C1.69275 18.5308 1.70315 18.548 1.71355 18.5645C1.72798 18.5879 1.74274 18.6103 1.75885 18.6327C1.77059 18.6495 1.78267 18.6653 1.79542 18.6811C1.81254 18.7017 1.83032 18.722 1.84911 18.7413C1.86287 18.756 1.87696 18.771 1.89173 18.7847C1.91085 18.8032 1.93166 18.8211 1.95213 18.8383C1.96823 18.8512 1.984 18.8642 2.00078 18.8764C2.00682 18.881 2.01219 18.8859 2.01857 18.8901L13.4062 26.812C13.586 26.9373 13.7927 27 14.0001 27C14.2071 27 14.4142 26.9373 14.5937 26.812L25.9816 18.8901C25.9876 18.8859 25.9933 18.881 25.999 18.8764C26.0158 18.8642 26.0316 18.8512 26.0477 18.8383C26.0685 18.8211 26.089 18.8032 26.1084 18.7847C26.1229 18.771 26.137 18.756 26.1511 18.7413C26.1695 18.722 26.1876 18.7017 26.2044 18.6811C26.2172 18.6653 26.2292 18.6495 26.241 18.6327C26.2571 18.6103 26.2718 18.5879 26.2863 18.5645C26.2967 18.548 26.3071 18.5308 26.3168 18.5133C26.3302 18.4888 26.342 18.464 26.3534 18.4388C26.3614 18.4209 26.3698 18.4034 26.3772 18.3848C26.3879 18.3579 26.3963 18.3306 26.4047 18.3029C26.4104 18.285 26.4165 18.2672 26.4215 18.2486C26.4296 18.2178 26.4346 18.1863 26.4403 18.1551C26.443 18.139 26.4467 18.1233 26.4487 18.1068C26.4547 18.0585 26.4584 18.0102 26.4584 17.9608V10.0389C26.4584 9.9899 26.4547 9.94123 26.4487 9.89291C26.4467 9.87681 26.443 9.86105 26.4403 9.84495Z" fill="#1B1B1B"/>
<path d="M19.7124 12.6559L19.4549 13.0249L19.7124 13.2046L19.97 13.0249L19.7124 12.6559ZM15.0704 9.41638H14.6204V9.65108L14.8129 9.7854L15.0704 9.41638ZM15.0704 4.20491L15.3274 3.83549L14.6204 3.34372V4.20491H15.0704ZM23.4599 10.0407L23.7174 10.4097L24.247 10.0401L23.7168 9.67126L23.4599 10.0407ZM21.6382 14L21.3807 13.631L20.8519 14.0001L21.3807 14.3691L21.6382 14ZM24.3172 12.1303H24.7672V11.2675L24.0597 11.7613L24.3172 12.1303ZM24.3172 15.8694L24.0597 16.2385L24.7672 16.7322V15.8694H24.3172ZM15.0704 18.5837L14.8129 18.2147L14.6204 18.349V18.5837H15.0704ZM19.7124 15.3442L19.97 14.9752L19.7124 14.7955L19.4549 14.9752L19.7124 15.3442ZM23.4599 17.9594L23.7168 18.3288L24.247 17.96L23.7174 17.5904L23.4599 17.9594ZM15.0704 23.7952H14.6204V24.6564L15.3274 24.1646L15.0704 23.7952ZM8.28743 15.3442L8.54496 14.9752L8.28742 14.7955L8.02989 14.9752L8.28743 15.3442ZM12.9294 18.5837H13.3794V18.349L13.187 18.2147L12.9294 18.5837ZM12.9294 23.7952L12.6725 24.1646L13.3794 24.6564V23.7952H12.9294ZM4.54034 17.9594L4.28279 17.5904L3.75319 17.96L4.28336 18.3288L4.54034 17.9594ZM6.36165 14L6.61918 14.3691L7.14792 14.0001L6.61921 13.631L6.36165 14ZM3.68295 15.8694H3.23295V16.7322L3.94048 16.2385L3.68295 15.8694ZM3.68295 12.1303L3.94051 11.7613L3.23295 11.2674V12.1303H3.68295ZM12.9294 9.41638L13.187 9.7854L13.3794 9.65108V9.41638H12.9294ZM8.28743 12.6559L8.02989 13.0249L8.28742 13.2046L8.54496 13.0249L8.28743 12.6559ZM4.54034 10.0407L4.28336 9.67126L3.75319 10.0401L4.28279 10.4097L4.54034 10.0407ZM12.9294 4.20491H13.3794V3.3437L12.6725 3.8355L12.9294 4.20491ZM14.0001 16.6429L13.7426 17.0119L14.0001 17.1916L14.2577 17.0119L14.0001 16.6429ZM10.2131 14L9.95555 13.631L9.42682 14.0001L9.95557 14.3691L10.2131 14ZM14.0001 11.3568L14.2577 10.9878L14.0001 10.8081L13.7426 10.9878L14.0001 11.3568ZM17.7872 14L18.0447 14.3691L18.5734 14.0001L18.0447 13.631L17.7872 14ZM26.4403 9.84495L26.8842 9.77093L26.8833 9.76566L26.4403 9.84495ZM26.4215 9.75111L26.8569 9.63732L26.8558 9.63331L26.4215 9.75111ZM26.4047 9.69684L25.9746 9.82899L25.9753 9.83134L26.4047 9.69684ZM26.3772 9.61526L26.7953 9.44876L26.7942 9.44615L26.3772 9.61526ZM26.3534 9.56098L26.7636 9.37596L26.7634 9.37546L26.3534 9.56098ZM26.3168 9.48675L25.9216 9.70206L25.9235 9.70532L26.3168 9.48675ZM26.2863 9.43493L26.6711 9.20163L26.668 9.1966L26.2863 9.43493ZM26.241 9.36701L25.8774 9.63215L25.8775 9.63236L26.241 9.36701ZM26.2044 9.31904L25.8528 9.59985L25.8546 9.60211L26.2044 9.31904ZM26.1511 9.25846L25.8225 9.56598L25.8234 9.56689L26.1511 9.25846ZM26.1084 9.2147L26.4219 8.89173L26.4159 8.88608L26.1084 9.2147ZM26.0477 9.16182L26.334 8.81463L26.3297 8.81118L26.0477 9.16182ZM25.999 9.12366L25.7184 9.47541L25.7283 9.48332L25.7386 9.49065L25.999 9.12366ZM25.9816 9.10965L25.7246 9.47906L25.7246 9.47907L25.9816 9.10965ZM14.5937 1.18776L14.3365 1.557L14.3367 1.55717L14.5937 1.18776ZM13.4062 1.18776L13.6631 1.55717L13.6634 1.557L13.4062 1.18776ZM2.01857 9.10965L2.26628 9.48551L2.27555 9.47906L2.01857 9.10965ZM2.00078 9.12366L2.2613 9.49081L2.27162 9.48303L2.00078 9.12366ZM1.95213 9.16182L1.67003 8.8111L1.66306 8.81695L1.95213 9.16182ZM1.89173 9.2147L2.20142 9.54118L2.202 9.54063L1.89173 9.2147ZM1.84911 9.25846L2.1741 9.56991L2.18132 9.56201L1.84911 9.25846ZM1.79542 9.31904L1.44653 9.03483L1.44562 9.03596L1.79542 9.31904ZM1.75885 9.36701L2.12228 9.63237L2.12245 9.63213L1.75885 9.36701ZM1.71355 9.43493L1.33181 9.19659L1.32875 9.20163L1.71355 9.43493ZM1.68335 9.48675L2.07439 9.70943L2.0781 9.70292L2.08159 9.69629L1.68335 9.48675ZM1.64678 9.56098L2.05701 9.74599L2.05878 9.74196L1.64678 9.56098ZM1.62295 9.61526L1.20328 9.45284L1.20312 9.45327L1.62295 9.61526ZM1.5951 9.69684L2.02453 9.83137L2.02526 9.82897L1.5951 9.69684ZM1.57866 9.75111L1.14242 9.64068L1.14214 9.64177L1.57866 9.75111ZM1.55987 9.84495L1.11612 9.77017L1.11599 9.77097L1.55987 9.84495ZM1.55114 9.89291L1.10576 9.82796L1.10462 9.8371L1.55114 9.89291ZM1.55114 18.1068L1.10455 18.1626L1.10566 18.1704L1.55114 18.1068ZM1.55987 18.1551L1.11598 18.2291L1.1164 18.2315L1.55987 18.1551ZM1.57866 18.2486L1.14214 18.358L1.14242 18.3591L1.57866 18.2486ZM1.5951 18.3029L2.02578 18.1723L2.02376 18.166L1.5951 18.3029ZM1.62295 18.3848L2.04365 18.2251L2.04279 18.2228L1.62295 18.3848ZM1.64678 18.4388L2.05881 18.2578L2.05699 18.2537L1.64678 18.4388ZM1.68335 18.5133L2.07992 18.3005L2.07576 18.2931L1.68335 18.5133ZM1.71355 18.5645L2.09688 18.3287L2.09393 18.324L1.71355 18.5645ZM1.75885 18.6327L2.12775 18.375L2.12426 18.3701L1.75885 18.6327ZM1.79542 18.6811L1.44559 18.9641L1.44888 18.9681L1.79542 18.6811ZM1.84911 18.7413L2.1778 18.4338L2.17118 18.427L1.84911 18.7413ZM1.89173 18.7847L2.20519 18.4616L2.19727 18.4543L1.89173 18.7847ZM1.95213 18.8383L1.663 19.1832L1.67009 19.1889L1.95213 18.8383ZM2.00078 18.8764L2.27168 18.517L2.26621 18.513L2.00078 18.8764ZM2.01857 18.8901L2.27563 18.5206L2.2662 18.5143L2.01857 18.8901ZM13.4062 26.812L13.6635 26.4428L13.6631 26.4426L13.4062 26.812ZM14.5937 26.812L14.3367 26.4426L14.336 26.443L14.5937 26.812ZM25.9816 18.8901L25.7246 18.5207L25.7246 18.5207L25.9816 18.8901ZM25.999 18.8764L25.7336 18.513L25.7259 18.5187L25.7183 18.5247L25.999 18.8764ZM26.0477 18.8383L26.3298 19.1889L26.334 19.1854L26.0477 18.8383ZM26.1084 18.7847L25.7991 18.4578L25.7979 18.459L26.1084 18.7847ZM26.1511 18.7413L25.8262 18.4299L25.8262 18.4299L26.1511 18.7413ZM26.2044 18.6811L26.5537 18.9647L26.5542 18.9641L26.2044 18.6811ZM26.241 18.6327L25.8755 18.3701L25.8721 18.375L26.241 18.6327ZM26.2863 18.5645L25.9059 18.324L25.903 18.3287L26.2863 18.5645ZM26.3168 18.5133L26.7102 18.7319L26.7115 18.7295L26.3168 18.5133ZM26.3534 18.4388L26.7634 18.6243L26.7636 18.6238L26.3534 18.4388ZM26.3772 18.3848L25.9591 18.2183L25.9591 18.2185L26.3772 18.3848ZM26.4047 18.3029L25.976 18.166L25.9741 18.1723L26.4047 18.3029ZM26.4215 18.2486L26.8558 18.3664L26.8569 18.3624L26.4215 18.2486ZM26.4403 18.1551L26.883 18.2362L26.8842 18.2292L26.4403 18.1551ZM26.4487 18.1068L26.0022 18.051L26.002 18.0522L26.4487 18.1068ZM26.4487 9.89291L26.0022 9.9487L26.0022 9.94874L26.4487 9.89291ZM19.97 12.2868L15.3279 9.04735L14.8129 9.7854L19.4549 13.0249L19.97 12.2868ZM15.5204 9.41638V4.20491H14.6204V9.41638H15.5204ZM14.8134 4.57432L23.2029 10.4101L23.7168 9.67126L15.3274 3.83549L14.8134 4.57432ZM23.2023 9.67165L19.4549 12.2868L19.97 13.0249L23.7174 10.4097L23.2023 9.67165ZM21.8957 14.3691L24.5748 12.4993L24.0597 11.7613L21.3807 13.631L21.8957 14.3691ZM23.8672 12.1303V15.8694H24.7672V12.1303H23.8672ZM24.5747 15.5004L21.8957 13.631L21.3807 14.3691L24.0597 16.2385L24.5747 15.5004ZM15.3279 18.9527L19.97 15.7133L19.4549 14.9752L14.8129 18.2147L15.3279 18.9527ZM19.4549 15.7133L23.2023 18.3284L23.7174 17.5904L19.97 14.9752L19.4549 15.7133ZM23.2029 17.59L14.8134 23.4258L15.3274 24.1646L23.7168 18.3288L23.2029 17.59ZM15.5204 23.7952V18.5837H14.6204V23.7952H15.5204ZM8.0299 15.7133L12.6719 18.9527L13.187 18.2147L8.54496 14.9752L8.0299 15.7133ZM12.4794 18.5837V23.7952H13.3794V18.5837H12.4794ZM13.1864 23.4258L4.79731 17.59L4.28336 18.3288L12.6725 24.1646L13.1864 23.4258ZM4.79788 18.3284L8.54498 15.7132L8.02989 14.9752L4.28279 17.5904L4.79788 18.3284ZM6.10412 13.631L3.42542 15.5004L3.94048 16.2385L6.61918 14.3691L6.10412 13.631ZM4.13295 15.8694V12.1303H3.23295V15.8694H4.13295ZM3.42539 12.4993L6.10409 14.369L6.61921 13.631L3.94051 11.7613L3.42539 12.4993ZM12.6719 9.04735L8.0299 12.2868L8.54496 13.0249L13.187 9.7854L12.6719 9.04735ZM8.54498 12.2868L4.79788 9.67166L4.28279 10.4097L8.02989 13.0249L8.54498 12.2868ZM4.79731 10.4101L13.1864 4.57432L12.6725 3.8355L4.28336 9.67126L4.79731 10.4101ZM12.4794 4.20491V9.41638H13.3794V4.20491H12.4794ZM14.2577 16.2739L10.4706 13.631L9.95557 14.3691L13.7426 17.0119L14.2577 16.2739ZM10.4707 14.3691L14.2577 11.7259L13.7426 10.9878L9.95555 13.631L10.4707 14.3691ZM13.7426 11.7259L17.5296 14.3691L18.0447 13.631L14.2577 10.9878L13.7426 11.7259ZM17.5296 13.631L13.7426 16.2739L14.2577 17.0119L18.0447 14.3691L17.5296 13.631ZM26.8833 9.76566C26.8795 9.7447 26.8707 9.69001 26.8569 9.63732L25.9861 9.86489C25.9885 9.87383 25.9897 9.88147 25.9973 9.92423L26.8833 9.76566ZM26.8558 9.63331C26.8478 9.60382 26.8348 9.56433 26.8342 9.56233L25.9753 9.83134C25.9773 9.83774 25.9792 9.84371 25.9807 9.84837C25.9824 9.85351 25.9834 9.85676 25.9845 9.86017C25.9855 9.86331 25.9862 9.8654 25.9866 9.8669C25.987 9.86835 25.9872 9.86894 25.9872 9.86891L26.8558 9.63331ZM26.8349 9.56468C26.8273 9.54011 26.8139 9.49541 26.7953 9.44877L25.9591 9.78174C25.962 9.78902 25.9653 9.79894 25.9746 9.82899L26.8349 9.56468ZM26.7942 9.44615C26.7827 9.41768 26.7694 9.38887 26.7636 9.37596L25.9432 9.74601C25.9535 9.76882 25.957 9.77642 25.9602 9.78436L26.7942 9.44615ZM26.7634 9.37546C26.7504 9.34679 26.7326 9.30864 26.7102 9.26819L25.9235 9.70532C25.9278 9.71318 25.9336 9.72476 25.9434 9.74651L26.7634 9.37546ZM26.712 9.27145C26.6959 9.24203 26.6784 9.21374 26.6711 9.20165L25.9015 9.66822C25.9149 9.69044 25.9182 9.69576 25.9217 9.70206L26.712 9.27145ZM26.668 9.1966C26.6512 9.16969 26.6298 9.13647 26.6044 9.10165L25.8775 9.63236C25.8843 9.64166 25.8925 9.65396 25.9046 9.67326L26.668 9.1966ZM26.6046 9.10186C26.5907 9.08277 26.5736 9.05996 26.5542 9.03596L25.8546 9.60211C25.8607 9.60963 25.8678 9.61902 25.8774 9.63215L26.6046 9.10186ZM26.556 9.03823C26.528 9.00311 26.5002 8.97287 26.4787 8.95004L25.8234 9.56689C25.8388 9.58328 25.8473 9.59295 25.8528 9.59985L26.556 9.03823ZM26.4796 8.95095C26.4635 8.93374 26.4438 8.91307 26.4218 8.89178L25.795 9.53761C25.8019 9.54433 25.8104 9.55308 25.8225 9.56598L26.4796 8.95095ZM26.4159 8.88608C26.3869 8.859 26.3586 8.83492 26.334 8.81466L25.7614 9.50899C25.7784 9.52304 25.791 9.53397 25.801 9.54331L26.4159 8.88608ZM26.3297 8.81118C26.3247 8.80713 26.2909 8.77897 26.2595 8.75666L25.7386 9.49065C25.7372 9.4896 25.7378 9.49001 25.7427 9.49393C25.7452 9.49586 25.7479 9.49807 25.7519 9.50129C25.7554 9.50418 25.7605 9.50834 25.7657 9.51247L26.3297 8.81118ZM26.2797 8.77191C26.2824 8.77407 26.2842 8.77554 26.2836 8.77508C26.2833 8.77481 26.2831 8.77467 26.282 8.77376C26.2812 8.77306 26.2798 8.77189 26.2782 8.77057C26.2728 8.76607 26.2579 8.75369 26.2386 8.74024L25.7246 9.47907C25.7175 9.47408 25.7119 9.46987 25.7085 9.46719C25.7052 9.46455 25.7029 9.46267 25.7027 9.46248C25.7025 9.46237 25.7026 9.4624 25.7032 9.46291C25.7035 9.46321 25.7048 9.46428 25.7059 9.4652C25.7082 9.46714 25.7128 9.47097 25.7184 9.47541L26.2797 8.77191ZM26.2386 8.74024L14.8506 0.818352L14.3367 1.55717L25.7246 9.47906L26.2386 8.74024ZM14.8509 0.818523C14.3369 0.460492 13.6629 0.460492 13.1489 0.818523L13.6634 1.557C13.8682 1.41433 14.1317 1.41433 14.3365 1.557L14.8509 0.818523ZM13.1492 0.818356L1.76158 8.74025L2.27555 9.47906L13.6631 1.55717L13.1492 0.818356ZM1.77093 8.73392C1.74575 8.75051 1.7269 8.7663 1.72179 8.77056C1.72038 8.77173 1.71883 8.77303 1.71858 8.77324C1.71799 8.77373 1.71828 8.77349 1.71884 8.77302C1.71993 8.77213 1.72408 8.76871 1.72995 8.76429L2.27162 9.48303C2.2805 9.47634 2.28759 9.47055 2.29158 9.46726C2.2936 9.4656 2.29533 9.46415 2.29618 9.46344C2.29684 9.46289 2.29681 9.46291 2.29718 9.4626C2.29738 9.46243 2.29739 9.46242 2.29731 9.46249C2.29721 9.46257 2.29388 9.46536 2.28906 9.46908C2.28404 9.47296 2.27623 9.47878 2.2662 9.48539L1.77093 8.73392ZM1.74037 8.75666C1.70894 8.77897 1.6751 8.80714 1.67009 8.81117L2.23416 9.51248C2.2393 9.50834 2.2444 9.50419 2.24796 9.5013C2.25194 9.49807 2.25466 9.49586 2.25708 9.49392C2.26199 9.49001 2.26268 9.4896 2.26119 9.49066L1.74037 8.75666ZM1.66306 8.81695C1.64392 8.83299 1.61244 8.85927 1.58145 8.88877L2.202 9.54063C2.20927 9.53371 2.2194 9.52497 2.2412 9.5067L1.66306 8.81695ZM1.58204 8.88821C1.55711 8.91186 1.53527 8.93483 1.51691 8.95492L2.18132 9.56201C2.19048 9.55199 2.19682 9.54554 2.20142 9.54118L1.58204 8.88821ZM1.52422 8.9471C1.49792 8.97454 1.47202 9.00354 1.44653 9.03483L2.14432 9.60324C2.15306 9.59252 2.16272 9.5816 2.17401 9.56982L1.52422 8.9471ZM1.44562 9.03596C1.4262 9.05995 1.40918 9.08277 1.39524 9.10188L2.12245 9.63213C2.13201 9.61903 2.13915 9.60964 2.14523 9.60212L1.44562 9.03596ZM1.39542 9.10164C1.36999 9.13647 1.34865 9.16969 1.33184 9.19661L2.09526 9.67326C2.10731 9.65396 2.1155 9.64166 2.12228 9.63237L1.39542 9.10164ZM1.32875 9.20163C1.32167 9.21331 1.30245 9.24426 1.28511 9.27722L2.08159 9.69629C2.08156 9.69635 2.0818 9.6959 2.08242 9.6948C2.08305 9.69368 2.08398 9.69206 2.08537 9.68972C2.08678 9.68733 2.08845 9.68455 2.09066 9.6809C2.09176 9.67908 2.09291 9.6772 2.09421 9.67505C2.09546 9.67299 2.0969 9.67062 2.09835 9.66824L1.32875 9.20163ZM1.29231 9.26407C1.26768 9.30733 1.24885 9.34795 1.23477 9.38001L2.05878 9.74196C2.06685 9.7236 2.07151 9.7145 2.07439 9.70943L1.29231 9.26407ZM1.23656 9.37599C1.23445 9.38067 1.21621 9.41943 1.20328 9.45284L2.04262 9.77767C2.04202 9.77921 2.04233 9.77827 2.04499 9.77233C2.04629 9.76944 2.04774 9.76627 2.04984 9.76169C2.05173 9.75756 2.05436 9.75182 2.05699 9.74598L1.23656 9.37599ZM1.20312 9.45327C1.18768 9.49328 1.17521 9.53127 1.16494 9.56471L2.02526 9.82897C2.03177 9.80778 2.03742 9.79116 2.04279 9.77724L1.20312 9.45327ZM1.16568 9.5623C1.16495 9.56465 1.15122 9.60592 1.14242 9.64068L2.0149 9.86154C2.01434 9.86376 2.01427 9.86364 2.01593 9.85834C2.01678 9.85563 2.01773 9.85267 2.01925 9.84793C2.02062 9.84367 2.02254 9.83767 2.02452 9.83137L1.16568 9.5623ZM1.14214 9.64177C1.13001 9.6902 1.12198 9.73541 1.11612 9.77017L2.00361 9.91972C2.00849 9.89075 2.01187 9.87364 2.01517 9.86044L1.14214 9.64177ZM1.11599 9.77097C1.11609 9.77037 1.11604 9.77071 1.11564 9.77282C1.11512 9.77555 1.11475 9.7774 1.11368 9.78288C1.11205 9.79127 1.10871 9.8084 1.10585 9.82798L1.99643 9.95785C1.99593 9.96132 1.99561 9.96252 1.99707 9.95499C1.99756 9.9525 1.99876 9.94638 1.99976 9.94112C2.00088 9.93524 2.0023 9.92758 2.00375 9.91892L1.11599 9.77097ZM1.10462 9.8371C1.09651 9.90196 1.09175 9.96935 1.09175 10.0389H1.99175C1.99175 10.0105 1.9937 9.98051 1.99767 9.94873L1.10462 9.8371ZM1.09175 10.0389V17.9608H1.99175V10.0389H1.09175ZM1.09175 17.9608C1.09175 18.0308 1.09652 18.0979 1.10462 18.1626L1.99767 18.051C1.99369 18.0192 1.99175 17.9896 1.99175 17.9608H1.09175ZM1.10566 18.1704C1.10852 18.1905 1.11188 18.2079 1.1136 18.2167C1.11473 18.2226 1.11504 18.2241 1.11562 18.2271C1.11604 18.2294 1.11609 18.2297 1.11599 18.2291L2.00374 18.0812C2.0023 18.0725 2.00089 18.0649 1.99979 18.0591C1.99884 18.0541 1.99758 18.0477 1.99716 18.0455C1.99578 18.0383 1.99611 18.0396 1.99663 18.0432L1.10566 18.1704ZM1.1164 18.2315C1.12191 18.2635 1.12999 18.3095 1.14214 18.358L2.01517 18.1393C2.01189 18.1262 2.00856 18.1091 2.00333 18.0787L1.1164 18.2315ZM1.14242 18.3591C1.15151 18.395 1.16391 18.4319 1.16644 18.4398L2.02376 18.166C2.02211 18.1608 2.02021 18.1549 2.0191 18.1515C2.01778 18.1474 2.01687 18.1445 2.01612 18.1421C2.01459 18.1372 2.01449 18.1366 2.0149 18.1382L1.14242 18.3591ZM1.16447 18.4335C1.17504 18.4683 1.18763 18.5067 1.20312 18.5468L2.04279 18.2228C2.03747 18.2091 2.03194 18.1928 2.02573 18.1723L1.16447 18.4335ZM1.20226 18.5446C1.21078 18.567 1.21927 18.5861 1.225 18.5987C1.23579 18.6223 1.23015 18.6095 1.23656 18.6238L2.05699 18.2537C2.05389 18.2469 2.05094 18.2405 2.04887 18.2361C2.04651 18.231 2.04522 18.2282 2.04397 18.2255C2.04157 18.2202 2.04217 18.2212 2.04365 18.2251L1.20226 18.5446ZM1.23476 18.6197C1.24896 18.652 1.26729 18.6915 1.29094 18.7336L2.07576 18.2931C2.07189 18.2862 2.06674 18.2759 2.05879 18.2578L1.23476 18.6197ZM1.28685 18.7261C1.30338 18.7569 1.32006 18.7841 1.33317 18.8049L2.09393 18.324C2.08624 18.3119 2.08211 18.3047 2.07985 18.3005L1.28685 18.7261ZM1.33025 18.8002C1.34957 18.8316 1.37027 18.8631 1.39344 18.8954L2.12426 18.3701C2.11522 18.3575 2.10639 18.3442 2.09685 18.3287L1.33025 18.8002ZM1.38998 18.8905C1.40917 18.9179 1.42795 18.9423 1.44562 18.9641L2.14523 18.398C2.1374 18.3883 2.13202 18.3811 2.12772 18.375L1.38998 18.8905ZM1.44888 18.9681C1.47105 18.9949 1.49718 19.025 1.52704 19.0556L2.17118 18.427C2.16346 18.4191 2.15403 18.4085 2.14197 18.394L1.44888 18.9681ZM1.5205 19.0487C1.53233 19.0614 1.55745 19.0885 1.58619 19.1151L2.19727 18.4543C2.19778 18.4548 2.19665 18.4538 2.19308 18.4501C2.18926 18.4462 2.18502 18.4416 2.17773 18.4338L1.5205 19.0487ZM1.57836 19.1076C1.60978 19.1381 1.64098 19.1646 1.66306 19.1831L2.2412 18.4934C2.22234 18.4776 2.21192 18.4684 2.2051 18.4617L1.57836 19.1076ZM1.67009 19.1889C1.68108 19.1978 1.70777 19.2197 1.73536 19.2398L2.26621 18.513C2.26024 18.5087 2.25538 18.5047 2.23416 18.4876L1.67009 19.1889ZM1.72991 19.2358C1.72621 19.233 1.72369 19.231 1.72357 19.2309C1.72353 19.2308 1.72358 19.2309 1.72446 19.2316C1.7251 19.2321 1.72653 19.2333 1.7281 19.2345C1.73392 19.2392 1.7499 19.252 1.77093 19.2658L2.2662 18.5143C2.2739 18.5194 2.27999 18.5238 2.28408 18.5269C2.28803 18.5299 2.29074 18.5321 2.291 18.5323C2.29112 18.5324 2.2911 18.5324 2.29031 18.5317C2.28974 18.5312 2.28834 18.5301 2.28686 18.5289C2.28383 18.5265 2.27837 18.5221 2.27165 18.5171L1.72991 19.2358ZM1.76158 19.2595L13.1492 27.1814L13.6631 26.4426L2.27555 18.5207L1.76158 19.2595ZM13.1489 27.1812C13.4046 27.3594 13.7013 27.45 14.0001 27.45V26.55C13.8842 26.55 13.7674 26.5152 13.6635 26.4428L13.1489 27.1812ZM14.0001 27.45C14.2984 27.45 14.5955 27.3595 14.8513 27.1809L14.336 26.443C14.2328 26.5151 14.1158 26.55 14.0001 26.55V27.45ZM14.8506 27.1814L26.2386 19.2595L25.7246 18.5207L14.3367 26.4426L14.8506 27.1814ZM26.2386 19.2595C26.2538 19.2489 26.2658 19.2394 26.2719 19.2345C26.275 19.232 26.2779 19.2297 26.2789 19.2288C26.2805 19.2276 26.2803 19.2277 26.2797 19.2282L25.7183 18.5247C25.715 18.5274 25.7119 18.5299 25.7106 18.5309C25.7088 18.5324 25.7088 18.5324 25.709 18.5323C25.7093 18.532 25.7155 18.5271 25.7246 18.5207L26.2386 19.2595ZM26.2645 19.2398C26.2921 19.2197 26.3187 19.1978 26.3297 19.1889L25.7657 18.4876C25.7445 18.5047 25.7396 18.5087 25.7336 18.513L26.2645 19.2398ZM26.334 19.1854C26.3611 19.1631 26.39 19.138 26.419 19.1104L25.7979 18.459C25.788 18.4685 25.7759 18.4791 25.7614 18.4911L26.334 19.1854ZM26.4177 19.1115C26.4425 19.0881 26.4674 19.0616 26.4759 19.0526L25.8262 18.4299C25.8066 18.4504 25.8032 18.454 25.7991 18.4578L26.4177 19.1115ZM26.4759 19.0526C26.5017 19.0257 26.5282 18.9962 26.5537 18.9647L25.8551 18.3974C25.8471 18.4072 25.8373 18.4183 25.8262 18.4299L26.4759 19.0526ZM26.5542 18.9641C26.5719 18.9423 26.5907 18.9179 26.6098 18.8905L25.8721 18.375C25.8678 18.3811 25.8624 18.3883 25.8546 18.398L26.5542 18.9641ZM26.6064 18.8954C26.6296 18.8631 26.6503 18.8316 26.6696 18.8002L25.903 18.3287C25.8934 18.3442 25.8846 18.3575 25.8756 18.3701L26.6064 18.8954ZM26.6667 18.8049C26.68 18.7838 26.6951 18.7591 26.7101 18.7319L25.9235 18.2947C25.9191 18.3026 25.9134 18.3122 25.9059 18.324L26.6667 18.8049ZM26.7115 18.7295C26.7331 18.6901 26.7503 18.6532 26.7634 18.6243L25.9434 18.2532C25.9337 18.2747 25.9274 18.2875 25.9221 18.2972L26.7115 18.7295ZM26.7636 18.6238C26.7661 18.6182 26.783 18.5823 26.7953 18.5512L25.9591 18.2185C25.959 18.2188 25.9581 18.221 25.9553 18.227C25.954 18.2301 25.9525 18.2334 25.9503 18.238C25.9484 18.2423 25.9458 18.2479 25.9432 18.2537L26.7636 18.6238ZM26.7953 18.5513C26.814 18.5043 26.8274 18.4598 26.8354 18.4335L25.9741 18.1723C25.9653 18.2014 25.9619 18.2114 25.9591 18.2183L26.7953 18.5513ZM26.8334 18.4398C26.836 18.4316 26.8473 18.3977 26.8558 18.3664L25.9872 18.1308C25.987 18.1317 25.9862 18.1342 25.9843 18.1403C25.9834 18.1433 25.9823 18.1466 25.9809 18.1511C25.9796 18.1551 25.9778 18.1606 25.9761 18.166L26.8334 18.4398ZM26.8569 18.3624C26.8705 18.3104 26.8798 18.2535 26.8829 18.2362L25.9976 18.0741C25.9894 18.1191 25.9886 18.1253 25.9861 18.1348L26.8569 18.3624ZM26.8842 18.2292C26.8841 18.2297 26.8841 18.2292 26.8846 18.2266C26.8849 18.2253 26.8852 18.2239 26.8856 18.2217C26.8859 18.2198 26.8864 18.2172 26.887 18.2145C26.8889 18.2041 26.8925 18.1845 26.8954 18.1614L26.002 18.0522C26.0028 18.0456 26.0036 18.0421 26.0025 18.0478C26.0023 18.049 26.002 18.0504 26.0016 18.0525C26.0013 18.0544 26.0008 18.0569 26.0003 18.0596C25.9993 18.065 25.9979 18.0725 25.9964 18.0811L26.8842 18.2292ZM26.8952 18.1626C26.903 18.1001 26.9084 18.0327 26.9084 17.9608H26.0084C26.0084 17.9877 26.0064 18.0169 26.0022 18.051L26.8952 18.1626ZM26.9084 17.9608V10.0389H26.0084V17.9608H26.9084ZM26.9084 10.0389C26.9084 9.96746 26.903 9.89975 26.8952 9.83709L26.0022 9.94874C26.0064 9.98272 26.0084 10.0123 26.0084 10.0389H26.9084ZM26.8952 9.83713C26.8924 9.81443 26.8888 9.79505 26.8869 9.78512C26.8864 9.78249 26.8859 9.77992 26.8855 9.77807C26.8851 9.77603 26.8849 9.77464 26.8846 9.77337C26.8841 9.77083 26.8841 9.77039 26.8842 9.77094L25.9964 9.91896C25.9979 9.92755 25.9993 9.93513 26.0003 9.94057C26.0008 9.9433 26.0013 9.9459 26.0017 9.94784C26.0021 9.94997 26.0024 9.95139 26.0026 9.95274C26.0038 9.95874 26.003 9.9553 26.0022 9.9487L26.8952 9.83713Z" fill="white"/>
</svg>
