<svg width="32" height="32" viewBox="0 0 32 32" fill="none" xmlns="http://www.w3.org/2000/svg">
<path fill-rule="evenodd" clip-rule="evenodd" d="M21.1894 14.7789L16.9724 11.8361V7.10173L24.5937 12.4032L21.1894 14.7789ZM22.9388 16.0001L25.3726 14.3015V17.6983L22.9388 16.0001ZM16.9724 20.1641L21.1894 17.2212L24.5937 19.5969L16.9724 24.8984V20.1641ZM10.8105 17.2212L15.0275 20.1641V24.8984L7.40643 19.5969L10.8105 17.2212ZM9.06097 16.0001L6.62752 17.6983V14.3015L9.06097 16.0001ZM15.0275 11.8361L10.8105 14.7789L7.40643 12.4032L15.0275 7.10173V11.8361ZM16.0001 18.4009L12.5597 16.0001L16.0001 13.5989L19.4404 16.0001L16.0001 18.4009ZM27.3013 12.2254C27.2961 12.1964 27.2916 12.1681 27.2842 12.1401C27.2797 12.1233 27.2742 12.1074 27.269 12.0908C27.2614 12.066 27.2538 12.0412 27.244 12.0167C27.2373 12.0002 27.2297 11.9836 27.2224 11.9674C27.212 11.9445 27.2013 11.9219 27.1891 11.9C27.1803 11.8838 27.1708 11.8685 27.1614 11.8529C27.1483 11.8319 27.1349 11.8112 27.1202 11.7912C27.1096 11.7766 27.0986 11.7619 27.087 11.7476C27.0718 11.7285 27.0553 11.7104 27.0385 11.6926C27.0257 11.6789 27.0129 11.6656 26.9998 11.6528C26.9822 11.6363 26.9636 11.6204 26.9447 11.6048C26.93 11.593 26.9157 11.581 26.9005 11.5701C26.8953 11.566 26.8901 11.5612 26.8846 11.5574L16.5393 4.36082C16.2128 4.13339 15.787 4.13339 15.4605 4.36082L5.11554 11.5574C5.10974 11.5612 5.10487 11.566 5.09938 11.5701C5.08414 11.581 5.06981 11.593 5.05518 11.6048C5.03658 11.6204 5.01769 11.6363 5.00031 11.6528C4.9869 11.6656 4.97409 11.6789 4.9616 11.6926C4.94453 11.7104 4.92837 11.7285 4.91282 11.7476C4.90124 11.7619 4.89027 11.7766 4.8796 11.7912C4.86497 11.8112 4.85155 11.8319 4.83845 11.8529C4.829 11.8685 4.81955 11.8838 4.81101 11.9C4.79851 11.9219 4.78784 11.9445 4.77778 11.9674C4.77047 11.9836 4.76254 12.0002 4.75614 12.0167C4.74669 12.0412 4.73846 12.066 4.73084 12.0908C4.72566 12.1074 4.72017 12.1233 4.7159 12.1401C4.70889 12.1681 4.70371 12.1964 4.69883 12.2254C4.6964 12.24 4.69304 12.2543 4.69091 12.269C4.68542 12.3129 4.68237 12.3571 4.68237 12.4016V19.5982C4.68237 19.643 4.68542 19.6869 4.69091 19.7308C4.69304 19.7458 4.6964 19.7601 4.69883 19.7747C4.70371 19.803 4.70889 19.8317 4.7159 19.8597C4.72017 19.8765 4.72566 19.8927 4.73084 19.909C4.73846 19.9341 4.74669 19.9589 4.75614 19.9834C4.76254 20.0003 4.77047 20.0162 4.77778 20.0324C4.78784 20.0553 4.79851 20.0779 4.81101 20.1001C4.81955 20.116 4.829 20.1316 4.83845 20.1466C4.85155 20.1679 4.86497 20.1882 4.8796 20.2086C4.89027 20.2239 4.90124 20.2382 4.91282 20.2525C4.92837 20.2713 4.94453 20.2897 4.9616 20.3072C4.97409 20.3206 4.9869 20.3342 5.00031 20.3466C5.01769 20.3635 5.03658 20.3797 5.05518 20.3953C5.06981 20.4071 5.08414 20.4188 5.09938 20.43C5.10487 20.4341 5.10974 20.4386 5.11554 20.4424L15.4605 27.639C15.6239 27.7529 15.8117 27.8098 16.0001 27.8098C16.1882 27.8098 16.3762 27.7529 16.5393 27.639L26.8846 20.4424C26.8901 20.4386 26.8953 20.4341 26.9005 20.43C26.9157 20.4188 26.93 20.4071 26.9447 20.3953C26.9636 20.3797 26.9822 20.3635 26.9998 20.3466C27.0129 20.3342 27.0257 20.3206 27.0385 20.3072C27.0553 20.2897 27.0718 20.2713 27.087 20.2525C27.0986 20.2382 27.1096 20.2239 27.1202 20.2086C27.1349 20.1882 27.1483 20.1679 27.1614 20.1466C27.1708 20.1316 27.1803 20.116 27.1891 20.1001C27.2013 20.0779 27.212 20.0553 27.2224 20.0324C27.2297 20.0162 27.2373 20.0003 27.244 19.9834C27.2538 19.9589 27.2614 19.9341 27.269 19.909C27.2742 19.8927 27.2797 19.8765 27.2842 19.8597C27.2916 19.8317 27.2961 19.803 27.3013 19.7747C27.3037 19.7601 27.3071 19.7458 27.3089 19.7308C27.3144 19.6869 27.3178 19.643 27.3178 19.5982V12.4016C27.3178 12.3571 27.3144 12.3129 27.3089 12.269C27.3071 12.2543 27.3037 12.24 27.3013 12.2254Z" fill="#505050"/>
<path d="M21.1894 14.7789L20.9891 15.066L21.1894 15.2057L21.3897 15.066L21.1894 14.7789ZM16.9724 11.8361H16.6224V12.0186L16.7721 12.1231L16.9724 11.8361ZM16.9724 7.10173L17.1722 6.8144L16.6224 6.43191V7.10173H16.9724ZM24.5937 12.4032L24.794 12.6902L25.206 12.4027L24.7936 12.1159L24.5937 12.4032ZM22.9388 16.0001L22.7385 15.713L22.3273 16.0001L22.7386 16.2871L22.9388 16.0001ZM25.3726 14.3015H25.7226V13.6304L25.1723 14.0145L25.3726 14.3015ZM25.3726 17.6983L25.1723 17.9853L25.7226 18.3693V17.6983H25.3726ZM16.9724 20.1641L16.7721 19.877L16.6224 19.9815V20.1641H16.9724ZM21.1894 17.2212L21.3897 16.9342L21.1894 16.7944L20.9891 16.9342L21.1894 17.2212ZM24.5937 19.5969L24.7936 19.8842L25.206 19.5974L24.794 19.3099L24.5937 19.5969ZM16.9724 24.8984H16.6224V25.5682L17.1722 25.1857L16.9724 24.8984ZM10.8105 17.2212L11.0108 16.9342L10.8104 16.7944L10.6101 16.9342L10.8105 17.2212ZM15.0275 20.1641H15.3775V19.9815L15.2278 19.877L15.0275 20.1641ZM15.0275 24.8984L14.8276 25.1857L15.3775 25.5682V24.8984H15.0275ZM7.40643 19.5969L7.20612 19.3099L6.7942 19.5974L7.20656 19.8842L7.40643 19.5969ZM9.06097 16.0001L9.26128 16.2871L9.67251 16.0001L9.2613 15.7131L9.06097 16.0001ZM6.62752 17.6983H6.27752V18.3694L6.82782 17.9853L6.62752 17.6983ZM6.62752 14.3015L6.82785 14.0145L6.27752 13.6304V14.3015H6.62752ZM15.0275 11.8361L15.2278 12.1231L15.3775 12.0186V11.8361H15.0275ZM10.8105 14.7789L10.6101 15.066L10.8104 15.2058L11.0108 15.066L10.8105 14.7789ZM7.40643 12.4032L7.20656 12.1159L6.7942 12.4027L7.20612 12.6902L7.40643 12.4032ZM15.0275 7.10173H15.3775V6.4319L14.8276 6.81441L15.0275 7.10173ZM16.0001 18.4009L15.7997 18.688L16.0001 18.8277L16.2004 18.688L16.0001 18.4009ZM12.5597 16.0001L12.3594 15.7131L11.9482 16.0001L12.3594 16.2871L12.5597 16.0001ZM16.0001 13.5989L16.2004 13.3119L16.0001 13.172L15.7997 13.3119L16.0001 13.5989ZM19.4404 16.0001L19.6407 16.2871L20.0519 16.0001L19.6407 15.7131L19.4404 16.0001ZM27.3013 12.2254L27.6466 12.1678L27.6458 12.1637L27.3013 12.2254ZM27.2842 12.1401L27.6229 12.0516L27.622 12.0485L27.2842 12.1401ZM27.269 12.0908L26.9344 12.1936L26.935 12.1955L27.269 12.0908ZM27.244 12.0167L27.5692 11.8872L27.5684 11.8852L27.244 12.0167ZM27.2224 11.9674L27.5414 11.8235L27.5412 11.8231L27.2224 11.9674ZM27.1891 11.9L26.8818 12.0675L26.8832 12.07L27.1891 11.9ZM27.1614 11.8529L27.4607 11.6714L27.4583 11.6675L27.1614 11.8529ZM27.1202 11.7912L26.8374 11.9974L26.8376 11.9976L27.1202 11.7912ZM27.087 11.7476L26.8135 11.966L26.8149 11.9678L27.087 11.7476ZM27.0385 11.6926L26.783 11.9318L26.7837 11.9325L27.0385 11.6926ZM26.9998 11.6528L27.2436 11.4017L27.2389 11.3972L26.9998 11.6528ZM26.9447 11.6048L27.1674 11.3348L27.164 11.3321L26.9447 11.6048ZM26.9005 11.5701L26.6822 11.8437L26.6899 11.8499L26.6979 11.8556L26.9005 11.5701ZM26.8846 11.5574L27.0845 11.2701L27.0845 11.2701L26.8846 11.5574ZM16.5393 4.36082L16.3393 4.648L16.3394 4.64814L16.5393 4.36082ZM15.4605 4.36082L15.6604 4.64813L15.6606 4.648L15.4605 4.36082ZM5.11554 11.5574L5.30819 11.8497L5.31541 11.8447L5.11554 11.5574ZM5.09938 11.5701L5.302 11.8557L5.31003 11.8497L5.09938 11.5701ZM5.05518 11.6048L4.83577 11.332L4.83034 11.3366L5.05518 11.6048ZM5.00031 11.6528L5.24119 11.9068L5.24163 11.9063L5.00031 11.6528ZM4.9616 11.6926L5.21436 11.9348L5.21997 11.9287L4.9616 11.6926ZM4.91282 11.7476L4.64146 11.5266L4.64075 11.5275L4.91282 11.7476ZM4.8796 11.7912L5.16227 11.9976L5.1624 11.9974L4.8796 11.7912ZM4.83845 11.8529L4.54154 11.6675L4.53916 11.6715L4.83845 11.8529ZM4.81101 11.9L5.11532 12.0733L5.12075 12.063L4.81101 11.9ZM4.77778 11.9674L5.09686 12.1113L5.09823 12.1082L4.77778 11.9674ZM4.75614 12.0167L4.42973 11.8904L4.4296 11.8907L4.75614 12.0167ZM4.73084 12.0908L5.06484 12.1955L5.06541 12.1936L4.73084 12.0908ZM4.7159 12.1401L4.37661 12.0542L4.37639 12.0551L4.7159 12.1401ZM4.69883 12.2254L4.3537 12.1672L4.3536 12.1678L4.69883 12.2254ZM4.69091 12.269L4.3445 12.2184L4.34361 12.2255L4.69091 12.269ZM4.69091 19.7308L4.34356 19.7743L4.34442 19.7803L4.69091 19.7308ZM4.69883 19.7747L4.35359 19.8323L4.35392 19.8342L4.69883 19.7747ZM4.7159 19.8597L4.37639 19.9447L4.37661 19.9456L4.7159 19.8597ZM4.73084 19.909L5.06581 19.8074L5.06424 19.8025L4.73084 19.909ZM4.75614 19.9834L5.08335 19.8591L5.08268 19.8574L4.75614 19.9834ZM4.77778 20.0324L5.09825 19.8916L5.09684 19.8885L4.77778 20.0324ZM4.81101 20.1001L5.11946 19.9346L5.11622 19.9288L4.81101 20.1001ZM4.83845 20.1466L5.13659 19.9632L5.1343 19.9596L4.83845 20.1466ZM4.8796 20.2086L5.16652 20.0081L5.1638 20.0043L4.8796 20.2086ZM4.91282 20.2525L4.64074 20.4727L4.64329 20.4758L4.91282 20.2525ZM4.9616 20.3072L5.21724 20.068L5.2121 20.0628L4.9616 20.3072ZM5.00031 20.3466L5.2441 20.0954L5.23796 20.0897L5.00031 20.3466ZM5.05518 20.3953L4.8303 20.6636L4.83581 20.668L5.05518 20.3953ZM5.09938 20.43L5.31005 20.1504L5.30582 20.1473L5.09938 20.43ZM5.11554 20.4424L5.31547 20.155L5.30813 20.1501L5.11554 20.4424ZM15.4605 27.639L15.6606 27.3518L15.6604 27.3517L15.4605 27.639ZM16.5393 27.639L16.3394 27.3517L16.3389 27.352L16.5393 27.639ZM26.8846 20.4424L27.0845 20.7297L27.0845 20.7297L26.8846 20.4424ZM26.9005 20.43L26.694 20.1473L26.688 20.1517L26.6822 20.1564L26.9005 20.43ZM26.9447 20.3953L27.164 20.6681L27.1673 20.6653L26.9447 20.3953ZM26.9998 20.3466L26.7592 20.0924L26.7583 20.0933L26.9998 20.3466ZM27.0385 20.3072L27.2912 20.5494L27.0385 20.3072ZM27.087 20.2525L27.3587 20.4731L27.3591 20.4727L27.087 20.2525ZM27.1202 20.2086L26.836 20.0043L26.8333 20.0081L27.1202 20.2086ZM27.1614 20.1466L26.8655 19.9595L26.8633 19.9632L27.1614 20.1466ZM27.1891 20.1001L27.4951 20.2702L27.4961 20.2682L27.1891 20.1001ZM27.2224 20.0324L27.5412 20.1767L27.5414 20.1763L27.2224 20.0324ZM27.244 19.9834L26.9188 19.8539L26.9188 19.854L27.244 19.9834ZM27.269 19.909L26.9356 19.8024L26.9341 19.8074L27.269 19.909ZM27.2842 19.8597L27.622 19.9513L27.6229 19.9482L27.2842 19.8597ZM27.3013 19.7747L27.6456 19.8378L27.6465 19.8323L27.3013 19.7747ZM27.3089 19.7308L26.9616 19.6874L26.9615 19.6883L27.3089 19.7308ZM27.3089 12.269L26.9616 12.3124L27.3089 12.269ZM21.3897 14.4919L17.1727 11.549L16.7721 12.1231L20.9891 15.066L21.3897 14.4919ZM17.3224 11.8361V7.10173H16.6224V11.8361H17.3224ZM16.7725 7.38905L24.3939 12.6905L24.7936 12.1159L17.1722 6.8144L16.7725 7.38905ZM24.3934 12.1162L20.9891 14.4919L21.3897 15.066L24.794 12.6902L24.3934 12.1162ZM23.1392 16.2871L25.5729 14.5885L25.1723 14.0145L22.7385 15.713L23.1392 16.2871ZM25.0226 14.3015V17.6983H25.7226V14.3015H25.0226ZM25.5729 17.4113L23.1391 15.713L22.7386 16.2871L25.1723 17.9853L25.5729 17.4113ZM17.1727 20.4511L21.3897 17.5082L20.9891 16.9342L16.7721 19.877L17.1727 20.4511ZM20.9891 17.5082L24.3934 19.8839L24.794 19.3099L21.3897 16.9342L20.9891 17.5082ZM24.3939 19.3096L16.7725 24.6111L17.1722 25.1857L24.7936 19.8842L24.3939 19.3096ZM17.3224 24.8984V20.1641H16.6224V24.8984H17.3224ZM10.6102 17.5082L14.8272 20.4511L15.2278 19.877L11.0108 16.9342L10.6102 17.5082ZM14.6775 20.1641V24.8984H15.3775V20.1641H14.6775ZM15.2273 24.6111L7.6063 19.3096L7.20656 19.8842L14.8276 25.1857L15.2273 24.6111ZM7.60674 19.8839L11.0108 17.5082L10.6101 16.9342L7.20612 19.3099L7.60674 19.8839ZM8.86067 15.713L6.42722 17.4113L6.82782 17.9853L9.26128 16.2871L8.86067 15.713ZM6.97752 17.6983V14.3015H6.27752V17.6983H6.97752ZM6.4272 14.5885L8.86065 16.2871L9.2613 15.7131L6.82785 14.0145L6.4272 14.5885ZM14.8272 11.549L10.6102 14.4919L11.0108 15.066L15.2278 12.1231L14.8272 11.549ZM11.0108 14.4919L7.60674 12.1162L7.20612 12.6902L10.6101 15.066L11.0108 14.4919ZM7.6063 12.6905L15.2273 7.38905L14.8276 6.81441L7.20656 12.1159L7.6063 12.6905ZM14.6775 7.10173V11.8361H15.3775V7.10173H14.6775ZM16.2004 18.1139L12.76 15.713L12.3594 16.2871L15.7997 18.688L16.2004 18.1139ZM12.7601 16.2871L16.2004 13.8859L15.7997 13.3119L12.3594 15.7131L12.7601 16.2871ZM15.7997 13.8859L19.24 16.2871L19.6407 15.7131L16.2004 13.3119L15.7997 13.8859ZM19.2401 15.713L15.7997 18.1139L16.2004 18.688L19.6407 16.2871L19.2401 15.713ZM27.6458 12.1637C27.6422 12.1433 27.6346 12.0966 27.6229 12.0516L26.9456 12.2286C26.9485 12.2396 26.9501 12.2496 26.9568 12.2871L27.6458 12.1637ZM27.622 12.0485C27.6151 12.0231 27.6042 11.9902 27.603 11.9862L26.935 12.1955C26.9441 12.2246 26.9442 12.2234 26.9464 12.2318L27.622 12.0485ZM27.6036 11.9881C27.5966 11.9654 27.585 11.927 27.5692 11.8872L26.9188 12.1462C26.9225 12.1554 26.9262 12.1667 26.9344 12.1936L27.6036 11.9881ZM27.5684 11.8852C27.5584 11.8607 27.547 11.8359 27.5414 11.8235L26.9033 12.1113C26.9124 12.1314 26.9162 12.1397 26.9196 12.1482L27.5684 11.8852ZM27.5412 11.8231C27.5296 11.7975 27.5143 11.7646 27.4951 11.73L26.8832 12.07C26.8883 12.0793 26.8943 12.0915 26.9035 12.1117L27.5412 11.8231ZM27.4965 11.7325C27.4827 11.7073 27.4678 11.6831 27.4607 11.6715L26.8621 12.0344C26.8739 12.0539 26.8779 12.0602 26.8818 12.0675L27.4965 11.7325ZM27.4583 11.6675C27.4433 11.6436 27.4248 11.6148 27.4029 11.5848L26.8376 11.9976C26.845 12.0077 26.8533 12.0202 26.8645 12.0383L27.4583 11.6675ZM27.403 11.585C27.3907 11.568 27.3759 11.5482 27.3591 11.5275L26.8149 11.9678C26.8213 11.9757 26.8285 11.9851 26.8374 11.9974L27.403 11.585ZM27.3605 11.5292C27.3365 11.4992 27.3125 11.473 27.2934 11.4527L26.7837 11.9325C26.7981 11.9478 26.807 11.9579 26.8135 11.966L27.3605 11.5292ZM27.2941 11.4534C27.2797 11.4381 27.2625 11.4201 27.2436 11.4017L26.7561 11.904C26.7633 11.911 26.7718 11.9198 26.783 11.9318L27.2941 11.4534ZM27.2389 11.3972C27.2139 11.3738 27.1892 11.3528 27.1673 11.3348L26.722 11.8748C26.7379 11.888 26.7504 11.8988 26.7607 11.9084L27.2389 11.3972ZM27.164 11.3321C27.158 11.3272 27.1296 11.3036 27.103 11.2847L26.6979 11.8556C26.6979 11.8555 26.6995 11.8567 26.7043 11.8606C26.7067 11.8625 26.7094 11.8646 26.713 11.8676C26.7163 11.8702 26.7208 11.8739 26.7253 11.8775L27.164 11.3321ZM27.1188 11.2966C27.1207 11.2981 27.1218 11.2991 27.1212 11.2986C27.1209 11.2983 27.1207 11.2981 27.1197 11.2973C27.119 11.2967 27.1178 11.2957 27.1165 11.2946C27.1119 11.2908 27.0999 11.2808 27.0845 11.2701L26.6847 11.8447C26.6794 11.841 26.6753 11.8379 26.6728 11.8359C26.6715 11.8349 26.6705 11.8341 26.6699 11.8336C26.6693 11.8331 26.6689 11.8328 26.6688 11.8327C26.6688 11.8327 26.6689 11.8328 26.6695 11.8333C26.6699 11.8336 26.671 11.8345 26.6719 11.8353C26.6739 11.837 26.6776 11.8401 26.6822 11.8437L27.1188 11.2966ZM27.0845 11.2701L16.7392 4.0735L16.3394 4.64814L26.6847 11.8447L27.0845 11.2701ZM16.7394 4.07363C16.2927 3.76245 15.7072 3.76245 15.2605 4.07363L15.6606 4.648C15.8668 4.50433 16.133 4.50433 16.3393 4.648L16.7394 4.07363ZM15.2606 4.0735L4.91566 11.2701L5.31541 11.8447L15.6604 4.64813L15.2606 4.0735ZM4.92294 11.2652C4.90293 11.2784 4.88788 11.2909 4.88353 11.2946C4.88234 11.2956 4.88104 11.2966 4.88075 11.2969C4.8802 11.2974 4.88033 11.2972 4.88067 11.297C4.88133 11.2964 4.88437 11.2939 4.88873 11.2906L5.31003 11.8497C5.31713 11.8443 5.32284 11.8396 5.32614 11.8369C5.3278 11.8356 5.32924 11.8343 5.33 11.8337C5.33056 11.8332 5.33058 11.8332 5.33092 11.8329C5.33112 11.8328 5.33118 11.8327 5.33116 11.8327C5.33114 11.8328 5.33054 11.8333 5.32961 11.834C5.32867 11.8348 5.32719 11.836 5.32531 11.8374C5.3216 11.8403 5.31573 11.8446 5.30813 11.8497L4.92294 11.2652ZM4.89684 11.2847C4.8702 11.3036 4.84183 11.3272 4.83581 11.3321L5.27454 11.8775C5.27906 11.8739 5.28356 11.8702 5.28685 11.8676C5.29046 11.8646 5.2931 11.8625 5.29551 11.8606C5.30038 11.8567 5.30198 11.8555 5.30192 11.8556L4.89684 11.2847ZM4.83034 11.3366C4.81279 11.3513 4.78559 11.374 4.75899 11.3993L5.24163 11.9063C5.24978 11.8986 5.26038 11.8895 5.28001 11.873L4.83034 11.3366ZM4.75943 11.3989C4.73812 11.4191 4.71929 11.4389 4.70322 11.4565L5.21997 11.9287C5.2289 11.9189 5.23568 11.912 5.24119 11.9068L4.75943 11.3989ZM4.7089 11.4504C4.68599 11.4743 4.66352 11.4995 4.64146 11.5266L5.18419 11.9687C5.19322 11.9576 5.20306 11.9465 5.21429 11.9348L4.7089 11.4504ZM4.64075 11.5275C4.62398 11.5482 4.60916 11.568 4.5968 11.585L5.1624 11.9974C5.17137 11.9851 5.1785 11.9757 5.18489 11.9678L4.64075 11.5275ZM4.59693 11.5848C4.57505 11.6148 4.55652 11.6436 4.54156 11.6675L5.13533 12.0383C5.14659 12.0202 5.15488 12.0077 5.16227 11.9976L4.59693 11.5848ZM4.53916 11.6715C4.53229 11.6828 4.51598 11.7091 4.50127 11.737L5.12075 12.063C5.12311 12.0585 5.1257 12.0542 5.13773 12.0344L4.53916 11.6715ZM4.50687 11.7268C4.48591 11.7636 4.46974 11.7984 4.45733 11.8267L5.09823 12.1082C5.10595 12.0906 5.11111 12.0803 5.11516 12.0732L4.50687 11.7268ZM4.45873 11.8235C4.45603 11.8295 4.44071 11.862 4.42973 11.8904L5.08255 12.143C5.08255 12.1431 5.0833 12.1411 5.0859 12.1353C5.08718 12.1325 5.08858 12.1294 5.09048 12.1253C5.09221 12.1215 5.09453 12.1164 5.09684 12.1113L4.45873 11.8235ZM4.4296 11.8907C4.41624 11.9254 4.40535 11.9585 4.39627 11.9881L5.06541 12.1936C5.07157 12.1736 5.07714 12.1571 5.08268 12.1427L4.4296 11.8907ZM4.39685 11.9862C4.39553 11.9904 4.38406 12.0248 4.37661 12.0542L5.0552 12.226C5.05507 12.2265 5.05537 12.2253 5.05703 12.22C5.05787 12.2173 5.0588 12.2144 5.06017 12.2101C5.06142 12.2062 5.06311 12.201 5.06483 12.1955L4.39685 11.9862ZM4.37639 12.0551C4.36595 12.0968 4.35896 12.136 4.3537 12.1672L5.04397 12.2835C5.04847 12.2568 5.05184 12.2395 5.05542 12.2252L4.37639 12.0551ZM4.3536 12.1678C4.3536 12.1678 4.35356 12.1681 4.35347 12.1686C4.35338 12.1691 4.35324 12.1698 4.35304 12.1709C4.35254 12.1735 4.35215 12.1755 4.35122 12.1802C4.34974 12.1878 4.34695 12.2022 4.34457 12.2185L5.03724 12.3195C5.037 12.3211 5.03695 12.321 5.0383 12.3141C5.03878 12.3117 5.03981 12.3064 5.04069 12.3018C5.04166 12.2967 5.04286 12.2902 5.04407 12.2829L4.3536 12.1678ZM4.34361 12.2255C4.33652 12.2823 4.33237 12.3411 4.33237 12.4016H5.03237C5.03237 12.3731 5.03433 12.3434 5.03821 12.3124L4.34361 12.2255ZM4.33237 12.4016V19.5982H5.03237V12.4016H4.33237ZM4.33237 19.5982C4.33237 19.6591 4.33652 19.7175 4.34361 19.7742L5.03821 19.6874C5.03432 19.6563 5.03237 19.627 5.03237 19.5982H4.33237ZM4.34442 19.7803C4.3468 19.797 4.34961 19.8115 4.35115 19.8195C4.35213 19.8246 4.35248 19.8263 4.35302 19.8292C4.35323 19.8302 4.35337 19.831 4.35347 19.8315C4.35356 19.8321 4.3536 19.8323 4.3536 19.8323L5.04407 19.7172C5.04286 19.7099 5.04167 19.7035 5.04071 19.6984C5.03987 19.6941 5.03879 19.6885 5.03837 19.6863C5.03708 19.6797 5.03715 19.6797 5.0374 19.6814L4.34442 19.7803ZM4.35392 19.8342C4.3589 19.8631 4.36593 19.9029 4.37639 19.9447L5.05542 19.7746C5.05185 19.7604 5.04852 19.743 5.04375 19.7153L4.35392 19.8342ZM4.37661 19.9456C4.38429 19.9759 4.39472 20.007 4.39744 20.0155L5.06424 19.8025C5.06278 19.7979 5.06111 19.7927 5.06006 19.7895C5.05884 19.7857 5.05795 19.7829 5.05717 19.7804C5.05562 19.7754 5.05519 19.7737 5.0552 19.7738L4.37661 19.9456ZM4.3959 20.0105C4.40522 20.0413 4.4162 20.0746 4.4296 20.1094L5.08268 19.8574C5.07719 19.8432 5.0717 19.8269 5.06578 19.8074L4.3959 20.0105ZM4.42894 20.1076C4.43603 20.1263 4.44314 20.1423 4.44813 20.1533C4.45705 20.1728 4.45322 20.1641 4.45873 20.1763L5.09684 19.8885C5.09417 19.8826 5.09161 19.877 5.08973 19.873C5.08762 19.8684 5.08635 19.8657 5.08511 19.863C5.08271 19.8577 5.08266 19.8573 5.08335 19.8591L4.42894 20.1076ZM4.45733 20.1731C4.46982 20.2016 4.48561 20.2355 4.5058 20.2714L5.11622 19.9288C5.11141 19.9203 5.10587 19.909 5.09823 19.8916L4.45733 20.1731ZM4.50262 20.2656C4.5167 20.2919 4.53104 20.3153 4.54259 20.3336L5.1343 19.9596C5.12695 19.9479 5.12239 19.9402 5.11941 19.9346L4.50262 20.2656ZM4.54032 20.3299C4.55723 20.3574 4.57526 20.3849 4.59539 20.4129L5.1638 20.0043C5.15467 19.9916 5.14587 19.9783 5.13657 19.9632L4.54032 20.3299ZM4.5927 20.4091C4.60916 20.4326 4.62534 20.4536 4.64075 20.4727L5.18489 20.0323C5.17714 20.0227 5.17137 20.0151 5.16649 20.0081L4.5927 20.4091ZM4.64329 20.4758C4.66276 20.4993 4.68542 20.5253 4.71109 20.5516L5.2121 20.0628C5.20364 20.0541 5.19398 20.0432 5.18236 20.0292L4.64329 20.4758ZM4.70601 20.5463C4.71702 20.5581 4.73839 20.5811 4.76266 20.6036L5.23796 20.0897C5.2354 20.0873 5.23117 20.083 5.21719 20.0681L4.70601 20.5463ZM4.75659 20.5978C4.78352 20.624 4.8105 20.6469 4.83034 20.6635L5.28001 20.1271C5.26267 20.1125 5.25185 20.103 5.24403 20.0954L4.75659 20.5978ZM4.83581 20.668C4.84647 20.6766 4.86928 20.6953 4.89294 20.7126L5.30582 20.1473C5.29899 20.1424 5.29315 20.1376 5.27454 20.1226L4.83581 20.668ZM4.88873 20.7095C4.88732 20.7084 4.88622 20.7076 4.8855 20.707C4.8848 20.7065 4.88436 20.7061 4.88436 20.7061C4.88435 20.7061 4.88441 20.7061 4.88457 20.7063C4.88476 20.7064 4.88496 20.7066 4.88533 20.7069C4.88592 20.7074 4.88712 20.7083 4.88844 20.7094C4.89333 20.7133 4.90615 20.7236 4.92294 20.7346L5.30813 20.1501C5.31392 20.154 5.31846 20.1573 5.32145 20.1595C5.32432 20.1617 5.32624 20.1632 5.32625 20.1632C5.32628 20.1632 5.32625 20.1632 5.32611 20.1631C5.32595 20.163 5.32576 20.1628 5.32543 20.1625C5.32489 20.1621 5.32371 20.1612 5.32245 20.1601C5.3199 20.1581 5.31546 20.1546 5.31003 20.1505L4.88873 20.7095ZM4.91566 20.7297L15.2606 27.9263L15.6604 27.3517L5.31541 20.1551L4.91566 20.7297ZM15.2604 27.9261C15.4829 28.0812 15.7406 28.1598 16.0001 28.1598V27.4598C15.8828 27.4598 15.765 27.4245 15.6606 27.3518L15.2604 27.9261ZM16.0001 28.1598C16.2592 28.1598 16.5173 28.0812 16.7397 27.9259L16.3389 27.352C16.2351 27.4245 16.1171 27.4598 16.0001 27.4598V28.1598ZM16.7392 27.9263L27.0845 20.7297L26.6847 20.1551L16.3394 27.3517L16.7392 27.9263ZM27.0845 20.7297C27.0967 20.7212 27.1064 20.7135 27.1116 20.7094C27.1141 20.7073 27.1166 20.7053 27.1176 20.7045C27.1189 20.7034 27.119 20.7034 27.1188 20.7036L26.6822 20.1564C26.6793 20.1587 26.6768 20.1607 26.6756 20.1617C26.6748 20.1623 26.6744 20.1626 26.6741 20.1629C26.6737 20.1632 26.6737 20.1633 26.6737 20.1632C26.6738 20.1631 26.6749 20.1623 26.6767 20.1609C26.6784 20.1596 26.6812 20.1576 26.6847 20.1551L27.0845 20.7297ZM27.1069 20.7126C27.1306 20.6953 27.1534 20.6766 27.164 20.668L26.7253 20.1226C26.7067 20.1376 26.7008 20.1424 26.694 20.1473L27.1069 20.7126ZM27.1673 20.6653C27.1911 20.6457 27.2163 20.6239 27.2414 20.5999L26.7583 20.0933C26.748 20.1031 26.736 20.1137 26.722 20.1253L27.1673 20.6653ZM27.2404 20.6008C27.2615 20.5808 27.2827 20.5583 27.2912 20.5494L26.7858 20.065C26.7688 20.0828 26.7643 20.0876 26.7592 20.0924L27.2404 20.6008ZM27.2912 20.5494C27.3137 20.5259 27.3366 20.5003 27.3587 20.4731L26.8153 20.0318C26.8069 20.0422 26.7969 20.0535 26.7858 20.065L27.2912 20.5494ZM27.3591 20.4727C27.3745 20.4536 27.3907 20.4326 27.4071 20.4091L26.8333 20.0081C26.8285 20.0151 26.8227 20.0227 26.8149 20.0323L27.3591 20.4727ZM27.4044 20.4129C27.4246 20.3849 27.4426 20.3574 27.4595 20.3299L26.8633 19.9632C26.854 19.9783 26.8452 19.9916 26.836 20.0043L27.4044 20.4129ZM27.4572 20.3336C27.469 20.315 27.4821 20.2935 27.495 20.2702L26.8832 19.9301C26.8785 19.9385 26.8727 19.9482 26.8655 19.9596L27.4572 20.3336ZM27.4961 20.2682C27.5146 20.2344 27.5295 20.2025 27.5412 20.1767L26.9035 19.8881C26.8944 19.9081 26.888 19.9213 26.8821 19.932L27.4961 20.2682ZM27.5414 20.1763C27.5444 20.1697 27.5586 20.1394 27.5692 20.1128L26.9188 19.854C26.916 19.8611 26.915 19.8627 26.9033 19.8885L27.5414 20.1763ZM27.5692 20.1129C27.5851 20.0728 27.5966 20.0346 27.6039 20.0105L26.9341 19.8074C26.9261 19.8336 26.9224 19.845 26.9188 19.8539L27.5692 20.1129ZM27.6024 20.0155C27.6052 20.0067 27.6148 19.978 27.622 19.9513L26.9464 19.768C26.9446 19.775 26.9431 19.7788 26.9356 19.8025L27.6024 20.0155ZM27.6229 19.9482C27.6345 19.9036 27.6424 19.8553 27.6456 19.8378L26.957 19.7117C26.9499 19.7508 26.9486 19.7597 26.9456 19.7712L27.6229 19.9482ZM27.6465 19.8323C27.6465 19.8323 27.6466 19.832 27.6467 19.8314C27.6468 19.8308 27.647 19.83 27.6472 19.8287C27.6474 19.8274 27.6477 19.8261 27.6481 19.8242C27.6484 19.8224 27.6488 19.8201 27.6493 19.8177C27.651 19.8086 27.654 19.7924 27.6563 19.7733L26.9615 19.6883C26.962 19.6843 26.9624 19.6826 26.9614 19.6881C26.9612 19.6893 26.9609 19.6907 26.9606 19.6925C26.9602 19.6943 26.9598 19.6965 26.9593 19.6989C26.9585 19.7036 26.9573 19.71 26.9561 19.7172L27.6465 19.8323ZM27.6562 19.7742C27.6631 19.7193 27.6678 19.6606 27.6678 19.5982H26.9678C26.9678 19.6255 26.9657 19.6546 26.9616 19.6874L27.6562 19.7742ZM27.6678 19.5982V12.4016H26.9678V19.5982H27.6678ZM27.6678 12.4016C27.6678 12.3396 27.6631 12.2806 27.6562 12.2255L26.9616 12.3124C26.9657 12.3451 26.9678 12.3745 26.9678 12.4016H27.6678ZM27.6562 12.2255C27.6539 12.2068 27.6509 12.1907 27.6492 12.182C27.6488 12.1797 27.6484 12.1774 27.648 12.1757C27.6477 12.1739 27.6474 12.1725 27.6472 12.1713C27.647 12.1701 27.6468 12.1693 27.6467 12.1687C27.6466 12.1681 27.6465 12.1678 27.6465 12.1678L26.9561 12.2829C26.9573 12.2901 26.9585 12.2966 26.9594 12.3013C26.9598 12.3037 26.9603 12.306 26.9606 12.3078C26.961 12.3097 26.9612 12.311 26.9615 12.3124C26.9626 12.3181 26.9621 12.3164 26.9616 12.3124L27.6562 12.2255Z" fill="white"/>
</svg>
