<svg width="28" height="28" viewBox="0 0 28 28" fill="none" xmlns="http://www.w3.org/2000/svg">
<path fill-rule="evenodd" clip-rule="evenodd" d="M19.1894 12.7789L14.9724 9.83605V5.10173L22.5937 10.4032L19.1894 12.7789ZM20.9388 14.0001L23.3726 12.3015V15.6983L20.9388 14.0001ZM14.9724 18.1641L19.1894 15.2212L22.5937 17.5969L14.9724 22.8984V18.1641ZM8.81045 15.2212L13.0275 18.1641V22.8984L5.40643 17.5969L8.81045 15.2212ZM7.06097 14.0001L4.62752 15.6983V12.3015L7.06097 14.0001ZM13.0275 9.83605L8.81045 12.7789L5.40643 10.4032L13.0275 5.10173V9.83605ZM14.0001 16.4009L10.5597 14.0001L14.0001 11.5989L17.4404 14.0001L14.0001 16.4009ZM25.3013 10.2254C25.2961 10.1964 25.2916 10.1681 25.2842 10.1401C25.2797 10.1233 25.2742 10.1074 25.269 10.0908C25.2614 10.066 25.2538 10.0412 25.244 10.0167C25.2373 10.0002 25.2297 9.98364 25.2224 9.96742C25.212 9.94452 25.2013 9.92193 25.1891 9.89999C25.1803 9.88377 25.1708 9.8685 25.1614 9.85291C25.1483 9.83192 25.1349 9.81124 25.1202 9.7912C25.1096 9.77657 25.0986 9.76194 25.087 9.74763C25.0718 9.72854 25.0553 9.71041 25.0385 9.6926C25.0257 9.67892 25.0129 9.66556 24.9998 9.65284C24.9822 9.6363 24.9636 9.62039 24.9447 9.60481C24.93 9.59304 24.9157 9.58095 24.9005 9.57014C24.8953 9.566 24.8901 9.56123 24.8846 9.55741L14.5393 2.36082C14.2128 2.13339 13.787 2.13339 13.4605 2.36082L3.11554 9.55741C3.10974 9.56123 3.10487 9.566 3.09938 9.57014C3.08414 9.58095 3.06981 9.59304 3.05518 9.60481C3.03658 9.62039 3.01769 9.6363 3.00031 9.65284C2.9869 9.66556 2.97409 9.67892 2.9616 9.6926C2.94453 9.71041 2.92837 9.72854 2.91282 9.74763C2.90124 9.76194 2.89027 9.77657 2.8796 9.7912C2.86497 9.81124 2.85155 9.83192 2.83845 9.85291C2.829 9.8685 2.81955 9.88377 2.81101 9.89999C2.79851 9.92193 2.78784 9.94452 2.77778 9.96742C2.77047 9.98364 2.76254 10.0002 2.75614 10.0167C2.74669 10.0412 2.73846 10.066 2.73084 10.0908C2.72566 10.1074 2.72017 10.1233 2.7159 10.1401C2.70889 10.1681 2.70371 10.1964 2.69883 10.2254C2.6964 10.24 2.69304 10.2543 2.69091 10.269C2.68542 10.3129 2.68237 10.3571 2.68237 10.4016V17.5982C2.68237 17.643 2.68542 17.6869 2.69091 17.7308C2.69304 17.7458 2.6964 17.7601 2.69883 17.7747C2.70371 17.803 2.70889 17.8317 2.7159 17.8597C2.72017 17.8765 2.72566 17.8927 2.73084 17.909C2.73846 17.9341 2.74669 17.9589 2.75614 17.9834C2.76254 18.0003 2.77047 18.0162 2.77778 18.0324C2.78784 18.0553 2.79851 18.0779 2.81101 18.1001C2.81955 18.116 2.829 18.1316 2.83845 18.1466C2.85155 18.1679 2.86497 18.1882 2.8796 18.2086C2.89027 18.2239 2.90124 18.2382 2.91282 18.2525C2.92837 18.2713 2.94453 18.2897 2.9616 18.3072C2.97409 18.3206 2.9869 18.3342 3.00031 18.3466C3.01769 18.3635 3.03658 18.3797 3.05518 18.3953C3.06981 18.4071 3.08414 18.4188 3.09938 18.43C3.10487 18.4341 3.10974 18.4386 3.11554 18.4424L13.4605 25.639C13.6239 25.7529 13.8117 25.8098 14.0001 25.8098C14.1882 25.8098 14.3762 25.7529 14.5393 25.639L24.8846 18.4424C24.8901 18.4386 24.8953 18.4341 24.9005 18.43C24.9157 18.4188 24.93 18.4071 24.9447 18.3953C24.9636 18.3797 24.9822 18.3635 24.9998 18.3466C25.0129 18.3342 25.0257 18.3206 25.0385 18.3072C25.0553 18.2897 25.0718 18.2713 25.087 18.2525C25.0986 18.2382 25.1096 18.2239 25.1202 18.2086C25.1349 18.1882 25.1483 18.1679 25.1614 18.1466C25.1708 18.1316 25.1803 18.116 25.1891 18.1001C25.2013 18.0779 25.212 18.0553 25.2224 18.0324C25.2297 18.0162 25.2373 18.0003 25.244 17.9834C25.2538 17.9589 25.2614 17.9341 25.269 17.909C25.2742 17.8927 25.2797 17.8765 25.2842 17.8597C25.2916 17.8317 25.2961 17.803 25.3013 17.7747C25.3037 17.7601 25.3071 17.7458 25.3089 17.7308C25.3144 17.6869 25.3178 17.643 25.3178 17.5982V10.4016C25.3178 10.3571 25.3144 10.3129 25.3089 10.269C25.3071 10.2543 25.3037 10.24 25.3013 10.2254Z" fill="#1B1B1B"/>
<path d="M19.1894 12.7789L18.9891 13.066L19.1894 13.2057L19.3897 13.066L19.1894 12.7789ZM14.9724 9.83605H14.6224V10.0186L14.7721 10.1231L14.9724 9.83605ZM14.9724 5.10173L15.1722 4.8144L14.6224 4.43191V5.10173H14.9724ZM22.5937 10.4032L22.794 10.6902L23.206 10.4027L22.7936 10.1159L22.5937 10.4032ZM20.9388 14.0001L20.7385 13.713L20.3273 14.0001L20.7386 14.2871L20.9388 14.0001ZM23.3726 12.3015H23.7226V11.6304L23.1723 12.0145L23.3726 12.3015ZM23.3726 15.6983L23.1723 15.9853L23.7226 16.3693V15.6983H23.3726ZM14.9724 18.1641L14.7721 17.877L14.6224 17.9815V18.1641H14.9724ZM19.1894 15.2212L19.3897 14.9342L19.1894 14.7944L18.9891 14.9342L19.1894 15.2212ZM22.5937 17.5969L22.7936 17.8842L23.206 17.5974L22.794 17.3099L22.5937 17.5969ZM14.9724 22.8984H14.6224V23.5682L15.1722 23.1857L14.9724 22.8984ZM8.81045 15.2212L9.01075 14.9342L8.81045 14.7944L8.61014 14.9342L8.81045 15.2212ZM13.0275 18.1641H13.3775V17.9815L13.2278 17.877L13.0275 18.1641ZM13.0275 22.8984L12.8276 23.1857L13.3775 23.5682V22.8984H13.0275ZM5.40643 17.5969L5.20612 17.3099L4.7942 17.5974L5.20656 17.8842L5.40643 17.5969ZM7.06097 14.0001L7.26128 14.2871L7.67251 14.0001L7.2613 13.7131L7.06097 14.0001ZM4.62752 15.6983H4.27752V16.3694L4.82782 15.9853L4.62752 15.6983ZM4.62752 12.3015L4.82785 12.0145L4.27752 11.6304V12.3015H4.62752ZM13.0275 9.83605L13.2278 10.1231L13.3775 10.0186V9.83605H13.0275ZM8.81045 12.7789L8.61014 13.066L8.81045 13.2058L9.01075 13.066L8.81045 12.7789ZM5.40643 10.4032L5.20656 10.1159L4.7942 10.4027L5.20612 10.6902L5.40643 10.4032ZM13.0275 5.10173H13.3775V4.4319L12.8276 4.81441L13.0275 5.10173ZM14.0001 16.4009L13.7997 16.688L14.0001 16.8277L14.2004 16.688L14.0001 16.4009ZM10.5597 14.0001L10.3594 13.7131L9.9482 14.0001L10.3594 14.2871L10.5597 14.0001ZM14.0001 11.5989L14.2004 11.3119L14.0001 11.172L13.7997 11.3119L14.0001 11.5989ZM17.4404 14.0001L17.6407 14.2871L18.0519 14.0001L17.6407 13.7131L17.4404 14.0001ZM25.3013 10.2254L25.6466 10.1678L25.6458 10.1637L25.3013 10.2254ZM25.2842 10.1401L25.6229 10.0516L25.622 10.0485L25.2842 10.1401ZM25.269 10.0908L24.9344 10.1936L24.935 10.1955L25.269 10.0908ZM25.244 10.0167L25.5692 9.88722L25.5684 9.88521L25.244 10.0167ZM25.2224 9.96742L25.5414 9.82353L25.5412 9.82312L25.2224 9.96742ZM25.1891 9.89999L24.8818 10.0675L24.8832 10.07L25.1891 9.89999ZM25.1614 9.85291L25.4607 9.67144L25.4583 9.66755L25.1614 9.85291ZM25.1202 9.7912L24.8374 9.99741L24.8376 9.9976L25.1202 9.7912ZM25.087 9.74763L24.8135 9.96604L24.8149 9.9678L25.087 9.74763ZM25.0385 9.6926L24.783 9.93178L24.7837 9.93248L25.0385 9.6926ZM24.9998 9.65284L25.2436 9.40165L25.2389 9.39725L24.9998 9.65284ZM24.9447 9.60481L25.1674 9.33476L25.164 9.33208L24.9447 9.60481ZM24.9005 9.57014L24.6822 9.84371L24.6899 9.84987L24.6979 9.85558L24.9005 9.57014ZM24.8846 9.55741L25.0845 9.2701L25.0845 9.27009L24.8846 9.55741ZM14.5393 2.36082L14.3393 2.648L14.3394 2.64814L14.5393 2.36082ZM13.4605 2.36082L13.6604 2.64813L13.6606 2.648L13.4605 2.36082ZM3.11554 9.55741L3.30819 9.84975L3.31541 9.84473L3.11554 9.55741ZM3.09938 9.57014L3.302 9.8557L3.31003 9.84965L3.09938 9.57014ZM3.05518 9.60481L2.83577 9.33203L2.83034 9.33657L3.05518 9.60481ZM3.00031 9.65284L3.24119 9.90676L3.24163 9.90634L3.00031 9.65284ZM2.9616 9.6926L3.21436 9.93483L3.21997 9.92869L2.9616 9.6926ZM2.91282 9.74763L2.64146 9.52658L2.64075 9.52745L2.91282 9.74763ZM2.8796 9.7912L3.16227 9.9976L3.1624 9.99741L2.8796 9.7912ZM2.83845 9.85291L2.54154 9.66753L2.53916 9.67145L2.83845 9.85291ZM2.81101 9.89999L3.11532 10.0733L3.12075 10.063L2.81101 9.89999ZM2.77778 9.96742L3.09686 10.1113L3.09823 10.1082L2.77778 9.96742ZM2.75614 10.0167L2.42973 9.8904L2.4296 9.89074L2.75614 10.0167ZM2.73084 10.0908L3.06484 10.1955L3.06541 10.1936L2.73084 10.0908ZM2.7159 10.1401L2.37661 10.0542L2.37639 10.0551L2.7159 10.1401ZM2.69883 10.2254L2.3537 10.1672L2.3536 10.1678L2.69883 10.2254ZM2.69091 10.269L2.3445 10.2184L2.34361 10.2255L2.69091 10.269ZM2.69091 17.7308L2.34356 17.7743L2.34442 17.7803L2.69091 17.7308ZM2.69883 17.7747L2.35359 17.8323L2.35392 17.8342L2.69883 17.7747ZM2.7159 17.8597L2.37639 17.9447L2.37661 17.9456L2.7159 17.8597ZM2.73084 17.909L3.06581 17.8074L3.06424 17.8025L2.73084 17.909ZM2.75614 17.9834L3.08335 17.8591L3.08268 17.8574L2.75614 17.9834ZM2.77778 18.0324L3.09825 17.8916L3.09684 17.8885L2.77778 18.0324ZM2.81101 18.1001L3.11946 17.9346L3.11622 17.9288L2.81101 18.1001ZM2.83845 18.1466L3.13659 17.9632L3.1343 17.9596L2.83845 18.1466ZM2.8796 18.2086L3.16652 18.0081L3.1638 18.0043L2.8796 18.2086ZM2.91282 18.2525L2.64074 18.4727L2.64329 18.4758L2.91282 18.2525ZM2.9616 18.3072L3.21724 18.068L3.2121 18.0628L2.9616 18.3072ZM3.00031 18.3466L3.2441 18.0954L3.23796 18.0897L3.00031 18.3466ZM3.05518 18.3953L2.8303 18.6636L2.83581 18.668L3.05518 18.3953ZM3.09938 18.43L3.31005 18.1504L3.30582 18.1473L3.09938 18.43ZM3.11554 18.4424L3.31547 18.155L3.30813 18.1501L3.11554 18.4424ZM13.4605 25.639L13.6606 25.3518L13.6604 25.3517L13.4605 25.639ZM14.5393 25.639L14.3394 25.3517L14.3389 25.352L14.5393 25.639ZM24.8846 18.4424L25.0845 18.7297L25.0845 18.7297L24.8846 18.4424ZM24.9005 18.43L24.694 18.1473L24.688 18.1517L24.6822 18.1564L24.9005 18.43ZM24.9447 18.3953L25.164 18.6681L25.1673 18.6653L24.9447 18.3953ZM24.9998 18.3466L24.7592 18.0924L24.7583 18.0933L24.9998 18.3466ZM25.0385 18.3072L25.2912 18.5494L25.0385 18.3072ZM25.087 18.2525L25.3587 18.4731L25.3591 18.4727L25.087 18.2525ZM25.1202 18.2086L24.836 18.0043L24.8333 18.0081L25.1202 18.2086ZM25.1614 18.1466L24.8655 17.9595L24.8633 17.9632L25.1614 18.1466ZM25.1891 18.1001L25.4951 18.2702L25.4961 18.2682L25.1891 18.1001ZM25.2224 18.0324L25.5412 18.1767L25.5414 18.1763L25.2224 18.0324ZM25.244 17.9834L24.9188 17.8539L24.9188 17.854L25.244 17.9834ZM25.269 17.909L24.9356 17.8024L24.9341 17.8074L25.269 17.909ZM25.2842 17.8597L25.622 17.9513L25.6229 17.9482L25.2842 17.8597ZM25.3013 17.7747L25.6456 17.8378L25.6465 17.8323L25.3013 17.7747ZM25.3089 17.7308L24.9616 17.6874L24.9615 17.6883L25.3089 17.7308ZM25.3089 10.269L24.9616 10.3124L25.3089 10.269ZM19.3897 12.4919L15.1727 9.54903L14.7721 10.1231L18.9891 13.066L19.3897 12.4919ZM15.3224 9.83605V5.10173H14.6224V9.83605H15.3224ZM14.7725 5.38905L22.3939 10.6905L22.7936 10.1159L15.1722 4.8144L14.7725 5.38905ZM22.3934 10.1162L18.9891 12.4919L19.3897 13.066L22.794 10.6902L22.3934 10.1162ZM21.1392 14.2871L23.5729 12.5885L23.1723 12.0145L20.7385 13.713L21.1392 14.2871ZM23.0226 12.3015V15.6983H23.7226V12.3015H23.0226ZM23.5729 15.4113L21.1391 13.713L20.7386 14.2871L23.1723 15.9853L23.5729 15.4113ZM15.1727 18.4511L19.3897 15.5082L18.9891 14.9342L14.7721 17.877L15.1727 18.4511ZM18.9891 15.5082L22.3934 17.8839L22.794 17.3099L19.3897 14.9342L18.9891 15.5082ZM22.3939 17.3096L14.7725 22.6111L15.1722 23.1857L22.7936 17.8842L22.3939 17.3096ZM15.3224 22.8984V18.1641H14.6224V22.8984H15.3224ZM8.61015 15.5082L12.8272 18.4511L13.2278 17.877L9.01075 14.9342L8.61015 15.5082ZM12.6775 18.1641V22.8984H13.3775V18.1641H12.6775ZM13.2273 22.6111L5.6063 17.3096L5.20656 17.8842L12.8276 23.1857L13.2273 22.6111ZM5.60674 17.8839L9.01077 15.5082L8.61014 14.9342L5.20612 17.3099L5.60674 17.8839ZM6.86067 13.713L4.42722 15.4113L4.82782 15.9853L7.26128 14.2871L6.86067 13.713ZM4.97752 15.6983V12.3015H4.27752V15.6983H4.97752ZM4.4272 12.5885L6.86065 14.2871L7.2613 13.7131L4.82785 12.0145L4.4272 12.5885ZM12.8272 9.54903L8.61015 12.4919L9.01075 13.066L13.2278 10.1231L12.8272 9.54903ZM9.01077 12.4919L5.60674 10.1162L5.20612 10.6902L8.61014 13.066L9.01077 12.4919ZM5.6063 10.6905L13.2273 5.38905L12.8276 4.81441L5.20656 10.1159L5.6063 10.6905ZM12.6775 5.10173V9.83605H13.3775V5.10173H12.6775ZM14.2004 16.1139L10.76 13.713L10.3594 14.2871L13.7997 16.688L14.2004 16.1139ZM10.7601 14.2871L14.2004 11.8859L13.7997 11.3119L10.3594 13.7131L10.7601 14.2871ZM13.7997 11.8859L17.24 14.2871L17.6407 13.7131L14.2004 11.3119L13.7997 11.8859ZM17.2401 13.713L13.7997 16.1139L14.2004 16.688L17.6407 14.2871L17.2401 13.713ZM25.6458 10.1637C25.6422 10.1433 25.6346 10.0966 25.6229 10.0516L24.9456 10.2286C24.9485 10.2396 24.9501 10.2496 24.9568 10.2871L25.6458 10.1637ZM25.622 10.0485C25.6151 10.0231 25.6042 9.9902 25.603 9.9862L24.935 10.1955C24.9441 10.2246 24.9442 10.2234 24.9464 10.2318L25.622 10.0485ZM25.6036 9.98807C25.5966 9.96537 25.585 9.92703 25.5692 9.88722L24.9188 10.1462C24.9225 10.1554 24.9262 10.1667 24.9344 10.1936L25.6036 9.98807ZM25.5684 9.88521C25.5584 9.86068 25.547 9.83586 25.5414 9.82353L24.9033 10.1113C24.9124 10.1314 24.9162 10.1397 24.9196 10.1482L25.5684 9.88521ZM25.5412 9.82312C25.5296 9.79752 25.5143 9.76462 25.4951 9.73001L24.8832 10.07C24.8883 10.0793 24.8943 10.0915 24.9035 10.1117L25.5412 9.82312ZM25.4965 9.73251C25.4827 9.70731 25.4678 9.68314 25.4607 9.67145L24.8621 10.0344C24.8739 10.0539 24.8779 10.0602 24.8818 10.0675L25.4965 9.73251ZM25.4583 9.66755C25.4433 9.64359 25.4248 9.61478 25.4029 9.58481L24.8376 9.9976C24.845 10.0077 24.8533 10.0202 24.8645 10.0383L25.4583 9.66755ZM25.403 9.58499C25.3907 9.56803 25.3759 9.54817 25.3591 9.52745L24.8149 9.9678C24.8213 9.97571 24.8285 9.98511 24.8374 9.99741L25.403 9.58499ZM25.3605 9.52921C25.3365 9.49916 25.3125 9.47303 25.2934 9.45271L24.7837 9.93248C24.7981 9.94779 24.807 9.95792 24.8135 9.96604L25.3605 9.52921ZM25.2941 9.45342C25.2797 9.43806 25.2625 9.42007 25.2436 9.4017L24.7561 9.90398C24.7633 9.91105 24.7718 9.91978 24.783 9.93178L25.2941 9.45342ZM25.2389 9.39725C25.2139 9.37381 25.1892 9.35279 25.1673 9.33478L24.722 9.87483C24.7379 9.88799 24.7504 9.89879 24.7607 9.90843L25.2389 9.39725ZM25.164 9.33208C25.158 9.32724 25.1296 9.3036 25.103 9.28469L24.6979 9.85558C24.6979 9.85554 24.6995 9.85668 24.7043 9.86056C24.7067 9.86249 24.7094 9.86463 24.713 9.86757C24.7163 9.87024 24.7208 9.8739 24.7253 9.87753L25.164 9.33208ZM25.1188 9.29656C25.1207 9.29809 25.1218 9.29908 25.1212 9.29856C25.1209 9.29827 25.1207 9.29808 25.1197 9.2973C25.119 9.29667 25.1178 9.29568 25.1165 9.29457C25.1119 9.29076 25.0999 9.28083 25.0845 9.2701L24.6847 9.84473C24.6794 9.84099 24.6753 9.83786 24.6728 9.83593C24.6715 9.83494 24.6705 9.83414 24.6699 9.83362C24.6693 9.8331 24.6689 9.83277 24.6688 9.83274C24.6688 9.83273 24.6689 9.83283 24.6695 9.8333C24.6699 9.83361 24.671 9.83453 24.6719 9.83532C24.6739 9.83698 24.6776 9.84012 24.6822 9.84371L25.1188 9.29656ZM25.0845 9.27009L14.7392 2.0735L14.3394 2.64814L24.6847 9.84473L25.0845 9.27009ZM14.7394 2.07363C14.2927 1.76245 13.7072 1.76245 13.2605 2.07363L13.6606 2.648C13.8668 2.50433 14.133 2.50433 14.3393 2.648L14.7394 2.07363ZM13.2606 2.0735L2.91566 9.2701L3.31541 9.84473L13.6604 2.64813L13.2606 2.0735ZM2.92294 9.26517C2.90293 9.27835 2.88788 9.29095 2.88353 9.29457C2.88234 9.29556 2.88104 9.29665 2.88075 9.29689C2.8802 9.29736 2.88033 9.29724 2.88067 9.29696C2.88133 9.29642 2.88437 9.29391 2.88873 9.29062L3.31003 9.84965C3.31713 9.84429 3.32284 9.83964 3.32614 9.83692C3.3278 9.83555 3.32924 9.83434 3.33 9.83371C3.33056 9.83324 3.33058 9.83322 3.33092 9.83294C3.33112 9.83277 3.33118 9.83273 3.33116 9.83274C3.33114 9.83276 3.33054 9.83326 3.32961 9.83401C3.32867 9.83477 3.32719 9.83595 3.32531 9.8374C3.3216 9.84027 3.31573 9.84465 3.30813 9.84966L2.92294 9.26517ZM2.89684 9.28469C2.8702 9.3036 2.84183 9.32725 2.83581 9.33208L3.27454 9.87753C3.27906 9.8739 3.28356 9.87024 3.28685 9.86757C3.29046 9.86463 3.2931 9.86249 3.29551 9.86056C3.30038 9.85668 3.30198 9.85554 3.30192 9.85558L2.89684 9.28469ZM2.83034 9.33657C2.81279 9.35129 2.78559 9.37401 2.75899 9.39933L3.24163 9.90634C3.24978 9.89858 3.26038 9.8895 3.28001 9.87304L2.83034 9.33657ZM2.75943 9.39891C2.73812 9.41913 2.71929 9.43891 2.70322 9.4565L3.21997 9.92869C3.2289 9.91893 3.23568 9.91199 3.24119 9.90676L2.75943 9.39891ZM2.7089 9.45043C2.68599 9.47433 2.66352 9.4995 2.64146 9.52658L3.18419 9.96867C3.19322 9.95759 3.20306 9.94649 3.21429 9.93477L2.7089 9.45043ZM2.64075 9.52745C2.62398 9.54817 2.60916 9.56803 2.5968 9.58499L3.1624 9.99741C3.17137 9.98511 3.1785 9.97571 3.18489 9.9678L2.64075 9.52745ZM2.59693 9.58481C2.57505 9.61478 2.55652 9.64359 2.54156 9.66755L3.13533 10.0383C3.14659 10.0202 3.15488 10.0077 3.16227 9.9976L2.59693 9.58481ZM2.53916 9.67145C2.53229 9.68278 2.51598 9.70905 2.50127 9.73702L3.12075 10.063C3.12311 10.0585 3.1257 10.0542 3.13773 10.0344L2.53916 9.67145ZM2.50687 9.72679C2.48591 9.76359 2.46974 9.79843 2.45733 9.82667L3.09823 10.1082C3.10595 10.0906 3.11111 10.0803 3.11516 10.0732L2.50687 9.72679ZM2.45873 9.82353C2.45603 9.82951 2.44071 9.86204 2.42973 9.8904L3.08255 10.143C3.08255 10.1431 3.0833 10.1411 3.0859 10.1353C3.08718 10.1325 3.08858 10.1294 3.09048 10.1253C3.09221 10.1215 3.09453 10.1164 3.09684 10.1113L2.45873 9.82353ZM2.4296 9.89074C2.41624 9.92537 2.40535 9.9585 2.39627 9.98807L3.06541 10.1936C3.07157 10.1736 3.07714 10.1571 3.08268 10.1427L2.4296 9.89074ZM2.39685 9.9862C2.39553 9.99041 2.38406 10.0248 2.37661 10.0542L3.0552 10.226C3.05507 10.2265 3.05537 10.2253 3.05703 10.22C3.05787 10.2173 3.0588 10.2144 3.06017 10.2101C3.06142 10.2062 3.06311 10.201 3.06483 10.1955L2.39685 9.9862ZM2.37639 10.0551C2.36595 10.0968 2.35896 10.136 2.3537 10.1672L3.04397 10.2835C3.04847 10.2568 3.05184 10.2395 3.05542 10.2252L2.37639 10.0551ZM2.3536 10.1678C2.3536 10.1678 2.35356 10.1681 2.35347 10.1686C2.35338 10.1691 2.35324 10.1698 2.35304 10.1709C2.35254 10.1735 2.35215 10.1755 2.35122 10.1802C2.34974 10.1878 2.34695 10.2022 2.34457 10.2185L3.03724 10.3195C3.037 10.3211 3.03695 10.321 3.0383 10.3141C3.03878 10.3117 3.03981 10.3064 3.04069 10.3018C3.04166 10.2967 3.04286 10.2902 3.04407 10.2829L2.3536 10.1678ZM2.34361 10.2255C2.33652 10.2823 2.33237 10.3411 2.33237 10.4016H3.03237C3.03237 10.3731 3.03433 10.3434 3.03821 10.3124L2.34361 10.2255ZM2.33237 10.4016V17.5982H3.03237V10.4016H2.33237ZM2.33237 17.5982C2.33237 17.6591 2.33652 17.7175 2.34361 17.7742L3.03821 17.6874C3.03432 17.6563 3.03237 17.627 3.03237 17.5982H2.33237ZM2.34442 17.7803C2.3468 17.797 2.34961 17.8115 2.35115 17.8195C2.35213 17.8246 2.35248 17.8263 2.35302 17.8292C2.35323 17.8302 2.35337 17.831 2.35347 17.8315C2.35356 17.8321 2.3536 17.8323 2.3536 17.8323L3.04407 17.7172C3.04286 17.7099 3.04167 17.7035 3.04071 17.6984C3.03987 17.6941 3.03879 17.6885 3.03837 17.6863C3.03708 17.6797 3.03715 17.6797 3.0374 17.6814L2.34442 17.7803ZM2.35392 17.8342C2.3589 17.8631 2.36593 17.9029 2.37639 17.9447L3.05542 17.7746C3.05185 17.7604 3.04852 17.743 3.04375 17.7153L2.35392 17.8342ZM2.37661 17.9456C2.38429 17.9759 2.39472 18.007 2.39744 18.0155L3.06424 17.8025C3.06278 17.7979 3.06111 17.7927 3.06006 17.7895C3.05884 17.7857 3.05795 17.7829 3.05717 17.7804C3.05562 17.7754 3.05519 17.7737 3.0552 17.7738L2.37661 17.9456ZM2.3959 18.0105C2.40522 18.0413 2.4162 18.0746 2.4296 18.1094L3.08268 17.8574C3.07719 17.8432 3.0717 17.8269 3.06578 17.8074L2.3959 18.0105ZM2.42894 18.1076C2.43603 18.1263 2.44314 18.1423 2.44813 18.1533C2.45705 18.1728 2.45322 18.1641 2.45873 18.1763L3.09684 17.8885C3.09417 17.8826 3.09161 17.877 3.08973 17.873C3.08762 17.8684 3.08635 17.8657 3.08511 17.863C3.08271 17.8577 3.08266 17.8573 3.08335 17.8591L2.42894 18.1076ZM2.45733 18.1731C2.46982 18.2016 2.48561 18.2355 2.5058 18.2714L3.11622 17.9288C3.11141 17.9203 3.10587 17.909 3.09823 17.8916L2.45733 18.1731ZM2.50262 18.2656C2.5167 18.2919 2.53104 18.3153 2.54259 18.3336L3.1343 17.9596C3.12695 17.9479 3.12239 17.9402 3.11941 17.9346L2.50262 18.2656ZM2.54032 18.3299C2.55723 18.3574 2.57526 18.3849 2.59539 18.4129L3.1638 18.0043C3.15467 17.9916 3.14587 17.9783 3.13657 17.9632L2.54032 18.3299ZM2.5927 18.4091C2.60916 18.4326 2.62534 18.4536 2.64075 18.4727L3.18489 18.0323C3.17714 18.0227 3.17137 18.0151 3.16649 18.0081L2.5927 18.4091ZM2.64329 18.4758C2.66276 18.4993 2.68542 18.5253 2.71109 18.5516L3.2121 18.0628C3.20364 18.0541 3.19398 18.0432 3.18236 18.0292L2.64329 18.4758ZM2.70601 18.5463C2.71702 18.5581 2.73839 18.5811 2.76266 18.6036L3.23796 18.0897C3.2354 18.0873 3.23117 18.083 3.21719 18.0681L2.70601 18.5463ZM2.75659 18.5978C2.78352 18.624 2.8105 18.6469 2.83034 18.6635L3.28001 18.1271C3.26267 18.1125 3.25185 18.103 3.24403 18.0954L2.75659 18.5978ZM2.83581 18.668C2.84647 18.6766 2.86928 18.6953 2.89294 18.7126L3.30582 18.1473C3.29899 18.1424 3.29315 18.1376 3.27454 18.1226L2.83581 18.668ZM2.88873 18.7095C2.88732 18.7084 2.88622 18.7076 2.8855 18.707C2.8848 18.7065 2.88436 18.7061 2.88436 18.7061C2.88435 18.7061 2.88441 18.7061 2.88457 18.7063C2.88476 18.7064 2.88496 18.7066 2.88533 18.7069C2.88592 18.7074 2.88712 18.7083 2.88844 18.7094C2.89333 18.7133 2.90615 18.7236 2.92294 18.7346L3.30813 18.1501C3.31392 18.154 3.31846 18.1573 3.32145 18.1595C3.32432 18.1617 3.32624 18.1632 3.32625 18.1632C3.32628 18.1632 3.32625 18.1632 3.32611 18.1631C3.32595 18.163 3.32576 18.1628 3.32543 18.1625C3.32489 18.1621 3.32371 18.1612 3.32245 18.1601C3.3199 18.1581 3.31546 18.1546 3.31003 18.1505L2.88873 18.7095ZM2.91566 18.7297L13.2606 25.9263L13.6604 25.3517L3.31541 18.1551L2.91566 18.7297ZM13.2604 25.9261C13.4829 26.0812 13.7406 26.1598 14.0001 26.1598V25.4598C13.8828 25.4598 13.765 25.4245 13.6606 25.3518L13.2604 25.9261ZM14.0001 26.1598C14.2592 26.1598 14.5173 26.0812 14.7397 25.9259L14.3389 25.352C14.2351 25.4245 14.1171 25.4598 14.0001 25.4598V26.1598ZM14.7392 25.9263L25.0845 18.7297L24.6847 18.1551L14.3394 25.3517L14.7392 25.9263ZM25.0845 18.7297C25.0967 18.7212 25.1064 18.7135 25.1116 18.7094C25.1141 18.7073 25.1166 18.7053 25.1176 18.7045C25.1189 18.7034 25.119 18.7034 25.1188 18.7036L24.6822 18.1564C24.6793 18.1587 24.6768 18.1607 24.6756 18.1617C24.6748 18.1623 24.6744 18.1626 24.6741 18.1629C24.6737 18.1632 24.6737 18.1633 24.6737 18.1632C24.6738 18.1631 24.6749 18.1623 24.6767 18.1609C24.6784 18.1596 24.6812 18.1576 24.6847 18.1551L25.0845 18.7297ZM25.1069 18.7126C25.1306 18.6953 25.1534 18.6766 25.164 18.668L24.7253 18.1226C24.7067 18.1376 24.7008 18.1424 24.694 18.1473L25.1069 18.7126ZM25.1673 18.6653C25.1911 18.6457 25.2163 18.6239 25.2414 18.5999L24.7583 18.0933C24.748 18.1031 24.736 18.1137 24.722 18.1253L25.1673 18.6653ZM25.2404 18.6008C25.2615 18.5808 25.2827 18.5583 25.2912 18.5494L24.7858 18.065C24.7688 18.0828 24.7643 18.0876 24.7592 18.0924L25.2404 18.6008ZM25.2912 18.5494C25.3137 18.5259 25.3366 18.5003 25.3587 18.4731L24.8153 18.0318C24.8069 18.0422 24.7969 18.0535 24.7858 18.065L25.2912 18.5494ZM25.3591 18.4727C25.3745 18.4536 25.3907 18.4326 25.4071 18.4091L24.8333 18.0081C24.8285 18.0151 24.8227 18.0227 24.8149 18.0323L25.3591 18.4727ZM25.4044 18.4129C25.4246 18.3849 25.4426 18.3574 25.4595 18.3299L24.8633 17.9632C24.854 17.9783 24.8452 17.9916 24.836 18.0043L25.4044 18.4129ZM25.4572 18.3336C25.469 18.315 25.4821 18.2935 25.495 18.2702L24.8832 17.9301C24.8785 17.9385 24.8727 17.9482 24.8655 17.9596L25.4572 18.3336ZM25.4961 18.2682C25.5146 18.2344 25.5295 18.2025 25.5412 18.1767L24.9035 17.8881C24.8944 17.9081 24.888 17.9213 24.8821 17.932L25.4961 18.2682ZM25.5414 18.1763C25.5444 18.1697 25.5586 18.1394 25.5692 18.1128L24.9188 17.854C24.916 17.8611 24.915 17.8627 24.9033 17.8885L25.5414 18.1763ZM25.5692 18.1129C25.5851 18.0728 25.5966 18.0346 25.6039 18.0105L24.9341 17.8074C24.9261 17.8336 24.9224 17.845 24.9188 17.8539L25.5692 18.1129ZM25.6024 18.0155C25.6052 18.0067 25.6148 17.978 25.622 17.9513L24.9464 17.768C24.9446 17.775 24.9431 17.7788 24.9356 17.8025L25.6024 18.0155ZM25.6229 17.9482C25.6345 17.9036 25.6424 17.8553 25.6456 17.8378L24.957 17.7117C24.9499 17.7508 24.9486 17.7597 24.9456 17.7712L25.6229 17.9482ZM25.6465 17.8323C25.6465 17.8323 25.6466 17.832 25.6467 17.8314C25.6468 17.8308 25.647 17.83 25.6472 17.8287C25.6474 17.8274 25.6477 17.8261 25.6481 17.8242C25.6484 17.8224 25.6488 17.8201 25.6493 17.8177C25.651 17.8086 25.654 17.7924 25.6563 17.7733L24.9615 17.6883C24.962 17.6843 24.9624 17.6826 24.9614 17.6881C24.9612 17.6893 24.9609 17.6907 24.9606 17.6925C24.9602 17.6943 24.9598 17.6965 24.9593 17.6989C24.9585 17.7036 24.9573 17.71 24.9561 17.7172L25.6465 17.8323ZM25.6562 17.7742C25.6631 17.7193 25.6678 17.6606 25.6678 17.5982H24.9678C24.9678 17.6255 24.9657 17.6546 24.9616 17.6874L25.6562 17.7742ZM25.6678 17.5982V10.4016H24.9678V17.5982H25.6678ZM25.6678 10.4016C25.6678 10.3396 25.6631 10.2806 25.6562 10.2255L24.9616 10.3124C24.9657 10.3451 24.9678 10.3745 24.9678 10.4016H25.6678ZM25.6562 10.2255C25.6539 10.2068 25.6509 10.1907 25.6492 10.182C25.6488 10.1797 25.6484 10.1774 25.648 10.1757C25.6477 10.1739 25.6474 10.1725 25.6472 10.1713C25.647 10.1701 25.6468 10.1693 25.6467 10.1687C25.6466 10.1681 25.6465 10.1678 25.6465 10.1678L24.9561 10.2829C24.9573 10.2901 24.9585 10.2966 24.9594 10.3013C24.9598 10.3037 24.9603 10.306 24.9606 10.3078C24.961 10.3097 24.9612 10.311 24.9615 10.3124C24.9626 10.3181 24.9621 10.3164 24.9616 10.3124L25.6562 10.2255Z" fill="white"/>
</svg>
