<svg width="24" height="24" viewBox="0 0 24 24" fill="none" xmlns="http://www.w3.org/2000/svg">
<path d="M9.3 21H14.7C19.2 21 21 19.2 21 14.7V9.3C21 4.8 19.2 3 14.7 3H9.3C4.8 3 3 4.8 3 9.3V14.7C3 19.2 4.8 21 9.3 21Z" stroke="#505050" stroke-width="1.5" stroke-linecap="round" stroke-linejoin="round"/>
<path d="M12.8375 18H16.1625C17.475 18 18 17.4 18 15.9V14.1C18 12.6 17.475 12 16.1625 12H12.8375C11.525 12 11 12.6 11 14.1V15.9C11 17.4 11.525 18 12.8375 18Z" stroke="#505050" stroke-width="1.5" stroke-linecap="round" stroke-linejoin="round"/>
</svg>
