<svg width="32" height="32" viewBox="0 0 32 32" fill="none" xmlns="http://www.w3.org/2000/svg">
<path d="M12.4 28H19.6C25.6 28 28 25.6 28 19.6V12.4C28 6.4 25.6 4 19.6 4H12.4C6.4 4 4 6.4 4 12.4V19.6C4 25.6 6.4 28 12.4 28Z" stroke="#505050" stroke-width="1.5" stroke-linecap="round" stroke-linejoin="round"/>
<path d="M17.1167 24H21.5501C23.3001 24 24.0001 23.2 24.0001 21.2V18.8C24.0001 16.8 23.3001 16 21.5501 16H17.1167C15.3667 16 14.6667 16.8 14.6667 18.8V21.2C14.6667 23.2 15.3667 24 17.1167 24Z" stroke="#505050" stroke-width="1.5" stroke-linecap="round" stroke-linejoin="round"/>
</svg>
