<svg width="32" height="32" viewBox="0 0 32 32" fill="none" xmlns="http://www.w3.org/2000/svg">
<path d="M20 16.6V21.4C20 25.4 18.4 27 14.4 27H9.6C5.6 27 4 25.4 4 21.4V16.6C4 12.6 5.6 11 9.6 11H14.4C18.4 11 20 12.6 20 16.6Z" stroke="white" stroke-width="1.5" stroke-linecap="round" stroke-linejoin="round"/>
<path d="M27 9.6V14.4C27 18.4 25.4 20 21.4 20H20.1429V16.4571C20.1429 12.4571 18.5429 10.8571 14.5429 10.8571H11V9.6C11 5.6 12.6 4 16.6 4H21.4C25.4 4 27 5.6 27 9.6Z" stroke="white" stroke-width="1.5" stroke-linecap="round" stroke-linejoin="round"/>
</svg>
