<svg width="200" height="200" viewBox="0 0 200 200" fill="none" xmlns="http://www.w3.org/2000/svg">
<path d="M66.1863 36.1863C63.7728 38.5998 62.6222 41.7121 62.0581 45.9077C61.5 50.0588 61.5 55.4167 61.5 62.4205V62.5V137.5V137.579C61.5 144.583 61.5 149.941 62.0581 154.092C62.6222 158.288 63.7728 161.4 66.1863 163.814C68.5998 166.227 71.7121 167.378 75.9077 167.942C80.0588 168.5 85.4167 168.5 92.4206 168.5H92.5H107.5H107.579C114.583 168.5 119.941 168.5 124.092 167.942C128.288 167.378 131.4 166.227 133.814 163.814C136.227 161.4 137.378 158.288 137.942 154.092C138.5 149.941 138.5 144.583 138.5 137.579V137.5V62.5V62.4206C138.5 55.4167 138.5 50.0588 137.942 45.9077C137.378 41.7121 136.227 38.5998 133.814 36.1863C131.4 33.7728 128.288 32.6222 124.092 32.0581C119.941 31.5 114.583 31.5 107.579 31.5H107.5H92.5H92.4205C85.4167 31.5 80.0588 31.5 75.9077 32.0581C71.7121 32.6222 68.5998 33.7728 66.1863 36.1863Z" stroke="#505050" stroke-width="2"/>
<path d="M62.5 130H137.5" stroke="#505050" stroke-width="2"/>
</svg>
