<svg width="200" height="200" viewBox="0 0 200 200" fill="none" xmlns="http://www.w3.org/2000/svg">
<path d="M33.5 70C33.5 62.9007 33.5021 57.6768 34.0403 53.6742C34.5745 49.7004 35.6206 47.0804 37.6005 45.1005C39.5804 43.1206 42.2003 42.0745 46.1742 41.5403C50.1768 41.0021 55.4007 41 62.5 41H137.5C144.599 41 149.823 41.0021 153.826 41.5403C157.8 42.0745 160.42 43.1206 162.399 45.1005C164.379 47.0804 165.425 49.7004 165.96 53.6742C166.498 57.6768 166.5 62.9007 166.5 70V136.5H33.5V70Z" stroke="#505050" stroke-width="2"/>
<path d="M37.5 136.5C34.1863 136.5 31.5 139.186 31.5 142.5C31.5 148.575 36.4249 153.5 42.5 153.5H157.5C163.575 153.5 168.5 148.575 168.5 142.5C168.5 139.186 165.814 136.5 162.5 136.5H37.5Z" stroke="#505050" stroke-width="2"/>
</svg>
