<svg width="86" height="86" viewBox="0 0 86 86" fill="none" xmlns="http://www.w3.org/2000/svg">
<path d="M24.9444 18.4169H61.0556C64.5308 18.4169 66.8858 18.4222 68.6472 18.659C70.3367 18.8861 71.1011 19.2842 71.6169 19.8C72.1326 20.3157 72.5307 21.0802 72.7579 22.7697C72.9947 24.5311 73 26.8861 73 30.3613V60.3613H13V30.3613C13 26.8861 13.0053 24.5311 13.2421 22.7697C13.4693 21.0802 13.8674 20.3157 14.3831 19.8C14.8989 19.2842 15.6633 18.8861 17.3528 18.659C19.1142 18.4222 21.4692 18.4169 24.9444 18.4169Z" stroke="#262626" stroke-width="5"/>
<path d="M73.0926 60.3612H12.9074C10.1971 60.3612 8 62.5583 8 65.2686C8 69.3085 11.275 72.5834 15.3148 72.5834H70.6852C74.725 72.5834 78 69.3085 78 65.2686C78 62.5583 75.8029 60.3612 73.0926 60.3612Z" stroke="#262626" stroke-width="5"/>
</svg>
