<svg width="86" height="86" viewBox="0 0 86 86" fill="none" xmlns="http://www.w3.org/2000/svg">
<path d="M46.611 8H39.3888L39.2133 8C35.9582 7.99991 33.2647 7.99983 31.1309 8.28671C28.887 8.5884 26.8915 9.24798 25.2919 10.8476C23.6923 12.4472 23.0327 14.4427 22.731 16.6866C22.4442 18.8204 22.4442 21.5139 22.4443 24.769L22.4443 24.9444V61.0556L22.4443 61.231C22.4442 64.4861 22.4442 67.1796 22.731 69.3134C23.0327 71.5574 23.6923 73.5528 25.2919 75.1524C26.8915 76.752 28.887 77.4116 31.1309 77.7133C33.2647 78.0002 35.9582 78.0001 39.2133 78H39.3888H46.611H46.7865C50.0416 78.0001 52.7351 78.0002 54.8689 77.7133C57.1128 77.4116 59.1083 76.752 60.7079 75.1524C62.3075 73.5528 62.967 71.5574 63.2687 69.3134C63.5556 67.1796 63.5555 64.4862 63.5554 61.231V61.0556V24.9444V24.769C63.5555 21.5138 63.5556 18.8204 63.2687 16.6866C62.967 14.4427 62.3075 12.4472 60.7079 10.8476C59.1083 9.24798 57.1128 8.5884 54.8689 8.28671C52.7351 7.99983 50.0416 7.99991 46.7865 8L46.611 8Z" stroke="#262626" stroke-width="5"/>
<path d="M24.9443 57.4446H61.0554" stroke="#262626" stroke-width="5"/>
</svg>
