<svg width="32" height="32" viewBox="0 0 32 32" fill="none" xmlns="http://www.w3.org/2000/svg">
<path d="M13.2358 24.1094C8.21021 25.7284 8.21021 21.4111 6.19995 20.8714M20.2717 27.3474V23.1704C20.3095 22.6557 20.2447 22.1383 20.0818 21.6526C19.9189 21.1669 19.6616 20.724 19.3269 20.3533C22.483 19.9756 25.8 18.6912 25.8 12.7981C25.7997 11.2911 25.2599 9.842 24.2923 8.75059C24.7505 7.4322 24.7181 5.97494 24.2018 4.68154C24.2018 4.68154 23.0157 4.30377 20.2717 6.27894C17.968 5.60848 15.5396 5.60848 13.2358 6.27894C10.4918 4.30377 9.3058 4.68154 9.3058 4.68154C8.78954 5.97494 8.75714 7.4322 9.21534 8.75059C8.24049 9.8501 7.70013 11.3123 7.70764 12.8304C7.70764 18.6804 11.0246 19.9648 14.1807 20.3857C13.85 20.7527 13.5949 21.1902 13.4322 21.67C13.2694 22.1498 13.2025 22.661 13.2358 23.1704V27.3474" stroke="#505050" stroke-width="1.5" stroke-linecap="round" stroke-linejoin="round"/>
</svg>
