<svg width="28" height="28" viewBox="0 0 28 28" fill="none" xmlns="http://www.w3.org/2000/svg">
<path d="M11.4615 21.1465C6.84615 22.5732 6.84615 18.7686 5 18.293M17.9231 24V20.319C17.9577 19.8654 17.8982 19.4095 17.7486 18.9814C17.599 18.5534 17.3627 18.1631 17.0554 17.8364C19.9538 17.5035 23 16.3716 23 11.1783C22.9998 9.85027 22.504 8.57321 21.6154 7.61139C22.0362 6.44954 22.0064 5.16532 21.5323 4.02548C21.5323 4.02548 20.4431 3.69258 17.9231 5.43321C15.8074 4.84237 13.5772 4.84237 11.4615 5.43321C8.94154 3.69258 7.85231 4.02548 7.85231 4.02548C7.37819 5.16532 7.34844 6.44954 7.76923 7.61139C6.87396 8.58034 6.37771 9.86895 6.38462 11.2068C6.38462 16.3621 9.43077 17.494 12.3292 17.865C12.0255 18.1883 11.7913 18.574 11.6418 18.9968C11.4923 19.4196 11.4309 19.8701 11.4615 20.319V24" stroke="#1B1B1B" stroke-width="1.5" stroke-linecap="round" stroke-linejoin="round"/>
</svg>
