<svg width="32" height="32" viewBox="0 0 32 32" fill="none" xmlns="http://www.w3.org/2000/svg">
<path d="M13.1795 23.8611C8.05128 25.4306 8.05128 21.2454 6 20.7223M20.359 27V22.9509C20.3974 22.452 20.3314 21.9504 20.1651 21.4796C19.9989 21.0087 19.7363 20.5794 19.3949 20.2201C22.6154 19.8539 26 18.6088 26 12.8961C25.9997 11.4353 25.4489 10.0305 24.4615 8.97252C24.9291 7.6945 24.896 6.28185 24.3692 5.02803C24.3692 5.02803 23.159 4.66183 20.359 6.57653C18.0082 5.9266 15.5302 5.9266 13.1795 6.57653C10.3795 4.66183 9.16923 5.02803 9.16923 5.02803C8.64244 6.28185 8.60938 7.6945 9.07692 8.97252C8.08218 10.0384 7.53079 11.4558 7.53846 12.9275C7.53846 18.5983 10.9231 19.8434 14.1436 20.2515C13.8062 20.6072 13.5459 21.0314 13.3798 21.4965C13.2137 21.9616 13.1454 22.4571 13.1795 22.9509V27" stroke="#505050" stroke-width="1.5" stroke-linecap="round" stroke-linejoin="round"/>
</svg>
