<svg width="32" height="32" viewBox="0 0 32 32" fill="none" xmlns="http://www.w3.org/2000/svg">
<path d="M13.4615 23.1465C8.84615 24.5732 8.84615 20.7686 7 20.293M19.9231 26V22.319C19.9577 21.8654 19.8982 21.4095 19.7486 20.9814C19.599 20.5534 19.3627 20.1631 19.0554 19.8364C21.9538 19.5035 25 18.3716 25 13.1783C24.9998 11.8503 24.504 10.5732 23.6154 9.61139C24.0362 8.44954 24.0064 7.16532 23.5323 6.02548C23.5323 6.02548 22.4431 5.69258 19.9231 7.43321C17.8074 6.84237 15.5772 6.84237 13.4615 7.43321C10.9415 5.69258 9.85231 6.02548 9.85231 6.02548C9.37819 7.16532 9.34844 8.44954 9.76923 9.61139C8.87396 10.5803 8.37771 11.8689 8.38462 13.2068C8.38462 18.3621 11.4308 19.494 14.3292 19.865C14.0255 20.1883 13.7913 20.574 13.6418 20.9968C13.4923 21.4196 13.4309 21.8701 13.4615 22.319V26" stroke="#505050" stroke-width="1.5" stroke-linecap="round" stroke-linejoin="round"/>
</svg>
