<svg width="28" height="28" viewBox="0 0 28 28" fill="none" xmlns="http://www.w3.org/2000/svg">
<path d="M11.25 21.5134C6.25 23.0134 6.25 19.0134 4.25 18.5134M18.25 24.5134V20.6434C18.2875 20.1666 18.2231 19.6872 18.061 19.2372C17.8989 18.7872 17.6429 18.3768 17.31 18.0334C20.45 17.6834 23.75 16.4934 23.75 11.0334C23.7497 9.63725 23.2127 8.29463 22.25 7.28343C22.7059 6.06193 22.6736 4.71178 22.16 3.51343C22.16 3.51343 20.98 3.16343 18.25 4.99343C15.958 4.37225 13.542 4.37225 11.25 4.99343C8.52 3.16343 7.34 3.51343 7.34 3.51343C6.82638 4.71178 6.79414 6.06193 7.25 7.28343C6.28013 8.30213 5.74252 9.65689 5.75 11.0634C5.75 16.4834 9.05 17.6734 12.19 18.0634C11.861 18.4034 11.6073 18.8088 11.4453 19.2533C11.2834 19.6979 11.2168 20.1715 11.25 20.6434V24.5134" stroke="#262626" stroke-width="1.5" stroke-linecap="round" stroke-linejoin="round"/>
</svg>
