<svg width="28" height="28" viewBox="0 0 28 28" fill="none" xmlns="http://www.w3.org/2000/svg">
<path d="M16.9792 16.9792C18.6245 16.9792 19.9583 15.6453 19.9583 14C19.9583 12.3547 18.6245 11.0208 16.9792 11.0208C15.3338 11.0208 14 12.3547 14 14C14 15.6453 15.3338 16.9792 16.9792 16.9792Z" stroke="#489FD3" stroke-width="1.5" stroke-linecap="round" stroke-linejoin="round"/>
<path d="M14.0001 11.0208V5.0625H11.0209C10.2308 5.0625 9.47303 5.37638 8.91433 5.93508C8.35562 6.49378 8.04175 7.25154 8.04175 8.04167C8.04175 8.83179 8.35562 9.58955 8.91433 10.1483C9.47303 10.707 10.2308 11.0208 11.0209 11.0208H14.0001Z" stroke="#489FD3" stroke-width="1.5" stroke-linecap="round" stroke-linejoin="round"/>
<path d="M14.0001 16.9792V11.0208H11.0209C10.2308 11.0208 9.47303 11.3347 8.91433 11.8934C8.35562 12.4521 8.04175 13.2099 8.04175 14C8.04175 14.7901 8.35562 15.5479 8.91433 16.1066C9.47303 16.6653 10.2308 16.9792 11.0209 16.9792H14.0001Z" stroke="#489FD3" stroke-width="1.5" stroke-linecap="round" stroke-linejoin="round"/>
<path d="M14 11.0208V5.0625H16.9792C17.7693 5.0625 18.5271 5.37638 19.0858 5.93508C19.6445 6.49378 19.9583 7.25154 19.9583 8.04167C19.9583 8.83179 19.6445 9.58955 19.0858 10.1483C18.5271 10.707 17.7693 11.0208 16.9792 11.0208H14Z" stroke="#489FD3" stroke-width="1.5" stroke-linecap="round" stroke-linejoin="round"/>
<path d="M14.0001 16.9792V19.9583C14.0001 20.5476 13.8254 21.1235 13.498 21.6135C13.1706 22.1034 12.7054 22.4852 12.161 22.7107C11.6166 22.9362 11.0176 22.9952 10.4397 22.8803C9.86181 22.7653 9.33097 22.4816 8.91433 22.0649C8.49768 21.6483 8.21395 21.1174 8.09899 20.5395C7.98404 19.9616 8.04304 19.3626 8.26852 18.8183C8.49401 18.2739 8.87586 17.8086 9.36578 17.4812C9.8557 17.1539 10.4317 16.9792 11.0209 16.9792H14.0001Z" stroke="#489FD3" stroke-width="1.5" stroke-linecap="round" stroke-linejoin="round"/>
</svg>
