<svg width="32" height="32" viewBox="0 0 32 32" fill="none" xmlns="http://www.w3.org/2000/svg">
<path d="M2.93115 16.0649C2.93115 8.92104 8.78232 3.1298 16.0001 3.1298C19.8847 3.1298 23.3727 4.80605 25.768 7.47103M21.24 9.13915C22.3066 9.14389 23.1961 9.14784 23.9113 9.07054C24.6614 8.98946 25.3528 8.80824 25.9533 8.34822C26.2117 8.15029 26.4437 7.92072 26.6437 7.66496C27.1085 7.07053 27.2916 6.38626 27.3735 5.64381C27.4516 4.93597 27.4476 4.05559 27.4428 3M29.0691 16.0649C29.0691 23.2087 23.2179 29 16.0001 29C12.0601 29 8.52812 27.2756 6.13044 24.5441M10.5744 22.8608C9.50788 22.856 8.61831 22.8521 7.90314 22.9294C7.15301 23.0105 6.46166 23.1917 5.86108 23.6517C5.60267 23.8496 5.37073 24.0792 5.17075 24.335C4.70596 24.9294 4.52286 25.6137 4.44094 26.3561C4.36284 27.064 4.36683 27.9444 4.37162 29" stroke="#505050" stroke-linecap="round"/>
</svg>
