<svg width="32" height="32" viewBox="0 0 32 32" fill="none" xmlns="http://www.w3.org/2000/svg">
<path fill-rule="evenodd" clip-rule="evenodd" d="M9.23483 9.79944C9.24422 9.61068 9.25615 9.43213 9.271 9.25978C9.54789 6.2803 12.5602 3.83331 15.9531 3.83331H16.0482C19.4392 3.83331 22.4559 6.27945 22.7431 9.26913C22.7601 9.46738 22.7681 9.65945 22.7705 9.95608L22.7705 9.95756L22.7741 11.1612H22.774L22.7742 11.1701C22.7784 11.3714 22.7864 11.5403 22.8 11.7294L22.8011 11.7459L22.8034 11.7624L22.8206 11.8859L22.8238 11.909L22.8291 11.9316L22.9156 12.2993L22.9155 12.2994L22.9189 12.3122C23.1933 13.3535 23.6862 14.3248 24.3646 15.1621L24.3644 15.1622L24.3726 15.1717L24.5427 15.3713C24.8156 15.8028 24.9717 16.2959 24.9964 16.8035L24.9955 17.0088L24.9955 17.0159L24.9956 17.0231C25.0138 17.7726 24.7678 18.4807 24.3038 19.043C23.6651 19.7127 22.7473 20.1599 21.756 20.2513L21.756 20.2512L21.7479 20.2521C17.9189 20.6677 14.0705 20.6677 10.2563 20.2536L10.2563 20.2535L10.2502 20.2529C9.24893 20.1565 8.32916 19.7107 7.64749 18.9998C7.23495 18.4861 6.99014 17.7808 7.00557 17.0533L7.00568 17.0533L7.00568 17.0431L7.00588 16.7742L7.02615 16.5531C7.07432 16.1977 7.19395 15.8333 7.38024 15.4954L7.46356 15.3575C8.32325 14.3784 8.91388 13.1925 9.17577 11.9155L9.18086 11.8907L9.18341 11.8655L9.20259 11.6765L9.20497 11.6531L9.20514 11.6295L9.21379 10.4107L9.23483 9.79944ZM25.3321 14.751L25.2171 14.824L25.3174 14.7385L25.1377 14.5278C24.5517 13.8031 24.1256 12.9635 23.8875 12.0637L23.8079 11.7252L23.7962 11.6413C23.7847 11.4774 23.7778 11.3304 23.7741 11.1537L23.7705 9.95201L23.7705 9.94946C23.7679 9.63463 23.7593 9.41439 23.7392 9.18095L23.7392 9.18095L23.7388 9.17629C23.3944 5.57365 19.8498 2.83331 16.0482 2.83331H15.9531C12.1513 2.83331 8.6081 5.57352 8.27512 9.16911L8.27511 9.16911L8.27484 9.17223C8.25867 9.3596 8.24585 9.55211 8.23587 9.75372L8.23581 9.75372L8.23555 9.76124L8.21414 10.3831L8.21396 10.3831L8.21386 10.3968L8.20533 11.5989L8.19112 11.739C7.95925 12.848 7.44089 13.8772 6.68789 14.7251L6.68626 14.7239L6.62057 14.8001L6.628 14.8067L6.51941 14.9864L6.51464 14.9943L6.51017 15.0023C6.26042 15.4523 6.09801 15.943 6.03349 16.4317L6.03218 16.4416L6.03128 16.4515L6.00798 16.7055L6.00591 16.7281L6.00589 16.7508L6.00569 17.0374C5.98653 17.9995 6.3106 18.9425 6.8841 19.6462L6.8961 19.6609L6.90917 19.6746C7.75916 20.5694 8.90743 21.1276 10.1513 21.248C14.0351 21.6695 17.9535 21.6696 21.8519 21.2467C23.0821 21.1323 24.2311 20.5756 25.0413 19.7185L25.052 19.7072L25.062 19.6953C25.6875 18.9449 26.0178 17.9982 25.9955 17.0062L25.9964 16.7952L25.9965 16.783L25.9959 16.7708C25.9639 16.0504 25.7344 15.3522 25.3321 14.751ZM12.6791 26.0555C12.5083 25.8385 12.194 25.8011 11.977 25.9719C11.76 26.1427 11.7225 26.457 11.8933 26.674C12.7388 27.7482 13.9773 28.4416 15.3347 28.6032C16.6892 28.7646 18.0534 28.3836 19.1272 27.5426C19.4484 27.2999 19.749 27.0062 20.0088 26.6793C20.1806 26.4631 20.1446 26.1486 19.9284 25.9768C19.7123 25.805 19.3977 25.8409 19.2259 26.0571C19.0164 26.3208 18.7748 26.5559 18.5214 26.747L18.5214 26.7469L18.5137 26.7529C17.6479 27.4323 16.5467 27.7405 15.453 27.6103C14.3583 27.4799 13.3601 26.9208 12.6791 26.0555Z" fill="#505050"/>
<path d="M9.271 9.25978L8.77314 9.21351L8.77285 9.21685L9.271 9.25978ZM9.23483 9.79944L8.73539 9.77461L8.73513 9.78224L9.23483 9.79944ZM22.7431 9.26913L23.2413 9.22638L23.2408 9.22132L22.7431 9.26913ZM22.7705 9.95608L23.2705 9.95222L23.2705 9.95199L22.7705 9.95608ZM22.7705 9.95756L23.2705 9.95606L23.2705 9.9537L22.7705 9.95756ZM22.7741 11.1612V11.6612H23.2756L23.2741 11.1597L22.7741 11.1612ZM22.774 11.1612V10.6612H22.2634L22.2742 11.1717L22.774 11.1612ZM22.7742 11.1701L23.2741 11.1597L23.2741 11.1596L22.7742 11.1701ZM22.8 11.7294L22.3012 11.7652L22.3012 11.7653L22.8 11.7294ZM22.8011 11.7459L22.3024 11.7818L22.3036 11.7983L22.3059 11.8148L22.8011 11.7459ZM22.8034 11.7624L23.2987 11.6935L23.2987 11.6935L22.8034 11.7624ZM22.8206 11.8859L22.3254 11.9547L22.3254 11.9547L22.8206 11.8859ZM22.8238 11.909L22.3286 11.9778L22.3318 12.0008L22.3371 12.0235L22.8238 11.909ZM22.8291 11.9316L23.3158 11.8171L23.3158 11.8171L22.8291 11.9316ZM22.9156 12.2993L23.0293 12.7862L23.5171 12.6724L23.4024 12.1848L22.9156 12.2993ZM22.9155 12.2994L22.8019 11.8124L22.3009 11.9293L22.432 12.4268L22.9155 12.2994ZM22.9189 12.3122L22.4354 12.4396L22.4354 12.4397L22.9189 12.3122ZM24.3646 15.1621L24.6799 15.5501L25.0674 15.2353L24.7531 14.8473L24.3646 15.1621ZM24.3644 15.1622L24.0492 14.7741L23.6518 15.097L23.984 15.4866L24.3644 15.1622ZM24.3726 15.1717L24.7531 14.8473L24.753 14.8473L24.3726 15.1717ZM24.5427 15.3713L24.9653 15.104L24.9463 15.074L24.9232 15.0469L24.5427 15.3713ZM24.9964 16.8035L25.4964 16.8057L25.4964 16.7925L25.4958 16.7793L24.9964 16.8035ZM24.9955 17.0088L25.4955 17.011L25.4955 17.011L24.9955 17.0088ZM24.9955 17.0159L24.4955 17.0138L24.4954 17.0209L24.4956 17.028L24.9955 17.0159ZM24.9956 17.0231L24.4958 17.0351L24.4958 17.0352L24.9956 17.0231ZM24.3038 19.043L24.6656 19.388L24.678 19.375L24.6894 19.3612L24.3038 19.043ZM21.756 20.2513L21.258 20.2952L21.3021 20.7952L21.8019 20.7491L21.756 20.2513ZM21.756 20.2512L22.2541 20.2072L22.2093 19.6991L21.7021 19.7541L21.756 20.2512ZM21.7479 20.2521L21.694 19.755L21.694 19.755L21.7479 20.2521ZM10.2563 20.2536L9.75879 20.2038L9.70946 20.6971L10.2023 20.7506L10.2563 20.2536ZM10.2563 20.2535L10.7538 20.3033L10.8038 19.8038L10.3042 19.7558L10.2563 20.2535ZM10.2502 20.2529L10.2023 20.7506L10.2024 20.7506L10.2502 20.2529ZM7.64749 18.9998L7.25765 19.3129L7.2714 19.3301L7.28661 19.3459L7.64749 18.9998ZM7.00557 17.0533L7.01466 16.5534L6.51626 16.5444L6.50568 17.0427L7.00557 17.0533ZM7.00568 17.0533L6.99659 17.5533L7.50531 17.5625L7.50568 17.0537L7.00568 17.0533ZM7.00568 17.0431L6.50568 17.0427L6.50568 17.0427L7.00568 17.0431ZM7.00588 16.7742L6.50797 16.7286L6.50589 16.7512L6.50588 16.7738L7.00588 16.7742ZM7.02615 16.5531L6.53068 16.486L6.52923 16.4967L6.52824 16.5075L7.02615 16.5531ZM7.38024 15.4954L6.95229 15.2368L6.94716 15.2453L6.94237 15.254L7.38024 15.4954ZM7.46356 15.3575L7.08784 15.0276L7.05857 15.0609L7.03562 15.0989L7.46356 15.3575ZM9.17577 11.9155L8.68597 11.8151L8.68597 11.8151L9.17577 11.9155ZM9.18086 11.8907L9.67066 11.9912L9.67575 11.9664L9.6783 11.9412L9.18086 11.8907ZM9.18341 11.8655L8.68597 11.8151L8.68597 11.8151L9.18341 11.8655ZM9.20259 11.6765L9.70004 11.7269L9.70004 11.7269L9.20259 11.6765ZM9.20497 11.6531L9.70242 11.7035L9.70479 11.6801L9.70496 11.6566L9.20497 11.6531ZM9.20514 11.6295L9.70512 11.6331L9.70512 11.6331L9.20514 11.6295ZM9.21379 10.4107L8.7139 10.3935L8.7138 10.4071L9.21379 10.4107ZM25.2171 14.824L24.8927 14.4435L25.485 15.2462L25.2171 14.824ZM25.3321 14.751L25.7477 14.473L25.4763 14.0674L25.0642 14.3289L25.3321 14.751ZM25.3174 14.7385L25.6418 15.119L26.0222 14.7946L25.6979 14.4141L25.3174 14.7385ZM25.1377 14.5278L24.7488 14.8423L24.7572 14.8522L25.1377 14.5278ZM23.8875 12.0637L23.4006 12.1782L23.4042 12.1916L23.8875 12.0637ZM23.8079 11.7252L23.3126 11.7941L23.3158 11.8171L23.3212 11.8397L23.8079 11.7252ZM23.7962 11.6413L23.2974 11.6765L23.2986 11.6934L23.301 11.7101L23.7962 11.6413ZM23.7741 11.1537L23.274 11.1552L23.2742 11.1643L23.7741 11.1537ZM23.7705 9.95201L24.2705 9.95051L24.2705 9.94827L23.7705 9.95201ZM23.7705 9.94946L24.2705 9.94572L24.2705 9.94541L23.7705 9.94946ZM23.7392 9.18095L23.694 8.683L23.1984 8.72806L23.2411 9.22387L23.7392 9.18095ZM23.7392 9.18095L23.7845 9.67889L24.2847 9.63342L24.237 9.13346L23.7392 9.18095ZM23.7388 9.17629L24.2365 9.1288L24.2365 9.12871L23.7388 9.17629ZM8.27512 9.16911L8.22657 9.66675L8.72666 9.71554L8.77299 9.21522L8.27512 9.16911ZM8.27511 9.16911L8.32366 8.67147L7.82044 8.62238L7.77696 9.12611L8.27511 9.16911ZM8.27484 9.17223L7.77669 9.12924L7.77669 9.12925L8.27484 9.17223ZM8.23587 9.75372L8.21069 10.2531L8.71051 10.2783L8.73526 9.77844L8.23587 9.75372ZM8.23581 9.75372L8.26099 9.25435L7.75359 9.22877L7.73611 9.73652L8.23581 9.75372ZM8.23555 9.76124L8.73526 9.77844L8.73526 9.77844L8.23555 9.76124ZM8.21414 10.3831L8.19625 10.8828L8.69662 10.9007L8.71385 10.4003L8.21414 10.3831ZM8.21396 10.3831L8.23185 9.88341L7.71763 9.865L7.71397 10.3795L8.21396 10.3831ZM8.21386 10.3968L7.71387 10.3932L7.71387 10.3932L8.21386 10.3968ZM8.20533 11.5989L8.70277 11.6494L8.70515 11.626L8.70532 11.6025L8.20533 11.5989ZM8.19112 11.739L8.68054 11.8413L8.68592 11.8156L8.68857 11.7894L8.19112 11.739ZM6.68789 14.7251L6.39422 15.1298L6.76091 15.3959L7.06176 15.0571L6.68789 14.7251ZM6.68626 14.7239L6.97993 14.3192L6.60792 14.0493L6.30767 14.3973L6.68626 14.7239ZM6.62057 14.8001L6.24198 14.4734L5.91985 14.8468L6.28876 15.1741L6.62057 14.8001ZM6.628 14.8067L7.05595 15.0652L7.27126 14.7089L6.95981 14.4326L6.628 14.8067ZM6.51941 14.9864L6.94735 15.245L6.94735 15.245L6.51941 14.9864ZM6.51464 14.9943L6.0867 14.7357L6.08193 14.7436L6.07745 14.7516L6.51464 14.9943ZM6.51017 15.0023L6.94735 15.245L6.94736 15.245L6.51017 15.0023ZM6.03349 16.4317L6.52919 16.4972L6.52919 16.4972L6.03349 16.4317ZM6.03218 16.4416L5.53648 16.3762L5.53518 16.386L5.53427 16.3959L6.03218 16.4416ZM6.03128 16.4515L5.53336 16.4058L5.53336 16.4058L6.03128 16.4515ZM6.00798 16.7055L6.50589 16.7512L6.50589 16.7512L6.00798 16.7055ZM6.00591 16.7281L5.508 16.6824L5.50593 16.705L5.50591 16.7277L6.00591 16.7281ZM6.00589 16.7508L6.50589 16.7512L6.50589 16.7512L6.00589 16.7508ZM6.00569 17.0374L6.50568 17.0474L6.50569 17.0378L6.00569 17.0374ZM6.8841 19.6462L7.27169 19.3303L7.27168 19.3303L6.8841 19.6462ZM6.8961 19.6609L6.50851 19.9767L6.52051 19.9915L6.5336 20.0052L6.8961 19.6609ZM6.90917 19.6746L7.27168 19.3303L7.27167 19.3303L6.90917 19.6746ZM10.1513 21.248L10.2053 20.7509L10.1995 20.7504L10.1513 21.248ZM21.8519 21.2467L21.8056 20.7487L21.798 20.7496L21.8519 21.2467ZM25.0413 19.7185L25.4046 20.062L25.4046 20.062L25.0413 19.7185ZM25.052 19.7072L25.4153 20.0507L25.426 20.0394L25.436 20.0274L25.052 19.7072ZM25.062 19.6953L25.446 20.0154L25.446 20.0154L25.062 19.6953ZM25.9955 17.0062L25.4953 17.0041L25.4956 17.0175L25.9955 17.0062ZM25.9964 16.7952L26.4964 16.7973L26.4964 16.7973L25.9964 16.7952ZM25.9965 16.783L26.4965 16.7851L26.4965 16.7729L26.496 16.7608L25.9965 16.783ZM25.9959 16.7708L26.4954 16.7486L26.4954 16.7486L25.9959 16.7708ZM11.977 25.9719L12.2862 26.3648L12.2862 26.3648L11.977 25.9719ZM12.6791 26.0555L12.2862 26.3648L12.2862 26.3648L12.6791 26.0555ZM11.8933 26.674L12.2862 26.3648L12.2862 26.3648L11.8933 26.674ZM15.3347 28.6032L15.2755 29.0997L15.3347 28.6032ZM19.1272 27.5426L18.8258 27.1436L18.819 27.1489L19.1272 27.5426ZM20.0088 26.6793L19.6173 26.3682L19.6173 26.3682L20.0088 26.6793ZM19.9284 25.9768L19.6173 26.3682L19.6174 26.3682L19.9284 25.9768ZM19.2259 26.0571L18.8345 25.746L18.8345 25.746L19.2259 26.0571ZM18.5214 26.747L18.1202 27.0453L18.4205 27.4492L18.8224 27.1462L18.5214 26.747ZM18.5214 26.7469L18.9226 26.4485L18.6164 26.0368L18.2127 26.3535L18.5214 26.7469ZM18.5137 26.7529L18.2051 26.3595L18.2051 26.3595L18.5137 26.7529ZM15.453 27.6103L15.3938 28.1068L15.3938 28.1068L15.453 27.6103ZM8.77285 9.21685C8.75743 9.39584 8.7451 9.58044 8.73545 9.77461L9.73421 9.82427C9.74333 9.64091 9.75488 9.46843 9.76916 9.3027L8.77285 9.21685ZM15.9531 3.33331C12.355 3.33331 9.07853 5.9274 8.77315 9.21351L9.76886 9.30604C10.0172 6.63321 12.7655 4.33331 15.9531 4.33331V3.33331ZM16.0482 3.33331H15.9531V4.33331H16.0482V3.33331ZM23.2408 9.22132C22.9243 5.92678 19.6451 3.33331 16.0482 3.33331V4.33331C19.2333 4.33331 21.9875 6.63212 22.2454 9.31695L23.2408 9.22132ZM23.2705 9.95199C23.268 9.64731 23.2598 9.44156 23.2413 9.22638L22.245 9.31188C22.2605 9.4932 22.2682 9.67158 22.2705 9.96017L23.2705 9.95199ZM23.2705 9.9537L23.2705 9.95222L22.2705 9.95995L22.2705 9.96143L23.2705 9.9537ZM23.2741 11.1597L23.2705 9.95606L22.2705 9.95906L22.2741 11.1627L23.2741 11.1597ZM22.774 11.6612H22.7741V10.6612H22.774V11.6612ZM23.2741 11.1596L23.2739 11.1507L22.2742 11.1717L22.2743 11.1806L23.2741 11.1596ZM23.2987 11.6935C23.2857 11.513 23.2781 11.3526 23.2741 11.1597L22.2743 11.1805C22.2787 11.3903 22.287 11.5677 22.3012 11.7652L23.2987 11.6935ZM23.2999 11.71L23.2987 11.6935L22.3012 11.7653L22.3024 11.7818L23.2999 11.71ZM23.2987 11.6935L23.2964 11.6771L22.3059 11.8148L22.3082 11.8312L23.2987 11.6935ZM23.3158 11.8171L23.2987 11.6935L22.3082 11.8312L22.3254 11.9547L23.3158 11.8171ZM23.319 11.8401L23.3158 11.8171L22.3254 11.9547L22.3286 11.9778L23.319 11.8401ZM23.3158 11.8171L23.3105 11.7944L22.3371 12.0235L22.3424 12.0461L23.3158 11.8171ZM23.4024 12.1848L23.3158 11.8171L22.3424 12.0461L22.4289 12.4138L23.4024 12.1848ZM23.0291 12.7863L23.0293 12.7862L22.802 11.8124L22.8019 11.8124L23.0291 12.7863ZM23.4024 12.1848L23.399 12.172L22.432 12.4268L22.4354 12.4396L23.4024 12.1848ZM24.7531 14.8473C24.1192 14.065 23.6587 13.1575 23.4024 12.1848L22.4354 12.4397C22.7279 13.5495 23.2532 14.5847 23.9761 15.4768L24.7531 14.8473ZM24.6797 15.5502L24.6799 15.5501L24.0493 14.774L24.0492 14.7741L24.6797 15.5502ZM24.753 14.8473L24.7449 14.8378L23.984 15.4866L23.9921 15.4961L24.753 14.8473ZM24.9232 15.0469L24.7531 14.8473L23.9921 15.4961L24.1622 15.6957L24.9232 15.0469ZM25.4958 16.7793C25.4669 16.1851 25.2842 15.6082 24.9653 15.104L24.1202 15.6386C24.347 15.9973 24.4765 16.4068 24.497 16.8278L25.4958 16.7793ZM25.4955 17.011L25.4964 16.8057L24.4964 16.8014L24.4955 17.0067L25.4955 17.011ZM25.4955 17.0181L25.4955 17.011L24.4955 17.0067L24.4955 17.0138L25.4955 17.0181ZM25.4955 17.011L25.4953 17.0039L24.4956 17.028L24.4958 17.0351L25.4955 17.011ZM24.6894 19.3612C25.2308 18.7052 25.5166 17.8795 25.4955 17.011L24.4958 17.0352C24.5111 17.6657 24.3048 18.2562 23.9181 18.7247L24.6894 19.3612ZM21.8019 20.7491C22.91 20.6471 23.9412 20.1477 24.6656 19.388L23.9419 18.6979C23.389 19.2777 22.5845 19.6728 21.7102 19.7534L21.8019 20.7491ZM21.258 20.2951L21.258 20.2952L22.2541 20.2073L22.2541 20.2072L21.258 20.2951ZM21.8019 20.7492L21.8099 20.7483L21.7021 19.7541L21.694 19.755L21.8019 20.7492ZM10.2023 20.7506C14.0525 21.1687 17.937 21.1687 21.8019 20.7491L21.694 19.755C17.9007 20.1668 14.0885 20.1667 10.3103 19.7565L10.2023 20.7506ZM9.75879 20.2038L9.75879 20.2038L10.7538 20.3033L10.7538 20.3033L9.75879 20.2038ZM10.2024 20.7506L10.2085 20.7512L10.3042 19.7558L10.2981 19.7552L10.2024 20.7506ZM7.28661 19.3459C8.05196 20.144 9.08315 20.6429 10.2023 20.7506L10.2981 19.7552C9.4147 19.6702 8.60636 19.2773 8.00837 18.6538L7.28661 19.3459ZM6.50568 17.0427C6.48784 17.884 6.76931 18.7049 7.25765 19.3129L8.03734 18.6868C7.70058 18.2674 7.49244 17.6775 7.50546 17.0639L6.50568 17.0427ZM7.01476 16.5534L7.01466 16.5534L6.99648 17.5533L6.99659 17.5533L7.01476 16.5534ZM6.50568 17.0427L6.50568 17.053L7.50568 17.0537L7.50568 17.0435L6.50568 17.0427ZM6.50588 16.7738L6.50568 17.0427L7.50568 17.0435L7.50588 16.7746L6.50588 16.7738ZM6.52824 16.5075L6.50797 16.7286L7.50379 16.8199L7.52406 16.5988L6.52824 16.5075ZM6.94237 15.254C6.72704 15.6446 6.58734 16.0679 6.53068 16.486L7.52162 16.6203C7.5613 16.3275 7.66086 16.022 7.81811 15.7368L6.94237 15.254ZM7.03562 15.0989L6.95229 15.2368L7.80818 15.7539L7.89151 15.616L7.03562 15.0989ZM8.68597 11.8151C8.44157 13.0068 7.89037 14.1136 7.08784 15.0276L7.83929 15.6874C8.75614 14.6432 9.38619 13.3783 9.66558 12.016L8.68597 11.8151ZM8.69105 11.7903L8.68597 11.8151L9.66558 12.016L9.67066 11.9912L8.69105 11.7903ZM8.68597 11.8151L8.68341 11.8403L9.6783 11.9412L9.68086 11.916L8.68597 11.8151ZM8.70515 11.626L8.68597 11.8151L9.68086 11.916L9.70004 11.7269L8.70515 11.626ZM8.70752 11.6026L8.70515 11.626L9.70004 11.7269L9.70242 11.7035L8.70752 11.6026ZM8.70515 11.626L8.70498 11.6495L9.70496 11.6566L9.70512 11.6331L8.70515 11.626ZM8.7138 10.4071L8.70515 11.626L9.70512 11.6331L9.71377 10.4142L8.7138 10.4071ZM8.73513 9.78224L8.71408 10.3935L9.71349 10.4279L9.73453 9.81665L8.73513 9.78224ZM25.485 15.2462L25.6 15.1732L25.0642 14.3289L24.9493 14.4018L25.485 15.2462ZM24.993 14.358L24.8927 14.4435L25.5415 15.2045L25.6418 15.119L24.993 14.358ZM24.7572 14.8522L24.9369 15.0629L25.6979 14.4141L25.5182 14.2034L24.7572 14.8522ZM23.4042 12.1916C23.6603 13.1596 24.1187 14.0628 24.7489 14.8422L25.5265 14.2134C24.9847 13.5435 24.5909 12.7673 24.3709 11.9358L23.4042 12.1916ZM23.3212 11.8397L23.4008 12.1782L24.3742 11.9492L24.2946 11.6107L23.3212 11.8397ZM23.301 11.7101L23.3126 11.7941L24.3031 11.6564L24.2915 11.5725L23.301 11.7101ZM23.2742 11.1643C23.2781 11.349 23.2853 11.5042 23.2974 11.6765L24.295 11.6062C24.284 11.4505 24.2776 11.3117 24.274 11.1432L23.2742 11.1643ZM23.2705 9.95351L23.2741 11.1552L24.2741 11.1523L24.2705 9.95051L23.2705 9.95351ZM23.2705 9.9532L23.2705 9.95575L24.2705 9.94827L24.2705 9.94572L23.2705 9.9532ZM23.2411 9.22387C23.2597 9.4403 23.268 9.64678 23.2705 9.95351L24.2705 9.94541C24.2679 9.62248 24.259 9.38849 24.2374 9.13803L23.2411 9.22387ZM23.694 8.683L23.694 8.683L23.7845 9.6789L23.7845 9.67889L23.694 8.683ZM23.2411 9.22378L23.2415 9.22844L24.237 9.13346L24.2365 9.1288L23.2411 9.22378ZM16.0482 3.33331C19.6458 3.33331 22.926 5.92799 23.2411 9.22387L24.2365 9.12871C23.8628 5.21932 20.0537 2.33331 16.0482 2.33331V3.33331ZM15.9531 3.33331H16.0482V2.33331H15.9531V3.33331ZM8.77299 9.21522C9.07739 5.92816 12.3545 3.33331 15.9531 3.33331V2.33331C11.948 2.33331 8.1388 5.21888 7.77725 9.123L8.77299 9.21522ZM8.22656 9.66675L8.22657 9.66675L8.32367 8.67147L8.32366 8.67147L8.22656 9.66675ZM8.77299 9.21523L8.77326 9.2121L7.77696 9.12611L7.77669 9.12924L8.77299 9.21523ZM8.73526 9.77844C8.74497 9.58228 8.7574 9.39589 8.77299 9.21522L7.77669 9.12925C7.75995 9.32331 7.74673 9.52194 7.73648 9.729L8.73526 9.77844ZM8.21063 10.2531L8.21069 10.2531L8.26105 9.25436L8.26099 9.25435L8.21063 10.2531ZM8.73526 9.77844L8.73552 9.77092L7.73611 9.73652L7.73585 9.74404L8.73526 9.77844ZM8.71385 10.4003L8.73526 9.77844L7.73585 9.74404L7.71444 10.3659L8.71385 10.4003ZM8.19607 10.8828L8.19625 10.8828L8.23204 9.88342L8.23185 9.88341L8.19607 10.8828ZM8.71385 10.4003L8.71395 10.3866L7.71397 10.3795L7.71387 10.3932L8.71385 10.4003ZM8.70532 11.6025L8.71385 10.4003L7.71387 10.3932L7.70534 11.5954L8.70532 11.6025ZM8.68857 11.7894L8.70277 11.6494L7.70788 11.5485L7.69368 11.6885L8.68857 11.7894ZM7.06176 15.0571C7.8725 14.1441 8.43079 13.0359 8.68054 11.8413L7.7017 11.6366C7.48771 12.6602 7.00928 13.6102 6.31403 14.3931L7.06176 15.0571ZM6.39258 15.1286L6.39422 15.1298L6.98157 14.3204L6.97993 14.3192L6.39258 15.1286ZM6.99915 15.1267L7.06484 15.0505L6.30767 14.3973L6.24198 14.4734L6.99915 15.1267ZM6.95981 14.4326L6.95237 14.426L6.28876 15.1741L6.2962 15.1807L6.95981 14.4326ZM6.94735 15.245L7.05595 15.0652L6.20006 14.5481L6.09146 14.7278L6.94735 15.245ZM6.94259 15.2528L6.94735 15.245L6.09146 14.7278L6.0867 14.7357L6.94259 15.2528ZM6.94736 15.245L6.95183 15.2369L6.07745 14.7516L6.07298 14.7597L6.94736 15.245ZM6.52919 16.4972C6.58529 16.0722 6.72727 15.6415 6.94735 15.245L6.07299 14.7597C5.79357 15.2632 5.61073 15.8137 5.53779 16.3663L6.52919 16.4972ZM6.52788 16.507L6.52919 16.4972L5.53779 16.3663L5.53648 16.3762L6.52788 16.507ZM6.52919 16.4972L6.53009 16.4873L5.53427 16.3959L5.53336 16.4058L6.52919 16.4972ZM6.50589 16.7512L6.52919 16.4972L5.53336 16.4058L5.51007 16.6598L6.50589 16.7512ZM6.50382 16.7738L6.50589 16.7512L5.51007 16.6598L5.508 16.6824L6.50382 16.7738ZM6.50589 16.7512L6.50591 16.7285L5.50591 16.7277L5.50589 16.7504L6.50589 16.7512ZM6.50569 17.0378L6.50589 16.7512L5.50589 16.7504L5.50569 17.0371L6.50569 17.0378ZM7.27168 19.3303C6.77551 18.7215 6.48871 17.8949 6.50559 17.0474L5.50579 17.0275C5.48435 18.1041 5.84569 19.1635 6.49653 19.962L7.27168 19.3303ZM7.28369 19.345L7.27169 19.3303L6.49651 19.962L6.50851 19.9767L7.28369 19.345ZM7.27167 19.3303L7.2586 19.3165L6.5336 20.0052L6.54667 20.019L7.27167 19.3303ZM10.1995 20.7504C9.07414 20.6414 8.03788 20.1368 7.27168 19.3303L6.54667 20.019C7.48044 21.0019 8.74071 21.6138 10.1031 21.7457L10.1995 20.7504ZM21.798 20.7496C17.9354 21.1686 14.0532 21.1686 10.2053 20.751L10.0974 21.7451C14.0171 22.1705 17.9717 22.1705 21.9058 21.7437L21.798 20.7496ZM24.6779 19.3751C23.9536 20.1413 22.9185 20.6454 21.8056 20.7488L21.8982 21.7445C23.2456 21.6193 24.5085 21.01 25.4046 20.062L24.6779 19.3751ZM24.6886 19.3638L24.6779 19.3751L25.4046 20.062L25.4153 20.0507L24.6886 19.3638ZM24.6779 19.3751L24.668 19.387L25.436 20.0274L25.446 20.0154L24.6779 19.3751ZM25.4956 17.0175C25.5153 17.8898 25.2253 18.7185 24.6779 19.3751L25.446 20.0154C26.1498 19.1714 26.5204 18.1066 26.4954 16.995L25.4956 17.0175ZM25.4964 16.793L25.4955 17.0041L26.4955 17.0084L26.4964 16.7973L25.4964 16.793ZM25.4965 16.7809L25.4964 16.7931L26.4964 16.7973L26.4965 16.7851L25.4965 16.7809ZM25.4964 16.793L25.497 16.8052L26.496 16.7608L26.4954 16.7486L25.4964 16.793ZM24.9166 15.0291C25.2681 15.5545 25.4684 16.1643 25.4964 16.793L26.4954 16.7486C26.4593 15.9365 26.2006 15.1499 25.7477 14.473L24.9166 15.0291ZM12.2862 26.3648L12.2862 26.3648L13.072 25.7463C12.7304 25.3123 12.1017 25.2374 11.6677 25.579L12.2862 26.3648ZM12.2862 26.3648L12.2862 26.3648L11.6677 25.579C11.2337 25.9205 11.1588 26.5493 11.5004 26.9832L12.2862 26.3648ZM15.3938 28.1068C14.1678 27.9607 13.0494 27.3345 12.2862 26.3648L11.5004 26.9832C12.4281 28.1619 13.7869 28.9224 15.2755 29.0997L15.3938 28.1068ZM18.819 27.1489C17.8493 27.9083 16.6173 28.2525 15.3938 28.1068L15.2755 29.0997C16.7611 29.2767 18.2574 28.8588 19.4355 27.9362L18.819 27.1489ZM19.6173 26.3682C19.3831 26.663 19.1126 26.927 18.8258 27.1436L19.4286 27.9415C19.7842 27.6729 20.1149 27.3495 20.4002 26.9904L19.6173 26.3682ZM19.6174 26.3682L19.6173 26.3682L20.4002 26.9904C20.7438 26.558 20.6719 25.929 20.2395 25.5854L19.6174 26.3682ZM19.6173 26.3682L19.6173 26.3682L20.2395 25.5854C19.8072 25.2417 19.1781 25.3137 18.8345 25.746L19.6173 26.3682ZM18.8224 27.1462C19.1104 26.9291 19.3822 26.6641 19.6173 26.3682L18.8345 25.746C18.6506 25.9774 18.4393 26.1827 18.2204 26.3477L18.8224 27.1462ZM18.1201 27.0452L18.1202 27.0453L18.9226 26.4486L18.9226 26.4485L18.1201 27.0452ZM18.8224 27.1462L18.83 27.1403L18.2127 26.3535L18.2051 26.3595L18.8224 27.1462ZM15.3938 28.1068C16.6188 28.2527 17.8522 27.9075 18.8224 27.1462L18.2051 26.3595C17.4435 26.9571 16.4746 27.2284 15.5121 27.1138L15.3938 28.1068ZM12.2862 26.3648C13.0494 27.3345 14.1678 27.9607 15.3938 28.1068L15.5121 27.1138C14.5487 26.999 13.6708 26.507 13.072 25.7463L12.2862 26.3648Z" fill="#505050"/>
</svg>
