<svg width="32" height="32" viewBox="0 0 32 32" fill="none" xmlns="http://www.w3.org/2000/svg">
<path fill-rule="evenodd" clip-rule="evenodd" d="M20.9833 2.8C20.9833 2.35817 20.6251 2 20.1833 2C19.7415 2 19.3833 2.35817 19.3833 2.8V5.77429H12.2631V2.8C12.2631 2.35817 11.9049 2 11.4631 2C11.0213 2 10.6631 2.35817 10.6631 2.8V5.77429H10.1584C8.29922 5.77429 6.73199 6.26901 5.62889 7.34017C4.52201 8.41499 4 9.95578 4 11.8025V23.9557C4 25.834 4.52183 27.4008 5.62593 28.4957C6.72891 29.5895 8.2979 30.0982 10.1584 30.0982H21.4298C23.2911 30.0982 24.8588 29.6021 25.9616 28.5282C27.0677 27.4509 27.5882 25.9071 27.5882 24.0573L27.5882 11.8018L27.5882 11.8005C27.5936 9.95438 27.0778 8.41351 25.9731 7.33859C24.872 6.26727 23.3043 5.77429 21.4421 5.77429H20.9833V2.8ZM19.3833 7.37429V8.75517C19.3833 9.197 19.7415 9.55517 20.1833 9.55517C20.6251 9.55517 20.9833 9.197 20.9833 8.75517V7.37429H21.4421C23.0362 7.37429 24.1468 7.79404 24.8573 8.48535C25.5638 9.17282 25.993 10.244 25.9883 11.7969L25.9882 11.7994V12.8276H5.6V11.8025C5.6 10.2511 6.03319 9.17779 6.74351 8.48804C7.45761 7.79463 8.56959 7.37429 10.1584 7.37429H10.6631V8.75517C10.6631 9.197 11.0213 9.55517 11.4631 9.55517C11.9049 9.55517 12.2631 9.197 12.2631 8.75517V7.37429H19.3833ZM5.6 14.4276V23.9557C5.6 25.546 6.03742 26.6505 6.75256 27.3596C7.46881 28.0699 8.57903 28.4982 10.1584 28.4982H21.4298C23.0201 28.4982 24.1317 28.0769 24.8453 27.382C25.5554 26.6903 25.9882 25.6137 25.9882 24.0573L25.9882 14.4276H5.6ZM10.2148 18.9602C10.2148 18.407 9.76985 17.9586 9.22095 17.9586L9.07381 17.9678C8.58871 18.0341 8.21481 18.4531 8.21481 18.9602C8.21481 19.5133 8.65978 19.9618 9.20867 19.9618L9.35581 19.9526C9.84092 19.8863 10.2148 19.4672 10.2148 18.9602ZM15.8003 17.9586C16.3492 17.9586 16.7941 18.407 16.7941 18.9602C16.7941 19.4672 16.4202 19.8863 15.9351 19.9526L15.8003 19.9618C15.2391 19.9618 14.7941 19.5133 14.7941 18.9602C14.7941 18.4531 15.168 18.0341 15.6531 17.9678L15.8003 17.9586ZM23.3734 18.9602C23.3734 18.407 22.9285 17.9586 22.3796 17.9586L22.2324 17.9678C21.7473 18.0341 21.3734 18.4531 21.3734 18.9602C21.3734 19.5133 21.8184 19.9618 22.3796 19.9618L22.5144 19.9526C22.9995 19.8863 23.3734 19.4672 23.3734 18.9602ZM9.22095 22.9618C9.76985 22.9618 10.2148 23.4102 10.2148 23.9633C10.2148 24.4704 9.84092 24.8894 9.35581 24.9558L9.20867 24.9649C8.65978 24.9649 8.21481 24.5165 8.21481 23.9633C8.21481 23.4563 8.58871 23.0372 9.07381 22.9709L9.22095 22.9618ZM16.7941 23.9633C16.7941 23.4102 16.3492 22.9618 15.8003 22.9618L15.6531 22.9709C15.168 23.0372 14.7941 23.4563 14.7941 23.9633C14.7941 24.5165 15.2391 24.9649 15.8003 24.9649L15.9351 24.9558C16.4202 24.8894 16.7941 24.4704 16.7941 23.9633ZM22.3796 22.9618C22.9285 22.9618 23.3734 23.4102 23.3734 23.9633C23.3734 24.4704 22.9995 24.8894 22.5144 24.9558L22.3796 24.9649C21.8184 24.9649 21.3734 24.5165 21.3734 23.9633C21.3734 23.4563 21.7473 23.0372 22.2324 22.9709L22.3796 22.9618Z" fill="#505050"/>
</svg>
