<svg width="32" height="32" viewBox="0 0 32 32" fill="none" xmlns="http://www.w3.org/2000/svg">
<path fill-rule="evenodd" clip-rule="evenodd" d="M9.00021 10.1742C9.00991 9.97915 9.02225 9.79459 9.0376 9.6164C9.32432 6.53076 12.4425 4 15.9516 4H16.0498C19.5568 4 22.6795 6.5299 22.9769 9.62603C22.9945 9.83127 23.0027 10.03 23.0052 10.3365L23.0053 10.338L23.009 11.5806H23.0089L23.0091 11.5895C23.0134 11.7971 23.0216 11.9712 23.0356 12.166L23.0368 12.1826L23.0391 12.199L23.0568 12.3266L23.06 12.3496L23.0653 12.3722L23.1546 12.7518L23.1545 12.7519L23.1579 12.7647C23.4406 13.8375 23.9483 14.838 24.6472 15.7006L24.6471 15.7007L24.6552 15.7102L24.8316 15.9171C25.1152 16.3652 25.2775 16.8775 25.303 17.4049L25.3021 17.6172L25.3021 17.6243L25.3022 17.6314C25.3211 18.4092 25.0657 19.1441 24.584 19.7277C23.9219 20.4222 22.9706 20.8857 21.9434 20.9803L21.9434 20.9803L21.9353 20.9811C17.9814 21.4103 14.0076 21.4103 10.0691 20.9827L10.0691 20.9826L10.063 20.982C9.0253 20.8822 8.07203 20.42 7.3656 19.6831C6.93702 19.1497 6.68294 18.4176 6.69896 17.6627L6.69906 17.6627L6.69907 17.6525L6.69927 17.3742L6.7203 17.1449C6.77028 16.7757 6.89449 16.3974 7.08788 16.0467L7.1748 15.9028C8.06092 14.894 8.66969 13.6721 8.93956 12.3561L8.94465 12.3313L8.9472 12.3061L8.967 12.1109L8.96938 12.0875L8.96954 12.064L8.97848 10.8056L9.00021 10.1742ZM25.62 15.2954L25.5126 15.3635L25.6059 15.284L25.4203 15.0663C24.8138 14.3164 24.3729 13.4474 24.1265 12.5162L24.0441 12.1658L24.0319 12.0779C24.0199 11.9082 24.0128 11.756 24.009 11.5732L24.0052 10.3325L24.0052 10.3299C24.0026 10.0052 23.9937 9.77828 23.973 9.53785L23.973 9.53785L23.9726 9.53319C23.618 5.8241 19.9675 3 16.0498 3H15.9516C12.0335 3 8.38453 5.82397 8.04172 9.52573L8.04171 9.52573L8.04144 9.52885C8.02477 9.72205 8.01154 9.92058 8.00125 10.1285L8.00119 10.1285L8.00093 10.136L7.97883 10.778L7.97865 10.778L7.97855 10.7916L7.96974 12.0334L7.95491 12.1795C7.71508 13.3274 7.17867 14.3926 6.39939 15.2702L6.3977 15.269L6.32989 15.3476L6.33774 15.3545L6.22705 15.5377L6.22229 15.5456L6.21782 15.5537C5.96096 16.0165 5.79396 16.521 5.72763 17.0235L5.72633 17.0334L5.72542 17.0433L5.70138 17.3055L5.6993 17.3281L5.69929 17.3508L5.69907 17.6468C5.67934 18.6363 6.01267 19.6061 6.60222 20.3294L6.61422 20.3441L6.62729 20.3579C7.50204 21.2787 8.68381 21.8532 9.96411 21.9771C13.9723 22.4122 18.0161 22.4122 22.0393 21.9757C23.3055 21.858 24.4879 21.2851 25.3215 20.4032L25.3322 20.3919L25.3422 20.3799C25.9855 19.6084 26.3251 18.6348 26.3021 17.6146L26.303 17.3965L26.3031 17.3843L26.3025 17.3721C26.2696 16.6314 26.0336 15.9135 25.62 15.2954ZM12.5591 26.9659C12.3883 26.7489 12.0739 26.7115 11.8569 26.8822C11.6399 27.053 11.6025 27.3674 11.7733 27.5844C12.6434 28.6899 13.918 29.4035 15.315 29.5699C16.7091 29.7359 18.1131 29.3438 19.2183 28.4782C19.5487 28.2285 19.8581 27.9263 20.1255 27.5898C20.2973 27.3736 20.2613 27.0591 20.0451 26.8873C19.829 26.7155 19.5144 26.7514 19.3426 26.9676C19.1255 27.2408 18.8752 27.4845 18.6124 27.6826L18.6124 27.6825L18.6048 27.6885C17.7076 28.3925 16.5666 28.7119 15.4333 28.5769C14.299 28.4418 13.2647 27.8624 12.5591 26.9659Z" fill="#505050"/>
<path d="M9.0376 9.6164L8.53974 9.57013L8.53945 9.57347L9.0376 9.6164ZM9.00021 10.1742L8.50077 10.1494L8.50051 10.157L9.00021 10.1742ZM22.9769 9.62603L23.4751 9.58328L23.4746 9.57823L22.9769 9.62603ZM23.0052 10.3365L23.5052 10.3327L23.5052 10.3325L23.0052 10.3365ZM23.0053 10.338L23.5053 10.3365L23.5052 10.3342L23.0053 10.338ZM23.009 11.5806V12.0806H23.5105L23.509 11.5791L23.009 11.5806ZM23.0089 11.5806V11.0806H22.4984L22.509 11.591L23.0089 11.5806ZM23.0091 11.5895L22.5092 11.5999L22.5092 11.5999L23.0091 11.5895ZM23.0356 12.166L22.5369 12.2019L22.5369 12.2019L23.0356 12.166ZM23.0368 12.1826L22.5381 12.2185L22.5393 12.235L22.5416 12.2514L23.0368 12.1826ZM23.0391 12.199L23.5343 12.1302L23.5343 12.1302L23.0391 12.199ZM23.0568 12.3266L22.5616 12.3954L22.5616 12.3954L23.0568 12.3266ZM23.06 12.3496L22.5648 12.4184L22.568 12.4415L22.5733 12.4641L23.06 12.3496ZM23.0653 12.3722L22.5786 12.4867L22.5786 12.4868L23.0653 12.3722ZM23.1546 12.7518L23.2696 13.2384L23.7558 13.1236L23.6414 12.6373L23.1546 12.7518ZM23.1545 12.7519L23.0395 12.2653L22.5402 12.3832L22.671 12.8793L23.1545 12.7519ZM23.1579 12.7647L23.6414 12.6373L23.6413 12.6373L23.1579 12.7647ZM24.6472 15.7006L24.9636 16.0877L25.3491 15.7726L25.0357 15.3858L24.6472 15.7006ZM24.6471 15.7007L24.3306 15.3135L23.9355 15.6366L24.2665 16.025L24.6471 15.7007ZM24.6552 15.7102L24.2747 16.0345L24.2747 16.0346L24.6552 15.7102ZM24.8316 15.9171L25.2541 15.6497L25.2351 15.6197L25.2121 15.5927L24.8316 15.9171ZM25.303 17.4049L25.803 17.407L25.803 17.3939L25.8024 17.3807L25.303 17.4049ZM25.3021 17.6172L25.8021 17.6193L25.8021 17.6193L25.3021 17.6172ZM25.3021 17.6243L24.8021 17.6222L24.802 17.6292L24.8022 17.6363L25.3021 17.6243ZM25.3022 17.6314L24.8024 17.6435L24.8024 17.6436L25.3022 17.6314ZM24.584 19.7277L24.9459 20.0727L24.9582 20.0597L24.9696 20.046L24.584 19.7277ZM21.9434 20.9803L21.4452 21.023L21.4882 21.5244L21.9892 21.4782L21.9434 20.9803ZM21.9434 20.9803L22.4415 20.9376L22.3978 20.4279L21.8893 20.4832L21.9434 20.9803ZM21.9353 20.9811L21.9892 21.4782L21.9893 21.4782L21.9353 20.9811ZM10.0691 20.9827L9.57253 20.9239L9.51316 21.4252L10.0151 21.4797L10.0691 20.9827ZM10.0691 20.9826L10.5656 21.0414L10.6257 20.534L10.1171 20.4849L10.0691 20.9826ZM10.063 20.982L10.111 20.4843L10.1109 20.4843L10.063 20.982ZM7.3656 19.6831L6.97584 19.9963L6.98953 20.0133L7.00466 20.0291L7.3656 19.6831ZM6.69896 17.6627L6.71259 17.1629L6.20974 17.1492L6.19907 17.6521L6.69896 17.6627ZM6.69906 17.6627L6.68543 18.1625L7.19868 18.1765L7.19906 17.6631L6.69906 17.6627ZM6.69907 17.6525L7.19907 17.6528L7.19907 17.6528L6.69907 17.6525ZM6.69927 17.3742L6.20136 17.3285L6.19929 17.3511L6.19927 17.3738L6.69927 17.3742ZM6.7203 17.1449L6.22482 17.0778L6.22337 17.0885L6.22239 17.0992L6.7203 17.1449ZM7.08788 16.0467L6.65993 15.7881L6.65482 15.7966L6.65004 15.8053L7.08788 16.0467ZM7.1748 15.9028L6.79914 15.5729L6.76983 15.6062L6.74686 15.6443L7.1748 15.9028ZM8.93956 12.3561L8.44975 12.2556L8.44975 12.2556L8.93956 12.3561ZM8.94465 12.3313L9.43445 12.4317L9.43954 12.407L9.44209 12.3818L8.94465 12.3313ZM8.9472 12.3061L8.44975 12.2556L8.44975 12.2556L8.9472 12.3061ZM8.967 12.1109L8.46956 12.0605L8.46956 12.0605L8.967 12.1109ZM8.96938 12.0875L9.46682 12.138L9.4692 12.1146L9.46936 12.0911L8.96938 12.0875ZM8.96954 12.064L8.46956 12.0605L8.46956 12.0605L8.96954 12.064ZM8.97848 10.8056L8.47859 10.7884L8.47849 10.802L8.97848 10.8056ZM25.5126 15.3635L25.1882 14.9831L25.7805 15.7857L25.5126 15.3635ZM25.62 15.2954L26.0356 15.0173L25.7642 14.6118L25.3521 14.8732L25.62 15.2954ZM25.6059 15.284L25.9303 15.6645L26.3108 15.3401L25.9864 14.9596L25.6059 15.284ZM25.4203 15.0663L25.0314 15.3808L25.0398 15.3907L25.4203 15.0663ZM24.1265 12.5162L23.6396 12.6308L23.6431 12.6441L24.1265 12.5162ZM24.0441 12.1658L23.5488 12.2347L23.552 12.2577L23.5574 12.2804L24.0441 12.1658ZM24.0319 12.0779L23.5331 12.1131L23.5343 12.13L23.5366 12.1468L24.0319 12.0779ZM24.009 11.5732L23.5089 11.5747L23.5091 11.5837L24.009 11.5732ZM24.0052 10.3325L24.5053 10.331L24.5052 10.3284L24.0052 10.3325ZM24.0052 10.3299L23.5052 10.334L23.5052 10.334L24.0052 10.3299ZM23.973 9.53785L23.9277 9.0399L23.4321 9.08496L23.4749 9.58077L23.973 9.53785ZM23.973 9.53785L24.0183 10.0358L24.5185 9.99032L24.4708 9.49036L23.973 9.53785ZM23.9726 9.53319L24.4703 9.4857L24.4703 9.48561L23.9726 9.53319ZM8.04172 9.52573L7.99317 10.0234L8.49326 10.0722L8.53959 9.57184L8.04172 9.52573ZM8.04171 9.52573L8.09026 9.02809L7.587 8.97899L7.54356 9.48277L8.04171 9.52573ZM8.04144 9.52885L8.53959 9.57184L8.53959 9.57181L8.04144 9.52885ZM8.00125 10.1285L7.98026 10.6281L8.4761 10.6489L8.50064 10.1533L8.00125 10.1285ZM8.00119 10.1285L8.02218 9.62897L7.51882 9.60782L7.50149 10.1113L8.00119 10.1285ZM8.00093 10.136L8.50064 10.1533L8.50064 10.1532L8.00093 10.136ZM7.97883 10.778L7.96224 11.2777L8.46136 11.2943L8.47854 10.7952L7.97883 10.778ZM7.97865 10.778L7.99524 10.2783L7.4823 10.2612L7.47866 10.7744L7.97865 10.778ZM7.97855 10.7916L8.47854 10.7952L8.47854 10.7952L7.97855 10.7916ZM7.96974 12.0334L8.46718 12.0839L8.46956 12.0605L8.46972 12.0369L7.96974 12.0334ZM7.95491 12.1795L8.44434 12.2818L8.44971 12.2561L8.45236 12.23L7.95491 12.1795ZM6.39939 15.2702L6.1058 15.6749L6.47248 15.9409L6.77326 15.6022L6.39939 15.2702ZM6.3977 15.269L6.69129 14.8642L6.3193 14.5944L6.01911 14.9423L6.3977 15.269ZM6.32989 15.3476L5.9513 15.021L5.62917 15.3943L5.99808 15.7216L6.32989 15.3476ZM6.33774 15.3545L6.76568 15.6131L6.98099 15.2568L6.66954 14.9805L6.33774 15.3545ZM6.22705 15.5377L6.655 15.7963L6.655 15.7963L6.22705 15.5377ZM6.22229 15.5456L5.79434 15.287L5.78957 15.2949L5.7851 15.303L6.22229 15.5456ZM6.21782 15.5537L6.655 15.7963L6.65501 15.7963L6.21782 15.5537ZM5.72763 17.0235L6.22333 17.0889L6.22333 17.0889L5.72763 17.0235ZM5.72633 17.0334L5.23063 16.9679L5.22933 16.9778L5.22842 16.9877L5.72633 17.0334ZM5.72542 17.0433L6.22333 17.0889L6.22333 17.0889L5.72542 17.0433ZM5.70138 17.3055L5.20347 17.2598L5.20347 17.2598L5.70138 17.3055ZM5.6993 17.3281L5.20139 17.2824L5.19932 17.305L5.1993 17.3277L5.6993 17.3281ZM5.69929 17.3508L5.19929 17.3504L5.19929 17.3504L5.69929 17.3508ZM5.69907 17.6468L6.19906 17.6568L6.19907 17.6472L5.69907 17.6468ZM6.60222 20.3294L6.21465 20.6453L6.21466 20.6453L6.60222 20.3294ZM6.61422 20.3441L6.22665 20.66L6.23863 20.6747L6.25169 20.6885L6.61422 20.3441ZM6.62729 20.3579L6.26477 20.7022L6.26479 20.7022L6.62729 20.3579ZM9.96411 21.9771L10.0181 21.48L10.0123 21.4795L9.96411 21.9771ZM22.0393 21.9757L21.9931 21.4778L21.9854 21.4786L22.0393 21.9757ZM25.3215 20.4032L24.9581 20.0597L24.9581 20.0598L25.3215 20.4032ZM25.3322 20.3919L25.6955 20.7354L25.7062 20.7241L25.7162 20.7121L25.3322 20.3919ZM25.3422 20.3799L24.9581 20.0598L24.9581 20.0598L25.3422 20.3799ZM26.3021 17.6146L25.8019 17.6124L25.8022 17.6258L26.3021 17.6146ZM26.303 17.3965L25.803 17.3943L25.803 17.3944L26.303 17.3965ZM26.3031 17.3843L26.8031 17.3865L26.8031 17.3742L26.8026 17.362L26.3031 17.3843ZM26.3025 17.3721L25.803 17.3944L25.803 17.3944L26.3025 17.3721ZM11.8569 26.8822L12.1662 27.2751L12.1662 27.2751L11.8569 26.8822ZM12.5591 26.9659L12.1662 27.2751L12.1662 27.2751L12.5591 26.9659ZM11.7733 27.5844L12.1662 27.2751L12.1662 27.2751L11.7733 27.5844ZM15.315 29.5699L15.3741 29.0734L15.3741 29.0734L15.315 29.5699ZM19.2183 28.4782L18.9168 28.0792L18.91 28.0845L19.2183 28.4782ZM20.1255 27.5898L19.734 27.2787L19.734 27.2787L20.1255 27.5898ZM20.0451 26.8873L20.3562 26.4958L20.3562 26.4958L20.0451 26.8873ZM19.3426 26.9676L19.734 27.2787L19.734 27.2787L19.3426 26.9676ZM18.6124 27.6826L18.2124 27.9826L18.5132 28.3836L18.9134 28.0818L18.6124 27.6826ZM18.6124 27.6825L19.0124 27.3825L18.7057 26.9736L18.3037 27.2892L18.6124 27.6825ZM18.6048 27.6885L18.9134 28.0818L18.9135 28.0818L18.6048 27.6885ZM15.4333 28.5769L15.4924 28.0804L15.4924 28.0804L15.4333 28.5769ZM8.53945 9.57347C8.52352 9.75829 8.5108 9.94892 8.50083 10.1494L9.49959 10.1991C9.50903 10.0094 9.52097 9.83088 9.53576 9.65932L8.53945 9.57347ZM15.9516 3.5C12.2373 3.5 8.85496 6.17782 8.53975 9.57014L9.53546 9.66266C9.79368 6.88369 12.6477 4.5 15.9516 4.5V3.5ZM16.0498 3.5H15.9516V4.5H16.0498V3.5ZM23.4746 9.57823C23.1479 6.1772 19.7627 3.5 16.0498 3.5V4.5C19.351 4.5 22.2111 6.8826 22.4792 9.67384L23.4746 9.57823ZM23.5052 10.3325C23.5027 10.0179 23.4941 9.80545 23.4751 9.58328L22.4787 9.66879C22.4949 9.85709 22.5028 10.0421 22.5053 10.3406L23.5052 10.3325ZM23.5052 10.3342L23.5052 10.3327L22.5053 10.3404L22.5053 10.3419L23.5052 10.3342ZM23.509 11.5791L23.5053 10.3365L22.5053 10.3395L22.509 11.5821L23.509 11.5791ZM23.0089 12.0806H23.009V11.0806H23.0089V12.0806ZM23.509 11.5791L23.5088 11.5702L22.509 11.591L22.5092 11.5999L23.509 11.5791ZM23.5343 12.1302C23.5209 11.9438 23.5131 11.7782 23.509 11.5791L22.5092 11.5999C22.5137 11.8159 22.5223 11.9985 22.5369 12.2019L23.5343 12.1302ZM23.5355 12.1467L23.5343 12.1302L22.5369 12.2019L22.5381 12.2185L23.5355 12.1467ZM23.5343 12.1302L23.532 12.1137L22.5416 12.2514L22.5438 12.2678L23.5343 12.1302ZM23.552 12.2577L23.5343 12.1302L22.5438 12.2678L22.5616 12.3954L23.552 12.2577ZM23.5552 12.2808L23.552 12.2577L22.5616 12.3954L22.5648 12.4184L23.5552 12.2808ZM23.552 12.2577L23.5467 12.2351L22.5733 12.4641L22.5786 12.4867L23.552 12.2577ZM23.6414 12.6373L23.552 12.2577L22.5786 12.4868L22.6679 12.8663L23.6414 12.6373ZM23.2694 13.2385L23.2696 13.2384L23.0397 12.2652L23.0395 12.2653L23.2694 13.2385ZM23.6413 12.6373L23.6379 12.6244L22.671 12.8793L22.6744 12.8922L23.6413 12.6373ZM25.0357 15.3858C24.3813 14.5782 23.906 13.6414 23.6414 12.6373L22.6744 12.8922C22.9752 14.0335 23.5154 15.0979 24.2587 16.0153L25.0357 15.3858ZM24.9635 16.0878L24.9636 16.0877L24.3307 15.3134L24.3306 15.3135L24.9635 16.0878ZM25.0357 15.3859L25.0276 15.3763L24.2665 16.025L24.2747 16.0345L25.0357 15.3859ZM25.2121 15.5927L25.0357 15.3858L24.2747 16.0346L24.4511 16.2415L25.2121 15.5927ZM25.8024 17.3807C25.7727 16.7666 25.5838 16.1706 25.2541 15.6497L24.4091 16.1845C24.6467 16.5598 24.7823 16.9884 24.8036 17.429L25.8024 17.3807ZM25.8021 17.6193L25.803 17.407L24.803 17.4027L24.8021 17.615L25.8021 17.6193ZM25.8021 17.6264L25.8021 17.6193L24.8021 17.615L24.8021 17.6222L25.8021 17.6264ZM25.8021 17.6194L25.8019 17.6123L24.8022 17.6363L24.8024 17.6435L25.8021 17.6194ZM24.9696 20.046C25.5287 19.3687 25.8238 18.5162 25.8021 17.6193L24.8024 17.6436C24.8183 18.3022 24.6027 18.9195 24.1984 19.4093L24.9696 20.046ZM21.9892 21.4782C23.1333 21.3728 24.198 20.8572 24.9459 20.0727L24.2221 19.3827C23.6458 19.9872 22.8078 20.3986 21.8975 20.4824L21.9892 21.4782ZM21.4452 21.023L21.4452 21.023L22.4415 20.9376L22.4415 20.9376L21.4452 21.023ZM21.9893 21.4782L21.9974 21.4773L21.8893 20.4832L21.8812 20.4841L21.9893 21.4782ZM10.0151 21.4797C13.9895 21.9113 17.9995 21.9113 21.9892 21.4782L21.8813 20.4841C17.9632 20.9094 14.0256 20.9093 10.123 20.4856L10.0151 21.4797ZM9.57253 20.9238L9.57253 20.9239L10.5656 21.0415L10.5656 21.0414L9.57253 20.9238ZM10.015 21.4797L10.0211 21.4803L10.1171 20.4849L10.111 20.4843L10.015 21.4797ZM7.00466 20.0291C7.79478 20.8533 8.8595 21.3685 10.0151 21.4797L10.1109 20.4843C9.1911 20.3958 8.34928 19.9867 7.72654 19.3371L7.00466 20.0291ZM6.19907 17.6521C6.18064 18.5209 6.4714 19.3685 6.97584 19.9963L7.75536 19.3699C7.40263 18.9309 7.18525 18.3142 7.19884 17.6733L6.19907 17.6521ZM6.71269 17.1629L6.71259 17.1629L6.68532 18.1625L6.68543 18.1625L6.71269 17.1629ZM6.19907 17.6521L6.19906 17.6624L7.19906 17.6631L7.19907 17.6528L6.19907 17.6521ZM6.19927 17.3738L6.19907 17.6521L7.19907 17.6528L7.19927 17.3745L6.19927 17.3738ZM6.22239 17.0992L6.20136 17.3285L7.19718 17.4198L7.21821 17.1906L6.22239 17.0992ZM6.65004 15.8053C6.42758 16.2087 6.28329 16.6459 6.22482 17.0778L7.21578 17.212C7.25727 16.9055 7.36139 16.5861 7.52572 16.2881L6.65004 15.8053ZM6.74686 15.6443L6.65993 15.7881L7.51583 16.3053L7.60275 16.1614L6.74686 15.6443ZM8.44975 12.2556C8.19738 13.4863 7.62806 14.6292 6.79914 15.5729L7.55046 16.2328C8.49378 15.1589 9.14199 13.8579 9.42937 12.4565L8.44975 12.2556ZM8.45484 12.2309L8.44975 12.2556L9.42937 12.4565L9.43445 12.4317L8.45484 12.2309ZM8.44975 12.2556L8.4472 12.2808L9.44209 12.3818L9.44465 12.3566L8.44975 12.2556ZM8.46956 12.0605L8.44975 12.2556L9.44465 12.3566L9.46445 12.1614L8.46956 12.0605ZM8.47193 12.0371L8.46956 12.0605L9.46445 12.1614L9.46682 12.138L8.47193 12.0371ZM8.46956 12.0605L8.46939 12.084L9.46936 12.0911L9.46953 12.0676L8.46956 12.0605ZM8.47849 10.802L8.46956 12.0605L9.46953 12.0676L9.47846 10.8091L8.47849 10.802ZM8.50051 10.157L8.47877 10.7884L9.47818 10.8228L9.49992 10.1915L8.50051 10.157ZM25.7805 15.7857L25.8879 15.7176L25.3521 14.8732L25.2447 14.9414L25.7805 15.7857ZM25.2815 14.9035L25.1882 14.9831L25.837 15.744L25.9303 15.6645L25.2815 14.9035ZM25.0398 15.3907L25.2254 15.6084L25.9864 14.9596L25.8008 14.7419L25.0398 15.3907ZM23.6431 12.6441C23.9076 13.6435 24.3808 14.576 25.0315 15.3807L25.8091 14.7518C25.2469 14.0567 24.8382 13.2512 24.6099 12.3883L23.6431 12.6441ZM23.5574 12.2804L23.6398 12.6307L24.6132 12.4017L24.5308 12.0513L23.5574 12.2804ZM23.5366 12.1468L23.5488 12.2347L24.5393 12.097L24.5271 12.0091L23.5366 12.1468ZM23.5091 11.5837C23.5131 11.7746 23.5205 11.935 23.5331 12.1131L24.5306 12.0428C24.5192 11.8813 24.5125 11.7374 24.5089 11.5626L23.5091 11.5837ZM23.5053 10.334L23.509 11.5747L24.509 11.5717L24.5052 10.331L23.5053 10.334ZM23.5052 10.334L23.5053 10.3366L24.5052 10.3284L24.5052 10.3258L23.5052 10.334ZM23.4749 9.58077C23.4941 9.80418 23.5027 10.0173 23.5052 10.334L24.5052 10.3259C24.5025 9.99304 24.4934 9.75238 24.4712 9.49493L23.4749 9.58077ZM23.9278 9.0399L23.9277 9.0399L24.0183 10.0358L24.0183 10.0358L23.9278 9.0399ZM23.4749 9.58068L23.4753 9.58533L24.4708 9.49036L24.4703 9.4857L23.4749 9.58068ZM16.0498 3.5C19.7635 3.5 23.1496 6.17841 23.4749 9.58077L24.4703 9.48561C24.0865 5.46979 20.1714 2.5 16.0498 2.5V3.5ZM15.9516 3.5H16.0498V2.5H15.9516V3.5ZM8.53959 9.57184C8.85383 6.17859 12.2368 3.5 15.9516 3.5V2.5C11.8303 2.5 7.91523 5.46935 7.54385 9.47962L8.53959 9.57184ZM7.99316 10.0234L7.99317 10.0234L8.09027 9.02809L8.09026 9.02809L7.99316 10.0234ZM8.53959 9.57181L8.53986 9.56869L7.54356 9.48277L7.54329 9.4859L8.53959 9.57181ZM8.50064 10.1533C8.51066 9.95075 8.5235 9.75834 8.53959 9.57184L7.54329 9.48587C7.52604 9.68576 7.51243 9.89042 7.50186 10.1038L8.50064 10.1533ZM7.9802 10.6281L7.98026 10.6281L8.02224 9.62897L8.02218 9.62897L7.9802 10.6281ZM8.50064 10.1532L8.5009 10.1457L7.50149 10.1113L7.50123 10.1188L8.50064 10.1532ZM8.47854 10.7952L8.50064 10.1533L7.50123 10.1188L7.47913 10.7608L8.47854 10.7952ZM7.96205 11.2777L7.96224 11.2777L7.99543 10.2783L7.99524 10.2783L7.96205 11.2777ZM8.47854 10.7952L8.47863 10.7815L7.47866 10.7744L7.47856 10.7881L8.47854 10.7952ZM8.46972 12.0369L8.47854 10.7952L7.47856 10.7881L7.46975 12.0298L8.46972 12.0369ZM8.45236 12.23L8.46718 12.0839L7.47229 11.9829L7.45746 12.1291L8.45236 12.23ZM6.77326 15.6022C7.6103 14.6595 8.18663 13.5152 8.44434 12.2818L7.46548 12.0773C7.24352 13.1396 6.74704 14.1256 6.02551 14.9382L6.77326 15.6022ZM6.10411 15.6737L6.1058 15.6749L6.69298 14.8655L6.69129 14.8642L6.10411 15.6737ZM6.70847 15.6742L6.77628 15.5956L6.01911 14.9423L5.9513 15.021L6.70847 15.6742ZM6.66954 14.9805L6.66169 14.9735L5.99808 15.7216L6.00593 15.7286L6.66954 14.9805ZM6.655 15.7963L6.76568 15.6131L5.90979 15.096L5.79911 15.2791L6.655 15.7963ZM6.65023 15.8042L6.655 15.7963L5.79911 15.2791L5.79434 15.287L6.65023 15.8042ZM6.65501 15.7963L6.65948 15.7882L5.7851 15.303L5.78063 15.311L6.65501 15.7963ZM6.22333 17.0889C6.28124 16.6502 6.42781 16.2056 6.655 15.7963L5.78063 15.311C5.49411 15.8273 5.30669 16.3918 5.23193 16.9581L6.22333 17.0889ZM6.22203 17.0988L6.22333 17.0889L5.23193 16.9581L5.23063 16.9679L6.22203 17.0988ZM6.22333 17.0889L6.22424 17.079L5.22842 16.9877L5.22751 16.9976L6.22333 17.0889ZM6.19929 17.3511L6.22333 17.0889L5.22751 16.9976L5.20347 17.2598L6.19929 17.3511ZM6.19721 17.3737L6.19929 17.3511L5.20347 17.2598L5.20139 17.2824L6.19721 17.3737ZM6.19929 17.3511L6.1993 17.3284L5.1993 17.3277L5.19929 17.3504L6.19929 17.3511ZM6.19907 17.6472L6.19929 17.3511L5.19929 17.3504L5.19907 17.6464L6.19907 17.6472ZM6.9898 20.0135C6.47758 19.3851 6.18152 18.5317 6.19897 17.6568L5.19917 17.6368C5.17715 18.7409 5.54775 19.8271 6.21465 20.6453L6.9898 20.0135ZM7.00179 20.0282L6.98979 20.0135L6.21466 20.6453L6.22665 20.66L7.00179 20.0282ZM6.98982 20.0135L6.97674 19.9998L6.25169 20.6885L6.26477 20.7022L6.98982 20.0135ZM10.0123 21.4795C8.85052 21.367 7.78076 20.8461 6.9898 20.0135L6.26479 20.7022C7.22333 21.7113 8.51709 22.3394 9.91591 22.4748L10.0123 21.4795ZM21.9854 21.4786C17.998 21.9112 13.9903 21.9112 10.0181 21.4801L9.91016 22.4742C13.9542 22.9131 18.0343 22.9131 22.0933 22.4728L21.9854 21.4786ZM24.9581 20.0598C24.2104 20.8507 23.1419 21.3711 21.9931 21.4779L22.0856 22.4736C23.469 22.345 24.7653 21.7194 25.6848 20.7467L24.9581 20.0598ZM24.9688 20.0484L24.9581 20.0597L25.6848 20.7467L25.6955 20.7354L24.9688 20.0484ZM24.9581 20.0598L24.9481 20.0718L25.7162 20.7121L25.7262 20.7001L24.9581 20.0598ZM25.8022 17.6258C25.8225 18.5264 25.5232 19.382 24.9581 20.0598L25.7262 20.7001C26.4477 19.8348 26.8277 18.7432 26.802 17.6033L25.8022 17.6258ZM25.803 17.3944L25.8021 17.6124L26.8021 17.6167L26.803 17.3986L25.803 17.3944ZM25.8031 17.3821L25.803 17.3943L26.803 17.3987L26.8031 17.3865L25.8031 17.3821ZM25.803 17.3944L25.8036 17.4066L26.8026 17.362L26.8021 17.3498L25.803 17.3944ZM25.2044 15.5735C25.5674 16.1158 25.7741 16.7453 25.803 17.3944L26.8021 17.3499C26.765 16.5175 26.4998 15.7112 26.0356 15.0173L25.2044 15.5735ZM12.1662 27.2751L12.1662 27.2751L12.952 26.6567C12.6104 26.2227 11.9817 26.1478 11.5477 26.4893L12.1662 27.2751ZM12.1662 27.2751L12.1662 27.2751L11.5477 26.4893C11.1137 26.8309 11.0388 27.4596 11.3804 27.8936L12.1662 27.2751ZM15.3741 29.0734C14.1085 28.9226 12.954 28.2762 12.1662 27.2751L11.3804 27.8936C12.3327 29.1036 13.7276 29.8843 15.2559 30.0664L15.3741 29.0734ZM18.91 28.0845C17.909 28.8685 16.6372 29.2238 15.3741 29.0734L15.2559 30.0664C16.781 30.248 18.3171 29.819 19.5266 28.8718L18.91 28.0845ZM19.734 27.2787C19.4922 27.583 19.2129 27.8556 18.9169 28.0792L19.5197 28.8771C19.8845 28.6015 20.224 28.2695 20.5169 27.9009L19.734 27.2787ZM19.734 27.2787L19.734 27.2787L20.5169 27.9009C20.8605 27.4685 20.7886 26.8395 20.3562 26.4958L19.734 27.2787ZM19.734 27.2787L19.734 27.2787L20.3562 26.4958C19.9239 26.1522 19.2948 26.2242 18.9512 26.6565L19.734 27.2787ZM18.9134 28.0818C19.2107 27.8577 19.4913 27.5842 19.734 27.2787L18.9512 26.6565C18.7597 26.8974 18.5396 27.1113 18.3115 27.2833L18.9134 28.0818ZM18.2124 27.9825L18.2124 27.9826L19.0124 27.3826L19.0124 27.3825L18.2124 27.9825ZM18.9135 28.0818L18.9211 28.0758L18.3037 27.2892L18.2961 27.2951L18.9135 28.0818ZM15.3741 29.0734C16.6386 29.224 17.9119 28.8677 18.9134 28.0818L18.2961 27.2951C17.5032 27.9173 16.4945 28.1998 15.4924 28.0804L15.3741 29.0734ZM12.1662 27.2751C12.954 28.2762 14.1085 28.9226 15.3741 29.0734L15.4924 28.0804C14.4895 27.9609 13.5754 27.4487 12.952 26.6567L12.1662 27.2751Z" fill="#505050"/>
</svg>
