<svg width="32" height="32" viewBox="0 0 32 32" fill="none" xmlns="http://www.w3.org/2000/svg">
<path fill-rule="evenodd" clip-rule="evenodd" d="M15.4821 2.66669C8.40439 2.66669 2.66675 8.27761 2.66675 15.199C2.66675 22.1205 8.40439 27.7314 15.4821 27.7314C18.5093 27.7314 21.2913 26.705 23.4841 24.9887L27.6495 29.0515L27.7603 29.1449C28.147 29.4247 28.6953 29.3929 29.0452 29.0498C29.4302 28.6724 29.4294 28.0613 29.0434 27.6848L24.927 23.6698C27.02 21.4392 28.2975 18.465 28.2975 15.199C28.2975 8.27761 22.5599 2.66669 15.4821 2.66669ZM15.4821 4.59701C21.4697 4.59701 26.3236 9.3437 26.3236 15.199C26.3236 21.0544 21.4697 25.8011 15.4821 25.8011C9.49455 25.8011 4.64066 21.0544 4.64066 15.199C4.64066 9.3437 9.49455 4.59701 15.4821 4.59701Z" fill="#505050"/>
</svg>
