<svg width="28" height="28" viewBox="0 0 28 28" fill="none" xmlns="http://www.w3.org/2000/svg">
<path d="M17.2396 17.2396C19.0287 17.2396 20.4791 15.7892 20.4791 14C20.4791 12.2108 19.0287 10.7604 17.2396 10.7604C15.4504 10.7604 14 12.2108 14 14C14 15.7892 15.4504 17.2396 17.2396 17.2396Z" stroke="#1B1B1B" stroke-width="1.5" stroke-linecap="round" stroke-linejoin="round"/>
<path d="M14.0001 10.7604V4.28131H10.7606C9.90137 4.28131 9.07738 4.62262 8.46984 5.23016C7.86231 5.83769 7.521 6.66169 7.521 7.52087C7.521 8.38006 7.86231 9.20406 8.46984 9.81159C9.07738 10.4191 9.90137 10.7604 10.7606 10.7604H14.0001Z" stroke="#1B1B1B" stroke-width="1.5" stroke-linecap="round" stroke-linejoin="round"/>
<path d="M14.0001 17.2396V10.7604H10.7606C9.90137 10.7604 9.07738 11.1017 8.46984 11.7093C7.86231 12.3168 7.521 13.1408 7.521 14C7.521 14.8592 7.86231 15.6832 8.46984 16.2907C9.07738 16.8983 9.90137 17.2396 10.7606 17.2396H14.0001Z" stroke="#1B1B1B" stroke-width="1.5" stroke-linecap="round" stroke-linejoin="round"/>
<path d="M14 10.7604V4.28131H17.2396C18.0987 4.28131 18.9227 4.62262 19.5303 5.23016C20.1378 5.83769 20.4791 6.66169 20.4791 7.52087C20.4791 8.38006 20.1378 9.20406 19.5303 9.81159C18.9227 10.4191 18.0987 10.7604 17.2396 10.7604H14Z" stroke="#1B1B1B" stroke-width="1.5" stroke-linecap="round" stroke-linejoin="round"/>
<path d="M14.0001 17.2396V20.4791C14.0001 21.1199 13.8101 21.7462 13.4542 22.2789C13.0982 22.8117 12.5922 23.2269 12.0003 23.4721C11.4083 23.7173 10.757 23.7814 10.1286 23.6564C9.50014 23.5314 8.9229 23.2229 8.46984 22.7698C8.01678 22.3168 7.70824 21.7395 7.58324 21.1111C7.45825 20.4827 7.5224 19.8314 7.76759 19.2394C8.01279 18.6474 8.42801 18.1415 8.96076 17.7855C9.4935 17.4296 10.1198 17.2396 10.7606 17.2396H14.0001Z" stroke="#1B1B1B" stroke-width="1.5" stroke-linecap="round" stroke-linejoin="round"/>
</svg>
