<svg width="32" height="32" viewBox="0 0 32 32" fill="none" xmlns="http://www.w3.org/2000/svg">
<path fill-rule="evenodd" clip-rule="evenodd" d="M20.5537 3C20.5537 2.72386 20.3299 2.5 20.0537 2.5C19.7776 2.5 19.5537 2.72386 19.5537 3V5.98585H12.5V3C12.5 2.72386 12.2761 2.5 12 2.5C11.7239 2.5 11.5 2.72386 11.5 3V5.98585H10.7951C9.11832 5.98585 7.73884 6.43165 6.77812 7.36455C5.81504 8.29973 5.34619 9.65296 5.34619 11.3144V22.5388C5.34619 24.2305 5.81554 25.6085 6.77718 26.5622C7.73812 27.5151 9.11871 27.9729 10.7951 27.9729H21.2049C22.8835 27.9729 24.2633 27.5259 25.2237 26.5906C26.1861 25.6533 26.6538 24.2972 26.6538 22.6326L26.6538 11.3131L26.6538 11.3124C26.6588 9.65103 26.1953 8.29792 25.2344 7.36293C24.2758 6.43022 22.8961 5.98585 21.2163 5.98585H20.5537V3ZM19.5537 6.98585V8.5C19.5537 8.77614 19.7776 9 20.0537 9C20.3299 9 20.5537 8.77614 20.5537 8.5V6.98585H21.2163C22.7286 6.98585 23.8225 7.38445 24.537 8.07965C25.249 8.77245 25.6583 9.83196 25.6538 11.31L25.6538 11.3116V12.5H6.34619V11.3144C6.34619 9.83753 6.75953 8.77648 7.47476 8.08197C8.19235 7.38516 9.2873 6.98585 10.7951 6.98585H11.5V8.5C11.5 8.77614 11.7239 9 12 9C12.2761 9 12.5 8.77614 12.5 8.5V6.98585H19.5537ZM6.34619 13.5V22.5388C6.34619 24.0505 6.76278 25.1395 7.48132 25.8521C8.20056 26.5654 9.29441 26.9729 10.7951 26.9729H21.2049C22.7142 26.9729 23.8088 26.5726 24.526 25.8742C25.241 25.1779 25.6538 24.1138 25.6538 22.6326L25.6538 13.5H6.34619ZM22.1346 17.2952C22.1346 16.9633 21.8676 16.6942 21.5383 16.6942L21.45 16.6997C21.1589 16.7395 20.9346 16.9909 20.9346 17.2952C20.9346 17.627 21.2016 17.8961 21.5383 17.8961L21.6192 17.8906C21.9102 17.8508 22.1346 17.5994 22.1346 17.2952ZM16.0766 16.6942C16.4059 16.6942 16.6729 16.9633 16.6729 17.2952C16.6729 17.5994 16.4486 17.8508 16.1575 17.8906L16.0766 17.8961C15.7399 17.8961 15.4729 17.627 15.4729 17.2952C15.4729 16.9909 15.6972 16.7395 15.9883 16.6997L16.0766 16.6942ZM11.2 17.2952C11.2 16.9633 10.933 16.6942 10.6037 16.6942L10.5154 16.6997C10.2243 16.7395 10 16.9909 10 17.2952C10 17.627 10.267 17.8961 10.5963 17.8961L10.6846 17.8906C10.9757 17.8508 11.2 17.5994 11.2 17.2952ZM21.5383 21.5147C21.8676 21.5147 22.1346 21.7838 22.1346 22.1157C22.1346 22.4199 21.9102 22.6713 21.6192 22.7111L21.5383 22.7166C21.2016 22.7166 20.9346 22.4475 20.9346 22.1157C20.9346 21.8114 21.1589 21.56 21.45 21.5202L21.5383 21.5147ZM16.6729 22.1157C16.6729 21.7838 16.4059 21.5147 16.0766 21.5147L15.9883 21.5202C15.6972 21.56 15.4729 21.8114 15.4729 22.1157C15.4729 22.4475 15.7399 22.7166 16.0766 22.7166L16.1575 22.7111C16.4486 22.6713 16.6729 22.4199 16.6729 22.1157ZM10.6037 21.5147C10.933 21.5147 11.2 21.7838 11.2 22.1157C11.2 22.4199 10.9757 22.6713 10.6846 22.7111L10.5963 22.7166C10.267 22.7166 10 22.4475 10 22.1157C10 21.8114 10.2243 21.56 10.5154 21.5202L10.6037 21.5147Z" fill="#505050"/>
</svg>
