<svg width="86" height="86" viewBox="0 0 86 86" fill="none" xmlns="http://www.w3.org/2000/svg">
<path d="M28.3333 31.9999C28.3333 34.025 29.9749 35.6666 31.9999 35.6666C34.025 35.6666 35.6666 34.025 35.6666 31.9999C35.6666 29.9749 34.025 28.3333 31.9999 28.3333C29.9749 28.3333 28.3333 29.9749 28.3333 31.9999Z" fill="#262626"/>
<path d="M50.3333 53.9999C50.3333 56.025 51.9749 57.6666 53.9999 57.6666C56.025 57.6666 57.6666 56.025 57.6666 53.9999C57.6666 51.9749 56.025 50.3333 53.9999 50.3333C51.9749 50.3333 50.3333 51.9749 50.3333 53.9999Z" fill="#262626"/>
<path d="M28.3333 31.9999C28.3333 34.025 29.9749 35.6666 31.9999 35.6666C34.025 35.6666 35.6666 34.025 35.6666 31.9999C35.6666 29.9749 34.025 28.3333 31.9999 28.3333C29.9749 28.3333 28.3333 29.9749 28.3333 31.9999Z" stroke="#262626" stroke-width="5"/>
<path d="M50.3333 53.9999C50.3333 56.025 51.9749 57.6666 53.9999 57.6666C56.025 57.6666 57.6666 56.025 57.6666 53.9999C57.6666 51.9749 56.025 50.3333 53.9999 50.3333C51.9749 50.3333 50.3333 51.9749 50.3333 53.9999Z" stroke="#262626" stroke-width="5"/>
<path d="M30.2322 52.2322C29.2559 53.2085 29.2559 54.7915 30.2322 55.7678C31.2085 56.7441 32.7915 56.7441 33.7678 55.7678L30.2322 52.2322ZM54.5096 35.026C55.4859 34.0497 55.4859 32.4667 54.5096 31.4904C53.5333 30.5141 51.9503 30.5141 50.974 31.4904L54.5096 35.026ZM17.5573 72.4986L19.0267 70.4761L17.5573 72.4986ZM13.5014 68.4427L15.5239 66.9733L13.5014 68.4427ZM72.4986 68.4427L70.4761 66.9733L72.4986 68.4427ZM68.4427 72.4986L66.9733 70.4761L68.4427 72.4986ZM68.4427 13.5014L66.9733 15.5239L68.4427 13.5014ZM72.4986 17.5573L70.4761 19.0267L72.4986 17.5573ZM17.5573 13.5014L19.0267 15.5239L17.5573 13.5014ZM13.5014 17.5573L15.5239 19.0267L13.5014 17.5573ZM33.7678 55.7678L54.5096 35.026L50.974 31.4904L30.2322 52.2322L33.7678 55.7678ZM43 73.5C36.0698 73.5 31.073 73.4966 27.1992 73.0769C23.3723 72.6623 20.9391 71.8655 19.0267 70.4761L16.0878 74.5212C18.9946 76.6331 22.4083 77.5871 26.6607 78.0478C30.8662 78.5034 36.1812 78.5 43 78.5V73.5ZM7.5 43C7.5 49.8188 7.49657 55.1338 7.95221 59.3393C8.41293 63.5917 9.3669 67.0054 11.4788 69.9122L15.5239 66.9733C14.1345 65.0609 13.3377 62.6277 12.9231 58.8008C12.5034 54.927 12.5 49.9302 12.5 43H7.5ZM19.0267 70.4761C17.6826 69.4995 16.5005 68.3174 15.5239 66.9733L11.4788 69.9122C12.7638 71.6808 14.3192 73.2362 16.0878 74.5212L19.0267 70.4761ZM73.5 43C73.5 49.9302 73.4966 54.927 73.0769 58.8008C72.6623 62.6277 71.8655 65.0609 70.4761 66.9733L74.5212 69.9122C76.6331 67.0054 77.5871 63.5917 78.0478 59.3393C78.5034 55.1338 78.5 49.8188 78.5 43H73.5ZM43 78.5C49.8188 78.5 55.1338 78.5034 59.3393 78.0478C63.5917 77.5871 67.0054 76.6331 69.9122 74.5212L66.9733 70.4761C65.0609 71.8655 62.6277 72.6623 58.8008 73.0769C54.927 73.4966 49.9302 73.5 43 73.5V78.5ZM70.4761 66.9733C69.4995 68.3174 68.3174 69.4995 66.9733 70.4761L69.9122 74.5212C71.6808 73.2362 73.2362 71.6808 74.5212 69.9122L70.4761 66.9733ZM43 12.5C49.9302 12.5 54.927 12.5034 58.8008 12.9231C62.6277 13.3377 65.0609 14.1345 66.9733 15.5239L69.9122 11.4788C67.0054 9.3669 63.5917 8.41293 59.3393 7.95221C55.1338 7.49657 49.8188 7.5 43 7.5V12.5ZM78.5 43C78.5 36.1812 78.5034 30.8662 78.0478 26.6607C77.5871 22.4083 76.6331 18.9946 74.5212 16.0878L70.4761 19.0267C71.8655 20.9391 72.6623 23.3723 73.0769 27.1992C73.4966 31.073 73.5 36.0698 73.5 43H78.5ZM66.9733 15.5239C68.3174 16.5005 69.4995 17.6826 70.4761 19.0267L74.5212 16.0878C73.2362 14.3192 71.6808 12.7638 69.9122 11.4788L66.9733 15.5239ZM43 7.5C36.1812 7.5 30.8662 7.49657 26.6607 7.95221C22.4083 8.41293 18.9946 9.3669 16.0878 11.4788L19.0267 15.5239C20.9391 14.1345 23.3723 13.3377 27.1992 12.9231C31.073 12.5034 36.0698 12.5 43 12.5V7.5ZM12.5 43C12.5 36.0698 12.5034 31.073 12.9231 27.1992C13.3377 23.3723 14.1345 20.9391 15.5239 19.0267L11.4788 16.0878C9.3669 18.9946 8.41293 22.4083 7.95221 26.6607C7.49657 30.8662 7.5 36.1812 7.5 43H12.5ZM16.0878 11.4788C14.3192 12.7638 12.7638 14.3192 11.4788 16.0878L15.5239 19.0267C16.5005 17.6826 17.6826 16.5005 19.0267 15.5239L16.0878 11.4788Z" fill="#262626"/>
</svg>
