<?xml version="1.0" encoding="utf-8"?>
<!-- Generator: Adobe Illustrator 25.2.1, SVG Export Plug-In . SVG Version: 6.00 Build 0)  -->
<svg version="1.1" id="Layer_1" xmlns="http://www.w3.org/2000/svg" xmlns:xlink="http://www.w3.org/1999/xlink" x="0px" y="0px"
	 viewBox="0 0 86 86" style="enable-background:new 0 0 86 86;" xml:space="preserve">
<style type="text/css">
	.st0{fill:none;stroke:#1B1B1B;stroke-width:5;}
</style>
<path class="st0" d="M24.9,18.4h36.1c3.5,0,5.8,0,7.6,0.2c1.7,0.2,2.5,0.6,3,1.1c0.5,0.5,0.9,1.3,1.1,3c0.2,1.8,0.2,4.1,0.2,7.6v30
	H13v-30c0-3.5,0-5.8,0.2-7.6c0.2-1.7,0.6-2.5,1.1-3c0.5-0.5,1.3-0.9,3-1.1C19.1,18.4,21.5,18.4,24.9,18.4z"/>
<path class="st0" d="M73.1,60.4H12.9c-2.7,0-4.9,2.2-4.9,4.9c0,4,3.3,7.3,7.3,7.3h55.4c4,0,7.3-3.3,7.3-7.3
	C78,62.6,75.8,60.4,73.1,60.4z"/>
</svg>
