<svg width="32" height="32" viewBox="0 0 32 32" fill="none" xmlns="http://www.w3.org/2000/svg">
<path d="M24.7498 5.7014C24.7481 5.31229 24.4343 4.99827 24.049 5.00001C23.6637 5.00174 23.3527 5.31858 23.3544 5.70768L23.3627 7.57303C23.3659 8.29446 23.3671 8.79116 23.3315 9.17017C21.5062 7.18389 18.8967 5.93938 16 5.93938C10.4772 5.93938 6 10.4606 6 16.0378C6 16.4269 6.31236 16.7423 6.69767 16.7423C7.08299 16.7423 7.39535 16.4269 7.39535 16.0378C7.39535 11.2388 11.2478 7.34846 16 7.34846C18.5576 7.34846 20.8541 8.4745 22.4312 10.2647C22.3854 10.2721 22.3357 10.2787 22.2815 10.2847C21.8989 10.3269 21.3931 10.3257 20.6402 10.3223L18.793 10.314C18.4077 10.3122 18.094 10.6263 18.0922 11.0154C18.0905 11.4045 18.4015 11.7213 18.7868 11.723L20.6743 11.7315C21.3765 11.7347 21.9622 11.7374 22.433 11.6854C22.9269 11.631 23.3821 11.5092 23.7775 11.2002C23.9477 11.0673 24.1004 10.913 24.232 10.7412C24.5381 10.3419 24.6586 9.88224 24.7126 9.38349C24.764 8.908 24.7613 8.31659 24.7582 7.60748L24.7498 5.7014Z" fill="#505050"/>
<path d="M26 16.0378C26 15.6487 25.6876 15.3332 25.3023 15.3332C24.917 15.3332 24.6047 15.6487 24.6047 16.0378C24.6047 20.8367 20.7522 24.7271 16 24.7271C13.4059 24.7271 11.0804 23.5687 9.50177 21.7338C9.54496 21.727 9.5916 21.7209 9.64204 21.7153C10.0247 21.6731 10.5304 21.6743 11.2834 21.6777L13.1306 21.686C13.5159 21.6878 13.8296 21.3737 13.8313 20.9846C13.8331 20.5955 13.5221 20.2787 13.1368 20.277L11.2493 20.2685C10.5471 20.2653 9.96143 20.2626 9.49056 20.3146C8.99667 20.369 8.54148 20.4908 8.14606 20.7998C7.97592 20.9327 7.82321 21.087 7.69154 21.2588C7.38552 21.6581 7.26497 22.1178 7.21103 22.6165C7.15961 23.092 7.16224 23.6834 7.16539 24.3926L7.17382 26.2986C7.17553 26.6877 7.48928 27.0017 7.8746 27C8.25991 26.9983 8.57087 26.6814 8.56915 26.2923L8.56091 24.427C8.5577 23.7006 8.55646 23.2021 8.59278 22.8221C10.4213 24.8568 13.0631 26.1362 16 26.1362C21.5228 26.1362 26 21.615 26 16.0378Z" fill="#505050"/>
<path d="M24.7498 5.7014C24.7481 5.31229 24.4343 4.99827 24.049 5.00001C23.6637 5.00174 23.3527 5.31858 23.3544 5.70768L23.3627 7.57303C23.3659 8.29446 23.3671 8.79116 23.3315 9.17017C21.5062 7.18389 18.8967 5.93938 16 5.93938C10.4772 5.93938 6 10.4606 6 16.0378C6 16.4269 6.31236 16.7423 6.69767 16.7423C7.08299 16.7423 7.39535 16.4269 7.39535 16.0378C7.39535 11.2388 11.2478 7.34846 16 7.34846C18.5576 7.34846 20.8541 8.4745 22.4312 10.2647C22.3854 10.2721 22.3357 10.2787 22.2815 10.2847C21.8989 10.3269 21.3931 10.3257 20.6402 10.3223L18.793 10.314C18.4077 10.3122 18.094 10.6263 18.0922 11.0154C18.0905 11.4045 18.4015 11.7213 18.7868 11.723L20.6743 11.7315C21.3765 11.7347 21.9622 11.7374 22.433 11.6854C22.9269 11.631 23.3821 11.5092 23.7775 11.2002C23.9477 11.0673 24.1004 10.913 24.232 10.7412C24.5381 10.3419 24.6586 9.88224 24.7126 9.38349C24.764 8.908 24.7613 8.31659 24.7582 7.60748L24.7498 5.7014Z" stroke="#505050" stroke-width="0.2" stroke-linecap="round"/>
<path d="M26 16.0378C26 15.6487 25.6876 15.3332 25.3023 15.3332C24.917 15.3332 24.6047 15.6487 24.6047 16.0378C24.6047 20.8367 20.7522 24.7271 16 24.7271C13.4059 24.7271 11.0804 23.5687 9.50177 21.7338C9.54496 21.727 9.5916 21.7209 9.64204 21.7153C10.0247 21.6731 10.5304 21.6743 11.2834 21.6777L13.1306 21.686C13.5159 21.6878 13.8296 21.3737 13.8313 20.9846C13.8331 20.5955 13.5221 20.2787 13.1368 20.277L11.2493 20.2685C10.5471 20.2653 9.96143 20.2626 9.49056 20.3146C8.99667 20.369 8.54148 20.4908 8.14606 20.7998C7.97592 20.9327 7.82321 21.087 7.69154 21.2588C7.38552 21.6581 7.26497 22.1178 7.21103 22.6165C7.15961 23.092 7.16224 23.6834 7.16539 24.3926L7.17382 26.2986C7.17553 26.6877 7.48928 27.0017 7.8746 27C8.25991 26.9983 8.57087 26.6814 8.56915 26.2923L8.56091 24.427C8.5577 23.7006 8.55646 23.2021 8.59278 22.8221C10.4213 24.8568 13.0631 26.1362 16 26.1362C21.5228 26.1362 26 21.615 26 16.0378Z" stroke="#505050" stroke-width="0.2" stroke-linecap="round"/>
</svg>
