<svg width="32" height="32" viewBox="0 0 32 32" fill="none" xmlns="http://www.w3.org/2000/svg">
<path d="M11 16H20" stroke="#505050" stroke-width="1.5" stroke-miterlimit="10" stroke-linecap="round" stroke-linejoin="round"/>
<path d="M11 21H16" stroke="#505050" stroke-width="1.5" stroke-miterlimit="10" stroke-linecap="round" stroke-linejoin="round"/>
<path d="M13.5 8H18.5C21 8 21 6.75 21 5.5C21 3 19.75 3 18.5 3H13.5C12.25 3 11 3 11 5.5C11 8 12.25 8 13.5 8Z" stroke="#505050" stroke-width="1.5" stroke-miterlimit="10" stroke-linecap="round" stroke-linejoin="round"/>
<path d="M20.8889 6C24.9589 6.22024 27 7.72525 27 13.317V20.6585C27 25.5528 25.7778 28 19.6667 28H12.3333C6.22222 28 5 25.5528 5 20.6585V13.317C5 7.73749 7.04111 6.22024 11.1111 6" stroke="#505050" stroke-width="1.5" stroke-miterlimit="10" stroke-linecap="round" stroke-linejoin="round"/>
</svg>
