<?xml version="1.0" encoding="utf-8"?>
<!-- Generator: Adobe Illustrator 25.2.1, SVG Export Plug-In . SVG Version: 6.00 Build 0)  -->
<svg version="1.1" id="Layer_1" xmlns="http://www.w3.org/2000/svg" xmlns:xlink="http://www.w3.org/1999/xlink" x="0px" y="0px"
	 viewBox="0 0 86 86" style="enable-background:new 0 0 86 86;" xml:space="preserve">
<style type="text/css">
	.st0{fill-rule:evenodd;clip-rule:evenodd;fill:#505050;}
	.st1{fill:#505050;}
</style>
<path class="st0" d="M59,10c-2.1,0-3.8,0.9-5.4,2.1c-1.5,1.2-3.3,2.9-5.3,4.9L30.6,34.5c-1.4,1.3-2.4,2.4-3.1,3.8
	c-0.7,1.4-0.8,2.8-1,4.7l-0.1,0.5c-0.4,3.5-0.7,6.4-0.6,8.7c0.1,2.4,0.6,4.6,2.3,6.3c1.7,1.7,3.9,2.2,6.3,2.3
	c2.3,0.1,5.2-0.2,8.8-0.6l0.5-0.1c1.9-0.2,3.4-0.4,4.8-1c1.4-0.7,2.4-1.7,3.8-3.1L70,38.4c2.1-2,3.8-3.7,4.9-5.2
	c1.2-1.6,2.1-3.3,2.1-5.4s-0.9-3.8-2.1-5.4c-1.2-1.5-2.9-3.2-4.9-5.2L69.7,17c-2.1-2-3.8-3.7-5.3-4.9C62.8,10.9,61.1,10,59,10z
	 M68.1,33.5L53.3,18.8c1.3-1.3,2.3-2.2,3.2-2.9c1.2-0.9,1.9-1.1,2.5-1.1s1.3,0.2,2.5,1.1c1.3,0.9,2.7,2.4,4.9,4.6
	c2.2,2.2,3.7,3.6,4.6,4.9c0.9,1.2,1.1,1.9,1.1,2.5c0,0.6-0.2,1.3-1.1,2.5C70.4,31.2,69.4,32.2,68.1,33.5z M49.9,22.2l14.8,14.7
	L49.1,52.3c-1.7,1.7-2.2,2.1-2.7,2.4c-0.5,0.3-1.2,0.4-3.6,0.6c-3.8,0.4-6.4,0.7-8.3,0.6c-1.8-0.1-2.6-0.4-3.1-0.9
	c-0.5-0.5-0.8-1.2-0.9-3c-0.1-1.9,0.2-4.4,0.6-8.2c0.3-2.4,0.4-3,0.6-3.5c0.3-0.5,0.7-1,2.4-2.7L49.9,22.2z"/>
<path class="st1" d="M34.1,18.6c1.3,0,2.4-1.1,2.4-2.4c0-1.3-1.1-2.4-2.5-2.4c-7.8,0.1-13.2,0.5-17.3,3.5c-1.6,1.1-3,2.5-4.1,4.1
	c-1.9,2.6-2.7,5.6-3.1,9.3C9,34.3,9,38.9,9,44.7V45c0,5.9,0,10.5,0.4,14.1c0.4,3.7,1.3,6.7,3.1,9.3c1.1,1.6,2.5,2.9,4.1,4.1
	c2.6,1.9,5.7,2.7,9.4,3.1C29.8,76,34.4,76,40.3,76h0.3c5.9,0,10.6,0,14.3-0.4c3.8-0.4,6.8-1.2,9.4-3.1c1.6-1.1,3-2.5,4.1-4.1
	c3-4.1,3.4-9.4,3.5-17.1c0-1.3-1.1-2.4-2.4-2.4c-1.3,0-2.4,1-2.5,2.4c-0.1,8-0.6,11.7-2.6,14.4c-0.8,1.2-1.9,2.2-3,3
	c-1.6,1.2-3.7,1.9-7.1,2.2c-3.4,0.4-7.8,0.4-13.9,0.4s-10.5,0-13.9-0.4c-3.4-0.4-5.5-1-7.1-2.2c-1.2-0.8-2.2-1.8-3-3
	c-1.2-1.6-1.9-3.7-2.2-7c-0.4-3.4-0.4-7.7-0.4-13.7s0-10.4,0.4-13.7c0.4-3.3,1.1-5.4,2.2-7c0.8-1.2,1.9-2.2,3-3
	C22.2,19.2,26,18.6,34.1,18.6z"/>
</svg>
