<?xml version="1.0" encoding="utf-8"?>
<!-- Generator: Adobe Illustrator 25.2.1, SVG Export Plug-In . SVG Version: 6.00 Build 0)  -->
<svg version="1.1" id="Layer_1" xmlns="http://www.w3.org/2000/svg" xmlns:xlink="http://www.w3.org/1999/xlink" x="0px" y="0px"
	 viewBox="0 0 86 86" style="enable-background:new 0 0 86 86;" xml:space="preserve">
<style type="text/css">
	.st0{fill:none;stroke:#1B1B1B;stroke-width:5;}
</style>
<path class="st0" d="M46.6,8h-7.2h-0.2c-3.3,0-5.9,0-8.1,0.3c-2.2,0.3-4.2,1-5.8,2.6c-1.6,1.6-2.3,3.6-2.6,5.8
	c-0.3,2.1-0.3,4.8-0.3,8.1v0.2v36.1v0.2c0,3.3,0,5.9,0.3,8.1c0.3,2.2,1,4.2,2.6,5.8c1.6,1.6,3.6,2.3,5.8,2.6C33.3,78,36,78,39.2,78
	h0.2h7.2h0.2c3.3,0,5.9,0,8.1-0.3c2.2-0.3,4.2-1,5.8-2.6c1.6-1.6,2.3-3.6,2.6-5.8c0.3-2.1,0.3-4.8,0.3-8.1v-0.2V24.9v-0.2
	c0-3.3,0-5.9-0.3-8.1c-0.3-2.2-1-4.2-2.6-5.8c-1.6-1.6-3.6-2.3-5.8-2.6C52.7,8,50,8,46.8,8H46.6z"/>
<path class="st0" d="M24.9,57.4h36.1"/>
</svg>
