<svg width="32" height="32" viewBox="0 0 32 32" fill="none" xmlns="http://www.w3.org/2000/svg">
<path d="M25.6247 4.76516C25.6229 4.34068 25.2777 3.99811 24.8539 4.00001C24.43 4.0019 24.088 4.34754 24.0899 4.77202L24.0989 6.80694C24.1024 7.59395 24.1038 8.13581 24.0647 8.54928C22.0568 6.38242 19.1863 5.02478 16 5.02478C9.92487 5.02478 5 9.957 5 16.0412C5 16.4657 5.3436 16.8098 5.76744 16.8098C6.19129 16.8098 6.53488 16.4657 6.53488 16.0412C6.53488 10.806 10.7726 6.56196 16 6.56196C18.8134 6.56196 21.3395 7.79037 23.0743 9.74335C23.0239 9.75133 22.9692 9.75861 22.9097 9.76512C22.4888 9.81116 21.9325 9.80984 21.1042 9.80614L19.0723 9.79706C18.6485 9.79516 18.3034 10.1377 18.3015 10.5622C18.2996 10.9867 18.6416 11.3323 19.0655 11.3342L21.1417 11.3435C21.9141 11.347 22.5584 11.3499 23.0763 11.2932C23.6196 11.2338 24.1203 11.101 24.5553 10.7639C24.7424 10.6188 24.9104 10.4506 25.0553 10.2632C25.3919 9.82754 25.5245 9.32608 25.5838 8.78199C25.6404 8.26327 25.6375 7.6181 25.634 6.84453L25.6247 4.76516Z" fill="#505050"/>
<path d="M27 16.0412C27 15.6167 26.6564 15.2726 26.2326 15.2726C25.8087 15.2726 25.4651 15.6167 25.4651 16.0412C25.4651 21.2764 21.2274 25.5204 16 25.5204C13.1465 25.5204 10.5885 24.2567 8.85195 22.255C8.89946 22.2477 8.95075 22.2409 9.00624 22.2349C9.42715 22.1888 9.98348 22.1902 10.8117 22.1939L12.8436 22.2029C13.2675 22.2048 13.6126 21.8623 13.6145 21.4378C13.6164 21.0133 13.2743 20.6677 12.8505 20.6658L10.7743 20.6565C10.0018 20.653 9.35757 20.6501 8.83962 20.7068C8.29634 20.7662 7.79563 20.899 7.36066 21.2361C7.17351 21.3812 7.00553 21.5494 6.86069 21.7368C6.52408 22.1725 6.39147 22.6739 6.33214 23.218C6.27557 23.7367 6.27847 24.3819 6.28193 25.1555L6.2912 27.2348C6.29309 27.6593 6.63821 28.0019 7.06206 28C7.4859 27.9981 7.82796 27.6525 7.82607 27.228L7.817 25.1931C7.81347 24.4007 7.81211 23.8568 7.85206 23.4423C9.86348 25.662 12.7694 27.0576 16 27.0576C22.0751 27.0576 27 22.1254 27 16.0412Z" fill="#505050"/>
<path d="M25.6247 4.76516C25.6229 4.34068 25.2777 3.99811 24.8539 4.00001C24.43 4.0019 24.088 4.34754 24.0899 4.77202L24.0989 6.80694C24.1024 7.59395 24.1038 8.13581 24.0647 8.54928C22.0568 6.38242 19.1863 5.02478 16 5.02478C9.92487 5.02478 5 9.957 5 16.0412C5 16.4657 5.3436 16.8098 5.76744 16.8098C6.19129 16.8098 6.53488 16.4657 6.53488 16.0412C6.53488 10.806 10.7726 6.56196 16 6.56196C18.8134 6.56196 21.3395 7.79037 23.0743 9.74335C23.0239 9.75133 22.9692 9.75861 22.9097 9.76512C22.4888 9.81116 21.9325 9.80984 21.1042 9.80614L19.0723 9.79706C18.6485 9.79516 18.3034 10.1377 18.3015 10.5622C18.2996 10.9867 18.6416 11.3323 19.0655 11.3342L21.1417 11.3435C21.9141 11.347 22.5584 11.3499 23.0763 11.2932C23.6196 11.2338 24.1203 11.101 24.5553 10.7639C24.7424 10.6188 24.9104 10.4506 25.0553 10.2632C25.3919 9.82754 25.5245 9.32608 25.5838 8.78199C25.6404 8.26327 25.6375 7.6181 25.634 6.84453L25.6247 4.76516Z" stroke="#505050" stroke-width="0.2" stroke-linecap="round"/>
<path d="M27 16.0412C27 15.6167 26.6564 15.2726 26.2326 15.2726C25.8087 15.2726 25.4651 15.6167 25.4651 16.0412C25.4651 21.2764 21.2274 25.5204 16 25.5204C13.1465 25.5204 10.5885 24.2567 8.85195 22.255C8.89946 22.2477 8.95075 22.2409 9.00624 22.2349C9.42715 22.1888 9.98348 22.1902 10.8117 22.1939L12.8436 22.2029C13.2675 22.2048 13.6126 21.8623 13.6145 21.4378C13.6164 21.0133 13.2743 20.6677 12.8505 20.6658L10.7743 20.6565C10.0018 20.653 9.35757 20.6501 8.83962 20.7068C8.29634 20.7662 7.79563 20.899 7.36066 21.2361C7.17351 21.3812 7.00553 21.5494 6.86069 21.7368C6.52408 22.1725 6.39147 22.6739 6.33214 23.218C6.27557 23.7367 6.27847 24.3819 6.28193 25.1555L6.2912 27.2348C6.29309 27.6593 6.63821 28.0019 7.06206 28C7.4859 27.9981 7.82796 27.6525 7.82607 27.228L7.817 25.1931C7.81347 24.4007 7.81211 23.8568 7.85206 23.4423C9.86348 25.662 12.7694 27.0576 16 27.0576C22.0751 27.0576 27 22.1254 27 16.0412Z" stroke="#505050" stroke-width="0.2" stroke-linecap="round"/>
</svg>
