<svg width="62" height="68" viewBox="0 0 62 68" fill="none" xmlns="http://www.w3.org/2000/svg">
<path d="M41.4723 5.4947H41.9723V4.9947V2.37208C41.9723 1.34064 42.8135 0.5 43.8569 0.5C44.8071 0.5 45.5908 1.19816 45.722 2.10199L45.7415 2.38904V5.05329V5.5206L46.2078 5.55215C51.0045 5.87678 54.8235 7.56433 57.4397 10.3598C60.0554 13.1549 61.5152 17.1073 61.4999 22.0502V22.0517V50.913C61.4999 56.1521 59.8531 60.2838 56.9334 63.1067C54.0115 65.9318 49.7589 67.5 44.446 67.5H17.5538C12.2498 67.5 7.9979 65.906 5.07383 63.0385C2.15105 60.1722 0.5 55.9796 0.5 50.6738V22.0517C0.5 17.1107 1.97194 13.1582 4.59413 10.3623C7.21671 7.56602 11.0357 5.87778 15.8216 5.55238L16.2877 5.52069V5.05353V2.37208C16.2877 1.34065 17.129 0.5 18.1723 0.5C19.1226 0.5 19.9063 1.19815 20.0375 2.10195L20.0569 2.38895V4.9947V5.4947H20.5569H41.4723ZM41.9723 9.73884V9.23884H41.4723H20.5569H20.0569V9.73884V12.7802C20.0569 13.8116 19.2157 14.6523 18.1723 14.6523C17.2221 14.6523 16.4384 13.9541 16.3072 13.0502L16.2877 12.7632V9.80943V9.2664L15.7465 9.31113C12.1006 9.61247 9.21384 10.858 7.24147 13.0365C5.27013 15.2138 4.26921 18.2602 4.26921 22.0517V23.4181V23.9181H4.76921H57.2307H57.7307V23.4181L57.7307 22.0459C57.7307 22.0455 57.7307 22.0451 57.7307 22.0447C57.7422 18.2518 56.7529 15.2062 54.7876 13.0303C52.8211 10.853 49.9353 9.61061 46.2824 9.31061L45.7415 9.26619V9.80894V12.7802C45.7415 13.8116 44.9002 14.6523 43.8569 14.6523C42.9066 14.6523 42.1229 13.9541 41.9917 13.0503L41.9723 12.7633V9.73884ZM4.76921 27.6623H4.26921V28.1623V50.6738C4.26921 54.85 5.44098 58.1408 7.73404 60.3854C10.0254 62.6284 13.364 63.7558 17.5538 63.7558H44.446C48.6467 63.7558 51.9846 62.6531 54.2731 60.4531C56.5649 58.25 57.7307 55.0175 57.7307 50.913V28.1623V27.6623H57.2307H4.76921ZM44.8498 36.2897L45.1673 36.2703C46.2039 36.278 47.0375 37.1156 47.0375 38.1422C47.0375 39.0821 46.3388 39.8639 45.4253 39.995L45.1371 40.0143C44.0679 40.0061 43.2388 39.1647 43.2388 38.1422C43.2388 37.2029 43.9368 36.4214 44.8498 36.2897ZM30.7409 36.2897L31.0585 36.2703C32.0952 36.278 32.9286 37.1156 32.9286 38.1422C32.9286 39.0821 32.23 39.8639 31.3165 39.995L31.0282 40.0143C29.9591 40.0061 29.13 39.1647 29.13 38.1422C29.13 37.2029 29.828 36.4214 30.7409 36.2897ZM16.6027 36.2897L16.9202 36.2703C17.9569 36.278 18.7904 37.1156 18.7904 38.1422C18.7904 39.0817 18.0924 39.8632 17.1795 39.9948L16.8619 40.0143C15.8253 40.0066 14.9917 39.1689 14.9917 38.1422C14.9917 37.2029 15.6897 36.4214 16.6027 36.2897ZM44.8497 48.5819L45.1673 48.5625C46.2039 48.5702 47.0375 49.4078 47.0375 50.4346C47.0375 51.3744 46.3388 52.1562 45.4252 52.2873L45.137 52.3066C44.0679 52.2984 43.2388 51.457 43.2388 50.4346C43.2388 49.4951 43.9368 48.7136 44.8497 48.5819ZM30.7409 48.5819L31.0585 48.5625C32.0952 48.5702 32.9286 49.4078 32.9286 50.4346C32.9286 51.3744 32.23 52.1562 31.3164 52.2873L31.0282 52.3066C29.9591 52.2984 29.13 51.457 29.13 50.4346C29.13 49.4951 29.828 48.7136 30.7409 48.5819ZM16.6026 48.5819L16.9202 48.5625C17.9568 48.5702 18.7904 49.4078 18.7904 50.4346C18.7904 51.374 18.0924 52.1555 17.1794 52.2871L16.8619 52.3066C15.8253 52.2989 14.9917 51.4612 14.9917 50.4346C14.9917 49.4951 15.6897 48.7136 16.6026 48.5819Z" fill="#505050" stroke="#505050"/>
</svg>
