<svg width="32" height="32" viewBox="0 0 32 32" fill="none" xmlns="http://www.w3.org/2000/svg">
<path d="M16.5 10.8735C16.5 10.5974 16.2761 10.3735 16 10.3735C15.7239 10.3735 15.5 10.5974 15.5 10.8735H16.5ZM18.7865 14.5588C18.9854 14.3672 18.9912 14.0506 18.7995 13.8518C18.6079 13.653 18.2914 13.6472 18.0926 13.8388L18.7865 14.5588ZM5.34468 6.32091C5.126 6.48953 5.08542 6.8035 5.25404 7.02218C5.42266 7.24086 5.73664 7.28145 5.95532 7.11282L5.34468 6.32091ZM8.83032 4.89596C9.049 4.72734 9.08958 4.41336 8.92096 4.19468C8.75234 3.976 8.43836 3.93542 8.21968 4.10404L8.83032 4.89596ZM26.0447 7.11282C26.2634 7.28145 26.5773 7.24086 26.746 7.02218C26.9146 6.8035 26.874 6.48953 26.6553 6.32091L26.0447 7.11282ZM23.7803 4.10404C23.5616 3.93542 23.2477 3.976 23.079 4.19468C22.9104 4.41336 22.951 4.72734 23.1697 4.89596L23.7803 4.10404ZM16.0968 16.4568L16.4438 16.8168L16.0968 16.4568ZM15.5 10.8735V16.4157H16.5V10.8735H15.5ZM18.0926 13.8388L15.7499 16.0968L16.4438 16.8168L18.7865 14.5588L18.0926 13.8388ZM27 16.4157C27 22.244 22.0926 27 16 27V28C22.6099 28 28 22.8307 28 16.4157H27ZM16 27C9.90736 27 5 22.244 5 16.4157H4C4 22.8307 9.39009 28 16 28V27ZM5 16.4157C5 10.5873 9.90736 5.83133 16 5.83133V4.83133C9.39009 4.83133 4 10.0006 4 16.4157H5ZM16 5.83133C22.0926 5.83133 27 10.5873 27 16.4157H28C28 10.0006 22.6099 4.83133 16 4.83133V5.83133ZM5.95532 7.11282L8.83032 4.89596L8.21968 4.10404L5.34468 6.32091L5.95532 7.11282ZM26.6553 6.32091L23.7803 4.10404L23.1697 4.89596L26.0447 7.11282L26.6553 6.32091ZM15.7499 16.0968C16.0311 15.8258 16.4999 16.025 16.5 16.4156L15.5 16.4157C15.5001 16.9072 16.09 17.1578 16.4438 16.8168L15.7499 16.0968Z" fill="#505050"/>
</svg>
