<svg width="32" height="32" viewBox="0 0 32 32" fill="none" xmlns="http://www.w3.org/2000/svg">
<path d="M22.8416 12.9234C23.1816 12.5436 23.1494 11.96 22.7696 11.62C22.3897 11.2799 21.8062 11.3122 21.4661 11.692L17.3194 16.3236C16.4792 17.2621 15.9134 17.8908 15.4296 18.2974C14.9687 18.6848 14.698 18.7692 14.4615 18.7692C14.2251 18.7692 13.9544 18.6848 13.4935 18.2974C13.0097 17.8908 12.4439 17.2621 11.6036 16.3236L10.5339 15.1287C10.1938 14.7489 9.61025 14.7167 9.23044 15.0567C8.85062 15.3968 8.81838 15.9803 9.15843 16.3602L10.2739 17.6061C11.0565 18.4802 11.7092 19.2094 12.3057 19.7107C12.9366 20.241 13.6171 20.6154 14.4615 20.6154C15.3059 20.6154 15.9865 20.241 16.6174 19.7107C17.2138 19.2094 17.8666 18.4803 18.6492 17.6061L22.8416 12.9234Z" fill="#505050"/>
<path fill-rule="evenodd" clip-rule="evenodd" d="M21.4936 4.15228C20.0879 3.99998 18.316 3.99999 16.0557 4H15.9443C13.684 3.99999 11.9121 3.99998 10.5064 4.15228C9.07192 4.3077 7.90961 4.63055 6.91721 5.35157C6.31642 5.78807 5.78807 6.31642 5.35157 6.91721C4.63055 7.90961 4.3077 9.07192 4.15228 10.5064C3.99998 11.9121 3.99999 13.684 4 15.9443V16.0557C3.99999 18.316 3.99998 20.0879 4.15228 21.4936C4.3077 22.9281 4.63055 24.0904 5.35157 25.0828C5.78807 25.6836 6.31642 26.2119 6.91721 26.6484C7.90961 27.3694 9.07193 27.6923 10.5064 27.8477C11.9121 28 13.6839 28 15.9442 28H16.0557C18.316 28 20.0879 28 21.4936 27.8477C22.9281 27.6923 24.0904 27.3694 25.0828 26.6484C25.6836 26.2119 26.2119 25.6836 26.6484 25.0828C27.3694 24.0904 27.6923 22.9281 27.8477 21.4936C28 20.0879 28 18.3161 28 16.0558V15.9443C28 13.684 28 11.9121 27.8477 10.5064C27.6923 9.07193 27.3694 7.90961 26.6484 6.91721C26.2119 6.31642 25.6836 5.78807 25.0828 5.35157C24.0904 4.63055 22.9281 4.3077 21.4936 4.15228ZM8.00235 6.84514C8.62759 6.39088 9.42786 6.12609 10.7053 5.98769C12 5.84742 13.6719 5.84615 16 5.84615C18.3281 5.84615 20 5.84742 21.2947 5.98769C22.5721 6.12609 23.3724 6.39088 23.9976 6.84514C24.4417 7.16777 24.8322 7.55829 25.1549 8.00235C25.6091 8.62759 25.8739 9.42786 26.0123 10.7053C26.1526 12 26.1538 13.6719 26.1538 16C26.1538 18.3281 26.1526 20 26.0123 21.2947C25.8739 22.5721 25.6091 23.3724 25.1549 23.9976C24.8322 24.4417 24.4417 24.8322 23.9976 25.1549C23.3724 25.6091 22.5721 25.8739 21.2947 26.0123C20 26.1526 18.3281 26.1538 16 26.1538C13.6719 26.1538 12 26.1526 10.7053 26.0123C9.42786 25.8739 8.62759 25.6091 8.00235 25.1549C7.55829 24.8322 7.16777 24.4417 6.84514 23.9976C6.39088 23.3724 6.12609 22.5721 5.98769 21.2947C5.84742 20 5.84615 18.3281 5.84615 16C5.84615 13.6719 5.84742 12 5.98769 10.7053C6.12609 9.42786 6.39088 8.62759 6.84514 8.00235C7.16777 7.55829 7.55829 7.16777 8.00235 6.84514Z" fill="#505050"/>
</svg>
