<svg width="86" height="86" viewBox="0 0 86 86" fill="none" xmlns="http://www.w3.org/2000/svg">
<path fill-rule="evenodd" clip-rule="evenodd" d="M58.9846 10C56.9044 10 55.1861 10.8605 53.5597 12.0873C52.0189 13.2495 50.308 14.9411 48.2564 16.9696L30.5559 34.469C29.1966 35.8106 28.1219 36.8714 27.4628 38.2273C26.8036 39.5831 26.6372 41.0755 26.4266 42.9629L26.3695 43.473C25.9757 46.9761 25.6511 49.8636 25.7254 52.1381C25.8031 54.5169 26.3231 56.6959 28.0456 58.3989C29.7682 60.102 31.9722 60.616 34.3783 60.6928C36.6789 60.7663 39.5995 60.4454 43.1427 60.056L43.6589 59.9995C45.5679 59.7914 47.0774 59.6268 48.4488 58.9752C49.8202 58.3235 50.8931 57.261 52.2501 55.9172L69.9503 38.4176C72.0022 36.3891 73.7132 34.6977 74.8888 33.1743C76.1297 31.5664 77 29.8676 77 27.811C77 25.7544 76.1297 24.0555 74.8888 22.4476C73.7132 20.9243 72.0022 19.2328 69.9504 17.2044L69.713 16.9697C67.6613 14.9411 65.9504 13.2496 64.4095 12.0873C62.7832 10.8605 61.0648 10 58.9846 10ZM68.1148 33.4511L53.2798 18.7844C54.5898 17.5083 55.6031 16.57 56.4981 15.8948C57.6936 14.9931 58.3894 14.7892 58.9846 14.7892C59.5798 14.7892 60.2757 14.9931 61.4711 15.8948C62.7225 16.8387 64.2049 18.2971 66.4063 20.4735C68.6077 22.65 70.0828 24.1155 71.0375 25.3527C71.9496 26.5346 72.1558 27.2225 72.1558 27.811C72.1558 28.3994 71.9496 29.0874 71.0375 30.2693C70.3546 31.1541 69.4055 32.1559 68.1148 33.4511ZM49.8503 22.1668L64.6936 36.8417L49.0582 52.2997C47.3548 53.9837 46.8841 54.405 46.3503 54.6586C45.8166 54.9122 45.1898 55.0125 42.7956 55.2755C39.0172 55.6905 36.4455 55.9671 34.5346 55.9061C32.6887 55.8472 31.9435 55.4796 31.471 55.0124C30.9985 54.5453 30.6267 53.8085 30.5671 51.9836C30.5054 50.0944 30.7851 47.5519 31.2049 43.8163C31.4709 41.4493 31.5723 40.8296 31.8289 40.3019C32.0854 39.7742 32.5115 39.3088 34.2149 37.6248L49.8503 22.1668Z" fill="#262626"/>
<path d="M34.0575 18.5519C35.3951 18.536 36.4664 17.4511 36.4504 16.1287C36.4343 14.8063 35.337 13.7471 33.9994 13.763C26.163 13.8558 20.7842 14.2798 16.6546 17.246C15.0782 18.3784 13.6918 19.749 12.5465 21.3076C10.6545 23.882 9.80739 26.8973 9.39958 30.6186C8.99995 34.2653 8.99997 38.8617 9 44.7254V45.0144C8.99997 50.8781 8.99995 55.4745 9.39958 59.1212C9.80739 62.8425 10.6545 65.8578 12.5465 68.4322C13.6918 69.9908 15.0782 71.3614 16.6546 72.4938C19.2586 74.3642 22.3085 75.2018 26.0725 75.605C29.761 76 34.41 76 40.3409 76H40.6336C46.5645 76 51.2138 76 54.9022 75.605C58.6663 75.2018 61.7161 74.3642 64.3201 72.4938C65.8966 71.3614 67.2829 69.9908 68.4283 68.4322C71.4286 64.3496 71.8574 59.0317 71.9513 51.2843C71.9673 49.9618 70.896 48.877 69.5584 48.8611C68.2208 48.8453 67.1235 49.9044 67.1074 51.2269C67.0106 59.2115 66.4669 62.9532 64.5092 65.6172C63.6627 66.7692 62.638 67.7822 61.4728 68.6192C59.8322 69.7976 57.7323 70.4845 54.3804 70.8436C50.9832 71.2075 46.5962 71.2108 40.4874 71.2108C34.3786 71.2108 29.9916 71.2075 26.5943 70.8436C23.2424 70.4845 21.1426 69.7976 19.502 68.6192C18.3368 67.7822 17.3121 66.7692 16.4655 65.6172C15.2735 63.9952 14.5788 61.9192 14.2156 58.6053C13.8475 55.2466 13.8442 50.9094 13.8442 44.8699C13.8442 38.8304 13.8475 34.4932 14.2156 31.1345C14.5788 27.8206 15.2735 25.7446 16.4655 24.1226C17.3121 22.9706 18.3368 21.9576 19.502 21.1206C22.1965 19.1851 25.9812 18.6476 34.0575 18.5519Z" fill="#262626"/>
</svg>
