<svg width="32" height="32" viewBox="0 0 32 32" fill="none" xmlns="http://www.w3.org/2000/svg">
<path fill-rule="evenodd" clip-rule="evenodd" d="M9.23483 10.9933C9.24422 10.8045 9.25615 10.626 9.271 10.4536C9.54789 7.47415 12.5602 5.02716 15.9531 5.02716H16.0482C19.4392 5.02716 22.4559 7.4733 22.7431 10.463C22.7601 10.6612 22.7681 10.8533 22.7705 11.1499L22.7705 11.1514L22.7741 12.355L22.774 12.355L22.7742 12.3639C22.7784 12.5653 22.7864 12.7342 22.8 12.9232L22.8011 12.9398L22.8034 12.9562L22.8206 13.0798L22.8238 13.1028L22.8291 13.1255L22.9156 13.4932L22.9155 13.4932L22.9189 13.5061C23.1933 14.5474 23.6862 15.5187 24.3646 16.3559L24.3644 16.356L24.3726 16.3656L24.5427 16.5651C24.8156 16.9966 24.9717 17.4898 24.9964 17.9974L24.9955 18.2027L24.9955 18.2098L24.9956 18.2169C25.0138 18.9665 24.7678 19.6745 24.3038 20.2368C23.6651 20.9066 22.7473 21.3538 21.756 21.4451L21.756 21.445L21.7479 21.4459C17.9189 21.8616 14.0705 21.8616 10.2563 21.4474L10.2563 21.4474L10.2502 21.4468C9.24893 21.3504 8.32916 20.9045 7.64749 20.1937C7.23495 19.68 6.99014 18.9746 7.00557 18.2472L7.00568 18.2472L7.00568 18.2369L7.00588 17.9681L7.02615 17.747C7.07432 17.3915 7.19395 17.0271 7.38024 16.6892L7.46357 16.5513C8.32325 15.5722 8.91389 14.3864 9.17577 13.1094L9.18086 13.0846L9.18341 13.0594L9.2026 12.8703L9.20497 12.8469L9.20514 12.8234L9.21379 11.6045L9.23483 10.9933ZM25.3321 15.9449L25.2171 16.0178L25.3174 15.9324L25.1377 15.7216C24.5517 14.997 24.1256 14.1573 23.8875 13.2575L23.8079 12.9191L23.7962 12.8352C23.7847 12.6712 23.7778 12.5242 23.7741 12.3476L23.7705 11.1459L23.7705 11.1433C23.7679 10.8285 23.7593 10.6082 23.7392 10.3748L23.7392 10.3748L23.7388 10.3701C23.3944 6.7675 19.8498 4.02716 16.0482 4.02716H15.9531C12.1513 4.02716 8.6081 6.76737 8.27512 10.363L8.27511 10.363L8.27484 10.3661C8.25867 10.5534 8.24585 10.746 8.23587 10.9476L8.23581 10.9476L8.23555 10.9551L8.21415 11.5769L8.21396 11.5769L8.21386 11.5906L8.20533 12.7928L8.19112 12.9328C7.95925 14.0419 7.44089 15.071 6.68789 15.9189L6.68626 15.9178L6.62057 15.9939L6.62801 16.0005L6.51941 16.1802L6.51464 16.1881L6.51017 16.1962C6.26042 16.6462 6.09801 17.1368 6.03349 17.6256L6.03218 17.6354L6.03128 17.6454L6.00798 17.8993L6.00591 17.9219L6.0059 17.9446L6.00569 18.2313C5.98653 19.1934 6.3106 20.1364 6.8841 20.84L6.8961 20.8547L6.90917 20.8685C7.75916 21.7632 8.90743 22.3214 10.1513 22.4419C14.0351 22.8634 17.9535 22.8634 21.8519 22.4405C23.0821 22.3262 24.2311 21.7695 25.0413 20.9124L25.052 20.9011L25.062 20.8891C25.6875 20.1388 26.0178 19.1921 25.9955 18.2001L25.9964 17.989L25.9965 17.9768L25.9959 17.9646C25.9639 17.2442 25.7344 16.546 25.3321 15.9449ZM12.6791 27.2494C12.5083 27.0324 12.194 26.9949 11.977 27.1657C11.76 27.3365 11.7225 27.6509 11.8933 27.8679C12.7388 28.9421 13.9773 29.6354 15.3347 29.7971C16.6892 29.9584 18.0534 29.5774 19.1272 28.7364C19.4484 28.4938 19.749 28.2001 20.0088 27.8732C20.1806 27.657 20.1446 27.3425 19.9284 27.1706C19.7123 26.9988 19.3977 27.0348 19.2259 27.251C19.0164 27.5146 18.7749 27.7498 18.5214 27.9408L18.5214 27.9407L18.5137 27.9467C17.6479 28.6261 16.5467 28.9344 15.453 28.8041C14.3583 28.6737 13.3601 28.1146 12.6791 27.2494Z" fill="#505050"/>
</svg>
