<svg width="32" height="32" viewBox="0 0 32 32" fill="none" xmlns="http://www.w3.org/2000/svg">
<path fill-rule="evenodd" clip-rule="evenodd" d="M21.6416 4C20.9074 4 20.301 4.3129 19.727 4.759C19.1831 5.18165 18.5793 5.79676 17.8552 6.53441L11.608 12.8978C11.1282 13.3857 10.7489 13.7714 10.5163 14.2645C10.2836 14.7575 10.2249 15.3002 10.1506 15.9865L10.1304 16.172C9.99142 17.4458 9.87685 18.4959 9.90307 19.323C9.9305 20.188 10.114 20.9803 10.722 21.5996C11.33 22.2189 12.1078 22.4058 12.957 22.4338C13.769 22.4605 14.7998 22.3438 16.0504 22.2022L16.2326 22.1816C16.9063 22.106 17.4391 22.0461 17.9231 21.8092C18.4071 21.5722 18.7858 21.1858 19.2647 20.6972L25.5119 14.3337C26.2361 13.596 26.8399 12.981 27.2549 12.427C27.6928 11.8423 28 11.2246 28 10.4767C28 9.72886 27.6928 9.11111 27.2549 8.52641C26.8399 7.97246 26.2361 7.35739 25.5119 6.61979L25.4281 6.53444C24.704 5.79678 24.1001 5.18166 23.5563 4.759C22.9823 4.3129 22.3758 4 21.6416 4ZM24.8641 12.5277L19.6282 7.19432C20.0905 6.7303 20.4481 6.38908 20.764 6.14357C21.186 5.81566 21.4316 5.74154 21.6416 5.74154C21.8517 5.74154 22.0973 5.81566 22.5192 6.14357C22.9609 6.48681 23.4841 7.01713 24.261 7.80856C25.038 8.59999 25.5586 9.13292 25.8956 9.5828C26.2175 10.0126 26.2903 10.2627 26.2903 10.4767C26.2903 10.6907 26.2175 10.9409 25.8956 11.3706C25.6546 11.6924 25.3196 12.0567 24.8641 12.5277ZM18.4177 8.42429L23.6566 13.7606L18.1382 19.3817C17.537 19.9941 17.3709 20.1473 17.1825 20.2395C16.9941 20.3317 16.7729 20.3682 15.9279 20.4638C14.5943 20.6147 13.6866 20.7153 13.0122 20.6931C12.3607 20.6717 12.0977 20.538 11.9309 20.3681C11.7642 20.1983 11.6329 19.9304 11.6119 19.2667C11.5901 18.5798 11.6889 17.6552 11.837 16.2968C11.9309 15.4361 11.9667 15.2108 12.0572 15.0189C12.1478 14.827 12.2982 14.6578 12.8994 14.0454L18.4177 8.42429Z" fill="#505050"/>
<path d="M12.8438 7.10977C13.3159 7.10401 13.694 6.70951 13.6884 6.22863C13.6827 5.74775 13.2954 5.36259 12.8233 5.36836C10.0575 5.40213 8.15911 5.55628 6.70163 6.63491C6.14523 7.04668 5.65593 7.54509 5.25169 8.11184C4.58395 9.04801 4.28496 10.1445 4.14103 11.4977C3.99998 12.8237 3.99999 14.4952 4 16.6274V16.7325C3.99999 18.8648 3.99998 20.5362 4.14103 21.8622C4.28496 23.2155 4.58395 24.3119 5.25169 25.2481C5.65593 25.8148 6.14523 26.3132 6.70163 26.725C7.62069 27.4052 8.69711 27.7097 10.0256 27.8563C11.3274 28 12.9682 28 15.0615 28H15.1648C17.258 28 18.899 28 20.2008 27.8563C21.5293 27.7097 22.6057 27.4052 23.5248 26.725C24.0811 26.3133 24.5705 25.8148 24.9747 25.2481C26.0336 23.7635 26.185 21.8297 26.2181 19.0125C26.2238 18.5316 25.8456 18.1371 25.3736 18.1313C24.9015 18.1256 24.5142 18.5107 24.5085 18.9916C24.4743 21.8951 24.2824 23.2557 23.5915 24.2244C23.2927 24.6433 22.9311 25.0117 22.5198 25.3161C21.9408 25.7446 21.1996 25.9944 20.0166 26.1249C18.8176 26.2573 17.2692 26.2585 15.1132 26.2585C12.9572 26.2585 11.4088 26.2573 10.2098 26.1249C9.02673 25.9944 8.28561 25.7446 7.70658 25.3161C7.29533 25.0117 6.93367 24.6433 6.63488 24.2244C6.21419 23.6346 5.96897 22.8797 5.8408 21.6747C5.7109 20.4533 5.70972 18.8761 5.70972 16.68C5.70972 14.4838 5.7109 12.9066 5.8408 11.6853C5.96897 10.4802 6.21419 9.7253 6.63488 9.13549C6.93367 8.71659 7.29533 8.3482 7.70658 8.04385C8.65759 7.34004 9.99336 7.14458 12.8438 7.10977Z" fill="#505050"/>
</svg>
