<svg width="86" height="86" viewBox="0 0 86 86" fill="none" xmlns="http://www.w3.org/2000/svg">
<g id="Iconly/Light-outline/Category">
<g id="Category">
<path id="Category_2" fill-rule="evenodd" clip-rule="evenodd" d="M28.715 7.16663H17.8298C11.9358 7.16663 7.16675 11.9771 7.16675 17.9006V28.8803C7.16675 34.8014 11.9368 39.6142 17.8298 39.6142H28.715C34.6081 39.6142 39.3781 34.8014 39.3781 28.8803V17.9006C39.3781 11.9771 34.6091 7.16663 28.715 7.16663ZM17.8298 12.1666H28.715C31.8379 12.1666 34.3781 14.7288 34.3781 17.9006V28.8803C34.3781 32.0499 31.8366 34.6142 28.715 34.6142H17.8298C14.7083 34.6142 12.1667 32.0499 12.1667 28.8803V17.9006C12.1667 14.7288 14.7069 12.1666 17.8298 12.1666ZM68.1738 7.16663H57.2851C51.3911 7.16663 46.622 11.9771 46.622 17.9006V28.8803C46.622 34.8014 51.3921 39.6142 57.2851 39.6142H68.1738C74.0641 39.6142 78.8334 34.8007 78.8334 28.8803V17.9006C78.8334 11.9777 74.0651 7.16663 68.1738 7.16663ZM57.2851 12.1666H68.1738C71.2936 12.1666 73.8334 14.7292 73.8334 17.9006V28.8803C73.8334 32.0496 71.2923 34.6142 68.1738 34.6142H57.2851C54.1636 34.6142 51.622 32.0499 51.622 28.8803V17.9006C51.622 14.7288 54.1622 12.1666 57.2851 12.1666ZM17.8298 46.3857H28.715C34.6098 46.3857 39.3781 51.1968 39.3781 57.1231V68.0993C39.3781 74.0229 34.6091 78.8333 28.715 78.8333H17.8298C11.9358 78.8333 7.16675 74.0229 7.16675 68.0993V57.1231C7.16675 51.1968 11.9351 46.3857 17.8298 46.3857ZM28.715 51.3857H17.8298C14.7066 51.3857 12.1667 53.9483 12.1667 57.1231V68.0993C12.1667 71.2711 14.7069 73.8333 17.8298 73.8333H28.715C31.8379 73.8333 34.3781 71.2711 34.3781 68.0993V57.1231C34.3781 53.9483 31.8383 51.3857 28.715 51.3857ZM68.1738 46.3857H57.2851C51.3904 46.3857 46.622 51.1968 46.622 57.1231V68.0993C46.622 74.0229 51.3911 78.8333 57.2851 78.8333H68.1738C74.0651 78.8333 78.8334 74.0222 78.8334 68.0993V57.1231C78.8334 51.1975 74.0658 46.3857 68.1738 46.3857ZM57.2851 51.3857H68.1738C71.294 51.3857 73.8334 53.9486 73.8334 57.1231V68.0993C73.8334 71.2707 71.2936 73.8333 68.1738 73.8333H57.2851C54.1622 73.8333 51.622 71.2711 51.622 68.0993V57.1231C51.622 53.9483 54.1618 51.3857 57.2851 51.3857Z" fill="#262626"/>
</g>
</g>
</svg>
