<svg width="86" height="86" viewBox="0 0 86 86" fill="none" xmlns="http://www.w3.org/2000/svg">
<path d="M70.9993 10.6998C70.9938 9.47947 69.9898 8.49458 68.7568 8.50002C67.5238 8.50547 66.5287 9.49918 66.5342 10.7195L66.5606 16.57C66.5708 18.8326 66.5747 20.3904 66.4609 21.5792C60.6197 15.3495 52.2693 11.4463 43 11.4463C25.3269 11.4463 11 25.6264 11 43.1185C11 44.3388 11.9996 45.3281 13.2326 45.3281C14.4656 45.3281 15.4651 44.3388 15.4651 43.1185C15.4651 28.0671 27.7929 15.8656 43 15.8656C51.1844 15.8656 58.5332 19.3973 63.5798 25.0121C63.4332 25.0351 63.2741 25.056 63.1009 25.0747C61.8765 25.2071 60.2581 25.2033 57.8486 25.1926L51.9377 25.1665C50.7047 25.1611 49.7007 26.146 49.6952 27.3663C49.6897 28.5867 50.6848 29.5804 51.9178 29.5859L57.9577 29.6125C60.2047 29.6225 62.0789 29.6309 63.5857 29.468C65.1661 29.2972 66.6227 28.9154 67.8881 27.9461C68.4325 27.5291 68.9212 27.0454 69.3425 26.5066C70.3218 25.2542 70.7076 23.8125 70.8802 22.2482C71.0447 20.7569 71.0363 18.902 71.0262 16.678L70.9993 10.6998Z" fill="#262626"/>
<path d="M75 43.1185C75 41.8981 74.0004 40.9088 72.7674 40.9088C71.5344 40.9088 70.5349 41.8981 70.5349 43.1185C70.5349 58.1698 58.2071 70.3713 43 70.3713C34.6988 70.3713 27.2573 66.7381 22.2057 60.9832C22.3439 60.9621 22.4931 60.9427 22.6545 60.9253C23.879 60.7929 25.4974 60.7967 27.9068 60.8074L33.8178 60.8335C35.0508 60.8389 36.0548 59.854 36.0603 58.6336C36.0658 57.4133 35.0707 56.4196 33.8377 56.4141L27.7978 56.3875C25.5508 56.3775 23.6766 56.3691 22.1698 56.532C20.5894 56.7028 19.1327 57.0846 17.8674 58.0539C17.3229 58.4709 16.8343 58.9546 16.4129 59.4934C15.4337 60.7458 15.0479 62.1875 14.8753 63.7518C14.7108 65.2431 14.7192 67.0981 14.7293 69.3221L14.7562 75.3002C14.7617 76.5205 15.7657 77.5054 16.9987 77.5C18.2317 77.4945 19.2268 76.5008 19.2213 75.2804L19.1949 69.43C19.1846 67.1519 19.1807 65.5883 19.2969 64.3965C25.1483 70.7781 33.6018 74.7907 43 74.7907C60.6731 74.7907 75 60.6105 75 43.1185Z" fill="#262626"/>
<path d="M70.9993 10.6998C70.9938 9.47947 69.9898 8.49458 68.7568 8.50002C67.5238 8.50547 66.5287 9.49918 66.5342 10.7195L66.5606 16.57C66.5708 18.8326 66.5747 20.3904 66.4609 21.5792C60.6197 15.3495 52.2693 11.4463 43 11.4463C25.3269 11.4463 11 25.6264 11 43.1185C11 44.3388 11.9996 45.3281 13.2326 45.3281C14.4656 45.3281 15.4651 44.3388 15.4651 43.1185C15.4651 28.0671 27.7929 15.8656 43 15.8656C51.1844 15.8656 58.5332 19.3973 63.5798 25.0121C63.4332 25.0351 63.2741 25.056 63.1009 25.0747C61.8765 25.2071 60.2581 25.2033 57.8486 25.1926L51.9377 25.1665C50.7047 25.1611 49.7007 26.146 49.6952 27.3663C49.6897 28.5867 50.6848 29.5804 51.9178 29.5859L57.9577 29.6125C60.2047 29.6225 62.0789 29.6309 63.5857 29.468C65.1661 29.2972 66.6227 28.9154 67.8881 27.9461C68.4325 27.5291 68.9212 27.0454 69.3425 26.5066C70.3218 25.2542 70.7076 23.8125 70.8802 22.2482C71.0447 20.7569 71.0363 18.902 71.0262 16.678L70.9993 10.6998Z" stroke="#262626" stroke-linecap="round"/>
<path d="M75 43.1185C75 41.8981 74.0004 40.9088 72.7674 40.9088C71.5344 40.9088 70.5349 41.8981 70.5349 43.1185C70.5349 58.1698 58.2071 70.3713 43 70.3713C34.6988 70.3713 27.2573 66.7381 22.2057 60.9832C22.3439 60.9621 22.4931 60.9427 22.6545 60.9253C23.879 60.7929 25.4974 60.7967 27.9068 60.8074L33.8178 60.8335C35.0508 60.8389 36.0548 59.854 36.0603 58.6336C36.0658 57.4133 35.0707 56.4196 33.8377 56.4141L27.7978 56.3875C25.5508 56.3775 23.6766 56.3691 22.1698 56.532C20.5894 56.7028 19.1327 57.0846 17.8674 58.0539C17.3229 58.4709 16.8343 58.9546 16.4129 59.4934C15.4337 60.7458 15.0479 62.1875 14.8753 63.7518C14.7108 65.2431 14.7192 67.0981 14.7293 69.3221L14.7562 75.3002C14.7617 76.5205 15.7657 77.5054 16.9987 77.5C18.2317 77.4945 19.2268 76.5008 19.2213 75.2804L19.1949 69.43C19.1846 67.1519 19.1807 65.5883 19.2969 64.3965C25.1483 70.7781 33.6018 74.7907 43 74.7907C60.6731 74.7907 75 60.6105 75 43.1185Z" stroke="#262626" stroke-linecap="round"/>
</svg>
