<svg width="86" height="86" viewBox="0 0 86 86" fill="none" xmlns="http://www.w3.org/2000/svg">
<path fill-rule="evenodd" clip-rule="evenodd" d="M41.6081 7.16663C22.5867 7.16663 7.16675 22.246 7.16675 40.8473C7.16675 59.4486 22.5867 74.528 41.6081 74.528C49.7435 74.528 57.2201 71.7696 63.1133 67.1571L74.3078 78.0759L74.6057 78.3267C75.6451 79.0788 77.1185 78.9933 78.059 78.0712C79.0935 77.0569 79.0913 75.4146 78.0541 74.4029L66.9911 63.6124C72.6161 57.6177 76.0495 49.6246 76.0495 40.8473C76.0495 22.246 60.6295 7.16663 41.6081 7.16663ZM41.6081 12.3544C57.6997 12.3544 70.7446 25.1111 70.7446 40.8473C70.7446 56.5835 57.6997 69.3403 41.6081 69.3403C25.5165 69.3403 12.4716 56.5835 12.4716 40.8473C12.4716 25.1111 25.5165 12.3544 41.6081 12.3544Z" fill="#262626"/>
</svg>
