<svg width="32" height="32" viewBox="0 0 32 32" fill="none" xmlns="http://www.w3.org/2000/svg">
<path d="M22.6667 28H9.33341C4.00008 28 2.66675 26.6667 2.66675 21.3333V10.6667C2.66675 5.33333 4.00008 4 9.33341 4H22.6667C28.0001 4 29.3334 5.33333 29.3334 10.6667V21.3333C29.3334 26.6667 28.0001 28 22.6667 28Z" stroke="#505050" stroke-linecap="round" stroke-linejoin="round"/>
<path d="M18.6667 10.6667H25.3334" stroke="#505050" stroke-linecap="round" stroke-linejoin="round"/>
<path d="M20 16H25.3333" stroke="#505050" stroke-linecap="round" stroke-linejoin="round"/>
<path d="M22.6667 21.3333H25.3334" stroke="#505050" stroke-linecap="round" stroke-linejoin="round"/>
<path d="M11.3333 15.0534C12.6661 15.0534 13.7466 13.9729 13.7466 12.64C13.7466 11.3072 12.6661 10.2267 11.3333 10.2267C10.0004 10.2267 8.91992 11.3072 8.91992 12.64C8.91992 13.9729 10.0004 15.0534 11.3333 15.0534Z" stroke="#505050" stroke-linecap="round" stroke-linejoin="round"/>
<path d="M16.0001 21.7733C15.8134 19.84 14.2801 18.32 12.3467 18.1467C11.6801 18.08 11.0001 18.08 10.3201 18.1467C8.38675 18.3333 6.85341 19.84 6.66675 21.7733" stroke="#505050" stroke-linecap="round" stroke-linejoin="round"/>
</svg>
