<svg width="32" height="32" viewBox="0 0 32 32" fill="none" xmlns="http://www.w3.org/2000/svg">
<path d="M19.4529 19.4531C21.36 19.4531 22.906 17.9071 22.906 16C22.906 14.0929 21.36 12.5469 19.4529 12.5469C17.5458 12.5469 15.9998 14.0929 15.9998 16C15.9998 17.9071 17.5458 19.4531 19.4529 19.4531Z" stroke="#505050" stroke-width="1.5" stroke-linecap="round" stroke-linejoin="round"/>
<path d="M16 12.5469V5.64062H12.5469C11.631 5.64062 10.7527 6.00443 10.1051 6.65202C9.45756 7.2996 9.09375 8.17792 9.09375 9.09374C9.09375 10.0096 9.45756 10.8879 10.1051 11.5355C10.7527 12.183 11.631 12.5469 12.5469 12.5469H16Z" stroke="#505050" stroke-width="1.5" stroke-linecap="round" stroke-linejoin="round"/>
<path d="M16 19.4531V12.5469H12.5469C11.631 12.5469 10.7527 12.9107 10.1051 13.5583C9.45756 14.2059 9.09375 15.0842 9.09375 16C9.09375 16.9158 9.45756 17.7941 10.1051 18.4417C10.7527 19.0893 11.631 19.4531 12.5469 19.4531H16Z" stroke="#505050" stroke-width="1.5" stroke-linecap="round" stroke-linejoin="round"/>
<path d="M15.9998 12.5469V5.64062H19.4529C20.3687 5.64062 21.247 6.00443 21.8946 6.65202C22.5422 7.2996 22.906 8.17792 22.906 9.09374C22.906 10.0096 22.5422 10.8879 21.8946 11.5355C21.247 12.183 20.3687 12.5469 19.4529 12.5469H15.9998Z" stroke="#505050" stroke-width="1.5" stroke-linecap="round" stroke-linejoin="round"/>
<path d="M16 19.4531V22.9062C16 23.5891 15.7975 24.2568 15.418 24.8246C15.0386 25.3925 14.4993 25.8351 13.8683 26.0964C13.2373 26.3578 12.543 26.4262 11.8732 26.2929C11.2034 26.1597 10.5881 25.8308 10.1051 25.3479C9.62222 24.865 9.29334 24.2497 9.1601 23.5798C9.02686 22.91 9.09525 22.2157 9.3566 21.5847C9.61796 20.9538 10.0606 20.4145 10.6284 20.035C11.1963 19.6556 11.8639 19.4531 12.5469 19.4531H16Z" stroke="#505050" stroke-width="1.5" stroke-linecap="round" stroke-linejoin="round"/>
</svg>
