<?xml version="1.0" encoding="utf-8"?>
<!-- Generator: Adobe Illustrator 25.2.1, SVG Export Plug-In . SVG Version: 6.00 Build 0)  -->
<svg version="1.1" id="Layer_1" xmlns="http://www.w3.org/2000/svg" xmlns:xlink="http://www.w3.org/1999/xlink" x="0px" y="0px"
	 viewBox="0 0 24 24" style="enable-background:new 0 0 24 24;" xml:space="preserve">
<style type="text/css">
	.st0{fill:none;stroke:#505050;stroke-width:1.5;stroke-linecap:round;stroke-linejoin:round;}
	.st1{fill:none;stroke:#505050;stroke-width:1.5;stroke-linecap:round;stroke-linejoin:round;stroke-miterlimit:10;}
</style>
<path class="st0" d="M9.3,14.7l1.5,1.5l4-4"/>
<path class="st1" d="M10,6h4c2,0,2-1,2-2c0-2-1-2-2-2h-4C9,2,8,2,8,4S9,6,10,6z"/>
<path class="st1" d="M16,4c3.3,0.2,5,1.4,5,6v6c0,4-1,6-6,6H9c-5,0-6-2-6-6v-6c0-4.6,1.7-5.8,5-6"/>
</svg>
