<svg width="32" height="32" viewBox="0 0 32 32" fill="none" xmlns="http://www.w3.org/2000/svg">
<path d="M26.4934 17.5448C26.1734 14.5315 24.5467 11.7982 22.04 10.0648" stroke="#505050" stroke-linecap="round"/>
<path d="M10.0268 10.1182C7.5468 11.8648 5.9468 14.5982 5.64014 17.6115" stroke="#505050" stroke-linecap="round"/>
<path d="M11.3735 28.0381C14.2535 29.4914 17.7202 29.5181 20.6269 28.1181" stroke="#505050" stroke-linecap="round"/>
<path d="M16.08 11.7648C13.7561 11.7648 11.8733 9.88202 11.8733 7.55817C11.8733 5.23431 13.7561 3.3515 16.08 3.3515C18.4038 3.3515 20.2866 5.23431 20.2866 7.55817C20.2866 9.8811 18.3914 11.7648 16.08 11.7648Z" stroke="#505050"/>
<path d="M6.44006 28.0715C4.11621 28.0715 2.2334 26.1887 2.2334 23.8648C2.2334 21.5534 4.11713 19.6581 6.44006 19.6581C8.76392 19.6581 10.6467 21.541 10.6467 23.8648C10.6467 26.1763 8.763 28.0715 6.44006 28.0715Z" stroke="#505050"/>
<path d="M25.5599 28.0715C23.2361 28.0715 21.3533 26.1887 21.3533 23.8648C21.3533 21.5534 23.237 19.6581 25.5599 19.6581C27.8834 19.6581 29.7659 21.5403 29.7666 23.8635C29.754 26.1778 27.8677 28.0715 25.5599 28.0715Z" stroke="#505050"/>
</svg>
