<svg width="86" height="86" viewBox="0 0 86 86" fill="none" xmlns="http://www.w3.org/2000/svg">
<path d="M62.0994 34.4112C63.0487 33.3509 62.9587 31.7217 61.8984 30.7724C60.838 29.8231 59.2089 29.9131 58.2596 30.9734L46.6835 43.9033C44.3378 46.5233 42.7581 48.2785 41.4075 49.4136C40.1209 50.495 39.3653 50.7308 38.7051 50.7308C38.045 50.7308 37.2893 50.495 36.0027 49.4136C34.6521 48.2785 33.0725 46.5233 30.7268 43.9033L27.7404 40.5677C26.7911 39.5074 25.162 39.4174 24.1016 40.3667C23.0413 41.316 22.9513 42.9451 23.9006 44.0055L27.0147 47.4837C29.1993 49.924 31.0216 51.9595 32.6866 53.359C34.448 54.8394 36.3478 55.8846 38.7051 55.8846C41.0624 55.8846 42.9622 54.8394 44.7236 53.359C46.3887 51.9595 48.2109 49.924 50.3956 47.4837L62.0994 34.4112Z" fill="#505050"/>
<path fill-rule="evenodd" clip-rule="evenodd" d="M58.3362 9.92512C54.4119 9.49995 49.4656 9.49997 43.1555 9.5H42.8445C36.5344 9.49997 31.5881 9.49995 27.6638 9.92512C23.6591 10.359 20.4143 11.2603 17.6439 13.2731C15.9667 14.4917 14.4917 15.9667 13.2731 17.6439C11.2603 20.4143 10.359 23.6591 9.92512 27.6638C9.49995 31.588 9.49997 36.5344 9.5 42.8445V43.1555C9.49997 49.4656 9.49995 54.4119 9.92512 58.3362C10.359 62.3409 11.2603 65.5857 13.2731 68.3561C14.4917 70.0333 15.9667 71.5083 17.6439 72.7269C20.4143 74.7397 23.6591 75.641 27.6638 76.0749C31.588 76.5 36.5342 76.5 42.8442 76.5H43.1556C49.4655 76.5 54.412 76.5 58.3362 76.0749C62.3409 75.641 65.5857 74.7397 68.3561 72.7269C70.0333 71.5083 71.5083 70.0333 72.7269 68.3561C74.7397 65.5857 75.641 62.3409 76.0749 58.3362C76.5 54.412 76.5 49.4658 76.5 43.1558V42.8444C76.5 36.5345 76.5 31.588 76.0749 27.6638C75.641 23.6591 74.7397 20.4143 72.7269 17.6439C71.5083 15.9667 70.0333 14.4917 68.3561 13.2731C65.5857 11.2603 62.3409 10.359 58.3362 9.92512ZM20.6732 17.4427C22.4187 16.1745 24.6528 15.4353 28.2189 15.049C31.8333 14.6574 36.5008 14.6538 43 14.6538C49.4992 14.6538 54.1667 14.6574 57.7811 15.049C61.3472 15.4353 63.5813 16.1745 65.3268 17.4427C66.5664 18.3434 67.6566 19.4336 68.5573 20.6732C69.8255 22.4187 70.5647 24.6528 70.951 28.2189C71.3426 31.8333 71.3462 36.5008 71.3462 43C71.3462 49.4992 71.3426 54.1667 70.951 57.7811C70.5647 61.3472 69.8255 63.5813 68.5573 65.3268C67.6566 66.5664 66.5664 67.6566 65.3268 68.5573C63.5813 69.8255 61.3472 70.5647 57.7811 70.951C54.1667 71.3426 49.4992 71.3462 43 71.3462C36.5008 71.3462 31.8333 71.3426 28.2189 70.951C24.6528 70.5647 22.4187 69.8255 20.6732 68.5573C19.4336 67.6566 18.3434 66.5664 17.4427 65.3268C16.1745 63.5813 15.4353 61.3472 15.049 57.7811C14.6574 54.1667 14.6538 49.4992 14.6538 43C14.6538 36.5008 14.6574 31.8333 15.049 28.2189C15.4353 24.6528 16.1745 22.4187 17.4427 20.6732C18.3434 19.4336 19.4336 18.3434 20.6732 17.4427Z" fill="#505050"/>
<path d="M62.0994 34.4112C63.0487 33.3509 62.9587 31.7217 61.8984 30.7724C60.838 29.8231 59.2089 29.9131 58.2596 30.9734L46.6835 43.9033C44.3378 46.5233 42.7581 48.2785 41.4075 49.4136C40.1209 50.495 39.3653 50.7308 38.7051 50.7308C38.045 50.7308 37.2893 50.495 36.0027 49.4136C34.6521 48.2785 33.0725 46.5233 30.7268 43.9033L27.7404 40.5677C26.7911 39.5074 25.162 39.4174 24.1016 40.3667C23.0413 41.316 22.9513 42.9451 23.9006 44.0055L27.0147 47.4837C29.1993 49.924 31.0216 51.9595 32.6866 53.359C34.448 54.8394 36.3478 55.8846 38.7051 55.8846C41.0624 55.8846 42.9622 54.8394 44.7236 53.359C46.3887 51.9595 48.2109 49.924 50.3956 47.4837L62.0994 34.4112Z" stroke="#505050"/>
<path fill-rule="evenodd" clip-rule="evenodd" d="M58.3362 9.92512C54.4119 9.49995 49.4656 9.49997 43.1555 9.5H42.8445C36.5344 9.49997 31.5881 9.49995 27.6638 9.92512C23.6591 10.359 20.4143 11.2603 17.6439 13.2731C15.9667 14.4917 14.4917 15.9667 13.2731 17.6439C11.2603 20.4143 10.359 23.6591 9.92512 27.6638C9.49995 31.588 9.49997 36.5344 9.5 42.8445V43.1555C9.49997 49.4656 9.49995 54.4119 9.92512 58.3362C10.359 62.3409 11.2603 65.5857 13.2731 68.3561C14.4917 70.0333 15.9667 71.5083 17.6439 72.7269C20.4143 74.7397 23.6591 75.641 27.6638 76.0749C31.588 76.5 36.5342 76.5 42.8442 76.5H43.1556C49.4655 76.5 54.412 76.5 58.3362 76.0749C62.3409 75.641 65.5857 74.7397 68.3561 72.7269C70.0333 71.5083 71.5083 70.0333 72.7269 68.3561C74.7397 65.5857 75.641 62.3409 76.0749 58.3362C76.5 54.412 76.5 49.4658 76.5 43.1558V42.8444C76.5 36.5345 76.5 31.588 76.0749 27.6638C75.641 23.6591 74.7397 20.4143 72.7269 17.6439C71.5083 15.9667 70.0333 14.4917 68.3561 13.2731C65.5857 11.2603 62.3409 10.359 58.3362 9.92512ZM20.6732 17.4427C22.4187 16.1745 24.6528 15.4353 28.2189 15.049C31.8333 14.6574 36.5008 14.6538 43 14.6538C49.4992 14.6538 54.1667 14.6574 57.7811 15.049C61.3472 15.4353 63.5813 16.1745 65.3268 17.4427C66.5664 18.3434 67.6566 19.4336 68.5573 20.6732C69.8255 22.4187 70.5647 24.6528 70.951 28.2189C71.3426 31.8333 71.3462 36.5008 71.3462 43C71.3462 49.4992 71.3426 54.1667 70.951 57.7811C70.5647 61.3472 69.8255 63.5813 68.5573 65.3268C67.6566 66.5664 66.5664 67.6566 65.3268 68.5573C63.5813 69.8255 61.3472 70.5647 57.7811 70.951C54.1667 71.3426 49.4992 71.3462 43 71.3462C36.5008 71.3462 31.8333 71.3426 28.2189 70.951C24.6528 70.5647 22.4187 69.8255 20.6732 68.5573C19.4336 67.6566 18.3434 66.5664 17.4427 65.3268C16.1745 63.5813 15.4353 61.3472 15.049 57.7811C14.6574 54.1667 14.6538 49.4992 14.6538 43C14.6538 36.5008 14.6574 31.8333 15.049 28.2189C15.4353 24.6528 16.1745 22.4187 17.4427 20.6732C18.3434 19.4336 19.4336 18.3434 20.6732 17.4427Z" stroke="#505050"/>
</svg>
