<svg width="62" height="68" viewBox="0 0 62 68" fill="none" xmlns="http://www.w3.org/2000/svg">
<path fill-rule="evenodd" clip-rule="evenodd" d="M46.2197 2.05025C46.0618 0.892394 45.0641 0 43.8569 0C42.5399 0 41.4723 1.06202 41.4723 2.37208V4.9947H20.5569V2.37208L20.5352 2.05025C20.3773 0.892394 19.3796 0 18.1723 0C16.8554 0 15.7877 1.06202 15.7877 2.37208V5.05354C6.01591 5.71792 0 11.9677 0 22.0517V50.6738C0 61.4966 6.74537 68 17.5538 68H44.446C55.2672 68 61.9999 61.6055 61.9999 50.913V22.0517C62.031 11.9642 56.0345 5.71605 46.2415 5.05329V2.37208L46.2197 2.05025ZM41.4723 9.73884V12.7802L41.494 13.102C41.6519 14.2598 42.6496 15.1523 43.8569 15.1523C45.1739 15.1523 46.2415 14.0902 46.2415 12.7802V9.80894C53.3666 10.3941 57.2536 14.6293 57.2307 22.0444V23.4181H4.76921V22.0517C4.76921 14.6413 8.67745 10.3971 15.7877 9.80943V12.7802L15.8095 13.102C15.9674 14.2598 16.9651 15.1523 18.1723 15.1523C19.4894 15.1523 20.5569 14.0902 20.5569 12.7802V9.73884H41.4723ZM4.76921 28.1623V50.6738C4.76921 58.8427 9.34656 63.2558 17.5538 63.2558H44.446C52.6814 63.2558 57.2307 58.935 57.2307 50.913V28.1623H4.76921ZM47.5375 38.1422C47.5375 36.8322 46.4698 35.7702 45.1529 35.7702L44.7999 35.7918C43.6359 35.9489 42.7388 36.9414 42.7388 38.1422C42.7388 39.4523 43.8065 40.5144 45.1529 40.5144L45.4764 40.4927C46.6404 40.3356 47.5375 39.3432 47.5375 38.1422ZM31.044 35.7702C32.3611 35.7702 33.4287 36.8322 33.4287 38.1422C33.4287 39.3432 32.5315 40.3356 31.3677 40.4927L31.044 40.5144C29.6976 40.5144 28.63 39.4523 28.63 38.1422C28.63 36.9414 29.5271 35.9489 30.6911 35.7918L31.044 35.7702ZM19.2904 38.1422C19.2904 36.8322 18.2227 35.7702 16.9058 35.7702L16.5528 35.7918C15.3888 35.9489 14.4917 36.9414 14.4917 38.1422C14.4917 39.4523 15.5594 40.5144 16.8764 40.5144L17.2293 40.4927C18.3933 40.3356 19.2904 39.3432 19.2904 38.1422ZM45.1529 48.0624C46.4698 48.0624 47.5375 49.1245 47.5375 50.4345C47.5375 51.6355 46.6404 52.6279 45.4764 52.7849L45.1529 52.8067C43.8065 52.8067 42.7388 51.7446 42.7388 50.4345C42.7388 49.2336 43.6359 48.2411 44.7999 48.0841L45.1529 48.0624ZM33.4287 50.4345C33.4287 49.1245 32.3611 48.0624 31.044 48.0624L30.6911 48.0841C29.5271 48.2411 28.63 49.2336 28.63 50.4345C28.63 51.7446 29.6976 52.8067 31.044 52.8067L31.3677 52.7849C32.5315 52.6279 33.4287 51.6355 33.4287 50.4345ZM16.9058 48.0624C18.2227 48.0624 19.2904 49.1245 19.2904 50.4345C19.2904 51.6355 18.3933 52.6279 17.2293 52.7849L16.8764 52.8067C15.5594 52.8067 14.4917 51.7446 14.4917 50.4345C14.4917 49.2336 15.3888 48.2411 16.5528 48.0841L16.9058 48.0624Z" fill="#262626"/>
</svg>
