<svg width="32" height="32" viewBox="0 0 32 32" fill="none" xmlns="http://www.w3.org/2000/svg">
<path d="M19.6843 12.7763C21.1499 12.7763 22.5556 13.3585 23.592 14.3949C24.6284 15.4313 25.2106 16.837 25.2106 18.3026V24.75H21.5264V18.3026C21.5264 17.8141 21.3323 17.3455 20.9868 17.0001C20.6414 16.6546 20.1728 16.4605 19.6843 16.4605C19.1957 16.4605 18.7272 16.6546 18.3817 17.0001C18.0362 17.3455 17.8422 17.8141 17.8422 18.3026V24.75H14.158V18.3026C14.158 16.837 14.7402 15.4313 15.7766 14.3949C16.813 13.3585 18.2186 12.7763 19.6843 12.7763V12.7763Z" stroke="#505050" stroke-width="1.5" stroke-linecap="round" stroke-linejoin="round"/>
<path d="M10.4738 13.6974H6.78955V24.75H10.4738V13.6974Z" stroke="#505050" stroke-width="1.5" stroke-linecap="round" stroke-linejoin="round"/>
<path d="M8.63166 10.9342C9.64902 10.9342 10.4738 10.1095 10.4738 9.09211C10.4738 8.07474 9.64902 7.25 8.63166 7.25C7.61429 7.25 6.78955 8.07474 6.78955 9.09211C6.78955 10.1095 7.61429 10.9342 8.63166 10.9342Z" stroke="#505050" stroke-width="1.5" stroke-linecap="round" stroke-linejoin="round"/>
</svg>
