<svg width="32" height="32" viewBox="0 0 32 32" fill="none" xmlns="http://www.w3.org/2000/svg">
<path d="M19.9474 12.546C21.5178 12.546 23.0238 13.1698 24.1342 14.2803C25.2446 15.3907 25.8685 16.8967 25.8685 18.4671V25.375H21.9211V18.4671C21.9211 17.9436 21.7132 17.4416 21.343 17.0715C20.9729 16.7013 20.4709 16.4934 19.9474 16.4934C19.424 16.4934 18.922 16.7013 18.5518 17.0715C18.1817 17.4416 17.9737 17.9436 17.9737 18.4671V25.375H14.0264V18.4671C14.0264 16.8967 14.6502 15.3907 15.7606 14.2803C16.871 13.1698 18.3771 12.546 19.9474 12.546V12.546Z" stroke="#505050" stroke-width="1.5" stroke-linecap="round" stroke-linejoin="round"/>
<path d="M10.079 13.5329H6.13159V25.375H10.079V13.5329Z" stroke="#505050" stroke-width="1.5" stroke-linecap="round" stroke-linejoin="round"/>
<path d="M8.10528 10.5724C9.19531 10.5724 10.079 9.68872 10.079 8.59868C10.079 7.50865 9.19531 6.625 8.10528 6.625C7.01524 6.625 6.13159 7.50865 6.13159 8.59868C6.13159 9.68872 7.01524 10.5724 8.10528 10.5724Z" stroke="#505050" stroke-width="1.5" stroke-linecap="round" stroke-linejoin="round"/>
</svg>
