<svg width="28" height="28" viewBox="0 0 28 28" fill="none" xmlns="http://www.w3.org/2000/svg">
<path d="M18 10.5C19.5913 10.5 21.1174 11.1321 22.2426 12.2574C23.3679 13.3826 24 14.9087 24 16.5V23.5H20V16.5C20 15.9696 19.7893 15.4609 19.4142 15.0858C19.0391 14.7107 18.5304 14.5 18 14.5C17.4696 14.5 16.9609 14.7107 16.5858 15.0858C16.2107 15.4609 16 15.9696 16 16.5V23.5H12V16.5C12 14.9087 12.6321 13.3826 13.7574 12.2574C14.8826 11.1321 16.4087 10.5 18 10.5V10.5Z" stroke="#262626" stroke-width="1.5" stroke-linecap="round" stroke-linejoin="round"/>
<path d="M8 11.5H4V23.5H8V11.5Z" stroke="#262626" stroke-width="1.5" stroke-linecap="round" stroke-linejoin="round"/>
<path d="M6 8.5C7.10457 8.5 8 7.60457 8 6.5C8 5.39543 7.10457 4.5 6 4.5C4.89543 4.5 4 5.39543 4 6.5C4 7.60457 4.89543 8.5 6 8.5Z" stroke="#262626" stroke-width="1.5" stroke-linecap="round" stroke-linejoin="round"/>
</svg>
