<svg width="28" height="28" viewBox="0 0 28 28" fill="none" xmlns="http://www.w3.org/2000/svg">
<path d="M17.6843 10.7763C19.1499 10.7763 20.5556 11.3586 21.592 12.3949C22.6284 13.4313 23.2106 14.837 23.2106 16.3026V22.75H19.5264V16.3026C19.5264 15.8141 19.3323 15.3455 18.9868 15.0001C18.6414 14.6546 18.1728 14.4605 17.6843 14.4605C17.1957 14.4605 16.7272 14.6546 16.3817 15.0001C16.0362 15.3455 15.8422 15.8141 15.8422 16.3026V22.75H12.158V16.3026C12.158 14.837 12.7402 13.4313 13.7766 12.3949C14.813 11.3586 16.2186 10.7763 17.6843 10.7763V10.7763Z" stroke="#1B1B1B" stroke-width="1.5" stroke-linecap="round" stroke-linejoin="round"/>
<path d="M8.47376 11.6974H4.78955V22.75H8.47376V11.6974Z" stroke="#1B1B1B" stroke-width="1.5" stroke-linecap="round" stroke-linejoin="round"/>
<path d="M6.63166 8.93421C7.64902 8.93421 8.47376 8.10947 8.47376 7.09211C8.47376 6.07474 7.64902 5.25 6.63166 5.25C5.61429 5.25 4.78955 6.07474 4.78955 7.09211C4.78955 8.10947 5.61429 8.93421 6.63166 8.93421Z" stroke="#1B1B1B" stroke-width="1.5" stroke-linecap="round" stroke-linejoin="round"/>
</svg>
