<svg width="28" height="28" viewBox="0 0 28 28" fill="none" xmlns="http://www.w3.org/2000/svg">
<path d="M19 4H9C6.23858 4 4 6.23858 4 9V19C4 21.7614 6.23858 24 9 24H19C21.7614 24 24 21.7614 24 19V9C24 6.23858 21.7614 4 19 4Z" stroke="#262626" stroke-width="1.5" stroke-linecap="round" stroke-linejoin="round"/>
<path d="M18 13.37C18.1234 14.2022 17.9812 15.0522 17.5937 15.799C17.2062 16.5458 16.5931 17.1514 15.8416 17.5297C15.0901 17.9079 14.2384 18.0396 13.4077 17.9059C12.5771 17.7723 11.8097 17.3801 11.2148 16.7852C10.6199 16.1902 10.2277 15.4229 10.094 14.5922C9.96035 13.7615 10.092 12.9099 10.4703 12.1584C10.8485 11.4069 11.4541 10.7937 12.2009 10.4062C12.9477 10.0187 13.7977 9.87658 14.63 10C15.4789 10.1259 16.2648 10.5215 16.8716 11.1283C17.4785 11.7351 17.8741 12.5211 18 13.37Z" stroke="#262626" stroke-width="1.5" stroke-linecap="round" stroke-linejoin="round"/>
<path d="M19.5 8.5H19.51" stroke="#262626" stroke-width="1.5" stroke-linecap="round" stroke-linejoin="round"/>
</svg>
