<svg width="32" height="32" viewBox="0 0 32 32" fill="none" xmlns="http://www.w3.org/2000/svg">
<path d="M20.75 6.5H11.25C8.62665 6.5 6.5 8.62665 6.5 11.25V20.75C6.5 23.3734 8.62665 25.5 11.25 25.5H20.75C23.3734 25.5 25.5 23.3734 25.5 20.75V11.25C25.5 8.62665 23.3734 6.5 20.75 6.5Z" stroke="#505050" stroke-width="1.5" stroke-linecap="round" stroke-linejoin="round"/>
<path d="M19.7999 15.4015C19.9171 16.1921 19.7821 16.9996 19.4139 17.709C19.0458 18.4185 18.4634 18.9938 17.7494 19.3532C17.0355 19.7125 16.2264 19.8376 15.4373 19.7106C14.6481 19.5836 13.9191 19.2111 13.354 18.6459C12.7888 18.0807 12.4162 17.3517 12.2892 16.5626C12.1623 15.7735 12.2873 14.9644 12.6467 14.2504C13.006 13.5365 13.5813 12.954 14.2908 12.5859C15.0003 12.2178 15.8077 12.0827 16.5984 12.2C17.4048 12.3196 18.1515 12.6954 18.728 13.2719C19.3045 13.8484 19.6803 14.595 19.7999 15.4015Z" stroke="#505050" stroke-width="1.5" stroke-linecap="round" stroke-linejoin="round"/>
<path d="M21.2251 10.775H21.2351" stroke="#505050" stroke-width="1.5" stroke-linecap="round" stroke-linejoin="round"/>
</svg>
