<svg width="28" height="28" viewBox="0 0 28 28" fill="none" xmlns="http://www.w3.org/2000/svg">
<path d="M18.75 4.5H9.25C6.62665 4.5 4.5 6.62665 4.5 9.25V18.75C4.5 21.3734 6.62665 23.5 9.25 23.5H18.75C21.3734 23.5 23.5 21.3734 23.5 18.75V9.25C23.5 6.62665 21.3734 4.5 18.75 4.5Z" stroke="#1B1B1B" stroke-width="1.5" stroke-linecap="round" stroke-linejoin="round"/>
<path d="M17.7999 13.4015C17.9171 14.1921 17.7821 14.9996 17.4139 15.7091C17.0458 16.4185 16.4634 16.9938 15.7494 17.3532C15.0355 17.7125 14.2264 17.8376 13.4373 17.7106C12.6481 17.5837 11.9191 17.2111 11.354 16.6459C10.7888 16.0807 10.4162 15.3517 10.2892 14.5626C10.1623 13.7735 10.2873 12.9644 10.6467 12.2505C11.006 11.5365 11.5813 10.9541 12.2908 10.5859C13.0003 10.2178 13.8077 10.0828 14.5984 10.2C15.4048 10.3196 16.1515 10.6954 16.728 11.2719C17.3045 11.8484 17.6803 12.595 17.7999 13.4015Z" stroke="#1B1B1B" stroke-width="1.5" stroke-linecap="round" stroke-linejoin="round"/>
<path d="M19.2251 8.775H19.2351" stroke="#1B1B1B" stroke-width="1.5" stroke-linecap="round" stroke-linejoin="round"/>
</svg>
