<svg width="32" height="32" viewBox="0 0 32 32" fill="none" xmlns="http://www.w3.org/2000/svg">
<path d="M21.125 5.75H10.875C8.04454 5.75 5.75 8.04454 5.75 10.875V21.125C5.75 23.9555 8.04454 26.25 10.875 26.25H21.125C23.9555 26.25 26.25 23.9555 26.25 21.125V10.875C26.25 8.04454 23.9555 5.75 21.125 5.75Z" stroke="#505050" stroke-width="1.5" stroke-linecap="round" stroke-linejoin="round"/>
<path d="M20.0997 15.3542C20.2262 16.2073 20.0805 17.0785 19.6834 17.844C19.2862 18.6094 18.6577 19.2302 17.8874 19.6179C17.1171 20.0056 16.2442 20.1406 15.3927 20.0036C14.5413 19.8665 13.7548 19.4646 13.145 18.8548C12.5352 18.245 12.1332 17.4584 11.9962 16.607C11.8592 15.7556 11.9941 14.8826 12.3818 14.1123C12.7696 13.342 13.3903 12.7136 14.1558 12.3164C14.9212 11.9192 15.7924 11.7735 16.6455 11.9C17.5156 12.029 18.3212 12.4345 18.9432 13.0565C19.5652 13.6785 19.9707 14.4841 20.0997 15.3542Z" stroke="#505050" stroke-width="1.5" stroke-linecap="round" stroke-linejoin="round"/>
<path d="M21.6377 10.3625H21.6477" stroke="#505050" stroke-width="1.5" stroke-linecap="round" stroke-linejoin="round"/>
</svg>
