<svg width="32" height="32" viewBox="0 0 32 32" fill="none" xmlns="http://www.w3.org/2000/svg">
<path d="M28 22.7524V8.96066C28 7.58948 26.824 6.57252 25.396 6.68679H25.324C22.804 6.89246 18.976 8.1151 16.84 9.39486L16.636 9.52055C16.288 9.72623 15.712 9.72623 15.364 9.52055L15.064 9.34916C12.928 8.08082 9.112 6.86961 6.592 6.67536C5.164 6.5611 4 7.58948 4 8.94923V22.7524C4 23.8494 4.936 24.8777 6.088 25.0149L6.436 25.0606C9.04 25.3919 13.06 26.6488 15.364 27.8486L15.412 27.8715C15.736 28.0429 16.252 28.0429 16.564 27.8715C18.868 26.6603 22.9 25.3919 25.516 25.0606L25.912 25.0149C27.064 24.8777 28 23.8494 28 22.7524Z" stroke="#505050" stroke-width="1.5" stroke-linecap="round" stroke-linejoin="round"/>
<path d="M16 10.6667L16 28" stroke="#505050" stroke-width="1.5" stroke-linecap="round" stroke-linejoin="round"/>
<path d="M10.6667 13.3333H8" stroke="#505050" stroke-width="1.5" stroke-linecap="round" stroke-linejoin="round"/>
<path d="M12 17.3333H8" stroke="#505050" stroke-width="1.5" stroke-linecap="round" stroke-linejoin="round"/>
</svg>
