<svg width="930" height="122" viewBox="0 0 930 122" fill="none" xmlns="http://www.w3.org/2000/svg">
<path d="M61.7419 27.4346L35.2025 94.5654" stroke="#AAAAAA" stroke-width="2" stroke-linecap="round"/>
<path d="M8.66284 27.4346L35.2023 94.5654" stroke="#777777" stroke-width="6" stroke-linecap="round"/>
<path d="M89.4371 27.4346L62.8977 94.5654" stroke="#AAAAAA" stroke-width="2" stroke-linecap="round"/>
<path d="M44.358 27.4346L70.8975 94.5654" stroke="black" stroke-width="8" stroke-linecap="round"/>
<path d="M111.337 27.4346L84.7978 94.5654" stroke="#777777" stroke-width="2" stroke-linecap="round"/>
<path d="M74.2582 27.4346L100.798 94.5654" stroke="black" stroke-width="8" stroke-linecap="round"/>
<path d="M130.408 26.917H138.313C139.197 26.917 139.911 27.138 140.455 27.58C140.999 28.022 141.407 28.583 141.679 29.263L162.334 80.824C162.81 81.98 163.235 83.238 163.609 84.598C164.017 85.958 164.408 87.369 164.782 88.831C165.088 87.369 165.411 85.958 165.751 84.598C166.125 83.238 166.55 81.98 167.026 80.824L187.579 29.263C187.817 28.685 188.225 28.158 188.803 27.682C189.381 27.172 190.095 26.917 190.945 26.917H198.901L169.117 100H160.192L130.408 26.917ZM219.932 100H210.038V26.917H219.932V100ZM290.989 84.904C291.533 84.904 292.026 85.125 292.468 85.567L296.344 89.8C293.352 93.268 289.714 95.971 285.43 97.909C281.18 99.847 276.046 100.816 270.028 100.816C264.758 100.816 259.981 99.915 255.697 98.113C251.413 96.277 247.758 93.727 244.732 90.463C241.706 87.165 239.36 83.221 237.694 78.631C236.028 74.041 235.195 68.992 235.195 63.484C235.195 57.976 236.079 52.927 237.847 48.337C239.649 43.747 242.165 39.803 245.395 36.505C248.625 33.207 252.484 30.657 256.972 28.855C261.494 27.019 266.475 26.101 271.915 26.101C277.287 26.101 281.911 26.934 285.787 28.6C289.697 30.266 293.165 32.527 296.191 35.383L292.978 39.922C292.74 40.262 292.468 40.551 292.162 40.789C291.856 40.993 291.414 41.095 290.836 41.095C290.394 41.095 289.918 40.942 289.408 40.636C288.932 40.296 288.354 39.888 287.674 39.412C286.994 38.936 286.195 38.426 285.277 37.882C284.359 37.338 283.271 36.828 282.013 36.352C280.755 35.876 279.293 35.485 277.627 35.179C275.961 34.839 274.04 34.669 271.864 34.669C267.954 34.669 264.367 35.349 261.103 36.709C257.873 38.035 255.085 39.939 252.739 42.421C250.393 44.903 248.557 47.929 247.231 51.499C245.939 55.069 245.293 59.064 245.293 63.484C245.293 68.04 245.939 72.103 247.231 75.673C248.557 79.243 250.342 82.269 252.586 84.751C254.864 87.199 257.55 89.069 260.644 90.361C263.738 91.653 267.07 92.299 270.64 92.299C272.816 92.299 274.771 92.18 276.505 91.942C278.239 91.67 279.837 91.262 281.299 90.718C282.795 90.174 284.172 89.494 285.43 88.678C286.722 87.828 288.014 86.825 289.306 85.669C289.884 85.159 290.445 84.904 290.989 84.904ZM320.169 58.945H323.892C325.184 58.945 326.204 58.792 326.952 58.486C327.734 58.146 328.465 57.585 329.145 56.803L353.472 29.263C354.22 28.413 354.934 27.818 355.614 27.478C356.328 27.104 357.229 26.917 358.317 26.917H366.732L338.886 58.384C338.172 59.166 337.492 59.829 336.846 60.373C336.234 60.917 335.571 61.359 334.857 61.699C335.809 62.005 336.642 62.464 337.356 63.076C338.07 63.688 338.818 64.453 339.6 65.371L368.67 100H360.102C359.456 100 358.912 99.949 358.47 99.847C358.028 99.745 357.637 99.609 357.297 99.439C356.991 99.269 356.702 99.048 356.43 98.776C356.158 98.504 355.886 98.215 355.614 97.909L330.369 68.89C329.995 68.482 329.638 68.142 329.298 67.87C328.992 67.564 328.618 67.309 328.176 67.105C327.768 66.901 327.275 66.765 326.697 66.697C326.153 66.595 325.473 66.544 324.657 66.544H320.169V100H310.326V26.917H320.169V58.945ZM406.885 70.93V100H397.042V70.93L370.267 26.917H378.937C379.821 26.917 380.518 27.138 381.028 27.58C381.538 28.022 381.98 28.566 382.354 29.212L399.082 57.619C399.762 58.809 400.323 59.931 400.765 60.985C401.241 62.039 401.666 63.076 402.04 64.096C402.414 63.042 402.822 61.988 403.264 60.934C403.706 59.88 404.267 58.775 404.947 57.619L421.624 29.212C421.93 28.668 422.338 28.158 422.848 27.682C423.392 27.172 424.089 26.917 424.939 26.917H433.711L406.885 70.93ZM434.722 26.917H442.933C443.817 26.917 444.548 27.138 445.126 27.58C445.704 28.022 446.095 28.583 446.299 29.263L461.395 80.059C461.667 80.977 461.905 81.963 462.109 83.017C462.347 84.071 462.568 85.176 462.772 86.332C463.01 85.176 463.248 84.071 463.486 83.017C463.724 81.929 463.996 80.943 464.302 80.059L481.489 29.263C481.693 28.685 482.084 28.158 482.662 27.682C483.274 27.172 484.005 26.917 484.855 26.917H487.711C488.595 26.917 489.309 27.138 489.853 27.58C490.431 28.022 490.839 28.583 491.077 29.263L508.162 80.059C508.774 81.827 509.318 83.85 509.794 86.128C509.998 85.006 510.185 83.935 510.355 82.915C510.525 81.895 510.746 80.943 511.018 80.059L526.165 29.263C526.335 28.651 526.709 28.107 527.287 27.631C527.899 27.155 528.63 26.917 529.48 26.917H537.181L514.384 100H505.51L486.997 44.257C486.623 43.203 486.283 41.979 485.977 40.585C485.807 41.265 485.637 41.928 485.467 42.574C485.331 43.186 485.178 43.747 485.008 44.257L466.393 100H457.519L434.722 26.917ZM602.122 100H594.472C593.588 100 592.874 99.779 592.33 99.337C591.786 98.895 591.378 98.334 591.106 97.654L584.272 80.008H551.479L544.645 97.654C544.407 98.266 543.999 98.81 543.421 99.286C542.843 99.762 542.129 100 541.279 100H533.629L562.852 26.917H572.899L602.122 100ZM554.233 72.868H581.518L570.043 43.135C569.295 41.299 568.564 39.004 567.85 36.25C567.476 37.644 567.102 38.936 566.728 40.126C566.388 41.282 566.048 42.302 565.708 43.186L554.233 72.868ZM616.421 26.917C617.305 26.917 617.951 27.036 618.359 27.274C618.801 27.478 619.294 27.92 619.838 28.6L662.168 83.68C662.066 82.796 661.998 81.946 661.964 81.13C661.93 80.28 661.913 79.464 661.913 78.682V26.917H670.583V100H665.585C664.803 100 664.14 99.864 663.596 99.592C663.086 99.32 662.576 98.861 662.066 98.215L619.787 43.186C619.855 44.036 619.906 44.869 619.94 45.685C619.974 46.501 619.991 47.249 619.991 47.929V100H611.321V26.917H616.421ZM721.008 92.809C722.98 92.809 724.782 92.724 726.414 92.554C728.08 92.35 729.644 92.061 731.106 91.687C732.568 91.313 733.945 90.871 735.237 90.361C736.529 89.817 737.821 89.205 739.113 88.525V72.409H727.791C727.145 72.409 726.618 72.222 726.21 71.848C725.836 71.474 725.649 71.015 725.649 70.471V64.861H748.089V92.911C746.253 94.237 744.332 95.393 742.326 96.379C740.354 97.365 738.229 98.198 735.951 98.878C733.707 99.524 731.293 100 728.709 100.306C726.125 100.646 723.32 100.816 720.294 100.816C714.99 100.816 710.128 99.915 705.708 98.113C701.288 96.277 697.48 93.727 694.284 90.463C691.088 87.165 688.589 83.221 686.787 78.631C685.019 74.041 684.135 68.992 684.135 63.484C684.135 57.908 685.002 52.825 686.736 48.235C688.504 43.645 691.003 39.718 694.233 36.454C697.497 33.156 701.424 30.606 706.014 28.804C710.638 27.002 715.806 26.101 721.518 26.101C724.408 26.101 727.094 26.322 729.576 26.764C732.058 27.172 734.353 27.784 736.461 28.6C738.603 29.382 740.575 30.351 742.377 31.507C744.179 32.629 745.862 33.904 747.426 35.332L744.621 39.82C744.043 40.738 743.295 41.197 742.377 41.197C741.833 41.197 741.238 41.01 740.592 40.636C739.742 40.16 738.79 39.582 737.736 38.902C736.682 38.222 735.39 37.576 733.86 36.964C732.364 36.318 730.579 35.774 728.505 35.332C726.465 34.89 724.034 34.669 721.212 34.669C717.098 34.669 713.375 35.349 710.043 36.709C706.711 38.035 703.872 39.956 701.526 42.472C699.18 44.954 697.378 47.98 696.12 51.55C694.862 55.086 694.233 59.064 694.233 63.484C694.233 68.108 694.879 72.239 696.171 75.877C697.497 79.481 699.35 82.541 701.73 85.057C704.11 87.573 706.932 89.494 710.196 90.82C713.46 92.146 717.064 92.809 721.008 92.809ZM758.939 94.39C758.939 93.506 759.092 92.673 759.398 91.891C759.738 91.109 760.18 90.429 760.724 89.851C761.302 89.273 761.982 88.814 762.764 88.474C763.546 88.134 764.379 87.964 765.263 87.964C766.147 87.964 766.98 88.134 767.762 88.474C768.544 88.814 769.224 89.273 769.802 89.851C770.38 90.429 770.822 91.109 771.128 91.891C771.468 92.673 771.638 93.506 771.638 94.39C771.638 95.308 771.468 96.158 771.128 96.94C770.822 97.688 770.38 98.351 769.802 98.929C769.224 99.507 768.544 99.949 767.762 100.255C766.98 100.595 766.147 100.765 765.263 100.765C764.379 100.765 763.546 100.595 762.764 100.255C761.982 99.949 761.302 99.507 760.724 98.929C760.18 98.351 759.738 97.688 759.398 96.94C759.092 96.158 758.939 95.308 758.939 94.39ZM820.895 73.582C821.371 74.398 821.779 75.265 822.119 76.183C822.493 77.067 822.85 77.968 823.19 78.886C823.53 77.934 823.887 77.033 824.261 76.183C824.635 75.299 825.06 74.415 825.536 73.531L850.271 28.6C850.713 27.818 851.172 27.342 851.648 27.172C852.124 27.002 852.804 26.917 853.688 26.917H860.981V100H852.311V46.297C852.311 45.583 852.328 44.818 852.362 44.002C852.396 43.186 852.447 42.353 852.515 41.503L827.474 87.199C826.624 88.729 825.434 89.494 823.904 89.494H822.476C820.946 89.494 819.756 88.729 818.906 87.199L793.304 41.35C793.406 42.234 793.474 43.101 793.508 43.951C793.576 44.801 793.61 45.583 793.61 46.297V100H784.94V26.917H792.233C793.117 26.917 793.797 27.002 794.273 27.172C794.749 27.342 795.208 27.818 795.65 28.6L820.895 73.582ZM923.805 26.917V34.975H888.717V59.251H917.124V67.003H888.717V91.942H923.805V100H878.772V26.917H923.805Z" fill="#292929"/>
</svg>
