<svg width="32" height="32" viewBox="0 0 32 32" fill="none" xmlns="http://www.w3.org/2000/svg">
<g id="Profile">
<g id="Profile_2">
<path id="Profile_3" fill-rule="evenodd" clip-rule="evenodd" d="M16.0057 1.86663C11.6487 1.86663 8.12236 5.41286 8.12236 9.78019C8.12236 14.1475 11.6487 17.6938 16.0057 17.6938C20.3628 17.6938 23.8891 14.1475 23.8891 9.78019C23.8891 5.41286 20.3628 1.86663 16.0057 1.86663ZM9.72236 9.78019C9.72236 6.29009 12.5387 3.46663 16.0057 3.46663C19.4727 3.46663 22.2891 6.29009 22.2891 9.78019C22.2891 13.2703 19.4727 16.0938 16.0057 16.0938C12.5387 16.0938 9.72236 13.2703 9.72236 9.78019ZM18.9632 18.9643L18.9618 18.9641C16.9929 18.7906 15.0127 18.7904 13.0439 18.9636C11.9723 19.0384 10.8902 19.1913 9.82319 19.4199C7.7568 19.846 5.84754 20.7413 5.00017 22.4433L5.0001 22.4432L4.99515 22.4536C4.68741 23.0944 4.53104 23.7845 4.53336 24.4846C4.53274 25.1772 4.68685 25.8656 4.98404 26.4952L4.98401 26.4952L4.98729 26.502C5.80003 28.1825 7.51267 29.0285 9.50146 29.4704L9.50145 29.4704L9.51156 29.4725L9.8465 29.5424C10.8702 29.7731 11.9348 29.9296 13.0064 30.0057C13.1926 30.0444 13.434 30.0641 13.6231 30.0738L13.6231 30.0739L13.634 30.0743L13.8263 30.0815L13.8263 30.0816L13.8378 30.0818C13.9419 30.0843 14.0565 30.0849 14.2128 30.0849C15.759 30.1689 17.3593 30.1437 18.9513 30.0085C19.816 29.9491 20.6857 29.8359 21.5478 29.6704L21.5478 29.6705L21.5596 29.6681L22.1789 29.5395C24.3027 29.1199 26.1717 28.2751 27.0143 26.498L27.0145 26.4976C27.6173 25.2245 27.6173 23.7473 27.0147 22.4746L27.0145 22.4742C26.1737 20.7009 24.3238 19.8626 22.1687 19.4182C21.3188 19.2369 20.4554 19.1027 19.586 19.017L19.5861 19.017L19.575 19.016L18.9632 18.9643ZM13.177 20.5581C15.0553 20.3924 16.9444 20.3924 18.8226 20.5581L18.8255 20.5583L19.4346 20.6099C20.2438 20.6898 21.0471 20.8148 21.8375 20.9836L21.8374 20.9836L21.8431 20.9847C23.8741 21.4031 25.0638 22.0951 25.5686 23.1593C25.966 23.9985 25.966 24.9731 25.5684 25.8129C25.0621 26.8802 23.8528 27.5784 21.8653 27.9705L21.8653 27.9705L21.8575 27.9721L21.2403 28.1003C20.4408 28.2535 19.6351 28.358 18.8354 28.4127L18.8354 28.4126L18.8222 28.4137C17.293 28.5439 15.7576 28.5675 14.2786 28.4861L14.2567 28.4849H14.2347C14.0712 28.4849 13.968 28.4844 13.8803 28.4824L13.6995 28.4756C13.5988 28.4704 13.5061 28.4626 13.4332 28.4542C13.3961 28.4499 13.3681 28.4458 13.3492 28.4426L13.3386 28.4407L13.2672 28.4198L13.1802 28.4139C12.1651 28.3449 11.1574 28.198 10.1922 27.9802L10.1923 27.9801L10.1796 27.9775L9.84354 27.9074C8.02812 27.5032 6.92182 26.8236 6.42932 25.8088C6.23368 25.393 6.13275 24.939 6.13337 24.4847L6.13335 24.4806C6.13165 24.0261 6.23213 23.5758 6.43498 23.1513C6.94784 22.1272 8.22889 21.3819 10.1491 20.9863L10.1491 20.9863L10.1554 20.985C11.1526 20.7713 12.1633 20.6286 13.1621 20.5593L13.1696 20.5587L13.177 20.5581Z" fill="#505050"/>
</g>
</g>
</svg>
