<svg width="32" height="32" viewBox="0 0 32 32" fill="none" xmlns="http://www.w3.org/2000/svg">
<path d="M8.6251 20.2949V6.68765C8.6251 5.48098 9.59792 4.5 10.794 4.5H24.8313C26.0273 4.5 27 5.48098 27 6.68765V13.3153V13.3165V24.0598C27 25.152 26.6818 26.0048 26.0543 26.5934C25.4066 27.2013 24.481 27.4996 23.2382 27.4996M8.6251 20.2949H5.80637C5.36101 20.2949 5 20.6589 5 21.1081V22.5538C5 24.966 6.83146 27.5574 9.68002 27.478L23.2382 27.4996M8.6251 20.2949H19.7258C19.9467 20.2949 20.1258 20.474 20.1258 20.6949V23.8589C20.2198 24.8853 20.9461 27.5389 23.2382 27.4996" stroke="#505050" stroke-width="1.5"/>
<path d="M22.5 14.5H12.5C12.2239 14.5 12 14.7239 12 15C12 15.2761 12.2239 15.5 12.5 15.5H22.5C22.7761 15.5 23 15.2761 23 15C23 14.7239 22.7761 14.5 22.5 14.5Z" fill="#505050" stroke="#505050" stroke-width="0.3"/>
<path d="M22.5 12.5H12.5C12.2239 12.5 12 12.7239 12 13C12 13.2761 12.2239 13.5 12.5 13.5H22.5C22.7761 13.5 23 13.2761 23 13C23 12.7239 22.7761 12.5 22.5 12.5Z" fill="#505050" stroke="#505050" stroke-width="0.3"/>
<path d="M22.5 10.5H12.5C12.2239 10.5 12 10.7239 12 11C12 11.2761 12.2239 11.5 12.5 11.5H22.5C22.7761 11.5 23 11.2761 23 11C23 10.7239 22.7761 10.5 22.5 10.5Z" fill="#505050" stroke="#505050" stroke-width="0.3"/>
</svg>
