<svg width="32" height="32" viewBox="0 0 32 32" fill="none" xmlns="http://www.w3.org/2000/svg">
<path d="M7.84267 19.9805H8.34267V19.4805V6.38403C8.34267 5.41408 9.13193 4.625 10.1013 4.625H25.674C26.6433 4.625 27.4324 5.41403 27.4324 6.38403V13.2164C27.4323 13.2204 27.4323 13.2245 27.4323 13.2285C27.4323 13.2326 27.4323 13.2367 27.4324 13.2407V24.323C27.4324 25.351 27.1333 26.0836 26.6071 26.5732L26.607 26.5733C26.0565 27.0855 25.2338 27.375 24.0151 27.375C23.8308 27.375 23.6388 27.3685 23.4374 27.3552C23.418 27.35 23.3941 27.3448 23.3668 27.3411L23.3092 27.3333L23.2514 27.339C23.2179 27.3423 23.1895 27.3479 23.1691 27.3527H8.94123C8.89541 27.3527 8.85188 27.3438 8.81079 27.3272L8.74073 27.2988L8.66544 27.2924C8.65004 27.2911 8.64129 27.2904 8.6329 27.2895L8.62462 27.2886C8.62273 27.2883 8.62191 27.2882 8.62195 27.2882L8.61772 27.2875C6.25068 26.9098 4.56763 24.994 4.56763 22.7678V20.3202C4.56763 20.1326 4.71966 19.9805 4.90735 19.9805H7.84267ZM5.74708 20.6599H5.24708L8.72193 26.6163C8.72237 26.6164 8.7228 26.6164 8.72324 26.6165C8.75504 26.6219 8.77911 26.629 8.79717 26.6364L8.88787 26.6733H8.98581H20.8461H21.7799L21.2622 25.8962C20.9483 25.4249 20.7148 24.7566 20.6205 23.763L20.6177 21.1593L20.6171 20.6599H20.1177H5.74708ZM26.1446 26.0757L25.804 25.7096L26.1446 26.0757C26.5944 25.6573 26.7531 25.0356 26.7531 24.323V13.2406C26.7532 13.2366 26.7532 13.2326 26.7532 13.2285C26.7532 13.2245 26.7532 13.2205 26.7531 13.2165V6.38403C26.7531 5.78874 26.2704 5.30438 25.674 5.30438H10.1013C9.50483 5.30438 9.02212 5.78874 9.02212 6.38403V19.4805V19.9805H9.52212H20.9562C21.1439 19.9805 21.2959 20.1326 21.2959 20.3202V23.7094V23.7329L21.2982 23.7564C21.3821 24.6454 21.5849 25.2693 21.9676 25.7139C22.3491 26.157 22.8512 26.3494 23.3275 26.5083L23.3287 26.5087C23.3543 26.5172 23.3872 26.5344 23.4315 26.5703L23.5608 26.6751L23.7271 26.6816C24.7148 26.7197 25.6115 26.5716 26.1446 26.0757ZM27.468 13.0427C27.4681 13.0425 27.4681 13.0425 27.4681 13.0426L27.4681 13.0426L27.468 13.0427Z" fill="#505050" stroke="#505050"/>
<path d="M12.9348 13.0066H22.8283C22.8833 13.0066 22.9279 13.0512 22.9279 13.1062C22.9279 13.1612 22.8833 13.2058 22.8283 13.2058H12.9348C12.8798 13.2058 12.8352 13.1612 12.8352 13.1062C12.8352 13.0512 12.8798 13.0066 12.9348 13.0066Z" fill="#505050" stroke="#505050"/>
<path d="M12.9348 15.2258H22.8283C22.8833 15.2258 22.9279 15.2704 22.9279 15.3254C22.9279 15.3804 22.8833 15.425 22.8283 15.425H12.9348C12.8798 15.425 12.8352 15.3804 12.8352 15.3254C12.8352 15.2704 12.8798 15.2258 12.9348 15.2258Z" fill="#505050" stroke="#505050"/>
<path d="M12.9348 10.7885H22.8283C22.8833 10.7885 22.9279 10.8331 22.9279 10.8881C22.9279 10.9431 22.8833 10.9877 22.8283 10.9877H12.9348C12.8798 10.9877 12.8352 10.9431 12.8352 10.8881C12.8352 10.8331 12.8798 10.7885 12.9348 10.7885Z" fill="#505050" stroke="#505050"/>
</svg>
