<svg width="32" height="32" viewBox="0 0 32 32" fill="none" xmlns="http://www.w3.org/2000/svg">
<path d="M7.4563 20.1454H7.95631V19.6454V5.92853C7.95631 4.89956 8.79355 4.0625 9.82188 4.0625H26.1322C27.1605 4.0625 27.9977 4.89952 27.9977 5.92853V13.0849C27.9976 13.089 27.9975 13.0931 27.9975 13.0973C27.9975 13.1014 27.9976 13.1056 27.9977 13.1096V24.7173C27.9977 25.7987 27.6829 26.573 27.1257 27.0914L27.1256 27.0914C26.5432 27.6334 25.6748 27.9375 24.3947 27.9375C24.2005 27.9375 23.9981 27.9306 23.7858 27.9166C23.7659 27.9112 23.7411 27.9056 23.7126 27.9018L23.6551 27.894L23.5973 27.8997C23.562 27.9031 23.5324 27.9092 23.5114 27.9142H8.6069C8.55575 27.9142 8.50716 27.9042 8.46139 27.8857L8.39134 27.8573L8.31604 27.851L8.31398 27.8508C8.29917 27.8495 8.29019 27.8488 8.28152 27.8479C8.27314 27.847 8.26945 27.8464 8.26857 27.8463L8.26433 27.8456C5.77459 27.4483 4.00244 25.4326 4.00244 23.0884V20.5248C4.00244 20.3153 4.17228 20.1454 4.38194 20.1454H7.4563ZM5.26144 20.9043H4.76144V21.4043V23.0884C4.76144 25.1019 6.31387 26.7656 8.38217 27.096C8.41711 27.1018 8.44415 27.1098 8.46496 27.1183L8.55565 27.1552H8.65359H21.0757H22.0095L21.4918 26.3781C21.1601 25.8801 20.9147 25.1757 20.8158 24.1319L20.8127 21.4038L20.8122 20.9043H20.3127H5.26144ZM26.609 26.5356L26.2685 26.1696L26.609 26.5356C27.0731 26.1039 27.2388 25.4607 27.2388 24.7173V13.1096C27.2389 13.1056 27.239 13.1014 27.239 13.0973C27.239 13.0931 27.2389 13.089 27.2388 13.0849V5.92853C27.2388 5.3181 26.7438 4.82143 26.1322 4.82143H9.82188C9.2103 4.82143 8.71531 5.3181 8.71531 5.92853V19.6454V20.1454H9.21531H21.191C21.4007 20.1454 21.5705 20.3153 21.5705 20.5248V24.0746V24.0981L21.5727 24.1216C21.6605 25.0506 21.8721 25.6984 22.2683 26.1586C22.6632 26.6173 23.1834 26.8172 23.6821 26.9836L23.6833 26.984C23.7136 26.994 23.7506 27.0137 23.7985 27.0526L23.9278 27.1574L24.0941 27.1639C25.1274 27.2038 26.0581 27.0482 26.609 26.5356ZM28.0333 12.9113L28.0333 12.9113L28.0333 12.9113Z" fill="#505050" stroke="#505050"/>
<path d="M12.7896 12.8411H23.1517C23.2224 12.8411 23.2797 12.8984 23.2797 12.9691C23.2797 13.0398 23.2224 13.0971 23.1517 13.0971H12.7896C12.7189 13.0971 12.6616 13.0398 12.6616 12.9691C12.6616 12.8984 12.7189 12.8411 12.7896 12.8411Z" fill="#505050" stroke="#505050"/>
<path d="M12.7896 15.1655H23.1517C23.2224 15.1655 23.2797 15.2228 23.2797 15.2935C23.2797 15.3642 23.2224 15.4215 23.1517 15.4215H12.7896C12.7189 15.4215 12.6616 15.3642 12.6616 15.2935C12.6616 15.2228 12.7189 15.1655 12.7896 15.1655Z" fill="#505050" stroke="#505050"/>
<path d="M12.7896 10.5179H23.1517C23.2224 10.5179 23.2797 10.5753 23.2797 10.646C23.2797 10.7166 23.2224 10.774 23.1517 10.774H12.7896C12.7189 10.774 12.6616 10.7166 12.6616 10.646C12.6616 10.5753 12.7189 10.5179 12.7896 10.5179Z" fill="#505050" stroke="#505050"/>
</svg>
