<svg width="1512" height="900" viewBox="0 0 1512 900" fill="none" xmlns="http://www.w3.org/2000/svg">
<g clip-path="url(#clip0_1333_1030)">
<path d="M0 16C0 7.16346 7.16344 0 16 0H1496C1504.84 0 1512 7.16344 1512 16V900H0V16Z" fill="#F5F5F5"/>
<rect width="1512" height="900" fill="#F5F5F5"/>
<g filter="url(#filter0_d_1333_1030)">
<path d="M160 66C160 57.1634 167.163 50 176 50H424C432.837 50 440 57.1634 440 66V330H160V66Z" fill="white" shape-rendering="crispEdges"/>
<path d="M191.375 66.3409C191.254 65.2652 190.754 64.4318 189.875 63.8409C188.996 63.2424 187.89 62.9432 186.557 62.9432C185.602 62.9432 184.777 63.0947 184.08 63.3977C183.383 63.6932 182.841 64.1023 182.455 64.625C182.076 65.1402 181.886 65.7273 181.886 66.3864C181.886 66.9394 182.015 67.4167 182.273 67.8182C182.538 68.2197 182.883 68.5568 183.307 68.8295C183.739 69.0947 184.201 69.3182 184.693 69.5C185.186 69.6742 185.659 69.8182 186.114 69.9318L188.386 70.5227C189.129 70.7045 189.89 70.9508 190.67 71.2614C191.451 71.572 192.174 71.9811 192.841 72.4886C193.508 72.9962 194.045 73.625 194.455 74.375C194.871 75.125 195.08 76.0227 195.08 77.0682C195.08 78.3864 194.739 79.5568 194.057 80.5795C193.383 81.6023 192.402 82.4091 191.114 83C189.833 83.5909 188.284 83.8864 186.466 83.8864C184.723 83.8864 183.216 83.6098 181.943 83.0568C180.67 82.5038 179.674 81.7197 178.955 80.7045C178.235 79.6818 177.837 78.4697 177.761 77.0682H181.284C181.352 77.9091 181.625 78.6098 182.102 79.1705C182.587 79.7235 183.205 80.1364 183.955 80.4091C184.712 80.6742 185.542 80.8068 186.443 80.8068C187.436 80.8068 188.318 80.6515 189.091 80.3409C189.871 80.0227 190.485 79.5833 190.932 79.0227C191.379 78.4545 191.602 77.7917 191.602 77.0341C191.602 76.3447 191.405 75.7803 191.011 75.3409C190.625 74.9015 190.098 74.5379 189.432 74.25C188.773 73.9621 188.027 73.7083 187.193 73.4886L184.443 72.7386C182.58 72.2311 181.102 71.4848 180.011 70.5C178.928 69.5152 178.386 68.2121 178.386 66.5909C178.386 65.25 178.75 64.0795 179.477 63.0795C180.205 62.0795 181.189 61.303 182.432 60.75C183.674 60.1894 185.076 59.9091 186.636 59.9091C188.212 59.9091 189.602 60.1856 190.807 60.7386C192.019 61.2917 192.973 62.053 193.67 63.0227C194.367 63.9848 194.731 65.0909 194.761 66.3409H191.375ZM210.06 76.2614V66.0455H213.469V83.5H210.128V80.4773H209.946C209.545 81.4091 208.901 82.1856 208.014 82.8068C207.135 83.4205 206.041 83.7273 204.73 83.7273C203.609 83.7273 202.616 83.4811 201.753 82.9886C200.897 82.4886 200.223 81.75 199.73 80.7727C199.245 79.7955 199.003 78.5871 199.003 77.1477V66.0455H202.401V76.7386C202.401 77.928 202.73 78.875 203.389 79.5795C204.048 80.2841 204.904 80.6364 205.957 80.6364C206.594 80.6364 207.226 80.4773 207.855 80.1591C208.491 79.8409 209.018 79.3598 209.435 78.7159C209.859 78.072 210.067 77.2538 210.06 76.2614ZM218.307 83.5V60.2273H221.705V68.875H221.909C222.106 68.5114 222.39 68.0909 222.761 67.6136C223.133 67.1364 223.648 66.7197 224.307 66.3636C224.966 66 225.837 65.8182 226.92 65.8182C228.33 65.8182 229.587 66.1742 230.693 66.8864C231.799 67.5985 232.667 68.625 233.295 69.9659C233.932 71.3068 234.25 72.9205 234.25 74.8068C234.25 76.6932 233.936 78.3106 233.307 79.6591C232.678 81 231.814 82.0341 230.716 82.7614C229.617 83.4811 228.364 83.8409 226.955 83.8409C225.894 83.8409 225.027 83.6629 224.352 83.3068C223.686 82.9508 223.163 82.5341 222.784 82.0568C222.405 81.5795 222.114 81.1553 221.909 80.7841H221.625V83.5H218.307ZM221.636 74.7727C221.636 76 221.814 77.0758 222.17 78C222.527 78.9242 223.042 79.6477 223.716 80.1705C224.39 80.6856 225.216 80.9432 226.193 80.9432C227.208 80.9432 228.057 80.6742 228.739 80.1364C229.42 79.5909 229.936 78.8523 230.284 77.9205C230.64 76.9886 230.818 75.9394 230.818 74.7727C230.818 73.6212 230.644 72.5871 230.295 71.6705C229.955 70.7538 229.439 70.0303 228.75 69.5C228.068 68.9697 227.216 68.7045 226.193 68.7045C225.208 68.7045 224.375 68.9583 223.693 69.4659C223.019 69.9735 222.508 70.6818 222.159 71.5909C221.811 72.5 221.636 73.5606 221.636 74.7727ZM265.591 60.2273V83.5H262.364L250.534 66.4318H250.318V83.5H246.807V60.2273H250.057L261.898 77.3182H262.114V60.2273H265.591ZM275.52 83.8864C274.414 83.8864 273.414 83.6818 272.52 83.2727C271.626 82.8561 270.918 82.2538 270.395 81.4659C269.88 80.678 269.622 79.7121 269.622 78.5682C269.622 77.5833 269.812 76.7727 270.19 76.1364C270.569 75.5 271.08 74.9962 271.724 74.625C272.368 74.2538 273.088 73.9735 273.884 73.7841C274.679 73.5947 275.49 73.4508 276.315 73.3523C277.361 73.2311 278.209 73.1326 278.861 73.0568C279.512 72.9735 279.986 72.8409 280.281 72.6591C280.577 72.4773 280.724 72.1818 280.724 71.7727V71.6932C280.724 70.7008 280.444 69.9318 279.884 69.3864C279.33 68.8409 278.505 68.5682 277.406 68.5682C276.262 68.5682 275.361 68.822 274.702 69.3295C274.05 69.8295 273.599 70.3864 273.349 71L270.156 70.2727C270.535 69.2121 271.088 68.3561 271.815 67.7045C272.55 67.0455 273.395 66.5682 274.349 66.2727C275.304 65.9697 276.308 65.8182 277.361 65.8182C278.058 65.8182 278.796 65.9015 279.577 66.0682C280.365 66.2273 281.099 66.5227 281.781 66.9545C282.471 67.3864 283.035 68.0038 283.474 68.8068C283.914 69.6023 284.134 70.6364 284.134 71.9091V83.5H280.815V81.1136H280.679C280.459 81.553 280.13 81.9848 279.69 82.4091C279.251 82.8333 278.687 83.1856 277.997 83.4659C277.308 83.7462 276.482 83.8864 275.52 83.8864ZM276.259 81.1591C277.198 81.1591 278.001 80.9735 278.668 80.6023C279.342 80.2311 279.853 79.7462 280.202 79.1477C280.558 78.5417 280.736 77.8939 280.736 77.2045V74.9545C280.615 75.0758 280.38 75.1894 280.031 75.2955C279.69 75.3939 279.3 75.4811 278.861 75.5568C278.421 75.625 277.993 75.6894 277.577 75.75C277.16 75.803 276.812 75.8485 276.531 75.8864C275.872 75.9697 275.27 76.1098 274.724 76.3068C274.187 76.5038 273.755 76.7879 273.429 77.1591C273.111 77.5227 272.952 78.0076 272.952 78.6136C272.952 79.4545 273.262 80.0909 273.884 80.5227C274.505 80.947 275.296 81.1591 276.259 81.1591ZM302.966 66.0455L296.636 83.5H293L286.659 66.0455H290.307L294.727 79.4773H294.909L299.318 66.0455H302.966Z" fill="#292929"/>
<path d="M200.009 138.227C199.092 138.227 198.255 138.004 197.497 137.557C196.74 137.102 196.134 136.496 195.679 135.739C195.232 134.981 195.009 134.144 195.009 133.227C195.009 132.303 195.232 131.466 195.679 130.716C196.134 129.958 196.74 129.356 197.497 128.909C198.255 128.455 199.092 128.227 200.009 128.227C200.933 128.227 201.77 128.455 202.52 128.909C203.277 129.356 203.88 129.958 204.327 130.716C204.781 131.466 205.009 132.303 205.009 133.227C205.009 134.144 204.781 134.981 204.327 135.739C203.88 136.496 203.277 137.102 202.52 137.557C201.77 138.004 200.933 138.227 200.009 138.227ZM229.682 119.227V142.5H226.284V119.227H229.682ZM234.253 142.5V125.045H237.651V142.5H234.253ZM235.969 122.352C235.378 122.352 234.87 122.155 234.446 121.761C234.029 121.36 233.821 120.883 233.821 120.33C233.821 119.769 234.029 119.292 234.446 118.898C234.87 118.496 235.378 118.295 235.969 118.295C236.56 118.295 237.063 118.496 237.48 118.898C237.904 119.292 238.116 119.769 238.116 120.33C238.116 120.883 237.904 121.36 237.48 121.761C237.063 122.155 236.56 122.352 235.969 122.352ZM255.301 129.307L252.222 129.852C252.093 129.458 251.888 129.083 251.608 128.727C251.335 128.371 250.964 128.08 250.494 127.852C250.025 127.625 249.438 127.511 248.733 127.511C247.771 127.511 246.968 127.727 246.324 128.159C245.68 128.583 245.358 129.133 245.358 129.807C245.358 130.39 245.574 130.86 246.006 131.216C246.438 131.572 247.134 131.864 248.097 132.091L250.869 132.727C252.475 133.098 253.672 133.67 254.46 134.443C255.248 135.216 255.642 136.22 255.642 137.455C255.642 138.5 255.339 139.432 254.733 140.25C254.134 141.061 253.297 141.697 252.222 142.159C251.153 142.621 249.915 142.852 248.506 142.852C246.551 142.852 244.956 142.436 243.722 141.602C242.487 140.761 241.729 139.568 241.449 138.023L244.733 137.523C244.938 138.379 245.358 139.027 245.994 139.466C246.631 139.898 247.46 140.114 248.483 140.114C249.597 140.114 250.487 139.883 251.153 139.42C251.82 138.951 252.153 138.379 252.153 137.705C252.153 137.159 251.949 136.701 251.54 136.33C251.138 135.958 250.521 135.678 249.688 135.489L246.733 134.841C245.104 134.47 243.9 133.879 243.119 133.068C242.347 132.258 241.96 131.231 241.96 129.989C241.96 128.958 242.248 128.057 242.824 127.284C243.4 126.511 244.195 125.909 245.21 125.477C246.225 125.038 247.388 124.818 248.699 124.818C250.585 124.818 252.07 125.227 253.153 126.045C254.237 126.856 254.953 127.943 255.301 129.307ZM267.526 125.045V127.773H257.991V125.045H267.526ZM260.548 120.864H263.946V137.375C263.946 138.034 264.045 138.53 264.241 138.864C264.438 139.189 264.692 139.413 265.003 139.534C265.321 139.648 265.666 139.705 266.037 139.705C266.31 139.705 266.548 139.686 266.753 139.648C266.957 139.61 267.116 139.58 267.23 139.557L267.844 142.364C267.647 142.439 267.366 142.515 267.003 142.591C266.639 142.674 266.185 142.72 265.639 142.727C264.745 142.742 263.912 142.583 263.139 142.25C262.366 141.917 261.741 141.402 261.264 140.705C260.787 140.008 260.548 139.133 260.548 138.08V120.864Z" fill="#292929"/>
<path d="M200.009 197.227C199.092 197.227 198.255 197.004 197.497 196.557C196.74 196.102 196.134 195.496 195.679 194.739C195.232 193.981 195.009 193.144 195.009 192.227C195.009 191.303 195.232 190.466 195.679 189.716C196.134 188.958 196.74 188.356 197.497 187.909C198.255 187.455 199.092 187.227 200.009 187.227C200.933 187.227 201.77 187.455 202.52 187.909C203.277 188.356 203.88 188.958 204.327 189.716C204.781 190.466 205.009 191.303 205.009 192.227C205.009 193.144 204.781 193.981 204.327 194.739C203.88 195.496 203.277 196.102 202.52 196.557C201.77 197.004 200.933 197.227 200.009 197.227ZM229.682 178.227V201.5H226.284V178.227H229.682ZM234.253 201.5V184.045H237.651V201.5H234.253ZM235.969 181.352C235.378 181.352 234.87 181.155 234.446 180.761C234.029 180.36 233.821 179.883 233.821 179.33C233.821 178.769 234.029 178.292 234.446 177.898C234.87 177.496 235.378 177.295 235.969 177.295C236.56 177.295 237.063 177.496 237.48 177.898C237.904 178.292 238.116 178.769 238.116 179.33C238.116 179.883 237.904 180.36 237.48 180.761C237.063 181.155 236.56 181.352 235.969 181.352ZM255.301 188.307L252.222 188.852C252.093 188.458 251.888 188.083 251.608 187.727C251.335 187.371 250.964 187.08 250.494 186.852C250.025 186.625 249.438 186.511 248.733 186.511C247.771 186.511 246.968 186.727 246.324 187.159C245.68 187.583 245.358 188.133 245.358 188.807C245.358 189.39 245.574 189.86 246.006 190.216C246.438 190.572 247.134 190.864 248.097 191.091L250.869 191.727C252.475 192.098 253.672 192.67 254.46 193.443C255.248 194.216 255.642 195.22 255.642 196.455C255.642 197.5 255.339 198.432 254.733 199.25C254.134 200.061 253.297 200.697 252.222 201.159C251.153 201.621 249.915 201.852 248.506 201.852C246.551 201.852 244.956 201.436 243.722 200.602C242.487 199.761 241.729 198.568 241.449 197.023L244.733 196.523C244.938 197.379 245.358 198.027 245.994 198.466C246.631 198.898 247.46 199.114 248.483 199.114C249.597 199.114 250.487 198.883 251.153 198.42C251.82 197.951 252.153 197.379 252.153 196.705C252.153 196.159 251.949 195.701 251.54 195.33C251.138 194.958 250.521 194.678 249.688 194.489L246.733 193.841C245.104 193.47 243.9 192.879 243.119 192.068C242.347 191.258 241.96 190.231 241.96 188.989C241.96 187.958 242.248 187.057 242.824 186.284C243.4 185.511 244.195 184.909 245.21 184.477C246.225 184.038 247.388 183.818 248.699 183.818C250.585 183.818 252.07 184.227 253.153 185.045C254.237 185.856 254.953 186.943 255.301 188.307ZM267.526 184.045V186.773H257.991V184.045H267.526ZM260.548 179.864H263.946V196.375C263.946 197.034 264.045 197.53 264.241 197.864C264.438 198.189 264.692 198.413 265.003 198.534C265.321 198.648 265.666 198.705 266.037 198.705C266.31 198.705 266.548 198.686 266.753 198.648C266.957 198.61 267.116 198.58 267.23 198.557L267.844 201.364C267.647 201.439 267.366 201.515 267.003 201.591C266.639 201.674 266.185 201.72 265.639 201.727C264.745 201.742 263.912 201.583 263.139 201.25C262.366 200.917 261.741 200.402 261.264 199.705C260.787 199.008 260.548 198.133 260.548 197.08V179.864Z" fill="#292929"/>
<path d="M200.009 256.227C199.092 256.227 198.255 256.004 197.497 255.557C196.74 255.102 196.134 254.496 195.679 253.739C195.232 252.981 195.009 252.144 195.009 251.227C195.009 250.303 195.232 249.466 195.679 248.716C196.134 247.958 196.74 247.356 197.497 246.909C198.255 246.455 199.092 246.227 200.009 246.227C200.933 246.227 201.77 246.455 202.52 246.909C203.277 247.356 203.88 247.958 204.327 248.716C204.781 249.466 205.009 250.303 205.009 251.227C205.009 252.144 204.781 252.981 204.327 253.739C203.88 254.496 203.277 255.102 202.52 255.557C201.77 256.004 200.933 256.227 200.009 256.227ZM229.682 237.227V260.5H226.284V237.227H229.682ZM234.253 260.5V243.045H237.651V260.5H234.253ZM235.969 240.352C235.378 240.352 234.87 240.155 234.446 239.761C234.029 239.36 233.821 238.883 233.821 238.33C233.821 237.769 234.029 237.292 234.446 236.898C234.87 236.496 235.378 236.295 235.969 236.295C236.56 236.295 237.063 236.496 237.48 236.898C237.904 237.292 238.116 237.769 238.116 238.33C238.116 238.883 237.904 239.36 237.48 239.761C237.063 240.155 236.56 240.352 235.969 240.352ZM255.301 247.307L252.222 247.852C252.093 247.458 251.888 247.083 251.608 246.727C251.335 246.371 250.964 246.08 250.494 245.852C250.025 245.625 249.438 245.511 248.733 245.511C247.771 245.511 246.968 245.727 246.324 246.159C245.68 246.583 245.358 247.133 245.358 247.807C245.358 248.39 245.574 248.86 246.006 249.216C246.438 249.572 247.134 249.864 248.097 250.091L250.869 250.727C252.475 251.098 253.672 251.67 254.46 252.443C255.248 253.216 255.642 254.22 255.642 255.455C255.642 256.5 255.339 257.432 254.733 258.25C254.134 259.061 253.297 259.697 252.222 260.159C251.153 260.621 249.915 260.852 248.506 260.852C246.551 260.852 244.956 260.436 243.722 259.602C242.487 258.761 241.729 257.568 241.449 256.023L244.733 255.523C244.938 256.379 245.358 257.027 245.994 257.466C246.631 257.898 247.46 258.114 248.483 258.114C249.597 258.114 250.487 257.883 251.153 257.42C251.82 256.951 252.153 256.379 252.153 255.705C252.153 255.159 251.949 254.701 251.54 254.33C251.138 253.958 250.521 253.678 249.688 253.489L246.733 252.841C245.104 252.47 243.9 251.879 243.119 251.068C242.347 250.258 241.96 249.231 241.96 247.989C241.96 246.958 242.248 246.057 242.824 245.284C243.4 244.511 244.195 243.909 245.21 243.477C246.225 243.038 247.388 242.818 248.699 242.818C250.585 242.818 252.07 243.227 253.153 244.045C254.237 244.856 254.953 245.943 255.301 247.307ZM267.526 243.045V245.773H257.991V243.045H267.526ZM260.548 238.864H263.946V255.375C263.946 256.034 264.045 256.53 264.241 256.864C264.438 257.189 264.692 257.413 265.003 257.534C265.321 257.648 265.666 257.705 266.037 257.705C266.31 257.705 266.548 257.686 266.753 257.648C266.957 257.61 267.116 257.58 267.23 257.557L267.844 260.364C267.647 260.439 267.366 260.515 267.003 260.591C266.639 260.674 266.185 260.72 265.639 260.727C264.745 260.742 263.912 260.583 263.139 260.25C262.366 259.917 261.741 259.402 261.264 258.705C260.787 258.008 260.548 257.133 260.548 256.08V238.864Z" fill="#292929"/>
<path d="M200.009 315.227C199.092 315.227 198.255 315.004 197.497 314.557C196.74 314.102 196.134 313.496 195.679 312.739C195.232 311.981 195.009 311.144 195.009 310.227C195.009 309.303 195.232 308.466 195.679 307.716C196.134 306.958 196.74 306.356 197.497 305.909C198.255 305.455 199.092 305.227 200.009 305.227C200.933 305.227 201.77 305.455 202.52 305.909C203.277 306.356 203.88 306.958 204.327 307.716C204.781 308.466 205.009 309.303 205.009 310.227C205.009 311.144 204.781 311.981 204.327 312.739C203.88 313.496 203.277 314.102 202.52 314.557C201.77 315.004 200.933 315.227 200.009 315.227ZM229.682 296.227V319.5H226.284V296.227H229.682ZM234.253 319.5V302.045H237.651V319.5H234.253ZM235.969 299.352C235.378 299.352 234.87 299.155 234.446 298.761C234.029 298.36 233.821 297.883 233.821 297.33C233.821 296.769 234.029 296.292 234.446 295.898C234.87 295.496 235.378 295.295 235.969 295.295C236.56 295.295 237.063 295.496 237.48 295.898C237.904 296.292 238.116 296.769 238.116 297.33C238.116 297.883 237.904 298.36 237.48 298.761C237.063 299.155 236.56 299.352 235.969 299.352ZM255.301 306.307L252.222 306.852C252.093 306.458 251.888 306.083 251.608 305.727C251.335 305.371 250.964 305.08 250.494 304.852C250.025 304.625 249.438 304.511 248.733 304.511C247.771 304.511 246.968 304.727 246.324 305.159C245.68 305.583 245.358 306.133 245.358 306.807C245.358 307.39 245.574 307.86 246.006 308.216C246.438 308.572 247.134 308.864 248.097 309.091L250.869 309.727C252.475 310.098 253.672 310.67 254.46 311.443C255.248 312.216 255.642 313.22 255.642 314.455C255.642 315.5 255.339 316.432 254.733 317.25C254.134 318.061 253.297 318.697 252.222 319.159C251.153 319.621 249.915 319.852 248.506 319.852C246.551 319.852 244.956 319.436 243.722 318.602C242.487 317.761 241.729 316.568 241.449 315.023L244.733 314.523C244.938 315.379 245.358 316.027 245.994 316.466C246.631 316.898 247.46 317.114 248.483 317.114C249.597 317.114 250.487 316.883 251.153 316.42C251.82 315.951 252.153 315.379 252.153 314.705C252.153 314.159 251.949 313.701 251.54 313.33C251.138 312.958 250.521 312.678 249.688 312.489L246.733 311.841C245.104 311.47 243.9 310.879 243.119 310.068C242.347 309.258 241.96 308.231 241.96 306.989C241.96 305.958 242.248 305.057 242.824 304.284C243.4 303.511 244.195 302.909 245.21 302.477C246.225 302.038 247.388 301.818 248.699 301.818C250.585 301.818 252.07 302.227 253.153 303.045C254.237 303.856 254.953 304.943 255.301 306.307ZM267.526 302.045V304.773H257.991V302.045H267.526ZM260.548 297.864H263.946V314.375C263.946 315.034 264.045 315.53 264.241 315.864C264.438 316.189 264.692 316.413 265.003 316.534C265.321 316.648 265.666 316.705 266.037 316.705C266.31 316.705 266.548 316.686 266.753 316.648C266.957 316.61 267.116 316.58 267.23 316.557L267.844 319.364C267.647 319.439 267.366 319.515 267.003 319.591C266.639 319.674 266.185 319.72 265.639 319.727C264.745 319.742 263.912 319.583 263.139 319.25C262.366 318.917 261.741 318.402 261.264 317.705C260.787 317.008 260.548 316.133 260.548 315.08V297.864Z" fill="#292929"/>
</g>
<g filter="url(#filter1_d_1333_1030)">
<path d="M160 330H440V594C440 602.837 432.837 610 424 610H176C167.163 610 160 602.837 160 594V330Z" fill="white" shape-rendering="crispEdges"/>
<path d="M191.375 346.341C191.254 345.265 190.754 344.432 189.875 343.841C188.996 343.242 187.89 342.943 186.557 342.943C185.602 342.943 184.777 343.095 184.08 343.398C183.383 343.693 182.841 344.102 182.455 344.625C182.076 345.14 181.886 345.727 181.886 346.386C181.886 346.939 182.015 347.417 182.273 347.818C182.538 348.22 182.883 348.557 183.307 348.83C183.739 349.095 184.201 349.318 184.693 349.5C185.186 349.674 185.659 349.818 186.114 349.932L188.386 350.523C189.129 350.705 189.89 350.951 190.67 351.261C191.451 351.572 192.174 351.981 192.841 352.489C193.508 352.996 194.045 353.625 194.455 354.375C194.871 355.125 195.08 356.023 195.08 357.068C195.08 358.386 194.739 359.557 194.057 360.58C193.383 361.602 192.402 362.409 191.114 363C189.833 363.591 188.284 363.886 186.466 363.886C184.723 363.886 183.216 363.61 181.943 363.057C180.67 362.504 179.674 361.72 178.955 360.705C178.235 359.682 177.837 358.47 177.761 357.068H181.284C181.352 357.909 181.625 358.61 182.102 359.17C182.587 359.723 183.205 360.136 183.955 360.409C184.712 360.674 185.542 360.807 186.443 360.807C187.436 360.807 188.318 360.652 189.091 360.341C189.871 360.023 190.485 359.583 190.932 359.023C191.379 358.455 191.602 357.792 191.602 357.034C191.602 356.345 191.405 355.78 191.011 355.341C190.625 354.902 190.098 354.538 189.432 354.25C188.773 353.962 188.027 353.708 187.193 353.489L184.443 352.739C182.58 352.231 181.102 351.485 180.011 350.5C178.928 349.515 178.386 348.212 178.386 346.591C178.386 345.25 178.75 344.08 179.477 343.08C180.205 342.08 181.189 341.303 182.432 340.75C183.674 340.189 185.076 339.909 186.636 339.909C188.212 339.909 189.602 340.186 190.807 340.739C192.019 341.292 192.973 342.053 193.67 343.023C194.367 343.985 194.731 345.091 194.761 346.341H191.375ZM210.06 356.261V346.045H213.469V363.5H210.128V360.477H209.946C209.545 361.409 208.901 362.186 208.014 362.807C207.135 363.42 206.041 363.727 204.73 363.727C203.609 363.727 202.616 363.481 201.753 362.989C200.897 362.489 200.223 361.75 199.73 360.773C199.245 359.795 199.003 358.587 199.003 357.148V346.045H202.401V356.739C202.401 357.928 202.73 358.875 203.389 359.58C204.048 360.284 204.904 360.636 205.957 360.636C206.594 360.636 207.226 360.477 207.855 360.159C208.491 359.841 209.018 359.36 209.435 358.716C209.859 358.072 210.067 357.254 210.06 356.261ZM218.307 363.5V340.227H221.705V348.875H221.909C222.106 348.511 222.39 348.091 222.761 347.614C223.133 347.136 223.648 346.72 224.307 346.364C224.966 346 225.837 345.818 226.92 345.818C228.33 345.818 229.587 346.174 230.693 346.886C231.799 347.598 232.667 348.625 233.295 349.966C233.932 351.307 234.25 352.92 234.25 354.807C234.25 356.693 233.936 358.311 233.307 359.659C232.678 361 231.814 362.034 230.716 362.761C229.617 363.481 228.364 363.841 226.955 363.841C225.894 363.841 225.027 363.663 224.352 363.307C223.686 362.951 223.163 362.534 222.784 362.057C222.405 361.58 222.114 361.155 221.909 360.784H221.625V363.5H218.307ZM221.636 354.773C221.636 356 221.814 357.076 222.17 358C222.527 358.924 223.042 359.648 223.716 360.17C224.39 360.686 225.216 360.943 226.193 360.943C227.208 360.943 228.057 360.674 228.739 360.136C229.42 359.591 229.936 358.852 230.284 357.92C230.64 356.989 230.818 355.939 230.818 354.773C230.818 353.621 230.644 352.587 230.295 351.67C229.955 350.754 229.439 350.03 228.75 349.5C228.068 348.97 227.216 348.705 226.193 348.705C225.208 348.705 224.375 348.958 223.693 349.466C223.019 349.973 222.508 350.682 222.159 351.591C221.811 352.5 221.636 353.561 221.636 354.773ZM265.591 340.227V363.5H262.364L250.534 346.432H250.318V363.5H246.807V340.227H250.057L261.898 357.318H262.114V340.227H265.591ZM275.52 363.886C274.414 363.886 273.414 363.682 272.52 363.273C271.626 362.856 270.918 362.254 270.395 361.466C269.88 360.678 269.622 359.712 269.622 358.568C269.622 357.583 269.812 356.773 270.19 356.136C270.569 355.5 271.08 354.996 271.724 354.625C272.368 354.254 273.088 353.973 273.884 353.784C274.679 353.595 275.49 353.451 276.315 353.352C277.361 353.231 278.209 353.133 278.861 353.057C279.512 352.973 279.986 352.841 280.281 352.659C280.577 352.477 280.724 352.182 280.724 351.773V351.693C280.724 350.701 280.444 349.932 279.884 349.386C279.33 348.841 278.505 348.568 277.406 348.568C276.262 348.568 275.361 348.822 274.702 349.33C274.05 349.83 273.599 350.386 273.349 351L270.156 350.273C270.535 349.212 271.088 348.356 271.815 347.705C272.55 347.045 273.395 346.568 274.349 346.273C275.304 345.97 276.308 345.818 277.361 345.818C278.058 345.818 278.796 345.902 279.577 346.068C280.365 346.227 281.099 346.523 281.781 346.955C282.471 347.386 283.035 348.004 283.474 348.807C283.914 349.602 284.134 350.636 284.134 351.909V363.5H280.815V361.114H280.679C280.459 361.553 280.13 361.985 279.69 362.409C279.251 362.833 278.687 363.186 277.997 363.466C277.308 363.746 276.482 363.886 275.52 363.886ZM276.259 361.159C277.198 361.159 278.001 360.973 278.668 360.602C279.342 360.231 279.853 359.746 280.202 359.148C280.558 358.542 280.736 357.894 280.736 357.205V354.955C280.615 355.076 280.38 355.189 280.031 355.295C279.69 355.394 279.3 355.481 278.861 355.557C278.421 355.625 277.993 355.689 277.577 355.75C277.16 355.803 276.812 355.848 276.531 355.886C275.872 355.97 275.27 356.11 274.724 356.307C274.187 356.504 273.755 356.788 273.429 357.159C273.111 357.523 272.952 358.008 272.952 358.614C272.952 359.455 273.262 360.091 273.884 360.523C274.505 360.947 275.296 361.159 276.259 361.159ZM302.966 346.045L296.636 363.5H293L286.659 346.045H290.307L294.727 359.477H294.909L299.318 346.045H302.966Z" fill="#292929"/>
<path d="M200.009 418.227C199.092 418.227 198.255 418.004 197.497 417.557C196.74 417.102 196.134 416.496 195.679 415.739C195.232 414.981 195.009 414.144 195.009 413.227C195.009 412.303 195.232 411.466 195.679 410.716C196.134 409.958 196.74 409.356 197.497 408.909C198.255 408.455 199.092 408.227 200.009 408.227C200.933 408.227 201.77 408.455 202.52 408.909C203.277 409.356 203.88 409.958 204.327 410.716C204.781 411.466 205.009 412.303 205.009 413.227C205.009 414.144 204.781 414.981 204.327 415.739C203.88 416.496 203.277 417.102 202.52 417.557C201.77 418.004 200.933 418.227 200.009 418.227ZM229.682 399.227V422.5H226.284V399.227H229.682ZM234.253 422.5V405.045H237.651V422.5H234.253ZM235.969 402.352C235.378 402.352 234.87 402.155 234.446 401.761C234.029 401.36 233.821 400.883 233.821 400.33C233.821 399.769 234.029 399.292 234.446 398.898C234.87 398.496 235.378 398.295 235.969 398.295C236.56 398.295 237.063 398.496 237.48 398.898C237.904 399.292 238.116 399.769 238.116 400.33C238.116 400.883 237.904 401.36 237.48 401.761C237.063 402.155 236.56 402.352 235.969 402.352ZM255.301 409.307L252.222 409.852C252.093 409.458 251.888 409.083 251.608 408.727C251.335 408.371 250.964 408.08 250.494 407.852C250.025 407.625 249.438 407.511 248.733 407.511C247.771 407.511 246.968 407.727 246.324 408.159C245.68 408.583 245.358 409.133 245.358 409.807C245.358 410.39 245.574 410.86 246.006 411.216C246.438 411.572 247.134 411.864 248.097 412.091L250.869 412.727C252.475 413.098 253.672 413.67 254.46 414.443C255.248 415.216 255.642 416.22 255.642 417.455C255.642 418.5 255.339 419.432 254.733 420.25C254.134 421.061 253.297 421.697 252.222 422.159C251.153 422.621 249.915 422.852 248.506 422.852C246.551 422.852 244.956 422.436 243.722 421.602C242.487 420.761 241.729 419.568 241.449 418.023L244.733 417.523C244.938 418.379 245.358 419.027 245.994 419.466C246.631 419.898 247.46 420.114 248.483 420.114C249.597 420.114 250.487 419.883 251.153 419.42C251.82 418.951 252.153 418.379 252.153 417.705C252.153 417.159 251.949 416.701 251.54 416.33C251.138 415.958 250.521 415.678 249.688 415.489L246.733 414.841C245.104 414.47 243.9 413.879 243.119 413.068C242.347 412.258 241.96 411.231 241.96 409.989C241.96 408.958 242.248 408.057 242.824 407.284C243.4 406.511 244.195 405.909 245.21 405.477C246.225 405.038 247.388 404.818 248.699 404.818C250.585 404.818 252.07 405.227 253.153 406.045C254.237 406.856 254.953 407.943 255.301 409.307ZM267.526 405.045V407.773H257.991V405.045H267.526ZM260.548 400.864H263.946V417.375C263.946 418.034 264.045 418.53 264.241 418.864C264.438 419.189 264.692 419.413 265.003 419.534C265.321 419.648 265.666 419.705 266.037 419.705C266.31 419.705 266.548 419.686 266.753 419.648C266.957 419.61 267.116 419.58 267.23 419.557L267.844 422.364C267.647 422.439 267.366 422.515 267.003 422.591C266.639 422.674 266.185 422.72 265.639 422.727C264.745 422.742 263.912 422.583 263.139 422.25C262.366 421.917 261.741 421.402 261.264 420.705C260.787 420.008 260.548 419.133 260.548 418.08V400.864Z" fill="#292929"/>
<path d="M200.009 477.227C199.092 477.227 198.255 477.004 197.497 476.557C196.74 476.102 196.134 475.496 195.679 474.739C195.232 473.981 195.009 473.144 195.009 472.227C195.009 471.303 195.232 470.466 195.679 469.716C196.134 468.958 196.74 468.356 197.497 467.909C198.255 467.455 199.092 467.227 200.009 467.227C200.933 467.227 201.77 467.455 202.52 467.909C203.277 468.356 203.88 468.958 204.327 469.716C204.781 470.466 205.009 471.303 205.009 472.227C205.009 473.144 204.781 473.981 204.327 474.739C203.88 475.496 203.277 476.102 202.52 476.557C201.77 477.004 200.933 477.227 200.009 477.227ZM229.682 458.227V481.5H226.284V458.227H229.682ZM234.253 481.5V464.045H237.651V481.5H234.253ZM235.969 461.352C235.378 461.352 234.87 461.155 234.446 460.761C234.029 460.36 233.821 459.883 233.821 459.33C233.821 458.769 234.029 458.292 234.446 457.898C234.87 457.496 235.378 457.295 235.969 457.295C236.56 457.295 237.063 457.496 237.48 457.898C237.904 458.292 238.116 458.769 238.116 459.33C238.116 459.883 237.904 460.36 237.48 460.761C237.063 461.155 236.56 461.352 235.969 461.352ZM255.301 468.307L252.222 468.852C252.093 468.458 251.888 468.083 251.608 467.727C251.335 467.371 250.964 467.08 250.494 466.852C250.025 466.625 249.438 466.511 248.733 466.511C247.771 466.511 246.968 466.727 246.324 467.159C245.68 467.583 245.358 468.133 245.358 468.807C245.358 469.39 245.574 469.86 246.006 470.216C246.438 470.572 247.134 470.864 248.097 471.091L250.869 471.727C252.475 472.098 253.672 472.67 254.46 473.443C255.248 474.216 255.642 475.22 255.642 476.455C255.642 477.5 255.339 478.432 254.733 479.25C254.134 480.061 253.297 480.697 252.222 481.159C251.153 481.621 249.915 481.852 248.506 481.852C246.551 481.852 244.956 481.436 243.722 480.602C242.487 479.761 241.729 478.568 241.449 477.023L244.733 476.523C244.938 477.379 245.358 478.027 245.994 478.466C246.631 478.898 247.46 479.114 248.483 479.114C249.597 479.114 250.487 478.883 251.153 478.42C251.82 477.951 252.153 477.379 252.153 476.705C252.153 476.159 251.949 475.701 251.54 475.33C251.138 474.958 250.521 474.678 249.688 474.489L246.733 473.841C245.104 473.47 243.9 472.879 243.119 472.068C242.347 471.258 241.96 470.231 241.96 468.989C241.96 467.958 242.248 467.057 242.824 466.284C243.4 465.511 244.195 464.909 245.21 464.477C246.225 464.038 247.388 463.818 248.699 463.818C250.585 463.818 252.07 464.227 253.153 465.045C254.237 465.856 254.953 466.943 255.301 468.307ZM267.526 464.045V466.773H257.991V464.045H267.526ZM260.548 459.864H263.946V476.375C263.946 477.034 264.045 477.53 264.241 477.864C264.438 478.189 264.692 478.413 265.003 478.534C265.321 478.648 265.666 478.705 266.037 478.705C266.31 478.705 266.548 478.686 266.753 478.648C266.957 478.61 267.116 478.58 267.23 478.557L267.844 481.364C267.647 481.439 267.366 481.515 267.003 481.591C266.639 481.674 266.185 481.72 265.639 481.727C264.745 481.742 263.912 481.583 263.139 481.25C262.366 480.917 261.741 480.402 261.264 479.705C260.787 479.008 260.548 478.133 260.548 477.08V459.864Z" fill="#292929"/>
<path d="M200.009 536.227C199.092 536.227 198.255 536.004 197.497 535.557C196.74 535.102 196.134 534.496 195.679 533.739C195.232 532.981 195.009 532.144 195.009 531.227C195.009 530.303 195.232 529.466 195.679 528.716C196.134 527.958 196.74 527.356 197.497 526.909C198.255 526.455 199.092 526.227 200.009 526.227C200.933 526.227 201.77 526.455 202.52 526.909C203.277 527.356 203.88 527.958 204.327 528.716C204.781 529.466 205.009 530.303 205.009 531.227C205.009 532.144 204.781 532.981 204.327 533.739C203.88 534.496 203.277 535.102 202.52 535.557C201.77 536.004 200.933 536.227 200.009 536.227ZM229.682 517.227V540.5H226.284V517.227H229.682ZM234.253 540.5V523.045H237.651V540.5H234.253ZM235.969 520.352C235.378 520.352 234.87 520.155 234.446 519.761C234.029 519.36 233.821 518.883 233.821 518.33C233.821 517.769 234.029 517.292 234.446 516.898C234.87 516.496 235.378 516.295 235.969 516.295C236.56 516.295 237.063 516.496 237.48 516.898C237.904 517.292 238.116 517.769 238.116 518.33C238.116 518.883 237.904 519.36 237.48 519.761C237.063 520.155 236.56 520.352 235.969 520.352ZM255.301 527.307L252.222 527.852C252.093 527.458 251.888 527.083 251.608 526.727C251.335 526.371 250.964 526.08 250.494 525.852C250.025 525.625 249.438 525.511 248.733 525.511C247.771 525.511 246.968 525.727 246.324 526.159C245.68 526.583 245.358 527.133 245.358 527.807C245.358 528.39 245.574 528.86 246.006 529.216C246.438 529.572 247.134 529.864 248.097 530.091L250.869 530.727C252.475 531.098 253.672 531.67 254.46 532.443C255.248 533.216 255.642 534.22 255.642 535.455C255.642 536.5 255.339 537.432 254.733 538.25C254.134 539.061 253.297 539.697 252.222 540.159C251.153 540.621 249.915 540.852 248.506 540.852C246.551 540.852 244.956 540.436 243.722 539.602C242.487 538.761 241.729 537.568 241.449 536.023L244.733 535.523C244.938 536.379 245.358 537.027 245.994 537.466C246.631 537.898 247.46 538.114 248.483 538.114C249.597 538.114 250.487 537.883 251.153 537.42C251.82 536.951 252.153 536.379 252.153 535.705C252.153 535.159 251.949 534.701 251.54 534.33C251.138 533.958 250.521 533.678 249.688 533.489L246.733 532.841C245.104 532.47 243.9 531.879 243.119 531.068C242.347 530.258 241.96 529.231 241.96 527.989C241.96 526.958 242.248 526.057 242.824 525.284C243.4 524.511 244.195 523.909 245.21 523.477C246.225 523.038 247.388 522.818 248.699 522.818C250.585 522.818 252.07 523.227 253.153 524.045C254.237 524.856 254.953 525.943 255.301 527.307ZM267.526 523.045V525.773H257.991V523.045H267.526ZM260.548 518.864H263.946V535.375C263.946 536.034 264.045 536.53 264.241 536.864C264.438 537.189 264.692 537.413 265.003 537.534C265.321 537.648 265.666 537.705 266.037 537.705C266.31 537.705 266.548 537.686 266.753 537.648C266.957 537.61 267.116 537.58 267.23 537.557L267.844 540.364C267.647 540.439 267.366 540.515 267.003 540.591C266.639 540.674 266.185 540.72 265.639 540.727C264.745 540.742 263.912 540.583 263.139 540.25C262.366 539.917 261.741 539.402 261.264 538.705C260.787 538.008 260.548 537.133 260.548 536.08V518.864Z" fill="#292929"/>
<path d="M200.009 595.227C199.092 595.227 198.255 595.004 197.497 594.557C196.74 594.102 196.134 593.496 195.679 592.739C195.232 591.981 195.009 591.144 195.009 590.227C195.009 589.303 195.232 588.466 195.679 587.716C196.134 586.958 196.74 586.356 197.497 585.909C198.255 585.455 199.092 585.227 200.009 585.227C200.933 585.227 201.77 585.455 202.52 585.909C203.277 586.356 203.88 586.958 204.327 587.716C204.781 588.466 205.009 589.303 205.009 590.227C205.009 591.144 204.781 591.981 204.327 592.739C203.88 593.496 203.277 594.102 202.52 594.557C201.77 595.004 200.933 595.227 200.009 595.227ZM229.682 576.227V599.5H226.284V576.227H229.682ZM234.253 599.5V582.045H237.651V599.5H234.253ZM235.969 579.352C235.378 579.352 234.87 579.155 234.446 578.761C234.029 578.36 233.821 577.883 233.821 577.33C233.821 576.769 234.029 576.292 234.446 575.898C234.87 575.496 235.378 575.295 235.969 575.295C236.56 575.295 237.063 575.496 237.48 575.898C237.904 576.292 238.116 576.769 238.116 577.33C238.116 577.883 237.904 578.36 237.48 578.761C237.063 579.155 236.56 579.352 235.969 579.352ZM255.301 586.307L252.222 586.852C252.093 586.458 251.888 586.083 251.608 585.727C251.335 585.371 250.964 585.08 250.494 584.852C250.025 584.625 249.438 584.511 248.733 584.511C247.771 584.511 246.968 584.727 246.324 585.159C245.68 585.583 245.358 586.133 245.358 586.807C245.358 587.39 245.574 587.86 246.006 588.216C246.438 588.572 247.134 588.864 248.097 589.091L250.869 589.727C252.475 590.098 253.672 590.67 254.46 591.443C255.248 592.216 255.642 593.22 255.642 594.455C255.642 595.5 255.339 596.432 254.733 597.25C254.134 598.061 253.297 598.697 252.222 599.159C251.153 599.621 249.915 599.852 248.506 599.852C246.551 599.852 244.956 599.436 243.722 598.602C242.487 597.761 241.729 596.568 241.449 595.023L244.733 594.523C244.938 595.379 245.358 596.027 245.994 596.466C246.631 596.898 247.46 597.114 248.483 597.114C249.597 597.114 250.487 596.883 251.153 596.42C251.82 595.951 252.153 595.379 252.153 594.705C252.153 594.159 251.949 593.701 251.54 593.33C251.138 592.958 250.521 592.678 249.688 592.489L246.733 591.841C245.104 591.47 243.9 590.879 243.119 590.068C242.347 589.258 241.96 588.231 241.96 586.989C241.96 585.958 242.248 585.057 242.824 584.284C243.4 583.511 244.195 582.909 245.21 582.477C246.225 582.038 247.388 581.818 248.699 581.818C250.585 581.818 252.07 582.227 253.153 583.045C254.237 583.856 254.953 584.943 255.301 586.307ZM267.526 582.045V584.773H257.991V582.045H267.526ZM260.548 577.864H263.946V594.375C263.946 595.034 264.045 595.53 264.241 595.864C264.438 596.189 264.692 596.413 265.003 596.534C265.321 596.648 265.666 596.705 266.037 596.705C266.31 596.705 266.548 596.686 266.753 596.648C266.957 596.61 267.116 596.58 267.23 596.557L267.844 599.364C267.647 599.439 267.366 599.515 267.003 599.591C266.639 599.674 266.185 599.72 265.639 599.727C264.745 599.742 263.912 599.583 263.139 599.25C262.366 598.917 261.741 598.402 261.264 597.705C260.787 597.008 260.548 596.133 260.548 595.08V577.864Z" fill="#292929"/>
</g>
<g filter="url(#filter2_d_1333_1030)">
<path d="M476 66C476 57.1634 483.163 50 492 50H1336C1344.84 50 1352 57.1634 1352 66V834C1352 842.837 1344.84 850 1336 850H492C483.163 850 476 842.837 476 834V66Z" fill="white" shape-rendering="crispEdges"/>
<path d="M816.26 438.227H820.521L827.93 456.318H828.203L835.612 438.227H839.874V461.5H836.533V444.659H836.317L829.453 461.466H826.68L819.817 444.648H819.601V461.5H816.26V438.227ZM849.786 461.886C848.679 461.886 847.679 461.682 846.786 461.273C845.892 460.856 845.183 460.254 844.661 459.466C844.145 458.678 843.888 457.712 843.888 456.568C843.888 455.583 844.077 454.773 844.456 454.136C844.835 453.5 845.346 452.996 845.99 452.625C846.634 452.254 847.354 451.973 848.149 451.784C848.945 451.595 849.755 451.451 850.581 451.352C851.626 451.231 852.475 451.133 853.126 451.057C853.778 450.973 854.251 450.841 854.547 450.659C854.842 450.477 854.99 450.182 854.99 449.773V449.693C854.99 448.701 854.71 447.932 854.149 447.386C853.596 446.841 852.77 446.568 851.672 446.568C850.528 446.568 849.626 446.822 848.967 447.33C848.316 447.83 847.865 448.386 847.615 449L844.422 448.273C844.801 447.212 845.354 446.356 846.081 445.705C846.816 445.045 847.661 444.568 848.615 444.273C849.57 443.97 850.573 443.818 851.626 443.818C852.323 443.818 853.062 443.902 853.842 444.068C854.63 444.227 855.365 444.523 856.047 444.955C856.736 445.386 857.301 446.004 857.74 446.807C858.179 447.602 858.399 448.636 858.399 449.909V461.5H855.081V459.114H854.945C854.725 459.553 854.395 459.985 853.956 460.409C853.517 460.833 852.952 461.186 852.263 461.466C851.573 461.746 850.748 461.886 849.786 461.886ZM850.524 459.159C851.464 459.159 852.267 458.973 852.933 458.602C853.607 458.231 854.119 457.746 854.467 457.148C854.823 456.542 855.001 455.894 855.001 455.205V452.955C854.88 453.076 854.645 453.189 854.297 453.295C853.956 453.394 853.566 453.481 853.126 453.557C852.687 453.625 852.259 453.689 851.842 453.75C851.426 453.803 851.077 453.848 850.797 453.886C850.138 453.97 849.536 454.11 848.99 454.307C848.452 454.504 848.02 454.788 847.695 455.159C847.376 455.523 847.217 456.008 847.217 456.614C847.217 457.455 847.528 458.091 848.149 458.523C848.77 458.947 849.562 459.159 850.524 459.159ZM862.925 461.5V444.045H866.322V461.5H862.925ZM864.641 441.352C864.05 441.352 863.542 441.155 863.118 440.761C862.701 440.36 862.493 439.883 862.493 439.33C862.493 438.769 862.701 438.292 863.118 437.898C863.542 437.496 864.05 437.295 864.641 437.295C865.232 437.295 865.735 437.496 866.152 437.898C866.576 438.292 866.788 438.769 866.788 439.33C866.788 439.883 866.576 440.36 866.152 440.761C865.735 441.155 865.232 441.352 864.641 441.352ZM874.291 451.136V461.5H870.893V444.045H874.155V446.886H874.371C874.772 445.962 875.401 445.22 876.257 444.659C877.121 444.098 878.208 443.818 879.518 443.818C880.708 443.818 881.75 444.068 882.643 444.568C883.537 445.061 884.231 445.795 884.723 446.773C885.215 447.75 885.462 448.958 885.462 450.398V461.5H882.064V450.807C882.064 449.542 881.734 448.553 881.075 447.841C880.416 447.121 879.511 446.761 878.359 446.761C877.571 446.761 876.871 446.932 876.257 447.273C875.651 447.614 875.17 448.114 874.814 448.773C874.465 449.424 874.291 450.212 874.291 451.136ZM905.839 461.852C904.15 461.852 902.696 461.47 901.476 460.705C900.264 459.932 899.332 458.867 898.68 457.511C898.029 456.155 897.703 454.602 897.703 452.852C897.703 451.08 898.036 449.515 898.703 448.159C899.37 446.795 900.309 445.731 901.521 444.966C902.733 444.201 904.161 443.818 905.805 443.818C907.131 443.818 908.313 444.064 909.351 444.557C910.389 445.042 911.226 445.723 911.862 446.602C912.506 447.481 912.889 448.508 913.01 449.682H909.703C909.521 448.864 909.105 448.159 908.453 447.568C907.809 446.977 906.946 446.682 905.862 446.682C904.915 446.682 904.086 446.932 903.374 447.432C902.669 447.924 902.12 448.629 901.726 449.545C901.332 450.455 901.135 451.53 901.135 452.773C901.135 454.045 901.328 455.144 901.714 456.068C902.101 456.992 902.646 457.708 903.351 458.216C904.063 458.723 904.9 458.977 905.862 458.977C906.506 458.977 907.089 458.86 907.612 458.625C908.143 458.383 908.586 458.038 908.942 457.591C909.305 457.144 909.559 456.606 909.703 455.977H913.01C912.889 457.106 912.521 458.114 911.908 459C911.294 459.886 910.472 460.583 909.442 461.091C908.419 461.598 907.218 461.852 905.839 461.852ZM923.996 461.852C922.359 461.852 920.931 461.477 919.712 460.727C918.492 459.977 917.545 458.928 916.871 457.58C916.196 456.231 915.859 454.655 915.859 452.852C915.859 451.042 916.196 449.458 916.871 448.102C917.545 446.746 918.492 445.693 919.712 444.943C920.931 444.193 922.359 443.818 923.996 443.818C925.632 443.818 927.06 444.193 928.28 444.943C929.5 445.693 930.446 446.746 931.121 448.102C931.795 449.458 932.132 451.042 932.132 452.852C932.132 454.655 931.795 456.231 931.121 457.58C930.446 458.928 929.5 459.977 928.28 460.727C927.06 461.477 925.632 461.852 923.996 461.852ZM924.007 459C925.068 459 925.946 458.72 926.643 458.159C927.34 457.598 927.856 456.852 928.189 455.92C928.53 454.989 928.7 453.962 928.7 452.841C928.7 451.727 928.53 450.705 928.189 449.773C927.856 448.833 927.34 448.08 926.643 447.511C925.946 446.943 925.068 446.659 924.007 446.659C922.939 446.659 922.053 446.943 921.348 447.511C920.651 448.08 920.132 448.833 919.791 449.773C919.458 450.705 919.291 451.727 919.291 452.841C919.291 453.962 919.458 454.989 919.791 455.92C920.132 456.852 920.651 457.598 921.348 458.159C922.053 458.72 922.939 459 924.007 459ZM939.322 451.136V461.5H935.925V444.045H939.186V446.886H939.402C939.804 445.962 940.432 445.22 941.288 444.659C942.152 444.098 943.239 443.818 944.55 443.818C945.739 443.818 946.781 444.068 947.675 444.568C948.569 445.061 949.262 445.795 949.754 446.773C950.247 447.75 950.493 448.958 950.493 450.398V461.5H947.095V450.807C947.095 449.542 946.766 448.553 946.107 447.841C945.447 447.121 944.542 446.761 943.391 446.761C942.603 446.761 941.902 446.932 941.288 447.273C940.682 447.614 940.201 448.114 939.845 448.773C939.497 449.424 939.322 450.212 939.322 451.136ZM963.197 444.045V446.773H953.663V444.045H963.197ZM956.22 439.864H959.618V456.375C959.618 457.034 959.716 457.53 959.913 457.864C960.11 458.189 960.364 458.413 960.675 458.534C960.993 458.648 961.338 458.705 961.709 458.705C961.982 458.705 962.22 458.686 962.425 458.648C962.629 458.61 962.788 458.58 962.902 458.557L963.516 461.364C963.319 461.439 963.038 461.515 962.675 461.591C962.311 461.674 961.857 461.72 961.311 461.727C960.417 461.742 959.584 461.583 958.811 461.25C958.038 460.917 957.413 460.402 956.936 459.705C956.459 459.008 956.22 458.133 956.22 457.08V439.864ZM974.291 461.852C972.571 461.852 971.09 461.485 969.848 460.75C968.613 460.008 967.659 458.966 966.984 457.625C966.318 456.277 965.984 454.697 965.984 452.886C965.984 451.098 966.318 449.523 966.984 448.159C967.659 446.795 968.598 445.731 969.803 444.966C971.015 444.201 972.431 443.818 974.053 443.818C975.037 443.818 975.992 443.981 976.916 444.307C977.84 444.633 978.67 445.144 979.405 445.841C980.14 446.538 980.719 447.443 981.143 448.557C981.568 449.663 981.78 451.008 981.78 452.591V453.795H967.905V451.25H978.45C978.45 450.356 978.268 449.564 977.905 448.875C977.541 448.178 977.03 447.629 976.371 447.227C975.719 446.826 974.954 446.625 974.075 446.625C973.121 446.625 972.287 446.86 971.575 447.33C970.871 447.792 970.325 448.398 969.939 449.148C969.56 449.89 969.371 450.697 969.371 451.568V453.557C969.371 454.723 969.575 455.716 969.984 456.534C970.401 457.352 970.981 457.977 971.723 458.409C972.465 458.833 973.333 459.045 974.325 459.045C974.969 459.045 975.556 458.955 976.087 458.773C976.617 458.583 977.075 458.303 977.462 457.932C977.848 457.561 978.143 457.102 978.348 456.557L981.564 457.136C981.306 458.083 980.844 458.913 980.178 459.625C979.518 460.33 978.689 460.879 977.689 461.273C976.696 461.659 975.564 461.852 974.291 461.852ZM988.947 451.136V461.5H985.55V444.045H988.811V446.886H989.027C989.429 445.962 990.057 445.22 990.913 444.659C991.777 444.098 992.864 443.818 994.175 443.818C995.364 443.818 996.406 444.068 997.3 444.568C998.194 445.061 998.887 445.795 999.379 446.773C999.872 447.75 1000.12 448.958 1000.12 450.398V461.5H996.72V450.807C996.72 449.542 996.391 448.553 995.732 447.841C995.072 447.121 994.167 446.761 993.016 446.761C992.228 446.761 991.527 446.932 990.913 447.273C990.307 447.614 989.826 448.114 989.47 448.773C989.122 449.424 988.947 450.212 988.947 451.136ZM1012.82 444.045V446.773H1003.29V444.045H1012.82ZM1005.85 439.864H1009.24V456.375C1009.24 457.034 1009.34 457.53 1009.54 457.864C1009.74 458.189 1009.99 458.413 1010.3 458.534C1010.62 458.648 1010.96 458.705 1011.33 458.705C1011.61 458.705 1011.85 458.686 1012.05 458.648C1012.25 458.61 1012.41 458.58 1012.53 458.557L1013.14 461.364C1012.94 461.439 1012.66 461.515 1012.3 461.591C1011.94 461.674 1011.48 461.72 1010.94 461.727C1010.04 461.742 1009.21 461.583 1008.44 461.25C1007.66 460.917 1007.04 460.402 1006.56 459.705C1006.08 459.008 1005.85 458.133 1005.85 457.08V439.864Z" fill="#292929"/>
</g>
</g>
<defs>
<filter id="filter0_d_1333_1030" x="156" y="50" width="296" height="296" filterUnits="userSpaceOnUse" color-interpolation-filters="sRGB">
<feFlood flood-opacity="0" result="BackgroundImageFix"/>
<feColorMatrix in="SourceAlpha" type="matrix" values="0 0 0 0 0 0 0 0 0 0 0 0 0 0 0 0 0 0 127 0" result="hardAlpha"/>
<feOffset dx="4" dy="8"/>
<feGaussianBlur stdDeviation="4"/>
<feComposite in2="hardAlpha" operator="out"/>
<feColorMatrix type="matrix" values="0 0 0 0 0.709896 0 0 0 0 0.722551 0 0 0 0 0.725 0 0 0 0.25 0"/>
<feBlend mode="normal" in2="BackgroundImageFix" result="effect1_dropShadow_1333_1030"/>
<feBlend mode="normal" in="SourceGraphic" in2="effect1_dropShadow_1333_1030" result="shape"/>
</filter>
<filter id="filter1_d_1333_1030" x="156" y="330" width="296" height="296" filterUnits="userSpaceOnUse" color-interpolation-filters="sRGB">
<feFlood flood-opacity="0" result="BackgroundImageFix"/>
<feColorMatrix in="SourceAlpha" type="matrix" values="0 0 0 0 0 0 0 0 0 0 0 0 0 0 0 0 0 0 127 0" result="hardAlpha"/>
<feOffset dx="4" dy="8"/>
<feGaussianBlur stdDeviation="4"/>
<feComposite in2="hardAlpha" operator="out"/>
<feColorMatrix type="matrix" values="0 0 0 0 0.709896 0 0 0 0 0.722551 0 0 0 0 0.725 0 0 0 0.25 0"/>
<feBlend mode="normal" in2="BackgroundImageFix" result="effect1_dropShadow_1333_1030"/>
<feBlend mode="normal" in="SourceGraphic" in2="effect1_dropShadow_1333_1030" result="shape"/>
</filter>
<filter id="filter2_d_1333_1030" x="472" y="50" width="892" height="816" filterUnits="userSpaceOnUse" color-interpolation-filters="sRGB">
<feFlood flood-opacity="0" result="BackgroundImageFix"/>
<feColorMatrix in="SourceAlpha" type="matrix" values="0 0 0 0 0 0 0 0 0 0 0 0 0 0 0 0 0 0 127 0" result="hardAlpha"/>
<feOffset dx="4" dy="8"/>
<feGaussianBlur stdDeviation="4"/>
<feComposite in2="hardAlpha" operator="out"/>
<feColorMatrix type="matrix" values="0 0 0 0 0.709896 0 0 0 0 0.722551 0 0 0 0 0.725 0 0 0 0.25 0"/>
<feBlend mode="normal" in2="BackgroundImageFix" result="effect1_dropShadow_1333_1030"/>
<feBlend mode="normal" in="SourceGraphic" in2="effect1_dropShadow_1333_1030" result="shape"/>
</filter>
<clipPath id="clip0_1333_1030">
<path d="M0 16C0 7.16346 7.16344 0 16 0H1496C1504.84 0 1512 7.16344 1512 16V900H0V16Z" fill="white"/>
</clipPath>
</defs>
</svg>
