<svg width="375" height="812" viewBox="0 0 375 812" fill="none" xmlns="http://www.w3.org/2000/svg">
<rect width="375" height="812" fill="white"/>
<path d="M187.312 306.84L167.144 357.677" stroke="#AAAAAA" stroke-width="2" stroke-linecap="round"/>
<path d="M148.992 306L167.83 357.574" stroke="#777777" stroke-width="6" stroke-linecap="round"/>
<path d="M208.367 306L191.316 350.547" stroke="#AAAAAA" stroke-width="2" stroke-linecap="round"/>
<path d="M173.91 306.072L192.105 357.677" stroke="black" stroke-width="8" stroke-linecap="round"/>
<path d="M225.008 306L210.312 343.948" stroke="#777777" stroke-width="2" stroke-linecap="round"/>
<path d="M196.328 306.193L215.42 357.677" stroke="black" stroke-width="8" stroke-linecap="round"/>
<path d="M85.696 376.277L76.352 398.677H76.032L66.688 376.277H66.976C67.072 376.277 67.136 376.33 67.168 376.437L75.936 397.493C75.9893 397.61 76.032 397.722 76.064 397.829C76.1067 397.935 76.1493 398.047 76.192 398.165C76.2347 398.047 76.272 397.935 76.304 397.829C76.3467 397.722 76.3947 397.61 76.448 397.493L85.216 376.437C85.248 376.33 85.3227 376.277 85.44 376.277H85.696ZM90.471 398.677H90.087V376.277H90.471V398.677ZM114.444 395.653C114.486 395.653 114.524 395.669 114.556 395.701L114.7 395.829C114.23 396.287 113.724 396.709 113.18 397.093C112.646 397.466 112.06 397.791 111.42 398.069C110.78 398.335 110.076 398.543 109.308 398.693C108.54 398.853 107.692 398.933 106.764 398.933C105.26 398.933 103.873 398.671 102.604 398.149C101.334 397.615 100.236 396.853 99.3075 395.861C98.3795 394.869 97.6542 393.669 97.1315 392.261C96.6195 390.842 96.3635 389.247 96.3635 387.477C96.3635 385.77 96.6195 384.213 97.1315 382.805C97.6542 381.397 98.3848 380.191 99.3235 379.189C100.273 378.175 101.404 377.397 102.716 376.853C104.038 376.298 105.494 376.021 107.084 376.021C107.82 376.021 108.513 376.079 109.164 376.197C109.814 376.303 110.428 376.469 111.003 376.693C111.59 376.917 112.15 377.194 112.684 377.525C113.217 377.845 113.74 378.218 114.252 378.645L114.188 378.741C114.166 378.783 114.113 378.805 114.028 378.805C113.953 378.805 113.761 378.677 113.452 378.421C113.153 378.165 112.721 377.882 112.156 377.573C111.59 377.263 110.886 376.981 110.044 376.725C109.212 376.469 108.225 376.341 107.084 376.341C105.569 376.341 104.177 376.602 102.908 377.125C101.649 377.637 100.561 378.378 99.6435 379.349C98.7368 380.309 98.0275 381.477 97.5155 382.853C97.0035 384.229 96.7475 385.77 96.7475 387.477C96.7475 389.215 96.9982 390.773 97.4995 392.149C98.0115 393.525 98.7155 394.693 99.6115 395.653C100.508 396.613 101.564 397.349 102.78 397.861C104.006 398.362 105.334 398.613 106.764 398.613C107.67 398.613 108.481 398.549 109.196 398.421C109.91 398.293 110.561 398.106 111.148 397.861C111.745 397.615 112.294 397.317 112.796 396.965C113.308 396.602 113.814 396.191 114.316 395.733C114.369 395.679 114.412 395.653 114.444 395.653ZM120.127 387.093H121.631C121.834 387.093 122.005 387.087 122.143 387.077C122.293 387.066 122.421 387.045 122.527 387.013C122.645 386.97 122.757 386.911 122.863 386.837C122.97 386.762 123.082 386.666 123.199 386.549L133.631 376.533C133.749 376.437 133.845 376.373 133.919 376.341C133.994 376.298 134.09 376.277 134.207 376.277H134.399L123.519 386.709C123.327 386.879 123.167 387.002 123.039 387.077C122.922 387.151 122.762 387.21 122.559 387.253C122.751 387.285 122.917 387.343 123.055 387.429C123.194 387.503 123.338 387.615 123.487 387.765L135.039 398.677H134.879C134.719 398.677 134.602 398.661 134.527 398.629C134.463 398.597 134.389 398.538 134.303 398.453L123.295 388.053C123.178 387.946 123.071 387.85 122.975 387.765C122.879 387.679 122.773 387.615 122.655 387.573C122.549 387.519 122.415 387.482 122.255 387.461C122.095 387.429 121.887 387.413 121.631 387.413H120.127V398.677H119.743V376.277H120.127V387.093ZM144.906 389.157V398.677H144.522V389.157L136.17 376.277H136.49C136.586 376.277 136.66 376.319 136.714 376.405L144.25 388.085C144.335 388.223 144.42 388.357 144.506 388.485C144.591 388.602 144.66 388.725 144.714 388.853C144.778 388.725 144.847 388.602 144.922 388.485C145.007 388.357 145.092 388.223 145.178 388.085L152.714 376.405C152.767 376.319 152.842 376.277 152.938 376.277H153.258L144.906 389.157ZM184.884 376.277L177.78 398.677H177.46L170.004 377.173C169.972 377.066 169.945 376.975 169.924 376.901C169.902 376.815 169.881 376.735 169.86 376.661C169.828 376.799 169.78 376.97 169.716 377.173L162.26 398.677H161.94L154.836 376.277H155.124C155.22 376.277 155.284 376.33 155.316 376.437L161.86 397.349C161.934 397.605 162.014 397.893 162.1 398.213C162.174 397.893 162.254 397.605 162.34 397.349L169.62 376.437C169.652 376.33 169.726 376.277 169.844 376.277H169.908C170.004 376.277 170.068 376.33 170.1 376.437L177.38 397.349C177.454 397.605 177.534 397.893 177.62 398.213C177.694 397.893 177.774 397.605 177.86 397.349L184.404 376.437C184.436 376.33 184.51 376.277 184.628 376.277H184.884ZM200.812 390.709L195.292 377.461C195.238 377.343 195.19 377.231 195.148 377.125C195.116 377.018 195.078 376.906 195.036 376.789C194.993 376.906 194.95 377.018 194.908 377.125C194.876 377.231 194.833 377.343 194.78 377.461L189.26 390.709H200.812ZM204.54 398.677H204.252C204.156 398.677 204.092 398.623 204.06 398.517L200.94 391.029H189.132L186.012 398.517C185.98 398.623 185.905 398.677 185.788 398.677H185.532L194.876 376.277H195.196L204.54 398.677ZM225.443 376.277V398.677H225.347C225.283 398.677 225.224 398.639 225.171 398.565L209.235 376.869C209.245 376.943 209.251 377.013 209.251 377.077C209.251 377.141 209.251 377.205 209.251 377.269V398.677H208.931V376.277H209.059C209.155 376.277 209.229 376.319 209.283 376.405L225.139 397.989C225.128 397.935 225.123 397.882 225.123 397.829C225.123 397.765 225.123 397.706 225.123 397.653V376.277H225.443ZM250.484 389.045V396.469C249.93 396.842 249.359 397.183 248.772 397.493C248.186 397.791 247.567 398.047 246.916 398.261C246.276 398.474 245.594 398.639 244.868 398.757C244.154 398.874 243.391 398.933 242.58 398.933C240.831 398.933 239.263 398.671 237.876 398.149C236.49 397.615 235.311 396.853 234.34 395.861C233.38 394.869 232.639 393.669 232.116 392.261C231.604 390.842 231.348 389.247 231.348 387.477C231.348 385.717 231.604 384.133 232.116 382.725C232.628 381.306 233.364 380.101 234.324 379.109C235.284 378.117 236.442 377.354 237.796 376.821C239.162 376.287 240.692 376.021 242.388 376.021C243.22 376.021 243.983 376.074 244.676 376.181C245.37 376.277 246.015 376.431 246.612 376.645C247.21 376.847 247.77 377.114 248.292 377.445C248.826 377.765 249.343 378.143 249.844 378.581L249.78 378.677C249.748 378.741 249.695 378.773 249.62 378.773C249.567 378.773 249.471 378.714 249.332 378.597C249.204 378.469 249.018 378.319 248.772 378.149C248.527 377.967 248.218 377.77 247.844 377.557C247.471 377.343 247.023 377.151 246.5 376.981C245.978 376.799 245.375 376.65 244.692 376.533C244.02 376.405 243.252 376.341 242.388 376.341C240.767 376.341 239.3 376.597 237.988 377.109C236.676 377.61 235.556 378.341 234.628 379.301C233.7 380.261 232.986 381.429 232.484 382.805C231.983 384.181 231.732 385.738 231.732 387.477C231.732 389.194 231.978 390.741 232.468 392.117C232.959 393.493 233.668 394.661 234.596 395.621C235.535 396.581 236.676 397.322 238.02 397.845C239.364 398.357 240.884 398.613 242.58 398.613C243.37 398.613 244.095 398.565 244.756 398.469C245.428 398.362 246.063 398.213 246.66 398.021C247.268 397.818 247.855 397.578 248.42 397.301C248.986 397.013 249.556 396.687 250.132 396.325V389.365H245.108C245.055 389.365 245.007 389.349 244.964 389.317C244.932 389.274 244.916 389.237 244.916 389.205V389.045H250.484ZM255.485 397.909C255.485 397.621 255.581 397.375 255.773 397.173C255.975 396.959 256.221 396.853 256.509 396.853C256.797 396.853 257.042 396.959 257.245 397.173C257.458 397.375 257.565 397.621 257.565 397.909C257.565 398.197 257.458 398.442 257.245 398.645C257.042 398.837 256.797 398.933 256.509 398.933C256.221 398.933 255.975 398.837 255.773 398.645C255.581 398.442 255.485 398.197 255.485 397.909ZM285.05 376.277V398.677H284.73V377.269C284.73 377.215 284.73 377.167 284.73 377.125C284.73 377.071 284.735 377.018 284.746 376.965L274.938 394.037C274.863 394.143 274.789 394.197 274.714 394.197H274.618C274.543 394.197 274.469 394.143 274.394 394.037L264.266 376.949C264.277 377.002 264.282 377.055 264.282 377.109C264.282 377.162 264.282 377.215 264.282 377.269V398.677H263.962V376.277H264.09C264.186 376.277 264.261 376.319 264.314 376.405L274.49 393.541C274.533 393.605 274.565 393.663 274.586 393.717C274.618 393.77 274.645 393.823 274.666 393.877C274.687 393.823 274.709 393.77 274.73 393.717C274.762 393.663 274.799 393.605 274.842 393.541L284.698 376.405C284.751 376.319 284.826 376.277 284.922 376.277H285.05ZM305.582 398.325L305.55 398.677H292.462V376.277H305.55V376.629H292.846V387.125H303.63V387.477H292.846V398.325H305.582Z" fill="#1B1B1B"/>
</svg>
