<svg width="420" height="80" viewBox="0 0 420 80" fill="none" xmlns="http://www.w3.org/2000/svg">
<rect x="84.75" y="0.75" width="34.5" height="34.5" rx="11.25" fill="#FFF1CD"/>
<rect x="84.75" y="0.75" width="34.5" height="34.5" rx="11.25" stroke="#FFE6AA" stroke-width="1.5"/>
<path d="M94.0996 23.5H109.897C110.151 23.5 110.381 23.5949 110.558 23.75H93.4404C93.6166 23.5951 93.8466 23.5 94.0996 23.5Z" fill="#707070" stroke="#707070" stroke-width="1.12489"/>
<path d="M91.875 27.9087V10.1573C91.875 10.1573 92.1161 7.87598 94.8881 7.87598C97.6602 7.87598 97.9013 10.1573 97.9013 10.1573V11.9018" stroke="#707070" stroke-width="2" stroke-linecap="round"/>
<path d="M91.877 15.8311L111.945 15.8311" stroke="#707070" stroke-width="2" stroke-linecap="round"/>
<path d="M91.875 26.3994C91.875 24.7686 93.4418 24.8938 93.4418 24.8938H110.677C110.677 24.8938 112.123 24.8938 112.123 26.3994" stroke="#707070" stroke-width="2" stroke-linecap="round"/>
<path d="M112.123 28.124L112.123 14.7458" stroke="#707070" stroke-width="2" stroke-linecap="round"/>
<path d="M96.1875 12.6208C96.1875 12.6208 96.6396 11.9746 97.9959 11.9746C99.3522 11.9746 99.8043 12.6208 99.8043 12.6208" stroke="#707070" stroke-width="2" stroke-linecap="round"/>
<path d="M96.0703 24.5078L96.0703 16.1916" stroke="#707070" stroke-width="2"/>
<path d="M100.084 24.5078L100.084 16.1916" stroke="#707070" stroke-width="2"/>
<path d="M104.1 24.5078L104.1 16.1916" stroke="#707070" stroke-width="2"/>
<path d="M108.113 24.5078L108.113 16.1916" stroke="#707070" stroke-width="2"/>
<rect x="84" y="44" width="36" height="36" rx="12" fill="#FFD500"/>
<rect x="84.75" y="44.75" width="34.5" height="34.5" rx="11.25" stroke="#FFC93C" stroke-opacity="0.9" stroke-width="1.5"/>
<path d="M107.558 60.6045C107.558 62.6857 106.686 64.6817 105.133 66.1534C103.58 67.6251 101.475 68.4518 99.2789 68.4518C97.0832 68.4518 94.9774 67.6251 93.4248 66.1534C91.8722 64.6817 91 62.6857 91 60.6045L107.558 60.6045Z" fill="#505050" stroke="#505050" stroke-width="2"/>
<path d="M91.8125 60.4218C91.8125 58.5753 92.4415 56.7743 93.6129 55.2662C94.7657 53.7821 96.3881 52.6535 98.2632 52.0298C98.314 52.0129 98.3689 52.0396 98.3875 52.0899L101.638 60.8668" stroke="#505050" stroke-width="2"/>
<path d="M97.8241 70.6191C97.8241 71.5613 97.0603 72.3251 96.1181 72.3251C95.1759 72.3251 94.4121 71.5613 94.4121 70.6191C94.4121 69.6769 95.1759 68.9131 96.1181 68.9131C97.0603 68.9131 97.8241 69.6769 97.8241 70.6191Z" fill="#505050" stroke="#505050" stroke-width="2"/>
<path d="M112.942 59.2765C112.942 60.3757 112.05 61.2668 110.951 61.2668C109.852 61.2668 108.961 60.3757 108.961 59.2765C108.961 58.1772 109.852 57.2861 110.951 57.2861C112.05 57.2861 112.942 58.1772 112.942 59.2765Z" fill="#505050" stroke="#505050" stroke-width="2"/>
<path d="M107.219 60.7534C107.283 60.6527 107.397 60.4567 108.028 60.16C108.366 60.0012 108.675 59.9226 108.999 59.8633" stroke="#505050" stroke-width="2"/>
<path d="M104.08 70.6191C104.08 71.5613 103.316 72.3251 102.374 72.3251C101.432 72.3251 100.668 71.5613 100.668 70.6191C100.668 69.6769 101.432 68.9131 102.374 68.9131C103.316 68.9131 104.08 69.6769 104.08 70.6191Z" fill="#505050" stroke="#505050" stroke-width="2"/>
<rect x="300.75" y="0.75" width="34.5" height="34.5" rx="11.25" fill="#FFF1CD"/>
<rect x="300.75" y="0.75" width="34.5" height="34.5" rx="11.25" stroke="#FFE6AA" stroke-width="1.5"/>
<path fill-rule="evenodd" clip-rule="evenodd" d="M326.601 10.4355L326.792 11.5518C328.088 15.3536 325.786 15.3925 324.877 13.3616C324.118 13.0502 323.633 13.2554 323.511 14.1541L324.446 18.5927L324.41 22.3679C324.967 21.6284 325.412 20.7669 325.702 19.7886C325.935 19.0067 326.734 18.5679 327.49 18.8085C328.245 19.0491 328.669 19.8771 328.436 20.659C327.661 23.2772 326.078 25.2869 324.101 26.619C322.351 27.7989 320.29 28.4411 318.212 28.4959C316.131 28.5526 314.026 28.0165 312.19 26.8436C310.191 25.5646 308.525 23.5373 307.578 20.7032C307.322 19.9319 307.718 19.0898 308.463 18.8245C309.208 18.5591 310.022 18.9695 310.278 19.7408C310.546 20.544 310.888 21.2587 311.288 21.8885L311.322 18.7413C311.394 17.9824 311.654 17.25 312.185 16.5601H310.652C309.302 16.4539 309.152 14.8087 310.652 14.4779H314.752C314.81 15.3712 315.184 16.1762 315.758 16.7723C316.385 17.4216 317.252 17.8232 318.209 17.8232C319.166 17.8232 320.032 17.4216 320.659 16.7723C321.286 16.1231 321.674 15.2262 321.674 14.2355C321.674 13.2448 321.286 12.3479 320.659 11.6987C320.23 11.2546 319.69 10.9273 319.085 10.7628C319.641 9.70138 320.57 8.7514 321.956 7.93232C323.308 7.39452 324.844 7.27599 326.77 8.05615C327.531 8.40997 327.96 8.76555 327.828 9.11936C327.702 9.46256 327.462 9.45371 327.199 9.52978C326.784 9.65008 326.553 9.92429 326.601 10.4355ZM322.997 23.8044C322.131 17.7046 313.742 17.6445 312.752 23.6169C313.051 23.8822 313.366 24.1175 313.691 24.3263C315.037 25.1878 316.594 25.5788 318.144 25.5381C319.697 25.4974 321.235 25.0162 322.542 24.1352C322.698 24.0308 322.85 23.9211 322.997 23.8044ZM315.589 14.4761H318.482C318.363 13.4465 318.434 12.4717 318.74 11.566C319.253 11.6757 319.711 11.9393 320.068 12.3072C320.543 12.799 320.839 13.4801 320.839 14.232C320.839 14.9838 320.545 15.6649 320.068 16.1567C319.593 16.6485 318.935 16.9546 318.209 16.9546C317.483 16.9546 316.825 16.6503 316.35 16.1567C315.926 15.7197 315.646 15.1324 315.589 14.4761ZM325.436 10.2746C325.627 10.2746 325.784 10.4373 325.784 10.6355V10.9857C325.784 11.1839 325.627 11.3466 325.436 11.3466C325.244 11.3466 325.087 11.1839 325.087 10.9857V10.6355C325.087 10.4355 325.242 10.2746 325.436 10.2746Z" fill="#707070"/>
<rect x="300.75" y="44.75" width="34.5" height="34.5" rx="11.25" fill="#FFF1CD"/>
<rect x="300.75" y="44.75" width="34.5" height="34.5" rx="11.25" stroke="#FFE6AA" stroke-width="1.5"/>
<path fill-rule="evenodd" clip-rule="evenodd" d="M318 50.5713C319.739 50.5713 321.149 51.998 321.149 53.7577C321.149 55.5173 319.739 56.944 318 56.944C316.261 56.944 314.851 55.5173 314.851 53.7577C314.851 51.998 316.261 50.5713 318 50.5713ZM314.662 65.0485L317.164 67.6136L315.32 69.4793L316.798 71.0139L317.302 71.5366C318.164 72.6898 316.872 74.0589 315.748 73.1083L312.469 69.7211C311.973 69.0254 311.826 68.2702 312.333 67.4053L314.662 65.0485ZM321.337 65.0485L318.837 67.6154L320.68 69.4811L319.202 71.0157L318.699 71.5384C317.837 72.6917 319.129 74.0607 320.252 73.1102L323.531 69.7229C324.028 69.0273 324.175 68.2721 323.667 67.4071L321.337 65.0485ZM325.489 64.204C324.976 64.5779 324.322 64.4049 323.886 63.9417L321.373 61.2762V63.7018H314.62V61.2836L312.114 63.9417C311.679 64.4049 311.022 64.5779 310.511 64.204C309.998 63.8301 309.8 63.0266 310.252 62.582L313.552 59.338C314.089 58.8097 315.122 57.5597 315.818 57.5597H320.239C320.892 57.5597 321.903 58.8004 322.447 59.338L325.747 62.582C326.201 63.0266 326 63.8301 325.489 64.204Z" fill="#707070"/>
<g clip-path="url(#clip0_3684_779)">
<path d="M276.495 48.0468C276.518 47.6783 276.542 47.2729 276.564 46.9044C276.797 43.6637 277.07 40.3884 277.303 37.1477C277.325 36.7792 277.345 36.4475 277.405 36.0813C277.472 35.6045 277.62 35.0216 278.254 35.1708C278.516 35.2235 278.784 35.7945 278.801 36.1284C278.788 38.8645 278.739 41.5615 278.688 44.2954C278.687 44.9241 278.612 45.5484 278.911 46.2321C279.408 45.5223 279.831 44.7711 280.363 44.1004C280.609 43.7824 281.196 43.4479 281.531 43.542C282.2 43.7303 282.08 44.4628 281.828 44.8914C280.715 47.0435 279.6 49.2325 278.303 51.2995C277.468 52.6177 276.338 52.5496 275.666 51.1407C274.758 49.2736 274.122 47.2751 273.406 45.3457C273.307 45.1178 273.593 44.7651 273.686 44.4749C273.98 44.6036 274.433 44.6308 274.57 44.861C274.92 45.3259 275.111 45.9292 275.381 46.4633C275.649 47.0342 275.917 47.6051 276.187 48.1392C276.267 48.0701 276.382 48.04 276.495 48.0468Z" fill="#FFD500"/>
</g>
<g clip-path="url(#clip1_3684_779)">
<path d="M142.441 38.3735C142.46 38.7422 142.481 39.1478 142.5 39.5165C142.629 42.763 142.722 46.0483 142.852 49.2948C142.871 49.6635 142.888 49.9953 142.869 50.366C142.856 50.8472 142.773 51.443 142.127 51.3653C141.861 51.3421 141.531 50.8045 141.476 50.4746C141.185 47.754 140.934 45.0683 140.68 42.3458C140.61 41.7209 140.616 41.0922 140.242 40.446C139.828 41.2067 139.491 42.0003 139.037 42.7261C138.828 43.0696 138.281 43.4674 137.938 43.4111C137.252 43.2985 137.29 42.5572 137.493 42.1032C138.359 39.8405 139.223 37.541 140.282 35.3424C140.965 33.9394 142.096 33.8812 142.92 35.2066C144.031 36.9608 144.885 38.8761 145.811 40.7138C145.936 40.9292 145.691 41.3115 145.631 41.6104C145.324 41.5153 144.871 41.5386 144.709 41.3251C144.309 40.9021 144.053 40.3238 143.725 39.8231C143.395 39.2856 143.065 38.7481 142.737 38.2474C142.665 38.325 142.554 38.3677 142.441 38.3735Z" fill="#FFD500"/>
</g>
<g clip-path="url(#clip2_3684_779)">
<path d="M210.957 16.3433C210.514 16.3429 210.027 16.3424 209.584 16.342C205.685 16.293 201.742 16.1987 197.844 16.1497C197.401 16.1492 197.002 16.1489 196.559 16.1031C195.983 16.0573 195.274 15.9208 195.408 15.151C195.452 14.834 196.117 14.4723 196.516 14.4274C199.795 14.2493 203.029 14.1165 206.307 13.9838C207.061 13.9392 207.814 13.9852 208.612 13.5784C207.726 13.034 206.796 12.5803 205.955 11.9907C205.556 11.7186 205.114 11.0388 205.203 10.6312C205.381 9.81619 206.267 9.90761 206.798 10.1799C209.455 11.3599 212.157 12.5401 214.725 13.9465C216.363 14.8539 216.362 16.2126 214.722 17.1169C212.55 18.3376 210.201 19.2412 207.941 20.2354C207.675 20.3711 207.232 20.0536 206.878 19.9627C207.011 19.6005 207.011 19.057 207.277 18.8761C207.809 18.4237 208.519 18.1526 209.139 17.7909C209.804 17.4292 210.469 17.0675 211.089 16.7058C211.001 16.6151 210.957 16.4792 210.957 16.3433Z" fill="#FFD500"/>
</g>
<g clip-path="url(#clip3_3684_779)">
<path d="M200.476 64.9479C200.919 64.9473 201.406 64.9467 201.849 64.9462C205.748 64.9866 209.691 65.0722 213.589 65.1126C214.032 65.112 214.431 65.1115 214.874 65.1563C215.45 65.2008 216.159 65.3358 216.027 66.1059C215.983 66.423 215.319 66.7862 214.921 66.832C211.642 67.0172 208.409 67.1572 205.13 67.2972C204.377 67.3434 203.624 67.299 202.827 67.7077C203.714 68.25 204.645 68.7018 205.487 69.2895C205.886 69.5607 206.33 70.2395 206.242 70.6473C206.066 71.4627 205.18 71.3732 204.648 71.1022C201.988 69.9279 199.284 68.7538 196.713 67.353C195.073 66.4493 195.071 65.0905 196.709 64.1827C198.878 62.9571 201.225 62.0484 203.483 61.0491C203.749 60.9129 204.192 61.2294 204.547 61.3195C204.414 61.682 204.415 62.2255 204.15 62.407C203.618 62.8606 202.91 63.1332 202.29 63.4963C201.626 63.8595 200.962 64.2226 200.342 64.5857C200.431 64.6762 200.475 64.812 200.476 64.9479Z" fill="#FFD500"/>
</g>
<defs>
<clipPath id="clip0_3684_779">
<rect width="8.56733" height="17.1347" fill="white" transform="translate(274.008 34.9014) rotate(3.44778)"/>
</clipPath>
<clipPath id="clip1_3684_779">
<rect width="8.56733" height="17.1347" fill="white" transform="translate(146.377 51.1602) rotate(177.053)"/>
</clipPath>
<clipPath id="clip2_3684_779">
<rect width="10.2808" height="20.5616" fill="white" transform="translate(195.387 20.2568) rotate(-89.9453)"/>
</clipPath>
<clipPath id="clip3_3684_779">
<rect width="10.2808" height="20.5616" fill="white" transform="translate(216.037 61) rotate(89.9281)"/>
</clipPath>
</defs>
</svg>
