<svg width="420" height="80" viewBox="0 0 420 80" fill="none" xmlns="http://www.w3.org/2000/svg">
<g clip-path="url(#clip0_3684_765)">
<path d="M226.121 31.8156C225.916 32.1604 225.692 32.5396 225.487 32.8843C223.655 35.8969 221.766 38.9232 219.933 41.9358C219.729 42.2806 219.545 42.5908 219.306 42.9146C219.005 43.3419 218.572 43.8308 218.035 43.3724C217.808 43.1917 217.833 42.5076 217.981 42.1765C219.352 39.542 220.737 36.9629 222.143 34.3493C222.455 33.7424 222.838 33.1773 222.888 32.3688C222.057 32.8077 221.276 33.3228 220.429 33.7063C220.034 33.8912 219.301 33.9227 219.025 33.6658C218.472 33.152 218.951 32.5044 219.408 32.216C221.55 30.6906 223.712 29.1308 225.989 27.7787C227.45 26.9209 228.507 27.5474 228.456 29.2405C228.407 31.4935 228.029 33.7381 227.762 35.9556C227.746 36.2251 227.295 36.4237 227.061 36.6577C226.84 36.3872 226.417 36.1366 226.399 35.8462C226.291 35.2238 226.407 34.5469 226.411 33.8972C226.435 33.2131 226.46 32.529 226.464 31.8793C226.353 31.9065 226.226 31.8783 226.121 31.8156Z" fill="#FFD500"/>
</g>
<g clip-path="url(#clip1_3684_765)">
<path d="M134.268 29.7156C134.481 30.055 134.715 30.4283 134.928 30.7677C136.768 33.7761 138.594 36.8403 140.434 39.8487C140.647 40.1881 140.839 40.4935 141.017 40.8547C141.259 41.3177 141.496 41.9261 140.842 42.1944C140.578 42.3129 139.981 41.978 139.755 41.6944C138.04 39.27 136.381 36.8577 134.7 34.4116C134.304 33.8564 133.976 33.2576 133.28 32.8427C133.29 33.7828 133.39 34.7133 133.344 35.6412C133.328 36.0773 133.02 36.7433 132.665 36.8714C131.956 37.1276 131.599 36.4053 131.552 35.8674C131.176 33.2649 130.778 30.6284 130.618 27.9849C130.524 26.2936 131.565 25.6404 133.047 26.4606C135.028 27.5357 136.851 28.8989 138.7 30.1508C138.932 30.2891 138.902 30.7809 139.003 31.096C138.662 31.1684 138.245 31.4297 137.979 31.3131C137.376 31.1236 136.827 30.7112 136.252 30.4103C135.654 30.0754 135.057 29.7405 134.482 29.4396C134.455 29.551 134.372 29.6503 134.268 29.7156Z" fill="#FFD500"/>
</g>
<g clip-path="url(#clip2_3684_765)">
<path d="M302.066 37.2338C301.822 37.4752 301.552 37.7407 301.307 37.982C299.127 40.0807 296.897 42.1786 294.717 44.2773C294.472 44.5187 294.252 44.7359 293.982 44.9522C293.639 45.2409 293.173 45.5519 292.827 45.0538C292.679 44.8544 292.849 44.292 293.045 44.0498C294.759 42.1637 296.473 40.3268 298.212 38.4657C298.603 38.0304 299.044 37.6452 299.263 36.9854C298.477 37.1676 297.716 37.424 296.93 37.557C296.561 37.6239 295.946 37.4897 295.773 37.216C295.427 36.6687 295.967 36.2361 296.409 36.0968C298.52 35.2998 300.655 34.4787 302.841 33.8552C304.241 33.4631 304.981 34.2144 304.568 35.6082C304.034 37.4668 303.229 39.2468 302.523 41.0285C302.45 41.2485 302.032 41.3145 301.787 41.4575C301.663 41.1848 301.367 40.8843 301.415 40.6393C301.462 40.0993 301.706 39.5629 301.852 39.0247C302.022 38.4623 302.192 37.9 302.337 37.3618C302.239 37.36 302.14 37.309 302.066 37.2338Z" fill="#FFD500"/>
</g>
<rect x="84.75" y="0.75" width="34.5" height="34.5" rx="11.25" fill="#FFF1CD"/>
<rect x="84.75" y="0.75" width="34.5" height="34.5" rx="11.25" stroke="#FFE6AA" stroke-width="1.5"/>
<path d="M94.0996 23.5H109.897C110.151 23.5 110.381 23.5949 110.558 23.75H93.4404C93.6166 23.5951 93.8466 23.5 94.0996 23.5Z" fill="#707070" stroke="#707070" stroke-width="1.12489"/>
<path d="M91.875 27.9087V10.1573C91.875 10.1573 92.1161 7.87598 94.8881 7.87598C97.6602 7.87598 97.9013 10.1573 97.9013 10.1573V11.9018" stroke="#707070" stroke-width="2" stroke-linecap="round"/>
<path d="M91.877 15.8311L111.945 15.8311" stroke="#707070" stroke-width="2" stroke-linecap="round"/>
<path d="M91.875 26.3994C91.875 24.7686 93.4418 24.8938 93.4418 24.8938H110.677C110.677 24.8938 112.123 24.8938 112.123 26.3994" stroke="#707070" stroke-width="2" stroke-linecap="round"/>
<path d="M112.123 28.124L112.123 14.7458" stroke="#707070" stroke-width="2" stroke-linecap="round"/>
<path d="M96.1875 12.6208C96.1875 12.6208 96.6396 11.9746 97.9959 11.9746C99.3522 11.9746 99.8043 12.6208 99.8043 12.6208" stroke="#707070" stroke-width="2" stroke-linecap="round"/>
<path d="M96.0703 24.5078L96.0703 16.1916" stroke="#707070" stroke-width="2"/>
<path d="M100.084 24.5078L100.084 16.1916" stroke="#707070" stroke-width="2"/>
<path d="M104.1 24.5078L104.1 16.1916" stroke="#707070" stroke-width="2"/>
<path d="M108.113 24.5078L108.113 16.1916" stroke="#707070" stroke-width="2"/>
<rect x="156" width="36" height="36" rx="12" fill="#FFD500"/>
<rect x="156.75" y="0.75" width="34.5" height="34.5" rx="11.25" stroke="#FFC93C" stroke-opacity="0.9" stroke-width="1.5"/>
<path d="M179.558 16.6045C179.558 18.6857 178.686 20.6817 177.133 22.1534C175.58 23.6251 173.475 24.4518 171.279 24.4518C169.083 24.4518 166.977 23.6251 165.425 22.1534C163.872 20.6817 163 18.6857 163 16.6045L179.558 16.6045Z" fill="#505050" stroke="#505050" stroke-width="2"/>
<path d="M163.812 16.4218C163.813 14.5753 164.441 12.7743 165.613 11.2662C166.766 9.78208 168.388 8.65346 170.263 8.02984C170.314 8.01294 170.369 8.03962 170.388 8.08985L173.638 16.8668" stroke="#505050" stroke-width="2"/>
<path d="M169.824 26.6191C169.824 27.5613 169.06 28.3251 168.118 28.3251C167.176 28.3251 166.412 27.5613 166.412 26.6191C166.412 25.6769 167.176 24.9131 168.118 24.9131C169.06 24.9131 169.824 25.6769 169.824 26.6191Z" fill="#505050" stroke="#505050" stroke-width="2"/>
<path d="M184.942 15.2765C184.942 16.3757 184.05 17.2668 182.951 17.2668C181.852 17.2668 180.961 16.3757 180.961 15.2765C180.961 14.1772 181.852 13.2861 182.951 13.2861C184.05 13.2861 184.942 14.1772 184.942 15.2765Z" fill="#505050" stroke="#505050" stroke-width="2"/>
<path d="M179.219 16.7534C179.283 16.6527 179.397 16.4567 180.028 16.16C180.366 16.0012 180.675 15.9226 180.999 15.8633" stroke="#505050" stroke-width="2"/>
<path d="M176.08 26.6191C176.08 27.5613 175.316 28.3251 174.374 28.3251C173.432 28.3251 172.668 27.5613 172.668 26.6191C172.668 25.6769 173.432 24.9131 174.374 24.9131C175.316 24.9131 176.08 25.6769 176.08 26.6191Z" fill="#505050" stroke="#505050" stroke-width="2"/>
<rect x="228.75" y="0.75" width="34.5" height="34.5" rx="11.25" fill="#FFF1CD"/>
<rect x="228.75" y="0.75" width="34.5" height="34.5" rx="11.25" stroke="#FFE6AA" stroke-width="1.5"/>
<path fill-rule="evenodd" clip-rule="evenodd" d="M246 6.57129C247.739 6.57129 249.149 7.99799 249.149 9.75765C249.149 11.5173 247.739 12.944 246 12.944C244.261 12.944 242.851 11.5173 242.851 9.75765C242.851 7.99799 244.261 6.57129 246 6.57129ZM242.662 21.0485L245.164 23.6136L243.32 25.4793L244.798 27.0139L245.302 27.5366C246.164 28.6898 244.872 30.0589 243.748 29.1083L240.469 25.7211C239.973 25.0254 239.826 24.2702 240.333 23.4053L242.662 21.0485ZM249.337 21.0485L246.837 23.6154L248.68 25.4811L247.202 27.0157L246.699 27.5384C245.837 28.6917 247.129 30.0607 248.252 29.1102L251.531 25.7229C252.028 25.0273 252.175 24.2721 251.667 23.4071L249.337 21.0485ZM253.489 20.204C252.976 20.5779 252.322 20.4049 251.886 19.9417L249.373 17.2762V19.7018H242.62V17.2836L240.114 19.9417C239.679 20.4049 239.022 20.5779 238.511 20.204C237.998 19.8301 237.8 19.0266 238.252 18.582L241.552 15.338C242.089 14.8097 243.122 13.5597 243.818 13.5597H248.239C248.892 13.5597 249.903 14.8004 250.447 15.338L253.747 18.582C254.201 19.0266 254 19.8301 253.489 20.204Z" fill="#707070"/>
<rect x="300.75" y="0.75" width="34.5" height="34.5" rx="11.25" fill="#FFF1CD"/>
<rect x="300.75" y="0.75" width="34.5" height="34.5" rx="11.25" stroke="#FFE6AA" stroke-width="1.5"/>
<path fill-rule="evenodd" clip-rule="evenodd" d="M326.601 10.4355L326.792 11.5518C328.088 15.3536 325.786 15.3925 324.877 13.3616C324.118 13.0502 323.633 13.2554 323.511 14.1541L324.446 18.5927L324.41 22.3679C324.967 21.6284 325.412 20.7669 325.702 19.7886C325.935 19.0067 326.734 18.5679 327.49 18.8085C328.245 19.0491 328.669 19.8771 328.436 20.659C327.661 23.2772 326.078 25.2869 324.101 26.619C322.351 27.7989 320.29 28.4411 318.212 28.4959C316.131 28.5526 314.026 28.0165 312.19 26.8436C310.191 25.5646 308.525 23.5373 307.578 20.7032C307.322 19.9319 307.718 19.0898 308.463 18.8245C309.208 18.5591 310.022 18.9695 310.278 19.7408C310.546 20.544 310.888 21.2587 311.288 21.8885L311.322 18.7413C311.394 17.9824 311.654 17.25 312.185 16.5601H310.652C309.302 16.4539 309.152 14.8087 310.652 14.4779H314.752C314.81 15.3712 315.184 16.1762 315.758 16.7723C316.385 17.4216 317.252 17.8232 318.209 17.8232C319.166 17.8232 320.032 17.4216 320.659 16.7723C321.286 16.1231 321.674 15.2262 321.674 14.2355C321.674 13.2448 321.286 12.3479 320.659 11.6987C320.23 11.2546 319.69 10.9273 319.085 10.7628C319.641 9.70138 320.57 8.7514 321.956 7.93232C323.308 7.39452 324.844 7.27599 326.77 8.05615C327.531 8.40997 327.96 8.76555 327.828 9.11936C327.702 9.46256 327.462 9.45371 327.199 9.52978C326.784 9.65008 326.553 9.92429 326.601 10.4355ZM322.997 23.8044C322.131 17.7046 313.742 17.6445 312.752 23.6169C313.051 23.8822 313.366 24.1175 313.691 24.3263C315.037 25.1878 316.594 25.5788 318.144 25.5381C319.697 25.4974 321.235 25.0162 322.542 24.1352C322.698 24.0308 322.85 23.9211 322.997 23.8044ZM315.589 14.4761H318.482C318.363 13.4465 318.434 12.4717 318.74 11.566C319.253 11.6757 319.711 11.9393 320.068 12.3072C320.543 12.799 320.839 13.4801 320.839 14.232C320.839 14.9838 320.545 15.6649 320.068 16.1567C319.593 16.6485 318.935 16.9546 318.209 16.9546C317.483 16.9546 316.825 16.6503 316.35 16.1567C315.926 15.7197 315.646 15.1324 315.589 14.4761ZM325.436 10.2746C325.627 10.2746 325.784 10.4373 325.784 10.6355V10.9857C325.784 11.1839 325.627 11.3466 325.436 11.3466C325.244 11.3466 325.087 11.1839 325.087 10.9857V10.6355C325.087 10.4355 325.242 10.2746 325.436 10.2746Z" fill="#707070"/>
<rect x="84" y="47" width="252" height="5" rx="2.5" fill="#FFE6AA"/>
<rect x="84" y="56.333" width="252" height="5" rx="2.5" fill="#FFE6AA"/>
<rect x="84" y="65.667" width="252" height="5" rx="2.5" fill="#FFF1CD"/>
<rect x="84" y="75" width="252" height="5" rx="2.5" fill="#FFF1CD"/>
<defs>
<clipPath id="clip0_3684_765">
<rect width="9.29853" height="18.597" fill="white" transform="translate(222 45.7393) rotate(-149.35)"/>
</clipPath>
<clipPath id="clip1_3684_765">
<rect width="9.29853" height="18.597" fill="white" transform="translate(144.762 39.752) rotate(147.887)"/>
</clipPath>
<clipPath id="clip2_3684_765">
<rect width="7.97981" height="15.9596" fill="white" transform="translate(295.6 47.8857) rotate(-134.574)"/>
</clipPath>
</defs>
</svg>
