<svg width="499" height="100" viewBox="0 0 499 100" fill="none" xmlns="http://www.w3.org/2000/svg">
<rect x="0.75" y="0.75" width="34.5" height="34.5" rx="11.25" fill="#FFF1CD"/>
<rect x="0.75" y="0.75" width="34.5" height="34.5" rx="11.25" stroke="#FFE6AA" stroke-width="1.5"/>
<path d="M10.0996 23.5H25.8975C26.1507 23.5 26.3814 23.5949 26.5576 23.75H9.44043C9.61655 23.5951 9.84661 23.5 10.0996 23.5Z" fill="#707070" stroke="#707070" stroke-width="1.12489"/>
<path d="M7.875 27.9087V10.1573C7.875 10.1573 8.11605 7.87598 10.8881 7.87598C13.6602 7.87598 13.9013 10.1573 13.9013 10.1573V11.9018" stroke="#707070" stroke-width="2" stroke-linecap="round"/>
<path d="M7.87695 15.8311L27.9453 15.8311" stroke="#707070" stroke-width="2" stroke-linecap="round"/>
<path d="M7.875 26.3994C7.875 24.7686 9.44181 24.8938 9.44181 24.8938H26.6768C26.6768 24.8938 28.123 24.8938 28.123 26.3994" stroke="#707070" stroke-width="2" stroke-linecap="round"/>
<path d="M28.123 28.124L28.123 14.7458" stroke="#707070" stroke-width="2" stroke-linecap="round"/>
<path d="M12.1875 12.6208C12.1875 12.6208 12.6396 11.9746 13.9959 11.9746C15.3522 11.9746 15.8043 12.6208 15.8043 12.6208" stroke="#707070" stroke-width="2" stroke-linecap="round"/>
<path d="M12.0703 24.5078L12.0703 16.1916" stroke="#707070" stroke-width="2"/>
<path d="M16.084 24.5078L16.084 16.1916" stroke="#707070" stroke-width="2"/>
<path d="M20.0996 24.5078L20.0996 16.1916" stroke="#707070" stroke-width="2"/>
<path d="M24.1133 24.5078L24.1133 16.1916" stroke="#707070" stroke-width="2"/>
<g clip-path="url(#clip0_3643_10483)">
<path d="M140.127 19.0653C139.739 19.0649 139.312 19.0645 138.924 19.0641C135.511 19.0212 132.06 18.9386 128.647 18.8957C128.259 18.8953 127.91 18.895 127.522 18.855C127.018 18.8149 126.398 18.6953 126.515 18.0214C126.554 17.7439 127.136 17.4273 127.485 17.388C130.355 17.2321 133.186 17.1159 136.056 16.9997C136.716 16.9607 137.375 17.0009 138.073 16.6448C137.298 16.1683 136.484 15.771 135.748 15.2549C135.399 15.0166 135.012 14.4216 135.089 14.0648C135.245 13.3513 136.021 13.4313 136.486 13.6696C138.812 14.7027 141.177 15.7358 143.425 16.9671C144.859 17.7614 144.858 18.9508 143.422 19.7424C141.521 20.8111 139.465 21.6021 137.486 22.4725C137.253 22.5912 136.866 22.3133 136.555 22.2337C136.672 21.9166 136.673 21.4409 136.905 21.2825C137.371 20.8864 137.992 20.6492 138.535 20.3325C139.117 20.0159 139.699 19.6992 140.243 19.3826C140.165 19.3032 140.126 19.1842 140.127 19.0653Z" fill="#FFD500"/>
</g>
<rect x="235.75" y="0.75" width="34.5" height="34.5" rx="11.25" fill="#FFF1CD"/>
<rect x="235.75" y="0.75" width="34.5" height="34.5" rx="11.25" stroke="#FFE6AA" stroke-width="1.5"/>
<path fill-rule="evenodd" clip-rule="evenodd" d="M261.601 10.4355L261.792 11.5518C263.088 15.3536 260.786 15.3925 259.877 13.3616C259.118 13.0502 258.633 13.2554 258.511 14.1541L259.446 18.5927L259.41 22.3679C259.967 21.6284 260.412 20.7669 260.702 19.7886C260.935 19.0067 261.734 18.5679 262.49 18.8085C263.245 19.0491 263.669 19.8771 263.436 20.659C262.661 23.2772 261.078 25.2869 259.101 26.619C257.351 27.7989 255.29 28.4411 253.212 28.4959C251.131 28.5526 249.026 28.0165 247.19 26.8436C245.191 25.5646 243.525 23.5373 242.578 20.7032C242.322 19.9319 242.718 19.0898 243.463 18.8245C244.208 18.5591 245.022 18.9695 245.278 19.7408C245.546 20.544 245.888 21.2587 246.288 21.8885L246.322 18.7413C246.394 17.9824 246.654 17.25 247.185 16.5601H245.652C244.302 16.4539 244.152 14.8087 245.652 14.4779H249.752C249.81 15.3712 250.184 16.1762 250.758 16.7723C251.385 17.4216 252.252 17.8232 253.209 17.8232C254.166 17.8232 255.032 17.4216 255.659 16.7723C256.286 16.1231 256.674 15.2262 256.674 14.2355C256.674 13.2448 256.286 12.3479 255.659 11.6987C255.23 11.2546 254.69 10.9273 254.085 10.7628C254.641 9.70138 255.57 8.7514 256.956 7.93232C258.308 7.39452 259.844 7.27599 261.77 8.05615C262.531 8.40997 262.96 8.76555 262.828 9.11936C262.702 9.46256 262.462 9.45371 262.199 9.52978C261.784 9.65008 261.553 9.92429 261.601 10.4355ZM257.997 23.8044C257.131 17.7046 248.742 17.6445 247.752 23.6169C248.051 23.8822 248.366 24.1175 248.691 24.3263C250.037 25.1878 251.594 25.5788 253.144 25.5381C254.697 25.4974 256.235 25.0162 257.542 24.1352C257.698 24.0308 257.85 23.9211 257.997 23.8044ZM250.589 14.4761H253.482C253.363 13.4465 253.434 12.4717 253.74 11.566C254.253 11.6757 254.711 11.9393 255.068 12.3072C255.543 12.799 255.839 13.4801 255.839 14.232C255.839 14.9838 255.545 15.6649 255.068 16.1567C254.593 16.6485 253.935 16.9546 253.209 16.9546C252.483 16.9546 251.825 16.6503 251.35 16.1567C250.926 15.7197 250.646 15.1324 250.589 14.4761ZM260.436 10.2746C260.627 10.2746 260.784 10.4373 260.784 10.6355V10.9857C260.784 11.1839 260.627 11.3466 260.436 11.3466C260.244 11.3466 260.087 11.1839 260.087 10.9857V10.6355C260.087 10.4355 260.242 10.2746 260.436 10.2746Z" fill="#707070"/>
<g clip-path="url(#clip1_3643_10483)">
<path d="M17.7792 44.5784C17.7991 44.9657 17.821 45.3917 17.841 45.7791C17.9768 49.1895 18.0751 52.6407 18.2109 56.0512C18.2308 56.4385 18.2488 56.7871 18.2291 57.1765C18.2154 57.682 18.1285 58.3078 17.4494 58.2263C17.1703 58.2018 16.8236 57.6372 16.7661 57.2906C16.4602 54.4326 16.1958 51.6113 15.9295 48.7512C15.856 48.0948 15.8617 47.4343 15.4695 46.7555C15.0342 47.5546 14.6801 48.3883 14.2033 49.1507C13.9836 49.5116 13.4096 49.9294 13.0493 49.8703C12.3286 49.7521 12.3679 48.9734 12.5816 48.4963C13.4914 46.1194 14.3993 43.7038 15.5111 41.3942C16.2293 39.9203 17.4172 39.8592 18.2828 41.2515C19.4496 43.0943 20.3472 45.1064 21.32 47.0369C21.4507 47.2631 21.1935 47.6647 21.1302 47.9787C20.8075 47.8788 20.3323 47.9032 20.162 47.679C19.7421 47.2346 19.4726 46.6271 19.128 46.1012C18.7813 45.5365 18.4346 44.9718 18.09 44.4459C18.0147 44.5274 17.898 44.5722 17.7792 44.5784Z" fill="#FFD500"/>
</g>
<g clip-path="url(#clip2_3643_10483)">
<path d="M252.629 53.8093C252.652 53.4222 252.678 52.9963 252.701 52.6092C252.946 49.2048 253.233 45.7641 253.478 42.3598C253.501 41.9726 253.522 41.6242 253.585 41.2395C253.655 40.7386 253.811 40.1263 254.476 40.283C254.751 40.3384 255.033 40.9382 255.051 41.289C255.037 44.1633 254.986 46.9965 254.932 49.8684C254.932 50.5289 254.852 51.1847 255.167 51.903C255.688 51.1573 256.133 50.3682 256.692 49.6636C256.95 49.3295 257.567 48.9782 257.919 49.0771C258.622 49.2748 258.496 50.0443 258.23 50.4946C257.062 52.7554 255.89 55.0549 254.528 57.2263C253.65 58.611 252.463 58.5395 251.758 57.0594C250.804 55.0981 250.136 52.9986 249.384 50.9718C249.279 50.7323 249.579 50.3619 249.677 50.057C249.987 50.1922 250.462 50.2208 250.606 50.4626C250.974 50.951 251.174 51.5847 251.458 52.1458C251.74 52.7456 252.021 53.3453 252.305 53.9064C252.389 53.8337 252.51 53.8022 252.629 53.8093Z" fill="#FFD500"/>
</g>
<rect y="62.5088" width="36" height="36" rx="12" fill="#FFD500"/>
<rect x="0.75" y="63.2588" width="34.5" height="34.5" rx="11.25" stroke="#FFC93C" stroke-opacity="0.9" stroke-width="1.5"/>
<path d="M23.5578 79.1133C23.5578 81.1945 22.6855 83.1905 21.1329 84.6622C19.5804 86.1339 17.4746 86.9606 15.2789 86.9606C13.0832 86.9606 10.9774 86.1339 9.42483 84.6622C7.87224 83.1905 7 81.1945 7 79.1133L23.5578 79.1133Z" fill="#505050" stroke="#505050" stroke-width="2"/>
<path d="M7.8125 78.9305C7.8125 77.0841 8.44146 75.283 9.6129 73.775C10.7657 72.2909 12.3881 71.1622 14.2632 70.5386C14.314 70.5217 14.3689 70.5484 14.3875 70.5986L17.6379 79.3756" stroke="#505050" stroke-width="2"/>
<path d="M13.8241 89.1279C13.8241 90.0701 13.0603 90.8339 12.1181 90.8339C11.1759 90.8339 10.4121 90.0701 10.4121 89.1279C10.4121 88.1857 11.1759 87.4219 12.1181 87.4219C13.0603 87.4219 13.8241 88.1857 13.8241 89.1279Z" fill="#505050" stroke="#505050" stroke-width="2"/>
<path d="M28.9416 77.7853C28.9416 78.8845 28.0505 79.7756 26.9513 79.7756C25.852 79.7756 24.9609 78.8845 24.9609 77.7853C24.9609 76.686 25.852 75.7949 26.9513 75.7949C28.0505 75.7949 28.9416 76.686 28.9416 77.7853Z" fill="#505050" stroke="#505050" stroke-width="2"/>
<path d="M23.2188 79.2622C23.2835 79.1615 23.3968 78.9655 24.028 78.6688C24.3658 78.51 24.6753 78.4314 24.999 78.3721" stroke="#505050" stroke-width="2"/>
<path d="M20.08 89.1279C20.08 90.0701 19.3162 90.8339 18.374 90.8339C17.4318 90.8339 16.668 90.0701 16.668 89.1279C16.668 88.1857 17.4318 87.4219 18.374 87.4219C19.3162 87.4219 20.08 88.1857 20.08 89.1279Z" fill="#505050" stroke="#505050" stroke-width="2"/>
<g clip-path="url(#clip3_3643_10483)">
<path d="M130.871 79.4531C131.259 79.4526 131.686 79.4521 132.074 79.4516C135.487 79.487 138.938 79.5619 142.351 79.5973C142.739 79.5968 143.088 79.5964 143.476 79.6355C143.98 79.6746 144.601 79.7927 144.486 80.4669C144.447 80.7445 143.866 81.0624 143.517 81.1025C140.647 81.2647 137.816 81.3872 134.946 81.5097C134.287 81.5502 133.627 81.5114 132.93 81.8691C133.706 82.3439 134.521 82.7393 135.259 83.2538C135.608 83.4913 135.997 84.0855 135.919 84.4425C135.765 85.1563 134.989 85.078 134.524 84.8407C132.195 83.8128 129.828 82.7849 127.577 81.5586C126.141 80.7674 126.14 79.578 127.574 78.7832C129.473 77.7104 131.527 76.9148 133.504 76.0401C133.737 75.9208 134.125 76.1979 134.435 76.2768C134.319 76.5941 134.32 77.0699 134.088 77.2288C133.623 77.6259 133.002 77.8645 132.46 78.1824C131.878 78.5003 131.297 78.8182 130.755 79.1361C130.832 79.2153 130.871 79.3342 130.871 79.4531Z" fill="#FFD500"/>
</g>
<rect x="235.75" y="63.2588" width="34.5" height="34.5" rx="11.25" fill="#FFF1CD"/>
<rect x="235.75" y="63.2588" width="34.5" height="34.5" rx="11.25" stroke="#FFE6AA" stroke-width="1.5"/>
<path fill-rule="evenodd" clip-rule="evenodd" d="M253 69.0801C254.739 69.0801 256.149 70.5068 256.149 72.2664C256.149 74.0261 254.739 75.4528 253 75.4528C251.261 75.4528 249.851 74.0261 249.851 72.2664C249.851 70.5068 251.261 69.0801 253 69.0801ZM249.662 83.5573L252.164 86.1224L250.32 87.9881L251.798 89.5226L252.302 90.0453C253.164 91.1986 251.872 92.5676 250.748 91.6171L247.469 88.2299C246.973 87.5342 246.826 86.779 247.333 85.914L249.662 83.5573ZM256.337 83.5573L253.837 86.1242L255.68 87.9899L254.202 89.5245L253.699 90.0472C252.837 91.2005 254.129 92.5695 255.252 91.619L258.531 88.2317C259.028 87.5361 259.175 86.7809 258.667 85.9159L256.337 83.5573ZM260.489 82.7128C259.976 83.0867 259.322 82.9137 258.886 82.4505L256.373 79.785V82.2106H249.62V79.7924L247.114 82.4505C246.679 82.9137 246.022 83.0867 245.511 82.7128C244.998 82.3389 244.8 81.5354 245.252 81.0908L248.552 77.8468C249.089 77.3185 250.122 76.0685 250.818 76.0685H255.239C255.892 76.0685 256.903 77.3092 257.447 77.8468L260.747 81.0908C261.201 81.5354 261 82.3389 260.489 82.7128Z" fill="#707070"/>
<defs>
<clipPath id="clip0_3643_10483">
<rect width="9" height="18" fill="white" transform="translate(126.496 22.4912) rotate(-89.9453)"/>
</clipPath>
<clipPath id="clip1_3643_10483">
<rect width="9" height="18" fill="white" transform="translate(21.9141 58.0107) rotate(177.053)"/>
</clipPath>
<clipPath id="clip2_3643_10483">
<rect width="9" height="18" fill="white" transform="translate(250.016 40) rotate(3.44778)"/>
</clipPath>
<clipPath id="clip3_3643_10483">
<rect width="9" height="18" fill="white" transform="translate(144.494 75.9971) rotate(89.9281)"/>
</clipPath>
</defs>
</svg>
