<svg width="29" height="28" viewBox="0 0 29 28" fill="none" xmlns="http://www.w3.org/2000/svg">
<g clip-path="url(#clip0_3113_11785)">
<path d="M9.14321 9.92856C9.58986 8.14285 11.376 5.91071 14.9459 5.91071C18.5159 5.91071 21.1959 8.58928 21.6424 11.2678C22.0888 13.9464 20.7495 15.2857 19.4102 16.625C18.4997 17.5355 18.0709 17.9643 17.1781 19.75C16.2852 21.5357 16.8805 24.0655 16.7317 24.6607C16.5828 25.2559 15.8388 25.5536 14.4995 25.5536C12.6784 25.5536 13.1602 23.7679 13.1602 22.875C13.1602 21.0343 13.0702 20.8214 12.713 19.75C12.2666 18.4107 11.3749 17.5178 10.0357 15.7321C8.69637 13.9464 8.80064 11.2982 9.14321 9.92856Z" fill="#FAEED4"/>
<mask id="path-2-inside-1_3113_11785" fill="white">
<path d="M11.7627 21.7642C11.5105 21.7703 11.2893 21.5994 11.2539 21.3654C11.2163 21.1213 11.3955 20.8955 11.6565 20.8487C11.3689 19.3492 10.5836 18.5232 9.75402 17.6504C9.10805 16.9709 8.43776 16.2649 7.90905 15.2253C7.38918 14.2019 7.10381 13.144 7.11266 12.0454C7.12372 10.9467 7.42679 9.81554 8.08602 8.64569C8.09045 8.63756 8.09487 8.63145 8.0993 8.62332C8.96426 7.27647 10.1743 6.37722 11.5216 5.87266C12.652 5.44745 13.8798 5.303 15.0832 5.40473C16.2822 5.50645 17.4569 5.85232 18.4833 6.40977C19.7907 7.11982 20.8614 8.17369 21.4521 9.50426C21.7707 10.2245 21.9874 11.0281 22.014 11.909C22.0405 12.7859 21.8768 13.732 21.4366 14.7329C20.8482 16.0737 20.0695 16.9058 19.3417 17.685C18.6714 18.4032 18.0475 19.0705 17.7002 20.0939C17.8971 20.1366 18.052 20.2851 18.0829 20.4804C18.1205 20.7327 17.9281 20.9667 17.6538 21.0012L17.4834 21.0236C17.4524 21.2454 17.4325 21.4834 17.4237 21.7377L17.479 21.7296C17.7533 21.695 18.0077 21.872 18.0453 22.1243C18.0829 22.3766 17.8905 22.6105 17.6162 22.6451L17.4436 22.6675C17.4458 22.698 17.448 22.7285 17.4502 22.7591C17.4657 22.9381 17.4679 23.111 17.4569 23.2758L17.4856 23.2718C17.7622 23.2412 18.0121 23.4223 18.0475 23.6746C18.0807 23.9289 17.8838 24.1588 17.6095 24.1913L17.2379 24.2341C16.9724 24.8668 16.499 25.349 15.9393 25.646C15.5544 25.8515 15.1274 25.9695 14.6983 25.9939C14.2625 26.0183 13.8222 25.9431 13.4196 25.764C12.9595 25.5565 12.548 25.2127 12.2494 24.7183C12.1056 24.6511 11.9994 24.5209 11.9773 24.3622C11.9684 24.2992 11.9751 24.2381 11.9928 24.1812C11.9065 23.9452 11.8423 23.6868 11.8003 23.402L11.7848 23.404C11.5105 23.4386 11.2561 23.2616 11.2185 23.0093C11.1809 22.757 11.3733 22.5231 11.6477 22.4885L11.7671 22.4722C11.776 22.224 11.7737 21.988 11.7627 21.7642ZM15.1451 14.4074C15.1451 14.2182 15.0965 14.0717 14.9925 13.9639C14.8907 13.8561 14.716 13.7584 14.4616 13.6608C14.2116 13.5672 13.9749 13.4695 13.7625 13.3739C13.5501 13.2762 13.3643 13.1643 13.2095 13.0362C13.0546 12.908 12.9374 12.7615 12.8533 12.5926C12.7692 12.4258 12.7316 12.2224 12.7316 11.9823C12.7316 11.5815 12.8798 11.2519 13.1719 10.9955C13.4639 10.7372 13.8554 10.5846 14.3443 10.5419V10.0047H14.9593V10.5561C15.4305 10.6192 15.8022 10.7962 16.072 11.0891C16.3419 11.3821 16.4791 11.7524 16.4791 12.202H15.1695C15.1695 11.9538 15.1164 11.7666 15.0146 11.6323C14.9129 11.5001 14.7646 11.433 14.5744 11.433C14.404 11.433 14.2713 11.4818 14.1806 11.5795C14.0855 11.6771 14.0412 11.8134 14.0412 11.9843C14.0412 12.1593 14.0943 12.2976 14.2049 12.4034C14.3156 12.5072 14.4859 12.6048 14.7248 12.7005C14.9637 12.7941 15.1916 12.8917 15.404 12.9894C15.6163 13.0911 15.7977 13.205 15.9548 13.3312C16.1096 13.4593 16.2313 13.6099 16.3198 13.7808C16.4061 13.9517 16.4525 14.1551 16.4525 14.3952C16.4525 14.8001 16.3132 15.1317 16.0322 15.386C15.7513 15.6403 15.3708 15.7909 14.8907 15.8336V16.3361H14.2757V15.8316C13.7138 15.7766 13.2825 15.6017 12.9816 15.3006C12.6807 14.9995 12.5303 14.6068 12.5303 14.1144H13.8355C13.8355 14.3871 13.8997 14.5885 14.028 14.7329C14.1563 14.8733 14.3421 14.9466 14.581 14.9466C14.7558 14.9466 14.8929 14.8977 14.9947 14.8041C15.0943 14.7106 15.1473 14.5763 15.1473 14.4094H15.1451V14.4074ZM2.48254 12.9751C2.22371 12.9812 2.00913 12.7961 2.00028 12.558C1.99143 12.32 2.19495 12.1227 2.45378 12.1145L4.37839 12.0535C4.63721 12.0454 4.8518 12.2325 4.86064 12.4706C4.86949 12.7086 4.66597 12.9059 4.40714 12.9141L2.48254 12.9751ZM26.4848 11.2234C26.7414 11.199 26.9715 11.3719 26.9981 11.6079C27.0246 11.8439 26.8366 12.0555 26.58 12.0799L24.6642 12.2651C24.4076 12.2895 24.1775 12.1166 24.151 11.8806C24.1244 11.6446 24.3125 11.433 24.5691 11.4086L26.4848 11.2234ZM22.9962 4.00702C23.14 3.80968 23.4298 3.75678 23.6444 3.88902C23.859 4.02126 23.9165 4.28778 23.7727 4.48513L22.702 5.95811C22.5582 6.15546 22.2684 6.20836 22.0538 6.07611C21.8392 5.94387 21.7817 5.67735 21.9255 5.48L22.9962 4.00702ZM14.7491 1.41913C14.7558 1.18109 14.9704 0.99392 15.227 1.00002C15.4836 1.00613 15.6893 1.20347 15.6827 1.43948L15.634 3.2095C15.6274 3.44753 15.4128 3.63471 15.1562 3.6286C14.8974 3.6225 14.6938 3.42515 14.7005 3.18915L14.7491 1.41913ZM5.0708 4.15961C4.88055 3.99685 4.87171 3.72423 5.04647 3.55129C5.22344 3.37633 5.51988 3.36819 5.70791 3.52891L7.11708 4.73741C7.30733 4.90017 7.31618 5.17279 7.14142 5.34573C6.96444 5.52069 6.66801 5.52883 6.47997 5.36811L5.0708 4.15961ZM12.5923 20.7246L16.6826 20.1895C17.0343 18.8264 17.7998 18.0065 18.6293 17.1214C19.3107 16.3931 20.0363 15.6159 20.5672 14.4074C20.9566 13.5224 21.1004 12.6923 21.0782 11.9274C21.0561 11.1644 20.8659 10.4605 20.5827 9.82367C20.0739 8.67825 19.1426 7.76679 18.0055 7.1483C17.0963 6.65391 16.0588 6.3467 14.9991 6.25922C13.9439 6.1697 12.8666 6.29788 11.8733 6.67019C10.7097 7.10761 9.66332 7.88479 8.91117 9.05463C8.32715 10.0963 8.05726 11.0932 8.04841 12.0515C8.03957 13.0158 8.29397 13.9496 8.75632 14.8591C9.22751 15.7868 9.85578 16.446 10.4575 17.0808C11.3955 18.0695 12.2826 19.0034 12.5923 20.7246ZM16.5167 21.1457L12.6962 21.6441C12.7073 21.8679 12.7117 22.1019 12.7073 22.3501L16.4791 21.8578C16.4835 21.6075 16.4946 21.3695 16.5167 21.1457ZM12.7272 23.2819C12.7538 23.4691 12.7936 23.64 12.8444 23.7987L16.5056 23.3837C16.53 23.2087 16.5344 23.0235 16.5167 22.8262V22.8221L16.5145 22.7875L12.7272 23.2819ZM13.3643 24.6735C13.5059 24.8098 13.663 24.9156 13.8289 24.9889C14.0833 25.1028 14.3642 25.1496 14.6408 25.1354C14.9239 25.1191 15.2093 25.0397 15.4681 24.9014C15.7115 24.7712 15.9305 24.5901 16.1052 24.3622L13.3643 24.6735Z"/>
</mask>
<path d="M11.7627 21.7642C11.5105 21.7703 11.2893 21.5994 11.2539 21.3654C11.2163 21.1213 11.3955 20.8955 11.6565 20.8487C11.3689 19.3492 10.5836 18.5232 9.75402 17.6504C9.10805 16.9709 8.43776 16.2649 7.90905 15.2253C7.38918 14.2019 7.10381 13.144 7.11266 12.0454C7.12372 10.9467 7.42679 9.81554 8.08602 8.64569C8.09045 8.63756 8.09487 8.63145 8.0993 8.62332C8.96426 7.27647 10.1743 6.37722 11.5216 5.87266C12.652 5.44745 13.8798 5.303 15.0832 5.40473C16.2822 5.50645 17.4569 5.85232 18.4833 6.40977C19.7907 7.11982 20.8614 8.17369 21.4521 9.50426C21.7707 10.2245 21.9874 11.0281 22.014 11.909C22.0405 12.7859 21.8768 13.732 21.4366 14.7329C20.8482 16.0737 20.0695 16.9058 19.3417 17.685C18.6714 18.4032 18.0475 19.0705 17.7002 20.0939C17.8971 20.1366 18.052 20.2851 18.0829 20.4804C18.1205 20.7327 17.9281 20.9667 17.6538 21.0012L17.4834 21.0236C17.4524 21.2454 17.4325 21.4834 17.4237 21.7377L17.479 21.7296C17.7533 21.695 18.0077 21.872 18.0453 22.1243C18.0829 22.3766 17.8905 22.6105 17.6162 22.6451L17.4436 22.6675C17.4458 22.698 17.448 22.7285 17.4502 22.7591C17.4657 22.9381 17.4679 23.111 17.4569 23.2758L17.4856 23.2718C17.7622 23.2412 18.0121 23.4223 18.0475 23.6746C18.0807 23.9289 17.8838 24.1588 17.6095 24.1913L17.2379 24.2341C16.9724 24.8668 16.499 25.349 15.9393 25.646C15.5544 25.8515 15.1274 25.9695 14.6983 25.9939C14.2625 26.0183 13.8222 25.9431 13.4196 25.764C12.9595 25.5565 12.548 25.2127 12.2494 24.7183C12.1056 24.6511 11.9994 24.5209 11.9773 24.3622C11.9684 24.2992 11.9751 24.2381 11.9928 24.1812C11.9065 23.9452 11.8423 23.6868 11.8003 23.402L11.7848 23.404C11.5105 23.4386 11.2561 23.2616 11.2185 23.0093C11.1809 22.757 11.3733 22.5231 11.6477 22.4885L11.7671 22.4722C11.776 22.224 11.7737 21.988 11.7627 21.7642ZM15.1451 14.4074C15.1451 14.2182 15.0965 14.0717 14.9925 13.9639C14.8907 13.8561 14.716 13.7584 14.4616 13.6608C14.2116 13.5672 13.9749 13.4695 13.7625 13.3739C13.5501 13.2762 13.3643 13.1643 13.2095 13.0362C13.0546 12.908 12.9374 12.7615 12.8533 12.5926C12.7692 12.4258 12.7316 12.2224 12.7316 11.9823C12.7316 11.5815 12.8798 11.2519 13.1719 10.9955C13.4639 10.7372 13.8554 10.5846 14.3443 10.5419V10.0047H14.9593V10.5561C15.4305 10.6192 15.8022 10.7962 16.072 11.0891C16.3419 11.3821 16.4791 11.7524 16.4791 12.202H15.1695C15.1695 11.9538 15.1164 11.7666 15.0146 11.6323C14.9129 11.5001 14.7646 11.433 14.5744 11.433C14.404 11.433 14.2713 11.4818 14.1806 11.5795C14.0855 11.6771 14.0412 11.8134 14.0412 11.9843C14.0412 12.1593 14.0943 12.2976 14.2049 12.4034C14.3156 12.5072 14.4859 12.6048 14.7248 12.7005C14.9637 12.7941 15.1916 12.8917 15.404 12.9894C15.6163 13.0911 15.7977 13.205 15.9548 13.3312C16.1096 13.4593 16.2313 13.6099 16.3198 13.7808C16.4061 13.9517 16.4525 14.1551 16.4525 14.3952C16.4525 14.8001 16.3132 15.1317 16.0322 15.386C15.7513 15.6403 15.3708 15.7909 14.8907 15.8336V16.3361H14.2757V15.8316C13.7138 15.7766 13.2825 15.6017 12.9816 15.3006C12.6807 14.9995 12.5303 14.6068 12.5303 14.1144H13.8355C13.8355 14.3871 13.8997 14.5885 14.028 14.7329C14.1563 14.8733 14.3421 14.9466 14.581 14.9466C14.7558 14.9466 14.8929 14.8977 14.9947 14.8041C15.0943 14.7106 15.1473 14.5763 15.1473 14.4094H15.1451V14.4074ZM2.48254 12.9751C2.22371 12.9812 2.00913 12.7961 2.00028 12.558C1.99143 12.32 2.19495 12.1227 2.45378 12.1145L4.37839 12.0535C4.63721 12.0454 4.8518 12.2325 4.86064 12.4706C4.86949 12.7086 4.66597 12.9059 4.40714 12.9141L2.48254 12.9751ZM26.4848 11.2234C26.7414 11.199 26.9715 11.3719 26.9981 11.6079C27.0246 11.8439 26.8366 12.0555 26.58 12.0799L24.6642 12.2651C24.4076 12.2895 24.1775 12.1166 24.151 11.8806C24.1244 11.6446 24.3125 11.433 24.5691 11.4086L26.4848 11.2234ZM22.9962 4.00702C23.14 3.80968 23.4298 3.75678 23.6444 3.88902C23.859 4.02126 23.9165 4.28778 23.7727 4.48513L22.702 5.95811C22.5582 6.15546 22.2684 6.20836 22.0538 6.07611C21.8392 5.94387 21.7817 5.67735 21.9255 5.48L22.9962 4.00702ZM14.7491 1.41913C14.7558 1.18109 14.9704 0.99392 15.227 1.00002C15.4836 1.00613 15.6893 1.20347 15.6827 1.43948L15.634 3.2095C15.6274 3.44753 15.4128 3.63471 15.1562 3.6286C14.8974 3.6225 14.6938 3.42515 14.7005 3.18915L14.7491 1.41913ZM5.0708 4.15961C4.88055 3.99685 4.87171 3.72423 5.04647 3.55129C5.22344 3.37633 5.51988 3.36819 5.70791 3.52891L7.11708 4.73741C7.30733 4.90017 7.31618 5.17279 7.14142 5.34573C6.96444 5.52069 6.66801 5.52883 6.47997 5.36811L5.0708 4.15961ZM12.5923 20.7246L16.6826 20.1895C17.0343 18.8264 17.7998 18.0065 18.6293 17.1214C19.3107 16.3931 20.0363 15.6159 20.5672 14.4074C20.9566 13.5224 21.1004 12.6923 21.0782 11.9274C21.0561 11.1644 20.8659 10.4605 20.5827 9.82367C20.0739 8.67825 19.1426 7.76679 18.0055 7.1483C17.0963 6.65391 16.0588 6.3467 14.9991 6.25922C13.9439 6.1697 12.8666 6.29788 11.8733 6.67019C10.7097 7.10761 9.66332 7.88479 8.91117 9.05463C8.32715 10.0963 8.05726 11.0932 8.04841 12.0515C8.03957 13.0158 8.29397 13.9496 8.75632 14.8591C9.22751 15.7868 9.85578 16.446 10.4575 17.0808C11.3955 18.0695 12.2826 19.0034 12.5923 20.7246ZM16.5167 21.1457L12.6962 21.6441C12.7073 21.8679 12.7117 22.1019 12.7073 22.3501L16.4791 21.8578C16.4835 21.6075 16.4946 21.3695 16.5167 21.1457ZM12.7272 23.2819C12.7538 23.4691 12.7936 23.64 12.8444 23.7987L16.5056 23.3837C16.53 23.2087 16.5344 23.0235 16.5167 22.8262V22.8221L16.5145 22.7875L12.7272 23.2819ZM13.3643 24.6735C13.5059 24.8098 13.663 24.9156 13.8289 24.9889C14.0833 25.1028 14.3642 25.1496 14.6408 25.1354C14.9239 25.1191 15.2093 25.0397 15.4681 24.9014C15.7115 24.7712 15.9305 24.5901 16.1052 24.3622L13.3643 24.6735Z" fill="#505050" stroke="white" stroke-width="0.4" mask="url(#path-2-inside-1_3113_11785)"/>
</g>
<defs>
<clipPath id="clip0_3113_11785">
<rect width="25" height="25" fill="white" transform="translate(2 1)"/>
</clipPath>
</defs>
</svg>
