<svg width="1512" height="900" viewBox="0 0 1512 900" fill="none" xmlns="http://www.w3.org/2000/svg">
<rect width="1512" height="900" rx="32" fill="url(#paint0_linear_3214_27228)"/>
<rect x="56" y="60" width="1399" height="780" rx="32" fill="white" fill-opacity="0.6"/>
<path d="M350.916 417.105L324.377 484" stroke="#AAAAAA" stroke-width="2" stroke-linecap="round"/>
<path d="M300.49 416L325.278 483.865" stroke="#777777" stroke-width="6" stroke-linecap="round"/>
<path d="M378.611 416L356.174 474.619" stroke="#AAAAAA" stroke-width="2" stroke-linecap="round"/>
<path d="M333.273 416.095L357.215 484" stroke="black" stroke-width="8" stroke-linecap="round"/>
<path d="M400.512 416L381.174 465.934" stroke="#777777" stroke-width="2" stroke-linecap="round"/>
<path d="M362.775 416.254L387.898 484" stroke="black" stroke-width="8" stroke-linecap="round"/>
<path d="M485.743 417.3L454.791 491.5H453.731L422.779 417.3H423.733C424.051 417.3 424.263 417.477 424.369 417.83L453.413 487.578C453.59 487.967 453.731 488.338 453.837 488.691C453.978 489.044 454.12 489.415 454.261 489.804C454.402 489.415 454.526 489.044 454.632 488.691C454.773 488.338 454.932 487.967 455.109 487.578L484.153 417.83C484.259 417.477 484.506 417.3 484.895 417.3H485.743ZM501.56 491.5H500.288V417.3H501.56V491.5ZM580.969 481.483C581.11 481.483 581.234 481.536 581.34 481.642L581.817 482.066C580.262 483.585 578.584 484.981 576.782 486.253C575.015 487.49 573.072 488.567 570.952 489.486C568.832 490.369 566.5 491.058 563.956 491.553C561.412 492.083 558.603 492.348 555.529 492.348C550.547 492.348 545.954 491.482 541.749 489.751C537.544 487.984 533.905 485.458 530.831 482.172C527.757 478.886 525.354 474.911 523.623 470.247C521.927 465.548 521.079 460.265 521.079 454.4C521.079 448.747 521.927 443.588 523.623 438.924C525.354 434.26 527.775 430.267 530.884 426.946C534.029 423.589 537.774 421.01 542.12 419.208C546.501 417.371 551.324 416.452 556.589 416.452C559.027 416.452 561.324 416.646 563.479 417.035C565.634 417.388 567.666 417.936 569.574 418.678C571.517 419.42 573.372 420.339 575.139 421.434C576.906 422.494 578.637 423.731 580.333 425.144L580.121 425.462C580.05 425.603 579.874 425.674 579.591 425.674C579.344 425.674 578.708 425.25 577.683 424.402C576.694 423.554 575.263 422.618 573.39 421.593C571.517 420.568 569.185 419.632 566.394 418.784C563.638 417.936 560.37 417.512 556.589 417.512C551.572 417.512 546.961 418.378 542.756 420.109C538.587 421.805 534.983 424.261 531.944 427.476C528.941 430.656 526.591 434.525 524.895 439.083C523.199 443.641 522.351 448.747 522.351 454.4C522.351 460.159 523.181 465.318 524.842 469.876C526.538 474.434 528.87 478.303 531.838 481.483C534.806 484.663 538.304 487.101 542.332 488.797C546.395 490.458 550.794 491.288 555.529 491.288C558.532 491.288 561.218 491.076 563.585 490.652C565.952 490.228 568.108 489.61 570.051 488.797C572.03 487.984 573.849 486.995 575.51 485.829C577.206 484.628 578.884 483.267 580.545 481.748C580.722 481.571 580.863 481.483 580.969 481.483ZM599.797 453.128H604.779C605.45 453.128 606.015 453.11 606.475 453.075C606.969 453.04 607.393 452.969 607.747 452.863C608.135 452.722 608.506 452.527 608.86 452.28C609.213 452.033 609.584 451.715 609.973 451.326L644.529 418.148C644.917 417.83 645.235 417.618 645.483 417.512C645.73 417.371 646.048 417.3 646.437 417.3H647.073L611.033 451.856C610.397 452.421 609.867 452.828 609.443 453.075C609.054 453.322 608.524 453.517 607.853 453.658C608.489 453.764 609.036 453.958 609.496 454.241C609.955 454.488 610.432 454.859 610.927 455.354L649.193 491.5H648.663C648.133 491.5 647.744 491.447 647.497 491.341C647.285 491.235 647.037 491.041 646.755 490.758L610.291 456.308C609.902 455.955 609.549 455.637 609.231 455.354C608.913 455.071 608.559 454.859 608.171 454.718C607.817 454.541 607.376 454.418 606.846 454.347C606.316 454.241 605.627 454.188 604.779 454.188H599.797V491.5H598.525V417.3H599.797V453.128ZM681.875 459.965V491.5H680.603V459.965L652.937 417.3H653.997C654.315 417.3 654.563 417.441 654.739 417.724L679.702 456.414C679.985 456.873 680.268 457.315 680.55 457.739C680.833 458.128 681.063 458.534 681.239 458.958C681.451 458.534 681.681 458.128 681.928 457.739C682.211 457.315 682.494 456.873 682.776 456.414L707.739 417.724C707.916 417.441 708.163 417.3 708.481 417.3H709.541L681.875 459.965ZM814.302 417.3L790.77 491.5H789.71L765.012 420.268C764.906 419.915 764.818 419.614 764.747 419.367C764.677 419.084 764.606 418.819 764.535 418.572C764.429 419.031 764.27 419.597 764.058 420.268L739.36 491.5H738.3L714.768 417.3H715.722C716.04 417.3 716.252 417.477 716.358 417.83L738.035 487.101C738.283 487.949 738.548 488.903 738.83 489.963C739.078 488.903 739.343 487.949 739.625 487.101L763.74 417.83C763.846 417.477 764.094 417.3 764.482 417.3H764.694C765.012 417.3 765.224 417.477 765.33 417.83L789.445 487.101C789.693 487.949 789.958 488.903 790.24 489.963C790.488 488.903 790.753 487.949 791.035 487.101L812.712 417.83C812.818 417.477 813.066 417.3 813.454 417.3H814.302ZM867.064 465.106L848.779 421.222C848.602 420.833 848.443 420.462 848.302 420.109C848.196 419.756 848.072 419.385 847.931 418.996C847.79 419.385 847.648 419.756 847.507 420.109C847.401 420.462 847.26 420.833 847.083 421.222L828.798 465.106H867.064ZM879.413 491.5H878.459C878.141 491.5 877.929 491.323 877.823 490.97L867.488 466.166H828.374L818.039 490.97C817.933 491.323 817.686 491.5 817.297 491.5H816.449L847.401 417.3H848.461L879.413 491.5ZM948.654 417.3V491.5H948.336C948.124 491.5 947.93 491.376 947.753 491.129L894.965 419.261C895 419.508 895.018 419.738 895.018 419.95C895.018 420.162 895.018 420.374 895.018 420.586V491.5H893.958V417.3H894.382C894.7 417.3 894.947 417.441 895.124 417.724L947.647 489.221C947.612 489.044 947.594 488.868 947.594 488.691C947.594 488.479 947.594 488.285 947.594 488.108V417.3H948.654ZM1031.6 459.594V484.186C1029.77 485.423 1027.88 486.553 1025.93 487.578C1023.99 488.567 1021.94 489.415 1019.79 490.122C1017.67 490.829 1015.4 491.376 1013 491.765C1010.63 492.154 1008.11 492.348 1005.42 492.348C999.627 492.348 994.433 491.482 989.84 489.751C985.247 487.984 981.342 485.458 978.127 482.172C974.947 478.886 972.491 474.911 970.76 470.247C969.064 465.548 968.216 460.265 968.216 454.4C968.216 448.57 969.064 443.323 970.76 438.659C972.456 433.96 974.894 429.967 978.074 426.681C981.254 423.395 985.088 420.869 989.575 419.102C994.098 417.335 999.168 416.452 1004.79 416.452C1007.54 416.452 1010.07 416.629 1012.37 416.982C1014.66 417.3 1016.8 417.812 1018.78 418.519C1020.76 419.19 1022.61 420.074 1024.34 421.169C1026.11 422.229 1027.82 423.483 1029.48 424.932L1029.27 425.25C1029.17 425.462 1028.99 425.568 1028.74 425.568C1028.57 425.568 1028.25 425.374 1027.79 424.985C1027.36 424.561 1026.75 424.066 1025.93 423.501C1025.12 422.9 1024.1 422.247 1022.86 421.54C1021.62 420.833 1020.14 420.197 1018.41 419.632C1016.68 419.031 1014.68 418.537 1012.42 418.148C1010.19 417.724 1007.65 417.512 1004.79 417.512C999.415 417.512 994.557 418.36 990.211 420.056C985.865 421.717 982.155 424.137 979.081 427.317C976.007 430.497 973.64 434.366 971.979 438.924C970.318 443.482 969.488 448.641 969.488 454.4C969.488 460.089 970.301 465.212 971.926 469.77C973.551 474.328 975.901 478.197 978.975 481.377C982.084 484.557 985.865 487.013 990.317 488.744C994.769 490.44 999.804 491.288 1005.42 491.288C1008.04 491.288 1010.44 491.129 1012.63 490.811C1014.86 490.458 1016.96 489.963 1018.94 489.327C1020.95 488.656 1022.89 487.861 1024.77 486.942C1026.64 485.988 1028.53 484.91 1030.44 483.709V460.654H1013.8C1013.62 460.654 1013.46 460.601 1013.32 460.495C1013.21 460.354 1013.16 460.23 1013.16 460.124V459.594H1031.6ZM1048.17 488.956C1048.17 488.002 1048.49 487.189 1049.12 486.518C1049.79 485.811 1050.61 485.458 1051.56 485.458C1052.51 485.458 1053.33 485.811 1054 486.518C1054.7 487.189 1055.06 488.002 1055.06 488.956C1055.06 489.91 1054.7 490.723 1054 491.394C1053.33 492.03 1052.51 492.348 1051.56 492.348C1050.61 492.348 1049.79 492.03 1049.12 491.394C1048.49 490.723 1048.17 489.91 1048.17 488.956ZM1146.1 417.3V491.5H1145.04V420.586C1145.04 420.409 1145.04 420.25 1145.04 420.109C1145.04 419.932 1145.06 419.756 1145.1 419.579L1112.61 476.13C1112.36 476.483 1112.11 476.66 1111.87 476.66H1111.55C1111.3 476.66 1111.05 476.483 1110.81 476.13L1077.26 419.526C1077.29 419.703 1077.31 419.879 1077.31 420.056C1077.31 420.233 1077.31 420.409 1077.31 420.586V491.5H1076.25V417.3H1076.67C1076.99 417.3 1077.24 417.441 1077.42 417.724L1111.12 474.487C1111.26 474.699 1111.37 474.893 1111.44 475.07C1111.55 475.247 1111.64 475.423 1111.71 475.6C1111.78 475.423 1111.85 475.247 1111.92 475.07C1112.02 474.893 1112.15 474.699 1112.29 474.487L1144.94 417.724C1145.11 417.441 1145.36 417.3 1145.68 417.3H1146.1ZM1214.12 490.334L1214.01 491.5H1170.66V417.3H1214.01V418.466H1171.93V453.234H1207.65V454.4H1171.93V490.334H1214.12Z" fill="#1B1B1B"/>
<defs>
<linearGradient id="paint0_linear_3214_27228" x1="0" y1="900" x2="1512" y2="-4.94385e-05" gradientUnits="userSpaceOnUse">
<stop stop-color="#FCD0BB"/>
<stop offset="1" stop-color="#F6D8FA"/>
</linearGradient>
</defs>
</svg>
