<?xml version="1.0" encoding="utf-8"?>
<!-- Generator: Adobe Illustrator 25.2.1, SVG Export Plug-In . SVG Version: 6.00 Build 0)  -->
<svg version="1.1" xmlns="http://www.w3.org/2000/svg" xmlns:xlink="http://www.w3.org/1999/xlink" x="0px" y="0px"
	 viewBox="0 0 360 360" style="enable-background:new 0 0 360 360;" xml:space="preserve">
<style type="text/css">
	.st0{fill:#FEE28B;stroke:#FFFFFF;stroke-width:4;stroke-miterlimit:10;}
	.st1{fill:#FFBF00;stroke:#FFBF00;stroke-miterlimit:10;}
	.st2{fill:#FFBF00;stroke:#FFFFFF;stroke-miterlimit:10;}
	.st3{fill:#FFFFFF;stroke:#FFFFFF;stroke-miterlimit:10;}
	.st4{fill:#FFBF00;stroke:#FFFFFF;stroke-width:4;stroke-miterlimit:10;}
	.st5{fill:#FEE28B;stroke:#FFBF00;stroke-miterlimit:10;}
	.st6{fill:none;stroke:#FFFFFF;stroke-miterlimit:10;}
</style>
<g id="fill">
	<path class="st1" d="M255.4,239.5l63.2-83.4c2.7-3.6,7.8-4.3,11.3-1.6v0c3.6,2.7,4.3,7.8,1.6,11.3l-54.9,72.5l0,0
		C269.9,238.9,262.8,239.3,255.4,239.5L255.4,239.5z"/>
	<path class="st2" d="M103.3,111.8v121.9c0,11.1,9,20.1,20.1,20.1h114.3c11.1,0,20.1-9,20.1-20.1V79.9c0-11.1-9-20.1-20.1-20.1h-80"
		/>
	<path class="st0" d="M103.3,111.8h36.4c9.9,0,18-8,18-18V59.7L103.3,111.8z"/>
	<path class="st3" d="M226.1,94.2c0,11.1-9.6,20-21.5,20c-11.9,0-21.5-9-21.5-20H226.1z"/>
	<path class="st3" d="M224.6,80.1c-0.7-0.6-1.7-0.6-2.3,0.1l-10.8,11.9h4.4l8.8-9.7C225.3,81.8,225.3,80.8,224.6,80.1z"/>
	<path class="st4" d="M328.1,222.8c0,35.8-35.7,64.8-79.7,64.8s-79.7-29-79.7-64.8"/>
</g>
<g id="line_weight">
</g>
<g id="line">
</g>
<g id="lines">
	<line class="st6" x1="127.4" y1="129.3" x2="235" y2="129.3"/>
	<line class="st6" x1="127.4" y1="139.9" x2="235" y2="139.9"/>
	<line class="st6" x1="127.4" y1="150.6" x2="235" y2="150.6"/>
	<line class="st6" x1="127.4" y1="161.2" x2="235" y2="161.2"/>
	<line class="st6" x1="127.4" y1="171.8" x2="235" y2="171.8"/>
	<line class="st6" x1="127.4" y1="182.4" x2="235" y2="182.4"/>
	<line class="st6" x1="127.4" y1="193.1" x2="235" y2="193.1"/>
	<line class="st6" x1="127.4" y1="203.7" x2="235" y2="203.7"/>
	<line class="st6" x1="127.4" y1="214.3" x2="235" y2="214.3"/>
</g>
<g id="Layer_2">
	<ellipse class="st4" cx="248.4" cy="220.2" rx="79.7" ry="19.4"/>
	
		<ellipse transform="matrix(0.9767 -0.2148 0.2148 0.9767 -52.2744 38.0666)" class="st4" cx="149" cy="259.6" rx="20.6" ry="26.5"/>
	
		<ellipse transform="matrix(0.9968 -7.956396e-02 7.956396e-02 0.9968 -19.4205 9.0049)" class="st4" cx="103.3" cy="248.2" rx="25" ry="19.4"/>
</g>
<g id="Layer_7">
</g>
<g id="Layer_6">
</g>
</svg>
