<?xml version="1.0" encoding="utf-8"?>
<!-- Generator: Adobe Illustrator 25.2.1, SVG Export Plug-In . SVG Version: 6.00 Build 0)  -->
<svg version="1.1" xmlns="http://www.w3.org/2000/svg" xmlns:xlink="http://www.w3.org/1999/xlink" x="0px" y="0px"
	 viewBox="0 0 360 360" style="enable-background:new 0 0 360 360;" xml:space="preserve">
<style type="text/css">
	.st0{fill:#FEE28B;stroke:#FFFFFF;stroke-width:4;stroke-miterlimit:10;}
	.st1{fill:#FFBF00;stroke:#FFBF00;stroke-miterlimit:10;}
	.st2{fill:#FFBF00;stroke:#FFFFFF;stroke-miterlimit:10;}
	.st3{fill:#FFFFFF;stroke:#FFFFFF;stroke-miterlimit:10;}
	.st4{fill:#FFBF00;stroke:#FFFFFF;stroke-width:4;stroke-miterlimit:10;}
	.st5{fill:#FEE28B;stroke:#FFBF00;stroke-miterlimit:10;}
	.st6{fill:none;stroke:#FFFFFF;stroke-miterlimit:10;}
</style>
<g id="fill">
	<path class="st0" d="M163.4,293.3H74.5c-5.4,0-9.8-4.4-9.8-9.8V180.8c0-5.4,4.4-9.8,9.8-9.8h88.8c5.4,0,9.8,4.4,9.8,9.8v102.8
		C173.1,289,168.8,293.3,163.4,293.3z"/>
	<circle class="st1" cx="147.7" cy="199.8" r="10.2"/>
	<circle class="st1" cx="132.4" cy="235.7" r="10.2"/>
	<circle class="st1" cx="142.5" cy="270.2" r="13.1"/>
	<circle class="st3" cx="95.4" cy="258.6" r="16.1"/>
	<circle class="st3" cx="89.9" cy="217" r="7"/>
	<path class="st5" d="M163.4,158H74.5c-3.6,0-6.4-2.9-6.4-6.4v-2.9c0-3.6,2.9-6.4,6.4-6.4h88.9c3.6,0,6.4,2.9,6.4,6.4v2.9
		C169.8,155.1,166.9,158,163.4,158z"/>
	<rect x="79.4" y="158" class="st5" width="79" height="13"/>
</g>
<g id="line_weight">
</g>
<g id="line">
	<path class="st1" d="M241.5,67.6h-78c-3.6,0-6.4-2.9-6.4-6.4v-2.9c0-3.6,2.9-6.4,6.4-6.4h78c3.6,0,6.4,2.9,6.4,6.4v2.9
		C247.9,64.7,245.1,67.6,241.5,67.6z"/>
	<path class="st4" d="M265,293.3H140.2c-10,0-18-8.1-18-18V121.4c0-20.8,16.9-37.7,37.7-37.7h85.5c20.8,0,37.7,16.9,37.7,37.7v153.9
		C283.1,285.3,275,293.3,265,293.3z"/>
	<rect x="167.3" y="70.1" class="st1" width="70.5" height="13"/>
</g>
<g id="lines">
</g>
<g id="Layer_2">
</g>
<g id="Layer_7">
	<path class="st3" d="M182.9,135.9v-4.6c0-5.7,4.6-10.4,10.4-10.4h37.1c5.7,0,10.4,4.6,10.4,10.4v4.6c0,5.7-4.6,10.4-10.4,10.4
		h-37.1C187.6,146.3,182.9,141.7,182.9,135.9z"/>
	<path class="st3" d="M211,214.6l-1.3-4.2c-1.6-5.2,1.4-10.6,6.5-12.2l40.3-12.2c5.2-1.6,10.6,1.4,12.2,6.5l1.3,4.2
		c1.6,5.2-1.4,10.6-6.5,12.2l-40.3,12.2C218,222.7,212.5,219.8,211,214.6z"/>
	<path class="st3" d="M204,250.5l1.2-4.2c1.5-5.2,7-8.1,12.1-6.6l44.9,13.2c5.2,1.5,8.1,7,6.6,12.1l-1.2,4.2
		c-1.5,5.2-7,8.1-12.1,6.6l-44.9-13.2C205.4,261.1,202.4,255.6,204,250.5z"/>
	<path class="st3" d="M167.8,198.9l-31.1-20.9c-4.2-2.8-5.3-8.5-2.5-12.6l2.3-3.4c2.8-4.2,8.5-5.3,12.6-2.5l31.1,20.9
		c4.2,2.8,5.3,8.5,2.5,12.6l-2.3,3.4C177.7,200.6,172,201.7,167.8,198.9z"/>
	<path class="st3" d="M188.1,242.7l-27.6,30.2c-3.4,3.7-9.1,4-12.8,0.6l-3-2.7c-3.7-3.4-4-9.1-0.6-12.8l27.6-30.2
		c3.4-3.7,9.1-4,12.8-0.6l3,2.7C191.2,233.2,191.5,238.9,188.1,242.7z"/>
</g>
<g id="Layer_6">
</g>
</svg>
