<svg width="365" height="100" viewBox="0 0 365 100" fill="none" xmlns="http://www.w3.org/2000/svg">
<rect x="64.75" y="0.75" width="34.5" height="34.5" rx="11.25" fill="#FFF1CD"/>
<rect x="64.75" y="0.75" width="34.5" height="34.5" rx="11.25" stroke="#FFE6AA" stroke-width="1.5"/>
<path d="M74.1016 23.5H89.8994C90.1526 23.5 90.3834 23.5949 90.5596 23.75H73.4424C73.6185 23.5951 73.8486 23.5 74.1016 23.5Z" fill="#707070" stroke="#707070" stroke-width="1.12489"/>
<path d="M71.876 27.9087V10.1573C71.876 10.1573 72.117 7.87598 74.8891 7.87598C77.6612 7.87598 77.9023 10.1573 77.9023 10.1573V11.9018" stroke="#707070" stroke-width="2" stroke-linecap="round"/>
<path d="M71.8779 15.8311L91.9463 15.8311" stroke="#707070" stroke-width="2" stroke-linecap="round"/>
<path d="M71.876 26.3994C71.876 24.7686 73.4428 24.8938 73.4428 24.8938H90.6777C90.6777 24.8938 92.124 24.8938 92.124 26.3994" stroke="#707070" stroke-width="2" stroke-linecap="round"/>
<path d="M92.124 28.124L92.124 14.7458" stroke="#707070" stroke-width="2" stroke-linecap="round"/>
<path d="M76.1885 12.6208C76.1885 12.6208 76.6406 11.9746 77.9969 11.9746C79.3532 11.9746 79.8053 12.6208 79.8053 12.6208" stroke="#707070" stroke-width="2" stroke-linecap="round"/>
<path d="M76.0723 24.5078L76.0723 16.1916" stroke="#707070" stroke-width="2"/>
<path d="M80.0859 24.5078L80.0859 16.1916" stroke="#707070" stroke-width="2"/>
<path d="M84.0996 24.5078L84.0996 16.1916" stroke="#707070" stroke-width="2"/>
<path d="M88.1133 24.5078L88.1133 16.1916" stroke="#707070" stroke-width="2"/>
<g clip-path="url(#clip0_3590_32811)">
<path d="M187.127 19.0653C186.739 19.0649 186.312 19.0645 185.924 19.0641C182.511 19.0212 179.06 18.9386 175.647 18.8957C175.259 18.8953 174.91 18.895 174.522 18.855C174.018 18.8149 173.398 18.6953 173.515 18.0214C173.554 17.7439 174.136 17.4273 174.485 17.388C177.355 17.2321 180.186 17.1159 183.056 16.9997C183.716 16.9607 184.375 17.0009 185.073 16.6448C184.298 16.1683 183.484 15.771 182.748 15.2549C182.399 15.0166 182.012 14.4216 182.089 14.0648C182.245 13.3513 183.021 13.4313 183.486 13.6696C185.812 14.7027 188.177 15.7358 190.425 16.9671C191.859 17.7614 191.858 18.9508 190.422 19.7424C188.521 20.8111 186.465 21.6021 184.486 22.4725C184.253 22.5912 183.866 22.3133 183.555 22.2337C183.672 21.9166 183.673 21.4409 183.905 21.2825C184.371 20.8864 184.992 20.6492 185.535 20.3325C186.117 20.0159 186.699 19.6992 187.243 19.3826C187.165 19.3032 187.126 19.1842 187.127 19.0653Z" fill="#FFD500"/>
</g>
<rect x="265.75" y="0.75" width="34.5" height="34.5" rx="11.25" fill="#FFF1CD"/>
<rect x="265.75" y="0.75" width="34.5" height="34.5" rx="11.25" stroke="#FFE6AA" stroke-width="1.5"/>
<path fill-rule="evenodd" clip-rule="evenodd" d="M291.601 10.4355L291.792 11.5518C293.088 15.3536 290.786 15.3925 289.877 13.3616C289.118 13.0502 288.633 13.2554 288.511 14.1541L289.446 18.5927L289.41 22.3679C289.967 21.6284 290.412 20.7669 290.702 19.7886C290.935 19.0067 291.734 18.5679 292.49 18.8085C293.245 19.0491 293.669 19.8771 293.436 20.659C292.661 23.2772 291.078 25.2869 289.101 26.619C287.351 27.7989 285.29 28.4411 283.212 28.4959C281.131 28.5526 279.026 28.0165 277.19 26.8436C275.191 25.5646 273.525 23.5373 272.578 20.7032C272.322 19.9319 272.718 19.0898 273.463 18.8245C274.208 18.5591 275.022 18.9695 275.278 19.7408C275.546 20.544 275.888 21.2587 276.288 21.8885L276.322 18.7413C276.394 17.9824 276.654 17.25 277.185 16.5601H275.652C274.302 16.4539 274.152 14.8087 275.652 14.4779H279.752C279.81 15.3712 280.184 16.1762 280.758 16.7723C281.385 17.4216 282.252 17.8232 283.209 17.8232C284.166 17.8232 285.032 17.4216 285.659 16.7723C286.286 16.1231 286.674 15.2262 286.674 14.2355C286.674 13.2448 286.286 12.3479 285.659 11.6987C285.23 11.2546 284.69 10.9273 284.085 10.7628C284.641 9.70138 285.57 8.7514 286.956 7.93232C288.308 7.39452 289.844 7.27599 291.77 8.05615C292.531 8.40997 292.96 8.76555 292.828 9.11936C292.702 9.46256 292.462 9.45371 292.199 9.52978C291.784 9.65008 291.553 9.92429 291.601 10.4355ZM287.997 23.8044C287.131 17.7046 278.742 17.6445 277.752 23.6169C278.051 23.8822 278.366 24.1175 278.691 24.3263C280.037 25.1878 281.594 25.5788 283.144 25.5381C284.697 25.4974 286.235 25.0162 287.542 24.1352C287.698 24.0308 287.85 23.9211 287.997 23.8044ZM280.589 14.4761H283.482C283.363 13.4465 283.434 12.4717 283.74 11.566C284.253 11.6757 284.711 11.9393 285.068 12.3072C285.543 12.799 285.839 13.4801 285.839 14.232C285.839 14.9838 285.545 15.6649 285.068 16.1567C284.593 16.6485 283.935 16.9546 283.209 16.9546C282.483 16.9546 281.825 16.6503 281.35 16.1567C280.926 15.7197 280.646 15.1324 280.589 14.4761ZM290.436 10.2746C290.627 10.2746 290.784 10.4373 290.784 10.6355V10.9857C290.784 11.1839 290.627 11.3466 290.436 11.3466C290.244 11.3466 290.087 11.1839 290.087 10.9857V10.6355C290.087 10.4355 290.242 10.2746 290.436 10.2746Z" fill="#707070"/>
<g clip-path="url(#clip1_3590_32811)">
<path d="M81.7782 44.5784C81.7981 44.9657 81.8201 45.3917 81.84 45.7791C81.9758 49.1895 82.0741 52.6407 82.2099 56.0512C82.2299 56.4385 82.2478 56.7871 82.2281 57.1765C82.2145 57.682 82.1276 58.3078 81.4485 58.2263C81.1693 58.2018 80.8226 57.6372 80.7651 57.2906C80.4592 54.4326 80.1949 51.6113 79.9285 48.7512C79.8551 48.0948 79.8608 47.4343 79.4685 46.7555C79.0332 47.5546 78.6791 48.3883 78.2023 49.1507C77.9827 49.5116 77.4087 49.9294 77.0483 49.8703C76.3276 49.7521 76.3669 48.9734 76.5806 48.4963C77.4904 46.1194 78.3983 43.7038 79.5102 41.3942C80.2283 39.9203 81.4162 39.8592 82.2819 41.2515C83.4486 43.0943 84.3462 45.1064 85.319 47.0369C85.4497 47.2631 85.1925 47.6647 85.1293 47.9787C84.8065 47.8788 84.3314 47.9032 84.161 47.679C83.7411 47.2346 83.4717 46.6271 83.127 46.1012C82.7803 45.5365 82.4337 44.9718 82.089 44.4459C82.0138 44.5274 81.897 44.5722 81.7782 44.5784Z" fill="#FFD500"/>
</g>
<g clip-path="url(#clip2_3590_32811)">
<path d="M282.63 53.8093C282.653 53.4222 282.679 52.9963 282.702 52.6092C282.947 49.2048 283.234 45.7641 283.478 42.3598C283.502 41.9726 283.523 41.6242 283.586 41.2395C283.656 40.7386 283.812 40.1263 284.477 40.283C284.752 40.3384 285.034 40.9382 285.052 41.289C285.038 44.1633 284.987 46.9965 284.933 49.8684C284.933 50.5289 284.853 51.1847 285.168 51.903C285.689 51.1573 286.134 50.3682 286.693 49.6636C286.951 49.3295 287.568 48.9782 287.92 49.0771C288.623 49.2748 288.497 50.0443 288.231 50.4946C287.063 52.7554 285.891 55.0549 284.529 57.2263C283.651 58.611 282.464 58.5395 281.759 57.0594C280.804 55.0981 280.137 52.9986 279.385 50.9718C279.28 50.7323 279.58 50.3619 279.678 50.057C279.988 50.1922 280.463 50.2208 280.607 50.4626C280.975 50.951 281.175 51.5847 281.459 52.1458C281.741 52.7456 282.022 53.3453 282.306 53.9064C282.39 53.8337 282.511 53.8022 282.63 53.8093Z" fill="#FFD500"/>
</g>
<rect x="64" y="62.5088" width="36" height="36" rx="12" fill="#FFD500"/>
<rect x="64.75" y="63.2588" width="34.5" height="34.5" rx="11.25" stroke="#FFC93C" stroke-opacity="0.9" stroke-width="1.5"/>
<path d="M87.5578 79.1133C87.5578 81.1945 86.6855 83.1905 85.1329 84.6622C83.5804 86.1339 81.4746 86.9606 79.2789 86.9606C77.0832 86.9606 74.9774 86.1339 73.4248 84.6622C71.8722 83.1905 71 81.1945 71 79.1133L87.5578 79.1133Z" fill="#505050" stroke="#505050" stroke-width="2"/>
<path d="M71.8125 78.9305C71.8125 77.0841 72.4415 75.283 73.6129 73.775C74.7657 72.2909 76.3881 71.1622 78.2632 70.5386C78.314 70.5217 78.3689 70.5484 78.3875 70.5986L81.6379 79.3756" stroke="#505050" stroke-width="2"/>
<path d="M77.8231 89.1279C77.8231 90.0701 77.0593 90.8339 76.1171 90.8339C75.1749 90.8339 74.4111 90.0701 74.4111 89.1279C74.4111 88.1857 75.1749 87.4219 76.1171 87.4219C77.0593 87.4219 77.8231 88.1857 77.8231 89.1279Z" fill="#505050" stroke="#505050" stroke-width="2"/>
<path d="M92.9406 77.7853C92.9406 78.8845 92.0495 79.7756 90.9503 79.7756C89.8511 79.7756 88.96 78.8845 88.96 77.7853C88.96 76.686 89.8511 75.7949 90.9503 75.7949C92.0495 75.7949 92.9406 76.686 92.9406 77.7853Z" fill="#505050" stroke="#505050" stroke-width="2"/>
<path d="M87.2197 79.2622C87.2845 79.1615 87.3978 78.9655 88.0289 78.6688C88.3667 78.51 88.6763 78.4314 89 78.3721" stroke="#505050" stroke-width="2"/>
<path d="M84.08 89.1279C84.08 90.0701 83.3162 90.8339 82.374 90.8339C81.4318 90.8339 80.668 90.0701 80.668 89.1279C80.668 88.1857 81.4318 87.4219 82.374 87.4219C83.3162 87.4219 84.08 88.1857 84.08 89.1279Z" fill="#505050" stroke="#505050" stroke-width="2"/>
<g clip-path="url(#clip3_3590_32811)">
<path d="M177.871 79.4531C178.259 79.4526 178.686 79.4521 179.074 79.4516C182.487 79.487 185.938 79.5619 189.351 79.5973C189.739 79.5968 190.088 79.5964 190.476 79.6355C190.98 79.6746 191.601 79.7927 191.486 80.4669C191.447 80.7445 190.866 81.0624 190.517 81.1025C187.647 81.2647 184.816 81.3872 181.946 81.5097C181.287 81.5502 180.627 81.5114 179.93 81.8691C180.706 82.3439 181.521 82.7393 182.259 83.2538C182.608 83.4913 182.997 84.0855 182.919 84.4425C182.765 85.1563 181.989 85.078 181.524 84.8407C179.195 83.8128 176.828 82.7849 174.577 81.5586C173.141 80.7674 173.14 79.578 174.574 78.7832C176.473 77.7104 178.527 76.9148 180.504 76.0401C180.737 75.9208 181.125 76.1979 181.435 76.2768C181.319 76.5941 181.32 77.0699 181.088 77.2288C180.623 77.6259 180.002 77.8645 179.46 78.1824C178.878 78.5003 178.297 78.8182 177.755 79.1361C177.832 79.2153 177.871 79.3342 177.871 79.4531Z" fill="#FFD500"/>
</g>
<rect x="265.75" y="63.2588" width="34.5" height="34.5" rx="11.25" fill="#FFF1CD"/>
<rect x="265.75" y="63.2588" width="34.5" height="34.5" rx="11.25" stroke="#FFE6AA" stroke-width="1.5"/>
<path fill-rule="evenodd" clip-rule="evenodd" d="M283 69.0801C284.739 69.0801 286.149 70.5068 286.149 72.2664C286.149 74.0261 284.739 75.4528 283 75.4528C281.261 75.4528 279.851 74.0261 279.851 72.2664C279.851 70.5068 281.261 69.0801 283 69.0801ZM279.662 83.5573L282.164 86.1224L280.32 87.9881L281.798 89.5226L282.302 90.0453C283.164 91.1986 281.872 92.5676 280.748 91.6171L277.469 88.2299C276.973 87.5342 276.826 86.779 277.333 85.914L279.662 83.5573ZM286.337 83.5573L283.837 86.1242L285.68 87.9899L284.202 89.5245L283.699 90.0472C282.837 91.2005 284.129 92.5695 285.252 91.619L288.531 88.2317C289.028 87.5361 289.175 86.7809 288.667 85.9159L286.337 83.5573ZM290.489 82.7128C289.976 83.0867 289.322 82.9137 288.886 82.4505L286.373 79.785V82.2106H279.62V79.7924L277.114 82.4505C276.679 82.9137 276.022 83.0867 275.511 82.7128C274.998 82.3389 274.8 81.5354 275.252 81.0908L278.552 77.8468C279.089 77.3185 280.122 76.0685 280.818 76.0685H285.239C285.892 76.0685 286.903 77.3092 287.447 77.8468L290.747 81.0908C291.201 81.5354 291 82.3389 290.489 82.7128Z" fill="#707070"/>
<defs>
<clipPath id="clip0_3590_32811">
<rect width="9" height="18" fill="white" transform="translate(173.496 22.4912) rotate(-89.9453)"/>
</clipPath>
<clipPath id="clip1_3590_32811">
<rect width="9" height="18" fill="white" transform="translate(85.9131 58.0107) rotate(177.053)"/>
</clipPath>
<clipPath id="clip2_3590_32811">
<rect width="9" height="18" fill="white" transform="translate(280.017 40) rotate(3.44778)"/>
</clipPath>
<clipPath id="clip3_3590_32811">
<rect width="9" height="18" fill="white" transform="translate(191.494 75.9971) rotate(89.9281)"/>
</clipPath>
</defs>
</svg>
