<svg width="365" height="100" viewBox="0 0 365 100" fill="none" xmlns="http://www.w3.org/2000/svg">
<rect x="64.75" y="0.75" width="34.5" height="34.5" rx="11.25" fill="#FFF1CD"/>
<rect x="64.75" y="0.75" width="34.5" height="34.5" rx="11.25" stroke="#FFE6AA" stroke-width="1.5"/>
<path d="M74.1016 23.5H89.8994C90.1526 23.5 90.3834 23.5949 90.5596 23.75H73.4424C73.6185 23.5951 73.8486 23.5 74.1016 23.5Z" fill="#707070" stroke="#707070" stroke-width="1.12489"/>
<path d="M71.876 27.9087V10.1573C71.876 10.1573 72.117 7.87598 74.8891 7.87598C77.6612 7.87598 77.9023 10.1573 77.9023 10.1573V11.9018" stroke="#707070" stroke-width="2" stroke-linecap="round"/>
<path d="M71.8779 15.8311L91.9463 15.8311" stroke="#707070" stroke-width="2" stroke-linecap="round"/>
<path d="M71.876 26.3994C71.876 24.7686 73.4428 24.8938 73.4428 24.8938H90.6777C90.6777 24.8938 92.124 24.8938 92.124 26.3994" stroke="#707070" stroke-width="2" stroke-linecap="round"/>
<path d="M92.124 28.124L92.124 14.7458" stroke="#707070" stroke-width="2" stroke-linecap="round"/>
<path d="M76.1885 12.6208C76.1885 12.6208 76.6406 11.9746 77.9969 11.9746C79.3532 11.9746 79.8053 12.6208 79.8053 12.6208" stroke="#707070" stroke-width="2" stroke-linecap="round"/>
<path d="M76.0723 24.5078L76.0723 16.1916" stroke="#707070" stroke-width="2"/>
<path d="M80.0859 24.5078L80.0859 16.1916" stroke="#707070" stroke-width="2"/>
<path d="M84.0996 24.5078L84.0996 16.1916" stroke="#707070" stroke-width="2"/>
<path d="M88.1133 24.5078L88.1133 16.1916" stroke="#707070" stroke-width="2"/>
<rect x="131" width="36" height="36" rx="12" fill="#FFD500"/>
<rect x="131.75" y="0.75" width="34.5" height="34.5" rx="11.25" stroke="#FFC93C" stroke-opacity="0.9" stroke-width="1.5"/>
<path d="M154.558 16.6045C154.558 18.6857 153.686 20.6817 152.133 22.1534C150.58 23.6251 148.475 24.4518 146.279 24.4518C144.083 24.4518 141.977 23.6251 140.425 22.1534C138.872 20.6817 138 18.6857 138 16.6045L154.558 16.6045Z" fill="#505050" stroke="#505050" stroke-width="2"/>
<path d="M138.812 16.4218C138.813 14.5753 139.441 12.7743 140.613 11.2662C141.766 9.78208 143.388 8.65346 145.263 8.02984C145.314 8.01294 145.369 8.03962 145.388 8.08985L148.638 16.8668" stroke="#505050" stroke-width="2"/>
<path d="M144.823 26.6191C144.823 27.5613 144.059 28.3251 143.117 28.3251C142.175 28.3251 141.411 27.5613 141.411 26.6191C141.411 25.6769 142.175 24.9131 143.117 24.9131C144.059 24.9131 144.823 25.6769 144.823 26.6191Z" fill="#505050" stroke="#505050" stroke-width="2"/>
<path d="M159.941 15.2765C159.941 16.3757 159.05 17.2668 157.95 17.2668C156.851 17.2668 155.96 16.3757 155.96 15.2765C155.96 14.1772 156.851 13.2861 157.95 13.2861C159.05 13.2861 159.941 14.1772 159.941 15.2765Z" fill="#505050" stroke="#505050" stroke-width="2"/>
<path d="M154.22 16.7534C154.284 16.6527 154.398 16.4567 155.029 16.16C155.367 16.0012 155.676 15.9226 156 15.8633" stroke="#505050" stroke-width="2"/>
<path d="M151.08 26.6191C151.08 27.5613 150.316 28.3251 149.374 28.3251C148.432 28.3251 147.668 27.5613 147.668 26.6191C147.668 25.6769 148.432 24.9131 149.374 24.9131C150.316 24.9131 151.08 25.6769 151.08 26.6191Z" fill="#505050" stroke="#505050" stroke-width="2"/>
<rect x="198.75" y="0.75" width="34.5" height="34.5" rx="11.25" fill="#FFF1CD"/>
<rect x="198.75" y="0.75" width="34.5" height="34.5" rx="11.25" stroke="#FFE6AA" stroke-width="1.5"/>
<path fill-rule="evenodd" clip-rule="evenodd" d="M216 6.57129C217.739 6.57129 219.149 7.99799 219.149 9.75765C219.149 11.5173 217.739 12.944 216 12.944C214.261 12.944 212.851 11.5173 212.851 9.75765C212.851 7.99799 214.261 6.57129 216 6.57129ZM212.662 21.0485L215.164 23.6136L213.32 25.4793L214.798 27.0139L215.302 27.5366C216.164 28.6898 214.872 30.0589 213.748 29.1083L210.469 25.7211C209.973 25.0254 209.826 24.2702 210.333 23.4053L212.662 21.0485ZM219.337 21.0485L216.837 23.6154L218.68 25.4811L217.202 27.0157L216.699 27.5384C215.837 28.6917 217.129 30.0607 218.252 29.1102L221.531 25.7229C222.028 25.0273 222.175 24.2721 221.667 23.4071L219.337 21.0485ZM223.489 20.204C222.976 20.5779 222.322 20.4049 221.886 19.9417L219.373 17.2762V19.7018H212.62V17.2836L210.114 19.9417C209.679 20.4049 209.022 20.5779 208.511 20.204C207.998 19.8301 207.8 19.0266 208.252 18.582L211.552 15.338C212.089 14.8097 213.122 13.5597 213.818 13.5597H218.239C218.892 13.5597 219.903 14.8004 220.447 15.338L223.747 18.582C224.201 19.0266 224 19.8301 223.489 20.204Z" fill="#707070"/>
<rect x="265.75" y="0.75" width="34.5" height="34.5" rx="11.25" fill="#FFF1CD"/>
<rect x="265.75" y="0.75" width="34.5" height="34.5" rx="11.25" stroke="#FFE6AA" stroke-width="1.5"/>
<path fill-rule="evenodd" clip-rule="evenodd" d="M291.601 10.4355L291.792 11.5518C293.088 15.3536 290.786 15.3925 289.877 13.3616C289.118 13.0502 288.633 13.2554 288.511 14.1541L289.446 18.5927L289.41 22.3679C289.967 21.6284 290.412 20.7669 290.702 19.7886C290.935 19.0067 291.734 18.5679 292.49 18.8085C293.245 19.0491 293.669 19.8771 293.436 20.659C292.661 23.2772 291.078 25.2869 289.101 26.619C287.351 27.7989 285.29 28.4411 283.212 28.4959C281.131 28.5526 279.026 28.0165 277.19 26.8436C275.191 25.5646 273.525 23.5373 272.578 20.7032C272.322 19.9319 272.718 19.0898 273.463 18.8245C274.208 18.5591 275.022 18.9695 275.278 19.7408C275.546 20.544 275.888 21.2587 276.288 21.8885L276.322 18.7413C276.394 17.9824 276.654 17.25 277.185 16.5601H275.652C274.302 16.4539 274.152 14.8087 275.652 14.4779H279.752C279.81 15.3712 280.184 16.1762 280.758 16.7723C281.385 17.4216 282.252 17.8232 283.209 17.8232C284.166 17.8232 285.032 17.4216 285.659 16.7723C286.286 16.1231 286.674 15.2262 286.674 14.2355C286.674 13.2448 286.286 12.3479 285.659 11.6987C285.23 11.2546 284.69 10.9273 284.085 10.7628C284.641 9.70138 285.57 8.7514 286.956 7.93232C288.308 7.39452 289.844 7.27599 291.77 8.05615C292.531 8.40997 292.96 8.76555 292.828 9.11936C292.702 9.46256 292.462 9.45371 292.199 9.52978C291.784 9.65008 291.553 9.92429 291.601 10.4355ZM287.997 23.8044C287.131 17.7046 278.742 17.6445 277.752 23.6169C278.051 23.8822 278.366 24.1175 278.691 24.3263C280.037 25.1878 281.594 25.5788 283.144 25.5381C284.697 25.4974 286.235 25.0162 287.542 24.1352C287.698 24.0308 287.85 23.9211 287.997 23.8044ZM280.589 14.4761H283.482C283.363 13.4465 283.434 12.4717 283.74 11.566C284.253 11.6757 284.711 11.9393 285.068 12.3072C285.543 12.799 285.839 13.4801 285.839 14.232C285.839 14.9838 285.545 15.6649 285.068 16.1567C284.593 16.6485 283.935 16.9546 283.209 16.9546C282.483 16.9546 281.825 16.6503 281.35 16.1567C280.926 15.7197 280.646 15.1324 280.589 14.4761ZM290.436 10.2746C290.627 10.2746 290.784 10.4373 290.784 10.6355V10.9857C290.784 11.1839 290.627 11.3466 290.436 11.3466C290.244 11.3466 290.087 11.1839 290.087 10.9857V10.6355C290.087 10.4355 290.242 10.2746 290.436 10.2746Z" fill="#707070"/>
<rect x="64" y="54" width="237" height="6" rx="3" fill="#CCCCCC"/>
<rect x="64" y="67.333" width="237" height="6" rx="3" fill="#CCCCCC"/>
<rect x="64" y="80.667" width="237" height="6" rx="3" fill="#E6E6E6"/>
<rect x="64" y="94" width="237" height="6" rx="3" fill="#E6E6E6"/>
<g clip-path="url(#clip0_3590_32851)">
<path d="M103.035 41.5535C103.241 41.882 103.467 42.2433 103.674 42.5718C105.454 45.4836 107.222 48.4494 109.003 51.3612C109.209 51.6897 109.395 51.9854 109.567 52.3349C109.802 52.7831 110.031 53.3719 109.398 53.6316C109.142 53.7463 108.564 53.4222 108.345 53.1476C106.685 50.8011 105.079 48.4663 103.453 46.0986C103.069 45.5613 102.752 44.9818 102.079 44.5802C102.088 45.4901 102.185 46.3907 102.14 47.2888C102.124 47.7109 101.827 48.3556 101.483 48.4795C100.796 48.7275 100.451 48.0284 100.405 47.5077C100.041 44.9888 99.657 42.437 99.5023 39.8783C99.4111 38.2413 100.419 37.609 101.853 38.4029C103.77 39.4435 105.534 40.763 107.325 41.9746C107.549 42.1085 107.52 42.5845 107.618 42.8895C107.287 42.9595 106.884 43.2125 106.626 43.0997C106.043 42.9163 105.512 42.5171 104.954 42.2258C104.377 41.9017 103.799 41.5776 103.241 41.2863C103.215 41.3941 103.135 41.4902 103.035 41.5535Z" fill="#FFD500"/>
</g>
<g clip-path="url(#clip1_3590_32851)">
<path d="M193.923 42.5966C193.725 42.9303 193.508 43.2973 193.31 43.631C191.536 46.5469 189.708 49.476 187.934 52.3919C187.737 52.7256 187.559 53.0259 187.327 53.3393C187.036 53.7528 186.617 54.2261 186.096 53.7824C185.877 53.6075 185.901 52.9453 186.045 52.6248C187.372 50.0749 188.713 47.5786 190.073 45.049C190.375 44.4615 190.746 43.9146 190.794 43.1321C189.99 43.5568 189.233 44.0554 188.414 44.4266C188.032 44.6056 187.322 44.6361 187.055 44.3874C186.52 43.8901 186.984 43.2633 187.426 42.9841C189.499 41.5077 191.592 39.998 193.796 38.6893C195.209 37.8591 196.233 38.4654 196.183 40.1042C196.136 42.2848 195.77 44.4574 195.512 46.6037C195.496 46.8645 195.059 47.0567 194.833 47.2832C194.619 47.0214 194.21 46.7789 194.192 46.4978C194.088 45.8953 194.2 45.2402 194.204 44.6114C194.228 43.9492 194.251 43.2871 194.255 42.6582C194.147 42.6845 194.025 42.6573 193.923 42.5966Z" fill="#FFD500"/>
</g>
<g clip-path="url(#clip2_3590_32851)">
<path d="M281.72 43.5449C281.444 43.8171 281.14 44.1165 280.864 44.3887C278.405 46.7558 275.891 49.1218 273.432 51.4889C273.155 51.7611 272.907 52.006 272.602 52.25C272.216 52.5756 271.69 52.9264 271.3 52.3646C271.133 52.1397 271.324 51.5054 271.545 51.2322C273.478 49.105 275.412 47.0333 277.373 44.9343C277.814 44.4433 278.312 44.0088 278.559 43.2647C277.672 43.4702 276.814 43.7593 275.927 43.9094C275.512 43.9849 274.818 43.8334 274.623 43.5248C274.232 42.9075 274.841 42.4196 275.339 42.2625C277.72 41.3636 280.129 40.4376 282.594 39.7344C284.173 39.2921 285.007 40.1394 284.542 41.7114C283.939 43.8077 283.032 45.8152 282.235 47.8247C282.153 48.0728 281.681 48.1472 281.405 48.3085C281.265 48.0009 280.931 47.662 280.986 47.3857C281.039 46.7766 281.314 46.1717 281.478 45.5647C281.67 44.9304 281.862 44.2962 282.026 43.6892C281.915 43.6871 281.804 43.6296 281.72 43.5449Z" fill="#FFD500"/>
</g>
<defs>
<clipPath id="clip0_3590_32851">
<rect width="9" height="18" fill="white" transform="translate(113.191 51.2676) rotate(147.887)"/>
</clipPath>
<clipPath id="clip1_3590_32851">
<rect width="9" height="18" fill="white" transform="translate(189.935 56.0732) rotate(-149.35)"/>
</clipPath>
<clipPath id="clip2_3590_32851">
<rect width="9" height="18" fill="white" transform="translate(274.427 55.5586) rotate(-134.574)"/>
</clipPath>
</defs>
</svg>
