<svg width="44" height="44" viewBox="0 0 44 44" fill="none" xmlns="http://www.w3.org/2000/svg">
<rect width="44" height="44" rx="12" fill="#AAD9D9" fill-opacity="0.1"/>
<path d="M26.1949 12H17.8149C14.1749 12 12.0049 14.17 12.0049 17.81V26.18C12.0049 29.83 14.1749 32 17.8149 32H26.1849C29.8249 32 31.9949 29.83 31.9949 26.19V17.81C32.0049 14.17 29.8349 12 26.1949 12Z" fill="#AAD9D9" fill-opacity="0.4"/>
<path d="M19.6518 26.884C20.2018 26.814 20.6518 26.584 20.9918 26.244C21.4318 25.804 21.6618 25.234 21.6618 24.614C21.6618 24.514 21.6518 24.404 21.6418 24.294C21.5818 23.844 21.3718 23.404 21.0018 23.034C20.6218 22.664 20.1718 22.444 19.7018 22.384C19.5918 22.374 19.4718 22.364 19.3718 22.374C18.3018 22.394 17.2918 23.164 17.1618 24.374L17.0118 25.734C16.9318 26.484 17.5618 27.114 18.3018 27.034L19.6518 26.884Z" fill="#AAD9D9"/>
<path d="M24.0018 22.774C25.5718 21.234 27.2218 18.874 27.9418 17.074C28.0718 16.754 27.9718 16.444 27.7718 16.224C27.5718 16.024 27.2518 15.934 26.9318 16.054C25.1218 16.784 22.7418 18.454 21.2018 20.034C22.6418 20.234 23.7718 21.354 24.0018 22.774Z" fill="#AAD9D9"/>
</svg>
