<svg width="24" height="24" viewBox="0 0 24 24" fill="none" xmlns="http://www.w3.org/2000/svg">
<path d="M10.0505 2.53028L4.03051 6.46028C2.10051 7.72028 2.10051 10.5402 4.03051 11.8002L10.0505 15.7302C11.1305 16.4402 12.9105 16.4402 13.9905 15.7302L19.9805 11.8002C21.9005 10.5402 21.9005 7.73028 19.9805 6.47028L13.9905 2.54028C12.9105 1.82028 11.1305 1.82028 10.0505 2.53028Z" stroke="#02C6B0" stroke-width="1.5" stroke-linecap="round" stroke-linejoin="round"/>
<path d="M5.63012 13.0801L5.62012 17.7701C5.62012 19.0401 6.60012 20.4001 7.80012 20.8001L10.9901 21.8601C11.5401 22.0401 12.4501 22.0401 13.0101 21.8601L16.2001 20.8001C17.4001 20.4001 18.3801 19.0401 18.3801 17.7701V13.1301" stroke="#02C6B0" stroke-width="1.5" stroke-linecap="round" stroke-linejoin="round"/>
<path d="M21.4004 15V9" stroke="#02C6B0" stroke-width="1.5" stroke-linecap="round" stroke-linejoin="round"/>
</svg>
