<svg width="113" height="60" viewBox="0 0 113 60" fill="none" xmlns="http://www.w3.org/2000/svg">
<g clip-path="url(#clip0_2339_10947)">
<path fill-rule="evenodd" clip-rule="evenodd" d="M98.124 35.1529L102.168 29.356C103.512 27.181 102.808 25.2092 101.443 24.3998C100.077 23.5873 98.1803 23.906 96.8803 26.0279L96.8021 26.1529C96.8209 26.2092 96.8396 26.2685 96.8521 26.3279C96.874 26.4279 96.8865 26.5342 96.8896 26.6373C96.8928 26.8404 96.8584 27.0342 96.7834 27.2217C96.7084 27.406 96.6021 27.5717 96.4615 27.7185C96.3209 27.8623 96.1584 27.9748 95.974 28.0529C95.7865 28.131 95.5928 28.1717 95.3928 28.1748C94.9803 28.1748 94.624 28.031 94.3334 27.7404C94.0365 27.4467 93.8896 27.0904 93.8896 26.6748C93.8834 26.2592 94.0334 25.906 94.3334 25.6154C94.5928 25.3592 94.9053 25.2154 95.2678 25.181C97.3084 22.1029 100.468 21.9717 102.618 23.3498C102.893 23.5154 103.146 23.7092 103.383 23.9248C103.618 24.1435 103.83 24.3842 104.018 24.6435C104.205 24.9029 104.368 25.1779 104.499 25.4717C104.633 25.7623 104.737 26.0654 104.808 26.3779C104.88 26.6904 104.921 27.006 104.93 27.3248C104.94 27.6467 104.918 27.9654 104.865 28.281C104.812 28.5967 104.727 28.9029 104.612 29.2029C104.496 29.5029 104.352 29.7873 104.18 30.0592L99.7053 36.4623C99.3928 36.9373 98.9959 37.331 98.5209 37.6435C98.0459 37.956 97.5271 38.1654 96.9678 38.2685C96.074 48.9998 112.118 36.956 107.137 25.3185C106.512 23.8404 105.627 22.5404 104.487 21.4123C103.343 20.2967 102.04 19.4248 100.571 18.7967C99.049 18.1592 97.4646 17.8404 95.8146 17.8404C94.1646 17.8404 92.5771 18.1592 91.0553 18.7967C89.5959 19.4248 88.3021 20.2967 87.1709 21.4123C86.0428 22.5467 85.174 23.8467 84.5553 25.3185C83.9021 26.8435 83.5803 28.4373 83.5896 30.0935C83.5803 31.7435 83.9021 33.3248 84.5553 34.8404C85.1709 36.306 86.0365 37.5998 87.1584 38.7248C88.2803 39.8529 89.5709 40.7248 91.0365 41.3467C91.6084 41.6248 92.2115 41.8279 92.8365 41.956C93.0834 43.4967 93.6178 44.931 94.4334 46.2592C92.7521 46.1248 91.1334 45.7279 89.5834 45.0654C87.6021 44.2342 85.849 43.0685 84.3178 41.5654C82.8053 40.0342 81.6365 38.2748 80.8084 36.2904C80.3959 35.306 80.0865 34.2935 79.874 33.2498C79.6646 32.206 79.5615 31.1529 79.5615 30.0873C79.5615 29.0217 79.6646 27.9685 79.874 26.9248C80.0865 25.881 80.3959 24.8654 80.8084 23.8842C81.6365 21.8998 82.8084 20.1373 84.3178 18.6029C85.8521 17.106 87.6053 15.9373 89.5834 15.1029C91.5678 14.2654 93.6365 13.8498 95.7928 13.856C97.9584 13.8498 100.04 14.2654 102.037 15.1029C104.024 15.9342 105.79 17.0998 107.333 18.6029C108.837 20.1404 110.005 21.9029 110.84 23.8842C111.143 24.6217 111.393 25.3779 111.587 26.1498C111.777 26.9248 111.915 27.706 111.99 28.4998C112.068 29.2935 112.087 30.0904 112.049 30.8842C112.008 31.681 111.912 32.4717 111.758 33.2529C111.602 34.0342 111.39 34.7998 111.124 35.5529C110.855 36.3029 110.533 37.031 110.158 37.7342C109.783 38.4373 109.362 39.1123 108.887 39.7529C108.412 40.3935 107.896 40.9998 107.333 41.5654C101.768 47.0373 94.4334 48.3842 94.2584 37.9935C93.3084 37.6498 92.5834 37.0435 92.0803 36.1654L87.6209 29.3842C87.424 28.9935 87.2803 28.5842 87.1959 28.156C87.1084 27.7279 87.0771 27.2967 87.1084 26.8592C87.1396 26.4217 87.2271 25.9998 87.3709 25.5842C87.5146 25.1717 87.7115 24.7873 87.9615 24.4279C88.2084 24.0685 88.5021 23.7467 88.8365 23.4654C89.174 23.1842 89.5396 22.9529 89.9396 22.7717C90.3365 22.5873 90.7521 22.4623 91.1865 22.3904C91.6178 22.3217 92.0521 22.3092 92.4865 22.356C92.6084 22.2435 92.749 22.156 92.9021 22.0935C93.0896 22.0123 93.2896 21.9717 93.4959 21.9717C93.9084 21.9748 94.2615 22.1185 94.5584 22.406C94.6959 22.5467 94.8053 22.7092 94.8803 22.8935C94.9553 23.0748 94.9928 23.2654 94.9928 23.4654C94.9928 23.6623 94.9553 23.8529 94.8803 24.0373C94.8053 24.2185 94.6959 24.381 94.5584 24.5217C94.2678 24.8217 93.9146 24.9685 93.4959 24.9654C93.1553 24.9654 92.8459 24.8623 92.574 24.6529C92.3615 24.4842 92.2053 24.2779 92.1021 24.0279C89.6709 24.1029 87.9553 26.7748 89.5834 28.8842L93.824 35.2404C95.0521 37.081 96.9021 36.906 98.1803 35.1529H98.124Z" fill="#016FD0"/>
<path d="M67.3503 46.313C66.9566 46.313 66.4784 46.313 65.8972 46.2536C65.2941 46.2099 64.6972 46.1099 64.1097 45.9568C63.4441 45.7911 62.7909 45.5849 62.1503 45.3349C61.4534 45.0693 60.8003 44.7224 60.1878 44.2974C59.7003 43.9349 59.2441 43.5411 58.8159 43.1099C58.3159 42.6036 57.8909 42.038 57.5378 41.4193C57.1409 40.7068 56.8316 39.9568 56.6159 39.1661C56.3659 38.2036 56.2472 37.2224 56.2597 36.2255H60.4566C60.4566 38.3255 61.1691 39.8693 62.5941 40.8568C64.0378 41.8005 65.6253 42.2349 67.3503 42.1599C68.0878 42.1599 68.8128 42.0693 69.5284 41.8911C70.2097 41.7318 70.8441 41.4568 71.4253 41.0661C71.9878 40.6818 72.4441 40.2005 72.7972 39.6161C73.1722 38.9849 73.3472 38.3068 73.3284 37.5724C73.3441 36.738 73.1034 35.988 72.6003 35.3193C72.0909 34.6474 71.4753 34.0943 70.7566 33.6536C69.9472 33.1505 69.0941 32.7349 68.2003 32.4068C67.2316 32.0536 66.2816 31.7286 65.3441 31.4286C64.3941 31.1318 63.5003 30.8349 62.6722 30.538C61.9284 30.288 61.2347 29.9443 60.5878 29.5005C60.0441 29.1505 59.5534 28.738 59.1159 28.263C58.6784 27.788 58.3066 27.263 58.0066 26.6911C57.7034 26.1193 57.4784 25.5193 57.3316 24.8911C57.1847 24.263 57.1222 23.6255 57.1378 22.9786C57.1159 21.638 57.3941 20.363 57.9753 19.1536C58.5097 18.0443 59.2347 17.0786 60.1534 16.2536C61.0816 15.4286 62.1316 14.8068 63.3034 14.3849C64.5722 13.9411 65.8784 13.7224 67.2222 13.7349C68.5628 13.7443 69.8659 13.9786 71.1253 14.4443C72.2159 14.8786 73.1847 15.5036 74.0316 16.313C74.8097 17.0318 75.4128 17.8724 75.8441 18.838C76.2722 19.8036 76.4941 20.813 76.5066 21.8693H72.3472C72.3316 21.2193 72.1534 20.6161 71.8159 20.0599C71.4972 19.5661 71.0909 19.1599 70.5972 18.8411C70.0784 18.5099 69.5222 18.2693 68.9253 18.1161C68.3347 17.9599 67.7316 17.8786 67.1191 17.8786C66.3503 17.8349 65.6003 17.9349 64.8691 18.1755C64.1409 18.4161 63.4816 18.7849 62.8909 19.2755C62.3722 19.7505 61.9753 20.3099 61.7066 20.9568C61.4347 21.6036 61.3128 22.2786 61.3441 22.9786C61.3034 23.5911 61.4222 24.1724 61.6972 24.7193C61.9753 25.2661 62.3722 25.7068 62.8909 26.038C64.4503 26.9099 66.0972 27.5724 67.8284 28.0224L71.2503 29.2036C72.3972 29.6099 73.4378 30.2068 74.3722 30.9849C74.8784 31.3693 75.3347 31.8099 75.7347 32.3005C76.1378 32.7943 76.4753 33.3255 76.7503 33.8974C77.0222 34.4724 77.2253 35.0693 77.3566 35.6911C77.4878 36.3099 77.5441 36.938 77.5253 37.5724C77.5534 38.8974 77.2566 40.1443 76.6316 41.313C76.0503 42.3818 75.2816 43.2974 74.3284 44.0599C73.3441 44.8286 72.2534 45.3943 71.0534 45.7536C69.8534 46.1255 68.6222 46.313 67.3659 46.313H67.3503Z" fill="#016FD0"/>
<path d="M47.7487 18.6028C49.2862 20.1247 50.4643 21.8841 51.2862 23.8841C52.1206 25.8778 52.5393 27.956 52.5425 30.1153V44.9497H48.3456V40.4997C47.6112 41.5497 46.7393 42.4685 45.73 43.2591C44.805 43.981 43.8018 44.5716 42.7237 45.0372C41.6768 45.4903 40.5925 45.8185 39.4706 46.0216C38.4081 46.2122 37.3393 46.3091 36.2612 46.3122C34.0987 46.3185 32.0237 45.9028 30.03 45.0716C28.0518 44.2466 26.3081 43.0778 24.7925 41.5653C24.0362 40.8153 23.3643 39.9966 22.7706 39.1153C22.1768 38.231 21.6737 37.2966 21.2675 36.3153C20.8581 35.3341 20.5518 34.3185 20.3425 33.2778C20.1362 32.2341 20.0331 31.181 20.0362 30.1153C20.03 27.9591 20.4362 25.881 21.255 23.8841C22.0768 21.8841 23.255 20.1247 24.7925 18.6028C26.3081 17.0935 28.055 15.9278 30.03 15.1028C31.0175 14.6903 32.0393 14.381 33.0893 14.1716C34.1393 13.9622 35.1987 13.856 36.2706 13.856C37.3425 13.856 38.405 13.9622 39.455 14.1716C40.505 14.381 41.5237 14.6903 42.5143 15.1028C44.4893 15.9247 46.2362 17.0903 47.7487 18.6028ZM36.2737 42.1591C37.905 42.1716 39.4706 41.856 40.9675 41.2091C42.4143 40.5997 43.6956 39.7403 44.8081 38.6341C45.9175 37.5247 46.78 36.2497 47.3956 34.8028C48.0362 33.306 48.355 31.7435 48.3456 30.1153C48.3456 28.5091 48.0393 26.9653 47.4268 25.481C46.8143 23.9966 45.9425 22.6841 44.8081 21.5435C43.6925 20.4372 42.4112 19.5747 40.9675 18.956C39.4675 18.3247 37.9018 18.0091 36.2706 18.0091C34.6425 18.0091 33.0768 18.3247 31.5768 18.956C30.1331 19.5778 28.8518 20.4403 27.7331 21.5435C26.6237 22.6622 25.7612 23.9466 25.1487 25.3997C24.5143 26.9091 24.205 28.481 24.2206 30.1153C24.2112 31.7435 24.5268 33.306 25.1706 34.8028C25.7831 36.2497 26.6456 37.5247 27.7581 38.6341C28.8706 39.7403 30.1487 40.5997 31.5987 41.2091C33.0987 41.856 34.6643 42.1716 36.2956 42.1591H36.2737Z" fill="#016FD0"/>
<path fill-rule="evenodd" clip-rule="evenodd" d="M0.295704 29.3783C0.776953 45.3627 14.9457 48.4502 22.5863 45.0939L22.5332 41.2033C17.8582 42.9721 4.69883 43.4346 4.66758 29.8627L4.61133 13.5439H0.251953L0.295704 29.3783Z" fill="#016FD0"/>
<path d="M108.189 44.5156C108.179 44.2687 108.217 44.0312 108.304 43.8031C108.392 43.575 108.52 43.3687 108.686 43.1906C108.854 43.0125 109.051 42.875 109.276 42.775C109.501 42.675 109.736 42.6218 109.979 42.6156C110.226 42.6093 110.464 42.6531 110.692 42.7406C110.92 42.8312 111.123 42.9593 111.301 43.1281C111.476 43.3 111.614 43.4968 111.711 43.7218C111.807 43.9468 111.857 44.1812 111.861 44.4281C111.864 44.6718 111.82 44.9062 111.729 45.1343C111.636 45.3625 111.504 45.5625 111.332 45.7375C111.161 45.9125 110.961 46.0468 110.732 46.1406C110.507 46.2343 110.27 46.2812 110.026 46.2812C109.786 46.2875 109.554 46.2468 109.332 46.1593C109.107 46.0718 108.911 45.9437 108.739 45.7781C108.567 45.6125 108.432 45.4218 108.336 45.2031C108.242 44.9812 108.192 44.7531 108.189 44.5156ZM111.492 44.5156C111.498 44.3218 111.47 44.1343 111.401 43.9531C111.332 43.7718 111.229 43.6093 111.098 43.4687C110.964 43.3281 110.811 43.2187 110.632 43.1406C110.454 43.0625 110.27 43.0187 110.076 43.0156C109.882 43.0093 109.695 43.0437 109.514 43.1125C109.332 43.1843 109.173 43.2875 109.032 43.4218C108.892 43.5562 108.786 43.7125 108.707 43.8906C108.629 44.0656 108.592 44.2531 108.589 44.4468C108.586 44.6406 108.62 44.825 108.695 45.0062C108.767 45.1843 108.87 45.3437 109.007 45.4812C109.145 45.6187 109.301 45.725 109.479 45.8C109.661 45.875 109.845 45.9125 110.039 45.9125C110.229 45.9125 110.411 45.8781 110.586 45.8062C110.761 45.7375 110.914 45.6375 111.048 45.5062C111.186 45.375 111.292 45.225 111.367 45.0531C111.445 44.8812 111.486 44.7031 111.492 44.5156ZM109.417 43.5062H110.07C110.157 43.4937 110.245 43.5 110.332 43.5218C110.42 43.5468 110.498 43.5875 110.567 43.6468C110.636 43.7031 110.692 43.7718 110.732 43.8531C110.77 43.9343 110.792 44.0187 110.795 44.1093C110.789 44.3687 110.664 44.5437 110.417 44.6312L110.97 45.5218H110.526L110.032 44.6656H109.823V45.5218H109.439L109.417 43.5062ZM110.098 44.3468C110.286 44.3468 110.389 44.2468 110.389 44.1093C110.389 43.9718 110.273 43.8562 110.07 43.8562H109.801V44.3468H110.098Z" fill="#016FD0"/>
</g>
<defs>
<clipPath id="clip0_2339_10947">
<rect width="112.5" height="60" fill="white"/>
</clipPath>
</defs>
</svg>
