<?xml version="1.0" encoding="utf-8"?>
<!-- Generator: Adobe Illustrator 25.2.1, SVG Export Plug-In . SVG Version: 6.00 Build 0)  -->
<svg version="1.1" id="Layer_1" xmlns="http://www.w3.org/2000/svg" xmlns:xlink="http://www.w3.org/1999/xlink" x="0px" y="0px"
	 viewBox="0 0 648 648" style="enable-background:new 0 0 648 648;" xml:space="preserve">
<style type="text/css">
	.st0{fill:#0056D2;}
	.st1{fill:#FFFFFF;}
</style>
<g id="Layer_2_1_">
	<path class="st0" d="M565,606.4H82.9c-24,0-43.4-19.4-43.4-43.4V80.8c0-23.9,19.4-43.3,43.4-43.3h482.2c24,0,43.4,19.4,43.4,43.4
		v482.2C608.5,587,589,606.4,565,606.4z"/>
</g>
<g id="txt">
	<g>
		<path class="st1" d="M151.3,321.3c0-18.3,15.1-33.1,34-33.1c19.1,0,34.1,14.8,34.1,33.1c0,18.2-15.1,33.2-34.1,33.2
			C166.3,354.5,151.3,339.5,151.3,321.3z M203.1,321.3c0-9.1-8-17.2-17.9-17.2c-9.8,0-17.6,8.1-17.6,17.2c0,9.2,8,17.3,17.6,17.3
			C195.2,338.7,203.1,330.6,203.1,321.3z"/>
		<path class="st1" d="M492.9,321.9c0-20.1,16.4-33.6,31.3-33.6c10.1,0,16,3,20,9l1.5-7.9H561v63.9h-15.3l-1.9-6.5
			c-4.5,4.8-10.1,7.9-19.4,7.9C509.4,354.5,492.9,341.7,492.9,321.9L492.9,321.9z M544.8,321.7c0-9.7-8.1-17.5-17.9-17.5
			c-9.8,0-17.7,8-17.7,17.8c0,8.8,8.1,16.8,17.7,16.8C536.9,338.7,544.8,330.7,544.8,321.7L544.8,321.7z"/>
		<path class="st1" d="M474.5,297.3V290h-16.2v62.8h16.2v-33.9c0-10.1,4.9-15.6,13.8-15.6c0.7,0,1.1,0,1.6,0.1l2.9-15.2
			C484.5,288.4,478.4,291.3,474.5,297.3L474.5,297.3z"/>
		<path class="st1" d="M309,297.3V290h-16.7l0.1,62.8h16.7l-0.1-33.9c0-10.1,5.1-15.6,14-15.6c0.7,0,1.1,0,1.7,0.1l3-15.2
			C319,288.4,312.8,291.3,309,297.3L309,297.3z"/>
		<path class="st1" d="M226,328.4v-39.1h16.3v37.1c0,8.2,4.5,13,12.3,13c8.7,0,13.8-5.4,13.8-15.7v-34.3h16.3v63.8h-16.3v-7.5
			c-3.9,6.1-10.1,8.9-18.7,8.9C235,354.7,226,344,226,328.4L226,328.4z"/>
		<path class="st1" d="M386.4,321.3c0-17.9,12.9-33.1,33.2-33c18.9,0,32.1,15.1,32.1,32.7c0,1.8-0.1,3.7-0.4,5.3l-48.7-0.1
			c1.9,7.7,8.3,13.1,17.7,13.2c5.8,0,12-2.2,15.8-6.9l11.3,9.1c-5.8,8.2-16.1,13-26.9,13C401.3,354.3,386.4,339.9,386.4,321.3
			L386.4,321.3z M435.3,314.8c-0.9-6.4-7.7-11.5-15.6-11.5c-7.7,0-13.9,4.6-16.3,11.4L435.3,314.8z"/>
		<path class="st1" d="M327.7,339.6l14.7-7.7c2.4,5.3,7.4,8.3,14.2,8.3c6.4,0,8.7-2,8.7-4.7c0-10.1-35-4-35-27.4
			c0-12.9,11.4-19.7,25.5-19.7c10.6,0,20.2,4.6,25.4,13.5l-14.6,7.7c-2.2-4.3-6.3-6.6-11.4-6.6s-7.5,1.8-7.5,4.6
			c0,10,35,3.6,35,27.4c0,12.3-10.1,19.8-26.6,19.8C342.3,354.4,332.5,349.9,327.7,339.6L327.7,339.6z"/>
		<path class="st1" d="M86.9,321.1c0-18.2,15-32.7,33.8-32.7c12,0,22.6,6,28.5,14.9l-14.1,8.1c-3.3-4.5-8.4-7.5-14.5-7.5
			c-9.7,0-17.4,8-17.4,17.1s8,17.1,17.4,17.1c6.3,0,11.9-3.2,14.9-8.1l13.9,8.3c-5.9,9.3-16.6,15.6-28.8,15.6
			C101.9,353.8,86.9,338.8,86.9,321.1L86.9,321.1z"/>
	</g>
</g>
</svg>
