<?xml version="1.0" encoding="utf-8"?>
<!-- Generator: Adobe Illustrator 25.2.1, SVG Export Plug-In . SVG Version: 6.00 Build 0)  -->
<svg version="1.1" xmlns="http://www.w3.org/2000/svg" xmlns:xlink="http://www.w3.org/1999/xlink" x="0px" y="0px"
	 viewBox="0 0 648 648" style="enable-background:new 0 0 648 648;" xml:space="preserve">
<style type="text/css">
	.st0{fill:#0056D2;}
	.st1{fill:#FFFFFF;}
</style>
<g id="Layer_2">
	<path class="st0" d="M578.2,625H69.8C44.5,625,24,604.5,24,579.2V70.7C24,45.5,44.5,25,69.8,25h508.5c25.3,0,45.8,20.5,45.8,45.8
		v508.5C624,604.5,603.5,625,578.2,625z"/>
</g>
<g id="txt">
	<g>
		<path class="st1" d="M141.9,324.4c0-19.3,15.9-34.9,35.9-34.9c20.1,0,36,15.6,36,34.9c0,19.2-15.9,35-36,35
			C157.8,359.4,141.9,343.5,141.9,324.4z M196.6,324.4c0-9.6-8.4-18.1-18.9-18.1c-10.3,0-18.6,8.5-18.6,18.1
			c0,9.7,8.4,18.2,18.6,18.2C188.2,342.7,196.6,334.2,196.6,324.4z"/>
		<path class="st1" d="M502.1,325c0-21.2,17.3-35.4,33-35.4c10.7,0,16.9,3.2,21.1,9.5l1.6-8.3H574v67.4h-16.1l-2-6.9
			c-4.7,5.1-10.6,8.3-20.5,8.3C519.6,359.4,502.2,345.9,502.1,325L502.1,325z M556.9,324.8c0-10.2-8.5-18.5-18.9-18.5
			c-10.3,0-18.7,8.4-18.7,18.8c0,9.3,8.5,17.7,18.7,17.7C548.6,342.7,556.9,334.3,556.9,324.8L556.9,324.8z"/>
		<path class="st1" d="M482.8,299v-7.7h-17.1v66.2h17.1v-35.7c0-10.7,5.2-16.4,14.5-16.4c0.7,0,1.2,0,1.7,0.1l3.1-16
			C493.3,289.7,486.9,292.7,482.8,299L482.8,299z"/>
		<path class="st1" d="M308.2,299v-7.7h-17.6l0.1,66.2h17.6l-0.1-35.7c0-10.7,5.4-16.4,14.8-16.4c0.7,0,1.2,0,1.8,0.1l3.2-16
			C318.8,289.7,312.2,292.7,308.2,299L308.2,299z"/>
		<path class="st1" d="M220.7,331.8v-41.2h17.2v39.1c0,8.6,4.7,13.7,13,13.7c9.2,0,14.6-5.7,14.6-16.6v-36.2h17.2v67.3h-17.2V350
			c-4.1,6.4-10.6,9.4-19.7,9.4C230.2,359.6,220.7,348.3,220.7,331.8L220.7,331.8z"/>
		<path class="st1" d="M389.9,324.4c0-18.9,13.6-34.9,35-34.8c19.9,0,33.9,15.9,33.9,34.5c0,1.9-0.1,3.9-0.4,5.6l-51.4-0.1
			c2,8.1,8.7,13.8,18.7,13.9c6.1,0,12.7-2.3,16.7-7.3l11.9,9.6c-6.1,8.6-17,13.7-28.4,13.7C405.6,359.2,389.9,344,389.9,324.4
			L389.9,324.4z M441.4,317.5c-0.9-6.8-8.1-12.1-16.4-12.1c-8.1,0-14.7,4.8-17.2,12L441.4,317.5z"/>
		<path class="st1" d="M327.9,343.6l15.5-8.1c2.5,5.6,7.8,8.7,15,8.7c6.7,0,9.2-2.1,9.2-5c0-10.7-36.9-4.2-36.9-28.9
			c0-13.6,12-20.8,26.9-20.8c11.2,0,21.3,4.9,26.8,14.2l-15.4,8.1c-2.3-4.5-6.6-7-12-7c-5.4,0-7.9,1.9-7.9,4.9
			c0,10.5,36.9,3.8,36.9,28.9c0,13-10.7,20.9-28,20.9C343.3,359.3,333,354.5,327.9,343.6L327.9,343.6z"/>
		<path class="st1" d="M74,324.1c0-19.2,15.8-34.5,35.6-34.5c12.7,0,23.8,6.3,30.1,15.7l-14.9,8.5c-3.5-4.7-8.9-7.9-15.3-7.9
			c-10.2,0-18.4,8.4-18.4,18c0,9.6,8.4,18,18.4,18c6.6,0,12.5-3.4,15.7-8.5l14.7,8.7c-6.2,9.8-17.5,16.4-30.4,16.4
			C89.8,358.6,74,342.8,74,324.1L74,324.1z"/>
	</g>
</g>
</svg>
