<?xml version="1.0" encoding="utf-8"?>
<!-- Generator: Adobe Illustrator 25.2.1, SVG Export Plug-In . SVG Version: 6.00 Build 0)  -->
<svg version="1.1" id="Layer_2_1_" xmlns="http://www.w3.org/2000/svg" xmlns:xlink="http://www.w3.org/1999/xlink" x="0px" y="0px"
	 viewBox="0 0 720 720" style="enable-background:new 0 0 720 720;" xml:space="preserve">
<style type="text/css">
	.st0{fill:none;stroke:#FFBF00;stroke-linecap:round;stroke-miterlimit:10;}
	.st1{fill:#FFBF00;}
	.st2{font-family:'ArialMT';}
	.st3{font-size:26px;}
	.st4{clip-path:url(#SVGID_2_);}
	.st5{clip-path:url(#SVGID_4_);}
</style>
<g>
	<g>
		<line class="st0" x1="37.1" y1="347.7" x2="679.2" y2="347.7"/>
		<g>
			<path class="st1" d="M45.2,353.4c0.1-0.2,0.1-0.6-0.2-0.8l-7.8-4.9l7.8-4.9c0.2-0.1,0.4-0.6,0.2-0.8c-0.1-0.2-0.6-0.4-0.8-0.2
				l-8.5,5.4c-0.1,0.1-0.2,0.4-0.2,0.5c0,0.1,0.1,0.4,0.2,0.5l8.5,5.4c0.1,0.1,0.2,0.1,0.4,0.1C45,353.8,45.1,353.6,45.2,353.4z"/>
		</g>
		<g>
			<path class="st1" d="M671,353.4c-0.1-0.2-0.1-0.6,0.2-0.8l7.8-4.9l-7.8-4.9c-0.2-0.1-0.4-0.6-0.2-0.8c0.1-0.2,0.6-0.4,0.8-0.2
				l8.5,5.4c0.1,0.1,0.2,0.4,0.2,0.5c0,0.1-0.1,0.4-0.2,0.5l-8.5,5.4c-0.1,0.1-0.2,0.1-0.4,0.1C671.3,353.8,671.1,353.6,671,353.4z"
				/>
		</g>
	</g>
</g>
<g>
	<g>
		<line class="st0" x1="358.1" y1="668.7" x2="358.1" y2="26.6"/>
		<g>
			<path class="st1" d="M363.9,660.6c-0.2-0.1-0.6-0.1-0.8,0.2l-4.9,7.8l-4.9-7.8c-0.1-0.2-0.6-0.4-0.8-0.2s-0.4,0.6-0.2,0.8
				l5.4,8.5c0.1,0.1,0.4,0.2,0.5,0.2c0.1,0,0.4-0.1,0.5-0.2l5.4-8.5c0.1-0.1,0.1-0.2,0.1-0.4C364.1,660.9,364,660.7,363.9,660.6z"/>
		</g>
		<g>
			<path class="st1" d="M363.9,34.9c-0.2,0.1-0.6,0.1-0.8-0.2l-4.9-7.8l-4.9,7.8c-0.1,0.2-0.6,0.4-0.8,0.2c-0.2-0.1-0.4-0.6-0.2-0.8
				l5.4-8.5c0.1-0.1,0.4-0.2,0.5-0.2c0.1,0,0.4,0.1,0.5,0.2l5.4,8.5c0.1,0.1,0.1,0.2,0.1,0.4C364.1,34.5,364,34.8,363.9,34.9z"/>
		</g>
	</g>
</g>
<text transform="matrix(6.123234e-17 -1 1 6.123234e-17 350.8018 290.2744)" class="st1 st2 st3">High User Experience</text>
<text transform="matrix(6.123234e-17 -1 1 6.123234e-17 350.8014 656.7168)" class="st1 st2 st3">Low User Experience</text>
<text transform="matrix(1 0 0 1 510.9922 370.0004)" class="st1 st2 st3">High Features</text>
<text transform="matrix(1 0 0 1 45.303 370.0004)" class="st1 st2 st3">Low Features</text>
<image style="overflow:visible;enable-background:new    ;" width="512" height="512" xlink:href="../../../../Downloads/unnamed.png"  transform="matrix(0.1105 0 0 0.1105 486.1781 175.7367)">
</image>
<image style="overflow:visible;enable-background:new    ;" width="300" height="300" xlink:href="../../../../Downloads/unnamed5.png"  transform="matrix(0.2239 0 0 0.2239 414.0305 232.3127)">
</image>
<image style="overflow:visible;enable-background:new    ;" width="486" height="466" xlink:href="../../../../Downloads/1200x630wa.png"  transform="matrix(0.1301 0 0 0.1301 553.902 110.0694)">
</image>
<image style="overflow:visible;enable-background:new    ;" width="512" height="512" xlink:href="../../../../Downloads/unnamed (1).png"  transform="matrix(0.1077 0 0 0.1077 180.3157 487.8749)">
</image>
<g>
	<g>
		<defs>
			<path id="SVGID_1_" d="M554.9,434.1H585c6.7,0,12.1,5.4,12.1,12.1v29.6c0,6.7-5.4,12.1-12.1,12.1h-30.1
				c-6.7,0-12.1-5.4-12.1-12.1v-29.6C542.8,439.5,548.2,434.1,554.9,434.1z"/>
		</defs>
		<clipPath id="SVGID_2_">
			<use xlink:href="#SVGID_1_"  style="overflow:visible;"/>
		</clipPath>
		<g transform="matrix(1 0 0 1 -6.103516e-05 1.525879e-05)" class="st4">
			
				<image style="overflow:visible;enable-background:new    ;" width="213" height="210" xlink:href="../../../../Downloads/IMG_4024 copy.jpg"  transform="matrix(0.2857 0 0 0.2857 539.551 431.7781)">
			</image>
		</g>
	</g>
</g>
<g>
	<g>
		<defs>
			<path id="SVGID_3_" d="M490.9,487.1h31.7c7,0,12.7,5.7,12.7,12.7V531c0,7-5.7,12.7-12.7,12.7h-31.7c-7,0-12.7-5.7-12.7-12.7
				v-31.2C478.1,492.8,483.8,487.1,490.9,487.1z"/>
		</defs>
		<clipPath id="SVGID_4_">
			<use xlink:href="#SVGID_3_"  style="overflow:visible;"/>
		</clipPath>
		<g class="st5">
			
				<image style="overflow:visible;enable-background:new    ;" width="256" height="256" xlink:href="../../../../Downloads/c5ddef02aeff55706dbbfcec31315b5c.jpeg"  transform="matrix(0.2214 0 0 0.2214 478.1825 487.1811)">
			</image>
		</g>
	</g>
</g>
</svg>
