<svg width="88" height="28" viewBox="0 0 88 28" fill="none" xmlns="http://www.w3.org/2000/svg">
<g clip-path="url(#clip0_3105_11669)">
<path d="M38.6432 9.92856C39.0899 8.14285 40.876 5.91071 44.4459 5.91071C48.0159 5.91071 50.6959 8.58928 51.1424 11.2678C51.5888 13.9464 50.2495 15.2857 48.9102 16.625C47.9997 17.5355 47.5709 17.9643 46.6781 19.75C45.7852 21.5357 46.3805 24.0655 46.2317 24.6607C46.0828 25.2559 45.3388 25.5536 43.9995 25.5536C42.1784 25.5536 42.6602 23.7679 42.6602 22.875C42.6602 21.0343 42.5702 20.8214 42.213 19.75C41.7666 18.4107 40.8749 17.5178 39.5357 15.7321C38.1964 13.9464 38.3006 11.2982 38.6432 9.92856Z" fill="#FAEED4"/>
<mask id="path-2-inside-1_3105_11669" fill="white">
<path d="M41.2627 21.7642C41.0105 21.7703 40.7893 21.5994 40.7539 21.3654C40.7163 21.1213 40.8955 20.8955 41.1565 20.8487C40.8689 19.3492 40.0836 18.5232 39.254 17.6504C38.6081 16.9709 37.9378 16.2649 37.409 15.2253C36.8892 14.2019 36.6038 13.144 36.6127 12.0454C36.6237 10.9467 36.9268 9.81554 37.586 8.64569C37.5904 8.63756 37.5949 8.63145 37.5993 8.62332C38.4643 7.27647 39.6743 6.37722 41.0216 5.87266C42.152 5.44745 43.3798 5.303 44.5832 5.40473C45.7822 5.50645 46.9569 5.85232 47.9833 6.40977C49.2907 7.11982 50.3614 8.17369 50.9521 9.50426C51.2707 10.2245 51.4874 11.0281 51.514 11.909C51.5405 12.7859 51.3768 13.732 50.9366 14.7329C50.3482 16.0737 49.5695 16.9058 48.8417 17.685C48.1714 18.4032 47.5475 19.0705 47.2002 20.0939C47.3971 20.1366 47.552 20.2851 47.5829 20.4804C47.6205 20.7327 47.4281 20.9667 47.1538 21.0012L46.9834 21.0236C46.9524 21.2454 46.9325 21.4834 46.9237 21.7377L46.979 21.7296C47.2533 21.695 47.5077 21.872 47.5453 22.1243C47.5829 22.3766 47.3905 22.6105 47.1162 22.6451L46.9436 22.6675C46.9458 22.698 46.948 22.7285 46.9502 22.7591C46.9657 22.9381 46.9679 23.111 46.9569 23.2758L46.9856 23.2718C47.2622 23.2412 47.5121 23.4223 47.5475 23.6746C47.5807 23.9289 47.3838 24.1588 47.1095 24.1913L46.7379 24.2341C46.4724 24.8668 45.999 25.349 45.4393 25.646C45.0544 25.8515 44.6274 25.9695 44.1983 25.9939C43.7625 26.0183 43.3222 25.9431 42.9196 25.764C42.4595 25.5565 42.048 25.2127 41.7494 24.7183C41.6056 24.6511 41.4994 24.5209 41.4773 24.3622C41.4684 24.2992 41.4751 24.2381 41.4928 24.1812C41.4065 23.9452 41.3423 23.6868 41.3003 23.402L41.2848 23.404C41.0105 23.4386 40.7561 23.2616 40.7185 23.0093C40.6809 22.757 40.8733 22.5231 41.1477 22.4885L41.2671 22.4722C41.276 22.224 41.2737 21.988 41.2627 21.7642ZM44.6451 14.4074C44.6451 14.2182 44.5965 14.0717 44.4925 13.9639C44.3907 13.8561 44.216 13.7584 43.9616 13.6608C43.7116 13.5672 43.4749 13.4695 43.2625 13.3739C43.0501 13.2762 42.8643 13.1643 42.7095 13.0362C42.5546 12.908 42.4374 12.7615 42.3533 12.5926C42.2692 12.4258 42.2316 12.2224 42.2316 11.9823C42.2316 11.5815 42.3798 11.2519 42.6719 10.9955C42.9639 10.7372 43.3554 10.5846 43.8443 10.5419V10.0047H44.4593V10.5561C44.9305 10.6192 45.3022 10.7962 45.572 11.0891C45.8419 11.3821 45.9791 11.7524 45.9791 12.202H44.6695C44.6695 11.9538 44.6164 11.7666 44.5146 11.6323C44.4129 11.5001 44.2646 11.433 44.0744 11.433C43.904 11.433 43.7713 11.4818 43.6806 11.5795C43.5855 11.6771 43.5412 11.8134 43.5412 11.9843C43.5412 12.1593 43.5943 12.2976 43.7049 12.4034C43.8156 12.5072 43.9859 12.6048 44.2248 12.7005C44.4637 12.7941 44.6916 12.8917 44.904 12.9894C45.1163 13.0911 45.2977 13.205 45.4548 13.3312C45.6096 13.4593 45.7313 13.6099 45.8198 13.7808C45.9061 13.9517 45.9525 14.1551 45.9525 14.3952C45.9525 14.8001 45.8132 15.1317 45.5322 15.386C45.2513 15.6403 44.8708 15.7909 44.3907 15.8336V16.3361H43.7757V15.8316C43.2138 15.7766 42.7825 15.6017 42.4816 15.3006C42.1807 14.9995 42.0303 14.6068 42.0303 14.1144H43.3355C43.3355 14.3871 43.3997 14.5885 43.528 14.7329C43.6563 14.8733 43.8421 14.9466 44.081 14.9466C44.2558 14.9466 44.3929 14.8977 44.4947 14.8041C44.5943 14.7106 44.6473 14.5763 44.6473 14.4094H44.6451V14.4074ZM31.9825 12.9751C31.7237 12.9812 31.5091 12.7961 31.5003 12.558C31.4914 12.32 31.695 12.1227 31.9538 12.1145L33.8784 12.0535C34.1372 12.0454 34.3518 12.2325 34.3606 12.4706C34.3695 12.7086 34.166 12.9059 33.9071 12.9141L31.9825 12.9751ZM55.9848 11.2234C56.2414 11.199 56.4715 11.3719 56.4981 11.6079C56.5246 11.8439 56.3366 12.0555 56.08 12.0799L54.1642 12.2651C53.9076 12.2895 53.6775 12.1166 53.651 11.8806C53.6244 11.6446 53.8125 11.433 54.0691 11.4086L55.9848 11.2234ZM52.4962 4.00702C52.64 3.80968 52.9298 3.75678 53.1444 3.88902C53.359 4.02126 53.4165 4.28778 53.2727 4.48513L52.202 5.95811C52.0582 6.15546 51.7684 6.20836 51.5538 6.07611C51.3392 5.94387 51.2817 5.67735 51.4255 5.48L52.4962 4.00702ZM44.2491 1.41913C44.2558 1.18109 44.4704 0.99392 44.727 1.00002C44.9836 1.00613 45.1893 1.20347 45.1827 1.43948L45.134 3.2095C45.1274 3.44753 44.9128 3.63471 44.6562 3.6286C44.3974 3.6225 44.1938 3.42515 44.2005 3.18915L44.2491 1.41913ZM34.5708 4.15961C34.3806 3.99685 34.3717 3.72423 34.5465 3.55129C34.7234 3.37633 35.0199 3.36819 35.2079 3.52891L36.6171 4.73741C36.8073 4.90017 36.8162 5.17279 36.6414 5.34573C36.4644 5.52069 36.168 5.52883 35.98 5.36811L34.5708 4.15961ZM42.0923 20.7246L46.1826 20.1895C46.5343 18.8264 47.2998 18.0065 48.1293 17.1214C48.8107 16.3931 49.5363 15.6159 50.0672 14.4074C50.4566 13.5224 50.6004 12.6923 50.5782 11.9274C50.5561 11.1644 50.3659 10.4605 50.0827 9.82367C49.5739 8.67825 48.6426 7.76679 47.5055 7.1483C46.5963 6.65391 45.5588 6.3467 44.4991 6.25922C43.4439 6.1697 42.3666 6.29788 41.3733 6.67019C40.2097 7.10761 39.1633 7.88479 38.4112 9.05463C37.8272 10.0963 37.5573 11.0932 37.5484 12.0515C37.5396 13.0158 37.794 13.9496 38.2563 14.8591C38.7275 15.7868 39.3558 16.446 39.9575 17.0808C40.8955 18.0695 41.7826 19.0034 42.0923 20.7246ZM46.0167 21.1457L42.1962 21.6441C42.2073 21.8679 42.2117 22.1019 42.2073 22.3501L45.9791 21.8578C45.9835 21.6075 45.9946 21.3695 46.0167 21.1457ZM42.2272 23.2819C42.2538 23.4691 42.2936 23.64 42.3444 23.7987L46.0056 23.3837C46.03 23.2087 46.0344 23.0235 46.0167 22.8262V22.8221L46.0145 22.7875L42.2272 23.2819ZM42.8643 24.6735C43.0059 24.8098 43.163 24.9156 43.3289 24.9889C43.5833 25.1028 43.8642 25.1496 44.1408 25.1354C44.4239 25.1191 44.7093 25.0397 44.9681 24.9014C45.2115 24.7712 45.4305 24.5901 45.6052 24.3622L42.8643 24.6735Z"/>
</mask>
<path d="M41.2627 21.7642C41.0105 21.7703 40.7893 21.5994 40.7539 21.3654C40.7163 21.1213 40.8955 20.8955 41.1565 20.8487C40.8689 19.3492 40.0836 18.5232 39.254 17.6504C38.6081 16.9709 37.9378 16.2649 37.409 15.2253C36.8892 14.2019 36.6038 13.144 36.6127 12.0454C36.6237 10.9467 36.9268 9.81554 37.586 8.64569C37.5904 8.63756 37.5949 8.63145 37.5993 8.62332C38.4643 7.27647 39.6743 6.37722 41.0216 5.87266C42.152 5.44745 43.3798 5.303 44.5832 5.40473C45.7822 5.50645 46.9569 5.85232 47.9833 6.40977C49.2907 7.11982 50.3614 8.17369 50.9521 9.50426C51.2707 10.2245 51.4874 11.0281 51.514 11.909C51.5405 12.7859 51.3768 13.732 50.9366 14.7329C50.3482 16.0737 49.5695 16.9058 48.8417 17.685C48.1714 18.4032 47.5475 19.0705 47.2002 20.0939C47.3971 20.1366 47.552 20.2851 47.5829 20.4804C47.6205 20.7327 47.4281 20.9667 47.1538 21.0012L46.9834 21.0236C46.9524 21.2454 46.9325 21.4834 46.9237 21.7377L46.979 21.7296C47.2533 21.695 47.5077 21.872 47.5453 22.1243C47.5829 22.3766 47.3905 22.6105 47.1162 22.6451L46.9436 22.6675C46.9458 22.698 46.948 22.7285 46.9502 22.7591C46.9657 22.9381 46.9679 23.111 46.9569 23.2758L46.9856 23.2718C47.2622 23.2412 47.5121 23.4223 47.5475 23.6746C47.5807 23.9289 47.3838 24.1588 47.1095 24.1913L46.7379 24.2341C46.4724 24.8668 45.999 25.349 45.4393 25.646C45.0544 25.8515 44.6274 25.9695 44.1983 25.9939C43.7625 26.0183 43.3222 25.9431 42.9196 25.764C42.4595 25.5565 42.048 25.2127 41.7494 24.7183C41.6056 24.6511 41.4994 24.5209 41.4773 24.3622C41.4684 24.2992 41.4751 24.2381 41.4928 24.1812C41.4065 23.9452 41.3423 23.6868 41.3003 23.402L41.2848 23.404C41.0105 23.4386 40.7561 23.2616 40.7185 23.0093C40.6809 22.757 40.8733 22.5231 41.1477 22.4885L41.2671 22.4722C41.276 22.224 41.2737 21.988 41.2627 21.7642ZM44.6451 14.4074C44.6451 14.2182 44.5965 14.0717 44.4925 13.9639C44.3907 13.8561 44.216 13.7584 43.9616 13.6608C43.7116 13.5672 43.4749 13.4695 43.2625 13.3739C43.0501 13.2762 42.8643 13.1643 42.7095 13.0362C42.5546 12.908 42.4374 12.7615 42.3533 12.5926C42.2692 12.4258 42.2316 12.2224 42.2316 11.9823C42.2316 11.5815 42.3798 11.2519 42.6719 10.9955C42.9639 10.7372 43.3554 10.5846 43.8443 10.5419V10.0047H44.4593V10.5561C44.9305 10.6192 45.3022 10.7962 45.572 11.0891C45.8419 11.3821 45.9791 11.7524 45.9791 12.202H44.6695C44.6695 11.9538 44.6164 11.7666 44.5146 11.6323C44.4129 11.5001 44.2646 11.433 44.0744 11.433C43.904 11.433 43.7713 11.4818 43.6806 11.5795C43.5855 11.6771 43.5412 11.8134 43.5412 11.9843C43.5412 12.1593 43.5943 12.2976 43.7049 12.4034C43.8156 12.5072 43.9859 12.6048 44.2248 12.7005C44.4637 12.7941 44.6916 12.8917 44.904 12.9894C45.1163 13.0911 45.2977 13.205 45.4548 13.3312C45.6096 13.4593 45.7313 13.6099 45.8198 13.7808C45.9061 13.9517 45.9525 14.1551 45.9525 14.3952C45.9525 14.8001 45.8132 15.1317 45.5322 15.386C45.2513 15.6403 44.8708 15.7909 44.3907 15.8336V16.3361H43.7757V15.8316C43.2138 15.7766 42.7825 15.6017 42.4816 15.3006C42.1807 14.9995 42.0303 14.6068 42.0303 14.1144H43.3355C43.3355 14.3871 43.3997 14.5885 43.528 14.7329C43.6563 14.8733 43.8421 14.9466 44.081 14.9466C44.2558 14.9466 44.3929 14.8977 44.4947 14.8041C44.5943 14.7106 44.6473 14.5763 44.6473 14.4094H44.6451V14.4074ZM31.9825 12.9751C31.7237 12.9812 31.5091 12.7961 31.5003 12.558C31.4914 12.32 31.695 12.1227 31.9538 12.1145L33.8784 12.0535C34.1372 12.0454 34.3518 12.2325 34.3606 12.4706C34.3695 12.7086 34.166 12.9059 33.9071 12.9141L31.9825 12.9751ZM55.9848 11.2234C56.2414 11.199 56.4715 11.3719 56.4981 11.6079C56.5246 11.8439 56.3366 12.0555 56.08 12.0799L54.1642 12.2651C53.9076 12.2895 53.6775 12.1166 53.651 11.8806C53.6244 11.6446 53.8125 11.433 54.0691 11.4086L55.9848 11.2234ZM52.4962 4.00702C52.64 3.80968 52.9298 3.75678 53.1444 3.88902C53.359 4.02126 53.4165 4.28778 53.2727 4.48513L52.202 5.95811C52.0582 6.15546 51.7684 6.20836 51.5538 6.07611C51.3392 5.94387 51.2817 5.67735 51.4255 5.48L52.4962 4.00702ZM44.2491 1.41913C44.2558 1.18109 44.4704 0.99392 44.727 1.00002C44.9836 1.00613 45.1893 1.20347 45.1827 1.43948L45.134 3.2095C45.1274 3.44753 44.9128 3.63471 44.6562 3.6286C44.3974 3.6225 44.1938 3.42515 44.2005 3.18915L44.2491 1.41913ZM34.5708 4.15961C34.3806 3.99685 34.3717 3.72423 34.5465 3.55129C34.7234 3.37633 35.0199 3.36819 35.2079 3.52891L36.6171 4.73741C36.8073 4.90017 36.8162 5.17279 36.6414 5.34573C36.4644 5.52069 36.168 5.52883 35.98 5.36811L34.5708 4.15961ZM42.0923 20.7246L46.1826 20.1895C46.5343 18.8264 47.2998 18.0065 48.1293 17.1214C48.8107 16.3931 49.5363 15.6159 50.0672 14.4074C50.4566 13.5224 50.6004 12.6923 50.5782 11.9274C50.5561 11.1644 50.3659 10.4605 50.0827 9.82367C49.5739 8.67825 48.6426 7.76679 47.5055 7.1483C46.5963 6.65391 45.5588 6.3467 44.4991 6.25922C43.4439 6.1697 42.3666 6.29788 41.3733 6.67019C40.2097 7.10761 39.1633 7.88479 38.4112 9.05463C37.8272 10.0963 37.5573 11.0932 37.5484 12.0515C37.5396 13.0158 37.794 13.9496 38.2563 14.8591C38.7275 15.7868 39.3558 16.446 39.9575 17.0808C40.8955 18.0695 41.7826 19.0034 42.0923 20.7246ZM46.0167 21.1457L42.1962 21.6441C42.2073 21.8679 42.2117 22.1019 42.2073 22.3501L45.9791 21.8578C45.9835 21.6075 45.9946 21.3695 46.0167 21.1457ZM42.2272 23.2819C42.2538 23.4691 42.2936 23.64 42.3444 23.7987L46.0056 23.3837C46.03 23.2087 46.0344 23.0235 46.0167 22.8262V22.8221L46.0145 22.7875L42.2272 23.2819ZM42.8643 24.6735C43.0059 24.8098 43.163 24.9156 43.3289 24.9889C43.5833 25.1028 43.8642 25.1496 44.1408 25.1354C44.4239 25.1191 44.7093 25.0397 44.9681 24.9014C45.2115 24.7712 45.4305 24.5901 45.6052 24.3622L42.8643 24.6735Z" fill="#505050" stroke="white" stroke-width="0.4" mask="url(#path-2-inside-1_3105_11669)"/>
</g>
<defs>
<clipPath id="clip0_3105_11669">
<rect width="25" height="25" fill="white" transform="translate(31.5 1)"/>
</clipPath>
</defs>
</svg>
