<svg width="29" height="28" viewBox="0 0 29 28" fill="none" xmlns="http://www.w3.org/2000/svg">
<path d="M16.0449 2.38165C16.5967 2.38206 17.0447 2.82979 17.0449 3.38165V4.74103C18.2635 5.0728 19.385 5.6379 20.3594 6.38654L21.748 5.08575C22.151 4.70847 22.7845 4.72892 23.1621 5.13165L24.5576 6.62091C24.9351 7.02358 24.9149 7.65618 24.5127 8.034L22.9795 9.47052C23.4755 10.3951 23.8246 11.4096 23.9951 12.4842H25.1357C25.6875 12.4846 26.1355 12.9323 26.1357 13.4842V15.5252C26.1357 16.0772 25.6877 16.5248 25.1357 16.5252H23.7773C23.5155 17.4874 23.1075 18.3882 22.5791 19.2049L23.5029 20.1561C23.8875 20.5521 23.878 21.1853 23.4824 21.5701L22.0176 22.992C21.6214 23.3767 20.9883 23.3677 20.6035 22.9715L19.7207 22.0623C18.9051 22.5897 18.0056 22.997 17.0449 23.2586V24.618C17.0447 25.1698 16.5967 25.6176 16.0449 25.618H14.0039C13.4518 25.618 13.0041 25.1701 13.0039 24.618V23.4774C11.8321 23.2915 10.7322 22.8925 9.74219 22.3231L8.41309 23.5692C8.01022 23.9469 7.37679 23.9271 6.99902 23.5242L5.60352 22.035C5.22586 21.6322 5.24586 20.9997 5.64844 20.6219L6.73145 19.6063C6.06892 18.6875 5.56515 17.6477 5.25977 16.5252H3.90234C3.35006 16.5252 2.90234 16.0775 2.90234 15.5252V13.4842C2.90256 12.9321 3.35019 12.4842 3.90234 12.4842H5.04199C5.2939 10.8968 5.9339 9.43909 6.86328 8.21173L5.61426 6.92462C5.22955 6.52846 5.2387 5.89533 5.63477 5.51056L7.09961 4.08868C7.49585 3.70445 8.12909 3.71316 8.51367 4.10919L9.92969 5.56818C10.8701 5.05523 11.9062 4.69633 13.0039 4.52228V3.38165C13.0041 2.82954 13.4517 2.38165 14.0039 2.38165H16.0449ZM14.5205 8.44318C11.4521 8.44338 8.96504 10.9314 8.96484 13.9998C8.96493 17.0684 11.452 19.5563 14.5205 19.5565C17.5536 19.5562 20.0176 17.1258 20.0742 14.1063V13.8924C20.0168 10.8736 17.553 8.44338 14.5205 8.44318Z" fill="#FAEED4"/>
<mask id="path-2-inside-1_3113_11768" fill="white">
<path d="M21.7195 5.31266L21.7138 5.30705C21.5652 5.16097 21.3748 5.08845 21.1861 5.09248C20.9706 5.09708 20.8028 5.20835 20.6679 5.33535L19.4395 6.56006C19.289 6.70974 19.0564 6.72653 18.8875 6.61075C18.5896 6.41872 18.2698 6.24654 17.9382 6.09264C17.571 5.92214 17.1876 5.77457 16.802 5.64723C16.6186 5.58685 16.5023 5.41635 16.5023 5.23319L16.5021 3.31484C16.5021 2.90123 16.1952 2.59457 15.7816 2.59457H13.3738C12.9734 2.59457 12.6574 2.91552 12.6574 3.31484V5.07138C12.6574 5.2859 12.5023 5.46436 12.2982 5.50076C11.5648 5.67529 10.845 5.9478 10.1833 6.30951C10.1014 6.35408 10.0074 6.37117 9.91512 6.35825C9.82282 6.34533 9.73711 6.30309 9.67064 6.23777C9.20336 5.7774 8.71825 5.31746 8.26167 4.8486C7.98235 4.56837 7.5626 4.59715 7.28366 4.8617C6.71217 5.39237 6.14049 6.00828 5.58444 6.56433C5.30205 6.85199 5.29601 7.29082 5.58286 7.57772L5.60487 7.60141L6.83778 8.83826C6.98746 8.98875 7.0042 9.22141 6.88847 9.39032C6.69644 9.68816 6.52422 10.0081 6.37022 10.3399C6.19986 10.707 6.05219 11.0904 5.925 11.4758C5.86467 11.6592 5.69412 11.7755 5.51096 11.7755L3.59275 11.7757C3.18015 11.7757 2.87235 12.0834 2.87235 12.4962V14.904C2.87235 15.3047 3.19334 15.6202 3.59275 15.6202H5.34915C5.56367 15.6202 5.74213 15.7753 5.77853 15.9794C5.95623 16.7267 6.23559 17.4445 6.59088 18.125C6.68109 18.2978 6.64354 18.5036 6.51218 18.6341C6.05076 19.0945 5.59144 19.5593 5.12656 20.0159C4.84595 20.2955 4.87477 20.7152 5.13975 20.9945C5.65988 21.5667 6.27919 22.1475 6.82833 22.703C7.11739 22.9704 7.58073 22.9777 7.86959 22.706L9.11262 21.4434C9.26317 21.2903 9.49932 21.2722 9.67001 21.3906C10.3113 21.8032 11.0315 22.1146 11.7536 22.3527C11.937 22.413 12.0533 22.5836 12.0533 22.7667L12.0535 24.685C12.0535 25.0965 12.3624 25.4054 12.7739 25.4054H15.1817C15.5821 25.4054 15.8982 25.0843 15.8982 24.685V22.9285C15.8982 22.8262 15.9342 22.7271 15.9998 22.6486C16.0655 22.5701 16.1567 22.5172 16.2574 22.4992C17.0087 22.3207 17.7187 22.0442 18.4028 21.687C18.4849 21.6441 18.5787 21.6286 18.6703 21.6427C18.7619 21.6569 18.8466 21.6999 18.912 21.7656L20.274 23.1312C20.532 23.4057 20.9702 23.4262 21.2459 23.1649C21.2667 23.145 21.284 23.1268 21.3039 23.1072L22.9809 21.4495C23.1165 21.3026 23.1852 21.1133 23.1852 20.9237C23.1852 20.7368 23.1184 20.5513 22.9839 20.4082L21.7211 19.1652C21.6481 19.0933 21.6028 18.998 21.5931 18.896C21.5835 18.7941 21.6101 18.692 21.6684 18.6077C22.0817 17.9659 22.3918 17.2475 22.6306 16.524C22.6909 16.3406 22.8615 16.2244 23.0446 16.2244L24.9628 16.2242C25.3754 16.2242 25.6832 15.9167 25.6832 15.5039V13.0961C25.6832 12.6954 25.3623 12.3796 24.9628 12.3796H23.2065C22.9891 12.3796 22.8089 12.2206 22.7757 12.0126C22.6836 11.6426 22.5693 11.2786 22.4335 10.9224C22.2979 10.5668 22.1427 10.2249 21.9682 9.90537C21.9236 9.82352 21.9065 9.72951 21.9194 9.63721C21.9323 9.54492 21.9746 9.45921 22.0399 9.39272C22.5 8.92583 22.9604 8.4387 23.4296 7.98337C23.7094 7.70458 23.6805 7.28483 23.4164 7.00633C22.8945 6.43905 22.2709 5.86281 21.7195 5.31266ZM11.2683 18.8133C11.3096 19.0737 11.132 19.3185 10.8716 19.3598C10.6111 19.4011 10.3664 19.2235 10.3251 18.9631L10.1219 17.7052C10.0822 17.4549 10.2447 17.2191 10.4887 17.1645L11.7605 16.8766C12.0178 16.8188 12.2734 16.9805 12.3313 17.2378C12.3891 17.4951 12.2274 17.7507 11.97 17.8086L11.7238 17.8643C12.8675 18.5841 14.0105 18.7838 15.0376 18.6171C15.854 18.4845 16.6015 18.1217 17.22 17.6061C17.8409 17.0885 18.3322 16.4168 18.6338 15.6687C19.0891 14.5393 19.1084 13.2356 18.4826 12.03C18.3725 11.8164 18.4564 11.5539 18.67 11.4439C18.8836 11.3338 19.1461 11.4177 19.2561 11.6313C20.0079 13.0795 19.9862 14.6415 19.4415 15.9925C19.0867 16.8726 18.5079 17.6636 17.7756 18.274C17.0408 18.8864 16.1512 19.3177 15.1772 19.4758C13.9422 19.6764 12.5779 19.4405 11.231 18.5824L11.2683 18.8133ZM17.1976 9.02779C17.1868 8.91375 17.2215 8.80006 17.294 8.71137C17.3665 8.62269 17.471 8.56616 17.5849 8.55405C17.6988 8.54194 17.8129 8.57522 17.9025 8.64668C17.992 8.71813 18.0498 8.822 18.0632 8.93576L18.196 10.1795C18.2075 10.2881 18.1778 10.397 18.1128 10.4847C18.0478 10.5725 17.9521 10.6325 17.8449 10.6531L16.5439 10.903C16.3077 10.9481 16.0796 10.7933 16.0345 10.5571C15.9893 10.321 16.1442 10.0928 16.3803 10.0477L16.7081 9.98479C15.8188 9.43171 14.7907 9.24568 13.7969 9.36136C12.9712 9.45752 12.1711 9.76043 11.4945 10.2329C10.8212 10.703 10.2699 11.3401 9.93715 12.1067C9.4764 13.1688 9.43242 14.4907 10.0598 15.9793C10.153 16.2004 10.0492 16.4553 9.82809 16.5484C9.60699 16.6415 9.35209 16.5378 9.25895 16.3167C8.52976 14.5868 8.59019 13.0291 9.13972 11.7625C9.53951 10.8413 10.1969 10.0794 10.997 9.52068C11.7936 8.96444 12.7322 8.60819 13.6981 8.49573C14.8994 8.35587 16.1469 8.59069 17.2247 9.28227L17.1976 9.02779ZM22.3254 4.68866C22.8991 5.25713 23.4836 5.82895 24.0469 6.40658C24.6351 7.02695 24.6574 7.98931 24.0428 8.60042C23.6534 8.98976 23.2684 9.38519 22.8818 9.77746C23.0175 10.0495 23.1397 10.3281 23.2479 10.6123C23.3596 10.9059 23.4576 11.2046 23.5416 11.5073H24.9628C25.8395 11.5073 26.5556 12.2183 26.5556 13.0961V15.5039C26.5556 16.3952 25.855 17.0965 24.9628 17.0965H23.3554C23.146 17.6802 22.8915 18.2524 22.5778 18.7879L23.6124 19.8064C23.9101 20.1206 24.0575 20.5225 24.0575 20.9237C24.0575 21.3261 23.9092 21.7299 23.6158 22.0448L21.9224 23.7189C21.8958 23.7453 21.8705 23.7698 21.8439 23.797C21.2484 24.3599 20.3084 24.3613 19.7119 23.799C19.3112 23.4358 18.9047 22.9896 18.5182 22.6021C17.957 22.8762 17.3729 23.101 16.7705 23.2666V24.685C16.7705 25.5615 16.0593 26.2778 15.1817 26.2778H12.7739C11.8805 26.2778 11.1811 25.5784 11.1811 24.685V23.077C11.0836 23.0417 10.9864 23.0052 10.8898 22.9675C10.4089 22.7805 9.93538 22.5612 9.48983 22.3001L8.47135 23.3345C7.84748 23.926 6.86008 23.9229 6.23296 23.3379C5.65513 22.7628 5.07976 22.1768 4.50932 21.5942C3.92027 20.9731 3.89783 20.0105 4.51344 19.3988C4.90024 19.012 5.28853 18.6265 5.6759 18.2403C5.40205 17.6784 5.17683 17.0955 5.01098 16.4926H3.59275C2.71614 16.4926 2 15.7818 2 14.904V12.4962C2 11.6044 2.7005 10.9034 3.59275 10.9034H5.20018C5.31268 10.5885 5.4393 10.2788 5.57964 9.97534C5.70061 9.71373 5.83401 9.45805 5.97939 9.20918L4.99012 8.21669L4.96614 8.19444C4.3464 7.57475 4.35215 6.57708 4.96436 5.95442C5.54617 5.39496 6.10759 4.79892 6.68392 4.23126C7.30453 3.64236 8.26733 3.62044 8.87872 4.23543C9.26609 4.62535 9.6632 5.00946 10.0549 5.39549C10.609 5.11699 11.1869 4.89661 11.785 4.73292V3.31484C11.785 2.43842 12.4963 1.72223 13.3738 1.72223H15.7816C16.6727 1.72223 17.3745 2.42379 17.3745 3.31484V4.92246C17.6855 5.03406 17.9968 5.16005 18.3027 5.30206C18.5642 5.423 18.8198 5.55635 19.0686 5.70167L20.054 4.71925C20.3236 4.43423 20.6971 4.25725 21.0903 4.22953C21.5312 4.19846 21.9829 4.35174 22.3238 4.68693L22.3254 4.68866Z"/>
</mask>
<path d="M21.7195 5.31266L21.7138 5.30705C21.5652 5.16097 21.3748 5.08845 21.1861 5.09248C20.9706 5.09708 20.8028 5.20835 20.6679 5.33535L19.4395 6.56006C19.289 6.70974 19.0564 6.72653 18.8875 6.61075C18.5896 6.41872 18.2698 6.24654 17.9382 6.09264C17.571 5.92214 17.1876 5.77457 16.802 5.64723C16.6186 5.58685 16.5023 5.41635 16.5023 5.23319L16.5021 3.31484C16.5021 2.90123 16.1952 2.59457 15.7816 2.59457H13.3738C12.9734 2.59457 12.6574 2.91552 12.6574 3.31484V5.07138C12.6574 5.2859 12.5023 5.46436 12.2982 5.50076C11.5648 5.67529 10.845 5.9478 10.1833 6.30951C10.1014 6.35408 10.0074 6.37117 9.91512 6.35825C9.82282 6.34533 9.73711 6.30309 9.67064 6.23777C9.20336 5.7774 8.71825 5.31746 8.26167 4.8486C7.98235 4.56837 7.5626 4.59715 7.28366 4.8617C6.71217 5.39237 6.14049 6.00828 5.58444 6.56433C5.30205 6.85199 5.29601 7.29082 5.58286 7.57772L5.60487 7.60141L6.83778 8.83826C6.98746 8.98875 7.0042 9.22141 6.88847 9.39032C6.69644 9.68816 6.52422 10.0081 6.37022 10.3399C6.19986 10.707 6.05219 11.0904 5.925 11.4758C5.86467 11.6592 5.69412 11.7755 5.51096 11.7755L3.59275 11.7757C3.18015 11.7757 2.87235 12.0834 2.87235 12.4962V14.904C2.87235 15.3047 3.19334 15.6202 3.59275 15.6202H5.34915C5.56367 15.6202 5.74213 15.7753 5.77853 15.9794C5.95623 16.7267 6.23559 17.4445 6.59088 18.125C6.68109 18.2978 6.64354 18.5036 6.51218 18.6341C6.05076 19.0945 5.59144 19.5593 5.12656 20.0159C4.84595 20.2955 4.87477 20.7152 5.13975 20.9945C5.65988 21.5667 6.27919 22.1475 6.82833 22.703C7.11739 22.9704 7.58073 22.9777 7.86959 22.706L9.11262 21.4434C9.26317 21.2903 9.49932 21.2722 9.67001 21.3906C10.3113 21.8032 11.0315 22.1146 11.7536 22.3527C11.937 22.413 12.0533 22.5836 12.0533 22.7667L12.0535 24.685C12.0535 25.0965 12.3624 25.4054 12.7739 25.4054H15.1817C15.5821 25.4054 15.8982 25.0843 15.8982 24.685V22.9285C15.8982 22.8262 15.9342 22.7271 15.9998 22.6486C16.0655 22.5701 16.1567 22.5172 16.2574 22.4992C17.0087 22.3207 17.7187 22.0442 18.4028 21.687C18.4849 21.6441 18.5787 21.6286 18.6703 21.6427C18.7619 21.6569 18.8466 21.6999 18.912 21.7656L20.274 23.1312C20.532 23.4057 20.9702 23.4262 21.2459 23.1649C21.2667 23.145 21.284 23.1268 21.3039 23.1072L22.9809 21.4495C23.1165 21.3026 23.1852 21.1133 23.1852 20.9237C23.1852 20.7368 23.1184 20.5513 22.9839 20.4082L21.7211 19.1652C21.6481 19.0933 21.6028 18.998 21.5931 18.896C21.5835 18.7941 21.6101 18.692 21.6684 18.6077C22.0817 17.9659 22.3918 17.2475 22.6306 16.524C22.6909 16.3406 22.8615 16.2244 23.0446 16.2244L24.9628 16.2242C25.3754 16.2242 25.6832 15.9167 25.6832 15.5039V13.0961C25.6832 12.6954 25.3623 12.3796 24.9628 12.3796H23.2065C22.9891 12.3796 22.8089 12.2206 22.7757 12.0126C22.6836 11.6426 22.5693 11.2786 22.4335 10.9224C22.2979 10.5668 22.1427 10.2249 21.9682 9.90537C21.9236 9.82352 21.9065 9.72951 21.9194 9.63721C21.9323 9.54492 21.9746 9.45921 22.0399 9.39272C22.5 8.92583 22.9604 8.4387 23.4296 7.98337C23.7094 7.70458 23.6805 7.28483 23.4164 7.00633C22.8945 6.43905 22.2709 5.86281 21.7195 5.31266ZM11.2683 18.8133C11.3096 19.0737 11.132 19.3185 10.8716 19.3598C10.6111 19.4011 10.3664 19.2235 10.3251 18.9631L10.1219 17.7052C10.0822 17.4549 10.2447 17.2191 10.4887 17.1645L11.7605 16.8766C12.0178 16.8188 12.2734 16.9805 12.3313 17.2378C12.3891 17.4951 12.2274 17.7507 11.97 17.8086L11.7238 17.8643C12.8675 18.5841 14.0105 18.7838 15.0376 18.6171C15.854 18.4845 16.6015 18.1217 17.22 17.6061C17.8409 17.0885 18.3322 16.4168 18.6338 15.6687C19.0891 14.5393 19.1084 13.2356 18.4826 12.03C18.3725 11.8164 18.4564 11.5539 18.67 11.4439C18.8836 11.3338 19.1461 11.4177 19.2561 11.6313C20.0079 13.0795 19.9862 14.6415 19.4415 15.9925C19.0867 16.8726 18.5079 17.6636 17.7756 18.274C17.0408 18.8864 16.1512 19.3177 15.1772 19.4758C13.9422 19.6764 12.5779 19.4405 11.231 18.5824L11.2683 18.8133ZM17.1976 9.02779C17.1868 8.91375 17.2215 8.80006 17.294 8.71137C17.3665 8.62269 17.471 8.56616 17.5849 8.55405C17.6988 8.54194 17.8129 8.57522 17.9025 8.64668C17.992 8.71813 18.0498 8.822 18.0632 8.93576L18.196 10.1795C18.2075 10.2881 18.1778 10.397 18.1128 10.4847C18.0478 10.5725 17.9521 10.6325 17.8449 10.6531L16.5439 10.903C16.3077 10.9481 16.0796 10.7933 16.0345 10.5571C15.9893 10.321 16.1442 10.0928 16.3803 10.0477L16.7081 9.98479C15.8188 9.43171 14.7907 9.24568 13.7969 9.36136C12.9712 9.45752 12.1711 9.76043 11.4945 10.2329C10.8212 10.703 10.2699 11.3401 9.93715 12.1067C9.4764 13.1688 9.43242 14.4907 10.0598 15.9793C10.153 16.2004 10.0492 16.4553 9.82809 16.5484C9.60699 16.6415 9.35209 16.5378 9.25895 16.3167C8.52976 14.5868 8.59019 13.0291 9.13972 11.7625C9.53951 10.8413 10.1969 10.0794 10.997 9.52068C11.7936 8.96444 12.7322 8.60819 13.6981 8.49573C14.8994 8.35587 16.1469 8.59069 17.2247 9.28227L17.1976 9.02779ZM22.3254 4.68866C22.8991 5.25713 23.4836 5.82895 24.0469 6.40658C24.6351 7.02695 24.6574 7.98931 24.0428 8.60042C23.6534 8.98976 23.2684 9.38519 22.8818 9.77746C23.0175 10.0495 23.1397 10.3281 23.2479 10.6123C23.3596 10.9059 23.4576 11.2046 23.5416 11.5073H24.9628C25.8395 11.5073 26.5556 12.2183 26.5556 13.0961V15.5039C26.5556 16.3952 25.855 17.0965 24.9628 17.0965H23.3554C23.146 17.6802 22.8915 18.2524 22.5778 18.7879L23.6124 19.8064C23.9101 20.1206 24.0575 20.5225 24.0575 20.9237C24.0575 21.3261 23.9092 21.7299 23.6158 22.0448L21.9224 23.7189C21.8958 23.7453 21.8705 23.7698 21.8439 23.797C21.2484 24.3599 20.3084 24.3613 19.7119 23.799C19.3112 23.4358 18.9047 22.9896 18.5182 22.6021C17.957 22.8762 17.3729 23.101 16.7705 23.2666V24.685C16.7705 25.5615 16.0593 26.2778 15.1817 26.2778H12.7739C11.8805 26.2778 11.1811 25.5784 11.1811 24.685V23.077C11.0836 23.0417 10.9864 23.0052 10.8898 22.9675C10.4089 22.7805 9.93538 22.5612 9.48983 22.3001L8.47135 23.3345C7.84748 23.926 6.86008 23.9229 6.23296 23.3379C5.65513 22.7628 5.07976 22.1768 4.50932 21.5942C3.92027 20.9731 3.89783 20.0105 4.51344 19.3988C4.90024 19.012 5.28853 18.6265 5.6759 18.2403C5.40205 17.6784 5.17683 17.0955 5.01098 16.4926H3.59275C2.71614 16.4926 2 15.7818 2 14.904V12.4962C2 11.6044 2.7005 10.9034 3.59275 10.9034H5.20018C5.31268 10.5885 5.4393 10.2788 5.57964 9.97534C5.70061 9.71373 5.83401 9.45805 5.97939 9.20918L4.99012 8.21669L4.96614 8.19444C4.3464 7.57475 4.35215 6.57708 4.96436 5.95442C5.54617 5.39496 6.10759 4.79892 6.68392 4.23126C7.30453 3.64236 8.26733 3.62044 8.87872 4.23543C9.26609 4.62535 9.6632 5.00946 10.0549 5.39549C10.609 5.11699 11.1869 4.89661 11.785 4.73292V3.31484C11.785 2.43842 12.4963 1.72223 13.3738 1.72223H15.7816C16.6727 1.72223 17.3745 2.42379 17.3745 3.31484V4.92246C17.6855 5.03406 17.9968 5.16005 18.3027 5.30206C18.5642 5.423 18.8198 5.55635 19.0686 5.70167L20.054 4.71925C20.3236 4.43423 20.6971 4.25725 21.0903 4.22953C21.5312 4.19846 21.9829 4.35174 22.3238 4.68693L22.3254 4.68866Z" fill="#505050" stroke="white" stroke-width="0.4" mask="url(#path-2-inside-1_3113_11768)"/>
</svg>
