<svg xmlns="http://www.w3.org/2000/svg" xmlns:xlink="http://www.w3.org/1999/xlink" width="1800" height="450" viewBox="0 0 1800 450">
  <defs>
    <clipPath id="clip-affinity_mapping_copy">
      <rect width="1800" height="450"/>
    </clipPath>
  </defs>
  <g id="affinity_mapping_copy" data-name="affinity mapping copy" clip-path="url(#clip-affinity_mapping_copy)">
    <rect width="1800" height="450" fill="#fff"/>
    <path id="Path" d="M0,0H45.6L57,11.6V58H0Z" transform="translate(468 334.5)" fill="#ffdf71" stroke="#d9be60" stroke-miterlimit="10" stroke-width="2"/>
    <path id="Path-2" data-name="Path" d="M0,0V12H11" transform="translate(514 334.5)" fill="#d9be60"/>
    <path id="Path-3" data-name="Path" d="M0,0H45.6L57,11.6V58H0Z" transform="translate(29 337)" fill="#ffdf71" stroke="#d9be60" stroke-miterlimit="10" stroke-width="2"/>
    <path id="Path-4" data-name="Path" d="M0,0V12H11" transform="translate(75 337)" fill="#d9be60"/>
    <path id="Path-5" data-name="Path" d="M0,0H45.6L57,11.6V58H0Z" transform="translate(109 272)" fill="#ffdf71" stroke="#d9be60" stroke-miterlimit="10" stroke-width="2"/>
    <path id="Path-6" data-name="Path" d="M0,0V12H11" transform="translate(155 272)" fill="#d9be60"/>
    <path id="Path-7" data-name="Path" d="M0,0H45.6L57,11.6V58H0Z" transform="translate(200 353)" fill="#ffdf71" stroke="#d9be60" stroke-miterlimit="10" stroke-width="2"/>
    <path id="Path-8" data-name="Path" d="M0,0V12H11" transform="translate(246 353)" fill="#d9be60"/>
    <path id="Path-9" data-name="Path" d="M0,0H45.6L57,11.6V58H0Z" transform="translate(310 99)" fill="#ffdf71" stroke="#d9be60" stroke-miterlimit="10" stroke-width="2"/>
    <path id="Path-10" data-name="Path" d="M0,0V12H11" transform="translate(356 99)" fill="#d9be60"/>
    <path id="Path-11" data-name="Path" d="M0,0H45.6L57,11.6V58H0Z" transform="translate(57 184)" fill="#ffdf71" stroke="#d9be60" stroke-miterlimit="10" stroke-width="2"/>
    <path id="Path-12" data-name="Path" d="M0,0V12H11" transform="translate(103 184)" fill="#d9be60"/>
    <path id="Path-13" data-name="Path" d="M0,0H45.6L57,11.6V58H0Z" transform="translate(325 306)" fill="#ffdf71" stroke="#d9be60" stroke-miterlimit="10" stroke-width="2"/>
    <path id="Path-14" data-name="Path" d="M0,0V12H11" transform="translate(371 306)" fill="#d9be60"/>
    <path id="Path-15" data-name="Path" d="M0,0H45.6L57,11.6V58H0Z" transform="translate(213 171)" fill="#ffdf71" stroke="#d9be60" stroke-miterlimit="10" stroke-width="2"/>
    <path id="Path-16" data-name="Path" d="M0,0V12H11" transform="translate(259 171)" fill="#d9be60"/>
    <path id="Path-17" data-name="Path" d="M0,0H45.6L57,11.6V58H0Z" transform="translate(434 254)" fill="#ffdf71" stroke="#d9be60" stroke-miterlimit="10" stroke-width="2"/>
    <path id="Path-18" data-name="Path" d="M0,0V12H11" transform="translate(480 254)" fill="#d9be60"/>
    <path id="Path-19" data-name="Path" d="M0,0H45.6L57,11.6V58H0Z" transform="translate(199 279)" fill="#ffdf71" stroke="#d9be60" stroke-miterlimit="10" stroke-width="2"/>
    <path id="Path-20" data-name="Path" d="M0,0V12H11" transform="translate(245 279)" fill="#d9be60"/>
    <text id="plant_hardiness_zone_copy_2" data-name="plant hardiness zone copy 2" transform="translate(118 290)" fill="#5c5c5c" font-size="6" font-family="Helvetica-Light, Helvetica" font-weight="300"><tspan x="0" y="5">plant hardiness </tspan><tspan x="0" y="11">zone map</tspan></text>
    <text id="How_long_it_takes_to_Copy" data-name="How long it takes to Copy" transform="translate(35 355)" fill="#5c5c5c" font-size="6" font-family="Helvetica-Light, Helvetica" font-weight="300"><tspan x="0" y="5">How long it </tspan><tspan x="0" y="11">takes to sprout?</tspan></text>
    <text id="rooting_cuttings_in_copy" data-name="rooting cuttings in copy" transform="translate(66 204)" fill="#5c5c5c" font-size="6" font-family="Helvetica-Light, Helvetica" font-weight="300"><tspan x="0" y="5">rooting cuttings </tspan><tspan x="0" y="11">in water</tspan></text>
    <text id="wind_resistance_copy" data-name="wind resistance copy" transform="translate(219 196)" fill="#5c5c5c" font-size="6" font-family="Helvetica-Light, Helvetica" font-weight="300"><tspan x="0" y="5">wind resistance</tspan></text>
    <text id="don_t_know_the_name_copy" data-name="don’t know the name copy" transform="translate(316 117)" fill="#5c5c5c" font-size="6" font-family="Helvetica-Light, Helvetica" font-weight="300"><tspan x="0" y="5">don’t know the </tspan><tspan x="0" y="11">name of my </tspan><tspan x="0" y="17">plants</tspan></text>
    <text id="hard_to_remember_the_copy_2" data-name="hard to remember the copy 2" transform="translate(332 320)" fill="#5c5c5c" font-size="6" font-family="Helvetica-Light, Helvetica" font-weight="300"><tspan x="0" y="5">hard to </tspan><tspan x="0" y="11">remember the </tspan><tspan x="0" y="17">watering </tspan><tspan x="0" y="23">schedule</tspan></text>
    <text id="watering_schedule_copy" data-name="watering schedule copy" transform="translate(209 300)" fill="#5c5c5c" font-size="6" font-family="Helvetica-Light, Helvetica" font-weight="300"><tspan x="0" y="5">watering </tspan><tspan x="0" y="11">schedule</tspan></text>
    <text id="sunlight_requirement_copy_2" data-name="sunlight requirement copy 2" transform="translate(210 372)" fill="#5c5c5c" font-size="6" font-family="Helvetica-Light, Helvetica" font-weight="300"><tspan x="0" y="5">sunlight </tspan><tspan x="0" y="11">requirement</tspan></text>
    <text id="plant_habitat_copy" data-name="plant habitat copy" transform="translate(443 279)" fill="#5c5c5c" font-size="6" font-family="Helvetica-Light, Helvetica" font-weight="300"><tspan x="0" y="5">plant habitat</tspan></text>
    <text id="how_hot_can_tomato_p_copy_2" data-name="how hot can tomato p copy 2" transform="translate(474 349)" fill="#5c5c5c" font-size="6" font-family="Helvetica-Light, Helvetica" font-weight="300"><tspan x="0" y="5">how hot can </tspan><tspan x="0" y="11">tomato plants </tspan><tspan x="0" y="17">tolerate</tspan></text>
    <path id="Path-21" data-name="Path" d="M0,0H45.6L57,11.6V58H0Z" transform="translate(902 249.5)" fill="#ffdf71" stroke="#d9be60" stroke-miterlimit="10" stroke-width="2"/>
    <path id="Path-22" data-name="Path" d="M0,0V12H11" transform="translate(948 249.5)" fill="#d9be60"/>
    <path id="Path-23" data-name="Path" d="M0,0H45.6L57,11.6V58H0Z" transform="translate(475 78.5)" fill="#ffdf71" stroke="#d9be60" stroke-miterlimit="10" stroke-width="2"/>
    <path id="Path-24" data-name="Path" d="M0,0V12H11" transform="translate(521 78.5)" fill="#d9be60"/>
    <path id="Path-25" data-name="Path" d="M0,0H45.6L57,11.6V58H0Z" transform="translate(338 376.5)" fill="#ffdf71" stroke="#d9be60" stroke-miterlimit="10" stroke-width="2"/>
    <path id="Path-26" data-name="Path" d="M0,0V12H11" transform="translate(384 376.5)" fill="#d9be60"/>
    <path id="Path-27" data-name="Path" d="M0,0H45.6L57,11.6V58H0Z" transform="translate(554 266.5)" fill="#ffdf71" stroke="#d9be60" stroke-miterlimit="10" stroke-width="2"/>
    <path id="Path-28" data-name="Path" d="M0,0V12H11" transform="translate(600 266.5)" fill="#d9be60"/>
    <path id="Path-29" data-name="Path" d="M0,0H45.6L57,11.6V58H0Z" transform="translate(490 160.5)" fill="#ffdf71" stroke="#d9be60" stroke-miterlimit="10" stroke-width="2"/>
    <path id="Path-30" data-name="Path" d="M0,0V12H11" transform="translate(536 160.5)" fill="#d9be60"/>
    <path id="Path-31" data-name="Path" d="M0,0H45.6L57,11.6V58H0Z" transform="translate(643 342)" fill="#ffdf71" stroke="#d9be60" stroke-miterlimit="10" stroke-width="2"/>
    <path id="Path-32" data-name="Path" d="M0,0V12H11" transform="translate(689 342)" fill="#d9be60"/>
    <path id="Path-33" data-name="Path" d="M0,0H45.6L57,11.6V58H0Z" transform="translate(684 256)" fill="#ffdf71" stroke="#d9be60" stroke-miterlimit="10" stroke-width="2"/>
    <path id="Path-34" data-name="Path" d="M0,0V12H11" transform="translate(730 256)" fill="#d9be60"/>
    <path id="Path-35" data-name="Path" d="M0,0H45.6L57,11.6V58H0Z" transform="translate(552 382)" fill="#ffdf71" stroke="#d9be60" stroke-miterlimit="10" stroke-width="2"/>
    <path id="Path-36" data-name="Path" d="M0,0V12H11" transform="translate(598 382)" fill="#d9be60"/>
    <path id="Path-37" data-name="Path" d="M0,0H45.6L57,11.6V58H0Z" transform="translate(851 123)" fill="#ffdf71" stroke="#d9be60" stroke-miterlimit="10" stroke-width="2"/>
    <path id="Path-38" data-name="Path" d="M0,0V12H11" transform="translate(897 123)" fill="#d9be60"/>
    <path id="Path-39" data-name="Path" d="M0,0H45.6L57,11.6V58H0Z" transform="translate(804 301)" fill="#ffdf71" stroke="#d9be60" stroke-miterlimit="10" stroke-width="2"/>
    <path id="Path-40" data-name="Path" d="M0,0V12H11" transform="translate(850 301)" fill="#d9be60"/>
    <path id="Path-41" data-name="Path" d="M0,0H45.6L57,11.6V58H0Z" transform="translate(786 208)" fill="#ffdf71" stroke="#d9be60" stroke-miterlimit="10" stroke-width="2"/>
    <path id="Path-42" data-name="Path" d="M0,0V12H11" transform="translate(832 208)" fill="#d9be60"/>
    <path id="Path-43" data-name="Path" d="M0,0H45.6L57,11.6V58H0Z" transform="translate(696 139)" fill="#ffdf71" stroke="#d9be60" stroke-miterlimit="10" stroke-width="2"/>
    <path id="Path-44" data-name="Path" d="M0,0V12H11" transform="translate(742 139)" fill="#d9be60"/>
    <path id="Path-45" data-name="Path" d="M0,0H45.6L57,11.6V58H0Z" transform="translate(759 81)" fill="#ffdf71" stroke="#d9be60" stroke-miterlimit="10" stroke-width="2"/>
    <path id="Path-46" data-name="Path" d="M0,0V12H11" transform="translate(805 81)" fill="#d9be60"/>
    <path id="Path-47" data-name="Path" d="M0,0H45.6L57,11.6V58H0Z" transform="translate(615 160)" fill="#ffdf71" stroke="#d9be60" stroke-miterlimit="10" stroke-width="2"/>
    <path id="Path-48" data-name="Path" d="M0,0V12H11" transform="translate(661 160)" fill="#d9be60"/>
    <text id="differentiation_of_l_copy_2" data-name="differentiation of l copy 2" transform="translate(649 362)" fill="#5c5c5c" font-size="6" font-family="Helvetica-Light, Helvetica" font-weight="300"><tspan x="0" y="5">differentiation of </tspan><tspan x="0" y="11">local climate</tspan></text>
    <text id="hard_to_judge_is_und_copy_2" data-name="hard to judge is und copy 2" transform="translate(557 399)" fill="#5c5c5c" font-size="6" font-family="Helvetica-Light, Helvetica" font-weight="300"><tspan x="0" y="5">hard to judge is </tspan><tspan x="0" y="11">underwatering </tspan><tspan x="0" y="17">or overwatering</tspan></text>
    <text id="winter-friendly_plan_copy" data-name="winter-friendly plan copy" transform="translate(704 159)" fill="#5c5c5c" font-size="6" font-family="Helvetica-Light, Helvetica" font-weight="300"><tspan x="0" y="5">winter-friendly </tspan><tspan x="0" y="11">plants list</tspan></text>
    <text id="looking_for_watering_copy" data-name="looking for watering copy" transform="translate(693 270)" fill="#5c5c5c" font-size="6" font-family="Helvetica-Light, Helvetica" font-weight="300"><tspan x="0" y="5">looking for </tspan><tspan x="0" y="11">watering </tspan><tspan x="0" y="17">schedule </tspan><tspan x="0" y="23">references </tspan><tspan x="0" y="29">nearby</tspan></text>
    <text id="can_I_left_my_tomato_Copy" data-name="can I left my tomato Copy" transform="translate(811 316)" fill="#5c5c5c" font-size="6" font-family="Helvetica-Light, Helvetica" font-weight="300"><tspan x="0" y="5">can I left my </tspan><tspan x="0" y="11">tomato plant </tspan><tspan x="0" y="17">outside during </tspan><tspan x="0" y="23">winter</tspan></text>
    <text id="how_to_deal_with_col_copy" data-name="how to deal with col copy" transform="translate(766 98)" fill="#5c5c5c" font-size="6" font-family="Helvetica-Light, Helvetica" font-weight="300"><tspan x="0" y="5">how to deal with </tspan><tspan x="0" y="11">cold </tspan><tspan x="0" y="17">temperatures</tspan></text>
    <text id="have_too_many_lemons_copy" data-name="have too many lemons copy" transform="translate(620 180)" fill="#5c5c5c" font-size="6" font-family="Helvetica-Light, Helvetica" font-weight="300"><tspan x="0" y="5">have too many </tspan><tspan x="0" y="11">lemons</tspan></text>
    <text id="kale_grows_fast_hav_copy" data-name="kale grows fast, hav copy" transform="translate(481 96)" fill="#5c5c5c" font-size="6" font-family="Helvetica-Light, Helvetica" font-weight="300"><tspan x="0" y="5">kale grows fast, </tspan><tspan x="0" y="11">have a lot of </tspan><tspan x="0" y="17">extra kales</tspan></text>
    <text id="have_a_raccoon_in_my_copy" data-name="have a raccoon in my copy" transform="translate(345 398)" fill="#5c5c5c" font-size="6" font-family="Helvetica-Light, Helvetica" font-weight="300"><tspan x="0" y="5">have a raccoon </tspan><tspan x="0" y="11">in my backyard</tspan></text>
    <text id="seedling_and_sprout_copy" data-name="seedling and sprout copy" transform="translate(560 284)" fill="#5c5c5c" font-size="6" font-family="Helvetica-Light, Helvetica" font-weight="300"><tspan x="0" y="5">seedling and </tspan><tspan x="0" y="11">sprout with </tspan><tspan x="0" y="17">neighbors</tspan><tspan font-family="Helvetica-Light"><tspan x="0" y="23"></tspan></tspan></text>
    <text id="sharing_plants_growi_copy" data-name="sharing plants growi copy" transform="translate(496 180)" fill="#5c5c5c" font-size="6" font-family="Helvetica-Light, Helvetica" font-weight="300"><tspan x="0" y="5">sharing plants </tspan><tspan x="0" y="11">growing phase</tspan></text>
    <text id="too_much_sun_or_less_copy" data-name="too much sun or less copy" transform="translate(909 270)" fill="#5c5c5c" font-size="6" font-family="Helvetica-Light, Helvetica" font-weight="300"><tspan x="0" y="5">too much sun or </tspan><tspan x="0" y="11">less sun</tspan></text>
    <text id="want_to_discuss_with_copy_2" data-name="want to discuss with copy 2" transform="translate(857 140)" fill="#5c5c5c" font-size="6" font-family="Helvetica-Light, Helvetica" font-weight="300"><tspan x="0" y="5">want to discuss </tspan><tspan x="0" y="11">with a local </tspan><tspan x="0" y="17">gardener</tspan></text>
    <text id="looking_for_help_abo_copy" data-name="looking for help abo copy" transform="translate(791 225)" fill="#5c5c5c" font-size="6" font-family="Helvetica-Light, Helvetica" font-weight="300"><tspan x="0" y="5">looking for help </tspan><tspan x="0" y="11">about plant leaf </tspan><tspan x="0" y="17">turning yellow</tspan></text>
    <path id="Path_Copy_3" data-name="Path Copy 3" d="M0,0H45.6L57,11.6V58H0Z" transform="translate(1175 311.5)" fill="#ffdf71" stroke="#d9be60" stroke-miterlimit="10" stroke-width="2"/>
    <path id="Path_Copy_4" data-name="Path Copy 4" d="M0,0V12H11" transform="translate(1221 311.5)" fill="#d9be60"/>
    <path id="Path-49" data-name="Path" d="M0,0H45.6L57,11.6V58H0Z" transform="translate(871 358.5)" fill="#ffdf71" stroke="#d9be60" stroke-miterlimit="10" stroke-width="2"/>
    <path id="Path-50" data-name="Path" d="M0,0V12H11" transform="translate(917 358.5)" fill="#d9be60"/>
    <path id="Path-51" data-name="Path" d="M0,0H45.6L57,11.6V58H0Z" transform="translate(935 180.5)" fill="#ffdf71" stroke="#d9be60" stroke-miterlimit="10" stroke-width="2"/>
    <path id="Path-52" data-name="Path" d="M0,0V12H11" transform="translate(981 180.5)" fill="#d9be60"/>
    <path id="Path-53" data-name="Path" d="M0,0H45.6L57,11.6V58H0Z" transform="translate(1152 185)" fill="#ffdf71" stroke="#d9be60" stroke-miterlimit="10" stroke-width="2"/>
    <path id="Path-54" data-name="Path" d="M0,0V12H11" transform="translate(1198 185)" fill="#d9be60"/>
    <path id="Path-55" data-name="Path" d="M0,0H45.6L57,11.6V58H0Z" transform="translate(1029 188)" fill="#ffdf71" stroke="#d9be60" stroke-miterlimit="10" stroke-width="2"/>
    <path id="Path-56" data-name="Path" d="M0,0V12H11" transform="translate(1075 188)" fill="#d9be60"/>
    <path id="Path-57" data-name="Path" d="M0,0H45.6L57,11.6V58H0Z" transform="translate(1164 114)" fill="#ffdf71" stroke="#d9be60" stroke-miterlimit="10" stroke-width="2"/>
    <path id="Path-58" data-name="Path" d="M0,0V12H11" transform="translate(1210 114)" fill="#d9be60"/>
    <path id="Path-59" data-name="Path" d="M0,0H45.6L57,11.6V58H0Z" transform="translate(1263 164)" fill="#ffdf71" stroke="#d9be60" stroke-miterlimit="10" stroke-width="2"/>
    <path id="Path-60" data-name="Path" d="M0,0V12H11" transform="translate(1309 164)" fill="#d9be60"/>
    <path id="Path-61" data-name="Path" d="M0,0H45.6L57,11.6V58H0Z" transform="translate(1244 89)" fill="#ffdf71" stroke="#d9be60" stroke-miterlimit="10" stroke-width="2"/>
    <path id="Path-62" data-name="Path" d="M0,0V12H11" transform="translate(1290 89)" fill="#d9be60"/>
    <path id="Path-63" data-name="Path" d="M0,0H45.6L57,11.6V58H0Z" transform="translate(1284 327)" fill="#ffdf71" stroke="#d9be60" stroke-miterlimit="10" stroke-width="2"/>
    <path id="Path-64" data-name="Path" d="M0,0V12H11" transform="translate(1330 327)" fill="#d9be60"/>
    <path id="Path-65" data-name="Path" d="M0,0H45.6L57,11.6V58H0Z" transform="translate(1232 244)" fill="#ffdf71" stroke="#d9be60" stroke-miterlimit="10" stroke-width="2"/>
    <path id="Path-66" data-name="Path" d="M0,0V12H11" transform="translate(1278 244)" fill="#d9be60"/>
    <path id="Path-67" data-name="Path" d="M0,0H45.6L57,11.6V58H0Z" transform="translate(1044 304)" fill="#ffdf71" stroke="#d9be60" stroke-miterlimit="10" stroke-width="2"/>
    <path id="Path-68" data-name="Path" d="M0,0V12H11" transform="translate(1090 304)" fill="#d9be60"/>
    <path id="Path-69" data-name="Path" d="M0,0H45.6L57,11.6V58H0Z" transform="translate(964 334)" fill="#ffdf71" stroke="#d9be60" stroke-miterlimit="10" stroke-width="2"/>
    <path id="Path-70" data-name="Path" d="M0,0V12H11" transform="translate(1010 334)" fill="#d9be60"/>
    <text id="plant_disease_diagno_copy_2" data-name="plant disease diagno copy 2" transform="translate(1251 109)" fill="#5c5c5c" font-size="6" font-family="Helvetica-Light, Helvetica" font-weight="300"><tspan x="0" y="5">plant disease </tspan><tspan x="0" y="11">diagnosis</tspan></text>
    <text id="brown_spots_on_plant_copy" data-name="brown spots on plant copy" transform="translate(1161 203)" fill="#5c5c5c" font-size="6" font-family="Helvetica-Light, Helvetica" font-weight="300"><tspan x="0" y="5">brown spots on </tspan><tspan x="0" y="11">plant leaves</tspan></text>
    <text id="houseplant_pests_copy" data-name="houseplant pests copy" transform="translate(1037 206)" fill="#5c5c5c" font-size="6" font-family="Helvetica-Light, Helvetica" font-weight="300"><tspan x="0" y="5">houseplant </tspan><tspan x="0" y="11">pests</tspan></text>
    <text id="Common_brown_scale_Copy" data-name="Common brown scale Copy" transform="translate(1239 260)" fill="#5c5c5c" font-size="6" font-family="Helvetica-Light, Helvetica" font-weight="300"><tspan x="0" y="5">Common brown </tspan><tspan x="0" y="11">scale</tspan></text>
    <text id="how_to_deal_with_red_copy" data-name="how to deal with red copy" transform="translate(1050 320)" fill="#5c5c5c" font-size="6" font-family="Helvetica-Light, Helvetica" font-weight="300"><tspan x="0" y="5">how to deal with </tspan><tspan x="0" y="11">red spider mites</tspan></text>
    <text id="do_i_need_fertilizer_copy" data-name="do i need fertilizer copy" transform="translate(877 381)" fill="#5c5c5c" font-size="6" font-family="Helvetica-Light, Helvetica" font-weight="300"><tspan x="0" y="5">do i need fertilizer</tspan></text>
    <text id="best_fertilizer_time_copy" data-name="best fertilizer time copy" transform="translate(941 203)" fill="#5c5c5c" font-size="6" font-family="Helvetica-Light, Helvetica" font-weight="300"><tspan x="0" y="5">best fertilizer time</tspan></text>
    <text id="yellow_spots_all_ove_copy" data-name="yellow spots all ove copy" transform="translate(1272 184)" fill="#5c5c5c" font-size="6" font-family="Helvetica-Light, Helvetica" font-weight="300"><tspan x="0" y="5">yellow spots all </tspan><tspan x="0" y="11">over the leaf</tspan></text>
    <text id="white_powder_on_my_p_copy" data-name="white powder on my p copy" transform="translate(1289 349)" fill="#5c5c5c" font-size="6" font-family="Helvetica-Light, Helvetica" font-weight="300"><tspan x="0" y="5">white powder on </tspan><tspan x="0" y="11">my plant leaf</tspan></text>
    <text id="leaf_blight_copy" data-name="leaf blight copy" transform="translate(1172 137)" fill="#5c5c5c" font-size="6" font-family="Helvetica-Light, Helvetica" font-weight="300"><tspan x="0" y="5">leaf blight</tspan></text>
    <text id="prevent_houseplant_p_copy" data-name="prevent houseplant p copy" transform="translate(972 348)" fill="#5c5c5c" font-size="6" font-family="Helvetica-Light, Helvetica" font-weight="300"><tspan x="0" y="5">prevent </tspan><tspan x="0" y="11">houseplant pest </tspan><tspan x="0" y="17">infestation</tspan></text>
    <text id="why_is_my_lavender_w_copy" data-name="why is my lavender w copy" transform="translate(1181 331)" fill="#5c5c5c" font-size="6" font-family="Helvetica-Light, Helvetica" font-weight="300"><tspan x="0" y="5">why is my </tspan><tspan x="0" y="11">lavender wilting</tspan></text>
    <path id="Path-71" data-name="Path" d="M0,0H45.6L57,11.6V58H0Z" transform="translate(1722 328.5)" fill="#ffdf71" stroke="#d9be60" stroke-miterlimit="10" stroke-width="2"/>
    <path id="Path-72" data-name="Path" d="M0,0V12H11" transform="translate(1768 328.5)" fill="#d9be60"/>
    <path id="Path-73" data-name="Path" d="M0,0H45.6L57,11.6V58H0Z" transform="translate(1466 190)" fill="#ffdf71" stroke="#d9be60" stroke-miterlimit="10" stroke-width="2"/>
    <path id="Path-74" data-name="Path" d="M0,0V12H11" transform="translate(1512 190)" fill="#d9be60"/>
    <path id="Path-75" data-name="Path" d="M0,0H45.6L57,11.6V58H0Z" transform="translate(1566 185)" fill="#ffdf71" stroke="#d9be60" stroke-miterlimit="10" stroke-width="2"/>
    <path id="Path-76" data-name="Path" d="M0,0V12H11" transform="translate(1612 185)" fill="#d9be60"/>
    <path id="Path-77" data-name="Path" d="M0,0H45.6L57,11.6V58H0Z" transform="translate(1644 139)" fill="#ffdf71" stroke="#d9be60" stroke-miterlimit="10" stroke-width="2"/>
    <path id="Path-78" data-name="Path" d="M0,0V12H11" transform="translate(1690 139)" fill="#d9be60"/>
    <path id="Path-79" data-name="Path" d="M0,0H45.6L57,11.6V58H0Z" transform="translate(1727 119)" fill="#ffdf71" stroke="#d9be60" stroke-miterlimit="10" stroke-width="2"/>
    <path id="Path-80" data-name="Path" d="M0,0V12H11" transform="translate(1773 119)" fill="#d9be60"/>
    <path id="Path-81" data-name="Path" d="M0,0H45.6L57,11.6V58H0Z" transform="translate(1574 72)" fill="#ffdf71" stroke="#d9be60" stroke-miterlimit="10" stroke-width="2"/>
    <path id="Path-82" data-name="Path" d="M0,0V12H11" transform="translate(1620 72)" fill="#d9be60"/>
    <path id="Path-83" data-name="Path" d="M0,0H45.6L57,11.6V58H0Z" transform="translate(1383 209)" fill="#ffdf71" stroke="#d9be60" stroke-miterlimit="10" stroke-width="2"/>
    <path id="Path-84" data-name="Path" d="M0,0V12H11" transform="translate(1429 209)" fill="#d9be60"/>
    <path id="Path-85" data-name="Path" d="M0,0H45.6L57,11.6V58H0Z" transform="translate(1708 201)" fill="#ffdf71" stroke="#d9be60" stroke-miterlimit="10" stroke-width="2"/>
    <path id="Path-86" data-name="Path" d="M0,0V12H11" transform="translate(1754 201)" fill="#d9be60"/>
    <path id="Path-87" data-name="Path" d="M0,0H45.6L57,11.6V58H0Z" transform="translate(1466 294)" fill="#ffdf71" stroke="#d9be60" stroke-miterlimit="10" stroke-width="2"/>
    <path id="Path-88" data-name="Path" d="M0,0V12H11" transform="translate(1512 294)" fill="#d9be60"/>
    <path id="Path-89" data-name="Path" d="M0,0H45.6L57,11.6V58H0Z" transform="translate(1376 340)" fill="#ffdf71" stroke="#d9be60" stroke-miterlimit="10" stroke-width="2"/>
    <path id="Path-90" data-name="Path" d="M0,0V12H11" transform="translate(1422 340)" fill="#d9be60"/>
    <path id="Path-91" data-name="Path" d="M0,0H45.6L57,11.6V58H0Z" transform="translate(1540 284.5)" fill="#ffdf71" stroke="#d9be60" stroke-miterlimit="10" stroke-width="2"/>
    <path id="Path-92" data-name="Path" d="M0,0V12H11" transform="translate(1586 284.5)" fill="#d9be60"/>
    <path id="Path-93" data-name="Path" d="M0,0H45.6L57,11.6V58H0Z" transform="translate(1637 268.5)" fill="#ffdf71" stroke="#d9be60" stroke-miterlimit="10" stroke-width="2"/>
    <path id="Path-94" data-name="Path" d="M0,0V12H11" transform="translate(1683 268.5)" fill="#d9be60"/>
    <path id="Path-95" data-name="Path" d="M0,0H45.6L57,11.6V58H0Z" transform="translate(1590 360.5)" fill="#ffdf71" stroke="#d9be60" stroke-miterlimit="10" stroke-width="2"/>
    <path id="Path-96" data-name="Path" d="M0,0V12H11" transform="translate(1636 360.5)" fill="#d9be60"/>
    <text id="not_enough_space_for_copy_12" data-name="not enough space for copy 12" transform="translate(1547 306)" fill="#5c5c5c" font-size="6" font-family="Helvetica-Light, Helvetica" font-weight="300"><tspan x="0" y="5">not enough </tspan><tspan x="0" y="11">space for plants</tspan></text>
    <text id="looking_for_wood_shr_copy_2" data-name="looking for wood shr copy 2" transform="translate(1644 290)" fill="#5c5c5c" font-size="6" font-family="Helvetica-Light, Helvetica" font-weight="300"><tspan x="0" y="5">looking for wood </tspan><tspan x="0" y="11">shredder</tspan></text>
    <text id="looking_for_shredded_copy_2" data-name="looking for shredded copy 2" transform="translate(1596 378)" fill="#5c5c5c" font-size="6" font-family="Helvetica-Light, Helvetica" font-weight="300"><tspan x="0" y="5">looking for </tspan><tspan x="0" y="11">shredded wood </tspan><tspan x="0" y="17">for my backyard</tspan></text>
    <text id="unwanted_tools_and_p_copy_2" data-name="unwanted tools and p copy 2" transform="translate(1728 349)" fill="#5c5c5c" font-size="6" font-family="Helvetica-Light, Helvetica" font-weight="300"><tspan x="0" y="5">unwanted tools </tspan><tspan x="0" y="11">and plants</tspan></text>
    <text id="grow_too_many_plants_copy_2" data-name="grow too many plants copy 2" transform="translate(1390 231)" fill="#5c5c5c" font-size="6" font-family="Helvetica-Light, Helvetica" font-weight="300"><tspan x="0" y="5">grow too many </tspan><tspan x="0" y="11">plants</tspan></text>
    <text id="share_unwanted_tools_copy_2" data-name="share unwanted tools copy 2" transform="translate(1572 204)" fill="#5c5c5c" font-size="6" font-family="Helvetica-Light, Helvetica" font-weight="300"><tspan x="0" y="5">share unwanted </tspan><tspan x="0" y="11">tools</tspan></text>
    <text id="plant_nursery_throw_copy_2" data-name="plant nursery throw copy 2" transform="translate(1580 88)" fill="#5c5c5c" font-size="6" font-family="Helvetica-Light, Helvetica" font-weight="300"><tspan x="0" y="5">plant nursery </tspan><tspan x="0" y="11">throw their </tspan><tspan x="0" y="17">unwanted pots</tspan></text>
    <text id="could_not_find_the_r_copy_2" data-name="could not find the r copy 2" transform="translate(1653 156)" fill="#5c5c5c" font-size="6" font-family="Helvetica-Light, Helvetica" font-weight="300"><tspan x="0" y="5">could not find </tspan><tspan x="0" y="11">the right pot</tspan></text>
    <text id="many_extra_baby_plan_copy_2" data-name="many extra baby plan copy 2" transform="translate(1473 209)" fill="#5c5c5c" font-size="6" font-family="Helvetica-Light, Helvetica" font-weight="300"><tspan x="0" y="5">many extra </tspan><tspan x="0" y="11">baby plants </tspan></text>
    <text id="many_extra_plant_see_copy_2" data-name="many extra plant see copy 2" transform="translate(1471 317)" fill="#5c5c5c" font-size="6" font-family="Helvetica-Light, Helvetica" font-weight="300"><tspan x="0" y="5">many extra plant </tspan><tspan x="0" y="11">seeds </tspan></text>
    <text id="have_too_many_pots_copy_2" data-name="have too many pots copy 2" transform="translate(1735 138)" fill="#5c5c5c" font-size="6" font-family="Helvetica-Light, Helvetica" font-weight="300"><tspan x="0" y="5">have too many </tspan><tspan x="0" y="11">pots</tspan></text>
    <text id="want_more_plant_vari_copy_2" data-name="want more plant vari copy 2" transform="translate(1383 363)" fill="#5c5c5c" font-size="6" font-family="Helvetica-Light, Helvetica" font-weight="300"><tspan x="0" y="5">want more plant </tspan><tspan x="0" y="11">variety</tspan></text>
    <text id="want_to_borrow_a_saw_copy_2" data-name="want to borrow a saw copy 2" transform="translate(1715 222)" fill="#5c5c5c" font-size="6" font-family="Helvetica-Light, Helvetica" font-weight="300"><tspan x="0" y="5">want to borrow a </tspan><tspan x="0" y="11">saw to cut a </tspan><tspan x="0" y="17">branch</tspan></text>
    <path id="Path-97" data-name="Path" d="M0,0H46.4L58,11.6V58H0Z" transform="translate(128 78.5)" fill="#ffc374" stroke="#d9a663" stroke-miterlimit="10" stroke-width="2"/>
    <path id="Path-98" data-name="Path" d="M0,0V12H12" transform="translate(174 78.5)" fill="#d9a663"/>
    <path id="Path-99" data-name="Path" d="M0,0H46.4L58,11.6V58H0Z" transform="translate(351 193.5)" fill="#ffc374" stroke="#d9a663" stroke-miterlimit="10" stroke-width="2"/>
    <path id="Path-100" data-name="Path" d="M0,0V12H12" transform="translate(397 193.5)" fill="#d9a663"/>
    <path id="Path-101" data-name="Path" d="M0,0H46.4L58,11.6V58H0Z" transform="translate(276 12.5)" fill="#ffc374" stroke="#d9a663" stroke-miterlimit="10" stroke-width="2"/>
    <path id="Path-102" data-name="Path" d="M0,0V12H12" transform="translate(322 12.5)" fill="#d9a663"/>
    <path id="Path-103" data-name="Path" d="M0,0H46.4L58,11.6V58H0Z" transform="translate(837 33.5)" fill="#ffc374" stroke="#d9a663" stroke-miterlimit="10" stroke-width="2"/>
    <path id="Path-104" data-name="Path" d="M0,0V12H12" transform="translate(883 33.5)" fill="#d9a663"/>
    <path id="Path-105" data-name="Path" d="M0,0H46.4L58,11.6V58H0Z" transform="translate(1069 101.5)" fill="#ffc374" stroke="#d9a663" stroke-miterlimit="10" stroke-width="2"/>
    <path id="Path-106" data-name="Path" d="M0,0V12H12" transform="translate(1115 101.5)" fill="#d9a663"/>
    <path id="Path-107" data-name="Path" d="M0,0H46.4L58,11.6V58H0Z" transform="translate(1186 14.5)" fill="#ffc374" stroke="#d9a663" stroke-miterlimit="10" stroke-width="2"/>
    <path id="Path-108" data-name="Path" d="M0,0V12H12" transform="translate(1232 14.5)" fill="#d9a663"/>
    <path id="Path-109" data-name="Path" d="M0,0H46.4L58,11.6V58H0Z" transform="translate(1393 109.5)" fill="#ffc374" stroke="#d9a663" stroke-miterlimit="10" stroke-width="2"/>
    <path id="Path-110" data-name="Path" d="M0,0V12H12" transform="translate(1439 109.5)" fill="#d9a663"/>
    <path id="Path-111" data-name="Path" d="M0,0H46.4L58,11.6V58H0Z" transform="translate(1648 28.5)" fill="#ffc374" stroke="#d9a663" stroke-miterlimit="10" stroke-width="2"/>
    <path id="Path-112" data-name="Path" d="M0,0V12H12" transform="translate(1694 28.5)" fill="#d9a663"/>
    <path id="Path-113" data-name="Path" d="M0,0H46.4L58,11.6V58H0Z" transform="translate(567 44.5)" fill="#ffc374" stroke="#d9a663" stroke-miterlimit="10" stroke-width="2"/>
    <path id="Path-114" data-name="Path" d="M0,0V12H12" transform="translate(613 44.5)" fill="#d9a663"/>
    <text id="plants_maintenance" data-name="plants maintenance" transform="translate(364 215)" fill="#5c5c5c" font-size="6" font-family="Helvetica-Light, Helvetica" font-weight="300"><tspan x="0" y="5">plants </tspan><tspan x="0" y="11">maintenance</tspan></text>
    <text id="plant_identifying_copy_2" data-name="plant identifying copy 2" transform="translate(283 36)" fill="#5c5c5c" font-size="6" font-family="Helvetica-Light, Helvetica" font-weight="300"><tspan x="0" y="5">plant identifying</tspan></text>
    <text id="Plant_Information_Copy" data-name="Plant Information Copy" transform="translate(141 96)" fill="#5c5c5c" font-size="6" font-family="Helvetica-Light, Helvetica" font-weight="300"><tspan x="0" y="5">Plant </tspan><tspan x="0" y="11">Information</tspan></text>
    <text id="discuss_and_help_wit_copy" data-name="discuss and help wit copy" transform="translate(849 51)" fill="#5c5c5c" font-size="6" font-family="Helvetica-Light, Helvetica" font-weight="300"><tspan x="0" y="5">discuss and </tspan><tspan x="0" y="11">help with local </tspan><tspan x="0" y="17">community</tspan></text>
    <text id="share_gardening_plan_copy" data-name="share gardening plan copy" transform="translate(573 63)" fill="#5c5c5c" font-size="6" font-family="Helvetica-Light, Helvetica" font-weight="300"><tspan x="0" y="5">share gardening </tspan><tspan x="0" y="11">plants and tools</tspan></text>
    <text id="Plant_disease_soluti_Copy" data-name="Plant disease soluti Copy" transform="translate(1193 32)" fill="#5c5c5c" font-size="6" font-family="Helvetica-Light, Helvetica" font-weight="300"><tspan x="0" y="5">Plant disease </tspan><tspan x="0" y="11">solution</tspan></text>
    <text id="Insecticides_Copy" data-name="Insecticides Copy" transform="translate(1082 122)" fill="#5c5c5c" font-size="6" font-family="Helvetica-Light, Helvetica" font-weight="300"><tspan x="0" y="5">Insecticides</tspan></text>
    <text id="looking_for_tools_an_copy" data-name="looking for tools an copy" transform="translate(1655 52)" fill="#5c5c5c" font-size="6" font-family="Helvetica-Light, Helvetica" font-weight="300"><tspan x="0" y="5">looking for tools </tspan><tspan x="0" y="11">and plants</tspan></text>
    <text id="unwanted_tools_and_p_copy_2-2" data-name="unwanted tools and p copy 2" transform="translate(1404 130)" fill="#5c5c5c" font-size="6" font-family="Helvetica-Light, Helvetica" font-weight="300"><tspan x="0" y="5">unwanted tools </tspan><tspan x="0" y="11">and plants</tspan></text>
  </g>
</svg>
