<svg xmlns="http://www.w3.org/2000/svg" viewBox="0 0 1920 1080"><defs><style>.cls-1{fill:#f2f2f2;}.cls-2{fill:none;stroke:#000;stroke-miterlimit:10;stroke-width:0.5px;}</style></defs><g id="Layer_2" data-name="Layer 2"><rect class="cls-1" x="152" y="350" width="274" height="506" rx="15"/><rect class="cls-1" x="480" y="350" width="274" height="506" rx="15"/><rect class="cls-1" x="808" y="350" width="274" height="506" rx="15"/><rect class="cls-1" x="1136" y="350" width="274" height="506" rx="15"/><rect class="cls-1" x="1464" y="350" width="274" height="506" rx="15"/></g><g id="Layer_1" data-name="Layer 1"><path d="M156.53,381.52H164c4.12,0,6,2.17,6,4.87a4.26,4.26,0,0,1-2.8,4.24,4.82,4.82,0,0,1,3.44,4.67c0,3.67-2.8,5.7-6.5,5.7h-7.65Zm7,8.1c2.82,0,3.92-1.11,3.92-3,0-1.72-1.23-2.95-3.52-2.95h-4.85v6Zm-4.45,9.25h4.81c2.45,0,4.15-1.15,4.15-3.58,0-2.11-1.36-3.53-4.64-3.53h-4.32Z"/><path d="M184.72,397.91a20.74,20.74,0,0,0,.2,3.09h-2.35a8.07,8.07,0,0,1-.23-1.85c-.5.94-1.63,2.19-4.38,2.19-3.35,0-4.78-2.18-4.78-4.34,0-3.17,2.49-4.62,6.71-4.62h2.42v-1.21c0-1.25-.4-2.78-3.06-2.78-2.37,0-2.77,1.18-3,2.29h-2.37c.19-2,1.4-4.22,5.48-4.21,3.47,0,5.39,1.42,5.39,4.65Zm-2.39-3.83H180c-2.83,0-4.35.78-4.35,2.79a2.5,2.5,0,0,0,2.77,2.55c3.42,0,3.88-2.31,3.88-4.88Z"/><path d="M200.14,396.66a5.66,5.66,0,0,1-5.87,4.68c-3.91,0-6.33-2.81-6.33-7.36,0-4,2.27-7.51,6.51-7.51a5.31,5.31,0,0,1,5.69,4.75h-2.43a3.17,3.17,0,0,0-3.31-2.7c-2.51,0-3.94,2.15-3.94,5.38s1.38,5.4,3.85,5.4a3.37,3.37,0,0,0,3.39-2.64Z"/><path d="M205.52,393.58c1.2-1.4,4.32-4.68,6.24-6.77h2.92l-5.34,5.53,5.95,8.66h-2.86l-4.77-7.09L205.52,396v5h-2.45V380.45h2.45Z"/><path d="M228.79,399.72c0,4.55-1.87,7.14-6.51,7.14-4.3,0-5.63-2.41-5.88-4.34h2.5a3.23,3.23,0,0,0,3.49,2.38c3.22,0,4-2,4-5.31v-1.15c-.76,1.59-2.06,2.49-4.44,2.49-3.49,0-5.87-2.84-5.87-7,0-4.63,2.69-7.45,6.13-7.45,2.7,0,3.86,1.27,4.18,2.22,0-.65.09-1.59.11-1.88h2.32c0,.82-.05,2.73-.05,4.1Zm-10.15-5.9c0,3,1.56,5,3.88,5,3.06,0,4-2.06,4-5.22s-.84-5.08-3.88-5.08C220,388.55,218.64,390.75,218.64,393.82Z"/><path d="M233,390.66c0-2,0-3.1,0-3.85h2.4c0,.39.07,1.51.07,2.89a5,5,0,0,1,4.79-3.23v2.44c-2.92.09-4.79,1.61-4.79,5.2V401H233Z"/><path d="M254.81,393.88c0,4.09-2.35,7.46-6.69,7.46-4.07,0-6.53-3.15-6.53-7.42s2.41-7.45,6.69-7.45C252.22,386.47,254.81,389.42,254.81,393.88Zm-10.69,0c0,3.12,1.55,5.39,4.1,5.39s4.06-2.15,4.06-5.38-1.45-5.39-4.11-5.39S244.12,390.66,244.12,393.9Z"/><path d="M269.4,396.87c0,1.38,0,3.29,0,4.13H267a20.16,20.16,0,0,1-.09-2.12c-.7,1.57-2.07,2.46-4.3,2.46-2.4,0-4.69-1.19-4.69-5.2v-9.33h2.43v8.81c0,1.86.58,3.58,2.94,3.58,2.61,0,3.62-1.44,3.62-5v-7.4h2.45Z"/><path d="M273.61,390.38c0-1.23,0-2.47,0-3.57H276a22.58,22.58,0,0,1,.1,2.33,4.48,4.48,0,0,1,4.47-2.67c2.66,0,4.74,1.63,4.74,5.4V401h-2.45v-8.81c0-2.15-.84-3.59-3-3.59-2.68,0-3.76,2-3.76,4.89V401h-2.45Z"/><path d="M301.26,380.45V397c0,1.34,0,2.64,0,4h-2.35a19.07,19.07,0,0,1-.12-2c-.7,1.48-2.14,2.35-4.47,2.35-3.65,0-5.89-3-5.89-7.29s2.42-7.58,6.34-7.58c2.52,0,3.64,1,4,1.81v-7.83ZM291,394c0,3.43,1.63,5.28,3.86,5.28,3.32,0,4-2.45,4-5.56s-.66-5.15-3.86-5.15C292.54,388.55,291,390.53,291,394Z"/><path d="M315.55,392.42V401H313V381.52h7.61c4,0,6.14,2.17,6.14,5.21a4.46,4.46,0,0,1-3.33,4.59c1.59.42,3,1.61,3,5v.84a13.91,13.91,0,0,0,.26,3.85h-2.51a13.11,13.11,0,0,1-.33-4.18v-.42c0-2.77-.79-4-4.28-4Zm0-2.17h4.23c3,0,4.29-1.12,4.29-3.31s-1.35-3.24-4-3.24h-4.53Z"/><path d="M332,394.35c0,2.89,1.47,4.94,3.88,4.94a3.28,3.28,0,0,0,3.43-2.2h2.47a5.78,5.78,0,0,1-6,4.25c-4.46,0-6.28-3.63-6.28-7.28,0-4.23,2.13-7.59,6.44-7.59,4.58,0,6.08,3.67,6.08,6.7,0,.43,0,.8,0,1.18Zm7.56-1.73c0-2.33-1.21-4.21-3.63-4.21s-3.6,1.74-3.85,4.21Z"/><path d="M346.61,396.94a3.23,3.23,0,0,0,3.48,2.47c2.08,0,2.9-.9,2.9-2.19s-.65-2-3.36-2.6c-4.06-1-4.9-2.23-4.9-4.16s1.47-4,5.12-4,5.16,2.12,5.35,4.1h-2.37a2.79,2.79,0,0,0-3.08-2.2c-2,0-2.58,1-2.58,1.89s.58,1.59,3.18,2.21c4.31,1,5.17,2.46,5.17,4.57,0,2.48-2,4.3-5.51,4.3s-5.48-1.86-5.84-4.4Z"/><path d="M360.16,394.35c0,2.89,1.47,4.94,3.88,4.94a3.28,3.28,0,0,0,3.43-2.2h2.47a5.78,5.78,0,0,1-6,4.25c-4.46,0-6.28-3.63-6.28-7.28,0-4.23,2.13-7.59,6.44-7.59,4.58,0,6.08,3.67,6.08,6.7a11.15,11.15,0,0,1,0,1.18Zm7.56-1.73c0-2.33-1.21-4.21-3.63-4.21s-3.6,1.74-3.85,4.21Z"/><path d="M383.91,397.91a20.74,20.74,0,0,0,.2,3.09h-2.35a7.53,7.53,0,0,1-.23-1.85c-.5.94-1.63,2.19-4.39,2.19-3.34,0-4.77-2.18-4.77-4.34,0-3.17,2.49-4.62,6.71-4.62h2.42v-1.21c0-1.25-.4-2.78-3.06-2.78-2.37,0-2.77,1.18-3,2.29H373c.19-2,1.4-4.22,5.48-4.21,3.47,0,5.39,1.42,5.39,4.65Zm-2.39-3.83h-2.3c-2.83,0-4.35.78-4.35,2.79a2.5,2.5,0,0,0,2.77,2.55c3.42,0,3.88-2.31,3.88-4.88Z"/><path d="M388.15,390.66c0-2,0-3.1,0-3.85h2.4c0,.39.08,1.51.08,2.89a5,5,0,0,1,4.78-3.23v2.44c-2.91.09-4.78,1.61-4.78,5.2V401h-2.45Z"/><path d="M409,396.66a5.64,5.64,0,0,1-5.86,4.68c-3.91,0-6.33-2.81-6.33-7.36,0-4,2.27-7.51,6.5-7.51a5.3,5.3,0,0,1,5.69,4.75h-2.43a3.16,3.16,0,0,0-3.3-2.7c-2.52,0-3.94,2.15-3.94,5.38s1.38,5.4,3.85,5.4a3.36,3.36,0,0,0,3.38-2.64Z"/><path d="M414.37,380.45v8.45a4.74,4.74,0,0,1,4.43-2.43c2.28,0,4.78,1.25,4.78,5.47V401h-2.44v-8.65c0-2.41-1-3.75-3.09-3.75-2.55,0-3.68,1.68-3.68,4.64V401h-2.45V380.45Z"/><path d="M507.56,401h-2a11.18,11.18,0,0,1-.24-2.64c-.85,1.39-2.53,2.91-6.05,2.91-5.62,0-8.61-4.27-8.61-9.81,0-5.83,3.2-10.22,9.08-10.22,4.53,0,7.38,2.45,7.93,5.94H505.1c-.66-2.18-2.23-3.78-5.4-3.78-4.53,0-6.32,3.61-6.32,7.94,0,4,1.81,7.75,6.21,7.75s5.45-2.9,5.45-6.19v-.2h-5.49v-2.22h8Z"/><path d="M513.31,394.35c0,2.89,1.47,4.94,3.88,4.94a3.27,3.27,0,0,0,3.43-2.2h2.47a5.77,5.77,0,0,1-6,4.25c-4.47,0-6.29-3.63-6.29-7.28,0-4.23,2.13-7.59,6.45-7.59,4.58,0,6.08,3.67,6.08,6.7a11.15,11.15,0,0,1,0,1.18Zm7.56-1.73c0-2.33-1.2-4.21-3.63-4.21s-3.59,1.74-3.84,4.21Z"/><path d="M526.53,390.38c0-1.23,0-2.47,0-3.57h2.38a22.58,22.58,0,0,1,.1,2.33,4.46,4.46,0,0,1,4.47-2.67c2.66,0,4.74,1.63,4.74,5.4V401h-2.45v-8.81c0-2.15-.84-3.59-3-3.59-2.67,0-3.75,2-3.75,4.89V401h-2.45Z"/><path d="M543.83,394.35c0,2.89,1.47,4.94,3.88,4.94a3.27,3.27,0,0,0,3.43-2.2h2.47a5.77,5.77,0,0,1-6,4.25c-4.47,0-6.29-3.63-6.29-7.28,0-4.23,2.13-7.59,6.45-7.59,4.58,0,6.08,3.67,6.08,6.7a11.15,11.15,0,0,1,0,1.18Zm7.56-1.73c0-2.33-1.2-4.21-3.63-4.21s-3.59,1.74-3.84,4.21Z"/><path d="M557,390.66c0-2,0-3.1,0-3.85h2.4c0,.39.08,1.51.08,2.89a5,5,0,0,1,4.78-3.23v2.44c-2.91.09-4.78,1.61-4.78,5.2V401H557Z"/><path d="M577,397.91a20.74,20.74,0,0,0,.2,3.09h-2.35a8.07,8.07,0,0,1-.23-1.85c-.5.94-1.63,2.19-4.38,2.19-3.35,0-4.78-2.18-4.78-4.34,0-3.17,2.49-4.62,6.71-4.62h2.42v-1.21c0-1.25-.4-2.78-3.06-2.78-2.37,0-2.77,1.18-3,2.29h-2.37c.19-2,1.4-4.22,5.48-4.21,3.47,0,5.39,1.42,5.39,4.65Zm-2.39-3.83h-2.3c-2.83,0-4.34.78-4.34,2.79a2.5,2.5,0,0,0,2.76,2.55c3.42,0,3.88-2.31,3.88-4.88Z"/><path d="M579.21,386.81h2.46v-4.19h2.45v4.19h3.13v2h-3.13v8.31c0,1.38.33,2.09,1.62,2.09a5.34,5.34,0,0,0,1.23-.12v1.85a6.71,6.71,0,0,1-2.12.26c-2.21,0-3.18-1.14-3.18-3.5v-8.89h-2.46Z"/><path d="M589.85,380.45h2.45v3.06h-2.45Zm0,6.36h2.45V401h-2.45Z"/><path d="M597.47,386.81c1.91,5.8,3.31,10.14,3.74,11.91h0c.34-1.58,1.85-5.83,4-11.91h2.5L602.5,401h-2.71l-4.95-14.19Z"/><path d="M611.51,394.35c0,2.89,1.47,4.94,3.88,4.94a3.29,3.29,0,0,0,3.43-2.2h2.47a5.78,5.78,0,0,1-6,4.25c-4.46,0-6.28-3.63-6.28-7.28,0-4.23,2.13-7.59,6.44-7.59,4.58,0,6.08,3.67,6.08,6.7a11.15,11.15,0,0,1,0,1.18Zm7.55-1.73c0-2.33-1.2-4.21-3.62-4.21s-3.6,1.74-3.85,4.21Z"/><path d="M634.68,392.42V401h-2.56V381.52h7.62c4,0,6.13,2.17,6.13,5.21a4.45,4.45,0,0,1-3.32,4.59c1.59.42,3,1.61,3,5v.84a13.5,13.5,0,0,0,.27,3.85h-2.52a13.48,13.48,0,0,1-.32-4.18v-.42c0-2.77-.79-4-4.28-4Zm0-2.17h4.24c3,0,4.29-1.12,4.29-3.31s-1.35-3.24-4-3.24h-4.53Z"/><path d="M651.16,394.35c0,2.89,1.47,4.94,3.88,4.94a3.27,3.27,0,0,0,3.42-2.2h2.47a5.77,5.77,0,0,1-6,4.25c-4.46,0-6.28-3.63-6.28-7.28,0-4.23,2.12-7.59,6.44-7.59,4.58,0,6.08,3.67,6.08,6.7a11.15,11.15,0,0,1,0,1.18Zm7.55-1.73c0-2.33-1.2-4.21-3.63-4.21s-3.59,1.74-3.84,4.21Z"/><path d="M665.75,396.94a3.22,3.22,0,0,0,3.48,2.47c2.08,0,2.9-.9,2.9-2.19s-.65-2-3.36-2.6c-4.06-1-4.91-2.23-4.91-4.16s1.48-4,5.13-4,5.16,2.12,5.35,4.1H672a2.78,2.78,0,0,0-3.08-2.2c-2,0-2.58,1-2.58,1.89s.59,1.59,3.19,2.21c4.3,1,5.17,2.46,5.17,4.57,0,2.48-2,4.3-5.51,4.3s-5.48-1.86-5.84-4.4Z"/><path d="M679.29,394.35c0,2.89,1.48,4.94,3.89,4.94a3.27,3.27,0,0,0,3.42-2.2h2.47a5.77,5.77,0,0,1-6,4.25c-4.46,0-6.28-3.63-6.28-7.28,0-4.23,2.12-7.59,6.44-7.59,4.58,0,6.08,3.67,6.08,6.7a11.15,11.15,0,0,1,0,1.18Zm7.56-1.73c0-2.33-1.2-4.21-3.63-4.21s-3.59,1.74-3.84,4.21Z"/><path d="M703.05,397.91a22.7,22.7,0,0,0,.19,3.09H700.9a7.92,7.92,0,0,1-.24-1.85c-.49.94-1.62,2.19-4.38,2.19-3.35,0-4.78-2.18-4.78-4.34,0-3.17,2.49-4.62,6.71-4.62h2.43v-1.21c0-1.25-.41-2.78-3.06-2.78-2.37,0-2.77,1.18-3,2.29h-2.37c.18-2,1.39-4.22,5.48-4.21,3.47,0,5.39,1.42,5.39,4.65Zm-2.4-3.83h-2.29c-2.84,0-4.35.78-4.35,2.79a2.5,2.5,0,0,0,2.76,2.55c3.42,0,3.88-2.31,3.88-4.88Z"/><path d="M707.28,390.66c0-2,0-3.1,0-3.85h2.41c0,.39.07,1.51.07,2.89a5,5,0,0,1,4.79-3.23v2.44c-2.92.09-4.79,1.61-4.79,5.2V401h-2.45Z"/><path d="M728.12,396.66a5.65,5.65,0,0,1-5.87,4.68c-3.9,0-6.33-2.81-6.33-7.36,0-4,2.28-7.51,6.51-7.51a5.3,5.3,0,0,1,5.69,4.75h-2.43a3.17,3.17,0,0,0-3.31-2.7c-2.51,0-3.93,2.15-3.93,5.38s1.38,5.4,3.84,5.4a3.36,3.36,0,0,0,3.39-2.64Z"/><path d="M733.5,380.45v8.45a4.77,4.77,0,0,1,4.44-2.43c2.27,0,4.78,1.25,4.78,5.47V401h-2.44v-8.65c0-2.41-1-3.75-3.09-3.75-2.56,0-3.69,1.68-3.69,4.64V401h-2.45V380.45Z"/><path d="M1514,401l-5.23-19.48h2.73c1.52,6.38,3.62,14.44,4,16.67h0c.51-2.52,3.19-11.7,4.46-16.67h2.51c1.17,4.35,3.83,14.25,4.27,16.57h0c.62-3.37,3.34-12.57,4.42-16.57h2.55L1528.11,401h-2.78c-1.18-4.48-3.69-13.76-4.16-16.1h0c-.58,2.91-3.09,11.63-4.34,16.1Z"/><path d="M1536.73,394.35c0,2.89,1.47,4.94,3.88,4.94a3.29,3.29,0,0,0,3.43-2.2h2.46a5.76,5.76,0,0,1-6,4.25c-4.46,0-6.28-3.63-6.28-7.28,0-4.23,2.13-7.59,6.44-7.59,4.58,0,6.08,3.67,6.08,6.7a11.15,11.15,0,0,1,0,1.18Zm7.55-1.73c0-2.33-1.2-4.21-3.63-4.21s-3.59,1.74-3.84,4.21Z"/><path d="M1550,380.45h2.45v8.38c.64-1.21,1.94-2.36,4.53-2.36,3.56,0,5.81,2.93,5.81,7.15s-2.17,7.72-6.19,7.72c-2.27,0-3.45-.83-4.17-2.21a16.72,16.72,0,0,1-.1,1.87H1550c0-1.58,0-3.18,0-4.76Zm10.26,13.21c0-3.06-1.4-5.11-3.86-5.11-3,0-4.08,2-4.08,5.4,0,3,1,5.32,4,5.32C1558.78,399.27,1560.25,397.13,1560.25,393.66Z"/><path d="M1567.39,396.94a3.22,3.22,0,0,0,3.48,2.47c2.08,0,2.9-.9,2.9-2.19s-.65-2-3.36-2.6c-4.06-1-4.9-2.23-4.9-4.16s1.47-4,5.12-4,5.16,2.12,5.35,4.1h-2.37a2.79,2.79,0,0,0-3.08-2.2c-2,0-2.58,1-2.58,1.89s.58,1.59,3.18,2.21c4.31,1,5.17,2.46,5.17,4.57,0,2.48-2,4.3-5.51,4.3s-5.48-1.86-5.84-4.4Z"/><path d="M1579.44,380.45h2.45v3.06h-2.45Zm0,6.36h2.45V401h-2.45Z"/><path d="M1584.4,386.81h2.45v-4.19h2.45v4.19h3.14v2h-3.14v8.31c0,1.38.34,2.09,1.62,2.09a5.47,5.47,0,0,0,1.24-.12v1.85a6.78,6.78,0,0,1-2.12.26c-2.21,0-3.19-1.14-3.19-3.5v-8.89h-2.45Z"/><path d="M1596.42,394.35c0,2.89,1.47,4.94,3.88,4.94a3.27,3.27,0,0,0,3.43-2.2h2.47a5.77,5.77,0,0,1-6,4.25c-4.47,0-6.29-3.63-6.29-7.28,0-4.23,2.13-7.59,6.45-7.59,4.57,0,6.08,3.67,6.08,6.7a11.15,11.15,0,0,1,0,1.18Zm7.56-1.73c0-2.33-1.2-4.21-3.63-4.21s-3.6,1.74-3.84,4.21Z"/><path d="M1634,388.65l-5,7.31c-2.32,3.41-4,5.32-7.55,5.32a5.18,5.18,0,0,1-5.54-5.14c0-2.55,1.4-4.29,5.27-6.29,2.5-1.38,3.91-2.29,3.91-4.11a2.49,2.49,0,1,0-5,.1c0,1.22.91,2.29,2.36,3.67L1634.16,401h-3.33l-10.43-10.27c-1.57-1.51-2.64-2.87-2.64-4.78a4.6,4.6,0,0,1,4.89-4.71,4.45,4.45,0,0,1,4.7,4.47c0,2.17-1.39,3.51-4.87,5.44-3.36,1.74-4,3.11-4,4.73a3.21,3.21,0,0,0,3.18,3.23c2.18,0,3.41-.89,5.86-4.59l3.86-5.87Z"/><path d="M1647.61,395.16l-2.09,5.84H1643l6.93-19.48h3.18L1660.3,401h-2.75l-2.16-5.84Zm7.11-2.21c-1.85-5.12-2.87-7.84-3.3-9.33h0c-.48,1.65-1.62,4.95-3.12,9.33Z"/><path d="M1665.43,399.25v7.33H1663V390.27c0-1.16,0-2.36,0-3.46h2.39c.05.47.08,1.33.08,2.23a4.9,4.9,0,0,1,4.64-2.57c3.29,0,5.67,2.75,5.67,7.07,0,5.07-2.74,7.8-6.17,7.8A4.32,4.32,0,0,1,1665.43,399.25Zm7.79-5.61c0-3-1.37-5.07-3.8-5.07-2.94,0-4.1,1.86-4.1,5.31s1,5.39,3.92,5.39C1671.83,399.27,1673.22,397.13,1673.22,393.64Z"/><path d="M1681.39,399.25v7.33H1679V390.27c0-1.16,0-2.36,0-3.46h2.39c0,.47.08,1.33.08,2.23a4.9,4.9,0,0,1,4.64-2.57c3.29,0,5.67,2.75,5.67,7.07,0,5.07-2.74,7.8-6.17,7.8A4.32,4.32,0,0,1,1681.39,399.25Zm7.79-5.61c0-3-1.37-5.07-3.8-5.07-2.94,0-4.1,1.86-4.1,5.31s1,5.39,3.92,5.39C1687.79,399.27,1689.18,397.13,1689.18,393.64Z"/><path d="M225.38,245.17H212.93V254h13.68l-.43,2.85H209.67v-25H226v2.85h-13v7.65h12.45Z"/><path d="M230.31,243.33c0-1.57,0-3.23,0-4.71h3c.05.55.14,1.9.13,2.81a5.64,5.64,0,0,1,5.31-3.24,5,5,0,0,1,5.05,3.27,6.23,6.23,0,0,1,5.82-3.27c3,0,5.75,1.75,5.75,6.69v12h-3.1V245.26c0-2.12-.76-4.35-3.61-4.35s-4.26,2.25-4.26,5.49v10.48h-3.09V245.36c0-2.34-.67-4.44-3.53-4.44s-4.34,2.37-4.34,5.85v10.11h-3.13Z"/><path d="M263.9,254.62v9.43h-3.13v-21c0-1.49,0-3,0-4.46h3.06a26.81,26.81,0,0,1,.11,2.87,6.31,6.31,0,0,1,6-3.3c4.22,0,7.29,3.54,7.29,9.09,0,6.52-3.52,10-7.94,10C266.27,257.31,264.73,256.07,263.9,254.62Zm10-7.21c0-3.87-1.76-6.52-4.88-6.52-3.78,0-5.27,2.39-5.27,6.83s1.22,6.93,5,6.93C272.13,254.65,273.91,251.9,273.91,247.41Z"/><path d="M294.85,252.9a28.08,28.08,0,0,0,.25,4h-3a10.5,10.5,0,0,1-.3-2.39c-.63,1.21-2.09,2.82-5.63,2.82-4.3,0-6.14-2.8-6.14-5.58,0-4.07,3.2-5.94,8.62-5.94h3.12v-1.55c0-1.61-.52-3.58-3.93-3.58-3.05,0-3.57,1.52-3.9,2.94h-3.05c.24-2.51,1.8-5.42,7.05-5.41,4.46,0,6.93,1.83,6.93,6ZM291.77,248h-3c-3.63,0-5.58,1-5.58,3.58a3.21,3.21,0,0,0,3.55,3.28c4.4,0,5-3,5-6.28Z"/><path d="M297.7,238.62h3.15v-5.38H304v5.38h4v2.58h-4v10.69c0,1.77.43,2.68,2.08,2.68a6.88,6.88,0,0,0,1.59-.15v2.37a8.49,8.49,0,0,1-2.73.34c-2.84,0-4.1-1.47-4.1-4.5V241.2H297.7Z"/><path d="M314.53,230.45v10.87a6.12,6.12,0,0,1,5.7-3.13c2.92,0,6.15,1.6,6.15,7v11.65h-3.14V245.75c0-3.1-1.32-4.83-4-4.83-3.29,0-4.74,2.18-4.74,6v10h-3.15V230.45Z"/><path d="M331.76,230.45h3.15v3.94h-3.15Zm0,8.17h3.15v18.26h-3.15Z"/><path d="M338.68,254.33l10.51-13.06h-10v-2.65h13.58v2.65l-10.35,13h10.85l-.51,2.65H338.68Z"/><path d="M358.41,248.32c0,3.72,1.89,6.35,5,6.35a4.21,4.21,0,0,0,4.41-2.82H371c-.72,2.34-2.67,5.46-7.68,5.46-5.73,0-8.07-4.67-8.07-9.36,0-5.43,2.73-9.76,8.28-9.76,5.89,0,7.81,4.73,7.81,8.62,0,.55,0,1,0,1.51Zm9.72-2.22c0-3-1.55-5.41-4.67-5.41s-4.62,2.23-4.94,5.41Z"/><path d="M165.89,522.84a3.58,3.58,0,1,1,3.58,3.53A3.5,3.5,0,0,1,165.89,522.84Z"/><path d="M178.94,523.28c0,3.07,1.57,5,3.86,5a3.35,3.35,0,0,0,3.43-2.24h1.27a4.62,4.62,0,0,1-4.75,3.4c-3.65,0-5.08-3.14-5.08-6.2,0-3.44,1.71-6.39,5.23-6.39,3.71,0,4.89,3.19,4.89,5.47,0,.34,0,.67,0,1Zm7.55-1.08c0-2.35-1.3-4.21-3.64-4.21s-3.57,1.72-3.83,4.21Z"/><path d="M190.7,520.22c0-1,0-2.16,0-3.1h1.23c0,.41.07,1.43,0,2.12a3.74,3.74,0,0,1,3.59-2.41A3.41,3.41,0,0,1,199,519.2a4.09,4.09,0,0,1,3.91-2.37c1.85,0,3.77,1.07,3.77,4.4v7.9h-1.25v-7.75c0-1.6-.57-3.34-2.78-3.34s-3.36,1.86-3.36,4.18v6.91h-1.22v-7.72c0-1.75-.53-3.37-2.72-3.37s-3.42,2-3.42,4.48v6.61H190.7Z"/><path d="M211.87,527.37v6.56h-1.25V520.07c0-1,0-2,0-3h1.23c.05.45.05,1.18.05,2.15a4.39,4.39,0,0,1,4.21-2.44c2.83,0,4.8,2.38,4.8,6,0,4.33-2.31,6.61-5.21,6.61A3.9,3.9,0,0,1,211.87,527.37Zm7.69-4.51c0-2.77-1.33-4.84-3.69-4.84-2.89,0-4.08,1.81-4.08,5.06s.93,5.18,3.91,5.18C218.18,528.26,219.56,526.16,219.56,522.86Z"/><path d="M232.14,526.83a14.1,14.1,0,0,0,.17,2.3h-1.2a7.9,7.9,0,0,1-.21-1.83c-.41.88-1.46,2.12-3.93,2.12-2.79,0-4-1.8-4-3.61,0-2.64,2.05-3.84,5.65-3.84h2.27v-1.22c0-1.19-.36-2.78-3.07-2.78-2.41,0-2.77,1.26-3,2.24h-1.24c.14-1.34,1-3.38,4.29-3.38,2.75,0,4.29,1.16,4.29,3.81ZM230.92,523h-2.33c-2.65,0-4.29.7-4.29,2.74a2.49,2.49,0,0,0,2.74,2.53c3.4,0,3.88-2.27,3.88-4.84Z"/><path d="M234.17,517.12h2.23v-3.73h1.25v3.73h2.85v1.16h-2.85v7.77c0,1.33.29,2.09,1.44,2.09a4.43,4.43,0,0,0,1.23-.14v1.08a4.22,4.22,0,0,1-1.5.22c-1.56,0-2.42-.78-2.42-2.71v-8.31h-2.23Z"/><path d="M244.12,511.45v7.68a4.18,4.18,0,0,1,3.95-2.3c1.72,0,4.06.88,4.06,4.66v7.64h-1.25v-7.39c0-2.36-1.06-3.7-3-3.7-2.37,0-3.72,1.47-3.72,4.4v6.69h-1.25V511.45Z"/><path d="M255.7,517.12c2.4,6.81,3.45,9.66,3.86,11h0c.48-1.46,1.43-4.25,3.74-11h1.3l-4.51,12.7c-1.27,3.55-2.13,4.35-4.31,4.35a8,8,0,0,1-1.12-.07v-1.24a7.62,7.62,0,0,0,1.08.08c1.72,0,2.27-.84,3.15-3.28l-4.58-12.54Z"/><path d="M273.14,520.22c0-1,0-2.16,0-3.1h1.22c0,.41.08,1.43.05,2.12a3.76,3.76,0,0,1,3.6-2.41,3.42,3.42,0,0,1,3.48,2.37,4.09,4.09,0,0,1,3.91-2.37c1.85,0,3.77,1.07,3.77,4.4v7.9h-1.25v-7.75c0-1.6-.57-3.34-2.78-3.34s-3.36,1.86-3.36,4.18v6.91h-1.22v-7.72c0-1.75-.53-3.37-2.72-3.37s-3.43,2-3.43,4.48v6.61h-1.24Z"/><path d="M301.19,526.83a14.1,14.1,0,0,0,.17,2.3h-1.2a7.35,7.35,0,0,1-.21-1.83c-.41.88-1.47,2.12-3.93,2.12-2.79,0-4-1.8-4-3.61,0-2.64,2-3.84,5.64-3.84h2.27v-1.22c0-1.19-.36-2.78-3.07-2.78-2.4,0-2.76,1.26-3,2.24H292.6c.15-1.34,1-3.38,4.3-3.38,2.75,0,4.29,1.16,4.29,3.81ZM300,523h-2.33c-2.66,0-4.29.7-4.29,2.74a2.49,2.49,0,0,0,2.74,2.53c3.4,0,3.88-2.27,3.88-4.84Z"/><path d="M306.38,527.37v6.56h-1.25V520.07c0-1,0-2,0-3h1.23c.05.45.05,1.18.05,2.15a4.39,4.39,0,0,1,4.21-2.44c2.83,0,4.8,2.38,4.8,6,0,4.33-2.3,6.61-5.21,6.61A3.9,3.9,0,0,1,306.38,527.37Zm7.69-4.51c0-2.77-1.33-4.84-3.69-4.84-2.89,0-4.08,1.81-4.08,5.06s.93,5.18,3.91,5.18C312.69,528.26,314.07,526.16,314.07,522.86Z"/><path d="M318.67,525.81a3.16,3.16,0,0,0,3.39,2.48c2.11,0,3-1,3-2.31s-.58-2-3.24-2.66c-3.12-.75-3.89-1.69-3.89-3.28s1.25-3.21,4-3.21,4,1.67,4.22,3.37h-1.25a2.8,2.8,0,0,0-3-2.23c-2.07,0-2.67,1-2.67,2s.58,1.64,2.94,2.21c3.41.82,4.24,1.93,4.24,3.73,0,2.18-1.77,3.54-4.32,3.54-2.76,0-4.29-1.45-4.63-3.61Z"/><path d="M1475.62,522.84a3.58,3.58,0,1,1,3.58,3.53A3.5,3.5,0,0,1,1475.62,522.84Z"/><path d="M1502.88,520.62c0,4.58-2.45,8.75-7.64,8.75-4.74,0-7.5-3.81-7.5-8.64s2.67-8.63,7.67-8.63C1500,512.1,1502.88,515.72,1502.88,520.62Zm-13.7,0c0,3.85,2.12,7.47,6.13,7.47,4.32,0,6.13-3.53,6.13-7.49s-2-7.31-6.08-7.31C1491.07,513.33,1489.18,516.88,1489.18,520.66Z"/><path d="M1506.17,520.15c0-1.06,0-2.07,0-3h1.23c0,.38.07,1.93.05,2.27a3.9,3.9,0,0,1,4-2.56c2.15,0,4,1.21,4,4.52v7.78h-1.25v-7.58c0-2.12-.88-3.51-3-3.51-2.82,0-3.8,2.35-3.8,5v6.14h-1.25Z"/><path d="M1524.67,522.39v1.22h-6.07v-1.22Z"/><path d="M1528.05,511.45h1.25v7.67a4.15,4.15,0,0,1,4.1-2.29c2.84,0,4.92,2.34,4.92,6s-1.87,6.56-5.24,6.56a3.72,3.72,0,0,1-3.78-2.17c0,.76,0,1.55,0,1.88H1528c0-1.37,0-2.73,0-4.1Zm9,11.44c0-3-1.47-4.89-3.74-4.89-3,0-4,2-4,5.15,0,2.82.93,5.11,3.88,5.11C1535.52,528.26,1537,526.25,1537,522.89Z"/><path d="M1551.18,523.1c0,3.35-1.85,6.32-5.44,6.32-3.25,0-5.27-2.67-5.27-6.29,0-3.44,1.9-6.3,5.39-6.3C1549.07,516.83,1551.18,519.33,1551.18,523.1Zm-9.39,0c0,2.84,1.52,5.13,4,5.13s4-2.12,4-5.13c0-2.83-1.43-5.13-4.07-5.13S1541.79,520.25,1541.79,523.13Z"/><path d="M1562.42,526.83a14.1,14.1,0,0,0,.17,2.3h-1.2a7.69,7.69,0,0,1-.22-1.83c-.4.88-1.46,2.12-3.92,2.12-2.79,0-4-1.8-4-3.61,0-2.64,2-3.84,5.64-3.84h2.27v-1.22c0-1.19-.36-2.78-3.07-2.78-2.4,0-2.76,1.26-3,2.24h-1.25c.15-1.34,1-3.38,4.3-3.38,2.75,0,4.29,1.16,4.29,3.81ZM1561.2,523h-2.33c-2.66,0-4.29.7-4.29,2.74a2.49,2.49,0,0,0,2.74,2.53c3.4,0,3.88-2.27,3.88-4.84Z"/><path d="M1566.36,520.39c0-2,0-2.87,0-3.27h1.23c0,.38,0,1.16,0,2.68a4.54,4.54,0,0,1,4.17-3v1.34c-2.5.17-4.17,1.87-4.17,4.74v6.22h-1.25Z"/><path d="M1583.3,511.45v14.23c0,1.15,0,2.25,0,3.45h-1.19c-.05-.29-.08-1.41-.08-2-.6,1.45-1.94,2.29-4,2.29-3.12,0-5-2.54-5-6.15s2-6.44,5.31-6.44c2.38,0,3.34,1,3.7,1.79v-7.17Zm-8.94,11.77c0,3.27,1.68,5,3.74,5,3.15,0,4-2.18,4-5.42,0-3.07-.73-4.84-3.79-4.84C1576,518,1574.36,519.88,1574.36,523.22Z"/><path d="M1587.21,511.45h1.25v2.34h-1.25Zm0,5.67h1.25v12h-1.25Z"/><path d="M1592.38,520.15c0-1.06,0-2.07,0-3h1.22a21.74,21.74,0,0,1,0,2.27,3.92,3.92,0,0,1,4-2.56c2.14,0,4,1.21,4,4.52v7.78h-1.25v-7.58c0-2.12-.87-3.51-3-3.51-2.83,0-3.81,2.35-3.81,5v6.14h-1.24Z"/><path d="M1614.77,528.3c0,3.84-1.7,5.87-5.21,5.87-3.15,0-4.44-1.77-4.72-3.58h1.27a3.29,3.29,0,0,0,3.5,2.42c3.1,0,4-2,4-5v-1.24c-.64,1.55-1.82,2.39-4,2.39-2.82,0-5-2.29-5-6,0-4,2.3-6.3,5.14-6.3,2.44,0,3.49,1.15,3.82,2.1,0-.68,0-1.52.08-1.81h1.17c0,.45,0,2.33,0,3.48Zm-8.85-5.22c0,2.84,1.5,4.88,3.79,4.88,3,0,3.88-2,3.88-5.07s-.95-4.89-3.81-4.89S1605.92,520.35,1605.92,523.08Z"/><path d="M1475.62,551.64a3.58,3.58,0,1,1,3.58,3.53A3.49,3.49,0,0,1,1475.62,551.64Z"/><path d="M1488.74,541.14h1.35v15.55h9l-.25,1.24h-10.11Z"/><path d="M1511.32,551.9c0,3.35-1.86,6.32-5.44,6.32-3.26,0-5.28-2.67-5.28-6.29,0-3.44,1.91-6.3,5.4-6.3C1509.2,545.63,1511.32,548.13,1511.32,551.9Zm-9.4,0c0,2.84,1.53,5.13,4,5.13s4-2.12,4-5.13c0-2.83-1.43-5.14-4.07-5.14S1501.92,549.05,1501.92,551.93Z"/><path d="M1523.66,557.1c0,3.84-1.7,5.87-5.2,5.87-3.16,0-4.44-1.77-4.73-3.58H1515a3.28,3.28,0,0,0,3.5,2.42c3.1,0,4-2,4-5v-1.24c-.65,1.55-1.82,2.39-4,2.39-2.81,0-5-2.29-5-6,0-4,2.31-6.3,5.14-6.3,2.45,0,3.5,1.15,3.83,2.1,0-.68,0-1.52.08-1.81h1.17c0,.45,0,2.33,0,3.48Zm-8.85-5.22c0,2.84,1.51,4.88,3.79,4.88,3,0,3.89-2,3.89-5.07s-1-4.89-3.81-4.89S1514.81,549.15,1514.81,551.88Z"/><path d="M1527.57,540.25h1.25v2.34h-1.25Zm0,5.67h1.25v12h-1.25Z"/><path d="M1532.74,549c0-1.06,0-2.07,0-3h1.22a21.74,21.74,0,0,1,0,2.27,3.92,3.92,0,0,1,4-2.56c2.14,0,4,1.21,4,4.52v7.78h-1.24v-7.58c0-2.12-.88-3.51-3-3.51-2.83,0-3.81,2.35-3.81,4.95v6.14h-1.24Z"/><path d="M1566.24,547.14l-4.18,6.47c-2,3.13-3.5,4.56-6.21,4.56a4.27,4.27,0,0,1-4.37-4.28c0-2,1-3.6,4.49-5.51,2.43-1.56,3.36-2.24,3.36-3.78a2.49,2.49,0,1,0-5,.1c0,1.07.74,2.08,2.17,3.44l9.94,9.79h-1.85l-9.07-8.94c-1.55-1.48-2.46-2.59-2.46-4.29a3.67,3.67,0,0,1,3.86-3.8,3.58,3.58,0,0,1,3.67,3.7c0,1.64-.91,2.7-3.86,4.52-3.36,1.9-3.93,3.07-3.93,4.67a3.21,3.21,0,0,0,3,3.17c1.94,0,3.22-.68,5.38-4.12l3.56-5.7Z"/><path d="M1577.42,550.11v7.82h-1.37V541.14h6.06c3.32,0,5.07,1.78,5.07,4.41a3.81,3.81,0,0,1-3.13,3.94c1.71.41,2.87,1.53,2.87,4.39v.65a11.26,11.26,0,0,0,.21,3.4h-1.36a11.3,11.3,0,0,1-.24-3.51V554c0-2.73-.81-3.88-4-3.88Zm0-1.24h4c2.93,0,4.28-1.09,4.28-3.28s-1.33-3.22-3.93-3.22h-4.39Z"/><path d="M1591.25,552.08c0,3.07,1.57,5,3.86,5a3.35,3.35,0,0,0,3.43-2.24h1.27a4.62,4.62,0,0,1-4.75,3.4c-3.66,0-5.08-3.14-5.08-6.2,0-3.44,1.71-6.39,5.22-6.39,3.71,0,4.89,3.19,4.89,5.47,0,.34,0,.67,0,1Zm7.55-1.08c0-2.35-1.31-4.21-3.64-4.21s-3.58,1.72-3.84,4.21Z"/><path d="M1612.48,557.1c0,3.84-1.69,5.87-5.2,5.87-3.15,0-4.44-1.77-4.72-3.58h1.27a3.29,3.29,0,0,0,3.5,2.42c3.1,0,4-2,4-5v-1.24c-.64,1.55-1.82,2.39-4,2.39-2.82,0-5-2.29-5-6,0-4,2.31-6.3,5.15-6.3,2.44,0,3.49,1.15,3.82,2.1,0-.68,0-1.52.08-1.81h1.17c0,.45,0,2.33,0,3.48Zm-8.84-5.22c0,2.84,1.5,4.88,3.79,4.88,3,0,3.88-2,3.88-5.07s-1-4.89-3.81-4.89S1603.64,549.15,1603.64,551.88Z"/><path d="M1616.4,540.25h1.25v2.34h-1.25Zm0,5.67h1.25v12h-1.25Z"/><path d="M1621.49,554.61a3.16,3.16,0,0,0,3.39,2.48c2.11,0,3-1,3-2.31s-.57-2-3.24-2.66c-3.12-.75-3.89-1.69-3.89-3.28s1.25-3.21,4-3.21,4,1.67,4.22,3.37h-1.25a2.8,2.8,0,0,0-3-2.23c-2.07,0-2.67,1-2.67,2s.58,1.64,3,2.21c3.4.82,4.23,1.93,4.23,3.73,0,2.18-1.77,3.54-4.32,3.54-2.76,0-4.29-1.45-4.63-3.61Z"/><path d="M1630.28,545.92h2.23v-3.73h1.25v3.73h2.84v1.16h-2.84v7.77c0,1.33.28,2.09,1.43,2.09a4.46,4.46,0,0,0,1.24-.14v1.08a4.26,4.26,0,0,1-1.5.22c-1.56,0-2.42-.78-2.42-2.71v-8.31h-2.23Z"/><path d="M1639.23,552.08c0,3.07,1.56,5,3.85,5a3.35,3.35,0,0,0,3.43-2.24h1.28a4.63,4.63,0,0,1-4.75,3.4c-3.66,0-5.09-3.14-5.09-6.2,0-3.44,1.71-6.39,5.23-6.39,3.71,0,4.89,3.19,4.89,5.47,0,.34,0,.67,0,1Zm7.54-1.08c0-2.35-1.3-4.21-3.64-4.21s-3.57,1.72-3.83,4.21Z"/><path d="M1651,549.19c0-2,0-2.87,0-3.27h1.22c0,.38,0,1.16,0,2.68a4.54,4.54,0,0,1,4.17-3V547c-2.49.17-4.17,1.87-4.17,4.74v6.22H1651Z"/><path d="M1475.62,580.44a3.58,3.58,0,1,1,3.58,3.53A3.5,3.5,0,0,1,1475.62,580.44Z"/><path d="M1488.91,582.21c.51,2.22,2,3.53,4.73,3.53,3,0,4.21-1.52,4.21-3.33s-.83-3-4.51-3.95-5.1-2.06-5.1-4.48c0-2.22,1.62-4.28,5.22-4.28s5.28,2.25,5.5,4.3h-1.4c-.38-1.78-1.54-3.07-4.17-3.07-2.4,0-3.71,1.11-3.71,3s1.09,2.55,4.18,3.31c4.73,1.18,5.43,3.07,5.43,5.1,0,2.48-1.81,4.61-5.7,4.61-4.21,0-5.76-2.44-6.07-4.71Z"/><path d="M1503.72,569v7.69a4.18,4.18,0,0,1,4-2.3c1.72,0,4.06.88,4.06,4.66v7.64h-1.25v-7.39c0-2.36-1.07-3.7-3-3.7-2.36,0-3.71,1.47-3.71,4.4v6.69h-1.25V569Z"/><path d="M1523.78,584.43a14.1,14.1,0,0,0,.17,2.3h-1.2a7.35,7.35,0,0,1-.21-1.83c-.42.88-1.47,2.12-3.93,2.12-2.79,0-4-1.8-4-3.61,0-2.64,2-3.84,5.64-3.84h2.27v-1.22c0-1.19-.36-2.78-3.07-2.78-2.4,0-2.76,1.25-3,2.24h-1.25c.15-1.34,1-3.38,4.3-3.38,2.75,0,4.29,1.16,4.29,3.81Zm-1.22-3.81h-2.34c-2.65,0-4.28.7-4.28,2.74a2.49,2.49,0,0,0,2.74,2.53c3.4,0,3.88-2.27,3.88-4.84Z"/><path d="M1527.72,578c0-2,0-2.87,0-3.27h1.23c0,.38,0,1.16,0,2.68a4.54,4.54,0,0,1,4.17-3v1.34c-2.5.17-4.17,1.87-4.17,4.74v6.22h-1.25Z"/><path d="M1535.67,580.88c0,3.07,1.56,5,3.86,5a3.35,3.35,0,0,0,3.42-2.24h1.28a4.63,4.63,0,0,1-4.75,3.4c-3.66,0-5.09-3.14-5.09-6.2,0-3.44,1.72-6.39,5.23-6.39,3.71,0,4.89,3.19,4.89,5.47,0,.34,0,.67,0,1Zm7.54-1.08c0-2.35-1.3-4.21-3.64-4.21s-3.57,1.72-3.83,4.21Z"/><path d="M1567.75,575.94l-4.18,6.47c-2,3.13-3.5,4.56-6.21,4.56a4.27,4.27,0,0,1-4.37-4.28c0-2.05,1-3.6,4.49-5.51,2.44-1.56,3.36-2.24,3.36-3.78a2.49,2.49,0,1,0-5,.1c0,1.07.74,2.08,2.17,3.44l10,9.79h-1.86l-9.07-8.94c-1.55-1.48-2.46-2.59-2.46-4.29a3.67,3.67,0,0,1,3.86-3.8,3.58,3.58,0,0,1,3.67,3.7c0,1.64-.9,2.7-3.86,4.52-3.35,1.9-3.93,3.07-3.93,4.67a3.21,3.21,0,0,0,3,3.17c1.94,0,3.22-.68,5.38-4.12l3.56-5.7Z"/><path d="M1577.74,582.21c.5,2.22,2,3.53,4.72,3.53,3,0,4.22-1.52,4.22-3.33s-.84-3-4.52-3.95-5.1-2.06-5.1-4.48c0-2.22,1.62-4.28,5.23-4.28s5.27,2.25,5.49,4.3h-1.39c-.38-1.78-1.55-3.07-4.18-3.07-2.4,0-3.71,1.11-3.71,3s1.1,2.55,4.18,3.31c4.73,1.18,5.44,3.07,5.44,5.1,0,2.48-1.81,4.61-5.71,4.61-4.2,0-5.75-2.44-6.07-4.71Z"/><path d="M1591.71,580.88c0,3.07,1.56,5,3.85,5a3.35,3.35,0,0,0,3.43-2.24h1.28a4.63,4.63,0,0,1-4.75,3.4c-3.66,0-5.09-3.14-5.09-6.2,0-3.44,1.71-6.39,5.23-6.39,3.71,0,4.89,3.19,4.89,5.47,0,.34,0,.67,0,1Zm7.54-1.08c0-2.35-1.3-4.21-3.64-4.21s-3.57,1.72-3.83,4.21Z"/><path d="M1603.56,586.73V569h1.24v17.69Z"/><path d="M1608.72,586.73V569H1610v17.69Z"/><path d="M1475.62,609.24a3.58,3.58,0,1,1,3.58,3.53A3.5,3.5,0,0,1,1475.62,609.24Z"/><path d="M1490.09,598.74v16.79h-1.35V598.74Z"/><path d="M1494.19,606.55c0-1.06,0-2.07,0-3h1.22c0,.38.07,1.93,0,2.27a3.92,3.92,0,0,1,4-2.56c2.14,0,4,1.21,4,4.52v7.78h-1.25V608c0-2.12-.88-3.51-3-3.51-2.83,0-3.81,2.35-3.81,4.95v6.14h-1.25Z"/><path d="M1507.35,612.21a3.15,3.15,0,0,0,3.39,2.48c2.11,0,3-1,3-2.31s-.58-2-3.25-2.66c-3.11-.75-3.88-1.69-3.88-3.28s1.25-3.21,4-3.21,4,1.67,4.22,3.37h-1.25a2.8,2.8,0,0,0-3-2.23c-2.07,0-2.67,1-2.67,2s.57,1.64,2.94,2.21c3.4.82,4.24,1.93,4.24,3.73,0,2.18-1.77,3.54-4.32,3.54-2.76,0-4.3-1.45-4.63-3.61Z"/><path d="M1518.32,609.68c0,3.07,1.56,5,3.85,5a3.35,3.35,0,0,0,3.43-2.24h1.28a4.63,4.63,0,0,1-4.75,3.4c-3.66,0-5.09-3.14-5.09-6.2,0-3.44,1.71-6.39,5.23-6.39,3.71,0,4.89,3.19,4.89,5.47,0,.34,0,.67,0,1Zm7.54-1.08c0-2.35-1.3-4.21-3.64-4.21s-3.57,1.72-3.83,4.21Z"/><path d="M1539.06,612c-.57,2.11-2,3.83-4.67,3.83-3,0-5.15-2.24-5.15-6.24,0-3.3,1.76-6.35,5.29-6.35a4.3,4.3,0,0,1,4.53,3.86h-1.27a3.2,3.2,0,0,0-3.28-2.69c-2.53,0-4,2.14-4,5.13s1.33,5.13,3.83,5.13c1.74,0,2.79-.89,3.4-2.67Z"/><path d="M1540.33,603.52h2.23v-3.73h1.24v3.73h2.85v1.16h-2.85v7.77c0,1.33.29,2.09,1.44,2.09a4.46,4.46,0,0,0,1.24-.14v1.08a4.28,4.28,0,0,1-1.51.22c-1.55,0-2.41-.78-2.41-2.71v-8.31h-2.23Z"/><path d="M1549.1,597.85h1.25v2.34h-1.25Zm0,5.67h1.25v12h-1.25Z"/><path d="M1563.14,612c-.58,2.11-2,3.83-4.68,3.83-3,0-5.15-2.24-5.15-6.24,0-3.3,1.76-6.35,5.29-6.35a4.31,4.31,0,0,1,4.54,3.86h-1.27a3.22,3.22,0,0,0-3.29-2.69c-2.52,0-3.95,2.14-3.95,5.13s1.33,5.13,3.83,5.13c1.74,0,2.79-.89,3.41-2.67Z"/><path d="M1566.21,597.85h1.25v2.34h-1.25Zm0,5.67h1.25v12h-1.25Z"/><path d="M1580.68,597.85v14.23c0,1.15,0,2.25,0,3.45h-1.2c0-.29-.07-1.41-.07-2-.6,1.45-1.94,2.29-4,2.29-3.12,0-5-2.54-5-6.15s2-6.44,5.31-6.44c2.39,0,3.35,1,3.71,1.79v-7.17Zm-8.94,11.77c0,3.27,1.69,5,3.74,5,3.15,0,4-2.18,4-5.42,0-3.07-.74-4.84-3.79-4.84C1573.33,604.4,1571.74,606.28,1571.74,609.62Z"/><path d="M1584.92,609.68c0,3.07,1.56,5,3.85,5a3.35,3.35,0,0,0,3.43-2.24h1.27a4.62,4.62,0,0,1-4.75,3.4c-3.65,0-5.08-3.14-5.08-6.2,0-3.44,1.71-6.39,5.23-6.39,3.71,0,4.89,3.19,4.89,5.47,0,.34,0,.67,0,1Zm7.54-1.08c0-2.35-1.3-4.21-3.64-4.21s-3.57,1.72-3.83,4.21Z"/><path d="M1597,612.21a3.16,3.16,0,0,0,3.39,2.48c2.11,0,3-1,3-2.31s-.58-2-3.24-2.66c-3.12-.75-3.89-1.69-3.89-3.28s1.25-3.21,4-3.21,4,1.67,4.22,3.37h-1.25a2.8,2.8,0,0,0-3-2.23c-2.07,0-2.67,1-2.67,2s.58,1.64,3,2.21c3.4.82,4.23,1.93,4.23,3.73,0,2.18-1.77,3.54-4.32,3.54-2.76,0-4.29-1.45-4.63-3.61Z"/><path d="M1613.9,606.79c0-2,0-2.87,0-3.27h1.22c0,.38.05,1.16.05,2.68a4.54,4.54,0,0,1,4.17-3v1.34c-2.49.17-4.17,1.87-4.17,4.74v6.22h-1.25Z"/><path d="M1621.85,609.68c0,3.07,1.57,5,3.86,5a3.35,3.35,0,0,0,3.43-2.24h1.27a4.62,4.62,0,0,1-4.75,3.4c-3.66,0-5.08-3.14-5.08-6.2,0-3.44,1.71-6.39,5.22-6.39,3.71,0,4.89,3.19,4.89,5.47,0,.34,0,.67,0,1Zm7.55-1.08c0-2.35-1.31-4.21-3.64-4.21s-3.58,1.72-3.84,4.21Z"/><path d="M1642.6,612c-.57,2.11-2,3.83-4.68,3.83-3,0-5.15-2.24-5.15-6.24,0-3.3,1.76-6.35,5.3-6.35a4.3,4.3,0,0,1,4.53,3.86h-1.27a3.21,3.21,0,0,0-3.29-2.69c-2.52,0-4,2.14-4,5.13s1.34,5.13,3.83,5.13c1.74,0,2.79-.89,3.41-2.67Z"/><path d="M1645.68,597.85h1.24v2.34h-1.24Zm0,5.67h1.24v12h-1.24Z"/><path d="M1652.08,613.77v6.56h-1.24V606.47c0-1,0-2,0-3H1652c0,.45,0,1.18,0,2.15a4.4,4.4,0,0,1,4.21-2.44c2.84,0,4.81,2.38,4.81,6,0,4.33-2.31,6.61-5.22,6.61A3.92,3.92,0,0,1,1652.08,613.77Zm7.7-4.51c0-2.77-1.34-4.84-3.7-4.84-2.88,0-4.07,1.81-4.07,5.06s.93,5.18,3.91,5.18C1658.4,614.66,1659.78,612.56,1659.78,609.26Z"/><path d="M1664.54,609.68c0,3.07,1.57,5,3.86,5a3.35,3.35,0,0,0,3.43-2.24h1.27a4.62,4.62,0,0,1-4.75,3.4c-3.65,0-5.08-3.14-5.08-6.2,0-3.44,1.71-6.39,5.23-6.39,3.71,0,4.89,3.19,4.89,5.47,0,.34,0,.67,0,1Zm7.55-1.08c0-2.35-1.3-4.21-3.64-4.21s-3.57,1.72-3.83,4.21Z"/><path d="M1475.62,638a3.58,3.58,0,1,1,3.58,3.53A3.5,3.5,0,0,1,1475.62,638Z"/><path d="M1488.74,627.54h6c3.08,0,5.2,1.71,5.2,4.69s-2.1,4.81-5.36,4.81h-4.49v7.29h-1.37Zm1.37,8.26h4.59c2.69,0,3.82-1.42,3.82-3.53s-1.48-3.5-3.72-3.5h-4.69Z"/><path d="M1502.83,644.33V626.65h1.25v17.68Z"/><path d="M1516.1,642a14.1,14.1,0,0,0,.17,2.3h-1.2a7.35,7.35,0,0,1-.21-1.83c-.41.88-1.47,2.12-3.93,2.12-2.79,0-4-1.8-4-3.61,0-2.64,2-3.84,5.64-3.84h2.27V636c0-1.19-.36-2.78-3.07-2.78-2.4,0-2.76,1.25-3,2.24h-1.25c.15-1.34,1-3.38,4.3-3.38,2.75,0,4.29,1.16,4.29,3.81Zm-1.22-3.81h-2.34c-2.65,0-4.28.7-4.28,2.74a2.49,2.49,0,0,0,2.74,2.53c3.4,0,3.88-2.27,3.88-4.84Z"/><path d="M1520,635.35c0-1.06,0-2.07,0-3h1.22c0,.38.07,1.93,0,2.27a3.9,3.9,0,0,1,4-2.56c2.15,0,4,1.21,4,4.52v7.78h-1.25v-7.58c0-2.12-.88-3.51-3-3.51-2.82,0-3.8,2.35-3.8,5v6.14H1520Z"/><path d="M1531.36,632.32h2.22v-3.73h1.25v3.73h2.85v1.16h-2.85v7.77c0,1.33.29,2.09,1.44,2.09a4.43,4.43,0,0,0,1.23-.14v1.08a4.22,4.22,0,0,1-1.5.22c-1.56,0-2.42-.78-2.42-2.71v-8.31h-2.22Z"/><path d="M1555.24,640.79c-.57,2.11-2,3.83-4.68,3.83-3,0-5.15-2.24-5.15-6.24,0-3.3,1.76-6.35,5.3-6.35a4.3,4.3,0,0,1,4.53,3.86H1554a3.21,3.21,0,0,0-3.29-2.69c-2.52,0-4,2.14-4,5.13s1.34,5.13,3.84,5.13c1.73,0,2.78-.89,3.4-2.67Z"/><path d="M1566.38,642a13,13,0,0,0,.17,2.3h-1.2a7.69,7.69,0,0,1-.22-1.83c-.41.88-1.46,2.12-3.92,2.12-2.79,0-4-1.8-4-3.61,0-2.64,2-3.84,5.64-3.84h2.27V636c0-1.19-.36-2.78-3.07-2.78-2.4,0-2.76,1.25-3,2.24h-1.25c.15-1.34,1-3.38,4.3-3.38,2.75,0,4.29,1.16,4.29,3.81Zm-1.22-3.81h-2.34c-2.65,0-4.28.7-4.28,2.74a2.49,2.49,0,0,0,2.74,2.53c3.4,0,3.88-2.27,3.88-4.84Z"/><path d="M1570.32,635.59c0-2,0-2.87,0-3.27h1.23c0,.38,0,1.16,0,2.68a4.54,4.54,0,0,1,4.17-3v1.34c-2.5.17-4.17,1.87-4.17,4.74v6.22h-1.25Z"/><path d="M1578.27,638.48c0,3.07,1.56,5,3.85,5a3.35,3.35,0,0,0,3.43-2.24h1.28a4.63,4.63,0,0,1-4.75,3.4c-3.66,0-5.09-3.14-5.09-6.2,0-3.44,1.72-6.39,5.23-6.39,3.71,0,4.89,3.19,4.89,5.47,0,.34,0,.67,0,1Zm7.54-1.08c0-2.35-1.3-4.21-3.64-4.21s-3.57,1.72-3.83,4.21Z"/><path d="M1605.57,626.65v14.23c0,1.15,0,2.25,0,3.45h-1.2c-.05-.29-.08-1.41-.08-2-.6,1.46-1.94,2.29-4,2.29-3.12,0-5-2.54-5-6.15s2-6.44,5.31-6.44c2.38,0,3.34,1,3.7,1.79v-7.17Zm-8.94,11.77c0,3.27,1.68,5,3.74,5,3.15,0,4-2.18,4-5.42,0-3.07-.73-4.84-3.79-4.84C1598.22,633.2,1596.63,635.08,1596.63,638.42Z"/><path d="M1609.48,626.65h1.25V629h-1.25Zm0,5.67h1.25v12h-1.25Z"/><path d="M1614.58,641a3.15,3.15,0,0,0,3.38,2.48c2.12,0,3-1,3-2.31s-.58-2-3.25-2.66c-3.11-.75-3.88-1.69-3.88-3.28s1.25-3.21,4-3.21,4,1.67,4.23,3.37h-1.25a2.8,2.8,0,0,0-3-2.23c-2.06,0-2.66,1-2.66,2s.57,1.64,2.94,2.21c3.4.82,4.24,1.93,4.24,3.73,0,2.18-1.77,3.54-4.32,3.54-2.76,0-4.3-1.45-4.63-3.61Z"/><path d="M1634.1,640.79c-.57,2.11-2,3.83-4.67,3.83-3,0-5.16-2.24-5.16-6.24,0-3.3,1.77-6.35,5.3-6.35a4.3,4.3,0,0,1,4.53,3.86h-1.27a3.2,3.2,0,0,0-3.28-2.69c-2.53,0-4,2.14-4,5.13s1.34,5.13,3.84,5.13c1.74,0,2.78-.89,3.4-2.67Z"/><path d="M1645.77,640.83c0,1.17,0,3,0,3.5h-1.2a18.68,18.68,0,0,1-.07-2.07c-.51,1.41-1.73,2.36-3.86,2.36-1.74,0-3.94-.69-3.94-4.35v-7.95H1638V640c0,1.75.55,3.44,2.91,3.44,2.66,0,3.66-1.5,3.66-4.91v-6.18h1.25Z"/><path d="M1649.6,641a3.15,3.15,0,0,0,3.38,2.48c2.12,0,3-1,3-2.31s-.57-2-3.24-2.66c-3.12-.75-3.88-1.69-3.88-3.28s1.25-3.21,4-3.21,4,1.67,4.22,3.37h-1.24a2.82,2.82,0,0,0-3-2.23c-2.07,0-2.66,1-2.66,2s.57,1.64,2.94,2.21c3.4.82,4.23,1.93,4.23,3.73,0,2.18-1.77,3.54-4.32,3.54-2.75,0-4.29-1.45-4.63-3.61Z"/><path d="M1660.59,641a3.15,3.15,0,0,0,3.38,2.48c2.12,0,3-1,3-2.31s-.58-2-3.25-2.66c-3.12-.75-3.88-1.69-3.88-3.28s1.25-3.21,4-3.21,4,1.67,4.22,3.37h-1.24a2.82,2.82,0,0,0-3-2.23c-2.06,0-2.66,1-2.66,2s.57,1.64,2.94,2.21c3.4.82,4.24,1.93,4.24,3.73,0,2.18-1.78,3.54-4.32,3.54-2.76,0-4.3-1.45-4.63-3.61Z"/><path d="M1671.24,626.65h1.24V629h-1.24Zm0,5.67h1.24v12h-1.24Z"/><path d="M1686.16,638.3c0,3.35-1.86,6.32-5.44,6.32-3.26,0-5.28-2.67-5.28-6.29,0-3.44,1.91-6.3,5.4-6.3C1684,632,1686.16,634.53,1686.16,638.3Zm-9.4,0c0,2.84,1.53,5.13,4,5.13s4-2.12,4-5.13c0-2.83-1.43-5.13-4.08-5.13S1676.76,635.45,1676.76,638.33Z"/><path d="M1689.12,635.35c0-1.06,0-2.07,0-3h1.23c0,.38.07,1.93,0,2.27a3.9,3.9,0,0,1,4-2.56c2.15,0,4,1.21,4,4.52v7.78h-1.25v-7.58c0-2.12-.88-3.51-3-3.51-2.82,0-3.8,2.35-3.8,5v6.14h-1.25Z"/><path d="M1475.62,666.84a3.58,3.58,0,1,1,3.58,3.53A3.5,3.5,0,0,1,1475.62,666.84Z"/><path d="M1488.74,656.34h5.89c3.23,0,5,1.71,5,4.13a3.64,3.64,0,0,1-2.58,3.67,4.23,4.23,0,0,1,3.17,4.14c0,3.35-2.51,4.85-5.45,4.85h-6Zm5.46,7.2c2.88,0,4-1.07,4-3,0-1.64-1.14-3-3.48-3h-4.63v6Zm-4.14,8.36h4.7c2.2,0,4-1.1,4-3.55,0-2.12-1.36-3.57-4.71-3.57h-4Z"/><path d="M1512.31,669.62c0,1.18,0,3,0,3.51h-1.2a18.68,18.68,0,0,1-.07-2.07c-.51,1.41-1.73,2.36-3.86,2.36-1.74,0-3.94-.69-3.94-4.35v-8h1.23v7.65c0,1.75.55,3.44,2.9,3.44,2.67,0,3.67-1.5,3.67-4.91v-6.18h1.25Z"/><path d="M1516.22,673.13V655.45h1.25v17.68Z"/><path d="M1521.38,673.13V655.45h1.25v17.68Z"/><path d="M1526.86,667.28c0,3.07,1.57,5,3.86,5a3.35,3.35,0,0,0,3.43-2.24h1.27a4.62,4.62,0,0,1-4.75,3.4c-3.66,0-5.08-3.14-5.08-6.2,0-3.44,1.71-6.39,5.22-6.39,3.71,0,4.89,3.19,4.89,5.47,0,.34,0,.67,0,1Zm7.55-1.07c0-2.36-1.31-4.22-3.64-4.22s-3.58,1.72-3.84,4.22Z"/><path d="M1537,661.12h2.22v-3.73h1.25v3.73h2.85v1.16h-2.85v7.77c0,1.33.29,2.09,1.44,2.09a4.46,4.46,0,0,0,1.24-.14v1.08a4.31,4.31,0,0,1-1.51.22c-1.55,0-2.42-.78-2.42-2.71v-8.31H1537Z"/><path d="M1545.79,655.45H1547v2.34h-1.25Zm0,5.67H1547v12h-1.25Z"/><path d="M1551,664.15c0-1.06,0-2.07,0-3h1.22c0,.38.07,1.93,0,2.27a3.91,3.91,0,0,1,4-2.56c2.14,0,4,1.21,4,4.52v7.78H1559v-7.58c0-2.12-.88-3.51-3-3.51-2.83,0-3.81,2.35-3.81,5v6.14H1551Z"/><path d="M1570.37,655.45h1.24v7.67a4.15,4.15,0,0,1,4.1-2.29c2.84,0,4.92,2.34,4.92,6s-1.87,6.56-5.24,6.56a3.72,3.72,0,0,1-3.78-2.17c0,.76,0,1.55,0,1.88h-1.22c0-1.37,0-2.73,0-4.1Zm8.94,11.44c0-3-1.47-4.89-3.74-4.89-3,0-4,2-4,5.15,0,2.82.93,5.11,3.88,5.11C1577.83,672.26,1579.31,670.25,1579.31,666.89Z"/><path d="M1593.49,667.1c0,3.35-1.85,6.32-5.44,6.32-3.25,0-5.27-2.67-5.27-6.29,0-3.44,1.9-6.3,5.39-6.3C1591.38,660.83,1593.49,663.33,1593.49,667.1Zm-9.39,0c0,2.84,1.52,5.13,4.05,5.13s4-2.12,4-5.13c0-2.83-1.43-5.13-4.07-5.13S1584.1,664.25,1584.1,667.13Z"/><path d="M1604.73,670.83a14.1,14.1,0,0,0,.17,2.3h-1.2a7.9,7.9,0,0,1-.21-1.83c-.41.88-1.46,2.12-3.93,2.12-2.79,0-4-1.8-4-3.61,0-2.64,2-3.84,5.64-3.84h2.27v-1.22c0-1.19-.36-2.78-3.07-2.78-2.4,0-2.76,1.25-3,2.24h-1.25c.15-1.34,1-3.38,4.3-3.38,2.75,0,4.29,1.16,4.29,3.81Zm-1.22-3.81h-2.33c-2.65,0-4.29.7-4.29,2.74a2.49,2.49,0,0,0,2.74,2.53c3.4,0,3.88-2.27,3.88-4.84Z"/><path d="M1608.67,664.39c0-2,0-2.87,0-3.27h1.22c0,.38.05,1.16.05,2.68a4.54,4.54,0,0,1,4.17-3v1.34c-2.5.17-4.17,1.87-4.17,4.74v6.22h-1.25Z"/><path d="M1625.61,655.45v14.23c0,1.15,0,2.25,0,3.45h-1.2c0-.29-.08-1.41-.08-2-.6,1.45-1.93,2.29-4,2.29-3.12,0-5-2.54-5-6.15s2-6.44,5.31-6.44c2.38,0,3.35,1,3.7,1.79v-7.17Zm-8.94,11.77c0,3.27,1.69,5,3.74,5,3.15,0,4-2.18,4-5.42,0-3.07-.73-4.84-3.79-4.84C1618.26,662,1616.67,663.88,1616.67,667.22Z"/><path d="M1145.62,522.84a3.58,3.58,0,1,1,3.58,3.53A3.5,3.5,0,0,1,1145.62,522.84Z"/><path d="M1158.74,512.34h1.35v15.55h9l-.25,1.24h-10.11Z"/><path d="M1181.32,523.1c0,3.35-1.86,6.32-5.44,6.32-3.26,0-5.28-2.67-5.28-6.29,0-3.44,1.91-6.3,5.4-6.3C1179.2,516.83,1181.32,519.33,1181.32,523.1Zm-9.4,0c0,2.84,1.53,5.13,4,5.13s4-2.12,4-5.13c0-2.83-1.43-5.13-4.07-5.13S1171.92,520.25,1171.92,523.13Z"/><path d="M1184.29,517.12c1.76,6.17,2.78,9.7,3,10.77h0c.19-1,1.37-4.7,3.24-10.77h1.33c2.22,7.39,2.88,9.52,3.1,10.46h0c.34-1.32.89-3.12,3.08-10.46h1.32l-3.79,12h-1.38c-1.29-4.26-2.82-9.41-3.07-10.52h0c-.24,1.18-1.59,5.45-3.14,10.52h-1.49l-3.53-12Z"/><path d="M1208.66,512.34h10.21v1.23H1210v6.29h8.31v1.24H1210v8h-1.35Z"/><path d="M1221.46,511.45h1.24v2.34h-1.24Zm0,5.67h1.24v12h-1.24Z"/><path d="M1235.93,511.45v14.23c0,1.15,0,2.25,0,3.45h-1.2c0-.29-.07-1.41-.07-2-.6,1.45-1.94,2.29-4,2.29-3.12,0-5-2.54-5-6.15s2-6.44,5.31-6.44c2.39,0,3.35,1,3.71,1.79v-7.17Zm-9,11.77c0,3.27,1.69,5,3.74,5,3.16,0,4-2.18,4-5.42,0-3.07-.74-4.84-3.79-4.84C1228.57,518,1227,519.88,1227,523.22Z"/><path d="M1240.16,523.28c0,3.07,1.56,5,3.85,5a3.35,3.35,0,0,0,3.43-2.24h1.27a4.62,4.62,0,0,1-4.75,3.4c-3.65,0-5.08-3.14-5.08-6.2,0-3.44,1.71-6.39,5.23-6.39,3.71,0,4.89,3.19,4.89,5.47,0,.34,0,.67,0,1Zm7.54-1.08c0-2.35-1.3-4.21-3.64-4.21s-3.57,1.72-3.83,4.21Z"/><path d="M1252,529.13V511.45h1.24v17.68Z"/><path d="M1257.17,511.45h1.24v2.34h-1.24Zm0,5.67h1.24v12h-1.24Z"/><path d="M1260.71,517.12h2.22v-3.73h1.25v3.73H1267v1.16h-2.85v7.77c0,1.33.29,2.09,1.44,2.09a4.54,4.54,0,0,0,1.24-.14v1.08a4.31,4.31,0,0,1-1.51.22c-1.56,0-2.42-.78-2.42-2.71v-8.31h-2.22Z"/><path d="M1269.94,517.12c2.4,6.81,3.46,9.66,3.86,11h0c.47-1.46,1.43-4.25,3.74-11h1.29l-4.5,12.7c-1.27,3.55-2.14,4.35-4.32,4.35a7.78,7.78,0,0,1-1.11-.07v-1.24a7.37,7.37,0,0,0,1.07.08c1.72,0,2.27-.84,3.15-3.28l-4.58-12.54Z"/><path d="M1287.77,512.34h6c3.09,0,5.2,1.71,5.2,4.69s-2.1,4.81-5.36,4.81h-4.49v7.29h-1.36Zm1.36,8.26h4.6c2.69,0,3.81-1.42,3.81-3.53s-1.48-3.5-3.72-3.5h-4.69Z"/><path d="M1301.56,520.39c0-2,0-2.87,0-3.27h1.22c0,.38,0,1.16,0,2.68a4.56,4.56,0,0,1,4.18-3v1.34c-2.5.17-4.18,1.87-4.18,4.74v6.22h-1.25Z"/><path d="M1319,523.1c0,3.35-1.86,6.32-5.44,6.32-3.26,0-5.28-2.67-5.28-6.29,0-3.44,1.91-6.3,5.4-6.3C1316.84,516.83,1319,519.33,1319,523.1Zm-9.4,0c0,2.84,1.53,5.13,4,5.13s4-2.12,4-5.13c0-2.83-1.43-5.13-4.08-5.13S1309.56,520.25,1309.56,523.13Z"/><path d="M1320.13,517.12h2.22v-3.73h1.25v3.73h2.85v1.16h-2.85v7.77c0,1.33.29,2.09,1.44,2.09a4.46,4.46,0,0,0,1.24-.14v1.08a4.28,4.28,0,0,1-1.51.22c-1.55,0-2.42-.78-2.42-2.71v-8.31h-2.22Z"/><path d="M1338.52,523.1c0,3.35-1.86,6.32-5.44,6.32-3.26,0-5.28-2.67-5.28-6.29,0-3.44,1.91-6.3,5.4-6.3C1336.4,516.83,1338.52,519.33,1338.52,523.1Zm-9.4,0c0,2.84,1.53,5.13,4.05,5.13s4-2.12,4-5.13c0-2.83-1.43-5.13-4.08-5.13S1329.12,520.25,1329.12,523.13Z"/><path d="M1339.69,517.12h2.22v-3.73h1.25v3.73H1346v1.16h-2.85v7.77c0,1.33.29,2.09,1.44,2.09a4.46,4.46,0,0,0,1.24-.14v1.08a4.31,4.31,0,0,1-1.51.22c-1.55,0-2.42-.78-2.42-2.71v-8.31h-2.22Z"/><path d="M1348.92,517.12c2.4,6.81,3.46,9.66,3.86,11h0c.47-1.46,1.43-4.25,3.74-11h1.29l-4.5,12.7c-1.27,3.55-2.14,4.35-4.32,4.35a7.87,7.87,0,0,1-1.11-.07v-1.24a7.48,7.48,0,0,0,1.07.08c1.72,0,2.28-.84,3.15-3.28l-4.58-12.54Z"/><path d="M1361.61,527.37v6.56h-1.25V520.07c0-1,0-2,0-3h1.22c0,.45,0,1.18,0,2.15a4.4,4.4,0,0,1,4.21-2.44c2.83,0,4.81,2.38,4.81,6,0,4.33-2.31,6.61-5.22,6.61A3.92,3.92,0,0,1,1361.61,527.37Zm7.7-4.51c0-2.77-1.34-4.84-3.7-4.84-2.88,0-4.07,1.81-4.07,5.06s.93,5.18,3.9,5.18C1367.92,528.26,1369.31,526.16,1369.31,522.86Z"/><path d="M1373.71,511.45H1375v2.34h-1.25Zm0,5.67H1375v12h-1.25Z"/><path d="M1378.87,520.15c0-1.06,0-2.07,0-3h1.23c0,.38.07,1.93,0,2.27a3.89,3.89,0,0,1,4-2.56c2.15,0,4,1.21,4,4.52v7.78h-1.25v-7.58c0-2.12-.88-3.51-3-3.51-2.82,0-3.8,2.35-3.8,5v6.14h-1.25Z"/><path d="M1401.26,528.3c0,3.84-1.7,5.87-5.21,5.87-3.15,0-4.44-1.77-4.72-3.58h1.27a3.29,3.29,0,0,0,3.5,2.42c3.1,0,4-2,4-5v-1.24c-.65,1.55-1.82,2.39-4,2.39-2.82,0-5-2.29-5-6,0-4,2.3-6.3,5.14-6.3,2.44,0,3.49,1.15,3.83,2.1,0-.68,0-1.52.07-1.81h1.17c0,.45,0,2.33,0,3.48Zm-8.85-5.22c0,2.84,1.5,4.88,3.79,4.88,3,0,3.88-2,3.88-5.07s-.94-4.89-3.81-4.89S1392.41,520.35,1392.41,523.08Z"/><path d="M1145.62,551.64a3.58,3.58,0,1,1,3.58,3.53A3.49,3.49,0,0,1,1145.62,551.64Z"/><path d="M1173.27,550.24c0-3.28,0-6.43.1-8.11h-.07c-.68,2.28-4,10.5-6.17,15.8h-1.31c-1.6-4.11-5.09-13.26-5.86-15.83h0c.12,1.93.17,5.83.17,8.71v7.12h-1.34V541.14h2c2.28,5.73,5.16,13.22,5.78,15.12h0c.39-1.24,3.72-9.56,6.05-15.12h2v16.79h-1.35Z"/><path d="M1178.93,540.25h1.25v2.34h-1.25Zm0,5.67h1.25v12h-1.25Z"/><path d="M1193.4,540.25v14.23c0,1.15,0,2.25,0,3.45h-1.2c0-.29-.07-1.41-.07-2-.6,1.45-1.94,2.29-4,2.29-3.12,0-5-2.54-5-6.15s2-6.44,5.31-6.44c2.39,0,3.35,1,3.71,1.79v-7.17Zm-9,11.77c0,3.27,1.69,5,3.75,5,3.15,0,4-2.18,4-5.42,0-3.07-.74-4.84-3.79-4.84C1186.05,546.8,1184.45,548.68,1184.45,552Z"/><path d="M1203.94,541.14h10.2v1.23h-8.86v6.29h8.31v1.24h-8.31v8h-1.34Z"/><path d="M1216.73,540.25H1218v2.34h-1.24Zm0,5.67H1218v12h-1.24Z"/><path d="M1231.2,540.25v14.23c0,1.15,0,2.25,0,3.45H1230c0-.29-.07-1.41-.07-2-.6,1.45-1.94,2.29-4,2.29-3.12,0-5-2.54-5-6.15s2-6.44,5.31-6.44c2.39,0,3.35,1,3.71,1.79v-7.17Zm-9,11.77c0,3.27,1.69,5,3.75,5,3.15,0,4-2.18,4-5.42,0-3.07-.74-4.84-3.79-4.84C1223.85,546.8,1222.25,548.68,1222.25,552Z"/><path d="M1235.43,552.08c0,3.07,1.56,5,3.86,5a3.35,3.35,0,0,0,3.42-2.24H1244a4.63,4.63,0,0,1-4.75,3.4c-3.66,0-5.09-3.14-5.09-6.2,0-3.44,1.72-6.39,5.23-6.39,3.71,0,4.89,3.19,4.89,5.47,0,.34,0,.67,0,1ZM1243,551c0-2.35-1.3-4.21-3.64-4.21s-3.57,1.72-3.83,4.21Z"/><path d="M1247.28,557.93V540.25h1.25v17.68Z"/><path d="M1252.44,540.25h1.25v2.34h-1.25Zm0,5.67h1.25v12h-1.25Z"/><path d="M1256,545.92h2.22v-3.73h1.25v3.73h2.85v1.16h-2.85v7.77c0,1.33.29,2.09,1.44,2.09a4.46,4.46,0,0,0,1.24-.14v1.08a4.31,4.31,0,0,1-1.51.22c-1.55,0-2.42-.78-2.42-2.71v-8.31H1256Z"/><path d="M1265.21,545.92c2.4,6.81,3.46,9.66,3.86,11h0c.47-1.46,1.43-4.25,3.74-11h1.29l-4.5,12.7c-1.27,3.55-2.14,4.35-4.32,4.35a7.78,7.78,0,0,1-1.11-.07v-1.24a7.37,7.37,0,0,0,1.07.08c1.72,0,2.27-.84,3.15-3.28l-4.58-12.54Z"/><path d="M1283,541.14h6c3.09,0,5.21,1.71,5.21,4.69s-2.11,4.81-5.37,4.81h-4.48v7.29H1283Zm1.37,8.26H1289c2.69,0,3.81-1.42,3.81-3.53s-1.48-3.5-3.72-3.5h-4.68Z"/><path d="M1296.84,549.19c0-2,0-2.87,0-3.27H1298c0,.38,0,1.16,0,2.68a4.56,4.56,0,0,1,4.18-3V547c-2.5.17-4.18,1.87-4.18,4.74v6.22h-1.24Z"/><path d="M1314.23,551.9c0,3.35-1.86,6.32-5.44,6.32-3.26,0-5.28-2.67-5.28-6.29,0-3.44,1.91-6.3,5.4-6.3C1312.11,545.63,1314.23,548.13,1314.23,551.9Zm-9.4,0c0,2.84,1.53,5.13,4.05,5.13s4-2.12,4-5.13c0-2.83-1.43-5.14-4.08-5.14S1304.83,549.05,1304.83,551.93Z"/><path d="M1315.4,545.92h2.23v-3.73h1.25v3.73h2.84v1.16h-2.84v7.77c0,1.33.28,2.09,1.43,2.09a4.46,4.46,0,0,0,1.24-.14v1.08a4.28,4.28,0,0,1-1.51.22c-1.55,0-2.41-.78-2.41-2.71v-8.31h-2.23Z"/><path d="M1333.79,551.9c0,3.35-1.86,6.32-5.44,6.32-3.26,0-5.28-2.67-5.28-6.29,0-3.44,1.91-6.3,5.4-6.3C1331.67,545.63,1333.79,548.13,1333.79,551.9Zm-9.4,0c0,2.84,1.53,5.13,4,5.13s4-2.12,4-5.13c0-2.83-1.43-5.14-4.08-5.14S1324.39,549.05,1324.39,551.93Z"/><path d="M1335,545.92h2.23v-3.73h1.24v3.73h2.85v1.16h-2.85v7.77c0,1.33.29,2.09,1.44,2.09a4.46,4.46,0,0,0,1.24-.14v1.08a4.28,4.28,0,0,1-1.51.22c-1.55,0-2.41-.78-2.41-2.71v-8.31H1335Z"/><path d="M1344.19,545.92c2.4,6.81,3.46,9.66,3.86,11h0c.47-1.46,1.43-4.25,3.74-11h1.29l-4.5,12.7c-1.27,3.55-2.14,4.35-4.32,4.35a8,8,0,0,1-1.11-.07v-1.24a7.48,7.48,0,0,0,1.07.08c1.72,0,2.28-.84,3.16-3.28l-4.59-12.54Z"/><path d="M1356.88,556.17v6.56h-1.25V548.88c0-1,0-2,0-3h1.22c.05.46.05,1.18.05,2.15a4.4,4.4,0,0,1,4.21-2.44c2.83,0,4.81,2.38,4.81,6,0,4.33-2.31,6.61-5.22,6.61A3.92,3.92,0,0,1,1356.88,556.17Zm7.7-4.51c0-2.77-1.34-4.84-3.7-4.84-2.88,0-4.07,1.81-4.07,5.06s.93,5.18,3.9,5.18C1363.2,557.06,1364.58,555,1364.58,551.66Z"/><path d="M1369,540.25h1.25v2.34H1369Zm0,5.67h1.25v12H1369Z"/><path d="M1374.14,549c0-1.06,0-2.07,0-3h1.23c.05.38.07,1.93.05,2.27a3.9,3.9,0,0,1,4-2.56c2.15,0,4,1.21,4,4.52v7.78h-1.25v-7.58c0-2.12-.88-3.51-3-3.51-2.82,0-3.8,2.35-3.8,4.95v6.14h-1.25Z"/><path d="M1396.53,557.1c0,3.84-1.7,5.87-5.21,5.87-3.15,0-4.44-1.77-4.72-3.58h1.27a3.29,3.29,0,0,0,3.5,2.42c3.1,0,4-2,4-5v-1.24c-.65,1.55-1.82,2.39-4,2.39-2.82,0-5-2.29-5-6,0-4,2.3-6.3,5.14-6.3,2.44,0,3.5,1.15,3.83,2.1,0-.68.05-1.52.07-1.81h1.18c0,.45,0,2.33,0,3.48Zm-8.85-5.22c0,2.84,1.5,4.88,3.79,4.88,3,0,3.88-2,3.88-5.07s-.94-4.89-3.81-4.89S1387.68,549.15,1387.68,551.88Z"/><path d="M1145.62,580.44a3.58,3.58,0,1,1,3.58,3.53A3.5,3.5,0,0,1,1145.62,580.44Z"/><path d="M1158.74,569.94h1.35v7.3h10v-7.3h1.34v16.79h-1.34v-8.26h-10v8.26h-1.35Z"/><path d="M1175.62,569h1.24v2.35h-1.24Zm0,5.68h1.24v12h-1.24Z"/><path d="M1190,585.9c0,3.84-1.7,5.87-5.21,5.87-3.15,0-4.43-1.77-4.72-3.58h1.27a3.29,3.29,0,0,0,3.5,2.42c3.11,0,4-2,4-5v-1.24c-.65,1.55-1.82,2.39-4,2.39-2.82,0-5-2.29-5-6,0-4,2.3-6.3,5.14-6.3,2.44,0,3.5,1.15,3.83,2.1,0-.68,0-1.52.07-1.81H1190c0,.45,0,2.33,0,3.48Zm-8.85-5.22c0,2.84,1.5,4.88,3.79,4.88,3,0,3.89-2,3.89-5.07s-1-4.89-3.82-4.89S1181.14,578,1181.14,580.68Z"/><path d="M1195.15,569v7.69a4.18,4.18,0,0,1,3.95-2.3c1.72,0,4.06.88,4.06,4.66v7.64h-1.25v-7.39c0-2.36-1.07-3.7-3.05-3.7-2.36,0-3.71,1.47-3.71,4.4v6.69h-1.25V569Z"/><path d="M1213.7,569.94h10.21v1.23h-8.86v6.29h8.31v1.24h-8.31v8h-1.35Z"/><path d="M1226.49,569h1.25v2.35h-1.25Zm0,5.68h1.25v12h-1.25Z"/><path d="M1241,569v14.24c0,1.15,0,2.25,0,3.45h-1.2c0-.29-.07-1.41-.07-2-.6,1.45-1.94,2.29-4,2.29-3.13,0-5-2.54-5-6.15s2-6.44,5.31-6.44c2.39,0,3.35,1,3.71,1.79V569ZM1232,580.82c0,3.27,1.69,5,3.74,5,3.16,0,4-2.18,4-5.42,0-3.07-.74-4.84-3.79-4.84C1233.61,575.6,1232,577.48,1232,580.82Z"/><path d="M1245.2,580.88c0,3.07,1.56,5,3.85,5a3.35,3.35,0,0,0,3.43-2.24h1.27A4.62,4.62,0,0,1,1249,587c-3.65,0-5.08-3.14-5.08-6.2,0-3.44,1.71-6.39,5.23-6.39,3.71,0,4.89,3.19,4.89,5.47,0,.34,0,.67,0,1Zm7.54-1.08c0-2.35-1.3-4.21-3.64-4.21s-3.57,1.72-3.83,4.21Z"/><path d="M1257,586.73V569h1.25v17.69Z"/><path d="M1262.21,569h1.24v2.35h-1.24Zm0,5.68h1.24v12h-1.24Z"/><path d="M1265.75,574.72H1268V571h1.25v3.73h2.85v1.16h-2.85v7.77c0,1.33.29,2.09,1.44,2.09a4.43,4.43,0,0,0,1.23-.14v1.08a4.22,4.22,0,0,1-1.5.22c-1.56,0-2.42-.78-2.42-2.71v-8.31h-2.22Z"/><path d="M1275,574.72c2.4,6.81,3.46,9.66,3.86,11h0c.48-1.46,1.43-4.25,3.74-11h1.3l-4.51,12.7c-1.27,3.55-2.13,4.35-4.31,4.35a8,8,0,0,1-1.12-.07v-1.24a7.62,7.62,0,0,0,1.08.08c1.72,0,2.27-.83,3.15-3.28l-4.58-12.54Z"/><path d="M1292.8,569.94h6c3.09,0,5.2,1.71,5.2,4.68s-2.1,4.82-5.36,4.82h-4.49v7.29h-1.37Zm1.37,8.26h4.59c2.69,0,3.82-1.42,3.82-3.53s-1.48-3.5-3.72-3.5h-4.69Z"/><path d="M1306.6,578c0-2,0-2.87,0-3.27h1.22c0,.38,0,1.16,0,2.68a4.55,4.55,0,0,1,4.17-3v1.34c-2.49.17-4.17,1.87-4.17,4.74v6.22h-1.25Z"/><path d="M1324,580.7c0,3.35-1.86,6.32-5.45,6.32-3.25,0-5.27-2.67-5.27-6.29,0-3.44,1.91-6.3,5.4-6.3C1321.88,574.43,1324,576.93,1324,580.7Zm-9.4,0c0,2.84,1.52,5.13,4.05,5.13s4-2.12,4-5.13c0-2.83-1.43-5.13-4.08-5.13S1314.6,577.85,1314.6,580.73Z"/><path d="M1325.17,574.72h2.22V571h1.25v3.73h2.85v1.16h-2.85v7.77c0,1.33.29,2.09,1.44,2.09a4.46,4.46,0,0,0,1.24-.14v1.08a4.31,4.31,0,0,1-1.51.22c-1.55,0-2.42-.78-2.42-2.71v-8.31h-2.22Z"/><path d="M1343.56,580.7c0,3.35-1.86,6.32-5.44,6.32-3.26,0-5.28-2.67-5.28-6.29,0-3.44,1.91-6.3,5.4-6.3C1341.44,574.43,1343.56,576.93,1343.56,580.7Zm-9.4,0c0,2.84,1.53,5.13,4,5.13s4-2.12,4-5.13c0-2.83-1.43-5.13-4.08-5.13S1334.16,577.85,1334.16,580.73Z"/><path d="M1344.73,574.72H1347V571h1.25v3.73h2.85v1.16h-2.85v7.77c0,1.33.29,2.09,1.44,2.09a4.46,4.46,0,0,0,1.24-.14v1.08a4.31,4.31,0,0,1-1.51.22c-1.55,0-2.42-.78-2.42-2.71v-8.31h-2.22Z"/><path d="M1354,574.72c2.4,6.81,3.46,9.66,3.86,11h0c.47-1.46,1.43-4.25,3.74-11h1.29l-4.5,12.7c-1.27,3.55-2.14,4.35-4.32,4.35a7.87,7.87,0,0,1-1.11-.07v-1.24a7.37,7.37,0,0,0,1.07.08c1.72,0,2.27-.83,3.15-3.28l-4.58-12.54Z"/><path d="M1366.65,585v6.56h-1.25V577.67c0-1,0-2,0-2.95h1.22c.05.45.05,1.18.05,2.15a4.4,4.4,0,0,1,4.21-2.44c2.83,0,4.81,2.38,4.81,6,0,4.33-2.31,6.61-5.22,6.61A3.92,3.92,0,0,1,1366.65,585Zm7.7-4.51c0-2.77-1.34-4.84-3.7-4.84-2.88,0-4.07,1.81-4.07,5.06s.93,5.18,3.9,5.18C1373,585.86,1374.35,583.76,1374.35,580.46Z"/><path d="M1378.75,569H1380v2.35h-1.24Zm0,5.68H1380v12h-1.24Z"/><path d="M1383.91,577.75c0-1.06,0-2.07,0-3h1.23c0,.38.07,1.93.05,2.27a3.9,3.9,0,0,1,4-2.56c2.15,0,4,1.21,4,4.52v7.78h-1.25v-7.58c0-2.12-.88-3.51-3-3.51-2.82,0-3.8,2.35-3.8,5v6.14h-1.25Z"/><path d="M1406.3,585.9c0,3.84-1.7,5.87-5.21,5.87-3.15,0-4.44-1.77-4.72-3.58h1.27a3.29,3.29,0,0,0,3.5,2.42c3.1,0,4-2,4-5v-1.24c-.65,1.55-1.82,2.39-4,2.39-2.82,0-5-2.29-5-6,0-4,2.3-6.3,5.14-6.3,2.44,0,3.49,1.15,3.83,2.1,0-.68.05-1.52.07-1.81h1.17c0,.45,0,2.33,0,3.48Zm-8.85-5.22c0,2.84,1.5,4.88,3.79,4.88,3,0,3.88-2,3.88-5.07s-.94-4.89-3.81-4.89S1397.45,578,1397.45,580.68Z"/><path d="M1145.62,609.24a3.58,3.58,0,1,1,3.58,3.53A3.5,3.5,0,0,1,1145.62,609.24Z"/><path d="M1168.64,607.3h-8.55v7h9.37l-.2,1.24h-10.52V598.74h10.33V600h-9v6.09h8.55Z"/><path d="M1173,603.52c2,2.94,2.84,4.25,3.31,5h0l3.47-5h1.43l-4.18,5.81,4.25,6.2h-1.5c-1.71-2.56-3-4.37-3.52-5.21h0c-.46.7-1.53,2.33-3.48,5.21h-1.44l4.24-6.09-4-5.92Z"/><path d="M1184.66,613.77v6.56h-1.25V606.47c0-1,0-2,0-3h1.22c.05.45.05,1.18.05,2.15a4.4,4.4,0,0,1,4.21-2.44c2.84,0,4.81,2.38,4.81,6,0,4.33-2.31,6.61-5.22,6.61A3.92,3.92,0,0,1,1184.66,613.77Zm7.7-4.51c0-2.77-1.34-4.84-3.7-4.84-2.88,0-4.07,1.81-4.07,5.06s.93,5.18,3.9,5.18C1191,614.66,1192.36,612.56,1192.36,609.26Z"/><path d="M1197.12,609.68c0,3.07,1.57,5,3.86,5a3.35,3.35,0,0,0,3.43-2.24h1.27a4.62,4.62,0,0,1-4.75,3.4c-3.66,0-5.08-3.14-5.08-6.2,0-3.44,1.71-6.39,5.23-6.39,3.71,0,4.89,3.19,4.89,5.47,0,.34,0,.67,0,1Zm7.55-1.08c0-2.35-1.3-4.21-3.64-4.21s-3.57,1.72-3.83,4.21Z"/><path d="M1208.88,606.79c0-2,0-2.87,0-3.27h1.23c0,.38.05,1.16.05,2.68a4.54,4.54,0,0,1,4.17-3v1.34c-2.5.17-4.17,1.87-4.17,4.74v6.22h-1.25Z"/><path d="M1216.51,597.85h1.25v2.34h-1.25Zm0,5.67h1.25v12h-1.25Z"/><path d="M1222,609.68c0,3.07,1.56,5,3.86,5a3.35,3.35,0,0,0,3.42-2.24h1.28a4.63,4.63,0,0,1-4.75,3.4c-3.66,0-5.09-3.14-5.09-6.2,0-3.44,1.71-6.39,5.23-6.39,3.71,0,4.89,3.19,4.89,5.47,0,.34,0,.67,0,1Zm7.55-1.08c0-2.35-1.31-4.21-3.65-4.21s-3.57,1.72-3.83,4.21Z"/><path d="M1233.74,606.55c0-1.06,0-2.07,0-3h1.22c0,.38.07,1.93,0,2.27a3.92,3.92,0,0,1,4-2.56c2.14,0,4,1.21,4,4.52v7.78h-1.25V608c0-2.12-.88-3.51-3-3.51-2.83,0-3.81,2.35-3.81,4.95v6.14h-1.25Z"/><path d="M1255.79,612c-.57,2.11-2,3.83-4.67,3.83-3,0-5.16-2.24-5.16-6.24,0-3.3,1.77-6.35,5.3-6.35a4.3,4.3,0,0,1,4.53,3.86h-1.27a3.21,3.21,0,0,0-3.29-2.69c-2.52,0-4,2.14-4,5.13s1.34,5.13,3.84,5.13c1.74,0,2.78-.89,3.4-2.67Z"/><path d="M1259,609.68c0,3.07,1.57,5,3.86,5a3.35,3.35,0,0,0,3.43-2.24h1.27a4.62,4.62,0,0,1-4.75,3.4c-3.65,0-5.08-3.14-5.08-6.2,0-3.44,1.71-6.39,5.23-6.39,3.71,0,4.89,3.19,4.89,5.47,0,.34,0,.67,0,1Zm7.55-1.08c0-2.35-1.3-4.21-3.64-4.21s-3.57,1.72-3.83,4.21Z"/><path d="M1277.37,598.74h6c3.08,0,5.2,1.71,5.2,4.69s-2.1,4.81-5.36,4.81h-4.49v7.29h-1.37Zm1.37,8.26h4.59c2.69,0,3.82-1.42,3.82-3.53s-1.48-3.5-3.72-3.5h-4.69Z"/><path d="M1291.17,606.79c0-2,0-2.87,0-3.27h1.22c0,.38.05,1.16.05,2.68a4.55,4.55,0,0,1,4.17-3v1.34c-2.49.17-4.17,1.87-4.17,4.74v6.22h-1.25Z"/><path d="M1308.56,609.5c0,3.35-1.85,6.32-5.44,6.32-3.25,0-5.27-2.67-5.27-6.29,0-3.44,1.9-6.3,5.4-6.3C1306.45,603.23,1308.56,605.73,1308.56,609.5Zm-9.39,0c0,2.84,1.52,5.13,4,5.13s4-2.12,4-5.13c0-2.83-1.43-5.13-4.07-5.13S1299.17,606.65,1299.17,609.53Z"/><path d="M1309.74,603.52H1312v-3.73h1.25v3.73h2.85v1.16h-2.85v7.77c0,1.33.29,2.09,1.44,2.09a4.54,4.54,0,0,0,1.24-.14v1.08a4.31,4.31,0,0,1-1.51.22c-1.56,0-2.42-.78-2.42-2.71v-8.31h-2.22Z"/><path d="M1328.12,609.5c0,3.35-1.85,6.32-5.44,6.32-3.25,0-5.27-2.67-5.27-6.29,0-3.44,1.9-6.3,5.39-6.3C1326,603.23,1328.12,605.73,1328.12,609.5Zm-9.39,0c0,2.84,1.52,5.13,4,5.13s4-2.12,4-5.13c0-2.83-1.43-5.13-4.07-5.13S1318.73,606.65,1318.73,609.53Z"/><path d="M1329.3,603.52h2.22v-3.73h1.25v3.73h2.85v1.16h-2.85v7.77c0,1.33.29,2.09,1.44,2.09a4.54,4.54,0,0,0,1.24-.14v1.08a4.31,4.31,0,0,1-1.51.22c-1.56,0-2.42-.78-2.42-2.71v-8.31h-2.22Z"/><path d="M1338.53,603.52c2.4,6.81,3.46,9.66,3.86,11h0c.48-1.46,1.43-4.25,3.74-11h1.3l-4.5,12.7c-1.28,3.55-2.14,4.35-4.32,4.35a8,8,0,0,1-1.12-.07v-1.24a7.62,7.62,0,0,0,1.08.08c1.72,0,2.27-.84,3.15-3.28l-4.58-12.54Z"/><path d="M1351.22,613.77v6.56H1350V606.47c0-1,0-2,0-3h1.22c0,.45,0,1.18,0,2.15a4.39,4.39,0,0,1,4.21-2.44c2.83,0,4.8,2.38,4.8,6,0,4.33-2.3,6.61-5.21,6.61A3.92,3.92,0,0,1,1351.22,613.77Zm7.69-4.51c0-2.77-1.33-4.84-3.69-4.84-2.89,0-4.08,1.81-4.08,5.06s.93,5.18,3.91,5.18C1357.53,614.66,1358.91,612.56,1358.91,609.26Z"/><path d="M1363.31,597.85h1.25v2.34h-1.25Zm0,5.67h1.25v12h-1.25Z"/><path d="M1368.47,606.55c0-1.06,0-2.07,0-3h1.22a21.74,21.74,0,0,1,0,2.27,3.92,3.92,0,0,1,4-2.56c2.14,0,4,1.21,4,4.52v7.78h-1.25V608c0-2.12-.87-3.51-3-3.51-2.83,0-3.81,2.35-3.81,4.95v6.14h-1.25Z"/><path d="M1390.86,614.7c0,3.84-1.69,5.87-5.2,5.87-3.15,0-4.44-1.77-4.72-3.58h1.27a3.29,3.29,0,0,0,3.5,2.42c3.1,0,4-2,4-5v-1.24c-.64,1.55-1.82,2.39-4,2.39-2.82,0-5-2.29-5-6,0-4,2.3-6.3,5.14-6.3,2.44,0,3.49,1.15,3.82,2.1,0-.68,0-1.52.08-1.81h1.17c0,.45-.05,2.33-.05,3.48Zm-8.84-5.22c0,2.84,1.5,4.89,3.79,4.89,3,0,3.88-2,3.88-5.08s-1-4.89-3.81-4.89S1382,606.75,1382,609.48Z"/><path d="M1145.62,638a3.58,3.58,0,1,1,3.58,3.53A3.5,3.5,0,0,1,1145.62,638Z"/><path d="M1160.09,627.54v16.79h-1.35V627.54Z"/><path d="M1162.6,632.32h2.22v-3.73h1.25v3.73h2.85v1.16h-2.85v7.77c0,1.33.29,2.09,1.44,2.09a4.54,4.54,0,0,0,1.24-.14v1.08a4.31,4.31,0,0,1-1.51.22c-1.56,0-2.42-.78-2.42-2.71v-8.31h-2.22Z"/><path d="M1171.54,638.48c0,3.07,1.57,5,3.86,5a3.35,3.35,0,0,0,3.43-2.24h1.27a4.62,4.62,0,0,1-4.75,3.4c-3.66,0-5.08-3.14-5.08-6.2,0-3.44,1.71-6.39,5.22-6.39,3.71,0,4.89,3.19,4.89,5.47,0,.34,0,.67,0,1Zm7.55-1.08c0-2.35-1.31-4.21-3.64-4.21s-3.58,1.72-3.84,4.21Z"/><path d="M1183.29,635.59c0-2,0-2.87,0-3.27h1.22c0,.38,0,1.16,0,2.68a4.56,4.56,0,0,1,4.17-3v1.34c-2.49.17-4.17,1.87-4.17,4.74v6.22h-1.25Z"/><path d="M1199,642a13,13,0,0,0,.17,2.3H1198a7.69,7.69,0,0,1-.22-1.83c-.41.88-1.46,2.12-3.92,2.12-2.79,0-4-1.8-4-3.61,0-2.64,2-3.84,5.64-3.84h2.27V636c0-1.19-.36-2.78-3.07-2.78-2.4,0-2.76,1.25-3,2.24h-1.25c.15-1.34,1-3.38,4.3-3.38,2.75,0,4.29,1.16,4.29,3.81Zm-1.23-3.81h-2.33c-2.65,0-4.29.7-4.29,2.74a2.49,2.49,0,0,0,2.74,2.53c3.41,0,3.88-2.27,3.88-4.84Z"/><path d="M1201,632.32h2.22v-3.73h1.25v3.73h2.85v1.16h-2.85v7.77c0,1.33.29,2.09,1.44,2.09a4.46,4.46,0,0,0,1.24-.14v1.08a4.31,4.31,0,0,1-1.51.22c-1.55,0-2.42-.78-2.42-2.71v-8.31H1201Z"/><path d="M1209.79,626.65H1211V629h-1.25Zm0,5.67H1211v12h-1.25Z"/><path d="M1224.71,638.3c0,3.35-1.86,6.32-5.44,6.32-3.25,0-5.28-2.67-5.28-6.29,0-3.44,1.91-6.3,5.4-6.3C1222.59,632,1224.71,634.53,1224.71,638.3Zm-9.4,0c0,2.84,1.53,5.13,4.06,5.13s4-2.12,4-5.13c0-2.83-1.43-5.13-4.07-5.13S1215.31,635.45,1215.31,638.33Z"/><path d="M1227.67,635.35c0-1.06,0-2.07,0-3h1.22c.05.38.07,1.93.05,2.27a3.9,3.9,0,0,1,4-2.56c2.15,0,4,1.21,4,4.52v7.78h-1.25v-7.58c0-2.12-.88-3.51-3-3.51-2.82,0-3.8,2.35-3.8,5v6.14h-1.25Z"/><path d="M1250.9,628.77h-5.63v-1.23h12.65v1.23h-5.65v15.56h-1.37Z"/><path d="M1257.75,638.48c0,3.07,1.56,5,3.85,5a3.35,3.35,0,0,0,3.43-2.24h1.27a4.61,4.61,0,0,1-4.74,3.4c-3.66,0-5.09-3.14-5.09-6.2,0-3.44,1.71-6.39,5.23-6.39,3.71,0,4.89,3.19,4.89,5.47,0,.34,0,.67,0,1Zm7.54-1.08c0-2.35-1.3-4.21-3.64-4.21s-3.57,1.72-3.83,4.21Z"/><path d="M1269.84,641a3.17,3.17,0,0,0,3.39,2.48c2.12,0,3-1,3-2.31s-.57-2-3.24-2.66c-3.12-.75-3.89-1.69-3.89-3.28s1.25-3.21,4-3.21,4,1.67,4.22,3.37H1276a2.82,2.82,0,0,0-3-2.23c-2.07,0-2.66,1-2.66,2s.57,1.64,2.94,2.21c3.4.82,4.23,1.93,4.23,3.73,0,2.18-1.77,3.54-4.32,3.54-2.76,0-4.29-1.45-4.63-3.61Z"/><path d="M1278.63,632.32h2.23v-3.73h1.25v3.73H1285v1.16h-2.84v7.77c0,1.33.28,2.09,1.43,2.09a4.46,4.46,0,0,0,1.24-.14v1.08a4.22,4.22,0,0,1-1.5.22c-1.56,0-2.42-.78-2.42-2.71v-8.31h-2.23Z"/><path d="M1287.4,626.65h1.25V629h-1.25Zm0,5.67h1.25v12h-1.25Z"/><path d="M1292.56,635.35c0-1.06,0-2.07,0-3h1.22a21.74,21.74,0,0,1,0,2.27,3.92,3.92,0,0,1,4-2.56c2.14,0,4,1.21,4,4.52v7.78h-1.25v-7.58c0-2.12-.87-3.51-3-3.51-2.83,0-3.81,2.35-3.81,5v6.14h-1.25Z"/><path d="M1315,643.5c0,3.84-1.7,5.87-5.21,5.87-3.15,0-4.44-1.77-4.72-3.58h1.27a3.29,3.29,0,0,0,3.5,2.42c3.1,0,4-2,4-5v-1.24c-.64,1.55-1.82,2.39-4,2.39-2.82,0-5-2.29-5-6,0-4,2.3-6.3,5.14-6.3,2.44,0,3.49,1.15,3.82,2.1,0-.68,0-1.52.08-1.81H1315c0,.45,0,2.33,0,3.48Zm-8.85-5.22c0,2.84,1.5,4.88,3.79,4.88,3,0,3.88-2,3.88-5.07s-1-4.89-3.81-4.89S1306.11,635.55,1306.11,638.28Z"/><path d="M824.62,522.84a3.58,3.58,0,1,1,3.58,3.53A3.5,3.5,0,0,1,824.62,522.84Z"/><path d="M837.91,524.61c.51,2.22,2,3.53,4.73,3.53,3.05,0,4.21-1.52,4.21-3.33s-.83-3-4.51-4-5.1-2.05-5.1-4.47c0-2.22,1.62-4.28,5.22-4.28s5.28,2.25,5.5,4.3h-1.4c-.38-1.78-1.54-3.07-4.17-3.07-2.4,0-3.71,1.11-3.71,3s1.09,2.55,4.18,3.31c4.73,1.18,5.44,3.07,5.44,5.1,0,2.48-1.82,4.61-5.71,4.61-4.2,0-5.76-2.44-6.07-4.71Z"/><path d="M849.76,517.12H852v-3.73h1.25v3.73h2.85v1.16h-2.85v7.77c0,1.33.29,2.09,1.44,2.09a4.43,4.43,0,0,0,1.23-.14v1.08a4.22,4.22,0,0,1-1.5.22c-1.56,0-2.42-.78-2.42-2.71v-8.31h-2.22Z"/><path d="M868.14,523.1c0,3.35-1.85,6.32-5.44,6.32-3.25,0-5.27-2.67-5.27-6.29,0-3.44,1.9-6.3,5.39-6.3C866,516.83,868.14,519.33,868.14,523.1Zm-9.39,0c0,2.84,1.52,5.13,4,5.13s4-2.12,4-5.13c0-2.83-1.43-5.13-4.07-5.13S858.75,520.25,858.75,523.13Z"/><path d="M871.1,520.39c0-2,0-2.87,0-3.27h1.22c0,.38.05,1.16.05,2.68a4.54,4.54,0,0,1,4.17-3v1.34c-2.49.17-4.17,1.87-4.17,4.74v6.22H871.1Z"/><path d="M879.41,517.12c2.4,6.81,3.46,9.66,3.86,11h0c.47-1.46,1.43-4.25,3.74-11h1.29l-4.5,12.7c-1.27,3.55-2.14,4.35-4.32,4.35a7.87,7.87,0,0,1-1.11-.07v-1.24a7.37,7.37,0,0,0,1.07.08c1.72,0,2.28-.84,3.15-3.28L878,517.12Z"/><path d="M890.8,511.45h1.25v7.67a4.15,4.15,0,0,1,4.1-2.29c2.84,0,4.92,2.34,4.92,6s-1.87,6.56-5.24,6.56a3.72,3.72,0,0,1-3.78-2.17c0,.76,0,1.55,0,1.88h-1.22c0-1.37,0-2.73,0-4.1Zm9,11.44c0-3-1.47-4.89-3.74-4.89-3,0-4,2-4,5.15,0,2.82.93,5.11,3.88,5.11C898.27,528.26,899.75,526.25,899.75,522.89Z"/><path d="M913.93,523.1c0,3.35-1.85,6.32-5.44,6.32-3.25,0-5.27-2.67-5.27-6.29,0-3.44,1.9-6.3,5.39-6.3C911.82,516.83,913.93,519.33,913.93,523.1Zm-9.39,0c0,2.84,1.52,5.13,4.05,5.13s4-2.12,4-5.13c0-2.83-1.43-5.13-4.07-5.13S904.54,520.25,904.54,523.13Z"/><path d="M925.17,526.83a14.1,14.1,0,0,0,.17,2.3h-1.2a7.69,7.69,0,0,1-.22-1.83c-.4.88-1.46,2.12-3.92,2.12-2.79,0-4-1.8-4-3.61,0-2.64,2-3.84,5.64-3.84h2.27v-1.22c0-1.19-.36-2.78-3.07-2.78-2.4,0-2.76,1.26-3,2.24h-1.25c.15-1.34,1-3.38,4.3-3.38,2.75,0,4.29,1.16,4.29,3.81ZM924,523h-2.34c-2.65,0-4.28.7-4.28,2.74a2.49,2.49,0,0,0,2.74,2.53c3.4,0,3.88-2.27,3.88-4.84Z"/><path d="M929.11,520.39c0-2,0-2.87,0-3.27h1.23c0,.38.05,1.16.05,2.68a4.54,4.54,0,0,1,4.17-3v1.34c-2.5.17-4.17,1.87-4.17,4.74v6.22h-1.25Z"/><path d="M946.05,511.45v14.23c0,1.15,0,2.25,0,3.45h-1.19c0-.29-.08-1.41-.08-2-.6,1.45-1.94,2.29-4,2.29-3.12,0-5-2.54-5-6.15s2-6.44,5.31-6.44c2.38,0,3.34,1,3.7,1.79v-7.17Zm-8.94,11.77c0,3.27,1.68,5,3.74,5,3.15,0,4-2.18,4-5.42,0-3.07-.73-4.84-3.79-4.84C938.7,518,937.11,519.88,937.11,523.22Z"/><path d="M949.9,525.81a3.15,3.15,0,0,0,3.38,2.48c2.12,0,3-1,3-2.31s-.58-2-3.25-2.66c-3.11-.75-3.88-1.69-3.88-3.28s1.25-3.21,4-3.21,4,1.67,4.23,3.37h-1.25a2.8,2.8,0,0,0-3-2.23c-2.06,0-2.66,1-2.66,2s.57,1.64,2.94,2.21c3.4.82,4.24,1.93,4.24,3.73,0,2.18-1.77,3.54-4.32,3.54-2.76,0-4.3-1.45-4.63-3.61Z"/><path d="M824.62,551.64a3.58,3.58,0,1,1,3.58,3.53A3.49,3.49,0,0,1,824.62,551.64Z"/><path d="M837.91,553.41c.51,2.22,2,3.53,4.73,3.53,3.05,0,4.21-1.52,4.21-3.33s-.83-3.05-4.51-4-5.1-2-5.1-4.47c0-2.22,1.62-4.28,5.22-4.28s5.28,2.25,5.5,4.3h-1.4c-.38-1.78-1.54-3.07-4.17-3.07-2.4,0-3.71,1.11-3.71,3s1.09,2.55,4.18,3.31c4.73,1.18,5.44,3.07,5.44,5.1,0,2.48-1.82,4.61-5.71,4.61-4.2,0-5.76-2.44-6.07-4.71Z"/><path d="M852.43,556.17v6.56h-1.25V548.88c0-1,0-2,0-3h1.22c0,.46,0,1.18,0,2.15a4.4,4.4,0,0,1,4.21-2.44c2.83,0,4.81,2.38,4.81,6,0,4.33-2.31,6.61-5.22,6.61A3.92,3.92,0,0,1,852.43,556.17Zm7.7-4.51c0-2.77-1.34-4.84-3.7-4.84-2.88,0-4.07,1.81-4.07,5.06s.93,5.18,3.9,5.18C858.74,557.06,860.13,555,860.13,551.66Z"/><path d="M864.89,552.08c0,3.07,1.57,5,3.86,5a3.35,3.35,0,0,0,3.43-2.24h1.27a4.62,4.62,0,0,1-4.75,3.4c-3.66,0-5.08-3.14-5.08-6.2,0-3.44,1.71-6.39,5.22-6.39,3.71,0,4.9,3.19,4.9,5.47,0,.34,0,.67,0,1Zm7.55-1.08c0-2.35-1.3-4.21-3.64-4.21s-3.57,1.72-3.84,4.21Z"/><path d="M877.08,552.08c0,3.07,1.57,5,3.86,5a3.35,3.35,0,0,0,3.43-2.24h1.27a4.62,4.62,0,0,1-4.75,3.4c-3.66,0-5.08-3.14-5.08-6.2,0-3.44,1.71-6.39,5.23-6.39,3.7,0,4.89,3.19,4.89,5.47,0,.34,0,.67,0,1Zm7.55-1.08c0-2.35-1.3-4.21-3.64-4.21s-3.57,1.72-3.83,4.21Z"/><path d="M898.27,540.25v14.23c0,1.15,0,2.25,0,3.45h-1.2c0-.29-.07-1.41-.07-2-.6,1.45-1.94,2.29-4,2.29-3.12,0-5-2.54-5-6.15s2-6.44,5.31-6.44c2.39,0,3.35,1,3.71,1.79v-7.17ZM889.32,552c0,3.27,1.69,5,3.75,5,3.15,0,4-2.18,4-5.42,0-3.07-.73-4.84-3.79-4.84C890.92,546.8,889.32,548.68,889.32,552Z"/><path d="M911.49,540.25v14.23c0,1.15,0,2.25,0,3.45h-1.2c-.05-.29-.08-1.41-.08-2-.6,1.45-1.93,2.29-4,2.29-3.12,0-5-2.54-5-6.15s2-6.44,5.31-6.44c2.39,0,3.35,1,3.7,1.79v-7.17ZM902.55,552c0,3.27,1.69,5,3.74,5,3.15,0,4-2.18,4-5.42,0-3.07-.73-4.84-3.79-4.84C904.14,546.8,902.55,548.68,902.55,552Z"/><path d="M923.52,555.63a14.44,14.44,0,0,0,.16,2.3h-1.2a8.53,8.53,0,0,1-.21-1.83c-.41.88-1.46,2.12-3.93,2.12-2.79,0-4-1.8-4-3.61,0-2.64,2-3.84,5.65-3.84h2.27v-1.22c0-1.19-.36-2.78-3.07-2.78-2.41,0-2.76,1.26-3,2.24h-1.24c.14-1.34,1-3.38,4.29-3.38,2.75,0,4.3,1.16,4.3,3.81Zm-1.23-3.81H920c-2.65,0-4.29.7-4.29,2.74a2.49,2.49,0,0,0,2.74,2.53c3.41,0,3.88-2.27,3.88-4.84Z"/><path d="M925.55,545.92h2.22v-3.73H929v3.73h2.85v1.16H929v7.77c0,1.33.29,2.09,1.44,2.09a4.54,4.54,0,0,0,1.24-.14v1.08a4.31,4.31,0,0,1-1.51.22c-1.56,0-2.42-.78-2.42-2.71v-8.31h-2.22Z"/><path d="M934.32,540.25h1.25v2.34h-1.25Zm0,5.67h1.25v12h-1.25Z"/><path d="M939.48,549c0-1.06,0-2.07,0-3h1.23c0,.38.07,1.93.05,2.27a3.9,3.9,0,0,1,4-2.56c2.15,0,4,1.21,4,4.52v7.78h-1.25v-7.58c0-2.12-.88-3.51-3-3.51-2.82,0-3.8,2.35-3.8,4.95v6.14h-1.25Z"/><path d="M961.87,557.1c0,3.84-1.7,5.87-5.21,5.87-3.15,0-4.44-1.77-4.72-3.58h1.27a3.29,3.29,0,0,0,3.5,2.42c3.1,0,4-2,4-5v-1.24c-.65,1.55-1.82,2.39-4,2.39-2.82,0-5-2.29-5-6,0-4,2.3-6.3,5.14-6.3,2.44,0,3.49,1.15,3.83,2.1,0-.68.05-1.52.07-1.81h1.18c0,.45,0,2.33,0,3.48ZM953,551.88c0,2.84,1.5,4.88,3.79,4.88,3,0,3.88-2,3.88-5.07s-.94-4.89-3.81-4.89S953,549.15,953,551.88Z"/><path d="M494.62,522.84a3.58,3.58,0,1,1,3.58,3.53A3.5,3.5,0,0,1,494.62,522.84Z"/><path d="M507.91,524.61c.51,2.22,2,3.53,4.73,3.53,3.05,0,4.21-1.52,4.21-3.33s-.83-3-4.51-4-5.1-2.05-5.1-4.47c0-2.22,1.62-4.28,5.22-4.28s5.28,2.25,5.5,4.3h-1.4c-.38-1.78-1.54-3.07-4.17-3.07-2.4,0-3.71,1.11-3.71,3s1.09,2.55,4.18,3.31c4.73,1.18,5.44,3.07,5.44,5.1,0,2.48-1.82,4.61-5.71,4.61-4.2,0-5.76-2.44-6.07-4.71Z"/><path d="M530.35,525.62c0,1.18,0,3,0,3.51h-1.2a18.68,18.68,0,0,1-.07-2.07c-.51,1.41-1.73,2.36-3.86,2.36-1.74,0-3.94-.69-3.94-4.35v-8h1.23v7.65c0,1.75.55,3.44,2.9,3.44,2.67,0,3.67-1.5,3.67-4.91v-6.18h1.25Z"/><path d="M534.26,520.39c0-2,0-2.87,0-3.27h1.22c0,.38,0,1.16,0,2.68a4.55,4.55,0,0,1,4.17-3v1.34c-2.49.17-4.17,1.87-4.17,4.74v6.22h-1.25Z"/><path d="M542.62,517.12c1.93,5.47,3.27,9.21,3.72,10.75h0c.27-.91,1.61-4.49,3.91-10.75h1.32l-4.53,12h-1.49l-4.27-12Z"/><path d="M554.24,523.28c0,3.07,1.56,5,3.85,5a3.35,3.35,0,0,0,3.43-2.24h1.27a4.62,4.62,0,0,1-4.75,3.4c-3.65,0-5.08-3.14-5.08-6.2,0-3.44,1.71-6.39,5.23-6.39,3.71,0,4.89,3.19,4.89,5.47,0,.34,0,.67,0,1Zm7.54-1.08c0-2.35-1.3-4.21-3.64-4.21s-3.57,1.72-3.83,4.21Z"/><path d="M566.14,517.12c2.4,6.81,3.46,9.66,3.86,11h0c.47-1.46,1.43-4.25,3.74-11h1.29l-4.5,12.7c-1.27,3.55-2.14,4.35-4.32,4.35a7.78,7.78,0,0,1-1.11-.07v-1.24a7.37,7.37,0,0,0,1.07.08c1.72,0,2.27-.84,3.15-3.28l-4.58-12.54Z"/><path d="M570.18,231.83h9c7,0,11.8,4.8,11.8,12.27s-4.64,12.78-11.91,12.78h-8.84Zm3.32,22.23h5.26c5.89,0,8.7-4.22,8.7-9.89,0-4.94-2.56-9.52-8.69-9.52H573.5Z"/><path d="M597.35,248.32c0,3.72,1.89,6.35,5,6.35a4.21,4.21,0,0,0,4.41-2.82h3.17c-.72,2.34-2.67,5.46-7.68,5.46-5.73,0-8.07-4.67-8.07-9.36,0-5.43,2.73-9.76,8.28-9.76,5.89,0,7.81,4.73,7.81,8.62,0,.55,0,1,0,1.51Zm9.72-2.22c0-3-1.55-5.41-4.67-5.41s-4.62,2.23-4.94,5.41Z"/><path d="M615.28,256.88V241.2h-2.94v-2.58h2.94v-2.18c0-3.36,1.29-6.35,5.32-6.35a8.41,8.41,0,0,1,2,.24V233a8.27,8.27,0,0,0-1.6-.16c-1.89,0-2.59,1.12-2.59,3.8v2h3.66v2.58h-3.66v15.68Z"/><path d="M625.16,230.45h3.15v3.94h-3.15Zm0,8.17h3.15v18.26h-3.15Z"/><path d="M633.71,243.22c0-1.58,0-3.18,0-4.6h3.07c.08.54.13,2.46.12,3a5.76,5.76,0,0,1,5.74-3.43c3.42,0,6.1,2.1,6.1,6.95v11.74h-3.15V245.54c0-2.76-1.07-4.62-3.86-4.62-3.44,0-4.83,2.62-4.83,6.29v9.67h-3.15Z"/><path d="M656,248.32c0,3.72,1.89,6.35,5,6.35a4.2,4.2,0,0,0,4.4-2.82h3.18c-.72,2.34-2.68,5.46-7.68,5.46-5.74,0-8.08-4.67-8.08-9.36,0-5.43,2.74-9.76,8.28-9.76,5.89,0,7.82,4.73,7.82,8.62a14.64,14.64,0,0,1,0,1.51Zm9.71-2.22c0-3-1.54-5.41-4.66-5.41s-4.62,2.23-4.94,5.41Z"/><path d="M906.2,231.83v25h-3.32v-25Z"/><path d="M927.21,230.45v21.27c0,1.71,0,3.4,0,5.16h-3a24,24,0,0,1-.16-2.59c-.9,1.9-2.75,3-5.74,3-4.69,0-7.58-3.8-7.58-9.37s3.11-9.75,8.16-9.75c3.23,0,4.67,1.31,5.16,2.33V230.45ZM914,247.84c0,4.41,2.1,6.8,5,6.8,4.26,0,5.2-3.15,5.2-7.16s-.85-6.61-5-6.61C916,240.87,914,243.42,914,247.84Z"/><path d="M934.47,248.32c0,3.72,1.89,6.35,5,6.35a4.21,4.21,0,0,0,4.41-2.82H947c-.71,2.34-2.67,5.46-7.67,5.46-5.74,0-8.08-4.67-8.08-9.36,0-5.43,2.73-9.76,8.28-9.76,5.89,0,7.81,4.73,7.81,8.62,0,.55,0,1,0,1.51Zm9.72-2.22c0-3-1.55-5.41-4.67-5.41s-4.62,2.23-4.94,5.41Z"/><path d="M965,252.9a28.08,28.08,0,0,0,.25,4h-3a9.45,9.45,0,0,1-.3-2.39c-.64,1.21-2.1,2.82-5.64,2.82-4.3,0-6.14-2.8-6.14-5.58,0-4.07,3.2-5.94,8.62-5.94h3.12v-1.55c0-1.61-.52-3.58-3.93-3.58-3.05,0-3.56,1.52-3.9,2.94H951c.25-2.51,1.8-5.42,7.05-5.41,4.46,0,6.93,1.83,6.93,6ZM961.93,248H959c-3.64,0-5.59,1-5.59,3.58a3.21,3.21,0,0,0,3.55,3.28c4.4,0,5-3,5-6.28Z"/><path d="M967.86,238.62H971v-5.38h3.15v5.38h4v2.58h-4v10.69c0,1.77.43,2.68,2.08,2.68a6.88,6.88,0,0,0,1.59-.15v2.37a8.4,8.4,0,0,1-2.72.34c-2.84,0-4.1-1.47-4.1-4.5V241.2h-3.16Z"/><path d="M983.32,248.32c0,3.72,1.9,6.35,5,6.35a4.2,4.2,0,0,0,4.41-2.82h3.17c-.71,2.34-2.67,5.46-7.67,5.46-5.74,0-8.08-4.67-8.08-9.36,0-5.43,2.73-9.76,8.28-9.76,5.89,0,7.82,4.73,7.82,8.62a14.64,14.64,0,0,1,0,1.51ZM993,246.1c0-3-1.55-5.41-4.67-5.41s-4.62,2.23-4.94,5.41Z"/><path d="M903.88,381.52V401H901.3V381.52Z"/><path d="M920.23,380.45V397c0,1.34,0,2.64,0,4H917.9a18.85,18.85,0,0,1-.13-2c-.7,1.48-2.13,2.35-4.46,2.35-3.65,0-5.89-3-5.89-7.29s2.41-7.58,6.34-7.58c2.51,0,3.63,1,4,1.81v-7.83ZM910,394c0,3.43,1.63,5.28,3.86,5.28,3.32,0,4-2.45,4-5.56s-.66-5.15-3.86-5.15C911.51,388.55,910,390.53,910,394Z"/><path d="M925.87,394.35c0,2.89,1.47,4.94,3.88,4.94a3.27,3.27,0,0,0,3.43-2.2h2.47a5.77,5.77,0,0,1-6,4.25c-4.47,0-6.29-3.63-6.29-7.28,0-4.23,2.13-7.59,6.45-7.59,4.58,0,6.08,3.67,6.08,6.7a11.15,11.15,0,0,1,0,1.18Zm7.56-1.73c0-2.33-1.2-4.21-3.63-4.21s-3.59,1.74-3.84,4.21Z"/><path d="M949.62,397.91a22.24,22.24,0,0,0,.2,3.09h-2.35a8.07,8.07,0,0,1-.23-1.85c-.49.94-1.63,2.19-4.38,2.19-3.35,0-4.78-2.18-4.78-4.34,0-3.17,2.49-4.62,6.71-4.62h2.42v-1.21c0-1.25-.4-2.78-3.05-2.78-2.38,0-2.78,1.18-3,2.29h-2.37c.19-2,1.4-4.22,5.48-4.21,3.47,0,5.39,1.42,5.39,4.65Zm-2.39-3.83h-2.3c-2.83,0-4.34.78-4.34,2.79a2.5,2.5,0,0,0,2.76,2.55c3.42,0,3.88-2.31,3.88-4.88Z"/><path d="M951.84,386.81h2.46v-4.19h2.45v4.19h3.13v2h-3.13v8.31c0,1.38.33,2.09,1.62,2.09a5.47,5.47,0,0,0,1.24-.12v1.85a6.81,6.81,0,0,1-2.13.26c-2.2,0-3.18-1.14-3.18-3.5v-8.89h-2.46Z"/><path d="M962.48,380.45h2.45v3.06h-2.45Zm0,6.36h2.45V401h-2.45Z"/><path d="M981.32,393.88c0,4.09-2.34,7.46-6.68,7.46-4.07,0-6.53-3.15-6.53-7.42s2.41-7.45,6.69-7.45C978.74,386.47,981.32,389.42,981.32,393.88Zm-10.69,0c0,3.12,1.56,5.39,4.11,5.39s4.06-2.15,4.06-5.38-1.46-5.39-4.12-5.39S970.63,390.66,970.63,393.9Z"/><path d="M984.53,390.38c0-1.23,0-2.47,0-3.57h2.38a22.58,22.58,0,0,1,.1,2.33,4.47,4.47,0,0,1,4.47-2.67c2.66,0,4.74,1.63,4.74,5.4V401h-2.45v-8.81c0-2.15-.84-3.59-3-3.59-2.68,0-3.76,2-3.76,4.89V401h-2.45Z"/><path d="M1142,231.83h9.51c4.88,0,8.21,2.72,8.21,7.29,0,4.88-3.52,7.47-8.41,7.47h-6v10.29H1142Zm3.34,12h5.8c3.43,0,5.15-1.67,5.15-4.59s-2.08-4.57-5-4.57h-5.94Z"/><path d="M1163.39,243.58c0-2.55,0-4,0-5h3.09c0,.52.1,1.95.1,3.73a6.47,6.47,0,0,1,6.15-4.16v3.14c-3.74.12-6.15,2.07-6.15,6.69v8.86h-3.15Z"/><path d="M1191.46,247.71c0,5.26-3,9.6-8.59,9.6-5.23,0-8.4-4.05-8.4-9.53s3.1-9.59,8.6-9.59C1188.14,238.19,1191.46,242,1191.46,247.71Zm-13.74,0c0,4,2,6.92,5.28,6.92s5.21-2.77,5.21-6.91-1.86-6.93-5.28-6.93S1177.72,243.58,1177.72,247.75Z"/><path d="M1193.2,238.62h3.15v-5.38h3.15v5.38h4v2.58h-4v10.69c0,1.77.43,2.68,2.09,2.68a6.93,6.93,0,0,0,1.59-.15v2.37a8.49,8.49,0,0,1-2.73.34c-2.84,0-4.1-1.47-4.1-4.5V241.2h-3.15Z"/><path d="M1222.46,247.71c0,5.26-3,9.6-8.6,9.6-5.23,0-8.39-4.05-8.39-9.53s3.1-9.59,8.6-9.59C1219.14,238.19,1222.46,242,1222.46,247.71Zm-13.74,0c0,4,2,6.92,5.27,6.92s5.22-2.77,5.22-6.91-1.87-6.93-5.29-6.93S1208.72,243.58,1208.72,247.75Z"/><path d="M1224.19,238.62h3.16v-5.38h3.15v5.38h4v2.58h-4v10.69c0,1.77.43,2.68,2.08,2.68a6.88,6.88,0,0,0,1.59-.15v2.37a8.49,8.49,0,0,1-2.73.34c-2.84,0-4.09-1.47-4.09-4.5V241.2h-3.16Z"/><path d="M1240,238.62c3,8.74,4.57,13.59,5,15.44h0c.59-2.06,1.89-6.24,4.87-15.44h3.19l-6.57,19.1c-1.85,5.34-3.23,6.69-7,6.69a18.16,18.16,0,0,1-2-.12v-2.74a12.26,12.26,0,0,0,1.51.09c2.31,0,3.19-1,4.27-4.06l-6.84-19Z"/><path d="M1259.62,254.62v9.43h-3.14v-21c0-1.49,0-3,0-4.46h3.06c.07.61.11,1.72.11,2.87a6.3,6.3,0,0,1,6-3.3c4.22,0,7.29,3.54,7.29,9.09,0,6.52-3.52,10-7.94,10C1262,257.31,1260.45,256.07,1259.62,254.62Zm10-7.21c0-3.87-1.76-6.52-4.88-6.52-3.78,0-5.27,2.39-5.27,6.83s1.22,6.93,5,6.93C1267.85,254.65,1269.63,251.9,1269.63,247.41Z"/><path d="M1279.11,248.32c0,3.72,1.89,6.35,5,6.35a4.2,4.2,0,0,0,4.4-2.82h3.18c-.72,2.34-2.68,5.46-7.68,5.46-5.74,0-8.08-4.67-8.08-9.36,0-5.43,2.73-9.76,8.28-9.76,5.89,0,7.82,4.73,7.82,8.62a14.64,14.64,0,0,1,0,1.51Zm9.71-2.22c0-3-1.54-5.41-4.66-5.41s-4.63,2.23-5,5.41Z"/><path d="M1327.36,241l-6.41,9.4c-3,4.38-5.1,6.84-9.7,6.84s-7.13-3.38-7.13-6.61,1.81-5.52,6.78-8.09c3.21-1.78,5-2.95,5-5.28a3.12,3.12,0,0,0-3.14-3.37c-1.94,0-3.25,1.27-3.25,3.49,0,1.57,1.17,3,3,4.72l15.06,14.78h-4.28l-13.42-13.21c-2-1.94-3.39-3.69-3.39-6.14a5.92,5.92,0,0,1,6.28-6.06,5.71,5.71,0,0,1,6,5.75c0,2.78-1.79,4.5-6.26,7-4.32,2.25-5.21,4-5.21,6.09a4.13,4.13,0,0,0,4.09,4.15c2.8,0,4.39-1.15,7.54-5.9l5-7.54Z"/><path d="M1346.58,234.68h-8.09v-2.85H1358v2.85h-8.1v22.2h-3.34Z"/><path d="M1359.28,248.32c0,3.72,1.89,6.35,5,6.35a4.2,4.2,0,0,0,4.4-2.82h3.18c-.72,2.34-2.68,5.46-7.68,5.46-5.74,0-8.08-4.67-8.08-9.36,0-5.43,2.74-9.76,8.28-9.76,5.89,0,7.82,4.73,7.82,8.62a14.64,14.64,0,0,1,0,1.51Zm9.71-2.22c0-3-1.54-5.41-4.66-5.41s-4.62,2.23-4.94,5.41Z"/><path d="M1378,251.65c.52,2,2,3.17,4.47,3.17,2.68,0,3.73-1.15,3.73-2.81s-.83-2.5-4.32-3.34c-5.21-1.27-6.3-2.87-6.3-5.35s1.89-5.13,6.59-5.13,6.63,2.73,6.87,5.27h-3c-.26-1.18-1.15-2.82-4-2.82-2.56,0-3.32,1.23-3.32,2.43,0,1.36.75,2,4.1,2.83,5.53,1.32,6.64,3.16,6.64,5.88,0,3.19-2.54,5.53-7.08,5.53-4.73,0-7-2.39-7.51-5.66Z"/><path d="M1391.05,238.62h3.15v-5.38h3.15v5.38h4v2.58h-4v10.69c0,1.77.44,2.68,2.09,2.68a6.88,6.88,0,0,0,1.59-.15v2.37a8.49,8.49,0,0,1-2.73.34c-2.84,0-4.1-1.47-4.1-4.5V241.2h-3.15Z"/><path d="M1404.73,230.45h3.15v3.94h-3.15Zm0,8.17h3.15v18.26h-3.15Z"/><path d="M1413.27,243.22c0-1.58,0-3.18,0-4.6h3.06c.09.54.14,2.46.13,3,.72-1.56,2.21-3.43,5.74-3.43s6.1,2.1,6.1,6.95v11.74h-3.15V245.54c0-2.76-1.08-4.62-3.87-4.62-3.44,0-4.82,2.62-4.82,6.29v9.67h-3.16Z"/><path d="M1448.68,255.23c0,5.85-2.42,9.18-8.38,9.18-5.53,0-7.23-3.1-7.56-5.58H1436c.53,2,2.14,3.06,4.49,3.06,4.14,0,5.17-2.63,5.17-6.83v-1.48c-1,2-2.65,3.21-5.71,3.21-4.49,0-7.55-3.66-7.55-9,0-6,3.47-9.59,7.88-9.59,3.48,0,5,1.64,5.38,2.85,0-.83.11-2,.15-2.42h3c0,1.06,0,3.52,0,5.27Zm-13.06-7.59c0,3.85,2,6.46,5,6.46,3.93,0,5.09-2.64,5.09-6.7s-1.09-6.53-5-6.53C1437.34,240.87,1435.62,243.69,1435.62,247.64Z"/><path d="M1178.43,400h-2a11.79,11.79,0,0,1-.24-2.64c-.85,1.39-2.53,2.91-6,2.91-5.62,0-8.6-4.27-8.6-9.81,0-5.83,3.2-10.22,9.07-10.22,4.53,0,7.38,2.45,7.94,5.94H1176c-.66-2.18-2.22-3.78-5.4-3.78-4.53,0-6.32,3.61-6.32,7.94,0,4,1.81,7.75,6.21,7.75s5.45-2.9,5.45-6.19v-.2h-5.49v-2.22h8Z"/><path d="M1182.61,389.66c0-2,0-3.1,0-3.85h2.4c0,.39.08,1.51.08,2.89a5,5,0,0,1,4.78-3.23v2.44c-2.91.09-4.78,1.61-4.78,5.2V400h-2.45Z"/><path d="M1204.44,392.88c0,4.09-2.34,7.46-6.69,7.46-4.06,0-6.52-3.15-6.52-7.42s2.41-7.45,6.69-7.45C1201.86,385.47,1204.44,388.42,1204.44,392.88Zm-10.69,0c0,3.12,1.56,5.39,4.11,5.39s4.06-2.15,4.06-5.38-1.46-5.39-4.12-5.39S1193.75,389.66,1193.75,392.9Z"/><path d="M1219,395.87c0,1.38,0,3.29,0,4.13h-2.39c-.05-.37-.08-1.23-.09-2.12-.7,1.57-2.07,2.46-4.3,2.46-2.39,0-4.69-1.19-4.69-5.2v-9.33H1210v8.81c0,1.86.59,3.58,2.94,3.58,2.61,0,3.62-1.44,3.62-5v-7.4H1219Z"/><path d="M1223.24,389.38c0-1.23,0-2.47,0-3.57h2.39c.06.41.1,1.91.09,2.33a4.48,4.48,0,0,1,4.47-2.67c2.66,0,4.75,1.63,4.75,5.4V400h-2.45v-8.81c0-2.15-.84-3.59-3-3.59-2.68,0-3.76,2-3.76,4.89V400h-2.45Z"/><path d="M1250.89,379.45V396c0,1.34,0,2.64,0,4h-2.36c-.06-.37-.11-1.46-.12-2-.7,1.48-2.14,2.35-4.47,2.35-3.65,0-5.89-3-5.89-7.29s2.42-7.58,6.35-7.58c2.51,0,3.63,1,4,1.81v-7.83ZM1240.62,393c0,3.43,1.63,5.28,3.86,5.28,3.32,0,4-2.45,4-5.56s-.66-5.15-3.85-5.15C1242.17,387.55,1240.62,389.53,1240.62,393Z"/><path d="M1255.07,379.45h2.45v3.06h-2.45Zm0,6.36h2.45V400h-2.45Z"/><path d="M1261.71,389.38c0-1.23,0-2.47,0-3.57h2.38c.06.41.1,1.91.1,2.33a4.45,4.45,0,0,1,4.46-2.67c2.66,0,4.75,1.63,4.75,5.4V400h-2.45v-8.81c0-2.15-.84-3.59-3-3.59-2.68,0-3.75,2-3.75,4.89V400h-2.46Z"/><path d="M1289.25,398.72c0,4.55-1.88,7.14-6.51,7.14-4.31,0-5.63-2.41-5.89-4.34h2.5a3.23,3.23,0,0,0,3.49,2.38c3.22,0,4-2,4-5.31v-1.15c-.75,1.59-2,2.49-4.43,2.49-3.5,0-5.88-2.84-5.88-7,0-4.63,2.7-7.45,6.13-7.45,2.71,0,3.86,1.27,4.18,2.22,0-.65.09-1.59.12-1.88h2.31c0,.82,0,2.73,0,4.1Zm-10.15-5.9c0,3,1.55,5,3.87,5,3.07,0,4-2.06,4-5.22s-.84-5.08-3.87-5.08C1280.43,387.55,1279.1,389.75,1279.1,392.82Z"/><path d="M1301,380.52h7c5.48,0,9.18,3.73,9.18,9.55s-3.61,9.93-9.27,9.93H1301Zm2.58,17.29h4.09c4.58,0,6.77-3.28,6.77-7.69,0-3.85-2-7.4-6.76-7.4h-4.1Z"/><path d="M1322.11,393.35c0,2.89,1.47,4.94,3.88,4.94a3.28,3.28,0,0,0,3.43-2.2h2.47a5.77,5.77,0,0,1-6,4.25c-4.47,0-6.29-3.63-6.29-7.28,0-4.23,2.13-7.59,6.44-7.59,4.58,0,6.09,3.67,6.09,6.7a11.15,11.15,0,0,1,0,1.18Zm7.56-1.73c0-2.33-1.21-4.21-3.63-4.21s-3.6,1.74-3.85,4.21Z"/><path d="M1336.7,395.94a3.23,3.23,0,0,0,3.48,2.47c2.09,0,2.91-.9,2.91-2.19s-.66-2-3.37-2.6c-4-1-4.9-2.23-4.9-4.16s1.47-4,5.13-4,5.16,2.12,5.34,4.1h-2.37a2.79,2.79,0,0,0-3.08-2.2c-2,0-2.58,1-2.58,1.89s.58,1.59,3.18,2.21c4.31,1,5.17,2.46,5.17,4.57,0,2.48-2,4.3-5.51,4.3s-5.48-1.86-5.84-4.4Z"/><path d="M1348.75,379.45h2.46v3.06h-2.46Zm0,6.36h2.46V400h-2.46Z"/><path d="M1367.09,398.72c0,4.55-1.88,7.14-6.52,7.14-4.3,0-5.62-2.41-5.88-4.34h2.5a3.23,3.23,0,0,0,3.49,2.38c3.22,0,4-2,4-5.31v-1.15c-.75,1.59-2.06,2.49-4.44,2.49-3.49,0-5.87-2.84-5.87-7,0-4.63,2.7-7.45,6.13-7.45,2.71,0,3.86,1.27,4.18,2.22,0-.65.09-1.59.12-1.88h2.31c0,.82,0,2.73,0,4.1Zm-10.16-5.9c0,3,1.56,5,3.88,5,3.07,0,4-2.06,4-5.22s-.84-5.08-3.87-5.08C1358.27,387.55,1356.93,389.75,1356.93,392.82Z"/><path d="M1371.28,389.38c0-1.23,0-2.47,0-3.57h2.38a22.58,22.58,0,0,1,.1,2.33,4.46,4.46,0,0,1,4.47-2.67c2.66,0,4.74,1.63,4.74,5.4V400h-2.45v-8.81c0-2.15-.84-3.59-3-3.59-2.67,0-3.75,2-3.75,4.89V400h-2.45Z"/><path d="M1203.61,427.76l-2.09,5.84h-2.58l6.94-19.48h3.18l7.24,19.48h-2.75l-2.17-5.84Zm7.11-2.21c-1.85-5.12-2.88-7.84-3.3-9.33h0c-.48,1.65-1.62,4.95-3.12,9.33Z"/><path d="M1221.43,431.85v7.33H1219V422.87c0-1.16,0-2.36,0-3.46h2.39c.05.47.08,1.33.08,2.23a4.9,4.9,0,0,1,4.64-2.57c3.29,0,5.67,2.75,5.67,7.07,0,5.07-2.74,7.8-6.17,7.8A4.32,4.32,0,0,1,1221.43,431.85Zm7.79-5.61c0-3-1.37-5.07-3.8-5.07-2.94,0-4.1,1.86-4.1,5.31s1,5.39,3.92,5.39C1227.83,431.87,1229.22,429.73,1229.22,426.24Z"/><path d="M1237.39,431.85v7.33H1235V422.87c0-1.16,0-2.36,0-3.46h2.39c0,.47.08,1.33.08,2.23a4.9,4.9,0,0,1,4.64-2.57c3.29,0,5.67,2.75,5.67,7.07,0,5.07-2.74,7.8-6.17,7.8A4.32,4.32,0,0,1,1237.39,431.85Zm7.79-5.61c0-3-1.37-5.07-3.8-5.07-2.94,0-4.1,1.86-4.1,5.31s1,5.39,3.92,5.39C1243.79,431.87,1245.18,429.73,1245.18,426.24Z"/><path d="M1250.91,423.26c0-2,0-3.1,0-3.85h2.41c0,.39.07,1.51.07,2.89a5,5,0,0,1,4.78-3.23v2.44c-2.91.09-4.78,1.61-4.78,5.2v6.89h-2.45Z"/><path d="M1272.74,426.48c0,4.09-2.34,7.46-6.68,7.46-4.07,0-6.53-3.15-6.53-7.42s2.41-7.45,6.69-7.45C1270.16,419.07,1272.74,422,1272.74,426.48Zm-10.68,0c0,3.12,1.55,5.39,4.1,5.39s4.06-2.15,4.06-5.38-1.45-5.39-4.11-5.39S1262.06,423.26,1262.06,426.5Z"/><path d="M1286.49,430.51a20.74,20.74,0,0,0,.2,3.09h-2.35a7.53,7.53,0,0,1-.23-1.85c-.5.94-1.63,2.19-4.39,2.19-3.34,0-4.77-2.18-4.77-4.34,0-3.17,2.49-4.62,6.71-4.62h2.42v-1.21c0-1.25-.4-2.78-3.06-2.78-2.37,0-2.77,1.18-3,2.29h-2.37c.19-2,1.4-4.22,5.48-4.21,3.47,0,5.39,1.42,5.39,4.65Zm-2.39-3.83h-2.3c-2.83,0-4.35.78-4.35,2.79a2.5,2.5,0,0,0,2.77,2.55c3.42,0,3.88-2.31,3.88-4.88Z"/><path d="M1301.9,429.26a5.64,5.64,0,0,1-5.86,4.68c-3.91,0-6.33-2.81-6.33-7.36,0-4,2.27-7.51,6.5-7.51a5.3,5.3,0,0,1,5.69,4.75h-2.43a3.16,3.16,0,0,0-3.3-2.7c-2.52,0-3.94,2.15-3.94,5.38s1.38,5.4,3.85,5.4a3.36,3.36,0,0,0,3.38-2.64Z"/><path d="M1307.29,413.05v8.45a4.75,4.75,0,0,1,4.43-2.43c2.28,0,4.78,1.25,4.78,5.47v9.06h-2.44V425c0-2.41-1-3.75-3.09-3.75-2.55,0-3.68,1.68-3.68,4.64v7.76h-2.45V413.05Z"/><path d="M1322.15,427c0,2.89,1.47,4.94,3.89,4.94a3.27,3.27,0,0,0,3.42-2.2h2.47a5.77,5.77,0,0,1-6,4.25c-4.46,0-6.29-3.63-6.29-7.28,0-4.23,2.13-7.59,6.45-7.59,4.58,0,6.08,3.67,6.08,6.7a11.15,11.15,0,0,1,0,1.18Zm7.56-1.73c0-2.33-1.2-4.21-3.63-4.21s-3.59,1.74-3.84,4.21Z"/><path d="M1336.74,429.54a3.23,3.23,0,0,0,3.48,2.47c2.09,0,2.91-.9,2.91-2.19s-.65-1.95-3.36-2.6c-4.06-1-4.91-2.23-4.91-4.16s1.48-4,5.13-4,5.16,2.12,5.34,4.1H1343a2.79,2.79,0,0,0-3.08-2.2c-2,0-2.58,1-2.58,1.89s.58,1.59,3.19,2.21c4.3,1,5.16,2.46,5.16,4.57,0,2.48-2,4.3-5.5,4.3-3.68,0-5.48-1.86-5.85-4.4Z"/><path d="M1513.34,231.83h16.09v2.85h-12.82v8.12h12v2.85h-12v11.23h-3.27Z"/><path d="M1533,230.45h3.16v3.94H1533Zm0,8.17h3.16v18.26H1533Z"/><path d="M1541.59,243.22c0-1.58,0-3.18,0-4.6h3.07c.08.54.13,2.46.12,3a5.76,5.76,0,0,1,5.75-3.43c3.42,0,6.09,2.1,6.09,6.95v11.74h-3.15V245.54c0-2.76-1.07-4.62-3.86-4.62-3.44,0-4.83,2.62-4.83,6.29v9.67h-3.15Z"/><path d="M1575.33,252.9a29.72,29.72,0,0,0,.25,4h-3a10.5,10.5,0,0,1-.3-2.39c-.64,1.21-2.09,2.82-5.64,2.82-4.3,0-6.14-2.8-6.14-5.58,0-4.07,3.2-5.94,8.63-5.94h3.11v-1.55c0-1.61-.51-3.58-3.93-3.58-3,0-3.56,1.52-3.89,2.94h-3.05c.24-2.51,1.79-5.42,7-5.41,4.46,0,6.93,1.83,6.93,6Zm-3.07-4.92h-3c-3.64,0-5.59,1-5.59,3.58,0,1.9,1.31,3.28,3.56,3.28,4.39,0,5-3,5-6.28Z"/><path d="M1580.78,256.88V230.45h3.15v26.43Z"/><path d="M1599,231.83h9c7,0,11.8,4.8,11.8,12.27s-4.64,12.78-11.91,12.78H1599Zm3.32,22.23h5.26c5.89,0,8.69-4.22,8.69-9.89,0-4.94-2.55-9.52-8.68-9.52h-5.27Z"/><path d="M1626.19,248.32c0,3.72,1.89,6.35,5,6.35a4.21,4.21,0,0,0,4.41-2.82h3.17c-.72,2.34-2.68,5.46-7.68,5.46-5.74,0-8.08-4.67-8.08-9.36,0-5.43,2.74-9.76,8.29-9.76,5.88,0,7.81,4.73,7.81,8.62a14.64,14.64,0,0,1,0,1.51Zm9.72-2.22c0-3-1.55-5.41-4.67-5.41s-4.62,2.23-4.94,5.41Z"/><path d="M1645,251.65c.52,2,2,3.17,4.47,3.17,2.68,0,3.74-1.15,3.74-2.81s-.84-2.5-4.32-3.34c-5.22-1.27-6.31-2.87-6.31-5.35s1.9-5.13,6.59-5.13,6.64,2.73,6.87,5.27h-3c-.26-1.18-1.15-2.82-4-2.82-2.55,0-3.31,1.23-3.31,2.43,0,1.36.75,2,4.09,2.83,5.54,1.32,6.64,3.16,6.64,5.88,0,3.19-2.53,5.53-7.08,5.53-4.72,0-7-2.39-7.51-5.66Z"/><path d="M1660.45,230.45h3.15v3.94h-3.15Zm0,8.17h3.15v18.26h-3.15Z"/><path d="M1684,255.23c0,5.85-2.42,9.18-8.38,9.18-5.53,0-7.23-3.1-7.56-5.58h3.21c.53,2,2.14,3.06,4.49,3.06,4.14,0,5.17-2.63,5.17-6.83v-1.48c-1,2-2.65,3.21-5.7,3.21-4.5,0-7.56-3.66-7.56-9,0-6,3.47-9.59,7.88-9.59,3.48,0,5,1.64,5.38,2.85,0-.83.11-2,.15-2.42h3c0,1.06-.06,3.52-.06,5.27ZM1671,247.64c0,3.85,2,6.46,5,6.46,3.94,0,5.09-2.64,5.09-6.7s-1.08-6.53-5-6.53C1672.68,240.87,1671,243.69,1671,247.64Z"/><path d="M1689.4,243.22c0-1.58,0-3.18,0-4.6h3.06c.09.54.13,2.46.12,3a5.76,5.76,0,0,1,5.75-3.43c3.42,0,6.1,2.1,6.1,6.95v11.74h-3.15V245.54c0-2.76-1.08-4.62-3.87-4.62-3.44,0-4.83,2.62-4.83,6.29v9.67h-3.15Z"/><polygon class="cls-2" points="465.66 308.07 441.74 288.14 441.74 328 465.66 308.07"/><line class="cls-2" x1="136" y1="308.07" x2="441.64" y2="308.07"/><polygon class="cls-2" points="795.74 308.07 771.82 288.14 771.82 328 795.74 308.07"/><line class="cls-2" x1="466.07" y1="308.07" x2="771.72" y2="308.07"/><polygon class="cls-2" points="1125.81 308.07 1101.89 288.14 1101.89 328 1125.81 308.07"/><line class="cls-2" x1="796.15" y1="308.07" x2="1101.79" y2="308.07"/><polygon class="cls-2" points="1454.93 308.07 1431.01 288.14 1431.01 328 1454.93 308.07"/><line class="cls-2" x1="1125.26" y1="308.07" x2="1430.91" y2="308.07"/><polygon class="cls-2" points="1785 308.07 1761.08 288.14 1761.08 328 1785 308.07"/><line class="cls-2" x1="1455.34" y1="308.07" x2="1760.98" y2="308.07"/></g></svg>