<?xml version="1.0" encoding="utf-8"?>
<!-- Generator: Adobe Illustrator 25.2.1, SVG Export Plug-In . SVG Version: 6.00 Build 0)  -->
<svg version="1.1" id="Layer_1" xmlns="http://www.w3.org/2000/svg" xmlns:xlink="http://www.w3.org/1999/xlink" x="0px" y="0px"
	 viewBox="0 0 360 360" style="enable-background:new 0 0 360 360;" xml:space="preserve">
<style type="text/css">
	.st0{display:none;}
	.st1{fill:#F5F5F5;}
	.st2{fill:#F5F5F5;stroke:#000000;stroke-miterlimit:10;}
	.st3{fill:none;stroke:#4C665B;stroke-miterlimit:10;}
	.st4{fill:none;stroke:#000000;stroke-miterlimit:10;}
	.st5{fill:#4C665B;}
	.st6{display:inline;fill:#4C665B;}
	.st7{display:inline;}
	.st8{display:inline;fill:none;stroke:#000000;stroke-miterlimit:10;}
	.st9{display:inline;fill:none;stroke:#000000;stroke-width:1;stroke-miterlimit:9.9997;}
</style>
<g id="IMG" class="st0">
</g>
<path class="st1" d="M341.8,310.1L266.7,235c16.5-21.9,26.2-49.2,26.2-78.7c0-72.4-58.8-131.3-131.3-131.3S30.3,83.8,30.3,156.3
	s58.8,131.3,131.3,131.3c29.4,0,56.6-9.7,78.3-26l75.1,75.1c7.3,7.3,19.2,7.3,26.7,0l0,0C349.2,329.5,349.2,317.6,341.8,310.1z
	 M161.5,264.4c-59.6,0-108-48.3-108-108s48.3-108,108-108s108,48.3,108,108S221.2,264.4,161.5,264.4z"/>
<path class="st2" d="M133.4,129.2c4.9-4.3,8-10.6,8-17.6c0-12.9-10.5-23.2-23.2-23.2s-23.2,10.4-23.2,23.1c0,7,3.2,13.3,8,17.6
	c-12.9,0-23.2,10.5-23.2,23.2v9.5v4.2v18.8c0,3.2,2.6,5.7,5.7,5.7h65.3c3.2,0,5.7-2.6,5.7-5.7V166v-4.2v-9.5
	C156.5,139.6,146.2,129.2,133.4,129.2z"/>
<path class="st2" d="M220.2,130.6c4.9-4.3,8-10.6,8-17.6c0-12.9-10.5-23.2-23.2-23.2c-12.9,0-23.2,10.5-23.2,23.2
	c0,7,3.2,13.3,8,17.6c-12.9,0-23.2,10.5-23.2,23.2v9.5v4.2v18.8c0,3.2,2.6,5.7,5.7,5.7h65.1c3.2,0,5.7-2.6,5.7-5.7v-18.8v-4.2v-9.5
	C243.4,141,232.9,130.6,220.2,130.6z"/>
<line class="st3" x1="304.2" y1="272.6" x2="277.5" y2="299.3"/>
<line class="st3" x1="289" y1="257.3" x2="262.4" y2="284"/>
<path class="st4" d="M133,52.3c-45.7,12.6-79.4,54.5-79.4,104.2c0,59.6,48.3,108,108,108s108-48.3,108-108s-48.3-108-108-108
	c-1.6,0-3.4,0-5,0.1"/>
<path class="st5" d="M177.6,168.9c4.9-4.3,8-10.6,8-17.6c0-12.9-10.5-23.2-23.2-23.2c-12.9,0-23.2,10.5-23.2,23.2
	c0,7,3.2,13.3,8,17.6c-12.9,0-23.2,10.5-23.2,23.2v9.5v4.2v18.8c0,3.2,2.6,5.7,5.7,5.7h65.1c3.2,0,5.7-2.6,5.7-5.7v-18.8v-4.2v-9.5
	C200.8,179.3,190.5,168.9,177.6,168.9z"/>
<path class="st4" d="M341.8,310.1L266.7,235c16.5-21.9,26.2-49.2,26.2-78.7c0-72.4-58.8-131.3-131.3-131.3S30.3,83.8,30.3,156.3
	s58.8,131.3,131.3,131.3c29.4,0,56.6-9.7,78.3-26l75.1,75.1c7.3,7.3,19.2,7.3,26.7,0l0,0C349.2,329.5,349.2,317.6,341.8,310.1z"/>
<g id="backup" class="st0">
	<path class="st6" d="M436.3,8.1h-24.6c-10.5,0-19,8.5-19,19v7.7v3.4v15.4c0,2.6,2.1,4.7,4.7,4.7h53.3c2.6,0,4.7-2.1,4.7-4.7V38.2
		v-3.4v-7.7C455.3,16.6,446.8,8.1,436.3,8.1z"/>
	<circle class="st6" cx="424" cy="-6.4" r="19"/>
</g>
<g id="competitor" class="st0">
	<g class="st7">
		<path class="st4" d="M96.6,145.9H76.1l-6.7,10l-6.3-10H43.9c-3.4,0-6.2,2.8-6.2,6.2V218c0,3.4,2.8,6.2,6.2,6.2H47V281
			c0,4.9,3.9,8.8,8.8,8.8h4.3c4.9,0,8.8-3.9,8.8-8.8v-56.7h2.8V281c0,4.9,3.9,8.8,8.8,8.8h4.3c4.9,0,8.8-3.9,8.8-8.8v-56.7h3.1
			c3.4,0,6.2-2.8,6.2-6.2v-65.9C102.9,148.7,100.1,145.9,96.6,145.9z"/>
		<circle class="st4" cx="70.3" cy="118.3" r="22.6"/>
	</g>
	<g class="st7">
		<path class="st4" d="M168.3,145.9h-20.6l-6.7,10l-6.3-10h-19.2c-3.4,0-6.2,2.8-6.2,6.2V218c0,3.4,2.8,6.2,6.2,6.2h3.1V281
			c0,4.9,3.9,8.8,8.8,8.8h4.3c4.9,0,8.8-3.9,8.8-8.8v-56.7h2.8V281c0,4.9,3.9,8.8,8.8,8.8h4.3c4.9,0,8.8-3.9,8.8-8.8v-56.7h3.1
			c3.4,0,6.2-2.8,6.2-6.2v-65.9C174.5,148.7,171.7,145.9,168.3,145.9z"/>
		<circle class="st4" cx="141.9" cy="118.3" r="22.6"/>
	</g>
	<g class="st7">
		<path class="st5" d="M240,145.9h-20.6l-6.7,10l-6.3-10h-19.2c-3.4,0-6.2,2.8-6.2,6.2V218c0,3.4,2.8,6.2,6.2,6.2h3.1V281
			c0,4.9,3.9,8.8,8.8,8.8h4.3c4.9,0,8.8-3.9,8.8-8.8v-56.7h2.8V281c0,4.9,3.9,8.8,8.8,8.8h4.3c4.9,0,8.8-3.9,8.8-8.8v-56.7h3.1
			c3.4,0,6.2-2.8,6.2-6.2v-65.9C246.2,148.7,243.4,145.9,240,145.9z"/>
		<circle class="st5" cx="213.6" cy="118.3" r="22.6"/>
	</g>
	<g class="st7">
		<path class="st4" d="M311.6,145.9H291l-6.7,10l-6.3-10h-19.2c-3.4,0-6.2,2.8-6.2,6.2V218c0,3.4,2.8,6.2,6.2,6.2h3.1V281
			c0,4.9,3.9,8.8,8.8,8.8h4.3c4.9,0,8.8-3.9,8.8-8.8v-56.7h2.8V281c0,4.9,3.9,8.8,8.8,8.8h4.3c4.9,0,8.8-3.9,8.8-8.8v-56.7h3.1
			c3.4,0,6.2-2.8,6.2-6.2v-65.9C317.9,148.7,315.1,145.9,311.6,145.9z"/>
		<circle class="st4" cx="285.3" cy="118.3" r="22.6"/>
	</g>
	<circle class="st8" cx="113" cy="71.8" r="16.2"/>
	<circle class="st8" cx="178" cy="71.8" r="16.2"/>
	<ellipse transform="matrix(0.3417 -0.9398 0.9398 0.3417 92.4692 275.6345)" class="st9" cx="243" cy="71.8" rx="16.2" ry="16.2"/>
</g>
</svg>
