<?xml version="1.0" encoding="utf-8"?>
<!-- Generator: Adobe Illustrator 25.2.1, SVG Export Plug-In . SVG Version: 6.00 Build 0)  -->
<svg version="1.1" xmlns="http://www.w3.org/2000/svg" xmlns:xlink="http://www.w3.org/1999/xlink" x="0px" y="0px"
	 viewBox="0 0 360 360" style="enable-background:new 0 0 360 360;" xml:space="preserve">
<style type="text/css">
	.st0{fill:none;stroke:#000000;stroke-miterlimit:10;}
	.st1{fill:none;stroke:#4D675C;stroke-width:4;stroke-miterlimit:10;}
	.st2{fill:none;stroke:#4D675C;stroke-width:2;stroke-miterlimit:10;}
	.st3{fill:#4D675C;}
</style>
<g id="Layer_2">
	<line class="st0" x1="86.8" y1="87.3" x2="129.6" y2="75.9"/>
	<line class="st0" x1="199.7" y1="67.8" x2="274.2" y2="64.3"/>
	<line class="st0" x1="142.9" y1="95.3" x2="116.2" y2="147.9"/>
	<line class="st0" x1="60.6" y1="128.6" x2="69.6" y2="147.9"/>
	<line class="st0" x1="197.6" y1="82.8" x2="252.3" y2="132.4"/>
	<line class="st0" x1="301.1" y1="102.8" x2="283" y2="136.6"/>
	<line class="st0" x1="139.4" y1="197.8" x2="162.8" y2="197.8"/>
	<line class="st0" x1="208.8" y1="193.1" x2="233.6" y2="180.1"/>
	<line class="st0" x1="274.3" y1="202.4" x2="283" y2="221.8"/>
	<line class="st0" x1="172.9" y1="247" x2="123.9" y2="288"/>
	<line class="st0" x1="92.6" y1="236.4" x2="90.3" y2="260.8"/>
	<line class="st0" x1="198.9" y1="241.4" x2="242.3" y2="272.1"/>
	<line class="st0" x1="123.9" y1="293.3" x2="243.9" y2="280.9"/>
</g>
<g id="Layer_1">
	<circle class="st1" cx="45.9" cy="90.3" r="41.1"/>
	<circle class="st2" cx="46.8" cy="75.9" r="13.9"/>
	<polygon class="st3" points="62.7,117.1 66.6,99.2 61.2,93.4 50.7,93.4 46.6,102.7 42.5,93.4 31.9,93.4 26.6,99.2 30.5,117.1 	"/>
	<circle class="st1" cx="315.2" cy="64.3" r="41.1"/>
	<circle class="st2" cx="316.1" cy="49.9" r="13.9"/>
	<polygon class="st3" points="332,91 335.9,73.1 330.6,67.4 320.1,67.4 315.9,76.6 311.8,67.4 301.3,67.4 295.9,73.1 299.9,91 	"/>
	<circle class="st1" cx="289" cy="268.6" r="46.8"/>
	<circle class="st2" cx="290.1" cy="252.2" r="15.8"/>
	<polygon class="st3" points="308.2,299.1 312.6,278.7 306.5,272.1 294.5,272.1 289.8,282.6 285.1,272.1 273.2,272.1 267.1,278.7 
		271.5,299.1 	"/>
	<circle class="st1" cx="92.6" cy="189.6" r="46.8"/>
	<circle class="st2" cx="93.7" cy="173.2" r="15.8"/>
	<polygon class="st3" points="111.8,220.1 116.2,199.7 110.1,193.1 98.1,193.1 93.4,203.7 88.7,193.1 76.8,193.1 70.7,199.7 
		75.1,220.1 	"/>
	
		<ellipse transform="matrix(3.327794e-02 -0.9994 0.9994 3.327794e-02 -213.8021 374.7482)" class="st1" cx="86.8" cy="297.9" rx="37.1" ry="37.1"/>
	<circle class="st2" cx="87.6" cy="284.9" r="12.5"/>
	<polygon class="st3" points="102,322.1 105.5,305.9 100.7,300.7 91.2,300.7 87.4,309 83.7,300.7 74.2,300.7 69.4,305.9 72.9,322.1 
			"/>
	<ellipse transform="matrix(0.1602 -0.9871 0.9871 0.1602 58.3715 403.4148)" class="st1" cx="266.3" cy="167.4" rx="35" ry="35"/>
	
		<ellipse transform="matrix(0.1602 -0.9871 0.9871 0.1602 71.1571 393.8595)" class="st2" cx="267" cy="155.1" rx="11.8" ry="11.8"/>
	<polygon class="st3" points="280.6,190.2 283.9,175 279.4,170 270.4,170 266.9,177.9 263.4,170 254.4,170 249.8,175 253.1,190.2 	
		"/>
	<circle class="st2" cx="185.6" cy="152.5" r="17.8"/>
	<polygon class="st3" points="173.5,249.9 159.6,182.4 166.5,174.9 180,174.9 185.3,186.8 190.6,174.9 204.1,174.9 211,182.4 
		197.1,249.9 	"/>
	<circle class="st1" cx="164.7" cy="67.8" r="35"/>
	<circle class="st2" cx="165.4" cy="55.5" r="11.8"/>
	<polygon class="st3" points="179,90.6 182.3,75.4 177.8,70.4 168.8,70.4 165.3,78.3 161.7,70.4 152.8,70.4 148.2,75.4 151.5,90.6 	
		"/>
</g>
</svg>
