<?xml version="1.0" encoding="utf-8"?>
<!-- Generator: Adobe Illustrator 25.2.1, SVG Export Plug-In . SVG Version: 6.00 Build 0)  -->
<svg version="1.1" id="Layer_1" xmlns="http://www.w3.org/2000/svg" xmlns:xlink="http://www.w3.org/1999/xlink" x="0px" y="0px"
	 viewBox="0 0 360 360" style="enable-background:new 0 0 360 360;" xml:space="preserve">
<style type="text/css">
	.st0{fill:#4D675C;}
	.st1{fill:none;stroke:#050505;stroke-miterlimit:10;}
	.st2{fill:none;stroke:#000000;stroke-linecap:round;stroke-linejoin:round;}
	.st3{fill:none;stroke:#000000;stroke-width:2;stroke-miterlimit:10;}
	.st4{fill:none;stroke:#4D675C;stroke-width:8;stroke-miterlimit:10;}
	.st5{fill:#FFFFFF;}
</style>
<path class="st0" d="M356.8,246.8v44.6c0,13.6-11,24.6-24.6,24.6H28.2c-13.6,0-24.6-11-24.6-24.6v-44.6H356.8z"/>
<path class="st1" d="M78.5,152.7c-1.5,0-2.8,1.2-2.8,2.7c0,1.5,1.2,2.8,2.7,2.8c1.5,0,2.8-1.2,2.8-2.7
	C81.3,154,80.1,152.8,78.5,152.7C78.5,152.7,78.5,152.7,78.5,152.7z"/>
<path class="st0" d="M78.4,78.7c-30.4,0-55.1,24.6-55.1,55c0,30.4,24.6,55.1,55,55.1s55.1-24.6,55.1-55c0,0,0,0,0-0.1
	C133.4,103.4,108.8,78.7,78.4,78.7z M79.4,128.1c0.8-3.2,3.1-5.8,6.1-7.1c3.6-1.7,11.8-1.6,11.8-1.6s-3.2,5.1-4.5,7.4
	c-1.9,3.4-4.2,5.3-9.3,7.2c-3.7,1.4-5.2,1.8-5.2,1.8C78.4,133.2,79.4,128.1,79.4,128.1z M76,124.4c0.7,2.5,1,5,1,7.6
	c0,0-1.5-0.4-5.2-1.8c-5-1.9-7.3-3.8-9.3-7.2c-1.3-2.3-4.5-7.4-4.5-7.4s7.2-0.9,11.8,1.6C72.6,118.8,75.2,121.2,76,124.4z M79.4,106
	c0.8-3.2,3.1-5.8,6.1-7.1c3.6-1.7,11.8-1.6,11.8-1.6s-3.2,5.1-4.5,7.4c-1.9,3.4-4.2,5.3-9.3,7.2c-3.7,1.4-5.2,1.8-5.2,1.8
	C78.4,111.1,79.4,106,79.4,106z M76,102.3c0.7,2.5,1,5,1,7.6c0,0-1.5-0.4-5.2-1.8c-5-1.9-7.3-3.8-9.3-7.2c-1.3-2.3-4.5-7.4-4.5-7.4
	s7.2-0.9,11.8,1.6C72.6,96.7,75.2,99.1,76,102.3z M98.8,148.6c0,0.6-0.5,1.1-1.1,1.1h-3.2l-1.5,21.5c-0.1,1.6-1.4,2.8-3,2.8H66.3
	c-1.6,0-2.9-1.2-3-2.8l-1.5-21.5h-2.8c-0.6,0-1.1-0.4-1.1-1c0,0,0,0,0-0.1v-5.3c0-0.6,0.4-1.1,1-1.1c0,0,0.1,0,0.1,0h38.7
	c0.6,0,1.1,0.5,1.1,1.1c0,0,0,0,0,0.1L98.8,148.6z"/>
<line class="st2" x1="78.4" y1="113.7" x2="78.4" y2="140.8"/>
<path class="st3" d="M28.2,44h304c13.6,0,24.6,11,24.6,24.6v221.8c0,13.6-11,24.6-24.6,24.6h-304c-13.6,0-24.6-11-24.6-24.6V68.6
	C3.5,55,14.6,44,28.2,44z"/>
<line class="st2" x1="152" y1="109.5" x2="324.3" y2="109.5"/>
<line class="st4" x1="152" y1="137.6" x2="324.3" y2="137.6"/>
<line class="st4" x1="152" y1="165.6" x2="324.3" y2="165.6"/>
<path class="st5" d="M59,268h24.8c6,0,10.9,4.9,10.9,10.9v4.9c0,6-4.9,10.9-10.9,10.9H59c-6,0-10.9-4.9-10.9-10.9V279
	C48.1,272.9,53,268,59,268z"/>
<path class="st5" d="M135.5,268h24.8c6,0,10.9,4.9,10.9,10.9v4.9c0,6-4.9,10.9-10.9,10.9h-24.8c-6,0-10.9-4.9-10.9-10.9V279
	C124.6,272.9,129.5,268,135.5,268z"/>
<path class="st5" d="M212.1,268h24.8c6,0,10.9,4.9,10.9,10.9v4.9c0,6-4.9,10.9-10.9,10.9h-24.8c-6,0-10.9-4.9-10.9-10.9V279
	C201.1,272.9,206,268,212.1,268z"/>
<path class="st5" d="M288.6,268h24.8c6,0,10.9,4.9,10.9,10.9v4.9c0,6-4.9,10.9-10.9,10.9h-24.8c-6,0-10.9-4.9-10.9-10.9V279
	C277.7,272.9,282.6,268,288.6,268z"/>
</svg>
