<?xml version="1.0" encoding="utf-8"?>
<!-- Generator: Adobe Illustrator 25.2.1, SVG Export Plug-In . SVG Version: 6.00 Build 0)  -->
<svg version="1.1" id="Layer_1" xmlns="http://www.w3.org/2000/svg" xmlns:xlink="http://www.w3.org/1999/xlink" x="0px" y="0px"
	 viewBox="0 0 360 360" style="enable-background:new 0 0 360 360;" xml:space="preserve">
<style type="text/css">
	.st0{fill:none;stroke:#000000;stroke-width:2;stroke-miterlimit:10;}
	.st1{fill:#4D675C;}
	.st2{fill:none;stroke:#4D675C;stroke-miterlimit:10;}
</style>
<path class="st0" d="M54.6,164.4l-2.4-87.8c0-8.8-7.1-15.9-15.9-15.9h0l0,0c-8.8,0-15.9,7.1-15.9,15.9c0,0,0,0,0,0
	c0,0-3.4,136.2-3.3,139.7c0.5,11.2,4.1,22.1,10.3,31.5c5.9,8.9,48.1,48.8,50,51.2s11.8,14.1,15.7,17.6c3,2.4,6.3,4.5,9.8,6.3
	c1.2,0.6,2,1.9,2,3.3v12.3h57.3c0,0,2.4-24.9,0-36.2s-8.4-35.2-22.8-51.7c-8.5-9.8-13.1-14.1-24.5-21.4C100,219.6,63,169.3,63,169.3
	c-2.8-3.1-6.7-5-10.8-5.2H52c-4.2-0.2-8.3,1.2-11.4,4.1l0,0c-6.5,5.9-7.1,15.9-1.2,22.4c0,0,0,0,0,0c0,0,30.8,37.4,39.3,51.9
	c3.3,5.6,6.6,12.8,6.6,12.8"/>
<path class="st1" d="M175.3,82.3c0,0-5.5-1.5-18.8-6.5c-18.1-6.7-26.5-13.6-33.5-26c-4.7-8.3-16.2-26.6-16.2-26.6s29.8-0.5,42.8,5.7
	c10.4,4.9,18.4,12.2,22.3,25.8C174.2,63.7,175.4,73,175.3,82.3z"/>
<path class="st1" d="M180.3,96.1c0,0,5.4-1.5,18.8-6.5c18.1-6.7,26.6-13.6,33.6-26c4.6-8.3,16.2-26.6,16.2-26.6s-29.8-0.5-42.8,5.7
	c-10.4,4.9-18.4,12.2-22.3,25.8C181.5,77.5,180.3,86.8,180.3,96.1z"/>
<path class="st1" d="M175.3,162.1c0,0-5.5-1.5-18.8-6.5c-18.1-6.7-26.5-13.6-33.5-26.1c-4.7-8.3-16.2-26.6-16.2-26.6
	s29.8-0.4,42.8,5.7c10.4,4.9,18.4,12.2,22.3,25.8C174.2,143.5,175.4,152.8,175.3,162.1z"/>
<path class="st1" d="M180.3,175.8c0,0,5.4-1.5,18.8-6.5c18.1-6.7,26.6-13.6,33.6-26c4.6-8.3,16.2-26.6,16.2-26.6s-29.8-0.4-42.8,5.7
	c-10.4,4.9-18.4,12.2-22.3,25.8C181.5,157.3,180.3,166.5,180.3,175.8z"/>
<line class="st2" x1="180.3" y1="96.1" x2="180.3" y2="309"/>
<path class="st0" d="M303.7,164.4l2.4-87.8c0-8.8,7.1-15.9,15.9-15.9l0,0c8.8,0,15.9,7.1,15.9,15.8c0,0,0,0,0,0
	c0,0,3.4,136.2,3.3,139.7c-0.5,11.2-4.1,22.1-10.3,31.5c-5.9,8.9-48.1,48.8-50,51.2s-11.7,14.1-15.7,17.6c-3,2.4-6.3,4.5-9.8,6.3
	c-1.2,0.6-2,1.9-2,3.3v12.3h-57.3c0,0-2.3-24.9,0-36.2s8.5-35.2,22.8-51.7c8.5-9.8,13.1-14.1,24.5-21.4c15-9.6,51.9-59.9,51.9-59.9
	c2.8-3.1,6.7-5,10.8-5.2h0.2c4.2-0.2,8.3,1.2,11.4,4.1l0,0c6.5,5.9,7.1,15.9,1.2,22.4c0,0-30.8,37.3-39.4,51.9
	c-3.3,5.6-6.6,12.8-6.6,12.8"/>
</svg>
