<?xml version="1.0" encoding="utf-8"?>
<!-- Generator: Adobe Illustrator 25.2.1, SVG Export Plug-In . SVG Version: 6.00 Build 0)  -->
<svg version="1.1" xmlns="http://www.w3.org/2000/svg" xmlns:xlink="http://www.w3.org/1999/xlink" x="0px" y="0px"
	 viewBox="0 0 360 360" style="enable-background:new 0 0 360 360;" xml:space="preserve">
<style type="text/css">
	.st0{fill:none;stroke:#000000;stroke-miterlimit:10;}
	.st1{fill:none;stroke:#000000;stroke-width:2;stroke-miterlimit:10;}
	.st2{fill:none;stroke:#4D675C;stroke-width:2;stroke-miterlimit:10;}
	.st3{fill:#4D675C;}
</style>
<g id="Layer_2">
	<line class="st0" x1="85.1" y1="79" x2="128.5" y2="67.5"/>
	<line class="st0" x1="199.7" y1="61.2" x2="274.2" y2="57.6"/>
	<line class="st0" x1="142" y1="87.1" x2="114.9" y2="140.5"/>
	<line class="st0" x1="58.6" y1="120.9" x2="67.7" y2="140.5"/>
	<line class="st0" x1="197.4" y1="74.5" x2="253" y2="124.7"/>
	<line class="st0" x1="302.5" y1="94.8" x2="284.1" y2="129"/>
	<line class="st0" x1="138.4" y1="191.1" x2="162.2" y2="191.1"/>
	<line class="st0" x1="208.8" y1="186.3" x2="234" y2="173.2"/>
	<line class="st0" x1="275.2" y1="195.8" x2="284.2" y2="234.7"/>
	<line class="st0" x1="172.4" y1="240.9" x2="116.7" y2="304.5"/>
	<line class="st0" x1="91" y1="230.2" x2="82.8" y2="276.9"/>
	<line class="st0" x1="198.8" y1="235.3" x2="242.9" y2="285.7"/>
	<line class="st0" x1="116.7" y1="309.8" x2="244.6" y2="294.6"/>
</g>
<g id="Layer_1">
	<circle class="st1" cx="43.6" cy="82.1" r="41.6"/>
	<circle class="st2" cx="44.5" cy="67.5" r="14.1"/>
	<polygon class="st3" points="60.6,109.2 64.6,91.1 59.2,85.2 48.5,85.2 44.3,94.6 40.1,85.2 29.4,85.2 24,91.1 28,109.2 	"/>
	<circle class="st1" cx="316.8" cy="55.7" r="41.6"/>
	<circle class="st2" cx="316.1" cy="43.2" r="13.9"/>
	<polygon class="st3" points="333.8,82.8 337.7,64.7 332.3,58.8 321.7,58.8 317.5,68.2 313.3,58.8 302.6,58.8 297.2,64.7 
		301.2,82.8 	"/>
	<circle class="st1" cx="290.3" cy="282.1" r="47.4"/>
	<circle class="st2" cx="291.4" cy="265.5" r="16"/>
	<polygon class="st3" points="309.7,313 314.2,292.3 308,285.7 295.9,285.7 291.1,296.3 286.4,285.7 274.2,285.7 268,292.3 
		272.5,313 	"/>
	<circle class="st1" cx="91" cy="182.8" r="47.4"/>
	<circle class="st2" cx="92.1" cy="166.1" r="16"/>
	<polygon class="st3" points="110.4,213.7 114.9,193 108.7,186.3 96.6,186.3 91.8,197 87.1,186.3 74.9,186.3 68.7,193 73.3,213.7 	
		"/>
	
		<ellipse transform="matrix(3.327795e-02 -0.9994 0.9994 3.327795e-02 -237.8182 383.1815)" class="st1" cx="79.2" cy="314.5" rx="37.6" ry="37.6"/>
	<circle class="st2" cx="80" cy="301.3" r="12.7"/>
	<polygon class="st3" points="94.5,339 98.1,322.6 93.2,317.3 83.6,317.3 79.8,325.8 76,317.3 66.4,317.3 61.5,322.6 65.1,339 	"/>
	
		<ellipse transform="matrix(0.1602 -0.9871 0.9871 0.1602 66.129 398.2445)" class="st1" cx="267.1" cy="160.3" rx="35.5" ry="35.5"/>
	<ellipse transform="matrix(0.1602 -0.9871 0.9871 0.1602 79.0962 388.5535)" class="st2" cx="267.9" cy="147.8" rx="12" ry="12"/>
	<polygon class="st3" points="281.6,183.4 285,167.9 280.4,162.9 271.3,162.9 267.7,170.9 264.2,162.9 255,162.9 250.4,167.9 
		253.8,183.4 	"/>
	<circle class="st2" cx="185.3" cy="145.1" r="18.1"/>
	<polygon class="st3" points="173.1,243.9 159,175.4 165.9,167.9 179.6,167.9 185,179.9 190.4,167.9 204.1,167.9 211,175.4 
		197,243.9 	"/>
	<circle class="st1" cx="164.1" cy="59.2" r="35.5"/>
	<circle class="st2" cx="165.4" cy="48.9" r="11.8"/>
	<path class="st3" d="M179.1,80l2.5-11.6c0.2-1-0.1-2-0.7-2.7l-2.7-2.9c-0.6-0.6-1.4-1-2.2-1h-5.8c-1.2,0-2.3,0.7-2.8,1.8v0
		c-1.1,2.4-4.5,2.4-5.5,0v0c-0.5-1.1-1.6-1.8-2.8-1.8h-5.8c-0.8,0-1.7,0.4-2.2,1l-2.7,2.9c-0.7,0.7-0.9,1.7-0.7,2.7l2.5,11.6
		c0.3,1.4,1.5,2.4,3,2.4h23C177.6,82.4,178.8,81.4,179.1,80z"/>
</g>
</svg>
