<?xml version="1.0" encoding="utf-8"?>
<!-- Generator: Adobe Illustrator 25.2.1, SVG Export Plug-In . SVG Version: 6.00 Build 0)  -->
<svg version="1.1" id="Layer_1" xmlns="http://www.w3.org/2000/svg" xmlns:xlink="http://www.w3.org/1999/xlink" x="0px" y="0px"
	 viewBox="0 0 360 360" style="enable-background:new 0 0 360 360;" xml:space="preserve">
<style type="text/css">
	.st0{fill:none;stroke:#000000;stroke-width:3;stroke-miterlimit:10;}
	.st1{fill:none;stroke:#000000;stroke-miterlimit:10;}
</style>
<path class="st0" d="M115.1,318"/>
<path class="st0" d="M115.1,334.6"/>
<path class="st1" d="M109.8,351.2"/>
<path class="st1" d="M249.6,351.2"/>
<path class="st0" d="M206.7,275.2v6.2"/>
<path class="st0" d="M152.6,275.2v6.2"/>
<path class="st0" d="M244.4,168.3l0,48.5c-0.2,35.5-29.1,64.5-64.8,64.5s-64.6-28.9-64.6-64.5l0-48.5"/>
<path class="st0" d="M216.7,136.3c15.6,2.2,27.7,15.7,27.7,32"/>
<path class="st0" d="M211.9,114.5c3,0,5.4,2.4,5.4,5.4v16.6"/>
<path class="st0" d="M168.9,114.5h43c3,0,5.4,2.4,5.4,5.4"/>
<path class="st0" d="M115.1,168.3c0-29.6,24.1-53.8,53.8-53.8"/>
<path class="st0" d="M226.5,175.3"/>
<path class="st0" d="M244.4,208.4l-22.9-22.9"/>
<path class="st0" d="M221.5,185.5c-0.9,0.5-17.7,9.7-41.8,9.7s-41-9.2-41.9-9.7"/>
<path class="st0" d="M179.7,184.4"/>
<path class="st0" d="M137.8,185.5l-22.7,22.7"/>
<path class="st0" d="M174.6,290.3"/>
<path class="st0" d="M109.8,351.2c-8.9,0-16.2-7.2-16.2-16.1v-16.3c0-20.8,16.9-37.6,37.6-37.6h21.6l11.9,10l15-4.9l15,5l11.9-10.1
	H228c20.8,0,37.8,16.9,37.8,37.6V335c-0.1,8.9-7.3,16.2-16.2,16.2H109.8z"/>
<path class="st0" d="M50.6,218.5c-20.8,0-37.6-16.9-37.6-37.6s16.9-37.6,37.6-37.6c10.1,0,19.5,3.9,26.6,11s11,16.6,11,26.6
	C88.3,201.6,71.4,218.5,50.6,218.5z"/>
<g>
	<path d="M50.8,202.4c-3,0-5.4-2.4-5.4-5.4s2.4-5.4,5.3-5.4h0.1c3,0,5.4,2.4,5.4,5.4C56.2,200,53.7,202.4,50.8,202.4z"/>
	<path d="M50.6,186.3c-3,0-5.4-2.4-5.4-5.4v-16.1c0-3,2.4-5.4,5.4-5.4s5.4,2.4,5.4,5.4v16.1C56,183.9,53.6,186.3,50.6,186.3z"/>
</g>
<path class="st0" d="M104.3,180.9H88.2"/>
<path class="st0" d="M308.7,218.5c-20.8,0-37.6-16.9-37.6-37.7s16.9-37.6,37.6-37.6s37.6,16.9,37.6,37.6
	C346.4,201.6,329.5,218.5,308.7,218.5z"/>
<g>
	<path d="M308.9,202.4c-3,0-5.4-2.4-5.4-5.4s2.4-5.4,5.3-5.4h0.1c3,0,5.4,2.4,5.4,5.4C314.3,200,311.9,202.4,308.9,202.4z"/>
	<path d="M308.7,186.3c-3,0-5.4-2.4-5.4-5.4v-16.1c0-3,2.4-5.4,5.4-5.4s5.4,2.4,5.4,5.4v16.1C314.1,183.9,311.7,186.3,308.7,186.3z"
		/>
</g>
<path class="st0" d="M271.1,180.9H255"/>
<path class="st0" d="M274.7,121.7L274.7,121.7c-20.8,0-37.6-16.9-37.6-37.7s16.9-37.6,37.6-37.6c20.8,0,37.6,16.9,37.6,37.6
	C312.4,104.8,295.5,121.7,274.7,121.7z"/>
<g>
	<path d="M274.9,105.5c-3,0-5.4-2.4-5.4-5.4s2.4-5.4,5.3-5.4h0.1c3,0,5.4,2.4,5.4,5.4S277.9,105.5,274.9,105.5z"/>
	<path d="M274.7,89.4c-3,0-5.4-2.4-5.4-5.4V67.9c0-3,2.4-5.4,5.4-5.4l0,0c3,0,5.4,2.4,5.4,5.4V84C280.1,87,277.7,89.4,274.7,89.4z"
		/>
</g>
<path class="st0" d="M236.3,121.7l11.4-11.4"/>
<path class="st0" d="M179.7,82.3L179.7,82.3c-20.8,0-37.6-16.9-37.6-37.7C142,23.9,158.9,7,179.7,7s37.6,16.9,37.6,37.6
	C217.3,65.4,200.4,82.3,179.7,82.3z"/>
<g>
	<path d="M179.6,66.1c-3,0-5.4-2.4-5.4-5.4s2.4-5.4,5.3-5.4h0.1c3,0,5.4,2.4,5.4,5.4S182.6,66.1,179.6,66.1z"/>
	<path d="M179.7,50c-3,0-5.4-2.4-5.4-5.4V28.5c0-3,2.4-5.4,5.4-5.4s5.4,2.4,5.4,5.4v16.1C185,47.6,182.6,50,179.7,50z"/>
</g>
<path class="st0" d="M179.7,82.2v16.1"/>
<path class="st0" d="M84.6,121.7c-10.1,0-19.5-3.9-26.6-11C50.9,103.5,47,94,47,84c0-20.8,16.9-37.6,37.6-37.6
	c20.8,0,37.6,16.9,37.6,37.6C122.3,104.7,105.4,121.6,84.6,121.7z"/>
<g>
	<path d="M84.8,105.5c-3,0-5.4-2.4-5.4-5.4s2.4-5.4,5.3-5.4h0.1c3,0,5.4,2.4,5.4,5.4C90.2,103.1,87.8,105.5,84.8,105.5z"/>
	<path d="M84.6,89.4c-3,0-5.4-2.4-5.4-5.4V67.9c0-3,2.4-5.4,5.4-5.4s5.4,2.4,5.4,5.4V84C90,87,87.6,89.4,84.6,89.4z"/>
</g>
<path class="st0" d="M120.8,122.9l-11.4-11.4"/>
</svg>
