<?xml version="1.0" encoding="utf-8"?>
<!-- Generator: Adobe Illustrator 25.2.1, SVG Export Plug-In . SVG Version: 6.00 Build 0)  -->
<svg version="1.1" id="Layer_1" xmlns="http://www.w3.org/2000/svg" xmlns:xlink="http://www.w3.org/1999/xlink" x="0px" y="0px"
	 viewBox="0 0 360 360" style="enable-background:new 0 0 360 360;" xml:space="preserve">
<style type="text/css">
	.st0{fill:#F5F5F5;stroke:#000000;stroke-miterlimit:10;}
	.st1{fill:#4C665B;}
	.st2{fill:#F5F5F5;stroke:#000000;stroke-width:1;stroke-miterlimit:10.0002;}
</style>
<path class="st0" d="M78.4,154.1H53l-8.3,12.3l-7.8-12.3H13.2c-4.2,0-7.7,3.5-7.7,7.7l0,0v81.4c0,4.2,3.5,7.7,7.7,7.7l0,0H17v70.1
	c0,6.1,4.8,10.9,10.9,10.9l0,0h5.3c5.9,0,10.9-4.8,10.9-10.9l0,0v-70h3.5v70c0,6.1,4.8,10.9,10.9,10.9l0,0h5.3
	c6.1,0,10.9-4.8,10.9-10.9l0,0v-70h3.8c4.2,0,7.7-3.5,7.7-7.7l0,0v-81.4C86.1,157.6,82.6,154.1,78.4,154.1L78.4,154.1z"/>
<circle class="st0" cx="45.8" cy="120" r="27.9"/>
<path class="st0" d="M166.8,154.1h-25.3l-8.3,12.3l-7.8-12.3h-23.7c-4.2,0-7.7,3.5-7.7,7.7l0,0v81.4c0,4.2,3.5,7.7,7.7,7.7l0,0h3.8
	v70.1c0,6.1,4.8,10.9,10.9,10.9l0,0h5.3c5.9,0,10.9-4.8,10.9-10.9l0,0v-70h3.5v70c0,6.1,4.8,10.9,10.9,10.9l0,0h5.3
	c6.1,0,10.9-4.8,10.9-10.9l0,0v-70h3.8c4.2,0,7.7-3.5,7.7-7.7l0,0v-81.4C174.6,157.6,171.1,154.1,166.8,154.1
	C166.9,154.1,166.8,154.1,166.8,154.1z"/>
<circle class="st0" cx="134.3" cy="120" r="27.9"/>
<path class="st1" d="M255.4,154.1h-25.4l-8.3,12.3l-7.8-12.3h-23.7c-4.2,0-7.7,3.5-7.7,7.7l0,0v81.4c0,4.2,3.5,7.7,7.7,7.7l0,0h3.8
	v70.1c0,6.1,4.8,10.9,10.9,10.9l0,0h5.3c5.9,0,10.9-4.8,10.9-10.9l0,0v-70h3.5v70c0,6.1,4.8,10.9,10.9,10.9l0,0h5.3
	c6.1,0,10.9-4.8,10.9-10.9l0,0v-70h3.8c4.2,0,7.7-3.5,7.7-7.8l0,0v-81.4C263,157.6,259.7,154.1,255.4,154.1z"/>
<circle class="st1" cx="222.8" cy="120" r="27.9"/>
<path class="st0" d="M343.9,154.1h-25.4l-8.3,12.3l-7.8-12.3h-23.7c-4.2,0-7.7,3.5-7.7,7.7l0,0v81.4c0,4.2,3.5,7.7,7.7,7.7l0,0h3.8
	v70.1c0,6.1,4.8,10.9,10.9,10.9l0,0h5.3c5.9,0,10.9-4.8,10.9-10.9l0,0v-70h3.5v70c0,6.1,4.8,10.9,10.9,10.9l0,0h5.3
	c5.9,0,10.9-4.8,10.9-10.9l0,0v-70h3.8c4.2,0,7.7-3.5,7.7-7.7l0,0v-81.4C351.6,157.6,348.1,154.1,343.9,154.1L343.9,154.1z"/>
<ellipse transform="matrix(0.1602 -0.9871 0.9871 0.1602 143.0493 408.0728)" class="st2" cx="311.3" cy="120" rx="27.9" ry="27.9"/>
<circle class="st0" cx="98.7" cy="48.6" r="20"/>
<circle class="st0" cx="178.9" cy="48.6" r="20"/>
<circle class="st0" cx="259.2" cy="48.6" r="20"/>
</svg>
