<?xml version="1.0" encoding="utf-8"?>
<!-- Generator: Adobe Illustrator 25.2.1, SVG Export Plug-In . SVG Version: 6.00 Build 0)  -->
<svg version="1.1" xmlns="http://www.w3.org/2000/svg" xmlns:xlink="http://www.w3.org/1999/xlink" x="0px" y="0px"
	 viewBox="0 0 360 360" style="enable-background:new 0 0 360 360;" xml:space="preserve">
<style type="text/css">
	.st0{fill:#4C665B;}
	.st1{fill:none;stroke:#000000;stroke-width:3;stroke-linecap:round;stroke-linejoin:round;stroke-miterlimit:10;}
	.st2{fill:#4C665B;stroke:#000000;stroke-width:3;stroke-linecap:round;stroke-linejoin:round;stroke-miterlimit:10;}
</style>
<g id="Layer_2">
	<path class="st0" d="M342.7,225.2h-31.4c3.4,5.3,5.2,11.5,5.2,17.9c0,18.4-15,33.3-33.4,33.3s-33.3-15-33.3-33.4
		c0-6.3,1.8-12.4,5.2-17.8h-31.4v42.6c0,2.7-2.2,4.9-4.9,4.9c-1.6,0-3-0.7-3.9-2c-4.4-5.9-11.4-9.4-18.8-9.4
		c-13-0.1-23.6,10.4-23.6,23.4c-0.1,13,10.4,23.6,23.4,23.6c7.5,0,14.5-3.5,19-9.5c1.6-2.2,4.7-2.6,6.8-1c1.3,0.9,2,2.4,2,3.9v42.6
		h119.1L342.7,225.2z"/>
</g>
<g id="Icons">
	<path class="st1" d="M223.6,215.3h42.6c2.7,0,4.9,2.2,4.9,4.9c0,1.5-0.7,3-2,3.9c-6,4.4-9.5,11.4-9.5,18.8
		c0,13,10.6,23.5,23.6,23.5s23.5-10.5,23.5-23.5c0-7.4-3.5-14.4-9.5-18.8c-2.2-1.6-2.6-4.7-1-6.8c0.9-1.2,2.4-1.9,3.9-2h42.6V96.2
		H223.6v31.4c5.3-3.4,11.5-5.2,17.9-5.2c18.4,0,33.3,14.9,33.3,33.3S259.9,189,241.5,189c-6.3,0-12.5-1.8-17.9-5.2V215.3
		L223.6,215.3z"/>
	<path class="st1" d="M342.7,294v-12.5"/>
	<path class="st1" d="M306.7,243"/>
	<path d="M347.6,354"/>
	<path class="st1" d="M342.7,251.5v-26.3h-31.4c3.4,5.3,5.2,11.5,5.2,17.9c0,18.4-15,33.3-33.4,33.3s-33.3-15-33.3-33.4
		c0-6.3,1.8-12.4,5.2-17.8h-31.4v42.6c0,2.7-2.2,4.9-4.9,4.9c-1.6,0-3-0.7-3.9-2c-4.4-5.9-11.4-9.4-18.8-9.4
		c-13-0.1-23.6,10.4-23.6,23.4c-0.1,13,10.4,23.6,23.4,23.6c7.5,0,14.5-3.5,19-9.5c1.6-2.2,4.7-2.6,6.8-1c1.3,0.9,2,2.4,2,3.9v42.6
		h119.1v-20"/>
	<path class="st1" d="M94.7,344.2h119.1v-31.4c-5.3,3.4-11.5,5.2-17.9,5.2c-18.4,0-33.3-14.9-33.3-33.3s14.9-33.3,33.3-33.3
		c6.3,0,12.5,1.8,17.9,5.2v-31.4h-42.6c-2.7,0-4.9-2.2-4.9-4.9c0-1.5,0.7-3,2-3.9c6-4.4,9.5-11.4,9.5-18.8c0-13-10.5-23.5-23.6-23.5
		c-13,0-23.5,10.5-23.5,23.5c0,7.4,3.5,14.4,9.5,18.8c2.2,1.6,2.6,4.7,1,6.8c-0.9,1.2-2.4,1.9-3.9,2H94.7V344.2z"/>
	<path class="st2" d="M108.1,141h31.4V98.4c0-2.7,2.2-4.9,4.9-4.9c1.5,0,3,0.7,3.9,2c4.4,6,11.4,9.5,18.8,9.5
		c13,0,23.5-10.5,23.5-23.6c0-13-10.5-23.5-23.5-23.5c-7.4,0-14.4,3.5-18.8,9.5c-1.6,2.2-4.7,2.6-6.8,1c-1.2-0.9-1.9-2.4-2-3.9V21.8
		H20.3V141h31.4c-3.4-5.3-5.2-11.5-5.2-17.9c0-18.4,15-33.3,33.4-33.3s33.3,15,33.3,33.4C113.2,129.5,111.4,135.6,108.1,141z"/>
</g>
</svg>
