<?xml version="1.0" encoding="utf-8"?>
<!-- Generator: Adobe Illustrator 25.2.1, SVG Export Plug-In . SVG Version: 6.00 Build 0)  -->
<svg version="1.1" id="Layer_1" xmlns="http://www.w3.org/2000/svg" xmlns:xlink="http://www.w3.org/1999/xlink" x="0px" y="0px"
	 viewBox="0 0 360 360" style="enable-background:new 0 0 360 360;" xml:space="preserve">
<style type="text/css">
	.st0{fill:none;stroke:#000000;stroke-width:5;stroke-miterlimit:10;}
</style>
<path class="st0" d="M283.4,314.9H75.6c-28.5,0-51.6-23.1-51.6-51.6c0-9.7,2.7-19.1,7.8-27.3L135.7,69.4
	c9.5-15.2,25.9-24.3,43.8-24.3s34.3,9.1,43.8,24.3L327.2,236c5.1,8.2,7.8,17.6,7.8,27.3C335,291.8,311.9,314.9,283.4,314.9z"/>
<g>
	<path d="M179.5,261.6c-3.8,0-6.8-3.2-6.8-7.2s3-7.2,6.6-7.2h0.1c3.8,0,6.8,3.2,6.8,7.2C186.3,258.4,183.2,261.6,179.5,261.6z"/>
	<path d="M179.5,226.5c-3.8,0-6.8-3.2-6.8-7.2v-82.4c0-4,3-7.2,6.8-7.2c3.8,0,6.8,3.2,6.8,7.2v82.4
		C186.3,223.3,183.2,226.5,179.5,226.5z"/>
</g>
</svg>
