<?xml version="1.0" encoding="utf-8"?>
<!-- Generator: Adobe Illustrator 25.2.1, SVG Export Plug-In . SVG Version: 6.00 Build 0)  -->
<svg version="1.1" id="Layer_1" xmlns="http://www.w3.org/2000/svg" xmlns:xlink="http://www.w3.org/1999/xlink" x="0px" y="0px"
	 viewBox="0 0 360 360" style="enable-background:new 0 0 360 360;" xml:space="preserve">
<style type="text/css">
	.st0{fill:#4D675C;}
	.st1{fill:none;stroke:#050505;stroke-miterlimit:10;}
	.st2{fill:none;stroke:#000000;stroke-linecap:round;stroke-linejoin:round;}
	.st3{fill:none;stroke:#4D675C;stroke-width:6;stroke-miterlimit:10;}
	.st4{fill:#FFFFFF;}
</style>
<path class="st0" d="M356.8,228.9v44.6c0,13.6-11,24.6-24.6,24.6H28.2c-13.6,0-24.6-11-24.6-24.6v-44.6H356.8z"/>
<path class="st1" d="M78.5,158c-1.5,0-2.8,1.2-2.8,2.7c0,1.5,1.2,2.8,2.7,2.8c1.5,0,2.8-1.2,2.8-2.7C81.3,159.3,80.1,158,78.5,158
	C78.5,158,78.5,158,78.5,158z"/>
<path class="st1" d="M78.4,84c-30.4,0-55.1,24.6-55.1,55c0,30.4,24.6,55.1,55,55.1s55.1-24.6,55.1-55c0,0,0,0,0-0.1
	C133.4,108.6,108.8,84,78.4,84z M79.4,133.4c0.8-3.2,3.1-5.8,6.1-7.1c3.6-1.7,11.8-1.6,11.8-1.6s-3.2,5.1-4.5,7.4
	c-1.9,3.4-4.2,5.3-9.3,7.2c-3.7,1.4-5.2,1.8-5.2,1.8C78.4,138.5,79.4,133.4,79.4,133.4z M76,129.6c0.7,2.5,1,5,1,7.6
	c0,0-1.5-0.4-5.2-1.8c-5-1.9-7.3-3.8-9.3-7.2c-1.3-2.3-4.5-7.4-4.5-7.4s7.2-0.9,11.8,1.6C72.6,124,75.2,126.4,76,129.6z M79.4,111.3
	c0.8-3.2,3.1-5.8,6.1-7.1c3.6-1.7,11.8-1.6,11.8-1.6s-3.2,5.1-4.5,7.4c-1.9,3.4-4.2,5.3-9.3,7.2c-3.7,1.4-5.2,1.8-5.2,1.8
	C78.4,116.4,79.4,111.3,79.4,111.3z M76,107.5c0.7,2.5,1,5,1,7.6c0,0-1.5-0.4-5.2-1.8c-5-1.9-7.3-3.8-9.3-7.2
	c-1.3-2.3-4.5-7.4-4.5-7.4s7.2-0.9,11.8,1.6C72.6,101.9,75.2,104.3,76,107.5z M98.8,153.9c0,0.6-0.5,1.1-1.1,1.1h-3.2l-1.5,21.5
	c-0.1,1.6-1.4,2.8-3,2.8H66.3c-1.6,0-2.9-1.2-3-2.8l-1.5-21.5h-2.8c-0.6,0-1.1-0.4-1.1-1c0,0,0,0,0-0.1v-5.3c0-0.6,0.4-1.1,1-1.1
	c0,0,0.1,0,0.1,0h38.7c0.6,0,1.1,0.5,1.1,1.1c0,0,0,0,0,0.1L98.8,153.9z"/>
<line class="st2" x1="78.4" y1="119" x2="78.4" y2="146"/>
<path class="st3" d="M28.2,62h304c13.6,0,24.6,11,24.6,24.6v186c0,13.6-11,24.6-24.6,24.6h-304c-13.6,0-24.6-11-24.6-24.6v-186
	C3.5,73,14.6,62,28.2,62z"/>
<line class="st2" x1="152" y1="114.8" x2="324.3" y2="114.8"/>
<line class="st2" x1="152" y1="142.8" x2="324.3" y2="142.8"/>
<line class="st2" x1="152" y1="170.9" x2="324.3" y2="170.9"/>
<path class="st4" d="M59,250.1h24.8c6,0,10.9,4.9,10.9,10.9v4.9c0,6-4.9,10.9-10.9,10.9H59c-6,0-10.9-4.9-10.9-10.9v-4.9
	C48.1,255,53,250.1,59,250.1z"/>
<path class="st4" d="M135.5,250.1h24.8c6,0,10.9,4.9,10.9,10.9v4.9c0,6-4.9,10.9-10.9,10.9h-24.8c-6,0-10.9-4.9-10.9-10.9v-4.9
	C124.6,255,129.5,250.1,135.5,250.1z"/>
<path class="st4" d="M212.1,250.1h24.8c6,0,10.9,4.9,10.9,10.9v4.9c0,6-4.9,10.9-10.9,10.9h-24.8c-6,0-10.9-4.9-10.9-10.9v-4.9
	C201.1,255,206,250.1,212.1,250.1z"/>
<path class="st4" d="M288.6,250.1h24.8c6,0,10.9,4.9,10.9,10.9v4.9c0,6-4.9,10.9-10.9,10.9h-24.8c-6,0-10.9-4.9-10.9-10.9v-4.9
	C277.7,255,282.6,250.1,288.6,250.1z"/>
</svg>
