<svg xmlns="http://www.w3.org/2000/svg" viewBox="0 0 144 144"><defs><style>.cls-1{fill:#f4f4f4;}.cls-2{fill:#878787;}.cls-3{fill:#e8e8e8;}.cls-4{fill:#edd1b0;}.cls-5{fill:#ffe1ab;}.cls-6{fill:#c6c6c6;}.cls-7{fill:#edd1bc;}.cls-8{fill:none;stroke:#c19874;stroke-miterlimit:10;}</style></defs><g id="circle"><circle class="cls-1" cx="72" cy="72" r="72"/></g><g id="vector"><path class="cls-2" d="M25.46,126.94a72,72,0,0,0,93.08,0V118.8a5.55,5.55,0,0,0-2-3.54,8.7,8.7,0,0,0-3.42-1.68l-4-1.18c-4.88-1.39-9.83-2.56-14.62-4.21-2.75-1-5.44-2.06-8.1-3.23l-3.54,12.18a7.33,7.33,0,0,1-1.16,2.32c-.11.13-.21.27-.32.41-.38.51-.77.51-1.15,0L72,108.76l-8.24,11.11c-.38.51-.77.51-1.15,0l-.32-.41a7.33,7.33,0,0,1-1.16-2.32L57.59,105c-2.66,1.17-5.35,2.28-8.1,3.23-4.79,1.65-9.74,2.82-14.62,4.21l-4,1.18a8.7,8.7,0,0,0-3.42,1.68,5.55,5.55,0,0,0-1.95,3.54Z"/><path class="cls-3" d="M49.25,57.11H78.62L79,51.25l.71-.67.9,6.53h2.58c.3-1.25.61-2.5.91-3.75l.62.25c.34,1.17.68,2.34,1,3.5h9.07a23.41,23.41,0,0,0-.42-12.72,19.71,19.71,0,0,0-5.71-8.55A20.43,20.43,0,0,0,83,32.41a11.5,11.5,0,0,0,1.19-5.81,10.94,10.94,0,0,0-4-7.22,12.23,12.23,0,0,0-6-2.66,17.71,17.71,0,0,0-4.6,0,12.23,12.23,0,0,0-6,2.66,10.94,10.94,0,0,0-4,7.22A11.5,11.5,0,0,0,61,32.41a20.43,20.43,0,0,0-5.6,3.43,19.71,19.71,0,0,0-5.71,8.55A23.41,23.41,0,0,0,49.25,57.11Z"/><path class="cls-4" d="M94.75,57.11V71.75a14.78,14.78,0,0,0,3-8A8,8,0,0,0,97,59.61,7.09,7.09,0,0,0,94.75,57.11Z"/><path class="cls-4" d="M49.25,57.11V71.75a14.78,14.78,0,0,1-3-8A8,8,0,0,1,47,59.61,7.09,7.09,0,0,1,49.25,57.11Z"/><path class="cls-5" d="M85.68,57.11h9.07V69.49a14.11,14.11,0,0,1-1.61,6.71,43.51,43.51,0,0,1-2.26,3.93,72.77,72.77,0,0,1-5.19,6.76c-3,3.58-6.19,7.38-10.45,8.55a13.75,13.75,0,0,1-2.86.45l-.38,0-.38,0a13.75,13.75,0,0,1-2.86-.45c-4.26-1.17-7.47-5-10.45-8.55a72.77,72.77,0,0,1-5.19-6.76,43.51,43.51,0,0,1-2.26-3.93,14.11,14.11,0,0,1-1.61-6.71V57.11H78.62L79,51.25l.71-.67.9,6.53h2.58c.3-1.25.61-2.5.91-3.75l.62.25C85,54.78,85.35,56,85.68,57.11Z"/><path class="cls-6" d="M63.76,119.87,72,108.76,61.24,103l-3.65,2,3.54,12.18a7.33,7.33,0,0,0,1.16,2.32l.32.41C63,120.38,63.38,120.38,63.76,119.87Z"/><path class="cls-6" d="M80.24,119.87,72,108.76,82.76,103l3.65,2-3.54,12.18a7.33,7.33,0,0,1-1.16,2.32c-.11.13-.21.27-.32.41C81,120.38,80.62,120.38,80.24,119.87Z"/><path class="cls-7" d="M61.24,103,72,108.76,82.76,103V90.27c-2.19,2.34-4.61,4.37-7.52,5.17a13.75,13.75,0,0,1-2.86.45l-.38,0-.38,0a13.75,13.75,0,0,1-2.86-.45c-2.91-.8-5.33-2.83-7.52-5.17Z"/></g><g id="mouth"><line class="cls-8" x1="67.21" y1="81.5" x2="76.79" y2="81.5"/></g></svg>