<svg xmlns="http://www.w3.org/2000/svg" viewBox="0 0 144 144"><defs><style>.cls-1{fill:#f4f4f4;}.cls-2{fill:#fff;}.cls-3{fill:#68605f;}.cls-4{fill:#938d8c;}.cls-5{fill:#6d5345;}.cls-6{fill:#42312a;}.cls-7{fill:#383838;}.cls-8{fill:none;stroke:#000;stroke-miterlimit:10;}</style></defs><g id="circle"><circle class="cls-1" cx="72" cy="72" r="72"/></g><g id="vector"><path class="cls-2" d="M72,113.72a10.46,10.46,0,0,1-10.46-10.4l-3.89,1.94,7.44,38.41a72.51,72.51,0,0,0,13.82,0l7.44-38.41-3.89-1.94A10.46,10.46,0,0,1,72,113.72Z"/><path class="cls-3" d="M91.65,141.27c.63-3.19,1.27-6.38,1.9-9.57l-2.8-5.06,4.12-.33q1.59-8.49,3.17-17c3.67,1.1,7.4,2,11.09,3.08,1.35.38,2.7.79,4,1.18a8.7,8.7,0,0,1,3.42,1.68,5.51,5.51,0,0,1,2,3.54v8.14A69.81,69.81,0,0,1,91.65,141.27Z"/><path class="cls-3" d="M52.35,141.27c-.63-3.19-1.27-6.38-1.9-9.57l2.8-5.06-4.12-.33q-1.59-8.49-3.17-17c-3.67,1.1-7.4,2-11.09,3.08-1.35.38-2.7.79-4,1.18a8.7,8.7,0,0,0-3.42,1.68,5.51,5.51,0,0,0-1.95,3.54v8.14A69.81,69.81,0,0,0,52.35,141.27Z"/><path class="cls-4" d="M52.35,141.27a67.52,67.52,0,0,0,12,2.32l.77.07L57.59,105A98.61,98.61,0,0,1,46,109.32q1.57,8.49,3.17,17l4.12.33-2.8,5.06C51.08,134.89,51.72,138.08,52.35,141.27Z"/><path class="cls-4" d="M91.65,141.27a67.52,67.52,0,0,1-12,2.32l-.77.07,7.5-38.7A98.61,98.61,0,0,0,98,109.32q-1.58,8.49-3.17,17l-4.12.33,2.8,5.06C92.92,134.89,92.28,138.08,91.65,141.27Z"/><path class="cls-5" d="M81.73,38.76A20.32,20.32,0,0,1,78.88,43a28.88,28.88,0,0,1-6.61,5.19A68.39,68.39,0,0,1,59.69,54.4a60.05,60.05,0,0,1-10.58,2.75v11a13.75,13.75,0,0,0,1.66,6.7,42.76,42.76,0,0,0,2.33,3.93,73,73,0,0,0,5.34,6.77c3.06,3.57,6.37,7.37,10.75,8.55a16.06,16.06,0,0,0,2.94.45l.4,0,.39,0a16.06,16.06,0,0,0,2.94-.45c4.39-1.18,7.69-5,10.75-8.55A73.16,73.16,0,0,0,92,78.74a45.14,45.14,0,0,0,2.33-3.93,13.85,13.85,0,0,0,1.65-6.7V57a17,17,0,0,1-2.81-1.46c-3.13-2-5.44-5.16-7.4-8.39A42.25,42.25,0,0,1,81.73,38.76Z"/><path class="cls-6" d="M82.46,103.32a10.46,10.46,0,0,1-20.92,0V89c2.23,2.3,4.69,4.28,7.65,5.08a16.06,16.06,0,0,0,2.94.45l.4,0,.39,0a16.06,16.06,0,0,0,2.94-.45,15.67,15.67,0,0,0,6.6-4Z"/><path class="cls-7" d="M82.46,90a57.13,57.13,0,0,0,4.15-4.51A73.16,73.16,0,0,0,92,78.74a45.14,45.14,0,0,0,2.33-3.93,13.85,13.85,0,0,0,1.65-6.7V57a17,17,0,0,1-2.81-1.46c-3.13-2-5.44-5.16-7.4-8.39a42.25,42.25,0,0,1-4-8.37A20.32,20.32,0,0,1,78.88,43a28.88,28.88,0,0,1-6.61,5.19A68.39,68.39,0,0,1,59.69,54.4a60.05,60.05,0,0,1-10.58,2.75v11a13.75,13.75,0,0,0,1.66,6.7,42.76,42.76,0,0,0,2.33,3.93,73,73,0,0,0,5.34,6.77c1,1.16,2,2.35,3.1,3.47v9.65a37.73,37.73,0,0,1-14.22-4.74,23.78,23.78,0,0,1-8.39-7.22,21.47,21.47,0,0,1-3.08-8.29c-.89-5.31-.25-10.7.71-16.08,1.69-9.51,4.38-19,10.44-26.14a31.3,31.3,0,0,1,10.77-8.3A32.5,32.5,0,0,1,72,25.06a32.5,32.5,0,0,1,14.23,2.8A31.3,31.3,0,0,1,97,36.16c6.06,7.18,8.75,16.63,10.44,26.14,1,5.38,1.6,10.77.71,16.08a21.47,21.47,0,0,1-3.08,8.29,23.78,23.78,0,0,1-8.39,7.22,37.73,37.73,0,0,1-14.22,4.74Z"/></g><g id="mouth"><line class="cls-8" x1="67.21" y1="81.5" x2="76.79" y2="81.5"/></g></svg>