<svg xmlns="http://www.w3.org/2000/svg" viewBox="0 0 144 144"><defs><style>.cls-1{fill:#f4f4f4;}.cls-2{fill:#494949;}.cls-3{fill:#878686;}.cls-4{fill:#e0e0e0;}.cls-5{fill:#918d8b;}.cls-6{fill:#353535;}.cls-7{fill:#fcfcfc;}.cls-8{fill:#ffe1ab;}.cls-9{fill:#edd1bc;}.cls-10{fill:#020202;}.cls-11{fill:none;stroke:#494949;stroke-miterlimit:10;}</style></defs><g id="circle"><circle class="cls-1" cx="71.92" cy="72.1" r="72"/></g><g id="vector"><path class="cls-2" d="M47.51,47.81q.27,1.27.51,2.55c.17.93.33,1.87.48,2.8v.28l1.57,0,.14-.29c.63-1.33,1.33-2.62,2.05-3.92a34.1,34.1,0,0,1,5.36-7.73,19.84,19.84,0,0,1,7.31-4.63,20.35,20.35,0,0,1,6.52-1.17h1A20.46,20.46,0,0,1,79,36.85a19.8,19.8,0,0,1,7.3,4.63,34.1,34.1,0,0,1,5.36,7.73c.72,1.3,1.42,2.59,2,3.92l.14.3,1.51,0a37.08,37.08,0,0,0,.81-7.18,28.57,28.57,0,0,0-1.77-11.11,20.92,20.92,0,0,0-7.65-9.65,24,24,0,0,0-8.65-3.32,44.2,44.2,0,0,0-7.87-.78,38.9,38.9,0,0,1-5.62-.31,20.61,20.61,0,0,1-6.7-2.5,27.91,27.91,0,0,1-6.79-5.36,18.54,18.54,0,0,0-.6,4.71,11.83,11.83,0,0,0,.93,5.26A10.18,10.18,0,0,0,55.05,27a7.83,7.83,0,0,1-2.85,1.68,6.94,6.94,0,0,1-2.9.3,8,8,0,0,1-3.49-1.28,5.53,5.53,0,0,0,.3,2.55,5.59,5.59,0,0,0,1.52,2.06,7,7,0,0,0,2.52,1.43,15.64,15.64,0,0,0-1.75,3.61,22.59,22.59,0,0,0-.81,5.87C47.52,44.78,47.48,46.3,47.51,47.81Z"/><path class="cls-3" d="M56.89,105.11l-.61.23a15.45,15.45,0,0,0,4.14,10Q58.65,110.21,56.89,105.11Z"/><path class="cls-2" d="M119.23,117.62a4.2,4.2,0,0,0-3-3.58l-16.38-4.6-.24-.08-12.42-4.44-3.39,10.22a15.49,15.49,0,0,0,4-10l2.83,1a18.69,18.69,0,0,1-37.2.24l1.15-.43-10.08,3.76-.24.08L28,114.62a4.18,4.18,0,0,0-2.92,3.61v8.52a72,72,0,0,0,94.29-.48Z"/><path class="cls-4" d="M79.93,118.25l-7.85-9.7-7.74,9.8a16.41,16.41,0,0,0,15.59-.1Z"/><path class="cls-5" d="M56.28,105.34l-1.67.62,1.67-.62Z"/><path class="cls-5" d="M63.17,119.84l1.17-1.49a15.53,15.53,0,0,1-3.92-3.06l1.5,4.34A.72.72,0,0,0,63.17,119.84Z"/><path class="cls-5" d="M82.37,119.5c.49-1.45,1-2.91,1.45-4.36a15.85,15.85,0,0,1-3.89,3.11l1.2,1.48A.72.72,0,0,0,82.37,119.5Z"/><path class="cls-6" d="M72.17,123.15a18.41,18.41,0,0,0,18.49-17l-2.83-1a15.49,15.49,0,0,1-4,10c-.48,1.45-1,2.91-1.45,4.36a.72.72,0,0,1-1.24.23l-1.2-1.48a16.41,16.41,0,0,1-15.59.1l-1.17,1.49a.72.72,0,0,1-1.25-.21l-1.5-4.34a15.45,15.45,0,0,1-4.14-10l-1.67.62-1.15.43A18.41,18.41,0,0,0,72.17,123.15Z"/><path d="M83.13,102.29q-5.53,3.12-11,6.26l-11.14-6.12V89.19a22.32,22.32,0,0,0,5.57,3.48A17.41,17.41,0,0,0,72,94a17.41,17.41,0,0,0,5.47-1.34A22.09,22.09,0,0,0,83,89.24Z"/><path class="cls-7" d="M81.13,119.73q-4.53-5.6-9-11.18,5.52-3.14,11-6.26l4.2,2.29-5,14.92A.72.72,0,0,1,81.13,119.73Z"/><path class="cls-7" d="M63.17,119.84l8.91-11.29-11.14-6.12-4.16,2.35,5.14,14.85A.72.72,0,0,0,63.17,119.84Z"/><path class="cls-8" d="M72,35.68h.52A20.46,20.46,0,0,1,79,36.85a19.8,19.8,0,0,1,7.3,4.63,34.1,34.1,0,0,1,5.36,7.73c.72,1.3,1.42,2.59,2,3.92l1,2.15a7,7,0,0,1,.66,2.41c0,.3.06.61.08.91a69.33,69.33,0,0,1,0,10.88,24.45,24.45,0,0,1-.77,5.45c-1.19,4-4.37,7.23-7.46,10.3s-5.92,5.8-9.82,7.44A17.41,17.41,0,0,1,72,94a17.41,17.41,0,0,1-5.47-1.34c-3.9-1.64-6.82-4.46-9.81-7.44s-6.27-6.31-7.47-10.3a24.45,24.45,0,0,1-.77-5.45,69.33,69.33,0,0,1,0-10.88l.08-.91a7.2,7.2,0,0,1,.66-2.41l1-2.15c.63-1.33,1.33-2.62,2.05-3.92a34.1,34.1,0,0,1,5.36-7.73,19.84,19.84,0,0,1,7.31-4.63,20.35,20.35,0,0,1,6.52-1.17Z"/><path class="cls-9" d="M83.13,102.29q-5.53,3.12-11,6.26l-11.14-6.12V89.19a22.32,22.32,0,0,0,5.57,3.48A17.41,17.41,0,0,0,72,94a17.41,17.41,0,0,0,5.47-1.34A22.09,22.09,0,0,0,83,89.24Z"/></g><g id="glasses"><path class="cls-10" d="M93,53.42l-.57,0a6.22,6.22,0,0,0-.56-.32,7.19,7.19,0,0,0-2.52-.87q-.72-.13-1.44-.21l-1.53-.12a30.83,30.83,0,0,0-3.33,0,20.75,20.75,0,0,0-3.68.5,22.38,22.38,0,0,0-2.65.79l-.24.09a36.89,36.89,0,0,0-9.39,0l-.25-.09a22.38,22.38,0,0,0-2.65-.79,20.64,20.64,0,0,0-3.67-.5,30.82,30.82,0,0,0-3.33,0l-1.53.12q-.72.08-1.44.21a7.18,7.18,0,0,0-2.53.87,6.05,6.05,0,0,0-.55.32l-.57,0-6.61.06,0,2.33,4,0c0,.82,0,1.63.07,2.44l.44.39a9.8,9.8,0,0,0,.33,1.86,13.28,13.28,0,0,0,1,2.68,11.09,11.09,0,0,0,1.53,2.3,8.33,8.33,0,0,0,2.16,1.81,8.23,8.23,0,0,0,2.52.89,12.42,12.42,0,0,0,2.92.22,10.39,10.39,0,0,0,3.39-.68,8.24,8.24,0,0,0,1.88-1,11.13,11.13,0,0,0,1.71-1.58,20.17,20.17,0,0,0,2.37-3.36,12.27,12.27,0,0,0,1.1-2.28,6.73,6.73,0,0,0,.34-2.09l.13,0a11,11,0,0,0,1.9.17h0a11,11,0,0,0,1.9-.17l.12,0a7,7,0,0,0,.35,2.09,11.63,11.63,0,0,0,1.09,2.28,21.41,21.41,0,0,0,2.37,3.36,11.2,11.2,0,0,0,1.72,1.58,8.24,8.24,0,0,0,1.88,1,10.33,10.33,0,0,0,3.39.68,12.42,12.42,0,0,0,2.92-.22,7.65,7.65,0,0,0,4.67-2.7,11.14,11.14,0,0,0,1.54-2.3,13.91,13.91,0,0,0,1-2.68A10.66,10.66,0,0,0,95,58.6l.43-.39c0-.81.05-1.62.08-2.44l4,0V53.48ZM68.2,58.13a9,9,0,0,1-1.4,3.22,12.12,12.12,0,0,1-4.49,4.75,9.3,9.3,0,0,1-4.67.8,7.93,7.93,0,0,1-3.46-.9,7.79,7.79,0,0,1-2.62-2.64,11.15,11.15,0,0,1-1.49-3.74A5.63,5.63,0,0,1,50,57a4.05,4.05,0,0,1,.83-1.47,4.57,4.57,0,0,1,1.51-1.15c1.28-.83,4.33-1.08,6.77-1.06a20.7,20.7,0,0,1,4.69.5,23,23,0,0,1,2.49.74l.31.12,0,0,.13,0a2,2,0,0,1,.79.56l.14.16a2,2,0,0,1,.54,1.35A5.14,5.14,0,0,1,68.2,58.13Zm25.22,1.49a11.59,11.59,0,0,1-1.49,3.74,6.93,6.93,0,0,1-6.08,3.54,9.3,9.3,0,0,1-4.67-.8,12.14,12.14,0,0,1-4.5-4.75,9.19,9.19,0,0,1-1.4-3.22,4.71,4.71,0,0,1,0-1.3,2,2,0,0,1,.54-1.35l.13-.16a2.2,2.2,0,0,1,.79-.56l.13,0,0,0,.31-.12a23.56,23.56,0,0,1,2.48-.74,20.76,20.76,0,0,1,4.69-.5c2.45,0,5.49.23,6.78,1.06a4.63,4.63,0,0,1,1.5,1.15A3.78,3.78,0,0,1,93.46,57,5.49,5.49,0,0,1,93.42,59.62Z"/></g><g id="mouth"><line class="cls-11" x1="67.47" y1="81.2" x2="76.33" y2="81.2"/></g></svg>