<svg xmlns="http://www.w3.org/2000/svg" viewBox="0 0 144 144"><defs><style>.cls-1{fill:#f4f4f4;}.cls-2{fill:#383230;}.cls-3{fill:#42312a;}.cls-4{fill:#898888;}.cls-5{fill:#e5e5e5;}.cls-6{fill:#cecece;}.cls-7{fill:#332b25;}.cls-8{fill:#6d5345;}.cls-9{fill:none;stroke:#000;stroke-miterlimit:10;}</style></defs><g id="circle"><circle class="cls-1" cx="72" cy="72" r="72"/></g><g id="vector"><path class="cls-2" d="M91.65,141.27c.63-3.19,1.27-6.38,1.9-9.57l-2.8-5.06,4.12-.33q1.59-8.49,3.17-17c3.67,1.1,7.4,2,11.09,3.08,1.35.38,2.7.79,4,1.18a8.7,8.7,0,0,1,3.42,1.68,5.51,5.51,0,0,1,2,3.54v8.14A69.81,69.81,0,0,1,91.65,141.27Z"/><path class="cls-2" d="M52.35,141.27c-.63-3.19-1.27-6.38-1.9-9.57l2.8-5.06-4.12-.33q-1.59-8.49-3.17-17c-3.67,1.1-7.4,2-11.09,3.08-1.35.38-2.7.79-4,1.18a8.7,8.7,0,0,0-3.42,1.68,5.51,5.51,0,0,0-1.95,3.54v8.14A69.81,69.81,0,0,0,52.35,141.27Z"/><path class="cls-3" d="M61.24,89.77a28.29,28.29,0,0,0,4,2.45,16.3,16.3,0,0,0,3.53,1.34,14.37,14.37,0,0,0,6.48,0,16.3,16.3,0,0,0,3.53-1.34,28.29,28.29,0,0,0,4-2.45V103L72,108.76,61.24,103Z"/><path class="cls-4" d="M69.25,119l-.44,0a.71.71,0,0,1-.32-.1l-1.19-.71a1.28,1.28,0,0,1-.7-1.19l0-.88L72,108.76l-8.24,11.11c-.38.51-.77.51-1.15,0l-.32-.42a7.17,7.17,0,0,1-1.16-2.31L57.59,105l7.11,36.69Q67,130.32,69.25,119Z"/><path class="cls-4" d="M77.4,117a1.27,1.27,0,0,1-.68,1.17l-1.21.74a.71.71,0,0,1-.32.1l-.44,0Q77,130.32,79.3,141.65L86.41,105l-3.54,12.18a7.17,7.17,0,0,1-1.16,2.31l-.32.42c-.38.51-.77.51-1.15,0L72,108.76l5.43,7.32Z"/><path class="cls-5" d="M81.39,119.87l.32-.42a7.17,7.17,0,0,0,1.16-2.31L86.41,105l-3.65-2L72,108.76l8.24,11.11C80.62,120.38,81,120.38,81.39,119.87Z"/><path class="cls-5" d="M62.29,119.45l.32.42c.38.51.77.51,1.15,0L72,108.76,61.24,103l-3.65,2,3.54,12.18A7.17,7.17,0,0,0,62.29,119.45Z"/><path class="cls-6" d="M64.7,141.65,57.59,105A98.61,98.61,0,0,1,46,109.32q1.57,8.49,3.17,17l4.12.33-2.8,5.06c.63,3.19,1.27,6.38,1.9,9.57a67.52,67.52,0,0,0,12,2.32l.77.07-.39-2Z"/><path class="cls-2" d="M79.3,141.65Q77,130.32,74.75,119l.44,0a.71.71,0,0,0,.32-.1l1.21-.74A1.27,1.27,0,0,0,77.4,117l0-.87L72,108.76l-5.43,7.32,0,.88a1.28,1.28,0,0,0,.7,1.19l1.19.71a.71.71,0,0,0,.32.1l.44,0Q67,130.32,64.7,141.65l.39,2h0a72.51,72.51,0,0,0,13.82,0h0Z"/><path class="cls-4" d="M64.8,141.75h0l.39,2h0Z"/><path class="cls-6" d="M98,109.32A98.61,98.61,0,0,1,86.41,105L79.3,141.65h0l-.39,2,.77-.07a67.52,67.52,0,0,0,12-2.32c.63-3.19,1.27-6.38,1.9-9.57l-2.8-5.06,4.12-.33Q96.46,117.82,98,109.32Z"/><path class="cls-4" d="M79.39,141.75l-.39,2h0l.39-2Z"/><path class="cls-7" d="M95.85,55.2a41.84,41.84,0,0,1-7.38-16.34A93.71,93.71,0,0,1,72,40.21a93.71,93.71,0,0,1-16.47-1.35A41.84,41.84,0,0,1,48.15,55.2a42.82,42.82,0,0,1-1.82-20.67,15.3,15.3,0,0,1,4.46-7.87c5.53-4.79,17.09-5.58,21.21-5.58s15.68.79,21.21,5.58a15.3,15.3,0,0,1,4.46,7.87A42.82,42.82,0,0,1,95.85,55.2Z"/><path class="cls-8" d="M48.15,69.83A19.86,19.86,0,0,0,49,74.62a25.15,25.15,0,0,0,5.19,8.48,37,37,0,0,0,11.07,9.12,16.3,16.3,0,0,0,3.53,1.34,14.37,14.37,0,0,0,6.48,0,16.3,16.3,0,0,0,3.53-1.34A37,37,0,0,0,89.84,83.1,25.15,25.15,0,0,0,95,74.62a19.86,19.86,0,0,0,.82-4.79V55.2a41.84,41.84,0,0,1-7.38-16.34A93.71,93.71,0,0,1,72,40.21a93.71,93.71,0,0,1-16.47-1.35A41.84,41.84,0,0,1,48.15,55.2Z"/><path class="cls-3" d="M95.85,55.2V69.83a14.86,14.86,0,0,0,3-8,8,8,0,0,0-.68-4.12A7,7,0,0,0,95.85,55.2Z"/><path class="cls-3" d="M48.15,55.2V69.83a14.86,14.86,0,0,1-2.95-8,8,8,0,0,1,.68-4.12A7,7,0,0,1,48.15,55.2Z"/></g><g id="mouth"><line class="cls-9" x1="68.18" y1="81.86" x2="75.82" y2="81.86"/></g></svg>