<svg width="2468" height="1021" viewBox="0 0 2468 1021" fill="none" xmlns="http://www.w3.org/2000/svg">
<rect width="2468" height="1021" fill="white"/>
<path d="M1297.81 772.651C1297.81 772.651 1258.17 688.5 1324.14 636.465C1390.1 584.418 1269.12 531.585 1312.78 466.954C1356.43 402.322 1504.85 454.706 1501.11 334.971C1497.37 215.236 1622.09 182.808 1663.25 218.978C1704.41 255.148 1710.07 431.445 1828.22 412.524C1946.37 393.591 2057.38 643.412 1962.59 772.314L1297.81 772.651Z" fill="#2A94F4" fill-opacity="0.06"/>
<path d="M249 658.5C219 683.5 236.31 756.58 249 772.5H650.5C666 736.5 675.5 621 606 611C536.5 601 559 517.5 536 429C513 340.5 464.5 346 431 346C369.43 346 329.5 435.5 335.5 508C341.5 580.5 380 568 371.5 611C363 654 292.561 622.199 249 658.5Z" fill="#2A94F4" fill-opacity="0.06"/>
<path d="M2416.63 784.937C2416.63 794.354 2409 801.999 2399.57 801.999L69.0622 801.999C59.6456 801.999 52 794.366 52 784.937C52 775.52 59.6331 767.875 69.0622 767.875L2399.58 767.875C2409 767.887 2416.63 775.52 2416.63 784.937Z" fill="#F7F7F7"/>
<path d="M1453.73 670.041L1431.06 586.95H1491.51V661.123H1534.09V673.484H1532.03L1534.42 768.598H1529.62V672.448H1463.01L1454.76 768.598H1450.65L1453.73 670.041Z" fill="#D3D3D3"/>
<path d="M1579.56 642.826C1577.79 641.567 1576.15 640.107 1575.41 639.683C1575.09 639.509 1574.11 639.284 1573.83 639.197C1573.01 638.948 1571.7 638.698 1571.13 638.049L1568.7 635.38C1567.54 634.071 1566.03 633.634 1564.72 634.794C1563.3 636.041 1563.72 637.825 1565.13 639.085L1566.8 640.981C1567.92 641.991 1568.48 643.413 1569.11 644.797C1570.38 647.603 1573.24 649.711 1575.69 651.195C1577.24 652.118 1579.57 651.47 1582.63 650.422C1584.12 649.911 1586.31 648.663 1584.44 647.965C1582.86 647.379 1578.14 648.651 1576.04 644.298C1575.94 644.086 1575.72 643.512 1575.93 643.313C1576.57 642.714 1577.96 644.061 1578.9 644.485C1580.21 645.084 1581.26 644.884 1581.59 644.398C1581.93 643.899 1580.82 643.724 1579.56 642.826Z" fill="#FAB9AF"/>
<path d="M1512.99 547.214C1512.99 547.214 1516.9 594.11 1530.92 609.937C1539.37 619.479 1560.03 635.83 1564.82 639.584C1565.43 640.058 1566.28 640.083 1566.91 639.634C1567.31 639.347 1567.77 638.998 1568.17 638.649C1568.57 638.3 1569.05 637.776 1569.46 637.289C1570.16 636.479 1570.12 635.269 1569.39 634.483C1564.03 628.646 1542.99 605.547 1540.43 599.473C1537.5 592.501 1532.45 551.38 1527.81 545.418C1523.17 539.456 1514.27 538.159 1512.99 547.214Z" fill="#FFD109"/>
<path d="M1530.69 624.692L1518.75 540.69L1486.49 536.275L1469.72 624.081L1530.69 624.692Z" fill="#FAB9AF"/>
<path d="M1531.93 622.547L1518.74 540.691L1486.49 536.263L1469.15 622.697C1468.83 624.318 1469.88 625.902 1471.51 626.201C1477.51 627.336 1492 629.718 1508.2 629.718C1520.3 629.718 1527.1 627.361 1530.19 625.877C1531.47 625.278 1532.15 623.919 1531.93 622.547Z" fill="#D3D3D3"/>
<path d="M1496.57 541.364C1496.57 547.264 1495.5 553.101 1493.49 558.639C1489.55 569.477 1483.63 589.982 1487.15 608.042C1492.2 634.046 1498.71 644.561 1490.28 650.622C1481.85 656.684 1465.69 646.569 1465.23 643.201C1464.76 639.834 1468.37 598.413 1472.46 580.465C1476.55 562.517 1488.02 536.725 1488.02 536.725L1492.89 537.248C1494.97 537.485 1496.57 539.257 1496.57 541.364ZM1510 539.493C1510 539.493 1515.59 551.579 1513.64 568.953C1511.7 586.315 1507.17 639.21 1522.97 647.192C1527.97 649.724 1539.41 638.524 1539.41 634.371C1539.41 630.217 1535.59 616.311 1531.98 603.664C1528.36 591.017 1519.65 540.828 1519.65 540.828L1510 539.493Z" fill="#FFD109"/>
<path d="M1505.5 502.026C1498.3 502.026 1495.62 507.152 1495.48 516.631C1495.43 520.186 1497.03 523.703 1498.31 525.948C1499.27 527.619 1499.54 529.59 1498.99 531.436L1497.4 536.787C1496.33 541.751 1498.69 544.47 1502.17 545.455C1503.89 545.941 1505.96 545.567 1507.46 544.594C1509.24 543.434 1509.39 540.952 1509.07 538.845L1508.65 537.323C1508.11 535.265 1509.29 533.057 1511.37 532.596C1516.91 531.386 1517.71 525.611 1519.19 516.631C1520.73 507.277 1512.69 502.026 1505.5 502.026Z" fill="#FAB9AF"/>
<path d="M1522.25 497.873L1518.12 499.133C1516.6 499.594 1514.99 499.607 1513.47 499.158L1505.23 496.763C1500.24 496.763 1491.99 499.582 1493.03 506.791L1493.95 511.88C1494.31 513.913 1496.02 515.434 1498.08 515.609C1498.27 516.307 1498.91 516.806 1499.64 516.806C1500.54 516.806 1501.26 516.083 1501.26 515.197C1501.26 512.902 1502.87 510.944 1505.11 510.433C1507.86 509.822 1510.8 509.672 1513.87 510.495C1519.59 512.029 1525.63 508.487 1526.2 502.575C1526.24 502.201 1526.25 501.827 1526.25 501.44C1526.27 499.058 1524.3 497.312 1522.25 497.873Z" fill="#0B4870"/>
<path d="M1499.44 516.806C1499.44 519.001 1498.61 520.785 1496.51 520.785C1494.39 520.785 1493.03 517.766 1493.03 515.571C1493.03 513.376 1494.39 512.827 1496.51 512.827C1498.63 512.827 1499.44 514.611 1499.44 516.806Z" fill="#FAB9AF"/>
<path d="M1498.56 526.459C1498.56 526.459 1503.94 533.855 1510.62 532.845C1510.62 532.845 1509.24 533.506 1508.9 534.591C1508.9 534.591 1502.55 534.117 1498.56 526.459Z" fill="#E8948B"/>
<path d="M1433.66 695.647L1425.86 706.535C1424.28 708.755 1423.01 711.175 1422.1 713.744L1420.66 717.785C1419.48 721.103 1415.46 722.363 1412.59 720.317C1405.17 715.016 1392.45 706.011 1389.17 703.691C1388.63 703.317 1388.36 702.581 1388.7 702.008C1390.68 698.628 1398.87 706.036 1407.72 708.281C1414.45 709.99 1423.44 697.268 1426.72 691.269C1427.97 688.999 1430.98 688.45 1432.96 690.121C1434.61 691.493 1434.91 693.901 1433.66 695.647Z" fill="#FAB9AF"/>
<path d="M1537.85 638.673C1536.32 637.899 1513.29 611.034 1498.7 608.739C1484.12 606.432 1482.59 615.649 1464.16 637.139C1445.74 658.629 1418.1 701.621 1418.1 701.621L1426.55 707.757C1426.55 707.757 1465.7 660.163 1477.97 648.651C1490.26 637.139 1495.25 634.445 1499.08 645.196C1502.92 655.947 1512.12 674.369 1530.54 663.617C1548.98 652.879 1537.85 638.673 1537.85 638.673Z" fill="#0B4870"/>
<path d="M1503.37 736.07L1507.98 751.386C1508.18 752.059 1508.49 752.708 1508.88 753.294L1512.15 758.146C1514.22 761.226 1512.73 765.442 1509.18 766.527C1509.18 766.527 1502.58 768.847 1495.78 771.079C1488.82 773.362 1480.07 771.454 1480.07 769.62C1480.07 765.542 1483.87 768.785 1490.24 764.519C1492.38 763.097 1494.58 761.6 1496.54 760.054C1502.03 755.751 1497.24 744.85 1493.89 738.714C1492.68 736.506 1493.96 733.762 1496.42 733.238L1498 732.902C1500.36 732.415 1502.68 733.787 1503.37 736.07Z" fill="#FAB9AF"/>
<path d="M1491.03 631.764C1491.03 631.764 1468.01 630.23 1473.38 655.561C1478.76 680.893 1494.87 745.362 1494.87 745.362H1509.45L1505.61 654.788C1505.61 654.8 1494.1 631.764 1491.03 631.764ZM1508.18 751.948C1508.18 751.948 1502.42 754.891 1499.03 754.941C1499.03 754.941 1500.07 760.042 1492.02 763.347C1483.96 766.665 1479.83 764.595 1479.83 769.409C1479.83 774.211 1490.13 776.281 1497 774.211C1503.88 772.153 1512.79 765.967 1514.87 764.595C1516.91 763.223 1508.18 751.948 1508.18 751.948ZM1422.93 711.013C1422.93 711.013 1416.6 707.895 1414.35 704.952C1414.35 704.952 1410.57 709.192 1402.43 704.303C1394.28 699.414 1393.4 694.463 1389.19 697.593C1384.99 700.724 1389.9 711.076 1396.18 715.74C1402.45 720.405 1413.68 724.184 1416.22 725.095C1418.77 726.005 1422.93 711.013 1422.93 711.013Z" fill="#0B4870"/>
<path d="M1487.73 536.587C1487.73 536.587 1476.5 567.768 1477.75 587.724C1479 607.679 1478.98 623.956 1467.76 611.446C1456.53 598.936 1464.03 535.34 1487.73 536.587Z" fill="#FFD109"/>
<path d="M1532.35 570.773C1530.57 572.968 1528.55 574.976 1527.94 575.924C1527.67 576.323 1527.31 577.583 1527.19 577.932C1526.8 578.98 1526.38 580.676 1525.49 581.362L1521.82 584.318C1520.03 585.715 1519.34 587.636 1520.74 589.432C1522.25 591.378 1524.59 590.966 1526.35 589.245L1528.95 587.224C1530.36 585.84 1532.25 585.229 1534.09 584.53C1537.84 583.108 1540.81 579.554 1542.94 576.473C1544.28 574.54 1543.6 571.459 1542.49 567.393C1541.94 565.398 1540.5 562.467 1539.44 564.849C1538.55 566.844 1539.84 573.093 1533.99 575.463C1533.7 575.575 1532.94 575.824 1532.7 575.538C1531.98 574.665 1533.84 572.956 1534.47 571.771C1535.36 570.112 1535.17 568.728 1534.57 568.266C1533.95 567.767 1533.62 569.214 1532.35 570.773Z" fill="#FAB9AF"/>
<path d="M1463.98 602.802C1463.98 602.802 1466.74 626.338 1479.72 617.632C1492.72 608.926 1516.41 597.701 1522.65 592.712C1528.89 587.723 1528.89 587.723 1528.89 587.723L1525.03 579.579L1463.98 602.802Z" fill="#FFBE55"/>
<path d="M1847.27 668.794L1869.93 585.703H1809.5V659.876H1766.92V672.236H1768.98L1766.57 767.351H1771.38V671.201H1838L1846.24 767.351H1850.36L1847.27 668.794Z" fill="#D3D3D3"/>
<path d="M1790.02 570.512C1798.13 570.512 1804.7 562.035 1804.7 551.579C1804.7 541.122 1798.13 532.646 1790.02 532.646C1781.91 532.646 1775.34 541.122 1775.34 551.579C1775.34 562.035 1781.91 570.512 1790.02 570.512Z" fill="#0B4870"/>
<path d="M1793.54 553.537C1793.77 543.06 1802.25 534.242 1812.72 533.644C1822 533.107 1830.02 538.807 1833.02 546.927C1834.07 549.77 1836.86 551.629 1839.9 551.579C1841.15 551.554 1842.45 551.679 1843.77 551.94C1851.44 553.512 1857.41 559.998 1858.2 567.78C1858.93 574.802 1855.65 581.113 1850.36 584.705C1848.1 586.24 1846.83 588.784 1846.46 591.478C1844.72 603.975 1833.32 613.142 1820.3 611.721C1809.18 610.498 1800.27 601.343 1799.32 590.193C1798.74 583.346 1801.09 577.072 1805.22 572.408C1798.2 569.09 1793.35 561.881 1793.54 553.537ZM1790.02 526.434C1790.02 526.434 1781.76 531.636 1782.76 538.632C1782.76 538.632 1778.34 535.514 1777.35 524.751C1776.66 517.292 1790.02 526.434 1790.02 526.434Z" fill="#0B4870"/>
<path d="M1784.93 569.102C1784.73 575.176 1784.33 581.288 1783.47 587.437C1782.57 593.561 1781.31 599.759 1778.98 605.759C1777.82 608.752 1776.39 611.683 1774.59 614.439C1772.81 617.196 1770.6 619.74 1768 621.811C1765.42 623.894 1762.52 625.527 1759.47 626.6C1756.42 627.673 1753.27 628.209 1750.17 628.421C1749.27 628.483 1748.5 627.797 1748.44 626.912C1748.39 626.089 1748.95 625.378 1749.72 625.216H1749.73C1755.36 624.031 1760.47 621.449 1764.1 617.558C1767.77 613.691 1770.01 608.64 1771.38 603.302C1772.76 597.938 1773.37 592.276 1773.6 586.539C1773.74 583.67 1773.78 580.776 1773.75 577.87C1773.74 574.964 1773.69 572.046 1773.59 569.127C1773.48 565.997 1775.92 563.365 1779.05 563.253C1782.19 563.141 1784.82 565.585 1784.93 568.716C1784.93 568.84 1784.93 568.965 1784.93 569.09V569.102Z" fill="#FAB9AF"/>
<path d="M1780.78 605.385C1777.47 595.432 1770.82 574.341 1771.4 567.444C1771.76 563.029 1775.45 559.649 1779.88 559.649H1808.63C1813.39 559.649 1817.3 563.428 1817.43 568.192C1817.67 576.524 1813.84 595.469 1811.68 605.385H1780.78V605.385Z" fill="#2A94F4"/>
<path d="M1814.96 618.007C1813.48 613.829 1813.03 609.364 1813.65 604.974C1815.1 594.784 1817.65 575.589 1817.41 567.444C1817.28 563.091 1813.72 559.636 1809.36 559.636H1805.1C1803.48 563.403 1800.03 566.309 1794.68 566.309C1789.35 566.309 1785.9 563.403 1784.28 559.636H1780.28C1784.63 568.953 1783.06 581.239 1775.58 588.41C1776.97 593.324 1778.13 598.276 1779.01 602.279C1780.19 607.705 1779.67 613.367 1777.53 618.506C1773.85 627.324 1770.95 641.468 1771.81 647.068C1802.05 655.636 1822.96 640.47 1822.96 640.47L1814.96 618.007Z" fill="#2A94F4"/>
<path d="M1790.02 561.632L1803.06 560.26L1798.93 545.991L1790.5 547.026L1790.02 561.632Z" fill="#FAB9AF"/>
<path d="M1790.5 547.027L1798.94 545.979L1800.22 550.432C1798.34 552.564 1795.91 557.154 1792.84 557.154C1791.86 557.154 1790.98 556.88 1790.18 556.368L1790.5 547.027Z" fill="#FA968C"/>
<path d="M1790.2 553.936C1793.07 553.936 1796.17 552.502 1800.43 548.773C1802.88 546.628 1804.7 542.898 1804.7 540.379V526.435H1783.23C1783.23 526.435 1781.62 533.844 1783.18 541.19C1784.35 546.69 1787.96 553.936 1790.2 553.936Z" fill="#FAB9AF"/>
<path d="M1801.06 537.734C1801.06 540.453 1802.35 542.661 1803.96 542.661C1805.57 542.661 1807.34 539.094 1807.34 536.375C1807.34 533.656 1805.57 532.808 1803.96 532.808C1802.37 532.808 1801.06 535.015 1801.06 537.734Z" fill="#FAB9AF"/>
<path d="M1807.34 528.118C1807.34 523.765 1803.81 520.235 1799.46 520.235H1792.21C1790.14 520.235 1788.14 519.699 1786.36 518.689C1783.81 517.242 1780.58 517.716 1778.83 520.086C1776.95 522.642 1776.12 526.072 1780.91 529.24C1783.3 530.812 1786.76 529.066 1789.08 529.826C1789.22 529.826 1789.36 529.802 1789.51 529.802H1795.89C1798.11 529.802 1799.81 531.61 1799.87 533.83C1799.91 535.24 1801.06 536.362 1802.48 536.362H1802.77L1803.79 533.082L1807.36 537.884V528.118H1807.34Z" fill="#0B4870"/>
<path d="M1744.21 621.936C1744.21 621.936 1751.72 622.809 1752.21 625.191C1752.7 627.573 1752.6 629.257 1749.16 630.105C1745.72 630.953 1740.6 630.467 1737.58 629.569C1734.57 628.671 1730.16 625.029 1729.94 624.318C1729.15 621.761 1734.44 623.969 1737.06 624.917C1739.67 625.865 1742.72 626.663 1742.81 625.278C1742.91 623.894 1737.77 622.46 1737.36 620.838C1736.95 619.217 1744.21 621.936 1744.21 621.936ZM1766.56 625.253C1766.56 625.253 1774.02 624.031 1775.15 626.189C1776.27 628.347 1776.64 629.993 1773.57 631.752C1770.49 633.51 1765.44 634.458 1762.29 634.421C1759.15 634.383 1753.9 632.088 1753.5 631.477C1752.04 629.232 1757.74 629.906 1760.51 630.093C1763.28 630.28 1766.43 630.217 1766.15 628.858C1765.86 627.498 1760.52 627.536 1759.69 626.089C1758.84 624.642 1766.56 625.253 1766.56 625.253Z" fill="#FAB9AF"/>
<path d="M1784.83 526.186C1785.55 529.366 1784.49 531.112 1794.93 536.089C1805.37 541.065 1808.68 538.932 1811.94 544.296C1811.94 544.296 1810.52 535.428 1804.75 532.384C1798.99 529.341 1788.98 527.346 1785.77 520.299C1785.77 520.299 1784.34 524.003 1784.83 526.186Z" fill="#0B4870"/>
<path d="M1816.31 565.585C1817.91 567.693 1819.18 569.626 1820.49 571.709C1821.77 573.767 1823.01 575.85 1824.15 577.995C1826.42 582.298 1828.46 586.776 1830.03 591.528C1831.56 596.28 1832.65 601.343 1832.61 606.744C1832.57 609.438 1832.21 612.219 1831.36 614.938C1830.55 617.657 1829.14 620.276 1827.32 622.484C1825.51 624.704 1823.32 626.525 1821.01 627.922C1818.69 629.331 1816.27 630.354 1813.84 631.14C1811.41 631.926 1808.96 632.412 1806.53 632.824C1804.1 633.148 1801.68 633.397 1799.27 633.46C1789.66 633.821 1780.31 632.624 1771.16 630.903C1770.27 630.741 1769.7 629.893 1769.86 629.007C1770.01 628.196 1770.74 627.648 1771.53 627.685H1771.56C1776.15 627.909 1780.71 628.084 1785.27 627.997C1789.81 627.934 1794.32 627.697 1798.71 627.074C1803.1 626.45 1807.38 625.477 1811.22 623.918C1815.04 622.334 1818.33 620.064 1820.28 617.146C1822.26 614.265 1822.99 610.71 1822.82 606.869C1822.62 603.015 1821.51 598.974 1820.01 595.032C1818.53 591.066 1816.58 587.162 1814.4 583.383C1813.32 581.487 1812.18 579.604 1810.98 577.771C1810.38 576.848 1809.77 575.95 1809.15 575.052C1808.55 574.179 1807.88 573.218 1807.32 572.482L1807.27 572.407C1805.38 569.913 1805.88 566.358 1808.38 564.475C1810.87 562.592 1814.43 563.091 1816.31 565.585Z" fill="#FAB9AF"/>
<path d="M1786.84 526.783C1786.84 526.783 1786.44 537.51 1777.06 542.673C1777.06 542.673 1781.19 534.566 1780.91 529.253C1780.64 523.952 1787.46 523.116 1786.84 526.783Z" fill="#0B4870"/>
<path d="M1748.54 734.174L1745.17 749.116C1744.15 753.681 1744.78 758.483 1746.99 762.611C1748.22 764.918 1747.13 767.787 1744.66 768.66C1736.67 771.504 1721.21 776.917 1720.52 776.33C1717.01 773.35 1726.3 768.436 1733.17 763.272C1737.8 759.792 1739.57 743.566 1739.98 731.118L1747.35 732.977C1747.92 733.151 1748.37 733.6 1748.54 734.174Z" fill="#FA968C"/>
<path d="M1792.78 639.098L1823.5 640.457C1823.5 640.457 1831.69 665.714 1816.67 667.759C1801.66 669.805 1757.97 665.028 1756.59 671.85C1755.23 678.673 1748.4 738.752 1748.4 738.752H1738.16C1738.16 738.752 1738.85 700.524 1738.16 680.718C1737.47 660.912 1734.74 652.73 1742.94 649.313C1751.13 645.933 1792.78 639.098 1792.78 639.098Z" fill="#0B4870"/>
<path d="M1757.32 698.516C1757.32 698.516 1759.07 713.483 1759.56 716.002C1759.96 718.085 1761.41 719.731 1762.77 721.353C1763.2 721.877 1763.53 722.899 1763.8 723.772C1764.03 724.471 1763.84 725.207 1763.43 725.805C1756.02 736.257 1741.75 737.405 1741.69 736.444C1741.56 734.723 1744.34 732.079 1747.5 731.243C1750.68 730.395 1753.09 727.789 1754.06 724.645C1754.83 722.151 1754.96 719.494 1754.42 716.937L1751.85 705.451L1757.32 698.516Z" fill="#FA968C"/>
<path d="M1765.6 729.946C1766.32 729.46 1766.58 728.524 1766.22 727.739C1765.92 727.09 1765.14 725.331 1764.54 724.009C1764.28 723.436 1763.53 723.348 1763.12 723.822C1758.48 729.223 1752.21 732.715 1745.52 731.854C1743.04 732.703 1740.84 735.534 1740.94 736.893C1740.96 737.218 1743.82 738.028 1747.3 737.118C1762.74 733.089 1765.6 729.946 1765.6 729.946Z" fill="#0B4870"/>
<path d="M1774.99 642.84L1754.51 647.616L1759.29 711.113L1751.78 712.473C1751.78 712.473 1733.34 668.096 1734.03 647.616C1734.72 627.137 1751.09 633.286 1760.66 636.005C1770.21 638.749 1774.99 642.84 1774.99 642.84ZM1734.74 767.538C1731.44 768.623 1727.82 768.973 1724.5 769.384C1724.13 769.434 1723.75 769.584 1723.45 769.808C1720.27 772.278 1718.66 774.76 1720.53 776.331C1721.28 776.967 1739.46 770.532 1746.54 767.987C1748.02 767.451 1748.67 765.742 1747.92 764.345L1746.58 761.813C1742.87 764.183 1738.92 766.154 1734.74 767.538Z" fill="#0B4870"/>
<path d="M1725.95 618.929H1557.7V625.115H1725.95V618.929Z" fill="#0B4870"/>
<path d="M1569.37 625.115H1565.94V768.647H1569.37V625.115Z" fill="#76838B"/>
<path d="M1717.02 625.115H1713.59V768.647H1717.02V625.115Z" fill="#76838B"/>
<path d="M1923.72 768.759C1923.72 771.217 1921.73 773.2 1919.28 773.2H1902.13C1899.68 773.2 1897.69 771.204 1897.69 768.759V728.761C1897.69 726.304 1899.69 724.32 1902.13 724.32H1919.28C1921.74 724.32 1923.72 726.316 1923.72 728.761V768.759Z" fill="#FFBE55"/>
<path opacity="0.4" d="M1912.76 678.272C1912.76 678.272 1898.73 706.797 1919.41 711.661C1940.09 716.525 1940.68 694.998 1938.56 686.13C1936.44 677.262 1969.26 653.415 1942.19 632.324C1915.13 611.233 1894.04 667.384 1912.76 678.272Z" fill="#2A94F4"/>
<path opacity="0.4" d="M1886.63 693.751C1886.63 693.751 1885.97 712.522 1898.29 710.139C1910.61 707.757 1905.72 696.008 1902.43 691.743C1899.14 687.477 1911.06 666.686 1891.37 661.859C1871.69 657.044 1873.91 692.429 1886.63 693.751Z" fill="#2A94F4"/>
<path d="M1888.72 676.065L1903.97 724.32" stroke="#4D4D4D" stroke-miterlimit="10"/>
<path d="M1897.62 685.881L1894.39 693.988L1887.04 689.934" stroke="#4D4D4D" stroke-miterlimit="10"/>
<path d="M1929.28 648.763L1916.21 724.32" stroke="#4D4D4D" stroke-miterlimit="10"/>
<path d="M1936.96 660.187L1926.13 667.022L1919.18 657.643" stroke="#4D4D4D" stroke-miterlimit="10"/>
<path d="M1934 676.027L1923.16 682.875L1916.21 673.495" stroke="#4D4D4D" stroke-miterlimit="10"/>
<path d="M1352.49 768.759C1352.49 771.217 1350.49 773.2 1348.05 773.2H1330.9C1328.44 773.2 1326.46 771.204 1326.46 768.759V728.761C1326.46 726.304 1328.45 724.32 1330.9 724.32H1348.05C1350.5 724.32 1352.49 726.316 1352.49 728.761V768.759Z" fill="#FFBE55"/>
<path opacity="0.4" d="M1341.52 678.272C1341.52 678.272 1327.49 706.797 1348.17 711.661C1368.85 716.525 1369.45 694.998 1367.33 686.13C1365.21 677.262 1398.02 653.415 1370.96 632.324C1343.89 611.233 1322.8 667.384 1341.52 678.272Z" fill="#2A94F4"/>
<path opacity="0.4" d="M1315.39 693.751C1315.39 693.751 1314.73 712.522 1327.06 710.139C1339.38 707.757 1334.49 696.008 1331.2 691.743C1327.9 687.477 1339.83 666.686 1320.13 661.859C1300.44 657.032 1302.67 692.429 1315.39 693.751Z" fill="#2A94F4"/>
<path d="M1317.49 676.065L1332.73 724.32" stroke="#4D4D4D" stroke-miterlimit="10"/>
<path d="M1326.38 685.881L1323.15 693.988L1315.81 689.934" stroke="#4D4D4D" stroke-miterlimit="10"/>
<path d="M1358.05 648.763L1344.98 724.32" stroke="#4D4D4D" stroke-miterlimit="10"/>
<path d="M1365.72 660.187L1354.89 667.022L1347.95 657.643" stroke="#4D4D4D" stroke-miterlimit="10"/>
<path d="M1362.76 676.027L1351.93 682.875L1344.98 673.495" stroke="#4D4D4D" stroke-miterlimit="10"/>
<path d="M1612.46 423.326H1504.08C1501.22 423.326 1498.9 425.646 1498.9 428.502V466.555C1498.9 469.411 1501.22 471.731 1504.08 471.731H1511.54V488.631L1532.24 471.731H1612.46C1615.32 471.731 1617.64 469.411 1617.64 466.555V428.502C1617.63 425.633 1615.32 423.326 1612.46 423.326ZM1506.73 446.001H1571.28V448.183H1506.73V446.001ZM1604.95 455.979H1506.73V453.796H1604.95V455.979ZM1604.95 440.7H1506.73V438.517H1604.95V440.7Z" fill="#FFBE55"/>
<path d="M1680.98 443.469V481.522C1680.98 484.378 1683.3 486.698 1686.16 486.698H1766.38L1787.09 503.598V486.698H1794.54C1797.4 486.698 1799.72 484.378 1799.72 481.522V443.469C1799.72 440.613 1797.4 438.293 1794.54 438.293H1686.16C1683.3 438.293 1680.98 440.6 1680.98 443.469ZM1791.89 463.15H1727.34V460.968H1791.89V463.15ZM1693.67 468.763H1791.89V470.945H1693.67V468.763ZM1693.67 453.484H1791.89V455.667H1693.67V453.484Z" fill="#2A94F4"/>
<path opacity="0.4" d="M1316.67 600.801C1318.36 592.007 1315.34 584.036 1309.93 582.998C1304.52 581.96 1298.76 588.247 1297.08 597.042C1295.39 605.836 1298.41 613.807 1303.82 614.845C1309.23 615.884 1314.99 609.596 1316.67 600.801Z" fill="#FFBE55"/>
<path opacity="0.4" d="M1317.87 592.992C1321.77 589.095 1321.28 582.288 1316.78 577.787C1312.28 573.287 1305.47 572.797 1301.57 576.694C1297.68 580.591 1298.17 587.398 1302.67 591.898C1307.17 596.399 1313.98 596.888 1317.87 592.992Z" fill="#FFBE55"/>
<path opacity="0.4" d="M1961.47 600.79C1963.16 591.996 1960.14 584.025 1954.73 582.987C1949.32 581.949 1943.56 588.237 1941.88 597.031C1940.19 605.825 1943.21 613.796 1948.62 614.834C1954.03 615.873 1959.79 609.585 1961.47 600.79Z" fill="#FFBE55"/>
<path opacity="0.4" d="M1962.69 592.995C1966.59 589.099 1966.1 582.291 1961.59 577.791C1957.09 573.29 1950.29 572.801 1946.39 576.697C1942.49 580.594 1942.98 587.401 1947.48 591.902C1951.98 596.402 1958.79 596.892 1962.69 592.995Z" fill="#FFBE55"/>
<path d="M1459.04 838.418H1321.84C1319.09 838.418 1316.85 836.186 1316.85 833.429C1316.85 830.673 1319.09 828.44 1321.84 828.44H1459.04C1461.8 828.44 1464.03 830.673 1464.03 833.429C1464.03 836.186 1461.8 838.418 1459.04 838.418ZM1689.78 838.418H1552.58C1549.83 838.418 1547.59 836.186 1547.59 833.429C1547.59 830.673 1549.83 828.44 1552.58 828.44H1689.78C1692.53 828.44 1694.77 830.673 1694.77 833.429C1694.77 836.186 1692.53 838.418 1689.78 838.418ZM1932.99 838.418H1795.79C1793.04 838.418 1790.8 836.186 1790.8 833.429C1790.8 830.673 1793.04 828.44 1795.79 828.44H1932.99C1935.75 828.44 1937.98 830.673 1937.98 833.429C1937.98 836.186 1935.75 838.418 1932.99 838.418ZM1578.77 865.857H1441.58C1438.82 865.857 1436.59 863.625 1436.59 860.868C1436.59 858.112 1438.82 855.88 1441.58 855.88H1578.77C1581.53 855.88 1583.76 858.112 1583.76 860.868C1583.76 863.625 1581.53 865.857 1578.77 865.857ZM1817 865.857H1679.8C1677.04 865.857 1674.81 863.625 1674.81 860.868C1674.81 858.112 1677.04 855.88 1679.8 855.88H1817C1819.75 855.88 1821.99 858.112 1821.99 860.868C1821.99 863.625 1819.75 865.857 1817 865.857Z" fill="#D3D3D3"/>
<path d="M534.321 718.321C546.197 696.578 508.707 686.354 499.67 694.978C490.632 703.603 520.594 743.453 534.321 718.321Z" fill="#2A94F4" fill-opacity="0.2"/>
<path d="M550.082 711.684C573.387 711.684 562.84 670 552.876 670C540.383 670 523.156 711.684 550.082 711.684Z" fill="#2A94F4" fill-opacity="0.2"/>
<path d="M568.045 726.805C587.258 742.446 604.146 707.449 597.314 696.99C590.481 686.531 545.836 708.726 568.045 726.805Z" fill="#2A94F4" fill-opacity="0.2"/>
<path d="M543.543 737.154C540.3 729.65 535.553 722.658 529.435 716.374C519.026 705.684 508.078 700.67 507.968 700.621C507.642 700.474 507.258 700.619 507.111 700.944C506.964 701.27 507.109 701.653 507.434 701.801C507.541 701.849 518.3 706.783 528.538 717.311C534.538 723.48 539.19 730.338 542.364 737.694C542.724 738.529 543.059 739.372 543.381 740.22H544.766C544.385 739.189 543.98 738.166 543.543 737.154Z" fill="#102042"/>
<path d="M552.297 678.548C552.339 678.193 552.085 677.871 551.73 677.828C551.374 677.785 551.053 678.039 551.01 678.394C550.968 678.748 547.701 706.682 547.867 740.219H549.162C548.996 706.77 552.255 678.901 552.297 678.548Z" fill="#102042"/>
<path d="M590.84 701.673C590.641 701.375 590.24 701.295 589.943 701.494C589.85 701.556 580.502 707.844 570.885 718.186C565.647 723.818 559.693 731.37 555.331 740.22H556.779C561.043 731.76 566.765 724.521 571.812 719.09C581.328 708.853 590.569 702.633 590.662 702.571C590.959 702.372 591.039 701.97 590.84 701.673Z" fill="#102042"/>
<path d="M549.163 740.22H547.868H544.767H543.382H525.305C524.61 740.22 524.117 740.899 524.332 741.56L525.473 745.061L526.05 746.833L534.311 772.179C534.535 772.867 535.177 773.333 535.9 773.333H565.677C566.4 773.333 567.041 772.867 567.265 772.179L575.528 746.833L576.105 745.061L577.246 741.56C577.462 740.899 576.969 740.22 576.274 740.22H556.777H555.329H549.163Z" fill="#FFD109"/>
<path d="M576.107 745.06L575.53 746.832H526.051L525.474 745.06H576.107Z" fill="#FFBE55"/>
<path d="M465.81 475.447C465.81 464.704 456.335 456 442.127 456C430.319 456 426.261 462.516 426.261 462.516C426.261 462.516 415.1 464.928 415.1 478.797C415.1 491.69 415.1 513.87 415.1 513.87H433.439H434.374H447.918H462.641V484.986C463.804 483.557 465.81 480.38 465.81 475.447ZM443.756 506.856C442.763 506.856 441.679 506.673 440.548 506.354V513.869H424.321V494.535C424.21 494.225 424.101 493.893 423.995 493.544C416.801 492.857 417.099 480.968 421.374 480.968C421.432 480.968 421.489 480.973 421.545 480.981V480.98C439.515 486.725 451.6 477.312 455.554 470.772C455.554 475.336 460.605 479.786 462.402 480.192C462.136 496.501 450.468 506.856 443.756 506.856Z" fill="#311643"/>
<path d="M440.548 507.389V506.354C441.679 506.673 442.763 506.856 443.756 506.856C450.468 506.856 462.136 496.502 462.401 480.191C460.604 479.785 455.553 475.335 455.553 470.771C451.599 477.312 439.514 486.724 421.544 480.979V480.98C421.488 480.972 421.432 480.967 421.373 480.967C417.098 480.967 416.8 492.856 423.994 493.543C424.1 493.892 424.209 494.223 424.32 494.534V507.54L411.611 513.531V529.217H453.844V513.382L440.548 507.389Z" fill="#FCBEB7"/>
<path d="M453.845 529.218V513.383L440.548 507.389V506.354C436.788 505.293 432.514 502.723 429.375 500.325L453.845 529.218Z" fill="#F9AFAB"/>
<path d="M431.881 493.962C434.326 493.962 436.308 491.98 436.308 489.535C436.308 487.09 434.326 485.108 431.881 485.108C429.436 485.108 427.454 487.09 427.454 489.535C427.454 491.98 429.436 493.962 431.881 493.962Z" fill="#F49795"/>
<path d="M461.832 485.859C461.271 488.832 460.33 491.543 459.142 493.955C456.801 493.839 454.939 491.904 454.939 489.534C454.939 487.089 456.921 485.107 459.365 485.107C460.278 485.108 461.127 485.385 461.832 485.859Z" fill="#F49795"/>
<path d="M454.344 476.072C451.112 476.072 448.443 478.529 448.107 481.674C446.35 480.847 444.799 481.295 443.98 481.671C443.642 478.528 440.975 476.072 437.744 476.072C434.285 476.072 431.471 478.886 431.471 482.345C431.471 485.804 434.285 488.618 437.744 488.618C441.126 488.618 443.889 485.928 444.011 482.575C444.532 482.275 446.187 481.511 448.076 482.582C448.201 485.931 450.964 488.618 454.343 488.618C457.802 488.618 460.616 485.804 460.616 482.345C460.617 478.885 457.803 476.072 454.344 476.072ZM437.744 487.797C434.738 487.797 432.292 485.351 432.292 482.344C432.292 479.338 434.738 476.892 437.744 476.892C440.751 476.892 443.197 479.338 443.197 482.344C443.197 485.351 440.751 487.797 437.744 487.797ZM454.344 487.797C451.338 487.797 448.892 485.351 448.892 482.344C448.892 479.338 451.338 476.892 454.344 476.892C457.351 476.892 459.797 479.338 459.797 482.344C459.797 485.351 457.351 487.797 454.344 487.797Z" fill="white"/>
<path d="M454.348 486.84C453.854 486.84 453.453 486.439 453.453 485.945V484.273C453.453 483.779 453.854 483.378 454.348 483.378C454.842 483.378 455.243 483.779 455.243 484.273V485.945C455.243 486.439 454.843 486.84 454.348 486.84Z" fill="#311643"/>
<path d="M438.016 486.84C437.522 486.84 437.121 486.439 437.121 485.945V484.273C437.121 483.779 437.522 483.378 438.016 483.378C438.51 483.378 438.911 483.779 438.911 484.273V485.945C438.912 486.439 438.511 486.84 438.016 486.84Z" fill="#311643"/>
<path d="M444.408 496.989C442.81 496.989 441.722 496.388 441.063 495.841C440.232 495.151 439.887 494.398 439.872 494.366C439.779 494.159 439.871 493.917 440.078 493.823C440.284 493.73 440.527 493.822 440.62 494.027C440.667 494.128 441.802 496.508 445.099 496.127C445.325 496.101 445.528 496.262 445.554 496.488C445.58 496.713 445.419 496.917 445.193 496.943C444.918 496.974 444.656 496.989 444.408 496.989Z" fill="#311643"/>
<path d="M471.245 757.405L472.924 764.384L491.236 770.134L488.602 757.405H471.245Z" fill="#FCBEB7"/>
<path d="M409.551 757.405L410.05 766.025L408.91 766.446L408.157 770.137L426.451 764.384L426.908 757.405H409.551Z" fill="#FCBEB7"/>
<path d="M505.358 772.844L490.472 766.445L491.235 770.134L472.924 764.384V769.631C472.924 771.476 473.889 773.149 475.406 774.089L476.981 778.591C477.117 778.98 477.484 779.241 477.897 779.241C478.433 779.241 478.867 778.807 478.867 778.271V775.343L491.382 779.241H504.042C505.883 779.241 507.375 777.749 507.375 775.908C507.375 774.575 506.582 773.371 505.358 772.844Z" fill="#0B4870"/>
<path d="M426.467 769.58L426.452 764.333L408.158 770.137L408.91 766.446L394.043 772.889C392.821 773.419 392.031 774.625 392.035 775.957C392.04 777.798 393.537 779.286 395.378 779.28L408.038 779.243L420.979 775.17L420.988 778.236C420.99 778.772 421.425 779.205 421.961 779.203C422.373 779.202 422.74 778.94 422.875 778.551L424.583 773.621C425.755 772.642 426.472 771.175 426.467 769.58Z" fill="#0B4870"/>
<path d="M412.32 581.885L405.566 610.486C403.616 618.746 402.847 627.24 403.284 635.715L409.552 757.404H426.909L434.32 631.113L471.246 757.404H488.603L458.042 581.884H412.32V581.885Z" fill="#0B4870"/>
<path d="M435.286 521.481C438.368 521.481 440.833 518.513 442.495 515.507H424.919C427.6 518.505 431.271 521.481 435.286 521.481Z" fill="white"/>
<path d="M465.577 523.874C463.397 519.515 459.776 516.043 455.328 514.048L444.898 509.37C444.898 509.86 444.046 512.7 442.494 515.507C440.832 518.513 438.367 521.481 435.285 521.481C431.27 521.481 427.599 518.505 424.918 515.507C422.198 512.465 420.499 509.401 420.499 509.401L408.398 515.007C403.445 517.302 399.798 521.717 398.481 527.015L391.408 555.457C390.255 560.095 391.583 564.999 394.919 568.421C400.488 566.467 410.944 562.397 410.944 562.397L412.318 581.886H458.04L469.399 531.518L465.577 523.874Z" fill="#2A94F4"/>
<path d="M435.737 525.757C433.195 525.757 430.609 524.983 428.049 523.458C426.017 522.247 423.997 520.562 422.045 518.448C418.732 514.861 416.714 511.2 416.694 511.164L417.373 510.849C417.393 510.885 419.349 514.434 422.604 517.953C424.506 520.011 426.469 521.648 428.438 522.82C430.878 524.273 433.334 525.009 435.737 525.009C438.005 525.009 440.048 524.252 441.809 522.76C443.234 521.552 444.484 519.861 445.523 517.734C447.309 514.079 447.797 510.708 447.802 510.671L448.505 510.986C448.483 511.142 448.035 514.286 446.201 518.046C445.117 520.27 443.804 522.045 442.299 523.323C440.398 524.938 438.19 525.757 435.737 525.757Z" fill="white"/>
<path d="M462.983 678.995C467.571 678.995 471.291 675.275 471.291 670.687C471.291 666.099 467.571 662.379 462.983 662.379C458.395 662.379 454.675 666.099 454.675 670.687C454.675 675.275 458.395 678.995 462.983 678.995Z" fill="#083959"/>
<path d="M419.455 678.995C424.043 678.995 427.763 675.275 427.763 670.687C427.763 666.099 424.043 662.379 419.455 662.379C414.867 662.379 411.147 666.099 411.147 670.687C411.147 675.275 414.867 678.995 419.455 678.995Z" fill="#083959"/>
<path d="M408.471 518.701C408.471 521.631 406.096 524.008 403.164 524.008C401.987 524.008 400.9 523.625 400.02 522.976C401.674 519.83 404.235 517.22 407.403 515.508C408.074 516.396 408.471 517.502 408.471 518.701Z" fill="#197BD3"/>
<path d="M439.52 588.469L474.704 587.14C476.553 587.07 478.152 585.833 478.684 584.061L494.067 532.782C494.394 531.693 493.552 530.605 492.416 530.648L456.835 531.992C455.224 532.053 453.83 533.131 453.367 534.675L437.87 586.335C437.543 587.425 438.384 588.512 439.52 588.469Z" fill="#FFD109"/>
<path d="M477.437 561.535L483.593 567.694L484.643 564.194L477.437 561.535Z" fill="#2F3D6C"/>
<path d="M485.984 552L477.114 552.585C476.459 552.628 475.952 553.176 475.958 553.832L475.076 553.887C474.503 553.923 474.037 554.363 473.97 554.934L473.861 555.856H473.857C473.201 555.864 472.675 556.403 472.684 557.059C472.69 557.541 472.986 557.971 473.434 558.149L475.42 558.938C475.416 559.95 476.003 560.871 476.921 561.295L483.094 564.149C483.991 564.564 484.987 564.716 485.966 564.589C488.168 564.303 489.95 562.66 490.414 560.489L490.798 558.693C491.211 556.758 490.612 554.746 489.207 553.354C488.348 552.503 487.193 552.018 485.984 552Z" fill="#FCBEB7"/>
<path d="M441.895 517.789L447.948 532.585C448.29 533.42 448.789 534.176 449.404 534.789L450.481 535.862C450.731 536.111 451.08 535.968 451.084 535.615L451.1 534.095C451.109 533.226 450.935 532.337 450.594 531.502L444.541 516.706C444.173 515.805 443.282 515.318 442.551 515.617C441.82 515.916 441.527 516.889 441.895 517.789Z" fill="#6277D7"/>
<path d="M449.854 526.603L446.531 522.026C446.103 521.436 445.44 521.06 444.714 520.994L439.141 520.489C438.382 520.42 437.628 520.664 437.053 521.164L434.15 523.687C433.731 524.051 433.375 524.482 433.096 524.962L429.534 530.614L395.763 557.899C392.431 560.591 392.137 565.565 395.127 568.631C398.101 571.681 403.047 571.532 405.833 568.31L434.352 535.324L440.35 531.636L444.777 531.788C445.806 531.823 446.712 531.118 446.931 530.112L447.174 529.824C447.593 529.327 447.763 528.666 447.634 528.029L447.381 526.78L448.812 527.704C449.021 527.839 449.282 527.865 449.513 527.774C449.981 527.59 450.15 527.011 449.854 526.603Z" fill="#FCBEB7"/>
<path d="M410.946 562.397L423.442 547.943L411.421 569.135L410.946 562.397Z" fill="#197BD3"/>
<path d="M439.52 588.469L460.178 594.158L459.059 587.731L439.52 588.469Z" fill="#2F3D6C"/>
<path d="M463.732 520.85C463.079 521.122 462.362 521.272 461.61 521.272C458.562 521.272 456.091 518.801 456.091 515.753C456.091 515.316 456.142 514.891 456.238 514.483C459.213 515.991 461.777 518.177 463.732 520.85Z" fill="#197BD3"/>
<path d="M400.489 569.715C403.324 569.715 405.622 567.417 405.622 564.582C405.622 561.747 403.324 559.449 400.489 559.449C397.654 559.449 395.356 561.747 395.356 564.582C395.356 567.417 397.654 569.715 400.489 569.715Z" fill="#F9AFAB"/>
</svg>
