<svg width="414" height="192" viewBox="0 0 414 192" fill="none" xmlns="http://www.w3.org/2000/svg">
<mask id="path-1-outside-1_2562_10658" maskUnits="userSpaceOnUse" x="10" y="5" width="394" height="182" fill="black">
<rect fill="white" x="10" y="5" width="394" height="182"/>
<path fill-rule="evenodd" clip-rule="evenodd" d="M345 6H46C26.67 6 11 21.67 11 41V151C11 170.33 26.67 186 46 186H345C360.803 186 374.16 175.526 378.508 161.142C379.278 158.595 379.974 156.016 381.026 153.571L400.053 109.328C403.85 100.5 403.85 90.4999 400.053 81.6723L380.214 35.5423C379.428 33.7146 378.84 31.8095 378.211 29.9222C373.576 16.0215 360.458 6 345 6Z"/>
</mask>
<path fill-rule="evenodd" clip-rule="evenodd" d="M345 6H46C26.67 6 11 21.67 11 41V151C11 170.33 26.67 186 46 186H345C360.803 186 374.16 175.526 378.508 161.142C379.278 158.595 379.974 156.016 381.026 153.571L400.053 109.328C403.85 100.5 403.85 90.4999 400.053 81.6723L380.214 35.5423C379.428 33.7146 378.84 31.8095 378.211 29.9222C373.576 16.0215 360.458 6 345 6Z" fill="#F5F8FA"/>
<path d="M380.214 35.5423L381.133 35.1472L380.214 35.5423ZM378.211 29.9222L379.159 29.6059L378.211 29.9222ZM378.508 161.142L379.465 161.431L378.508 161.142ZM381.026 153.571L380.107 153.176L381.026 153.571ZM400.053 109.328L399.135 108.933L400.053 109.328ZM400.053 81.6723L400.972 81.2772L400.053 81.6723ZM46 7H345V5H46V7ZM12 151V41H10V151H12ZM345 185H46V187H345V185ZM377.551 160.853C373.327 174.827 360.35 185 345 185V187C361.256 187 374.993 176.226 379.465 161.431L377.551 160.853ZM381.944 153.966L400.972 109.723L399.135 108.933L380.107 153.176L381.944 153.966ZM400.972 81.2772L381.133 35.1472L379.296 35.9374L399.135 82.0673L400.972 81.2772ZM345 7C360.015 7 372.759 16.7339 377.262 30.2384L379.159 29.6059C374.393 15.3092 360.902 5 345 5V7ZM381.133 35.1472C380.369 33.3698 379.798 31.523 379.159 29.6059L377.262 30.2384C377.881 32.096 378.488 34.0595 379.296 35.9374L381.133 35.1472ZM379.465 161.431C380.247 158.844 380.922 156.343 381.944 153.966L380.107 153.176C379.027 155.688 378.308 158.346 377.551 160.853L379.465 161.431ZM10 151C10 170.882 26.1178 187 46 187V185C27.2223 185 12 169.778 12 151H10ZM400.972 109.723C404.877 100.643 404.877 90.357 400.972 81.2772L399.135 82.0673C402.823 90.6427 402.823 100.357 399.135 108.933L400.972 109.723ZM46 5C26.1177 5 10 21.1177 10 41H12C12 22.2223 27.2223 7 46 7V5Z" fill="#BACCF4" mask="url(#path-1-outside-1_2562_10658)"/>
</svg>
