<svg width="1059" height="120" viewBox="0 0 1059 120" fill="none" xmlns="http://www.w3.org/2000/svg">
<g clip-path="url(#clip0_2508_10613)">
<path d="M30.5859 51.2422C27.6562 51.2422 25.3125 50.168 23.5547 48.0195C21.862 45.806 21.0156 43.2018 21.0156 40.207C21.0156 37.7331 21.4714 35.4219 22.3828 33.2734C23.2943 31.125 24.4336 29.1719 25.8008 27.4141C27.2331 25.6562 28.7305 24.1263 30.293 22.8242C31.9206 21.457 33.418 20.3177 34.7852 19.4062C36.1523 18.4297 37.2591 17.7135 38.1055 17.2578C39.0169 16.8021 39.4401 16.5742 39.375 16.5742L41.6211 19.6016C41.0352 19.862 40.2539 20.3828 39.2773 21.1641C38.3008 21.8802 37.3242 22.7591 36.3477 23.8008C35.4362 24.8424 34.6224 25.9818 33.9062 27.2188C33.1901 28.3906 32.832 29.5299 32.832 30.6367C32.832 31.2878 33.2227 31.9388 34.0039 32.5898C34.7852 33.1758 35.6315 33.8919 36.543 34.7383C37.4544 35.5195 38.3008 36.4961 39.082 37.668C39.8633 38.7747 40.2539 40.1419 40.2539 41.7695C40.2539 43.2018 39.9609 44.5039 39.375 45.6758C38.8542 46.8477 38.138 47.8568 37.2266 48.7031C36.3802 49.4844 35.3711 50.1029 34.1992 50.5586C33.0273 51.0143 31.8229 51.2422 30.5859 51.2422ZM54.6094 51.4375C53.112 51.4375 51.7448 51.112 50.5078 50.4609C49.2708 49.8099 48.1966 48.931 47.2852 47.8242C46.3737 46.7174 45.6576 45.4479 45.1367 44.0156C44.681 42.5182 44.4531 40.9232 44.4531 39.2305C44.4531 35.8451 45.1693 32.7201 46.6016 29.8555C48.099 26.9258 49.7266 24.4193 51.4844 22.3359C53.5677 19.862 55.944 17.6159 58.6133 15.5977L61.4453 18.2344C60.8594 18.625 60.1432 19.2435 59.2969 20.0898C58.5156 20.9362 57.7669 21.9453 57.0508 23.1172C56.3997 24.224 55.8138 25.3958 55.293 26.6328C54.8372 27.8698 54.6094 29.0742 54.6094 30.2461C54.6094 31.0273 55.0977 31.6784 56.0742 32.1992C57.0508 32.7201 58.125 33.3711 59.2969 34.1523C60.4688 34.9336 61.543 35.9427 62.5195 37.1797C63.4961 38.3516 63.9844 40.0117 63.9844 42.1602C63.9844 43.4622 63.724 44.6667 63.2031 45.7734C62.6823 46.8802 61.9661 47.8568 61.0547 48.7031C60.2083 49.5495 59.1992 50.2331 58.0273 50.7539C56.9206 51.2096 55.7812 51.4375 54.6094 51.4375Z" fill="#E6EEFB"/>
<path d="M1026.52 41.9883C1029.45 41.9883 1031.83 43.0299 1033.65 45.1133C1035.54 47.1966 1036.48 49.7682 1036.48 52.8281C1036.48 55.3021 1036.03 57.6133 1035.12 59.7617C1034.21 61.9102 1033.03 63.8633 1031.6 65.6211C1030.23 67.3138 1028.74 68.8438 1027.11 70.2109C1025.55 71.513 1024.08 72.6523 1022.71 73.6289C1021.35 74.5404 1020.21 75.224 1019.3 75.6797C1018.45 76.1354 1018.06 76.3633 1018.12 76.3633L1015.88 73.4336C1016.46 73.1732 1017.21 72.6523 1018.12 71.8711C1019.1 71.0898 1020.05 70.1784 1020.96 69.1367C1021.93 68.0951 1022.75 66.9883 1023.4 65.8164C1024.11 64.6445 1024.47 63.5052 1024.47 62.3984C1024.47 61.7474 1024.08 61.1289 1023.3 60.543C1022.58 59.8919 1021.77 59.1432 1020.86 58.2969C1020.01 57.4505 1019.2 56.474 1018.42 55.3672C1017.7 54.2604 1017.34 52.8607 1017.34 51.168C1017.34 48.3685 1018.26 46.1549 1020.08 44.5273C1021.9 42.8346 1024.05 41.9883 1026.52 41.9883ZM1002.89 41.5977C1004.39 41.5977 1005.76 41.9232 1006.99 42.5742C1008.29 43.1602 1009.4 44.0065 1010.31 45.1133C1011.22 46.2201 1011.91 47.5221 1012.36 49.0195C1012.88 50.5169 1013.14 52.112 1013.14 53.8047C1013.14 57.1901 1012.4 60.3151 1010.9 63.1797C1009.4 66.0443 1007.77 68.5182 1006.02 70.6016C1003.87 73.0755 1001.49 75.3542 998.887 77.4375L996.152 74.8008C996.738 74.4102 997.422 73.7917 998.203 72.9453C998.984 72.0339 999.701 71.0247 1000.35 69.918C1001.07 68.8112 1001.65 67.6393 1002.11 66.4023C1002.63 65.1654 1002.89 63.9609 1002.89 62.7891C1002.89 62.0078 1002.4 61.3568 1001.43 60.8359C1000.45 60.25 999.375 59.5664 998.203 58.7852C997.031 58.0039 995.957 57.0273 994.98 55.8555C994.004 54.6185 993.516 52.9258 993.516 50.7773C993.516 49.5404 993.776 48.3685 994.297 47.2617C994.818 46.1549 995.501 45.1784 996.348 44.332C997.259 43.4857 998.268 42.8346 999.375 42.3789C1000.55 41.8581 1001.72 41.5977 1002.89 41.5977Z" fill="#E6EEFB"/>
</g>
<defs>
<clipPath id="clip0_2508_10613">
<rect width="1059" height="120" fill="white"/>
</clipPath>
</defs>
</svg>
