<svg width="414" height="192" viewBox="0 0 414 192" fill="none" xmlns="http://www.w3.org/2000/svg">
<mask id="path-1-outside-1_2433_10509" maskUnits="userSpaceOnUse" x="31" y="5" width="339" height="182" fill="black">
<rect fill="white" x="31" y="5" width="339" height="182"/>
<path fill-rule="evenodd" clip-rule="evenodd" d="M311 6H67C47.67 6 32 21.67 32 41V151C32 170.33 47.67 186 67 186H311C326.803 186 340.16 175.526 344.508 161.142C345.278 158.595 345.974 156.016 347.026 153.571L366.053 109.328C369.85 100.5 369.85 90.4999 366.053 81.6723L346.214 35.5423C345.428 33.7146 344.84 31.8095 344.211 29.9222C339.576 16.0215 326.458 6 311 6Z"/>
</mask>
<path fill-rule="evenodd" clip-rule="evenodd" d="M311 6H67C47.67 6 32 21.67 32 41V151C32 170.33 47.67 186 67 186H311C326.803 186 340.16 175.526 344.508 161.142C345.278 158.595 345.974 156.016 347.026 153.571L366.053 109.328C369.85 100.5 369.85 90.4999 366.053 81.6723L346.214 35.5423C345.428 33.7146 344.84 31.8095 344.211 29.9222C339.576 16.0215 326.458 6 311 6Z" fill="#F5F8FA"/>
<path d="M346.214 35.5423L347.133 35.1472L346.214 35.5423ZM344.211 29.9222L345.159 29.6059L344.211 29.9222ZM344.508 161.142L345.465 161.431L344.508 161.142ZM347.026 153.571L346.107 153.176L347.026 153.571ZM366.053 109.328L365.135 108.933L366.053 109.328ZM366.053 81.6723L366.972 81.2772L366.053 81.6723ZM67 7H311V5H67V7ZM33 151V41H31V151H33ZM311 185H67V187H311V185ZM343.551 160.853C339.327 174.827 326.35 185 311 185V187C327.256 187 340.993 176.226 345.465 161.431L343.551 160.853ZM347.944 153.966L366.972 109.723L365.135 108.933L346.107 153.176L347.944 153.966ZM366.972 81.2772L347.133 35.1472L345.296 35.9374L365.135 82.0673L366.972 81.2772ZM311 7C326.015 7 338.759 16.7339 343.262 30.2384L345.159 29.6059C340.393 15.3092 326.902 5 311 5V7ZM347.133 35.1472C346.369 33.3698 345.798 31.523 345.159 29.6059L343.262 30.2384C343.881 32.096 344.488 34.0595 345.296 35.9374L347.133 35.1472ZM345.465 161.431C346.247 158.844 346.922 156.343 347.944 153.966L346.107 153.176C345.027 155.688 344.308 158.346 343.551 160.853L345.465 161.431ZM31 151C31 170.882 47.1178 187 67 187V185C48.2223 185 33 169.778 33 151H31ZM366.972 109.723C370.877 100.643 370.877 90.357 366.972 81.2772L365.135 82.0673C368.823 90.6427 368.823 100.357 365.135 108.933L366.972 109.723ZM67 5C47.1178 5 31 21.1177 31 41H33C33 22.2223 48.2223 7 67 7V5Z" fill="#BACCF4" mask="url(#path-1-outside-1_2433_10509)"/>
</svg>
