<svg width="685" height="120" viewBox="0 0 685 120" fill="none" xmlns="http://www.w3.org/2000/svg">
<g clip-path="url(#clip0_2508_10619)">
<path d="M30.5859 51.2422C27.6562 51.2422 25.3125 50.168 23.5547 48.0195C21.862 45.806 21.0156 43.2018 21.0156 40.207C21.0156 37.7331 21.4714 35.4219 22.3828 33.2734C23.2943 31.125 24.4336 29.1719 25.8008 27.4141C27.2331 25.6562 28.7305 24.1263 30.293 22.8242C31.9206 21.457 33.418 20.3177 34.7852 19.4062C36.1523 18.4297 37.2591 17.7135 38.1055 17.2578C39.0169 16.8021 39.4401 16.5742 39.375 16.5742L41.6211 19.6016C41.0352 19.862 40.2539 20.3828 39.2773 21.1641C38.3008 21.8802 37.3242 22.7591 36.3477 23.8008C35.4362 24.8424 34.6224 25.9818 33.9062 27.2188C33.1901 28.3906 32.832 29.5299 32.832 30.6367C32.832 31.2878 33.2227 31.9388 34.0039 32.5898C34.7852 33.1758 35.6315 33.8919 36.543 34.7383C37.4544 35.5195 38.3008 36.4961 39.082 37.668C39.8633 38.7747 40.2539 40.1419 40.2539 41.7695C40.2539 43.2018 39.9609 44.5039 39.375 45.6758C38.8542 46.8477 38.138 47.8568 37.2266 48.7031C36.3802 49.4844 35.3711 50.1029 34.1992 50.5586C33.0273 51.0143 31.8229 51.2422 30.5859 51.2422ZM54.6094 51.4375C53.112 51.4375 51.7448 51.112 50.5078 50.4609C49.2708 49.8099 48.1966 48.931 47.2852 47.8242C46.3737 46.7174 45.6576 45.4479 45.1367 44.0156C44.681 42.5182 44.4531 40.9232 44.4531 39.2305C44.4531 35.8451 45.1693 32.7201 46.6016 29.8555C48.099 26.9258 49.7266 24.4193 51.4844 22.3359C53.5677 19.862 55.944 17.6159 58.6133 15.5977L61.4453 18.2344C60.8594 18.625 60.1432 19.2435 59.2969 20.0898C58.5156 20.9362 57.7669 21.9453 57.0508 23.1172C56.3997 24.224 55.8138 25.3958 55.293 26.6328C54.8372 27.8698 54.6094 29.0742 54.6094 30.2461C54.6094 31.0273 55.0977 31.6784 56.0742 32.1992C57.0508 32.7201 58.125 33.3711 59.2969 34.1523C60.4688 34.9336 61.543 35.9427 62.5195 37.1797C63.4961 38.3516 63.9844 40.0117 63.9844 42.1602C63.9844 43.4622 63.724 44.6667 63.2031 45.7734C62.6823 46.8802 61.9661 47.8568 61.0547 48.7031C60.2083 49.5495 59.1992 50.2331 58.0273 50.7539C56.9206 51.2096 55.7812 51.4375 54.6094 51.4375Z" fill="#E6EEFB"/>
<path d="M638.523 57.9883C641.453 57.9883 643.829 59.0299 645.652 61.1133C647.54 63.1966 648.484 65.7682 648.484 68.8281C648.484 71.3021 648.029 73.6133 647.117 75.7617C646.206 77.9102 645.034 79.8633 643.602 81.6211C642.234 83.3138 640.737 84.8438 639.109 86.2109C637.547 87.513 636.082 88.6523 634.715 89.6289C633.348 90.5404 632.208 91.224 631.297 91.6797C630.451 92.1354 630.06 92.3633 630.125 92.3633L627.879 89.4336C628.465 89.1732 629.214 88.6523 630.125 87.8711C631.102 87.0898 632.046 86.1784 632.957 85.1367C633.934 84.0951 634.747 82.9883 635.398 81.8164C636.115 80.6445 636.473 79.5052 636.473 78.3984C636.473 77.7474 636.082 77.1289 635.301 76.543C634.585 75.8919 633.771 75.1432 632.859 74.2969C632.013 73.4505 631.199 72.474 630.418 71.3672C629.702 70.2604 629.344 68.8607 629.344 67.168C629.344 64.3685 630.255 62.1549 632.078 60.5273C633.901 58.8346 636.049 57.9883 638.523 57.9883ZM614.891 57.5977C616.388 57.5977 617.755 57.9232 618.992 58.5742C620.294 59.1602 621.401 60.0065 622.312 61.1133C623.224 62.2201 623.908 63.5221 624.363 65.0195C624.884 66.5169 625.145 68.112 625.145 69.8047C625.145 73.1901 624.396 76.3151 622.898 79.1797C621.401 82.0443 619.773 84.5182 618.016 86.6016C615.867 89.0755 613.491 91.3542 610.887 93.4375L608.152 90.8008C608.738 90.4102 609.422 89.7917 610.203 88.9453C610.984 88.0339 611.701 87.0247 612.352 85.918C613.068 84.8112 613.654 83.6393 614.109 82.4023C614.63 81.1654 614.891 79.9609 614.891 78.7891C614.891 78.0078 614.402 77.3568 613.426 76.8359C612.449 76.25 611.375 75.5664 610.203 74.7852C609.031 74.0039 607.957 73.0273 606.98 71.8555C606.004 70.6185 605.516 68.9258 605.516 66.7773C605.516 65.5404 605.776 64.3685 606.297 63.2617C606.818 62.1549 607.501 61.1784 608.348 60.332C609.259 59.4857 610.268 58.8346 611.375 58.3789C612.547 57.8581 613.719 57.5977 614.891 57.5977Z" fill="#E6EEFB"/>
</g>
<defs>
<clipPath id="clip0_2508_10619">
<rect width="685" height="120" fill="white"/>
</clipPath>
</defs>
</svg>
