<svg width="439" height="120" viewBox="0 0 439 120" fill="none" xmlns="http://www.w3.org/2000/svg">
<g clip-path="url(#clip0_2508_10622)">
<path d="M30.5859 51.2422C27.6562 51.2422 25.3125 50.168 23.5547 48.0195C21.862 45.806 21.0156 43.2018 21.0156 40.207C21.0156 37.7331 21.4714 35.4219 22.3828 33.2734C23.2943 31.125 24.4336 29.1719 25.8008 27.4141C27.2331 25.6562 28.7305 24.1263 30.293 22.8242C31.9206 21.457 33.418 20.3177 34.7852 19.4062C36.1523 18.4297 37.2591 17.7135 38.1055 17.2578C39.0169 16.8021 39.4401 16.5742 39.375 16.5742L41.6211 19.6016C41.0352 19.862 40.2539 20.3828 39.2773 21.1641C38.3008 21.8802 37.3242 22.7591 36.3477 23.8008C35.4362 24.8424 34.6224 25.9818 33.9062 27.2188C33.1901 28.3906 32.832 29.5299 32.832 30.6367C32.832 31.2878 33.2227 31.9388 34.0039 32.5898C34.7852 33.1758 35.6315 33.8919 36.543 34.7383C37.4544 35.5195 38.3008 36.4961 39.082 37.668C39.8633 38.7747 40.2539 40.1419 40.2539 41.7695C40.2539 43.2018 39.9609 44.5039 39.375 45.6758C38.8542 46.8477 38.138 47.8568 37.2266 48.7031C36.3802 49.4844 35.3711 50.1029 34.1992 50.5586C33.0273 51.0143 31.8229 51.2422 30.5859 51.2422ZM54.6094 51.4375C53.112 51.4375 51.7448 51.112 50.5078 50.4609C49.2708 49.8099 48.1966 48.931 47.2852 47.8242C46.3737 46.7174 45.6576 45.4479 45.1367 44.0156C44.681 42.5182 44.4531 40.9232 44.4531 39.2305C44.4531 35.8451 45.1693 32.7201 46.6016 29.8555C48.099 26.9258 49.7266 24.4193 51.4844 22.3359C53.5677 19.862 55.944 17.6159 58.6133 15.5977L61.4453 18.2344C60.8594 18.625 60.1432 19.2435 59.2969 20.0898C58.5156 20.9362 57.7669 21.9453 57.0508 23.1172C56.3997 24.224 55.8138 25.3958 55.293 26.6328C54.8372 27.8698 54.6094 29.0742 54.6094 30.2461C54.6094 31.0273 55.0977 31.6784 56.0742 32.1992C57.0508 32.7201 58.125 33.3711 59.2969 34.1523C60.4688 34.9336 61.543 35.9427 62.5195 37.1797C63.4961 38.3516 63.9844 40.0117 63.9844 42.1602C63.9844 43.4622 63.724 44.6667 63.2031 45.7734C62.6823 46.8802 61.9661 47.8568 61.0547 48.7031C60.2083 49.5495 59.1992 50.2331 58.0273 50.7539C56.9206 51.2096 55.7812 51.4375 54.6094 51.4375Z" fill="#E6EEFB"/>
<path d="M392.523 34.9883C395.453 34.9883 397.829 36.0299 399.652 38.1133C401.54 40.1966 402.484 42.7682 402.484 45.8281C402.484 48.3021 402.029 50.6133 401.117 52.7617C400.206 54.9102 399.034 56.8633 397.602 58.6211C396.234 60.3138 394.737 61.8438 393.109 63.2109C391.547 64.513 390.082 65.6523 388.715 66.6289C387.348 67.5404 386.208 68.224 385.297 68.6797C384.451 69.1354 384.06 69.3633 384.125 69.3633L381.879 66.4336C382.465 66.1732 383.214 65.6523 384.125 64.8711C385.102 64.0898 386.046 63.1784 386.957 62.1367C387.934 61.0951 388.747 59.9883 389.398 58.8164C390.115 57.6445 390.473 56.5052 390.473 55.3984C390.473 54.7474 390.082 54.1289 389.301 53.543C388.585 52.8919 387.771 52.1432 386.859 51.2969C386.013 50.4505 385.199 49.474 384.418 48.3672C383.702 47.2604 383.344 45.8607 383.344 44.168C383.344 41.3685 384.255 39.1549 386.078 37.5273C387.901 35.8346 390.049 34.9883 392.523 34.9883ZM368.891 34.5977C370.388 34.5977 371.755 34.9232 372.992 35.5742C374.294 36.1602 375.401 37.0065 376.312 38.1133C377.224 39.2201 377.908 40.5221 378.363 42.0195C378.884 43.5169 379.145 45.112 379.145 46.8047C379.145 50.1901 378.396 53.3151 376.898 56.1797C375.401 59.0443 373.773 61.5182 372.016 63.6016C369.867 66.0755 367.491 68.3542 364.887 70.4375L362.152 67.8008C362.738 67.4102 363.422 66.7917 364.203 65.9453C364.984 65.0339 365.701 64.0247 366.352 62.918C367.068 61.8112 367.654 60.6393 368.109 59.4023C368.63 58.1654 368.891 56.9609 368.891 55.7891C368.891 55.0078 368.402 54.3568 367.426 53.8359C366.449 53.25 365.375 52.5664 364.203 51.7852C363.031 51.0039 361.957 50.0273 360.98 48.8555C360.004 47.6185 359.516 45.9258 359.516 43.7773C359.516 42.5404 359.776 41.3685 360.297 40.2617C360.818 39.1549 361.501 38.1784 362.348 37.332C363.259 36.4857 364.268 35.8346 365.375 35.3789C366.547 34.8581 367.719 34.5977 368.891 34.5977Z" fill="#E6EEFB"/>
</g>
<defs>
<clipPath id="clip0_2508_10622">
<rect width="439" height="120" fill="white"/>
</clipPath>
</defs>
</svg>
