<svg width="414" height="192" viewBox="0 0 414 192" fill="none" xmlns="http://www.w3.org/2000/svg">
<mask id="path-1-outside-1_2562_10650" maskUnits="userSpaceOnUse" x="15" y="5" width="253" height="182" fill="black">
<rect fill="white" x="15" y="5" width="253" height="182"/>
<path fill-rule="evenodd" clip-rule="evenodd" d="M209 6H51C31.67 6 16 21.67 16 41V151C16 170.33 31.67 186 51 186H209C224.803 186 238.16 175.526 242.508 161.142C243.278 158.595 243.974 156.016 245.026 153.571L264.053 109.328C267.85 100.5 267.85 90.4999 264.053 81.6723L244.214 35.5423C243.428 33.7146 242.84 31.8095 242.211 29.9222C237.576 16.0215 224.458 6 209 6Z"/>
</mask>
<path fill-rule="evenodd" clip-rule="evenodd" d="M209 6H51C31.67 6 16 21.67 16 41V151C16 170.33 31.67 186 51 186H209C224.803 186 238.16 175.526 242.508 161.142C243.278 158.595 243.974 156.016 245.026 153.571L264.053 109.328C267.85 100.5 267.85 90.4999 264.053 81.6723L244.214 35.5423C243.428 33.7146 242.84 31.8095 242.211 29.9222C237.576 16.0215 224.458 6 209 6Z" fill="#F5F8FA"/>
<path d="M244.214 35.5423L245.133 35.1472L244.214 35.5423ZM242.211 29.9222L241.262 30.2384L242.211 29.9222ZM242.508 161.142L241.551 160.853L242.508 161.142ZM245.026 153.571L245.944 153.966L245.026 153.571ZM264.053 109.328L263.135 108.933L264.053 109.328ZM51 7H209V5H51V7ZM17 151V41H15V151H17ZM209 185H51V187H209V185ZM241.551 160.853C237.327 174.827 224.35 185 209 185V187C225.256 187 238.993 176.226 243.465 161.431L241.551 160.853ZM245.944 153.966L264.972 109.723L263.135 108.933L244.107 153.176L245.944 153.966ZM264.972 81.2772L245.133 35.1472L243.296 35.9374L263.135 82.0673L264.972 81.2772ZM209 7C224.015 7 236.759 16.7339 241.262 30.2384L243.159 29.6059C238.393 15.3092 224.902 5 209 5V7ZM245.133 35.1472C244.369 33.3698 243.798 31.523 243.159 29.6059L241.262 30.2384C241.881 32.096 242.488 34.0595 243.296 35.9374L245.133 35.1472ZM243.465 161.431C244.247 158.844 244.922 156.343 245.944 153.966L244.107 153.176C243.027 155.688 242.308 158.346 241.551 160.853L243.465 161.431ZM15 151C15 170.882 31.1177 187 51 187V185C32.2223 185 17 169.778 17 151H15ZM264.972 109.723C268.877 100.643 268.877 90.357 264.972 81.2772L263.135 82.0673C266.823 90.6427 266.823 100.357 263.135 108.933L264.972 109.723ZM51 5C31.1177 5 15 21.1177 15 41H17C17 22.2223 32.2223 7 51 7V5Z" fill="#BACCF4" mask="url(#path-1-outside-1_2562_10650)"/>
</svg>
