<svg width="790" height="70" viewBox="0 0 790 70" fill="none" xmlns="http://www.w3.org/2000/svg">
<path d="M213.464 62.2334V63H209.699V62.2334H213.464ZM209.89 55.8906V63H208.947V55.8906H209.89ZM212.966 58.9473V59.7139H209.699V58.9473H212.966ZM213.415 55.8906V56.6621H209.699V55.8906H213.415ZM215.393 58.7666V63H214.484V57.7168H215.344L215.393 58.7666ZM215.207 60.1582L214.787 60.1436C214.79 59.7822 214.838 59.4486 214.929 59.1426C215.02 58.8333 215.155 58.5648 215.334 58.3369C215.513 58.109 215.736 57.9333 216.003 57.8096C216.27 57.6826 216.579 57.6191 216.931 57.6191C217.178 57.6191 217.406 57.6549 217.614 57.7266C217.823 57.7949 218.003 57.904 218.156 58.0537C218.309 58.2035 218.428 58.3955 218.513 58.6299C218.597 58.8643 218.64 59.1475 218.64 59.4795V63H217.736V59.5234C217.736 59.2467 217.689 59.0254 217.595 58.8594C217.504 58.6934 217.373 58.5729 217.204 58.498C217.035 58.4199 216.836 58.3809 216.608 58.3809C216.341 58.3809 216.118 58.4281 215.939 58.5225C215.76 58.6169 215.617 58.7471 215.51 58.9131C215.402 59.0791 215.324 59.2695 215.275 59.4844C215.23 59.696 215.207 59.9206 215.207 60.1582ZM218.63 59.6602L218.024 59.8457C218.028 59.556 218.075 59.2777 218.166 59.0107C218.26 58.7438 218.396 58.5062 218.571 58.2979C218.75 58.0895 218.97 57.9251 219.23 57.8047C219.491 57.681 219.789 57.6191 220.124 57.6191C220.407 57.6191 220.658 57.6566 220.876 57.7314C221.097 57.8063 221.283 57.9219 221.433 58.0781C221.586 58.2311 221.701 58.4281 221.779 58.6689C221.857 58.9098 221.896 59.1963 221.896 59.5283V63H220.988V59.5186C220.988 59.2223 220.941 58.9928 220.847 58.8301C220.756 58.6641 220.625 58.5485 220.456 58.4834C220.29 58.415 220.091 58.3809 219.86 58.3809C219.662 58.3809 219.486 58.415 219.333 58.4834C219.18 58.5518 219.051 58.6462 218.947 58.7666C218.843 58.8838 218.763 59.0189 218.708 59.1719C218.656 59.3249 218.63 59.4876 218.63 59.6602ZM226.379 62.0967V59.377C226.379 59.1686 226.337 58.988 226.252 58.835C226.171 58.6787 226.047 58.5583 225.881 58.4736C225.715 58.389 225.51 58.3467 225.266 58.3467C225.038 58.3467 224.838 58.3857 224.665 58.4639C224.496 58.542 224.362 58.6445 224.265 58.7715C224.17 58.8984 224.123 59.0352 224.123 59.1816H223.22C223.22 58.9928 223.269 58.8057 223.366 58.6201C223.464 58.4346 223.604 58.2669 223.786 58.1172C223.972 57.9642 224.193 57.8438 224.45 57.7559C224.711 57.6647 225 57.6191 225.319 57.6191C225.703 57.6191 226.042 57.6842 226.335 57.8145C226.631 57.9447 226.862 58.1416 227.028 58.4053C227.198 58.6657 227.282 58.9928 227.282 59.3867V61.8477C227.282 62.0234 227.297 62.2106 227.326 62.4092C227.359 62.6077 227.406 62.7786 227.468 62.9219V63H226.525C226.48 62.8958 226.444 62.7575 226.418 62.585C226.392 62.4092 226.379 62.2464 226.379 62.0967ZM226.535 59.7969L226.545 60.4316H225.632C225.375 60.4316 225.145 60.4528 224.943 60.4951C224.742 60.5342 224.572 60.5944 224.436 60.6758C224.299 60.7572 224.195 60.8597 224.123 60.9834C224.051 61.1038 224.016 61.2454 224.016 61.4082C224.016 61.5742 224.053 61.7256 224.128 61.8623C224.203 61.999 224.315 62.1081 224.465 62.1895C224.618 62.2676 224.805 62.3066 225.026 62.3066C225.303 62.3066 225.547 62.248 225.759 62.1309C225.97 62.0137 226.138 61.8704 226.262 61.7012C226.389 61.5319 226.457 61.3675 226.467 61.208L226.853 61.6426C226.83 61.7793 226.768 61.9307 226.667 62.0967C226.566 62.2627 226.431 62.4222 226.262 62.5752C226.096 62.7249 225.897 62.8503 225.666 62.9512C225.438 63.0488 225.181 63.0977 224.895 63.0977C224.536 63.0977 224.222 63.0277 223.952 62.8877C223.685 62.7477 223.477 62.5605 223.327 62.3262C223.181 62.0885 223.107 61.8232 223.107 61.5303C223.107 61.2471 223.163 60.998 223.273 60.7832C223.384 60.5651 223.544 60.3844 223.752 60.2412C223.96 60.0947 224.211 59.984 224.504 59.9092C224.797 59.8343 225.124 59.7969 225.485 59.7969H226.535ZM229.685 57.7168V63H228.776V57.7168H229.685ZM228.708 56.3154C228.708 56.1689 228.752 56.0452 228.84 55.9443C228.931 55.8434 229.064 55.793 229.24 55.793C229.413 55.793 229.545 55.8434 229.636 55.9443C229.73 56.0452 229.777 56.1689 229.777 56.3154C229.777 56.4554 229.73 56.5758 229.636 56.6768C229.545 56.7744 229.413 56.8232 229.24 56.8232C229.064 56.8232 228.931 56.7744 228.84 56.6768C228.752 56.5758 228.708 56.4554 228.708 56.3154ZM232.116 55.5V63H231.208V55.5H232.116Z" fill="#898F9B"/>
<path d="M317.764 60.2119H315.864V59.4453H317.764C318.132 59.4453 318.429 59.3867 318.657 59.2695C318.885 59.1523 319.051 58.9896 319.155 58.7812C319.263 58.5729 319.316 58.3353 319.316 58.0684C319.316 57.8242 319.263 57.5947 319.155 57.3799C319.051 57.165 318.885 56.9925 318.657 56.8623C318.429 56.7288 318.132 56.6621 317.764 56.6621H316.084V63H315.142V55.8906H317.764C318.301 55.8906 318.755 55.9834 319.126 56.1689C319.497 56.3545 319.779 56.6117 319.971 56.9404C320.163 57.266 320.259 57.6387 320.259 58.0586C320.259 58.5143 320.163 58.9033 319.971 59.2256C319.779 59.5479 319.497 59.7936 319.126 59.9629C318.755 60.1289 318.301 60.2119 317.764 60.2119ZM322.217 55.5V63H321.313V55.5H322.217ZM322.002 60.1582L321.626 60.1436C321.629 59.7822 321.683 59.4486 321.787 59.1426C321.891 58.8333 322.038 58.5648 322.227 58.3369C322.415 58.109 322.64 57.9333 322.9 57.8096C323.164 57.6826 323.455 57.6191 323.774 57.6191C324.035 57.6191 324.269 57.6549 324.478 57.7266C324.686 57.7949 324.863 57.9056 325.01 58.0586C325.16 58.2116 325.273 58.4102 325.352 58.6543C325.43 58.8952 325.469 59.1898 325.469 59.5381V63H324.561V59.5283C324.561 59.2516 324.52 59.0303 324.438 58.8643C324.357 58.695 324.238 58.5729 324.082 58.498C323.926 58.4199 323.734 58.3809 323.506 58.3809C323.281 58.3809 323.076 58.4281 322.891 58.5225C322.708 58.6169 322.55 58.7471 322.417 58.9131C322.287 59.0791 322.184 59.2695 322.109 59.4844C322.038 59.696 322.002 59.9206 322.002 60.1582ZM326.582 60.417V60.3047C326.582 59.9238 326.637 59.5706 326.748 59.2451C326.859 58.9163 327.018 58.6315 327.227 58.3906C327.435 58.1465 327.687 57.9577 327.983 57.8242C328.28 57.6875 328.612 57.6191 328.979 57.6191C329.351 57.6191 329.684 57.6875 329.98 57.8242C330.28 57.9577 330.534 58.1465 330.742 58.3906C330.954 58.6315 331.115 58.9163 331.226 59.2451C331.336 59.5706 331.392 59.9238 331.392 60.3047V60.417C331.392 60.7979 331.336 61.151 331.226 61.4766C331.115 61.8021 330.954 62.0869 330.742 62.3311C330.534 62.5719 330.282 62.7607 329.985 62.8975C329.692 63.0309 329.36 63.0977 328.989 63.0977C328.618 63.0977 328.285 63.0309 327.988 62.8975C327.692 62.7607 327.438 62.5719 327.227 62.3311C327.018 62.0869 326.859 61.8021 326.748 61.4766C326.637 61.151 326.582 60.7979 326.582 60.417ZM327.485 60.3047V60.417C327.485 60.6807 327.516 60.9297 327.578 61.1641C327.64 61.3952 327.733 61.6003 327.856 61.7793C327.983 61.9583 328.141 62.0999 328.33 62.2041C328.519 62.305 328.739 62.3555 328.989 62.3555C329.237 62.3555 329.453 62.305 329.639 62.2041C329.827 62.0999 329.984 61.9583 330.107 61.7793C330.231 61.6003 330.324 61.3952 330.386 61.1641C330.451 60.9297 330.483 60.6807 330.483 60.417V60.3047C330.483 60.0443 330.451 59.7985 330.386 59.5674C330.324 59.333 330.229 59.1263 330.103 58.9473C329.979 58.765 329.823 58.6217 329.634 58.5176C329.448 58.4134 329.23 58.3613 328.979 58.3613C328.732 58.3613 328.514 58.4134 328.325 58.5176C328.14 58.6217 327.983 58.765 327.856 58.9473C327.733 59.1263 327.64 59.333 327.578 59.5674C327.516 59.7985 327.485 60.0443 327.485 60.3047ZM333.428 58.8447V63H332.524V57.7168H333.379L333.428 58.8447ZM333.213 60.1582L332.837 60.1436C332.84 59.7822 332.894 59.4486 332.998 59.1426C333.102 58.8333 333.249 58.5648 333.438 58.3369C333.626 58.109 333.851 57.9333 334.111 57.8096C334.375 57.6826 334.666 57.6191 334.985 57.6191C335.246 57.6191 335.48 57.6549 335.688 57.7266C335.897 57.7949 336.074 57.9056 336.221 58.0586C336.37 58.2116 336.484 58.4102 336.562 58.6543C336.641 58.8952 336.68 59.1898 336.68 59.5381V63H335.771V59.5283C335.771 59.2516 335.731 59.0303 335.649 58.8643C335.568 58.695 335.449 58.5729 335.293 58.498C335.137 58.4199 334.945 58.3809 334.717 58.3809C334.492 58.3809 334.287 58.4281 334.102 58.5225C333.919 58.6169 333.761 58.7471 333.628 58.9131C333.498 59.0791 333.395 59.2695 333.32 59.4844C333.249 59.696 333.213 59.9206 333.213 60.1582ZM340.244 63.0977C339.876 63.0977 339.543 63.0358 339.243 62.9121C338.947 62.7852 338.691 62.6077 338.477 62.3799C338.265 62.152 338.102 61.8818 337.988 61.5693C337.874 61.2568 337.817 60.915 337.817 60.5439V60.3389C337.817 59.9092 337.881 59.5267 338.008 59.1914C338.135 58.8529 338.307 58.5664 338.525 58.332C338.743 58.0977 338.991 57.9202 339.268 57.7998C339.544 57.6794 339.831 57.6191 340.127 57.6191C340.505 57.6191 340.83 57.6842 341.104 57.8145C341.38 57.9447 341.606 58.127 341.782 58.3613C341.958 58.5924 342.088 58.8659 342.173 59.1816C342.257 59.4941 342.3 59.8359 342.3 60.207V60.6123H338.354V59.875H341.396V59.8066C341.383 59.5723 341.335 59.3444 341.25 59.123C341.169 58.9017 341.038 58.7194 340.859 58.5762C340.68 58.4329 340.436 58.3613 340.127 58.3613C339.922 58.3613 339.733 58.4053 339.561 58.4932C339.388 58.5778 339.24 58.7048 339.116 58.874C338.993 59.0433 338.896 59.25 338.828 59.4941C338.76 59.7383 338.726 60.0199 338.726 60.3389V60.5439C338.726 60.7946 338.76 61.0306 338.828 61.252C338.9 61.4701 339.002 61.6621 339.136 61.8281C339.272 61.9941 339.437 62.1243 339.629 62.2188C339.824 62.3132 340.046 62.3604 340.293 62.3604C340.612 62.3604 340.882 62.2952 341.104 62.165C341.325 62.0348 341.519 61.8607 341.685 61.6426L342.231 62.0771C342.118 62.2497 341.973 62.4141 341.797 62.5703C341.621 62.7266 341.405 62.8535 341.147 62.9512C340.894 63.0488 340.592 63.0977 340.244 63.0977ZM347.949 62.3555C348.164 62.3555 348.363 62.3115 348.545 62.2236C348.727 62.1357 348.877 62.0153 348.994 61.8623C349.111 61.7061 349.178 61.5286 349.194 61.3301H350.054C350.037 61.6426 349.932 61.9339 349.736 62.2041C349.544 62.471 349.292 62.6875 348.979 62.8535C348.667 63.0163 348.324 63.0977 347.949 63.0977C347.552 63.0977 347.205 63.0277 346.909 62.8877C346.616 62.7477 346.372 62.5557 346.177 62.3115C345.985 62.0674 345.84 61.7874 345.742 61.4717C345.648 61.1527 345.601 60.8158 345.601 60.4609V60.2559C345.601 59.901 345.648 59.5658 345.742 59.25C345.84 58.931 345.985 58.6494 346.177 58.4053C346.372 58.1611 346.616 57.9691 346.909 57.8291C347.205 57.6891 347.552 57.6191 347.949 57.6191C348.363 57.6191 348.724 57.7038 349.033 57.873C349.342 58.0391 349.585 58.2669 349.761 58.5566C349.94 58.8431 350.037 59.1686 350.054 59.5332H349.194C349.178 59.3151 349.116 59.1182 349.009 58.9424C348.905 58.7666 348.761 58.6266 348.579 58.5225C348.4 58.415 348.19 58.3613 347.949 58.3613C347.673 58.3613 347.44 58.4167 347.251 58.5273C347.065 58.6348 346.917 58.7812 346.807 58.9668C346.699 59.1491 346.621 59.3525 346.572 59.5771C346.527 59.7985 346.504 60.0247 346.504 60.2559V60.4609C346.504 60.6921 346.527 60.9199 346.572 61.1445C346.618 61.3691 346.694 61.5726 346.802 61.7549C346.912 61.9372 347.061 62.0837 347.246 62.1943C347.435 62.3018 347.669 62.3555 347.949 62.3555ZM354.185 62.0967V59.377C354.185 59.1686 354.142 58.988 354.058 58.835C353.976 58.6787 353.853 58.5583 353.687 58.4736C353.521 58.389 353.315 58.3467 353.071 58.3467C352.843 58.3467 352.643 58.3857 352.471 58.4639C352.301 58.542 352.168 58.6445 352.07 58.7715C351.976 58.8984 351.929 59.0352 351.929 59.1816H351.025C351.025 58.9928 351.074 58.8057 351.172 58.6201C351.27 58.4346 351.41 58.2669 351.592 58.1172C351.777 57.9642 351.999 57.8438 352.256 57.7559C352.516 57.6647 352.806 57.6191 353.125 57.6191C353.509 57.6191 353.848 57.6842 354.141 57.8145C354.437 57.9447 354.668 58.1416 354.834 58.4053C355.003 58.6657 355.088 58.9928 355.088 59.3867V61.8477C355.088 62.0234 355.103 62.2106 355.132 62.4092C355.164 62.6077 355.212 62.7786 355.273 62.9219V63H354.331C354.285 62.8958 354.25 62.7575 354.224 62.585C354.198 62.4092 354.185 62.2464 354.185 62.0967ZM354.341 59.7969L354.351 60.4316H353.438C353.18 60.4316 352.951 60.4528 352.749 60.4951C352.547 60.5342 352.378 60.5944 352.241 60.6758C352.104 60.7572 352 60.8597 351.929 60.9834C351.857 61.1038 351.821 61.2454 351.821 61.4082C351.821 61.5742 351.859 61.7256 351.934 61.8623C352.008 61.999 352.121 62.1081 352.271 62.1895C352.424 62.2676 352.611 62.3066 352.832 62.3066C353.109 62.3066 353.353 62.248 353.564 62.1309C353.776 62.0137 353.944 61.8704 354.067 61.7012C354.194 61.5319 354.263 61.3675 354.272 61.208L354.658 61.6426C354.635 61.7793 354.574 61.9307 354.473 62.0967C354.372 62.2627 354.237 62.4222 354.067 62.5752C353.901 62.7249 353.703 62.8503 353.472 62.9512C353.244 63.0488 352.987 63.0977 352.7 63.0977C352.342 63.0977 352.028 63.0277 351.758 62.8877C351.491 62.7477 351.283 62.5605 351.133 62.3262C350.986 62.0885 350.913 61.8232 350.913 61.5303C350.913 61.2471 350.968 60.998 351.079 60.7832C351.19 60.5651 351.349 60.3844 351.558 60.2412C351.766 60.0947 352.017 59.984 352.31 59.9092C352.603 59.8343 352.93 59.7969 353.291 59.7969H354.341ZM357.49 55.5V63H356.582V55.5H357.49ZM359.922 55.5V63H359.014V55.5H359.922Z" fill="#898F9B"/>
<path d="M433.539 61.2031C433.539 61.0371 433.513 60.8906 433.461 60.7637C433.412 60.6335 433.324 60.5163 433.197 60.4121C433.074 60.3079 432.901 60.2087 432.68 60.1143C432.462 60.0199 432.185 59.9238 431.85 59.8262C431.498 59.722 431.181 59.6064 430.897 59.4795C430.614 59.3493 430.372 59.2012 430.17 59.0352C429.968 58.8691 429.813 58.6787 429.706 58.4639C429.599 58.249 429.545 58.0033 429.545 57.7266C429.545 57.4499 429.602 57.1943 429.716 56.96C429.83 56.7256 429.993 56.5221 430.204 56.3496C430.419 56.1738 430.674 56.0371 430.971 55.9395C431.267 55.8418 431.597 55.793 431.962 55.793C432.496 55.793 432.948 55.8955 433.319 56.1006C433.694 56.3024 433.979 56.5677 434.174 56.8965C434.369 57.222 434.467 57.5703 434.467 57.9414H433.529C433.529 57.6745 433.472 57.4385 433.358 57.2334C433.244 57.0251 433.072 56.8623 432.841 56.7451C432.61 56.6247 432.317 56.5645 431.962 56.5645C431.627 56.5645 431.35 56.6149 431.132 56.7158C430.914 56.8167 430.751 56.9535 430.644 57.126C430.539 57.2985 430.487 57.4954 430.487 57.7168C430.487 57.8665 430.518 58.0033 430.58 58.127C430.645 58.2474 430.744 58.3597 430.878 58.4639C431.015 58.568 431.187 58.6641 431.396 58.752C431.607 58.8398 431.859 58.9245 432.152 59.0059C432.556 59.1198 432.904 59.2467 433.197 59.3867C433.49 59.5267 433.731 59.6846 433.92 59.8604C434.112 60.0329 434.254 60.2298 434.345 60.4512C434.439 60.6693 434.486 60.9167 434.486 61.1934C434.486 61.4831 434.428 61.7451 434.311 61.9795C434.193 62.2139 434.026 62.4141 433.808 62.5801C433.59 62.7461 433.327 62.8747 433.021 62.9658C432.719 63.0537 432.38 63.0977 432.006 63.0977C431.677 63.0977 431.353 63.0521 431.034 62.9609C430.718 62.8698 430.43 62.7331 430.17 62.5508C429.913 62.3685 429.706 62.1439 429.55 61.877C429.397 61.6068 429.32 61.2943 429.32 60.9395H430.258C430.258 61.1836 430.305 61.3936 430.399 61.5693C430.494 61.7419 430.622 61.8851 430.785 61.999C430.951 62.113 431.138 62.1976 431.347 62.2529C431.558 62.305 431.778 62.3311 432.006 62.3311C432.335 62.3311 432.613 62.2855 432.841 62.1943C433.069 62.1032 433.241 61.973 433.358 61.8037C433.479 61.6344 433.539 61.4342 433.539 61.2031ZM437.665 62.3555C437.88 62.3555 438.078 62.3115 438.261 62.2236C438.443 62.1357 438.593 62.0153 438.71 61.8623C438.827 61.7061 438.894 61.5286 438.91 61.3301H439.77C439.753 61.6426 439.647 61.9339 439.452 62.2041C439.26 62.471 439.008 62.6875 438.695 62.8535C438.383 63.0163 438.039 63.0977 437.665 63.0977C437.268 63.0977 436.921 63.0277 436.625 62.8877C436.332 62.7477 436.088 62.5557 435.893 62.3115C435.701 62.0674 435.556 61.7874 435.458 61.4717C435.364 61.1527 435.316 60.8158 435.316 60.4609V60.2559C435.316 59.901 435.364 59.5658 435.458 59.25C435.556 58.931 435.701 58.6494 435.893 58.4053C436.088 58.1611 436.332 57.9691 436.625 57.8291C436.921 57.6891 437.268 57.6191 437.665 57.6191C438.078 57.6191 438.44 57.7038 438.749 57.873C439.058 58.0391 439.301 58.2669 439.477 58.5566C439.656 58.8431 439.753 59.1686 439.77 59.5332H438.91C438.894 59.3151 438.832 59.1182 438.725 58.9424C438.62 58.7666 438.477 58.6266 438.295 58.5225C438.116 58.415 437.906 58.3613 437.665 58.3613C437.388 58.3613 437.156 58.4167 436.967 58.5273C436.781 58.6348 436.633 58.7812 436.522 58.9668C436.415 59.1491 436.337 59.3525 436.288 59.5771C436.243 59.7985 436.22 60.0247 436.22 60.2559V60.4609C436.22 60.6921 436.243 60.9199 436.288 61.1445C436.334 61.3691 436.41 61.5726 436.518 61.7549C436.628 61.9372 436.776 62.0837 436.962 62.1943C437.151 62.3018 437.385 62.3555 437.665 62.3555ZM441.688 55.5V63H440.785V55.5H441.688ZM441.474 60.1582L441.098 60.1436C441.101 59.7822 441.155 59.4486 441.259 59.1426C441.363 58.8333 441.509 58.5648 441.698 58.3369C441.887 58.109 442.112 57.9333 442.372 57.8096C442.636 57.6826 442.927 57.6191 443.246 57.6191C443.507 57.6191 443.741 57.6549 443.949 57.7266C444.158 57.7949 444.335 57.9056 444.481 58.0586C444.631 58.2116 444.745 58.4102 444.823 58.6543C444.901 58.8952 444.94 59.1898 444.94 59.5381V63H444.032V59.5283C444.032 59.2516 443.992 59.0303 443.91 58.8643C443.829 58.695 443.71 58.5729 443.554 58.498C443.397 58.4199 443.205 58.3809 442.978 58.3809C442.753 58.3809 442.548 58.4281 442.362 58.5225C442.18 58.6169 442.022 58.7471 441.889 58.9131C441.758 59.0791 441.656 59.2695 441.581 59.4844C441.509 59.696 441.474 59.9206 441.474 60.1582ZM448.485 63.0977C448.118 63.0977 447.784 63.0358 447.484 62.9121C447.188 62.7852 446.933 62.6077 446.718 62.3799C446.506 62.152 446.343 61.8818 446.229 61.5693C446.116 61.2568 446.059 60.915 446.059 60.5439V60.3389C446.059 59.9092 446.122 59.5267 446.249 59.1914C446.376 58.8529 446.549 58.5664 446.767 58.332C446.985 58.0977 447.232 57.9202 447.509 57.7998C447.785 57.6794 448.072 57.6191 448.368 57.6191C448.746 57.6191 449.071 57.6842 449.345 57.8145C449.621 57.9447 449.848 58.127 450.023 58.3613C450.199 58.5924 450.329 58.8659 450.414 59.1816C450.499 59.4941 450.541 59.8359 450.541 60.207V60.6123H446.596V59.875H449.638V59.8066C449.625 59.5723 449.576 59.3444 449.491 59.123C449.41 58.9017 449.28 58.7194 449.101 58.5762C448.922 58.4329 448.677 58.3613 448.368 58.3613C448.163 58.3613 447.974 58.4053 447.802 58.4932C447.629 58.5778 447.481 58.7048 447.357 58.874C447.234 59.0433 447.138 59.25 447.069 59.4941C447.001 59.7383 446.967 60.0199 446.967 60.3389V60.5439C446.967 60.7946 447.001 61.0306 447.069 61.252C447.141 61.4701 447.243 61.6621 447.377 61.8281C447.514 61.9941 447.678 62.1243 447.87 62.2188C448.065 62.3132 448.287 62.3604 448.534 62.3604C448.853 62.3604 449.123 62.2952 449.345 62.165C449.566 62.0348 449.76 61.8607 449.926 61.6426L450.473 62.0771C450.359 62.2497 450.214 62.4141 450.038 62.5703C449.862 62.7266 449.646 62.8535 449.389 62.9512C449.135 63.0488 448.834 63.0977 448.485 63.0977ZM454.926 61.9746V55.5H455.834V63H455.004L454.926 61.9746ZM451.371 60.417V60.3145C451.371 59.9108 451.42 59.5446 451.518 59.2158C451.618 58.8838 451.76 58.599 451.942 58.3613C452.128 58.1237 452.348 57.9414 452.602 57.8145C452.859 57.6842 453.145 57.6191 453.461 57.6191C453.793 57.6191 454.083 57.6777 454.33 57.7949C454.581 57.9089 454.792 58.0765 454.965 58.2979C455.141 58.516 455.279 58.7796 455.38 59.0889C455.481 59.3981 455.551 59.748 455.59 60.1387V60.5879C455.554 60.9753 455.484 61.3236 455.38 61.6328C455.279 61.9421 455.141 62.2057 454.965 62.4238C454.792 62.6419 454.581 62.8096 454.33 62.9268C454.079 63.0407 453.786 63.0977 453.451 63.0977C453.142 63.0977 452.859 63.0309 452.602 62.8975C452.348 62.764 452.128 62.5768 451.942 62.3359C451.76 62.0951 451.618 61.8118 451.518 61.4863C451.42 61.1576 451.371 60.8011 451.371 60.417ZM452.279 60.3145V60.417C452.279 60.6807 452.305 60.9281 452.357 61.1592C452.413 61.3903 452.497 61.5938 452.611 61.7695C452.725 61.9453 452.87 62.0837 453.046 62.1846C453.222 62.2822 453.432 62.3311 453.676 62.3311C453.975 62.3311 454.221 62.2676 454.413 62.1406C454.608 62.0137 454.765 61.846 454.882 61.6377C454.999 61.4294 455.09 61.2031 455.155 60.959V59.7822C455.116 59.6032 455.059 59.4307 454.984 59.2646C454.913 59.0954 454.818 58.9456 454.701 58.8154C454.587 58.682 454.446 58.5762 454.276 58.498C454.11 58.4199 453.913 58.3809 453.686 58.3809C453.438 58.3809 453.225 58.4329 453.046 58.5371C452.87 58.638 452.725 58.778 452.611 58.957C452.497 59.1328 452.413 59.3379 452.357 59.5723C452.305 59.8034 452.279 60.0508 452.279 60.3145ZM460.473 61.7793V57.7168H461.381V63H460.517L460.473 61.7793ZM460.644 60.666L461.02 60.6562C461.02 61.0078 460.982 61.3333 460.907 61.6328C460.836 61.929 460.718 62.1862 460.556 62.4043C460.393 62.6224 460.18 62.7933 459.916 62.917C459.652 63.0374 459.332 63.0977 458.954 63.0977C458.697 63.0977 458.461 63.0602 458.246 62.9854C458.035 62.9105 457.852 62.7949 457.699 62.6387C457.546 62.4824 457.427 62.279 457.343 62.0283C457.261 61.7777 457.221 61.4766 457.221 61.125V57.7168H458.124V61.1348C458.124 61.3724 458.15 61.5693 458.202 61.7256C458.257 61.8786 458.331 62.0007 458.422 62.0918C458.516 62.1797 458.62 62.2415 458.734 62.2773C458.852 62.3132 458.972 62.3311 459.096 62.3311C459.48 62.3311 459.784 62.2578 460.009 62.1113C460.233 61.9616 460.395 61.7614 460.492 61.5107C460.593 61.2568 460.644 60.9753 460.644 60.666ZM463.739 55.5V63H462.831V55.5H463.739ZM466.171 57.7168V63H465.263V57.7168H466.171ZM465.194 56.3154C465.194 56.1689 465.238 56.0452 465.326 55.9443C465.417 55.8434 465.551 55.793 465.727 55.793C465.899 55.793 466.031 55.8434 466.122 55.9443C466.216 56.0452 466.264 56.1689 466.264 56.3154C466.264 56.4554 466.216 56.5758 466.122 56.6768C466.031 56.7744 465.899 56.8232 465.727 56.8232C465.551 56.8232 465.417 56.7744 465.326 56.6768C465.238 56.5758 465.194 56.4554 465.194 56.3154ZM468.524 58.8447V63H467.621V57.7168H468.476L468.524 58.8447ZM468.31 60.1582L467.934 60.1436C467.937 59.7822 467.991 59.4486 468.095 59.1426C468.199 58.8333 468.345 58.5648 468.534 58.3369C468.723 58.109 468.948 57.9333 469.208 57.8096C469.472 57.6826 469.763 57.6191 470.082 57.6191C470.342 57.6191 470.577 57.6549 470.785 57.7266C470.993 57.7949 471.171 57.9056 471.317 58.0586C471.467 58.2116 471.581 58.4102 471.659 58.6543C471.737 58.8952 471.776 59.1898 471.776 59.5381V63H470.868V59.5283C470.868 59.2516 470.827 59.0303 470.746 58.8643C470.665 58.695 470.546 58.5729 470.39 58.498C470.233 58.4199 470.041 58.3809 469.813 58.3809C469.589 58.3809 469.384 58.4281 469.198 58.5225C469.016 58.6169 468.858 58.7471 468.725 58.9131C468.594 59.0791 468.492 59.2695 468.417 59.4844C468.345 59.696 468.31 59.9206 468.31 60.1582ZM476.571 57.7168H477.392V62.8877C477.392 63.3532 477.297 63.7503 477.108 64.0791C476.92 64.4079 476.656 64.6569 476.317 64.8262C475.982 64.9987 475.595 65.085 475.155 65.085C474.973 65.085 474.758 65.0557 474.511 64.9971C474.267 64.9417 474.026 64.8457 473.788 64.709C473.554 64.5755 473.357 64.3949 473.197 64.167L473.671 63.6299C473.892 63.8968 474.123 64.0824 474.364 64.1865C474.608 64.2907 474.849 64.3428 475.087 64.3428C475.373 64.3428 475.621 64.2891 475.829 64.1816C476.037 64.0742 476.199 63.9147 476.312 63.7031C476.43 63.4948 476.488 63.2376 476.488 62.9316V58.8789L476.571 57.7168ZM472.934 60.417V60.3145C472.934 59.9108 472.981 59.5446 473.075 59.2158C473.173 58.8838 473.311 58.599 473.49 58.3613C473.673 58.1237 473.892 57.9414 474.149 57.8145C474.407 57.6842 474.696 57.6191 475.019 57.6191C475.351 57.6191 475.64 57.6777 475.888 57.7949C476.138 57.9089 476.35 58.0765 476.522 58.2979C476.698 58.516 476.837 58.7796 476.938 59.0889C477.038 59.3981 477.108 59.748 477.147 60.1387V60.5879C477.112 60.9753 477.042 61.3236 476.938 61.6328C476.837 61.9421 476.698 62.2057 476.522 62.4238C476.35 62.6419 476.138 62.8096 475.888 62.9268C475.637 63.0407 475.344 63.0977 475.009 63.0977C474.693 63.0977 474.407 63.0309 474.149 62.8975C473.896 62.764 473.677 62.5768 473.495 62.3359C473.313 62.0951 473.173 61.8118 473.075 61.4863C472.981 61.1576 472.934 60.8011 472.934 60.417ZM473.837 60.3145V60.417C473.837 60.6807 473.863 60.9281 473.915 61.1592C473.97 61.3903 474.053 61.5938 474.164 61.7695C474.278 61.9453 474.423 62.0837 474.599 62.1846C474.774 62.2822 474.984 62.3311 475.229 62.3311C475.528 62.3311 475.775 62.2676 475.971 62.1406C476.166 62.0137 476.321 61.846 476.435 61.6377C476.552 61.4294 476.643 61.2031 476.708 60.959V59.7822C476.672 59.6032 476.617 59.4307 476.542 59.2646C476.47 59.0954 476.376 58.9456 476.259 58.8154C476.145 58.682 476.003 58.5762 475.834 58.498C475.665 58.4199 475.466 58.3809 475.238 58.3809C474.991 58.3809 474.778 58.4329 474.599 58.5371C474.423 58.638 474.278 58.778 474.164 58.957C474.053 59.1328 473.97 59.3379 473.915 59.5723C473.863 59.8034 473.837 60.0508 473.837 60.3145Z" fill="#898F9B"/>
<path d="M540.72 55.8906V63H539.792V55.8906H540.72ZM543.005 55.8906V56.6621H537.512V55.8906H543.005ZM545.627 63.0977C545.259 63.0977 544.925 63.0358 544.626 62.9121C544.33 62.7852 544.074 62.6077 543.859 62.3799C543.648 62.152 543.485 61.8818 543.371 61.5693C543.257 61.2568 543.2 60.915 543.2 60.5439V60.3389C543.2 59.9092 543.264 59.5267 543.391 59.1914C543.518 58.8529 543.69 58.5664 543.908 58.332C544.126 58.0977 544.374 57.9202 544.65 57.7998C544.927 57.6794 545.214 57.6191 545.51 57.6191C545.887 57.6191 546.213 57.6842 546.486 57.8145C546.763 57.9447 546.989 58.127 547.165 58.3613C547.341 58.5924 547.471 58.8659 547.556 59.1816C547.64 59.4941 547.683 59.8359 547.683 60.207V60.6123H543.737V59.875H546.779V59.8066C546.766 59.5723 546.717 59.3444 546.633 59.123C546.551 58.9017 546.421 58.7194 546.242 58.5762C546.063 58.4329 545.819 58.3613 545.51 58.3613C545.305 58.3613 545.116 58.4053 544.943 58.4932C544.771 58.5778 544.623 58.7048 544.499 58.874C544.375 59.0433 544.279 59.25 544.211 59.4941C544.143 59.7383 544.108 60.0199 544.108 60.3389V60.5439C544.108 60.7946 544.143 61.0306 544.211 61.252C544.283 61.4701 544.385 61.6621 544.519 61.8281C544.655 61.9941 544.82 62.1243 545.012 62.2188C545.207 62.3132 545.428 62.3604 545.676 62.3604C545.995 62.3604 546.265 62.2952 546.486 62.165C546.708 62.0348 546.901 61.8607 547.067 61.6426L547.614 62.0771C547.5 62.2497 547.355 62.4141 547.18 62.5703C547.004 62.7266 546.787 62.8535 546.53 62.9512C546.276 63.0488 545.975 63.0977 545.627 63.0977ZM549.348 57.7168L550.505 59.6406L551.677 57.7168H552.736L551.008 60.3242L552.79 63H551.745L550.524 61.0176L549.304 63H548.254L550.031 60.3242L548.308 57.7168H549.348ZM555.91 57.7168V58.4102H553.054V57.7168H555.91ZM554.021 56.4326H554.924V61.6914C554.924 61.8704 554.951 62.0055 555.007 62.0967C555.062 62.1878 555.134 62.248 555.222 62.2773C555.31 62.3066 555.404 62.3213 555.505 62.3213C555.58 62.3213 555.658 62.3148 555.739 62.3018C555.824 62.2855 555.887 62.2725 555.93 62.2627L555.935 63C555.863 63.0228 555.769 63.0439 555.651 63.0635C555.537 63.0863 555.399 63.0977 555.236 63.0977C555.015 63.0977 554.812 63.0537 554.626 62.9658C554.44 62.8779 554.292 62.7314 554.182 62.5264C554.074 62.318 554.021 62.0381 554.021 61.6865V56.4326ZM562.78 61.9746V55.5H563.688V63H562.858L562.78 61.9746ZM559.226 60.417V60.3145C559.226 59.9108 559.274 59.5446 559.372 59.2158C559.473 58.8838 559.615 58.599 559.797 58.3613C559.982 58.1237 560.202 57.9414 560.456 57.8145C560.713 57.6842 561 57.6191 561.315 57.6191C561.647 57.6191 561.937 57.6777 562.185 57.7949C562.435 57.9089 562.647 58.0765 562.819 58.2979C562.995 58.516 563.133 58.7796 563.234 59.0889C563.335 59.3981 563.405 59.748 563.444 60.1387V60.5879C563.409 60.9753 563.339 61.3236 563.234 61.6328C563.133 61.9421 562.995 62.2057 562.819 62.4238C562.647 62.6419 562.435 62.8096 562.185 62.9268C561.934 63.0407 561.641 63.0977 561.306 63.0977C560.996 63.0977 560.713 63.0309 560.456 62.8975C560.202 62.764 559.982 62.5768 559.797 62.3359C559.615 62.0951 559.473 61.8118 559.372 61.4863C559.274 61.1576 559.226 60.8011 559.226 60.417ZM560.134 60.3145V60.417C560.134 60.6807 560.16 60.9281 560.212 61.1592C560.267 61.3903 560.352 61.5938 560.466 61.7695C560.58 61.9453 560.725 62.0837 560.9 62.1846C561.076 62.2822 561.286 62.3311 561.53 62.3311C561.83 62.3311 562.076 62.2676 562.268 62.1406C562.463 62.0137 562.619 61.846 562.736 61.6377C562.854 61.4294 562.945 61.2031 563.01 60.959V59.7822C562.971 59.6032 562.914 59.4307 562.839 59.2646C562.767 59.0954 562.673 58.9456 562.556 58.8154C562.442 58.682 562.3 58.5762 562.131 58.498C561.965 58.4199 561.768 58.3809 561.54 58.3809C561.293 58.3809 561.079 58.4329 560.9 58.5371C560.725 58.638 560.58 58.778 560.466 58.957C560.352 59.1328 560.267 59.3379 560.212 59.5723C560.16 59.8034 560.134 60.0508 560.134 60.3145ZM564.855 60.417V60.3047C564.855 59.9238 564.911 59.5706 565.021 59.2451C565.132 58.9163 565.292 58.6315 565.5 58.3906C565.708 58.1465 565.961 57.9577 566.257 57.8242C566.553 57.6875 566.885 57.6191 567.253 57.6191C567.624 57.6191 567.958 57.6875 568.254 57.8242C568.553 57.9577 568.807 58.1465 569.016 58.3906C569.227 58.6315 569.388 58.9163 569.499 59.2451C569.61 59.5706 569.665 59.9238 569.665 60.3047V60.417C569.665 60.7979 569.61 61.151 569.499 61.4766C569.388 61.8021 569.227 62.0869 569.016 62.3311C568.807 62.5719 568.555 62.7607 568.259 62.8975C567.966 63.0309 567.634 63.0977 567.263 63.0977C566.892 63.0977 566.558 63.0309 566.262 62.8975C565.965 62.7607 565.712 62.5719 565.5 62.3311C565.292 62.0869 565.132 61.8021 565.021 61.4766C564.911 61.151 564.855 60.7979 564.855 60.417ZM565.759 60.3047V60.417C565.759 60.6807 565.79 60.9297 565.852 61.1641C565.913 61.3952 566.006 61.6003 566.13 61.7793C566.257 61.9583 566.415 62.0999 566.604 62.2041C566.792 62.305 567.012 62.3555 567.263 62.3555C567.51 62.3555 567.727 62.305 567.912 62.2041C568.101 62.0999 568.257 61.9583 568.381 61.7793C568.505 61.6003 568.597 61.3952 568.659 61.1641C568.724 60.9297 568.757 60.6807 568.757 60.417V60.3047C568.757 60.0443 568.724 59.7985 568.659 59.5674C568.597 59.333 568.503 59.1263 568.376 58.9473C568.252 58.765 568.096 58.6217 567.907 58.5176C567.722 58.4134 567.504 58.3613 567.253 58.3613C567.006 58.3613 566.787 58.4134 566.599 58.5176C566.413 58.6217 566.257 58.765 566.13 58.9473C566.006 59.1263 565.913 59.333 565.852 59.5674C565.79 59.7985 565.759 60.0443 565.759 60.3047ZM572.912 62.3555C573.127 62.3555 573.326 62.3115 573.508 62.2236C573.69 62.1357 573.84 62.0153 573.957 61.8623C574.074 61.7061 574.141 61.5286 574.157 61.3301H575.017C575 61.6426 574.895 61.9339 574.699 62.2041C574.507 62.471 574.255 62.6875 573.942 62.8535C573.63 63.0163 573.286 63.0977 572.912 63.0977C572.515 63.0977 572.168 63.0277 571.872 62.8877C571.579 62.7477 571.335 62.5557 571.14 62.3115C570.948 62.0674 570.803 61.7874 570.705 61.4717C570.611 61.1527 570.563 60.8158 570.563 60.4609V60.2559C570.563 59.901 570.611 59.5658 570.705 59.25C570.803 58.931 570.948 58.6494 571.14 58.4053C571.335 58.1611 571.579 57.9691 571.872 57.8291C572.168 57.6891 572.515 57.6191 572.912 57.6191C573.326 57.6191 573.687 57.7038 573.996 57.873C574.305 58.0391 574.548 58.2669 574.724 58.5566C574.903 58.8431 575 59.1686 575.017 59.5332H574.157C574.141 59.3151 574.079 59.1182 573.972 58.9424C573.868 58.7666 573.724 58.6266 573.542 58.5225C573.363 58.415 573.153 58.3613 572.912 58.3613C572.635 58.3613 572.403 58.4167 572.214 58.5273C572.028 58.6348 571.88 58.7812 571.77 58.9668C571.662 59.1491 571.584 59.3525 571.535 59.5771C571.49 59.7985 571.467 60.0247 571.467 60.2559V60.4609C571.467 60.6921 571.49 60.9199 571.535 61.1445C571.581 61.3691 571.657 61.5726 571.765 61.7549C571.875 61.9372 572.023 62.0837 572.209 62.1943C572.398 62.3018 572.632 62.3555 572.912 62.3555ZM579.265 61.7793V57.7168H580.173V63H579.309L579.265 61.7793ZM579.436 60.666L579.812 60.6562C579.812 61.0078 579.774 61.3333 579.699 61.6328C579.628 61.929 579.51 62.1862 579.348 62.4043C579.185 62.6224 578.972 62.7933 578.708 62.917C578.444 63.0374 578.124 63.0977 577.746 63.0977C577.489 63.0977 577.253 63.0602 577.038 62.9854C576.826 62.9105 576.644 62.7949 576.491 62.6387C576.338 62.4824 576.219 62.279 576.135 62.0283C576.053 61.7777 576.013 61.4766 576.013 61.125V57.7168H576.916V61.1348C576.916 61.3724 576.942 61.5693 576.994 61.7256C577.049 61.8786 577.123 62.0007 577.214 62.0918C577.308 62.1797 577.412 62.2415 577.526 62.2773C577.644 62.3132 577.764 62.3311 577.888 62.3311C578.272 62.3311 578.576 62.2578 578.801 62.1113C579.025 61.9616 579.187 61.7614 579.284 61.5107C579.385 61.2568 579.436 60.9753 579.436 60.666ZM582.448 58.7666V63H581.54V57.7168H582.399L582.448 58.7666ZM582.263 60.1582L581.843 60.1436C581.846 59.7822 581.893 59.4486 581.984 59.1426C582.076 58.8333 582.211 58.5648 582.39 58.3369C582.569 58.109 582.792 57.9333 583.059 57.8096C583.326 57.6826 583.635 57.6191 583.986 57.6191C584.234 57.6191 584.462 57.6549 584.67 57.7266C584.878 57.7949 585.059 57.904 585.212 58.0537C585.365 58.2035 585.484 58.3955 585.568 58.6299C585.653 58.8643 585.695 59.1475 585.695 59.4795V63H584.792V59.5234C584.792 59.2467 584.745 59.0254 584.65 58.8594C584.559 58.6934 584.429 58.5729 584.26 58.498C584.09 58.4199 583.892 58.3809 583.664 58.3809C583.397 58.3809 583.174 58.4281 582.995 58.5225C582.816 58.6169 582.673 58.7471 582.565 58.9131C582.458 59.0791 582.38 59.2695 582.331 59.4844C582.285 59.696 582.263 59.9206 582.263 60.1582ZM585.686 59.6602L585.08 59.8457C585.083 59.556 585.131 59.2777 585.222 59.0107C585.316 58.7438 585.451 58.5062 585.627 58.2979C585.806 58.0895 586.026 57.9251 586.286 57.8047C586.547 57.681 586.844 57.6191 587.18 57.6191C587.463 57.6191 587.714 57.6566 587.932 57.7314C588.153 57.8063 588.339 57.9219 588.488 58.0781C588.641 58.2311 588.757 58.4281 588.835 58.6689C588.913 58.9098 588.952 59.1963 588.952 59.5283V63H588.044V59.5186C588.044 59.2223 587.997 58.9928 587.902 58.8301C587.811 58.6641 587.681 58.5485 587.512 58.4834C587.346 58.415 587.147 58.3809 586.916 58.3809C586.717 58.3809 586.542 58.415 586.389 58.4834C586.236 58.5518 586.107 58.6462 586.003 58.7666C585.899 58.8838 585.819 59.0189 585.764 59.1719C585.712 59.3249 585.686 59.4876 585.686 59.6602ZM592.512 63.0977C592.144 63.0977 591.81 63.0358 591.511 62.9121C591.215 62.7852 590.959 62.6077 590.744 62.3799C590.533 62.152 590.37 61.8818 590.256 61.5693C590.142 61.2568 590.085 60.915 590.085 60.5439V60.3389C590.085 59.9092 590.148 59.5267 590.275 59.1914C590.402 58.8529 590.575 58.5664 590.793 58.332C591.011 58.0977 591.258 57.9202 591.535 57.7998C591.812 57.6794 592.098 57.6191 592.395 57.6191C592.772 57.6191 593.098 57.6842 593.371 57.8145C593.648 57.9447 593.874 58.127 594.05 58.3613C594.226 58.5924 594.356 58.8659 594.44 59.1816C594.525 59.4941 594.567 59.8359 594.567 60.207V60.6123H590.622V59.875H593.664V59.8066C593.651 59.5723 593.602 59.3444 593.518 59.123C593.436 58.9017 593.306 58.7194 593.127 58.5762C592.948 58.4329 592.704 58.3613 592.395 58.3613C592.189 58.3613 592.001 58.4053 591.828 58.4932C591.656 58.5778 591.507 58.7048 591.384 58.874C591.26 59.0433 591.164 59.25 591.096 59.4941C591.027 59.7383 590.993 60.0199 590.993 60.3389V60.5439C590.993 60.7946 591.027 61.0306 591.096 61.252C591.167 61.4701 591.27 61.6621 591.403 61.8281C591.54 61.9941 591.704 62.1243 591.896 62.2188C592.092 62.3132 592.313 62.3604 592.561 62.3604C592.88 62.3604 593.15 62.2952 593.371 62.165C593.592 62.0348 593.786 61.8607 593.952 61.6426L594.499 62.0771C594.385 62.2497 594.24 62.4141 594.064 62.5703C593.889 62.7266 593.672 62.8535 593.415 62.9512C593.161 63.0488 592.86 63.0977 592.512 63.0977ZM596.525 58.8447V63H595.622V57.7168H596.477L596.525 58.8447ZM596.311 60.1582L595.935 60.1436C595.938 59.7822 595.992 59.4486 596.096 59.1426C596.2 58.8333 596.346 58.5648 596.535 58.3369C596.724 58.109 596.949 57.9333 597.209 57.8096C597.473 57.6826 597.764 57.6191 598.083 57.6191C598.343 57.6191 598.578 57.6549 598.786 57.7266C598.994 57.7949 599.172 57.9056 599.318 58.0586C599.468 58.2116 599.582 58.4102 599.66 58.6543C599.738 58.8952 599.777 59.1898 599.777 59.5381V63H598.869V59.5283C598.869 59.2516 598.828 59.0303 598.747 58.8643C598.666 58.695 598.547 58.5729 598.391 58.498C598.234 58.4199 598.042 58.3809 597.814 58.3809C597.59 58.3809 597.385 58.4281 597.199 58.5225C597.017 58.6169 596.859 58.7471 596.726 58.9131C596.595 59.0791 596.493 59.2695 596.418 59.4844C596.346 59.696 596.311 59.9206 596.311 60.1582ZM603.361 57.7168V58.4102H600.505V57.7168H603.361ZM601.472 56.4326H602.375V61.6914C602.375 61.8704 602.403 62.0055 602.458 62.0967C602.513 62.1878 602.585 62.248 602.673 62.2773C602.761 62.3066 602.855 62.3213 602.956 62.3213C603.031 62.3213 603.109 62.3148 603.19 62.3018C603.275 62.2855 603.339 62.2725 603.381 62.2627L603.386 63C603.314 63.0228 603.22 63.0439 603.103 63.0635C602.989 63.0863 602.85 63.0977 602.688 63.0977C602.466 63.0977 602.263 63.0537 602.077 62.9658C601.892 62.8779 601.743 62.7314 601.633 62.5264C601.525 62.318 601.472 62.0381 601.472 61.6865V56.4326Z" fill="#898F9B"/>
<rect x="201" y="6" width="38" height="38" rx="19" fill="#E6EEFB"/>
<path d="M212 17H228C229.1 17 230 17.9 230 19V31C230 32.1 229.1 33 228 33H212C210.9 33 210 32.1 210 31V19C210 17.9 210.9 17 212 17Z" stroke="#5384ED" stroke-width="2" stroke-linecap="round" stroke-linejoin="round"/>
<path d="M230 19L220 26L210 19" stroke="#5384ED" stroke-width="2" stroke-linecap="round" stroke-linejoin="round"/>
<line x1="239" y1="24.5" x2="317.667" y2="24.5" stroke="#BACCF4" stroke-dasharray="2 2"/>
<rect x="317.667" y="6" width="38" height="38" rx="19" fill="#E6EEFB"/>
<path d="M346.666 29.9201V32.9201C346.668 33.1986 346.611 33.4743 346.499 33.7294C346.387 33.9846 346.224 34.2137 346.019 34.402C345.813 34.5902 345.571 34.7336 345.307 34.8228C345.043 34.912 344.764 34.9452 344.486 34.9201C341.409 34.5857 338.453 33.5342 335.856 31.8501C333.44 30.3148 331.392 28.2663 329.856 25.8501C328.166 23.2413 327.115 20.2711 326.786 17.1801C326.761 16.9036 326.794 16.6249 326.883 16.3617C326.972 16.0986 327.114 15.8568 327.301 15.6517C327.488 15.4466 327.716 15.2828 327.97 15.1706C328.224 15.0584 328.499 15.0004 328.776 15.0001H331.776C332.262 14.9953 332.732 15.1672 333.1 15.4836C333.468 15.8001 333.709 16.2395 333.776 16.7201C333.903 17.6802 334.138 18.6228 334.476 19.5301C334.611 19.888 334.64 20.277 334.56 20.651C334.481 21.0249 334.295 21.3682 334.026 21.6401L332.756 22.9101C334.18 25.4136 336.253 27.4865 338.756 28.9101L340.026 27.6401C340.298 27.3712 340.642 27.1859 341.016 27.1062C341.39 27.0264 341.779 27.0556 342.136 27.1901C343.044 27.5286 343.986 27.7635 344.946 27.8901C345.432 27.9586 345.876 28.2033 346.193 28.5776C346.51 28.9519 346.679 29.4297 346.666 29.9201Z" stroke="#5384ED" stroke-width="2" stroke-linecap="round" stroke-linejoin="round"/>
<line x1="355.667" y1="24.5" x2="434.333" y2="24.5" stroke="#BACCF4" stroke-dasharray="2 2"/>
<rect x="434.333" y="6" width="38" height="38" rx="19" fill="#E6EEFB"/>
<path d="M460.333 17H446.333C445.229 17 444.333 17.8954 444.333 19V33C444.333 34.1046 445.229 35 446.333 35H460.333C461.438 35 462.333 34.1046 462.333 33V19C462.333 17.8954 461.438 17 460.333 17Z" stroke="#5384ED" stroke-width="2" stroke-linecap="round" stroke-linejoin="round"/>
<path d="M457.333 15V19" stroke="#5384ED" stroke-width="2" stroke-linecap="round" stroke-linejoin="round"/>
<path d="M449.333 15V19" stroke="#5384ED" stroke-width="2" stroke-linecap="round" stroke-linejoin="round"/>
<path d="M444.333 23H462.333" stroke="#5384ED" stroke-width="2" stroke-linecap="round" stroke-linejoin="round"/>
<line x1="472.333" y1="24.5" x2="551" y2="24.5" stroke="#BACCF4" stroke-dasharray="2 2"/>
<rect x="551" y="6" width="38" height="38" rx="19" fill="#E6EEFB"/>
<path d="M571 15H564C563.47 15 562.961 15.2107 562.586 15.5858C562.211 15.9609 562 16.4696 562 17V33C562 33.5304 562.211 34.0391 562.586 34.4142C562.961 34.7893 563.47 35 564 35H576C576.53 35 577.039 34.7893 577.414 34.4142C577.789 34.0391 578 33.5304 578 33V22L571 15Z" stroke="#5384ED" stroke-width="2" stroke-linecap="round" stroke-linejoin="round"/>
<path d="M571 15V22H578" stroke="#5384ED" stroke-width="2" stroke-linecap="round" stroke-linejoin="round"/>
</svg>
