<svg width="1971" height="108" viewBox="0 0 1971 108" fill="none" xmlns="http://www.w3.org/2000/svg">
<rect x="31.5" y="30" width="178" height="50" rx="25" fill="#F6F9FE"/>
<path d="M68.5654 48.7031V61.5H66.377V48.7031H68.5654ZM72.582 48.7031V50.4609H62.3955V48.7031H72.582ZM77.4072 61.6758C76.7041 61.6758 76.0684 61.5615 75.5 61.333C74.9375 61.0986 74.457 60.7734 74.0586 60.3574C73.666 59.9414 73.3643 59.4521 73.1533 58.8896C72.9424 58.3271 72.8369 57.7207 72.8369 57.0703V56.7188C72.8369 55.9746 72.9453 55.3008 73.1621 54.6973C73.3789 54.0938 73.6807 53.5781 74.0674 53.1504C74.4541 52.7168 74.9111 52.3857 75.4385 52.1572C75.9658 51.9287 76.5371 51.8145 77.1523 51.8145C77.832 51.8145 78.4268 51.9287 78.9365 52.1572C79.4463 52.3857 79.8682 52.708 80.2021 53.124C80.542 53.5342 80.7939 54.0234 80.958 54.5918C81.1279 55.1602 81.2129 55.7871 81.2129 56.4727V57.3779H73.8652V55.8574H79.1211V55.6904C79.1094 55.3096 79.0332 54.9521 78.8926 54.6182C78.7578 54.2842 78.5498 54.0146 78.2686 53.8096C77.9873 53.6045 77.6123 53.502 77.1436 53.502C76.792 53.502 76.4785 53.5781 76.2031 53.7305C75.9336 53.877 75.708 54.0908 75.5264 54.3721C75.3447 54.6533 75.2041 54.9932 75.1045 55.3916C75.0107 55.7842 74.9639 56.2266 74.9639 56.7188V57.0703C74.9639 57.4863 75.0195 57.873 75.1309 58.2305C75.248 58.582 75.418 58.8896 75.6406 59.1533C75.8633 59.417 76.1328 59.625 76.4492 59.7773C76.7656 59.9238 77.126 59.9971 77.5303 59.9971C78.04 59.9971 78.4941 59.8945 78.8926 59.6895C79.291 59.4844 79.6367 59.1943 79.9297 58.8193L81.0459 59.9004C80.8408 60.1992 80.5742 60.4863 80.2461 60.7617C79.918 61.0312 79.5166 61.251 79.042 61.4209C78.5732 61.5908 78.0283 61.6758 77.4072 61.6758ZM88.2266 59.5928V55.0576C88.2266 54.7178 88.165 54.4248 88.042 54.1787C87.9189 53.9326 87.7314 53.7422 87.4795 53.6074C87.2334 53.4727 86.9229 53.4053 86.5479 53.4053C86.2021 53.4053 85.9033 53.4639 85.6514 53.5811C85.3994 53.6982 85.2031 53.8564 85.0625 54.0557C84.9219 54.2549 84.8516 54.4805 84.8516 54.7324H82.7422C82.7422 54.3574 82.833 53.9941 83.0146 53.6426C83.1963 53.291 83.46 52.9775 83.8057 52.7021C84.1514 52.4268 84.5645 52.21 85.0449 52.0518C85.5254 51.8936 86.0645 51.8145 86.6621 51.8145C87.377 51.8145 88.0098 51.9346 88.5605 52.1748C89.1172 52.415 89.5537 52.7783 89.8701 53.2646C90.1924 53.7451 90.3535 54.3486 90.3535 55.0752V59.3027C90.3535 59.7363 90.3828 60.126 90.4414 60.4717C90.5059 60.8115 90.5967 61.1074 90.7139 61.3594V61.5H88.543C88.4434 61.2715 88.3643 60.9814 88.3057 60.6299C88.2529 60.2725 88.2266 59.9268 88.2266 59.5928ZM88.5342 55.7168L88.5518 57.0264H87.0312C86.6387 57.0264 86.293 57.0645 85.9941 57.1406C85.6953 57.2109 85.4463 57.3164 85.2471 57.457C85.0479 57.5977 84.8984 57.7676 84.7988 57.9668C84.6992 58.166 84.6494 58.3916 84.6494 58.6436C84.6494 58.8955 84.708 59.127 84.8252 59.3379C84.9424 59.543 85.1123 59.7041 85.335 59.8213C85.5635 59.9385 85.8389 59.9971 86.1611 59.9971C86.5947 59.9971 86.9727 59.9092 87.2949 59.7334C87.623 59.5518 87.8809 59.332 88.0684 59.0742C88.2559 58.8105 88.3555 58.5615 88.3672 58.3271L89.0527 59.2676C88.9824 59.5078 88.8623 59.7656 88.6924 60.041C88.5225 60.3164 88.2998 60.5801 88.0244 60.832C87.7549 61.0781 87.4297 61.2803 87.0488 61.4385C86.6738 61.5967 86.2402 61.6758 85.748 61.6758C85.127 61.6758 84.5732 61.5527 84.0869 61.3066C83.6006 61.0547 83.2197 60.7178 82.9443 60.2959C82.6689 59.8682 82.5312 59.3848 82.5312 58.8457C82.5312 58.3418 82.625 57.8965 82.8125 57.5098C83.0059 57.1172 83.2871 56.7891 83.6562 56.5254C84.0312 56.2617 84.4883 56.0625 85.0273 55.9277C85.5664 55.7871 86.1816 55.7168 86.873 55.7168H88.5342ZM94.6865 53.9238V61.5H92.5684V51.9902H94.5635L94.6865 53.9238ZM94.3438 56.3936L93.623 56.3848C93.623 55.7285 93.7051 55.1221 93.8691 54.5654C94.0332 54.0088 94.2734 53.5254 94.5898 53.1152C94.9062 52.6992 95.2988 52.3799 95.7676 52.1572C96.2422 51.9287 96.79 51.8145 97.4111 51.8145C97.8447 51.8145 98.2402 51.8789 98.5977 52.0078C98.9609 52.1309 99.2744 52.3271 99.5381 52.5967C99.8076 52.8662 100.013 53.2119 100.153 53.6338C100.3 54.0557 100.373 54.5654 100.373 55.1631V61.5H98.2549V55.3477C98.2549 54.8848 98.1846 54.5215 98.0439 54.2578C97.9092 53.9941 97.7129 53.8066 97.4551 53.6953C97.2031 53.5781 96.9014 53.5195 96.5498 53.5195C96.1514 53.5195 95.8115 53.5957 95.5303 53.748C95.2549 53.9004 95.0293 54.1084 94.8535 54.3721C94.6777 54.6357 94.5488 54.9404 94.4668 55.2861C94.3848 55.6318 94.3438 56.001 94.3438 56.3936ZM100.241 55.8311L99.248 56.0508C99.248 55.4766 99.3271 54.9346 99.4854 54.4248C99.6494 53.9092 99.8867 53.458 100.197 53.0713C100.514 52.6787 100.903 52.3711 101.366 52.1484C101.829 51.9258 102.359 51.8145 102.957 51.8145C103.443 51.8145 103.877 51.8818 104.258 52.0166C104.645 52.1455 104.973 52.3506 105.242 52.6318C105.512 52.9131 105.717 53.2793 105.857 53.7305C105.998 54.1758 106.068 54.7148 106.068 55.3477V61.5H103.941V55.3389C103.941 54.8584 103.871 54.4863 103.73 54.2227C103.596 53.959 103.402 53.7773 103.15 53.6777C102.898 53.5723 102.597 53.5195 102.245 53.5195C101.917 53.5195 101.627 53.5811 101.375 53.7041C101.129 53.8213 100.921 53.9883 100.751 54.2051C100.581 54.416 100.452 54.6592 100.364 54.9346C100.282 55.21 100.241 55.5088 100.241 55.8311ZM114.849 53.9238V61.5H112.73V51.9902H114.726L114.849 53.9238ZM114.506 56.3936L113.785 56.3848C113.785 55.7285 113.867 55.1221 114.031 54.5654C114.195 54.0088 114.436 53.5254 114.752 53.1152C115.068 52.6992 115.461 52.3799 115.93 52.1572C116.404 51.9287 116.952 51.8145 117.573 51.8145C118.007 51.8145 118.402 51.8789 118.76 52.0078C119.123 52.1309 119.437 52.3271 119.7 52.5967C119.97 52.8662 120.175 53.2119 120.315 53.6338C120.462 54.0557 120.535 54.5654 120.535 55.1631V61.5H118.417V55.3477C118.417 54.8848 118.347 54.5215 118.206 54.2578C118.071 53.9941 117.875 53.8066 117.617 53.6953C117.365 53.5781 117.063 53.5195 116.712 53.5195C116.313 53.5195 115.974 53.5957 115.692 53.748C115.417 53.9004 115.191 54.1084 115.016 54.3721C114.84 54.6357 114.711 54.9404 114.629 55.2861C114.547 55.6318 114.506 56.001 114.506 56.3936ZM120.403 55.8311L119.41 56.0508C119.41 55.4766 119.489 54.9346 119.647 54.4248C119.812 53.9092 120.049 53.458 120.359 53.0713C120.676 52.6787 121.065 52.3711 121.528 52.1484C121.991 51.9258 122.521 51.8145 123.119 51.8145C123.605 51.8145 124.039 51.8818 124.42 52.0166C124.807 52.1455 125.135 52.3506 125.404 52.6318C125.674 52.9131 125.879 53.2793 126.02 53.7305C126.16 54.1758 126.23 54.7148 126.23 55.3477V61.5H124.104V55.3389C124.104 54.8584 124.033 54.4863 123.893 54.2227C123.758 53.959 123.564 53.7773 123.312 53.6777C123.061 53.5723 122.759 53.5195 122.407 53.5195C122.079 53.5195 121.789 53.5811 121.537 53.7041C121.291 53.8213 121.083 53.9883 120.913 54.2051C120.743 54.416 120.614 54.6592 120.526 54.9346C120.444 55.21 120.403 55.5088 120.403 55.8311ZM132.603 61.6758C131.899 61.6758 131.264 61.5615 130.695 61.333C130.133 61.0986 129.652 60.7734 129.254 60.3574C128.861 59.9414 128.56 59.4521 128.349 58.8896C128.138 58.3271 128.032 57.7207 128.032 57.0703V56.7188C128.032 55.9746 128.141 55.3008 128.357 54.6973C128.574 54.0938 128.876 53.5781 129.263 53.1504C129.649 52.7168 130.106 52.3857 130.634 52.1572C131.161 51.9287 131.732 51.8145 132.348 51.8145C133.027 51.8145 133.622 51.9287 134.132 52.1572C134.642 52.3857 135.063 52.708 135.397 53.124C135.737 53.5342 135.989 54.0234 136.153 54.5918C136.323 55.1602 136.408 55.7871 136.408 56.4727V57.3779H129.061V55.8574H134.316V55.6904C134.305 55.3096 134.229 54.9521 134.088 54.6182C133.953 54.2842 133.745 54.0146 133.464 53.8096C133.183 53.6045 132.808 53.502 132.339 53.502C131.987 53.502 131.674 53.5781 131.398 53.7305C131.129 53.877 130.903 54.0908 130.722 54.3721C130.54 54.6533 130.399 54.9932 130.3 55.3916C130.206 55.7842 130.159 56.2266 130.159 56.7188V57.0703C130.159 57.4863 130.215 57.873 130.326 58.2305C130.443 58.582 130.613 58.8896 130.836 59.1533C131.059 59.417 131.328 59.625 131.645 59.7773C131.961 59.9238 132.321 59.9971 132.726 59.9971C133.235 59.9971 133.689 59.8945 134.088 59.6895C134.486 59.4844 134.832 59.1943 135.125 58.8193L136.241 59.9004C136.036 60.1992 135.77 60.4863 135.441 60.7617C135.113 61.0312 134.712 61.251 134.237 61.4209C133.769 61.5908 133.224 61.6758 132.603 61.6758ZM140.179 53.9238V61.5H138.061V51.9902H140.056L140.179 53.9238ZM139.836 56.3936L139.115 56.3848C139.115 55.7285 139.197 55.1221 139.361 54.5654C139.525 54.0088 139.766 53.5254 140.082 53.1152C140.398 52.6992 140.791 52.3799 141.26 52.1572C141.734 51.9287 142.282 51.8145 142.903 51.8145C143.337 51.8145 143.732 51.8789 144.09 52.0078C144.453 52.1309 144.767 52.3271 145.03 52.5967C145.3 52.8662 145.505 53.2119 145.646 53.6338C145.792 54.0557 145.865 54.5654 145.865 55.1631V61.5H143.747V55.3477C143.747 54.8848 143.677 54.5215 143.536 54.2578C143.401 53.9941 143.205 53.8066 142.947 53.6953C142.695 53.5781 142.394 53.5195 142.042 53.5195C141.644 53.5195 141.304 53.5957 141.022 53.748C140.747 53.9004 140.521 54.1084 140.346 54.3721C140.17 54.6357 140.041 54.9404 139.959 55.2861C139.877 55.6318 139.836 56.001 139.836 56.3936ZM145.733 55.8311L144.74 56.0508C144.74 55.4766 144.819 54.9346 144.978 54.4248C145.142 53.9092 145.379 53.458 145.689 53.0713C146.006 52.6787 146.396 52.3711 146.858 52.1484C147.321 51.9258 147.852 51.8145 148.449 51.8145C148.936 51.8145 149.369 51.8818 149.75 52.0166C150.137 52.1455 150.465 52.3506 150.734 52.6318C151.004 52.9131 151.209 53.2793 151.35 53.7305C151.49 54.1758 151.561 54.7148 151.561 55.3477V61.5H149.434V55.3389C149.434 54.8584 149.363 54.4863 149.223 54.2227C149.088 53.959 148.895 53.7773 148.643 53.6777C148.391 53.5723 148.089 53.5195 147.737 53.5195C147.409 53.5195 147.119 53.5811 146.867 53.7041C146.621 53.8213 146.413 53.9883 146.243 54.2051C146.073 54.416 145.944 54.6592 145.856 54.9346C145.774 55.21 145.733 55.5088 145.733 55.8311ZM153.749 48H155.867V59.4697L155.665 61.5H153.749V48ZM162.072 56.6572V56.8418C162.072 57.5449 161.993 58.1924 161.835 58.7842C161.683 59.3701 161.448 59.8799 161.132 60.3135C160.821 60.7471 160.435 61.084 159.972 61.3242C159.515 61.5586 158.984 61.6758 158.381 61.6758C157.789 61.6758 157.273 61.5645 156.834 61.3418C156.395 61.1191 156.025 60.8027 155.727 60.3926C155.434 59.9824 155.196 59.4932 155.015 58.9248C154.833 58.3564 154.704 57.7295 154.628 57.0439V56.4551C154.704 55.7637 154.833 55.1367 155.015 54.5742C155.196 54.0059 155.434 53.5166 155.727 53.1064C156.025 52.6904 156.392 52.3711 156.825 52.1484C157.265 51.9258 157.777 51.8145 158.363 51.8145C158.973 51.8145 159.509 51.9316 159.972 52.166C160.44 52.4004 160.83 52.7344 161.141 53.168C161.451 53.5957 161.683 54.1055 161.835 54.6973C161.993 55.2891 162.072 55.9424 162.072 56.6572ZM159.954 56.8418V56.6572C159.954 56.2295 159.919 55.8281 159.849 55.4531C159.778 55.0723 159.661 54.7383 159.497 54.4512C159.339 54.1641 159.122 53.9385 158.847 53.7744C158.577 53.6045 158.24 53.5195 157.836 53.5195C157.461 53.5195 157.139 53.584 156.869 53.7129C156.6 53.8418 156.374 54.0176 156.192 54.2402C156.011 54.4629 155.867 54.7207 155.762 55.0137C155.662 55.3066 155.595 55.623 155.56 55.9629V57.5537C155.612 57.9932 155.724 58.3975 155.894 58.7666C156.069 59.1299 156.315 59.4229 156.632 59.6455C156.948 59.8623 157.355 59.9707 157.854 59.9707C158.246 59.9707 158.577 59.8916 158.847 59.7334C159.116 59.5752 159.33 59.3555 159.488 59.0742C159.652 58.7871 159.77 58.4531 159.84 58.0723C159.916 57.6914 159.954 57.2812 159.954 56.8418ZM168.058 61.6758C167.354 61.6758 166.719 61.5615 166.15 61.333C165.588 61.0986 165.107 60.7734 164.709 60.3574C164.316 59.9414 164.015 59.4521 163.804 58.8896C163.593 58.3271 163.487 57.7207 163.487 57.0703V56.7188C163.487 55.9746 163.596 55.3008 163.812 54.6973C164.029 54.0938 164.331 53.5781 164.718 53.1504C165.104 52.7168 165.562 52.3857 166.089 52.1572C166.616 51.9287 167.188 51.8145 167.803 51.8145C168.482 51.8145 169.077 51.9287 169.587 52.1572C170.097 52.3857 170.519 52.708 170.853 53.124C171.192 53.5342 171.444 54.0234 171.608 54.5918C171.778 55.1602 171.863 55.7871 171.863 56.4727V57.3779H164.516V55.8574H169.771V55.6904C169.76 55.3096 169.684 54.9521 169.543 54.6182C169.408 54.2842 169.2 54.0146 168.919 53.8096C168.638 53.6045 168.263 53.502 167.794 53.502C167.442 53.502 167.129 53.5781 166.854 53.7305C166.584 53.877 166.358 54.0908 166.177 54.3721C165.995 54.6533 165.854 54.9932 165.755 55.3916C165.661 55.7842 165.614 56.2266 165.614 56.7188V57.0703C165.614 57.4863 165.67 57.873 165.781 58.2305C165.898 58.582 166.068 58.8896 166.291 59.1533C166.514 59.417 166.783 59.625 167.1 59.7773C167.416 59.9238 167.776 59.9971 168.181 59.9971C168.69 59.9971 169.145 59.8945 169.543 59.6895C169.941 59.4844 170.287 59.1943 170.58 58.8193L171.696 59.9004C171.491 60.1992 171.225 60.4863 170.896 60.7617C170.568 61.0312 170.167 61.251 169.692 61.4209C169.224 61.5908 168.679 61.6758 168.058 61.6758ZM175.643 53.8008V61.5H173.524V51.9902H175.546L175.643 53.8008ZM178.552 51.9287L178.534 53.8975C178.405 53.874 178.265 53.8564 178.112 53.8447C177.966 53.833 177.819 53.8271 177.673 53.8271C177.31 53.8271 176.99 53.8799 176.715 53.9854C176.439 54.085 176.208 54.2314 176.021 54.4248C175.839 54.6123 175.698 54.8408 175.599 55.1104C175.499 55.3799 175.44 55.6816 175.423 56.0156L174.939 56.0508C174.939 55.4531 174.998 54.8994 175.115 54.3896C175.232 53.8799 175.408 53.4316 175.643 53.0449C175.883 52.6582 176.182 52.3564 176.539 52.1396C176.902 51.9229 177.321 51.8145 177.796 51.8145C177.925 51.8145 178.062 51.8262 178.209 51.8496C178.361 51.873 178.476 51.8994 178.552 51.9287Z" fill="#5384ED"/>
<rect x="31.5" y="30" width="178" height="50" rx="25" stroke="#5384ED" stroke-width="3"/>
<path d="M283 55L273 49.2265L273 60.7735L283 55ZM216.333 55C216.333 52.0545 213.946 49.6666 211 49.6666C208.054 49.6666 205.667 52.0545 205.667 55C205.667 57.9455 208.054 60.3333 211 60.3333C213.946 60.3333 216.333 57.9455 216.333 55ZM274 54L211 54L211 56L274 56L274 54Z" fill="#5384ED"/>
<path d="M391.391 15.4975C394.045 14.5303 396.955 14.5303 399.609 15.4975L492.532 49.3627C497.793 51.2799 497.793 58.7201 492.532 60.6373L399.609 94.5025C396.955 95.4697 394.045 95.4697 391.391 94.5025L298.468 60.6373C293.208 58.7201 293.208 51.2799 298.468 49.3627L391.391 15.4975Z" fill="url(#paint0_linear_3267_10951)" stroke="#E2EDFD" stroke-width="3"/>
<path d="M329.107 50.9463L325.459 61.8008H322.902L327.683 49.0039H329.318L329.107 50.9463ZM332.157 61.8008L328.492 50.9463L328.272 49.0039H329.915L334.723 61.8008H332.157ZM331.99 57.0459V58.9531H325.125V57.0459H331.99ZM339.768 60.1484C340.096 60.1484 340.389 60.084 340.647 59.9551C340.905 59.8262 341.11 59.6445 341.262 59.4102C341.42 59.1758 341.505 58.9033 341.517 58.5928H343.706C343.694 59.2373 343.512 59.8145 343.161 60.3242C342.809 60.834 342.34 61.2383 341.754 61.5371C341.174 61.8301 340.524 61.9766 339.803 61.9766C339.071 61.9766 338.432 61.8535 337.887 61.6074C337.342 61.3613 336.888 61.0186 336.525 60.5791C336.167 60.1396 335.898 59.6299 335.716 59.0498C335.54 58.4697 335.453 57.8486 335.453 57.1865V56.9053C335.453 56.2432 335.54 55.6221 335.716 55.042C335.898 54.4619 336.167 53.9521 336.525 53.5127C336.888 53.0732 337.342 52.7305 337.887 52.4844C338.432 52.2383 339.068 52.1152 339.794 52.1152C340.562 52.1152 341.236 52.2646 341.816 52.5635C342.402 52.8623 342.859 53.2842 343.187 53.8291C343.521 54.374 343.694 55.0156 343.706 55.7539H341.517C341.505 55.4141 341.429 55.1094 341.289 54.8398C341.148 54.5703 340.949 54.3535 340.691 54.1895C340.433 54.0254 340.12 53.9434 339.75 53.9434C339.358 53.9434 339.03 54.0254 338.766 54.1895C338.508 54.3535 338.306 54.5791 338.16 54.8662C338.019 55.1475 337.919 55.4639 337.861 55.8154C337.808 56.1611 337.782 56.5244 337.782 56.9053V57.1865C337.782 57.5732 337.808 57.9424 337.861 58.2939C337.919 58.6455 338.019 58.9619 338.16 59.2432C338.306 59.5186 338.508 59.7383 338.766 59.9023C339.03 60.0664 339.364 60.1484 339.768 60.1484ZM349.155 60.1484C349.483 60.1484 349.776 60.084 350.034 59.9551C350.291 59.8262 350.497 59.6445 350.649 59.4102C350.807 59.1758 350.892 58.9033 350.904 58.5928H353.092C353.081 59.2373 352.899 59.8145 352.547 60.3242C352.196 60.834 351.727 61.2383 351.141 61.5371C350.561 61.8301 349.911 61.9766 349.19 61.9766C348.457 61.9766 347.819 61.8535 347.274 61.6074C346.729 61.3613 346.275 61.0186 345.912 60.5791C345.554 60.1396 345.285 59.6299 345.103 59.0498C344.927 58.4697 344.839 57.8486 344.839 57.1865V56.9053C344.839 56.2432 344.927 55.6221 345.103 55.042C345.285 54.4619 345.554 53.9521 345.912 53.5127C346.275 53.0732 346.729 52.7305 347.274 52.4844C347.819 52.2383 348.455 52.1152 349.181 52.1152C349.949 52.1152 350.623 52.2646 351.203 52.5635C351.789 52.8623 352.246 53.2842 352.574 53.8291C352.908 54.374 353.081 55.0156 353.092 55.7539H350.904C350.892 55.4141 350.816 55.1094 350.675 54.8398C350.535 54.5703 350.335 54.3535 350.078 54.1895C349.82 54.0254 349.506 53.9434 349.137 53.9434C348.745 53.9434 348.416 54.0254 348.153 54.1895C347.895 54.3535 347.693 54.5791 347.546 54.8662C347.406 55.1475 347.306 55.4639 347.248 55.8154C347.195 56.1611 347.168 56.5244 347.168 56.9053V57.1865C347.168 57.5732 347.195 57.9424 347.248 58.2939C347.306 58.6455 347.406 58.9619 347.546 59.2432C347.693 59.5186 347.895 59.7383 348.153 59.9023C348.416 60.0664 348.75 60.1484 349.155 60.1484ZM358.911 61.9766C358.19 61.9766 357.542 61.8594 356.968 61.625C356.394 61.3906 355.905 61.0654 355.5 60.6494C355.102 60.2275 354.794 59.7383 354.578 59.1816C354.367 58.6191 354.261 58.0156 354.261 57.3711V57.0195C354.261 56.2871 354.367 55.6221 354.578 55.0244C354.789 54.4209 355.087 53.9023 355.474 53.4687C355.861 53.0352 356.324 52.7012 356.863 52.4668C357.402 52.2324 357.997 52.1152 358.647 52.1152C359.321 52.1152 359.915 52.2295 360.431 52.458C360.947 52.6807 361.377 52.9971 361.723 53.4072C362.069 53.8174 362.33 54.3096 362.505 54.8838C362.681 55.4521 362.769 56.082 362.769 56.7734V57.749H355.316V56.1494H360.484V55.9736C360.472 55.6045 360.402 55.2676 360.273 54.9629C360.144 54.6523 359.945 54.4062 359.675 54.2246C359.406 54.0371 359.057 53.9434 358.629 53.9434C358.284 53.9434 357.982 54.0195 357.724 54.1719C357.472 54.3184 357.261 54.5293 357.091 54.8047C356.927 55.0742 356.804 55.3965 356.722 55.7715C356.64 56.1465 356.599 56.5625 356.599 57.0195V57.3711C356.599 57.7695 356.652 58.1387 356.757 58.4785C356.869 58.8184 357.03 59.1143 357.241 59.3662C357.457 59.6123 357.715 59.8057 358.014 59.9463C358.319 60.0811 358.664 60.1484 359.051 60.1484C359.538 60.1484 359.977 60.0547 360.37 59.8672C360.768 59.6738 361.114 59.3896 361.407 59.0146L362.576 60.2275C362.376 60.5205 362.107 60.8018 361.767 61.0713C361.433 61.3408 361.029 61.5605 360.554 61.7305C360.08 61.8945 359.532 61.9766 358.911 61.9766ZM366.645 54.1191V65.457H364.316V52.291H366.469L366.645 54.1191ZM372.753 56.9492V57.1338C372.753 57.8252 372.671 58.4668 372.507 59.0586C372.349 59.6445 372.115 60.1572 371.804 60.5967C371.494 61.0303 371.107 61.3701 370.644 61.6162C370.187 61.8564 369.66 61.9766 369.062 61.9766C368.476 61.9766 367.966 61.8652 367.533 61.6426C367.099 61.4141 366.733 61.0918 366.434 60.6758C366.135 60.2598 365.895 59.7764 365.713 59.2256C365.538 58.6689 365.406 58.0625 365.318 57.4062V56.8174C365.406 56.1201 365.538 55.4873 365.713 54.9189C365.895 54.3447 366.135 53.8496 366.434 53.4336C366.733 53.0117 367.096 52.6865 367.524 52.458C367.957 52.2295 368.464 52.1152 369.044 52.1152C369.648 52.1152 370.178 52.2295 370.635 52.458C371.098 52.6865 371.488 53.0146 371.804 53.4424C372.121 53.8701 372.358 54.3799 372.516 54.9717C372.674 55.5635 372.753 56.2227 372.753 56.9492ZM370.424 57.1338V56.9492C370.424 56.5273 370.386 56.1377 370.31 55.7803C370.234 55.417 370.117 55.1006 369.958 54.8311C369.8 54.5557 369.595 54.3418 369.343 54.1895C369.091 54.0371 368.787 53.9609 368.429 53.9609C368.072 53.9609 367.764 54.0195 367.506 54.1367C367.248 54.2539 367.038 54.4209 366.873 54.6377C366.709 54.8545 366.581 55.1123 366.487 55.4111C366.399 55.7041 366.34 56.0293 366.311 56.3867V57.8457C366.364 58.2793 366.466 58.6689 366.619 59.0146C366.771 59.3604 366.994 59.6357 367.287 59.8408C367.585 60.0459 367.972 60.1484 368.447 60.1484C368.804 60.1484 369.109 60.0693 369.361 59.9111C369.613 59.7529 369.818 59.5361 369.976 59.2607C370.134 58.9795 370.248 58.6572 370.319 58.2939C370.389 57.9307 370.424 57.5439 370.424 57.1338ZM378.95 52.291V53.9609H373.5V52.291H378.95ZM374.959 49.9531H377.289V59.0586C377.289 59.3398 377.327 59.5566 377.403 59.709C377.479 59.8613 377.593 59.9639 377.746 60.0166C377.898 60.0693 378.08 60.0957 378.29 60.0957C378.443 60.0957 378.583 60.0869 378.712 60.0693C378.841 60.0518 378.95 60.0342 379.038 60.0166L379.046 61.7568C378.853 61.8213 378.633 61.874 378.387 61.915C378.147 61.9561 377.874 61.9766 377.57 61.9766C377.048 61.9766 376.591 61.8887 376.199 61.7129C375.806 61.5312 375.501 61.2412 375.285 60.8428C375.068 60.4385 374.959 59.9053 374.959 59.2432V49.9531ZM387.44 52.291V61.8008H385.111V52.291H387.44ZM384.953 49.8037C384.953 49.458 385.07 49.1709 385.304 48.9424C385.544 48.7139 385.867 48.5996 386.271 48.5996C386.675 48.5996 386.995 48.7139 387.229 48.9424C387.469 49.1709 387.589 49.458 387.589 49.8037C387.589 50.1436 387.469 50.4277 387.229 50.6562C386.995 50.8848 386.675 50.999 386.271 50.999C385.867 50.999 385.544 50.8848 385.304 50.6562C385.07 50.4277 384.953 50.1436 384.953 49.8037ZM391.931 54.3213V61.8008H389.611V52.291H391.79L391.931 54.3213ZM391.562 56.7031H390.876C390.882 56.0117 390.976 55.3848 391.158 54.8223C391.339 54.2598 391.594 53.7764 391.922 53.3721C392.256 52.9678 392.652 52.6572 393.109 52.4404C393.566 52.2236 394.076 52.1152 394.638 52.1152C395.095 52.1152 395.508 52.1797 395.877 52.3086C396.247 52.4375 396.563 52.6426 396.827 52.9238C397.096 53.2051 397.301 53.5742 397.442 54.0312C397.588 54.4824 397.662 55.0391 397.662 55.7012V61.8008H395.324V55.6836C395.324 55.25 395.259 54.9072 395.13 54.6553C395.007 54.4033 394.826 54.2246 394.585 54.1191C394.351 54.0137 394.061 53.9609 393.715 53.9609C393.358 53.9609 393.044 54.0342 392.775 54.1807C392.511 54.3213 392.289 54.5176 392.107 54.7695C391.931 55.0215 391.796 55.3115 391.703 55.6396C391.609 55.9678 391.562 56.3223 391.562 56.7031ZM402.865 60.043L405.08 52.291H407.505L404.245 61.8008H402.768L402.865 60.043ZM401.247 52.291L403.489 60.0605L403.568 61.8008H402.082L398.813 52.291H401.247ZM411.188 52.291V61.8008H408.859V52.291H411.188ZM408.701 49.8037C408.701 49.458 408.818 49.1709 409.052 48.9424C409.292 48.7139 409.615 48.5996 410.019 48.5996C410.423 48.5996 410.743 48.7139 410.977 48.9424C411.217 49.1709 411.337 49.458 411.337 49.8037C411.337 50.1436 411.217 50.4277 410.977 50.6562C410.743 50.8848 410.423 50.999 410.019 50.999C409.615 50.999 409.292 50.8848 409.052 50.6562C408.818 50.4277 408.701 50.1436 408.701 49.8037ZM417.903 52.291V53.9609H412.454V52.291H417.903ZM413.913 49.9531H416.242V59.0586C416.242 59.3398 416.28 59.5566 416.356 59.709C416.432 59.8613 416.546 59.9639 416.699 60.0166C416.851 60.0693 417.033 60.0957 417.244 60.0957C417.396 60.0957 417.537 60.0869 417.665 60.0693C417.794 60.0518 417.903 60.0342 417.991 60.0166L417.999 61.7568C417.806 61.8213 417.586 61.874 417.34 61.915C417.1 61.9561 416.828 61.9766 416.523 61.9766C416.001 61.9766 415.544 61.8887 415.152 61.7129C414.759 61.5312 414.455 61.2412 414.238 60.8428C414.021 60.4385 413.913 59.9053 413.913 59.2432V49.9531ZM424.688 59.7793V55.3936C424.688 55.0713 424.632 54.793 424.521 54.5586C424.41 54.3242 424.24 54.1426 424.011 54.0137C423.783 53.8848 423.493 53.8203 423.141 53.8203C422.831 53.8203 422.558 53.873 422.324 53.9785C422.095 54.084 421.919 54.2334 421.796 54.4268C421.673 54.6143 421.612 54.8311 421.612 55.0771H419.283C419.283 54.6846 419.376 54.3125 419.564 53.9609C419.751 53.6035 420.018 53.2871 420.364 53.0117C420.715 52.7305 421.134 52.5107 421.621 52.3525C422.113 52.1943 422.664 52.1152 423.273 52.1152C423.994 52.1152 424.635 52.2383 425.198 52.4844C425.766 52.7246 426.211 53.0879 426.534 53.5742C426.862 54.0605 427.026 54.6729 427.026 55.4111V59.5596C427.026 60.0342 427.055 60.4414 427.114 60.7812C427.178 61.1152 427.272 61.4053 427.395 61.6514V61.8008H425.031C424.919 61.5605 424.834 61.2559 424.776 60.8867C424.717 60.5117 424.688 60.1426 424.688 59.7793ZM425.013 56.0088L425.031 57.3887H423.563C423.2 57.3887 422.88 57.4268 422.605 57.5029C422.33 57.5732 422.104 57.6787 421.928 57.8193C421.752 57.9541 421.621 58.1182 421.533 58.3115C421.445 58.499 421.401 58.7129 421.401 58.9531C421.401 59.1875 421.454 59.3984 421.559 59.5859C421.67 59.7734 421.829 59.9229 422.034 60.0342C422.245 60.1396 422.491 60.1924 422.772 60.1924C423.182 60.1924 423.539 60.1104 423.844 59.9463C424.149 59.7764 424.386 59.5713 424.556 59.3311C424.726 59.0908 424.817 58.8623 424.829 58.6455L425.497 59.6475C425.414 59.8877 425.291 60.1426 425.127 60.4121C424.963 60.6816 424.752 60.9336 424.495 61.168C424.237 61.4023 423.926 61.5957 423.563 61.748C423.2 61.9004 422.778 61.9766 422.297 61.9766C421.682 61.9766 421.131 61.8535 420.645 61.6074C420.159 61.3613 419.775 61.0244 419.494 60.5967C419.212 60.1689 419.072 59.6826 419.072 59.1377C419.072 58.6338 419.165 58.1885 419.353 57.8018C419.54 57.415 419.819 57.0898 420.188 56.8262C420.557 56.5566 421.014 56.3545 421.559 56.2197C422.11 56.0791 422.74 56.0088 423.449 56.0088H425.013ZM433.618 52.291V53.9609H428.168V52.291H433.618ZM429.627 49.9531H431.956V59.0586C431.956 59.3398 431.995 59.5566 432.071 59.709C432.147 59.8613 432.261 59.9639 432.414 60.0166C432.566 60.0693 432.747 60.0957 432.958 60.0957C433.111 60.0957 433.251 60.0869 433.38 60.0693C433.509 60.0518 433.618 60.0342 433.705 60.0166L433.714 61.7568C433.521 61.8213 433.301 61.874 433.055 61.915C432.815 61.9561 432.542 61.9766 432.238 61.9766C431.716 61.9766 431.259 61.8887 430.867 61.7129C430.474 61.5312 430.169 61.2412 429.953 60.8428C429.736 60.4385 429.627 59.9053 429.627 59.2432V49.9531ZM437.625 52.291V61.8008H435.296V52.291H437.625ZM435.138 49.8037C435.138 49.458 435.255 49.1709 435.49 48.9424C435.73 48.7139 436.052 48.5996 436.456 48.5996C436.861 48.5996 437.18 48.7139 437.414 48.9424C437.655 49.1709 437.775 49.458 437.775 49.8037C437.775 50.1436 437.655 50.4277 437.414 50.6562C437.18 50.8848 436.861 50.999 436.456 50.999C436.052 50.999 435.73 50.8848 435.49 50.6562C435.255 50.4277 435.138 50.1436 435.138 49.8037ZM439.427 57.1426V56.958C439.427 56.2607 439.527 55.6191 439.726 55.0332C439.925 54.4414 440.215 53.9287 440.596 53.4951C440.977 53.0615 441.443 52.7246 441.994 52.4844C442.544 52.2383 443.171 52.1152 443.874 52.1152C444.589 52.1152 445.222 52.2383 445.773 52.4844C446.33 52.7246 446.798 53.0615 447.179 53.4951C447.56 53.9287 447.85 54.4414 448.049 55.0332C448.248 55.6191 448.348 56.2607 448.348 56.958V57.1426C448.348 57.834 448.248 58.4756 448.049 59.0674C447.85 59.6533 447.56 60.166 447.179 60.6055C446.798 61.0391 446.332 61.376 445.782 61.6162C445.231 61.8564 444.601 61.9766 443.892 61.9766C443.189 61.9766 442.559 61.8564 442.002 61.6162C441.446 61.376 440.977 61.0391 440.596 60.6055C440.215 60.166 439.925 59.6533 439.726 59.0674C439.527 58.4756 439.427 57.834 439.427 57.1426ZM441.747 56.958V57.1426C441.747 57.5586 441.789 57.9482 441.871 58.3115C441.953 58.6748 442.079 58.9941 442.248 59.2695C442.418 59.5449 442.638 59.7617 442.908 59.9199C443.183 60.0723 443.511 60.1484 443.892 60.1484C444.267 60.1484 444.589 60.0723 444.859 59.9199C445.128 59.7617 445.348 59.5449 445.518 59.2695C445.694 58.9941 445.823 58.6748 445.905 58.3115C445.987 57.9482 446.028 57.5586 446.028 57.1426V56.958C446.028 56.5479 445.987 56.1641 445.905 55.8066C445.823 55.4434 445.694 55.124 445.518 54.8486C445.348 54.5674 445.125 54.3477 444.85 54.1895C444.58 54.0254 444.255 53.9434 443.874 53.9434C443.499 53.9434 443.177 54.0254 442.908 54.1895C442.638 54.3477 442.418 54.5674 442.248 54.8486C442.079 55.124 441.953 55.4434 441.871 55.8066C441.789 56.1641 441.747 56.5479 441.747 56.958ZM452.312 54.3213V61.8008H449.992V52.291H452.171L452.312 54.3213ZM451.943 56.7031H451.257C451.263 56.0117 451.357 55.3848 451.539 54.8223C451.72 54.2598 451.975 53.7764 452.303 53.3721C452.637 52.9678 453.033 52.6572 453.49 52.4404C453.947 52.2236 454.456 52.1152 455.019 52.1152C455.476 52.1152 455.889 52.1797 456.258 52.3086C456.627 52.4375 456.944 52.6426 457.207 52.9238C457.477 53.2051 457.682 53.5742 457.823 54.0312C457.969 54.4824 458.042 55.0391 458.042 55.7012V61.8008H455.705V55.6836C455.705 55.25 455.64 54.9072 455.511 54.6553C455.388 54.4033 455.206 54.2246 454.966 54.1191C454.732 54.0137 454.442 53.9609 454.096 53.9609C453.739 53.9609 453.425 54.0342 453.156 54.1807C452.892 54.3213 452.669 54.5176 452.488 54.7695C452.312 55.0215 452.177 55.3115 452.083 55.6396C451.99 55.9678 451.943 56.3223 451.943 56.7031ZM464.221 57.96H462.121C462.126 57.4268 462.17 56.9697 462.252 56.5889C462.34 56.208 462.484 55.8652 462.683 55.5605C462.882 55.25 463.152 54.9336 463.492 54.6113C463.761 54.3594 464.001 54.1221 464.212 53.8994C464.429 53.6709 464.599 53.4336 464.722 53.1875C464.845 52.9355 464.907 52.6514 464.907 52.335C464.907 51.9775 464.848 51.6787 464.731 51.4385C464.62 51.1982 464.453 51.0166 464.23 50.8936C464.013 50.7646 463.741 50.7002 463.413 50.7002C463.143 50.7002 462.888 50.7559 462.648 50.8672C462.408 50.9785 462.214 51.1514 462.068 51.3857C461.921 51.6143 461.842 51.9131 461.83 52.2822H459.501C459.519 51.5146 459.701 50.876 460.046 50.3662C460.392 49.8506 460.858 49.4668 461.444 49.2148C462.03 48.957 462.686 48.8281 463.413 48.8281C464.215 48.8281 464.901 48.9629 465.469 49.2324C466.043 49.4961 466.48 49.8828 466.779 50.3926C467.083 50.9023 467.236 51.5176 467.236 52.2383C467.236 52.7539 467.136 53.2168 466.937 53.627C466.738 54.0312 466.474 54.4092 466.146 54.7607C465.818 55.1123 465.463 55.4668 465.082 55.8242C464.748 56.123 464.523 56.4424 464.406 56.7822C464.289 57.1221 464.227 57.5146 464.221 57.96ZM461.901 60.6934C461.901 60.3418 462.018 60.0488 462.252 59.8145C462.493 59.5801 462.815 59.4629 463.219 59.4629C463.623 59.4629 463.943 59.5801 464.177 59.8145C464.417 60.0488 464.538 60.3418 464.538 60.6934C464.538 61.0332 464.417 61.3203 464.177 61.5547C463.943 61.7891 463.623 61.9062 463.219 61.9062C462.815 61.9062 462.493 61.7891 462.252 61.5547C462.018 61.3203 461.901 61.0332 461.901 60.6934Z" fill="white"/>
<path d="M580 55L570 49.2265L570 60.7735L580 55ZM513.333 55C513.333 52.0545 510.946 49.6666 508 49.6666C505.054 49.6666 502.667 52.0545 502.667 55C502.667 57.9455 505.054 60.3333 508 60.3333C510.946 60.3333 513.333 57.9455 513.333 55ZM571 54L508 54L508 56L571 56L571 54Z" fill="#5384ED"/>
<rect x="580" y="32.5" width="246" height="45" rx="8" fill="#E2EDFD"/>
<path d="M667.065 48.7031V61.5H664.877V48.7031H667.065ZM671.082 48.7031V50.4609H660.896V48.7031H671.082ZM674.826 51.9902V61.5H672.699V51.9902H674.826ZM672.559 49.4941C672.559 49.1719 672.664 48.9053 672.875 48.6943C673.092 48.4775 673.391 48.3691 673.771 48.3691C674.146 48.3691 674.442 48.4775 674.659 48.6943C674.876 48.9053 674.984 49.1719 674.984 49.4941C674.984 49.8105 674.876 50.0742 674.659 50.2852C674.442 50.4961 674.146 50.6016 673.771 50.6016C673.391 50.6016 673.092 50.4961 672.875 50.2852C672.664 50.0742 672.559 49.8105 672.559 49.4941ZM679.265 53.9238V61.5H677.146V51.9902H679.142L679.265 53.9238ZM678.922 56.3936L678.201 56.3848C678.201 55.7285 678.283 55.1221 678.447 54.5654C678.611 54.0088 678.852 53.5254 679.168 53.1152C679.484 52.6992 679.877 52.3799 680.346 52.1572C680.82 51.9287 681.368 51.8145 681.989 51.8145C682.423 51.8145 682.818 51.8789 683.176 52.0078C683.539 52.1309 683.853 52.3271 684.116 52.5967C684.386 52.8662 684.591 53.2119 684.731 53.6338C684.878 54.0557 684.951 54.5654 684.951 55.1631V61.5H682.833V55.3477C682.833 54.8848 682.763 54.5215 682.622 54.2578C682.487 53.9941 682.291 53.8066 682.033 53.6953C681.781 53.5781 681.479 53.5195 681.128 53.5195C680.729 53.5195 680.39 53.5957 680.108 53.748C679.833 53.9004 679.607 54.1084 679.432 54.3721C679.256 54.6357 679.127 54.9404 679.045 55.2861C678.963 55.6318 678.922 56.001 678.922 56.3936ZM684.819 55.8311L683.826 56.0508C683.826 55.4766 683.905 54.9346 684.063 54.4248C684.228 53.9092 684.465 53.458 684.775 53.0713C685.092 52.6787 685.481 52.3711 685.944 52.1484C686.407 51.9258 686.938 51.8145 687.535 51.8145C688.021 51.8145 688.455 51.8818 688.836 52.0166C689.223 52.1455 689.551 52.3506 689.82 52.6318C690.09 52.9131 690.295 53.2793 690.436 53.7305C690.576 54.1758 690.646 54.7148 690.646 55.3477V61.5H688.52V55.3389C688.52 54.8584 688.449 54.4863 688.309 54.2227C688.174 53.959 687.98 53.7773 687.729 53.6777C687.477 53.5723 687.175 53.5195 686.823 53.5195C686.495 53.5195 686.205 53.5811 685.953 53.7041C685.707 53.8213 685.499 53.9883 685.329 54.2051C685.159 54.416 685.03 54.6592 684.942 54.9346C684.86 55.21 684.819 55.5088 684.819 55.8311ZM697.019 61.6758C696.315 61.6758 695.68 61.5615 695.111 61.333C694.549 61.0986 694.068 60.7734 693.67 60.3574C693.277 59.9414 692.976 59.4521 692.765 58.8896C692.554 58.3271 692.448 57.7207 692.448 57.0703V56.7188C692.448 55.9746 692.557 55.3008 692.773 54.6973C692.99 54.0938 693.292 53.5781 693.679 53.1504C694.065 52.7168 694.522 52.3857 695.05 52.1572C695.577 51.9287 696.148 51.8145 696.764 51.8145C697.443 51.8145 698.038 51.9287 698.548 52.1572C699.058 52.3857 699.479 52.708 699.813 53.124C700.153 53.5342 700.405 54.0234 700.569 54.5918C700.739 55.1602 700.824 55.7871 700.824 56.4727V57.3779H693.477V55.8574H698.732V55.6904C698.721 55.3096 698.645 54.9521 698.504 54.6182C698.369 54.2842 698.161 54.0146 697.88 53.8096C697.599 53.6045 697.224 53.502 696.755 53.502C696.403 53.502 696.09 53.5781 695.814 53.7305C695.545 53.877 695.319 54.0908 695.138 54.3721C694.956 54.6533 694.815 54.9932 694.716 55.3916C694.622 55.7842 694.575 56.2266 694.575 56.7188V57.0703C694.575 57.4863 694.631 57.873 694.742 58.2305C694.859 58.582 695.029 58.8896 695.252 59.1533C695.475 59.417 695.744 59.625 696.061 59.7773C696.377 59.9238 696.737 59.9971 697.142 59.9971C697.651 59.9971 698.105 59.8945 698.504 59.6895C698.902 59.4844 699.248 59.1943 699.541 58.8193L700.657 59.9004C700.452 60.1992 700.186 60.4863 699.857 60.7617C699.529 61.0312 699.128 61.251 698.653 61.4209C698.185 61.5908 697.64 61.6758 697.019 61.6758ZM714.315 59.8125V61.5H707.231V59.8125H714.315ZM714.122 53.3086L707.952 61.5H706.581V60.1377L712.716 51.9902H714.122V53.3086ZM713.305 51.9902V53.6777H706.687V51.9902H713.305ZM715.467 56.8506V56.6484C715.467 55.9629 715.566 55.3271 715.766 54.7412C715.965 54.1494 716.252 53.6367 716.627 53.2031C717.008 52.7637 717.471 52.4238 718.016 52.1836C718.566 51.9375 719.188 51.8145 719.879 51.8145C720.576 51.8145 721.197 51.9375 721.742 52.1836C722.293 52.4238 722.759 52.7637 723.14 53.2031C723.521 53.6367 723.811 54.1494 724.01 54.7412C724.209 55.3271 724.309 55.9629 724.309 56.6484V56.8506C724.309 57.5361 724.209 58.1719 724.01 58.7578C723.811 59.3438 723.521 59.8564 723.14 60.2959C722.759 60.7295 722.296 61.0693 721.751 61.3154C721.206 61.5557 720.588 61.6758 719.896 61.6758C719.199 61.6758 718.575 61.5557 718.024 61.3154C717.479 61.0693 717.017 60.7295 716.636 60.2959C716.255 59.8564 715.965 59.3438 715.766 58.7578C715.566 58.1719 715.467 57.5361 715.467 56.8506ZM717.585 56.6484V56.8506C717.585 57.2783 717.629 57.6826 717.717 58.0635C717.805 58.4443 717.942 58.7783 718.13 59.0654C718.317 59.3525 718.558 59.5781 718.851 59.7422C719.144 59.9062 719.492 59.9883 719.896 59.9883C720.289 59.9883 720.629 59.9062 720.916 59.7422C721.209 59.5781 721.449 59.3525 721.637 59.0654C721.824 58.7783 721.962 58.4443 722.05 58.0635C722.144 57.6826 722.19 57.2783 722.19 56.8506V56.6484C722.19 56.2266 722.144 55.8281 722.05 55.4531C721.962 55.0723 721.821 54.7354 721.628 54.4424C721.44 54.1494 721.2 53.9209 720.907 53.7568C720.62 53.5869 720.277 53.502 719.879 53.502C719.48 53.502 719.135 53.5869 718.842 53.7568C718.555 53.9209 718.317 54.1494 718.13 54.4424C717.942 54.7354 717.805 55.0723 717.717 55.4531C717.629 55.8281 717.585 56.2266 717.585 56.6484ZM728.185 54.0205V61.5H726.066V51.9902H728.062L728.185 54.0205ZM727.807 56.3936L727.121 56.3848C727.127 55.7109 727.221 55.0928 727.402 54.5303C727.59 53.9678 727.848 53.4844 728.176 53.0801C728.51 52.6758 728.908 52.3652 729.371 52.1484C729.834 51.9258 730.35 51.8145 730.918 51.8145C731.375 51.8145 731.788 51.8789 732.157 52.0078C732.532 52.1309 732.852 52.333 733.115 52.6143C733.385 52.8955 733.59 53.2617 733.73 53.7129C733.871 54.1582 733.941 54.7061 733.941 55.3564V61.5H731.814V55.3477C731.814 54.8906 731.747 54.5303 731.612 54.2666C731.483 53.9971 731.293 53.8066 731.041 53.6953C730.795 53.5781 730.487 53.5195 730.118 53.5195C729.755 53.5195 729.43 53.5957 729.143 53.748C728.855 53.9004 728.612 54.1084 728.413 54.3721C728.22 54.6357 728.07 54.9404 727.965 55.2861C727.859 55.6318 727.807 56.001 727.807 56.3936ZM740.296 61.6758C739.593 61.6758 738.957 61.5615 738.389 61.333C737.826 61.0986 737.346 60.7734 736.947 60.3574C736.555 59.9414 736.253 59.4521 736.042 58.8896C735.831 58.3271 735.726 57.7207 735.726 57.0703V56.7188C735.726 55.9746 735.834 55.3008 736.051 54.6973C736.268 54.0938 736.569 53.5781 736.956 53.1504C737.343 52.7168 737.8 52.3857 738.327 52.1572C738.854 51.9287 739.426 51.8145 740.041 51.8145C740.721 51.8145 741.315 51.9287 741.825 52.1572C742.335 52.3857 742.757 52.708 743.091 53.124C743.431 53.5342 743.683 54.0234 743.847 54.5918C744.017 55.1602 744.102 55.7871 744.102 56.4727V57.3779H736.754V55.8574H742.01V55.6904C741.998 55.3096 741.922 54.9521 741.781 54.6182C741.646 54.2842 741.438 54.0146 741.157 53.8096C740.876 53.6045 740.501 53.502 740.032 53.502C739.681 53.502 739.367 53.5781 739.092 53.7305C738.822 53.877 738.597 54.0908 738.415 54.3721C738.233 54.6533 738.093 54.9932 737.993 55.3916C737.899 55.7842 737.853 56.2266 737.853 56.7188V57.0703C737.853 57.4863 737.908 57.873 738.02 58.2305C738.137 58.582 738.307 58.8896 738.529 59.1533C738.752 59.417 739.021 59.625 739.338 59.7773C739.654 59.9238 740.015 59.9971 740.419 59.9971C740.929 59.9971 741.383 59.8945 741.781 59.6895C742.18 59.4844 742.525 59.1943 742.818 58.8193L743.935 59.9004C743.729 60.1992 743.463 60.4863 743.135 60.7617C742.807 61.0312 742.405 61.251 741.931 61.4209C741.462 61.5908 740.917 61.6758 740.296 61.6758Z" fill="#5384ED"/>
<path d="M898 55L888 49.2265L888 60.7735L898 55ZM831.333 55C831.333 52.0545 828.946 49.6666 826 49.6666C823.054 49.6666 820.667 52.0545 820.667 55C820.667 57.9455 823.054 60.3333 826 60.3333C828.946 60.3333 831.333 57.9455 831.333 55ZM889 54L826 54L826 56L889 56L889 54Z" fill="#5384ED"/>
<rect x="898" y="32.5" width="246" height="45" rx="8" fill="#E2EDFD"/>
<path d="M971.509 58.626L974.058 48.7031H975.394L975.244 51.2607L972.52 61.5H971.131L971.509 58.626ZM969.602 48.7031L971.667 58.5469L971.852 61.5H970.375L967.413 48.7031H969.602ZM978.285 58.5205L980.324 48.7031H982.521L979.56 61.5H978.083L978.285 58.5205ZM975.912 48.7031L978.435 58.6523L978.804 61.5H977.415L974.734 51.2607L974.594 48.7031H975.912ZM983.26 56.8506V56.6484C983.26 55.9629 983.359 55.3271 983.559 54.7412C983.758 54.1494 984.045 53.6367 984.42 53.2031C984.801 52.7637 985.264 52.4238 985.809 52.1836C986.359 51.9375 986.98 51.8145 987.672 51.8145C988.369 51.8145 988.99 51.9375 989.535 52.1836C990.086 52.4238 990.552 52.7637 990.933 53.2031C991.313 53.6367 991.604 54.1494 991.803 54.7412C992.002 55.3271 992.102 55.9629 992.102 56.6484V56.8506C992.102 57.5361 992.002 58.1719 991.803 58.7578C991.604 59.3438 991.313 59.8564 990.933 60.2959C990.552 60.7295 990.089 61.0693 989.544 61.3154C988.999 61.5557 988.381 61.6758 987.689 61.6758C986.992 61.6758 986.368 61.5557 985.817 61.3154C985.272 61.0693 984.81 60.7295 984.429 60.2959C984.048 59.8564 983.758 59.3438 983.559 58.7578C983.359 58.1719 983.26 57.5361 983.26 56.8506ZM985.378 56.6484V56.8506C985.378 57.2783 985.422 57.6826 985.51 58.0635C985.598 58.4443 985.735 58.7783 985.923 59.0654C986.11 59.3525 986.351 59.5781 986.644 59.7422C986.937 59.9062 987.285 59.9883 987.689 59.9883C988.082 59.9883 988.422 59.9062 988.709 59.7422C989.002 59.5781 989.242 59.3525 989.43 59.0654C989.617 58.7783 989.755 58.4443 989.843 58.0635C989.937 57.6826 989.983 57.2783 989.983 56.8506V56.6484C989.983 56.2266 989.937 55.8281 989.843 55.4531C989.755 55.0723 989.614 54.7354 989.421 54.4424C989.233 54.1494 988.993 53.9209 988.7 53.7568C988.413 53.5869 988.07 53.502 987.672 53.502C987.273 53.502 986.928 53.5869 986.635 53.7568C986.348 53.9209 986.11 54.1494 985.923 54.4424C985.735 54.7354 985.598 55.0723 985.51 55.4531C985.422 55.8281 985.378 56.2266 985.378 56.6484ZM996.004 53.8008V61.5H993.886V51.9902H995.907L996.004 53.8008ZM998.913 51.9287L998.896 53.8975C998.767 53.874 998.626 53.8564 998.474 53.8447C998.327 53.833 998.181 53.8271 998.034 53.8271C997.671 53.8271 997.352 53.8799 997.076 53.9854C996.801 54.085 996.569 54.2314 996.382 54.4248C996.2 54.6123 996.06 54.8408 995.96 55.1104C995.86 55.3799 995.802 55.6816 995.784 56.0156L995.301 56.0508C995.301 55.4531 995.359 54.8994 995.477 54.3896C995.594 53.8799 995.77 53.4316 996.004 53.0449C996.244 52.6582 996.543 52.3564 996.9 52.1396C997.264 51.9229 997.683 51.8145 998.157 51.8145C998.286 51.8145 998.424 51.8262 998.57 51.8496C998.723 51.873 998.837 51.8994 998.913 51.9287ZM1002.38 48V61.5H1000.25V48H1002.38ZM1008.28 51.9902L1004.14 56.5781L1001.88 58.8984L1001.32 57.1055L1003.04 54.9873L1005.72 51.9902H1008.28ZM1006.18 61.5L1003.1 57.0352L1004.43 55.5498L1008.63 61.5H1006.18ZM1011.89 51.9902V61.5H1009.77V51.9902H1011.89ZM1009.63 49.4941C1009.63 49.1719 1009.73 48.9053 1009.94 48.6943C1010.16 48.4775 1010.46 48.3691 1010.84 48.3691C1011.21 48.3691 1011.51 48.4775 1011.73 48.6943C1011.94 48.9053 1012.05 49.1719 1012.05 49.4941C1012.05 49.8105 1011.94 50.0742 1011.73 50.2852C1011.51 50.4961 1011.21 50.6016 1010.84 50.6016C1010.46 50.6016 1010.16 50.4961 1009.94 50.2852C1009.73 50.0742 1009.63 49.8105 1009.63 49.4941ZM1016.32 54.0205V61.5H1014.2V51.9902H1016.19L1016.32 54.0205ZM1015.94 56.3936L1015.25 56.3848C1015.26 55.7109 1015.35 55.0928 1015.53 54.5303C1015.72 53.9678 1015.98 53.4844 1016.31 53.0801C1016.64 52.6758 1017.04 52.3652 1017.5 52.1484C1017.96 51.9258 1018.48 51.8145 1019.05 51.8145C1019.51 51.8145 1019.92 51.8789 1020.29 52.0078C1020.66 52.1309 1020.98 52.333 1021.25 52.6143C1021.52 52.8955 1021.72 53.2617 1021.86 53.7129C1022 54.1582 1022.07 54.7061 1022.07 55.3564V61.5H1019.95V55.3477C1019.95 54.8906 1019.88 54.5303 1019.74 54.2666C1019.61 53.9971 1019.42 53.8066 1019.17 53.6953C1018.93 53.5781 1018.62 53.5195 1018.25 53.5195C1017.89 53.5195 1017.56 53.5957 1017.27 53.748C1016.99 53.9004 1016.74 54.1084 1016.54 54.3721C1016.35 54.6357 1016.2 54.9404 1016.1 55.2861C1015.99 55.6318 1015.94 56.001 1015.94 56.3936ZM1030.33 51.9902H1032.25V61.2363C1032.25 62.0918 1032.07 62.8184 1031.71 63.416C1031.34 64.0137 1030.83 64.4678 1030.18 64.7783C1029.53 65.0947 1028.78 65.2529 1027.93 65.2529C1027.56 65.2529 1027.16 65.2002 1026.71 65.0947C1026.27 64.9893 1025.85 64.8193 1025.43 64.585C1025.02 64.3564 1024.68 64.0547 1024.4 63.6797L1025.39 62.4316C1025.73 62.8359 1026.11 63.1318 1026.52 63.3193C1026.93 63.5068 1027.36 63.6006 1027.81 63.6006C1028.3 63.6006 1028.71 63.5098 1029.05 63.3281C1029.4 63.1523 1029.66 62.8916 1029.85 62.5459C1030.04 62.2002 1030.13 61.7783 1030.13 61.2803V54.1436L1030.33 51.9902ZM1023.87 56.8506V56.666C1023.87 55.9453 1023.95 55.2891 1024.13 54.6973C1024.3 54.0996 1024.56 53.5869 1024.88 53.1592C1025.21 52.7256 1025.61 52.3945 1026.08 52.166C1026.55 51.9316 1027.08 51.8145 1027.67 51.8145C1028.29 51.8145 1028.81 51.9258 1029.24 52.1484C1029.68 52.3711 1030.05 52.6904 1030.34 53.1064C1030.64 53.5166 1030.86 54.0088 1031.03 54.583C1031.2 55.1514 1031.32 55.7842 1031.41 56.4814V57.0703C1031.33 57.75 1031.2 58.3711 1031.02 58.9336C1030.84 59.4961 1030.6 59.9824 1030.3 60.3926C1030 60.8027 1029.63 61.1191 1029.19 61.3418C1028.76 61.5645 1028.25 61.6758 1027.65 61.6758C1027.07 61.6758 1026.55 61.5557 1026.08 61.3154C1025.62 61.0752 1025.22 60.7383 1024.88 60.3047C1024.56 59.8711 1024.3 59.3613 1024.13 58.7754C1023.95 58.1836 1023.87 57.542 1023.87 56.8506ZM1025.98 56.666V56.8506C1025.98 57.2842 1026.02 57.6885 1026.11 58.0635C1026.19 58.4385 1026.33 58.7695 1026.5 59.0566C1026.68 59.3379 1026.91 59.5605 1027.19 59.7246C1027.47 59.8828 1027.8 59.9619 1028.18 59.9619C1028.68 59.9619 1029.09 59.8564 1029.4 59.6455C1029.72 59.4346 1029.97 59.1504 1030.14 58.793C1030.32 58.4297 1030.44 58.0254 1030.51 57.5801V55.9893C1030.47 55.6436 1030.4 55.3213 1030.29 55.0225C1030.18 54.7236 1030.04 54.4629 1029.86 54.2402C1029.68 54.0117 1029.45 53.8359 1029.17 53.7129C1028.9 53.584 1028.57 53.5195 1028.2 53.5195C1027.82 53.5195 1027.49 53.6016 1027.21 53.7656C1026.92 53.9297 1026.69 54.1553 1026.51 54.4424C1026.33 54.7295 1026.2 55.0635 1026.12 55.4443C1026.03 55.8252 1025.98 56.2324 1025.98 56.666ZM1041.02 48V61.5H1038.91V48H1041.02ZM1040.65 56.3936L1039.97 56.3848C1039.97 55.7285 1040.06 55.1221 1040.24 54.5654C1040.42 54.0088 1040.67 53.5254 1041 53.1152C1041.32 52.6992 1041.72 52.3799 1042.17 52.1572C1042.63 51.9287 1043.14 51.8145 1043.69 51.8145C1044.16 51.8145 1044.58 51.8789 1044.96 52.0078C1045.34 52.1367 1045.67 52.3447 1045.94 52.6318C1046.22 52.9131 1046.43 53.2822 1046.57 53.7393C1046.71 54.1904 1046.79 54.7412 1046.79 55.3916V61.5H1044.66V55.374C1044.66 54.917 1044.59 54.5537 1044.46 54.2842C1044.33 54.0146 1044.14 53.8213 1043.89 53.7041C1043.63 53.5811 1043.33 53.5195 1042.96 53.5195C1042.58 53.5195 1042.25 53.5957 1041.95 53.748C1041.67 53.9004 1041.43 54.1084 1041.23 54.3721C1041.04 54.6357 1040.89 54.9404 1040.79 55.2861C1040.7 55.6318 1040.65 56.001 1040.65 56.3936ZM1048.53 56.8506V56.6484C1048.53 55.9629 1048.63 55.3271 1048.83 54.7412C1049.03 54.1494 1049.31 53.6367 1049.69 53.2031C1050.07 52.7637 1050.53 52.4238 1051.08 52.1836C1051.63 51.9375 1052.25 51.8145 1052.94 51.8145C1053.64 51.8145 1054.26 51.9375 1054.8 52.1836C1055.35 52.4238 1055.82 52.7637 1056.2 53.2031C1056.58 53.6367 1056.87 54.1494 1057.07 54.7412C1057.27 55.3271 1057.37 55.9629 1057.37 56.6484V56.8506C1057.37 57.5361 1057.27 58.1719 1057.07 58.7578C1056.87 59.3438 1056.58 59.8564 1056.2 60.2959C1055.82 60.7295 1055.36 61.0693 1054.81 61.3154C1054.27 61.5557 1053.65 61.6758 1052.96 61.6758C1052.26 61.6758 1051.64 61.5557 1051.08 61.3154C1050.54 61.0693 1050.08 60.7295 1049.7 60.2959C1049.32 59.8564 1049.03 59.3438 1048.83 58.7578C1048.63 58.1719 1048.53 57.5361 1048.53 56.8506ZM1050.65 56.6484V56.8506C1050.65 57.2783 1050.69 57.6826 1050.78 58.0635C1050.87 58.4443 1051 58.7783 1051.19 59.0654C1051.38 59.3525 1051.62 59.5781 1051.91 59.7422C1052.2 59.9062 1052.55 59.9883 1052.96 59.9883C1053.35 59.9883 1053.69 59.9062 1053.98 59.7422C1054.27 59.5781 1054.51 59.3525 1054.7 59.0654C1054.88 58.7783 1055.02 58.4443 1055.11 58.0635C1055.2 57.6826 1055.25 57.2783 1055.25 56.8506V56.6484C1055.25 56.2266 1055.2 55.8281 1055.11 55.4531C1055.02 55.0723 1054.88 54.7354 1054.69 54.4424C1054.5 54.1494 1054.26 53.9209 1053.97 53.7568C1053.68 53.5869 1053.34 53.502 1052.94 53.502C1052.54 53.502 1052.2 53.5869 1051.9 53.7568C1051.62 53.9209 1051.38 54.1494 1051.19 54.4424C1051 54.7354 1050.87 55.0723 1050.78 55.4531C1050.69 55.8281 1050.65 56.2266 1050.65 56.6484ZM1064.87 59.2588V51.9902H1066.99V61.5H1064.99L1064.87 59.2588ZM1065.17 57.2812L1065.88 57.2637C1065.88 57.9023 1065.81 58.4912 1065.67 59.0303C1065.53 59.5635 1065.31 60.0293 1065.02 60.4277C1064.72 60.8203 1064.35 61.1279 1063.89 61.3506C1063.43 61.5674 1062.89 61.6758 1062.25 61.6758C1061.78 61.6758 1061.36 61.6084 1060.97 61.4736C1060.59 61.3389 1060.25 61.1309 1059.97 60.8496C1059.7 60.5684 1059.48 60.2021 1059.33 59.751C1059.18 59.2998 1059.1 58.7607 1059.1 58.1338V51.9902H1061.22V58.1514C1061.22 58.4971 1061.26 58.7871 1061.34 59.0215C1061.42 59.25 1061.54 59.4346 1061.68 59.5752C1061.82 59.7158 1061.98 59.8154 1062.17 59.874C1062.36 59.9326 1062.55 59.9619 1062.77 59.9619C1063.37 59.9619 1063.84 59.8447 1064.19 59.6104C1064.54 59.3701 1064.79 59.0479 1064.94 58.6436C1065.09 58.2393 1065.17 57.7852 1065.17 57.2812ZM1071.29 53.8008V61.5H1069.17V51.9902H1071.19L1071.29 53.8008ZM1074.2 51.9287L1074.18 53.8975C1074.05 53.874 1073.91 53.8564 1073.76 53.8447C1073.61 53.833 1073.47 53.8271 1073.32 53.8271C1072.96 53.8271 1072.64 53.8799 1072.36 53.9854C1072.09 54.085 1071.86 54.2314 1071.67 54.4248C1071.49 54.6123 1071.35 54.8408 1071.25 55.1104C1071.15 55.3799 1071.09 55.6816 1071.07 56.0156L1070.59 56.0508C1070.59 55.4531 1070.65 54.8994 1070.76 54.3896C1070.88 53.8799 1071.06 53.4316 1071.29 53.0449C1071.53 52.6582 1071.83 52.3564 1072.19 52.1396C1072.55 51.9229 1072.97 51.8145 1073.44 51.8145C1073.57 51.8145 1073.71 51.8262 1073.86 51.8496C1074.01 51.873 1074.12 51.8994 1074.2 51.9287Z" fill="#5384ED"/>
<path d="M1216 55L1206 49.2265L1206 60.7735L1216 55ZM1149.33 55C1149.33 52.0545 1146.95 49.6666 1144 49.6666C1141.05 49.6666 1138.67 52.0545 1138.67 55C1138.67 57.9455 1141.05 60.3333 1144 60.3333C1146.95 60.3333 1149.33 57.9455 1149.33 55ZM1207 54L1144 54L1144 56L1207 56L1207 54Z" fill="#5384ED"/>
<rect x="1216" y="32.5" width="246" height="45" rx="8" fill="#E2EDFD"/>
<path d="M1290.03 58.2041C1290.03 57.9404 1289.99 57.7061 1289.91 57.501C1289.83 57.2959 1289.7 57.1084 1289.5 56.9385C1289.3 56.7686 1289.02 56.6045 1288.65 56.4463C1288.3 56.2822 1287.84 56.1152 1287.28 55.9453C1286.67 55.7578 1286.11 55.5498 1285.59 55.3213C1285.08 55.0869 1284.64 54.8174 1284.26 54.5127C1283.88 54.2021 1283.58 53.8477 1283.37 53.4492C1283.16 53.0449 1283.05 52.5791 1283.05 52.0518C1283.05 51.5303 1283.16 51.0557 1283.38 50.6279C1283.6 50.2002 1283.92 49.8311 1284.32 49.5205C1284.73 49.2041 1285.21 48.9609 1285.77 48.791C1286.33 48.6152 1286.94 48.5273 1287.62 48.5273C1288.57 48.5273 1289.38 48.7031 1290.07 49.0547C1290.76 49.4062 1291.29 49.8779 1291.66 50.4697C1292.03 51.0615 1292.22 51.7148 1292.22 52.4297H1290.03C1290.03 52.0078 1289.94 51.6357 1289.76 51.3135C1289.58 50.9854 1289.32 50.7275 1288.95 50.54C1288.59 50.3525 1288.14 50.2588 1287.59 50.2588C1287.07 50.2588 1286.63 50.3379 1286.29 50.4961C1285.94 50.6543 1285.69 50.8682 1285.52 51.1377C1285.35 51.4072 1285.26 51.7119 1285.26 52.0518C1285.26 52.292 1285.32 52.5117 1285.43 52.7109C1285.54 52.9043 1285.71 53.0859 1285.94 53.2559C1286.17 53.4199 1286.45 53.5752 1286.8 53.7217C1287.14 53.8682 1287.55 54.0088 1288.02 54.1436C1288.73 54.3545 1289.35 54.5889 1289.88 54.8467C1290.4 55.0986 1290.84 55.3857 1291.19 55.708C1291.54 56.0303 1291.81 56.3965 1291.98 56.8066C1292.16 57.2109 1292.25 57.6709 1292.25 58.1865C1292.25 58.7256 1292.14 59.2119 1291.92 59.6455C1291.71 60.0732 1291.4 60.4395 1290.99 60.7441C1290.59 61.043 1290.11 61.2744 1289.55 61.4385C1288.99 61.5967 1288.37 61.6758 1287.69 61.6758C1287.07 61.6758 1286.46 61.5938 1285.87 61.4297C1285.28 61.2656 1284.74 61.0166 1284.25 60.6826C1283.76 60.3428 1283.38 59.9209 1283.09 59.417C1282.8 58.9072 1282.66 58.3125 1282.66 57.6328H1284.87C1284.87 58.0488 1284.94 58.4033 1285.08 58.6963C1285.22 58.9893 1285.42 59.2295 1285.68 59.417C1285.94 59.5986 1286.24 59.7334 1286.58 59.8213C1286.92 59.9092 1287.29 59.9531 1287.69 59.9531C1288.2 59.9531 1288.63 59.8799 1288.98 59.7334C1289.33 59.5869 1289.59 59.3818 1289.77 59.1182C1289.95 58.8545 1290.03 58.5498 1290.03 58.2041ZM1296.75 60.4629L1299.33 51.9902H1301.6L1297.79 62.9502C1297.7 63.1846 1297.58 63.4395 1297.44 63.7148C1297.3 63.9902 1297.12 64.251 1296.89 64.4971C1296.67 64.749 1296.39 64.9512 1296.05 65.1035C1295.72 65.2617 1295.32 65.3408 1294.84 65.3408C1294.65 65.3408 1294.47 65.3232 1294.3 65.2881C1294.13 65.2588 1293.96 65.2266 1293.81 65.1914L1293.8 63.5742C1293.86 63.5801 1293.93 63.5859 1294.01 63.5918C1294.1 63.5977 1294.17 63.6006 1294.23 63.6006C1294.58 63.6006 1294.87 63.5566 1295.1 63.4688C1295.34 63.3867 1295.53 63.252 1295.68 63.0645C1295.83 62.877 1295.96 62.625 1296.06 62.3086L1296.75 60.4629ZM1295.29 51.9902L1297.55 59.1094L1297.93 61.3418L1296.46 61.7197L1293 51.9902H1295.29ZM1304.91 54.0205V61.5H1302.79V51.9902H1304.79L1304.91 54.0205ZM1304.54 56.3936L1303.85 56.3848C1303.86 55.7109 1303.95 55.0928 1304.13 54.5303C1304.32 53.9678 1304.58 53.4844 1304.9 53.0801C1305.24 52.6758 1305.64 52.3652 1306.1 52.1484C1306.56 51.9258 1307.08 51.8145 1307.65 51.8145C1308.1 51.8145 1308.52 51.8789 1308.89 52.0078C1309.26 52.1309 1309.58 52.333 1309.84 52.6143C1310.11 52.8955 1310.32 53.2617 1310.46 53.7129C1310.6 54.1582 1310.67 54.7061 1310.67 55.3564V61.5H1308.54V55.3477C1308.54 54.8906 1308.48 54.5303 1308.34 54.2666C1308.21 53.9971 1308.02 53.8066 1307.77 53.6953C1307.52 53.5781 1307.22 53.5195 1306.85 53.5195C1306.48 53.5195 1306.16 53.5957 1305.87 53.748C1305.58 53.9004 1305.34 54.1084 1305.14 54.3721C1304.95 54.6357 1304.8 54.9404 1304.69 55.2861C1304.59 55.6318 1304.54 56.001 1304.54 56.3936ZM1316.72 59.9883C1317.06 59.9883 1317.37 59.9209 1317.65 59.7861C1317.93 59.6455 1318.16 59.4521 1318.33 59.2061C1318.5 58.96 1318.6 58.6758 1318.62 58.3535H1320.61C1320.6 58.9688 1320.42 59.5283 1320.07 60.0322C1319.71 60.5361 1319.25 60.9375 1318.67 61.2363C1318.09 61.5293 1317.45 61.6758 1316.74 61.6758C1316.02 61.6758 1315.38 61.5527 1314.84 61.3066C1314.31 61.0547 1313.86 60.709 1313.5 60.2695C1313.14 59.8301 1312.87 59.3232 1312.69 58.749C1312.52 58.1748 1312.43 57.5596 1312.43 56.9033V56.5957C1312.43 55.9395 1312.52 55.3242 1312.69 54.75C1312.87 54.1699 1313.14 53.6602 1313.5 53.2207C1313.86 52.7812 1314.31 52.4385 1314.84 52.1924C1315.38 51.9404 1316.01 51.8145 1316.73 51.8145C1317.5 51.8145 1318.16 51.9668 1318.74 52.2715C1319.31 52.5703 1319.76 52.9893 1320.09 53.5283C1320.43 54.0615 1320.6 54.6826 1320.61 55.3916H1318.62C1318.6 55.04 1318.51 54.7236 1318.35 54.4424C1318.2 54.1553 1317.98 53.9268 1317.7 53.7568C1317.43 53.5869 1317.09 53.502 1316.71 53.502C1316.28 53.502 1315.93 53.5898 1315.64 53.7656C1315.36 53.9355 1315.14 54.1699 1314.99 54.4688C1314.83 54.7617 1314.71 55.0928 1314.64 55.4619C1314.58 55.8252 1314.55 56.2031 1314.55 56.5957V56.9033C1314.55 57.2959 1314.58 57.6768 1314.64 58.0459C1314.71 58.415 1314.82 58.7461 1314.98 59.0391C1315.14 59.3262 1315.36 59.5576 1315.64 59.7334C1315.93 59.9033 1316.28 59.9883 1316.72 59.9883ZM1330.6 59.9883C1330.95 59.9883 1331.26 59.9209 1331.54 59.7861C1331.82 59.6455 1332.04 59.4521 1332.21 59.2061C1332.39 58.96 1332.48 58.6758 1332.5 58.3535H1334.5C1334.49 58.9688 1334.3 59.5283 1333.95 60.0322C1333.6 60.5361 1333.13 60.9375 1332.55 61.2363C1331.97 61.5293 1331.33 61.6758 1330.63 61.6758C1329.9 61.6758 1329.27 61.5527 1328.73 61.3066C1328.19 61.0547 1327.74 60.709 1327.39 60.2695C1327.03 59.8301 1326.76 59.3232 1326.58 58.749C1326.4 58.1748 1326.31 57.5596 1326.31 56.9033V56.5957C1326.31 55.9395 1326.4 55.3242 1326.58 54.75C1326.76 54.1699 1327.03 53.6602 1327.39 53.2207C1327.74 52.7812 1328.19 52.4385 1328.73 52.1924C1329.27 51.9404 1329.9 51.8145 1330.62 51.8145C1331.38 51.8145 1332.05 51.9668 1332.62 52.2715C1333.2 52.5703 1333.65 52.9893 1333.98 53.5283C1334.31 54.0615 1334.49 54.6826 1334.5 55.3916H1332.5C1332.48 55.04 1332.4 54.7236 1332.24 54.4424C1332.09 54.1553 1331.87 53.9268 1331.59 53.7568C1331.31 53.5869 1330.98 53.502 1330.59 53.502C1330.17 53.502 1329.81 53.5898 1329.53 53.7656C1329.25 53.9355 1329.03 54.1699 1328.87 54.4688C1328.71 54.7617 1328.6 55.0928 1328.53 55.4619C1328.46 55.8252 1328.43 56.2031 1328.43 56.5957V56.9033C1328.43 57.2959 1328.46 57.6768 1328.53 58.0459C1328.59 58.415 1328.71 58.7461 1328.86 59.0391C1329.03 59.3262 1329.25 59.5576 1329.53 59.7334C1329.81 59.9033 1330.17 59.9883 1330.6 59.9883ZM1341.48 59.5928V55.0576C1341.48 54.7178 1341.42 54.4248 1341.3 54.1787C1341.18 53.9326 1340.99 53.7422 1340.74 53.6074C1340.49 53.4727 1340.18 53.4053 1339.81 53.4053C1339.46 53.4053 1339.16 53.4639 1338.91 53.5811C1338.66 53.6982 1338.46 53.8564 1338.32 54.0557C1338.18 54.2549 1338.11 54.4805 1338.11 54.7324H1336C1336 54.3574 1336.09 53.9941 1336.27 53.6426C1336.45 53.291 1336.72 52.9775 1337.06 52.7021C1337.41 52.4268 1337.82 52.21 1338.3 52.0518C1338.78 51.8936 1339.32 51.8145 1339.92 51.8145C1340.63 51.8145 1341.27 51.9346 1341.82 52.1748C1342.38 52.415 1342.81 52.7783 1343.13 53.2646C1343.45 53.7451 1343.61 54.3486 1343.61 55.0752V59.3027C1343.61 59.7363 1343.64 60.126 1343.7 60.4717C1343.76 60.8115 1343.85 61.1074 1343.97 61.3594V61.5H1341.8C1341.7 61.2715 1341.62 60.9814 1341.56 60.6299C1341.51 60.2725 1341.48 59.9268 1341.48 59.5928ZM1341.79 55.7168L1341.81 57.0264H1340.29C1339.9 57.0264 1339.55 57.0645 1339.25 57.1406C1338.95 57.2109 1338.7 57.3164 1338.5 57.457C1338.31 57.5977 1338.16 57.7676 1338.06 57.9668C1337.96 58.166 1337.91 58.3916 1337.91 58.6436C1337.91 58.8955 1337.97 59.127 1338.08 59.3379C1338.2 59.543 1338.37 59.7041 1338.59 59.8213C1338.82 59.9385 1339.1 59.9971 1339.42 59.9971C1339.85 59.9971 1340.23 59.9092 1340.55 59.7334C1340.88 59.5518 1341.14 59.332 1341.33 59.0742C1341.51 58.8105 1341.61 58.5615 1341.62 58.3271L1342.31 59.2676C1342.24 59.5078 1342.12 59.7656 1341.95 60.041C1341.78 60.3164 1341.56 60.5801 1341.28 60.832C1341.01 61.0781 1340.69 61.2803 1340.31 61.4385C1339.93 61.5967 1339.5 61.6758 1339.01 61.6758C1338.38 61.6758 1337.83 61.5527 1337.34 61.3066C1336.86 61.0547 1336.48 60.7178 1336.2 60.2959C1335.93 59.8682 1335.79 59.3848 1335.79 58.8457C1335.79 58.3418 1335.88 57.8965 1336.07 57.5098C1336.26 57.1172 1336.54 56.7891 1336.91 56.5254C1337.29 56.2617 1337.75 56.0625 1338.29 55.9277C1338.82 55.7871 1339.44 55.7168 1340.13 55.7168H1341.79ZM1348.09 48V61.5H1345.97V48H1348.09ZM1354.61 61.6758C1353.9 61.6758 1353.27 61.5615 1352.7 61.333C1352.14 61.0986 1351.66 60.7734 1351.26 60.3574C1350.87 59.9414 1350.56 59.4521 1350.35 58.8896C1350.14 58.3271 1350.04 57.7207 1350.04 57.0703V56.7188C1350.04 55.9746 1350.14 55.3008 1350.36 54.6973C1350.58 54.0938 1350.88 53.5781 1351.27 53.1504C1351.65 52.7168 1352.11 52.3857 1352.64 52.1572C1353.17 51.9287 1353.74 51.8145 1354.35 51.8145C1355.03 51.8145 1355.63 51.9287 1356.14 52.1572C1356.65 52.3857 1357.07 52.708 1357.4 53.124C1357.74 53.5342 1357.99 54.0234 1358.16 54.5918C1358.33 55.1602 1358.41 55.7871 1358.41 56.4727V57.3779H1351.06V55.8574H1356.32V55.6904C1356.31 55.3096 1356.23 54.9521 1356.09 54.6182C1355.96 54.2842 1355.75 54.0146 1355.47 53.8096C1355.19 53.6045 1354.81 53.502 1354.34 53.502C1353.99 53.502 1353.68 53.5781 1353.4 53.7305C1353.13 53.877 1352.91 54.0908 1352.73 54.3721C1352.54 54.6533 1352.4 54.9932 1352.3 55.3916C1352.21 55.7842 1352.16 56.2266 1352.16 56.7188V57.0703C1352.16 57.4863 1352.22 57.873 1352.33 58.2305C1352.45 58.582 1352.62 58.8896 1352.84 59.1533C1353.06 59.417 1353.33 59.625 1353.65 59.7773C1353.96 59.9238 1354.33 59.9971 1354.73 59.9971C1355.24 59.9971 1355.69 59.8945 1356.09 59.6895C1356.49 59.4844 1356.84 59.1943 1357.13 58.8193L1358.25 59.9004C1358.04 60.1992 1357.77 60.4863 1357.45 60.7617C1357.12 61.0312 1356.72 61.251 1356.24 61.4209C1355.77 61.5908 1355.23 61.6758 1354.61 61.6758ZM1362.17 54.0205V61.5H1360.05V51.9902H1362.04L1362.17 54.0205ZM1361.79 56.3936L1361.1 56.3848C1361.11 55.7109 1361.2 55.0928 1361.38 54.5303C1361.57 53.9678 1361.83 53.4844 1362.16 53.0801C1362.49 52.6758 1362.89 52.3652 1363.35 52.1484C1363.81 51.9258 1364.33 51.8145 1364.9 51.8145C1365.36 51.8145 1365.77 51.8789 1366.14 52.0078C1366.51 52.1309 1366.83 52.333 1367.1 52.6143C1367.37 52.8955 1367.57 53.2617 1367.71 53.7129C1367.85 54.1582 1367.92 54.7061 1367.92 55.3564V61.5H1365.79V55.3477C1365.79 54.8906 1365.73 54.5303 1365.59 54.2666C1365.46 53.9971 1365.27 53.8066 1365.02 53.6953C1364.78 53.5781 1364.47 53.5195 1364.1 53.5195C1363.74 53.5195 1363.41 53.5957 1363.12 53.748C1362.84 53.9004 1362.59 54.1084 1362.39 54.3721C1362.2 54.6357 1362.05 54.9404 1361.95 55.2861C1361.84 55.6318 1361.79 56.001 1361.79 56.3936ZM1375.88 59.5312V48H1378.01V61.5H1376.09L1375.88 59.5312ZM1369.7 56.8506V56.666C1369.7 55.9453 1369.78 55.2891 1369.95 54.6973C1370.12 54.0996 1370.37 53.5869 1370.69 53.1592C1371.01 52.7256 1371.41 52.3945 1371.87 52.166C1372.33 51.9316 1372.85 51.8145 1373.43 51.8145C1374.01 51.8145 1374.51 51.9258 1374.94 52.1484C1375.38 52.3711 1375.75 52.6904 1376.05 53.1064C1376.36 53.5166 1376.6 54.0088 1376.78 54.583C1376.96 55.1514 1377.09 55.7842 1377.17 56.4814V57.0703C1377.09 57.75 1376.96 58.3711 1376.78 58.9336C1376.6 59.4961 1376.36 59.9824 1376.05 60.3926C1375.75 60.8027 1375.38 61.1191 1374.94 61.3418C1374.5 61.5645 1374 61.6758 1373.42 61.6758C1372.84 61.6758 1372.32 61.5557 1371.86 61.3154C1371.4 61.0752 1371.01 60.7383 1370.69 60.3047C1370.37 59.8711 1370.12 59.3613 1369.95 58.7754C1369.78 58.1836 1369.7 57.542 1369.7 56.8506ZM1371.82 56.666V56.8506C1371.82 57.2842 1371.85 57.6885 1371.93 58.0635C1372.01 58.4385 1372.14 58.7695 1372.31 59.0566C1372.48 59.3379 1372.7 59.5605 1372.97 59.7246C1373.24 59.8828 1373.57 59.9619 1373.95 59.9619C1374.43 59.9619 1374.83 59.8564 1375.14 59.6455C1375.45 59.4346 1375.69 59.1504 1375.87 58.793C1376.05 58.4297 1376.17 58.0254 1376.24 57.5801V55.9893C1376.2 55.6436 1376.13 55.3213 1376.02 55.0225C1375.91 54.7236 1375.77 54.4629 1375.59 54.2402C1375.4 54.0117 1375.18 53.8359 1374.91 53.7129C1374.65 53.584 1374.33 53.5195 1373.97 53.5195C1373.58 53.5195 1373.25 53.6016 1372.98 53.7656C1372.71 53.9297 1372.49 54.1553 1372.32 54.4424C1372.15 54.7295 1372.02 55.0635 1371.94 55.4443C1371.86 55.8252 1371.82 56.2324 1371.82 56.666ZM1385.59 59.5928V55.0576C1385.59 54.7178 1385.53 54.4248 1385.4 54.1787C1385.28 53.9326 1385.09 53.7422 1384.84 53.6074C1384.59 53.4727 1384.28 53.4053 1383.91 53.4053C1383.56 53.4053 1383.26 53.4639 1383.01 53.5811C1382.76 53.6982 1382.56 53.8564 1382.42 54.0557C1382.28 54.2549 1382.21 54.4805 1382.21 54.7324H1380.1C1380.1 54.3574 1380.19 53.9941 1380.38 53.6426C1380.56 53.291 1380.82 52.9775 1381.17 52.7021C1381.51 52.4268 1381.93 52.21 1382.41 52.0518C1382.89 51.8936 1383.43 51.8145 1384.02 51.8145C1384.74 51.8145 1385.37 51.9346 1385.92 52.1748C1386.48 52.415 1386.92 52.7783 1387.23 53.2646C1387.55 53.7451 1387.71 54.3486 1387.71 55.0752V59.3027C1387.71 59.7363 1387.74 60.126 1387.8 60.4717C1387.87 60.8115 1387.96 61.1074 1388.08 61.3594V61.5H1385.9C1385.8 61.2715 1385.73 60.9814 1385.67 60.6299C1385.61 60.2725 1385.59 59.9268 1385.59 59.5928ZM1385.9 55.7168L1385.91 57.0264H1384.39C1384 57.0264 1383.65 57.0645 1383.36 57.1406C1383.06 57.2109 1382.81 57.3164 1382.61 57.457C1382.41 57.5977 1382.26 57.7676 1382.16 57.9668C1382.06 58.166 1382.01 58.3916 1382.01 58.6436C1382.01 58.8955 1382.07 59.127 1382.19 59.3379C1382.3 59.543 1382.47 59.7041 1382.7 59.8213C1382.92 59.9385 1383.2 59.9971 1383.52 59.9971C1383.96 59.9971 1384.33 59.9092 1384.66 59.7334C1384.98 59.5518 1385.24 59.332 1385.43 59.0742C1385.62 58.8105 1385.72 58.5615 1385.73 58.3271L1386.41 59.2676C1386.34 59.5078 1386.22 59.7656 1386.05 60.041C1385.88 60.3164 1385.66 60.5801 1385.39 60.832C1385.12 61.0781 1384.79 61.2803 1384.41 61.4385C1384.04 61.5967 1383.6 61.6758 1383.11 61.6758C1382.49 61.6758 1381.93 61.5527 1381.45 61.3066C1380.96 61.0547 1380.58 60.7178 1380.31 60.2959C1380.03 59.8682 1379.89 59.3848 1379.89 58.8457C1379.89 58.3418 1379.99 57.8965 1380.17 57.5098C1380.37 57.1172 1380.65 56.7891 1381.02 56.5254C1381.39 56.2617 1381.85 56.0625 1382.39 55.9277C1382.93 55.7871 1383.54 55.7168 1384.23 55.7168H1385.9ZM1392.06 53.8008V61.5H1389.94V51.9902H1391.96L1392.06 53.8008ZM1394.97 51.9287L1394.95 53.8975C1394.82 53.874 1394.68 53.8564 1394.53 53.8447C1394.38 53.833 1394.23 53.8271 1394.09 53.8271C1393.72 53.8271 1393.4 53.8799 1393.13 53.9854C1392.85 54.085 1392.62 54.2314 1392.43 54.4248C1392.25 54.6123 1392.11 54.8408 1392.01 55.1104C1391.91 55.3799 1391.85 55.6816 1391.84 56.0156L1391.35 56.0508C1391.35 55.4531 1391.41 54.8994 1391.53 54.3896C1391.65 53.8799 1391.82 53.4316 1392.06 53.0449C1392.3 52.6582 1392.6 52.3564 1392.95 52.1396C1393.32 51.9229 1393.74 51.8145 1394.21 51.8145C1394.34 51.8145 1394.48 51.8262 1394.62 51.8496C1394.78 51.873 1394.89 51.8994 1394.97 51.9287Z" fill="#5384ED"/>
<path d="M1534 55L1524 49.2265L1524 60.7735L1534 55ZM1467.33 55C1467.33 52.0545 1464.95 49.6666 1462 49.6666C1459.05 49.6666 1456.67 52.0545 1456.67 55C1456.67 57.9455 1459.05 60.3333 1462 60.3333C1464.95 60.3333 1467.33 57.9455 1467.33 55ZM1525 54L1462 54L1462 56L1525 56L1525 54Z" fill="#5384ED"/>
<rect x="1535.5" y="30" width="178" height="50" rx="25" fill="#F6F9FE"/>
<path d="M1572.57 48.7031V61.5H1570.38V48.7031H1572.57ZM1576.58 48.7031V50.4609H1566.4V48.7031H1576.58ZM1581.41 61.6758C1580.7 61.6758 1580.07 61.5615 1579.5 61.333C1578.94 61.0986 1578.46 60.7734 1578.06 60.3574C1577.67 59.9414 1577.36 59.4521 1577.15 58.8896C1576.94 58.3271 1576.84 57.7207 1576.84 57.0703V56.7188C1576.84 55.9746 1576.95 55.3008 1577.16 54.6973C1577.38 54.0938 1577.68 53.5781 1578.07 53.1504C1578.45 52.7168 1578.91 52.3857 1579.44 52.1572C1579.97 51.9287 1580.54 51.8145 1581.15 51.8145C1581.83 51.8145 1582.43 51.9287 1582.94 52.1572C1583.45 52.3857 1583.87 52.708 1584.2 53.124C1584.54 53.5342 1584.79 54.0234 1584.96 54.5918C1585.13 55.1602 1585.21 55.7871 1585.21 56.4727V57.3779H1577.87V55.8574H1583.12V55.6904C1583.11 55.3096 1583.03 54.9521 1582.89 54.6182C1582.76 54.2842 1582.55 54.0146 1582.27 53.8096C1581.99 53.6045 1581.61 53.502 1581.14 53.502C1580.79 53.502 1580.48 53.5781 1580.2 53.7305C1579.93 53.877 1579.71 54.0908 1579.53 54.3721C1579.34 54.6533 1579.2 54.9932 1579.1 55.3916C1579.01 55.7842 1578.96 56.2266 1578.96 56.7188V57.0703C1578.96 57.4863 1579.02 57.873 1579.13 58.2305C1579.25 58.582 1579.42 58.8896 1579.64 59.1533C1579.86 59.417 1580.13 59.625 1580.45 59.7773C1580.77 59.9238 1581.13 59.9971 1581.53 59.9971C1582.04 59.9971 1582.49 59.8945 1582.89 59.6895C1583.29 59.4844 1583.64 59.1943 1583.93 58.8193L1585.05 59.9004C1584.84 60.1992 1584.57 60.4863 1584.25 60.7617C1583.92 61.0312 1583.52 61.251 1583.04 61.4209C1582.57 61.5908 1582.03 61.6758 1581.41 61.6758ZM1592.23 59.5928V55.0576C1592.23 54.7178 1592.17 54.4248 1592.04 54.1787C1591.92 53.9326 1591.73 53.7422 1591.48 53.6074C1591.23 53.4727 1590.92 53.4053 1590.55 53.4053C1590.2 53.4053 1589.9 53.4639 1589.65 53.5811C1589.4 53.6982 1589.2 53.8564 1589.06 54.0557C1588.92 54.2549 1588.85 54.4805 1588.85 54.7324H1586.74C1586.74 54.3574 1586.83 53.9941 1587.01 53.6426C1587.2 53.291 1587.46 52.9775 1587.81 52.7021C1588.15 52.4268 1588.56 52.21 1589.04 52.0518C1589.53 51.8936 1590.06 51.8145 1590.66 51.8145C1591.38 51.8145 1592.01 51.9346 1592.56 52.1748C1593.12 52.415 1593.55 52.7783 1593.87 53.2646C1594.19 53.7451 1594.35 54.3486 1594.35 55.0752V59.3027C1594.35 59.7363 1594.38 60.126 1594.44 60.4717C1594.51 60.8115 1594.6 61.1074 1594.71 61.3594V61.5H1592.54C1592.44 61.2715 1592.36 60.9814 1592.31 60.6299C1592.25 60.2725 1592.23 59.9268 1592.23 59.5928ZM1592.53 55.7168L1592.55 57.0264H1591.03C1590.64 57.0264 1590.29 57.0645 1589.99 57.1406C1589.7 57.2109 1589.45 57.3164 1589.25 57.457C1589.05 57.5977 1588.9 57.7676 1588.8 57.9668C1588.7 58.166 1588.65 58.3916 1588.65 58.6436C1588.65 58.8955 1588.71 59.127 1588.83 59.3379C1588.94 59.543 1589.11 59.7041 1589.33 59.8213C1589.56 59.9385 1589.84 59.9971 1590.16 59.9971C1590.59 59.9971 1590.97 59.9092 1591.29 59.7334C1591.62 59.5518 1591.88 59.332 1592.07 59.0742C1592.26 58.8105 1592.36 58.5615 1592.37 58.3271L1593.05 59.2676C1592.98 59.5078 1592.86 59.7656 1592.69 60.041C1592.52 60.3164 1592.3 60.5801 1592.02 60.832C1591.75 61.0781 1591.43 61.2803 1591.05 61.4385C1590.67 61.5967 1590.24 61.6758 1589.75 61.6758C1589.13 61.6758 1588.57 61.5527 1588.09 61.3066C1587.6 61.0547 1587.22 60.7178 1586.94 60.2959C1586.67 59.8682 1586.53 59.3848 1586.53 58.8457C1586.53 58.3418 1586.62 57.8965 1586.81 57.5098C1587.01 57.1172 1587.29 56.7891 1587.66 56.5254C1588.03 56.2617 1588.49 56.0625 1589.03 55.9277C1589.57 55.7871 1590.18 55.7168 1590.87 55.7168H1592.53ZM1598.69 53.9238V61.5H1596.57V51.9902H1598.56L1598.69 53.9238ZM1598.34 56.3936L1597.62 56.3848C1597.62 55.7285 1597.71 55.1221 1597.87 54.5654C1598.03 54.0088 1598.27 53.5254 1598.59 53.1152C1598.91 52.6992 1599.3 52.3799 1599.77 52.1572C1600.24 51.9287 1600.79 51.8145 1601.41 51.8145C1601.84 51.8145 1602.24 51.8789 1602.6 52.0078C1602.96 52.1309 1603.27 52.3271 1603.54 52.5967C1603.81 52.8662 1604.01 53.2119 1604.15 53.6338C1604.3 54.0557 1604.37 54.5654 1604.37 55.1631V61.5H1602.25V55.3477C1602.25 54.8848 1602.18 54.5215 1602.04 54.2578C1601.91 53.9941 1601.71 53.8066 1601.46 53.6953C1601.2 53.5781 1600.9 53.5195 1600.55 53.5195C1600.15 53.5195 1599.81 53.5957 1599.53 53.748C1599.25 53.9004 1599.03 54.1084 1598.85 54.3721C1598.68 54.6357 1598.55 54.9404 1598.47 55.2861C1598.38 55.6318 1598.34 56.001 1598.34 56.3936ZM1604.24 55.8311L1603.25 56.0508C1603.25 55.4766 1603.33 54.9346 1603.49 54.4248C1603.65 53.9092 1603.89 53.458 1604.2 53.0713C1604.51 52.6787 1604.9 52.3711 1605.37 52.1484C1605.83 51.9258 1606.36 51.8145 1606.96 51.8145C1607.44 51.8145 1607.88 51.8818 1608.26 52.0166C1608.64 52.1455 1608.97 52.3506 1609.24 52.6318C1609.51 52.9131 1609.72 53.2793 1609.86 53.7305C1610 54.1758 1610.07 54.7148 1610.07 55.3477V61.5H1607.94V55.3389C1607.94 54.8584 1607.87 54.4863 1607.73 54.2227C1607.6 53.959 1607.4 53.7773 1607.15 53.6777C1606.9 53.5723 1606.6 53.5195 1606.25 53.5195C1605.92 53.5195 1605.63 53.5811 1605.38 53.7041C1605.13 53.8213 1604.92 53.9883 1604.75 54.2051C1604.58 54.416 1604.45 54.6592 1604.36 54.9346C1604.28 55.21 1604.24 55.5088 1604.24 55.8311ZM1618.85 53.9238V61.5H1616.73V51.9902H1618.73L1618.85 53.9238ZM1618.51 56.3936L1617.79 56.3848C1617.79 55.7285 1617.87 55.1221 1618.03 54.5654C1618.2 54.0088 1618.44 53.5254 1618.75 53.1152C1619.07 52.6992 1619.46 52.3799 1619.93 52.1572C1620.4 51.9287 1620.95 51.8145 1621.57 51.8145C1622.01 51.8145 1622.4 51.8789 1622.76 52.0078C1623.12 52.1309 1623.44 52.3271 1623.7 52.5967C1623.97 52.8662 1624.17 53.2119 1624.32 53.6338C1624.46 54.0557 1624.54 54.5654 1624.54 55.1631V61.5H1622.42V55.3477C1622.42 54.8848 1622.35 54.5215 1622.21 54.2578C1622.07 53.9941 1621.88 53.8066 1621.62 53.6953C1621.37 53.5781 1621.06 53.5195 1620.71 53.5195C1620.31 53.5195 1619.97 53.5957 1619.69 53.748C1619.42 53.9004 1619.19 54.1084 1619.02 54.3721C1618.84 54.6357 1618.71 54.9404 1618.63 55.2861C1618.55 55.6318 1618.51 56.001 1618.51 56.3936ZM1624.4 55.8311L1623.41 56.0508C1623.41 55.4766 1623.49 54.9346 1623.65 54.4248C1623.81 53.9092 1624.05 53.458 1624.36 53.0713C1624.68 52.6787 1625.07 52.3711 1625.53 52.1484C1625.99 51.9258 1626.52 51.8145 1627.12 51.8145C1627.61 51.8145 1628.04 51.8818 1628.42 52.0166C1628.81 52.1455 1629.13 52.3506 1629.4 52.6318C1629.67 52.9131 1629.88 53.2793 1630.02 53.7305C1630.16 54.1758 1630.23 54.7148 1630.23 55.3477V61.5H1628.1V55.3389C1628.1 54.8584 1628.03 54.4863 1627.89 54.2227C1627.76 53.959 1627.56 53.7773 1627.31 53.6777C1627.06 53.5723 1626.76 53.5195 1626.41 53.5195C1626.08 53.5195 1625.79 53.5811 1625.54 53.7041C1625.29 53.8213 1625.08 53.9883 1624.91 54.2051C1624.74 54.416 1624.61 54.6592 1624.53 54.9346C1624.44 55.21 1624.4 55.5088 1624.4 55.8311ZM1636.6 61.6758C1635.9 61.6758 1635.26 61.5615 1634.7 61.333C1634.13 61.0986 1633.65 60.7734 1633.25 60.3574C1632.86 59.9414 1632.56 59.4521 1632.35 58.8896C1632.14 58.3271 1632.03 57.7207 1632.03 57.0703V56.7188C1632.03 55.9746 1632.14 55.3008 1632.36 54.6973C1632.57 54.0938 1632.88 53.5781 1633.26 53.1504C1633.65 52.7168 1634.11 52.3857 1634.63 52.1572C1635.16 51.9287 1635.73 51.8145 1636.35 51.8145C1637.03 51.8145 1637.62 51.9287 1638.13 52.1572C1638.64 52.3857 1639.06 52.708 1639.4 53.124C1639.74 53.5342 1639.99 54.0234 1640.15 54.5918C1640.32 55.1602 1640.41 55.7871 1640.41 56.4727V57.3779H1633.06V55.8574H1638.32V55.6904C1638.3 55.3096 1638.23 54.9521 1638.09 54.6182C1637.95 54.2842 1637.75 54.0146 1637.46 53.8096C1637.18 53.6045 1636.81 53.502 1636.34 53.502C1635.99 53.502 1635.67 53.5781 1635.4 53.7305C1635.13 53.877 1634.9 54.0908 1634.72 54.3721C1634.54 54.6533 1634.4 54.9932 1634.3 55.3916C1634.21 55.7842 1634.16 56.2266 1634.16 56.7188V57.0703C1634.16 57.4863 1634.21 57.873 1634.33 58.2305C1634.44 58.582 1634.61 58.8896 1634.84 59.1533C1635.06 59.417 1635.33 59.625 1635.64 59.7773C1635.96 59.9238 1636.32 59.9971 1636.73 59.9971C1637.24 59.9971 1637.69 59.8945 1638.09 59.6895C1638.49 59.4844 1638.83 59.1943 1639.12 58.8193L1640.24 59.9004C1640.04 60.1992 1639.77 60.4863 1639.44 60.7617C1639.11 61.0312 1638.71 61.251 1638.24 61.4209C1637.77 61.5908 1637.22 61.6758 1636.6 61.6758ZM1644.18 53.9238V61.5H1642.06V51.9902H1644.06L1644.18 53.9238ZM1643.84 56.3936L1643.12 56.3848C1643.12 55.7285 1643.2 55.1221 1643.36 54.5654C1643.53 54.0088 1643.77 53.5254 1644.08 53.1152C1644.4 52.6992 1644.79 52.3799 1645.26 52.1572C1645.73 51.9287 1646.28 51.8145 1646.9 51.8145C1647.34 51.8145 1647.73 51.8789 1648.09 52.0078C1648.45 52.1309 1648.77 52.3271 1649.03 52.5967C1649.3 52.8662 1649.5 53.2119 1649.65 53.6338C1649.79 54.0557 1649.87 54.5654 1649.87 55.1631V61.5H1647.75V55.3477C1647.75 54.8848 1647.68 54.5215 1647.54 54.2578C1647.4 53.9941 1647.21 53.8066 1646.95 53.6953C1646.7 53.5781 1646.39 53.5195 1646.04 53.5195C1645.64 53.5195 1645.3 53.5957 1645.02 53.748C1644.75 53.9004 1644.52 54.1084 1644.35 54.3721C1644.17 54.6357 1644.04 54.9404 1643.96 55.2861C1643.88 55.6318 1643.84 56.001 1643.84 56.3936ZM1649.73 55.8311L1648.74 56.0508C1648.74 55.4766 1648.82 54.9346 1648.98 54.4248C1649.14 53.9092 1649.38 53.458 1649.69 53.0713C1650.01 52.6787 1650.4 52.3711 1650.86 52.1484C1651.32 51.9258 1651.85 51.8145 1652.45 51.8145C1652.94 51.8145 1653.37 51.8818 1653.75 52.0166C1654.14 52.1455 1654.46 52.3506 1654.73 52.6318C1655 52.9131 1655.21 53.2793 1655.35 53.7305C1655.49 54.1758 1655.56 54.7148 1655.56 55.3477V61.5H1653.43V55.3389C1653.43 54.8584 1653.36 54.4863 1653.22 54.2227C1653.09 53.959 1652.89 53.7773 1652.64 53.6777C1652.39 53.5723 1652.09 53.5195 1651.74 53.5195C1651.41 53.5195 1651.12 53.5811 1650.87 53.7041C1650.62 53.8213 1650.41 53.9883 1650.24 54.2051C1650.07 54.416 1649.94 54.6592 1649.86 54.9346C1649.77 55.21 1649.73 55.5088 1649.73 55.8311ZM1657.75 48H1659.87V59.4697L1659.67 61.5H1657.75V48ZM1666.07 56.6572V56.8418C1666.07 57.5449 1665.99 58.1924 1665.83 58.7842C1665.68 59.3701 1665.45 59.8799 1665.13 60.3135C1664.82 60.7471 1664.43 61.084 1663.97 61.3242C1663.51 61.5586 1662.98 61.6758 1662.38 61.6758C1661.79 61.6758 1661.27 61.5645 1660.83 61.3418C1660.39 61.1191 1660.03 60.8027 1659.73 60.3926C1659.43 59.9824 1659.2 59.4932 1659.01 58.9248C1658.83 58.3564 1658.7 57.7295 1658.63 57.0439V56.4551C1658.7 55.7637 1658.83 55.1367 1659.01 54.5742C1659.2 54.0059 1659.43 53.5166 1659.73 53.1064C1660.03 52.6904 1660.39 52.3711 1660.83 52.1484C1661.26 51.9258 1661.78 51.8145 1662.36 51.8145C1662.97 51.8145 1663.51 51.9316 1663.97 52.166C1664.44 52.4004 1664.83 52.7344 1665.14 53.168C1665.45 53.5957 1665.68 54.1055 1665.83 54.6973C1665.99 55.2891 1666.07 55.9424 1666.07 56.6572ZM1663.95 56.8418V56.6572C1663.95 56.2295 1663.92 55.8281 1663.85 55.4531C1663.78 55.0723 1663.66 54.7383 1663.5 54.4512C1663.34 54.1641 1663.12 53.9385 1662.85 53.7744C1662.58 53.6045 1662.24 53.5195 1661.84 53.5195C1661.46 53.5195 1661.14 53.584 1660.87 53.7129C1660.6 53.8418 1660.37 54.0176 1660.19 54.2402C1660.01 54.4629 1659.87 54.7207 1659.76 55.0137C1659.66 55.3066 1659.59 55.623 1659.56 55.9629V57.5537C1659.61 57.9932 1659.72 58.3975 1659.89 58.7666C1660.07 59.1299 1660.32 59.4229 1660.63 59.6455C1660.95 59.8623 1661.36 59.9707 1661.85 59.9707C1662.25 59.9707 1662.58 59.8916 1662.85 59.7334C1663.12 59.5752 1663.33 59.3555 1663.49 59.0742C1663.65 58.7871 1663.77 58.4531 1663.84 58.0723C1663.92 57.6914 1663.95 57.2812 1663.95 56.8418ZM1672.06 61.6758C1671.35 61.6758 1670.72 61.5615 1670.15 61.333C1669.59 61.0986 1669.11 60.7734 1668.71 60.3574C1668.32 59.9414 1668.01 59.4521 1667.8 58.8896C1667.59 58.3271 1667.49 57.7207 1667.49 57.0703V56.7188C1667.49 55.9746 1667.6 55.3008 1667.81 54.6973C1668.03 54.0938 1668.33 53.5781 1668.72 53.1504C1669.1 52.7168 1669.56 52.3857 1670.09 52.1572C1670.62 51.9287 1671.19 51.8145 1671.8 51.8145C1672.48 51.8145 1673.08 51.9287 1673.59 52.1572C1674.1 52.3857 1674.52 52.708 1674.85 53.124C1675.19 53.5342 1675.44 54.0234 1675.61 54.5918C1675.78 55.1602 1675.86 55.7871 1675.86 56.4727V57.3779H1668.52V55.8574H1673.77V55.6904C1673.76 55.3096 1673.68 54.9521 1673.54 54.6182C1673.41 54.2842 1673.2 54.0146 1672.92 53.8096C1672.64 53.6045 1672.26 53.502 1671.79 53.502C1671.44 53.502 1671.13 53.5781 1670.85 53.7305C1670.58 53.877 1670.36 54.0908 1670.18 54.3721C1670 54.6533 1669.85 54.9932 1669.75 55.3916C1669.66 55.7842 1669.61 56.2266 1669.61 56.7188V57.0703C1669.61 57.4863 1669.67 57.873 1669.78 58.2305C1669.9 58.582 1670.07 58.8896 1670.29 59.1533C1670.51 59.417 1670.78 59.625 1671.1 59.7773C1671.42 59.9238 1671.78 59.9971 1672.18 59.9971C1672.69 59.9971 1673.14 59.8945 1673.54 59.6895C1673.94 59.4844 1674.29 59.1943 1674.58 58.8193L1675.7 59.9004C1675.49 60.1992 1675.22 60.4863 1674.9 60.7617C1674.57 61.0312 1674.17 61.251 1673.69 61.4209C1673.22 61.5908 1672.68 61.6758 1672.06 61.6758ZM1679.64 53.8008V61.5H1677.52V51.9902H1679.55L1679.64 53.8008ZM1682.55 51.9287L1682.53 53.8975C1682.41 53.874 1682.26 53.8564 1682.11 53.8447C1681.97 53.833 1681.82 53.8271 1681.67 53.8271C1681.31 53.8271 1680.99 53.8799 1680.71 53.9854C1680.44 54.085 1680.21 54.2314 1680.02 54.4248C1679.84 54.6123 1679.7 54.8408 1679.6 55.1104C1679.5 55.3799 1679.44 55.6816 1679.42 56.0156L1678.94 56.0508C1678.94 55.4531 1679 54.8994 1679.12 54.3896C1679.23 53.8799 1679.41 53.4316 1679.64 53.0449C1679.88 52.6582 1680.18 52.3564 1680.54 52.1396C1680.9 51.9229 1681.32 51.8145 1681.8 51.8145C1681.92 51.8145 1682.06 51.8262 1682.21 51.8496C1682.36 51.873 1682.48 51.8994 1682.55 51.9287Z" fill="#5384ED"/>
<rect x="1535.5" y="30" width="178" height="50" rx="25" stroke="#5384ED" stroke-width="3"/>
<defs>
<linearGradient id="paint0_linear_3267_10951" x1="283" y1="10.0898" x2="448.688" y2="166.015" gradientUnits="userSpaceOnUse">
<stop stop-color="#5D85EC"/>
<stop offset="0.533854" stop-color="#9DBEFF"/>
<stop offset="1" stop-color="#5D87D8"/>
</linearGradient>
</defs>
</svg>
