<svg width="1971" height="108" viewBox="0 0 1971 108" fill="none" xmlns="http://www.w3.org/2000/svg">
<rect x="31.5" y="30" width="107" height="50" rx="25" fill="#F6F9FE"/>
<path d="M68.5654 48.7031V61.5H66.377V48.7031H68.5654ZM72.582 48.7031V50.4609H62.3955V48.7031H72.582ZM77.4072 61.6758C76.7041 61.6758 76.0684 61.5615 75.5 61.333C74.9375 61.0986 74.457 60.7734 74.0586 60.3574C73.666 59.9414 73.3643 59.4521 73.1533 58.8896C72.9424 58.3271 72.8369 57.7207 72.8369 57.0703V56.7188C72.8369 55.9746 72.9453 55.3008 73.1621 54.6973C73.3789 54.0938 73.6807 53.5781 74.0674 53.1504C74.4541 52.7168 74.9111 52.3857 75.4385 52.1572C75.9658 51.9287 76.5371 51.8145 77.1523 51.8145C77.832 51.8145 78.4268 51.9287 78.9365 52.1572C79.4463 52.3857 79.8682 52.708 80.2021 53.124C80.542 53.5342 80.7939 54.0234 80.958 54.5918C81.1279 55.1602 81.2129 55.7871 81.2129 56.4727V57.3779H73.8652V55.8574H79.1211V55.6904C79.1094 55.3096 79.0332 54.9521 78.8926 54.6182C78.7578 54.2842 78.5498 54.0146 78.2686 53.8096C77.9873 53.6045 77.6123 53.502 77.1436 53.502C76.792 53.502 76.4785 53.5781 76.2031 53.7305C75.9336 53.877 75.708 54.0908 75.5264 54.3721C75.3447 54.6533 75.2041 54.9932 75.1045 55.3916C75.0107 55.7842 74.9639 56.2266 74.9639 56.7188V57.0703C74.9639 57.4863 75.0195 57.873 75.1309 58.2305C75.248 58.582 75.418 58.8896 75.6406 59.1533C75.8633 59.417 76.1328 59.625 76.4492 59.7773C76.7656 59.9238 77.126 59.9971 77.5303 59.9971C78.04 59.9971 78.4941 59.8945 78.8926 59.6895C79.291 59.4844 79.6367 59.1943 79.9297 58.8193L81.0459 59.9004C80.8408 60.1992 80.5742 60.4863 80.2461 60.7617C79.918 61.0312 79.5166 61.251 79.042 61.4209C78.5732 61.5908 78.0283 61.6758 77.4072 61.6758ZM88.2266 59.5928V55.0576C88.2266 54.7178 88.165 54.4248 88.042 54.1787C87.9189 53.9326 87.7314 53.7422 87.4795 53.6074C87.2334 53.4727 86.9229 53.4053 86.5479 53.4053C86.2021 53.4053 85.9033 53.4639 85.6514 53.5811C85.3994 53.6982 85.2031 53.8564 85.0625 54.0557C84.9219 54.2549 84.8516 54.4805 84.8516 54.7324H82.7422C82.7422 54.3574 82.833 53.9941 83.0146 53.6426C83.1963 53.291 83.46 52.9775 83.8057 52.7021C84.1514 52.4268 84.5645 52.21 85.0449 52.0518C85.5254 51.8936 86.0645 51.8145 86.6621 51.8145C87.377 51.8145 88.0098 51.9346 88.5605 52.1748C89.1172 52.415 89.5537 52.7783 89.8701 53.2646C90.1924 53.7451 90.3535 54.3486 90.3535 55.0752V59.3027C90.3535 59.7363 90.3828 60.126 90.4414 60.4717C90.5059 60.8115 90.5967 61.1074 90.7139 61.3594V61.5H88.543C88.4434 61.2715 88.3643 60.9814 88.3057 60.6299C88.2529 60.2725 88.2266 59.9268 88.2266 59.5928ZM88.5342 55.7168L88.5518 57.0264H87.0312C86.6387 57.0264 86.293 57.0645 85.9941 57.1406C85.6953 57.2109 85.4463 57.3164 85.2471 57.457C85.0479 57.5977 84.8984 57.7676 84.7988 57.9668C84.6992 58.166 84.6494 58.3916 84.6494 58.6436C84.6494 58.8955 84.708 59.127 84.8252 59.3379C84.9424 59.543 85.1123 59.7041 85.335 59.8213C85.5635 59.9385 85.8389 59.9971 86.1611 59.9971C86.5947 59.9971 86.9727 59.9092 87.2949 59.7334C87.623 59.5518 87.8809 59.332 88.0684 59.0742C88.2559 58.8105 88.3555 58.5615 88.3672 58.3271L89.0527 59.2676C88.9824 59.5078 88.8623 59.7656 88.6924 60.041C88.5225 60.3164 88.2998 60.5801 88.0244 60.832C87.7549 61.0781 87.4297 61.2803 87.0488 61.4385C86.6738 61.5967 86.2402 61.6758 85.748 61.6758C85.127 61.6758 84.5732 61.5527 84.0869 61.3066C83.6006 61.0547 83.2197 60.7178 82.9443 60.2959C82.6689 59.8682 82.5312 59.3848 82.5312 58.8457C82.5312 58.3418 82.625 57.8965 82.8125 57.5098C83.0059 57.1172 83.2871 56.7891 83.6562 56.5254C84.0312 56.2617 84.4883 56.0625 85.0273 55.9277C85.5664 55.7871 86.1816 55.7168 86.873 55.7168H88.5342ZM94.6865 53.9238V61.5H92.5684V51.9902H94.5635L94.6865 53.9238ZM94.3438 56.3936L93.623 56.3848C93.623 55.7285 93.7051 55.1221 93.8691 54.5654C94.0332 54.0088 94.2734 53.5254 94.5898 53.1152C94.9062 52.6992 95.2988 52.3799 95.7676 52.1572C96.2422 51.9287 96.79 51.8145 97.4111 51.8145C97.8447 51.8145 98.2402 51.8789 98.5977 52.0078C98.9609 52.1309 99.2744 52.3271 99.5381 52.5967C99.8076 52.8662 100.013 53.2119 100.153 53.6338C100.3 54.0557 100.373 54.5654 100.373 55.1631V61.5H98.2549V55.3477C98.2549 54.8848 98.1846 54.5215 98.0439 54.2578C97.9092 53.9941 97.7129 53.8066 97.4551 53.6953C97.2031 53.5781 96.9014 53.5195 96.5498 53.5195C96.1514 53.5195 95.8115 53.5957 95.5303 53.748C95.2549 53.9004 95.0293 54.1084 94.8535 54.3721C94.6777 54.6357 94.5488 54.9404 94.4668 55.2861C94.3848 55.6318 94.3438 56.001 94.3438 56.3936ZM100.241 55.8311L99.248 56.0508C99.248 55.4766 99.3271 54.9346 99.4854 54.4248C99.6494 53.9092 99.8867 53.458 100.197 53.0713C100.514 52.6787 100.903 52.3711 101.366 52.1484C101.829 51.9258 102.359 51.8145 102.957 51.8145C103.443 51.8145 103.877 51.8818 104.258 52.0166C104.645 52.1455 104.973 52.3506 105.242 52.6318C105.512 52.9131 105.717 53.2793 105.857 53.7305C105.998 54.1758 106.068 54.7148 106.068 55.3477V61.5H103.941V55.3389C103.941 54.8584 103.871 54.4863 103.73 54.2227C103.596 53.959 103.402 53.7773 103.15 53.6777C102.898 53.5723 102.597 53.5195 102.245 53.5195C101.917 53.5195 101.627 53.5811 101.375 53.7041C101.129 53.8213 100.921 53.9883 100.751 54.2051C100.581 54.416 100.452 54.6592 100.364 54.9346C100.282 55.21 100.241 55.5088 100.241 55.8311Z" fill="#5384ED"/>
<rect x="31.5" y="30" width="107" height="50" rx="25" stroke="#5384ED" stroke-width="3"/>
<path d="M212 55L202 49.2265L202 60.7735L212 55ZM145.333 55C145.333 52.0545 142.946 49.6666 140 49.6666C137.054 49.6666 134.667 52.0545 134.667 55C134.667 57.9455 137.054 60.3333 140 60.3333C142.946 60.3333 145.333 57.9455 145.333 55ZM203 54L140 54L140 56L203 56L203 54Z" fill="#5384ED"/>
<path d="M320.391 15.4975C323.045 14.5303 325.955 14.5303 328.609 15.4975L421.532 49.3627C426.793 51.2799 426.793 58.7201 421.532 60.6373L328.609 94.5025C325.955 95.4697 323.045 95.4697 320.391 94.5025L227.468 60.6373C222.208 58.7201 222.208 51.2799 227.468 49.3627L320.391 15.4975Z" fill="url(#paint0_linear_3239_10743)" stroke="#E2EDFD" stroke-width="3"/>
<path d="M265.507 49.0039V61.8008H263.09V49.0039H265.507ZM270.218 54.3213V61.8008H267.898V52.291H270.078L270.218 54.3213ZM269.849 56.7031H269.164C269.169 56.0117 269.263 55.3848 269.445 54.8223C269.626 54.2598 269.881 53.7764 270.209 53.3721C270.543 52.9678 270.939 52.6572 271.396 52.4404C271.853 52.2236 272.363 52.1152 272.925 52.1152C273.382 52.1152 273.795 52.1797 274.164 52.3086C274.534 52.4375 274.85 52.6426 275.114 52.9238C275.383 53.2051 275.588 53.5742 275.729 54.0312C275.875 54.4824 275.949 55.0391 275.949 55.7012V61.8008H273.611V55.6836C273.611 55.25 273.546 54.9072 273.417 54.6553C273.294 54.4033 273.113 54.2246 272.873 54.1191C272.638 54.0137 272.348 53.9609 272.002 53.9609C271.645 53.9609 271.331 54.0342 271.062 54.1807C270.798 54.3213 270.576 54.5176 270.394 54.7695C270.218 55.0215 270.083 55.3115 269.99 55.6396C269.896 55.9678 269.849 56.3223 269.849 56.7031ZM281.152 60.043L283.367 52.291H285.792L282.532 61.8008H281.055L281.152 60.043ZM279.535 52.291L281.776 60.0605L281.855 61.8008H280.37L277.1 52.291H279.535ZM289.475 52.291V61.8008H287.146V52.291H289.475ZM286.988 49.8037C286.988 49.458 287.105 49.1709 287.339 48.9424C287.58 48.7139 287.902 48.5996 288.306 48.5996C288.71 48.5996 289.03 48.7139 289.264 48.9424C289.504 49.1709 289.624 49.458 289.624 49.8037C289.624 50.1436 289.504 50.4277 289.264 50.6562C289.03 50.8848 288.71 50.999 288.306 50.999C287.902 50.999 287.58 50.8848 287.339 50.6562C287.105 50.4277 286.988 50.1436 286.988 49.8037ZM296.19 52.291V53.9609H290.741V52.291H296.19ZM292.2 49.9531H294.529V59.0586C294.529 59.3398 294.567 59.5566 294.643 59.709C294.719 59.8613 294.833 59.9639 294.986 60.0166C295.138 60.0693 295.32 60.0957 295.531 60.0957C295.683 60.0957 295.824 60.0869 295.953 60.0693C296.081 60.0518 296.19 60.0342 296.278 60.0166L296.287 61.7568C296.093 61.8213 295.873 61.874 295.627 61.915C295.387 61.9561 295.115 61.9766 294.81 61.9766C294.289 61.9766 293.831 61.8887 293.439 61.7129C293.046 61.5312 292.742 61.2412 292.525 60.8428C292.308 60.4385 292.2 59.9053 292.2 59.2432V49.9531ZM302.008 61.9766C301.288 61.9766 300.64 61.8594 300.066 61.625C299.492 61.3906 299.002 61.0654 298.598 60.6494C298.2 60.2275 297.892 59.7383 297.675 59.1816C297.464 58.6191 297.359 58.0156 297.359 57.3711V57.0195C297.359 56.2871 297.464 55.6221 297.675 55.0244C297.886 54.4209 298.185 53.9023 298.572 53.4687C298.958 53.0352 299.421 52.7012 299.96 52.4668C300.499 52.2324 301.094 52.1152 301.745 52.1152C302.418 52.1152 303.013 52.2295 303.529 52.458C304.044 52.6807 304.475 52.9971 304.821 53.4072C305.166 53.8174 305.427 54.3096 305.603 54.8838C305.779 55.4521 305.867 56.082 305.867 56.7734V57.749H298.414V56.1494H303.581V55.9736C303.57 55.6045 303.499 55.2676 303.371 54.9629C303.242 54.6523 303.042 54.4062 302.773 54.2246C302.503 54.0371 302.155 53.9434 301.727 53.9434C301.381 53.9434 301.08 54.0195 300.822 54.1719C300.57 54.3184 300.359 54.5293 300.189 54.8047C300.025 55.0742 299.902 55.3965 299.82 55.7715C299.738 56.1465 299.697 56.5625 299.697 57.0195V57.3711C299.697 57.7695 299.749 58.1387 299.855 58.4785C299.966 58.8184 300.127 59.1143 300.338 59.3662C300.555 59.6123 300.813 59.8057 301.112 59.9463C301.416 60.0811 301.762 60.1484 302.149 60.1484C302.635 60.1484 303.075 60.0547 303.467 59.8672C303.866 59.6738 304.211 59.3896 304.504 59.0146L305.673 60.2275C305.474 60.5205 305.205 60.8018 304.865 61.0713C304.531 61.3408 304.126 61.5605 303.652 61.7305C303.177 61.8945 302.629 61.9766 302.008 61.9766ZM314.216 54.2422V61.8008H311.896V52.291H314.084L314.216 54.2422ZM313.873 56.7031H313.162C313.162 56.041 313.241 55.4316 313.399 54.875C313.563 54.3184 313.803 53.835 314.12 53.4248C314.436 53.0088 314.826 52.6865 315.289 52.458C315.757 52.2295 316.299 52.1152 316.914 52.1152C317.342 52.1152 317.735 52.1797 318.092 52.3086C318.45 52.4316 318.757 52.6279 319.015 52.8975C319.279 53.1611 319.481 53.5068 319.622 53.9346C319.762 54.3564 319.832 54.8633 319.832 55.4551V61.8008H317.512V55.6924C317.512 55.2471 317.448 54.8984 317.319 54.6465C317.196 54.3945 317.017 54.2187 316.783 54.1191C316.548 54.0137 316.267 53.9609 315.939 53.9609C315.576 53.9609 315.262 54.0342 314.998 54.1807C314.741 54.3213 314.527 54.5176 314.357 54.7695C314.193 55.0215 314.07 55.3115 313.988 55.6396C313.912 55.9678 313.873 56.3223 313.873 56.7031ZM319.657 56.2725L318.699 56.4482C318.705 55.8506 318.787 55.291 318.945 54.7695C319.103 54.2422 319.334 53.7822 319.639 53.3896C319.95 52.9912 320.333 52.6807 320.79 52.458C321.253 52.2295 321.787 52.1152 322.39 52.1152C322.859 52.1152 323.281 52.1826 323.656 52.3174C324.037 52.4463 324.362 52.6543 324.631 52.9414C324.901 53.2227 325.106 53.5889 325.247 54.04C325.393 54.4912 325.466 55.042 325.466 55.6924V61.8008H323.128V55.6836C323.128 55.2207 323.064 54.8662 322.935 54.6201C322.812 54.374 322.633 54.2041 322.399 54.1104C322.164 54.0107 321.889 53.9609 321.573 53.9609C321.25 53.9609 320.969 54.0225 320.729 54.1455C320.495 54.2627 320.295 54.4268 320.131 54.6377C319.973 54.8486 319.853 55.0947 319.771 55.376C319.695 55.6514 319.657 55.9502 319.657 56.2725ZM331.821 61.9766C331.1 61.9766 330.453 61.8594 329.878 61.625C329.304 61.3906 328.815 61.0654 328.411 60.6494C328.012 60.2275 327.705 59.7383 327.488 59.1816C327.277 58.6191 327.171 58.0156 327.171 57.3711V57.0195C327.171 56.2871 327.277 55.6221 327.488 55.0244C327.699 54.4209 327.997 53.9023 328.384 53.4687C328.771 53.0352 329.234 52.7012 329.773 52.4668C330.312 52.2324 330.907 52.1152 331.557 52.1152C332.231 52.1152 332.826 52.2295 333.341 52.458C333.857 52.6807 334.288 52.9971 334.633 53.4072C334.979 53.8174 335.24 54.3096 335.415 54.8838C335.591 55.4521 335.679 56.082 335.679 56.7734V57.749H328.226V56.1494H333.394V55.9736C333.382 55.6045 333.312 55.2676 333.183 54.9629C333.054 54.6523 332.855 54.4062 332.585 54.2246C332.316 54.0371 331.967 53.9434 331.539 53.9434C331.194 53.9434 330.892 54.0195 330.634 54.1719C330.382 54.3184 330.171 54.5293 330.001 54.8047C329.837 55.0742 329.714 55.3965 329.632 55.7715C329.55 56.1465 329.509 56.5625 329.509 57.0195V57.3711C329.509 57.7695 329.562 58.1387 329.667 58.4785C329.779 58.8184 329.94 59.1143 330.151 59.3662C330.368 59.6123 330.625 59.8057 330.924 59.9463C331.229 60.0811 331.575 60.1484 331.961 60.1484C332.448 60.1484 332.887 60.0547 333.28 59.8672C333.678 59.6738 334.024 59.3896 334.317 59.0146L335.486 60.2275C335.287 60.5205 335.017 60.8018 334.677 61.0713C334.343 61.3408 333.939 61.5605 333.464 61.7305C332.99 61.8945 332.442 61.9766 331.821 61.9766ZM339.546 54.2422V61.8008H337.226V52.291H339.414L339.546 54.2422ZM339.204 56.7031H338.492C338.492 56.041 338.571 55.4316 338.729 54.875C338.893 54.3184 339.133 53.835 339.45 53.4248C339.766 53.0088 340.156 52.6865 340.619 52.458C341.087 52.2295 341.629 52.1152 342.245 52.1152C342.672 52.1152 343.065 52.1797 343.422 52.3086C343.78 52.4316 344.087 52.6279 344.345 52.8975C344.609 53.1611 344.811 53.5068 344.952 53.9346C345.092 54.3564 345.163 54.8633 345.163 55.4551V61.8008H342.842V55.6924C342.842 55.2471 342.778 54.8984 342.649 54.6465C342.526 54.3945 342.347 54.2187 342.113 54.1191C341.878 54.0137 341.597 53.9609 341.269 53.9609C340.906 53.9609 340.592 54.0342 340.329 54.1807C340.071 54.3213 339.857 54.5176 339.687 54.7695C339.523 55.0215 339.4 55.3115 339.318 55.6396C339.242 55.9678 339.204 56.3223 339.204 56.7031ZM344.987 56.2725L344.029 56.4482C344.035 55.8506 344.117 55.291 344.275 54.7695C344.433 54.2422 344.664 53.7822 344.969 53.3896C345.28 52.9912 345.664 52.6807 346.121 52.458C346.583 52.2295 347.117 52.1152 347.72 52.1152C348.189 52.1152 348.611 52.1826 348.986 52.3174C349.367 52.4463 349.692 52.6543 349.961 52.9414C350.231 53.2227 350.436 53.5889 350.577 54.04C350.723 54.4912 350.796 55.042 350.796 55.6924V61.8008H348.458V55.6836C348.458 55.2207 348.394 54.8662 348.265 54.6201C348.142 54.374 347.963 54.2041 347.729 54.1104C347.495 54.0107 347.219 53.9609 346.903 53.9609C346.581 53.9609 346.299 54.0225 346.059 54.1455C345.825 54.2627 345.625 54.4268 345.461 54.6377C345.303 54.8486 345.183 55.0947 345.101 55.376C345.025 55.6514 344.987 55.9502 344.987 56.2725ZM352.871 48.3008H355.2V59.7002L354.971 61.8008H352.871V48.3008ZM361.317 56.9492V57.1338C361.317 57.8428 361.238 58.4932 361.08 59.085C360.927 59.6768 360.696 60.1895 360.385 60.623C360.075 61.0508 359.688 61.3848 359.225 61.625C358.768 61.8594 358.232 61.9766 357.617 61.9766C357.031 61.9766 356.521 61.8623 356.087 61.6338C355.66 61.4053 355.299 61.083 355.006 60.667C354.713 60.2451 354.479 59.75 354.303 59.1816C354.127 58.6074 353.996 57.9805 353.908 57.3008V56.7998C353.996 56.1143 354.127 55.4873 354.303 54.9189C354.479 54.3506 354.713 53.8555 355.006 53.4336C355.299 53.0117 355.66 52.6865 356.087 52.458C356.515 52.2295 357.019 52.1152 357.599 52.1152C358.22 52.1152 358.762 52.2354 359.225 52.4756C359.694 52.71 360.08 53.0439 360.385 53.4775C360.696 53.9053 360.927 54.415 361.08 55.0068C361.238 55.5928 361.317 56.2402 361.317 56.9492ZM358.988 57.1338V56.9492C358.988 56.5449 358.955 56.1641 358.891 55.8066C358.827 55.4434 358.721 55.124 358.575 54.8486C358.428 54.5732 358.229 54.3564 357.977 54.1982C357.725 54.04 357.409 53.9609 357.028 53.9609C356.664 53.9609 356.354 54.0225 356.096 54.1455C355.844 54.2686 355.633 54.4385 355.463 54.6553C355.299 54.8721 355.17 55.127 355.077 55.4199C354.989 55.7129 354.93 56.0293 354.901 56.3691V57.7402C354.942 58.1914 355.039 58.5986 355.191 58.9619C355.343 59.3193 355.569 59.6035 355.868 59.8145C356.172 60.0254 356.565 60.1309 357.045 60.1309C357.42 60.1309 357.734 60.0576 357.986 59.9111C358.238 59.7588 358.437 59.5479 358.583 59.2783C358.73 59.0029 358.832 58.6836 358.891 58.3203C358.955 57.957 358.988 57.5615 358.988 57.1338ZM367.276 61.9766C366.555 61.9766 365.908 61.8594 365.333 61.625C364.759 61.3906 364.27 61.0654 363.866 60.6494C363.467 60.2275 363.16 59.7383 362.943 59.1816C362.732 58.6191 362.626 58.0156 362.626 57.3711V57.0195C362.626 56.2871 362.732 55.6221 362.943 55.0244C363.154 54.4209 363.453 53.9023 363.839 53.4687C364.226 53.0352 364.689 52.7012 365.228 52.4668C365.767 52.2324 366.362 52.1152 367.012 52.1152C367.686 52.1152 368.281 52.2295 368.796 52.458C369.312 52.6807 369.743 52.9971 370.088 53.4072C370.434 53.8174 370.695 54.3096 370.871 54.8838C371.046 55.4521 371.134 56.082 371.134 56.7734V57.749H363.681V56.1494H368.849V55.9736C368.837 55.6045 368.767 55.2676 368.638 54.9629C368.509 54.6523 368.31 54.4062 368.04 54.2246C367.771 54.0371 367.422 53.9434 366.995 53.9434C366.649 53.9434 366.347 54.0195 366.089 54.1719C365.837 54.3184 365.626 54.5293 365.456 54.8047C365.292 55.0742 365.169 55.3965 365.087 55.7715C365.005 56.1465 364.964 56.5625 364.964 57.0195V57.3711C364.964 57.7695 365.017 58.1387 365.122 58.4785C365.234 58.8184 365.395 59.1143 365.606 59.3662C365.823 59.6123 366.08 59.8057 366.379 59.9463C366.684 60.0811 367.03 60.1484 367.416 60.1484C367.903 60.1484 368.342 60.0547 368.735 59.8672C369.133 59.6738 369.479 59.3896 369.772 59.0146L370.941 60.2275C370.742 60.5205 370.472 60.8018 370.132 61.0713C369.798 61.3408 369.394 61.5605 368.919 61.7305C368.445 61.8945 367.897 61.9766 367.276 61.9766ZM375.01 54.2334V61.8008H372.69V52.291H374.887L375.01 54.2334ZM377.902 52.2295L377.867 54.3916C377.738 54.3682 377.591 54.3506 377.427 54.3389C377.269 54.3271 377.12 54.3213 376.979 54.3213C376.622 54.3213 376.308 54.3711 376.039 54.4707C375.769 54.5645 375.543 54.7021 375.362 54.8838C375.186 55.0654 375.051 55.2881 374.957 55.5518C374.864 55.8096 374.811 56.1025 374.799 56.4307L374.298 56.3691C374.298 55.7656 374.36 55.2061 374.483 54.6904C374.606 54.1748 374.785 53.7236 375.019 53.3369C375.253 52.9502 375.546 52.6514 375.898 52.4404C376.255 52.2236 376.665 52.1152 377.128 52.1152C377.257 52.1152 377.395 52.127 377.541 52.1504C377.694 52.168 377.814 52.1943 377.902 52.2295ZM383.307 57.96H381.206C381.212 57.4268 381.256 56.9697 381.338 56.5889C381.426 56.208 381.57 55.8652 381.769 55.5605C381.968 55.25 382.238 54.9336 382.578 54.6113C382.847 54.3594 383.087 54.1221 383.298 53.8994C383.515 53.6709 383.685 53.4336 383.808 53.1875C383.931 52.9355 383.993 52.6514 383.993 52.335C383.993 51.9775 383.934 51.6787 383.817 51.4385C383.705 51.1982 383.539 51.0166 383.316 50.8936C383.099 50.7646 382.827 50.7002 382.498 50.7002C382.229 50.7002 381.974 50.7559 381.734 50.8672C381.494 50.9785 381.3 51.1514 381.154 51.3857C381.007 51.6143 380.928 51.9131 380.916 52.2822H378.587C378.605 51.5146 378.787 50.876 379.132 50.3662C379.478 49.8506 379.944 49.4668 380.53 49.2148C381.116 48.957 381.772 48.8281 382.498 48.8281C383.301 48.8281 383.987 48.9629 384.555 49.2324C385.129 49.4961 385.566 49.8828 385.865 50.3926C386.169 50.9023 386.322 51.5176 386.322 52.2383C386.322 52.7539 386.222 53.2168 386.023 53.627C385.824 54.0312 385.56 54.4092 385.232 54.7607C384.904 55.1123 384.549 55.4668 384.168 55.8242C383.834 56.123 383.609 56.4424 383.492 56.7822C383.374 57.1221 383.313 57.5146 383.307 57.96ZM380.987 60.6934C380.987 60.3418 381.104 60.0488 381.338 59.8145C381.579 59.5801 381.901 59.4629 382.305 59.4629C382.709 59.4629 383.029 59.5801 383.263 59.8145C383.503 60.0488 383.623 60.3418 383.623 60.6934C383.623 61.0332 383.503 61.3203 383.263 61.5547C383.029 61.7891 382.709 61.9062 382.305 61.9062C381.901 61.9062 381.579 61.7891 381.338 61.5547C381.104 61.3203 380.987 61.0332 380.987 60.6934Z" fill="white"/>
<path d="M509 55L499 49.2265L499 60.7735L509 55ZM442.333 55C442.333 52.0545 439.946 49.6666 437 49.6666C434.054 49.6666 431.667 52.0545 431.667 55C431.667 57.9455 434.054 60.3333 437 60.3333C439.946 60.3333 442.333 57.9455 442.333 55ZM500 54L437 54L437 56L500 56L500 54Z" fill="#5384ED"/>
<rect x="509" y="32.5" width="246" height="45" rx="8" fill="#E2EDFD"/>
<path d="M569.656 48.7031V61.5H567.45V48.7031H569.656ZM574.288 54.0205V61.5H572.17V51.9902H574.165L574.288 54.0205ZM573.91 56.3936L573.225 56.3848C573.23 55.7109 573.324 55.0928 573.506 54.5303C573.693 53.9678 573.951 53.4844 574.279 53.0801C574.613 52.6758 575.012 52.3652 575.475 52.1484C575.938 51.9258 576.453 51.8145 577.021 51.8145C577.479 51.8145 577.892 51.8789 578.261 52.0078C578.636 52.1309 578.955 52.333 579.219 52.6143C579.488 52.8955 579.693 53.2617 579.834 53.7129C579.975 54.1582 580.045 54.7061 580.045 55.3564V61.5H577.918V55.3477C577.918 54.8906 577.851 54.5303 577.716 54.2666C577.587 53.9971 577.396 53.8066 577.145 53.6953C576.898 53.5781 576.591 53.5195 576.222 53.5195C575.858 53.5195 575.533 53.5957 575.246 53.748C574.959 53.9004 574.716 54.1084 574.517 54.3721C574.323 54.6357 574.174 54.9404 574.068 55.2861C573.963 55.6318 573.91 56.001 573.91 56.3936ZM585.301 59.8213L587.63 51.9902H589.827L586.522 61.5H585.151L585.301 59.8213ZM583.517 51.9902L585.89 59.8564L586.004 61.5H584.633L581.311 51.9902H583.517ZM593.404 51.9902V61.5H591.277V51.9902H593.404ZM591.137 49.4941C591.137 49.1719 591.242 48.9053 591.453 48.6943C591.67 48.4775 591.969 48.3691 592.35 48.3691C592.725 48.3691 593.021 48.4775 593.237 48.6943C593.454 48.9053 593.562 49.1719 593.562 49.4941C593.562 49.8105 593.454 50.0742 593.237 50.2852C593.021 50.4961 592.725 50.6016 592.35 50.6016C591.969 50.6016 591.67 50.4961 591.453 50.2852C591.242 50.0742 591.137 49.8105 591.137 49.4941ZM600.084 51.9902V53.5371H594.723V51.9902H600.084ZM596.27 49.6611H598.388V58.8721C598.388 59.165 598.429 59.3906 598.511 59.5488C598.599 59.7012 598.719 59.8037 598.871 59.8564C599.023 59.9092 599.202 59.9355 599.407 59.9355C599.554 59.9355 599.694 59.9268 599.829 59.9092C599.964 59.8916 600.072 59.874 600.154 59.8564L600.163 61.4736C599.987 61.5264 599.782 61.5732 599.548 61.6143C599.319 61.6553 599.056 61.6758 598.757 61.6758C598.271 61.6758 597.84 61.5908 597.465 61.4209C597.09 61.2451 596.797 60.9609 596.586 60.5684C596.375 60.1758 596.27 59.6543 596.27 59.0039V49.6611ZM605.911 61.6758C605.208 61.6758 604.572 61.5615 604.004 61.333C603.441 61.0986 602.961 60.7734 602.562 60.3574C602.17 59.9414 601.868 59.4521 601.657 58.8896C601.446 58.3271 601.341 57.7207 601.341 57.0703V56.7188C601.341 55.9746 601.449 55.3008 601.666 54.6973C601.883 54.0938 602.185 53.5781 602.571 53.1504C602.958 52.7168 603.415 52.3857 603.942 52.1572C604.47 51.9287 605.041 51.8145 605.656 51.8145C606.336 51.8145 606.931 51.9287 607.44 52.1572C607.95 52.3857 608.372 52.708 608.706 53.124C609.046 53.5342 609.298 54.0234 609.462 54.5918C609.632 55.1602 609.717 55.7871 609.717 56.4727V57.3779H602.369V55.8574H607.625V55.6904C607.613 55.3096 607.537 54.9521 607.396 54.6182C607.262 54.2842 607.054 54.0146 606.772 53.8096C606.491 53.6045 606.116 53.502 605.647 53.502C605.296 53.502 604.982 53.5781 604.707 53.7305C604.438 53.877 604.212 54.0908 604.03 54.3721C603.849 54.6533 603.708 54.9932 603.608 55.3916C603.515 55.7842 603.468 56.2266 603.468 56.7188V57.0703C603.468 57.4863 603.523 57.873 603.635 58.2305C603.752 58.582 603.922 58.8896 604.145 59.1533C604.367 59.417 604.637 59.625 604.953 59.7773C605.27 59.9238 605.63 59.9971 606.034 59.9971C606.544 59.9971 606.998 59.8945 607.396 59.6895C607.795 59.4844 608.141 59.1943 608.434 58.8193L609.55 59.9004C609.345 60.1992 609.078 60.4863 608.75 60.7617C608.422 61.0312 608.021 61.251 607.546 61.4209C607.077 61.5908 606.532 61.6758 605.911 61.6758ZM618.436 59.3906L620.633 51.9902H621.986L621.617 54.2051L619.402 61.5H618.189L618.436 59.3906ZM617.144 51.9902L618.857 59.4258L618.998 61.5H617.645L615.069 51.9902H617.144ZM624.043 59.3379L625.704 51.9902H627.77L625.203 61.5H623.85L624.043 59.3379ZM622.215 51.9902L624.386 59.3027L624.658 61.5H623.445L621.204 54.1963L620.835 51.9902H622.215ZM631.479 51.9902V61.5H629.352V51.9902H631.479ZM629.211 49.4941C629.211 49.1719 629.316 48.9053 629.527 48.6943C629.744 48.4775 630.043 48.3691 630.424 48.3691C630.799 48.3691 631.095 48.4775 631.312 48.6943C631.528 48.9053 631.637 49.1719 631.637 49.4941C631.637 49.8105 631.528 50.0742 631.312 50.2852C631.095 50.4961 630.799 50.6016 630.424 50.6016C630.043 50.6016 629.744 50.4961 629.527 50.2852C629.316 50.0742 629.211 49.8105 629.211 49.4941ZM638.158 51.9902V53.5371H632.797V51.9902H638.158ZM634.344 49.6611H636.462V58.8721C636.462 59.165 636.503 59.3906 636.585 59.5488C636.673 59.7012 636.793 59.8037 636.945 59.8564C637.098 59.9092 637.276 59.9355 637.481 59.9355C637.628 59.9355 637.769 59.9268 637.903 59.9092C638.038 59.8916 638.146 59.874 638.229 59.8564L638.237 61.4736C638.062 61.5264 637.856 61.5732 637.622 61.6143C637.394 61.6553 637.13 61.6758 636.831 61.6758C636.345 61.6758 635.914 61.5908 635.539 61.4209C635.164 61.2451 634.871 60.9609 634.66 60.5684C634.449 60.1758 634.344 59.6543 634.344 59.0039V49.6611ZM641.885 48V61.5H639.775V48H641.885ZM641.516 56.3936L640.83 56.3848C640.836 55.7285 640.927 55.1221 641.103 54.5654C641.284 54.0088 641.536 53.5254 641.858 53.1152C642.187 52.6992 642.579 52.3799 643.036 52.1572C643.493 51.9287 644 51.8145 644.557 51.8145C645.025 51.8145 645.447 51.8789 645.822 52.0078C646.203 52.1367 646.531 52.3447 646.807 52.6318C647.082 52.9131 647.29 53.2822 647.431 53.7393C647.577 54.1904 647.65 54.7412 647.65 55.3916V61.5H645.523V55.374C645.523 54.917 645.456 54.5537 645.321 54.2842C645.192 54.0146 645.002 53.8213 644.75 53.7041C644.498 53.5811 644.19 53.5195 643.827 53.5195C643.446 53.5195 643.109 53.5957 642.816 53.748C642.529 53.9004 642.289 54.1084 642.096 54.3721C641.902 54.6357 641.756 54.9404 641.656 55.2861C641.562 55.6318 641.516 56.001 641.516 56.3936ZM658.47 61.6758C657.767 61.6758 657.131 61.5615 656.562 61.333C656 61.0986 655.52 60.7734 655.121 60.3574C654.729 59.9414 654.427 59.4521 654.216 58.8896C654.005 58.3271 653.899 57.7207 653.899 57.0703V56.7188C653.899 55.9746 654.008 55.3008 654.225 54.6973C654.441 54.0938 654.743 53.5781 655.13 53.1504C655.517 52.7168 655.974 52.3857 656.501 52.1572C657.028 51.9287 657.6 51.8145 658.215 51.8145C658.895 51.8145 659.489 51.9287 659.999 52.1572C660.509 52.3857 660.931 52.708 661.265 53.124C661.604 53.5342 661.856 54.0234 662.021 54.5918C662.19 55.1602 662.275 55.7871 662.275 56.4727V57.3779H654.928V55.8574H660.184V55.6904C660.172 55.3096 660.096 54.9521 659.955 54.6182C659.82 54.2842 659.612 54.0146 659.331 53.8096C659.05 53.6045 658.675 53.502 658.206 53.502C657.854 53.502 657.541 53.5781 657.266 53.7305C656.996 53.877 656.771 54.0908 656.589 54.3721C656.407 54.6533 656.267 54.9932 656.167 55.3916C656.073 55.7842 656.026 56.2266 656.026 56.7188V57.0703C656.026 57.4863 656.082 57.873 656.193 58.2305C656.311 58.582 656.48 58.8896 656.703 59.1533C656.926 59.417 657.195 59.625 657.512 59.7773C657.828 59.9238 658.188 59.9971 658.593 59.9971C659.103 59.9971 659.557 59.8945 659.955 59.6895C660.354 59.4844 660.699 59.1943 660.992 58.8193L662.108 59.9004C661.903 60.1992 661.637 60.4863 661.309 60.7617C660.98 61.0312 660.579 61.251 660.104 61.4209C659.636 61.5908 659.091 61.6758 658.47 61.6758ZM666.046 53.9238V61.5H663.928V51.9902H665.923L666.046 53.9238ZM665.703 56.3936L664.982 56.3848C664.982 55.7285 665.064 55.1221 665.229 54.5654C665.393 54.0088 665.633 53.5254 665.949 53.1152C666.266 52.6992 666.658 52.3799 667.127 52.1572C667.602 51.9287 668.149 51.8145 668.771 51.8145C669.204 51.8145 669.6 51.8789 669.957 52.0078C670.32 52.1309 670.634 52.3271 670.897 52.5967C671.167 52.8662 671.372 53.2119 671.513 53.6338C671.659 54.0557 671.732 54.5654 671.732 55.1631V61.5H669.614V55.3477C669.614 54.8848 669.544 54.5215 669.403 54.2578C669.269 53.9941 669.072 53.8066 668.814 53.6953C668.562 53.5781 668.261 53.5195 667.909 53.5195C667.511 53.5195 667.171 53.5957 666.89 53.748C666.614 53.9004 666.389 54.1084 666.213 54.3721C666.037 54.6357 665.908 54.9404 665.826 55.2861C665.744 55.6318 665.703 56.001 665.703 56.3936ZM671.601 55.8311L670.607 56.0508C670.607 55.4766 670.687 54.9346 670.845 54.4248C671.009 53.9092 671.246 53.458 671.557 53.0713C671.873 52.6787 672.263 52.3711 672.726 52.1484C673.188 51.9258 673.719 51.8145 674.316 51.8145C674.803 51.8145 675.236 51.8818 675.617 52.0166C676.004 52.1455 676.332 52.3506 676.602 52.6318C676.871 52.9131 677.076 53.2793 677.217 53.7305C677.357 54.1758 677.428 54.7148 677.428 55.3477V61.5H675.301V55.3389C675.301 54.8584 675.23 54.4863 675.09 54.2227C674.955 53.959 674.762 53.7773 674.51 53.6777C674.258 53.5723 673.956 53.5195 673.604 53.5195C673.276 53.5195 672.986 53.5811 672.734 53.7041C672.488 53.8213 672.28 53.9883 672.11 54.2051C671.94 54.416 671.812 54.6592 671.724 54.9346C671.642 55.21 671.601 55.5088 671.601 55.8311ZM684.969 59.5928V55.0576C684.969 54.7178 684.907 54.4248 684.784 54.1787C684.661 53.9326 684.474 53.7422 684.222 53.6074C683.976 53.4727 683.665 53.4053 683.29 53.4053C682.944 53.4053 682.646 53.4639 682.394 53.5811C682.142 53.6982 681.945 53.8564 681.805 54.0557C681.664 54.2549 681.594 54.4805 681.594 54.7324H679.484C679.484 54.3574 679.575 53.9941 679.757 53.6426C679.938 53.291 680.202 52.9775 680.548 52.7021C680.894 52.4268 681.307 52.21 681.787 52.0518C682.268 51.8936 682.807 51.8145 683.404 51.8145C684.119 51.8145 684.752 51.9346 685.303 52.1748C685.859 52.415 686.296 52.7783 686.612 53.2646C686.935 53.7451 687.096 54.3486 687.096 55.0752V59.3027C687.096 59.7363 687.125 60.126 687.184 60.4717C687.248 60.8115 687.339 61.1074 687.456 61.3594V61.5H685.285C685.186 61.2715 685.106 60.9814 685.048 60.6299C684.995 60.2725 684.969 59.9268 684.969 59.5928ZM685.276 55.7168L685.294 57.0264H683.773C683.381 57.0264 683.035 57.0645 682.736 57.1406C682.438 57.2109 682.188 57.3164 681.989 57.457C681.79 57.5977 681.641 57.7676 681.541 57.9668C681.441 58.166 681.392 58.3916 681.392 58.6436C681.392 58.8955 681.45 59.127 681.567 59.3379C681.685 59.543 681.854 59.7041 682.077 59.8213C682.306 59.9385 682.581 59.9971 682.903 59.9971C683.337 59.9971 683.715 59.9092 684.037 59.7334C684.365 59.5518 684.623 59.332 684.811 59.0742C684.998 58.8105 685.098 58.5615 685.109 58.3271L685.795 59.2676C685.725 59.5078 685.604 59.7656 685.435 60.041C685.265 60.3164 685.042 60.5801 684.767 60.832C684.497 61.0781 684.172 61.2803 683.791 61.4385C683.416 61.5967 682.982 61.6758 682.49 61.6758C681.869 61.6758 681.315 61.5527 680.829 61.3066C680.343 61.0547 679.962 60.7178 679.687 60.2959C679.411 59.8682 679.273 59.3848 679.273 58.8457C679.273 58.3418 679.367 57.8965 679.555 57.5098C679.748 57.1172 680.029 56.7891 680.398 56.5254C680.773 56.2617 681.23 56.0625 681.77 55.9277C682.309 55.7871 682.924 55.7168 683.615 55.7168H685.276ZM691.578 51.9902V61.5H689.451V51.9902H691.578ZM689.311 49.4941C689.311 49.1719 689.416 48.9053 689.627 48.6943C689.844 48.4775 690.143 48.3691 690.523 48.3691C690.898 48.3691 691.194 48.4775 691.411 48.6943C691.628 48.9053 691.736 49.1719 691.736 49.4941C691.736 49.8105 691.628 50.0742 691.411 50.2852C691.194 50.4961 690.898 50.6016 690.523 50.6016C690.143 50.6016 689.844 50.4961 689.627 50.2852C689.416 50.0742 689.311 49.8105 689.311 49.4941ZM696.166 48V61.5H694.039V48H696.166Z" fill="#5384ED"/>
<path d="M827 55L817 49.2265L817 60.7735L827 55ZM760.333 55C760.333 52.0545 757.946 49.6666 755 49.6666C752.054 49.6666 749.667 52.0545 749.667 55C749.667 57.9455 752.054 60.3333 755 60.3333C757.946 60.3333 760.333 57.9455 760.333 55ZM818 54L755 54L755 56L818 56L818 54Z" fill="#5384ED"/>
<path d="M935.391 15.4975C938.045 14.5303 940.955 14.5303 943.609 15.4975L1036.53 49.3627C1041.79 51.2799 1041.79 58.7201 1036.53 60.6373L943.609 94.5025C940.955 95.4697 938.045 95.4697 935.391 94.5025L842.468 60.6373C837.208 58.7201 837.208 51.2799 842.468 49.3627L935.391 15.4975Z" fill="url(#paint1_linear_3239_10743)" stroke="#E2EDFD" stroke-width="3"/>
<path d="M855.678 50.9463L852.031 61.8008H849.473L854.254 49.0039H855.889L855.678 50.9463ZM858.728 61.8008L855.063 50.9463L854.843 49.0039H856.487L861.294 61.8008H858.728ZM858.561 57.0459V58.9531H851.697V57.0459H858.561ZM868.141 59.7793V48.3008H870.479V61.8008H868.37L868.141 59.7793ZM862.033 57.1602V56.9756C862.033 56.249 862.115 55.5898 862.279 54.998C862.449 54.4004 862.695 53.8877 863.017 53.46C863.339 53.0322 863.729 52.7012 864.186 52.4668C864.649 52.2324 865.173 52.1152 865.759 52.1152C866.328 52.1152 866.823 52.2295 867.245 52.458C867.672 52.6865 868.036 53.0117 868.334 53.4336C868.639 53.8555 868.882 54.3564 869.064 54.9365C869.246 55.5107 869.377 56.1436 869.459 56.835V57.3359C869.377 58.0098 869.246 58.6279 869.064 59.1904C868.882 59.7529 868.639 60.2451 868.334 60.667C868.036 61.083 867.672 61.4053 867.245 61.6338C866.817 61.8623 866.316 61.9766 865.742 61.9766C865.162 61.9766 864.64 61.8564 864.177 61.6162C863.72 61.376 863.331 61.0391 863.008 60.6055C862.692 60.1719 862.449 59.6621 862.279 59.0762C862.115 58.4902 862.033 57.8516 862.033 57.1602ZM864.362 56.9756V57.1602C864.362 57.5703 864.397 57.9541 864.467 58.3115C864.538 58.6689 864.652 58.9854 864.81 59.2607C864.968 59.5303 865.17 59.7412 865.416 59.8936C865.668 60.0459 865.973 60.1221 866.331 60.1221C866.788 60.1221 867.163 60.0225 867.456 59.8232C867.754 59.6182 867.986 59.3398 868.15 58.9883C868.314 58.6309 868.419 58.2295 868.466 57.7842V56.4043C868.443 56.0527 868.381 55.7275 868.282 55.4287C868.188 55.1299 868.053 54.8721 867.877 54.6553C867.707 54.4385 867.497 54.2686 867.245 54.1455C866.993 54.0225 866.694 53.9609 866.348 53.9609C865.991 53.9609 865.686 54.04 865.434 54.1982C865.182 54.3506 864.977 54.5645 864.819 54.8398C864.661 55.1152 864.543 55.4346 864.467 55.7979C864.397 56.1611 864.362 56.5537 864.362 56.9756ZM878.284 59.7793V48.3008H880.622V61.8008H878.512L878.284 59.7793ZM872.175 57.1602V56.9756C872.175 56.249 872.257 55.5898 872.421 54.998C872.591 54.4004 872.837 53.8877 873.16 53.46C873.482 53.0322 873.872 52.7012 874.329 52.4668C874.791 52.2324 875.316 52.1152 875.902 52.1152C876.47 52.1152 876.965 52.2295 877.387 52.458C877.815 52.6865 878.178 53.0117 878.477 53.4336C878.782 53.8555 879.025 54.3564 879.206 54.9365C879.388 55.5107 879.52 56.1436 879.602 56.835V57.3359C879.52 58.0098 879.388 58.6279 879.206 59.1904C879.025 59.7529 878.782 60.2451 878.477 60.667C878.178 61.083 877.815 61.4053 877.387 61.6338C876.959 61.8623 876.458 61.9766 875.884 61.9766C875.304 61.9766 874.783 61.8564 874.32 61.6162C873.863 61.376 873.473 61.0391 873.151 60.6055C872.834 60.1719 872.591 59.6621 872.421 59.0762C872.257 58.4902 872.175 57.8516 872.175 57.1602ZM874.504 56.9756V57.1602C874.504 57.5703 874.539 57.9541 874.61 58.3115C874.68 58.6689 874.794 58.9854 874.953 59.2607C875.111 59.5303 875.313 59.7412 875.559 59.8936C875.811 60.0459 876.116 60.1221 876.473 60.1221C876.93 60.1221 877.305 60.0225 877.598 59.8232C877.897 59.6182 878.128 59.3398 878.292 58.9883C878.456 58.6309 878.562 58.2295 878.609 57.7842V56.4043C878.585 56.0527 878.524 55.7275 878.424 55.4287C878.331 55.1299 878.196 54.8721 878.02 54.6553C877.85 54.4385 877.639 54.2686 877.387 54.1455C877.135 54.0225 876.836 53.9609 876.491 53.9609C876.133 53.9609 875.829 54.04 875.577 54.1982C875.325 54.3506 875.12 54.5645 874.961 54.8398C874.803 55.1152 874.686 55.4346 874.61 55.7979C874.539 56.1611 874.504 56.5537 874.504 56.9756ZM892.434 59.1992C892.434 59 892.381 58.8213 892.276 58.6631C892.17 58.5049 891.971 58.3613 891.678 58.2324C891.391 58.0977 890.969 57.9717 890.413 57.8545C889.92 57.749 889.466 57.6172 889.05 57.459C888.634 57.3008 888.277 57.1104 887.978 56.8877C887.679 56.6592 887.445 56.3926 887.275 56.0879C887.111 55.7773 887.029 55.4199 887.029 55.0156C887.029 54.623 887.114 54.2539 887.284 53.9082C887.454 53.5566 887.7 53.249 888.022 52.9854C888.344 52.7158 888.737 52.5049 889.2 52.3525C889.663 52.1943 890.184 52.1152 890.764 52.1152C891.573 52.1152 892.267 52.2471 892.847 52.5107C893.433 52.7744 893.881 53.1377 894.192 53.6006C894.502 54.0576 894.658 54.5732 894.658 55.1475H892.337C892.337 54.8955 892.279 54.667 892.162 54.4619C892.05 54.2568 891.877 54.0928 891.643 53.9697C891.409 53.8408 891.113 53.7764 890.755 53.7764C890.433 53.7764 890.161 53.8291 889.938 53.9346C889.721 54.04 889.557 54.1777 889.446 54.3477C889.334 54.5176 889.279 54.7051 889.279 54.9102C889.279 55.0625 889.308 55.2002 889.367 55.3232C889.431 55.4404 889.534 55.5488 889.674 55.6484C889.815 55.748 890.005 55.8389 890.246 55.9209C890.492 56.0029 890.793 56.082 891.151 56.1582C891.86 56.2988 892.478 56.4863 893.005 56.7207C893.539 56.9492 893.955 57.2539 894.253 57.6348C894.552 58.0156 894.702 58.502 894.702 59.0937C894.702 59.5156 894.611 59.9023 894.429 60.2539C894.248 60.5996 893.984 60.9014 893.638 61.1592C893.292 61.417 892.879 61.6191 892.399 61.7656C891.918 61.9062 891.376 61.9766 890.773 61.9766C889.9 61.9766 889.162 61.8213 888.558 61.5107C887.955 61.1943 887.498 60.7959 887.187 60.3154C886.876 59.8291 886.721 59.3252 886.721 58.8037H888.945C888.962 59.1729 889.062 59.4687 889.244 59.6914C889.425 59.9141 889.654 60.0752 889.929 60.1748C890.21 60.2686 890.506 60.3154 890.817 60.3154C891.168 60.3154 891.464 60.2686 891.705 60.1748C891.945 60.0752 892.126 59.9434 892.249 59.7793C892.373 59.6094 892.434 59.416 892.434 59.1992ZM898.789 48.292V61.8008H896.468V48.292H898.789ZM904.748 52.291L900.608 56.9404L898.367 59.2168L897.628 57.415L899.36 55.2354L901.944 52.291H904.748ZM902.374 61.8008L899.43 57.3711L900.977 55.8682L905.064 61.8008H902.374ZM908.439 52.291V61.8008H906.11V52.291H908.439ZM905.952 49.8037C905.952 49.458 906.069 49.1709 906.303 48.9424C906.543 48.7139 906.866 48.5996 907.27 48.5996C907.674 48.5996 907.994 48.7139 908.228 48.9424C908.468 49.1709 908.588 49.458 908.588 49.8037C908.588 50.1436 908.468 50.4277 908.228 50.6562C907.994 50.8848 907.674 50.999 907.27 50.999C906.866 50.999 906.543 50.8848 906.303 50.6562C906.069 50.4277 905.952 50.1436 905.952 49.8037ZM913.115 48.3008V61.8008H910.786V48.3008H913.115ZM917.79 48.3008V61.8008H915.461V48.3008H917.79ZM925.235 59.1992C925.235 59 925.182 58.8213 925.077 58.6631C924.971 58.5049 924.772 58.3613 924.479 58.2324C924.192 58.0977 923.77 57.9717 923.213 57.8545C922.721 57.749 922.267 57.6172 921.851 57.459C921.435 57.3008 921.078 57.1104 920.779 56.8877C920.48 56.6592 920.246 56.3926 920.076 56.0879C919.912 55.7773 919.83 55.4199 919.83 55.0156C919.83 54.623 919.914 54.2539 920.084 53.9082C920.254 53.5566 920.5 53.249 920.823 52.9854C921.145 52.7158 921.538 52.5049 922 52.3525C922.463 52.1943 922.985 52.1152 923.565 52.1152C924.373 52.1152 925.068 52.2471 925.648 52.5107C926.234 52.7744 926.682 53.1377 926.993 53.6006C927.303 54.0576 927.458 54.5732 927.458 55.1475H925.138C925.138 54.8955 925.08 54.667 924.962 54.4619C924.851 54.2568 924.678 54.0928 924.444 53.9697C924.209 53.8408 923.914 53.7764 923.556 53.7764C923.234 53.7764 922.961 53.8291 922.739 53.9346C922.522 54.04 922.358 54.1777 922.247 54.3477C922.135 54.5176 922.08 54.7051 922.08 54.9102C922.08 55.0625 922.109 55.2002 922.167 55.3232C922.232 55.4404 922.334 55.5488 922.475 55.6484C922.616 55.748 922.806 55.8389 923.046 55.9209C923.292 56.0029 923.594 56.082 923.952 56.1582C924.661 56.2988 925.279 56.4863 925.806 56.7207C926.339 56.9492 926.755 57.2539 927.054 57.6348C927.353 58.0156 927.502 58.502 927.502 59.0937C927.502 59.5156 927.412 59.9023 927.23 60.2539C927.048 60.5996 926.785 60.9014 926.439 61.1592C926.093 61.417 925.68 61.6191 925.2 61.7656C924.719 61.9062 924.177 61.9766 923.574 61.9766C922.701 61.9766 921.962 61.8213 921.359 61.5107C920.755 61.1943 920.298 60.7959 919.988 60.3154C919.677 59.8291 919.522 59.3252 919.522 58.8037H921.746C921.763 59.1729 921.863 59.4687 922.044 59.6914C922.226 59.9141 922.455 60.0752 922.73 60.1748C923.011 60.2686 923.307 60.3154 923.618 60.3154C923.969 60.3154 924.265 60.2686 924.505 60.1748C924.746 60.0752 924.927 59.9434 925.05 59.7793C925.173 59.6094 925.235 59.416 925.235 59.1992ZM938.251 52.291V53.9609H932.802V52.291H938.251ZM934.261 49.9531H936.59V59.0586C936.59 59.3398 936.628 59.5566 936.705 59.709C936.781 59.8613 936.895 59.9639 937.047 60.0166C937.2 60.0693 937.381 60.0957 937.592 60.0957C937.745 60.0957 937.885 60.0869 938.014 60.0693C938.143 60.0518 938.251 60.0342 938.339 60.0166L938.348 61.7568C938.155 61.8213 937.935 61.874 937.689 61.915C937.449 61.9561 937.176 61.9766 936.872 61.9766C936.35 61.9766 935.893 61.8887 935.5 61.7129C935.108 61.5312 934.803 61.2412 934.586 60.8428C934.37 60.4385 934.261 59.9053 934.261 59.2432V49.9531ZM939.157 57.1426V56.958C939.157 56.2607 939.256 55.6191 939.456 55.0332C939.655 54.4414 939.945 53.9287 940.326 53.4951C940.706 53.0615 941.172 52.7246 941.723 52.4844C942.274 52.2383 942.901 52.1152 943.604 52.1152C944.319 52.1152 944.952 52.2383 945.502 52.4844C946.059 52.7246 946.528 53.0615 946.909 53.4951C947.289 53.9287 947.58 54.4414 947.779 55.0332C947.978 55.6191 948.078 56.2607 948.078 56.958V57.1426C948.078 57.834 947.978 58.4756 947.779 59.0674C947.58 59.6533 947.289 60.166 946.909 60.6055C946.528 61.0391 946.062 61.376 945.511 61.6162C944.96 61.8564 944.331 61.9766 943.622 61.9766C942.918 61.9766 942.289 61.8564 941.732 61.6162C941.175 61.376 940.706 61.0391 940.326 60.6055C939.945 60.166 939.655 59.6533 939.456 59.0674C939.256 58.4756 939.157 57.834 939.157 57.1426ZM941.477 56.958V57.1426C941.477 57.5586 941.518 57.9482 941.6 58.3115C941.682 58.6748 941.808 58.9941 941.978 59.2695C942.148 59.5449 942.368 59.7617 942.637 59.9199C942.913 60.0723 943.241 60.1484 943.622 60.1484C943.997 60.1484 944.319 60.0723 944.588 59.9199C944.858 59.7617 945.078 59.5449 945.247 59.2695C945.423 58.9941 945.552 58.6748 945.634 58.3115C945.716 57.9482 945.757 57.5586 945.757 57.1426V56.958C945.757 56.5479 945.716 56.1641 945.634 55.8066C945.552 55.4434 945.423 55.124 945.247 54.8486C945.078 54.5674 944.855 54.3477 944.58 54.1895C944.31 54.0254 943.985 53.9434 943.604 53.9434C943.229 53.9434 942.907 54.0254 942.637 54.1895C942.368 54.3477 942.148 54.5674 941.978 54.8486C941.808 55.124 941.682 55.4434 941.6 55.8066C941.518 56.1641 941.477 56.5479 941.477 56.958ZM956.559 54.2422V61.8008H954.239V52.291H956.427L956.559 54.2422ZM956.216 56.7031H955.504C955.504 56.041 955.583 55.4316 955.742 54.875C955.906 54.3184 956.146 53.835 956.462 53.4248C956.779 53.0088 957.168 52.6865 957.631 52.458C958.1 52.2295 958.642 52.1152 959.257 52.1152C959.685 52.1152 960.078 52.1797 960.435 52.3086C960.792 52.4316 961.1 52.6279 961.358 52.8975C961.622 53.1611 961.824 53.5068 961.964 53.9346C962.105 54.3564 962.175 54.8633 962.175 55.4551V61.8008H959.855V55.6924C959.855 55.2471 959.79 54.8984 959.662 54.6465C959.539 54.3945 959.36 54.2187 959.125 54.1191C958.891 54.0137 958.61 53.9609 958.282 53.9609C957.918 53.9609 957.605 54.0342 957.341 54.1807C957.083 54.3213 956.87 54.5176 956.7 54.7695C956.536 55.0215 956.413 55.3115 956.331 55.6396C956.254 55.9678 956.216 56.3223 956.216 56.7031ZM961.999 56.2725L961.041 56.4482C961.047 55.8506 961.129 55.291 961.288 54.7695C961.446 54.2422 961.677 53.7822 961.982 53.3896C962.292 52.9912 962.676 52.6807 963.133 52.458C963.596 52.2295 964.129 52.1152 964.733 52.1152C965.202 52.1152 965.623 52.1826 965.998 52.3174C966.379 52.4463 966.705 52.6543 966.974 52.9414C967.244 53.2227 967.449 53.5889 967.589 54.04C967.736 54.4912 967.809 55.042 967.809 55.6924V61.8008H965.471V55.6836C965.471 55.2207 965.407 54.8662 965.278 54.6201C965.155 54.374 964.976 54.2041 964.742 54.1104C964.507 54.0107 964.232 53.9609 963.915 53.9609C963.593 53.9609 963.312 54.0225 963.072 54.1455C962.837 54.2627 962.638 54.4268 962.474 54.6377C962.316 54.8486 962.196 55.0947 962.114 55.376C962.038 55.6514 961.999 55.9502 961.999 56.2725ZM974.164 61.9766C973.443 61.9766 972.795 61.8594 972.221 61.625C971.647 61.3906 971.158 61.0654 970.753 60.6494C970.355 60.2275 970.047 59.7383 969.83 59.1816C969.62 58.6191 969.514 58.0156 969.514 57.3711V57.0195C969.514 56.2871 969.62 55.6221 969.83 55.0244C970.041 54.4209 970.34 53.9023 970.727 53.4687C971.114 53.0352 971.577 52.7012 972.116 52.4668C972.655 52.2324 973.249 52.1152 973.9 52.1152C974.574 52.1152 975.168 52.2295 975.684 52.458C976.2 52.6807 976.63 52.9971 976.976 53.4072C977.322 53.8174 977.582 54.3096 977.758 54.8838C977.934 55.4521 978.022 56.082 978.022 56.7734V57.749H970.569V56.1494H975.737V55.9736C975.725 55.6045 975.655 55.2676 975.526 54.9629C975.397 54.6523 975.198 54.4062 974.928 54.2246C974.659 54.0371 974.31 53.9434 973.882 53.9434C973.537 53.9434 973.235 54.0195 972.977 54.1719C972.725 54.3184 972.514 54.5293 972.344 54.8047C972.18 55.0742 972.057 55.3965 971.975 55.7715C971.893 56.1465 971.852 56.5625 971.852 57.0195V57.3711C971.852 57.7695 971.905 58.1387 972.01 58.4785C972.122 58.8184 972.283 59.1143 972.494 59.3662C972.71 59.6123 972.968 59.8057 973.267 59.9463C973.572 60.0811 973.917 60.1484 974.304 60.1484C974.79 60.1484 975.23 60.0547 975.622 59.8672C976.021 59.6738 976.367 59.3896 976.66 59.0146L977.829 60.2275C977.629 60.5205 977.36 60.8018 977.02 61.0713C976.686 61.3408 976.282 61.5605 975.807 61.7305C975.332 61.8945 974.785 61.9766 974.164 61.9766ZM981.889 54.2422V61.8008H979.569V52.291H981.757L981.889 54.2422ZM981.546 56.7031H980.834C980.834 56.041 980.914 55.4316 981.072 54.875C981.236 54.3184 981.476 53.835 981.792 53.4248C982.109 53.0088 982.498 52.6865 982.961 52.458C983.43 52.2295 983.972 52.1152 984.587 52.1152C985.015 52.1152 985.408 52.1797 985.765 52.3086C986.122 52.4316 986.43 52.6279 986.688 52.8975C986.952 53.1611 987.154 53.5068 987.294 53.9346C987.435 54.3564 987.505 54.8633 987.505 55.4551V61.8008H985.185V55.6924C985.185 55.2471 985.121 54.8984 984.992 54.6465C984.869 54.3945 984.69 54.2187 984.455 54.1191C984.221 54.0137 983.94 53.9609 983.612 53.9609C983.248 53.9609 982.935 54.0342 982.671 54.1807C982.414 54.3213 982.2 54.5176 982.03 54.7695C981.866 55.0215 981.743 55.3115 981.661 55.6396C981.584 55.9678 981.546 56.3223 981.546 56.7031ZM987.33 56.2725L986.372 56.4482C986.377 55.8506 986.459 55.291 986.618 54.7695C986.776 54.2422 987.007 53.7822 987.312 53.3896C987.622 52.9912 988.006 52.6807 988.463 52.458C988.926 52.2295 989.459 52.1152 990.063 52.1152C990.532 52.1152 990.954 52.1826 991.329 52.3174C991.709 52.4463 992.035 52.6543 992.304 52.9414C992.574 53.2227 992.779 53.5889 992.919 54.04C993.066 54.4912 993.139 55.042 993.139 55.6924V61.8008H990.801V55.6836C990.801 55.2207 990.737 54.8662 990.608 54.6201C990.485 54.374 990.306 54.2041 990.072 54.1104C989.837 54.0107 989.562 53.9609 989.246 53.9609C988.923 53.9609 988.642 54.0225 988.402 54.1455C988.167 54.2627 987.968 54.4268 987.804 54.6377C987.646 54.8486 987.526 55.0947 987.444 55.376C987.368 55.6514 987.33 55.9502 987.33 56.2725ZM995.213 48.3008H997.542V59.7002L997.314 61.8008H995.213V48.3008ZM1003.66 56.9492V57.1338C1003.66 57.8428 1003.58 58.4932 1003.42 59.085C1003.27 59.6768 1003.04 60.1895 1002.73 60.623C1002.42 61.0508 1002.03 61.3848 1001.57 61.625C1001.11 61.8594 1000.57 61.9766 999.959 61.9766C999.373 61.9766 998.864 61.8623 998.43 61.6338C998.002 61.4053 997.642 61.083 997.349 60.667C997.056 60.2451 996.822 59.75 996.646 59.1816C996.47 58.6074 996.338 57.9805 996.25 57.3008V56.7998C996.338 56.1143 996.47 55.4873 996.646 54.9189C996.822 54.3506 997.056 53.8555 997.349 53.4336C997.642 53.0117 998.002 52.6865 998.43 52.458C998.858 52.2295 999.362 52.1152 999.942 52.1152C1000.56 52.1152 1001.1 52.2354 1001.57 52.4756C1002.04 52.71 1002.42 53.0439 1002.73 53.4775C1003.04 53.9053 1003.27 54.415 1003.42 55.0068C1003.58 55.5928 1003.66 56.2402 1003.66 56.9492ZM1001.33 57.1338V56.9492C1001.33 56.5449 1001.3 56.1641 1001.23 55.8066C1001.17 55.4434 1001.06 55.124 1000.92 54.8486C1000.77 54.5732 1000.57 54.3564 1000.32 54.1982C1000.07 54.04 999.751 53.9609 999.371 53.9609C999.007 53.9609 998.697 54.0225 998.439 54.1455C998.187 54.2686 997.976 54.4385 997.806 54.6553C997.642 54.8721 997.513 55.127 997.419 55.4199C997.331 55.7129 997.273 56.0293 997.244 56.3691V57.7402C997.285 58.1914 997.381 58.5986 997.534 58.9619C997.686 59.3193 997.912 59.6035 998.21 59.8145C998.515 60.0254 998.908 60.1309 999.388 60.1309C999.763 60.1309 1000.08 60.0576 1000.33 59.9111C1000.58 59.7588 1000.78 59.5479 1000.93 59.2783C1001.07 59.0029 1001.18 58.6836 1001.23 58.3203C1001.3 57.957 1001.33 57.5615 1001.33 57.1338ZM1009.62 61.9766C1008.9 61.9766 1008.25 61.8594 1007.68 61.625C1007.1 61.3906 1006.61 61.0654 1006.21 60.6494C1005.81 60.2275 1005.5 59.7383 1005.29 59.1816C1005.07 58.6191 1004.97 58.0156 1004.97 57.3711V57.0195C1004.97 56.2871 1005.07 55.6221 1005.29 55.0244C1005.5 54.4209 1005.8 53.9023 1006.18 53.4687C1006.57 53.0352 1007.03 52.7012 1007.57 52.4668C1008.11 52.2324 1008.7 52.1152 1009.35 52.1152C1010.03 52.1152 1010.62 52.2295 1011.14 52.458C1011.65 52.6807 1012.09 52.9971 1012.43 53.4072C1012.78 53.8174 1013.04 54.3096 1013.21 54.8838C1013.39 55.4521 1013.48 56.082 1013.48 56.7734V57.749H1006.02V56.1494H1011.19V55.9736C1011.18 55.6045 1011.11 55.2676 1010.98 54.9629C1010.85 54.6523 1010.65 54.4062 1010.38 54.2246C1010.11 54.0371 1009.77 53.9434 1009.34 53.9434C1008.99 53.9434 1008.69 54.0195 1008.43 54.1719C1008.18 54.3184 1007.97 54.5293 1007.8 54.8047C1007.64 55.0742 1007.51 55.3965 1007.43 55.7715C1007.35 56.1465 1007.31 56.5625 1007.31 57.0195V57.3711C1007.31 57.7695 1007.36 58.1387 1007.47 58.4785C1007.58 58.8184 1007.74 59.1143 1007.95 59.3662C1008.17 59.6123 1008.42 59.8057 1008.72 59.9463C1009.03 60.0811 1009.37 60.1484 1009.76 60.1484C1010.25 60.1484 1010.68 60.0547 1011.08 59.8672C1011.48 59.6738 1011.82 59.3896 1012.11 59.0146L1013.28 60.2275C1013.08 60.5205 1012.81 60.8018 1012.48 61.0713C1012.14 61.3408 1011.74 61.5605 1011.26 61.7305C1010.79 61.8945 1010.24 61.9766 1009.62 61.9766ZM1017.35 54.2334V61.8008H1015.03V52.291H1017.23L1017.35 54.2334ZM1020.24 52.2295L1020.21 54.3916C1020.08 54.3682 1019.93 54.3506 1019.77 54.3389C1019.61 54.3271 1019.46 54.3213 1019.32 54.3213C1018.96 54.3213 1018.65 54.3711 1018.38 54.4707C1018.11 54.5645 1017.89 54.7021 1017.7 54.8838C1017.53 55.0654 1017.39 55.2881 1017.3 55.5518C1017.21 55.8096 1017.15 56.1025 1017.14 56.4307L1016.64 56.3691C1016.64 55.7656 1016.7 55.2061 1016.83 54.6904C1016.95 54.1748 1017.13 53.7236 1017.36 53.3369C1017.6 52.9502 1017.89 52.6514 1018.24 52.4404C1018.6 52.2236 1019.01 52.1152 1019.47 52.1152C1019.6 52.1152 1019.74 52.127 1019.88 52.1504C1020.04 52.168 1020.16 52.1943 1020.24 52.2295ZM1025.65 57.96H1023.55C1023.56 57.4268 1023.6 56.9697 1023.68 56.5889C1023.77 56.208 1023.91 55.8652 1024.11 55.5605C1024.31 55.25 1024.58 54.9336 1024.92 54.6113C1025.19 54.3594 1025.43 54.1221 1025.64 53.8994C1025.86 53.6709 1026.03 53.4336 1026.15 53.1875C1026.27 52.9355 1026.34 52.6514 1026.34 52.335C1026.34 51.9775 1026.28 51.6787 1026.16 51.4385C1026.05 51.1982 1025.88 51.0166 1025.66 50.8936C1025.44 50.7646 1025.17 50.7002 1024.84 50.7002C1024.57 50.7002 1024.32 50.7559 1024.08 50.8672C1023.84 50.9785 1023.64 51.1514 1023.5 51.3857C1023.35 51.6143 1023.27 51.9131 1023.26 52.2822H1020.93C1020.95 51.5146 1021.13 50.876 1021.48 50.3662C1021.82 49.8506 1022.29 49.4668 1022.87 49.2148C1023.46 48.957 1024.11 48.8281 1024.84 48.8281C1025.64 48.8281 1026.33 48.9629 1026.9 49.2324C1027.47 49.4961 1027.91 49.8828 1028.21 50.3926C1028.51 50.9023 1028.66 51.5176 1028.66 52.2383C1028.66 52.7539 1028.56 53.2168 1028.37 53.627C1028.17 54.0312 1027.9 54.4092 1027.57 54.7607C1027.25 55.1123 1026.89 55.4668 1026.51 55.8242C1026.18 56.123 1025.95 56.4424 1025.83 56.7822C1025.72 57.1221 1025.66 57.5146 1025.65 57.96ZM1023.33 60.6934C1023.33 60.3418 1023.45 60.0488 1023.68 59.8145C1023.92 59.5801 1024.24 59.4629 1024.65 59.4629C1025.05 59.4629 1025.37 59.5801 1025.61 59.8145C1025.85 60.0488 1025.97 60.3418 1025.97 60.6934C1025.97 61.0332 1025.85 61.3203 1025.61 61.5547C1025.37 61.7891 1025.05 61.9062 1024.65 61.9062C1024.24 61.9062 1023.92 61.7891 1023.68 61.5547C1023.45 61.3203 1023.33 61.0332 1023.33 60.6934Z" fill="white"/>
<path d="M1124 55L1114 49.2265L1114 60.7735L1124 55ZM1057.33 55C1057.33 52.0545 1054.95 49.6666 1052 49.6666C1049.05 49.6666 1046.67 52.0545 1046.67 55C1046.67 57.9455 1049.05 60.3333 1052 60.3333C1054.95 60.3333 1057.33 57.9455 1057.33 55ZM1115 54L1052 54L1052 56L1115 56L1115 54Z" fill="#5384ED"/>
<rect x="1124" y="32.5" width="246" height="45" rx="8" fill="#E2EDFD"/>
<path d="M1190.66 48.7031V61.5H1188.45V48.7031H1190.66ZM1195.29 54.0205V61.5H1193.17V51.9902H1195.17L1195.29 54.0205ZM1194.91 56.3936L1194.22 56.3848C1194.23 55.7109 1194.32 55.0928 1194.51 54.5303C1194.69 53.9678 1194.95 53.4844 1195.28 53.0801C1195.61 52.6758 1196.01 52.3652 1196.47 52.1484C1196.94 51.9258 1197.45 51.8145 1198.02 51.8145C1198.48 51.8145 1198.89 51.8789 1199.26 52.0078C1199.64 52.1309 1199.96 52.333 1200.22 52.6143C1200.49 52.8955 1200.69 53.2617 1200.83 53.7129C1200.97 54.1582 1201.04 54.7061 1201.04 55.3564V61.5H1198.92V55.3477C1198.92 54.8906 1198.85 54.5303 1198.72 54.2666C1198.59 53.9971 1198.4 53.8066 1198.14 53.6953C1197.9 53.5781 1197.59 53.5195 1197.22 53.5195C1196.86 53.5195 1196.53 53.5957 1196.25 53.748C1195.96 53.9004 1195.72 54.1084 1195.52 54.3721C1195.32 54.6357 1195.17 54.9404 1195.07 55.2861C1194.96 55.6318 1194.91 56.001 1194.91 56.3936ZM1207.57 51.9902V53.5371H1202.21V51.9902H1207.57ZM1203.75 49.6611H1205.87V58.8721C1205.87 59.165 1205.91 59.3906 1205.99 59.5488C1206.08 59.7012 1206.2 59.8037 1206.35 59.8564C1206.51 59.9092 1206.68 59.9355 1206.89 59.9355C1207.04 59.9355 1207.18 59.9268 1207.31 59.9092C1207.45 59.8916 1207.55 59.874 1207.64 59.8564L1207.65 61.4736C1207.47 61.5264 1207.26 61.5732 1207.03 61.6143C1206.8 61.6553 1206.54 61.6758 1206.24 61.6758C1205.75 61.6758 1205.32 61.5908 1204.95 61.4209C1204.57 61.2451 1204.28 60.9609 1204.07 60.5684C1203.86 60.1758 1203.75 59.6543 1203.75 59.0039V49.6611ZM1213.39 61.6758C1212.69 61.6758 1212.05 61.5615 1211.49 61.333C1210.92 61.0986 1210.44 60.7734 1210.04 60.3574C1209.65 59.9414 1209.35 59.4521 1209.14 58.8896C1208.93 58.3271 1208.82 57.7207 1208.82 57.0703V56.7188C1208.82 55.9746 1208.93 55.3008 1209.15 54.6973C1209.37 54.0938 1209.67 53.5781 1210.05 53.1504C1210.44 52.7168 1210.9 52.3857 1211.42 52.1572C1211.95 51.9287 1212.52 51.8145 1213.14 51.8145C1213.82 51.8145 1214.41 51.9287 1214.92 52.1572C1215.43 52.3857 1215.85 52.708 1216.19 53.124C1216.53 53.5342 1216.78 54.0234 1216.94 54.5918C1217.11 55.1602 1217.2 55.7871 1217.2 56.4727V57.3779H1209.85V55.8574H1215.11V55.6904C1215.1 55.3096 1215.02 54.9521 1214.88 54.6182C1214.74 54.2842 1214.54 54.0146 1214.25 53.8096C1213.97 53.6045 1213.6 53.502 1213.13 53.502C1212.78 53.502 1212.46 53.5781 1212.19 53.7305C1211.92 53.877 1211.69 54.0908 1211.51 54.3721C1211.33 54.6533 1211.19 54.9932 1211.09 55.3916C1211 55.7842 1210.95 56.2266 1210.95 56.7188V57.0703C1210.95 57.4863 1211.01 57.873 1211.12 58.2305C1211.23 58.582 1211.4 58.8896 1211.63 59.1533C1211.85 59.417 1212.12 59.625 1212.44 59.7773C1212.75 59.9238 1213.11 59.9971 1213.52 59.9971C1214.03 59.9971 1214.48 59.8945 1214.88 59.6895C1215.28 59.4844 1215.62 59.1943 1215.92 58.8193L1217.03 59.9004C1216.83 60.1992 1216.56 60.4863 1216.23 60.7617C1215.9 61.0312 1215.5 61.251 1215.03 61.4209C1214.56 61.5908 1214.01 61.6758 1213.39 61.6758ZM1220.98 53.8008V61.5H1218.86V51.9902H1220.88L1220.98 53.8008ZM1223.89 51.9287L1223.87 53.8975C1223.74 53.874 1223.6 53.8564 1223.45 53.8447C1223.3 53.833 1223.16 53.8271 1223.01 53.8271C1222.65 53.8271 1222.33 53.8799 1222.05 53.9854C1221.78 54.085 1221.54 54.2314 1221.36 54.4248C1221.17 54.6123 1221.03 54.8408 1220.93 55.1104C1220.83 55.3799 1220.78 55.6816 1220.76 56.0156L1220.28 56.0508C1220.28 55.4531 1220.33 54.8994 1220.45 54.3896C1220.57 53.8799 1220.74 53.4316 1220.98 53.0449C1221.22 52.6582 1221.52 52.3564 1221.88 52.1396C1222.24 51.9229 1222.66 51.8145 1223.13 51.8145C1223.26 51.8145 1223.4 51.8262 1223.54 51.8496C1223.7 51.873 1223.81 51.8994 1223.89 51.9287ZM1228.47 59.8213L1230.8 51.9902H1232.99L1229.69 61.5H1228.32L1228.47 59.8213ZM1226.68 51.9902L1229.06 59.8564L1229.17 61.5H1227.8L1224.48 51.9902H1226.68ZM1236.57 51.9902V61.5H1234.44V51.9902H1236.57ZM1234.3 49.4941C1234.3 49.1719 1234.41 48.9053 1234.62 48.6943C1234.84 48.4775 1235.13 48.3691 1235.52 48.3691C1235.89 48.3691 1236.19 48.4775 1236.4 48.6943C1236.62 48.9053 1236.73 49.1719 1236.73 49.4941C1236.73 49.8105 1236.62 50.0742 1236.4 50.2852C1236.19 50.4961 1235.89 50.6016 1235.52 50.6016C1235.13 50.6016 1234.84 50.4961 1234.62 50.2852C1234.41 50.0742 1234.3 49.8105 1234.3 49.4941ZM1243.08 61.6758C1242.38 61.6758 1241.74 61.5615 1241.18 61.333C1240.61 61.0986 1240.13 60.7734 1239.73 60.3574C1239.34 59.9414 1239.04 59.4521 1238.83 58.8896C1238.62 58.3271 1238.51 57.7207 1238.51 57.0703V56.7188C1238.51 55.9746 1238.62 55.3008 1238.84 54.6973C1239.05 54.0938 1239.36 53.5781 1239.74 53.1504C1240.13 52.7168 1240.59 52.3857 1241.11 52.1572C1241.64 51.9287 1242.21 51.8145 1242.83 51.8145C1243.51 51.8145 1244.1 51.9287 1244.61 52.1572C1245.12 52.3857 1245.54 52.708 1245.88 53.124C1246.22 53.5342 1246.47 54.0234 1246.63 54.5918C1246.8 55.1602 1246.89 55.7871 1246.89 56.4727V57.3779H1239.54V55.8574H1244.8V55.6904C1244.79 55.3096 1244.71 54.9521 1244.57 54.6182C1244.43 54.2842 1244.23 54.0146 1243.94 53.8096C1243.66 53.6045 1243.29 53.502 1242.82 53.502C1242.47 53.502 1242.15 53.5781 1241.88 53.7305C1241.61 53.877 1241.38 54.0908 1241.2 54.3721C1241.02 54.6533 1240.88 54.9932 1240.78 55.3916C1240.69 55.7842 1240.64 56.2266 1240.64 56.7188V57.0703C1240.64 57.4863 1240.7 57.873 1240.81 58.2305C1240.92 58.582 1241.09 58.8896 1241.32 59.1533C1241.54 59.417 1241.81 59.625 1242.12 59.7773C1242.44 59.9238 1242.8 59.9971 1243.21 59.9971C1243.72 59.9971 1244.17 59.8945 1244.57 59.6895C1244.97 59.4844 1245.31 59.1943 1245.61 58.8193L1246.72 59.9004C1246.52 60.1992 1246.25 60.4863 1245.92 60.7617C1245.59 61.0312 1245.19 61.251 1244.72 61.4209C1244.25 61.5908 1243.7 61.6758 1243.08 61.6758ZM1251.12 59.3906L1253.32 51.9902H1254.68L1254.31 54.2051L1252.09 61.5H1250.88L1251.12 59.3906ZM1249.83 51.9902L1251.55 59.4258L1251.69 61.5H1250.33L1247.76 51.9902H1249.83ZM1256.73 59.3379L1258.39 51.9902H1260.46L1257.89 61.5H1256.54L1256.73 59.3379ZM1254.9 51.9902L1257.08 59.3027L1257.35 61.5H1256.13L1253.89 54.1963L1253.52 51.9902H1254.9ZM1271.72 58.9248C1271.72 58.7139 1271.67 58.5234 1271.56 58.3535C1271.45 58.1777 1271.25 58.0195 1270.95 57.8789C1270.66 57.7383 1270.23 57.6094 1269.65 57.4922C1269.15 57.3809 1268.69 57.249 1268.26 57.0967C1267.85 56.9385 1267.49 56.748 1267.19 56.5254C1266.89 56.3027 1266.66 56.0391 1266.5 55.7344C1266.33 55.4297 1266.25 55.0781 1266.25 54.6797C1266.25 54.293 1266.34 53.9268 1266.51 53.5811C1266.68 53.2354 1266.92 52.9307 1267.24 52.667C1267.55 52.4033 1267.94 52.1953 1268.39 52.043C1268.84 51.8906 1269.35 51.8145 1269.92 51.8145C1270.71 51.8145 1271.4 51.9492 1271.96 52.2188C1272.54 52.4824 1272.98 52.8428 1273.28 53.2998C1273.59 53.751 1273.74 54.2607 1273.74 54.8291H1271.62C1271.62 54.5771 1271.56 54.3428 1271.43 54.126C1271.3 53.9033 1271.12 53.7246 1270.87 53.5898C1270.61 53.4492 1270.3 53.3789 1269.92 53.3789C1269.55 53.3789 1269.25 53.4375 1269.01 53.5547C1268.78 53.666 1268.6 53.8125 1268.48 53.9941C1268.37 54.1758 1268.32 54.375 1268.32 54.5918C1268.32 54.75 1268.35 54.8936 1268.4 55.0225C1268.47 55.1455 1268.57 55.2598 1268.72 55.3652C1268.87 55.4648 1269.07 55.5586 1269.32 55.6465C1269.58 55.7344 1269.9 55.8193 1270.29 55.9014C1271.01 56.0537 1271.64 56.25 1272.16 56.4902C1272.68 56.7246 1273.09 57.0293 1273.37 57.4043C1273.65 57.7734 1273.79 58.2422 1273.79 58.8105C1273.79 59.2324 1273.7 59.6191 1273.52 59.9707C1273.34 60.3164 1273.09 60.6182 1272.75 60.876C1272.41 61.1279 1272 61.3242 1271.52 61.4648C1271.06 61.6055 1270.53 61.6758 1269.94 61.6758C1269.08 61.6758 1268.35 61.5234 1267.75 61.2188C1267.16 60.9082 1266.7 60.5127 1266.39 60.0322C1266.09 59.5459 1265.93 59.042 1265.93 58.5205H1267.98C1268.01 58.9131 1268.11 59.2266 1268.31 59.4609C1268.51 59.6895 1268.75 59.8564 1269.05 59.9619C1269.34 60.0615 1269.65 60.1113 1269.97 60.1113C1270.35 60.1113 1270.67 60.0615 1270.93 59.9619C1271.18 59.8564 1271.38 59.7158 1271.52 59.54C1271.65 59.3584 1271.72 59.1533 1271.72 58.9248ZM1277.78 48V61.5H1275.66V48H1277.78ZM1283.69 51.9902L1279.55 56.5781L1277.28 58.8984L1276.73 57.1055L1278.44 54.9873L1281.13 51.9902H1283.69ZM1281.59 61.5L1278.5 57.0352L1279.84 55.5498L1284.04 61.5H1281.59ZM1287.3 51.9902V61.5H1285.17V51.9902H1287.3ZM1285.03 49.4941C1285.03 49.1719 1285.14 48.9053 1285.35 48.6943C1285.57 48.4775 1285.87 48.3691 1286.25 48.3691C1286.62 48.3691 1286.92 48.4775 1287.13 48.6943C1287.35 48.9053 1287.46 49.1719 1287.46 49.4941C1287.46 49.8105 1287.35 50.0742 1287.13 50.2852C1286.92 50.4961 1286.62 50.6016 1286.25 50.6016C1285.87 50.6016 1285.57 50.4961 1285.35 50.2852C1285.14 50.0742 1285.03 49.8105 1285.03 49.4941ZM1291.89 48V61.5H1289.76V48H1291.89ZM1296.48 48V61.5H1294.35V48H1296.48ZM1304.13 58.9248C1304.13 58.7139 1304.08 58.5234 1303.97 58.3535C1303.87 58.1777 1303.67 58.0195 1303.37 57.8789C1303.07 57.7383 1302.64 57.6094 1302.07 57.4922C1301.56 57.3809 1301.1 57.249 1300.68 57.0967C1300.26 56.9385 1299.9 56.748 1299.61 56.5254C1299.31 56.3027 1299.08 56.0391 1298.91 55.7344C1298.75 55.4297 1298.67 55.0781 1298.67 54.6797C1298.67 54.293 1298.75 53.9268 1298.92 53.5811C1299.09 53.2354 1299.33 52.9307 1299.65 52.667C1299.97 52.4033 1300.35 52.1953 1300.8 52.043C1301.26 51.8906 1301.77 51.8145 1302.33 51.8145C1303.13 51.8145 1303.81 51.9492 1304.38 52.2188C1304.95 52.4824 1305.39 52.8428 1305.7 53.2998C1306 53.751 1306.15 54.2607 1306.15 54.8291H1304.04C1304.04 54.5771 1303.97 54.3428 1303.84 54.126C1303.72 53.9033 1303.53 53.7246 1303.28 53.5898C1303.03 53.4492 1302.71 53.3789 1302.33 53.3789C1301.97 53.3789 1301.67 53.4375 1301.42 53.5547C1301.19 53.666 1301.01 53.8125 1300.9 53.9941C1300.79 54.1758 1300.73 54.375 1300.73 54.5918C1300.73 54.75 1300.76 54.8936 1300.82 55.0225C1300.88 55.1455 1300.99 55.2598 1301.13 55.3652C1301.28 55.4648 1301.48 55.5586 1301.73 55.6465C1301.99 55.7344 1302.31 55.8193 1302.7 55.9014C1303.43 56.0537 1304.05 56.25 1304.57 56.4902C1305.1 56.7246 1305.5 57.0293 1305.78 57.4043C1306.07 57.7734 1306.21 58.2422 1306.21 58.8105C1306.21 59.2324 1306.12 59.6191 1305.93 59.9707C1305.76 60.3164 1305.5 60.6182 1305.16 60.876C1304.82 61.1279 1304.41 61.3242 1303.94 61.4648C1303.47 61.6055 1302.94 61.6758 1302.36 61.6758C1301.5 61.6758 1300.77 61.5234 1300.17 61.2188C1299.57 60.9082 1299.12 60.5127 1298.81 60.0322C1298.5 59.5459 1298.35 59.042 1298.35 58.5205H1300.4C1300.42 58.9131 1300.53 59.2266 1300.72 59.4609C1300.92 59.6895 1301.17 59.8564 1301.46 59.9619C1301.76 60.0615 1302.07 60.1113 1302.38 60.1113C1302.76 60.1113 1303.08 60.0615 1303.34 59.9619C1303.6 59.8564 1303.79 59.7158 1303.93 59.54C1304.06 59.3584 1304.13 59.1533 1304.13 58.9248Z" fill="#5384ED"/>
<path d="M1442 55L1432 49.2265L1432 60.7735L1442 55ZM1375.33 55C1375.33 52.0545 1372.95 49.6666 1370 49.6666C1367.05 49.6666 1364.67 52.0545 1364.67 55C1364.67 57.9455 1367.05 60.3333 1370 60.3333C1372.95 60.3333 1375.33 57.9455 1375.33 55ZM1433 54L1370 54L1370 56L1433 56L1433 54Z" fill="#5384ED"/>
<rect x="1443.5" y="30" width="107" height="50" rx="25" fill="#F6F9FE"/>
<path d="M1480.57 48.7031V61.5H1478.38V48.7031H1480.57ZM1484.58 48.7031V50.4609H1474.4V48.7031H1484.58ZM1489.41 61.6758C1488.7 61.6758 1488.07 61.5615 1487.5 61.333C1486.94 61.0986 1486.46 60.7734 1486.06 60.3574C1485.67 59.9414 1485.36 59.4521 1485.15 58.8896C1484.94 58.3271 1484.84 57.7207 1484.84 57.0703V56.7188C1484.84 55.9746 1484.95 55.3008 1485.16 54.6973C1485.38 54.0938 1485.68 53.5781 1486.07 53.1504C1486.45 52.7168 1486.91 52.3857 1487.44 52.1572C1487.97 51.9287 1488.54 51.8145 1489.15 51.8145C1489.83 51.8145 1490.43 51.9287 1490.94 52.1572C1491.45 52.3857 1491.87 52.708 1492.2 53.124C1492.54 53.5342 1492.79 54.0234 1492.96 54.5918C1493.13 55.1602 1493.21 55.7871 1493.21 56.4727V57.3779H1485.87V55.8574H1491.12V55.6904C1491.11 55.3096 1491.03 54.9521 1490.89 54.6182C1490.76 54.2842 1490.55 54.0146 1490.27 53.8096C1489.99 53.6045 1489.61 53.502 1489.14 53.502C1488.79 53.502 1488.48 53.5781 1488.2 53.7305C1487.93 53.877 1487.71 54.0908 1487.53 54.3721C1487.34 54.6533 1487.2 54.9932 1487.1 55.3916C1487.01 55.7842 1486.96 56.2266 1486.96 56.7188V57.0703C1486.96 57.4863 1487.02 57.873 1487.13 58.2305C1487.25 58.582 1487.42 58.8896 1487.64 59.1533C1487.86 59.417 1488.13 59.625 1488.45 59.7773C1488.77 59.9238 1489.13 59.9971 1489.53 59.9971C1490.04 59.9971 1490.49 59.8945 1490.89 59.6895C1491.29 59.4844 1491.64 59.1943 1491.93 58.8193L1493.05 59.9004C1492.84 60.1992 1492.57 60.4863 1492.25 60.7617C1491.92 61.0312 1491.52 61.251 1491.04 61.4209C1490.57 61.5908 1490.03 61.6758 1489.41 61.6758ZM1500.23 59.5928V55.0576C1500.23 54.7178 1500.17 54.4248 1500.04 54.1787C1499.92 53.9326 1499.73 53.7422 1499.48 53.6074C1499.23 53.4727 1498.92 53.4053 1498.55 53.4053C1498.2 53.4053 1497.9 53.4639 1497.65 53.5811C1497.4 53.6982 1497.2 53.8564 1497.06 54.0557C1496.92 54.2549 1496.85 54.4805 1496.85 54.7324H1494.74C1494.74 54.3574 1494.83 53.9941 1495.01 53.6426C1495.2 53.291 1495.46 52.9775 1495.81 52.7021C1496.15 52.4268 1496.56 52.21 1497.04 52.0518C1497.53 51.8936 1498.06 51.8145 1498.66 51.8145C1499.38 51.8145 1500.01 51.9346 1500.56 52.1748C1501.12 52.415 1501.55 52.7783 1501.87 53.2646C1502.19 53.7451 1502.35 54.3486 1502.35 55.0752V59.3027C1502.35 59.7363 1502.38 60.126 1502.44 60.4717C1502.51 60.8115 1502.6 61.1074 1502.71 61.3594V61.5H1500.54C1500.44 61.2715 1500.36 60.9814 1500.31 60.6299C1500.25 60.2725 1500.23 59.9268 1500.23 59.5928ZM1500.53 55.7168L1500.55 57.0264H1499.03C1498.64 57.0264 1498.29 57.0645 1497.99 57.1406C1497.7 57.2109 1497.45 57.3164 1497.25 57.457C1497.05 57.5977 1496.9 57.7676 1496.8 57.9668C1496.7 58.166 1496.65 58.3916 1496.65 58.6436C1496.65 58.8955 1496.71 59.127 1496.83 59.3379C1496.94 59.543 1497.11 59.7041 1497.33 59.8213C1497.56 59.9385 1497.84 59.9971 1498.16 59.9971C1498.59 59.9971 1498.97 59.9092 1499.29 59.7334C1499.62 59.5518 1499.88 59.332 1500.07 59.0742C1500.26 58.8105 1500.36 58.5615 1500.37 58.3271L1501.05 59.2676C1500.98 59.5078 1500.86 59.7656 1500.69 60.041C1500.52 60.3164 1500.3 60.5801 1500.02 60.832C1499.75 61.0781 1499.43 61.2803 1499.05 61.4385C1498.67 61.5967 1498.24 61.6758 1497.75 61.6758C1497.13 61.6758 1496.57 61.5527 1496.09 61.3066C1495.6 61.0547 1495.22 60.7178 1494.94 60.2959C1494.67 59.8682 1494.53 59.3848 1494.53 58.8457C1494.53 58.3418 1494.62 57.8965 1494.81 57.5098C1495.01 57.1172 1495.29 56.7891 1495.66 56.5254C1496.03 56.2617 1496.49 56.0625 1497.03 55.9277C1497.57 55.7871 1498.18 55.7168 1498.87 55.7168H1500.53ZM1506.69 53.9238V61.5H1504.57V51.9902H1506.56L1506.69 53.9238ZM1506.34 56.3936L1505.62 56.3848C1505.62 55.7285 1505.71 55.1221 1505.87 54.5654C1506.03 54.0088 1506.27 53.5254 1506.59 53.1152C1506.91 52.6992 1507.3 52.3799 1507.77 52.1572C1508.24 51.9287 1508.79 51.8145 1509.41 51.8145C1509.84 51.8145 1510.24 51.8789 1510.6 52.0078C1510.96 52.1309 1511.27 52.3271 1511.54 52.5967C1511.81 52.8662 1512.01 53.2119 1512.15 53.6338C1512.3 54.0557 1512.37 54.5654 1512.37 55.1631V61.5H1510.25V55.3477C1510.25 54.8848 1510.18 54.5215 1510.04 54.2578C1509.91 53.9941 1509.71 53.8066 1509.46 53.6953C1509.2 53.5781 1508.9 53.5195 1508.55 53.5195C1508.15 53.5195 1507.81 53.5957 1507.53 53.748C1507.25 53.9004 1507.03 54.1084 1506.85 54.3721C1506.68 54.6357 1506.55 54.9404 1506.47 55.2861C1506.38 55.6318 1506.34 56.001 1506.34 56.3936ZM1512.24 55.8311L1511.25 56.0508C1511.25 55.4766 1511.33 54.9346 1511.49 54.4248C1511.65 53.9092 1511.89 53.458 1512.2 53.0713C1512.51 52.6787 1512.9 52.3711 1513.37 52.1484C1513.83 51.9258 1514.36 51.8145 1514.96 51.8145C1515.44 51.8145 1515.88 51.8818 1516.26 52.0166C1516.64 52.1455 1516.97 52.3506 1517.24 52.6318C1517.51 52.9131 1517.72 53.2793 1517.86 53.7305C1518 54.1758 1518.07 54.7148 1518.07 55.3477V61.5H1515.94V55.3389C1515.94 54.8584 1515.87 54.4863 1515.73 54.2227C1515.6 53.959 1515.4 53.7773 1515.15 53.6777C1514.9 53.5723 1514.6 53.5195 1514.25 53.5195C1513.92 53.5195 1513.63 53.5811 1513.38 53.7041C1513.13 53.8213 1512.92 53.9883 1512.75 54.2051C1512.58 54.416 1512.45 54.6592 1512.36 54.9346C1512.28 55.21 1512.24 55.5088 1512.24 55.8311Z" fill="#5384ED"/>
<rect x="1443.5" y="30" width="107" height="50" rx="25" stroke="#5384ED" stroke-width="3"/>
<defs>
<linearGradient id="paint0_linear_3239_10743" x1="212" y1="10.0898" x2="377.688" y2="166.015" gradientUnits="userSpaceOnUse">
<stop stop-color="#5D85EC"/>
<stop offset="0.533854" stop-color="#9DBEFF"/>
<stop offset="1" stop-color="#5D87D8"/>
</linearGradient>
<linearGradient id="paint1_linear_3239_10743" x1="827" y1="10.0898" x2="992.688" y2="166.015" gradientUnits="userSpaceOnUse">
<stop stop-color="#5D85EC"/>
<stop offset="0.533854" stop-color="#9DBEFF"/>
<stop offset="1" stop-color="#5D87D8"/>
</linearGradient>
</defs>
</svg>
