<svg width="1971" height="108" viewBox="0 0 1971 108" fill="none" xmlns="http://www.w3.org/2000/svg">
<rect x="31.5" y="30" width="145" height="50" rx="25" fill="#F6F9FE"/>
<path d="M65.6562 48.7031V61.5H63.4502V48.7031H65.6562ZM70.2881 54.0205V61.5H68.1699V51.9902H70.165L70.2881 54.0205ZM69.9102 56.3936L69.2246 56.3848C69.2305 55.7109 69.3242 55.0928 69.5059 54.5303C69.6934 53.9678 69.9512 53.4844 70.2793 53.0801C70.6133 52.6758 71.0117 52.3652 71.4746 52.1484C71.9375 51.9258 72.4531 51.8145 73.0215 51.8145C73.4785 51.8145 73.8916 51.8789 74.2607 52.0078C74.6357 52.1309 74.9551 52.333 75.2188 52.6143C75.4883 52.8955 75.6934 53.2617 75.834 53.7129C75.9746 54.1582 76.0449 54.7061 76.0449 55.3564V61.5H73.918V55.3477C73.918 54.8906 73.8506 54.5303 73.7158 54.2666C73.5869 53.9971 73.3965 53.8066 73.1445 53.6953C72.8984 53.5781 72.5908 53.5195 72.2217 53.5195C71.8584 53.5195 71.5332 53.5957 71.2461 53.748C70.959 53.9004 70.7158 54.1084 70.5166 54.3721C70.3232 54.6357 70.1738 54.9404 70.0684 55.2861C69.9629 55.6318 69.9102 56.001 69.9102 56.3936ZM82.5664 51.9902V53.5371H77.2051V51.9902H82.5664ZM78.752 49.6611H80.8701V58.8721C80.8701 59.165 80.9111 59.3906 80.9932 59.5488C81.0811 59.7012 81.2012 59.8037 81.3535 59.8564C81.5059 59.9092 81.6846 59.9355 81.8896 59.9355C82.0361 59.9355 82.1768 59.9268 82.3115 59.9092C82.4463 59.8916 82.5547 59.874 82.6367 59.8564L82.6455 61.4736C82.4697 61.5264 82.2646 61.5732 82.0303 61.6143C81.8018 61.6553 81.5381 61.6758 81.2393 61.6758C80.7529 61.6758 80.3223 61.5908 79.9473 61.4209C79.5723 61.2451 79.2793 60.9609 79.0684 60.5684C78.8574 60.1758 78.752 59.6543 78.752 59.0039V49.6611ZM88.3936 61.6758C87.6904 61.6758 87.0547 61.5615 86.4863 61.333C85.9238 61.0986 85.4434 60.7734 85.0449 60.3574C84.6523 59.9414 84.3506 59.4521 84.1396 58.8896C83.9287 58.3271 83.8232 57.7207 83.8232 57.0703V56.7188C83.8232 55.9746 83.9316 55.3008 84.1484 54.6973C84.3652 54.0938 84.667 53.5781 85.0537 53.1504C85.4404 52.7168 85.8975 52.3857 86.4248 52.1572C86.9521 51.9287 87.5234 51.8145 88.1387 51.8145C88.8184 51.8145 89.4131 51.9287 89.9229 52.1572C90.4326 52.3857 90.8545 52.708 91.1885 53.124C91.5283 53.5342 91.7803 54.0234 91.9443 54.5918C92.1143 55.1602 92.1992 55.7871 92.1992 56.4727V57.3779H84.8516V55.8574H90.1074V55.6904C90.0957 55.3096 90.0195 54.9521 89.8789 54.6182C89.7441 54.2842 89.5361 54.0146 89.2549 53.8096C88.9736 53.6045 88.5986 53.502 88.1299 53.502C87.7783 53.502 87.4648 53.5781 87.1895 53.7305C86.9199 53.877 86.6943 54.0908 86.5127 54.3721C86.3311 54.6533 86.1904 54.9932 86.0908 55.3916C85.9971 55.7842 85.9502 56.2266 85.9502 56.7188V57.0703C85.9502 57.4863 86.0059 57.873 86.1172 58.2305C86.2344 58.582 86.4043 58.8896 86.627 59.1533C86.8496 59.417 87.1191 59.625 87.4355 59.7773C87.752 59.9238 88.1123 59.9971 88.5166 59.9971C89.0264 59.9971 89.4805 59.8945 89.8789 59.6895C90.2773 59.4844 90.623 59.1943 90.916 58.8193L92.0322 59.9004C91.8271 60.1992 91.5605 60.4863 91.2324 60.7617C90.9043 61.0312 90.5029 61.251 90.0283 61.4209C89.5596 61.5908 89.0146 61.6758 88.3936 61.6758ZM95.9785 53.8008V61.5H93.8604V51.9902H95.8818L95.9785 53.8008ZM98.8877 51.9287L98.8701 53.8975C98.7412 53.874 98.6006 53.8564 98.4482 53.8447C98.3018 53.833 98.1553 53.8271 98.0088 53.8271C97.6455 53.8271 97.3262 53.8799 97.0508 53.9854C96.7754 54.085 96.5439 54.2314 96.3564 54.4248C96.1748 54.6123 96.0342 54.8408 95.9346 55.1104C95.835 55.3799 95.7764 55.6816 95.7588 56.0156L95.2754 56.0508C95.2754 55.4531 95.334 54.8994 95.4512 54.3896C95.5684 53.8799 95.7441 53.4316 95.9785 53.0449C96.2188 52.6582 96.5176 52.3564 96.875 52.1396C97.2383 51.9229 97.6572 51.8145 98.1318 51.8145C98.2607 51.8145 98.3984 51.8262 98.5449 51.8496C98.6973 51.873 98.8115 51.8994 98.8877 51.9287ZM103.467 59.8213L105.796 51.9902H107.993L104.688 61.5H103.317L103.467 59.8213ZM101.683 51.9902L104.056 59.8564L104.17 61.5H102.799L99.4766 51.9902H101.683ZM111.57 51.9902V61.5H109.443V51.9902H111.57ZM109.303 49.4941C109.303 49.1719 109.408 48.9053 109.619 48.6943C109.836 48.4775 110.135 48.3691 110.516 48.3691C110.891 48.3691 111.187 48.4775 111.403 48.6943C111.62 48.9053 111.729 49.1719 111.729 49.4941C111.729 49.8105 111.62 50.0742 111.403 50.2852C111.187 50.4961 110.891 50.6016 110.516 50.6016C110.135 50.6016 109.836 50.4961 109.619 50.2852C109.408 50.0742 109.303 49.8105 109.303 49.4941ZM118.083 61.6758C117.38 61.6758 116.744 61.5615 116.176 61.333C115.613 61.0986 115.133 60.7734 114.734 60.3574C114.342 59.9414 114.04 59.4521 113.829 58.8896C113.618 58.3271 113.513 57.7207 113.513 57.0703V56.7188C113.513 55.9746 113.621 55.3008 113.838 54.6973C114.055 54.0938 114.356 53.5781 114.743 53.1504C115.13 52.7168 115.587 52.3857 116.114 52.1572C116.642 51.9287 117.213 51.8145 117.828 51.8145C118.508 51.8145 119.103 51.9287 119.612 52.1572C120.122 52.3857 120.544 52.708 120.878 53.124C121.218 53.5342 121.47 54.0234 121.634 54.5918C121.804 55.1602 121.889 55.7871 121.889 56.4727V57.3779H114.541V55.8574H119.797V55.6904C119.785 55.3096 119.709 54.9521 119.568 54.6182C119.434 54.2842 119.226 54.0146 118.944 53.8096C118.663 53.6045 118.288 53.502 117.819 53.502C117.468 53.502 117.154 53.5781 116.879 53.7305C116.609 53.877 116.384 54.0908 116.202 54.3721C116.021 54.6533 115.88 54.9932 115.78 55.3916C115.687 55.7842 115.64 56.2266 115.64 56.7188V57.0703C115.64 57.4863 115.695 57.873 115.807 58.2305C115.924 58.582 116.094 58.8896 116.316 59.1533C116.539 59.417 116.809 59.625 117.125 59.7773C117.441 59.9238 117.802 59.9971 118.206 59.9971C118.716 59.9971 119.17 59.8945 119.568 59.6895C119.967 59.4844 120.312 59.1943 120.605 58.8193L121.722 59.9004C121.517 60.1992 121.25 60.4863 120.922 60.7617C120.594 61.0312 120.192 61.251 119.718 61.4209C119.249 61.5908 118.704 61.6758 118.083 61.6758ZM126.125 59.3906L128.322 51.9902H129.676L129.307 54.2051L127.092 61.5H125.879L126.125 59.3906ZM124.833 51.9902L126.547 59.4258L126.688 61.5H125.334L122.759 51.9902H124.833ZM131.732 59.3379L133.394 51.9902H135.459L132.893 61.5H131.539L131.732 59.3379ZM129.904 51.9902L132.075 59.3027L132.348 61.5H131.135L128.894 54.1963L128.524 51.9902H129.904ZM142.235 58.9248C142.235 58.7139 142.183 58.5234 142.077 58.3535C141.972 58.1777 141.77 58.0195 141.471 57.8789C141.178 57.7383 140.744 57.6094 140.17 57.4922C139.666 57.3809 139.203 57.249 138.781 57.0967C138.365 56.9385 138.008 56.748 137.709 56.5254C137.41 56.3027 137.179 56.0391 137.015 55.7344C136.851 55.4297 136.769 55.0781 136.769 54.6797C136.769 54.293 136.854 53.9268 137.023 53.5811C137.193 53.2354 137.437 52.9307 137.753 52.667C138.069 52.4033 138.453 52.1953 138.904 52.043C139.361 51.8906 139.871 51.8145 140.434 51.8145C141.23 51.8145 141.913 51.9492 142.481 52.2188C143.056 52.4824 143.495 52.8428 143.8 53.2998C144.104 53.751 144.257 54.2607 144.257 54.8291H142.139C142.139 54.5771 142.074 54.3428 141.945 54.126C141.822 53.9033 141.635 53.7246 141.383 53.5898C141.131 53.4492 140.814 53.3789 140.434 53.3789C140.07 53.3789 139.769 53.4375 139.528 53.5547C139.294 53.666 139.118 53.8125 139.001 53.9941C138.89 54.1758 138.834 54.375 138.834 54.5918C138.834 54.75 138.863 54.8936 138.922 55.0225C138.986 55.1455 139.092 55.2598 139.238 55.3652C139.385 55.4648 139.584 55.5586 139.836 55.6465C140.094 55.7344 140.416 55.8193 140.803 55.9014C141.529 56.0537 142.153 56.25 142.675 56.4902C143.202 56.7246 143.606 57.0293 143.888 57.4043C144.169 57.7734 144.31 58.2422 144.31 58.8105C144.31 59.2324 144.219 59.6191 144.037 59.9707C143.861 60.3164 143.604 60.6182 143.264 60.876C142.924 61.1279 142.517 61.3242 142.042 61.4648C141.573 61.6055 141.046 61.6758 140.46 61.6758C139.599 61.6758 138.869 61.5234 138.271 61.2188C137.674 60.9082 137.22 60.5127 136.909 60.0322C136.604 59.5459 136.452 59.042 136.452 58.5205H138.5C138.523 58.9131 138.632 59.2266 138.825 59.4609C139.024 59.6895 139.271 59.8564 139.563 59.9619C139.862 60.0615 140.17 60.1113 140.486 60.1113C140.867 60.1113 141.187 60.0615 141.444 59.9619C141.702 59.8564 141.898 59.7158 142.033 59.54C142.168 59.3584 142.235 59.1533 142.235 58.9248Z" fill="#5384ED"/>
<rect x="31.5" y="30" width="145" height="50" rx="25" stroke="#5384ED" stroke-width="3"/>
<path d="M250 55L240 49.2265L240 60.7735L250 55ZM183.333 55C183.333 52.0545 180.946 49.6666 178 49.6666C175.054 49.6666 172.667 52.0545 172.667 55C172.667 57.9455 175.054 60.3333 178 60.3333C180.946 60.3333 183.333 57.9455 183.333 55ZM241 54L178 54L178 56L241 56L241 54Z" fill="#5384ED"/>
<path d="M358.391 15.4975C361.045 14.5303 363.955 14.5303 366.609 15.4975L459.532 49.3627C464.793 51.2799 464.793 58.7201 459.532 60.6373L366.609 94.5025C363.955 95.4697 361.045 95.4697 358.391 94.5025L265.468 60.6373C260.208 58.7201 260.208 51.2799 265.468 49.3627L358.391 15.4975Z" fill="url(#paint0_linear_3267_10921)" stroke="#E2EDFD" stroke-width="3"/>
<path d="M300.914 57.5908H303.331C303.267 58.4463 303.03 59.2051 302.62 59.8672C302.209 60.5234 301.638 61.0391 300.906 61.4141C300.173 61.7891 299.286 61.9766 298.243 61.9766C297.44 61.9766 296.716 61.8359 296.072 61.5547C295.433 61.2676 294.885 60.8604 294.428 60.333C293.977 59.7998 293.631 59.1611 293.391 58.417C293.151 57.667 293.031 56.8262 293.031 55.8945V54.9189C293.031 53.9873 293.154 53.1465 293.4 52.3965C293.646 51.6465 293.998 51.0078 294.455 50.4805C294.917 49.9473 295.471 49.5371 296.116 49.25C296.766 48.9629 297.493 48.8193 298.295 48.8193C299.338 48.8193 300.22 49.0127 300.941 49.3994C301.662 49.7803 302.221 50.3047 302.62 50.9727C303.018 51.6406 303.258 52.4082 303.34 53.2754H300.923C300.876 52.7363 300.759 52.2793 300.572 51.9043C300.39 51.5293 300.115 51.2451 299.746 51.0518C299.382 50.8525 298.899 50.7529 298.295 50.7529C297.827 50.7529 297.414 50.8408 297.056 51.0166C296.705 51.1924 296.412 51.4561 296.177 51.8076C295.943 52.1533 295.767 52.5869 295.65 53.1084C295.533 53.624 295.474 54.2217 295.474 54.9014V55.8945C295.474 56.5449 295.527 57.1279 295.632 57.6436C295.738 58.1592 295.902 58.5957 296.124 58.9531C296.347 59.3105 296.634 59.583 296.986 59.7705C297.337 59.958 297.756 60.0518 298.243 60.0518C298.834 60.0518 299.315 59.958 299.684 59.7705C300.059 59.583 300.343 59.3076 300.537 58.9443C300.736 58.5811 300.862 58.1299 300.914 57.5908ZM307.348 54.2334V61.8008H305.028V52.291H307.225L307.348 54.2334ZM310.24 52.2295L310.205 54.3916C310.076 54.3682 309.929 54.3506 309.765 54.3389C309.607 54.3271 309.457 54.3213 309.317 54.3213C308.959 54.3213 308.646 54.3711 308.376 54.4707C308.107 54.5645 307.881 54.7021 307.7 54.8838C307.524 55.0654 307.389 55.2881 307.295 55.5518C307.202 55.8096 307.149 56.1025 307.137 56.4307L306.636 56.3691C306.636 55.7656 306.698 55.2061 306.821 54.6904C306.944 54.1748 307.123 53.7236 307.357 53.3369C307.591 52.9502 307.884 52.6514 308.236 52.4404C308.593 52.2236 309.003 52.1152 309.466 52.1152C309.595 52.1152 309.733 52.127 309.879 52.1504C310.032 52.168 310.152 52.1943 310.24 52.2295ZM315.61 61.9766C314.889 61.9766 314.242 61.8594 313.667 61.625C313.093 61.3906 312.604 61.0654 312.2 60.6494C311.801 60.2275 311.494 59.7383 311.277 59.1816C311.066 58.6191 310.96 58.0156 310.96 57.3711V57.0195C310.96 56.2871 311.066 55.6221 311.277 55.0244C311.488 54.4209 311.787 53.9023 312.173 53.4687C312.56 53.0352 313.023 52.7012 313.562 52.4668C314.101 52.2324 314.696 52.1152 315.346 52.1152C316.02 52.1152 316.615 52.2295 317.13 52.458C317.646 52.6807 318.077 52.9971 318.422 53.4072C318.768 53.8174 319.029 54.3096 319.205 54.8838C319.38 55.4521 319.468 56.082 319.468 56.7734V57.749H312.015V56.1494H317.183V55.9736C317.171 55.6045 317.101 55.2676 316.972 54.9629C316.843 54.6523 316.644 54.4062 316.374 54.2246C316.105 54.0371 315.756 53.9434 315.329 53.9434C314.983 53.9434 314.681 54.0195 314.423 54.1719C314.171 54.3184 313.96 54.5293 313.79 54.8047C313.626 55.0742 313.503 55.3965 313.421 55.7715C313.339 56.1465 313.298 56.5625 313.298 57.0195V57.3711C313.298 57.7695 313.351 58.1387 313.456 58.4785C313.568 58.8184 313.729 59.1143 313.94 59.3662C314.157 59.6123 314.414 59.8057 314.713 59.9463C315.018 60.0811 315.364 60.1484 315.75 60.1484C316.237 60.1484 316.676 60.0547 317.069 59.8672C317.467 59.6738 317.813 59.3896 318.106 59.0146L319.275 60.2275C319.076 60.5205 318.806 60.8018 318.466 61.0713C318.132 61.3408 317.728 61.5605 317.253 61.7305C316.779 61.8945 316.231 61.9766 315.61 61.9766ZM326.262 59.7793V55.3936C326.262 55.0713 326.206 54.793 326.095 54.5586C325.984 54.3242 325.814 54.1426 325.585 54.0137C325.357 53.8848 325.067 53.8203 324.715 53.8203C324.405 53.8203 324.132 53.873 323.898 53.9785C323.669 54.084 323.494 54.2334 323.371 54.4268C323.248 54.6143 323.186 54.8311 323.186 55.0771H320.857C320.857 54.6846 320.951 54.3125 321.138 53.9609C321.326 53.6035 321.592 53.2871 321.938 53.0117C322.289 52.7305 322.708 52.5107 323.195 52.3525C323.687 52.1943 324.238 52.1152 324.847 52.1152C325.568 52.1152 326.209 52.2383 326.772 52.4844C327.34 52.7246 327.786 53.0879 328.108 53.5742C328.436 54.0605 328.6 54.6729 328.6 55.4111V59.5596C328.6 60.0342 328.629 60.4414 328.688 60.7812C328.752 61.1152 328.846 61.4053 328.969 61.6514V61.8008H326.605C326.494 61.5605 326.409 61.2559 326.35 60.8867C326.291 60.5117 326.262 60.1426 326.262 59.7793ZM326.587 56.0088L326.605 57.3887H325.137C324.774 57.3887 324.455 57.4268 324.179 57.5029C323.904 57.5732 323.678 57.6787 323.502 57.8193C323.327 57.9541 323.195 58.1182 323.107 58.3115C323.019 58.499 322.975 58.7129 322.975 58.9531C322.975 59.1875 323.028 59.3984 323.133 59.5859C323.245 59.7734 323.403 59.9229 323.608 60.0342C323.819 60.1396 324.065 60.1924 324.346 60.1924C324.756 60.1924 325.114 60.1104 325.418 59.9463C325.723 59.7764 325.96 59.5713 326.13 59.3311C326.3 59.0908 326.391 58.8623 326.403 58.6455L327.071 59.6475C326.989 59.8877 326.866 60.1426 326.702 60.4121C326.538 60.6816 326.327 60.9336 326.069 61.168C325.811 61.4023 325.5 61.5957 325.137 61.748C324.774 61.9004 324.352 61.9766 323.872 61.9766C323.256 61.9766 322.706 61.8535 322.219 61.6074C321.733 61.3613 321.349 61.0244 321.068 60.5967C320.787 60.1689 320.646 59.6826 320.646 59.1377C320.646 58.6338 320.74 58.1885 320.927 57.8018C321.115 57.415 321.393 57.0898 321.762 56.8262C322.131 56.5566 322.588 56.3545 323.133 56.2197C323.684 56.0791 324.314 56.0088 325.023 56.0088H326.587ZM335.192 52.291V53.9609H329.743V52.291H335.192ZM331.202 49.9531H333.531V59.0586C333.531 59.3398 333.569 59.5566 333.645 59.709C333.721 59.8613 333.835 59.9639 333.988 60.0166C334.14 60.0693 334.322 60.0957 334.533 60.0957C334.685 60.0957 334.826 60.0869 334.955 60.0693C335.083 60.0518 335.192 60.0342 335.28 60.0166L335.289 61.7568C335.095 61.8213 334.875 61.874 334.629 61.915C334.389 61.9561 334.117 61.9766 333.812 61.9766C333.29 61.9766 332.833 61.8887 332.441 61.7129C332.048 61.5312 331.744 61.2412 331.527 60.8428C331.31 60.4385 331.202 59.9053 331.202 59.2432V49.9531ZM341.01 61.9766C340.289 61.9766 339.642 61.8594 339.068 61.625C338.494 61.3906 338.004 61.0654 337.6 60.6494C337.202 60.2275 336.894 59.7383 336.677 59.1816C336.466 58.6191 336.361 58.0156 336.361 57.3711V57.0195C336.361 56.2871 336.466 55.6221 336.677 55.0244C336.888 54.4209 337.187 53.9023 337.574 53.4687C337.96 53.0352 338.423 52.7012 338.962 52.4668C339.501 52.2324 340.096 52.1152 340.747 52.1152C341.42 52.1152 342.015 52.2295 342.531 52.458C343.046 52.6807 343.477 52.9971 343.823 53.4072C344.168 53.8174 344.429 54.3096 344.605 54.8838C344.781 55.4521 344.869 56.082 344.869 56.7734V57.749H337.415V56.1494H342.583V55.9736C342.572 55.6045 342.501 55.2676 342.373 54.9629C342.244 54.6523 342.044 54.4062 341.775 54.2246C341.505 54.0371 341.157 53.9434 340.729 53.9434C340.383 53.9434 340.081 54.0195 339.824 54.1719C339.572 54.3184 339.361 54.5293 339.191 54.8047C339.027 55.0742 338.904 55.3965 338.822 55.7715C338.74 56.1465 338.699 56.5625 338.699 57.0195V57.3711C338.699 57.7695 338.751 58.1387 338.857 58.4785C338.968 58.8184 339.129 59.1143 339.34 59.3662C339.557 59.6123 339.815 59.8057 340.114 59.9463C340.418 60.0811 340.764 60.1484 341.151 60.1484C341.637 60.1484 342.077 60.0547 342.469 59.8672C342.868 59.6738 343.213 59.3896 343.506 59.0146L344.675 60.2275C344.476 60.5205 344.206 60.8018 343.867 61.0713C343.533 61.3408 343.128 61.5605 342.654 61.7305C342.179 61.8945 341.631 61.9766 341.01 61.9766ZM353.368 52.291V61.8008H351.039V52.291H353.368ZM350.88 49.8037C350.88 49.458 350.997 49.1709 351.232 48.9424C351.472 48.7139 351.794 48.5996 352.199 48.5996C352.603 48.5996 352.922 48.7139 353.157 48.9424C353.397 49.1709 353.517 49.458 353.517 49.8037C353.517 50.1436 353.397 50.4277 353.157 50.6562C352.922 50.8848 352.603 50.999 352.199 50.999C351.794 50.999 351.472 50.8848 351.232 50.6562C350.997 50.4277 350.88 50.1436 350.88 49.8037ZM357.859 54.3213V61.8008H355.539V52.291H357.718L357.859 54.3213ZM357.49 56.7031H356.804C356.81 56.0117 356.904 55.3848 357.085 54.8223C357.267 54.2598 357.522 53.7764 357.85 53.3721C358.184 52.9678 358.58 52.6572 359.037 52.4404C359.494 52.2236 360.003 52.1152 360.566 52.1152C361.023 52.1152 361.436 52.1797 361.805 52.3086C362.174 52.4375 362.491 52.6426 362.754 52.9238C363.024 53.2051 363.229 53.5742 363.37 54.0312C363.516 54.4824 363.589 55.0391 363.589 55.7012V61.8008H361.251V55.6836C361.251 55.25 361.187 54.9072 361.058 54.6553C360.935 54.4033 360.753 54.2246 360.513 54.1191C360.279 54.0137 359.989 53.9609 359.643 53.9609C359.286 53.9609 358.972 54.0342 358.703 54.1807C358.439 54.3213 358.216 54.5176 358.035 54.7695C357.859 55.0215 357.724 55.3115 357.63 55.6396C357.537 55.9678 357.49 56.3223 357.49 56.7031ZM370.137 52.291V53.9609H364.688V52.291H370.137ZM366.147 49.9531H368.476V59.0586C368.476 59.3398 368.514 59.5566 368.59 59.709C368.666 59.8613 368.781 59.9639 368.933 60.0166C369.085 60.0693 369.267 60.0957 369.478 60.0957C369.63 60.0957 369.771 60.0869 369.9 60.0693C370.029 60.0518 370.137 60.0342 370.225 60.0166L370.234 61.7568C370.04 61.8213 369.821 61.874 369.575 61.915C369.334 61.9561 369.062 61.9766 368.757 61.9766C368.236 61.9766 367.779 61.8887 367.386 61.7129C366.994 61.5312 366.689 61.2412 366.472 60.8428C366.255 60.4385 366.147 59.9053 366.147 59.2432V49.9531ZM375.956 61.9766C375.235 61.9766 374.587 61.8594 374.013 61.625C373.439 61.3906 372.95 61.0654 372.545 60.6494C372.147 60.2275 371.839 59.7383 371.622 59.1816C371.412 58.6191 371.306 58.0156 371.306 57.3711V57.0195C371.306 56.2871 371.412 55.6221 371.622 55.0244C371.833 54.4209 372.132 53.9023 372.519 53.4687C372.906 53.0352 373.369 52.7012 373.908 52.4668C374.447 52.2324 375.041 52.1152 375.692 52.1152C376.366 52.1152 376.96 52.2295 377.476 52.458C377.992 52.6807 378.422 52.9971 378.768 53.4072C379.114 53.8174 379.374 54.3096 379.55 54.8838C379.726 55.4521 379.814 56.082 379.814 56.7734V57.749H372.361V56.1494H377.529V55.9736C377.517 55.6045 377.447 55.2676 377.318 54.9629C377.189 54.6523 376.99 54.4062 376.72 54.2246C376.451 54.0371 376.102 53.9434 375.674 53.9434C375.329 53.9434 375.027 54.0195 374.769 54.1719C374.517 54.3184 374.306 54.5293 374.136 54.8047C373.972 55.0742 373.849 55.3965 373.767 55.7715C373.685 56.1465 373.644 56.5625 373.644 57.0195V57.3711C373.644 57.7695 373.697 58.1387 373.802 58.4785C373.914 58.8184 374.075 59.1143 374.286 59.3662C374.502 59.6123 374.76 59.8057 375.059 59.9463C375.364 60.0811 375.709 60.1484 376.096 60.1484C376.582 60.1484 377.022 60.0547 377.414 59.8672C377.813 59.6738 378.159 59.3896 378.452 59.0146L379.621 60.2275C379.421 60.5205 379.152 60.8018 378.812 61.0713C378.478 61.3408 378.074 61.5605 377.599 61.7305C377.124 61.8945 376.577 61.9766 375.956 61.9766ZM383.69 54.2334V61.8008H381.37V52.291H383.567L383.69 54.2334ZM386.581 52.2295L386.546 54.3916C386.417 54.3682 386.271 54.3506 386.107 54.3389C385.949 54.3271 385.799 54.3213 385.659 54.3213C385.301 54.3213 384.988 54.3711 384.718 54.4707C384.449 54.5645 384.223 54.7021 384.041 54.8838C383.866 55.0654 383.731 55.2881 383.637 55.5518C383.543 55.8096 383.491 56.1025 383.479 56.4307L382.978 56.3691C382.978 55.7656 383.039 55.2061 383.163 54.6904C383.286 54.1748 383.464 53.7236 383.699 53.3369C383.933 52.9502 384.226 52.6514 384.578 52.4404C384.935 52.2236 385.345 52.1152 385.808 52.1152C385.937 52.1152 386.075 52.127 386.221 52.1504C386.373 52.168 386.494 52.1943 386.581 52.2295ZM391.169 60.043L393.384 52.291H395.81L392.549 61.8008H391.073L391.169 60.043ZM389.552 52.291L391.793 60.0605L391.872 61.8008H390.387L387.118 52.291H389.552ZM399.493 52.291V61.8008H397.164V52.291H399.493ZM397.005 49.8037C397.005 49.458 397.122 49.1709 397.357 48.9424C397.597 48.7139 397.919 48.5996 398.324 48.5996C398.728 48.5996 399.047 48.7139 399.282 48.9424C399.522 49.1709 399.642 49.458 399.642 49.8037C399.642 50.1436 399.522 50.4277 399.282 50.6562C399.047 50.8848 398.728 50.999 398.324 50.999C397.919 50.999 397.597 50.8848 397.357 50.6562C397.122 50.4277 397.005 50.1436 397.005 49.8037ZM405.979 61.9766C405.258 61.9766 404.611 61.8594 404.037 61.625C403.462 61.3906 402.973 61.0654 402.569 60.6494C402.17 60.2275 401.863 59.7383 401.646 59.1816C401.435 58.6191 401.33 58.0156 401.33 57.3711V57.0195C401.33 56.2871 401.435 55.6221 401.646 55.0244C401.857 54.4209 402.156 53.9023 402.542 53.4687C402.929 53.0352 403.392 52.7012 403.931 52.4668C404.47 52.2324 405.065 52.1152 405.715 52.1152C406.389 52.1152 406.984 52.2295 407.499 52.458C408.015 52.6807 408.446 52.9971 408.791 53.4072C409.137 53.8174 409.398 54.3096 409.574 54.8838C409.749 55.4521 409.837 56.082 409.837 56.7734V57.749H402.384V56.1494H407.552V55.9736C407.54 55.6045 407.47 55.2676 407.341 54.9629C407.212 54.6523 407.013 54.4062 406.744 54.2246C406.474 54.0371 406.125 53.9434 405.698 53.9434C405.352 53.9434 405.05 54.0195 404.792 54.1719C404.54 54.3184 404.33 54.5293 404.16 54.8047C403.996 55.0742 403.872 55.3965 403.79 55.7715C403.708 56.1465 403.667 56.5625 403.667 57.0195V57.3711C403.667 57.7695 403.72 58.1387 403.826 58.4785C403.937 58.8184 404.098 59.1143 404.309 59.3662C404.526 59.6123 404.784 59.8057 405.082 59.9463C405.387 60.0811 405.733 60.1484 406.12 60.1484C406.606 60.1484 407.045 60.0547 407.438 59.8672C407.836 59.6738 408.182 59.3896 408.475 59.0146L409.644 60.2275C409.445 60.5205 409.175 60.8018 408.835 61.0713C408.501 61.3408 408.097 61.5605 407.622 61.7305C407.148 61.8945 406.6 61.9766 405.979 61.9766ZM414.039 59.5156L416.122 52.291H417.598L417.159 54.7871L415.058 61.8008H413.784L414.039 59.5156ZM412.887 52.291L414.452 59.5332L414.592 61.8008H413.124L410.628 52.291H412.887ZM419.532 59.4277L421.061 52.291H423.311L420.832 61.8008H419.365L419.532 59.4277ZM417.827 52.291L419.892 59.4453L420.164 61.8008H418.89L416.772 54.7871L416.341 52.291H417.827ZM428.813 57.96H426.712C426.718 57.4268 426.762 56.9697 426.844 56.5889C426.932 56.208 427.076 55.8652 427.275 55.5605C427.474 55.25 427.744 54.9336 428.083 54.6113C428.353 54.3594 428.593 54.1221 428.804 53.8994C429.021 53.6709 429.191 53.4336 429.314 53.1875C429.437 52.9355 429.498 52.6514 429.498 52.335C429.498 51.9775 429.44 51.6787 429.323 51.4385C429.211 51.1982 429.044 51.0166 428.822 50.8936C428.605 50.7646 428.332 50.7002 428.004 50.7002C427.735 50.7002 427.48 50.7559 427.24 50.8672C426.999 50.9785 426.806 51.1514 426.66 51.3857C426.513 51.6143 426.434 51.9131 426.422 52.2822H424.093C424.111 51.5146 424.292 50.876 424.638 50.3662C424.984 49.8506 425.45 49.4668 426.036 49.2148C426.622 48.957 427.278 48.8281 428.004 48.8281C428.807 48.8281 429.493 48.9629 430.061 49.2324C430.635 49.4961 431.072 49.8828 431.371 50.3926C431.675 50.9023 431.828 51.5176 431.828 52.2383C431.828 52.7539 431.728 53.2168 431.529 53.627C431.33 54.0312 431.066 54.4092 430.738 54.7607C430.41 55.1123 430.055 55.4668 429.674 55.8242C429.34 56.123 429.115 56.4424 428.997 56.7822C428.88 57.1221 428.819 57.5146 428.813 57.96ZM426.493 60.6934C426.493 60.3418 426.61 60.0488 426.844 59.8145C427.084 59.5801 427.407 59.4629 427.811 59.4629C428.215 59.4629 428.535 59.5801 428.769 59.8145C429.009 60.0488 429.129 60.3418 429.129 60.6934C429.129 61.0332 429.009 61.3203 428.769 61.5547C428.535 61.7891 428.215 61.9062 427.811 61.9062C427.407 61.9062 427.084 61.7891 426.844 61.5547C426.61 61.3203 426.493 61.0332 426.493 60.6934Z" fill="white"/>
<path d="M547 55L537 49.2265L537 60.7735L547 55ZM480.333 55C480.333 52.0545 477.946 49.6666 475 49.6666C472.054 49.6666 469.667 52.0545 469.667 55C469.667 57.9455 472.054 60.3333 475 60.3333C477.946 60.3333 480.333 57.9455 480.333 55ZM538 54L475 54L475 56L538 56L538 54Z" fill="#5384ED"/>
<rect x="547" y="32.5" width="246" height="45" rx="8" fill="#E2EDFD"/>
<path d="M611.656 48.7031V61.5H609.45V48.7031H611.656ZM616.288 54.0205V61.5H614.17V51.9902H616.165L616.288 54.0205ZM615.91 56.3936L615.225 56.3848C615.23 55.7109 615.324 55.0928 615.506 54.5303C615.693 53.9678 615.951 53.4844 616.279 53.0801C616.613 52.6758 617.012 52.3652 617.475 52.1484C617.938 51.9258 618.453 51.8145 619.021 51.8145C619.479 51.8145 619.892 51.8789 620.261 52.0078C620.636 52.1309 620.955 52.333 621.219 52.6143C621.488 52.8955 621.693 53.2617 621.834 53.7129C621.975 54.1582 622.045 54.7061 622.045 55.3564V61.5H619.918V55.3477C619.918 54.8906 619.851 54.5303 619.716 54.2666C619.587 53.9971 619.396 53.8066 619.145 53.6953C618.898 53.5781 618.591 53.5195 618.222 53.5195C617.858 53.5195 617.533 53.5957 617.246 53.748C616.959 53.9004 616.716 54.1084 616.517 54.3721C616.323 54.6357 616.174 54.9404 616.068 55.2861C615.963 55.6318 615.91 56.001 615.91 56.3936ZM628.566 51.9902V53.5371H623.205V51.9902H628.566ZM624.752 49.6611H626.87V58.8721C626.87 59.165 626.911 59.3906 626.993 59.5488C627.081 59.7012 627.201 59.8037 627.354 59.8564C627.506 59.9092 627.685 59.9355 627.89 59.9355C628.036 59.9355 628.177 59.9268 628.312 59.9092C628.446 59.8916 628.555 59.874 628.637 59.8564L628.646 61.4736C628.47 61.5264 628.265 61.5732 628.03 61.6143C627.802 61.6553 627.538 61.6758 627.239 61.6758C626.753 61.6758 626.322 61.5908 625.947 61.4209C625.572 61.2451 625.279 60.9609 625.068 60.5684C624.857 60.1758 624.752 59.6543 624.752 59.0039V49.6611ZM634.394 61.6758C633.69 61.6758 633.055 61.5615 632.486 61.333C631.924 61.0986 631.443 60.7734 631.045 60.3574C630.652 59.9414 630.351 59.4521 630.14 58.8896C629.929 58.3271 629.823 57.7207 629.823 57.0703V56.7188C629.823 55.9746 629.932 55.3008 630.148 54.6973C630.365 54.0938 630.667 53.5781 631.054 53.1504C631.44 52.7168 631.897 52.3857 632.425 52.1572C632.952 51.9287 633.523 51.8145 634.139 51.8145C634.818 51.8145 635.413 51.9287 635.923 52.1572C636.433 52.3857 636.854 52.708 637.188 53.124C637.528 53.5342 637.78 54.0234 637.944 54.5918C638.114 55.1602 638.199 55.7871 638.199 56.4727V57.3779H630.852V55.8574H636.107V55.6904C636.096 55.3096 636.02 54.9521 635.879 54.6182C635.744 54.2842 635.536 54.0146 635.255 53.8096C634.974 53.6045 634.599 53.502 634.13 53.502C633.778 53.502 633.465 53.5781 633.189 53.7305C632.92 53.877 632.694 54.0908 632.513 54.3721C632.331 54.6533 632.19 54.9932 632.091 55.3916C631.997 55.7842 631.95 56.2266 631.95 56.7188V57.0703C631.95 57.4863 632.006 57.873 632.117 58.2305C632.234 58.582 632.404 58.8896 632.627 59.1533C632.85 59.417 633.119 59.625 633.436 59.7773C633.752 59.9238 634.112 59.9971 634.517 59.9971C635.026 59.9971 635.48 59.8945 635.879 59.6895C636.277 59.4844 636.623 59.1943 636.916 58.8193L638.032 59.9004C637.827 60.1992 637.561 60.4863 637.232 60.7617C636.904 61.0312 636.503 61.251 636.028 61.4209C635.56 61.5908 635.015 61.6758 634.394 61.6758ZM641.979 53.8008V61.5H639.86V51.9902H641.882L641.979 53.8008ZM644.888 51.9287L644.87 53.8975C644.741 53.874 644.601 53.8564 644.448 53.8447C644.302 53.833 644.155 53.8271 644.009 53.8271C643.646 53.8271 643.326 53.8799 643.051 53.9854C642.775 54.085 642.544 54.2314 642.356 54.4248C642.175 54.6123 642.034 54.8408 641.935 55.1104C641.835 55.3799 641.776 55.6816 641.759 56.0156L641.275 56.0508C641.275 55.4531 641.334 54.8994 641.451 54.3896C641.568 53.8799 641.744 53.4316 641.979 53.0449C642.219 52.6582 642.518 52.3564 642.875 52.1396C643.238 51.9229 643.657 51.8145 644.132 51.8145C644.261 51.8145 644.398 51.8262 644.545 51.8496C644.697 51.873 644.812 51.8994 644.888 51.9287ZM649.467 59.8213L651.796 51.9902H653.993L650.688 61.5H649.317L649.467 59.8213ZM647.683 51.9902L650.056 59.8564L650.17 61.5H648.799L645.477 51.9902H647.683ZM657.57 51.9902V61.5H655.443V51.9902H657.57ZM655.303 49.4941C655.303 49.1719 655.408 48.9053 655.619 48.6943C655.836 48.4775 656.135 48.3691 656.516 48.3691C656.891 48.3691 657.187 48.4775 657.403 48.6943C657.62 48.9053 657.729 49.1719 657.729 49.4941C657.729 49.8105 657.62 50.0742 657.403 50.2852C657.187 50.4961 656.891 50.6016 656.516 50.6016C656.135 50.6016 655.836 50.4961 655.619 50.2852C655.408 50.0742 655.303 49.8105 655.303 49.4941ZM664.083 61.6758C663.38 61.6758 662.744 61.5615 662.176 61.333C661.613 61.0986 661.133 60.7734 660.734 60.3574C660.342 59.9414 660.04 59.4521 659.829 58.8896C659.618 58.3271 659.513 57.7207 659.513 57.0703V56.7188C659.513 55.9746 659.621 55.3008 659.838 54.6973C660.055 54.0938 660.356 53.5781 660.743 53.1504C661.13 52.7168 661.587 52.3857 662.114 52.1572C662.642 51.9287 663.213 51.8145 663.828 51.8145C664.508 51.8145 665.103 51.9287 665.612 52.1572C666.122 52.3857 666.544 52.708 666.878 53.124C667.218 53.5342 667.47 54.0234 667.634 54.5918C667.804 55.1602 667.889 55.7871 667.889 56.4727V57.3779H660.541V55.8574H665.797V55.6904C665.785 55.3096 665.709 54.9521 665.568 54.6182C665.434 54.2842 665.226 54.0146 664.944 53.8096C664.663 53.6045 664.288 53.502 663.819 53.502C663.468 53.502 663.154 53.5781 662.879 53.7305C662.609 53.877 662.384 54.0908 662.202 54.3721C662.021 54.6533 661.88 54.9932 661.78 55.3916C661.687 55.7842 661.64 56.2266 661.64 56.7188V57.0703C661.64 57.4863 661.695 57.873 661.807 58.2305C661.924 58.582 662.094 58.8896 662.316 59.1533C662.539 59.417 662.809 59.625 663.125 59.7773C663.441 59.9238 663.802 59.9971 664.206 59.9971C664.716 59.9971 665.17 59.8945 665.568 59.6895C665.967 59.4844 666.312 59.1943 666.605 58.8193L667.722 59.9004C667.517 60.1992 667.25 60.4863 666.922 60.7617C666.594 61.0312 666.192 61.251 665.718 61.4209C665.249 61.5908 664.704 61.6758 664.083 61.6758ZM672.125 59.3906L674.322 51.9902H675.676L675.307 54.2051L673.092 61.5H671.879L672.125 59.3906ZM670.833 51.9902L672.547 59.4258L672.688 61.5H671.334L668.759 51.9902H670.833ZM677.732 59.3379L679.394 51.9902H681.459L678.893 61.5H677.539L677.732 59.3379ZM675.904 51.9902L678.075 59.3027L678.348 61.5H677.135L674.894 54.1963L674.524 51.9902H675.904ZM689.483 54.0205V61.5H687.365V51.9902H689.36L689.483 54.0205ZM689.105 56.3936L688.42 56.3848C688.426 55.7109 688.52 55.0928 688.701 54.5303C688.889 53.9678 689.146 53.4844 689.475 53.0801C689.809 52.6758 690.207 52.3652 690.67 52.1484C691.133 51.9258 691.648 51.8145 692.217 51.8145C692.674 51.8145 693.087 51.8789 693.456 52.0078C693.831 52.1309 694.15 52.333 694.414 52.6143C694.684 52.8955 694.889 53.2617 695.029 53.7129C695.17 54.1582 695.24 54.7061 695.24 55.3564V61.5H693.113V55.3477C693.113 54.8906 693.046 54.5303 692.911 54.2666C692.782 53.9971 692.592 53.8066 692.34 53.6953C692.094 53.5781 691.786 53.5195 691.417 53.5195C691.054 53.5195 690.729 53.5957 690.441 53.748C690.154 53.9004 689.911 54.1084 689.712 54.3721C689.519 54.6357 689.369 54.9404 689.264 55.2861C689.158 55.6318 689.105 56.001 689.105 56.3936ZM702.764 59.5928V55.0576C702.764 54.7178 702.702 54.4248 702.579 54.1787C702.456 53.9326 702.269 53.7422 702.017 53.6074C701.771 53.4727 701.46 53.4053 701.085 53.4053C700.739 53.4053 700.44 53.4639 700.188 53.5811C699.937 53.6982 699.74 53.8564 699.6 54.0557C699.459 54.2549 699.389 54.4805 699.389 54.7324H697.279C697.279 54.3574 697.37 53.9941 697.552 53.6426C697.733 53.291 697.997 52.9775 698.343 52.7021C698.688 52.4268 699.102 52.21 699.582 52.0518C700.062 51.8936 700.602 51.8145 701.199 51.8145C701.914 51.8145 702.547 51.9346 703.098 52.1748C703.654 52.415 704.091 52.7783 704.407 53.2646C704.729 53.7451 704.891 54.3486 704.891 55.0752V59.3027C704.891 59.7363 704.92 60.126 704.979 60.4717C705.043 60.8115 705.134 61.1074 705.251 61.3594V61.5H703.08C702.98 61.2715 702.901 60.9814 702.843 60.6299C702.79 60.2725 702.764 59.9268 702.764 59.5928ZM703.071 55.7168L703.089 57.0264H701.568C701.176 57.0264 700.83 57.0645 700.531 57.1406C700.232 57.2109 699.983 57.3164 699.784 57.457C699.585 57.5977 699.436 57.7676 699.336 57.9668C699.236 58.166 699.187 58.3916 699.187 58.6436C699.187 58.8955 699.245 59.127 699.362 59.3379C699.479 59.543 699.649 59.7041 699.872 59.8213C700.101 59.9385 700.376 59.9971 700.698 59.9971C701.132 59.9971 701.51 59.9092 701.832 59.7334C702.16 59.5518 702.418 59.332 702.605 59.0742C702.793 58.8105 702.893 58.5615 702.904 58.3271L703.59 59.2676C703.52 59.5078 703.399 59.7656 703.229 60.041C703.06 60.3164 702.837 60.5801 702.562 60.832C702.292 61.0781 701.967 61.2803 701.586 61.4385C701.211 61.5967 700.777 61.6758 700.285 61.6758C699.664 61.6758 699.11 61.5527 698.624 61.3066C698.138 61.0547 697.757 60.7178 697.481 60.2959C697.206 59.8682 697.068 59.3848 697.068 58.8457C697.068 58.3418 697.162 57.8965 697.35 57.5098C697.543 57.1172 697.824 56.7891 698.193 56.5254C698.568 56.2617 699.025 56.0625 699.564 55.9277C700.104 55.7871 700.719 55.7168 701.41 55.7168H703.071ZM709.224 53.9238V61.5H707.105V51.9902H709.101L709.224 53.9238ZM708.881 56.3936L708.16 56.3848C708.16 55.7285 708.242 55.1221 708.406 54.5654C708.57 54.0088 708.811 53.5254 709.127 53.1152C709.443 52.6992 709.836 52.3799 710.305 52.1572C710.779 51.9287 711.327 51.8145 711.948 51.8145C712.382 51.8145 712.777 51.8789 713.135 52.0078C713.498 52.1309 713.812 52.3271 714.075 52.5967C714.345 52.8662 714.55 53.2119 714.69 53.6338C714.837 54.0557 714.91 54.5654 714.91 55.1631V61.5H712.792V55.3477C712.792 54.8848 712.722 54.5215 712.581 54.2578C712.446 53.9941 712.25 53.8066 711.992 53.6953C711.74 53.5781 711.438 53.5195 711.087 53.5195C710.688 53.5195 710.349 53.5957 710.067 53.748C709.792 53.9004 709.566 54.1084 709.391 54.3721C709.215 54.6357 709.086 54.9404 709.004 55.2861C708.922 55.6318 708.881 56.001 708.881 56.3936ZM714.778 55.8311L713.785 56.0508C713.785 55.4766 713.864 54.9346 714.022 54.4248C714.187 53.9092 714.424 53.458 714.734 53.0713C715.051 52.6787 715.44 52.3711 715.903 52.1484C716.366 51.9258 716.896 51.8145 717.494 51.8145C717.98 51.8145 718.414 51.8818 718.795 52.0166C719.182 52.1455 719.51 52.3506 719.779 52.6318C720.049 52.9131 720.254 53.2793 720.395 53.7305C720.535 54.1758 720.605 54.7148 720.605 55.3477V61.5H718.479V55.3389C718.479 54.8584 718.408 54.4863 718.268 54.2227C718.133 53.959 717.939 53.7773 717.688 53.6777C717.436 53.5723 717.134 53.5195 716.782 53.5195C716.454 53.5195 716.164 53.5811 715.912 53.7041C715.666 53.8213 715.458 53.9883 715.288 54.2051C715.118 54.416 714.989 54.6592 714.901 54.9346C714.819 55.21 714.778 55.5088 714.778 55.8311ZM726.978 61.6758C726.274 61.6758 725.639 61.5615 725.07 61.333C724.508 61.0986 724.027 60.7734 723.629 60.3574C723.236 59.9414 722.935 59.4521 722.724 58.8896C722.513 58.3271 722.407 57.7207 722.407 57.0703V56.7188C722.407 55.9746 722.516 55.3008 722.732 54.6973C722.949 54.0938 723.251 53.5781 723.638 53.1504C724.024 52.7168 724.481 52.3857 725.009 52.1572C725.536 51.9287 726.107 51.8145 726.723 51.8145C727.402 51.8145 727.997 51.9287 728.507 52.1572C729.017 52.3857 729.438 52.708 729.772 53.124C730.112 53.5342 730.364 54.0234 730.528 54.5918C730.698 55.1602 730.783 55.7871 730.783 56.4727V57.3779H723.436V55.8574H728.691V55.6904C728.68 55.3096 728.604 54.9521 728.463 54.6182C728.328 54.2842 728.12 54.0146 727.839 53.8096C727.558 53.6045 727.183 53.502 726.714 53.502C726.362 53.502 726.049 53.5781 725.773 53.7305C725.504 53.877 725.278 54.0908 725.097 54.3721C724.915 54.6533 724.774 54.9932 724.675 55.3916C724.581 55.7842 724.534 56.2266 724.534 56.7188V57.0703C724.534 57.4863 724.59 57.873 724.701 58.2305C724.818 58.582 724.988 58.8896 725.211 59.1533C725.434 59.417 725.703 59.625 726.02 59.7773C726.336 59.9238 726.696 59.9971 727.101 59.9971C727.61 59.9971 728.064 59.8945 728.463 59.6895C728.861 59.4844 729.207 59.1943 729.5 58.8193L730.616 59.9004C730.411 60.1992 730.145 60.4863 729.816 60.7617C729.488 61.0312 729.087 61.251 728.612 61.4209C728.144 61.5908 727.599 61.6758 726.978 61.6758Z" fill="#5384ED"/>
<path d="M865 55L855 49.2265L855 60.7735L865 55ZM798.333 55C798.333 52.0545 795.946 49.6666 793 49.6666C790.054 49.6666 787.667 52.0545 787.667 55C787.667 57.9455 790.054 60.3333 793 60.3333C795.946 60.3333 798.333 57.9455 798.333 55ZM856 54L793 54L793 56L856 56L856 54Z" fill="#5384ED"/>
<rect x="865" y="32.5" width="246" height="45" rx="8" fill="#E2EDFD"/>
<path d="M918.656 48.7031V61.5H916.45V48.7031H918.656ZM923.288 54.0205V61.5H921.17V51.9902H923.165L923.288 54.0205ZM922.91 56.3936L922.225 56.3848C922.23 55.7109 922.324 55.0928 922.506 54.5303C922.693 53.9678 922.951 53.4844 923.279 53.0801C923.613 52.6758 924.012 52.3652 924.475 52.1484C924.938 51.9258 925.453 51.8145 926.021 51.8145C926.479 51.8145 926.892 51.8789 927.261 52.0078C927.636 52.1309 927.955 52.333 928.219 52.6143C928.488 52.8955 928.693 53.2617 928.834 53.7129C928.975 54.1582 929.045 54.7061 929.045 55.3564V61.5H926.918V55.3477C926.918 54.8906 926.851 54.5303 926.716 54.2666C926.587 53.9971 926.396 53.8066 926.145 53.6953C925.898 53.5781 925.591 53.5195 925.222 53.5195C924.858 53.5195 924.533 53.5957 924.246 53.748C923.959 53.9004 923.716 54.1084 923.517 54.3721C923.323 54.6357 923.174 54.9404 923.068 55.2861C922.963 55.6318 922.91 56.001 922.91 56.3936ZM935.566 51.9902V53.5371H930.205V51.9902H935.566ZM931.752 49.6611H933.87V58.8721C933.87 59.165 933.911 59.3906 933.993 59.5488C934.081 59.7012 934.201 59.8037 934.354 59.8564C934.506 59.9092 934.685 59.9355 934.89 59.9355C935.036 59.9355 935.177 59.9268 935.312 59.9092C935.446 59.8916 935.555 59.874 935.637 59.8564L935.646 61.4736C935.47 61.5264 935.265 61.5732 935.03 61.6143C934.802 61.6553 934.538 61.6758 934.239 61.6758C933.753 61.6758 933.322 61.5908 932.947 61.4209C932.572 61.2451 932.279 60.9609 932.068 60.5684C931.857 60.1758 931.752 59.6543 931.752 59.0039V49.6611ZM941.394 61.6758C940.69 61.6758 940.055 61.5615 939.486 61.333C938.924 61.0986 938.443 60.7734 938.045 60.3574C937.652 59.9414 937.351 59.4521 937.14 58.8896C936.929 58.3271 936.823 57.7207 936.823 57.0703V56.7188C936.823 55.9746 936.932 55.3008 937.148 54.6973C937.365 54.0938 937.667 53.5781 938.054 53.1504C938.44 52.7168 938.897 52.3857 939.425 52.1572C939.952 51.9287 940.523 51.8145 941.139 51.8145C941.818 51.8145 942.413 51.9287 942.923 52.1572C943.433 52.3857 943.854 52.708 944.188 53.124C944.528 53.5342 944.78 54.0234 944.944 54.5918C945.114 55.1602 945.199 55.7871 945.199 56.4727V57.3779H937.852V55.8574H943.107V55.6904C943.096 55.3096 943.02 54.9521 942.879 54.6182C942.744 54.2842 942.536 54.0146 942.255 53.8096C941.974 53.6045 941.599 53.502 941.13 53.502C940.778 53.502 940.465 53.5781 940.189 53.7305C939.92 53.877 939.694 54.0908 939.513 54.3721C939.331 54.6533 939.19 54.9932 939.091 55.3916C938.997 55.7842 938.95 56.2266 938.95 56.7188V57.0703C938.95 57.4863 939.006 57.873 939.117 58.2305C939.234 58.582 939.404 58.8896 939.627 59.1533C939.85 59.417 940.119 59.625 940.436 59.7773C940.752 59.9238 941.112 59.9971 941.517 59.9971C942.026 59.9971 942.48 59.8945 942.879 59.6895C943.277 59.4844 943.623 59.1943 943.916 58.8193L945.032 59.9004C944.827 60.1992 944.561 60.4863 944.232 60.7617C943.904 61.0312 943.503 61.251 943.028 61.4209C942.56 61.5908 942.015 61.6758 941.394 61.6758ZM948.979 53.8008V61.5H946.86V51.9902H948.882L948.979 53.8008ZM951.888 51.9287L951.87 53.8975C951.741 53.874 951.601 53.8564 951.448 53.8447C951.302 53.833 951.155 53.8271 951.009 53.8271C950.646 53.8271 950.326 53.8799 950.051 53.9854C949.775 54.085 949.544 54.2314 949.356 54.4248C949.175 54.6123 949.034 54.8408 948.935 55.1104C948.835 55.3799 948.776 55.6816 948.759 56.0156L948.275 56.0508C948.275 55.4531 948.334 54.8994 948.451 54.3896C948.568 53.8799 948.744 53.4316 948.979 53.0449C949.219 52.6582 949.518 52.3564 949.875 52.1396C950.238 51.9229 950.657 51.8145 951.132 51.8145C951.261 51.8145 951.398 51.8262 951.545 51.8496C951.697 51.873 951.812 51.8994 951.888 51.9287ZM956.467 59.8213L958.796 51.9902H960.993L957.688 61.5H956.317L956.467 59.8213ZM954.683 51.9902L957.056 59.8564L957.17 61.5H955.799L952.477 51.9902H954.683ZM964.57 51.9902V61.5H962.443V51.9902H964.57ZM962.303 49.4941C962.303 49.1719 962.408 48.9053 962.619 48.6943C962.836 48.4775 963.135 48.3691 963.516 48.3691C963.891 48.3691 964.187 48.4775 964.403 48.6943C964.62 48.9053 964.729 49.1719 964.729 49.4941C964.729 49.8105 964.62 50.0742 964.403 50.2852C964.187 50.4961 963.891 50.6016 963.516 50.6016C963.135 50.6016 962.836 50.4961 962.619 50.2852C962.408 50.0742 962.303 49.8105 962.303 49.4941ZM971.083 61.6758C970.38 61.6758 969.744 61.5615 969.176 61.333C968.613 61.0986 968.133 60.7734 967.734 60.3574C967.342 59.9414 967.04 59.4521 966.829 58.8896C966.618 58.3271 966.513 57.7207 966.513 57.0703V56.7188C966.513 55.9746 966.621 55.3008 966.838 54.6973C967.055 54.0938 967.356 53.5781 967.743 53.1504C968.13 52.7168 968.587 52.3857 969.114 52.1572C969.642 51.9287 970.213 51.8145 970.828 51.8145C971.508 51.8145 972.103 51.9287 972.612 52.1572C973.122 52.3857 973.544 52.708 973.878 53.124C974.218 53.5342 974.47 54.0234 974.634 54.5918C974.804 55.1602 974.889 55.7871 974.889 56.4727V57.3779H967.541V55.8574H972.797V55.6904C972.785 55.3096 972.709 54.9521 972.568 54.6182C972.434 54.2842 972.226 54.0146 971.944 53.8096C971.663 53.6045 971.288 53.502 970.819 53.502C970.468 53.502 970.154 53.5781 969.879 53.7305C969.609 53.877 969.384 54.0908 969.202 54.3721C969.021 54.6533 968.88 54.9932 968.78 55.3916C968.687 55.7842 968.64 56.2266 968.64 56.7188V57.0703C968.64 57.4863 968.695 57.873 968.807 58.2305C968.924 58.582 969.094 58.8896 969.316 59.1533C969.539 59.417 969.809 59.625 970.125 59.7773C970.441 59.9238 970.802 59.9971 971.206 59.9971C971.716 59.9971 972.17 59.8945 972.568 59.6895C972.967 59.4844 973.312 59.1943 973.605 58.8193L974.722 59.9004C974.517 60.1992 974.25 60.4863 973.922 60.7617C973.594 61.0312 973.192 61.251 972.718 61.4209C972.249 61.5908 971.704 61.6758 971.083 61.6758ZM979.125 59.3906L981.322 51.9902H982.676L982.307 54.2051L980.092 61.5H978.879L979.125 59.3906ZM977.833 51.9902L979.547 59.4258L979.688 61.5H978.334L975.759 51.9902H977.833ZM984.732 59.3379L986.394 51.9902H988.459L985.893 61.5H984.539L984.732 59.3379ZM982.904 51.9902L985.075 59.3027L985.348 61.5H984.135L981.894 54.1963L981.524 51.9902H982.904ZM1000.18 59.5312V48H1002.31V61.5H1000.39L1000.18 59.5312ZM993.996 56.8506V56.666C993.996 55.9453 994.081 55.2891 994.251 54.6973C994.421 54.0996 994.667 53.5869 994.989 53.1592C995.312 52.7256 995.704 52.3945 996.167 52.166C996.63 51.9316 997.151 51.8145 997.731 51.8145C998.306 51.8145 998.81 51.9258 999.243 52.1484C999.677 52.3711 1000.05 52.6904 1000.35 53.1064C1000.66 53.5166 1000.9 54.0088 1001.08 54.583C1001.26 55.1514 1001.39 55.7842 1001.47 56.4814V57.0703C1001.39 57.75 1001.26 58.3711 1001.08 58.9336C1000.9 59.4961 1000.66 59.9824 1000.35 60.3926C1000.05 60.8027 999.674 61.1191 999.234 61.3418C998.801 61.5645 998.294 61.6758 997.714 61.6758C997.14 61.6758 996.621 61.5557 996.158 61.3154C995.701 61.0752 995.312 60.7383 994.989 60.3047C994.667 59.8711 994.421 59.3613 994.251 58.7754C994.081 58.1836 993.996 57.542 993.996 56.8506ZM996.114 56.666V56.8506C996.114 57.2842 996.152 57.6885 996.229 58.0635C996.311 58.4385 996.437 58.7695 996.606 59.0566C996.776 59.3379 996.996 59.5605 997.266 59.7246C997.541 59.8828 997.869 59.9619 998.25 59.9619C998.73 59.9619 999.126 59.8564 999.437 59.6455C999.747 59.4346 999.99 59.1504 1000.17 58.793C1000.35 58.4297 1000.47 58.0254 1000.54 57.5801V55.9893C1000.5 55.6436 1000.43 55.3213 1000.32 55.0225C1000.21 54.7236 1000.07 54.4629 999.885 54.2402C999.703 54.0117 999.478 53.8359 999.208 53.7129C998.944 53.584 998.631 53.5195 998.268 53.5195C997.881 53.5195 997.553 53.6016 997.283 53.7656C997.014 53.9297 996.791 54.1553 996.615 54.4424C996.445 54.7295 996.319 55.0635 996.237 55.4443C996.155 55.8252 996.114 56.2324 996.114 56.666ZM1010.25 59.2588V51.9902H1012.37V61.5H1010.37L1010.25 59.2588ZM1010.55 57.2812L1011.26 57.2637C1011.26 57.9023 1011.19 58.4912 1011.05 59.0303C1010.91 59.5635 1010.69 60.0293 1010.4 60.4277C1010.1 60.8203 1009.73 61.1279 1009.27 61.3506C1008.81 61.5674 1008.27 61.6758 1007.63 61.6758C1007.17 61.6758 1006.74 61.6084 1006.35 61.4736C1005.97 61.3389 1005.63 61.1309 1005.35 60.8496C1005.08 60.5684 1004.86 60.2021 1004.71 59.751C1004.56 59.2998 1004.48 58.7607 1004.48 58.1338V51.9902H1006.6V58.1514C1006.6 58.4971 1006.64 58.7871 1006.72 59.0215C1006.8 59.25 1006.92 59.4346 1007.06 59.5752C1007.2 59.7158 1007.36 59.8154 1007.55 59.874C1007.74 59.9326 1007.94 59.9619 1008.15 59.9619C1008.75 59.9619 1009.22 59.8447 1009.57 59.6104C1009.92 59.3701 1010.17 59.0479 1010.32 58.6436C1010.47 58.2393 1010.55 57.7852 1010.55 57.2812ZM1016.67 53.8008V61.5H1014.55V51.9902H1016.58L1016.67 53.8008ZM1019.58 51.9287L1019.56 53.8975C1019.43 53.874 1019.29 53.8564 1019.14 53.8447C1019 53.833 1018.85 53.8271 1018.7 53.8271C1018.34 53.8271 1018.02 53.8799 1017.74 53.9854C1017.47 54.085 1017.24 54.2314 1017.05 54.4248C1016.87 54.6123 1016.73 54.8408 1016.63 55.1104C1016.53 55.3799 1016.47 55.6816 1016.45 56.0156L1015.97 56.0508C1015.97 55.4531 1016.03 54.8994 1016.14 54.3896C1016.26 53.8799 1016.44 53.4316 1016.67 53.0449C1016.91 52.6582 1017.21 52.3564 1017.57 52.1396C1017.93 51.9229 1018.35 51.8145 1018.83 51.8145C1018.95 51.8145 1019.09 51.8262 1019.24 51.8496C1019.39 51.873 1019.5 51.8994 1019.58 51.9287ZM1025.95 59.5928V55.0576C1025.95 54.7178 1025.89 54.4248 1025.77 54.1787C1025.65 53.9326 1025.46 53.7422 1025.21 53.6074C1024.96 53.4727 1024.65 53.4053 1024.27 53.4053C1023.93 53.4053 1023.63 53.4639 1023.38 53.5811C1023.13 53.6982 1022.93 53.8564 1022.79 54.0557C1022.65 54.2549 1022.58 54.4805 1022.58 54.7324H1020.47C1020.47 54.3574 1020.56 53.9941 1020.74 53.6426C1020.92 53.291 1021.19 52.9775 1021.53 52.7021C1021.88 52.4268 1022.29 52.21 1022.77 52.0518C1023.25 51.8936 1023.79 51.8145 1024.39 51.8145C1025.1 51.8145 1025.74 51.9346 1026.29 52.1748C1026.84 52.415 1027.28 52.7783 1027.6 53.2646C1027.92 53.7451 1028.08 54.3486 1028.08 55.0752V59.3027C1028.08 59.7363 1028.11 60.126 1028.17 60.4717C1028.23 60.8115 1028.32 61.1074 1028.44 61.3594V61.5H1026.27C1026.17 61.2715 1026.09 60.9814 1026.03 60.6299C1025.98 60.2725 1025.95 59.9268 1025.95 59.5928ZM1026.26 55.7168L1026.28 57.0264H1024.76C1024.37 57.0264 1024.02 57.0645 1023.72 57.1406C1023.42 57.2109 1023.17 57.3164 1022.97 57.457C1022.77 57.5977 1022.62 57.7676 1022.53 57.9668C1022.43 58.166 1022.38 58.3916 1022.38 58.6436C1022.38 58.8955 1022.43 59.127 1022.55 59.3379C1022.67 59.543 1022.84 59.7041 1023.06 59.8213C1023.29 59.9385 1023.57 59.9971 1023.89 59.9971C1024.32 59.9971 1024.7 59.9092 1025.02 59.7334C1025.35 59.5518 1025.61 59.332 1025.79 59.0742C1025.98 58.8105 1026.08 58.5615 1026.09 58.3271L1026.78 59.2676C1026.71 59.5078 1026.59 59.7656 1026.42 60.041C1026.25 60.3164 1026.03 60.5801 1025.75 60.832C1025.48 61.0781 1025.16 61.2803 1024.78 61.4385C1024.4 61.5967 1023.97 61.6758 1023.47 61.6758C1022.85 61.6758 1022.3 61.5527 1021.81 61.3066C1021.33 61.0547 1020.95 60.7178 1020.67 60.2959C1020.4 59.8682 1020.26 59.3848 1020.26 58.8457C1020.26 58.3418 1020.35 57.8965 1020.54 57.5098C1020.73 57.1172 1021.01 56.7891 1021.38 56.5254C1021.76 56.2617 1022.21 56.0625 1022.75 55.9277C1023.29 55.7871 1023.91 55.7168 1024.6 55.7168H1026.26ZM1034.65 51.9902V53.5371H1029.29V51.9902H1034.65ZM1030.84 49.6611H1032.96V58.8721C1032.96 59.165 1033 59.3906 1033.08 59.5488C1033.17 59.7012 1033.29 59.8037 1033.44 59.8564C1033.59 59.9092 1033.77 59.9355 1033.98 59.9355C1034.12 59.9355 1034.26 59.9268 1034.4 59.9092C1034.53 59.8916 1034.64 59.874 1034.72 59.8564L1034.73 61.4736C1034.56 61.5264 1034.35 61.5732 1034.12 61.6143C1033.89 61.6553 1033.63 61.6758 1033.33 61.6758C1032.84 61.6758 1032.41 61.5908 1032.04 61.4209C1031.66 61.2451 1031.37 60.9609 1031.16 60.5684C1030.95 60.1758 1030.84 59.6543 1030.84 59.0039V49.6611ZM1038.56 51.9902V61.5H1036.43V51.9902H1038.56ZM1036.29 49.4941C1036.29 49.1719 1036.39 48.9053 1036.61 48.6943C1036.82 48.4775 1037.12 48.3691 1037.5 48.3691C1037.88 48.3691 1038.17 48.4775 1038.39 48.6943C1038.61 48.9053 1038.71 49.1719 1038.71 49.4941C1038.71 49.8105 1038.61 50.0742 1038.39 50.2852C1038.17 50.4961 1037.88 50.6016 1037.5 50.6016C1037.12 50.6016 1036.82 50.4961 1036.61 50.2852C1036.39 50.0742 1036.29 49.8105 1036.29 49.4941ZM1040.47 56.8506V56.6484C1040.47 55.9629 1040.57 55.3271 1040.77 54.7412C1040.97 54.1494 1041.26 53.6367 1041.63 53.2031C1042.01 52.7637 1042.48 52.4238 1043.02 52.1836C1043.57 51.9375 1044.19 51.8145 1044.88 51.8145C1045.58 51.8145 1046.2 51.9375 1046.75 52.1836C1047.3 52.4238 1047.76 52.7637 1048.15 53.2031C1048.53 53.6367 1048.82 54.1494 1049.02 54.7412C1049.21 55.3271 1049.31 55.9629 1049.31 56.6484V56.8506C1049.31 57.5361 1049.21 58.1719 1049.02 58.7578C1048.82 59.3438 1048.53 59.8564 1048.15 60.2959C1047.76 60.7295 1047.3 61.0693 1046.76 61.3154C1046.21 61.5557 1045.59 61.6758 1044.9 61.6758C1044.21 61.6758 1043.58 61.5557 1043.03 61.3154C1042.49 61.0693 1042.02 60.7295 1041.64 60.2959C1041.26 59.8564 1040.97 59.3438 1040.77 58.7578C1040.57 58.1719 1040.47 57.5361 1040.47 56.8506ZM1042.59 56.6484V56.8506C1042.59 57.2783 1042.63 57.6826 1042.72 58.0635C1042.81 58.4443 1042.95 58.7783 1043.14 59.0654C1043.32 59.3525 1043.56 59.5781 1043.86 59.7422C1044.15 59.9062 1044.5 59.9883 1044.9 59.9883C1045.29 59.9883 1045.63 59.9062 1045.92 59.7422C1046.21 59.5781 1046.46 59.3525 1046.64 59.0654C1046.83 58.7783 1046.97 58.4443 1047.06 58.0635C1047.15 57.6826 1047.2 57.2783 1047.2 56.8506V56.6484C1047.2 56.2266 1047.15 55.8281 1047.06 55.4531C1046.97 55.0723 1046.83 54.7354 1046.63 54.4424C1046.45 54.1494 1046.21 53.9209 1045.91 53.7568C1045.63 53.5869 1045.28 53.502 1044.88 53.502C1044.49 53.502 1044.14 53.5869 1043.85 53.7568C1043.56 53.9209 1043.32 54.1494 1043.14 54.4424C1042.95 54.7354 1042.81 55.0723 1042.72 55.4531C1042.63 55.8281 1042.59 56.2266 1042.59 56.6484ZM1053.19 54.0205V61.5H1051.07V51.9902H1053.07L1053.19 54.0205ZM1052.81 56.3936L1052.13 56.3848C1052.13 55.7109 1052.23 55.0928 1052.41 54.5303C1052.6 53.9678 1052.85 53.4844 1053.18 53.0801C1053.52 52.6758 1053.91 52.3652 1054.38 52.1484C1054.84 51.9258 1055.36 51.8145 1055.92 51.8145C1056.38 51.8145 1056.79 51.8789 1057.16 52.0078C1057.54 52.1309 1057.86 52.333 1058.12 52.6143C1058.39 52.8955 1058.6 53.2617 1058.74 53.7129C1058.88 54.1582 1058.95 54.7061 1058.95 55.3564V61.5H1056.82V55.3477C1056.82 54.8906 1056.75 54.5303 1056.62 54.2666C1056.49 53.9971 1056.3 53.8066 1056.05 53.6953C1055.8 53.5781 1055.49 53.5195 1055.12 53.5195C1054.76 53.5195 1054.44 53.5957 1054.15 53.748C1053.86 53.9004 1053.62 54.1084 1053.42 54.3721C1053.23 54.6357 1053.08 54.9404 1052.97 55.2861C1052.87 55.6318 1052.81 56.001 1052.81 56.3936Z" fill="#5384ED"/>
<path d="M1183 55L1173 49.2265L1173 60.7735L1183 55ZM1116.33 55C1116.33 52.0545 1113.95 49.6666 1111 49.6666C1108.05 49.6666 1105.67 52.0545 1105.67 55C1105.67 57.9455 1108.05 60.3333 1111 60.3333C1113.95 60.3333 1116.33 57.9455 1116.33 55ZM1174 54L1111 54L1111 56L1174 56L1174 54Z" fill="#5384ED"/>
<rect x="1183" y="32.5" width="246" height="45" rx="8" fill="#E2EDFD"/>
<path d="M1209.3 48.7031H1213.83C1214.8 48.7031 1215.63 48.8496 1216.31 49.1426C1217 49.4355 1217.52 49.8691 1217.89 50.4434C1218.26 51.0117 1218.44 51.7148 1218.44 52.5527C1218.44 53.1914 1218.32 53.7539 1218.09 54.2402C1217.86 54.7266 1217.52 55.1367 1217.1 55.4707C1216.67 55.7988 1216.16 56.0537 1215.57 56.2354L1214.9 56.5605H1210.83L1210.81 54.8115H1213.86C1214.39 54.8115 1214.83 54.7178 1215.18 54.5303C1215.53 54.3428 1215.8 54.0879 1215.97 53.7656C1216.15 53.4375 1216.24 53.0684 1216.24 52.6582C1216.24 52.2129 1216.16 51.8262 1215.98 51.498C1215.81 51.1641 1215.55 50.9092 1215.19 50.7334C1214.83 50.5518 1214.38 50.4609 1213.83 50.4609H1211.51V61.5H1209.3V48.7031ZM1216.6 61.5L1213.6 55.752L1215.91 55.7432L1218.96 61.3857V61.5H1216.6ZM1224.62 61.6758C1223.92 61.6758 1223.28 61.5615 1222.71 61.333C1222.15 61.0986 1221.67 60.7734 1221.27 60.3574C1220.88 59.9414 1220.58 59.4521 1220.37 58.8896C1220.16 58.3271 1220.05 57.7207 1220.05 57.0703V56.7188C1220.05 55.9746 1220.16 55.3008 1220.38 54.6973C1220.59 54.0938 1220.89 53.5781 1221.28 53.1504C1221.67 52.7168 1222.12 52.3857 1222.65 52.1572C1223.18 51.9287 1223.75 51.8145 1224.37 51.8145C1225.04 51.8145 1225.64 51.9287 1226.15 52.1572C1226.66 52.3857 1227.08 52.708 1227.42 53.124C1227.75 53.5342 1228.01 54.0234 1228.17 54.5918C1228.34 55.1602 1228.43 55.7871 1228.43 56.4727V57.3779H1221.08V55.8574H1226.33V55.6904C1226.32 55.3096 1226.25 54.9521 1226.11 54.6182C1225.97 54.2842 1225.76 54.0146 1225.48 53.8096C1225.2 53.6045 1224.83 53.502 1224.36 53.502C1224 53.502 1223.69 53.5781 1223.42 53.7305C1223.15 53.877 1222.92 54.0908 1222.74 54.3721C1222.56 54.6533 1222.42 54.9932 1222.32 55.3916C1222.22 55.7842 1222.18 56.2266 1222.18 56.7188V57.0703C1222.18 57.4863 1222.23 57.873 1222.34 58.2305C1222.46 58.582 1222.63 58.8896 1222.85 59.1533C1223.08 59.417 1223.35 59.625 1223.66 59.7773C1223.98 59.9238 1224.34 59.9971 1224.74 59.9971C1225.25 59.9971 1225.71 59.8945 1226.11 59.6895C1226.5 59.4844 1226.85 59.1943 1227.14 58.8193L1228.26 59.9004C1228.05 60.1992 1227.79 60.4863 1227.46 60.7617C1227.13 61.0312 1226.73 61.251 1226.25 61.4209C1225.79 61.5908 1225.24 61.6758 1224.62 61.6758ZM1235.87 65.1562V53.8799L1236.12 51.9902H1238.01V65.1562H1235.87ZM1229.69 56.8418V56.6572C1229.69 55.9365 1229.77 55.2803 1229.94 54.6885C1230.1 54.0908 1230.34 53.5781 1230.67 53.1504C1230.99 52.7227 1231.38 52.3945 1231.84 52.166C1232.31 51.9316 1232.84 51.8145 1233.44 51.8145C1234.03 51.8145 1234.54 51.9258 1234.97 52.1484C1235.41 52.3711 1235.78 52.6904 1236.08 53.1064C1236.39 53.5166 1236.63 54.0059 1236.81 54.5742C1236.99 55.1426 1237.12 55.7754 1237.21 56.4727V57.0615C1237.13 57.7412 1237 58.3623 1236.82 58.9248C1236.64 59.4873 1236.39 59.9736 1236.09 60.3838C1235.79 60.7939 1235.41 61.1133 1234.97 61.3418C1234.53 61.5645 1234.02 61.6758 1233.43 61.6758C1232.83 61.6758 1232.31 61.5557 1231.84 61.3154C1231.38 61.0752 1230.99 60.7383 1230.67 60.3047C1230.35 59.8652 1230.11 59.3525 1229.94 58.7666C1229.77 58.1748 1229.69 57.5332 1229.69 56.8418ZM1231.81 56.6572V56.8418C1231.81 57.2754 1231.85 57.6826 1231.92 58.0635C1232.01 58.4385 1232.13 58.7725 1232.31 59.0654C1232.49 59.3525 1232.71 59.5781 1232.98 59.7422C1233.25 59.9062 1233.57 59.9883 1233.95 59.9883C1234.45 59.9883 1234.86 59.8799 1235.18 59.6631C1235.5 59.4463 1235.74 59.1562 1235.91 58.793C1236.09 58.4238 1236.21 58.0166 1236.28 57.5713V55.9805C1236.24 55.6348 1236.17 55.3125 1236.06 55.0137C1235.96 54.709 1235.81 54.4453 1235.62 54.2227C1235.44 53.9941 1235.21 53.8184 1234.94 53.6953C1234.67 53.5664 1234.35 53.502 1233.97 53.502C1233.59 53.502 1233.26 53.584 1232.99 53.748C1232.71 53.9121 1232.49 54.1406 1232.31 54.4336C1232.14 54.7207 1232.01 55.0547 1231.93 55.4355C1231.85 55.8164 1231.81 56.2236 1231.81 56.6572ZM1246 59.2588V51.9902H1248.12V61.5H1246.12L1246 59.2588ZM1246.29 57.2812L1247.01 57.2637C1247.01 57.9023 1246.94 58.4912 1246.79 59.0303C1246.65 59.5635 1246.44 60.0293 1246.14 60.4277C1245.85 60.8203 1245.48 61.1279 1245.02 61.3506C1244.56 61.5674 1244.01 61.6758 1243.38 61.6758C1242.91 61.6758 1242.49 61.6084 1242.1 61.4736C1241.71 61.3389 1241.38 61.1309 1241.1 60.8496C1240.82 60.5684 1240.61 60.2021 1240.46 59.751C1240.31 59.2998 1240.23 58.7607 1240.23 58.1338V51.9902H1242.35V58.1514C1242.35 58.4971 1242.39 58.7871 1242.47 59.0215C1242.55 59.25 1242.66 59.4346 1242.8 59.5752C1242.95 59.7158 1243.11 59.8154 1243.3 59.874C1243.48 59.9326 1243.68 59.9619 1243.89 59.9619C1244.5 59.9619 1244.97 59.8447 1245.32 59.6104C1245.67 59.3701 1245.92 59.0479 1246.07 58.6436C1246.22 58.2393 1246.29 57.7852 1246.29 57.2812ZM1252.56 51.9902V61.5H1250.43V51.9902H1252.56ZM1250.29 49.4941C1250.29 49.1719 1250.4 48.9053 1250.61 48.6943C1250.83 48.4775 1251.12 48.3691 1251.51 48.3691C1251.88 48.3691 1252.18 48.4775 1252.39 48.6943C1252.61 48.9053 1252.72 49.1719 1252.72 49.4941C1252.72 49.8105 1252.61 50.0742 1252.39 50.2852C1252.18 50.4961 1251.88 50.6016 1251.51 50.6016C1251.12 50.6016 1250.83 50.4961 1250.61 50.2852C1250.4 50.0742 1250.29 49.8105 1250.29 49.4941ZM1257.01 53.8008V61.5H1254.89V51.9902H1256.91L1257.01 53.8008ZM1259.92 51.9287L1259.9 53.8975C1259.77 53.874 1259.63 53.8564 1259.48 53.8447C1259.33 53.833 1259.18 53.8271 1259.04 53.8271C1258.67 53.8271 1258.36 53.8799 1258.08 53.9854C1257.8 54.085 1257.57 54.2314 1257.39 54.4248C1257.2 54.6123 1257.06 54.8408 1256.96 55.1104C1256.86 55.3799 1256.81 55.6816 1256.79 56.0156L1256.3 56.0508C1256.3 55.4531 1256.36 54.8994 1256.48 54.3896C1256.6 53.8799 1256.77 53.4316 1257.01 53.0449C1257.25 52.6582 1257.55 52.3564 1257.9 52.1396C1258.27 51.9229 1258.69 51.8145 1259.16 51.8145C1259.29 51.8145 1259.43 51.8262 1259.57 51.8496C1259.73 51.873 1259.84 51.8994 1259.92 51.9287ZM1265.26 61.6758C1264.56 61.6758 1263.92 61.5615 1263.35 61.333C1262.79 61.0986 1262.31 60.7734 1261.91 60.3574C1261.52 59.9414 1261.22 59.4521 1261.01 58.8896C1260.8 58.3271 1260.69 57.7207 1260.69 57.0703V56.7188C1260.69 55.9746 1260.8 55.3008 1261.02 54.6973C1261.23 54.0938 1261.53 53.5781 1261.92 53.1504C1262.31 52.7168 1262.76 52.3857 1263.29 52.1572C1263.82 51.9287 1264.39 51.8145 1265.01 51.8145C1265.69 51.8145 1266.28 51.9287 1266.79 52.1572C1267.3 52.3857 1267.72 52.708 1268.06 53.124C1268.4 53.5342 1268.65 54.0234 1268.81 54.5918C1268.98 55.1602 1269.07 55.7871 1269.07 56.4727V57.3779H1261.72V55.8574H1266.97V55.6904C1266.96 55.3096 1266.89 54.9521 1266.75 54.6182C1266.61 54.2842 1266.4 54.0146 1266.12 53.8096C1265.84 53.6045 1265.47 53.502 1265 53.502C1264.65 53.502 1264.33 53.5781 1264.06 53.7305C1263.79 53.877 1263.56 54.0908 1263.38 54.3721C1263.2 54.6533 1263.06 54.9932 1262.96 55.3916C1262.86 55.7842 1262.82 56.2266 1262.82 56.7188V57.0703C1262.82 57.4863 1262.87 57.873 1262.98 58.2305C1263.1 58.582 1263.27 58.8896 1263.49 59.1533C1263.72 59.417 1263.99 59.625 1264.3 59.7773C1264.62 59.9238 1264.98 59.9971 1265.38 59.9971C1265.89 59.9971 1266.35 59.8945 1266.75 59.6895C1267.14 59.4844 1267.49 59.1943 1267.78 58.8193L1268.9 59.9004C1268.69 60.1992 1268.43 60.4863 1268.1 60.7617C1267.77 61.0312 1267.37 61.251 1266.9 61.4209C1266.43 61.5908 1265.88 61.6758 1265.26 61.6758ZM1276.52 59.5312V48H1278.65V61.5H1276.72L1276.52 59.5312ZM1270.33 56.8506V56.666C1270.33 55.9453 1270.42 55.2891 1270.59 54.6973C1270.76 54.0996 1271 53.5869 1271.33 53.1592C1271.65 52.7256 1272.04 52.3945 1272.5 52.166C1272.97 51.9316 1273.49 51.8145 1274.07 51.8145C1274.64 51.8145 1275.15 51.9258 1275.58 52.1484C1276.01 52.3711 1276.38 52.6904 1276.69 53.1064C1276.99 53.5166 1277.23 54.0088 1277.42 54.583C1277.6 55.1514 1277.73 55.7842 1277.8 56.4814V57.0703C1277.73 57.75 1277.6 58.3711 1277.42 58.9336C1277.23 59.4961 1276.99 59.9824 1276.69 60.3926C1276.38 60.8027 1276.01 61.1191 1275.57 61.3418C1275.14 61.5645 1274.63 61.6758 1274.05 61.6758C1273.48 61.6758 1272.96 61.5557 1272.49 61.3154C1272.04 61.0752 1271.65 60.7383 1271.33 60.3047C1271 59.8711 1270.76 59.3613 1270.59 58.7754C1270.42 58.1836 1270.33 57.542 1270.33 56.8506ZM1272.45 56.666V56.8506C1272.45 57.2842 1272.49 57.6885 1272.56 58.0635C1272.65 58.4385 1272.77 58.7695 1272.94 59.0566C1273.11 59.3379 1273.33 59.5605 1273.6 59.7246C1273.88 59.8828 1274.21 59.9619 1274.59 59.9619C1275.07 59.9619 1275.46 59.8564 1275.77 59.6455C1276.08 59.4346 1276.33 59.1504 1276.5 58.793C1276.68 58.4297 1276.81 58.0254 1276.87 57.5801V55.9893C1276.84 55.6436 1276.76 55.3213 1276.65 55.0225C1276.55 54.7236 1276.4 54.4629 1276.22 54.2402C1276.04 54.0117 1275.81 53.8359 1275.54 53.7129C1275.28 53.584 1274.97 53.5195 1274.6 53.5195C1274.22 53.5195 1273.89 53.6016 1273.62 53.7656C1273.35 53.9297 1273.13 54.1553 1272.95 54.4424C1272.78 54.7295 1272.66 55.0635 1272.57 55.4443C1272.49 55.8252 1272.45 56.2324 1272.45 56.666ZM1287.61 51.9902V61.5H1285.48V51.9902H1287.61ZM1285.34 49.4941C1285.34 49.1719 1285.45 48.9053 1285.66 48.6943C1285.88 48.4775 1286.18 48.3691 1286.56 48.3691C1286.93 48.3691 1287.23 48.4775 1287.44 48.6943C1287.66 48.9053 1287.77 49.1719 1287.77 49.4941C1287.77 49.8105 1287.66 50.0742 1287.44 50.2852C1287.23 50.4961 1286.93 50.6016 1286.56 50.6016C1286.18 50.6016 1285.88 50.4961 1285.66 50.2852C1285.45 50.0742 1285.34 49.8105 1285.34 49.4941ZM1292.03 54.0205V61.5H1289.91V51.9902H1291.91L1292.03 54.0205ZM1291.65 56.3936L1290.97 56.3848C1290.97 55.7109 1291.07 55.0928 1291.25 54.5303C1291.44 53.9678 1291.7 53.4844 1292.02 53.0801C1292.36 52.6758 1292.76 52.3652 1293.22 52.1484C1293.68 51.9258 1294.2 51.8145 1294.77 51.8145C1295.22 51.8145 1295.64 51.8789 1296 52.0078C1296.38 52.1309 1296.7 52.333 1296.96 52.6143C1297.23 52.8955 1297.44 53.2617 1297.58 53.7129C1297.72 54.1582 1297.79 54.7061 1297.79 55.3564V61.5H1295.66V55.3477C1295.66 54.8906 1295.59 54.5303 1295.46 54.2666C1295.33 53.9971 1295.14 53.8066 1294.89 53.6953C1294.64 53.5781 1294.33 53.5195 1293.97 53.5195C1293.6 53.5195 1293.28 53.5957 1292.99 53.748C1292.7 53.9004 1292.46 54.1084 1292.26 54.3721C1292.07 54.6357 1291.92 54.9404 1291.81 55.2861C1291.71 55.6318 1291.65 56.001 1291.65 56.3936ZM1304.31 51.9902V53.5371H1298.95V51.9902H1304.31ZM1300.5 49.6611H1302.61V58.8721C1302.61 59.165 1302.66 59.3906 1302.74 59.5488C1302.83 59.7012 1302.95 59.8037 1303.1 59.8564C1303.25 59.9092 1303.43 59.9355 1303.63 59.9355C1303.78 59.9355 1303.92 59.9268 1304.06 59.9092C1304.19 59.8916 1304.3 59.874 1304.38 59.8564L1304.39 61.4736C1304.21 61.5264 1304.01 61.5732 1303.77 61.6143C1303.55 61.6553 1303.28 61.6758 1302.98 61.6758C1302.5 61.6758 1302.07 61.5908 1301.69 61.4209C1301.32 61.2451 1301.02 60.9609 1300.81 60.5684C1300.6 60.1758 1300.5 59.6543 1300.5 59.0039V49.6611ZM1310.14 61.6758C1309.43 61.6758 1308.8 61.5615 1308.23 61.333C1307.67 61.0986 1307.19 60.7734 1306.79 60.3574C1306.4 59.9414 1306.09 59.4521 1305.88 58.8896C1305.67 58.3271 1305.57 57.7207 1305.57 57.0703V56.7188C1305.57 55.9746 1305.68 55.3008 1305.89 54.6973C1306.11 54.0938 1306.41 53.5781 1306.8 53.1504C1307.18 52.7168 1307.64 52.3857 1308.17 52.1572C1308.7 51.9287 1309.27 51.8145 1309.88 51.8145C1310.56 51.8145 1311.16 51.9287 1311.67 52.1572C1312.18 52.3857 1312.6 52.708 1312.93 53.124C1313.27 53.5342 1313.52 54.0234 1313.69 54.5918C1313.86 55.1602 1313.94 55.7871 1313.94 56.4727V57.3779H1306.6V55.8574H1311.85V55.6904C1311.84 55.3096 1311.76 54.9521 1311.62 54.6182C1311.49 54.2842 1311.28 54.0146 1311 53.8096C1310.72 53.6045 1310.34 53.502 1309.87 53.502C1309.52 53.502 1309.21 53.5781 1308.93 53.7305C1308.66 53.877 1308.44 54.0908 1308.26 54.3721C1308.08 54.6533 1307.93 54.9932 1307.83 55.3916C1307.74 55.7842 1307.69 56.2266 1307.69 56.7188V57.0703C1307.69 57.4863 1307.75 57.873 1307.86 58.2305C1307.98 58.582 1308.15 58.8896 1308.37 59.1533C1308.59 59.417 1308.86 59.625 1309.18 59.7773C1309.5 59.9238 1309.86 59.9971 1310.26 59.9971C1310.77 59.9971 1311.22 59.8945 1311.62 59.6895C1312.02 59.4844 1312.37 59.1943 1312.66 58.8193L1313.78 59.9004C1313.57 60.1992 1313.3 60.4863 1312.98 60.7617C1312.65 61.0312 1312.25 61.251 1311.77 61.4209C1311.3 61.5908 1310.76 61.6758 1310.14 61.6758ZM1317.72 53.8008V61.5H1315.6V51.9902H1317.63L1317.72 53.8008ZM1320.63 51.9287L1320.61 53.8975C1320.49 53.874 1320.34 53.8564 1320.19 53.8447C1320.05 53.833 1319.9 53.8271 1319.75 53.8271C1319.39 53.8271 1319.07 53.8799 1318.79 53.9854C1318.52 54.085 1318.29 54.2314 1318.1 54.4248C1317.92 54.6123 1317.78 54.8408 1317.68 55.1104C1317.58 55.3799 1317.52 55.6816 1317.5 56.0156L1317.02 56.0508C1317.02 55.4531 1317.08 54.8994 1317.2 54.3896C1317.31 53.8799 1317.49 53.4316 1317.72 53.0449C1317.96 52.6582 1318.26 52.3564 1318.62 52.1396C1318.98 51.9229 1319.4 51.8145 1319.88 51.8145C1320 51.8145 1320.14 51.8262 1320.29 51.8496C1320.44 51.873 1320.56 51.8994 1320.63 51.9287ZM1325.21 59.8213L1327.54 51.9902H1329.74L1326.43 61.5H1325.06L1325.21 59.8213ZM1323.43 51.9902L1325.8 59.8564L1325.91 61.5H1324.54L1321.22 51.9902H1323.43ZM1333.31 51.9902V61.5H1331.19V51.9902H1333.31ZM1331.05 49.4941C1331.05 49.1719 1331.15 48.9053 1331.36 48.6943C1331.58 48.4775 1331.88 48.3691 1332.26 48.3691C1332.63 48.3691 1332.93 48.4775 1333.15 48.6943C1333.36 48.9053 1333.47 49.1719 1333.47 49.4941C1333.47 49.8105 1333.36 50.0742 1333.15 50.2852C1332.93 50.4961 1332.63 50.6016 1332.26 50.6016C1331.88 50.6016 1331.58 50.4961 1331.36 50.2852C1331.15 50.0742 1331.05 49.8105 1331.05 49.4941ZM1339.83 61.6758C1339.12 61.6758 1338.49 61.5615 1337.92 61.333C1337.36 61.0986 1336.88 60.7734 1336.48 60.3574C1336.09 59.9414 1335.78 59.4521 1335.57 58.8896C1335.36 58.3271 1335.26 57.7207 1335.26 57.0703V56.7188C1335.26 55.9746 1335.37 55.3008 1335.58 54.6973C1335.8 54.0938 1336.1 53.5781 1336.49 53.1504C1336.87 52.7168 1337.33 52.3857 1337.86 52.1572C1338.39 51.9287 1338.96 51.8145 1339.57 51.8145C1340.25 51.8145 1340.85 51.9287 1341.36 52.1572C1341.87 52.3857 1342.29 52.708 1342.62 53.124C1342.96 53.5342 1343.21 54.0234 1343.38 54.5918C1343.55 55.1602 1343.63 55.7871 1343.63 56.4727V57.3779H1336.29V55.8574H1341.54V55.6904C1341.53 55.3096 1341.45 54.9521 1341.31 54.6182C1341.18 54.2842 1340.97 54.0146 1340.69 53.8096C1340.41 53.6045 1340.03 53.502 1339.56 53.502C1339.21 53.502 1338.9 53.5781 1338.62 53.7305C1338.35 53.877 1338.13 54.0908 1337.95 54.3721C1337.76 54.6533 1337.62 54.9932 1337.52 55.3916C1337.43 55.7842 1337.38 56.2266 1337.38 56.7188V57.0703C1337.38 57.4863 1337.44 57.873 1337.55 58.2305C1337.67 58.582 1337.84 58.8896 1338.06 59.1533C1338.28 59.417 1338.55 59.625 1338.87 59.7773C1339.19 59.9238 1339.55 59.9971 1339.95 59.9971C1340.46 59.9971 1340.91 59.8945 1341.31 59.6895C1341.71 59.4844 1342.06 59.1943 1342.35 58.8193L1343.47 59.9004C1343.26 60.1992 1342.99 60.4863 1342.67 60.7617C1342.34 61.0312 1341.94 61.251 1341.46 61.4209C1340.99 61.5908 1340.45 61.6758 1339.83 61.6758ZM1347.87 59.3906L1350.07 51.9902H1351.42L1351.05 54.2051L1348.84 61.5H1347.62L1347.87 59.3906ZM1346.58 51.9902L1348.29 59.4258L1348.43 61.5H1347.08L1344.5 51.9902H1346.58ZM1353.48 59.3379L1355.14 51.9902H1357.2L1354.64 61.5H1353.28L1353.48 59.3379ZM1351.65 51.9902L1353.82 59.3027L1354.09 61.5H1352.88L1350.64 54.1963L1350.27 51.9902H1351.65ZM1368.46 58.9248C1368.46 58.7139 1368.41 58.5234 1368.3 58.3535C1368.2 58.1777 1368 58.0195 1367.7 57.8789C1367.4 57.7383 1366.97 57.6094 1366.4 57.4922C1365.89 57.3809 1365.43 57.249 1365.01 57.0967C1364.59 56.9385 1364.23 56.748 1363.94 56.5254C1363.64 56.3027 1363.41 56.0391 1363.24 55.7344C1363.08 55.4297 1363 55.0781 1363 54.6797C1363 54.293 1363.08 53.9268 1363.25 53.5811C1363.42 53.2354 1363.66 52.9307 1363.98 52.667C1364.3 52.4033 1364.68 52.1953 1365.13 52.043C1365.59 51.8906 1366.1 51.8145 1366.66 51.8145C1367.46 51.8145 1368.14 51.9492 1368.71 52.2188C1369.28 52.4824 1369.72 52.8428 1370.03 53.2998C1370.33 53.751 1370.48 54.2607 1370.48 54.8291H1368.37C1368.37 54.5771 1368.3 54.3428 1368.17 54.126C1368.05 53.9033 1367.86 53.7246 1367.61 53.5898C1367.36 53.4492 1367.04 53.3789 1366.66 53.3789C1366.3 53.3789 1366 53.4375 1365.75 53.5547C1365.52 53.666 1365.34 53.8125 1365.23 53.9941C1365.12 54.1758 1365.06 54.375 1365.06 54.5918C1365.06 54.75 1365.09 54.8936 1365.15 55.0225C1365.21 55.1455 1365.32 55.2598 1365.46 55.3652C1365.61 55.4648 1365.81 55.5586 1366.06 55.6465C1366.32 55.7344 1366.64 55.8193 1367.03 55.9014C1367.76 56.0537 1368.38 56.25 1368.9 56.4902C1369.43 56.7246 1369.83 57.0293 1370.11 57.4043C1370.4 57.7734 1370.54 58.2422 1370.54 58.8105C1370.54 59.2324 1370.45 59.6191 1370.26 59.9707C1370.09 60.3164 1369.83 60.6182 1369.49 60.876C1369.15 61.1279 1368.74 61.3242 1368.27 61.4648C1367.8 61.6055 1367.27 61.6758 1366.69 61.6758C1365.83 61.6758 1365.1 61.5234 1364.5 61.2188C1363.9 60.9082 1363.45 60.5127 1363.14 60.0322C1362.83 59.5459 1362.68 59.042 1362.68 58.5205H1364.73C1364.75 58.9131 1364.86 59.2266 1365.05 59.4609C1365.25 59.6895 1365.5 59.8564 1365.79 59.9619C1366.09 60.0615 1366.4 60.1113 1366.71 60.1113C1367.09 60.1113 1367.41 60.0615 1367.67 59.9619C1367.93 59.8564 1368.12 59.7158 1368.26 59.54C1368.39 59.3584 1368.46 59.1533 1368.46 58.9248ZM1374.53 48V61.5H1372.4V48H1374.53ZM1380.43 51.9902L1376.29 56.5781L1374.03 58.8984L1373.47 57.1055L1375.19 54.9873L1377.88 51.9902H1380.43ZM1378.33 61.5L1375.25 57.0352L1376.58 55.5498L1380.78 61.5H1378.33ZM1384.04 51.9902V61.5H1381.92V51.9902H1384.04ZM1381.78 49.4941C1381.78 49.1719 1381.88 48.9053 1382.09 48.6943C1382.31 48.4775 1382.61 48.3691 1382.99 48.3691C1383.37 48.3691 1383.66 48.4775 1383.88 48.6943C1384.09 48.9053 1384.2 49.1719 1384.2 49.4941C1384.2 49.8105 1384.09 50.0742 1383.88 50.2852C1383.66 50.4961 1383.37 50.6016 1382.99 50.6016C1382.61 50.6016 1382.31 50.4961 1382.09 50.2852C1381.88 50.0742 1381.78 49.8105 1381.78 49.4941ZM1388.63 48V61.5H1386.51V48H1388.63ZM1393.22 48V61.5H1391.09V48H1393.22ZM1400.88 58.9248C1400.88 58.7139 1400.82 58.5234 1400.72 58.3535C1400.61 58.1777 1400.41 58.0195 1400.11 57.8789C1399.82 57.7383 1399.38 57.6094 1398.81 57.4922C1398.31 57.3809 1397.84 57.249 1397.42 57.0967C1397.01 56.9385 1396.65 56.748 1396.35 56.5254C1396.05 56.3027 1395.82 56.0391 1395.66 55.7344C1395.49 55.4297 1395.41 55.0781 1395.41 54.6797C1395.41 54.293 1395.49 53.9268 1395.66 53.5811C1395.83 53.2354 1396.08 52.9307 1396.39 52.667C1396.71 52.4033 1397.09 52.1953 1397.54 52.043C1398 51.8906 1398.51 51.8145 1399.07 51.8145C1399.87 51.8145 1400.55 51.9492 1401.12 52.2188C1401.7 52.4824 1402.14 52.8428 1402.44 53.2998C1402.75 53.751 1402.9 54.2607 1402.9 54.8291H1400.78C1400.78 54.5771 1400.71 54.3428 1400.59 54.126C1400.46 53.9033 1400.28 53.7246 1400.02 53.5898C1399.77 53.4492 1399.46 53.3789 1399.07 53.3789C1398.71 53.3789 1398.41 53.4375 1398.17 53.5547C1397.93 53.666 1397.76 53.8125 1397.64 53.9941C1397.53 54.1758 1397.47 54.375 1397.47 54.5918C1397.47 54.75 1397.5 54.8936 1397.56 55.0225C1397.63 55.1455 1397.73 55.2598 1397.88 55.3652C1398.03 55.4648 1398.22 55.5586 1398.48 55.6465C1398.73 55.7344 1399.06 55.8193 1399.44 55.9014C1400.17 56.0537 1400.79 56.25 1401.32 56.4902C1401.84 56.7246 1402.25 57.0293 1402.53 57.4043C1402.81 57.7734 1402.95 58.2422 1402.95 58.8105C1402.95 59.2324 1402.86 59.6191 1402.68 59.9707C1402.5 60.3164 1402.24 60.6182 1401.9 60.876C1401.56 61.1279 1401.16 61.3242 1400.68 61.4648C1400.21 61.6055 1399.69 61.6758 1399.1 61.6758C1398.24 61.6758 1397.51 61.5234 1396.91 61.2188C1396.31 60.9082 1395.86 60.5127 1395.55 60.0322C1395.25 59.5459 1395.09 59.042 1395.09 58.5205H1397.14C1397.16 58.9131 1397.27 59.2266 1397.47 59.4609C1397.67 59.6895 1397.91 59.8564 1398.2 59.9619C1398.5 60.0615 1398.81 60.1113 1399.13 60.1113C1399.51 60.1113 1399.83 60.0615 1400.08 59.9619C1400.34 59.8564 1400.54 59.7158 1400.67 59.54C1400.81 59.3584 1400.88 59.1533 1400.88 58.9248Z" fill="#5384ED"/>
<path d="M1501 55L1491 49.2265L1491 60.7735L1501 55ZM1434.33 55C1434.33 52.0545 1431.95 49.6666 1429 49.6666C1426.05 49.6666 1423.67 52.0545 1423.67 55C1423.67 57.9455 1426.05 60.3333 1429 60.3333C1431.95 60.3333 1434.33 57.9455 1434.33 55ZM1492 54L1429 54L1429 56L1492 56L1492 54Z" fill="#5384ED"/>
<rect x="1502.5" y="30" width="145" height="50" rx="25" fill="#F6F9FE"/>
<path d="M1536.66 48.7031V61.5H1534.45V48.7031H1536.66ZM1541.29 54.0205V61.5H1539.17V51.9902H1541.17L1541.29 54.0205ZM1540.91 56.3936L1540.22 56.3848C1540.23 55.7109 1540.32 55.0928 1540.51 54.5303C1540.69 53.9678 1540.95 53.4844 1541.28 53.0801C1541.61 52.6758 1542.01 52.3652 1542.47 52.1484C1542.94 51.9258 1543.45 51.8145 1544.02 51.8145C1544.48 51.8145 1544.89 51.8789 1545.26 52.0078C1545.64 52.1309 1545.96 52.333 1546.22 52.6143C1546.49 52.8955 1546.69 53.2617 1546.83 53.7129C1546.97 54.1582 1547.04 54.7061 1547.04 55.3564V61.5H1544.92V55.3477C1544.92 54.8906 1544.85 54.5303 1544.72 54.2666C1544.59 53.9971 1544.4 53.8066 1544.14 53.6953C1543.9 53.5781 1543.59 53.5195 1543.22 53.5195C1542.86 53.5195 1542.53 53.5957 1542.25 53.748C1541.96 53.9004 1541.72 54.1084 1541.52 54.3721C1541.32 54.6357 1541.17 54.9404 1541.07 55.2861C1540.96 55.6318 1540.91 56.001 1540.91 56.3936ZM1553.57 51.9902V53.5371H1548.21V51.9902H1553.57ZM1549.75 49.6611H1551.87V58.8721C1551.87 59.165 1551.91 59.3906 1551.99 59.5488C1552.08 59.7012 1552.2 59.8037 1552.35 59.8564C1552.51 59.9092 1552.68 59.9355 1552.89 59.9355C1553.04 59.9355 1553.18 59.9268 1553.31 59.9092C1553.45 59.8916 1553.55 59.874 1553.64 59.8564L1553.65 61.4736C1553.47 61.5264 1553.26 61.5732 1553.03 61.6143C1552.8 61.6553 1552.54 61.6758 1552.24 61.6758C1551.75 61.6758 1551.32 61.5908 1550.95 61.4209C1550.57 61.2451 1550.28 60.9609 1550.07 60.5684C1549.86 60.1758 1549.75 59.6543 1549.75 59.0039V49.6611ZM1559.39 61.6758C1558.69 61.6758 1558.05 61.5615 1557.49 61.333C1556.92 61.0986 1556.44 60.7734 1556.04 60.3574C1555.65 59.9414 1555.35 59.4521 1555.14 58.8896C1554.93 58.3271 1554.82 57.7207 1554.82 57.0703V56.7188C1554.82 55.9746 1554.93 55.3008 1555.15 54.6973C1555.37 54.0938 1555.67 53.5781 1556.05 53.1504C1556.44 52.7168 1556.9 52.3857 1557.42 52.1572C1557.95 51.9287 1558.52 51.8145 1559.14 51.8145C1559.82 51.8145 1560.41 51.9287 1560.92 52.1572C1561.43 52.3857 1561.85 52.708 1562.19 53.124C1562.53 53.5342 1562.78 54.0234 1562.94 54.5918C1563.11 55.1602 1563.2 55.7871 1563.2 56.4727V57.3779H1555.85V55.8574H1561.11V55.6904C1561.1 55.3096 1561.02 54.9521 1560.88 54.6182C1560.74 54.2842 1560.54 54.0146 1560.25 53.8096C1559.97 53.6045 1559.6 53.502 1559.13 53.502C1558.78 53.502 1558.46 53.5781 1558.19 53.7305C1557.92 53.877 1557.69 54.0908 1557.51 54.3721C1557.33 54.6533 1557.19 54.9932 1557.09 55.3916C1557 55.7842 1556.95 56.2266 1556.95 56.7188V57.0703C1556.95 57.4863 1557.01 57.873 1557.12 58.2305C1557.23 58.582 1557.4 58.8896 1557.63 59.1533C1557.85 59.417 1558.12 59.625 1558.44 59.7773C1558.75 59.9238 1559.11 59.9971 1559.52 59.9971C1560.03 59.9971 1560.48 59.8945 1560.88 59.6895C1561.28 59.4844 1561.62 59.1943 1561.92 58.8193L1563.03 59.9004C1562.83 60.1992 1562.56 60.4863 1562.23 60.7617C1561.9 61.0312 1561.5 61.251 1561.03 61.4209C1560.56 61.5908 1560.01 61.6758 1559.39 61.6758ZM1566.98 53.8008V61.5H1564.86V51.9902H1566.88L1566.98 53.8008ZM1569.89 51.9287L1569.87 53.8975C1569.74 53.874 1569.6 53.8564 1569.45 53.8447C1569.3 53.833 1569.16 53.8271 1569.01 53.8271C1568.65 53.8271 1568.33 53.8799 1568.05 53.9854C1567.78 54.085 1567.54 54.2314 1567.36 54.4248C1567.17 54.6123 1567.03 54.8408 1566.93 55.1104C1566.83 55.3799 1566.78 55.6816 1566.76 56.0156L1566.28 56.0508C1566.28 55.4531 1566.33 54.8994 1566.45 54.3896C1566.57 53.8799 1566.74 53.4316 1566.98 53.0449C1567.22 52.6582 1567.52 52.3564 1567.88 52.1396C1568.24 51.9229 1568.66 51.8145 1569.13 51.8145C1569.26 51.8145 1569.4 51.8262 1569.54 51.8496C1569.7 51.873 1569.81 51.8994 1569.89 51.9287ZM1574.47 59.8213L1576.8 51.9902H1578.99L1575.69 61.5H1574.32L1574.47 59.8213ZM1572.68 51.9902L1575.06 59.8564L1575.17 61.5H1573.8L1570.48 51.9902H1572.68ZM1582.57 51.9902V61.5H1580.44V51.9902H1582.57ZM1580.3 49.4941C1580.3 49.1719 1580.41 48.9053 1580.62 48.6943C1580.84 48.4775 1581.13 48.3691 1581.52 48.3691C1581.89 48.3691 1582.19 48.4775 1582.4 48.6943C1582.62 48.9053 1582.73 49.1719 1582.73 49.4941C1582.73 49.8105 1582.62 50.0742 1582.4 50.2852C1582.19 50.4961 1581.89 50.6016 1581.52 50.6016C1581.13 50.6016 1580.84 50.4961 1580.62 50.2852C1580.41 50.0742 1580.3 49.8105 1580.3 49.4941ZM1589.08 61.6758C1588.38 61.6758 1587.74 61.5615 1587.18 61.333C1586.61 61.0986 1586.13 60.7734 1585.73 60.3574C1585.34 59.9414 1585.04 59.4521 1584.83 58.8896C1584.62 58.3271 1584.51 57.7207 1584.51 57.0703V56.7188C1584.51 55.9746 1584.62 55.3008 1584.84 54.6973C1585.05 54.0938 1585.36 53.5781 1585.74 53.1504C1586.13 52.7168 1586.59 52.3857 1587.11 52.1572C1587.64 51.9287 1588.21 51.8145 1588.83 51.8145C1589.51 51.8145 1590.1 51.9287 1590.61 52.1572C1591.12 52.3857 1591.54 52.708 1591.88 53.124C1592.22 53.5342 1592.47 54.0234 1592.63 54.5918C1592.8 55.1602 1592.89 55.7871 1592.89 56.4727V57.3779H1585.54V55.8574H1590.8V55.6904C1590.79 55.3096 1590.71 54.9521 1590.57 54.6182C1590.43 54.2842 1590.23 54.0146 1589.94 53.8096C1589.66 53.6045 1589.29 53.502 1588.82 53.502C1588.47 53.502 1588.15 53.5781 1587.88 53.7305C1587.61 53.877 1587.38 54.0908 1587.2 54.3721C1587.02 54.6533 1586.88 54.9932 1586.78 55.3916C1586.69 55.7842 1586.64 56.2266 1586.64 56.7188V57.0703C1586.64 57.4863 1586.7 57.873 1586.81 58.2305C1586.92 58.582 1587.09 58.8896 1587.32 59.1533C1587.54 59.417 1587.81 59.625 1588.12 59.7773C1588.44 59.9238 1588.8 59.9971 1589.21 59.9971C1589.72 59.9971 1590.17 59.8945 1590.57 59.6895C1590.97 59.4844 1591.31 59.1943 1591.61 58.8193L1592.72 59.9004C1592.52 60.1992 1592.25 60.4863 1591.92 60.7617C1591.59 61.0312 1591.19 61.251 1590.72 61.4209C1590.25 61.5908 1589.7 61.6758 1589.08 61.6758ZM1597.12 59.3906L1599.32 51.9902H1600.68L1600.31 54.2051L1598.09 61.5H1596.88L1597.12 59.3906ZM1595.83 51.9902L1597.55 59.4258L1597.69 61.5H1596.33L1593.76 51.9902H1595.83ZM1602.73 59.3379L1604.39 51.9902H1606.46L1603.89 61.5H1602.54L1602.73 59.3379ZM1600.9 51.9902L1603.08 59.3027L1603.35 61.5H1602.13L1599.89 54.1963L1599.52 51.9902H1600.9ZM1613.24 58.9248C1613.24 58.7139 1613.18 58.5234 1613.08 58.3535C1612.97 58.1777 1612.77 58.0195 1612.47 57.8789C1612.18 57.7383 1611.74 57.6094 1611.17 57.4922C1610.67 57.3809 1610.2 57.249 1609.78 57.0967C1609.37 56.9385 1609.01 56.748 1608.71 56.5254C1608.41 56.3027 1608.18 56.0391 1608.01 55.7344C1607.85 55.4297 1607.77 55.0781 1607.77 54.6797C1607.77 54.293 1607.85 53.9268 1608.02 53.5811C1608.19 53.2354 1608.44 52.9307 1608.75 52.667C1609.07 52.4033 1609.45 52.1953 1609.9 52.043C1610.36 51.8906 1610.87 51.8145 1611.43 51.8145C1612.23 51.8145 1612.91 51.9492 1613.48 52.2188C1614.06 52.4824 1614.5 52.8428 1614.8 53.2998C1615.1 53.751 1615.26 54.2607 1615.26 54.8291H1613.14C1613.14 54.5771 1613.07 54.3428 1612.95 54.126C1612.82 53.9033 1612.63 53.7246 1612.38 53.5898C1612.13 53.4492 1611.81 53.3789 1611.43 53.3789C1611.07 53.3789 1610.77 53.4375 1610.53 53.5547C1610.29 53.666 1610.12 53.8125 1610 53.9941C1609.89 54.1758 1609.83 54.375 1609.83 54.5918C1609.83 54.75 1609.86 54.8936 1609.92 55.0225C1609.99 55.1455 1610.09 55.2598 1610.24 55.3652C1610.38 55.4648 1610.58 55.5586 1610.84 55.6465C1611.09 55.7344 1611.42 55.8193 1611.8 55.9014C1612.53 56.0537 1613.15 56.25 1613.67 56.4902C1614.2 56.7246 1614.61 57.0293 1614.89 57.4043C1615.17 57.7734 1615.31 58.2422 1615.31 58.8105C1615.31 59.2324 1615.22 59.6191 1615.04 59.9707C1614.86 60.3164 1614.6 60.6182 1614.26 60.876C1613.92 61.1279 1613.52 61.3242 1613.04 61.4648C1612.57 61.6055 1612.05 61.6758 1611.46 61.6758C1610.6 61.6758 1609.87 61.5234 1609.27 61.2188C1608.67 60.9082 1608.22 60.5127 1607.91 60.0322C1607.6 59.5459 1607.45 59.042 1607.45 58.5205H1609.5C1609.52 58.9131 1609.63 59.2266 1609.83 59.4609C1610.02 59.6895 1610.27 59.8564 1610.56 59.9619C1610.86 60.0615 1611.17 60.1113 1611.49 60.1113C1611.87 60.1113 1612.19 60.0615 1612.44 59.9619C1612.7 59.8564 1612.9 59.7158 1613.03 59.54C1613.17 59.3584 1613.24 59.1533 1613.24 58.9248Z" fill="#5384ED"/>
<rect x="1502.5" y="30" width="145" height="50" rx="25" stroke="#5384ED" stroke-width="3"/>
<defs>
<linearGradient id="paint0_linear_3267_10921" x1="250" y1="10.0898" x2="415.688" y2="166.015" gradientUnits="userSpaceOnUse">
<stop stop-color="#5D85EC"/>
<stop offset="0.533854" stop-color="#9DBEFF"/>
<stop offset="1" stop-color="#5D87D8"/>
</linearGradient>
</defs>
</svg>
