<svg width="1971" height="108" viewBox="0 0 1971 108" fill="none" xmlns="http://www.w3.org/2000/svg">
<rect x="31.5" y="28" width="178" height="50" rx="25" fill="#F6F9FE"/>
<path d="M68.5654 46.7031V59.5H66.377V46.7031H68.5654ZM72.582 46.7031V48.4609H62.3955V46.7031H72.582ZM77.4072 59.6758C76.7041 59.6758 76.0684 59.5615 75.5 59.333C74.9375 59.0986 74.457 58.7734 74.0586 58.3574C73.666 57.9414 73.3643 57.4521 73.1533 56.8896C72.9424 56.3271 72.8369 55.7207 72.8369 55.0703V54.7188C72.8369 53.9746 72.9453 53.3008 73.1621 52.6973C73.3789 52.0938 73.6807 51.5781 74.0674 51.1504C74.4541 50.7168 74.9111 50.3857 75.4385 50.1572C75.9658 49.9287 76.5371 49.8145 77.1523 49.8145C77.832 49.8145 78.4268 49.9287 78.9365 50.1572C79.4463 50.3857 79.8682 50.708 80.2021 51.124C80.542 51.5342 80.7939 52.0234 80.958 52.5918C81.1279 53.1602 81.2129 53.7871 81.2129 54.4727V55.3779H73.8652V53.8574H79.1211V53.6904C79.1094 53.3096 79.0332 52.9521 78.8926 52.6182C78.7578 52.2842 78.5498 52.0146 78.2686 51.8096C77.9873 51.6045 77.6123 51.502 77.1436 51.502C76.792 51.502 76.4785 51.5781 76.2031 51.7305C75.9336 51.877 75.708 52.0908 75.5264 52.3721C75.3447 52.6533 75.2041 52.9932 75.1045 53.3916C75.0107 53.7842 74.9639 54.2266 74.9639 54.7188V55.0703C74.9639 55.4863 75.0195 55.873 75.1309 56.2305C75.248 56.582 75.418 56.8896 75.6406 57.1533C75.8633 57.417 76.1328 57.625 76.4492 57.7773C76.7656 57.9238 77.126 57.9971 77.5303 57.9971C78.04 57.9971 78.4941 57.8945 78.8926 57.6895C79.291 57.4844 79.6367 57.1943 79.9297 56.8193L81.0459 57.9004C80.8408 58.1992 80.5742 58.4863 80.2461 58.7617C79.918 59.0312 79.5166 59.251 79.042 59.4209C78.5732 59.5908 78.0283 59.6758 77.4072 59.6758ZM88.2266 57.5928V53.0576C88.2266 52.7178 88.165 52.4248 88.042 52.1787C87.9189 51.9326 87.7314 51.7422 87.4795 51.6074C87.2334 51.4727 86.9229 51.4053 86.5479 51.4053C86.2021 51.4053 85.9033 51.4639 85.6514 51.5811C85.3994 51.6982 85.2031 51.8564 85.0625 52.0557C84.9219 52.2549 84.8516 52.4805 84.8516 52.7324H82.7422C82.7422 52.3574 82.833 51.9941 83.0146 51.6426C83.1963 51.291 83.46 50.9775 83.8057 50.7021C84.1514 50.4268 84.5645 50.21 85.0449 50.0518C85.5254 49.8936 86.0645 49.8145 86.6621 49.8145C87.377 49.8145 88.0098 49.9346 88.5605 50.1748C89.1172 50.415 89.5537 50.7783 89.8701 51.2646C90.1924 51.7451 90.3535 52.3486 90.3535 53.0752V57.3027C90.3535 57.7363 90.3828 58.126 90.4414 58.4717C90.5059 58.8115 90.5967 59.1074 90.7139 59.3594V59.5H88.543C88.4434 59.2715 88.3643 58.9814 88.3057 58.6299C88.2529 58.2725 88.2266 57.9268 88.2266 57.5928ZM88.5342 53.7168L88.5518 55.0264H87.0312C86.6387 55.0264 86.293 55.0645 85.9941 55.1406C85.6953 55.2109 85.4463 55.3164 85.2471 55.457C85.0479 55.5977 84.8984 55.7676 84.7988 55.9668C84.6992 56.166 84.6494 56.3916 84.6494 56.6436C84.6494 56.8955 84.708 57.127 84.8252 57.3379C84.9424 57.543 85.1123 57.7041 85.335 57.8213C85.5635 57.9385 85.8389 57.9971 86.1611 57.9971C86.5947 57.9971 86.9727 57.9092 87.2949 57.7334C87.623 57.5518 87.8809 57.332 88.0684 57.0742C88.2559 56.8105 88.3555 56.5615 88.3672 56.3271L89.0527 57.2676C88.9824 57.5078 88.8623 57.7656 88.6924 58.041C88.5225 58.3164 88.2998 58.5801 88.0244 58.832C87.7549 59.0781 87.4297 59.2803 87.0488 59.4385C86.6738 59.5967 86.2402 59.6758 85.748 59.6758C85.127 59.6758 84.5732 59.5527 84.0869 59.3066C83.6006 59.0547 83.2197 58.7178 82.9443 58.2959C82.6689 57.8682 82.5312 57.3848 82.5312 56.8457C82.5312 56.3418 82.625 55.8965 82.8125 55.5098C83.0059 55.1172 83.2871 54.7891 83.6562 54.5254C84.0312 54.2617 84.4883 54.0625 85.0273 53.9277C85.5664 53.7871 86.1816 53.7168 86.873 53.7168H88.5342ZM94.6865 51.9238V59.5H92.5684V49.9902H94.5635L94.6865 51.9238ZM94.3438 54.3936L93.623 54.3848C93.623 53.7285 93.7051 53.1221 93.8691 52.5654C94.0332 52.0088 94.2734 51.5254 94.5898 51.1152C94.9062 50.6992 95.2988 50.3799 95.7676 50.1572C96.2422 49.9287 96.79 49.8145 97.4111 49.8145C97.8447 49.8145 98.2402 49.8789 98.5977 50.0078C98.9609 50.1309 99.2744 50.3271 99.5381 50.5967C99.8076 50.8662 100.013 51.2119 100.153 51.6338C100.3 52.0557 100.373 52.5654 100.373 53.1631V59.5H98.2549V53.3477C98.2549 52.8848 98.1846 52.5215 98.0439 52.2578C97.9092 51.9941 97.7129 51.8066 97.4551 51.6953C97.2031 51.5781 96.9014 51.5195 96.5498 51.5195C96.1514 51.5195 95.8115 51.5957 95.5303 51.748C95.2549 51.9004 95.0293 52.1084 94.8535 52.3721C94.6777 52.6357 94.5488 52.9404 94.4668 53.2861C94.3848 53.6318 94.3438 54.001 94.3438 54.3936ZM100.241 53.8311L99.248 54.0508C99.248 53.4766 99.3271 52.9346 99.4854 52.4248C99.6494 51.9092 99.8867 51.458 100.197 51.0713C100.514 50.6787 100.903 50.3711 101.366 50.1484C101.829 49.9258 102.359 49.8145 102.957 49.8145C103.443 49.8145 103.877 49.8818 104.258 50.0166C104.645 50.1455 104.973 50.3506 105.242 50.6318C105.512 50.9131 105.717 51.2793 105.857 51.7305C105.998 52.1758 106.068 52.7148 106.068 53.3477V59.5H103.941V53.3389C103.941 52.8584 103.871 52.4863 103.73 52.2227C103.596 51.959 103.402 51.7773 103.15 51.6777C102.898 51.5723 102.597 51.5195 102.245 51.5195C101.917 51.5195 101.627 51.5811 101.375 51.7041C101.129 51.8213 100.921 51.9883 100.751 52.2051C100.581 52.416 100.452 52.6592 100.364 52.9346C100.282 53.21 100.241 53.5088 100.241 53.8311ZM114.849 51.9238V59.5H112.73V49.9902H114.726L114.849 51.9238ZM114.506 54.3936L113.785 54.3848C113.785 53.7285 113.867 53.1221 114.031 52.5654C114.195 52.0088 114.436 51.5254 114.752 51.1152C115.068 50.6992 115.461 50.3799 115.93 50.1572C116.404 49.9287 116.952 49.8145 117.573 49.8145C118.007 49.8145 118.402 49.8789 118.76 50.0078C119.123 50.1309 119.437 50.3271 119.7 50.5967C119.97 50.8662 120.175 51.2119 120.315 51.6338C120.462 52.0557 120.535 52.5654 120.535 53.1631V59.5H118.417V53.3477C118.417 52.8848 118.347 52.5215 118.206 52.2578C118.071 51.9941 117.875 51.8066 117.617 51.6953C117.365 51.5781 117.063 51.5195 116.712 51.5195C116.313 51.5195 115.974 51.5957 115.692 51.748C115.417 51.9004 115.191 52.1084 115.016 52.3721C114.84 52.6357 114.711 52.9404 114.629 53.2861C114.547 53.6318 114.506 54.001 114.506 54.3936ZM120.403 53.8311L119.41 54.0508C119.41 53.4766 119.489 52.9346 119.647 52.4248C119.812 51.9092 120.049 51.458 120.359 51.0713C120.676 50.6787 121.065 50.3711 121.528 50.1484C121.991 49.9258 122.521 49.8145 123.119 49.8145C123.605 49.8145 124.039 49.8818 124.42 50.0166C124.807 50.1455 125.135 50.3506 125.404 50.6318C125.674 50.9131 125.879 51.2793 126.02 51.7305C126.16 52.1758 126.23 52.7148 126.23 53.3477V59.5H124.104V53.3389C124.104 52.8584 124.033 52.4863 123.893 52.2227C123.758 51.959 123.564 51.7773 123.312 51.6777C123.061 51.5723 122.759 51.5195 122.407 51.5195C122.079 51.5195 121.789 51.5811 121.537 51.7041C121.291 51.8213 121.083 51.9883 120.913 52.2051C120.743 52.416 120.614 52.6592 120.526 52.9346C120.444 53.21 120.403 53.5088 120.403 53.8311ZM132.603 59.6758C131.899 59.6758 131.264 59.5615 130.695 59.333C130.133 59.0986 129.652 58.7734 129.254 58.3574C128.861 57.9414 128.56 57.4521 128.349 56.8896C128.138 56.3271 128.032 55.7207 128.032 55.0703V54.7188C128.032 53.9746 128.141 53.3008 128.357 52.6973C128.574 52.0938 128.876 51.5781 129.263 51.1504C129.649 50.7168 130.106 50.3857 130.634 50.1572C131.161 49.9287 131.732 49.8145 132.348 49.8145C133.027 49.8145 133.622 49.9287 134.132 50.1572C134.642 50.3857 135.063 50.708 135.397 51.124C135.737 51.5342 135.989 52.0234 136.153 52.5918C136.323 53.1602 136.408 53.7871 136.408 54.4727V55.3779H129.061V53.8574H134.316V53.6904C134.305 53.3096 134.229 52.9521 134.088 52.6182C133.953 52.2842 133.745 52.0146 133.464 51.8096C133.183 51.6045 132.808 51.502 132.339 51.502C131.987 51.502 131.674 51.5781 131.398 51.7305C131.129 51.877 130.903 52.0908 130.722 52.3721C130.54 52.6533 130.399 52.9932 130.3 53.3916C130.206 53.7842 130.159 54.2266 130.159 54.7188V55.0703C130.159 55.4863 130.215 55.873 130.326 56.2305C130.443 56.582 130.613 56.8896 130.836 57.1533C131.059 57.417 131.328 57.625 131.645 57.7773C131.961 57.9238 132.321 57.9971 132.726 57.9971C133.235 57.9971 133.689 57.8945 134.088 57.6895C134.486 57.4844 134.832 57.1943 135.125 56.8193L136.241 57.9004C136.036 58.1992 135.77 58.4863 135.441 58.7617C135.113 59.0312 134.712 59.251 134.237 59.4209C133.769 59.5908 133.224 59.6758 132.603 59.6758ZM140.179 51.9238V59.5H138.061V49.9902H140.056L140.179 51.9238ZM139.836 54.3936L139.115 54.3848C139.115 53.7285 139.197 53.1221 139.361 52.5654C139.525 52.0088 139.766 51.5254 140.082 51.1152C140.398 50.6992 140.791 50.3799 141.26 50.1572C141.734 49.9287 142.282 49.8145 142.903 49.8145C143.337 49.8145 143.732 49.8789 144.09 50.0078C144.453 50.1309 144.767 50.3271 145.03 50.5967C145.3 50.8662 145.505 51.2119 145.646 51.6338C145.792 52.0557 145.865 52.5654 145.865 53.1631V59.5H143.747V53.3477C143.747 52.8848 143.677 52.5215 143.536 52.2578C143.401 51.9941 143.205 51.8066 142.947 51.6953C142.695 51.5781 142.394 51.5195 142.042 51.5195C141.644 51.5195 141.304 51.5957 141.022 51.748C140.747 51.9004 140.521 52.1084 140.346 52.3721C140.17 52.6357 140.041 52.9404 139.959 53.2861C139.877 53.6318 139.836 54.001 139.836 54.3936ZM145.733 53.8311L144.74 54.0508C144.74 53.4766 144.819 52.9346 144.978 52.4248C145.142 51.9092 145.379 51.458 145.689 51.0713C146.006 50.6787 146.396 50.3711 146.858 50.1484C147.321 49.9258 147.852 49.8145 148.449 49.8145C148.936 49.8145 149.369 49.8818 149.75 50.0166C150.137 50.1455 150.465 50.3506 150.734 50.6318C151.004 50.9131 151.209 51.2793 151.35 51.7305C151.49 52.1758 151.561 52.7148 151.561 53.3477V59.5H149.434V53.3389C149.434 52.8584 149.363 52.4863 149.223 52.2227C149.088 51.959 148.895 51.7773 148.643 51.6777C148.391 51.5723 148.089 51.5195 147.737 51.5195C147.409 51.5195 147.119 51.5811 146.867 51.7041C146.621 51.8213 146.413 51.9883 146.243 52.2051C146.073 52.416 145.944 52.6592 145.856 52.9346C145.774 53.21 145.733 53.5088 145.733 53.8311ZM153.749 46H155.867V57.4697L155.665 59.5H153.749V46ZM162.072 54.6572V54.8418C162.072 55.5449 161.993 56.1924 161.835 56.7842C161.683 57.3701 161.448 57.8799 161.132 58.3135C160.821 58.7471 160.435 59.084 159.972 59.3242C159.515 59.5586 158.984 59.6758 158.381 59.6758C157.789 59.6758 157.273 59.5645 156.834 59.3418C156.395 59.1191 156.025 58.8027 155.727 58.3926C155.434 57.9824 155.196 57.4932 155.015 56.9248C154.833 56.3564 154.704 55.7295 154.628 55.0439V54.4551C154.704 53.7637 154.833 53.1367 155.015 52.5742C155.196 52.0059 155.434 51.5166 155.727 51.1064C156.025 50.6904 156.392 50.3711 156.825 50.1484C157.265 49.9258 157.777 49.8145 158.363 49.8145C158.973 49.8145 159.509 49.9316 159.972 50.166C160.44 50.4004 160.83 50.7344 161.141 51.168C161.451 51.5957 161.683 52.1055 161.835 52.6973C161.993 53.2891 162.072 53.9424 162.072 54.6572ZM159.954 54.8418V54.6572C159.954 54.2295 159.919 53.8281 159.849 53.4531C159.778 53.0723 159.661 52.7383 159.497 52.4512C159.339 52.1641 159.122 51.9385 158.847 51.7744C158.577 51.6045 158.24 51.5195 157.836 51.5195C157.461 51.5195 157.139 51.584 156.869 51.7129C156.6 51.8418 156.374 52.0176 156.192 52.2402C156.011 52.4629 155.867 52.7207 155.762 53.0137C155.662 53.3066 155.595 53.623 155.56 53.9629V55.5537C155.612 55.9932 155.724 56.3975 155.894 56.7666C156.069 57.1299 156.315 57.4229 156.632 57.6455C156.948 57.8623 157.355 57.9707 157.854 57.9707C158.246 57.9707 158.577 57.8916 158.847 57.7334C159.116 57.5752 159.33 57.3555 159.488 57.0742C159.652 56.7871 159.77 56.4531 159.84 56.0723C159.916 55.6914 159.954 55.2812 159.954 54.8418ZM168.058 59.6758C167.354 59.6758 166.719 59.5615 166.15 59.333C165.588 59.0986 165.107 58.7734 164.709 58.3574C164.316 57.9414 164.015 57.4521 163.804 56.8896C163.593 56.3271 163.487 55.7207 163.487 55.0703V54.7188C163.487 53.9746 163.596 53.3008 163.812 52.6973C164.029 52.0938 164.331 51.5781 164.718 51.1504C165.104 50.7168 165.562 50.3857 166.089 50.1572C166.616 49.9287 167.188 49.8145 167.803 49.8145C168.482 49.8145 169.077 49.9287 169.587 50.1572C170.097 50.3857 170.519 50.708 170.853 51.124C171.192 51.5342 171.444 52.0234 171.608 52.5918C171.778 53.1602 171.863 53.7871 171.863 54.4727V55.3779H164.516V53.8574H169.771V53.6904C169.76 53.3096 169.684 52.9521 169.543 52.6182C169.408 52.2842 169.2 52.0146 168.919 51.8096C168.638 51.6045 168.263 51.502 167.794 51.502C167.442 51.502 167.129 51.5781 166.854 51.7305C166.584 51.877 166.358 52.0908 166.177 52.3721C165.995 52.6533 165.854 52.9932 165.755 53.3916C165.661 53.7842 165.614 54.2266 165.614 54.7188V55.0703C165.614 55.4863 165.67 55.873 165.781 56.2305C165.898 56.582 166.068 56.8896 166.291 57.1533C166.514 57.417 166.783 57.625 167.1 57.7773C167.416 57.9238 167.776 57.9971 168.181 57.9971C168.69 57.9971 169.145 57.8945 169.543 57.6895C169.941 57.4844 170.287 57.1943 170.58 56.8193L171.696 57.9004C171.491 58.1992 171.225 58.4863 170.896 58.7617C170.568 59.0312 170.167 59.251 169.692 59.4209C169.224 59.5908 168.679 59.6758 168.058 59.6758ZM175.643 51.8008V59.5H173.524V49.9902H175.546L175.643 51.8008ZM178.552 49.9287L178.534 51.8975C178.405 51.874 178.265 51.8564 178.112 51.8447C177.966 51.833 177.819 51.8271 177.673 51.8271C177.31 51.8271 176.99 51.8799 176.715 51.9854C176.439 52.085 176.208 52.2314 176.021 52.4248C175.839 52.6123 175.698 52.8408 175.599 53.1104C175.499 53.3799 175.44 53.6816 175.423 54.0156L174.939 54.0508C174.939 53.4531 174.998 52.8994 175.115 52.3896C175.232 51.8799 175.408 51.4316 175.643 51.0449C175.883 50.6582 176.182 50.3564 176.539 50.1396C176.902 49.9229 177.321 49.8145 177.796 49.8145C177.925 49.8145 178.062 49.8262 178.209 49.8496C178.361 49.873 178.476 49.8994 178.552 49.9287Z" fill="#5384ED"/>
<rect x="31.5" y="28" width="178" height="50" rx="25" stroke="#5384ED" stroke-width="3"/>
<path d="M283 53L273 47.2265L273 58.7735L283 53ZM216.333 53C216.333 50.0545 213.946 47.6666 211 47.6666C208.054 47.6666 205.667 50.0545 205.667 53C205.667 55.9455 208.054 58.3333 211 58.3333C213.946 58.3333 216.333 55.9455 216.333 53ZM274 52L211 52L211 54L274 54L274 52Z" fill="#5384ED"/>
<path d="M391.391 13.4975C394.045 12.5303 396.955 12.5303 399.609 13.4975L492.532 47.3627C497.793 49.2799 497.793 56.7201 492.532 58.6373L399.609 92.5025C396.955 93.4697 394.045 93.4697 391.391 92.5025L298.468 58.6373C293.208 56.7201 293.208 49.2799 298.468 47.3627L391.391 13.4975Z" fill="url(#paint0_linear_3267_10951)" stroke="#E2EDFD" stroke-width="3"/>
<path d="M329.107 48.9463L325.459 59.8008H322.902L327.683 47.0039H329.318L329.107 48.9463ZM332.157 59.8008L328.492 48.9463L328.272 47.0039H329.915L334.723 59.8008H332.157ZM331.99 55.0459V56.9531H325.125V55.0459H331.99ZM339.768 58.1484C340.096 58.1484 340.389 58.084 340.647 57.9551C340.905 57.8262 341.11 57.6445 341.262 57.4102C341.42 57.1758 341.505 56.9033 341.517 56.5928H343.706C343.694 57.2373 343.512 57.8145 343.161 58.3242C342.809 58.834 342.34 59.2383 341.754 59.5371C341.174 59.8301 340.524 59.9766 339.803 59.9766C339.071 59.9766 338.432 59.8535 337.887 59.6074C337.342 59.3613 336.888 59.0186 336.525 58.5791C336.167 58.1396 335.898 57.6299 335.716 57.0498C335.54 56.4697 335.453 55.8486 335.453 55.1865V54.9053C335.453 54.2432 335.54 53.6221 335.716 53.042C335.898 52.4619 336.167 51.9521 336.525 51.5127C336.888 51.0732 337.342 50.7305 337.887 50.4844C338.432 50.2383 339.068 50.1152 339.794 50.1152C340.562 50.1152 341.236 50.2646 341.816 50.5635C342.402 50.8623 342.859 51.2842 343.187 51.8291C343.521 52.374 343.694 53.0156 343.706 53.7539H341.517C341.505 53.4141 341.429 53.1094 341.289 52.8398C341.148 52.5703 340.949 52.3535 340.691 52.1895C340.433 52.0254 340.12 51.9434 339.75 51.9434C339.358 51.9434 339.03 52.0254 338.766 52.1895C338.508 52.3535 338.306 52.5791 338.16 52.8662C338.019 53.1475 337.919 53.4639 337.861 53.8154C337.808 54.1611 337.782 54.5244 337.782 54.9053V55.1865C337.782 55.5732 337.808 55.9424 337.861 56.2939C337.919 56.6455 338.019 56.9619 338.16 57.2432C338.306 57.5186 338.508 57.7383 338.766 57.9023C339.03 58.0664 339.364 58.1484 339.768 58.1484ZM349.155 58.1484C349.483 58.1484 349.776 58.084 350.034 57.9551C350.291 57.8262 350.497 57.6445 350.649 57.4102C350.807 57.1758 350.892 56.9033 350.904 56.5928H353.092C353.081 57.2373 352.899 57.8145 352.547 58.3242C352.196 58.834 351.727 59.2383 351.141 59.5371C350.561 59.8301 349.911 59.9766 349.19 59.9766C348.457 59.9766 347.819 59.8535 347.274 59.6074C346.729 59.3613 346.275 59.0186 345.912 58.5791C345.554 58.1396 345.285 57.6299 345.103 57.0498C344.927 56.4697 344.839 55.8486 344.839 55.1865V54.9053C344.839 54.2432 344.927 53.6221 345.103 53.042C345.285 52.4619 345.554 51.9521 345.912 51.5127C346.275 51.0732 346.729 50.7305 347.274 50.4844C347.819 50.2383 348.455 50.1152 349.181 50.1152C349.949 50.1152 350.623 50.2646 351.203 50.5635C351.789 50.8623 352.246 51.2842 352.574 51.8291C352.908 52.374 353.081 53.0156 353.092 53.7539H350.904C350.892 53.4141 350.816 53.1094 350.675 52.8398C350.535 52.5703 350.335 52.3535 350.078 52.1895C349.82 52.0254 349.506 51.9434 349.137 51.9434C348.745 51.9434 348.416 52.0254 348.153 52.1895C347.895 52.3535 347.693 52.5791 347.546 52.8662C347.406 53.1475 347.306 53.4639 347.248 53.8154C347.195 54.1611 347.168 54.5244 347.168 54.9053V55.1865C347.168 55.5732 347.195 55.9424 347.248 56.2939C347.306 56.6455 347.406 56.9619 347.546 57.2432C347.693 57.5186 347.895 57.7383 348.153 57.9023C348.416 58.0664 348.75 58.1484 349.155 58.1484ZM358.911 59.9766C358.19 59.9766 357.542 59.8594 356.968 59.625C356.394 59.3906 355.905 59.0654 355.5 58.6494C355.102 58.2275 354.794 57.7383 354.578 57.1816C354.367 56.6191 354.261 56.0156 354.261 55.3711V55.0195C354.261 54.2871 354.367 53.6221 354.578 53.0244C354.789 52.4209 355.087 51.9023 355.474 51.4687C355.861 51.0352 356.324 50.7012 356.863 50.4668C357.402 50.2324 357.997 50.1152 358.647 50.1152C359.321 50.1152 359.915 50.2295 360.431 50.458C360.947 50.6807 361.377 50.9971 361.723 51.4072C362.069 51.8174 362.33 52.3096 362.505 52.8838C362.681 53.4521 362.769 54.082 362.769 54.7734V55.749H355.316V54.1494H360.484V53.9736C360.472 53.6045 360.402 53.2676 360.273 52.9629C360.144 52.6523 359.945 52.4062 359.675 52.2246C359.406 52.0371 359.057 51.9434 358.629 51.9434C358.284 51.9434 357.982 52.0195 357.724 52.1719C357.472 52.3184 357.261 52.5293 357.091 52.8047C356.927 53.0742 356.804 53.3965 356.722 53.7715C356.64 54.1465 356.599 54.5625 356.599 55.0195V55.3711C356.599 55.7695 356.652 56.1387 356.757 56.4785C356.869 56.8184 357.03 57.1143 357.241 57.3662C357.457 57.6123 357.715 57.8057 358.014 57.9463C358.319 58.0811 358.664 58.1484 359.051 58.1484C359.538 58.1484 359.977 58.0547 360.37 57.8672C360.768 57.6738 361.114 57.3896 361.407 57.0146L362.576 58.2275C362.376 58.5205 362.107 58.8018 361.767 59.0713C361.433 59.3408 361.029 59.5605 360.554 59.7305C360.08 59.8945 359.532 59.9766 358.911 59.9766ZM366.645 52.1191V63.457H364.316V50.291H366.469L366.645 52.1191ZM372.753 54.9492V55.1338C372.753 55.8252 372.671 56.4668 372.507 57.0586C372.349 57.6445 372.115 58.1572 371.804 58.5967C371.494 59.0303 371.107 59.3701 370.644 59.6162C370.187 59.8564 369.66 59.9766 369.062 59.9766C368.476 59.9766 367.966 59.8652 367.533 59.6426C367.099 59.4141 366.733 59.0918 366.434 58.6758C366.135 58.2598 365.895 57.7764 365.713 57.2256C365.538 56.6689 365.406 56.0625 365.318 55.4062V54.8174C365.406 54.1201 365.538 53.4873 365.713 52.9189C365.895 52.3447 366.135 51.8496 366.434 51.4336C366.733 51.0117 367.096 50.6865 367.524 50.458C367.957 50.2295 368.464 50.1152 369.044 50.1152C369.648 50.1152 370.178 50.2295 370.635 50.458C371.098 50.6865 371.488 51.0146 371.804 51.4424C372.121 51.8701 372.358 52.3799 372.516 52.9717C372.674 53.5635 372.753 54.2227 372.753 54.9492ZM370.424 55.1338V54.9492C370.424 54.5273 370.386 54.1377 370.31 53.7803C370.234 53.417 370.117 53.1006 369.958 52.8311C369.8 52.5557 369.595 52.3418 369.343 52.1895C369.091 52.0371 368.787 51.9609 368.429 51.9609C368.072 51.9609 367.764 52.0195 367.506 52.1367C367.248 52.2539 367.038 52.4209 366.873 52.6377C366.709 52.8545 366.581 53.1123 366.487 53.4111C366.399 53.7041 366.34 54.0293 366.311 54.3867V55.8457C366.364 56.2793 366.466 56.6689 366.619 57.0146C366.771 57.3604 366.994 57.6357 367.287 57.8408C367.585 58.0459 367.972 58.1484 368.447 58.1484C368.804 58.1484 369.109 58.0693 369.361 57.9111C369.613 57.7529 369.818 57.5361 369.976 57.2607C370.134 56.9795 370.248 56.6572 370.319 56.2939C370.389 55.9307 370.424 55.5439 370.424 55.1338ZM378.95 50.291V51.9609H373.5V50.291H378.95ZM374.959 47.9531H377.289V57.0586C377.289 57.3398 377.327 57.5566 377.403 57.709C377.479 57.8613 377.593 57.9639 377.746 58.0166C377.898 58.0693 378.08 58.0957 378.29 58.0957C378.443 58.0957 378.583 58.0869 378.712 58.0693C378.841 58.0518 378.95 58.0342 379.038 58.0166L379.046 59.7568C378.853 59.8213 378.633 59.874 378.387 59.915C378.147 59.9561 377.874 59.9766 377.57 59.9766C377.048 59.9766 376.591 59.8887 376.199 59.7129C375.806 59.5312 375.501 59.2412 375.285 58.8428C375.068 58.4385 374.959 57.9053 374.959 57.2432V47.9531ZM387.44 50.291V59.8008H385.111V50.291H387.44ZM384.953 47.8037C384.953 47.458 385.07 47.1709 385.304 46.9424C385.544 46.7139 385.867 46.5996 386.271 46.5996C386.675 46.5996 386.995 46.7139 387.229 46.9424C387.469 47.1709 387.589 47.458 387.589 47.8037C387.589 48.1436 387.469 48.4277 387.229 48.6562C386.995 48.8848 386.675 48.999 386.271 48.999C385.867 48.999 385.544 48.8848 385.304 48.6562C385.07 48.4277 384.953 48.1436 384.953 47.8037ZM391.931 52.3213V59.8008H389.611V50.291H391.79L391.931 52.3213ZM391.562 54.7031H390.876C390.882 54.0117 390.976 53.3848 391.158 52.8223C391.339 52.2598 391.594 51.7764 391.922 51.3721C392.256 50.9678 392.652 50.6572 393.109 50.4404C393.566 50.2236 394.076 50.1152 394.638 50.1152C395.095 50.1152 395.508 50.1797 395.877 50.3086C396.247 50.4375 396.563 50.6426 396.827 50.9238C397.096 51.2051 397.301 51.5742 397.442 52.0312C397.588 52.4824 397.662 53.0391 397.662 53.7012V59.8008H395.324V53.6836C395.324 53.25 395.259 52.9072 395.13 52.6553C395.007 52.4033 394.826 52.2246 394.585 52.1191C394.351 52.0137 394.061 51.9609 393.715 51.9609C393.358 51.9609 393.044 52.0342 392.775 52.1807C392.511 52.3213 392.289 52.5176 392.107 52.7695C391.931 53.0215 391.796 53.3115 391.703 53.6396C391.609 53.9678 391.562 54.3223 391.562 54.7031ZM402.865 58.043L405.08 50.291H407.505L404.245 59.8008H402.768L402.865 58.043ZM401.247 50.291L403.489 58.0605L403.568 59.8008H402.082L398.813 50.291H401.247ZM411.188 50.291V59.8008H408.859V50.291H411.188ZM408.701 47.8037C408.701 47.458 408.818 47.1709 409.052 46.9424C409.292 46.7139 409.615 46.5996 410.019 46.5996C410.423 46.5996 410.743 46.7139 410.977 46.9424C411.217 47.1709 411.337 47.458 411.337 47.8037C411.337 48.1436 411.217 48.4277 410.977 48.6562C410.743 48.8848 410.423 48.999 410.019 48.999C409.615 48.999 409.292 48.8848 409.052 48.6562C408.818 48.4277 408.701 48.1436 408.701 47.8037ZM417.903 50.291V51.9609H412.454V50.291H417.903ZM413.913 47.9531H416.242V57.0586C416.242 57.3398 416.28 57.5566 416.356 57.709C416.432 57.8613 416.546 57.9639 416.699 58.0166C416.851 58.0693 417.033 58.0957 417.244 58.0957C417.396 58.0957 417.537 58.0869 417.665 58.0693C417.794 58.0518 417.903 58.0342 417.991 58.0166L417.999 59.7568C417.806 59.8213 417.586 59.874 417.34 59.915C417.1 59.9561 416.828 59.9766 416.523 59.9766C416.001 59.9766 415.544 59.8887 415.152 59.7129C414.759 59.5312 414.455 59.2412 414.238 58.8428C414.021 58.4385 413.913 57.9053 413.913 57.2432V47.9531ZM424.688 57.7793V53.3936C424.688 53.0713 424.632 52.793 424.521 52.5586C424.41 52.3242 424.24 52.1426 424.011 52.0137C423.783 51.8848 423.493 51.8203 423.141 51.8203C422.831 51.8203 422.558 51.873 422.324 51.9785C422.095 52.084 421.919 52.2334 421.796 52.4268C421.673 52.6143 421.612 52.8311 421.612 53.0771H419.283C419.283 52.6846 419.376 52.3125 419.564 51.9609C419.751 51.6035 420.018 51.2871 420.364 51.0117C420.715 50.7305 421.134 50.5107 421.621 50.3525C422.113 50.1943 422.664 50.1152 423.273 50.1152C423.994 50.1152 424.635 50.2383 425.198 50.4844C425.766 50.7246 426.211 51.0879 426.534 51.5742C426.862 52.0605 427.026 52.6729 427.026 53.4111V57.5596C427.026 58.0342 427.055 58.4414 427.114 58.7812C427.178 59.1152 427.272 59.4053 427.395 59.6514V59.8008H425.031C424.919 59.5605 424.834 59.2559 424.776 58.8867C424.717 58.5117 424.688 58.1426 424.688 57.7793ZM425.013 54.0088L425.031 55.3887H423.563C423.2 55.3887 422.88 55.4268 422.605 55.5029C422.33 55.5732 422.104 55.6787 421.928 55.8193C421.752 55.9541 421.621 56.1182 421.533 56.3115C421.445 56.499 421.401 56.7129 421.401 56.9531C421.401 57.1875 421.454 57.3984 421.559 57.5859C421.67 57.7734 421.829 57.9229 422.034 58.0342C422.245 58.1396 422.491 58.1924 422.772 58.1924C423.182 58.1924 423.539 58.1104 423.844 57.9463C424.149 57.7764 424.386 57.5713 424.556 57.3311C424.726 57.0908 424.817 56.8623 424.829 56.6455L425.497 57.6475C425.414 57.8877 425.291 58.1426 425.127 58.4121C424.963 58.6816 424.752 58.9336 424.495 59.168C424.237 59.4023 423.926 59.5957 423.563 59.748C423.2 59.9004 422.778 59.9766 422.297 59.9766C421.682 59.9766 421.131 59.8535 420.645 59.6074C420.159 59.3613 419.775 59.0244 419.494 58.5967C419.212 58.1689 419.072 57.6826 419.072 57.1377C419.072 56.6338 419.165 56.1885 419.353 55.8018C419.54 55.415 419.819 55.0898 420.188 54.8262C420.557 54.5566 421.014 54.3545 421.559 54.2197C422.11 54.0791 422.74 54.0088 423.449 54.0088H425.013ZM433.618 50.291V51.9609H428.168V50.291H433.618ZM429.627 47.9531H431.956V57.0586C431.956 57.3398 431.995 57.5566 432.071 57.709C432.147 57.8613 432.261 57.9639 432.414 58.0166C432.566 58.0693 432.747 58.0957 432.958 58.0957C433.111 58.0957 433.251 58.0869 433.38 58.0693C433.509 58.0518 433.618 58.0342 433.705 58.0166L433.714 59.7568C433.521 59.8213 433.301 59.874 433.055 59.915C432.815 59.9561 432.542 59.9766 432.238 59.9766C431.716 59.9766 431.259 59.8887 430.867 59.7129C430.474 59.5312 430.169 59.2412 429.953 58.8428C429.736 58.4385 429.627 57.9053 429.627 57.2432V47.9531ZM437.625 50.291V59.8008H435.296V50.291H437.625ZM435.138 47.8037C435.138 47.458 435.255 47.1709 435.49 46.9424C435.73 46.7139 436.052 46.5996 436.456 46.5996C436.861 46.5996 437.18 46.7139 437.414 46.9424C437.655 47.1709 437.775 47.458 437.775 47.8037C437.775 48.1436 437.655 48.4277 437.414 48.6562C437.18 48.8848 436.861 48.999 436.456 48.999C436.052 48.999 435.73 48.8848 435.49 48.6562C435.255 48.4277 435.138 48.1436 435.138 47.8037ZM439.427 55.1426V54.958C439.427 54.2607 439.527 53.6191 439.726 53.0332C439.925 52.4414 440.215 51.9287 440.596 51.4951C440.977 51.0615 441.443 50.7246 441.994 50.4844C442.544 50.2383 443.171 50.1152 443.874 50.1152C444.589 50.1152 445.222 50.2383 445.773 50.4844C446.33 50.7246 446.798 51.0615 447.179 51.4951C447.56 51.9287 447.85 52.4414 448.049 53.0332C448.248 53.6191 448.348 54.2607 448.348 54.958V55.1426C448.348 55.834 448.248 56.4756 448.049 57.0674C447.85 57.6533 447.56 58.166 447.179 58.6055C446.798 59.0391 446.332 59.376 445.782 59.6162C445.231 59.8564 444.601 59.9766 443.892 59.9766C443.189 59.9766 442.559 59.8564 442.002 59.6162C441.446 59.376 440.977 59.0391 440.596 58.6055C440.215 58.166 439.925 57.6533 439.726 57.0674C439.527 56.4756 439.427 55.834 439.427 55.1426ZM441.747 54.958V55.1426C441.747 55.5586 441.789 55.9482 441.871 56.3115C441.953 56.6748 442.079 56.9941 442.248 57.2695C442.418 57.5449 442.638 57.7617 442.908 57.9199C443.183 58.0723 443.511 58.1484 443.892 58.1484C444.267 58.1484 444.589 58.0723 444.859 57.9199C445.128 57.7617 445.348 57.5449 445.518 57.2695C445.694 56.9941 445.823 56.6748 445.905 56.3115C445.987 55.9482 446.028 55.5586 446.028 55.1426V54.958C446.028 54.5479 445.987 54.1641 445.905 53.8066C445.823 53.4434 445.694 53.124 445.518 52.8486C445.348 52.5674 445.125 52.3477 444.85 52.1895C444.58 52.0254 444.255 51.9434 443.874 51.9434C443.499 51.9434 443.177 52.0254 442.908 52.1895C442.638 52.3477 442.418 52.5674 442.248 52.8486C442.079 53.124 441.953 53.4434 441.871 53.8066C441.789 54.1641 441.747 54.5479 441.747 54.958ZM452.312 52.3213V59.8008H449.992V50.291H452.171L452.312 52.3213ZM451.943 54.7031H451.257C451.263 54.0117 451.357 53.3848 451.539 52.8223C451.72 52.2598 451.975 51.7764 452.303 51.3721C452.637 50.9678 453.033 50.6572 453.49 50.4404C453.947 50.2236 454.456 50.1152 455.019 50.1152C455.476 50.1152 455.889 50.1797 456.258 50.3086C456.627 50.4375 456.944 50.6426 457.207 50.9238C457.477 51.2051 457.682 51.5742 457.823 52.0312C457.969 52.4824 458.042 53.0391 458.042 53.7012V59.8008H455.705V53.6836C455.705 53.25 455.64 52.9072 455.511 52.6553C455.388 52.4033 455.206 52.2246 454.966 52.1191C454.732 52.0137 454.442 51.9609 454.096 51.9609C453.739 51.9609 453.425 52.0342 453.156 52.1807C452.892 52.3213 452.669 52.5176 452.488 52.7695C452.312 53.0215 452.177 53.3115 452.083 53.6396C451.99 53.9678 451.943 54.3223 451.943 54.7031ZM464.221 55.96H462.121C462.126 55.4268 462.17 54.9697 462.252 54.5889C462.34 54.208 462.484 53.8652 462.683 53.5605C462.882 53.25 463.152 52.9336 463.492 52.6113C463.761 52.3594 464.001 52.1221 464.212 51.8994C464.429 51.6709 464.599 51.4336 464.722 51.1875C464.845 50.9355 464.907 50.6514 464.907 50.335C464.907 49.9775 464.848 49.6787 464.731 49.4385C464.62 49.1982 464.453 49.0166 464.23 48.8936C464.013 48.7646 463.741 48.7002 463.413 48.7002C463.143 48.7002 462.888 48.7559 462.648 48.8672C462.408 48.9785 462.214 49.1514 462.068 49.3857C461.921 49.6143 461.842 49.9131 461.83 50.2822H459.501C459.519 49.5146 459.701 48.876 460.046 48.3662C460.392 47.8506 460.858 47.4668 461.444 47.2148C462.03 46.957 462.686 46.8281 463.413 46.8281C464.215 46.8281 464.901 46.9629 465.469 47.2324C466.043 47.4961 466.48 47.8828 466.779 48.3926C467.083 48.9023 467.236 49.5176 467.236 50.2383C467.236 50.7539 467.136 51.2168 466.937 51.627C466.738 52.0312 466.474 52.4092 466.146 52.7607C465.818 53.1123 465.463 53.4668 465.082 53.8242C464.748 54.123 464.523 54.4424 464.406 54.7822C464.289 55.1221 464.227 55.5146 464.221 55.96ZM461.901 58.6934C461.901 58.3418 462.018 58.0488 462.252 57.8145C462.493 57.5801 462.815 57.4629 463.219 57.4629C463.623 57.4629 463.943 57.5801 464.177 57.8145C464.417 58.0488 464.538 58.3418 464.538 58.6934C464.538 59.0332 464.417 59.3203 464.177 59.5547C463.943 59.7891 463.623 59.9062 463.219 59.9062C462.815 59.9062 462.493 59.7891 462.252 59.5547C462.018 59.3203 461.901 59.0332 461.901 58.6934Z" fill="white"/>
<path d="M580 53L570 47.2265L570 58.7735L580 53ZM513.333 53C513.333 50.0545 510.946 47.6666 508 47.6666C505.054 47.6666 502.667 50.0545 502.667 53C502.667 55.9455 505.054 58.3333 508 58.3333C510.946 58.3333 513.333 55.9455 513.333 53ZM571 52L508 52L508 54L571 54L571 52Z" fill="#5384ED"/>
<rect x="580" y="30.5" width="246" height="45" rx="8" fill="#E2EDFD"/>
<path d="M667.065 46.7031V59.5H664.877V46.7031H667.065ZM671.082 46.7031V48.4609H660.896V46.7031H671.082ZM674.826 49.9902V59.5H672.699V49.9902H674.826ZM672.559 47.4941C672.559 47.1719 672.664 46.9053 672.875 46.6943C673.092 46.4775 673.391 46.3691 673.771 46.3691C674.146 46.3691 674.442 46.4775 674.659 46.6943C674.876 46.9053 674.984 47.1719 674.984 47.4941C674.984 47.8105 674.876 48.0742 674.659 48.2852C674.442 48.4961 674.146 48.6016 673.771 48.6016C673.391 48.6016 673.092 48.4961 672.875 48.2852C672.664 48.0742 672.559 47.8105 672.559 47.4941ZM679.265 51.9238V59.5H677.146V49.9902H679.142L679.265 51.9238ZM678.922 54.3936L678.201 54.3848C678.201 53.7285 678.283 53.1221 678.447 52.5654C678.611 52.0088 678.852 51.5254 679.168 51.1152C679.484 50.6992 679.877 50.3799 680.346 50.1572C680.82 49.9287 681.368 49.8145 681.989 49.8145C682.423 49.8145 682.818 49.8789 683.176 50.0078C683.539 50.1309 683.853 50.3271 684.116 50.5967C684.386 50.8662 684.591 51.2119 684.731 51.6338C684.878 52.0557 684.951 52.5654 684.951 53.1631V59.5H682.833V53.3477C682.833 52.8848 682.763 52.5215 682.622 52.2578C682.487 51.9941 682.291 51.8066 682.033 51.6953C681.781 51.5781 681.479 51.5195 681.128 51.5195C680.729 51.5195 680.39 51.5957 680.108 51.748C679.833 51.9004 679.607 52.1084 679.432 52.3721C679.256 52.6357 679.127 52.9404 679.045 53.2861C678.963 53.6318 678.922 54.001 678.922 54.3936ZM684.819 53.8311L683.826 54.0508C683.826 53.4766 683.905 52.9346 684.063 52.4248C684.228 51.9092 684.465 51.458 684.775 51.0713C685.092 50.6787 685.481 50.3711 685.944 50.1484C686.407 49.9258 686.938 49.8145 687.535 49.8145C688.021 49.8145 688.455 49.8818 688.836 50.0166C689.223 50.1455 689.551 50.3506 689.82 50.6318C690.09 50.9131 690.295 51.2793 690.436 51.7305C690.576 52.1758 690.646 52.7148 690.646 53.3477V59.5H688.52V53.3389C688.52 52.8584 688.449 52.4863 688.309 52.2227C688.174 51.959 687.98 51.7773 687.729 51.6777C687.477 51.5723 687.175 51.5195 686.823 51.5195C686.495 51.5195 686.205 51.5811 685.953 51.7041C685.707 51.8213 685.499 51.9883 685.329 52.2051C685.159 52.416 685.03 52.6592 684.942 52.9346C684.86 53.21 684.819 53.5088 684.819 53.8311ZM697.019 59.6758C696.315 59.6758 695.68 59.5615 695.111 59.333C694.549 59.0986 694.068 58.7734 693.67 58.3574C693.277 57.9414 692.976 57.4521 692.765 56.8896C692.554 56.3271 692.448 55.7207 692.448 55.0703V54.7188C692.448 53.9746 692.557 53.3008 692.773 52.6973C692.99 52.0938 693.292 51.5781 693.679 51.1504C694.065 50.7168 694.522 50.3857 695.05 50.1572C695.577 49.9287 696.148 49.8145 696.764 49.8145C697.443 49.8145 698.038 49.9287 698.548 50.1572C699.058 50.3857 699.479 50.708 699.813 51.124C700.153 51.5342 700.405 52.0234 700.569 52.5918C700.739 53.1602 700.824 53.7871 700.824 54.4727V55.3779H693.477V53.8574H698.732V53.6904C698.721 53.3096 698.645 52.9521 698.504 52.6182C698.369 52.2842 698.161 52.0146 697.88 51.8096C697.599 51.6045 697.224 51.502 696.755 51.502C696.403 51.502 696.09 51.5781 695.814 51.7305C695.545 51.877 695.319 52.0908 695.138 52.3721C694.956 52.6533 694.815 52.9932 694.716 53.3916C694.622 53.7842 694.575 54.2266 694.575 54.7188V55.0703C694.575 55.4863 694.631 55.873 694.742 56.2305C694.859 56.582 695.029 56.8896 695.252 57.1533C695.475 57.417 695.744 57.625 696.061 57.7773C696.377 57.9238 696.737 57.9971 697.142 57.9971C697.651 57.9971 698.105 57.8945 698.504 57.6895C698.902 57.4844 699.248 57.1943 699.541 56.8193L700.657 57.9004C700.452 58.1992 700.186 58.4863 699.857 58.7617C699.529 59.0312 699.128 59.251 698.653 59.4209C698.185 59.5908 697.64 59.6758 697.019 59.6758ZM714.315 57.8125V59.5H707.231V57.8125H714.315ZM714.122 51.3086L707.952 59.5H706.581V58.1377L712.716 49.9902H714.122V51.3086ZM713.305 49.9902V51.6777H706.687V49.9902H713.305ZM715.467 54.8506V54.6484C715.467 53.9629 715.566 53.3271 715.766 52.7412C715.965 52.1494 716.252 51.6367 716.627 51.2031C717.008 50.7637 717.471 50.4238 718.016 50.1836C718.566 49.9375 719.188 49.8145 719.879 49.8145C720.576 49.8145 721.197 49.9375 721.742 50.1836C722.293 50.4238 722.759 50.7637 723.14 51.2031C723.521 51.6367 723.811 52.1494 724.01 52.7412C724.209 53.3271 724.309 53.9629 724.309 54.6484V54.8506C724.309 55.5361 724.209 56.1719 724.01 56.7578C723.811 57.3438 723.521 57.8564 723.14 58.2959C722.759 58.7295 722.296 59.0693 721.751 59.3154C721.206 59.5557 720.588 59.6758 719.896 59.6758C719.199 59.6758 718.575 59.5557 718.024 59.3154C717.479 59.0693 717.017 58.7295 716.636 58.2959C716.255 57.8564 715.965 57.3438 715.766 56.7578C715.566 56.1719 715.467 55.5361 715.467 54.8506ZM717.585 54.6484V54.8506C717.585 55.2783 717.629 55.6826 717.717 56.0635C717.805 56.4443 717.942 56.7783 718.13 57.0654C718.317 57.3525 718.558 57.5781 718.851 57.7422C719.144 57.9062 719.492 57.9883 719.896 57.9883C720.289 57.9883 720.629 57.9062 720.916 57.7422C721.209 57.5781 721.449 57.3525 721.637 57.0654C721.824 56.7783 721.962 56.4443 722.05 56.0635C722.144 55.6826 722.19 55.2783 722.19 54.8506V54.6484C722.19 54.2266 722.144 53.8281 722.05 53.4531C721.962 53.0723 721.821 52.7354 721.628 52.4424C721.44 52.1494 721.2 51.9209 720.907 51.7568C720.62 51.5869 720.277 51.502 719.879 51.502C719.48 51.502 719.135 51.5869 718.842 51.7568C718.555 51.9209 718.317 52.1494 718.13 52.4424C717.942 52.7354 717.805 53.0723 717.717 53.4531C717.629 53.8281 717.585 54.2266 717.585 54.6484ZM728.185 52.0205V59.5H726.066V49.9902H728.062L728.185 52.0205ZM727.807 54.3936L727.121 54.3848C727.127 53.7109 727.221 53.0928 727.402 52.5303C727.59 51.9678 727.848 51.4844 728.176 51.0801C728.51 50.6758 728.908 50.3652 729.371 50.1484C729.834 49.9258 730.35 49.8145 730.918 49.8145C731.375 49.8145 731.788 49.8789 732.157 50.0078C732.532 50.1309 732.852 50.333 733.115 50.6143C733.385 50.8955 733.59 51.2617 733.73 51.7129C733.871 52.1582 733.941 52.7061 733.941 53.3564V59.5H731.814V53.3477C731.814 52.8906 731.747 52.5303 731.612 52.2666C731.483 51.9971 731.293 51.8066 731.041 51.6953C730.795 51.5781 730.487 51.5195 730.118 51.5195C729.755 51.5195 729.43 51.5957 729.143 51.748C728.855 51.9004 728.612 52.1084 728.413 52.3721C728.22 52.6357 728.07 52.9404 727.965 53.2861C727.859 53.6318 727.807 54.001 727.807 54.3936ZM740.296 59.6758C739.593 59.6758 738.957 59.5615 738.389 59.333C737.826 59.0986 737.346 58.7734 736.947 58.3574C736.555 57.9414 736.253 57.4521 736.042 56.8896C735.831 56.3271 735.726 55.7207 735.726 55.0703V54.7188C735.726 53.9746 735.834 53.3008 736.051 52.6973C736.268 52.0938 736.569 51.5781 736.956 51.1504C737.343 50.7168 737.8 50.3857 738.327 50.1572C738.854 49.9287 739.426 49.8145 740.041 49.8145C740.721 49.8145 741.315 49.9287 741.825 50.1572C742.335 50.3857 742.757 50.708 743.091 51.124C743.431 51.5342 743.683 52.0234 743.847 52.5918C744.017 53.1602 744.102 53.7871 744.102 54.4727V55.3779H736.754V53.8574H742.01V53.6904C741.998 53.3096 741.922 52.9521 741.781 52.6182C741.646 52.2842 741.438 52.0146 741.157 51.8096C740.876 51.6045 740.501 51.502 740.032 51.502C739.681 51.502 739.367 51.5781 739.092 51.7305C738.822 51.877 738.597 52.0908 738.415 52.3721C738.233 52.6533 738.093 52.9932 737.993 53.3916C737.899 53.7842 737.853 54.2266 737.853 54.7188V55.0703C737.853 55.4863 737.908 55.873 738.02 56.2305C738.137 56.582 738.307 56.8896 738.529 57.1533C738.752 57.417 739.021 57.625 739.338 57.7773C739.654 57.9238 740.015 57.9971 740.419 57.9971C740.929 57.9971 741.383 57.8945 741.781 57.6895C742.18 57.4844 742.525 57.1943 742.818 56.8193L743.935 57.9004C743.729 58.1992 743.463 58.4863 743.135 58.7617C742.807 59.0312 742.405 59.251 741.931 59.4209C741.462 59.5908 740.917 59.6758 740.296 59.6758Z" fill="#5384ED"/>
<path d="M898 53L888 47.2265L888 58.7735L898 53ZM831.333 53C831.333 50.0545 828.946 47.6666 826 47.6666C823.054 47.6666 820.667 50.0545 820.667 53C820.667 55.9455 823.054 58.3333 826 58.3333C828.946 58.3333 831.333 55.9455 831.333 53ZM889 52L826 52L826 54L889 54L889 52Z" fill="#5384ED"/>
<rect x="898" y="30.5" width="246" height="45" rx="8" fill="#E2EDFD"/>
<path d="M971.509 56.626L974.058 46.7031H975.394L975.244 49.2607L972.52 59.5H971.131L971.509 56.626ZM969.602 46.7031L971.667 56.5469L971.852 59.5H970.375L967.413 46.7031H969.602ZM978.285 56.5205L980.324 46.7031H982.521L979.56 59.5H978.083L978.285 56.5205ZM975.912 46.7031L978.435 56.6523L978.804 59.5H977.415L974.734 49.2607L974.594 46.7031H975.912ZM983.26 54.8506V54.6484C983.26 53.9629 983.359 53.3271 983.559 52.7412C983.758 52.1494 984.045 51.6367 984.42 51.2031C984.801 50.7637 985.264 50.4238 985.809 50.1836C986.359 49.9375 986.98 49.8145 987.672 49.8145C988.369 49.8145 988.99 49.9375 989.535 50.1836C990.086 50.4238 990.552 50.7637 990.933 51.2031C991.313 51.6367 991.604 52.1494 991.803 52.7412C992.002 53.3271 992.102 53.9629 992.102 54.6484V54.8506C992.102 55.5361 992.002 56.1719 991.803 56.7578C991.604 57.3438 991.313 57.8564 990.933 58.2959C990.552 58.7295 990.089 59.0693 989.544 59.3154C988.999 59.5557 988.381 59.6758 987.689 59.6758C986.992 59.6758 986.368 59.5557 985.817 59.3154C985.272 59.0693 984.81 58.7295 984.429 58.2959C984.048 57.8564 983.758 57.3438 983.559 56.7578C983.359 56.1719 983.26 55.5361 983.26 54.8506ZM985.378 54.6484V54.8506C985.378 55.2783 985.422 55.6826 985.51 56.0635C985.598 56.4443 985.735 56.7783 985.923 57.0654C986.11 57.3525 986.351 57.5781 986.644 57.7422C986.937 57.9062 987.285 57.9883 987.689 57.9883C988.082 57.9883 988.422 57.9062 988.709 57.7422C989.002 57.5781 989.242 57.3525 989.43 57.0654C989.617 56.7783 989.755 56.4443 989.843 56.0635C989.937 55.6826 989.983 55.2783 989.983 54.8506V54.6484C989.983 54.2266 989.937 53.8281 989.843 53.4531C989.755 53.0723 989.614 52.7354 989.421 52.4424C989.233 52.1494 988.993 51.9209 988.7 51.7568C988.413 51.5869 988.07 51.502 987.672 51.502C987.273 51.502 986.928 51.5869 986.635 51.7568C986.348 51.9209 986.11 52.1494 985.923 52.4424C985.735 52.7354 985.598 53.0723 985.51 53.4531C985.422 53.8281 985.378 54.2266 985.378 54.6484ZM996.004 51.8008V59.5H993.886V49.9902H995.907L996.004 51.8008ZM998.913 49.9287L998.896 51.8975C998.767 51.874 998.626 51.8564 998.474 51.8447C998.327 51.833 998.181 51.8271 998.034 51.8271C997.671 51.8271 997.352 51.8799 997.076 51.9854C996.801 52.085 996.569 52.2314 996.382 52.4248C996.2 52.6123 996.06 52.8408 995.96 53.1104C995.86 53.3799 995.802 53.6816 995.784 54.0156L995.301 54.0508C995.301 53.4531 995.359 52.8994 995.477 52.3896C995.594 51.8799 995.77 51.4316 996.004 51.0449C996.244 50.6582 996.543 50.3564 996.9 50.1396C997.264 49.9229 997.683 49.8145 998.157 49.8145C998.286 49.8145 998.424 49.8262 998.57 49.8496C998.723 49.873 998.837 49.8994 998.913 49.9287ZM1002.38 46V59.5H1000.25V46H1002.38ZM1008.28 49.9902L1004.14 54.5781L1001.88 56.8984L1001.32 55.1055L1003.04 52.9873L1005.72 49.9902H1008.28ZM1006.18 59.5L1003.1 55.0352L1004.43 53.5498L1008.63 59.5H1006.18ZM1011.89 49.9902V59.5H1009.77V49.9902H1011.89ZM1009.63 47.4941C1009.63 47.1719 1009.73 46.9053 1009.94 46.6943C1010.16 46.4775 1010.46 46.3691 1010.84 46.3691C1011.21 46.3691 1011.51 46.4775 1011.73 46.6943C1011.94 46.9053 1012.05 47.1719 1012.05 47.4941C1012.05 47.8105 1011.94 48.0742 1011.73 48.2852C1011.51 48.4961 1011.21 48.6016 1010.84 48.6016C1010.46 48.6016 1010.16 48.4961 1009.94 48.2852C1009.73 48.0742 1009.63 47.8105 1009.63 47.4941ZM1016.32 52.0205V59.5H1014.2V49.9902H1016.19L1016.32 52.0205ZM1015.94 54.3936L1015.25 54.3848C1015.26 53.7109 1015.35 53.0928 1015.53 52.5303C1015.72 51.9678 1015.98 51.4844 1016.31 51.0801C1016.64 50.6758 1017.04 50.3652 1017.5 50.1484C1017.96 49.9258 1018.48 49.8145 1019.05 49.8145C1019.51 49.8145 1019.92 49.8789 1020.29 50.0078C1020.66 50.1309 1020.98 50.333 1021.25 50.6143C1021.52 50.8955 1021.72 51.2617 1021.86 51.7129C1022 52.1582 1022.07 52.7061 1022.07 53.3564V59.5H1019.95V53.3477C1019.95 52.8906 1019.88 52.5303 1019.74 52.2666C1019.61 51.9971 1019.42 51.8066 1019.17 51.6953C1018.93 51.5781 1018.62 51.5195 1018.25 51.5195C1017.89 51.5195 1017.56 51.5957 1017.27 51.748C1016.99 51.9004 1016.74 52.1084 1016.54 52.3721C1016.35 52.6357 1016.2 52.9404 1016.1 53.2861C1015.99 53.6318 1015.94 54.001 1015.94 54.3936ZM1030.33 49.9902H1032.25V59.2363C1032.25 60.0918 1032.07 60.8184 1031.71 61.416C1031.34 62.0137 1030.83 62.4678 1030.18 62.7783C1029.53 63.0947 1028.78 63.2529 1027.93 63.2529C1027.56 63.2529 1027.16 63.2002 1026.71 63.0947C1026.27 62.9893 1025.85 62.8193 1025.43 62.585C1025.02 62.3564 1024.68 62.0547 1024.4 61.6797L1025.39 60.4316C1025.73 60.8359 1026.11 61.1318 1026.52 61.3193C1026.93 61.5068 1027.36 61.6006 1027.81 61.6006C1028.3 61.6006 1028.71 61.5098 1029.05 61.3281C1029.4 61.1523 1029.66 60.8916 1029.85 60.5459C1030.04 60.2002 1030.13 59.7783 1030.13 59.2803V52.1436L1030.33 49.9902ZM1023.87 54.8506V54.666C1023.87 53.9453 1023.95 53.2891 1024.13 52.6973C1024.3 52.0996 1024.56 51.5869 1024.88 51.1592C1025.21 50.7256 1025.61 50.3945 1026.08 50.166C1026.55 49.9316 1027.08 49.8145 1027.67 49.8145C1028.29 49.8145 1028.81 49.9258 1029.24 50.1484C1029.68 50.3711 1030.05 50.6904 1030.34 51.1064C1030.64 51.5166 1030.86 52.0088 1031.03 52.583C1031.2 53.1514 1031.32 53.7842 1031.41 54.4814V55.0703C1031.33 55.75 1031.2 56.3711 1031.02 56.9336C1030.84 57.4961 1030.6 57.9824 1030.3 58.3926C1030 58.8027 1029.63 59.1191 1029.19 59.3418C1028.76 59.5645 1028.25 59.6758 1027.65 59.6758C1027.07 59.6758 1026.55 59.5557 1026.08 59.3154C1025.62 59.0752 1025.22 58.7383 1024.88 58.3047C1024.56 57.8711 1024.3 57.3613 1024.13 56.7754C1023.95 56.1836 1023.87 55.542 1023.87 54.8506ZM1025.98 54.666V54.8506C1025.98 55.2842 1026.02 55.6885 1026.11 56.0635C1026.19 56.4385 1026.33 56.7695 1026.5 57.0566C1026.68 57.3379 1026.91 57.5605 1027.19 57.7246C1027.47 57.8828 1027.8 57.9619 1028.18 57.9619C1028.68 57.9619 1029.09 57.8564 1029.4 57.6455C1029.72 57.4346 1029.97 57.1504 1030.14 56.793C1030.32 56.4297 1030.44 56.0254 1030.51 55.5801V53.9893C1030.47 53.6436 1030.4 53.3213 1030.29 53.0225C1030.18 52.7236 1030.04 52.4629 1029.86 52.2402C1029.68 52.0117 1029.45 51.8359 1029.17 51.7129C1028.9 51.584 1028.57 51.5195 1028.2 51.5195C1027.82 51.5195 1027.49 51.6016 1027.21 51.7656C1026.92 51.9297 1026.69 52.1553 1026.51 52.4424C1026.33 52.7295 1026.2 53.0635 1026.12 53.4443C1026.03 53.8252 1025.98 54.2324 1025.98 54.666ZM1041.02 46V59.5H1038.91V46H1041.02ZM1040.65 54.3936L1039.97 54.3848C1039.97 53.7285 1040.06 53.1221 1040.24 52.5654C1040.42 52.0088 1040.67 51.5254 1041 51.1152C1041.32 50.6992 1041.72 50.3799 1042.17 50.1572C1042.63 49.9287 1043.14 49.8145 1043.69 49.8145C1044.16 49.8145 1044.58 49.8789 1044.96 50.0078C1045.34 50.1367 1045.67 50.3447 1045.94 50.6318C1046.22 50.9131 1046.43 51.2822 1046.57 51.7393C1046.71 52.1904 1046.79 52.7412 1046.79 53.3916V59.5H1044.66V53.374C1044.66 52.917 1044.59 52.5537 1044.46 52.2842C1044.33 52.0146 1044.14 51.8213 1043.89 51.7041C1043.63 51.5811 1043.33 51.5195 1042.96 51.5195C1042.58 51.5195 1042.25 51.5957 1041.95 51.748C1041.67 51.9004 1041.43 52.1084 1041.23 52.3721C1041.04 52.6357 1040.89 52.9404 1040.79 53.2861C1040.7 53.6318 1040.65 54.001 1040.65 54.3936ZM1048.53 54.8506V54.6484C1048.53 53.9629 1048.63 53.3271 1048.83 52.7412C1049.03 52.1494 1049.31 51.6367 1049.69 51.2031C1050.07 50.7637 1050.53 50.4238 1051.08 50.1836C1051.63 49.9375 1052.25 49.8145 1052.94 49.8145C1053.64 49.8145 1054.26 49.9375 1054.8 50.1836C1055.35 50.4238 1055.82 50.7637 1056.2 51.2031C1056.58 51.6367 1056.87 52.1494 1057.07 52.7412C1057.27 53.3271 1057.37 53.9629 1057.37 54.6484V54.8506C1057.37 55.5361 1057.27 56.1719 1057.07 56.7578C1056.87 57.3438 1056.58 57.8564 1056.2 58.2959C1055.82 58.7295 1055.36 59.0693 1054.81 59.3154C1054.27 59.5557 1053.65 59.6758 1052.96 59.6758C1052.26 59.6758 1051.64 59.5557 1051.08 59.3154C1050.54 59.0693 1050.08 58.7295 1049.7 58.2959C1049.32 57.8564 1049.03 57.3438 1048.83 56.7578C1048.63 56.1719 1048.53 55.5361 1048.53 54.8506ZM1050.65 54.6484V54.8506C1050.65 55.2783 1050.69 55.6826 1050.78 56.0635C1050.87 56.4443 1051 56.7783 1051.19 57.0654C1051.38 57.3525 1051.62 57.5781 1051.91 57.7422C1052.2 57.9062 1052.55 57.9883 1052.96 57.9883C1053.35 57.9883 1053.69 57.9062 1053.98 57.7422C1054.27 57.5781 1054.51 57.3525 1054.7 57.0654C1054.88 56.7783 1055.02 56.4443 1055.11 56.0635C1055.2 55.6826 1055.25 55.2783 1055.25 54.8506V54.6484C1055.25 54.2266 1055.2 53.8281 1055.11 53.4531C1055.02 53.0723 1054.88 52.7354 1054.69 52.4424C1054.5 52.1494 1054.26 51.9209 1053.97 51.7568C1053.68 51.5869 1053.34 51.502 1052.94 51.502C1052.54 51.502 1052.2 51.5869 1051.9 51.7568C1051.62 51.9209 1051.38 52.1494 1051.19 52.4424C1051 52.7354 1050.87 53.0723 1050.78 53.4531C1050.69 53.8281 1050.65 54.2266 1050.65 54.6484ZM1064.87 57.2588V49.9902H1066.99V59.5H1064.99L1064.87 57.2588ZM1065.17 55.2812L1065.88 55.2637C1065.88 55.9023 1065.81 56.4912 1065.67 57.0303C1065.53 57.5635 1065.31 58.0293 1065.02 58.4277C1064.72 58.8203 1064.35 59.1279 1063.89 59.3506C1063.43 59.5674 1062.89 59.6758 1062.25 59.6758C1061.78 59.6758 1061.36 59.6084 1060.97 59.4736C1060.59 59.3389 1060.25 59.1309 1059.97 58.8496C1059.7 58.5684 1059.48 58.2021 1059.33 57.751C1059.18 57.2998 1059.1 56.7607 1059.1 56.1338V49.9902H1061.22V56.1514C1061.22 56.4971 1061.26 56.7871 1061.34 57.0215C1061.42 57.25 1061.54 57.4346 1061.68 57.5752C1061.82 57.7158 1061.98 57.8154 1062.17 57.874C1062.36 57.9326 1062.55 57.9619 1062.77 57.9619C1063.37 57.9619 1063.84 57.8447 1064.19 57.6104C1064.54 57.3701 1064.79 57.0479 1064.94 56.6436C1065.09 56.2393 1065.17 55.7852 1065.17 55.2812ZM1071.29 51.8008V59.5H1069.17V49.9902H1071.19L1071.29 51.8008ZM1074.2 49.9287L1074.18 51.8975C1074.05 51.874 1073.91 51.8564 1073.76 51.8447C1073.61 51.833 1073.47 51.8271 1073.32 51.8271C1072.96 51.8271 1072.64 51.8799 1072.36 51.9854C1072.09 52.085 1071.86 52.2314 1071.67 52.4248C1071.49 52.6123 1071.35 52.8408 1071.25 53.1104C1071.15 53.3799 1071.09 53.6816 1071.07 54.0156L1070.59 54.0508C1070.59 53.4531 1070.65 52.8994 1070.76 52.3896C1070.88 51.8799 1071.06 51.4316 1071.29 51.0449C1071.53 50.6582 1071.83 50.3564 1072.19 50.1396C1072.55 49.9229 1072.97 49.8145 1073.44 49.8145C1073.57 49.8145 1073.71 49.8262 1073.86 49.8496C1074.01 49.873 1074.12 49.8994 1074.2 49.9287Z" fill="#5384ED"/>
<path d="M1216 53L1206 47.2265L1206 58.7735L1216 53ZM1149.33 53C1149.33 50.0545 1146.95 47.6666 1144 47.6666C1141.05 47.6666 1138.67 50.0545 1138.67 53C1138.67 55.9455 1141.05 58.3333 1144 58.3333C1146.95 58.3333 1149.33 55.9455 1149.33 53ZM1207 52L1144 52L1144 54L1207 54L1207 52Z" fill="#5384ED"/>
<rect x="1216" y="30.5" width="246" height="45" rx="8" fill="#E2EDFD"/>
<path d="M1290.03 56.2041C1290.03 55.9404 1289.99 55.7061 1289.91 55.501C1289.83 55.2959 1289.7 55.1084 1289.5 54.9385C1289.3 54.7686 1289.02 54.6045 1288.65 54.4463C1288.3 54.2822 1287.84 54.1152 1287.28 53.9453C1286.67 53.7578 1286.11 53.5498 1285.59 53.3213C1285.08 53.0869 1284.64 52.8174 1284.26 52.5127C1283.88 52.2021 1283.58 51.8477 1283.37 51.4492C1283.16 51.0449 1283.05 50.5791 1283.05 50.0518C1283.05 49.5303 1283.16 49.0557 1283.38 48.6279C1283.6 48.2002 1283.92 47.8311 1284.32 47.5205C1284.73 47.2041 1285.21 46.9609 1285.77 46.791C1286.33 46.6152 1286.94 46.5273 1287.62 46.5273C1288.57 46.5273 1289.38 46.7031 1290.07 47.0547C1290.76 47.4062 1291.29 47.8779 1291.66 48.4697C1292.03 49.0615 1292.22 49.7148 1292.22 50.4297H1290.03C1290.03 50.0078 1289.94 49.6357 1289.76 49.3135C1289.58 48.9854 1289.32 48.7275 1288.95 48.54C1288.59 48.3525 1288.14 48.2588 1287.59 48.2588C1287.07 48.2588 1286.63 48.3379 1286.29 48.4961C1285.94 48.6543 1285.69 48.8682 1285.52 49.1377C1285.35 49.4072 1285.26 49.7119 1285.26 50.0518C1285.26 50.292 1285.32 50.5117 1285.43 50.7109C1285.54 50.9043 1285.71 51.0859 1285.94 51.2559C1286.17 51.4199 1286.45 51.5752 1286.8 51.7217C1287.14 51.8682 1287.55 52.0088 1288.02 52.1436C1288.73 52.3545 1289.35 52.5889 1289.88 52.8467C1290.4 53.0986 1290.84 53.3857 1291.19 53.708C1291.54 54.0303 1291.81 54.3965 1291.98 54.8066C1292.16 55.2109 1292.25 55.6709 1292.25 56.1865C1292.25 56.7256 1292.14 57.2119 1291.92 57.6455C1291.71 58.0732 1291.4 58.4395 1290.99 58.7441C1290.59 59.043 1290.11 59.2744 1289.55 59.4385C1288.99 59.5967 1288.37 59.6758 1287.69 59.6758C1287.07 59.6758 1286.46 59.5938 1285.87 59.4297C1285.28 59.2656 1284.74 59.0166 1284.25 58.6826C1283.76 58.3428 1283.38 57.9209 1283.09 57.417C1282.8 56.9072 1282.66 56.3125 1282.66 55.6328H1284.87C1284.87 56.0488 1284.94 56.4033 1285.08 56.6963C1285.22 56.9893 1285.42 57.2295 1285.68 57.417C1285.94 57.5986 1286.24 57.7334 1286.58 57.8213C1286.92 57.9092 1287.29 57.9531 1287.69 57.9531C1288.2 57.9531 1288.63 57.8799 1288.98 57.7334C1289.33 57.5869 1289.59 57.3818 1289.77 57.1182C1289.95 56.8545 1290.03 56.5498 1290.03 56.2041ZM1296.75 58.4629L1299.33 49.9902H1301.6L1297.79 60.9502C1297.7 61.1846 1297.58 61.4395 1297.44 61.7148C1297.3 61.9902 1297.12 62.251 1296.89 62.4971C1296.67 62.749 1296.39 62.9512 1296.05 63.1035C1295.72 63.2617 1295.32 63.3408 1294.84 63.3408C1294.65 63.3408 1294.47 63.3232 1294.3 63.2881C1294.13 63.2588 1293.96 63.2266 1293.81 63.1914L1293.8 61.5742C1293.86 61.5801 1293.93 61.5859 1294.01 61.5918C1294.1 61.5977 1294.17 61.6006 1294.23 61.6006C1294.58 61.6006 1294.87 61.5566 1295.1 61.4688C1295.34 61.3867 1295.53 61.252 1295.68 61.0645C1295.83 60.877 1295.96 60.625 1296.06 60.3086L1296.75 58.4629ZM1295.29 49.9902L1297.55 57.1094L1297.93 59.3418L1296.46 59.7197L1293 49.9902H1295.29ZM1304.91 52.0205V59.5H1302.79V49.9902H1304.79L1304.91 52.0205ZM1304.54 54.3936L1303.85 54.3848C1303.86 53.7109 1303.95 53.0928 1304.13 52.5303C1304.32 51.9678 1304.58 51.4844 1304.9 51.0801C1305.24 50.6758 1305.64 50.3652 1306.1 50.1484C1306.56 49.9258 1307.08 49.8145 1307.65 49.8145C1308.1 49.8145 1308.52 49.8789 1308.89 50.0078C1309.26 50.1309 1309.58 50.333 1309.84 50.6143C1310.11 50.8955 1310.32 51.2617 1310.46 51.7129C1310.6 52.1582 1310.67 52.7061 1310.67 53.3564V59.5H1308.54V53.3477C1308.54 52.8906 1308.48 52.5303 1308.34 52.2666C1308.21 51.9971 1308.02 51.8066 1307.77 51.6953C1307.52 51.5781 1307.22 51.5195 1306.85 51.5195C1306.48 51.5195 1306.16 51.5957 1305.87 51.748C1305.58 51.9004 1305.34 52.1084 1305.14 52.3721C1304.95 52.6357 1304.8 52.9404 1304.69 53.2861C1304.59 53.6318 1304.54 54.001 1304.54 54.3936ZM1316.72 57.9883C1317.06 57.9883 1317.37 57.9209 1317.65 57.7861C1317.93 57.6455 1318.16 57.4521 1318.33 57.2061C1318.5 56.96 1318.6 56.6758 1318.62 56.3535H1320.61C1320.6 56.9688 1320.42 57.5283 1320.07 58.0322C1319.71 58.5361 1319.25 58.9375 1318.67 59.2363C1318.09 59.5293 1317.45 59.6758 1316.74 59.6758C1316.02 59.6758 1315.38 59.5527 1314.84 59.3066C1314.31 59.0547 1313.86 58.709 1313.5 58.2695C1313.14 57.8301 1312.87 57.3232 1312.69 56.749C1312.52 56.1748 1312.43 55.5596 1312.43 54.9033V54.5957C1312.43 53.9395 1312.52 53.3242 1312.69 52.75C1312.87 52.1699 1313.14 51.6602 1313.5 51.2207C1313.86 50.7812 1314.31 50.4385 1314.84 50.1924C1315.38 49.9404 1316.01 49.8145 1316.73 49.8145C1317.5 49.8145 1318.16 49.9668 1318.74 50.2715C1319.31 50.5703 1319.76 50.9893 1320.09 51.5283C1320.43 52.0615 1320.6 52.6826 1320.61 53.3916H1318.62C1318.6 53.04 1318.51 52.7236 1318.35 52.4424C1318.2 52.1553 1317.98 51.9268 1317.7 51.7568C1317.43 51.5869 1317.09 51.502 1316.71 51.502C1316.28 51.502 1315.93 51.5898 1315.64 51.7656C1315.36 51.9355 1315.14 52.1699 1314.99 52.4688C1314.83 52.7617 1314.71 53.0928 1314.64 53.4619C1314.58 53.8252 1314.55 54.2031 1314.55 54.5957V54.9033C1314.55 55.2959 1314.58 55.6768 1314.64 56.0459C1314.71 56.415 1314.82 56.7461 1314.98 57.0391C1315.14 57.3262 1315.36 57.5576 1315.64 57.7334C1315.93 57.9033 1316.28 57.9883 1316.72 57.9883ZM1330.6 57.9883C1330.95 57.9883 1331.26 57.9209 1331.54 57.7861C1331.82 57.6455 1332.04 57.4521 1332.21 57.2061C1332.39 56.96 1332.48 56.6758 1332.5 56.3535H1334.5C1334.49 56.9688 1334.3 57.5283 1333.95 58.0322C1333.6 58.5361 1333.13 58.9375 1332.55 59.2363C1331.97 59.5293 1331.33 59.6758 1330.63 59.6758C1329.9 59.6758 1329.27 59.5527 1328.73 59.3066C1328.19 59.0547 1327.74 58.709 1327.39 58.2695C1327.03 57.8301 1326.76 57.3232 1326.58 56.749C1326.4 56.1748 1326.31 55.5596 1326.31 54.9033V54.5957C1326.31 53.9395 1326.4 53.3242 1326.58 52.75C1326.76 52.1699 1327.03 51.6602 1327.39 51.2207C1327.74 50.7812 1328.19 50.4385 1328.73 50.1924C1329.27 49.9404 1329.9 49.8145 1330.62 49.8145C1331.38 49.8145 1332.05 49.9668 1332.62 50.2715C1333.2 50.5703 1333.65 50.9893 1333.98 51.5283C1334.31 52.0615 1334.49 52.6826 1334.5 53.3916H1332.5C1332.48 53.04 1332.4 52.7236 1332.24 52.4424C1332.09 52.1553 1331.87 51.9268 1331.59 51.7568C1331.31 51.5869 1330.98 51.502 1330.59 51.502C1330.17 51.502 1329.81 51.5898 1329.53 51.7656C1329.25 51.9355 1329.03 52.1699 1328.87 52.4688C1328.71 52.7617 1328.6 53.0928 1328.53 53.4619C1328.46 53.8252 1328.43 54.2031 1328.43 54.5957V54.9033C1328.43 55.2959 1328.46 55.6768 1328.53 56.0459C1328.59 56.415 1328.71 56.7461 1328.86 57.0391C1329.03 57.3262 1329.25 57.5576 1329.53 57.7334C1329.81 57.9033 1330.17 57.9883 1330.6 57.9883ZM1341.48 57.5928V53.0576C1341.48 52.7178 1341.42 52.4248 1341.3 52.1787C1341.18 51.9326 1340.99 51.7422 1340.74 51.6074C1340.49 51.4727 1340.18 51.4053 1339.81 51.4053C1339.46 51.4053 1339.16 51.4639 1338.91 51.5811C1338.66 51.6982 1338.46 51.8564 1338.32 52.0557C1338.18 52.2549 1338.11 52.4805 1338.11 52.7324H1336C1336 52.3574 1336.09 51.9941 1336.27 51.6426C1336.45 51.291 1336.72 50.9775 1337.06 50.7021C1337.41 50.4268 1337.82 50.21 1338.3 50.0518C1338.78 49.8936 1339.32 49.8145 1339.92 49.8145C1340.63 49.8145 1341.27 49.9346 1341.82 50.1748C1342.38 50.415 1342.81 50.7783 1343.13 51.2646C1343.45 51.7451 1343.61 52.3486 1343.61 53.0752V57.3027C1343.61 57.7363 1343.64 58.126 1343.7 58.4717C1343.76 58.8115 1343.85 59.1074 1343.97 59.3594V59.5H1341.8C1341.7 59.2715 1341.62 58.9814 1341.56 58.6299C1341.51 58.2725 1341.48 57.9268 1341.48 57.5928ZM1341.79 53.7168L1341.81 55.0264H1340.29C1339.9 55.0264 1339.55 55.0645 1339.25 55.1406C1338.95 55.2109 1338.7 55.3164 1338.5 55.457C1338.31 55.5977 1338.16 55.7676 1338.06 55.9668C1337.96 56.166 1337.91 56.3916 1337.91 56.6436C1337.91 56.8955 1337.97 57.127 1338.08 57.3379C1338.2 57.543 1338.37 57.7041 1338.59 57.8213C1338.82 57.9385 1339.1 57.9971 1339.42 57.9971C1339.85 57.9971 1340.23 57.9092 1340.55 57.7334C1340.88 57.5518 1341.14 57.332 1341.33 57.0742C1341.51 56.8105 1341.61 56.5615 1341.62 56.3271L1342.31 57.2676C1342.24 57.5078 1342.12 57.7656 1341.95 58.041C1341.78 58.3164 1341.56 58.5801 1341.28 58.832C1341.01 59.0781 1340.69 59.2803 1340.31 59.4385C1339.93 59.5967 1339.5 59.6758 1339.01 59.6758C1338.38 59.6758 1337.83 59.5527 1337.34 59.3066C1336.86 59.0547 1336.48 58.7178 1336.2 58.2959C1335.93 57.8682 1335.79 57.3848 1335.79 56.8457C1335.79 56.3418 1335.88 55.8965 1336.07 55.5098C1336.26 55.1172 1336.54 54.7891 1336.91 54.5254C1337.29 54.2617 1337.75 54.0625 1338.29 53.9277C1338.82 53.7871 1339.44 53.7168 1340.13 53.7168H1341.79ZM1348.09 46V59.5H1345.97V46H1348.09ZM1354.61 59.6758C1353.9 59.6758 1353.27 59.5615 1352.7 59.333C1352.14 59.0986 1351.66 58.7734 1351.26 58.3574C1350.87 57.9414 1350.56 57.4521 1350.35 56.8896C1350.14 56.3271 1350.04 55.7207 1350.04 55.0703V54.7188C1350.04 53.9746 1350.14 53.3008 1350.36 52.6973C1350.58 52.0938 1350.88 51.5781 1351.27 51.1504C1351.65 50.7168 1352.11 50.3857 1352.64 50.1572C1353.17 49.9287 1353.74 49.8145 1354.35 49.8145C1355.03 49.8145 1355.63 49.9287 1356.14 50.1572C1356.65 50.3857 1357.07 50.708 1357.4 51.124C1357.74 51.5342 1357.99 52.0234 1358.16 52.5918C1358.33 53.1602 1358.41 53.7871 1358.41 54.4727V55.3779H1351.06V53.8574H1356.32V53.6904C1356.31 53.3096 1356.23 52.9521 1356.09 52.6182C1355.96 52.2842 1355.75 52.0146 1355.47 51.8096C1355.19 51.6045 1354.81 51.502 1354.34 51.502C1353.99 51.502 1353.68 51.5781 1353.4 51.7305C1353.13 51.877 1352.91 52.0908 1352.73 52.3721C1352.54 52.6533 1352.4 52.9932 1352.3 53.3916C1352.21 53.7842 1352.16 54.2266 1352.16 54.7188V55.0703C1352.16 55.4863 1352.22 55.873 1352.33 56.2305C1352.45 56.582 1352.62 56.8896 1352.84 57.1533C1353.06 57.417 1353.33 57.625 1353.65 57.7773C1353.96 57.9238 1354.33 57.9971 1354.73 57.9971C1355.24 57.9971 1355.69 57.8945 1356.09 57.6895C1356.49 57.4844 1356.84 57.1943 1357.13 56.8193L1358.25 57.9004C1358.04 58.1992 1357.77 58.4863 1357.45 58.7617C1357.12 59.0312 1356.72 59.251 1356.24 59.4209C1355.77 59.5908 1355.23 59.6758 1354.61 59.6758ZM1362.17 52.0205V59.5H1360.05V49.9902H1362.04L1362.17 52.0205ZM1361.79 54.3936L1361.1 54.3848C1361.11 53.7109 1361.2 53.0928 1361.38 52.5303C1361.57 51.9678 1361.83 51.4844 1362.16 51.0801C1362.49 50.6758 1362.89 50.3652 1363.35 50.1484C1363.81 49.9258 1364.33 49.8145 1364.9 49.8145C1365.36 49.8145 1365.77 49.8789 1366.14 50.0078C1366.51 50.1309 1366.83 50.333 1367.1 50.6143C1367.37 50.8955 1367.57 51.2617 1367.71 51.7129C1367.85 52.1582 1367.92 52.7061 1367.92 53.3564V59.5H1365.79V53.3477C1365.79 52.8906 1365.73 52.5303 1365.59 52.2666C1365.46 51.9971 1365.27 51.8066 1365.02 51.6953C1364.78 51.5781 1364.47 51.5195 1364.1 51.5195C1363.74 51.5195 1363.41 51.5957 1363.12 51.748C1362.84 51.9004 1362.59 52.1084 1362.39 52.3721C1362.2 52.6357 1362.05 52.9404 1361.95 53.2861C1361.84 53.6318 1361.79 54.001 1361.79 54.3936ZM1375.88 57.5312V46H1378.01V59.5H1376.09L1375.88 57.5312ZM1369.7 54.8506V54.666C1369.7 53.9453 1369.78 53.2891 1369.95 52.6973C1370.12 52.0996 1370.37 51.5869 1370.69 51.1592C1371.01 50.7256 1371.41 50.3945 1371.87 50.166C1372.33 49.9316 1372.85 49.8145 1373.43 49.8145C1374.01 49.8145 1374.51 49.9258 1374.94 50.1484C1375.38 50.3711 1375.75 50.6904 1376.05 51.1064C1376.36 51.5166 1376.6 52.0088 1376.78 52.583C1376.96 53.1514 1377.09 53.7842 1377.17 54.4814V55.0703C1377.09 55.75 1376.96 56.3711 1376.78 56.9336C1376.6 57.4961 1376.36 57.9824 1376.05 58.3926C1375.75 58.8027 1375.38 59.1191 1374.94 59.3418C1374.5 59.5645 1374 59.6758 1373.42 59.6758C1372.84 59.6758 1372.32 59.5557 1371.86 59.3154C1371.4 59.0752 1371.01 58.7383 1370.69 58.3047C1370.37 57.8711 1370.12 57.3613 1369.95 56.7754C1369.78 56.1836 1369.7 55.542 1369.7 54.8506ZM1371.82 54.666V54.8506C1371.82 55.2842 1371.85 55.6885 1371.93 56.0635C1372.01 56.4385 1372.14 56.7695 1372.31 57.0566C1372.48 57.3379 1372.7 57.5605 1372.97 57.7246C1373.24 57.8828 1373.57 57.9619 1373.95 57.9619C1374.43 57.9619 1374.83 57.8564 1375.14 57.6455C1375.45 57.4346 1375.69 57.1504 1375.87 56.793C1376.05 56.4297 1376.17 56.0254 1376.24 55.5801V53.9893C1376.2 53.6436 1376.13 53.3213 1376.02 53.0225C1375.91 52.7236 1375.77 52.4629 1375.59 52.2402C1375.4 52.0117 1375.18 51.8359 1374.91 51.7129C1374.65 51.584 1374.33 51.5195 1373.97 51.5195C1373.58 51.5195 1373.25 51.6016 1372.98 51.7656C1372.71 51.9297 1372.49 52.1553 1372.32 52.4424C1372.15 52.7295 1372.02 53.0635 1371.94 53.4443C1371.86 53.8252 1371.82 54.2324 1371.82 54.666ZM1385.59 57.5928V53.0576C1385.59 52.7178 1385.53 52.4248 1385.4 52.1787C1385.28 51.9326 1385.09 51.7422 1384.84 51.6074C1384.59 51.4727 1384.28 51.4053 1383.91 51.4053C1383.56 51.4053 1383.26 51.4639 1383.01 51.5811C1382.76 51.6982 1382.56 51.8564 1382.42 52.0557C1382.28 52.2549 1382.21 52.4805 1382.21 52.7324H1380.1C1380.1 52.3574 1380.19 51.9941 1380.38 51.6426C1380.56 51.291 1380.82 50.9775 1381.17 50.7021C1381.51 50.4268 1381.93 50.21 1382.41 50.0518C1382.89 49.8936 1383.43 49.8145 1384.02 49.8145C1384.74 49.8145 1385.37 49.9346 1385.92 50.1748C1386.48 50.415 1386.92 50.7783 1387.23 51.2646C1387.55 51.7451 1387.71 52.3486 1387.71 53.0752V57.3027C1387.71 57.7363 1387.74 58.126 1387.8 58.4717C1387.87 58.8115 1387.96 59.1074 1388.08 59.3594V59.5H1385.9C1385.8 59.2715 1385.73 58.9814 1385.67 58.6299C1385.61 58.2725 1385.59 57.9268 1385.59 57.5928ZM1385.9 53.7168L1385.91 55.0264H1384.39C1384 55.0264 1383.65 55.0645 1383.36 55.1406C1383.06 55.2109 1382.81 55.3164 1382.61 55.457C1382.41 55.5977 1382.26 55.7676 1382.16 55.9668C1382.06 56.166 1382.01 56.3916 1382.01 56.6436C1382.01 56.8955 1382.07 57.127 1382.19 57.3379C1382.3 57.543 1382.47 57.7041 1382.7 57.8213C1382.92 57.9385 1383.2 57.9971 1383.52 57.9971C1383.96 57.9971 1384.33 57.9092 1384.66 57.7334C1384.98 57.5518 1385.24 57.332 1385.43 57.0742C1385.62 56.8105 1385.72 56.5615 1385.73 56.3271L1386.41 57.2676C1386.34 57.5078 1386.22 57.7656 1386.05 58.041C1385.88 58.3164 1385.66 58.5801 1385.39 58.832C1385.12 59.0781 1384.79 59.2803 1384.41 59.4385C1384.04 59.5967 1383.6 59.6758 1383.11 59.6758C1382.49 59.6758 1381.93 59.5527 1381.45 59.3066C1380.96 59.0547 1380.58 58.7178 1380.31 58.2959C1380.03 57.8682 1379.89 57.3848 1379.89 56.8457C1379.89 56.3418 1379.99 55.8965 1380.17 55.5098C1380.37 55.1172 1380.65 54.7891 1381.02 54.5254C1381.39 54.2617 1381.85 54.0625 1382.39 53.9277C1382.93 53.7871 1383.54 53.7168 1384.23 53.7168H1385.9ZM1392.06 51.8008V59.5H1389.94V49.9902H1391.96L1392.06 51.8008ZM1394.97 49.9287L1394.95 51.8975C1394.82 51.874 1394.68 51.8564 1394.53 51.8447C1394.38 51.833 1394.23 51.8271 1394.09 51.8271C1393.72 51.8271 1393.4 51.8799 1393.13 51.9854C1392.85 52.085 1392.62 52.2314 1392.43 52.4248C1392.25 52.6123 1392.11 52.8408 1392.01 53.1104C1391.91 53.3799 1391.85 53.6816 1391.84 54.0156L1391.35 54.0508C1391.35 53.4531 1391.41 52.8994 1391.53 52.3896C1391.65 51.8799 1391.82 51.4316 1392.06 51.0449C1392.3 50.6582 1392.6 50.3564 1392.95 50.1396C1393.32 49.9229 1393.74 49.8145 1394.21 49.8145C1394.34 49.8145 1394.48 49.8262 1394.62 49.8496C1394.78 49.873 1394.89 49.8994 1394.97 49.9287Z" fill="#5384ED"/>
<path d="M1534 53L1524 47.2265L1524 58.7735L1534 53ZM1467.33 53C1467.33 50.0545 1464.95 47.6666 1462 47.6666C1459.05 47.6666 1456.67 50.0545 1456.67 53C1456.67 55.9455 1459.05 58.3333 1462 58.3333C1464.95 58.3333 1467.33 55.9455 1467.33 53ZM1525 52L1462 52L1462 54L1525 54L1525 52Z" fill="#5384ED"/>
<rect x="1535.5" y="28" width="178" height="50" rx="25" fill="#F6F9FE"/>
<path d="M1572.57 46.7031V59.5H1570.38V46.7031H1572.57ZM1576.58 46.7031V48.4609H1566.4V46.7031H1576.58ZM1581.41 59.6758C1580.7 59.6758 1580.07 59.5615 1579.5 59.333C1578.94 59.0986 1578.46 58.7734 1578.06 58.3574C1577.67 57.9414 1577.36 57.4521 1577.15 56.8896C1576.94 56.3271 1576.84 55.7207 1576.84 55.0703V54.7188C1576.84 53.9746 1576.95 53.3008 1577.16 52.6973C1577.38 52.0938 1577.68 51.5781 1578.07 51.1504C1578.45 50.7168 1578.91 50.3857 1579.44 50.1572C1579.97 49.9287 1580.54 49.8145 1581.15 49.8145C1581.83 49.8145 1582.43 49.9287 1582.94 50.1572C1583.45 50.3857 1583.87 50.708 1584.2 51.124C1584.54 51.5342 1584.79 52.0234 1584.96 52.5918C1585.13 53.1602 1585.21 53.7871 1585.21 54.4727V55.3779H1577.87V53.8574H1583.12V53.6904C1583.11 53.3096 1583.03 52.9521 1582.89 52.6182C1582.76 52.2842 1582.55 52.0146 1582.27 51.8096C1581.99 51.6045 1581.61 51.502 1581.14 51.502C1580.79 51.502 1580.48 51.5781 1580.2 51.7305C1579.93 51.877 1579.71 52.0908 1579.53 52.3721C1579.34 52.6533 1579.2 52.9932 1579.1 53.3916C1579.01 53.7842 1578.96 54.2266 1578.96 54.7188V55.0703C1578.96 55.4863 1579.02 55.873 1579.13 56.2305C1579.25 56.582 1579.42 56.8896 1579.64 57.1533C1579.86 57.417 1580.13 57.625 1580.45 57.7773C1580.77 57.9238 1581.13 57.9971 1581.53 57.9971C1582.04 57.9971 1582.49 57.8945 1582.89 57.6895C1583.29 57.4844 1583.64 57.1943 1583.93 56.8193L1585.05 57.9004C1584.84 58.1992 1584.57 58.4863 1584.25 58.7617C1583.92 59.0312 1583.52 59.251 1583.04 59.4209C1582.57 59.5908 1582.03 59.6758 1581.41 59.6758ZM1592.23 57.5928V53.0576C1592.23 52.7178 1592.17 52.4248 1592.04 52.1787C1591.92 51.9326 1591.73 51.7422 1591.48 51.6074C1591.23 51.4727 1590.92 51.4053 1590.55 51.4053C1590.2 51.4053 1589.9 51.4639 1589.65 51.5811C1589.4 51.6982 1589.2 51.8564 1589.06 52.0557C1588.92 52.2549 1588.85 52.4805 1588.85 52.7324H1586.74C1586.74 52.3574 1586.83 51.9941 1587.01 51.6426C1587.2 51.291 1587.46 50.9775 1587.81 50.7021C1588.15 50.4268 1588.56 50.21 1589.04 50.0518C1589.53 49.8936 1590.06 49.8145 1590.66 49.8145C1591.38 49.8145 1592.01 49.9346 1592.56 50.1748C1593.12 50.415 1593.55 50.7783 1593.87 51.2646C1594.19 51.7451 1594.35 52.3486 1594.35 53.0752V57.3027C1594.35 57.7363 1594.38 58.126 1594.44 58.4717C1594.51 58.8115 1594.6 59.1074 1594.71 59.3594V59.5H1592.54C1592.44 59.2715 1592.36 58.9814 1592.31 58.6299C1592.25 58.2725 1592.23 57.9268 1592.23 57.5928ZM1592.53 53.7168L1592.55 55.0264H1591.03C1590.64 55.0264 1590.29 55.0645 1589.99 55.1406C1589.7 55.2109 1589.45 55.3164 1589.25 55.457C1589.05 55.5977 1588.9 55.7676 1588.8 55.9668C1588.7 56.166 1588.65 56.3916 1588.65 56.6436C1588.65 56.8955 1588.71 57.127 1588.83 57.3379C1588.94 57.543 1589.11 57.7041 1589.33 57.8213C1589.56 57.9385 1589.84 57.9971 1590.16 57.9971C1590.59 57.9971 1590.97 57.9092 1591.29 57.7334C1591.62 57.5518 1591.88 57.332 1592.07 57.0742C1592.26 56.8105 1592.36 56.5615 1592.37 56.3271L1593.05 57.2676C1592.98 57.5078 1592.86 57.7656 1592.69 58.041C1592.52 58.3164 1592.3 58.5801 1592.02 58.832C1591.75 59.0781 1591.43 59.2803 1591.05 59.4385C1590.67 59.5967 1590.24 59.6758 1589.75 59.6758C1589.13 59.6758 1588.57 59.5527 1588.09 59.3066C1587.6 59.0547 1587.22 58.7178 1586.94 58.2959C1586.67 57.8682 1586.53 57.3848 1586.53 56.8457C1586.53 56.3418 1586.62 55.8965 1586.81 55.5098C1587.01 55.1172 1587.29 54.7891 1587.66 54.5254C1588.03 54.2617 1588.49 54.0625 1589.03 53.9277C1589.57 53.7871 1590.18 53.7168 1590.87 53.7168H1592.53ZM1598.69 51.9238V59.5H1596.57V49.9902H1598.56L1598.69 51.9238ZM1598.34 54.3936L1597.62 54.3848C1597.62 53.7285 1597.71 53.1221 1597.87 52.5654C1598.03 52.0088 1598.27 51.5254 1598.59 51.1152C1598.91 50.6992 1599.3 50.3799 1599.77 50.1572C1600.24 49.9287 1600.79 49.8145 1601.41 49.8145C1601.84 49.8145 1602.24 49.8789 1602.6 50.0078C1602.96 50.1309 1603.27 50.3271 1603.54 50.5967C1603.81 50.8662 1604.01 51.2119 1604.15 51.6338C1604.3 52.0557 1604.37 52.5654 1604.37 53.1631V59.5H1602.25V53.3477C1602.25 52.8848 1602.18 52.5215 1602.04 52.2578C1601.91 51.9941 1601.71 51.8066 1601.46 51.6953C1601.2 51.5781 1600.9 51.5195 1600.55 51.5195C1600.15 51.5195 1599.81 51.5957 1599.53 51.748C1599.25 51.9004 1599.03 52.1084 1598.85 52.3721C1598.68 52.6357 1598.55 52.9404 1598.47 53.2861C1598.38 53.6318 1598.34 54.001 1598.34 54.3936ZM1604.24 53.8311L1603.25 54.0508C1603.25 53.4766 1603.33 52.9346 1603.49 52.4248C1603.65 51.9092 1603.89 51.458 1604.2 51.0713C1604.51 50.6787 1604.9 50.3711 1605.37 50.1484C1605.83 49.9258 1606.36 49.8145 1606.96 49.8145C1607.44 49.8145 1607.88 49.8818 1608.26 50.0166C1608.64 50.1455 1608.97 50.3506 1609.24 50.6318C1609.51 50.9131 1609.72 51.2793 1609.86 51.7305C1610 52.1758 1610.07 52.7148 1610.07 53.3477V59.5H1607.94V53.3389C1607.94 52.8584 1607.87 52.4863 1607.73 52.2227C1607.6 51.959 1607.4 51.7773 1607.15 51.6777C1606.9 51.5723 1606.6 51.5195 1606.25 51.5195C1605.92 51.5195 1605.63 51.5811 1605.38 51.7041C1605.13 51.8213 1604.92 51.9883 1604.75 52.2051C1604.58 52.416 1604.45 52.6592 1604.36 52.9346C1604.28 53.21 1604.24 53.5088 1604.24 53.8311ZM1618.85 51.9238V59.5H1616.73V49.9902H1618.73L1618.85 51.9238ZM1618.51 54.3936L1617.79 54.3848C1617.79 53.7285 1617.87 53.1221 1618.03 52.5654C1618.2 52.0088 1618.44 51.5254 1618.75 51.1152C1619.07 50.6992 1619.46 50.3799 1619.93 50.1572C1620.4 49.9287 1620.95 49.8145 1621.57 49.8145C1622.01 49.8145 1622.4 49.8789 1622.76 50.0078C1623.12 50.1309 1623.44 50.3271 1623.7 50.5967C1623.97 50.8662 1624.17 51.2119 1624.32 51.6338C1624.46 52.0557 1624.54 52.5654 1624.54 53.1631V59.5H1622.42V53.3477C1622.42 52.8848 1622.35 52.5215 1622.21 52.2578C1622.07 51.9941 1621.88 51.8066 1621.62 51.6953C1621.37 51.5781 1621.06 51.5195 1620.71 51.5195C1620.31 51.5195 1619.97 51.5957 1619.69 51.748C1619.42 51.9004 1619.19 52.1084 1619.02 52.3721C1618.84 52.6357 1618.71 52.9404 1618.63 53.2861C1618.55 53.6318 1618.51 54.001 1618.51 54.3936ZM1624.4 53.8311L1623.41 54.0508C1623.41 53.4766 1623.49 52.9346 1623.65 52.4248C1623.81 51.9092 1624.05 51.458 1624.36 51.0713C1624.68 50.6787 1625.07 50.3711 1625.53 50.1484C1625.99 49.9258 1626.52 49.8145 1627.12 49.8145C1627.61 49.8145 1628.04 49.8818 1628.42 50.0166C1628.81 50.1455 1629.13 50.3506 1629.4 50.6318C1629.67 50.9131 1629.88 51.2793 1630.02 51.7305C1630.16 52.1758 1630.23 52.7148 1630.23 53.3477V59.5H1628.1V53.3389C1628.1 52.8584 1628.03 52.4863 1627.89 52.2227C1627.76 51.959 1627.56 51.7773 1627.31 51.6777C1627.06 51.5723 1626.76 51.5195 1626.41 51.5195C1626.08 51.5195 1625.79 51.5811 1625.54 51.7041C1625.29 51.8213 1625.08 51.9883 1624.91 52.2051C1624.74 52.416 1624.61 52.6592 1624.53 52.9346C1624.44 53.21 1624.4 53.5088 1624.4 53.8311ZM1636.6 59.6758C1635.9 59.6758 1635.26 59.5615 1634.7 59.333C1634.13 59.0986 1633.65 58.7734 1633.25 58.3574C1632.86 57.9414 1632.56 57.4521 1632.35 56.8896C1632.14 56.3271 1632.03 55.7207 1632.03 55.0703V54.7188C1632.03 53.9746 1632.14 53.3008 1632.36 52.6973C1632.57 52.0938 1632.88 51.5781 1633.26 51.1504C1633.65 50.7168 1634.11 50.3857 1634.63 50.1572C1635.16 49.9287 1635.73 49.8145 1636.35 49.8145C1637.03 49.8145 1637.62 49.9287 1638.13 50.1572C1638.64 50.3857 1639.06 50.708 1639.4 51.124C1639.74 51.5342 1639.99 52.0234 1640.15 52.5918C1640.32 53.1602 1640.41 53.7871 1640.41 54.4727V55.3779H1633.06V53.8574H1638.32V53.6904C1638.3 53.3096 1638.23 52.9521 1638.09 52.6182C1637.95 52.2842 1637.75 52.0146 1637.46 51.8096C1637.18 51.6045 1636.81 51.502 1636.34 51.502C1635.99 51.502 1635.67 51.5781 1635.4 51.7305C1635.13 51.877 1634.9 52.0908 1634.72 52.3721C1634.54 52.6533 1634.4 52.9932 1634.3 53.3916C1634.21 53.7842 1634.16 54.2266 1634.16 54.7188V55.0703C1634.16 55.4863 1634.21 55.873 1634.33 56.2305C1634.44 56.582 1634.61 56.8896 1634.84 57.1533C1635.06 57.417 1635.33 57.625 1635.64 57.7773C1635.96 57.9238 1636.32 57.9971 1636.73 57.9971C1637.24 57.9971 1637.69 57.8945 1638.09 57.6895C1638.49 57.4844 1638.83 57.1943 1639.12 56.8193L1640.24 57.9004C1640.04 58.1992 1639.77 58.4863 1639.44 58.7617C1639.11 59.0312 1638.71 59.251 1638.24 59.4209C1637.77 59.5908 1637.22 59.6758 1636.6 59.6758ZM1644.18 51.9238V59.5H1642.06V49.9902H1644.06L1644.18 51.9238ZM1643.84 54.3936L1643.12 54.3848C1643.12 53.7285 1643.2 53.1221 1643.36 52.5654C1643.53 52.0088 1643.77 51.5254 1644.08 51.1152C1644.4 50.6992 1644.79 50.3799 1645.26 50.1572C1645.73 49.9287 1646.28 49.8145 1646.9 49.8145C1647.34 49.8145 1647.73 49.8789 1648.09 50.0078C1648.45 50.1309 1648.77 50.3271 1649.03 50.5967C1649.3 50.8662 1649.5 51.2119 1649.65 51.6338C1649.79 52.0557 1649.87 52.5654 1649.87 53.1631V59.5H1647.75V53.3477C1647.75 52.8848 1647.68 52.5215 1647.54 52.2578C1647.4 51.9941 1647.21 51.8066 1646.95 51.6953C1646.7 51.5781 1646.39 51.5195 1646.04 51.5195C1645.64 51.5195 1645.3 51.5957 1645.02 51.748C1644.75 51.9004 1644.52 52.1084 1644.35 52.3721C1644.17 52.6357 1644.04 52.9404 1643.96 53.2861C1643.88 53.6318 1643.84 54.001 1643.84 54.3936ZM1649.73 53.8311L1648.74 54.0508C1648.74 53.4766 1648.82 52.9346 1648.98 52.4248C1649.14 51.9092 1649.38 51.458 1649.69 51.0713C1650.01 50.6787 1650.4 50.3711 1650.86 50.1484C1651.32 49.9258 1651.85 49.8145 1652.45 49.8145C1652.94 49.8145 1653.37 49.8818 1653.75 50.0166C1654.14 50.1455 1654.46 50.3506 1654.73 50.6318C1655 50.9131 1655.21 51.2793 1655.35 51.7305C1655.49 52.1758 1655.56 52.7148 1655.56 53.3477V59.5H1653.43V53.3389C1653.43 52.8584 1653.36 52.4863 1653.22 52.2227C1653.09 51.959 1652.89 51.7773 1652.64 51.6777C1652.39 51.5723 1652.09 51.5195 1651.74 51.5195C1651.41 51.5195 1651.12 51.5811 1650.87 51.7041C1650.62 51.8213 1650.41 51.9883 1650.24 52.2051C1650.07 52.416 1649.94 52.6592 1649.86 52.9346C1649.77 53.21 1649.73 53.5088 1649.73 53.8311ZM1657.75 46H1659.87V57.4697L1659.67 59.5H1657.75V46ZM1666.07 54.6572V54.8418C1666.07 55.5449 1665.99 56.1924 1665.83 56.7842C1665.68 57.3701 1665.45 57.8799 1665.13 58.3135C1664.82 58.7471 1664.43 59.084 1663.97 59.3242C1663.51 59.5586 1662.98 59.6758 1662.38 59.6758C1661.79 59.6758 1661.27 59.5645 1660.83 59.3418C1660.39 59.1191 1660.03 58.8027 1659.73 58.3926C1659.43 57.9824 1659.2 57.4932 1659.01 56.9248C1658.83 56.3564 1658.7 55.7295 1658.63 55.0439V54.4551C1658.7 53.7637 1658.83 53.1367 1659.01 52.5742C1659.2 52.0059 1659.43 51.5166 1659.73 51.1064C1660.03 50.6904 1660.39 50.3711 1660.83 50.1484C1661.26 49.9258 1661.78 49.8145 1662.36 49.8145C1662.97 49.8145 1663.51 49.9316 1663.97 50.166C1664.44 50.4004 1664.83 50.7344 1665.14 51.168C1665.45 51.5957 1665.68 52.1055 1665.83 52.6973C1665.99 53.2891 1666.07 53.9424 1666.07 54.6572ZM1663.95 54.8418V54.6572C1663.95 54.2295 1663.92 53.8281 1663.85 53.4531C1663.78 53.0723 1663.66 52.7383 1663.5 52.4512C1663.34 52.1641 1663.12 51.9385 1662.85 51.7744C1662.58 51.6045 1662.24 51.5195 1661.84 51.5195C1661.46 51.5195 1661.14 51.584 1660.87 51.7129C1660.6 51.8418 1660.37 52.0176 1660.19 52.2402C1660.01 52.4629 1659.87 52.7207 1659.76 53.0137C1659.66 53.3066 1659.59 53.623 1659.56 53.9629V55.5537C1659.61 55.9932 1659.72 56.3975 1659.89 56.7666C1660.07 57.1299 1660.32 57.4229 1660.63 57.6455C1660.95 57.8623 1661.36 57.9707 1661.85 57.9707C1662.25 57.9707 1662.58 57.8916 1662.85 57.7334C1663.12 57.5752 1663.33 57.3555 1663.49 57.0742C1663.65 56.7871 1663.77 56.4531 1663.84 56.0723C1663.92 55.6914 1663.95 55.2812 1663.95 54.8418ZM1672.06 59.6758C1671.35 59.6758 1670.72 59.5615 1670.15 59.333C1669.59 59.0986 1669.11 58.7734 1668.71 58.3574C1668.32 57.9414 1668.01 57.4521 1667.8 56.8896C1667.59 56.3271 1667.49 55.7207 1667.49 55.0703V54.7188C1667.49 53.9746 1667.6 53.3008 1667.81 52.6973C1668.03 52.0938 1668.33 51.5781 1668.72 51.1504C1669.1 50.7168 1669.56 50.3857 1670.09 50.1572C1670.62 49.9287 1671.19 49.8145 1671.8 49.8145C1672.48 49.8145 1673.08 49.9287 1673.59 50.1572C1674.1 50.3857 1674.52 50.708 1674.85 51.124C1675.19 51.5342 1675.44 52.0234 1675.61 52.5918C1675.78 53.1602 1675.86 53.7871 1675.86 54.4727V55.3779H1668.52V53.8574H1673.77V53.6904C1673.76 53.3096 1673.68 52.9521 1673.54 52.6182C1673.41 52.2842 1673.2 52.0146 1672.92 51.8096C1672.64 51.6045 1672.26 51.502 1671.79 51.502C1671.44 51.502 1671.13 51.5781 1670.85 51.7305C1670.58 51.877 1670.36 52.0908 1670.18 52.3721C1670 52.6533 1669.85 52.9932 1669.75 53.3916C1669.66 53.7842 1669.61 54.2266 1669.61 54.7188V55.0703C1669.61 55.4863 1669.67 55.873 1669.78 56.2305C1669.9 56.582 1670.07 56.8896 1670.29 57.1533C1670.51 57.417 1670.78 57.625 1671.1 57.7773C1671.42 57.9238 1671.78 57.9971 1672.18 57.9971C1672.69 57.9971 1673.14 57.8945 1673.54 57.6895C1673.94 57.4844 1674.29 57.1943 1674.58 56.8193L1675.7 57.9004C1675.49 58.1992 1675.22 58.4863 1674.9 58.7617C1674.57 59.0312 1674.17 59.251 1673.69 59.4209C1673.22 59.5908 1672.68 59.6758 1672.06 59.6758ZM1679.64 51.8008V59.5H1677.52V49.9902H1679.55L1679.64 51.8008ZM1682.55 49.9287L1682.53 51.8975C1682.41 51.874 1682.26 51.8564 1682.11 51.8447C1681.97 51.833 1681.82 51.8271 1681.67 51.8271C1681.31 51.8271 1680.99 51.8799 1680.71 51.9854C1680.44 52.085 1680.21 52.2314 1680.02 52.4248C1679.84 52.6123 1679.7 52.8408 1679.6 53.1104C1679.5 53.3799 1679.44 53.6816 1679.42 54.0156L1678.94 54.0508C1678.94 53.4531 1679 52.8994 1679.12 52.3896C1679.23 51.8799 1679.41 51.4316 1679.64 51.0449C1679.88 50.6582 1680.18 50.3564 1680.54 50.1396C1680.9 49.9229 1681.32 49.8145 1681.8 49.8145C1681.92 49.8145 1682.06 49.8262 1682.21 49.8496C1682.36 49.873 1682.48 49.8994 1682.55 49.9287Z" fill="#5384ED"/>
<rect x="1535.5" y="28" width="178" height="50" rx="25" stroke="#5384ED" stroke-width="3"/>
<defs>
<linearGradient id="paint0_linear_3267_10951" x1="283" y1="8.08981" x2="448.688" y2="164.015" gradientUnits="userSpaceOnUse">
<stop stop-color="#5D85EC"/>
<stop offset="0.533854" stop-color="#9DBEFF"/>
<stop offset="1" stop-color="#5D87D8"/>
</linearGradient>
</defs>
</svg>
