<svg width="1512" height="286" viewBox="0 0 1512 286" fill="none" xmlns="http://www.w3.org/2000/svg">
<mask id="path-1-outside-1_1639_9427" maskUnits="userSpaceOnUse" x="942" y="20" width="569" height="247" fill="black">
<rect fill="white" x="942" y="20" width="569" height="247"/>
<path fill-rule="evenodd" clip-rule="evenodd" d="M1423.31 262.314C1423.3 262.287 1423.29 262.259 1423.29 262.23V228.772H958C951.373 228.772 946 223.4 946 216.772V66.7724C946 60.145 951.373 54.7724 958 54.7724H1423.29V24.3152C1423.29 24.2496 1423.31 24.1856 1423.35 24.1321C1423.48 23.956 1423.74 23.956 1423.87 24.1321L1503.92 136.302C1506.9 140.472 1506.9 146.073 1503.92 150.244L1423.87 262.413C1423.74 262.589 1423.48 262.589 1423.35 262.413C1423.33 262.383 1423.32 262.35 1423.31 262.314Z"/>
</mask>
<path fill-rule="evenodd" clip-rule="evenodd" d="M1423.31 262.314C1423.3 262.287 1423.29 262.259 1423.29 262.23V228.772H958C951.373 228.772 946 223.4 946 216.772V66.7724C946 60.145 951.373 54.7724 958 54.7724H1423.29V24.3152C1423.29 24.2496 1423.31 24.1856 1423.35 24.1321C1423.48 23.956 1423.74 23.956 1423.87 24.1321L1503.92 136.302C1506.9 140.472 1506.9 146.073 1503.92 150.244L1423.87 262.413C1423.74 262.589 1423.48 262.589 1423.35 262.413C1423.33 262.383 1423.32 262.35 1423.31 262.314Z" fill="#F6F9FE"/>
<path d="M1423.35 262.413L1426.61 260.09L1426.61 260.089L1423.35 262.413ZM1423.29 228.772H1427.29V224.772H1423.29V228.772ZM1423.29 54.7724V58.7724H1427.29V54.7724H1423.29ZM1423.35 24.1321L1426.61 26.4559L1426.61 26.4556L1423.35 24.1321ZM1423.87 24.1321L1427.12 21.8084L1427.12 21.8082L1423.87 24.1321ZM1503.92 136.302L1507.18 133.978L1507.18 133.978L1503.92 136.302ZM1503.92 150.244L1500.67 147.92L1500.67 147.92L1503.92 150.244ZM1423.87 262.413L1420.61 260.089L1420.61 260.09L1423.87 262.413ZM1419.29 262.23C1419.29 263.129 1419.58 264.005 1420.1 264.737L1426.61 260.089C1427.05 260.714 1427.29 261.462 1427.29 262.23H1419.29ZM1419.29 228.772V262.23H1427.29V228.772H1419.29ZM1423.29 224.772H958V232.772H1423.29V224.772ZM958 224.772C953.582 224.772 950 221.191 950 216.772H942C942 225.609 949.163 232.772 958 232.772V224.772ZM950 216.772V66.7724H942V216.772H950ZM950 66.7724C950 62.3541 953.582 58.7724 958 58.7724V50.7724C949.163 50.7724 942 57.9358 942 66.7724H950ZM958 58.7724H1423.29V50.7724H958V58.7724ZM1419.29 24.3152V54.7724H1427.29V24.3152H1419.29ZM1420.1 21.8083C1419.58 22.5398 1419.29 23.4162 1419.29 24.3152H1427.29C1427.29 25.0829 1427.05 25.8313 1426.61 26.4559L1420.1 21.8083ZM1427.12 21.8082C1425.4 19.3975 1421.82 19.3969 1420.1 21.8086L1426.61 26.4556C1425.14 28.5151 1422.08 28.5144 1420.61 26.456L1427.12 21.8082ZM1507.18 133.978L1427.12 21.8084L1420.61 26.4558L1500.67 138.625L1507.18 133.978ZM1507.18 152.567C1511.15 147.006 1511.15 139.539 1507.18 133.978L1500.67 138.625C1502.65 141.406 1502.65 145.139 1500.67 147.92L1507.18 152.567ZM1427.12 264.737L1507.18 152.567L1500.67 147.92L1420.61 260.089L1427.12 264.737ZM1420.1 264.737C1421.82 267.148 1425.4 267.148 1427.12 264.737L1420.61 260.09C1422.08 258.03 1425.14 258.03 1426.61 260.09L1420.1 264.737Z" fill="#E2EDFD" mask="url(#path-1-outside-1_1639_9427)"/>
<path d="M1082.78 138.375V147.062C1082.46 147.49 1081.95 147.958 1081.27 148.469C1080.59 148.969 1079.69 149.401 1078.56 149.766C1077.44 150.13 1076.04 150.312 1074.36 150.312C1072.93 150.312 1071.62 150.073 1070.44 149.594C1069.25 149.104 1068.22 148.391 1067.36 147.453C1066.51 146.516 1065.84 145.375 1065.38 144.031C1064.91 142.677 1064.67 141.135 1064.67 139.406V137.828C1064.67 136.109 1064.89 134.578 1065.31 133.234C1065.75 131.88 1066.38 130.734 1067.19 129.797C1068 128.859 1068.98 128.151 1070.12 127.672C1071.28 127.182 1072.59 126.938 1074.05 126.938C1075.91 126.938 1077.45 127.25 1078.67 127.875C1079.9 128.49 1080.85 129.344 1081.52 130.438C1082.18 131.531 1082.6 132.781 1082.78 134.188H1078.94C1078.81 133.396 1078.57 132.688 1078.2 132.062C1077.85 131.438 1077.34 130.948 1076.67 130.594C1076.02 130.229 1075.16 130.047 1074.11 130.047C1073.2 130.047 1072.41 130.219 1071.72 130.562C1071.03 130.906 1070.46 131.411 1070 132.078C1069.55 132.745 1069.21 133.557 1068.98 134.516C1068.76 135.474 1068.64 136.568 1068.64 137.797V139.406C1068.64 140.656 1068.77 141.766 1069.03 142.734C1069.3 143.703 1069.69 144.521 1070.19 145.188C1070.7 145.854 1071.32 146.359 1072.05 146.703C1072.78 147.036 1073.6 147.203 1074.52 147.203C1075.41 147.203 1076.15 147.13 1076.72 146.984C1077.29 146.828 1077.74 146.646 1078.08 146.438C1078.42 146.219 1078.69 146.01 1078.88 145.812V141.297H1074.14V138.375H1082.78ZM1096.28 146.609V138.547C1096.28 137.943 1096.17 137.422 1095.95 136.984C1095.73 136.547 1095.4 136.208 1094.95 135.969C1094.52 135.729 1093.96 135.609 1093.3 135.609C1092.68 135.609 1092.15 135.714 1091.7 135.922C1091.26 136.13 1090.91 136.411 1090.66 136.766C1090.41 137.12 1090.28 137.521 1090.28 137.969H1086.53C1086.53 137.302 1086.69 136.656 1087.02 136.031C1087.34 135.406 1087.81 134.849 1088.42 134.359C1089.04 133.87 1089.77 133.484 1090.62 133.203C1091.48 132.922 1092.44 132.781 1093.5 132.781C1094.77 132.781 1095.9 132.995 1096.88 133.422C1097.86 133.849 1098.64 134.495 1099.2 135.359C1099.78 136.214 1100.06 137.286 1100.06 138.578V146.094C1100.06 146.865 1100.11 147.557 1100.22 148.172C1100.33 148.776 1100.49 149.302 1100.7 149.75V150H1096.84C1096.67 149.594 1096.53 149.078 1096.42 148.453C1096.33 147.818 1096.28 147.203 1096.28 146.609ZM1096.83 139.719L1096.86 142.047H1094.16C1093.46 142.047 1092.84 142.115 1092.31 142.25C1091.78 142.375 1091.34 142.562 1090.98 142.812C1090.63 143.062 1090.36 143.365 1090.19 143.719C1090.01 144.073 1089.92 144.474 1089.92 144.922C1089.92 145.37 1090.03 145.781 1090.23 146.156C1090.44 146.521 1090.74 146.807 1091.14 147.016C1091.55 147.224 1092.04 147.328 1092.61 147.328C1093.38 147.328 1094.05 147.172 1094.62 146.859C1095.21 146.536 1095.67 146.146 1096 145.688C1096.33 145.219 1096.51 144.776 1096.53 144.359L1097.75 146.031C1097.62 146.458 1097.41 146.917 1097.11 147.406C1096.81 147.896 1096.41 148.365 1095.92 148.812C1095.44 149.25 1094.86 149.609 1094.19 149.891C1093.52 150.172 1092.75 150.312 1091.88 150.312C1090.77 150.312 1089.79 150.094 1088.92 149.656C1088.06 149.208 1087.38 148.609 1086.89 147.859C1086.4 147.099 1086.16 146.24 1086.16 145.281C1086.16 144.385 1086.32 143.594 1086.66 142.906C1087 142.208 1087.5 141.625 1088.16 141.156C1088.82 140.688 1089.64 140.333 1090.59 140.094C1091.55 139.844 1092.65 139.719 1093.88 139.719H1096.83ZM1111.75 133.094V135.844H1102.22V133.094H1111.75ZM1104.97 128.953H1108.73V145.328C1108.73 145.849 1108.81 146.25 1108.95 146.531C1109.11 146.802 1109.32 146.984 1109.59 147.078C1109.86 147.172 1110.18 147.219 1110.55 147.219C1110.81 147.219 1111.06 147.203 1111.3 147.172C1111.54 147.141 1111.73 147.109 1111.88 147.078L1111.89 149.953C1111.58 150.047 1111.21 150.13 1110.8 150.203C1110.39 150.276 1109.92 150.312 1109.39 150.312C1108.53 150.312 1107.76 150.161 1107.09 149.859C1106.43 149.547 1105.91 149.042 1105.53 148.344C1105.16 147.646 1104.97 146.719 1104.97 145.562V128.953ZM1118.38 126V150H1114.62V126H1118.38ZM1117.72 140.922L1116.5 140.906C1116.51 139.74 1116.67 138.661 1116.98 137.672C1117.31 136.682 1117.76 135.823 1118.33 135.094C1118.91 134.354 1119.61 133.786 1120.42 133.391C1121.23 132.984 1122.14 132.781 1123.12 132.781C1123.96 132.781 1124.71 132.896 1125.38 133.125C1126.05 133.354 1126.64 133.724 1127.12 134.234C1127.61 134.734 1127.98 135.391 1128.23 136.203C1128.49 137.005 1128.62 137.984 1128.62 139.141V150H1124.84V139.109C1124.84 138.297 1124.72 137.651 1124.48 137.172C1124.26 136.693 1123.92 136.349 1123.47 136.141C1123.02 135.922 1122.47 135.812 1121.83 135.812C1121.15 135.812 1120.55 135.948 1120.03 136.219C1119.52 136.49 1119.09 136.859 1118.75 137.328C1118.41 137.797 1118.15 138.339 1117.97 138.953C1117.8 139.568 1117.72 140.224 1117.72 140.922ZM1139.89 150.312C1138.64 150.312 1137.51 150.109 1136.5 149.703C1135.5 149.286 1134.65 148.708 1133.94 147.969C1133.24 147.229 1132.7 146.359 1132.33 145.359C1131.95 144.359 1131.77 143.281 1131.77 142.125V141.5C1131.77 140.177 1131.96 138.979 1132.34 137.906C1132.73 136.833 1133.27 135.917 1133.95 135.156C1134.64 134.385 1135.45 133.797 1136.39 133.391C1137.33 132.984 1138.34 132.781 1139.44 132.781C1140.65 132.781 1141.7 132.984 1142.61 133.391C1143.52 133.797 1144.27 134.37 1144.86 135.109C1145.46 135.839 1145.91 136.708 1146.2 137.719C1146.51 138.729 1146.66 139.844 1146.66 141.062V142.672H1133.59V139.969H1142.94V139.672C1142.92 138.995 1142.78 138.359 1142.53 137.766C1142.29 137.172 1141.92 136.693 1141.42 136.328C1140.92 135.964 1140.26 135.781 1139.42 135.781C1138.8 135.781 1138.24 135.917 1137.75 136.188C1137.27 136.448 1136.87 136.828 1136.55 137.328C1136.22 137.828 1135.97 138.432 1135.8 139.141C1135.63 139.839 1135.55 140.625 1135.55 141.5V142.125C1135.55 142.865 1135.65 143.552 1135.84 144.188C1136.05 144.812 1136.35 145.359 1136.75 145.828C1137.15 146.297 1137.62 146.667 1138.19 146.938C1138.75 147.198 1139.39 147.328 1140.11 147.328C1141.02 147.328 1141.82 147.146 1142.53 146.781C1143.24 146.417 1143.85 145.901 1144.38 145.234L1146.36 147.156C1145.99 147.688 1145.52 148.198 1144.94 148.688C1144.35 149.167 1143.64 149.557 1142.8 149.859C1141.96 150.161 1140.99 150.312 1139.89 150.312ZM1153.38 136.312V150H1149.61V133.094H1153.2L1153.38 136.312ZM1158.55 132.984L1158.52 136.484C1158.29 136.443 1158.04 136.411 1157.77 136.391C1157.51 136.37 1157.24 136.359 1156.98 136.359C1156.34 136.359 1155.77 136.453 1155.28 136.641C1154.79 136.818 1154.38 137.078 1154.05 137.422C1153.72 137.755 1153.47 138.161 1153.3 138.641C1153.12 139.12 1153.02 139.656 1152.98 140.25L1152.12 140.312C1152.12 139.25 1152.23 138.266 1152.44 137.359C1152.65 136.453 1152.96 135.656 1153.38 134.969C1153.8 134.281 1154.33 133.745 1154.97 133.359C1155.61 132.974 1156.36 132.781 1157.2 132.781C1157.43 132.781 1157.68 132.802 1157.94 132.844C1158.21 132.885 1158.41 132.932 1158.55 132.984ZM1164.94 133.094V150H1161.16V133.094H1164.94ZM1160.91 128.656C1160.91 128.083 1161.09 127.609 1161.47 127.234C1161.85 126.849 1162.39 126.656 1163.06 126.656C1163.73 126.656 1164.26 126.849 1164.64 127.234C1165.03 127.609 1165.22 128.083 1165.22 128.656C1165.22 129.219 1165.03 129.688 1164.64 130.062C1164.26 130.438 1163.73 130.625 1163.06 130.625C1162.39 130.625 1161.85 130.438 1161.47 130.062C1161.09 129.688 1160.91 129.219 1160.91 128.656ZM1172.8 136.703V150H1169.03V133.094H1172.58L1172.8 136.703ZM1172.12 140.922L1170.91 140.906C1170.92 139.708 1171.08 138.609 1171.41 137.609C1171.74 136.609 1172.2 135.75 1172.78 135.031C1173.38 134.312 1174.08 133.76 1174.91 133.375C1175.73 132.979 1176.65 132.781 1177.66 132.781C1178.47 132.781 1179.2 132.896 1179.86 133.125C1180.53 133.344 1181.09 133.703 1181.56 134.203C1182.04 134.703 1182.41 135.354 1182.66 136.156C1182.91 136.948 1183.03 137.922 1183.03 139.078V150H1179.25V139.062C1179.25 138.25 1179.13 137.609 1178.89 137.141C1178.66 136.661 1178.32 136.323 1177.88 136.125C1177.44 135.917 1176.89 135.812 1176.23 135.812C1175.59 135.812 1175.01 135.948 1174.5 136.219C1173.99 136.49 1173.56 136.859 1173.2 137.328C1172.86 137.797 1172.59 138.339 1172.41 138.953C1172.22 139.568 1172.12 140.224 1172.12 140.922ZM1197.7 133.094H1201.12V149.531C1201.12 151.052 1200.8 152.344 1200.16 153.406C1199.51 154.469 1198.61 155.276 1197.45 155.828C1196.3 156.391 1194.96 156.672 1193.44 156.672C1192.79 156.672 1192.07 156.578 1191.28 156.391C1190.5 156.203 1189.74 155.901 1189 155.484C1188.27 155.078 1187.66 154.542 1187.17 153.875L1188.94 151.656C1189.54 152.375 1190.21 152.901 1190.94 153.234C1191.67 153.568 1192.43 153.734 1193.23 153.734C1194.1 153.734 1194.83 153.573 1195.44 153.25C1196.05 152.938 1196.53 152.474 1196.86 151.859C1197.19 151.245 1197.36 150.495 1197.36 149.609V136.922L1197.7 133.094ZM1186.22 141.734V141.406C1186.22 140.125 1186.38 138.958 1186.69 137.906C1187 136.844 1187.45 135.932 1188.03 135.172C1188.61 134.401 1189.32 133.812 1190.16 133.406C1190.99 132.99 1191.93 132.781 1192.98 132.781C1194.08 132.781 1195.01 132.979 1195.78 133.375C1196.56 133.771 1197.21 134.339 1197.73 135.078C1198.26 135.807 1198.66 136.682 1198.95 137.703C1199.26 138.714 1199.48 139.839 1199.62 141.078V142.125C1199.49 143.333 1199.26 144.438 1198.94 145.438C1198.61 146.438 1198.19 147.302 1197.66 148.031C1197.12 148.76 1196.47 149.323 1195.69 149.719C1194.92 150.115 1194.01 150.312 1192.95 150.312C1191.92 150.312 1190.99 150.099 1190.16 149.672C1189.33 149.245 1188.62 148.646 1188.03 147.875C1187.45 147.104 1187 146.198 1186.69 145.156C1186.38 144.104 1186.22 142.964 1186.22 141.734ZM1189.98 141.406V141.734C1189.98 142.505 1190.06 143.224 1190.2 143.891C1190.36 144.557 1190.59 145.146 1190.91 145.656C1191.23 146.156 1191.64 146.552 1192.12 146.844C1192.62 147.125 1193.21 147.266 1193.89 147.266C1194.78 147.266 1195.5 147.078 1196.06 146.703C1196.64 146.328 1197.07 145.823 1197.38 145.188C1197.69 144.542 1197.91 143.823 1198.03 143.031V140.203C1197.97 139.589 1197.84 139.016 1197.64 138.484C1197.45 137.953 1197.2 137.49 1196.88 137.094C1196.55 136.688 1196.15 136.375 1195.66 136.156C1195.17 135.927 1194.59 135.812 1193.92 135.812C1193.24 135.812 1192.66 135.958 1192.16 136.25C1191.66 136.542 1191.24 136.943 1190.92 137.453C1190.61 137.964 1190.38 138.557 1190.22 139.234C1190.06 139.911 1189.98 140.635 1189.98 141.406ZM1220.45 150.312C1219.2 150.312 1218.07 150.109 1217.06 149.703C1216.06 149.286 1215.21 148.708 1214.5 147.969C1213.8 147.229 1213.27 146.359 1212.89 145.359C1212.52 144.359 1212.33 143.281 1212.33 142.125V141.5C1212.33 140.177 1212.52 138.979 1212.91 137.906C1213.29 136.833 1213.83 135.917 1214.52 135.156C1215.2 134.385 1216.02 133.797 1216.95 133.391C1217.89 132.984 1218.91 132.781 1220 132.781C1221.21 132.781 1222.27 132.984 1223.17 133.391C1224.08 133.797 1224.83 134.37 1225.42 135.109C1226.03 135.839 1226.47 136.708 1226.77 137.719C1227.07 138.729 1227.22 139.844 1227.22 141.062V142.672H1214.16V139.969H1223.5V139.672C1223.48 138.995 1223.34 138.359 1223.09 137.766C1222.85 137.172 1222.48 136.693 1221.98 136.328C1221.48 135.964 1220.82 135.781 1219.98 135.781C1219.36 135.781 1218.8 135.917 1218.31 136.188C1217.83 136.448 1217.43 136.828 1217.11 137.328C1216.79 137.828 1216.54 138.432 1216.36 139.141C1216.19 139.839 1216.11 140.625 1216.11 141.5V142.125C1216.11 142.865 1216.21 143.552 1216.41 144.188C1216.61 144.812 1216.92 145.359 1217.31 145.828C1217.71 146.297 1218.19 146.667 1218.75 146.938C1219.31 147.198 1219.95 147.328 1220.67 147.328C1221.58 147.328 1222.39 147.146 1223.09 146.781C1223.8 146.417 1224.42 145.901 1224.94 145.234L1226.92 147.156C1226.56 147.688 1226.08 148.198 1225.5 148.688C1224.92 149.167 1224.2 149.557 1223.36 149.859C1222.53 150.161 1221.56 150.312 1220.45 150.312ZM1235.44 147.016L1239.58 133.094H1243.48L1237.61 150H1235.17L1235.44 147.016ZM1232.27 133.094L1236.48 147.078L1236.69 150H1234.25L1228.34 133.094H1232.27ZM1249.84 133.094V150H1246.06V133.094H1249.84ZM1245.81 128.656C1245.81 128.083 1246 127.609 1246.38 127.234C1246.76 126.849 1247.29 126.656 1247.97 126.656C1248.64 126.656 1249.16 126.849 1249.55 127.234C1249.93 127.609 1250.12 128.083 1250.12 128.656C1250.12 129.219 1249.93 129.688 1249.55 130.062C1249.16 130.438 1248.64 130.625 1247.97 130.625C1247.29 130.625 1246.76 130.438 1246.38 130.062C1246 129.688 1245.81 129.219 1245.81 128.656ZM1264.28 146.5V126H1268.06V150H1264.64L1264.28 146.5ZM1253.28 141.734V141.406C1253.28 140.125 1253.43 138.958 1253.73 137.906C1254.04 136.844 1254.47 135.932 1255.05 135.172C1255.62 134.401 1256.32 133.812 1257.14 133.406C1257.96 132.99 1258.89 132.781 1259.92 132.781C1260.94 132.781 1261.84 132.979 1262.61 133.375C1263.38 133.771 1264.04 134.339 1264.58 135.078C1265.12 135.807 1265.55 136.682 1265.88 137.703C1266.2 138.714 1266.43 139.839 1266.56 141.078V142.125C1266.43 143.333 1266.2 144.438 1265.88 145.438C1265.55 146.438 1265.12 147.302 1264.58 148.031C1264.04 148.76 1263.38 149.323 1262.59 149.719C1261.82 150.115 1260.92 150.312 1259.89 150.312C1258.87 150.312 1257.95 150.099 1257.12 149.672C1256.31 149.245 1255.62 148.646 1255.05 147.875C1254.47 147.104 1254.04 146.198 1253.73 145.156C1253.43 144.104 1253.28 142.964 1253.28 141.734ZM1257.05 141.406V141.734C1257.05 142.505 1257.11 143.224 1257.25 143.891C1257.4 144.557 1257.62 145.146 1257.92 145.656C1258.22 146.156 1258.61 146.552 1259.09 146.844C1259.58 147.125 1260.17 147.266 1260.84 147.266C1261.7 147.266 1262.4 147.078 1262.95 146.703C1263.51 146.328 1263.94 145.823 1264.25 145.188C1264.57 144.542 1264.79 143.823 1264.91 143.031V140.203C1264.84 139.589 1264.71 139.016 1264.52 138.484C1264.33 137.953 1264.07 137.49 1263.75 137.094C1263.43 136.688 1263.03 136.375 1262.55 136.156C1262.08 135.927 1261.52 135.812 1260.88 135.812C1260.19 135.812 1259.6 135.958 1259.12 136.25C1258.65 136.542 1258.25 136.943 1257.94 137.453C1257.64 137.964 1257.41 138.557 1257.27 139.234C1257.12 139.911 1257.05 140.635 1257.05 141.406ZM1279.45 150.312C1278.2 150.312 1277.07 150.109 1276.06 149.703C1275.06 149.286 1274.21 148.708 1273.5 147.969C1272.8 147.229 1272.27 146.359 1271.89 145.359C1271.52 144.359 1271.33 143.281 1271.33 142.125V141.5C1271.33 140.177 1271.52 138.979 1271.91 137.906C1272.29 136.833 1272.83 135.917 1273.52 135.156C1274.2 134.385 1275.02 133.797 1275.95 133.391C1276.89 132.984 1277.91 132.781 1279 132.781C1280.21 132.781 1281.27 132.984 1282.17 133.391C1283.08 133.797 1283.83 134.37 1284.42 135.109C1285.03 135.839 1285.47 136.708 1285.77 137.719C1286.07 138.729 1286.22 139.844 1286.22 141.062V142.672H1273.16V139.969H1282.5V139.672C1282.48 138.995 1282.34 138.359 1282.09 137.766C1281.85 137.172 1281.48 136.693 1280.98 136.328C1280.48 135.964 1279.82 135.781 1278.98 135.781C1278.36 135.781 1277.8 135.917 1277.31 136.188C1276.83 136.448 1276.43 136.828 1276.11 137.328C1275.79 137.828 1275.54 138.432 1275.36 139.141C1275.19 139.839 1275.11 140.625 1275.11 141.5V142.125C1275.11 142.865 1275.21 143.552 1275.41 144.188C1275.61 144.812 1275.92 145.359 1276.31 145.828C1276.71 146.297 1277.19 146.667 1277.75 146.938C1278.31 147.198 1278.95 147.328 1279.67 147.328C1280.58 147.328 1281.39 147.146 1282.09 146.781C1282.8 146.417 1283.42 145.901 1283.94 145.234L1285.92 147.156C1285.56 147.688 1285.08 148.198 1284.5 148.688C1283.92 149.167 1283.2 149.557 1282.36 149.859C1281.53 150.161 1280.56 150.312 1279.45 150.312ZM1292.89 136.703V150H1289.12V133.094H1292.67L1292.89 136.703ZM1292.22 140.922L1291 140.906C1291.01 139.708 1291.18 138.609 1291.5 137.609C1291.83 136.609 1292.29 135.75 1292.88 135.031C1293.47 134.312 1294.18 133.76 1295 133.375C1295.82 132.979 1296.74 132.781 1297.75 132.781C1298.56 132.781 1299.3 132.896 1299.95 133.125C1300.62 133.344 1301.19 133.703 1301.66 134.203C1302.14 134.703 1302.5 135.354 1302.75 136.156C1303 136.948 1303.12 137.922 1303.12 139.078V150H1299.34V139.062C1299.34 138.25 1299.22 137.609 1298.98 137.141C1298.76 136.661 1298.42 136.323 1297.97 136.125C1297.53 135.917 1296.98 135.812 1296.33 135.812C1295.68 135.812 1295.1 135.948 1294.59 136.219C1294.08 136.49 1293.65 136.859 1293.3 137.328C1292.95 137.797 1292.69 138.339 1292.5 138.953C1292.31 139.568 1292.22 140.224 1292.22 140.922ZM1313.88 147.312C1314.49 147.312 1315.04 147.193 1315.53 146.953C1316.03 146.703 1316.43 146.359 1316.73 145.922C1317.05 145.484 1317.22 144.979 1317.25 144.406H1320.8C1320.78 145.5 1320.45 146.495 1319.83 147.391C1319.2 148.286 1318.38 149 1317.34 149.531C1316.31 150.052 1315.17 150.312 1313.92 150.312C1312.63 150.312 1311.51 150.094 1310.55 149.656C1309.59 149.208 1308.79 148.594 1308.16 147.812C1307.52 147.031 1307.04 146.13 1306.72 145.109C1306.41 144.089 1306.25 142.995 1306.25 141.828V141.281C1306.25 140.115 1306.41 139.021 1306.72 138C1307.04 136.969 1307.52 136.062 1308.16 135.281C1308.79 134.5 1309.59 133.891 1310.55 133.453C1311.51 133.005 1312.62 132.781 1313.91 132.781C1315.26 132.781 1316.45 133.052 1317.47 133.594C1318.49 134.125 1319.29 134.87 1319.88 135.828C1320.47 136.776 1320.78 137.88 1320.8 139.141H1317.25C1317.22 138.516 1317.06 137.953 1316.78 137.453C1316.51 136.943 1316.12 136.536 1315.62 136.234C1315.14 135.932 1314.55 135.781 1313.86 135.781C1313.1 135.781 1312.47 135.938 1311.97 136.25C1311.47 136.552 1311.08 136.969 1310.8 137.5C1310.52 138.021 1310.31 138.609 1310.19 139.266C1310.07 139.911 1310.02 140.583 1310.02 141.281V141.828C1310.02 142.526 1310.07 143.203 1310.19 143.859C1310.3 144.516 1310.5 145.104 1310.78 145.625C1311.07 146.135 1311.47 146.547 1311.97 146.859C1312.47 147.161 1313.1 147.312 1313.88 147.312ZM1331.14 150.312C1329.89 150.312 1328.76 150.109 1327.75 149.703C1326.75 149.286 1325.9 148.708 1325.19 147.969C1324.49 147.229 1323.95 146.359 1323.58 145.359C1323.2 144.359 1323.02 143.281 1323.02 142.125V141.5C1323.02 140.177 1323.21 138.979 1323.59 137.906C1323.98 136.833 1324.52 135.917 1325.2 135.156C1325.89 134.385 1326.7 133.797 1327.64 133.391C1328.58 132.984 1329.59 132.781 1330.69 132.781C1331.9 132.781 1332.95 132.984 1333.86 133.391C1334.77 133.797 1335.52 134.37 1336.11 135.109C1336.71 135.839 1337.16 136.708 1337.45 137.719C1337.76 138.729 1337.91 139.844 1337.91 141.062V142.672H1324.84V139.969H1334.19V139.672C1334.17 138.995 1334.03 138.359 1333.78 137.766C1333.54 137.172 1333.17 136.693 1332.67 136.328C1332.17 135.964 1331.51 135.781 1330.67 135.781C1330.05 135.781 1329.49 135.917 1329 136.188C1328.52 136.448 1328.12 136.828 1327.8 137.328C1327.47 137.828 1327.22 138.432 1327.05 139.141C1326.88 139.839 1326.8 140.625 1326.8 141.5V142.125C1326.8 142.865 1326.9 143.552 1327.09 144.188C1327.3 144.812 1327.6 145.359 1328 145.828C1328.4 146.297 1328.88 146.667 1329.44 146.938C1330 147.198 1330.64 147.328 1331.36 147.328C1332.27 147.328 1333.07 147.146 1333.78 146.781C1334.49 146.417 1335.1 145.901 1335.62 145.234L1337.61 147.156C1337.24 147.688 1336.77 148.198 1336.19 148.688C1335.6 149.167 1334.89 149.557 1334.05 149.859C1333.21 150.161 1332.24 150.312 1331.14 150.312Z" fill="#102042"/>
<mask id="path-4-outside-2_1639_9427" maskUnits="userSpaceOnUse" x="472" y="20" width="569" height="247" fill="black">
<rect fill="white" x="472" y="20" width="569" height="247"/>
<path fill-rule="evenodd" clip-rule="evenodd" d="M953.353 262.413C953.315 262.36 953.295 262.296 953.295 262.23V228.772H488C481.373 228.772 476 223.4 476 216.772V66.7724C476 60.145 481.373 54.7724 488 54.7724H953.295V24.3152C953.295 24.2496 953.315 24.1856 953.353 24.1321C953.479 23.956 953.741 23.956 953.866 24.1321L1033.92 136.302C1036.9 140.472 1036.9 146.073 1033.92 150.244L953.866 262.413C953.741 262.589 953.479 262.589 953.353 262.413Z"/>
</mask>
<path fill-rule="evenodd" clip-rule="evenodd" d="M953.353 262.413C953.315 262.36 953.295 262.296 953.295 262.23V228.772H488C481.373 228.772 476 223.4 476 216.772V66.7724C476 60.145 481.373 54.7724 488 54.7724H953.295V24.3152C953.295 24.2496 953.315 24.1856 953.353 24.1321C953.479 23.956 953.741 23.956 953.866 24.1321L1033.92 136.302C1036.9 140.472 1036.9 146.073 1033.92 150.244L953.866 262.413C953.741 262.589 953.479 262.589 953.353 262.413Z" fill="#F6F9FE"/>
<path d="M953.305 262.311L957.17 261.279L957.17 261.279L953.305 262.311ZM953.295 228.772H957.295V224.772H953.295V228.772ZM953.295 54.7724V58.7724H957.295V54.7724H953.295ZM953.353 24.1321L956.609 26.4559L956.609 26.4556L953.353 24.1321ZM953.866 24.1321L957.122 21.8084L957.122 21.8082L953.866 24.1321ZM1033.92 136.302L1037.18 133.978L1037.18 133.978L1033.92 136.302ZM1033.92 150.244L1030.67 147.92L1030.67 147.92L1033.92 150.244ZM953.866 262.413L950.611 260.089L950.61 260.09L953.866 262.413ZM953.353 262.413L956.609 260.09L956.609 260.089L953.353 262.413ZM949.295 262.23C949.295 262.608 949.344 262.983 949.441 263.344L957.17 261.279C957.252 261.587 957.295 261.907 957.295 262.23H949.295ZM949.295 228.772V262.23H957.295V228.772H949.295ZM953.295 224.772H488V232.772H953.295V224.772ZM488 224.772C483.582 224.772 480 221.191 480 216.772H472C472 225.609 479.163 232.772 488 232.772V224.772ZM480 216.772V66.7724H472V216.772H480ZM480 66.7724C480 62.3541 483.582 58.7724 488 58.7724V50.7724C479.163 50.7724 472 57.9358 472 66.7724H480ZM488 58.7724H953.295V50.7724H488V58.7724ZM949.295 24.3152V54.7724H957.295V24.3152H949.295ZM950.098 21.8083C949.575 22.5398 949.295 23.4162 949.295 24.3152H957.295C957.295 25.0829 957.055 25.8313 956.609 26.4559L950.098 21.8083ZM957.122 21.8082C955.401 19.3975 951.818 19.3969 950.097 21.8086L956.609 26.4556C955.14 28.5151 952.08 28.5144 950.611 26.456L957.122 21.8082ZM1037.18 133.978L957.122 21.8084L950.611 26.4558L1030.67 138.625L1037.18 133.978ZM1037.18 152.567C1041.15 147.006 1041.15 139.539 1037.18 133.978L1030.67 138.625C1032.65 141.406 1032.65 145.139 1030.67 147.92L1037.18 152.567ZM957.122 264.737L1037.18 152.567L1030.67 147.92L950.611 260.089L957.122 264.737ZM950.097 264.737C951.818 267.148 955.402 267.148 957.122 264.737L950.61 260.09C952.08 258.03 955.14 258.03 956.609 260.09L950.097 264.737ZM949.441 263.343C949.573 263.84 949.795 264.313 950.097 264.737L956.609 260.089C956.868 260.452 957.057 260.855 957.17 261.279L949.441 263.343Z" fill="#E2EDFD" mask="url(#path-4-outside-2_1639_9427)"/>
<path d="M601.234 127.25V150H597.312V127.25H601.234ZM610.516 137.203V140.312H600.234V137.203H610.516ZM611.812 127.25V130.375H600.234V127.25H611.812ZM617.938 136.312V150H614.172V133.094H617.766L617.938 136.312ZM623.109 132.984L623.078 136.484C622.849 136.443 622.599 136.411 622.328 136.391C622.068 136.37 621.807 136.359 621.547 136.359C620.901 136.359 620.333 136.453 619.844 136.641C619.354 136.818 618.943 137.078 618.609 137.422C618.286 137.755 618.036 138.161 617.859 138.641C617.682 139.12 617.578 139.656 617.547 140.25L616.688 140.312C616.688 139.25 616.792 138.266 617 137.359C617.208 136.453 617.521 135.656 617.938 134.969C618.365 134.281 618.896 133.745 619.531 133.359C620.177 132.974 620.922 132.781 621.766 132.781C621.995 132.781 622.24 132.802 622.5 132.844C622.771 132.885 622.974 132.932 623.109 132.984ZM634.438 146.609V138.547C634.438 137.943 634.328 137.422 634.109 136.984C633.891 136.547 633.557 136.208 633.109 135.969C632.672 135.729 632.12 135.609 631.453 135.609C630.839 135.609 630.307 135.714 629.859 135.922C629.411 136.13 629.062 136.411 628.812 136.766C628.562 137.12 628.438 137.521 628.438 137.969H624.688C624.688 137.302 624.849 136.656 625.172 136.031C625.495 135.406 625.964 134.849 626.578 134.359C627.193 133.87 627.927 133.484 628.781 133.203C629.635 132.922 630.594 132.781 631.656 132.781C632.927 132.781 634.052 132.995 635.031 133.422C636.021 133.849 636.797 134.495 637.359 135.359C637.932 136.214 638.219 137.286 638.219 138.578V146.094C638.219 146.865 638.271 147.557 638.375 148.172C638.49 148.776 638.651 149.302 638.859 149.75V150H635C634.823 149.594 634.682 149.078 634.578 148.453C634.484 147.818 634.438 147.203 634.438 146.609ZM634.984 139.719L635.016 142.047H632.312C631.615 142.047 631 142.115 630.469 142.25C629.938 142.375 629.495 142.562 629.141 142.812C628.786 143.062 628.521 143.365 628.344 143.719C628.167 144.073 628.078 144.474 628.078 144.922C628.078 145.37 628.182 145.781 628.391 146.156C628.599 146.521 628.901 146.807 629.297 147.016C629.703 147.224 630.193 147.328 630.766 147.328C631.536 147.328 632.208 147.172 632.781 146.859C633.365 146.536 633.823 146.146 634.156 145.688C634.49 145.219 634.667 144.776 634.688 144.359L635.906 146.031C635.781 146.458 635.568 146.917 635.266 147.406C634.964 147.896 634.568 148.365 634.078 148.812C633.599 149.25 633.021 149.609 632.344 149.891C631.677 150.172 630.906 150.312 630.031 150.312C628.927 150.312 627.943 150.094 627.078 149.656C626.214 149.208 625.536 148.609 625.047 147.859C624.557 147.099 624.312 146.24 624.312 145.281C624.312 144.385 624.479 143.594 624.812 142.906C625.156 142.208 625.656 141.625 626.312 141.156C626.979 140.688 627.792 140.333 628.75 140.094C629.708 139.844 630.802 139.719 632.031 139.719H634.984ZM645.922 136.531V150H642.156V133.094H645.703L645.922 136.531ZM645.312 140.922L644.031 140.906C644.031 139.74 644.177 138.661 644.469 137.672C644.76 136.682 645.188 135.823 645.75 135.094C646.312 134.354 647.01 133.786 647.844 133.391C648.688 132.984 649.661 132.781 650.766 132.781C651.536 132.781 652.24 132.896 652.875 133.125C653.521 133.344 654.078 133.693 654.547 134.172C655.026 134.651 655.391 135.266 655.641 136.016C655.901 136.766 656.031 137.672 656.031 138.734V150H652.266V139.062C652.266 138.24 652.141 137.594 651.891 137.125C651.651 136.656 651.302 136.323 650.844 136.125C650.396 135.917 649.859 135.812 649.234 135.812C648.526 135.812 647.922 135.948 647.422 136.219C646.932 136.49 646.531 136.859 646.219 137.328C645.906 137.797 645.677 138.339 645.531 138.953C645.385 139.568 645.312 140.224 645.312 140.922ZM655.797 139.922L654.031 140.312C654.031 139.292 654.172 138.328 654.453 137.422C654.745 136.505 655.167 135.703 655.719 135.016C656.281 134.318 656.974 133.771 657.797 133.375C658.62 132.979 659.562 132.781 660.625 132.781C661.49 132.781 662.26 132.901 662.938 133.141C663.625 133.37 664.208 133.734 664.688 134.234C665.167 134.734 665.531 135.385 665.781 136.188C666.031 136.979 666.156 137.938 666.156 139.062V150H662.375V139.047C662.375 138.193 662.25 137.531 662 137.062C661.76 136.594 661.417 136.271 660.969 136.094C660.521 135.906 659.984 135.812 659.359 135.812C658.776 135.812 658.26 135.922 657.812 136.141C657.375 136.349 657.005 136.646 656.703 137.031C656.401 137.406 656.172 137.839 656.016 138.328C655.87 138.818 655.797 139.349 655.797 139.922ZM674.062 133.094V150H670.281V133.094H674.062ZM670.031 128.656C670.031 128.083 670.219 127.609 670.594 127.234C670.979 126.849 671.51 126.656 672.188 126.656C672.854 126.656 673.38 126.849 673.766 127.234C674.151 127.609 674.344 128.083 674.344 128.656C674.344 129.219 674.151 129.688 673.766 130.062C673.38 130.438 672.854 130.625 672.188 130.625C671.51 130.625 670.979 130.438 670.594 130.062C670.219 129.688 670.031 129.219 670.031 128.656ZM681.922 136.703V150H678.156V133.094H681.703L681.922 136.703ZM681.25 140.922L680.031 140.906C680.042 139.708 680.208 138.609 680.531 137.609C680.865 136.609 681.323 135.75 681.906 135.031C682.5 134.312 683.208 133.76 684.031 133.375C684.854 132.979 685.771 132.781 686.781 132.781C687.594 132.781 688.328 132.896 688.984 133.125C689.651 133.344 690.219 133.703 690.688 134.203C691.167 134.703 691.531 135.354 691.781 136.156C692.031 136.948 692.156 137.922 692.156 139.078V150H688.375V139.062C688.375 138.25 688.255 137.609 688.016 137.141C687.786 136.661 687.448 136.323 687 136.125C686.562 135.917 686.016 135.812 685.359 135.812C684.714 135.812 684.135 135.948 683.625 136.219C683.115 136.49 682.682 136.859 682.328 137.328C681.984 137.797 681.719 138.339 681.531 138.953C681.344 139.568 681.25 140.224 681.25 140.922ZM706.828 133.094H710.25V149.531C710.25 151.052 709.927 152.344 709.281 153.406C708.635 154.469 707.734 155.276 706.578 155.828C705.422 156.391 704.083 156.672 702.562 156.672C701.917 156.672 701.198 156.578 700.406 156.391C699.625 156.203 698.865 155.901 698.125 155.484C697.396 155.078 696.786 154.542 696.297 153.875L698.062 151.656C698.667 152.375 699.333 152.901 700.062 153.234C700.792 153.568 701.557 153.734 702.359 153.734C703.224 153.734 703.958 153.573 704.562 153.25C705.177 152.938 705.651 152.474 705.984 151.859C706.318 151.245 706.484 150.495 706.484 149.609V136.922L706.828 133.094ZM695.344 141.734V141.406C695.344 140.125 695.5 138.958 695.812 137.906C696.125 136.844 696.573 135.932 697.156 135.172C697.74 134.401 698.448 133.812 699.281 133.406C700.115 132.99 701.057 132.781 702.109 132.781C703.203 132.781 704.135 132.979 704.906 133.375C705.688 133.771 706.339 134.339 706.859 135.078C707.38 135.807 707.786 136.682 708.078 137.703C708.38 138.714 708.604 139.839 708.75 141.078V142.125C708.615 143.333 708.385 144.438 708.062 145.438C707.74 146.438 707.312 147.302 706.781 148.031C706.25 148.76 705.594 149.323 704.812 149.719C704.042 150.115 703.13 150.312 702.078 150.312C701.047 150.312 700.115 150.099 699.281 149.672C698.458 149.245 697.75 148.646 697.156 147.875C696.573 147.104 696.125 146.198 695.812 145.156C695.5 144.104 695.344 142.964 695.344 141.734ZM699.109 141.406V141.734C699.109 142.505 699.182 143.224 699.328 143.891C699.484 144.557 699.719 145.146 700.031 145.656C700.354 146.156 700.76 146.552 701.25 146.844C701.75 147.125 702.339 147.266 703.016 147.266C703.901 147.266 704.625 147.078 705.188 146.703C705.76 146.328 706.198 145.823 706.5 145.188C706.812 144.542 707.031 143.823 707.156 143.031V140.203C707.094 139.589 706.964 139.016 706.766 138.484C706.578 137.953 706.323 137.49 706 137.094C705.677 136.688 705.271 136.375 704.781 136.156C704.292 135.927 703.714 135.812 703.047 135.812C702.37 135.812 701.781 135.958 701.281 136.25C700.781 136.542 700.37 136.943 700.047 137.453C699.734 137.964 699.5 138.557 699.344 139.234C699.188 139.911 699.109 140.635 699.109 141.406ZM721.406 141.734V141.375C721.406 140.156 721.583 139.026 721.938 137.984C722.292 136.932 722.802 136.021 723.469 135.25C724.146 134.469 724.969 133.865 725.938 133.438C726.917 133 728.021 132.781 729.25 132.781C730.49 132.781 731.594 133 732.562 133.438C733.542 133.865 734.37 134.469 735.047 135.25C735.724 136.021 736.24 136.932 736.594 137.984C736.948 139.026 737.125 140.156 737.125 141.375V141.734C737.125 142.953 736.948 144.083 736.594 145.125C736.24 146.167 735.724 147.078 735.047 147.859C734.37 148.63 733.547 149.234 732.578 149.672C731.609 150.099 730.51 150.312 729.281 150.312C728.042 150.312 726.932 150.099 725.953 149.672C724.984 149.234 724.161 148.63 723.484 147.859C722.807 147.078 722.292 146.167 721.938 145.125C721.583 144.083 721.406 142.953 721.406 141.734ZM725.172 141.375V141.734C725.172 142.495 725.25 143.214 725.406 143.891C725.562 144.568 725.807 145.161 726.141 145.672C726.474 146.182 726.901 146.583 727.422 146.875C727.943 147.167 728.562 147.312 729.281 147.312C729.979 147.312 730.583 147.167 731.094 146.875C731.615 146.583 732.042 146.182 732.375 145.672C732.708 145.161 732.953 144.568 733.109 143.891C733.276 143.214 733.359 142.495 733.359 141.734V141.375C733.359 140.625 733.276 139.917 733.109 139.25C732.953 138.573 732.703 137.974 732.359 137.453C732.026 136.932 731.599 136.526 731.078 136.234C730.568 135.932 729.958 135.781 729.25 135.781C728.542 135.781 727.927 135.932 727.406 136.234C726.896 136.526 726.474 136.932 726.141 137.453C725.807 137.974 725.562 138.573 725.406 139.25C725.25 139.917 725.172 140.625 725.172 141.375ZM744.062 136.344V156.5H740.297V133.094H743.766L744.062 136.344ZM755.078 141.391V141.719C755.078 142.948 754.932 144.089 754.641 145.141C754.359 146.182 753.938 147.094 753.375 147.875C752.823 148.646 752.141 149.245 751.328 149.672C750.516 150.099 749.578 150.312 748.516 150.312C747.464 150.312 746.542 150.12 745.75 149.734C744.969 149.339 744.307 148.781 743.766 148.062C743.224 147.344 742.786 146.5 742.453 145.531C742.13 144.552 741.901 143.479 741.766 142.312V141.047C741.901 139.807 742.13 138.682 742.453 137.672C742.786 136.661 743.224 135.792 743.766 135.062C744.307 134.333 744.969 133.771 745.75 133.375C746.531 132.979 747.443 132.781 748.484 132.781C749.547 132.781 750.49 132.99 751.312 133.406C752.135 133.812 752.828 134.396 753.391 135.156C753.953 135.906 754.375 136.812 754.656 137.875C754.938 138.927 755.078 140.099 755.078 141.391ZM751.312 141.719V141.391C751.312 140.609 751.24 139.885 751.094 139.219C750.948 138.542 750.719 137.948 750.406 137.438C750.094 136.927 749.693 136.531 749.203 136.25C748.724 135.958 748.146 135.812 747.469 135.812C746.802 135.812 746.229 135.927 745.75 136.156C745.271 136.375 744.87 136.682 744.547 137.078C744.224 137.474 743.974 137.938 743.797 138.469C743.62 138.99 743.495 139.557 743.422 140.172V143.203C743.547 143.953 743.76 144.641 744.062 145.266C744.365 145.891 744.792 146.391 745.344 146.766C745.906 147.13 746.625 147.312 747.5 147.312C748.177 147.312 748.755 147.167 749.234 146.875C749.714 146.583 750.104 146.182 750.406 145.672C750.719 145.151 750.948 144.552 751.094 143.875C751.24 143.198 751.312 142.479 751.312 141.719ZM762.062 136.344V156.5H758.297V133.094H761.766L762.062 136.344ZM773.078 141.391V141.719C773.078 142.948 772.932 144.089 772.641 145.141C772.359 146.182 771.938 147.094 771.375 147.875C770.823 148.646 770.141 149.245 769.328 149.672C768.516 150.099 767.578 150.312 766.516 150.312C765.464 150.312 764.542 150.12 763.75 149.734C762.969 149.339 762.307 148.781 761.766 148.062C761.224 147.344 760.786 146.5 760.453 145.531C760.13 144.552 759.901 143.479 759.766 142.312V141.047C759.901 139.807 760.13 138.682 760.453 137.672C760.786 136.661 761.224 135.792 761.766 135.062C762.307 134.333 762.969 133.771 763.75 133.375C764.531 132.979 765.443 132.781 766.484 132.781C767.547 132.781 768.49 132.99 769.312 133.406C770.135 133.812 770.828 134.396 771.391 135.156C771.953 135.906 772.375 136.812 772.656 137.875C772.938 138.927 773.078 140.099 773.078 141.391ZM769.312 141.719V141.391C769.312 140.609 769.24 139.885 769.094 139.219C768.948 138.542 768.719 137.948 768.406 137.438C768.094 136.927 767.693 136.531 767.203 136.25C766.724 135.958 766.146 135.812 765.469 135.812C764.802 135.812 764.229 135.927 763.75 136.156C763.271 136.375 762.87 136.682 762.547 137.078C762.224 137.474 761.974 137.938 761.797 138.469C761.62 138.99 761.495 139.557 761.422 140.172V143.203C761.547 143.953 761.76 144.641 762.062 145.266C762.365 145.891 762.792 146.391 763.344 146.766C763.906 147.13 764.625 147.312 765.5 147.312C766.177 147.312 766.755 147.167 767.234 146.875C767.714 146.583 768.104 146.182 768.406 145.672C768.719 145.151 768.948 144.552 769.094 143.875C769.24 143.198 769.312 142.479 769.312 141.719ZM775.562 141.734V141.375C775.562 140.156 775.74 139.026 776.094 137.984C776.448 136.932 776.958 136.021 777.625 135.25C778.302 134.469 779.125 133.865 780.094 133.438C781.073 133 782.177 132.781 783.406 132.781C784.646 132.781 785.75 133 786.719 133.438C787.698 133.865 788.526 134.469 789.203 135.25C789.88 136.021 790.396 136.932 790.75 137.984C791.104 139.026 791.281 140.156 791.281 141.375V141.734C791.281 142.953 791.104 144.083 790.75 145.125C790.396 146.167 789.88 147.078 789.203 147.859C788.526 148.63 787.703 149.234 786.734 149.672C785.766 150.099 784.667 150.312 783.438 150.312C782.198 150.312 781.089 150.099 780.109 149.672C779.141 149.234 778.318 148.63 777.641 147.859C776.964 147.078 776.448 146.167 776.094 145.125C775.74 144.083 775.562 142.953 775.562 141.734ZM779.328 141.375V141.734C779.328 142.495 779.406 143.214 779.562 143.891C779.719 144.568 779.964 145.161 780.297 145.672C780.63 146.182 781.057 146.583 781.578 146.875C782.099 147.167 782.719 147.312 783.438 147.312C784.135 147.312 784.74 147.167 785.25 146.875C785.771 146.583 786.198 146.182 786.531 145.672C786.865 145.161 787.109 144.568 787.266 143.891C787.432 143.214 787.516 142.495 787.516 141.734V141.375C787.516 140.625 787.432 139.917 787.266 139.25C787.109 138.573 786.859 137.974 786.516 137.453C786.182 136.932 785.755 136.526 785.234 136.234C784.724 135.932 784.115 135.781 783.406 135.781C782.698 135.781 782.083 135.932 781.562 136.234C781.052 136.526 780.63 136.932 780.297 137.453C779.964 137.974 779.719 138.573 779.562 139.25C779.406 139.917 779.328 140.625 779.328 141.375ZM798.219 136.312V150H794.453V133.094H798.047L798.219 136.312ZM803.391 132.984L803.359 136.484C803.13 136.443 802.88 136.411 802.609 136.391C802.349 136.37 802.089 136.359 801.828 136.359C801.182 136.359 800.615 136.453 800.125 136.641C799.635 136.818 799.224 137.078 798.891 137.422C798.568 137.755 798.318 138.161 798.141 138.641C797.964 139.12 797.859 139.656 797.828 140.25L796.969 140.312C796.969 139.25 797.073 138.266 797.281 137.359C797.49 136.453 797.802 135.656 798.219 134.969C798.646 134.281 799.177 133.745 799.812 133.359C800.458 132.974 801.203 132.781 802.047 132.781C802.276 132.781 802.521 132.802 802.781 132.844C803.052 132.885 803.255 132.932 803.391 132.984ZM814.281 133.094V135.844H804.75V133.094H814.281ZM807.5 128.953H811.266V145.328C811.266 145.849 811.339 146.25 811.484 146.531C811.641 146.802 811.854 146.984 812.125 147.078C812.396 147.172 812.714 147.219 813.078 147.219C813.339 147.219 813.589 147.203 813.828 147.172C814.068 147.141 814.26 147.109 814.406 147.078L814.422 149.953C814.109 150.047 813.745 150.13 813.328 150.203C812.922 150.276 812.453 150.312 811.922 150.312C811.057 150.312 810.292 150.161 809.625 149.859C808.958 149.547 808.438 149.042 808.062 148.344C807.688 147.646 807.5 146.719 807.5 145.562V128.953ZM827.359 146.016V133.094H831.141V150H827.578L827.359 146.016ZM827.891 142.5L829.156 142.469C829.156 143.604 829.031 144.651 828.781 145.609C828.531 146.557 828.146 147.385 827.625 148.094C827.104 148.792 826.438 149.339 825.625 149.734C824.812 150.12 823.839 150.312 822.703 150.312C821.88 150.312 821.125 150.193 820.438 149.953C819.75 149.714 819.156 149.344 818.656 148.844C818.167 148.344 817.786 147.693 817.516 146.891C817.245 146.089 817.109 145.13 817.109 144.016V133.094H820.875V144.047C820.875 144.661 820.948 145.177 821.094 145.594C821.24 146 821.438 146.328 821.688 146.578C821.938 146.828 822.229 147.005 822.562 147.109C822.896 147.214 823.25 147.266 823.625 147.266C824.698 147.266 825.542 147.057 826.156 146.641C826.781 146.214 827.224 145.641 827.484 144.922C827.755 144.203 827.891 143.396 827.891 142.5ZM838.734 136.703V150H834.969V133.094H838.516L838.734 136.703ZM838.062 140.922L836.844 140.906C836.854 139.708 837.021 138.609 837.344 137.609C837.677 136.609 838.135 135.75 838.719 135.031C839.312 134.312 840.021 133.76 840.844 133.375C841.667 132.979 842.583 132.781 843.594 132.781C844.406 132.781 845.141 132.896 845.797 133.125C846.464 133.344 847.031 133.703 847.5 134.203C847.979 134.703 848.344 135.354 848.594 136.156C848.844 136.948 848.969 137.922 848.969 139.078V150H845.188V139.062C845.188 138.25 845.068 137.609 844.828 137.141C844.599 136.661 844.26 136.323 843.812 136.125C843.375 135.917 842.828 135.812 842.172 135.812C841.526 135.812 840.948 135.948 840.438 136.219C839.927 136.49 839.495 136.859 839.141 137.328C838.797 137.797 838.531 138.339 838.344 138.953C838.156 139.568 838.062 140.224 838.062 140.922ZM856.844 133.094V150H853.062V133.094H856.844ZM852.812 128.656C852.812 128.083 853 127.609 853.375 127.234C853.76 126.849 854.292 126.656 854.969 126.656C855.635 126.656 856.161 126.849 856.547 127.234C856.932 127.609 857.125 128.083 857.125 128.656C857.125 129.219 856.932 129.688 856.547 130.062C856.161 130.438 855.635 130.625 854.969 130.625C854.292 130.625 853.76 130.438 853.375 130.062C853 129.688 852.812 129.219 852.812 128.656ZM868.719 133.094V135.844H859.188V133.094H868.719ZM861.938 128.953H865.703V145.328C865.703 145.849 865.776 146.25 865.922 146.531C866.078 146.802 866.292 146.984 866.562 147.078C866.833 147.172 867.151 147.219 867.516 147.219C867.776 147.219 868.026 147.203 868.266 147.172C868.505 147.141 868.698 147.109 868.844 147.078L868.859 149.953C868.547 150.047 868.182 150.13 867.766 150.203C867.359 150.276 866.891 150.312 866.359 150.312C865.495 150.312 864.729 150.161 864.062 149.859C863.396 149.547 862.875 149.042 862.5 148.344C862.125 147.646 861.938 146.719 861.938 145.562V128.953ZM875.656 133.094V150H871.875V133.094H875.656ZM871.625 128.656C871.625 128.083 871.812 127.609 872.188 127.234C872.573 126.849 873.104 126.656 873.781 126.656C874.448 126.656 874.974 126.849 875.359 127.234C875.745 127.609 875.938 128.083 875.938 128.656C875.938 129.219 875.745 129.688 875.359 130.062C874.974 130.438 874.448 130.625 873.781 130.625C873.104 130.625 872.573 130.438 872.188 130.062C871.812 129.688 871.625 129.219 871.625 128.656ZM887.234 150.312C885.984 150.312 884.854 150.109 883.844 149.703C882.844 149.286 881.99 148.708 881.281 147.969C880.583 147.229 880.047 146.359 879.672 145.359C879.297 144.359 879.109 143.281 879.109 142.125V141.5C879.109 140.177 879.302 138.979 879.688 137.906C880.073 136.833 880.609 135.917 881.297 135.156C881.984 134.385 882.797 133.797 883.734 133.391C884.672 132.984 885.688 132.781 886.781 132.781C887.99 132.781 889.047 132.984 889.953 133.391C890.859 133.797 891.609 134.37 892.203 135.109C892.807 135.839 893.255 136.708 893.547 137.719C893.849 138.729 894 139.844 894 141.062V142.672H880.938V139.969H890.281V139.672C890.26 138.995 890.125 138.359 889.875 137.766C889.635 137.172 889.266 136.693 888.766 136.328C888.266 135.964 887.599 135.781 886.766 135.781C886.141 135.781 885.583 135.917 885.094 136.188C884.615 136.448 884.214 136.828 883.891 137.328C883.568 137.828 883.318 138.432 883.141 139.141C882.974 139.839 882.891 140.625 882.891 141.5V142.125C882.891 142.865 882.99 143.552 883.188 144.188C883.396 144.812 883.698 145.359 884.094 145.828C884.49 146.297 884.969 146.667 885.531 146.938C886.094 147.198 886.734 147.328 887.453 147.328C888.359 147.328 889.167 147.146 889.875 146.781C890.583 146.417 891.198 145.901 891.719 145.234L893.703 147.156C893.339 147.688 892.865 148.198 892.281 148.688C891.698 149.167 890.984 149.557 890.141 149.859C889.307 150.161 888.339 150.312 887.234 150.312ZM906.422 145.422C906.422 145.047 906.328 144.708 906.141 144.406C905.953 144.094 905.594 143.812 905.062 143.562C904.542 143.312 903.771 143.083 902.75 142.875C901.854 142.677 901.031 142.443 900.281 142.172C899.542 141.891 898.906 141.552 898.375 141.156C897.844 140.76 897.432 140.292 897.141 139.75C896.849 139.208 896.703 138.583 896.703 137.875C896.703 137.188 896.854 136.536 897.156 135.922C897.458 135.307 897.891 134.766 898.453 134.297C899.016 133.828 899.698 133.458 900.5 133.188C901.312 132.917 902.219 132.781 903.219 132.781C904.635 132.781 905.849 133.021 906.859 133.5C907.88 133.969 908.661 134.609 909.203 135.422C909.745 136.224 910.016 137.13 910.016 138.141H906.25C906.25 137.693 906.135 137.276 905.906 136.891C905.688 136.495 905.354 136.177 904.906 135.938C904.458 135.688 903.896 135.562 903.219 135.562C902.573 135.562 902.036 135.667 901.609 135.875C901.193 136.073 900.88 136.333 900.672 136.656C900.474 136.979 900.375 137.333 900.375 137.719C900.375 138 900.427 138.255 900.531 138.484C900.646 138.703 900.833 138.906 901.094 139.094C901.354 139.271 901.708 139.438 902.156 139.594C902.615 139.75 903.188 139.901 903.875 140.047C905.167 140.318 906.276 140.667 907.203 141.094C908.141 141.51 908.859 142.052 909.359 142.719C909.859 143.375 910.109 144.208 910.109 145.219C910.109 145.969 909.948 146.656 909.625 147.281C909.312 147.896 908.854 148.432 908.25 148.891C907.646 149.339 906.922 149.688 906.078 149.938C905.245 150.188 904.307 150.312 903.266 150.312C901.734 150.312 900.438 150.042 899.375 149.5C898.312 148.948 897.505 148.245 896.953 147.391C896.411 146.526 896.141 145.63 896.141 144.703H899.781C899.823 145.401 900.016 145.958 900.359 146.375C900.714 146.781 901.151 147.078 901.672 147.266C902.203 147.443 902.75 147.531 903.312 147.531C903.99 147.531 904.557 147.443 905.016 147.266C905.474 147.078 905.823 146.828 906.062 146.516C906.302 146.193 906.422 145.828 906.422 145.422Z" fill="#102042"/>
<mask id="path-7-outside-3_1639_9427" maskUnits="userSpaceOnUse" x="2" y="20" width="569" height="247" fill="black">
<rect fill="white" x="2" y="20" width="569" height="247"/>
<path fill-rule="evenodd" clip-rule="evenodd" d="M483.353 262.413C483.315 262.36 483.295 262.296 483.295 262.23V228.772H18C11.3726 228.772 6 223.4 6 216.772V66.7724C6 60.145 11.3726 54.7724 18 54.7724H483.295V24.3152C483.295 24.2496 483.315 24.1856 483.353 24.1321C483.479 23.956 483.741 23.956 483.866 24.1321L563.921 136.302C566.898 140.472 566.898 146.073 563.921 150.244L483.866 262.413C483.741 262.589 483.479 262.589 483.353 262.413Z"/>
</mask>
<path fill-rule="evenodd" clip-rule="evenodd" d="M483.353 262.413C483.315 262.36 483.295 262.296 483.295 262.23V228.772H18C11.3726 228.772 6 223.4 6 216.772V66.7724C6 60.145 11.3726 54.7724 18 54.7724H483.295V24.3152C483.295 24.2496 483.315 24.1856 483.353 24.1321C483.479 23.956 483.741 23.956 483.866 24.1321L563.921 136.302C566.898 140.472 566.898 146.073 563.921 150.244L483.866 262.413C483.741 262.589 483.479 262.589 483.353 262.413Z" fill="#F6F9FE"/>
<path d="M483.305 262.311L487.17 261.279L487.17 261.279L483.305 262.311ZM483.295 228.772H487.295V224.772H483.295V228.772ZM483.295 54.7724V58.7724H487.295V54.7724H483.295ZM483.353 24.1321L486.609 26.4559L486.609 26.4556L483.353 24.1321ZM483.866 24.1321L487.122 21.8084L487.122 21.8082L483.866 24.1321ZM563.921 136.302L567.177 133.978L567.177 133.978L563.921 136.302ZM563.921 150.244L560.665 147.92L560.665 147.92L563.921 150.244ZM483.866 262.413L480.611 260.089L480.61 260.09L483.866 262.413ZM483.353 262.413L486.609 260.09L486.609 260.089L483.353 262.413ZM479.295 262.23C479.295 262.608 479.344 262.983 479.441 263.344L487.17 261.279C487.252 261.587 487.295 261.907 487.295 262.23H479.295ZM479.295 228.772V262.23H487.295V228.772H479.295ZM483.295 224.772H18V232.772H483.295V224.772ZM18 224.772C13.5817 224.772 10 221.191 10 216.772H2C2 225.609 9.16344 232.772 18 232.772V224.772ZM10 216.772V66.7724H2V216.772H10ZM10 66.7724C10 62.3541 13.5817 58.7724 18 58.7724V50.7724C9.16345 50.7724 2 57.9358 2 66.7724H10ZM18 58.7724H483.295V50.7724H18V58.7724ZM479.295 24.3152V54.7724H487.295V24.3152H479.295ZM480.098 21.8083C479.575 22.5398 479.295 23.4162 479.295 24.3152H487.295C487.295 25.0829 487.055 25.8313 486.609 26.4559L480.098 21.8083ZM487.122 21.8082C485.401 19.3975 481.818 19.3969 480.097 21.8086L486.609 26.4556C485.14 28.5151 482.08 28.5144 480.611 26.456L487.122 21.8082ZM567.177 133.978L487.122 21.8084L480.611 26.4558L560.665 138.625L567.177 133.978ZM567.177 152.567C571.146 147.006 571.146 139.539 567.177 133.978L560.665 138.625C562.65 141.406 562.65 145.139 560.665 147.92L567.177 152.567ZM487.122 264.737L567.177 152.567L560.665 147.92L480.611 260.089L487.122 264.737ZM480.097 264.737C481.818 267.148 485.402 267.148 487.122 264.737L480.61 260.09C482.08 258.03 485.14 258.03 486.609 260.09L480.097 264.737ZM479.441 263.343C479.573 263.84 479.795 264.313 480.097 264.737L486.609 260.089C486.868 260.452 487.057 260.855 487.17 261.279L479.441 263.343Z" fill="#E2EDFD" mask="url(#path-7-outside-3_1639_9427)"/>
<path d="M54.9219 150H50.0625L50.0938 146.891H54.9219C56.3281 146.891 57.5052 146.583 58.4531 145.969C59.4115 145.354 60.1302 144.474 60.6094 143.328C61.099 142.182 61.3438 140.818 61.3438 139.234V138C61.3438 136.771 61.2031 135.682 60.9219 134.734C60.651 133.786 60.2448 132.99 59.7031 132.344C59.1719 131.698 58.5156 131.208 57.7344 130.875C56.9635 130.542 56.0729 130.375 55.0625 130.375H49.9688V127.25H55.0625C56.5729 127.25 57.9531 127.505 59.2031 128.016C60.4531 128.516 61.5312 129.24 62.4375 130.188C63.3542 131.135 64.0573 132.271 64.5469 133.594C65.0365 134.917 65.2812 136.396 65.2812 138.031V139.234C65.2812 140.87 65.0365 142.349 64.5469 143.672C64.0573 144.995 63.3542 146.13 62.4375 147.078C61.5208 148.016 60.4271 148.74 59.1562 149.25C57.8958 149.75 56.4844 150 54.9219 150ZM52.2344 127.25V150H48.3125V127.25H52.2344ZM72.875 133.094V150H69.0938V133.094H72.875ZM68.8438 128.656C68.8438 128.083 69.0312 127.609 69.4062 127.234C69.7917 126.849 70.3229 126.656 71 126.656C71.6667 126.656 72.1927 126.849 72.5781 127.234C72.9635 127.609 73.1562 128.083 73.1562 128.656C73.1562 129.219 72.9635 129.688 72.5781 130.062C72.1927 130.438 71.6667 130.625 71 130.625C70.3229 130.625 69.7917 130.438 69.4062 130.062C69.0312 129.688 68.8438 129.219 68.8438 128.656ZM86.4844 145.422C86.4844 145.047 86.3906 144.708 86.2031 144.406C86.0156 144.094 85.6562 143.812 85.125 143.562C84.6042 143.312 83.8333 143.083 82.8125 142.875C81.9167 142.677 81.0938 142.443 80.3438 142.172C79.6042 141.891 78.9688 141.552 78.4375 141.156C77.9062 140.76 77.4948 140.292 77.2031 139.75C76.9115 139.208 76.7656 138.583 76.7656 137.875C76.7656 137.188 76.9167 136.536 77.2188 135.922C77.5208 135.307 77.9531 134.766 78.5156 134.297C79.0781 133.828 79.7604 133.458 80.5625 133.188C81.375 132.917 82.2812 132.781 83.2812 132.781C84.6979 132.781 85.9115 133.021 86.9219 133.5C87.9427 133.969 88.724 134.609 89.2656 135.422C89.8073 136.224 90.0781 137.13 90.0781 138.141H86.3125C86.3125 137.693 86.1979 137.276 85.9688 136.891C85.75 136.495 85.4167 136.177 84.9688 135.938C84.5208 135.688 83.9583 135.562 83.2812 135.562C82.6354 135.562 82.099 135.667 81.6719 135.875C81.2552 136.073 80.9427 136.333 80.7344 136.656C80.5365 136.979 80.4375 137.333 80.4375 137.719C80.4375 138 80.4896 138.255 80.5938 138.484C80.7083 138.703 80.8958 138.906 81.1562 139.094C81.4167 139.271 81.7708 139.438 82.2188 139.594C82.6771 139.75 83.25 139.901 83.9375 140.047C85.2292 140.318 86.3385 140.667 87.2656 141.094C88.2031 141.51 88.9219 142.052 89.4219 142.719C89.9219 143.375 90.1719 144.208 90.1719 145.219C90.1719 145.969 90.0104 146.656 89.6875 147.281C89.375 147.896 88.9167 148.432 88.3125 148.891C87.7083 149.339 86.9844 149.688 86.1406 149.938C85.3073 150.188 84.3698 150.312 83.3281 150.312C81.7969 150.312 80.5 150.042 79.4375 149.5C78.375 148.948 77.5677 148.245 77.0156 147.391C76.474 146.526 76.2031 145.63 76.2031 144.703H79.8438C79.8854 145.401 80.0781 145.958 80.4219 146.375C80.776 146.781 81.2135 147.078 81.7344 147.266C82.2656 147.443 82.8125 147.531 83.375 147.531C84.0521 147.531 84.6198 147.443 85.0781 147.266C85.5365 147.078 85.8854 146.828 86.125 146.516C86.3646 146.193 86.4844 145.828 86.4844 145.422ZM100.375 147.312C100.99 147.312 101.542 147.193 102.031 146.953C102.531 146.703 102.932 146.359 103.234 145.922C103.547 145.484 103.719 144.979 103.75 144.406H107.297C107.276 145.5 106.953 146.495 106.328 147.391C105.703 148.286 104.875 149 103.844 149.531C102.812 150.052 101.672 150.312 100.422 150.312C99.1302 150.312 98.0052 150.094 97.0469 149.656C96.0885 149.208 95.2917 148.594 94.6562 147.812C94.0208 147.031 93.5417 146.13 93.2188 145.109C92.9062 144.089 92.75 142.995 92.75 141.828V141.281C92.75 140.115 92.9062 139.021 93.2188 138C93.5417 136.969 94.0208 136.062 94.6562 135.281C95.2917 134.5 96.0885 133.891 97.0469 133.453C98.0052 133.005 99.125 132.781 100.406 132.781C101.76 132.781 102.948 133.052 103.969 133.594C104.99 134.125 105.792 134.87 106.375 135.828C106.969 136.776 107.276 137.88 107.297 139.141H103.75C103.719 138.516 103.562 137.953 103.281 137.453C103.01 136.943 102.625 136.536 102.125 136.234C101.635 135.932 101.047 135.781 100.359 135.781C99.599 135.781 98.9688 135.938 98.4688 136.25C97.9688 136.552 97.5781 136.969 97.2969 137.5C97.0156 138.021 96.8125 138.609 96.6875 139.266C96.5729 139.911 96.5156 140.583 96.5156 141.281V141.828C96.5156 142.526 96.5729 143.203 96.6875 143.859C96.8021 144.516 97 145.104 97.2812 145.625C97.5729 146.135 97.9688 146.547 98.4688 146.859C98.9688 147.161 99.6042 147.312 100.375 147.312ZM109.469 141.734V141.375C109.469 140.156 109.646 139.026 110 137.984C110.354 136.932 110.865 136.021 111.531 135.25C112.208 134.469 113.031 133.865 114 133.438C114.979 133 116.083 132.781 117.312 132.781C118.552 132.781 119.656 133 120.625 133.438C121.604 133.865 122.432 134.469 123.109 135.25C123.786 136.021 124.302 136.932 124.656 137.984C125.01 139.026 125.188 140.156 125.188 141.375V141.734C125.188 142.953 125.01 144.083 124.656 145.125C124.302 146.167 123.786 147.078 123.109 147.859C122.432 148.63 121.609 149.234 120.641 149.672C119.672 150.099 118.573 150.312 117.344 150.312C116.104 150.312 114.995 150.099 114.016 149.672C113.047 149.234 112.224 148.63 111.547 147.859C110.87 147.078 110.354 146.167 110 145.125C109.646 144.083 109.469 142.953 109.469 141.734ZM113.234 141.375V141.734C113.234 142.495 113.312 143.214 113.469 143.891C113.625 144.568 113.87 145.161 114.203 145.672C114.536 146.182 114.964 146.583 115.484 146.875C116.005 147.167 116.625 147.312 117.344 147.312C118.042 147.312 118.646 147.167 119.156 146.875C119.677 146.583 120.104 146.182 120.438 145.672C120.771 145.161 121.016 144.568 121.172 143.891C121.339 143.214 121.422 142.495 121.422 141.734V141.375C121.422 140.625 121.339 139.917 121.172 139.25C121.016 138.573 120.766 137.974 120.422 137.453C120.089 136.932 119.661 136.526 119.141 136.234C118.63 135.932 118.021 135.781 117.312 135.781C116.604 135.781 115.99 135.932 115.469 136.234C114.958 136.526 114.536 136.932 114.203 137.453C113.87 137.974 113.625 138.573 113.469 139.25C113.312 139.917 113.234 140.625 113.234 141.375ZM133.594 147.016L137.734 133.094H141.641L135.766 150H133.328L133.594 147.016ZM130.422 133.094L134.641 147.078L134.844 150H132.406L126.5 133.094H130.422ZM151.203 150.312C149.953 150.312 148.823 150.109 147.812 149.703C146.812 149.286 145.958 148.708 145.25 147.969C144.552 147.229 144.016 146.359 143.641 145.359C143.266 144.359 143.078 143.281 143.078 142.125V141.5C143.078 140.177 143.271 138.979 143.656 137.906C144.042 136.833 144.578 135.917 145.266 135.156C145.953 134.385 146.766 133.797 147.703 133.391C148.641 132.984 149.656 132.781 150.75 132.781C151.958 132.781 153.016 132.984 153.922 133.391C154.828 133.797 155.578 134.37 156.172 135.109C156.776 135.839 157.224 136.708 157.516 137.719C157.818 138.729 157.969 139.844 157.969 141.062V142.672H144.906V139.969H154.25V139.672C154.229 138.995 154.094 138.359 153.844 137.766C153.604 137.172 153.234 136.693 152.734 136.328C152.234 135.964 151.568 135.781 150.734 135.781C150.109 135.781 149.552 135.917 149.062 136.188C148.583 136.448 148.182 136.828 147.859 137.328C147.536 137.828 147.286 138.432 147.109 139.141C146.943 139.839 146.859 140.625 146.859 141.5V142.125C146.859 142.865 146.958 143.552 147.156 144.188C147.365 144.812 147.667 145.359 148.062 145.828C148.458 146.297 148.938 146.667 149.5 146.938C150.062 147.198 150.703 147.328 151.422 147.328C152.328 147.328 153.135 147.146 153.844 146.781C154.552 146.417 155.167 145.901 155.688 145.234L157.672 147.156C157.307 147.688 156.833 148.198 156.25 148.688C155.667 149.167 154.953 149.557 154.109 149.859C153.276 150.161 152.307 150.312 151.203 150.312ZM164.688 136.312V150H160.922V133.094H164.516L164.688 136.312ZM169.859 132.984L169.828 136.484C169.599 136.443 169.349 136.411 169.078 136.391C168.818 136.37 168.557 136.359 168.297 136.359C167.651 136.359 167.083 136.453 166.594 136.641C166.104 136.818 165.693 137.078 165.359 137.422C165.036 137.755 164.786 138.161 164.609 138.641C164.432 139.12 164.328 139.656 164.297 140.25L163.438 140.312C163.438 139.25 163.542 138.266 163.75 137.359C163.958 136.453 164.271 135.656 164.688 134.969C165.115 134.281 165.646 133.745 166.281 133.359C166.927 132.974 167.672 132.781 168.516 132.781C168.745 132.781 168.99 132.802 169.25 132.844C169.521 132.885 169.724 132.932 169.859 132.984ZM183.969 136.344V156.5H180.203V133.094H183.672L183.969 136.344ZM194.984 141.391V141.719C194.984 142.948 194.839 144.089 194.547 145.141C194.266 146.182 193.844 147.094 193.281 147.875C192.729 148.646 192.047 149.245 191.234 149.672C190.422 150.099 189.484 150.312 188.422 150.312C187.37 150.312 186.448 150.12 185.656 149.734C184.875 149.339 184.214 148.781 183.672 148.062C183.13 147.344 182.693 146.5 182.359 145.531C182.036 144.552 181.807 143.479 181.672 142.312V141.047C181.807 139.807 182.036 138.682 182.359 137.672C182.693 136.661 183.13 135.792 183.672 135.062C184.214 134.333 184.875 133.771 185.656 133.375C186.438 132.979 187.349 132.781 188.391 132.781C189.453 132.781 190.396 132.99 191.219 133.406C192.042 133.812 192.734 134.396 193.297 135.156C193.859 135.906 194.281 136.812 194.562 137.875C194.844 138.927 194.984 140.099 194.984 141.391ZM191.219 141.719V141.391C191.219 140.609 191.146 139.885 191 139.219C190.854 138.542 190.625 137.948 190.312 137.438C190 136.927 189.599 136.531 189.109 136.25C188.63 135.958 188.052 135.812 187.375 135.812C186.708 135.812 186.135 135.927 185.656 136.156C185.177 136.375 184.776 136.682 184.453 137.078C184.13 137.474 183.88 137.938 183.703 138.469C183.526 138.99 183.401 139.557 183.328 140.172V143.203C183.453 143.953 183.667 144.641 183.969 145.266C184.271 145.891 184.698 146.391 185.25 146.766C185.812 147.13 186.531 147.312 187.406 147.312C188.083 147.312 188.661 147.167 189.141 146.875C189.62 146.583 190.01 146.182 190.312 145.672C190.625 145.151 190.854 144.552 191 143.875C191.146 143.198 191.219 142.479 191.219 141.719ZM201.969 136.312V150H198.203V133.094H201.797L201.969 136.312ZM207.141 132.984L207.109 136.484C206.88 136.443 206.63 136.411 206.359 136.391C206.099 136.37 205.839 136.359 205.578 136.359C204.932 136.359 204.365 136.453 203.875 136.641C203.385 136.818 202.974 137.078 202.641 137.422C202.318 137.755 202.068 138.161 201.891 138.641C201.714 139.12 201.609 139.656 201.578 140.25L200.719 140.312C200.719 139.25 200.823 138.266 201.031 137.359C201.24 136.453 201.552 135.656 201.969 134.969C202.396 134.281 202.927 133.745 203.562 133.359C204.208 132.974 204.953 132.781 205.797 132.781C206.026 132.781 206.271 132.802 206.531 132.844C206.802 132.885 207.005 132.932 207.141 132.984ZM208.375 141.734V141.375C208.375 140.156 208.552 139.026 208.906 137.984C209.26 136.932 209.771 136.021 210.438 135.25C211.115 134.469 211.938 133.865 212.906 133.438C213.885 133 214.99 132.781 216.219 132.781C217.458 132.781 218.562 133 219.531 133.438C220.51 133.865 221.339 134.469 222.016 135.25C222.693 136.021 223.208 136.932 223.562 137.984C223.917 139.026 224.094 140.156 224.094 141.375V141.734C224.094 142.953 223.917 144.083 223.562 145.125C223.208 146.167 222.693 147.078 222.016 147.859C221.339 148.63 220.516 149.234 219.547 149.672C218.578 150.099 217.479 150.312 216.25 150.312C215.01 150.312 213.901 150.099 212.922 149.672C211.953 149.234 211.13 148.63 210.453 147.859C209.776 147.078 209.26 146.167 208.906 145.125C208.552 144.083 208.375 142.953 208.375 141.734ZM212.141 141.375V141.734C212.141 142.495 212.219 143.214 212.375 143.891C212.531 144.568 212.776 145.161 213.109 145.672C213.443 146.182 213.87 146.583 214.391 146.875C214.911 147.167 215.531 147.312 216.25 147.312C216.948 147.312 217.552 147.167 218.062 146.875C218.583 146.583 219.01 146.182 219.344 145.672C219.677 145.161 219.922 144.568 220.078 143.891C220.245 143.214 220.328 142.495 220.328 141.734V141.375C220.328 140.625 220.245 139.917 220.078 139.25C219.922 138.573 219.672 137.974 219.328 137.453C218.995 136.932 218.568 136.526 218.047 136.234C217.536 135.932 216.927 135.781 216.219 135.781C215.51 135.781 214.896 135.932 214.375 136.234C213.865 136.526 213.443 136.932 213.109 137.453C212.776 137.974 212.531 138.573 212.375 139.25C212.219 139.917 212.141 140.625 212.141 141.375ZM227.266 126H231.031V146.391L230.672 150H227.266V126ZM242.062 141.391V141.719C242.062 142.969 241.922 144.12 241.641 145.172C241.37 146.214 240.953 147.12 240.391 147.891C239.839 148.661 239.151 149.26 238.328 149.688C237.516 150.104 236.573 150.312 235.5 150.312C234.448 150.312 233.531 150.115 232.75 149.719C231.969 149.323 231.312 148.76 230.781 148.031C230.26 147.302 229.839 146.432 229.516 145.422C229.193 144.411 228.964 143.297 228.828 142.078V141.031C228.964 139.802 229.193 138.688 229.516 137.688C229.839 136.677 230.26 135.807 230.781 135.078C231.312 134.339 231.964 133.771 232.734 133.375C233.516 132.979 234.427 132.781 235.469 132.781C236.552 132.781 237.505 132.99 238.328 133.406C239.161 133.823 239.854 134.417 240.406 135.188C240.958 135.948 241.37 136.854 241.641 137.906C241.922 138.958 242.062 140.12 242.062 141.391ZM238.297 141.719V141.391C238.297 140.63 238.234 139.917 238.109 139.25C237.984 138.573 237.776 137.979 237.484 137.469C237.203 136.958 236.818 136.557 236.328 136.266C235.849 135.964 235.25 135.812 234.531 135.812C233.865 135.812 233.292 135.927 232.812 136.156C232.333 136.385 231.932 136.698 231.609 137.094C231.286 137.49 231.031 137.948 230.844 138.469C230.667 138.99 230.547 139.552 230.484 140.156V142.984C230.578 143.766 230.776 144.484 231.078 145.141C231.391 145.786 231.828 146.307 232.391 146.703C232.953 147.089 233.677 147.281 234.562 147.281C235.26 147.281 235.849 147.141 236.328 146.859C236.807 146.578 237.188 146.188 237.469 145.688C237.76 145.177 237.969 144.583 238.094 143.906C238.229 143.229 238.297 142.5 238.297 141.719ZM249.281 126V150H245.5V126H249.281ZM260.859 150.312C259.609 150.312 258.479 150.109 257.469 149.703C256.469 149.286 255.615 148.708 254.906 147.969C254.208 147.229 253.672 146.359 253.297 145.359C252.922 144.359 252.734 143.281 252.734 142.125V141.5C252.734 140.177 252.927 138.979 253.312 137.906C253.698 136.833 254.234 135.917 254.922 135.156C255.609 134.385 256.422 133.797 257.359 133.391C258.297 132.984 259.312 132.781 260.406 132.781C261.615 132.781 262.672 132.984 263.578 133.391C264.484 133.797 265.234 134.37 265.828 135.109C266.432 135.839 266.88 136.708 267.172 137.719C267.474 138.729 267.625 139.844 267.625 141.062V142.672H254.562V139.969H263.906V139.672C263.885 138.995 263.75 138.359 263.5 137.766C263.26 137.172 262.891 136.693 262.391 136.328C261.891 135.964 261.224 135.781 260.391 135.781C259.766 135.781 259.208 135.917 258.719 136.188C258.24 136.448 257.839 136.828 257.516 137.328C257.193 137.828 256.943 138.432 256.766 139.141C256.599 139.839 256.516 140.625 256.516 141.5V142.125C256.516 142.865 256.615 143.552 256.812 144.188C257.021 144.812 257.323 145.359 257.719 145.828C258.115 146.297 258.594 146.667 259.156 146.938C259.719 147.198 260.359 147.328 261.078 147.328C261.984 147.328 262.792 147.146 263.5 146.781C264.208 146.417 264.823 145.901 265.344 145.234L267.328 147.156C266.964 147.688 266.49 148.198 265.906 148.688C265.323 149.167 264.609 149.557 263.766 149.859C262.932 150.161 261.964 150.312 260.859 150.312ZM274.328 136.531V150H270.562V133.094H274.109L274.328 136.531ZM273.719 140.922L272.438 140.906C272.438 139.74 272.583 138.661 272.875 137.672C273.167 136.682 273.594 135.823 274.156 135.094C274.719 134.354 275.417 133.786 276.25 133.391C277.094 132.984 278.068 132.781 279.172 132.781C279.943 132.781 280.646 132.896 281.281 133.125C281.927 133.344 282.484 133.693 282.953 134.172C283.432 134.651 283.797 135.266 284.047 136.016C284.307 136.766 284.438 137.672 284.438 138.734V150H280.672V139.062C280.672 138.24 280.547 137.594 280.297 137.125C280.057 136.656 279.708 136.323 279.25 136.125C278.802 135.917 278.266 135.812 277.641 135.812C276.932 135.812 276.328 135.948 275.828 136.219C275.339 136.49 274.938 136.859 274.625 137.328C274.312 137.797 274.083 138.339 273.938 138.953C273.792 139.568 273.719 140.224 273.719 140.922ZM284.203 139.922L282.438 140.312C282.438 139.292 282.578 138.328 282.859 137.422C283.151 136.505 283.573 135.703 284.125 135.016C284.688 134.318 285.38 133.771 286.203 133.375C287.026 132.979 287.969 132.781 289.031 132.781C289.896 132.781 290.667 132.901 291.344 133.141C292.031 133.37 292.615 133.734 293.094 134.234C293.573 134.734 293.938 135.385 294.188 136.188C294.438 136.979 294.562 137.938 294.562 139.062V150H290.781V139.047C290.781 138.193 290.656 137.531 290.406 137.062C290.167 136.594 289.823 136.271 289.375 136.094C288.927 135.906 288.391 135.812 287.766 135.812C287.182 135.812 286.667 135.922 286.219 136.141C285.781 136.349 285.411 136.646 285.109 137.031C284.807 137.406 284.578 137.839 284.422 138.328C284.276 138.818 284.203 139.349 284.203 139.922ZM315.891 145.422C315.891 145.047 315.797 144.708 315.609 144.406C315.422 144.094 315.062 143.812 314.531 143.562C314.01 143.312 313.24 143.083 312.219 142.875C311.323 142.677 310.5 142.443 309.75 142.172C309.01 141.891 308.375 141.552 307.844 141.156C307.312 140.76 306.901 140.292 306.609 139.75C306.318 139.208 306.172 138.583 306.172 137.875C306.172 137.188 306.323 136.536 306.625 135.922C306.927 135.307 307.359 134.766 307.922 134.297C308.484 133.828 309.167 133.458 309.969 133.188C310.781 132.917 311.688 132.781 312.688 132.781C314.104 132.781 315.318 133.021 316.328 133.5C317.349 133.969 318.13 134.609 318.672 135.422C319.214 136.224 319.484 137.13 319.484 138.141H315.719C315.719 137.693 315.604 137.276 315.375 136.891C315.156 136.495 314.823 136.177 314.375 135.938C313.927 135.688 313.365 135.562 312.688 135.562C312.042 135.562 311.505 135.667 311.078 135.875C310.661 136.073 310.349 136.333 310.141 136.656C309.943 136.979 309.844 137.333 309.844 137.719C309.844 138 309.896 138.255 310 138.484C310.115 138.703 310.302 138.906 310.562 139.094C310.823 139.271 311.177 139.438 311.625 139.594C312.083 139.75 312.656 139.901 313.344 140.047C314.635 140.318 315.745 140.667 316.672 141.094C317.609 141.51 318.328 142.052 318.828 142.719C319.328 143.375 319.578 144.208 319.578 145.219C319.578 145.969 319.417 146.656 319.094 147.281C318.781 147.896 318.323 148.432 317.719 148.891C317.115 149.339 316.391 149.688 315.547 149.938C314.714 150.188 313.776 150.312 312.734 150.312C311.203 150.312 309.906 150.042 308.844 149.5C307.781 148.948 306.974 148.245 306.422 147.391C305.88 146.526 305.609 145.63 305.609 144.703H309.25C309.292 145.401 309.484 145.958 309.828 146.375C310.182 146.781 310.62 147.078 311.141 147.266C311.672 147.443 312.219 147.531 312.781 147.531C313.458 147.531 314.026 147.443 314.484 147.266C314.943 147.078 315.292 146.828 315.531 146.516C315.771 146.193 315.891 145.828 315.891 145.422ZM326.656 136.344V156.5H322.891V133.094H326.359L326.656 136.344ZM337.672 141.391V141.719C337.672 142.948 337.526 144.089 337.234 145.141C336.953 146.182 336.531 147.094 335.969 147.875C335.417 148.646 334.734 149.245 333.922 149.672C333.109 150.099 332.172 150.312 331.109 150.312C330.057 150.312 329.135 150.12 328.344 149.734C327.562 149.339 326.901 148.781 326.359 148.062C325.818 147.344 325.38 146.5 325.047 145.531C324.724 144.552 324.495 143.479 324.359 142.312V141.047C324.495 139.807 324.724 138.682 325.047 137.672C325.38 136.661 325.818 135.792 326.359 135.062C326.901 134.333 327.562 133.771 328.344 133.375C329.125 132.979 330.036 132.781 331.078 132.781C332.141 132.781 333.083 132.99 333.906 133.406C334.729 133.812 335.422 134.396 335.984 135.156C336.547 135.906 336.969 136.812 337.25 137.875C337.531 138.927 337.672 140.099 337.672 141.391ZM333.906 141.719V141.391C333.906 140.609 333.833 139.885 333.688 139.219C333.542 138.542 333.312 137.948 333 137.438C332.688 136.927 332.286 136.531 331.797 136.25C331.318 135.958 330.74 135.812 330.062 135.812C329.396 135.812 328.823 135.927 328.344 136.156C327.865 136.375 327.464 136.682 327.141 137.078C326.818 137.474 326.568 137.938 326.391 138.469C326.214 138.99 326.089 139.557 326.016 140.172V143.203C326.141 143.953 326.354 144.641 326.656 145.266C326.958 145.891 327.385 146.391 327.938 146.766C328.5 147.13 329.219 147.312 330.094 147.312C330.771 147.312 331.349 147.167 331.828 146.875C332.307 146.583 332.698 146.182 333 145.672C333.312 145.151 333.542 144.552 333.688 143.875C333.833 143.198 333.906 142.479 333.906 141.719ZM350.406 146.609V138.547C350.406 137.943 350.297 137.422 350.078 136.984C349.859 136.547 349.526 136.208 349.078 135.969C348.641 135.729 348.089 135.609 347.422 135.609C346.807 135.609 346.276 135.714 345.828 135.922C345.38 136.13 345.031 136.411 344.781 136.766C344.531 137.12 344.406 137.521 344.406 137.969H340.656C340.656 137.302 340.818 136.656 341.141 136.031C341.464 135.406 341.932 134.849 342.547 134.359C343.161 133.87 343.896 133.484 344.75 133.203C345.604 132.922 346.562 132.781 347.625 132.781C348.896 132.781 350.021 132.995 351 133.422C351.99 133.849 352.766 134.495 353.328 135.359C353.901 136.214 354.188 137.286 354.188 138.578V146.094C354.188 146.865 354.24 147.557 354.344 148.172C354.458 148.776 354.62 149.302 354.828 149.75V150H350.969C350.792 149.594 350.651 149.078 350.547 148.453C350.453 147.818 350.406 147.203 350.406 146.609ZM350.953 139.719L350.984 142.047H348.281C347.583 142.047 346.969 142.115 346.438 142.25C345.906 142.375 345.464 142.562 345.109 142.812C344.755 143.062 344.49 143.365 344.312 143.719C344.135 144.073 344.047 144.474 344.047 144.922C344.047 145.37 344.151 145.781 344.359 146.156C344.568 146.521 344.87 146.807 345.266 147.016C345.672 147.224 346.161 147.328 346.734 147.328C347.505 147.328 348.177 147.172 348.75 146.859C349.333 146.536 349.792 146.146 350.125 145.688C350.458 145.219 350.635 144.776 350.656 144.359L351.875 146.031C351.75 146.458 351.536 146.917 351.234 147.406C350.932 147.896 350.536 148.365 350.047 148.812C349.568 149.25 348.99 149.609 348.312 149.891C347.646 150.172 346.875 150.312 346 150.312C344.896 150.312 343.911 150.094 343.047 149.656C342.182 149.208 341.505 148.609 341.016 147.859C340.526 147.099 340.281 146.24 340.281 145.281C340.281 144.385 340.448 143.594 340.781 142.906C341.125 142.208 341.625 141.625 342.281 141.156C342.948 140.688 343.76 140.333 344.719 140.094C345.677 139.844 346.771 139.719 348 139.719H350.953ZM365.031 147.312C365.646 147.312 366.198 147.193 366.688 146.953C367.188 146.703 367.589 146.359 367.891 145.922C368.203 145.484 368.375 144.979 368.406 144.406H371.953C371.932 145.5 371.609 146.495 370.984 147.391C370.359 148.286 369.531 149 368.5 149.531C367.469 150.052 366.328 150.312 365.078 150.312C363.786 150.312 362.661 150.094 361.703 149.656C360.745 149.208 359.948 148.594 359.312 147.812C358.677 147.031 358.198 146.13 357.875 145.109C357.562 144.089 357.406 142.995 357.406 141.828V141.281C357.406 140.115 357.562 139.021 357.875 138C358.198 136.969 358.677 136.062 359.312 135.281C359.948 134.5 360.745 133.891 361.703 133.453C362.661 133.005 363.781 132.781 365.062 132.781C366.417 132.781 367.604 133.052 368.625 133.594C369.646 134.125 370.448 134.87 371.031 135.828C371.625 136.776 371.932 137.88 371.953 139.141H368.406C368.375 138.516 368.219 137.953 367.938 137.453C367.667 136.943 367.281 136.536 366.781 136.234C366.292 135.932 365.703 135.781 365.016 135.781C364.255 135.781 363.625 135.938 363.125 136.25C362.625 136.552 362.234 136.969 361.953 137.5C361.672 138.021 361.469 138.609 361.344 139.266C361.229 139.911 361.172 140.583 361.172 141.281V141.828C361.172 142.526 361.229 143.203 361.344 143.859C361.458 144.516 361.656 145.104 361.938 145.625C362.229 146.135 362.625 146.547 363.125 146.859C363.625 147.161 364.26 147.312 365.031 147.312ZM382.297 150.312C381.047 150.312 379.917 150.109 378.906 149.703C377.906 149.286 377.052 148.708 376.344 147.969C375.646 147.229 375.109 146.359 374.734 145.359C374.359 144.359 374.172 143.281 374.172 142.125V141.5C374.172 140.177 374.365 138.979 374.75 137.906C375.135 136.833 375.672 135.917 376.359 135.156C377.047 134.385 377.859 133.797 378.797 133.391C379.734 132.984 380.75 132.781 381.844 132.781C383.052 132.781 384.109 132.984 385.016 133.391C385.922 133.797 386.672 134.37 387.266 135.109C387.87 135.839 388.318 136.708 388.609 137.719C388.911 138.729 389.062 139.844 389.062 141.062V142.672H376V139.969H385.344V139.672C385.323 138.995 385.188 138.359 384.938 137.766C384.698 137.172 384.328 136.693 383.828 136.328C383.328 135.964 382.661 135.781 381.828 135.781C381.203 135.781 380.646 135.917 380.156 136.188C379.677 136.448 379.276 136.828 378.953 137.328C378.63 137.828 378.38 138.432 378.203 139.141C378.036 139.839 377.953 140.625 377.953 141.5V142.125C377.953 142.865 378.052 143.552 378.25 144.188C378.458 144.812 378.76 145.359 379.156 145.828C379.552 146.297 380.031 146.667 380.594 146.938C381.156 147.198 381.797 147.328 382.516 147.328C383.422 147.328 384.229 147.146 384.938 146.781C385.646 146.417 386.26 145.901 386.781 145.234L388.766 147.156C388.401 147.688 387.927 148.198 387.344 148.688C386.76 149.167 386.047 149.557 385.203 149.859C384.37 150.161 383.401 150.312 382.297 150.312Z" fill="#102042"/>
</svg>
