<svg width="1512" height="982" viewBox="0 0 1512 982" fill="none" xmlns="http://www.w3.org/2000/svg">
<g clip-path="url(#clip0_548_7896)">
<rect width="1512" height="982" rx="32" fill="white"/>
<path d="M1597 768C1597 775.175 1591.34 781 1584.36 781L-142.358 781C-149.335 781 -155 775.184 -155 768C-155 760.825 -149.344 755 -142.358 755L1584.37 755C1591.34 755.01 1597 760.825 1597 768Z" fill="#F7F7F7"/>
<path d="M887.53 807.467H785.703C783.657 807.467 782 805.796 782 803.733C782 801.671 783.657 800 785.703 800H887.53C889.576 800 891.233 801.671 891.233 803.733C891.233 805.796 889.576 807.467 887.53 807.467ZM1058.79 807.467H956.958C954.912 807.467 953.255 805.796 953.255 803.733C953.255 801.671 954.912 800 956.958 800H1058.79C1060.83 800 1062.49 801.671 1062.49 803.733C1062.49 805.796 1060.83 807.467 1058.79 807.467ZM1239.3 807.467H1137.47C1135.42 807.467 1133.77 805.796 1133.77 803.733C1133.77 801.671 1135.42 800 1137.47 800H1239.3C1241.34 800 1243 801.671 1243 803.733C1243 805.796 1241.34 807.467 1239.3 807.467ZM976.398 828H874.57C872.524 828 870.867 826.329 870.867 824.267C870.867 822.204 872.524 820.533 874.57 820.533H976.398C978.443 820.533 980.1 822.204 980.1 824.267C980.1 826.329 978.443 828 976.398 828ZM1153.21 828H1051.38C1049.33 828 1047.68 826.329 1047.68 824.267C1047.68 822.204 1049.33 820.533 1051.38 820.533H1153.21C1155.25 820.533 1156.91 822.204 1156.91 824.267C1156.91 826.329 1155.25 828 1153.21 828Z" fill="#D3D3D3"/>
<path d="M801.751 754.689C801.751 754.689 772.376 692.324 821.264 653.761C870.152 615.188 780.492 576.034 812.843 528.135C845.195 480.236 955.19 519.058 952.417 430.322C949.644 341.586 1042.08 317.554 1072.58 344.359C1103.08 371.165 1107.28 501.819 1194.84 487.797C1282.4 473.766 1364.67 658.909 1294.42 754.439L801.751 754.689Z" fill="#2A94F4" fill-opacity="0.06"/>
<path d="M630.318 670.645C608.085 689.173 620.913 743.332 630.318 755.131H927.871C939.358 728.451 946.399 642.853 894.892 635.442C843.385 628.031 860.06 566.149 843.015 500.561C825.969 434.974 790.026 439.05 765.199 439.05C719.569 439.05 689.977 505.379 694.423 559.109C698.87 612.839 727.402 603.575 721.103 635.442C714.804 667.31 662.601 643.742 630.318 670.645Z" fill="#2A94F4" fill-opacity="0.06"/>
<path d="M830.215 718.424C839.017 702.31 811.233 694.733 804.535 701.124C797.837 707.516 820.042 737.049 830.215 718.424Z" fill="#2A94F4" fill-opacity="0.2"/>
<path d="M841.896 713.505C859.168 713.505 851.351 682.613 843.967 682.613C834.708 682.613 821.941 713.505 841.896 713.505Z" fill="#2A94F4" fill-opacity="0.2"/>
<path d="M855.208 724.712C869.447 736.303 881.963 710.367 876.9 702.616C871.836 694.864 838.749 711.313 855.208 724.712Z" fill="#2A94F4" fill-opacity="0.2"/>
<path d="M837.05 732.381C834.646 726.82 831.128 721.638 826.594 716.981C818.88 709.059 810.766 705.343 810.685 705.306C810.443 705.198 810.159 705.305 810.05 705.546C809.941 705.787 810.048 706.071 810.289 706.181C810.369 706.217 818.342 709.873 825.93 717.675C830.376 722.247 833.824 727.33 836.176 732.781C836.443 733.4 836.691 734.025 836.93 734.654H837.956C837.674 733.889 837.374 733.131 837.05 732.381Z" fill="#102042"/>
<path d="M843.537 688.948C843.568 688.685 843.38 688.447 843.117 688.415C842.853 688.383 842.615 688.571 842.583 688.834C842.552 689.096 840.131 709.799 840.254 734.653H841.214C841.091 709.864 843.506 689.21 843.537 688.948Z" fill="#102042"/>
<path d="M872.102 706.086C871.955 705.865 871.657 705.806 871.437 705.954C871.368 706 864.44 710.66 857.313 718.324C853.431 722.498 849.018 728.095 845.786 734.654H846.859C850.019 728.384 854.259 723.019 858 718.994C865.053 711.407 871.901 706.798 871.97 706.752C872.19 706.604 872.25 706.306 872.102 706.086Z" fill="#102042"/>
<path d="M841.215 734.654H840.255H837.957H836.931H823.534C823.019 734.654 822.653 735.157 822.813 735.647L823.658 738.241L824.086 739.555L830.208 758.338C830.374 758.848 830.85 759.194 831.386 759.194H853.454C853.989 759.194 854.465 758.848 854.631 758.338L860.754 739.555L861.182 738.241L862.027 735.647C862.188 735.157 861.822 734.654 861.307 734.654H846.858H845.785H841.215Z" fill="#FFD109"/>
<path d="M861.183 738.24L860.755 739.554H824.086L823.659 738.24H861.183Z" fill="#FFBE55"/>
<path opacity="0.4" d="M1275.63 605.545C1278.52 602.657 1278.16 597.612 1274.82 594.277C1271.48 590.941 1266.44 590.579 1263.55 593.466C1260.66 596.354 1261.03 601.399 1264.36 604.734C1267.7 608.07 1272.74 608.433 1275.63 605.545Z" fill="#FFBE55"/>
<path d="M928.883 682.753L912 621H957.027V676.125H988.749V685.311H987.216L989 756H985.423V684.542H935.796L929.654 756H926.588L928.883 682.753Z" fill="#D3D3D3"/>
<path d="M977.535 662.46C976.123 661.525 974.82 660.442 974.224 660.127C973.975 659.998 973.189 659.831 972.971 659.766C972.314 659.581 971.27 659.396 970.812 658.915L968.873 656.934C967.948 655.962 966.745 655.638 965.701 656.499C964.567 657.424 964.905 658.748 966.029 659.683L967.361 661.09C968.257 661.84 968.704 662.895 969.201 663.923C970.216 666.006 972.493 667.57 974.452 668.672C975.686 669.357 977.545 668.875 979.982 668.098C981.175 667.718 982.916 666.792 981.424 666.274C980.171 665.839 976.402 666.783 974.731 663.552C974.651 663.395 974.472 662.969 974.641 662.821C975.149 662.377 976.262 663.377 977.008 663.691C978.053 664.136 978.888 663.988 979.156 663.627C979.425 663.256 978.54 663.127 977.535 662.46Z" fill="#FAB9AF"/>
<path d="M973 591.802C973 591.802 975.878 626.287 986.214 637.926C992.449 644.942 1007.68 656.966 1011.21 659.727C1011.66 660.075 1012.28 660.094 1012.75 659.763C1013.05 659.552 1013.39 659.296 1013.68 659.039C1013.98 658.782 1014.33 658.397 1014.63 658.039C1015.14 657.443 1015.12 656.553 1014.58 655.976C1010.63 651.683 995.116 634.698 993.231 630.231C991.07 625.104 987.345 594.866 983.925 590.482C980.504 586.098 973.938 585.144 973 591.802Z" fill="#FFD109"/>
<path d="M986 649L977.182 586.296L953.38 583L941 648.544L986 649Z" fill="#FAB9AF"/>
<path d="M986.968 647.628L977.114 586.316L953.003 583L940.044 647.74C939.802 648.955 940.585 650.141 941.806 650.366C946.291 651.216 957.124 653 969.235 653C978.279 653 983.36 651.234 985.673 650.123C986.624 649.674 987.136 648.656 986.968 647.628Z" fill="#D3D3D3"/>
<path d="M960.254 586.446C960.254 590.827 959.46 595.163 957.972 599.275C955.051 607.325 950.671 622.554 953.277 635.967C957.02 655.281 961.844 663.09 955.596 667.592C949.349 672.094 937.372 664.581 937.03 662.08C936.688 659.579 939.359 628.816 942.39 615.486C945.421 602.156 953.924 583 953.924 583L957.528 583.389C959.071 583.565 960.254 584.88 960.254 586.446ZM970.208 585.056C970.208 585.056 974.348 594.033 972.906 606.936C971.465 619.831 968.11 659.116 979.819 665.044C983.525 666.925 992 658.606 992 655.522C992 652.437 989.172 642.109 986.492 632.716C983.812 623.323 977.361 586.048 977.361 586.048L970.208 585.056Z" fill="#FFD109"/>
<path d="M967.543 558C962.124 558 960.104 561.876 960.001 569.044C959.963 571.732 961.166 574.391 962.133 576.089C962.856 577.353 963.054 578.843 962.64 580.239L961.447 584.285C960.64 588.038 962.415 590.094 965.035 590.839C966.332 591.207 967.891 590.924 969.018 590.189C970.361 589.311 970.474 587.435 970.23 585.841L969.92 584.69C969.506 583.134 970.399 581.465 971.967 581.116C976.138 580.201 976.739 575.834 977.857 569.044C979.012 561.971 972.963 558 967.543 558Z" fill="#FAB9AF"/>
<path d="M978.996 554.831L975.898 555.773C974.756 556.119 973.548 556.128 972.407 555.792L966.22 554C962.476 554 956.29 556.109 957.067 561.505L957.759 565.313C958.031 566.834 959.313 567.973 960.857 568.104C960.998 568.627 961.484 569 962.027 569C962.701 569 963.244 568.459 963.244 567.796C963.244 566.078 964.451 564.613 966.136 564.23C968.195 563.773 970.404 563.661 972.706 564.277C977.002 565.425 981.532 562.774 981.963 558.35C981.991 558.07 982 557.79 982 557.5C982.009 555.717 980.531 554.411 978.996 554.831Z" fill="#0B4870"/>
<path d="M963 569C963 570.655 962.358 572 960.714 572C959.06 572 958 569.724 958 568.069C958 566.414 959.06 566 960.714 566C962.368 566 963 567.345 963 569Z" fill="#FAB9AF"/>
<path d="M962 576C962 576 966.011 581.457 971 580.712C971 580.712 969.967 581.199 969.716 582C969.716 582 964.978 581.65 962 576Z" fill="#E8948B"/>
<path d="M913.448 701.849L907.841 709.975C906.701 711.632 905.786 713.438 905.131 715.356L904.1 718.372C903.247 720.848 900.358 721.788 898.295 720.261C892.957 716.305 883.806 709.584 881.447 707.853C881.061 707.574 880.864 707.025 881.106 706.596C882.533 704.074 888.427 709.603 894.787 711.278C899.632 712.554 906.1 703.059 908.46 698.582C909.357 696.888 911.519 696.478 912.945 697.725C914.129 698.749 914.345 700.546 913.448 701.849Z" fill="#FAB9AF"/>
<path d="M990.54 659.55C989.405 658.974 972.382 638.967 961.592 637.257C950.812 635.539 949.677 642.403 936.057 658.408C922.436 674.412 902 706.43 902 706.43L908.243 711C908.243 711 937.191 675.555 946.265 666.981C955.349 658.408 959.038 656.401 961.869 664.408C964.709 672.415 971.515 686.134 985.136 678.127C998.766 670.13 990.54 659.55 990.54 659.55Z" fill="#0B4870"/>
<path d="M965.638 731.492L969.131 743.177C969.282 743.691 969.518 744.186 969.811 744.633L972.285 748.335C973.852 750.686 972.728 753.902 970.038 754.73C970.038 754.73 965.043 756.5 959.897 758.204C954.628 759.945 948 758.489 948 757.09C948 753.978 950.88 756.453 955.705 753.198C957.319 752.113 958.99 750.971 960.473 749.791C964.627 746.508 961.002 738.191 958.462 733.509C957.546 731.825 958.518 729.731 960.378 729.331L961.578 729.075C963.362 728.703 965.118 729.75 965.638 731.492Z" fill="#FAB9AF"/>
<path d="M956.206 654.013C956.206 654.013 939.237 652.868 943.199 671.787C947.161 690.706 959.037 738.856 959.037 738.856H969.782L966.951 671.209C966.951 671.219 958.467 654.013 956.206 654.013ZM968.844 743.775C968.844 743.775 964.598 745.973 962.098 746.011C962.098 746.011 962.87 749.82 956.932 752.289C950.994 754.767 947.951 753.22 947.951 756.816C947.951 760.403 955.544 761.949 960.608 760.403C965.673 758.866 972.245 754.245 973.771 753.22C975.279 752.196 968.844 743.775 968.844 743.775ZM906.018 713.202C906.018 713.202 901.349 710.873 899.694 708.675C899.694 708.675 896.909 711.842 890.907 708.191C884.904 704.539 884.252 700.841 881.154 703.179C878.056 705.517 881.678 713.249 886.301 716.733C890.925 720.217 899.198 723.039 901.073 723.719C902.948 724.399 906.018 713.202 906.018 713.202Z" fill="#0B4870"/>
<path d="M954 583.013C954 583.013 945.498 606.225 946.443 621.08C947.388 635.935 947.378 648.051 938.876 638.739C930.375 629.427 936.052 582.085 954 583.013Z" fill="#FFD109"/>
<path d="M986.869 609.093C985.589 610.733 984.139 612.234 983.7 612.942C983.512 613.24 983.252 614.182 983.163 614.442C982.885 615.225 982.581 616.493 981.945 617.006L979.313 619.214C978.024 620.258 977.532 621.693 978.534 623.036C979.618 624.49 981.301 624.182 982.563 622.896L984.425 621.386C985.437 620.351 986.798 619.895 988.114 619.373C990.808 618.31 992.939 615.654 994.47 613.352C995.428 611.907 994.944 609.605 994.148 606.567C993.754 605.076 992.715 602.886 991.954 604.666C991.319 606.157 992.241 610.826 988.042 612.597C987.836 612.681 987.29 612.867 987.12 612.653C986.601 612.001 987.935 610.724 988.391 609.838C989.027 608.599 988.893 607.564 988.463 607.219C988.015 606.847 987.782 607.928 986.869 609.093Z" fill="#FAB9AF"/>
<path d="M936 632.843C936 632.843 938.038 649.913 947.64 643.599C957.251 637.285 974.776 629.144 979.388 625.525C984 621.907 984 621.907 984 621.907L981.15 616L936 632.843Z" fill="#FFBE55"/>
<path d="M1209.24 681.753L1226.12 620H1181.1V675.125H1149.38V684.311H1150.92L1149.12 755H1152.71V683.542H1202.34L1208.48 755H1211.54L1209.24 681.753Z" fill="#D3D3D3"/>
<path d="M1167.12 609C1173.2 609 1178.12 602.732 1178.12 595C1178.12 587.268 1173.2 581 1167.12 581C1161.05 581 1156.12 587.268 1156.12 595C1156.12 602.732 1161.05 609 1167.12 609Z" fill="#0B4870"/>
<path d="M1170.14 595.951C1170.31 588.039 1176.6 581.379 1184.35 580.927C1191.22 580.522 1197.17 584.827 1199.39 590.958C1200.17 593.106 1202.24 594.509 1204.48 594.472C1205.42 594.453 1206.38 594.547 1207.36 594.745C1213.04 595.932 1217.46 600.83 1218.05 606.707C1218.59 612.01 1216.15 616.776 1212.24 619.489C1210.56 620.647 1209.62 622.569 1209.34 624.603C1208.06 634.041 1199.61 640.964 1189.97 639.89C1181.72 638.967 1175.13 632.054 1174.42 623.633C1173.99 618.462 1175.74 613.724 1178.79 610.201C1173.59 607.696 1170 602.252 1170.14 595.951ZM1167.53 575.483C1167.53 575.483 1161.41 579.411 1162.15 584.695C1162.15 584.695 1158.88 582.34 1158.14 574.211C1157.63 568.579 1167.53 575.483 1167.53 575.483Z" fill="#0B4870"/>
<path d="M1163.12 608.311C1162.98 612.784 1162.68 617.285 1162.04 621.813C1161.38 626.324 1160.45 630.889 1158.72 635.307C1157.86 637.512 1156.8 639.67 1155.47 641.7C1154.15 643.73 1152.52 645.604 1150.6 647.129C1148.69 648.663 1146.54 649.866 1144.29 650.656C1142.03 651.446 1139.71 651.841 1137.41 651.997C1136.74 652.043 1136.17 651.538 1136.13 650.886C1136.09 650.279 1136.5 649.756 1137.08 649.636H1137.08C1141.25 648.764 1145.03 646.862 1147.71 643.996C1150.43 641.149 1152.09 637.429 1153.1 633.497C1154.12 629.548 1154.57 625.377 1154.75 621.152C1154.85 619.039 1154.87 616.908 1154.86 614.768C1154.85 612.628 1154.81 610.479 1154.74 608.329C1154.65 606.024 1156.46 604.085 1158.78 604.003C1161.09 603.92 1163.04 605.72 1163.12 608.026C1163.12 608.118 1163.12 608.21 1163.12 608.302V608.311Z" fill="#FAB9AF"/>
<path d="M1160.07 635C1157.63 627.601 1152.73 611.922 1153.15 606.795C1153.42 603.513 1156.14 601 1159.41 601H1180.62C1184.13 601 1187.01 603.809 1187.12 607.351C1187.29 613.545 1184.46 627.629 1182.87 635H1160.07Z" fill="#2A94F4"/>
<path d="M1186.05 643.779C1184.92 640.717 1184.58 637.445 1185.05 634.227C1186.15 626.759 1188.08 612.691 1187.9 606.722C1187.81 603.532 1185.1 601 1181.79 601H1178.55C1177.31 603.761 1174.7 605.89 1170.63 605.89C1166.57 605.89 1163.95 603.761 1162.72 601H1159.68C1162.99 607.828 1161.79 616.832 1156.1 622.088C1157.16 625.689 1158.05 629.318 1158.71 632.253C1159.61 636.229 1159.21 640.379 1157.59 644.145C1154.79 650.608 1152.58 660.973 1153.24 665.078C1176.23 671.357 1192.12 660.242 1192.12 660.242L1186.05 643.779Z" fill="#2A94F4"/>
<path d="M1167.12 602L1177.12 601.035L1173.96 591L1167.5 591.728L1167.12 602Z" fill="#FAB9AF"/>
<path d="M1167.35 591.75L1173.23 591L1174.12 594.187C1172.81 595.714 1171.11 599 1168.98 599C1168.3 599 1167.68 598.804 1167.12 598.437L1167.35 591.75Z" fill="#FA968C"/>
<path d="M1167.02 596C1169.22 596 1171.59 594.957 1174.86 592.245C1176.73 590.685 1178.12 587.973 1178.12 586.141V576H1161.68C1161.68 576 1160.45 581.388 1161.64 586.73C1162.54 590.73 1165.3 596 1167.02 596Z" fill="#FAB9AF"/>
<path d="M1175.12 584.5C1175.12 586.432 1176.15 588 1177.43 588C1178.71 588 1180.12 585.466 1180.12 583.534C1180.12 581.603 1178.71 581 1177.43 581C1176.16 581 1175.12 582.568 1175.12 584.5Z" fill="#FAB9AF"/>
<path d="M1180.11 577.169C1180.11 574.124 1177.53 571.655 1174.33 571.655H1169.02C1167.5 571.655 1166.03 571.279 1164.73 570.573C1162.86 569.561 1160.49 569.892 1159.21 571.55C1157.83 573.338 1157.23 575.738 1160.74 577.954C1162.48 579.053 1165.03 577.832 1166.73 578.364C1166.83 578.364 1166.93 578.346 1167.04 578.346H1171.72C1173.35 578.346 1174.59 579.611 1174.64 581.164C1174.66 582.15 1175.51 582.936 1176.55 582.936H1176.76L1177.51 580.641L1180.12 584V577.169H1180.11Z" fill="#0B4870"/>
<path d="M1133.7 647.144C1133.7 647.144 1139.24 647.764 1139.61 649.453C1139.97 651.143 1139.89 652.337 1137.35 652.938C1134.82 653.54 1131.05 653.195 1128.82 652.558C1126.59 651.921 1123.35 649.338 1123.18 648.834C1122.6 647.021 1126.5 648.586 1128.43 649.259C1130.36 649.931 1132.61 650.497 1132.67 649.515C1132.75 648.533 1128.96 647.516 1128.65 646.366C1128.35 645.216 1133.7 647.144 1133.7 647.144ZM1150.19 649.497C1150.19 649.497 1155.69 648.63 1156.52 650.161C1157.35 651.691 1157.62 652.859 1155.35 654.106C1153.08 655.353 1149.36 656.026 1147.04 655.999C1144.72 655.973 1140.85 654.345 1140.56 653.912C1139.48 652.319 1143.68 652.797 1145.72 652.93C1147.77 653.062 1150.09 653.018 1149.88 652.054C1149.67 651.09 1145.73 651.116 1145.12 650.09C1144.49 649.064 1150.19 649.497 1150.19 649.497Z" fill="#FAB9AF"/>
<path d="M1163.2 575.661C1163.76 578.179 1162.94 579.562 1171 583.502C1179.05 587.442 1181.6 585.754 1184.12 590C1184.12 590 1183.03 582.979 1178.57 580.569C1174.12 578.16 1166.41 576.58 1163.92 571C1163.92 571 1162.83 573.933 1163.2 575.661Z" fill="#0B4870"/>
<path d="M1186.18 605.636C1187.35 607.168 1188.28 608.572 1189.24 610.086C1190.18 611.581 1191.09 613.094 1191.93 614.653C1193.59 617.78 1195.08 621.033 1196.23 624.486C1197.35 627.938 1198.15 631.618 1198.12 635.542C1198.09 637.499 1197.83 639.52 1197.21 641.496C1196.61 643.471 1195.58 645.374 1194.25 646.978C1192.92 648.591 1191.31 649.914 1189.62 650.929C1187.92 651.953 1186.15 652.697 1184.37 653.267C1182.59 653.838 1180.79 654.192 1179.01 654.491C1177.23 654.726 1175.46 654.908 1173.69 654.953C1166.65 655.216 1159.8 654.346 1153.09 653.095C1152.44 652.977 1152.02 652.361 1152.14 651.718C1152.25 651.129 1152.78 650.73 1153.37 650.757H1153.39C1156.75 650.92 1160.09 651.047 1163.43 650.984C1166.76 650.938 1170.07 650.766 1173.28 650.313C1176.5 649.86 1179.63 649.153 1182.45 648.02C1185.25 646.87 1187.66 645.22 1189.08 643.1C1190.54 641.006 1191.08 638.423 1190.95 635.632C1190.8 632.832 1189.99 629.896 1188.89 627.032C1187.8 624.15 1186.38 621.314 1184.78 618.568C1183.98 617.191 1183.15 615.822 1182.27 614.49C1181.84 613.819 1181.39 613.167 1180.93 612.514C1180.49 611.88 1180 611.182 1179.59 610.648L1179.55 610.593C1178.17 608.781 1178.54 606.198 1180.36 604.83C1182.19 603.461 1184.8 603.824 1186.18 605.636Z" fill="#FAB9AF"/>
<path d="M1165.09 576.608C1165.09 576.608 1164.81 584.298 1158.12 588C1158.12 588 1161.07 582.188 1160.87 578.378C1160.68 574.578 1165.54 573.979 1165.09 576.608Z" fill="#0B4870"/>
<path d="M1136.12 730.228L1133.67 741.124C1132.92 744.452 1133.38 747.954 1134.99 750.964C1135.9 752.646 1135.09 754.738 1133.29 755.375C1127.47 757.448 1116.19 761.395 1115.68 760.968C1113.12 758.794 1119.9 755.211 1124.91 751.446C1128.29 748.909 1129.58 737.076 1129.88 728L1135.26 729.355C1135.68 729.482 1136 729.81 1136.12 730.228Z" fill="#FA968C"/>
<path d="M1169.57 660L1192.46 661.01C1192.46 661.01 1198.57 679.764 1187.38 681.283C1176.18 682.802 1143.62 679.255 1142.6 684.321C1141.59 689.387 1136.49 734 1136.49 734H1128.86C1128.86 734 1129.37 705.613 1128.86 690.906C1128.35 676.198 1126.31 670.123 1132.42 667.585C1138.53 665.075 1169.57 660 1169.57 660Z" fill="#0B4870"/>
<path d="M1142.94 703.747C1142.94 703.747 1144.24 714.839 1144.6 716.706C1144.9 718.249 1145.97 719.469 1146.98 720.671C1147.3 721.059 1147.54 721.817 1147.75 722.464C1147.91 722.982 1147.77 723.527 1147.47 723.971C1141.98 731.717 1131.4 732.567 1131.36 731.855C1131.27 730.58 1133.33 728.62 1135.67 728.001C1138.02 727.373 1139.81 725.441 1140.53 723.111C1141.1 721.263 1141.19 719.294 1140.8 717.399L1138.89 708.886L1142.94 703.747Z" fill="#FA968C"/>
<path d="M1149.08 727.04C1149.61 726.679 1149.81 725.986 1149.54 725.404C1149.32 724.923 1148.74 723.62 1148.29 722.64C1148.1 722.215 1147.54 722.15 1147.24 722.501C1143.8 726.504 1139.16 729.092 1134.2 728.454C1132.36 729.082 1130.73 731.181 1130.8 732.188C1130.82 732.429 1132.94 733.029 1135.52 732.355C1146.96 729.369 1149.08 727.04 1149.08 727.04Z" fill="#0B4870"/>
<path d="M1156.12 662.286L1140.93 665.817L1144.47 712.756L1138.9 713.761C1138.9 713.761 1125.22 680.956 1125.73 665.817C1126.24 650.678 1138.39 655.223 1145.49 657.233C1152.58 659.262 1156.12 662.286 1156.12 662.286ZM1126.26 754.467C1123.8 755.27 1121.12 755.528 1118.66 755.832C1118.38 755.869 1118.1 755.979 1117.88 756.145C1115.52 757.971 1114.33 759.806 1115.71 760.967C1116.27 761.438 1129.75 756.68 1135.01 754.799C1136.11 754.403 1136.59 753.14 1136.04 752.107L1135.04 750.235C1132.29 751.987 1129.36 753.444 1126.26 754.467Z" fill="#0B4870"/>
<path d="M1119.69 644.765H995V649.349H1119.69V644.765Z" fill="#0B4870"/>
<path d="M1003.65 649.349H1001.11V755.721H1003.65V649.349Z" fill="#76838B"/>
<path d="M1113.07 649.349H1110.53V755.721H1113.07V649.349Z" fill="#76838B"/>
<path d="M1236.75 755.805C1236.75 757.625 1235.27 759.095 1233.46 759.095H1220.75C1218.93 759.095 1217.46 757.616 1217.46 755.805V726.161C1217.46 724.34 1218.94 722.871 1220.75 722.871H1233.46C1235.28 722.871 1236.75 724.35 1236.75 726.161V755.805Z" fill="#FFBE55"/>
<path opacity="0.4" d="M1228.63 688.744C1228.63 688.744 1218.23 709.884 1233.55 713.489C1248.88 717.094 1249.32 701.14 1247.75 694.568C1246.18 687.996 1270.5 670.322 1250.44 654.692C1230.38 639.061 1214.75 680.675 1228.63 688.744Z" fill="#2A94F4"/>
<path opacity="0.4" d="M1209.26 700.215C1209.26 700.215 1208.77 714.126 1217.91 712.361C1227.04 710.595 1223.41 701.888 1220.97 698.727C1218.53 695.566 1227.37 680.157 1212.78 676.58C1198.19 673.012 1199.83 699.235 1209.26 700.215Z" fill="#2A94F4"/>
<path d="M1210.82 687.108L1222.11 722.871" stroke="#4D4D4D" stroke-miterlimit="10"/>
<path d="M1217.41 694.383L1215.01 700.391L1209.57 697.387" stroke="#4D4D4D" stroke-miterlimit="10"/>
<path d="M1240.88 666.875L1231.19 722.871" stroke="#4D4D4D" stroke-miterlimit="10"/>
<path d="M1246.56 675.341L1238.54 680.407L1233.39 673.456" stroke="#4D4D4D" stroke-miterlimit="10"/>
<path d="M1244.37 687.08L1236.34 692.155L1231.19 685.204" stroke="#4D4D4D" stroke-miterlimit="10"/>
<path d="M886.62 500L788.88 500C786.739 500 785 501.741 785 503.884V532.436C785 534.579 786.739 536.32 788.88 536.32H794.47V549L809.989 536.32L886.62 536.32C888.761 536.32 890.5 534.579 890.5 532.436V503.884C890.491 501.731 888.761 500 886.62 500ZM790.871 517.013H839.251V518.651H790.871V517.013ZM880.992 524.5L790.871 524.5V522.862L880.992 522.862V524.5ZM880.992 513.036L790.871 513.036V511.398L880.992 511.398V513.036Z" fill="#FFBE55"/>
<path opacity="0.4" d="M874.256 676.095C875.506 669.577 873.268 663.67 869.258 662.901C865.247 662.131 860.982 666.791 859.732 673.309C858.481 679.826 860.719 685.734 864.73 686.503C868.741 687.272 873.006 682.613 874.256 676.095Z" fill="#FFBE55"/>
<path opacity="0.4" d="M875.143 670.307C878.031 667.42 877.668 662.375 874.333 659.039C870.997 655.704 865.952 655.341 863.065 658.229C860.177 661.117 860.54 666.162 863.875 669.497C867.211 672.833 872.256 673.195 875.143 670.307Z" fill="#FFBE55"/>
<path opacity="0.4" d="M1264.73 631.322C1265.98 624.804 1263.74 618.897 1259.73 618.128C1255.72 617.358 1251.46 622.018 1250.21 628.536C1248.96 635.053 1251.19 640.961 1255.2 641.73C1259.22 642.499 1263.48 637.84 1264.73 631.322Z" fill="#FFBE55"/>
<path d="M779.442 538.429C779.442 530.468 772.42 524.017 761.89 524.017C753.139 524.017 750.132 528.846 750.132 528.846C750.132 528.846 741.86 530.634 741.86 540.912C741.86 550.467 741.86 566.905 741.86 566.905H755.451H756.144H766.182H777.093V545.499C777.955 544.44 779.442 542.085 779.442 538.429ZM763.097 561.707C762.362 561.707 761.558 561.571 760.72 561.335V566.904H748.694V552.575C748.612 552.346 748.531 552.1 748.452 551.841C743.121 551.332 743.342 542.521 746.51 542.521C746.553 542.521 746.595 542.525 746.637 542.531V542.53C759.954 546.788 768.911 539.811 771.841 534.965C771.841 538.347 775.584 541.645 776.916 541.946C776.719 554.033 768.072 561.707 763.097 561.707Z" fill="#311643"/>
<path d="M760.72 562.102V561.335C761.558 561.571 762.362 561.707 763.098 561.707C768.072 561.707 776.719 554.033 776.916 541.945C775.584 541.644 771.84 538.346 771.84 534.964C768.91 539.811 759.954 546.787 746.636 542.529V542.53C746.595 542.524 746.553 542.52 746.51 542.52C743.341 542.52 743.12 551.331 748.452 551.84C748.531 552.099 748.611 552.344 748.694 552.575V562.214L739.275 566.653V578.278H770.574V566.543L760.72 562.102Z" fill="#FCBEB7"/>
<path d="M770.575 578.279V566.544L760.72 562.102V561.335C757.934 560.549 754.766 558.644 752.44 556.867L770.575 578.279Z" fill="#F9AFAB"/>
<path d="M754.297 552.151C756.109 552.151 757.578 550.682 757.578 548.87C757.578 547.058 756.109 545.589 754.297 545.589C752.485 545.589 751.016 547.058 751.016 548.87C751.016 550.682 752.485 552.151 754.297 552.151Z" fill="#F49795"/>
<path d="M776.494 546.146C776.078 548.349 775.381 550.358 774.5 552.146C772.765 552.06 771.385 550.626 771.385 548.869C771.385 547.057 772.854 545.588 774.665 545.588C775.342 545.589 775.971 545.795 776.494 546.146Z" fill="#F49795"/>
<path d="M770.944 538.893C768.549 538.893 766.571 540.714 766.322 543.044C765.02 542.431 763.871 542.763 763.264 543.042C763.013 540.713 761.037 538.893 758.642 538.893C756.079 538.893 753.993 540.978 753.993 543.541C753.993 546.105 756.079 548.19 758.642 548.19C761.149 548.19 763.196 546.197 763.287 543.712C763.673 543.49 764.899 542.923 766.299 543.717C766.392 546.199 768.44 548.19 770.944 548.19C773.507 548.19 775.593 546.105 775.593 543.541C775.593 540.977 773.508 538.893 770.944 538.893ZM758.642 547.582C756.414 547.582 754.602 545.769 754.602 543.541C754.602 541.313 756.414 539.5 758.642 539.5C760.871 539.5 762.683 541.313 762.683 543.541C762.683 545.769 760.871 547.582 758.642 547.582ZM770.944 547.582C768.717 547.582 766.904 545.769 766.904 543.541C766.904 541.313 768.717 539.5 770.944 539.5C773.173 539.5 774.986 541.313 774.986 543.541C774.986 545.769 773.173 547.582 770.944 547.582Z" fill="white"/>
<path d="M770.948 546.873C770.582 546.873 770.285 546.576 770.285 546.21V544.97C770.285 544.604 770.582 544.307 770.948 544.307C771.314 544.307 771.611 544.604 771.611 544.97V546.21C771.611 546.576 771.315 546.873 770.948 546.873Z" fill="#311643"/>
<path d="M758.844 546.873C758.478 546.873 758.181 546.576 758.181 546.21V544.97C758.181 544.604 758.478 544.307 758.844 544.307C759.21 544.307 759.507 544.604 759.507 544.97V546.21C759.508 546.576 759.211 546.873 758.844 546.873Z" fill="#311643"/>
<path d="M763.581 554.394C762.397 554.394 761.59 553.949 761.102 553.543C760.486 553.032 760.23 552.474 760.219 552.45C760.15 552.297 760.219 552.118 760.372 552.048C760.525 551.979 760.705 552.047 760.774 552.199C760.808 552.274 761.65 554.038 764.093 553.755C764.261 553.736 764.411 553.855 764.43 554.023C764.449 554.19 764.33 554.341 764.163 554.36C763.959 554.383 763.765 554.394 763.581 554.394Z" fill="#311643"/>
<path d="M783.47 747.39L784.714 752.562L798.285 756.823L796.333 747.39H783.47Z" fill="#FCBEB7"/>
<path d="M737.748 747.39L738.118 753.778L737.273 754.09L736.715 756.825L750.273 752.562L750.612 747.39H737.748Z" fill="#FCBEB7"/>
<path d="M808.751 758.831L797.719 754.089L798.285 756.823L784.714 752.562V756.45C784.714 757.818 785.43 759.058 786.554 759.754L787.721 763.091C787.822 763.379 788.094 763.572 788.4 763.572C788.797 763.572 789.119 763.251 789.119 762.853V760.684L798.394 763.572H807.776C809.14 763.572 810.246 762.467 810.246 761.102C810.246 760.114 809.658 759.222 808.751 758.831Z" fill="#0B4870"/>
<path d="M750.285 756.413L750.274 752.524L736.716 756.825L737.273 754.09L726.255 758.865C725.35 759.258 724.764 760.151 724.767 761.139C724.771 762.503 725.88 763.606 727.245 763.601L736.627 763.574L746.218 760.555L746.224 762.828C746.226 763.225 746.548 763.546 746.945 763.544C747.251 763.543 747.523 763.349 747.623 763.061L748.889 759.407C749.757 758.682 750.289 757.595 750.285 756.413Z" fill="#0B4870"/>
<path d="M739.8 617.311L734.795 638.507C733.35 644.629 732.78 650.924 733.104 657.204L737.749 747.389H750.612L756.105 653.794L783.471 747.389H796.334L773.685 617.31H739.8V617.311Z" fill="#0B4870"/>
<path d="M756.82 572.545C759.104 572.545 760.931 570.346 762.163 568.118H749.137C751.124 570.34 753.845 572.545 756.82 572.545Z" fill="white"/>
<path d="M779.269 574.319C777.654 571.088 774.97 568.515 771.674 567.037L763.944 563.57C763.944 563.933 763.313 566.038 762.162 568.118C760.931 570.346 759.104 572.545 756.82 572.545C753.844 572.545 751.124 570.34 749.137 568.118C747.121 565.864 745.862 563.593 745.862 563.593L736.894 567.747C733.223 569.448 730.52 572.72 729.544 576.647L724.302 597.725C723.448 601.162 724.432 604.797 726.904 607.333C731.032 605.885 738.781 602.868 738.781 602.868L739.799 617.312H773.684L782.102 579.984L779.269 574.319Z" fill="#2A94F4"/>
<path d="M757.155 575.714C755.271 575.714 753.354 575.141 751.457 574.011C749.951 573.113 748.454 571.864 747.008 570.298C744.552 567.639 743.057 564.926 743.042 564.899L743.545 564.666C743.56 564.693 745.01 567.323 747.422 569.931C748.832 571.456 750.286 572.669 751.746 573.538C753.554 574.615 755.374 575.16 757.155 575.16C758.836 575.16 760.35 574.599 761.655 573.493C762.711 572.598 763.637 571.345 764.407 569.769C765.731 567.06 766.093 564.562 766.096 564.534L766.617 564.768C766.601 564.883 766.269 567.213 764.91 570C764.106 571.648 763.133 572.963 762.018 573.911C760.609 575.107 758.973 575.714 757.155 575.714Z" fill="white"/>
<path d="M777.347 689.28C780.748 689.28 783.504 686.523 783.504 683.123C783.504 679.722 780.748 676.965 777.347 676.965C773.947 676.965 771.19 679.722 771.19 683.123C771.19 686.523 773.947 689.28 777.347 689.28Z" fill="#083959"/>
<path d="M745.088 689.28C748.489 689.28 751.245 686.523 751.245 683.123C751.245 679.722 748.489 676.965 745.088 676.965C741.688 676.965 738.931 679.722 738.931 683.123C738.931 686.523 741.688 689.28 745.088 689.28Z" fill="#083959"/>
<path d="M736.948 570.485C736.948 572.656 735.188 574.418 733.015 574.418C732.142 574.418 731.337 574.134 730.685 573.653C731.91 571.322 733.808 569.387 736.156 568.119C736.653 568.777 736.948 569.596 736.948 570.485Z" fill="#197BD3"/>
<path d="M759.958 622.19L786.033 621.205C787.404 621.154 788.589 620.237 788.983 618.923L800.383 580.92C800.626 580.113 800.002 579.307 799.16 579.339L772.79 580.335C771.597 580.38 770.563 581.179 770.22 582.323L758.735 620.609C758.493 621.416 759.116 622.222 759.958 622.19Z" fill="#FFD109"/>
<path d="M788.059 602.229L792.621 606.794L793.399 604.2L788.059 602.229Z" fill="#2F3D6C"/>
<path d="M794.393 595.163L787.819 595.597C787.334 595.628 786.958 596.035 786.963 596.521L786.309 596.562C785.884 596.588 785.539 596.914 785.489 597.338L785.408 598.021H785.406C784.919 598.027 784.53 598.426 784.536 598.912C784.541 599.27 784.76 599.588 785.092 599.72L786.564 600.305C786.561 601.055 786.996 601.737 787.676 602.052L792.251 604.167C792.916 604.474 793.654 604.587 794.38 604.493C796.011 604.281 797.332 603.063 797.676 601.454L797.961 600.123C798.267 598.689 797.823 597.198 796.781 596.167C796.145 595.536 795.289 595.176 794.393 595.163Z" fill="#FCBEB7"/>
<path d="M761.718 569.809L766.204 580.775C766.458 581.393 766.827 581.954 767.283 582.408L768.081 583.203C768.267 583.388 768.525 583.282 768.528 583.02L768.54 581.894C768.547 581.25 768.418 580.591 768.165 579.972L763.679 569.007C763.407 568.339 762.746 567.978 762.204 568.2C761.663 568.421 761.446 569.142 761.718 569.809Z" fill="#6277D7"/>
<path d="M767.617 576.341L765.154 572.949C764.837 572.512 764.346 572.234 763.808 572.185L759.678 571.81C759.115 571.759 758.556 571.94 758.13 572.311L755.979 574.18C755.668 574.45 755.404 574.769 755.198 575.125L752.558 579.314L727.53 599.535C725.061 601.53 724.843 605.216 727.059 607.489C729.263 609.749 732.928 609.638 734.993 607.251L756.128 582.805L760.574 580.071L763.854 580.184C764.617 580.21 765.288 579.688 765.451 578.942L765.631 578.728C765.941 578.36 766.067 577.87 765.972 577.398L765.784 576.473L766.845 577.157C767 577.257 767.193 577.277 767.364 577.209C767.711 577.073 767.836 576.644 767.617 576.341Z" fill="#FCBEB7"/>
<path d="M738.782 602.869L748.043 592.157L739.134 607.862L738.782 602.869Z" fill="#197BD3"/>
<path d="M759.958 622.191L775.268 626.407L774.439 621.644L759.958 622.191Z" fill="#2F3D6C"/>
<path d="M777.902 572.078C777.418 572.279 776.887 572.39 776.329 572.39C774.071 572.39 772.239 570.559 772.239 568.3C772.239 567.976 772.277 567.661 772.348 567.359C774.553 568.476 776.453 570.097 777.902 572.078Z" fill="#197BD3"/>
<path d="M731.032 608.292C733.133 608.292 734.836 606.589 734.836 604.488C734.836 602.387 733.133 600.684 731.032 600.684C728.931 600.684 727.228 602.387 727.228 604.488C727.228 606.589 728.931 608.292 731.032 608.292Z" fill="#F9AFAB"/>
<rect width="99" height="21" transform="translate(790.5 506.464)" fill="#FFBE55"/>
<text fill="white" xml:space="preserve" style="white-space: pre" font-family="Roboto" font-size="10" font-weight="600" letter-spacing="0em"><tspan x="790.5" y="515.882">Invite our teams...</tspan></text>
<path d="M1077.12 503H995.88C993.739 503 992 504.741 992 506.884V535.436C992 537.579 993.739 539.32 995.88 539.32H1001.47V552L1016.99 539.32H1077.12C1079.26 539.32 1081 537.579 1081 535.436V506.884C1080.99 504.731 1079.26 503 1077.12 503ZM997.871 520.013H1046.25V521.651H997.871V520.013ZM1071.49 527.5H997.871V525.862H1071.49V527.5ZM1071.49 516.036H997.871V514.398H1071.49V516.036Z" fill="#FFBE55"/>
<rect width="80" height="21" transform="translate(997 510)" fill="#FFBE55"/>
<text fill="white" xml:space="preserve" style="white-space: pre" font-family="Roboto" font-size="8" font-weight="600" letter-spacing="0em"><tspan x="997" y="517.234">Sign up APPOINTA </tspan><tspan x="997" y="526.234">for job interviews...</tspan></text>
<path d="M1087.12 514.804V542.774C1087.12 544.873 1088.82 546.578 1090.92 546.578H1149.7L1164.87 559V546.578H1170.33C1172.42 546.578 1174.12 544.873 1174.12 542.774V514.804C1174.12 512.705 1172.42 511 1170.33 511H1090.92C1088.82 511 1087.12 512.696 1087.12 514.804ZM1168.38 529.27H1121.09V527.666H1168.38V529.27ZM1096.42 533.396H1168.38V535H1096.42V533.396ZM1096.42 522.166H1168.38V523.77H1096.42V522.166Z" fill="#2A94F4"/>
<rect width="80" height="21" transform="translate(1093 518)" fill="#2A94F4"/>
<text fill="white" xml:space="preserve" style="white-space: pre" font-family="Roboto" font-size="8" font-weight="600" letter-spacing="0em"><tspan x="1093" y="525.234">And sync with our </tspan><tspan x="1093" y="534.234">calendar</tspan></text>
<g filter="url(#filter0_d_548_7896)">
<rect width="1512" height="96" fill="white"/>
<path d="M281.438 50.25V45.7656C281.438 45.151 281.318 44.5729 281.078 44.0312C280.849 43.4792 280.531 43 280.125 42.5938C279.719 42.1875 279.24 41.8698 278.688 41.6406C278.146 41.401 277.568 41.2812 276.953 41.2812C276.339 41.2812 275.755 41.401 275.203 41.6406C274.661 41.8698 274.188 42.1875 273.781 42.5938C273.375 43 273.052 43.4792 272.812 44.0312C272.583 44.5729 272.469 45.151 272.469 45.7656V50.25H281.438ZM285.922 59.2031H281.438V54.7188H272.469V59.2031H268V45.7656C268 44.526 268.234 43.3646 268.703 42.2812C269.172 41.1875 269.807 40.2344 270.609 39.4219C271.422 38.6094 272.37 37.9688 273.453 37.5C274.547 37.0312 275.714 36.7969 276.953 36.7969C278.193 36.7969 279.354 37.0312 280.438 37.5C281.531 37.9688 282.484 38.6094 283.297 39.4219C284.109 40.2344 284.75 41.1875 285.219 42.2812C285.688 43.3646 285.922 44.526 285.922 45.7656V59.2031Z" fill="#5384ED"/>
<path d="M294.297 41.2812V50.25H298.781C299.396 50.25 299.974 50.1354 300.516 49.9062C301.057 49.6667 301.531 49.3438 301.938 48.9375C302.344 48.5312 302.661 48.0573 302.891 47.5156C303.13 46.9635 303.25 46.3802 303.25 45.7656C303.25 45.151 303.13 44.5729 302.891 44.0312C302.661 43.4792 302.344 43 301.938 42.5938C301.531 42.1875 301.057 41.8698 300.516 41.6406C299.974 41.401 299.396 41.2812 298.781 41.2812H294.297ZM294.297 59.2031H289.812V36.7969H298.781C299.604 36.7969 300.396 36.9062 301.156 37.125C301.917 37.3333 302.625 37.6354 303.281 38.0312C303.948 38.4167 304.552 38.8854 305.094 39.4375C305.646 39.9792 306.115 40.5833 306.5 41.25C306.896 41.9167 307.198 42.6302 307.406 43.3906C307.625 44.151 307.734 44.9427 307.734 45.7656C307.734 46.9948 307.5 48.1562 307.031 49.25C306.562 50.3333 305.922 51.2812 305.109 52.0938C304.297 52.9062 303.344 53.5469 302.25 54.0156C301.167 54.4844 300.01 54.7188 298.781 54.7188H294.297V59.2031Z" fill="#5384ED"/>
<path d="M314.859 41.2812V50.25H319.344C319.958 50.25 320.536 50.1354 321.078 49.9062C321.62 49.6667 322.094 49.3438 322.5 48.9375C322.906 48.5312 323.224 48.0573 323.453 47.5156C323.693 46.9635 323.812 46.3802 323.812 45.7656C323.812 45.151 323.693 44.5729 323.453 44.0312C323.224 43.4792 322.906 43 322.5 42.5938C322.094 42.1875 321.62 41.8698 321.078 41.6406C320.536 41.401 319.958 41.2812 319.344 41.2812H314.859ZM314.859 59.2031H310.375V36.7969H319.344C320.167 36.7969 320.958 36.9062 321.719 37.125C322.479 37.3333 323.188 37.6354 323.844 38.0312C324.51 38.4167 325.115 38.8854 325.656 39.4375C326.208 39.9792 326.677 40.5833 327.062 41.25C327.458 41.9167 327.76 42.6302 327.969 43.3906C328.188 44.151 328.297 44.9427 328.297 45.7656C328.297 46.9948 328.062 48.1562 327.594 49.25C327.125 50.3333 326.484 51.2812 325.672 52.0938C324.859 52.9062 323.906 53.5469 322.812 54.0156C321.729 54.4844 320.573 54.7188 319.344 54.7188H314.859V59.2031Z" fill="#5384ED"/>
<path d="M353.708 38.0249L357.589 44.7457L352.73 53.1635H349.49L354.349 44.7457L349.012 35.5L353.708 38.0249Z" fill="#5384ED" stroke="#5384ED" stroke-width="0.5" stroke-linecap="round" stroke-linejoin="round"/>
<path d="M332.297 45.8908L336.176 39.1699H345.895L347.516 41.9764H337.797L332.458 51.2221L332.297 45.8908Z" fill="#5384ED" stroke="#5384ED" stroke-width="0.5" stroke-linecap="round" stroke-linejoin="round"/>
<path d="M349.815 60.5H342.053L337.194 52.0823L338.815 49.2773L343.673 57.6936H354.349L349.815 60.5Z" fill="#5384ED" stroke="#5384ED" stroke-width="0.5" stroke-linecap="round" stroke-linejoin="round"/>
<path d="M357.819 51.6858L354.848 56.8314H344.172L342.551 54.0265H353.227L357.656 46.3545L357.819 51.6858Z" fill="#BACCF4" stroke="white" stroke-width="0.5" stroke-linecap="round" stroke-linejoin="round"/>
<path d="M335.927 57.2293L332.956 52.0821L338.293 42.8364H341.534L336.196 52.0821L340.625 59.7542L335.927 57.2293Z" fill="#BACCF4" stroke="white" stroke-width="0.5" stroke-linecap="round" stroke-linejoin="round"/>
<path d="M342.072 35.5H348.015L353.352 44.7457L351.733 47.5521L346.396 38.3064H337.538L342.072 35.5Z" fill="#BACCF4" stroke="white" stroke-width="0.5" stroke-linecap="round" stroke-linejoin="round"/>
<path d="M366.303 59.2031H361.819V36.7969H366.303V59.2031Z" fill="#5384ED"/>
<path d="M388.397 59.2031H383.6L374.959 44.4531V59.2031H370.475V36.7969H375.272L383.913 51.5625V36.7969H388.397V59.2031Z" fill="#5384ED"/>
<path d="M401.975 59.2031H397.506V41.2812H390.772V36.7969H408.694V41.2812H401.975V59.2031Z" fill="#5384ED"/>
<path d="M423.569 50.25V45.7656C423.569 45.151 423.449 44.5729 423.209 44.0312C422.98 43.4792 422.663 43 422.256 42.5938C421.85 42.1875 421.371 41.8698 420.819 41.6406C420.277 41.401 419.699 41.2812 419.084 41.2812C418.47 41.2812 417.887 41.401 417.334 41.6406C416.793 41.8698 416.319 42.1875 415.913 42.5938C415.506 43 415.183 43.4792 414.944 44.0312C414.715 44.5729 414.6 45.151 414.6 45.7656V50.25H423.569ZM428.053 59.2031H423.569V54.7188H414.6V59.2031H410.131V45.7656C410.131 44.526 410.366 43.3646 410.834 42.2812C411.303 41.1875 411.939 40.2344 412.741 39.4219C413.553 38.6094 414.501 37.9688 415.584 37.5C416.678 37.0312 417.845 36.7969 419.084 36.7969C420.324 36.7969 421.486 37.0312 422.569 37.5C423.663 37.9688 424.616 38.6094 425.428 39.4219C426.241 40.2344 426.881 41.1875 427.35 42.2812C427.819 43.3646 428.053 44.526 428.053 45.7656V59.2031Z" fill="#5384ED"/>
<text fill="#7C8DB0" xml:space="preserve" style="white-space: pre" font-family="Roboto" font-size="18" font-weight="500" letter-spacing="0em"><tspan x="814.339" y="54.1523">Home</tspan></text>
<text fill="#7C8DB0" xml:space="preserve" style="white-space: pre" font-family="Roboto" font-size="18" font-weight="500" letter-spacing="0em"><tspan x="895.463" y="54.1523">Interviews</tspan></text>
<text fill="#7C8DB0" xml:space="preserve" style="white-space: pre" font-family="Roboto" font-size="18" font-weight="500" letter-spacing="0em"><tspan x="1011.42" y="54.1523">Team</tspan></text>
<path d="M1089 40C1089 31.1634 1096.16 24 1105 24H1230C1238.84 24 1246 31.1634 1246 40V56C1246 64.8366 1238.84 72 1230 72H1105C1096.16 72 1089 64.8366 1089 56V40Z" fill="#5384ED"/>
<text fill="#FAFAFA" xml:space="preserve" style="white-space: pre" font-family="Roboto" font-size="18" font-weight="500" letter-spacing="0em"><tspan x="1109" y="54.1523">Sign up/Log in</tspan></text>
</g>
<g filter="url(#filter1_d_548_7896)">
<path d="M268 573C268 564.163 275.163 557 284 557H546V605H284C275.163 605 268 597.837 268 589V573Z" fill="white"/>
<text fill="#CBD4E6" xml:space="preserve" style="white-space: pre" font-family="Roboto" font-size="16" font-weight="500" letter-spacing="0em"><tspan x="284" y="586.469">Enter your email</tspan></text>
<path d="M546 557H631C639.837 557 647 564.163 647 573V589C647 597.837 639.837 605 631 605H546V557Z" fill="#5384ED"/>
<text fill="#FAFAFA" xml:space="preserve" style="white-space: pre" font-family="Roboto" font-size="18" font-weight="500" letter-spacing="0em"><tspan x="566" y="587.152">Sign up</tspan></text>
<rect x="267.5" y="556.5" width="380" height="49" rx="16.5" stroke="#5384ED" shape-rendering="crispEdges"/>
</g>
<path d="M294.777 303.014C294.777 302.135 294.641 301.354 294.367 300.67C294.113 299.986 293.654 299.361 292.99 298.795C292.326 298.229 291.389 297.682 290.178 297.154C288.986 296.607 287.463 296.051 285.607 295.484C283.576 294.859 281.701 294.166 279.982 293.404C278.283 292.623 276.799 291.725 275.529 290.709C274.26 289.674 273.273 288.492 272.57 287.164C271.867 285.816 271.516 284.264 271.516 282.506C271.516 280.768 271.877 279.186 272.6 277.76C273.342 276.334 274.387 275.104 275.734 274.068C277.102 273.014 278.713 272.203 280.568 271.637C282.424 271.051 284.475 270.758 286.721 270.758C289.885 270.758 292.609 271.344 294.895 272.516C297.199 273.688 298.967 275.26 300.197 277.232C301.447 279.205 302.072 281.383 302.072 283.766H294.777C294.777 282.359 294.475 281.119 293.869 280.045C293.283 278.951 292.385 278.092 291.174 277.467C289.982 276.842 288.469 276.529 286.633 276.529C284.895 276.529 283.449 276.793 282.297 277.32C281.145 277.848 280.285 278.561 279.719 279.459C279.152 280.357 278.869 281.373 278.869 282.506C278.869 283.307 279.055 284.039 279.426 284.703C279.797 285.348 280.363 285.953 281.125 286.52C281.887 287.066 282.844 287.584 283.996 288.072C285.148 288.561 286.506 289.029 288.068 289.479C290.432 290.182 292.492 290.963 294.25 291.822C296.008 292.662 297.473 293.619 298.645 294.693C299.816 295.768 300.695 296.988 301.281 298.355C301.867 299.703 302.16 301.236 302.16 302.955C302.16 304.752 301.799 306.373 301.076 307.818C300.354 309.244 299.318 310.465 297.971 311.48C296.643 312.477 295.041 313.248 293.166 313.795C291.311 314.322 289.24 314.586 286.955 314.586C284.904 314.586 282.883 314.312 280.891 313.766C278.918 313.219 277.121 312.389 275.5 311.275C273.879 310.143 272.59 308.736 271.633 307.057C270.676 305.357 270.197 303.375 270.197 301.109H277.551C277.551 302.496 277.785 303.678 278.254 304.654C278.742 305.631 279.416 306.432 280.275 307.057C281.135 307.662 282.131 308.111 283.264 308.404C284.416 308.697 285.646 308.844 286.955 308.844C288.674 308.844 290.109 308.6 291.262 308.111C292.434 307.623 293.312 306.939 293.898 306.061C294.484 305.182 294.777 304.166 294.777 303.014Z" fill="#102042"/>
<path d="M315.52 282.301V314H308.43V282.301H315.52ZM307.961 273.98C307.961 272.906 308.312 272.018 309.016 271.314C309.738 270.592 310.734 270.23 312.004 270.23C313.254 270.23 314.24 270.592 314.963 271.314C315.686 272.018 316.047 272.906 316.047 273.98C316.047 275.035 315.686 275.914 314.963 276.617C314.24 277.32 313.254 277.672 312.004 277.672C310.734 277.672 309.738 277.32 309.016 276.617C308.312 275.914 307.961 275.035 307.961 273.98Z" fill="#102042"/>
<path d="M330.314 288.746V314H323.254V282.301H329.904L330.314 288.746ZM329.172 296.979L326.77 296.949C326.77 294.762 327.043 292.74 327.59 290.885C328.137 289.029 328.938 287.418 329.992 286.051C331.047 284.664 332.355 283.6 333.918 282.857C335.5 282.096 337.326 281.715 339.396 281.715C340.842 281.715 342.16 281.93 343.352 282.359C344.562 282.77 345.607 283.424 346.486 284.322C347.385 285.221 348.068 286.373 348.537 287.779C349.025 289.186 349.27 290.885 349.27 292.877V314H342.209V293.492C342.209 291.949 341.975 290.738 341.506 289.859C341.057 288.98 340.402 288.355 339.543 287.984C338.703 287.594 337.697 287.398 336.525 287.398C335.197 287.398 334.064 287.652 333.127 288.16C332.209 288.668 331.457 289.361 330.871 290.24C330.285 291.119 329.855 292.135 329.582 293.287C329.309 294.439 329.172 295.67 329.172 296.979ZM348.83 295.104L345.52 295.836C345.52 293.922 345.783 292.115 346.311 290.416C346.857 288.697 347.648 287.193 348.684 285.904C349.738 284.596 351.037 283.57 352.58 282.828C354.123 282.086 355.891 281.715 357.883 281.715C359.504 281.715 360.949 281.939 362.219 282.389C363.508 282.818 364.602 283.502 365.5 284.439C366.398 285.377 367.082 286.598 367.551 288.102C368.02 289.586 368.254 291.383 368.254 293.492V314H361.164V293.463C361.164 291.861 360.93 290.621 360.461 289.742C360.012 288.863 359.367 288.258 358.527 287.926C357.688 287.574 356.682 287.398 355.51 287.398C354.416 287.398 353.449 287.604 352.609 288.014C351.789 288.404 351.096 288.961 350.529 289.684C349.963 290.387 349.533 291.197 349.24 292.115C348.967 293.033 348.83 294.029 348.83 295.104Z" fill="#102042"/>
<path d="M382.609 288.395V326.188H375.549V282.301H382.053L382.609 288.395ZM403.264 297.857V298.473C403.264 300.777 402.99 302.916 402.443 304.889C401.916 306.842 401.125 308.551 400.07 310.016C399.035 311.461 397.756 312.584 396.232 313.385C394.709 314.186 392.951 314.586 390.959 314.586C388.986 314.586 387.258 314.225 385.773 313.502C384.309 312.76 383.068 311.715 382.053 310.367C381.037 309.02 380.217 307.438 379.592 305.621C378.986 303.785 378.557 301.773 378.303 299.586V297.213C378.557 294.889 378.986 292.779 379.592 290.885C380.217 288.99 381.037 287.359 382.053 285.992C383.068 284.625 384.309 283.57 385.773 282.828C387.238 282.086 388.947 281.715 390.9 281.715C392.893 281.715 394.66 282.105 396.203 282.887C397.746 283.648 399.045 284.742 400.1 286.168C401.154 287.574 401.945 289.273 402.473 291.266C403 293.238 403.264 295.436 403.264 297.857ZM396.203 298.473V297.857C396.203 296.393 396.066 295.035 395.793 293.785C395.52 292.516 395.09 291.402 394.504 290.445C393.918 289.488 393.166 288.746 392.248 288.219C391.35 287.672 390.266 287.398 388.996 287.398C387.746 287.398 386.672 287.613 385.773 288.043C384.875 288.453 384.123 289.029 383.518 289.771C382.912 290.514 382.443 291.383 382.111 292.379C381.779 293.355 381.545 294.42 381.408 295.572V301.256C381.643 302.662 382.043 303.951 382.609 305.123C383.176 306.295 383.977 307.232 385.012 307.936C386.066 308.619 387.414 308.961 389.055 308.961C390.324 308.961 391.408 308.688 392.307 308.141C393.205 307.594 393.938 306.842 394.504 305.885C395.09 304.908 395.52 303.785 395.793 302.516C396.066 301.246 396.203 299.898 396.203 298.473Z" fill="#102042"/>
<path d="M416.828 269V314H409.738V269H416.828Z" fill="#102042"/>
<path d="M438.537 314.586C436.193 314.586 434.074 314.205 432.18 313.443C430.305 312.662 428.703 311.578 427.375 310.191C426.066 308.805 425.061 307.174 424.357 305.299C423.654 303.424 423.303 301.402 423.303 299.234V298.062C423.303 295.582 423.664 293.336 424.387 291.324C425.109 289.312 426.115 287.594 427.404 286.168C428.693 284.723 430.217 283.619 431.975 282.857C433.732 282.096 435.637 281.715 437.688 281.715C439.953 281.715 441.936 282.096 443.635 282.857C445.334 283.619 446.74 284.693 447.854 286.08C448.986 287.447 449.826 289.078 450.373 290.973C450.939 292.867 451.223 294.957 451.223 297.242V300.26H426.73V295.191H444.25V294.635C444.211 293.365 443.957 292.174 443.488 291.061C443.039 289.947 442.346 289.049 441.408 288.365C440.471 287.682 439.221 287.34 437.658 287.34C436.486 287.34 435.441 287.594 434.523 288.102C433.625 288.59 432.873 289.303 432.268 290.24C431.662 291.178 431.193 292.311 430.861 293.639C430.549 294.947 430.393 296.422 430.393 298.062V299.234C430.393 300.621 430.578 301.91 430.949 303.102C431.34 304.273 431.906 305.299 432.648 306.178C433.391 307.057 434.289 307.75 435.344 308.258C436.398 308.746 437.6 308.99 438.947 308.99C440.646 308.99 442.16 308.648 443.488 307.965C444.816 307.281 445.969 306.314 446.945 305.064L450.666 308.668C449.982 309.664 449.094 310.621 448 311.539C446.906 312.438 445.568 313.17 443.986 313.736C442.424 314.303 440.607 314.586 438.537 314.586Z" fill="#102042"/>
<path d="M494.816 303.014C494.816 302.135 494.68 301.354 494.406 300.67C494.152 299.986 493.693 299.361 493.029 298.795C492.365 298.229 491.428 297.682 490.217 297.154C489.025 296.607 487.502 296.051 485.646 295.484C483.615 294.859 481.74 294.166 480.021 293.404C478.322 292.623 476.838 291.725 475.568 290.709C474.299 289.674 473.312 288.492 472.609 287.164C471.906 285.816 471.555 284.264 471.555 282.506C471.555 280.768 471.916 279.186 472.639 277.76C473.381 276.334 474.426 275.104 475.773 274.068C477.141 273.014 478.752 272.203 480.607 271.637C482.463 271.051 484.514 270.758 486.76 270.758C489.924 270.758 492.648 271.344 494.934 272.516C497.238 273.688 499.006 275.26 500.236 277.232C501.486 279.205 502.111 281.383 502.111 283.766H494.816C494.816 282.359 494.514 281.119 493.908 280.045C493.322 278.951 492.424 278.092 491.213 277.467C490.021 276.842 488.508 276.529 486.672 276.529C484.934 276.529 483.488 276.793 482.336 277.32C481.184 277.848 480.324 278.561 479.758 279.459C479.191 280.357 478.908 281.373 478.908 282.506C478.908 283.307 479.094 284.039 479.465 284.703C479.836 285.348 480.402 285.953 481.164 286.52C481.926 287.066 482.883 287.584 484.035 288.072C485.188 288.561 486.545 289.029 488.107 289.479C490.471 290.182 492.531 290.963 494.289 291.822C496.047 292.662 497.512 293.619 498.684 294.693C499.855 295.768 500.734 296.988 501.32 298.355C501.906 299.703 502.199 301.236 502.199 302.955C502.199 304.752 501.838 306.373 501.115 307.818C500.393 309.244 499.357 310.465 498.01 311.48C496.682 312.477 495.08 313.248 493.205 313.795C491.35 314.322 489.279 314.586 486.994 314.586C484.943 314.586 482.922 314.312 480.93 313.766C478.957 313.219 477.16 312.389 475.539 311.275C473.918 310.143 472.629 308.736 471.672 307.057C470.715 305.357 470.236 303.375 470.236 301.109H477.59C477.59 302.496 477.824 303.678 478.293 304.654C478.781 305.631 479.455 306.432 480.314 307.057C481.174 307.662 482.17 308.111 483.303 308.404C484.455 308.697 485.686 308.844 486.994 308.844C488.713 308.844 490.148 308.6 491.301 308.111C492.473 307.623 493.352 306.939 493.938 306.061C494.523 305.182 494.816 304.166 494.816 303.014Z" fill="#102042"/>
<path d="M520.949 308.961C522.102 308.961 523.137 308.736 524.055 308.287C524.992 307.818 525.744 307.174 526.311 306.354C526.896 305.533 527.219 304.586 527.277 303.512H533.928C533.889 305.562 533.283 307.428 532.111 309.107C530.939 310.787 529.387 312.125 527.453 313.121C525.52 314.098 523.381 314.586 521.037 314.586C518.615 314.586 516.506 314.176 514.709 313.355C512.912 312.516 511.418 311.363 510.227 309.898C509.035 308.434 508.137 306.744 507.531 304.83C506.945 302.916 506.652 300.865 506.652 298.678V297.652C506.652 295.465 506.945 293.414 507.531 291.5C508.137 289.566 509.035 287.867 510.227 286.402C511.418 284.938 512.912 283.795 514.709 282.975C516.506 282.135 518.605 281.715 521.008 281.715C523.547 281.715 525.773 282.223 527.688 283.238C529.602 284.234 531.105 285.631 532.199 287.428C533.312 289.205 533.889 291.275 533.928 293.639H527.277C527.219 292.467 526.926 291.412 526.398 290.475C525.891 289.518 525.168 288.756 524.23 288.189C523.312 287.623 522.209 287.34 520.92 287.34C519.494 287.34 518.312 287.633 517.375 288.219C516.438 288.785 515.705 289.566 515.178 290.562C514.65 291.539 514.27 292.643 514.035 293.873C513.82 295.084 513.713 296.344 513.713 297.652V298.678C513.713 299.986 513.82 301.256 514.035 302.486C514.25 303.717 514.621 304.82 515.148 305.797C515.695 306.754 516.438 307.525 517.375 308.111C518.312 308.678 519.504 308.961 520.949 308.961Z" fill="#102042"/>
<path d="M546.32 269V314H539.289V269H546.32ZM545.09 296.979L542.805 296.949C542.824 294.762 543.127 292.74 543.713 290.885C544.318 289.029 545.158 287.418 546.232 286.051C547.326 284.664 548.635 283.6 550.158 282.857C551.682 282.096 553.371 281.715 555.227 281.715C556.789 281.715 558.195 281.93 559.445 282.359C560.715 282.789 561.809 283.482 562.727 284.439C563.645 285.377 564.338 286.607 564.807 288.131C565.295 289.635 565.539 291.471 565.539 293.639V314H558.449V293.58C558.449 292.057 558.225 290.846 557.775 289.947C557.346 289.049 556.711 288.404 555.871 288.014C555.031 287.604 554.006 287.398 552.795 287.398C551.525 287.398 550.402 287.652 549.426 288.16C548.469 288.668 547.668 289.361 547.023 290.24C546.379 291.119 545.891 292.135 545.559 293.287C545.246 294.439 545.09 295.67 545.09 296.979Z" fill="#102042"/>
<path d="M586.662 314.586C584.318 314.586 582.199 314.205 580.305 313.443C578.43 312.662 576.828 311.578 575.5 310.191C574.191 308.805 573.186 307.174 572.482 305.299C571.779 303.424 571.428 301.402 571.428 299.234V298.062C571.428 295.582 571.789 293.336 572.512 291.324C573.234 289.312 574.24 287.594 575.529 286.168C576.818 284.723 578.342 283.619 580.1 282.857C581.857 282.096 583.762 281.715 585.812 281.715C588.078 281.715 590.061 282.096 591.76 282.857C593.459 283.619 594.865 284.693 595.979 286.08C597.111 287.447 597.951 289.078 598.498 290.973C599.064 292.867 599.348 294.957 599.348 297.242V300.26H574.855V295.191H592.375V294.635C592.336 293.365 592.082 292.174 591.613 291.061C591.164 289.947 590.471 289.049 589.533 288.365C588.596 287.682 587.346 287.34 585.783 287.34C584.611 287.34 583.566 287.594 582.648 288.102C581.75 288.59 580.998 289.303 580.393 290.24C579.787 291.178 579.318 292.311 578.986 293.639C578.674 294.947 578.518 296.422 578.518 298.062V299.234C578.518 300.621 578.703 301.91 579.074 303.102C579.465 304.273 580.031 305.299 580.773 306.178C581.516 307.057 582.414 307.75 583.469 308.258C584.523 308.746 585.725 308.99 587.072 308.99C588.771 308.99 590.285 308.648 591.613 307.965C592.941 307.281 594.094 306.314 595.07 305.064L598.791 308.668C598.107 309.664 597.219 310.621 596.125 311.539C595.031 312.438 593.693 313.17 592.111 313.736C590.549 314.303 588.732 314.586 586.662 314.586Z" fill="#102042"/>
<path d="M624.191 307.438V269H631.281V314H624.865L624.191 307.438ZM603.566 298.502V297.887C603.566 295.484 603.85 293.297 604.416 291.324C604.982 289.332 605.803 287.623 606.877 286.197C607.951 284.752 609.26 283.648 610.803 282.887C612.346 282.105 614.084 281.715 616.018 281.715C617.932 281.715 619.611 282.086 621.057 282.828C622.502 283.57 623.732 284.635 624.748 286.021C625.764 287.389 626.574 289.029 627.18 290.943C627.785 292.838 628.215 294.947 628.469 297.271V299.234C628.215 301.5 627.785 303.57 627.18 305.445C626.574 307.32 625.764 308.941 624.748 310.309C623.732 311.676 622.492 312.73 621.027 313.473C619.582 314.215 617.893 314.586 615.959 314.586C614.045 314.586 612.316 314.186 610.773 313.385C609.25 312.584 607.951 311.461 606.877 310.016C605.803 308.57 604.982 306.871 604.416 304.918C603.85 302.945 603.566 300.807 603.566 298.502ZM610.627 297.887V298.502C610.627 299.947 610.754 301.295 611.008 302.545C611.281 303.795 611.701 304.898 612.268 305.855C612.834 306.793 613.566 307.535 614.465 308.082C615.383 308.609 616.477 308.873 617.746 308.873C619.348 308.873 620.666 308.521 621.701 307.818C622.736 307.115 623.547 306.168 624.133 304.977C624.738 303.766 625.148 302.418 625.363 300.934V295.631C625.246 294.479 625.002 293.404 624.631 292.408C624.279 291.412 623.801 290.543 623.195 289.801C622.59 289.039 621.838 288.453 620.939 288.043C620.061 287.613 619.016 287.398 617.805 287.398C616.516 287.398 615.422 287.672 614.523 288.219C613.625 288.766 612.883 289.518 612.297 290.475C611.73 291.432 611.311 292.545 611.037 293.814C610.764 295.084 610.627 296.441 610.627 297.887Z" fill="#102042"/>
<path d="M657.736 306.529V282.301H664.826V314H658.146L657.736 306.529ZM658.732 299.938L661.105 299.879C661.105 302.008 660.871 303.971 660.402 305.768C659.934 307.545 659.211 309.098 658.234 310.426C657.258 311.734 656.008 312.76 654.484 313.502C652.961 314.225 651.135 314.586 649.006 314.586C647.463 314.586 646.047 314.361 644.758 313.912C643.469 313.463 642.355 312.77 641.418 311.832C640.5 310.895 639.787 309.674 639.279 308.17C638.771 306.666 638.518 304.869 638.518 302.779V282.301H645.578V302.838C645.578 303.99 645.715 304.957 645.988 305.738C646.262 306.5 646.633 307.115 647.102 307.584C647.57 308.053 648.117 308.385 648.742 308.58C649.367 308.775 650.031 308.873 650.734 308.873C652.746 308.873 654.328 308.482 655.48 307.701C656.652 306.9 657.482 305.826 657.971 304.479C658.479 303.131 658.732 301.617 658.732 299.938Z" fill="#102042"/>
<path d="M679.621 269V314H672.531V269H679.621Z" fill="#102042"/>
<path d="M694.914 282.301V314H687.824V282.301H694.914ZM687.355 273.98C687.355 272.906 687.707 272.018 688.41 271.314C689.133 270.592 690.129 270.23 691.398 270.23C692.648 270.23 693.635 270.592 694.357 271.314C695.08 272.018 695.441 272.906 695.441 273.98C695.441 275.035 695.08 275.914 694.357 276.617C693.635 277.32 692.648 277.672 691.398 277.672C690.129 277.672 689.133 277.32 688.41 276.617C687.707 275.914 687.355 275.035 687.355 273.98Z" fill="#102042"/>
<path d="M709.65 289.068V314H702.59V282.301H709.24L709.65 289.068ZM708.391 296.979L706.105 296.949C706.125 294.703 706.438 292.643 707.043 290.768C707.668 288.893 708.527 287.281 709.621 285.934C710.734 284.586 712.062 283.551 713.605 282.828C715.148 282.086 716.867 281.715 718.762 281.715C720.285 281.715 721.662 281.93 722.893 282.359C724.143 282.77 725.207 283.443 726.086 284.381C726.984 285.318 727.668 286.539 728.137 288.043C728.605 289.527 728.84 291.354 728.84 293.521V314H721.75V293.492C721.75 291.969 721.525 290.768 721.076 289.889C720.646 288.99 720.012 288.355 719.172 287.984C718.352 287.594 717.326 287.398 716.096 287.398C714.885 287.398 713.801 287.652 712.844 288.16C711.887 288.668 711.076 289.361 710.412 290.24C709.768 291.119 709.27 292.135 708.918 293.287C708.566 294.439 708.391 295.67 708.391 296.979Z" fill="#102042"/>
<path d="M756.35 282.301H762.766V313.121C762.766 315.973 762.16 318.395 760.949 320.387C759.738 322.379 758.049 323.893 755.881 324.928C753.713 325.982 751.203 326.51 748.352 326.51C747.141 326.51 745.793 326.334 744.309 325.982C742.844 325.631 741.418 325.064 740.031 324.283C738.664 323.521 737.521 322.516 736.604 321.266L739.914 317.105C741.047 318.453 742.297 319.439 743.664 320.064C745.031 320.689 746.467 321.002 747.971 321.002C749.592 321.002 750.969 320.699 752.102 320.094C753.254 319.508 754.143 318.639 754.768 317.486C755.393 316.334 755.705 314.928 755.705 313.268V289.479L756.35 282.301ZM734.816 298.502V297.887C734.816 295.484 735.109 293.297 735.695 291.324C736.281 289.332 737.121 287.623 738.215 286.197C739.309 284.752 740.637 283.648 742.199 282.887C743.762 282.105 745.529 281.715 747.502 281.715C749.553 281.715 751.301 282.086 752.746 282.828C754.211 283.57 755.432 284.635 756.408 286.021C757.385 287.389 758.146 289.029 758.693 290.943C759.26 292.838 759.68 294.947 759.953 297.271V299.234C759.699 301.5 759.27 303.57 758.664 305.445C758.059 307.32 757.258 308.941 756.262 310.309C755.266 311.676 754.035 312.73 752.57 313.473C751.125 314.215 749.416 314.586 747.443 314.586C745.51 314.586 743.762 314.186 742.199 313.385C740.656 312.584 739.328 311.461 738.215 310.016C737.121 308.57 736.281 306.871 735.695 304.918C735.109 302.945 734.816 300.807 734.816 298.502ZM741.877 297.887V298.502C741.877 299.947 742.014 301.295 742.287 302.545C742.58 303.795 743.02 304.898 743.605 305.855C744.211 306.793 744.973 307.535 745.891 308.082C746.828 308.609 747.932 308.873 749.201 308.873C750.861 308.873 752.219 308.521 753.273 307.818C754.348 307.115 755.168 306.168 755.734 304.977C756.32 303.766 756.73 302.418 756.965 300.934V295.631C756.848 294.479 756.604 293.404 756.232 292.408C755.881 291.412 755.402 290.543 754.797 289.801C754.191 289.039 753.43 288.453 752.512 288.043C751.594 287.613 750.51 287.398 749.26 287.398C747.99 287.398 746.887 287.672 745.949 288.219C745.012 288.766 744.24 289.518 743.635 290.475C743.049 291.432 742.609 292.545 742.316 293.814C742.023 295.084 741.877 296.441 741.877 297.887Z" fill="#102042"/>
<path d="M793.088 271.344V314H785.734V271.344H793.088ZM810.49 290.006V295.836H791.213V290.006H810.49ZM812.922 271.344V277.203H791.213V271.344H812.922Z" fill="#102042"/>
<path d="M816.086 298.502V297.828C816.086 295.543 816.418 293.424 817.082 291.471C817.746 289.498 818.703 287.789 819.953 286.344C821.223 284.879 822.766 283.746 824.582 282.945C826.418 282.125 828.488 281.715 830.793 281.715C833.117 281.715 835.188 282.125 837.004 282.945C838.84 283.746 840.393 284.879 841.662 286.344C842.932 287.789 843.898 289.498 844.562 291.471C845.227 293.424 845.559 295.543 845.559 297.828V298.502C845.559 300.787 845.227 302.906 844.562 304.859C843.898 306.812 842.932 308.521 841.662 309.986C840.393 311.432 838.85 312.564 837.033 313.385C835.217 314.186 833.156 314.586 830.852 314.586C828.527 314.586 826.447 314.186 824.611 313.385C822.795 312.564 821.252 311.432 819.982 309.986C818.713 308.521 817.746 306.812 817.082 304.859C816.418 302.906 816.086 300.787 816.086 298.502ZM823.146 297.828V298.502C823.146 299.928 823.293 301.275 823.586 302.545C823.879 303.814 824.338 304.928 824.963 305.885C825.588 306.842 826.389 307.594 827.365 308.141C828.342 308.688 829.504 308.961 830.852 308.961C832.16 308.961 833.293 308.688 834.25 308.141C835.227 307.594 836.027 306.842 836.652 305.885C837.277 304.928 837.736 303.814 838.029 302.545C838.342 301.275 838.498 299.928 838.498 298.502V297.828C838.498 296.422 838.342 295.094 838.029 293.844C837.736 292.574 837.268 291.451 836.623 290.475C835.998 289.498 835.197 288.736 834.221 288.189C833.264 287.623 832.121 287.34 830.793 287.34C829.465 287.34 828.312 287.623 827.336 288.189C826.379 288.736 825.588 289.498 824.963 290.475C824.338 291.451 823.879 292.574 823.586 293.844C823.293 295.094 823.146 296.422 823.146 297.828Z" fill="#102042"/>
<path d="M858.566 288.336V314H851.506V282.301H858.244L858.566 288.336ZM868.264 282.096L868.205 288.658C867.775 288.58 867.307 288.521 866.799 288.482C866.311 288.443 865.822 288.424 865.334 288.424C864.123 288.424 863.059 288.6 862.141 288.951C861.223 289.283 860.451 289.771 859.826 290.416C859.221 291.041 858.752 291.803 858.42 292.701C858.088 293.6 857.893 294.605 857.834 295.719L856.223 295.836C856.223 293.844 856.418 291.998 856.809 290.299C857.199 288.6 857.785 287.105 858.566 285.816C859.367 284.527 860.363 283.521 861.555 282.799C862.766 282.076 864.162 281.715 865.744 281.715C866.174 281.715 866.633 281.754 867.121 281.832C867.629 281.91 868.01 281.998 868.264 282.096Z" fill="#102042"/>
<path d="M272.336 341.344H287.424C290.666 341.344 293.43 341.832 295.715 342.809C298 343.785 299.748 345.23 300.959 347.145C302.189 349.039 302.805 351.383 302.805 354.176C302.805 356.305 302.414 358.18 301.633 359.801C300.852 361.422 299.748 362.789 298.322 363.902C296.896 364.996 295.197 365.846 293.225 366.451L290.998 367.535H277.434L277.375 361.705H287.541C289.299 361.705 290.764 361.393 291.936 360.768C293.107 360.143 293.986 359.293 294.572 358.219C295.178 357.125 295.48 355.895 295.48 354.527C295.48 353.043 295.188 351.754 294.602 350.66C294.035 349.547 293.156 348.697 291.965 348.111C290.773 347.506 289.26 347.203 287.424 347.203H279.689V384H272.336V341.344ZM296.682 384L286.662 364.84L294.367 364.811L304.533 383.619V384H296.682Z" fill="#102042"/>
<path d="M323.4 384.586C321.057 384.586 318.938 384.205 317.043 383.443C315.168 382.662 313.566 381.578 312.238 380.191C310.93 378.805 309.924 377.174 309.221 375.299C308.518 373.424 308.166 371.402 308.166 369.234V368.062C308.166 365.582 308.527 363.336 309.25 361.324C309.973 359.312 310.979 357.594 312.268 356.168C313.557 354.723 315.08 353.619 316.838 352.857C318.596 352.096 320.5 351.715 322.551 351.715C324.816 351.715 326.799 352.096 328.498 352.857C330.197 353.619 331.604 354.693 332.717 356.08C333.85 357.447 334.689 359.078 335.236 360.973C335.803 362.867 336.086 364.957 336.086 367.242V370.26H311.594V365.191H329.113V364.635C329.074 363.365 328.82 362.174 328.352 361.061C327.902 359.947 327.209 359.049 326.271 358.365C325.334 357.682 324.084 357.34 322.521 357.34C321.35 357.34 320.305 357.594 319.387 358.102C318.488 358.59 317.736 359.303 317.131 360.24C316.525 361.178 316.057 362.311 315.725 363.639C315.412 364.947 315.256 366.422 315.256 368.062V369.234C315.256 370.621 315.441 371.91 315.812 373.102C316.203 374.273 316.77 375.299 317.512 376.178C318.254 377.057 319.152 377.75 320.207 378.258C321.262 378.746 322.463 378.99 323.811 378.99C325.51 378.99 327.023 378.648 328.352 377.965C329.68 377.281 330.832 376.314 331.809 375.064L335.529 378.668C334.846 379.664 333.957 380.621 332.863 381.539C331.77 382.438 330.432 383.17 328.85 383.736C327.287 384.303 325.471 384.586 323.4 384.586Z" fill="#102042"/>
<path d="M354.543 378.961C355.695 378.961 356.73 378.736 357.648 378.287C358.586 377.818 359.338 377.174 359.904 376.354C360.49 375.533 360.812 374.586 360.871 373.512H367.521C367.482 375.562 366.877 377.428 365.705 379.107C364.533 380.787 362.98 382.125 361.047 383.121C359.113 384.098 356.975 384.586 354.631 384.586C352.209 384.586 350.1 384.176 348.303 383.355C346.506 382.516 345.012 381.363 343.82 379.898C342.629 378.434 341.73 376.744 341.125 374.83C340.539 372.916 340.246 370.865 340.246 368.678V367.652C340.246 365.465 340.539 363.414 341.125 361.5C341.73 359.566 342.629 357.867 343.82 356.402C345.012 354.938 346.506 353.795 348.303 352.975C350.1 352.135 352.199 351.715 354.602 351.715C357.141 351.715 359.367 352.223 361.281 353.238C363.195 354.234 364.699 355.631 365.793 357.428C366.906 359.205 367.482 361.275 367.521 363.639H360.871C360.812 362.467 360.52 361.412 359.992 360.475C359.484 359.518 358.762 358.756 357.824 358.189C356.906 357.623 355.803 357.34 354.514 357.34C353.088 357.34 351.906 357.633 350.969 358.219C350.031 358.785 349.299 359.566 348.771 360.562C348.244 361.539 347.863 362.643 347.629 363.873C347.414 365.084 347.307 366.344 347.307 367.652V368.678C347.307 369.986 347.414 371.256 347.629 372.486C347.844 373.717 348.215 374.82 348.742 375.797C349.289 376.754 350.031 377.525 350.969 378.111C351.906 378.678 353.098 378.961 354.543 378.961Z" fill="#102042"/>
<path d="M380.031 358.336V384H372.971V352.301H379.709L380.031 358.336ZM389.729 352.096L389.67 358.658C389.24 358.58 388.771 358.521 388.264 358.482C387.775 358.443 387.287 358.424 386.799 358.424C385.588 358.424 384.523 358.6 383.605 358.951C382.688 359.283 381.916 359.771 381.291 360.416C380.686 361.041 380.217 361.803 379.885 362.701C379.553 363.6 379.357 364.605 379.299 365.719L377.688 365.836C377.688 363.844 377.883 361.998 378.273 360.299C378.664 358.6 379.25 357.105 380.031 355.816C380.832 354.527 381.828 353.521 383.02 352.799C384.23 352.076 385.627 351.715 387.209 351.715C387.639 351.715 388.098 351.754 388.586 351.832C389.094 351.91 389.475 351.998 389.729 352.096Z" fill="#102042"/>
<path d="M413.225 376.529V352.301H420.314V384H413.635L413.225 376.529ZM414.221 369.938L416.594 369.879C416.594 372.008 416.359 373.971 415.891 375.768C415.422 377.545 414.699 379.098 413.723 380.426C412.746 381.734 411.496 382.76 409.973 383.502C408.449 384.225 406.623 384.586 404.494 384.586C402.951 384.586 401.535 384.361 400.246 383.912C398.957 383.463 397.844 382.77 396.906 381.832C395.988 380.895 395.275 379.674 394.768 378.17C394.26 376.666 394.006 374.869 394.006 372.779V352.301H401.066V372.838C401.066 373.99 401.203 374.957 401.477 375.738C401.75 376.5 402.121 377.115 402.59 377.584C403.059 378.053 403.605 378.385 404.23 378.58C404.855 378.775 405.52 378.873 406.223 378.873C408.234 378.873 409.816 378.482 410.969 377.701C412.141 376.9 412.971 375.826 413.459 374.479C413.967 373.131 414.221 371.617 414.221 369.938Z" fill="#102042"/>
<path d="M435.109 352.301V384H428.02V352.301H435.109ZM427.551 343.98C427.551 342.906 427.902 342.018 428.605 341.314C429.328 340.592 430.324 340.23 431.594 340.23C432.844 340.23 433.83 340.592 434.553 341.314C435.275 342.018 435.637 342.906 435.637 343.98C435.637 345.035 435.275 345.914 434.553 346.617C433.83 347.32 432.844 347.672 431.594 347.672C430.324 347.672 429.328 347.32 428.605 346.617C427.902 345.914 427.551 345.035 427.551 343.98Z" fill="#102042"/>
<path d="M457.375 352.301V357.457H439.504V352.301H457.375ZM444.66 344.537H451.721V375.24C451.721 376.217 451.857 376.969 452.131 377.496C452.424 378.004 452.824 378.346 453.332 378.521C453.84 378.697 454.436 378.785 455.119 378.785C455.607 378.785 456.076 378.756 456.525 378.697C456.975 378.639 457.336 378.58 457.609 378.521L457.639 383.912C457.053 384.088 456.369 384.244 455.588 384.381C454.826 384.518 453.947 384.586 452.951 384.586C451.33 384.586 449.895 384.303 448.645 383.736C447.395 383.15 446.418 382.203 445.715 380.895C445.012 379.586 444.66 377.848 444.66 375.68V344.537Z" fill="#102042"/>
<path d="M470.383 352.301V384H463.293V352.301H470.383ZM462.824 343.98C462.824 342.906 463.176 342.018 463.879 341.314C464.602 340.592 465.598 340.23 466.867 340.23C468.117 340.23 469.104 340.592 469.826 341.314C470.549 342.018 470.91 342.906 470.91 343.98C470.91 345.035 470.549 345.914 469.826 346.617C469.104 347.32 468.117 347.672 466.867 347.672C465.598 347.672 464.602 347.32 463.879 346.617C463.176 345.914 462.824 345.035 462.824 343.98Z" fill="#102042"/>
<path d="M485.119 359.068V384H478.059V352.301H484.709L485.119 359.068ZM483.859 366.979L481.574 366.949C481.594 364.703 481.906 362.643 482.512 360.768C483.137 358.893 483.996 357.281 485.09 355.934C486.203 354.586 487.531 353.551 489.074 352.828C490.617 352.086 492.336 351.715 494.23 351.715C495.754 351.715 497.131 351.93 498.361 352.359C499.611 352.77 500.676 353.443 501.555 354.381C502.453 355.318 503.137 356.539 503.605 358.043C504.074 359.527 504.309 361.354 504.309 363.521V384H497.219V363.492C497.219 361.969 496.994 360.768 496.545 359.889C496.115 358.99 495.48 358.355 494.641 357.984C493.82 357.594 492.795 357.398 491.564 357.398C490.354 357.398 489.27 357.652 488.312 358.16C487.355 358.668 486.545 359.361 485.881 360.24C485.236 361.119 484.738 362.135 484.387 363.287C484.035 364.439 483.859 365.67 483.859 366.979Z" fill="#102042"/>
<path d="M531.818 352.301H538.234V383.121C538.234 385.973 537.629 388.395 536.418 390.387C535.207 392.379 533.518 393.893 531.35 394.928C529.182 395.982 526.672 396.51 523.82 396.51C522.609 396.51 521.262 396.334 519.777 395.982C518.312 395.631 516.887 395.064 515.5 394.283C514.133 393.521 512.99 392.516 512.072 391.266L515.383 387.105C516.516 388.453 517.766 389.439 519.133 390.064C520.5 390.689 521.936 391.002 523.439 391.002C525.061 391.002 526.438 390.699 527.57 390.094C528.723 389.508 529.611 388.639 530.236 387.486C530.861 386.334 531.174 384.928 531.174 383.268V359.479L531.818 352.301ZM510.285 368.502V367.887C510.285 365.484 510.578 363.297 511.164 361.324C511.75 359.332 512.59 357.623 513.684 356.197C514.777 354.752 516.105 353.648 517.668 352.887C519.23 352.105 520.998 351.715 522.971 351.715C525.021 351.715 526.77 352.086 528.215 352.828C529.68 353.57 530.9 354.635 531.877 356.021C532.854 357.389 533.615 359.029 534.162 360.943C534.729 362.838 535.148 364.947 535.422 367.271V369.234C535.168 371.5 534.738 373.57 534.133 375.445C533.527 377.32 532.727 378.941 531.73 380.309C530.734 381.676 529.504 382.73 528.039 383.473C526.594 384.215 524.885 384.586 522.912 384.586C520.979 384.586 519.23 384.186 517.668 383.385C516.125 382.584 514.797 381.461 513.684 380.016C512.59 378.57 511.75 376.871 511.164 374.918C510.578 372.945 510.285 370.807 510.285 368.502ZM517.346 367.887V368.502C517.346 369.947 517.482 371.295 517.756 372.545C518.049 373.795 518.488 374.898 519.074 375.855C519.68 376.793 520.441 377.535 521.359 378.082C522.297 378.609 523.4 378.873 524.67 378.873C526.33 378.873 527.688 378.521 528.742 377.818C529.816 377.115 530.637 376.168 531.203 374.977C531.789 373.766 532.199 372.418 532.434 370.934V365.631C532.316 364.479 532.072 363.404 531.701 362.408C531.35 361.412 530.871 360.543 530.266 359.801C529.66 359.039 528.898 358.453 527.98 358.043C527.062 357.613 525.979 357.398 524.729 357.398C523.459 357.398 522.355 357.672 521.418 358.219C520.48 358.766 519.709 359.518 519.104 360.475C518.518 361.432 518.078 362.545 517.785 363.814C517.492 365.084 517.346 366.441 517.346 367.887Z" fill="#102042"/>
<path d="M577.346 341.344V384H570.051V341.344H577.346ZM590.734 341.344V347.203H556.779V341.344H590.734Z" fill="#102042"/>
<path d="M606.818 384.586C604.475 384.586 602.355 384.205 600.461 383.443C598.586 382.662 596.984 381.578 595.656 380.191C594.348 378.805 593.342 377.174 592.639 375.299C591.936 373.424 591.584 371.402 591.584 369.234V368.062C591.584 365.582 591.945 363.336 592.668 361.324C593.391 359.312 594.396 357.594 595.686 356.168C596.975 354.723 598.498 353.619 600.256 352.857C602.014 352.096 603.918 351.715 605.969 351.715C608.234 351.715 610.217 352.096 611.916 352.857C613.615 353.619 615.021 354.693 616.135 356.08C617.268 357.447 618.107 359.078 618.654 360.973C619.221 362.867 619.504 364.957 619.504 367.242V370.26H595.012V365.191H612.531V364.635C612.492 363.365 612.238 362.174 611.77 361.061C611.32 359.947 610.627 359.049 609.689 358.365C608.752 357.682 607.502 357.34 605.939 357.34C604.768 357.34 603.723 357.594 602.805 358.102C601.906 358.59 601.154 359.303 600.549 360.24C599.943 361.178 599.475 362.311 599.143 363.639C598.83 364.947 598.674 366.422 598.674 368.062V369.234C598.674 370.621 598.859 371.91 599.23 373.102C599.621 374.273 600.188 375.299 600.93 376.178C601.672 377.057 602.57 377.75 603.625 378.258C604.68 378.746 605.881 378.99 607.229 378.99C608.928 378.99 610.441 378.648 611.77 377.965C613.098 377.281 614.25 376.314 615.227 375.064L618.947 378.668C618.264 379.664 617.375 380.621 616.281 381.539C615.188 382.438 613.85 383.17 612.268 383.736C610.705 384.303 608.889 384.586 606.818 384.586Z" fill="#102042"/>
<path d="M642.883 377.643V362.525C642.883 361.393 642.678 360.416 642.268 359.596C641.857 358.775 641.232 358.141 640.393 357.691C639.572 357.242 638.537 357.018 637.287 357.018C636.135 357.018 635.139 357.213 634.299 357.604C633.459 357.994 632.805 358.521 632.336 359.186C631.867 359.85 631.633 360.602 631.633 361.441H624.602C624.602 360.191 624.904 358.98 625.51 357.809C626.115 356.637 626.994 355.592 628.146 354.674C629.299 353.756 630.676 353.033 632.277 352.506C633.879 351.979 635.676 351.715 637.668 351.715C640.051 351.715 642.16 352.115 643.996 352.916C645.852 353.717 647.307 354.928 648.361 356.549C649.436 358.15 649.973 360.162 649.973 362.584V376.676C649.973 378.121 650.07 379.42 650.266 380.572C650.48 381.705 650.783 382.691 651.174 383.531V384H643.938C643.605 383.238 643.342 382.271 643.146 381.1C642.971 379.908 642.883 378.756 642.883 377.643ZM643.908 364.723L643.967 369.088H638.898C637.59 369.088 636.438 369.215 635.441 369.469C634.445 369.703 633.615 370.055 632.951 370.523C632.287 370.992 631.789 371.559 631.457 372.223C631.125 372.887 630.959 373.639 630.959 374.479C630.959 375.318 631.154 376.09 631.545 376.793C631.936 377.477 632.502 378.014 633.244 378.404C634.006 378.795 634.924 378.99 635.998 378.99C637.443 378.99 638.703 378.697 639.777 378.111C640.871 377.506 641.73 376.773 642.355 375.914C642.98 375.035 643.312 374.205 643.352 373.424L645.637 376.559C645.402 377.359 645.002 378.219 644.436 379.137C643.869 380.055 643.127 380.934 642.209 381.773C641.311 382.594 640.227 383.268 638.957 383.795C637.707 384.322 636.262 384.586 634.621 384.586C632.551 384.586 630.705 384.176 629.084 383.355C627.463 382.516 626.193 381.393 625.275 379.986C624.357 378.561 623.898 376.949 623.898 375.152C623.898 373.473 624.211 371.988 624.836 370.699C625.48 369.391 626.418 368.297 627.648 367.418C628.898 366.539 630.422 365.875 632.219 365.426C634.016 364.957 636.066 364.723 638.371 364.723H643.908Z" fill="#102042"/>
<path d="M664.416 358.746V384H657.355V352.301H664.006L664.416 358.746ZM663.273 366.979L660.871 366.949C660.871 364.762 661.145 362.74 661.691 360.885C662.238 359.029 663.039 357.418 664.094 356.051C665.148 354.664 666.457 353.6 668.02 352.857C669.602 352.096 671.428 351.715 673.498 351.715C674.943 351.715 676.262 351.93 677.453 352.359C678.664 352.77 679.709 353.424 680.588 354.322C681.486 355.221 682.17 356.373 682.639 357.779C683.127 359.186 683.371 360.885 683.371 362.877V384H676.311V363.492C676.311 361.949 676.076 360.738 675.607 359.859C675.158 358.98 674.504 358.355 673.645 357.984C672.805 357.594 671.799 357.398 670.627 357.398C669.299 357.398 668.166 357.652 667.229 358.16C666.311 358.668 665.559 359.361 664.973 360.24C664.387 361.119 663.957 362.135 663.684 363.287C663.41 364.439 663.273 365.67 663.273 366.979ZM682.932 365.104L679.621 365.836C679.621 363.922 679.885 362.115 680.412 360.416C680.959 358.697 681.75 357.193 682.785 355.904C683.84 354.596 685.139 353.57 686.682 352.828C688.225 352.086 689.992 351.715 691.984 351.715C693.605 351.715 695.051 351.939 696.32 352.389C697.609 352.818 698.703 353.502 699.602 354.439C700.5 355.377 701.184 356.598 701.652 358.102C702.121 359.586 702.355 361.383 702.355 363.492V384H695.266V363.463C695.266 361.861 695.031 360.621 694.562 359.742C694.113 358.863 693.469 358.258 692.629 357.926C691.789 357.574 690.783 357.398 689.611 357.398C688.518 357.398 687.551 357.604 686.711 358.014C685.891 358.404 685.197 358.961 684.631 359.684C684.064 360.387 683.635 361.197 683.342 362.115C683.068 363.033 682.932 364.029 682.932 365.104Z" fill="#102042"/>
<text fill="#898F9B" xml:space="preserve" style="white-space: pre" font-family="Roboto" font-size="24" letter-spacing="0em"><tspan x="268" y="445.203">Free online interview scheduling software </tspan><tspan x="268" y="473.203">with interview types, interview types &#38; </tspan><tspan x="268" y="501.203">Team management.&#10;</tspan></text>
</g>
<rect x="0.5" y="0.5" width="1511" height="981" rx="31.5" stroke="#CBD4E6"/>
<defs>
<filter id="filter0_d_548_7896" x="-4" y="0" width="1520" height="104" filterUnits="userSpaceOnUse" color-interpolation-filters="sRGB">
<feFlood flood-opacity="0" result="BackgroundImageFix"/>
<feColorMatrix in="SourceAlpha" type="matrix" values="0 0 0 0 0 0 0 0 0 0 0 0 0 0 0 0 0 0 127 0" result="hardAlpha"/>
<feOffset dy="4"/>
<feGaussianBlur stdDeviation="2"/>
<feComposite in2="hardAlpha" operator="out"/>
<feColorMatrix type="matrix" values="0 0 0 0 0.780392 0 0 0 0 0.780392 0 0 0 0 0.780392 0 0 0 0.25 0"/>
<feBlend mode="normal" in2="BackgroundImageFix" result="effect1_dropShadow_548_7896"/>
<feBlend mode="normal" in="SourceGraphic" in2="effect1_dropShadow_548_7896" result="shape"/>
</filter>
<filter id="filter1_d_548_7896" x="260" y="550" width="405" height="74" filterUnits="userSpaceOnUse" color-interpolation-filters="sRGB">
<feFlood flood-opacity="0" result="BackgroundImageFix"/>
<feColorMatrix in="SourceAlpha" type="matrix" values="0 0 0 0 0 0 0 0 0 0 0 0 0 0 0 0 0 0 127 0" result="hardAlpha"/>
<feOffset dx="5" dy="6"/>
<feGaussianBlur stdDeviation="6"/>
<feComposite in2="hardAlpha" operator="out"/>
<feColorMatrix type="matrix" values="0 0 0 0 0.603922 0 0 0 0 0.658824 0 0 0 0 0.780392 0 0 0 0.37 0"/>
<feBlend mode="normal" in2="BackgroundImageFix" result="effect1_dropShadow_548_7896"/>
<feBlend mode="normal" in="SourceGraphic" in2="effect1_dropShadow_548_7896" result="shape"/>
</filter>
<clipPath id="clip0_548_7896">
<rect width="1512" height="982" rx="32" fill="white"/>
</clipPath>
</defs>
</svg>
