<svg width="44" height="44" viewBox="0 0 44 44" fill="none" xmlns="http://www.w3.org/2000/svg">
<path d="M0 12C0 5.37258 5.37258 0 12 0H32C38.6274 0 44 5.37258 44 12V32C44 38.6274 38.6274 44 32 44H12C5.37258 44 0 38.6274 0 32V12Z" fill="#F5F8FA"/>
<path d="M20.5992 29.3065C25.3484 29.3065 29.1984 25.4323 29.1984 20.6532C29.1984 15.8742 25.3484 12 20.5992 12C15.85 12 12 15.8742 12 20.6532C12 25.4323 15.85 29.3065 20.5992 29.3065Z" fill="#5384ED"/>
<path opacity="0.4" d="M30.6746 31.9553C30.3406 31.9445 30.0229 31.807 29.7854 31.5705L27.7489 29.1902C27.3123 28.7909 27.2766 28.1123 27.6689 27.6689V27.6689C27.8525 27.4831 28.1021 27.3787 28.3625 27.3787C28.6229 27.3787 28.8725 27.4831 29.0562 27.6689L31.6172 29.7181C31.9862 30.0957 32.1 30.6563 31.9079 31.1492C31.7158 31.6422 31.2536 31.9754 30.728 32L30.6746 31.9553Z" fill="#5384ED"/>
</svg>
