<svg width="44" height="44" viewBox="0 0 44 44" fill="none" xmlns="http://www.w3.org/2000/svg">
<path d="M0 12C0 5.37258 5.37258 0 12 0H32C38.6274 0 44 5.37258 44 12V32C44 38.6274 38.6274 44 32 44H12C5.37258 44 0 38.6274 0 32V12Z" fill="#F5F8FA"/>
<path d="M26.19 12H17.81C14.17 12 12 14.17 12 17.81V26.18C12 29.83 14.17 32 17.81 32H26.18C29.82 32 31.99 29.83 31.99 26.19V17.81C32 14.17 29.83 12 26.19 12ZM20.49 26.72C20.15 27.06 19.7 27.29 19.15 27.36L17.8 27.51C17.06 27.59 16.43 26.96 16.51 26.21L16.66 24.85C16.79 23.64 17.8 22.87 18.87 22.85C18.97 22.84 19.09 22.85 19.2 22.86C19.67 22.92 20.12 23.14 20.5 23.51C20.87 23.88 21.08 24.32 21.14 24.77C21.15 24.88 21.16 24.99 21.16 25.09C21.16 25.71 20.93 26.28 20.49 26.72ZM27.44 17.55C26.72 19.35 25.07 21.71 23.5 23.25C23.27 21.83 22.14 20.71 20.7 20.51C22.24 18.93 24.62 17.26 26.43 16.53C26.75 16.41 27.07 16.5 27.27 16.7C27.47 16.92 27.57 17.23 27.44 17.55Z" fill="#5384ED"/>
</svg>
