<svg width="82" height="82" viewBox="0 0 82 82" fill="none" xmlns="http://www.w3.org/2000/svg">
<path d="M61.4999 24.4634C61.2949 24.4292 61.0558 24.4292 60.8508 24.4634C56.1358 24.2926 52.3774 20.4317 52.3774 15.6484C52.3774 10.7625 56.3066 6.83337 61.1924 6.83337C66.0783 6.83337 70.0074 10.7967 70.0074 15.6484C69.9733 20.4317 66.2149 24.2926 61.4999 24.4634Z" stroke="#B5B5C3" stroke-width="6" stroke-linecap="round" stroke-linejoin="round"/>
<path d="M57.9809 49.3368C62.6618 50.1226 67.8209 49.3026 71.4426 46.8768C76.2601 43.6651 76.2601 38.4034 71.4426 35.1918C67.7868 32.7659 62.5593 31.9459 57.8784 32.7659" stroke="#B5B5C3" stroke-width="6" stroke-linecap="round" stroke-linejoin="round"/>
<path d="M20.3976 24.4634C20.6026 24.4292 20.8418 24.4292 21.0468 24.4634C25.7618 24.2926 29.5201 20.4317 29.5201 15.6484C29.5201 10.7625 25.591 6.83337 20.7051 6.83337C15.8193 6.83337 11.8901 10.7967 11.8901 15.6484C11.9243 20.4317 15.6826 24.2926 20.3976 24.4634Z" stroke="#B5B5C3" stroke-width="6" stroke-linecap="round" stroke-linejoin="round"/>
<path d="M23.9166 49.3368C19.2358 50.1226 14.0766 49.3026 10.4549 46.8768C5.63742 43.6651 5.63742 38.4034 10.4549 35.1918C14.1108 32.7659 19.3382 31.9459 24.0191 32.7659" stroke="#B5B5C3" stroke-width="6" stroke-linecap="round" stroke-linejoin="round"/>
<path d="M40.9999 49.9858C40.7949 49.9517 40.5558 49.9517 40.3508 49.9858C35.6358 49.815 31.8774 45.9542 31.8774 41.1708C31.8774 36.285 35.8066 32.3558 40.6924 32.3558C45.5783 32.3558 49.5074 36.3192 49.5074 41.1708C49.4733 45.9542 45.7149 49.8492 40.9999 49.9858Z" stroke="#B5B5C3" stroke-width="6" stroke-linecap="round" stroke-linejoin="round"/>
<path d="M31.0575 60.7484C26.24 63.96 26.24 69.2217 31.0575 72.4333C36.5241 76.0892 45.4758 76.0892 50.9425 72.4333C55.76 69.2217 55.76 63.96 50.9425 60.7484C45.51 57.1267 36.5241 57.1267 31.0575 60.7484Z" stroke="#B5B5C3" stroke-width="6" stroke-linecap="round" stroke-linejoin="round"/>
</svg>
