<svg width="42" height="44" viewBox="0 0 42 44" fill="none" xmlns="http://www.w3.org/2000/svg">
<path d="M0 12C0 5.37258 5.37258 0 12 0H30C36.6274 0 42 5.37258 42 12V32C42 38.6274 36.6274 44 30 44H12C5.37258 44 0 38.6274 0 32V12Z" fill="#F5F8FA"/>
<path opacity="0.4" fill-rule="evenodd" clip-rule="evenodd" d="M17.947 15.0815H24.0897V13.6513H17.947V15.0815ZM16.5497 13.71V13.7172C16.0701 13.7608 15.5958 13.856 15.1343 13.9993V13.994C15.1206 13.9997 15.1077 14.0042 15.0953 14.0084C15.079 14.014 15.0636 14.0193 15.0485 14.0269C15.0116 14.0358 14.9756 14.0491 14.9413 14.066C14.8401 14.099 14.7388 14.1381 14.6436 14.1782C14.6183 14.188 14.593 14.1993 14.5677 14.2107L14.5677 14.2107L14.5677 14.2107C14.5424 14.222 14.5171 14.2334 14.4918 14.2432C14.4571 14.2596 14.4208 14.2776 14.3846 14.2957L14.3846 14.2957L14.3846 14.2957C14.3483 14.3137 14.3121 14.3317 14.2774 14.3482L14.1058 14.447C14.0741 14.4631 14.0447 14.4821 14.0148 14.5015C13.9969 14.513 13.9789 14.5247 13.96 14.536C13.7018 14.7024 13.4624 14.8973 13.2463 15.1189L13.2334 15.1323C13.205 15.1654 13.1768 15.1975 13.1489 15.2291C13.1018 15.2826 13.0557 15.3349 13.0121 15.3886L12.9992 15.401C12.2976 16.3693 11.9459 17.5628 12.0068 18.7723V19.1559H13.3921V18.7688C13.3921 17.0831 13.9291 16.0338 15.124 15.4963C15.5803 15.3031 16.0624 15.1839 16.5531 15.1403H16.566V13.7163L16.5497 13.71ZM28.998 15.3832L29.004 15.3957C29.7048 16.3649 30.0548 17.5593 29.993 18.7688V19.1559H28.6085V18.759C28.6377 18.0452 28.4945 17.335 28.1908 16.6933C27.8991 16.1442 27.4325 15.7179 26.8689 15.4865C26.4203 15.2933 25.9451 15.1732 25.4604 15.1305V13.7136C25.9399 13.7581 26.4143 13.8524 26.8767 13.9957V13.9886C26.9026 14.0004 26.9225 14.0074 26.9565 14.0194L26.9624 14.0215C26.9782 14.0271 26.993 14.0327 27.0075 14.0382C27.0278 14.0459 27.0477 14.0535 27.0697 14.0607C27.1645 14.0918 27.2532 14.1285 27.3445 14.1662L27.3605 14.1728C27.4026 14.1876 27.4422 14.206 27.478 14.2225C27.4896 14.2279 27.5007 14.233 27.5114 14.2378C27.5869 14.2707 27.6641 14.3099 27.7259 14.3428C27.7671 14.3642 27.8072 14.3871 27.8448 14.4085C27.8652 14.4201 27.8848 14.4313 27.9034 14.4416C27.9342 14.4586 27.9609 14.4768 27.9866 14.4942C28.0054 14.507 28.0236 14.5193 28.0424 14.5306C28.3015 14.6979 28.5434 14.8937 28.7621 15.1136L28.7698 15.1269C28.8504 15.2079 28.9268 15.2933 28.998 15.3832Z" fill="#5384ED"/>
<path d="M25.5 12.7169V15.8685C25.5 16.2655 25.1778 16.5872 24.78 16.5872C24.3822 16.5872 24.06 16.2655 24.06 15.8685V12.7241C24.0564 12.327 24.3768 12.0027 24.7746 12C25.1724 11.9973 25.4973 12.3162 25.5 12.7133V12.7169Z" fill="#5384ED"/>
<path d="M17.94 12.7283V15.8721C17.94 16.2709 17.6174 16.5942 17.2196 16.5942C16.8217 16.5942 16.5 16.2709 16.5 15.8721V12.7283C16.5 12.3295 16.8217 12.0071 17.2196 12.0071C17.6174 12.0071 17.94 12.3295 17.94 12.7283" fill="#5384ED"/>
<path fill-rule="evenodd" clip-rule="evenodd" d="M12 26.9101V19.1559H30V26.9101C30 30.2915 28.1116 32 24.3691 32H17.6223C13.8884 32 12 30.2915 12 26.9101ZM16.0601 23.4667C16.0601 23.9359 16.4292 24.3165 16.8841 24.3165C17.3476 24.3165 17.7167 23.927 17.7082 23.4579C17.7082 22.9887 17.3391 22.6081 16.8927 22.6081H16.8841C16.4292 22.6081 16.0601 22.9976 16.0601 23.4667ZM20.1717 23.4667C20.1717 23.9359 20.5494 24.3165 21.0043 24.3165C21.4592 24.3165 21.8283 23.9359 21.8283 23.4579C21.8283 22.9976 21.4592 22.617 21.0043 22.6081H20.9957C20.5408 22.617 20.1717 22.9976 20.1717 23.4667ZM25.1159 24.3165C24.6609 24.3165 24.2918 23.9359 24.2918 23.4667C24.2918 22.9976 24.6524 22.617 25.1159 22.617C25.5708 22.617 25.9399 22.9976 25.9399 23.4667C25.9399 23.9359 25.5708 24.3165 25.1159 24.3165ZM25.1159 27.9458C24.6609 27.9458 24.2918 27.5652 24.2833 27.096C24.2833 26.6269 24.6524 26.2462 25.1073 26.2462H25.1159C25.5708 26.2462 25.9399 26.6269 25.9399 27.096C25.9399 27.5652 25.5708 27.9458 25.1159 27.9458ZM21.0043 27.9458C20.5494 27.9458 20.1717 27.5652 20.1717 27.096C20.1717 26.6269 20.5408 26.2462 20.9957 26.2374H21.0043C21.4592 26.2462 21.8197 26.6269 21.8283 27.0872C21.8283 27.5652 21.4592 27.9458 21.0043 27.9458ZM16.8841 27.9458C16.4292 27.9458 16.0601 27.5652 16.0601 27.096C16.0515 26.6269 16.4206 26.2374 16.8841 26.2374C17.3391 26.2374 17.7082 26.618 17.7082 27.0872C17.7082 27.5563 17.3391 27.9458 16.8841 27.9458Z" fill="#5384ED"/>
</svg>
