<svg width="48" height="48" viewBox="0 0 48 48" fill="none" xmlns="http://www.w3.org/2000/svg">
<rect width="48" height="48" rx="12" fill="#F5F8FA"/>
<path opacity="0.4" d="M24.0001 25.1111C27.1067 25.1111 29.6252 22.6238 29.6252 19.5556C29.6252 16.4873 27.1067 14 24.0001 14C20.8934 14 18.375 16.4873 18.375 19.5556C18.375 22.6238 20.8934 25.1111 24.0001 25.1111Z" fill="#5384ED"/>
<path d="M32.9902 30.6758V30.6758C32.9953 30.5968 32.9953 30.5175 32.9902 30.4384C32.968 30.1462 32.8851 29.8608 32.7461 29.5982C32.1993 28.5297 30.6663 28.0457 29.3871 27.7717C28.4745 27.5817 27.5472 27.4596 26.6139 27.4064L25.6375 27.3334H25.1981H24.6512H23.3428H22.796H22.3566L21.3801 27.4064C20.4469 27.4596 19.5196 27.5817 18.607 27.7717C17.3278 28.0092 15.7947 28.5023 15.2479 29.5982C15.109 29.8608 15.0261 30.1462 15.0038 30.4384C14.9987 30.5175 14.9987 30.5968 15.0038 30.6758V30.6758C14.9991 30.7549 14.9991 30.8342 15.0038 30.9133C15.0304 31.203 15.1166 31.4852 15.2577 31.7443C15.8045 32.8128 17.3376 33.2968 18.6167 33.5708C19.531 33.7519 20.4576 33.874 21.3899 33.9361L22.3663 34H22.6007H22.8057H25.2078H25.4129H25.6472L26.6237 33.9361C27.5559 33.874 28.4825 33.7519 29.3969 33.5708C30.676 33.3242 32.2091 32.8402 32.7559 31.7443C32.8904 31.477 32.9731 31.1894 33 30.895C33.0012 30.8218 32.998 30.7487 32.9902 30.6758Z" fill="#5384ED"/>
</svg>
