<svg width="48" height="48" viewBox="0 0 48 48" fill="none" xmlns="http://www.w3.org/2000/svg">
<path d="M0 12C0 5.37258 5.37258 0 12 0H36C42.6274 0 48 5.37258 48 12V36C48 42.6274 42.6274 48 36 48H12C5.37258 48 0 42.6274 0 36V12Z" fill="#F5F8FA"/>
<path d="M32.19 26.06L31.06 24.18C30.81 23.77 30.59 22.98 30.59 22.5V20.63C30.59 17 27.64 14.05 24.02 14.05C20.39 14.06 17.44 17 17.44 20.63V22.49C17.44 22.97 17.22 23.76 16.98 24.17L15.85 26.05C15.42 26.78 15.32 27.61 15.59 28.33C15.86 29.06 16.47 29.64 17.27 29.9C18.35 30.26 19.44 30.52 20.55 30.71C20.66 30.73 20.77 30.74 20.88 30.76C21.02 30.78 21.17 30.8 21.32 30.82C21.58 30.86 21.84 30.89 22.11 30.91C22.74 30.97 23.38 31 24.02 31C24.65 31 25.28 30.97 25.9 30.91C26.13 30.89 26.36 30.87 26.58 30.84C26.76 30.82 26.94 30.8 27.12 30.77C27.23 30.76 27.34 30.74 27.45 30.72C28.57 30.54 29.68 30.26 30.76 29.9C31.53 29.64 32.12 29.06 32.4 28.32C32.68 27.57 32.6 26.75 32.19 26.06ZM24.75 22C24.75 22.42 24.41 22.76 23.99 22.76C23.57 22.76 23.23 22.42 23.23 22V18.9C23.23 18.48 23.57 18.14 23.99 18.14C24.41 18.14 24.75 18.48 24.75 18.9V22Z" fill="#5384ED"/>
<path opacity="0.4" d="M26.83 32.01C26.41 33.17 25.3 34 24 34C23.21 34 22.43 33.68 21.88 33.11C21.56 32.81 21.32 32.41 21.18 32C21.31 32.02 21.44 32.03 21.58 32.05C21.81 32.08 22.05 32.11 22.29 32.13C22.86 32.18 23.44 32.21 24.02 32.21C24.59 32.21 25.16 32.18 25.72 32.13C25.93 32.11 26.14 32.1 26.34 32.07C26.5 32.05 26.66 32.03 26.83 32.01Z" fill="#5384ED"/>
</svg>
