<svg width="48" height="48" viewBox="0 0 48 48" fill="none" xmlns="http://www.w3.org/2000/svg">
<path d="M0 12C0 5.37258 5.37258 0 12 0H36C42.6274 0 48 5.37258 48 12V36C48 42.6274 42.6274 48 36 48H12C5.37258 48 0 42.6274 0 36V12Z" fill="#F5F8FA"/>
<path d="M32.36 24.73C31.99 24.73 31.68 24.45 31.64 24.08C31.4 21.88 30.22 19.9 28.4 18.64C28.07 18.41 27.99 17.96 28.22 17.63C28.45 17.3 28.9 17.22 29.23 17.45C31.4 18.96 32.8 21.32 33.09 23.93C33.13 24.33 32.84 24.69 32.44 24.73C32.41 24.73 32.39 24.73 32.36 24.73Z" fill="#5384ED"/>
<path d="M15.74 24.78C15.72 24.78 15.69 24.78 15.67 24.78C15.27 24.74 14.98 24.38 15.02 23.98C15.29 21.37 16.67 19.01 18.82 17.49C19.14 17.26 19.6 17.34 19.83 17.66C20.06 17.99 19.98 18.44 19.66 18.67C17.86 19.95 16.69 21.93 16.47 24.12C16.43 24.5 16.11 24.78 15.74 24.78Z" fill="#5384ED"/>
<path d="M27.99 33.1C26.76 33.69 25.44 33.99 24.06 33.99C22.62 33.99 21.25 33.67 19.97 33.02C19.61 32.85 19.47 32.41 19.65 32.05C19.82 31.69 20.26 31.55 20.62 31.72C21.25 32.04 21.92 32.26 22.6 32.39C23.52 32.57 24.46 32.58 25.38 32.42C26.06 32.3 26.73 32.09 27.35 31.79C27.72 31.62 28.16 31.76 28.32 32.13C28.5 32.49 28.36 32.93 27.99 33.1Z" fill="#5384ED"/>
<path d="M24.05 14.01C22.5 14.01 21.23 15.27 21.23 16.83C21.23 18.39 22.49 19.65 24.05 19.65C25.61 19.65 26.87 18.39 26.87 16.83C26.87 15.27 25.61 14.01 24.05 14.01Z" fill="#5384ED"/>
<path d="M17.05 25.87C15.5 25.87 14.23 27.13 14.23 28.69C14.23 30.25 15.49 31.51 17.05 31.51C18.61 31.51 19.87 30.25 19.87 28.69C19.87 27.13 18.6 25.87 17.05 25.87Z" fill="#5384ED"/>
<path opacity="0.4" d="M30.95 25.87C29.4 25.87 28.13 27.13 28.13 28.69C28.13 30.25 29.39 31.51 30.95 31.51C32.51 31.51 33.77 30.25 33.77 28.69C33.77 27.13 32.51 25.87 30.95 25.87Z" fill="#5384ED"/>
</svg>
