<svg width="48" height="48" viewBox="0 0 48 48" fill="none" xmlns="http://www.w3.org/2000/svg">
<path d="M0 12C0 5.37258 5.37258 0 12 0H36C42.6274 0 48 5.37258 48 12V36C48 42.6274 42.6274 48 36 48H12C5.37258 48 0 42.6274 0 36V12Z" fill="#F5F8FA"/>
<path d="M30 15H18C15.79 15 14 16.78 14 18.97V29.03C14 31.22 15.79 33 18 33H30C32.21 33 34 31.22 34 29.03V18.97C34 16.78 32.21 15 30 15ZM20.5 19.17C21.77 19.17 22.81 20.21 22.81 21.48C22.81 22.75 21.77 23.79 20.5 23.79C19.23 23.79 18.19 22.75 18.19 21.48C18.19 20.21 19.23 19.17 20.5 19.17ZM24.37 28.66C24.28 28.76 24.14 28.82 24 28.82H17C16.86 28.82 16.72 28.76 16.63 28.66C16.54 28.56 16.49 28.42 16.5 28.28C16.67 26.6 18.01 25.27 19.69 25.11C20.22 25.06 20.77 25.06 21.3 25.11C22.98 25.27 24.33 26.6 24.49 28.28C24.51 28.42 24.46 28.56 24.37 28.66ZM31 28.75H29C28.59 28.75 28.25 28.41 28.25 28C28.25 27.59 28.59 27.25 29 27.25H31C31.41 27.25 31.75 27.59 31.75 28C31.75 28.41 31.41 28.75 31 28.75ZM31 24.75H27C26.59 24.75 26.25 24.41 26.25 24C26.25 23.59 26.59 23.25 27 23.25H31C31.41 23.25 31.75 23.59 31.75 24C31.75 24.41 31.41 24.75 31 24.75ZM31 20.75H26C25.59 20.75 25.25 20.41 25.25 20C25.25 19.59 25.59 19.25 26 19.25H31C31.41 19.25 31.75 19.59 31.75 20C31.75 20.41 31.41 20.75 31 20.75Z" fill="#5384ED"/>
</svg>
