<svg width="44" height="44" viewBox="0 0 44 44" fill="none" xmlns="http://www.w3.org/2000/svg">
<path d="M0 12C0 5.37258 5.37258 0 12 0H32C38.6274 0 44 5.37258 44 12V32C44 38.6274 38.6274 44 32 44H12C5.37258 44 0 38.6274 0 32V12Z" fill="#F5F8FA"/>
<path fill-rule="evenodd" clip-rule="evenodd" d="M25.2428 14.7376C25.2428 16.9586 27.0459 18.759 29.2702 18.759C29.5151 18.7578 29.7594 18.7343 30 18.6888V26.6615C30 30.0156 28.0215 32 24.6624 32H17.3464C13.9785 32 12 30.0156 12 26.6615V19.3561C12 16.002 13.9785 14 17.3464 14H25.3131C25.2659 14.243 25.2423 14.49 25.2428 14.7376ZM23.15 24.8966L26.0078 21.2088V21.1912C26.2525 20.8625 26.1901 20.3989 25.8671 20.1463C25.7108 20.0257 25.5122 19.9735 25.3167 20.0016C25.1211 20.0297 24.9453 20.1358 24.8295 20.2956L22.4201 23.3951L19.6766 21.2351C19.52 21.1131 19.3207 21.0592 19.1238 21.0856C18.9269 21.1121 18.749 21.2166 18.6302 21.3756L15.6756 25.1863C15.5718 25.3158 15.5159 25.4771 15.5173 25.6429C15.5002 25.9781 15.7119 26.2826 16.0324 26.3838C16.3529 26.485 16.7014 26.3573 16.8803 26.0732L19.3512 22.8771L22.0948 25.0283C22.2508 25.1541 22.4514 25.2111 22.6504 25.1863C22.8494 25.1615 23.0297 25.0569 23.15 24.8966Z" fill="#5384ED"/>
<path opacity="0.4" d="M29.5 17C30.8807 17 32 15.8807 32 14.5C32 13.1193 30.8807 12 29.5 12C28.1193 12 27 13.1193 27 14.5C27 15.8807 28.1193 17 29.5 17Z" fill="#5384ED"/>
</svg>
