<svg width="82" height="82" viewBox="0 0 82 82" fill="none" xmlns="http://www.w3.org/2000/svg">
<path d="M62.9006 61.8075L53.2656 71.4425" stroke="#B5B5C3" stroke-width="6" stroke-linecap="round" stroke-linejoin="round"/>
<path d="M62.9006 71.4425L53.2656 61.8075" stroke="#B5B5C3" stroke-width="6" stroke-linecap="round" stroke-linejoin="round"/>
<path d="M41.5467 37.1392C41.2051 37.105 40.7951 37.105 40.4192 37.1392C32.2876 36.8659 25.8301 30.2034 25.8301 22.0034C25.8301 13.6325 32.5951 6.83337 41.0001 6.83337C49.3709 6.83337 56.1701 13.6325 56.1701 22.0034C56.1359 30.2034 49.6784 36.8659 41.5467 37.1392Z" stroke="#B5B5C3" stroke-width="6" stroke-linecap="round" stroke-linejoin="round"/>
<path d="M40.9999 74.5174C34.7816 74.5174 28.5974 72.9458 23.8824 69.8025C15.6141 64.2674 15.6141 55.2474 23.8824 49.7466C33.2782 43.4599 48.6874 43.4599 58.0832 49.7466" stroke="#B5B5C3" stroke-width="6" stroke-linecap="round" stroke-linejoin="round"/>
</svg>
