<svg width="48" height="48" viewBox="0 0 48 48" fill="none" xmlns="http://www.w3.org/2000/svg">
<rect width="48" height="48" rx="12" fill="#F5F8FA"/>
<path d="M24 14C18.49 14 14 18.49 14 24C14 29.51 18.49 34 24 34C29.51 34 34 29.51 34 24C34 18.49 29.51 14 24 14ZM28.35 27.57C28.21 27.81 27.96 27.94 27.7 27.94C27.57 27.94 27.44 27.91 27.32 27.83L24.22 25.98C23.45 25.52 22.88 24.51 22.88 23.62V19.52C22.88 19.11 23.22 18.77 23.63 18.77C24.04 18.77 24.38 19.11 24.38 19.52V23.62C24.38 23.98 24.68 24.51 24.99 24.69L28.09 26.54C28.45 26.75 28.57 27.21 28.35 27.57Z" fill="#5384ED" fill-opacity="0.4"/>
<path d="M24.3689 26.208L24.369 26.2081L27.6991 28.0221C27.8554 28.1163 28.0223 28.15 28.1824 28.15C28.5052 28.15 28.8248 28.0027 29.0068 27.719C29.2958 27.2858 29.1303 26.7379 28.6729 26.4939C28.6727 26.4938 28.6725 26.4937 28.6722 26.4936L25.3404 24.6785L25.3404 24.6785L25.3389 24.6777C25.2036 24.606 25.057 24.4551 24.943 24.2721C24.8285 24.0883 24.7628 23.8978 24.7628 23.7601V19.7361C24.7628 19.2383 24.3169 18.85 23.8064 18.85C23.2959 18.85 22.85 19.2383 22.85 19.7361V23.7601C22.85 24.693 23.497 25.7325 24.3689 26.208Z" fill="#5384ED" stroke="#5384ED" stroke-width="0.3"/>
</svg>
