<svg width="48" height="48" viewBox="0 0 48 48" fill="none" xmlns="http://www.w3.org/2000/svg">
<rect width="48" height="48" rx="12" fill="#F5F8FA"/>
<path d="M28.7502 15.56V14C28.7502 13.59 28.4102 13.25 28.0002 13.25C27.5902 13.25 27.2502 13.59 27.2502 14V15.5H20.7502V14C20.7502 13.59 20.4102 13.25 20.0002 13.25C19.5902 13.25 19.2502 13.59 19.2502 14V15.56C16.5502 15.81 15.2402 17.42 15.0402 19.81C15.0202 20.1 15.2602 20.34 15.5402 20.34H32.4602C32.7502 20.34 32.9902 20.09 32.9602 19.81C32.7602 17.42 31.4502 15.81 28.7502 15.56Z" fill="#BACCF4"/>
<path d="M32 21.84H16C15.45 21.84 15 22.29 15 22.84V29C15 32 16.5 34 20 34H28C31.5 34 33 32 33 29V22.84C33 22.29 32.55 21.84 32 21.84ZM27.66 31.53C27.51 31.68 27.32 31.75 27.13 31.75C26.94 31.75 26.75 31.68 26.6 31.53L25.86 30.79C25.28 31.17 24.58 31.4 23.83 31.4C21.79 31.4 20.13 29.74 20.13 27.7C20.13 25.66 21.79 24 23.83 24C25.87 24 27.53 25.66 27.53 27.7C27.53 28.45 27.3 29.15 26.92 29.73L27.66 30.47C27.95 30.76 27.95 31.24 27.66 31.53Z" fill="#5384ED"/>
</svg>
