<svg width="82" height="82" viewBox="0 0 82 82" fill="none" xmlns="http://www.w3.org/2000/svg">
<path d="M40.9998 41C50.4347 41 58.0832 33.3516 58.0832 23.9167C58.0832 14.4818 50.4347 6.83337 40.9998 6.83337C31.565 6.83337 23.9165 14.4818 23.9165 23.9167C23.9165 33.3516 31.565 41 40.9998 41Z" stroke="#B5B5C3" stroke-width="6" stroke-linecap="round" stroke-linejoin="round"/>
<path d="M11.6509 75.1667C11.6509 61.9442 24.8051 51.25 41.0001 51.25" stroke="#B5B5C3" stroke-width="6" stroke-linecap="round" stroke-linejoin="round"/>
<path d="M62.1834 73.1168C68.2217 73.1168 73.1168 68.2217 73.1168 62.1834C73.1168 56.1451 68.2217 51.25 62.1834 51.25C56.1451 51.25 51.25 56.1451 51.25 62.1834C51.25 68.2217 56.1451 73.1168 62.1834 73.1168Z" stroke="#B5B5C3" stroke-width="6" stroke-linecap="round" stroke-linejoin="round"/>
<path d="M75.1667 75.1667L71.75 71.75" stroke="#B5B5C3" stroke-width="6" stroke-linecap="round" stroke-linejoin="round"/>
</svg>
