<svg width="44" height="42" viewBox="0 0 44 42" fill="none" xmlns="http://www.w3.org/2000/svg">
<rect width="44" height="42" rx="12" fill="#F5F8FA"/>
<path d="M28 12H16C13.79 12 12 13.78 12 15.97V26.03C12 28.22 13.79 30 16 30H28C30.21 30 32 28.22 32 26.03V15.97C32 13.78 30.21 12 28 12Z" fill="#5384ED"/>
<path d="M28 12H16C13.79 12 12 13.78 12 15.97V26.03C12 28.22 13.79 30 16 30H28C30.21 30 32 28.22 32 26.03V15.97C32 13.78 30.21 12 28 12ZM18.5 16.17C19.77 16.17 20.81 17.21 20.81 18.48C20.81 19.75 19.77 20.79 18.5 20.79C17.23 20.79 16.19 19.75 16.19 18.48C16.19 17.21 17.23 16.17 18.5 16.17ZM22.37 25.66C22.28 25.76 22.14 25.82 22 25.82H15C14.86 25.82 14.72 25.76 14.63 25.66C14.54 25.56 14.49 25.42 14.5 25.28C14.67 23.6 16.01 22.27 17.69 22.11C18.22 22.06 18.77 22.06 19.3 22.11C20.98 22.27 22.33 23.6 22.49 25.28C22.51 25.42 22.46 25.56 22.37 25.66ZM29 25.75H27C26.59 25.75 26.25 25.41 26.25 25C26.25 24.59 26.59 24.25 27 24.25H29C29.41 24.25 29.75 24.59 29.75 25C29.75 25.41 29.41 25.75 29 25.75ZM29 21.75H25C24.59 21.75 24.25 21.41 24.25 21C24.25 20.59 24.59 20.25 25 20.25H29C29.41 20.25 29.75 20.59 29.75 21C29.75 21.41 29.41 21.75 29 21.75ZM29 17.75H24C23.59 17.75 23.25 17.41 23.25 17C23.25 16.59 23.59 16.25 24 16.25H29C29.41 16.25 29.75 16.59 29.75 17C29.75 17.41 29.41 17.75 29 17.75Z" fill="#BACCF4"/>
</svg>
