<svg width="1512" height="982" viewBox="0 0 1512 982" fill="none" xmlns="http://www.w3.org/2000/svg">
<g clip-path="url(#clip0_132_211)">
<rect width="1512" height="982" fill="#F8FBFF"/>
<g filter="url(#filter0_d_132_211)">
<g clip-path="url(#clip1_132_211)">
<rect x="66" y="43" width="1380" height="896.066" rx="32" fill="white"/>
<path d="M1521 707.658C1521 713.653 1516.27 718.521 1510.44 718.521L67.5636 718.52C61.7336 718.52 57 713.661 57 707.657C57 701.662 61.7258 696.795 67.5636 696.795L1510.44 696.795C1516.27 696.803 1521 701.662 1521 707.658Z" fill="#F7F7F7"/>
<path d="M885.183 740.637H800.094C798.385 740.637 797 739.24 797 737.517C797 735.793 798.385 734.397 800.094 734.397H885.183C886.892 734.397 888.277 735.793 888.277 737.517C888.277 739.24 886.892 740.637 885.183 740.637ZM1028.29 740.637H943.198C941.488 740.637 940.104 739.24 940.104 737.517C940.104 735.793 941.488 734.397 943.198 734.397H1028.29C1030 734.397 1031.38 735.793 1031.38 737.517C1031.38 739.24 1030 740.637 1028.29 740.637ZM1179.13 740.637H1094.04C1092.33 740.637 1090.94 739.24 1090.94 737.517C1090.94 735.793 1092.33 734.397 1094.04 734.397H1179.13C1180.83 734.397 1182.22 735.793 1182.22 737.517C1182.22 739.24 1180.83 740.637 1179.13 740.637ZM959.442 757.795H874.353C872.644 757.795 871.259 756.398 871.259 754.675C871.259 752.951 872.644 751.555 874.353 751.555H959.442C961.151 751.555 962.536 752.951 962.536 754.675C962.536 756.398 961.151 757.795 959.442 757.795ZM1107.19 757.795H1022.1C1020.39 757.795 1019 756.398 1019 754.675C1019 752.951 1020.39 751.555 1022.1 751.555H1107.19C1108.9 751.555 1110.28 752.951 1110.28 754.675C1110.28 756.398 1108.9 757.795 1107.19 757.795Z" fill="#D3D3D3"/>
<path d="M812.011 696.221C812.011 696.221 786.431 641.913 829.003 608.332C871.575 574.743 793.498 540.647 821.67 498.937C849.842 457.226 945.627 491.032 943.212 413.761C940.797 336.489 1021.29 315.562 1047.85 338.904C1074.41 362.247 1078.07 476.021 1154.32 463.81C1230.57 451.592 1302.2 612.816 1241.03 696.003L812.011 696.221Z" fill="#2A94F4" fill-opacity="0.06"/>
<path d="M662.726 623.035C643.366 639.169 654.537 686.331 662.726 696.606H921.837C931.84 673.373 937.971 598.834 893.119 592.381C848.266 585.927 862.787 532.04 847.944 474.926C833.1 417.812 801.801 421.361 780.181 421.361C740.447 421.361 714.678 479.121 718.55 525.909C722.422 572.697 747.268 564.63 741.783 592.381C736.297 620.131 690.838 599.608 662.726 623.035Z" fill="#2A94F4" fill-opacity="0.06"/>
<path d="M836.798 664.641C844.462 650.609 820.268 644.011 814.436 649.577C808.603 655.143 827.939 680.861 836.798 664.641Z" fill="#2A94F4" fill-opacity="0.2"/>
<path d="M846.97 660.358C862.01 660.358 855.203 633.457 848.773 633.457C840.71 633.457 829.593 660.358 846.97 660.358Z" fill="#2A94F4" fill-opacity="0.2"/>
<path d="M858.562 670.117C870.961 680.211 881.86 657.625 877.451 650.875C873.041 644.126 844.229 658.449 858.562 670.117Z" fill="#2A94F4" fill-opacity="0.2"/>
<path d="M842.749 676.796C840.657 671.953 837.593 667.44 833.645 663.385C826.927 656.486 819.862 653.25 819.791 653.219C819.58 653.124 819.333 653.217 819.238 653.427C819.143 653.638 819.237 653.885 819.446 653.98C819.515 654.011 826.459 657.195 833.066 663.99C836.938 667.971 839.94 672.397 841.989 677.144C842.221 677.683 842.437 678.227 842.645 678.774H843.539C843.293 678.109 843.031 677.449 842.749 676.796Z" fill="#102042"/>
<path d="M848.399 638.974C848.426 638.745 848.262 638.537 848.033 638.509C847.803 638.481 847.596 638.645 847.568 638.874C847.541 639.103 845.433 657.13 845.54 678.774H846.376C846.269 657.187 848.372 639.202 848.399 638.974Z" fill="#102042"/>
<path d="M873.273 653.898C873.145 653.705 872.886 653.654 872.694 653.782C872.634 653.822 866.601 657.88 860.395 664.554C857.014 668.189 853.172 673.063 850.357 678.774H851.291C854.043 673.315 857.736 668.643 860.994 665.138C867.135 658.531 873.099 654.517 873.159 654.477C873.35 654.349 873.402 654.089 873.273 653.898Z" fill="#102042"/>
<path d="M846.377 678.774H845.541H843.54H842.646H830.98C830.531 678.774 830.213 679.212 830.352 679.639L831.088 681.898L831.46 683.042L836.792 699.399C836.936 699.843 837.351 700.144 837.817 700.144H857.034C857.501 700.144 857.915 699.843 858.059 699.399L863.391 683.042L863.764 681.898L864.5 679.639C864.64 679.212 864.321 678.774 863.873 678.774H851.29H850.356H846.377Z" fill="#FFD109"/>
<path d="M863.765 681.898L863.393 683.041H831.461L831.089 681.898H863.765Z" fill="#FFBE55"/>
<path opacity="0.4" d="M1224.67 566.346C1227.18 563.831 1226.87 559.438 1223.96 556.533C1221.06 553.629 1216.66 553.313 1214.15 555.828C1211.63 558.343 1211.95 562.736 1214.86 565.64C1217.76 568.545 1222.15 568.86 1224.67 566.346Z" fill="#FFBE55"/>
<path d="M922.718 633.579L908.016 579.804H947.226V627.807H974.85V635.807H973.515L975.068 697.363H971.953V635.137H928.738L923.39 697.363H920.72L922.718 633.579Z" fill="#D3D3D3"/>
<path d="M965.085 615.908C963.855 615.094 962.721 614.15 962.201 613.876C961.985 613.764 961.3 613.619 961.11 613.562C960.538 613.401 959.629 613.24 959.231 612.82L957.542 611.095C956.736 610.249 955.688 609.967 954.779 610.717C953.792 611.523 954.086 612.675 955.065 613.49L956.225 614.715C957.005 615.368 957.395 616.287 957.828 617.181C958.711 618.995 960.694 620.357 962.4 621.317C963.474 621.913 965.094 621.494 967.215 620.817C968.255 620.486 969.77 619.68 968.471 619.229C967.38 618.85 964.098 619.672 962.643 616.859C962.573 616.722 962.418 616.351 962.565 616.222C963.006 615.835 963.976 616.706 964.626 616.98C965.535 617.367 966.263 617.238 966.497 616.923C966.73 616.601 965.96 616.488 965.085 615.908Z" fill="#FAB9AF"/>
<path d="M961.135 554.379C961.135 554.379 963.642 584.408 972.643 594.543C978.072 600.653 991.333 611.124 994.408 613.528C994.8 613.831 995.344 613.847 995.753 613.559C996.009 613.376 996.305 613.152 996.562 612.929C996.818 612.705 997.122 612.369 997.386 612.058C997.835 611.539 997.811 610.764 997.346 610.261C993.903 606.523 980.394 591.732 978.752 587.843C976.871 583.378 973.628 557.046 970.649 553.229C967.67 549.411 961.952 548.58 961.135 554.379Z" fill="#FFD109"/>
<path d="M972.456 604.187L964.777 549.584L944.05 546.714L933.27 603.789L972.456 604.187Z" fill="#FAB9AF"/>
<path d="M973.299 602.992L964.718 549.602L943.722 546.714L932.437 603.09C932.226 604.147 932.908 605.181 933.972 605.376C937.877 606.116 947.311 607.67 957.857 607.67C965.733 607.67 970.157 606.132 972.171 605.164C972.999 604.774 973.445 603.887 973.299 602.992Z" fill="#D3D3D3"/>
<path d="M950.036 549.714C950.036 553.53 949.344 557.305 948.049 560.886C945.506 567.896 941.691 581.157 943.96 592.838C947.22 609.656 951.421 616.456 945.98 620.376C940.54 624.297 930.11 617.755 929.812 615.577C929.514 613.399 931.84 586.61 934.48 575.003C937.12 563.395 944.524 546.714 944.524 546.714L947.662 547.052C949.006 547.206 950.036 548.351 950.036 549.714ZM958.704 548.504C958.704 548.504 962.309 556.321 961.054 567.557C959.798 578.786 956.877 612.996 967.074 618.158C970.301 619.796 977.681 612.552 977.681 609.866C977.681 607.18 975.218 598.186 972.884 590.006C970.55 581.827 964.933 549.367 964.933 549.367L958.704 548.504Z" fill="#FFD109"/>
<path d="M956.384 524.943C951.664 524.943 949.906 528.319 949.816 534.561C949.783 536.901 950.83 539.217 951.672 540.695C952.302 541.796 952.474 543.093 952.114 544.309L951.075 547.832C950.372 551.101 951.918 552.891 954.2 553.54C955.329 553.86 956.686 553.614 957.668 552.973C958.838 552.21 958.936 550.575 958.723 549.187L958.453 548.185C958.093 546.83 958.87 545.377 960.236 545.073C963.868 544.276 964.391 540.474 965.365 534.561C966.371 528.401 961.103 524.943 956.384 524.943Z" fill="#FAB9AF"/>
<path d="M966.356 522.184L963.659 523.005C962.664 523.305 961.613 523.313 960.619 523.021L955.232 521.46C951.971 521.46 946.584 523.297 947.261 527.995L947.864 531.312C948.1 532.637 949.217 533.628 950.561 533.742C950.684 534.197 951.108 534.522 951.58 534.522C952.167 534.522 952.64 534.051 952.64 533.474C952.64 531.978 953.691 530.702 955.158 530.369C956.951 529.97 958.875 529.873 960.88 530.409C964.62 531.409 968.565 529.101 968.94 525.248C968.964 525.004 968.973 524.76 968.973 524.508C968.981 522.956 967.693 521.818 966.356 522.184Z" fill="#0B4870"/>
<path d="M952.427 534.522C952.427 535.964 951.868 537.135 950.437 537.135C948.997 537.135 948.073 535.153 948.073 533.712C948.073 532.27 948.997 531.91 950.437 531.91C951.877 531.91 952.427 533.081 952.427 534.522Z" fill="#FAB9AF"/>
<path d="M951.557 540.618C951.557 540.618 955.05 545.37 959.394 544.721C959.394 544.721 958.494 545.146 958.275 545.843C958.275 545.843 954.15 545.538 951.557 540.618Z" fill="#E8948B"/>
<path d="M909.277 650.208L904.394 657.284C903.402 658.727 902.605 660.3 902.035 661.969L901.137 664.596C900.394 666.752 897.879 667.57 896.082 666.241C891.434 662.796 883.465 656.944 881.411 655.436C881.075 655.193 880.903 654.715 881.114 654.342C882.356 652.145 887.489 656.96 893.028 658.419C897.246 659.53 902.879 651.262 904.933 647.363C905.715 645.888 907.597 645.531 908.839 646.617C909.871 647.509 910.058 649.073 909.277 650.208Z" fill="#FAB9AF"/>
<path d="M976.409 613.374C975.421 612.872 960.597 595.45 951.201 593.961C941.814 592.465 940.826 598.442 928.965 612.379C917.104 626.316 899.308 654.197 899.308 654.197L904.745 658.177C904.745 658.177 929.953 627.31 937.855 619.845C945.765 612.379 948.977 610.632 951.442 617.604C953.916 624.577 959.842 636.523 971.703 629.551C983.572 622.587 976.409 613.374 976.409 613.374Z" fill="#0B4870"/>
<path d="M954.724 676.021L957.766 686.197C957.898 686.644 958.103 687.075 958.358 687.465L960.513 690.688C961.877 692.735 960.899 695.536 958.556 696.257C958.556 696.257 954.206 697.798 949.725 699.281C945.137 700.798 939.365 699.53 939.365 698.312C939.365 695.602 941.873 697.757 946.075 694.923C947.481 693.978 948.936 692.984 950.227 691.956C953.844 689.097 950.687 681.855 948.475 677.777C947.678 676.311 948.525 674.488 950.145 674.14L951.189 673.916C952.743 673.593 954.272 674.504 954.724 676.021Z" fill="#FAB9AF"/>
<path d="M946.511 608.552C946.511 608.552 931.735 607.555 935.185 624.03C938.634 640.504 948.976 682.434 948.976 682.434H958.333L955.868 623.527C955.868 623.535 948.48 608.552 946.511 608.552ZM957.517 686.717C957.517 686.717 953.819 688.631 951.641 688.664C951.641 688.664 952.314 691.981 947.143 694.131C941.972 696.289 939.323 694.942 939.323 698.073C939.323 701.196 945.934 702.543 950.345 701.196C954.755 699.858 960.478 695.835 961.807 694.942C963.12 694.05 957.517 686.717 957.517 686.717ZM902.807 660.094C902.807 660.094 898.741 658.066 897.3 656.152C897.3 656.152 894.875 658.91 889.648 655.73C884.421 652.55 883.853 649.33 881.156 651.366C878.458 653.402 881.612 660.135 885.638 663.169C889.664 666.202 896.868 668.66 898.501 669.252C900.134 669.845 902.807 660.094 902.807 660.094Z" fill="#0B4870"/>
<path d="M944.59 546.725C944.59 546.725 937.187 566.938 938.009 579.874C938.832 592.81 938.824 603.361 931.42 595.251C924.017 587.142 928.961 545.917 944.59 546.725Z" fill="#FFD109"/>
<path d="M973.213 569.435C972.098 570.864 970.835 572.17 970.453 572.787C970.289 573.047 970.063 573.867 969.985 574.094C969.744 574.776 969.479 575.879 968.925 576.326L966.633 578.249C965.51 579.158 965.082 580.408 965.955 581.577C966.898 582.843 968.364 582.575 969.463 581.455L971.085 580.14C971.965 579.239 973.15 578.842 974.296 578.387C976.643 577.462 978.498 575.149 979.832 573.144C980.666 571.886 980.245 569.882 979.551 567.236C979.208 565.937 978.304 564.03 977.641 565.58C977.087 566.879 977.89 570.945 974.234 572.487C974.055 572.56 973.579 572.722 973.431 572.535C972.979 571.967 974.141 570.856 974.538 570.084C975.092 569.005 974.975 568.104 974.6 567.804C974.211 567.479 974.008 568.421 973.213 569.435Z" fill="#FAB9AF"/>
<path d="M928.916 590.117C928.916 590.117 930.691 604.981 939.052 599.483C947.421 593.985 962.682 586.896 966.698 583.745C970.714 580.594 970.714 580.594 970.714 580.594L968.232 575.45L928.916 590.117Z" fill="#FFBE55"/>
<path d="M1166.85 632.708L1181.56 578.933H1142.35V626.937H1114.73V634.936H1116.07L1114.5 696.492H1117.63V634.266H1160.84L1166.19 696.492H1168.86L1166.85 632.708Z" fill="#D3D3D3"/>
<path d="M1130.18 569.354C1135.47 569.354 1139.76 563.896 1139.76 557.163C1139.76 550.43 1135.47 544.972 1130.18 544.972C1124.89 544.972 1120.6 550.43 1120.6 557.163C1120.6 563.896 1124.89 569.354 1130.18 569.354Z" fill="#0B4870"/>
<path d="M1132.8 557.991C1132.96 551.101 1138.43 545.302 1145.18 544.909C1151.17 544.556 1156.34 548.304 1158.28 553.644C1158.95 555.514 1160.76 556.736 1162.71 556.703C1163.53 556.687 1164.36 556.769 1165.22 556.941C1170.16 557.975 1174.01 562.24 1174.53 567.358C1174.99 571.976 1172.88 576.126 1169.46 578.488C1168.01 579.497 1167.19 581.17 1166.95 582.942C1165.83 591.16 1158.47 597.189 1150.07 596.254C1142.89 595.45 1137.15 589.43 1136.54 582.097C1136.16 577.594 1137.68 573.468 1140.34 570.401C1135.81 568.219 1132.68 563.478 1132.8 557.991ZM1130.53 540.168C1130.53 540.168 1125.21 543.588 1125.85 548.189C1125.85 548.189 1123 546.139 1122.36 539.06C1121.92 534.156 1130.53 540.168 1130.53 540.168Z" fill="#0B4870"/>
<path d="M1126.7 568.754C1126.57 572.65 1126.31 576.569 1125.76 580.512C1125.18 584.44 1124.37 588.415 1122.86 592.263C1122.12 594.182 1121.19 596.062 1120.03 597.83C1118.89 599.598 1117.46 601.229 1115.79 602.557C1114.13 603.893 1112.26 604.941 1110.3 605.629C1108.33 606.317 1106.3 606.661 1104.3 606.797C1103.72 606.837 1103.23 606.397 1103.19 605.829C1103.15 605.301 1103.52 604.845 1104.01 604.741H1104.02C1107.64 603.981 1110.94 602.325 1113.28 599.83C1115.64 597.35 1117.09 594.11 1117.97 590.687C1118.85 587.247 1119.25 583.616 1119.4 579.937C1119.49 578.097 1119.51 576.241 1119.5 574.377C1119.49 572.514 1119.46 570.642 1119.39 568.77C1119.32 566.763 1120.89 565.075 1122.91 565.003C1124.93 564.931 1126.62 566.499 1126.7 568.506C1126.7 568.586 1126.7 568.666 1126.7 568.746V568.754Z" fill="#FAB9AF"/>
<path d="M1124.04 591.995C1121.91 585.552 1117.64 571.899 1118.01 567.434C1118.24 564.576 1120.61 562.388 1123.46 562.388H1141.93C1144.99 562.388 1147.5 564.834 1147.59 567.919C1147.74 573.312 1145.28 585.577 1143.89 591.995H1124.04V591.995Z" fill="#2A94F4"/>
<path d="M1146.66 599.64C1145.67 596.974 1145.38 594.124 1145.79 591.322C1146.75 584.819 1148.43 572.569 1148.27 567.371C1148.19 564.593 1145.83 562.388 1142.95 562.388H1140.13C1139.05 564.792 1136.77 566.647 1133.23 566.647C1129.7 566.647 1127.42 564.792 1126.34 562.388H1123.69C1126.58 568.334 1125.54 576.175 1120.58 580.752C1121.51 583.888 1122.27 587.048 1122.85 589.603C1123.64 593.066 1123.29 596.679 1121.88 599.959C1119.44 605.586 1117.52 614.613 1118.09 618.187C1138.11 623.655 1151.95 613.976 1151.95 613.976L1146.66 599.64Z" fill="#2A94F4"/>
<path d="M1130.18 563.259L1138.89 562.419L1136.13 553.68L1130.5 554.314L1130.18 563.259Z" fill="#FAB9AF"/>
<path d="M1130.38 554.333L1135.49 553.68L1136.27 556.456C1135.13 557.785 1133.65 560.646 1131.79 560.646C1131.2 560.646 1130.66 560.475 1130.18 560.157L1130.38 554.333Z" fill="#FA968C"/>
<path d="M1130.09 558.034C1132 558.034 1134.07 557.126 1136.91 554.764C1138.54 553.406 1139.76 551.044 1139.76 549.448V540.618H1125.44C1125.44 540.618 1124.37 545.31 1125.41 549.962C1126.19 553.445 1128.59 558.034 1130.09 558.034Z" fill="#FAB9AF"/>
<path d="M1137.15 548.02C1137.15 549.702 1138.04 551.068 1139.16 551.068C1140.27 551.068 1141.5 548.861 1141.5 547.179C1141.5 545.497 1140.27 544.972 1139.16 544.972C1138.05 544.972 1137.15 546.338 1137.15 548.02Z" fill="#FAB9AF"/>
<path d="M1141.49 541.636C1141.49 538.984 1139.24 536.834 1136.46 536.834H1131.83C1130.51 536.834 1129.23 536.507 1128.1 535.892C1126.47 535.011 1124.4 535.299 1123.29 536.743C1122.09 538.3 1121.56 540.39 1124.62 542.319C1126.14 543.277 1128.35 542.213 1129.83 542.676C1129.92 542.676 1130.01 542.661 1130.1 542.661H1134.18C1135.6 542.661 1136.68 543.763 1136.72 545.115C1136.75 545.974 1137.48 546.657 1138.39 546.657H1138.57L1139.22 544.659L1141.5 547.584V541.636H1141.49Z" fill="#0B4870"/>
<path d="M1101.08 602.571C1101.08 602.571 1105.9 603.11 1106.22 604.581C1106.53 606.053 1106.47 607.092 1104.26 607.616C1102.05 608.14 1098.76 607.84 1096.82 607.285C1094.89 606.73 1092.06 604.481 1091.91 604.042C1091.41 602.463 1094.81 603.826 1096.49 604.412C1098.16 604.997 1100.12 605.49 1100.18 604.635C1100.24 603.78 1096.94 602.894 1096.68 601.893C1096.42 600.891 1101.08 602.571 1101.08 602.571ZM1115.43 604.62C1115.43 604.62 1120.22 603.865 1120.95 605.198C1121.67 606.53 1121.9 607.547 1119.93 608.633C1117.95 609.719 1114.71 610.305 1112.69 610.282C1110.67 610.258 1107.3 608.841 1107.04 608.464C1106.11 607.077 1109.77 607.493 1111.54 607.609C1113.32 607.724 1115.35 607.686 1115.17 606.846C1114.98 606.006 1111.55 606.029 1111.02 605.136C1110.47 604.242 1115.43 604.62 1115.43 604.62Z" fill="#FAB9AF"/>
<path d="M1126.76 540.323C1127.25 542.516 1126.54 543.72 1133.55 547.151C1140.57 550.582 1142.79 549.111 1144.98 552.809C1144.98 552.809 1144.03 546.695 1140.15 544.597C1136.28 542.498 1129.55 541.123 1127.39 536.264C1127.39 536.264 1126.44 538.818 1126.76 540.323Z" fill="#0B4870"/>
<path d="M1146.77 566.425C1147.79 567.759 1148.6 568.982 1149.44 570.3C1150.26 571.602 1151.04 572.92 1151.78 574.277C1153.23 577 1154.52 579.833 1155.53 582.839C1156.5 585.846 1157.2 589.05 1157.17 592.467C1157.15 594.172 1156.92 595.931 1156.38 597.652C1155.86 599.372 1154.96 601.029 1153.8 602.426C1152.64 603.831 1151.24 604.983 1149.77 605.867C1148.29 606.758 1146.75 607.406 1145.2 607.903C1143.64 608.4 1142.08 608.708 1140.53 608.968C1138.98 609.173 1137.44 609.331 1135.9 609.371C1129.76 609.599 1123.8 608.842 1117.96 607.753C1117.4 607.65 1117.03 607.114 1117.13 606.553C1117.23 606.04 1117.69 605.693 1118.2 605.717H1118.22C1121.15 605.859 1124.06 605.969 1126.96 605.914C1129.86 605.875 1132.74 605.725 1135.54 605.33C1138.34 604.936 1141.07 604.32 1143.52 603.334C1145.96 602.331 1148.06 600.895 1149.3 599.049C1150.57 597.226 1151.04 594.977 1150.93 592.546C1150.8 590.107 1150.09 587.551 1149.13 585.057C1148.19 582.547 1146.95 580.077 1145.55 577.686C1144.86 576.487 1144.14 575.295 1143.37 574.135C1142.99 573.551 1142.6 572.983 1142.2 572.415C1141.82 571.862 1141.39 571.255 1141.03 570.789L1141 570.742C1139.8 569.164 1140.12 566.914 1141.71 565.723C1143.3 564.531 1145.57 564.847 1146.77 566.425Z" fill="#FAB9AF"/>
<path d="M1128.41 541.147C1128.41 541.147 1128.16 547.844 1122.34 551.068C1122.34 551.068 1124.9 546.006 1124.73 542.689C1124.56 539.379 1128.8 538.858 1128.41 541.147Z" fill="#0B4870"/>
<path d="M1103.18 674.92L1101.04 684.408C1100.39 687.307 1100.8 690.356 1102.2 692.977C1102.99 694.442 1102.29 696.264 1100.72 696.818C1095.65 698.624 1085.82 702.061 1085.39 701.689C1083.15 699.796 1089.05 696.676 1093.42 693.397C1096.36 691.187 1097.49 680.884 1097.75 672.98L1102.43 674.16C1102.8 674.271 1103.08 674.556 1103.18 674.92Z" fill="#FA968C"/>
<path d="M1132.31 613.765L1152.24 614.645C1152.24 614.645 1157.56 630.976 1147.81 632.299C1138.07 633.622 1109.71 630.533 1108.82 634.944C1107.94 639.356 1103.5 678.205 1103.5 678.205H1096.86C1096.86 678.205 1097.3 653.486 1096.86 640.678C1096.41 627.871 1094.64 622.581 1099.96 620.371C1105.28 618.185 1132.31 613.765 1132.31 613.765Z" fill="#0B4870"/>
<path d="M1109.12 651.86C1109.12 651.86 1110.25 661.519 1110.57 663.145C1110.83 664.489 1111.76 665.552 1112.64 666.598C1112.92 666.936 1113.13 667.596 1113.31 668.16C1113.45 668.611 1113.33 669.085 1113.06 669.472C1108.28 676.217 1099.07 676.957 1099.03 676.338C1098.95 675.227 1100.75 673.52 1102.79 672.981C1104.84 672.434 1106.39 670.752 1107.02 668.723C1107.52 667.113 1107.6 665.399 1107.25 663.749L1105.59 656.336L1109.12 651.86Z" fill="#FA968C"/>
<path d="M1114.46 672.144C1114.93 671.83 1115.1 671.226 1114.87 670.719C1114.67 670.301 1114.17 669.166 1113.78 668.313C1113.61 667.942 1113.13 667.886 1112.86 668.192C1109.87 671.677 1105.83 673.931 1101.51 673.376C1099.9 673.923 1098.49 675.75 1098.55 676.627C1098.57 676.837 1100.41 677.36 1102.66 676.772C1112.62 674.172 1114.46 672.144 1114.46 672.144Z" fill="#0B4870"/>
<path d="M1120.6 615.756L1107.37 618.831L1110.45 659.706L1105.6 660.581C1105.6 660.581 1093.69 632.014 1094.13 618.831C1094.58 605.648 1105.16 609.606 1111.34 611.356C1117.51 613.123 1120.6 615.756 1120.6 615.756ZM1094.59 696.028C1092.46 696.727 1090.12 696.951 1087.97 697.216C1087.73 697.249 1087.49 697.345 1087.3 697.489C1085.24 699.079 1084.2 700.677 1085.41 701.688C1085.89 702.098 1097.64 697.955 1102.22 696.317C1103.17 695.972 1103.59 694.872 1103.11 693.973L1102.24 692.343C1099.85 693.868 1097.29 695.137 1094.59 696.028Z" fill="#0B4870"/>
<path d="M1088.88 600.498H980.293V604.491H1088.88V600.498Z" fill="#0B4870"/>
<path d="M987.827 604.491H985.614V697.12H987.827V604.491Z" fill="#76838B"/>
<path d="M1083.11 604.491H1080.9V697.12H1083.11V604.491Z" fill="#76838B"/>
<path d="M1190.81 697.192C1190.81 698.778 1189.52 700.058 1187.95 700.058H1176.88C1175.29 700.058 1174.01 698.77 1174.01 697.192V671.379C1174.01 669.793 1175.3 668.513 1176.88 668.513H1187.95C1189.53 668.513 1190.81 669.801 1190.81 671.379V697.192Z" fill="#FFBE55"/>
<path opacity="0.4" d="M1183.74 638.796C1183.74 638.796 1174.68 657.204 1188.03 660.343C1201.37 663.483 1201.76 649.59 1200.39 643.867C1199.02 638.144 1220.2 622.754 1202.73 609.143C1185.27 595.532 1171.66 631.769 1183.74 638.796Z" fill="#2A94F4"/>
<path opacity="0.4" d="M1166.87 648.785C1166.87 648.785 1166.45 660.899 1174.4 659.362C1182.35 657.824 1179.2 650.242 1177.07 647.489C1174.95 644.736 1182.64 631.318 1169.93 628.203C1157.23 625.096 1158.66 647.932 1166.87 648.785Z" fill="#2A94F4"/>
<path d="M1168.23 637.371L1178.06 668.513" stroke="#4D4D4D" stroke-miterlimit="10"/>
<path d="M1173.97 643.706L1171.88 648.938L1167.14 646.322" stroke="#4D4D4D" stroke-miterlimit="10"/>
<path d="M1194.4 619.752L1185.97 668.513" stroke="#4D4D4D" stroke-miterlimit="10"/>
<path d="M1199.35 627.125L1192.37 631.536L1187.88 625.483" stroke="#4D4D4D" stroke-miterlimit="10"/>
<path d="M1197.44 637.347L1190.45 641.766L1185.97 635.713" stroke="#4D4D4D" stroke-miterlimit="10"/>
<path d="M885.916 474.437L800.803 474.437C798.938 474.437 797.424 475.953 797.424 477.819V502.682C797.424 504.548 798.938 506.064 800.803 506.064H805.671V517.106L819.185 506.064L885.916 506.064C887.78 506.064 889.294 504.548 889.294 502.682V477.819C889.286 475.944 887.78 474.437 885.916 474.437ZM802.537 489.252H844.666V490.678H802.537V489.252ZM881.015 495.772L802.537 495.772V494.345L881.015 494.345V495.772ZM881.015 485.789L802.537 485.789V484.363L881.015 484.363V485.789Z" fill="#FFBE55"/>
<path opacity="0.4" d="M875.149 627.781C876.237 622.106 874.289 616.961 870.796 616.291C867.303 615.621 863.589 619.679 862.501 625.355C861.412 631.03 863.361 636.174 866.853 636.844C870.346 637.514 874.06 633.457 875.149 627.781Z" fill="#FFBE55"/>
<path opacity="0.4" d="M875.921 622.741C878.436 620.226 878.12 615.833 875.215 612.929C872.311 610.024 867.918 609.708 865.403 612.223C862.888 614.738 863.204 619.131 866.109 622.035C869.014 624.94 873.407 625.256 875.921 622.741Z" fill="#FFBE55"/>
<path opacity="0.4" d="M1215.18 588.793C1216.26 583.117 1214.32 577.973 1210.82 577.303C1207.33 576.633 1203.62 580.691 1202.53 586.366C1201.44 592.042 1203.39 597.186 1206.88 597.856C1210.37 598.526 1214.09 594.468 1215.18 588.793Z" fill="#FFBE55"/>
<path d="M792.584 507.901C792.584 500.968 786.47 495.351 777.3 495.351C769.68 495.351 767.061 499.556 767.061 499.556C767.061 499.556 759.858 501.113 759.858 510.063C759.858 518.384 759.858 532.698 759.858 532.698H771.694H772.297H781.038H790.539V514.057C791.29 513.135 792.584 511.085 792.584 507.901ZM778.352 528.171C777.711 528.171 777.011 528.053 776.281 527.847V532.697H765.809V520.22C765.738 520.02 765.667 519.806 765.599 519.58C760.956 519.137 761.148 511.464 763.907 511.464C763.945 511.464 763.981 511.468 764.018 511.473V511.472C775.615 515.18 783.414 509.105 785.966 504.884C785.966 507.83 789.225 510.702 790.385 510.964C790.213 521.489 782.683 528.171 778.352 528.171Z" fill="#311643"/>
<path d="M776.281 528.515V527.847C777.011 528.053 777.711 528.171 778.352 528.171C782.683 528.171 790.213 521.489 790.384 510.963C789.225 510.701 785.965 507.829 785.965 504.884C783.413 509.105 775.614 515.179 764.017 511.471V511.472C763.981 511.467 763.945 511.464 763.907 511.464C761.148 511.464 760.956 519.136 765.598 519.58C765.667 519.805 765.737 520.018 765.809 520.219V528.613L757.607 532.479V542.602H784.862V532.383L776.281 528.515Z" fill="#FCBEB7"/>
<path d="M784.863 542.603V532.384L776.281 528.515V527.847C773.855 527.163 771.096 525.504 769.071 523.956L784.863 542.603Z" fill="#F9AFAB"/>
<path d="M770.688 519.85C772.266 519.85 773.545 518.571 773.545 516.993C773.545 515.415 772.266 514.136 770.688 514.136C769.11 514.136 767.831 515.415 767.831 516.993C767.831 518.571 769.11 519.85 770.688 519.85Z" fill="#F49795"/>
<path d="M790.017 514.621C789.655 516.539 789.048 518.289 788.281 519.846C786.77 519.771 785.569 518.522 785.569 516.992C785.569 515.415 786.848 514.135 788.425 514.135C789.014 514.136 789.562 514.315 790.017 514.621Z" fill="#F49795"/>
<path d="M785.185 508.305C783.099 508.305 781.376 509.89 781.16 511.92C780.026 511.386 779.025 511.676 778.496 511.918C778.278 509.89 776.557 508.305 774.472 508.305C772.239 508.305 770.423 510.121 770.423 512.353C770.423 514.585 772.239 516.401 774.472 516.401C776.654 516.401 778.437 514.665 778.516 512.501C778.852 512.308 779.921 511.815 781.14 512.506C781.22 514.667 783.003 516.401 785.184 516.401C787.416 516.401 789.232 514.585 789.232 512.353C789.233 510.12 787.417 508.305 785.185 508.305ZM774.472 515.872C772.532 515.872 770.953 514.293 770.953 512.352C770.953 510.412 772.532 508.834 774.472 508.834C776.412 508.834 777.991 510.412 777.991 512.352C777.991 514.293 776.412 515.872 774.472 515.872ZM785.185 515.872C783.245 515.872 781.666 514.293 781.666 512.352C781.666 510.412 783.245 508.834 785.185 508.834C787.125 508.834 788.704 510.412 788.704 512.352C788.704 514.293 787.125 515.872 785.185 515.872Z" fill="white"/>
<path d="M785.187 515.254C784.869 515.254 784.61 514.995 784.61 514.676V513.597C784.61 513.278 784.869 513.02 785.187 513.02C785.506 513.02 785.765 513.278 785.765 513.597V514.676C785.765 514.995 785.507 515.254 785.187 515.254Z" fill="#311643"/>
<path d="M774.647 515.254C774.328 515.254 774.07 514.995 774.07 514.676V513.597C774.07 513.278 774.328 513.02 774.647 513.02C774.966 513.02 775.225 513.278 775.225 513.597V514.676C775.226 514.995 774.967 515.254 774.647 515.254Z" fill="#311643"/>
<path d="M778.773 521.804C777.741 521.804 777.039 521.416 776.614 521.063C776.078 520.617 775.855 520.131 775.845 520.111C775.785 519.977 775.845 519.821 775.978 519.76C776.111 519.7 776.268 519.76 776.328 519.892C776.358 519.957 777.091 521.493 779.218 521.247C779.364 521.23 779.495 521.334 779.512 521.48C779.529 521.625 779.425 521.757 779.279 521.774C779.102 521.794 778.933 521.804 778.773 521.804Z" fill="#311643"/>
<path d="M796.092 689.865L797.175 694.369L808.993 698.079L807.293 689.865H796.092Z" fill="#FCBEB7"/>
<path d="M756.277 689.865L756.599 695.428L755.863 695.699L755.378 698.081L767.184 694.369L767.479 689.865H756.277Z" fill="#FCBEB7"/>
<path d="M818.107 699.828L808.5 695.699L808.993 698.079L797.175 694.369V697.755C797.175 698.946 797.798 700.025 798.777 700.632L799.794 703.537C799.881 703.788 800.118 703.957 800.385 703.957C800.731 703.957 801.011 703.677 801.011 703.331V701.441L809.087 703.957H817.258C818.446 703.957 819.409 702.994 819.409 701.806C819.409 700.945 818.897 700.168 818.107 699.828Z" fill="#0B4870"/>
<path d="M767.194 697.722L767.184 694.336L755.378 698.081L755.863 695.699L746.269 699.857C745.48 700.199 744.97 700.978 744.973 701.837C744.976 703.025 745.942 703.986 747.131 703.982L755.301 703.958L763.652 701.329L763.658 703.308C763.659 703.654 763.94 703.934 764.286 703.932C764.552 703.932 764.789 703.762 764.876 703.511L765.978 700.33C766.734 699.698 767.197 698.751 767.194 697.722Z" fill="#0B4870"/>
<path d="M758.064 576.592L753.705 595.05C752.447 600.38 751.951 605.862 752.233 611.331L756.278 689.864H767.479L772.262 608.361L796.092 689.864H807.294L787.571 576.591H758.064V576.592Z" fill="#0B4870"/>
<path d="M772.885 537.61C774.874 537.61 776.465 535.694 777.538 533.754H766.195C767.925 535.689 770.294 537.61 772.885 537.61Z" fill="white"/>
<path d="M792.434 539.154C791.027 536.341 788.69 534.1 785.82 532.813L779.089 529.794C779.089 530.11 778.539 531.943 777.537 533.754C776.465 535.694 774.874 537.61 772.885 537.61C770.294 537.61 767.925 535.689 766.194 533.754C764.439 531.791 763.343 529.814 763.343 529.814L755.533 533.432C752.337 534.913 749.983 537.762 749.133 541.181L744.569 559.536C743.824 562.529 744.681 565.694 746.834 567.903C750.428 566.642 757.176 564.015 757.176 564.015L758.063 576.592H787.57L794.901 544.087L792.434 539.154Z" fill="#2A94F4"/>
<path d="M773.177 540.369C771.536 540.369 769.867 539.87 768.215 538.886C766.904 538.104 765.6 537.017 764.34 535.652C762.202 533.337 760.9 530.975 760.887 530.952L761.325 530.748C761.338 530.772 762.6 533.062 764.701 535.333C765.929 536.661 767.195 537.717 768.466 538.474C770.041 539.412 771.626 539.886 773.177 539.886C774.64 539.886 775.959 539.398 777.095 538.435C778.015 537.655 778.821 536.564 779.492 535.192C780.645 532.833 780.96 530.657 780.963 530.633L781.416 530.837C781.402 530.937 781.113 532.966 779.93 535.393C779.23 536.828 778.383 537.974 777.411 538.798C776.185 539.841 774.76 540.369 773.177 540.369Z" fill="white"/>
<path d="M790.76 639.262C793.721 639.262 796.121 636.862 796.121 633.901C796.121 630.94 793.721 628.539 790.76 628.539C787.799 628.539 785.398 630.94 785.398 633.901C785.398 636.862 787.799 639.262 790.76 639.262Z" fill="#083959"/>
<path d="M762.669 639.262C765.63 639.262 768.03 636.862 768.03 633.901C768.03 630.94 765.63 628.539 762.669 628.539C759.708 628.539 757.307 630.94 757.307 633.901C757.307 636.862 759.708 639.262 762.669 639.262Z" fill="#083959"/>
<path d="M755.58 535.816C755.58 537.706 754.047 539.24 752.155 539.24C751.396 539.24 750.694 538.993 750.126 538.574C751.194 536.544 752.846 534.86 754.891 533.755C755.324 534.328 755.58 535.042 755.58 535.816Z" fill="#197BD3"/>
<path d="M775.618 580.841L798.324 579.983C799.517 579.938 800.549 579.14 800.893 577.996L810.82 544.903C811.031 544.2 810.488 543.498 809.755 543.526L786.792 544.393C785.753 544.432 784.853 545.128 784.554 546.125L774.553 579.464C774.342 580.167 774.885 580.869 775.618 580.841Z" fill="#FFD109"/>
<path d="M800.088 563.459L804.061 567.434L804.738 565.175L800.088 563.459Z" fill="#2F3D6C"/>
<path d="M805.604 557.305L799.879 557.683C799.457 557.711 799.13 558.064 799.133 558.488L798.564 558.523C798.194 558.546 797.894 558.83 797.85 559.199L797.78 559.794H797.777C797.354 559.799 797.015 560.147 797.02 560.57C797.024 560.881 797.215 561.159 797.504 561.274L798.786 561.783C798.784 562.436 799.162 563.03 799.755 563.304L803.739 565.146C804.318 565.413 804.96 565.512 805.592 565.43C807.013 565.245 808.163 564.185 808.463 562.784L808.71 561.625C808.977 560.376 808.59 559.077 807.684 558.179C807.129 557.63 806.384 557.317 805.604 557.305Z" fill="#FCBEB7"/>
<path d="M777.151 535.227L781.057 544.776C781.278 545.314 781.6 545.802 781.997 546.198L782.692 546.89C782.853 547.051 783.078 546.959 783.081 546.731L783.091 545.75C783.097 545.189 782.985 544.616 782.765 544.077L778.858 534.528C778.621 533.947 778.046 533.632 777.574 533.825C777.102 534.018 776.913 534.646 777.151 535.227Z" fill="#6277D7"/>
<path d="M782.287 540.915L780.143 537.961C779.866 537.581 779.438 537.338 778.97 537.295L775.373 536.969C774.884 536.925 774.397 537.082 774.026 537.405L772.152 539.033C771.882 539.268 771.652 539.546 771.472 539.856L769.173 543.504L747.379 561.112C745.229 562.849 745.039 566.06 746.969 568.038C748.888 570.007 752.08 569.91 753.878 567.831L772.283 546.543L776.154 544.163L779.011 544.261C779.675 544.284 780.259 543.829 780.401 543.18L780.558 542.994C780.828 542.673 780.938 542.247 780.854 541.835L780.691 541.029L781.615 541.626C781.749 541.713 781.918 541.73 782.067 541.671C782.369 541.552 782.478 541.178 782.287 540.915Z" fill="#FCBEB7"/>
<path d="M757.178 564.015L765.242 554.687L757.484 568.363L757.178 564.015Z" fill="#197BD3"/>
<path d="M775.618 580.841L788.95 584.512L788.227 580.364L775.618 580.841Z" fill="#2F3D6C"/>
<path d="M791.243 537.202C790.822 537.378 790.359 537.475 789.874 537.475C787.907 537.475 786.312 535.88 786.312 533.913C786.312 533.631 786.345 533.357 786.407 533.093C788.327 534.067 789.982 535.477 791.243 537.202Z" fill="#197BD3"/>
<path d="M750.429 568.738C752.258 568.738 753.741 567.255 753.741 565.425C753.741 563.596 752.258 562.113 750.429 562.113C748.599 562.113 747.116 563.596 747.116 565.425C747.116 567.255 748.599 568.738 750.429 568.738Z" fill="#F9AFAB"/>
<rect width="86.2096" height="18.2869" transform="translate(802.214 480.066)" fill="#FFBE55"/>
<text fill="white" xml:space="preserve" style="white-space: pre" font-family="Roboto" font-size="10" font-weight="600" letter-spacing="0em"><tspan x="802.214" y="489.484">Invite our teams...</tspan></text>
<path d="M1051.8 477.049H981.059C979.195 477.049 977.681 478.565 977.681 480.431V505.294C977.681 507.161 979.195 508.676 981.059 508.676H985.927V519.719L999.441 508.676H1051.8C1053.67 508.676 1055.18 507.161 1055.18 505.294V480.431C1055.17 478.557 1053.67 477.049 1051.8 477.049ZM982.793 491.865H1024.92V493.291H982.793V491.865ZM1046.9 498.384H982.793V496.958H1046.9V498.384ZM1046.9 488.401H982.793V486.975H1046.9V488.401Z" fill="#FFBE55"/>
<rect width="69.6643" height="18.2869" transform="translate(982.035 483.145)" fill="#FFBE55"/>
<text fill="white" xml:space="preserve" style="white-space: pre" font-family="Roboto" font-size="8" font-weight="600" letter-spacing="0em"><tspan x="982.035" y="490.379">Sign up APPOINTA </tspan><tspan x="982.035" y="499.379">for job interviews...</tspan></text>
<path d="M1060.51 487.329V511.684C1060.51 513.513 1061.99 514.997 1063.82 514.997H1115L1128.21 525.814V514.997H1132.97C1134.79 514.997 1136.27 513.513 1136.27 511.684V487.329C1136.27 485.5 1134.79 484.016 1132.97 484.016H1063.82C1061.99 484.016 1060.51 485.492 1060.51 487.329ZM1131.28 499.926H1090.09V498.529H1131.28V499.926ZM1068.61 503.518H1131.28V504.915H1068.61V503.518ZM1068.61 493.739H1131.28V495.136H1068.61V493.739Z" fill="#2A94F4"/>
<rect width="69.6643" height="18.2869" transform="translate(1065.63 490.111)" fill="#2A94F4"/>
<text fill="white" xml:space="preserve" style="white-space: pre" font-family="Roboto" font-size="8" font-weight="600" letter-spacing="0em"><tspan x="1065.63" y="497.346">And sync with our </tspan><tspan x="1065.63" y="506.346">calendar</tspan></text>
<g filter="url(#filter1_d_132_211)">
<rect width="1380" height="96" transform="translate(66 43)" fill="white"/>
<path d="M269.438 93.25V88.7656C269.438 88.151 269.318 87.5729 269.078 87.0312C268.849 86.4792 268.531 86 268.125 85.5938C267.719 85.1875 267.24 84.8698 266.688 84.6406C266.146 84.401 265.568 84.2812 264.953 84.2812C264.339 84.2812 263.755 84.401 263.203 84.6406C262.661 84.8698 262.188 85.1875 261.781 85.5938C261.375 86 261.052 86.4792 260.812 87.0312C260.583 87.5729 260.469 88.151 260.469 88.7656V93.25H269.438ZM273.922 102.203H269.438V97.7188H260.469V102.203H256V88.7656C256 87.526 256.234 86.3646 256.703 85.2812C257.172 84.1875 257.807 83.2344 258.609 82.4219C259.422 81.6094 260.37 80.9688 261.453 80.5C262.547 80.0312 263.714 79.7969 264.953 79.7969C266.193 79.7969 267.354 80.0312 268.438 80.5C269.531 80.9688 270.484 81.6094 271.297 82.4219C272.109 83.2344 272.75 84.1875 273.219 85.2812C273.688 86.3646 273.922 87.526 273.922 88.7656V102.203Z" fill="#5384ED"/>
<path d="M282.297 84.2812V93.25H286.781C287.396 93.25 287.974 93.1354 288.516 92.9062C289.057 92.6667 289.531 92.3438 289.938 91.9375C290.344 91.5312 290.661 91.0573 290.891 90.5156C291.13 89.9635 291.25 89.3802 291.25 88.7656C291.25 88.151 291.13 87.5729 290.891 87.0312C290.661 86.4792 290.344 86 289.938 85.5938C289.531 85.1875 289.057 84.8698 288.516 84.6406C287.974 84.401 287.396 84.2812 286.781 84.2812H282.297ZM282.297 102.203H277.812V79.7969H286.781C287.604 79.7969 288.396 79.9062 289.156 80.125C289.917 80.3333 290.625 80.6354 291.281 81.0312C291.948 81.4167 292.552 81.8854 293.094 82.4375C293.646 82.9792 294.115 83.5833 294.5 84.25C294.896 84.9167 295.198 85.6302 295.406 86.3906C295.625 87.151 295.734 87.9427 295.734 88.7656C295.734 89.9948 295.5 91.1562 295.031 92.25C294.562 93.3333 293.922 94.2812 293.109 95.0938C292.297 95.9062 291.344 96.5469 290.25 97.0156C289.167 97.4844 288.01 97.7188 286.781 97.7188H282.297V102.203Z" fill="#5384ED"/>
<path d="M302.859 84.2812V93.25H307.344C307.958 93.25 308.536 93.1354 309.078 92.9062C309.62 92.6667 310.094 92.3438 310.5 91.9375C310.906 91.5312 311.224 91.0573 311.453 90.5156C311.693 89.9635 311.812 89.3802 311.812 88.7656C311.812 88.151 311.693 87.5729 311.453 87.0312C311.224 86.4792 310.906 86 310.5 85.5938C310.094 85.1875 309.62 84.8698 309.078 84.6406C308.536 84.401 307.958 84.2812 307.344 84.2812H302.859ZM302.859 102.203H298.375V79.7969H307.344C308.167 79.7969 308.958 79.9062 309.719 80.125C310.479 80.3333 311.188 80.6354 311.844 81.0312C312.51 81.4167 313.115 81.8854 313.656 82.4375C314.208 82.9792 314.677 83.5833 315.062 84.25C315.458 84.9167 315.76 85.6302 315.969 86.3906C316.188 87.151 316.297 87.9427 316.297 88.7656C316.297 89.9948 316.062 91.1562 315.594 92.25C315.125 93.3333 314.484 94.2812 313.672 95.0938C312.859 95.9062 311.906 96.5469 310.812 97.0156C309.729 97.4844 308.573 97.7188 307.344 97.7188H302.859V102.203Z" fill="#5384ED"/>
<path d="M341.708 81.0249L345.589 87.7457L340.73 96.1635H337.489L342.349 87.7457L337.012 78.5L341.708 81.0249Z" fill="#5384ED" stroke="#5384ED" stroke-width="0.5" stroke-linecap="round" stroke-linejoin="round"/>
<path d="M320.297 88.8907L324.176 82.1698H333.895L335.516 84.9763H325.797L320.458 94.222L320.297 88.8907Z" fill="#5384ED" stroke="#5384ED" stroke-width="0.5" stroke-linecap="round" stroke-linejoin="round"/>
<path d="M337.815 103.5H330.053L325.194 95.0822L326.815 92.2773L331.673 100.694H342.349L337.815 103.5Z" fill="#5384ED" stroke="#5384ED" stroke-width="0.5" stroke-linecap="round" stroke-linejoin="round"/>
<path d="M345.819 94.686L342.848 99.8316H332.172L330.551 97.0267H341.227L345.656 89.3547L345.819 94.686Z" fill="#BACCF4" stroke="white" stroke-width="0.5" stroke-linecap="round" stroke-linejoin="round"/>
<path d="M323.927 100.229L320.956 95.0822L326.294 85.8365H329.534L324.196 95.0822L328.625 102.754L323.927 100.229Z" fill="#BACCF4" stroke="white" stroke-width="0.5" stroke-linecap="round" stroke-linejoin="round"/>
<path d="M330.072 78.5H336.015L341.353 87.7457L339.733 90.5521L334.396 81.3064H325.538L330.072 78.5Z" fill="#BACCF4" stroke="white" stroke-width="0.5" stroke-linecap="round" stroke-linejoin="round"/>
<path d="M354.303 102.203H349.819V79.7969H354.303V102.203Z" fill="#5384ED"/>
<path d="M376.397 102.203H371.6L362.959 87.4531V102.203H358.475V79.7969H363.272L371.913 94.5625V79.7969H376.397V102.203Z" fill="#5384ED"/>
<path d="M389.975 102.203H385.506V84.2812H378.772V79.7969H396.694V84.2812H389.975V102.203Z" fill="#5384ED"/>
<path d="M411.569 93.25V88.7656C411.569 88.151 411.449 87.5729 411.209 87.0312C410.98 86.4792 410.663 86 410.256 85.5938C409.85 85.1875 409.371 84.8698 408.819 84.6406C408.277 84.401 407.699 84.2812 407.084 84.2812C406.47 84.2812 405.887 84.401 405.334 84.6406C404.793 84.8698 404.319 85.1875 403.913 85.5938C403.506 86 403.183 86.4792 402.944 87.0312C402.715 87.5729 402.6 88.151 402.6 88.7656V93.25H411.569ZM416.053 102.203H411.569V97.7188H402.6V102.203H398.131V88.7656C398.131 87.526 398.366 86.3646 398.834 85.2812C399.303 84.1875 399.939 83.2344 400.741 82.4219C401.553 81.6094 402.501 80.9688 403.584 80.5C404.678 80.0312 405.845 79.7969 407.084 79.7969C408.324 79.7969 409.485 80.0312 410.569 80.5C411.663 80.9688 412.616 81.6094 413.428 82.4219C414.241 83.2344 414.881 84.1875 415.35 85.2812C415.819 86.3646 416.053 87.526 416.053 88.7656V102.203Z" fill="#5384ED"/>
<text fill="#7C8DB0" xml:space="preserve" style="white-space: pre" font-family="Roboto" font-size="18" font-weight="500" letter-spacing="0em"><tspan x="808.339" y="97.1523">Home</tspan></text>
<text fill="#7C8DB0" xml:space="preserve" style="white-space: pre" font-family="Roboto" font-size="18" font-weight="500" letter-spacing="0em"><tspan x="889.463" y="97.1523">Interviews</tspan></text>
<text fill="#7C8DB0" xml:space="preserve" style="white-space: pre" font-family="Roboto" font-size="18" font-weight="500" letter-spacing="0em"><tspan x="1005.42" y="97.1523">Team</tspan></text>
<path d="M1083 83C1083 74.1634 1090.16 67 1099 67H1224C1232.84 67 1240 74.1634 1240 83V99C1240 107.837 1232.84 115 1224 115H1099C1090.16 115 1083 107.837 1083 99V83Z" fill="#5384ED"/>
<text fill="#FAFAFA" xml:space="preserve" style="white-space: pre" font-family="Roboto" font-size="18" font-weight="500" letter-spacing="0em"><tspan x="1103" y="97.1523">Sign up/Log in</tspan></text>
</g>
<text fill="#102042" xml:space="preserve" style="white-space: pre" font-family="Roboto" font-size="56" font-weight="500" letter-spacing="0em"><tspan x="256" y="409.141">Recruiting Team</tspan></text>
<text fill="#5384ED" xml:space="preserve" style="white-space: pre" font-family="Roboto" font-size="56" font-weight="500" letter-spacing="0em"><tspan x="256" y="343.141">Simple Scheduling For </tspan></text>
<text fill="#898F9B" xml:space="preserve" style="white-space: pre" font-family="Roboto" font-size="24" letter-spacing="0em"><tspan x="256" y="461.203">Free online interview scheduling software </tspan><tspan x="256" y="489.203">with interview types, interview types &#38; </tspan><tspan x="256" y="517.203">Team management.&#10;</tspan></text>
<g filter="url(#filter2_d_132_211)">
<path d="M256 583C256 574.163 263.163 567 272 567H534V615H272C263.163 615 256 607.837 256 599V583Z" fill="white"/>
<text fill="#CBD4E6" xml:space="preserve" style="white-space: pre" font-family="Roboto" font-size="16" font-weight="500" letter-spacing="0em"><tspan x="272" y="596.469">Enter your email</tspan></text>
<path d="M534 567H619C627.837 567 635 574.163 635 583V599C635 607.837 627.837 615 619 615H534V567Z" fill="#5384ED"/>
<text fill="#FAFAFA" xml:space="preserve" style="white-space: pre" font-family="Roboto" font-size="18" font-weight="500" letter-spacing="0em"><tspan x="554" y="597.152">Sign up</tspan></text>
<rect x="255.5" y="566.5" width="380" height="49" rx="16.5" stroke="#5384ED" shape-rendering="crispEdges"/>
</g>
</g>
<rect x="66.5" y="43.5" width="1379" height="895.066" rx="31.5" stroke="#CBD4E6"/>
</g>
</g>
<defs>
<filter id="filter0_d_132_211" x="26" y="13" width="1480" height="996.066" filterUnits="userSpaceOnUse" color-interpolation-filters="sRGB">
<feFlood flood-opacity="0" result="BackgroundImageFix"/>
<feColorMatrix in="SourceAlpha" type="matrix" values="0 0 0 0 0 0 0 0 0 0 0 0 0 0 0 0 0 0 127 0" result="hardAlpha"/>
<feOffset dx="10" dy="20"/>
<feGaussianBlur stdDeviation="25"/>
<feComposite in2="hardAlpha" operator="out"/>
<feColorMatrix type="matrix" values="0 0 0 0 0.603922 0 0 0 0 0.658824 0 0 0 0 0.780392 0 0 0 0.25 0"/>
<feBlend mode="normal" in2="BackgroundImageFix" result="effect1_dropShadow_132_211"/>
<feBlend mode="normal" in="SourceGraphic" in2="effect1_dropShadow_132_211" result="shape"/>
</filter>
<filter id="filter1_d_132_211" x="62" y="43" width="1388" height="104" filterUnits="userSpaceOnUse" color-interpolation-filters="sRGB">
<feFlood flood-opacity="0" result="BackgroundImageFix"/>
<feColorMatrix in="SourceAlpha" type="matrix" values="0 0 0 0 0 0 0 0 0 0 0 0 0 0 0 0 0 0 127 0" result="hardAlpha"/>
<feOffset dy="4"/>
<feGaussianBlur stdDeviation="2"/>
<feComposite in2="hardAlpha" operator="out"/>
<feColorMatrix type="matrix" values="0 0 0 0 0.780392 0 0 0 0 0.780392 0 0 0 0 0.780392 0 0 0 0.25 0"/>
<feBlend mode="normal" in2="BackgroundImageFix" result="effect1_dropShadow_132_211"/>
<feBlend mode="normal" in="SourceGraphic" in2="effect1_dropShadow_132_211" result="shape"/>
</filter>
<filter id="filter2_d_132_211" x="248" y="560" width="405" height="74" filterUnits="userSpaceOnUse" color-interpolation-filters="sRGB">
<feFlood flood-opacity="0" result="BackgroundImageFix"/>
<feColorMatrix in="SourceAlpha" type="matrix" values="0 0 0 0 0 0 0 0 0 0 0 0 0 0 0 0 0 0 127 0" result="hardAlpha"/>
<feOffset dx="5" dy="6"/>
<feGaussianBlur stdDeviation="6"/>
<feComposite in2="hardAlpha" operator="out"/>
<feColorMatrix type="matrix" values="0 0 0 0 0.603922 0 0 0 0 0.658824 0 0 0 0 0.780392 0 0 0 0.37 0"/>
<feBlend mode="normal" in2="BackgroundImageFix" result="effect1_dropShadow_132_211"/>
<feBlend mode="normal" in="SourceGraphic" in2="effect1_dropShadow_132_211" result="shape"/>
</filter>
<clipPath id="clip0_132_211">
<rect width="1512" height="982" fill="white"/>
</clipPath>
<clipPath id="clip1_132_211">
<rect x="66" y="43" width="1380" height="896.066" rx="32" fill="white"/>
</clipPath>
</defs>
</svg>
