<svg width="6509" height="1500" viewBox="0 0 6509 1500" fill="none" xmlns="http://www.w3.org/2000/svg">
<rect width="445" height="83" transform="translate(927 196)" fill="#5384ED"/>
<text fill="white" xml:space="preserve" style="white-space: pre" font-family="Inter" font-size="42" font-weight="500" letter-spacing="0em"><tspan x="959" y="252.773">Interview canceled</tspan></text>
<g clip-path="url(#clip0_3003_17411)">
<rect width="1440" height="1024" transform="translate(927 279)" fill="white"/>
<g filter="url(#filter0_d_3003_17411)">
<rect x="927" y="279" width="1440" height="80" fill="white"/>
</g>
<g clip-path="url(#clip1_3003_17411)">
<path d="M2295.52 319C2295.52 331.749 2285.69 342 2273.67 342C2261.64 342 2251.81 331.749 2251.81 319C2251.81 306.251 2261.64 296 2273.67 296C2285.69 296 2295.52 306.251 2295.52 319Z" fill="#F5F5F5" stroke="#AAAAAA" stroke-width="2"/>
<mask id="path-4-inside-1_3003_17411" fill="white">
<path fill-rule="evenodd" clip-rule="evenodd" d="M2256.52 334.875V334C2256.52 328.015 2267.95 325 2273.67 325C2279.39 325 2290.81 328.015 2290.81 334V334.875C2286.62 339.857 2280.49 343 2273.67 343C2266.84 343 2260.71 339.857 2256.52 334.875ZM2273.67 305C2268.93 305 2265.1 309.028 2265.1 314C2265.1 318.972 2268.93 323 2273.67 323C2278.4 323 2282.24 318.972 2282.24 314C2282.24 309.028 2278.4 305 2273.67 305Z"/>
</mask>
<path fill-rule="evenodd" clip-rule="evenodd" d="M2256.52 334.875V334C2256.52 328.015 2267.95 325 2273.67 325C2279.39 325 2290.81 328.015 2290.81 334V334.875C2286.62 339.857 2280.49 343 2273.67 343C2266.84 343 2260.71 339.857 2256.52 334.875ZM2273.67 305C2268.93 305 2265.1 309.028 2265.1 314C2265.1 318.972 2268.93 323 2273.67 323C2278.4 323 2282.24 318.972 2282.24 314C2282.24 309.028 2278.4 305 2273.67 305Z" fill="#F5F5F5"/>
<path d="M2256.52 334.875H2254.52V335.604L2254.99 336.162L2256.52 334.875ZM2290.81 334.875L2292.34 336.162L2292.81 335.604V334.875H2290.81ZM2258.52 334.875V334H2254.52V334.875H2258.52ZM2258.52 334C2258.52 333.202 2258.89 332.378 2259.79 331.505C2260.71 330.616 2262.07 329.796 2263.73 329.099C2267.05 327.702 2271.07 327 2273.67 327V323C2270.54 323 2265.99 323.806 2262.17 325.412C2260.26 326.217 2258.41 327.273 2257.01 328.633C2255.59 330.009 2254.52 331.806 2254.52 334H2258.52ZM2273.67 327C2276.26 327 2280.29 327.702 2283.61 329.099C2285.27 329.796 2286.63 330.616 2287.54 331.505C2288.44 332.378 2288.81 333.202 2288.81 334H2292.81C2292.81 331.806 2291.75 330.009 2290.33 328.633C2288.92 327.273 2287.07 326.217 2285.16 325.412C2281.34 323.806 2276.79 323 2273.67 323V327ZM2288.81 334V334.875H2292.81V334H2288.81ZM2289.28 333.588C2285.44 338.153 2279.86 341 2273.67 341V345C2281.13 345 2287.8 341.562 2292.34 336.162L2289.28 333.588ZM2273.67 341C2267.47 341 2261.89 338.153 2258.05 333.588L2254.99 336.162C2259.53 341.562 2266.21 345 2273.67 345V341ZM2267.1 314C2267.1 310.039 2270.13 307 2273.67 307V303C2267.74 303 2263.1 308.016 2263.1 314H2267.1ZM2273.67 321C2270.13 321 2267.1 317.961 2267.1 314H2263.1C2263.1 319.984 2267.74 325 2273.67 325V321ZM2280.24 314C2280.24 317.961 2277.21 321 2273.67 321V325C2279.6 325 2284.24 319.984 2284.24 314H2280.24ZM2273.67 307C2277.21 307 2280.24 310.039 2280.24 314H2284.24C2284.24 308.016 2279.6 303 2273.67 303V307Z" fill="#AAAAAA" mask="url(#path-4-inside-1_3003_17411)"/>
</g>
<path d="M987.952 295H1040.33V335H987.952V295Z" fill="#F5F5F5"/>
<path d="M993.952 301L1033.95 329" stroke="#AAAAAA" stroke-width="2"/>
<path d="M1033.95 301L993.952 329" stroke="#AAAAAA" stroke-width="2"/>
<path d="M987.952 295V293H985.952V295H987.952ZM1040.33 295H1042.33V293H1040.33V295ZM1040.33 335V337H1042.33V335H1040.33ZM987.952 335H985.952V337H987.952V335ZM987.952 297H1040.33V293H987.952V297ZM1038.33 295V335H1042.33V295H1038.33ZM1040.33 333H987.952V337H1040.33V333ZM989.952 335V295H985.952V335H989.952Z" fill="#AAAAAA"/>
<rect x="1247" y="462" width="864" height="580" rx="32" fill="#F5F5F5"/>
<rect width="800" height="48" transform="translate(1279 494)" fill="white"/>
<g filter="url(#filter1_i_3003_17411)">
<rect width="266.667" height="48" transform="translate(1279 494)" fill="white"/>
<text fill="#333333" xml:space="preserve" style="white-space: pre" font-family="Chalkboard" font-size="16" letter-spacing="0em"><tspan x="1354" y="523.578">Interview types</tspan></text>
</g>
<g filter="url(#filter2_i_3003_17411)">
<rect width="266.667" height="48" transform="translate(1812.33 494)" fill="white"/>
<text fill="#7D7D7D" xml:space="preserve" style="white-space: pre" font-family="Chalkboard" font-size="16" letter-spacing="0em"><tspan x="1891.83" y="523.578">Team members</tspan></text>
</g>
<g filter="url(#filter3_i_3003_17411)">
<rect width="266.667" height="48" transform="translate(1545.67 494)" fill="white"/>
<text fill="#7D7D7D" xml:space="preserve" style="white-space: pre" font-family="Chalkboard" font-size="16" letter-spacing="0em"><tspan x="1605.17" y="523.578">Scheduled interview</tspan></text>
</g>
<rect x="1279" y="574" width="800" height="112" rx="8" fill="white"/>
<path d="M1311 610C1311 607.791 1312.79 606 1315 606H1541.67C1543.88 606 1545.67 607.791 1545.67 610V650C1545.67 652.209 1543.88 654 1541.67 654H1315C1312.79 654 1311 652.209 1311 650V610Z" fill="white"/>
<path d="M1517 637C1521.42 637 1525 633.418 1525 629C1525 624.582 1521.42 621 1517 621C1512.58 621 1509 624.582 1509 629C1509 633.418 1512.58 637 1517 637Z" stroke="#898F9B" stroke-width="2" stroke-linecap="round" stroke-linejoin="round"/>
<path d="M1527 639L1522.65 634.65" stroke="#898F9B" stroke-width="2" stroke-linecap="round" stroke-linejoin="round"/>
<text fill="#7D7D7D" xml:space="preserve" style="white-space: pre" font-family="Chalkboard" font-size="16" letter-spacing="0em"><tspan x="1327" y="635.578">Search</tspan></text>
<text fill="#767676" xml:space="preserve" style="white-space: pre" font-family="Chalkboard" font-size="14" letter-spacing="0em"><tspan x="1311" y="598.881">Search</tspan></text>
<path d="M1315 608H1541.67V604H1315V608ZM1543.67 610V650H1547.67V610H1543.67ZM1541.67 652H1315V656H1541.67V652ZM1313 650V610H1309V650H1313ZM1315 652C1313.9 652 1313 651.105 1313 650H1309C1309 653.314 1311.69 656 1315 656V652ZM1543.67 650C1543.67 651.105 1542.77 652 1541.67 652V656C1544.98 656 1547.67 653.314 1547.67 650H1543.67ZM1541.67 608C1542.77 608 1543.67 608.895 1543.67 610H1547.67C1547.67 606.686 1544.98 604 1541.67 604V608ZM1315 604C1311.69 604 1309 606.686 1309 610H1313C1313 608.895 1313.9 608 1315 608V604Z" fill="#AAAAAA"/>
<path d="M1561.67 610C1561.67 607.791 1563.46 606 1565.67 606H1792.33C1794.54 606 1796.33 607.791 1796.33 610V650C1796.33 652.209 1794.54 654 1792.33 654H1565.67C1563.46 654 1561.67 652.209 1561.67 650V610Z" fill="white"/>
<path d="M1762.67 627L1768.67 633L1774.67 627" stroke="#898F9B" stroke-width="2" stroke-linecap="round" stroke-linejoin="round"/>
<text fill="#7D7D7D" xml:space="preserve" style="white-space: pre" font-family="Chalkboard" font-size="16" letter-spacing="0em"><tspan x="1577.67" y="635.578">Front-end phone screen</tspan></text>
<text fill="#767676" xml:space="preserve" style="white-space: pre" font-family="Chalkboard" font-size="14" letter-spacing="0em"><tspan x="1561.67" y="598.881">Interview type</tspan></text>
<path d="M1565.67 608H1792.33V604H1565.67V608ZM1794.33 610V650H1798.33V610H1794.33ZM1792.33 652H1565.67V656H1792.33V652ZM1563.67 650V610H1559.67V650H1563.67ZM1565.67 652C1564.56 652 1563.67 651.105 1563.67 650H1559.67C1559.67 653.314 1562.35 656 1565.67 656V652ZM1794.33 650C1794.33 651.105 1793.44 652 1792.33 652V656C1795.65 656 1798.33 653.314 1798.33 650H1794.33ZM1792.33 608C1793.44 608 1794.33 608.895 1794.33 610H1798.33C1798.33 606.686 1795.65 604 1792.33 604V608ZM1565.67 604C1562.35 604 1559.67 606.686 1559.67 610H1563.67C1563.67 608.895 1564.56 608 1565.67 608V604Z" fill="#AAAAAA"/>
<path d="M1812.33 610C1812.33 607.791 1814.12 606 1816.33 606H2043C2045.21 606 2047 607.791 2047 610V650C2047 652.209 2045.21 654 2043 654H1816.33C1814.12 654 1812.33 652.209 1812.33 650V610Z" fill="white"/>
<path d="M2026.33 622H2012.33C2011.23 622 2010.33 622.895 2010.33 624V638C2010.33 639.105 2011.23 640 2012.33 640H2026.33C2027.44 640 2028.33 639.105 2028.33 638V624C2028.33 622.895 2027.44 622 2026.33 622Z" stroke="#898F9B" stroke-width="2" stroke-linecap="round" stroke-linejoin="round"/>
<path d="M2023.33 620V624" stroke="#898F9B" stroke-width="2" stroke-linecap="round" stroke-linejoin="round"/>
<path d="M2015.33 620V624" stroke="#898F9B" stroke-width="2" stroke-linecap="round" stroke-linejoin="round"/>
<path d="M2010.33 628H2028.33" stroke="#898F9B" stroke-width="2" stroke-linecap="round" stroke-linejoin="round"/>
<text fill="#7D7D7D" xml:space="preserve" style="white-space: pre" font-family="Chalkboard" font-size="16" letter-spacing="0em"><tspan x="1828.33" y="635.578">Jun 14 - Jun 23, 2022</tspan></text>
<text fill="#767676" xml:space="preserve" style="white-space: pre" font-family="Chalkboard" font-size="14" letter-spacing="0em"><tspan x="1812.33" y="598.881">Date range</tspan></text>
<path d="M1816.33 608H2043V604H1816.33V608ZM2045 610V650H2049V610H2045ZM2043 652H1816.33V656H2043V652ZM1814.33 650V610H1810.33V650H1814.33ZM1816.33 652C1815.23 652 1814.33 651.105 1814.33 650H1810.33C1810.33 653.314 1813.02 656 1816.33 656V652ZM2045 650C2045 651.105 2044.1 652 2043 652V656C2046.31 656 2049 653.314 2049 650H2045ZM2043 608C2044.1 608 2045 608.895 2045 610H2049C2049 606.686 2046.31 604 2043 604V608ZM1816.33 604C1813.02 604 1810.33 606.686 1810.33 610H1814.33C1814.33 608.895 1815.23 608 1816.33 608V604Z" fill="#AAAAAA"/>
<mask id="path-34-inside-2_3003_17411" fill="white">
<path d="M1279 718H2079V864H1279V718Z"/>
</mask>
<path d="M1279 718H2079V864H1279V718Z" fill="white"/>
<text fill="black" xml:space="preserve" style="white-space: pre" font-family="Chalkboard" font-size="18" letter-spacing="0em"><tspan x="1311" y="767.275">Friday, June 18, 2022</tspan></text>
<text fill="black" xml:space="preserve" style="white-space: pre" font-family="Chalkboard" font-size="18" letter-spacing="0em"><tspan x="1311" y="797.275">2:30 pm -3:30 pm</tspan></text>
<text fill="black" xml:space="preserve" style="white-space: pre" font-family="Chalkboard" font-size="18" letter-spacing="0em"><tspan x="1550" y="767.275">Interview type</tspan></text>
<text fill="black" xml:space="preserve" style="white-space: pre" font-family="Chalkboard" font-size="18" letter-spacing="0em"><tspan x="1550" y="797.275">Candidate name</tspan></text>
<text fill="black" xml:space="preserve" style="white-space: pre" font-family="Chalkboard" font-size="18" letter-spacing="0em"><tspan x="1550" y="827.275">Location</tspan></text>
<path d="M1903 754C1903 751.791 1904.79 750 1907 750H2043C2045.21 750 2047 751.791 2047 754V778C2047 780.209 2045.21 782 2043 782H1907C1904.79 782 1903 780.209 1903 778V754Z" fill="white"/>
<text fill="#333333" xml:space="preserve" style="white-space: pre" font-family="Chalkboard" font-size="16" letter-spacing="0em"><tspan x="1915" y="771.578">Cancel interview</tspan></text>
<path d="M1907 752H2043V748H1907V752ZM2045 754V778H2049V754H2045ZM2043 780H1907V784H2043V780ZM1905 778V754H1901V778H1905ZM1907 780C1905.9 780 1905 779.105 1905 778H1901C1901 781.314 1903.69 784 1907 784V780ZM2045 778C2045 779.105 2044.1 780 2043 780V784C2046.31 784 2049 781.314 2049 778H2045ZM2043 752C2044.1 752 2045 752.895 2045 754H2049C2049 750.686 2046.31 748 2043 748V752ZM1907 748C1903.69 748 1901 750.686 1901 754H1905C1905 752.895 1905.9 752 1907 752V748Z" fill="#333333"/>
<path d="M2079 862H1279V866H2079V862Z" fill="#AAAAAA" mask="url(#path-34-inside-2_3003_17411)"/>
<mask id="path-44-inside-3_3003_17411" fill="white">
<path d="M1279 864H2079V1010H1279V864Z"/>
</mask>
<path d="M1279 864H2079V1010H1279V864Z" fill="white"/>
<text fill="black" xml:space="preserve" style="white-space: pre" font-family="Chalkboard" font-size="18" letter-spacing="0em"><tspan x="1311" y="913.275">Friday, June 18, 2022</tspan></text>
<text fill="black" xml:space="preserve" style="white-space: pre" font-family="Chalkboard" font-size="18" letter-spacing="0em"><tspan x="1311" y="943.275">4:30 pm -5:30 pm</tspan></text>
<text fill="black" xml:space="preserve" style="white-space: pre" font-family="Chalkboard" font-size="18" letter-spacing="0em"><tspan x="1550" y="913.275">Interview type</tspan></text>
<text fill="black" xml:space="preserve" style="white-space: pre" font-family="Chalkboard" font-size="18" letter-spacing="0em"><tspan x="1550" y="943.275">Candidate name</tspan></text>
<text fill="black" xml:space="preserve" style="white-space: pre" font-family="Chalkboard" font-size="18" letter-spacing="0em"><tspan x="1550" y="973.275">Location</tspan></text>
<path d="M1903 900C1903 897.791 1904.79 896 1907 896H2043C2045.21 896 2047 897.791 2047 900V924C2047 926.209 2045.21 928 2043 928H1907C1904.79 928 1903 926.209 1903 924V900Z" fill="white"/>
<text fill="#333333" xml:space="preserve" style="white-space: pre" font-family="Chalkboard" font-size="16" letter-spacing="0em"><tspan x="1915" y="917.578">Cancel interview</tspan></text>
<path d="M1907 898H2043V894H1907V898ZM2045 900V924H2049V900H2045ZM2043 926H1907V930H2043V926ZM1905 924V900H1901V924H1905ZM1907 926C1905.9 926 1905 925.105 1905 924H1901C1901 927.314 1903.69 930 1907 930V926ZM2045 924C2045 925.105 2044.1 926 2043 926V930C2046.31 930 2049 927.314 2049 924H2045ZM2043 898C2044.1 898 2045 898.895 2045 900H2049C2049 896.686 2046.31 894 2043 894V898ZM1907 894C1903.69 894 1901 896.686 1901 900H1905C1905 898.895 1905.9 898 1907 898V894Z" fill="#333333"/>
<path d="M2079 1008H1279V1012H2079V1008Z" fill="#AAAAAA" mask="url(#path-44-inside-3_3003_17411)"/>
<path d="M1444 394C1444 391.791 1445.79 390 1448 390H1904C1906.21 390 1908 391.791 1908 394V442C1908 444.209 1906.21 446 1904 446H1448C1445.79 446 1444 444.209 1444 442V394Z" fill="#F5F5F5"/>
<path d="M1482 417.08V418C1482 420.156 1481.3 422.255 1480.01 423.982C1478.72 425.709 1476.9 426.972 1474.84 427.584C1472.77 428.195 1470.56 428.122 1468.54 427.374C1466.51 426.627 1464.79 425.246 1463.61 423.437C1462.44 421.628 1461.88 419.488 1462.02 417.336C1462.16 415.184 1463 413.136 1464.4 411.497C1465.8 409.858 1467.69 408.715 1469.8 408.24C1471.9 407.765 1474.1 407.982 1476.07 408.86" stroke="#DEB650" stroke-width="2" stroke-linecap="round" stroke-linejoin="round"/>
<path d="M1482 410L1472 420.01L1469 417.01" stroke="#DEB650" stroke-width="2" stroke-linecap="round" stroke-linejoin="round"/>
<text fill="#DEB650" xml:space="preserve" style="white-space: pre" font-family="Chalkboard" font-size="16" letter-spacing="0em"><tspan x="1492" y="423.578">The interview has been successfully canceled!</tspan></text>
<path d="M1886 412L1874 424" stroke="#DEB650" stroke-width="2" stroke-linecap="round" stroke-linejoin="round"/>
<path d="M1874 412L1886 424" stroke="#DEB650" stroke-width="2" stroke-linecap="round" stroke-linejoin="round"/>
<path d="M1448 392H1904V388H1448V392ZM1906 394V442H1910V394H1906ZM1904 444H1448V448H1904V444ZM1446 442V394H1442V442H1446ZM1448 444C1446.9 444 1446 443.105 1446 442H1442C1442 445.314 1444.69 448 1448 448V444ZM1906 442C1906 443.105 1905.1 444 1904 444V448C1907.31 448 1910 445.314 1910 442H1906ZM1904 392C1905.1 392 1906 392.895 1906 394H1910C1910 390.686 1907.31 388 1904 388V392ZM1448 388C1444.69 388 1442 390.686 1442 394H1446C1446 392.895 1446.9 392 1448 392V388Z" fill="#DEB650"/>
</g>
<rect width="498" height="83" transform="translate(2535 196)" fill="#5384ED"/>
<text fill="white" xml:space="preserve" style="white-space: pre" font-family="Inter" font-size="42" font-weight="500" letter-spacing="0em"><tspan x="2567" y="252.773">Scheduled interviews</tspan></text>
<g clip-path="url(#clip2_3003_17411)">
<rect width="1440" height="1024" transform="translate(2535 279)" fill="white"/>
<g filter="url(#filter4_d_3003_17411)">
<rect x="2535" y="279" width="1440" height="80" fill="white"/>
</g>
<g clip-path="url(#clip3_3003_17411)">
<path d="M3903.52 319C3903.52 331.749 3893.69 342 3881.67 342C3869.64 342 3859.81 331.749 3859.81 319C3859.81 306.251 3869.64 296 3881.67 296C3893.69 296 3903.52 306.251 3903.52 319Z" fill="#F5F5F5" stroke="#AAAAAA" stroke-width="2"/>
<mask id="path-64-inside-4_3003_17411" fill="white">
<path fill-rule="evenodd" clip-rule="evenodd" d="M3864.52 334.875V334C3864.52 328.015 3875.94 325 3881.67 325C3887.39 325 3898.81 328.015 3898.81 334V334.875C3894.62 339.857 3888.49 343 3881.67 343C3874.84 343 3868.71 339.857 3864.52 334.875ZM3881.67 305C3876.93 305 3873.09 309.028 3873.09 314C3873.09 318.972 3876.93 323 3881.67 323C3886.4 323 3890.24 318.972 3890.24 314C3890.24 309.028 3886.4 305 3881.67 305Z"/>
</mask>
<path fill-rule="evenodd" clip-rule="evenodd" d="M3864.52 334.875V334C3864.52 328.015 3875.94 325 3881.67 325C3887.39 325 3898.81 328.015 3898.81 334V334.875C3894.62 339.857 3888.49 343 3881.67 343C3874.84 343 3868.71 339.857 3864.52 334.875ZM3881.67 305C3876.93 305 3873.09 309.028 3873.09 314C3873.09 318.972 3876.93 323 3881.67 323C3886.4 323 3890.24 318.972 3890.24 314C3890.24 309.028 3886.4 305 3881.67 305Z" fill="#F5F5F5"/>
<path d="M3864.52 334.875H3862.52V335.604L3862.99 336.162L3864.52 334.875ZM3898.81 334.875L3900.34 336.162L3900.81 335.604V334.875H3898.81ZM3866.52 334.875V334H3862.52V334.875H3866.52ZM3866.52 334C3866.52 333.202 3866.89 332.378 3867.79 331.505C3868.71 330.616 3870.07 329.796 3871.72 329.099C3875.05 327.702 3879.07 327 3881.67 327V323C3878.54 323 3873.99 323.806 3870.17 325.412C3868.26 326.217 3866.41 327.273 3865.01 328.633C3863.59 330.009 3862.52 331.806 3862.52 334H3866.52ZM3881.67 327C3884.26 327 3888.29 327.702 3891.61 329.099C3893.27 329.796 3894.63 330.616 3895.54 331.505C3896.44 332.378 3896.81 333.202 3896.81 334H3900.81C3900.81 331.806 3899.75 330.009 3898.33 328.633C3896.92 327.273 3895.07 326.217 3893.16 325.412C3889.34 323.806 3884.79 323 3881.67 323V327ZM3896.81 334V334.875H3900.81V334H3896.81ZM3897.28 333.588C3893.44 338.153 3887.86 341 3881.67 341V345C3889.13 345 3895.8 341.562 3900.34 336.162L3897.28 333.588ZM3881.67 341C3875.47 341 3869.89 338.153 3866.05 333.588L3862.99 336.162C3867.53 341.562 3874.21 345 3881.67 345V341ZM3875.09 314C3875.09 310.039 3878.13 307 3881.67 307V303C3875.74 303 3871.09 308.016 3871.09 314H3875.09ZM3881.67 321C3878.13 321 3875.09 317.961 3875.09 314H3871.09C3871.09 319.984 3875.74 325 3881.67 325V321ZM3888.24 314C3888.24 317.961 3885.21 321 3881.67 321V325C3887.6 325 3892.24 319.984 3892.24 314H3888.24ZM3881.67 307C3885.21 307 3888.24 310.039 3888.24 314H3892.24C3892.24 308.016 3887.6 303 3881.67 303V307Z" fill="#AAAAAA" mask="url(#path-64-inside-4_3003_17411)"/>
</g>
<path d="M2595.95 295H2648.33V335H2595.95V295Z" fill="#F5F5F5"/>
<path d="M2601.95 301L2641.95 329" stroke="#AAAAAA" stroke-width="2"/>
<path d="M2641.95 301L2601.95 329" stroke="#AAAAAA" stroke-width="2"/>
<path d="M2595.95 295V293H2593.95V295H2595.95ZM2648.33 295H2650.33V293H2648.33V295ZM2648.33 335V337H2650.33V335H2648.33ZM2595.95 335H2593.95V337H2595.95V335ZM2595.95 297H2648.33V293H2595.95V297ZM2646.33 295V335H2650.33V295H2646.33ZM2648.33 333H2595.95V337H2648.33V333ZM2597.95 335V295H2593.95V335H2597.95Z" fill="#AAAAAA"/>
<rect x="2855" y="462" width="864" height="726" rx="32" fill="#F5F5F5"/>
<rect width="800" height="48" transform="translate(2887 494)" fill="white"/>
<g filter="url(#filter5_i_3003_17411)">
<rect width="266.667" height="48" transform="translate(2887 494)" fill="white"/>
<text fill="#333333" xml:space="preserve" style="white-space: pre" font-family="Chalkboard" font-size="16" letter-spacing="0em"><tspan x="2962" y="523.578">Interview types</tspan></text>
</g>
<g filter="url(#filter6_i_3003_17411)">
<rect width="266.667" height="48" transform="translate(3420.33 494)" fill="white"/>
<text fill="#7D7D7D" xml:space="preserve" style="white-space: pre" font-family="Chalkboard" font-size="16" letter-spacing="0em"><tspan x="3499.83" y="523.578">Team members</tspan></text>
</g>
<g filter="url(#filter7_i_3003_17411)">
<rect width="266.667" height="48" transform="translate(3153.67 494)" fill="white"/>
<text fill="#7D7D7D" xml:space="preserve" style="white-space: pre" font-family="Chalkboard" font-size="16" letter-spacing="0em"><tspan x="3213.17" y="523.578">Scheduled interview</tspan></text>
</g>
<rect x="2887" y="574" width="800" height="112" rx="8" fill="white"/>
<path d="M2919 610C2919 607.791 2920.79 606 2923 606H3149.67C3151.88 606 3153.67 607.791 3153.67 610V650C3153.67 652.209 3151.88 654 3149.67 654H2923C2920.79 654 2919 652.209 2919 650V610Z" fill="white"/>
<path d="M3125 637C3129.42 637 3133 633.418 3133 629C3133 624.582 3129.42 621 3125 621C3120.58 621 3117 624.582 3117 629C3117 633.418 3120.58 637 3125 637Z" stroke="#898F9B" stroke-width="2" stroke-linecap="round" stroke-linejoin="round"/>
<path d="M3135 639L3130.65 634.65" stroke="#898F9B" stroke-width="2" stroke-linecap="round" stroke-linejoin="round"/>
<text fill="#7D7D7D" xml:space="preserve" style="white-space: pre" font-family="Chalkboard" font-size="16" letter-spacing="0em"><tspan x="2935" y="635.578">Search</tspan></text>
<text fill="#767676" xml:space="preserve" style="white-space: pre" font-family="Chalkboard" font-size="14" letter-spacing="0em"><tspan x="2919" y="598.881">Search</tspan></text>
<path d="M2923 608H3149.67V604H2923V608ZM3151.67 610V650H3155.67V610H3151.67ZM3149.67 652H2923V656H3149.67V652ZM2921 650V610H2917V650H2921ZM2923 652C2921.9 652 2921 651.105 2921 650H2917C2917 653.314 2919.69 656 2923 656V652ZM3151.67 650C3151.67 651.105 3150.77 652 3149.67 652V656C3152.98 656 3155.67 653.314 3155.67 650H3151.67ZM3149.67 608C3150.77 608 3151.67 608.895 3151.67 610H3155.67C3155.67 606.686 3152.98 604 3149.67 604V608ZM2923 604C2919.69 604 2917 606.686 2917 610H2921C2921 608.895 2921.9 608 2923 608V604Z" fill="#AAAAAA"/>
<path d="M3169.67 610C3169.67 607.791 3171.46 606 3173.67 606H3400.33C3402.54 606 3404.33 607.791 3404.33 610V650C3404.33 652.209 3402.54 654 3400.33 654H3173.67C3171.46 654 3169.67 652.209 3169.67 650V610Z" fill="white"/>
<path d="M3370.67 627L3376.67 633L3382.67 627" stroke="#898F9B" stroke-width="2" stroke-linecap="round" stroke-linejoin="round"/>
<text fill="#7D7D7D" xml:space="preserve" style="white-space: pre" font-family="Chalkboard" font-size="16" letter-spacing="0em"><tspan x="3185.67" y="635.578">Front-end phone screen</tspan></text>
<text fill="#767676" xml:space="preserve" style="white-space: pre" font-family="Chalkboard" font-size="14" letter-spacing="0em"><tspan x="3169.67" y="598.881">Interview type</tspan></text>
<path d="M3173.67 608H3400.33V604H3173.67V608ZM3402.33 610V650H3406.33V610H3402.33ZM3400.33 652H3173.67V656H3400.33V652ZM3171.67 650V610H3167.67V650H3171.67ZM3173.67 652C3172.56 652 3171.67 651.105 3171.67 650H3167.67C3167.67 653.314 3170.35 656 3173.67 656V652ZM3402.33 650C3402.33 651.105 3401.44 652 3400.33 652V656C3403.65 656 3406.33 653.314 3406.33 650H3402.33ZM3400.33 608C3401.44 608 3402.33 608.895 3402.33 610H3406.33C3406.33 606.686 3403.65 604 3400.33 604V608ZM3173.67 604C3170.35 604 3167.67 606.686 3167.67 610H3171.67C3171.67 608.895 3172.56 608 3173.67 608V604Z" fill="#AAAAAA"/>
<path d="M3420.33 610C3420.33 607.791 3422.12 606 3424.33 606H3651C3653.21 606 3655 607.791 3655 610V650C3655 652.209 3653.21 654 3651 654H3424.33C3422.12 654 3420.33 652.209 3420.33 650V610Z" fill="white"/>
<path d="M3634.33 622H3620.33C3619.23 622 3618.33 622.895 3618.33 624V638C3618.33 639.105 3619.23 640 3620.33 640H3634.33C3635.44 640 3636.33 639.105 3636.33 638V624C3636.33 622.895 3635.44 622 3634.33 622Z" stroke="#898F9B" stroke-width="2" stroke-linecap="round" stroke-linejoin="round"/>
<path d="M3631.33 620V624" stroke="#898F9B" stroke-width="2" stroke-linecap="round" stroke-linejoin="round"/>
<path d="M3623.33 620V624" stroke="#898F9B" stroke-width="2" stroke-linecap="round" stroke-linejoin="round"/>
<path d="M3618.33 628H3636.33" stroke="#898F9B" stroke-width="2" stroke-linecap="round" stroke-linejoin="round"/>
<text fill="#7D7D7D" xml:space="preserve" style="white-space: pre" font-family="Chalkboard" font-size="16" letter-spacing="0em"><tspan x="3436.33" y="635.578">Jun 14 - Jun 23, 2022</tspan></text>
<text fill="#767676" xml:space="preserve" style="white-space: pre" font-family="Chalkboard" font-size="14" letter-spacing="0em"><tspan x="3420.33" y="598.881">Date range</tspan></text>
<path d="M3424.33 608H3651V604H3424.33V608ZM3653 610V650H3657V610H3653ZM3651 652H3424.33V656H3651V652ZM3422.33 650V610H3418.33V650H3422.33ZM3424.33 652C3423.23 652 3422.33 651.105 3422.33 650H3418.33C3418.33 653.314 3421.02 656 3424.33 656V652ZM3653 650C3653 651.105 3652.1 652 3651 652V656C3654.31 656 3657 653.314 3657 650H3653ZM3651 608C3652.1 608 3653 608.895 3653 610H3657C3657 606.686 3654.31 604 3651 604V608ZM3424.33 604C3421.02 604 3418.33 606.686 3418.33 610H3422.33C3422.33 608.895 3423.23 608 3424.33 608V604Z" fill="#AAAAAA"/>
<mask id="path-94-inside-5_3003_17411" fill="white">
<path d="M2887 718H3687V864H2887V718Z"/>
</mask>
<path d="M2887 718H3687V864H2887V718Z" fill="white"/>
<text fill="black" xml:space="preserve" style="white-space: pre" font-family="Chalkboard" font-size="18" letter-spacing="0em"><tspan x="2919" y="767.275">Friday, June 17, 2022</tspan></text>
<text fill="black" xml:space="preserve" style="white-space: pre" font-family="Chalkboard" font-size="18" letter-spacing="0em"><tspan x="2919" y="797.275">12:30 pm -1:30 pm</tspan></text>
<text fill="black" xml:space="preserve" style="white-space: pre" font-family="Chalkboard" font-size="18" letter-spacing="0em"><tspan x="3156" y="767.275">Interview type</tspan></text>
<text fill="black" xml:space="preserve" style="white-space: pre" font-family="Chalkboard" font-size="18" letter-spacing="0em"><tspan x="3156" y="797.275">Candidate name</tspan></text>
<text fill="black" xml:space="preserve" style="white-space: pre" font-family="Chalkboard" font-size="18" letter-spacing="0em"><tspan x="3156" y="827.275">Location</tspan></text>
<path d="M3511 754C3511 751.791 3512.79 750 3515 750H3651C3653.21 750 3655 751.791 3655 754V778C3655 780.209 3653.21 782 3651 782H3515C3512.79 782 3511 780.209 3511 778V754Z" fill="white"/>
<text fill="#333333" xml:space="preserve" style="white-space: pre" font-family="Chalkboard" font-size="16" letter-spacing="0em"><tspan x="3523" y="771.578">Cancel interview</tspan></text>
<path d="M3515 752H3651V748H3515V752ZM3653 754V778H3657V754H3653ZM3651 780H3515V784H3651V780ZM3513 778V754H3509V778H3513ZM3515 780C3513.9 780 3513 779.105 3513 778H3509C3509 781.314 3511.69 784 3515 784V780ZM3653 778C3653 779.105 3652.1 780 3651 780V784C3654.31 784 3657 781.314 3657 778H3653ZM3651 752C3652.1 752 3653 752.895 3653 754H3657C3657 750.686 3654.31 748 3651 748V752ZM3515 748C3511.69 748 3509 750.686 3509 754H3513C3513 752.895 3513.9 752 3515 752V748Z" fill="#333333"/>
<path d="M3687 862H2887V866H3687V862Z" fill="#AAAAAA" mask="url(#path-94-inside-5_3003_17411)"/>
<mask id="path-104-inside-6_3003_17411" fill="white">
<path d="M2887 864H3687V1010H2887V864Z"/>
</mask>
<path d="M2887 864H3687V1010H2887V864Z" fill="white"/>
<text fill="black" xml:space="preserve" style="white-space: pre" font-family="Chalkboard" font-size="18" letter-spacing="0em"><tspan x="2919" y="913.275">Friday, June 18, 2022</tspan></text>
<text fill="black" xml:space="preserve" style="white-space: pre" font-family="Chalkboard" font-size="18" letter-spacing="0em"><tspan x="2919" y="943.275">2:30 pm -3:30 pm</tspan></text>
<text fill="black" xml:space="preserve" style="white-space: pre" font-family="Chalkboard" font-size="18" letter-spacing="0em"><tspan x="3158" y="913.275">Interview type</tspan></text>
<text fill="black" xml:space="preserve" style="white-space: pre" font-family="Chalkboard" font-size="18" letter-spacing="0em"><tspan x="3158" y="943.275">Candidate name</tspan></text>
<text fill="black" xml:space="preserve" style="white-space: pre" font-family="Chalkboard" font-size="18" letter-spacing="0em"><tspan x="3158" y="973.275">Location</tspan></text>
<path d="M3511 900C3511 897.791 3512.79 896 3515 896H3651C3653.21 896 3655 897.791 3655 900V924C3655 926.209 3653.21 928 3651 928H3515C3512.79 928 3511 926.209 3511 924V900Z" fill="white"/>
<text fill="#333333" xml:space="preserve" style="white-space: pre" font-family="Chalkboard" font-size="16" letter-spacing="0em"><tspan x="3523" y="917.578">Cancel interview</tspan></text>
<path d="M3515 898H3651V894H3515V898ZM3653 900V924H3657V900H3653ZM3651 926H3515V930H3651V926ZM3513 924V900H3509V924H3513ZM3515 926C3513.9 926 3513 925.105 3513 924H3509C3509 927.314 3511.69 930 3515 930V926ZM3653 924C3653 925.105 3652.1 926 3651 926V930C3654.31 930 3657 927.314 3657 924H3653ZM3651 898C3652.1 898 3653 898.895 3653 900H3657C3657 896.686 3654.31 894 3651 894V898ZM3515 894C3511.69 894 3509 896.686 3509 900H3513C3513 898.895 3513.9 898 3515 898V894Z" fill="#333333"/>
<path d="M3687 1008H2887V1012H3687V1008Z" fill="#AAAAAA" mask="url(#path-104-inside-6_3003_17411)"/>
<mask id="path-114-inside-7_3003_17411" fill="white">
<path d="M2887 1010H3687V1156H2887V1010Z"/>
</mask>
<path d="M2887 1010H3687V1156H2887V1010Z" fill="white"/>
<text fill="black" xml:space="preserve" style="white-space: pre" font-family="Chalkboard" font-size="18" letter-spacing="0em"><tspan x="2919" y="1059.28">Friday, June 18, 2022</tspan></text>
<text fill="black" xml:space="preserve" style="white-space: pre" font-family="Chalkboard" font-size="18" letter-spacing="0em"><tspan x="2919" y="1089.28">4:30 pm -5:30 pm</tspan></text>
<text fill="black" xml:space="preserve" style="white-space: pre" font-family="Chalkboard" font-size="18" letter-spacing="0em"><tspan x="3158" y="1059.28">Interview type</tspan></text>
<text fill="black" xml:space="preserve" style="white-space: pre" font-family="Chalkboard" font-size="18" letter-spacing="0em"><tspan x="3158" y="1089.28">Candidate name</tspan></text>
<text fill="black" xml:space="preserve" style="white-space: pre" font-family="Chalkboard" font-size="18" letter-spacing="0em"><tspan x="3158" y="1119.28">Location</tspan></text>
<path d="M3511 1046C3511 1043.79 3512.79 1042 3515 1042H3651C3653.21 1042 3655 1043.79 3655 1046V1070C3655 1072.21 3653.21 1074 3651 1074H3515C3512.79 1074 3511 1072.21 3511 1070V1046Z" fill="white"/>
<text fill="#333333" xml:space="preserve" style="white-space: pre" font-family="Chalkboard" font-size="16" letter-spacing="0em"><tspan x="3523" y="1063.58">Cancel interview</tspan></text>
<path d="M3515 1044H3651V1040H3515V1044ZM3653 1046V1070H3657V1046H3653ZM3651 1072H3515V1076H3651V1072ZM3513 1070V1046H3509V1070H3513ZM3515 1072C3513.9 1072 3513 1071.1 3513 1070H3509C3509 1073.31 3511.69 1076 3515 1076V1072ZM3653 1070C3653 1071.1 3652.1 1072 3651 1072V1076C3654.31 1076 3657 1073.31 3657 1070H3653ZM3651 1044C3652.1 1044 3653 1044.9 3653 1046H3657C3657 1042.69 3654.31 1040 3651 1040V1044ZM3515 1040C3511.69 1040 3509 1042.69 3509 1046H3513C3513 1044.9 3513.9 1044 3515 1044V1040Z" fill="#333333"/>
<path d="M3687 1154H2887V1158H3687V1154Z" fill="#AAAAAA" mask="url(#path-114-inside-7_3003_17411)"/>
</g>
<rect width="400" height="83" transform="translate(4143 196)" fill="#5384ED"/>
<text fill="white" xml:space="preserve" style="white-space: pre" font-family="Inter" font-size="42" font-weight="500" letter-spacing="0em"><tspan x="4175" y="252.773">Cancel interview</tspan></text>
<g clip-path="url(#clip4_3003_17411)">
<rect width="1440" height="1024" transform="translate(4143 279)" fill="white"/>
<g filter="url(#filter8_d_3003_17411)">
<rect x="4143" y="279" width="1440" height="80" fill="white"/>
</g>
<g clip-path="url(#clip5_3003_17411)">
<path d="M5511.52 319C5511.52 331.749 5501.69 342 5489.67 342C5477.64 342 5467.81 331.749 5467.81 319C5467.81 306.251 5477.64 296 5489.67 296C5501.69 296 5511.52 306.251 5511.52 319Z" fill="#F5F5F5" stroke="#AAAAAA" stroke-width="2"/>
<mask id="path-127-inside-8_3003_17411" fill="white">
<path fill-rule="evenodd" clip-rule="evenodd" d="M5472.52 334.875V334C5472.52 328.015 5483.94 325 5489.67 325C5495.39 325 5506.81 328.015 5506.81 334V334.875C5502.62 339.857 5496.49 343 5489.67 343C5482.84 343 5476.71 339.857 5472.52 334.875ZM5489.67 305C5484.93 305 5481.09 309.028 5481.09 314C5481.09 318.972 5484.93 323 5489.67 323C5494.4 323 5498.24 318.972 5498.24 314C5498.24 309.028 5494.4 305 5489.67 305Z"/>
</mask>
<path fill-rule="evenodd" clip-rule="evenodd" d="M5472.52 334.875V334C5472.52 328.015 5483.94 325 5489.67 325C5495.39 325 5506.81 328.015 5506.81 334V334.875C5502.62 339.857 5496.49 343 5489.67 343C5482.84 343 5476.71 339.857 5472.52 334.875ZM5489.67 305C5484.93 305 5481.09 309.028 5481.09 314C5481.09 318.972 5484.93 323 5489.67 323C5494.4 323 5498.24 318.972 5498.24 314C5498.24 309.028 5494.4 305 5489.67 305Z" fill="#F5F5F5"/>
<path d="M5472.52 334.875H5470.52V335.604L5470.99 336.162L5472.52 334.875ZM5506.81 334.875L5508.34 336.162L5508.81 335.604V334.875H5506.81ZM5474.52 334.875V334H5470.52V334.875H5474.52ZM5474.52 334C5474.52 333.202 5474.89 332.378 5475.79 331.505C5476.71 330.616 5478.07 329.796 5479.72 329.099C5483.05 327.702 5487.07 327 5489.67 327V323C5486.54 323 5481.99 323.806 5478.17 325.412C5476.26 326.217 5474.41 327.273 5473.01 328.633C5471.59 330.009 5470.52 331.806 5470.52 334H5474.52ZM5489.67 327C5492.26 327 5496.29 327.702 5499.61 329.099C5501.27 329.796 5502.63 330.616 5503.54 331.505C5504.44 332.378 5504.81 333.202 5504.81 334H5508.81C5508.81 331.806 5507.75 330.009 5506.33 328.633C5504.92 327.273 5503.07 326.217 5501.16 325.412C5497.34 323.806 5492.79 323 5489.67 323V327ZM5504.81 334V334.875H5508.81V334H5504.81ZM5505.28 333.588C5501.44 338.153 5495.86 341 5489.67 341V345C5497.13 345 5503.8 341.562 5508.34 336.162L5505.28 333.588ZM5489.67 341C5483.47 341 5477.89 338.153 5474.05 333.588L5470.99 336.162C5475.53 341.562 5482.21 345 5489.67 345V341ZM5483.09 314C5483.09 310.039 5486.13 307 5489.67 307V303C5483.74 303 5479.09 308.016 5479.09 314H5483.09ZM5489.67 321C5486.13 321 5483.09 317.961 5483.09 314H5479.09C5479.09 319.984 5483.74 325 5489.67 325V321ZM5496.24 314C5496.24 317.961 5493.21 321 5489.67 321V325C5495.6 325 5500.24 319.984 5500.24 314H5496.24ZM5489.67 307C5493.21 307 5496.24 310.039 5496.24 314H5500.24C5500.24 308.016 5495.6 303 5489.67 303V307Z" fill="#AAAAAA" mask="url(#path-127-inside-8_3003_17411)"/>
</g>
<path d="M4203.95 295H4256.33V335H4203.95V295Z" fill="#F5F5F5"/>
<path d="M4209.95 301L4249.95 329" stroke="#AAAAAA" stroke-width="2"/>
<path d="M4249.95 301L4209.95 329" stroke="#AAAAAA" stroke-width="2"/>
<path d="M4203.95 295V293H4201.95V295H4203.95ZM4256.33 295H4258.33V293H4256.33V295ZM4256.33 335V337H4258.33V335H4256.33ZM4203.95 335H4201.95V337H4203.95V335ZM4203.95 297H4256.33V293H4203.95V297ZM4254.33 295V335H4258.33V295H4254.33ZM4256.33 333H4203.95V337H4256.33V333ZM4205.95 335V295H4201.95V335H4205.95Z" fill="#AAAAAA"/>
<rect x="4463" y="462" width="864" height="580" rx="32" fill="#F5F5F5"/>
<rect width="800" height="48" transform="translate(4495 494)" fill="white"/>
<g filter="url(#filter9_i_3003_17411)">
<rect width="266.667" height="48" transform="translate(4495 494)" fill="white"/>
<text fill="#333333" xml:space="preserve" style="white-space: pre" font-family="Chalkboard" font-size="16" letter-spacing="0em"><tspan x="4570" y="523.578">Interview types</tspan></text>
</g>
<g filter="url(#filter10_i_3003_17411)">
<rect width="266.667" height="48" transform="translate(5028.33 494)" fill="white"/>
<text fill="#7D7D7D" xml:space="preserve" style="white-space: pre" font-family="Chalkboard" font-size="16" letter-spacing="0em"><tspan x="5107.83" y="523.578">Team members</tspan></text>
</g>
<g filter="url(#filter11_i_3003_17411)">
<rect width="266.667" height="48" transform="translate(4761.67 494)" fill="white"/>
<text fill="#7D7D7D" xml:space="preserve" style="white-space: pre" font-family="Chalkboard" font-size="16" letter-spacing="0em"><tspan x="4821.17" y="523.578">Scheduled interview</tspan></text>
</g>
<rect x="4495" y="574" width="800" height="112" rx="8" fill="white"/>
<path d="M4527 610C4527 607.791 4528.79 606 4531 606H4757.67C4759.88 606 4761.67 607.791 4761.67 610V650C4761.67 652.209 4759.88 654 4757.67 654H4531C4528.79 654 4527 652.209 4527 650V610Z" fill="white"/>
<path d="M4733 637C4737.42 637 4741 633.418 4741 629C4741 624.582 4737.42 621 4733 621C4728.58 621 4725 624.582 4725 629C4725 633.418 4728.58 637 4733 637Z" stroke="#898F9B" stroke-width="2" stroke-linecap="round" stroke-linejoin="round"/>
<path d="M4743 639L4738.65 634.65" stroke="#898F9B" stroke-width="2" stroke-linecap="round" stroke-linejoin="round"/>
<text fill="#7D7D7D" xml:space="preserve" style="white-space: pre" font-family="Chalkboard" font-size="16" letter-spacing="0em"><tspan x="4543" y="635.578">Search</tspan></text>
<text fill="#767676" xml:space="preserve" style="white-space: pre" font-family="Chalkboard" font-size="14" letter-spacing="0em"><tspan x="4527" y="598.881">Search</tspan></text>
<path d="M4531 608H4757.67V604H4531V608ZM4759.67 610V650H4763.67V610H4759.67ZM4757.67 652H4531V656H4757.67V652ZM4529 650V610H4525V650H4529ZM4531 652C4529.9 652 4529 651.105 4529 650H4525C4525 653.314 4527.69 656 4531 656V652ZM4759.67 650C4759.67 651.105 4758.77 652 4757.67 652V656C4760.98 656 4763.67 653.314 4763.67 650H4759.67ZM4757.67 608C4758.77 608 4759.67 608.895 4759.67 610H4763.67C4763.67 606.686 4760.98 604 4757.67 604V608ZM4531 604C4527.69 604 4525 606.686 4525 610H4529C4529 608.895 4529.9 608 4531 608V604Z" fill="#AAAAAA"/>
<path d="M4777.67 610C4777.67 607.791 4779.46 606 4781.67 606H5008.33C5010.54 606 5012.33 607.791 5012.33 610V650C5012.33 652.209 5010.54 654 5008.33 654H4781.67C4779.46 654 4777.67 652.209 4777.67 650V610Z" fill="white"/>
<path d="M4978.67 627L4984.67 633L4990.67 627" stroke="#898F9B" stroke-width="2" stroke-linecap="round" stroke-linejoin="round"/>
<text fill="#7D7D7D" xml:space="preserve" style="white-space: pre" font-family="Chalkboard" font-size="16" letter-spacing="0em"><tspan x="4793.67" y="635.578">Front-end phone screen</tspan></text>
<text fill="#767676" xml:space="preserve" style="white-space: pre" font-family="Chalkboard" font-size="14" letter-spacing="0em"><tspan x="4777.67" y="598.881">Interview type</tspan></text>
<path d="M4781.67 608H5008.33V604H4781.67V608ZM5010.33 610V650H5014.33V610H5010.33ZM5008.33 652H4781.67V656H5008.33V652ZM4779.67 650V610H4775.67V650H4779.67ZM4781.67 652C4780.56 652 4779.67 651.105 4779.67 650H4775.67C4775.67 653.314 4778.35 656 4781.67 656V652ZM5010.33 650C5010.33 651.105 5009.44 652 5008.33 652V656C5011.65 656 5014.33 653.314 5014.33 650H5010.33ZM5008.33 608C5009.44 608 5010.33 608.895 5010.33 610H5014.33C5014.33 606.686 5011.65 604 5008.33 604V608ZM4781.67 604C4778.35 604 4775.67 606.686 4775.67 610H4779.67C4779.67 608.895 4780.56 608 4781.67 608V604Z" fill="#AAAAAA"/>
<path d="M5028.33 610C5028.33 607.791 5030.12 606 5032.33 606H5259C5261.21 606 5263 607.791 5263 610V650C5263 652.209 5261.21 654 5259 654H5032.33C5030.12 654 5028.33 652.209 5028.33 650V610Z" fill="white"/>
<path d="M5242.33 622H5228.33C5227.23 622 5226.33 622.895 5226.33 624V638C5226.33 639.105 5227.23 640 5228.33 640H5242.33C5243.44 640 5244.33 639.105 5244.33 638V624C5244.33 622.895 5243.44 622 5242.33 622Z" stroke="#898F9B" stroke-width="2" stroke-linecap="round" stroke-linejoin="round"/>
<path d="M5239.33 620V624" stroke="#898F9B" stroke-width="2" stroke-linecap="round" stroke-linejoin="round"/>
<path d="M5231.33 620V624" stroke="#898F9B" stroke-width="2" stroke-linecap="round" stroke-linejoin="round"/>
<path d="M5226.33 628H5244.33" stroke="#898F9B" stroke-width="2" stroke-linecap="round" stroke-linejoin="round"/>
<text fill="#7D7D7D" xml:space="preserve" style="white-space: pre" font-family="Chalkboard" font-size="16" letter-spacing="0em"><tspan x="5044.33" y="635.578">Jun 14 - Jun 23, 2022</tspan></text>
<text fill="#767676" xml:space="preserve" style="white-space: pre" font-family="Chalkboard" font-size="14" letter-spacing="0em"><tspan x="5028.33" y="598.881">Date range</tspan></text>
<path d="M5032.33 608H5259V604H5032.33V608ZM5261 610V650H5265V610H5261ZM5259 652H5032.33V656H5259V652ZM5030.33 650V610H5026.33V650H5030.33ZM5032.33 652C5031.23 652 5030.33 651.105 5030.33 650H5026.33C5026.33 653.314 5029.02 656 5032.33 656V652ZM5261 650C5261 651.105 5260.1 652 5259 652V656C5262.31 656 5265 653.314 5265 650H5261ZM5259 608C5260.1 608 5261 608.895 5261 610H5265C5265 606.686 5262.31 604 5259 604V608ZM5032.33 604C5029.02 604 5026.33 606.686 5026.33 610H5030.33C5030.33 608.895 5031.23 608 5032.33 608V604Z" fill="#AAAAAA"/>
<mask id="path-157-inside-9_3003_17411" fill="white">
<path d="M4495 718H5295V864H4495V718Z"/>
</mask>
<path d="M4495 718H5295V864H4495V718Z" fill="white"/>
<text fill="black" xml:space="preserve" style="white-space: pre" font-family="Chalkboard" font-size="18" letter-spacing="0em"><tspan x="4527" y="767.275">Friday, June 17, 2022</tspan></text>
<text fill="black" xml:space="preserve" style="white-space: pre" font-family="Chalkboard" font-size="18" letter-spacing="0em"><tspan x="4527" y="797.275">12:30 pm -1:30 pm</tspan></text>
<text fill="black" xml:space="preserve" style="white-space: pre" font-family="Chalkboard" font-size="18" letter-spacing="0em"><tspan x="4764" y="767.275">Interview type</tspan></text>
<text fill="black" xml:space="preserve" style="white-space: pre" font-family="Chalkboard" font-size="18" letter-spacing="0em"><tspan x="4764" y="797.275">Candidate name</tspan></text>
<text fill="black" xml:space="preserve" style="white-space: pre" font-family="Chalkboard" font-size="18" letter-spacing="0em"><tspan x="4764" y="827.275">Location</tspan></text>
<path d="M5119 754C5119 751.791 5120.79 750 5123 750H5259C5261.21 750 5263 751.791 5263 754V778C5263 780.209 5261.21 782 5259 782H5123C5120.79 782 5119 780.209 5119 778V754Z" fill="white"/>
<text fill="#333333" xml:space="preserve" style="white-space: pre" font-family="Chalkboard" font-size="16" letter-spacing="0em"><tspan x="5131" y="771.578">Cancel interview</tspan></text>
<path d="M5123 752H5259V748H5123V752ZM5261 754V778H5265V754H5261ZM5259 780H5123V784H5259V780ZM5121 778V754H5117V778H5121ZM5123 780C5121.9 780 5121 779.105 5121 778H5117C5117 781.314 5119.69 784 5123 784V780ZM5261 778C5261 779.105 5260.1 780 5259 780V784C5262.31 784 5265 781.314 5265 778H5261ZM5259 752C5260.1 752 5261 752.895 5261 754H5265C5265 750.686 5262.31 748 5259 748V752ZM5123 748C5119.69 748 5117 750.686 5117 754H5121C5121 752.895 5121.9 752 5123 752V748Z" fill="#333333"/>
<path d="M5295 862H4495V866H5295V862Z" fill="#AAAAAA" mask="url(#path-157-inside-9_3003_17411)"/>
<mask id="path-167-inside-10_3003_17411" fill="white">
<path d="M4495 864H5295V1010H4495V864Z"/>
</mask>
<path d="M4495 864H5295V1010H4495V864Z" fill="white"/>
<text fill="black" xml:space="preserve" style="white-space: pre" font-family="Chalkboard" font-size="18" letter-spacing="0em"><tspan x="4527" y="913.275">Friday, June 18, 2022</tspan></text>
<text fill="black" xml:space="preserve" style="white-space: pre" font-family="Chalkboard" font-size="18" letter-spacing="0em"><tspan x="4527" y="943.275">4:30 pm -5:30 pm</tspan></text>
<text fill="black" xml:space="preserve" style="white-space: pre" font-family="Chalkboard" font-size="18" letter-spacing="0em"><tspan x="4766" y="913.275">Interview type</tspan></text>
<text fill="black" xml:space="preserve" style="white-space: pre" font-family="Chalkboard" font-size="18" letter-spacing="0em"><tspan x="4766" y="943.275">Candidate name</tspan></text>
<text fill="black" xml:space="preserve" style="white-space: pre" font-family="Chalkboard" font-size="18" letter-spacing="0em"><tspan x="4766" y="973.275">Location</tspan></text>
<path d="M5119 900C5119 897.791 5120.79 896 5123 896H5259C5261.21 896 5263 897.791 5263 900V924C5263 926.209 5261.21 928 5259 928H5123C5120.79 928 5119 926.209 5119 924V900Z" fill="white"/>
<text fill="#333333" xml:space="preserve" style="white-space: pre" font-family="Chalkboard" font-size="16" letter-spacing="0em"><tspan x="5131" y="917.578">Cancel interview</tspan></text>
<path d="M5123 898H5259V894H5123V898ZM5261 900V924H5265V900H5261ZM5259 926H5123V930H5259V926ZM5121 924V900H5117V924H5121ZM5123 926C5121.9 926 5121 925.105 5121 924H5117C5117 927.314 5119.69 930 5123 930V926ZM5261 924C5261 925.105 5260.1 926 5259 926V930C5262.31 930 5265 927.314 5265 924H5261ZM5259 898C5260.1 898 5261 898.895 5261 900H5265C5265 896.686 5262.31 894 5259 894V898ZM5123 894C5119.69 894 5117 896.686 5117 900H5121C5121 898.895 5121.9 898 5123 898V894Z" fill="#333333"/>
<path d="M5295 1008H4495V1012H5295V1008Z" fill="#AAAAAA" mask="url(#path-167-inside-10_3003_17411)"/>
<rect x="4143" y="279" width="1440" height="1024" fill="#D9D9D9" fill-opacity="0.7"/>
<rect x="4653" y="583" width="453" height="284" rx="32" fill="#F5F5F5"/>
<text fill="black" xml:space="preserve" style="white-space: pre" font-family="Chalkboard" font-size="24" letter-spacing="0em"><tspan x="4784.5" y="636.367">Cancel interview?</tspan></text>
<text fill="black" xml:space="preserve" style="white-space: pre" font-family="Chalkboard" font-size="18" letter-spacing="0em"><tspan x="4685" y="690.275">Friday, June 17, 2022</tspan></text>
<text fill="black" xml:space="preserve" style="white-space: pre" font-family="Chalkboard" font-size="18" letter-spacing="0em"><tspan x="4685" y="720.275">12:30 pm -1:30 pm</tspan></text>
<text fill="black" xml:space="preserve" style="white-space: pre" font-family="Chalkboard" font-size="18" letter-spacing="0em"><tspan x="4895.5" y="690.275">Interview type</tspan></text>
<text fill="black" xml:space="preserve" style="white-space: pre" font-family="Chalkboard" font-size="18" letter-spacing="0em"><tspan x="4895.5" y="720.275">Candidate name</tspan></text>
<text fill="black" xml:space="preserve" style="white-space: pre" font-family="Chalkboard" font-size="18" letter-spacing="0em"><tspan x="4895.5" y="750.275">Location</tspan></text>
<path d="M4685 791C4685 788.791 4686.79 787 4689 787H4859.5C4861.71 787 4863.5 788.791 4863.5 791V831C4863.5 833.209 4861.71 835 4859.5 835H4689C4686.79 835 4685 833.209 4685 831V791Z" fill="white"/>
<text fill="#333333" xml:space="preserve" style="white-space: pre" font-family="Chalkboard" font-size="16" letter-spacing="0em"><tspan x="4745.25" y="816.578">Go back</tspan></text>
<path d="M4689 789H4859.5V785H4689V789ZM4861.5 791V831H4865.5V791H4861.5ZM4859.5 833H4689V837H4859.5V833ZM4687 831V791H4683V831H4687ZM4689 833C4687.9 833 4687 832.105 4687 831H4683C4683 834.314 4685.69 837 4689 837V833ZM4861.5 831C4861.5 832.105 4860.6 833 4859.5 833V837C4862.81 837 4865.5 834.314 4865.5 831H4861.5ZM4859.5 789C4860.6 789 4861.5 789.895 4861.5 791H4865.5C4865.5 787.686 4862.81 785 4859.5 785V789ZM4689 785C4685.69 785 4683 787.686 4683 791H4687C4687 789.895 4687.9 789 4689 789V785Z" fill="#333333"/>
<path d="M4895.5 791C4895.5 788.791 4897.29 787 4899.5 787H5070C5072.21 787 5074 788.791 5074 791V831C5074 833.209 5072.21 835 5070 835H4899.5C4897.29 835 4895.5 833.209 4895.5 831V791Z" fill="white"/>
<text fill="#CC3300" xml:space="preserve" style="white-space: pre" font-family="Chalkboard" font-size="16" letter-spacing="0em"><tspan x="4924.75" y="816.578">Cancel interview</tspan></text>
<path d="M4899.5 789H5070V785H4899.5V789ZM5072 791V831H5076V791H5072ZM5070 833H4899.5V837H5070V833ZM4897.5 831V791H4893.5V831H4897.5ZM4899.5 833C4898.4 833 4897.5 832.105 4897.5 831H4893.5C4893.5 834.314 4896.19 837 4899.5 837V833ZM5072 831C5072 832.105 5071.1 833 5070 833V837C5073.31 837 5076 834.314 5076 831H5072ZM5070 789C5071.1 789 5072 789.895 5072 791H5076C5076 787.686 5073.31 785 5070 785V789ZM4899.5 785C4896.19 785 4893.5 787.686 4893.5 791H4897.5C4897.5 789.895 4898.4 789 4899.5 789V785Z" fill="#CC3300"/>
</g>
<path d="M3647.33 767C3647.33 777.309 3655.69 785.667 3666 785.667C3676.31 785.667 3684.67 777.309 3684.67 767C3684.67 756.691 3676.31 748.333 3666 748.333C3655.69 748.333 3647.33 756.691 3647.33 767ZM4144.47 769.475C4145.84 768.108 4145.84 765.892 4144.47 764.525L4122.2 742.251C4120.83 740.884 4118.62 740.884 4117.25 742.251C4115.88 743.618 4115.88 745.834 4117.25 747.201L4137.05 767L4117.25 786.799C4115.88 788.166 4115.88 790.382 4117.25 791.749C4118.62 793.116 4120.83 793.116 4122.2 791.749L4144.47 769.475ZM3666 770.5H3799.4V763.5H3666V770.5ZM3799.4 770.5H4142V763.5H3799.4V770.5Z" fill="#5384ED"/>
<circle opacity="0.3" cx="3666" cy="767" r="43" fill="#5384ED"/>
<path d="M4739.67 827C4739.67 816.691 4731.31 808.333 4721 808.333C4710.69 808.333 4702.33 816.691 4702.33 827C4702.33 837.309 4710.69 845.667 4721 845.667C4731.31 845.667 4739.67 837.309 4739.67 827ZM3972.53 824.525C3971.16 825.892 3971.16 828.108 3972.53 829.475L3994.8 851.749C3996.17 853.116 3998.38 853.116 3999.75 851.749C4001.12 850.382 4001.12 848.166 3999.75 846.799L3979.95 827L3999.75 807.201C4001.12 805.834 4001.12 803.618 3999.75 802.251C3998.38 800.884 3996.17 800.884 3994.8 802.251L3972.53 824.525ZM4721 823.5L4511.93 823.5L4511.93 830.5L4721 830.5L4721 823.5ZM4511.93 823.5L3975 823.5L3975 830.5L4511.93 830.5L4511.93 823.5Z" fill="#5384ED"/>
<circle opacity="0.3" cx="4721" cy="827" r="43" transform="rotate(-180 4721 827)" fill="#5384ED"/>
<path d="M5014.33 768C5014.33 778.309 5022.69 786.667 5033 786.667C5043.31 786.667 5051.67 778.309 5051.67 768C5051.67 757.691 5043.31 749.333 5033 749.333C5022.69 749.333 5014.33 757.691 5014.33 768ZM1669.53 274.773C1670.89 276.139 1673.11 276.139 1674.47 274.773L1696.75 252.499C1698.12 251.132 1698.12 248.916 1696.75 247.549C1695.38 246.182 1693.17 246.182 1691.8 247.549L1672 267.348L1652.2 247.549C1650.83 246.182 1648.62 246.182 1647.25 247.549C1645.88 248.916 1645.88 251.132 1647.25 252.499L1669.53 274.773ZM5036.5 768V268H5029.5V768H5036.5ZM4913 144.5H1792V151.5H4913V144.5ZM1668.5 268V272.298H1675.5V268H1668.5ZM1792 144.5C1723.79 144.5 1668.5 199.793 1668.5 268H1675.5C1675.5 203.659 1727.66 151.5 1792 151.5V144.5ZM5036.5 268C5036.5 199.793 4981.21 144.5 4913 144.5V151.5C4977.34 151.5 5029.5 203.659 5029.5 268H5036.5Z" fill="#5384ED"/>
<circle opacity="0.3" cx="5031" cy="768" r="43" fill="#5384ED"/>
<path d="M2348.33 583C2348.33 593.309 2356.69 601.667 2367 601.667C2377.31 601.667 2385.67 593.309 2385.67 583C2385.67 572.691 2377.31 564.333 2367 564.333C2356.69 564.333 2348.33 572.691 2348.33 583ZM2537.47 585.475C2538.84 584.108 2538.84 581.892 2537.47 580.525L2515.2 558.251C2513.83 556.884 2511.62 556.884 2510.25 558.251C2508.88 559.618 2508.88 561.834 2510.25 563.201L2530.05 583L2510.25 602.799C2508.88 604.166 2508.88 606.382 2510.25 607.749C2511.62 609.116 2513.83 609.116 2515.2 607.749L2537.47 585.475ZM2372.89 586.5C2374.82 586.5 2376.39 584.933 2376.39 583C2376.39 581.067 2374.82 579.5 2372.89 579.5V586.5ZM2384.66 579.5C2382.72 579.5 2381.16 581.067 2381.16 583C2381.16 584.933 2382.72 586.5 2384.66 586.5V579.5ZM2396.43 586.5C2398.36 586.5 2399.93 584.933 2399.93 583C2399.93 581.067 2398.36 579.5 2396.43 579.5V586.5ZM2408.2 579.5C2406.26 579.5 2404.7 581.067 2404.7 583C2404.7 584.933 2406.26 586.5 2408.2 586.5V579.5ZM2421.64 586.5C2423.57 586.5 2425.14 584.933 2425.14 583C2425.14 581.067 2423.57 579.5 2421.64 579.5V586.5ZM2436.75 579.5C2434.82 579.5 2433.25 581.067 2433.25 583C2433.25 584.933 2434.82 586.5 2436.75 586.5V579.5ZM2451.87 586.5C2453.8 586.5 2455.37 584.933 2455.37 583C2455.37 581.067 2453.8 579.5 2451.87 579.5V586.5ZM2466.98 579.5C2465.05 579.5 2463.48 581.067 2463.48 583C2463.48 584.933 2465.05 586.5 2466.98 586.5V579.5ZM2482.1 586.5C2484.03 586.5 2485.6 584.933 2485.6 583C2485.6 581.067 2484.03 579.5 2482.1 579.5V586.5ZM2497.21 579.5C2495.28 579.5 2493.71 581.067 2493.71 583C2493.71 584.933 2495.28 586.5 2497.21 586.5V579.5ZM2512.33 586.5C2514.26 586.5 2515.83 584.933 2515.83 583C2515.83 581.067 2514.26 579.5 2512.33 579.5V586.5ZM2527.44 579.5C2525.51 579.5 2523.94 581.067 2523.94 583C2523.94 584.933 2525.51 586.5 2527.44 586.5V579.5ZM2367 586.5H2372.89V579.5H2367V586.5ZM2384.66 586.5H2396.43V579.5H2384.66V586.5ZM2408.2 586.5H2414.08V579.5H2408.2V586.5ZM2414.08 586.5H2421.64V579.5H2414.08V586.5ZM2436.75 586.5H2451.87V579.5H2436.75V586.5ZM2466.98 586.5H2482.1V579.5H2466.98V586.5ZM2497.21 586.5H2512.33V579.5H2497.21V586.5ZM2527.44 586.5H2535V579.5H2527.44V586.5Z" fill="#5384ED"/>
<defs>
<filter id="filter0_d_3003_17411" x="923" y="279" width="1448" height="88" filterUnits="userSpaceOnUse" color-interpolation-filters="sRGB">
<feFlood flood-opacity="0" result="BackgroundImageFix"/>
<feColorMatrix in="SourceAlpha" type="matrix" values="0 0 0 0 0 0 0 0 0 0 0 0 0 0 0 0 0 0 127 0" result="hardAlpha"/>
<feOffset dy="4"/>
<feGaussianBlur stdDeviation="2"/>
<feComposite in2="hardAlpha" operator="out"/>
<feColorMatrix type="matrix" values="0 0 0 0 0 0 0 0 0 0 0 0 0 0 0 0 0 0 0.1 0"/>
<feBlend mode="normal" in2="BackgroundImageFix" result="effect1_dropShadow_3003_17411"/>
<feBlend mode="normal" in="SourceGraphic" in2="effect1_dropShadow_3003_17411" result="shape"/>
</filter>
<filter id="filter1_i_3003_17411" x="1279" y="494" width="266.667" height="48" filterUnits="userSpaceOnUse" color-interpolation-filters="sRGB">
<feFlood flood-opacity="0" result="BackgroundImageFix"/>
<feBlend mode="normal" in="SourceGraphic" in2="BackgroundImageFix" result="shape"/>
<feColorMatrix in="SourceAlpha" type="matrix" values="0 0 0 0 0 0 0 0 0 0 0 0 0 0 0 0 0 0 127 0" result="hardAlpha"/>
<feOffset dy="-2"/>
<feComposite in2="hardAlpha" operator="arithmetic" k2="-1" k3="1"/>
<feColorMatrix type="matrix" values="0 0 0 0 0.666667 0 0 0 0 0.666667 0 0 0 0 0.666667 0 0 0 1 0"/>
<feBlend mode="normal" in2="shape" result="effect1_innerShadow_3003_17411"/>
</filter>
<filter id="filter2_i_3003_17411" x="1812.33" y="494" width="266.667" height="48" filterUnits="userSpaceOnUse" color-interpolation-filters="sRGB">
<feFlood flood-opacity="0" result="BackgroundImageFix"/>
<feBlend mode="normal" in="SourceGraphic" in2="BackgroundImageFix" result="shape"/>
<feColorMatrix in="SourceAlpha" type="matrix" values="0 0 0 0 0 0 0 0 0 0 0 0 0 0 0 0 0 0 127 0" result="hardAlpha"/>
<feOffset dy="-2"/>
<feComposite in2="hardAlpha" operator="arithmetic" k2="-1" k3="1"/>
<feColorMatrix type="matrix" values="0 0 0 0 0.666667 0 0 0 0 0.666667 0 0 0 0 0.666667 0 0 0 1 0"/>
<feBlend mode="normal" in2="shape" result="effect1_innerShadow_3003_17411"/>
</filter>
<filter id="filter3_i_3003_17411" x="1545.67" y="494" width="266.667" height="48" filterUnits="userSpaceOnUse" color-interpolation-filters="sRGB">
<feFlood flood-opacity="0" result="BackgroundImageFix"/>
<feBlend mode="normal" in="SourceGraphic" in2="BackgroundImageFix" result="shape"/>
<feColorMatrix in="SourceAlpha" type="matrix" values="0 0 0 0 0 0 0 0 0 0 0 0 0 0 0 0 0 0 127 0" result="hardAlpha"/>
<feOffset dy="-3"/>
<feComposite in2="hardAlpha" operator="arithmetic" k2="-1" k3="1"/>
<feColorMatrix type="matrix" values="0 0 0 0 0.2 0 0 0 0 0.2 0 0 0 0 0.2 0 0 0 1 0"/>
<feBlend mode="normal" in2="shape" result="effect1_innerShadow_3003_17411"/>
</filter>
<filter id="filter4_d_3003_17411" x="2531" y="279" width="1448" height="88" filterUnits="userSpaceOnUse" color-interpolation-filters="sRGB">
<feFlood flood-opacity="0" result="BackgroundImageFix"/>
<feColorMatrix in="SourceAlpha" type="matrix" values="0 0 0 0 0 0 0 0 0 0 0 0 0 0 0 0 0 0 127 0" result="hardAlpha"/>
<feOffset dy="4"/>
<feGaussianBlur stdDeviation="2"/>
<feComposite in2="hardAlpha" operator="out"/>
<feColorMatrix type="matrix" values="0 0 0 0 0 0 0 0 0 0 0 0 0 0 0 0 0 0 0.1 0"/>
<feBlend mode="normal" in2="BackgroundImageFix" result="effect1_dropShadow_3003_17411"/>
<feBlend mode="normal" in="SourceGraphic" in2="effect1_dropShadow_3003_17411" result="shape"/>
</filter>
<filter id="filter5_i_3003_17411" x="2887" y="494" width="266.667" height="48" filterUnits="userSpaceOnUse" color-interpolation-filters="sRGB">
<feFlood flood-opacity="0" result="BackgroundImageFix"/>
<feBlend mode="normal" in="SourceGraphic" in2="BackgroundImageFix" result="shape"/>
<feColorMatrix in="SourceAlpha" type="matrix" values="0 0 0 0 0 0 0 0 0 0 0 0 0 0 0 0 0 0 127 0" result="hardAlpha"/>
<feOffset dy="-2"/>
<feComposite in2="hardAlpha" operator="arithmetic" k2="-1" k3="1"/>
<feColorMatrix type="matrix" values="0 0 0 0 0.666667 0 0 0 0 0.666667 0 0 0 0 0.666667 0 0 0 1 0"/>
<feBlend mode="normal" in2="shape" result="effect1_innerShadow_3003_17411"/>
</filter>
<filter id="filter6_i_3003_17411" x="3420.33" y="494" width="266.667" height="48" filterUnits="userSpaceOnUse" color-interpolation-filters="sRGB">
<feFlood flood-opacity="0" result="BackgroundImageFix"/>
<feBlend mode="normal" in="SourceGraphic" in2="BackgroundImageFix" result="shape"/>
<feColorMatrix in="SourceAlpha" type="matrix" values="0 0 0 0 0 0 0 0 0 0 0 0 0 0 0 0 0 0 127 0" result="hardAlpha"/>
<feOffset dy="-2"/>
<feComposite in2="hardAlpha" operator="arithmetic" k2="-1" k3="1"/>
<feColorMatrix type="matrix" values="0 0 0 0 0.666667 0 0 0 0 0.666667 0 0 0 0 0.666667 0 0 0 1 0"/>
<feBlend mode="normal" in2="shape" result="effect1_innerShadow_3003_17411"/>
</filter>
<filter id="filter7_i_3003_17411" x="3153.67" y="494" width="266.667" height="48" filterUnits="userSpaceOnUse" color-interpolation-filters="sRGB">
<feFlood flood-opacity="0" result="BackgroundImageFix"/>
<feBlend mode="normal" in="SourceGraphic" in2="BackgroundImageFix" result="shape"/>
<feColorMatrix in="SourceAlpha" type="matrix" values="0 0 0 0 0 0 0 0 0 0 0 0 0 0 0 0 0 0 127 0" result="hardAlpha"/>
<feOffset dy="-3"/>
<feComposite in2="hardAlpha" operator="arithmetic" k2="-1" k3="1"/>
<feColorMatrix type="matrix" values="0 0 0 0 0.2 0 0 0 0 0.2 0 0 0 0 0.2 0 0 0 1 0"/>
<feBlend mode="normal" in2="shape" result="effect1_innerShadow_3003_17411"/>
</filter>
<filter id="filter8_d_3003_17411" x="4139" y="279" width="1448" height="88" filterUnits="userSpaceOnUse" color-interpolation-filters="sRGB">
<feFlood flood-opacity="0" result="BackgroundImageFix"/>
<feColorMatrix in="SourceAlpha" type="matrix" values="0 0 0 0 0 0 0 0 0 0 0 0 0 0 0 0 0 0 127 0" result="hardAlpha"/>
<feOffset dy="4"/>
<feGaussianBlur stdDeviation="2"/>
<feComposite in2="hardAlpha" operator="out"/>
<feColorMatrix type="matrix" values="0 0 0 0 0 0 0 0 0 0 0 0 0 0 0 0 0 0 0.1 0"/>
<feBlend mode="normal" in2="BackgroundImageFix" result="effect1_dropShadow_3003_17411"/>
<feBlend mode="normal" in="SourceGraphic" in2="effect1_dropShadow_3003_17411" result="shape"/>
</filter>
<filter id="filter9_i_3003_17411" x="4495" y="494" width="266.667" height="48" filterUnits="userSpaceOnUse" color-interpolation-filters="sRGB">
<feFlood flood-opacity="0" result="BackgroundImageFix"/>
<feBlend mode="normal" in="SourceGraphic" in2="BackgroundImageFix" result="shape"/>
<feColorMatrix in="SourceAlpha" type="matrix" values="0 0 0 0 0 0 0 0 0 0 0 0 0 0 0 0 0 0 127 0" result="hardAlpha"/>
<feOffset dy="-2"/>
<feComposite in2="hardAlpha" operator="arithmetic" k2="-1" k3="1"/>
<feColorMatrix type="matrix" values="0 0 0 0 0.666667 0 0 0 0 0.666667 0 0 0 0 0.666667 0 0 0 1 0"/>
<feBlend mode="normal" in2="shape" result="effect1_innerShadow_3003_17411"/>
</filter>
<filter id="filter10_i_3003_17411" x="5028.33" y="494" width="266.667" height="48" filterUnits="userSpaceOnUse" color-interpolation-filters="sRGB">
<feFlood flood-opacity="0" result="BackgroundImageFix"/>
<feBlend mode="normal" in="SourceGraphic" in2="BackgroundImageFix" result="shape"/>
<feColorMatrix in="SourceAlpha" type="matrix" values="0 0 0 0 0 0 0 0 0 0 0 0 0 0 0 0 0 0 127 0" result="hardAlpha"/>
<feOffset dy="-2"/>
<feComposite in2="hardAlpha" operator="arithmetic" k2="-1" k3="1"/>
<feColorMatrix type="matrix" values="0 0 0 0 0.666667 0 0 0 0 0.666667 0 0 0 0 0.666667 0 0 0 1 0"/>
<feBlend mode="normal" in2="shape" result="effect1_innerShadow_3003_17411"/>
</filter>
<filter id="filter11_i_3003_17411" x="4761.67" y="494" width="266.667" height="48" filterUnits="userSpaceOnUse" color-interpolation-filters="sRGB">
<feFlood flood-opacity="0" result="BackgroundImageFix"/>
<feBlend mode="normal" in="SourceGraphic" in2="BackgroundImageFix" result="shape"/>
<feColorMatrix in="SourceAlpha" type="matrix" values="0 0 0 0 0 0 0 0 0 0 0 0 0 0 0 0 0 0 127 0" result="hardAlpha"/>
<feOffset dy="-3"/>
<feComposite in2="hardAlpha" operator="arithmetic" k2="-1" k3="1"/>
<feColorMatrix type="matrix" values="0 0 0 0 0.2 0 0 0 0 0.2 0 0 0 0 0.2 0 0 0 1 0"/>
<feBlend mode="normal" in2="shape" result="effect1_innerShadow_3003_17411"/>
</filter>
<clipPath id="clip0_3003_17411">
<rect width="1440" height="1024" fill="white" transform="translate(927 279)"/>
</clipPath>
<clipPath id="clip1_3003_17411">
<rect width="45.7143" height="48" fill="white" transform="translate(2250.81 295)"/>
</clipPath>
<clipPath id="clip2_3003_17411">
<rect width="1440" height="1024" fill="white" transform="translate(2535 279)"/>
</clipPath>
<clipPath id="clip3_3003_17411">
<rect width="45.7143" height="48" fill="white" transform="translate(3858.81 295)"/>
</clipPath>
<clipPath id="clip4_3003_17411">
<rect width="1440" height="1024" fill="white" transform="translate(4143 279)"/>
</clipPath>
<clipPath id="clip5_3003_17411">
<rect width="45.7143" height="48" fill="white" transform="translate(5466.81 295)"/>
</clipPath>
</defs>
</svg>
