<svg width="1885" height="805" viewBox="0 0 1885 805" fill="none" xmlns="http://www.w3.org/2000/svg">
<rect width="198" height="53" transform="translate(0 309)" fill="#5384ED"/>
<text fill="white" xml:space="preserve" style="white-space: pre" font-family="Nunito Sans" font-size="24" font-weight="600" letter-spacing="0em"><tspan x="10" y="343.396">Current solution</tspan></text>
<rect width="198" height="53" transform="translate(0 538)" fill="#5384ED"/>
<text fill="white" xml:space="preserve" style="white-space: pre" font-family="Nunito Sans" font-size="24" font-weight="600" letter-spacing="0em"><tspan x="38" y="572.396">Pain points</tspan></text>
<rect width="198" height="53" transform="translate(0 707)" fill="#5384ED"/>
<text fill="white" xml:space="preserve" style="white-space: pre" font-family="Nunito Sans" font-size="24" font-weight="600" letter-spacing="0em"><tspan x="53.5" y="741.396">Emotion</tspan></text>
<text fill="#5384ED" xml:space="preserve" style="white-space: pre" font-family="Roboto" font-size="18" font-weight="500" letter-spacing="0em"><tspan x="342" y="554.652">Team members</tspan></text>
<rect width="136" height="21" transform="translate(472 538)" fill="#5384ED"/>
<text fill="white" xml:space="preserve" style="white-space: pre" font-family="Roboto" font-size="18" font-weight="500" letter-spacing="0em"><tspan x="480" y="554.652">interview skills</tspan></text>
<text fill="#5384ED" xml:space="preserve" style="white-space: pre" font-family="Roboto" font-size="18" font-weight="500" letter-spacing="0em"><tspan x="611" y="554.652">need to match the interview type</tspan></text>
<text fill="#5384ED" xml:space="preserve" style="white-space: pre" font-family="Roboto" font-size="18" font-weight="500" letter-spacing="0em"><tspan x="1226" y="554.652">Have to match </tspan></text>
<rect width="96" height="21" transform="translate(1346 538)" fill="#5384ED"/>
<text fill="white" xml:space="preserve" style="white-space: pre" font-family="Roboto" font-size="18" font-weight="500" letter-spacing="0em"><tspan x="1354" y="554.652">candidate</tspan></text>
<text fill="#5384ED" xml:space="preserve" style="white-space: pre" font-family="Roboto" font-size="18" font-weight="500" letter-spacing="0em"><tspan x="1445" y="554.652">&#38;</tspan></text>
<rect width="106" height="21" transform="translate(1460 538)" fill="#5384ED"/>
<text fill="white" xml:space="preserve" style="white-space: pre" font-family="Roboto" font-size="18" font-weight="500" letter-spacing="0em"><tspan x="1468" y="554.652">interviewer</tspan></text>
<text fill="#5384ED" xml:space="preserve" style="white-space: pre" font-family="Roboto" font-size="18" font-weight="500" letter-spacing="0em"><tspan x="1569" y="554.652">&#x2018;s</tspan></text>
<rect width="102" height="21" transform="translate(1585 538)" fill="#5384ED"/>
<text fill="white" xml:space="preserve" style="white-space: pre" font-family="Roboto" font-size="18" font-weight="500" letter-spacing="0em"><tspan x="1593" y="554.652">availability</tspan></text>
<text fill="#5384ED" xml:space="preserve" style="white-space: pre" font-family="Roboto" font-size="18" font-weight="500" letter-spacing="0em"><tspan x="342" y="589.652">Need to know colleagues&#39; </tspan></text>
<rect width="136" height="21" transform="translate(550 573)" fill="#5384ED"/>
<text fill="white" xml:space="preserve" style="white-space: pre" font-family="Roboto" font-size="18" font-weight="500" letter-spacing="0em"><tspan x="558" y="589.652">interview skills</tspan></text>
<text fill="#5384ED" xml:space="preserve" style="white-space: pre" font-family="Roboto" font-size="18" font-weight="500" letter-spacing="0em"><tspan x="342" y="624.652">We have </tspan></text>
<rect width="157" height="21" transform="translate(413 608)" fill="#5384ED"/>
<text fill="white" xml:space="preserve" style="white-space: pre" font-family="Roboto" font-size="18" font-weight="500" letter-spacing="0em"><tspan x="421" y="624.652">many  colleagues</tspan></text>
<text fill="#5384ED" xml:space="preserve" style="white-space: pre" font-family="Roboto" font-size="18" font-weight="500" letter-spacing="0em"><tspan x="1226" y="624.652">We have </tspan></text>
<rect width="158" height="21" transform="translate(1297 608)" fill="#5384ED"/>
<text fill="white" xml:space="preserve" style="white-space: pre" font-family="Roboto" font-size="18" font-weight="500" letter-spacing="0em"><tspan x="1305" y="624.652">many  candidates</tspan></text>
<text fill="#5384ED" xml:space="preserve" style="white-space: pre" font-family="Roboto" font-size="18" font-weight="500" letter-spacing="0em"><tspan x="1226" y="587.652">Need to check colleagues&#39; </tspan></text>
<rect width="95" height="21" transform="translate(1439 571)" fill="#5384ED"/>
<text fill="white" xml:space="preserve" style="white-space: pre" font-family="Roboto" font-size="18" font-weight="500" letter-spacing="0em"><tspan x="1447" y="587.652">calendars</tspan></text>
<text fill="#5384ED" xml:space="preserve" style="white-space: pre" font-family="Roboto" font-size="18" font-weight="500" letter-spacing="0em"><tspan x="1537" y="587.652">before</tspan></text>
<rect width="81" height="21" transform="translate(1593 571)" fill="#5384ED"/>
<text fill="white" xml:space="preserve" style="white-space: pre" font-family="Roboto" font-size="18" font-weight="500" letter-spacing="0em"><tspan x="1601" y="587.652">booking</tspan></text>
<text fill="#5384ED" xml:space="preserve" style="white-space: pre" font-family="Roboto" font-size="18" font-weight="500" letter-spacing="0em"><tspan x="704" y="325.652">Design - Phone Interview&#10;</tspan><tspan x="704" y="346.652">Product - Technical interview&#10;</tspan><tspan x="704" y="367.652">Front-end - Group Interview</tspan></text>
<text fill="#5384ED" xml:space="preserve" style="white-space: pre" font-family="Roboto" font-size="18" font-weight="500" letter-spacing="0em"><tspan x="235" y="325.652">Interview skills&#10;</tspan><tspan x="262" y="346.652">Visual design&#10;</tspan><tspan x="262" y="367.652">Product management&#10;</tspan><tspan x="262" y="388.652">Front-end development</tspan></text>
<text fill="#5384ED" xml:space="preserve" style="white-space: pre" font-family="Roboto" font-size="18" font-weight="500" letter-spacing="0em"><tspan x="1157" y="325.652">Depends on the candidates </tspan><tspan x="1157" y="346.652">interviewers&#39; schedule</tspan></text>
<text fill="#5384ED" xml:space="preserve" style="white-space: pre" font-family="Roboto" font-size="18" font-weight="500" letter-spacing="0em"><tspan x="1612" y="325.652">Book interview appointment&#10;</tspan><tspan x="1612" y="346.652">Reschedule/cancel appointment&#10;</tspan><tspan x="1612" y="367.652">Notification</tspan></text>
<text fill="#5384ED" xml:space="preserve" style="white-space: pre" font-family="Roboto" font-size="52" font-weight="600" letter-spacing="0em"><tspan x="231.293" y="190.273">01</tspan></text>
<text fill="#5384ED" xml:space="preserve" style="white-space: pre" font-family="Roboto" font-size="52" font-weight="600" letter-spacing="0em"><tspan x="680.293" y="190.273">02</tspan></text>
<text fill="#5384ED" xml:space="preserve" style="white-space: pre" font-family="Roboto" font-size="52" font-weight="600" letter-spacing="0em"><tspan x="1134.29" y="190.273">03</tspan></text>
<text fill="#5384ED" xml:space="preserve" style="white-space: pre" font-family="Roboto" font-size="52" font-weight="600" letter-spacing="0em"><tspan x="1590.29" y="190.273">04</tspan></text>
<path d="M543 242C542.448 242 542 242.448 542 243C542 243.552 542.448 244 543 244V242ZM623.707 243.707C624.098 243.317 624.098 242.683 623.707 242.293L617.343 235.929C616.953 235.538 616.319 235.538 615.929 235.929C615.538 236.319 615.538 236.953 615.929 237.343L621.586 243L615.929 248.657C615.538 249.047 615.538 249.681 615.929 250.071C616.319 250.462 616.953 250.462 617.343 250.071L623.707 243.707ZM543 244H623V242H543V244Z" fill="#5384ED"/>
<path d="M1015 242C1014.45 242 1014 242.448 1014 243C1014 243.552 1014.45 244 1015 244V242ZM1095.71 243.707C1096.1 243.317 1096.1 242.683 1095.71 242.293L1089.34 235.929C1088.95 235.538 1088.32 235.538 1087.93 235.929C1087.54 236.319 1087.54 236.953 1087.93 237.343L1093.59 243L1087.93 248.657C1087.54 249.047 1087.54 249.681 1087.93 250.071C1088.32 250.462 1088.95 250.462 1089.34 250.071L1095.71 243.707ZM1015 244H1095V242H1015V244Z" fill="#5384ED"/>
<path d="M1466 242C1465.45 242 1465 242.448 1465 243C1465 243.552 1465.45 244 1466 244V242ZM1546.71 243.707C1547.1 243.317 1547.1 242.683 1546.71 242.293L1540.34 235.929C1539.95 235.538 1539.32 235.538 1538.93 235.929C1538.54 236.319 1538.54 236.953 1538.93 237.343L1544.59 243L1538.93 248.657C1538.54 249.047 1538.54 249.681 1538.93 250.071C1539.32 250.462 1539.95 250.462 1540.34 250.071L1546.71 243.707ZM1466 244H1546V242H1466V244Z" fill="#5384ED"/>
<text fill="#5384ED" xml:space="preserve" style="white-space: pre" font-family="Nunito Sans" font-size="32" font-weight="600" letter-spacing="0em"><tspan x="231.469" y="253.528">Interview team</tspan></text>
<text fill="#5384ED" xml:space="preserve" style="white-space: pre" font-family="Roboto" font-size="18" font-weight="500" letter-spacing="0em"><tspan x="504.284" y="739.652">Confused</tspan></text>
<text fill="#5384ED" xml:space="preserve" style="white-space: pre" font-family="Roboto" font-size="50" font-weight="500" letter-spacing="0em"><tspan x="598" y="750.59">&#x1f635;&#x200d;</tspan></text>
<text fill="#5384ED" xml:space="preserve" style="white-space: pre" font-family="Roboto" font-size="18" font-weight="500" letter-spacing="0em"><tspan x="1371.27" y="740.152">Overwhelmed</tspan></text>
<text fill="#5384ED" xml:space="preserve" style="white-space: pre" font-family="Roboto" font-size="50" font-weight="500" letter-spacing="0em"><tspan x="1498" y="755.5">&#x1f629;</tspan></text>
<text fill="#5384ED" xml:space="preserve" style="white-space: pre" font-family="Nunito Sans" font-size="32" font-weight="600" letter-spacing="0em"><tspan x="677.469" y="253.528">Interview type</tspan></text>
<text fill="#5384ED" xml:space="preserve" style="white-space: pre" font-family="Nunito Sans" font-size="32" font-weight="600" letter-spacing="0em"><tspan x="1130.25" y="253.528">Interview availability</tspan></text>
<text fill="#5384ED" xml:space="preserve" style="white-space: pre" font-family="Nunito Sans" font-size="32" font-weight="600" letter-spacing="0em"><tspan x="1585.41" y="253.528">Book interview</tspan></text>
<path d="M583 309V409" stroke="#5384ED" stroke-width="2"/>
<path d="M1055 309L1055 555" stroke="#5384ED" stroke-width="2"/>
<path d="M1506 309L1506 409" stroke="#5384ED" stroke-width="2"/>
<path opacity="0.2" d="M430.911 222.459C429.507 224.165 429.753 226.686 431.459 228.089C433.165 229.493 435.686 229.247 437.089 227.541L430.911 222.459ZM712.907 228.848C715.032 229.451 717.244 228.218 717.848 226.093L727.685 191.463C728.288 189.338 727.055 187.126 724.93 186.522C722.805 185.919 720.593 187.152 719.989 189.277L711.245 220.059L680.463 211.315C678.338 210.712 676.126 211.945 675.522 214.07C674.919 216.195 676.152 218.407 678.277 219.011L712.907 228.848ZM437.089 227.541C454.27 206.65 499.013 172 579.022 172V164C496.518 164 449.544 199.802 430.911 222.459L437.089 227.541ZM579.022 172C659.183 172 698.347 205.139 710.506 226.948L717.494 223.052C703.607 198.146 661.375 164 579.022 164V172Z" fill="#5384ED"/>
<path opacity="0.2" d="M1367.91 222.459C1366.51 224.165 1366.75 226.686 1368.46 228.089C1370.17 229.493 1372.69 229.247 1374.09 227.541L1367.91 222.459ZM1649.91 228.848C1652.03 229.451 1654.24 228.218 1654.85 226.093L1664.68 191.463C1665.29 189.338 1664.05 187.126 1661.93 186.522C1659.8 185.919 1657.59 187.152 1656.99 189.277L1648.25 220.059L1617.46 211.315C1615.34 210.712 1613.13 211.945 1612.52 214.07C1611.92 216.195 1613.15 218.407 1615.28 219.011L1649.91 228.848ZM1374.09 227.541C1391.27 206.65 1436.01 172 1516.02 172V164C1433.52 164 1386.54 199.802 1367.91 222.459L1374.09 227.541ZM1516.02 172C1596.18 172 1635.35 205.139 1647.51 226.948L1654.49 223.052C1640.61 198.146 1598.38 164 1516.02 164V172Z" fill="#5384ED"/>
<path opacity="0.2" d="M717.203 268.395C718.526 266.626 718.165 264.12 716.395 262.797C714.626 261.474 712.119 261.835 710.797 263.605L717.203 268.395ZM435.246 262.199C433.147 261.511 430.887 262.655 430.199 264.754L418.983 298.962C418.295 301.061 419.439 303.321 421.538 304.009C423.637 304.697 425.897 303.554 426.585 301.454L436.555 271.047L466.962 281.017C469.061 281.705 471.321 280.561 472.009 278.462C472.697 276.363 471.554 274.103 469.454 273.415L435.246 262.199ZM710.797 263.605C692.072 288.647 652.462 319 572.372 319L572.372 327C654.796 327 696.859 295.603 717.203 268.395L710.797 263.605ZM572.372 319C491.944 319 449.651 288.063 437.569 264.194L430.431 267.806C444.396 295.396 490.287 327 572.372 327L572.372 319Z" fill="#5384ED"/>
<path opacity="0.2" d="M1654.2 268.395C1655.53 266.626 1655.16 264.12 1653.4 262.797C1651.63 261.474 1649.12 261.835 1647.8 263.605L1654.2 268.395ZM1372.25 262.199C1370.15 261.511 1367.89 262.655 1367.2 264.754L1355.98 298.962C1355.29 301.061 1356.44 303.321 1358.54 304.009C1360.64 304.697 1362.9 303.554 1363.58 301.454L1373.55 271.047L1403.96 281.017C1406.06 281.705 1408.32 280.561 1409.01 278.462C1409.7 276.363 1408.55 274.103 1406.45 273.415L1372.25 262.199ZM1647.8 263.605C1629.07 288.647 1589.46 319 1509.37 319L1509.37 327C1591.8 327 1633.86 295.603 1654.2 268.395L1647.8 263.605ZM1509.37 319C1428.94 319 1386.65 288.063 1374.57 264.194L1367.43 267.806C1381.4 295.396 1427.29 327 1509.37 327L1509.37 319Z" fill="#5384ED"/>
<path opacity="0.2" d="M566.843 153.544C565.486 155.288 565.8 157.801 567.544 159.157C569.288 160.514 571.801 160.2 573.157 158.456L566.843 153.544ZM1237.82 159.821C1239.93 160.474 1242.17 159.293 1242.82 157.183L1253.46 122.792C1254.12 120.681 1252.94 118.441 1250.83 117.788C1248.72 117.135 1246.48 118.316 1245.82 120.427L1236.36 150.996L1205.79 141.536C1203.68 140.882 1201.44 142.064 1200.79 144.174C1200.14 146.285 1201.32 148.525 1203.43 149.178L1237.82 159.821ZM573.157 158.456C615.249 104.34 723.691 16 916.5 16V8C721.019 8 610.321 97.6456 566.843 153.544L573.157 158.456ZM916.5 16C1109.44 16 1205.16 100.401 1235.46 157.866L1242.54 154.134C1210.61 93.5835 1111.85 8 916.5 8V16Z" fill="#5384ED"/>
<path opacity="0.2" d="M1242.27 349.31C1243.54 347.506 1243.11 345.01 1241.31 343.734C1239.51 342.459 1237.01 342.887 1235.73 344.691L1242.27 349.31ZM571.33 343.228C569.246 342.493 566.962 343.587 566.228 345.67L554.258 379.622C553.524 381.706 554.618 383.99 556.701 384.724C558.785 385.459 561.069 384.365 561.803 382.282L572.443 352.102L602.622 362.741C604.706 363.476 606.99 362.382 607.724 360.299C608.459 358.215 607.365 355.931 605.282 355.197L571.33 343.228ZM1235.73 344.691C1189.83 409.598 1093.5 487 900.61 487L900.61 495C1096.01 495 1194.82 416.402 1242.27 349.31L1235.73 344.691ZM900.61 487C707.403 487 603.834 408.413 573.608 345.273L566.392 348.727C598.399 415.587 705.528 495 900.61 495L900.61 487Z" fill="#5384ED"/>
</svg>
