<svg width="3206" height="1310" viewBox="0 0 3206 1310" fill="none" xmlns="http://www.w3.org/2000/svg">
<g clip-path="url(#clip0_437_6344)">
<rect x="2490" y="392" width="8" height="1197.34" transform="rotate(-30 2490 392)" fill="#F2F2F2"/>
<rect x="2502.12" y="385" width="8" height="1197.34" transform="rotate(-30 2502.12 385)" fill="#F2F2F2"/>
<rect x="2514.25" y="378" width="8" height="1197.34" transform="rotate(-30 2514.25 378)" fill="#F2F2F2"/>
<rect x="2526.37" y="371" width="8" height="1197.34" transform="rotate(-30 2526.37 371)" fill="#F2F2F2"/>
<rect x="2538.5" y="364" width="8" height="1197.34" transform="rotate(-30 2538.5 364)" fill="#F2F2F2"/>
<rect x="2550.62" y="357" width="8" height="1197.34" transform="rotate(-30 2550.62 357)" fill="#F2F2F2"/>
<rect x="2562.75" y="350" width="8" height="1197.34" transform="rotate(-30 2562.75 350)" fill="#F2F2F2"/>
<rect x="2574.87" y="343" width="8" height="1197.34" transform="rotate(-30 2574.87 343)" fill="#F2F2F2"/>
<rect x="2586.99" y="336" width="8" height="1197.34" transform="rotate(-30 2586.99 336)" fill="#F2F2F2"/>
<rect x="2599.12" y="329" width="8" height="1197.34" transform="rotate(-30 2599.12 329)" fill="#F2F2F2"/>
<rect x="2611.24" y="322" width="8" height="1197.34" transform="rotate(-30 2611.24 322)" fill="#F2F2F2"/>
<rect x="2623.37" y="315" width="8" height="1197.34" transform="rotate(-30 2623.37 315)" fill="#F2F2F2"/>
<rect x="2635.49" y="308" width="8" height="1197.34" transform="rotate(-30 2635.49 308)" fill="#F2F2F2"/>
<rect x="2647.62" y="301" width="8" height="1197.34" transform="rotate(-30 2647.62 301)" fill="#F2F2F2"/>
<rect x="2659.74" y="294" width="8" height="1197.34" transform="rotate(-30 2659.74 294)" fill="#F2F2F2"/>
<rect x="2671.87" y="287" width="8" height="1197.34" transform="rotate(-30 2671.87 287)" fill="#F2F2F2"/>
<rect x="2683.99" y="280" width="8" height="1197.34" transform="rotate(-30 2683.99 280)" fill="#F2F2F2"/>
<rect x="2696.11" y="273" width="8" height="1197.34" transform="rotate(-30 2696.11 273)" fill="#F2F2F2"/>
<rect x="2708.24" y="266" width="8" height="1197.34" transform="rotate(-30 2708.24 266)" fill="#F2F2F2"/>
<rect x="2720.36" y="259" width="8" height="1197.34" transform="rotate(-30 2720.36 259)" fill="#F2F2F2"/>
<rect x="2732.49" y="252" width="8" height="1197.34" transform="rotate(-30 2732.49 252)" fill="#F2F2F2"/>
<rect x="2744.61" y="245" width="8" height="1197.34" transform="rotate(-30 2744.61 245)" fill="#F2F2F2"/>
<rect x="2756.74" y="238" width="8" height="1197.34" transform="rotate(-30 2756.74 238)" fill="#F2F2F2"/>
<rect x="2768.86" y="231" width="8" height="1197.34" transform="rotate(-30 2768.86 231)" fill="#F2F2F2"/>
<rect x="2780.98" y="224" width="8" height="1197.34" transform="rotate(-30 2780.98 224)" fill="#F2F2F2"/>
<rect x="2793.11" y="217" width="8" height="1197.34" transform="rotate(-30 2793.11 217)" fill="#F2F2F2"/>
<rect x="2805.23" y="210" width="8" height="1197.34" transform="rotate(-30 2805.23 210)" fill="#F2F2F2"/>
<rect x="2817.36" y="203" width="8" height="1197.34" transform="rotate(-30 2817.36 203)" fill="#F2F2F2"/>
<rect x="2829.48" y="196" width="8" height="1197.34" transform="rotate(-30 2829.48 196)" fill="#F2F2F2"/>
<rect x="2841.61" y="189" width="8" height="1197.34" transform="rotate(-30 2841.61 189)" fill="#F2F2F2"/>
<rect x="2853.73" y="182" width="8" height="1197.34" transform="rotate(-30 2853.73 182)" fill="#F2F2F2"/>
<rect x="2865.85" y="175" width="8" height="1197.34" transform="rotate(-30 2865.85 175)" fill="#F2F2F2"/>
<rect x="2877.98" y="168" width="8" height="1197.34" transform="rotate(-30 2877.98 168)" fill="#F2F2F2"/>
<rect x="2890.1" y="161" width="8" height="1197.34" transform="rotate(-30 2890.1 161)" fill="#F2F2F2"/>
<rect x="2902.23" y="154" width="8" height="1197.34" transform="rotate(-30 2902.23 154)" fill="#F2F2F2"/>
<rect x="2914.35" y="147" width="8" height="1197.34" transform="rotate(-30 2914.35 147)" fill="#F2F2F2"/>
<rect x="2926.48" y="140" width="8" height="1197.34" transform="rotate(-30 2926.48 140)" fill="#F2F2F2"/>
<rect x="2938.6" y="133" width="8" height="1197.34" transform="rotate(-30 2938.6 133)" fill="#F2F2F2"/>
<rect x="2950.73" y="126" width="8" height="1197.34" transform="rotate(-30 2950.73 126)" fill="#F2F2F2"/>
<rect x="2962.85" y="119" width="8" height="1197.34" transform="rotate(-30 2962.85 119)" fill="#F2F2F2"/>
<rect x="2974.97" y="112" width="8" height="1197.34" transform="rotate(-30 2974.97 112)" fill="#F2F2F2"/>
<rect x="2987.1" y="105" width="8" height="1197.34" transform="rotate(-30 2987.1 105)" fill="#F2F2F2"/>
<rect x="2999.22" y="98" width="8" height="1197.34" transform="rotate(-30 2999.22 98)" fill="#F2F2F2"/>
<rect x="3011.35" y="91" width="8" height="1197.34" transform="rotate(-30 3011.35 91)" fill="#F2F2F2"/>
<rect x="3023.47" y="84" width="8" height="1197.34" transform="rotate(-30 3023.47 84)" fill="#F2F2F2"/>
<rect x="3035.6" y="77" width="8" height="1197.34" transform="rotate(-30 3035.6 77)" fill="#F2F2F2"/>
<rect x="3047.72" y="70" width="8" height="1197.34" transform="rotate(-30 3047.72 70)" fill="#F2F2F2"/>
<rect x="3059.84" y="63" width="8" height="1197.34" transform="rotate(-30 3059.84 63)" fill="#F2F2F2"/>
<rect x="3071.97" y="56" width="8" height="1197.34" transform="rotate(-30 3071.97 56)" fill="#F2F2F2"/>
<rect x="3084.09" y="49" width="8" height="1197.34" transform="rotate(-30 3084.09 49)" fill="#F2F2F2"/>
<rect x="3096.22" y="42" width="8" height="1197.34" transform="rotate(-30 3096.22 42)" fill="#F2F2F2"/>
<rect x="3108.34" y="35" width="8" height="1197.34" transform="rotate(-30 3108.34 35)" fill="#F2F2F2"/>
<rect x="3120.47" y="28" width="8" height="1197.34" transform="rotate(-30 3120.47 28)" fill="#F2F2F2"/>
<rect x="3132.59" y="21" width="8" height="1197.34" transform="rotate(-30 3132.59 21)" fill="#F2F2F2"/>
<rect x="3144.72" y="14" width="8" height="1197.34" transform="rotate(-30 3144.72 14)" fill="#F2F2F2"/>
<rect x="3156.84" y="7" width="8" height="1197.34" transform="rotate(-30 3156.84 7)" fill="#F2F2F2"/>
<rect x="3168.96" width="8" height="1197.34" transform="rotate(-30 3168.96 0)" fill="#F2F2F2"/>
</g>
<g clip-path="url(#clip1_437_6344)">
<rect x="-479" y="454" width="8" height="1345.71" transform="rotate(-30 -479 454)" fill="#F2F2F2"/>
<rect x="-466.875" y="447" width="8" height="1345.71" transform="rotate(-30 -466.875 447)" fill="#F2F2F2"/>
<rect x="-454.751" y="440" width="8" height="1345.71" transform="rotate(-30 -454.751 440)" fill="#F2F2F2"/>
<rect x="-442.627" y="433" width="8" height="1345.71" transform="rotate(-30 -442.627 433)" fill="#F2F2F2"/>
<rect x="-430.502" y="426" width="8" height="1345.71" transform="rotate(-30 -430.502 426)" fill="#F2F2F2"/>
<rect x="-418.378" y="419" width="8" height="1345.71" transform="rotate(-30 -418.378 419)" fill="#F2F2F2"/>
<rect x="-406.254" y="412" width="8" height="1345.71" transform="rotate(-30 -406.254 412)" fill="#F2F2F2"/>
<rect x="-394.129" y="405" width="8" height="1345.71" transform="rotate(-30 -394.129 405)" fill="#F2F2F2"/>
<rect x="-382.005" y="398" width="8" height="1345.71" transform="rotate(-30 -382.005 398)" fill="#F2F2F2"/>
<rect x="-369.881" y="391" width="8" height="1345.71" transform="rotate(-30 -369.881 391)" fill="#F2F2F2"/>
<rect x="-357.756" y="384" width="8" height="1345.71" transform="rotate(-30 -357.756 384)" fill="#F2F2F2"/>
<rect x="-345.632" y="377" width="8" height="1345.71" transform="rotate(-30 -345.632 377)" fill="#F2F2F2"/>
<rect x="-333.508" y="370" width="8" height="1345.71" transform="rotate(-30 -333.508 370)" fill="#F2F2F2"/>
<rect x="-321.383" y="363" width="8" height="1345.71" transform="rotate(-30 -321.383 363)" fill="#F2F2F2"/>
<rect x="-309.259" y="356" width="8" height="1345.71" transform="rotate(-30 -309.259 356)" fill="#F2F2F2"/>
<rect x="-297.135" y="349" width="8" height="1345.71" transform="rotate(-30 -297.135 349)" fill="#F2F2F2"/>
<rect x="-285.01" y="342" width="8" height="1345.71" transform="rotate(-30 -285.01 342)" fill="#F2F2F2"/>
<rect x="-272.886" y="335" width="8" height="1345.71" transform="rotate(-30 -272.886 335)" fill="#F2F2F2"/>
<rect x="-260.762" y="328" width="8" height="1345.71" transform="rotate(-30 -260.762 328)" fill="#F2F2F2"/>
<rect x="-248.637" y="321" width="8" height="1345.71" transform="rotate(-30 -248.637 321)" fill="#F2F2F2"/>
<rect x="-236.513" y="314" width="8" height="1345.71" transform="rotate(-30 -236.513 314)" fill="#F2F2F2"/>
<rect x="-224.389" y="307" width="8" height="1345.71" transform="rotate(-30 -224.389 307)" fill="#F2F2F2"/>
<rect x="-212.264" y="300" width="8" height="1345.71" transform="rotate(-30 -212.264 300)" fill="#F2F2F2"/>
<rect x="-200.14" y="293" width="8" height="1345.71" transform="rotate(-30 -200.14 293)" fill="#F2F2F2"/>
<rect x="-188.016" y="286" width="8" height="1345.71" transform="rotate(-30 -188.016 286)" fill="#F2F2F2"/>
<rect x="-175.891" y="279" width="8" height="1345.71" transform="rotate(-30 -175.891 279)" fill="#F2F2F2"/>
<rect x="-163.767" y="272" width="8" height="1345.71" transform="rotate(-30 -163.767 272)" fill="#F2F2F2"/>
<rect x="-151.643" y="265" width="8" height="1345.71" transform="rotate(-30 -151.643 265)" fill="#F2F2F2"/>
<rect x="-139.518" y="258" width="8" height="1345.71" transform="rotate(-30 -139.518 258)" fill="#F2F2F2"/>
<rect x="-127.394" y="251" width="8" height="1345.71" transform="rotate(-30 -127.394 251)" fill="#F2F2F2"/>
<rect x="-115.27" y="244" width="8" height="1345.71" transform="rotate(-30 -115.27 244)" fill="#F2F2F2"/>
<rect x="-103.145" y="237" width="8" height="1345.71" transform="rotate(-30 -103.145 237)" fill="#F2F2F2"/>
<rect x="-91.0205" y="230" width="8" height="1345.71" transform="rotate(-30 -91.0205 230)" fill="#F2F2F2"/>
<rect x="-78.8965" y="223" width="8" height="1345.71" transform="rotate(-30 -78.8965 223)" fill="#F2F2F2"/>
<rect x="-66.772" y="216" width="8" height="1345.71" transform="rotate(-30 -66.772 216)" fill="#F2F2F2"/>
<rect x="-54.6475" y="209" width="8" height="1345.71" transform="rotate(-30 -54.6475 209)" fill="#F2F2F2"/>
<rect x="-42.5234" y="202" width="8" height="1345.71" transform="rotate(-30 -42.5234 202)" fill="#F2F2F2"/>
<rect x="-30.3989" y="195" width="8" height="1345.71" transform="rotate(-30 -30.3989 195)" fill="#F2F2F2"/>
<rect x="-18.2744" y="188" width="8" height="1345.71" transform="rotate(-30 -18.2744 188)" fill="#F2F2F2"/>
<rect x="-6.1499" y="181" width="8" height="1345.71" transform="rotate(-30 -6.1499 181)" fill="#F2F2F2"/>
<rect x="5.97412" y="174" width="8" height="1345.71" transform="rotate(-30 5.97412 174)" fill="#F2F2F2"/>
<rect x="18.0986" y="167" width="8" height="1345.71" transform="rotate(-30 18.0986 167)" fill="#F2F2F2"/>
<rect x="30.2231" y="160" width="8" height="1345.71" transform="rotate(-30 30.2231 160)" fill="#F2F2F2"/>
<rect x="42.3472" y="153" width="8" height="1345.71" transform="rotate(-30 42.3472 153)" fill="#F2F2F2"/>
<rect x="54.4717" y="146" width="8" height="1345.71" transform="rotate(-30 54.4717 146)" fill="#F2F2F2"/>
<rect x="66.5962" y="139" width="8" height="1345.71" transform="rotate(-30 66.5962 139)" fill="#F2F2F2"/>
<rect x="78.7202" y="132" width="8" height="1345.71" transform="rotate(-30 78.7202 132)" fill="#F2F2F2"/>
<rect x="90.8447" y="125" width="8" height="1345.71" transform="rotate(-30 90.8447 125)" fill="#F2F2F2"/>
<rect x="102.969" y="118" width="8" height="1345.71" transform="rotate(-30 102.969 118)" fill="#F2F2F2"/>
<rect x="115.093" y="111" width="8" height="1345.71" transform="rotate(-30 115.093 111)" fill="#F2F2F2"/>
<rect x="127.218" y="104" width="8" height="1345.71" transform="rotate(-30 127.218 104)" fill="#F2F2F2"/>
<rect x="139.342" y="97" width="8" height="1345.71" transform="rotate(-30 139.342 97)" fill="#F2F2F2"/>
<rect x="151.466" y="90" width="8" height="1345.71" transform="rotate(-30 151.466 90)" fill="#F2F2F2"/>
<rect x="163.591" y="83" width="8" height="1345.71" transform="rotate(-30 163.591 83)" fill="#F2F2F2"/>
<rect x="175.715" y="76" width="8" height="1345.71" transform="rotate(-30 175.715 76)" fill="#F2F2F2"/>
<rect x="187.839" y="69" width="8" height="1345.71" transform="rotate(-30 187.839 69)" fill="#F2F2F2"/>
<rect x="199.964" y="62" width="8" height="1345.71" transform="rotate(-30 199.964 62)" fill="#F2F2F2"/>
<rect x="212.088" y="55" width="8" height="1345.71" transform="rotate(-30 212.088 55)" fill="#F2F2F2"/>
<rect x="224.212" y="48" width="8" height="1345.71" transform="rotate(-30 224.212 48)" fill="#F2F2F2"/>
<rect x="236.337" y="41" width="8" height="1345.71" transform="rotate(-30 236.337 41)" fill="#F2F2F2"/>
<rect x="248.461" y="34" width="8" height="1345.71" transform="rotate(-30 248.461 34)" fill="#F2F2F2"/>
<rect x="260.585" y="27" width="8" height="1345.71" transform="rotate(-30 260.585 27)" fill="#F2F2F2"/>
<rect x="272.71" y="20" width="8" height="1345.71" transform="rotate(-30 272.71 20)" fill="#F2F2F2"/>
<rect x="284.834" y="13" width="8" height="1345.71" transform="rotate(-30 284.834 13)" fill="#F2F2F2"/>
<rect x="296.959" y="6" width="8" height="1345.71" transform="rotate(-30 296.959 6)" fill="#F2F2F2"/>
<rect x="309.083" y="-1" width="8" height="1345.71" transform="rotate(-30 309.083 -1)" fill="#F2F2F2"/>
<rect x="321.208" y="-8" width="8" height="1345.71" transform="rotate(-30 321.208 -8)" fill="#F2F2F2"/>
<rect x="333.332" y="-15" width="8" height="1345.71" transform="rotate(-30 333.332 -15)" fill="#F2F2F2"/>
<rect x="345.456" y="-22" width="8" height="1345.71" transform="rotate(-30 345.456 -22)" fill="#F2F2F2"/>
<rect x="357.581" y="-29" width="8" height="1345.71" transform="rotate(-30 357.581 -29)" fill="#F2F2F2"/>
<rect x="369.705" y="-36" width="8" height="1345.71" transform="rotate(-30 369.705 -36)" fill="#F2F2F2"/>
<rect x="381.829" y="-43" width="8" height="1345.71" transform="rotate(-30 381.829 -43)" fill="#F2F2F2"/>
<rect x="393.954" y="-50" width="8" height="1345.71" transform="rotate(-30 393.954 -50)" fill="#F2F2F2"/>
<rect x="406.078" y="-57" width="8" height="1345.71" transform="rotate(-30 406.078 -57)" fill="#F2F2F2"/>
<rect x="418.202" y="-64" width="8" height="1345.71" transform="rotate(-30 418.202 -64)" fill="#F2F2F2"/>
<rect x="430.327" y="-71" width="8" height="1345.71" transform="rotate(-30 430.327 -71)" fill="#F2F2F2"/>
<rect x="442.451" y="-78" width="8" height="1345.71" transform="rotate(-30 442.451 -78)" fill="#F2F2F2"/>
<rect x="454.575" y="-85" width="8" height="1345.71" transform="rotate(-30 454.575 -85)" fill="#F2F2F2"/>
<rect x="466.7" y="-92" width="8" height="1345.71" transform="rotate(-30 466.7 -92)" fill="#F2F2F2"/>
<rect x="478.824" y="-99" width="8" height="1345.71" transform="rotate(-30 478.824 -99)" fill="#F2F2F2"/>
<rect x="490.948" y="-106" width="8" height="1345.71" transform="rotate(-30 490.948 -106)" fill="#F2F2F2"/>
<rect x="503.073" y="-113" width="8" height="1345.71" transform="rotate(-30 503.073 -113)" fill="#F2F2F2"/>
<rect x="515.197" y="-120" width="8" height="1345.71" transform="rotate(-30 515.197 -120)" fill="#F2F2F2"/>
<rect x="527.321" y="-127" width="8" height="1345.71" transform="rotate(-30 527.321 -127)" fill="#F2F2F2"/>
<rect x="539.446" y="-134" width="8" height="1345.71" transform="rotate(-30 539.446 -134)" fill="#F2F2F2"/>
<rect x="551.57" y="-141" width="8" height="1345.71" transform="rotate(-30 551.57 -141)" fill="#F2F2F2"/>
<rect x="563.694" y="-148" width="8" height="1345.71" transform="rotate(-30 563.694 -148)" fill="#F2F2F2"/>
<rect x="575.819" y="-155" width="8" height="1345.71" transform="rotate(-30 575.819 -155)" fill="#F2F2F2"/>
<rect x="587.943" y="-162" width="8" height="1345.71" transform="rotate(-30 587.943 -162)" fill="#F2F2F2"/>
<rect x="600.068" y="-169" width="8" height="1345.71" transform="rotate(-30 600.068 -169)" fill="#F2F2F2"/>
<rect x="612.192" y="-176" width="8" height="1345.71" transform="rotate(-30 612.192 -176)" fill="#F2F2F2"/>
<rect x="624.316" y="-183" width="8" height="1345.71" transform="rotate(-30 624.316 -183)" fill="#F2F2F2"/>
<rect x="636.441" y="-190" width="8" height="1345.71" transform="rotate(-30 636.441 -190)" fill="#F2F2F2"/>
<rect x="648.565" y="-197" width="8" height="1345.71" transform="rotate(-30 648.565 -197)" fill="#F2F2F2"/>
<rect x="660.689" y="-204" width="8" height="1345.71" transform="rotate(-30 660.689 -204)" fill="#F2F2F2"/>
<rect x="672.814" y="-211" width="8" height="1345.71" transform="rotate(-30 672.814 -211)" fill="#F2F2F2"/>
<rect x="684.938" y="-218" width="8" height="1345.71" transform="rotate(-30 684.938 -218)" fill="#F2F2F2"/>
<rect x="697.062" y="-225" width="8" height="1345.71" transform="rotate(-30 697.062 -225)" fill="#F2F2F2"/>
<rect x="709.187" y="-232" width="8" height="1345.71" transform="rotate(-30 709.187 -232)" fill="#F2F2F2"/>
<rect x="721.311" y="-239" width="8" height="1345.71" transform="rotate(-30 721.311 -239)" fill="#F2F2F2"/>
<rect x="733.436" y="-246" width="8" height="1345.71" transform="rotate(-30 733.436 -246)" fill="#F2F2F2"/>
</g>
<g clip-path="url(#clip2_437_6344)">
<rect x="2152" y="392" width="8" height="1197.34" transform="rotate(-30 2152 392)" fill="#F2F2F2"/>
<rect x="2164.12" y="385" width="8" height="1197.34" transform="rotate(-30 2164.12 385)" fill="#F2F2F2"/>
<rect x="2176.25" y="378" width="8" height="1197.34" transform="rotate(-30 2176.25 378)" fill="#F2F2F2"/>
<rect x="2188.37" y="371" width="8" height="1197.34" transform="rotate(-30 2188.37 371)" fill="#F2F2F2"/>
<rect x="2200.5" y="364" width="8" height="1197.34" transform="rotate(-30 2200.5 364)" fill="#F2F2F2"/>
<rect x="2212.62" y="357" width="8" height="1197.34" transform="rotate(-30 2212.62 357)" fill="#F2F2F2"/>
<rect x="2224.75" y="350" width="8" height="1197.34" transform="rotate(-30 2224.75 350)" fill="#F2F2F2"/>
<rect x="2236.87" y="343" width="8" height="1197.34" transform="rotate(-30 2236.87 343)" fill="#F2F2F2"/>
<rect x="2248.99" y="336" width="8" height="1197.34" transform="rotate(-30 2248.99 336)" fill="#F2F2F2"/>
<rect x="2261.12" y="329" width="8" height="1197.34" transform="rotate(-30 2261.12 329)" fill="#F2F2F2"/>
<rect x="2273.24" y="322" width="8" height="1197.34" transform="rotate(-30 2273.24 322)" fill="#F2F2F2"/>
<rect x="2285.37" y="315" width="8" height="1197.34" transform="rotate(-30 2285.37 315)" fill="#F2F2F2"/>
<rect x="2297.49" y="308" width="8" height="1197.34" transform="rotate(-30 2297.49 308)" fill="#F2F2F2"/>
<rect x="2309.62" y="301" width="8" height="1197.34" transform="rotate(-30 2309.62 301)" fill="#F2F2F2"/>
<rect x="2321.74" y="294" width="8" height="1197.34" transform="rotate(-30 2321.74 294)" fill="#F2F2F2"/>
<rect x="2333.87" y="287" width="8" height="1197.34" transform="rotate(-30 2333.87 287)" fill="#F2F2F2"/>
<rect x="2345.99" y="280" width="8" height="1197.34" transform="rotate(-30 2345.99 280)" fill="#F2F2F2"/>
<rect x="2358.11" y="273" width="8" height="1197.34" transform="rotate(-30 2358.11 273)" fill="#F2F2F2"/>
<rect x="2370.24" y="266" width="8" height="1197.34" transform="rotate(-30 2370.24 266)" fill="#F2F2F2"/>
<rect x="2382.36" y="259" width="8" height="1197.34" transform="rotate(-30 2382.36 259)" fill="#F2F2F2"/>
<rect x="2394.49" y="252" width="8" height="1197.34" transform="rotate(-30 2394.49 252)" fill="#F2F2F2"/>
<rect x="2406.61" y="245" width="8" height="1197.34" transform="rotate(-30 2406.61 245)" fill="#F2F2F2"/>
<rect x="2418.74" y="238" width="8" height="1197.34" transform="rotate(-30 2418.74 238)" fill="#F2F2F2"/>
<rect x="2430.86" y="231" width="8" height="1197.34" transform="rotate(-30 2430.86 231)" fill="#F2F2F2"/>
<rect x="2442.98" y="224" width="8" height="1197.34" transform="rotate(-30 2442.98 224)" fill="#F2F2F2"/>
<rect x="2455.11" y="217" width="8" height="1197.34" transform="rotate(-30 2455.11 217)" fill="#F2F2F2"/>
<rect x="2467.23" y="210" width="8" height="1197.34" transform="rotate(-30 2467.23 210)" fill="#F2F2F2"/>
<rect x="2479.36" y="203" width="8" height="1197.34" transform="rotate(-30 2479.36 203)" fill="#F2F2F2"/>
<rect x="2491.48" y="196" width="8" height="1197.34" transform="rotate(-30 2491.48 196)" fill="#F2F2F2"/>
<rect x="2503.61" y="189" width="8" height="1197.34" transform="rotate(-30 2503.61 189)" fill="#F2F2F2"/>
<rect x="2515.73" y="182" width="8" height="1197.34" transform="rotate(-30 2515.73 182)" fill="#F2F2F2"/>
<rect x="2527.85" y="175" width="8" height="1197.34" transform="rotate(-30 2527.85 175)" fill="#F2F2F2"/>
<rect x="2539.98" y="168" width="8" height="1197.34" transform="rotate(-30 2539.98 168)" fill="#F2F2F2"/>
<rect x="2552.1" y="161" width="8" height="1197.34" transform="rotate(-30 2552.1 161)" fill="#F2F2F2"/>
<rect x="2564.23" y="154" width="8" height="1197.34" transform="rotate(-30 2564.23 154)" fill="#F2F2F2"/>
<rect x="2576.35" y="147" width="8" height="1197.34" transform="rotate(-30 2576.35 147)" fill="#F2F2F2"/>
<rect x="2588.48" y="140" width="8" height="1197.34" transform="rotate(-30 2588.48 140)" fill="#F2F2F2"/>
<rect x="2600.6" y="133" width="8" height="1197.34" transform="rotate(-30 2600.6 133)" fill="#F2F2F2"/>
<rect x="2612.73" y="126" width="8" height="1197.34" transform="rotate(-30 2612.73 126)" fill="#F2F2F2"/>
<rect x="2624.85" y="119" width="8" height="1197.34" transform="rotate(-30 2624.85 119)" fill="#F2F2F2"/>
<rect x="2636.97" y="112" width="8" height="1197.34" transform="rotate(-30 2636.97 112)" fill="#F2F2F2"/>
<rect x="2649.1" y="105" width="8" height="1197.34" transform="rotate(-30 2649.1 105)" fill="#F2F2F2"/>
<rect x="2661.22" y="98" width="8" height="1197.34" transform="rotate(-30 2661.22 98)" fill="#F2F2F2"/>
<rect x="2673.35" y="91" width="8" height="1197.34" transform="rotate(-30 2673.35 91)" fill="#F2F2F2"/>
<rect x="2685.47" y="84" width="8" height="1197.34" transform="rotate(-30 2685.47 84)" fill="#F2F2F2"/>
<rect x="2697.6" y="77" width="8" height="1197.34" transform="rotate(-30 2697.6 77)" fill="#F2F2F2"/>
<rect x="2709.72" y="70" width="8" height="1197.34" transform="rotate(-30 2709.72 70)" fill="#F2F2F2"/>
<rect x="2721.84" y="63" width="8" height="1197.34" transform="rotate(-30 2721.84 63)" fill="#F2F2F2"/>
<rect x="2733.97" y="56" width="8" height="1197.34" transform="rotate(-30 2733.97 56)" fill="#F2F2F2"/>
<rect x="2746.09" y="49" width="8" height="1197.34" transform="rotate(-30 2746.09 49)" fill="#F2F2F2"/>
<rect x="2758.22" y="42" width="8" height="1197.34" transform="rotate(-30 2758.22 42)" fill="#F2F2F2"/>
<rect x="2770.34" y="35" width="8" height="1197.34" transform="rotate(-30 2770.34 35)" fill="#F2F2F2"/>
<rect x="2782.47" y="28" width="8" height="1197.34" transform="rotate(-30 2782.47 28)" fill="#F2F2F2"/>
<rect x="2794.59" y="21" width="8" height="1197.34" transform="rotate(-30 2794.59 21)" fill="#F2F2F2"/>
<rect x="2806.72" y="14" width="8" height="1197.34" transform="rotate(-30 2806.72 14)" fill="#F2F2F2"/>
<rect x="2818.84" y="7" width="8" height="1197.34" transform="rotate(-30 2818.84 7)" fill="#F2F2F2"/>
<rect x="2830.96" width="8" height="1197.34" transform="rotate(-30 2830.96 0)" fill="#F2F2F2"/>
<rect x="2843.09" y="-7" width="8" height="1197.34" transform="rotate(-30 2843.09 -7)" fill="#F2F2F2"/>
<rect x="2855.21" y="-14" width="8" height="1197.34" transform="rotate(-30 2855.21 -14)" fill="#F2F2F2"/>
<rect x="2867.34" y="-21" width="8" height="1197.34" transform="rotate(-30 2867.34 -21)" fill="#F2F2F2"/>
</g>
<g clip-path="url(#clip3_437_6344)">
<rect x="345.273" y="356.295" width="12" height="1197.34" transform="rotate(-30 345.273 356.295)" fill="#F2F2F2"/>
<rect x="362.594" y="346.295" width="12" height="1197.34" transform="rotate(-30 362.594 346.295)" fill="#F2F2F2"/>
<rect x="379.915" y="336.295" width="12" height="1197.34" transform="rotate(-30 379.915 336.295)" fill="#F2F2F2"/>
<rect x="397.235" y="326.295" width="12" height="1197.34" transform="rotate(-30 397.235 326.295)" fill="#F2F2F2"/>
<rect x="414.556" y="316.295" width="12" height="1197.34" transform="rotate(-30 414.556 316.295)" fill="#F2F2F2"/>
<rect x="431.876" y="306.295" width="12" height="1197.34" transform="rotate(-30 431.876 306.295)" fill="#F2F2F2"/>
<rect x="449.196" y="296.295" width="12" height="1197.34" transform="rotate(-30 449.196 296.295)" fill="#F2F2F2"/>
<rect x="466.517" y="286.295" width="12" height="1197.34" transform="rotate(-30 466.517 286.295)" fill="#F2F2F2"/>
<rect x="483.837" y="276.295" width="12" height="1197.34" transform="rotate(-30 483.837 276.295)" fill="#F2F2F2"/>
<rect x="501.158" y="266.295" width="12" height="1197.34" transform="rotate(-30 501.158 266.295)" fill="#F2F2F2"/>
<rect x="518.479" y="256.295" width="12" height="1197.34" transform="rotate(-30 518.479 256.295)" fill="#F2F2F2"/>
<rect x="535.799" y="246.295" width="12" height="1197.34" transform="rotate(-30 535.799 246.295)" fill="#F2F2F2"/>
<rect x="553.12" y="236.295" width="12" height="1197.34" transform="rotate(-30 553.12 236.295)" fill="#F2F2F2"/>
<rect x="570.44" y="226.295" width="12" height="1197.34" transform="rotate(-30 570.44 226.295)" fill="#F2F2F2"/>
<rect x="587.761" y="216.295" width="12" height="1197.34" transform="rotate(-30 587.761 216.295)" fill="#F2F2F2"/>
<rect x="605.081" y="206.295" width="12" height="1197.34" transform="rotate(-30 605.081 206.295)" fill="#F2F2F2"/>
<rect x="622.401" y="196.295" width="12" height="1197.34" transform="rotate(-30 622.401 196.295)" fill="#F2F2F2"/>
<rect x="639.722" y="186.295" width="12" height="1197.34" transform="rotate(-30 639.722 186.295)" fill="#F2F2F2"/>
<rect x="657.042" y="176.295" width="12" height="1197.34" transform="rotate(-30 657.042 176.295)" fill="#F2F2F2"/>
<rect x="674.363" y="166.295" width="12" height="1197.34" transform="rotate(-30 674.363 166.295)" fill="#F2F2F2"/>
<rect x="691.684" y="156.295" width="12" height="1197.34" transform="rotate(-30 691.684 156.295)" fill="#F2F2F2"/>
<rect x="709.004" y="146.295" width="12" height="1197.34" transform="rotate(-30 709.004 146.295)" fill="#F2F2F2"/>
<rect x="726.325" y="136.295" width="12" height="1197.34" transform="rotate(-30 726.325 136.295)" fill="#F2F2F2"/>
<rect x="743.645" y="126.295" width="12" height="1197.34" transform="rotate(-30 743.645 126.295)" fill="#F2F2F2"/>
<rect x="760.966" y="116.295" width="12" height="1197.34" transform="rotate(-30 760.966 116.295)" fill="#F2F2F2"/>
<rect x="778.286" y="106.295" width="12" height="1197.34" transform="rotate(-30 778.286 106.295)" fill="#F2F2F2"/>
<rect x="795.606" y="96.2954" width="12" height="1197.34" transform="rotate(-30 795.606 96.2954)" fill="#F2F2F2"/>
<rect x="812.927" y="86.2954" width="12" height="1197.34" transform="rotate(-30 812.927 86.2954)" fill="#F2F2F2"/>
<rect x="830.248" y="76.2954" width="12" height="1197.34" transform="rotate(-30 830.248 76.2954)" fill="#F2F2F2"/>
<rect x="847.568" y="66.2954" width="12" height="1197.34" transform="rotate(-30 847.568 66.2954)" fill="#F2F2F2"/>
<rect x="864.889" y="56.2954" width="12" height="1197.34" transform="rotate(-30 864.889 56.2954)" fill="#F2F2F2"/>
<rect x="882.209" y="46.2954" width="12" height="1197.34" transform="rotate(-30 882.209 46.2954)" fill="#F2F2F2"/>
<rect x="899.53" y="36.2954" width="12" height="1197.34" transform="rotate(-30 899.53 36.2954)" fill="#F2F2F2"/>
<rect x="916.85" y="26.2954" width="12" height="1197.34" transform="rotate(-30 916.85 26.2954)" fill="#F2F2F2"/>
<rect x="934.171" y="16.2954" width="12" height="1197.34" transform="rotate(-30 934.171 16.2954)" fill="#F2F2F2"/>
<rect x="951.491" y="6.29541" width="12" height="1197.34" transform="rotate(-30 951.491 6.29541)" fill="#F2F2F2"/>
<rect x="968.812" y="-3.70459" width="12" height="1197.34" transform="rotate(-30 968.812 -3.70459)" fill="#F2F2F2"/>
<rect x="986.132" y="-13.7046" width="12" height="1197.34" transform="rotate(-30 986.132 -13.7046)" fill="#F2F2F2"/>
<rect x="1003.45" y="-23.7046" width="12" height="1197.34" transform="rotate(-30 1003.45 -23.7046)" fill="#F2F2F2"/>
<rect x="1020.77" y="-33.7046" width="12" height="1197.34" transform="rotate(-30 1020.77 -33.7046)" fill="#F2F2F2"/>
<rect x="1038.09" y="-43.7046" width="12" height="1197.34" transform="rotate(-30 1038.09 -43.7046)" fill="#F2F2F2"/>
<rect x="1055.41" y="-53.7046" width="12" height="1197.34" transform="rotate(-30 1055.41 -53.7046)" fill="#F2F2F2"/>
<rect x="1072.73" y="-63.7046" width="12" height="1197.34" transform="rotate(-30 1072.73 -63.7046)" fill="#F2F2F2"/>
<rect x="1090.06" y="-73.7046" width="12" height="1197.34" transform="rotate(-30 1090.06 -73.7046)" fill="#F2F2F2"/>
<rect x="1107.38" y="-83.7046" width="12" height="1197.34" transform="rotate(-30 1107.38 -83.7046)" fill="#F2F2F2"/>
<rect x="1124.7" y="-93.7046" width="12" height="1197.34" transform="rotate(-30 1124.7 -93.7046)" fill="#F2F2F2"/>
<rect x="1142.02" y="-103.705" width="12" height="1197.34" transform="rotate(-30 1142.02 -103.705)" fill="#F2F2F2"/>
<rect x="1159.34" y="-113.705" width="12" height="1197.34" transform="rotate(-30 1159.34 -113.705)" fill="#F2F2F2"/>
<rect x="1176.66" y="-123.705" width="12" height="1197.34" transform="rotate(-30 1176.66 -123.705)" fill="#F2F2F2"/>
</g>
<g clip-path="url(#clip4_437_6344)">
<rect x="1343.27" y="356.295" width="12" height="1197.34" transform="rotate(-30 1343.27 356.295)" fill="#F2F2F2"/>
<rect x="1360.59" y="346.295" width="12" height="1197.34" transform="rotate(-30 1360.59 346.295)" fill="#F2F2F2"/>
<rect x="1377.91" y="336.295" width="12" height="1197.34" transform="rotate(-30 1377.91 336.295)" fill="#F2F2F2"/>
<rect x="1395.23" y="326.295" width="12" height="1197.34" transform="rotate(-30 1395.23 326.295)" fill="#F2F2F2"/>
<rect x="1412.56" y="316.295" width="12" height="1197.34" transform="rotate(-30 1412.56 316.295)" fill="#F2F2F2"/>
<rect x="1429.88" y="306.295" width="12" height="1197.34" transform="rotate(-30 1429.88 306.295)" fill="#F2F2F2"/>
<rect x="1447.2" y="296.295" width="12" height="1197.34" transform="rotate(-30 1447.2 296.295)" fill="#F2F2F2"/>
<rect x="1464.52" y="286.295" width="12" height="1197.34" transform="rotate(-30 1464.52 286.295)" fill="#F2F2F2"/>
<rect x="1481.84" y="276.295" width="12" height="1197.34" transform="rotate(-30 1481.84 276.295)" fill="#F2F2F2"/>
<rect x="1499.16" y="266.295" width="12" height="1197.34" transform="rotate(-30 1499.16 266.295)" fill="#F2F2F2"/>
<rect x="1516.48" y="256.295" width="12" height="1197.34" transform="rotate(-30 1516.48 256.295)" fill="#F2F2F2"/>
<rect x="1533.8" y="246.295" width="12" height="1197.34" transform="rotate(-30 1533.8 246.295)" fill="#F2F2F2"/>
<rect x="1551.12" y="236.295" width="12" height="1197.34" transform="rotate(-30 1551.12 236.295)" fill="#F2F2F2"/>
<rect x="1568.44" y="226.295" width="12" height="1197.34" transform="rotate(-30 1568.44 226.295)" fill="#F2F2F2"/>
<rect x="1585.76" y="216.295" width="12" height="1197.34" transform="rotate(-30 1585.76 216.295)" fill="#F2F2F2"/>
<rect x="1603.08" y="206.295" width="12" height="1197.34" transform="rotate(-30 1603.08 206.295)" fill="#F2F2F2"/>
<rect x="1620.4" y="196.295" width="12" height="1197.34" transform="rotate(-30 1620.4 196.295)" fill="#F2F2F2"/>
<rect x="1637.72" y="186.295" width="12" height="1197.34" transform="rotate(-30 1637.72 186.295)" fill="#F2F2F2"/>
<rect x="1655.04" y="176.295" width="12" height="1197.34" transform="rotate(-30 1655.04 176.295)" fill="#F2F2F2"/>
<rect x="1672.36" y="166.295" width="12" height="1197.34" transform="rotate(-30 1672.36 166.295)" fill="#F2F2F2"/>
<rect x="1689.68" y="156.295" width="12" height="1197.34" transform="rotate(-30 1689.68 156.295)" fill="#F2F2F2"/>
<rect x="1707" y="146.295" width="12" height="1197.34" transform="rotate(-30 1707 146.295)" fill="#F2F2F2"/>
<rect x="1724.32" y="136.295" width="12" height="1197.34" transform="rotate(-30 1724.32 136.295)" fill="#F2F2F2"/>
<rect x="1741.65" y="126.295" width="12" height="1197.34" transform="rotate(-30 1741.65 126.295)" fill="#F2F2F2"/>
<rect x="1758.97" y="116.295" width="12" height="1197.34" transform="rotate(-30 1758.97 116.295)" fill="#F2F2F2"/>
<rect x="1776.29" y="106.295" width="12" height="1197.34" transform="rotate(-30 1776.29 106.295)" fill="#F2F2F2"/>
<rect x="1793.61" y="96.2954" width="12" height="1197.34" transform="rotate(-30 1793.61 96.2954)" fill="#F2F2F2"/>
<rect x="1810.93" y="86.2954" width="12" height="1197.34" transform="rotate(-30 1810.93 86.2954)" fill="#F2F2F2"/>
<rect x="1828.25" y="76.2954" width="12" height="1197.34" transform="rotate(-30 1828.25 76.2954)" fill="#F2F2F2"/>
<rect x="1845.57" y="66.2954" width="12" height="1197.34" transform="rotate(-30 1845.57 66.2954)" fill="#F2F2F2"/>
<rect x="1862.89" y="56.2954" width="12" height="1197.34" transform="rotate(-30 1862.89 56.2954)" fill="#F2F2F2"/>
<rect x="1880.21" y="46.2954" width="12" height="1197.34" transform="rotate(-30 1880.21 46.2954)" fill="#F2F2F2"/>
<rect x="1897.53" y="36.2954" width="12" height="1197.34" transform="rotate(-30 1897.53 36.2954)" fill="#F2F2F2"/>
<rect x="1914.85" y="26.2954" width="12" height="1197.34" transform="rotate(-30 1914.85 26.2954)" fill="#F2F2F2"/>
<rect x="1932.17" y="16.2954" width="12" height="1197.34" transform="rotate(-30 1932.17 16.2954)" fill="#F2F2F2"/>
<rect x="1949.49" y="6.29541" width="12" height="1197.34" transform="rotate(-30 1949.49 6.29541)" fill="#F2F2F2"/>
<rect x="1966.81" y="-3.70459" width="12" height="1197.34" transform="rotate(-30 1966.81 -3.70459)" fill="#F2F2F2"/>
<rect x="1984.13" y="-13.7046" width="12" height="1197.34" transform="rotate(-30 1984.13 -13.7046)" fill="#F2F2F2"/>
<rect x="2001.45" y="-23.7046" width="12" height="1197.34" transform="rotate(-30 2001.45 -23.7046)" fill="#F2F2F2"/>
<rect x="2018.77" y="-33.7046" width="12" height="1197.34" transform="rotate(-30 2018.77 -33.7046)" fill="#F2F2F2"/>
<rect x="2036.09" y="-43.7046" width="12" height="1197.34" transform="rotate(-30 2036.09 -43.7046)" fill="#F2F2F2"/>
<rect x="2053.41" y="-53.7046" width="12" height="1197.34" transform="rotate(-30 2053.41 -53.7046)" fill="#F2F2F2"/>
<rect x="2070.73" y="-63.7046" width="12" height="1197.34" transform="rotate(-30 2070.73 -63.7046)" fill="#F2F2F2"/>
<rect x="2088.06" y="-73.7046" width="12" height="1197.34" transform="rotate(-30 2088.06 -73.7046)" fill="#F2F2F2"/>
<rect x="2105.38" y="-83.7046" width="12" height="1197.34" transform="rotate(-30 2105.38 -83.7046)" fill="#F2F2F2"/>
<rect x="2122.7" y="-93.7046" width="12" height="1197.34" transform="rotate(-30 2122.7 -93.7046)" fill="#F2F2F2"/>
</g>
<path d="M2919 565C2919 560.582 2922.58 557 2927 557H3144C3148.42 557 3152 560.582 3152 565V601C3152 605.418 3148.42 609 3144 609H2927C2922.58 609 2919 605.418 2919 601V565Z" fill="#E2EDFD"/>
<text fill="#5384ED" xml:space="preserve" style="white-space: pre" font-family="Roboto" font-size="24" letter-spacing="0em"><tspan x="2951" y="591.203">Click &#x201c;copy link&#x201d;</tspan></text>
<text fill="#102042" xml:space="preserve" style="white-space: pre" font-family="Roboto" font-size="32" font-weight="500" letter-spacing="0em"><tspan x="872" y="101.938">Team members</tspan></text>
<text fill="#102042" xml:space="preserve" style="white-space: pre" font-family="Roboto" font-size="32" font-weight="500" letter-spacing="0em"><tspan x="268" y="101.938">Login or sign-up</tspan></text>
<text fill="#102042" xml:space="preserve" style="white-space: pre" font-family="Roboto" font-size="32" font-weight="500" letter-spacing="0em"><tspan x="1372" y="101.938">Interview skills</tspan></text>
<text fill="#102042" xml:space="preserve" style="white-space: pre" font-family="Roboto" font-size="32" font-weight="500" letter-spacing="0em"><tspan x="1844" y="101.938">Interview types </tspan></text>
<text fill="#102042" xml:space="preserve" style="white-space: pre" font-family="Roboto" font-size="32" font-weight="500" letter-spacing="0em"><tspan x="2203" y="101.938">Team member skills</tspan></text>
<text fill="#102042" xml:space="preserve" style="white-space: pre" font-family="Roboto" font-size="32" font-weight="500" letter-spacing="0em"><tspan x="2616" y="101.938">Interview links</tspan></text>
<text fill="#102042" xml:space="preserve" style="white-space: pre" font-family="Roboto" font-size="32" font-weight="500" letter-spacing="0em"><tspan x="2967" y="101.938">Share link</tspan></text>
<path d="M2910 745C2910 719.595 2930.59 699 2956 699H3118C3143.41 699 3164 719.595 3164 745C3164 770.405 3143.41 791 3118 791H2956C2930.59 791 2910 770.405 2910 745Z" fill="#E2EDFD"/>
<text fill="#5384ED" xml:space="preserve" style="white-space: pre" font-family="Roboto" font-size="24" letter-spacing="0em"><tspan x="2928" y="753.203">Interview link copied</tspan></text>
<path d="M2956 702H3118V696H2956V702ZM3118 788H2956V794H3118V788ZM2956 788C2932.25 788 2913 768.748 2913 745H2907C2907 772.062 2928.94 794 2956 794V788ZM3161 745C3161 768.748 3141.75 788 3118 788V794C3145.06 794 3167 772.062 3167 745H3161ZM3118 702C3141.75 702 3161 721.252 3161 745H3167C3167 717.938 3145.06 696 3118 696V702ZM2956 696C2928.94 696 2907 717.938 2907 745H2913C2913 721.252 2932.25 702 2956 702V696Z" fill="#5384ED"/>
<text fill="#5384ED" xml:space="preserve" style="white-space: pre" font-family="Roboto" font-size="32" font-weight="500" letter-spacing="0em"><tspan x="697" y="369.938">New account</tspan></text>
<text fill="#5384ED" xml:space="preserve" style="white-space: pre" font-family="Roboto" font-size="32" font-weight="500" letter-spacing="0em"><tspan x="700" y="1214.94">Existing account</tspan></text>
<text fill="#5384ED" xml:space="preserve" style="white-space: pre" font-family="Roboto" font-size="24" letter-spacing="0em"><tspan x="1025" y="220.203">No</tspan></text>
<text fill="#5384ED" xml:space="preserve" style="white-space: pre" font-family="Roboto" font-size="24" letter-spacing="0em"><tspan x="1583" y="372.203">No</tspan></text>
<text fill="#5384ED" xml:space="preserve" style="white-space: pre" font-family="Roboto" font-size="24" letter-spacing="0em"><tspan x="2075" y="372.203">No</tspan></text>
<text fill="#5384ED" xml:space="preserve" style="white-space: pre" font-family="Roboto" font-size="24" letter-spacing="0em"><tspan x="1005" y="524.203">Yes</tspan></text>
<text fill="#5384ED" xml:space="preserve" style="white-space: pre" font-family="Roboto" font-size="24" letter-spacing="0em"><tspan x="1464" y="524.203">Yes</tspan></text>
<text fill="#5384ED" xml:space="preserve" style="white-space: pre" font-family="Roboto" font-size="24" letter-spacing="0em"><tspan x="1993" y="524.203">Yes</tspan></text>
<path d="M3038 698L3043.77 688L3032.23 688L3038 698ZM3038 614.333C3040.95 614.333 3043.33 611.946 3043.33 609C3043.33 606.054 3040.95 603.667 3038 603.667C3035.05 603.667 3032.67 606.054 3032.67 609C3032.67 611.946 3035.05 614.333 3038 614.333ZM3039 689L3039 609L3037 609L3037 689L3039 689Z" fill="#5384ED"/>
<path d="M1938.01 308.485C1942.7 303.799 1950.3 303.799 1954.99 308.485L2022.87 376.368C2027.55 381.054 2027.55 388.652 2022.87 393.338L1954.99 461.22C1950.3 465.907 1942.7 465.907 1938.01 461.22L1870.13 393.338C1865.45 388.652 1865.45 381.054 1870.13 376.368L1938.01 308.485Z" fill="#E2EDFD"/>
<text fill="#102042" xml:space="preserve" style="white-space: pre" font-family="Roboto" font-size="24" letter-spacing="0em"><tspan x="1912.75" y="365.056">Set up </tspan><tspan x="1898.37" y="393.056">interview </tspan><tspan x="1923.79" y="421.056">type</tspan></text>
<path d="M1952.86 310.607L2020.75 378.489L2024.99 374.246L1957.11 306.364L1952.86 310.607ZM2020.75 391.217L1952.86 459.099L1957.11 463.342L2024.99 395.459L2020.75 391.217ZM1940.14 459.099L1872.25 391.217L1868.01 395.459L1935.89 463.342L1940.14 459.099ZM1872.25 378.489L1940.14 310.607L1935.89 306.364L1868.01 374.246L1872.25 378.489ZM1872.25 391.217C1868.74 387.702 1868.74 382.004 1872.25 378.489L1868.01 374.246C1862.15 380.104 1862.15 389.602 1868.01 395.459L1872.25 391.217ZM1952.86 459.099C1949.35 462.614 1943.65 462.614 1940.14 459.099L1935.89 463.342C1941.75 469.2 1951.25 469.2 1957.11 463.342L1952.86 459.099ZM2020.75 378.489C2024.26 382.004 2024.26 387.702 2020.75 391.217L2024.99 395.459C2030.85 389.602 2030.85 380.104 2024.99 374.246L2020.75 378.489ZM1957.11 306.364C1951.25 300.506 1941.75 300.506 1935.89 306.364L1940.14 310.607C1943.65 307.092 1949.35 307.092 1952.86 310.607L1957.11 306.364Z" fill="#5384ED"/>
<path d="M1946.5 564.706L1952.27 554.706L1940.73 554.706L1946.5 564.706ZM1946.5 475.039C1949.45 475.039 1951.83 472.651 1951.83 469.706C1951.83 466.76 1949.45 464.372 1946.5 464.372C1943.55 464.372 1941.17 466.76 1941.17 469.706C1941.17 472.651 1943.55 475.039 1946.5 475.039ZM1947.5 555.706L1947.5 469.706L1945.5 469.706L1945.5 555.706L1947.5 555.706Z" fill="#5384ED"/>
<path d="M1805 572.706C1805 568.287 1808.58 564.706 1813 564.706H2080C2084.42 564.706 2088 568.287 2088 572.706V608.706C2088 613.124 2084.42 616.706 2080 616.706H1813C1808.58 616.706 1805 613.124 1805 608.706V572.706Z" fill="#E2EDFD"/>
<text fill="#5384ED" xml:space="preserve" style="white-space: pre" font-family="Roboto" font-size="24" letter-spacing="0em"><tspan x="1837" y="598.909">Interview name/type</tspan></text>
<path d="M1946.5 700.706L1952.27 690.706L1940.73 690.706L1946.5 700.706ZM1946.5 622.039C1949.45 622.039 1951.83 619.651 1951.83 616.706C1951.83 613.76 1949.45 611.372 1946.5 611.372C1943.55 611.372 1941.17 613.76 1941.17 616.706C1941.17 619.651 1943.55 622.039 1946.5 622.039ZM1947.5 691.706L1947.5 616.706L1945.5 616.706L1945.5 691.706L1947.5 691.706Z" fill="#5384ED"/>
<path d="M1869 708.706C1869 704.287 1872.58 700.706 1877 700.706H2016C2020.42 700.706 2024 704.287 2024 708.706V744.706C2024 749.124 2020.42 752.706 2016 752.706H1877C1872.58 752.706 1869 749.124 1869 744.706V708.706Z" fill="#E2EDFD"/>
<text fill="#5384ED" xml:space="preserve" style="white-space: pre" font-family="Roboto" font-size="24" letter-spacing="0em"><tspan x="1901" y="734.909">Duration</tspan></text>
<path d="M1946.5 838.706L1952.27 828.706L1940.73 828.706L1946.5 838.706ZM1946.5 758.039C1949.45 758.039 1951.83 755.651 1951.83 752.706C1951.83 749.76 1949.45 747.372 1946.5 747.372C1943.55 747.372 1941.17 749.76 1941.17 752.706C1941.17 755.651 1943.55 758.039 1946.5 758.039ZM1947.5 829.706L1947.5 752.706L1945.5 752.706L1945.5 829.706L1947.5 829.706Z" fill="#5384ED"/>
<path d="M1882.5 846.706C1882.5 842.287 1886.08 838.706 1890.5 838.706H2002.5C2006.92 838.706 2010.5 842.287 2010.5 846.706V882.706C2010.5 887.124 2006.92 890.706 2002.5 890.706H1890.5C1886.08 890.706 1882.5 887.124 1882.5 882.706V846.706Z" fill="#E2EDFD"/>
<text fill="#5384ED" xml:space="preserve" style="white-space: pre" font-family="Roboto" font-size="24" letter-spacing="0em"><tspan x="1914.5" y="872.909">Notes</tspan></text>
<path d="M1946.5 974.706L1952.27 964.706L1940.73 964.706L1946.5 974.706ZM1946.5 896.039C1949.45 896.039 1951.83 893.651 1951.83 890.706C1951.83 887.76 1949.45 885.372 1946.5 885.372C1943.55 885.372 1941.17 887.76 1941.17 890.706C1941.17 893.651 1943.55 896.039 1946.5 896.039ZM1947.5 965.706L1947.5 890.706L1945.5 890.706L1945.5 965.706L1947.5 965.706Z" fill="#5384ED"/>
<path d="M1841 982.706C1841 978.287 1844.58 974.706 1849 974.706H2044C2048.42 974.706 2052 978.287 2052 982.706V1018.71C2052 1023.12 2048.42 1026.71 2044 1026.71H1849C1844.58 1026.71 1841 1023.12 1841 1018.71V982.706Z" fill="#E2EDFD"/>
<text fill="#5384ED" xml:space="preserve" style="white-space: pre" font-family="Roboto" font-size="24" letter-spacing="0em"><tspan x="1873" y="1008.91">Interview URL</tspan></text>
<path d="M2150 978C2150 973.582 2153.58 970 2158 970H2538C2542.42 970 2546 973.582 2546 978V1024C2546 1028.42 2542.42 1032 2538 1032H2158C2153.58 1032 2150 1028.42 2150 1024V978Z" fill="#E2EDFD"/>
<text fill="#5384ED" xml:space="preserve" style="white-space: pre" font-family="Roboto" font-size="32" font-weight="500" letter-spacing="0em"><tspan x="2182" y="1011.94">Required interview skill</tspan></text>
<path d="M2158 972H2538V968H2158V972ZM2544 978V1024H2548V978H2544ZM2538 1030H2158V1034H2538V1030ZM2152 1024V978H2148V1024H2152ZM2158 1030C2154.69 1030 2152 1027.31 2152 1024H2148C2148 1029.52 2152.48 1034 2158 1034V1030ZM2544 1024C2544 1027.31 2541.31 1030 2538 1030V1034C2543.52 1034 2548 1029.52 2548 1024H2544ZM2538 972C2541.31 972 2544 974.686 2544 978H2548C2548 972.477 2543.52 968 2538 968V972ZM2158 968C2152.48 968 2148 972.477 2148 978H2152C2152 974.686 2154.69 972 2158 972V968Z" fill="#5384ED"/>
<path d="M2583 560C2583 555.582 2586.58 552 2591 552H2846C2850.42 552 2854 555.582 2854 560V606C2854 610.418 2850.42 614 2846 614H2591C2586.58 614 2583 610.418 2583 606V560Z" fill="#E2EDFD"/>
<text fill="#5384ED" xml:space="preserve" style="white-space: pre" font-family="Roboto" font-size="32" font-weight="500" letter-spacing="0em"><tspan x="2615" y="593.938">Interview links</tspan></text>
<path d="M2774.67 550.5C2774.67 553.446 2777.05 555.833 2780 555.833C2782.95 555.833 2785.33 553.446 2785.33 550.5C2785.33 547.554 2782.95 545.167 2780 545.167C2777.05 545.167 2774.67 547.554 2774.67 550.5ZM965 311.5L970.774 301.5H959.226L965 311.5ZM2781 550.5V171H2779V550.5H2781ZM2760 150H985V152H2760V150ZM964 171V302.5H966V171H964ZM985 150C973.402 150 964 159.402 964 171H966C966 160.507 974.507 152 985 152V150ZM2781 171C2781 159.402 2771.6 150 2760 150V152C2770.49 152 2779 160.507 2779 171H2781Z" fill="#5384ED"/>
<path d="M95.5 507C95.5 481.595 116.095 461 141.5 461H187.5C212.905 461 233.5 481.595 233.5 507C233.5 532.405 212.905 553 187.5 553H141.5C116.095 553 95.5 532.405 95.5 507Z" fill="#E2EDFD"/>
<text fill="#5384ED" xml:space="preserve" style="white-space: pre" font-family="Roboto" font-size="24" letter-spacing="0em"><tspan x="113.5" y="515.203">Open app</tspan></text>
<path d="M141.5 464H187.5V458H141.5V464ZM187.5 550H141.5V556H187.5V550ZM141.5 550C117.752 550 98.5 530.748 98.5 507H92.5C92.5 534.062 114.438 556 141.5 556V550ZM230.5 507C230.5 530.748 211.248 550 187.5 550V556C214.562 556 236.5 534.062 236.5 507H230.5ZM187.5 464C211.248 464 230.5 483.252 230.5 507H236.5C236.5 479.938 214.562 458 187.5 458V464ZM141.5 458C114.438 458 92.5 479.938 92.5 507H98.5C98.5 483.252 117.752 464 141.5 464V458Z" fill="#5384ED"/>
<path d="M165 645L170.774 635L159.227 635L165 645ZM165 557.333C167.946 557.333 170.333 554.946 170.333 552C170.333 549.054 167.946 546.667 165 546.667C162.055 546.667 159.667 549.054 159.667 552C159.667 554.946 162.055 557.333 165 557.333ZM166 636L166 552L164 552L164 636L166 636Z" fill="#5384ED"/>
<path d="M959.015 308.485C963.701 303.799 971.299 303.799 975.985 308.485L1043.87 376.368C1048.55 381.054 1048.55 388.652 1043.87 393.338L975.985 461.22C971.299 465.907 963.701 465.907 959.015 461.22L891.132 393.338C886.446 388.652 886.446 381.054 891.132 376.368L959.015 308.485Z" fill="#E2EDFD"/>
<text fill="#102042" xml:space="preserve" style="white-space: pre" font-family="Roboto" font-size="24" letter-spacing="0em"><tspan x="908.262" y="379.056">Invite team </tspan><tspan x="911.051" y="407.056">members?</tspan></text>
<path d="M973.864 310.607L1041.75 378.489L1045.99 374.246L978.107 306.364L973.864 310.607ZM1041.75 391.217L973.864 459.099L978.107 463.342L1045.99 395.459L1041.75 391.217ZM961.136 459.099L893.254 391.217L889.011 395.459L956.893 463.342L961.136 459.099ZM893.254 378.489L961.136 310.607L956.893 306.364L889.011 374.246L893.254 378.489ZM893.254 391.217C889.739 387.702 889.739 382.004 893.254 378.489L889.011 374.246C883.153 380.104 883.153 389.602 889.011 395.459L893.254 391.217ZM973.864 459.099C970.349 462.614 964.651 462.614 961.136 459.099L956.893 463.342C962.751 469.2 972.249 469.2 978.107 463.342L973.864 459.099ZM1041.75 378.489C1045.26 382.004 1045.26 387.702 1041.75 391.217L1045.99 395.459C1051.85 389.602 1051.85 380.104 1045.99 374.246L1041.75 378.489ZM978.107 306.364C972.249 300.506 962.751 300.506 956.893 306.364L961.136 310.607C964.651 307.092 970.349 307.092 973.864 310.607L978.107 306.364Z" fill="#5384ED"/>
<path d="M967.5 558.706L973.274 548.706L961.727 548.706L967.5 558.706ZM967.5 475.039C970.446 475.039 972.833 472.651 972.833 469.706C972.833 466.76 970.446 464.372 967.5 464.372C964.555 464.372 962.167 466.76 962.167 469.706C962.167 472.651 964.555 475.039 967.5 475.039ZM968.5 549.706L968.5 469.706L966.5 469.706L966.5 549.706L968.5 549.706Z" fill="#5384ED"/>
<path d="M869 566.706C869 562.287 872.582 558.706 877 558.706H1058C1062.42 558.706 1066 562.287 1066 566.706V602.706C1066 607.124 1062.42 610.706 1058 610.706H877C872.582 610.706 869 607.124 869 602.706V566.706Z" fill="#E2EDFD"/>
<text fill="#5384ED" xml:space="preserve" style="white-space: pre" font-family="Roboto" font-size="24" letter-spacing="0em"><tspan x="901" y="592.909">Cope emails</tspan></text>
<path d="M967.5 701.706L973.274 691.706L961.726 691.706L967.5 701.706ZM967.5 616.039C970.446 616.039 972.833 613.651 972.833 610.706C972.833 607.76 970.446 605.372 967.5 605.372C964.554 605.372 962.167 607.76 962.167 610.706C962.167 613.651 964.554 616.039 967.5 616.039ZM968.5 692.706L968.5 610.706L966.5 610.706L966.5 692.706L968.5 692.706Z" fill="#5384ED"/>
<path d="M832 709.706C832 705.287 835.582 701.706 840 701.706H1095C1099.42 701.706 1103 705.287 1103 709.706V773.706C1103 778.124 1099.42 781.706 1095 781.706H840C835.582 781.706 832 778.124 832 773.706V709.706Z" fill="#E2EDFD"/>
<text fill="#5384ED" xml:space="preserve" style="white-space: pre" font-family="Roboto" font-size="24" letter-spacing="0em"><tspan x="864" y="735.909">Send invitation link &#10;</tspan><tspan x="864" y="763.909">to team members</tspan></text>
<path d="M1470.51 308.485C1475.2 303.799 1482.8 303.799 1487.49 308.485L1555.37 376.368C1560.05 381.054 1560.05 388.652 1555.37 393.338L1487.49 461.22C1482.8 465.907 1475.2 465.907 1470.51 461.22L1402.63 393.338C1397.95 388.652 1397.95 381.054 1402.63 376.368L1470.51 308.485Z" fill="#E2EDFD"/>
<text fill="#102042" xml:space="preserve" style="white-space: pre" font-family="Roboto" font-size="24" letter-spacing="0em"><tspan x="1427.41" y="365.056">Add skills </tspan><tspan x="1438.03" y="393.056">to team </tspan><tspan x="1422.55" y="421.056">members?</tspan></text>
<path d="M1485.36 310.607L1553.25 378.489L1557.49 374.246L1489.61 306.364L1485.36 310.607ZM1553.25 391.217L1485.36 459.099L1489.61 463.342L1557.49 395.459L1553.25 391.217ZM1472.64 459.099L1404.75 391.217L1400.51 395.459L1468.39 463.342L1472.64 459.099ZM1404.75 378.489L1472.64 310.607L1468.39 306.364L1400.51 374.246L1404.75 378.489ZM1404.75 391.217C1401.24 387.702 1401.24 382.004 1404.75 378.489L1400.51 374.246C1394.65 380.104 1394.65 389.602 1400.51 395.459L1404.75 391.217ZM1485.36 459.099C1481.85 462.614 1476.15 462.614 1472.64 459.099L1468.39 463.342C1474.25 469.2 1483.75 469.2 1489.61 463.342L1485.36 459.099ZM1553.25 378.489C1556.76 382.004 1556.76 387.702 1553.25 391.217L1557.49 395.459C1563.35 389.602 1563.35 380.104 1557.49 374.246L1553.25 378.489ZM1489.61 306.364C1483.75 300.506 1474.25 300.506 1468.39 306.364L1472.64 310.607C1476.15 307.092 1481.85 307.092 1485.36 310.607L1489.61 306.364Z" fill="#5384ED"/>
<path d="M1479 564.706L1484.77 554.706L1473.23 554.706L1479 564.706ZM1479 476.039C1481.95 476.039 1484.33 473.651 1484.33 470.706C1484.33 467.76 1481.95 465.372 1479 465.372C1476.05 465.372 1473.67 467.76 1473.67 470.706C1473.67 473.651 1476.05 476.039 1479 476.039ZM1480 555.706L1480 470.706L1478 470.706L1478 555.706L1480 555.706Z" fill="#5384ED"/>
<path d="M1329.5 573.706C1329.5 569.287 1333.08 565.706 1337.5 565.706H1620.5C1624.92 565.706 1628.5 569.287 1628.5 573.706V609.706C1628.5 614.124 1624.92 617.706 1620.5 617.706H1337.5C1333.08 617.706 1329.5 614.124 1329.5 609.706V573.706Z" fill="#E2EDFD"/>
<text fill="#5384ED" xml:space="preserve" style="white-space: pre" font-family="Roboto" font-size="24" letter-spacing="0em"><tspan x="1361.5" y="599.909">Select team members</tspan></text>
<path d="M1479 794.706L1484.77 784.706L1473.23 784.706L1479 794.706ZM1479 624.039C1481.95 624.039 1484.33 621.651 1484.33 618.706C1484.33 615.76 1481.95 613.372 1479 613.372C1476.05 613.372 1473.67 615.76 1473.67 618.706C1473.67 621.651 1476.05 624.039 1479 624.039ZM1480 785.706L1480 618.706L1478 618.706L1478 785.706L1480 785.706Z" fill="#5384ED"/>
<path d="M1192 803.706C1192 799.287 1195.58 795.706 1200 795.706H1758C1762.42 795.706 1766 799.287 1766 803.706V849.706C1766 854.124 1762.42 857.706 1758 857.706H1200C1195.58 857.706 1192 854.124 1192 849.706V803.706Z" fill="#E2EDFD"/>
<text fill="#5384ED" xml:space="preserve" style="white-space: pre" font-family="Roboto" font-size="32" font-weight="500" letter-spacing="0em"><tspan x="1224" y="837.643">Add team members&#x2019; interview skills</tspan></text>
<path d="M1200 797.706H1758V793.706H1200V797.706ZM1764 803.706V849.706H1768V803.706H1764ZM1758 855.706H1200V859.706H1758V855.706ZM1194 849.706V803.706H1190V849.706H1194ZM1200 855.706C1196.69 855.706 1194 853.019 1194 849.706H1190C1190 855.228 1194.48 859.706 1200 859.706V855.706ZM1764 849.706C1764 853.019 1761.31 855.706 1758 855.706V859.706C1763.52 859.706 1768 855.228 1768 849.706H1764ZM1758 797.706C1761.31 797.706 1764 800.392 1764 803.706H1768C1768 798.183 1763.52 793.706 1758 793.706V797.706ZM1200 793.706C1194.48 793.706 1190 798.183 1190 803.706H1194C1194 800.392 1196.69 797.706 1200 797.706V793.706Z" fill="#5384ED"/>
<path d="M1099.67 744C1099.67 746.945 1102.05 749.333 1105 749.333C1107.95 749.333 1110.33 746.945 1110.33 744C1110.33 741.054 1107.95 738.667 1105 738.667C1102.05 738.667 1099.67 741.054 1099.67 744ZM1399 385L1389 379.227V390.774L1399 385ZM1240.91 744V745V744ZM1105 745L1240.91 745V743L1105 743L1105 745ZM1261.91 724V405H1259.91V724H1261.91ZM1280.91 386L1390 386V384L1280.91 384V386ZM1261.91 405C1261.91 394.507 1270.42 386 1280.91 386V384C1269.31 384 1259.91 393.402 1259.91 405H1261.91ZM1240.91 745C1252.51 745 1261.91 735.598 1261.91 724H1259.91C1259.91 734.493 1251.4 743 1240.91 743V745Z" fill="#5384ED"/>
<path d="M1692.67 795C1692.67 797.946 1695.05 800.333 1698 800.333C1700.95 800.333 1703.33 797.946 1703.33 795C1703.33 792.054 1700.95 789.667 1698 789.667C1695.05 789.667 1692.67 792.054 1692.67 795ZM1887 407L1877 401.226V412.774L1887 407ZM1699 795V427H1697V795H1699ZM1718 408H1878V406H1718V408ZM1699 427C1699 416.507 1707.51 408 1718 408V406C1706.4 406 1697 415.402 1697 427H1699Z" fill="#5384ED"/>
<path d="M1867 385L1857 379.226L1857 390.774L1867 385ZM1564.33 385C1564.33 382.054 1561.95 379.667 1559 379.667C1556.05 379.667 1553.67 382.054 1553.67 385C1553.67 387.946 1556.05 390.333 1559 390.333C1561.95 390.333 1564.33 387.946 1564.33 385ZM1858 384L1559 384L1559 386L1858 386L1858 384Z" fill="#5384ED"/>
<path d="M2918 583L2908 577.226L2908 588.773L2918 583ZM2858.33 583C2858.33 580.054 2855.95 577.667 2853 577.667C2850.05 577.667 2847.67 580.054 2847.67 583C2847.67 585.945 2850.05 588.333 2853 588.333C2855.95 588.333 2858.33 585.945 2858.33 583ZM2909 582L2853 582L2853 584L2909 584L2909 582Z" fill="#5384ED"/>
<path d="M994.667 332C994.667 334.946 997.054 337.333 1000 337.333C1002.95 337.333 1005.33 334.946 1005.33 332C1005.33 329.054 1002.95 326.667 1000 326.667C997.054 326.667 994.667 329.054 994.667 332ZM1947 308.708L1952.77 298.708H1941.23L1947 308.708ZM1001 332V209H999V332H1001ZM1020 190H1927V188H1020V190ZM1946 209V299.708H1948V209H1946ZM1927 190C1937.49 190 1946 198.507 1946 209H1948C1948 197.402 1938.6 188 1927 188V190ZM1001 209C1001 198.507 1009.51 190 1020 190V188C1008.4 188 999 197.402 999 209H1001Z" fill="#5384ED"/>
<path d="M2537.67 1009C2537.67 1011.95 2540.05 1014.33 2543 1014.33C2545.95 1014.33 2548.33 1011.95 2548.33 1009C2548.33 1006.05 2545.95 1003.67 2543 1003.67C2540.05 1003.67 2537.67 1006.05 2537.67 1009ZM2708 617L2702.23 627H2713.77L2708 617ZM2543 1010H2688V1008H2543V1010ZM2709 989V626H2707V989H2709ZM2688 1010C2699.6 1010 2709 1000.6 2709 989H2707C2707 999.493 2698.49 1008 2688 1008V1010Z" fill="#5384ED"/>
<path d="M1479 863L1473.23 873H1484.77L1479 863ZM2365 1045.81L2359.23 1055.81H2370.77L2365 1045.81ZM1478 880.312V891.854H1480V880.312H1478ZM1478 903.396V914.938H1480V903.396H1478ZM1478 926.479V938.021H1480V926.479H1478ZM1478 949.562V961.104H1480V949.562H1478ZM1478 972.646V984.187H1480V972.646H1478ZM1478 995.729V1007.27H1480V995.729H1478ZM1478 1018.81V1030.35H1480V1018.81H1478ZM1478 1041.9V1053.44H1480V1041.9H1478ZM1478 1064.98V1076.52H1480V1064.98H1478ZM1478 1088.06V1099.6H1480V1088.06H1478ZM1478 1111.15V1122.69H1480V1111.15H1478ZM1478 1134.23V1140H1480V1134.23H1478ZM1478 1140C1478 1142.85 1478.57 1145.56 1479.59 1148.04L1481.44 1147.27C1480.51 1145.03 1480 1142.58 1480 1140H1478ZM1490.96 1159.41C1493.44 1160.43 1496.15 1161 1499 1161V1159C1496.42 1159 1493.97 1158.49 1491.73 1157.56L1490.96 1159.41ZM1499 1161H1505.04V1159H1499V1161ZM1517.13 1161H1529.21V1159H1517.13V1161ZM1541.3 1161H1553.39V1159H1541.3V1161ZM1565.47 1161H1577.56V1159H1565.47V1161ZM1589.64 1161H1601.73V1159H1589.64V1161ZM1613.81 1161H1625.9V1159H1613.81V1161ZM1637.99 1161H1650.07V1159H1637.99V1161ZM1662.16 1161H1674.24V1159H1662.16V1161ZM1686.33 1161H1698.41V1159H1686.33V1161ZM1710.5 1161H1722.59V1159H1710.5V1161ZM1734.67 1161H1746.76V1159H1734.67V1161ZM1758.84 1161H1770.93V1159H1758.84V1161ZM1783.01 1161H1795.1V1159H1783.01V1161ZM1807.19 1161H1819.27V1159H1807.19V1161ZM1831.36 1161H1843.44V1159H1831.36V1161ZM1855.53 1161H1867.61V1159H1855.53V1161ZM1879.7 1161H1891.79V1159H1879.7V1161ZM1903.87 1161H1915.96V1159H1903.87V1161ZM1928.04 1161H1940.13V1159H1928.04V1161ZM1952.21 1161H1964.3V1159H1952.21V1161ZM1976.39 1161H1988.47V1159H1976.39V1161ZM2000.56 1161H2012.64V1159H2000.56V1161ZM2024.73 1161H2036.81V1159H2024.73V1161ZM2048.9 1161H2060.99V1159H2048.9V1161ZM2073.07 1161H2085.16V1159H2073.07V1161ZM2097.24 1161H2109.33V1159H2097.24V1161ZM2121.41 1161H2133.5V1159H2121.41V1161ZM2145.59 1161H2157.67V1159H2145.59V1161ZM2169.76 1161H2181.84V1159H2169.76V1161ZM2193.93 1161H2206.01V1159H2193.93V1161ZM2218.1 1161H2230.19V1159H2218.1V1161ZM2242.27 1161H2254.36V1159H2242.27V1161ZM2266.44 1161H2278.53V1159H2266.44V1161ZM2290.61 1161H2302.7V1159H2290.61V1161ZM2314.79 1161H2326.87V1159H2314.79V1161ZM2338.96 1161H2345V1159H2338.96V1161ZM2345 1161C2347.85 1161 2350.56 1160.43 2353.04 1159.41L2352.27 1157.56C2350.03 1158.49 2347.58 1159 2345 1159V1161ZM2364.41 1148.04C2365.43 1145.56 2366 1142.85 2366 1140H2364C2364 1142.58 2363.49 1145.03 2362.56 1147.27L2364.41 1148.04ZM2366 1140V1134.11H2364V1140H2366ZM2366 1122.34V1110.56H2364V1122.34H2366ZM2366 1098.79V1087.02H2364V1098.79H2366ZM2366 1075.24V1063.47H2364V1075.24H2366Z" fill="#898F9B"/>
<path d="M2631.67 552C2631.67 554.946 2634.05 557.333 2637 557.333C2639.95 557.333 2642.33 554.946 2642.33 552C2642.33 549.054 2639.95 546.667 2637 546.667C2634.05 546.667 2631.67 549.054 2631.67 552ZM1984 339L1994 344.774V333.226L1984 339ZM2638 552V359H2636V552H2638ZM2617 338H1993V340H2617V338ZM2638 359C2638 347.402 2628.6 338 2617 338V340C2627.49 340 2636 348.507 2636 359H2638Z" fill="#5384ED"/>
<path d="M49 661C49 656.582 52.5817 653 57 653H272C276.418 653 280 656.582 280 661V697C280 701.418 276.418 705 272 705H57C52.5817 705 49 701.418 49 697V661Z" fill="#E2EDFD"/>
<text fill="#5384ED" xml:space="preserve" style="white-space: pre" font-family="Roboto" font-size="24" letter-spacing="0em"><tspan x="81" y="687.203">Log in / Sign up</tspan></text>
<path d="M363 679L353 673.226L353 684.773L363 679ZM288.333 679C288.333 676.054 285.946 673.667 283 673.667C280.054 673.667 277.667 676.054 277.667 679C277.667 681.945 280.054 684.333 283 684.333C285.946 684.333 288.333 681.945 288.333 679ZM354 678L283 678L283 680L354 680L354 678Z" fill="#5384ED"/>
<path d="M365 661C365 656.582 368.582 653 373 653H705C709.418 653 713 656.582 713 661V707C713 711.418 709.418 715 705 715H373C368.582 715 365 711.418 365 707V661Z" fill="#E2EDFD"/>
<text fill="#5384ED" xml:space="preserve" style="white-space: pre" font-family="Roboto" font-size="32" font-weight="500" letter-spacing="0em"><tspan x="397" y="694.938">Enter email address</tspan></text>
<path d="M373 655H705V651H373V655ZM711 661V707H715V661H711ZM705 713H373V717H705V713ZM367 707V661H363V707H367ZM373 713C369.686 713 367 710.314 367 707H363C363 712.523 367.477 717 373 717V713ZM711 707C711 710.314 708.314 713 705 713V717C710.523 717 715 712.523 715 707H711ZM705 655C708.314 655 711 657.686 711 661H715C715 655.477 710.523 651 705 651V655ZM373 651C367.477 651 363 655.477 363 661H367C367 657.686 369.686 655 373 655V651Z" fill="#5384ED"/>
<path d="M539 777L544.774 767L533.227 767L539 777ZM539 722.333C541.946 722.333 544.333 719.946 544.333 717C544.333 714.054 541.946 711.667 539 711.667C536.055 711.667 533.667 714.054 533.667 717C533.667 719.946 536.055 722.333 539 722.333ZM540 768L540 717L538 717L538 768L540 768Z" fill="#5384ED"/>
<path d="M474 787C474 782.582 477.582 779 482 779H596C600.418 779 604 782.582 604 787V823C604 827.418 600.418 831 596 831H482C477.582 831 474 827.418 474 823V787Z" fill="#E2EDFD"/>
<text fill="#5384ED" xml:space="preserve" style="white-space: pre" font-family="Roboto" font-size="24" letter-spacing="0em"><tspan x="506" y="813.203">Log in</tspan></text>
<path d="M539 893L544.774 883L533.227 883L539 893ZM539 838.333C541.946 838.333 544.333 835.946 544.333 833C544.333 830.054 541.946 827.667 539 827.667C536.054 827.667 533.667 830.054 533.667 833C533.667 835.946 536.054 838.333 539 838.333ZM540 884L540 833L538 833L538 884L540 884Z" fill="#5384ED"/>
<path d="M423.5 903C423.5 898.582 427.082 895 431.5 895H646.5C650.918 895 654.5 898.582 654.5 903V939C654.5 943.418 650.918 947 646.5 947H431.5C427.082 947 423.5 943.418 423.5 939V903Z" fill="#E2EDFD"/>
<text fill="#5384ED" xml:space="preserve" style="white-space: pre" font-family="Roboto" font-size="24" letter-spacing="0em"><tspan x="455.5" y="929.203">Enter password</tspan></text>
<path d="M539 1009L544.774 999L533.227 999L539 1009ZM539 954.333C541.946 954.333 544.333 951.946 544.333 949C544.333 946.054 541.946 943.667 539 943.667C536.054 943.667 533.667 946.054 533.667 949C533.667 951.946 536.054 954.333 539 954.333ZM540 1000L540 949L538 949L538 1000L540 1000Z" fill="#5384ED"/>
<path d="M454.5 1019C454.5 1014.58 458.082 1011 462.5 1011H615.5C619.918 1011 623.5 1014.58 623.5 1019V1055C623.5 1059.42 619.918 1063 615.5 1063H462.5C458.082 1063 454.5 1059.42 454.5 1055V1019Z" fill="#E2EDFD"/>
<text fill="#5384ED" xml:space="preserve" style="white-space: pre" font-family="Roboto" font-size="24" letter-spacing="0em"><tspan x="486.5" y="1045.2">Logged in</tspan></text>
<path d="M457 197C457 192.582 460.582 189 465 189H612C616.418 189 620 192.582 620 197V233C620 237.418 616.418 241 612 241H465C460.582 241 457 237.418 457 233V197Z" fill="#E2EDFD"/>
<text fill="#5384ED" xml:space="preserve" style="white-space: pre" font-family="Roboto" font-size="24" letter-spacing="0em"><tspan x="489" y="223.203">Signed in</tspan></text>
<path d="M538.5 243L532.726 253L544.274 253L538.5 243ZM538.5 297.667C535.554 297.667 533.167 300.054 533.167 303C533.167 305.946 535.554 308.333 538.5 308.333C541.446 308.333 543.833 305.946 543.833 303C543.833 300.054 541.446 297.667 538.5 297.667ZM537.5 252L537.5 303L539.5 303L539.5 252L537.5 252Z" fill="#5384ED"/>
<path d="M450 313C450 308.582 453.582 305 458 305H619C623.418 305 627 308.582 627 313V349C627 353.418 623.418 357 619 357H458C453.582 357 450 353.418 450 349V313Z" fill="#E2EDFD"/>
<text fill="#5384ED" xml:space="preserve" style="white-space: pre" font-family="Roboto" font-size="24" letter-spacing="0em"><tspan x="482" y="339.203">Last name</tspan></text>
<path d="M538.5 359L532.726 369L544.274 369L538.5 359ZM538.5 413.667C535.554 413.667 533.167 416.054 533.167 419C533.167 421.946 535.554 424.333 538.5 424.333C541.446 424.333 543.833 421.946 543.833 419C543.833 416.054 541.446 413.667 538.5 413.667ZM537.5 368L537.5 419L539.5 419L539.5 368L537.5 368Z" fill="#5384ED"/>
<path d="M449.5 429C449.5 424.582 453.082 421 457.5 421H619.5C623.918 421 627.5 424.582 627.5 429V465C627.5 469.418 623.918 473 619.5 473H457.5C453.082 473 449.5 469.418 449.5 465V429Z" fill="#E2EDFD"/>
<text fill="#5384ED" xml:space="preserve" style="white-space: pre" font-family="Roboto" font-size="24" letter-spacing="0em"><tspan x="481.5" y="455.203">First name</tspan></text>
<path d="M538.5 475L532.726 485L544.274 485L538.5 475ZM538.5 529.667C535.554 529.667 533.167 532.054 533.167 535C533.167 537.946 535.554 540.333 538.5 540.333C541.446 540.333 543.833 537.946 543.833 535C543.833 532.054 541.446 529.667 538.5 529.667ZM537.5 484L537.5 535L539.5 535L539.5 484L537.5 484Z" fill="#5384ED"/>
<path d="M466.5 545C466.5 540.582 470.082 537 474.5 537H602.5C606.918 537 610.5 540.582 610.5 545V581C610.5 585.418 606.918 589 602.5 589H474.5C470.082 589 466.5 585.418 466.5 581V545Z" fill="#E2EDFD"/>
<text fill="#5384ED" xml:space="preserve" style="white-space: pre" font-family="Roboto" font-size="24" letter-spacing="0em"><tspan x="498.5" y="571.203">Sign up</tspan></text>
<path d="M538.5 591L532.726 601L544.274 601L538.5 591ZM538.5 645.667C535.554 645.667 533.167 648.054 533.167 651C533.167 653.946 535.554 656.333 538.5 656.333C541.446 656.333 543.833 653.946 543.833 651C543.833 648.054 541.446 645.667 538.5 645.667ZM537.5 600L537.5 651L539.5 651L539.5 600L537.5 600Z" fill="#5384ED"/>
<path d="M668.667 653C668.667 655.945 671.054 658.333 674 658.333C676.946 658.333 679.333 655.945 679.333 653C679.333 650.054 676.946 647.667 674 647.667C671.054 647.667 668.667 650.054 668.667 653ZM893 385L883 379.226V390.774L893 385ZM675 653V405H673V653H675ZM694 386H884V384H694V386ZM675 405C675 394.507 683.507 386 694 386V384C682.402 384 673 393.402 673 405H675Z" fill="#5384ED"/>
<path d="M668.667 714C668.667 716.946 671.054 719.333 674 719.333C676.946 719.333 679.333 716.946 679.333 714C679.333 711.054 676.946 708.667 674 708.667C671.054 708.667 668.667 711.054 668.667 714ZM2782 614L2776.23 624H2787.77L2782 614ZM673 714V1215H675V714H673ZM694 1236H2762V1234H694V1236ZM2783 1215V623H2781V1215H2783ZM2762 1236C2773.6 1236 2783 1226.6 2783 1215H2781C2781 1225.49 2772.49 1234 2762 1234V1236ZM673 1215C673 1226.6 682.402 1236 694 1236V1234C683.507 1234 675 1225.49 675 1215H673Z" fill="#5384ED"/>
<path d="M2150 1001L2140 995.226L2140 1006.77L2150 1001ZM2058.33 1001C2058.33 998.054 2055.95 995.667 2053 995.667C2050.05 995.667 2047.67 998.054 2047.67 1001C2047.67 1003.95 2050.05 1006.33 2053 1006.33C2055.95 1006.33 2058.33 1003.95 2058.33 1001ZM2141 1000L2053 1000L2053 1002L2141 1002L2141 1000Z" fill="#5384ED"/>
<path d="M2019.67 383C2019.67 385.946 2022.05 388.333 2025 388.333C2027.95 388.333 2030.33 385.946 2030.33 383C2030.33 380.054 2027.95 377.667 2025 377.667C2022.05 377.667 2019.67 380.054 2019.67 383ZM2593 552L2598.77 542H2587.23L2593 552ZM2025 384H2573V382H2025V384ZM2592 403V543H2594V403H2592ZM2573 384C2583.49 384 2592 392.507 2592 403H2594C2594 391.402 2584.6 382 2573 382V384Z" fill="#5384ED"/>
<defs>
<clipPath id="clip0_437_6344">
<rect width="267" height="900" fill="white" transform="translate(2905 175)"/>
</clipPath>
<clipPath id="clip1_437_6344">
<rect width="699" height="900" fill="white" transform="translate(35 175)"/>
</clipPath>
<clipPath id="clip2_437_6344">
<rect width="305" height="900" fill="white" transform="translate(2567 175)"/>
</clipPath>
<clipPath id="clip3_437_6344">
<rect width="405" height="900" fill="white" transform="translate(782 175)"/>
</clipPath>
<clipPath id="clip4_437_6344">
<rect width="347" height="900" fill="white" transform="translate(1780 175)"/>
</clipPath>
</defs>
</svg>
