<svg width="6997" height="1164" viewBox="0 0 6997 1164" fill="none" xmlns="http://www.w3.org/2000/svg">
<rect width="253" height="83" transform="translate(222 32)" fill="#5384ED"/>
<text fill="white" xml:space="preserve" style="white-space: pre" font-family="Inter" font-size="42" font-weight="500" letter-spacing="0em"><tspan x="254" y="88.7727">Open link</tspan></text>
<g clip-path="url(#clip0_3191_23995)">
<rect width="1512" height="982" transform="translate(222 115)" fill="white"/>
<g filter="url(#filter0_d_3191_23995)">
<rect x="222" y="115" width="1512" height="80" fill="white"/>
</g>
<rect x="698" y="536" width="560" height="140" rx="32" fill="#F5F5F5"/>
<text fill="black" xml:space="preserve" style="white-space: pre" font-family="Chalkboard" font-size="24" letter-spacing="0em"><tspan x="927" y="589.367">Open link</tspan></text>
<text fill="#7D7D7D" xml:space="preserve" style="white-space: pre" font-family="Chalkboard" font-size="16" letter-spacing="0em" text-decoration="underline"><tspan x="730" y="640.578">https://invite.com/@orumenoj/could-this-be-the-start-6d1fe8ee4e35</tspan></text>
</g>
<rect width="477" height="83" transform="translate(1902 32)" fill="#5384ED"/>
<text fill="white" xml:space="preserve" style="white-space: pre" font-family="Inter" font-size="42" font-weight="500" letter-spacing="0em"><tspan x="1934" y="88.7727">Select date and time</tspan></text>
<g clip-path="url(#clip1_3191_23995)">
<rect width="1440" height="1024" transform="translate(1902 115)" fill="white"/>
<g filter="url(#filter1_d_3191_23995)">
<rect x="1902" y="115" width="1440" height="80" fill="white"/>
</g>
<g clip-path="url(#clip2_3191_23995)">
<path d="M3270.52 155C3270.52 167.749 3260.69 178 3248.67 178C3236.64 178 3226.81 167.749 3226.81 155C3226.81 142.251 3236.64 132 3248.67 132C3260.69 132 3270.52 142.251 3270.52 155Z" fill="#F5F5F5" stroke="#AAAAAA" stroke-width="2"/>
<mask id="path-9-inside-1_3191_23995" fill="white">
<path fill-rule="evenodd" clip-rule="evenodd" d="M3231.52 170.875V170C3231.52 164.015 3242.95 161 3248.67 161C3254.39 161 3265.81 164.015 3265.81 170V170.875C3261.62 175.857 3255.49 179 3248.67 179C3241.84 179 3235.71 175.857 3231.52 170.875ZM3248.67 141C3243.93 141 3240.1 145.028 3240.1 150C3240.1 154.972 3243.93 159 3248.67 159C3253.4 159 3257.24 154.972 3257.24 150C3257.24 145.028 3253.4 141 3248.67 141Z"/>
</mask>
<path fill-rule="evenodd" clip-rule="evenodd" d="M3231.52 170.875V170C3231.52 164.015 3242.95 161 3248.67 161C3254.39 161 3265.81 164.015 3265.81 170V170.875C3261.62 175.857 3255.49 179 3248.67 179C3241.84 179 3235.71 175.857 3231.52 170.875ZM3248.67 141C3243.93 141 3240.1 145.028 3240.1 150C3240.1 154.972 3243.93 159 3248.67 159C3253.4 159 3257.24 154.972 3257.24 150C3257.24 145.028 3253.4 141 3248.67 141Z" fill="#F5F5F5"/>
<path d="M3231.52 170.875H3229.52V171.604L3229.99 172.162L3231.52 170.875ZM3265.81 170.875L3267.34 172.162L3267.81 171.604V170.875H3265.81ZM3233.52 170.875V170H3229.52V170.875H3233.52ZM3233.52 170C3233.52 169.202 3233.89 168.378 3234.79 167.505C3235.71 166.616 3237.07 165.796 3238.73 165.099C3242.05 163.702 3246.07 163 3248.67 163V159C3245.54 159 3240.99 159.806 3237.17 161.412C3235.26 162.217 3233.41 163.273 3232.01 164.633C3230.59 166.009 3229.52 167.806 3229.52 170H3233.52ZM3248.67 163C3251.26 163 3255.29 163.702 3258.61 165.099C3260.27 165.796 3261.63 166.616 3262.54 167.505C3263.44 168.378 3263.81 169.202 3263.81 170H3267.81C3267.81 167.806 3266.75 166.009 3265.33 164.633C3263.92 163.273 3262.07 162.217 3260.16 161.412C3256.34 159.806 3251.79 159 3248.67 159V163ZM3263.81 170V170.875H3267.81V170H3263.81ZM3264.28 169.588C3260.44 174.153 3254.86 177 3248.67 177V181C3256.13 181 3262.8 177.562 3267.34 172.162L3264.28 169.588ZM3248.67 177C3242.47 177 3236.89 174.153 3233.05 169.588L3229.99 172.162C3234.53 177.562 3241.21 181 3248.67 181V177ZM3242.1 150C3242.1 146.039 3245.13 143 3248.67 143V139C3242.74 139 3238.1 144.016 3238.1 150H3242.1ZM3248.67 157C3245.13 157 3242.1 153.961 3242.1 150H3238.1C3238.1 155.984 3242.74 161 3248.67 161V157ZM3255.24 150C3255.24 153.961 3252.21 157 3248.67 157V161C3254.6 161 3259.24 155.984 3259.24 150H3255.24ZM3248.67 143C3252.21 143 3255.24 146.039 3255.24 150H3259.24C3259.24 144.016 3254.6 139 3248.67 139V143Z" fill="#AAAAAA" mask="url(#path-9-inside-1_3191_23995)"/>
</g>
<path d="M1962.95 131H2015.33V171H1962.95V131Z" fill="#F5F5F5"/>
<path d="M1968.95 137L2008.95 165" stroke="#AAAAAA" stroke-width="2"/>
<path d="M2008.95 137L1968.95 165" stroke="#AAAAAA" stroke-width="2"/>
<path d="M1962.95 131V129H1960.95V131H1962.95ZM2015.33 131H2017.33V129H2015.33V131ZM2015.33 171V173H2017.33V171H2015.33ZM1962.95 171H1960.95V173H1962.95V171ZM1962.95 133H2015.33V129H1962.95V133ZM2013.33 131V171H2017.33V131H2013.33ZM2015.33 169H1962.95V173H2015.33V169ZM1964.95 171V131H1960.95V171H1964.95Z" fill="#AAAAAA"/>
<rect x="2152" y="231" width="1046" height="774" rx="32" fill="#F5F5F5"/>
<rect x="2184" y="263" width="259" height="214" rx="8" fill="white"/>
<text fill="black" xml:space="preserve" style="white-space: pre" font-family="Chalkboard" font-size="24" letter-spacing="0em"><tspan x="2220" y="320.367">On-site interview</tspan></text>
<text fill="black" xml:space="preserve" style="white-space: pre" font-family="Chalkboard" font-size="18" letter-spacing="0em"><tspan x="2230" y="368.275">1 hour</tspan></text>
<text fill="black" xml:space="preserve" style="white-space: pre" font-family="Chalkboard" font-size="18" letter-spacing="0em"><tspan x="2230" y="426.275">Google meet</tspan></text>
<rect x="2475" y="263" width="691" height="710" rx="32" fill="white"/>
<text fill="black" xml:space="preserve" style="white-space: pre" font-family="Chalkboard" font-size="24" letter-spacing="0em"><tspan x="2703.16" y="316.367">Choose date and time</tspan></text>
<path d="M3134 336H2507V338H3134V336Z" fill="#B4B4B4" mask="url(#path-21-inside-2_3191_23995)"/>
<rect x="2507" y="337" width="627" height="174" rx="8" fill="white"/>
<text fill="black" xml:space="preserve" style="white-space: pre" font-family="Chalkboard" font-size="24" letter-spacing="0em"><tspan x="2543" y="394.367">Select a Date &#38; Time</tspan></text>
<text fill="#767676" xml:space="preserve" style="white-space: pre" font-family="Chalkboard" font-size="14" letter-spacing="0em"><tspan x="2543" y="427.881">Dropdown</tspan></text>
<rect x="2544" y="436" width="553" height="38" rx="3" fill="white"/>
<path d="M3072.5 452.75L3077 457.25L3081.5 452.75" stroke="#898F9B" stroke-width="2" stroke-linecap="round" stroke-linejoin="round"/>
<text fill="#7D7D7D" xml:space="preserve" style="white-space: pre" font-family="Chalkboard" font-size="16" letter-spacing="0em"><tspan x="2555" y="460.578">GMT - 0700 Pacific Time - Los Angeles</tspan></text>
<rect x="2544" y="436" width="553" height="38" rx="3" stroke="#AAAAAA" stroke-width="2"/>
<rect x="2507" y="511" width="627" height="382" rx="8" fill="white"/>
<rect x="2539" y="543" width="345" height="318" rx="4" fill="#F5F5F5"/>
<g filter="url(#filter2_d_3191_23995)">
<path d="M2555 577C2555 567.059 2563.06 559 2573 559V559C2582.94 559 2591 567.059 2591 577V577C2591 586.941 2582.94 595 2573 595V595C2563.06 595 2555 586.941 2555 577V577Z" fill="white"/>
<path fill-rule="evenodd" clip-rule="evenodd" d="M2571.78 578.024C2573.53 579.425 2575.68 581.558 2577.12 584.441L2574.88 585.559C2573.66 583.108 2571.8 581.242 2570.22 579.976C2569.43 579.347 2568.73 578.876 2568.22 578.565C2567.97 578.409 2567.77 578.294 2567.63 578.22C2567.56 578.182 2567.51 578.155 2567.48 578.138L2567.45 578.121L2567.44 578.118L2567.44 578.118C2567.44 578.118 2567.44 578.118 2567.44 578.117L2567.44 575.883C2567.44 575.882 2567.44 575.882 2567.44 575.882L2567.44 575.882L2567.45 575.88L2567.48 575.862C2567.51 575.845 2567.56 575.818 2567.63 575.781C2567.77 575.706 2567.97 575.591 2568.22 575.436C2568.73 575.124 2569.43 574.653 2570.22 574.024C2571.8 572.758 2573.66 570.892 2574.88 568.441L2577.12 569.559C2575.68 572.442 2573.53 574.575 2571.78 575.976C2571.28 576.373 2570.82 576.714 2570.4 577C2570.82 577.286 2571.28 577.627 2571.78 578.024Z" fill="black"/>
<path d="M2573 593C2564.16 593 2557 585.837 2557 577H2553C2553 588.046 2561.95 597 2573 597V593ZM2589 577C2589 585.837 2581.84 593 2573 593V597C2584.05 597 2593 588.046 2593 577H2589ZM2573 561C2581.84 561 2589 568.163 2589 577H2593C2593 565.954 2584.05 557 2573 557V561ZM2573 557C2561.95 557 2553 565.954 2553 577H2557C2557 568.163 2564.16 561 2573 561V557Z" fill="black"/>
</g>
<g filter="url(#filter3_d_3191_23995)">
<rect x="2616.5" y="559" width="88" height="36" rx="6" fill="white"/>
<text fill="#333333" xml:space="preserve" style="white-space: pre" font-family="Nunito" font-size="24" font-weight="600" letter-spacing="0px"><tspan x="2628.51" y="584.796">April</tspan></text>
<path d="M2691.22 576.78L2685.78 582.22C2685.31 582.692 2685.64 583.5 2686.31 583.5H2691C2691.83 583.5 2692.5 582.828 2692.5 582V577.311C2692.5 576.642 2691.69 576.308 2691.22 576.78Z" fill="#333333"/>
</g>
<g filter="url(#filter4_d_3191_23995)">
<rect x="2714.5" y="559" width="92" height="36" rx="6" fill="white"/>
<text fill="#333333" xml:space="preserve" style="white-space: pre" font-family="Nunito" font-size="24" font-weight="600" letter-spacing="0px"><tspan x="2726.72" y="584.796">2022</tspan></text>
<path d="M2793.22 576.78L2787.78 582.22C2787.31 582.692 2787.64 583.5 2788.31 583.5H2793C2793.83 583.5 2794.5 582.828 2794.5 582V577.311C2794.5 576.642 2793.69 576.308 2793.22 576.78Z" fill="#333333"/>
</g>
<g filter="url(#filter5_d_3191_23995)">
<path d="M2832 577C2832 567.059 2840.06 559 2850 559V559C2859.94 559 2868 567.059 2868 577V577C2868 586.941 2859.94 595 2850 595V595C2840.06 595 2832 586.941 2832 577V577Z" fill="white"/>
<path fill-rule="evenodd" clip-rule="evenodd" d="M2851.22 578.024C2849.47 579.425 2847.32 581.558 2845.88 584.441L2848.12 585.559C2849.34 583.108 2851.2 581.242 2852.78 579.976C2853.57 579.347 2854.27 578.876 2854.78 578.565C2855.03 578.409 2855.23 578.294 2855.37 578.22C2855.44 578.182 2855.49 578.155 2855.52 578.138L2855.55 578.121L2855.56 578.118L2855.56 578.118C2855.56 578.118 2855.56 578.118 2855.56 578.117L2855.56 575.883C2855.56 575.882 2855.56 575.882 2855.56 575.882L2855.56 575.882L2855.55 575.88L2855.52 575.862C2855.49 575.845 2855.44 575.818 2855.37 575.781C2855.23 575.706 2855.03 575.591 2854.78 575.436C2854.27 575.124 2853.57 574.653 2852.78 574.024C2851.2 572.758 2849.34 570.892 2848.12 568.441L2845.88 569.559C2847.32 572.442 2849.47 574.575 2851.22 575.976C2851.72 576.373 2852.18 576.714 2852.6 577C2852.18 577.286 2851.72 577.627 2851.22 578.024Z" fill="black"/>
<path d="M2850 593C2841.16 593 2834 585.837 2834 577H2830C2830 588.046 2838.95 597 2850 597V593ZM2866 577C2866 585.837 2858.84 593 2850 593V597C2861.05 597 2870 588.046 2870 577H2866ZM2850 561C2858.84 561 2866 568.163 2866 577H2870C2870 565.954 2861.05 557 2850 557V561ZM2850 557C2838.95 557 2830 565.954 2830 577H2834C2834 568.163 2841.16 561 2850 561V557Z" fill="black"/>
</g>
<text fill="#333333" xml:space="preserve" style="white-space: pre" font-family="Lexend" font-size="18" font-weight="500" letter-spacing="0em"><tspan x="2566.56" y="637.75">Mo</tspan></text>
<text fill="#333333" xml:space="preserve" style="white-space: pre" font-family="Lexend" font-size="18" font-weight="500" letter-spacing="0em"><tspan x="2613.89" y="637.75">Tu</tspan></text>
<text fill="#333333" xml:space="preserve" style="white-space: pre" font-family="Lexend" font-size="18" font-weight="500" letter-spacing="0em"><tspan x="2653.97" y="637.75">We</tspan></text>
<text fill="#333333" xml:space="preserve" style="white-space: pre" font-family="Lexend" font-size="18" font-weight="500" letter-spacing="0em"><tspan x="2701.04" y="637.75">Th</tspan></text>
<text fill="#333333" xml:space="preserve" style="white-space: pre" font-family="Lexend" font-size="18" font-weight="500" letter-spacing="0em"><tspan x="2746.75" y="637.75">Fr</tspan></text>
<text fill="#333333" xml:space="preserve" style="white-space: pre" font-family="Lexend" font-size="18" font-weight="500" letter-spacing="0em"><tspan x="2788.51" y="637.75">Sa</tspan></text>
<text fill="#333333" xml:space="preserve" style="white-space: pre" font-family="Lexend" font-size="18" font-weight="500" letter-spacing="0em"><tspan x="2832.7" y="637.75">Su</tspan></text>
<rect x="2555" y="667" width="36.8182" height="30" rx="4" fill="white"/>
<text fill="#AAAAAA" xml:space="preserve" style="white-space: pre" font-family="Lexend" font-size="18" font-weight="500" letter-spacing="0em"><tspan x="2563.03" y="688.75">29</tspan></text>
<rect x="2601.03" y="667" width="36.8182" height="30" rx="4" fill="white"/>
<text fill="#AAAAAA" xml:space="preserve" style="white-space: pre" font-family="Lexend" font-size="18" font-weight="500" letter-spacing="0em"><tspan x="2608.4" y="688.75">30</tspan></text>
<rect x="2647.06" y="667" width="36.8182" height="30" rx="4" fill="white"/>
<text fill="#AAAAAA" xml:space="preserve" style="white-space: pre" font-family="Lexend" font-size="18" font-weight="500" letter-spacing="0em"><tspan x="2655.4" y="688.75">31</tspan></text>
<rect x="2693.09" y="667" width="36.8182" height="30" rx="4" fill="white"/>
<text fill="#333333" xml:space="preserve" style="white-space: pre" font-family="Lexend" font-size="18" font-weight="500" letter-spacing="0em"><tspan x="2706.39" y="688.75">1</tspan></text>
<rect x="2739.12" y="667" width="36.8182" height="30" rx="4" fill="white"/>
<text fill="#333333" xml:space="preserve" style="white-space: pre" font-family="Lexend" font-size="18" font-weight="500" letter-spacing="0em"><tspan x="2752.19" y="688.75">2</tspan></text>
<rect x="2785.15" y="667" width="36.8182" height="30" rx="4" fill="white"/>
<text fill="#333333" xml:space="preserve" style="white-space: pre" font-family="Lexend" font-size="18" font-weight="500" letter-spacing="0em"><tspan x="2798.19" y="688.75">3</tspan></text>
<rect x="2831.18" y="667" width="36.8182" height="30" rx="4" fill="white"/>
<text fill="#333333" xml:space="preserve" style="white-space: pre" font-family="Lexend" font-size="18" font-weight="500" letter-spacing="0em"><tspan x="2843.47" y="688.75">4</tspan></text>
<rect x="2555" y="705" width="36.8182" height="30" rx="4" fill="white"/>
<text fill="#333333" xml:space="preserve" style="white-space: pre" font-family="Lexend" font-size="18" font-weight="500" letter-spacing="0em"><tspan x="2567.8" y="726.75">5</tspan></text>
<rect x="2601.03" y="705" width="36.8182" height="30" rx="4" fill="white"/>
<text fill="#333333" xml:space="preserve" style="white-space: pre" font-family="Lexend" font-size="18" font-weight="500" letter-spacing="0em"><tspan x="2613.94" y="726.75">6</tspan></text>
<rect x="2647.06" y="705" width="36.8182" height="30" rx="4" fill="white"/>
<text fill="#333333" xml:space="preserve" style="white-space: pre" font-family="Lexend" font-size="18" font-weight="500" letter-spacing="0em"><tspan x="2660.15" y="726.75">7</tspan></text>
<rect x="2693.09" y="705" width="36.8182" height="30" rx="4" fill="white"/>
<text fill="#333333" xml:space="preserve" style="white-space: pre" font-family="Lexend" font-size="18" font-weight="500" letter-spacing="0em"><tspan x="2705.82" y="726.75">8</tspan></text>
<rect x="2739.12" y="705" width="36.8182" height="30" rx="4" fill="white"/>
<text fill="#333333" xml:space="preserve" style="white-space: pre" font-family="Lexend" font-size="18" font-weight="500" letter-spacing="0em"><tspan x="2752.08" y="726.75">9</tspan></text>
<rect x="2785.15" y="705" width="36.8182" height="30" rx="4" fill="white"/>
<text fill="#333333" xml:space="preserve" style="white-space: pre" font-family="Lexend" font-size="18" font-weight="500" letter-spacing="0em"><tspan x="2792.77" y="726.75">10</tspan></text>
<rect x="2831.18" y="705" width="36.8182" height="30" rx="4" fill="white"/>
<text fill="#333333" xml:space="preserve" style="white-space: pre" font-family="Lexend" font-size="18" font-weight="500" letter-spacing="0em"><tspan x="2839.78" y="726.75">11</tspan></text>
<rect x="2555" y="743" width="36.8182" height="30" rx="4" fill="white"/>
<text fill="#333333" xml:space="preserve" style="white-space: pre" font-family="Lexend" font-size="18" font-weight="500" letter-spacing="0em"><tspan x="2563.37" y="764.75">12</tspan></text>
<rect x="2601.03" y="743" width="36.8182" height="30" rx="4" fill="white"/>
<text fill="#333333" xml:space="preserve" style="white-space: pre" font-family="Lexend" font-size="18" font-weight="500" letter-spacing="0em"><tspan x="2609.37" y="764.75">13</tspan></text>
<rect x="2647.06" y="743" width="36.8182" height="30" rx="4" fill="white"/>
<text fill="#333333" xml:space="preserve" style="white-space: pre" font-family="Lexend" font-size="18" font-weight="500" letter-spacing="0em"><tspan x="2654.65" y="764.75">14</tspan></text>
<rect x="2693.09" y="743" width="36.8182" height="30" rx="4" fill="white"/>
<text fill="#333333" xml:space="preserve" style="white-space: pre" font-family="Lexend" font-size="18" font-weight="500" letter-spacing="0em"><tspan x="2701.19" y="764.75">15</tspan></text>
<path d="M2739.12 747C2739.12 744.791 2740.91 743 2743.12 743H2771.94C2774.15 743 2775.94 744.791 2775.94 747V769C2775.94 771.209 2774.15 773 2771.94 773H2743.12C2740.91 773 2739.12 771.209 2739.12 769V747Z" fill="white"/>
<text fill="#333333" xml:space="preserve" style="white-space: pre" font-family="Lexend" font-size="18" font-weight="500" letter-spacing="0em"><tspan x="2747.33" y="764.75">16</tspan></text>
<rect x="2785.15" y="743" width="36.8182" height="30" rx="4" fill="#FFFFFD"/>
<text fill="#53514D" xml:space="preserve" style="white-space: pre" font-family="Lexend" font-size="18" font-weight="500" letter-spacing="0em"><tspan x="2793.54" y="764.75">17</tspan></text>
<rect x="2796" y="767" width="14" height="4" rx="2" fill="#DEB650"/>
<rect x="2831.18" y="743" width="36.8182" height="30" rx="4" fill="white"/>
<text fill="#333333" xml:space="preserve" style="white-space: pre" font-family="Lexend" font-size="18" font-weight="500" letter-spacing="0em"><tspan x="2839.21" y="764.75">18</tspan></text>
<rect x="2555" y="781" width="36.8182" height="30" rx="4" fill="white"/>
<text fill="#333333" xml:space="preserve" style="white-space: pre" font-family="Lexend" font-size="18" font-weight="500" letter-spacing="0em"><tspan x="2563.26" y="802.75">19</tspan></text>
<rect x="2601.03" y="781" width="36.8182" height="30" rx="4" fill="white"/>
<text fill="#333333" xml:space="preserve" style="white-space: pre" font-family="Lexend" font-size="18" font-weight="500" letter-spacing="0em"><tspan x="2608.42" y="802.75">20</tspan></text>
<rect x="2647.06" y="781" width="36.8182" height="30" rx="4" fill="white"/>
<text fill="#333333" xml:space="preserve" style="white-space: pre" font-family="Lexend" font-size="18" font-weight="500" letter-spacing="0em"><tspan x="2655.43" y="802.75">21</tspan></text>
<rect x="2693.09" y="781" width="36.8182" height="30" rx="4" fill="white"/>
<text fill="#333333" xml:space="preserve" style="white-space: pre" font-family="Lexend" font-size="18" font-weight="500" letter-spacing="0em"><tspan x="2701.23" y="802.75">22</tspan></text>
<rect x="2739.12" y="781" width="36.8182" height="30" rx="4" fill="white"/>
<text fill="#333333" xml:space="preserve" style="white-space: pre" font-family="Lexend" font-size="18" font-weight="500" letter-spacing="0em"><tspan x="2747.23" y="802.75">23</tspan></text>
<rect x="2785.15" y="781" width="36.8182" height="30" rx="4" fill="white"/>
<text fill="#333333" xml:space="preserve" style="white-space: pre" font-family="Lexend" font-size="18" font-weight="500" letter-spacing="0em"><tspan x="2792.68" y="802.75">24</tspan></text>
<path d="M2831.18 785C2831.18 782.791 2832.97 781 2835.18 781H2864C2866.21 781 2868 782.791 2868 785V807C2868 809.209 2866.21 811 2864 811H2835.18C2832.97 811 2831.18 809.209 2831.18 807V785Z" fill="white"/>
<text fill="#333333" xml:space="preserve" style="white-space: pre" font-family="Lexend" font-size="18" font-weight="500" letter-spacing="0em"><tspan x="2839.05" y="802.75">25</tspan></text>
<rect x="2555" y="819" width="36.8182" height="30" rx="4" fill="white"/>
<text fill="#333333" xml:space="preserve" style="white-space: pre" font-family="Lexend" font-size="18" font-weight="500" letter-spacing="0em"><tspan x="2562.98" y="840.75">26</tspan></text>
<rect x="2601.03" y="819" width="36.8182" height="30" rx="4" fill="white"/>
<text fill="#333333" xml:space="preserve" style="white-space: pre" font-family="Lexend" font-size="18" font-weight="500" letter-spacing="0em"><tspan x="2609.19" y="840.75">27</tspan></text>
<rect x="2647.06" y="819" width="36.8182" height="30" rx="4" fill="white"/>
<text fill="#333333" xml:space="preserve" style="white-space: pre" font-family="Lexend" font-size="18" font-weight="500" letter-spacing="0em"><tspan x="2654.86" y="840.75">28</tspan></text>
<rect x="2693.09" y="819" width="36.8182" height="30" rx="4" fill="white"/>
<text fill="#333333" xml:space="preserve" style="white-space: pre" font-family="Lexend" font-size="18" font-weight="500" letter-spacing="0em"><tspan x="2701.12" y="840.75">29</tspan></text>
<rect x="2739.12" y="819" width="36.8182" height="30" rx="4" fill="white"/>
<text fill="#333333" xml:space="preserve" style="white-space: pre" font-family="Lexend" font-size="18" font-weight="500" letter-spacing="0em"><tspan x="2746.49" y="840.75">30</tspan></text>
<rect x="2785.15" y="819" width="36.8182" height="30" rx="4" fill="white"/>
<text fill="#AAAAAA" xml:space="preserve" style="white-space: pre" font-family="Lexend" font-size="18" font-weight="500" letter-spacing="0em"><tspan x="2798.45" y="840.75">1</tspan></text>
<rect x="2831.18" y="819" width="36.8182" height="30" rx="4" fill="white"/>
<text fill="#AAAAAA" xml:space="preserve" style="white-space: pre" font-family="Lexend" font-size="18" font-weight="500" letter-spacing="0em"><tspan x="2844.25" y="840.75">2</tspan></text>
<rect x="2917" y="544" width="184" height="46" rx="3" fill="white"/>
<text fill="#333333" xml:space="preserve" style="white-space: pre" font-family="Chalkboard" font-size="16" letter-spacing="0em"><tspan x="2977" y="572.578">11:00 AM</tspan></text>
<rect x="2917" y="544" width="184" height="46" rx="3" stroke="#333333" stroke-width="2"/>
<rect x="2917" y="598" width="184" height="46" rx="3" fill="white"/>
<text fill="#333333" xml:space="preserve" style="white-space: pre" font-family="Chalkboard" font-size="16" letter-spacing="0em"><tspan x="2976" y="626.578">12:00 PM</tspan></text>
<rect x="2917" y="598" width="184" height="46" rx="3" stroke="#333333" stroke-width="2"/>
<path d="M2916 655C2916 652.791 2917.79 651 2920 651H3098C3100.21 651 3102 652.791 3102 655V695C3102 697.209 3100.21 699 3098 699H2920C2917.79 699 2916 697.209 2916 695V655Z" fill="white"/>
<text fill="#333333" xml:space="preserve" style="white-space: pre" font-family="Chalkboard" font-size="16" letter-spacing="0em"><tspan x="2980" y="680.578">1:00 PM</tspan></text>
<path d="M2920 653H3098V649H2920V653ZM3100 655V695H3104V655H3100ZM3098 697H2920V701H3098V697ZM2918 695V655H2914V695H2918ZM2920 697C2918.9 697 2918 696.105 2918 695H2914C2914 698.314 2916.69 701 2920 701V697ZM3100 695C3100 696.105 3099.1 697 3098 697V701C3101.31 701 3104 698.314 3104 695H3100ZM3098 653C3099.1 653 3100 653.895 3100 655H3104C3104 651.686 3101.31 649 3098 649V653ZM2920 649C2916.69 649 2914 651.686 2914 655H2918C2918 653.895 2918.9 653 2920 653V649Z" fill="#333333"/>
<rect x="2917" y="706" width="184" height="46" rx="3" fill="white"/>
<text fill="#333333" xml:space="preserve" style="white-space: pre" font-family="Chalkboard" font-size="16" letter-spacing="0em"><tspan x="2978.5" y="734.578">2:00 PM</tspan></text>
<rect x="2917" y="706" width="184" height="46" rx="3" stroke="#333333" stroke-width="2"/>
<rect x="2917" y="760" width="184" height="46" rx="3" fill="white"/>
<text fill="#333333" xml:space="preserve" style="white-space: pre" font-family="Chalkboard" font-size="16" letter-spacing="0em"><tspan x="2978.5" y="788.578">3:00 PM</tspan></text>
<rect x="2917" y="760" width="184" height="46" rx="3" stroke="#333333" stroke-width="2"/>
<rect x="2917" y="814" width="184" height="46" rx="3" fill="white"/>
<text fill="#333333" xml:space="preserve" style="white-space: pre" font-family="Chalkboard" font-size="16" letter-spacing="0em"><tspan x="2978.5" y="842.578">4:00 PM</tspan></text>
<rect x="2917" y="814" width="184" height="46" rx="3" stroke="#333333" stroke-width="2"/>
<path d="M3015 897C3015 894.791 3016.79 893 3019 893H3098C3100.21 893 3102 894.791 3102 897V937C3102 939.209 3100.21 941 3098 941H3019C3016.79 941 3015 939.209 3015 937V897Z" fill="#333333"/>
<text fill="white" xml:space="preserve" style="white-space: pre" font-family="Chalkboard" font-size="16" letter-spacing="0em"><tspan x="3031" y="922.578">Confirm</tspan></text>
</g>
<rect width="258" height="83" transform="translate(3510 32)" fill="#5384ED"/>
<text fill="white" xml:space="preserve" style="white-space: pre" font-family="Inter" font-size="42" font-weight="500" letter-spacing="0em"><tspan x="3542" y="88.7727">Enter info</tspan></text>
<g clip-path="url(#clip3_3191_23995)">
<rect width="1440" height="1024" transform="translate(3510 115)" fill="white"/>
<g filter="url(#filter6_d_3191_23995)">
<rect x="3510" y="115" width="1440" height="80" fill="white"/>
</g>
<g clip-path="url(#clip4_3191_23995)">
<path d="M4878.52 155C4878.52 167.749 4868.69 178 4856.67 178C4844.64 178 4834.81 167.749 4834.81 155C4834.81 142.251 4844.64 132 4856.67 132C4868.69 132 4878.52 142.251 4878.52 155Z" fill="#F5F5F5" stroke="#AAAAAA" stroke-width="2"/>
<mask id="path-189-inside-3_3191_23995" fill="white">
<path fill-rule="evenodd" clip-rule="evenodd" d="M4839.52 170.875V170C4839.52 164.015 4850.95 161 4856.67 161C4862.39 161 4873.81 164.015 4873.81 170V170.875C4869.62 175.857 4863.49 179 4856.67 179C4849.84 179 4843.71 175.857 4839.52 170.875ZM4856.67 141C4851.93 141 4848.1 145.028 4848.1 150C4848.1 154.972 4851.93 159 4856.67 159C4861.4 159 4865.24 154.972 4865.24 150C4865.24 145.028 4861.4 141 4856.67 141Z"/>
</mask>
<path fill-rule="evenodd" clip-rule="evenodd" d="M4839.52 170.875V170C4839.52 164.015 4850.95 161 4856.67 161C4862.39 161 4873.81 164.015 4873.81 170V170.875C4869.62 175.857 4863.49 179 4856.67 179C4849.84 179 4843.71 175.857 4839.52 170.875ZM4856.67 141C4851.93 141 4848.1 145.028 4848.1 150C4848.1 154.972 4851.93 159 4856.67 159C4861.4 159 4865.24 154.972 4865.24 150C4865.24 145.028 4861.4 141 4856.67 141Z" fill="#F5F5F5"/>
<path d="M4839.52 170.875H4837.52V171.604L4837.99 172.162L4839.52 170.875ZM4873.81 170.875L4875.34 172.162L4875.81 171.604V170.875H4873.81ZM4841.52 170.875V170H4837.52V170.875H4841.52ZM4841.52 170C4841.52 169.202 4841.89 168.378 4842.79 167.505C4843.71 166.616 4845.07 165.796 4846.73 165.099C4850.05 163.702 4854.07 163 4856.67 163V159C4853.54 159 4848.99 159.806 4845.17 161.412C4843.26 162.217 4841.41 163.273 4840.01 164.633C4838.59 166.009 4837.52 167.806 4837.52 170H4841.52ZM4856.67 163C4859.26 163 4863.29 163.702 4866.61 165.099C4868.27 165.796 4869.63 166.616 4870.54 167.505C4871.44 168.378 4871.81 169.202 4871.81 170H4875.81C4875.81 167.806 4874.75 166.009 4873.33 164.633C4871.92 163.273 4870.07 162.217 4868.16 161.412C4864.34 159.806 4859.79 159 4856.67 159V163ZM4871.81 170V170.875H4875.81V170H4871.81ZM4872.28 169.588C4868.44 174.153 4862.86 177 4856.67 177V181C4864.13 181 4870.8 177.562 4875.34 172.162L4872.28 169.588ZM4856.67 177C4850.47 177 4844.89 174.153 4841.05 169.588L4837.99 172.162C4842.53 177.562 4849.21 181 4856.67 181V177ZM4850.1 150C4850.1 146.039 4853.13 143 4856.67 143V139C4850.74 139 4846.1 144.016 4846.1 150H4850.1ZM4856.67 157C4853.13 157 4850.1 153.961 4850.1 150H4846.1C4846.1 155.984 4850.74 161 4856.67 161V157ZM4863.24 150C4863.24 153.961 4860.21 157 4856.67 157V161C4862.6 161 4867.24 155.984 4867.24 150H4863.24ZM4856.67 143C4860.21 143 4863.24 146.039 4863.24 150H4867.24C4867.24 144.016 4862.6 139 4856.67 139V143Z" fill="#AAAAAA" mask="url(#path-189-inside-3_3191_23995)"/>
</g>
<path d="M3570.95 131H3623.33V171H3570.95V131Z" fill="#F5F5F5"/>
<path d="M3576.95 137L3616.95 165" stroke="#AAAAAA" stroke-width="2"/>
<path d="M3616.95 137L3576.95 165" stroke="#AAAAAA" stroke-width="2"/>
<path d="M3570.95 131V129H3568.95V131H3570.95ZM3623.33 131H3625.33V129H3623.33V131ZM3623.33 171V173H3625.33V171H3623.33ZM3570.95 171H3568.95V173H3570.95V171ZM3570.95 133H3623.33V129H3570.95V133ZM3621.33 131V171H3625.33V131H3621.33ZM3623.33 169H3570.95V173H3623.33V169ZM3572.95 171V131H3568.95V171H3572.95Z" fill="#AAAAAA"/>
<rect x="3772" y="352" width="936" height="550" rx="32" fill="#F5F5F5"/>
<rect x="3804" y="384" width="387" height="330" rx="32" fill="white"/>
<text fill="black" xml:space="preserve" style="white-space: pre" font-family="Chalkboard" font-size="24" letter-spacing="0em"><tspan x="3840" y="441.367">On-site interview</tspan></text>
<text fill="black" xml:space="preserve" style="white-space: pre" font-family="Chalkboard" font-size="18" letter-spacing="0em"><tspan x="3850" y="489.275">1 hour</tspan></text>
<text fill="black" xml:space="preserve" style="white-space: pre" font-family="Chalkboard" font-size="18" letter-spacing="0em"><tspan x="3850" y="547.275">Google meet</tspan></text>
<text fill="black" xml:space="preserve" style="white-space: pre" font-family="Chalkboard" font-size="18" letter-spacing="0em"><tspan x="3850" y="605.275">June 17th, 2022, 1:00 pm - 2:00 pm</tspan></text>
<text fill="black" xml:space="preserve" style="white-space: pre" font-family="Chalkboard" font-size="18" letter-spacing="0em"><tspan x="3850" y="663.275">Pacific Time - US &#38; Canada</tspan></text>
<rect x="4223" y="384" width="453" height="486" rx="32" fill="white"/>
<path d="M4283.5 434H4262.5" stroke="#898F9B" stroke-width="2" stroke-linecap="round" stroke-linejoin="round"/>
<path d="M4273 444.5L4262.5 434L4273 423.5" stroke="#898F9B" stroke-width="2" stroke-linecap="round" stroke-linejoin="round"/>
<text fill="black" xml:space="preserve" style="white-space: pre" font-family="Chalkboard" font-size="24" letter-spacing="0em"><tspan x="4390.43" y="442.367">Candidate info</tspan></text>
<path d="M4644 467H4255V469H4644V467Z" fill="#B4B4B4" mask="url(#path-203-inside-4_3191_23995)"/>
<text fill="black" xml:space="preserve" style="white-space: pre" font-family="Chalkboard" font-size="18" letter-spacing="0em"><tspan x="4255" y="517.275">Information of candidate</tspan></text>
<path d="M4255 558C4255 555.791 4256.79 554 4259 554H4640C4642.21 554 4644 555.791 4644 558V590C4644 592.209 4642.21 594 4640 594H4259C4256.79 594 4255 592.209 4255 590V558Z" fill="white"/>
<text fill="#767676" xml:space="preserve" style="white-space: pre" font-family="Chalkboard" font-size="14" letter-spacing="0em"><tspan x="4255" y="546.881">Name</tspan></text>
<text opacity="0.8" fill="#7D7D7D" xml:space="preserve" style="white-space: pre" font-family="Chalkboard" font-size="16" letter-spacing="0em"><tspan x="4270" y="580.578">Please enter your name</tspan></text>
<mask id="mask0_3191_23995" style="mask-type:alpha" maskUnits="userSpaceOnUse" x="4271" y="568" width="108" height="13">
<text fill="black" xml:space="preserve" style="white-space: pre" font-family="Montserrat" font-size="16" letter-spacing="0em"><tspan x="4272" y="579.736">Jessica Baker</tspan></text>
</mask>
<g mask="url(#mask0_3191_23995)">
<rect x="4272" y="565" width="0.01" height="19" fill="#171717"/>
</g>
<path d="M4259 556H4640V552H4259V556ZM4642 558V590H4646V558H4642ZM4640 592H4259V596H4640V592ZM4257 590V558H4253V590H4257ZM4259 592C4257.9 592 4257 591.105 4257 590H4253C4253 593.314 4255.69 596 4259 596V592ZM4642 590C4642 591.105 4641.1 592 4640 592V596C4643.31 596 4646 593.314 4646 590H4642ZM4640 556C4641.1 556 4642 556.895 4642 558H4646C4646 554.686 4643.31 552 4640 552V556ZM4259 552C4255.69 552 4253 554.686 4253 558H4257C4257 556.895 4257.9 556 4259 556V552Z" fill="#AAAAAA"/>
<path d="M4255 630C4255 627.791 4256.79 626 4259 626H4640C4642.21 626 4644 627.791 4644 630V662C4644 664.209 4642.21 666 4640 666H4259C4256.79 666 4255 664.209 4255 662V630Z" fill="white"/>
<text fill="#767676" xml:space="preserve" style="white-space: pre" font-family="Chalkboard" font-size="14" letter-spacing="0em"><tspan x="4255" y="618.881">Email</tspan></text>
<text opacity="0.8" fill="#7D7D7D" xml:space="preserve" style="white-space: pre" font-family="Chalkboard" font-size="16" letter-spacing="0em"><tspan x="4270" y="652.578">Please enter your email</tspan></text>
<mask id="mask1_3191_23995" style="mask-type:alpha" maskUnits="userSpaceOnUse" x="4270" y="640" width="146" height="16">
<text fill="black" xml:space="preserve" style="white-space: pre" font-family="Montserrat" font-size="16" letter-spacing="0em"><tspan x="4272" y="651.736">jess.b@gmail.com</tspan></text>
</mask>
<g mask="url(#mask1_3191_23995)">
<rect x="4272" y="637" width="0.01" height="19" fill="#171717"/>
</g>
<path d="M4259 628H4640V624H4259V628ZM4642 630V662H4646V630H4642ZM4640 664H4259V668H4640V664ZM4257 662V630H4253V662H4257ZM4259 664C4257.9 664 4257 663.105 4257 662H4253C4253 665.314 4255.69 668 4259 668V664ZM4642 662C4642 663.105 4641.1 664 4640 664V668C4643.31 668 4646 665.314 4646 662H4642ZM4640 628C4641.1 628 4642 628.895 4642 630H4646C4646 626.686 4643.31 624 4640 624V628ZM4259 624C4255.69 624 4253 626.686 4253 630H4257C4257 628.895 4257.9 628 4259 628V624Z" fill="#AAAAAA"/>
<path d="M4255 702C4255 699.791 4256.79 698 4259 698H4640C4642.21 698 4644 699.791 4644 702V754C4644 756.209 4642.21 758 4640 758H4259C4256.79 758 4255 756.209 4255 754V702Z" fill="white"/>
<text fill="#7D7D7D" xml:space="preserve" style="white-space: pre" font-family="Chalkboard" font-size="16" letter-spacing="0em"><tspan x="4267" y="721.578">Optional</tspan></text>
<text fill="#767676" xml:space="preserve" style="white-space: pre" font-family="Chalkboard" font-size="14" letter-spacing="0em"><tspan x="4255" y="690.881">Share anything?</tspan></text>
<path d="M4638.5 745.75L4631.75 752.5" stroke="#7D7D7D"/>
<path d="M4638.5 750.25L4636.25 752.5" stroke="#7D7D7D"/>
<path d="M4259 700H4640V696H4259V700ZM4642 702V754H4646V702H4642ZM4640 756H4259V760H4640V756ZM4257 754V702H4253V754H4257ZM4259 756C4257.9 756 4257 755.105 4257 754H4253C4253 757.314 4255.69 760 4259 760V756ZM4642 754C4642 755.105 4641.1 756 4640 756V760C4643.31 760 4646 757.314 4646 754H4642ZM4640 700C4641.1 700 4642 700.895 4642 702H4646C4646 698.686 4643.31 696 4640 696V700ZM4259 696C4255.69 696 4253 698.686 4253 702H4257C4257 700.895 4257.9 700 4259 700V696Z" fill="#AAAAAA"/>
<path d="M4557 794C4557 791.791 4558.79 790 4561 790H4640C4642.21 790 4644 791.791 4644 794V834C4644 836.209 4642.21 838 4640 838H4561C4558.79 838 4557 836.209 4557 834V794Z" fill="#333333"/>
<text fill="white" xml:space="preserve" style="white-space: pre" font-family="Chalkboard" font-size="16" letter-spacing="0em"><tspan x="4573" y="819.578">Confirm</tspan></text>
</g>
<rect width="467" height="83" transform="translate(5118 32)" fill="#5384ED"/>
<text fill="white" xml:space="preserve" style="white-space: pre" font-family="Inter" font-size="42" font-weight="500" letter-spacing="0em"><tspan x="5150" y="88.7727">Interview confirmed</tspan></text>
<g clip-path="url(#clip5_3191_23995)">
<rect width="1440" height="1024" transform="translate(5118 115)" fill="white"/>
<g filter="url(#filter7_d_3191_23995)">
<rect x="5118" y="115" width="1440" height="80" fill="white"/>
</g>
<g clip-path="url(#clip6_3191_23995)">
<path d="M6486.52 155C6486.52 167.749 6476.69 178 6464.67 178C6452.64 178 6442.81 167.749 6442.81 155C6442.81 142.251 6452.64 132 6464.67 132C6476.69 132 6486.52 142.251 6486.52 155Z" fill="#F5F5F5" stroke="#AAAAAA" stroke-width="2"/>
<mask id="path-232-inside-5_3191_23995" fill="white">
<path fill-rule="evenodd" clip-rule="evenodd" d="M6447.52 170.875V170C6447.52 164.015 6458.95 161 6464.67 161C6470.39 161 6481.81 164.015 6481.81 170V170.875C6477.62 175.857 6471.49 179 6464.67 179C6457.84 179 6451.71 175.857 6447.52 170.875ZM6464.67 141C6459.93 141 6456.1 145.028 6456.1 150C6456.1 154.972 6459.93 159 6464.67 159C6469.4 159 6473.24 154.972 6473.24 150C6473.24 145.028 6469.4 141 6464.67 141Z"/>
</mask>
<path fill-rule="evenodd" clip-rule="evenodd" d="M6447.52 170.875V170C6447.52 164.015 6458.95 161 6464.67 161C6470.39 161 6481.81 164.015 6481.81 170V170.875C6477.62 175.857 6471.49 179 6464.67 179C6457.84 179 6451.71 175.857 6447.52 170.875ZM6464.67 141C6459.93 141 6456.1 145.028 6456.1 150C6456.1 154.972 6459.93 159 6464.67 159C6469.4 159 6473.24 154.972 6473.24 150C6473.24 145.028 6469.4 141 6464.67 141Z" fill="#F5F5F5"/>
<path d="M6447.52 170.875H6445.52V171.604L6445.99 172.162L6447.52 170.875ZM6481.81 170.875L6483.34 172.162L6483.81 171.604V170.875H6481.81ZM6449.52 170.875V170H6445.52V170.875H6449.52ZM6449.52 170C6449.52 169.202 6449.89 168.378 6450.79 167.505C6451.71 166.616 6453.07 165.796 6454.73 165.099C6458.05 163.702 6462.07 163 6464.67 163V159C6461.54 159 6456.99 159.806 6453.17 161.412C6451.26 162.217 6449.41 163.273 6448.01 164.633C6446.59 166.009 6445.52 167.806 6445.52 170H6449.52ZM6464.67 163C6467.26 163 6471.29 163.702 6474.61 165.099C6476.27 165.796 6477.63 166.616 6478.54 167.505C6479.44 168.378 6479.81 169.202 6479.81 170H6483.81C6483.81 167.806 6482.75 166.009 6481.33 164.633C6479.92 163.273 6478.07 162.217 6476.16 161.412C6472.34 159.806 6467.79 159 6464.67 159V163ZM6479.81 170V170.875H6483.81V170H6479.81ZM6480.28 169.588C6476.44 174.153 6470.86 177 6464.67 177V181C6472.13 181 6478.8 177.562 6483.34 172.162L6480.28 169.588ZM6464.67 177C6458.47 177 6452.89 174.153 6449.05 169.588L6445.99 172.162C6450.53 177.562 6457.21 181 6464.67 181V177ZM6458.1 150C6458.1 146.039 6461.13 143 6464.67 143V139C6458.74 139 6454.1 144.016 6454.1 150H6458.1ZM6464.67 157C6461.13 157 6458.1 153.961 6458.1 150H6454.1C6454.1 155.984 6458.74 161 6464.67 161V157ZM6471.24 150C6471.24 153.961 6468.21 157 6464.67 157V161C6470.6 161 6475.24 155.984 6475.24 150H6471.24ZM6464.67 143C6468.21 143 6471.24 146.039 6471.24 150H6475.24C6475.24 144.016 6470.6 139 6464.67 139V143Z" fill="#AAAAAA" mask="url(#path-232-inside-5_3191_23995)"/>
</g>
<path d="M5178.95 131H5231.33V171H5178.95V131Z" fill="#F5F5F5"/>
<path d="M5184.95 137L5224.95 165" stroke="#AAAAAA" stroke-width="2"/>
<path d="M5224.95 137L5184.95 165" stroke="#AAAAAA" stroke-width="2"/>
<path d="M5178.95 131V129H5176.95V131H5178.95ZM5231.33 131H5233.33V129H5231.33V131ZM5231.33 171V173H5233.33V171H5231.33ZM5178.95 171H5176.95V173H5178.95V171ZM5178.95 133H5231.33V129H5178.95V133ZM5229.33 131V171H5233.33V131H5229.33ZM5231.33 169H5178.95V173H5231.33V169ZM5180.95 171V131H5176.95V171H5180.95Z" fill="#AAAAAA"/>
<rect x="5475" y="245" width="725" height="568" rx="32" fill="#F5F5F5"/>
<text fill="black" xml:space="preserve" style="white-space: pre" font-family="Chalkboard" font-size="24" letter-spacing="0em"><tspan x="5728.14" y="302.367">Interview confirmed</tspan></text>
<path d="M6164 322H5511V324H6164V322Z" fill="#B4B4B4" mask="url(#path-239-inside-6_3191_23995)"/>
<text fill="#DEB650" xml:space="preserve" style="white-space: pre" font-family="Chalkboard" font-size="32" letter-spacing="0em"><tspan x="5511" y="383.156">Your interview scheduled with Lisa Hurley</tspan></text>
<rect x="5511" y="421" width="653" height="298" rx="8" fill="white"/>
<text fill="black" xml:space="preserve" style="white-space: pre" font-family="Chalkboard" font-size="24" letter-spacing="0em"><tspan x="5543" y="474.367">On-site interview</tspan></text>
<text fill="black" xml:space="preserve" style="white-space: pre" font-family="Chalkboard" font-size="18" letter-spacing="0em"><tspan x="5553" y="522.275">1 hour</tspan></text>
<text fill="black" xml:space="preserve" style="white-space: pre" font-family="Chalkboard" font-size="18" letter-spacing="0em"><tspan x="5553" y="572.275">Google meet</tspan></text>
<text fill="black" xml:space="preserve" style="white-space: pre" font-family="Chalkboard" font-size="18" letter-spacing="0em"><tspan x="5553" y="622.275">June 17th, 2022, 1:00 pm - 2:00 pm</tspan></text>
<text fill="black" xml:space="preserve" style="white-space: pre" font-family="Chalkboard" font-size="18" letter-spacing="0em"><tspan x="5553" y="672.275">Pacific Time - US &#38; Canada</tspan></text>
<text fill="black" xml:space="preserve" style="white-space: pre" font-family="Chalkboard" font-size="24" letter-spacing="0em"><tspan x="5511" y="772.367">Please check your email to see the calendar invitation</tspan></text>
</g>
<path d="M1198.33 644C1198.33 654.309 1206.69 662.667 1217 662.667C1227.31 662.667 1235.67 654.309 1235.67 644C1235.67 633.691 1227.31 625.333 1217 625.333C1206.69 625.333 1198.33 633.691 1198.33 644ZM1904.47 646.475C1905.84 645.108 1905.84 642.892 1904.47 641.525L1882.2 619.251C1880.83 617.884 1878.62 617.884 1877.25 619.251C1875.88 620.618 1875.88 622.834 1877.25 624.201L1897.05 644L1877.25 663.799C1875.88 665.166 1875.88 667.382 1877.25 668.749C1878.62 670.116 1880.83 670.116 1882.2 668.749L1904.47 646.475ZM1217 647.5H1408.97V640.5H1217V647.5ZM1408.97 647.5H1902V640.5H1408.97V647.5Z" fill="#5384ED"/>
<circle opacity="0.3" cx="1217" cy="644" r="43" fill="#5384ED"/>
<path d="M2985.33 680C2985.33 690.309 2993.69 698.667 3004 698.667C3014.31 698.667 3022.67 690.309 3022.67 680C3022.67 669.691 3014.31 661.333 3004 661.333C2993.69 661.333 2985.33 669.691 2985.33 680ZM3512.47 682.475C3513.84 681.108 3513.84 678.892 3512.47 677.525L3490.2 655.251C3488.83 653.884 3486.62 653.884 3485.25 655.251C3483.88 656.618 3483.88 658.834 3485.25 660.201L3505.05 680L3485.25 699.799C3483.88 701.166 3483.88 703.382 3485.25 704.749C3486.62 706.116 3488.83 706.116 3490.2 704.749L3512.47 682.475ZM3004 683.5H3145.81V676.5H3004V683.5ZM3145.81 683.5H3510V676.5H3145.81V683.5Z" fill="#5384ED"/>
<circle opacity="0.3" cx="3004" cy="680" r="43" fill="#5384ED"/>
<path d="M4646.33 798C4646.33 808.309 4654.69 816.667 4665 816.667C4675.31 816.667 4683.67 808.309 4683.67 798C4683.67 787.691 4675.31 779.333 4665 779.333C4654.69 779.333 4646.33 787.691 4646.33 798ZM5120.47 800.475C5121.84 799.108 5121.84 796.892 5120.47 795.525L5098.2 773.251C5096.83 771.884 5094.62 771.884 5093.25 773.251C5091.88 774.618 5091.88 776.834 5093.25 778.201L5113.05 798L5093.25 817.799C5091.88 819.166 5091.88 821.382 5093.25 822.749C5094.62 824.116 5096.83 824.116 5098.2 822.749L5120.47 800.475ZM4665 801.5H4791.96V794.5H4665V801.5ZM4791.96 801.5H5118V794.5H4791.96V801.5Z" fill="#5384ED"/>
<circle opacity="0.3" cx="4665" cy="798" r="43" fill="#5384ED"/>
<path d="M4282.67 420C4282.67 409.691 4274.31 401.333 4264 401.333C4253.69 401.333 4245.33 409.691 4245.33 420C4245.33 430.309 4253.69 438.667 4264 438.667C4274.31 438.667 4282.67 430.309 4282.67 420ZM3339.53 417.525C3338.16 418.892 3338.16 421.108 3339.53 422.475L3361.8 444.749C3363.17 446.115 3365.38 446.115 3366.75 444.749C3368.12 443.382 3368.12 441.166 3366.75 439.799L3346.95 420L3366.75 400.201C3368.12 398.834 3368.12 396.618 3366.75 395.251C3365.38 393.884 3363.17 393.884 3361.8 395.251L3339.53 417.525ZM4264 416.5L4005.61 416.5L4005.61 423.5L4264 423.5L4264 416.5ZM4005.61 416.5L3342 416.5L3342 423.5L4005.61 423.5L4005.61 416.5Z" fill="#5384ED"/>
<circle opacity="0.3" cx="4264" cy="420" r="43" transform="rotate(-180 4264 420)" fill="#5384ED"/>
<defs>
<filter id="filter0_d_3191_23995" x="218" y="115" width="1520" height="88" filterUnits="userSpaceOnUse" color-interpolation-filters="sRGB">
<feFlood flood-opacity="0" result="BackgroundImageFix"/>
<feColorMatrix in="SourceAlpha" type="matrix" values="0 0 0 0 0 0 0 0 0 0 0 0 0 0 0 0 0 0 127 0" result="hardAlpha"/>
<feOffset dy="4"/>
<feGaussianBlur stdDeviation="2"/>
<feComposite in2="hardAlpha" operator="out"/>
<feColorMatrix type="matrix" values="0 0 0 0 0 0 0 0 0 0 0 0 0 0 0 0 0 0 0.1 0"/>
<feBlend mode="normal" in2="BackgroundImageFix" result="effect1_dropShadow_3191_23995"/>
<feBlend mode="normal" in="SourceGraphic" in2="effect1_dropShadow_3191_23995" result="shape"/>
</filter>
<filter id="filter1_d_3191_23995" x="1898" y="115" width="1448" height="88" filterUnits="userSpaceOnUse" color-interpolation-filters="sRGB">
<feFlood flood-opacity="0" result="BackgroundImageFix"/>
<feColorMatrix in="SourceAlpha" type="matrix" values="0 0 0 0 0 0 0 0 0 0 0 0 0 0 0 0 0 0 127 0" result="hardAlpha"/>
<feOffset dy="4"/>
<feGaussianBlur stdDeviation="2"/>
<feComposite in2="hardAlpha" operator="out"/>
<feColorMatrix type="matrix" values="0 0 0 0 0 0 0 0 0 0 0 0 0 0 0 0 0 0 0.1 0"/>
<feBlend mode="normal" in2="BackgroundImageFix" result="effect1_dropShadow_3191_23995"/>
<feBlend mode="normal" in="SourceGraphic" in2="effect1_dropShadow_3191_23995" result="shape"/>
</filter>
<filter id="filter2_d_3191_23995" x="2554" y="559" width="38" height="38" filterUnits="userSpaceOnUse" color-interpolation-filters="sRGB">
<feFlood flood-opacity="0" result="BackgroundImageFix"/>
<feColorMatrix in="SourceAlpha" type="matrix" values="0 0 0 0 0 0 0 0 0 0 0 0 0 0 0 0 0 0 127 0" result="hardAlpha"/>
<feOffset dy="1"/>
<feGaussianBlur stdDeviation="0.5"/>
<feColorMatrix type="matrix" values="0 0 0 0 0 0 0 0 0 0.0556863 0 0 0 0 0.2 0 0 0 0.05 0"/>
<feBlend mode="normal" in2="BackgroundImageFix" result="effect1_dropShadow_3191_23995"/>
<feBlend mode="normal" in="SourceGraphic" in2="effect1_dropShadow_3191_23995" result="shape"/>
</filter>
<filter id="filter3_d_3191_23995" x="2615.5" y="559" width="90" height="38" filterUnits="userSpaceOnUse" color-interpolation-filters="sRGB">
<feFlood flood-opacity="0" result="BackgroundImageFix"/>
<feColorMatrix in="SourceAlpha" type="matrix" values="0 0 0 0 0 0 0 0 0 0 0 0 0 0 0 0 0 0 127 0" result="hardAlpha"/>
<feOffset dy="1"/>
<feGaussianBlur stdDeviation="0.5"/>
<feColorMatrix type="matrix" values="0 0 0 0 0 0 0 0 0 0.0556863 0 0 0 0 0.2 0 0 0 0.05 0"/>
<feBlend mode="normal" in2="BackgroundImageFix" result="effect1_dropShadow_3191_23995"/>
<feBlend mode="normal" in="SourceGraphic" in2="effect1_dropShadow_3191_23995" result="shape"/>
</filter>
<filter id="filter4_d_3191_23995" x="2713.5" y="559" width="94" height="38" filterUnits="userSpaceOnUse" color-interpolation-filters="sRGB">
<feFlood flood-opacity="0" result="BackgroundImageFix"/>
<feColorMatrix in="SourceAlpha" type="matrix" values="0 0 0 0 0 0 0 0 0 0 0 0 0 0 0 0 0 0 127 0" result="hardAlpha"/>
<feOffset dy="1"/>
<feGaussianBlur stdDeviation="0.5"/>
<feColorMatrix type="matrix" values="0 0 0 0 0 0 0 0 0 0.0556863 0 0 0 0 0.2 0 0 0 0.05 0"/>
<feBlend mode="normal" in2="BackgroundImageFix" result="effect1_dropShadow_3191_23995"/>
<feBlend mode="normal" in="SourceGraphic" in2="effect1_dropShadow_3191_23995" result="shape"/>
</filter>
<filter id="filter5_d_3191_23995" x="2831" y="559" width="38" height="38" filterUnits="userSpaceOnUse" color-interpolation-filters="sRGB">
<feFlood flood-opacity="0" result="BackgroundImageFix"/>
<feColorMatrix in="SourceAlpha" type="matrix" values="0 0 0 0 0 0 0 0 0 0 0 0 0 0 0 0 0 0 127 0" result="hardAlpha"/>
<feOffset dy="1"/>
<feGaussianBlur stdDeviation="0.5"/>
<feColorMatrix type="matrix" values="0 0 0 0 0 0 0 0 0 0.0556863 0 0 0 0 0.2 0 0 0 0.05 0"/>
<feBlend mode="normal" in2="BackgroundImageFix" result="effect1_dropShadow_3191_23995"/>
<feBlend mode="normal" in="SourceGraphic" in2="effect1_dropShadow_3191_23995" result="shape"/>
</filter>
<filter id="filter6_d_3191_23995" x="3506" y="115" width="1448" height="88" filterUnits="userSpaceOnUse" color-interpolation-filters="sRGB">
<feFlood flood-opacity="0" result="BackgroundImageFix"/>
<feColorMatrix in="SourceAlpha" type="matrix" values="0 0 0 0 0 0 0 0 0 0 0 0 0 0 0 0 0 0 127 0" result="hardAlpha"/>
<feOffset dy="4"/>
<feGaussianBlur stdDeviation="2"/>
<feComposite in2="hardAlpha" operator="out"/>
<feColorMatrix type="matrix" values="0 0 0 0 0 0 0 0 0 0 0 0 0 0 0 0 0 0 0.1 0"/>
<feBlend mode="normal" in2="BackgroundImageFix" result="effect1_dropShadow_3191_23995"/>
<feBlend mode="normal" in="SourceGraphic" in2="effect1_dropShadow_3191_23995" result="shape"/>
</filter>
<filter id="filter7_d_3191_23995" x="5114" y="115" width="1448" height="88" filterUnits="userSpaceOnUse" color-interpolation-filters="sRGB">
<feFlood flood-opacity="0" result="BackgroundImageFix"/>
<feColorMatrix in="SourceAlpha" type="matrix" values="0 0 0 0 0 0 0 0 0 0 0 0 0 0 0 0 0 0 127 0" result="hardAlpha"/>
<feOffset dy="4"/>
<feGaussianBlur stdDeviation="2"/>
<feComposite in2="hardAlpha" operator="out"/>
<feColorMatrix type="matrix" values="0 0 0 0 0 0 0 0 0 0 0 0 0 0 0 0 0 0 0.1 0"/>
<feBlend mode="normal" in2="BackgroundImageFix" result="effect1_dropShadow_3191_23995"/>
<feBlend mode="normal" in="SourceGraphic" in2="effect1_dropShadow_3191_23995" result="shape"/>
</filter>
<clipPath id="clip0_3191_23995">
<rect width="1512" height="982" fill="white" transform="translate(222 115)"/>
</clipPath>
<clipPath id="clip1_3191_23995">
<rect width="1440" height="1024" fill="white" transform="translate(1902 115)"/>
</clipPath>
<clipPath id="clip2_3191_23995">
<rect width="45.7143" height="48" fill="white" transform="translate(3225.81 131)"/>
</clipPath>
<clipPath id="clip3_3191_23995">
<rect width="1440" height="1024" fill="white" transform="translate(3510 115)"/>
</clipPath>
<clipPath id="clip4_3191_23995">
<rect width="45.7143" height="48" fill="white" transform="translate(4833.81 131)"/>
</clipPath>
<clipPath id="clip5_3191_23995">
<rect width="1440" height="1024" fill="white" transform="translate(5118 115)"/>
</clipPath>
<clipPath id="clip6_3191_23995">
<rect width="45.7143" height="48" fill="white" transform="translate(6441.81 131)"/>
</clipPath>
</defs>
</svg>
