<svg width="974" height="226" viewBox="0 0 974 226" fill="none" xmlns="http://www.w3.org/2000/svg">
<path d="M612.073 224.771H368.054C359.423 218.584 341.849 204.206 331.829 179.842C328.01 170.558 316.75 143.18 329.281 116.288C338.962 95.5102 357.901 85.64 373.873 77.3164C394.362 66.6376 409.728 64.2195 423.289 62.5712C423.841 62.6882 424.414 62.7498 424.999 62.7498H425.191C426.49 62.7498 427.719 62.4472 428.801 61.9139C442.35 60.2827 454.466 58.3706 468.791 47.9366C495.029 28.8249 488.949 10.0685 511.472 2.36918C516.277 0.727217 521.18 0 526.137 0C546.396 0 567.61 12.1186 587.279 23.3536C606.141 34.1284 628.943 47.1534 643.338 74.3186C658.259 102.477 655.26 129.056 653.53 142.669C648.148 185.025 623.286 213.437 612.073 224.771ZM519.024 217.507C512.45 217.507 507.122 218.387 507.122 219.474C507.122 220.56 512.45 221.44 519.024 221.44C525.597 221.44 530.926 219.749 530.926 218.662C530.926 217.577 525.597 217.507 519.024 217.507ZM539.944 217.344C536.712 217.344 534.093 217.809 534.093 218.386C534.093 218.962 536.712 219.429 539.944 219.429C543.173 219.429 545.794 218.532 545.794 217.956C545.794 217.38 543.173 217.344 539.944 217.344ZM532.194 56.5062C533.495 57.4012 534.943 57.8761 535.852 58.1755C536.79 58.4831 537.921 58.8442 539.353 58.8442C539.597 58.8442 539.848 58.8347 540.109 58.8118C541.577 58.6834 542.64 58.2212 543.602 57.7947C545.056 57.1488 546.757 56.3937 547.921 54.9373C549.115 53.4416 549.276 51.7767 549.268 49.0611C549.443 49.0007 549.631 48.9257 549.839 48.8087C550.663 48.3447 551.097 47.6677 551.288 47.3098C551.639 46.6493 551.711 46.034 551.725 45.699C551.776 44.5433 551.281 43.7138 551.037 43.3196C550.643 42.6802 550.083 41.7718 549.252 41.7718C549.245 41.7718 549.239 41.7718 549.231 41.7718C549.076 41.7737 548.936 41.8124 548.804 41.8646C548.622 41.1342 548.368 40.4292 547.984 39.6937C546.339 36.5274 543.631 34.942 542.46 34.3578C540.562 33.4126 538.645 33.0769 536.879 33.0769C532.882 33.0769 529.657 34.7958 529.183 35.0558L528.168 36.4537C528.222 37.7295 528.331 40.1851 528.502 42.8887C528.497 42.8899 528.494 42.8918 528.489 42.8931C528.009 43.0527 528.661 44.4391 527.791 47.2399C527.27 48.9162 526.751 49.3325 526.469 51.0775C526.32 52.0094 526.17 53.0087 526.596 54.158C526.753 54.5839 527.167 55.6563 528.293 56.3593C528.925 56.7535 529.678 56.9683 530.429 56.9683C530.926 56.9683 531.421 56.8736 531.879 56.6734C531.879 56.6734 532.007 56.6168 532.194 56.5062ZM577.695 26.0425C573.996 26.0425 570.642 27.544 568.219 29.9672C565.795 32.3904 564.293 35.7462 564.295 39.4433C564.293 43.1423 565.795 46.498 568.219 48.9193C570.642 51.3438 573.997 52.8459 577.696 52.8447C577.696 52.8447 577.696 52.8447 577.698 52.8447C581.395 52.8447 584.749 51.3438 587.172 48.9193C589.595 46.498 591.097 43.1423 591.097 39.4433C591.097 35.7462 589.595 32.3904 587.172 29.9672C584.749 27.5427 581.394 26.0425 577.696 26.0425C577.695 26.0425 577.695 26.0425 577.695 26.0425ZM577.696 51.2593C574.43 51.2593 571.482 49.9383 569.34 47.7999C567.2 45.6583 565.88 42.7094 565.879 39.4433C565.88 36.1791 567.2 33.2282 569.34 31.0885C571.482 28.9488 574.43 27.6273 577.696 27.6273C580.961 27.6273 583.911 28.9488 586.051 31.0885C588.191 33.2282 589.512 36.1791 589.512 39.4433C589.512 42.7094 588.191 45.6583 586.051 47.7999C583.911 49.9383 580.961 51.2593 577.696 51.2593ZM578.407 40.9956V41.2562H579.424V40.9956H579.924V39.9785H579.424V30.9404H578.407V39.9785H570.474V40.9956H578.407Z" fill="#FFF1DD"/>
<path d="M633.071 224.365C630.256 224.365 627.44 224.365 624.625 224.365C617.033 224.365 609.44 224.365 601.847 224.365C590.591 224.365 579.335 224.365 568.079 224.365C554.345 224.365 540.61 224.365 526.878 224.365C511.888 224.365 496.898 224.365 481.909 224.365C466.676 224.365 451.442 224.365 436.209 224.365C422.101 224.365 407.993 224.365 393.887 224.365C381.923 224.365 369.959 224.365 357.995 224.365C349.393 224.365 340.791 224.365 332.19 224.365C328.125 224.365 324.057 224.318 319.993 224.365C319.815 224.367 319.637 224.365 319.459 224.365C318.936 224.365 318.935 225.178 319.459 225.178C322.275 225.178 325.089 225.178 327.905 225.178C335.497 225.178 343.09 225.178 350.683 225.178C361.939 225.178 373.195 225.178 384.452 225.178C398.186 225.178 411.919 225.178 425.652 225.178C440.641 225.178 455.631 225.178 470.622 225.178C485.855 225.178 501.089 225.178 516.322 225.178C530.429 225.178 544.536 225.178 558.643 225.178C570.607 225.178 582.571 225.178 594.536 225.178C603.138 225.178 611.738 225.178 620.34 225.178C624.405 225.178 628.474 225.225 632.537 225.178C632.714 225.175 632.894 225.178 633.071 225.178C633.595 225.178 633.595 224.365 633.071 224.365Z" fill="#182F33"/>
<path d="M347.059 90.2453C346.924 90.2453 346.806 90.2078 346.702 90.1277C344.177 88.1914 352.07 63.4768 367.833 61.6575C368.475 61.5844 369.119 61.5488 369.764 61.5488C377.797 61.5488 385.726 66.9871 385.314 70.0739C384.935 72.9059 377.757 72.1297 366.728 77.0276C353.948 82.7023 348.944 90.2466 347.059 90.2453Z" fill="#F7F8F9"/>
<path d="M577.698 52.8451C577.696 52.8451 577.696 52.8451 577.696 52.8451C573.997 52.8464 570.642 51.3443 568.219 48.9198C565.796 46.4985 564.294 43.1427 564.295 39.4437C564.294 35.7466 565.796 32.3909 568.219 29.9677C570.642 27.5444 573.996 26.043 577.695 26.043C577.695 26.043 577.695 26.043 577.696 26.043C581.394 26.043 584.749 27.5432 587.172 29.9677C589.595 32.3909 591.098 35.7466 591.098 39.4437C591.098 43.1427 589.595 46.4985 587.172 48.9198C584.749 51.3443 581.395 52.8451 577.698 52.8451ZM577.696 27.6277C574.43 27.6277 571.482 28.9493 569.34 31.089C567.2 33.2287 565.88 36.1795 565.879 39.4437C565.88 42.7098 567.2 45.6588 569.34 47.8004C571.482 49.9388 574.43 51.2597 577.696 51.2597C580.961 51.2597 583.911 49.9388 586.051 47.8004C588.191 45.6588 589.512 42.7098 589.512 39.4437C589.512 36.1795 588.191 33.2287 586.051 31.089C583.911 28.9493 580.961 27.6277 577.696 27.6277Z" fill="#A5A6A6"/>
<path d="M579.924 40.9956H579.424V39.9785H579.924V40.9956ZM578.407 40.9956H570.474V39.9785H578.407V40.9956Z" fill="#A5A6A6"/>
<path d="M579.424 41.2553H578.407V40.9946H579.424V41.2553ZM579.424 39.9775H578.407V30.9395H579.424V39.9775Z" fill="#A5A6A6"/>
<path d="M578.407 40.9962H579.424V39.9785H578.407V40.9962Z" fill="#959595"/>
<path d="M563.162 217.177H556.399V146.262H563.162V217.177Z" fill="#868686"/>
<path d="M573.069 84.5332C575.207 90.1818 589.064 128.022 572.314 143.9C570.515 145.605 568.29 146.919 568.29 146.919C560.69 151.734 553.086 152.06 548.417 152.201C540.464 152.442 535.26 152.602 530.557 148.93C530.557 148.93 525.437 144.96 524.017 138.113C521.522 126.079 540.448 108.69 569.548 94.3443L573.069 84.5332Z" fill="#F4BF25"/>
<path d="M541.605 224.371H581.978C581.978 224.371 564.688 214.173 559.345 214.887C554.002 215.602 541.605 224.371 541.605 224.371Z" fill="#828483"/>
<path d="M541.995 143.724C542.894 145.023 544.568 145.246 546.226 145.467C555.099 146.65 564.809 138.236 568.381 128.79C570.436 123.353 571.209 115.593 568.381 114.103C567.574 113.679 565.836 113.428 559.917 118.086C550.555 125.453 538.64 138.878 541.995 143.724Z" fill="#F3A722"/>
<path d="M519.024 221.439C512.45 221.439 507.122 220.559 507.122 219.473C507.122 218.386 512.45 217.506 519.024 217.506C525.597 217.506 530.927 217.576 530.927 218.662C530.927 219.749 525.597 221.439 519.024 221.439Z" fill="#E6E6E5"/>
<path d="M539.943 219.429C536.712 219.429 534.093 218.962 534.093 218.386C534.093 217.809 536.712 217.344 539.943 217.344C543.173 217.344 545.794 217.38 545.794 217.956C545.794 218.532 543.173 219.429 539.943 219.429Z" fill="#E6E6E5"/>
<path d="M550.681 59.546C550.681 59.546 549.257 56.6816 549.675 52.4537C550.095 48.2258 538.691 57.7006 538.691 57.7006V64.1578L541.937 66.0013L550.681 61.0544V59.546Z" fill="#F9BE8D"/>
<path d="M547.915 56.6101C547.509 56.3024 547.767 55.4564 548.229 53.466C549.058 49.9037 548.85 49.9641 549.269 49.0608C549.617 48.3107 550.833 45.6771 552.317 45.7928C553.401 45.8773 554.191 47.394 554.455 48.434C555.218 51.4497 552.484 54.1799 551.939 54.7241C551.072 55.5892 550.295 55.9573 549.757 56.2065C548.971 56.5694 548.279 56.8866 547.915 56.6101Z" fill="#26201C"/>
<path d="M528.488 42.8926C528.009 43.0522 528.661 44.4386 527.79 47.2394C527.27 48.9157 526.751 49.332 526.469 51.077C526.32 52.0089 526.169 53.0082 526.596 54.1575C526.752 54.5834 527.167 55.6558 528.293 56.3588C529.343 57.013 530.732 57.1757 531.879 56.6729C531.879 56.6729 532.629 56.3429 533.136 55.7295C535.442 52.9383 529.821 42.4483 528.488 42.8926Z" fill="#3A322B"/>
<path d="M551.037 43.319C550.64 42.6744 550.074 41.7552 549.231 41.7711C549.077 41.773 548.936 41.8118 548.805 41.8639C548.622 41.1335 548.368 40.4285 547.984 39.693C546.339 36.5267 543.631 34.9413 542.46 34.3571C536.271 31.2735 529.867 34.6775 529.184 35.0551L528.168 36.453C528.289 39.3339 528.695 48.2219 529.438 52.3945C529.488 52.6793 529.589 53.2133 529.884 53.856C531.15 56.6288 534.292 57.6624 535.853 58.1748C536.948 58.5346 538.31 58.9675 540.11 58.8111C541.577 58.6827 542.64 58.2205 543.602 57.794C545.057 57.1482 546.758 56.393 547.921 54.9366C549.115 53.4409 549.276 51.776 549.269 49.0604C549.443 49 549.632 48.925 549.839 48.808C550.663 48.344 551.097 47.667 551.288 47.3091C551.64 46.6486 551.711 46.0333 551.725 45.6983C551.776 44.5426 551.281 43.7131 551.037 43.319Z" fill="#F9BE8D"/>
<path d="M543.325 45.4169C543.325 46.1836 542.705 46.8053 541.937 46.8053C541.171 46.8053 540.549 46.1836 540.549 45.4169C540.549 44.649 541.171 44.0273 541.937 44.0273C542.705 44.0273 543.325 44.649 543.325 45.4169Z" fill="#1B1B1B"/>
<path d="M544.35 42.3302C543.68 41.7771 542.847 41.4612 541.971 41.4923C541.335 41.5133 540.705 41.7002 540.15 42.0111C539.857 42.1757 540.121 42.6283 540.415 42.4618C541.545 41.8293 542.96 41.8598 543.981 42.6995C544.238 42.9131 544.611 42.545 544.35 42.3302Z" fill="#1B1B1B"/>
<path d="M533.61 44.7803C533.61 45.5469 532.988 46.1686 532.222 46.1686C531.456 46.1686 530.834 45.5469 530.834 44.7803C530.834 44.0143 531.456 43.3926 532.222 43.3926C532.988 43.3926 533.61 44.0143 533.61 44.7803Z" fill="#1B1B1B"/>
<path d="M534.634 41.9499C533.963 41.3982 533.13 41.0803 532.255 41.1115C531.619 41.1344 530.99 41.32 530.435 41.6308C530.142 41.7948 530.404 42.2474 530.699 42.0828C531.828 41.4484 533.244 41.4795 534.264 42.3205C534.523 42.5322 534.894 42.1642 534.634 41.9499Z" fill="#1B1B1B"/>
<path d="M536.93 49.291C536.829 49.291 536.727 49.291 536.625 49.291C536.489 49.291 536.32 49.319 536.186 49.291H536.14L536.065 49.1855C535.948 49.0501 535.94 48.935 535.952 48.7653C535.966 48.5168 536.017 48.2727 536.08 48.0317C536.198 47.5988 536.369 47.1837 536.536 46.7686C536.591 46.632 536.652 46.4953 536.69 46.3536C536.709 46.2887 536.735 46.1991 536.694 46.1374C536.646 46.0675 536.533 46.1323 536.58 46.2042C536.604 46.2398 536.557 46.3427 536.546 46.3796C536.507 46.5004 536.458 46.6174 536.411 46.7331C536.276 47.0649 536.14 47.3954 536.032 47.7355C535.917 48.0953 535.826 48.471 535.817 48.8518C535.81 49.0685 535.884 49.1836 536.03 49.34C536.108 49.4245 536.131 49.4232 536.235 49.4232C536.468 49.4232 536.699 49.4232 536.93 49.4232C537.014 49.4232 537.014 49.291 536.93 49.291Z" fill="#1B1B1B"/>
<path d="M544.882 51.7018C543.589 51.7018 542.539 50.6516 542.539 49.3567C542.539 48.0612 543.589 47.0117 544.882 47.0117C546.178 47.0117 547.227 48.0612 547.227 49.3567C547.227 50.6516 546.178 51.7018 544.882 51.7018Z" fill="#F7A681"/>
<path d="M536.695 52.6141C536.922 55.9272 542.474 55.0748 541.397 51.7031Z" fill="#BE1E2D"/>
<path d="M536.561 52.6239C536.611 53.3772 536.933 53.9417 537.392 54.3078C537.851 54.674 538.44 54.843 539.031 54.843C539.679 54.843 540.331 54.6396 540.83 54.2493C541.328 53.8603 541.67 53.2729 541.67 52.5355C541.67 52.2641 541.623 51.971 541.525 51.6621L541.268 51.7435C541.359 52.0295 541.4 52.2933 541.4 52.5355C541.399 53.1884 541.107 53.688 540.664 54.0376C540.22 54.386 539.621 54.5748 539.031 54.5729C538.49 54.5729 537.962 54.4171 537.559 54.0961C537.159 53.7757 536.878 53.2926 536.829 52.6055L536.561 52.6239Z" fill="#BE1E2D"/>
<path d="M541.327 53.3661C541.441 53.9535 540.642 54.6031 539.542 54.8161C538.443 55.0291 537.46 54.7252 537.346 54.1391C537.232 53.5517 538.032 52.9021 539.13 52.6891C540.23 52.4762 541.213 52.78 541.327 53.3661Z" fill="#F27064"/>
<path d="M529.426 52.3252C529.418 52.322 529.41 52.3188 529.402 52.3169C529.208 51.1848 529.037 49.7265 528.889 48.1443C528.894 48.1411 528.899 48.1379 528.904 48.1348C529.053 49.7278 529.227 51.1924 529.426 52.3252Z" fill="#72453C"/>
<path d="M530.163 52.4537C529.904 52.4537 529.659 52.4035 529.426 52.3253C529.227 51.1925 529.053 49.7279 528.904 48.1349C529.268 47.9022 529.7 47.7637 530.163 47.7637C531.459 47.7637 532.508 48.8138 532.508 50.1087C532.508 51.4042 531.459 52.4537 530.163 52.4537Z" fill="#F7A681"/>
<path d="M528.637 45.4182C527.587 42.7604 526.606 40.6894 525.883 39.254C525.033 37.5663 524.42 36.5212 524.782 35.2295C525.114 34.0383 526.095 33.278 526.985 32.5883C527.861 31.9094 529.084 30.9609 530.84 30.8275C532.837 30.6743 535.446 31.5795 535.524 32.8407C535.581 33.7681 534.258 34.7738 532.494 35.3548L528.5 39.3805L528.637 45.4182Z" fill="#3A322B"/>
<path d="M530.684 28.6882C530.236 29.3049 529.436 30.6099 529.426 32.3351C529.413 34.6217 530.796 36.2032 531.815 37.3672C532.595 38.2571 534.323 40.2328 537.097 40.8882C540.59 41.7152 542.17 39.6124 546.154 40.763C546.831 40.9581 547.708 41.2207 548.67 41.8939C551.968 44.2084 552.17 48.5075 552.191 49.1895C552.219 50.1138 552.297 52.6381 550.681 54.5985C549.452 56.0911 547.864 56.5011 547.914 56.6105C547.989 56.7681 551.399 56.1496 554.204 53.4664C554.743 52.949 556.839 50.8461 557.598 47.4287C558.345 44.0761 557.366 41.4336 556.09 37.9952C555.084 35.2853 553.981 32.3078 551.059 29.5687C548.606 27.2694 546.134 26.3191 544.393 25.6694C541.524 24.6002 537.286 23.0205 533.828 25.0414C532.645 25.733 531.886 26.6509 531.438 27.305" fill="#3A322B"/>
<path d="M538.691 58.8195C539.325 58.7254 540.093 58.5563 540.935 58.2467C541.568 58.0141 542.115 57.7471 542.569 57.4922L538.691 59.7247V58.8195Z" fill="#D99873"/>
<path d="M550.696 46.8979C550.754 46.6957 550.926 46.0111 550.609 45.2413C550.254 44.3837 549.542 44.0208 549.368 43.9375" fill="#D99873"/>
<path d="M538.733 60.3828L538.041 61.0535L536.93 63.6521L538.691 64.1568L541.124 63.1493L538.733 60.3828Z" fill="#F9BE8D"/>
<path d="M532.291 31.6527C532.746 33.5064 533.671 35.8724 535.762 37.0312C536.565 37.4768 537.303 37.6084 538.078 37.6084C539.213 37.6084 540.429 37.3256 542.069 37.3256C542.813 37.3256 543.643 37.3828 544.592 37.5519C546.033 37.8087 549.587 38.4418 552.019 41.35C552.613 42.0614 554.195 43.957 554.195 46.4533C554.195 46.8112 554.162 47.1805 554.091 47.5613C553.614 50.0658 551.698 51.4961 551.158 51.8724L551.182 51.908C551.726 51.5304 553.653 50.0938 554.133 47.5695C554.206 47.1856 554.239 46.8131 554.239 46.4533C554.239 43.9373 552.647 42.0334 552.053 41.3221C549.609 38.3998 546.042 37.7648 544.6 37.508C543.648 37.3383 542.815 37.2798 542.069 37.2798C540.424 37.2817 539.207 37.5646 538.078 37.5646C537.308 37.5646 536.58 37.433 535.783 36.9918C533.71 35.8444 532.787 33.4918 532.333 31.6426L532.291 31.6527Z" fill="white"/>
<path d="M554.995 39.94C552.671 35.8132 550.101 34.1337 548.237 33.3563C546.567 32.6577 545.015 32.4987 543.576 32.2235C542.138 31.9501 540.813 31.5643 539.594 30.4188C538.17 29.0826 537.605 27.3853 537.351 26.2773L537.308 26.2869C537.563 27.3987 538.131 29.1055 539.563 30.4512C540.792 31.605 542.126 31.994 543.568 32.2674C545.008 32.5426 546.557 32.7022 548.22 33.397C550.077 34.1712 552.637 35.8424 554.957 39.9616L554.995 39.94Z" fill="white"/>
<path d="M529.529 33.4355C529.322 33.5201 527.975 34.0928 527.448 35.6191C527.304 36.031 527.252 36.4232 527.252 36.7792C527.252 37.619 527.544 38.2457 527.62 38.4034L527.661 38.3843C527.584 38.2292 527.296 37.6094 527.296 36.7792C527.296 36.4277 527.348 36.0406 527.488 35.6337C528.009 34.1272 529.343 33.5589 529.545 33.4762L529.529 33.4355Z" fill="white"/>
<path d="M528.395 47.9844C528.232 48.2158 527.187 49.7547 527.187 51.7126C527.187 52.2657 527.272 52.8537 527.483 53.4538C527.898 54.6285 528.64 55.3939 529.112 55.7988L529.142 55.7664C528.673 55.3627 527.936 54.6043 527.526 53.4391C527.315 52.8435 527.231 52.2612 527.231 51.7126C527.231 49.7713 528.271 48.238 528.43 48.0104L528.395 47.9844Z" fill="white"/>
<path d="M550.446 194.666C550.508 194.609 550.57 194.531 550.625 194.432C550.586 194.521 550.539 194.625 550.486 194.741C548.702 198.659 539.854 217.794 538.244 215.504C537.733 214.777 537.534 214.059 537.551 213.209C537.593 211.087 539.005 208.146 540.329 202.186C544.331 195.675 523.911 156.197 511.226 132.966L512.035 133.358L511.59 131.505L523.376 122.842C525.62 129.808 528.373 138.71 530.427 146.503C534.55 162.139 546.152 188.766 546.152 188.766C546.998 190.235 547.745 191.693 548.394 192.808C549.249 194.269 549.932 195.138 550.446 194.666Z" fill="#F9BE8D"/>
<path d="M550.798 194.049C550.746 194.196 550.691 194.319 550.63 194.42C550.73 194.202 550.789 194.074 550.798 194.049Z" fill="#F9BE8D"/>
<path d="M538.116 212.167C538.384 211.703 542.923 208.489 542.923 208.489C542.923 208.489 546.432 192.452 548.42 192.807C548.42 192.807 550.028 192.619 551.471 197.146L556.81 204.741L554.973 206.148L552.59 202.758C552.59 202.758 548.566 202.29 547.735 206.056C546.903 209.822 546.776 212.424 546.776 212.424L539.709 217.833C539.709 217.833 533.992 219.288 538.116 212.167Z" fill="#1B1B1B"/>
<path d="M536.073 118.308L531.275 139.596C531.275 139.596 530.896 144.652 530.399 151.831C529.291 167.905 527.591 194.617 528.221 198.971C528.451 200.586 528.546 202.11 528.549 203.477C528.568 207.442 527.876 210.129 527.876 210.129C527.876 210.129 509.243 220.886 509.342 217.843C509.389 216.381 510.193 215.464 511.631 214.235C513.187 212.905 515.482 211.211 518.367 208.072C523.641 203.548 520.122 165.802 517.983 146.844C517.251 140.352 516.679 136.064 516.679 136.064C515.874 132.657 515.449 129.093 515.243 125.859C518.741 123.675 525.192 119.693 526.909 118.909C527.747 118.526 528.183 117.729 528.396 116.854L536.073 118.308Z" fill="#F9BE8D"/>
<path d="M511.239 214.331C511.677 214.087 516.906 213.874 516.906 213.874C516.906 213.874 527.368 202.187 528.824 203.594C528.824 203.594 530.226 204.328 529.259 208.979L530.02 218.405L527.854 218.58L527.514 214.372C527.514 214.372 524.45 211.741 521.986 214.48C519.524 217.22 518.188 219.362 518.188 219.362L509.854 220.033C509.854 220.033 504.497 218.095 511.239 214.331Z" fill="#1B1B1B"/>
<path d="M503.138 79.8349C503.138 79.8349 501.21 74.855 501.042 73.4298C500.875 72.004 501.042 70.0334 501.042 70.0334C501.042 70.0334 500.287 67.0571 498.024 70.6614C498.024 70.6614 494.305 66.5734 492.993 66.0025C491.231 65.2346 491.039 74.4354 491.388 75.1061C491.388 75.1061 491.903 80.0529 493.915 80.7236C495.928 81.3955 504.061 82.1767 504.061 82.1767L503.138 79.8349Z" fill="#F9BE8D"/>
<path d="M566.278 119.499C567.536 127.296 565.272 132.705 558.857 137.862C552.442 143.019 539.739 145.409 539.739 145.409C539.739 145.409 537.223 146.54 533.075 150.565C532.341 151.274 531.421 151.668 530.399 151.832C525.643 152.604 518.734 148.426 518.734 148.426L517.983 146.845L513.903 138.272C513.903 138.272 514.229 134.631 512.279 132.83C510.328 131.03 512.948 127.296 512.948 127.296C512.948 127.296 513.869 126.716 515.243 125.86C518.741 123.676 525.192 119.694 526.909 118.91C527.747 118.527 528.183 117.73 528.396 116.855C528.792 115.227 528.421 113.334 528.421 113.334C528.421 113.334 518.483 71.8294 520.622 67.9314C522.761 64.0309 525.275 64.6284 525.275 64.6284L532.222 63.0252C537.835 70.3712 545.992 68.8118 555.441 62.75L560.242 65.0321L567.159 67.3021L560.617 72.9616L562.126 82.6461L562.883 91.8279C562.883 91.8279 565.021 111.7 566.278 119.499Z" fill="#33324D"/>
<path d="M536.72 60.9219L532.222 63.0241C532.222 63.0241 535.463 77.9905 541.124 81.5122C541.124 81.5122 553.071 69.5646 555.712 62.8988L551.151 60.3828L541.937 64.6272H539.519C538.549 64.5637 537.607 63.825 536.695 62.2689L536.72 60.9219Z" fill="#E6E7E8"/>
<path d="M541.124 64.6615C541.124 64.6615 550.053 60.5099 550.807 59.6295C551.563 58.7491 551.563 61.1824 551.563 61.1824L549.801 64.6615L544.518 70.6274C544.518 70.6274 544.393 65.2896 541.124 64.6615Z" fill="#A6A8AB"/>
<path d="M541.124 64.6606L537.727 63.3975L538.733 60.3838C538.733 60.3838 537.6 59.7004 536.72 60.9228C535.84 62.1446 534.959 63.9054 534.959 63.9054L536.72 69.0627C536.72 69.0627 538.105 64.6606 541.124 64.6606Z" fill="#A6A8AB"/>
<path d="M523.639 65.0312C523.639 65.0312 521.878 66.1685 520.748 68.0564C519.615 69.9425 511.817 95.978 511.817 95.978V107.926H528.294L527.288 72.9607L523.639 65.0312Z" fill="#33324D"/>
<path d="M504.773 81.2051L494.459 84.4064L506.031 107.801H516.219V105.16" fill="#33324D"/>
<path d="M560.995 78.8633C561.086 79.3559 561.162 79.8505 561.247 80.3438L561.476 81.8281C561.629 82.8172 561.764 83.8101 561.899 84.8012C562.03 85.7941 562.16 86.7864 562.274 87.7825L562.441 89.2744C562.49 89.7728 562.546 90.2705 562.588 90.7702C562.497 90.2769 562.42 89.7823 562.335 89.2878L562.106 87.8035C561.955 86.8144 561.818 85.8233 561.683 84.8304C561.553 83.8375 561.422 82.8452 561.311 81.851L561.141 80.3584C561.093 79.8588 561.037 79.3623 560.995 78.8633Z" fill="white"/>
<path d="M556.802 95.6008C557.339 95.5684 557.878 95.5519 558.415 95.5258L560.03 95.4756C561.105 95.4432 562.181 95.4298 563.258 95.4076C564.334 95.4025 565.409 95.3879 566.485 95.3911L568.101 95.4006C568.638 95.412 569.177 95.4152 569.715 95.433C569.177 95.4642 568.64 95.482 568.101 95.5068L566.489 95.5589C565.413 95.5894 564.336 95.6028 563.26 95.6256C562.184 95.6301 561.108 95.6466 560.031 95.6415L558.417 95.6333C557.878 95.6218 557.341 95.6186 556.802 95.6008Z" fill="white"/>
<path d="M524.437 67.3027C524.902 67.5678 525.283 67.9696 525.603 68.3993C525.924 68.8341 526.172 69.3191 526.375 69.8168L526.515 70.1957L526.631 70.5816C526.67 70.71 526.704 70.8403 526.73 70.9725L526.811 71.366C526.86 71.6298 526.886 71.8968 526.92 72.1619C526.931 72.4289 526.948 72.6958 526.952 72.9622C526.899 72.7003 526.861 72.4371 526.814 72.1765C526.754 71.9178 526.707 71.6571 526.645 71.4016C526.57 71.148 526.523 70.8873 526.432 70.6401L526.313 70.2644L526.172 69.8982C525.978 69.41 525.747 68.9383 525.464 68.4972C525.319 68.2791 525.169 68.0611 524.996 67.8621C524.83 67.6574 524.645 67.4686 524.437 67.3027Z" fill="white"/>
<path d="M511.356 94.7637C511.882 95.7057 512.346 96.6758 512.796 97.6522C513.241 98.6318 513.67 99.6177 514.04 100.632C513.514 99.6896 513.049 98.7195 512.598 97.7431C512.154 96.7635 511.725 95.7776 511.356 94.7637Z" fill="white"/>
<path d="M573.95 107.047C568.164 107.047 543.967 106.072 543.967 106.072C543.967 106.072 542.194 105.342 542.224 101.689C542.255 98.0334 543.326 95.8428 543.326 95.8428C543.326 95.8428 544.655 94.1373 547.228 95.5987L562.883 95.8428L562.505 87.1315L561.876 82.3245L560.875 75.8672L560.525 74.0053C560.434 73.5171 560.557 73.013 560.864 72.6221L561.581 71.7048L564.282 68.3166C564.751 67.7286 565.452 67.3727 566.206 67.3415L567.159 67.3027C567.159 67.3027 571.075 68.9479 571.116 73.3239C571.153 73.5565 571.177 73.7943 571.184 74.0416L577.094 101.08C577.094 101.08 579.736 107.047 573.95 107.047Z" fill="#33324D"/>
<path d="M539.196 97.4994L534.079 75.8965C534.079 75.8965 514.374 76.8862 513.2 78.8651L520.915 107.677L541.794 107.34L539.196 97.4994Z" fill="#E6E1E7"/>
<path d="M542.045 97.6971C542.045 97.6971 536.427 97.362 534.96 97.027C533.493 96.6914 529.3 95.3489 529.049 98.1172C528.797 100.884 530.139 102.224 530.139 102.224C530.139 102.224 532.372 104.254 535.531 104.161C535.531 104.161 541.542 104.908 543.555 104.658C545.567 104.405 542.045 97.6971 542.045 97.6971Z" fill="#F9BE8D"/>
<path d="M541.091 96.1152C541.35 96.4947 541.585 96.8869 541.824 97.2792C542.056 97.6746 542.278 98.0744 542.495 98.48C542.926 99.2885 543.317 100.122 543.651 100.979C543.971 101.839 544.264 102.726 544.337 103.656C544.366 104.117 544.34 104.602 544.137 105.034C544.109 105.087 544.075 105.136 544.044 105.186C544.028 105.211 544.013 105.235 543.995 105.259L543.934 105.324C543.893 105.367 543.855 105.412 543.81 105.45C543.764 105.487 543.717 105.521 543.667 105.553C543.466 105.676 543.237 105.736 543.011 105.759C543.234 105.713 543.452 105.634 543.634 105.504C543.68 105.471 543.724 105.435 543.764 105.397C543.803 105.359 543.834 105.313 543.872 105.271L543.924 105.207C543.939 105.184 543.95 105.158 543.965 105.134C543.989 105.085 544.018 105.038 544.041 104.989C544.21 104.577 544.218 104.115 544.169 103.671C544.116 103.225 544.015 102.781 543.887 102.346C543.761 101.912 543.611 101.482 543.447 101.058C543.123 100.206 542.739 99.3782 542.345 98.555C542.149 98.1431 541.942 97.7343 541.73 97.3294C541.525 96.9206 541.307 96.5189 541.091 96.1152Z" fill="white"/>
<path d="M545.309 80.6094L546.087 79.9451C546.343 79.7226 546.596 79.4912 546.85 79.2649C547.357 78.811 547.857 78.347 548.342 77.8702C549.315 76.9186 550.254 75.932 551.131 74.8927C552.021 73.8642 552.853 72.7848 553.633 71.6704C554.021 71.1123 554.404 70.5472 554.762 69.9681C555.134 69.3966 555.473 68.8061 555.82 68.2168C555.517 68.829 555.195 69.4329 554.853 70.0234C554.513 70.6159 554.145 71.1918 553.773 71.7645C553.017 72.9056 552.18 73.9894 551.297 75.0338C550.4 76.0674 549.458 77.0604 548.458 77.991C547.956 78.4563 547.442 78.907 546.92 79.3463C546.654 79.5599 546.392 79.7792 546.122 79.9896L545.309 80.6094Z" fill="white"/>
<path d="M528.333 118.499C529.023 118.343 529.753 118.375 530.445 118.549C530.788 118.642 531.125 118.766 531.441 118.932C531.757 119.095 532.051 119.3 532.311 119.536C532.001 119.37 531.688 119.22 531.369 119.087C531.049 118.956 530.723 118.848 530.39 118.761C529.724 118.587 529.037 118.516 528.333 118.499Z" fill="white"/>
<path d="M530.255 153.967C530.244 154.486 530.221 155.004 530.206 155.522L530.134 157.075C530.085 158.11 530.015 159.145 529.956 160.179C529.88 161.214 529.813 162.247 529.727 163.28L529.595 164.829C529.543 165.345 529.497 165.861 529.439 166.377C529.448 165.858 529.471 165.34 529.488 164.823L529.56 163.269C529.61 162.234 529.678 161.199 529.738 160.165C529.815 159.132 529.881 158.097 529.968 157.064L530.099 155.515C530.152 154.999 530.195 154.483 530.255 153.967Z" fill="#D99873"/>
<path d="M560.875 75.8657L560.702 74.2937L560.157 73.3809" fill="#46406C"/>
<path d="M617.465 224.772H613.166L611.291 110.531H619.341L617.465 224.772Z" fill="#B3B4B6"/>
<path d="M367.659 225.129H371.959L373.834 110.889H365.784L367.659 225.129Z" fill="#B3B4B6"/>
<path d="M626.056 113.209H361.503V107.004H626.056V113.209Z" fill="#5B4E3D"/>
<path d="M371.772 135.361L371.825 141.623L371.855 147.885L371.881 160.408L371.856 172.93L371.825 179.192L371.772 185.454L371.719 179.192L371.688 172.93L371.663 160.408L371.688 147.885L371.719 141.623L371.772 135.361Z" fill="white"/>
<path d="M614.223 193.232L614.17 187.256L614.139 181.282L614.115 169.331L614.139 157.381L614.17 151.407L614.223 145.432L614.276 151.407L614.307 157.381L614.333 169.331L614.307 181.282L614.276 187.256L614.223 193.232Z" fill="white"/>
<path d="M508.123 107.004H522.567C523.043 107.004 523.431 106.618 523.431 106.141V106.022C523.431 105.545 523.043 105.16 522.567 105.16H508.043C507.348 105.16 506.938 105.936 507.328 106.509L507.409 106.628C507.571 106.864 507.838 107.004 508.123 107.004Z" fill="#8C8A8B"/>
<path d="M507.797 107.004L503.384 81.9368C503.384 81.9368 502.448 79.6617 498.868 79.6699C493.81 79.6814 479.325 80.5078 479.325 80.5078L488.843 107.004H507.797Z" fill="#8C8A8B"/>
<path d="M507.667 107.047L502.829 81.6607C502.608 80.5018 501.594 79.6621 500.412 79.6621H465.723C464.168 79.6621 463.003 81.0879 463.314 82.6123L468.274 107.005L507.667 107.047Z" fill="#D9DBDA"/>
<path d="M485.465 92.9013C485.465 94.1135 484.356 95.0982 482.992 95.0982C481.626 95.0982 480.518 94.1135 480.518 92.9013C480.518 91.6872 481.626 90.7031 482.992 90.7031C484.356 90.7031 485.465 91.6872 485.465 92.9013Z" fill="#A8AAA9"/>
<path d="M465.789 131.504C465.789 131.504 472.204 133.836 473.335 136.98C474.467 140.124 474.383 145.506 474.383 145.506L462.645 134.339L465.789 131.504Z" fill="#F9BE8D"/>
<path d="M409.397 58.2865C409.397 58.2865 411.158 60.5031 410.905 62.7483C410.655 64.9942 410.164 67.7607 410.164 67.7607L421.723 69.6893C421.723 69.6893 421.542 68.6837 421.723 65.4125C421.903 62.1432 422.393 60.718 422.393 60.718L419.626 56.6719L409.397 58.2865Z" fill="#F9BE8D"/>
<path d="M433.215 52.2725C433.167 52.2159 433.12 52.1409 433.075 52.0742V43.2783C433.075 39.1661 429.527 35.8008 425.192 35.8008H425C420.665 35.8008 417.117 39.1661 417.117 43.2783V47.9423C416.819 47.8692 416.501 47.8463 416.181 47.9423C415.147 48.255 414.866 49.5467 414.66 50.4958C414.529 51.0927 414.274 52.263 414.892 53.4949C415.109 53.9227 415.688 55.0784 416.883 55.2716C416.966 55.285 417.04 55.2818 417.118 55.285C417.125 59.3921 420.669 62.7491 425 62.7491H425.192C429.527 62.7491 433.075 59.3838 433.075 55.2716V54.0626C433.103 54.0575 433.127 54.0575 433.156 54.0499C433.208 54.0352 433.816 53.8496 433.916 53.4396C434.012 53.0474 433.574 52.72 433.215 52.2725Z" fill="#F9BE8D"/>
<path d="M423.549 55.0011C421.942 55.0011 420.637 53.6961 420.637 52.0884C420.637 50.4789 421.942 49.1738 423.549 49.1738C425.159 49.1738 426.464 50.4789 426.464 52.0884C426.464 53.6961 425.159 55.0011 423.549 55.0011Z" fill="#F7A681"/>
<path d="M431.618 56.6201C430.729 56.8871 429.786 56.7618 428.977 56.3124C428.813 56.2215 428.666 56.4739 428.831 56.5629C429.704 57.0498 430.732 57.1877 431.695 56.8998C431.874 56.8477 431.798 56.5661 431.618 56.6201Z" fill="#1B1B1B"/>
<path d="M431.587 48.2857C431.763 49.0326 431.301 49.7795 430.554 49.9556C429.809 50.133 429.06 49.6708 428.884 48.9239C428.709 48.177 429.171 47.4301 429.916 47.254C430.663 47.0785 431.41 47.5407 431.587 48.2857Z" fill="#1B1B1B"/>
<path d="M431.361 44.9411C429.911 44.4612 428.346 44.985 427.385 46.1483C427.172 46.407 427.54 46.7782 427.755 46.5176C428.067 46.1387 428.451 45.8228 428.889 45.5984C429.617 45.2272 430.451 45.1897 431.223 45.4452C431.542 45.5514 431.68 45.0466 431.361 44.9411Z" fill="#1B1B1B"/>
<path d="M417.196 47.9453C418.393 48.2752 418.393 48.2752 418.621 48.8969C418.801 49.3902 418.571 49.8879 418.621 49.9025C418.735 49.9387 419.105 47.0191 420.884 46.0458C421.567 45.6733 421.999 45.8361 423.233 45.7935C426.094 45.6994 428.277 44.6677 429.268 44.2005C431.409 43.1929 432.77 41.919 433.545 41.1835C434.752 40.0342 436.401 38.4692 437.319 35.8991C437.872 34.3519 438.584 32.3616 437.571 30.534C436.818 29.1756 435.225 28.1063 433.713 28.1858C432.781 28.2347 432.546 28.6874 431.198 29.1914C430.248 29.5462 429.396 29.686 427.089 29.7788C424.652 29.878 422.818 29.836 419.794 29.7788C416.227 29.7121 415.744 29.714 414.847 29.8621C413.394 30.1043 411.715 30.4024 409.984 31.6242C409.311 32.0978 407.51 33.4066 406.714 35.7319C406.488 36.3924 405.689 38.7324 406.294 40.176C406.352 40.3158 406.543 40.7278 406.378 41.099C406.163 41.5821 405.488 41.6832 405.204 41.769C403.689 42.2349 403.291 45.4159 403.192 46.2137C402.587 51.0614 405.361 55.0388 405.959 55.8557C406.378 56.4316 407.731 58.1924 410.068 59.629C412.242 60.9652 413.783 61.1102 414.177 61.1394C415.065 61.203 416.175 61.2844 417.028 60.6347C417.705 60.1204 418.191 59.1656 418.201 56.5276C418.22 51.4879 417.132 48.5619 417.196 47.9453Z" fill="#3A322B"/>
<path d="M418.158 48.1172C417.802 48.0816 417.434 48.0714 417.062 48.1445C415.502 48.4554 415.08 49.7414 414.767 50.6853C414.572 51.2791 414.188 52.4424 415.12 53.6679C415.444 54.0945 416.319 55.2432 418.121 55.4351L418.158 55.437V48.1172Z" fill="#F9BE8D"/>
<path d="M417.716 48.8086C417.509 48.8442 416.818 48.9879 416.264 49.6108C415.648 50.3043 415.633 51.1047 415.635 51.2966" fill="#D99873"/>
<path d="M418.158 48.249C418.158 48.249 417.363 48.0036 417.018 48.1549C416.674 48.3062 417.187 47.8555 417.187 47.8555L418.22 47.982L418.158 48.249Z" fill="#182F33"/>
<path d="M417.875 55.195L418.442 55.6978V54.3457L417.875 55.195Z" fill="#F9BE8D"/>
<path d="M421.752 62.0799C421.752 62.0799 421.305 62.2261 420.128 61.1391C418.951 60.0521 421.892 63.3977 421.892 63.3977L422.061 62.2052L421.752 62.0799Z" fill="#D99873"/>
<path d="M434.982 29.3848C434.303 30.3122 433.199 31.562 431.529 32.4926C429.96 33.3667 428.424 33.6648 426.919 33.6648C423.701 33.6661 420.631 32.3025 417.724 32.3025C416.53 32.3025 415.363 32.5333 414.227 33.1842C410.561 35.2902 409.752 40.3172 409.026 44.7924C408.788 46.2621 408.534 47.8322 408.534 49.3991C408.534 51.3488 408.928 53.2901 410.242 55.0166C412.029 57.3648 414.655 58.1823 415.963 58.4849L415.973 58.4423C414.67 58.1397 412.053 57.3261 410.277 54.9906C408.97 53.2742 408.578 51.3424 408.578 49.3991C408.578 47.8373 408.832 46.2684 409.07 44.7987C409.794 40.3235 410.608 35.3099 414.25 33.2236C415.377 32.5759 416.536 32.3464 417.724 32.3464C420.617 32.3464 423.69 33.7087 426.919 33.7087C428.428 33.7087 429.974 33.4093 431.55 32.5301C433.228 31.5963 434.336 30.3396 435.018 29.4108L434.982 29.3848Z" fill="white"/>
<path d="M414.087 47.2135C413.947 46.7215 413.605 45.4215 413.605 43.9372C413.605 42.5476 413.904 40.9953 414.947 39.7945C416.539 37.9554 419.143 37.7749 422.372 37.5518C422.946 37.5124 423.462 37.4965 423.932 37.4965C425.947 37.4965 427.1 37.7908 428.283 37.7908C428.868 37.7908 429.459 37.7196 430.16 37.5047C431.794 37.0032 433.895 35.7681 435.884 32.5248L435.846 32.502C433.862 35.7369 431.771 36.9625 430.147 37.4622C429.45 37.6751 428.864 37.7469 428.283 37.7469C427.109 37.7469 425.95 37.4526 423.932 37.4526C423.462 37.4526 422.944 37.4685 422.368 37.5079C419.141 37.7304 416.523 37.9078 414.914 39.7646C413.862 40.9787 413.561 42.5412 413.561 43.9372C413.561 45.4279 413.904 46.7316 414.044 47.2243L414.087 47.2135Z" fill="white"/>
<path d="M452.596 218.21L441.444 218.183L441.48 203.74L452.634 203.769L452.596 218.21Z" fill="#F9BE8D"/>
<path d="M440.18 217.178L453.559 217.212C457.999 219.232 462.744 220.597 467.885 221.118C467.885 221.118 471.182 222.844 467.876 224.485C464.57 226.124 440.767 225.634 440.767 225.634C439.231 223.46 439.046 220.636 440.18 217.178Z" fill="#182F33"/>
<path d="M487.641 216.723L477.05 219.329L473.675 205.615L484.266 203.01L487.641 216.723Z" fill="#F9BE8D"/>
<path d="M476.184 215.803L489.267 215.995C493.584 218.021 498.207 219.412 503.227 219.982C503.227 219.982 506.43 221.711 503.178 223.276C499.927 224.84 476.658 224.078 476.658 224.078C475.182 221.934 475.034 219.171 476.184 215.803Z" fill="#182F33"/>
<path d="M433.929 132.83L465.493 135.363C465.493 135.363 473.542 137.862 474.884 148.426C476.225 158.991 485.951 209.302 485.951 209.302C485.951 209.302 480.249 212.991 474.212 212.321C474.212 212.321 458.448 173.749 455.766 163.353C453.082 152.954 439.667 162.682 439.667 162.682L408.632 153.315L425.454 135.363L433.929 132.83Z" fill="#345F8A"/>
<path d="M466.667 131.992C466.667 131.992 466.331 135.177 463.816 135.344C461.301 135.513 449.226 134.337 449.226 134.337C449.226 134.337 441.187 127.007 436.736 122.316L437.151 129.569C437.151 129.569 436.479 133.499 431.953 139.649C427.425 145.798 422.226 149.899 422.226 149.899L419.61 151.068C411.992 154.474 403.197 153.981 396.007 149.748L393.164 148.073C384.818 143.161 379.929 133.984 380.505 124.317L382.65 88.3956L390.027 74.5581C390.027 74.5581 391.369 71.1426 394.724 70.8006C398.076 70.4574 403.108 69.6895 403.108 69.6895L426.084 71.997L433.857 73.0121L433.929 72.96C433.929 72.96 436.479 74.4691 438.828 82.6872C441.176 90.9033 450.231 117.065 450.231 117.065C450.231 117.065 449.729 118.072 457.443 124.277C465.158 130.48 466.667 131.992 466.667 131.992Z" fill="#E5E6EA"/>
<path d="M403.105 69.6916L406.839 67.3027L422.393 68.4972L425.454 71.9565L403.105 69.6916Z" fill="#E5E6EA"/>
<path d="M433.929 118.91C433.693 118.218 433.47 117.523 433.24 116.83L432.573 114.744C432.129 113.352 431.706 111.954 431.272 110.56C430.853 109.161 430.427 107.764 430.018 106.363L429.41 104.259C429.214 103.554 429.011 102.853 428.822 102.148C429.058 102.838 429.281 103.535 429.512 104.228L430.179 106.314C430.622 107.706 431.047 109.103 431.479 110.496C431.896 111.896 432.324 113.292 432.733 114.695L433.341 116.799C433.536 117.502 433.74 118.204 433.929 118.91Z" fill="#AEB4BB"/>
<path d="M424.461 86.9198C423.924 85.8245 423.672 84.5894 423.698 83.3606C423.721 82.1287 424.085 80.9082 424.708 79.844C425.027 79.3133 425.418 78.8333 425.838 78.3839C426.057 78.1678 426.271 77.9478 426.51 77.7546C426.629 77.6567 426.737 77.548 426.863 77.4596L427.234 77.1863C427.355 77.0935 427.485 77.0108 427.613 76.9295L428.001 76.6803C428.264 76.5258 428.531 76.379 428.798 76.2308L429.626 75.8393C429.908 75.7204 430.189 75.606 430.471 75.4922C430.199 75.6276 429.924 75.7611 429.651 75.8908L428.85 76.3256C428.59 76.4819 428.329 76.6364 428.074 76.7972L427.699 77.056C427.576 77.1411 427.451 77.2257 427.333 77.3217C427.096 77.5086 426.856 77.6923 426.634 77.8957C426.401 78.0896 426.194 78.3076 425.983 78.5206C425.576 78.9649 425.202 79.4372 424.896 79.9547C424.588 80.4702 424.341 81.0207 424.168 81.5947C423.993 82.1694 423.9 82.7663 423.864 83.367C423.833 83.9677 423.867 84.5748 423.973 85.1704C424.071 85.7673 424.23 86.3566 424.461 86.9198Z" fill="#AEB4BB"/>
<path d="M405.078 69.6895C405.768 69.7429 406.455 69.8096 407.145 69.87L409.207 70.0734C410.583 70.212 411.955 70.3696 413.331 70.5158C414.702 70.6805 416.075 70.8349 417.446 71.0072L419.503 71.2729C420.188 71.3689 420.873 71.4566 421.556 71.559C420.866 71.5056 420.18 71.4388 419.492 71.3785L417.428 71.175C416.053 71.0371 414.679 70.8807 413.306 70.7326C411.933 70.568 410.561 70.4135 409.188 70.2393L407.132 69.9755C406.448 69.8795 405.761 69.7918 405.078 69.6895Z" fill="#AEB4BB"/>
<path d="M433.433 160.409L440.421 214.836C440.421 214.836 450.987 216.597 452.998 214.836C455.011 213.075 452.998 151.697 452.998 151.697L433.433 160.409Z" fill="#345F8A"/>
<path d="M454.399 160.465C454.207 160.01 454.03 159.547 453.844 159.088L453.311 157.705C452.954 156.781 452.616 155.852 452.276 154.924C451.94 153.994 451.607 153.063 451.289 152.125L450.813 150.719C450.661 150.249 450.502 149.78 450.357 149.307C450.549 149.764 450.728 150.225 450.914 150.684L451.448 152.069C451.802 152.991 452.143 153.92 452.481 154.85C452.816 155.78 453.149 156.711 453.467 157.649L453.944 159.053C454.095 159.525 454.255 159.994 454.399 160.465Z" fill="white"/>
<path d="M394.277 73.6035C394.283 74.0981 394.275 74.5933 394.273 75.0891L394.247 76.5753C394.23 77.5644 394.195 78.5542 394.159 79.5433C394.119 80.5331 394.078 81.5222 394.02 82.5119L393.933 83.9943C393.897 84.487 393.867 84.9822 393.823 85.4767C393.817 84.9803 393.825 84.4857 393.827 83.9892L393.853 82.5049C393.87 81.5139 393.905 80.5248 393.941 79.535C393.982 78.5459 394.022 77.5562 394.08 76.5683L394.167 75.0846C394.204 74.5914 394.234 74.0968 394.277 73.6035Z" fill="#AEB4BB"/>
<path d="M414.429 220.085H408.272V172.617H414.429V220.085Z" fill="#7F7F81"/>
<path d="M372.972 89.2292C372.972 89.2292 402.99 83.8621 411.459 96.6075C419.929 109.353 423.017 127.8 423.017 127.8V145.241C423.017 145.241 423.963 154.967 432.342 154.967C440.723 154.967 444.748 153.291 444.748 153.291C444.748 153.291 455.482 152.619 457.828 164.694C457.828 164.694 456.298 171.067 420.505 173.75C393.432 178.613 386.137 166.79 384.376 162.683C386.137 164.778 364.587 134.509 372.972 89.2292Z" fill="#BDAE9B"/>
<path d="M385.889 224.844H438.941C438.941 224.844 416.222 214.646 409.2 215.36C402.18 216.075 385.889 224.844 385.889 224.844Z" fill="#7F7F81"/>
<path d="M609.15 190.782H581.319C580.873 190.782 580.51 190.421 580.51 189.973C580.51 189.527 580.873 189.164 581.319 189.164H609.15C609.595 189.164 609.958 189.527 609.958 189.973C609.958 190.421 609.595 190.782 609.15 190.782Z" fill="#A19E97"/>
<path d="M605.88 224.27H584.588C584.142 224.27 583.78 223.907 583.78 223.461C583.78 223.013 584.142 222.652 584.588 222.652H605.88C606.326 222.652 606.689 223.013 606.689 223.461C606.689 223.907 606.326 224.27 605.88 224.27Z" fill="#A19E97"/>
<path d="M584.798 222.532H605.672L608.494 190.663H581.975L584.798 222.532ZM606.077 222.974H584.391L581.491 190.221H608.977L606.077 222.974Z" fill="#A19E97"/>
<path d="M584.863 222.903L584.534 222.604L607.989 196.869L608.316 197.169L584.863 222.903Z" fill="#A19E97"/>
<path d="M584.135 215.878L583.809 215.579L606.853 190.293L607.18 190.592L584.135 215.878Z" fill="#A19E97"/>
<path d="M592.09 222.902L591.763 222.603L607.211 205.652L607.376 205.802H607.597V205.888L607.538 205.952L592.09 222.902Z" fill="#A19E97"/>
<path d="M582.863 201.541L582.541 201.236L592.84 190.291L593.163 190.596L582.863 201.541Z" fill="#A19E97"/>
<path d="M583.517 208.784L583.169 208.466L599.808 190.209L600.156 190.525L598.81 192.001L583.517 208.784Z" fill="#A19E97"/>
<path d="M599.088 222.901L598.76 222.602L606.458 214.156L606.786 214.456L599.088 222.901Z" fill="#A19E97"/>
<path d="M582.386 196.17L582.066 195.865L587.454 190.213L587.774 190.519L582.386 196.17Z" fill="#A19E97"/>
<path d="M605.46 222.904L582.167 197.345L582.495 197.047L605.787 222.604L605.46 222.904Z" fill="#A19E97"/>
<path d="M606.319 216.023L583.143 190.592L583.47 190.293L606.647 215.724L606.319 216.023Z" fill="#A19E97"/>
<path d="M598.234 222.903L582.944 206.128L583.273 205.83L598.56 222.603L598.234 222.903Z" fill="#A19E97"/>
<path d="M607.592 201.682L597.159 190.596L597.483 190.291L607.914 201.378L607.592 201.682Z" fill="#A19E97"/>
<path d="M606.938 208.928L590.167 190.525L590.515 190.209L591.859 191.685L607.286 208.613L606.938 208.928Z" fill="#A19E97"/>
<path d="M591.236 222.904L583.698 214.633L584.025 214.336L591.563 222.604L591.236 222.904Z" fill="#A19E97"/>
<path d="M608.069 196.31L602.547 190.519L602.87 190.215L602.941 190.289L608.389 196.005L608.069 196.31Z" fill="#A19E97"/>
<path fill-rule="evenodd" clip-rule="evenodd" d="M347.698 154.984C347.698 154.984 344.222 143.843 347.552 139.907C350.883 135.97 351.263 136.88 352.626 131.882C353.989 126.885 354.519 123.098 358.532 119.995C362.545 116.89 365.044 115.148 365.044 115.148C365.044 115.148 366.104 124.992 362.09 130.065C358.078 135.137 358.455 134.153 358.835 139.452C359.213 144.753 353.72 152.442 347.698 154.984Z" fill="#93B82C"/>
<path fill-rule="evenodd" clip-rule="evenodd" d="M340.516 139.982C339.074 125.065 340.249 106.098 336.942 94.9121C336.942 94.9121 343.606 98.2431 343.454 105.208C343.302 112.173 344.665 111.87 345.422 114.445C346.93 121.743 341.94 128.128 340.516 139.982Z" fill="#93B82C"/>
<path fill-rule="evenodd" clip-rule="evenodd" d="M335.922 154.526C335.922 154.526 328.058 152.16 326.835 146.35C325.611 140.541 326.158 141.396 324.27 137.941C322.382 134.486 322.58 132.03 322.063 128.581C321.34 123.764 317.982 124.375 319.306 115.473C327.638 119.424 324.227 120.939 326.772 123.439C333.17 129.722 331.133 134.148 335.121 138.316C338.742 142.099 339.466 145.064 335.922 154.526Z" fill="#93B82C"/>
<path fill-rule="evenodd" clip-rule="evenodd" d="M341.198 137.534L342.648 180.579L340.637 179.832L340.361 129.15L341.198 137.534Z" fill="#1E1E1E"/>
<path fill-rule="evenodd" clip-rule="evenodd" d="M340.534 184.356L339.331 184.431C336.414 138.809 322.451 121.16 322.412 121.109C337.859 141.15 340.283 180.429 340.534 184.356Z" fill="#1E1E1E"/>
<path fill-rule="evenodd" clip-rule="evenodd" d="M360.673 123.496C356.749 129.691 345.627 151.521 343.403 184.396L342.199 184.317C342.611 178.245 344.712 148.918 360.673 123.496Z" fill="#1E1E1E"/>
<mask id="mask0_2231_25969" style="mask-type:luminance" maskUnits="userSpaceOnUse" x="328" y="175" width="27" height="50">
<path d="M328.068 175.646H354.105V224.467H328.068V175.646Z" fill="white"/>
</mask>
<g mask="url(#mask0_2231_25969)">
<mask id="mask1_2231_25969" style="mask-type:luminance" maskUnits="userSpaceOnUse" x="328" y="175" width="27" height="50">
<path fill-rule="evenodd" clip-rule="evenodd" d="M333.255 224.42H348.934C360.519 205.146 349.429 195.395 346.412 188.777C344.1 183.706 344.458 180.401 346.461 175.789C340.793 175.789 341.397 175.789 335.728 175.789C337.731 180.401 338.089 183.705 335.777 188.777C332.76 195.395 321.67 205.146 333.255 224.42Z" fill="white"/>
</mask>
<g mask="url(#mask1_2231_25969)">
<path d="M321.67 175.789V224.42H360.519V175.789H321.67Z" fill="url(#paint0_linear_2231_25969)"/>
</g>
</g>
<path fill-rule="evenodd" clip-rule="evenodd" d="M338.22 175.791L336.709 171.418L339.586 175.791H338.22Z" fill="#1E1E1E"/>
<path fill-rule="evenodd" clip-rule="evenodd" d="M345.11 175.791L345.939 170.275L343.02 175.791H345.11Z" fill="#1E1E1E"/>
<defs>
<linearGradient id="paint0_linear_2231_25969" x1="321.67" y1="200.105" x2="360.519" y2="200.105" gradientUnits="userSpaceOnUse">
<stop stop-color="#CCCCCC"/>
<stop offset="0.25" stop-color="#CCCCCC"/>
<stop offset="0.3125" stop-color="#CCCCCC"/>
<stop offset="0.320312" stop-color="#CBCBCB"/>
<stop offset="0.328125" stop-color="#CACACA"/>
<stop offset="0.335938" stop-color="#C9C9C9"/>
<stop offset="0.34375" stop-color="#C8C8C8"/>
<stop offset="0.351562" stop-color="#C8C8C8"/>
<stop offset="0.359375" stop-color="#C7C7C7"/>
<stop offset="0.367188" stop-color="#C6C6C6"/>
<stop offset="0.375" stop-color="#C6C5C5"/>
<stop offset="0.382812" stop-color="#C5C5C5"/>
<stop offset="0.390625" stop-color="#C4C4C4"/>
<stop offset="0.398438" stop-color="#C3C3C3"/>
<stop offset="0.40625" stop-color="#C3C2C2"/>
<stop offset="0.414062" stop-color="#C2C2C2"/>
<stop offset="0.421875" stop-color="#C1C1C1"/>
<stop offset="0.429688" stop-color="#C0C0C0"/>
<stop offset="0.4375" stop-color="#C0BFBF"/>
<stop offset="0.445312" stop-color="#BFBEBE"/>
<stop offset="0.453125" stop-color="#BEBEBE"/>
<stop offset="0.460938" stop-color="#BDBDBD"/>
<stop offset="0.46875" stop-color="#BDBCBC"/>
<stop offset="0.476562" stop-color="#BCBBBB"/>
<stop offset="0.484375" stop-color="#BBBBBB"/>
<stop offset="0.492188" stop-color="#BABABA"/>
<stop offset="0.5" stop-color="#BAB9B9"/>
<stop offset="0.507812" stop-color="#B9B8B8"/>
<stop offset="0.515625" stop-color="#B8B8B8"/>
<stop offset="0.523438" stop-color="#B7B7B7"/>
<stop offset="0.53125" stop-color="#B7B6B6"/>
<stop offset="0.539062" stop-color="#B6B5B5"/>
<stop offset="0.546875" stop-color="#B5B5B5"/>
<stop offset="0.554688" stop-color="#B4B4B4"/>
<stop offset="0.5625" stop-color="#B4B3B3"/>
<stop offset="0.570312" stop-color="#B3B2B2"/>
<stop offset="0.578125" stop-color="#B2B1B1"/>
<stop offset="0.585938" stop-color="#B1B1B1"/>
<stop offset="0.59375" stop-color="#B1B0B0"/>
<stop offset="0.601562" stop-color="#B0AFAF"/>
<stop offset="0.609375" stop-color="#AFAEAE"/>
<stop offset="0.617188" stop-color="#AEAEAE"/>
<stop offset="0.625" stop-color="#AEADAD"/>
<stop offset="0.632812" stop-color="#ADACAC"/>
<stop offset="0.640625" stop-color="#ACABAB"/>
<stop offset="0.648438" stop-color="#ABABAB"/>
<stop offset="0.65625" stop-color="#ABAAAA"/>
<stop offset="0.664062" stop-color="#AAA9A9"/>
<stop offset="0.671875" stop-color="#A9A8A8"/>
<stop offset="0.679688" stop-color="#A8A8A8"/>
<stop offset="0.6875" stop-color="#A8A7A7"/>
<stop offset="0.695312" stop-color="#A7A6A6"/>
<stop offset="0.703125" stop-color="#A6A5A5"/>
<stop offset="0.710938" stop-color="#A5A4A4"/>
<stop offset="0.71875" stop-color="#A5A4A4"/>
<stop offset="0.726562" stop-color="#A4A3A3"/>
<stop offset="0.734375" stop-color="#A3A2A2"/>
<stop offset="0.742188" stop-color="#A2A1A1"/>
<stop offset="0.75" stop-color="#A2A1A1"/>
<stop offset="0.757812" stop-color="#A1A0A0"/>
<stop offset="0.765625" stop-color="#A09F9F"/>
<stop offset="0.773438" stop-color="#9F9E9E"/>
<stop offset="0.78125" stop-color="#9F9E9E"/>
<stop offset="0.789062" stop-color="#9E9D9D"/>
<stop offset="0.796875" stop-color="#9D9C9C"/>
<stop offset="0.804688" stop-color="#9C9B9B"/>
<stop offset="0.8125" stop-color="#9C9B9B"/>
<stop offset="0.820312" stop-color="#9B9A9A"/>
<stop offset="0.828125" stop-color="#9A9999"/>
<stop offset="0.84375" stop-color="#999898"/>
<stop offset="0.875" stop-color="#999898"/>
<stop offset="1" stop-color="#999898"/>
</linearGradient>
</defs>
</svg>
