<svg width="499" height="100" viewBox="0 0 499 100" fill="none" xmlns="http://www.w3.org/2000/svg">
<rect x="0.75" y="0.75" width="34.5" height="34.5" rx="11.25" fill="#FFF1CD"/>
<rect x="0.75" y="0.75" width="34.5" height="34.5" rx="11.25" stroke="#FFE6AA" stroke-width="1.5"/>
<path d="M10.0996 23.5H25.8975C26.1507 23.5 26.3814 23.5949 26.5576 23.75H9.44043C9.61655 23.5951 9.84661 23.5 10.0996 23.5Z" fill="#707070" stroke="#707070" stroke-width="1.12489"/>
<path d="M7.875 27.9087V10.1573C7.875 10.1573 8.11605 7.87598 10.8881 7.87598C13.6602 7.87598 13.9013 10.1573 13.9013 10.1573V11.9018" stroke="#707070" stroke-width="2" stroke-linecap="round"/>
<path d="M7.87695 15.8311L27.9453 15.8311" stroke="#707070" stroke-width="2" stroke-linecap="round"/>
<path d="M7.875 26.3994C7.875 24.7686 9.44181 24.8938 9.44181 24.8938H26.6768C26.6768 24.8938 28.123 24.8938 28.123 26.3994" stroke="#707070" stroke-width="2" stroke-linecap="round"/>
<path d="M28.123 28.124L28.123 14.7458" stroke="#707070" stroke-width="2" stroke-linecap="round"/>
<path d="M12.1875 12.6208C12.1875 12.6208 12.6396 11.9746 13.9959 11.9746C15.3522 11.9746 15.8043 12.6208 15.8043 12.6208" stroke="#707070" stroke-width="2" stroke-linecap="round"/>
<path d="M12.0703 24.5078L12.0703 16.1916" stroke="#707070" stroke-width="2"/>
<path d="M16.084 24.5078L16.084 16.1916" stroke="#707070" stroke-width="2"/>
<path d="M20.0996 24.5078L20.0996 16.1916" stroke="#707070" stroke-width="2"/>
<path d="M24.1133 24.5078L24.1133 16.1916" stroke="#707070" stroke-width="2"/>
<rect x="78.334" width="36" height="36" rx="12" fill="#FFD500"/>
<rect x="79.084" y="0.75" width="34.5" height="34.5" rx="11.25" stroke="#FFC93C" stroke-opacity="0.9" stroke-width="1.5"/>
<path d="M101.892 16.6045C101.892 18.6857 101.02 20.6817 99.4669 22.1534C97.9143 23.6251 95.8086 24.4518 93.6129 24.4518C91.4172 24.4518 89.3114 23.6251 87.7588 22.1534C86.2062 20.6817 85.334 18.6857 85.334 16.6045L101.892 16.6045Z" fill="#505050" stroke="#505050" stroke-width="2"/>
<path d="M86.1465 16.4218C86.1465 14.5753 86.7754 12.7743 87.9469 11.2662C89.0997 9.78208 90.7221 8.65346 92.5971 8.02984C92.648 8.01294 92.7029 8.03962 92.7215 8.08985L95.9719 16.8668" stroke="#505050" stroke-width="2"/>
<path d="M92.1581 26.6191C92.1581 27.5613 91.3943 28.3251 90.4521 28.3251C89.5099 28.3251 88.7461 27.5613 88.7461 26.6191C88.7461 25.6769 89.5099 24.9131 90.4521 24.9131C91.3943 24.9131 92.1581 25.6769 92.1581 26.6191Z" fill="#505050" stroke="#505050" stroke-width="2"/>
<path d="M107.276 15.2765C107.276 16.3757 106.384 17.2668 105.285 17.2668C104.186 17.2668 103.295 16.3757 103.295 15.2765C103.295 14.1772 104.186 13.2861 105.285 13.2861C106.384 13.2861 107.276 14.1772 107.276 15.2765Z" fill="#505050" stroke="#505050" stroke-width="2"/>
<path d="M101.553 16.7534C101.617 16.6527 101.731 16.4567 102.362 16.16C102.7 16.0012 103.009 15.9226 103.333 15.8633" stroke="#505050" stroke-width="2"/>
<path d="M98.4139 26.6191C98.4139 27.5613 97.6501 28.3251 96.708 28.3251C95.7658 28.3251 95.002 27.5613 95.002 26.6191C95.002 25.6769 95.7658 24.9131 96.708 24.9131C97.6501 24.9131 98.4139 25.6769 98.4139 26.6191Z" fill="#505050" stroke="#505050" stroke-width="2"/>
<rect x="157.416" y="0.75" width="34.5" height="34.5" rx="11.25" fill="#FFF1CD"/>
<rect x="157.416" y="0.75" width="34.5" height="34.5" rx="11.25" stroke="#FFE6AA" stroke-width="1.5"/>
<path fill-rule="evenodd" clip-rule="evenodd" d="M174.666 6.57129C176.405 6.57129 177.815 7.99799 177.815 9.75765C177.815 11.5173 176.405 12.944 174.666 12.944C172.927 12.944 171.517 11.5173 171.517 9.75765C171.517 7.99799 172.927 6.57129 174.666 6.57129ZM171.328 21.0485L173.83 23.6136L171.986 25.4793L173.464 27.0139L173.968 27.5366C174.83 28.6898 173.538 30.0589 172.414 29.1083L169.135 25.7211C168.639 25.0254 168.492 24.2702 168.999 23.4053L171.328 21.0485ZM178.003 21.0485L175.503 23.6154L177.346 25.4811L175.868 27.0157L175.365 27.5384C174.503 28.6917 175.795 30.0607 176.918 29.1102L180.197 25.7229C180.694 25.0273 180.841 24.2721 180.333 23.4071L178.003 21.0485ZM182.155 20.204C181.642 20.5779 180.988 20.4049 180.552 19.9417L178.039 17.2762V19.7018H171.286V17.2836L168.78 19.9417C168.345 20.4049 167.688 20.5779 167.177 20.204C166.664 19.8301 166.466 19.0266 166.918 18.582L170.218 15.338C170.755 14.8097 171.788 13.5597 172.484 13.5597H176.905C177.558 13.5597 178.569 14.8004 179.113 15.338L182.413 18.582C182.867 19.0266 182.666 19.8301 182.155 20.204Z" fill="#707070"/>
<rect x="235.75" y="0.75" width="34.5" height="34.5" rx="11.25" fill="#FFF1CD"/>
<rect x="235.75" y="0.75" width="34.5" height="34.5" rx="11.25" stroke="#FFE6AA" stroke-width="1.5"/>
<path fill-rule="evenodd" clip-rule="evenodd" d="M261.601 10.4355L261.792 11.5518C263.088 15.3536 260.786 15.3925 259.877 13.3616C259.118 13.0502 258.633 13.2554 258.511 14.1541L259.446 18.5927L259.41 22.3679C259.967 21.6284 260.412 20.7669 260.702 19.7886C260.935 19.0067 261.734 18.5679 262.49 18.8085C263.245 19.0491 263.669 19.8771 263.436 20.659C262.661 23.2772 261.078 25.2869 259.101 26.619C257.351 27.7989 255.29 28.4411 253.212 28.4959C251.131 28.5526 249.026 28.0165 247.19 26.8436C245.191 25.5646 243.525 23.5373 242.578 20.7032C242.322 19.9319 242.718 19.0898 243.463 18.8245C244.208 18.5591 245.022 18.9695 245.278 19.7408C245.546 20.544 245.888 21.2587 246.288 21.8885L246.322 18.7413C246.394 17.9824 246.654 17.25 247.185 16.5601H245.652C244.302 16.4539 244.152 14.8087 245.652 14.4779H249.752C249.81 15.3712 250.184 16.1762 250.758 16.7723C251.385 17.4216 252.252 17.8232 253.209 17.8232C254.166 17.8232 255.032 17.4216 255.659 16.7723C256.286 16.1231 256.674 15.2262 256.674 14.2355C256.674 13.2448 256.286 12.3479 255.659 11.6987C255.23 11.2546 254.69 10.9273 254.085 10.7628C254.641 9.70138 255.57 8.7514 256.956 7.93232C258.308 7.39452 259.844 7.27599 261.77 8.05615C262.531 8.40997 262.96 8.76555 262.828 9.11936C262.702 9.46256 262.462 9.45371 262.199 9.52978C261.784 9.65008 261.553 9.92429 261.601 10.4355ZM257.997 23.8044C257.131 17.7046 248.742 17.6445 247.752 23.6169C248.051 23.8822 248.366 24.1175 248.691 24.3263C250.037 25.1878 251.594 25.5788 253.144 25.5381C254.697 25.4974 256.235 25.0162 257.542 24.1352C257.698 24.0308 257.85 23.9211 257.997 23.8044ZM250.589 14.4761H253.482C253.363 13.4465 253.434 12.4717 253.74 11.566C254.253 11.6757 254.711 11.9393 255.068 12.3072C255.543 12.799 255.839 13.4801 255.839 14.232C255.839 14.9838 255.545 15.6649 255.068 16.1567C254.593 16.6485 253.935 16.9546 253.209 16.9546C252.483 16.9546 251.825 16.6503 251.35 16.1567C250.926 15.7197 250.646 15.1324 250.589 14.4761ZM260.436 10.2746C260.627 10.2746 260.784 10.4373 260.784 10.6355V10.9857C260.784 11.1839 260.627 11.3466 260.436 11.3466C260.244 11.3466 260.087 11.1839 260.087 10.9857V10.6355C260.087 10.4355 260.242 10.2746 260.436 10.2746Z" fill="#707070"/>
<rect y="54" width="271" height="6" rx="3" fill="#FFE6AA"/>
<rect y="67.333" width="271" height="6" rx="3" fill="#FFE6AA"/>
<rect y="80.667" width="271" height="6" rx="3" fill="#FFF1CD"/>
<rect y="94" width="271" height="6" rx="3" fill="#FFF1CD"/>
<g clip-path="url(#clip0_3643_10451)">
<path d="M27.0345 39.5535C27.2407 39.882 27.4675 40.2433 27.6737 40.5718C29.4544 43.4836 31.2221 46.4494 33.0028 49.3612C33.209 49.6897 33.3945 49.9854 33.5671 50.3349C33.8015 50.7831 34.0307 51.3719 33.3979 51.6316C33.1422 51.7463 32.5643 51.4222 32.3452 51.1476C30.6852 48.8011 29.0794 46.4663 27.453 44.0986C27.069 43.5613 26.7521 42.9818 26.0787 42.5802C26.0881 43.4901 26.1852 44.3907 26.1404 45.2888C26.1244 45.7109 25.8269 46.3556 25.4834 46.4795C24.7964 46.7275 24.4513 46.0284 24.4054 45.5077C24.0415 42.9888 23.657 40.437 23.5023 37.8783C23.4111 36.2413 24.4185 35.609 25.853 36.4029C27.7699 37.4435 29.5343 38.763 31.3245 39.9746C31.549 40.1085 31.5201 40.5845 31.6178 40.8895C31.2873 40.9595 30.8844 41.2125 30.6263 41.0997C30.0431 40.9163 29.5117 40.5171 28.9544 40.2258C28.3765 39.9017 27.7986 39.5776 27.2413 39.2863C27.2154 39.3941 27.1353 39.4902 27.0345 39.5535Z" fill="#FFD500"/>
</g>
<g clip-path="url(#clip1_3643_10451)">
<path d="M158.731 40.5966C158.533 40.9303 158.315 41.2973 158.118 41.631C156.344 44.5469 154.516 47.476 152.742 50.3919C152.544 50.7256 152.366 51.0259 152.134 51.3393C151.843 51.7528 151.425 52.2261 150.904 51.7824C150.685 51.6075 150.709 50.9453 150.853 50.6248C152.179 48.0749 153.52 45.5786 154.881 43.049C155.183 42.4615 155.553 41.9146 155.602 41.1321C154.797 41.5568 154.041 42.0554 153.222 42.4266C152.839 42.6056 152.13 42.6361 151.863 42.3874C151.328 41.8901 151.791 41.2633 152.233 40.9841C154.306 39.5077 156.399 37.998 158.603 36.6893C160.017 35.8591 161.04 36.4654 160.991 38.1042C160.943 40.2848 160.577 42.4574 160.32 44.6037C160.303 44.8645 159.867 45.0567 159.64 45.2832C159.427 45.0214 159.018 44.7789 159 44.4978C158.896 43.8953 159.008 43.2402 159.011 42.6114C159.035 41.9492 159.059 41.2871 159.063 40.6582C158.955 40.6845 158.833 40.6573 158.731 40.5966Z" fill="#FFD500"/>
</g>
<g clip-path="url(#clip2_3643_10451)">
<path d="M238.61 41.0302C238.334 41.3024 238.03 41.6018 237.754 41.874C235.295 44.2411 232.78 46.6071 230.321 48.9742C230.045 49.2464 229.796 49.4914 229.492 49.7353C229.105 50.0609 228.58 50.4117 228.189 49.8499C228.022 49.625 228.214 48.9908 228.435 48.7176C230.368 46.5904 232.301 44.5186 234.262 42.4196C234.704 41.9287 235.202 41.4942 235.448 40.75C234.562 40.9555 233.704 41.2447 232.817 41.3947C232.401 41.4702 231.708 41.3188 231.512 41.0101C231.122 40.3929 231.73 39.905 232.229 39.7478C234.61 38.849 237.019 37.9229 239.484 37.2197C241.062 36.7775 241.897 37.6247 241.431 39.1967C240.829 41.293 239.921 43.3005 239.124 45.3101C239.042 45.5581 238.571 45.6326 238.294 45.7939C238.155 45.4863 237.821 45.1473 237.875 44.8711C237.929 44.262 238.204 43.657 238.368 43.05C238.56 42.4158 238.751 41.7815 238.916 41.1745C238.805 41.1725 238.694 41.115 238.61 41.0302Z" fill="#FFD500"/>
</g>
<defs>
<clipPath id="clip0_3643_10451">
<rect width="9" height="18" fill="white" transform="translate(37.1914 49.2676) rotate(147.887)"/>
</clipPath>
<clipPath id="clip1_3643_10451">
<rect width="9" height="18" fill="white" transform="translate(154.742 54.0732) rotate(-149.35)"/>
</clipPath>
<clipPath id="clip2_3643_10451">
<rect width="9" height="18" fill="white" transform="translate(231.316 53.0439) rotate(-134.574)"/>
</clipPath>
</defs>
</svg>
