<svg width="439" height="80" viewBox="0 0 439 80" fill="none" xmlns="http://www.w3.org/2000/svg">
<g clip-path="url(#clip0_633_5232)">
<path d="M36.0469 24.8V45.2H15.6469V30.8C15.6469 25.2 16.5802 20.0667 18.4469 15.4C20.3135 10.7333 23.4469 6.19999 27.8469 1.79999L35.4469 7.79999C30.2469 13.5333 27.3135 19.2 26.6469 24.8H36.0469ZM69.2469 24.8V45.2H48.8469V30.8C48.8469 25.2 49.7802 20.0667 51.6469 15.4C53.5135 10.7333 56.6469 6.19999 61.0469 1.79999L68.6469 7.79999C63.4469 13.5333 60.5135 19.2 59.8469 24.8H69.2469Z" fill="#ECEAFE"/>
<path d="M374.547 5.99999V20.4C374.547 26 373.614 31.1333 371.747 35.8C370.014 40.4667 366.947 45 362.547 49.4L354.947 43.4C360.147 37.6667 363.08 32 363.747 26.4H354.147V5.99999H374.547ZM407.747 5.99999V20.4C407.747 26 406.814 31.1333 404.947 35.8C403.214 40.4667 400.147 45 395.747 49.4L388.147 43.4C393.347 37.6667 396.28 32 396.947 26.4H387.347V5.99999H407.747Z" fill="#ECEAFE"/>
</g>
<defs>
<clipPath id="clip0_633_5232">
<rect width="439" height="80" fill="white"/>
</clipPath>
</defs>
</svg>
