<svg width="2899" height="1342" viewBox="0 0 2899 1342" fill="none" xmlns="http://www.w3.org/2000/svg">
<g clip-path="url(#clip0_208_644)">
<rect width="2899" height="1342" fill="white"/>
<g opacity="0.15" filter="url(#filter0_f_208_644)">
<path d="M1995 1192C2451.19 1192 2821 1049.03 2821 872.659C2821 696.291 2451.19 553.317 1995 553.317C1538.81 553.317 1169 696.291 1169 872.659C1169 1049.03 1538.81 1192 1995 1192Z" fill="url(#paint0_radial_208_644)"/>
<path d="M1362 963.566C1947.42 963.566 2422 780.1 2422 553.783C2422 327.466 1947.42 144 1362 144C776.578 144 302 327.466 302 553.783C302 780.1 776.578 963.566 1362 963.566Z" fill="url(#paint1_radial_208_644)"/>
<path d="M865 812.52C1320.64 812.52 1690 669.546 1690 493.178C1690 316.811 1320.64 173.836 865 173.836C409.365 173.836 40 316.811 40 493.178C40 669.546 409.365 812.52 865 812.52Z" fill="url(#paint2_radial_208_644)"/>
<path d="M2055 778.954C2462.03 778.954 2792 650.799 2792 492.712C2792 334.625 2462.03 206.47 2055 206.47C1647.97 206.47 1318 334.625 1318 492.712C1318 650.799 1647.97 778.954 2055 778.954Z" fill="url(#paint3_radial_208_644)"/>
<path d="M925 1192C1381.19 1192 1751 957.397 1751 668C1751 378.603 1381.19 144 925 144C468.813 144 99 378.603 99 668C99 957.397 468.813 1192 925 1192Z" fill="url(#paint4_radial_208_644)"/>
<path d="M2008 986.875C2415.03 986.875 2745 858.929 2745 701.1C2745 543.27 2415.03 415.324 2008 415.324C1600.97 415.324 1271 543.27 1271 701.1C1271 858.929 1600.97 986.875 2008 986.875Z" fill="url(#paint5_radial_208_644)"/>
<path d="M2131.64 1005.77C2512.51 1005.77 2821.27 877.558 2821.27 719.403C2821.27 561.249 2512.51 433.039 2131.64 433.039C1750.76 433.039 1442 561.249 1442 719.403C1442 877.558 1750.76 1005.77 2131.64 1005.77Z" fill="url(#paint6_radial_208_644)"/>
<path d="M2102.64 1150.29C2483.51 1150.29 2792.27 1022.08 2792.27 863.923C2792.27 705.768 2483.51 577.559 2102.64 577.559C1721.76 577.559 1413 705.768 1413 863.923C1413 1022.08 1721.76 1150.29 2102.64 1150.29Z" fill="url(#paint7_radial_208_644)"/>
</g>
</g>
<defs>
<filter id="filter0_f_208_644" x="-150" y="-46" width="3161.27" height="1428" filterUnits="userSpaceOnUse" color-interpolation-filters="sRGB">
<feFlood flood-opacity="0" result="BackgroundImageFix"/>
<feBlend mode="normal" in="SourceGraphic" in2="BackgroundImageFix" result="shape"/>
<feGaussianBlur stdDeviation="95" result="effect1_foregroundBlur_208_644"/>
</filter>
<radialGradient id="paint0_radial_208_644" cx="0" cy="0" r="1" gradientUnits="userSpaceOnUse" gradientTransform="translate(-386308 19075.1) rotate(90) scale(374108 597862)">
<stop stop-color="#4F1FF2"/>
<stop offset="1" stop-color="#4E23F2" stop-opacity="0"/>
</radialGradient>
<radialGradient id="paint1_radial_208_644" cx="0" cy="0" r="1" gradientUnits="userSpaceOnUse" gradientTransform="translate(-496945 23911.4) rotate(90) scale(480060 767232)">
<stop stop-color="#4F1FF2"/>
<stop offset="1" stop-color="#4E23F2" stop-opacity="0"/>
</radialGradient>
<radialGradient id="paint2_radial_208_644" cx="0" cy="0" r="1" gradientUnits="userSpaceOnUse" gradientTransform="translate(-46160 67780.7) rotate(90) scale(374108 597138)">
<stop stop-color="#76E4FE"/>
<stop offset="1" stop-color="#1F9EFB" stop-opacity="0"/>
</radialGradient>
<radialGradient id="paint3_radial_208_644" cx="0" cy="0" r="1" gradientUnits="userSpaceOnUse" gradientTransform="translate(-107609 184475) rotate(90) scale(335332 533444)">
<stop stop-color="#FAD374"/>
<stop offset="1" stop-color="#F9CB76" stop-opacity="0"/>
</radialGradient>
<radialGradient id="paint4_radial_208_644" cx="0" cy="0" r="1" gradientUnits="userSpaceOnUse" gradientTransform="translate(-387378 30536) rotate(90) scale(613865 597862)">
<stop stop-color="#4F1FF2"/>
<stop offset="1" stop-color="#4E23F2" stop-opacity="0"/>
</radialGradient>
<radialGradient id="paint5_radial_208_644" cx="0" cy="0" r="1" gradientUnits="userSpaceOnUse" gradientTransform="translate(-373269 172510) rotate(90) scale(334786 533444)">
<stop stop-color="#F02BA6"/>
<stop offset="1" stop-color="#F024A9" stop-opacity="0"/>
</radialGradient>
<radialGradient id="paint6_radial_208_644" cx="0" cy="0" r="1" gradientUnits="userSpaceOnUse" gradientTransform="translate(-100485 352518) rotate(90) scale(335475 499162)">
<stop stop-color="#F57690"/>
<stop offset="1" stop-color="#F5818D" stop-opacity="0"/>
</radialGradient>
<radialGradient id="paint7_radial_208_644" cx="0" cy="0" r="1" gradientUnits="userSpaceOnUse" gradientTransform="translate(-348877 330060) rotate(90) scale(335475 499162)">
<stop stop-color="#2B7DF8"/>
<stop offset="1" stop-color="#2A80F9" stop-opacity="0"/>
</radialGradient>
<clipPath id="clip0_208_644">
<rect width="2899" height="1342" fill="white"/>
</clipPath>
</defs>
</svg>
