<svg width="2899" height="900" viewBox="0 0 2899 900" fill="none" xmlns="http://www.w3.org/2000/svg">
<g clip-path="url(#clip0_212_900)">
<rect width="2899" height="900" fill="white"/>
<g opacity="0.15" filter="url(#filter0_f_212_900)">
<path d="M2014 801.831C2470.19 801.831 2840 705.947 2840 587.668C2840 469.389 2470.19 373.504 2014 373.504C1557.81 373.504 1188 469.389 1188 587.668C1188 705.947 1557.81 801.831 2014 801.831Z" fill="url(#paint0_radial_212_900)"/>
<path d="M1381 648.634C1966.42 648.634 2441 525.594 2441 373.817C2441 222.04 1966.42 99 1381 99C795.578 99 321 222.04 321 373.817C321 525.594 795.578 648.634 1381 648.634Z" fill="url(#paint1_radial_212_900)"/>
<path d="M884 547.336C1339.64 547.336 1709 451.452 1709 333.173C1709 214.894 1339.64 119.009 884 119.009C428.365 119.009 59 214.894 59 333.173C59 451.452 428.365 547.336 884 547.336Z" fill="url(#paint2_radial_212_900)"/>
<path d="M2074 524.826C2481.03 524.826 2811 438.88 2811 332.86C2811 226.84 2481.03 140.895 2074 140.895C1666.97 140.895 1337 226.84 1337 332.86C1337 438.88 1666.97 524.826 2074 524.826Z" fill="url(#paint3_radial_212_900)"/>
<path d="M944 801.832C1400.19 801.832 1770 644.497 1770 450.416C1770 256.334 1400.19 99 944 99C487.813 99 118 256.334 118 450.416C118 644.497 487.813 801.832 944 801.832Z" fill="url(#paint4_radial_212_900)"/>
<path d="M2027 664.267C2434.03 664.267 2764 578.461 2764 472.614C2764 366.767 2434.03 280.961 2027 280.961C1619.97 280.961 1290 366.767 1290 472.614C1290 578.461 1619.97 664.267 2027 664.267Z" fill="url(#paint5_radial_212_900)"/>
<path d="M2150.64 676.936C2531.51 676.936 2840.27 590.954 2840.27 484.889C2840.27 378.824 2531.51 292.841 2150.64 292.841C1769.76 292.841 1461 378.824 1461 484.889C1461 590.954 1769.76 676.936 2150.64 676.936Z" fill="url(#paint6_radial_212_900)"/>
<path d="M2121.64 773.857C2502.51 773.857 2811.27 687.875 2811.27 581.81C2811.27 475.745 2502.51 389.762 2121.64 389.762C1740.76 389.762 1432 475.745 1432 581.81C1432 687.875 1740.76 773.857 2121.64 773.857Z" fill="url(#paint7_radial_212_900)"/>
</g>
</g>
<defs>
<filter id="filter0_f_212_900" x="-131" y="-91" width="3161.27" height="1082.83" filterUnits="userSpaceOnUse" color-interpolation-filters="sRGB">
<feFlood flood-opacity="0" result="BackgroundImageFix"/>
<feBlend mode="normal" in="SourceGraphic" in2="BackgroundImageFix" result="shape"/>
<feGaussianBlur stdDeviation="95" result="effect1_foregroundBlur_212_900"/>
</filter>
<radialGradient id="paint0_radial_212_900" cx="0" cy="0" r="1" gradientUnits="userSpaceOnUse" gradientTransform="translate(-386289 12795) rotate(90) scale(250892 597862)">
<stop stop-color="#4F1FF2"/>
<stop offset="1" stop-color="#4E23F2" stop-opacity="0"/>
</radialGradient>
<radialGradient id="paint1_radial_212_900" cx="0" cy="0" r="1" gradientUnits="userSpaceOnUse" gradientTransform="translate(-496926 16038.4) rotate(90) scale(321948 767232)">
<stop stop-color="#4F1FF2"/>
<stop offset="1" stop-color="#4E23F2" stop-opacity="0"/>
</radialGradient>
<radialGradient id="paint2_radial_212_900" cx="0" cy="0" r="1" gradientUnits="userSpaceOnUse" gradientTransform="translate(-46141 45458.9) rotate(90) scale(250892 597138)">
<stop stop-color="#76E4FE"/>
<stop offset="1" stop-color="#1F9EFB" stop-opacity="0"/>
</radialGradient>
<radialGradient id="paint3_radial_212_900" cx="0" cy="0" r="1" gradientUnits="userSpaceOnUse" gradientTransform="translate(-107590 123719) rotate(90) scale(224887 533444)">
<stop stop-color="#FAD374"/>
<stop offset="1" stop-color="#F9CB76" stop-opacity="0"/>
</radialGradient>
<radialGradient id="paint4_radial_212_900" cx="0" cy="0" r="1" gradientUnits="userSpaceOnUse" gradientTransform="translate(-387359 20481.1) rotate(90) scale(411683 597862)">
<stop stop-color="#4F1FF2"/>
<stop offset="1" stop-color="#4E23F2" stop-opacity="0"/>
</radialGradient>
<radialGradient id="paint5_radial_212_900" cx="0" cy="0" r="1" gradientUnits="userSpaceOnUse" gradientTransform="translate(-373250 115695) rotate(90) scale(224521 533444)">
<stop stop-color="#F02BA6"/>
<stop offset="1" stop-color="#F024A9" stop-opacity="0"/>
</radialGradient>
<radialGradient id="paint6_radial_212_900" cx="0" cy="0" r="1" gradientUnits="userSpaceOnUse" gradientTransform="translate(-100466 236415) rotate(90) scale(224983 499162)">
<stop stop-color="#F57690"/>
<stop offset="1" stop-color="#F5818D" stop-opacity="0"/>
</radialGradient>
<radialGradient id="paint7_radial_212_900" cx="0" cy="0" r="1" gradientUnits="userSpaceOnUse" gradientTransform="translate(-348858 221354) rotate(90) scale(224983 499162)">
<stop stop-color="#2B7DF8"/>
<stop offset="1" stop-color="#2A80F9" stop-opacity="0"/>
</radialGradient>
<clipPath id="clip0_212_900">
<rect width="2899" height="900" fill="white"/>
</clipPath>
</defs>
</svg>
