<svg width="790" height="61" viewBox="0 0 790 61" fill="none" xmlns="http://www.w3.org/2000/svg">
<path d="M172.313 50.8906V58H171.386V50.8906H172.313ZM174.599 50.8906V51.6621H169.105V50.8906H174.599ZM176.049 53.5469V58H175.146V52.7168H176.024L176.049 53.5469ZM177.699 52.6875L177.694 53.5273C177.619 53.5111 177.548 53.5013 177.479 53.498C177.414 53.4915 177.34 53.4883 177.255 53.4883C177.047 53.4883 176.863 53.5208 176.703 53.5859C176.544 53.651 176.409 53.7422 176.298 53.8594C176.187 53.9766 176.099 54.1165 176.034 54.2793C175.972 54.4388 175.932 54.6146 175.912 54.8066L175.658 54.9531C175.658 54.6341 175.689 54.3346 175.751 54.0547C175.816 53.7747 175.915 53.5273 176.049 53.3125C176.182 53.0944 176.352 52.9251 176.557 52.8047C176.765 52.681 177.012 52.6191 177.299 52.6191C177.364 52.6191 177.439 52.6273 177.523 52.6436C177.608 52.6566 177.667 52.6712 177.699 52.6875ZM181.454 57.0967V54.377C181.454 54.1686 181.412 53.988 181.327 53.835C181.246 53.6787 181.122 53.5583 180.956 53.4736C180.79 53.389 180.585 53.3467 180.341 53.3467C180.113 53.3467 179.913 53.3857 179.74 53.4639C179.571 53.542 179.438 53.6445 179.34 53.7715C179.245 53.8984 179.198 54.0352 179.198 54.1816H178.295C178.295 53.9928 178.344 53.8057 178.441 53.6201C178.539 53.4346 178.679 53.2669 178.861 53.1172C179.047 52.9642 179.268 52.8438 179.525 52.7559C179.786 52.6647 180.076 52.6191 180.395 52.6191C180.779 52.6191 181.117 52.6842 181.41 52.8145C181.706 52.9447 181.938 53.1416 182.104 53.4053C182.273 53.6657 182.357 53.9928 182.357 54.3867V56.8477C182.357 57.0234 182.372 57.2106 182.401 57.4092C182.434 57.6077 182.481 57.7786 182.543 57.9219V58H181.601C181.555 57.8958 181.519 57.7575 181.493 57.585C181.467 57.4092 181.454 57.2464 181.454 57.0967ZM181.61 54.7969L181.62 55.4316H180.707C180.45 55.4316 180.22 55.4528 180.019 55.4951C179.817 55.5342 179.647 55.5944 179.511 55.6758C179.374 55.7572 179.27 55.8597 179.198 55.9834C179.127 56.1038 179.091 56.2454 179.091 56.4082C179.091 56.5742 179.128 56.7256 179.203 56.8623C179.278 56.999 179.39 57.1081 179.54 57.1895C179.693 57.2676 179.88 57.3066 180.102 57.3066C180.378 57.3066 180.622 57.248 180.834 57.1309C181.046 57.0137 181.213 56.8704 181.337 56.7012C181.464 56.5319 181.532 56.3675 181.542 56.208L181.928 56.6426C181.905 56.7793 181.843 56.9307 181.742 57.0967C181.641 57.2627 181.506 57.4222 181.337 57.5752C181.171 57.7249 180.972 57.8503 180.741 57.9512C180.513 58.0488 180.256 58.0977 179.97 58.0977C179.612 58.0977 179.298 58.0277 179.027 57.8877C178.76 57.7477 178.552 57.5605 178.402 57.3262C178.256 57.0885 178.183 56.8232 178.183 56.5303C178.183 56.2471 178.238 55.998 178.349 55.7832C178.459 55.5651 178.619 55.3844 178.827 55.2412C179.035 55.0947 179.286 54.984 179.579 54.9092C179.872 54.8343 180.199 54.7969 180.561 54.7969H181.61ZM185.893 57.3555C186.107 57.3555 186.306 57.3115 186.488 57.2236C186.671 57.1357 186.82 57.0153 186.938 56.8623C187.055 56.7061 187.121 56.5286 187.138 56.3301H187.997C187.981 56.6426 187.875 56.9339 187.68 57.2041C187.488 57.471 187.235 57.6875 186.923 57.8535C186.61 58.0163 186.267 58.0977 185.893 58.0977C185.495 58.0977 185.149 58.0277 184.853 57.8877C184.56 57.7477 184.315 57.5557 184.12 57.3115C183.928 57.0674 183.783 56.7874 183.686 56.4717C183.591 56.1527 183.544 55.8158 183.544 55.4609V55.2559C183.544 54.901 183.591 54.5658 183.686 54.25C183.783 53.931 183.928 53.6494 184.12 53.4053C184.315 53.1611 184.56 52.9691 184.853 52.8291C185.149 52.6891 185.495 52.6191 185.893 52.6191C186.306 52.6191 186.667 52.7038 186.977 52.873C187.286 53.0391 187.528 53.2669 187.704 53.5566C187.883 53.8431 187.981 54.1686 187.997 54.5332H187.138C187.121 54.3151 187.06 54.1182 186.952 53.9424C186.848 53.7666 186.705 53.6266 186.522 53.5225C186.343 53.415 186.133 53.3613 185.893 53.3613C185.616 53.3613 185.383 53.4167 185.194 53.5273C185.009 53.6348 184.861 53.7812 184.75 53.9668C184.643 54.1491 184.564 54.3525 184.516 54.5771C184.47 54.7985 184.447 55.0247 184.447 55.2559V55.4609C184.447 55.6921 184.47 55.9199 184.516 56.1445C184.561 56.3691 184.638 56.5726 184.745 56.7549C184.856 56.9372 185.004 57.0837 185.189 57.1943C185.378 57.3018 185.613 57.3555 185.893 57.3555ZM189.921 50.5V58H189.013V50.5H189.921ZM193.148 52.7168L190.844 55.1826L189.555 56.5205L189.481 55.5586L190.404 54.4551L192.045 52.7168H193.148ZM192.323 58L190.438 55.4805L190.907 54.6748L193.388 58H192.323ZM197.47 50.5V58H196.562V50.5H197.47ZM200.697 52.7168L198.393 55.1826L197.104 56.5205L197.03 55.5586L197.953 54.4551L199.594 52.7168H200.697ZM199.872 58L197.987 55.4805L198.456 54.6748L200.937 58H199.872ZM203.725 58.0977C203.357 58.0977 203.023 58.0358 202.724 57.9121C202.427 57.7852 202.172 57.6077 201.957 57.3799C201.745 57.152 201.583 56.8818 201.469 56.5693C201.355 56.2568 201.298 55.915 201.298 55.5439V55.3389C201.298 54.9092 201.361 54.5267 201.488 54.1914C201.615 53.8529 201.788 53.5664 202.006 53.332C202.224 53.0977 202.471 52.9202 202.748 52.7998C203.025 52.6794 203.311 52.6191 203.607 52.6191C203.985 52.6191 204.311 52.6842 204.584 52.8145C204.861 52.9447 205.087 53.127 205.263 53.3613C205.438 53.5924 205.569 53.8659 205.653 54.1816C205.738 54.4941 205.78 54.8359 205.78 55.207V55.6123H201.835V54.875H204.877V54.8066C204.864 54.5723 204.815 54.3444 204.73 54.123C204.649 53.9017 204.519 53.7194 204.34 53.5762C204.161 53.4329 203.917 53.3613 203.607 53.3613C203.402 53.3613 203.214 53.4053 203.041 53.4932C202.868 53.5778 202.72 53.7048 202.597 53.874C202.473 54.0433 202.377 54.25 202.309 54.4941C202.24 54.7383 202.206 55.0199 202.206 55.3389V55.5439C202.206 55.7946 202.24 56.0306 202.309 56.252C202.38 56.4701 202.483 56.6621 202.616 56.8281C202.753 56.9941 202.917 57.1243 203.109 57.2188C203.305 57.3132 203.526 57.3604 203.773 57.3604C204.092 57.3604 204.363 57.2952 204.584 57.165C204.805 57.0348 204.999 56.8607 205.165 56.6426L205.712 57.0771C205.598 57.2497 205.453 57.4141 205.277 57.5703C205.102 57.7266 204.885 57.8535 204.628 57.9512C204.374 58.0488 204.073 58.0977 203.725 58.0977ZM208.251 57.4531L209.721 52.7168H210.688L208.568 58.8154C208.52 58.9456 208.454 59.0856 208.373 59.2354C208.295 59.3883 208.194 59.5332 208.07 59.6699C207.947 59.8066 207.797 59.9173 207.621 60.002C207.449 60.0898 207.242 60.1338 207.001 60.1338C206.929 60.1338 206.838 60.124 206.728 60.1045C206.617 60.085 206.539 60.0687 206.493 60.0557L206.488 59.3232C206.514 59.3265 206.555 59.3298 206.61 59.333C206.669 59.3395 206.71 59.3428 206.732 59.3428C206.938 59.3428 207.112 59.3151 207.255 59.2598C207.398 59.2077 207.519 59.1182 207.616 58.9912C207.717 58.8675 207.803 58.6966 207.875 58.4785L208.251 57.4531ZM207.172 52.7168L208.544 56.8184L208.778 57.7705L208.129 58.1025L206.186 52.7168H207.172ZM212.841 57.0625L214.198 52.7168H214.794L214.677 53.5811L213.295 58H212.714L212.841 57.0625ZM211.928 52.7168L213.085 57.1113L213.168 58H212.558L211.024 52.7168H211.928ZM216.093 57.0771L217.196 52.7168H218.095L216.562 58H215.956L216.093 57.0771ZM214.926 52.7168L216.254 56.9893L216.405 58H215.829L214.408 53.5713L214.291 52.7168H214.926ZM218.783 55.417V55.3047C218.783 54.9238 218.839 54.5706 218.949 54.2451C219.06 53.9163 219.219 53.6315 219.428 53.3906C219.636 53.1465 219.888 52.9577 220.185 52.8242C220.481 52.6875 220.813 52.6191 221.181 52.6191C221.552 52.6191 221.885 52.6875 222.182 52.8242C222.481 52.9577 222.735 53.1465 222.943 53.3906C223.155 53.6315 223.316 53.9163 223.427 54.2451C223.537 54.5706 223.593 54.9238 223.593 55.3047V55.417C223.593 55.7979 223.537 56.151 223.427 56.4766C223.316 56.8021 223.155 57.0869 222.943 57.3311C222.735 57.5719 222.483 57.7607 222.187 57.8975C221.894 58.0309 221.562 58.0977 221.19 58.0977C220.819 58.0977 220.486 58.0309 220.189 57.8975C219.893 57.7607 219.639 57.5719 219.428 57.3311C219.219 57.0869 219.06 56.8021 218.949 56.4766C218.839 56.151 218.783 55.7979 218.783 55.417ZM219.687 55.3047V55.417C219.687 55.6807 219.717 55.9297 219.779 56.1641C219.841 56.3952 219.934 56.6003 220.058 56.7793C220.185 56.9583 220.342 57.0999 220.531 57.2041C220.72 57.305 220.94 57.3555 221.19 57.3555C221.438 57.3555 221.654 57.305 221.84 57.2041C222.029 57.0999 222.185 56.9583 222.309 56.7793C222.432 56.6003 222.525 56.3952 222.587 56.1641C222.652 55.9297 222.685 55.6807 222.685 55.417V55.3047C222.685 55.0443 222.652 54.7985 222.587 54.5674C222.525 54.333 222.431 54.1263 222.304 53.9473C222.18 53.765 222.024 53.6217 221.835 53.5176C221.649 53.4134 221.431 53.3613 221.181 53.3613C220.933 53.3613 220.715 53.4134 220.526 53.5176C220.341 53.6217 220.185 53.765 220.058 53.9473C219.934 54.1263 219.841 54.333 219.779 54.5674C219.717 54.7985 219.687 55.0443 219.687 55.3047ZM225.629 53.5469V58H224.726V52.7168H225.604L225.629 53.5469ZM227.279 52.6875L227.274 53.5273C227.2 53.5111 227.128 53.5013 227.06 53.498C226.994 53.4915 226.92 53.4883 226.835 53.4883C226.627 53.4883 226.443 53.5208 226.283 53.5859C226.124 53.651 225.989 53.7422 225.878 53.8594C225.767 53.9766 225.679 54.1165 225.614 54.2793C225.552 54.4388 225.512 54.6146 225.492 54.8066L225.238 54.9531C225.238 54.6341 225.269 54.3346 225.331 54.0547C225.396 53.7747 225.495 53.5273 225.629 53.3125C225.762 53.0944 225.932 52.9251 226.137 52.8047C226.345 52.681 226.592 52.6191 226.879 52.6191C226.944 52.6191 227.019 52.6273 227.104 52.6436C227.188 52.6566 227.247 52.6712 227.279 52.6875ZM231.347 56.9746V50.5H232.255V58H231.425L231.347 56.9746ZM227.792 55.417V55.3145C227.792 54.9108 227.841 54.5446 227.938 54.2158C228.039 53.8838 228.181 53.599 228.363 53.3613C228.549 53.1237 228.769 52.9414 229.022 52.8145C229.28 52.6842 229.566 52.6191 229.882 52.6191C230.214 52.6191 230.504 52.6777 230.751 52.7949C231.002 52.9089 231.213 53.0765 231.386 53.2979C231.562 53.516 231.7 53.7796 231.801 54.0889C231.902 54.3981 231.972 54.748 232.011 55.1387V55.5879C231.975 55.9753 231.905 56.3236 231.801 56.6328C231.7 56.9421 231.562 57.2057 231.386 57.4238C231.213 57.6419 231.002 57.8096 230.751 57.9268C230.5 58.0407 230.207 58.0977 229.872 58.0977C229.563 58.0977 229.28 58.0309 229.022 57.8975C228.769 57.764 228.549 57.5768 228.363 57.3359C228.181 57.0951 228.039 56.8118 227.938 56.4863C227.841 56.1576 227.792 55.8011 227.792 55.417ZM228.7 55.3145V55.417C228.7 55.6807 228.726 55.9281 228.778 56.1592C228.834 56.3903 228.918 56.5938 229.032 56.7695C229.146 56.9453 229.291 57.0837 229.467 57.1846C229.643 57.2822 229.853 57.3311 230.097 57.3311C230.396 57.3311 230.642 57.2676 230.834 57.1406C231.029 57.0137 231.186 56.846 231.303 56.6377C231.42 56.4294 231.511 56.2031 231.576 55.959V54.7822C231.537 54.6032 231.48 54.4307 231.405 54.2646C231.334 54.0954 231.239 53.9456 231.122 53.8154C231.008 53.682 230.867 53.5762 230.697 53.498C230.531 53.4199 230.334 53.3809 230.106 53.3809C229.859 53.3809 229.646 53.4329 229.467 53.5371C229.291 53.638 229.146 53.778 229.032 53.957C228.918 54.1328 228.834 54.3379 228.778 54.5723C228.726 54.8034 228.7 55.0508 228.7 55.3145ZM236.737 56.5986C236.737 56.4684 236.708 56.348 236.649 56.2373C236.594 56.1234 236.479 56.0208 236.303 55.9297C236.13 55.8353 235.87 55.7539 235.521 55.6855C235.229 55.6237 234.963 55.5505 234.726 55.4658C234.491 55.3812 234.291 55.2786 234.125 55.1582C233.962 55.0378 233.837 54.8962 233.749 54.7334C233.661 54.5706 233.617 54.3802 233.617 54.1621C233.617 53.9538 233.663 53.7568 233.754 53.5713C233.848 53.3857 233.98 53.2214 234.149 53.0781C234.322 52.9349 234.529 52.8226 234.77 52.7412C235.01 52.6598 235.279 52.6191 235.575 52.6191C235.998 52.6191 236.36 52.694 236.659 52.8438C236.959 52.9935 237.188 53.1937 237.348 53.4443C237.507 53.6917 237.587 53.9668 237.587 54.2695H236.684C236.684 54.123 236.64 53.9814 236.552 53.8447C236.467 53.7048 236.342 53.5892 236.176 53.498C236.013 53.4069 235.813 53.3613 235.575 53.3613C235.325 53.3613 235.121 53.4004 234.965 53.4785C234.812 53.5534 234.7 53.6494 234.628 53.7666C234.56 53.8838 234.525 54.0075 234.525 54.1377C234.525 54.2354 234.542 54.3232 234.574 54.4014C234.61 54.4762 234.672 54.5462 234.76 54.6113C234.848 54.6732 234.971 54.7318 235.131 54.7871C235.29 54.8424 235.494 54.8978 235.741 54.9531C236.174 55.0508 236.531 55.168 236.811 55.3047C237.09 55.4414 237.299 55.609 237.436 55.8076C237.572 56.0062 237.641 56.2471 237.641 56.5303C237.641 56.7614 237.592 56.973 237.494 57.165C237.4 57.3571 237.261 57.5231 237.079 57.6631C236.9 57.7998 236.685 57.9072 236.435 57.9854C236.187 58.0602 235.909 58.0977 235.6 58.0977C235.134 58.0977 234.74 58.0146 234.418 57.8486C234.096 57.6826 233.852 57.4678 233.686 57.2041C233.52 56.9404 233.437 56.6621 233.437 56.3691H234.345C234.358 56.6165 234.429 56.8135 234.56 56.96C234.69 57.1032 234.849 57.2057 235.038 57.2676C235.227 57.3262 235.414 57.3555 235.6 57.3555C235.847 57.3555 236.054 57.3229 236.22 57.2578C236.389 57.1927 236.518 57.1032 236.605 56.9893C236.693 56.8753 236.737 56.7451 236.737 56.5986Z" fill="#898F9B"/>
<path d="M323.719 57.1846L325.525 58.6152L324.891 59.2012L323.113 57.79L323.719 57.1846ZM325.501 54.2207V54.6699C325.501 55.2038 325.434 55.6823 325.301 56.1055C325.167 56.5286 324.975 56.8883 324.725 57.1846C324.474 57.4808 324.173 57.707 323.821 57.8633C323.473 58.0195 323.082 58.0977 322.649 58.0977C322.229 58.0977 321.844 58.0195 321.492 57.8633C321.144 57.707 320.841 57.4808 320.584 57.1846C320.33 56.8883 320.133 56.5286 319.993 56.1055C319.853 55.6823 319.783 55.2038 319.783 54.6699V54.2207C319.783 53.6868 319.852 53.21 319.988 52.79C320.128 52.3669 320.325 52.0072 320.579 51.7109C320.833 51.4115 321.134 51.1836 321.482 51.0273C321.834 50.8711 322.22 50.793 322.64 50.793C323.073 50.793 323.465 50.8711 323.816 51.0273C324.168 51.1836 324.469 51.4115 324.72 51.7109C324.97 52.0072 325.162 52.3669 325.296 52.79C325.433 53.21 325.501 53.6868 325.501 54.2207ZM324.568 54.6699V54.2109C324.568 53.7878 324.524 53.4134 324.437 53.0879C324.352 52.7624 324.227 52.4889 324.061 52.2676C323.895 52.0462 323.693 51.8786 323.455 51.7646C323.217 51.6507 322.946 51.5938 322.64 51.5938C322.35 51.5938 322.086 51.6507 321.849 51.7646C321.614 51.8786 321.412 52.0462 321.243 52.2676C321.074 52.4889 320.944 52.7624 320.853 53.0879C320.761 53.4134 320.716 53.7878 320.716 54.2109V54.6699C320.716 55.0964 320.761 55.474 320.853 55.8027C320.944 56.1283 321.074 56.4033 321.243 56.6279C321.416 56.8493 321.621 57.0169 321.858 57.1309C322.096 57.2448 322.36 57.3018 322.649 57.3018C322.955 57.3018 323.227 57.2448 323.465 57.1309C323.702 57.0169 323.903 56.8493 324.065 56.6279C324.231 56.4033 324.357 56.1283 324.441 55.8027C324.526 55.474 324.568 55.0964 324.568 54.6699ZM330.052 56.7793V52.7168H330.96V58H330.096L330.052 56.7793ZM330.223 55.666L330.599 55.6562C330.599 56.0078 330.561 56.3333 330.486 56.6328C330.415 56.929 330.298 57.1862 330.135 57.4043C329.972 57.6224 329.759 57.7933 329.495 57.917C329.231 58.0374 328.911 58.0977 328.533 58.0977C328.276 58.0977 328.04 58.0602 327.825 57.9854C327.614 57.9105 327.431 57.7949 327.278 57.6387C327.125 57.4824 327.007 57.279 326.922 57.0283C326.84 56.7777 326.8 56.4766 326.8 56.125V52.7168H327.703V56.1348C327.703 56.3724 327.729 56.5693 327.781 56.7256C327.837 56.8786 327.91 57.0007 328.001 57.0918C328.095 57.1797 328.2 57.2415 328.313 57.2773C328.431 57.3132 328.551 57.3311 328.675 57.3311C329.059 57.3311 329.363 57.2578 329.588 57.1113C329.812 56.9616 329.974 56.7614 330.071 56.5107C330.172 56.2568 330.223 55.9753 330.223 55.666ZM335.452 57.0967V54.377C335.452 54.1686 335.41 53.988 335.325 53.835C335.244 53.6787 335.12 53.5583 334.954 53.4736C334.788 53.389 334.583 53.3467 334.339 53.3467C334.111 53.3467 333.911 53.3857 333.738 53.4639C333.569 53.542 333.436 53.6445 333.338 53.7715C333.243 53.8984 333.196 54.0352 333.196 54.1816H332.293C332.293 53.9928 332.342 53.8057 332.439 53.6201C332.537 53.4346 332.677 53.2669 332.859 53.1172C333.045 52.9642 333.266 52.8438 333.523 52.7559C333.784 52.6647 334.074 52.6191 334.393 52.6191C334.777 52.6191 335.115 52.6842 335.408 52.8145C335.704 52.9447 335.936 53.1416 336.102 53.4053C336.271 53.6657 336.355 53.9928 336.355 54.3867V56.8477C336.355 57.0234 336.37 57.2106 336.399 57.4092C336.432 57.6077 336.479 57.7786 336.541 57.9219V58H335.599C335.553 57.8958 335.517 57.7575 335.491 57.585C335.465 57.4092 335.452 57.2464 335.452 57.0967ZM335.608 54.7969L335.618 55.4316H334.705C334.448 55.4316 334.218 55.4528 334.017 55.4951C333.815 55.5342 333.646 55.5944 333.509 55.6758C333.372 55.7572 333.268 55.8597 333.196 55.9834C333.125 56.1038 333.089 56.2454 333.089 56.4082C333.089 56.5742 333.126 56.7256 333.201 56.8623C333.276 56.999 333.388 57.1081 333.538 57.1895C333.691 57.2676 333.878 57.3066 334.1 57.3066C334.376 57.3066 334.62 57.248 334.832 57.1309C335.044 57.0137 335.211 56.8704 335.335 56.7012C335.462 56.5319 335.53 56.3675 335.54 56.208L335.926 56.6426C335.903 56.7793 335.841 56.9307 335.74 57.0967C335.639 57.2627 335.504 57.4222 335.335 57.5752C335.169 57.7249 334.97 57.8503 334.739 57.9512C334.511 58.0488 334.254 58.0977 333.968 58.0977C333.61 58.0977 333.296 58.0277 333.025 57.8877C332.758 57.7477 332.55 57.5605 332.4 57.3262C332.254 57.0885 332.181 56.8232 332.181 56.5303C332.181 56.2471 332.236 55.998 332.347 55.7832C332.457 55.5651 332.617 55.3844 332.825 55.2412C333.034 55.0947 333.284 54.984 333.577 54.9092C333.87 54.8343 334.197 54.7969 334.559 54.7969H335.608ZM338.68 53.8447V58H337.776V52.7168H338.631L338.68 53.8447ZM338.465 55.1582L338.089 55.1436C338.092 54.7822 338.146 54.4486 338.25 54.1426C338.354 53.8333 338.501 53.5648 338.689 53.3369C338.878 53.109 339.103 52.9333 339.363 52.8096C339.627 52.6826 339.918 52.6191 340.237 52.6191C340.498 52.6191 340.732 52.6549 340.94 52.7266C341.149 52.7949 341.326 52.9056 341.473 53.0586C341.622 53.2116 341.736 53.4102 341.814 53.6543C341.893 53.8952 341.932 54.1898 341.932 54.5381V58H341.023V54.5283C341.023 54.2516 340.983 54.0303 340.901 53.8643C340.82 53.695 340.701 53.5729 340.545 53.498C340.389 53.4199 340.197 53.3809 339.969 53.3809C339.744 53.3809 339.539 53.4281 339.354 53.5225C339.171 53.6169 339.013 53.7471 338.88 53.9131C338.75 54.0791 338.647 54.2695 338.572 54.4844C338.501 54.696 338.465 54.9206 338.465 55.1582ZM345.516 52.7168V53.4102H342.659V52.7168H345.516ZM343.626 51.4326H344.529V56.6914C344.529 56.8704 344.557 57.0055 344.612 57.0967C344.668 57.1878 344.739 57.248 344.827 57.2773C344.915 57.3066 345.009 57.3213 345.11 57.3213C345.185 57.3213 345.263 57.3148 345.345 57.3018C345.429 57.2855 345.493 57.2725 345.535 57.2627L345.54 58C345.468 58.0228 345.374 58.0439 345.257 58.0635C345.143 58.0863 345.005 58.0977 344.842 58.0977C344.62 58.0977 344.417 58.0537 344.231 57.9658C344.046 57.8779 343.898 57.7314 343.787 57.5264C343.68 57.318 343.626 57.0381 343.626 56.6865V51.4326ZM347.557 52.7168V58H346.648V52.7168H347.557ZM346.58 51.3154C346.58 51.1689 346.624 51.0452 346.712 50.9443C346.803 50.8434 346.937 50.793 347.112 50.793C347.285 50.793 347.417 50.8434 347.508 50.9443C347.602 51.0452 347.649 51.1689 347.649 51.3154C347.649 51.4554 347.602 51.5758 347.508 51.6768C347.417 51.7744 347.285 51.8232 347.112 51.8232C346.937 51.8232 346.803 51.7744 346.712 51.6768C346.624 51.5758 346.58 51.4554 346.58 51.3154ZM350.354 58H349.451V52.1602C349.451 51.7793 349.52 51.4587 349.656 51.1982C349.796 50.9346 349.996 50.736 350.257 50.6025C350.517 50.4658 350.826 50.3975 351.185 50.3975C351.289 50.3975 351.393 50.404 351.497 50.417C351.604 50.43 351.709 50.4495 351.81 50.4756L351.761 51.2129C351.692 51.1966 351.614 51.1852 351.526 51.1787C351.442 51.1722 351.357 51.1689 351.272 51.1689C351.08 51.1689 350.914 51.208 350.774 51.2861C350.638 51.361 350.534 51.4717 350.462 51.6182C350.39 51.7646 350.354 51.9453 350.354 52.1602V58ZM351.478 52.7168V53.4102H348.616V52.7168H351.478ZM353.968 57.4531L355.438 52.7168H356.404L354.285 58.8154C354.236 58.9456 354.171 59.0856 354.09 59.2354C354.012 59.3883 353.911 59.5332 353.787 59.6699C353.663 59.8066 353.514 59.9173 353.338 60.002C353.165 60.0898 352.959 60.1338 352.718 60.1338C352.646 60.1338 352.555 60.124 352.444 60.1045C352.334 60.085 352.256 60.0687 352.21 60.0557L352.205 59.3232C352.231 59.3265 352.272 59.3298 352.327 59.333C352.386 59.3395 352.426 59.3428 352.449 59.3428C352.654 59.3428 352.828 59.3151 352.972 59.2598C353.115 59.2077 353.235 59.1182 353.333 58.9912C353.434 58.8675 353.52 58.6966 353.592 58.4785L353.968 57.4531ZM352.889 52.7168L354.261 56.8184L354.495 57.7705L353.846 58.1025L351.902 52.7168H352.889ZM363.03 56.9746V50.5H363.938V58H363.108L363.03 56.9746ZM359.476 55.417V55.3145C359.476 54.9108 359.524 54.5446 359.622 54.2158C359.723 53.8838 359.865 53.599 360.047 53.3613C360.232 53.1237 360.452 52.9414 360.706 52.8145C360.963 52.6842 361.25 52.6191 361.565 52.6191C361.897 52.6191 362.187 52.6777 362.435 52.7949C362.685 52.9089 362.897 53.0765 363.069 53.2979C363.245 53.516 363.383 53.7796 363.484 54.0889C363.585 54.3981 363.655 54.748 363.694 55.1387V55.5879C363.659 55.9753 363.589 56.3236 363.484 56.6328C363.383 56.9421 363.245 57.2057 363.069 57.4238C362.897 57.6419 362.685 57.8096 362.435 57.9268C362.184 58.0407 361.891 58.0977 361.556 58.0977C361.246 58.0977 360.963 58.0309 360.706 57.8975C360.452 57.764 360.232 57.5768 360.047 57.3359C359.865 57.0951 359.723 56.8118 359.622 56.4863C359.524 56.1576 359.476 55.8011 359.476 55.417ZM360.384 55.3145V55.417C360.384 55.6807 360.41 55.9281 360.462 56.1592C360.517 56.3903 360.602 56.5938 360.716 56.7695C360.83 56.9453 360.975 57.0837 361.15 57.1846C361.326 57.2822 361.536 57.3311 361.78 57.3311C362.08 57.3311 362.326 57.2676 362.518 57.1406C362.713 57.0137 362.869 56.846 362.986 56.6377C363.104 56.4294 363.195 56.2031 363.26 55.959V54.7822C363.221 54.6032 363.164 54.4307 363.089 54.2646C363.017 54.0954 362.923 53.9456 362.806 53.8154C362.692 53.682 362.55 53.5762 362.381 53.498C362.215 53.4199 362.018 53.3809 361.79 53.3809C361.543 53.3809 361.329 53.4329 361.15 53.5371C360.975 53.638 360.83 53.778 360.716 53.957C360.602 54.1328 360.517 54.3379 360.462 54.5723C360.41 54.8034 360.384 55.0508 360.384 55.3145ZM368.46 57.0967V54.377C368.46 54.1686 368.418 53.988 368.333 53.835C368.252 53.6787 368.128 53.5583 367.962 53.4736C367.796 53.389 367.591 53.3467 367.347 53.3467C367.119 53.3467 366.919 53.3857 366.746 53.4639C366.577 53.542 366.443 53.6445 366.346 53.7715C366.251 53.8984 366.204 54.0352 366.204 54.1816H365.301C365.301 53.9928 365.35 53.8057 365.447 53.6201C365.545 53.4346 365.685 53.2669 365.867 53.1172C366.053 52.9642 366.274 52.8438 366.531 52.7559C366.792 52.6647 367.081 52.6191 367.4 52.6191C367.785 52.6191 368.123 52.6842 368.416 52.8145C368.712 52.9447 368.943 53.1416 369.109 53.4053C369.279 53.6657 369.363 53.9928 369.363 54.3867V56.8477C369.363 57.0234 369.378 57.2106 369.407 57.4092C369.44 57.6077 369.487 57.7786 369.549 57.9219V58H368.606C368.561 57.8958 368.525 57.7575 368.499 57.585C368.473 57.4092 368.46 57.2464 368.46 57.0967ZM368.616 54.7969L368.626 55.4316H367.713C367.456 55.4316 367.226 55.4528 367.024 55.4951C366.823 55.5342 366.653 55.5944 366.517 55.6758C366.38 55.7572 366.276 55.8597 366.204 55.9834C366.132 56.1038 366.097 56.2454 366.097 56.4082C366.097 56.5742 366.134 56.7256 366.209 56.8623C366.284 56.999 366.396 57.1081 366.546 57.1895C366.699 57.2676 366.886 57.3066 367.107 57.3066C367.384 57.3066 367.628 57.248 367.84 57.1309C368.051 57.0137 368.219 56.8704 368.343 56.7012C368.47 56.5319 368.538 56.3675 368.548 56.208L368.934 56.6426C368.911 56.7793 368.849 56.9307 368.748 57.0967C368.647 57.2627 368.512 57.4222 368.343 57.5752C368.177 57.7249 367.978 57.8503 367.747 57.9512C367.519 58.0488 367.262 58.0977 366.976 58.0977C366.618 58.0977 366.303 58.0277 366.033 57.8877C365.766 57.7477 365.558 57.5605 365.408 57.3262C365.262 57.0885 365.188 56.8232 365.188 56.5303C365.188 56.2471 365.244 55.998 365.354 55.7832C365.465 55.5651 365.625 55.3844 365.833 55.2412C366.041 55.0947 366.292 54.984 366.585 54.9092C366.878 54.8343 367.205 54.7969 367.566 54.7969H368.616ZM372.996 52.7168V53.4102H370.14V52.7168H372.996ZM371.106 51.4326H372.01V56.6914C372.01 56.8704 372.037 57.0055 372.093 57.0967C372.148 57.1878 372.22 57.248 372.308 57.2773C372.396 57.3066 372.49 57.3213 372.591 57.3213C372.666 57.3213 372.744 57.3148 372.825 57.3018C372.91 57.2855 372.973 57.2725 373.016 57.2627L373.021 58C372.949 58.0228 372.854 58.0439 372.737 58.0635C372.623 58.0863 372.485 58.0977 372.322 58.0977C372.101 58.0977 371.897 58.0537 371.712 57.9658C371.526 57.8779 371.378 57.7314 371.268 57.5264C371.16 57.318 371.106 57.0381 371.106 56.6865V51.4326ZM377.171 57.0967V54.377C377.171 54.1686 377.129 53.988 377.044 53.835C376.963 53.6787 376.839 53.5583 376.673 53.4736C376.507 53.389 376.302 53.3467 376.058 53.3467C375.83 53.3467 375.63 53.3857 375.457 53.4639C375.288 53.542 375.154 53.6445 375.057 53.7715C374.962 53.8984 374.915 54.0352 374.915 54.1816H374.012C374.012 53.9928 374.061 53.8057 374.158 53.6201C374.256 53.4346 374.396 53.2669 374.578 53.1172C374.764 52.9642 374.985 52.8438 375.242 52.7559C375.503 52.6647 375.792 52.6191 376.111 52.6191C376.495 52.6191 376.834 52.6842 377.127 52.8145C377.423 52.9447 377.654 53.1416 377.82 53.4053C377.99 53.6657 378.074 53.9928 378.074 54.3867V56.8477C378.074 57.0234 378.089 57.2106 378.118 57.4092C378.151 57.6077 378.198 57.7786 378.26 57.9219V58H377.317C377.272 57.8958 377.236 57.7575 377.21 57.585C377.184 57.4092 377.171 57.2464 377.171 57.0967ZM377.327 54.7969L377.337 55.4316H376.424C376.167 55.4316 375.937 55.4528 375.735 55.4951C375.534 55.5342 375.364 55.5944 375.228 55.6758C375.091 55.7572 374.987 55.8597 374.915 55.9834C374.843 56.1038 374.808 56.2454 374.808 56.4082C374.808 56.5742 374.845 56.7256 374.92 56.8623C374.995 56.999 375.107 57.1081 375.257 57.1895C375.41 57.2676 375.597 57.3066 375.818 57.3066C376.095 57.3066 376.339 57.248 376.551 57.1309C376.762 57.0137 376.93 56.8704 377.054 56.7012C377.181 56.5319 377.249 56.3675 377.259 56.208L377.645 56.6426C377.622 56.7793 377.56 56.9307 377.459 57.0967C377.358 57.2627 377.223 57.4222 377.054 57.5752C376.888 57.7249 376.689 57.8503 376.458 57.9512C376.23 58.0488 375.973 58.0977 375.687 58.0977C375.328 58.0977 375.014 58.0277 374.744 57.8877C374.477 57.7477 374.269 57.5605 374.119 57.3262C373.973 57.0885 373.899 56.8232 373.899 56.5303C373.899 56.2471 373.955 55.998 374.065 55.7832C374.176 55.5651 374.336 55.3844 374.544 55.2412C374.752 55.0947 375.003 54.984 375.296 54.9092C375.589 54.8343 375.916 54.7969 376.277 54.7969H377.327ZM383.323 58H382.42V52.1602C382.42 51.7793 382.488 51.4587 382.625 51.1982C382.765 50.9346 382.965 50.736 383.226 50.6025C383.486 50.4658 383.795 50.3975 384.153 50.3975C384.257 50.3975 384.362 50.404 384.466 50.417C384.573 50.43 384.677 50.4495 384.778 50.4756L384.729 51.2129C384.661 51.1966 384.583 51.1852 384.495 51.1787C384.41 51.1722 384.326 51.1689 384.241 51.1689C384.049 51.1689 383.883 51.208 383.743 51.2861C383.606 51.361 383.502 51.4717 383.431 51.6182C383.359 51.7646 383.323 51.9453 383.323 52.1602V58ZM384.446 52.7168V53.4102H381.585V52.7168H384.446ZM386.355 53.5469V58H385.452V52.7168H386.331L386.355 53.5469ZM388.006 52.6875L388.001 53.5273C387.926 53.5111 387.854 53.5013 387.786 53.498C387.721 53.4915 387.646 53.4883 387.562 53.4883C387.353 53.4883 387.169 53.5208 387.01 53.5859C386.85 53.651 386.715 53.7422 386.604 53.8594C386.494 53.9766 386.406 54.1165 386.341 54.2793C386.279 54.4388 386.238 54.6146 386.219 54.8066L385.965 54.9531C385.965 54.6341 385.996 54.3346 386.058 54.0547C386.123 53.7747 386.222 53.5273 386.355 53.3125C386.489 53.0944 386.658 52.9251 386.863 52.8047C387.072 52.681 387.319 52.6191 387.605 52.6191C387.671 52.6191 387.745 52.6273 387.83 52.6436C387.915 52.6566 387.973 52.6712 388.006 52.6875ZM388.504 55.417V55.3047C388.504 54.9238 388.559 54.5706 388.67 54.2451C388.781 53.9163 388.94 53.6315 389.148 53.3906C389.357 53.1465 389.609 52.9577 389.905 52.8242C390.201 52.6875 390.534 52.6191 390.901 52.6191C391.272 52.6191 391.606 52.6875 391.902 52.8242C392.202 52.9577 392.456 53.1465 392.664 53.3906C392.876 53.6315 393.037 53.9163 393.147 54.2451C393.258 54.5706 393.313 54.9238 393.313 55.3047V55.417C393.313 55.7979 393.258 56.151 393.147 56.4766C393.037 56.8021 392.876 57.0869 392.664 57.3311C392.456 57.5719 392.203 57.7607 391.907 57.8975C391.614 58.0309 391.282 58.0977 390.911 58.0977C390.54 58.0977 390.206 58.0309 389.91 57.8975C389.614 57.7607 389.36 57.5719 389.148 57.3311C388.94 57.0869 388.781 56.8021 388.67 56.4766C388.559 56.151 388.504 55.7979 388.504 55.417ZM389.407 55.3047V55.417C389.407 55.6807 389.438 55.9297 389.5 56.1641C389.562 56.3952 389.655 56.6003 389.778 56.7793C389.905 56.9583 390.063 57.0999 390.252 57.2041C390.441 57.305 390.66 57.3555 390.911 57.3555C391.159 57.3555 391.375 57.305 391.561 57.2041C391.749 57.0999 391.906 56.9583 392.029 56.7793C392.153 56.6003 392.246 56.3952 392.308 56.1641C392.373 55.9297 392.405 55.6807 392.405 55.417V55.3047C392.405 55.0443 392.373 54.7985 392.308 54.5674C392.246 54.333 392.151 54.1263 392.024 53.9473C391.901 53.765 391.744 53.6217 391.556 53.5176C391.37 53.4134 391.152 53.3613 390.901 53.3613C390.654 53.3613 390.436 53.4134 390.247 53.5176C390.062 53.6217 389.905 53.765 389.778 53.9473C389.655 54.1263 389.562 54.333 389.5 54.5674C389.438 54.7985 389.407 55.0443 389.407 55.3047ZM395.345 53.7666V58H394.437V52.7168H395.296L395.345 53.7666ZM395.159 55.1582L394.739 55.1436C394.743 54.7822 394.79 54.4486 394.881 54.1426C394.972 53.8333 395.107 53.5648 395.286 53.3369C395.465 53.109 395.688 52.9333 395.955 52.8096C396.222 52.6826 396.531 52.6191 396.883 52.6191C397.13 52.6191 397.358 52.6549 397.566 52.7266C397.775 52.7949 397.955 52.904 398.108 53.0537C398.261 53.2035 398.38 53.3955 398.465 53.6299C398.549 53.8643 398.592 54.1475 398.592 54.4795V58H397.688V54.5234C397.688 54.2467 397.641 54.0254 397.547 53.8594C397.456 53.6934 397.326 53.5729 397.156 53.498C396.987 53.4199 396.788 53.3809 396.561 53.3809C396.294 53.3809 396.071 53.4281 395.892 53.5225C395.713 53.6169 395.569 53.7471 395.462 53.9131C395.354 54.0791 395.276 54.2695 395.228 54.4844C395.182 54.696 395.159 54.9206 395.159 55.1582ZM398.582 54.6602L397.977 54.8457C397.98 54.556 398.027 54.2777 398.118 54.0107C398.213 53.7438 398.348 53.5062 398.523 53.2979C398.702 53.0895 398.922 52.9251 399.183 52.8047C399.443 52.681 399.741 52.6191 400.076 52.6191C400.359 52.6191 400.61 52.6566 400.828 52.7314C401.049 52.8063 401.235 52.9219 401.385 53.0781C401.538 53.2311 401.653 53.4281 401.731 53.6689C401.81 53.9098 401.849 54.1963 401.849 54.5283V58H400.94V54.5186C400.94 54.2223 400.893 53.9928 400.799 53.8301C400.708 53.6641 400.577 53.5485 400.408 53.4834C400.242 53.415 400.044 53.3809 399.812 53.3809C399.614 53.3809 399.438 53.415 399.285 53.4834C399.132 53.5518 399.004 53.6462 398.899 53.7666C398.795 53.8838 398.715 54.0189 398.66 54.1719C398.608 54.3249 398.582 54.4876 398.582 54.6602ZM406.604 50.5V58H405.696V50.5H406.604ZM409.832 52.7168L407.527 55.1826L406.238 56.5205L406.165 55.5586L407.088 54.4551L408.729 52.7168H409.832ZM409.007 58L407.122 55.4805L407.591 54.6748L410.071 58H409.007ZM412.859 58.0977C412.492 58.0977 412.158 58.0358 411.858 57.9121C411.562 57.7852 411.307 57.6077 411.092 57.3799C410.88 57.152 410.717 56.8818 410.604 56.5693C410.49 56.2568 410.433 55.915 410.433 55.5439V55.3389C410.433 54.9092 410.496 54.5267 410.623 54.1914C410.75 53.8529 410.923 53.5664 411.141 53.332C411.359 53.0977 411.606 52.9202 411.883 52.7998C412.16 52.6794 412.446 52.6191 412.742 52.6191C413.12 52.6191 413.445 52.6842 413.719 52.8145C413.995 52.9447 414.222 53.127 414.397 53.3613C414.573 53.5924 414.703 53.8659 414.788 54.1816C414.873 54.4941 414.915 54.8359 414.915 55.207V55.6123H410.97V54.875H414.012V54.8066C413.999 54.5723 413.95 54.3444 413.865 54.123C413.784 53.9017 413.654 53.7194 413.475 53.5762C413.296 53.4329 413.051 53.3613 412.742 53.3613C412.537 53.3613 412.348 53.4053 412.176 53.4932C412.003 53.5778 411.855 53.7048 411.731 53.874C411.608 54.0433 411.512 54.25 411.443 54.4941C411.375 54.7383 411.341 55.0199 411.341 55.3389V55.5439C411.341 55.7946 411.375 56.0306 411.443 56.252C411.515 56.4701 411.618 56.6621 411.751 56.8281C411.888 56.9941 412.052 57.1243 412.244 57.2188C412.439 57.3132 412.661 57.3604 412.908 57.3604C413.227 57.3604 413.497 57.2952 413.719 57.165C413.94 57.0348 414.134 56.8607 414.3 56.6426L414.847 57.0771C414.733 57.2497 414.588 57.4141 414.412 57.5703C414.236 57.7266 414.02 57.8535 413.763 57.9512C413.509 58.0488 413.208 58.0977 412.859 58.0977ZM417.386 57.4531L418.855 52.7168H419.822L417.703 58.8154C417.654 58.9456 417.589 59.0856 417.508 59.2354C417.43 59.3883 417.329 59.5332 417.205 59.6699C417.081 59.8066 416.932 59.9173 416.756 60.002C416.583 60.0898 416.377 60.1338 416.136 60.1338C416.064 60.1338 415.973 60.124 415.862 60.1045C415.752 60.085 415.674 60.0687 415.628 60.0557L415.623 59.3232C415.649 59.3265 415.69 59.3298 415.745 59.333C415.804 59.3395 415.844 59.3428 415.867 59.3428C416.072 59.3428 416.246 59.3151 416.39 59.2598C416.533 59.2077 416.653 59.1182 416.751 58.9912C416.852 58.8675 416.938 58.6966 417.01 58.4785L417.386 57.4531ZM416.307 52.7168L417.679 56.8184L417.913 57.7705L417.264 58.1025L415.32 52.7168H416.307ZM424.456 57.0625L425.813 52.7168H426.409L426.292 53.5811L424.91 58H424.329L424.456 57.0625ZM423.543 52.7168L424.7 57.1113L424.783 58H424.173L422.64 52.7168H423.543ZM427.708 57.0771L428.812 52.7168H429.71L428.177 58H427.571L427.708 57.0771ZM426.541 52.7168L427.869 56.9893L428.021 58H427.444L426.023 53.5713L425.906 52.7168H426.541ZM430.398 55.417V55.3047C430.398 54.9238 430.454 54.5706 430.564 54.2451C430.675 53.9163 430.835 53.6315 431.043 53.3906C431.251 53.1465 431.504 52.9577 431.8 52.8242C432.096 52.6875 432.428 52.6191 432.796 52.6191C433.167 52.6191 433.501 52.6875 433.797 52.8242C434.096 52.9577 434.35 53.1465 434.559 53.3906C434.77 53.6315 434.931 53.9163 435.042 54.2451C435.153 54.5706 435.208 54.9238 435.208 55.3047V55.417C435.208 55.7979 435.153 56.151 435.042 56.4766C434.931 56.8021 434.77 57.0869 434.559 57.3311C434.35 57.5719 434.098 57.7607 433.802 57.8975C433.509 58.0309 433.177 58.0977 432.806 58.0977C432.435 58.0977 432.101 58.0309 431.805 57.8975C431.508 57.7607 431.255 57.5719 431.043 57.3311C430.835 57.0869 430.675 56.8021 430.564 56.4766C430.454 56.151 430.398 55.7979 430.398 55.417ZM431.302 55.3047V55.417C431.302 55.6807 431.333 55.9297 431.395 56.1641C431.456 56.3952 431.549 56.6003 431.673 56.7793C431.8 56.9583 431.958 57.0999 432.146 57.2041C432.335 57.305 432.555 57.3555 432.806 57.3555C433.053 57.3555 433.27 57.305 433.455 57.2041C433.644 57.0999 433.8 56.9583 433.924 56.7793C434.048 56.6003 434.14 56.3952 434.202 56.1641C434.267 55.9297 434.3 55.6807 434.3 55.417V55.3047C434.3 55.0443 434.267 54.7985 434.202 54.5674C434.14 54.333 434.046 54.1263 433.919 53.9473C433.795 53.765 433.639 53.6217 433.45 53.5176C433.265 53.4134 433.047 53.3613 432.796 53.3613C432.549 53.3613 432.33 53.4134 432.142 53.5176C431.956 53.6217 431.8 53.765 431.673 53.9473C431.549 54.1263 431.456 54.333 431.395 54.5674C431.333 54.7985 431.302 55.0443 431.302 55.3047ZM437.244 53.5469V58H436.341V52.7168H437.22L437.244 53.5469ZM438.895 52.6875L438.89 53.5273C438.815 53.5111 438.743 53.5013 438.675 53.498C438.61 53.4915 438.535 53.4883 438.45 53.4883C438.242 53.4883 438.058 53.5208 437.898 53.5859C437.739 53.651 437.604 53.7422 437.493 53.8594C437.382 53.9766 437.295 54.1165 437.229 54.2793C437.168 54.4388 437.127 54.6146 437.107 54.8066L436.854 54.9531C436.854 54.6341 436.884 54.3346 436.946 54.0547C437.011 53.7747 437.111 53.5273 437.244 53.3125C437.378 53.0944 437.547 52.9251 437.752 52.8047C437.96 52.681 438.208 52.6191 438.494 52.6191C438.559 52.6191 438.634 52.6273 438.719 52.6436C438.803 52.6566 438.862 52.6712 438.895 52.6875ZM442.962 56.9746V50.5H443.87V58H443.04L442.962 56.9746ZM439.407 55.417V55.3145C439.407 54.9108 439.456 54.5446 439.554 54.2158C439.655 53.8838 439.796 53.599 439.979 53.3613C440.164 53.1237 440.384 52.9414 440.638 52.8145C440.895 52.6842 441.181 52.6191 441.497 52.6191C441.829 52.6191 442.119 52.6777 442.366 52.7949C442.617 52.9089 442.828 53.0765 443.001 53.2979C443.177 53.516 443.315 53.7796 443.416 54.0889C443.517 54.3981 443.587 54.748 443.626 55.1387V55.5879C443.59 55.9753 443.52 56.3236 443.416 56.6328C443.315 56.9421 443.177 57.2057 443.001 57.4238C442.828 57.6419 442.617 57.8096 442.366 57.9268C442.116 58.0407 441.823 58.0977 441.487 58.0977C441.178 58.0977 440.895 58.0309 440.638 57.8975C440.384 57.764 440.164 57.5768 439.979 57.3359C439.796 57.0951 439.655 56.8118 439.554 56.4863C439.456 56.1576 439.407 55.8011 439.407 55.417ZM440.315 55.3145V55.417C440.315 55.6807 440.341 55.9281 440.394 56.1592C440.449 56.3903 440.534 56.5938 440.647 56.7695C440.761 56.9453 440.906 57.0837 441.082 57.1846C441.258 57.2822 441.468 57.3311 441.712 57.3311C442.011 57.3311 442.257 57.2676 442.449 57.1406C442.645 57.0137 442.801 56.846 442.918 56.6377C443.035 56.4294 443.126 56.2031 443.191 55.959V54.7822C443.152 54.6032 443.095 54.4307 443.021 54.2646C442.949 54.0954 442.854 53.9456 442.737 53.8154C442.623 53.682 442.482 53.5762 442.312 53.498C442.146 53.4199 441.95 53.3809 441.722 53.3809C441.474 53.3809 441.261 53.4329 441.082 53.5371C440.906 53.638 440.761 53.778 440.647 53.957C440.534 54.1328 440.449 54.3379 440.394 54.5723C440.341 54.8034 440.315 55.0508 440.315 55.3145ZM448.353 56.5986C448.353 56.4684 448.323 56.348 448.265 56.2373C448.209 56.1234 448.094 56.0208 447.918 55.9297C447.745 55.8353 447.485 55.7539 447.137 55.6855C446.844 55.6237 446.578 55.5505 446.341 55.4658C446.106 55.3812 445.906 55.2786 445.74 55.1582C445.577 55.0378 445.452 54.8962 445.364 54.7334C445.276 54.5706 445.232 54.3802 445.232 54.1621C445.232 53.9538 445.278 53.7568 445.369 53.5713C445.464 53.3857 445.595 53.2214 445.765 53.0781C445.937 52.9349 446.144 52.8226 446.385 52.7412C446.626 52.6598 446.894 52.6191 447.19 52.6191C447.614 52.6191 447.975 52.694 448.274 52.8438C448.574 52.9935 448.803 53.1937 448.963 53.4443C449.122 53.6917 449.202 53.9668 449.202 54.2695H448.299C448.299 54.123 448.255 53.9814 448.167 53.8447C448.082 53.7048 447.957 53.5892 447.791 53.498C447.628 53.4069 447.428 53.3613 447.19 53.3613C446.94 53.3613 446.736 53.4004 446.58 53.4785C446.427 53.5534 446.315 53.6494 446.243 53.7666C446.175 53.8838 446.141 54.0075 446.141 54.1377C446.141 54.2354 446.157 54.3232 446.189 54.4014C446.225 54.4762 446.287 54.5462 446.375 54.6113C446.463 54.6732 446.587 54.7318 446.746 54.7871C446.906 54.8424 447.109 54.8978 447.356 54.9531C447.789 55.0508 448.146 55.168 448.426 55.3047C448.706 55.4414 448.914 55.609 449.051 55.8076C449.188 56.0062 449.256 56.2471 449.256 56.5303C449.256 56.7614 449.207 56.973 449.109 57.165C449.015 57.3571 448.877 57.5231 448.694 57.6631C448.515 57.7998 448.3 57.9072 448.05 57.9854C447.802 58.0602 447.524 58.0977 447.215 58.0977C446.749 58.0977 446.355 58.0146 446.033 57.8486C445.711 57.6826 445.467 57.4678 445.301 57.2041C445.135 56.9404 445.052 56.6621 445.052 56.3691H445.96C445.973 56.6165 446.045 56.8135 446.175 56.96C446.305 57.1032 446.465 57.2057 446.653 57.2676C446.842 57.3262 447.029 57.3555 447.215 57.3555C447.462 57.3555 447.669 57.3229 447.835 57.2578C448.004 57.1927 448.133 57.1032 448.221 56.9893C448.309 56.8753 448.353 56.7451 448.353 56.5986Z" fill="#898F9B"/>
<path d="M507.458 55.7393H508.396C508.347 56.1885 508.218 56.5905 508.01 56.9453C507.801 57.3001 507.507 57.5817 507.126 57.79C506.745 57.9951 506.27 58.0977 505.7 58.0977C505.284 58.0977 504.904 58.0195 504.562 57.8633C504.224 57.707 503.933 57.4857 503.688 57.1992C503.444 56.9095 503.256 56.5628 503.122 56.1592C502.992 55.7523 502.927 55.2998 502.927 54.8018V54.0938C502.927 53.5957 502.992 53.1449 503.122 52.7412C503.256 52.3343 503.446 51.986 503.693 51.6963C503.944 51.4066 504.245 51.1836 504.597 51.0273C504.948 50.8711 505.344 50.793 505.783 50.793C506.32 50.793 506.774 50.8939 507.146 51.0957C507.517 51.2975 507.805 51.5775 508.01 51.9355C508.218 52.2904 508.347 52.7021 508.396 53.1709H507.458C507.412 52.8389 507.328 52.554 507.204 52.3164C507.08 52.0755 506.905 51.89 506.677 51.7598C506.449 51.6296 506.151 51.5645 505.783 51.5645C505.467 51.5645 505.189 51.6247 504.948 51.7451C504.711 51.8656 504.51 52.0365 504.348 52.2578C504.188 52.4792 504.068 52.7445 503.986 53.0537C503.905 53.363 503.864 53.7064 503.864 54.084V54.8018C503.864 55.1501 503.9 55.4772 503.972 55.7832C504.047 56.0892 504.159 56.3577 504.309 56.5889C504.458 56.82 504.649 57.0023 504.88 57.1357C505.111 57.266 505.384 57.3311 505.7 57.3311C506.101 57.3311 506.42 57.2676 506.657 57.1406C506.895 57.0137 507.074 56.8314 507.194 56.5938C507.318 56.3561 507.406 56.0713 507.458 55.7393ZM509.304 55.417V55.3047C509.304 54.9238 509.359 54.5706 509.47 54.2451C509.58 53.9163 509.74 53.6315 509.948 53.3906C510.157 53.1465 510.409 52.9577 510.705 52.8242C511.001 52.6875 511.333 52.6191 511.701 52.6191C512.072 52.6191 512.406 52.6875 512.702 52.8242C513.002 52.9577 513.256 53.1465 513.464 53.3906C513.675 53.6315 513.837 53.9163 513.947 54.2451C514.058 54.5706 514.113 54.9238 514.113 55.3047V55.417C514.113 55.7979 514.058 56.151 513.947 56.4766C513.837 56.8021 513.675 57.0869 513.464 57.3311C513.256 57.5719 513.003 57.7607 512.707 57.8975C512.414 58.0309 512.082 58.0977 511.711 58.0977C511.34 58.0977 511.006 58.0309 510.71 57.8975C510.414 57.7607 510.16 57.5719 509.948 57.3311C509.74 57.0869 509.58 56.8021 509.47 56.4766C509.359 56.151 509.304 55.7979 509.304 55.417ZM510.207 55.3047V55.417C510.207 55.6807 510.238 55.9297 510.3 56.1641C510.362 56.3952 510.454 56.6003 510.578 56.7793C510.705 56.9583 510.863 57.0999 511.052 57.2041C511.241 57.305 511.46 57.3555 511.711 57.3555C511.958 57.3555 512.175 57.305 512.36 57.2041C512.549 57.0999 512.705 56.9583 512.829 56.7793C512.953 56.6003 513.046 56.3952 513.107 56.1641C513.173 55.9297 513.205 55.6807 513.205 55.417V55.3047C513.205 55.0443 513.173 54.7985 513.107 54.5674C513.046 54.333 512.951 54.1263 512.824 53.9473C512.701 53.765 512.544 53.6217 512.355 53.5176C512.17 53.4134 511.952 53.3613 511.701 53.3613C511.454 53.3613 511.236 53.4134 511.047 53.5176C510.861 53.6217 510.705 53.765 510.578 53.9473C510.454 54.1263 510.362 54.333 510.3 54.5674C510.238 54.7985 510.207 55.0443 510.207 55.3047ZM516.145 53.7666V58H515.236V52.7168H516.096L516.145 53.7666ZM515.959 55.1582L515.539 55.1436C515.542 54.7822 515.59 54.4486 515.681 54.1426C515.772 53.8333 515.907 53.5648 516.086 53.3369C516.265 53.109 516.488 52.9333 516.755 52.8096C517.022 52.6826 517.331 52.6191 517.683 52.6191C517.93 52.6191 518.158 52.6549 518.366 52.7266C518.575 52.7949 518.755 52.904 518.908 53.0537C519.061 53.2035 519.18 53.3955 519.265 53.6299C519.349 53.8643 519.392 54.1475 519.392 54.4795V58H518.488V54.5234C518.488 54.2467 518.441 54.0254 518.347 53.8594C518.256 53.6934 518.125 53.5729 517.956 53.498C517.787 53.4199 517.588 53.3809 517.36 53.3809C517.093 53.3809 516.87 53.4281 516.691 53.5225C516.512 53.6169 516.369 53.7471 516.262 53.9131C516.154 54.0791 516.076 54.2695 516.027 54.4844C515.982 54.696 515.959 54.9206 515.959 55.1582ZM519.382 54.6602L518.776 54.8457C518.78 54.556 518.827 54.2777 518.918 54.0107C519.012 53.7438 519.147 53.5062 519.323 53.2979C519.502 53.0895 519.722 52.9251 519.982 52.8047C520.243 52.681 520.541 52.6191 520.876 52.6191C521.159 52.6191 521.41 52.6566 521.628 52.7314C521.849 52.8063 522.035 52.9219 522.185 53.0781C522.338 53.2311 522.453 53.4281 522.531 53.6689C522.609 53.9098 522.648 54.1963 522.648 54.5283V58H521.74V54.5186C521.74 54.2223 521.693 53.9928 521.599 53.8301C521.507 53.6641 521.377 53.5485 521.208 53.4834C521.042 53.415 520.843 53.3809 520.612 53.3809C520.414 53.3809 520.238 53.415 520.085 53.4834C519.932 53.5518 519.803 53.6462 519.699 53.7666C519.595 53.8838 519.515 54.0189 519.46 54.1719C519.408 54.3249 519.382 54.4876 519.382 54.6602ZM524.919 53.7324V60.0312H524.011V52.7168H524.841L524.919 53.7324ZM528.479 55.3145V55.417C528.479 55.8011 528.433 56.1576 528.342 56.4863C528.251 56.8118 528.117 57.0951 527.941 57.3359C527.769 57.5768 527.556 57.764 527.302 57.8975C527.048 58.0309 526.757 58.0977 526.428 58.0977C526.092 58.0977 525.796 58.0423 525.539 57.9316C525.282 57.821 525.064 57.6598 524.885 57.4482C524.706 57.2367 524.562 56.9827 524.455 56.6865C524.351 56.3903 524.279 56.0566 524.24 55.6855V55.1387C524.279 54.748 524.353 54.3981 524.46 54.0889C524.567 53.7796 524.709 53.516 524.885 53.2979C525.064 53.0765 525.28 52.9089 525.534 52.7949C525.788 52.6777 526.081 52.6191 526.413 52.6191C526.745 52.6191 527.04 52.6842 527.297 52.8145C527.554 52.9414 527.771 53.1237 527.946 53.3613C528.122 53.599 528.254 53.8838 528.342 54.2158C528.433 54.5446 528.479 54.9108 528.479 55.3145ZM527.57 55.417V55.3145C527.57 55.0508 527.543 54.8034 527.487 54.5723C527.432 54.3379 527.346 54.1328 527.229 53.957C527.115 53.778 526.968 53.638 526.789 53.5371C526.61 53.4329 526.397 53.3809 526.149 53.3809C525.922 53.3809 525.723 53.4199 525.554 53.498C525.388 53.5762 525.246 53.682 525.129 53.8154C525.012 53.9456 524.916 54.0954 524.841 54.2646C524.769 54.4307 524.715 54.6032 524.68 54.7822V56.0469C524.745 56.2747 524.836 56.4896 524.953 56.6914C525.07 56.89 525.227 57.0511 525.422 57.1748C525.617 57.2952 525.863 57.3555 526.159 57.3555C526.403 57.3555 526.613 57.305 526.789 57.2041C526.968 57.0999 527.115 56.9583 527.229 56.7793C527.346 56.6003 527.432 56.3952 527.487 56.1641C527.543 55.9297 527.57 55.6807 527.57 55.417ZM532.746 57.0967V54.377C532.746 54.1686 532.704 53.988 532.619 53.835C532.538 53.6787 532.414 53.5583 532.248 53.4736C532.082 53.389 531.877 53.3467 531.633 53.3467C531.405 53.3467 531.205 53.3857 531.032 53.4639C530.863 53.542 530.729 53.6445 530.632 53.7715C530.537 53.8984 530.49 54.0352 530.49 54.1816H529.587C529.587 53.9928 529.636 53.8057 529.733 53.6201C529.831 53.4346 529.971 53.2669 530.153 53.1172C530.339 52.9642 530.56 52.8438 530.817 52.7559C531.078 52.6647 531.368 52.6191 531.687 52.6191C532.071 52.6191 532.409 52.6842 532.702 52.8145C532.998 52.9447 533.229 53.1416 533.396 53.4053C533.565 53.6657 533.649 53.9928 533.649 54.3867V56.8477C533.649 57.0234 533.664 57.2106 533.693 57.4092C533.726 57.6077 533.773 57.7786 533.835 57.9219V58H532.893C532.847 57.8958 532.811 57.7575 532.785 57.585C532.759 57.4092 532.746 57.2464 532.746 57.0967ZM532.902 54.7969L532.912 55.4316H531.999C531.742 55.4316 531.512 55.4528 531.311 55.4951C531.109 55.5342 530.939 55.5944 530.803 55.6758C530.666 55.7572 530.562 55.8597 530.49 55.9834C530.419 56.1038 530.383 56.2454 530.383 56.4082C530.383 56.5742 530.42 56.7256 530.495 56.8623C530.57 56.999 530.682 57.1081 530.832 57.1895C530.985 57.2676 531.172 57.3066 531.394 57.3066C531.67 57.3066 531.914 57.248 532.126 57.1309C532.338 57.0137 532.505 56.8704 532.629 56.7012C532.756 56.5319 532.824 56.3675 532.834 56.208L533.22 56.6426C533.197 56.7793 533.135 56.9307 533.034 57.0967C532.933 57.2627 532.798 57.4222 532.629 57.5752C532.463 57.7249 532.264 57.8503 532.033 57.9512C531.805 58.0488 531.548 58.0977 531.262 58.0977C530.904 58.0977 530.59 58.0277 530.319 57.8877C530.052 57.7477 529.844 57.5605 529.694 57.3262C529.548 57.0885 529.475 56.8232 529.475 56.5303C529.475 56.2471 529.53 55.998 529.641 55.7832C529.751 55.5651 529.911 55.3844 530.119 55.2412C530.327 55.0947 530.578 54.984 530.871 54.9092C531.164 54.8343 531.491 54.7969 531.853 54.7969H532.902ZM535.974 53.5469V58H535.07V52.7168H535.949L535.974 53.5469ZM537.624 52.6875L537.619 53.5273C537.544 53.5111 537.473 53.5013 537.404 53.498C537.339 53.4915 537.264 53.4883 537.18 53.4883C536.971 53.4883 536.787 53.5208 536.628 53.5859C536.468 53.651 536.333 53.7422 536.223 53.8594C536.112 53.9766 536.024 54.1165 535.959 54.2793C535.897 54.4388 535.856 54.6146 535.837 54.8066L535.583 54.9531C535.583 54.6341 535.614 54.3346 535.676 54.0547C535.741 53.7747 535.84 53.5273 535.974 53.3125C536.107 53.0944 536.276 52.9251 536.481 52.8047C536.69 52.681 536.937 52.6191 537.224 52.6191C537.289 52.6191 537.364 52.6273 537.448 52.6436C537.533 52.6566 537.591 52.6712 537.624 52.6875ZM540.554 58.0977C540.186 58.0977 539.852 58.0358 539.553 57.9121C539.257 57.7852 539.001 57.6077 538.786 57.3799C538.575 57.152 538.412 56.8818 538.298 56.5693C538.184 56.2568 538.127 55.915 538.127 55.5439V55.3389C538.127 54.9092 538.19 54.5267 538.317 54.1914C538.444 53.8529 538.617 53.5664 538.835 53.332C539.053 53.0977 539.3 52.9202 539.577 52.7998C539.854 52.6794 540.14 52.6191 540.437 52.6191C540.814 52.6191 541.14 52.6842 541.413 52.8145C541.69 52.9447 541.916 53.127 542.092 53.3613C542.268 53.5924 542.398 53.8659 542.482 54.1816C542.567 54.4941 542.609 54.8359 542.609 55.207V55.6123H538.664V54.875H541.706V54.8066C541.693 54.5723 541.644 54.3444 541.56 54.123C541.478 53.9017 541.348 53.7194 541.169 53.5762C540.99 53.4329 540.746 53.3613 540.437 53.3613C540.231 53.3613 540.043 53.4053 539.87 53.4932C539.698 53.5778 539.549 53.7048 539.426 53.874C539.302 54.0433 539.206 54.25 539.138 54.4941C539.069 54.7383 539.035 55.0199 539.035 55.3389V55.5439C539.035 55.7946 539.069 56.0306 539.138 56.252C539.209 56.4701 539.312 56.6621 539.445 56.8281C539.582 56.9941 539.746 57.1243 539.938 57.2188C540.134 57.3132 540.355 57.3604 540.603 57.3604C540.922 57.3604 541.192 57.2952 541.413 57.165C541.634 57.0348 541.828 56.8607 541.994 56.6426L542.541 57.0771C542.427 57.2497 542.282 57.4141 542.106 57.5703C541.931 57.7266 541.714 57.8535 541.457 57.9512C541.203 58.0488 540.902 58.0977 540.554 58.0977ZM548.356 52.7168V53.4102H545.5V52.7168H548.356ZM546.467 51.4326H547.37V56.6914C547.37 56.8704 547.398 57.0055 547.453 57.0967C547.508 57.1878 547.58 57.248 547.668 57.2773C547.756 57.3066 547.85 57.3213 547.951 57.3213C548.026 57.3213 548.104 57.3148 548.186 57.3018C548.27 57.2855 548.334 57.2725 548.376 57.2627L548.381 58C548.309 58.0228 548.215 58.0439 548.098 58.0635C547.984 58.0863 547.845 58.0977 547.683 58.0977C547.461 58.0977 547.258 58.0537 547.072 57.9658C546.887 57.8779 546.739 57.7314 546.628 57.5264C546.521 57.318 546.467 57.0381 546.467 56.6865V51.4326ZM550.319 50.5V58H549.416V50.5H550.319ZM550.104 55.1582L549.729 55.1436C549.732 54.7822 549.785 54.4486 549.89 54.1426C549.994 53.8333 550.14 53.5648 550.329 53.3369C550.518 53.109 550.743 52.9333 551.003 52.8096C551.267 52.6826 551.558 52.6191 551.877 52.6191C552.137 52.6191 552.372 52.6549 552.58 52.7266C552.788 52.7949 552.966 52.9056 553.112 53.0586C553.262 53.2116 553.376 53.4102 553.454 53.6543C553.532 53.8952 553.571 54.1898 553.571 54.5381V58H552.663V54.5283C552.663 54.2516 552.622 54.0303 552.541 53.8643C552.46 53.695 552.341 53.5729 552.185 53.498C552.028 53.4199 551.836 53.3809 551.608 53.3809C551.384 53.3809 551.179 53.4281 550.993 53.5225C550.811 53.6169 550.653 53.7471 550.52 53.9131C550.389 54.0791 550.287 54.2695 550.212 54.4844C550.14 54.696 550.104 54.9206 550.104 55.1582ZM557.116 58.0977C556.748 58.0977 556.415 58.0358 556.115 57.9121C555.819 57.7852 555.563 57.6077 555.349 57.3799C555.137 57.152 554.974 56.8818 554.86 56.5693C554.746 56.2568 554.689 55.915 554.689 55.5439V55.3389C554.689 54.9092 554.753 54.5267 554.88 54.1914C555.007 53.8529 555.179 53.5664 555.397 53.332C555.616 53.0977 555.863 52.9202 556.14 52.7998C556.416 52.6794 556.703 52.6191 556.999 52.6191C557.377 52.6191 557.702 52.6842 557.976 52.8145C558.252 52.9447 558.479 53.127 558.654 53.3613C558.83 53.5924 558.96 53.8659 559.045 54.1816C559.13 54.4941 559.172 54.8359 559.172 55.207V55.6123H555.227V54.875H558.269V54.8066C558.256 54.5723 558.207 54.3444 558.122 54.123C558.041 53.9017 557.91 53.7194 557.731 53.5762C557.552 53.4329 557.308 53.3613 556.999 53.3613C556.794 53.3613 556.605 53.4053 556.433 53.4932C556.26 53.5778 556.112 53.7048 555.988 53.874C555.865 54.0433 555.769 54.25 555.7 54.4941C555.632 54.7383 555.598 55.0199 555.598 55.3389V55.5439C555.598 55.7946 555.632 56.0306 555.7 56.252C555.772 56.4701 555.874 56.6621 556.008 56.8281C556.145 56.9941 556.309 57.1243 556.501 57.2188C556.696 57.3132 556.918 57.3604 557.165 57.3604C557.484 57.3604 557.754 57.2952 557.976 57.165C558.197 57.0348 558.391 56.8607 558.557 56.6426L559.104 57.0771C558.99 57.2497 558.845 57.4141 558.669 57.5703C558.493 57.7266 558.277 57.8535 558.02 57.9512C557.766 58.0488 557.465 58.0977 557.116 58.0977ZM566.032 60.0312V53.7324L566.11 52.7168H566.94V60.0312H566.032ZM562.482 55.417V55.3145C562.482 54.9108 562.53 54.5446 562.624 54.2158C562.718 53.8838 562.857 53.599 563.039 53.3613C563.221 53.1237 563.441 52.9414 563.698 52.8145C563.959 52.6842 564.255 52.6191 564.587 52.6191C564.919 52.6191 565.21 52.6777 565.461 52.7949C565.715 52.9089 565.93 53.0765 566.105 53.2979C566.285 53.516 566.426 53.7796 566.53 54.0889C566.634 54.3981 566.706 54.748 566.745 55.1387V55.5879C566.709 55.9753 566.639 56.3236 566.535 56.6328C566.431 56.9421 566.289 57.2057 566.11 57.4238C565.935 57.6419 565.718 57.8096 565.461 57.9268C565.207 58.0407 564.912 58.0977 564.577 58.0977C564.252 58.0977 563.959 58.0309 563.698 57.8975C563.441 57.764 563.221 57.5768 563.039 57.3359C562.86 57.0951 562.722 56.8118 562.624 56.4863C562.53 56.1576 562.482 55.8011 562.482 55.417ZM563.391 55.3145V55.417C563.391 55.6807 563.418 55.9297 563.474 56.1641C563.529 56.3952 563.614 56.6003 563.728 56.7793C563.845 56.9583 563.991 57.0999 564.167 57.2041C564.346 57.305 564.558 57.3555 564.802 57.3555C565.101 57.3555 565.35 57.2904 565.549 57.1602C565.751 57.0299 565.912 56.859 566.032 56.6475C566.153 56.4326 566.245 56.2031 566.311 55.959V54.7822C566.275 54.6032 566.218 54.429 566.14 54.2598C566.065 54.0905 565.967 53.9391 565.847 53.8057C565.726 53.6689 565.58 53.5615 565.407 53.4834C565.238 53.402 565.039 53.3613 564.812 53.3613C564.564 53.3613 564.351 53.4134 564.172 53.5176C563.993 53.6217 563.845 53.765 563.728 53.9473C563.614 54.1263 563.529 54.333 563.474 54.5674C563.418 54.8018 563.391 55.0508 563.391 55.3145ZM571.623 56.7793V52.7168H572.531V58H571.667L571.623 56.7793ZM571.794 55.666L572.17 55.6562C572.17 56.0078 572.132 56.3333 572.058 56.6328C571.986 56.929 571.869 57.1862 571.706 57.4043C571.543 57.6224 571.33 57.7933 571.066 57.917C570.803 58.0374 570.482 58.0977 570.104 58.0977C569.847 58.0977 569.611 58.0602 569.396 57.9854C569.185 57.9105 569.003 57.7949 568.85 57.6387C568.697 57.4824 568.578 57.279 568.493 57.0283C568.412 56.7777 568.371 56.4766 568.371 56.125V52.7168H569.274V56.1348C569.274 56.3724 569.3 56.5693 569.353 56.7256C569.408 56.8786 569.481 57.0007 569.572 57.0918C569.667 57.1797 569.771 57.2415 569.885 57.2773C570.002 57.3132 570.122 57.3311 570.246 57.3311C570.63 57.3311 570.935 57.2578 571.159 57.1113C571.384 56.9616 571.545 56.7614 571.643 56.5107C571.743 56.2568 571.794 55.9753 571.794 55.666ZM577.023 57.0967V54.377C577.023 54.1686 576.981 53.988 576.896 53.835C576.815 53.6787 576.691 53.5583 576.525 53.4736C576.359 53.389 576.154 53.3467 575.91 53.3467C575.682 53.3467 575.482 53.3857 575.31 53.4639C575.14 53.542 575.007 53.6445 574.909 53.7715C574.815 53.8984 574.768 54.0352 574.768 54.1816H573.864C573.864 53.9928 573.913 53.8057 574.011 53.6201C574.108 53.4346 574.248 53.2669 574.431 53.1172C574.616 52.9642 574.838 52.8438 575.095 52.7559C575.355 52.6647 575.645 52.6191 575.964 52.6191C576.348 52.6191 576.687 52.6842 576.979 52.8145C577.276 52.9447 577.507 53.1416 577.673 53.4053C577.842 53.6657 577.927 53.9928 577.927 54.3867V56.8477C577.927 57.0234 577.941 57.2106 577.971 57.4092C578.003 57.6077 578.05 57.7786 578.112 57.9219V58H577.17C577.124 57.8958 577.089 57.7575 577.062 57.585C577.036 57.4092 577.023 57.2464 577.023 57.0967ZM577.18 54.7969L577.189 55.4316H576.276C576.019 55.4316 575.79 55.4528 575.588 55.4951C575.386 55.5342 575.217 55.5944 575.08 55.6758C574.943 55.7572 574.839 55.8597 574.768 55.9834C574.696 56.1038 574.66 56.2454 574.66 56.4082C574.66 56.5742 574.698 56.7256 574.772 56.8623C574.847 56.999 574.96 57.1081 575.109 57.1895C575.262 57.2676 575.45 57.3066 575.671 57.3066C575.948 57.3066 576.192 57.248 576.403 57.1309C576.615 57.0137 576.783 56.8704 576.906 56.7012C577.033 56.5319 577.102 56.3675 577.111 56.208L577.497 56.6426C577.474 56.7793 577.412 56.9307 577.312 57.0967C577.211 57.2627 577.076 57.4222 576.906 57.5752C576.74 57.7249 576.542 57.8503 576.311 57.9512C576.083 58.0488 575.826 58.0977 575.539 58.0977C575.181 58.0977 574.867 58.0277 574.597 57.8877C574.33 57.7477 574.121 57.5605 573.972 57.3262C573.825 57.0885 573.752 56.8232 573.752 56.5303C573.752 56.2471 573.807 55.998 573.918 55.7832C574.029 55.5651 574.188 55.3844 574.396 55.2412C574.605 55.0947 574.855 54.984 575.148 54.9092C575.441 54.8343 575.769 54.7969 576.13 54.7969H577.18ZM580.251 53.8447V58H579.348V52.7168H580.202L580.251 53.8447ZM580.036 55.1582L579.66 55.1436C579.663 54.7822 579.717 54.4486 579.821 54.1426C579.925 53.8333 580.072 53.5648 580.261 53.3369C580.45 53.109 580.674 52.9333 580.935 52.8096C581.198 52.6826 581.49 52.6191 581.809 52.6191C582.069 52.6191 582.303 52.6549 582.512 52.7266C582.72 52.7949 582.897 52.9056 583.044 53.0586C583.194 53.2116 583.308 53.4102 583.386 53.6543C583.464 53.8952 583.503 54.1898 583.503 54.5381V58H582.595V54.5283C582.595 54.2516 582.554 54.0303 582.473 53.8643C582.391 53.695 582.272 53.5729 582.116 53.498C581.96 53.4199 581.768 53.3809 581.54 53.3809C581.315 53.3809 581.11 53.4281 580.925 53.5225C580.743 53.6169 580.585 53.7471 580.451 53.9131C580.321 54.0791 580.218 54.2695 580.144 54.4844C580.072 54.696 580.036 54.9206 580.036 55.1582ZM587.087 52.7168V53.4102H584.23V52.7168H587.087ZM585.197 51.4326H586.101V56.6914C586.101 56.8704 586.128 57.0055 586.184 57.0967C586.239 57.1878 586.311 57.248 586.398 57.2773C586.486 57.3066 586.581 57.3213 586.682 57.3213C586.757 57.3213 586.835 57.3148 586.916 57.3018C587.001 57.2855 587.064 57.2725 587.106 57.2627L587.111 58C587.04 58.0228 586.945 58.0439 586.828 58.0635C586.714 58.0863 586.576 58.0977 586.413 58.0977C586.192 58.0977 585.988 58.0537 585.803 57.9658C585.617 57.8779 585.469 57.7314 585.358 57.5264C585.251 57.318 585.197 57.0381 585.197 56.6865V51.4326ZM589.128 52.7168V58H588.22V52.7168H589.128ZM588.151 51.3154C588.151 51.1689 588.195 51.0452 588.283 50.9443C588.374 50.8434 588.508 50.793 588.684 50.793C588.856 50.793 588.988 50.8434 589.079 50.9443C589.174 51.0452 589.221 51.1689 589.221 51.3154C589.221 51.4554 589.174 51.5758 589.079 51.6768C588.988 51.7744 588.856 51.8232 588.684 51.8232C588.508 51.8232 588.374 51.7744 588.283 51.6768C588.195 51.5758 588.151 51.4554 588.151 51.3154ZM591.784 58H590.881V52.2578C590.881 51.8574 590.959 51.5189 591.115 51.2422C591.271 50.9655 591.494 50.7555 591.784 50.6123C592.074 50.4691 592.417 50.3975 592.814 50.3975C593.049 50.3975 593.278 50.4268 593.503 50.4854C593.728 50.5407 593.959 50.6107 594.196 50.6953L594.045 51.457C593.895 51.3984 593.721 51.3431 593.522 51.291C593.327 51.2357 593.112 51.208 592.878 51.208C592.491 51.208 592.211 51.2959 592.038 51.4717C591.869 51.6442 591.784 51.9062 591.784 52.2578V58ZM592.863 52.7168V53.4102H590.046V52.7168H592.863ZM594.641 52.7168V58H593.737V52.7168H594.641ZM598.317 58.0977C597.95 58.0977 597.616 58.0358 597.316 57.9121C597.02 57.7852 596.765 57.6077 596.55 57.3799C596.338 57.152 596.175 56.8818 596.062 56.5693C595.948 56.2568 595.891 55.915 595.891 55.5439V55.3389C595.891 54.9092 595.954 54.5267 596.081 54.1914C596.208 53.8529 596.381 53.5664 596.599 53.332C596.817 53.0977 597.064 52.9202 597.341 52.7998C597.618 52.6794 597.904 52.6191 598.2 52.6191C598.578 52.6191 598.903 52.6842 599.177 52.8145C599.453 52.9447 599.68 53.127 599.855 53.3613C600.031 53.5924 600.161 53.8659 600.246 54.1816C600.331 54.4941 600.373 54.8359 600.373 55.207V55.6123H596.428V54.875H599.47V54.8066C599.457 54.5723 599.408 54.3444 599.323 54.123C599.242 53.9017 599.112 53.7194 598.933 53.5762C598.754 53.4329 598.509 53.3613 598.2 53.3613C597.995 53.3613 597.806 53.4053 597.634 53.4932C597.461 53.5778 597.313 53.7048 597.189 53.874C597.066 54.0433 596.97 54.25 596.901 54.4941C596.833 54.7383 596.799 55.0199 596.799 55.3389V55.5439C596.799 55.7946 596.833 56.0306 596.901 56.252C596.973 56.4701 597.076 56.6621 597.209 56.8281C597.346 56.9941 597.51 57.1243 597.702 57.2188C597.897 57.3132 598.119 57.3604 598.366 57.3604C598.685 57.3604 598.955 57.2952 599.177 57.165C599.398 57.0348 599.592 56.8607 599.758 56.6426L600.305 57.0771C600.191 57.2497 600.046 57.4141 599.87 57.5703C599.694 57.7266 599.478 57.8535 599.221 57.9512C598.967 58.0488 598.666 58.0977 598.317 58.0977ZM604.758 56.9746V50.5H605.666V58H604.836L604.758 56.9746ZM601.203 55.417V55.3145C601.203 54.9108 601.252 54.5446 601.35 54.2158C601.451 53.8838 601.592 53.599 601.774 53.3613C601.96 53.1237 602.18 52.9414 602.434 52.8145C602.691 52.6842 602.977 52.6191 603.293 52.6191C603.625 52.6191 603.915 52.6777 604.162 52.7949C604.413 52.9089 604.624 53.0765 604.797 53.2979C604.973 53.516 605.111 53.7796 605.212 54.0889C605.313 54.3981 605.383 54.748 605.422 55.1387V55.5879C605.386 55.9753 605.316 56.3236 605.212 56.6328C605.111 56.9421 604.973 57.2057 604.797 57.4238C604.624 57.6419 604.413 57.8096 604.162 57.9268C603.911 58.0407 603.618 58.0977 603.283 58.0977C602.974 58.0977 602.691 58.0309 602.434 57.8975C602.18 57.764 601.96 57.5768 601.774 57.3359C601.592 57.0951 601.451 56.8118 601.35 56.4863C601.252 56.1576 601.203 55.8011 601.203 55.417ZM602.111 55.3145V55.417C602.111 55.6807 602.137 55.9281 602.189 56.1592C602.245 56.3903 602.329 56.5938 602.443 56.7695C602.557 56.9453 602.702 57.0837 602.878 57.1846C603.054 57.2822 603.264 57.3311 603.508 57.3311C603.807 57.3311 604.053 57.2676 604.245 57.1406C604.44 57.0137 604.597 56.846 604.714 56.6377C604.831 56.4294 604.922 56.2031 604.987 55.959V54.7822C604.948 54.6032 604.891 54.4307 604.816 54.2646C604.745 54.0954 604.65 53.9456 604.533 53.8154C604.419 53.682 604.278 53.5762 604.108 53.498C603.942 53.4199 603.745 53.3809 603.518 53.3809C603.27 53.3809 603.057 53.4329 602.878 53.5371C602.702 53.638 602.557 53.778 602.443 53.957C602.329 54.1328 602.245 54.3379 602.189 54.5723C602.137 54.8034 602.111 55.0508 602.111 55.3145ZM612.883 56.9746V50.5H613.791V58H612.961L612.883 56.9746ZM609.328 55.417V55.3145C609.328 54.9108 609.377 54.5446 609.475 54.2158C609.576 53.8838 609.717 53.599 609.899 53.3613C610.085 53.1237 610.305 52.9414 610.559 52.8145C610.816 52.6842 611.102 52.6191 611.418 52.6191C611.75 52.6191 612.04 52.6777 612.287 52.7949C612.538 52.9089 612.749 53.0765 612.922 53.2979C613.098 53.516 613.236 53.7796 613.337 54.0889C613.438 54.3981 613.508 54.748 613.547 55.1387V55.5879C613.511 55.9753 613.441 56.3236 613.337 56.6328C613.236 56.9421 613.098 57.2057 612.922 57.4238C612.749 57.6419 612.538 57.8096 612.287 57.9268C612.036 58.0407 611.743 58.0977 611.408 58.0977C611.099 58.0977 610.816 58.0309 610.559 57.8975C610.305 57.764 610.085 57.5768 609.899 57.3359C609.717 57.0951 609.576 56.8118 609.475 56.4863C609.377 56.1576 609.328 55.8011 609.328 55.417ZM610.236 55.3145V55.417C610.236 55.6807 610.262 55.9281 610.314 56.1592C610.37 56.3903 610.454 56.5938 610.568 56.7695C610.682 56.9453 610.827 57.0837 611.003 57.1846C611.179 57.2822 611.389 57.3311 611.633 57.3311C611.932 57.3311 612.178 57.2676 612.37 57.1406C612.565 57.0137 612.722 56.846 612.839 56.6377C612.956 56.4294 613.047 56.2031 613.112 55.959V54.7822C613.073 54.6032 613.016 54.4307 612.941 54.2646C612.87 54.0954 612.775 53.9456 612.658 53.8154C612.544 53.682 612.403 53.5762 612.233 53.498C612.067 53.4199 611.87 53.3809 611.643 53.3809C611.395 53.3809 611.182 53.4329 611.003 53.5371C610.827 53.638 610.682 53.778 610.568 53.957C610.454 54.1328 610.37 54.3379 610.314 54.5723C610.262 54.8034 610.236 55.0508 610.236 55.3145ZM618.312 57.0967V54.377C618.312 54.1686 618.27 53.988 618.186 53.835C618.104 53.6787 617.98 53.5583 617.814 53.4736C617.648 53.389 617.443 53.3467 617.199 53.3467C616.971 53.3467 616.771 53.3857 616.599 53.4639C616.429 53.542 616.296 53.6445 616.198 53.7715C616.104 53.8984 616.057 54.0352 616.057 54.1816H615.153C615.153 53.9928 615.202 53.8057 615.3 53.6201C615.397 53.4346 615.537 53.2669 615.72 53.1172C615.905 52.9642 616.127 52.8438 616.384 52.7559C616.644 52.6647 616.934 52.6191 617.253 52.6191C617.637 52.6191 617.976 52.6842 618.269 52.8145C618.565 52.9447 618.796 53.1416 618.962 53.4053C619.131 53.6657 619.216 53.9928 619.216 54.3867V56.8477C619.216 57.0234 619.23 57.2106 619.26 57.4092C619.292 57.6077 619.34 57.7786 619.401 57.9219V58H618.459C618.413 57.8958 618.378 57.7575 618.352 57.585C618.326 57.4092 618.312 57.2464 618.312 57.0967ZM618.469 54.7969L618.479 55.4316H617.565C617.308 55.4316 617.079 55.4528 616.877 55.4951C616.675 55.5342 616.506 55.5944 616.369 55.6758C616.232 55.7572 616.128 55.8597 616.057 55.9834C615.985 56.1038 615.949 56.2454 615.949 56.4082C615.949 56.5742 615.987 56.7256 616.062 56.8623C616.136 56.999 616.249 57.1081 616.398 57.1895C616.551 57.2676 616.739 57.3066 616.96 57.3066C617.237 57.3066 617.481 57.248 617.692 57.1309C617.904 57.0137 618.072 56.8704 618.195 56.7012C618.322 56.5319 618.391 56.3675 618.4 56.208L618.786 56.6426C618.763 56.7793 618.701 56.9307 618.601 57.0967C618.5 57.2627 618.365 57.4222 618.195 57.5752C618.029 57.7249 617.831 57.8503 617.6 57.9512C617.372 58.0488 617.115 58.0977 616.828 58.0977C616.47 58.0977 616.156 58.0277 615.886 57.8877C615.619 57.7477 615.41 57.5605 615.261 57.3262C615.114 57.0885 615.041 56.8232 615.041 56.5303C615.041 56.2471 615.096 55.998 615.207 55.7832C615.318 55.5651 615.477 55.3844 615.686 55.2412C615.894 55.0947 616.145 54.984 616.438 54.9092C616.73 54.8343 617.058 54.7969 617.419 54.7969H618.469ZM622.849 52.7168V53.4102H619.992V52.7168H622.849ZM620.959 51.4326H621.862V56.6914C621.862 56.8704 621.89 57.0055 621.945 57.0967C622.001 57.1878 622.072 57.248 622.16 57.2773C622.248 57.3066 622.342 57.3213 622.443 57.3213C622.518 57.3213 622.596 57.3148 622.678 57.3018C622.762 57.2855 622.826 57.2725 622.868 57.2627L622.873 58C622.801 58.0228 622.707 58.0439 622.59 58.0635C622.476 58.0863 622.338 58.0977 622.175 58.0977C621.953 58.0977 621.75 58.0537 621.564 57.9658C621.379 57.8779 621.231 57.7314 621.12 57.5264C621.013 57.318 620.959 57.0381 620.959 56.6865V51.4326ZM627.023 57.0967V54.377C627.023 54.1686 626.981 53.988 626.896 53.835C626.815 53.6787 626.691 53.5583 626.525 53.4736C626.359 53.389 626.154 53.3467 625.91 53.3467C625.682 53.3467 625.482 53.3857 625.31 53.4639C625.14 53.542 625.007 53.6445 624.909 53.7715C624.815 53.8984 624.768 54.0352 624.768 54.1816H623.864C623.864 53.9928 623.913 53.8057 624.011 53.6201C624.108 53.4346 624.248 53.2669 624.431 53.1172C624.616 52.9642 624.838 52.8438 625.095 52.7559C625.355 52.6647 625.645 52.6191 625.964 52.6191C626.348 52.6191 626.687 52.6842 626.979 52.8145C627.276 52.9447 627.507 53.1416 627.673 53.4053C627.842 53.6657 627.927 53.9928 627.927 54.3867V56.8477C627.927 57.0234 627.941 57.2106 627.971 57.4092C628.003 57.6077 628.05 57.7786 628.112 57.9219V58H627.17C627.124 57.8958 627.089 57.7575 627.062 57.585C627.036 57.4092 627.023 57.2464 627.023 57.0967ZM627.18 54.7969L627.189 55.4316H626.276C626.019 55.4316 625.79 55.4528 625.588 55.4951C625.386 55.5342 625.217 55.5944 625.08 55.6758C624.943 55.7572 624.839 55.8597 624.768 55.9834C624.696 56.1038 624.66 56.2454 624.66 56.4082C624.66 56.5742 624.698 56.7256 624.772 56.8623C624.847 56.999 624.96 57.1081 625.109 57.1895C625.262 57.2676 625.45 57.3066 625.671 57.3066C625.948 57.3066 626.192 57.248 626.403 57.1309C626.615 57.0137 626.783 56.8704 626.906 56.7012C627.033 56.5319 627.102 56.3675 627.111 56.208L627.497 56.6426C627.474 56.7793 627.412 56.9307 627.312 57.0967C627.211 57.2627 627.076 57.4222 626.906 57.5752C626.74 57.7249 626.542 57.8503 626.311 57.9512C626.083 58.0488 625.826 58.0977 625.539 58.0977C625.181 58.0977 624.867 58.0277 624.597 57.8877C624.33 57.7477 624.121 57.5605 623.972 57.3262C623.825 57.0885 623.752 56.8232 623.752 56.5303C623.752 56.2471 623.807 55.998 623.918 55.7832C624.029 55.5651 624.188 55.3844 624.396 55.2412C624.605 55.0947 624.855 54.984 625.148 54.9092C625.441 54.8343 625.769 54.7969 626.13 54.7969H627.18Z" fill="#898F9B"/>
<rect x="158" y="2" width="90" height="38" rx="19" fill="#E9E8FC"/>
<path d="M188.523 15.125V26.5H187.039V15.125H188.523ZM192.18 15.125V16.3594H183.391V15.125H192.18ZM194.5 19.375V26.5H193.055V18.0469H194.461L194.5 19.375ZM197.141 18L197.133 19.3438C197.013 19.3177 196.898 19.3021 196.789 19.2969C196.685 19.2865 196.565 19.2812 196.43 19.2812C196.096 19.2812 195.802 19.3333 195.547 19.4375C195.292 19.5417 195.076 19.6875 194.898 19.875C194.721 20.0625 194.581 20.2865 194.477 20.5469C194.378 20.8021 194.312 21.0833 194.281 21.3906L193.875 21.625C193.875 21.1146 193.924 20.6354 194.023 20.1875C194.128 19.7396 194.286 19.3438 194.5 19C194.714 18.651 194.984 18.3802 195.312 18.1875C195.646 17.9896 196.042 17.8906 196.5 17.8906C196.604 17.8906 196.724 17.9036 196.859 17.9297C196.995 17.9505 197.089 17.974 197.141 18ZM203.148 25.0547V20.7031C203.148 20.3698 203.081 20.0807 202.945 19.8359C202.815 19.5859 202.617 19.3932 202.352 19.2578C202.086 19.1224 201.758 19.0547 201.367 19.0547C201.003 19.0547 200.682 19.1172 200.406 19.2422C200.135 19.3672 199.922 19.5312 199.766 19.7344C199.615 19.9375 199.539 20.1562 199.539 20.3906H198.094C198.094 20.0885 198.172 19.7891 198.328 19.4922C198.484 19.1953 198.708 18.9271 199 18.6875C199.297 18.4427 199.651 18.25 200.062 18.1094C200.479 17.9635 200.943 17.8906 201.453 17.8906C202.068 17.8906 202.609 17.9948 203.078 18.2031C203.552 18.4115 203.922 18.7266 204.188 19.1484C204.458 19.5651 204.594 20.0885 204.594 20.7188V24.6562C204.594 24.9375 204.617 25.237 204.664 25.5547C204.716 25.8724 204.792 26.1458 204.891 26.375V26.5H203.383C203.31 26.3333 203.253 26.112 203.211 25.8359C203.169 25.5547 203.148 25.2943 203.148 25.0547ZM203.398 21.375L203.414 22.3906H201.953C201.542 22.3906 201.174 22.4245 200.852 22.4922C200.529 22.5547 200.258 22.651 200.039 22.7812C199.82 22.9115 199.654 23.0755 199.539 23.2734C199.424 23.4661 199.367 23.6927 199.367 23.9531C199.367 24.2188 199.427 24.4609 199.547 24.6797C199.667 24.8984 199.846 25.0729 200.086 25.2031C200.331 25.3281 200.63 25.3906 200.984 25.3906C201.427 25.3906 201.818 25.2969 202.156 25.1094C202.495 24.9219 202.763 24.6927 202.961 24.4219C203.164 24.151 203.273 23.888 203.289 23.6328L203.906 24.3281C203.87 24.5469 203.771 24.7891 203.609 25.0547C203.448 25.3203 203.232 25.5755 202.961 25.8203C202.695 26.0599 202.378 26.2604 202.008 26.4219C201.643 26.5781 201.232 26.6562 200.773 26.6562C200.201 26.6562 199.698 26.5443 199.266 26.3203C198.839 26.0964 198.505 25.7969 198.266 25.4219C198.031 25.0417 197.914 24.6172 197.914 24.1484C197.914 23.6953 198.003 23.2969 198.18 22.9531C198.357 22.6042 198.612 22.3151 198.945 22.0859C199.279 21.8516 199.68 21.6745 200.148 21.5547C200.617 21.4349 201.141 21.375 201.719 21.375H203.398ZM210.25 25.4688C210.594 25.4688 210.911 25.3984 211.203 25.2578C211.495 25.1172 211.734 24.9245 211.922 24.6797C212.109 24.4297 212.216 24.1458 212.242 23.8281H213.617C213.591 24.3281 213.422 24.7943 213.109 25.2266C212.802 25.6536 212.398 26 211.898 26.2656C211.398 26.526 210.849 26.6562 210.25 26.6562C209.615 26.6562 209.06 26.5443 208.586 26.3203C208.117 26.0964 207.727 25.7891 207.414 25.3984C207.107 25.0078 206.875 24.5599 206.719 24.0547C206.568 23.5443 206.492 23.0052 206.492 22.4375V22.1094C206.492 21.5417 206.568 21.0052 206.719 20.5C206.875 19.9896 207.107 19.5391 207.414 19.1484C207.727 18.7578 208.117 18.4505 208.586 18.2266C209.06 18.0026 209.615 17.8906 210.25 17.8906C210.911 17.8906 211.49 18.026 211.984 18.2969C212.479 18.5625 212.867 18.9271 213.148 19.3906C213.435 19.849 213.591 20.3698 213.617 20.9531H212.242C212.216 20.6042 212.117 20.2891 211.945 20.0078C211.779 19.7266 211.549 19.5026 211.258 19.3359C210.971 19.1641 210.635 19.0781 210.25 19.0781C209.807 19.0781 209.435 19.1667 209.133 19.3438C208.836 19.5156 208.599 19.75 208.422 20.0469C208.25 20.3385 208.125 20.6641 208.047 21.0234C207.974 21.3776 207.938 21.7396 207.938 22.1094V22.4375C207.938 22.8073 207.974 23.1719 208.047 23.5312C208.12 23.8906 208.242 24.2161 208.414 24.5078C208.591 24.7995 208.828 25.0339 209.125 25.2109C209.427 25.3828 209.802 25.4688 210.25 25.4688ZM216.695 14.5V26.5H215.242V14.5H216.695ZM221.859 18.0469L218.172 21.9922L216.109 24.1328L215.992 22.5938L217.469 20.8281L220.094 18.0469H221.859ZM220.539 26.5L217.523 22.4688L218.273 21.1797L222.242 26.5H220.539Z" fill="#605DEC"/>
<line x1="248" y1="20.5" x2="339.5" y2="20.5" stroke="#BCBAF7" stroke-dasharray="2 2"/>
<rect x="339.5" y="2" width="90" height="38" rx="19" fill="#E9E8FC"/>
<path d="M361.656 25.1953L364.547 27.4844L363.531 28.4219L360.688 26.1641L361.656 25.1953ZM364.508 20.4531V21.1719C364.508 22.026 364.401 22.7917 364.188 23.4688C363.974 24.1458 363.667 24.7214 363.266 25.1953C362.865 25.6693 362.383 26.0312 361.82 26.2812C361.263 26.5312 360.638 26.6562 359.945 26.6562C359.273 26.6562 358.656 26.5312 358.094 26.2812C357.536 26.0312 357.052 25.6693 356.641 25.1953C356.234 24.7214 355.919 24.1458 355.695 23.4688C355.471 22.7917 355.359 22.026 355.359 21.1719V20.4531C355.359 19.599 355.469 18.8359 355.688 18.1641C355.911 17.487 356.227 16.9115 356.633 16.4375C357.039 15.9583 357.521 15.5938 358.078 15.3438C358.641 15.0938 359.258 14.9688 359.93 14.9688C360.622 14.9688 361.25 15.0938 361.812 15.3438C362.375 15.5938 362.857 15.9583 363.258 16.4375C363.659 16.9115 363.966 17.487 364.18 18.1641C364.398 18.8359 364.508 19.599 364.508 20.4531ZM363.016 21.1719V20.4375C363.016 19.7604 362.945 19.1615 362.805 18.6406C362.669 18.1198 362.469 17.6823 362.203 17.3281C361.938 16.974 361.615 16.7057 361.234 16.5234C360.854 16.3411 360.419 16.25 359.93 16.25C359.466 16.25 359.044 16.3411 358.664 16.5234C358.289 16.7057 357.966 16.974 357.695 17.3281C357.424 17.6823 357.216 18.1198 357.07 18.6406C356.924 19.1615 356.852 19.7604 356.852 20.4375V21.1719C356.852 21.8542 356.924 22.4583 357.07 22.9844C357.216 23.5052 357.424 23.9453 357.695 24.3047C357.971 24.6589 358.299 24.9271 358.68 25.1094C359.06 25.2917 359.482 25.3828 359.945 25.3828C360.435 25.3828 360.87 25.2917 361.25 25.1094C361.63 24.9271 361.951 24.6589 362.211 24.3047C362.477 23.9453 362.677 23.5052 362.812 22.9844C362.948 22.4583 363.016 21.8542 363.016 21.1719ZM371.789 24.5469V18.0469H373.242V26.5H371.859L371.789 24.5469ZM372.062 22.7656L372.664 22.75C372.664 23.3125 372.604 23.8333 372.484 24.3125C372.37 24.7865 372.182 25.1979 371.922 25.5469C371.661 25.8958 371.32 26.1693 370.898 26.3672C370.477 26.5599 369.964 26.6562 369.359 26.6562C368.948 26.6562 368.57 26.5964 368.227 26.4766C367.888 26.3568 367.596 26.1719 367.352 25.9219C367.107 25.6719 366.917 25.3464 366.781 24.9453C366.651 24.5443 366.586 24.0625 366.586 23.5V18.0469H368.031V23.5156C368.031 23.8958 368.073 24.2109 368.156 24.4609C368.245 24.7057 368.362 24.901 368.508 25.0469C368.659 25.1875 368.826 25.2865 369.008 25.3438C369.195 25.401 369.388 25.4297 369.586 25.4297C370.201 25.4297 370.688 25.3125 371.047 25.0781C371.406 24.8385 371.664 24.5182 371.82 24.1172C371.982 23.7109 372.062 23.2604 372.062 22.7656ZM380.43 25.0547V20.7031C380.43 20.3698 380.362 20.0807 380.227 19.8359C380.096 19.5859 379.898 19.3932 379.633 19.2578C379.367 19.1224 379.039 19.0547 378.648 19.0547C378.284 19.0547 377.964 19.1172 377.688 19.2422C377.417 19.3672 377.203 19.5312 377.047 19.7344C376.896 19.9375 376.82 20.1562 376.82 20.3906H375.375C375.375 20.0885 375.453 19.7891 375.609 19.4922C375.766 19.1953 375.99 18.9271 376.281 18.6875C376.578 18.4427 376.932 18.25 377.344 18.1094C377.76 17.9635 378.224 17.8906 378.734 17.8906C379.349 17.8906 379.891 17.9948 380.359 18.2031C380.833 18.4115 381.203 18.7266 381.469 19.1484C381.74 19.5651 381.875 20.0885 381.875 20.7188V24.6562C381.875 24.9375 381.898 25.237 381.945 25.5547C381.997 25.8724 382.073 26.1458 382.172 26.375V26.5H380.664C380.591 26.3333 380.534 26.112 380.492 25.8359C380.451 25.5547 380.43 25.2943 380.43 25.0547ZM380.68 21.375L380.695 22.3906H379.234C378.823 22.3906 378.456 22.4245 378.133 22.4922C377.81 22.5547 377.539 22.651 377.32 22.7812C377.102 22.9115 376.935 23.0755 376.82 23.2734C376.706 23.4661 376.648 23.6927 376.648 23.9531C376.648 24.2188 376.708 24.4609 376.828 24.6797C376.948 24.8984 377.128 25.0729 377.367 25.2031C377.612 25.3281 377.911 25.3906 378.266 25.3906C378.708 25.3906 379.099 25.2969 379.438 25.1094C379.776 24.9219 380.044 24.6927 380.242 24.4219C380.445 24.151 380.555 23.888 380.57 23.6328L381.188 24.3281C381.151 24.5469 381.052 24.7891 380.891 25.0547C380.729 25.3203 380.513 25.5755 380.242 25.8203C379.977 26.0599 379.659 26.2604 379.289 26.4219C378.924 26.5781 378.513 26.6562 378.055 26.6562C377.482 26.6562 376.979 26.5443 376.547 26.3203C376.12 26.0964 375.786 25.7969 375.547 25.4219C375.312 25.0417 375.195 24.6172 375.195 24.1484C375.195 23.6953 375.284 23.2969 375.461 22.9531C375.638 22.6042 375.893 22.3151 376.227 22.0859C376.56 21.8516 376.961 21.6745 377.43 21.5547C377.898 21.4349 378.422 21.375 379 21.375H380.68ZM385.594 19.8516V26.5H384.148V18.0469H385.516L385.594 19.8516ZM385.25 21.9531L384.648 21.9297C384.654 21.3516 384.74 20.8177 384.906 20.3281C385.073 19.8333 385.307 19.4036 385.609 19.0391C385.911 18.6745 386.271 18.3932 386.688 18.1953C387.109 17.9922 387.576 17.8906 388.086 17.8906C388.503 17.8906 388.878 17.9479 389.211 18.0625C389.544 18.1719 389.828 18.349 390.062 18.5938C390.302 18.8385 390.484 19.1562 390.609 19.5469C390.734 19.9323 390.797 20.4036 390.797 20.9609V26.5H389.344V20.9453C389.344 20.5026 389.279 20.1484 389.148 19.8828C389.018 19.612 388.828 19.4167 388.578 19.2969C388.328 19.1719 388.021 19.1094 387.656 19.1094C387.297 19.1094 386.969 19.1849 386.672 19.3359C386.38 19.487 386.128 19.6953 385.914 19.9609C385.706 20.2266 385.542 20.5312 385.422 20.875C385.307 21.2135 385.25 21.5729 385.25 21.9531ZM396.531 18.0469V19.1562H391.961V18.0469H396.531ZM393.508 15.9922H394.953V24.4062C394.953 24.6927 394.997 24.9089 395.086 25.0547C395.174 25.2005 395.289 25.2969 395.43 25.3438C395.57 25.3906 395.721 25.4141 395.883 25.4141C396.003 25.4141 396.128 25.4036 396.258 25.3828C396.393 25.3568 396.495 25.3359 396.562 25.3203L396.57 26.5C396.456 26.5365 396.305 26.5703 396.117 26.6016C395.935 26.638 395.714 26.6562 395.453 26.6562C395.099 26.6562 394.773 26.5859 394.477 26.4453C394.18 26.3047 393.943 26.0703 393.766 25.7422C393.594 25.4089 393.508 24.9609 393.508 24.3984V15.9922ZM399.797 18.0469V26.5H398.344V18.0469H399.797ZM398.234 15.8047C398.234 15.5703 398.305 15.3724 398.445 15.2109C398.591 15.0495 398.805 14.9688 399.086 14.9688C399.362 14.9688 399.573 15.0495 399.719 15.2109C399.87 15.3724 399.945 15.5703 399.945 15.8047C399.945 16.0286 399.87 16.2214 399.719 16.3828C399.573 16.5391 399.362 16.6172 399.086 16.6172C398.805 16.6172 398.591 16.5391 398.445 16.3828C398.305 16.2214 398.234 16.0286 398.234 15.8047ZM404.273 26.5H402.828V17.1562C402.828 16.5469 402.938 16.0339 403.156 15.6172C403.38 15.1953 403.701 14.8776 404.117 14.6641C404.534 14.4453 405.029 14.3359 405.602 14.3359C405.768 14.3359 405.935 14.3464 406.102 14.3672C406.273 14.388 406.44 14.4193 406.602 14.4609L406.523 15.6406C406.414 15.6146 406.289 15.5964 406.148 15.5859C406.013 15.5755 405.878 15.5703 405.742 15.5703C405.435 15.5703 405.169 15.6328 404.945 15.7578C404.727 15.8776 404.56 16.0547 404.445 16.2891C404.331 16.5234 404.273 16.8125 404.273 17.1562V26.5ZM406.07 18.0469V19.1562H401.492V18.0469H406.07ZM410.055 25.625L412.406 18.0469H413.953L410.562 27.8047C410.484 28.013 410.38 28.237 410.25 28.4766C410.125 28.7214 409.964 28.9531 409.766 29.1719C409.568 29.3906 409.328 29.5677 409.047 29.7031C408.771 29.8438 408.44 29.9141 408.055 29.9141C407.94 29.9141 407.794 29.8984 407.617 29.8672C407.44 29.8359 407.315 29.8099 407.242 29.7891L407.234 28.6172C407.276 28.6224 407.341 28.6276 407.43 28.6328C407.523 28.6432 407.589 28.6484 407.625 28.6484C407.953 28.6484 408.232 28.6042 408.461 28.5156C408.69 28.4323 408.883 28.2891 409.039 28.0859C409.201 27.888 409.339 27.6146 409.453 27.2656L410.055 25.625ZM408.328 18.0469L410.523 24.6094L410.898 26.1328L409.859 26.6641L406.75 18.0469H408.328Z" fill="#605DEC"/>
<line x1="429.5" y1="20.5" x2="521" y2="20.5" stroke="#BCBAF7" stroke-dasharray="2 2"/>
<rect x="521" y="2" width="90" height="38" rx="19" fill="#E9E8FC"/>
<path d="M541.188 22.8828H542.688C542.609 23.6016 542.404 24.2448 542.07 24.8125C541.737 25.3802 541.266 25.8307 540.656 26.1641C540.047 26.4922 539.286 26.6562 538.375 26.6562C537.708 26.6562 537.102 26.5312 536.555 26.2812C536.013 26.0312 535.547 25.6771 535.156 25.2188C534.766 24.7552 534.464 24.2005 534.25 23.5547C534.042 22.9036 533.938 22.1797 533.938 21.3828V20.25C533.938 19.4531 534.042 18.7318 534.25 18.0859C534.464 17.4349 534.768 16.8776 535.164 16.4141C535.565 15.9505 536.047 15.5938 536.609 15.3438C537.172 15.0938 537.805 14.9688 538.508 14.9688C539.367 14.9688 540.094 15.1302 540.688 15.4531C541.281 15.776 541.742 16.224 542.07 16.7969C542.404 17.3646 542.609 18.0234 542.688 18.7734H541.188C541.115 18.2422 540.979 17.7865 540.781 17.4062C540.583 17.0208 540.302 16.724 539.938 16.5156C539.573 16.3073 539.096 16.2031 538.508 16.2031C538.003 16.2031 537.557 16.2995 537.172 16.4922C536.792 16.6849 536.471 16.9583 536.211 17.3125C535.956 17.6667 535.763 18.0911 535.633 18.5859C535.503 19.0807 535.438 19.6302 535.438 20.2344V21.3828C535.438 21.9401 535.495 22.4635 535.609 22.9531C535.729 23.4427 535.909 23.8724 536.148 24.2422C536.388 24.612 536.693 24.9036 537.062 25.1172C537.432 25.3255 537.87 25.4297 538.375 25.4297C539.016 25.4297 539.526 25.3281 539.906 25.125C540.286 24.9219 540.573 24.6302 540.766 24.25C540.964 23.8698 541.104 23.4141 541.188 22.8828ZM544.141 22.3672V22.1875C544.141 21.5781 544.229 21.013 544.406 20.4922C544.583 19.9661 544.839 19.5104 545.172 19.125C545.505 18.7344 545.909 18.4323 546.383 18.2188C546.857 18 547.388 17.8906 547.977 17.8906C548.57 17.8906 549.104 18 549.578 18.2188C550.057 18.4323 550.464 18.7344 550.797 19.125C551.135 19.5104 551.393 19.9661 551.57 20.4922C551.747 21.013 551.836 21.5781 551.836 22.1875V22.3672C551.836 22.9766 551.747 23.5417 551.57 24.0625C551.393 24.5833 551.135 25.0391 550.797 25.4297C550.464 25.8151 550.06 26.1172 549.586 26.3359C549.117 26.5495 548.586 26.6562 547.992 26.6562C547.398 26.6562 546.865 26.5495 546.391 26.3359C545.917 26.1172 545.51 25.8151 545.172 25.4297C544.839 25.0391 544.583 24.5833 544.406 24.0625C544.229 23.5417 544.141 22.9766 544.141 22.3672ZM545.586 22.1875V22.3672C545.586 22.7891 545.635 23.1875 545.734 23.5625C545.833 23.9323 545.982 24.2604 546.18 24.5469C546.383 24.8333 546.635 25.0599 546.938 25.2266C547.24 25.388 547.591 25.4688 547.992 25.4688C548.388 25.4688 548.734 25.388 549.031 25.2266C549.333 25.0599 549.583 24.8333 549.781 24.5469C549.979 24.2604 550.128 23.9323 550.227 23.5625C550.331 23.1875 550.383 22.7891 550.383 22.3672V22.1875C550.383 21.7708 550.331 21.3776 550.227 21.0078C550.128 20.6328 549.977 20.3021 549.773 20.0156C549.576 19.724 549.326 19.4948 549.023 19.3281C548.727 19.1615 548.378 19.0781 547.977 19.0781C547.581 19.0781 547.232 19.1615 546.93 19.3281C546.633 19.4948 546.383 19.724 546.18 20.0156C545.982 20.3021 545.833 20.6328 545.734 21.0078C545.635 21.3776 545.586 21.7708 545.586 22.1875ZM555.086 19.7266V26.5H553.633V18.0469H555.008L555.086 19.7266ZM554.789 21.9531L554.117 21.9297C554.122 21.3516 554.198 20.8177 554.344 20.3281C554.49 19.8333 554.706 19.4036 554.992 19.0391C555.279 18.6745 555.635 18.3932 556.062 18.1953C556.49 17.9922 556.984 17.8906 557.547 17.8906C557.943 17.8906 558.307 17.9479 558.641 18.0625C558.974 18.1719 559.263 18.3464 559.508 18.5859C559.753 18.8255 559.943 19.1328 560.078 19.5078C560.214 19.8828 560.281 20.3359 560.281 20.8672V26.5H558.836V20.9375C558.836 20.4948 558.76 20.1406 558.609 19.875C558.464 19.6094 558.255 19.4167 557.984 19.2969C557.714 19.1719 557.396 19.1094 557.031 19.1094C556.604 19.1094 556.247 19.1849 555.961 19.3359C555.674 19.487 555.445 19.6953 555.273 19.9609C555.102 20.2266 554.977 20.5312 554.898 20.875C554.826 21.2135 554.789 21.5729 554.789 21.9531ZM560.266 21.1562L559.297 21.4531C559.302 20.9896 559.378 20.5443 559.523 20.1172C559.674 19.6901 559.891 19.3099 560.172 18.9766C560.458 18.6432 560.81 18.3802 561.227 18.1875C561.643 17.9896 562.12 17.8906 562.656 17.8906C563.109 17.8906 563.51 17.9505 563.859 18.0703C564.214 18.1901 564.51 18.375 564.75 18.625C564.995 18.8698 565.18 19.1849 565.305 19.5703C565.43 19.9557 565.492 20.4141 565.492 20.9453V26.5H564.039V20.9297C564.039 20.4557 563.964 20.0885 563.812 19.8281C563.667 19.5625 563.458 19.3776 563.188 19.2734C562.922 19.1641 562.604 19.1094 562.234 19.1094C561.917 19.1094 561.635 19.1641 561.391 19.2734C561.146 19.3828 560.94 19.5339 560.773 19.7266C560.607 19.9141 560.479 20.1302 560.391 20.375C560.307 20.6198 560.266 20.8802 560.266 21.1562ZM569.125 19.6719V29.75H567.672V18.0469H569L569.125 19.6719ZM574.82 22.2031V22.3672C574.82 22.9818 574.747 23.5521 574.602 24.0781C574.456 24.599 574.242 25.0521 573.961 25.4375C573.685 25.8229 573.344 26.1224 572.938 26.3359C572.531 26.5495 572.065 26.6562 571.539 26.6562C571.003 26.6562 570.529 26.5677 570.117 26.3906C569.706 26.2135 569.357 25.9557 569.07 25.6172C568.784 25.2786 568.555 24.8724 568.383 24.3984C568.216 23.9245 568.102 23.3906 568.039 22.7969V21.9219C568.102 21.2969 568.219 20.737 568.391 20.2422C568.562 19.7474 568.789 19.3255 569.07 18.9766C569.357 18.6224 569.703 18.3542 570.109 18.1719C570.516 17.9844 570.984 17.8906 571.516 17.8906C572.047 17.8906 572.518 17.9948 572.93 18.2031C573.341 18.4062 573.688 18.6979 573.969 19.0781C574.25 19.4583 574.461 19.9141 574.602 20.4453C574.747 20.9714 574.82 21.5573 574.82 22.2031ZM573.367 22.3672V22.2031C573.367 21.7812 573.323 21.3854 573.234 21.0156C573.146 20.6406 573.008 20.3125 572.82 20.0312C572.638 19.7448 572.404 19.5208 572.117 19.3594C571.831 19.1927 571.49 19.1094 571.094 19.1094C570.729 19.1094 570.411 19.1719 570.141 19.2969C569.875 19.4219 569.648 19.5911 569.461 19.8047C569.273 20.013 569.12 20.2526 569 20.5234C568.885 20.7891 568.799 21.0651 568.742 21.3516V23.375C568.846 23.7396 568.992 24.0833 569.18 24.4062C569.367 24.724 569.617 24.9818 569.93 25.1797C570.242 25.3724 570.635 25.4688 571.109 25.4688C571.5 25.4688 571.836 25.388 572.117 25.2266C572.404 25.0599 572.638 24.8333 572.82 24.5469C573.008 24.2604 573.146 23.9323 573.234 23.5625C573.323 23.1875 573.367 22.7891 573.367 22.3672ZM581.648 25.0547V20.7031C581.648 20.3698 581.581 20.0807 581.445 19.8359C581.315 19.5859 581.117 19.3932 580.852 19.2578C580.586 19.1224 580.258 19.0547 579.867 19.0547C579.503 19.0547 579.182 19.1172 578.906 19.2422C578.635 19.3672 578.422 19.5312 578.266 19.7344C578.115 19.9375 578.039 20.1562 578.039 20.3906H576.594C576.594 20.0885 576.672 19.7891 576.828 19.4922C576.984 19.1953 577.208 18.9271 577.5 18.6875C577.797 18.4427 578.151 18.25 578.562 18.1094C578.979 17.9635 579.443 17.8906 579.953 17.8906C580.568 17.8906 581.109 17.9948 581.578 18.2031C582.052 18.4115 582.422 18.7266 582.688 19.1484C582.958 19.5651 583.094 20.0885 583.094 20.7188V24.6562C583.094 24.9375 583.117 25.237 583.164 25.5547C583.216 25.8724 583.292 26.1458 583.391 26.375V26.5H581.883C581.81 26.3333 581.753 26.112 581.711 25.8359C581.669 25.5547 581.648 25.2943 581.648 25.0547ZM581.898 21.375L581.914 22.3906H580.453C580.042 22.3906 579.674 22.4245 579.352 22.4922C579.029 22.5547 578.758 22.651 578.539 22.7812C578.32 22.9115 578.154 23.0755 578.039 23.2734C577.924 23.4661 577.867 23.6927 577.867 23.9531C577.867 24.2188 577.927 24.4609 578.047 24.6797C578.167 24.8984 578.346 25.0729 578.586 25.2031C578.831 25.3281 579.13 25.3906 579.484 25.3906C579.927 25.3906 580.318 25.2969 580.656 25.1094C580.995 24.9219 581.263 24.6927 581.461 24.4219C581.664 24.151 581.773 23.888 581.789 23.6328L582.406 24.3281C582.37 24.5469 582.271 24.7891 582.109 25.0547C581.948 25.3203 581.732 25.5755 581.461 25.8203C581.195 26.0599 580.878 26.2604 580.508 26.4219C580.143 26.5781 579.732 26.6562 579.273 26.6562C578.701 26.6562 578.198 26.5443 577.766 26.3203C577.339 26.0964 577.005 25.7969 576.766 25.4219C576.531 25.0417 576.414 24.6172 576.414 24.1484C576.414 23.6953 576.503 23.2969 576.68 22.9531C576.857 22.6042 577.112 22.3151 577.445 22.0859C577.779 21.8516 578.18 21.6745 578.648 21.5547C579.117 21.4349 579.641 21.375 580.219 21.375H581.898ZM586.812 19.375V26.5H585.367V18.0469H586.773L586.812 19.375ZM589.453 18L589.445 19.3438C589.326 19.3177 589.211 19.3021 589.102 19.2969C588.997 19.2865 588.878 19.2812 588.742 19.2812C588.409 19.2812 588.115 19.3333 587.859 19.4375C587.604 19.5417 587.388 19.6875 587.211 19.875C587.034 20.0625 586.893 20.2865 586.789 20.5469C586.69 20.8021 586.625 21.0833 586.594 21.3906L586.188 21.625C586.188 21.1146 586.237 20.6354 586.336 20.1875C586.44 19.7396 586.599 19.3438 586.812 19C587.026 18.651 587.297 18.3802 587.625 18.1875C587.958 17.9896 588.354 17.8906 588.812 17.8906C588.917 17.8906 589.036 17.9036 589.172 17.9297C589.307 17.9505 589.401 17.974 589.453 18ZM594.141 26.6562C593.552 26.6562 593.018 26.5573 592.539 26.3594C592.065 26.1562 591.656 25.8724 591.312 25.5078C590.974 25.1432 590.714 24.7109 590.531 24.2109C590.349 23.7109 590.258 23.1641 590.258 22.5703V22.2422C590.258 21.5547 590.359 20.9427 590.562 20.4062C590.766 19.8646 591.042 19.4062 591.391 19.0312C591.74 18.6562 592.135 18.3724 592.578 18.1797C593.021 17.987 593.479 17.8906 593.953 17.8906C594.557 17.8906 595.078 17.9948 595.516 18.2031C595.958 18.4115 596.32 18.7031 596.602 19.0781C596.883 19.4479 597.091 19.8854 597.227 20.3906C597.362 20.8906 597.43 21.4375 597.43 22.0312V22.6797H591.117V21.5H595.984V21.3906C595.964 21.0156 595.885 20.651 595.75 20.2969C595.62 19.9427 595.411 19.651 595.125 19.4219C594.839 19.1927 594.448 19.0781 593.953 19.0781C593.625 19.0781 593.323 19.1484 593.047 19.2891C592.771 19.4245 592.534 19.6276 592.336 19.8984C592.138 20.1693 591.984 20.5 591.875 20.8906C591.766 21.2812 591.711 21.7318 591.711 22.2422V22.5703C591.711 22.9714 591.766 23.349 591.875 23.7031C591.99 24.0521 592.154 24.3594 592.367 24.625C592.586 24.8906 592.849 25.099 593.156 25.25C593.469 25.401 593.823 25.4766 594.219 25.4766C594.729 25.4766 595.161 25.3724 595.516 25.1641C595.87 24.9557 596.18 24.6771 596.445 24.3281L597.32 25.0234C597.138 25.2995 596.906 25.5625 596.625 25.8125C596.344 26.0625 595.997 26.2656 595.586 26.4219C595.18 26.5781 594.698 26.6562 594.141 26.6562Z" fill="#605DEC"/>
</svg>
