<svg width="1280" height="640" viewBox="0 0 1280 640" fill="none" xmlns="http://www.w3.org/2000/svg">
<g clip-path="url(#clip0_307_4580)">
<path opacity="0.6" d="M1149.3 60.604H432.402C385.018 60.604 342.175 88.7865 323.413 132.297V132.297C304.65 175.808 261.807 203.99 214.423 203.99H86.0317" stroke="url(#paint0_linear_307_4580)" stroke-width="20" stroke-linecap="round" stroke-linejoin="round"/>
<path opacity="0.6" d="M1149.85 60.604H432.402C385.018 60.604 342.175 88.7865 323.413 132.297V132.297C304.65 175.808 261.807 203.99 214.423 203.99H86.0317" stroke="#BCBAF7" stroke-width="9" stroke-linecap="round" stroke-linejoin="round" stroke-dasharray="0.4 128"/>
<path opacity="0.6" d="M1149.85 60.604H432.402C385.018 60.604 342.175 88.7865 323.413 132.297V132.297C304.65 175.808 261.807 203.99 214.423 203.99H86.0317" stroke="#BCBAF7" stroke-width="2" stroke-linecap="round" stroke-linejoin="round" stroke-dasharray="0.4 18"/>
<path opacity="0.6" d="M459.387 347.376H432.402C385.018 347.376 342.175 319.194 323.413 275.683V275.683C304.65 232.173 261.807 203.99 214.423 203.99H86.0317" stroke="url(#paint1_linear_307_4580)" stroke-width="20" stroke-linecap="round"/>
<path opacity="0.6" d="M481.998 347.376H432.402C385.018 347.376 342.175 319.194 323.413 275.683V275.683C304.65 232.173 261.807 203.99 214.423 203.99H86.0317" stroke="#BCBAF7" stroke-width="2" stroke-linecap="round" stroke-linejoin="round" stroke-dasharray="0.4 18"/>
<path opacity="0.6" d="M481.998 347.376H432.402C385.018 347.376 342.175 319.194 323.413 275.683V275.683C304.65 232.173 261.807 203.99 214.423 203.99H86.0317" stroke="#BCBAF7" stroke-width="9" stroke-linecap="round" stroke-linejoin="round" stroke-dasharray="0.4 128"/>
<rect x="14.1704" y="166.886" width="61" height="61" rx="30.5" fill="white" fill-opacity="0.6"/>
<path d="M43.3371 206.72C49.2281 206.72 54.0037 201.944 54.0037 196.053C54.0037 190.162 49.2281 185.386 43.3371 185.386C37.446 185.386 32.6704 190.162 32.6704 196.053C32.6704 201.944 37.446 206.72 43.3371 206.72Z" stroke="#1513A0" stroke-width="2" stroke-linecap="round" stroke-linejoin="round"/>
<path d="M56.6706 209.386L50.8706 203.586" stroke="#1513A0" stroke-width="2" stroke-linecap="round" stroke-linejoin="round"/>
<rect x="14.1704" y="166.886" width="61" height="61" rx="30.5" stroke="white" stroke-width="3"/>
<path d="M5.73641 255.386V242.696H7.21241V248.456H7.24841L13.4044 242.696H15.2944L8.67041 248.87L15.6904 255.386H13.7464L7.24841 249.41H7.21241V255.386H5.73641ZM20.5371 255.548C19.1571 255.548 18.0651 255.146 17.2611 254.342C16.4571 253.526 16.0551 252.422 16.0551 251.03C16.0551 250.13 16.2351 249.338 16.5951 248.654C16.9551 247.958 17.4471 247.424 18.0711 247.052C18.7071 246.668 19.4391 246.476 20.2671 246.476C21.4551 246.476 22.3851 246.86 23.0571 247.628C23.7291 248.384 24.0651 249.428 24.0651 250.76V251.318H17.4771C17.5251 252.314 17.8131 253.076 18.3411 253.604C18.8691 254.12 19.6011 254.378 20.5371 254.378C21.0651 254.378 21.5691 254.3 22.0491 254.144C22.5291 253.976 22.9851 253.706 23.4171 253.334L23.9211 254.36C23.5251 254.732 23.0211 255.026 22.4091 255.242C21.7971 255.446 21.1731 255.548 20.5371 255.548ZM20.3031 247.556C19.4751 247.556 18.8211 247.814 18.3411 248.33C17.8611 248.846 17.5791 249.524 17.4951 250.364H22.8051C22.7691 249.476 22.5351 248.786 22.1031 248.294C21.6831 247.802 21.0831 247.556 20.3031 247.556ZM27.0777 258.626L28.5717 255.242L24.8817 246.638H26.4657L29.3637 253.73L32.2797 246.638H33.8097L28.6077 258.626H27.0777ZM37.9717 255.386L34.7137 246.638H36.2437L38.7097 253.676L41.2657 246.638H42.5077L45.0277 253.694L47.5297 246.638H48.9877L45.7117 255.386H44.3257L41.8597 248.6L39.3757 255.386H37.9717ZM54.2975 255.548C53.4455 255.548 52.7075 255.362 52.0835 254.99C51.4595 254.618 50.9735 254.096 50.6255 253.424C50.2895 252.74 50.1215 251.936 50.1215 251.012C50.1215 250.088 50.2895 249.29 50.6255 248.618C50.9735 247.934 51.4595 247.406 52.0835 247.034C52.7075 246.662 53.4455 246.476 54.2975 246.476C55.1375 246.476 55.8695 246.662 56.4935 247.034C57.1295 247.406 57.6155 247.934 57.9515 248.618C58.2995 249.29 58.4735 250.088 58.4735 251.012C58.4735 251.936 58.2995 252.74 57.9515 253.424C57.6155 254.096 57.1295 254.618 56.4935 254.99C55.8695 255.362 55.1375 255.548 54.2975 255.548ZM54.2975 254.378C55.1135 254.378 55.7675 254.09 56.2595 253.514C56.7515 252.926 56.9975 252.092 56.9975 251.012C56.9975 249.92 56.7515 249.086 56.2595 248.51C55.7675 247.934 55.1135 247.646 54.2975 247.646C53.4695 247.646 52.8095 247.934 52.3175 248.51C51.8375 249.086 51.5975 249.92 51.5975 251.012C51.5975 252.092 51.8375 252.926 52.3175 253.514C52.8095 254.09 53.4695 254.378 54.2975 254.378ZM60.6634 255.386V246.638H62.0854V248.204C62.5534 247.148 63.5134 246.566 64.9654 246.458L65.4874 246.404L65.5954 247.664L64.6774 247.772C63.8494 247.844 63.2194 248.108 62.7874 248.564C62.3554 249.008 62.1394 249.62 62.1394 250.4V255.386H60.6634ZM70.3391 255.548C69.5591 255.548 68.8751 255.362 68.2871 254.99C67.7111 254.618 67.2611 254.096 66.9371 253.424C66.6251 252.74 66.4691 251.936 66.4691 251.012C66.4691 250.076 66.6251 249.272 66.9371 248.6C67.2611 247.916 67.7111 247.394 68.2871 247.034C68.8751 246.662 69.5591 246.476 70.3391 246.476C71.0231 246.476 71.6231 246.626 72.1391 246.926C72.6671 247.226 73.0571 247.64 73.3091 248.168V242.696H74.7671V255.386H73.3451V253.784C73.0931 254.336 72.7031 254.768 72.1751 255.08C71.6471 255.392 71.0351 255.548 70.3391 255.548ZM70.6451 254.378C71.4611 254.378 72.1151 254.09 72.6071 253.514C73.0991 252.926 73.3451 252.092 73.3451 251.012C73.3451 249.92 73.0991 249.086 72.6071 248.51C72.1151 247.934 71.4611 247.646 70.6451 247.646C69.8171 247.646 69.1571 247.934 68.6651 248.51C68.1851 249.086 67.9451 249.92 67.9451 251.012C67.9451 252.092 68.1851 252.926 68.6651 253.514C69.1571 254.09 69.8171 254.378 70.6451 254.378ZM80.4553 255.548C79.7713 255.548 79.1233 255.452 78.5113 255.26C77.8993 255.068 77.3953 254.798 76.9993 254.45L77.4673 253.424C77.8993 253.772 78.3733 254.03 78.8893 254.198C79.4173 254.354 79.9513 254.432 80.4913 254.432C81.1753 254.432 81.6913 254.306 82.0393 254.054C82.3873 253.802 82.5613 253.46 82.5613 253.028C82.5613 252.692 82.4473 252.428 82.2193 252.236C81.9913 252.032 81.6313 251.876 81.1393 251.768L79.5013 251.408C78.0133 251.084 77.2693 250.316 77.2693 249.104C77.2693 248.312 77.5813 247.676 78.2053 247.196C78.8413 246.716 79.6693 246.476 80.6893 246.476C81.2893 246.476 81.8593 246.572 82.3993 246.764C82.9513 246.944 83.4073 247.214 83.7673 247.574L83.2813 248.6C82.9333 248.276 82.5253 248.03 82.0573 247.862C81.6013 247.682 81.1453 247.592 80.6893 247.592C80.0173 247.592 79.5073 247.724 79.1593 247.988C78.8113 248.252 78.6373 248.6 78.6373 249.032C78.6373 249.704 79.0813 250.136 79.9693 250.328L81.6073 250.67C82.3753 250.838 82.9573 251.108 83.3533 251.48C83.7493 251.84 83.9473 252.332 83.9473 252.956C83.9473 253.76 83.6293 254.396 82.9933 254.864C82.3573 255.32 81.5113 255.548 80.4553 255.548Z" fill="#1513A0"/>
<rect x="1162.91" y="152.548" width="61" height="61" rx="30.5" fill="white" fill-opacity="0.6"/>
<path d="M1186.75 196.381H1182.75C1182.04 196.381 1181.36 196.1 1180.86 195.6C1180.36 195.1 1180.08 194.422 1180.08 193.714V184.381C1180.08 183.674 1180.36 182.996 1180.86 182.495C1181.36 181.995 1182.04 181.714 1182.75 181.714H1186.75M1196.08 179.048V173.714C1196.08 172.653 1195.66 171.636 1194.91 170.886C1194.16 170.136 1193.14 169.714 1192.08 169.714L1186.75 181.714V196.381H1201.79C1202.43 196.388 1203.05 196.163 1203.54 195.746C1204.03 195.33 1204.36 194.75 1204.45 194.114L1206.29 182.114C1206.35 181.732 1206.33 181.342 1206.22 180.971C1206.11 180.599 1205.92 180.256 1205.67 179.964C1205.42 179.673 1205.1 179.44 1204.75 179.281C1204.4 179.123 1204.01 179.043 1203.63 179.048H1196.08Z" stroke="#1513A0" stroke-width="2" stroke-linecap="round" stroke-linejoin="round"/>
<rect x="1162.91" y="152.548" width="61" height="61" rx="30.5" stroke="white" stroke-width="3"/>
<path d="M1149.98 241.21C1148.32 241.21 1147.05 240.772 1146.19 239.896C1145.32 239.008 1144.89 237.718 1144.89 236.026V228.358H1146.37V235.954C1146.37 238.582 1147.57 239.896 1149.98 239.896C1152.37 239.896 1153.57 238.582 1153.57 235.954V228.358H1155.04V236.026C1155.04 237.718 1154.61 239.008 1153.75 239.896C1152.89 240.772 1151.64 241.21 1149.98 241.21ZM1157.88 244.288V232.3H1159.3V233.866C1159.56 233.326 1159.95 232.906 1160.47 232.606C1161 232.294 1161.61 232.138 1162.31 232.138C1163.09 232.138 1163.76 232.324 1164.34 232.696C1164.93 233.056 1165.38 233.578 1165.69 234.262C1166.01 234.934 1166.18 235.738 1166.18 236.674C1166.18 237.598 1166.01 238.402 1165.69 239.086C1165.38 239.758 1164.93 240.28 1164.34 240.652C1163.76 241.024 1163.09 241.21 1162.31 241.21C1161.63 241.21 1161.03 241.06 1160.51 240.76C1159.98 240.46 1159.59 240.046 1159.34 239.518V244.288H1157.88ZM1162 240.04C1162.82 240.04 1163.47 239.752 1163.96 239.176C1164.45 238.588 1164.7 237.754 1164.7 236.674C1164.7 235.582 1164.45 234.748 1163.96 234.172C1163.47 233.596 1162.82 233.308 1162 233.308C1161.18 233.308 1160.53 233.596 1160.04 234.172C1159.55 234.748 1159.3 235.582 1159.3 236.674C1159.3 237.754 1159.55 238.588 1160.04 239.176C1160.53 239.752 1161.18 240.04 1162 240.04ZM1170.82 241.048L1167.06 232.3H1168.64L1171.54 239.392L1174.48 232.3H1175.97L1172.19 241.048H1170.82ZM1181.03 241.21C1180.17 241.21 1179.44 241.024 1178.81 240.652C1178.19 240.28 1177.7 239.758 1177.35 239.086C1177.02 238.402 1176.85 237.598 1176.85 236.674C1176.85 235.75 1177.02 234.952 1177.35 234.28C1177.7 233.596 1178.19 233.068 1178.81 232.696C1179.44 232.324 1180.17 232.138 1181.03 232.138C1181.87 232.138 1182.6 232.324 1183.22 232.696C1183.86 233.068 1184.34 233.596 1184.68 234.28C1185.03 234.952 1185.2 235.75 1185.2 236.674C1185.2 237.598 1185.03 238.402 1184.68 239.086C1184.34 239.758 1183.86 240.28 1183.22 240.652C1182.6 241.024 1181.87 241.21 1181.03 241.21ZM1181.03 240.04C1181.84 240.04 1182.5 239.752 1182.99 239.176C1183.48 238.588 1183.73 237.754 1183.73 236.674C1183.73 235.582 1183.48 234.748 1182.99 234.172C1182.5 233.596 1181.84 233.308 1181.03 233.308C1180.2 233.308 1179.54 233.596 1179.05 234.172C1178.57 234.748 1178.33 235.582 1178.33 236.674C1178.33 237.754 1178.57 238.588 1179.05 239.176C1179.54 239.752 1180.2 240.04 1181.03 240.04ZM1190.81 241.21C1189.78 241.21 1189.01 240.94 1188.49 240.4C1187.98 239.848 1187.72 239.056 1187.72 238.024V233.434H1186.01V232.3H1187.72V229.618H1189.18V232.3H1191.95V233.434H1189.18V237.88C1189.18 238.564 1189.32 239.086 1189.61 239.446C1189.9 239.794 1190.36 239.968 1191.01 239.968C1191.2 239.968 1191.4 239.944 1191.59 239.896C1191.78 239.848 1191.95 239.8 1192.11 239.752L1192.36 240.868C1192.21 240.952 1191.98 241.03 1191.68 241.102C1191.38 241.174 1191.09 241.21 1190.81 241.21ZM1197.45 241.21C1196.07 241.21 1194.98 240.808 1194.17 240.004C1193.37 239.188 1192.97 238.084 1192.97 236.692C1192.97 235.792 1193.15 235 1193.51 234.316C1193.87 233.62 1194.36 233.086 1194.98 232.714C1195.62 232.33 1196.35 232.138 1197.18 232.138C1198.37 232.138 1199.3 232.522 1199.97 233.29C1200.64 234.046 1200.98 235.09 1200.98 236.422V236.98H1194.39C1194.44 237.976 1194.73 238.738 1195.25 239.266C1195.78 239.782 1196.51 240.04 1197.45 240.04C1197.98 240.04 1198.48 239.962 1198.96 239.806C1199.44 239.638 1199.9 239.368 1200.33 238.996L1200.83 240.022C1200.44 240.394 1199.93 240.688 1199.32 240.904C1198.71 241.108 1198.09 241.21 1197.45 241.21ZM1197.22 233.218C1196.39 233.218 1195.73 233.476 1195.25 233.992C1194.77 234.508 1194.49 235.186 1194.41 236.026H1199.72C1199.68 235.138 1199.45 234.448 1199.02 233.956C1198.6 233.464 1198 233.218 1197.22 233.218ZM1207.71 241.048V232.3H1209.13V233.866C1209.6 232.81 1210.56 232.228 1212.01 232.12L1212.54 232.066L1212.64 233.326L1211.73 233.434C1210.9 233.506 1210.27 233.77 1209.84 234.226C1209.4 234.67 1209.19 235.282 1209.19 236.062V241.048H1207.71ZM1216.83 241.21C1216.23 241.21 1215.69 241.096 1215.21 240.868C1214.74 240.628 1214.37 240.304 1214.09 239.896C1213.82 239.488 1213.68 239.032 1213.68 238.528C1213.68 237.892 1213.84 237.388 1214.16 237.016C1214.5 236.644 1215.05 236.38 1215.8 236.224C1216.57 236.056 1217.61 235.972 1218.93 235.972H1219.51V235.414C1219.51 234.67 1219.35 234.136 1219.04 233.812C1218.74 233.476 1218.26 233.308 1217.58 233.308C1217.06 233.308 1216.55 233.386 1216.05 233.542C1215.56 233.686 1215.06 233.926 1214.54 234.262L1214.04 233.2C1214.49 232.876 1215.05 232.618 1215.69 232.426C1216.35 232.234 1216.98 232.138 1217.58 232.138C1218.71 232.138 1219.55 232.414 1220.09 232.966C1220.64 233.518 1220.91 234.376 1220.91 235.54V241.048H1219.55V239.536C1219.32 240.052 1218.96 240.46 1218.48 240.76C1218.02 241.06 1217.46 241.21 1216.83 241.21ZM1217.06 240.112C1217.78 240.112 1218.37 239.866 1218.83 239.374C1219.28 238.87 1219.51 238.234 1219.51 237.466V236.926H1218.95C1217.98 236.926 1217.21 236.974 1216.65 237.07C1216.1 237.154 1215.71 237.31 1215.48 237.538C1215.26 237.754 1215.15 238.054 1215.15 238.438C1215.15 238.93 1215.32 239.332 1215.66 239.644C1216.01 239.956 1216.47 240.112 1217.06 240.112ZM1227.13 241.21C1226.1 241.21 1225.32 240.94 1224.81 240.4C1224.29 239.848 1224.03 239.056 1224.03 238.024V233.434H1222.32V232.3H1224.03V229.618H1225.49V232.3H1228.26V233.434H1225.49V237.88C1225.49 238.564 1225.64 239.086 1225.92 239.446C1226.21 239.794 1226.68 239.968 1227.33 239.968C1227.52 239.968 1227.71 239.944 1227.9 239.896C1228.1 239.848 1228.27 239.8 1228.43 239.752L1228.68 240.868C1228.52 240.952 1228.29 241.03 1227.99 241.102C1227.69 241.174 1227.41 241.21 1227.13 241.21ZM1229.73 230.122V228.484H1231.53V230.122H1229.73ZM1229.91 241.048V232.3H1231.37V241.048H1229.91ZM1237.73 241.21C1236.88 241.21 1236.14 241.024 1235.52 240.652C1234.89 240.28 1234.41 239.758 1234.06 239.086C1233.72 238.402 1233.56 237.598 1233.56 236.674C1233.56 235.75 1233.72 234.952 1234.06 234.28C1234.41 233.596 1234.89 233.068 1235.52 232.696C1236.14 232.324 1236.88 232.138 1237.73 232.138C1238.57 232.138 1239.3 232.324 1239.93 232.696C1240.56 233.068 1241.05 233.596 1241.39 234.28C1241.73 234.952 1241.91 235.75 1241.91 236.674C1241.91 237.598 1241.73 238.402 1241.39 239.086C1241.05 239.758 1240.56 240.28 1239.93 240.652C1239.3 241.024 1238.57 241.21 1237.73 241.21ZM1237.73 240.04C1238.55 240.04 1239.2 239.752 1239.69 239.176C1240.19 238.588 1240.43 237.754 1240.43 236.674C1240.43 235.582 1240.19 234.748 1239.69 234.172C1239.2 233.596 1238.55 233.308 1237.73 233.308C1236.9 233.308 1236.24 233.596 1235.75 234.172C1235.27 234.748 1235.03 235.582 1235.03 236.674C1235.03 237.754 1235.27 238.588 1235.75 239.176C1236.24 239.752 1236.9 240.04 1237.73 240.04Z" fill="#1513A0"/>
<rect x="1162.91" y="259.536" width="61" height="61" rx="30.5" fill="white" fill-opacity="0.6"/>
<path d="M1202.75 279.369H1184.08C1182.61 279.369 1181.41 280.563 1181.41 282.036V300.702C1181.41 302.175 1182.61 303.369 1184.08 303.369H1202.75C1204.22 303.369 1205.41 302.175 1205.41 300.702V282.036C1205.41 280.563 1204.22 279.369 1202.75 279.369Z" stroke="#1513A0" stroke-width="2" stroke-linecap="round" stroke-linejoin="round"/>
<path d="M1198.75 276.702V282.035" stroke="#1513A0" stroke-width="2" stroke-linecap="round" stroke-linejoin="round"/>
<path d="M1188.08 276.702V282.035" stroke="#1513A0" stroke-width="2" stroke-linecap="round" stroke-linejoin="round"/>
<path d="M1181.41 287.369H1205.41" stroke="#1513A0" stroke-width="2" stroke-linecap="round" stroke-linejoin="round"/>
<rect x="1162.91" y="259.536" width="61" height="61" rx="30.5" stroke="white" stroke-width="3"/>
<path d="M1175.48 348.036V335.346H1179.76C1181.82 335.346 1183.4 335.892 1184.52 336.984C1185.63 338.064 1186.19 339.63 1186.19 341.682C1186.19 343.734 1185.63 345.306 1184.52 346.398C1183.4 347.49 1181.82 348.036 1179.76 348.036H1175.48ZM1176.96 346.776H1179.66C1182.97 346.776 1184.62 345.078 1184.62 341.682C1184.62 338.298 1182.97 336.606 1179.66 336.606H1176.96V346.776ZM1191.4 348.198C1190.8 348.198 1190.26 348.084 1189.78 347.856C1189.31 347.616 1188.94 347.292 1188.66 346.884C1188.38 346.476 1188.25 346.02 1188.25 345.516C1188.25 344.88 1188.41 344.376 1188.73 344.004C1189.07 343.632 1189.61 343.368 1190.37 343.212C1191.14 343.044 1192.18 342.96 1193.5 342.96H1194.08V342.402C1194.08 341.658 1193.92 341.124 1193.61 340.8C1193.31 340.464 1192.82 340.296 1192.15 340.296C1191.62 340.296 1191.11 340.374 1190.62 340.53C1190.13 340.674 1189.63 340.914 1189.11 341.25L1188.61 340.188C1189.06 339.864 1189.61 339.606 1190.26 339.414C1190.92 339.222 1191.55 339.126 1192.15 339.126C1193.28 339.126 1194.11 339.402 1194.65 339.954C1195.21 340.506 1195.48 341.364 1195.48 342.528V348.036H1194.11V346.524C1193.89 347.04 1193.53 347.448 1193.05 347.748C1192.58 348.048 1192.03 348.198 1191.4 348.198ZM1191.63 347.1C1192.35 347.1 1192.94 346.854 1193.39 346.362C1193.85 345.858 1194.08 345.222 1194.08 344.454V343.914H1193.52C1192.55 343.914 1191.78 343.962 1191.22 344.058C1190.66 344.142 1190.27 344.298 1190.05 344.526C1189.83 344.742 1189.72 345.042 1189.72 345.426C1189.72 345.918 1189.89 346.32 1190.23 346.632C1190.57 346.944 1191.04 347.1 1191.63 347.1ZM1201.7 348.198C1200.66 348.198 1199.89 347.928 1199.37 347.388C1198.86 346.836 1198.6 346.044 1198.6 345.012V340.422H1196.89V339.288H1198.6V336.606H1200.06V339.288H1202.83V340.422H1200.06V344.868C1200.06 345.552 1200.2 346.074 1200.49 346.434C1200.78 346.782 1201.25 346.956 1201.89 346.956C1202.09 346.956 1202.28 346.932 1202.47 346.884C1202.66 346.836 1202.84 346.788 1202.99 346.74L1203.24 347.856C1203.09 347.94 1202.86 348.018 1202.56 348.09C1202.26 348.162 1201.97 348.198 1201.7 348.198ZM1208.33 348.198C1206.95 348.198 1205.86 347.796 1205.06 346.992C1204.25 346.176 1203.85 345.072 1203.85 343.68C1203.85 342.78 1204.03 341.988 1204.39 341.304C1204.75 340.608 1205.24 340.074 1205.87 339.702C1206.5 339.318 1207.24 339.126 1208.06 339.126C1209.25 339.126 1210.18 339.51 1210.85 340.278C1211.53 341.034 1211.86 342.078 1211.86 343.41V343.968H1205.27C1205.32 344.964 1205.61 345.726 1206.14 346.254C1206.67 346.77 1207.4 347.028 1208.33 347.028C1208.86 347.028 1209.37 346.95 1209.85 346.794C1210.33 346.626 1210.78 346.356 1211.21 345.984L1211.72 347.01C1211.32 347.382 1210.82 347.676 1210.21 347.892C1209.59 348.096 1208.97 348.198 1208.33 348.198ZM1208.1 340.206C1207.27 340.206 1206.62 340.464 1206.14 340.98C1205.66 341.496 1205.38 342.174 1205.29 343.014H1210.6C1210.57 342.126 1210.33 341.436 1209.9 340.944C1209.48 340.452 1208.88 340.206 1208.1 340.206Z" fill="#1513A0"/>
<rect x="1162.36" y="366.524" width="61" height="61" rx="30.5" fill="white" fill-opacity="0.6"/>
<path d="M1184.63 408.024V392.408H1187.77V395.192C1188.58 393.336 1190.27 392.301 1192.83 392.088L1193.88 392.024L1194.11 394.776L1192.15 394.968C1189.32 395.245 1187.9 396.707 1187.9 399.352V408.024H1184.63ZM1195.72 410.136L1193.25 409.4L1201.48 383.864L1203.97 384.6L1195.72 410.136Z" fill="#1513A0"/>
<rect x="1162.36" y="366.524" width="61" height="61" rx="30.5" stroke="white" stroke-width="3"/>
<path d="M1153.42 455.186C1152.17 455.186 1151.1 454.922 1150.21 454.394C1149.33 453.866 1148.64 453.116 1148.16 452.144C1147.69 451.172 1147.46 450.014 1147.46 448.67C1147.46 447.338 1147.69 446.186 1148.16 445.214C1148.64 444.242 1149.33 443.492 1150.21 442.964C1151.1 442.436 1152.17 442.172 1153.42 442.172C1154.29 442.172 1155.1 442.31 1155.83 442.586C1156.57 442.862 1157.2 443.264 1157.72 443.792L1157.14 444.998C1156.59 444.482 1156.02 444.11 1155.42 443.882C1154.83 443.642 1154.17 443.522 1153.45 443.522C1152.03 443.522 1150.93 443.972 1150.18 444.872C1149.42 445.772 1149.04 447.038 1149.04 448.67C1149.04 450.314 1149.42 451.586 1150.18 452.486C1150.93 453.386 1152.03 453.836 1153.45 453.836C1154.17 453.836 1154.83 453.722 1155.42 453.494C1156.02 453.254 1156.59 452.876 1157.14 452.36L1157.72 453.566C1157.2 454.082 1156.57 454.484 1155.83 454.772C1155.1 455.048 1154.29 455.186 1153.42 455.186ZM1162.84 455.186C1161.99 455.186 1161.25 455 1160.63 454.628C1160.01 454.256 1159.52 453.734 1159.17 453.062C1158.84 452.378 1158.67 451.574 1158.67 450.65C1158.67 449.726 1158.84 448.928 1159.17 448.256C1159.52 447.572 1160.01 447.044 1160.63 446.672C1161.25 446.3 1161.99 446.114 1162.84 446.114C1163.68 446.114 1164.42 446.3 1165.04 446.672C1165.68 447.044 1166.16 447.572 1166.5 448.256C1166.85 448.928 1167.02 449.726 1167.02 450.65C1167.02 451.574 1166.85 452.378 1166.5 453.062C1166.16 453.734 1165.68 454.256 1165.04 454.628C1164.42 455 1163.68 455.186 1162.84 455.186ZM1162.84 454.016C1163.66 454.016 1164.31 453.728 1164.81 453.152C1165.3 452.564 1165.54 451.73 1165.54 450.65C1165.54 449.558 1165.3 448.724 1164.81 448.148C1164.31 447.572 1163.66 447.284 1162.84 447.284C1162.02 447.284 1161.36 447.572 1160.86 448.148C1160.38 448.724 1160.14 449.558 1160.14 450.65C1160.14 451.73 1160.38 452.564 1160.86 453.152C1161.36 453.728 1162.02 454.016 1162.84 454.016ZM1169.25 455.024V446.276H1170.67V447.752C1170.93 447.224 1171.3 446.822 1171.77 446.546C1172.23 446.258 1172.78 446.114 1173.4 446.114C1174.77 446.114 1175.65 446.708 1176.03 447.896C1176.3 447.344 1176.69 446.912 1177.2 446.6C1177.72 446.276 1178.31 446.114 1178.98 446.114C1180.93 446.114 1181.9 447.266 1181.9 449.57V455.024H1180.44V449.642C1180.44 448.838 1180.3 448.25 1180.01 447.878C1179.73 447.494 1179.27 447.302 1178.62 447.302C1177.92 447.302 1177.35 447.554 1176.93 448.058C1176.51 448.562 1176.3 449.234 1176.3 450.074V455.024H1174.84V449.642C1174.84 448.838 1174.7 448.25 1174.41 447.878C1174.14 447.494 1173.67 447.302 1173.03 447.302C1172.31 447.302 1171.74 447.554 1171.32 448.058C1170.91 448.562 1170.7 449.234 1170.7 450.074V455.024H1169.25ZM1184.66 455.024V446.276H1186.08V447.752C1186.35 447.224 1186.71 446.822 1187.18 446.546C1187.65 446.258 1188.2 446.114 1188.82 446.114C1190.19 446.114 1191.06 446.708 1191.45 447.896C1191.71 447.344 1192.1 446.912 1192.62 446.6C1193.13 446.276 1193.73 446.114 1194.4 446.114C1196.34 446.114 1197.32 447.266 1197.32 449.57V455.024H1195.86V449.642C1195.86 448.838 1195.71 448.25 1195.43 447.878C1195.15 447.494 1194.69 447.302 1194.04 447.302C1193.33 447.302 1192.77 447.554 1192.35 448.058C1191.93 448.562 1191.72 449.234 1191.72 450.074V455.024H1190.26V449.642C1190.26 448.838 1190.12 448.25 1189.83 447.878C1189.55 447.494 1189.09 447.302 1188.44 447.302C1187.72 447.302 1187.15 447.554 1186.73 448.058C1186.32 448.562 1186.12 449.234 1186.12 450.074V455.024H1184.66ZM1203.14 455.186C1201.04 455.186 1199.99 454.028 1199.99 451.712V446.276H1201.45V451.694C1201.45 452.474 1201.6 453.05 1201.91 453.422C1202.24 453.794 1202.74 453.98 1203.43 453.98C1204.17 453.98 1204.78 453.734 1205.24 453.242C1205.71 452.738 1205.95 452.072 1205.95 451.244V446.276H1207.4V455.024H1205.98V453.548C1205.71 454.076 1205.32 454.484 1204.81 454.772C1204.32 455.048 1203.76 455.186 1203.14 455.186ZM1210.13 455.024V446.276H1211.55V447.77C1211.84 447.218 1212.25 446.804 1212.78 446.528C1213.31 446.252 1213.9 446.114 1214.56 446.114C1216.64 446.114 1217.67 447.266 1217.67 449.57V455.024H1216.22V449.66C1216.22 448.844 1216.05 448.25 1215.73 447.878C1215.42 447.494 1214.91 447.302 1214.22 447.302C1213.41 447.302 1212.77 447.554 1212.29 448.058C1211.82 448.55 1211.59 449.21 1211.59 450.038V455.024H1210.13ZM1220.18 444.098V442.46H1221.98V444.098H1220.18ZM1220.36 455.024V446.276H1221.82V455.024H1220.36ZM1228.06 455.186C1227.02 455.186 1226.25 454.916 1225.73 454.376C1225.22 453.824 1224.96 453.032 1224.96 452V447.41H1223.25V446.276H1224.96V443.594H1226.42V446.276H1229.19V447.41H1226.42V451.856C1226.42 452.54 1226.56 453.062 1226.85 453.422C1227.14 453.77 1227.61 453.944 1228.25 453.944C1228.45 453.944 1228.64 453.92 1228.83 453.872C1229.02 453.824 1229.2 453.776 1229.35 453.728L1229.6 454.844C1229.45 454.928 1229.22 455.006 1228.92 455.078C1228.62 455.15 1228.33 455.186 1228.06 455.186ZM1231.95 458.264L1233.45 454.88L1229.76 446.276H1231.34L1234.24 453.368L1237.16 446.276H1238.69L1233.48 458.264H1231.95Z" fill="#1513A0"/>
<rect x="1162.91" y="473.512" width="61" height="61" rx="30.5" fill="white" fill-opacity="0.6"/>
<path d="M1196.08 490.678H1185.41C1184.71 490.678 1184.03 490.959 1183.53 491.459C1183.03 491.959 1182.75 492.638 1182.75 493.345V514.678C1182.75 515.385 1183.03 516.064 1183.53 516.564C1184.03 517.064 1184.71 517.345 1185.41 517.345H1201.41C1202.12 517.345 1202.8 517.064 1203.3 516.564C1203.8 516.064 1204.08 515.385 1204.08 514.678V498.678L1196.08 490.678Z" stroke="#1513A0" stroke-width="2" stroke-linecap="round" stroke-linejoin="round"/>
<path d="M1196.08 490.678V498.678H1204.08" stroke="#1513A0" stroke-width="2" stroke-linecap="round" stroke-linejoin="round"/>
<path d="M1198.75 505.345H1188.08" stroke="#1513A0" stroke-width="2" stroke-linecap="round" stroke-linejoin="round"/>
<path d="M1198.75 510.678H1188.08" stroke="#1513A0" stroke-width="2" stroke-linecap="round" stroke-linejoin="round"/>
<path d="M1190.75 500.012H1189.41H1188.08" stroke="#1513A0" stroke-width="2" stroke-linecap="round" stroke-linejoin="round"/>
<rect x="1162.91" y="473.512" width="61" height="61" rx="30.5" stroke="white" stroke-width="3"/>
<path d="M1114.09 562.012V550.6H1109.49V549.322H1120.2V550.6H1115.59V562.012H1114.09ZM1121.43 551.086V549.448H1123.23V551.086H1121.43ZM1121.61 562.012V553.264H1123.07V562.012H1121.61ZM1129.3 562.174C1128.27 562.174 1127.5 561.904 1126.98 561.364C1126.47 560.812 1126.21 560.02 1126.21 558.988V554.398H1124.5V553.264H1126.21V550.582H1127.67V553.264H1130.44V554.398H1127.67V558.844C1127.67 559.528 1127.81 560.05 1128.1 560.41C1128.39 560.758 1128.85 560.932 1129.5 560.932C1129.69 560.932 1129.89 560.908 1130.08 560.86C1130.27 560.812 1130.44 560.764 1130.6 560.716L1130.85 561.832C1130.7 561.916 1130.47 561.994 1130.17 562.066C1129.87 562.138 1129.58 562.174 1129.3 562.174ZM1134.77 562.174C1133.88 562.174 1133.21 561.916 1132.75 561.4C1132.31 560.872 1132.09 560.11 1132.09 559.114V549.322H1133.54V559.006C1133.54 560.29 1134.05 560.932 1135.07 560.932C1135.37 560.932 1135.64 560.896 1135.88 560.824L1135.85 562.048C1135.48 562.132 1135.12 562.174 1134.77 562.174ZM1141.27 562.174C1139.89 562.174 1138.79 561.772 1137.99 560.968C1137.19 560.152 1136.78 559.048 1136.78 557.656C1136.78 556.756 1136.96 555.964 1137.32 555.28C1137.68 554.584 1138.18 554.05 1138.8 553.678C1139.44 553.294 1140.17 553.102 1141 553.102C1142.18 553.102 1143.11 553.486 1143.79 554.254C1144.46 555.01 1144.79 556.054 1144.79 557.386V557.944H1138.21C1138.25 558.94 1138.54 559.702 1139.07 560.23C1139.6 560.746 1140.33 561.004 1141.27 561.004C1141.79 561.004 1142.3 560.926 1142.78 560.77C1143.26 560.602 1143.71 560.332 1144.15 559.96L1144.65 560.986C1144.25 561.358 1143.75 561.652 1143.14 561.868C1142.53 562.072 1141.9 562.174 1141.27 562.174ZM1141.03 554.182C1140.2 554.182 1139.55 554.44 1139.07 554.956C1138.59 555.472 1138.31 556.15 1138.22 556.99H1143.53C1143.5 556.102 1143.26 555.412 1142.83 554.92C1142.41 554.428 1141.81 554.182 1141.03 554.182ZM1147.43 564.064L1146.74 563.542C1147.01 563.266 1147.19 563.002 1147.3 562.75C1147.42 562.51 1147.5 562.264 1147.53 562.012H1146.67V560.176H1148.51V561.472C1148.51 561.964 1148.43 562.42 1148.27 562.84C1148.12 563.26 1147.83 563.668 1147.43 564.064ZM1159.33 562.174C1158.46 562.174 1157.7 561.988 1157.06 561.616C1156.43 561.232 1155.94 560.698 1155.59 560.014C1155.25 559.318 1155.08 558.508 1155.08 557.584C1155.08 556.192 1155.46 555.1 1156.22 554.308C1156.97 553.504 1158.01 553.102 1159.33 553.102C1159.87 553.102 1160.41 553.198 1160.93 553.39C1161.46 553.582 1161.9 553.852 1162.25 554.2L1161.74 555.262C1161.4 554.926 1161.01 554.68 1160.59 554.524C1160.18 554.368 1159.79 554.29 1159.42 554.29C1158.51 554.29 1157.81 554.578 1157.32 555.154C1156.82 555.718 1156.58 556.534 1156.58 557.602C1156.58 558.646 1156.82 559.474 1157.32 560.086C1157.81 560.686 1158.51 560.986 1159.42 560.986C1159.79 560.986 1160.18 560.908 1160.59 560.752C1161.01 560.596 1161.4 560.344 1161.74 559.996L1162.25 561.058C1161.9 561.406 1161.46 561.682 1160.92 561.886C1160.39 562.078 1159.86 562.174 1159.33 562.174ZM1167.42 562.174C1166.56 562.174 1165.83 561.988 1165.2 561.616C1164.58 561.244 1164.09 560.722 1163.74 560.05C1163.41 559.366 1163.24 558.562 1163.24 557.638C1163.24 556.714 1163.41 555.916 1163.74 555.244C1164.09 554.56 1164.58 554.032 1165.2 553.66C1165.83 553.288 1166.56 553.102 1167.42 553.102C1168.26 553.102 1168.99 553.288 1169.61 553.66C1170.25 554.032 1170.73 554.56 1171.07 555.244C1171.42 555.916 1171.59 556.714 1171.59 557.638C1171.59 558.562 1171.42 559.366 1171.07 560.05C1170.73 560.722 1170.25 561.244 1169.61 561.616C1168.99 561.988 1168.26 562.174 1167.42 562.174ZM1167.42 561.004C1168.23 561.004 1168.89 560.716 1169.38 560.14C1169.87 559.552 1170.12 558.718 1170.12 557.638C1170.12 556.546 1169.87 555.712 1169.38 555.136C1168.89 554.56 1168.23 554.272 1167.42 554.272C1166.59 554.272 1165.93 554.56 1165.44 555.136C1164.96 555.712 1164.72 556.546 1164.72 557.638C1164.72 558.718 1164.96 559.552 1165.44 560.14C1165.93 560.716 1166.59 561.004 1167.42 561.004ZM1173.78 562.012V553.264H1175.2V554.758C1175.49 554.206 1175.9 553.792 1176.43 553.516C1176.96 553.24 1177.55 553.102 1178.21 553.102C1180.29 553.102 1181.32 554.254 1181.32 556.558V562.012H1179.87V556.648C1179.87 555.832 1179.7 555.238 1179.38 554.866C1179.07 554.482 1178.56 554.29 1177.87 554.29C1177.06 554.29 1176.42 554.542 1175.94 555.046C1175.47 555.538 1175.24 556.198 1175.24 557.026V562.012H1173.78ZM1187.52 562.174C1186.49 562.174 1185.72 561.904 1185.2 561.364C1184.68 560.812 1184.43 560.02 1184.43 558.988V554.398H1182.72V553.264H1184.43V550.582H1185.88V553.264H1188.66V554.398H1185.88V558.844C1185.88 559.528 1186.03 560.05 1186.32 560.41C1186.6 560.758 1187.07 560.932 1187.72 560.932C1187.91 560.932 1188.1 560.908 1188.3 560.86C1188.49 560.812 1188.66 560.764 1188.82 560.716L1189.07 561.832C1188.91 561.916 1188.69 561.994 1188.39 562.066C1188.09 562.138 1187.8 562.174 1187.52 562.174ZM1194.16 562.174C1192.78 562.174 1191.69 561.772 1190.88 560.968C1190.08 560.152 1189.68 559.048 1189.68 557.656C1189.68 556.756 1189.86 555.964 1190.22 555.28C1190.58 554.584 1191.07 554.05 1191.69 553.678C1192.33 553.294 1193.06 553.102 1193.89 553.102C1195.08 553.102 1196.01 553.486 1196.68 554.254C1197.35 555.01 1197.69 556.054 1197.69 557.386V557.944H1191.1C1191.15 558.94 1191.44 559.702 1191.96 560.23C1192.49 560.746 1193.22 561.004 1194.16 561.004C1194.69 561.004 1195.19 560.926 1195.67 560.77C1196.15 560.602 1196.61 560.332 1197.04 559.96L1197.54 560.986C1197.15 561.358 1196.64 561.652 1196.03 561.868C1195.42 562.072 1194.8 562.174 1194.16 562.174ZM1193.93 554.182C1193.1 554.182 1192.44 554.44 1191.96 554.956C1191.48 555.472 1191.2 556.15 1191.12 556.99H1196.43C1196.39 556.102 1196.16 555.412 1195.73 554.92C1195.31 554.428 1194.71 554.182 1193.93 554.182ZM1199.8 562.012V553.264H1201.22V554.758C1201.51 554.206 1201.92 553.792 1202.44 553.516C1202.97 553.24 1203.57 553.102 1204.23 553.102C1206.3 553.102 1207.34 554.254 1207.34 556.558V562.012H1205.88V556.648C1205.88 555.832 1205.72 555.238 1205.4 554.866C1205.08 554.482 1204.58 554.29 1203.88 554.29C1203.08 554.29 1202.44 554.542 1201.96 555.046C1201.49 555.538 1201.26 556.198 1201.26 557.026V562.012H1199.8ZM1213.54 562.174C1212.51 562.174 1211.73 561.904 1211.22 561.364C1210.7 560.812 1210.44 560.02 1210.44 558.988V554.398H1208.73V553.264H1210.44V550.582H1211.9V553.264H1214.67V554.398H1211.9V558.844C1211.9 559.528 1212.04 560.05 1212.33 560.41C1212.62 560.758 1213.09 560.932 1213.74 560.932C1213.93 560.932 1214.12 560.908 1214.31 560.86C1214.5 560.812 1214.68 560.764 1214.83 560.716L1215.09 561.832C1214.93 561.916 1214.7 561.994 1214.4 562.066C1214.1 562.138 1213.81 562.174 1213.54 562.174ZM1217.09 564.064L1216.4 563.542C1216.67 563.266 1216.85 563.002 1216.96 562.75C1217.08 562.51 1217.16 562.264 1217.2 562.012H1216.33V560.176H1218.17V561.472C1218.17 561.964 1218.09 562.42 1217.93 562.84C1217.78 563.26 1217.5 563.668 1217.09 564.064ZM1228.04 562.174C1227.44 562.174 1226.9 562.06 1226.42 561.832C1225.95 561.592 1225.58 561.268 1225.3 560.86C1225.03 560.452 1224.89 559.996 1224.89 559.492C1224.89 558.856 1225.05 558.352 1225.38 557.98C1225.71 557.608 1226.26 557.344 1227.01 557.188C1227.78 557.02 1228.83 556.936 1230.15 556.936H1230.72V556.378C1230.72 555.634 1230.57 555.1 1230.25 554.776C1229.95 554.44 1229.47 554.272 1228.8 554.272C1228.27 554.272 1227.76 554.35 1227.27 554.506C1226.77 554.65 1226.27 554.89 1225.75 555.226L1225.25 554.164C1225.71 553.84 1226.26 553.582 1226.91 553.39C1227.57 553.198 1228.2 553.102 1228.8 553.102C1229.92 553.102 1230.76 553.378 1231.3 553.93C1231.85 554.482 1232.13 555.34 1232.13 556.504V562.012H1230.76V560.5C1230.53 561.016 1230.18 561.424 1229.7 561.724C1229.23 562.024 1228.68 562.174 1228.04 562.174ZM1228.27 561.076C1228.99 561.076 1229.58 560.83 1230.04 560.338C1230.49 559.834 1230.72 559.198 1230.72 558.43V557.89H1230.16C1229.19 557.89 1228.42 557.938 1227.86 558.034C1227.31 558.118 1226.92 558.274 1226.69 558.502C1226.47 558.718 1226.37 559.018 1226.37 559.402C1226.37 559.894 1226.53 560.296 1226.87 560.608C1227.22 560.92 1227.69 561.076 1228.27 561.076ZM1237.93 562.174C1235.83 562.174 1234.78 561.016 1234.78 558.7V553.264H1236.23V558.682C1236.23 559.462 1236.39 560.038 1236.7 560.41C1237.03 560.782 1237.53 560.968 1238.21 560.968C1238.96 560.968 1239.56 560.722 1240.03 560.23C1240.5 559.726 1240.73 559.06 1240.73 558.232V553.264H1242.19V562.012H1240.77V560.536C1240.49 561.064 1240.1 561.472 1239.6 561.76C1239.11 562.036 1238.55 562.174 1237.93 562.174ZM1248.43 562.174C1247.4 562.174 1246.62 561.904 1246.11 561.364C1245.59 560.812 1245.33 560.02 1245.33 558.988V554.398H1243.62V553.264H1245.33V550.582H1246.79V553.264H1249.56V554.398H1246.79V558.844C1246.79 559.528 1246.94 560.05 1247.22 560.41C1247.51 560.758 1247.98 560.932 1248.63 560.932C1248.82 560.932 1249.01 560.908 1249.2 560.86C1249.4 560.812 1249.57 560.764 1249.73 560.716L1249.98 561.832C1249.82 561.916 1249.59 561.994 1249.29 562.066C1248.99 562.138 1248.71 562.174 1248.43 562.174ZM1251.21 562.012V549.322H1252.67V554.704C1252.96 554.176 1253.36 553.78 1253.88 553.516C1254.41 553.24 1254.99 553.102 1255.64 553.102C1257.72 553.102 1258.76 554.254 1258.76 556.558V562.012H1257.3V556.648C1257.3 555.832 1257.14 555.238 1256.81 554.866C1256.5 554.482 1256 554.29 1255.3 554.29C1254.5 554.29 1253.85 554.542 1253.37 555.046C1252.91 555.538 1252.67 556.198 1252.67 557.026V562.012H1251.21ZM1265.08 562.174C1264.23 562.174 1263.49 561.988 1262.87 561.616C1262.24 561.244 1261.76 560.722 1261.41 560.05C1261.07 559.366 1260.9 558.562 1260.9 557.638C1260.9 556.714 1261.07 555.916 1261.41 555.244C1261.76 554.56 1262.24 554.032 1262.87 553.66C1263.49 553.288 1264.23 553.102 1265.08 553.102C1265.92 553.102 1266.65 553.288 1267.28 553.66C1267.91 554.032 1268.4 554.56 1268.73 555.244C1269.08 555.916 1269.26 556.714 1269.26 557.638C1269.26 558.562 1269.08 559.366 1268.73 560.05C1268.4 560.722 1267.91 561.244 1267.28 561.616C1266.65 561.988 1265.92 562.174 1265.08 562.174ZM1265.08 561.004C1265.9 561.004 1266.55 560.716 1267.04 560.14C1267.53 559.552 1267.78 558.718 1267.78 557.638C1267.78 556.546 1267.53 555.712 1267.04 555.136C1266.55 554.56 1265.9 554.272 1265.08 554.272C1264.25 554.272 1263.59 554.56 1263.1 555.136C1262.62 555.712 1262.38 556.546 1262.38 557.638C1262.38 558.718 1262.62 559.552 1263.1 560.14C1263.59 560.716 1264.25 561.004 1265.08 561.004ZM1271.45 562.012V553.264H1272.87V554.83C1273.34 553.774 1274.3 553.192 1275.75 553.084L1276.27 553.03L1276.38 554.29L1275.46 554.398C1274.63 554.47 1274 554.734 1273.57 555.19C1273.14 555.634 1272.92 556.246 1272.92 557.026V562.012H1271.45Z" fill="#1513A0"/>
<path opacity="0.6" d="M1150.4 294.434H747.1C720.191 294.434 694.119 303.792 673.352 320.905V320.905C652.585 338.018 626.513 347.376 599.603 347.376H485.307" stroke="url(#paint2_linear_307_4580)" stroke-width="20" stroke-linecap="round"/>
<path opacity="0.6" d="M1150.4 399.216H746.752C720.042 399.216 694.138 390.068 673.352 373.296V373.296C652.565 356.524 626.661 347.376 599.952 347.376H485.307" stroke="url(#paint3_linear_307_4580)" stroke-width="20" stroke-linecap="round"/>
<path opacity="0.6" d="M1150.4 506.204H791.14C739.364 506.204 692.767 474.788 673.352 426.79V426.79C653.936 378.793 607.339 347.376 555.563 347.376H485.307" stroke="url(#paint4_linear_307_4580)" stroke-width="20" stroke-linecap="round"/>
<path opacity="0.6" d="M1150.4 187.446H791.652C739.59 187.446 692.759 219.101 673.352 267.411V267.411C653.945 315.72 607.114 347.376 555.052 347.376H485.307" stroke="url(#paint5_linear_307_4580)" stroke-width="20" stroke-linecap="round"/>
<path opacity="0.6" d="M1150.4 294.434H747.1C720.191 294.434 694.119 303.792 673.352 320.905V320.905C652.585 338.018 626.513 347.376 599.603 347.376H554.794" stroke="#BCBAF7" stroke-width="2" stroke-linecap="round" stroke-linejoin="round" stroke-dasharray="0.4 18"/>
<path opacity="0.6" d="M1150.4 399.216H746.752C720.042 399.216 694.138 390.068 673.352 373.296V373.296C652.565 356.524 626.661 347.376 599.952 347.376H555.345" stroke="#BCBAF7" stroke-width="2" stroke-linecap="round" stroke-linejoin="round" stroke-dasharray="0.4 18"/>
<path opacity="0.6" d="M1150.4 506.204H791.14C739.365 506.204 692.767 474.788 673.352 426.79V426.79C653.937 378.793 607.339 347.376 555.563 347.376H554.243" stroke="#BCBAF7" stroke-width="2" stroke-linecap="round" stroke-linejoin="round" stroke-dasharray="0.4 18"/>
<path opacity="0.6" d="M1150.4 187.446H791.652C739.59 187.446 692.759 219.101 673.352 267.411V267.411C653.945 315.72 606.856 347.376 554.794 347.376V347.376" stroke="#BCBAF7" stroke-width="2" stroke-linecap="round" stroke-linejoin="round" stroke-dasharray="0.4 18"/>
<path opacity="0.6" d="M1150.4 294.434H747.101C720.191 294.434 693.959 303.924 673.192 321.037V321.037C652.631 337.98 626.659 347.376 600.016 347.376V347.376" stroke="#BCBAF7" stroke-width="9" stroke-linecap="round" stroke-linejoin="round" stroke-dasharray="0.4 128"/>
<path opacity="0.6" d="M1150.4 399.216H746.752C720.042 399.216 694.114 390.048 673.327 373.276V373.276C652.573 356.53 626.684 347.376 600.016 347.376V347.376" stroke="#BCBAF7" stroke-width="9" stroke-linecap="round" stroke-linejoin="round" stroke-dasharray="0.4 128"/>
<path opacity="0.6" d="M1150.4 506.204H791.14C739.365 506.204 692.767 474.788 673.352 426.79L656.683 385.581C647.342 362.49 624.925 347.376 600.016 347.376V347.376" stroke="#BCBAF7" stroke-width="9" stroke-linecap="round" stroke-linejoin="round" stroke-dasharray="0.4 128"/>
<path opacity="0.6" d="M1150.4 187.446H791.652C739.59 187.446 692.759 219.101 673.352 267.411V267.411C653.945 315.72 607.114 347.376 555.052 347.376H553.691" stroke="#BCBAF7" stroke-width="9" stroke-linecap="round" stroke-linejoin="round" stroke-dasharray="0.4 128"/>
<rect x="465" y="23.5" width="61" height="61" rx="30.5" fill="white" fill-opacity="0.6"/>
<path d="M505.179 62.3362L505.204 62.3614L505.237 62.3457C505.63 62.1533 506.062 62.0522 506.5 62.05C507.083 62.05 507.654 62.223 508.139 62.5472C508.624 62.8713 509.002 63.332 509.225 63.8711C509.449 64.4101 509.507 65.0033 509.393 65.5755C509.279 66.1478 508.999 66.6734 508.586 67.086C508.173 67.4985 507.648 67.7795 507.076 67.8933C506.503 68.0071 505.91 67.9487 505.371 67.7254C504.832 67.5022 504.371 67.1241 504.047 66.6389C503.723 66.1539 503.55 65.5836 503.55 65.0002C503.552 64.5622 503.653 64.1304 503.845 63.7367L503.861 63.7047L503.836 63.6794L500.121 59.9646L500.107 59.95H500.086H498.5C497.975 59.95 497.55 59.5247 497.55 59C497.55 58.4753 497.975 58.05 498.5 58.05H500.086C500.603 58.05 501.099 58.2555 501.465 58.6212L505.179 62.3362ZM506.5 66.05H506.5C506.778 66.0497 507.045 65.9391 507.242 65.7422C507.439 65.5453 507.55 65.2784 507.55 65V65C507.55 64.7923 507.488 64.5893 507.373 64.4167C507.258 64.244 507.094 64.1094 506.902 64.0299C506.71 63.9505 506.499 63.9297 506.295 63.9702C506.091 64.0107 505.904 64.1107 505.758 64.2575C505.611 64.4044 505.511 64.5915 505.47 64.7952C505.43 64.9988 505.45 65.21 505.53 65.4018C505.609 65.5937 505.744 65.7577 505.917 65.873C506.089 65.9884 506.292 66.05 506.5 66.05Z" fill="#1513A0" stroke="white" stroke-width="0.1"/>
<path d="M506.5 51L506.5 51.05C507.04 51.0491 507.569 51.1965 508.031 51.4762C508.493 51.7559 508.869 52.1571 509.118 52.636C509.367 53.1148 509.479 53.6529 509.443 54.1915C509.407 54.7301 509.224 55.2483 508.913 55.6897C508.602 56.1311 508.176 56.4786 507.682 56.6942C507.187 56.9098 506.642 56.9853 506.107 56.9124C505.573 56.8395 505.068 56.621 504.649 56.2807C504.23 55.9405 503.913 55.4917 503.731 54.9832L503.72 54.95H503.684H498.5C497.975 54.95 497.55 54.5247 497.55 54C497.55 53.4753 497.975 53.05 498.5 53.05H503.684H503.72L503.731 53.0166C503.933 52.4431 504.308 51.9461 504.804 51.594C505.299 51.2419 505.892 51.0518 506.5 51.05L506.5 51ZM506.5 51C507.049 50.999 507.588 51.149 508.057 51.4334C508.527 51.7179 508.909 52.1259 509.162 52.6129C509.415 53.0999 509.53 53.6471 509.493 54.1948C509.457 54.7425 509.27 55.2696 508.954 55.7185C508.638 56.1674 508.205 56.5208 507.702 56.74C507.198 56.9593 506.645 57.0361 506.101 56.9619C505.557 56.8878 505.044 56.6656 504.618 56.3196C504.191 55.9736 503.869 55.5171 503.684 55V53C503.89 52.4167 504.271 51.9113 504.775 51.5532C505.279 51.1951 505.882 51.0019 506.5 51ZM506.5 55.05H506.5C506.778 55.0498 507.045 54.9391 507.242 54.7422C507.439 54.5454 507.55 54.2784 507.55 54V54C507.55 53.7923 507.488 53.5893 507.373 53.4167C507.258 53.244 507.094 53.1094 506.902 53.0299C506.71 52.9505 506.499 52.9297 506.295 52.9702C506.091 53.0107 505.904 53.1107 505.758 53.2575C505.611 53.4044 505.511 53.5915 505.47 53.7952C505.43 53.9988 505.45 54.21 505.53 54.4018C505.609 54.5937 505.744 54.7577 505.917 54.873C506.089 54.9884 506.292 55.05 506.5 55.05Z" fill="#1513A0" stroke="white" stroke-width="0.1"/>
<path d="M503.91 44.3828L503.883 44.409L500.13 48.036L500.116 48.05H500.096H498.5C497.975 48.05 497.55 48.4753 497.55 49C497.55 49.5247 497.975 49.95 498.5 49.95H500.096C500.601 49.95 501.087 49.7535 501.451 49.402L505.268 45.7117L505.293 45.6884L505.323 45.7018C505.725 45.8769 506.161 45.9603 506.599 45.9458C507.037 45.9313 507.466 45.8193 507.856 45.618C508.245 45.4166 508.585 45.131 508.85 44.7819C509.115 44.4328 509.299 44.0289 509.388 43.5998C509.478 43.1707 509.47 42.727 509.366 42.3011C509.263 41.8752 509.065 41.4778 508.789 41.1377C508.512 40.7977 508.163 40.5236 507.767 40.3355C507.371 40.1473 506.938 40.0498 506.5 40.05C506.5 40.05 506.5 40.05 506.5 40.05M503.91 44.3828L503.5 43C503.501 42.2046 503.817 41.4421 504.38 40.8796C504.942 40.3172 505.705 40.0009 506.5 40L506.5 40.05M503.91 44.3828L503.892 44.3495C503.671 43.9339 503.553 43.4708 503.55 42.9999M503.91 44.3828L503.55 42.9999M506.5 40.05C505.718 40.0509 504.968 40.362 504.415 40.915C503.862 41.468 503.551 42.2178 503.55 42.9999M506.5 40.05L503.55 42.9999M506.5 44.05H506.5C506.778 44.0498 507.045 43.939 507.242 43.7422C507.439 43.5453 507.55 43.2784 507.55 43V43C507.55 42.7923 507.488 42.5893 507.373 42.4167C507.258 42.244 507.094 42.1094 506.902 42.0299C506.71 41.9505 506.499 41.9297 506.295 41.9702C506.091 42.0107 505.904 42.1107 505.758 42.2575C505.611 42.4044 505.511 42.5915 505.47 42.7952C505.43 42.9988 505.45 43.21 505.53 43.4018C505.609 43.5937 505.744 43.7577 505.917 43.873C506.089 43.9884 506.292 44.05 506.5 44.05Z" fill="#1513A0" stroke="white" stroke-width="0.1"/>
<path d="M497.5 43.95L497.5 43.95C496.956 43.9506 496.435 44.1668 496.051 44.5511C495.667 44.9354 495.451 45.4565 495.45 45.9999V46V62V62.0001C495.451 62.5435 495.667 63.0646 496.051 63.4489C496.435 63.8332 496.956 64.0494 497.5 64.05H497.5H498.5C499.025 64.05 499.45 64.4753 499.45 65C499.45 65.5247 499.025 65.95 498.5 65.95H497.5C496.937 65.9481 496.382 65.8253 495.871 65.5898C495.359 65.3543 494.905 65.0116 494.538 64.5851L494.5 64.541L494.462 64.5851C494.095 65.0116 493.641 65.3543 493.129 65.5898C492.618 65.8253 492.063 65.9481 491.5 65.95H490.5C488.127 65.9474 485.852 65.0036 484.174 63.3257C482.496 61.6478 481.553 59.3728 481.55 56.9999L481.55 51C481.553 48.6271 482.496 46.3522 484.174 44.6743C485.852 42.9964 488.127 42.0526 490.5 42.05L491.5 42.05C492.063 42.0519 492.618 42.1748 493.129 42.4102C493.641 42.6457 494.095 42.9884 494.462 43.4149L494.5 43.459L494.538 43.4149C494.905 42.9884 495.359 42.6457 495.871 42.4102C496.382 42.1748 496.937 42.0519 497.5 42.05H498.5C499.025 42.05 499.45 42.4753 499.45 43C499.45 43.5247 499.025 43.95 498.5 43.95L497.5 43.95ZM490.5 64.05H490.5H491.5H491.5C492.044 64.0494 492.565 63.8332 492.949 63.4489C493.333 63.0646 493.549 62.5435 493.55 62.0001V62V58V57.95H493.5H491.5H491.5C491.222 57.9503 490.955 58.0609 490.758 58.2578C490.561 58.4547 490.45 58.7216 490.45 59V59V60C490.45 60.5247 490.025 60.95 489.5 60.95C488.975 60.95 488.55 60.5247 488.55 60V59.0001C488.551 58.2179 488.862 57.4681 489.415 56.915C489.968 56.3619 490.718 56.0509 491.5 56.05H493.5H493.55V56V52V51.95H493.5H492.5C491.975 51.95 491.55 51.5247 491.55 51C491.55 50.4753 491.975 50.05 492.5 50.05H493.5H493.55V50V46V45.9999C493.549 45.4565 493.333 44.9354 492.949 44.5511C492.565 44.1668 492.044 43.9506 491.5 43.95H491.5L490.5 43.95L490.5 43.95C488.806 43.953 487.17 44.5651 485.891 45.6745C484.611 46.784 483.773 48.3168 483.531 49.9928L483.522 50.05H483.58H486.5H486.5C486.778 50.0497 487.045 49.939 487.242 49.7422C487.439 49.5453 487.55 49.2784 487.55 49V49V48C487.55 47.4753 487.975 47.05 488.5 47.05C489.025 47.05 489.45 47.4753 489.45 48V48.9999C489.449 49.7821 489.138 50.5319 488.585 51.085C488.032 51.6381 487.282 51.9491 486.5 51.95H483.5H483.45V52V56V56.05H483.5H484.5C485.025 56.05 485.45 56.4753 485.45 57C485.45 57.5247 485.025 57.95 484.5 57.95H483.58H483.522L483.531 58.0072C483.773 59.6832 484.611 61.216 485.891 62.3255C487.17 63.4349 488.806 64.047 490.5 64.05Z" fill="#1513A0" stroke="white" stroke-width="0.1"/>
<rect x="465" y="23.5" width="61" height="61" rx="30.5" stroke="white" stroke-width="3"/>
<path d="M444.67 112.162C443.674 112.162 442.774 112.036 441.97 111.784C441.166 111.52 440.47 111.142 439.882 110.65L440.404 109.462C441.016 109.93 441.658 110.278 442.33 110.506C443.002 110.734 443.782 110.848 444.67 110.848C445.75 110.848 446.548 110.65 447.064 110.254C447.592 109.846 447.856 109.312 447.856 108.652C447.856 108.124 447.664 107.704 447.28 107.392C446.908 107.08 446.278 106.834 445.39 106.654L443.518 106.276C442.39 106.036 441.544 105.646 440.98 105.106C440.428 104.554 440.152 103.822 440.152 102.91C440.152 102.154 440.344 101.494 440.728 100.93C441.124 100.366 441.67 99.928 442.366 99.616C443.062 99.304 443.866 99.148 444.778 99.148C445.63 99.148 446.422 99.286 447.154 99.562C447.886 99.826 448.504 100.21 449.008 100.714L448.486 101.866C447.946 101.374 447.376 101.02 446.776 100.804C446.176 100.576 445.504 100.462 444.76 100.462C443.812 100.462 443.056 100.684 442.492 101.128C441.928 101.56 441.646 102.136 441.646 102.856C441.646 103.432 441.82 103.888 442.168 104.224C442.528 104.56 443.11 104.806 443.914 104.962L445.786 105.358C446.998 105.61 447.892 105.994 448.468 106.51C449.056 107.014 449.35 107.704 449.35 108.58C449.35 109.288 449.158 109.912 448.774 110.452C448.402 110.992 447.862 111.412 447.154 111.712C446.458 112.012 445.63 112.162 444.67 112.162ZM455.384 112.162C454.004 112.162 452.912 111.76 452.108 110.956C451.304 110.14 450.902 109.036 450.902 107.644C450.902 106.744 451.082 105.952 451.442 105.268C451.802 104.572 452.294 104.038 452.918 103.666C453.554 103.282 454.286 103.09 455.114 103.09C456.302 103.09 457.232 103.474 457.904 104.242C458.576 104.998 458.912 106.042 458.912 107.374V107.932H452.324C452.372 108.928 452.66 109.69 453.188 110.218C453.716 110.734 454.448 110.992 455.384 110.992C455.912 110.992 456.416 110.914 456.896 110.758C457.376 110.59 457.832 110.32 458.264 109.948L458.768 110.974C458.372 111.346 457.868 111.64 457.256 111.856C456.644 112.06 456.02 112.162 455.384 112.162ZM455.15 104.17C454.322 104.17 453.668 104.428 453.188 104.944C452.708 105.46 452.426 106.138 452.342 106.978H457.652C457.616 106.09 457.382 105.4 456.95 104.908C456.53 104.416 455.93 104.17 455.15 104.17ZM461.022 112V103.252H462.444V104.746C462.732 104.194 463.14 103.78 463.668 103.504C464.196 103.228 464.79 103.09 465.45 103.09C467.526 103.09 468.564 104.242 468.564 106.546V112H467.106V106.636C467.106 105.82 466.944 105.226 466.62 104.854C466.308 104.47 465.804 104.278 465.108 104.278C464.304 104.278 463.662 104.53 463.182 105.034C462.714 105.526 462.48 106.186 462.48 107.014V112H461.022ZM474.763 112.162C473.731 112.162 472.957 111.892 472.441 111.352C471.925 110.8 471.667 110.008 471.667 108.976V104.386H469.957V103.252H471.667V100.57H473.125V103.252H475.897V104.386H473.125V108.832C473.125 109.516 473.269 110.038 473.557 110.398C473.845 110.746 474.313 110.92 474.961 110.92C475.153 110.92 475.345 110.896 475.537 110.848C475.729 110.8 475.903 110.752 476.059 110.704L476.311 111.82C476.155 111.904 475.927 111.982 475.627 112.054C475.327 112.126 475.039 112.162 474.763 112.162ZM477.366 101.074V99.436H479.166V101.074H477.366ZM477.546 112V103.252H479.004V112H477.546ZM481.765 112V103.252H483.187V104.728C483.451 104.2 483.817 103.798 484.285 103.522C484.753 103.234 485.299 103.09 485.923 103.09C487.291 103.09 488.167 103.684 488.551 104.872C488.815 104.32 489.205 103.888 489.721 103.576C490.237 103.252 490.831 103.09 491.503 103.09C493.447 103.09 494.419 104.242 494.419 106.546V112H492.961V106.618C492.961 105.814 492.817 105.226 492.529 104.854C492.253 104.47 491.791 104.278 491.143 104.278C490.435 104.278 489.871 104.53 489.451 105.034C489.031 105.538 488.821 106.21 488.821 107.05V112H487.363V106.618C487.363 105.814 487.219 105.226 486.931 104.854C486.655 104.47 486.193 104.278 485.545 104.278C484.825 104.278 484.255 104.53 483.835 105.034C483.427 105.538 483.223 106.21 483.223 107.05V112H481.765ZM501.087 112.162C499.707 112.162 498.615 111.76 497.811 110.956C497.007 110.14 496.605 109.036 496.605 107.644C496.605 106.744 496.785 105.952 497.145 105.268C497.505 104.572 497.997 104.038 498.621 103.666C499.257 103.282 499.989 103.09 500.817 103.09C502.005 103.09 502.935 103.474 503.607 104.242C504.279 104.998 504.615 106.042 504.615 107.374V107.932H498.027C498.075 108.928 498.363 109.69 498.891 110.218C499.419 110.734 500.151 110.992 501.087 110.992C501.615 110.992 502.119 110.914 502.599 110.758C503.079 110.59 503.535 110.32 503.967 109.948L504.471 110.974C504.075 111.346 503.571 111.64 502.959 111.856C502.347 112.06 501.723 112.162 501.087 112.162ZM500.853 104.17C500.025 104.17 499.371 104.428 498.891 104.944C498.411 105.46 498.129 106.138 498.045 106.978H503.355C503.319 106.09 503.085 105.4 502.653 104.908C502.233 104.416 501.633 104.17 500.853 104.17ZM506.725 112V103.252H508.147V104.746C508.435 104.194 508.843 103.78 509.371 103.504C509.899 103.228 510.493 103.09 511.153 103.09C513.229 103.09 514.267 104.242 514.267 106.546V112H512.809V106.636C512.809 105.82 512.647 105.226 512.323 104.854C512.011 104.47 511.507 104.278 510.811 104.278C510.007 104.278 509.365 104.53 508.885 105.034C508.417 105.526 508.183 106.186 508.183 107.014V112H506.725ZM520.466 112.162C519.434 112.162 518.66 111.892 518.144 111.352C517.628 110.8 517.37 110.008 517.37 108.976V104.386H515.66V103.252H517.37V100.57H518.828V103.252H521.6V104.386H518.828V108.832C518.828 109.516 518.972 110.038 519.26 110.398C519.548 110.746 520.016 110.92 520.664 110.92C520.856 110.92 521.048 110.896 521.24 110.848C521.432 110.8 521.606 110.752 521.762 110.704L522.014 111.82C521.858 111.904 521.63 111.982 521.33 112.054C521.03 112.126 520.742 112.162 520.466 112.162ZM528.106 112V99.31H529.348L534.226 108.472L539.068 99.31H540.31V112H538.942V102.082L534.712 110.038H533.74L529.456 102.1V112H528.106ZM543.468 112V99.31H544.944V110.704H551.406V112H543.468Z" fill="#1513A0"/>
<path d="M495.5 209.292V229.708" stroke="white" stroke-width="8" stroke-linecap="round" stroke-linejoin="round"/>
<path d="M485.292 219.5H505.708" stroke="white" stroke-width="8" stroke-linecap="round" stroke-linejoin="round"/>
<rect x="465" y="321.5" width="61" height="61" rx="30.5" fill="white" fill-opacity="0.6"/>
<g clip-path="url(#clip1_307_4580)">
<path d="M510.167 341.333V349.333H502.167" stroke="#1513A0" stroke-width="2" stroke-linecap="round" stroke-linejoin="round"/>
<path d="M480.833 362.667V354.667H488.833" stroke="#1513A0" stroke-width="2" stroke-linecap="round" stroke-linejoin="round"/>
<path d="M484.18 348C484.856 346.089 486.005 344.38 487.521 343.034C489.036 341.687 490.867 340.746 492.844 340.299C494.821 339.851 496.88 339.912 498.827 340.475C500.774 341.039 502.547 342.086 503.98 343.52L510.167 349.333M480.833 354.666L487.02 360.48C488.453 361.913 490.226 362.961 492.173 363.524C494.12 364.087 496.178 364.148 498.156 363.701C500.133 363.253 501.964 362.313 503.479 360.966C504.994 359.619 506.144 357.911 506.82 356" stroke="#1513A0" stroke-width="2" stroke-linecap="round" stroke-linejoin="round"/>
</g>
<rect x="465" y="321.5" width="61" height="61" rx="30.5" stroke="white" stroke-width="3"/>
<path d="M453.566 410V397.31H458.588C459.956 397.31 461 397.628 461.72 398.264C462.452 398.9 462.818 399.806 462.818 400.982C462.818 401.918 462.56 402.686 462.044 403.286C461.54 403.886 460.82 404.276 459.884 404.456C460.436 404.648 460.91 405.116 461.306 405.86L463.538 410H461.918L459.722 405.932C459.446 405.428 459.128 405.086 458.768 404.906C458.408 404.726 457.934 404.636 457.346 404.636H455.042V410H453.566ZM455.042 403.466H458.372C460.364 403.466 461.36 402.638 461.36 400.982C461.36 399.35 460.364 398.534 458.372 398.534H455.042V403.466ZM469.158 410.162C467.778 410.162 466.686 409.76 465.882 408.956C465.078 408.14 464.676 407.036 464.676 405.644C464.676 404.744 464.856 403.952 465.216 403.268C465.576 402.572 466.068 402.038 466.692 401.666C467.328 401.282 468.06 401.09 468.888 401.09C470.076 401.09 471.006 401.474 471.678 402.242C472.35 402.998 472.686 404.042 472.686 405.374V405.932H466.098C466.146 406.928 466.434 407.69 466.962 408.218C467.49 408.734 468.222 408.992 469.158 408.992C469.686 408.992 470.19 408.914 470.67 408.758C471.15 408.59 471.606 408.32 472.038 407.948L472.542 408.974C472.146 409.346 471.642 409.64 471.03 409.856C470.418 410.06 469.794 410.162 469.158 410.162ZM468.924 402.17C468.096 402.17 467.442 402.428 466.962 402.944C466.482 403.46 466.2 404.138 466.116 404.978H471.426C471.39 404.09 471.156 403.4 470.724 402.908C470.304 402.416 469.704 402.17 468.924 402.17ZM478.126 410.162C477.346 410.162 476.662 409.976 476.074 409.604C475.498 409.232 475.048 408.71 474.724 408.038C474.412 407.354 474.256 406.55 474.256 405.626C474.256 404.69 474.412 403.886 474.724 403.214C475.048 402.53 475.498 402.008 476.074 401.648C476.662 401.276 477.346 401.09 478.126 401.09C478.81 401.09 479.41 401.24 479.926 401.54C480.454 401.84 480.844 402.254 481.096 402.782V397.31H482.554V410H481.132V408.398C480.88 408.95 480.49 409.382 479.962 409.694C479.434 410.006 478.822 410.162 478.126 410.162ZM478.432 408.992C479.248 408.992 479.902 408.704 480.394 408.128C480.886 407.54 481.132 406.706 481.132 405.626C481.132 404.534 480.886 403.7 480.394 403.124C479.902 402.548 479.248 402.26 478.432 402.26C477.604 402.26 476.944 402.548 476.452 403.124C475.972 403.7 475.732 404.534 475.732 405.626C475.732 406.706 475.972 407.54 476.452 408.128C476.944 408.704 477.604 408.992 478.432 408.992ZM488.62 410.162C487.84 410.162 487.156 409.976 486.568 409.604C485.992 409.232 485.542 408.71 485.218 408.038C484.906 407.354 484.75 406.55 484.75 405.626C484.75 404.69 484.906 403.886 485.218 403.214C485.542 402.53 485.992 402.008 486.568 401.648C487.156 401.276 487.84 401.09 488.62 401.09C489.304 401.09 489.904 401.24 490.42 401.54C490.948 401.84 491.338 402.254 491.59 402.782V397.31H493.048V410H491.626V408.398C491.374 408.95 490.984 409.382 490.456 409.694C489.928 410.006 489.316 410.162 488.62 410.162ZM488.926 408.992C489.742 408.992 490.396 408.704 490.888 408.128C491.38 407.54 491.626 406.706 491.626 405.626C491.626 404.534 491.38 403.7 490.888 403.124C490.396 402.548 489.742 402.26 488.926 402.26C488.098 402.26 487.438 402.548 486.946 403.124C486.466 403.7 486.226 404.534 486.226 405.626C486.226 406.706 486.466 407.54 486.946 408.128C487.438 408.704 488.098 408.992 488.926 408.992ZM495.604 399.074V397.436H497.404V399.074H495.604ZM495.784 410V401.252H497.242V410H495.784ZM503.478 410.162C502.446 410.162 501.672 409.892 501.156 409.352C500.64 408.8 500.382 408.008 500.382 406.976V402.386H498.672V401.252H500.382V398.57H501.84V401.252H504.612V402.386H501.84V406.832C501.84 407.516 501.984 408.038 502.272 408.398C502.56 408.746 503.028 408.92 503.676 408.92C503.868 408.92 504.06 408.896 504.252 408.848C504.444 408.8 504.618 408.752 504.774 408.704L505.026 409.82C504.87 409.904 504.642 409.982 504.342 410.054C504.042 410.126 503.754 410.162 503.478 410.162ZM509.858 410L515.456 397.31H516.716L522.314 410H520.784L519.38 406.76H512.774L511.388 410H509.858ZM516.068 399.038L513.314 405.518H518.858L516.104 399.038H516.068ZM524.195 410V397.31H529.217C530.585 397.31 531.629 397.64 532.349 398.3C533.081 398.96 533.447 399.902 533.447 401.126C533.447 402.338 533.081 403.28 532.349 403.952C531.629 404.612 530.585 404.942 529.217 404.942H525.671V410H524.195ZM525.671 403.7H529.037C531.005 403.7 531.989 402.842 531.989 401.126C531.989 399.398 531.005 398.534 529.037 398.534H525.671V403.7ZM535.586 410V397.31H537.062V410H535.586Z" fill="#1513A0"/>
<rect x="1162.36" y="23.5" width="61" height="61" rx="30.5" fill="white" fill-opacity="0.6"/>
<path d="M1203.99 66.5C1206.36 63.875 1207.86 60.375 1207.86 56.5C1207.86 48.25 1201.11 41.5 1192.86 41.5C1184.61 41.5 1177.86 48.25 1177.86 56.5C1177.86 60.375 1179.36 63.875 1181.74 66.5" stroke="#1513A0" stroke-width="2" stroke-miterlimit="10" stroke-linecap="round"/>
<path d="M1191.16 58.0004C1192.29 58.7923 1193.85 58.5175 1194.64 57.3865C1195.43 56.2555 1195.16 54.6966 1194.03 53.9046C1192.9 53.1127 1191.34 53.3876 1190.55 54.5186C1189.75 55.6496 1190.03 57.2085 1191.16 58.0004Z" stroke="#1513A0" stroke-width="2" stroke-miterlimit="10"/>
<path d="M1194.03 53.9048L1196.9 49.8091" stroke="#1513A0" stroke-width="2" stroke-linecap="round"/>
<rect x="1162.36" y="23.5" width="61" height="61" rx="30.5" stroke="white" stroke-width="3"/>
<path d="M1133.03 112.162C1132.04 112.162 1131.14 112.036 1130.33 111.784C1129.53 111.52 1128.83 111.142 1128.24 110.65L1128.77 109.462C1129.38 109.93 1130.02 110.278 1130.69 110.506C1131.36 110.734 1132.14 110.848 1133.03 110.848C1134.11 110.848 1134.91 110.65 1135.43 110.254C1135.95 109.846 1136.22 109.312 1136.22 108.652C1136.22 108.124 1136.03 107.704 1135.64 107.392C1135.27 107.08 1134.64 106.834 1133.75 106.654L1131.88 106.276C1130.75 106.036 1129.91 105.646 1129.34 105.106C1128.79 104.554 1128.51 103.822 1128.51 102.91C1128.51 102.154 1128.71 101.494 1129.09 100.93C1129.49 100.366 1130.03 99.928 1130.73 99.616C1131.42 99.304 1132.23 99.148 1133.14 99.148C1133.99 99.148 1134.78 99.286 1135.52 99.562C1136.25 99.826 1136.87 100.21 1137.37 100.714L1136.85 101.866C1136.31 101.374 1135.74 101.02 1135.14 100.804C1134.54 100.576 1133.87 100.462 1133.12 100.462C1132.17 100.462 1131.42 100.684 1130.85 101.128C1130.29 101.56 1130.01 102.136 1130.01 102.856C1130.01 103.432 1130.18 103.888 1130.53 104.224C1130.89 104.56 1131.47 104.806 1132.28 104.962L1134.15 105.358C1135.36 105.61 1136.25 105.994 1136.83 106.51C1137.42 107.014 1137.71 107.704 1137.71 108.58C1137.71 109.288 1137.52 109.912 1137.14 110.452C1136.76 110.992 1136.22 111.412 1135.52 111.712C1134.82 112.012 1133.99 112.162 1133.03 112.162ZM1143.75 112.162C1142.37 112.162 1141.27 111.76 1140.47 110.956C1139.67 110.14 1139.26 109.036 1139.26 107.644C1139.26 106.744 1139.44 105.952 1139.8 105.268C1140.16 104.572 1140.66 104.038 1141.28 103.666C1141.92 103.282 1142.65 103.09 1143.48 103.09C1144.66 103.09 1145.59 103.474 1146.27 104.242C1146.94 104.998 1147.27 106.042 1147.27 107.374V107.932H1140.69C1140.73 108.928 1141.02 109.69 1141.55 110.218C1142.08 110.734 1142.81 110.992 1143.75 110.992C1144.27 110.992 1144.78 110.914 1145.26 110.758C1145.74 110.59 1146.19 110.32 1146.63 109.948L1147.13 110.974C1146.73 111.346 1146.23 111.64 1145.62 111.856C1145.01 112.06 1144.38 112.162 1143.75 112.162ZM1143.51 104.17C1142.68 104.17 1142.03 104.428 1141.55 104.944C1141.07 105.46 1140.79 106.138 1140.7 106.978H1146.01C1145.98 106.09 1145.74 105.4 1145.31 104.908C1144.89 104.416 1144.29 104.17 1143.51 104.17ZM1149.38 112V103.252H1150.81V104.746C1151.09 104.194 1151.5 103.78 1152.03 103.504C1152.56 103.228 1153.15 103.09 1153.81 103.09C1155.89 103.09 1156.93 104.242 1156.93 106.546V112H1155.47V106.636C1155.47 105.82 1155.31 105.226 1154.98 104.854C1154.67 104.47 1154.17 104.278 1153.47 104.278C1152.67 104.278 1152.02 104.53 1151.54 105.034C1151.08 105.526 1150.84 106.186 1150.84 107.014V112H1149.38ZM1163.13 112.162C1162.09 112.162 1161.32 111.892 1160.8 111.352C1160.29 110.8 1160.03 110.008 1160.03 108.976V104.386H1158.32V103.252H1160.03V100.57H1161.49V103.252H1164.26V104.386H1161.49V108.832C1161.49 109.516 1161.63 110.038 1161.92 110.398C1162.21 110.746 1162.68 110.92 1163.32 110.92C1163.52 110.92 1163.71 110.896 1163.9 110.848C1164.09 110.8 1164.27 110.752 1164.42 110.704L1164.67 111.82C1164.52 111.904 1164.29 111.982 1163.99 112.054C1163.69 112.126 1163.4 112.162 1163.13 112.162ZM1165.73 101.074V99.436H1167.53V101.074H1165.73ZM1165.91 112V103.252H1167.37V112H1165.91ZM1170.13 112V103.252H1171.55V104.728C1171.81 104.2 1172.18 103.798 1172.65 103.522C1173.12 103.234 1173.66 103.09 1174.29 103.09C1175.65 103.09 1176.53 103.684 1176.91 104.872C1177.18 104.32 1177.57 103.888 1178.08 103.576C1178.6 103.252 1179.19 103.09 1179.87 103.09C1181.81 103.09 1182.78 104.242 1182.78 106.546V112H1181.32V106.618C1181.32 105.814 1181.18 105.226 1180.89 104.854C1180.62 104.47 1180.15 104.278 1179.51 104.278C1178.8 104.278 1178.23 104.53 1177.81 105.034C1177.39 105.538 1177.18 106.21 1177.18 107.05V112H1175.73V106.618C1175.73 105.814 1175.58 105.226 1175.29 104.854C1175.02 104.47 1174.56 104.278 1173.91 104.278C1173.19 104.278 1172.62 104.53 1172.2 105.034C1171.79 105.538 1171.59 106.21 1171.59 107.05V112H1170.13ZM1189.45 112.162C1188.07 112.162 1186.98 111.76 1186.17 110.956C1185.37 110.14 1184.97 109.036 1184.97 107.644C1184.97 106.744 1185.15 105.952 1185.51 105.268C1185.87 104.572 1186.36 104.038 1186.98 103.666C1187.62 103.282 1188.35 103.09 1189.18 103.09C1190.37 103.09 1191.3 103.474 1191.97 104.242C1192.64 104.998 1192.98 106.042 1192.98 107.374V107.932H1186.39C1186.44 108.928 1186.73 109.69 1187.25 110.218C1187.78 110.734 1188.51 110.992 1189.45 110.992C1189.98 110.992 1190.48 110.914 1190.96 110.758C1191.44 110.59 1191.9 110.32 1192.33 109.948L1192.83 110.974C1192.44 111.346 1191.93 111.64 1191.32 111.856C1190.71 112.06 1190.09 112.162 1189.45 112.162ZM1189.22 104.17C1188.39 104.17 1187.73 104.428 1187.25 104.944C1186.77 105.46 1186.49 106.138 1186.41 106.978H1191.72C1191.68 106.09 1191.45 105.4 1191.02 104.908C1190.6 104.416 1190 104.17 1189.22 104.17ZM1195.09 112V103.252H1196.51V104.746C1196.8 104.194 1197.21 103.78 1197.73 103.504C1198.26 103.228 1198.86 103.09 1199.52 103.09C1201.59 103.09 1202.63 104.242 1202.63 106.546V112H1201.17V106.636C1201.17 105.82 1201.01 105.226 1200.69 104.854C1200.37 104.47 1199.87 104.278 1199.17 104.278C1198.37 104.278 1197.73 104.53 1197.25 105.034C1196.78 105.526 1196.55 106.186 1196.55 107.014V112H1195.09ZM1208.83 112.162C1207.8 112.162 1207.02 111.892 1206.51 111.352C1205.99 110.8 1205.73 110.008 1205.73 108.976V104.386H1204.02V103.252H1205.73V100.57H1207.19V103.252H1209.96V104.386H1207.19V108.832C1207.19 109.516 1207.33 110.038 1207.62 110.398C1207.91 110.746 1208.38 110.92 1209.03 110.92C1209.22 110.92 1209.41 110.896 1209.6 110.848C1209.79 110.8 1209.97 110.752 1210.12 110.704L1210.38 111.82C1210.22 111.904 1209.99 111.982 1209.69 112.054C1209.39 112.126 1209.1 112.162 1208.83 112.162ZM1219.19 112.162C1218.5 112.162 1217.85 112.066 1217.24 111.874C1216.63 111.682 1216.13 111.412 1215.73 111.064L1216.2 110.038C1216.63 110.386 1217.1 110.644 1217.62 110.812C1218.15 110.968 1218.68 111.046 1219.22 111.046C1219.91 111.046 1220.42 110.92 1220.77 110.668C1221.12 110.416 1221.29 110.074 1221.29 109.642C1221.29 109.306 1221.18 109.042 1220.95 108.85C1220.72 108.646 1220.36 108.49 1219.87 108.382L1218.23 108.022C1216.74 107.698 1216 106.93 1216 105.718C1216 104.926 1216.31 104.29 1216.94 103.81C1217.57 103.33 1218.4 103.09 1219.42 103.09C1220.02 103.09 1220.59 103.186 1221.13 103.378C1221.68 103.558 1222.14 103.828 1222.5 104.188L1222.01 105.214C1221.66 104.89 1221.26 104.644 1220.79 104.476C1220.33 104.296 1219.88 104.206 1219.42 104.206C1218.75 104.206 1218.24 104.338 1217.89 104.602C1217.54 104.866 1217.37 105.214 1217.37 105.646C1217.37 106.318 1217.81 106.75 1218.7 106.942L1220.34 107.284C1221.11 107.452 1221.69 107.722 1222.08 108.094C1222.48 108.454 1222.68 108.946 1222.68 109.57C1222.68 110.374 1222.36 111.01 1221.72 111.478C1221.09 111.934 1220.24 112.162 1219.19 112.162ZM1228.61 112.162C1227.73 112.162 1226.98 111.976 1226.34 111.604C1225.7 111.22 1225.21 110.686 1224.86 110.002C1224.53 109.306 1224.36 108.496 1224.36 107.572C1224.36 106.18 1224.74 105.088 1225.49 104.296C1226.25 103.492 1227.29 103.09 1228.61 103.09C1229.15 103.09 1229.68 103.186 1230.21 103.378C1230.74 103.57 1231.18 103.84 1231.52 104.188L1231.02 105.25C1230.67 104.914 1230.29 104.668 1229.87 104.512C1229.46 104.356 1229.07 104.278 1228.7 104.278C1227.79 104.278 1227.08 104.566 1226.59 105.142C1226.1 105.706 1225.85 106.522 1225.85 107.59C1225.85 108.634 1226.1 109.462 1226.59 110.074C1227.08 110.674 1227.79 110.974 1228.7 110.974C1229.07 110.974 1229.46 110.896 1229.87 110.74C1230.29 110.584 1230.67 110.332 1231.02 109.984L1231.52 111.046C1231.18 111.394 1230.73 111.67 1230.19 111.874C1229.66 112.066 1229.14 112.162 1228.61 112.162ZM1236.69 112.162C1235.84 112.162 1235.1 111.976 1234.48 111.604C1233.85 111.232 1233.37 110.71 1233.02 110.038C1232.68 109.354 1232.52 108.55 1232.52 107.626C1232.52 106.702 1232.68 105.904 1233.02 105.232C1233.37 104.548 1233.85 104.02 1234.48 103.648C1235.1 103.276 1235.84 103.09 1236.69 103.09C1237.53 103.09 1238.26 103.276 1238.89 103.648C1239.52 104.02 1240.01 104.548 1240.35 105.232C1240.69 105.904 1240.87 106.702 1240.87 107.626C1240.87 108.55 1240.69 109.354 1240.35 110.038C1240.01 110.71 1239.52 111.232 1238.89 111.604C1238.26 111.976 1237.53 112.162 1236.69 112.162ZM1236.69 110.992C1237.51 110.992 1238.16 110.704 1238.65 110.128C1239.15 109.54 1239.39 108.706 1239.39 107.626C1239.39 106.534 1239.15 105.7 1238.65 105.124C1238.16 104.548 1237.51 104.26 1236.69 104.26C1235.86 104.26 1235.2 104.548 1234.71 105.124C1234.23 105.7 1233.99 106.534 1233.99 107.626C1233.99 108.706 1234.23 109.54 1234.71 110.128C1235.2 110.704 1235.86 110.992 1236.69 110.992ZM1243.06 112V103.252H1244.48V104.818C1244.95 103.762 1245.91 103.18 1247.36 103.072L1247.88 103.018L1247.99 104.278L1247.07 104.386C1246.24 104.458 1245.61 104.722 1245.18 105.178C1244.75 105.622 1244.53 106.234 1244.53 107.014V112H1243.06ZM1253.35 112.162C1251.97 112.162 1250.87 111.76 1250.07 110.956C1249.27 110.14 1248.86 109.036 1248.86 107.644C1248.86 106.744 1249.04 105.952 1249.4 105.268C1249.76 104.572 1250.26 104.038 1250.88 103.666C1251.52 103.282 1252.25 103.09 1253.08 103.09C1254.26 103.09 1255.19 103.474 1255.87 104.242C1256.54 104.998 1256.87 106.042 1256.87 107.374V107.932H1250.29C1250.33 108.928 1250.62 109.69 1251.15 110.218C1251.68 110.734 1252.41 110.992 1253.35 110.992C1253.87 110.992 1254.38 110.914 1254.86 110.758C1255.34 110.59 1255.79 110.32 1256.23 109.948L1256.73 110.974C1256.33 111.346 1255.83 111.64 1255.22 111.856C1254.61 112.06 1253.98 112.162 1253.35 112.162ZM1253.11 104.17C1252.28 104.17 1251.63 104.428 1251.15 104.944C1250.67 105.46 1250.39 106.138 1250.3 106.978H1255.61C1255.58 106.09 1255.34 105.4 1254.91 104.908C1254.49 104.416 1253.89 104.17 1253.11 104.17Z" fill="#1513A0"/>
</g>
<defs>
<linearGradient id="paint0_linear_307_4580" x1="44.1628" y1="-2.81676" x2="1169.58" y2="300.872" gradientUnits="userSpaceOnUse">
<stop stop-color="white" stop-opacity="0"/>
<stop offset="0.160846" stop-color="white" stop-opacity="0.645833"/>
<stop offset="0.520243" stop-color="white" stop-opacity="0.3"/>
<stop offset="0.746778" stop-color="white" stop-opacity="0.9"/>
<stop offset="1" stop-color="white" stop-opacity="0"/>
</linearGradient>
<linearGradient id="paint1_linear_307_4580" x1="58.4575" y1="167.041" x2="394.821" y2="518.21" gradientUnits="userSpaceOnUse">
<stop stop-color="white" stop-opacity="0"/>
<stop offset="0.374623" stop-color="white" stop-opacity="0"/>
<stop offset="0.674337" stop-color="white"/>
<stop offset="0.96875" stop-color="white" stop-opacity="0"/>
</linearGradient>
<linearGradient id="paint2_linear_307_4580" x1="459.117" y1="271.017" x2="1083.8" y2="556.589" gradientUnits="userSpaceOnUse">
<stop stop-color="white" stop-opacity="0.6"/>
<stop offset="0.21875" stop-color="white" stop-opacity="0.463542"/>
<stop offset="0.458333" stop-color="white" stop-opacity="0.9"/>
<stop offset="1" stop-color="white" stop-opacity="0.2"/>
</linearGradient>
<linearGradient id="paint3_linear_307_4580" x1="485.307" y1="309.493" x2="507.09" y2="489.574" gradientUnits="userSpaceOnUse">
<stop offset="0.191979" stop-color="white" stop-opacity="0"/>
<stop offset="0.468558" stop-color="white" stop-opacity="0.9"/>
<stop offset="1" stop-color="white" stop-opacity="0.3"/>
</linearGradient>
<linearGradient id="paint4_linear_307_4580" x1="501.3" y1="298.294" x2="690.465" y2="749.078" gradientUnits="userSpaceOnUse">
<stop stop-color="white" stop-opacity="0"/>
<stop offset="0.470795" stop-color="white" stop-opacity="0.9"/>
<stop offset="1" stop-color="white" stop-opacity="0"/>
</linearGradient>
<linearGradient id="paint5_linear_307_4580" x1="474.277" y1="377.156" x2="1136.76" y2="-41.265" gradientUnits="userSpaceOnUse">
<stop offset="0.00350226" stop-color="white" stop-opacity="0"/>
<stop offset="0.554234" stop-color="white" stop-opacity="0.8"/>
<stop offset="0.676412" stop-color="white" stop-opacity="0.8"/>
<stop offset="0.945434" stop-color="white" stop-opacity="0"/>
</linearGradient>
<clipPath id="clip0_307_4580">
<rect width="1280" height="640" rx="16" fill="white"/>
</clipPath>
<clipPath id="clip1_307_4580">
<rect width="32" height="32" fill="white" transform="translate(479.5 336)"/>
</clipPath>
</defs>
</svg>
