<svg width="88" height="88" viewBox="0 0 88 88" fill="none" xmlns="http://www.w3.org/2000/svg">
<rect width="88" height="88" rx="12" fill="#FFF0E6"/>
<mask id="path-2-outside-1_211_664" maskUnits="userSpaceOnUse" x="12" y="15.3411" width="64" height="58" fill="black">
<rect fill="white" x="12" y="15.3411" width="64" height="58"/>
<path d="M73.9993 44.3991C73.953 43.1313 73.5407 41.9039 72.8125 40.865C72.0843 39.826 71.0708 39.0199 69.8947 38.5438C68.7192 38.0677 67.4305 37.9419 66.1843 38.1816C64.9388 38.4213 63.7889 39.0163 62.8737 39.8949C57.7495 36.4118 51.7263 34.4875 45.532 34.3546L48.4598 20.3013L58.0989 22.3282C58.2135 23.3934 58.704 24.3828 59.4824 25.119C60.2607 25.8551 61.276 26.2897 62.3457 26.3448C63.4161 26.3998 64.4702 26.0717 65.3204 25.4193C66.17 24.767 66.7593 23.8331 66.9826 22.7853C67.2059 21.7375 67.0483 20.6444 66.5384 19.7023C66.0286 18.7601 65.1997 18.0306 64.2 17.6446C63.2009 17.2586 62.0967 17.2416 61.0856 17.5964C60.0747 17.9512 59.2234 18.6547 58.6845 19.5806L47.649 17.3735C47.4685 17.3339 47.282 17.3305 47.1002 17.3636C46.9184 17.3966 46.745 17.4654 46.59 17.5659C46.4349 17.6665 46.3014 17.7968 46.1971 17.9494C46.0929 18.1019 46.0198 18.2736 45.9824 18.4545L42.6493 34.0843C36.3788 34.1789 30.2728 36.1046 25.0826 39.6246C24.3883 38.9713 23.5601 38.4768 22.6556 38.1753C21.7512 37.8738 20.7919 37.7726 19.8444 37.8787C18.8969 37.9848 17.9838 38.2957 17.1684 38.7897C16.353 39.2838 15.6547 39.9492 15.1221 40.74C14.5894 41.5307 14.235 42.4278 14.0836 43.3691C13.9321 44.3104 13.987 45.2734 14.2447 46.1913C14.5023 47.1093 14.9565 47.9602 15.5757 48.6852C16.1949 49.4101 16.9644 49.9918 17.8307 50.3898C17.78 51.0495 17.78 51.7121 17.8307 52.3717C17.8307 62.4613 29.5869 70.659 44.0906 70.659C58.5944 70.659 70.3508 62.4613 70.3508 52.3717C70.4015 51.7121 70.4015 51.0495 70.3508 50.3898C71.4618 49.8373 72.3946 48.9816 73.0402 47.9215C73.6858 46.8614 74.018 45.6402 73.9993 44.3991ZM28.9563 48.9034C28.9563 48.0126 29.2205 47.1417 29.7154 46.401C30.2104 45.6603 30.9138 45.0829 31.7369 44.742C32.5599 44.4011 33.4656 44.3119 34.3393 44.4857C35.213 44.6595 36.0156 45.0885 36.6456 45.7184C37.2755 46.3484 37.7045 47.1509 37.8783 48.0247C38.0521 48.8984 37.9629 49.8041 37.6219 50.6271C37.2811 51.4502 36.7037 52.1536 35.963 52.6486C35.2223 53.1435 34.3514 53.4077 33.4606 53.4077C32.8691 53.4077 32.2833 53.2912 31.7369 53.0648C31.1904 52.8384 30.6938 52.5067 30.2755 52.0884C29.8573 51.6701 29.5255 51.1736 29.2992 50.6271C29.0728 50.0806 28.9563 49.4949 28.9563 48.9034ZM54.9763 61.4454C51.7807 63.8539 47.9986 64.9242 44.0006 64.7584C40.0025 64.9242 36.0707 63.6987 32.875 61.2901C32.6835 61.0568 32.5856 60.7605 32.6004 60.459C32.6152 60.1574 32.7416 59.8722 32.9551 59.6587C33.1686 59.4451 33.4539 59.3187 33.7554 59.3039C34.057 59.2891 34.3533 59.387 34.5866 59.5785C37.2948 61.5649 40.6004 62.5664 43.9555 62.4162C47.3148 62.5989 50.6359 61.6296 53.3694 59.6686C53.6084 59.4357 53.93 59.3072 54.2637 59.3114C54.4289 59.3135 54.5921 59.3481 54.7439 59.4132C54.8958 59.4784 55.0333 59.5728 55.1486 59.6911C55.264 59.8094 55.3549 59.9493 55.4162 60.1028C55.4775 60.2562 55.508 60.4202 55.5058 60.5854C55.5038 60.7506 55.4691 60.9138 55.404 61.0656C55.3388 61.2174 55.2378 61.2901 55.2378 61.2901L54.9763 61.4454ZM54.1772 53.768C53.2864 53.768 52.5536 53.3237 51.8129 52.8287C51.0722 52.3338 50.4948 51.6304 50.154 50.8073C49.813 49.9842 49.7238 49.0786 49.8977 48.2049C50.0714 47.3311 50.5004 46.5285 51.1303 45.8985C51.7603 45.2686 52.5629 44.8397 53.4366 44.6659C54.3103 44.492 55.216 44.5812 56.039 44.9222C56.8621 45.2631 57.5655 45.8404 58.0605 46.5811C58.5554 47.3218 58.8196 48.1927 58.8196 49.0836C58.8441 49.6939 58.7442 50.3028 58.526 50.8733C58.3077 51.4437 57.9757 51.9639 57.5502 52.4021C57.1247 52.8403 56.6145 53.1873 56.0506 53.4221C55.4868 53.6569 54.8811 53.7746 54.2703 53.768H54.1772Z"/>
</mask>
<path d="M73.9993 44.3991C73.953 43.1313 73.5407 41.9039 72.8125 40.865C72.0843 39.826 71.0708 39.0199 69.8947 38.5438C68.7192 38.0677 67.4305 37.9419 66.1843 38.1816C64.9388 38.4213 63.7889 39.0163 62.8737 39.8949C57.7495 36.4118 51.7263 34.4875 45.532 34.3546L48.4598 20.3013L58.0989 22.3282C58.2135 23.3934 58.704 24.3828 59.4824 25.119C60.2607 25.8551 61.276 26.2897 62.3457 26.3448C63.4161 26.3998 64.4702 26.0717 65.3204 25.4193C66.17 24.767 66.7593 23.8331 66.9826 22.7853C67.2059 21.7375 67.0483 20.6444 66.5384 19.7023C66.0286 18.7601 65.1997 18.0306 64.2 17.6446C63.2009 17.2586 62.0967 17.2416 61.0856 17.5964C60.0747 17.9512 59.2234 18.6547 58.6845 19.5806L47.649 17.3735C47.4685 17.3339 47.282 17.3305 47.1002 17.3636C46.9184 17.3966 46.745 17.4654 46.59 17.5659C46.4349 17.6665 46.3014 17.7968 46.1971 17.9494C46.0929 18.1019 46.0198 18.2736 45.9824 18.4545L42.6493 34.0843C36.3788 34.1789 30.2728 36.1046 25.0826 39.6246C24.3883 38.9713 23.5601 38.4768 22.6556 38.1753C21.7512 37.8738 20.7919 37.7726 19.8444 37.8787C18.8969 37.9848 17.9838 38.2957 17.1684 38.7897C16.353 39.2838 15.6547 39.9492 15.1221 40.74C14.5894 41.5307 14.235 42.4278 14.0836 43.3691C13.9321 44.3104 13.987 45.2734 14.2447 46.1913C14.5023 47.1093 14.9565 47.9602 15.5757 48.6852C16.1949 49.4101 16.9644 49.9918 17.8307 50.3898C17.78 51.0495 17.78 51.7121 17.8307 52.3717C17.8307 62.4613 29.5869 70.659 44.0906 70.659C58.5944 70.659 70.3508 62.4613 70.3508 52.3717C70.4015 51.7121 70.4015 51.0495 70.3508 50.3898C71.4618 49.8373 72.3946 48.9816 73.0402 47.9215C73.6858 46.8614 74.018 45.6402 73.9993 44.3991ZM28.9563 48.9034C28.9563 48.0126 29.2205 47.1417 29.7154 46.401C30.2104 45.6603 30.9138 45.0829 31.7369 44.742C32.5599 44.4011 33.4656 44.3119 34.3393 44.4857C35.213 44.6595 36.0156 45.0885 36.6456 45.7184C37.2755 46.3484 37.7045 47.1509 37.8783 48.0247C38.0521 48.8984 37.9629 49.8041 37.6219 50.6271C37.2811 51.4502 36.7037 52.1536 35.963 52.6486C35.2223 53.1435 34.3514 53.4077 33.4606 53.4077C32.8691 53.4077 32.2833 53.2912 31.7369 53.0648C31.1904 52.8384 30.6938 52.5067 30.2755 52.0884C29.8573 51.6701 29.5255 51.1736 29.2992 50.6271C29.0728 50.0806 28.9563 49.4949 28.9563 48.9034ZM54.9763 61.4454C51.7807 63.8539 47.9986 64.9242 44.0006 64.7584C40.0025 64.9242 36.0707 63.6987 32.875 61.2901C32.6835 61.0568 32.5856 60.7605 32.6004 60.459C32.6152 60.1574 32.7416 59.8722 32.9551 59.6587C33.1686 59.4451 33.4539 59.3187 33.7554 59.3039C34.057 59.2891 34.3533 59.387 34.5866 59.5785C37.2948 61.5649 40.6004 62.5664 43.9555 62.4162C47.3148 62.5989 50.6359 61.6296 53.3694 59.6686C53.6084 59.4357 53.93 59.3072 54.2637 59.3114C54.4289 59.3135 54.5921 59.3481 54.7439 59.4132C54.8958 59.4784 55.0333 59.5728 55.1486 59.6911C55.264 59.8094 55.3549 59.9493 55.4162 60.1028C55.4775 60.2562 55.508 60.4202 55.5058 60.5854C55.5038 60.7506 55.4691 60.9138 55.404 61.0656C55.3388 61.2174 55.2378 61.2901 55.2378 61.2901L54.9763 61.4454ZM54.1772 53.768C53.2864 53.768 52.5536 53.3237 51.8129 52.8287C51.0722 52.3338 50.4948 51.6304 50.154 50.8073C49.813 49.9842 49.7238 49.0786 49.8977 48.2049C50.0714 47.3311 50.5004 46.5285 51.1303 45.8985C51.7603 45.2686 52.5629 44.8397 53.4366 44.6659C54.3103 44.492 55.216 44.5812 56.039 44.9222C56.8621 45.2631 57.5655 45.8404 58.0605 46.5811C58.5554 47.3218 58.8196 48.1927 58.8196 49.0836C58.8441 49.6939 58.7442 50.3028 58.526 50.8733C58.3077 51.4437 57.9757 51.9639 57.5502 52.4021C57.1247 52.8403 56.6145 53.1873 56.0506 53.4221C55.4868 53.6569 54.8811 53.7746 54.2703 53.768H54.1772Z" stroke="#FF4500" stroke-width="4" mask="url(#path-2-outside-1_211_664)"/>
</svg>
