<svg width="88" height="88" viewBox="0 0 88 88" fill="none" xmlns="http://www.w3.org/2000/svg">
<rect width="88" height="88" rx="12" fill="white"/>
<path d="M41.9375 54.8625V33.1375C41.9375 31.075 41.0575 30.25 38.8713 30.25H33.3163C31.13 30.25 30.25 31.075 30.25 33.1375V54.8625C30.25 56.925 31.13 57.75 33.3163 57.75H38.8713C41.0575 57.75 41.9375 56.925 41.9375 54.8625Z" stroke="#605DEC" stroke-width="2.5" stroke-linecap="round" stroke-linejoin="round"/>
<path d="M57.75 39.215V32.9725C57.75 31.0338 56.87 30.25 54.6838 30.25H49.1287C46.9425 30.25 46.0625 31.0338 46.0625 32.9725V39.2013C46.0625 41.1538 46.9425 41.9237 49.1287 41.9237H54.6838C56.87 41.9375 57.75 41.1538 57.75 39.215Z" stroke="#605DEC" stroke-width="2.5" stroke-linecap="round" stroke-linejoin="round"/>
<path d="M57.75 54.6838V49.1287C57.75 46.9425 56.87 46.0625 54.6838 46.0625H49.1287C46.9425 46.0625 46.0625 46.9425 46.0625 49.1287V54.6838C46.0625 56.87 46.9425 57.75 49.1287 57.75H54.6838C56.87 57.75 57.75 56.87 57.75 54.6838Z" stroke="#605DEC" stroke-width="2.5" stroke-linecap="round" stroke-linejoin="round"/>
</svg>
