<svg width="86" height="86" viewBox="0 0 86 86" fill="none" xmlns="http://www.w3.org/2000/svg">
<rect width="86" height="86" rx="12" fill="white"/>
<path d="M50.5 56.5V53.5C50.5 51.9087 49.8679 50.3826 48.7426 49.2574C47.6174 48.1321 46.0913 47.5 44.5 47.5H32.5C30.9087 47.5 29.3826 48.1321 28.2574 49.2574C27.1321 50.3826 26.5 51.9087 26.5 53.5V56.5" stroke="#605DEC" stroke-width="3" stroke-linecap="round" stroke-linejoin="round"/>
<path d="M38.5 41.5C41.8137 41.5 44.5 38.8137 44.5 35.5C44.5 32.1863 41.8137 29.5 38.5 29.5C35.1863 29.5 32.5 32.1863 32.5 35.5C32.5 38.8137 35.1863 41.5 38.5 41.5Z" stroke="#605DEC" stroke-width="3" stroke-linecap="round" stroke-linejoin="round"/>
<path d="M59.5 56.4999V53.4999C59.499 52.1705 59.0565 50.8791 58.242 49.8284C57.4276 48.7777 56.2872 48.0273 55 47.6949" stroke="#605DEC" stroke-width="3" stroke-linecap="round" stroke-linejoin="round"/>
<path d="M49 29.6949C50.2906 30.0254 51.4346 30.776 52.2515 31.8284C53.0684 32.8808 53.5118 34.1752 53.5118 35.5074C53.5118 36.8397 53.0684 38.1341 52.2515 39.1865C51.4346 40.2389 50.2906 40.9895 49 41.3199" stroke="#605DEC" stroke-width="3" stroke-linecap="round" stroke-linejoin="round"/>
</svg>
