<svg width="88" height="88" viewBox="0 0 88 88" fill="none" xmlns="http://www.w3.org/2000/svg">
<rect width="88" height="88" rx="12" fill="white"/>
<path d="M46.768 58.4028C46.4867 58.8877 46.0829 59.2902 45.5972 59.5701C45.1114 59.8499 44.5606 59.9971 44 59.9971C43.4394 59.9971 42.8886 59.8499 42.4028 59.5701C41.9171 59.2902 41.5133 58.8877 41.232 58.4028M60 52.0028H28C29.273 52.0028 30.4939 51.4971 31.3941 50.5969C32.2943 49.6967 32.8 48.4758 32.8 47.2028V39.2028C32.8 36.2324 33.98 33.3836 36.0804 31.2832C38.1808 29.1828 41.0296 28.0028 44 28.0028C46.9704 28.0028 49.8192 29.1828 51.9196 31.2832C54.02 33.3836 55.2 36.2324 55.2 39.2028V47.2028C55.2 48.4758 55.7057 49.6967 56.6059 50.5969C57.5061 51.4971 58.727 52.0028 60 52.0028Z" stroke="#605DEC" stroke-width="3" stroke-linecap="round" stroke-linejoin="round"/>
</svg>
