<svg width="88" height="88" viewBox="0 0 88 88" fill="none" xmlns="http://www.w3.org/2000/svg">
<rect width="88" height="88" rx="12" fill="white"/>
<path d="M44 38.2222C51.1797 38.2222 57 36.2821 57 33.8889C57 31.4956 51.1797 29.5555 44 29.5555C36.8203 29.5555 31 31.4956 31 33.8889C31 36.2821 36.8203 38.2222 44 38.2222Z" stroke="#605DEC" stroke-width="3" stroke-linecap="round" stroke-linejoin="round"/>
<path d="M57 44C57 46.3978 51.2222 48.3333 44 48.3333C36.7778 48.3333 31 46.3978 31 44" stroke="#605DEC" stroke-width="3" stroke-linecap="round" stroke-linejoin="round"/>
<path d="M31 33.8888V54.111C31 56.5088 36.7778 58.4443 44 58.4443C51.2222 58.4443 57 56.5088 57 54.111V33.8888" stroke="#605DEC" stroke-width="3" stroke-linecap="round" stroke-linejoin="round"/>
</svg>
