<svg width="1280" height="1353" viewBox="0 0 1280 1353" fill="none" xmlns="http://www.w3.org/2000/svg">
<rect width="167" height="51" fill="#605DEC"/>
<text fill="white" xml:space="preserve" style="white-space: pre" font-family="Roboto" font-size="30" font-weight="500" letter-spacing="0em"><tspan x="16" y="35.7539">Dashboad</tspan></text>
<g clip-path="url(#clip0_3258_23254)">
<rect width="1280" height="1302" transform="translate(0 51)" fill="white"/>
<rect width="191" height="48" transform="translate(0 131)" fill="white"/>
<path d="M37.21 158.89C36.5739 160.394 35.5788 161.72 34.3119 162.751C33.045 163.782 31.5448 164.487 29.9425 164.805C28.3401 165.122 26.6845 165.042 25.1202 164.572C23.5559 164.101 22.1307 163.255 20.9691 162.107C19.8075 160.958 18.9449 159.543 18.4567 157.984C17.9685 156.425 17.8696 154.77 18.1686 153.165C18.4677 151.559 19.1555 150.051 20.1721 148.772C21.1886 147.493 22.5029 146.483 24 145.83" stroke="#7D7D7D" stroke-width="2" stroke-linecap="round" stroke-linejoin="round"/>
<path d="M38 155C38 153.687 37.7413 152.386 37.2388 151.173C36.7362 149.96 35.9997 148.858 35.0711 147.929C34.1425 147 33.0401 146.264 31.8268 145.761C30.6136 145.259 29.3132 145 28 145V155H38Z" stroke="#7D7D7D" stroke-width="2" stroke-linecap="round" stroke-linejoin="round"/>
<text fill="#7D7D7D" xml:space="preserve" style="white-space: pre" font-family="Chalkboard" font-size="16" letter-spacing="0em"><tspan x="48" y="160.578">Dashboard</tspan></text>
<g filter="url(#filter0_i_3258_23254)">
<rect width="191" height="48" transform="translate(0 179)" fill="#F5F5F5"/>
<path d="M34 199H35C36.0609 199 37.0783 199.421 37.8284 200.172C38.5786 200.922 39 201.939 39 203C39 204.061 38.5786 205.078 37.8284 205.828C37.0783 206.579 36.0609 207 35 207H34" stroke="#333333" stroke-width="2" stroke-linecap="round" stroke-linejoin="round"/>
<path d="M18 199H34V208C34 209.061 33.5786 210.078 32.8284 210.828C32.0783 211.579 31.0609 212 30 212H22C20.9391 212 19.9217 211.579 19.1716 210.828C18.4214 210.078 18 209.061 18 208V199Z" stroke="#333333" stroke-width="2" stroke-linecap="round" stroke-linejoin="round"/>
<path d="M22 192V195" stroke="#333333" stroke-width="2" stroke-linecap="round" stroke-linejoin="round"/>
<path d="M26 192V195" stroke="#898F9B" stroke-width="2" stroke-linecap="round" stroke-linejoin="round"/>
<path d="M30 192V195" stroke="#898F9B" stroke-width="2" stroke-linecap="round" stroke-linejoin="round"/>
<text fill="#333333" xml:space="preserve" style="white-space: pre" font-family="Chalkboard" font-size="16" letter-spacing="0em"><tspan x="48" y="208.578">Keywords</tspan></text>
<path d="M173 206L167 200L161 206" stroke="#333333" stroke-width="2" stroke-linecap="round" stroke-linejoin="round"/>
</g>
<rect width="191" height="48" transform="translate(0 227)" fill="#F5F5F5"/>
<path d="M28 254C29.6569 254 31 252.657 31 251C31 249.343 29.6569 248 28 248C26.3431 248 25 249.343 25 251C25 252.657 26.3431 254 28 254Z" stroke="#7D7D7D" stroke-width="2" stroke-linecap="round" stroke-linejoin="round"/>
<path d="M35.4 254C35.2669 254.302 35.2272 254.636 35.286 254.961C35.3448 255.285 35.4995 255.584 35.73 255.82L35.79 255.88C35.976 256.066 36.1235 256.286 36.2241 256.529C36.3248 256.772 36.3766 257.032 36.3766 257.295C36.3766 257.558 36.3248 257.818 36.2241 258.061C36.1235 258.304 35.976 258.524 35.79 258.71C35.6043 258.896 35.3837 259.043 35.1409 259.144C34.8981 259.245 34.6378 259.297 34.375 259.297C34.1122 259.297 33.8519 259.245 33.6091 259.144C33.3663 259.043 33.1457 258.896 32.96 258.71L32.9 258.65C32.6643 258.419 32.365 258.265 32.0406 258.206C31.7162 258.147 31.3816 258.187 31.08 258.32C30.7842 258.447 30.532 258.657 30.3543 258.926C30.1766 259.194 30.0813 259.508 30.08 259.83V260C30.08 260.53 29.8693 261.039 29.4942 261.414C29.1191 261.789 28.6104 262 28.08 262C27.5496 262 27.0409 261.789 26.6658 261.414C26.2907 261.039 26.08 260.53 26.08 260V259.91C26.0723 259.579 25.9651 259.258 25.7725 258.989C25.5799 258.719 25.3107 258.514 25 258.4C24.6984 258.267 24.3638 258.227 24.0394 258.286C23.715 258.345 23.4157 258.499 23.18 258.73L23.12 258.79C22.9343 258.976 22.7137 259.123 22.4709 259.224C22.2281 259.325 21.9678 259.377 21.705 259.377C21.4422 259.377 21.1819 259.325 20.9391 259.224C20.6963 259.123 20.4757 258.976 20.29 258.79C20.104 258.604 19.9565 258.384 19.8559 258.141C19.7552 257.898 19.7034 257.638 19.7034 257.375C19.7034 257.112 19.7552 256.852 19.8559 256.609C19.9565 256.366 20.104 256.146 20.29 255.96L20.35 255.9C20.5805 255.664 20.7352 255.365 20.794 255.041C20.8528 254.716 20.8131 254.382 20.68 254.08C20.5532 253.784 20.3428 253.532 20.0745 253.354C19.8062 253.177 19.4918 253.081 19.17 253.08H19C18.4696 253.08 17.9609 252.869 17.5858 252.494C17.2107 252.119 17 251.61 17 251.08C17 250.55 17.2107 250.041 17.5858 249.666C17.9609 249.291 18.4696 249.08 19 249.08H19.09C19.421 249.072 19.742 248.965 20.0113 248.773C20.2806 248.58 20.4857 248.311 20.6 248C20.7331 247.698 20.7728 247.364 20.714 247.039C20.6552 246.715 20.5005 246.416 20.27 246.18L20.21 246.12C20.024 245.934 19.8765 245.714 19.7759 245.471C19.6752 245.228 19.6234 244.968 19.6234 244.705C19.6234 244.442 19.6752 244.182 19.7759 243.939C19.8765 243.696 20.024 243.476 20.21 243.29C20.3957 243.104 20.6163 242.957 20.8591 242.856C21.1019 242.755 21.3622 242.703 21.625 242.703C21.8878 242.703 22.1481 242.755 22.3909 242.856C22.6337 242.957 22.8543 243.104 23.04 243.29L23.1 243.35C23.3357 243.581 23.635 243.735 23.9594 243.794C24.2838 243.853 24.6184 243.813 24.92 243.68H25C25.2958 243.553 25.548 243.343 25.7257 243.074C25.9034 242.806 25.9987 242.492 26 242.17V242C26 241.47 26.2107 240.961 26.5858 240.586C26.9609 240.211 27.4696 240 28 240C28.5304 240 29.0391 240.211 29.4142 240.586C29.7893 240.961 30 241.47 30 242V242.09C30.0013 242.412 30.0966 242.726 30.2743 242.994C30.452 243.263 30.7042 243.473 31 243.6C31.3016 243.733 31.6362 243.773 31.9606 243.714C32.285 243.655 32.5843 243.501 32.82 243.27L32.88 243.21C33.0657 243.024 33.2863 242.877 33.5291 242.776C33.7719 242.675 34.0322 242.623 34.295 242.623C34.5578 242.623 34.8181 242.675 35.0609 242.776C35.3037 242.877 35.5243 243.024 35.71 243.21C35.896 243.396 36.0435 243.616 36.1441 243.859C36.2448 244.102 36.2966 244.362 36.2966 244.625C36.2966 244.888 36.2448 245.148 36.1441 245.391C36.0435 245.634 35.896 245.854 35.71 246.04L35.65 246.1C35.4195 246.336 35.2648 246.635 35.206 246.959C35.1472 247.284 35.1869 247.618 35.32 247.92V248C35.4468 248.296 35.6572 248.548 35.9255 248.726C36.1938 248.903 36.5082 248.999 36.83 249H37C37.5304 249 38.0391 249.211 38.4142 249.586C38.7893 249.961 39 250.47 39 251C39 251.53 38.7893 252.039 38.4142 252.414C38.0391 252.789 37.5304 253 37 253H36.91C36.5882 253.001 36.2738 253.097 36.0055 253.274C35.7372 253.452 35.5268 253.704 35.4 254V254Z" stroke="#7D7D7D" stroke-width="2" stroke-linecap="round" stroke-linejoin="round"/>
<text fill="#7D7D7D" xml:space="preserve" style="white-space: pre" font-family="Chalkboard" font-size="16" letter-spacing="0em"><tspan x="48" y="256.578">Settings</tspan></text>
<rect x="-1" y="130" width="193" height="146" stroke="#EEEEEE" stroke-width="2"/>
<g filter="url(#filter1_d_3258_23254)">
<rect width="1280" height="80" transform="translate(0 51)" fill="white"/>
<rect x="65" y="68" width="39.8684" height="38" fill="#F5F5F5"/>
<path d="M70 73L100 101" stroke="#AAAAAA" stroke-width="2"/>
<path d="M100 73L70 101" stroke="#AAAAAA" stroke-width="2"/>
<rect x="65" y="68" width="39.8684" height="38" stroke="#AAAAAA" stroke-width="2"/>
<circle cx="1192" cy="91" r="23" fill="#F5F5F5" stroke="#AAAAAA" stroke-width="2"/>
<mask id="path-20-inside-1_3258_23254" fill="white">
<path fill-rule="evenodd" clip-rule="evenodd" d="M1174 106.875V106C1174 100.015 1185.99 97 1192 97C1198.01 97 1210 100.015 1210 106V106.875C1205.6 111.857 1199.17 115 1192 115C1184.83 115 1178.4 111.857 1174 106.875ZM1192 77C1187.03 77 1183 81.0275 1183 86C1183 90.9725 1187.03 95 1192 95C1196.97 95 1201 90.9725 1201 86C1201 81.0275 1196.97 77 1192 77Z"/>
</mask>
<path fill-rule="evenodd" clip-rule="evenodd" d="M1174 106.875V106C1174 100.015 1185.99 97 1192 97C1198.01 97 1210 100.015 1210 106V106.875C1205.6 111.857 1199.17 115 1192 115C1184.83 115 1178.4 111.857 1174 106.875ZM1192 77C1187.03 77 1183 81.0275 1183 86C1183 90.9725 1187.03 95 1192 95C1196.97 95 1201 90.9725 1201 86C1201 81.0275 1196.97 77 1192 77Z" fill="#F5F5F5"/>
<path d="M1174 106.875H1172V107.631L1172.5 108.198L1174 106.875ZM1210 106.875L1211.5 108.198L1212 107.631V106.875H1210ZM1176 106.875V106H1172V106.875H1176ZM1176 106C1176 105.238 1176.37 104.423 1177.32 103.539C1178.3 102.641 1179.74 101.814 1181.49 101.112C1185 99.7068 1189.25 99 1192 99V95C1188.75 95 1183.99 95.8007 1180 97.3991C1178.01 98.1989 1176.08 99.2477 1174.61 100.599C1173.13 101.963 1172 103.769 1172 106H1176ZM1192 99C1194.75 99 1199 99.7068 1202.51 101.112C1204.26 101.814 1205.7 102.641 1206.68 103.539C1207.63 104.423 1208 105.238 1208 106H1212C1212 103.769 1210.87 101.963 1209.39 100.599C1207.92 99.2477 1205.99 98.1989 1204 97.3991C1200.01 95.8007 1195.25 95 1192 95V99ZM1208 106V106.875H1212V106H1208ZM1208.5 105.551C1204.47 110.122 1198.57 113 1192 113V117C1199.77 117 1206.74 113.593 1211.5 108.198L1208.5 105.551ZM1192 113C1185.43 113 1179.53 110.122 1175.5 105.551L1172.5 108.198C1177.26 113.593 1184.23 117 1192 117V113ZM1185 86C1185 82.1321 1188.13 79 1192 79V75C1185.92 75 1181 79.9229 1181 86H1185ZM1192 93C1188.13 93 1185 89.8679 1185 86H1181C1181 92.0771 1185.92 97 1192 97V93ZM1199 86C1199 89.8679 1195.87 93 1192 93V97C1198.08 97 1203 92.0771 1203 86H1199ZM1192 79C1195.87 79 1199 82.1321 1199 86H1203C1203 79.9229 1198.08 75 1192 75V79Z" fill="#AAAAAA" mask="url(#path-20-inside-1_3258_23254)"/>
</g>
<text fill="black" xml:space="preserve" style="white-space: pre" font-family="Chalkboard" font-size="18" letter-spacing="0em"><tspan x="1051" y="166.275">Jun29 - Jul26, 2022</tspan></text>
<text fill="black" xml:space="preserve" style="white-space: pre" font-family="Chalkboard" font-size="18" letter-spacing="0em"><tspan x="926" y="166.275">Last 28 days</tspan></text>
<text fill="#EEEEEE" xml:space="preserve" style="white-space: pre" font-family="Chalkboard" font-size="30" letter-spacing="0em"><tspan x="840" y="339.459">Line graph</tspan></text>
<text fill="#EEEEEE" xml:space="preserve" style="white-space: pre" font-family="Chalkboard" font-size="30" letter-spacing="0em"><tspan x="387" y="339.459">Line graph</tspan></text>
<text fill="#EEEEEE" xml:space="preserve" style="white-space: pre" font-family="Chalkboard" font-size="30" letter-spacing="0em"><tspan x="387" y="602.459">Line graph</tspan></text>
<text fill="black" xml:space="preserve" style="white-space: pre" font-family="Chalkboard" font-size="24" letter-spacing="0em"><tspan x="751" y="221.367">Sentiment score</tspan></text>
<text fill="black" xml:space="preserve" style="white-space: pre" font-family="Chalkboard" font-size="24" letter-spacing="0em"><tspan x="304" y="792.367">Community &#38; Post count</tspan></text>
<text fill="#36374A" xml:space="preserve" style="white-space: pre" font-family="Chalkboard" font-size="18" letter-spacing="0em"><tspan x="304" y="484.275">Count</tspan></text>
<text fill="black" xml:space="preserve" style="white-space: pre" font-family="Chalkboard" font-size="24" letter-spacing="0em"><tspan x="298" y="221.367">Upvote ratio</tspan></text>
<rect x="283" y="1070" width="864" height="426" rx="7" fill="white"/>
<rect x="283" y="1070" width="864" height="426" rx="7" stroke="#AAAAAA" stroke-width="2"/>
<text fill="#7D7D7D" xml:space="preserve" style="white-space: pre" font-family="Chalkboard" font-size="14" letter-spacing="0em"><tspan x="307" y="1098.88">Community</tspan></text>
<text fill="#7D7D7D" xml:space="preserve" style="white-space: pre" font-family="Chalkboard" font-size="14" letter-spacing="0em"><tspan x="426" y="1098.88">Title</tspan></text>
<text fill="#7D7D7D" xml:space="preserve" style="white-space: pre" font-family="Chalkboard" font-size="14" letter-spacing="0em"><tspan x="505" y="1098.88">Author</tspan></text>
<text fill="#7D7D7D" xml:space="preserve" style="white-space: pre" font-family="Chalkboard" font-size="14" letter-spacing="0em"><tspan x="599" y="1101.88">Date &#38;  time</tspan></text>
<path d="M696 1094L702 1100L708 1094" stroke="#898F9B" stroke-width="2" stroke-linecap="round" stroke-linejoin="round"/>
<text fill="#7D7D7D" xml:space="preserve" style="white-space: pre" font-family="Chalkboard" font-size="14" letter-spacing="0em"><tspan x="765" y="1098.88">Content</tspan></text>
<text fill="#7D7D7D" xml:space="preserve" style="white-space: pre" font-family="Chalkboard" font-size="14" letter-spacing="0em"><tspan x="865" y="1101.88">Upvote Ratio</tspan></text>
<path d="M955 1094L961 1100L967 1094" stroke="#898F9B" stroke-width="2" stroke-linecap="round" stroke-linejoin="round"/>
<text fill="#7D7D7D" xml:space="preserve" style="white-space: pre" font-family="Chalkboard" font-size="14" letter-spacing="0em"><tspan x="1024" y="1098.88">Sentiment score</tspan></text>
<path d="M284 1120H1147" stroke="#AAAAAA" stroke-width="2"/>
<g clip-path="url(#clip1_3258_23254)">
<text fill="#7D7D7D" xml:space="preserve" style="white-space: pre" font-family="Redacted Script" font-size="16" letter-spacing="0em"><tspan x="307" y="1157.8">Lorem ipsum dolor sit amet, consec tetur adipiscing elit. Nam condimentum </tspan><tspan x="307" y="1177.8">tempus diam, ultricies sollicitudin erat facilisis eget. Vestibulum rhoncus </tspan><tspan x="307" y="1197.8">dui vel eros laoreet consectetur. Vivamus eget elementum ligula, vitae </tspan><tspan x="307" y="1217.8">pharetra quam. Nullam at ligula sed metu</tspan></text>
</g>
<g clip-path="url(#clip2_3258_23254)">
<text fill="#7D7D7D" xml:space="preserve" style="white-space: pre" font-family="Redacted Script" font-size="16" letter-spacing="0em"><tspan x="307" y="1186.8">Lorem ipsum dolor sit amet, consec tetur adipiscing elit. Nam condimentum tempus diam, ultricies </tspan><tspan x="307" y="1206.8">sollicitudin erat facilisis eget. Vestibulum rhoncus dui vel eros laoreet consectetur. Vivamus eget </tspan><tspan x="307" y="1226.8">elementum ligula, vitae pharetra quam. Nullam at ligula sed metu</tspan></text>
</g>
<g clip-path="url(#clip3_3258_23254)">
<text fill="#7D7D7D" xml:space="preserve" style="white-space: pre" font-family="Redacted Script" font-size="16" letter-spacing="0em"><tspan x="307" y="1215.8">Lorem ipsum dolor sit amet, consec tetur adipiscing elit. Nam condimentum tempus diam, ultricies </tspan><tspan x="307" y="1235.8">sollicitudin erat facilisis eget. Vestibulum rhoncus dui vel eros laoreet consectetur. Vivamus eget </tspan><tspan x="307" y="1255.8">elementum ligula, vitae pharetra quam. Nullam at ligula sed metu</tspan></text>
</g>
<g clip-path="url(#clip4_3258_23254)">
<text fill="#7D7D7D" xml:space="preserve" style="white-space: pre" font-family="Redacted Script" font-size="16" letter-spacing="0em"><tspan x="307" y="1244.8">Lorem ipsum dolor sit amet, consec tetur adipiscing elit. Nam condimentum tempus diam, ultricies </tspan><tspan x="307" y="1264.8">sollicitudin erat facilisis eget. Vestibulum rhoncus dui vel eros laoreet consectetur. Vivamus eget </tspan><tspan x="307" y="1284.8">elementum ligula, vitae pharetra quam. Nullam at ligula sed metu</tspan></text>
</g>
<g clip-path="url(#clip5_3258_23254)">
<text fill="#7D7D7D" xml:space="preserve" style="white-space: pre" font-family="Redacted Script" font-size="16" letter-spacing="0em"><tspan x="307" y="1273.8">Lorem ipsum dolor sit amet, consec tetur adipiscing elit. Nam condimentum tempus diam, ultricies </tspan><tspan x="307" y="1293.8">sollicitudin erat facilisis eget. Vestibulum rhoncus dui vel eros laoreet consectetur. Vivamus eget </tspan><tspan x="307" y="1313.8">elementum ligula, vitae pharetra quam. Nullam at ligula sed metu</tspan></text>
</g>
<g clip-path="url(#clip6_3258_23254)">
<text fill="#7D7D7D" xml:space="preserve" style="white-space: pre" font-family="Redacted Script" font-size="16" letter-spacing="0em"><tspan x="307" y="1302.8">Lorem ipsum dolor sit amet, consec tetur adipiscing elit. Nam condimentum tempus diam, </tspan><tspan x="307" y="1322.8">ultricies sollicitudin erat facilisis eget. Vestibulum rhoncus dui vel eros laoreet </tspan><tspan x="307" y="1342.8">consectetur. Vivamus eget elementum ligula, vitae pharetra quam. Nullam at ligula sed metu</tspan></text>
</g>
<g clip-path="url(#clip7_3258_23254)">
<text fill="#7D7D7D" xml:space="preserve" style="white-space: pre" font-family="Redacted Script" font-size="16" letter-spacing="0em"><tspan x="307" y="1331.8">Lorem ipsum dolor sit amet, consec tetur adipiscing elit. Nam condimentum tempus </tspan><tspan x="307" y="1351.8">diam, ultricies sollicitudin erat facilisis eget. Vestibulum rhoncus dui vel eros </tspan><tspan x="307" y="1371.8">laoreet consectetur. Vivamus eget elementum ligula, vitae pharetra quam. Nullam </tspan><tspan x="307" y="1391.8">at ligula sed metu</tspan></text>
</g>
<path d="M761.5 413C761.5 413.828 762.172 414.5 763 414.5C763.828 414.5 764.5 413.828 764.5 413H761.5ZM764.061 241.939C763.475 241.354 762.525 241.354 761.939 241.939L752.393 251.485C751.808 252.071 751.808 253.021 752.393 253.607C752.979 254.192 753.929 254.192 754.515 253.607L763 245.121L771.485 253.607C772.071 254.192 773.021 254.192 773.607 253.607C774.192 253.021 774.192 252.071 773.607 251.485L764.061 241.939ZM764.5 413V243H761.5V413H764.5Z" fill="#7D7D7D"/>
<path d="M308.5 413C308.5 413.828 309.172 414.5 310 414.5C310.828 414.5 311.5 413.828 311.5 413H308.5ZM311.061 241.939C310.475 241.354 309.525 241.354 308.939 241.939L299.393 251.485C298.808 252.071 298.808 253.021 299.393 253.607C299.979 254.192 300.929 254.192 301.515 253.607L310 245.121L318.485 253.607C319.071 254.192 320.021 254.192 320.607 253.607C321.192 253.021 321.192 252.071 320.607 251.485L311.061 241.939ZM311.5 413V243H308.5V413H311.5Z" fill="#7D7D7D"/>
<path d="M308.5 676C308.5 676.828 309.172 677.5 310 677.5C310.828 677.5 311.5 676.828 311.5 676H308.5ZM311.061 504.939C310.475 504.354 309.525 504.354 308.939 504.939L299.393 514.485C298.808 515.071 298.808 516.021 299.393 516.607C299.979 517.192 300.929 517.192 301.515 516.607L310 508.121L318.485 516.607C319.071 517.192 320.021 517.192 320.607 516.607C321.192 516.021 321.192 515.071 320.607 514.485L311.061 504.939ZM311.5 676V506H308.5V676H311.5Z" fill="#7D7D7D"/>
<path d="M763 411.5C762.172 411.5 761.5 412.172 761.5 413C761.5 413.828 762.172 414.5 763 414.5V411.5ZM1137.06 414.061C1137.65 413.475 1137.65 412.525 1137.06 411.939L1127.51 402.393C1126.93 401.808 1125.98 401.808 1125.39 402.393C1124.81 402.979 1124.81 403.929 1125.39 404.515L1133.88 413L1125.39 421.485C1124.81 422.071 1124.81 423.021 1125.39 423.607C1125.98 424.192 1126.93 424.192 1127.51 423.607L1137.06 414.061ZM763 414.5H1136V411.5H763V414.5Z" fill="#7D7D7D"/>
<path d="M310 411.5C309.172 411.5 308.5 412.172 308.5 413C308.5 413.828 309.172 414.5 310 414.5V411.5ZM684.061 414.061C684.646 413.475 684.646 412.525 684.061 411.939L674.515 402.393C673.929 401.808 672.979 401.808 672.393 402.393C671.808 402.979 671.808 403.929 672.393 404.515L680.879 413L672.393 421.485C671.808 422.071 671.808 423.021 672.393 423.607C672.979 424.192 673.929 424.192 674.515 423.607L684.061 414.061ZM310 414.5H683V411.5H310V414.5Z" fill="#7D7D7D"/>
<path d="M310 674.5C309.172 674.5 308.5 675.172 308.5 676C308.5 676.828 309.172 677.5 310 677.5V674.5ZM684.061 677.061C684.646 676.475 684.646 675.525 684.061 674.939L674.515 665.393C673.929 664.808 672.979 664.808 672.393 665.393C671.808 665.979 671.808 666.929 672.393 667.515L680.879 676L672.393 684.485C671.808 685.071 671.808 686.021 672.393 686.607C672.979 687.192 673.929 687.192 674.515 686.607L684.061 677.061ZM310 677.5H683V674.5H310V677.5Z" fill="#7D7D7D"/>
<text fill="#767676" xml:space="preserve" style="white-space: pre" font-family="Chalkboard" font-size="14" letter-spacing="0em"><tspan x="783" y="432.881">6/29</tspan></text>
<text fill="#767676" xml:space="preserve" style="white-space: pre" font-family="Chalkboard" font-size="14" letter-spacing="0em"><tspan x="832" y="432.881">6/29</tspan></text>
<text fill="#767676" xml:space="preserve" style="white-space: pre" font-family="Chalkboard" font-size="14" letter-spacing="0em"><tspan x="881" y="432.881">7/8</tspan></text>
<text fill="#767676" xml:space="preserve" style="white-space: pre" font-family="Chalkboard" font-size="14" letter-spacing="0em"><tspan x="922" y="432.881">7/15</tspan></text>
<text fill="#767676" xml:space="preserve" style="white-space: pre" font-family="Chalkboard" font-size="14" letter-spacing="0em"><tspan x="968" y="432.881">7/20</tspan></text>
<text fill="#767676" xml:space="preserve" style="white-space: pre" font-family="Chalkboard" font-size="14" letter-spacing="0em"><tspan x="1016" y="432.881">7/20</tspan></text>
<text fill="#767676" xml:space="preserve" style="white-space: pre" font-family="Chalkboard" font-size="14" letter-spacing="0em"><tspan x="1064" y="432.881">7/26</tspan></text>
<text fill="#767676" xml:space="preserve" style="white-space: pre" font-family="Chalkboard" font-size="14" letter-spacing="0em"><tspan x="330" y="432.881">6/29</tspan></text>
<text fill="#767676" xml:space="preserve" style="white-space: pre" font-family="Chalkboard" font-size="14" letter-spacing="0em"><tspan x="379" y="432.881">6/29</tspan></text>
<text fill="#767676" xml:space="preserve" style="white-space: pre" font-family="Chalkboard" font-size="14" letter-spacing="0em"><tspan x="428" y="432.881">7/8</tspan></text>
<text fill="#767676" xml:space="preserve" style="white-space: pre" font-family="Chalkboard" font-size="14" letter-spacing="0em"><tspan x="469" y="432.881">7/15</tspan></text>
<text fill="#767676" xml:space="preserve" style="white-space: pre" font-family="Chalkboard" font-size="14" letter-spacing="0em"><tspan x="515" y="432.881">7/20</tspan></text>
<text fill="#767676" xml:space="preserve" style="white-space: pre" font-family="Chalkboard" font-size="14" letter-spacing="0em"><tspan x="563" y="432.881">7/20</tspan></text>
<text fill="#767676" xml:space="preserve" style="white-space: pre" font-family="Chalkboard" font-size="14" letter-spacing="0em"><tspan x="611" y="432.881">7/26</tspan></text>
<text fill="#767676" xml:space="preserve" style="white-space: pre" font-family="Chalkboard" font-size="14" letter-spacing="0em"><tspan x="330" y="695.881">6/29</tspan></text>
<text fill="#767676" xml:space="preserve" style="white-space: pre" font-family="Chalkboard" font-size="14" letter-spacing="0em"><tspan x="379" y="695.881">6/29</tspan></text>
<text fill="#767676" xml:space="preserve" style="white-space: pre" font-family="Chalkboard" font-size="14" letter-spacing="0em"><tspan x="428" y="695.881">7/8</tspan></text>
<text fill="#767676" xml:space="preserve" style="white-space: pre" font-family="Chalkboard" font-size="14" letter-spacing="0em"><tspan x="469" y="695.881">7/15</tspan></text>
<text fill="#767676" xml:space="preserve" style="white-space: pre" font-family="Chalkboard" font-size="14" letter-spacing="0em"><tspan x="515" y="695.881">7/20</tspan></text>
<text fill="#767676" xml:space="preserve" style="white-space: pre" font-family="Chalkboard" font-size="14" letter-spacing="0em"><tspan x="563" y="695.881">7/20</tspan></text>
<text fill="#767676" xml:space="preserve" style="white-space: pre" font-family="Chalkboard" font-size="14" letter-spacing="0em"><tspan x="611" y="695.881">7/26</tspan></text>
<text fill="#767676" xml:space="preserve" style="white-space: pre" font-family="Chalkboard" font-size="14" letter-spacing="0em"><tspan x="739" y="281.881">10</tspan></text>
<text fill="#767676" xml:space="preserve" style="white-space: pre" font-family="Chalkboard" font-size="14" letter-spacing="0em"><tspan x="739" y="340.381">5</tspan></text>
<text fill="#767676" xml:space="preserve" style="white-space: pre" font-family="Chalkboard" font-size="14" letter-spacing="0em"><tspan x="739" y="398.881">0</tspan></text>
<text fill="#767676" xml:space="preserve" style="white-space: pre" font-family="Chalkboard" font-size="14" letter-spacing="0em"><tspan x="292" y="281.881">1</tspan></text>
<text fill="#767676" xml:space="preserve" style="white-space: pre" font-family="Chalkboard" font-size="14" letter-spacing="0em"><tspan x="278" y="340.381">0.5</tspan></text>
<text fill="#767676" xml:space="preserve" style="white-space: pre" font-family="Chalkboard" font-size="14" letter-spacing="0em"><tspan x="290" y="398.881">0</tspan></text>
<text fill="#767676" xml:space="preserve" style="white-space: pre" font-family="Chalkboard" font-size="14" letter-spacing="0em"><tspan x="252" y="544.881">150000</tspan></text>
<text fill="#767676" xml:space="preserve" style="white-space: pre" font-family="Chalkboard" font-size="14" letter-spacing="0em"><tspan x="252" y="583.881">100000</tspan></text>
<text fill="#767676" xml:space="preserve" style="white-space: pre" font-family="Chalkboard" font-size="14" letter-spacing="0em"><tspan x="257" y="622.881">50000</tspan></text>
<text fill="#767676" xml:space="preserve" style="white-space: pre" font-family="Chalkboard" font-size="14" letter-spacing="0em"><tspan x="290" y="661.881">0</tspan></text>
<path d="M778 344.068C790.018 329.588 814.053 309.442 865.628 311.016C917.204 312.59 920.032 340.459 956.261 345.957C970.783 348.16 997.822 348.16 1016.85 332.736C1031 321.269 1036.5 304.949 1059.41 297.48C1086.45 288.666 1102.48 293.388 1119 283" stroke="#767676" stroke-width="3" stroke-linecap="round"/>
<path d="M326.5 353.5C378.5 387 430.469 383.326 475 377.5C528.5 370.5 546.328 358.968 563.5 341.5C592.5 312 623 268.5 664.5 264.5" stroke="#767676" stroke-width="3" stroke-linecap="round"/>
<path d="M325 607.068C337.018 592.588 359.924 532.926 411.5 534.5C463.076 536.074 467.032 603.459 503.261 608.957C517.783 611.16 544.822 611.16 563.85 595.736C577.996 584.269 583.499 567.949 606.413 560.48C633.452 551.666 664.5 578.5 669 625" stroke="#767676" stroke-width="3" stroke-linecap="round"/>
<mask id="path-89-inside-2_3258_23254" fill="white">
<path d="M524.718 953.431C518.607 967.334 509.349 979.627 497.674 989.339C485.998 999.052 472.225 1005.92 457.442 1009.4C442.659 1012.87 427.269 1012.87 412.488 1009.38C397.708 1005.89 383.94 999.015 372.272 989.294C360.603 979.573 351.354 967.273 345.254 953.365C339.153 939.457 336.369 924.322 337.12 909.154C337.871 893.985 342.137 879.199 349.581 865.962C357.026 852.725 367.445 841.399 380.016 832.878L402.844 866.558C395.492 871.541 389.399 878.165 385.045 885.906C380.692 893.648 378.197 902.295 377.758 911.166C377.318 920.037 378.947 928.888 382.514 937.022C386.082 945.155 391.491 952.348 398.315 958.033C405.139 963.719 413.191 967.74 421.835 969.78C430.479 971.82 439.479 971.824 448.125 969.79C456.77 967.756 464.825 963.74 471.653 958.06C478.481 952.38 483.895 945.191 487.469 937.06L524.718 953.431Z"/>
</mask>
<path d="M524.718 953.431C518.607 967.334 509.349 979.627 497.674 989.339C485.998 999.052 472.225 1005.92 457.442 1009.4C442.659 1012.87 427.269 1012.87 412.488 1009.38C397.708 1005.89 383.94 999.015 372.272 989.294C360.603 979.573 351.354 967.273 345.254 953.365C339.153 939.457 336.369 924.322 337.12 909.154C337.871 893.985 342.137 879.199 349.581 865.962C357.026 852.725 367.445 841.399 380.016 832.878L402.844 866.558C395.492 871.541 389.399 878.165 385.045 885.906C380.692 893.648 378.197 902.295 377.758 911.166C377.318 920.037 378.947 928.888 382.514 937.022C386.082 945.155 391.491 952.348 398.315 958.033C405.139 963.719 413.191 967.74 421.835 969.78C430.479 971.82 439.479 971.824 448.125 969.79C456.77 967.756 464.825 963.74 471.653 958.06C478.481 952.38 483.895 945.191 487.469 937.06L524.718 953.431Z" fill="#E6E6E6" stroke="#AAAAAA" stroke-width="6" mask="url(#path-89-inside-2_3258_23254)"/>
<mask id="path-90-inside-3_3258_23254" fill="white">
<path d="M377.826 834.406C388.883 826.464 401.473 820.913 414.794 818.106C428.115 815.299 441.875 815.298 455.196 818.104C468.517 820.909 481.108 826.459 492.165 834.4C503.223 842.341 512.504 852.499 519.419 864.226L484.37 884.891C480.326 878.033 474.898 872.092 468.432 867.448C461.965 862.804 454.602 859.558 446.811 857.918C439.02 856.277 430.974 856.277 423.183 857.919C415.393 859.56 408.03 862.807 401.564 867.452L377.826 834.406Z"/>
</mask>
<path d="M377.826 834.406C388.883 826.464 401.473 820.913 414.794 818.106C428.115 815.299 441.875 815.298 455.196 818.104C468.517 820.909 481.108 826.459 492.165 834.4C503.223 842.341 512.504 852.499 519.419 864.226L484.37 884.891C480.326 878.033 474.898 872.092 468.432 867.448C461.965 862.804 454.602 859.558 446.811 857.918C439.02 856.277 430.974 856.277 423.183 857.919C415.393 859.56 408.03 862.807 401.564 867.452L377.826 834.406Z" fill="#EEEEEE" stroke="#AAAAAA" stroke-width="6" mask="url(#path-90-inside-3_3258_23254)"/>
<mask id="path-91-inside-4_3258_23254" fill="white">
<path d="M518.24 862.279C526.922 876.252 531.947 892.185 532.852 908.611C533.756 925.037 530.512 941.426 523.416 956.267L486.708 938.719C490.857 930.039 492.755 920.454 492.226 910.848C491.697 901.242 488.758 891.924 483.681 883.752L518.24 862.279Z"/>
</mask>
<path d="M518.24 862.279C526.922 876.252 531.947 892.185 532.852 908.611C533.756 925.037 530.512 941.426 523.416 956.267L486.708 938.719C490.857 930.039 492.755 920.454 492.226 910.848C491.697 901.242 488.758 891.924 483.681 883.752L518.24 862.279Z" fill="#F5F5F5" stroke="#AAAAAA" stroke-width="6" mask="url(#path-91-inside-4_3258_23254)"/>
<rect x="584.5" y="947.762" width="21.3846" height="4.8" fill="#F5F5F5" stroke="#AAAAAA"/>
<text fill="#4F4F4F" xml:space="preserve" style="white-space: pre" font-family="Chalkboard" font-size="12" letter-spacing="0em"><tspan x="616.385" y="956.183">r/Funshion</tspan></text>
<rect x="584.5" y="972.15" width="21" height="5" fill="#EEEEEE" stroke="#AAAAAA"/>
<text fill="#4F4F4F" xml:space="preserve" style="white-space: pre" font-family="Chalkboard" font-size="12" letter-spacing="0em"><tspan x="616" y="977.508">r/Sneaker</tspan></text>
<rect x="584.5" y="993.15" width="21" height="5" fill="#E6E6E6" stroke="#AAAAAA"/>
<text fill="#4F4F4F" xml:space="preserve" style="white-space: pre" font-family="Chalkboard" font-size="12" letter-spacing="0em"><tspan x="614" y="998.833">r/Streetwear</tspan></text>
<text fill="#DEB650" xml:space="preserve" style="white-space: pre" font-family="Chalkboard" font-size="32" letter-spacing="0em"><tspan x="982" y="1186.16">Link to reddite post</tspan></text>
</g>
<defs>
<filter id="filter0_i_3258_23254" x="0" y="179" width="191" height="48" filterUnits="userSpaceOnUse" color-interpolation-filters="sRGB">
<feFlood flood-opacity="0" result="BackgroundImageFix"/>
<feBlend mode="normal" in="SourceGraphic" in2="BackgroundImageFix" result="shape"/>
<feColorMatrix in="SourceAlpha" type="matrix" values="0 0 0 0 0 0 0 0 0 0 0 0 0 0 0 0 0 0 127 0" result="hardAlpha"/>
<feOffset dx="2"/>
<feComposite in2="hardAlpha" operator="arithmetic" k2="-1" k3="1"/>
<feColorMatrix type="matrix" values="0 0 0 0 0.2 0 0 0 0 0.2 0 0 0 0 0.2 0 0 0 1 0"/>
<feBlend mode="normal" in2="shape" result="effect1_innerShadow_3258_23254"/>
</filter>
<filter id="filter1_d_3258_23254" x="-4" y="51" width="1288" height="88" filterUnits="userSpaceOnUse" color-interpolation-filters="sRGB">
<feFlood flood-opacity="0" result="BackgroundImageFix"/>
<feColorMatrix in="SourceAlpha" type="matrix" values="0 0 0 0 0 0 0 0 0 0 0 0 0 0 0 0 0 0 127 0" result="hardAlpha"/>
<feOffset dy="4"/>
<feGaussianBlur stdDeviation="2"/>
<feComposite in2="hardAlpha" operator="out"/>
<feColorMatrix type="matrix" values="0 0 0 0 0 0 0 0 0 0 0 0 0 0 0 0 0 0 0.1 0"/>
<feBlend mode="normal" in2="BackgroundImageFix" result="effect1_dropShadow_3258_23254"/>
<feBlend mode="normal" in="SourceGraphic" in2="effect1_dropShadow_3258_23254" result="shape"/>
</filter>
<clipPath id="clip0_3258_23254">
<rect width="1280" height="1302" fill="white" transform="translate(0 51)"/>
</clipPath>
<clipPath id="clip1_3258_23254">
<rect width="570" height="20" fill="white" transform="translate(307 1143)"/>
</clipPath>
<clipPath id="clip2_3258_23254">
<rect width="734" height="20" fill="white" transform="translate(307 1172)"/>
</clipPath>
<clipPath id="clip3_3258_23254">
<rect width="738" height="20" fill="white" transform="translate(307 1201)"/>
</clipPath>
<clipPath id="clip4_3258_23254">
<rect width="741" height="20" fill="white" transform="translate(307 1230)"/>
</clipPath>
<clipPath id="clip5_3258_23254">
<rect width="738" height="20" fill="white" transform="translate(307 1259)"/>
</clipPath>
<clipPath id="clip6_3258_23254">
<rect width="697" height="20" fill="white" transform="translate(307 1288)"/>
</clipPath>
<clipPath id="clip7_3258_23254">
<rect width="601" height="20" fill="white" transform="translate(307 1317)"/>
</clipPath>
</defs>
</svg>
