<svg width="116" height="106" viewBox="0 0 116 106" fill="none" xmlns="http://www.w3.org/2000/svg">
<mask id="path-1-inside-1_206_624" fill="white">
<path d="M105.908 53.2519C105.834 51.2253 105.175 49.2633 104.011 47.6026C102.847 45.9419 101.227 44.6533 99.3468 43.8922C97.4678 43.1312 95.4078 42.9301 93.4158 43.3133C91.4248 43.6965 89.5868 44.6476 88.1238 46.0519C79.9328 40.4843 70.3049 37.4083 60.4034 37.1959L65.0834 14.7319L80.4914 17.9719C80.6746 19.6746 81.4586 21.2562 82.7028 22.4329C83.947 23.6096 85.5699 24.3043 87.2798 24.3923C88.9908 24.4803 90.6758 23.9558 92.0348 22.913C93.3928 21.8702 94.3348 20.3774 94.6918 18.7025C95.0488 17.0276 94.7968 15.2804 93.9818 13.7744C93.1668 12.2683 91.8418 11.1022 90.2438 10.4853C88.6468 9.86825 86.8818 9.84095 85.2655 10.4082C83.6496 10.9753 82.2889 12.0999 81.4274 13.5799L63.7874 10.0519C63.4989 9.98855 63.2007 9.98315 62.9101 10.036C62.6195 10.0888 62.3423 10.1988 62.0945 10.3595C61.8467 10.5202 61.6333 10.7286 61.4666 10.9724C61.2999 11.2162 61.1832 11.4907 61.1234 11.7799L55.7954 36.7639C45.7722 36.915 36.0118 39.9933 27.7154 45.6199C26.6055 44.5756 25.2817 43.7851 23.8359 43.3032C22.3901 42.8213 20.8567 42.6595 19.3422 42.8291C17.8276 42.9987 16.3681 43.4956 15.0646 44.2853C13.7612 45.0751 12.6451 46.1388 11.7936 47.4028C10.9422 48.6668 10.3757 50.1008 10.1336 51.6054C9.89139 53.1101 9.97929 54.6494 10.3911 56.1167C10.803 57.584 11.529 58.9442 12.5188 60.1031C13.5086 61.2619 14.7386 62.1917 16.1234 62.8279C16.0423 63.8824 16.0423 64.9415 16.1234 65.9959C16.1234 82.1239 34.9154 95.2279 58.0994 95.2279C81.2834 95.2279 100.076 82.1239 100.076 65.9959C100.157 64.9415 100.157 63.8824 100.076 62.8279C101.852 61.9448 103.343 60.5769 104.375 58.8824C105.407 57.1878 105.938 55.2358 105.908 53.2519ZM33.9074 60.4519C33.9074 59.0279 34.3297 57.6358 35.1208 56.4518C35.912 55.2678 37.0365 54.3449 38.3521 53.8C39.6677 53.255 41.1154 53.1124 42.5121 53.3903C43.9087 53.6681 45.1916 54.3538 46.1986 55.3607C47.2055 56.3677 47.8912 57.6506 48.1691 59.0473C48.4469 60.4439 48.3043 61.8916 47.7593 63.2072C47.2144 64.5229 46.2915 65.6473 45.1075 66.4385C43.9235 67.2296 42.5314 67.6519 41.1074 67.6519C40.1619 67.6519 39.2256 67.4657 38.3521 67.1038C37.4785 66.742 36.6848 66.2117 36.0162 65.5431C35.3477 64.8745 34.8173 64.0808 34.4555 63.2072C34.0936 62.3337 33.9074 61.3974 33.9074 60.4519ZM75.5 80.5C70.3918 84.35 64.3462 86.0609 57.9554 85.7959C51.5646 86.0609 45.2796 84.1019 40.1714 80.2519C39.8652 79.8789 39.7088 79.4053 39.7324 78.9233C39.7561 78.4412 39.9582 77.9853 40.2995 77.644C40.6407 77.3027 41.0967 77.1006 41.5787 77.077C42.0608 77.0533 42.5344 77.2097 42.9074 77.5159C47.2363 80.6911 52.5203 82.2919 57.8834 82.0519C63.2532 82.3439 68.5618 80.7945 72.9314 77.6599C73.3133 77.2876 73.8275 77.0822 74.3609 77.0889C74.6249 77.0922 74.8858 77.1476 75.1285 77.2517C75.3712 77.3559 75.591 77.5068 75.7754 77.6959C75.9598 77.885 76.1051 78.1086 76.2031 78.3539C76.3011 78.5991 76.3498 78.8613 76.3464 79.1254C76.3431 79.3895 76.2877 79.6503 76.1836 79.893C76.0794 80.1357 75.918 80.2519 75.918 80.2519L75.5 80.5ZM74.2227 68.2279C72.7987 68.2279 71.6273 67.5176 70.4433 66.7265C69.2593 65.9353 68.3364 64.8109 67.7915 63.4952C67.2465 62.1796 67.1039 60.7319 67.3818 59.3353C67.6596 57.9386 68.3453 56.6557 69.3522 55.6487C70.3592 54.6418 71.6421 53.9561 73.0388 53.6783C74.4354 53.4004 75.8831 53.543 77.1987 54.088C78.5143 54.6329 79.6388 55.5558 80.43 56.7398C81.2211 57.9238 81.6434 59.3159 81.6434 60.7399C81.6825 61.7155 81.5228 62.6888 81.174 63.6007C80.8252 64.5126 80.2945 65.3441 79.6143 66.0445C78.9341 66.7449 78.1185 67.2996 77.2172 67.675C76.3159 68.0503 75.3477 68.2385 74.3714 68.2279H74.2227Z"/>
</mask>
<path d="M105.908 53.2519C105.834 51.2253 105.175 49.2633 104.011 47.6026C102.847 45.9419 101.227 44.6533 99.3468 43.8922C97.4678 43.1312 95.4078 42.9301 93.4158 43.3133C91.4248 43.6965 89.5868 44.6476 88.1238 46.0519C79.9328 40.4843 70.3049 37.4083 60.4034 37.1959L65.0834 14.7319L80.4914 17.9719C80.6746 19.6746 81.4586 21.2562 82.7028 22.4329C83.947 23.6096 85.5699 24.3043 87.2798 24.3923C88.9908 24.4803 90.6758 23.9558 92.0348 22.913C93.3928 21.8702 94.3348 20.3774 94.6918 18.7025C95.0488 17.0276 94.7968 15.2804 93.9818 13.7744C93.1668 12.2683 91.8418 11.1022 90.2438 10.4853C88.6468 9.86825 86.8818 9.84095 85.2655 10.4082C83.6496 10.9753 82.2889 12.0999 81.4274 13.5799L63.7874 10.0519C63.4989 9.98855 63.2007 9.98315 62.9101 10.036C62.6195 10.0888 62.3423 10.1988 62.0945 10.3595C61.8467 10.5202 61.6333 10.7286 61.4666 10.9724C61.2999 11.2162 61.1832 11.4907 61.1234 11.7799L55.7954 36.7639C45.7722 36.915 36.0118 39.9933 27.7154 45.6199C26.6055 44.5756 25.2817 43.7851 23.8359 43.3032C22.3901 42.8213 20.8567 42.6595 19.3422 42.8291C17.8276 42.9987 16.3681 43.4956 15.0646 44.2853C13.7612 45.0751 12.6451 46.1388 11.7936 47.4028C10.9422 48.6668 10.3757 50.1008 10.1336 51.6054C9.89139 53.1101 9.97929 54.6494 10.3911 56.1167C10.803 57.584 11.529 58.9442 12.5188 60.1031C13.5086 61.2619 14.7386 62.1917 16.1234 62.8279C16.0423 63.8824 16.0423 64.9415 16.1234 65.9959C16.1234 82.1239 34.9154 95.2279 58.0994 95.2279C81.2834 95.2279 100.076 82.1239 100.076 65.9959C100.157 64.9415 100.157 63.8824 100.076 62.8279C101.852 61.9448 103.343 60.5769 104.375 58.8824C105.407 57.1878 105.938 55.2358 105.908 53.2519ZM33.9074 60.4519C33.9074 59.0279 34.3297 57.6358 35.1208 56.4518C35.912 55.2678 37.0365 54.3449 38.3521 53.8C39.6677 53.255 41.1154 53.1124 42.5121 53.3903C43.9087 53.6681 45.1916 54.3538 46.1986 55.3607C47.2055 56.3677 47.8912 57.6506 48.1691 59.0473C48.4469 60.4439 48.3043 61.8916 47.7593 63.2072C47.2144 64.5229 46.2915 65.6473 45.1075 66.4385C43.9235 67.2296 42.5314 67.6519 41.1074 67.6519C40.1619 67.6519 39.2256 67.4657 38.3521 67.1038C37.4785 66.742 36.6848 66.2117 36.0162 65.5431C35.3477 64.8745 34.8173 64.0808 34.4555 63.2072C34.0936 62.3337 33.9074 61.3974 33.9074 60.4519ZM75.5 80.5C70.3918 84.35 64.3462 86.0609 57.9554 85.7959C51.5646 86.0609 45.2796 84.1019 40.1714 80.2519C39.8652 79.8789 39.7088 79.4053 39.7324 78.9233C39.7561 78.4412 39.9582 77.9853 40.2995 77.644C40.6407 77.3027 41.0967 77.1006 41.5787 77.077C42.0608 77.0533 42.5344 77.2097 42.9074 77.5159C47.2363 80.6911 52.5203 82.2919 57.8834 82.0519C63.2532 82.3439 68.5618 80.7945 72.9314 77.6599C73.3133 77.2876 73.8275 77.0822 74.3609 77.0889C74.6249 77.0922 74.8858 77.1476 75.1285 77.2517C75.3712 77.3559 75.591 77.5068 75.7754 77.6959C75.9598 77.885 76.1051 78.1086 76.2031 78.3539C76.3011 78.5991 76.3498 78.8613 76.3464 79.1254C76.3431 79.3895 76.2877 79.6503 76.1836 79.893C76.0794 80.1357 75.918 80.2519 75.918 80.2519L75.5 80.5ZM74.2227 68.2279C72.7987 68.2279 71.6273 67.5176 70.4433 66.7265C69.2593 65.9353 68.3364 64.8109 67.7915 63.4952C67.2465 62.1796 67.1039 60.7319 67.3818 59.3353C67.6596 57.9386 68.3453 56.6557 69.3522 55.6487C70.3592 54.6418 71.6421 53.9561 73.0388 53.6783C74.4354 53.4004 75.8831 53.543 77.1987 54.088C78.5143 54.6329 79.6388 55.5558 80.43 56.7398C81.2211 57.9238 81.6434 59.3159 81.6434 60.7399C81.6825 61.7155 81.5228 62.6888 81.174 63.6007C80.8252 64.5126 80.2945 65.3441 79.6143 66.0445C78.9341 66.7449 78.1185 67.2996 77.2172 67.675C76.3159 68.0503 75.3477 68.2385 74.3714 68.2279H74.2227Z" fill="#FAFAFA" stroke="#23262F" stroke-width="3" mask="url(#path-1-inside-1_206_624)"/>
</svg>
