<?xml version="1.0" encoding="utf-8"?>
<!-- Generator: Adobe Illustrator 25.2.1, SVG Export Plug-In . SVG Version: 6.00 Build 0)  -->
<svg version="1.1" id="Layer_1" xmlns="http://www.w3.org/2000/svg" xmlns:xlink="http://www.w3.org/1999/xlink" x="0px" y="0px"
	 viewBox="0 0 603.4 288.2" style="enable-background:new 0 0 603.4 288.2;" xml:space="preserve">
<style type="text/css">
	.st0{fill:#5384ED;}
	.st1{fill:#FFE1AB;}
	.st2{fill:#912C2C;}
	.st3{fill:#EDD1BC;}
	.st4{fill:none;stroke:#9E745F;stroke-miterlimit:10;}
	.st5{font-family:'Lato-Regular';}
	.st6{font-size:10px;}
	.st7{font-family:'Lato-Hairline';}
	.st8{font-size:8px;}
</style>
<g id="circle_1_">
	<ellipse class="st0" cx="108" cy="129.6" rx="36" ry="36"/>
</g>
<g id="vector_1_">
	<path class="st1" d="M119.7,122.2v7.3c0,0.3-0.1,0.5-0.2,0.7c-2.1,4.8-5.8,8.8-10.5,11.3l-0.1,0.1c-0.3,0.1-0.5,0.2-0.8,0.2H108
		c-0.3,0-0.6-0.1-0.8-0.2l-0.1-0.1c-4.7-2.5-8.4-6.5-10.5-11.3c-0.1-0.2-0.2-0.5-0.2-0.7v-7.3c1.9-0.5,3.8-1.3,5.4-2.3
		c2.6-1.7,4.7-4,6.2-6.8c1.5,2.7,3.6,5,6.2,6.8C115.9,120.9,117.7,121.7,119.7,122.2z"/>
	<path class="st2" d="M115.8,146.6l-2.5-1.3v-6.7c2.7-2.3,4.9-5.2,6.3-8.4c0.1-0.2,0.2-0.5,0.2-0.7v-7.3c-1.9-0.5-3.8-1.3-5.4-2.3
		c-2.6-1.7-4.7-4-6.2-6.8c-1.5,2.7-3.6,5-6.2,6.8c-1.7,1.1-3.5,1.9-5.4,2.3v7.3c0,0.3,0.1,0.5,0.2,0.7c1.4,3.3,3.6,6.1,6.3,8.4v6.7
		l-2.6,1.3c-0.4,0.2-0.9,0.4-1.4,0.6c-0.4-0.5-0.8-1-1.2-1.5c-2.4-3.1-3.9-6.7-5.1-10.4c-1.7-5.4-2.6-11.2-1.5-16.8
		c0.8-3.8,2.5-7.6,5.4-10.1c1.7-1.4,3.6-2.5,5.7-3.1c3.9-1.2,8-1.2,11.8,0c2.1,0.6,4.1,1.7,5.7,3.1c2.9,2.5,4.6,6.3,5.4,10.1
		c1.1,5.6,0.2,11.3-1.5,16.8c-1.2,3.7-2.7,7.4-5.1,10.4c-0.4,0.5-0.8,1-1.2,1.5C116.7,147.1,116.2,146.9,115.8,146.6z"/>
	<path d="M102.8,146.3c0,2.9,2.3,5.2,5.2,5.2c2.9,0,5.2-2.3,5.2-5.2l0,0v-1l1.4,0.7v0.2c0,3.7-3,6.7-6.7,6.7s-6.7-3-6.7-6.7v-0.3
		l1.4-0.7L102.8,146.3z"/>
	<path d="M131.2,152.9c0-0.7-0.4-1.4-1.1-1.6l-1.4-0.6c-0.4-0.2-0.7-0.3-1.1-0.4l-5.5-1.4c-0.5-0.1-0.9-0.3-1.4-0.4l-2.6-0.9
		c-0.8-0.3-1.5-0.6-2.3-0.9l-1.1-0.5v0.2c0,3.7-3,6.7-6.7,6.7s-6.7-3-6.7-6.7l0,0c0-0.1,0-0.2,0-0.3l-1.2,0.6
		c-0.7,0.4-1.5,0.7-2.3,0.9l-2.6,0.9c-0.5,0.1-0.9,0.3-1.4,0.4l-5.5,1.4c-0.4,0.1-0.8,0.2-1.1,0.4l-1.4,0.6
		c-0.7,0.3-1.1,0.9-1.1,1.6v4.1c13.4,11.4,33.1,11.4,46.5,0.1L131.2,152.9z"/>
	<path class="st3" d="M113.2,145.4v-6.7c-1.3,1.1-2.7,2.1-4.2,2.9l-0.1,0.1c-0.3,0.1-0.5,0.2-0.8,0.2H108c-0.3,0-0.6-0.1-0.8-0.2
		l-0.1-0.1c-1.5-0.8-2.9-1.8-4.2-2.9v7.7c0,2.9,2.3,5.2,5.2,5.2c2.9,0,5.2-2.3,5.2-5.2l0,0L113.2,145.4
		C113.3,145.4,113.2,145.4,113.2,145.4z"/>
</g>
<g id="mouth_1_">
	<line class="st4" x1="105.6" y1="134.4" x2="110.4" y2="134.4"/>
</g>
<text transform="matrix(1 0 0 1 87.1356 185.8577)" class="st5 st6">Malissa L.</text>
<text transform="matrix(1 0 0 1 95.4002 200.8593)" class="st7 st8">Adg: 53</text>
<text transform="matrix(1 0 0 1 60.3284 210.4593)" class="st7 st8">Education: bachelor&apos;s degree</text>
<text transform="matrix(1 0 0 1 60.7764 220.0593)" class="st7 st8">Hometown: Shanghai, China </text>
<text transform="matrix(1 0 0 1 249.5894 68.5526)" class="st7 st8">Combine all appointments in one application</text>
<text transform="matrix(1 0 0 1 249.5894 78.5141)" class="st7 st8">Get effective appointment reminders</text>
<text transform="matrix(1 0 0 1 249.5894 152.8531)" class="st7 st8">Malissa L. is an immigrant to the United State.</text>
<text transform="matrix(1 0 0 1 249.5894 162.4531)" class="st7 st8">She move here 10 years ago.</text>
<text transform="matrix(1 0 0 1 249.5894 172.0531)" class="st7 st8">She works for only part of each day or week</text>
<text transform="matrix(1 0 0 1 249.5894 181.6531)" class="st7 st8">Malissa has problems when she&apos;s traveling sometimes.</text>
<text transform="matrix(1 0 0 1 249.5894 191.6968)" class="st7 st8">She just made a list of her tasks and estimated how much time they will take.</text>
<text transform="matrix(1 0 0 1 249.5894 200.5399)" class="st7 st8">What should she do next? How can she manage her time effectively?</text>
<text transform="matrix(1 0 0 1 249.7493 110.6622)" class="st7 st8">“My appointment schedule conflict between different calendars”</text>
<text transform="matrix(1 0 0 1 249.7493 120.2622)" class="st7 st8">“I have to check a lot of emails and calendars when I try to schedule a new meeting.” </text>
<text transform="matrix(1 0 0 1 241.9625 57.099)" class="st5 st6">Goals</text>
<text transform="matrix(1 0 0 1 249.5894 232.0018)" class="st7 st8">“I love to grow plants and hang out with friends while I am not busy. </text>
<text transform="matrix(1 0 0 1 249.5894 241.6018)" class="st7 st8">My working schedule is not fixed, wish I have a app shows me the upcoming events. &quot;</text>
<text transform="matrix(1 0 0 1 241.9625 218.7082)" class="st5 st6">Attitude &amp; personality</text>
<text transform="matrix(1 0 0 1 241.9625 141.0619)" class="st5 st6">Story</text>
<text transform="matrix(1 0 0 1 241.7228 99.3227)" class="st5 st6">Frustrations</text>
<circle class="st0" cx="244.1" cy="65.4" r="1.1"/>
<circle class="st0" cx="244.1" cy="76.2" r="1.1"/>
<circle class="st0" cx="244.1" cy="107.8" r="1.1"/>
<circle class="st0" cx="244.1" cy="118.6" r="1.1"/>
</svg>
