<svg width="365" height="75" viewBox="0 0 365 75" fill="none" xmlns="http://www.w3.org/2000/svg">
<path d="M18.992 39.36C18.88 39.36 18.656 39.36 18.32 39.36C18.0213 39.3227 17.816 39.304 17.704 39.304C17.5547 39.304 17.312 39.3227 16.976 39.36C16.6773 39.36 16.5093 39.36 16.472 39.36C16.3973 39.36 16.1733 39.3973 15.8 39.472C15.464 39.5093 15.0533 39.5653 14.568 39.64C14.12 39.7147 13.672 39.7893 13.224 39.864C12.776 39.9387 12.44 39.9947 12.216 40.032C12.1413 40.0693 11.936 40.1253 11.6 40.2C11.264 40.2747 11.0027 40.3493 10.816 40.424C10.6293 40.4613 10.4053 40.5173 10.144 40.592C9.88267 40.6667 9.62133 40.7413 9.36 40.816C9.09867 40.8907 8.856 40.9653 8.632 41.04C8.44533 41.0773 8.352 41.096 8.352 41.096C8.27733 41.1333 8.14667 41.2453 7.96 41.432C7.81067 41.6187 7.69867 41.7493 7.624 41.824C7.58667 41.8987 7.512 42.0293 7.4 42.216C7.32533 42.3653 7.288 42.4773 7.288 42.552C7.288 42.7013 7.288 42.9627 7.288 43.336C7.32533 43.672 7.344 44.064 7.344 44.512C7.344 44.9227 7.32533 45.3147 7.288 45.688C7.288 46.024 7.288 46.2667 7.288 46.416C7.288 46.528 7.232 46.7707 7.12 47.144C7.04533 47.5173 6.98933 47.76 6.952 47.872C6.91467 47.9467 6.80267 48.1147 6.616 48.376C6.42933 48.6373 6.29867 48.8053 6.224 48.88C6.112 49.0667 5.90667 49.2907 5.608 49.552C5.34667 49.8133 5.19733 49.944 5.16 49.944C5.12267 49.9813 5.01067 50 4.824 50C4.67467 50 4.56267 50 4.488 50C4.41333 50 4.264 50 4.04 50C3.85333 50 3.76 49.9813 3.76 49.944C3.72267 49.944 3.55467 49.8507 3.256 49.664C2.99467 49.4773 2.808 49.3467 2.696 49.272C2.62133 49.2347 2.54667 49.1787 2.472 49.104C2.39733 48.992 2.34133 48.9173 2.304 48.88C2.22933 48.7307 2.09867 48.488 1.912 48.152C1.72533 47.7787 1.632 47.5547 1.632 47.48C1.59467 47.4427 1.576 47.2 1.576 46.752C1.576 46.304 1.576 45.9493 1.576 45.688C1.576 45.4267 1.576 45.0347 1.576 44.512C1.576 43.952 1.59467 43.6533 1.632 43.616C1.632 43.5413 1.688 43.2987 1.8 42.888C1.912 42.4773 1.968 42.2347 1.968 42.16V41.768V41.488C1.93067 41.4507 1.856 41.32 1.744 41.096C1.632 40.872 1.52 40.648 1.408 40.424C1.296 40.2 1.184 39.9947 1.072 39.808C0.96 39.584 0.904 39.4347 0.904 39.36C0.904 39.3227 0.885333 39.2107 0.848 39.024C0.848 38.8 0.848 38.632 0.848 38.52C0.848 38.408 0.848 38.24 0.848 38.016C0.885333 37.7547 0.904 37.6053 0.904 37.568C0.904 37.4933 0.941333 37.3813 1.016 37.232C1.128 37.0453 1.20267 36.9147 1.24 36.84C1.27733 36.8027 1.37067 36.728 1.52 36.616C1.66933 36.4667 1.81867 36.3173 1.968 36.168C2.11733 36.0187 2.26667 35.8693 2.416 35.72C2.56533 35.5707 2.65867 35.4773 2.696 35.44C2.73333 35.4027 2.78933 35.2907 2.864 35.104C2.93867 34.9173 2.99467 34.7867 3.032 34.712C3.06933 34.6373 3.12533 34.376 3.2 33.928C3.27467 33.48 3.33067 33.1627 3.368 32.976C3.368 32.9013 3.38667 32.7333 3.424 32.472C3.46133 32.2107 3.49867 31.912 3.536 31.576C3.57333 31.24 3.61067 30.904 3.648 30.568C3.68533 30.232 3.72267 29.9707 3.76 29.784C3.76 29.5227 3.77867 29.1867 3.816 28.776C3.85333 28.3653 3.89067 27.9547 3.928 27.544C3.96533 27.1333 4.00267 26.7787 4.04 26.48C4.07733 26.144 4.096 25.9387 4.096 25.864V23.344V21.272C4.096 21.2347 4.05867 21.104 3.984 20.88C3.90933 20.656 3.83467 20.432 3.76 20.208C3.68533 19.984 3.592 19.7787 3.48 19.592C3.40533 19.368 3.368 19.2187 3.368 19.144V18.808V18.472C3.40533 18.3973 3.46133 18.2853 3.536 18.136C3.61067 17.9493 3.68533 17.8187 3.76 17.744C3.79733 17.6693 3.89067 17.5013 4.04 17.24C4.22667 16.9413 4.35733 16.7547 4.432 16.68C4.46933 16.6053 4.52533 16.5307 4.6 16.456C4.712 16.3813 4.78667 16.344 4.824 16.344C4.89867 16.2693 5.06667 16.1947 5.328 16.12C5.62667 16.0453 5.81333 15.9893 5.888 15.952H6.56H7.288C7.32533 15.9893 7.41867 16.0453 7.568 16.12C7.75467 16.1947 7.88533 16.2693 7.96 16.344C8.072 16.4187 8.22133 16.5493 8.408 16.736C8.59467 16.8853 8.688 16.9787 8.688 17.016C8.76267 17.1653 8.83733 17.5573 8.912 18.192C8.98667 18.8267 9.024 19.2747 9.024 19.536C9.024 19.5733 9.024 19.7227 9.024 19.984C9.06133 20.208 9.08 20.488 9.08 20.824C9.08 21.16 9.08 21.496 9.08 21.832C9.08 22.168 9.08 22.448 9.08 22.672C9.08 22.8587 9.08 23.1013 9.08 23.4C9.08 23.6987 9.08 24.016 9.08 24.352C9.08 24.6507 9.06133 24.912 9.024 25.136C9.024 25.36 9.024 25.4907 9.024 25.528C9.024 25.6773 8.98667 26.032 8.912 26.592C8.87467 27.1147 8.8 27.712 8.688 28.384C8.61333 29.0187 8.53867 29.616 8.464 30.176C8.38933 30.6987 8.352 31.0347 8.352 31.184C8.352 31.2587 8.33333 31.4827 8.296 31.856C8.296 32.192 8.296 32.4533 8.296 32.64C8.296 32.7147 8.296 32.9387 8.296 33.312C8.33333 33.6853 8.352 33.928 8.352 34.04C8.352 34.0773 8.38933 34.152 8.464 34.264C8.576 34.3387 8.65067 34.376 8.688 34.376C8.72533 34.376 8.81867 34.3947 8.968 34.432C9.15467 34.432 9.28533 34.432 9.36 34.432C9.472 34.432 9.62133 34.432 9.808 34.432C9.99467 34.3947 10.088 34.376 10.088 34.376C10.1627 34.376 10.3307 34.32 10.592 34.208C10.8907 34.096 11.0773 34.04 11.152 34.04C11.2267 34.04 11.4133 34.04 11.712 34.04C12.048 34.04 12.4027 34.04 12.776 34.04C13.1493 34.04 13.4853 34.04 13.784 34.04C14.0827 34.04 14.2693 34.04 14.344 34.04C14.4187 34.04 14.6613 33.984 15.072 33.872C15.4827 33.76 15.7253 33.704 15.8 33.704C15.8747 33.704 16.0427 33.704 16.304 33.704C16.6027 33.704 16.9013 33.704 17.2 33.704C17.4987 33.704 17.7787 33.704 18.04 33.704C18.3387 33.704 18.5253 33.704 18.6 33.704C18.6747 33.6667 18.8427 33.6107 19.104 33.536C19.4027 33.4613 19.5893 33.3867 19.664 33.312C19.7387 33.2747 19.8507 33.1813 20 33.032C20.1867 32.8453 20.3173 32.7147 20.392 32.64C20.4293 32.5653 20.4853 32.4533 20.56 32.304C20.672 32.1173 20.728 31.9867 20.728 31.912C20.7653 31.8373 20.8027 31.6693 20.84 31.408C20.9147 31.1093 20.9893 30.792 21.064 30.456C21.1387 30.12 21.2133 29.8027 21.288 29.504C21.3627 29.168 21.4187 28.9067 21.456 28.72V28.384C21.456 28.272 21.4933 27.992 21.568 27.544C21.6427 27.0587 21.7173 26.5733 21.792 26.088C21.904 25.5653 21.9787 25.08 22.016 24.632C22.0907 24.1467 22.128 23.848 22.128 23.736C22.128 23.5867 22.128 23.232 22.128 22.672C22.128 22.0747 22.128 21.44 22.128 20.768C22.128 20.096 22.128 19.4613 22.128 18.864C22.128 18.2667 22.128 17.8933 22.128 17.744C22.128 17.7067 22.1467 17.6133 22.184 17.464C22.2213 17.2773 22.2587 17.0907 22.296 16.904C22.3333 16.7173 22.3707 16.5307 22.408 16.344C22.4453 16.1573 22.4827 16.0267 22.52 15.952C22.52 15.9147 22.5573 15.8213 22.632 15.672C22.744 15.4853 22.8187 15.3547 22.856 15.28C22.8933 15.2427 22.9493 15.1867 23.024 15.112C23.0987 15 23.1547 14.9253 23.192 14.888C23.3787 14.776 23.64 14.5893 23.976 14.328C24.3493 14.0293 24.5733 13.8613 24.648 13.824H24.816H24.984C25.1707 13.8987 25.432 13.9733 25.768 14.048C26.1413 14.1227 26.3467 14.1787 26.384 14.216C26.4587 14.2533 26.6267 14.4027 26.888 14.664C27.1867 14.9253 27.3733 15.1307 27.448 15.28C27.5227 15.3547 27.5973 15.4853 27.672 15.672C27.7467 15.8213 27.8027 15.9147 27.84 15.952V17.184V18.472C27.84 18.5093 27.8213 18.6213 27.784 18.808C27.7467 18.9573 27.6907 19.144 27.616 19.368C27.5787 19.5547 27.5413 19.7413 27.504 19.928C27.4667 20.0773 27.448 20.1707 27.448 20.208C27.448 20.2827 27.4293 20.4507 27.392 20.712C27.3547 20.936 27.3173 21.1973 27.28 21.496C27.2427 21.7573 27.2053 22.0187 27.168 22.28C27.1307 22.504 27.112 22.6347 27.112 22.672C27.112 22.7467 27.0933 22.896 27.056 23.12C27.0187 23.3067 26.9813 23.5307 26.944 23.792C26.9067 24.016 26.8693 24.24 26.832 24.464C26.7947 24.6507 26.776 24.7627 26.776 24.8C26.776 24.8747 26.7573 25.0613 26.72 25.36C26.6827 25.6213 26.6267 25.92 26.552 26.256C26.5147 26.5547 26.4773 26.8533 26.44 27.152C26.4027 27.4133 26.384 27.5813 26.384 27.656C26.384 27.8053 26.3653 28.0107 26.328 28.272C26.2907 28.5333 26.2533 28.7947 26.216 29.056C26.1787 29.3173 26.1413 29.56 26.104 29.784C26.0667 29.9707 26.048 30.0827 26.048 30.12C26.048 30.1947 25.992 30.3813 25.88 30.68C25.768 30.9413 25.712 31.1093 25.712 31.184C25.6373 31.3333 25.5627 31.5947 25.488 31.968C25.4133 32.3413 25.3573 32.5653 25.32 32.64C25.2827 32.9013 25.2267 33.256 25.152 33.704C25.0773 34.152 25.0027 34.6 24.928 35.048C24.8533 35.496 24.7787 35.9067 24.704 36.28C24.6667 36.616 24.648 36.8027 24.648 36.84C24.6107 37.176 24.5733 37.7733 24.536 38.632C24.4987 39.4533 24.4613 40.3493 24.424 41.32C24.3867 42.2533 24.3493 43.1493 24.312 44.008C24.2747 44.8293 24.256 45.408 24.256 45.744C24.256 45.8187 24.2747 46.0427 24.312 46.416C24.3493 46.7893 24.3867 47.2 24.424 47.648C24.4613 48.096 24.4987 48.5067 24.536 48.88C24.6107 49.2533 24.648 49.496 24.648 49.608V51.568V53.528C24.6107 53.6027 24.5547 53.7147 24.48 53.864C24.4053 54.0507 24.3307 54.1627 24.256 54.2C24.2187 54.2747 24.1627 54.3493 24.088 54.424C24.0133 54.4987 23.9573 54.5547 23.92 54.592C23.8453 54.6293 23.6773 54.6853 23.416 54.76C23.1547 54.8347 22.968 54.8907 22.856 54.928H22.688H22.52C22.4453 54.8533 22.3147 54.7227 22.128 54.536C21.9787 54.3867 21.8667 54.2747 21.792 54.2C21.7547 54.1253 21.6427 53.9013 21.456 53.528C21.3067 53.192 21.1947 52.9493 21.12 52.8C21.0827 52.7253 21.008 52.5387 20.896 52.24C20.8213 51.9787 20.7653 51.8107 20.728 51.736C20.728 51.6987 20.6907 51.5867 20.616 51.4C20.5413 51.2507 20.448 51.064 20.336 50.84C20.2613 50.6533 20.1867 50.4667 20.112 50.28C20.0747 50.1307 20.056 50.0187 20.056 49.944C20.056 49.9067 20.0373 49.7947 20 49.608C19.9627 49.384 19.9067 49.1413 19.832 48.88C19.7947 48.6187 19.7573 48.3573 19.72 48.096C19.6827 47.8347 19.664 47.6293 19.664 47.48C19.664 47.2933 19.6453 46.9947 19.608 46.584C19.5707 46.1733 19.5333 45.744 19.496 45.296C19.4587 44.848 19.4213 44.4373 19.384 44.064C19.3467 43.6533 19.328 43.3733 19.328 43.224V41.096C19.2907 40.9467 19.2347 40.648 19.16 40.2C19.0853 39.752 19.0293 39.472 18.992 39.36ZM31.4678 36.504C31.4304 36.4667 31.3558 36.3547 31.2438 36.168C31.1691 35.9813 31.1318 35.8507 31.1318 35.776C31.1318 35.776 31.1131 35.6453 31.0758 35.384C31.0758 35.0853 31.0758 34.88 31.0758 34.768C31.0758 34.6187 31.0758 34.4133 31.0758 34.152C31.1131 33.8533 31.1318 33.704 31.1318 33.704C31.1318 33.6293 31.1691 33.4987 31.2438 33.312C31.3558 33.1253 31.4304 33.0133 31.4678 32.976C31.5424 32.9387 31.8411 32.752 32.3638 32.416C32.8864 32.0427 33.2971 31.7627 33.5958 31.576C33.7824 31.464 34.0998 31.2773 34.5478 31.016C34.9958 30.7547 35.2758 30.5867 35.3878 30.512C35.4624 30.4373 35.6864 30.3067 36.0598 30.12C36.4704 29.9333 36.7131 29.8213 36.7878 29.784C36.8624 29.7467 37.0304 29.6347 37.2918 29.448C37.5531 29.2613 37.7398 29.1307 37.8518 29.056C37.9638 28.9813 38.2064 28.8133 38.5798 28.552C38.9531 28.2533 39.1958 28.0667 39.3078 27.992H43.3398H47.4278C47.5024 27.992 47.6331 28.0107 47.8198 28.048C48.0064 28.0853 48.2118 28.1227 48.4358 28.16C48.6598 28.1973 48.8651 28.2347 49.0518 28.272C49.2758 28.3093 49.4438 28.3467 49.5558 28.384C49.5931 28.384 49.6864 28.4213 49.8358 28.496C50.0224 28.5707 50.1718 28.6453 50.2838 28.72C50.6198 28.9067 51.0491 29.1493 51.5718 29.448C52.0944 29.7093 52.5984 29.9707 53.0838 30.232C53.5691 30.4933 53.9798 30.7173 54.3158 30.904C54.6891 31.0907 54.8758 31.184 54.8758 31.184C54.9878 31.2587 55.1744 31.4453 55.4358 31.744C55.7344 32.0053 56.0518 32.304 56.3878 32.64C56.7238 32.976 57.0411 33.312 57.3398 33.648C57.6758 33.984 57.9184 34.2267 58.0678 34.376C58.1424 34.488 58.3104 34.768 58.5718 35.216C58.8704 35.664 59.0571 35.9813 59.1318 36.168C59.1691 36.28 59.2251 36.448 59.2998 36.672C59.3744 36.8587 59.4491 37.064 59.5238 37.288C59.5984 37.512 59.6731 37.7173 59.7478 37.904C59.8224 38.0907 59.8598 38.2213 59.8598 38.296V39.64V41.096C59.8598 41.1707 59.8038 41.3013 59.6918 41.488C59.6171 41.6373 59.5424 41.7493 59.4678 41.824C59.3931 41.9733 59.2624 42.1787 59.0758 42.44C58.8891 42.7013 58.7024 42.9627 58.5158 43.224C58.3291 43.4853 58.1611 43.728 58.0118 43.952C57.8624 44.1387 57.7691 44.2507 57.7318 44.288C57.6571 44.4 57.5078 44.568 57.2838 44.792C57.0971 44.9787 56.8918 45.184 56.6678 45.408C56.4438 45.632 56.2198 45.8373 55.9958 46.024C55.8091 46.2107 55.6784 46.3413 55.6038 46.416C55.4544 46.5653 55.0998 46.8267 54.5398 47.2C54.0171 47.536 53.6624 47.76 53.4758 47.872C53.3638 47.9093 53.1584 48.0027 52.8598 48.152C52.5984 48.264 52.2998 48.3947 51.9638 48.544C51.6278 48.6933 51.2918 48.8427 50.9558 48.992C50.6571 49.1413 50.4331 49.2347 50.2838 49.272C50.2091 49.3093 49.9664 49.384 49.5558 49.496C49.1451 49.5707 48.9024 49.608 48.8278 49.608C48.7904 49.6453 48.6224 49.72 48.3238 49.832C48.0251 49.9067 47.8384 49.9627 47.7638 50C47.5771 50.0373 47.2598 50.0933 46.8118 50.168C46.3638 50.28 46.1024 50.336 46.0278 50.336C45.9904 50.336 45.8598 50.336 45.6358 50.336C45.4491 50.336 45.2064 50.336 44.9078 50.336C44.6464 50.3733 44.3664 50.392 44.0678 50.392C43.7691 50.392 43.5264 50.392 43.3398 50.392C43.1531 50.392 42.9104 50.392 42.6118 50.392C42.3504 50.392 42.0704 50.3733 41.7718 50.336C41.5104 50.336 41.2678 50.336 41.0438 50.336C40.8571 50.336 40.7451 50.336 40.7078 50.336C40.5958 50.336 40.3158 50.28 39.8678 50.168C39.4198 50.0933 39.1024 50.0373 38.9158 50C38.8784 49.9627 38.7664 49.9067 38.5798 49.832C38.3931 49.72 38.2811 49.6453 38.2438 49.608C38.2064 49.608 38.0944 49.5893 37.9078 49.552C37.7211 49.5147 37.5344 49.4773 37.3478 49.44C37.1611 49.4027 36.9744 49.3653 36.7878 49.328C36.6011 49.2907 36.4891 49.272 36.4518 49.272C36.4144 49.272 36.3024 49.216 36.1158 49.104C35.9291 48.9547 35.7238 48.8053 35.4998 48.656C35.2758 48.5067 35.0518 48.3573 34.8278 48.208C34.6038 48.0587 34.4358 47.9467 34.3238 47.872L33.5958 47.144C33.5584 47.1067 33.4838 47.0133 33.3718 46.864C33.2598 46.6773 33.1478 46.4907 33.0358 46.304C32.9238 46.08 32.8118 45.8933 32.6998 45.744C32.6251 45.5573 32.5691 45.4267 32.5318 45.352C32.4944 45.3147 32.3824 45.072 32.1958 44.624C32.0464 44.1387 31.9344 43.8027 31.8598 43.616C31.7851 43.4667 31.6918 43.2613 31.5798 43C31.5051 42.7013 31.4678 42.552 31.4678 42.552V36.504ZM36.7878 40.984V42.552C36.7878 42.6267 36.8251 42.7387 36.8998 42.888C37.0118 43.0373 37.1051 43.1493 37.1798 43.224C37.2171 43.2987 37.3104 43.4293 37.4598 43.616C37.6464 43.8027 37.8331 43.9893 38.0198 44.176C38.2064 44.3627 38.3744 44.5493 38.5238 44.736C38.7104 44.8853 38.8411 44.9787 38.9158 45.016C38.9531 45.0533 39.0651 45.1093 39.2518 45.184C39.4384 45.2587 39.5691 45.3147 39.6438 45.352C39.7558 45.4267 39.9424 45.5013 40.2038 45.576C40.4651 45.6507 40.6331 45.7067 40.7078 45.744C40.7824 45.744 40.9318 45.7627 41.1558 45.8C41.4171 45.8373 41.6971 45.8747 41.9958 45.912C42.2944 45.9493 42.5931 45.9867 42.8918 46.024C43.1904 46.0613 43.4144 46.08 43.5638 46.08H43.8998H44.2357C44.4598 46.0427 44.7771 45.9867 45.1878 45.912C45.6358 45.8373 46.0651 45.7627 46.4758 45.688C46.8864 45.6133 47.2411 45.5573 47.5398 45.52C47.8758 45.4453 48.0811 45.3893 48.1558 45.352C48.2304 45.352 48.3798 45.296 48.6038 45.184C48.8651 45.0347 49.1451 44.8853 49.4438 44.736C49.7424 44.5867 50.0224 44.4373 50.2838 44.288C50.5824 44.1387 50.8064 44.0267 50.9558 43.952C51.0304 43.8773 51.2731 43.7093 51.6838 43.448C52.0944 43.1493 52.3371 42.9627 52.4118 42.888C52.8224 42.5893 53.2331 42.2907 53.6438 41.992C54.0544 41.6933 54.3531 41.2827 54.5398 40.76C54.5771 40.648 54.6331 40.4053 54.7078 40.032C54.8198 39.6587 54.8758 39.4347 54.8758 39.36V38.632V37.904C54.8758 37.8293 54.8198 37.7173 54.7078 37.568C54.6331 37.4187 54.5771 37.3067 54.5398 37.232C54.4278 37.12 54.2598 36.952 54.0358 36.728C53.8118 36.4667 53.5878 36.224 53.3638 36C53.1398 35.776 52.9344 35.5893 52.7478 35.44C52.5611 35.2533 52.4491 35.1413 52.4118 35.104C52.3744 35.0667 52.2064 34.9733 51.9078 34.824C51.6091 34.6747 51.2731 34.5067 50.8998 34.32C50.5264 34.1333 50.1344 33.9467 49.7238 33.76C49.3504 33.5733 49.0518 33.424 48.8278 33.312C48.7158 33.2747 48.5664 33.2187 48.3798 33.144C48.2304 33.0693 48.0624 32.9947 47.8758 32.92C47.6891 32.8453 47.5211 32.7893 47.3718 32.752C47.2224 32.6773 47.1291 32.64 47.0918 32.64C47.0544 32.6027 46.8678 32.584 46.5318 32.584C46.1958 32.584 45.9344 32.584 45.7478 32.584C45.5611 32.584 45.2811 32.584 44.9078 32.584C44.5344 32.584 44.3104 32.6027 44.2357 32.64C44.1238 32.64 43.8811 32.6773 43.5078 32.752C43.1718 32.8267 42.9478 32.9013 42.8358 32.976C42.7611 33.0133 42.5744 33.1253 42.2758 33.312C42.0144 33.4987 41.8464 33.6293 41.7718 33.704C41.6971 33.7413 41.5104 33.9093 41.2118 34.208C40.9504 34.5067 40.7824 34.6933 40.7078 34.768C40.6331 34.8053 40.4464 34.9173 40.1478 35.104C39.8864 35.2907 39.7184 35.4027 39.6438 35.44C39.5318 35.5147 39.3638 35.664 39.1398 35.888C38.9531 36.0747 38.7478 36.28 38.5238 36.504C38.2998 36.728 38.0944 36.952 37.9078 37.176C37.7211 37.3627 37.5904 37.4933 37.5158 37.568C37.4784 37.6053 37.4224 37.7173 37.3478 37.904C37.2731 38.0907 37.2171 38.2213 37.1798 38.296C37.1051 38.408 37.0118 38.6133 36.8998 38.912C36.8251 39.1733 36.7878 39.3227 36.7878 39.36V40.984ZM62.1396 33.704V33.536C62.1396 33.312 62.1582 33.032 62.1956 32.696C62.2329 32.36 62.2702 32.024 62.3076 31.688C62.3449 31.352 62.3822 31.0533 62.4196 30.792C62.4569 30.5307 62.4756 30.3813 62.4756 30.344C62.5129 30.2693 62.5689 30.1573 62.6436 30.008C62.7182 29.8213 62.7929 29.7093 62.8676 29.672C62.9422 29.5973 63.1102 29.4853 63.3716 29.336C63.6329 29.1493 63.8196 29.0187 63.9316 28.944C63.9689 28.9067 64.1369 28.8507 64.4356 28.776C64.7342 28.664 64.9209 28.608 64.9956 28.608C65.0329 28.5707 65.1449 28.5147 65.3316 28.44C65.5182 28.328 65.6302 28.2533 65.6676 28.216H66.2276H66.7316C66.8062 28.2533 66.9182 28.3093 67.0676 28.384C67.2542 28.4587 67.3849 28.5333 67.4596 28.608C67.5716 28.6827 67.8142 28.9067 68.1876 29.28C68.5609 29.6533 68.7849 29.896 68.8596 30.008C68.8596 30.12 68.8782 30.344 68.9156 30.68C68.9529 31.016 68.9902 31.3893 69.0276 31.8C69.0649 32.1733 69.1022 32.528 69.1396 32.864C69.1769 33.2 69.1956 33.424 69.1956 33.536C69.2329 33.536 69.2516 33.6107 69.2516 33.76C69.2516 33.76 69.2516 33.7787 69.2516 33.816C69.2516 33.8533 69.2329 33.872 69.1956 33.872C69.1956 33.9467 69.1396 34.1333 69.0276 34.432C68.9529 34.6933 68.8969 34.8613 68.8596 34.936C68.8222 35.0107 68.6916 35.2533 68.4676 35.664C68.2809 36.0747 68.1876 36.3173 68.1876 36.392C68.1129 36.5413 68.0382 36.784 67.9636 37.12C67.8889 37.456 67.8142 37.8107 67.7396 38.184C67.6649 38.5573 67.5902 38.912 67.5156 39.248C67.4782 39.584 67.4596 39.808 67.4596 39.92C67.4596 39.9947 67.4409 40.2933 67.4036 40.816C67.4036 41.3387 67.4036 41.7493 67.4036 42.048C67.4036 42.2347 67.4036 42.5893 67.4036 43.112C67.4409 43.6347 67.4596 43.9893 67.4596 44.176C67.4596 44.2133 67.4969 44.288 67.5716 44.4C67.6836 44.4747 67.7582 44.512 67.7956 44.512L67.9636 44.568C68.0009 44.568 68.0382 44.568 68.0756 44.568C68.1129 44.5307 68.1502 44.512 68.1876 44.512C68.2622 44.4373 68.4302 44.2693 68.6916 44.008C68.9529 43.7467 69.1209 43.56 69.1956 43.448C69.3076 43.336 69.4756 43.1307 69.6996 42.832C69.9236 42.5333 70.1662 42.216 70.4276 41.88C70.7262 41.544 70.9876 41.2267 71.2116 40.928C71.4356 40.592 71.6036 40.368 71.7156 40.256C71.7529 40.2187 71.8089 40.1253 71.8836 39.976C71.9582 39.7893 72.0142 39.6587 72.0516 39.584C72.0889 39.5093 72.1449 39.2667 72.2196 38.856C72.3316 38.4453 72.3876 38.2027 72.3876 38.128C72.4249 38.0533 72.4809 37.9413 72.5556 37.792C72.6302 37.6427 72.7049 37.5307 72.7796 37.456C72.8916 37.2693 73.0409 37.12 73.2276 37.008C73.4516 36.896 73.6569 36.8027 73.8436 36.728C73.9182 36.6907 74.0862 36.6347 74.3476 36.56C74.6089 36.4853 74.7956 36.4293 74.9076 36.392C75.0569 36.3173 75.2996 36.2427 75.6356 36.168C76.0089 36.0933 76.2329 36.0373 76.3076 36H76.6996H77.0356C77.1102 36.0373 77.2222 36.0933 77.3716 36.168C77.5582 36.2427 77.6702 36.3173 77.7076 36.392C77.7822 36.4667 77.9502 36.672 78.2116 37.008C78.4729 37.344 78.6596 37.6053 78.7716 37.792C78.8462 37.8667 78.9209 37.9973 78.9956 38.184C79.0702 38.3333 79.1262 38.4453 79.1636 38.52C79.2009 38.632 79.2382 38.856 79.2756 39.192C79.3502 39.528 79.4249 39.8827 79.4996 40.256C79.5742 40.6293 79.6489 40.984 79.7236 41.32C79.7982 41.656 79.8356 41.8987 79.8356 42.048C79.8729 42.1227 79.9849 42.2533 80.1716 42.44C80.3582 42.5893 80.4889 42.7013 80.5636 42.776H81.0676H81.6276C81.6649 42.7387 81.8142 42.6267 82.0756 42.44C82.3369 42.2533 82.5422 42.1227 82.6916 42.048L83.0276 41.712C83.1022 41.6 83.2329 41.4507 83.4196 41.264C83.6062 41.04 83.7929 40.816 83.9796 40.592C84.1662 40.368 84.3342 40.1627 84.4836 39.976C84.6329 39.7893 84.7449 39.6587 84.8196 39.584C84.8942 39.5093 85.0622 39.2667 85.3236 38.856C85.6222 38.4453 85.8089 38.2027 85.8836 38.128C85.9209 38.0533 86.0516 37.8853 86.2756 37.624C86.5369 37.3253 86.7982 37.0267 87.0596 36.728C87.3582 36.4293 87.6196 36.1493 87.8436 35.888C88.1049 35.5893 88.2729 35.4027 88.3476 35.328C88.3476 35.2907 88.4222 35.1787 88.5716 34.992C88.7209 34.768 88.8889 34.5253 89.0756 34.264C89.2996 34.0027 89.5049 33.7413 89.6916 33.48C89.8782 33.2187 90.0276 32.9947 90.1396 32.808C90.1769 32.7707 90.2889 32.6027 90.4756 32.304C90.6622 32.0053 90.7742 31.8373 90.8116 31.8C90.9236 31.6133 91.0729 31.3893 91.2596 31.128C91.4836 30.8293 91.6889 30.5493 91.8756 30.288C92.0622 30.0267 92.2302 29.8027 92.3796 29.616C92.5289 29.392 92.6036 29.28 92.6036 29.28C92.6782 29.168 92.8462 28.9813 93.1076 28.72C93.3689 28.4587 93.6489 28.1787 93.9476 27.88C94.2462 27.5813 94.5262 27.3013 94.7876 27.04C95.0862 26.7787 95.2916 26.592 95.4036 26.48C95.4782 26.4053 95.5902 26.3307 95.7396 26.256C95.9262 26.1813 96.0569 26.1253 96.1316 26.088H97.2516H98.2596C98.3342 26.1253 98.4649 26.2373 98.6516 26.424C98.8382 26.6107 98.9502 26.7413 98.9876 26.816V27.6V28.608C98.9876 28.6453 98.9316 28.7947 98.8196 29.056C98.7449 29.3173 98.6702 29.5227 98.5956 29.672C98.5582 29.7467 98.5022 29.8773 98.4276 30.064C98.3529 30.2133 98.2969 30.3067 98.2596 30.344C98.1849 30.4187 98.0356 30.5867 97.8116 30.848C97.6249 31.072 97.4196 31.3333 97.1956 31.632C96.9716 31.8933 96.7476 32.1547 96.5236 32.416C96.2996 32.64 96.1689 32.7707 96.1316 32.808C96.0569 32.8827 95.9076 33.0693 95.6836 33.368C95.4969 33.6293 95.2916 33.928 95.0676 34.264C94.8436 34.5627 94.6196 34.8613 94.3956 35.16C94.1716 35.4213 94.0409 35.5893 94.0036 35.664C93.8916 35.776 93.6489 36.056 93.2756 36.504C92.9022 36.952 92.4916 37.4373 92.0436 37.96C91.5956 38.4827 91.1849 38.968 90.8116 39.416C90.4382 39.864 90.2142 40.144 90.1396 40.256C90.0649 40.3307 89.9342 40.5173 89.7476 40.816C89.5609 41.0773 89.4489 41.2453 89.4116 41.32C89.3742 41.3573 89.2996 41.4507 89.1876 41.6C89.0756 41.7493 88.9449 41.936 88.7956 42.16C88.6462 42.3467 88.4969 42.5333 88.3476 42.72C88.1982 42.8693 88.0862 43 88.0116 43.112C87.8996 43.2613 87.7502 43.448 87.5636 43.672C87.3769 43.896 87.1716 44.12 86.9476 44.344C86.7609 44.568 86.5929 44.7733 86.4436 44.96C86.2942 45.1093 86.2196 45.2027 86.2196 45.24C86.0329 45.4267 85.7716 45.688 85.4356 46.024C85.0996 46.36 84.7636 46.696 84.4276 47.032C84.0916 47.368 83.7929 47.6853 83.5316 47.984C83.2702 48.2453 83.1022 48.3947 83.0276 48.432C82.9529 48.4693 82.8222 48.544 82.6356 48.656C82.4489 48.768 82.2436 48.88 82.0196 48.992C81.7956 49.104 81.5716 49.216 81.3476 49.328C81.1609 49.4027 81.0116 49.4587 80.8996 49.496C80.7876 49.5333 80.6196 49.5707 80.3956 49.608C80.2089 49.6453 80.0036 49.6827 79.7796 49.72C79.5556 49.7573 79.3502 49.7947 79.1636 49.832C78.9769 49.832 78.8462 49.832 78.7716 49.832C78.6969 49.832 78.4729 49.7387 78.0996 49.552C77.7636 49.3653 77.5209 49.216 77.3716 49.104C77.2596 49.0293 77.0169 48.824 76.6436 48.488C76.2702 48.1147 76.0462 47.8533 75.9716 47.704C75.9342 47.6667 75.8596 47.5733 75.7476 47.424C75.6356 47.2373 75.5236 47.0507 75.4116 46.864C75.2996 46.64 75.1876 46.4533 75.0756 46.304C75.0009 46.1173 74.9449 45.9867 74.9076 45.912C74.8702 45.8747 74.7956 45.8187 74.6836 45.744C74.6089 45.6693 74.5529 45.6133 74.5156 45.576H74.3476H74.1796C74.0302 45.7253 73.7689 45.9867 73.3956 46.36C73.0596 46.7333 72.6862 47.144 72.2756 47.592C71.8649 48.0027 71.4542 48.3947 71.0436 48.768C70.6702 49.104 70.4089 49.3467 70.2596 49.496C70.1849 49.5707 70.0356 49.6827 69.8116 49.832C69.6249 49.9813 69.4196 50.1307 69.1956 50.28C68.9716 50.4293 68.7476 50.56 68.5236 50.672C68.3369 50.8213 68.2249 50.896 68.1876 50.896C68.1502 50.896 68.0009 50.896 67.7396 50.896C67.5156 50.9333 67.3289 50.952 67.1796 50.952C67.0302 50.952 66.8062 50.9333 66.5076 50.896C66.2462 50.896 66.0969 50.896 66.0596 50.896C65.9849 50.896 65.8542 50.84 65.6676 50.728C65.5182 50.6533 65.4062 50.5973 65.3316 50.56L64.2676 49.496C64.2302 49.4587 64.1556 49.3467 64.0436 49.16C63.9689 48.9733 63.8756 48.768 63.7636 48.544C63.6516 48.32 63.5396 48.096 63.4276 47.872C63.3156 47.648 63.2409 47.48 63.2036 47.368C63.1662 47.2933 63.0916 47.1253 62.9796 46.864C62.9049 46.5653 62.8676 46.3787 62.8676 46.304C62.8302 46.192 62.7929 46.024 62.7556 45.8C62.7182 45.576 62.6809 45.352 62.6436 45.128C62.6062 44.904 62.5689 44.6987 62.5316 44.512C62.4942 44.3253 62.4756 44.2133 62.4756 44.176C62.4756 43.952 62.4756 43.4293 62.4756 42.608C62.4756 41.7867 62.4756 40.8907 62.4756 39.92C62.4756 38.9493 62.4756 38.0533 62.4756 37.232C62.4756 36.4107 62.4756 35.888 62.4756 35.664C62.4756 35.6267 62.4569 35.5333 62.4196 35.384C62.3822 35.1973 62.3449 35.0107 62.3076 34.824C62.2702 34.6 62.2329 34.4133 62.1956 34.264C62.1582 34.0773 62.1396 33.9467 62.1396 33.872V33.704ZM134.065 47.816V43.224C134.065 43 134.046 42.664 134.009 42.216C133.971 41.7307 133.934 41.2267 133.897 40.704C133.859 40.144 133.822 39.64 133.785 39.192C133.747 38.744 133.729 38.4267 133.729 38.24C133.691 38.1653 133.635 37.9973 133.561 37.736C133.486 37.4747 133.411 37.288 133.337 37.176C133.299 37.1387 133.243 37.0827 133.169 37.008C133.094 36.896 133.038 36.84 133.001 36.84H132.497H131.937C131.713 36.8773 131.377 36.9333 130.929 37.008C130.518 37.0453 130.089 37.12 129.641 37.232C129.193 37.3067 128.782 37.3813 128.409 37.456C128.035 37.4933 127.793 37.5307 127.681 37.568C127.643 37.568 127.531 37.6053 127.345 37.68C127.158 37.7547 126.971 37.8293 126.785 37.904C126.598 37.9787 126.411 38.0533 126.225 38.128C126.038 38.2027 125.926 38.24 125.889 38.24C125.814 38.2773 125.571 38.352 125.161 38.464C124.787 38.5387 124.563 38.5947 124.489 38.632C124.451 38.632 124.339 38.688 124.153 38.8C123.966 38.912 123.835 38.968 123.761 38.968C123.761 38.968 123.686 38.9867 123.537 39.024C123.425 39.024 123.331 39.024 123.257 39.024C123.182 39.024 123.089 39.024 122.977 39.024C122.827 38.9867 122.734 38.968 122.697 38.968C122.622 38.968 122.51 38.9307 122.361 38.856C122.174 38.744 122.062 38.6693 122.025 38.632C121.913 38.52 121.763 38.3707 121.577 38.184C121.353 37.9973 121.147 37.8107 120.961 37.624C120.774 37.4373 120.606 37.2693 120.457 37.12C120.307 36.9707 120.233 36.8773 120.233 36.84C120.233 36.84 120.233 36.728 120.233 36.504C120.195 36.2427 120.177 36.056 120.177 35.944C120.177 35.7573 120.195 35.5147 120.233 35.216C120.233 34.9173 120.233 34.7493 120.233 34.712C120.233 34.6373 120.289 34.5253 120.401 34.376C120.475 34.1893 120.531 34.0587 120.569 33.984C120.643 33.9093 120.774 33.7973 120.961 33.648C121.11 33.4613 121.278 33.2747 121.465 33.088C121.651 32.9013 121.838 32.7333 122.025 32.584C122.174 32.4347 122.286 32.3227 122.361 32.248C122.51 32.248 122.79 32.2293 123.201 32.192C123.611 32.1547 124.041 32.1173 124.489 32.08C124.937 32.0427 125.366 32.0053 125.777 31.968C126.187 31.9307 126.467 31.912 126.617 31.912C126.691 31.912 126.841 31.8933 127.065 31.856C127.326 31.8187 127.587 31.7813 127.849 31.744C128.11 31.6693 128.353 31.6133 128.577 31.576C128.801 31.5387 128.969 31.52 129.081 31.52C129.342 31.4827 129.678 31.4267 130.089 31.352C130.499 31.2773 130.891 31.2027 131.265 31.128C131.638 31.0533 131.955 30.9973 132.217 30.96C132.515 30.8853 132.665 30.848 132.665 30.848L133.001 30.456V21.608C133.001 21.5707 133.038 21.5147 133.113 21.44C133.187 21.3653 133.262 21.3093 133.337 21.272C133.486 21.16 133.691 21.0107 133.953 20.824C134.214 20.6373 134.363 20.544 134.401 20.544C134.438 20.544 134.569 20.544 134.793 20.544C135.054 20.5067 135.241 20.488 135.353 20.488C135.465 20.488 135.614 20.5067 135.801 20.544C136.025 20.544 136.155 20.544 136.193 20.544C136.23 20.5813 136.379 20.7307 136.641 20.992C136.939 21.2533 137.145 21.4587 137.257 21.608C137.294 21.6453 137.35 21.7573 137.425 21.944C137.499 22.1307 137.555 22.2613 137.593 22.336C137.667 22.448 137.742 22.6347 137.817 22.896C137.891 23.1573 137.929 23.3253 137.929 23.4C137.966 23.5867 138.003 23.9413 138.041 24.464C138.078 24.9493 138.115 25.472 138.153 26.032C138.19 26.592 138.227 27.1333 138.265 27.656C138.302 28.1413 138.321 28.496 138.321 28.72C138.321 28.7573 138.358 28.8133 138.433 28.888C138.545 28.9627 138.619 29.0187 138.657 29.056C138.731 29.0933 138.899 29.168 139.161 29.28C139.459 29.3547 139.646 29.392 139.721 29.392H140.057H140.449C140.523 29.392 140.747 29.336 141.121 29.224C141.531 29.112 141.774 29.056 141.849 29.056C141.886 29.056 142.017 29.0373 142.241 29C142.502 28.9627 142.763 28.9253 143.025 28.888C143.323 28.8507 143.585 28.8133 143.809 28.776C144.07 28.7387 144.238 28.72 144.313 28.72C144.35 28.72 144.481 28.7013 144.705 28.664C144.929 28.5893 145.153 28.5333 145.377 28.496C145.638 28.4587 145.862 28.4213 146.049 28.384C146.273 28.3467 146.403 28.328 146.441 28.328H149.465H152.489C152.563 28.3653 152.731 28.4213 152.993 28.496C153.291 28.5707 153.478 28.6453 153.553 28.72C153.627 28.7947 153.758 28.9067 153.945 29.056C154.131 29.2053 154.243 29.3173 154.281 29.392C154.281 29.4293 154.281 29.56 154.281 29.784C154.318 30.008 154.337 30.176 154.337 30.288C154.337 30.4 154.318 30.568 154.281 30.792C154.281 31.016 154.281 31.1467 154.281 31.184L153.553 31.912C153.478 31.9493 153.347 32.0053 153.161 32.08C153.011 32.1547 152.899 32.2107 152.825 32.248H152.153C152.078 32.248 151.873 32.2853 151.537 32.36C151.201 32.3973 150.827 32.4533 150.417 32.528C150.006 32.6027 149.595 32.696 149.185 32.808C148.774 32.8827 148.457 32.9387 148.233 32.976C148.083 32.976 147.841 33.0133 147.505 33.088C147.169 33.1627 146.814 33.2373 146.441 33.312C146.067 33.3867 145.713 33.4613 145.377 33.536C145.041 33.5733 144.817 33.6107 144.705 33.648C144.593 33.6853 144.387 33.7413 144.089 33.816C143.827 33.8533 143.529 33.928 143.193 34.04C142.857 34.1147 142.521 34.1893 142.185 34.264C141.886 34.3013 141.662 34.3387 141.513 34.376C141.363 34.4133 141.102 34.4693 140.729 34.544C140.355 34.6187 140.131 34.6747 140.057 34.712C139.945 34.7493 139.758 34.824 139.497 34.936C139.235 35.0107 139.067 35.048 138.993 35.048C138.955 35.0853 138.899 35.16 138.825 35.272C138.75 35.3467 138.694 35.4027 138.657 35.44V38.072V40.76C138.657 40.7973 138.694 41.04 138.769 41.488C138.881 41.936 138.955 42.272 138.993 42.496C139.067 42.6827 139.142 42.9627 139.217 43.336C139.291 43.672 139.347 43.8773 139.385 43.952C139.385 44.0267 139.441 44.176 139.553 44.4C139.665 44.624 139.777 44.8853 139.889 45.184C140.001 45.4453 140.113 45.7067 140.225 45.968C140.337 46.192 140.411 46.3413 140.449 46.416C140.449 46.4533 140.449 46.5467 140.449 46.696C140.486 46.808 140.505 46.9013 140.505 46.976C140.505 47.0507 140.486 47.1627 140.449 47.312C140.449 47.424 140.449 47.48 140.449 47.48C140.374 47.592 140.15 47.928 139.777 48.488C139.441 49.0107 139.179 49.384 138.993 49.608C138.918 49.7573 138.731 49.9627 138.433 50.224C138.171 50.4853 138.003 50.6347 137.929 50.672C137.929 50.672 137.873 50.672 137.761 50.672C137.649 50.7093 137.555 50.728 137.481 50.728C137.406 50.728 137.294 50.7093 137.145 50.672C136.995 50.672 136.921 50.672 136.921 50.672C136.809 50.6347 136.622 50.5787 136.361 50.504C136.099 50.4293 135.931 50.3733 135.857 50.336C135.782 50.2987 135.651 50.1867 135.465 50C135.315 49.8133 135.203 49.6827 135.129 49.608C135.054 49.4587 134.867 49.16 134.569 48.712C134.307 48.264 134.139 47.9653 134.065 47.816ZM170.367 36.672C170.329 36.672 170.292 36.6907 170.255 36.728C170.217 36.728 170.199 36.728 170.199 36.728C170.124 36.728 169.993 36.784 169.807 36.896C169.657 36.9707 169.545 37.0267 169.471 37.064C169.209 37.2507 168.799 37.5307 168.239 37.904C167.716 38.24 167.417 38.4267 167.343 38.464C167.231 38.576 167.025 38.7627 166.727 39.024C166.465 39.2853 166.185 39.5653 165.887 39.864C165.588 40.1627 165.308 40.4613 165.047 40.76C164.785 41.0213 164.599 41.208 164.487 41.32C164.449 41.3947 164.244 41.712 163.871 42.272C163.535 42.7947 163.273 43.1867 163.087 43.448C163.049 43.4853 162.993 43.5973 162.919 43.784C162.844 43.9707 162.788 44.1013 162.751 44.176C162.676 44.2507 162.545 44.4373 162.359 44.736C162.209 44.9973 162.097 45.1467 162.023 45.184C161.985 45.2587 161.855 45.3893 161.631 45.576C161.444 45.7627 161.332 45.8747 161.295 45.912C161.257 45.9867 161.183 46.136 161.071 46.36C160.996 46.5467 160.903 46.752 160.791 46.976C160.679 47.2 160.567 47.424 160.455 47.648C160.38 47.872 160.324 48.0027 160.287 48.04C160.212 48.1147 160.044 48.3387 159.783 48.712C159.521 49.048 159.335 49.2907 159.223 49.44L158.495 50.168C158.42 50.2053 158.252 50.2613 157.991 50.336C157.729 50.448 157.543 50.504 157.431 50.504C157.431 50.504 157.375 50.504 157.263 50.504C157.188 50.5413 157.113 50.56 157.039 50.56C156.665 50.56 156.329 50.448 156.031 50.224C155.769 50 155.527 49.7387 155.303 49.44C155.153 49.2533 154.929 48.992 154.631 48.656C154.369 48.2827 154.239 48.0773 154.239 48.04C154.239 48.04 154.22 47.9093 154.183 47.648C154.183 47.3493 154.183 47.1067 154.183 46.92C154.183 46.7333 154.183 46.472 154.183 46.136C154.22 45.8 154.239 45.6133 154.239 45.576C154.239 45.5013 154.276 45.3893 154.351 45.24C154.463 45.0533 154.537 44.9227 154.575 44.848C154.575 44.5867 154.593 44.12 154.631 43.448C154.668 42.776 154.705 42.0667 154.743 41.32C154.817 40.5733 154.873 39.864 154.911 39.192C154.948 38.52 154.967 38.0533 154.967 37.792V37.4V37.064C154.967 36.952 154.948 36.672 154.911 36.224C154.873 35.776 154.817 35.2907 154.743 34.768C154.705 34.2453 154.668 33.76 154.631 33.312C154.593 32.864 154.575 32.584 154.575 32.472C154.575 32.3227 154.575 31.9867 154.575 31.464C154.575 30.904 154.575 30.3067 154.575 29.672C154.575 29 154.575 28.4027 154.575 27.88C154.575 27.32 154.575 26.9653 154.575 26.816C154.575 26.7413 154.556 26.5547 154.519 26.256C154.481 25.92 154.444 25.5653 154.407 25.192C154.369 24.8187 154.332 24.4827 154.295 24.184C154.257 23.8853 154.239 23.6987 154.239 23.624V20.432V17.24C154.201 17.1653 154.22 17.0347 154.295 16.848C154.407 16.6613 154.5 16.5493 154.575 16.512C154.612 16.512 154.724 16.512 154.911 16.512C155.097 16.4747 155.228 16.456 155.303 16.456C155.377 16.456 155.508 16.4747 155.695 16.512C155.881 16.512 155.993 16.512 156.031 16.512C156.105 16.5493 156.311 16.7547 156.647 17.128C156.983 17.5013 157.244 17.7813 157.431 17.968C157.468 18.0053 157.524 18.1173 157.599 18.304C157.711 18.4533 157.767 18.5653 157.767 18.64C157.767 18.7147 157.804 18.9013 157.879 19.2C157.953 19.4613 158.028 19.7787 158.103 20.152C158.177 20.5253 158.252 20.8987 158.327 21.272C158.401 21.6453 158.457 21.944 158.495 22.168C158.532 22.3547 158.588 22.728 158.663 23.288C158.737 23.8107 158.793 24.1467 158.831 24.296C158.868 24.4453 158.905 24.6693 158.943 24.968C158.98 25.2293 159.017 25.528 159.055 25.864C159.092 26.1627 159.129 26.4427 159.167 26.704C159.204 26.928 159.223 27.0773 159.223 27.152C159.223 27.2267 159.204 27.4133 159.167 27.712C159.167 27.9733 159.185 28.1413 159.223 28.216C159.223 28.4027 159.223 28.7573 159.223 29.28C159.26 29.8027 159.279 30.4187 159.279 31.128C159.316 31.8 159.335 32.5467 159.335 33.368C159.372 34.152 159.409 34.8987 159.447 35.608C159.484 36.28 159.503 36.896 159.503 37.456C159.54 37.9787 159.559 38.3147 159.559 38.464V39.528H159.895L166.615 32.808C166.652 32.7707 166.745 32.696 166.895 32.584C167.081 32.4347 167.268 32.2853 167.455 32.136C167.641 31.9867 167.828 31.856 168.015 31.744C168.201 31.5947 168.332 31.4827 168.407 31.408C168.481 31.3333 168.593 31.2587 168.743 31.184C168.929 31.1093 169.06 31.072 169.135 31.072C169.247 30.9973 169.527 30.9227 169.975 30.848C170.46 30.7733 170.759 30.7173 170.871 30.68H171.655H172.327C172.401 30.7173 172.607 30.8293 172.943 31.016C173.316 31.2027 173.577 31.3333 173.727 31.408L174.399 32.08C175.033 32.8267 175.575 33.5733 176.023 34.32C176.471 35.0667 176.881 35.8693 177.255 36.728C177.292 36.7653 177.348 36.9333 177.423 37.232C177.497 37.4933 177.553 37.68 177.591 37.792C177.628 37.8667 177.684 38.0907 177.759 38.464C177.871 38.8373 177.945 39.08 177.983 39.192C177.983 39.2667 178.02 39.4907 178.095 39.864C178.169 40.2 178.244 40.5733 178.319 40.984C178.393 41.3573 178.468 41.7307 178.543 42.104C178.617 42.44 178.655 42.6453 178.655 42.72C178.692 42.7947 178.748 42.9813 178.823 43.28C178.935 43.5413 179.009 43.7093 179.047 43.784C179.084 43.896 179.14 44.1387 179.215 44.512C179.289 44.8853 179.345 45.1093 179.383 45.184C179.42 45.408 179.476 45.7067 179.551 46.08C179.625 46.4533 179.7 46.8453 179.775 47.256C179.849 47.6293 179.924 47.9653 179.999 48.264C180.073 48.5627 180.111 48.7307 180.111 48.768V49.496V50.168C180.073 50.2053 180.017 50.3173 179.943 50.504C179.868 50.6907 179.793 50.8213 179.719 50.896C179.681 50.9333 179.625 50.9893 179.551 51.064C179.476 51.176 179.42 51.232 179.383 51.232H178.879H178.319C178.244 51.232 178.057 51.176 177.759 51.064C177.497 50.9893 177.329 50.9333 177.255 50.896C177.217 50.8587 177.161 50.8027 177.087 50.728C177.012 50.6533 176.956 50.5787 176.919 50.504C176.844 50.392 176.657 50.112 176.359 49.664C176.097 49.216 175.929 48.9173 175.855 48.768C175.78 48.656 175.687 48.5067 175.575 48.32C175.5 48.096 175.407 47.872 175.295 47.648C175.183 47.424 175.071 47.2187 174.959 47.032C174.884 46.8453 174.828 46.7147 174.791 46.64C174.753 46.5653 174.679 46.3973 174.567 46.136C174.492 45.8373 174.436 45.6507 174.399 45.576C174.399 45.5013 174.343 45.3333 174.231 45.072C174.119 44.7733 174.007 44.4747 173.895 44.176C173.783 43.84 173.671 43.5413 173.559 43.28C173.447 42.9813 173.391 42.7947 173.391 42.72C173.391 42.6827 173.372 42.5893 173.335 42.44C173.297 42.2533 173.241 42.0667 173.167 41.88C173.129 41.656 173.092 41.4693 173.055 41.32C173.017 41.1333 172.999 41.0213 172.999 40.984C172.961 40.7973 172.887 40.5173 172.775 40.144C172.7 39.7707 172.663 39.5653 172.663 39.528C172.625 39.4907 172.551 39.3787 172.439 39.192C172.364 38.968 172.271 38.744 172.159 38.52C172.047 38.296 171.935 38.0907 171.823 37.904C171.711 37.68 171.636 37.512 171.599 37.4L171.263 37.064C171.188 37.0267 171.057 36.9707 170.871 36.896C170.721 36.784 170.609 36.728 170.535 36.728C170.535 36.728 170.516 36.728 170.479 36.728C170.441 36.6907 170.404 36.672 170.367 36.672ZM181.91 45.072V43.616C181.91 43.5787 181.948 43.392 182.022 43.056C182.134 42.6827 182.209 42.4027 182.246 42.216C182.284 42.0667 182.34 41.8613 182.414 41.6C182.526 41.3013 182.62 41.0213 182.694 40.76C182.769 40.4987 182.825 40.2747 182.862 40.088C182.937 39.864 182.974 39.752 182.974 39.752C183.012 39.7147 183.068 39.6027 183.142 39.416C183.254 39.192 183.366 38.968 183.478 38.744C183.59 38.52 183.684 38.3147 183.758 38.128C183.87 37.904 183.964 37.736 184.038 37.624C184.113 37.4747 184.244 37.232 184.43 36.896C184.654 36.56 184.878 36.2053 185.102 35.832C185.326 35.4587 185.532 35.104 185.718 34.768C185.942 34.432 186.092 34.1893 186.166 34.04C186.166 34.04 186.222 34.0027 186.334 33.928C186.446 33.816 186.502 33.7413 186.502 33.704C186.54 33.6667 186.633 33.536 186.782 33.312C186.969 33.088 187.156 32.864 187.342 32.64C187.566 32.416 187.753 32.2107 187.902 32.024C188.089 31.8 188.22 31.6507 188.294 31.576C188.369 31.5013 188.518 31.3707 188.742 31.184C189.004 30.96 189.265 30.736 189.526 30.512C189.788 30.288 190.03 30.0827 190.254 29.896C190.478 29.672 190.646 29.5227 190.758 29.448C190.796 29.448 190.889 29.4107 191.038 29.336C191.188 29.224 191.356 29.112 191.542 29C191.729 28.888 191.916 28.776 192.102 28.664C192.289 28.552 192.438 28.4587 192.55 28.384C192.924 28.1973 193.316 28.0107 193.726 27.824C194.174 27.6 194.604 27.432 195.014 27.32C195.126 27.32 195.276 27.3013 195.462 27.264C195.686 27.2267 195.91 27.1893 196.134 27.152C196.358 27.1147 196.564 27.0773 196.75 27.04C196.937 27.0027 197.068 26.984 197.142 26.984C197.18 26.984 197.329 26.984 197.59 26.984C197.889 26.9467 198.113 26.928 198.262 26.928C198.412 26.928 198.598 26.9467 198.822 26.984C199.084 26.984 199.233 26.984 199.27 26.984C199.42 26.984 199.625 27.0213 199.886 27.096C200.185 27.1707 200.484 27.2453 200.782 27.32C201.081 27.3947 201.361 27.4693 201.622 27.544C201.884 27.6187 202.052 27.6747 202.126 27.712C202.238 27.7867 202.425 27.8987 202.686 28.048C202.985 28.1973 203.284 28.3653 203.582 28.552C203.881 28.7387 204.161 28.9253 204.422 29.112C204.684 29.2613 204.852 29.3733 204.926 29.448C204.926 29.448 204.982 29.5413 205.094 29.728C205.244 29.9147 205.393 30.12 205.542 30.344C205.692 30.568 205.841 30.792 205.99 31.016C206.14 31.24 206.27 31.4267 206.382 31.576C206.42 31.6507 206.476 31.7813 206.55 31.968C206.662 32.1547 206.718 32.2667 206.718 32.304C206.756 32.416 206.812 32.752 206.886 33.312C206.961 33.8347 207.017 34.208 207.054 34.432V34.768V35.104C207.017 35.2907 206.961 35.6267 206.886 36.112C206.812 36.56 206.756 36.8213 206.718 36.896C206.644 37.0453 206.513 37.3067 206.326 37.68C206.177 38.016 206.065 38.2213 205.99 38.296C205.916 38.408 205.748 38.6133 205.486 38.912C205.225 39.1733 204.945 39.4533 204.646 39.752C204.348 40.0507 204.049 40.3307 203.75 40.592C203.489 40.8533 203.302 41.04 203.19 41.152C203.041 41.264 202.742 41.4507 202.294 41.712C201.846 41.9733 201.548 42.1413 201.398 42.216C201.398 42.216 201.305 42.2347 201.118 42.272C200.969 42.3093 200.782 42.3467 200.558 42.384C200.334 42.4213 200.092 42.4587 199.83 42.496C199.606 42.5333 199.42 42.552 199.27 42.552C199.121 42.5893 198.916 42.6267 198.654 42.664C198.393 42.7013 198.132 42.7387 197.87 42.776C197.609 42.8133 197.366 42.8507 197.142 42.888C196.956 42.9253 196.844 42.944 196.806 42.944H196.414H196.078C196.004 42.944 195.836 42.9067 195.574 42.832C195.35 42.7573 195.089 42.6827 194.79 42.608C194.492 42.5333 194.193 42.4587 193.894 42.384C193.596 42.3093 193.372 42.2533 193.222 42.216C192.588 42.0293 192.009 41.7867 191.486 41.488C191.412 41.4507 191.225 41.3573 190.926 41.208C190.665 41.0213 190.497 40.8907 190.422 40.816C190.385 40.7787 190.292 40.704 190.142 40.592C189.993 40.48 189.844 40.368 189.694 40.256C189.545 40.144 189.396 40.032 189.246 39.92C189.134 39.808 189.06 39.752 189.022 39.752C188.985 39.752 188.948 39.752 188.91 39.752C188.873 39.7147 188.836 39.696 188.798 39.696L188.63 39.752C188.593 39.752 188.537 39.808 188.462 39.92C188.388 39.9947 188.332 40.0507 188.294 40.088C188.257 40.1627 188.182 40.312 188.07 40.536C187.958 40.7227 187.846 40.928 187.734 41.152C187.622 41.376 187.51 41.6 187.398 41.824C187.324 42.0107 187.268 42.1413 187.23 42.216C187.156 42.328 187.081 42.5147 187.006 42.776C186.932 43.0373 186.894 43.2053 186.894 43.28C186.857 43.28 186.838 43.3733 186.838 43.56C186.838 43.7467 186.838 43.896 186.838 44.008C186.838 44.0827 186.838 44.2133 186.838 44.4C186.838 44.5867 186.857 44.68 186.894 44.68C186.894 44.7547 186.932 44.9413 187.006 45.24C187.081 45.5013 187.156 45.6693 187.23 45.744C187.305 45.856 187.436 46.08 187.622 46.416C187.809 46.7147 188.014 47.032 188.238 47.368C188.462 47.704 188.668 48.0213 188.854 48.32C189.078 48.6187 189.246 48.824 189.358 48.936C189.433 49.0107 189.601 49.1973 189.862 49.496C190.124 49.7573 190.31 49.9253 190.422 50C190.497 50.0747 190.628 50.168 190.814 50.28C191.038 50.4293 191.262 50.5787 191.486 50.728C191.71 50.8773 191.916 51.008 192.102 51.12C192.326 51.2693 192.476 51.3627 192.55 51.4C192.7 51.4747 192.998 51.6053 193.446 51.792C193.894 51.9787 194.174 52.0907 194.286 52.128C194.398 52.1653 194.566 52.2027 194.79 52.24C195.014 52.2773 195.257 52.3147 195.518 52.352C195.817 52.3893 196.078 52.408 196.302 52.408C196.526 52.4453 196.694 52.464 196.806 52.464C196.844 52.464 196.956 52.464 197.142 52.464C197.329 52.5013 197.534 52.52 197.758 52.52C198.02 52.52 198.262 52.52 198.486 52.52C198.748 52.52 198.953 52.52 199.102 52.52C199.252 52.52 199.438 52.52 199.662 52.52C199.924 52.52 200.166 52.52 200.39 52.52C200.652 52.52 200.876 52.5013 201.062 52.464C201.249 52.464 201.361 52.464 201.398 52.464C201.473 52.464 201.772 52.4267 202.294 52.352C202.854 52.2773 203.265 52.2027 203.526 52.128C203.713 52.0907 204.049 52.016 204.534 51.904C205.057 51.8293 205.598 51.736 206.158 51.624C206.718 51.512 207.241 51.4 207.726 51.288C208.249 51.176 208.622 51.1013 208.846 51.064C208.921 51.064 209.108 51.0267 209.406 50.952C209.705 50.8773 210.041 50.784 210.414 50.672C210.788 50.5973 211.124 50.5227 211.422 50.448C211.758 50.3733 211.964 50.336 212.038 50.336C212.113 50.336 212.318 50.3173 212.654 50.28C213.028 50.2427 213.438 50.2053 213.886 50.168C214.334 50.1307 214.782 50.0933 215.23 50.056C215.678 50.0187 216.033 50 216.294 50H216.854H217.358C217.433 50.0373 217.545 50.0933 217.694 50.168C217.881 50.2427 217.993 50.2987 218.03 50.336C218.105 50.4107 218.18 50.5227 218.254 50.672C218.329 50.8587 218.385 50.9893 218.422 51.064V52.24V53.192C218.385 53.2667 218.273 53.3787 218.086 53.528C217.9 53.7147 217.769 53.8453 217.694 53.92C217.62 53.9573 217.433 54.0133 217.134 54.088C216.873 54.2 216.574 54.312 216.238 54.424C215.94 54.5733 215.641 54.6853 215.342 54.76C215.081 54.872 214.913 54.9467 214.838 54.984C214.801 54.984 214.689 55.04 214.502 55.152C214.316 55.264 214.204 55.32 214.166 55.32C214.092 55.32 213.905 55.3387 213.606 55.376C213.345 55.4133 213.046 55.4507 212.71 55.488C212.412 55.5253 212.113 55.5627 211.814 55.6C211.553 55.6373 211.385 55.656 211.31 55.656C211.236 55.656 211.03 55.6933 210.694 55.768C210.396 55.8427 210.06 55.9173 209.686 55.992C209.35 56.104 209.014 56.1973 208.678 56.272C208.38 56.3467 208.193 56.384 208.118 56.384C208.006 56.384 207.726 56.4213 207.278 56.496C206.83 56.5707 206.345 56.6453 205.822 56.72C205.3 56.7947 204.814 56.8693 204.366 56.944C203.918 57.0187 203.638 57.0747 203.526 57.112C203.489 57.112 203.377 57.1307 203.19 57.168C203.004 57.2053 202.817 57.2427 202.63 57.28C202.444 57.3173 202.257 57.3547 202.07 57.392C201.884 57.4293 201.772 57.448 201.734 57.448C201.66 57.448 201.268 57.448 200.558 57.448C199.886 57.4853 199.345 57.504 198.934 57.504C198.748 57.504 198.505 57.504 198.206 57.504C197.908 57.504 197.59 57.4853 197.254 57.448C196.956 57.448 196.694 57.448 196.47 57.448C196.246 57.448 196.116 57.448 196.078 57.448C195.966 57.448 195.78 57.4293 195.518 57.392C195.257 57.3547 194.977 57.3173 194.678 57.28C194.38 57.2427 194.081 57.2053 193.782 57.168C193.521 57.1307 193.334 57.112 193.222 57.112C193.185 57.0747 193.073 57 192.886 56.888C192.7 56.8133 192.588 56.7573 192.55 56.72C192.476 56.72 192.289 56.664 191.99 56.552C191.729 56.4773 191.561 56.4213 191.486 56.384C191.374 56.3467 191.188 56.2533 190.926 56.104C190.665 55.992 190.385 55.8613 190.086 55.712C189.788 55.5627 189.489 55.4133 189.19 55.264C188.929 55.152 188.742 55.0587 188.63 54.984C188.518 54.9467 188.369 54.8533 188.182 54.704C188.033 54.592 187.865 54.48 187.678 54.368C187.492 54.256 187.324 54.144 187.174 54.032C187.025 53.9573 186.932 53.92 186.894 53.92C186.782 53.8453 186.596 53.6773 186.334 53.416C186.11 53.192 185.868 52.9493 185.606 52.688C185.345 52.4267 185.084 52.1653 184.822 51.904C184.598 51.68 184.449 51.512 184.374 51.4C184.374 51.4 184.318 51.3253 184.206 51.176C184.132 51.0267 184.038 50.8587 183.926 50.672C183.814 50.4853 183.702 50.2987 183.59 50.112C183.478 49.9253 183.385 49.776 183.31 49.664C183.273 49.5893 183.198 49.4587 183.086 49.272C182.974 49.048 182.862 48.824 182.75 48.6C182.638 48.376 182.526 48.1707 182.414 47.984C182.34 47.76 182.284 47.6107 182.246 47.536C182.209 47.424 182.134 47.2373 182.022 46.976C181.948 46.7147 181.91 46.5467 181.91 46.472V45.072ZM190.534 36.728C190.684 36.728 191.02 36.7467 191.542 36.784C192.065 36.8213 192.401 36.8587 192.55 36.896C192.588 36.896 192.718 36.9333 192.942 37.008C193.166 37.0827 193.39 37.176 193.614 37.288C193.838 37.3627 194.044 37.4373 194.23 37.512C194.454 37.5867 194.604 37.624 194.678 37.624H196.19H197.87C197.908 37.624 198.057 37.5867 198.318 37.512C198.617 37.4 198.822 37.3067 198.934 37.232C199.121 37.1573 199.382 37.0453 199.718 36.896C200.054 36.7093 200.26 36.5973 200.334 36.56C200.521 36.4107 200.782 36.1493 201.118 35.776C201.492 35.4027 201.697 35.1787 201.734 35.104C201.772 35.104 201.79 35.0293 201.79 34.88C201.79 34.6933 201.79 34.5627 201.79 34.488C201.79 34.376 201.79 34.2267 201.79 34.04C201.79 33.8533 201.772 33.7413 201.734 33.704C201.734 33.6667 201.697 33.6107 201.622 33.536C201.548 33.4613 201.473 33.4053 201.398 33.368C201.286 33.3307 201.118 33.256 200.894 33.144C200.708 33.032 200.502 32.92 200.278 32.808C200.054 32.696 199.849 32.6027 199.662 32.528C199.476 32.416 199.345 32.3413 199.27 32.304C199.196 32.2667 198.972 32.2107 198.598 32.136C198.262 32.0613 198.02 31.9867 197.87 31.912H197.702H197.478C197.404 31.9493 197.18 32.024 196.806 32.136C196.47 32.2107 196.228 32.2667 196.078 32.304C195.966 32.3413 195.761 32.3973 195.462 32.472C195.201 32.5467 195.052 32.6027 195.014 32.64C194.94 32.6773 194.772 32.7893 194.51 32.976C194.249 33.1627 194.062 33.2933 193.95 33.368C193.876 33.4427 193.745 33.5547 193.558 33.704C193.372 33.816 193.185 33.9467 192.998 34.096C192.812 34.2453 192.625 34.3947 192.438 34.544C192.289 34.656 192.196 34.7307 192.158 34.768L190.758 36.168C190.721 36.2427 190.665 36.336 190.59 36.448C190.553 36.56 190.534 36.6533 190.534 36.728ZM217.743 69.936V69.264C217.743 69.2267 217.781 69.1147 217.855 68.928C217.93 68.7787 218.005 68.592 218.079 68.368C218.191 68.1813 218.285 67.9947 218.359 67.808C218.434 67.6587 218.471 67.5653 218.471 67.528C218.509 67.4533 218.565 67.2667 218.639 66.968C218.751 66.7067 218.807 66.5387 218.807 66.464C218.882 66.2773 219.031 65.904 219.255 65.344C219.479 64.784 219.741 64.112 220.039 63.328C220.338 62.5813 220.637 61.7787 220.935 60.92C221.271 60.0987 221.589 59.296 221.887 58.512C222.186 57.7653 222.429 57.112 222.615 56.552C222.839 55.992 222.989 55.6187 223.063 55.432C223.101 55.3573 223.157 55.1707 223.231 54.872C223.343 54.6107 223.455 54.312 223.567 53.976C223.679 53.64 223.791 53.304 223.903 52.968C224.015 52.6693 224.09 52.4267 224.127 52.24C224.165 52.128 224.221 51.96 224.295 51.736C224.37 51.512 224.445 51.2693 224.519 51.008C224.594 50.7467 224.669 50.4853 224.743 50.224C224.818 50 224.855 49.8507 224.855 49.776C224.855 49.7387 224.837 49.7013 224.799 49.664C224.799 49.5893 224.799 49.5333 224.799 49.496C224.65 49.496 224.351 49.4773 223.903 49.44C223.493 49.4027 223.213 49.4027 223.063 49.44C223.026 49.44 222.933 49.4587 222.783 49.496C222.671 49.5333 222.541 49.5707 222.391 49.608C222.242 49.6453 222.093 49.6827 221.943 49.72C221.794 49.7573 221.701 49.776 221.663 49.776C221.626 49.776 221.458 49.7947 221.159 49.832C220.861 49.832 220.637 49.832 220.487 49.832C220.375 49.832 220.189 49.832 219.927 49.832C219.703 49.7947 219.573 49.776 219.535 49.776C219.461 49.776 219.162 49.6453 218.639 49.384C218.117 49.0853 217.706 48.8613 217.407 48.712C217.333 48.6747 217.202 48.6 217.015 48.488C216.829 48.376 216.642 48.264 216.455 48.152C216.269 48.04 216.082 47.9467 215.895 47.872C215.746 47.76 215.653 47.6853 215.615 47.648C215.541 47.6107 215.41 47.4987 215.223 47.312C215.074 47.1253 214.981 46.9947 214.943 46.92C214.869 46.8453 214.757 46.7147 214.607 46.528C214.495 46.3413 214.365 46.136 214.215 45.912C214.066 45.688 213.917 45.4827 213.767 45.296C213.618 45.072 213.525 44.904 213.487 44.792C213.413 44.7173 213.301 44.4933 213.151 44.12C213.002 43.7467 212.89 43.504 212.815 43.392C212.778 43.3173 212.703 43.1493 212.591 42.888C212.517 42.6267 212.461 42.44 212.423 42.328C212.349 42.1413 212.274 41.88 212.199 41.544C212.125 41.1707 212.087 40.9653 212.087 40.928C212.087 40.8907 212.087 40.7787 212.087 40.592C212.087 40.368 212.069 40.1253 212.031 39.864C212.031 39.6027 212.031 39.3413 212.031 39.08C212.031 38.8187 212.031 38.5947 212.031 38.408C212.031 38.2587 212.031 38.0533 212.031 37.792C212.031 37.5307 212.031 37.2693 212.031 37.008C212.069 36.7467 212.087 36.5227 212.087 36.336C212.087 36.112 212.087 35.9813 212.087 35.944C212.087 35.9067 212.106 35.8133 212.143 35.664C212.181 35.5147 212.218 35.3653 212.255 35.216C212.293 35.0667 212.33 34.936 212.367 34.824C212.405 34.6747 212.423 34.5813 212.423 34.544C212.461 34.32 212.517 33.9467 212.591 33.424C212.666 32.9013 212.741 32.3413 212.815 31.744C212.89 31.1093 212.946 30.5307 212.983 30.008C213.058 29.448 213.114 29.056 213.151 28.832C213.338 28.5333 213.543 28.2347 213.767 27.936C213.991 27.6 214.253 27.32 214.551 27.096C214.663 27.096 214.869 27.096 215.167 27.096C215.503 27.0587 215.727 27.04 215.839 27.04C215.989 27.04 216.213 27.0587 216.511 27.096C216.847 27.096 217.034 27.096 217.071 27.096C217.109 27.096 217.202 27.1333 217.351 27.208C217.538 27.2827 217.669 27.3573 217.743 27.432C217.893 27.544 218.098 27.7307 218.359 27.992C218.658 28.2533 218.807 28.4213 218.807 28.496C218.845 28.496 218.863 28.5893 218.863 28.776C218.863 28.9253 218.863 29.0373 218.863 29.112C218.863 29.224 218.863 29.392 218.863 29.616C218.863 29.8027 218.845 29.896 218.807 29.896C218.807 29.9333 218.77 30.0453 218.695 30.232C218.621 30.4187 218.546 30.5493 218.471 30.624C218.434 30.6987 218.303 30.8853 218.079 31.184C217.893 31.4453 217.781 31.6133 217.743 31.688C217.706 31.8 217.65 32.024 217.575 32.36C217.501 32.6587 217.426 32.976 217.351 33.312C217.277 33.648 217.202 33.9653 217.127 34.264C217.09 34.5627 217.071 34.768 217.071 34.88C217.071 34.9173 217.053 35.048 217.015 35.272C217.015 35.4587 217.015 35.6827 217.015 35.944C217.015 36.2053 217.015 36.4853 217.015 36.784C217.015 37.0453 217.015 37.2507 217.015 37.4C217.015 37.5493 217.015 37.7547 217.015 38.016C217.015 38.2773 217.015 38.5387 217.015 38.8C217.015 39.0613 217.015 39.304 217.015 39.528C217.053 39.7147 217.071 39.8267 217.071 39.864C217.071 39.9013 217.09 40.0133 217.127 40.2C217.202 40.3867 217.277 40.592 217.351 40.816C217.426 41.04 217.501 41.264 217.575 41.488C217.65 41.712 217.706 41.88 217.743 41.992C217.781 42.0293 217.837 42.0853 217.911 42.16C217.986 42.2347 218.061 42.2907 218.135 42.328C218.173 42.3653 218.285 42.44 218.471 42.552C218.658 42.6267 218.77 42.664 218.807 42.664C218.845 42.7013 218.975 42.7947 219.199 42.944C219.423 43.0933 219.647 43.2613 219.871 43.448C220.095 43.5973 220.301 43.7467 220.487 43.896C220.711 44.008 220.861 44.0827 220.935 44.12C220.973 44.12 221.103 44.1387 221.327 44.176C221.551 44.176 221.719 44.176 221.831 44.176C221.943 44.176 222.111 44.176 222.335 44.176C222.559 44.1387 222.69 44.12 222.727 44.12C222.839 44.0453 223.119 43.8773 223.567 43.616C224.015 43.3547 224.333 43.168 224.519 43.056C224.594 42.9813 224.743 42.832 224.967 42.608C225.229 42.3467 225.509 42.0667 225.807 41.768C226.143 41.432 226.442 41.1333 226.703 40.872C227.002 40.5733 227.207 40.3493 227.319 40.2C227.357 40.1627 227.431 40.088 227.543 39.976C227.655 39.8267 227.767 39.6773 227.879 39.528C227.991 39.3787 228.085 39.248 228.159 39.136C228.271 38.9867 228.346 38.8747 228.383 38.8C228.458 38.7253 228.57 38.5013 228.719 38.128C228.906 37.7547 229.037 37.4933 229.111 37.344C229.186 37.1947 229.298 36.952 229.447 36.616C229.597 36.2427 229.746 35.8693 229.895 35.496C230.045 35.1227 230.175 34.7867 230.287 34.488C230.399 34.152 230.474 33.928 230.511 33.816C230.511 33.7787 230.549 33.6667 230.623 33.48C230.698 33.256 230.773 33.0133 230.847 32.752C230.922 32.4907 230.997 32.2293 231.071 31.968C231.146 31.7067 231.202 31.5013 231.239 31.352C231.277 31.2773 231.333 31.0347 231.407 30.624C231.519 30.2133 231.575 29.9707 231.575 29.896C231.65 29.7467 231.725 29.5413 231.799 29.28C231.874 29.0187 231.93 28.8693 231.967 28.832L232.639 28.16C232.714 28.0853 232.826 28.0107 232.975 27.936C233.162 27.8613 233.293 27.8053 233.367 27.768C233.591 27.6933 233.965 27.6187 234.487 27.544C235.047 27.4693 235.383 27.432 235.495 27.432C235.57 27.432 235.775 27.4693 236.111 27.544C236.485 27.6187 236.746 27.6933 236.895 27.768C237.082 27.8427 237.269 27.936 237.455 28.048C237.679 28.16 237.847 28.3093 237.959 28.496C238.034 28.5707 238.109 28.7013 238.183 28.888C238.258 29.0373 238.314 29.1493 238.351 29.224V29.728V30.288C238.277 30.4373 238.146 30.792 237.959 31.352C237.81 31.8747 237.698 32.2293 237.623 32.416C237.586 32.4907 237.455 32.6773 237.231 32.976C237.045 33.2373 236.933 33.4053 236.895 33.48C236.783 33.704 236.559 34.1147 236.223 34.712C235.887 35.3093 235.533 35.944 235.159 36.616C234.786 37.288 234.431 37.9413 234.095 38.576C233.759 39.1733 233.517 39.6027 233.367 39.864C233.293 39.976 233.199 40.144 233.087 40.368C232.975 40.592 232.863 40.816 232.751 41.04C232.639 41.264 232.527 41.4693 232.415 41.656C232.341 41.8427 232.303 41.9547 232.303 41.992C232.229 42.1787 232.061 42.6453 231.799 43.392C231.575 44.1013 231.314 44.8853 231.015 45.744C230.754 46.5653 230.493 47.3493 230.231 48.096C230.007 48.8053 229.877 49.2533 229.839 49.44C229.802 49.4773 229.727 49.5893 229.615 49.776C229.541 49.9627 229.485 50.0747 229.447 50.112C229.41 50.1867 229.354 50.3547 229.279 50.616C229.205 50.9147 229.149 51.1013 229.111 51.176C229.074 51.2507 229.018 51.4933 228.943 51.904C228.869 52.3147 228.813 52.5573 228.775 52.632C228.738 52.7067 228.645 52.912 228.495 53.248C228.346 53.6213 228.197 53.9947 228.047 54.368C227.898 54.7787 227.749 55.152 227.599 55.488C227.45 55.8613 227.357 56.0853 227.319 56.16C227.282 56.2347 227.226 56.4587 227.151 56.832C227.077 57.2427 227.021 57.4853 226.983 57.56C226.909 57.7467 226.741 58.1387 226.479 58.736C226.255 59.3707 225.994 60.0427 225.695 60.752C225.434 61.4987 225.173 62.1707 224.911 62.768C224.687 63.4027 224.557 63.7947 224.519 63.944C224.407 64.2053 224.258 64.5973 224.071 65.12C223.885 65.68 223.791 65.9973 223.791 66.072C223.791 66.1467 223.754 66.408 223.679 66.856C223.642 67.304 223.586 67.8267 223.511 68.424C223.437 69.0587 223.343 69.6747 223.231 70.272C223.157 70.9067 223.101 71.4107 223.063 71.784V72.12C223.026 72.232 222.97 72.4187 222.895 72.68C222.821 72.9787 222.765 73.1467 222.727 73.184C222.69 73.2587 222.578 73.3707 222.391 73.52C222.205 73.7067 222.074 73.8373 221.999 73.912C221.925 73.9493 221.757 74.0053 221.495 74.08C221.234 74.192 221.047 74.248 220.935 74.248H220.207H219.535C219.461 74.248 219.33 74.192 219.143 74.08C218.994 74.0053 218.882 73.9493 218.807 73.912C218.807 73.8747 218.751 73.7627 218.639 73.576C218.565 73.3893 218.509 73.2587 218.471 73.184C218.285 72.6613 218.117 72.12 217.967 71.56C217.818 71.0373 217.743 70.496 217.743 69.936ZM269.697 35.104C269.623 34.992 269.455 34.8053 269.193 34.544C268.932 34.2827 268.745 34.1147 268.633 34.04C268.559 34.0027 268.316 33.9467 267.905 33.872C267.532 33.7973 267.308 33.7413 267.233 33.704C267.121 33.6667 266.953 33.592 266.729 33.48C266.543 33.368 266.337 33.256 266.113 33.144C265.889 33.032 265.665 32.9387 265.441 32.864C265.255 32.752 265.143 32.6773 265.105 32.64C265.031 32.5653 264.863 32.3973 264.601 32.136C264.303 31.8373 264.116 31.6507 264.041 31.576C264.041 31.464 264.041 31.2213 264.041 30.848C264.004 30.4747 263.985 30.232 263.985 30.12C263.985 29.9333 264.004 29.672 264.041 29.336C264.041 28.9627 264.041 28.7573 264.041 28.72C264.041 28.6827 264.097 28.5707 264.209 28.384C264.284 28.1973 264.34 28.0667 264.377 27.992C264.452 27.9173 264.583 27.7867 264.769 27.6C264.956 27.4133 265.068 27.32 265.105 27.32C265.105 27.32 265.199 27.32 265.385 27.32C265.609 27.2827 265.777 27.264 265.889 27.264C266.039 27.264 266.225 27.2827 266.449 27.32C266.711 27.32 266.86 27.32 266.897 27.32C266.972 27.32 267.14 27.376 267.401 27.488C267.7 27.6 267.887 27.656 267.961 27.656C268.036 27.6933 268.223 27.6933 268.521 27.656C268.857 27.6187 269.063 27.6 269.137 27.6C269.137 27.264 269.119 26.6853 269.081 25.864C269.081 25.0053 269.063 24.128 269.025 23.232C269.025 22.2987 269.025 21.4213 269.025 20.6C269.025 19.7413 269.025 19.144 269.025 18.808C269.025 18.7707 269.044 18.64 269.081 18.416C269.119 18.1547 269.156 17.8933 269.193 17.632C269.231 17.3333 269.268 17.072 269.305 16.848C269.343 16.5867 269.361 16.4187 269.361 16.344C269.361 16.2693 269.38 16.1013 269.417 15.84C269.455 15.5413 269.492 15.2427 269.529 14.944C269.567 14.608 269.604 14.3093 269.641 14.048C269.679 13.7493 269.697 13.5627 269.697 13.488C269.735 13.3387 269.772 13.1333 269.809 12.872C269.847 12.5733 269.884 12.2933 269.921 12.032C269.959 11.7707 269.977 11.5467 269.977 11.36C270.015 11.136 270.033 11.024 270.033 11.024C270.071 10.9867 270.127 10.8747 270.201 10.688C270.276 10.5013 270.351 10.3707 270.425 10.296C270.537 10.1093 270.687 9.86666 270.873 9.568C271.06 9.26933 271.247 8.97067 271.433 8.672C271.62 8.37333 271.788 8.112 271.937 7.888C272.087 7.664 272.161 7.53333 272.161 7.496C272.236 7.42133 272.441 7.25333 272.777 6.992C273.151 6.73067 273.431 6.544 273.617 6.432C273.692 6.35733 273.804 6.28266 273.953 6.208C274.14 6.13333 274.252 6.07733 274.289 6.04H275.297H276.417C276.529 6.04 276.697 6.05866 276.921 6.096C277.145 6.13333 277.369 6.18933 277.593 6.264C277.817 6.30133 278.023 6.33866 278.209 6.376C278.396 6.41333 278.508 6.432 278.545 6.432C278.583 6.432 278.732 6.50666 278.993 6.656C279.292 6.80533 279.609 6.97333 279.945 7.16C280.281 7.34666 280.617 7.53333 280.953 7.72C281.289 7.90666 281.551 8.056 281.737 8.168C281.775 8.20533 281.831 8.28 281.905 8.392C282.017 8.46666 282.073 8.52266 282.073 8.56C282.111 8.59733 282.241 8.70933 282.465 8.896C282.689 9.04533 282.913 9.232 283.137 9.456C283.399 9.64266 283.623 9.82933 283.809 10.016C284.033 10.1653 284.164 10.2587 284.201 10.296C284.463 10.5947 284.929 11.08 285.601 11.752C286.311 12.424 287.039 13.1333 287.785 13.88C288.532 14.6267 289.241 15.336 289.913 16.008C290.585 16.68 291.052 17.1467 291.313 17.408C291.351 17.4453 291.5 17.6507 291.761 18.024C292.023 18.36 292.228 18.6213 292.377 18.808C292.452 18.92 292.583 19.1253 292.769 19.424C292.956 19.6853 293.049 19.8347 293.049 19.872C293.124 19.9467 293.199 20.1333 293.273 20.432C293.348 20.6933 293.404 20.8613 293.441 20.936V22.112V23.064C293.404 23.1387 293.329 23.288 293.217 23.512C293.143 23.6987 293.049 23.904 292.937 24.128C292.825 24.352 292.713 24.576 292.601 24.8C292.489 24.9867 292.415 25.1173 292.377 25.192C292.303 25.192 292.116 25.2107 291.817 25.248C291.556 25.248 291.388 25.248 291.313 25.248C291.164 25.248 290.959 25.248 290.697 25.248C290.436 25.2107 290.287 25.192 290.249 25.192C290.212 25.192 290.1 25.0987 289.913 24.912C289.727 24.7253 289.596 24.576 289.521 24.464C289.484 24.3893 289.409 24.2773 289.297 24.128C289.223 23.9413 289.185 23.8293 289.185 23.792C289.148 23.68 289.111 23.512 289.073 23.288C289.036 23.064 288.999 22.8213 288.961 22.56C288.924 22.2613 288.887 22 288.849 21.776C288.849 21.552 288.849 21.384 288.849 21.272C288.7 21.1227 288.439 20.8427 288.065 20.432C287.729 20.0213 287.337 19.592 286.889 19.144C286.479 18.696 286.087 18.2667 285.713 17.856C285.34 17.4453 285.079 17.1653 284.929 17.016C284.892 17.016 284.761 16.9227 284.537 16.736C284.313 16.512 284.052 16.2693 283.753 16.008C283.455 15.7467 283.137 15.4853 282.801 15.224C282.503 14.9627 282.26 14.7387 282.073 14.552C281.961 14.44 281.775 14.2907 281.513 14.104C281.289 13.9173 281.065 13.7307 280.841 13.544C280.617 13.3573 280.412 13.1893 280.225 13.04C280.076 12.8907 279.983 12.816 279.945 12.816C279.833 12.704 279.591 12.5733 279.217 12.424C278.844 12.2373 278.62 12.1253 278.545 12.088C278.508 12.088 278.34 12.088 278.041 12.088C277.78 12.0507 277.575 12.032 277.425 12.032C277.313 12.032 277.127 12.0507 276.865 12.088C276.604 12.088 276.455 12.088 276.417 12.088C276.343 12.1253 276.119 12.2747 275.745 12.536C275.372 12.7973 275.129 13.0027 275.017 13.152C274.98 13.1893 274.868 13.3947 274.681 13.768C274.495 14.104 274.364 14.3653 274.289 14.552C274.252 14.664 274.177 14.8507 274.065 15.112C273.991 15.3733 273.953 15.5413 273.953 15.616C273.916 15.7653 273.879 16.0267 273.841 16.4C273.804 16.736 273.767 17.0907 273.729 17.464C273.692 17.8373 273.655 18.192 273.617 18.528C273.617 18.8267 273.617 19.032 273.617 19.144C273.617 19.1813 273.617 19.368 273.617 19.704C273.617 20.04 273.599 20.4133 273.561 20.824C273.561 21.2347 273.561 21.664 273.561 22.112C273.561 22.5227 273.561 22.8587 273.561 23.12C273.561 23.3813 273.561 23.7173 273.561 24.128C273.561 24.5387 273.561 24.9493 273.561 25.36C273.599 25.7707 273.617 26.1253 273.617 26.424C273.617 26.7227 273.617 26.8907 273.617 26.928C273.617 27.0773 273.617 27.2827 273.617 27.544C273.655 27.768 273.692 27.992 273.729 28.216C273.767 28.44 273.804 28.6453 273.841 28.832C273.879 28.9813 273.916 29.056 273.953 29.056L274.681 29.448C274.905 29.4853 275.297 29.56 275.857 29.672C276.417 29.7467 277.015 29.84 277.649 29.952C278.321 30.064 278.937 30.176 279.497 30.288C280.057 30.4 280.449 30.4747 280.673 30.512C280.711 30.512 280.823 30.5307 281.009 30.568C281.196 30.6053 281.383 30.6427 281.569 30.68C281.756 30.7173 281.943 30.7547 282.129 30.792C282.316 30.8293 282.428 30.848 282.465 30.848H284.201C284.276 30.848 284.463 30.8853 284.761 30.96C285.097 31.0347 285.452 31.1093 285.825 31.184C286.236 31.2587 286.609 31.3333 286.945 31.408C287.319 31.4827 287.599 31.5387 287.785 31.576C287.823 31.576 287.972 31.6133 288.233 31.688C288.495 31.7627 288.7 31.8373 288.849 31.912C289.484 32.1733 290.081 32.4347 290.641 32.696C291.239 32.9573 291.817 33.2933 292.377 33.704C292.415 33.7413 292.471 33.7973 292.545 33.872C292.657 33.9467 292.713 34.0027 292.713 34.04C292.713 34.04 292.713 34.1147 292.713 34.264C292.751 34.4133 292.769 34.5253 292.769 34.6C292.769 34.6747 292.751 34.768 292.713 34.88C292.713 34.992 292.713 35.0667 292.713 35.104C292.676 35.1787 292.564 35.3653 292.377 35.664C292.191 35.9253 292.06 36.0933 291.985 36.168C291.948 36.2053 291.799 36.2613 291.537 36.336C291.276 36.4107 291.071 36.4667 290.921 36.504H290.249C290.175 36.5413 289.932 36.616 289.521 36.728C289.148 36.8027 288.924 36.84 288.849 36.84C288.812 36.8773 288.737 36.896 288.625 36.896C288.625 36.896 288.588 36.896 288.513 36.896C288.476 36.896 288.457 36.8773 288.457 36.84C288.42 36.84 288.308 36.8213 288.121 36.784C287.972 36.7467 287.785 36.7093 287.561 36.672C287.375 36.6347 287.188 36.5973 287.001 36.56C286.852 36.5227 286.759 36.504 286.721 36.504C286.609 36.504 286.329 36.4667 285.881 36.392C285.471 36.3173 285.023 36.2427 284.537 36.168C284.089 36.0933 283.66 36.0187 283.249 35.944C282.839 35.8693 282.577 35.8133 282.465 35.776C282.428 35.776 282.316 35.7573 282.129 35.72C281.943 35.6827 281.756 35.6453 281.569 35.608C281.383 35.5707 281.196 35.5333 281.009 35.496C280.823 35.4587 280.711 35.44 280.673 35.44C280.375 35.3653 279.964 35.2907 279.441 35.216C278.919 35.1413 278.62 35.104 278.545 35.104C278.508 35.104 278.321 35.104 277.985 35.104C277.687 35.0667 277.463 35.048 277.313 35.048C277.127 35.048 276.884 35.0667 276.585 35.104C276.287 35.104 276.119 35.104 276.081 35.104C275.969 35.104 275.727 35.16 275.353 35.272C274.98 35.3467 274.756 35.4027 274.681 35.44C274.681 35.6267 274.663 35.9813 274.625 36.504C274.625 37.0267 274.625 37.3813 274.625 37.568C274.625 37.8667 274.625 38.2773 274.625 38.8C274.663 39.3227 274.681 39.6213 274.681 39.696C274.681 39.8827 274.7 40.144 274.737 40.48C274.775 40.816 274.812 41.1707 274.849 41.544C274.887 41.9173 274.924 42.272 274.961 42.608C274.999 42.9067 275.017 43.112 275.017 43.224C275.017 43.2987 275.055 43.448 275.129 43.672C275.204 43.8587 275.279 44.064 275.353 44.288C275.465 44.512 275.559 44.736 275.633 44.96C275.708 45.184 275.745 45.3147 275.745 45.352C275.745 45.3893 275.764 45.5387 275.801 45.8C275.839 46.024 275.876 46.2853 275.913 46.584C275.951 46.8827 275.988 47.2 276.025 47.536C276.063 47.8347 276.081 48.0587 276.081 48.208V48.6V48.88C276.044 48.9173 275.932 49.0293 275.745 49.216C275.596 49.4027 275.465 49.5333 275.353 49.608C275.204 49.72 274.943 49.9067 274.569 50.168C274.233 50.4293 274.028 50.5973 273.953 50.672H273.785H273.617C273.543 50.6347 273.412 50.5787 273.225 50.504C273.039 50.4293 272.927 50.3733 272.889 50.336C272.74 50.224 272.535 50.0373 272.273 49.776C272.012 49.5147 271.863 49.3467 271.825 49.272C271.788 49.2347 271.713 49.0853 271.601 48.824C271.527 48.5253 271.433 48.208 271.321 47.872C271.209 47.536 271.097 47.2 270.985 46.864C270.873 46.528 270.799 46.2667 270.761 46.08C270.724 45.9307 270.668 45.7253 270.593 45.464C270.519 45.1653 270.444 44.8667 270.369 44.568C270.295 44.2693 270.22 43.9893 270.145 43.728C270.071 43.4667 270.033 43.2987 270.033 43.224C270.033 43.1493 270.033 42.9253 270.033 42.552C270.071 42.1413 270.071 41.8987 270.033 41.824C270.033 41.7493 270.015 41.5813 269.977 41.32C269.94 41.0213 269.903 40.7227 269.865 40.424C269.828 40.088 269.791 39.7893 269.753 39.528C269.716 39.2293 269.697 39.0427 269.697 38.968V35.104ZM294.02 45.072V43.616C294.02 43.5787 294.057 43.392 294.132 43.056C294.244 42.6827 294.318 42.4027 294.356 42.216C294.393 42.0667 294.449 41.8613 294.524 41.6C294.636 41.3013 294.729 41.0213 294.804 40.76C294.878 40.4987 294.934 40.2747 294.972 40.088C295.046 39.864 295.084 39.752 295.084 39.752C295.121 39.7147 295.177 39.6027 295.252 39.416C295.364 39.192 295.476 38.968 295.588 38.744C295.7 38.52 295.793 38.3147 295.868 38.128C295.98 37.904 296.073 37.736 296.148 37.624C296.222 37.4747 296.353 37.232 296.54 36.896C296.764 36.56 296.988 36.2053 297.212 35.832C297.436 35.4587 297.641 35.104 297.828 34.768C298.052 34.432 298.201 34.1893 298.276 34.04C298.276 34.04 298.332 34.0027 298.444 33.928C298.556 33.816 298.612 33.7413 298.612 33.704C298.649 33.6667 298.742 33.536 298.892 33.312C299.078 33.088 299.265 32.864 299.452 32.64C299.676 32.416 299.862 32.2107 300.012 32.024C300.198 31.8 300.329 31.6507 300.404 31.576C300.478 31.5013 300.628 31.3707 300.852 31.184C301.113 30.96 301.374 30.736 301.636 30.512C301.897 30.288 302.14 30.0827 302.364 29.896C302.588 29.672 302.756 29.5227 302.868 29.448C302.905 29.448 302.998 29.4107 303.148 29.336C303.297 29.224 303.465 29.112 303.652 29C303.838 28.888 304.025 28.776 304.212 28.664C304.398 28.552 304.548 28.4587 304.66 28.384C305.033 28.1973 305.425 28.0107 305.836 27.824C306.284 27.6 306.713 27.432 307.124 27.32C307.236 27.32 307.385 27.3013 307.572 27.264C307.796 27.2267 308.02 27.1893 308.244 27.152C308.468 27.1147 308.673 27.0773 308.86 27.04C309.046 27.0027 309.177 26.984 309.252 26.984C309.289 26.984 309.438 26.984 309.7 26.984C309.998 26.9467 310.222 26.928 310.372 26.928C310.521 26.928 310.708 26.9467 310.932 26.984C311.193 26.984 311.342 26.984 311.38 26.984C311.529 26.984 311.734 27.0213 311.996 27.096C312.294 27.1707 312.593 27.2453 312.892 27.32C313.19 27.3947 313.47 27.4693 313.732 27.544C313.993 27.6187 314.161 27.6747 314.236 27.712C314.348 27.7867 314.534 27.8987 314.796 28.048C315.094 28.1973 315.393 28.3653 315.692 28.552C315.99 28.7387 316.27 28.9253 316.532 29.112C316.793 29.2613 316.961 29.3733 317.036 29.448C317.036 29.448 317.092 29.5413 317.204 29.728C317.353 29.9147 317.502 30.12 317.652 30.344C317.801 30.568 317.95 30.792 318.1 31.016C318.249 31.24 318.38 31.4267 318.492 31.576C318.529 31.6507 318.585 31.7813 318.66 31.968C318.772 32.1547 318.828 32.2667 318.828 32.304C318.865 32.416 318.921 32.752 318.996 33.312C319.07 33.8347 319.126 34.208 319.164 34.432V34.768V35.104C319.126 35.2907 319.07 35.6267 318.996 36.112C318.921 36.56 318.865 36.8213 318.828 36.896C318.753 37.0453 318.622 37.3067 318.436 37.68C318.286 38.016 318.174 38.2213 318.1 38.296C318.025 38.408 317.857 38.6133 317.596 38.912C317.334 39.1733 317.054 39.4533 316.756 39.752C316.457 40.0507 316.158 40.3307 315.86 40.592C315.598 40.8533 315.412 41.04 315.3 41.152C315.15 41.264 314.852 41.4507 314.404 41.712C313.956 41.9733 313.657 42.1413 313.508 42.216C313.508 42.216 313.414 42.2347 313.228 42.272C313.078 42.3093 312.892 42.3467 312.668 42.384C312.444 42.4213 312.201 42.4587 311.94 42.496C311.716 42.5333 311.529 42.552 311.38 42.552C311.23 42.5893 311.025 42.6267 310.764 42.664C310.502 42.7013 310.241 42.7387 309.98 42.776C309.718 42.8133 309.476 42.8507 309.252 42.888C309.065 42.9253 308.953 42.944 308.916 42.944H308.524H308.188C308.113 42.944 307.945 42.9067 307.684 42.832C307.46 42.7573 307.198 42.6827 306.9 42.608C306.601 42.5333 306.302 42.4587 306.004 42.384C305.705 42.3093 305.481 42.2533 305.332 42.216C304.697 42.0293 304.118 41.7867 303.596 41.488C303.521 41.4507 303.334 41.3573 303.036 41.208C302.774 41.0213 302.606 40.8907 302.532 40.816C302.494 40.7787 302.401 40.704 302.252 40.592C302.102 40.48 301.953 40.368 301.804 40.256C301.654 40.144 301.505 40.032 301.356 39.92C301.244 39.808 301.169 39.752 301.132 39.752C301.094 39.752 301.057 39.752 301.02 39.752C300.982 39.7147 300.945 39.696 300.908 39.696L300.74 39.752C300.702 39.752 300.646 39.808 300.572 39.92C300.497 39.9947 300.441 40.0507 300.404 40.088C300.366 40.1627 300.292 40.312 300.18 40.536C300.068 40.7227 299.956 40.928 299.844 41.152C299.732 41.376 299.62 41.6 299.508 41.824C299.433 42.0107 299.377 42.1413 299.34 42.216C299.265 42.328 299.19 42.5147 299.116 42.776C299.041 43.0373 299.004 43.2053 299.004 43.28C298.966 43.28 298.948 43.3733 298.948 43.56C298.948 43.7467 298.948 43.896 298.948 44.008C298.948 44.0827 298.948 44.2133 298.948 44.4C298.948 44.5867 298.966 44.68 299.004 44.68C299.004 44.7547 299.041 44.9413 299.116 45.24C299.19 45.5013 299.265 45.6693 299.34 45.744C299.414 45.856 299.545 46.08 299.732 46.416C299.918 46.7147 300.124 47.032 300.348 47.368C300.572 47.704 300.777 48.0213 300.964 48.32C301.188 48.6187 301.356 48.824 301.468 48.936C301.542 49.0107 301.71 49.1973 301.972 49.496C302.233 49.7573 302.42 49.9253 302.532 50C302.606 50.0747 302.737 50.168 302.924 50.28C303.148 50.4293 303.372 50.5787 303.596 50.728C303.82 50.8773 304.025 51.008 304.212 51.12C304.436 51.2693 304.585 51.3627 304.66 51.4C304.809 51.4747 305.108 51.6053 305.556 51.792C306.004 51.9787 306.284 52.0907 306.396 52.128C306.508 52.1653 306.676 52.2027 306.9 52.24C307.124 52.2773 307.366 52.3147 307.628 52.352C307.926 52.3893 308.188 52.408 308.412 52.408C308.636 52.4453 308.804 52.464 308.916 52.464C308.953 52.464 309.065 52.464 309.252 52.464C309.438 52.5013 309.644 52.52 309.868 52.52C310.129 52.52 310.372 52.52 310.596 52.52C310.857 52.52 311.062 52.52 311.212 52.52C311.361 52.52 311.548 52.52 311.772 52.52C312.033 52.52 312.276 52.52 312.5 52.52C312.761 52.52 312.985 52.5013 313.172 52.464C313.358 52.464 313.47 52.464 313.508 52.464C313.582 52.464 313.881 52.4267 314.404 52.352C314.964 52.2773 315.374 52.2027 315.636 52.128C315.822 52.0907 316.158 52.016 316.644 51.904C317.166 51.8293 317.708 51.736 318.268 51.624C318.828 51.512 319.35 51.4 319.836 51.288C320.358 51.176 320.732 51.1013 320.956 51.064C321.03 51.064 321.217 51.0267 321.516 50.952C321.814 50.8773 322.15 50.784 322.524 50.672C322.897 50.5973 323.233 50.5227 323.532 50.448C323.868 50.3733 324.073 50.336 324.148 50.336C324.222 50.336 324.428 50.3173 324.764 50.28C325.137 50.2427 325.548 50.2053 325.996 50.168C326.444 50.1307 326.892 50.0933 327.34 50.056C327.788 50.0187 328.142 50 328.404 50H328.964H329.468C329.542 50.0373 329.654 50.0933 329.804 50.168C329.99 50.2427 330.102 50.2987 330.14 50.336C330.214 50.4107 330.289 50.5227 330.364 50.672C330.438 50.8587 330.494 50.9893 330.532 51.064V52.24V53.192C330.494 53.2667 330.382 53.3787 330.196 53.528C330.009 53.7147 329.878 53.8453 329.804 53.92C329.729 53.9573 329.542 54.0133 329.244 54.088C328.982 54.2 328.684 54.312 328.348 54.424C328.049 54.5733 327.75 54.6853 327.452 54.76C327.19 54.872 327.022 54.9467 326.948 54.984C326.91 54.984 326.798 55.04 326.612 55.152C326.425 55.264 326.313 55.32 326.276 55.32C326.201 55.32 326.014 55.3387 325.716 55.376C325.454 55.4133 325.156 55.4507 324.82 55.488C324.521 55.5253 324.222 55.5627 323.924 55.6C323.662 55.6373 323.494 55.656 323.42 55.656C323.345 55.656 323.14 55.6933 322.804 55.768C322.505 55.8427 322.169 55.9173 321.796 55.992C321.46 56.104 321.124 56.1973 320.788 56.272C320.489 56.3467 320.302 56.384 320.228 56.384C320.116 56.384 319.836 56.4213 319.388 56.496C318.94 56.5707 318.454 56.6453 317.932 56.72C317.409 56.7947 316.924 56.8693 316.476 56.944C316.028 57.0187 315.748 57.0747 315.636 57.112C315.598 57.112 315.486 57.1307 315.3 57.168C315.113 57.2053 314.926 57.2427 314.74 57.28C314.553 57.3173 314.366 57.3547 314.18 57.392C313.993 57.4293 313.881 57.448 313.844 57.448C313.769 57.448 313.377 57.448 312.668 57.448C311.996 57.4853 311.454 57.504 311.044 57.504C310.857 57.504 310.614 57.504 310.316 57.504C310.017 57.504 309.7 57.4853 309.364 57.448C309.065 57.448 308.804 57.448 308.58 57.448C308.356 57.448 308.225 57.448 308.188 57.448C308.076 57.448 307.889 57.4293 307.628 57.392C307.366 57.3547 307.086 57.3173 306.788 57.28C306.489 57.2427 306.19 57.2053 305.892 57.168C305.63 57.1307 305.444 57.112 305.332 57.112C305.294 57.0747 305.182 57 304.996 56.888C304.809 56.8133 304.697 56.7573 304.66 56.72C304.585 56.72 304.398 56.664 304.1 56.552C303.838 56.4773 303.67 56.4213 303.596 56.384C303.484 56.3467 303.297 56.2533 303.036 56.104C302.774 55.992 302.494 55.8613 302.196 55.712C301.897 55.5627 301.598 55.4133 301.3 55.264C301.038 55.152 300.852 55.0587 300.74 54.984C300.628 54.9467 300.478 54.8533 300.292 54.704C300.142 54.592 299.974 54.48 299.788 54.368C299.601 54.256 299.433 54.144 299.284 54.032C299.134 53.9573 299.041 53.92 299.004 53.92C298.892 53.8453 298.705 53.6773 298.444 53.416C298.22 53.192 297.977 52.9493 297.716 52.688C297.454 52.4267 297.193 52.1653 296.932 51.904C296.708 51.68 296.558 51.512 296.484 51.4C296.484 51.4 296.428 51.3253 296.316 51.176C296.241 51.0267 296.148 50.8587 296.036 50.672C295.924 50.4853 295.812 50.2987 295.7 50.112C295.588 49.9253 295.494 49.776 295.42 49.664C295.382 49.5893 295.308 49.4587 295.196 49.272C295.084 49.048 294.972 48.824 294.86 48.6C294.748 48.376 294.636 48.1707 294.524 47.984C294.449 47.76 294.393 47.6107 294.356 47.536C294.318 47.424 294.244 47.2373 294.132 46.976C294.057 46.7147 294.02 46.5467 294.02 46.472V45.072ZM302.644 36.728C302.793 36.728 303.129 36.7467 303.652 36.784C304.174 36.8213 304.51 36.8587 304.66 36.896C304.697 36.896 304.828 36.9333 305.052 37.008C305.276 37.0827 305.5 37.176 305.724 37.288C305.948 37.3627 306.153 37.4373 306.34 37.512C306.564 37.5867 306.713 37.624 306.788 37.624H308.3H309.98C310.017 37.624 310.166 37.5867 310.428 37.512C310.726 37.4 310.932 37.3067 311.044 37.232C311.23 37.1573 311.492 37.0453 311.828 36.896C312.164 36.7093 312.369 36.5973 312.444 36.56C312.63 36.4107 312.892 36.1493 313.228 35.776C313.601 35.4027 313.806 35.1787 313.844 35.104C313.881 35.104 313.9 35.0293 313.9 34.88C313.9 34.6933 313.9 34.5627 313.9 34.488C313.9 34.376 313.9 34.2267 313.9 34.04C313.9 33.8533 313.881 33.7413 313.844 33.704C313.844 33.6667 313.806 33.6107 313.732 33.536C313.657 33.4613 313.582 33.4053 313.508 33.368C313.396 33.3307 313.228 33.256 313.004 33.144C312.817 33.032 312.612 32.92 312.388 32.808C312.164 32.696 311.958 32.6027 311.772 32.528C311.585 32.416 311.454 32.3413 311.38 32.304C311.305 32.2667 311.081 32.2107 310.708 32.136C310.372 32.0613 310.129 31.9867 309.98 31.912H309.812H309.588C309.513 31.9493 309.289 32.024 308.916 32.136C308.58 32.2107 308.337 32.2667 308.188 32.304C308.076 32.3413 307.87 32.3973 307.572 32.472C307.31 32.5467 307.161 32.6027 307.124 32.64C307.049 32.6773 306.881 32.7893 306.62 32.976C306.358 33.1627 306.172 33.2933 306.06 33.368C305.985 33.4427 305.854 33.5547 305.668 33.704C305.481 33.816 305.294 33.9467 305.108 34.096C304.921 34.2453 304.734 34.3947 304.548 34.544C304.398 34.656 304.305 34.7307 304.268 34.768L302.868 36.168C302.83 36.2427 302.774 36.336 302.7 36.448C302.662 36.56 302.644 36.6533 302.644 36.728ZM324.645 45.072V43.616C324.645 43.5787 324.682 43.392 324.757 43.056C324.869 42.6827 324.943 42.4027 324.981 42.216C325.018 42.0667 325.074 41.8613 325.149 41.6C325.261 41.3013 325.354 41.0213 325.429 40.76C325.503 40.4987 325.559 40.2747 325.597 40.088C325.671 39.864 325.709 39.752 325.709 39.752C325.746 39.7147 325.802 39.6027 325.877 39.416C325.989 39.192 326.101 38.968 326.213 38.744C326.325 38.52 326.418 38.3147 326.493 38.128C326.605 37.904 326.698 37.736 326.773 37.624C326.847 37.4747 326.978 37.232 327.165 36.896C327.389 36.56 327.613 36.2053 327.837 35.832C328.061 35.4587 328.266 35.104 328.453 34.768C328.677 34.432 328.826 34.1893 328.901 34.04C328.901 34.04 328.957 34.0027 329.069 33.928C329.181 33.816 329.237 33.7413 329.237 33.704C329.274 33.6667 329.367 33.536 329.517 33.312C329.703 33.088 329.89 32.864 330.077 32.64C330.301 32.416 330.487 32.2107 330.637 32.024C330.823 31.8 330.954 31.6507 331.029 31.576C331.103 31.5013 331.253 31.3707 331.477 31.184C331.738 30.96 331.999 30.736 332.261 30.512C332.522 30.288 332.765 30.0827 332.989 29.896C333.213 29.672 333.381 29.5227 333.493 29.448C333.53 29.448 333.623 29.4107 333.773 29.336C333.922 29.224 334.09 29.112 334.277 29C334.463 28.888 334.65 28.776 334.837 28.664C335.023 28.552 335.173 28.4587 335.285 28.384C335.658 28.1973 336.05 28.0107 336.461 27.824C336.909 27.6 337.338 27.432 337.749 27.32C337.861 27.32 338.01 27.3013 338.197 27.264C338.421 27.2267 338.645 27.1893 338.869 27.152C339.093 27.1147 339.298 27.0773 339.485 27.04C339.671 27.0027 339.802 26.984 339.877 26.984C339.914 26.984 340.063 26.984 340.325 26.984C340.623 26.9467 340.847 26.928 340.997 26.928C341.146 26.928 341.333 26.9467 341.557 26.984C341.818 26.984 341.967 26.984 342.005 26.984C342.154 26.984 342.359 27.0213 342.621 27.096C342.919 27.1707 343.218 27.2453 343.517 27.32C343.815 27.3947 344.095 27.4693 344.357 27.544C344.618 27.6187 344.786 27.6747 344.861 27.712C344.973 27.7867 345.159 27.8987 345.421 28.048C345.719 28.1973 346.018 28.3653 346.317 28.552C346.615 28.7387 346.895 28.9253 347.157 29.112C347.418 29.2613 347.586 29.3733 347.661 29.448C347.661 29.448 347.717 29.5413 347.829 29.728C347.978 29.9147 348.127 30.12 348.277 30.344C348.426 30.568 348.575 30.792 348.725 31.016C348.874 31.24 349.005 31.4267 349.117 31.576C349.154 31.6507 349.21 31.7813 349.285 31.968C349.397 32.1547 349.453 32.2667 349.453 32.304C349.49 32.416 349.546 32.752 349.621 33.312C349.695 33.8347 349.751 34.208 349.789 34.432V34.768V35.104C349.751 35.2907 349.695 35.6267 349.621 36.112C349.546 36.56 349.49 36.8213 349.453 36.896C349.378 37.0453 349.247 37.3067 349.061 37.68C348.911 38.016 348.799 38.2213 348.725 38.296C348.65 38.408 348.482 38.6133 348.221 38.912C347.959 39.1733 347.679 39.4533 347.381 39.752C347.082 40.0507 346.783 40.3307 346.485 40.592C346.223 40.8533 346.037 41.04 345.925 41.152C345.775 41.264 345.477 41.4507 345.029 41.712C344.581 41.9733 344.282 42.1413 344.133 42.216C344.133 42.216 344.039 42.2347 343.853 42.272C343.703 42.3093 343.517 42.3467 343.293 42.384C343.069 42.4213 342.826 42.4587 342.565 42.496C342.341 42.5333 342.154 42.552 342.005 42.552C341.855 42.5893 341.65 42.6267 341.389 42.664C341.127 42.7013 340.866 42.7387 340.605 42.776C340.343 42.8133 340.101 42.8507 339.877 42.888C339.69 42.9253 339.578 42.944 339.541 42.944H339.149H338.813C338.738 42.944 338.57 42.9067 338.309 42.832C338.085 42.7573 337.823 42.6827 337.525 42.608C337.226 42.5333 336.927 42.4587 336.629 42.384C336.33 42.3093 336.106 42.2533 335.957 42.216C335.322 42.0293 334.743 41.7867 334.221 41.488C334.146 41.4507 333.959 41.3573 333.661 41.208C333.399 41.0213 333.231 40.8907 333.157 40.816C333.119 40.7787 333.026 40.704 332.877 40.592C332.727 40.48 332.578 40.368 332.429 40.256C332.279 40.144 332.13 40.032 331.981 39.92C331.869 39.808 331.794 39.752 331.757 39.752C331.719 39.752 331.682 39.752 331.645 39.752C331.607 39.7147 331.57 39.696 331.533 39.696L331.365 39.752C331.327 39.752 331.271 39.808 331.197 39.92C331.122 39.9947 331.066 40.0507 331.029 40.088C330.991 40.1627 330.917 40.312 330.805 40.536C330.693 40.7227 330.581 40.928 330.469 41.152C330.357 41.376 330.245 41.6 330.133 41.824C330.058 42.0107 330.002 42.1413 329.965 42.216C329.89 42.328 329.815 42.5147 329.741 42.776C329.666 43.0373 329.629 43.2053 329.629 43.28C329.591 43.28 329.573 43.3733 329.573 43.56C329.573 43.7467 329.573 43.896 329.573 44.008C329.573 44.0827 329.573 44.2133 329.573 44.4C329.573 44.5867 329.591 44.68 329.629 44.68C329.629 44.7547 329.666 44.9413 329.741 45.24C329.815 45.5013 329.89 45.6693 329.965 45.744C330.039 45.856 330.17 46.08 330.357 46.416C330.543 46.7147 330.749 47.032 330.973 47.368C331.197 47.704 331.402 48.0213 331.589 48.32C331.813 48.6187 331.981 48.824 332.093 48.936C332.167 49.0107 332.335 49.1973 332.597 49.496C332.858 49.7573 333.045 49.9253 333.157 50C333.231 50.0747 333.362 50.168 333.549 50.28C333.773 50.4293 333.997 50.5787 334.221 50.728C334.445 50.8773 334.65 51.008 334.837 51.12C335.061 51.2693 335.21 51.3627 335.285 51.4C335.434 51.4747 335.733 51.6053 336.181 51.792C336.629 51.9787 336.909 52.0907 337.021 52.128C337.133 52.1653 337.301 52.2027 337.525 52.24C337.749 52.2773 337.991 52.3147 338.253 52.352C338.551 52.3893 338.813 52.408 339.037 52.408C339.261 52.4453 339.429 52.464 339.541 52.464C339.578 52.464 339.69 52.464 339.877 52.464C340.063 52.5013 340.269 52.52 340.493 52.52C340.754 52.52 340.997 52.52 341.221 52.52C341.482 52.52 341.687 52.52 341.837 52.52C341.986 52.52 342.173 52.52 342.397 52.52C342.658 52.52 342.901 52.52 343.125 52.52C343.386 52.52 343.61 52.5013 343.797 52.464C343.983 52.464 344.095 52.464 344.133 52.464C344.207 52.464 344.506 52.4267 345.029 52.352C345.589 52.2773 345.999 52.2027 346.261 52.128C346.447 52.0907 346.783 52.016 347.269 51.904C347.791 51.8293 348.333 51.736 348.893 51.624C349.453 51.512 349.975 51.4 350.461 51.288C350.983 51.176 351.357 51.1013 351.581 51.064C351.655 51.064 351.842 51.0267 352.141 50.952C352.439 50.8773 352.775 50.784 353.149 50.672C353.522 50.5973 353.858 50.5227 354.157 50.448C354.493 50.3733 354.698 50.336 354.773 50.336C354.847 50.336 355.053 50.3173 355.389 50.28C355.762 50.2427 356.173 50.2053 356.621 50.168C357.069 50.1307 357.517 50.0933 357.965 50.056C358.413 50.0187 358.767 50 359.029 50H359.589H360.093C360.167 50.0373 360.279 50.0933 360.429 50.168C360.615 50.2427 360.727 50.2987 360.765 50.336C360.839 50.4107 360.914 50.5227 360.989 50.672C361.063 50.8587 361.119 50.9893 361.157 51.064V52.24V53.192C361.119 53.2667 361.007 53.3787 360.821 53.528C360.634 53.7147 360.503 53.8453 360.429 53.92C360.354 53.9573 360.167 54.0133 359.869 54.088C359.607 54.2 359.309 54.312 358.973 54.424C358.674 54.5733 358.375 54.6853 358.077 54.76C357.815 54.872 357.647 54.9467 357.573 54.984C357.535 54.984 357.423 55.04 357.237 55.152C357.05 55.264 356.938 55.32 356.901 55.32C356.826 55.32 356.639 55.3387 356.341 55.376C356.079 55.4133 355.781 55.4507 355.445 55.488C355.146 55.5253 354.847 55.5627 354.549 55.6C354.287 55.6373 354.119 55.656 354.045 55.656C353.97 55.656 353.765 55.6933 353.429 55.768C353.13 55.8427 352.794 55.9173 352.421 55.992C352.085 56.104 351.749 56.1973 351.413 56.272C351.114 56.3467 350.927 56.384 350.853 56.384C350.741 56.384 350.461 56.4213 350.013 56.496C349.565 56.5707 349.079 56.6453 348.557 56.72C348.034 56.7947 347.549 56.8693 347.101 56.944C346.653 57.0187 346.373 57.0747 346.261 57.112C346.223 57.112 346.111 57.1307 345.925 57.168C345.738 57.2053 345.551 57.2427 345.365 57.28C345.178 57.3173 344.991 57.3547 344.805 57.392C344.618 57.4293 344.506 57.448 344.469 57.448C344.394 57.448 344.002 57.448 343.293 57.448C342.621 57.4853 342.079 57.504 341.669 57.504C341.482 57.504 341.239 57.504 340.941 57.504C340.642 57.504 340.325 57.4853 339.989 57.448C339.69 57.448 339.429 57.448 339.205 57.448C338.981 57.448 338.85 57.448 338.813 57.448C338.701 57.448 338.514 57.4293 338.253 57.392C337.991 57.3547 337.711 57.3173 337.413 57.28C337.114 57.2427 336.815 57.2053 336.517 57.168C336.255 57.1307 336.069 57.112 335.957 57.112C335.919 57.0747 335.807 57 335.621 56.888C335.434 56.8133 335.322 56.7573 335.285 56.72C335.21 56.72 335.023 56.664 334.725 56.552C334.463 56.4773 334.295 56.4213 334.221 56.384C334.109 56.3467 333.922 56.2533 333.661 56.104C333.399 55.992 333.119 55.8613 332.821 55.712C332.522 55.5627 332.223 55.4133 331.925 55.264C331.663 55.152 331.477 55.0587 331.365 54.984C331.253 54.9467 331.103 54.8533 330.917 54.704C330.767 54.592 330.599 54.48 330.413 54.368C330.226 54.256 330.058 54.144 329.909 54.032C329.759 53.9573 329.666 53.92 329.629 53.92C329.517 53.8453 329.33 53.6773 329.069 53.416C328.845 53.192 328.602 52.9493 328.341 52.688C328.079 52.4267 327.818 52.1653 327.557 51.904C327.333 51.68 327.183 51.512 327.109 51.4C327.109 51.4 327.053 51.3253 326.941 51.176C326.866 51.0267 326.773 50.8587 326.661 50.672C326.549 50.4853 326.437 50.2987 326.325 50.112C326.213 49.9253 326.119 49.776 326.045 49.664C326.007 49.5893 325.933 49.4587 325.821 49.272C325.709 49.048 325.597 48.824 325.485 48.6C325.373 48.376 325.261 48.1707 325.149 47.984C325.074 47.76 325.018 47.6107 324.981 47.536C324.943 47.424 324.869 47.2373 324.757 46.976C324.682 46.7147 324.645 46.5467 324.645 46.472V45.072ZM333.269 36.728C333.418 36.728 333.754 36.7467 334.277 36.784C334.799 36.8213 335.135 36.8587 335.285 36.896C335.322 36.896 335.453 36.9333 335.677 37.008C335.901 37.0827 336.125 37.176 336.349 37.288C336.573 37.3627 336.778 37.4373 336.965 37.512C337.189 37.5867 337.338 37.624 337.413 37.624H338.925H340.605C340.642 37.624 340.791 37.5867 341.053 37.512C341.351 37.4 341.557 37.3067 341.669 37.232C341.855 37.1573 342.117 37.0453 342.453 36.896C342.789 36.7093 342.994 36.5973 343.069 36.56C343.255 36.4107 343.517 36.1493 343.853 35.776C344.226 35.4027 344.431 35.1787 344.469 35.104C344.506 35.104 344.525 35.0293 344.525 34.88C344.525 34.6933 344.525 34.5627 344.525 34.488C344.525 34.376 344.525 34.2267 344.525 34.04C344.525 33.8533 344.506 33.7413 344.469 33.704C344.469 33.6667 344.431 33.6107 344.357 33.536C344.282 33.4613 344.207 33.4053 344.133 33.368C344.021 33.3307 343.853 33.256 343.629 33.144C343.442 33.032 343.237 32.92 343.013 32.808C342.789 32.696 342.583 32.6027 342.397 32.528C342.21 32.416 342.079 32.3413 342.005 32.304C341.93 32.2667 341.706 32.2107 341.333 32.136C340.997 32.0613 340.754 31.9867 340.605 31.912H340.437H340.213C340.138 31.9493 339.914 32.024 339.541 32.136C339.205 32.2107 338.962 32.2667 338.813 32.304C338.701 32.3413 338.495 32.3973 338.197 32.472C337.935 32.5467 337.786 32.6027 337.749 32.64C337.674 32.6773 337.506 32.7893 337.245 32.976C336.983 33.1627 336.797 33.2933 336.685 33.368C336.61 33.4427 336.479 33.5547 336.293 33.704C336.106 33.816 335.919 33.9467 335.733 34.096C335.546 34.2453 335.359 34.3947 335.173 34.544C335.023 34.656 334.93 34.7307 334.893 34.768L333.493 36.168C333.455 36.2427 333.399 36.336 333.325 36.448C333.287 36.56 333.269 36.6533 333.269 36.728ZM358.014 40.088C358.014 39.752 358.014 39.3227 358.014 38.8C358.014 38.2773 358.014 37.7547 358.014 37.232C358.051 36.672 358.07 36.2053 358.07 35.832C358.07 35.4213 358.07 35.1973 358.07 35.16C358.07 35.0853 358.088 34.9173 358.126 34.656C358.163 34.3573 358.2 34.0587 358.238 33.76C358.275 33.424 358.312 33.1253 358.35 32.864C358.387 32.5653 358.406 32.3787 358.406 32.304C358.406 32.2667 358.406 32.1547 358.406 31.968C358.406 31.744 358.406 31.52 358.406 31.296C358.406 31.0347 358.406 30.8107 358.406 30.624C358.406 30.4 358.406 30.2507 358.406 30.176C358.406 30.0267 358.424 29.616 358.462 28.944C358.499 28.2347 358.536 27.488 358.574 26.704C358.648 25.8827 358.704 25.136 358.742 24.464C358.779 23.7547 358.798 23.3067 358.798 23.12V22.896V22.784C358.76 22.7093 358.686 22.5413 358.574 22.28C358.499 21.9813 358.443 21.7947 358.406 21.72V21.552V21.328C358.443 21.2907 358.499 21.1787 358.574 20.992C358.686 20.8053 358.76 20.6933 358.798 20.656V18.864C358.798 18.64 358.816 18.1173 358.854 17.296C358.891 16.4747 358.928 15.5973 358.966 14.664C359.003 13.6933 359.04 12.7973 359.078 11.976C359.115 11.1547 359.134 10.632 359.134 10.408V1.896C359.171 1.82133 359.227 1.70933 359.302 1.56C359.376 1.37333 359.432 1.24266 359.47 1.168C359.544 1.09333 359.675 0.962665 359.862 0.775996C360.048 0.58933 360.16 0.495996 360.198 0.495996C360.235 0.458664 360.347 0.439997 360.534 0.439997C360.72 0.439997 360.851 0.439997 360.926 0.439997C361 0.439997 361.131 0.439997 361.318 0.439997C361.504 0.439997 361.598 0.458664 361.598 0.495996C361.672 0.533332 361.803 0.626665 361.99 0.775996C362.176 0.92533 362.363 1.09333 362.55 1.28C362.736 1.46666 362.904 1.65333 363.054 1.84C363.203 2.02667 363.315 2.15733 363.39 2.232C363.39 2.49333 363.408 2.94133 363.446 3.576C363.483 4.21066 363.52 4.88266 363.558 5.592C363.595 6.30133 363.632 6.97333 363.67 7.608C363.707 8.24267 363.726 8.69067 363.726 8.952C363.726 9.02667 363.726 9.26933 363.726 9.68C363.726 10.0907 363.726 10.576 363.726 11.136C363.763 11.6587 363.782 12.2 363.782 12.76C363.782 13.2827 363.782 13.712 363.782 14.048C363.782 14.384 363.782 14.8133 363.782 15.336C363.782 15.8587 363.763 16.3813 363.726 16.904C363.726 17.3893 363.726 17.8373 363.726 18.248C363.726 18.6213 363.726 18.8267 363.726 18.864C363.726 18.976 363.707 19.2 363.67 19.536C363.632 19.872 363.595 20.2453 363.558 20.656C363.52 21.0293 363.483 21.4027 363.446 21.776C363.408 22.112 363.39 22.3173 363.39 22.392V24.184C363.39 24.2587 363.371 24.4267 363.334 24.688C363.296 24.912 363.24 25.1733 363.166 25.472C363.128 25.7333 363.091 25.9947 363.054 26.256C363.016 26.48 362.998 26.6107 362.998 26.648C362.998 26.6853 362.998 26.816 362.998 27.04C363.035 27.2267 363.035 27.3387 362.998 27.376C362.998 27.4507 362.979 27.6187 362.942 27.88C362.904 28.104 362.867 28.3653 362.83 28.664C362.792 28.9253 362.755 29.1867 362.718 29.448C362.68 29.672 362.662 29.8027 362.662 29.84C362.624 30.064 362.587 30.3813 362.55 30.792C362.512 31.1653 362.475 31.576 362.438 32.024C362.4 32.4347 362.363 32.808 362.326 33.144C362.326 33.48 362.326 33.6853 362.326 33.76C362.326 33.7973 362.326 33.928 362.326 34.152C362.326 34.3387 362.307 34.5813 362.27 34.88C362.27 35.1413 362.27 35.4213 362.27 35.72C362.27 35.9813 362.27 36.1867 362.27 36.336C362.27 36.6347 362.27 37.0827 362.27 37.68C362.307 38.2773 362.326 38.6133 362.326 38.688C362.326 39.0613 362.363 39.6213 362.438 40.368C362.512 41.0773 362.587 41.8053 362.662 42.552C362.736 43.2987 362.792 43.9893 362.83 44.624C362.904 45.2213 362.96 45.5947 362.998 45.744C363.035 45.856 363.11 46.08 363.222 46.416C363.371 46.752 363.52 47.1253 363.67 47.536C363.856 47.9093 364.024 48.2827 364.174 48.656C364.323 48.992 364.416 49.1973 364.454 49.272V49.664V50C364.416 50.0747 364.36 50.1867 364.286 50.336C364.211 50.5227 364.136 50.6533 364.062 50.728C364.062 50.7653 364.006 50.8213 363.894 50.896C363.819 50.9707 363.763 51.0267 363.726 51.064C363.614 51.064 363.371 51.064 362.998 51.064C362.662 51.1013 362.438 51.12 362.326 51.12C362.139 51.12 361.859 51.1013 361.486 51.064C361.112 51.064 360.926 51.064 360.926 51.064C360.851 51.064 360.72 51.008 360.534 50.896C360.384 50.8213 360.272 50.7653 360.198 50.728C360.16 50.6907 360.104 50.6347 360.03 50.56C359.955 50.4853 359.899 50.4107 359.862 50.336C359.787 50.2613 359.656 50.0933 359.47 49.832C359.283 49.5333 359.171 49.3467 359.134 49.272C359.096 49.2347 359.022 49.0667 358.91 48.768C358.835 48.4693 358.798 48.2827 358.798 48.208C358.76 48.1707 358.686 48.0587 358.574 47.872C358.499 47.6853 358.443 47.5733 358.406 47.536C358.406 47.424 358.387 47.256 358.35 47.032C358.312 46.7707 358.275 46.5093 358.238 46.248C358.2 45.9867 358.163 45.744 358.126 45.52C358.088 45.296 358.07 45.1467 358.07 45.072C358.07 45.0347 358.07 44.8107 358.07 44.4C358.07 43.9893 358.051 43.5227 358.014 43C358.014 42.4773 358.014 41.9547 358.014 41.432C358.014 40.872 358.014 40.424 358.014 40.088Z" fill="#79C25A"/>
</svg>
