<svg width="44" height="44" viewBox="0 0 44 44" fill="none" xmlns="http://www.w3.org/2000/svg">
<rect width="44" height="44" rx="12" fill="#F0F7FF"/>
<path d="M20.5992 29.3065C25.3484 29.3065 29.1984 25.4323 29.1984 20.6532C29.1984 15.8742 25.3484 12 20.5992 12C15.85 12 12 15.8742 12 20.6532C12 25.4323 15.85 29.3065 20.5992 29.3065Z" fill="#66B3FA" fill-opacity="0.4" stroke="#66B3FA" stroke-width="2"/>
<path opacity="0.4" d="M30.6746 31.9553C30.3406 31.9444 30.023 31.807 29.7854 31.5705L27.749 29.1901C27.3124 28.7909 27.2767 28.1123 27.6689 27.6689V27.6689C27.8525 27.4831 28.1022 27.3786 28.3626 27.3786C28.6229 27.3786 28.8726 27.4831 29.0562 27.6689L31.6173 29.7181C31.9862 30.0957 32.1 30.6562 31.9079 31.1492C31.7158 31.6422 31.2536 31.9754 30.728 32L30.6746 31.9553Z" fill="#66B3FA"/>
</svg>
