<svg width="36" height="36" viewBox="0 0 36 36" fill="none" xmlns="http://www.w3.org/2000/svg">
<rect x="0.15" y="0.15" width="35.7" height="35.7" rx="11.85" fill="white"/>
<path d="M17.5053 13L16.1309 15.1379C15.8227 15.6092 16.0796 16 16.6832 16H18.3145C18.931 16 19.175 16.3908 18.8668 16.8621L17.5053 19" stroke="#EFBD66" stroke-width="1.5" stroke-linecap="round" stroke-linejoin="round"/>
<path d="M13.7798 24.9377V23.6408C11.156 22.0867 9 19.0569 9 15.837C9 10.3027 14.1905 5.9648 20.054 7.21699C22.6322 7.776 24.8909 9.45304 26.0659 11.7674C28.4501 16.4631 25.9404 21.4494 22.2557 23.6296V24.9265C22.2557 25.2507 22.3812 25.9998 21.1606 25.9998H14.8749C13.6201 26.011 13.7798 25.5302 13.7798 24.9377Z" stroke="#EFBD66" stroke-width="1.5" stroke-linecap="round" stroke-linejoin="round"/>
<path d="M14 29C16.6171 27.6667 19.3829 27.6667 22 29" stroke="#EFBD66" stroke-width="1.5" stroke-linecap="round" stroke-linejoin="round"/>
<rect x="0.15" y="0.15" width="35.7" height="35.7" rx="11.85" stroke="#EFBD66" stroke-width="0.3"/>
</svg>
