<svg width="24" height="24" viewBox="0 0 24 24" fill="none" xmlns="http://www.w3.org/2000/svg">
<path fill-rule="evenodd" clip-rule="evenodd" d="M7.50908 22.4444C7.06732 22.4444 6.64808 22.4101 6.25351 22.3426L6.01976 22.2986C3.47752 21.77 2 19.8229 2 16.8592V6.58521C2 6.22708 2.02144 5.88397 2.06433 5.55587C2.43854 2.67696 4.41679 1 7.50908 1H15.792C19.2188 1 21.2678 3.05867 21.3 6.50264V6.58521V16.8592C21.3 20.3515 19.2456 22.4444 15.792 22.4444H7.50908ZM7.50909 2.56224C4.87571 2.56224 3.5408 3.91646 3.5408 6.58522V16.8593C3.5408 19.528 4.87571 20.8822 7.50909 20.8822H15.7824C18.4147 20.8822 19.741 19.528 19.741 16.8593V6.58522C19.741 3.91646 18.4147 2.56224 15.7824 2.56224H7.50909ZM16.267 16.262C16.267 15.8331 15.925 15.4857 15.5025 15.4857H7.77075C7.34829 15.4857 7.00518 15.8331 7.00518 16.262C7.00518 16.6909 7.34829 17.0383 7.77075 17.0383H15.5025C15.925 17.0383 16.267 16.6909 16.267 16.262ZM15.5025 10.9405C15.7974 10.9084 16.0858 11.0499 16.2434 11.304C16.401 11.5603 16.401 11.8841 16.2434 12.1404C16.0858 12.3945 15.7974 12.536 15.5025 12.5038H7.77071C7.37828 12.4588 7.08127 12.1232 7.08127 11.7222C7.08127 11.3212 7.37828 10.9845 7.77071 10.9405H15.5025ZM11.4109 7.1878C11.4109 6.78679 11.1139 6.45011 10.7214 6.40615H7.78032C7.38682 6.45011 7.08981 6.78679 7.08981 7.1878C7.08981 7.58774 7.38682 7.92442 7.78032 7.96838H10.7214C11.1139 7.92442 11.4109 7.58774 11.4109 7.1878Z" fill="#EFBD66"/>
</svg>
