<svg width="48" height="98" viewBox="0 0 48 98" fill="none" xmlns="http://www.w3.org/2000/svg">
<g clip-path="url(#clip0_954_4820)">
<path d="M29.6589 23.8076C29.6589 25.9191 29.6589 28.2418 29.6589 30.3533C29.4475 48.9349 29.0246 67.7275 28.8131 86.3091C28.8131 88.4206 28.8131 90.321 28.6016 92.4325C28.3902 95.1775 27.7558 98.556 24.1611 97.9225C22.6809 97.7114 20.9892 94.5441 20.7778 92.6437C19.9319 77.0183 19.2976 61.6041 18.6632 45.9787C18.4517 42.3891 18.6632 38.7995 16.7601 34.9987C14.2226 39.2218 12.108 43.656 9.3591 47.668C8.09037 49.5683 4.91852 51.6799 3.01541 51.2576C-0.790812 50.4129 -0.367899 46.1899 0.900841 43.656C6.39871 30.9868 11.8966 18.1064 18.4517 5.85952C22.6809 -1.95317 29.0246 -1.95317 33.2537 5.85952C38.963 16.206 43.1922 27.3972 47.8442 38.166C48.4786 39.433 46.9984 41.5445 46.5755 43.2337C44.8838 42.6003 42.3463 42.6003 41.5005 41.3333C39.3859 38.7995 38.1172 35.421 36.4255 32.4649C34.7339 29.2976 33.0423 26.1303 31.3506 23.1741C30.9277 23.5964 30.2933 23.8076 29.6589 23.8076Z" fill="#79C25A"/>
</g>
<defs>
<clipPath id="clip0_954_4820">
<rect width="48" height="98" fill="white" transform="translate(48 98) rotate(-180)"/>
</clipPath>
</defs>
</svg>
