<svg width="32" height="32" viewBox="0 0 32 32" fill="none" xmlns="http://www.w3.org/2000/svg">
<path fill-rule="evenodd" clip-rule="evenodd" d="M16.0059 2.66663C12.0939 2.66663 8.92253 5.85148 8.92253 9.78019C8.92253 13.7089 12.0939 16.8938 16.0059 16.8938C19.9179 16.8938 23.0893 13.7089 23.0893 9.78019C23.0893 5.85148 19.9179 2.66663 16.0059 2.66663ZM13.1069 19.7612C12.0699 19.8332 11.0218 19.9812 9.98789 20.2028C7.9924 20.6138 6.39597 21.4351 5.71648 22.7998C5.4602 23.3336 5.33135 23.9051 5.33352 24.4836C5.33275 25.058 5.46056 25.6302 5.70765 26.1537C6.36009 27.5028 7.77057 28.2662 9.67515 28.6894L10.0163 28.7606C11.0221 28.9876 12.0706 29.1403 13.1261 29.2121C13.216 29.2384 13.4303 29.2629 13.6641 29.2748L13.8565 29.2821C13.9554 29.2844 14.0676 29.2849 14.2348 29.2849C15.752 29.3684 17.3247 29.3441 18.8902 29.2108C19.7244 29.1537 20.5643 29.0446 21.3971 28.8848L22.0203 28.7554C24.0769 28.3497 25.6169 27.5781 26.2916 26.1552C26.7918 25.0988 26.7918 23.8729 26.2918 22.817C25.6189 21.3977 24.0984 20.6325 22.0046 20.2012C21.1832 20.0258 20.3484 19.8961 19.5077 19.8132L18.8931 19.7612C16.9681 19.5914 15.0319 19.5914 13.1069 19.7612Z" fill="#F5D7A3"/>
</svg>
