<svg width="3852" height="588" viewBox="0 0 3852 588" fill="none" xmlns="http://www.w3.org/2000/svg">
<g filter="url(#filter0_d_847_20768)">
<path d="M3660.41 30H1882C1873.16 30 1866 37.1634 1866 46V502C1866 510.837 1873.16 518 1882 518H3660.38C3666.42 518 3671.95 514.59 3674.67 509.186L3789.79 280.201C3792.07 275.663 3792.06 270.311 3789.76 265.781L3674.68 38.7656C3671.96 33.3885 3666.44 30 3660.41 30Z" fill="white"/>
<path d="M1882 33H3660.41C3665.31 33 3669.79 35.7532 3672.01 40.122L3674.68 38.7656L3672.01 40.1221L3787.09 267.137C3788.95 270.818 3788.96 275.167 3787.11 278.854L3671.99 507.839C3669.78 512.229 3665.29 515 3660.38 515H1882C1874.82 515 1869 509.18 1869 502V46C1869 38.8203 1874.82 33 1882 33Z" stroke="#EFBD66" stroke-width="6"/>
</g>
<g filter="url(#filter1_d_847_20768)">
<path d="M1834.41 30H56C47.1634 30 40 37.1634 40 46V502C40 510.837 47.1634 518 56 518H1834.38C1840.42 518 1845.95 514.59 1848.67 509.186L1963.79 280.201C1966.07 275.663 1966.06 270.311 1963.76 265.781L1848.68 38.7656C1845.96 33.3885 1840.44 30 1834.41 30Z" fill="white"/>
<path d="M56 33H1834.41C1839.31 33 1843.79 35.7532 1846.01 40.122L1848.68 38.7656L1846.01 40.1221L1961.09 267.137C1962.95 270.818 1962.96 275.167 1961.11 278.854L1845.99 507.839C1843.78 512.229 1839.29 515 1834.38 515H56C48.8203 515 43 509.18 43 502V46C43 38.8203 48.8203 33 56 33Z" stroke="#EFBD66" stroke-width="6"/>
</g>
<path d="M190.847 117.699C192.624 117.699 194.216 117.399 195.621 116.8C197.026 116.201 198.215 115.364 199.186 114.289C200.157 113.194 200.901 111.902 201.418 110.414C201.935 108.905 202.193 107.242 202.193 105.423V78.484H208.765V105.423C208.765 108.027 208.352 110.435 207.525 112.646C206.698 114.857 205.51 116.769 203.96 118.381C202.41 119.993 200.529 121.254 198.318 122.163C196.107 123.072 193.616 123.527 190.847 123.527C188.078 123.527 185.587 123.072 183.376 122.163C181.165 121.254 179.284 119.993 177.734 118.381C176.184 116.769 174.996 114.857 174.169 112.646C173.342 110.435 172.929 108.027 172.929 105.423V78.484H179.532V105.392C179.532 107.211 179.78 108.874 180.276 110.383C180.793 111.892 181.537 113.194 182.508 114.289C183.479 115.364 184.668 116.201 186.073 116.8C187.478 117.399 189.07 117.699 190.847 117.699ZM223.036 115.25C224.028 116.552 225.092 117.461 226.229 117.978C227.386 118.495 228.678 118.753 230.104 118.753C232.873 118.753 235.012 117.761 236.521 115.777C238.05 113.772 238.815 110.858 238.815 107.035C238.815 105.03 238.639 103.325 238.288 101.92C237.957 100.494 237.461 99.3367 236.8 98.448C236.159 97.5387 235.364 96.8773 234.413 96.464C233.462 96.03 232.388 95.813 231.189 95.813C229.432 95.813 227.903 96.2057 226.601 96.991C225.32 97.7763 224.131 98.8923 223.036 100.339V115.25ZM222.726 96.216C223.387 95.4307 224.09 94.7177 224.834 94.077C225.599 93.4157 226.415 92.8577 227.283 92.403C228.151 91.9277 229.071 91.566 230.042 91.318C231.034 91.0493 232.088 90.915 233.204 90.915C235.002 90.915 236.624 91.2663 238.071 91.969C239.538 92.6717 240.789 93.705 241.822 95.069C242.855 96.433 243.651 98.1173 244.209 100.122C244.788 102.127 245.077 104.431 245.077 107.035C245.077 109.37 244.757 111.54 244.116 113.545C243.496 115.529 242.597 117.255 241.419 118.722C240.262 120.189 238.836 121.347 237.141 122.194C235.467 123.021 233.576 123.434 231.468 123.434C229.587 123.434 227.975 123.124 226.632 122.504C225.289 121.884 224.09 121.016 223.036 119.9V133.571H216.991V91.504H220.618C221.465 91.504 221.992 91.907 222.199 92.713L222.726 96.216ZM272.171 99.13C271.179 97.828 270.104 96.9187 268.947 96.402C267.81 95.8853 266.529 95.627 265.103 95.627C262.334 95.627 260.184 96.6293 258.655 98.634C257.146 100.618 256.392 103.522 256.392 107.345C256.392 109.35 256.557 111.065 256.888 112.491C257.239 113.896 257.735 115.054 258.376 115.963C259.037 116.852 259.843 117.513 260.794 117.947C261.745 118.36 262.819 118.567 264.018 118.567C265.775 118.567 267.294 118.174 268.575 117.389C269.856 116.604 271.055 115.498 272.171 114.072V99.13ZM278.247 77.244V123H274.589C273.742 123 273.215 122.597 273.008 121.791L272.481 118.164C271.138 119.755 269.608 121.037 267.893 122.008C266.198 122.959 264.235 123.434 262.003 123.434C260.205 123.434 258.572 123.083 257.105 122.38C255.658 121.677 254.418 120.654 253.385 119.311C252.352 117.947 251.556 116.263 250.998 114.258C250.44 112.253 250.161 109.949 250.161 107.345C250.161 105.01 250.471 102.84 251.091 100.835C251.711 98.8303 252.61 97.0943 253.788 95.627C254.966 94.1597 256.392 93.0127 258.066 92.186C259.74 91.3387 261.631 90.915 263.739 90.915C265.64 90.915 267.252 91.225 268.575 91.845C269.918 92.465 271.117 93.3433 272.171 94.48V77.244H278.247ZM303.607 109.019C301.147 109.102 299.06 109.298 297.345 109.608C295.629 109.897 294.234 110.29 293.16 110.786C292.085 111.282 291.31 111.871 290.835 112.553C290.359 113.214 290.122 113.958 290.122 114.785C290.122 115.57 290.246 116.252 290.494 116.831C290.762 117.389 291.114 117.854 291.548 118.226C292.002 118.577 292.529 118.836 293.129 119.001C293.728 119.166 294.379 119.249 295.082 119.249C296.012 119.249 296.859 119.156 297.624 118.97C298.409 118.784 299.143 118.526 299.825 118.195C300.507 117.844 301.158 117.42 301.778 116.924C302.398 116.428 303.007 115.86 303.607 115.219V109.019ZM285.875 95.906C287.631 94.232 289.533 92.9817 291.579 92.155C293.645 91.3283 295.908 90.915 298.368 90.915C300.166 90.915 301.757 91.2147 303.142 91.814C304.526 92.3927 305.694 93.209 306.645 94.263C307.595 95.317 308.308 96.5777 308.784 98.045C309.28 99.5123 309.528 101.135 309.528 102.912V123H306.831C306.231 123 305.777 122.907 305.467 122.721C305.157 122.514 304.909 122.142 304.723 121.605L304.072 118.846C303.266 119.59 302.47 120.251 301.685 120.83C300.899 121.388 300.073 121.874 299.205 122.287C298.357 122.68 297.448 122.979 296.477 123.186C295.505 123.393 294.431 123.496 293.253 123.496C292.013 123.496 290.845 123.331 289.75 123C288.675 122.649 287.735 122.122 286.929 121.419C286.123 120.716 285.482 119.838 285.007 118.784C284.552 117.73 284.325 116.5 284.325 115.095C284.325 113.855 284.655 112.667 285.317 111.53C285.999 110.373 287.094 109.339 288.603 108.43C290.132 107.521 292.116 106.777 294.555 106.198C297.014 105.619 300.031 105.289 303.607 105.206V102.912C303.607 100.535 303.1 98.758 302.088 97.58C301.075 96.402 299.587 95.813 297.624 95.813C296.301 95.813 295.185 95.9783 294.276 96.309C293.387 96.6397 292.612 97.0117 291.951 97.425C291.31 97.8177 290.742 98.1793 290.246 98.51C289.77 98.8407 289.274 99.006 288.758 99.006C288.344 99.006 287.983 98.8923 287.673 98.665C287.383 98.4377 287.146 98.169 286.96 97.859L285.875 95.906ZM327.054 123.496C324.512 123.496 322.549 122.783 321.164 121.357C319.8 119.931 319.118 117.895 319.118 115.25V96.402H315.46C315.109 96.402 314.809 96.2987 314.561 96.092C314.334 95.8647 314.22 95.534 314.22 95.1V92.651L319.335 91.938L320.699 82.545C320.782 82.1937 320.937 81.925 321.164 81.739C321.412 81.5323 321.722 81.429 322.094 81.429H325.163V92H334.091V96.402H325.163V114.847C325.163 116.087 325.463 117.017 326.062 117.637C326.682 118.236 327.468 118.536 328.418 118.536C328.976 118.536 329.452 118.464 329.844 118.319C330.258 118.174 330.609 118.019 330.898 117.854C331.188 117.668 331.436 117.503 331.642 117.358C331.849 117.213 332.035 117.141 332.2 117.141C332.407 117.141 332.562 117.193 332.665 117.296C332.789 117.379 332.913 117.523 333.037 117.73L334.835 120.644C333.843 121.553 332.665 122.256 331.301 122.752C329.937 123.248 328.522 123.496 327.054 123.496ZM360.34 103.749C360.34 102.55 360.165 101.445 359.813 100.432C359.483 99.4193 358.987 98.541 358.325 97.797C357.664 97.053 356.858 96.4743 355.907 96.061C354.957 95.6477 353.861 95.441 352.621 95.441C350.079 95.441 348.075 96.1747 346.607 97.642C345.161 99.1093 344.241 101.145 343.848 103.749H360.34ZM365.331 118.505C364.587 119.373 363.73 120.127 362.758 120.768C361.787 121.388 360.754 121.894 359.658 122.287C358.563 122.68 357.426 122.969 356.248 123.155C355.091 123.341 353.944 123.434 352.807 123.434C350.637 123.434 348.622 123.072 346.762 122.349C344.923 121.605 343.321 120.53 341.957 119.125C340.614 117.699 339.56 115.942 338.795 113.855C338.051 111.747 337.679 109.329 337.679 106.601C337.679 104.41 338.02 102.375 338.702 100.494C339.384 98.5927 340.356 96.9393 341.616 95.534C342.898 94.1287 344.458 93.023 346.297 92.217C348.137 91.411 350.203 91.008 352.497 91.008C354.419 91.008 356.186 91.3283 357.798 91.969C359.431 92.589 360.836 93.4983 362.014 94.697C363.192 95.8957 364.112 97.3733 364.773 99.13C365.455 100.887 365.796 102.891 365.796 105.144C365.796 106.074 365.693 106.704 365.486 107.035C365.28 107.345 364.897 107.5 364.339 107.5H343.693C343.755 109.381 344.024 111.024 344.499 112.429C344.975 113.814 345.626 114.971 346.452 115.901C347.3 116.831 348.302 117.523 349.459 117.978C350.617 118.433 351.908 118.66 353.334 118.66C354.678 118.66 355.835 118.505 356.806 118.195C357.798 117.885 358.646 117.554 359.348 117.203C360.072 116.831 360.671 116.49 361.146 116.18C361.642 115.87 362.076 115.715 362.448 115.715C362.944 115.715 363.327 115.901 363.595 116.273L365.331 118.505Z" fill="#102042"/>
<path d="M182.634 209.462C183.33 209.462 183.966 209.432 184.542 209.372C185.13 209.3 185.682 209.198 186.198 209.066C186.714 208.934 187.2 208.778 187.656 208.598C188.112 208.406 188.568 208.19 189.024 207.95V202.262H185.028C184.8 202.262 184.614 202.196 184.47 202.064C184.338 201.932 184.272 201.77 184.272 201.578V199.598H192.192V209.498C191.544 209.966 190.866 210.374 190.158 210.722C189.462 211.07 188.712 211.364 187.908 211.604C187.116 211.832 186.264 212 185.352 212.108C184.44 212.228 183.45 212.288 182.382 212.288C180.51 212.288 178.794 211.97 177.234 211.334C175.674 210.686 174.33 209.786 173.202 208.634C172.074 207.47 171.192 206.078 170.556 204.458C169.932 202.838 169.62 201.056 169.62 199.112C169.62 197.144 169.926 195.35 170.538 193.73C171.162 192.11 172.044 190.724 173.184 189.572C174.336 188.408 175.722 187.508 177.342 186.872C178.974 186.236 180.798 185.918 182.814 185.918C183.834 185.918 184.782 185.996 185.658 186.152C186.534 186.296 187.344 186.512 188.088 186.8C188.844 187.076 189.54 187.418 190.176 187.826C190.812 188.222 191.406 188.672 191.958 189.176L190.968 190.76C190.764 191.084 190.5 191.246 190.176 191.246C189.984 191.246 189.774 191.18 189.546 191.048C189.246 190.88 188.91 190.676 188.538 190.436C188.166 190.196 187.71 189.968 187.17 189.752C186.642 189.524 186.012 189.332 185.28 189.176C184.56 189.02 183.702 188.942 182.706 188.942C181.254 188.942 179.94 189.182 178.764 189.662C177.588 190.13 176.586 190.808 175.758 191.696C174.93 192.572 174.294 193.64 173.85 194.9C173.406 196.148 173.184 197.552 173.184 199.112C173.184 200.744 173.412 202.202 173.868 203.486C174.336 204.758 174.99 205.838 175.83 206.726C176.67 207.614 177.666 208.292 178.818 208.76C179.97 209.228 181.242 209.462 182.634 209.462ZM197.066 212V193.766H198.902C199.25 193.766 199.49 193.832 199.622 193.964C199.754 194.096 199.844 194.324 199.892 194.648L200.108 197.492C200.732 196.22 201.5 195.23 202.412 194.522C203.336 193.802 204.416 193.442 205.652 193.442C206.156 193.442 206.612 193.502 207.02 193.622C207.428 193.73 207.806 193.886 208.154 194.09L207.74 196.484C207.656 196.784 207.47 196.934 207.182 196.934C207.014 196.934 206.756 196.88 206.408 196.772C206.06 196.652 205.574 196.592 204.95 196.592C203.834 196.592 202.898 196.916 202.142 197.564C201.398 198.212 200.774 199.154 200.27 200.39V212H197.066ZM218.965 193.478C220.297 193.478 221.497 193.7 222.565 194.144C223.645 194.588 224.557 195.218 225.301 196.034C226.057 196.85 226.633 197.84 227.029 199.004C227.437 200.156 227.641 201.446 227.641 202.874C227.641 204.314 227.437 205.61 227.029 206.762C226.633 207.914 226.057 208.898 225.301 209.714C224.557 210.53 223.645 211.16 222.565 211.604C221.497 212.036 220.297 212.252 218.965 212.252C217.633 212.252 216.427 212.036 215.347 211.604C214.279 211.16 213.367 210.53 212.611 209.714C211.855 208.898 211.273 207.914 210.865 206.762C210.457 205.61 210.253 204.314 210.253 202.874C210.253 201.446 210.457 200.156 210.865 199.004C211.273 197.84 211.855 196.85 212.611 196.034C213.367 195.218 214.279 194.588 215.347 194.144C216.427 193.7 217.633 193.478 218.965 193.478ZM218.965 209.75C220.765 209.75 222.109 209.15 222.997 207.95C223.885 206.738 224.329 205.052 224.329 202.892C224.329 200.72 223.885 199.028 222.997 197.816C222.109 196.604 220.765 195.998 218.965 195.998C218.053 195.998 217.261 196.154 216.589 196.466C215.917 196.778 215.353 197.228 214.897 197.816C214.453 198.404 214.117 199.13 213.889 199.994C213.673 200.846 213.565 201.812 213.565 202.892C213.565 203.972 213.673 204.938 213.889 205.79C214.117 206.642 214.453 207.362 214.897 207.95C215.353 208.526 215.917 208.97 216.589 209.282C217.261 209.594 218.053 209.75 218.965 209.75ZM234.361 193.766V205.394C234.361 206.774 234.679 207.842 235.315 208.598C235.951 209.354 236.911 209.732 238.195 209.732C239.131 209.732 240.013 209.51 240.841 209.066C241.669 208.622 242.431 208.004 243.127 207.212V193.766H246.331V212H244.423C243.967 212 243.679 211.778 243.559 211.334L243.307 209.372C242.515 210.248 241.627 210.956 240.643 211.496C239.659 212.024 238.531 212.288 237.259 212.288C236.263 212.288 235.381 212.126 234.613 211.802C233.857 211.466 233.221 210.998 232.705 210.398C232.189 209.798 231.799 209.072 231.535 208.22C231.283 207.368 231.157 206.426 231.157 205.394V193.766H234.361ZM251.593 218.174V193.766H253.501C253.957 193.766 254.245 193.988 254.365 194.432L254.635 196.592C255.415 195.644 256.303 194.882 257.299 194.306C258.307 193.73 259.465 193.442 260.773 193.442C261.817 193.442 262.765 193.646 263.617 194.054C264.469 194.45 265.195 195.044 265.795 195.836C266.395 196.616 266.857 197.588 267.181 198.752C267.505 199.916 267.667 201.254 267.667 202.766C267.667 204.11 267.487 205.364 267.127 206.528C266.767 207.68 266.251 208.682 265.579 209.534C264.907 210.374 264.079 211.04 263.095 211.532C262.123 212.012 261.025 212.252 259.801 212.252C258.673 212.252 257.707 212.066 256.903 211.694C256.111 211.322 255.409 210.794 254.797 210.11V218.174H251.593ZM259.711 196.034C258.667 196.034 257.749 196.274 256.957 196.754C256.177 197.234 255.457 197.912 254.797 198.788V207.608C255.385 208.4 256.027 208.958 256.723 209.282C257.431 209.606 258.217 209.768 259.081 209.768C260.773 209.768 262.075 209.162 262.987 207.95C263.899 206.738 264.355 205.01 264.355 202.766C264.355 201.578 264.247 200.558 264.031 199.706C263.827 198.854 263.527 198.158 263.131 197.618C262.735 197.066 262.249 196.664 261.673 196.412C261.097 196.16 260.443 196.034 259.711 196.034ZM278.417 218.174V193.766H280.325C280.781 193.766 281.069 193.988 281.189 194.432L281.459 196.592C282.239 195.644 283.127 194.882 284.123 194.306C285.131 193.73 286.289 193.442 287.597 193.442C288.641 193.442 289.589 193.646 290.441 194.054C291.293 194.45 292.019 195.044 292.619 195.836C293.219 196.616 293.681 197.588 294.005 198.752C294.329 199.916 294.491 201.254 294.491 202.766C294.491 204.11 294.311 205.364 293.951 206.528C293.591 207.68 293.075 208.682 292.403 209.534C291.731 210.374 290.903 211.04 289.919 211.532C288.947 212.012 287.849 212.252 286.625 212.252C285.497 212.252 284.531 212.066 283.727 211.694C282.935 211.322 282.233 210.794 281.621 210.11V218.174H278.417ZM286.535 196.034C285.491 196.034 284.573 196.274 283.781 196.754C283.001 197.234 282.281 197.912 281.621 198.788V207.608C282.209 208.4 282.851 208.958 283.547 209.282C284.255 209.606 285.041 209.768 285.905 209.768C287.597 209.768 288.899 209.162 289.811 207.95C290.723 206.738 291.179 205.01 291.179 202.766C291.179 201.578 291.071 200.558 290.855 199.706C290.651 198.854 290.351 198.158 289.955 197.618C289.559 197.066 289.073 196.664 288.497 196.412C287.921 196.16 287.267 196.034 286.535 196.034ZM298.28 212V193.766H300.116C300.464 193.766 300.704 193.832 300.836 193.964C300.968 194.096 301.058 194.324 301.106 194.648L301.322 197.492C301.946 196.22 302.714 195.23 303.626 194.522C304.55 193.802 305.63 193.442 306.866 193.442C307.37 193.442 307.826 193.502 308.234 193.622C308.642 193.73 309.02 193.886 309.368 194.09L308.954 196.484C308.87 196.784 308.684 196.934 308.396 196.934C308.228 196.934 307.97 196.88 307.622 196.772C307.274 196.652 306.788 196.592 306.164 196.592C305.048 196.592 304.112 196.916 303.356 197.564C302.612 198.212 301.988 199.154 301.484 200.39V212H298.28ZM325.524 212H324.102C323.79 212 323.538 211.952 323.346 211.856C323.154 211.76 323.028 211.556 322.968 211.244L322.608 209.552C322.128 209.984 321.66 210.374 321.204 210.722C320.748 211.058 320.268 211.346 319.764 211.586C319.26 211.814 318.72 211.988 318.144 212.108C317.58 212.228 316.95 212.288 316.254 212.288C315.546 212.288 314.88 212.192 314.256 212C313.644 211.796 313.11 211.496 312.654 211.1C312.198 210.704 311.832 210.206 311.556 209.606C311.292 208.994 311.16 208.274 311.16 207.446C311.16 206.726 311.358 206.036 311.754 205.376C312.15 204.704 312.786 204.11 313.662 203.594C314.55 203.078 315.708 202.658 317.136 202.334C318.564 201.998 320.31 201.806 322.374 201.758V200.336C322.374 198.92 322.068 197.852 321.456 197.132C320.856 196.4 319.962 196.034 318.774 196.034C317.994 196.034 317.334 196.136 316.794 196.34C316.266 196.532 315.804 196.754 315.408 197.006C315.024 197.246 314.688 197.468 314.4 197.672C314.124 197.864 313.848 197.96 313.572 197.96C313.356 197.96 313.164 197.906 312.996 197.798C312.84 197.678 312.714 197.534 312.618 197.366L312.042 196.34C313.05 195.368 314.136 194.642 315.3 194.162C316.464 193.682 317.754 193.442 319.17 193.442C320.19 193.442 321.096 193.61 321.888 193.946C322.68 194.282 323.346 194.75 323.886 195.35C324.426 195.95 324.834 196.676 325.11 197.528C325.386 198.38 325.524 199.316 325.524 200.336V212ZM317.208 210.038C317.772 210.038 318.288 209.984 318.756 209.876C319.224 209.756 319.662 209.594 320.07 209.39C320.49 209.174 320.886 208.916 321.258 208.616C321.642 208.316 322.014 207.974 322.374 207.59V203.792C320.898 203.84 319.644 203.96 318.612 204.152C317.58 204.332 316.74 204.572 316.092 204.872C315.444 205.172 314.97 205.526 314.67 205.934C314.382 206.342 314.238 206.798 314.238 207.302C314.238 207.782 314.316 208.196 314.472 208.544C314.628 208.892 314.838 209.18 315.102 209.408C315.366 209.624 315.678 209.786 316.038 209.894C316.398 209.99 316.788 210.038 317.208 210.038ZM335.162 217.382C335.054 217.622 334.916 217.814 334.748 217.958C334.592 218.102 334.346 218.174 334.01 218.174H331.634L334.964 210.938L327.44 193.766H330.212C330.488 193.766 330.704 193.838 330.86 193.982C331.016 194.114 331.13 194.264 331.202 194.432L336.08 205.916C336.188 206.18 336.278 206.444 336.35 206.708C336.434 206.972 336.506 207.242 336.566 207.518C336.65 207.242 336.734 206.972 336.818 206.708C336.902 206.444 336.998 206.174 337.105 205.898L341.84 194.432C341.912 194.24 342.032 194.084 342.2 193.964C342.38 193.832 342.572 193.766 342.776 193.766H345.332L335.162 217.382ZM354.998 193.478C356.09 193.478 357.098 193.664 358.022 194.036C358.946 194.396 359.744 194.924 360.416 195.62C361.088 196.304 361.61 197.156 361.982 198.176C362.366 199.184 362.558 200.336 362.558 201.632C362.558 202.136 362.504 202.472 362.396 202.64C362.288 202.808 362.084 202.892 361.784 202.892H349.652C349.676 204.044 349.832 205.046 350.12 205.898C350.408 206.75 350.804 207.464 351.308 208.04C351.812 208.604 352.412 209.03 353.108 209.318C353.804 209.594 354.584 209.732 355.448 209.732C356.252 209.732 356.942 209.642 357.518 209.462C358.106 209.27 358.61 209.066 359.03 208.85C359.45 208.634 359.798 208.436 360.074 208.256C360.362 208.064 360.608 207.968 360.812 207.968C361.076 207.968 361.28 208.07 361.424 208.274L362.324 209.444C361.928 209.924 361.454 210.344 360.902 210.704C360.35 211.052 359.756 211.34 359.12 211.568C358.496 211.796 357.848 211.964 357.176 212.072C356.504 212.192 355.838 212.252 355.178 212.252C353.918 212.252 352.754 212.042 351.686 211.622C350.63 211.19 349.712 210.566 348.932 209.75C348.164 208.922 347.564 207.902 347.132 206.69C346.7 205.478 346.484 204.086 346.484 202.514C346.484 201.242 346.676 200.054 347.06 198.95C347.456 197.846 348.02 196.892 348.752 196.088C349.484 195.272 350.378 194.636 351.434 194.18C352.49 193.712 353.678 193.478 354.998 193.478ZM355.07 195.836C353.522 195.836 352.304 196.286 351.416 197.186C350.528 198.074 349.976 199.31 349.76 200.894H359.678C359.678 200.15 359.576 199.472 359.372 198.86C359.168 198.236 358.868 197.702 358.472 197.258C358.076 196.802 357.59 196.454 357.014 196.214C356.45 195.962 355.802 195.836 355.07 195.836ZM366.659 212V193.766H368.495C368.843 193.766 369.083 193.832 369.215 193.964C369.347 194.096 369.437 194.324 369.485 194.648L369.701 197.492C370.325 196.22 371.093 195.23 372.005 194.522C372.929 193.802 374.009 193.442 375.245 193.442C375.749 193.442 376.205 193.502 376.613 193.622C377.021 193.73 377.399 193.886 377.747 194.09L377.333 196.484C377.249 196.784 377.063 196.934 376.775 196.934C376.607 196.934 376.349 196.88 376.001 196.772C375.653 196.652 375.167 196.592 374.543 196.592C373.427 196.592 372.491 196.916 371.735 197.564C370.991 198.212 370.367 199.154 369.863 200.39V212H366.659ZM189.312 249.672C189.504 249.672 189.678 249.75 189.834 249.906L191.202 251.4C190.146 252.624 188.862 253.578 187.35 254.262C185.85 254.946 184.038 255.288 181.914 255.288C180.054 255.288 178.368 254.97 176.856 254.334C175.344 253.686 174.054 252.786 172.986 251.634C171.918 250.47 171.09 249.078 170.502 247.458C169.914 245.838 169.62 244.056 169.62 242.112C169.62 240.168 169.932 238.386 170.556 236.766C171.192 235.146 172.08 233.754 173.22 232.59C174.36 231.426 175.722 230.526 177.306 229.89C178.902 229.242 180.66 228.918 182.58 228.918C184.476 228.918 186.108 229.212 187.476 229.8C188.856 230.388 190.08 231.186 191.148 232.194L190.014 233.796C189.93 233.916 189.834 234.018 189.726 234.102C189.618 234.174 189.462 234.21 189.258 234.21C189.102 234.21 188.934 234.156 188.754 234.048C188.586 233.928 188.382 233.784 188.142 233.616C187.902 233.448 187.62 233.268 187.296 233.076C186.972 232.884 186.588 232.704 186.144 232.536C185.7 232.368 185.184 232.23 184.596 232.122C184.008 232.002 183.33 231.942 182.562 231.942C181.182 231.942 179.916 232.182 178.764 232.662C177.624 233.13 176.64 233.802 175.812 234.678C174.984 235.554 174.336 236.622 173.868 237.882C173.412 239.142 173.184 240.552 173.184 242.112C173.184 243.72 173.412 245.154 173.868 246.414C174.336 247.674 174.966 248.742 175.758 249.618C176.562 250.482 177.51 251.142 178.602 251.598C179.694 252.054 180.87 252.282 182.13 252.282C182.898 252.282 183.588 252.24 184.2 252.156C184.812 252.06 185.376 251.916 185.892 251.724C186.42 251.532 186.906 251.292 187.35 251.004C187.806 250.704 188.262 250.35 188.718 249.942C188.922 249.762 189.12 249.672 189.312 249.672ZM195.273 255V228.486H198.477V239.214C199.257 238.386 200.121 237.726 201.069 237.234C202.017 236.73 203.109 236.478 204.345 236.478C205.341 236.478 206.217 236.646 206.973 236.982C207.741 237.306 208.377 237.774 208.881 238.386C209.397 238.986 209.787 239.712 210.051 240.564C210.315 241.416 210.447 242.358 210.447 243.39V255H207.243V243.39C207.243 242.01 206.925 240.942 206.289 240.186C205.665 239.418 204.705 239.034 203.409 239.034C202.461 239.034 201.573 239.262 200.745 239.718C199.929 240.174 199.173 240.792 198.477 241.572V255H195.273ZM228.668 255H227.246C226.934 255 226.682 254.952 226.49 254.856C226.298 254.76 226.172 254.556 226.112 254.244L225.752 252.552C225.272 252.984 224.804 253.374 224.348 253.722C223.892 254.058 223.412 254.346 222.908 254.586C222.404 254.814 221.864 254.988 221.288 255.108C220.724 255.228 220.094 255.288 219.398 255.288C218.69 255.288 218.024 255.192 217.4 255C216.788 254.796 216.254 254.496 215.798 254.1C215.342 253.704 214.976 253.206 214.7 252.606C214.436 251.994 214.304 251.274 214.304 250.446C214.304 249.726 214.502 249.036 214.898 248.376C215.294 247.704 215.93 247.11 216.806 246.594C217.694 246.078 218.852 245.658 220.28 245.334C221.708 244.998 223.454 244.806 225.518 244.758V243.336C225.518 241.92 225.212 240.852 224.6 240.132C224 239.4 223.106 239.034 221.918 239.034C221.138 239.034 220.478 239.136 219.938 239.34C219.41 239.532 218.948 239.754 218.552 240.006C218.168 240.246 217.832 240.468 217.544 240.672C217.268 240.864 216.992 240.96 216.716 240.96C216.5 240.96 216.308 240.906 216.14 240.798C215.984 240.678 215.858 240.534 215.762 240.366L215.186 239.34C216.194 238.368 217.28 237.642 218.444 237.162C219.608 236.682 220.898 236.442 222.314 236.442C223.334 236.442 224.24 236.61 225.032 236.946C225.824 237.282 226.49 237.75 227.03 238.35C227.57 238.95 227.978 239.676 228.254 240.528C228.53 241.38 228.668 242.316 228.668 243.336V255ZM220.352 253.038C220.916 253.038 221.432 252.984 221.9 252.876C222.368 252.756 222.806 252.594 223.214 252.39C223.634 252.174 224.03 251.916 224.402 251.616C224.786 251.316 225.158 250.974 225.518 250.59V246.792C224.042 246.84 222.788 246.96 221.756 247.152C220.724 247.332 219.884 247.572 219.236 247.872C218.588 248.172 218.114 248.526 217.814 248.934C217.526 249.342 217.382 249.798 217.382 250.302C217.382 250.782 217.46 251.196 217.616 251.544C217.772 251.892 217.982 252.18 218.246 252.408C218.51 252.624 218.822 252.786 219.182 252.894C219.542 252.99 219.932 253.038 220.352 253.038ZM239.049 255.288C237.609 255.288 236.499 254.886 235.719 254.082C234.951 253.278 234.567 252.12 234.567 250.608V239.448H232.371C232.179 239.448 232.017 239.394 231.885 239.286C231.753 239.166 231.687 238.986 231.687 238.746V237.468L234.675 237.09L235.413 231.456C235.437 231.276 235.515 231.132 235.647 231.024C235.779 230.904 235.947 230.844 236.151 230.844H237.771V237.126H242.991V239.448H237.771V250.392C237.771 251.16 237.957 251.73 238.329 252.102C238.701 252.474 239.181 252.66 239.769 252.66C240.105 252.66 240.393 252.618 240.633 252.534C240.885 252.438 241.101 252.336 241.281 252.228C241.461 252.12 241.611 252.024 241.731 251.94C241.863 251.844 241.977 251.796 242.073 251.796C242.241 251.796 242.391 251.898 242.523 252.102L243.459 253.632C242.907 254.148 242.241 254.556 241.461 254.856C240.681 255.144 239.877 255.288 239.049 255.288ZM174.966 288.352V298H171.492V272.206H179.106C180.738 272.206 182.154 272.398 183.354 272.782C184.566 273.154 185.568 273.688 186.36 274.384C187.152 275.08 187.74 275.92 188.124 276.904C188.52 277.888 188.718 278.986 188.718 280.198C188.718 281.398 188.508 282.496 188.088 283.492C187.668 284.488 187.05 285.346 186.234 286.066C185.43 286.786 184.428 287.35 183.228 287.758C182.028 288.154 180.654 288.352 179.106 288.352H174.966ZM174.966 285.58H179.106C180.102 285.58 180.978 285.448 181.734 285.184C182.502 284.92 183.144 284.554 183.66 284.086C184.176 283.606 184.566 283.036 184.83 282.376C185.094 281.716 185.226 280.99 185.226 280.198C185.226 278.554 184.716 277.27 183.696 276.346C182.688 275.422 181.158 274.96 179.106 274.96H174.966V285.58ZM192.636 298V279.766H194.472C194.82 279.766 195.06 279.832 195.192 279.964C195.324 280.096 195.414 280.324 195.462 280.648L195.678 283.492C196.302 282.22 197.07 281.23 197.982 280.522C198.906 279.802 199.986 279.442 201.222 279.442C201.726 279.442 202.182 279.502 202.59 279.622C202.998 279.73 203.376 279.886 203.724 280.09L203.31 282.484C203.226 282.784 203.04 282.934 202.752 282.934C202.584 282.934 202.326 282.88 201.978 282.772C201.63 282.652 201.144 282.592 200.52 282.592C199.404 282.592 198.468 282.916 197.712 283.564C196.968 284.212 196.344 285.154 195.84 286.39V298H192.636ZM214.535 279.478C215.867 279.478 217.067 279.7 218.135 280.144C219.215 280.588 220.127 281.218 220.871 282.034C221.627 282.85 222.203 283.84 222.599 285.004C223.007 286.156 223.211 287.446 223.211 288.874C223.211 290.314 223.007 291.61 222.599 292.762C222.203 293.914 221.627 294.898 220.871 295.714C220.127 296.53 219.215 297.16 218.135 297.604C217.067 298.036 215.867 298.252 214.535 298.252C213.203 298.252 211.997 298.036 210.917 297.604C209.849 297.16 208.937 296.53 208.181 295.714C207.425 294.898 206.843 293.914 206.435 292.762C206.027 291.61 205.823 290.314 205.823 288.874C205.823 287.446 206.027 286.156 206.435 285.004C206.843 283.84 207.425 282.85 208.181 282.034C208.937 281.218 209.849 280.588 210.917 280.144C211.997 279.7 213.203 279.478 214.535 279.478ZM214.535 295.75C216.335 295.75 217.679 295.15 218.567 293.95C219.455 292.738 219.899 291.052 219.899 288.892C219.899 286.72 219.455 285.028 218.567 283.816C217.679 282.604 216.335 281.998 214.535 281.998C213.623 281.998 212.831 282.154 212.159 282.466C211.487 282.778 210.923 283.228 210.467 283.816C210.023 284.404 209.687 285.13 209.459 285.994C209.243 286.846 209.135 287.812 209.135 288.892C209.135 289.972 209.243 290.938 209.459 291.79C209.687 292.642 210.023 293.362 210.467 293.95C210.923 294.526 211.487 294.97 212.159 295.282C212.831 295.594 213.623 295.75 214.535 295.75ZM227.879 298V282.502L225.863 282.268C225.611 282.208 225.401 282.118 225.233 281.998C225.077 281.866 224.999 281.68 224.999 281.44V280.126H227.879V279.118C227.879 278.002 228.053 276.982 228.401 276.058C228.749 275.122 229.271 274.318 229.967 273.646C230.663 272.974 231.527 272.452 232.559 272.08C233.603 271.708 234.815 271.522 236.195 271.522C236.651 271.522 237.113 271.552 237.581 271.612C238.061 271.672 238.475 271.762 238.823 271.882L238.715 273.556C238.691 273.712 238.619 273.814 238.499 273.862C238.379 273.898 238.205 273.916 237.977 273.916C237.845 273.916 237.707 273.916 237.563 273.916C237.419 273.904 237.257 273.898 237.077 273.898C234.953 273.898 233.405 274.342 232.433 275.23C231.473 276.106 230.993 277.432 230.993 279.208V280.126H242.009V298H238.805V282.448H231.101V298H227.879ZM251.255 271.486V298H248.051V271.486H251.255ZM264.119 279.478C265.211 279.478 266.219 279.664 267.143 280.036C268.067 280.396 268.865 280.924 269.537 281.62C270.209 282.304 270.731 283.156 271.103 284.176C271.487 285.184 271.679 286.336 271.679 287.632C271.679 288.136 271.625 288.472 271.517 288.64C271.409 288.808 271.205 288.892 270.905 288.892H258.773C258.797 290.044 258.953 291.046 259.241 291.898C259.529 292.75 259.925 293.464 260.429 294.04C260.933 294.604 261.533 295.03 262.229 295.318C262.925 295.594 263.705 295.732 264.569 295.732C265.373 295.732 266.063 295.642 266.639 295.462C267.227 295.27 267.731 295.066 268.151 294.85C268.571 294.634 268.919 294.436 269.195 294.256C269.483 294.064 269.729 293.968 269.933 293.968C270.197 293.968 270.401 294.07 270.545 294.274L271.445 295.444C271.049 295.924 270.575 296.344 270.023 296.704C269.471 297.052 268.877 297.34 268.241 297.568C267.617 297.796 266.969 297.964 266.297 298.072C265.625 298.192 264.959 298.252 264.299 298.252C263.039 298.252 261.875 298.042 260.807 297.622C259.751 297.19 258.833 296.566 258.053 295.75C257.285 294.922 256.685 293.902 256.253 292.69C255.821 291.478 255.605 290.086 255.605 288.514C255.605 287.242 255.797 286.054 256.181 284.95C256.577 283.846 257.141 282.892 257.873 282.088C258.605 281.272 259.499 280.636 260.555 280.18C261.611 279.712 262.799 279.478 264.119 279.478ZM264.191 281.836C262.643 281.836 261.425 282.286 260.537 283.186C259.649 284.074 259.097 285.31 258.881 286.894H268.799C268.799 286.15 268.697 285.472 268.493 284.86C268.289 284.236 267.989 283.702 267.593 283.258C267.197 282.802 266.711 282.454 266.135 282.214C265.571 281.962 264.923 281.836 264.191 281.836Z" fill="#797A7E"/>
<path fill-rule="evenodd" clip-rule="evenodd" d="M168.045 364.733C168.078 364.697 168.126 364.675 168.175 364.675L178.06 364.675C179.358 364.675 180.307 363.45 180.27 362.152C180.267 362.036 180.265 361.919 180.265 361.802L180.265 336C180.265 329.373 185.638 324 192.265 324L230.12 324C236.748 324 242.12 329.373 242.12 336L242.12 361.802C242.12 361.919 242.119 362.036 242.115 362.152C242.078 363.45 243.027 364.675 244.325 364.675L252.825 364.675C252.874 364.675 252.922 364.697 252.955 364.733C253.015 364.8 253.015 364.901 252.955 364.967L219.425 402.27C214.657 407.574 206.343 407.574 201.575 402.27L168.045 364.967C167.985 364.901 167.985 364.8 168.045 364.733Z" fill="url(#paint0_radial_847_20768)" fill-opacity="0.5"/>
<path d="M203.836 434.002H189.7V473H183.128V434.002H168.93V428.484H203.836V434.002ZM208.043 447.549C209.055 445.482 210.275 443.86 211.701 442.682C213.127 441.504 214.842 440.915 216.847 440.915C217.529 440.915 218.169 440.998 218.769 441.163C219.389 441.308 219.926 441.535 220.381 441.845L219.978 446.402C219.833 446.96 219.492 447.239 218.955 447.239C218.665 447.239 218.231 447.187 217.653 447.084C217.074 446.96 216.454 446.898 215.793 446.898C214.821 446.898 213.964 447.043 213.22 447.332C212.476 447.601 211.804 448.014 211.205 448.572C210.626 449.109 210.109 449.781 209.655 450.587C209.2 451.372 208.776 452.271 208.384 453.284V473H202.339V441.504H205.811C206.472 441.504 206.916 441.628 207.144 441.876C207.392 442.103 207.567 442.517 207.671 443.116L208.043 447.549ZM244.756 453.749C244.756 452.55 244.581 451.445 244.229 450.432C243.899 449.419 243.403 448.541 242.741 447.797C242.08 447.053 241.274 446.474 240.323 446.061C239.373 445.648 238.277 445.441 237.037 445.441C234.495 445.441 232.491 446.175 231.023 447.642C229.577 449.109 228.657 451.145 228.264 453.749H244.756ZM249.747 468.505C249.003 469.373 248.146 470.127 247.174 470.768C246.203 471.388 245.17 471.894 244.074 472.287C242.979 472.68 241.842 472.969 240.664 473.155C239.507 473.341 238.36 473.434 237.223 473.434C235.053 473.434 233.038 473.072 231.178 472.349C229.339 471.605 227.737 470.53 226.373 469.125C225.03 467.699 223.976 465.942 223.211 463.855C222.467 461.747 222.095 459.329 222.095 456.601C222.095 454.41 222.436 452.375 223.118 450.494C223.8 448.593 224.772 446.939 226.032 445.534C227.314 444.129 228.874 443.023 230.713 442.217C232.553 441.411 234.619 441.008 236.913 441.008C238.835 441.008 240.602 441.328 242.214 441.969C243.847 442.589 245.252 443.498 246.43 444.697C247.608 445.896 248.528 447.373 249.189 449.13C249.871 450.887 250.212 452.891 250.212 455.144C250.212 456.074 250.109 456.704 249.902 457.035C249.696 457.345 249.313 457.5 248.755 457.5H228.109C228.171 459.381 228.44 461.024 228.915 462.429C229.391 463.814 230.042 464.971 230.868 465.901C231.716 466.831 232.718 467.523 233.875 467.978C235.033 468.433 236.324 468.66 237.75 468.66C239.094 468.66 240.251 468.505 241.222 468.195C242.214 467.885 243.062 467.554 243.764 467.203C244.488 466.831 245.087 466.49 245.562 466.18C246.058 465.87 246.492 465.715 246.864 465.715C247.36 465.715 247.743 465.901 248.011 466.273L249.747 468.505ZM277.573 453.749C277.573 452.55 277.397 451.445 277.046 450.432C276.715 449.419 276.219 448.541 275.558 447.797C274.897 447.053 274.091 446.474 273.14 446.061C272.189 445.648 271.094 445.441 269.854 445.441C267.312 445.441 265.307 446.175 263.84 447.642C262.393 449.109 261.474 451.145 261.081 453.749H277.573ZM282.564 468.505C281.82 469.373 280.962 470.127 279.991 470.768C279.02 471.388 277.986 471.894 276.891 472.287C275.796 472.68 274.659 472.969 273.481 473.155C272.324 473.341 271.177 473.434 270.04 473.434C267.87 473.434 265.855 473.072 263.995 472.349C262.156 471.605 260.554 470.53 259.19 469.125C257.847 467.699 256.793 465.942 256.028 463.855C255.284 461.747 254.912 459.329 254.912 456.601C254.912 454.41 255.253 452.375 255.935 450.494C256.617 448.593 257.588 446.939 258.849 445.534C260.13 444.129 261.691 443.023 263.53 442.217C265.369 441.411 267.436 441.008 269.73 441.008C271.652 441.008 273.419 441.328 275.031 441.969C276.664 442.589 278.069 443.498 279.247 444.697C280.425 445.896 281.345 447.373 282.006 449.13C282.688 450.887 283.029 452.891 283.029 455.144C283.029 456.074 282.926 456.704 282.719 457.035C282.512 457.345 282.13 457.5 281.572 457.5H260.926C260.988 459.381 261.257 461.024 261.732 462.429C262.207 463.814 262.858 464.971 263.685 465.901C264.532 466.831 265.535 467.523 266.692 467.978C267.849 468.433 269.141 468.66 270.567 468.66C271.91 468.66 273.068 468.505 274.039 468.195C275.031 467.885 275.878 467.554 276.581 467.203C277.304 466.831 277.904 466.49 278.379 466.18C278.875 465.87 279.309 465.715 279.681 465.715C280.177 465.715 280.559 465.901 280.828 466.273L282.564 468.505ZM315.066 473.496C312.524 473.496 310.561 472.783 309.176 471.357C307.812 469.931 307.13 467.895 307.13 465.25V446.402H303.472C303.121 446.402 302.821 446.299 302.573 446.092C302.346 445.865 302.232 445.534 302.232 445.1V442.651L307.347 441.938L308.711 432.545C308.794 432.194 308.949 431.925 309.176 431.739C309.424 431.532 309.734 431.429 310.106 431.429H313.175V442H322.103V446.402H313.175V464.847C313.175 466.087 313.475 467.017 314.074 467.637C314.694 468.236 315.479 468.536 316.43 468.536C316.988 468.536 317.463 468.464 317.856 468.319C318.269 468.174 318.621 468.019 318.91 467.854C319.199 467.668 319.447 467.503 319.654 467.358C319.861 467.213 320.047 467.141 320.212 467.141C320.419 467.141 320.574 467.193 320.677 467.296C320.801 467.379 320.925 467.523 321.049 467.73L322.847 470.644C321.855 471.553 320.677 472.256 319.313 472.752C317.949 473.248 316.533 473.496 315.066 473.496ZM348.352 453.749C348.352 452.55 348.177 451.445 347.825 450.432C347.495 449.419 346.999 448.541 346.337 447.797C345.676 447.053 344.87 446.474 343.919 446.061C342.969 445.648 341.873 445.441 340.633 445.441C338.091 445.441 336.087 446.175 334.619 447.642C333.173 449.109 332.253 451.145 331.86 453.749H348.352ZM353.343 468.505C352.599 469.373 351.742 470.127 350.77 470.768C349.799 471.388 348.766 471.894 347.67 472.287C346.575 472.68 345.438 472.969 344.26 473.155C343.103 473.341 341.956 473.434 340.819 473.434C338.649 473.434 336.634 473.072 334.774 472.349C332.935 471.605 331.333 470.53 329.969 469.125C328.626 467.699 327.572 465.942 326.807 463.855C326.063 461.747 325.691 459.329 325.691 456.601C325.691 454.41 326.032 452.375 326.714 450.494C327.396 448.593 328.368 446.939 329.628 445.534C330.91 444.129 332.47 443.023 334.309 442.217C336.149 441.411 338.215 441.008 340.509 441.008C342.431 441.008 344.198 441.328 345.81 441.969C347.443 442.589 348.848 443.498 350.026 444.697C351.204 445.896 352.124 447.373 352.785 449.13C353.467 450.887 353.808 452.891 353.808 455.144C353.808 456.074 353.705 456.704 353.498 457.035C353.292 457.345 352.909 457.5 352.351 457.5H331.705C331.767 459.381 332.036 461.024 332.511 462.429C332.987 463.814 333.638 464.971 334.464 465.901C335.312 466.831 336.314 467.523 337.471 467.978C338.629 468.433 339.92 468.66 341.346 468.66C342.69 468.66 343.847 468.505 344.818 468.195C345.81 467.885 346.658 467.554 347.36 467.203C348.084 466.831 348.683 466.49 349.158 466.18C349.654 465.87 350.088 465.715 350.46 465.715C350.956 465.715 351.339 465.901 351.607 466.273L353.343 468.505ZM378.875 446.929C378.709 447.198 378.534 447.394 378.348 447.518C378.162 447.621 377.924 447.673 377.635 447.673C377.304 447.673 376.932 447.559 376.519 447.332C376.126 447.105 375.64 446.857 375.062 446.588C374.504 446.319 373.842 446.071 373.078 445.844C372.313 445.617 371.404 445.503 370.35 445.503C369.482 445.503 368.686 445.617 367.963 445.844C367.26 446.051 366.661 446.35 366.165 446.743C365.669 447.115 365.286 447.57 365.018 448.107C364.749 448.624 364.615 449.182 364.615 449.781C364.615 450.566 364.842 451.217 365.297 451.734C365.772 452.251 366.382 452.695 367.126 453.067C367.89 453.439 368.748 453.78 369.699 454.09C370.67 454.379 371.652 454.689 372.644 455.02C373.656 455.351 374.638 455.733 375.589 456.167C376.56 456.58 377.418 457.107 378.162 457.748C378.926 458.368 379.536 459.122 379.991 460.011C380.466 460.9 380.704 461.985 380.704 463.266C380.704 464.733 380.435 466.097 379.898 467.358C379.381 468.598 378.606 469.673 377.573 470.582C376.56 471.491 375.299 472.204 373.791 472.721C372.282 473.238 370.556 473.496 368.614 473.496C366.444 473.496 364.439 473.134 362.6 472.411C360.76 471.688 359.221 470.768 357.981 469.652L359.407 467.327C359.572 467.038 359.779 466.821 360.027 466.676C360.275 466.511 360.605 466.428 361.019 466.428C361.411 466.428 361.814 466.573 362.228 466.862C362.641 467.151 363.137 467.472 363.716 467.823C364.294 468.154 364.997 468.464 365.824 468.753C366.65 469.022 367.684 469.156 368.924 469.156C369.957 469.156 370.856 469.032 371.621 468.784C372.385 468.515 373.016 468.164 373.512 467.73C374.028 467.275 374.411 466.759 374.659 466.18C374.907 465.601 375.031 464.992 375.031 464.351C375.031 463.524 374.793 462.842 374.318 462.305C373.863 461.747 373.253 461.272 372.489 460.879C371.745 460.486 370.887 460.145 369.916 459.856C368.944 459.567 367.952 459.257 366.94 458.926C365.927 458.595 364.935 458.213 363.964 457.779C362.992 457.345 362.124 456.797 361.36 456.136C360.616 455.475 360.006 454.669 359.531 453.718C359.076 452.767 358.849 451.61 358.849 450.246C358.849 449.027 359.097 447.859 359.593 446.743C360.109 445.627 360.843 444.645 361.794 443.798C362.765 442.951 363.953 442.279 365.359 441.783C366.785 441.266 368.407 441.008 370.226 441.008C372.313 441.008 374.194 441.339 375.868 442C377.562 442.661 379.009 443.571 380.208 444.728L378.875 446.929ZM417.102 473H411.026V446.402H395.216V464.847C395.216 466.087 395.516 467.017 396.115 467.637C396.735 468.236 397.52 468.536 398.471 468.536C399.029 468.536 399.504 468.464 399.897 468.319C400.31 468.174 400.662 468.019 400.951 467.854C401.24 467.668 401.488 467.503 401.695 467.358C401.902 467.213 402.088 467.141 402.253 467.141C402.46 467.141 402.615 467.193 402.718 467.296C402.842 467.379 402.966 467.523 403.09 467.73L404.888 470.644C403.896 471.553 402.718 472.256 401.354 472.752C399.99 473.248 398.574 473.496 397.107 473.496C394.565 473.496 392.602 472.783 391.217 471.357C389.853 469.931 389.171 467.895 389.171 465.25V446.402H385.513C385.162 446.402 384.862 446.299 384.614 446.092C384.387 445.865 384.273 445.534 384.273 445.1V442.651L389.419 441.938L390.752 432.545C390.835 432.194 390.99 431.925 391.217 431.739C391.465 431.532 391.775 431.429 392.147 431.429H395.216V442H417.102V473ZM418.466 431.584C418.466 432.142 418.352 432.679 418.125 433.196C417.898 433.692 417.588 434.136 417.195 434.529C416.823 434.901 416.379 435.201 415.862 435.428C415.345 435.635 414.808 435.738 414.25 435.738C413.692 435.738 413.165 435.635 412.669 435.428C412.173 435.201 411.729 434.901 411.336 434.529C410.964 434.136 410.664 433.692 410.437 433.196C410.23 432.679 410.127 432.142 410.127 431.584C410.127 431.005 410.23 430.458 410.437 429.941C410.664 429.424 410.964 428.98 411.336 428.608C411.729 428.215 412.173 427.916 412.669 427.709C413.165 427.482 413.692 427.368 414.25 427.368C414.808 427.368 415.345 427.482 415.862 427.709C416.379 427.916 416.823 428.215 417.195 428.608C417.588 428.98 417.898 429.424 418.125 429.941C418.352 430.458 418.466 431.005 418.466 431.584ZM431.551 445.875C432.233 445.152 432.946 444.49 433.69 443.891C434.434 443.292 435.219 442.785 436.046 442.372C436.893 441.938 437.792 441.607 438.743 441.38C439.714 441.132 440.748 441.008 441.843 441.008C443.579 441.008 445.098 441.297 446.4 441.876C447.723 442.455 448.828 443.271 449.717 444.325C450.606 445.358 451.277 446.609 451.732 448.076C452.187 449.543 452.414 451.166 452.414 452.943V473H446.338V452.943C446.338 450.69 445.821 448.944 444.788 447.704C443.755 446.443 442.174 445.813 440.045 445.813C438.495 445.813 437.038 446.185 435.674 446.929C434.331 447.652 433.08 448.644 431.923 449.905V473H425.878V441.504H429.505C430.352 441.504 430.879 441.907 431.086 442.713L431.551 445.875ZM471.638 457.283C472.713 457.283 473.653 457.138 474.459 456.849C475.286 456.56 475.968 456.157 476.505 455.64C477.063 455.103 477.477 454.462 477.745 453.718C478.035 452.974 478.179 452.158 478.179 451.269C478.179 449.45 477.621 448.004 476.505 446.929C475.41 445.834 473.788 445.286 471.638 445.286C469.51 445.286 467.887 445.834 466.771 446.929C465.676 448.004 465.128 449.45 465.128 451.269C465.128 452.158 465.263 452.974 465.531 453.718C465.821 454.441 466.234 455.072 466.771 455.609C467.329 456.126 468.011 456.539 468.817 456.849C469.644 457.138 470.584 457.283 471.638 457.283ZM481.279 474.643C481.279 473.899 481.073 473.31 480.659 472.876C480.246 472.421 479.678 472.07 478.954 471.822C478.252 471.553 477.425 471.367 476.474 471.264C475.524 471.14 474.521 471.047 473.467 470.985C472.434 470.923 471.37 470.871 470.274 470.83C469.179 470.768 468.125 470.665 467.112 470.52C466.038 471.057 465.149 471.708 464.446 472.473C463.764 473.238 463.423 474.137 463.423 475.17C463.423 475.831 463.589 476.451 463.919 477.03C464.271 477.609 464.798 478.105 465.5 478.518C466.224 478.952 467.123 479.283 468.197 479.51C469.293 479.758 470.595 479.882 472.103 479.882C473.591 479.882 474.904 479.748 476.04 479.479C477.177 479.231 478.128 478.869 478.892 478.394C479.678 477.939 480.267 477.392 480.659 476.751C481.073 476.11 481.279 475.408 481.279 474.643ZM487.417 442.682V444.945C487.417 445.689 486.952 446.154 486.022 446.34L482.643 446.836C482.933 447.477 483.16 448.159 483.325 448.882C483.491 449.585 483.573 450.329 483.573 451.114C483.573 452.664 483.274 454.069 482.674 455.33C482.075 456.57 481.248 457.634 480.194 458.523C479.14 459.412 477.88 460.094 476.412 460.569C474.966 461.044 473.374 461.282 471.638 461.282C470.212 461.282 468.879 461.127 467.639 460.817C467.019 461.189 466.544 461.602 466.213 462.057C465.903 462.491 465.748 462.925 465.748 463.359C465.748 464.082 466.048 464.62 466.647 464.971C467.267 465.322 468.063 465.581 469.034 465.746C470.026 465.891 471.153 465.984 472.413 466.025C473.695 466.066 474.986 466.139 476.288 466.242C477.611 466.325 478.903 466.49 480.163 466.738C481.445 466.965 482.571 467.348 483.542 467.885C484.534 468.402 485.33 469.125 485.929 470.055C486.549 470.964 486.859 472.153 486.859 473.62C486.859 474.984 486.518 476.307 485.836 477.588C485.175 478.869 484.204 480.006 482.922 480.998C481.641 481.99 480.081 482.786 478.241 483.385C476.402 483.984 474.315 484.284 471.979 484.284C469.644 484.284 467.608 484.057 465.872 483.602C464.157 483.147 462.721 482.538 461.563 481.773C460.427 481.008 459.569 480.12 458.99 479.107C458.432 478.094 458.153 477.04 458.153 475.945C458.153 474.416 458.629 473.124 459.579 472.07C460.53 470.995 461.842 470.158 463.516 469.559C462.607 469.146 461.884 468.588 461.346 467.885C460.809 467.162 460.54 466.211 460.54 465.033C460.54 464.578 460.623 464.113 460.788 463.638C460.954 463.142 461.202 462.656 461.532 462.181C461.884 461.685 462.307 461.22 462.803 460.786C463.32 460.352 463.909 459.959 464.57 459.608C463.02 458.74 461.801 457.593 460.912 456.167C460.024 454.72 459.579 453.036 459.579 451.114C459.579 449.564 459.879 448.169 460.478 446.929C461.078 445.689 461.904 444.625 462.958 443.736C464.033 442.847 465.304 442.165 466.771 441.69C468.259 441.215 469.882 440.977 471.638 440.977C474.366 440.977 476.712 441.545 478.675 442.682H487.417ZM519.278 451.362C517.232 452.499 515.703 453.863 514.69 455.454C513.698 457.025 513.202 458.719 513.202 460.538C513.202 461.819 513.43 462.966 513.884 463.979C514.36 464.971 514.98 465.808 515.744 466.49C516.53 467.172 517.418 467.689 518.41 468.04C519.423 468.391 520.456 468.567 521.51 468.567C523.701 468.567 525.675 468.185 527.431 467.42C529.188 466.635 530.748 465.591 532.112 464.289L519.278 451.362ZM548.263 473H542.373C541.712 473 541.185 472.928 540.792 472.783C540.42 472.618 539.997 472.287 539.521 471.791L535.398 467.637C533.456 469.456 531.224 470.892 528.702 471.946C526.202 472.979 523.453 473.496 520.456 473.496C518.782 473.496 517.139 473.217 515.527 472.659C513.936 472.08 512.51 471.254 511.249 470.179C509.989 469.104 508.966 467.802 508.18 466.273C507.416 464.723 507.033 462.977 507.033 461.034C507.033 459.608 507.271 458.254 507.746 456.973C508.222 455.671 508.883 454.483 509.73 453.408C510.578 452.313 511.58 451.331 512.737 450.463C513.915 449.595 515.186 448.851 516.55 448.231C515.331 446.64 514.432 445.1 513.853 443.612C513.295 442.103 513.016 440.564 513.016 438.993C513.016 437.484 513.295 436.058 513.853 434.715C514.411 433.372 515.207 432.204 516.24 431.212C517.274 430.22 518.534 429.435 520.022 428.856C521.531 428.277 523.226 427.988 525.106 427.988C526.78 427.988 528.299 428.257 529.663 428.794C531.048 429.311 532.236 430.013 533.228 430.902C534.22 431.791 534.995 432.814 535.553 433.971C536.132 435.128 536.463 436.337 536.545 437.598L532.763 438.373C531.999 438.538 531.441 438.197 531.089 437.35C530.924 436.813 530.686 436.265 530.376 435.707C530.087 435.149 529.694 434.653 529.198 434.219C528.723 433.764 528.144 433.392 527.462 433.103C526.78 432.814 525.995 432.669 525.106 432.669C524.114 432.669 523.215 432.834 522.409 433.165C521.624 433.496 520.952 433.95 520.394 434.529C519.836 435.087 519.402 435.748 519.092 436.513C518.803 437.278 518.658 438.094 518.658 438.962C518.658 439.644 518.741 440.316 518.906 440.977C519.072 441.618 519.32 442.269 519.65 442.93C520.002 443.571 520.446 444.232 520.983 444.914C521.521 445.575 522.161 446.288 522.905 447.053L535.46 459.918C536.225 458.554 536.835 457.118 537.289 455.609C537.744 454.1 538.044 452.592 538.188 451.083C538.23 450.67 538.354 450.339 538.56 450.091C538.788 449.843 539.108 449.719 539.521 449.719H543.272C543.252 452.199 542.869 454.617 542.125 456.973C541.381 459.308 540.327 461.478 538.963 463.483L548.263 473ZM582.504 449.936C584.199 449.936 585.687 449.729 586.968 449.316C588.27 448.903 589.355 448.324 590.223 447.58C591.091 446.815 591.742 445.916 592.176 444.883C592.61 443.829 592.827 442.672 592.827 441.411C592.827 438.848 591.98 436.916 590.285 435.614C588.611 434.312 586.09 433.661 582.721 433.661H576.49V449.936H582.504ZM603.274 473H597.384C596.206 473 595.349 472.535 594.811 471.605L583.806 456.167C583.455 455.65 583.073 455.289 582.659 455.082C582.246 454.855 581.626 454.741 580.799 454.741H576.49V473H569.887V428.484H582.721C585.594 428.484 588.064 428.784 590.13 429.383C592.218 429.962 593.933 430.799 595.276 431.894C596.64 432.969 597.643 434.271 598.283 435.8C598.945 437.329 599.275 439.045 599.275 440.946C599.275 442.496 599.038 443.953 598.562 445.317C598.087 446.681 597.384 447.911 596.454 449.006C595.545 450.081 594.429 451.011 593.106 451.796C591.784 452.581 590.285 453.181 588.611 453.594C589.438 454.09 590.151 454.782 590.75 455.671L603.274 473ZM626.565 453.749C626.565 452.55 626.389 451.445 626.038 450.432C625.707 449.419 625.211 448.541 624.55 447.797C623.889 447.053 623.083 446.474 622.132 446.061C621.181 445.648 620.086 445.441 618.846 445.441C616.304 445.441 614.299 446.175 612.832 447.642C611.385 449.109 610.466 451.145 610.073 453.749H626.565ZM631.556 468.505C630.812 469.373 629.954 470.127 628.983 470.768C628.012 471.388 626.978 471.894 625.883 472.287C624.788 472.68 623.651 472.969 622.473 473.155C621.316 473.341 620.169 473.434 619.032 473.434C616.862 473.434 614.847 473.072 612.987 472.349C611.148 471.605 609.546 470.53 608.182 469.125C606.839 467.699 605.785 465.942 605.02 463.855C604.276 461.747 603.904 459.329 603.904 456.601C603.904 454.41 604.245 452.375 604.927 450.494C605.609 448.593 606.58 446.939 607.841 445.534C609.122 444.129 610.683 443.023 612.522 442.217C614.361 441.411 616.428 441.008 618.722 441.008C620.644 441.008 622.411 441.328 624.023 441.969C625.656 442.589 627.061 443.498 628.239 444.697C629.417 445.896 630.337 447.373 630.998 449.13C631.68 450.887 632.021 452.891 632.021 455.144C632.021 456.074 631.918 456.704 631.711 457.035C631.504 457.345 631.122 457.5 630.564 457.5H609.918C609.98 459.381 610.249 461.024 610.724 462.429C611.199 463.814 611.85 464.971 612.677 465.901C613.524 466.831 614.527 467.523 615.684 467.978C616.841 468.433 618.133 468.66 619.559 468.66C620.902 468.66 622.06 468.505 623.031 468.195C624.023 467.885 624.87 467.554 625.573 467.203C626.296 466.831 626.896 466.49 627.371 466.18C627.867 465.87 628.301 465.715 628.673 465.715C629.169 465.715 629.551 465.901 629.82 466.273L631.556 468.505ZM640.263 473V446.464L636.977 446.061C636.502 445.958 636.109 445.792 635.799 445.565C635.51 445.317 635.365 444.966 635.365 444.511V442H640.263V440.45C640.263 438.714 640.532 437.071 641.069 435.521C641.607 433.971 642.413 432.607 643.487 431.429C644.562 430.251 645.905 429.321 647.517 428.639C649.15 427.957 651.062 427.616 653.252 427.616C655.03 427.616 656.714 427.688 658.305 427.833C659.917 427.957 661.498 428.019 663.048 428.019H666.427V473H660.382V432.266C659.266 432.225 658.15 432.173 657.034 432.111C655.939 432.049 654.988 432.018 654.182 432.018C651.599 432.018 649.615 432.762 648.23 434.25C646.846 435.717 646.153 437.784 646.153 440.45V442H654.151V446.402H646.339V473H640.263ZM695.891 453.749C695.891 452.55 695.716 451.445 695.364 450.432C695.034 449.419 694.538 448.541 693.876 447.797C693.215 447.053 692.409 446.474 691.458 446.061C690.508 445.648 689.412 445.441 688.172 445.441C685.63 445.441 683.626 446.175 682.158 447.642C680.712 449.109 679.792 451.145 679.399 453.749H695.891ZM700.882 468.505C700.138 469.373 699.281 470.127 698.309 470.768C697.338 471.388 696.305 471.894 695.209 472.287C694.114 472.68 692.977 472.969 691.799 473.155C690.642 473.341 689.495 473.434 688.358 473.434C686.188 473.434 684.173 473.072 682.313 472.349C680.474 471.605 678.872 470.53 677.508 469.125C676.165 467.699 675.111 465.942 674.346 463.855C673.602 461.747 673.23 459.329 673.23 456.601C673.23 454.41 673.571 452.375 674.253 450.494C674.935 448.593 675.907 446.939 677.167 445.534C678.449 444.129 680.009 443.023 681.848 442.217C683.688 441.411 685.754 441.008 688.048 441.008C689.97 441.008 691.737 441.328 693.349 441.969C694.982 442.589 696.387 443.498 697.565 444.697C698.743 445.896 699.663 447.373 700.324 449.13C701.006 450.887 701.347 452.891 701.347 455.144C701.347 456.074 701.244 456.704 701.037 457.035C700.831 457.345 700.448 457.5 699.89 457.5H679.244C679.306 459.381 679.575 461.024 680.05 462.429C680.526 463.814 681.177 464.971 682.003 465.901C682.851 466.831 683.853 467.523 685.01 467.978C686.168 468.433 687.459 468.66 688.885 468.66C690.229 468.66 691.386 468.505 692.357 468.195C693.349 467.885 694.197 467.554 694.899 467.203C695.623 466.831 696.222 466.49 696.697 466.18C697.193 465.87 697.627 465.715 697.999 465.715C698.495 465.715 698.878 465.901 699.146 466.273L700.882 468.505ZM729.917 447.394C729.731 447.621 729.545 447.807 729.359 447.952C729.193 448.076 728.945 448.138 728.615 448.138C728.284 448.138 727.933 448.014 727.561 447.766C727.209 447.497 726.755 447.218 726.197 446.929C725.659 446.619 724.998 446.34 724.213 446.092C723.448 445.823 722.497 445.689 721.361 445.689C719.873 445.689 718.56 445.958 717.424 446.495C716.287 447.032 715.336 447.797 714.572 448.789C713.828 449.781 713.259 450.99 712.867 452.416C712.474 453.842 712.278 455.444 712.278 457.221C712.278 459.06 712.484 460.703 712.898 462.15C713.311 463.576 713.9 464.785 714.665 465.777C715.429 466.748 716.359 467.492 717.455 468.009C718.55 468.505 719.769 468.753 721.113 468.753C722.415 468.753 723.489 468.598 724.337 468.288C725.184 467.957 725.887 467.606 726.445 467.234C727.003 466.862 727.468 466.521 727.84 466.211C728.212 465.88 728.594 465.715 728.987 465.715C729.483 465.715 729.865 465.901 730.134 466.273L731.87 468.505C731.146 469.394 730.33 470.148 729.421 470.768C728.532 471.388 727.581 471.894 726.569 472.287C725.556 472.68 724.492 472.969 723.376 473.155C722.28 473.341 721.164 473.434 720.028 473.434C718.064 473.434 716.225 473.072 714.51 472.349C712.815 471.626 711.337 470.572 710.077 469.187C708.837 467.802 707.855 466.108 707.132 464.103C706.408 462.078 706.047 459.784 706.047 457.221C706.047 454.886 706.367 452.726 707.008 450.742C707.669 448.758 708.63 447.053 709.891 445.627C711.172 444.18 712.743 443.054 714.603 442.248C716.463 441.421 718.591 441.008 720.989 441.008C723.241 441.008 725.225 441.37 726.941 442.093C728.656 442.816 730.185 443.839 731.529 445.162L729.917 447.394ZM767.366 473H761.29V446.402H745.48V464.847C745.48 466.087 745.779 467.017 746.379 467.637C746.999 468.236 747.784 468.536 748.735 468.536C749.293 468.536 749.768 468.464 750.161 468.319C750.574 468.174 750.925 468.019 751.215 467.854C751.504 467.668 751.752 467.503 751.959 467.358C752.165 467.213 752.351 467.141 752.517 467.141C752.723 467.141 752.878 467.193 752.982 467.296C753.106 467.379 753.23 467.523 753.354 467.73L755.152 470.644C754.16 471.553 752.982 472.256 751.618 472.752C750.254 473.248 748.838 473.496 747.371 473.496C744.829 473.496 742.865 472.783 741.481 471.357C740.117 469.931 739.435 467.895 739.435 465.25V446.402H735.777C735.425 446.402 735.126 446.299 734.878 446.092C734.65 445.865 734.537 445.534 734.537 445.1V442.651L739.683 441.938L741.016 432.545C741.098 432.194 741.253 431.925 741.481 431.739C741.729 431.532 742.039 431.429 742.411 431.429H745.48V442H767.366V473ZM768.73 431.584C768.73 432.142 768.616 432.679 768.389 433.196C768.161 433.692 767.851 434.136 767.459 434.529C767.087 434.901 766.642 435.201 766.126 435.428C765.609 435.635 765.072 435.738 764.514 435.738C763.956 435.738 763.429 435.635 762.933 435.428C762.437 435.201 761.992 434.901 761.6 434.529C761.228 434.136 760.928 433.692 760.701 433.196C760.494 432.679 760.391 432.142 760.391 431.584C760.391 431.005 760.494 430.458 760.701 429.941C760.928 429.424 761.228 428.98 761.6 428.608C761.992 428.215 762.437 427.916 762.933 427.709C763.429 427.482 763.956 427.368 764.514 427.368C765.072 427.368 765.609 427.482 766.126 427.709C766.642 427.916 767.087 428.215 767.459 428.608C767.851 428.98 768.161 429.424 768.389 429.941C768.616 430.458 768.73 431.005 768.73 431.584ZM789.565 441.008C791.879 441.008 793.967 441.39 795.827 442.155C797.707 442.899 799.299 443.984 800.601 445.41C801.923 446.815 802.936 448.52 803.639 450.525C804.341 452.509 804.693 454.741 804.693 457.221C804.693 459.701 804.341 461.943 803.639 463.948C802.936 465.953 801.923 467.658 800.601 469.063C799.299 470.468 797.707 471.553 795.827 472.318C793.967 473.062 791.879 473.434 789.565 473.434C787.229 473.434 785.121 473.062 783.241 472.318C781.381 471.553 779.789 470.468 778.467 469.063C777.144 467.658 776.121 465.953 775.398 463.948C774.695 461.943 774.344 459.701 774.344 457.221C774.344 454.741 774.695 452.509 775.398 450.525C776.121 448.52 777.144 446.815 778.467 445.41C779.789 443.984 781.381 442.899 783.241 442.155C785.121 441.39 787.229 441.008 789.565 441.008ZM789.565 468.722C792.541 468.722 794.762 467.72 796.23 465.715C797.697 463.71 798.431 460.889 798.431 457.252C798.431 453.615 797.697 450.794 796.23 448.789C794.762 446.764 792.541 445.751 789.565 445.751C786.547 445.751 784.295 446.764 782.807 448.789C781.339 450.794 780.606 453.615 780.606 457.252C780.606 460.889 781.339 463.71 782.807 465.715C784.295 467.72 786.547 468.722 789.565 468.722ZM817.113 445.875C817.795 445.152 818.508 444.49 819.252 443.891C819.996 443.292 820.782 442.785 821.608 442.372C822.456 441.938 823.355 441.607 824.305 441.38C825.277 441.132 826.31 441.008 827.405 441.008C829.141 441.008 830.66 441.297 831.962 441.876C833.285 442.455 834.391 443.271 835.279 444.325C836.168 445.358 836.84 446.609 837.294 448.076C837.749 449.543 837.976 451.166 837.976 452.943V473H831.9V452.943C831.9 450.69 831.384 448.944 830.35 447.704C829.317 446.443 827.736 445.813 825.607 445.813C824.057 445.813 822.6 446.185 821.236 446.929C819.893 447.652 818.643 448.644 817.485 449.905V473H811.44V441.504H815.067C815.915 441.504 816.442 441.907 816.648 442.713L817.113 445.875Z" fill="#EFBD66"/>
<path d="M2022.52 85.738C2022.31 86.0893 2022.1 86.3477 2021.87 86.513C2021.64 86.6783 2021.35 86.761 2021 86.761C2020.63 86.761 2020.21 86.5957 2019.73 86.265C2019.25 85.9137 2018.66 85.5313 2017.93 85.118C2017.23 84.684 2016.38 84.3017 2015.39 83.971C2014.4 83.6197 2013.21 83.444 2011.83 83.444C2010.52 83.444 2009.38 83.6197 2008.38 83.971C2007.41 84.3017 2006.6 84.7667 2005.94 85.366C2005.27 85.9447 2004.77 86.637 2004.42 87.443C2004.09 88.2283 2003.92 89.086 2003.92 90.016C2003.92 91.2147 2004.22 92.2067 2004.82 92.992C2005.44 93.7773 2006.25 94.449 2007.24 95.007C2008.23 95.565 2009.36 96.0507 2010.62 96.464C2011.88 96.8773 2013.17 97.3113 2014.49 97.766C2015.81 98.2 2017.11 98.7063 2018.37 99.285C2019.63 99.8637 2020.75 100.597 2021.75 101.486C2022.74 102.354 2023.53 103.429 2024.13 104.71C2024.75 105.971 2025.06 107.521 2025.06 109.36C2025.06 111.323 2024.72 113.163 2024.04 114.878C2023.38 116.593 2022.41 118.092 2021.13 119.373C2019.84 120.654 2018.26 121.667 2016.38 122.411C2014.52 123.134 2012.4 123.496 2010.03 123.496C2008.6 123.496 2007.22 123.351 2005.87 123.062C2004.53 122.793 2003.26 122.411 2002.06 121.915C2000.86 121.398 1999.74 120.789 1998.68 120.086C1997.65 119.363 1996.72 118.557 1995.89 117.668L1997.78 114.506C1997.97 114.258 1998.19 114.051 1998.43 113.886C1998.7 113.721 1999 113.638 1999.33 113.638C1999.77 113.638 2000.26 113.865 2000.82 114.32C2001.4 114.775 2002.1 115.281 2002.93 115.839C2003.78 116.376 2004.78 116.872 2005.94 117.327C2007.11 117.782 2008.54 118.009 2010.21 118.009C2011.58 118.009 2012.8 117.833 2013.87 117.482C2014.95 117.11 2015.84 116.593 2016.57 115.932C2017.31 115.25 2017.88 114.434 2018.27 113.483C2018.67 112.532 2018.86 111.478 2018.86 110.321C2018.86 109.019 2018.56 107.955 2017.96 107.128C2017.36 106.301 2016.57 105.609 2015.58 105.051C2014.58 104.493 2013.46 104.018 2012.2 103.625C2010.94 103.232 2009.64 102.829 2008.32 102.416C2007 101.982 2005.71 101.486 2004.45 100.928C2003.19 100.37 2002.06 99.6467 2001.07 98.758C2000.08 97.8487 1999.28 96.7223 1998.68 95.379C1998.08 94.015 1997.78 92.341 1997.78 90.357C1997.78 88.7657 1998.09 87.226 1998.71 85.738C1999.33 84.25 2000.23 82.9377 2001.41 81.801C2002.61 80.6437 2004.08 79.724 2005.81 79.042C2007.55 78.3393 2009.53 77.988 2011.76 77.988C2014.26 77.988 2016.56 78.391 2018.65 79.197C2020.75 79.9823 2022.58 81.119 2024.13 82.607L2022.52 85.738ZM2038.05 91.504V123H2032.01V91.504H2038.05ZM2039.2 81.77C2039.2 82.328 2039.09 82.8653 2038.86 83.382C2038.63 83.878 2038.32 84.3223 2037.93 84.715C2037.56 85.087 2037.11 85.3867 2036.6 85.614C2036.08 85.8207 2035.54 85.924 2034.98 85.924C2034.43 85.924 2033.9 85.8207 2033.4 85.614C2032.91 85.3867 2032.46 85.087 2032.07 84.715C2031.7 84.3223 2031.4 83.878 2031.17 83.382C2030.96 82.8653 2030.86 82.328 2030.86 81.77C2030.86 81.1913 2030.96 80.654 2031.17 80.158C2031.4 79.6413 2031.7 79.197 2032.07 78.825C2032.46 78.4323 2032.91 78.1327 2033.4 77.926C2033.9 77.6987 2034.43 77.585 2034.98 77.585C2035.54 77.585 2036.08 77.6987 2036.6 77.926C2037.11 78.1327 2037.56 78.4323 2037.93 78.825C2038.32 79.197 2038.63 79.6413 2038.86 80.158C2039.09 80.654 2039.2 81.1913 2039.2 81.77ZM2046.81 123V91.504H2050.43C2051.28 91.504 2051.81 91.907 2052.01 92.713L2052.45 95.72C2053.6 94.3353 2054.89 93.209 2056.29 92.341C2057.72 91.4523 2059.38 91.008 2061.28 91.008C2063.37 91.008 2065.06 91.5867 2066.37 92.744C2067.67 93.8807 2068.62 95.4307 2069.22 97.394C2069.67 96.278 2070.26 95.317 2070.99 94.511C2071.71 93.705 2072.51 93.0437 2073.4 92.527C2074.29 92.0103 2075.23 91.628 2076.22 91.38C2077.24 91.132 2078.26 91.008 2079.29 91.008C2080.97 91.008 2082.46 91.2767 2083.76 91.814C2085.08 92.3307 2086.2 93.0953 2087.11 94.108C2088.01 95.1207 2088.71 96.371 2089.18 97.859C2089.66 99.347 2089.9 101.042 2089.9 102.943V123H2083.82V102.943C2083.82 100.587 2083.3 98.8097 2082.27 97.611C2081.26 96.4123 2079.77 95.813 2077.81 95.813C2076.94 95.813 2076.11 95.968 2075.33 96.278C2074.54 96.5673 2073.85 97.0117 2073.25 97.611C2072.67 98.2103 2072.2 98.9543 2071.85 99.843C2071.52 100.732 2071.36 101.765 2071.36 102.943V123H2065.28V102.943C2065.28 100.504 2064.8 98.7063 2063.82 97.549C2062.85 96.3917 2061.43 95.813 2059.55 95.813C2058.24 95.813 2057.04 96.154 2055.92 96.836C2054.8 97.518 2053.78 98.448 2052.85 99.626V123H2046.81ZM2104.07 115.25C2105.07 116.552 2106.13 117.461 2107.27 117.978C2108.42 118.495 2109.72 118.753 2111.14 118.753C2113.91 118.753 2116.05 117.761 2117.56 115.777C2119.09 113.772 2119.85 110.858 2119.85 107.035C2119.85 105.03 2119.68 103.325 2119.33 101.92C2118.99 100.494 2118.5 99.3367 2117.84 98.448C2117.2 97.5387 2116.4 96.8773 2115.45 96.464C2114.5 96.03 2113.42 95.813 2112.23 95.813C2110.47 95.813 2108.94 96.2057 2107.64 96.991C2106.36 97.7763 2105.17 98.8923 2104.07 100.339V115.25ZM2103.76 96.216C2104.42 95.4307 2105.13 94.7177 2105.87 94.077C2106.64 93.4157 2107.45 92.8577 2108.32 92.403C2109.19 91.9277 2110.11 91.566 2111.08 91.318C2112.07 91.0493 2113.13 90.915 2114.24 90.915C2116.04 90.915 2117.66 91.2663 2119.11 91.969C2120.58 92.6717 2121.83 93.705 2122.86 95.069C2123.89 96.433 2124.69 98.1173 2125.25 100.122C2125.82 102.127 2126.11 104.431 2126.11 107.035C2126.11 109.37 2125.79 111.54 2125.15 113.545C2124.53 115.529 2123.63 117.255 2122.46 118.722C2121.3 120.189 2119.87 121.347 2118.18 122.194C2116.5 123.021 2114.61 123.434 2112.51 123.434C2110.62 123.434 2109.01 123.124 2107.67 122.504C2106.33 121.884 2105.13 121.016 2104.07 119.9V133.571H2098.03V91.504H2101.66C2102.5 91.504 2103.03 91.907 2103.24 92.713L2103.76 96.216ZM2139.1 77.244V123H2133.03V77.244H2139.1ZM2154.06 91.504V123H2148.02V91.504H2154.06ZM2155.21 81.77C2155.21 82.328 2155.09 82.8653 2154.87 83.382C2154.64 83.878 2154.33 84.3223 2153.94 84.715C2153.57 85.087 2153.12 85.3867 2152.6 85.614C2152.09 85.8207 2151.55 85.924 2150.99 85.924C2150.43 85.924 2149.91 85.8207 2149.41 85.614C2148.92 85.3867 2148.47 85.087 2148.08 84.715C2147.71 84.3223 2147.41 83.878 2147.18 83.382C2146.97 82.8653 2146.87 82.328 2146.87 81.77C2146.87 81.1913 2146.97 80.654 2147.18 80.158C2147.41 79.6413 2147.71 79.197 2148.08 78.825C2148.47 78.4323 2148.92 78.1327 2149.41 77.926C2149.91 77.6987 2150.43 77.585 2150.99 77.585C2151.55 77.585 2152.09 77.6987 2152.6 77.926C2153.12 78.1327 2153.57 78.4323 2153.94 78.825C2154.33 79.197 2154.64 79.6413 2154.87 80.158C2155.09 80.654 2155.21 81.1913 2155.21 81.77ZM2164.89 123V96.464L2161.6 96.061C2161.13 95.9577 2160.74 95.7923 2160.43 95.565C2160.14 95.317 2159.99 94.9657 2159.99 94.511V92H2164.89V89.148C2164.89 87.35 2165.15 85.7483 2165.67 84.343C2166.18 82.9377 2166.92 81.7493 2167.87 80.778C2168.84 79.786 2170 79.042 2171.34 78.546C2172.7 78.0293 2174.23 77.771 2175.93 77.771C2177.35 77.771 2178.66 77.9777 2179.86 78.391L2179.74 81.429C2179.72 81.6977 2179.64 81.9043 2179.49 82.049C2179.35 82.173 2179.15 82.266 2178.9 82.328C2178.68 82.39 2178.39 82.4313 2178.03 82.452C2177.7 82.452 2177.34 82.452 2176.95 82.452C2176.02 82.452 2175.17 82.5657 2174.41 82.793C2173.64 83.0203 2172.99 83.4027 2172.45 83.94C2171.92 84.4773 2171.5 85.1903 2171.21 86.079C2170.93 86.947 2170.78 88.032 2170.78 89.334V92H2179.62V96.402H2170.97V123H2164.89ZM2212.2 91.504L2194.71 132.145C2194.53 132.6 2194.28 132.951 2193.97 133.199C2193.66 133.447 2193.21 133.571 2192.61 133.571H2188.11L2193.88 121.016L2180.95 91.504H2186.22C2186.74 91.504 2187.14 91.628 2187.43 91.876C2187.72 92.124 2187.93 92.403 2188.05 92.713L2196.05 111.623C2196.21 112.098 2196.37 112.584 2196.51 113.08C2196.68 113.555 2196.81 114.031 2196.92 114.506C2197.06 114.01 2197.22 113.524 2197.38 113.049C2197.55 112.553 2197.72 112.067 2197.91 111.592L2205.63 92.713C2205.77 92.3617 2206 92.0723 2206.31 91.845C2206.62 91.6177 2206.97 91.504 2207.36 91.504H2212.2Z" fill="#102042"/>
<path d="M2008.63 240.962C2009.33 240.962 2009.97 240.932 2010.54 240.872C2011.13 240.8 2011.68 240.698 2012.2 240.566C2012.71 240.434 2013.2 240.278 2013.66 240.098C2014.11 239.906 2014.57 239.69 2015.02 239.45V233.762H2011.03C2010.8 233.762 2010.61 233.696 2010.47 233.564C2010.34 233.432 2010.27 233.27 2010.27 233.078V231.098H2018.19V240.998C2017.54 241.466 2016.87 241.874 2016.16 242.222C2015.46 242.57 2014.71 242.864 2013.91 243.104C2013.12 243.332 2012.26 243.5 2011.35 243.608C2010.44 243.728 2009.45 243.788 2008.38 243.788C2006.51 243.788 2004.79 243.47 2003.23 242.834C2001.67 242.186 2000.33 241.286 1999.2 240.134C1998.07 238.97 1997.19 237.578 1996.56 235.958C1995.93 234.338 1995.62 232.556 1995.62 230.612C1995.62 228.644 1995.93 226.85 1996.54 225.23C1997.16 223.61 1998.04 222.224 1999.18 221.072C2000.34 219.908 2001.72 219.008 2003.34 218.372C2004.97 217.736 2006.8 217.418 2008.81 217.418C2009.83 217.418 2010.78 217.496 2011.66 217.652C2012.53 217.796 2013.34 218.012 2014.09 218.3C2014.84 218.576 2015.54 218.918 2016.18 219.326C2016.81 219.722 2017.41 220.172 2017.96 220.676L2016.97 222.26C2016.76 222.584 2016.5 222.746 2016.18 222.746C2015.98 222.746 2015.77 222.68 2015.55 222.548C2015.25 222.38 2014.91 222.176 2014.54 221.936C2014.17 221.696 2013.71 221.468 2013.17 221.252C2012.64 221.024 2012.01 220.832 2011.28 220.676C2010.56 220.52 2009.7 220.442 2008.71 220.442C2007.25 220.442 2005.94 220.682 2004.76 221.162C2003.59 221.63 2002.59 222.308 2001.76 223.196C2000.93 224.072 2000.29 225.14 1999.85 226.4C1999.41 227.648 1999.18 229.052 1999.18 230.612C1999.18 232.244 1999.41 233.702 1999.87 234.986C2000.34 236.258 2000.99 237.338 2001.83 238.226C2002.67 239.114 2003.67 239.792 2004.82 240.26C2005.97 240.728 2007.24 240.962 2008.63 240.962ZM2023.07 243.5V225.266H2024.9C2025.25 225.266 2025.49 225.332 2025.62 225.464C2025.75 225.596 2025.84 225.824 2025.89 226.148L2026.11 228.992C2026.73 227.72 2027.5 226.73 2028.41 226.022C2029.34 225.302 2030.42 224.942 2031.65 224.942C2032.16 224.942 2032.61 225.002 2033.02 225.122C2033.43 225.23 2033.81 225.386 2034.15 225.59L2033.74 227.984C2033.66 228.284 2033.47 228.434 2033.18 228.434C2033.01 228.434 2032.76 228.38 2032.41 228.272C2032.06 228.152 2031.57 228.092 2030.95 228.092C2029.83 228.092 2028.9 228.416 2028.14 229.064C2027.4 229.712 2026.77 230.654 2026.27 231.89V243.5H2023.07ZM2044.97 224.978C2046.3 224.978 2047.5 225.2 2048.57 225.644C2049.65 226.088 2050.56 226.718 2051.3 227.534C2052.06 228.35 2052.63 229.34 2053.03 230.504C2053.44 231.656 2053.64 232.946 2053.64 234.374C2053.64 235.814 2053.44 237.11 2053.03 238.262C2052.63 239.414 2052.06 240.398 2051.3 241.214C2050.56 242.03 2049.65 242.66 2048.57 243.104C2047.5 243.536 2046.3 243.752 2044.97 243.752C2043.63 243.752 2042.43 243.536 2041.35 243.104C2040.28 242.66 2039.37 242.03 2038.61 241.214C2037.86 240.398 2037.27 239.414 2036.87 238.262C2036.46 237.11 2036.25 235.814 2036.25 234.374C2036.25 232.946 2036.46 231.656 2036.87 230.504C2037.27 229.34 2037.86 228.35 2038.61 227.534C2039.37 226.718 2040.28 226.088 2041.35 225.644C2042.43 225.2 2043.63 224.978 2044.97 224.978ZM2044.97 241.25C2046.77 241.25 2048.11 240.65 2049 239.45C2049.89 238.238 2050.33 236.552 2050.33 234.392C2050.33 232.22 2049.89 230.528 2049 229.316C2048.11 228.104 2046.77 227.498 2044.97 227.498C2044.05 227.498 2043.26 227.654 2042.59 227.966C2041.92 228.278 2041.35 228.728 2040.9 229.316C2040.45 229.904 2040.12 230.63 2039.89 231.494C2039.67 232.346 2039.57 233.312 2039.57 234.392C2039.57 235.472 2039.67 236.438 2039.89 237.29C2040.12 238.142 2040.45 238.862 2040.9 239.45C2041.35 240.026 2041.92 240.47 2042.59 240.782C2043.26 241.094 2044.05 241.25 2044.97 241.25ZM2060.36 225.266V236.894C2060.36 238.274 2060.68 239.342 2061.31 240.098C2061.95 240.854 2062.91 241.232 2064.19 241.232C2065.13 241.232 2066.01 241.01 2066.84 240.566C2067.67 240.122 2068.43 239.504 2069.13 238.712V225.266H2072.33V243.5H2070.42C2069.97 243.5 2069.68 243.278 2069.56 242.834L2069.31 240.872C2068.51 241.748 2067.63 242.456 2066.64 242.996C2065.66 243.524 2064.53 243.788 2063.26 243.788C2062.26 243.788 2061.38 243.626 2060.61 243.302C2059.86 242.966 2059.22 242.498 2058.7 241.898C2058.19 241.298 2057.8 240.572 2057.53 239.72C2057.28 238.868 2057.16 237.926 2057.16 236.894V225.266H2060.36ZM2077.59 249.674V225.266H2079.5C2079.96 225.266 2080.24 225.488 2080.36 225.932L2080.63 228.092C2081.41 227.144 2082.3 226.382 2083.3 225.806C2084.31 225.23 2085.46 224.942 2086.77 224.942C2087.82 224.942 2088.76 225.146 2089.62 225.554C2090.47 225.95 2091.19 226.544 2091.79 227.336C2092.39 228.116 2092.86 229.088 2093.18 230.252C2093.5 231.416 2093.67 232.754 2093.67 234.266C2093.67 235.61 2093.49 236.864 2093.13 238.028C2092.77 239.18 2092.25 240.182 2091.58 241.034C2090.91 241.874 2090.08 242.54 2089.09 243.032C2088.12 243.512 2087.02 243.752 2085.8 243.752C2084.67 243.752 2083.71 243.566 2082.9 243.194C2082.11 242.822 2081.41 242.294 2080.8 241.61V249.674H2077.59ZM2085.71 227.534C2084.67 227.534 2083.75 227.774 2082.96 228.254C2082.18 228.734 2081.46 229.412 2080.8 230.288V239.108C2081.38 239.9 2082.03 240.458 2082.72 240.782C2083.43 241.106 2084.22 241.268 2085.08 241.268C2086.77 241.268 2088.07 240.662 2088.99 239.45C2089.9 238.238 2090.35 236.51 2090.35 234.266C2090.35 233.078 2090.25 232.058 2090.03 231.206C2089.83 230.354 2089.53 229.658 2089.13 229.118C2088.73 228.566 2088.25 228.164 2087.67 227.912C2087.1 227.66 2086.44 227.534 2085.71 227.534ZM2104.42 249.674V225.266H2106.33C2106.78 225.266 2107.07 225.488 2107.19 225.932L2107.46 228.092C2108.24 227.144 2109.13 226.382 2110.12 225.806C2111.13 225.23 2112.29 224.942 2113.6 224.942C2114.64 224.942 2115.59 225.146 2116.44 225.554C2117.29 225.95 2118.02 226.544 2118.62 227.336C2119.22 228.116 2119.68 229.088 2120.01 230.252C2120.33 231.416 2120.49 232.754 2120.49 234.266C2120.49 235.61 2120.31 236.864 2119.95 238.028C2119.59 239.18 2119.08 240.182 2118.4 241.034C2117.73 241.874 2116.9 242.54 2115.92 243.032C2114.95 243.512 2113.85 243.752 2112.63 243.752C2111.5 243.752 2110.53 243.566 2109.73 243.194C2108.94 242.822 2108.23 242.294 2107.62 241.61V249.674H2104.42ZM2112.54 227.534C2111.49 227.534 2110.57 227.774 2109.78 228.254C2109 228.734 2108.28 229.412 2107.62 230.288V239.108C2108.21 239.9 2108.85 240.458 2109.55 240.782C2110.26 241.106 2111.04 241.268 2111.91 241.268C2113.6 241.268 2114.9 240.662 2115.81 239.45C2116.72 238.238 2117.18 236.51 2117.18 234.266C2117.18 233.078 2117.07 232.058 2116.86 231.206C2116.65 230.354 2116.35 229.658 2115.96 229.118C2115.56 228.566 2115.07 228.164 2114.5 227.912C2113.92 227.66 2113.27 227.534 2112.54 227.534ZM2124.28 243.5V225.266H2126.12C2126.46 225.266 2126.7 225.332 2126.84 225.464C2126.97 225.596 2127.06 225.824 2127.11 226.148L2127.32 228.992C2127.95 227.72 2128.71 226.73 2129.63 226.022C2130.55 225.302 2131.63 224.942 2132.87 224.942C2133.37 224.942 2133.83 225.002 2134.23 225.122C2134.64 225.23 2135.02 225.386 2135.37 225.59L2134.95 227.984C2134.87 228.284 2134.68 228.434 2134.4 228.434C2134.23 228.434 2133.97 228.38 2133.62 228.272C2133.27 228.152 2132.79 228.092 2132.16 228.092C2131.05 228.092 2130.11 228.416 2129.36 229.064C2128.61 229.712 2127.99 230.654 2127.48 231.89V243.5H2124.28ZM2151.52 243.5H2150.1C2149.79 243.5 2149.54 243.452 2149.35 243.356C2149.15 243.26 2149.03 243.056 2148.97 242.744L2148.61 241.052C2148.13 241.484 2147.66 241.874 2147.2 242.222C2146.75 242.558 2146.27 242.846 2145.76 243.086C2145.26 243.314 2144.72 243.488 2144.14 243.608C2143.58 243.728 2142.95 243.788 2142.25 243.788C2141.55 243.788 2140.88 243.692 2140.26 243.5C2139.64 243.296 2139.11 242.996 2138.65 242.6C2138.2 242.204 2137.83 241.706 2137.56 241.106C2137.29 240.494 2137.16 239.774 2137.16 238.946C2137.16 238.226 2137.36 237.536 2137.75 236.876C2138.15 236.204 2138.79 235.61 2139.66 235.094C2140.55 234.578 2141.71 234.158 2143.14 233.834C2144.56 233.498 2146.31 233.306 2148.37 233.258V231.836C2148.37 230.42 2148.07 229.352 2147.46 228.632C2146.86 227.9 2145.96 227.534 2144.77 227.534C2143.99 227.534 2143.33 227.636 2142.79 227.84C2142.27 228.032 2141.8 228.254 2141.41 228.506C2141.02 228.746 2140.69 228.968 2140.4 229.172C2140.12 229.364 2139.85 229.46 2139.57 229.46C2139.36 229.46 2139.16 229.406 2139 229.298C2138.84 229.178 2138.71 229.034 2138.62 228.866L2138.04 227.84C2139.05 226.868 2140.14 226.142 2141.3 225.662C2142.46 225.182 2143.75 224.942 2145.17 224.942C2146.19 224.942 2147.1 225.11 2147.89 225.446C2148.68 225.782 2149.35 226.25 2149.89 226.85C2150.43 227.45 2150.83 228.176 2151.11 229.028C2151.39 229.88 2151.52 230.816 2151.52 231.836V243.5ZM2143.21 241.538C2143.77 241.538 2144.29 241.484 2144.76 241.376C2145.22 241.256 2145.66 241.094 2146.07 240.89C2146.49 240.674 2146.89 240.416 2147.26 240.116C2147.64 239.816 2148.01 239.474 2148.37 239.09V235.292C2146.9 235.34 2145.64 235.46 2144.61 235.652C2143.58 235.832 2142.74 236.072 2142.09 236.372C2141.44 236.672 2140.97 237.026 2140.67 237.434C2140.38 237.842 2140.24 238.298 2140.24 238.802C2140.24 239.282 2140.32 239.696 2140.47 240.044C2140.63 240.392 2140.84 240.68 2141.1 240.908C2141.37 241.124 2141.68 241.286 2142.04 241.394C2142.4 241.49 2142.79 241.538 2143.21 241.538ZM2161.16 248.882C2161.05 249.122 2160.92 249.314 2160.75 249.458C2160.59 249.602 2160.35 249.674 2160.01 249.674H2157.63L2160.96 242.438L2153.44 225.266H2156.21C2156.49 225.266 2156.7 225.338 2156.86 225.482C2157.02 225.614 2157.13 225.764 2157.2 225.932L2162.08 237.416C2162.19 237.68 2162.28 237.944 2162.35 238.208C2162.43 238.472 2162.51 238.742 2162.57 239.018C2162.65 238.742 2162.73 238.472 2162.82 238.208C2162.9 237.944 2163 237.674 2163.11 237.398L2167.84 225.932C2167.91 225.74 2168.03 225.584 2168.2 225.464C2168.38 225.332 2168.57 225.266 2168.78 225.266H2171.33L2161.16 248.882ZM2181 224.978C2182.09 224.978 2183.1 225.164 2184.02 225.536C2184.95 225.896 2185.74 226.424 2186.42 227.12C2187.09 227.804 2187.61 228.656 2187.98 229.676C2188.37 230.684 2188.56 231.836 2188.56 233.132C2188.56 233.636 2188.5 233.972 2188.4 234.14C2188.29 234.308 2188.08 234.392 2187.78 234.392H2175.65C2175.68 235.544 2175.83 236.546 2176.12 237.398C2176.41 238.25 2176.8 238.964 2177.31 239.54C2177.81 240.104 2178.41 240.53 2179.11 240.818C2179.8 241.094 2180.58 241.232 2181.45 241.232C2182.25 241.232 2182.94 241.142 2183.52 240.962C2184.11 240.77 2184.61 240.566 2185.03 240.35C2185.45 240.134 2185.8 239.936 2186.07 239.756C2186.36 239.564 2186.61 239.468 2186.81 239.468C2187.08 239.468 2187.28 239.57 2187.42 239.774L2188.32 240.944C2187.93 241.424 2187.45 241.844 2186.9 242.204C2186.35 242.552 2185.76 242.84 2185.12 243.068C2184.5 243.296 2183.85 243.464 2183.18 243.572C2182.5 243.692 2181.84 243.752 2181.18 243.752C2179.92 243.752 2178.75 243.542 2177.69 243.122C2176.63 242.69 2175.71 242.066 2174.93 241.25C2174.16 240.422 2173.56 239.402 2173.13 238.19C2172.7 236.978 2172.48 235.586 2172.48 234.014C2172.48 232.742 2172.68 231.554 2173.06 230.45C2173.46 229.346 2174.02 228.392 2174.75 227.588C2175.48 226.772 2176.38 226.136 2177.43 225.68C2178.49 225.212 2179.68 224.978 2181 224.978ZM2181.07 227.336C2179.52 227.336 2178.3 227.786 2177.42 228.686C2176.53 229.574 2175.98 230.81 2175.76 232.394H2185.68C2185.68 231.65 2185.58 230.972 2185.37 230.36C2185.17 229.736 2184.87 229.202 2184.47 228.758C2184.08 228.302 2183.59 227.954 2183.01 227.714C2182.45 227.462 2181.8 227.336 2181.07 227.336ZM2192.66 243.5V225.266H2194.5C2194.84 225.266 2195.08 225.332 2195.22 225.464C2195.35 225.596 2195.44 225.824 2195.49 226.148L2195.7 228.992C2196.33 227.72 2197.09 226.73 2198.01 226.022C2198.93 225.302 2200.01 224.942 2201.25 224.942C2201.75 224.942 2202.21 225.002 2202.61 225.122C2203.02 225.23 2203.4 225.386 2203.75 225.59L2203.33 227.984C2203.25 228.284 2203.06 228.434 2202.78 228.434C2202.61 228.434 2202.35 228.38 2202 228.272C2201.65 228.152 2201.17 228.092 2200.54 228.092C2199.43 228.092 2198.49 228.416 2197.74 229.064C2196.99 229.712 2196.37 230.654 2195.86 231.89V243.5H2192.66Z" fill="#797A7E"/>
<path fill-rule="evenodd" clip-rule="evenodd" d="M1994.05 364.733C1994.08 364.697 1994.13 364.675 1994.18 364.675L2004.06 364.675C2005.36 364.675 2006.31 363.45 2006.27 362.152C2006.27 362.036 2006.27 361.919 2006.27 361.802L2006.27 336C2006.27 329.373 2011.64 324 2018.27 324L2056.12 324C2062.75 324 2068.12 329.373 2068.12 336L2068.12 361.802C2068.12 361.919 2068.12 362.036 2068.12 362.152C2068.08 363.45 2069.03 364.675 2070.33 364.675L2078.82 364.675C2078.87 364.675 2078.92 364.697 2078.95 364.733C2079.01 364.8 2079.01 364.901 2078.95 364.967L2045.42 402.27C2040.66 407.574 2032.34 407.574 2027.58 402.27L1994.05 364.967C1993.99 364.901 1993.99 364.8 1994.05 364.733Z" fill="url(#paint1_radial_847_20768)" fill-opacity="0.5"/>
<path d="M2057.61 428.484L2043.72 473H2037.77L2026.92 439.985C2026.67 439.324 2026.46 438.528 2026.27 437.598C2026.04 438.549 2025.83 439.344 2025.62 439.985L2014.65 473H2008.73L1994.84 428.484H2000.36C2000.93 428.484 2001.42 428.629 2001.81 428.918C2002.2 429.187 2002.46 429.559 2002.59 430.034L2011.36 459.825C2011.53 460.404 2011.67 461.034 2011.79 461.716C2011.94 462.398 2012.08 463.111 2012.23 463.855C2012.37 463.111 2012.52 462.398 2012.66 461.716C2012.83 461.034 2013.01 460.404 2013.22 459.825L2023.26 430.034C2023.39 429.621 2023.65 429.259 2024.04 428.949C2024.45 428.639 2024.94 428.484 2025.5 428.484H2027.39C2027.97 428.484 2028.44 428.629 2028.81 428.918C2029.19 429.207 2029.45 429.579 2029.62 430.034L2039.63 459.825C2040 460.962 2040.33 462.253 2040.62 463.7C2040.87 462.274 2041.14 460.982 2041.43 459.825L2050.23 430.034C2050.34 429.621 2050.6 429.259 2051.01 428.949C2051.42 428.639 2051.91 428.484 2052.47 428.484H2057.61ZM2068.75 441.504V473H2062.71V441.504H2068.75ZM2069.9 431.77C2069.9 432.328 2069.78 432.865 2069.56 433.382C2069.33 433.878 2069.02 434.322 2068.63 434.715C2068.25 435.087 2067.81 435.387 2067.29 435.614C2066.78 435.821 2066.24 435.924 2065.68 435.924C2065.12 435.924 2064.6 435.821 2064.1 435.614C2063.6 435.387 2063.16 435.087 2062.77 434.715C2062.4 434.322 2062.1 433.878 2061.87 433.382C2061.66 432.865 2061.56 432.328 2061.56 431.77C2061.56 431.191 2061.66 430.654 2061.87 430.158C2062.1 429.641 2062.4 429.197 2062.77 428.825C2063.16 428.432 2063.6 428.133 2064.1 427.926C2064.6 427.699 2065.12 427.585 2065.68 427.585C2066.24 427.585 2066.78 427.699 2067.29 427.926C2067.81 428.133 2068.25 428.432 2068.63 428.825C2069.02 429.197 2069.33 429.641 2069.56 430.158C2069.78 430.654 2069.9 431.191 2069.9 431.77ZM2083.21 447.549C2084.22 445.482 2085.44 443.86 2086.86 442.682C2088.29 441.504 2090.01 440.915 2092.01 440.915C2092.69 440.915 2093.33 440.998 2093.93 441.163C2094.55 441.308 2095.09 441.535 2095.54 441.845L2095.14 446.402C2095 446.96 2094.66 447.239 2094.12 447.239C2093.83 447.239 2093.4 447.187 2092.82 447.084C2092.24 446.96 2091.62 446.898 2090.96 446.898C2089.99 446.898 2089.13 447.043 2088.38 447.332C2087.64 447.601 2086.97 448.014 2086.37 448.572C2085.79 449.109 2085.27 449.781 2084.82 450.587C2084.36 451.372 2083.94 452.271 2083.55 453.284V473H2077.5V441.504H2080.97C2081.64 441.504 2082.08 441.628 2082.31 441.876C2082.56 442.103 2082.73 442.517 2082.83 443.116L2083.21 447.549ZM2119.92 453.749C2119.92 452.55 2119.74 451.445 2119.39 450.432C2119.06 449.419 2118.57 448.541 2117.91 447.797C2117.24 447.053 2116.44 446.474 2115.49 446.061C2114.54 445.648 2113.44 445.441 2112.2 445.441C2109.66 445.441 2107.65 446.175 2106.19 447.642C2104.74 449.109 2103.82 451.145 2103.43 453.749H2119.92ZM2124.91 468.505C2124.17 469.373 2123.31 470.127 2122.34 470.768C2121.37 471.388 2120.33 471.894 2119.24 472.287C2118.14 472.68 2117.01 472.969 2115.83 473.155C2114.67 473.341 2113.52 473.434 2112.39 473.434C2110.22 473.434 2108.2 473.072 2106.34 472.349C2104.5 471.605 2102.9 470.53 2101.54 469.125C2100.19 467.699 2099.14 465.942 2098.38 463.855C2097.63 461.747 2097.26 459.329 2097.26 456.601C2097.26 454.41 2097.6 452.375 2098.28 450.494C2098.96 448.593 2099.94 446.939 2101.2 445.534C2102.48 444.129 2104.04 443.023 2105.88 442.217C2107.72 441.411 2109.78 441.008 2112.08 441.008C2114 441.008 2115.77 441.328 2117.38 441.969C2119.01 442.589 2120.42 443.498 2121.59 444.697C2122.77 445.896 2123.69 447.373 2124.35 449.13C2125.04 450.887 2125.38 452.891 2125.38 455.144C2125.38 456.074 2125.27 456.704 2125.07 457.035C2124.86 457.345 2124.48 457.5 2123.92 457.5H2103.27C2103.34 459.381 2103.6 461.024 2104.08 462.429C2104.55 463.814 2105.21 464.971 2106.03 465.901C2106.88 466.831 2107.88 467.523 2109.04 467.978C2110.2 468.433 2111.49 468.66 2112.91 468.66C2114.26 468.66 2115.42 468.505 2116.39 468.195C2117.38 467.885 2118.23 467.554 2118.93 467.203C2119.65 466.831 2120.25 466.49 2120.73 466.18C2121.22 465.87 2121.66 465.715 2122.03 465.715C2122.52 465.715 2122.91 465.901 2123.18 466.273L2124.91 468.505ZM2133.59 473V446.464L2130.3 446.061C2129.83 445.958 2129.43 445.792 2129.12 445.565C2128.83 445.317 2128.69 444.966 2128.69 444.511V442H2133.59V439.148C2133.59 437.35 2133.85 435.748 2134.36 434.343C2134.88 432.938 2135.61 431.749 2136.56 430.778C2137.54 429.786 2138.69 429.042 2140.04 428.546C2141.4 428.029 2142.93 427.771 2144.62 427.771C2146.05 427.771 2147.36 427.978 2148.56 428.391L2148.44 431.429C2148.42 431.698 2148.33 431.904 2148.19 432.049C2148.04 432.173 2147.85 432.266 2147.6 432.328C2147.37 432.39 2147.08 432.431 2146.73 432.452C2146.4 432.452 2146.04 432.452 2145.65 432.452C2144.72 432.452 2143.87 432.566 2143.1 432.793C2142.34 433.02 2141.69 433.403 2141.15 433.94C2140.61 434.477 2140.2 435.19 2139.91 436.079C2139.62 436.947 2139.48 438.032 2139.48 439.334V442H2148.31V446.402H2139.66V473H2133.59ZM2159.07 447.549C2160.08 445.482 2161.3 443.86 2162.73 442.682C2164.16 441.504 2165.87 440.915 2167.88 440.915C2168.56 440.915 2169.2 440.998 2169.8 441.163C2170.42 441.308 2170.96 441.535 2171.41 441.845L2171.01 446.402C2170.86 446.96 2170.52 447.239 2169.98 447.239C2169.69 447.239 2169.26 447.187 2168.68 447.084C2168.1 446.96 2167.48 446.898 2166.82 446.898C2165.85 446.898 2164.99 447.043 2164.25 447.332C2163.51 447.601 2162.83 448.014 2162.23 448.572C2161.66 449.109 2161.14 449.781 2160.68 450.587C2160.23 451.372 2159.81 452.271 2159.41 453.284V473H2153.37V441.504H2156.84C2157.5 441.504 2157.95 441.628 2158.17 441.876C2158.42 442.103 2158.6 442.517 2158.7 443.116L2159.07 447.549ZM2192.51 459.019C2190.06 459.102 2187.97 459.298 2186.25 459.608C2184.54 459.897 2183.14 460.29 2182.07 460.786C2180.99 461.282 2180.22 461.871 2179.74 462.553C2179.27 463.214 2179.03 463.958 2179.03 464.785C2179.03 465.57 2179.15 466.252 2179.4 466.831C2179.67 467.389 2180.02 467.854 2180.46 468.226C2180.91 468.577 2181.44 468.836 2182.04 469.001C2182.64 469.166 2183.29 469.249 2183.99 469.249C2184.92 469.249 2185.77 469.156 2186.53 468.97C2187.32 468.784 2188.05 468.526 2188.73 468.195C2189.41 467.844 2190.07 467.42 2190.69 466.924C2191.31 466.428 2191.92 465.86 2192.51 465.219V459.019ZM2174.78 445.906C2176.54 444.232 2178.44 442.982 2180.49 442.155C2182.55 441.328 2184.82 440.915 2187.28 440.915C2189.07 440.915 2190.67 441.215 2192.05 441.814C2193.43 442.393 2194.6 443.209 2195.55 444.263C2196.5 445.317 2197.22 446.578 2197.69 448.045C2198.19 449.512 2198.44 451.135 2198.44 452.912V473H2195.74C2195.14 473 2194.68 472.907 2194.37 472.721C2194.06 472.514 2193.82 472.142 2193.63 471.605L2192.98 468.846C2192.17 469.59 2191.38 470.251 2190.59 470.83C2189.81 471.388 2188.98 471.874 2188.11 472.287C2187.27 472.68 2186.36 472.979 2185.38 473.186C2184.41 473.393 2183.34 473.496 2182.16 473.496C2180.92 473.496 2179.75 473.331 2178.66 473C2177.58 472.649 2176.64 472.122 2175.84 471.419C2175.03 470.716 2174.39 469.838 2173.91 468.784C2173.46 467.73 2173.23 466.5 2173.23 465.095C2173.23 463.855 2173.56 462.667 2174.22 461.53C2174.91 460.373 2176 459.339 2177.51 458.43C2179.04 457.521 2181.02 456.777 2183.46 456.198C2185.92 455.619 2188.94 455.289 2192.51 455.206V452.912C2192.51 450.535 2192.01 448.758 2191 447.58C2189.98 446.402 2188.5 445.813 2186.53 445.813C2185.21 445.813 2184.09 445.978 2183.18 446.309C2182.3 446.64 2181.52 447.012 2180.86 447.425C2180.22 447.818 2179.65 448.179 2179.15 448.51C2178.68 448.841 2178.18 449.006 2177.67 449.006C2177.25 449.006 2176.89 448.892 2176.58 448.665C2176.29 448.438 2176.05 448.169 2175.87 447.859L2174.78 445.906ZM2206.53 473V441.504H2210.16C2211 441.504 2211.53 441.907 2211.74 442.713L2212.17 445.72C2213.33 444.335 2214.61 443.209 2216.01 442.341C2217.44 441.452 2219.1 441.008 2221.01 441.008C2223.09 441.008 2224.79 441.587 2226.09 442.744C2227.39 443.881 2228.34 445.431 2228.94 447.394C2229.4 446.278 2229.98 445.317 2230.71 444.511C2231.43 443.705 2232.24 443.044 2233.13 442.527C2234.01 442.01 2234.96 441.628 2235.95 441.38C2236.96 441.132 2237.98 441.008 2239.02 441.008C2240.69 441.008 2242.18 441.277 2243.48 441.814C2244.8 442.331 2245.92 443.095 2246.83 444.108C2247.74 445.121 2248.43 446.371 2248.91 447.859C2249.38 449.347 2249.62 451.042 2249.62 452.943V473H2243.54V452.943C2243.54 450.587 2243.03 448.81 2241.99 447.611C2240.98 446.412 2239.49 445.813 2237.53 445.813C2236.66 445.813 2235.83 445.968 2235.05 446.278C2234.26 446.567 2233.57 447.012 2232.97 447.611C2232.39 448.21 2231.93 448.954 2231.58 449.843C2231.25 450.732 2231.08 451.765 2231.08 452.943V473H2225V452.943C2225 450.504 2224.52 448.706 2223.55 447.549C2222.58 446.392 2221.15 445.813 2219.27 445.813C2217.97 445.813 2216.76 446.154 2215.64 446.836C2214.53 447.518 2213.5 448.448 2212.57 449.626V473H2206.53ZM2278.61 453.749C2278.61 452.55 2278.44 451.445 2278.09 450.432C2277.76 449.419 2277.26 448.541 2276.6 447.797C2275.94 447.053 2275.13 446.474 2274.18 446.061C2273.23 445.648 2272.13 445.441 2270.89 445.441C2268.35 445.441 2266.35 446.175 2264.88 447.642C2263.43 449.109 2262.51 451.145 2262.12 453.749H2278.61ZM2283.6 468.505C2282.86 469.373 2282 470.127 2281.03 470.768C2280.06 471.388 2279.03 471.894 2277.93 472.287C2276.84 472.68 2275.7 472.969 2274.52 473.155C2273.36 473.341 2272.22 473.434 2271.08 473.434C2268.91 473.434 2266.9 473.072 2265.04 472.349C2263.2 471.605 2261.59 470.53 2260.23 469.125C2258.89 467.699 2257.83 465.942 2257.07 463.855C2256.32 461.747 2255.95 459.329 2255.95 456.601C2255.95 454.41 2256.29 452.375 2256.98 450.494C2257.66 448.593 2258.63 446.939 2259.89 445.534C2261.17 444.129 2262.73 443.023 2264.57 442.217C2266.41 441.411 2268.48 441.008 2270.77 441.008C2272.69 441.008 2274.46 441.328 2276.07 441.969C2277.7 442.589 2279.11 443.498 2280.29 444.697C2281.47 445.896 2282.39 447.373 2283.05 449.13C2283.73 450.887 2284.07 452.891 2284.07 455.144C2284.07 456.074 2283.97 456.704 2283.76 457.035C2283.55 457.345 2283.17 457.5 2282.61 457.5H2261.97C2262.03 459.381 2262.3 461.024 2262.77 462.429C2263.25 463.814 2263.9 464.971 2264.73 465.901C2265.57 466.831 2266.58 467.523 2267.73 467.978C2268.89 468.433 2270.18 468.66 2271.61 468.66C2272.95 468.66 2274.11 468.505 2275.08 468.195C2276.07 467.885 2276.92 467.554 2277.62 467.203C2278.35 466.831 2278.94 466.49 2279.42 466.18C2279.92 465.87 2280.35 465.715 2280.72 465.715C2281.22 465.715 2281.6 465.901 2281.87 466.273L2283.6 468.505ZM2316.11 473.496C2313.56 473.496 2311.6 472.783 2310.22 471.357C2308.85 469.931 2308.17 467.895 2308.17 465.25V446.402H2304.51C2304.16 446.402 2303.86 446.299 2303.61 446.092C2303.39 445.865 2303.27 445.534 2303.27 445.1V442.651L2308.39 441.938L2309.75 432.545C2309.83 432.194 2309.99 431.925 2310.22 431.739C2310.46 431.532 2310.77 431.429 2311.15 431.429H2314.22V442H2323.14V446.402H2314.22V464.847C2314.22 466.087 2314.52 467.017 2315.11 467.637C2315.73 468.236 2316.52 468.536 2317.47 468.536C2318.03 468.536 2318.5 468.464 2318.9 468.319C2319.31 468.174 2319.66 468.019 2319.95 467.854C2320.24 467.668 2320.49 467.503 2320.69 467.358C2320.9 467.213 2321.09 467.141 2321.25 467.141C2321.46 467.141 2321.61 467.193 2321.72 467.296C2321.84 467.379 2321.97 467.523 2322.09 467.73L2323.89 470.644C2322.9 471.553 2321.72 472.256 2320.35 472.752C2318.99 473.248 2317.57 473.496 2316.11 473.496ZM2349.39 453.749C2349.39 452.55 2349.22 451.445 2348.87 450.432C2348.54 449.419 2348.04 448.541 2347.38 447.797C2346.72 447.053 2345.91 446.474 2344.96 446.061C2344.01 445.648 2342.91 445.441 2341.67 445.441C2339.13 445.441 2337.13 446.175 2335.66 447.642C2334.21 449.109 2333.29 451.145 2332.9 453.749H2349.39ZM2354.38 468.505C2353.64 469.373 2352.78 470.127 2351.81 470.768C2350.84 471.388 2349.81 471.894 2348.71 472.287C2347.62 472.68 2346.48 472.969 2345.3 473.155C2344.14 473.341 2343 473.434 2341.86 473.434C2339.69 473.434 2337.68 473.072 2335.82 472.349C2333.98 471.605 2332.37 470.53 2331.01 469.125C2329.67 467.699 2328.61 465.942 2327.85 463.855C2327.1 461.747 2326.73 459.329 2326.73 456.601C2326.73 454.41 2327.07 452.375 2327.76 450.494C2328.44 448.593 2329.41 446.939 2330.67 445.534C2331.95 444.129 2333.51 443.023 2335.35 442.217C2337.19 441.411 2339.26 441.008 2341.55 441.008C2343.47 441.008 2345.24 441.328 2346.85 441.969C2348.48 442.589 2349.89 443.498 2351.07 444.697C2352.25 445.896 2353.16 447.373 2353.83 449.13C2354.51 450.887 2354.85 452.891 2354.85 455.144C2354.85 456.074 2354.75 456.704 2354.54 457.035C2354.33 457.345 2353.95 457.5 2353.39 457.5H2332.75C2332.81 459.381 2333.08 461.024 2333.55 462.429C2334.03 463.814 2334.68 464.971 2335.51 465.901C2336.35 466.831 2337.35 467.523 2338.51 467.978C2339.67 468.433 2340.96 468.66 2342.39 468.66C2343.73 468.66 2344.89 468.505 2345.86 468.195C2346.85 467.885 2347.7 467.554 2348.4 467.203C2349.12 466.831 2349.72 466.49 2350.2 466.18C2350.7 465.87 2351.13 465.715 2351.5 465.715C2352 465.715 2352.38 465.901 2352.65 466.273L2354.38 468.505ZM2379.92 446.929C2379.75 447.198 2379.57 447.394 2379.39 447.518C2379.2 447.621 2378.96 447.673 2378.68 447.673C2378.34 447.673 2377.97 447.559 2377.56 447.332C2377.17 447.105 2376.68 446.857 2376.1 446.588C2375.54 446.319 2374.88 446.071 2374.12 445.844C2373.35 445.617 2372.44 445.503 2371.39 445.503C2370.52 445.503 2369.73 445.617 2369 445.844C2368.3 446.051 2367.7 446.35 2367.21 446.743C2366.71 447.115 2366.33 447.57 2366.06 448.107C2365.79 448.624 2365.66 449.182 2365.66 449.781C2365.66 450.566 2365.88 451.217 2366.34 451.734C2366.81 452.251 2367.42 452.695 2368.17 453.067C2368.93 453.439 2369.79 453.78 2370.74 454.09C2371.71 454.379 2372.69 454.689 2373.68 455.02C2374.7 455.351 2375.68 455.733 2376.63 456.167C2377.6 456.58 2378.46 457.107 2379.2 457.748C2379.97 458.368 2380.58 459.122 2381.03 460.011C2381.51 460.9 2381.74 461.985 2381.74 463.266C2381.74 464.733 2381.48 466.097 2380.94 467.358C2380.42 468.598 2379.65 469.673 2378.61 470.582C2377.6 471.491 2376.34 472.204 2374.83 472.721C2373.32 473.238 2371.6 473.496 2369.65 473.496C2367.48 473.496 2365.48 473.134 2363.64 472.411C2361.8 471.688 2360.26 470.768 2359.02 469.652L2360.45 467.327C2360.61 467.038 2360.82 466.821 2361.07 466.676C2361.32 466.511 2361.65 466.428 2362.06 466.428C2362.45 466.428 2362.86 466.573 2363.27 466.862C2363.68 467.151 2364.18 467.472 2364.76 467.823C2365.34 468.154 2366.04 468.464 2366.86 468.753C2367.69 469.022 2368.72 469.156 2369.96 469.156C2371 469.156 2371.9 469.032 2372.66 468.784C2373.43 468.515 2374.06 468.164 2374.55 467.73C2375.07 467.275 2375.45 466.759 2375.7 466.18C2375.95 465.601 2376.07 464.992 2376.07 464.351C2376.07 463.524 2375.83 462.842 2375.36 462.305C2374.9 461.747 2374.29 461.272 2373.53 460.879C2372.79 460.486 2371.93 460.145 2370.96 459.856C2369.99 459.567 2368.99 459.257 2367.98 458.926C2366.97 458.595 2365.98 458.213 2365 457.779C2364.03 457.345 2363.17 456.797 2362.4 456.136C2361.66 455.475 2361.05 454.669 2360.57 453.718C2360.12 452.767 2359.89 451.61 2359.89 450.246C2359.89 449.027 2360.14 447.859 2360.63 446.743C2361.15 445.627 2361.88 444.645 2362.83 443.798C2363.81 442.951 2364.99 442.279 2366.4 441.783C2367.83 441.266 2369.45 441.008 2371.27 441.008C2373.35 441.008 2375.23 441.339 2376.91 442C2378.6 442.661 2380.05 443.571 2381.25 444.728L2379.92 446.929ZM2398.15 473.496C2395.61 473.496 2393.64 472.783 2392.26 471.357C2390.89 469.931 2390.21 467.895 2390.21 465.25V446.402H2386.55C2386.2 446.402 2385.9 446.299 2385.65 446.092C2385.43 445.865 2385.31 445.534 2385.31 445.1V442.651L2390.43 441.938L2391.79 432.545C2391.88 432.194 2392.03 431.925 2392.26 431.739C2392.51 431.532 2392.82 431.429 2393.19 431.429H2396.26V442H2405.18V446.402H2396.26V464.847C2396.26 466.087 2396.56 467.017 2397.16 467.637C2397.78 468.236 2398.56 468.536 2399.51 468.536C2400.07 468.536 2400.55 468.464 2400.94 468.319C2401.35 468.174 2401.7 468.019 2401.99 467.854C2402.28 467.668 2402.53 467.503 2402.74 467.358C2402.94 467.213 2403.13 467.141 2403.29 467.141C2403.5 467.141 2403.66 467.193 2403.76 467.296C2403.88 467.379 2404.01 467.523 2404.13 467.73L2405.93 470.644C2404.94 471.553 2403.76 472.256 2402.39 472.752C2401.03 473.248 2399.62 473.496 2398.15 473.496ZM2452.75 467.265C2453.41 467.265 2453.93 467.461 2454.3 467.854C2454.68 468.226 2454.86 468.722 2454.86 469.342V473H2424.98V470.923C2424.98 470.51 2425.06 470.076 2425.23 469.621C2425.39 469.146 2425.67 468.722 2426.06 468.35L2440.14 454.245C2441.31 453.067 2442.38 451.93 2443.33 450.835C2444.28 449.74 2445.09 448.655 2445.75 447.58C2446.41 446.485 2446.92 445.369 2447.27 444.232C2447.64 443.095 2447.82 441.897 2447.82 440.636C2447.82 439.396 2447.63 438.311 2447.24 437.381C2446.84 436.43 2446.31 435.645 2445.62 435.025C2444.94 434.405 2444.14 433.94 2443.21 433.63C2442.28 433.32 2441.27 433.165 2440.2 433.165C2439.12 433.165 2438.13 433.32 2437.22 433.63C2436.33 433.94 2435.54 434.374 2434.84 434.932C2434.13 435.49 2433.54 436.151 2433.07 436.916C2432.59 437.681 2432.25 438.507 2432.05 439.396C2431.76 440.181 2431.38 440.708 2430.93 440.977C2430.5 441.246 2429.85 441.308 2429.01 441.163L2425.85 440.605C2426.13 438.538 2426.7 436.72 2427.55 435.149C2428.4 433.578 2429.46 432.266 2430.74 431.212C2432.02 430.137 2433.49 429.331 2435.15 428.794C2436.82 428.257 2438.62 427.988 2440.54 427.988C2442.48 427.988 2444.27 428.277 2445.9 428.856C2447.56 429.414 2448.98 430.23 2450.18 431.305C2451.38 432.38 2452.32 433.692 2453 435.242C2453.68 436.771 2454.02 438.507 2454.02 440.45C2454.02 442.103 2453.78 443.643 2453.28 445.069C2452.81 446.474 2452.14 447.818 2451.3 449.099C2450.47 450.38 2449.5 451.631 2448.38 452.85C2447.29 454.049 2446.12 455.268 2444.88 456.508L2433.6 468.04C2434.46 467.813 2435.33 467.627 2436.2 467.482C2437.09 467.337 2437.93 467.265 2438.71 467.265H2452.75Z" fill="#EFBD66"/>
<defs>
<filter id="filter0_d_847_20768" x="1826" y="0" width="2025.49" height="588" filterUnits="userSpaceOnUse" color-interpolation-filters="sRGB">
<feFlood flood-opacity="0" result="BackgroundImageFix"/>
<feColorMatrix in="SourceAlpha" type="matrix" values="0 0 0 0 0 0 0 0 0 0 0 0 0 0 0 0 0 0 127 0" result="hardAlpha"/>
<feOffset dx="10" dy="20"/>
<feGaussianBlur stdDeviation="25"/>
<feComposite in2="hardAlpha" operator="out"/>
<feColorMatrix type="matrix" values="0 0 0 0 0.783333 0 0 0 0 0.783333 0 0 0 0 0.783333 0 0 0 0.25 0"/>
<feBlend mode="normal" in2="BackgroundImageFix" result="effect1_dropShadow_847_20768"/>
<feBlend mode="normal" in="SourceGraphic" in2="effect1_dropShadow_847_20768" result="shape"/>
</filter>
<filter id="filter1_d_847_20768" x="0" y="0" width="2025.49" height="588" filterUnits="userSpaceOnUse" color-interpolation-filters="sRGB">
<feFlood flood-opacity="0" result="BackgroundImageFix"/>
<feColorMatrix in="SourceAlpha" type="matrix" values="0 0 0 0 0 0 0 0 0 0 0 0 0 0 0 0 0 0 127 0" result="hardAlpha"/>
<feOffset dx="10" dy="20"/>
<feGaussianBlur stdDeviation="25"/>
<feComposite in2="hardAlpha" operator="out"/>
<feColorMatrix type="matrix" values="0 0 0 0 0.783333 0 0 0 0 0.783333 0 0 0 0 0.783333 0 0 0 0.25 0"/>
<feBlend mode="normal" in2="BackgroundImageFix" result="effect1_dropShadow_847_20768"/>
<feBlend mode="normal" in="SourceGraphic" in2="effect1_dropShadow_847_20768" result="shape"/>
</filter>
<radialGradient id="paint0_radial_847_20768" cx="0" cy="0" r="1" gradientUnits="userSpaceOnUse" gradientTransform="translate(188.103 299.493) rotate(91.1049) scale(120.297 3161.98)">
<stop offset="0.0208333" stop-color="white" stop-opacity="0"/>
<stop offset="0.260417" stop-color="#FABD63" stop-opacity="0.42"/>
<stop offset="0.78125" stop-color="#FABA4A" stop-opacity="0.9"/>
<stop offset="1" stop-color="#CC8200"/>
</radialGradient>
<radialGradient id="paint1_radial_847_20768" cx="0" cy="0" r="1" gradientUnits="userSpaceOnUse" gradientTransform="translate(2014.1 299.493) rotate(91.1049) scale(120.297 3161.98)">
<stop offset="0.0208333" stop-color="white" stop-opacity="0"/>
<stop offset="0.260417" stop-color="#FABD63" stop-opacity="0.42"/>
<stop offset="0.78125" stop-color="#FABA4A" stop-opacity="0.9"/>
<stop offset="1" stop-color="#CC8200"/>
</radialGradient>
</defs>
</svg>
