<?xml version="1.0" encoding="utf-8"?>
<!-- Generator: Adobe Illustrator 25.2.1, SVG Export Plug-In . SVG Version: 6.00 Build 0)  -->
<svg version="1.1" id="Layer_2_1_" xmlns="http://www.w3.org/2000/svg" xmlns:xlink="http://www.w3.org/1999/xlink" x="0px" y="0px"
	 viewBox="0 0 720 720" style="enable-background:new 0 0 720 720;" xml:space="preserve">
<style type="text/css">
	.st0{fill:#FFBF00;stroke:#FFFFFF;stroke-width:8;stroke-linecap:round;stroke-miterlimit:10;}
	.st1{fill:#FEE28B;stroke:#FFFFFF;stroke-width:8;stroke-miterlimit:10;}
	.st2{fill:#FFFFFF;}
	.st3{fill:#EEEEEE;stroke:#FFFFFF;stroke-width:6;stroke-linejoin:round;}
	.st4{fill:none;stroke:#FFBF00;stroke-linecap:round;stroke-miterlimit:10;}
	.st5{fill:#FFBF00;}
	.st6{font-family:'ArialMT';}
	.st7{font-size:26px;}
	.st8{clip-path:url(#SVGID_2_);}
	.st9{clip-path:url(#SVGID_4_);}
</style>
<circle class="st0" cx="-179.9" cy="225.7" r="87.9"/>
<path class="st1" d="M-180.3,225.7c-0.5,0-0.8-0.4-0.8-0.9v-93.2c52.1,1.3,93.7,43.9,93.8,96c0,2.8-0.1,5.7-0.4,8.6L-180.3,225.7z"
	/>
<path class="st2" d="M-178.8,134c49.9,2.5,89.2,43.7,89.2,93.6c0,2-0.1,4-0.2,6.1l-89-10.1V134 M-183.4,129.4v95.4
	c0,1.6,1.2,3,2.8,3.2l94.8,10.8c0.4-3.7,0.6-7.4,0.6-11.1C-85.1,173.4-129.1,129.4-183.4,129.4L-183.4,129.4z"/>
<path class="st3" d="M-79.2,238.8l-24.6-2.9l-76.2-8.7l93.7,38.9C-82.6,257.4-80.3,248.2-79.2,238.8z"/>
<g>
	<g>
		<line class="st4" x1="39" y1="338.9" x2="681" y2="338.9"/>
		<g>
			<path class="st5" d="M47.1,344.6c0.1-0.2,0.1-0.6-0.2-0.8l-7.8-4.9l7.8-4.9c0.2-0.1,0.4-0.6,0.2-0.8c-0.1-0.2-0.6-0.4-0.8-0.2
				l-8.5,5.4c-0.1,0.1-0.2,0.4-0.2,0.5s0.1,0.4,0.2,0.5l8.5,5.4c0.1,0.1,0.2,0.1,0.4,0.1C46.9,345,47,344.9,47.1,344.6z"/>
		</g>
		<g>
			<path class="st5" d="M672.9,344.6c-0.1-0.2-0.1-0.6,0.2-0.8l7.8-4.9l-7.8-4.9c-0.2-0.1-0.4-0.6-0.2-0.8c0.1-0.2,0.6-0.4,0.8-0.2
				l8.5,5.4c0.1,0.1,0.2,0.4,0.2,0.5s-0.1,0.4-0.2,0.5l-8.5,5.4c-0.1,0.1-0.2,0.1-0.4,0.1C673.1,345,673,344.9,672.9,344.6z"/>
		</g>
	</g>
</g>
<g>
	<g>
		<line class="st4" x1="360" y1="659.9" x2="360" y2="17.9"/>
		<g>
			<path class="st5" d="M365.7,651.8c-0.2-0.1-0.6-0.1-0.8,0.2l-4.9,7.8l-4.9-7.8c-0.1-0.2-0.6-0.4-0.8-0.2
				c-0.2,0.1-0.4,0.6-0.2,0.8l5.4,8.5c0.1,0.1,0.4,0.2,0.5,0.2c0.1,0,0.4-0.1,0.5-0.2l5.4-8.5c0.1-0.1,0.1-0.2,0.1-0.4
				C366,652.1,365.9,651.9,365.7,651.8z"/>
		</g>
		<g>
			<path class="st5" d="M365.7,26.1c-0.2,0.1-0.6,0.1-0.8-0.2l-4.9-7.8l-4.9,7.8c-0.1,0.2-0.6,0.4-0.8,0.2c-0.2-0.1-0.4-0.6-0.2-0.8
				l5.4-8.5c0.1-0.1,0.4-0.2,0.5-0.2c0.1,0,0.4,0.1,0.5,0.2l5.4,8.5c0.1,0.1,0.1,0.2,0.1,0.4C366,25.7,365.9,26,365.7,26.1z"/>
		</g>
	</g>
</g>
<text transform="matrix(6.123234e-17 -1 1 6.123234e-17 352.6709 281.4922)" class="st5 st6 st7">High User Experience</text>
<text transform="matrix(6.123234e-17 -1 1 6.123234e-17 352.6705 647.9336)" class="st5 st6 st7">Low User Experience</text>
<text transform="matrix(1 0 0 1 512.8613 361.2177)" class="st5 st6 st7">High Features</text>
<text transform="matrix(1 0 0 1 47.1721 361.2177)" class="st5 st6 st7">Low Features</text>
<image style="overflow:visible;enable-background:new    ;" width="512" height="512" xlink:href="../../../../Downloads/unnamed.png"  transform="matrix(0.1105 0 0 0.1105 488.0473 166.954)">
</image>
<image style="overflow:visible;enable-background:new    ;" width="300" height="300" xlink:href="../../../../Downloads/unnamed5.png"  transform="matrix(0.2239 0 0 0.2239 415.8997 223.53)">
</image>
<image style="overflow:visible;enable-background:new    ;" width="486" height="466" xlink:href="../../../../Downloads/1200x630wa.png"  transform="matrix(0.1301 0 0 0.1301 555.7712 101.2867)">
</image>
<image style="overflow:visible;enable-background:new    ;" width="512" height="512" xlink:href="../../../../Downloads/unnamed (1).png"  transform="matrix(0.1077 0 0 0.1077 182.1848 479.0922)">
</image>
<g>
	<g>
		<defs>
			<path id="SVGID_1_" d="M556.7,425.3h30.1c6.7,0,12.1,5.4,12.1,12.1V467c0,6.7-5.4,12.1-12.1,12.1h-30.1
				c-6.7,0-12.1-5.4-12.1-12.1v-29.6C544.6,430.7,550,425.3,556.7,425.3z"/>
		</defs>
		<clipPath id="SVGID_2_">
			<use xlink:href="#SVGID_1_"  style="overflow:visible;"/>
		</clipPath>
		<g transform="matrix(1 0 0 1 -6.103516e-05 1.525879e-05)" class="st8">
			
				<image style="overflow:visible;enable-background:new    ;" width="213" height="210" xlink:href="../../../../Downloads/IMG_4024 copy.jpg"  transform="matrix(0.2857 0 0 0.2857 541.4202 422.9954)">
			</image>
		</g>
	</g>
</g>
<g>
	<g>
		<defs>
			<path id="SVGID_3_" d="M492.8,478.4h31.7c7,0,12.7,5.7,12.7,12.7v31.2c0,7-5.7,12.7-12.7,12.7h-31.7c-7,0-12.7-5.7-12.7-12.7
				v-31.2C480,484.1,485.7,478.4,492.8,478.4z"/>
		</defs>
		<clipPath id="SVGID_4_">
			<use xlink:href="#SVGID_3_"  style="overflow:visible;"/>
		</clipPath>
		<g class="st9">
			
				<image style="overflow:visible;enable-background:new    ;" width="256" height="256" xlink:href="../../../../Downloads/c5ddef02aeff55706dbbfcec31315b5c.jpeg"  transform="matrix(0.2214 0 0 0.2214 480.0517 478.3984)">
			</image>
		</g>
	</g>
</g>
</svg>
