<?xml version="1.0" encoding="utf-8"?>
<!-- Generator: Adobe Illustrator 25.2.1, SVG Export Plug-In . SVG Version: 6.00 Build 0)  -->
<svg version="1.1" id="Layer_1" xmlns="http://www.w3.org/2000/svg" xmlns:xlink="http://www.w3.org/1999/xlink" x="0px" y="0px"
	 viewBox="0 0 603.4 288" style="enable-background:new 0 0 603.4 288;" xml:space="preserve">
<style type="text/css">
	.st0{fill:#FFBF00;}
	.st1{font-family:'Lato-Regular';}
	.st2{font-size:10px;}
	.st3{fill:none;}
	.st4{font-family:'Lato-Hairline';}
	.st5{font-size:8px;}
	.st6{enable-background:new    ;}
	.st7{fill:#383230;}
	.st8{fill:#42312A;}
	.st9{fill:#898888;}
	.st10{fill:#E5E5E5;}
	.st11{fill:#CECECE;}
	.st12{fill:#332B25;}
	.st13{fill:#6D5345;}
	.st14{fill:none;stroke:#000000;stroke-miterlimit:10;}
</style>
<g>
	<g>
		<g>
			<g>
				<polygon class="st0" points="603.4,219.7 603.1,219.6 603.1,219.6 				"/>
				<path class="st0" d="M600.3,218.6l-0.5-0.2l0,0l0,0l0,0L600.3,218.6L600.3,218.6L600.3,218.6z"/>
				<path class="st0" d="M597,217.4l-0.5-0.2l0,0l0,0l0,0L597,217.4L597,217.4L597,217.4z"/>
				<path class="st0" d="M593.7,216.2l-0.5-0.2l0,0l0,0l0,0L593.7,216.2L593.7,216.2L593.7,216.2z"/>
				<path class="st0" d="M590.4,215l-0.5-0.2l0,0l0,0l0,0L590.4,215C590.5,215,590.5,215,590.4,215L590.4,215z"/>
				<path class="st0" d="M587.1,213.8l-0.5-0.2c0,0,0,0,0-0.1c0,0,0,0,0.1,0l0,0L587.1,213.8C587.2,213.8,587.2,213.8,587.1,213.8
					C587.2,213.8,587.1,213.8,587.1,213.8z"/>
				<path class="st0" d="M583.8,212.6l-0.5-0.2c0,0,0,0,0-0.1s0,0,0.1,0l0,0L583.8,212.6C583.9,212.6,583.9,212.6,583.8,212.6
					C583.9,212.6,583.8,212.7,583.8,212.6z"/>
				<path class="st0" d="M580.5,211.4l-0.5-0.2c0,0,0,0,0-0.1c0,0,0,0,0.1,0l0,0l0.5,0.2C580.6,211.4,580.6,211.4,580.5,211.4
					C580.6,211.4,580.5,211.5,580.5,211.4z"/>
				<path class="st0" d="M577.2,210.3l-0.5-0.2c0,0-0.1,0,0-0.1s0-0.1,0.1,0l0,0l0.5,0.2C577.3,210.1,577.3,210.2,577.2,210.3
					C577.3,210.3,577.2,210.3,577.2,210.3z"/>
				<path class="st0" d="M573.9,209.1l-0.5-0.2c0,0-0.1-0.1,0-0.1c0,0,0.1-0.1,0.1,0l0,0l0.5,0.2C574,208.9,574,209,573.9,209.1
					C574,209.1,574,209.1,573.9,209.1z"/>
				<path class="st0" d="M570.6,207.9l-0.5-0.2c0,0-0.1-0.1,0-0.1s0.1-0.1,0.1,0l0,0l0.5,0.2C570.7,207.8,570.8,207.9,570.6,207.9
					C570.7,207.9,570.7,207.9,570.6,207.9z"/>
				<path class="st0" d="M567.3,206.7l-0.5-0.2l-0.1-0.1l0.1-0.1l0,0l0.5,0.2l0.1,0.1C567.4,206.7,567.4,206.7,567.3,206.7z"/>
				<path class="st0" d="M564,205.5l-0.5-0.2l-0.1-0.1l0.1-0.1l0,0l0.5,0.2l0.1,0.1C564.1,205.4,564.1,205.5,564,205.5z"/>
				<path class="st0" d="M560.7,204.3l-0.5-0.2c-0.1,0-0.1-0.1-0.1-0.1c0-0.1,0.1-0.1,0.1-0.1l0,0l0.5,0.2c0.1,0,0.1,0.1,0.1,0.1
					S560.8,204.3,560.7,204.3z"/>
				<path class="st0" d="M557.4,203.1l-0.5-0.2c-0.1,0-0.1-0.1-0.1-0.1l0.1-0.1l0,0l0.5,0.2c0.1,0,0.1,0.1,0.1,0.1
					S557.5,203.1,557.4,203.1z"/>
				<path class="st0" d="M554.1,201.9l-0.5-0.2c-0.1,0-0.1-0.1-0.1-0.2c0-0.1,0.1-0.1,0.2-0.1l0,0l0.5,0.2c0.1,0,0.1,0.1,0.1,0.2
					C554.2,201.9,554.2,201.9,554.1,201.9z"/>
				<path class="st0" d="M550.8,200.7l-0.5-0.2c-0.1,0-0.1-0.1-0.1-0.2c0-0.1,0.1-0.1,0.2-0.1l0,0l0.5,0.2c0.1,0,0.1,0.1,0.1,0.2
					C551,200.7,550.9,200.7,550.8,200.7z"/>
				<path class="st0" d="M547.5,199.5l-0.5-0.2c-0.1,0-0.1-0.1-0.1-0.2c0-0.1,0.1-0.1,0.2-0.1l0,0l0.5,0.2c0.1,0,0.1,0.1,0.1,0.2
					S547.6,199.5,547.5,199.5z"/>
				<path class="st0" d="M544.2,198.3l-0.5-0.2c-0.1,0-0.1-0.1-0.1-0.2c0-0.1,0.1-0.1,0.2-0.1l0,0l0.5,0.2c0.1,0,0.1,0.1,0.1,0.2
					C544.4,198.3,544.3,198.4,544.2,198.3z"/>
				<path class="st0" d="M540.9,197.1l-0.5-0.2c-0.1,0-0.1-0.1-0.1-0.2c0-0.1,0.1-0.1,0.2-0.1l0,0l0.5,0.2c0.1,0,0.1,0.1,0.1,0.2
					C541.1,197.1,541,197.2,540.9,197.1z"/>
				<path class="st0" d="M537.6,195.9l-0.5-0.2c-0.1,0-0.1-0.1-0.1-0.2c0-0.1,0.1-0.1,0.2-0.1l0,0l0.5,0.2c0.1,0,0.1,0.1,0.1,0.2
					C537.8,195.9,537.7,196,537.6,195.9z"/>
				<path class="st0" d="M534.3,194.8l-0.5-0.2c-0.1,0-0.1-0.1-0.1-0.2c0-0.1,0.1-0.1,0.2-0.1l0,0l0.5,0.2c0.1,0,0.1,0.1,0.1,0.2
					C534.5,194.7,534.4,194.8,534.3,194.8z"/>
				<path class="st0" d="M531,193.6l-0.5-0.2c-0.1,0-0.1-0.1-0.1-0.2s0.1-0.1,0.2-0.1l0,0l0.5,0.2c0.1,0,0.1,0.1,0.1,0.2
					C531.2,193.5,531.1,193.6,531,193.6z"/>
				<path class="st0" d="M527.7,192.4l-0.5-0.2c-0.1,0-0.1-0.1-0.1-0.2c0-0.1,0.1-0.1,0.2-0.1l0,0l0.5,0.2c0.1,0,0.1,0.1,0.1,0.2
					C527.9,192.4,527.8,192.4,527.7,192.4z"/>
				<path class="st0" d="M524.4,191.2l-0.5-0.2c-0.1,0-0.1-0.1-0.1-0.2c0-0.1,0.1-0.1,0.2-0.1l0,0l0.5,0.2c0.1,0,0.1,0.1,0.1,0.2
					S524.5,191.2,524.4,191.2z"/>
				<path class="st0" d="M521.1,190l-0.5-0.2c-0.1,0-0.2-0.1-0.1-0.2c0-0.1,0.1-0.2,0.2-0.1l0,0l0.5,0.2c0.1,0,0.2,0.1,0.1,0.2
					C521.3,190,521.2,190,521.1,190z"/>
				<path class="st0" d="M517.8,188.8l-0.5-0.2c-0.1,0-0.2-0.1-0.1-0.2s0.1-0.2,0.2-0.1l0,0l0.5,0.2c0.1,0,0.2,0.1,0.1,0.2
					S517.9,188.8,517.8,188.8z"/>
				<path class="st0" d="M514.5,187.6l-0.5-0.2c-0.1,0-0.2-0.2-0.1-0.3c0-0.1,0.2-0.2,0.3-0.1l0,0l0.5,0.2c0.1,0,0.2,0.2,0.1,0.3
					S514.6,187.6,514.5,187.6z"/>
				<path class="st0" d="M511.2,186.4l-0.5-0.2c-0.1,0-0.2-0.2-0.1-0.3c0-0.1,0.2-0.2,0.3-0.1l0,0l0.5,0.2c0.1,0,0.2,0.2,0.1,0.3
					S511.3,186.4,511.2,186.4z"/>
				<path class="st0" d="M507.9,185.2l-0.5-0.2c-0.1,0-0.2-0.2-0.1-0.3c0-0.1,0.2-0.2,0.3-0.1l0,0l0.5,0.2c0.1,0,0.2,0.2,0.1,0.3
					C508.1,185.2,508,185.2,507.9,185.2z"/>
				<path class="st0" d="M504.6,184l-0.5-0.2c-0.1,0-0.2-0.2-0.1-0.3c0-0.1,0.2-0.2,0.3-0.1l0,0l0.5,0.2c0.1,0,0.2,0.2,0.1,0.3
					C504.9,184,504.7,184,504.6,184z"/>
				<path class="st0" d="M501.3,182.8l-0.5-0.2c-0.1,0-0.2-0.2-0.1-0.3c0-0.1,0.2-0.2,0.3-0.1l0,0l0.5,0.2c0.1,0,0.2,0.2,0.1,0.3
					C501.6,182.8,501.4,182.8,501.3,182.8z"/>
				<path class="st0" d="M498,181.6l-0.5-0.2c-0.1,0-0.2-0.2-0.1-0.3c0-0.1,0.2-0.2,0.3-0.1l0,0l0.5,0.2c0.1,0,0.2,0.2,0.1,0.3
					C498.3,181.6,498.1,181.6,498,181.6z"/>
				<path class="st0" d="M494.7,180.4l-0.5-0.2c-0.1,0-0.2-0.2-0.1-0.3c0-0.1,0.2-0.2,0.3-0.1l0,0l0.5,0.2c0.1,0,0.2,0.2,0.1,0.3
					S494.8,180.4,494.7,180.4z"/>
				<path class="st0" d="M491.4,179.2l-0.5-0.2c-0.1,0-0.2-0.2-0.1-0.3c0-0.1,0.2-0.2,0.3-0.1l0,0l0.5,0.2c0.1,0,0.2,0.2,0.1,0.3
					C491.7,179.2,491.5,179.2,491.4,179.2z"/>
				<path class="st0" d="M488.1,178l-0.5-0.2c-0.1,0-0.2-0.2-0.1-0.3c0-0.1,0.2-0.2,0.3-0.1l0,0l0.5,0.2c0.1,0,0.2,0.2,0.1,0.3
					C488.4,178,488.3,178,488.1,178z"/>
				<path class="st0" d="M484.8,176.8l-0.5-0.2c-0.1,0-0.2-0.2-0.1-0.3c0-0.1,0.2-0.2,0.3-0.1l0,0l0.5,0.2c0.1,0,0.2,0.2,0.1,0.3
					C485.1,176.8,485,176.8,484.8,176.8z"/>
				<path class="st0" d="M481.5,175.6l-0.5-0.2c-0.1,0-0.2-0.2-0.1-0.3c0-0.1,0.2-0.2,0.3-0.1l0,0l0.5,0.2c0.1,0,0.2,0.2,0.1,0.3
					C481.8,175.6,481.7,175.6,481.5,175.6z"/>
				<path class="st0" d="M478.2,174.4l-0.5-0.2c-0.1,0-0.2-0.2-0.1-0.3c0-0.1,0.2-0.2,0.3-0.1l0,0l0.5,0.2c0.1,0,0.2,0.2,0.1,0.3
					C478.5,174.4,478.4,174.5,478.2,174.4z"/>
				<path class="st0" d="M474.9,173.2l-0.5-0.2c-0.1,0-0.2-0.2-0.1-0.3s0.2-0.2,0.3-0.1l0,0l0.5,0.2c0.1,0,0.2,0.2,0.1,0.3
					C475.2,173.2,475.1,173.3,474.9,173.2z"/>
				<path class="st0" d="M471.6,172l-0.5-0.2c-0.1,0-0.2-0.2-0.1-0.3c0-0.1,0.2-0.2,0.3-0.1l0,0l0.5,0.2c0.1,0,0.2,0.2,0.1,0.3
					C471.9,172,471.8,172.1,471.6,172z"/>
				<path class="st0" d="M468.3,170.8l-0.5-0.2c-0.1,0-0.2-0.2-0.1-0.3c0-0.1,0.2-0.2,0.3-0.1l0,0l0.5,0.2c0.1,0,0.2,0.2,0.1,0.3
					C468.6,170.8,468.5,170.9,468.3,170.8z"/>
				<path class="st0" d="M465.1,169.6l-0.5-0.2c-0.1,0-0.2-0.2-0.1-0.3c0-0.1,0.2-0.2,0.3-0.1l0,0l0.5,0.2c0.1,0,0.2,0.2,0.1,0.3
					S465.2,169.7,465.1,169.6z"/>
				<path class="st0" d="M461.8,168.4l-0.5-0.2c-0.1,0-0.2-0.2-0.1-0.3c0-0.1,0.2-0.2,0.3-0.1l0,0l0.5,0.2c0.1,0,0.2,0.2,0.1,0.3
					S461.9,168.5,461.8,168.4z"/>
				<path class="st0" d="M458.5,167.2l-0.5-0.1c-0.1,0-0.2-0.2-0.1-0.3c0-0.1,0.2-0.2,0.3-0.1l0,0l0.5,0.2c0.1,0,0.2,0.2,0.1,0.3
					C458.7,167.2,458.6,167.3,458.5,167.2z"/>
				<path class="st0" d="M455.2,166l-0.5-0.2c-0.1,0-0.2-0.2-0.1-0.3c0-0.1,0.2-0.2,0.3-0.1l0,0l0.5,0.2c0.1,0,0.2,0.2,0.1,0.3
					S455.3,166.1,455.2,166z"/>
				<path class="st0" d="M451.9,164.8l-0.5-0.2c-0.1,0-0.2-0.2-0.1-0.3c0-0.1,0.2-0.2,0.3-0.1l0,0l0.5,0.2c0.1,0,0.2,0.2,0.1,0.3
					C452.1,164.8,452,164.9,451.9,164.8z"/>
				<path class="st0" d="M448.6,163.6l-0.5-0.2c-0.1,0-0.2-0.2-0.2-0.3s0.2-0.2,0.3-0.2l0,0l0.5,0.2c0.1,0,0.2,0.2,0.2,0.3
					C448.8,163.6,448.7,163.7,448.6,163.6z"/>
				<path class="st0" d="M445.3,162.4l-0.5-0.2c-0.1,0-0.2-0.2-0.2-0.3s0.2-0.2,0.3-0.2l0,0l0.5,0.2c0.1,0,0.2,0.2,0.2,0.3
					S445.4,162.5,445.3,162.4z"/>
				<path class="st0" d="M442,161.2l-0.5-0.2c-0.1,0-0.2-0.2-0.2-0.3s0.2-0.2,0.3-0.2l0,0l0.5,0.2c0.1,0,0.2,0.2,0.2,0.3
					C442.2,161.2,442.1,161.3,442,161.2z"/>
				<path class="st0" d="M438.7,160l-0.5-0.2c-0.1,0-0.2-0.2-0.2-0.3s0.2-0.2,0.3-0.2l0,0l0.5,0.2c0.1,0,0.2,0.2,0.2,0.3
					C439,160,438.8,160.1,438.7,160z"/>
				<path class="st0" d="M435.4,158.8l-0.5-0.2c-0.1,0-0.2-0.2-0.2-0.3s0.2-0.2,0.3-0.2l0,0l0.5,0.2c0.1,0,0.2,0.2,0.2,0.3
					C435.7,158.8,435.5,158.9,435.4,158.8z"/>
				<path class="st0" d="M432.1,157.6l-0.5-0.2c-0.1-0.1-0.2-0.2-0.2-0.3c0.1-0.1,0.2-0.2,0.3-0.2l0,0l0.5,0.2
					c0.1,0.1,0.2,0.2,0.2,0.3S432.2,157.7,432.1,157.6z"/>
				<path class="st0" d="M428.8,156.4l-0.5-0.2c-0.1-0.1-0.2-0.2-0.2-0.3s0.2-0.2,0.3-0.2l0,0l0.5,0.2c0.1,0.1,0.2,0.2,0.2,0.3
					C429.1,156.4,428.9,156.5,428.8,156.4z"/>
				<path class="st0" d="M425.5,155.2l-0.5-0.1c-0.1-0.1-0.2-0.2-0.2-0.3c0.1-0.1,0.2-0.2,0.3-0.2l0,0l0.5,0.2
					c0.1,0.1,0.2,0.2,0.2,0.3S425.6,155.3,425.5,155.2z"/>
				<path class="st0" d="M422.2,154.1l-0.5-0.2c-0.1-0.1-0.2-0.2-0.2-0.4c0.1-0.1,0.2-0.2,0.4-0.2l0,0l0.5,0.2
					c0.1,0.1,0.2,0.2,0.2,0.4C422.5,154,422.3,154.1,422.2,154.1z"/>
				<path class="st0" d="M418.9,152.9l-0.5-0.2c-0.1-0.1-0.2-0.2-0.2-0.4c0.1-0.1,0.2-0.2,0.4-0.2l0,0l0.5,0.2
					c0.1,0.1,0.2,0.2,0.2,0.4C419.2,152.8,419,152.9,418.9,152.9z"/>
				<path class="st0" d="M415.6,151.7l-0.5-0.2c-0.1-0.1-0.2-0.2-0.2-0.4s0.2-0.2,0.4-0.2l0,0l0.5,0.2c0.1,0.1,0.2,0.2,0.2,0.4
					C415.9,151.6,415.7,151.7,415.6,151.7z"/>
				<path class="st0" d="M412.3,150.5l-0.5-0.2c-0.1-0.1-0.2-0.2-0.2-0.4c0.1-0.1,0.2-0.2,0.4-0.2l0,0l0.5,0.2
					c0.1,0.1,0.2,0.2,0.2,0.4S412.4,150.5,412.3,150.5z"/>
				<path class="st0" d="M409,149.3l-0.5-0.2c-0.1-0.1-0.2-0.2-0.2-0.4c0.1-0.1,0.2-0.2,0.4-0.2l0,0l0.5,0.2
					c0.1,0.1,0.2,0.2,0.2,0.4C409.3,149.2,409.1,149.3,409,149.3z"/>
				<path class="st0" d="M405.7,148.1l-0.5-0.2c-0.1-0.1-0.2-0.2-0.2-0.4s0.2-0.2,0.4-0.2l0,0l0.5,0.2c0.1,0.1,0.2,0.2,0.2,0.4
					C406,148,405.8,148.1,405.7,148.1z"/>
				<path class="st0" d="M402.4,146.9l-0.5-0.2c-0.2-0.1-0.2-0.2-0.2-0.4c0.1-0.2,0.2-0.2,0.4-0.2l0,0l0.5,0.2
					c0.2,0.1,0.2,0.2,0.2,0.4S402.5,146.9,402.4,146.9z"/>
				<path class="st0" d="M399.1,145.7l-0.5-0.2c-0.2-0.1-0.2-0.2-0.2-0.4c0.1-0.2,0.2-0.2,0.4-0.2l0,0l0.5,0.2
					c0.2,0.1,0.2,0.2,0.2,0.4C399.4,145.6,399.2,145.7,399.1,145.7z"/>
				<path class="st0" d="M395.8,144.5l-0.5-0.2c-0.2-0.1-0.2-0.2-0.2-0.4c0.1-0.2,0.2-0.2,0.4-0.2l0,0l0.5,0.2
					c0.2,0.1,0.2,0.2,0.2,0.4C396.1,144.4,395.9,144.5,395.8,144.5z"/>
				<path class="st0" d="M392.5,143.3l-0.5-0.2c-0.2-0.1-0.2-0.2-0.2-0.4s0.2-0.2,0.4-0.2l0,0l0.5,0.2c0.2,0.1,0.2,0.2,0.2,0.4
					C392.8,143.3,392.6,143.3,392.5,143.3z"/>
				<path class="st0" d="M389.2,142.1l-0.5-0.2c-0.2-0.1-0.2-0.2-0.2-0.4c0.1-0.2,0.2-0.2,0.4-0.2l0,0l0.5,0.2
					c0.2,0.1,0.2,0.2,0.2,0.4C389.5,142.1,389.4,142.1,389.2,142.1z"/>
				<path class="st0" d="M385.9,140.9l-0.5-0.2c-0.2-0.1-0.2-0.2-0.2-0.4c0.1-0.2,0.2-0.2,0.4-0.2l0,0l0.5,0.2
					c0.2,0.1,0.2,0.2,0.2,0.4C386.2,140.9,386.1,140.9,385.9,140.9z"/>
				<path class="st0" d="M382.6,139.7l-0.5-0.2c-0.2-0.1-0.2-0.2-0.2-0.4c0.1-0.2,0.2-0.2,0.4-0.2l0,0l0.5,0.2
					c0.2,0.1,0.2,0.2,0.2,0.4C382.9,139.7,382.8,139.7,382.6,139.7z"/>
				<path class="st0" d="M379.3,138.5l-0.5-0.2c-0.2-0.1-0.2-0.2-0.2-0.4s0.2-0.2,0.4-0.2l0,0l0.5,0.2c0.2,0.1,0.2,0.2,0.2,0.4
					C379.6,138.5,379.5,138.5,379.3,138.5z"/>
				<path class="st0" d="M376,137.3l-0.5-0.2c-0.2-0.1-0.2-0.2-0.2-0.4c0.1-0.2,0.2-0.2,0.4-0.2l0,0l0.5,0.2
					c0.2,0.1,0.2,0.2,0.2,0.4C376.3,137.3,376.2,137.3,376,137.3z"/>
				<path class="st0" d="M372.7,136.1l-0.5-0.2c-0.2-0.1-0.2-0.2-0.2-0.4s0.2-0.2,0.4-0.2l0,0l0.5,0.2c0.2,0.1,0.2,0.2,0.2,0.4
					C373,136.1,372.9,136.1,372.7,136.1z"/>
				<path class="st0" d="M369.4,134.9l-0.5-0.2c-0.2-0.1-0.3-0.2-0.2-0.4c0.1-0.2,0.2-0.3,0.4-0.2l0,0l0.5,0.2
					c0.2,0.1,0.2,0.2,0.2,0.4S369.6,135,369.4,134.9z"/>
				<path class="st0" d="M366.1,133.7l-0.5-0.2c-0.2-0.1-0.3-0.2-0.2-0.4c0.1-0.2,0.2-0.3,0.4-0.2l0,0l0.5,0.2
					c0.2,0.1,0.3,0.2,0.2,0.4C366.5,133.7,366.3,133.8,366.1,133.7z"/>
				<path class="st0" d="M362.8,132.5l-0.5-0.2c-0.2-0.1-0.3-0.2-0.2-0.4c0.1-0.2,0.2-0.3,0.4-0.2l0,0l0.5,0.2
					c0.2,0.1,0.3,0.2,0.2,0.4C363.2,132.5,363,132.6,362.8,132.5z"/>
				<path class="st0" d="M359.5,131.3l-0.5-0.2c-0.2-0.1-0.3-0.2-0.2-0.4s0.2-0.3,0.4-0.2l0,0l0.5,0.2c0.2,0.1,0.3,0.2,0.2,0.4
					C359.9,131.3,359.7,131.4,359.5,131.3z"/>
				<path class="st0" d="M356.2,130.1l-0.5-0.2c-0.2-0.1-0.3-0.3-0.2-0.4c0.1-0.2,0.3-0.3,0.4-0.2l0,0l0.5,0.2
					c0.2,0.1,0.3,0.3,0.2,0.4C356.6,130.1,356.4,130.2,356.2,130.1z"/>
				<path class="st0" d="M352.9,128.9l-0.5-0.2c-0.2-0.1-0.3-0.3-0.2-0.4c0.1-0.2,0.3-0.3,0.4-0.2l0,0l0.5,0.2
					c0.2,0.1,0.3,0.3,0.2,0.4C353.3,128.9,353.1,129,352.9,128.9z"/>
				<path class="st0" d="M349.6,127.7l-0.5-0.2c-0.2-0.1-0.3-0.3-0.2-0.4c0.1-0.2,0.3-0.3,0.4-0.2l0,0l0.5,0.2
					c0.2,0.1,0.3,0.3,0.2,0.4C350,127.7,349.8,127.8,349.6,127.7z"/>
				<path class="st0" d="M346.3,126.5l-0.5-0.2c-0.2-0.1-0.3-0.3-0.2-0.4s0.3-0.3,0.4-0.2l0,0l0.5,0.2c0.2,0.1,0.3,0.3,0.2,0.4
					S346.5,126.6,346.3,126.5z"/>
				<path class="st0" d="M343,125.3l-0.5-0.2c-0.2-0.1-0.3-0.3-0.2-0.4c0.1-0.2,0.3-0.3,0.4-0.2l0,0l0.5,0.2
					c0.2,0.1,0.3,0.3,0.2,0.4S343.2,125.4,343,125.3z"/>
				<path class="st0" d="M339.7,124.1l-0.5-0.2c-0.2-0.1-0.3-0.3-0.2-0.4c0.1-0.2,0.3-0.3,0.4-0.2l0,0l0.5,0.2
					c0.2,0.1,0.3,0.3,0.2,0.4S339.9,124.2,339.7,124.1z"/>
				<path class="st0" d="M336.4,122.9l-0.5-0.2c-0.2-0.1-0.3-0.3-0.2-0.4c0.1-0.2,0.3-0.3,0.4-0.2l0,0l0.5,0.2
					c0.2,0.1,0.3,0.3,0.2,0.4S336.6,123,336.4,122.9z"/>
				<path class="st0" d="M333.1,121.7l-0.5-0.2c-0.2-0.1-0.3-0.3-0.2-0.4s0.3-0.3,0.4-0.2l0,0l0.5,0.2c0.2,0.1,0.3,0.3,0.2,0.4
					S333.3,121.8,333.1,121.7z"/>
				<path class="st0" d="M329.8,120.5l-0.5-0.2c-0.2-0.1-0.3-0.3-0.2-0.4c0.1-0.2,0.3-0.3,0.4-0.2l0,0l0.5,0.2
					c0.2,0.1,0.3,0.3,0.2,0.4C330.2,120.5,330,120.6,329.8,120.5z"/>
				<path class="st0" d="M326.5,119.3l-0.5-0.2c-0.2-0.1-0.3-0.3-0.2-0.5c0.1-0.2,0.3-0.3,0.5-0.2l0,0l0.5,0.2
					c0.2,0.1,0.3,0.3,0.2,0.5S326.7,119.4,326.5,119.3z"/>
				<path class="st0" d="M323.2,118.1l-0.5-0.2c-0.2-0.1-0.3-0.3-0.2-0.5s0.3-0.3,0.5-0.2l0,0l0.5,0.2c0.2,0.1,0.3,0.3,0.2,0.5
					S323.4,118.2,323.2,118.1z"/>
				<path class="st0" d="M319.9,116.9l-0.5-0.2c-0.2-0.1-0.3-0.3-0.2-0.5c0.1-0.2,0.3-0.3,0.5-0.2l0,0l0.5,0.2
					c0.2,0.1,0.3,0.3,0.2,0.5C320.3,116.9,320.1,117,319.9,116.9z"/>
				<path class="st0" d="M316.6,115.7l-0.5-0.2c-0.2-0.1-0.3-0.3-0.2-0.5c0.1-0.2,0.3-0.3,0.5-0.2l0,0l0.5,0.2
					c0.2,0.1,0.3,0.3,0.2,0.5C317,115.7,316.8,115.8,316.6,115.7z"/>
				<path class="st0" d="M313.3,114.5l-0.5-0.2c-0.2-0.1-0.3-0.3-0.2-0.5s0.3-0.3,0.5-0.2l0,0l0.5,0.2c0.2,0.1,0.3,0.3,0.2,0.5
					S313.5,114.6,313.3,114.5z"/>
				<path class="st0" d="M310,113.3l-0.5-0.2c-0.2-0.1-0.3-0.3-0.2-0.5s0.3-0.3,0.5-0.2l0,0l0.5,0.2c0.2,0.1,0.3,0.3,0.2,0.5
					C310.4,113.3,310.2,113.4,310,113.3z"/>
				<path class="st0" d="M306.7,112.1l-0.5-0.2c-0.2-0.1-0.3-0.3-0.2-0.5c0.1-0.2,0.3-0.3,0.5-0.2l0,0l0.5,0.2
					c0.2,0.1,0.3,0.3,0.2,0.5C307.1,112.1,306.9,112.2,306.7,112.1z"/>
				<path class="st0" d="M303.4,110.9l-0.5-0.2c-0.2-0.1-0.3-0.3-0.2-0.5c0.1-0.2,0.3-0.3,0.5-0.2l0,0l0.5,0.2
					c0.2,0.1,0.3,0.3,0.2,0.5C303.9,110.9,303.6,111,303.4,110.9z"/>
				<path class="st0" d="M300.1,109.7l-0.5-0.2c-0.2-0.1-0.3-0.3-0.2-0.5c0.1-0.2,0.3-0.3,0.5-0.2l0.5,0.2c0.2,0.1,0.3,0.3,0.2,0.5
					C300.6,109.7,300.3,109.8,300.1,109.7L300.1,109.7z"/>
				<path class="st0" d="M296.9,108.5l-0.5-0.2c-0.2-0.1-0.3-0.3-0.2-0.5c0.1-0.2,0.3-0.3,0.5-0.2l0.5,0.2c0.2,0.1,0.3,0.3,0.2,0.5
					C297.3,108.5,297,108.6,296.9,108.5L296.9,108.5z"/>
				<path class="st0" d="M293.6,107.3l-0.5-0.2c-0.2-0.1-0.3-0.3-0.2-0.5s0.3-0.3,0.5-0.2l0.5,0.2c0.2,0.1,0.3,0.3,0.2,0.5
					C294,107.3,293.7,107.4,293.6,107.3L293.6,107.3z"/>
				<path class="st0" d="M290.3,106.1l-0.5-0.2c-0.2-0.1-0.3-0.3-0.2-0.5s0.3-0.3,0.5-0.2l0.5,0.2c0.2,0.1,0.3,0.3,0.2,0.5
					S290.4,106.2,290.3,106.1L290.3,106.1z"/>
				<path class="st0" d="M287,104.9l-0.5-0.2c-0.2-0.1-0.3-0.3-0.2-0.5c0.1-0.2,0.3-0.3,0.5-0.2l0.5,0.2c0.2,0.1,0.3,0.3,0.2,0.5
					C287.4,104.9,287.2,105,287,104.9L287,104.9z"/>
				<path class="st0" d="M283.7,103.7l-0.5-0.2c-0.2-0.1-0.3-0.3-0.2-0.5c0.1-0.2,0.3-0.3,0.5-0.2l0.5,0.2c0.2,0.1,0.3,0.3,0.2,0.5
					C284.1,103.7,283.9,103.8,283.7,103.7L283.7,103.7z"/>
				<path class="st0" d="M280.4,102.5l-0.5-0.2c-0.2-0.1-0.3-0.3-0.2-0.5c0.1-0.2,0.3-0.3,0.5-0.2l0.5,0.2c0.2,0.1,0.3,0.3,0.2,0.5
					C280.8,102.5,280.6,102.6,280.4,102.5L280.4,102.5z"/>
				<path class="st0" d="M277.1,101.3l-0.5-0.2c-0.2-0.1-0.3-0.3-0.2-0.5c0.1-0.2,0.3-0.3,0.5-0.2l0.5,0.2c0.2,0.1,0.3,0.3,0.2,0.5
					C277.5,101.3,277.3,101.4,277.1,101.3L277.1,101.3z"/>
				<path class="st0" d="M273.8,100.1l-0.5-0.2c-0.2-0.1-0.3-0.3-0.2-0.5c0.1-0.2,0.3-0.3,0.5-0.2l0.5,0.2c0.2,0.1,0.3,0.3,0.2,0.5
					S274,100.2,273.8,100.1L273.8,100.1z"/>
				<path class="st0" d="M270.5,98.9l-0.5-0.2c-0.2-0.1-0.3-0.3-0.2-0.4c0.1-0.2,0.3-0.3,0.4-0.2l0.5,0.2c0.2,0.1,0.3,0.3,0.2,0.4
					C270.9,98.9,270.7,99,270.5,98.9L270.5,98.9z"/>
				<path class="st0" d="M267.2,97.7l-0.5-0.2c-0.2-0.1-0.3-0.3-0.2-0.4s0.3-0.3,0.4-0.2l0.5,0.2c0.2,0.1,0.3,0.3,0.2,0.4
					C267.6,97.7,267.4,97.8,267.2,97.7L267.2,97.7z"/>
				<path class="st0" d="M263.9,96.5l-0.5-0.2c-0.2-0.1-0.3-0.3-0.2-0.4c0.1-0.2,0.3-0.3,0.4-0.2l0.5,0.2c0.2,0.1,0.3,0.3,0.2,0.4
					S264.1,96.6,263.9,96.5L263.9,96.5z"/>
				<path class="st0" d="M260.6,95.3l-0.5-0.2c-0.2-0.1-0.3-0.3-0.2-0.4c0.1-0.2,0.3-0.3,0.4-0.2l0.5,0.2c0.2,0.1,0.3,0.3,0.2,0.4
					C261,95.3,260.8,95.4,260.6,95.3L260.6,95.3z"/>
				<path class="st0" d="M257.3,94.1l-0.5-0.2c-0.2-0.1-0.3-0.3-0.2-0.4c0.1-0.2,0.3-0.3,0.4-0.2l0.5,0.2c0.2,0.1,0.3,0.3,0.2,0.4
					C257.7,94.1,257.5,94.2,257.3,94.1L257.3,94.1z"/>
				<path class="st0" d="M254,92.9l-0.5-0.2c-0.2-0.1-0.3-0.3-0.2-0.4c0.1-0.2,0.3-0.3,0.4-0.2l0.5,0.2c0.2,0.1,0.3,0.3,0.2,0.4
					S254.2,93,254,92.9L254,92.9z"/>
				<path class="st0" d="M250.7,91.7l-0.5-0.2c-0.2-0.1-0.3-0.3-0.2-0.4c0.1-0.2,0.3-0.3,0.4-0.2l0.5,0.2c0.2,0.1,0.3,0.3,0.2,0.4
					C251.1,91.7,250.9,91.8,250.7,91.7L250.7,91.7z"/>
				<path class="st0" d="M247.4,90.5l-0.5-0.2c-0.2-0.1-0.3-0.3-0.2-0.4c0.1-0.2,0.3-0.3,0.4-0.2l0.5,0.2c0.2,0.1,0.3,0.3,0.2,0.4
					C247.8,90.5,247.6,90.6,247.4,90.5L247.4,90.5z"/>
				<path class="st0" d="M244.1,89.3l-0.5-0.2c-0.2-0.1-0.3-0.2-0.2-0.4c0.1-0.2,0.2-0.3,0.4-0.2l0.5,0.2c0.2,0.1,0.3,0.2,0.2,0.4
					C244.5,89.3,244.3,89.4,244.1,89.3L244.1,89.3z"/>
				<path class="st0" d="M240.8,88.1l-0.5-0.2c-0.2-0.1-0.3-0.2-0.2-0.4c0.1-0.2,0.2-0.3,0.4-0.2l0.5,0.2c0.2,0.1,0.3,0.2,0.2,0.4
					C241.2,88.1,241,88.2,240.8,88.1L240.8,88.1z"/>
				<path class="st0" d="M237.5,86.9l-0.5-0.2c-0.2-0.1-0.3-0.2-0.2-0.4c0.1-0.2,0.2-0.3,0.4-0.2l0.5,0.2c0.2,0.1,0.3,0.2,0.2,0.4
					C237.9,86.9,237.7,87,237.5,86.9L237.5,86.9z"/>
				<path class="st0" d="M234.2,85.7l-0.5-0.2c-0.2-0.1-0.3-0.2-0.2-0.4c0.1-0.2,0.2-0.3,0.4-0.2l0.5,0.2c0.2,0.1,0.3,0.2,0.2,0.4
					C234.6,85.7,234.4,85.8,234.2,85.7L234.2,85.7z"/>
				<path class="st0" d="M230.9,84.5l-0.5-0.2c-0.2-0.1-0.2-0.2-0.2-0.4c0.1-0.2,0.2-0.2,0.4-0.2l0.5,0.2c0.2,0.1,0.2,0.2,0.2,0.4
					C231.3,84.5,231.1,84.5,230.9,84.5L230.9,84.5z"/>
				<path class="st0" d="M227.6,83.3l-0.5-0.2c-0.2-0.1-0.2-0.2-0.2-0.4s0.2-0.2,0.4-0.2l0.5,0.2c0.2,0.1,0.2,0.2,0.2,0.4
					C228,83.3,227.8,83.3,227.6,83.3L227.6,83.3z"/>
				<path class="st0" d="M224.3,82.1l-0.5-0.2c-0.2-0.1-0.2-0.2-0.2-0.4c0.1-0.2,0.2-0.2,0.4-0.2l0.5,0.2c0.2,0.1,0.2,0.2,0.2,0.4
					C224.7,82.1,224.5,82.1,224.3,82.1L224.3,82.1z"/>
				<path class="st0" d="M221,80.9l-0.5-0.2c-0.2-0.1-0.2-0.2-0.2-0.4c0.1-0.2,0.2-0.2,0.4-0.2l0.5,0.2c0.2,0.1,0.2,0.2,0.2,0.4
					S221.2,80.9,221,80.9L221,80.9z"/>
				<path class="st0" d="M217.7,79.7l-0.5-0.2c-0.2-0.1-0.2-0.2-0.2-0.4c0.1-0.2,0.2-0.2,0.4-0.2l0.6,0.2c0.2,0.1,0.2,0.2,0.2,0.4
					S217.9,79.7,217.7,79.7L217.7,79.7z"/>
				<path class="st0" d="M214.4,78.5l-0.5-0.2c-0.2-0.1-0.2-0.2-0.2-0.4c0.1-0.2,0.2-0.2,0.4-0.2l0.5,0.2c0.2,0.1,0.2,0.2,0.2,0.4
					C214.8,78.5,214.6,78.5,214.4,78.5L214.4,78.5z"/>
				<path class="st0" d="M211.1,77.3l-0.5-0.2c-0.2-0.1-0.2-0.2-0.2-0.4c0.1-0.2,0.2-0.2,0.4-0.2l0.5,0.2c0.2,0.1,0.2,0.2,0.2,0.4
					S211.3,77.3,211.1,77.3L211.1,77.3z"/>
				<path class="st0" d="M207.9,76.1l-0.5-0.2c-0.2-0.1-0.2-0.2-0.2-0.4c0.1-0.2,0.2-0.2,0.4-0.2l0.5,0.2c0.2,0.1,0.2,0.2,0.2,0.4
					S208,76.1,207.9,76.1L207.9,76.1z"/>
				<path class="st0" d="M204.6,74.9l-0.5-0.2c-0.2-0.1-0.2-0.2-0.2-0.4c0.1-0.2,0.2-0.2,0.4-0.2l0.5,0.2c0.2,0.1,0.2,0.2,0.2,0.4
					C204.9,74.8,204.7,74.9,204.6,74.9L204.6,74.9z"/>
				<path class="st0" d="M201.3,73.7l-0.5-0.2c-0.2-0.1-0.2-0.2-0.2-0.4s0.2-0.2,0.4-0.2l0.5,0.2c0.2,0.1,0.2,0.2,0.2,0.4
					C201.6,73.6,201.4,73.7,201.3,73.7L201.3,73.7z"/>
				<path class="st0" d="M198,72.5l-0.5-0.2c-0.1-0.1-0.2-0.2-0.2-0.4c0.1-0.1,0.2-0.2,0.4-0.2l0.5,0.2c0.1,0.1,0.2,0.2,0.2,0.4
					C198.3,72.4,198.1,72.5,198,72.5L198,72.5z"/>
				<path class="st0" d="M194.7,71.3l-0.5-0.2c-0.1-0.1-0.2-0.2-0.2-0.4c0.1-0.1,0.2-0.2,0.4-0.2l0.5,0.2c0.1,0.1,0.2,0.2,0.2,0.4
					S194.8,71.3,194.7,71.3L194.7,71.3z"/>
				<path class="st0" d="M191.4,70.1l-0.5-0.2c-0.1-0.1-0.2-0.2-0.2-0.4c0.1-0.1,0.2-0.2,0.4-0.2l0.5,0.2c0.1,0.1,0.2,0.2,0.2,0.4
					S191.5,70.1,191.4,70.1L191.4,70.1z"/>
				<path class="st0" d="M188.1,68.9l-0.5-0.2c-0.1-0.1-0.2-0.2-0.2-0.4s0.2-0.2,0.4-0.2l0.5,0.2c0.1,0.1,0.2,0.2,0.2,0.4
					S188.2,68.9,188.1,68.9L188.1,68.9z"/>
				<path class="st0" d="M184.8,67.7l-0.5-0.2c-0.1-0.1-0.2-0.2-0.2-0.4c0.1-0.1,0.2-0.2,0.4-0.2l0.5,0.2c0.1,0.1,0.2,0.2,0.2,0.4
					C185.1,67.6,184.9,67.7,184.8,67.7L184.8,67.7z"/>
				<path class="st0" d="M181.5,66.4l-0.5-0.2c-0.1-0.1-0.2-0.2-0.2-0.4c0.1-0.1,0.2-0.2,0.4-0.2l0.5,0.2c0.1,0.1,0.2,0.2,0.2,0.4
					C181.8,66.4,181.6,66.5,181.5,66.4L181.5,66.4z"/>
				<path class="st0" d="M178.2,65.2l-0.5-0.2c-0.1-0.1-0.2-0.2-0.2-0.3c0.1-0.1,0.2-0.2,0.3-0.2l0.5,0.2c0.1,0.1,0.2,0.2,0.2,0.3
					C178.5,65.2,178.3,65.3,178.2,65.2L178.2,65.2z"/>
				<path class="st0" d="M174.9,64l-0.5-0.2c-0.1-0.1-0.2-0.2-0.2-0.3s0.2-0.2,0.3-0.2l0.5,0.2c0.1,0.1,0.2,0.2,0.2,0.3
					C175.2,64,175,64.1,174.9,64L174.9,64z"/>
				<path class="st0" d="M171.6,62.8l-0.5-0.2c-0.1-0.1-0.2-0.2-0.2-0.3c0.1-0.1,0.2-0.2,0.3-0.2l0.5,0.2c0.1,0.1,0.2,0.2,0.2,0.3
					S171.7,62.9,171.6,62.8L171.6,62.8z"/>
				<path class="st0" d="M168.3,61.6l-0.5-0.2c-0.1,0-0.2-0.2-0.2-0.3s0.2-0.2,0.3-0.2l0.5,0.2c0.1,0,0.2,0.2,0.2,0.3
					S168.4,61.7,168.3,61.6L168.3,61.6z"/>
				<path class="st0" d="M165,60.4l-0.5-0.2c-0.1,0-0.2-0.2-0.2-0.3s0.2-0.2,0.3-0.2l0.5,0.2c0.1,0,0.2,0.2,0.2,0.3
					S165.1,60.5,165,60.4L165,60.4z"/>
				<path class="st0" d="M161.7,59.2l-0.5-0.2c-0.1,0-0.2-0.2-0.2-0.3s0.2-0.2,0.3-0.2l0.5,0.2c0.1,0,0.2,0.2,0.2,0.3
					C162,59.2,161.8,59.3,161.7,59.2L161.7,59.2z"/>
				<path class="st0" d="M158.4,58l-0.5-0.2c-0.1,0-0.2-0.2-0.2-0.3s0.2-0.2,0.3-0.2l0.5,0.2c0.1,0,0.2,0.2,0.2,0.3
					C158.7,58,158.5,58.1,158.4,58L158.4,58z"/>
				<path class="st0" d="M155.1,56.8l-0.5-0.2c-0.1,0-0.2-0.2-0.2-0.3s0.2-0.2,0.3-0.2l0.5,0.2c0.1,0,0.2,0.2,0.2,0.3
					C155.4,56.8,155.2,56.9,155.1,56.8L155.1,56.8z"/>
				<path class="st0" d="M151.8,55.6l-0.5-0.2c-0.1,0-0.2-0.2-0.1-0.3c0-0.1,0.2-0.2,0.3-0.1l0.5,0.2c0.1,0,0.2,0.2,0.1,0.3
					C152.1,55.6,151.9,55.7,151.8,55.6L151.8,55.6z"/>
				<path class="st0" d="M148.5,54.4l-0.5-0.2c-0.1,0-0.2-0.2-0.1-0.3c0-0.1,0.2-0.2,0.3-0.1l0.5,0.2c0.1,0,0.2,0.2,0.1,0.3
					C148.8,54.4,148.7,54.5,148.5,54.4L148.5,54.4z"/>
				<path class="st0" d="M145.2,53.2l-0.5-0.2c-0.1,0-0.2-0.2-0.1-0.3c0-0.1,0.2-0.2,0.3-0.1l0.5,0.2c0.1,0,0.2,0.2,0.1,0.3
					S145.4,53.3,145.2,53.2L145.2,53.2z"/>
				<path class="st0" d="M141.9,52l-0.5-0.2c-0.1,0-0.2-0.2-0.1-0.3c0-0.1,0.2-0.2,0.3-0.1l0.5,0.2c0.1,0,0.2,0.2,0.1,0.3
					S142.1,52.1,141.9,52L141.9,52z"/>
				<path class="st0" d="M138.6,50.8l-0.5-0.2c-0.1,0-0.2-0.2-0.1-0.3c0-0.1,0.2-0.2,0.3-0.1l0.5,0.2c0.1,0,0.2,0.2,0.1,0.3
					C138.9,50.8,138.8,50.9,138.6,50.8L138.6,50.8z"/>
				<path class="st0" d="M135.3,49.6l-0.5-0.2c-0.1,0-0.2-0.2-0.1-0.3s0.2-0.2,0.3-0.1l0.5,0.2c0.1,0,0.2,0.2,0.1,0.3
					C135.6,49.6,135.5,49.7,135.3,49.6L135.3,49.6z"/>
				<path class="st0" d="M132,48.4l-0.5-0.2c-0.1,0-0.2-0.2-0.1-0.3c0-0.1,0.2-0.2,0.3-0.1l0.5,0.2c0.1,0,0.2,0.2,0.1,0.3
					C132.3,48.4,132.2,48.5,132,48.4L132,48.4z"/>
				<path class="st0" d="M128.7,47.2l-0.5-0.2c-0.1,0-0.2-0.2-0.1-0.3c0-0.1,0.2-0.2,0.3-0.1l0.5,0.2c0.1,0,0.2,0.2,0.1,0.3
					C129,47.2,128.9,47.2,128.7,47.2L128.7,47.2z"/>
				<path class="st0" d="M125.4,46l-0.5-0.2c-0.1,0-0.2-0.2-0.1-0.3c0-0.1,0.2-0.2,0.3-0.1l0.5,0.2c0.1,0,0.2,0.2,0.1,0.3
					C125.7,46,125.6,46,125.4,46L125.4,46z"/>
				<path class="st0" d="M122.2,44.8l-0.5-0.2c-0.1,0-0.2-0.2-0.1-0.3s0.2-0.2,0.3-0.1l0.5,0.2c0.1,0,0.2,0.2,0.1,0.3
					S122.3,44.8,122.2,44.8L122.2,44.8z"/>
				<path class="st0" d="M118.9,43.6l-0.5-0.2c-0.1,0-0.2-0.2-0.1-0.3c0-0.1,0.2-0.2,0.3-0.1l0.5,0.2c0.1,0,0.2,0.2,0.1,0.3
					C119.1,43.6,119,43.6,118.9,43.6L118.9,43.6z"/>
				<path class="st0" d="M115.6,42.4l-0.5-0.2c-0.1,0-0.2-0.2-0.1-0.3c0-0.1,0.2-0.2,0.3-0.1l0.5,0.2c0.1,0,0.2,0.2,0.1,0.3
					S115.7,42.4,115.6,42.4L115.6,42.4z"/>
				<path class="st0" d="M112.3,41.2l-0.5-0.2c-0.1,0-0.2-0.2-0.1-0.3s0.2-0.2,0.3-0.1l0.5,0.2c0.1,0,0.2,0.2,0.1,0.3
					C112.5,41.2,112.4,41.2,112.3,41.2L112.3,41.2z"/>
				<path class="st0" d="M109,40l-0.5-0.2c-0.1,0-0.2-0.2-0.1-0.3s0.2-0.2,0.3-0.1l0.5,0.2c0.1,0,0.2,0.2,0.1,0.3S109.1,40,109,40
					L109,40z"/>
				<path class="st0" d="M105.7,38.8l-0.5-0.2c-0.1,0-0.2-0.2-0.1-0.3c0-0.1,0.2-0.2,0.3-0.1l0.5,0.2c0.1,0,0.2,0.2,0.1,0.3
					S105.8,38.8,105.7,38.8L105.7,38.8z"/>
				<path class="st0" d="M102.4,37.6l-0.5-0.2c-0.1,0-0.2-0.2-0.1-0.3c0-0.1,0.2-0.2,0.3-0.1l0.5,0.2c0.1,0,0.2,0.2,0.1,0.3
					C102.6,37.6,102.5,37.6,102.4,37.6L102.4,37.6z"/>
				<path class="st0" d="M99.1,36.4l-0.5-0.2c-0.1,0-0.2-0.2-0.1-0.3s0.2-0.2,0.3-0.1l0.5,0.2c0.1,0,0.2,0.2,0.1,0.3
					S99.2,36.4,99.1,36.4L99.1,36.4z"/>
				<path class="st0" d="M95.8,35.2L95.3,35c-0.1,0-0.2-0.2-0.1-0.3c0-0.1,0.2-0.2,0.3-0.1l0.5,0.2c0.1,0,0.2,0.2,0.1,0.3
					C96,35.2,95.9,35.2,95.8,35.2L95.8,35.2z"/>
				<path class="st0" d="M92.5,34L92,33.8c-0.1,0-0.2-0.2-0.1-0.3c0-0.1,0.2-0.2,0.3-0.1l0.5,0.2c0.1,0,0.2,0.2,0.1,0.3
					C92.7,34,92.6,34,92.5,34L92.5,34z"/>
				<path class="st0" d="M89.2,32.8l-0.5-0.2c-0.1,0-0.2-0.2-0.1-0.3c0-0.1,0.2-0.2,0.3-0.1l0.5,0.2c0.1,0,0.2,0.2,0.1,0.3
					S89.3,32.8,89.2,32.8L89.2,32.8z"/>
				<path class="st0" d="M85.9,31.6l-0.5-0.2c-0.1,0-0.2-0.1-0.1-0.2c0-0.1,0.1-0.2,0.2-0.1l0.5,0.2c0.1,0,0.2,0.1,0.1,0.2
					C86.1,31.6,86,31.6,85.9,31.6L85.9,31.6z"/>
				<path class="st0" d="M82.6,30.4l-0.5-0.2c-0.1,0-0.2-0.1-0.1-0.2c0-0.1,0.1-0.2,0.2-0.1l0.5,0.2c0.1,0,0.2,0.1,0.1,0.2
					C82.8,30.4,82.7,30.4,82.6,30.4L82.6,30.4z"/>
				<path class="st0" d="M79.3,29.2L78.8,29c-0.1,0-0.1-0.1-0.1-0.2s0.1-0.1,0.2-0.1l0.5,0.2c0.1,0,0.1,0.1,0.1,0.2
					S79.4,29.2,79.3,29.2L79.3,29.2z"/>
				<path class="st0" d="M76,28l-0.5-0.2c-0.1,0-0.1-0.1-0.1-0.2s0.1-0.1,0.2-0.1l0.5,0.2c0.1,0,0.1,0.1,0.1,0.2
					C76.2,27.9,76.1,28,76,28L76,28z"/>
				<path class="st0" d="M72.7,26.8l-0.5-0.2c-0.1,0-0.1-0.1-0.1-0.2s0.1-0.1,0.2-0.1l0.5,0.2c0.1,0,0.1,0.1,0.1,0.2
					C72.9,26.7,72.8,26.8,72.7,26.8L72.7,26.8z"/>
				<path class="st0" d="M69.4,25.5l-0.5-0.2c-0.1,0-0.1-0.1-0.1-0.2S68.9,25,69,25l0.5,0.2c0.1,0,0.1,0.1,0.1,0.2
					S69.5,25.6,69.4,25.5L69.4,25.5z"/>
				<path class="st0" d="M66.1,24.3l-0.5-0.2c-0.1,0-0.1-0.1-0.1-0.2s0.1-0.1,0.2-0.1l0.5,0.2c0.1,0,0.1,0.1,0.1,0.2
					C66.3,24.3,66.2,24.4,66.1,24.3L66.1,24.3z"/>
				<path class="st0" d="M62.8,23.1l-0.5-0.2c-0.1,0-0.1-0.1-0.1-0.2s0.1-0.1,0.2-0.1l0.5,0.2c0.1,0,0.1,0.1,0.1,0.2
					S62.9,23.2,62.8,23.1L62.8,23.1z"/>
				<path class="st0" d="M59.5,21.9L59,21.7c-0.1,0-0.1-0.1-0.1-0.2s0.1-0.1,0.2-0.1l0.5,0.2c0.1,0,0.1,0.1,0.1,0.2
					S59.6,22,59.5,21.9L59.5,21.9z"/>
				<path class="st0" d="M56.2,20.7l-0.5-0.2c-0.1,0-0.1-0.1-0.1-0.2s0.1-0.1,0.2-0.1l0.5,0.2c0.1,0,0.1,0.1,0.1,0.2
					S56.3,20.7,56.2,20.7L56.2,20.7z"/>
				<path class="st0" d="M52.9,19.5l-0.5-0.2c-0.1,0-0.1-0.1-0.1-0.2s0.1-0.1,0.2-0.1l0.5,0.2c0.1,0,0.1,0.1,0.1,0.2
					C53.1,19.5,53,19.5,52.9,19.5L52.9,19.5z"/>
				<path class="st0" d="M49.7,18.3l-0.5-0.2c-0.1,0-0.1-0.1-0.1-0.2s0.1-0.1,0.2-0.1l0.5,0.2c0.1,0,0.1,0.1,0.1,0.2
					C49.8,18.3,49.7,18.3,49.7,18.3L49.7,18.3z"/>
				<path class="st0" d="M46.4,17.1l-0.5-0.2c-0.1,0-0.1-0.1-0.1-0.1l0.1-0.1l0.5,0.2c0.1,0,0.1,0.1,0.1,0.1L46.4,17.1L46.4,17.1z"
					/>
				<path class="st0" d="M43.1,15.9l-0.5-0.2c-0.1,0-0.1-0.1-0.1-0.1c0-0.1,0.1-0.1,0.1-0.1l0.5,0.2c0.1,0,0.1,0.1,0.1,0.1
					L43.1,15.9L43.1,15.9z"/>
				<path class="st0" d="M39.8,14.7l-0.5-0.2l-0.1-0.1l0.1-0.1l0.5,0.2c0.1,0,0.1,0.1,0.1,0.1C39.9,14.7,39.8,14.7,39.8,14.7
					L39.8,14.7z"/>
				<path class="st0" d="M36.5,13.5L36,13.3l-0.1-0.1l0.1-0.1l0.5,0.2V13.5L36.5,13.5L36.5,13.5z"/>
				<path class="st0" d="M33.2,12.3l-0.5-0.2c0,0-0.1-0.1,0-0.1c0,0,0.1-0.1,0.1,0l0.5,0.2C33.3,12.2,33.4,12.3,33.2,12.3L33.2,12.3
					L33.2,12.3z"/>
				<path class="st0" d="M29.9,11.1l-0.5-0.2c0,0-0.1-0.1,0-0.1c0,0,0.1-0.1,0.1,0L30,11C30,10.9,30,11,29.9,11.1
					C30,11,29.9,11.1,29.9,11.1L29.9,11.1z"/>
				<path class="st0" d="M26.6,9.8l-0.5-0.2c0,0,0,0,0-0.1c0,0,0-0.1,0.1,0l0.5,0.2C26.7,9.7,26.7,9.8,26.6,9.8
					C26.7,9.8,26.6,9.9,26.6,9.8L26.6,9.8z"/>
				<path class="st0" d="M23.3,8.6l-0.5-0.2c0,0,0,0,0-0.1c0,0,0,0,0.1,0l0.5,0.2C23.4,8.5,23.4,8.6,23.3,8.6
					C23.4,8.6,23.3,8.6,23.3,8.6L23.3,8.6z"/>
				<path class="st0" d="M20,7.4l-0.5-0.2c0,0,0,0,0-0.1s0,0,0.1,0L20,7.4C20.1,7.3,20.1,7.4,20,7.4C20.1,7.4,20,7.4,20,7.4L20,7.4z
					"/>
				<path class="st0" d="M16.7,6.2l-0.5-0.1c0,0,0,0,0-0.1c0,0,0,0,0.1,0L16.7,6.2C16.8,6.2,16.8,6.2,16.7,6.2
					C16.8,6.2,16.7,6.2,16.7,6.2L16.7,6.2z"/>
				<path class="st0" d="M13.4,5l-0.5-0.2l0,0l0,0L13.4,5C13.5,5,13.5,5,13.4,5L13.4,5L13.4,5z"/>
				<path class="st0" d="M10.1,3.8L9.6,3.6l0,0l0,0L10.1,3.8C10.1,3.8,10.2,3.8,10.1,3.8L10.1,3.8L10.1,3.8z"/>
				<path class="st0" d="M6.8,2.6L6.4,2.4l0,0l0,0L6.8,2.6L6.8,2.6L6.8,2.6L6.8,2.6z"/>
				<path class="st0" d="M3.5,1.4L3.1,1.2l0,0l0,0L3.5,1.4L3.5,1.4L3.5,1.4L3.5,1.4z"/>
				<path class="st0" d="M0.2,0.2L0,0.1L0.2,0.2z"/>
			</g>
		</g>
	</g>
</g>
<g>
	<g>
		<g>
			<g>
				<polygon class="st0" points="0,219.7 0.2,219.6 0.2,219.6 				"/>
				<path class="st0" d="M3.1,218.6l0.5-0.2l0,0l0,0l0,0L3.1,218.6L3.1,218.6L3.1,218.6z"/>
				<path class="st0" d="M6.4,217.4l0.5-0.2l0,0l0,0l0,0L6.4,217.4C6.4,217.4,6.3,217.4,6.4,217.4C6.3,217.4,6.3,217.4,6.4,217.4z"
					/>
				<path class="st0" d="M9.6,216.2l0.5-0.2l0,0l0,0l0,0L9.6,216.2C9.7,216.2,9.6,216.2,9.6,216.2L9.6,216.2z"/>
				<path class="st0" d="M12.9,215l0.5-0.2l0,0l0,0l0,0L12.9,215L12.9,215L12.9,215z"/>
				<path class="st0" d="M16.2,213.8l0.5-0.2c0,0,0,0,0.1,0c0,0,0,0,0,0.1l0,0L16.2,213.8L16.2,213.8L16.2,213.8z"/>
				<path class="st0" d="M19.5,212.6l0.5-0.2h0.1v0.1l0,0L19.5,212.6C19.5,212.7,19.5,212.6,19.5,212.6L19.5,212.6z"/>
				<path class="st0" d="M22.8,211.3l0.5-0.2h0.1v0.1l0,0l-0.5,0.2C22.8,211.5,22.8,211.4,22.8,211.3
					C22.8,211.4,22.8,211.4,22.8,211.3z"/>
				<path class="st0" d="M26.1,210.1l0.5-0.2h0.1v0.1l0,0l-0.5,0.2C26.1,210.3,26.1,210.3,26.1,210.1
					C26.1,210.2,26.1,210.1,26.1,210.1z"/>
				<path class="st0" d="M29.4,208.9l0.5-0.2H30v0.1l0,0l-0.5,0.2C29.4,209.1,29.4,209.1,29.4,208.9C29.4,209,29.4,208.9,29.4,208.9
					z"/>
				<path class="st0" d="M32.7,207.7l0.5-0.2h0.1v0.1l0,0l-0.5,0.2h-0.1V207.7z"/>
				<path class="st0" d="M36,206.5l0.5-0.2c0,0,0.1,0,0.1,0.1c0,0,0,0.1-0.1,0.1l0,0l-0.5,0.2c0,0-0.1,0-0.1-0.1L36,206.5z"/>
				<path class="st0" d="M39.3,205.3l0.5-0.2c0,0,0.1,0,0.1,0.1s0,0.1-0.1,0.1l0,0l-0.5,0.2c0,0-0.1,0-0.1-0.1
					C39.2,205.4,39.2,205.3,39.3,205.3z"/>
				<path class="st0" d="M42.6,204.1l0.5-0.2c0.1,0,0.1,0,0.1,0.1s0,0.1-0.1,0.1l0,0l-0.5,0.2c-0.1,0-0.1,0-0.1-0.1
					C42.5,204.2,42.5,204.1,42.6,204.1z"/>
				<path class="st0" d="M45.9,202.9l0.5-0.2c0.1,0,0.1,0,0.1,0.1s0,0.1-0.1,0.1l0,0l-0.4,0.2C45.9,203.1,45.9,203.1,45.9,202.9
					C45.8,203,45.8,202.9,45.9,202.9z"/>
				<path class="st0" d="M49.2,201.7l0.5-0.2c0.1,0,0.1,0,0.2,0.1c0,0.1,0,0.1-0.1,0.2l0,0l-0.5,0.2c-0.1,0-0.1,0-0.2-0.1
					C49.1,201.8,49.1,201.7,49.2,201.7z"/>
				<path class="st0" d="M52.5,200.5l0.5-0.2c0.1,0,0.1,0,0.2,0.1c0,0.1,0,0.1-0.1,0.2l0,0l-0.5,0.2c-0.1,0-0.1,0-0.2-0.1
					S52.4,200.5,52.5,200.5z"/>
				<path class="st0" d="M55.8,199.3l0.5-0.2c0.1,0,0.1,0,0.2,0.1c0,0.1,0,0.1-0.1,0.2l0,0l-0.5,0.2c-0.1,0-0.1,0-0.2-0.1
					C55.7,199.4,55.7,199.3,55.8,199.3z"/>
				<path class="st0" d="M59.1,198.1l0.5-0.2c0.1,0,0.2,0,0.2,0.1s0,0.2-0.1,0.2l0,0l-0.5,0.2c-0.1,0-0.2,0-0.2-0.1
					C59,198.2,59,198.1,59.1,198.1z"/>
				<path class="st0" d="M62.4,196.9l0.5-0.2c0.1,0,0.2,0,0.2,0.1s0,0.2-0.1,0.2l0,0l-0.5,0.2c-0.1,0-0.2,0-0.2-0.1
					S62.3,196.9,62.4,196.9z"/>
				<path class="st0" d="M65.7,195.6l0.5-0.2c0.1,0,0.2,0,0.2,0.1s0,0.2-0.1,0.2l0,0l-0.5,0.2c-0.1,0-0.2,0-0.2-0.1
					C65.5,195.8,65.6,195.7,65.7,195.6z"/>
				<path class="st0" d="M68.9,194.4l0.5-0.2c0.1,0,0.2,0,0.2,0.1s0,0.2-0.1,0.2l0,0l-0.5,0.2c-0.1,0-0.2,0-0.2-0.1
					S68.9,194.5,68.9,194.4z"/>
				<path class="st0" d="M72.2,193.2l0.5-0.2c0.1,0,0.2,0,0.2,0.1s0,0.2-0.1,0.2l0,0l-0.5,0.2c-0.1,0-0.2,0-0.2-0.1
					C72.1,193.4,72.2,193.3,72.2,193.2z"/>
				<path class="st0" d="M75.5,192l0.5-0.2c0.1,0,0.2,0,0.2,0.1s0,0.2-0.1,0.2l0,0l-0.5,0.2c-0.1,0-0.2,0-0.2-0.1
					C75.4,192.2,75.4,192.1,75.5,192z"/>
				<path class="st0" d="M78.8,190.8l0.5-0.2c0.1,0,0.2,0,0.2,0.1s0,0.2-0.1,0.2l0,0l-0.5,0.2c-0.1,0-0.2,0-0.2-0.1
					C78.7,191,78.7,190.9,78.8,190.8z"/>
				<path class="st0" d="M82.1,189.6l0.5-0.2c0.1,0,0.2,0,0.2,0.1s0,0.2-0.1,0.2l0,0l-0.5,0.2c-0.1,0-0.2,0-0.2-0.1
					C82,189.8,82,189.7,82.1,189.6z"/>
				<path class="st0" d="M85.4,188.4l0.5-0.2c0.1,0,0.2,0,0.2,0.1s0,0.2-0.1,0.2l0,0l-0.5,0.2c-0.1,0-0.2,0-0.2-0.1
					C85.3,188.6,85.3,188.5,85.4,188.4z"/>
				<path class="st0" d="M88.7,187.2l0.5-0.2c0.1,0,0.2,0,0.3,0.1c0,0.1,0,0.2-0.1,0.3l0,0l-0.5,0.2c-0.1,0-0.2,0-0.3-0.1
					C88.6,187.4,88.6,187.2,88.7,187.2z"/>
				<path class="st0" d="M92,186l0.5-0.2c0.1,0,0.2,0,0.3,0.1c0,0.1,0,0.2-0.1,0.3l0,0l-0.5,0.2c-0.1,0-0.2,0-0.3-0.1
					C91.9,186.2,91.9,186,92,186z"/>
				<path class="st0" d="M95.3,184.8l0.5-0.2c0.1,0,0.2,0,0.3,0.1c0,0.1,0,0.2-0.1,0.3l0,0l-0.5,0.2c-0.1,0-0.2,0-0.3-0.1
					C95.2,185,95.2,184.8,95.3,184.8z"/>
				<path class="st0" d="M98.6,183.6l0.5-0.2c0.1,0,0.2,0,0.3,0.1c0,0.1,0,0.2-0.1,0.3l0,0l-0.5,0.2c-0.1,0-0.2,0-0.3-0.1
					C98.4,183.8,98.5,183.6,98.6,183.6z"/>
				<path class="st0" d="M101.9,182.4l0.5-0.2c0.1,0,0.2,0,0.3,0.1c0,0.1,0,0.2-0.1,0.3l0,0l-0.5,0.2c-0.1,0-0.2,0-0.3-0.1
					S101.8,182.4,101.9,182.4z"/>
				<path class="st0" d="M105.2,181.2l0.5-0.2c0.1,0,0.2,0,0.3,0.1c0,0.1,0,0.2-0.1,0.3l0,0l-0.5,0.2c-0.1,0-0.2,0-0.3-0.1
					C105,181.4,105.1,181.2,105.2,181.2z"/>
				<path class="st0" d="M108.5,180l0.5-0.2c0.1,0,0.2,0,0.3,0.1c0,0.1,0,0.2-0.1,0.3l0,0l-0.5,0.2c-0.1,0-0.2,0-0.3-0.1
					C108.3,180.2,108.4,180,108.5,180z"/>
				<path class="st0" d="M111.8,178.8l0.5-0.2c0.1,0,0.2,0,0.3,0.1c0,0.1,0,0.2-0.1,0.3l0,0l-0.5,0.2c-0.1,0-0.2,0-0.3-0.1
					S111.7,178.8,111.8,178.8z"/>
				<path class="st0" d="M115.1,177.6l0.5-0.2c0.1,0,0.2,0,0.3,0.1s0,0.2-0.1,0.3l0,0l-0.5,0.2c-0.1,0-0.2,0-0.3-0.1
					C114.9,177.8,115,177.6,115.1,177.6z"/>
				<path class="st0" d="M118.4,176.4l0.5-0.2c0.1,0,0.2,0,0.3,0.1s0,0.2-0.1,0.3l0,0l-0.5,0.2c-0.1,0-0.2,0-0.3-0.1
					S118.3,176.4,118.4,176.4z"/>
				<path class="st0" d="M121.7,175.2l0.5-0.2c0.1,0,0.2,0,0.3,0.1c0,0.1,0,0.2-0.1,0.3l0,0l-0.5,0.2c-0.1,0-0.2,0-0.3-0.1
					C121.5,175.4,121.6,175.2,121.7,175.2z"/>
				<path class="st0" d="M125,174l0.5-0.2c0.1,0,0.2,0,0.3,0.1s0,0.2-0.1,0.3l0,0l-0.5,0.2c-0.1,0-0.2,0-0.3-0.1
					C124.8,174.2,124.9,174,125,174z"/>
				<path class="st0" d="M128.3,172.8l0.5-0.2c0.1,0,0.3,0,0.3,0.1s0,0.3-0.1,0.3l0,0l-0.5,0.2c-0.1,0-0.3,0-0.3-0.1
					C128.1,173,128.2,172.8,128.3,172.8z"/>
				<path class="st0" d="M131.6,171.6l0.5-0.2c0.1,0,0.3,0,0.3,0.1s0,0.3-0.1,0.3l0,0l-0.5,0.2c-0.1,0-0.3,0-0.3-0.1
					S131.4,171.6,131.6,171.6z"/>
				<path class="st0" d="M134.9,170.4l0.5-0.2c0.1,0,0.3,0,0.3,0.1s0,0.3-0.1,0.3l0,0l-0.5,0.2c-0.1,0-0.3,0-0.3-0.1
					C134.7,170.6,134.7,170.4,134.9,170.4z"/>
				<path class="st0" d="M138.2,169.2l0.5-0.2c0.1,0,0.3,0,0.3,0.1s0,0.3-0.1,0.3l0,0l-0.5,0.2c-0.1,0-0.3,0-0.3-0.1
					C138,169.4,138,169.2,138.2,169.2z"/>
				<path class="st0" d="M141.5,168l0.5-0.2c0.1,0,0.3,0,0.3,0.1s0,0.3-0.1,0.3l0,0l-0.5,0.2c-0.1,0-0.3,0-0.3-0.1
					C141.3,168.2,141.3,168,141.5,168z"/>
				<path class="st0" d="M144.8,166.8l0.5-0.2c0.1,0,0.3,0,0.3,0.1s0,0.3-0.1,0.3l0,0l-0.5,0.2c-0.1,0-0.3,0-0.3-0.1
					C144.6,167,144.6,166.8,144.8,166.8z"/>
				<path class="st0" d="M148.1,165.6l0.5-0.2c0.1,0,0.3,0,0.3,0.1s0,0.3-0.1,0.3l0,0l-0.5,0.2c-0.1,0-0.3,0-0.3-0.1
					C147.9,165.8,147.9,165.6,148.1,165.6z"/>
				<path class="st0" d="M151.3,164.4l0.5-0.2c0.1,0,0.3,0,0.3,0.1s0,0.3-0.1,0.3l0,0l-0.5,0.2c-0.1,0-0.3,0-0.3-0.1
					S151.2,164.4,151.3,164.4z"/>
				<path class="st0" d="M154.6,163.2l0.5-0.2c0.1,0,0.3,0,0.3,0.2c0,0.1,0,0.3-0.2,0.3l0,0l-0.5,0.2c-0.1,0-0.3,0-0.3-0.2
					S154.5,163.2,154.6,163.2z"/>
				<path class="st0" d="M157.9,162l0.5-0.2c0.1,0,0.3,0,0.3,0.2c0,0.1,0,0.3-0.2,0.3l0,0l-0.5,0.2c-0.1,0-0.3,0-0.3-0.2
					S157.8,162,157.9,162z"/>
				<path class="st0" d="M161.2,160.8l0.5-0.2c0.1,0,0.3,0,0.3,0.2c0,0.1,0,0.3-0.2,0.3l0,0l-0.5,0.2c-0.1,0-0.3,0-0.3-0.2
					S161.1,160.8,161.2,160.8z"/>
				<path class="st0" d="M164.5,159.5l0.5-0.2c0.1,0,0.3,0,0.3,0.2c0,0.1,0,0.3-0.2,0.3l0,0l-0.5,0.2c-0.1,0-0.3,0-0.3-0.2
					C164.3,159.7,164.4,159.6,164.5,159.5z"/>
				<path class="st0" d="M167.8,158.3l0.5-0.2c0.1,0,0.3,0,0.3,0.2s0,0.3-0.2,0.3l0,0l-0.5,0.2c-0.1,0-0.3,0-0.3-0.2
					C167.6,158.5,167.7,158.4,167.8,158.3z"/>
				<path class="st0" d="M171.1,157.1l0.5-0.2c0.1-0.1,0.3,0,0.3,0.2s0,0.3-0.2,0.3l0,0l-0.5,0.2c-0.1,0.1-0.3,0-0.3-0.2
					C170.9,157.3,171,157.2,171.1,157.1z"/>
				<path class="st0" d="M174.4,155.9l0.5-0.2c0.1-0.1,0.3,0,0.3,0.2c0.1,0.1,0,0.3-0.2,0.3l0,0l-0.5,0.2c-0.1,0.1-0.3,0-0.3-0.2
					C174.2,156.1,174.3,156,174.4,155.9z"/>
				<path class="st0" d="M177.7,154.7l0.5-0.2c0.1-0.1,0.3,0,0.3,0.2s0,0.3-0.2,0.3l0,0l-0.5,0.2c-0.1,0.1-0.3,0-0.3-0.2
					C177.5,154.9,177.6,154.8,177.7,154.7z"/>
				<path class="st0" d="M181,153.5l0.5-0.2c0.1-0.1,0.3,0,0.4,0.2s0,0.3-0.2,0.4l0,0l-0.5,0.2c-0.1,0.1-0.3,0-0.4-0.2
					C180.8,153.7,180.9,153.6,181,153.5z"/>
				<path class="st0" d="M184.3,152.3l0.5-0.2c0.1-0.1,0.3,0,0.4,0.2c0.1,0.1,0,0.3-0.2,0.4l0,0l-0.5,0.2c-0.1,0.1-0.3,0-0.4-0.2
					C184.1,152.5,184.2,152.4,184.3,152.3z"/>
				<path class="st0" d="M187.6,151.1l0.5-0.2c0.1-0.1,0.3,0,0.4,0.2s0,0.3-0.2,0.4l0,0l-0.5,0.2c-0.1,0.1-0.3,0-0.4-0.2
					C187.4,151.3,187.5,151.2,187.6,151.1z"/>
				<path class="st0" d="M190.9,149.9l0.5-0.2c0.1-0.1,0.3,0,0.4,0.2s0,0.3-0.2,0.4l0,0l-0.5,0.2c-0.1,0.1-0.3,0-0.4-0.2
					C190.7,150.1,190.8,150,190.9,149.9z"/>
				<path class="st0" d="M194.2,148.7l0.5-0.2c0.1-0.1,0.3,0,0.4,0.2c0.1,0.1,0,0.3-0.2,0.4l0,0l-0.5,0.2c-0.1,0.1-0.3,0-0.4-0.2
					S194.1,148.8,194.2,148.7z"/>
				<path class="st0" d="M197.5,147.5l0.5-0.2c0.1-0.1,0.3,0,0.4,0.2s0,0.3-0.2,0.4l0,0l-0.5,0.2c-0.1,0.1-0.3,0-0.4-0.2
					C197.3,147.7,197.3,147.6,197.5,147.5z"/>
				<path class="st0" d="M200.8,146.3l0.5-0.2c0.2-0.1,0.3,0,0.4,0.2c0.1,0.2,0,0.3-0.2,0.4l0,0l-0.5,0.2c-0.2,0.1-0.3,0-0.4-0.2
					C200.6,146.5,200.6,146.4,200.8,146.3z"/>
				<path class="st0" d="M204.1,145.1l0.5-0.2c0.2-0.1,0.3,0,0.4,0.2c0.1,0.2,0,0.3-0.2,0.4l0,0l-0.5,0.2c-0.2,0.1-0.3,0-0.4-0.2
					C203.9,145.3,203.9,145.2,204.1,145.1z"/>
				<path class="st0" d="M207.4,143.9l0.5-0.2c0.2-0.1,0.3,0,0.4,0.2s0,0.3-0.2,0.4l0,0l-0.5,0.2c-0.2,0.1-0.3,0-0.4-0.2
					C207.2,144.1,207.2,144,207.4,143.9z"/>
				<path class="st0" d="M210.7,142.7l0.5-0.2c0.2-0.1,0.3,0,0.4,0.2s0,0.3-0.2,0.4l0,0l-0.5,0.2c-0.2,0.1-0.3,0-0.4-0.2
					C210.4,142.9,210.5,142.8,210.7,142.7z"/>
				<path class="st0" d="M214,141.5l0.5-0.2c0.2-0.1,0.3,0,0.4,0.2c0.1,0.2,0,0.3-0.2,0.4l0,0l-0.5,0.2c-0.2,0.1-0.3,0-0.4-0.2
					C213.7,141.7,213.8,141.6,214,141.5z"/>
				<path class="st0" d="M217.3,140.3l0.5-0.2c0.2-0.1,0.3,0,0.4,0.2s0,0.3-0.2,0.4l0,0l-0.5,0.2c-0.2,0.1-0.3,0-0.4-0.2
					C217,140.5,217.1,140.4,217.3,140.3z"/>
				<path class="st0" d="M220.6,139.1l0.5-0.2c0.2-0.1,0.3,0,0.4,0.2c0.1,0.2,0,0.3-0.2,0.4l0,0l-0.5,0.2c-0.2,0.1-0.3,0-0.4-0.2
					C220.3,139.3,220.4,139.2,220.6,139.1z"/>
				<path class="st0" d="M223.9,137.9l0.5-0.2c0.2-0.1,0.3,0,0.4,0.2s0,0.3-0.2,0.4l0,0l-0.5,0.2c-0.2,0.1-0.3,0-0.4-0.2
					S223.7,138,223.9,137.9z"/>
				<path class="st0" d="M227.2,136.7l0.5-0.2c0.2-0.1,0.3,0,0.4,0.2c0.1,0.2,0,0.3-0.2,0.4l0,0l-0.5,0.2c-0.2,0.1-0.3,0-0.4-0.2
					S227,136.8,227.2,136.7z"/>
				<path class="st0" d="M230.5,135.5l0.5-0.2c0.2-0.1,0.3,0,0.4,0.2c0.1,0.2,0,0.3-0.2,0.4l0,0l-0.5,0.2c-0.2,0.1-0.3,0-0.4-0.2
					C230.2,135.7,230.3,135.6,230.5,135.5z"/>
				<path class="st0" d="M233.8,134.3l0.5-0.2c0.2-0.1,0.3,0,0.4,0.2s0,0.3-0.2,0.4l0,0l-0.5,0.2c-0.2,0.1-0.3,0-0.4-0.2
					C233.5,134.5,233.6,134.4,233.8,134.3z"/>
				<path class="st0" d="M237,133.1l0.5-0.2c0.2-0.1,0.4,0,0.4,0.2c0.1,0.2,0,0.4-0.2,0.4l0,0l-0.5,0.2c-0.2,0.1-0.4,0-0.4-0.2
					S236.9,133.2,237,133.1z"/>
				<path class="st0" d="M240.3,131.9l0.5-0.2c0.2-0.1,0.4,0,0.4,0.2c0.1,0.2,0,0.4-0.2,0.4l0,0l-0.5,0.2c-0.2,0.1-0.4,0-0.4-0.2
					S240.2,131.9,240.3,131.9z"/>
				<path class="st0" d="M243.6,130.7l0.5-0.2c0.2-0.1,0.4,0,0.4,0.2c0.1,0.2,0,0.4-0.2,0.4l0,0l-0.5,0.2c-0.2,0.1-0.4,0-0.4-0.2
					C243.4,130.9,243.5,130.7,243.6,130.7z"/>
				<path class="st0" d="M246.9,129.5l0.5-0.2c0.2-0.1,0.4,0,0.4,0.2c0.1,0.2,0,0.4-0.2,0.4l0,0l-0.5,0.2c-0.2,0.1-0.4,0-0.4-0.2
					S246.8,129.5,246.9,129.5z"/>
				<path class="st0" d="M250.2,128.3l0.5-0.2c0.2-0.1,0.4,0,0.4,0.2c0.1,0.2,0,0.4-0.2,0.4l0,0l-0.5,0.2c-0.2,0.1-0.4,0-0.4-0.2
					S250.1,128.3,250.2,128.3z"/>
				<path class="st0" d="M253.5,127.1l0.5-0.2c0.2-0.1,0.4,0,0.4,0.2s0,0.4-0.2,0.4l0,0l-0.5,0.2c-0.2,0.1-0.4,0-0.4-0.2
					C253.3,127.3,253.4,127.1,253.5,127.1z"/>
				<path class="st0" d="M256.8,125.9l0.5-0.2c0.2-0.1,0.4,0,0.4,0.2c0.1,0.2,0,0.4-0.2,0.4l0,0l-0.5,0.2c-0.2,0.1-0.4,0-0.4-0.2
					C256.6,126.1,256.7,125.9,256.8,125.9z"/>
				<path class="st0" d="M260.1,124.7l0.5-0.2c0.2-0.1,0.4,0,0.4,0.2c0.1,0.2,0,0.4-0.2,0.4l0,0l-0.5,0.2c-0.2,0.1-0.4,0-0.4-0.2
					S259.9,124.7,260.1,124.7z"/>
				<path class="st0" d="M263.4,123.5l0.5-0.2c0.2-0.1,0.4,0,0.4,0.2c0.1,0.2,0,0.4-0.2,0.4l0,0l-0.5,0.2c-0.2,0.1-0.4,0-0.4-0.2
					C263.1,123.7,263.2,123.5,263.4,123.5z"/>
				<path class="st0" d="M266.7,122.3l0.5-0.2c0.2-0.1,0.4,0,0.4,0.2c0.1,0.2,0,0.4-0.2,0.4l0,0l-0.5,0.2c-0.2,0.1-0.4,0-0.4-0.2
					C266.4,122.5,266.5,122.3,266.7,122.3z"/>
				<path class="st0" d="M270,121.1l0.5-0.2c0.2-0.1,0.4,0,0.4,0.2c0.1,0.2,0,0.4-0.2,0.4l0,0l-0.5,0.2c-0.2,0.1-0.4,0-0.4-0.2
					S269.8,121.1,270,121.1z"/>
				<path class="st0" d="M273.3,119.9l0.5-0.2c0.2-0.1,0.4,0,0.5,0.2s0,0.4-0.2,0.5l0,0l-0.5,0.2c-0.2,0.1-0.4,0-0.4-0.2
					C273,120.1,273.1,119.9,273.3,119.9z"/>
				<path class="st0" d="M276.6,118.7l0.5-0.2c0.2-0.1,0.4,0,0.5,0.2s0,0.4-0.2,0.5l0,0l-0.5,0.2c-0.2,0.1-0.4,0-0.5-0.2
					C276.3,118.9,276.4,118.7,276.6,118.7z"/>
				<path class="st0" d="M279.9,117.5l0.5-0.2c0.2-0.1,0.4,0,0.5,0.2s0,0.4-0.2,0.5l0,0l-0.5,0.2c-0.2,0.1-0.4,0-0.5-0.2
					C279.6,117.7,279.7,117.5,279.9,117.5z"/>
				<path class="st0" d="M283.2,116.3l0.5-0.2c0.2-0.1,0.4,0,0.5,0.2s0,0.4-0.2,0.5l0,0l-0.5,0.2c-0.2,0.1-0.4,0-0.5-0.2
					C282.9,116.5,283,116.3,283.2,116.3z"/>
				<path class="st0" d="M286.5,115.1l0.5-0.2c0.2-0.1,0.4,0,0.5,0.2s0,0.4-0.2,0.5l0,0l-0.5,0.2c-0.2,0.1-0.4,0-0.5-0.2
					S286.3,115.1,286.5,115.1z"/>
				<path class="st0" d="M289.8,113.8l0.5-0.2c0.2-0.1,0.4,0,0.5,0.2s0,0.4-0.2,0.5l0,0l-0.5,0.2c-0.2,0.1-0.4,0-0.5-0.2
					C289.5,114.1,289.6,113.9,289.8,113.8z"/>
				<path class="st0" d="M293.1,112.6l0.5-0.2c0.2-0.1,0.4,0,0.5,0.2s0,0.4-0.2,0.5l0,0l-0.5,0.2c-0.2,0.1-0.4,0-0.5-0.2
					S292.9,112.7,293.1,112.6z"/>
				<path class="st0" d="M296.4,111.4l0.5-0.2c0.2-0.1,0.4,0,0.5,0.2s0,0.4-0.2,0.5l0,0l-0.5,0.2c-0.2,0.1-0.4,0-0.5-0.2
					C296.1,111.7,296.2,111.5,296.4,111.4z"/>
				<path class="st0" d="M299.7,110.2l0.5-0.2c0.2-0.1,0.4,0,0.5,0.2s0,0.4-0.2,0.5l0,0l-0.5,0.2c-0.2,0.1-0.4,0-0.5-0.2
					S299.5,110.3,299.7,110.2z"/>
				<path class="st0" d="M303,109l0.5-0.2c0.2-0.1,0.4,0,0.5,0.2s0,0.4-0.2,0.5l-0.5,0.2c-0.2,0.1-0.4,0-0.5-0.2
					S302.8,109.1,303,109L303,109z"/>
				<path class="st0" d="M306.3,107.8l0.5-0.2c0.2-0.1,0.4,0,0.5,0.2s0,0.4-0.2,0.5l-0.5,0.2c-0.2,0.1-0.4,0-0.5-0.2
					C306,108.1,306.1,107.9,306.3,107.8L306.3,107.8z"/>
				<path class="st0" d="M309.6,106.6l0.5-0.2c0.2-0.1,0.4,0,0.5,0.2s0,0.4-0.2,0.5l-0.5,0.2c-0.2,0.1-0.4,0-0.5-0.2
					S309.4,106.7,309.6,106.6L309.6,106.6z"/>
				<path class="st0" d="M312.9,105.4l0.5-0.2c0.2-0.1,0.4,0,0.5,0.2s0,0.4-0.2,0.5l-0.5,0.2c-0.2,0.1-0.4,0-0.5-0.2
					C312.6,105.7,312.7,105.5,312.9,105.4L312.9,105.4z"/>
				<path class="st0" d="M316.2,104.2l0.5-0.2c0.2-0.1,0.4,0,0.5,0.2s0,0.4-0.2,0.5l-0.5,0.2c-0.2,0.1-0.4,0-0.5-0.2
					S316,104.3,316.2,104.2L316.2,104.2z"/>
				<path class="st0" d="M319.5,103.1l0.5-0.2c0.2-0.1,0.4,0,0.5,0.2s0,0.4-0.2,0.5l-0.5,0.2c-0.2,0.1-0.4,0-0.5-0.2
					S319.3,103.1,319.5,103.1L319.5,103.1z"/>
				<path class="st0" d="M322.8,101.9l0.5-0.2c0.2-0.1,0.4,0,0.5,0.2s0,0.4-0.2,0.5l-0.5,0.2c-0.2,0.1-0.4,0-0.5-0.2
					S322.6,101.9,322.8,101.9L322.8,101.9z"/>
				<path class="st0" d="M326.1,100.7l0.5-0.2c0.2-0.1,0.4,0,0.5,0.2s0,0.4-0.2,0.5l-0.5,0.2c-0.2,0.1-0.4,0-0.5-0.2
					C325.8,100.9,325.9,100.7,326.1,100.7L326.1,100.7z"/>
				<path class="st0" d="M329.4,99.5l0.5-0.2c0.2-0.1,0.4,0,0.5,0.2s0,0.4-0.2,0.5l-0.5,0.2c-0.2,0.1-0.4,0-0.5-0.2
					C329.1,99.7,329.2,99.5,329.4,99.5L329.4,99.5z"/>
				<path class="st0" d="M332.7,98.3l0.5-0.2c0.2-0.1,0.4,0,0.4,0.2c0.1,0.2,0,0.4-0.2,0.4l-0.5,0.2c-0.2,0.1-0.4,0-0.4-0.2
					C332.4,98.5,332.5,98.3,332.7,98.3L332.7,98.3z"/>
				<path class="st0" d="M336,97.1l0.5-0.2c0.2-0.1,0.4,0,0.4,0.2c0.1,0.2,0,0.4-0.2,0.4l-0.5,0.2c-0.2,0.1-0.4,0-0.4-0.2
					C335.7,97.3,335.8,97.1,336,97.1L336,97.1z"/>
				<path class="st0" d="M339.3,95.9l0.5-0.2c0.2-0.1,0.4,0,0.4,0.2s0,0.4-0.2,0.4l-0.5,0.2c-0.2,0.1-0.4,0-0.4-0.2
					C339,96.1,339.1,95.9,339.3,95.9L339.3,95.9z"/>
				<path class="st0" d="M342.6,94.7l0.5-0.2c0.2-0.1,0.4,0,0.4,0.2c0.1,0.2,0,0.4-0.2,0.4l-0.5,0.2c-0.2,0.1-0.4,0-0.4-0.2
					S342.4,94.7,342.6,94.7L342.6,94.7z"/>
				<path class="st0" d="M345.8,93.5l0.5-0.2c0.2-0.1,0.4,0,0.4,0.2c0.1,0.2,0,0.4-0.2,0.4l-0.5,0.2c-0.2,0.1-0.4,0-0.4-0.2
					S345.7,93.5,345.8,93.5L345.8,93.5z"/>
				<path class="st0" d="M349.1,92.3l0.5-0.2c0.2-0.1,0.4,0,0.4,0.2c0.1,0.2,0,0.4-0.2,0.4l-0.5,0.2c-0.2,0.1-0.4,0-0.4-0.2
					S349,92.3,349.1,92.3L349.1,92.3z"/>
				<path class="st0" d="M352.4,91.1l0.5-0.2c0.2-0.1,0.4,0,0.4,0.2c0.1,0.2,0,0.4-0.2,0.4l-0.5,0.2c-0.2,0.1-0.4,0-0.4-0.2
					C352.2,91.3,352.3,91.1,352.4,91.1L352.4,91.1z"/>
				<path class="st0" d="M355.7,89.9l0.5-0.2c0.2-0.1,0.4,0,0.4,0.2c0.1,0.2,0,0.4-0.2,0.4l-0.5,0.2c-0.2,0.1-0.4,0-0.4-0.2
					C355.5,90.1,355.6,89.9,355.7,89.9L355.7,89.9z"/>
				<path class="st0" d="M359,88.7l0.5-0.2c0.2-0.1,0.4,0,0.4,0.2c0.1,0.2,0,0.4-0.2,0.4l-0.5,0.2c-0.2,0.1-0.4,0-0.4-0.2
					S358.9,88.7,359,88.7L359,88.7z"/>
				<path class="st0" d="M362.3,87.5l0.5-0.2c0.2-0.1,0.4,0,0.4,0.2c0.1,0.2,0,0.4-0.2,0.4l-0.5,0.2c-0.2,0.1-0.4,0-0.4-0.2
					C362.1,87.7,362.2,87.5,362.3,87.5L362.3,87.5z"/>
				<path class="st0" d="M365.6,86.3l0.5-0.2c0.2-0.1,0.4,0,0.4,0.2c0.1,0.2,0,0.4-0.2,0.4l-0.5,0.2c-0.2,0.1-0.4,0-0.4-0.2
					S365.5,86.3,365.6,86.3L365.6,86.3z"/>
				<path class="st0" d="M368.9,85.1l0.5-0.2c0.2-0.1,0.3,0,0.4,0.2s0,0.3-0.2,0.4l-0.5,0.2c-0.2,0.1-0.3,0-0.4-0.2
					C368.7,85.3,368.8,85.2,368.9,85.1L368.9,85.1z"/>
				<path class="st0" d="M372.2,83.9l0.5-0.2c0.2-0.1,0.3,0,0.4,0.2s0,0.3-0.2,0.4l-0.5,0.2c-0.2,0.1-0.3,0-0.4-0.2
					C372,84.1,372.1,84,372.2,83.9L372.2,83.9z"/>
				<path class="st0" d="M375.5,82.7l0.5-0.2c0.2-0.1,0.3,0,0.4,0.2s0,0.3-0.2,0.4l-0.5,0.2c-0.2,0.1-0.3,0-0.4-0.2
					C375.3,82.9,375.4,82.8,375.5,82.7L375.5,82.7z"/>
				<path class="st0" d="M378.8,81.5l0.5-0.2c0.2-0.1,0.3,0,0.4,0.2s0,0.3-0.2,0.4l-0.5,0.2c-0.2,0.1-0.3,0-0.4-0.2
					C378.6,81.7,378.7,81.6,378.8,81.5L378.8,81.5z"/>
				<path class="st0" d="M382.1,80.3l0.5-0.2c0.2-0.1,0.3,0,0.4,0.2s0,0.3-0.2,0.4l-0.5,0.2c-0.2,0.1-0.3,0-0.4-0.2
					C381.9,80.5,382,80.4,382.1,80.3L382.1,80.3z"/>
				<path class="st0" d="M385.4,79.1l0.5-0.2c0.2-0.1,0.3,0,0.4,0.2s0,0.3-0.2,0.4l-0.5,0.2c-0.2,0.1-0.3,0-0.4-0.2
					C385.2,79.3,385.3,79.2,385.4,79.1L385.4,79.1z"/>
				<path class="st0" d="M388.7,77.9l0.5-0.2c0.2-0.1,0.3,0,0.4,0.2s0,0.3-0.2,0.4l-0.5,0.2c-0.2,0.1-0.3,0-0.4-0.2
					S388.6,78,388.7,77.9L388.7,77.9z"/>
				<path class="st0" d="M392,76.7l0.5-0.2c0.2-0.1,0.3,0,0.4,0.2s0,0.3-0.2,0.4l-0.5,0.2c-0.2,0.1-0.3,0-0.4-0.2
					C391.8,76.9,391.9,76.8,392,76.7L392,76.7z"/>
				<path class="st0" d="M395.3,75.5l0.5-0.2c0.2-0.1,0.3,0,0.4,0.2s0,0.3-0.2,0.4l-0.5,0.2c-0.2,0.1-0.3,0-0.4-0.2
					C395.1,75.7,395.2,75.6,395.3,75.5L395.3,75.5z"/>
				<path class="st0" d="M398.6,74.3l0.5-0.2c0.2-0.1,0.3,0,0.4,0.2s0,0.3-0.2,0.4l-0.5,0.2c-0.2,0.1-0.3,0-0.4-0.2
					C398.4,74.5,398.5,74.4,398.6,74.3L398.6,74.3z"/>
				<path class="st0" d="M401.9,73.1l0.5-0.2c0.2-0.1,0.3,0,0.4,0.2s0,0.3-0.2,0.4l-0.5,0.2c-0.2,0.1-0.3,0-0.4-0.2
					C401.7,73.3,401.8,73.2,401.9,73.1L401.9,73.1z"/>
				<path class="st0" d="M405.2,71.9l0.5-0.2c0.1-0.1,0.3,0,0.4,0.2c0.1,0.1,0,0.3-0.2,0.4l-0.5,0.2c-0.1,0.1-0.3,0-0.4-0.2
					C405,72.1,405.1,72,405.2,71.9L405.2,71.9z"/>
				<path class="st0" d="M408.5,70.7l0.5-0.2c0.1-0.1,0.3,0,0.4,0.2c0.1,0.1,0,0.3-0.2,0.4l-0.5,0.2c-0.1,0.1-0.3,0-0.4-0.2
					C408.3,70.9,408.4,70.8,408.5,70.7L408.5,70.7z"/>
				<path class="st0" d="M411.8,69.5l0.5-0.2c0.1-0.1,0.3,0,0.4,0.2c0.1,0.1,0,0.3-0.2,0.4l-0.5,0.2c-0.1,0.1-0.3,0-0.4-0.2
					C411.6,69.7,411.7,69.6,411.8,69.5L411.8,69.5z"/>
				<path class="st0" d="M415.1,68.3l0.5-0.2c0.1-0.1,0.3,0,0.4,0.2c0.1,0.1,0,0.3-0.2,0.4l-0.5,0.2c-0.1,0.1-0.3,0-0.4-0.2
					C414.9,68.5,415,68.4,415.1,68.3L415.1,68.3z"/>
				<path class="st0" d="M418.4,67.1l0.5-0.2c0.1-0.1,0.3,0,0.4,0.2s0,0.3-0.2,0.4l-0.5,0.2c-0.1,0.1-0.3,0-0.4-0.2
					C418.2,67.3,418.3,67.2,418.4,67.1L418.4,67.1z"/>
				<path class="st0" d="M421.7,65.9l0.5-0.2c0.1-0.1,0.3,0,0.4,0.2s0,0.3-0.2,0.4l-0.5,0.2c-0.1,0.1-0.3,0-0.4-0.2
					C421.5,66.1,421.6,66,421.7,65.9L421.7,65.9z"/>
				<path class="st0" d="M425,64.7l0.5-0.2c0.1-0.1,0.3,0,0.3,0.2c0.1,0.1,0,0.3-0.2,0.3l-0.5,0.2c-0.1,0.1-0.3,0-0.3-0.2
					C424.8,64.9,424.9,64.8,425,64.7L425,64.7z"/>
				<path class="st0" d="M428.3,63.5l0.5-0.2c0.1-0.1,0.3,0,0.3,0.2c0.1,0.1,0,0.3-0.2,0.3l-0.5,0.2c-0.1,0.1-0.3,0-0.3-0.2
					C428.1,63.7,428.2,63.6,428.3,63.5L428.3,63.5z"/>
				<path class="st0" d="M431.6,62.3l0.5-0.2c0.1-0.1,0.3,0,0.3,0.2c0.1,0.1,0,0.3-0.2,0.3l-0.5,0.2c-0.1,0.1-0.3,0-0.3-0.2
					C431.4,62.5,431.5,62.4,431.6,62.3L431.6,62.3z"/>
				<path class="st0" d="M434.9,61.1l0.5-0.2c0.1,0,0.3,0,0.3,0.2c0,0.1,0,0.3-0.2,0.3l-0.5,0.2c-0.1,0-0.3,0-0.3-0.2
					C434.7,61.3,434.8,61.2,434.9,61.1L434.9,61.1z"/>
				<path class="st0" d="M438.2,59.9l0.5-0.2c0.1,0,0.3,0,0.3,0.2c0,0.1,0,0.3-0.2,0.3l-0.5,0.2c-0.1,0-0.3,0-0.3-0.2
					C438,60.1,438.1,60,438.2,59.9L438.2,59.9z"/>
				<path class="st0" d="M441.5,58.7l0.5-0.2c0.1,0,0.3,0,0.3,0.2c0,0.1,0,0.3-0.2,0.3l-0.5,0.2c-0.1,0-0.3,0-0.3-0.2
					S441.4,58.8,441.5,58.7L441.5,58.7z"/>
				<path class="st0" d="M444.8,57.5l0.5-0.2c0.1,0,0.3,0,0.3,0.2c0,0.1,0,0.3-0.2,0.3l-0.5,0.2c-0.1,0-0.3,0-0.3-0.2
					C444.6,57.7,444.7,57.6,444.8,57.5L444.8,57.5z"/>
				<path class="st0" d="M448.1,56.4l0.5-0.2c0.1,0,0.3,0,0.3,0.2s0,0.3-0.2,0.3l-0.5,0.2c-0.1,0-0.3,0-0.3-0.2
					C447.9,56.5,448,56.4,448.1,56.4L448.1,56.4z"/>
				<path class="st0" d="M451.4,55.2l0.5-0.2c0.1,0,0.3,0,0.3,0.1s0,0.3-0.1,0.3l-0.5,0.2c-0.1,0-0.3,0-0.3-0.1
					C451.2,55.3,451.3,55.2,451.4,55.2L451.4,55.2z"/>
				<path class="st0" d="M454.7,54l0.5-0.2c0.1,0,0.3,0,0.3,0.1s0,0.3-0.1,0.3l-0.5,0.2c-0.1,0-0.3,0-0.3-0.1
					C454.5,54.1,454.6,54,454.7,54L454.7,54z"/>
				<path class="st0" d="M458,52.8l0.5-0.2c0.1,0,0.3,0,0.3,0.1s0,0.3-0.1,0.3l-0.5,0.2c-0.1,0-0.3,0-0.3-0.1
					C457.8,52.9,457.9,52.8,458,52.8L458,52.8z"/>
				<path class="st0" d="M461.3,51.6l0.5-0.2c0.1,0,0.3,0,0.3,0.1s0,0.3-0.1,0.3l-0.5,0.2c-0.1,0-0.3,0-0.3-0.1
					C461.1,51.7,461.2,51.6,461.3,51.6L461.3,51.6z"/>
				<path class="st0" d="M464.6,50.4l0.5-0.2c0.1,0,0.3,0,0.3,0.1s0,0.3-0.1,0.3l-0.5,0.2c-0.1,0-0.3,0-0.3-0.1
					C464.4,50.5,464.5,50.4,464.6,50.4L464.6,50.4z"/>
				<path class="st0" d="M467.9,49.2l0.5-0.2c0.1,0,0.3,0,0.3,0.1s0,0.3-0.1,0.3l-0.5,0.2c-0.1,0-0.3,0-0.3-0.1
					C467.7,49.3,467.8,49.2,467.9,49.2L467.9,49.2z"/>
				<path class="st0" d="M471.2,48l0.5-0.2c0.1,0,0.3,0,0.3,0.1s0,0.3-0.1,0.3l-0.5,0.2c-0.1,0-0.3,0-0.3-0.1
					C471,48.1,471.1,48,471.2,48L471.2,48z"/>
				<path class="st0" d="M474.5,46.8l0.5-0.2c0.1,0,0.3,0,0.3,0.1s0,0.3-0.1,0.3l-0.5,0.2c-0.1,0-0.3,0-0.3-0.1
					C474.3,46.9,474.4,46.8,474.5,46.8L474.5,46.8z"/>
				<path class="st0" d="M477.8,45.6l0.5-0.2c0.1,0,0.2,0,0.3,0.1s0,0.2-0.1,0.3L478,46c-0.1,0-0.2,0-0.3-0.1
					C477.6,45.7,477.7,45.6,477.8,45.6L477.8,45.6z"/>
				<path class="st0" d="M481.1,44.4l0.5-0.2c0.1,0,0.2,0,0.3,0.1s0,0.2-0.1,0.3l-0.5,0.2c-0.1,0-0.2,0-0.3-0.1
					C480.9,44.5,481,44.4,481.1,44.4L481.1,44.4z"/>
				<path class="st0" d="M484.4,43.2l0.5-0.2c0.1,0,0.2,0,0.3,0.1s0,0.2-0.1,0.3l-0.5,0.2c-0.1,0-0.2,0-0.3-0.1
					C484.2,43.3,484.3,43.2,484.4,43.2L484.4,43.2z"/>
				<path class="st0" d="M487.7,42l0.5-0.2c0.1,0,0.2,0,0.3,0.1c0,0.1,0,0.2-0.1,0.3l-0.5,0.2c-0.1,0-0.2,0-0.3-0.1
					C487.5,42.1,487.6,42,487.7,42L487.7,42z"/>
				<path class="st0" d="M491,40.8l0.5-0.2c0.1,0,0.2,0,0.3,0.1c0,0.1,0,0.2-0.1,0.3l-0.5,0.2c-0.1,0-0.2,0-0.3-0.1
					C490.8,40.9,490.9,40.8,491,40.8L491,40.8z"/>
				<path class="st0" d="M494.3,39.6l0.5-0.2c0.1,0,0.2,0,0.3,0.1c0,0.1,0,0.2-0.1,0.3l-0.5,0.2c-0.1,0-0.2,0-0.3-0.1
					S494.2,39.6,494.3,39.6L494.3,39.6z"/>
				<path class="st0" d="M497.6,38.4l0.5-0.2c0.1,0,0.2,0,0.3,0.1s0,0.2-0.1,0.3l-0.5,0.2c-0.1,0-0.2,0-0.3-0.1
					C497.4,38.6,497.5,38.4,497.6,38.4L497.6,38.4z"/>
				<path class="st0" d="M500.9,37.2l0.5-0.2c0.1,0,0.2,0,0.3,0.1c0,0.1,0,0.2-0.1,0.3l-0.5,0.2c-0.1,0-0.2,0-0.3-0.1
					S500.8,37.2,500.9,37.2L500.9,37.2z"/>
				<path class="st0" d="M504.2,36l0.5-0.2c0.1,0,0.2,0,0.3,0.1s0,0.2-0.1,0.3l-0.5,0.2c-0.1,0-0.2,0-0.3-0.1
					C504,36.2,504,36,504.2,36L504.2,36z"/>
				<path class="st0" d="M507.5,34.8l0.5-0.2c0.1,0,0.2,0,0.3,0.1c0,0.1,0,0.2-0.1,0.3l-0.5,0.2c-0.1,0-0.2,0-0.3-0.1
					C507.3,35,507.3,34.8,507.5,34.8L507.5,34.8z"/>
				<path class="st0" d="M510.8,33.6l0.5-0.2c0.1,0,0.2,0,0.3,0.1c0,0.1,0,0.2-0.1,0.3L511,34c-0.1,0-0.2,0-0.3-0.1
					S510.6,33.6,510.8,33.6L510.8,33.6z"/>
				<path class="st0" d="M514.1,32.4l0.5-0.2c0.1,0,0.2,0,0.3,0.1c0,0.1,0,0.2-0.1,0.3l-0.5,0.2c-0.1,0-0.2,0-0.3-0.1
					S513.9,32.4,514.1,32.4L514.1,32.4z"/>
				<path class="st0" d="M517.3,31.2l0.5-0.2c0.1,0,0.2,0,0.2,0.1s0,0.2-0.1,0.2l-0.5,0.2c-0.1,0-0.2,0-0.2-0.1
					C517.2,31.4,517.2,31.2,517.3,31.2L517.3,31.2z"/>
				<path class="st0" d="M520.6,30l0.5-0.2c0.1,0,0.2,0,0.2,0.1s0,0.2-0.1,0.2l-0.5,0.2c-0.1,0-0.2,0-0.2-0.1
					C520.5,30.2,520.5,30,520.6,30L520.6,30z"/>
				<path class="st0" d="M523.9,28.8l0.5-0.2c0.1,0,0.2,0,0.2,0.1s0,0.2-0.1,0.2l-0.5,0.2c-0.1,0-0.2,0-0.2-0.1
					C523.8,29,523.8,28.8,523.9,28.8L523.9,28.8z"/>
				<path class="st0" d="M527.2,27.6l0.5-0.2c0.1,0,0.2,0,0.2,0.1s0,0.2-0.1,0.2l-0.5,0.2c-0.1,0-0.2,0-0.2-0.1
					C527.1,27.8,527.1,27.6,527.2,27.6L527.2,27.6z"/>
				<path class="st0" d="M530.5,26.4l0.5-0.2c0.1,0,0.2,0,0.2,0.1s0,0.2-0.1,0.2l-0.5,0.2c-0.1,0-0.2,0-0.2-0.1
					C530.4,26.6,530.5,26.5,530.5,26.4L530.5,26.4z"/>
				<path class="st0" d="M533.8,25.2l0.5-0.2c0.1,0,0.2,0,0.2,0.1s0,0.2-0.1,0.2l-0.5,0.2c-0.1,0-0.2,0-0.2-0.1
					C533.7,25.4,533.8,25.3,533.8,25.2L533.8,25.2z"/>
				<path class="st0" d="M537.1,24l0.5-0.2c0.1,0,0.2,0,0.2,0.1s0,0.2-0.1,0.2l-0.5,0.2c-0.1,0-0.2,0-0.2-0.1
					C537,24.2,537.1,24.1,537.1,24L537.1,24z"/>
				<path class="st0" d="M540.4,22.8l0.5-0.2c0.1,0,0.2,0,0.2,0.1s0,0.2-0.1,0.2l-0.5,0.2c-0.1,0-0.2,0-0.2-0.1
					C540.3,23,540.4,22.9,540.4,22.8L540.4,22.8z"/>
				<path class="st0" d="M543.7,21.7l0.5-0.2c0.1,0,0.2,0,0.2,0.1s0,0.2-0.1,0.2l-0.5,0.2c-0.1,0-0.2,0-0.2-0.1
					C543.6,21.8,543.7,21.7,543.7,21.7L543.7,21.7z"/>
				<path class="st0" d="M547,20.5l0.5-0.2c0.1,0,0.1,0,0.2,0.1c0,0.1,0,0.1-0.1,0.2l-0.5,0.2c-0.1,0-0.1,0-0.2-0.1
					C546.9,20.6,547,20.5,547,20.5L547,20.5z"/>
				<path class="st0" d="M550.3,19.3l0.5-0.2c0.1,0,0.1,0,0.2,0.1s0,0.1-0.1,0.2l-0.5,0.2c-0.1,0-0.1,0-0.2-0.1
					C550.2,19.4,550.3,19.3,550.3,19.3L550.3,19.3z"/>
				<path class="st0" d="M553.6,18.1l0.5-0.2c0.1,0,0.1,0,0.2,0.1c0,0.1,0,0.1-0.1,0.2l-0.5,0.2c-0.1,0-0.1,0-0.2-0.1
					C553.5,18.2,553.6,18.1,553.6,18.1L553.6,18.1z"/>
				<path class="st0" d="M556.9,16.9l0.5-0.2c0.1,0,0.1,0,0.1,0.1s0,0.1-0.1,0.1l-0.4,0.2c-0.1,0-0.1,0-0.1-0.1V16.9L556.9,16.9z"/>
				<path class="st0" d="M560.2,15.7l0.5-0.2c0.1,0,0.1,0,0.1,0.1s0,0.1-0.1,0.1l-0.5,0.2c-0.1,0-0.1,0-0.1-0.1
					C560.2,15.8,560.2,15.7,560.2,15.7L560.2,15.7z"/>
				<path class="st0" d="M563.5,14.5l0.5-0.2c0,0,0.1,0,0.1,0.1c0,0,0,0.1-0.1,0.1l-0.5,0.2c-0.1,0-0.1,0-0.1-0.1
					C563.5,14.6,563.5,14.5,563.5,14.5L563.5,14.5z"/>
				<path class="st0" d="M566.8,13.3l0.5-0.2c0,0,0.1,0,0.1,0.1c0,0,0,0.1-0.1,0.1l-0.5,0.2c0,0-0.1,0-0.1-0.1
					C566.8,13.4,566.8,13.3,566.8,13.3L566.8,13.3z"/>
				<path class="st0" d="M570.1,12.1l0.5-0.2h0.1V12l-0.5,0.2h-0.1V12.1L570.1,12.1z"/>
				<path class="st0" d="M573.4,10.9l0.5-0.2h0.1v0.1l-0.5,0.2C573.5,11.1,573.4,11,573.4,10.9C573.4,11,573.4,10.9,573.4,10.9
					L573.4,10.9z"/>
				<path class="st0" d="M576.7,9.7l0.5-0.2h0.1v0.1l-0.5,0.2C576.8,9.9,576.7,9.8,576.7,9.7C576.7,9.8,576.7,9.7,576.7,9.7
					L576.7,9.7z"/>
				<path class="st0" d="M580,8.5l0.5-0.2h0.1v0.1l-0.5,0.2C580.1,8.7,580,8.6,580,8.5C580,8.6,580,8.5,580,8.5L580,8.5z"/>
				<path class="st0" d="M583.3,7.3l0.5-0.2h0.1v0.1L583.3,7.3C583.4,7.4,583.3,7.4,583.3,7.3C583.3,7.4,583.3,7.3,583.3,7.3
					L583.3,7.3z"/>
				<path class="st0" d="M586.6,6.1l0.5-0.2c0,0,0,0,0.1,0c0,0,0,0,0,0.1L586.6,6.1C586.6,6.2,586.6,6.2,586.6,6.1
					C586.6,6.2,586.6,6.2,586.6,6.1L586.6,6.1z"/>
				<path class="st0" d="M589.9,5l0.5-0.2l0,0l0,0L589.9,5L589.9,5L589.9,5L589.9,5z"/>
				<path class="st0" d="M593.2,3.8l0.5-0.2l0,0l0,0L593.2,3.8L593.2,3.8L593.2,3.8L593.2,3.8z"/>
				<path class="st0" d="M596.5,2.6l0.5-0.2l0,0l0,0L596.5,2.6L596.5,2.6L596.5,2.6L596.5,2.6z"/>
				<path class="st0" d="M599.8,1.4l0.5-0.2l0,0l0,0L599.8,1.4L599.8,1.4L599.8,1.4z"/>
				<path class="st0" d="M603.1,0.2l0.3-0.1L603.1,0.2z"/>
			</g>
		</g>
	</g>
</g>
<g id="txt">
	<text transform="matrix(1 0 0 1 292.0389 64.5065)" class="st1 st2">SEE</text>
	<text transform="matrix(1 0 0 1 278.5141 161.8025)" class="st1 st2">SAY &amp; DO</text>
	<text transform="matrix(1 0 0 1 227.1613 109.8991)" class="st1 st2">THINK</text>
	<text transform="matrix(1 0 0 1 343.5916 108.6314)" class="st1 st2">HEAR</text>
	<rect x="228.9" y="24.2" class="st3" width="143.2" height="39.9"/>
	<text transform="matrix(1 0 0 1 228.877 29.9208)" class="st4 st5">The cooking show looks cool</text>
	<text transform="matrix(1 0 0 1 228.877 39.5208)" class="st4 st5">I read a lot of recipe reviews of BBQ</text>
	<text transform="matrix(1 0 0 1 228.877 49.1208)" class="st4 st5">I will watch how to make fried chicken with Airfryer</text>
	<rect x="69.6" y="86" class="st3" width="159.6" height="39.9"/>
	<text transform="matrix(1 0 0 1 69.6459 91.7241)" class="st4 st5">How to make a great BBQ</text>
	<text transform="matrix(1 0 0 1 69.6459 101.3241)" class="st4 st5">Where can I buy the freshest ingredients?</text>
	<text transform="matrix(1 0 0 1 69.6459 110.9241)" class="st4 st5">Does everyone love BBQ?</text>
	<text transform="matrix(1 0 0 1 69.6459 120.524)" class="st6"><tspan x="0" y="0" class="st4 st5">Inviting people to my house making </tspan><tspan x="0" y="9.6" class="st4 st5">a meal for them?</tspan></text>
	<rect x="391.1" y="86" class="st3" width="159.6" height="39.9"/>
	<text transform="matrix(1 0 0 1 391.073 91.7241)" class="st4 st5">My friends invite me to a potluck party</text>
	<text transform="matrix(1 0 0 1 391.073 101.3241)" class="st4 st5">The slow cooker is easy to use</text>
	<text transform="matrix(1 0 0 1 391.1001 111.6433)" class="st4 st5">My friend shared his homemade meal with yesterday</text>
	<rect x="203.3" y="171.7" class="st3" width="194.3" height="41.1"/>
	<text transform="matrix(1 0 0 1 203.3264 177.438)" class="st4 st5">I am looking at different types of cuisine</text>
	<text transform="matrix(1 0 0 1 203.3264 187.0381)" class="st4 st5">How many ingredients I should buy cooking for ten people</text>
	<text transform="matrix(1 0 0 1 203.3264 196.638)" class="st4 st5">I will go with my friends shopping the ingredients together</text>
</g>
<g>
	<g id="circle">
		<circle class="st0" cx="301.7" cy="111.2" r="36"/>
	</g>
	<g id="vector">
		<path class="st7" d="M311.5,145.8c0.3-1.6,0.6-3.2,1-4.8l-1.4-2.6l2-0.2c0.5-2.8,1-5.6,1.6-8.5c1.8,0.6,3.7,1,5.5,1.6
			c0.6,0.2,1.4,0.4,2,0.6c0.6,0.1,1.2,0.4,1.7,0.8c0.5,0.4,0.9,1.1,1,1.8v4.1C321,142,316.5,144.4,311.5,145.8z"/>
		<path class="st7" d="M291.8,145.8c-0.3-1.6-0.7-3.2-1-4.8l1.4-2.6l-2-0.2c-0.6-2.8-1.1-5.6-1.6-8.5c-1.9,0.6-3.7,1-5.5,1.6
			c-0.7,0.2-1.4,0.4-2,0.6c-0.7,0.1-1.2,0.4-1.7,0.8c-0.5,0.4-0.9,1.1-1,1.8v4.1C282.3,142,286.9,144.4,291.8,145.8z"/>
		<path class="st8" d="M296.3,120.1c0.6,0.5,1.3,0.8,2,1.2c0.6,0.3,1.1,0.5,1.8,0.7c1.1,0.2,2.1,0.2,3.2,0c0.6-0.2,1.2-0.4,1.8-0.7
			c0.7-0.3,1.4-0.8,2-1.2v6.6l-5.4,2.9l-5.4-2.9V120.1z"/>
		<path class="st9" d="M300.3,134.7h-0.2c-0.1,0-0.1,0-0.2-0.1l-0.6-0.3c-0.2-0.1-0.4-0.4-0.4-0.6v-0.4l2.7-3.7l-4.1,5.6
			c-0.2,0.2-0.4,0.2-0.6,0l-0.1-0.2c-0.2-0.3-0.5-0.8-0.6-1.1l-1.8-6.1L298,146C298.8,142.2,299.6,138.4,300.3,134.7z"/>
		<path class="st9" d="M304.4,133.7c0,0.2-0.1,0.4-0.4,0.6l-0.6,0.3c-0.1,0.1-0.1,0.1-0.2,0.1h-0.2c0.8,3.8,1.5,7.6,2.3,11.3
			l3.5-18.3l-1.8,6.1c-0.1,0.4-0.3,0.8-0.6,1.2l-0.2,0.2c-0.2,0.2-0.4,0.2-0.6,0l-4.2-5.5l2.7,3.6V133.7z"/>
		<path class="st10" d="M306.4,135.1l0.1-0.2c0.2-0.3,0.5-0.8,0.6-1.1l1.8-6.1l-1.9-1l-5.4,2.9l4.1,5.5
			C306,135.4,306.2,135.4,306.4,135.1z"/>
		<path class="st10" d="M296.8,134.9l0.1,0.2c0.2,0.2,0.4,0.2,0.6,0l4.1-5.6l-5.4-2.9l-1.9,1l1.8,6.1
			C296.4,134.2,296.6,134.6,296.8,134.9z"/>
		<path class="st11" d="M298,146l-3.5-18.3c-1.9,0.9-3.8,1.6-5.8,2.2c0.5,2.8,1.1,5.6,1.6,8.5l2.1,0.1l-1.4,2.6
			c0.3,1.6,0.7,3.2,1,4.8c2,0.6,4,0.9,6,1.2l0.4,0.1L298,146L298,146z"/>
		<path class="st7" d="M305.3,146c-0.8-3.8-1.6-7.6-2.3-11.3h0.2c0,0,0.1,0,0.1,0l0.6-0.4c0.2-0.1,0.4-0.3,0.4-0.6v-0.5l-2.7-3.7
			l-2.7,3.7v0.4c0,0.2,0.2,0.5,0.4,0.6l0.6,0.4c0,0.1,0.1,0.1,0.1,0.1h0.2c-0.8,3.8-1.5,7.6-2.2,11.3l0.2,1l0,0
			c2.3,0.2,4.6,0.2,6.9,0l0,0L305.3,146z"/>
		<path class="st9" d="M298.1,146.1L298.1,146.1l0.2,1l0,0L298.1,146.1z"/>
		<path class="st11" d="M314.7,129.8c-1.9-0.6-3.9-1.3-5.8-2.2l-3.5,18.3l0,0l-0.2,1l0.4-0.1c2.1-0.2,4.1-0.6,6-1.1
			c0.3-1.6,0.7-3.2,1-4.8l-1.4-2.6l2-0.2C313.6,135.5,314.2,132.7,314.7,129.8z"/>
		<path class="st9" d="M305.4,146.1l-0.2,1l0,0L305.4,146.1z"/>
		<path class="st12" d="M313.6,102.8c-1.8-2.4-3.1-5.2-3.7-8.1c-2.7,0.4-5.5,0.7-8.2,0.6c-2.8,0-5.5-0.2-8.2-0.6
			c-0.6,2.9-1.9,5.8-3.7,8.1c-1.1-3.3-1.4-6.8-0.9-10.3c0.4-1.5,1.1-2.9,2.2-3.9c2.8-2.4,8.6-2.8,10.6-2.8s7.9,0.4,10.6,2.8
			c1.1,1,1.9,2.4,2.2,3.9C315.1,95.9,314.7,99.5,313.6,102.8z"/>
		<path class="st13" d="M289.8,110.1c0.1,0.8,0.2,1.6,0.4,2.4c0.6,1.6,1.5,3,2.6,4.2c1.6,1.8,3.4,3.4,5.6,4.6
			c0.5,0.3,1.1,0.5,1.8,0.7c1,0.2,2.1,0.2,3.2,0c0.6-0.2,1.2-0.4,1.8-0.7c2.1-1.2,4-2.7,5.5-4.6c1.1-1.2,2-2.7,2.6-4.2
			c0.2-0.8,0.4-1.6,0.4-2.4v-7.3c-1.8-2.4-3.1-5.2-3.7-8.1c-2.7,0.4-5.5,0.6-8.2,0.6s-5.5-0.2-8.2-0.6c-0.6,2.9-1.9,5.8-3.7,8.1
			L289.8,110.1L289.8,110.1z"/>
		<path class="st8" d="M313.6,102.8v7.3c0.9-1.2,1.4-2.5,1.5-4c0-0.7-0.1-1.4-0.4-2C314.5,103.5,314.1,103.1,313.6,102.8z"/>
		<path class="st8" d="M289.8,102.8v7.3c-0.9-1.2-1.4-2.5-1.5-4c0-0.7,0.1-1.4,0.4-2C288.9,103.5,289.3,103.1,289.8,102.8z"/>
	</g>
	<g id="mouth">
		<line class="st14" x1="299.8" y1="116.1" x2="303.6" y2="116.1"/>
	</g>
</g>
<text transform="matrix(1 0 0 1 128.6293 232.4819)" class="st1 st2">PAINS</text>
<text transform="matrix(1 0 0 1 454.5384 228.0224)" class="st1 st2">GAINS</text>
<text transform="matrix(1 0 0 1 43.1998 253.4206)" class="st4 st5">Don&apos;t know how many ingredients I should buy</text>
<text transform="matrix(1 0 0 1 43.1998 263.0206)" class="st4 st5">Not sure our space is big enough</text>
<text transform="matrix(1 0 0 1 387.2998 253.4206)" class="st4 st5">Love to learn cooking bring food to the party</text>
<text transform="matrix(1 0 0 1 387.2998 263.0206)" class="st4 st5">choose recipes before doing the shopping  </text>
</svg>
