<svg xmlns="http://www.w3.org/2000/svg" viewBox="0 0 360 360"><defs><style>.cls-1{fill:#ffbf00;stroke:#ffbf00;stroke-miterlimit:10;}</style></defs><g id="line"><g id="oven"><path id="Path_2275" data-name="Path 2275" class="cls-1" d="M309.49,34.37h-259A28.25,28.25,0,0,0,22.27,62.61v226a28.25,28.25,0,0,0,28.24,28.24h259a28.25,28.25,0,0,0,28.24-28.24h0v-226a28.25,28.25,0,0,0-28.24-28.24ZM107,260.34H78.77a14.12,14.12,0,0,1,0-28.24H107a14.12,14.12,0,1,1,0,28.24ZM107,218H78.77a14.12,14.12,0,0,1,0-28.24H107A14.12,14.12,0,0,1,107,218ZM92.93,147.36a28.25,28.25,0,1,1,28.25-28.25h0a28.25,28.25,0,0,1-28.25,28.25h0Zm202.48,98.86a28.24,28.24,0,0,1-28.25,28.24H205.88a28.24,28.24,0,0,1-28.25-28.24h0V105a28.24,28.24,0,0,1,28.25-28.24h61.28A28.24,28.24,0,0,1,295.41,105Z"/></g></g></svg>