<svg xmlns="http://www.w3.org/2000/svg" viewBox="0 0 360 360"><defs><style>.cls-1{fill:#ffbf00;}.cls-1,.cls-2{stroke:#ffbf00;stroke-miterlimit:10;}.cls-2{fill:#fff;}</style></defs><g id="line"><path id="Path_2290" data-name="Path 2290" class="cls-1" d="M295.81,276a11.51,11.51,0,0,0,11.51-11.51V45.82a11.5,11.5,0,0,0-11.51-11.5H54.17a11.5,11.5,0,0,0-11.5,11.5h0V287.46A36.24,36.24,0,0,0,80.41,322h215.4a11.51,11.51,0,1,0,0-23h-11.5V276Zm-34.52,23H80.41a13.7,13.7,0,0,1-14.73-11.51A13.68,13.68,0,0,1,80.41,276H261.29Z"/><path id="Path_2319" data-name="Path 2319" class="cls-2" d="M129,92.31a11.51,11.51,0,0,1,23,0h0v49.48c0,3.34,4.83,7,11.51,7.71V92.31a11.51,11.51,0,0,1,23,0h0v57.54c6.67-.7,11.51-4.32,11.51-7.71V92.31a11.51,11.51,0,0,1,23,0h0v49.48a33.72,33.72,0,0,1-34.52,31.07v69a11.51,11.51,0,1,1-23,0v-69A33.71,33.71,0,0,1,129,142Z"/></g></svg>