<svg xmlns="http://www.w3.org/2000/svg" xmlns:xlink="http://www.w3.org/1999/xlink" width="900" height="1173" viewBox="0 0 900 1173">
  <defs>
    <clipPath id="clip-path">
      <rect id="Rectangle_2298" data-name="Rectangle 2298" width="374" height="808" rx="50" transform="translate(1563 7922)" fill="#3100ff"/>
    </clipPath>
    <filter id="rectangle" x="218" y="143" width="465" height="797" filterUnits="userSpaceOnUse">
      <feOffset dy="5" input="SourceAlpha"/>
      <feGaussianBlur stdDeviation="15" result="blur"/>
      <feFlood flood-opacity="0.051"/>
      <feComposite operator="in" in2="blur"/>
      <feComposite in="SourceGraphic"/>
    </filter>
    <filter id="rectangle-2" x="218" y="143" width="465" height="272" filterUnits="userSpaceOnUse">
      <feOffset dy="5" input="SourceAlpha"/>
      <feGaussianBlur stdDeviation="15" result="blur-2"/>
      <feFlood flood-opacity="0.051"/>
      <feComposite operator="in" in2="blur-2"/>
      <feComposite in="SourceGraphic"/>
    </filter>
    <filter id="Rectangle_2313" x="287" y="239" width="58" height="50" filterUnits="userSpaceOnUse">
      <feOffset dy="3" input="SourceAlpha"/>
      <feGaussianBlur stdDeviation="3" result="blur-3"/>
      <feFlood flood-opacity="0.071"/>
      <feComposite operator="in" in2="blur-3"/>
      <feComposite in="SourceGraphic"/>
    </filter>
    <clipPath id="clip-path-2">
      <rect width="284" height="34" fill="none"/>
    </clipPath>
    <linearGradient id="linear-gradient" y1="0.5" x2="1" y2="0.5" gradientUnits="objectBoundingBox">
      <stop offset="0" stop-color="#f1f3f6" stop-opacity="0.8"/>
      <stop offset="0.194" stop-color="#f8f8f4" stop-opacity="0"/>
      <stop offset="0.79" stop-color="#fff" stop-opacity="0"/>
      <stop offset="1" stop-color="#86613b" stop-opacity="0.102"/>
    </linearGradient>
    <clipPath id="clip-hf_cookware1">
      <rect width="900" height="1173"/>
    </clipPath>
  </defs>
  <g id="hf_cookware1" clip-path="url(#clip-hf_cookware1)">
    <g id="phone-bottom" transform="translate(109)">
      <path id="Path_2462" data-name="Path 2462" d="M60,0H326a60,60,0,0,1,60,60V769a60,60,0,0,1-60,60H60A60,60,0,0,1,0,769V60A60,60,0,0,1,60,0Z" transform="translate(148 172)" fill="#fff"/>
      <path id="Path_2436" data-name="Path 2436" d="M50,0H324a50,50,0,0,1,50,50V758a50,50,0,0,1-50,50H50A50,50,0,0,1,0,758V50A50,50,0,0,1,50,0Z" transform="translate(155 182)" fill="#f5f5f5"/>
      <path id="Path_2434" data-name="Path 2434" d="M40.929,0H332.343a40.929,40.929,0,0,1,40.929,40.929v726.9a40.929,40.929,0,0,1-40.929,40.929H40.929A40.929,40.929,0,0,1,0,767.828V40.929A40.929,40.929,0,0,1,40.929,0Z" transform="translate(155.147 182.355)" fill="none"/>
      <rect id="Rectangle_2199" data-name="Rectangle 2199" width="13" height="10" transform="translate(214 172)" fill="#6b7f99" opacity="0.2"/>
      <rect id="Rectangle_2201" data-name="Rectangle 2201" width="11" height="10" transform="translate(457 172)" fill="#6b7f99" opacity="0.2"/>
      <rect id="Rectangle_2200" data-name="Rectangle 2200" width="13" height="11" transform="translate(214 990)" fill="#6b7f99" opacity="0.2"/>
      <rect id="Rectangle_2202" data-name="Rectangle 2202" width="11" height="11" transform="translate(457 990)" fill="#6b7f99" opacity="0.2"/>
    </g>
    <g id="Mask_Group_152" data-name="Mask Group 152" transform="translate(-1300 -7739)" clip-path="url(#clip-path)">
      <g id="Group_1721" data-name="Group 1721" transform="translate(8 -26)">
        <ellipse id="ellipse" cx="149.5" cy="48.5" rx="149.5" ry="48.5" transform="translate(1593 8558)" opacity="0.15"/>
        <g transform="matrix(1, 0, 0, 1, 1292, 7765)" filter="url(#rectangle)">
          <path id="rectangle-3" data-name="rectangle" d="M0,0H375a0,0,0,0,1,0,0V671a36,36,0,0,1-36,36H36A36,36,0,0,1,0,671V0A0,0,0,0,1,0,0Z" transform="translate(263 183)" fill="#fff"/>
        </g>
        <g id="bg-shadow" transform="translate(1555 7948)">
          <ellipse id="ellipse-2" data-name="ellipse" cx="149.5" cy="48.5" rx="149.5" ry="48.5" transform="translate(38 85)" opacity="0.15"/>
          <g transform="matrix(1, 0, 0, 1, -263, -183)" filter="url(#rectangle-2)">
            <path id="rectangle-4" data-name="rectangle" d="M0,0H375a0,0,0,0,1,0,0V146a36,36,0,0,1-36,36H36A36,36,0,0,1,0,146V0A0,0,0,0,1,0,0Z" transform="translate(263 183)" fill="#fff"/>
          </g>
        </g>
        <text id="Pantry" transform="translate(1743 8032)" fill="#505050" font-size="18" font-family="Lato-Regular, Lato"><tspan x="-26.433" y="0">Pantry</tspan></text>
        <g transform="matrix(1, 0, 0, 1, 1292, 7765)" filter="url(#Rectangle_2313)">
          <rect id="Rectangle_2313-2" data-name="Rectangle 2313" width="40" height="32" rx="8" transform="translate(296 245)" fill="#fff"/>
        </g>
        <path id="Path_2519" data-name="Path 2519" d="M-2957.317,4648.664l-6.17-5.952,6.17-6.048" transform="translate(4564.077 3383.351)" fill="none" stroke="#707070" stroke-linecap="round" stroke-linejoin="round" stroke-width="1"/>
        <path id="Path_2520" data-name="Path 2520" d="M-2952.79,4643.409h11.141" transform="translate(4554 3382.591)" fill="none" stroke="#707070" stroke-linecap="round" stroke-width="1"/>
        <g id="button" transform="translate(1585 8670)">
          <path id="rectangle-5" data-name="rectangle" d="M30,0H285a30,30,0,0,1,0,60H30A30,30,0,0,1,30,0Z" fill="#fed256"/>
          <g id="text-arrow" transform="translate(17)">
            <g id="icon-arrow-small" transform="translate(89 26)">
              <path id="path" d="M1281.487,1163.709l4.157,4.157-4.157,4.157" transform="translate(-1275.794 -1163.709)" fill="none" stroke="#fff" stroke-linecap="round" stroke-linejoin="round" stroke-width="1"/>
              <line id="line" x1="9.326" transform="translate(0 4.155)" fill="none" stroke="#fff" stroke-linecap="round" stroke-width="1"/>
            </g>
            <text id="Find_Recipes" data-name="Find Recipes" transform="translate(109 35)" fill="#fff" font-size="14" font-family="Helvetica-Bold, Helvetica" font-weight="700" letter-spacing="-0.01em"><tspan x="0" y="0">FIND RECIPES</tspan></text>
          </g>
        </g>
        <g id="search" transform="translate(1883.374 8017.643)">
          <circle id="ellipse-3" data-name="ellipse" cx="8.015" cy="8.015" r="8.015" fill="none" stroke="#c7c7c7" stroke-linecap="round" stroke-linejoin="round" stroke-width="1"/>
          <line id="line-2" data-name="line" x2="4.514" y2="4.514" transform="translate(13.112 14.2)" fill="none" stroke="#c7c7c7" stroke-linecap="round" stroke-linejoin="round" stroke-width="1"/>
        </g>
        <text id="Peach" transform="translate(1844 8566)" fill="#505050" font-size="16" font-family="Lato-Light, Lato" font-weight="300" letter-spacing="-0.01em"><tspan x="-20.256" y="0">Peach</tspan></text>
        <text id="Kiwi" transform="translate(1743 8566)" fill="#505050" font-size="16" font-family="Lato-Light, Lato" font-weight="300" letter-spacing="-0.01em"><tspan x="-14.736" y="0">Kiwi</tspan></text>
        <text id="Strawberry" transform="translate(1643 8566)" fill="#505050" font-size="16" font-family="Lato-Light, Lato" font-weight="300" letter-spacing="-0.01em"><tspan x="-37.728" y="0">Strawberry</tspan></text>
        <text id="Avocado" transform="translate(1844 8406)" fill="#505050" font-size="16" font-family="Lato-Light, Lato" font-weight="300" letter-spacing="-0.01em"><tspan x="-28.776" y="0">Avocado</tspan></text>
        <text id="Pear" transform="translate(1743 8406)" fill="#505050" font-size="16" font-family="Lato-Light, Lato" font-weight="300" letter-spacing="-0.01em"><tspan x="-15.544" y="0">Pear</tspan></text>
        <text id="Lemon" transform="translate(1643 8406)" fill="#505050" font-size="16" font-family="Lato-Light, Lato" font-weight="300" letter-spacing="-0.01em"><tspan x="-22.748" y="0">Lemon</tspan></text>
        <text id="Orange" transform="translate(1844 8246)" fill="#505050" font-size="16" font-family="Lato-Light, Lato" font-weight="300" letter-spacing="-0.01em"><tspan x="-25.3" y="0">Orange</tspan></text>
        <text id="Banana" transform="translate(1743 8246)" fill="#505050" font-size="16" font-family="Lato-Light, Lato" font-weight="300" letter-spacing="-0.01em"><tspan x="-25.06" y="0">Banana</tspan></text>
        <text id="Apple" transform="translate(1643 8246)" fill="#505050" font-size="16" font-family="Lato-Light, Lato" font-weight="300" letter-spacing="-0.01em"><tspan x="-19.384" y="0">Apple</tspan></text>
        <g id="icon-mono-apple" transform="translate(1622.619 8178)">
          <g id="path-2" data-name="path" transform="translate(-408.257 27.971)" fill="#ffbf00" stroke-linecap="round" stroke-linejoin="round">
            <path d="M 434.6429138183594 19.31955146789551 C 433.4344177246094 19.31954193115234 432.1401062011719 19.09407043457031 430.7959289550781 18.64940071105957 C 430.1637573242188 18.44097137451172 429.5081176757812 18.33512115478516 428.8481750488281 18.33512115478516 C 428.1884460449219 18.33512115478516 427.5335083007812 18.44092178344727 426.9015502929688 18.64958190917969 C 425.5578918457031 19.09408187866211 424.2635498046875 19.31955146789551 423.0550537109375 19.31955146789551 C 422.9771728515625 19.31955146789551 422.899169921875 19.31861114501953 422.8214416503906 19.31670188903809 C 420.271728515625 19.25532150268555 417.9191284179688 18.50048065185547 415.8294372558594 17.07317161560059 C 413.9767150878906 15.80770111083984 412.3560791015625 14.03268146514893 411.0125427246094 11.79741096496582 C 409.81494140625 9.80492115020752 408.8752136230469 7.518381118774414 408.2195129394531 5.001301288604736 C 407.61962890625 2.698371171951294 407.2875061035156 0.2733611464500427 407.2590942382812 -2.011558771133423 C 407.2272644042969 -4.605838775634766 407.6578369140625 -7.262858867645264 408.5042419433594 -9.695528984069824 C 409.4109191894531 -12.30151844024658 410.7805786132812 -14.5803689956665 412.4651489257812 -16.28572845458984 C 413.6231689453125 -17.45802879333496 414.9312438964844 -18.36928939819336 416.3530578613281 -18.99418830871582 C 417.8822631835938 -19.66628837585449 419.5446166992188 -20.0070686340332 421.2939758300781 -20.0070686340332 C 421.8072509765625 -20.0070686340332 422.3354797363281 -19.97740936279297 422.8639831542969 -19.9189281463623 C 424.2319641113281 -19.76774978637695 425.5880432128906 -19.44966888427734 426.8944396972656 -18.97353935241699 C 427.5302124023438 -18.74195861816406 428.1880187988281 -18.62449836730957 428.849365234375 -18.62449836730957 C 429.5106506347656 -18.62449836730957 430.1681213378906 -18.74192810058594 430.8035583496094 -18.97353935241699 C 432.111572265625 -19.44987869262695 433.4675903320312 -19.76792907714844 434.8341674804688 -19.91894912719727 C 435.3625183105469 -19.97740936279297 435.8907470703125 -20.0070686340332 436.4040222167969 -20.0070686340332 C 438.1534118652344 -20.0070686340332 439.8158569335938 -19.66618919372559 441.3451843261719 -18.99389839172363 C 442.7671203613281 -18.36881828308105 444.0753173828125 -17.45733833312988 445.2334899902344 -16.28476905822754 C 446.9179992675781 -14.57926845550537 448.2875671386719 -12.30048847198486 449.1941833496094 -9.694768905639648 C 450.0406188964844 -7.26201868057251 450.4710388183594 -4.605228900909424 450.4389038085938 -2.011618852615356 C 450.4107666015625 0.2731711566448212 450.0787963867188 2.698221206665039 449.4789123535156 5.001281261444092 C 448.8232727050781 7.51832103729248 447.883544921875 9.804871559143066 446.6858215332031 11.79743099212646 C 445.3422241210938 14.03268146514893 443.7215270996094 15.80770111083984 441.8686828613281 17.07318115234375 C 439.7789306640625 18.50049209594727 437.42626953125 19.25532150268555 434.8760681152344 19.31671142578125 C 434.7987365722656 19.31861114501953 434.7208862304688 19.31955146789551 434.6429138183594 19.31955146789551 Z" stroke="none"/>
            <path d="M 421.2940063476562 -19.00706672668457 C 412.564697265625 -19.00706672668457 408.1622619628906 -9.914966583251953 408.2590026855469 -2.024000644683838 C 408.3659973144531 6.576999664306641 412.9179992675781 18.07799911499023 422.8460083007812 18.3169994354248 C 422.9155578613281 18.3187084197998 422.9853820800781 18.31955146789551 423.0550537109375 18.31955146789551 C 424.2499694824219 18.31955146789551 425.462646484375 18.07228469848633 426.5880126953125 17.69999885559082 C 427.3250427246094 17.4566478729248 428.0867919921875 17.33514785766602 428.8482055664062 17.33512496948242 C 429.6105346679688 17.3351001739502 430.3725280761719 17.45685005187988 431.1099853515625 17.69999885559082 C 432.2352905273438 18.0722599029541 433.4481201171875 18.31955146789551 434.6429138183594 18.31955146789551 C 434.7127075195312 18.31955146789551 434.7823486328125 18.31871032714844 434.8519897460938 18.3169994354248 C 444.7799987792969 18.07799911499023 449.3330078125 6.576999664306641 449.4389953613281 -2.024000644683838 C 449.5366821289062 -9.914458274841309 445.1322937011719 -19.00681686401367 436.4040222167969 -19.00706672668457 C 435.9299621582031 -19.007080078125 435.4435119628906 -18.98027420043945 434.9440002441406 -18.92500114440918 C 433.6409912109375 -18.7810001373291 432.3569946289062 -18.47500038146973 431.14599609375 -18.03400039672852 C 430.3970031738281 -17.76100158691406 429.6232604980469 -17.6245002746582 428.849365234375 -17.6245002746582 C 428.0755004882812 -17.6245002746582 427.3014831542969 -17.76100158691406 426.552001953125 -18.03400039672852 C 425.3420104980469 -18.47500038146973 424.0570068359375 -18.7810001373291 422.7539978027344 -18.92500114440918 C 422.2550659179688 -18.98020935058594 421.7674865722656 -19.00706672668457 421.2940063476562 -19.00706672668457 M 421.2939758300781 -21.00707054138184 C 421.8438415527344 -21.00707054138184 422.4090576171875 -20.97537994384766 422.9739685058594 -20.91287040710449 C 424.421142578125 -20.75293159484863 425.8554992675781 -20.41655158996582 427.2368469238281 -19.9130916595459 C 427.762451171875 -19.72164154052734 428.3051147460938 -19.6245002746582 428.849365234375 -19.6245002746582 C 429.3934936523438 -19.6245002746582 429.9357604980469 -19.72159004211426 430.4610900878906 -19.91307067871094 C 431.8443298339844 -20.41679000854492 433.2785034179688 -20.75312042236328 434.7243041992188 -20.91290092468262 C 435.2890014648438 -20.97537994384766 435.8541259765625 -21.00707054138184 436.4037475585938 -21.00707054138184 C 440.048583984375 -21.00697135925293 443.3478088378906 -19.61692047119141 445.9450988769531 -16.98722076416016 C 447.7334289550781 -15.17657089233398 449.1835327148438 -12.76846122741699 450.138671875 -10.02323055267334 C 451.0227661132812 -7.482180595397949 451.4723815917969 -4.707530975341797 451.4388427734375 -1.999240756034851 C 451.4096984863281 0.3651993274688721 451.0665893554688 2.873149394989014 450.4465942382812 5.253349304199219 C 449.7668762207031 7.862969398498535 448.7899169921875 10.23804950714111 447.5429077148438 12.31261920928955 C 446.1246032714844 14.67215919494629 444.4052734375 16.55167961120605 442.4326782226562 17.89894866943359 C 440.1808471679688 19.43694877624512 437.6465454101562 20.25030899047852 434.9001159667969 20.31641960144043 C 434.8150939941406 20.31851005554199 434.7290954589844 20.31954956054688 434.6429138183594 20.31954956054688 C 433.3275451660156 20.31954956054688 431.9275512695312 20.07704925537109 430.4818420410156 19.59879875183105 C 429.9517822265625 19.42402839660645 429.4015197753906 19.33510971069336 428.8482360839844 19.33511924743652 C 428.2951354980469 19.33513832092285 427.7456359863281 19.42397880554199 427.215087890625 19.59915924072266 C 425.7704467773438 20.07704925537109 424.3704223632812 20.31954956054688 423.0550537109375 20.31954956054688 C 422.9689636230469 20.31954956054688 422.8827514648438 20.31851005554199 422.7968444824219 20.31639862060547 C 420.0514526367188 20.25030899047852 417.5171813964844 19.43693923950195 415.2654113769531 17.89892959594727 C 413.2929382324219 16.55167007446289 411.5736999511719 14.67214965820312 410.1554260253906 12.31257915496826 C 408.9085388183594 10.23809909820557 407.931640625 7.863039016723633 407.2518310546875 5.253389358520508 C 406.6318359375 2.873349189758301 406.28857421875 0.3654792308807373 406.2591552734375 -1.999120712280273 C 406.2259521484375 -4.708271026611328 406.6756896972656 -7.483150959014893 407.5597534179688 -10.02415084838867 C 408.5150146484375 -12.76974105834961 409.9652709960938 -15.17798042297363 411.7537231445312 -16.98850059509277 C 414.3506774902344 -19.61747169494629 417.6496276855469 -21.00707054138184 421.2939758300781 -21.00707054138184 Z" stroke="none" fill="#fff"/>
          </g>
          <path id="path-3" data-name="path" d="M428.849-18.715a9.251,9.251,0,0,0-9.256-9.256" transform="translate(-408.257 27.971)" fill="none" stroke="#fff" stroke-linecap="round" stroke-linejoin="round" stroke-width="2"/>
          <path id="path-4" data-name="path" d="M438.105-27.971a9.251,9.251,0,0,1-9.256,9.256A9.251,9.251,0,0,1,438.105-27.971Z" transform="translate(-408.257 27.971)" fill="#ffbf00" stroke="#fff" stroke-linecap="round" stroke-linejoin="round" stroke-width="2"/>
          <path id="path-5" data-name="path" d="M419.1-14.616s-5.781,2.117-6.523,9.685" transform="translate(-408.257 27.971)" fill="none" stroke="#fff" stroke-linecap="round" stroke-linejoin="round" stroke-width="2"/>
        </g>
        <g id="icon-banana" transform="translate(1718.608 8174)">
          <g id="path-6" data-name="path" transform="translate(-314.73 105.615)" fill="#ffbf00" stroke-linejoin="round">
            <path d="M 334.5159606933594 -56.83004379272461 C 332.1987609863281 -56.83004379272461 329.8952026367188 -57.10273361206055 327.6692504882812 -57.64053344726562 C 325.5009460449219 -58.16440200805664 323.3958129882812 -58.94204330444336 321.4123229980469 -59.95184326171875 C 320.5390319824219 -60.39687347412109 319.5314025878906 -60.63200378417969 318.4979858398438 -60.63200378417969 L 315.9240112304688 -60.63200378417969 C 314.7142333984375 -60.63200378417969 313.7300109863281 -61.6162223815918 313.7300109863281 -62.82600021362305 L 313.7300109863281 -63.66100311279297 C 313.7300109863281 -64.87133026123047 314.7142333984375 -65.85600280761719 315.9240112304688 -65.85600280761719 L 319.3219909667969 -65.85600280761719 C 324.0729675292969 -65.85600280761719 328.6798400878906 -66.78465270996094 333.0146484375 -68.61617279052734 C 337.2028503417969 -70.38574981689453 340.963623046875 -72.91976165771484 344.1924743652344 -76.14781951904297 C 347.4217834472656 -79.37631225585938 349.956787109375 -83.13686370849609 351.7270812988281 -87.32501220703125 C 353.5597534179688 -91.66078948974609 354.489013671875 -96.26946258544922 354.489013671875 -101.0230026245117 L 354.489013671875 -104.4209899902344 C 354.489013671875 -105.6307754516602 355.4732360839844 -106.614990234375 356.6830139160156 -106.614990234375 L 357.5069885253906 -106.614990234375 C 358.7167663574219 -106.614990234375 359.7009887695312 -105.6307754516602 359.7009887695312 -104.4209899902344 L 359.7009887695312 -101.8479995727539 C 359.7009887695312 -100.8126983642578 359.9350891113281 -99.80612182617188 360.3779602050781 -98.93704986572266 C 362.7910766601562 -94.20523834228516 363.8440551757812 -88.86669158935547 363.4229431152344 -83.49879455566406 C 362.8638916015625 -76.38843536376953 359.6483764648438 -69.73529052734375 354.3687133789062 -64.7647705078125 C 349.0928649902344 -59.79783248901367 342.2577209472656 -56.98208236694336 335.1224365234375 -56.83621215820312 C 334.9209899902344 -56.83212280273438 334.7169799804688 -56.83004379272461 334.5159606933594 -56.83004379272461 Z" stroke="none"/>
            <path d="M 356.6830139160156 -105.6150054931641 C 356.0239868164062 -105.6150054931641 355.489013671875 -105.0800018310547 355.489013671875 -104.4210052490234 L 355.489013671875 -101.0230026245117 C 355.489013671875 -81.0260009765625 339.3059997558594 -64.85600280761719 319.3219909667969 -64.85600280761719 L 315.9240112304688 -64.85600280761719 C 315.2650146484375 -64.85600280761719 314.7300109863281 -64.32099914550781 314.7300109863281 -63.66099548339844 L 314.7300109863281 -62.82600402832031 C 314.7300109863281 -62.16600036621094 315.2650146484375 -61.63200378417969 315.9240112304688 -61.63200378417969 L 318.4979858398438 -61.63200378417969 C 319.6669921875 -61.63200378417969 320.8240051269531 -61.37400054931641 321.8659973144531 -60.84300231933594 C 325.6580810546875 -58.91244506835938 329.9588623046875 -57.83003997802734 334.5159606933594 -57.83003997802734 C 334.7105712890625 -57.83003997802734 334.9064636230469 -57.83203125 335.1019897460938 -57.83599853515625 C 349.3359985351562 -58.12699890136719 361.3099975585938 -69.38300323486328 362.4259948730469 -83.57700347900391 C 362.8489990234375 -88.96900177001953 361.7369995117188 -94.07099914550781 359.4869995117188 -98.48300170898438 C 358.9570007324219 -99.52300262451172 358.7009887695312 -100.6800003051758 358.7009887695312 -101.8480072021484 L 358.7009887695312 -104.4210052490234 C 358.7009887695312 -105.0800018310547 358.1659851074219 -105.6150054931641 357.5069885253906 -105.6150054931641 L 356.6830139160156 -105.6150054931641 M 356.6830139160156 -107.6150054931641 L 357.5069885253906 -107.6150054931641 C 359.2681579589844 -107.6150054931641 360.7009887695312 -106.1821823120117 360.7009887695312 -104.4210052490234 L 360.7009887695312 -101.8480072021484 C 360.7009887695312 -100.9697875976562 360.8973999023438 -100.1202087402344 361.2689514160156 -99.39111328125 C 363.7657470703125 -94.49514007568359 364.8554077148438 -88.97245025634766 364.4198608398438 -83.42058563232422 C 363.8412780761719 -76.06178283691406 360.5151672363281 -69.17790222167969 355.05419921875 -64.03667449951172 C 349.5976257324219 -58.89960479736328 342.5263061523438 -55.98736572265625 335.1428833007812 -55.83641815185547 C 334.9343566894531 -55.83218383789062 334.7235107421875 -55.83003997802734 334.5159606933594 -55.83003997802734 C 332.1197509765625 -55.83003997802734 329.7371826171875 -56.11214447021484 327.4343872070312 -56.66850280761719 C 325.1903381347656 -57.21067047119141 323.0115661621094 -58.01551818847656 320.9586181640625 -59.06068420410156 C 320.2249145507812 -59.43456268310547 319.3742980957031 -59.63200378417969 318.4979858398438 -59.63200378417969 L 315.9240112304688 -59.63200378417969 C 314.162841796875 -59.63200378417969 312.7300109863281 -61.0648193359375 312.7300109863281 -62.82600402832031 L 312.7300109863281 -63.66099548339844 C 312.7300109863281 -65.42272186279297 314.162841796875 -66.85600280761719 315.9240112304688 -66.85600280761719 L 319.3219909667969 -66.85600280761719 C 323.9385375976562 -66.85600280761719 328.4144592285156 -67.75813293457031 332.6254272460938 -69.53732299804688 C 336.6943359375 -71.25649261474609 340.3481750488281 -73.71852111816406 343.4854736328125 -76.85501098632812 C 346.6231384277344 -79.99192047119141 349.0861206054688 -83.64553070068359 350.8059692382812 -87.71435546875 C 352.5863037109375 -91.92626190185547 353.489013671875 -96.40393829345703 353.489013671875 -101.0230026245117 L 353.489013671875 -104.4210052490234 C 353.489013671875 -106.1821823120117 354.9218444824219 -107.6150054931641 356.6830139160156 -107.6150054931641 Z" stroke="none" fill="#fff"/>
          </g>
          <path id="path-7" data-name="path" d="M333.557-61.242A25.547,25.547,0,0,0,359.118-86.8" transform="translate(-314.73 105.615)" fill="#ffbf00" stroke="#fff" stroke-linecap="round" stroke-linejoin="round" stroke-width="2"/>
        </g>
        <g id="icon-orange" transform="translate(1820.62 8172)">
          <path id="path-8" data-name="path" d="M1003.875-19.016a8.95,8.95,0,0,0-8.955-8.955" transform="translate(-983.443 27.971)" fill="#ffbf00" stroke="#fff" stroke-linecap="round" stroke-linejoin="round" stroke-width="2"/>
          <path id="path-9" data-name="path" d="M1012.83-27.971a8.95,8.95,0,0,1-8.955,8.955A8.95,8.95,0,0,1,1012.83-27.971Z" transform="translate(-983.443 27.971)" fill="#ffbf00" stroke="#fff" stroke-linecap="round" stroke-linejoin="round" stroke-width="2"/>
          <g id="ellipse-4" data-name="ellipse" transform="translate(0 10.19)" fill="#ffbf00" stroke="#fff" stroke-linejoin="round" stroke-width="2">
            <circle cx="20.432" cy="20.432" r="20.432" stroke="none"/>
            <circle cx="20.432" cy="20.432" r="21.432" fill="none"/>
          </g>
          <path id="path-10" data-name="path" d="M997.616-12.692a16.32,16.32,0,0,0-9.059,8.737" transform="translate(-983.443 27.971)" fill="#ffbf00" stroke="#fff" stroke-linecap="round" stroke-linejoin="round" stroke-width="2"/>
        </g>
        <g id="widthStrawberry" transform="translate(1617.382 8489.348)">
          <g id="path-11" data-name="path" transform="translate(-797.447 -561.738) rotate(45)" fill="#ffbf00" stroke-linejoin="round">
            <path d="M 997.6160278320312 -145.3459930419922 C 995.2620849609375 -145.3459930419922 992.9266967773438 -146.2845611572266 990.6746826171875 -148.1356353759766 C 988.7283325195312 -149.7354736328125 986.9192504882812 -151.9473266601562 985.297607421875 -154.7097473144531 C 982.33154296875 -159.7624816894531 980.4149780273438 -166.0771026611328 980.4149780273438 -170.7969970703125 C 980.4149780273438 -173.1185607910156 980.869873046875 -175.3712310791016 981.76708984375 -177.4924621582031 C 982.6334228515625 -179.5408630371094 983.87353515625 -181.3803100585938 985.452880859375 -182.959716796875 C 987.0322875976562 -184.5391693115234 988.8717041015625 -185.7793273925781 990.9201049804688 -186.6457672119141 C 993.0414428710938 -187.5430297851562 995.2942504882812 -187.9980010986328 997.6160278320312 -187.9980010986328 C 999.9375610351562 -187.9980010986328 1002.190246582031 -187.5430297851562 1004.3115234375 -186.645751953125 C 1006.35986328125 -185.7793121337891 1008.199340820312 -184.5391540527344 1009.778747558594 -182.9597320556641 C 1011.358154296875 -181.3803100585938 1012.598327636719 -179.5408630371094 1013.464782714844 -177.4924926757812 C 1014.362060546875 -175.3712310791016 1014.817016601562 -173.1185302734375 1014.817016601562 -170.7969970703125 C 1014.817016601562 -166.0772705078125 1012.900329589844 -159.7626342773438 1009.934020996094 -154.7097320556641 C 1008.312316894531 -151.9473419189453 1006.503234863281 -149.7355041503906 1004.556945800781 -148.1356506347656 C 1002.304992675781 -146.2845611572266 999.9697265625 -145.3459930419922 997.6160278320312 -145.3459930419922 Z" stroke="none"/>
            <path d="M 997.6160278320312 -186.9980010986328 C 988.6680297851562 -186.9980010986328 981.4149780273438 -179.7440032958984 981.4149780273438 -170.7969970703125 C 981.4149780273438 -161.8489990234375 988.6680297851562 -146.3459930419922 997.6160278320312 -146.3459930419922 C 1006.56298828125 -146.3459930419922 1013.817016601562 -161.8489990234375 1013.817016601562 -170.7969970703125 C 1013.817016601562 -179.7440032958984 1006.56298828125 -186.9980010986328 997.6160278320312 -186.9980010986328 M 997.6160278320312 -188.9980010986328 C 1000.072143554688 -188.9980010986328 1002.455871582031 -188.5164642333984 1004.701049804688 -187.5667572021484 C 1006.86865234375 -186.64990234375 1008.814880371094 -185.3377838134766 1010.48583984375 -183.6668395996094 C 1012.156799316406 -181.9959106445312 1013.468933105469 -180.0496215820312 1014.3857421875 -177.882080078125 C 1015.33544921875 -175.6368713378906 1015.817016601562 -173.2531127929688 1015.817016601562 -170.7969970703125 C 1015.817016601562 -168.3896179199219 1015.34716796875 -165.5630187988281 1014.458190917969 -162.6227874755859 C 1013.568420410156 -159.6798706054688 1012.302185058594 -156.7685241699219 1010.79638671875 -154.2034759521484 C 1007.064697265625 -147.8467864990234 1002.3837890625 -144.3459930419922 997.6160278320312 -144.3459930419922 C 992.8478393554688 -144.3459930419922 988.1668090820312 -147.8468017578125 984.4352416992188 -154.2035064697266 C 982.9295043945312 -156.7685089111328 981.663330078125 -159.6798706054688 980.7736206054688 -162.6228332519531 C 979.8848266601562 -165.5630035400391 979.4149780273438 -168.3895874023438 979.4149780273438 -170.7969970703125 C 979.4149780273438 -173.2531127929688 979.896484375 -175.6368560791016 980.8460693359375 -177.8820190429688 C 981.7628784179688 -180.0496063232422 983.0748901367188 -181.9958953857422 984.7457275390625 -183.6668243408203 C 986.4166870117188 -185.3377838134766 988.3629150390625 -186.64990234375 990.530517578125 -187.5667572021484 C 992.7758178710938 -188.5164642333984 995.15966796875 -188.9980010986328 997.6160278320312 -188.9980010986328 Z" stroke="none" fill="#fff"/>
          </g>
          <line id="line-3" data-name="line" y2="1.352" transform="translate(21.796 17.935) rotate(45)" fill="none" stroke="#fff" stroke-linecap="round" stroke-linejoin="round" stroke-width="2"/>
          <line id="line-4" data-name="line" y2="1.352" transform="translate(33.721 29.86) rotate(45)" fill="none" stroke="#fff" stroke-linecap="round" stroke-linejoin="round" stroke-width="2"/>
          <line id="line-5" data-name="line" y2="1.352" transform="translate(14.803 30.938) rotate(45)" fill="none" stroke="#fff" stroke-linecap="round" stroke-linejoin="round" stroke-width="2"/>
          <line id="line-6" data-name="line" y2="1.352" transform="translate(20.719 36.854) rotate(45)" fill="none" stroke="#fff" stroke-linecap="round" stroke-linejoin="round" stroke-width="2"/>
          <line id="line-7" data-name="line" y2="1.352" transform="translate(23.677 27.98) rotate(45)" fill="none" stroke="#fff" stroke-linecap="round" stroke-linejoin="round" stroke-width="2"/>
          <g id="path-12" data-name="path" transform="translate(-797.447 -561.738) rotate(45)" fill="#ffbf00" stroke-linejoin="round">
            <path d="M 997.615966796875 -172.0722503662109 C 996.9945068359375 -172.0722503662109 996.4368286132812 -172.4377593994141 996.1607055664062 -173.0261535644531 L 993.5113525390625 -178.6730499267578 L 988.7321166992188 -176.5239715576172 C 988.5172119140625 -176.4272155761719 988.2914428710938 -176.3780822753906 988.0615234375 -176.3780822753906 C 987.445068359375 -176.3780822753906 986.8753662109375 -176.7422180175781 986.6101684570312 -177.3057708740234 C 986.3487548828125 -177.8612976074219 986.4320678710938 -178.5033721923828 986.8275146484375 -178.9814147949219 L 989.6522216796875 -182.3930053710938 L 986.9229736328125 -182.3930053710938 C 986.164794921875 -182.3930053710938 985.5204467773438 -182.9055480957031 985.3560791015625 -183.6394195556641 C 985.1929931640625 -184.3676147460938 985.5538330078125 -185.1000061035156 986.2334594726562 -185.4205017089844 C 989.86279296875 -187.1330871582031 993.6925048828125 -188.0014953613281 997.615966796875 -188.0014953613281 C 1001.539489746094 -188.0014953613281 1005.369201660156 -187.1330871582031 1008.998779296875 -185.4203796386719 C 1009.67822265625 -185.1000061035156 1010.039001464844 -184.3675842285156 1009.875915527344 -183.639404296875 C 1009.711547851562 -182.9055480957031 1009.067260742188 -182.3930053710938 1008.309020996094 -182.3930053710938 L 1005.578918457031 -182.3930053710938 L 1008.404113769531 -178.9818572998047 C 1008.799865722656 -178.5034790039062 1008.883056640625 -177.8615264892578 1008.621704101562 -177.3060455322266 C 1008.356384277344 -176.7423248291016 1007.78662109375 -176.3780822753906 1007.170166015625 -176.3780822753906 C 1006.940063476562 -176.3780822753906 1006.714233398438 -176.4273071289062 1006.498901367188 -176.5243835449219 L 1001.720642089844 -178.6730499267578 L 999.0713500976562 -173.0262603759766 C 998.795166015625 -172.4377593994141 998.2374877929688 -172.0722503662109 997.615966796875 -172.0722503662109 Z" stroke="none"/>
            <path d="M 997.615966796875 -173.0722503662109 C 997.831787109375 -173.0722503662109 998.0475463867188 -173.1985015869141 998.166015625 -173.4510040283203 L 1000.981018066406 -179.4510040283203 C 1001.082458496094 -179.667724609375 1001.301574707031 -179.7955474853516 1001.53076171875 -179.7955474853516 C 1001.615600585938 -179.7955474853516 1001.701843261719 -179.7780303955078 1001.783996582031 -179.7409973144531 L 1006.909973144531 -177.4360046386719 C 1006.998596191406 -177.3960418701172 1007.08642578125 -177.3780822753906 1007.170166015625 -177.3780822753906 C 1007.63525390625 -177.3780822753906 1007.974670410156 -177.93212890625 1007.633972167969 -178.343994140625 L 1004.2490234375 -182.4309997558594 C 1003.929016113281 -182.8170013427734 1004.210998535156 -183.3930053710938 1004.719970703125 -183.3930053710938 L 1008.309020996094 -183.3930053710938 C 1008.952026367188 -183.3930053710938 1009.151000976562 -184.2429962158203 1008.572021484375 -184.5160064697266 C 1005.060546875 -186.1730041503906 1001.338256835938 -187.0014953613281 997.6160278320312 -187.0014953613281 C 993.8937377929688 -187.0014953613281 990.1715087890625 -186.1730041503906 986.6599731445312 -184.5160064697266 C 986.0809936523438 -184.2429962158203 986.280029296875 -183.3930053710938 986.9229736328125 -183.3930053710938 L 990.5120239257812 -183.3930053710938 C 991.02099609375 -183.3930053710938 991.302001953125 -182.8170013427734 990.9819946289062 -182.4309997558594 L 987.5980224609375 -178.343994140625 C 987.25732421875 -177.9321594238281 987.5960693359375 -177.3780822753906 988.0615234375 -177.3780822753906 C 988.1453247070312 -177.3780822753906 988.2332153320312 -177.3960266113281 988.322021484375 -177.4360046386719 L 993.447998046875 -179.7409973144531 C 993.5301513671875 -179.7780151367188 993.6163330078125 -179.7955474853516 993.7011108398438 -179.7955474853516 C 993.9300537109375 -179.7955474853516 994.1488647460938 -179.6677551269531 994.2509765625 -179.4510040283203 L 997.0659790039062 -173.4510040283203 C 997.1844482421875 -173.1985015869141 997.4002075195312 -173.0722503662109 997.615966796875 -173.0722503662109 M 997.615966796875 -171.0722503662109 C 996.6026000976562 -171.0722503662109 995.6980590820312 -171.6581573486328 995.2554321289062 -172.6013031005859 L 993.0240478515625 -177.3574523925781 L 989.1422729492188 -175.6119232177734 C 988.7977905273438 -175.4568634033203 988.4339599609375 -175.3780822753906 988.0615234375 -175.3780822753906 C 987.0595703125 -175.3780822753906 986.1347045898438 -175.9676055908203 985.7053833007812 -176.8799896240234 C 985.2772827148438 -177.7897033691406 985.4119873046875 -178.8391723632812 986.0570068359375 -179.6188354492188 L 987.5259399414062 -181.3930053710938 L 986.9229736328125 -181.3930053710938 C 985.6932373046875 -181.3930053710938 984.6476440429688 -182.2268981933594 984.3802490234375 -183.4208831787109 C 984.1141357421875 -184.6091918945312 984.7008666992188 -185.8034057617188 985.8070068359375 -186.3249969482422 C 989.570556640625 -188.1009063720703 993.5438232421875 -189.0014953613281 997.615966796875 -189.0014953613281 C 1001.688171386719 -189.0014953613281 1005.661437988281 -188.1009063720703 1009.425537109375 -186.3247528076172 C 1010.531188964844 -185.8033752441406 1011.117858886719 -184.6091766357422 1010.851745605469 -183.4208679199219 C 1010.584350585938 -182.2268829345703 1009.538757324219 -181.3930053710938 1008.309020996094 -181.3930053710938 L 1007.705627441406 -181.3930053710938 L 1009.17431640625 -179.6197052001953 C 1009.819885253906 -178.8392791748047 1009.95458984375 -177.7899322509766 1009.526489257812 -176.8802642822266 C 1009.097106933594 -175.9677276611328 1008.172180175781 -175.3780822753906 1007.170166015625 -175.3780822753906 C 1006.797424316406 -175.3780822753906 1006.433288574219 -175.45703125 1006.087951660156 -175.6127471923828 L 1002.207946777344 -177.3574523925781 L 999.9766235351562 -172.6015167236328 C 999.533935546875 -171.6581573486328 998.62939453125 -171.0722503662109 997.615966796875 -171.0722503662109 Z" stroke="none" fill="#fff"/>
          </g>
        </g>
        <g id="icon-kiwi" transform="translate(1716.7 8486)">
          <line id="line-8" data-name="line" x1="2.886" y1="2.886" transform="translate(40.317 11.282)" fill="#e6e6e6" stroke="#fff" stroke-linejoin="round" stroke-width="2"/>
          <path id="path-13" data-name="path" d="M1099.505-181.394a20.531,20.531,0,0,1,0,29.035,20.531,20.531,0,0,1-29.035,0" transform="translate(-1056.302 195.562)" fill="#ffbf00" stroke="#fff" stroke-linejoin="round" stroke-width="2"/>
          <ellipse id="ellipse-5" data-name="ellipse" cx="20.531" cy="15.956" rx="20.531" ry="15.956" transform="translate(0 29.035) rotate(-45)" fill="#ffbf00" stroke="#fff" stroke-linejoin="round" stroke-width="2"/>
          <line id="line-9" data-name="line" x2="0.753" y2="0.753" transform="translate(19.187 19.186)" fill="none" stroke="#fff" stroke-linecap="round" stroke-linejoin="round" stroke-width="2"/>
          <line id="line-10" data-name="line" x2="0.753" y2="0.753" transform="translate(31.661 31.661)" fill="none" stroke="#fff" stroke-linecap="round" stroke-linejoin="round" stroke-width="2"/>
          <line id="line-11" data-name="line" x1="0.968" y2="0.968" transform="translate(33.342 17.29)" fill="none" stroke="#fff" stroke-linecap="round" stroke-linejoin="round" stroke-width="2"/>
          <line id="line-12" data-name="line" x1="0.968" y2="0.968" transform="translate(17.29 33.342)" fill="none" stroke="#fff" stroke-linecap="round" stroke-linejoin="round" stroke-width="2"/>
          <line id="line-13" data-name="line" x1="0.153" y2="1.217" transform="translate(26.988 15.106)" fill="none" stroke="#fff" stroke-linecap="round" stroke-linejoin="round" stroke-width="2"/>
          <line id="line-14" data-name="line" x1="0.153" y2="1.217" transform="translate(24.459 35.277)" fill="none" stroke="#fff" stroke-linecap="round" stroke-linejoin="round" stroke-width="2"/>
          <line id="line-15" data-name="line" x1="1.217" y2="0.153" transform="translate(35.277 24.459)" fill="none" stroke="#fff" stroke-linecap="round" stroke-linejoin="round" stroke-width="2"/>
          <line id="line-16" data-name="line" x1="1.217" y2="0.153" transform="translate(15.106 26.988)" fill="none" stroke="#fff" stroke-linecap="round" stroke-linejoin="round" stroke-width="2"/>
          <line id="line-17" data-name="line" x1="2.886" y1="2.886" transform="translate(11.282 40.318)" fill="#e6e6e6" stroke="#fff" stroke-linejoin="round" stroke-width="2"/>
        </g>
        <g id="icon-peach" transform="translate(1824 8491.957)">
          <ellipse id="ellipse-6" data-name="ellipse" cx="13.859" cy="18.648" rx="13.859" ry="18.648" transform="translate(12.429 7.608)" fill="#ffbf00" stroke="#fff" stroke-linecap="round" stroke-linejoin="round" stroke-width="2"/>
          <path id="path-14" data-name="path" d="M349.187,78.043q.217.509.411,1.036a23.988,23.988,0,0,1,1.428,8.253c0,10.3-6.2,18.648-13.859,18.648s-13.859-8.349-13.859-18.648,6.2-18.649,13.859-18.649a11.022,11.022,0,0,1,6.216,1.977" transform="translate(-323.308 -61.075)" fill="#ffbf00" stroke="#fff" stroke-linecap="round" stroke-linejoin="round" stroke-width="2"/>
          <path id="path-15" data-name="path" d="M343.235,69.493a9.412,9.412,0,0,0-9.418-9.418" transform="translate(-323.308 -60.075)" fill="#ffbf00" stroke="#fff" stroke-linecap="round" stroke-linejoin="round" stroke-width="2"/>
          <path id="path-16" data-name="path" d="M352.652,60.075a9.412,9.412,0,0,1-9.417,9.418A9.412,9.412,0,0,1,352.652,60.075Z" transform="translate(-323.308 -60.075)" fill="#ffbf00" stroke="#fff" stroke-linecap="round" stroke-linejoin="round" stroke-width="2"/>
          <path id="path-17" data-name="path" d="M334.083,74.446s-4.744,2.359-5.57,9.659" transform="translate(-323.308 -61.075)" fill="#ffbf00" stroke="#fff" stroke-linecap="round" stroke-linejoin="round" stroke-width="2"/>
        </g>
        <g id="icon-avocado" transform="translate(1819.808 8331.957)">
          <g id="path-18" data-name="path" transform="translate(-492.791 103.661)" fill="#ffbf00" stroke-linejoin="round">
            <path d="M 509.2381286621094 -58.61874771118164 C 506.9724731445312 -58.61874771118164 504.763671875 -59.04859924316406 502.6730651855469 -59.89635848999023 C 500.5081176757812 -60.77426910400391 498.5660705566406 -62.063720703125 496.90087890625 -63.72888946533203 C 495.2357177734375 -65.39405822753906 493.9462585449219 -67.33609771728516 493.068359375 -69.50105285644531 C 492.2206115722656 -71.59163665771484 491.7907409667969 -73.80040740966797 491.7907409667969 -76.06600189208984 C 491.7907409667969 -78.33158874511719 492.2206115722656 -80.54035949707031 493.068359375 -82.63095092773438 C 493.9462585449219 -84.7958984375 495.2357177734375 -86.73793792724609 496.90087890625 -88.40310668945312 C 498.5935974121094 -90.09581756591797 500.6253051757812 -91.42390441894531 502.8448486328125 -92.29830169677734 L 502.7830810546875 -92.36068725585938 L 504.3997497558594 -92.82978820800781 C 506.2828369140625 -93.37320709228516 508.0561828613281 -94.21237945556641 509.6705017089844 -95.32399749755859 C 511.2848205566406 -96.43560791015625 512.7015380859375 -97.79312133789062 513.88134765625 -99.35880279541016 L 514.6103515625 -100.3262405395508 L 514.6498413085938 -100.282470703125 C 514.7991333007812 -100.4505767822266 514.9478149414062 -100.6086349487305 515.0989990234375 -100.7602310180664 C 517.6151123046875 -103.2763061523438 520.9593505859375 -104.6614990234375 524.5165405273438 -104.6614990234375 C 528.0736694335938 -104.6614990234375 531.4179077148438 -103.2763061523438 533.93310546875 -100.7611083984375 C 536.4483032226562 -98.24590301513672 537.83349609375 -94.90167999267578 537.83349609375 -91.34449768066406 C 537.83349609375 -87.78732299804688 536.4483032226562 -84.44309997558594 533.93310546875 -81.92788696289062 C 533.7562866210938 -81.75103759765625 533.5704956054688 -81.57767486572266 533.3703002929688 -81.40300750732422 L 533.40380859375 -81.36590576171875 L 532.5306396484375 -80.70823669433594 C 530.965087890625 -79.52899169921875 529.6076049804688 -78.11257934570312 528.4959716796875 -76.49832916259766 C 527.3843994140625 -74.88417816162109 526.5452270507812 -73.11090087890625 526.0018310546875 -71.22773742675781 L 525.5333862304688 -69.60440063476562 L 525.46875 -69.66869354248047 C 524.5942993164062 -67.45002746582031 523.2671508789062 -65.41994476318359 521.5761108398438 -63.72888946533203 C 519.91064453125 -62.06367874145508 517.9684448242188 -60.77425003051758 515.8033447265625 -59.8963508605957 C 513.712646484375 -59.04859924316406 511.5037841796875 -58.61874771118164 509.2381286621094 -58.61874771118164 Z" stroke="none"/>
            <path d="M 509.2381286621094 -59.61874771118164 C 513.447509765625 -59.61874771118164 517.6570434570312 -61.2244987487793 520.8690185546875 -64.43599700927734 C 522.9080200195312 -66.47499847412109 524.2940063476562 -68.91799926757812 525.0390014648438 -71.50699615478516 L 525.041015625 -71.50499725341797 C 526.1929931640625 -75.49700164794922 528.6099853515625 -79.00699615478516 531.9290161132812 -81.50699615478516 L 531.9199829101562 -81.51699829101562 C 532.3720092773438 -81.85800170898438 532.8140258789062 -82.22299957275391 533.2260131835938 -82.63500213623047 C 538.0360107421875 -87.44499969482422 538.0360107421875 -95.24399566650391 533.2260131835938 -100.0540008544922 C 530.8209838867188 -102.4589996337891 527.6687622070312 -103.6614990234375 524.5164794921875 -103.6614990234375 C 521.3642578125 -103.6614990234375 518.2119750976562 -102.4589996337891 515.8070068359375 -100.0540008544922 C 515.39501953125 -99.64099884033203 515.031005859375 -99.19999694824219 514.6890258789062 -98.74700164794922 L 514.6799926757812 -98.75699615478516 C 512.1790161132812 -95.43799591064453 508.6690063476562 -93.02099609375 504.677001953125 -91.86899566650391 L 504.6789855957031 -91.86699676513672 C 502.0899963378906 -91.12200164794922 499.6480102539062 -89.73600006103516 497.6080017089844 -87.69599914550781 C 491.1849975585938 -81.27300262451172 491.1849975585938 -70.85900115966797 497.6080017089844 -64.43599700927734 C 500.8194885253906 -61.2244987487793 505.0287475585938 -59.61874771118164 509.2381286621094 -59.61874771118164 M 509.2381286621094 -57.61874771118164 C 506.8430786132812 -57.61874771118164 504.5078125 -58.07326126098633 502.2973022460938 -58.96965026855469 C 500.0076293945312 -59.89812850952148 497.9541015625 -61.26145935058594 496.1937866210938 -63.02178955078125 C 494.4334716796875 -64.78209686279297 493.0701293945312 -66.83560943603516 492.1416625976562 -69.12525939941406 C 491.2452697753906 -71.33579254150391 490.7907409667969 -73.67098999023438 490.7907409667969 -76.06600189208984 C 490.7907409667969 -78.46100616455078 491.2452697753906 -80.79621124267578 492.1416625976562 -83.00673675537109 C 493.0701293945312 -85.29638671875 494.4334716796875 -87.34989929199219 496.1937866210938 -89.11020660400391 C 498.3695678710938 -91.28597259521484 501.0750122070312 -92.89198303222656 504.0233459472656 -93.75917053222656 C 504.0559692382812 -93.77045440673828 504.0890808105469 -93.78095245361328 504.1224670410156 -93.79058837890625 C 505.9020080566406 -94.30412292480469 507.5778198242188 -95.09713745117188 509.1033325195312 -96.14762115478516 C 510.62890625 -97.19811248779297 511.9677734375 -98.48098754882812 513.0827026367188 -99.96060943603516 C 513.1320190429688 -100.0260925292969 513.18505859375 -100.0880813598633 513.2413330078125 -100.1463623046875 C 513.635498046875 -100.655517578125 514.0045166015625 -101.078987121582 514.3910522460938 -101.4664611816406 C 517.0968627929688 -104.1723022460938 520.6921997070312 -105.6614990234375 524.5165405273438 -105.6614990234375 C 528.3408203125 -105.6614990234375 531.9361572265625 -104.1723022460938 534.6401977539062 -101.4682083129883 C 537.3442993164062 -98.76412963867188 538.83349609375 -95.16879272460938 538.83349609375 -91.34449768066406 C 538.83349609375 -87.52021026611328 537.3442993164062 -83.92486572265625 534.6401977539062 -81.22078704833984 C 534.2526245117188 -80.83314514160156 533.8287963867188 -80.46345520019531 533.319091796875 -80.06901550292969 C 533.2604370117188 -80.01235961914062 533.1981811523438 -79.95907592773438 533.13232421875 -79.90947723388672 C 531.65283203125 -78.79509735107422 530.3700561523438 -77.45659637451172 529.319580078125 -75.93115997314453 C 528.2691650390625 -74.40579986572266 527.4761352539062 -72.73005676269531 526.9625854492188 -70.95047760009766 C 526.9529418945312 -70.91690826416016 526.9423828125 -70.88372039794922 526.9310302734375 -70.85092926025391 C 526.0635986328125 -67.90167236328125 524.4580688476562 -65.19661712646484 522.283203125 -63.02178955078125 C 520.5225830078125 -61.26139068603516 518.4688720703125 -59.89809036254883 516.1791381835938 -58.96963119506836 C 513.9684448242188 -58.07324981689453 511.6331787109375 -57.61874771118164 509.2381286621094 -57.61874771118164 Z" stroke="none" fill="#fff"/>
          </g>
          <g id="ellipse-7" data-name="ellipse" transform="translate(8.991 20.138)" fill="#ffbf00" stroke="#fff" stroke-linejoin="round" stroke-width="2">
            <circle cx="7.458" cy="7.458" r="7.458" stroke="none"/>
            <circle cx="7.458" cy="7.458" r="8.458" fill="none"/>
          </g>
          <path id="path-19" data-name="path" d="M529.929-98.129a7.573,7.573,0,0,0-10.715,0" transform="translate(-492.791 103.661)" fill="#ffbf00" stroke="#fff" stroke-linecap="round" stroke-linejoin="round" stroke-width="2"/>
        </g>
        <g id="icon-pear" transform="translate(1709.808 8321.809)">
          <path id="path-20" data-name="path" d="M515.417-26.774a8.95,8.95,0,0,0-8.955-8.956" transform="translate(-334.861 -332.858) rotate(45)" fill="#ffbf00" stroke="#fff" stroke-linecap="round" stroke-linejoin="round" stroke-width="2"/>
          <path id="path-21" data-name="path" d="M524.373-35.73a8.951,8.951,0,0,1-8.956,8.956A8.951,8.951,0,0,1,524.373-35.73Z" transform="translate(-334.861 -332.858) rotate(45)" fill="#ffbf00" stroke="#fff" stroke-linecap="round" stroke-linejoin="round" stroke-width="2"/>
          <g id="path-22" data-name="path" transform="translate(-334.861 -332.858) rotate(45)" fill="#ffbf00" stroke-linejoin="round">
            <path d="M 515.4169921875 26.40400123596191 C 513.0619506835938 26.40400123596191 510.77685546875 25.94254112243652 508.6251220703125 25.03244018554688 C 506.5473327636719 24.15360069274902 504.6814575195312 22.89567947387695 503.0794067382812 21.29360961914062 C 501.4773254394531 19.6915397644043 500.2193908691406 17.82567977905273 499.3405456542969 15.74785995483398 C 498.4304504394531 13.59614086151123 497.968994140625 11.31103038787842 497.968994140625 8.956000328063965 C 497.968994140625 6.565793037414551 498.4656372070312 4.193349838256836 499.4151000976562 2.008000373840332 L 499.3268432617188 2.008000373840332 L 500.1425170898438 0.5247704386711121 C 501.089599609375 -1.191139578819275 501.75 -3.038639545440674 502.1053161621094 -4.966389656066895 C 502.4605712890625 -6.893759727478027 502.5024108886719 -8.855429649353027 502.229736328125 -10.79689979553223 L 502.0697326660156 -11.93599987030029 L 502.1235046386719 -11.93599987030029 C 502.1076965332031 -12.18265342712402 502.1000061035156 -12.4189624786377 502.1000061035156 -12.65100002288818 C 502.1000061035156 -16.20785903930664 503.4852600097656 -19.5519905090332 506.0006408691406 -22.06735992431641 C 508.5159912109375 -24.58271980285645 511.8601379394531 -25.9680004119873 515.4169921875 -25.9680004119873 C 518.9742431640625 -25.9680004119873 522.3184814453125 -24.58271980285645 524.833740234375 -22.06733894348145 C 527.348876953125 -19.55208015441895 528.7340087890625 -16.20796012878418 528.7340087890625 -12.65100002288818 C 528.7340087890625 -12.4174747467041 528.7264404296875 -12.18111610412598 528.7108764648438 -11.93599987030029 L 528.7642822265625 -11.93599987030029 L 528.6043090820312 -10.79689979553223 C 528.3316040039062 -8.855719566345215 528.3736572265625 -6.894089698791504 528.7291870117188 -4.966509819030762 C 529.084716796875 -3.03892970085144 529.7453002929688 -1.191399574279785 530.6925048828125 0.5247704386711121 L 531.5111694335938 2.008000373840332 L 531.4197998046875 2.008000373840332 C 532.3687133789062 4.192613124847412 532.864990234375 6.565014839172363 532.864990234375 8.956000328063965 C 532.864990234375 11.31103038787842 532.4035034179688 13.59614086151123 531.493408203125 15.74785995483398 C 530.6145629882812 17.82567977905273 529.356689453125 19.6915397644043 527.7545776367188 21.29360961914062 C 526.1525268554688 22.89567947387695 524.2866821289062 24.15360069274902 522.2088623046875 25.03244018554688 C 520.05712890625 25.94254112243652 517.7720336914062 26.40400123596191 515.4169921875 26.40400123596191 Z" stroke="none"/>
            <path d="M 515.4169921875 25.40400123596191 C 524.5009765625 25.40400123596191 531.864990234375 18.04000091552734 531.864990234375 8.956000328063965 C 531.864990234375 6.072000503540039 531.1179809570312 3.36400032043457 529.8140258789062 1.008000373840332 L 529.8170166015625 1.008000373840332 C 527.8090209960938 -2.62999963760376 527.0360107421875 -6.820999622344971 527.614013671875 -10.93599987030029 L 527.6010131835938 -10.93599987030029 C 527.6799926757812 -11.49799919128418 527.7340087890625 -12.0669994354248 527.7340087890625 -12.65100002288818 C 527.7340087890625 -19.45299911499023 522.219970703125 -24.9680004119873 515.4169921875 -24.9680004119873 C 508.614990234375 -24.9680004119873 503.1000061035156 -19.45299911499023 503.1000061035156 -12.65100002288818 C 503.1000061035156 -12.0669994354248 503.1549987792969 -11.49799919128418 503.2330017089844 -10.93599987030029 L 503.2200012207031 -10.93599987030029 C 503.7980041503906 -6.820999622344971 503.0260009765625 -2.62999963760376 501.0180053710938 1.008000373840332 L 501.02099609375 1.008000373840332 C 499.7170104980469 3.36400032043457 498.968994140625 6.072000503540039 498.968994140625 8.956000328063965 C 498.968994140625 18.04000091552734 506.3330078125 25.40400123596191 515.4169921875 25.40400123596191 M 515.4169921875 27.40400123596191 C 512.9274291992188 27.40400123596191 510.51123046875 26.91596031188965 508.235595703125 25.95345115661621 C 506.03857421875 25.02419090270996 504.0658569335938 23.69429969787598 502.3722839355469 22.00070953369141 C 500.6787109375 20.30713081359863 499.3488159179688 18.33443069458008 498.4195556640625 16.13742065429688 C 497.45703125 13.86177062988281 496.968994140625 11.44559001922607 496.968994140625 8.956000328063965 C 496.968994140625 5.880569934844971 497.7463684082031 2.833387136459351 499.2181396484375 0.1359161734580994 C 499.2335510253906 0.104151226580143 499.2498474121094 0.07266160845756531 499.2669982910156 0.04154041036963463 C 500.1620178222656 -1.580009579658508 500.7861022949219 -3.325909614562988 501.1218872070312 -5.147659778594971 C 501.4576110839844 -6.969109535217285 501.4971618652344 -8.822989463806152 501.2394409179688 -10.65780925750732 C 501.2281494140625 -10.73829460144043 501.2218017578125 -10.81887722015381 501.2203369140625 -10.89921379089355 C 501.138427734375 -11.54452037811279 501.1000061035156 -12.10641574859619 501.1000061035156 -12.65100002288818 C 501.1000061035156 -16.4749698638916 502.5892944335938 -20.07021903991699 505.2935180664062 -22.77445983886719 C 507.9977722167969 -25.47871017456055 511.593017578125 -26.9680004119873 515.4169921875 -26.9680004119873 C 519.2413330078125 -26.9680004119873 522.8367309570312 -25.47868919372559 525.5408935546875 -22.77442932128906 C 528.244873046875 -20.07029914855957 529.7340087890625 -16.47505950927734 529.7340087890625 -12.65100002288818 C 529.7340087890625 -12.09884738922119 529.695556640625 -11.53592777252197 529.6136474609375 -10.89632129669189 C 529.612060546875 -10.81695556640625 529.605712890625 -10.73731422424316 529.5945434570312 -10.65780925750732 C 529.3369140625 -8.823319435119629 529.3765869140625 -6.96951961517334 529.7125854492188 -5.147899627685547 C 530.048583984375 -3.326279640197754 530.6728515625 -1.580299615859985 531.5679931640625 0.04154041036963463 C 531.5852661132812 0.07277505099773407 531.6015625 0.1043306440114975 531.6170043945312 0.1362136155366898 C 533.0879516601562 2.832422733306885 533.864990234375 5.879603862762451 533.864990234375 8.956000328063965 C 533.864990234375 11.44559001922607 533.376953125 13.86177062988281 532.4144287109375 16.13742065429688 C 531.4851684570312 18.33443069458008 530.1552734375 20.30713081359863 528.4617309570312 22.00070953369141 C 526.7681274414062 23.69429969787598 524.79541015625 25.02419090270996 522.598388671875 25.95345115661621 C 520.32275390625 26.91596031188965 517.9065551757812 27.40400123596191 515.4169921875 27.40400123596191 Z" stroke="none" fill="#fff"/>
          </g>
          <path id="path-23" data-name="path" d="M514.728-20.486a7.573,7.573,0,0,0-7.577,7.577" transform="translate(-334.861 -332.858) rotate(45)" fill="#ffbf00" stroke="#fff" stroke-linecap="round" stroke-linejoin="round" stroke-width="2"/>
        </g>
        <g id="icon-lemon" transform="translate(1624.824 8335.324)">
          <g id="path-24" data-name="path" transform="translate(-1071.376 98.129)" fill="#ffbf00" stroke-linejoin="round">
            <path d="M 1074.755615234375 -60.95380020141602 C 1073.20703125 -60.95380020141602 1071.796630859375 -61.75928115844727 1070.982666015625 -63.10847091674805 C 1070.20166015625 -64.40297698974609 1070.17626953125 -66.09694671630859 1070.918212890625 -67.42397308349609 C 1071.137817382812 -67.81745910644531 1071.409301757812 -68.17105102539062 1071.724487304688 -68.47447967529297 C 1072.2197265625 -68.95034027099609 1072.371704101562 -69.58625793457031 1072.131713867188 -70.17613983154297 C 1069.411499023438 -76.85083770751953 1071.720703125 -85.47196197509766 1077.8779296875 -91.62816619873047 C 1082.243408203125 -95.99434661865234 1087.889770507812 -98.49855041503906 1093.369262695312 -98.49855041503906 C 1095.493530273438 -98.49855041503906 1097.499145507812 -98.12021636962891 1099.330322265625 -97.37406921386719 C 1099.5107421875 -97.30068206787109 1099.697631835938 -97.26336669921875 1099.885498046875 -97.26338195800781 C 1100.3037109375 -97.26338958740234 1100.710571289062 -97.44699859619141 1101.031372070312 -97.78038024902344 C 1101.3359375 -98.09691619873047 1101.689575195312 -98.36866760253906 1102.082275390625 -98.58804321289062 C 1102.716064453125 -98.94206237792969 1103.443481445312 -99.12918853759766 1104.18603515625 -99.12918853759766 C 1104.975830078125 -99.12918853759766 1105.740844726562 -98.91915893554688 1106.398315429688 -98.52181243896484 C 1107.581787109375 -97.80812072753906 1108.355224609375 -96.62702178955078 1108.51953125 -95.28188323974609 C 1108.683715820312 -93.93702697753906 1108.229125976562 -92.6165771484375 1107.272216796875 -91.65911865234375 L 1107.267700195312 -91.65457153320312 L 1107.26318359375 -91.65009307861328 C 1106.761352539062 -91.16078186035156 1106.611083984375 -90.40068817138672 1106.880126953125 -89.71366119384766 C 1107.51318359375 -88.09494781494141 1107.863403320312 -86.33653259277344 1107.921264648438 -84.48680114746094 C 1107.97802734375 -82.67173767089844 1107.752319335938 -80.80513000488281 1107.25048828125 -78.93881988525391 C 1106.21533203125 -75.08959197998047 1104.074462890625 -71.46119689941406 1101.059204101562 -68.44589233398438 C 1096.692993164062 -64.07972717285156 1091.046630859375 -61.57563018798828 1085.56787109375 -61.57563018798828 C 1085.567504882812 -61.57563018798828 1085.567260742188 -61.57563018798828 1085.56689453125 -61.57563018798828 C 1083.515869140625 -61.57572937011719 1081.573120117188 -61.92903900146484 1079.792602539062 -62.62575149536133 C 1079.567993164062 -62.71368789672852 1079.334838867188 -62.75822830200195 1079.09912109375 -62.75822830200195 C 1078.621704101562 -62.75822830200195 1078.179565429688 -62.57487106323242 1077.854125976562 -62.24193954467773 L 1077.85009765625 -62.23788833618164 L 1077.84619140625 -62.23387908935547 C 1077.020629882812 -61.40840911865234 1075.923095703125 -60.95380020141602 1074.755615234375 -60.95380020141602 Z" stroke="none"/>
            <path d="M 1074.755615234375 -61.95379638671875 C 1075.618408203125 -61.95379638671875 1076.48095703125 -62.28287506103516 1077.139038085938 -62.94099807739258 C 1077.666748046875 -63.48074722290039 1078.374267578125 -63.75822448730469 1079.09912109375 -63.75822448730469 C 1079.453979492188 -63.75822448730469 1079.812866210938 -63.69175720214844 1080.156982421875 -63.55699920654297 C 1081.836791992188 -62.89969253540039 1083.669555664062 -62.57572174072266 1085.567016601562 -62.57562637329102 C 1090.568603515625 -62.57537078857422 1096.024658203125 -64.82562255859375 1100.35205078125 -69.15299987792969 C 1106.321044921875 -75.12200164794922 1108.338012695312 -83.23999786376953 1105.948974609375 -89.3489990234375 C 1105.538940429688 -90.39599609375 1105.760009765625 -91.58100128173828 1106.56494140625 -92.36599731445312 C 1108.078979492188 -93.88099670410156 1107.850952148438 -96.47799682617188 1105.880981445312 -97.66600036621094 C 1105.36962890625 -97.97508239746094 1104.777954101562 -98.12919616699219 1104.18603515625 -98.12919616699219 C 1103.625 -98.12919616699219 1103.063842773438 -97.99088287353516 1102.569946289062 -97.71499633789062 C 1102.253051757812 -97.53800201416016 1101.98095703125 -97.32499694824219 1101.751953125 -97.08699798583984 C 1101.242553710938 -96.55759429931641 1100.574829101562 -96.26339721679688 1099.885620117188 -96.26338195800781 C 1099.574951171875 -96.26336669921875 1099.260009765625 -96.32311248779297 1098.953002929688 -96.447998046875 C 1097.225708007812 -97.15180206298828 1095.332275390625 -97.49855041503906 1093.369140625 -97.49855041503906 C 1088.367553710938 -97.49855041503906 1082.911743164062 -95.24851226806641 1078.5849609375 -90.92099761962891 C 1072.558959960938 -84.89599609375 1070.56103515625 -76.68000030517578 1073.057983398438 -70.55300140380859 C 1073.4599609375 -69.56500244140625 1073.18701171875 -68.49299621582031 1072.41796875 -67.75399780273438 C 1072.180053710938 -67.52500152587891 1071.968017578125 -67.25299835205078 1071.791015625 -66.93599700927734 C 1071.223022460938 -65.91999816894531 1071.238037109375 -64.62100219726562 1071.838989257812 -63.625 C 1072.511108398438 -62.51078033447266 1073.633544921875 -61.95379638671875 1074.755615234375 -61.95379638671875 M 1074.755615234375 -59.95380020141602 C 1072.853393554688 -59.95380020141602 1071.122924804688 -60.94002151489258 1070.12646484375 -62.59194946289062 C 1069.1630859375 -64.18855285644531 1069.131225585938 -66.27684783935547 1070.045288085938 -67.91194152832031 C 1070.312866210938 -68.39115142822266 1070.644653320312 -68.82311248779297 1071.031005859375 -69.19496917724609 C 1071.144653320312 -69.30410766601562 1071.316528320312 -69.52610778808594 1071.205444335938 -69.79927062988281 C 1070.500610351562 -71.5289306640625 1070.102416992188 -73.41108703613281 1070.022338867188 -75.39240264892578 C 1069.944580078125 -77.32048797607422 1070.169555664062 -79.30284881591797 1070.691284179688 -81.28440856933594 C 1071.760009765625 -85.34430694580078 1074.000610351562 -89.16565704345703 1077.1708984375 -92.3353271484375 C 1081.722412109375 -96.8875732421875 1087.62646484375 -99.49855041503906 1093.369262695312 -99.49855041503906 C 1095.62353515625 -99.49855041503906 1097.756103515625 -99.09535217285156 1099.707763671875 -98.30014038085938 C 1099.768188476562 -98.27552795410156 1099.82666015625 -98.26338195800781 1099.885498046875 -98.26338195800781 C 1100.029174804688 -98.26338195800781 1100.180297851562 -98.33808898925781 1100.310791015625 -98.47373962402344 C 1100.683715820312 -98.86138153076172 1101.11572265625 -99.19358825683594 1101.594604492188 -99.46109008789062 C 1102.377075195312 -99.89814758300781 1103.273193359375 -100.1291885375977 1104.18603515625 -100.1291885375977 C 1105.158203125 -100.1291885375977 1106.10205078125 -99.86930847167969 1106.91552734375 -99.37763214111328 C 1108.36328125 -98.50457763671875 1109.310302734375 -97.05554962158203 1109.512084960938 -95.40310668945312 C 1109.7138671875 -93.75096130371094 1109.1552734375 -92.12867736816406 1107.979614257812 -90.95223236083984 C 1107.973510742188 -90.9461669921875 1107.967407226562 -90.94014739990234 1107.961303710938 -90.93416595458984 C 1107.744750976562 -90.72294616699219 1107.687255859375 -90.39499664306641 1107.811279296875 -90.07830810546875 C 1108.486083984375 -88.35260009765625 1108.859252929688 -86.48216247558594 1108.920776367188 -84.51806640625 C 1108.980590820312 -82.60482025146484 1108.743530273438 -80.64031219482422 1108.216186523438 -78.67913055419922 C 1107.135620117188 -74.66092681884766 1104.9052734375 -70.87782287597656 1101.766235351562 -67.73879241943359 C 1097.213989257812 -63.18650054931641 1091.309936523438 -60.57563018798828 1085.56787109375 -60.57563018798828 C 1083.390747070312 -60.57572937011719 1081.325317382812 -60.95217895507812 1079.42822265625 -61.69449996948242 C 1079.320068359375 -61.73685836791992 1079.20947265625 -61.75822830200195 1079.09912109375 -61.75822830200195 C 1078.953369140625 -61.75822830200195 1078.7431640625 -61.72087097167969 1078.569213867188 -61.54288101196289 C 1078.563842773438 -61.53747940063477 1078.55859375 -61.53210830688477 1078.55322265625 -61.52676010131836 C 1077.538818359375 -60.51242065429688 1076.190185546875 -59.95380020141602 1074.755615234375 -59.95380020141602 Z" stroke="none" fill="#fff"/>
          </g>
          <path id="path-25" data-name="path" d="M1096.713-93.245c-3.818-1.386-8.653-.523-12.707,2.427" transform="translate(-1071.376 98.129)" fill="#ffbf00" stroke="#fff" stroke-linecap="round" stroke-linejoin="round" stroke-width="2"/>
        </g>
        <g id="Repeat_Grid_33" data-name="Repeat Grid 33" transform="translate(1601 8421)" clip-path="url(#clip-path-2)">
          <g transform="translate(-246 -313)">
            <g id="Component_2_85" data-name="Component 2  85" transform="translate(246 313)">
              <rect id="rectangle-6" data-name="rectangle" width="84" height="34" rx="8" fill="#eee"/>
              <text id="_1" data-name="1" transform="translate(42 22)" fill="#707070" font-size="16" font-family="Helvetica" letter-spacing="-0.01em"><tspan x="-4.449" y="0">1</tspan></text>
              <g id="icon-minus" transform="translate(12.5 13.5)">
                <path id="path-26" data-name="path" d="M1442.681,4368.046l5.484-5.484" transform="translate(2068.545 -4104.926) rotate(45)" fill="none" stroke="#707070" stroke-linecap="round" stroke-linejoin="round" stroke-width="1"/>
              </g>
              <g id="icon-add" transform="translate(63.5 13.5)">
                <path id="path-27" data-name="path" d="M1442.681,4368.046l5.484-5.484" transform="translate(2068.545 -4104.926) rotate(45)" fill="none" stroke="#707070" stroke-linecap="round" stroke-linejoin="round" stroke-width="1"/>
                <path id="path-28" data-name="path" d="M1442.681,4368.046l5.484-5.484" transform="translate(4112.682 2068.545) rotate(135)" fill="none" stroke="#707070" stroke-linecap="round" stroke-linejoin="round" stroke-width="1"/>
              </g>
            </g>
          </g>
          <g transform="translate(-146 -313)">
            <g id="Component_2_86" data-name="Component 2  86" transform="translate(246 313)">
              <rect id="rectangle-7" data-name="rectangle" width="84" height="34" rx="8" fill="#eee"/>
              <text id="_0" data-name="0" transform="translate(42 22)" fill="#707070" font-size="16" font-family="Helvetica" letter-spacing="-0.01em"><tspan x="-4.449" y="0">0</tspan></text>
              <g id="icon-minus-2" data-name="icon-minus" transform="translate(12.5 13.5)">
                <path id="path-29" data-name="path" d="M1442.681,4368.046l5.484-5.484" transform="translate(2068.545 -4104.926) rotate(45)" fill="none" stroke="#707070" stroke-linecap="round" stroke-linejoin="round" stroke-width="1"/>
              </g>
              <g id="icon-add-2" data-name="icon-add" transform="translate(63.5 13.5)">
                <path id="path-30" data-name="path" d="M1442.681,4368.046l5.484-5.484" transform="translate(2068.545 -4104.926) rotate(45)" fill="none" stroke="#707070" stroke-linecap="round" stroke-linejoin="round" stroke-width="1"/>
                <path id="path-31" data-name="path" d="M1442.681,4368.046l5.484-5.484" transform="translate(4112.682 2068.545) rotate(135)" fill="none" stroke="#707070" stroke-linecap="round" stroke-linejoin="round" stroke-width="1"/>
              </g>
            </g>
          </g>
          <g transform="translate(-46 -313)">
            <g id="Component_2_87" data-name="Component 2  87" transform="translate(246 313)">
              <rect id="rectangle-8" data-name="rectangle" width="84" height="34" rx="8" fill="#eee"/>
              <text id="_2" data-name="2" transform="translate(42 22)" fill="#707070" font-size="16" font-family="Helvetica" letter-spacing="-0.01em"><tspan x="-4.449" y="0">2</tspan></text>
              <g id="icon-minus-3" data-name="icon-minus" transform="translate(12.5 13.5)">
                <path id="path-32" data-name="path" d="M1442.681,4368.046l5.484-5.484" transform="translate(2068.545 -4104.926) rotate(45)" fill="none" stroke="#707070" stroke-linecap="round" stroke-linejoin="round" stroke-width="1"/>
              </g>
              <g id="icon-add-3" data-name="icon-add" transform="translate(63.5 13.5)">
                <path id="path-33" data-name="path" d="M1442.681,4368.046l5.484-5.484" transform="translate(2068.545 -4104.926) rotate(45)" fill="none" stroke="#707070" stroke-linecap="round" stroke-linejoin="round" stroke-width="1"/>
                <path id="path-34" data-name="path" d="M1442.681,4368.046l5.484-5.484" transform="translate(4112.682 2068.545) rotate(135)" fill="none" stroke="#707070" stroke-linecap="round" stroke-linejoin="round" stroke-width="1"/>
              </g>
            </g>
          </g>
        </g>
        <g id="Repeat_Grid_32" data-name="Repeat Grid 32" transform="translate(1601 8580)" clip-path="url(#clip-path-2)">
          <g transform="translate(-246 -313)">
            <g id="Component_2_82" data-name="Component 2  82" transform="translate(246 313)">
              <rect id="rectangle-9" data-name="rectangle" width="84" height="34" rx="8" fill="#eee"/>
              <text id="_1-2" data-name="1" transform="translate(42 22)" fill="#707070" font-size="16" font-family="Helvetica" letter-spacing="-0.01em"><tspan x="-4.449" y="0">1</tspan></text>
              <g id="icon-minus-4" data-name="icon-minus" transform="translate(12.5 13.5)">
                <path id="path-35" data-name="path" d="M1442.681,4368.046l5.484-5.484" transform="translate(2068.545 -4104.926) rotate(45)" fill="none" stroke="#707070" stroke-linecap="round" stroke-linejoin="round" stroke-width="1"/>
              </g>
              <g id="icon-add-4" data-name="icon-add" transform="translate(63.5 13.5)">
                <path id="path-36" data-name="path" d="M1442.681,4368.046l5.484-5.484" transform="translate(2068.545 -4104.926) rotate(45)" fill="none" stroke="#707070" stroke-linecap="round" stroke-linejoin="round" stroke-width="1"/>
                <path id="path-37" data-name="path" d="M1442.681,4368.046l5.484-5.484" transform="translate(4112.682 2068.545) rotate(135)" fill="none" stroke="#707070" stroke-linecap="round" stroke-linejoin="round" stroke-width="1"/>
              </g>
            </g>
          </g>
          <g transform="translate(-146 -313)">
            <g id="Component_2_83" data-name="Component 2  83" transform="translate(246 313)">
              <rect id="rectangle-10" data-name="rectangle" width="84" height="34" rx="8" fill="#eee"/>
              <text id="_5" data-name="5" transform="translate(42 22)" fill="#707070" font-size="16" font-family="Helvetica" letter-spacing="-0.01em"><tspan x="-4.449" y="0">5</tspan></text>
              <g id="icon-minus-5" data-name="icon-minus" transform="translate(12.5 13.5)">
                <path id="path-38" data-name="path" d="M1442.681,4368.046l5.484-5.484" transform="translate(2068.545 -4104.926) rotate(45)" fill="none" stroke="#707070" stroke-linecap="round" stroke-linejoin="round" stroke-width="1"/>
              </g>
              <g id="icon-add-5" data-name="icon-add" transform="translate(63.5 13.5)">
                <path id="path-39" data-name="path" d="M1442.681,4368.046l5.484-5.484" transform="translate(2068.545 -4104.926) rotate(45)" fill="none" stroke="#707070" stroke-linecap="round" stroke-linejoin="round" stroke-width="1"/>
                <path id="path-40" data-name="path" d="M1442.681,4368.046l5.484-5.484" transform="translate(4112.682 2068.545) rotate(135)" fill="none" stroke="#707070" stroke-linecap="round" stroke-linejoin="round" stroke-width="1"/>
              </g>
            </g>
          </g>
          <g transform="translate(-46 -313)">
            <g id="Component_2_84" data-name="Component 2  84" transform="translate(246 313)">
              <rect id="rectangle-11" data-name="rectangle" width="84" height="34" rx="8" fill="#eee"/>
              <text id="_1-3" data-name="1" transform="translate(42 22)" fill="#707070" font-size="16" font-family="Helvetica" letter-spacing="-0.01em"><tspan x="-4.449" y="0">1</tspan></text>
              <g id="icon-minus-6" data-name="icon-minus" transform="translate(12.5 13.5)">
                <path id="path-41" data-name="path" d="M1442.681,4368.046l5.484-5.484" transform="translate(2068.545 -4104.926) rotate(45)" fill="none" stroke="#707070" stroke-linecap="round" stroke-linejoin="round" stroke-width="1"/>
              </g>
              <g id="icon-add-6" data-name="icon-add" transform="translate(63.5 13.5)">
                <path id="path-42" data-name="path" d="M1442.681,4368.046l5.484-5.484" transform="translate(2068.545 -4104.926) rotate(45)" fill="none" stroke="#707070" stroke-linecap="round" stroke-linejoin="round" stroke-width="1"/>
                <path id="path-43" data-name="path" d="M1442.681,4368.046l5.484-5.484" transform="translate(4112.682 2068.545) rotate(135)" fill="none" stroke="#707070" stroke-linecap="round" stroke-linejoin="round" stroke-width="1"/>
              </g>
            </g>
          </g>
        </g>
        <g id="Repeat_Grid_34" data-name="Repeat Grid 34" transform="translate(1601 8260)" clip-path="url(#clip-path-2)">
          <g transform="translate(-246 -313)">
            <g id="Component_2_88" data-name="Component 2  88" transform="translate(246 313)">
              <rect id="rectangle-12" data-name="rectangle" width="84" height="34" rx="8" fill="#eee"/>
              <text id="_0-2" data-name="0" transform="translate(42 22)" fill="#707070" font-size="16" font-family="Helvetica" letter-spacing="-0.01em"><tspan x="-4.449" y="0">0</tspan></text>
              <g id="icon-minus-7" data-name="icon-minus" transform="translate(12.5 13.5)">
                <path id="path-44" data-name="path" d="M1442.681,4368.046l5.484-5.484" transform="translate(2068.545 -4104.926) rotate(45)" fill="none" stroke="#707070" stroke-linecap="round" stroke-linejoin="round" stroke-width="1"/>
              </g>
              <g id="icon-add-7" data-name="icon-add" transform="translate(63.5 13.5)">
                <path id="path-45" data-name="path" d="M1442.681,4368.046l5.484-5.484" transform="translate(2068.545 -4104.926) rotate(45)" fill="none" stroke="#707070" stroke-linecap="round" stroke-linejoin="round" stroke-width="1"/>
                <path id="path-46" data-name="path" d="M1442.681,4368.046l5.484-5.484" transform="translate(4112.682 2068.545) rotate(135)" fill="none" stroke="#707070" stroke-linecap="round" stroke-linejoin="round" stroke-width="1"/>
              </g>
            </g>
          </g>
          <g transform="translate(-146 -313)">
            <g id="Component_2_89" data-name="Component 2  89" transform="translate(246 313)">
              <rect id="rectangle-13" data-name="rectangle" width="84" height="34" rx="8" fill="#eee"/>
              <text id="_1-4" data-name="1" transform="translate(42 22)" fill="#707070" font-size="16" font-family="Helvetica" letter-spacing="-0.01em"><tspan x="-4.449" y="0">1</tspan></text>
              <g id="icon-minus-8" data-name="icon-minus" transform="translate(12.5 13.5)">
                <path id="path-47" data-name="path" d="M1442.681,4368.046l5.484-5.484" transform="translate(2068.545 -4104.926) rotate(45)" fill="none" stroke="#707070" stroke-linecap="round" stroke-linejoin="round" stroke-width="1"/>
              </g>
              <g id="icon-add-8" data-name="icon-add" transform="translate(63.5 13.5)">
                <path id="path-48" data-name="path" d="M1442.681,4368.046l5.484-5.484" transform="translate(2068.545 -4104.926) rotate(45)" fill="none" stroke="#707070" stroke-linecap="round" stroke-linejoin="round" stroke-width="1"/>
                <path id="path-49" data-name="path" d="M1442.681,4368.046l5.484-5.484" transform="translate(4112.682 2068.545) rotate(135)" fill="none" stroke="#707070" stroke-linecap="round" stroke-linejoin="round" stroke-width="1"/>
              </g>
            </g>
          </g>
          <g transform="translate(-46 -313)">
            <g id="Component_2_90" data-name="Component 2  90" transform="translate(246 313)">
              <rect id="rectangle-14" data-name="rectangle" width="84" height="34" rx="8" fill="#eee"/>
              <text id="_1-5" data-name="1" transform="translate(42 22)" fill="#707070" font-size="16" font-family="Helvetica" letter-spacing="-0.01em"><tspan x="-4.449" y="0">1</tspan></text>
              <g id="icon-minus-9" data-name="icon-minus" transform="translate(12.5 13.5)">
                <path id="path-50" data-name="path" d="M1442.681,4368.046l5.484-5.484" transform="translate(2068.545 -4104.926) rotate(45)" fill="none" stroke="#707070" stroke-linecap="round" stroke-linejoin="round" stroke-width="1"/>
              </g>
              <g id="icon-add-9" data-name="icon-add" transform="translate(63.5 13.5)">
                <path id="path-51" data-name="path" d="M1442.681,4368.046l5.484-5.484" transform="translate(2068.545 -4104.926) rotate(45)" fill="none" stroke="#707070" stroke-linecap="round" stroke-linejoin="round" stroke-width="1"/>
                <path id="path-52" data-name="path" d="M1442.681,4368.046l5.484-5.484" transform="translate(4112.682 2068.545) rotate(135)" fill="none" stroke="#707070" stroke-linecap="round" stroke-linejoin="round" stroke-width="1"/>
              </g>
            </g>
          </g>
        </g>
        <g id="Component_34_34" data-name="Component 34  34" transform="translate(1555 8058)">
          <rect id="rectangle-15" data-name="rectangle" width="375" height="72" rx="36" fill="#fff"/>
          <text id="Fruit" transform="translate(318 41)" fill="#505050" font-size="18" font-family="Lato-Regular, Lato"><tspan x="-19.116" y="0">Fruit</tspan></text>
          <text id="Veg" transform="translate(239 41)" fill="#505050" font-size="18" font-family="Lato-Regular, Lato"><tspan x="-14.913" y="0">Veg</tspan></text>
          <path id="Path_2431" data-name="Path 2431" d="M26,0H68a26,26,0,0,1,0,52H26A26,26,0,0,1,26,0Z" transform="translate(10 10)" fill="#fed256"/>
          <text id="Protein" transform="translate(160 41)" fill="#505050" font-size="18" font-family="Lato-Regular, Lato"><tspan x="-29.511" y="0">Protein</tspan></text>
          <text id="All" transform="translate(57 41)" fill="#fff" font-size="18" font-family="Lato-Regular, Lato"><tspan x="-10.728" y="0">All</tspan></text>
        </g>
      </g>
    </g>
    <g id="phone-top" transform="translate(109)">
      <rect id="Rectangle_2198" data-name="Rectangle 2198" width="374" height="808" rx="50" transform="translate(155 182)" fill="url(#linear-gradient)"/>
      <g id="phone_dots_at_top" data-name="phone dots at top" transform="translate(317.479 195.336)">
        <circle id="Ellipse_1" data-name="Ellipse 1" cx="1.5" cy="1.5" r="1.5" transform="translate(5.521 -0.336)" fill="#6b7f99"/>
        <circle id="Ellipse_8" data-name="Ellipse 8" cx="1" cy="1" r="1" transform="translate(-0.479 -0.336)" fill="#6b7f99"/>
        <circle id="Ellipse_2" data-name="Ellipse 2" cx="1" cy="1" r="1" transform="translate(14.521 -0.336)" fill="#6b7f99"/>
        <circle id="Ellipse_3" data-name="Ellipse 3" cx="1" cy="1" r="1" transform="translate(20.521 -0.336)" fill="#6b7f99"/>
        <circle id="Ellipse_4" data-name="Ellipse 4" cx="1" cy="1" r="1" transform="translate(26.521 -0.336)" fill="#6b7f99"/>
        <circle id="Ellipse_5" data-name="Ellipse 5" cx="1" cy="1" r="1" transform="translate(39.521 -0.336)" fill="#6b7f99"/>
        <circle id="Ellipse_7" data-name="Ellipse 7" cx="1.5" cy="1.5" r="1.5" transform="translate(45.521 -0.336)" fill="#6b7f99"/>
        <circle id="Ellipse_6" data-name="Ellipse 6" cx="1.5" cy="1.5" r="1.5" transform="translate(31.521 -0.336)" fill="#6b7f99"/>
      </g>
    </g>
  </g>
</svg>
