<svg id="Layer_1" data-name="Layer 1" xmlns="http://www.w3.org/2000/svg" xmlns:xlink="http://www.w3.org/1999/xlink" viewBox="0 0 360 360"><defs><style>.cls-1,.cls-11,.cls-2,.cls-6,.cls-8{fill:none;}.cls-2,.cls-4,.cls-6{stroke:#febf10;}.cls-11,.cls-2,.cls-4,.cls-6,.cls-7,.cls-8,.cls-9{stroke-miterlimit:10;}.cls-2,.cls-7,.cls-8{stroke-width:2px;}.cls-3,.cls-9{fill:#fee28b;}.cls-4{fill:#fff;}.cls-5{clip-path:url(#clip-path);}.cls-7{fill:#ffbf00;}.cls-7,.cls-9{stroke:#020202;}.cls-11,.cls-8{stroke:#000;}.cls-10{clip-path:url(#clip-path-2);}</style><clipPath id="clip-path"><rect class="cls-1" x="307.43" y="184.79" width="10.21" height="11"/></clipPath><clipPath id="clip-path-2"><rect class="cls-1" x="-371.27" y="28.62" width="314.26" height="314.26"/></clipPath></defs><path class="cls-2" d="M330.06,240.29a15.76,15.76,0,0,0,6.44-12.71V44.24a15.79,15.79,0,0,0-15.78-15.79h-282A15.79,15.79,0,0,0,23,44.24V227.58A15.76,15.76,0,0,0,38.8,243.35H146.93a3.59,3.59,0,0,1,3.43,4.61l-14.89,50"/><rect class="cls-1" x="22.87" y="28.62" width="314.26" height="314.26"/><rect class="cls-3" x="41.09" y="41.81" width="19.64" height="18.07"/><rect class="cls-1" x="45.02" y="45.73" width="11.78" height="10.21"/><rect class="cls-4" x="45.02" y="45.73" width="11.78" height="10.21"/><rect class="cls-1" x="22.87" y="28.62" width="314.26" height="314.26"/><rect class="cls-3" x="63.09" y="41.81" width="18.07" height="18.07"/><rect class="cls-1" x="67.02" y="45.73" width="10.21" height="10.21"/><rect class="cls-4" x="67.02" y="45.73" width="10.21" height="10.21"/><rect class="cls-1" x="22.87" y="28.62" width="314.26" height="314.26"/><rect class="cls-3" x="85.09" y="41.81" width="18.07" height="18.07"/><rect class="cls-1" x="89.02" y="45.73" width="10.21" height="10.21"/><rect class="cls-4" x="89.02" y="45.73" width="10.21" height="10.21"/><rect class="cls-1" x="22.87" y="28.62" width="314.26" height="314.26"/><g class="cls-5"><rect class="cls-3" x="303.5" y="180.87" width="18.07" height="18.86"/></g><rect class="cls-6" x="307.43" y="184.79" width="10.21" height="11"/><path class="cls-6" d="M41.88,189.51h90.35V141.33a3.67,3.67,0,0,0-3.66-3.67H113.71a3.67,3.67,0,0,0-3.67,3.67v46.95"/><path class="cls-6" d="M89,188.72V151.47A3.57,3.57,0,0,0,88,148.93a3.62,3.62,0,0,0-2.56-1.06H70.65a3.61,3.61,0,0,0-3.63,3.6v37.25"/><path class="cls-6" d="M173.87,121.46V105.19a3.65,3.65,0,0,0-3.62-3.67H155.49a3.65,3.65,0,0,0-3.62,3.67v38"/><path class="cls-6" d="M217.86,104.69V72.83a3.58,3.58,0,0,0-3.62-3.53H199.49a3.58,3.58,0,0,0-3.62,3.53v36.54"/><path class="cls-6" d="M259.5,115.66V95.72a3.62,3.62,0,0,0-1.06-2.57,3.58,3.58,0,0,0-2.58-1.06H241.13a3.63,3.63,0,0,0-3.63,3.63v14.45"/><path class="cls-6" d="M302.71,157.3V63.44a3.49,3.49,0,0,0-1-2.52,3.65,3.65,0,0,0-2.57-1H284.35a3.59,3.59,0,0,0-3.63,3.56v62.47"/><line class="cls-2" x1="120.44" y1="297.54" x2="237.5" y2="297.54"/><line class="cls-2" x1="215.51" y1="276.72" x2="221.01" y2="297.93"/><line class="cls-6" x1="136.94" y1="211.11" x2="23.02" y2="211.11"/><line class="cls-6" x1="302.71" y1="211.11" x2="336.5" y2="211.11"/><rect class="cls-1" x="22.87" y="28.62" width="314.26" height="314.26"/><path class="cls-1" d="M221.65,238.39a49.5,49.5,0,0,1-45.73-30.31,48.79,48.79,0,0,1,10.72-53.51,49.77,49.77,0,0,1,53.94-10.65,49,49,0,0,1-18.93,94.47Zm0-117.85a68.68,68.68,0,1,0,69.14,68.73C290.77,151.31,259.82,120.54,221.64,120.54Z"/><path class="cls-7" d="M221.65,238.39a49.5,49.5,0,0,1-45.73-30.31,48.79,48.79,0,0,1,10.72-53.51,49.77,49.77,0,0,1,53.94-10.65,49,49,0,0,1-18.93,94.47Zm0-117.85A69.14,69.14,0,0,0,157.77,163a68.43,68.43,0,0,0,15,74.91,69.18,69.18,0,0,0,118-48.62C290.77,151.31,259.82,120.54,221.64,120.54Z"/><path class="cls-8" d="M195.08,189.51c0-14.75,11.61-26.71,25.93-26.71"/><rect class="cls-1" x="22.87" y="28.62" width="314.26" height="314.26"/><path class="cls-1" d="M330.64,275.25l-50.8-48.82A68.6,68.6,0,0,1,261.07,246l50.77,48.78a13.57,13.57,0,1,0,18.8-19.56Z"/><path class="cls-9" d="M330.64,275.24l-50.8-48.81A68.6,68.6,0,0,1,261.07,246l50.77,48.78a13.57,13.57,0,1,0,18.8-19.57Z"/><rect class="cls-1" x="22.87" y="28.62" width="314.26" height="314.26"/><g class="cls-10"><path class="cls-2" d="M269.55,273.87a10.65,10.65,0,0,0,4.35-8.6v-124a10.67,10.67,0,0,0-10.67-10.68H72.41a10.68,10.68,0,0,0-10.63,10.68v124a10.67,10.67,0,0,0,10.68,10.67h73.17a2.47,2.47,0,0,1,1.94,1,2.41,2.41,0,0,1,.38,2.14l-10.08,33.8"/></g><g class="cls-10"><rect class="cls-6" x="76.71" y="142.37" width="7.86" height="7.07"/></g><g class="cls-10"><rect class="cls-6" x="91.63" y="142.37" width="7.07" height="7.07"/></g><g class="cls-10"><rect class="cls-6" x="106.56" y="142.37" width="7.07" height="7.07"/></g><g class="cls-10"><rect class="cls-6" x="254.26" y="236.65" width="7.07" height="7.07"/><path class="cls-6" d="M74.35,239.79h61.28V206.94a2.49,2.49,0,0,0-2.48-2.5H123.07a2.49,2.49,0,0,0-2.48,2.5v32"/><path class="cls-6" d="M106.56,239V213.93a2.39,2.39,0,0,0-.71-1.71,2.48,2.48,0,0,0-1.74-.71h-10a2.45,2.45,0,0,0-2.47,2.42V239"/><path class="cls-6" d="M163.91,193.63v-11a2.48,2.48,0,0,0-2.45-2.5h-10a2.48,2.48,0,0,0-2.45,2.5v25.78"/><path class="cls-6" d="M193.77,182.36V160.5a2.44,2.44,0,0,0-2.46-2.42h-10a2.44,2.44,0,0,0-2.46,2.42v25.08"/><path class="cls-6" d="M222.05,189.51v-13.3a2.4,2.4,0,0,0-.72-1.71,2.47,2.47,0,0,0-1.75-.7h-10a2.44,2.44,0,0,0-2.47,2.41v9.64"/><path class="cls-6" d="M251.12,217.79V154.21a2.37,2.37,0,0,0-.71-1.7,2.48,2.48,0,0,0-1.74-.71h-10a2.44,2.44,0,0,0-2.47,2.41v42.32"/><line class="cls-2" x1="127.77" y1="312.86" x2="207.12" y2="312.86"/><line class="cls-2" x1="192.2" y1="298.71" x2="196.13" y2="312.86"/><line class="cls-6" x1="138.77" y1="254.32" x2="61.78" y2="254.32"/><line class="cls-6" x1="251.12" y1="254.32" x2="273.91" y2="254.32"/></g><g class="cls-10"><path class="cls-11" d="M196.38,273a33.38,33.38,0,1,1,33.38-33.39A33.39,33.39,0,0,1,196.38,273Zm0-80.13a46.75,46.75,0,1,0,46.74,46.73A46.74,46.74,0,0,0,196.37,192.82Z"/><path class="cls-8" d="M178.06,239.79a18.07,18.07,0,0,1,18.07-18.07"/></g><g class="cls-10"><path class="cls-11" d="M270.2,297.82l-34.58-32.89a46.74,46.74,0,0,1-12.78,13.21L257.4,311a9.33,9.33,0,0,0,9,2.28,9.11,9.11,0,0,0,3.78-15.47Z"/></g></svg>