<svg id="Layer_1" data-name="Layer 1" xmlns="http://www.w3.org/2000/svg" xmlns:xlink="http://www.w3.org/1999/xlink" viewBox="0 0 360 360"><defs><style>.cls-1,.cls-20,.cls-81,.cls-83,.cls-84,.cls-85,.cls-9{fill:none;}.cls-2{clip-path:url(#clip-path);}.cls-3{fill:#fee28b;}.cls-4{clip-path:url(#clip-path-2);}.cls-5{clip-path:url(#clip-path-3);}.cls-6{isolation:isolate;}.cls-7{clip-path:url(#clip-path-4);}.cls-8{clip-path:url(#clip-path-6);}.cls-9{stroke:#ffbf00;}.cls-20,.cls-81,.cls-83,.cls-84,.cls-85,.cls-9{stroke-miterlimit:10;}.cls-20,.cls-83,.cls-9{stroke-width:2px;}.cls-10{clip-path:url(#clip-path-8);}.cls-11{clip-path:url(#clip-path-10);}.cls-12{clip-path:url(#clip-path-12);}.cls-13{clip-path:url(#clip-path-14);}.cls-14{clip-path:url(#clip-path-16);}.cls-15{clip-path:url(#clip-path-18);}.cls-16{clip-path:url(#clip-path-20);}.cls-17{clip-path:url(#clip-path-22);}.cls-18{clip-path:url(#clip-path-24);}.cls-19{fill:#ffbf00;}.cls-20,.cls-81,.cls-85{stroke:#000;}.cls-21{clip-path:url(#clip-path-26);}.cls-22{clip-path:url(#clip-path-28);}.cls-23{clip-path:url(#clip-path-30);}.cls-24{clip-path:url(#clip-path-32);}.cls-25{clip-path:url(#clip-path-34);}.cls-26{clip-path:url(#clip-path-36);}.cls-27{clip-path:url(#clip-path-38);}.cls-28{clip-path:url(#clip-path-40);}.cls-29{clip-path:url(#clip-path-42);}.cls-30{clip-path:url(#clip-path-44);}.cls-31{clip-path:url(#clip-path-46);}.cls-32{clip-path:url(#clip-path-48);}.cls-33{clip-path:url(#clip-path-50);}.cls-34{clip-path:url(#clip-path-52);}.cls-35{clip-path:url(#clip-path-54);}.cls-36{clip-path:url(#clip-path-56);}.cls-37{clip-path:url(#clip-path-58);}.cls-38{clip-path:url(#clip-path-60);}.cls-39{clip-path:url(#clip-path-62);}.cls-40{clip-path:url(#clip-path-64);}.cls-41{clip-path:url(#clip-path-66);}.cls-42{clip-path:url(#clip-path-68);}.cls-43{clip-path:url(#clip-path-70);}.cls-44{clip-path:url(#clip-path-72);}.cls-45{clip-path:url(#clip-path-74);}.cls-46{clip-path:url(#clip-path-76);}.cls-47{clip-path:url(#clip-path-78);}.cls-48{clip-path:url(#clip-path-80);}.cls-49{clip-path:url(#clip-path-82);}.cls-50{clip-path:url(#clip-path-84);}.cls-51{clip-path:url(#clip-path-86);}.cls-52{clip-path:url(#clip-path-88);}.cls-53{clip-path:url(#clip-path-90);}.cls-54{clip-path:url(#clip-path-92);}.cls-55{clip-path:url(#clip-path-94);}.cls-56{clip-path:url(#clip-path-96);}.cls-57{clip-path:url(#clip-path-98);}.cls-58{clip-path:url(#clip-path-100);}.cls-59{clip-path:url(#clip-path-102);}.cls-60{clip-path:url(#clip-path-104);}.cls-61{clip-path:url(#clip-path-106);}.cls-62{clip-path:url(#clip-path-108);}.cls-63{clip-path:url(#clip-path-110);}.cls-64{clip-path:url(#clip-path-112);}.cls-65{clip-path:url(#clip-path-114);}.cls-66{clip-path:url(#clip-path-116);}.cls-67{clip-path:url(#clip-path-118);}.cls-68{clip-path:url(#clip-path-120);}.cls-69{clip-path:url(#clip-path-122);}.cls-70{clip-path:url(#clip-path-124);}.cls-71{clip-path:url(#clip-path-126);}.cls-72{clip-path:url(#clip-path-128);}.cls-73{clip-path:url(#clip-path-130);}.cls-74{clip-path:url(#clip-path-132);}.cls-75{clip-path:url(#clip-path-134);}.cls-76{clip-path:url(#clip-path-136);}.cls-77{clip-path:url(#clip-path-138);}.cls-78{clip-path:url(#clip-path-140);}.cls-79{clip-path:url(#clip-path-142);}.cls-80{clip-path:url(#clip-path-144);}.cls-81{stroke-dasharray:6.27 6.27;}.cls-82{clip-path:url(#clip-path-147);}.cls-83,.cls-84{stroke:#febf10;}</style><clipPath id="clip-path"><path class="cls-1" d="M-353.45,783.43Z"/></clipPath><clipPath id="clip-path-2"><rect class="cls-1" x="129.37" y="128.8" width="37.71" height="29.85" rx="4.71"/></clipPath><clipPath id="clip-path-3"><rect class="cls-1" x="25.66" y="19.21" width="314.26" height="314.26"/></clipPath><clipPath id="clip-path-4"><rect class="cls-1" x="121.51" y="120.55" width="53.42" height="46.35"/></clipPath><clipPath id="clip-path-6"><rect class="cls-1" x="129.37" y="128.41" width="37.71" height="30.64"/></clipPath><clipPath id="clip-path-8"><rect class="cls-1" x="129.37" y="83.24" width="37.71" height="30.64" rx="4.71"/></clipPath><clipPath id="clip-path-10"><rect class="cls-1" x="121.51" y="74.99" width="53.42" height="47.14"/></clipPath><clipPath id="clip-path-12"><rect class="cls-1" x="129.37" y="82.84" width="37.71" height="31.43"/></clipPath><clipPath id="clip-path-14"><rect class="cls-1" x="129.37" y="241.15" width="37.71" height="30.64" rx="4.71"/></clipPath><clipPath id="clip-path-16"><rect class="cls-1" x="121.51" y="232.9" width="53.42" height="47.14"/></clipPath><clipPath id="clip-path-18"><rect class="cls-1" x="129.37" y="240.76" width="37.71" height="31.43"/></clipPath><clipPath id="clip-path-20"><rect class="cls-1" x="129.37" y="37.67" width="37.71" height="30.64" rx="4.71"/></clipPath><clipPath id="clip-path-22"><rect class="cls-1" x="121.51" y="29.42" width="53.42" height="47.14"/></clipPath><clipPath id="clip-path-24"><rect class="cls-1" x="129.37" y="37.28" width="37.71" height="31.43"/></clipPath><clipPath id="clip-path-26"><rect class="cls-1" x="284.14" y="37.67" width="36.14" height="30.64" rx="4.71"/></clipPath><clipPath id="clip-path-28"><rect class="cls-1" x="276.29" y="29.42" width="51.85" height="47.14"/></clipPath><clipPath id="clip-path-30"><rect class="cls-1" x="284.14" y="37.28" width="36.14" height="31.43"/></clipPath><clipPath id="clip-path-32"><rect class="cls-1" x="129.37" y="196.37" width="37.71" height="29.85" rx="4.71"/></clipPath><clipPath id="clip-path-34"><rect class="cls-1" x="121.51" y="188.12" width="53.42" height="46.35"/></clipPath><clipPath id="clip-path-36"><rect class="cls-1" x="129.37" y="195.98" width="37.71" height="30.64"/></clipPath><clipPath id="clip-path-38"><rect class="cls-1" x="284.14" y="196.37" width="36.14" height="29.85" rx="4.71"/></clipPath><clipPath id="clip-path-40"><rect class="cls-1" x="276.29" y="188.12" width="51.85" height="46.35"/></clipPath><clipPath id="clip-path-42"><rect class="cls-1" x="284.14" y="195.98" width="36.14" height="30.64"/></clipPath><clipPath id="clip-path-44"><rect class="cls-1" x="87.73" y="128.8" width="36.14" height="29.85" rx="4.71"/></clipPath><clipPath id="clip-path-46"><rect class="cls-1" x="79.87" y="120.55" width="51.85" height="46.35"/></clipPath><clipPath id="clip-path-48"><rect class="cls-1" x="87.73" y="128.41" width="36.14" height="30.64"/></clipPath><clipPath id="clip-path-50"><rect class="cls-1" x="87.73" y="286.72" width="36.14" height="30.64" rx="4.71"/></clipPath><clipPath id="clip-path-52"><rect class="cls-1" x="79.87" y="278.47" width="51.85" height="47.14"/></clipPath><clipPath id="clip-path-54"><rect class="cls-1" x="87.73" y="286.33" width="36.14" height="31.43"/></clipPath><clipPath id="clip-path-56"><rect class="cls-1" x="284.14" y="241.15" width="36.14" height="30.64" rx="4.71"/></clipPath><clipPath id="clip-path-58"><rect class="cls-1" x="276.29" y="232.9" width="51.85" height="47.14"/></clipPath><clipPath id="clip-path-60"><rect class="cls-1" x="284.14" y="240.76" width="36.14" height="31.43"/></clipPath><clipPath id="clip-path-62"><rect class="cls-1" x="87.73" y="83.24" width="36.14" height="30.64" rx="4.71"/></clipPath><clipPath id="clip-path-64"><rect class="cls-1" x="79.87" y="74.99" width="51.85" height="47.14"/></clipPath><clipPath id="clip-path-66"><rect class="cls-1" x="87.73" y="82.84" width="36.14" height="31.43"/></clipPath><clipPath id="clip-path-68"><rect class="cls-1" x="87.73" y="241.15" width="36.14" height="30.64" rx="4.71"/></clipPath><clipPath id="clip-path-70"><rect class="cls-1" x="79.87" y="232.9" width="51.85" height="47.14"/></clipPath><clipPath id="clip-path-72"><rect class="cls-1" x="87.73" y="240.76" width="36.14" height="31.43"/></clipPath><clipPath id="clip-path-74"><rect class="cls-1" x="240.93" y="241.15" width="36.14" height="30.64" rx="4.71"/></clipPath><clipPath id="clip-path-76"><rect class="cls-1" x="233.07" y="232.9" width="51.85" height="47.14"/></clipPath><clipPath id="clip-path-78"><rect class="cls-1" x="240.93" y="240.76" width="36.14" height="31.43"/></clipPath><clipPath id="clip-path-80"><rect class="cls-1" x="87.73" y="37.67" width="36.14" height="30.64" rx="4.71"/></clipPath><clipPath id="clip-path-82"><rect class="cls-1" x="79.87" y="29.42" width="51.85" height="47.14"/></clipPath><clipPath id="clip-path-84"><rect class="cls-1" x="87.73" y="37.28" width="36.14" height="31.43"/></clipPath><clipPath id="clip-path-86"><rect class="cls-1" x="240.93" y="37.67" width="36.14" height="30.64" rx="4.71"/></clipPath><clipPath id="clip-path-88"><rect class="cls-1" x="233.07" y="29.42" width="51.85" height="47.14"/></clipPath><clipPath id="clip-path-90"><rect class="cls-1" x="240.93" y="37.28" width="36.14" height="31.43"/></clipPath><clipPath id="clip-path-92"><rect class="cls-1" x="87.73" y="196.37" width="36.14" height="29.85" rx="4.71"/></clipPath><clipPath id="clip-path-94"><rect class="cls-1" x="79.87" y="188.12" width="51.85" height="46.35"/></clipPath><clipPath id="clip-path-96"><rect class="cls-1" x="87.73" y="195.98" width="36.14" height="30.64"/></clipPath><clipPath id="clip-path-98"><rect class="cls-1" x="240.93" y="196.37" width="36.14" height="29.85" rx="4.71"/></clipPath><clipPath id="clip-path-100"><rect class="cls-1" x="233.07" y="188.12" width="51.85" height="46.35"/></clipPath><clipPath id="clip-path-102"><rect class="cls-1" x="240.93" y="195.98" width="36.14" height="30.64"/></clipPath><clipPath id="clip-path-104"><rect class="cls-1" x="44.52" y="83.24" width="36.14" height="30.64" rx="4.71"/></clipPath><clipPath id="clip-path-106"><rect class="cls-1" x="36.66" y="74.99" width="51.85" height="47.14"/></clipPath><clipPath id="clip-path-108"><rect class="cls-1" x="44.52" y="82.84" width="36.14" height="31.43"/></clipPath><clipPath id="clip-path-110"><rect class="cls-1" x="197.72" y="83.24" width="37.71" height="30.64" rx="4.71"/></clipPath><clipPath id="clip-path-112"><rect class="cls-1" x="189.86" y="74.99" width="53.42" height="47.14"/></clipPath><clipPath id="clip-path-114"><rect class="cls-1" x="197.72" y="82.84" width="37.71" height="31.43"/></clipPath><clipPath id="clip-path-116"><rect class="cls-1" x="197.72" y="241.15" width="37.71" height="30.64" rx="4.71"/></clipPath><clipPath id="clip-path-118"><rect class="cls-1" x="189.86" y="232.9" width="53.42" height="47.14"/></clipPath><clipPath id="clip-path-120"><rect class="cls-1" x="197.72" y="240.76" width="37.71" height="31.43"/></clipPath><clipPath id="clip-path-122"><rect class="cls-1" x="44.52" y="37.67" width="36.14" height="30.64" rx="4.71"/></clipPath><clipPath id="clip-path-124"><rect class="cls-1" x="36.66" y="29.42" width="51.85" height="47.14"/></clipPath><clipPath id="clip-path-126"><rect class="cls-1" x="44.52" y="37.28" width="36.14" height="31.43"/></clipPath><clipPath id="clip-path-128"><rect class="cls-1" x="197.72" y="37.67" width="37.71" height="30.64" rx="4.71"/></clipPath><clipPath id="clip-path-130"><rect class="cls-1" x="189.86" y="29.42" width="53.42" height="47.14"/></clipPath><clipPath id="clip-path-132"><rect class="cls-1" x="197.72" y="37.28" width="37.71" height="31.43"/></clipPath><clipPath id="clip-path-134"><rect class="cls-1" x="44.52" y="196.37" width="36.14" height="29.85" rx="4.71"/></clipPath><clipPath id="clip-path-136"><rect class="cls-1" x="36.66" y="188.12" width="51.85" height="46.35"/></clipPath><clipPath id="clip-path-138"><rect class="cls-1" x="44.52" y="195.98" width="36.14" height="30.64"/></clipPath><clipPath id="clip-path-140"><rect class="cls-1" x="197.72" y="196.37" width="37.71" height="29.85" rx="4.71"/></clipPath><clipPath id="clip-path-142"><rect class="cls-1" x="189.86" y="188.12" width="53.42" height="46.35"/></clipPath><clipPath id="clip-path-144"><rect class="cls-1" x="197.72" y="195.98" width="37.71" height="30.64"/></clipPath><clipPath id="clip-path-147"><rect class="cls-1" x="-368.05" y="14.42" width="314.26" height="314.26"/></clipPath></defs><g class="cls-2"><rect class="cls-3" x="248.36" y="-10.84" width="14.45" height="14.45"/></g><g class="cls-4"><g class="cls-5"><g class="cls-6"><g class="cls-7"><g class="cls-4"><g class="cls-8"><rect class="cls-3" x="129.37" y="128.8" width="37.71" height="29.85" rx="4.71"/></g></g><g class="cls-8"><rect class="cls-9" x="129.37" y="128.8" width="37.71" height="29.85" rx="4.71"/></g></g></g></g></g><g class="cls-10"><g class="cls-5"><g class="cls-6"><g class="cls-11"><g class="cls-10"><g class="cls-12"><rect class="cls-3" x="129.37" y="83.24" width="37.71" height="30.64" rx="4.71"/></g></g><g class="cls-12"><rect class="cls-9" x="129.37" y="83.24" width="37.71" height="30.64" rx="4.71"/></g></g></g></g></g><g class="cls-13"><g class="cls-5"><g class="cls-6"><g class="cls-14"><g class="cls-13"><g class="cls-15"><rect class="cls-3" x="129.37" y="241.15" width="37.71" height="30.64" rx="4.71"/></g></g><g class="cls-15"><rect class="cls-9" x="129.37" y="241.15" width="37.71" height="30.64" rx="4.71"/></g></g></g></g></g><g class="cls-16"><g class="cls-5"><g class="cls-6"><g class="cls-17"><g class="cls-16"><g class="cls-18"><rect class="cls-19" x="129.37" y="37.67" width="37.71" height="30.64" rx="4.71"/></g></g><g class="cls-18"><rect class="cls-20" x="129.37" y="37.67" width="37.71" height="30.64" rx="4.71"/></g></g></g></g></g><g class="cls-21"><g class="cls-5"><g class="cls-6"><g class="cls-22"><g class="cls-21"><g class="cls-23"><rect class="cls-19" x="284.14" y="37.67" width="36.14" height="30.64" rx="4.71"/></g></g><g class="cls-23"><rect class="cls-20" x="284.14" y="37.67" width="36.14" height="30.64" rx="4.71"/></g></g></g></g></g><g class="cls-24"><g class="cls-5"><g class="cls-6"><g class="cls-25"><g class="cls-24"><g class="cls-26"><rect class="cls-19" x="129.37" y="196.37" width="37.71" height="29.85" rx="4.71"/></g></g><g class="cls-26"><rect class="cls-20" x="129.37" y="196.37" width="37.71" height="29.85" rx="4.71"/></g></g></g></g></g><g class="cls-27"><g class="cls-5"><g class="cls-6"><g class="cls-28"><g class="cls-27"><g class="cls-29"><rect class="cls-19" x="284.14" y="196.37" width="36.14" height="29.85" rx="4.71"/></g></g><g class="cls-29"><rect class="cls-20" x="284.14" y="196.37" width="36.14" height="29.85" rx="4.71"/></g></g></g></g></g><g class="cls-30"><g class="cls-5"><g class="cls-6"><g class="cls-31"><g class="cls-30"><g class="cls-32"><rect class="cls-3" x="87.73" y="128.8" width="36.14" height="29.85" rx="4.71"/></g></g><g class="cls-32"><rect class="cls-9" x="87.73" y="128.8" width="36.14" height="29.85" rx="4.71"/></g></g></g></g></g><g class="cls-33"><g class="cls-5"><g class="cls-6"><g class="cls-34"><g class="cls-33"><g class="cls-35"><rect class="cls-3" x="87.73" y="286.72" width="36.14" height="30.64" rx="4.71"/></g></g><g class="cls-35"><rect class="cls-9" x="87.73" y="286.72" width="36.14" height="30.64" rx="4.71"/></g></g></g></g></g><g class="cls-36"><g class="cls-5"><g class="cls-6"><g class="cls-37"><g class="cls-36"><g class="cls-38"><rect class="cls-3" x="284.14" y="241.15" width="36.14" height="30.64" rx="4.71"/></g></g><g class="cls-38"><rect class="cls-9" x="284.14" y="241.15" width="36.14" height="30.64" rx="4.71"/></g></g></g></g></g><g class="cls-39"><g class="cls-5"><g class="cls-6"><g class="cls-40"><g class="cls-39"><g class="cls-41"><rect class="cls-3" x="87.73" y="83.24" width="36.14" height="30.64" rx="4.71"/></g></g><g class="cls-41"><rect class="cls-9" x="87.73" y="83.24" width="36.14" height="30.64" rx="4.71"/></g></g></g></g></g><g class="cls-42"><g class="cls-5"><g class="cls-6"><g class="cls-43"><g class="cls-42"><g class="cls-44"><rect class="cls-3" x="87.73" y="241.15" width="36.14" height="30.64" rx="4.71"/></g></g><g class="cls-44"><rect class="cls-9" x="87.73" y="241.15" width="36.14" height="30.64" rx="4.71"/></g></g></g></g></g><g class="cls-45"><g class="cls-5"><g class="cls-6"><g class="cls-46"><g class="cls-45"><g class="cls-47"><rect class="cls-3" x="240.93" y="241.15" width="36.14" height="30.64" rx="4.71"/></g></g><g class="cls-47"><rect class="cls-9" x="240.93" y="241.15" width="36.14" height="30.64" rx="4.71"/></g></g></g></g></g><g class="cls-48"><g class="cls-5"><g class="cls-6"><g class="cls-49"><g class="cls-48"><g class="cls-50"><rect class="cls-19" x="87.73" y="37.67" width="36.14" height="30.64" rx="4.71"/></g></g><g class="cls-50"><rect class="cls-20" x="87.73" y="37.67" width="36.14" height="30.64" rx="4.71"/></g></g></g></g></g><g class="cls-51"><g class="cls-5"><g class="cls-6"><g class="cls-52"><g class="cls-51"><g class="cls-53"><rect class="cls-19" x="240.93" y="37.67" width="36.14" height="30.64" rx="4.71"/></g></g><g class="cls-53"><rect class="cls-20" x="240.93" y="37.67" width="36.14" height="30.64" rx="4.71"/></g></g></g></g></g><g class="cls-54"><g class="cls-5"><g class="cls-6"><g class="cls-55"><g class="cls-54"><g class="cls-56"><rect class="cls-19" x="87.73" y="196.37" width="36.14" height="29.85" rx="4.71"/></g></g><g class="cls-56"><rect class="cls-20" x="87.73" y="196.37" width="36.14" height="29.85" rx="4.71"/></g></g></g></g></g><g class="cls-57"><g class="cls-5"><g class="cls-6"><g class="cls-58"><g class="cls-57"><g class="cls-59"><rect class="cls-19" x="240.93" y="196.37" width="36.14" height="29.85" rx="4.71"/></g></g><g class="cls-59"><rect class="cls-20" x="240.93" y="196.37" width="36.14" height="29.85" rx="4.71"/></g></g></g></g></g><g class="cls-60"><g class="cls-5"><g class="cls-6"><g class="cls-61"><g class="cls-60"><g class="cls-62"><rect class="cls-3" x="44.52" y="83.24" width="36.14" height="30.64" rx="4.71"/></g></g><g class="cls-62"><rect class="cls-9" x="44.52" y="83.24" width="36.14" height="30.64" rx="4.71"/></g></g></g></g></g><g class="cls-63"><g class="cls-5"><g class="cls-6"><g class="cls-64"><g class="cls-63"><g class="cls-65"><rect class="cls-3" x="197.72" y="83.24" width="37.71" height="30.64" rx="4.71"/></g></g><g class="cls-65"><rect class="cls-9" x="197.72" y="83.24" width="37.71" height="30.64" rx="4.71"/></g></g></g></g></g><g class="cls-66"><g class="cls-5"><g class="cls-6"><g class="cls-67"><g class="cls-66"><g class="cls-68"><rect class="cls-3" x="197.72" y="241.15" width="37.71" height="30.64" rx="4.71"/></g></g><g class="cls-68"><rect class="cls-9" x="197.72" y="241.15" width="37.71" height="30.64" rx="4.71"/></g></g></g></g></g><g class="cls-69"><g class="cls-5"><g class="cls-6"><g class="cls-70"><g class="cls-69"><g class="cls-71"><rect class="cls-19" x="44.52" y="37.67" width="36.14" height="30.64" rx="4.71"/></g></g><g class="cls-71"><rect class="cls-20" x="44.52" y="37.67" width="36.14" height="30.64" rx="4.71"/></g></g></g></g></g><g class="cls-72"><g class="cls-5"><g class="cls-6"><g class="cls-73"><g class="cls-72"><g class="cls-74"><rect class="cls-19" x="197.72" y="37.67" width="37.71" height="30.64" rx="4.71"/></g></g><g class="cls-74"><rect class="cls-20" x="197.72" y="37.67" width="37.71" height="30.64" rx="4.71"/></g></g></g></g></g><g class="cls-75"><g class="cls-5"><g class="cls-6"><g class="cls-76"><g class="cls-75"><g class="cls-77"><rect class="cls-19" x="44.52" y="196.37" width="36.14" height="29.85" rx="4.71"/></g></g><g class="cls-77"><rect class="cls-20" x="44.52" y="196.37" width="36.14" height="29.85" rx="4.71"/></g></g></g></g></g><g class="cls-78"><g class="cls-5"><g class="cls-6"><g class="cls-79"><g class="cls-78"><g class="cls-80"><rect class="cls-19" x="197.72" y="196.37" width="37.71" height="29.85" rx="4.71"/></g></g><g class="cls-80"><rect class="cls-20" x="197.72" y="196.37" width="37.71" height="29.85" rx="4.71"/></g></g></g></g></g><g class="cls-5"><line class="cls-81" x1="183.19" y1="19.6" x2="183.19" y2="333.86"/><line class="cls-81" x1="25.78" y1="176.1" x2="340.04" y2="176.1"/></g><g class="cls-82"><path class="cls-83" d="M272.77,259.67a10.65,10.65,0,0,0,4.35-8.6v-124a10.69,10.69,0,0,0-10.68-10.68H75.63A10.68,10.68,0,0,0,65,127.06v124a10.65,10.65,0,0,0,10.67,10.67h73.18a2.44,2.44,0,0,1,1.94,1,2.47,2.47,0,0,1,.38,2.14l-10.08,33.8"/></g><g class="cls-2"><rect class="cls-3" x="76.46" y="248.54" width="15.21" height="14.45"/></g><g class="cls-82"><rect class="cls-84" x="79.92" y="128.17" width="7.86" height="7.07"/></g><g class="cls-2"><rect class="cls-3" x="90.91" y="248.54" width="14.45" height="14.45"/></g><g class="cls-82"><rect class="cls-84" x="94.85" y="128.17" width="7.07" height="7.07"/></g><g class="cls-2"><rect class="cls-3" x="105.36" y="248.54" width="14.45" height="14.45"/></g><g class="cls-82"><rect class="cls-84" x="109.78" y="128.17" width="7.07" height="7.07"/></g><g class="cls-2"><rect class="cls-3" x="248.36" y="339.82" width="14.45" height="14.45"/></g><g class="cls-82"><rect class="cls-84" x="257.48" y="222.45" width="7.07" height="7.07"/><path class="cls-84" d="M77.57,225.59h61.28V192.74a2.49,2.49,0,0,0-2.49-2.5H126.28a2.49,2.49,0,0,0-2.48,2.5v32"/><path class="cls-84" d="M109.78,224.8V199.73a2.4,2.4,0,0,0-.72-1.71,2.46,2.46,0,0,0-1.74-.71h-10a2.44,2.44,0,0,0-2.46,2.42V224.8"/><path class="cls-84" d="M167.13,179.43V168.38a2.49,2.49,0,0,0-2.46-2.5h-10a2.49,2.49,0,0,0-2.46,2.5v25.78"/><path class="cls-84" d="M197,168.16V146.3a2.43,2.43,0,0,0-2.45-2.42h-10a2.43,2.43,0,0,0-2.45,2.42v25.08"/><path class="cls-84" d="M225.27,175.31V162a2.37,2.37,0,0,0-.73-1.71,2.5,2.5,0,0,0-1.74-.71h-10a2.44,2.44,0,0,0-2.46,2.42v9.64"/><path class="cls-84" d="M254.34,203.59V140a2.38,2.38,0,0,0-.72-1.7,2.46,2.46,0,0,0-1.74-.71h-10a2.44,2.44,0,0,0-2.46,2.41v42.32"/><line class="cls-83" x1="130.99" y1="298.65" x2="210.34" y2="298.65"/><line class="cls-83" x1="195.41" y1="284.51" x2="199.34" y2="298.65"/><line class="cls-84" x1="141.99" y1="240.12" x2="65" y2="240.12"/><line class="cls-84" x1="254.34" y1="240.12" x2="277.12" y2="240.12"/></g><g class="cls-82"><path class="cls-85" d="M199.59,258.75A33.39,33.39,0,1,1,233,225.36,33.38,33.38,0,0,1,199.59,258.75Zm0-80.13a46.75,46.75,0,1,0,46.75,46.73A46.76,46.76,0,0,0,199.58,178.62Z"/><path class="cls-20" d="M181.27,225.59a18.07,18.07,0,0,1,18.07-18.07"/></g><g class="cls-82"><path class="cls-85" d="M273.42,283.62l-34.59-32.89a46.6,46.6,0,0,1-12.78,13.21l34.57,32.87a9.31,9.31,0,0,0,9,2.28,9.11,9.11,0,0,0,3.79-15.47Z"/></g></svg>