<svg id="Layer_1" data-name="Layer 1" xmlns="http://www.w3.org/2000/svg" xmlns:xlink="http://www.w3.org/1999/xlink" viewBox="0 0 360 360"><defs><style>.cls-1,.cls-12,.cls-13,.cls-15,.cls-3,.cls-6,.cls-7{fill:none;}.cls-2{clip-path:url(#clip-path);}.cls-3,.cls-7{stroke:#ffbf00;}.cls-11,.cls-3,.cls-7{stroke-miterlimit:10;}.cls-4{clip-path:url(#clip-path-2);}.cls-5{fill:#fee28b;}.cls-6{stroke:#000;}.cls-13,.cls-15,.cls-6,.cls-7{stroke-linecap:round;}.cls-12,.cls-13,.cls-15,.cls-6{stroke-linejoin:round;}.cls-8{clip-path:url(#clip-path-5);}.cls-11,.cls-9{fill:#ffbf00;}.cls-10{clip-path:url(#clip-path-8);}.cls-11{stroke:#020202;}.cls-11,.cls-15{stroke-width:2px;}.cls-12,.cls-13,.cls-15{stroke:#fff;}.cls-12{stroke-width:5px;}.cls-13{stroke-width:7px;}.cls-14{clip-path:url(#clip-path-10);}</style><clipPath id="clip-path"><rect class="cls-1" x="8.73" y="28.62" width="314.26" height="314.26"/></clipPath><clipPath id="clip-path-2"><circle class="cls-1" cx="177.26" cy="146.07" r="62.46"/></clipPath><clipPath id="clip-path-5"><path class="cls-1" d="M237,112.49a.69.69,0,0,1,1-.17l8.67,6,1.73-10.38a.69.69,0,1,1,1.36.23l-1.91,11.44a.67.67,0,0,1-.41.52.68.68,0,0,1-.66-.06l-9.56-6.58a.81.81,0,0,1-.25-.3A.69.69,0,0,1,237,112.49Z"/></clipPath><clipPath id="clip-path-8"><path class="cls-1" d="M117.93,178.78a.68.68,0,0,1-1,.18l-8.66-6-1.73,10.42a.69.69,0,0,1-.8.56.68.68,0,0,1-.56-.8l1.91-11.48a.67.67,0,0,1,.41-.52.68.68,0,0,1,.66.06l9.55,6.6a.69.69,0,0,1,.25.31A.63.63,0,0,1,117.93,178.78Z"/></clipPath><clipPath id="clip-path-10"><path class="cls-1" d="M271.14,144.09l-1.57,0"/></clipPath></defs><g class="cls-2"><path class="cls-3" d="M229.27,219.49l.07.14a50.65,50.65,0,0,1,64.58-73.57A116.36,116.36,0,0,0,89,70.27a43.88,43.88,0,0,1,9.6,4.5c4.25-3.57,8.36-7.14,12.61-10.71.54-.41,1-.41,1.37,0l12.46,12.49a.93.93,0,0,1,0,1.38L114.37,90.55a46.5,46.5,0,0,1,5.75,14c5.62.54,11.1,1,16.58,1.37.68,0,1,.27,1,1V124.6c0,.68-.28,1-1,1-5.62.55-11.1,1-16.58,1.37a46.34,46.34,0,0,1-5.75,14l10.68,12.63c.41.55.41,1,0,1.37l-12.46,12.49a.92.92,0,0,1-1.37,0c-4.25-3.57-8.36-7.13-12.61-10.7a46.19,46.19,0,0,1-14,5.76c-.55,5.63-1,11.12-1.37,16.61,0,.69-.28,1-1,1H66.09a116.36,116.36,0,0,0,176.07,63A156.23,156.23,0,0,0,229.27,219.49Z"/></g><g class="cls-4"><g class="cls-2"><rect class="cls-5" x="110.87" y="79.68" width="132.77" height="132.77"/></g></g><g class="cls-2"><line class="cls-6" x1="257.78" y1="306.74" x2="284.5" y2="306.74"/><line class="cls-6" x1="249.14" y1="294.95" x2="293.92" y2="294.95"/><line class="cls-6" x1="249.14" y1="283.17" x2="293.92" y2="283.17"/><path class="cls-7" d="M152.11,75.91a74.24,74.24,0,0,1,94.66,42.62"/></g><g class="cls-8"><g class="cls-2"><rect class="cls-9" x="232.9" y="103.39" width="20.71" height="20.68"/></g></g><g class="cls-2"><path class="cls-7" d="M202.79,215.5a74.18,74.18,0,0,1-94.66-42.79"/></g><g class="cls-10"><g class="cls-2"><rect class="cls-9" x="101.28" y="167.18" width="20.71" height="20.73"/></g></g><path class="cls-11" d="M249.13,271.38H294A108.64,108.64,0,0,1,298,250,155.73,155.73,0,0,1,313.8,219.1l-.07.13a50.73,50.73,0,1,0-84.37,0l-.06-.13A155.69,155.69,0,0,1,245.14,250,105.5,105.5,0,0,1,249.13,271.38Z"/><rect class="cls-1" x="8.73" y="28.62" width="314.26" height="314.26"/><path class="cls-11" d="M92.7,136.61A28,28,0,0,1,52.89,135,28.44,28.44,0,0,1,54.53,94.9a28,28,0,0,1,39.82,1.65A28.44,28.44,0,0,1,92.7,136.61Zm43.92-30.7c-5.47-.41-10.94-.82-16.55-1.37a46.46,46.46,0,0,0-5.75-14L125,77.83a.93.93,0,0,0,0-1.38L112.54,63.93c-.41-.42-.82-.42-1.37,0-4.24,3.58-8.34,7.16-12.58,10.73a46.28,46.28,0,0,0-14-5.78c-.41-5.5-.82-11-1.37-16.52,0-.68-.27-1-1-1H64.66c-.69,0-1,.28-1,1-.41,5.51-.82,11-1.37,16.52a46.12,46.12,0,0,0-13.95,5.78C44.13,71.09,40,67.51,35.79,63.93a.9.9,0,0,0-1.37,0L22,76.45c-.41.42-.41.83,0,1.38,3.56,4.27,7.11,8.4,10.67,12.67a46.72,46.72,0,0,0-5.75,14c-5.47.41-10.94.82-16.41,1.37-.69,0-1,.28-1,1v17.75c0,.69.27,1,1,1,5.47.41,10.94.82,16.41,1.37A46.88,46.88,0,0,0,32.64,141c-3.56,4.26-7.11,8.39-10.67,12.66a.93.93,0,0,0,0,1.38l12.45,12.52a.82.82,0,0,0,1.37,0c4.24-3.58,8.34-7.16,12.59-10.73a46.12,46.12,0,0,0,13.95,5.78c.41,5.5.82,11,1.37,16.65,0,.69.27,1,1,1H82.31c.68,0,1-.28,1-1,.41-5.5.82-11,1.37-16.65a46.28,46.28,0,0,0,14-5.78c4.24,3.57,8.34,7.15,12.58,10.73a.9.9,0,0,0,1.37,0L125,155.06c.41-.42.41-.83,0-1.38L114.32,141A46.62,46.62,0,0,0,120.07,127c5.47-.41,10.94-.82,16.55-1.37.69,0,1-.28,1-1V106.88C137.58,106.19,137.31,105.91,136.62,105.91Z"/><line class="cls-12" x1="271.14" y1="209.89" x2="271.14" y2="269.6"/><ellipse class="cls-13" cx="271.46" cy="194.48" rx="15.25" ry="15.26"/><path class="cls-3" d="M62.14,162.2l-.11,0c.08.53.16,1,.25,1.57Z"/><rect class="cls-1" x="8.73" y="28.62" width="314.26" height="314.26"/><g class="cls-14"><g class="cls-2"><rect class="cls-9" x="265.64" y="140.16" width="9.43" height="7.89"/></g></g><g class="cls-2"><path class="cls-15" d="M271.14,144.09l-1.57,0"/></g><g class="cls-2"><path class="cls-15" d="M319.07,189.68a48.36,48.36,0,0,0-5.6-20.39,47.81,47.81,0,0,0-38.4-25.18"/></g></svg>