<svg id="Layer_1" data-name="Layer 1" xmlns="http://www.w3.org/2000/svg" xmlns:xlink="http://www.w3.org/1999/xlink" viewBox="0 0 360 360"><defs><style>.cls-1,.cls-20,.cls-23,.cls-25,.cls-3,.cls-34,.cls-4,.cls-44,.cls-45,.cls-46,.cls-5,.cls-6{fill:none;}.cls-2{clip-path:url(#clip-path);}.cls-3,.cls-4{stroke:#febf10;}.cls-20,.cls-23,.cls-25,.cls-3,.cls-34,.cls-4,.cls-44,.cls-45,.cls-46,.cls-5,.cls-6{stroke-miterlimit:10;}.cls-3,.cls-6{stroke-width:2px;}.cls-44,.cls-45,.cls-46,.cls-5,.cls-6{stroke:#000;}.cls-7{clip-path:url(#clip-path-7);}.cls-8{clip-path:url(#clip-path-8);}.cls-9{clip-path:url(#clip-path-9);}.cls-10{fill:#fde28b;}.cls-11{clip-path:url(#clip-path-11);}.cls-12{clip-path:url(#clip-path-13);}.cls-13{clip-path:url(#clip-path-15);}.cls-14{clip-path:url(#clip-path-17);}.cls-15{clip-path:url(#clip-path-19);}.cls-16{clip-path:url(#clip-path-21);}.cls-17{fill:#febf10;}.cls-18{clip-path:url(#clip-path-23);}.cls-19{fill:#fdbf14;}.cls-20,.cls-23,.cls-25,.cls-34{stroke:#010101;}.cls-20,.cls-34,.cls-45{stroke-width:0.25px;}.cls-21{clip-path:url(#clip-path-26);}.cls-22{clip-path:url(#clip-path-29);}.cls-24{clip-path:url(#clip-path-32);}.cls-25,.cls-34,.cls-44{stroke-linecap:round;}.cls-26{clip-path:url(#clip-path-35);}.cls-27{clip-path:url(#clip-path-37);}.cls-28{fill:#fff;}.cls-29{clip-path:url(#clip-path-38);}.cls-30{clip-path:url(#clip-path-39);}.cls-31{clip-path:url(#clip-path-40);}.cls-32{clip-path:url(#clip-path-41);}.cls-33{clip-path:url(#clip-path-42);}.cls-35{clip-path:url(#clip-path-45);}.cls-36{clip-path:url(#clip-path-48);}.cls-37{clip-path:url(#clip-path-51);}.cls-38{clip-path:url(#clip-path-54);}.cls-39{clip-path:url(#clip-path-57);}.cls-40{clip-path:url(#clip-path-60);}.cls-41{clip-path:url(#clip-path-63);}.cls-42{clip-path:url(#clip-path-64);}.cls-43{clip-path:url(#clip-path-66);}.cls-46{stroke-width:0.1px;}.cls-47{clip-path:url(#clip-path-69);}.cls-48{clip-path:url(#clip-path-72);}.cls-49{clip-path:url(#clip-path-75);}</style><clipPath id="clip-path"><rect class="cls-1" x="-357.13" y="8.61" width="314.26" height="314.26"/></clipPath><clipPath id="clip-path-7"><rect class="cls-1" x="-351.46" y="27.13" width="302.92" height="302.92"/></clipPath><clipPath id="clip-path-8"><rect class="cls-1" x="23.84" y="27.17" width="314.26" height="314.26"/></clipPath><clipPath id="clip-path-9"><ellipse class="cls-1" cx="79.48" cy="182.75" rx="55" ry="55.39"/></clipPath><clipPath id="clip-path-11"><ellipse class="cls-1" cx="291.61" cy="159.97" rx="45.57" ry="45.17"/></clipPath><clipPath id="clip-path-13"><ellipse class="cls-1" cx="202.83" cy="135.22" rx="11.78" ry="11"/></clipPath><clipPath id="clip-path-15"><circle class="cls-1" cx="221.29" cy="310.82" r="11.39"/></clipPath><clipPath id="clip-path-17"><ellipse class="cls-1" cx="186.33" cy="200.43" rx="11.78" ry="11"/></clipPath><clipPath id="clip-path-19"><ellipse class="cls-1" cx="169.44" cy="106.15" rx="10.61" ry="11"/></clipPath><clipPath id="clip-path-21"><polygon class="cls-1" points="227.18 307.38 226.48 312.31 218.85 312.78 216.97 307.28 227.18 307.38"/></clipPath><clipPath id="clip-path-23"><path class="cls-1" d="M168.85,99.87h-.22a.18.18,0,0,0-.12,0,.15.15,0,0,0,0,.11v2.34a.36.36,0,0,1-.17.38.42.42,0,0,1-.43,0,.37.37,0,0,1-.18-.38V100a.16.16,0,0,0-.05-.11.17.17,0,0,0-.12,0h-.17a.17.17,0,0,0-.12,0,.12.12,0,0,0,0,.11v2.34a.39.39,0,0,1-.18.38.42.42,0,0,1-.43,0,.39.39,0,0,1-.18-.38V100a.12.12,0,0,0,0-.11.16.16,0,0,0-.11,0h-.19a.17.17,0,0,0-.16.16v3.87a1.32,1.32,0,0,0,1.23,1.29V113a.23.23,0,0,0,.24.22h.2a.22.22,0,0,0,.23-.22v-7.81A1.3,1.3,0,0,0,169,103.9V100a.12.12,0,0,0,0-.12A.15.15,0,0,0,168.85,99.87Z"/></clipPath><clipPath id="clip-path-26"><path class="cls-1" d="M173,103c0-1.51-.66-3.06-1.57-3.12s-1.57,1.61-1.57,3.12.55,2.13,1.3,2.27V113a.2.2,0,0,0,.19.21h.16a.21.21,0,0,0,.2-.21v-7.75C172.43,105.12,173,104.35,173,103Z"/></clipPath><clipPath id="clip-path-29"><path class="cls-1" d="M84.19,183.93v4.75c0,3.89-2.28,7-5.1,7s-5.11-3.15-5.11-7V184l.28.28A12.87,12.87,0,0,0,76,185.79a6.1,6.1,0,0,0,1.58.82,4.66,4.66,0,0,0,2.86,0,6.21,6.21,0,0,0,1.57-.82,13,13,0,0,0,1.77-1.49Z"/></clipPath><clipPath id="clip-path-32"><polygon class="cls-1" points="299.23 166.57 299.23 181.58 312.03 181.58 312.03 158.63 292.78 143.08 273.54 158.63 273.54 181.58 286.35 181.58 286.35 166.57 299.23 166.57"/></clipPath><clipPath id="clip-path-35"><rect class="cls-1" x="179.26" y="194.93" width="12.57" height="10.21"/></clipPath><clipPath id="clip-path-37"><rect class="cls-1" x="180.83" y="198.86" width="7.07" height="0.79"/></clipPath><clipPath id="clip-path-38"><rect class="cls-1" x="180.83" y="200.43" width="7.07" height="0.79"/></clipPath><clipPath id="clip-path-39"><rect class="cls-1" x="180.83" y="199.65" width="5.5" height="0.39"/></clipPath><clipPath id="clip-path-40"><rect class="cls-1" x="180.83" y="199.65" width="3.93" height="0.79"/></clipPath><clipPath id="clip-path-41"><rect class="cls-1" x="180.04" y="195.72" width="11" height="2.36"/></clipPath><clipPath id="clip-path-42"><circle class="cls-1" cx="181.22" cy="196.9" r="0.39"/></clipPath><clipPath id="clip-path-45"><circle class="cls-1" cx="182.79" cy="196.9" r="0.39"/></clipPath><clipPath id="clip-path-48"><circle class="cls-1" cx="184.36" cy="196.9" r="0.39"/></clipPath><clipPath id="clip-path-51"><polygon class="cls-1" points="293.17 137.41 270.98 156.44 268.04 153 293.17 131.29 318.32 153 315.37 156.44 293.17 137.41"/></clipPath><clipPath id="clip-path-54"><path class="cls-1" d="M90.85,168.22a23.89,23.89,0,0,1-3.76-9,48,48,0,0,1-16.79,0,24.06,24.06,0,0,1-3.76,9,25.42,25.42,0,0,1-.93-11.43,8.64,8.64,0,0,1,2.28-4.35c2.82-2.64,8.7-3.08,10.8-3.08s8,.44,10.82,3.08a8.71,8.71,0,0,1,2.27,4.35A25.28,25.28,0,0,1,90.85,168.22Z"/></clipPath><clipPath id="clip-path-57"><path class="cls-1" d="M66.12,174.77a11.24,11.24,0,0,0,.44,2.58,13.57,13.57,0,0,0,2.73,4.6,19.92,19.92,0,0,0,5.83,5,8,8,0,0,0,1.87.72,7.24,7.24,0,0,0,3.4,0,8.11,8.11,0,0,0,1.88-.72,19.76,19.76,0,0,0,5.82-5,13.7,13.7,0,0,0,2.74-4.58,10.79,10.79,0,0,0,.43-2.59v-7.92A22.92,22.92,0,0,1,87.38,158,52.74,52.74,0,0,1,70,158a22.93,22.93,0,0,1-3.89,8.85Z"/></clipPath><clipPath id="clip-path-60"><path class="cls-1" d="M91.26,168.22v5.5a7,7,0,0,0,.78-3,4.21,4.21,0,0,0-.18-1.55A2.49,2.49,0,0,0,91.26,168.22Z"/></clipPath><clipPath id="clip-path-63"><path class="cls-1" d="M64.37,147.76v4.71a5.53,5.53,0,0,1-.78-2.58,3.28,3.28,0,0,1,.18-1.33A2,2,0,0,1,64.37,147.76Z"/></clipPath><clipPath id="clip-path-64"><rect class="cls-1" x="22.87" y="5.92" width="314.26" height="314.26"/></clipPath><clipPath id="clip-path-66"><path class="cls-1" d="M93.91,187.86H85.4v.86a5.94,5.94,0,1,1-11.82,0v-.86H65.69A9.29,9.29,0,0,0,58.77,191a11.24,11.24,0,0,0-2.86,7.6v11.11a.73.73,0,0,0,.18.5.63.63,0,0,0,.46.2q22.92,14.61,45.86,0a.61.61,0,0,0,.45-.2.69.69,0,0,0,.19-.5V198a10.53,10.53,0,0,0-2.63-7.19A8.72,8.72,0,0,0,93.91,187.86Z"/></clipPath><clipPath id="clip-path-69"><circle class="cls-1" cx="202.83" cy="134.44" r="4.71"/></clipPath><clipPath id="clip-path-72"><path class="cls-1" d="M202.83,137.58a3.14,3.14,0,1,1,2.22-.92,3.19,3.19,0,0,1-2.24.92Z"/></clipPath><clipPath id="clip-path-75"><path class="cls-1" d="M210.41,140l-3.24-3.19a4.58,4.58,0,0,1-1.2,1.28l3.24,3.19a.84.84,0,0,0,.84.21.88.88,0,0,0,.61-.63.93.93,0,0,0-.24-.86Z"/></clipPath></defs><g class="cls-2"><path class="cls-3" d="M283.69,253.86a10.65,10.65,0,0,0,4.35-8.6v-124a10.67,10.67,0,0,0-10.68-10.68H86.55a10.67,10.67,0,0,0-10.63,10.68v124a10.65,10.65,0,0,0,10.67,10.67h73.18a2.43,2.43,0,0,1,2.32,3.12L152,292.85"/></g><g class="cls-2"><rect class="cls-4" x="90.84" y="122.36" width="7.86" height="7.07"/></g><g class="cls-2"><rect class="cls-4" x="105.77" y="122.36" width="7.07" height="7.07"/></g><g class="cls-2"><rect class="cls-4" x="120.7" y="122.36" width="7.07" height="7.07"/></g><g class="cls-2"><rect class="cls-4" x="268.4" y="216.64" width="7.07" height="7.07"/><path class="cls-4" d="M88.49,219.78h61.28V186.93a2.49,2.49,0,0,0-2.49-2.5H137.21a2.49,2.49,0,0,0-2.49,2.5v32"/><path class="cls-4" d="M120.7,219V193.92a2.4,2.4,0,0,0-.72-1.71,2.46,2.46,0,0,0-1.74-.71h-10a2.44,2.44,0,0,0-2.47,2.42V219"/><path class="cls-4" d="M178.05,173.62V162.57a2.49,2.49,0,0,0-2.46-2.5h-10a2.49,2.49,0,0,0-2.46,2.5v25.79"/><path class="cls-4" d="M207.9,162.36V140.49a2.44,2.44,0,0,0-2.45-2.42h-10a2.44,2.44,0,0,0-2.46,2.42v25.08"/><path class="cls-4" d="M236.19,169.5V156.21a2.39,2.39,0,0,0-.73-1.72,2.45,2.45,0,0,0-1.74-.7h-10a2.44,2.44,0,0,0-2.46,2.42v9.63"/><path class="cls-4" d="M265.26,197.78V134.21a2.4,2.4,0,0,0-.72-1.71,2.46,2.46,0,0,0-1.74-.71h-10a2.44,2.44,0,0,0-2.47,2.42v42.31"/><line class="cls-3" x1="141.91" y1="292.85" x2="221.26" y2="292.85"/><line class="cls-3" x1="206.33" y1="278.71" x2="210.26" y2="292.85"/><line class="cls-4" x1="152.91" y1="234.32" x2="75.92" y2="234.32"/><line class="cls-4" x1="265.26" y1="234.32" x2="288.04" y2="234.32"/></g><g class="cls-2"><path class="cls-5" d="M210.51,252.94a33.39,33.39,0,1,1,33.38-33.38A33.37,33.37,0,0,1,210.51,252.94Zm0-80.13a46.75,46.75,0,1,0,46.75,46.74A46.74,46.74,0,0,0,210.5,172.81Z"/><path class="cls-6" d="M192.19,219.78a18.07,18.07,0,0,1,18.07-18.07"/></g><g class="cls-7"><path class="cls-5" d="M266.85,286.62l-33.33-31.7a45.12,45.12,0,0,1-12.32,12.73l33.32,31.69a9,9,0,0,0,8.68,2.19,8.78,8.78,0,0,0,3.65-14.91Z"/></g><g class="cls-8"><path class="cls-3" d="M203.61,146.22V332a8.65,8.65,0,0,0,17.29,0v-9.75"/><path class="cls-3" d="M169,117.15V239.26a8.65,8.65,0,0,0,17.29,0V210.77"/><path class="cls-3" d="M220.9,299.42V168.88a8.61,8.61,0,0,1,2.45-6,8.3,8.3,0,0,1,5.92-2.5h17.55"/><path class="cls-3" d="M203.61,124.5V98.16a8.45,8.45,0,0,0-4.32-7.36,8.76,8.76,0,0,0-8.64,0,8.47,8.47,0,0,0-4.32,7.36v91.27"/><path class="cls-3" d="M134.48,182.36h9.14a8.64,8.64,0,0,0,8.73-8.55V36.69a8.75,8.75,0,0,1,17.48,0V95.15"/></g><g class="cls-9"><g class="cls-8"><rect class="cls-10" x="20.56" y="123.44" width="117.85" height="118.63"/></g></g><g class="cls-11"><g class="cls-8"><rect class="cls-10" x="242.11" y="110.87" width="98.99" height="98.21"/></g></g><g class="cls-12"><g class="cls-8"><rect class="cls-10" x="187.11" y="120.3" width="31.43" height="29.85"/></g></g><g class="cls-13"><g class="cls-8"><rect class="cls-10" x="205.97" y="295.5" width="30.64" height="30.64"/></g></g><g class="cls-14"><g class="cls-8"><rect class="cls-10" x="170.62" y="185.5" width="31.43" height="29.85"/></g></g><g class="cls-15"><g class="cls-8"><rect class="cls-10" x="154.9" y="91.23" width="29.07" height="29.85"/></g></g><g class="cls-16"><g class="cls-8"><rect class="cls-17" x="213.04" y="303.35" width="18.07" height="13.36"/></g></g><g class="cls-18"><g class="cls-8"><rect class="cls-19" x="161.97" y="95.94" width="11" height="21.21"/></g></g><g class="cls-8"><path class="cls-20" d="M168.85,99.87h-.22a.18.18,0,0,0-.12,0,.15.15,0,0,0,0,.11v2.34a.37.37,0,0,1-.18.38.4.4,0,0,1-.42,0,.37.37,0,0,1-.18-.38V100a.16.16,0,0,0-.05-.11.17.17,0,0,0-.12,0h-.17a.17.17,0,0,0-.12,0,.12.12,0,0,0,0,.11v2.34a.39.39,0,0,1-.18.38.42.42,0,0,1-.43,0,.39.39,0,0,1-.18-.38V100a.12.12,0,0,0,0-.11.16.16,0,0,0-.11,0h-.19a.17.17,0,0,0-.16.16v3.87a1.32,1.32,0,0,0,1.23,1.29V113a.23.23,0,0,0,.24.22h.2a.22.22,0,0,0,.23-.22v-7.81A1.3,1.3,0,0,0,169,103.9V100a.12.12,0,0,0,0-.12A.15.15,0,0,0,168.85,99.87Z"/></g><g class="cls-21"><g class="cls-8"><rect class="cls-19" x="165.9" y="95.94" width="11" height="21.21"/></g></g><g class="cls-8"><path class="cls-20" d="M173,103c0-1.51-.66-3.06-1.57-3.12s-1.57,1.61-1.57,3.12.55,2.13,1.3,2.27V113a.2.2,0,0,0,.19.21h.16a.21.21,0,0,0,.2-.21v-7.75C172.43,105.12,173,104.35,173,103Z"/></g><g class="cls-22"><g class="cls-8"><rect class="cls-17" x="70.05" y="180.01" width="18.07" height="19.64"/></g></g><g class="cls-8"><path class="cls-23" d="M84.19,183.93v4.75c0,3.89-2.28,7-5.1,7s-5.11-3.15-5.11-7V184l.28.28A12.87,12.87,0,0,0,76,185.79a6.1,6.1,0,0,0,1.58.82,4.66,4.66,0,0,0,2.86,0,6.21,6.21,0,0,0,1.57-.82,13,13,0,0,0,1.77-1.49Z"/></g><g class="cls-24"><g class="cls-8"><rect class="cls-19" x="269.61" y="139.15" width="46.35" height="46.35"/></g></g><g class="cls-8"><polygon class="cls-25" points="299.23 166.57 299.23 181.58 312.03 181.58 312.03 158.63 292.78 143.08 273.54 158.63 273.54 181.58 286.35 181.58 286.35 166.57 299.23 166.57"/></g><g class="cls-26"><rect class="cls-19" x="175.33" y="191" width="20.43" height="18.07"/></g><g class="cls-8"><rect class="cls-25" x="179.26" y="194.93" width="12.57" height="10.21"/></g><g class="cls-27"><rect class="cls-28" x="176.9" y="194.93" width="14.93" height="8.64"/></g><g class="cls-29"><rect class="cls-28" x="176.9" y="196.5" width="14.93" height="8.64"/></g><g class="cls-30"><rect class="cls-28" x="176.9" y="195.72" width="13.36" height="8.25"/></g><g class="cls-31"><rect class="cls-28" x="176.9" y="195.72" width="11.78" height="8.64"/></g><g class="cls-32"><rect class="cls-10" x="176.12" y="191.79" width="18.86" height="10.21"/></g><g class="cls-33"><g class="cls-8"><rect class="cls-28" x="176.9" y="192.58" width="8.64" height="8.64"/></g></g><g class="cls-8"><circle class="cls-34" cx="181.22" cy="196.9" r="0.39"/></g><g class="cls-35"><g class="cls-8"><rect class="cls-28" x="178.47" y="192.58" width="8.64" height="8.64"/></g></g><g class="cls-8"><circle class="cls-34" cx="182.79" cy="196.9" r="0.39"/></g><g class="cls-36"><g class="cls-8"><rect class="cls-28" x="180.04" y="192.58" width="8.64" height="8.64"/></g></g><g class="cls-8"><circle class="cls-34" cx="184.36" cy="196.9" r="0.39"/></g><g class="cls-37"><g class="cls-8"><rect class="cls-19" x="264.11" y="127.37" width="58.14" height="33"/></g></g><g class="cls-8"><polygon class="cls-25" points="293.17 137.41 270.98 156.44 268.04 153 293.17 131.29 318.32 153 315.37 156.44 293.17 137.41"/></g><g class="cls-38"><g class="cls-8"><rect class="cls-17" x="61.41" y="145.44" width="34.57" height="26.71"/></g></g><g class="cls-8"><path class="cls-23" d="M90.85,168.22a23.89,23.89,0,0,1-3.76-9,48,48,0,0,1-16.79,0,24.06,24.06,0,0,1-3.76,9,25.42,25.42,0,0,1-.93-11.43,8.64,8.64,0,0,1,2.28-4.35c2.82-2.64,8.7-3.08,10.8-3.08s8,.44,10.82,3.08a8.71,8.71,0,0,1,2.27,4.35A25.28,25.28,0,0,1,90.85,168.22Z"/></g><g class="cls-39"><g class="cls-8"><rect class="cls-17" x="62.2" y="154.08" width="33" height="37.71"/></g></g><g class="cls-8"><path class="cls-23" d="M66.12,174.77a11.24,11.24,0,0,0,.44,2.58,13.57,13.57,0,0,0,2.73,4.6,19.92,19.92,0,0,0,5.83,5,8,8,0,0,0,1.87.72,7.24,7.24,0,0,0,3.4,0,8.11,8.11,0,0,0,1.88-.72,19.92,19.92,0,0,0,5.83-5,13.84,13.84,0,0,0,2.73-4.58,10.79,10.79,0,0,0,.43-2.59v-7.92A22.92,22.92,0,0,1,87.38,158,52.74,52.74,0,0,1,70,158a22.93,22.93,0,0,1-3.89,8.85Z"/></g><g class="cls-40"><g class="cls-8"><rect class="cls-17" x="87.34" y="164.29" width="8.64" height="13.36"/></g></g><g class="cls-8"><path class="cls-23" d="M91.26,168.22v5.5a7,7,0,0,0,.78-3,4.21,4.21,0,0,0-.18-1.55A2.49,2.49,0,0,0,91.26,168.22Z"/></g><g class="cls-41"><g class="cls-42"><rect class="cls-17" x="59.65" y="143.83" width="8.64" height="12.57"/></g></g><g class="cls-8"><path class="cls-23" d="M65.34,169v4.71a5.53,5.53,0,0,1-.78-2.58,3.28,3.28,0,0,1,.18-1.33A2,2,0,0,1,65.34,169Z"/><line class="cls-23" x1="77.12" y1="180.4" x2="81.05" y2="180.4"/></g><g class="cls-43"><g class="cls-8"><rect class="cls-17" x="51.98" y="183.93" width="55" height="37.71"/></g></g><g class="cls-8"><path class="cls-23" d="M93.91,187.86H85.4v.86a5.94,5.94,0,1,1-11.82,0v-.86H65.69A9.29,9.29,0,0,0,58.77,191a11.24,11.24,0,0,0-2.86,7.6v11.11a.73.73,0,0,0,.18.5.63.63,0,0,0,.46.2q22.92,14.61,45.86,0a.61.61,0,0,0,.45-.2.69.69,0,0,0,.19-.5V198a10.53,10.53,0,0,0-2.63-7.19A8.72,8.72,0,0,0,93.91,187.86Z"/><path class="cls-44" d="M214.61,304.14l1.4.14a.61.61,0,0,1,.51.44l2.68,8.06,7.14-.51a.44.44,0,0,0,.35-.38l.49-4.55a.27.27,0,0,0-.05-.19.19.19,0,0,0-.15-.08l-9.65-.07"/><path class="cls-44" d="M218.44,312.78l-1.24.74a.38.38,0,0,0-.18.53.87.87,0,0,0,.72.3h8.66"/><ellipse class="cls-5" cx="225.22" cy="315.92" rx="0.39" ry="0.79"/><circle class="cls-5" cx="217.75" cy="315.92" r="0.79"/><circle class="cls-45" cx="218.15" cy="315.53" r="0.39"/><ellipse class="cls-45" cx="225.81" cy="315.53" rx="0.2" ry="0.39"/><line class="cls-46" x1="219.72" y1="307.28" x2="219.72" y2="312.76"/><line class="cls-46" x1="223.45" y1="307.28" x2="223.45" y2="311.99"/><line class="cls-46" x1="221.09" y1="307.28" x2="221.09" y2="311.99"/><line class="cls-46" x1="224.43" y1="307.28" x2="224.43" y2="311.99"/><line class="cls-46" x1="218.81" y1="307.07" x2="218.81" y2="311.19"/><line class="cls-46" x1="222.22" y1="307.09" x2="222.22" y2="311.98"/><line class="cls-46" x1="225.88" y1="307.09" x2="225.88" y2="311.98"/><line class="cls-46" x1="217.38" y1="308.45" x2="226.99" y2="308.45"/><line class="cls-46" x1="218.54" y1="311.63" x2="226.4" y2="311.57"/><line class="cls-46" x1="218.15" y1="310.03" x2="226.4" y2="310"/></g><g class="cls-47"><g class="cls-8"><rect class="cls-19" x="194.19" y="125.8" width="17.28" height="17.28"/></g></g><g class="cls-8"><circle class="cls-23" cx="202.83" cy="134.44" r="4.71"/></g><g class="cls-48"><g class="cls-8"><rect class="cls-19" x="195.76" y="127.37" width="14.14" height="14.14"/></g></g><g class="cls-8"><path class="cls-20" d="M202.83,137.58a3.14,3.14,0,1,1,2.22-.92,3.19,3.19,0,0,1-2.24.92Z"/><path class="cls-20" d="M201.26,134.44a1.33,1.33,0,0,1,.68-1.11,3.05,3.05,0,0,1,1.67-.46"/></g><g class="cls-49"><g class="cls-8"><rect class="cls-10" x="202.04" y="132.87" width="12.57" height="12.57"/></g></g><g class="cls-8"><path class="cls-23" d="M210.41,140l-3.24-3.19a4.45,4.45,0,0,1-1.2,1.28l3.24,3.19a.84.84,0,0,0,.84.21.88.88,0,0,0,.61-.63.93.93,0,0,0-.24-.86Z"/></g></svg>