<svg id="Layer_1" data-name="Layer 1" xmlns="http://www.w3.org/2000/svg" xmlns:xlink="http://www.w3.org/1999/xlink" viewBox="0 0 360 360"><defs><style>.cls-1,.cls-10,.cls-17,.cls-2,.cls-22,.cls-23,.cls-24,.cls-28,.cls-3,.cls-9{fill:none;}.cls-1{clip-rule:evenodd;}.cls-3{fill-rule:evenodd;}.cls-4{clip-path:url(#clip-path);}.cls-5{clip-path:url(#clip-path-2);}.cls-6{isolation:isolate;}.cls-7{clip-path:url(#clip-path-3);}.cls-8{clip-path:url(#clip-path-4);}.cls-10,.cls-17,.cls-23,.cls-24,.cls-9{stroke:#ffbf00;}.cls-10,.cls-17,.cls-22,.cls-23,.cls-24,.cls-28,.cls-9{stroke-miterlimit:10;}.cls-22,.cls-9{stroke-width:2px;}.cls-10,.cls-24{stroke-width:5px;}.cls-11{clip-path:url(#clip-path-6);}.cls-12{clip-path:url(#clip-path-8);}.cls-13{clip-path:url(#clip-path-9);}.cls-14{clip-path:url(#clip-path-10);}.cls-15{clip-path:url(#clip-path-12);}.cls-16{clip-path:url(#clip-path-13);}.cls-18{clip-path:url(#clip-path-15);}.cls-19{clip-path:url(#clip-path-17);}.cls-20{clip-path:url(#clip-path-19);}.cls-21{fill:#ffbf00;}.cls-22,.cls-28{stroke:#000;}.cls-23{stroke-width:8px;}.cls-24{stroke-linecap:round;}.cls-25{clip-path:url(#clip-path-22);}.cls-26{clip-path:url(#clip-path-24);}.cls-27{clip-path:url(#clip-path-26);}.cls-28{stroke-width:4px;}.cls-29{clip-path:url(#clip-path-28);}.cls-30{clip-path:url(#clip-path-30);}.cls-31{clip-path:url(#clip-path-32);}</style><clipPath id="clip-path"><path class="cls-1" d="M48.61,248.13h80.63a1.53,1.53,0,0,1,1.52,1.53v29.66H47.09V249.66A1.53,1.53,0,0,1,48.61,248.13Z"/></clipPath><clipPath id="clip-path-2"><rect class="cls-2" x="26.55" y="23.75" width="304.25" height="304.25"/></clipPath><clipPath id="clip-path-3"><rect class="cls-2" x="39.48" y="240.53" width="98.88" height="46.4"/></clipPath><clipPath id="clip-path-4"><rect class="cls-2" x="47.09" y="248.13" width="83.67" height="31.19"/></clipPath><clipPath id="clip-path-6"><rect class="cls-2" x="39.48" y="71.67" width="97.36" height="48.68" rx="1.52"/></clipPath><clipPath id="clip-path-8"><rect class="cls-2" x="31.88" y="64.06" width="112.57" height="63.89"/></clipPath><clipPath id="clip-path-9"><rect class="cls-2" x="39.48" y="71.67" width="97.36" height="48.68"/></clipPath><clipPath id="clip-path-10"><rect class="cls-2" x="47.09" y="138.6" width="83.67" height="79.87" rx="1.52"/></clipPath><clipPath id="clip-path-12"><rect class="cls-2" x="39.48" y="131" width="98.88" height="95.08"/></clipPath><clipPath id="clip-path-13"><rect class="cls-2" x="47.09" y="138.6" width="83.67" height="79.87"/></clipPath><clipPath id="clip-path-15"><ellipse class="cls-2" cx="101.48" cy="185.76" rx="8.75" ry="9.13"/></clipPath><clipPath id="clip-path-17"><rect class="cls-2" x="85.12" y="169.03" width="32.71" height="33.47"/></clipPath><clipPath id="clip-path-19"><rect class="cls-2" x="92.73" y="176.64" width="17.49" height="18.26"/></clipPath><clipPath id="clip-path-22"><path class="cls-1" d="M136.85,64.82H41a5.33,5.33,0,0,0-5.33,5.33V273.24A5.33,5.33,0,0,0,41,278.56h95.84a5.32,5.32,0,0,0,5.32-5.32V70.15A5.33,5.33,0,0,0,136.85,64.82Zm10.64-9.89a5.33,5.33,0,0,1,5.33,5.33v243.4a5.33,5.33,0,0,1-5.33,5.33H31.12a5.33,5.33,0,0,1-5.33-5.33V60.26a5.33,5.33,0,0,1,5.33-5.33Z"/></clipPath><clipPath id="clip-path-24"><rect class="cls-2" x="10.58" y="39.72" width="157.45" height="284.48"/></clipPath><clipPath id="clip-path-26"><rect class="cls-2" x="26.55" y="54.93" width="126.27" height="254.05"/></clipPath><clipPath id="clip-path-28"><path class="cls-1" d="M315.6,64.82H219.76a5.33,5.33,0,0,0-5.33,5.33V273.24a5.32,5.32,0,0,0,5.33,5.32H315.6a5.32,5.32,0,0,0,5.32-5.32V70.15A5.33,5.33,0,0,0,315.6,64.82Zm10.64-9.89a5.33,5.33,0,0,1,5.33,5.33v243.4a5.33,5.33,0,0,1-5.33,5.33H209.87a5.33,5.33,0,0,1-5.33-5.33V60.26a5.33,5.33,0,0,1,5.33-5.33Z"/></clipPath><clipPath id="clip-path-30"><rect class="cls-2" x="189.33" y="39.72" width="157.45" height="284.48"/></clipPath><clipPath id="clip-path-32"><rect class="cls-2" x="204.54" y="54.93" width="126.27" height="254.05"/></clipPath></defs><g class="cls-4"><g class="cls-5"><g class="cls-6"><g class="cls-7"><g class="cls-8"><path class="cls-9" d="M48.61,248.13h80.63a1.53,1.53,0,0,1,1.52,1.53v29.66H47.09V249.66A1.53,1.53,0,0,1,48.61,248.13Z"/></g></g></g></g></g><g class="cls-5"><path class="cls-10" d="M110.22,185H172a7.6,7.6,0,0,0,7.61-7.6V169a7.61,7.61,0,0,1,7.61-7.61h53.09"/></g><g class="cls-11"><g class="cls-5"><g class="cls-6"><g class="cls-12"><g class="cls-13"><rect class="cls-9" x="39.48" y="71.67" width="97.36" height="48.68" rx="1.52"/></g></g></g></g></g><g class="cls-14"><g class="cls-5"><g class="cls-6"><g class="cls-15"><g class="cls-16"><rect class="cls-9" x="47.09" y="138.6" width="83.67" height="79.87" rx="1.52"/></g></g></g></g></g><g class="cls-5"><line class="cls-17" x1="135.64" y1="74.05" x2="40.69" y2="118.79"/><line class="cls-17" x1="323.52" y1="216.29" x2="214.88" y2="277.77"/></g><g class="cls-18"><g class="cls-5"><g class="cls-6"><g class="cls-19"><g class="cls-18"><g class="cls-20"><ellipse class="cls-21" cx="101.48" cy="185.76" rx="8.75" ry="9.13"/></g></g><g class="cls-20"><ellipse class="cls-22" cx="101.48" cy="185.76" rx="8.75" ry="9.13"/></g></g></g></g></g><g class="cls-5"><line class="cls-23" x1="229.64" y1="85.74" x2="280.61" y2="85.74"/><line class="cls-23" x1="229.64" y1="102.55" x2="306.96" y2="102.56"/><line class="cls-23" x1="229.64" y1="117.46" x2="297.06" y2="117.49"/><line class="cls-23" x1="229.64" y1="132.21" x2="274.25" y2="132.23"/><line class="cls-23" x1="47.09" y1="129.4" x2="76.49" y2="129.42"/><line class="cls-23" x1="47.09" y1="239.46" x2="59" y2="239.48"/><line class="cls-23" x1="62.3" y1="239.46" x2="84.09" y2="239.48"/><line class="cls-23" x1="254.74" y1="161.88" x2="317.55" y2="161.89"/><line class="cls-23" x1="254.74" y1="179.37" x2="306.9" y2="179.39"/><line class="cls-23" x1="254.74" y1="196.11" x2="306.9" y2="196.12"/><line class="cls-17" x1="214.88" y1="215.4" x2="323.52" y2="215.4"/><polyline class="cls-24" points="232.69 152.29 240.29 161.88 232.69 170.55"/></g><g class="cls-25"><g class="cls-5"><g class="cls-6"><g class="cls-26"><g class="cls-25"><g class="cls-27"><path class="cls-21" d="M136.85,64.82H41a5.33,5.33,0,0,0-5.33,5.33V273.24A5.33,5.33,0,0,0,41,278.56h95.84a5.32,5.32,0,0,0,5.32-5.32V70.15A5.33,5.33,0,0,0,136.85,64.82Zm10.64-9.89a5.33,5.33,0,0,1,5.33,5.33v243.4a5.33,5.33,0,0,1-5.33,5.33H31.12a5.33,5.33,0,0,1-5.33-5.33V60.26a5.33,5.33,0,0,1,5.33-5.33Z"/></g></g><g class="cls-27"><path class="cls-28" d="M136.85,64.82H41a5.33,5.33,0,0,0-5.33,5.33V273.24A5.33,5.33,0,0,0,41,278.56h95.84a5.32,5.32,0,0,0,5.32-5.32V70.15A5.33,5.33,0,0,0,136.85,64.82Zm10.64-9.89a5.33,5.33,0,0,1,5.33,5.33v243.4a5.33,5.33,0,0,1-5.33,5.33H31.12a5.33,5.33,0,0,1-5.33-5.33V60.26a5.33,5.33,0,0,1,5.33-5.33Z"/></g></g></g></g></g><g class="cls-29"><g class="cls-5"><g class="cls-6"><g class="cls-30"><g class="cls-29"><g class="cls-31"><path class="cls-21" d="M315.6,64.82H219.76a5.33,5.33,0,0,0-5.33,5.33V273.24a5.32,5.32,0,0,0,5.33,5.32H315.6a5.32,5.32,0,0,0,5.32-5.32V70.15A5.33,5.33,0,0,0,315.6,64.82Zm10.64-9.89a5.33,5.33,0,0,1,5.33,5.33v243.4a5.33,5.33,0,0,1-5.33,5.33H209.87a5.33,5.33,0,0,1-5.33-5.33V60.26a5.33,5.33,0,0,1,5.33-5.33Z"/></g></g><g class="cls-31"><path class="cls-28" d="M315.6,64.82H219.76a5.33,5.33,0,0,0-5.33,5.33V273.24a5.32,5.32,0,0,0,5.33,5.32H315.6a5.32,5.32,0,0,0,5.32-5.32V70.15A5.33,5.33,0,0,0,315.6,64.82Zm10.64-9.89a5.33,5.33,0,0,1,5.33,5.33v243.4a5.33,5.33,0,0,1-5.33,5.33H209.87a5.33,5.33,0,0,1-5.33-5.33V60.26a5.33,5.33,0,0,1,5.33-5.33Z"/></g></g></g></g></g></svg>