<svg id="Layer_1" data-name="Layer 1" xmlns="http://www.w3.org/2000/svg" xmlns:xlink="http://www.w3.org/1999/xlink" viewBox="0 0 360 360"><defs><style>.cls-1,.cls-14,.cls-5,.cls-6,.cls-7,.cls-8{fill:none;}.cls-2{clip-path:url(#clip-path);}.cls-3{fill:#fee28b;}.cls-4{clip-path:url(#clip-path-2);}.cls-5,.cls-6{stroke:#febf10;}.cls-14,.cls-5,.cls-6,.cls-7,.cls-8{stroke-miterlimit:10;}.cls-14,.cls-5,.cls-8{stroke-width:2px;}.cls-7,.cls-8{stroke:#000;}.cls-9{clip-path:url(#clip-path-13);}.cls-10{clip-path:url(#clip-path-14);}.cls-11{isolation:isolate;}.cls-12{clip-path:url(#clip-path-15);}.cls-13{clip-path:url(#clip-path-17);}.cls-14{stroke:#ffbf00;}.cls-15{clip-path:url(#clip-path-19);}.cls-16{clip-path:url(#clip-path-21);}.cls-17{clip-path:url(#clip-path-23);}.cls-18{clip-path:url(#clip-path-25);}.cls-19{clip-path:url(#clip-path-27);}.cls-20{clip-path:url(#clip-path-29);}.cls-21{clip-path:url(#clip-path-31);}.cls-22{clip-path:url(#clip-path-33);}.cls-23{clip-path:url(#clip-path-35);}.cls-24{clip-path:url(#clip-path-37);}.cls-25{clip-path:url(#clip-path-39);}.cls-26{clip-path:url(#clip-path-41);}.cls-27{clip-path:url(#clip-path-43);}.cls-28{clip-path:url(#clip-path-45);}.cls-29{clip-path:url(#clip-path-47);}.cls-30{clip-path:url(#clip-path-49);}.cls-31{clip-path:url(#clip-path-51);}.cls-32{clip-path:url(#clip-path-53);}.cls-33{clip-path:url(#clip-path-55);}.cls-34{clip-path:url(#clip-path-57);}.cls-35{clip-path:url(#clip-path-59);}.cls-36{clip-path:url(#clip-path-61);}.cls-37{clip-path:url(#clip-path-63);}.cls-38{clip-path:url(#clip-path-65);}.cls-39{clip-path:url(#clip-path-67);}.cls-40{clip-path:url(#clip-path-69);}.cls-41{clip-path:url(#clip-path-71);}.cls-42{clip-path:url(#clip-path-73);}.cls-43{clip-path:url(#clip-path-75);}.cls-44{clip-path:url(#clip-path-77);}.cls-45{clip-path:url(#clip-path-79);}.cls-46{clip-path:url(#clip-path-81);}.cls-47{clip-path:url(#clip-path-83);}.cls-48{fill:#ffbf00;}.cls-49{clip-path:url(#clip-path-85);}.cls-50{clip-path:url(#clip-path-87);}.cls-51{clip-path:url(#clip-path-89);}</style><clipPath id="clip-path"><path class="cls-1" d="M-733.45,783.43Z"/></clipPath><clipPath id="clip-path-2"><rect class="cls-1" x="-354.34" y="19.21" width="314.26" height="314.26"/></clipPath><clipPath id="clip-path-13"><rect class="cls-1" x="140.16" y="135.58" width="58.92" height="28.28" rx="4.71"/></clipPath><clipPath id="clip-path-14"><rect class="cls-1" x="22.31" y="20.88" width="314.26" height="314.26"/></clipPath><clipPath id="clip-path-15"><rect class="cls-1" x="132.3" y="127.73" width="74.64" height="44"/></clipPath><clipPath id="clip-path-17"><rect class="cls-1" x="140.16" y="135.58" width="58.92" height="28.28"/></clipPath><clipPath id="clip-path-19"><rect class="cls-1" x="140.16" y="88.44" width="58.92" height="28.28" rx="4.71"/></clipPath><clipPath id="clip-path-21"><rect class="cls-1" x="132.3" y="80.59" width="74.64" height="44"/></clipPath><clipPath id="clip-path-23"><rect class="cls-1" x="140.16" y="88.44" width="58.92" height="28.28"/></clipPath><clipPath id="clip-path-25"><rect class="cls-1" x="24.67" y="137.15" width="55.78" height="27.5" rx="4.71"/></clipPath><clipPath id="clip-path-27"><rect class="cls-1" x="16.81" y="129.3" width="71.49" height="43.21"/></clipPath><clipPath id="clip-path-29"><rect class="cls-1" x="24.67" y="137.15" width="55.78" height="27.5"/></clipPath><clipPath id="clip-path-31"><rect class="cls-1" x="24.67" y="88.44" width="55.78" height="28.28" rx="4.71"/></clipPath><clipPath id="clip-path-33"><rect class="cls-1" x="16.81" y="80.59" width="71.49" height="44"/></clipPath><clipPath id="clip-path-35"><rect class="cls-1" x="24.67" y="88.44" width="55.78" height="28.28"/></clipPath><clipPath id="clip-path-37"><rect class="cls-1" x="24.67" y="206.29" width="55" height="28.28" rx="4.71"/></clipPath><clipPath id="clip-path-39"><rect class="cls-1" x="16.81" y="198.43" width="70.71" height="44"/></clipPath><clipPath id="clip-path-41"><rect class="cls-1" x="24.67" y="206.29" width="55" height="28.28"/></clipPath><clipPath id="clip-path-43"><rect class="cls-1" x="199.08" y="206.29" width="55" height="28.28" rx="4.71"/></clipPath><clipPath id="clip-path-45"><rect class="cls-1" x="191.23" y="198.43" width="70.71" height="44"/></clipPath><clipPath id="clip-path-47"><rect class="cls-1" x="199.08" y="206.29" width="55" height="28.28"/></clipPath><clipPath id="clip-path-49"><rect class="cls-1" x="280.01" y="206.29" width="55" height="28.28" rx="4.71"/></clipPath><clipPath id="clip-path-51"><rect class="cls-1" x="272.15" y="198.43" width="70.71" height="44"/></clipPath><clipPath id="clip-path-53"><rect class="cls-1" x="280.01" y="206.29" width="55" height="28.28"/></clipPath><clipPath id="clip-path-55"><rect class="cls-1" x="280.01" y="255" width="55" height="27.5" rx="4.71"/></clipPath><clipPath id="clip-path-57"><rect class="cls-1" x="272.15" y="247.14" width="70.71" height="43.21"/></clipPath><clipPath id="clip-path-59"><rect class="cls-1" x="280.01" y="255" width="55" height="27.5"/></clipPath><clipPath id="clip-path-61"><rect class="cls-1" x="280.01" y="303.71" width="55" height="28.28" rx="4.71"/></clipPath><clipPath id="clip-path-63"><rect class="cls-1" x="272.15" y="295.86" width="70.71" height="44"/></clipPath><clipPath id="clip-path-65"><rect class="cls-1" x="280.01" y="303.71" width="55" height="28.28"/></clipPath><clipPath id="clip-path-67"><rect class="cls-1" x="203.8" y="304.5" width="55" height="28.28" rx="4.71"/></clipPath><clipPath id="clip-path-69"><rect class="cls-1" x="195.94" y="296.64" width="70.71" height="44"/></clipPath><clipPath id="clip-path-71"><rect class="cls-1" x="203.8" y="304.5" width="55" height="28.28"/></clipPath><clipPath id="clip-path-73"><rect class="cls-1" x="256.44" y="87.66" width="58.14" height="29.07" rx="4.71"/></clipPath><clipPath id="clip-path-75"><rect class="cls-1" x="248.58" y="79.8" width="73.85" height="44.78"/></clipPath><clipPath id="clip-path-77"><rect class="cls-1" x="256.44" y="87.66" width="58.14" height="29.07"/></clipPath><clipPath id="clip-path-79"><rect class="cls-1" x="141.73" y="24.81" width="55" height="28.28" rx="4.71"/></clipPath><clipPath id="clip-path-81"><rect class="cls-1" x="133.87" y="16.95" width="70.71" height="44"/></clipPath><clipPath id="clip-path-83"><rect class="cls-1" x="141.73" y="24.81" width="55" height="28.28"/></clipPath><clipPath id="clip-path-85"><rect class="cls-1" x="114.23" y="206.29" width="58.92" height="28.28" rx="4.71"/></clipPath><clipPath id="clip-path-87"><rect class="cls-1" x="106.38" y="198.43" width="74.64" height="44"/></clipPath><clipPath id="clip-path-89"><rect class="cls-1" x="114.23" y="206.29" width="58.92" height="28.28"/></clipPath></defs><g class="cls-2"><rect class="cls-3" x="193.16" y="-10.84" width="14.45" height="14.45"/></g><g class="cls-4"><path class="cls-5" d="M286.48,264.46a10.65,10.65,0,0,0,4.35-8.6v-124a10.67,10.67,0,0,0-10.67-10.68H89.34a10.68,10.68,0,0,0-10.63,10.68v124a10.67,10.67,0,0,0,10.68,10.67h73.17a2.44,2.44,0,0,1,1.94,1,2.41,2.41,0,0,1,.38,2.14l-10.08,33.8"/></g><g class="cls-2"><rect class="cls-3" x="21.25" y="248.54" width="15.21" height="14.45"/></g><g class="cls-4"><rect class="cls-6" x="93.64" y="132.96" width="7.86" height="7.07"/></g><g class="cls-2"><rect class="cls-3" x="35.7" y="248.54" width="14.45" height="14.45"/></g><g class="cls-4"><rect class="cls-6" x="108.56" y="132.96" width="7.07" height="7.07"/></g><g class="cls-2"><rect class="cls-3" x="50.16" y="248.54" width="14.45" height="14.45"/></g><g class="cls-4"><rect class="cls-6" x="123.49" y="132.96" width="7.07" height="7.07"/></g><g class="cls-2"><rect class="cls-3" x="193.16" y="339.82" width="14.45" height="14.45"/></g><g class="cls-4"><rect class="cls-6" x="271.19" y="227.24" width="7.07" height="7.07"/><path class="cls-6" d="M91.28,230.38h61.28V197.53a2.49,2.49,0,0,0-2.48-2.5H140a2.5,2.5,0,0,0-2.49,2.5v32"/><path class="cls-6" d="M123.49,229.59V204.52a2.39,2.39,0,0,0-.71-1.71,2.48,2.48,0,0,0-1.74-.71H111a2.45,2.45,0,0,0-2.47,2.42v25.07"/><path class="cls-6" d="M180.84,184.22V173.17a2.48,2.48,0,0,0-2.45-2.5h-10a2.48,2.48,0,0,0-2.45,2.5V199"/><path class="cls-6" d="M210.7,173V151.09a2.44,2.44,0,0,0-2.46-2.42h-10a2.44,2.44,0,0,0-2.46,2.42v25.08"/><path class="cls-6" d="M239,180.1V166.8a2.4,2.4,0,0,0-.72-1.71,2.53,2.53,0,0,0-1.75-.71h-10a2.45,2.45,0,0,0-2.47,2.42v9.64"/><path class="cls-6" d="M268.05,208.38V144.8a2.34,2.34,0,0,0-.72-1.7,2.44,2.44,0,0,0-1.74-.71h-10a2.44,2.44,0,0,0-2.47,2.41v42.32"/><line class="cls-5" x1="144.7" y1="303.45" x2="224.05" y2="303.45"/><line class="cls-5" x1="209.13" y1="289.3" x2="213.06" y2="303.45"/><line class="cls-6" x1="155.7" y1="244.91" x2="78.71" y2="244.91"/><line class="cls-6" x1="268.05" y1="244.91" x2="290.83" y2="244.91"/></g><g class="cls-4"><path class="cls-7" d="M213.31,263.54a33.39,33.39,0,1,1,33.38-33.39A33.39,33.39,0,0,1,213.31,263.54Zm0-80.13A46.75,46.75,0,1,0,260,230.14,46.74,46.74,0,0,0,213.3,183.41Z"/><path class="cls-8" d="M195,230.38a18.07,18.07,0,0,1,18.07-18.07"/></g><g class="cls-4"><path class="cls-7" d="M287.13,288.41l-34.58-32.89a46.74,46.74,0,0,1-12.78,13.21l34.56,32.87a9.32,9.32,0,0,0,9,2.28,9.11,9.11,0,0,0,3.78-15.47Z"/></g><g class="cls-9"><g class="cls-10"><g class="cls-11"><g class="cls-12"><g class="cls-9"><g class="cls-13"><rect class="cls-3" x="140.16" y="135.58" width="58.92" height="28.28" rx="4.71"/></g></g><g class="cls-13"><rect class="cls-14" x="140.16" y="135.58" width="58.92" height="28.28" rx="4.71"/></g></g></g></g></g><g class="cls-15"><g class="cls-10"><g class="cls-11"><g class="cls-16"><g class="cls-15"><g class="cls-17"><rect class="cls-3" x="140.16" y="88.44" width="58.92" height="28.28" rx="4.71"/></g></g><g class="cls-17"><rect class="cls-14" x="140.16" y="88.44" width="58.92" height="28.28" rx="4.71"/></g></g></g></g></g><g class="cls-18"><g class="cls-10"><g class="cls-11"><g class="cls-19"><g class="cls-18"><g class="cls-20"><rect class="cls-3" x="24.67" y="137.15" width="55.78" height="27.5" rx="4.71"/></g></g><g class="cls-20"><rect class="cls-14" x="24.67" y="137.15" width="55.78" height="27.5" rx="4.71"/></g></g></g></g></g><g class="cls-21"><g class="cls-10"><g class="cls-11"><g class="cls-22"><g class="cls-21"><g class="cls-23"><rect class="cls-3" x="24.67" y="88.44" width="55.78" height="28.28" rx="4.71"/></g></g><g class="cls-23"><rect class="cls-14" x="24.67" y="88.44" width="55.78" height="28.28" rx="4.71"/></g></g></g></g></g><g class="cls-24"><g class="cls-10"><g class="cls-11"><g class="cls-25"><g class="cls-24"><g class="cls-26"><rect class="cls-3" x="24.67" y="206.29" width="55" height="28.28" rx="4.71"/></g></g><g class="cls-26"><rect class="cls-14" x="24.67" y="206.29" width="55" height="28.28" rx="4.71"/></g></g></g></g></g><g class="cls-27"><g class="cls-10"><g class="cls-11"><g class="cls-28"><g class="cls-27"><g class="cls-29"><rect class="cls-3" x="199.08" y="206.29" width="55" height="28.28" rx="4.71"/></g></g><g class="cls-29"><rect class="cls-14" x="199.08" y="206.29" width="55" height="28.28" rx="4.71"/></g></g></g></g></g><g class="cls-30"><g class="cls-10"><g class="cls-11"><g class="cls-31"><g class="cls-30"><g class="cls-32"><rect class="cls-3" x="280.01" y="206.29" width="55" height="28.28" rx="4.71"/></g></g><g class="cls-32"><rect class="cls-14" x="280.01" y="206.29" width="55" height="28.28" rx="4.71"/></g></g></g></g></g><g class="cls-33"><g class="cls-10"><g class="cls-11"><g class="cls-34"><g class="cls-33"><g class="cls-35"><rect class="cls-3" x="280.01" y="255" width="55" height="27.5" rx="4.71"/></g></g><g class="cls-35"><rect class="cls-14" x="280.01" y="255" width="55" height="27.5" rx="4.71"/></g></g></g></g></g><g class="cls-36"><g class="cls-10"><g class="cls-11"><g class="cls-37"><g class="cls-36"><g class="cls-38"><rect class="cls-3" x="280.01" y="303.71" width="55" height="28.28" rx="4.71"/></g></g><g class="cls-38"><rect class="cls-14" x="280.01" y="303.71" width="55" height="28.28" rx="4.71"/></g></g></g></g></g><g class="cls-39"><g class="cls-10"><g class="cls-11"><g class="cls-40"><g class="cls-39"><g class="cls-41"><rect class="cls-3" x="203.8" y="304.5" width="55" height="28.28" rx="4.71"/></g></g><g class="cls-41"><rect class="cls-14" x="203.8" y="304.5" width="55" height="28.28" rx="4.71"/></g></g></g></g></g><g class="cls-42"><g class="cls-10"><g class="cls-11"><g class="cls-43"><g class="cls-42"><g class="cls-44"><rect class="cls-3" x="256.44" y="87.66" width="58.14" height="29.07" rx="4.71"/></g></g><g class="cls-44"><rect class="cls-14" x="256.44" y="87.66" width="58.14" height="29.07" rx="4.71"/></g></g></g></g></g><g class="cls-45"><g class="cls-10"><g class="cls-11"><g class="cls-46"><g class="cls-45"><g class="cls-47"><rect class="cls-48" x="141.73" y="24.81" width="55" height="28.28" rx="4.71"/></g></g><g class="cls-47"><rect class="cls-8" x="141.73" y="24.81" width="55" height="28.28" rx="4.71"/></g></g></g></g></g><g class="cls-49"><g class="cls-10"><g class="cls-11"><g class="cls-50"><g class="cls-49"><g class="cls-51"><rect class="cls-48" x="114.23" y="206.29" width="58.92" height="28.28" rx="4.71"/></g></g><g class="cls-51"><rect class="cls-8" x="114.23" y="206.29" width="58.92" height="28.28" rx="4.71"/></g></g></g></g></g><g class="cls-10"><line class="cls-7" x1="168.84" y1="53.09" x2="168.84" y2="87.99"/><path class="cls-7" d="M52.17,88.44V71.16a3.93,3.93,0,0,1,3.93-3.93H281.58a3.93,3.93,0,0,1,3.93,3.93V88"/><line class="cls-7" x1="51.77" y1="164.65" x2="51.77" y2="206.29"/><line class="cls-7" x1="306.72" y1="234.57" x2="306.72" y2="254.22"/><line class="cls-7" x1="306.72" y1="283.28" x2="306.72" y2="302.93"/><line class="cls-7" x1="168.84" y1="115.94" x2="168.84" y2="135.58"/><line class="cls-7" x1="51.77" y1="116.73" x2="51.77" y2="137.15"/><line class="cls-7" x1="172.37" y1="220.14" x2="199.08" y2="219.94"/><line class="cls-7" x1="254.08" y1="220.04" x2="280.01" y2="220.04"/><line class="cls-7" x1="258.01" y1="317.26" x2="279.22" y2="316.87"/><path class="cls-7" d="M143.3,206.29v-16.5a3.93,3.93,0,0,0-3.93-3.93H52.17"/></g></svg>