<svg xmlns="http://www.w3.org/2000/svg" xmlns:xlink="http://www.w3.org/1999/xlink" width="900" height="1173" viewBox="0 0 900 1173">
  <defs>
    <clipPath id="clip-path">
      <rect id="Rectangle_2247" data-name="Rectangle 2247" width="374" height="808" rx="50" transform="translate(-4117 8103)" fill="#3100ff"/>
    </clipPath>
    <filter id="rectangle" x="217" y="143" width="465" height="797" filterUnits="userSpaceOnUse">
      <feOffset dy="5" input="SourceAlpha"/>
      <feGaussianBlur stdDeviation="15" result="blur"/>
      <feFlood flood-opacity="0.051"/>
      <feComposite operator="in" in2="blur"/>
      <feComposite in="SourceGraphic"/>
    </filter>
    <filter id="rectangle-2" x="217" y="147" width="465" height="272" filterUnits="userSpaceOnUse">
      <feOffset dy="5" input="SourceAlpha"/>
      <feGaussianBlur stdDeviation="15" result="blur-2"/>
      <feFlood flood-opacity="0.051"/>
      <feComposite operator="in" in2="blur-2"/>
      <feComposite in="SourceGraphic"/>
    </filter>
    <filter id="Rectangle_2261" x="286" y="243" width="58" height="50" filterUnits="userSpaceOnUse">
      <feOffset dy="3" input="SourceAlpha"/>
      <feGaussianBlur stdDeviation="3" result="blur-3"/>
      <feFlood flood-opacity="0.071"/>
      <feComposite operator="in" in2="blur-3"/>
      <feComposite in="SourceGraphic"/>
    </filter>
    <filter id="card" x="250" y="359" width="240" height="219" filterUnits="userSpaceOnUse">
      <feOffset dy="5" input="SourceAlpha"/>
      <feGaussianBlur stdDeviation="15" result="blur-4"/>
      <feFlood flood-opacity="0.071"/>
      <feComposite operator="in" in2="blur-4"/>
      <feComposite in="SourceGraphic"/>
    </filter>
    <filter id="card-2" x="250" y="510" width="240" height="219" filterUnits="userSpaceOnUse">
      <feOffset dy="5" input="SourceAlpha"/>
      <feGaussianBlur stdDeviation="15" result="blur-5"/>
      <feFlood flood-opacity="0.071"/>
      <feComposite operator="in" in2="blur-5"/>
      <feComposite in="SourceGraphic"/>
    </filter>
    <filter id="card-3" x="250" y="665" width="240" height="219" filterUnits="userSpaceOnUse">
      <feOffset dy="5" input="SourceAlpha"/>
      <feGaussianBlur stdDeviation="15" result="blur-6"/>
      <feFlood flood-opacity="0.071"/>
      <feComposite operator="in" in2="blur-6"/>
      <feComposite in="SourceGraphic"/>
    </filter>
    <filter id="card-4" x="412" y="359" width="240" height="219" filterUnits="userSpaceOnUse">
      <feOffset dy="5" input="SourceAlpha"/>
      <feGaussianBlur stdDeviation="15" result="blur-7"/>
      <feFlood flood-opacity="0.071"/>
      <feComposite operator="in" in2="blur-7"/>
      <feComposite in="SourceGraphic"/>
    </filter>
    <filter id="card-5" x="412" y="510" width="240" height="219" filterUnits="userSpaceOnUse">
      <feOffset dy="5" input="SourceAlpha"/>
      <feGaussianBlur stdDeviation="15" result="blur-8"/>
      <feFlood flood-opacity="0.071"/>
      <feComposite operator="in" in2="blur-8"/>
      <feComposite in="SourceGraphic"/>
    </filter>
    <linearGradient id="linear-gradient" y1="0.5" x2="1" y2="0.5" gradientUnits="objectBoundingBox">
      <stop offset="0" stop-color="#f1f3f6" stop-opacity="0.8"/>
      <stop offset="0.194" stop-color="#f8f8f4" stop-opacity="0"/>
      <stop offset="0.79" stop-color="#fff" stop-opacity="0"/>
      <stop offset="1" stop-color="#868686" stop-opacity="0.102"/>
    </linearGradient>
    <clipPath id="clip-mf_cookware">
      <rect width="900" height="1173"/>
    </clipPath>
  </defs>
  <g id="mf_cookware" clip-path="url(#clip-mf_cookware)">
    <g id="phone-bottom" transform="translate(109)">
      <path id="Path_2462" data-name="Path 2462" d="M60,0H326a60,60,0,0,1,60,60V769a60,60,0,0,1-60,60H60A60,60,0,0,1,0,769V60A60,60,0,0,1,60,0Z" transform="translate(148 172)" fill="#fff"/>
      <path id="Path_2436" data-name="Path 2436" d="M50,0H324a50,50,0,0,1,50,50V758a50,50,0,0,1-50,50H50A50,50,0,0,1,0,758V50A50,50,0,0,1,50,0Z" transform="translate(155 182)" fill="#f5f5f5"/>
      <path id="Path_2434" data-name="Path 2434" d="M40.929,0H332.343a40.929,40.929,0,0,1,40.929,40.929v726.9a40.929,40.929,0,0,1-40.929,40.929H40.929A40.929,40.929,0,0,1,0,767.828V40.929A40.929,40.929,0,0,1,40.929,0Z" transform="translate(155.147 182.355)" fill="none"/>
      <rect id="Rectangle_2199" data-name="Rectangle 2199" width="13" height="10" transform="translate(214 172)" fill="#6b7f99" opacity="0.2"/>
      <rect id="Rectangle_2201" data-name="Rectangle 2201" width="11" height="10" transform="translate(457 172)" fill="#6b7f99" opacity="0.2"/>
      <rect id="Rectangle_2200" data-name="Rectangle 2200" width="13" height="11" transform="translate(214 990)" fill="#6b7f99" opacity="0.2"/>
      <rect id="Rectangle_2202" data-name="Rectangle 2202" width="11" height="11" transform="translate(457 990)" fill="#6b7f99" opacity="0.2"/>
    </g>
    <g id="Mask_Group_124" data-name="Mask Group 124" transform="translate(4380 -7920)" clip-path="url(#clip-path)">
      <g id="Group_1691" data-name="Group 1691" transform="translate(0 12)">
        <g id="Group_1690" data-name="Group 1690" transform="translate(-4064 8846)">
          <line id="Line_72" data-name="Line 72" x2="15.619" y2="17.2" fill="none" stroke="#ccc" stroke-width="3"/>
          <line id="Line_73" data-name="Line 73" x1="15.619" y2="17.2" fill="none" stroke="#ccc" stroke-width="3"/>
        </g>
        <g id="Group_1687" data-name="Group 1687" transform="translate(-3898.12 8846)">
          <line id="Line_72-2" data-name="Line 72" x2="15.619" y2="17.2" fill="none" stroke="#747474" stroke-width="3"/>
          <line id="Line_73-2" data-name="Line 73" x1="15.619" y2="17.2" fill="none" stroke="#747474" stroke-width="3"/>
        </g>
        <text id="Equipment" transform="translate(-3905 8871)" fill="#303030" font-size="7" font-family="HelveticaNeue-Bold, Helvetica Neue" font-weight="700"><tspan x="0" y="7">Equipment</tspan></text>
        <text id="Recipe" transform="translate(-4066 8871)" fill="#303030" font-size="7" font-family="HelveticaNeue-Light, Helvetica Neue" font-weight="300"><tspan x="0" y="7">Recipe</tspan></text>
        <g id="bg-shadow" transform="translate(-4118 8091)">
          <ellipse id="ellipse" cx="149.5" cy="48.5" rx="149.5" ry="48.5" transform="translate(38 610)" opacity="0.15"/>
          <g transform="matrix(1, 0, 0, 1, -262, -183)" filter="url(#rectangle)">
            <path id="rectangle-3" data-name="rectangle" d="M0,0H375a0,0,0,0,1,0,0V671a36,36,0,0,1-36,36H36A36,36,0,0,1,0,671V0A0,0,0,0,1,0,0Z" transform="translate(262 183)" fill="#fff"/>
          </g>
        </g>
        <g id="bg-shadow-2" data-name="bg-shadow" transform="translate(-4118 8095)">
          <ellipse id="ellipse-2" data-name="ellipse" cx="149.5" cy="48.5" rx="149.5" ry="48.5" transform="translate(38 85)" opacity="0.15"/>
          <g transform="matrix(1, 0, 0, 1, -262, -187)" filter="url(#rectangle-2)">
            <path id="rectangle-4" data-name="rectangle" d="M0,0H375a0,0,0,0,1,0,0V146a36,36,0,0,1-36,36H36A36,36,0,0,1,0,146V0A0,0,0,0,1,0,0Z" transform="translate(262 187)" fill="#fff"/>
          </g>
        </g>
        <g id="tabbed-nav" transform="translate(-4108 8215)">
          <text id="Utensils" transform="translate(308 31)" font-size="16" font-family="Helvetica" letter-spacing="-0.01em"><tspan x="-27.893" y="0">Utensils</tspan></text>
          <text id="Ovenware" transform="translate(224 31)" font-size="16" font-family="Helvetica" letter-spacing="-0.01em"><tspan x="-35.901" y="0">Ovenware</tspan></text>
          <path id="active-tab" d="M26,0H68a26,26,0,0,1,0,52H26A26,26,0,0,1,26,0Z" fill="#eee"/>
          <text id="Bakeware" transform="translate(134 31)" font-size="16" font-family="Helvetica" letter-spacing="-0.01em"><tspan x="-35.014" y="0">Bakeware</tspan></text>
          <text id="All" transform="translate(47 31)" fill="#505050" font-size="16" font-family="Helvetica" letter-spacing="-0.01em"><tspan x="-8.731" y="0">All</tspan></text>
        </g>
        <text id="Cooking_Equipment" data-name="Cooking Equipment" transform="translate(-3930 8179)" font-size="20" font-family="Helvetica" letter-spacing="-0.01em"><tspan x="-85.675" y="0">Cooking Equipment</tspan></text>
        <text id="Pantry" transform="translate(-3814 8871)" fill="#303030" font-size="7" font-family="HelveticaNeue-Light, Helvetica Neue" font-weight="300"><tspan x="0" y="7">Pantry</tspan></text>
        <text id="Shopping_list" data-name="Shopping list" transform="translate(-3993 8871)" fill="#303030" font-size="7" font-family="HelveticaNeue-Light, Helvetica Neue" font-weight="300"><tspan x="0" y="7">Shopping list</tspan></text>
        <g id="Group_1686" data-name="Group 1686" transform="translate(-3810 8846)">
          <line id="Line_72-3" data-name="Line 72" x2="15.619" y2="17.2" fill="none" stroke="#ccc" stroke-width="3"/>
          <line id="Line_73-3" data-name="Line 73" x1="15.619" y2="17.2" fill="none" stroke="#ccc" stroke-width="3"/>
        </g>
        <g id="Group_1688" data-name="Group 1688" transform="translate(-3982 8846)">
          <line id="Line_72-4" data-name="Line 72" x2="15.619" y2="17.2" fill="none" stroke="#ccc" stroke-width="3"/>
          <line id="Line_73-4" data-name="Line 73" x1="15.619" y2="17.2" fill="none" stroke="#ccc" stroke-width="3"/>
        </g>
        <g transform="matrix(1, 0, 0, 1, -4380, 7908)" filter="url(#Rectangle_2261)">
          <rect id="Rectangle_2261-2" data-name="Rectangle 2261" width="40" height="32" rx="8" transform="translate(295 249)" fill="#fff"/>
        </g>
        <path id="Path_2488" data-name="Path 2488" d="M-2957.317,4648.664l-6.17-5.952,6.17-6.048" transform="translate(-1108.923 3530.351)" fill="none" stroke="#707070" stroke-linecap="round" stroke-linejoin="round" stroke-width="1"/>
        <path id="Path_2489" data-name="Path 2489" d="M-2952.79,4643.409h11.141" transform="translate(-1119 3529.591)" fill="none" stroke="#707070" stroke-linecap="round" stroke-width="1"/>
        <rect id="Rectangle_2260" data-name="Rectangle 2260" width="29" height="5" rx="2.5" transform="translate(-3903 8883)" fill="#707070"/>
        <g id="search" transform="translate(-3789.626 8164.643)">
          <circle id="ellipse-3" data-name="ellipse" cx="8.015" cy="8.015" r="8.015" fill="none" stroke="#c7c7c7" stroke-linecap="round" stroke-linejoin="round" stroke-width="1"/>
          <line id="line" x2="4.514" y2="4.514" transform="translate(13.112 14.2)" fill="none" stroke="#c7c7c7" stroke-linecap="round" stroke-linejoin="round" stroke-width="1"/>
        </g>
        <g transform="matrix(1, 0, 0, 1, -4380, 7908)" filter="url(#card)">
          <rect id="card-6" data-name="card" width="150" height="129" rx="8" transform="translate(295 399)" fill="#fff"/>
        </g>
        <g transform="matrix(1, 0, 0, 1, -4380, 7908)" filter="url(#card-2)">
          <rect id="card-7" data-name="card" width="150" height="129" rx="8" transform="translate(295 550)" fill="#fff"/>
        </g>
        <g transform="matrix(1, 0, 0, 1, -4380, 7908)" filter="url(#card-3)">
          <rect id="card-8" data-name="card" width="150" height="129" rx="8" transform="translate(295 705)" fill="#fff"/>
        </g>
        <text id="Scale" transform="translate(-4013 8417)" fill="#707070" font-size="14" font-family="Helvetica" letter-spacing="-0.01em"><tspan x="-17.23" y="0">Scale</tspan></text>
        <g transform="matrix(1, 0, 0, 1, -4380, 7908)" filter="url(#card-4)">
          <rect id="card-9" data-name="card" width="150" height="129" rx="8" transform="translate(457 399)" fill="#fff"/>
        </g>
        <g transform="matrix(1, 0, 0, 1, -4380, 7908)" filter="url(#card-5)">
          <rect id="card-10" data-name="card" width="150" height="129" rx="8" transform="translate(457 550)" fill="#fff"/>
        </g>
        <text id="Deep_Pan" data-name="Deep Pan" transform="translate(-3848 8417)" fill="#707070" font-size="14" font-family="Helvetica" letter-spacing="-0.01em"><tspan x="-30.644" y="0">Deep Pan</tspan></text>
        <g id="scales" transform="translate(-4027.651 8333.936)">
          <path id="Path_2297" data-name="Path 2297" d="M38.369,19.409a1.96,1.96,0,0,0-1.96-1.685h-9.8V13.8h3.92a1.96,1.96,0,0,0,1.392-.568l5.88-5.88a1.968,1.968,0,1,0-2.783-2.783L29.726,9.884H19.574L14.282,4.572A1.968,1.968,0,0,0,11.5,7.355l5.88,5.88a1.96,1.96,0,0,0,1.392.568h3.92v3.92h-9.8a1.96,1.96,0,0,0-1.96,1.685L7.011,46.847a1.936,1.936,0,0,0,1.96,2.234H40.329a1.935,1.935,0,0,0,1.94-2.234ZM24.65,43.2a9.8,9.8,0,1,1,9.8-9.8,9.8,9.8,0,0,1-9.8,9.8Z" transform="translate(-6.989 -3.996)" fill="#c7c7c7"/>
        </g>
        <g id="spatula" transform="translate(-4039.725 8484.631)">
          <path id="Path_2303" data-name="Path 2303" d="M51.706,42.425l-8.761-8.78a1.96,1.96,0,0,0-2.783,0L38.79,35.036l-8.447-8.447a12.72,12.72,0,0,0-.412-15.679L23.66,3.247a1.971,1.971,0,0,0-2.9-.137L4.14,19.788a1.971,1.971,0,0,0,.137,2.9l7.663,6.232a12.72,12.72,0,0,0,15.679.412l8.427,8.447-1.392,1.372a1.96,1.96,0,0,0-.568,1.392,2.058,2.058,0,0,0,.568,1.392l8.78,8.761a5.135,5.135,0,0,0,3.7,1.548,5.213,5.213,0,0,0,3.7-1.548l.9-.9a5.213,5.213,0,0,0,1.548-3.7,5.135,5.135,0,0,0-1.588-3.665ZM19.388,23.943a1.941,1.941,0,0,1-2.783,0L13.841,21.18A1.96,1.96,0,0,1,16.6,18.416l2.783,2.763A1.96,1.96,0,0,1,19.388,23.943Zm5.527-5.527a1.964,1.964,0,0,1-2.763,0l-2.763-2.783a1.96,1.96,0,0,1,2.763-2.763l2.763,2.763a1.96,1.96,0,0,1,0,2.783Z" transform="translate(-3.569 -2.539)" fill="#c7c7c7"/>
        </g>
        <g id="pan" transform="translate(-3876.138 8334)">
          <g id="Group_1612" data-name="Group 1612" transform="translate(0 0)">
            <path id="Path_2279" data-name="Path 2279" d="M52,11H4.96a1.96,1.96,0,1,0,0,3.92h.314L8.88,40.673a1.96,1.96,0,0,0,1.96,1.685h35.4a1.96,1.96,0,0,0,1.96-1.685L51.683,14.92H52A1.96,1.96,0,1,0,52,11Z" transform="translate(-3 0.663)" fill="#c7c7c7"/>
            <path id="Path_2280" data-name="Path 2280" d="M7.96,14.752H43.238a1.96,1.96,0,1,0,0-3.92H33.164a7.84,7.84,0,0,0-15.13,0H7.96a1.96,1.96,0,1,0,0,3.92ZM25.6,8.873a3.92,3.92,0,0,1,3.371,1.96H22.228A3.92,3.92,0,0,1,25.6,8.873Z" transform="translate(-0.12 -5.049)" fill="#c7c7c7"/>
          </g>
        </g>
        <g id="pizza_cutter" data-name="pizza cutter" transform="translate(-3873.458 8486.147)">
          <g id="pizza_cutter-2" data-name="pizza cutter">
            <path id="Path_2282" data-name="Path 2282" d="M46.528,5.372a5.88,5.88,0,0,0-8.31,0L27.145,16.445a1.941,1.941,0,0,0,0,2.783l1.372,1.392-5.7,5.605c-4.116-3.371-9.074-4.606-12.778-3.038a1.96,1.96,0,1,0,1.509,3.606c2.626-1.1,6.82.372,9.976,3.528,3.645,3.626,4.488,7.84,3.469,10.074a1.96,1.96,0,0,0,.96,2.587,1.764,1.764,0,0,0,.823.2,1.96,1.96,0,0,0,1.783-1.156c1.686-3.685.451-8.819-2.959-13.014l5.625-5.625,1.372,1.392a1.988,1.988,0,0,0,2.783,0L46.528,13.682a5.88,5.88,0,0,0,0-8.31Z" transform="translate(0.029 -3.653)" fill="#c7c7c7"/>
            <path id="Path_2283" data-name="Path 2283" d="M10.29,22.22l1.372,1.372L10.29,22.2Z" transform="translate(1.557 14.151)" fill="#c7c7c7"/>
            <path id="Path_2284" data-name="Path 2284" d="M7.685,19.689A11.759,11.759,0,1,0,16,16.24,11.759,11.759,0,0,0,7.685,19.689ZM18.778,30.782a3.92,3.92,0,0,1-2.763,1.156h0a3.92,3.92,0,1,1,0-7.84h0a3.913,3.913,0,0,1,2.763,6.683Z" transform="translate(-4.245 8.43)" fill="#c7c7c7"/>
          </g>
        </g>
        <text id="Pizza_Wheel" data-name="Pizza Wheel" transform="translate(-3848 8572)" fill="#707070" font-size="14" font-family="Helvetica" letter-spacing="-0.01em"><tspan x="-38.203" y="0">Pizza Wheel</tspan></text>
        <text id="Spatula-2" data-name="Spatula" transform="translate(-4013 8572)" fill="#707070" font-size="14" font-family="Helvetica" letter-spacing="-0.01em"><tspan x="-23.321" y="0">Spatula</tspan></text>
        <g id="Group_1689" data-name="Group 1689" transform="translate(-4118.199 8101.801)">
          <line id="line-2" data-name="line" y2="20.299" transform="translate(108.349 565.199)" fill="none" stroke="#707070" stroke-linecap="round" stroke-linejoin="round" stroke-width="1"/>
          <line id="line-3" data-name="line" x1="20.299" transform="translate(98.199 575.349)" fill="none" stroke="#707070" stroke-linecap="round" stroke-linejoin="round" stroke-width="1"/>
        </g>
      </g>
    </g>
    <g id="phone-top" transform="translate(109)">
      <rect id="Rectangle_2198" data-name="Rectangle 2198" width="374" height="808" rx="50" transform="translate(155 182)" fill="url(#linear-gradient)"/>
      <g id="phone_dots_at_top" data-name="phone dots at top" transform="translate(317.479 195.336)">
        <circle id="Ellipse_1" data-name="Ellipse 1" cx="1.5" cy="1.5" r="1.5" transform="translate(5.521 -0.336)" fill="#9c9c9d"/>
        <circle id="Ellipse_8" data-name="Ellipse 8" cx="1" cy="1" r="1" transform="translate(-0.479 -0.336)" fill="#9c9c9d"/>
        <circle id="Ellipse_2" data-name="Ellipse 2" cx="1" cy="1" r="1" transform="translate(14.521 -0.336)" fill="#9c9c9d"/>
        <circle id="Ellipse_3" data-name="Ellipse 3" cx="1" cy="1" r="1" transform="translate(20.521 -0.336)" fill="#9c9c9d"/>
        <circle id="Ellipse_4" data-name="Ellipse 4" cx="1" cy="1" r="1" transform="translate(26.521 -0.336)" fill="#9c9c9d"/>
        <circle id="Ellipse_5" data-name="Ellipse 5" cx="1" cy="1" r="1" transform="translate(39.521 -0.336)" fill="#9c9c9d"/>
        <circle id="Ellipse_7" data-name="Ellipse 7" cx="1.5" cy="1.5" r="1.5" transform="translate(45.521 -0.336)" fill="#9c9c9d"/>
        <circle id="Ellipse_6" data-name="Ellipse 6" cx="1.5" cy="1.5" r="1.5" transform="translate(31.521 -0.336)" fill="#9c9c9d"/>
      </g>
    </g>
  </g>
</svg>
