<svg width="420" height="80" viewBox="0 0 420 80" fill="none" xmlns="http://www.w3.org/2000/svg">
<rect x="64.75" y="0.75" width="26.5" height="26.5" rx="7.25" fill="#FFF1CD"/>
<rect x="64.75" y="0.75" width="26.5" height="26.5" rx="7.25" stroke="#FFE6AA" stroke-width="1.5"/>
<path d="M70.0996 19.5H85.8975C86.1507 19.5 86.3814 19.5949 86.5576 19.75H69.4404C69.6166 19.5951 69.8466 19.5 70.0996 19.5Z" fill="#707070" stroke="#707070" stroke-width="1.12489"/>
<path d="M67.875 23.9087V6.15734C67.875 6.15734 68.1161 3.87598 70.8881 3.87598C73.6602 3.87598 73.9013 6.15734 73.9013 6.15734V7.90184" stroke="#707070" stroke-width="2" stroke-linecap="round"/>
<path d="M67.877 11.8311L87.9453 11.8311" stroke="#707070" stroke-width="2" stroke-linecap="round"/>
<path d="M67.875 22.3994C67.875 20.7686 69.4418 20.8938 69.4418 20.8938H86.6768C86.6768 20.8938 88.123 20.8938 88.123 22.3994" stroke="#707070" stroke-width="2" stroke-linecap="round"/>
<path d="M88.123 24.124L88.123 10.7458" stroke="#707070" stroke-width="2" stroke-linecap="round"/>
<path d="M72.1875 8.62083C72.1875 8.62083 72.6396 7.97461 73.9959 7.97461C75.3522 7.97461 75.8043 8.62083 75.8043 8.62083" stroke="#707070" stroke-width="2" stroke-linecap="round"/>
<path d="M72.0703 20.5078L72.0703 12.1916" stroke="#707070" stroke-width="2"/>
<path d="M76.084 20.5078L76.084 12.1916" stroke="#707070" stroke-width="2"/>
<path d="M80.0996 20.5078L80.0996 12.1916" stroke="#707070" stroke-width="2"/>
<path d="M84.1133 20.5078L84.1133 12.1916" stroke="#707070" stroke-width="2"/>
<rect x="64" y="52" width="28" height="28" rx="8" fill="#FFD500"/>
<rect x="64.75" y="52.75" width="26.5" height="26.5" rx="7.25" stroke="#FFC93C" stroke-opacity="0.9" stroke-width="1.5"/>
<path d="M83.9976 64.6201C83.9976 66.4633 83.2252 68.2309 81.8502 69.5343C80.4752 70.8376 78.6103 71.5698 76.6658 71.5698C74.7213 71.5698 72.8564 70.8376 71.4814 69.5343C70.1064 68.2309 69.334 66.4633 69.334 64.6201L83.9976 64.6201Z" fill="#505050" stroke="#505050"/>
<path d="M70.0527 64.4584C70.0527 62.8232 70.6097 61.2281 71.6472 59.8925C72.666 58.581 74.0989 57.5829 75.7551 57.0299C75.8059 57.0129 75.8608 57.0396 75.8794 57.0899L78.7541 64.8525" stroke="#505050"/>
<path d="M75.3772 73.4894C75.3772 74.3238 74.7007 75.0002 73.8663 75.0002C73.0319 75.0002 72.3555 74.3238 72.3555 73.4894C72.3555 72.6549 73.0319 71.9785 73.8663 71.9785C74.7007 71.9785 75.3772 72.6549 75.3772 73.4894Z" fill="#505050" stroke="#505050"/>
<path d="M88.7655 63.4443C88.7655 64.4178 87.9764 65.2069 87.0029 65.2069C86.0294 65.2069 85.2402 64.4178 85.2402 63.4443C85.2402 62.4708 86.0294 61.6816 87.0029 61.6816C87.9764 61.6816 88.7655 62.4708 88.7655 63.4443Z" fill="#505050" stroke="#505050"/>
<path d="M83.6973 64.7522C83.7546 64.663 83.8549 64.4894 84.4139 64.2266C84.7131 64.086 84.9872 64.0164 85.2739 63.9639" stroke="#505050"/>
<path d="M80.9182 73.4894C80.9182 74.3238 80.2417 75.0002 79.4073 75.0002C78.5729 75.0002 77.8965 74.3238 77.8965 73.4894C77.8965 72.6549 78.5729 71.9785 79.4073 71.9785C80.2417 71.9785 80.9182 72.6549 80.9182 73.4894Z" fill="#505050" stroke="#505050"/>
<rect x="328.75" y="0.75" width="26.5" height="26.5" rx="7.25" fill="#FFF1CD"/>
<rect x="328.75" y="0.75" width="26.5" height="26.5" rx="7.25" stroke="#FFE6AA" stroke-width="1.5"/>
<path fill-rule="evenodd" clip-rule="evenodd" d="M350.601 6.43555L350.792 7.55183C352.088 11.3536 349.786 11.3925 348.877 9.36158C348.118 9.05023 347.633 9.25544 347.511 10.1541L348.446 14.5927L348.41 18.3679C348.967 17.6284 349.412 16.7669 349.702 15.7886C349.935 15.0067 350.734 14.5679 351.49 14.8085C352.245 15.0491 352.669 15.8771 352.436 16.659C351.661 19.2772 350.078 21.2869 348.101 22.619C346.351 23.7989 344.29 24.4411 342.212 24.4959C340.131 24.5526 338.026 24.0165 336.19 22.8436C334.191 21.5646 332.525 19.5373 331.578 16.7032C331.322 15.9319 331.718 15.0898 332.463 14.8245C333.208 14.5591 334.022 14.9695 334.278 15.7408C334.546 16.544 334.888 17.2587 335.288 17.8885L335.322 14.7413C335.394 13.9824 335.654 13.25 336.185 12.5601H334.652C333.302 12.4539 333.152 10.8087 334.652 10.4779H338.752C338.81 11.3712 339.184 12.1762 339.758 12.7723C340.385 13.4216 341.252 13.8232 342.209 13.8232C343.166 13.8232 344.032 13.4216 344.659 12.7723C345.286 12.1231 345.674 11.2262 345.674 10.2355C345.674 9.24483 345.286 8.34791 344.659 7.69866C344.23 7.25462 343.69 6.92735 343.085 6.76282C343.641 5.70138 344.57 4.7514 345.956 3.93232C347.308 3.39452 348.844 3.27599 350.77 4.05615C351.531 4.40997 351.96 4.76555 351.828 5.11936C351.702 5.46256 351.462 5.45371 351.199 5.52978C350.784 5.65008 350.553 5.92429 350.601 6.43555ZM346.997 19.8044C346.131 13.7046 337.742 13.6445 336.752 19.6169C337.051 19.8822 337.366 20.1175 337.691 20.3263C339.037 21.1878 340.594 21.5788 342.144 21.5381C343.697 21.4974 345.235 21.0162 346.542 20.1352C346.698 20.0308 346.85 19.9211 346.997 19.8044ZM339.589 10.4761H342.482C342.363 9.4465 342.434 8.47174 342.74 7.56598C343.253 7.67566 343.711 7.93925 344.068 8.30722C344.543 8.79902 344.839 9.48011 344.839 10.232C344.839 10.9838 344.545 11.6649 344.068 12.1567C343.593 12.6485 342.935 12.9546 342.209 12.9546C341.483 12.9546 340.825 12.6503 340.35 12.1567C339.926 11.7197 339.646 11.1324 339.589 10.4761ZM349.436 6.27456C349.627 6.27456 349.784 6.43732 349.784 6.63545V6.98573C349.784 7.18386 349.627 7.34662 349.436 7.34662C349.244 7.34662 349.087 7.18386 349.087 6.98573V6.63545C349.087 6.43555 349.242 6.27456 349.436 6.27456Z" fill="#707070"/>
<rect x="328.75" y="52.75" width="26.5" height="26.5" rx="7.25" fill="#FFF1CD"/>
<rect x="328.75" y="52.75" width="26.5" height="26.5" rx="7.25" stroke="#FFE6AA" stroke-width="1.5"/>
<path fill-rule="evenodd" clip-rule="evenodd" d="M342 54.5713C343.739 54.5713 345.149 55.998 345.149 57.7577C345.149 59.5173 343.739 60.944 342 60.944C340.261 60.944 338.851 59.5173 338.851 57.7577C338.851 55.998 340.261 54.5713 342 54.5713ZM338.662 69.0485L341.164 71.6136L339.32 73.4793L340.798 75.0139L341.302 75.5366C342.164 76.6898 340.872 78.0589 339.748 77.1083L336.469 73.7211C335.973 73.0254 335.826 72.2702 336.333 71.4053L338.662 69.0485ZM345.337 69.0485L342.837 71.6154L344.68 73.4811L343.202 75.0157L342.699 75.5384C341.837 76.6917 343.129 78.0607 344.252 77.1102L347.531 73.7229C348.028 73.0273 348.175 72.2721 347.667 71.4071L345.337 69.0485ZM349.489 68.204C348.976 68.5779 348.322 68.4049 347.886 67.9417L345.373 65.2762V67.7018H338.62V65.2836L336.114 67.9417C335.679 68.4049 335.022 68.5779 334.511 68.204C333.998 67.8301 333.8 67.0266 334.252 66.582L337.552 63.338C338.089 62.8097 339.122 61.5597 339.818 61.5597H344.239C344.892 61.5597 345.903 62.8004 346.447 63.338L349.747 66.582C350.201 67.0266 350 67.8301 349.489 68.204Z" fill="#707070"/>
<g clip-path="url(#clip0_3684_779)">
<path d="M340.519 44.1455C340.541 43.7769 340.565 43.3716 340.588 43.003C340.821 39.7623 341.094 36.487 341.327 33.2463C341.349 32.8778 341.369 32.5461 341.429 32.1799C341.495 31.7031 341.644 31.1203 342.278 31.2694C342.539 31.3221 342.807 31.8931 342.825 32.227C342.811 34.9632 342.762 37.6602 342.711 40.394C342.711 41.0228 342.636 41.647 342.935 42.3308C343.431 41.6209 343.854 40.8698 344.386 40.1991C344.632 39.881 345.22 39.5465 345.554 39.6407C346.224 39.8289 346.104 40.5614 345.851 40.9901C344.738 43.1422 343.623 45.3311 342.327 47.3982C341.491 48.7163 340.361 48.6482 339.69 47.2393C338.781 45.3723 338.145 43.3737 337.43 41.4443C337.33 41.2164 337.616 40.8638 337.709 40.5735C338.004 40.7022 338.456 40.7294 338.593 40.9596C338.943 41.4245 339.134 42.0278 339.404 42.5619C339.672 43.1328 339.94 43.7038 340.211 44.2379C340.291 44.1687 340.406 44.1386 340.519 44.1455Z" fill="#FFD500"/>
</g>
<g clip-path="url(#clip1_3684_779)">
<path d="M79.5014 35.3257C79.5204 35.6944 79.5412 36.0999 79.5602 36.4686C79.6895 39.7151 79.783 43.0005 79.9124 46.247C79.9313 46.6157 79.9484 46.9475 79.9297 47.3181C79.9167 47.7994 79.834 48.3951 79.1875 48.3175C78.9218 48.2942 78.5918 47.7567 78.537 47.4268C78.2458 44.7062 77.9942 42.0205 77.7407 39.2979C77.6707 38.6731 77.6761 38.0443 77.3027 37.3981C76.8884 38.1588 76.5513 38.9525 76.0974 39.6782C75.8883 40.0217 75.3419 40.4195 74.9989 40.3632C74.3128 40.2507 74.3503 39.5094 74.5536 39.0553C75.4198 36.7927 76.284 34.4931 77.3424 32.2945C78.026 30.8915 79.1568 30.8333 79.9808 32.1587C81.0915 33.913 81.9459 35.8283 82.872 37.666C82.9964 37.8814 82.7516 38.2637 82.6914 38.5625C82.3841 38.4674 81.9318 38.4907 81.7697 38.2772C81.37 37.8542 81.1135 37.2759 80.7853 36.7753C80.4553 36.2377 80.1253 35.7002 79.7972 35.1995C79.7256 35.2772 79.6145 35.3199 79.5014 35.3257Z" fill="#FFD500"/>
</g>
<g clip-path="url(#clip2_3684_779)">
<path d="M210.957 16.3443C210.514 16.3439 210.027 16.3434 209.584 16.343C205.685 16.294 201.742 16.1997 197.844 16.1506C197.401 16.1502 197.002 16.1498 196.559 16.1041C195.983 16.0583 195.274 15.9217 195.408 15.1519C195.452 14.8349 196.117 14.4732 196.516 14.4283C199.795 14.2503 203.029 14.1175 206.307 13.9848C207.061 13.9402 207.814 13.9862 208.612 13.5794C207.726 13.035 206.796 12.5812 205.955 11.9917C205.556 11.7195 205.114 11.0398 205.203 10.6322C205.381 9.81716 206.267 9.90859 206.798 10.1808C209.455 11.3609 212.157 12.5411 214.725 13.9475C216.363 14.8549 216.362 16.2136 214.722 17.1178C212.55 18.3386 210.201 19.2422 207.941 20.2364C207.675 20.372 207.232 20.0546 206.878 19.9637C207.011 19.6015 207.011 19.058 207.277 18.8771C207.809 18.4247 208.519 18.1536 209.139 17.7919C209.804 17.4302 210.469 17.0685 211.089 16.7068C211.001 16.6161 210.957 16.4802 210.957 16.3443Z" fill="#FFD500"/>
</g>
<g clip-path="url(#clip3_3684_779)">
<path d="M200.476 66.9479C200.919 66.9473 201.406 66.9467 201.849 66.9462C205.748 66.9866 209.691 67.0722 213.589 67.1126C214.032 67.112 214.431 67.1115 214.874 67.1563C215.45 67.2008 216.159 67.3358 216.027 68.1059C215.983 68.423 215.319 68.7862 214.921 68.832C211.642 69.0172 208.409 69.1572 205.13 69.2971C204.377 69.3434 203.624 69.299 202.827 69.7077C203.714 70.25 204.645 70.7018 205.487 71.2895C205.886 71.5607 206.33 72.2395 206.242 72.6473C206.066 73.4627 205.18 73.3732 204.648 73.1022C201.988 71.9279 199.284 70.7538 196.713 69.353C195.073 68.4493 195.071 67.0905 196.709 66.1827C198.878 64.9571 201.225 64.0484 203.483 63.0491C203.749 62.9129 204.192 63.2294 204.547 63.3195C204.414 63.682 204.415 64.2255 204.15 64.407C203.618 64.8606 202.91 65.1332 202.29 65.4963C201.626 65.8595 200.962 66.2226 200.342 66.5857C200.431 66.6762 200.475 66.812 200.476 66.9479Z" fill="#FFD500"/>
</g>
<defs>
<clipPath id="clip0_3684_779">
<rect width="8.56733" height="17.1347" fill="white" transform="translate(338.031 31) rotate(3.44778)"/>
</clipPath>
<clipPath id="clip1_3684_779">
<rect width="8.56733" height="17.1347" fill="white" transform="translate(83.4375 48.1123) rotate(177.053)"/>
</clipPath>
<clipPath id="clip2_3684_779">
<rect width="10.2808" height="20.5616" fill="white" transform="translate(195.387 20.2578) rotate(-89.9453)"/>
</clipPath>
<clipPath id="clip3_3684_779">
<rect width="10.2808" height="20.5616" fill="white" transform="translate(216.037 63) rotate(89.9281)"/>
</clipPath>
</defs>
</svg>
