<?xml version="1.0" encoding="utf-8"?>
<!-- Generator: Adobe Illustrator 25.2.1, SVG Export Plug-In . SVG Version: 6.00 Build 0)  -->
<svg version="1.1" id="Layer_1" xmlns="http://www.w3.org/2000/svg" xmlns:xlink="http://www.w3.org/1999/xlink" x="0px" y="0px"
	 viewBox="0 0 1800 600" style="enable-background:new 0 0 1800 600;" xml:space="preserve">
<style type="text/css">
	.st0{fill:#FFDF71;stroke:#D9BE60;stroke-width:2;stroke-miterlimit:10;}
	.st1{fill:#D9BE60;}
	.st2{fill:#99D2F2;stroke:#82B3CE;stroke-width:2;stroke-miterlimit:10;}
	.st3{fill:#82B3CE;}
	.st4{fill:#FF8F80;stroke:#D97A6D;stroke-width:2;stroke-miterlimit:10;}
	.st5{fill:#D97A6D;}
	.st6{fill:#A3D977;stroke:#8BB865;stroke-width:2;stroke-miterlimit:10;}
	.st7{fill:#8BB865;}
	.st8{fill:#5C5C5C;}
	.st9{font-family:'Helvetica-Light';}
	.st10{font-size:6px;}
</style>
<g>
	<g id="Group_5" transform="translate(1413 258)">
		<path id="Path" class="st0" d="M0,0h45.6L57,11.6V58H0V0z"/>
		<path id="Path-2" class="st1" d="M46,0v12h11"/>
	</g>
	<g id="Group_5_Copy" transform="translate(1413 336)">
		<path id="Path-3" class="st0" d="M0,0h45.6L57,11.6V58H0V0z"/>
		<path id="Path-4" class="st1" d="M46,0v12h11"/>
	</g>
	<g id="Group_5_Copy_2" transform="translate(1413 413)">
		<path id="Path-5" class="st0" d="M0,0h45.6L57,11.6V58H0V0z"/>
		<path id="Path-6" class="st1" d="M46,0v12h11"/>
	</g>
	<g id="Group_2" transform="translate(1682 258)">
		<path id="Path-7" class="st0" d="M0,0h45.6L57,11.6V58H0V0z"/>
		<path id="Path-8" class="st1" d="M46,0v12h11"/>
	</g>
	<g id="Group_2_Copy" transform="translate(1682 336)">
		<path id="Path-9" class="st0" d="M0,0h45.6L57,11.6V58H0V0z"/>
		<path id="Path-10" class="st1" d="M46,0v12h11"/>
	</g>
	<g id="Group" transform="translate(1593 258)">
		<path id="Path-11" class="st0" d="M0,0h45.6L57,11.6V58H0V0z"/>
		<path id="Path-12" class="st1" d="M46,0v12h11"/>
	</g>
	<g id="Group_Copy" transform="translate(1593 336)">
		<path id="Path-13" class="st0" d="M0,0h45.6L57,11.6V58H0V0z"/>
		<path id="Path-14" class="st1" d="M46,0v12h11"/>
	</g>
	<g id="Group_Copy_2" transform="translate(1413 489)">
		<path id="Path-15" class="st0" d="M0,0h45.6L57,11.6V58H0V0z"/>
		<path id="Path-16" class="st1" d="M46,0v12h11"/>
	</g>
	<g id="Group_4" transform="translate(1503 258)">
		<path id="Path-17" class="st0" d="M0,0h45.6L57,11.6V58H0V0z"/>
		<path id="Path-18" class="st1" d="M46,0v12h11"/>
	</g>
	<g id="Group_4_Copy" transform="translate(1503 336)">
		<path id="Path-19" class="st0" d="M0,0h45.6L57,11.6V58H0V0z"/>
		<path id="Path-20" class="st1" d="M46,0v12h11"/>
	</g>
	<g id="Group_4_Copy_2" transform="translate(1503 413)">
		<path id="Path-21" class="st0" d="M0,0h45.6L57,11.6V58H0V0z"/>
		<path id="Path-22" class="st1" d="M46,0v12h11"/>
	</g>
	<g id="Group_3" transform="translate(1682 413)">
		<path id="Path-23" class="st0" d="M0,0h45.6L57,11.6V58H0V0z"/>
		<path id="Path-24" class="st1" d="M46,0v12h11"/>
	</g>
	<g id="Group_3_Copy" transform="translate(1592 413)">
		<path id="Path-25" class="st0" d="M0,0h45.6L57,11.6V58H0V0z"/>
		<path id="Path-26" class="st1" d="M46,0v12h11"/>
	</g>
	<g id="Group_5-2" transform="translate(967 258)">
		<path id="Path-27" class="st0" d="M0,0h45.6L57,11.6V58H0V0z"/>
		<path id="Path-28" class="st1" d="M46,0v12h11"/>
	</g>
	<g id="Group_5_Copy-2" transform="translate(967 336)">
		<path id="Path-29" class="st0" d="M0,0h45.6L57,11.6V58H0V0z"/>
		<path id="Path-30" class="st1" d="M46,0v12h11"/>
	</g>
	<g id="Group_5_Copy_2-2" transform="translate(967 412)">
		<path id="Path-31" class="st0" d="M0,0h45.6L57,11.6V58H0V0z"/>
		<path id="Path-32" class="st1" d="M46,0v12h11"/>
	</g>
	<g id="Group_2-2" transform="translate(1236 258)">
		<path id="Path-33" class="st0" d="M0,0h45.6L57,11.6V58H0V0z"/>
		<path id="Path-34" class="st1" d="M46,0v12h11"/>
	</g>
	<g id="Group_2_Copy-2" transform="translate(1236 336)">
		<path id="Path-35" class="st0" d="M0,0h45.6L57,11.6V58H0V0z"/>
		<path id="Path-36" class="st1" d="M46,0v12h11"/>
	</g>
	<g id="Group-2" transform="translate(1147 258)">
		<path id="Path-37" class="st0" d="M0,0h45.6L57,11.6V58H0V0z"/>
		<path id="Path-38" class="st1" d="M46,0v12h11"/>
	</g>
	<g id="Group_Copy-2" transform="translate(1147 336)">
		<path id="Path-39" class="st0" d="M0,0h45.6L57,11.6V58H0V0z"/>
		<path id="Path-40" class="st1" d="M46,0v12h11"/>
	</g>
	<g id="Group_4-2" transform="translate(1057 258)">
		<path id="Path-41" class="st0" d="M0,0h45.6L57,11.6V58H0V0z"/>
		<path id="Path-42" class="st1" d="M46,0v12h11"/>
	</g>
	<g id="Group_4_Copy-2" transform="translate(1057 336)">
		<path id="Path-43" class="st0" d="M0,0h45.6L57,11.6V58H0V0z"/>
		<path id="Path-44" class="st1" d="M46,0v12h11"/>
	</g>
	<g id="Group_4_Copy_2-2" transform="translate(1057 412)">
		<path id="Path-45" class="st0" d="M0,0h45.6L57,11.6V58H0V0z"/>
		<path id="Path-46" class="st1" d="M46,0v12h11"/>
	</g>
	<g id="Group_3-2" transform="translate(1236 412)">
		<path id="Path-47" class="st0" d="M0,0h45.6L57,11.6V58H0V0z"/>
		<path id="Path-48" class="st1" d="M46,0v12h11"/>
	</g>
	<g id="Group_3_Copy-2" transform="translate(1146 412)">
		<path id="Path-49" class="st0" d="M0,0h45.6L57,11.6V58H0V0z"/>
		<path id="Path-50" class="st1" d="M46,0v12h11"/>
	</g>
	<g id="Group_5-3" transform="translate(514 258)">
		<path id="Path-51" class="st0" d="M0,0h45.6L57,11.6V58H0V0z"/>
		<path id="Path-52" class="st1" d="M46,0v12h11"/>
	</g>
	<g id="Group_5_Copy-3" transform="translate(514 336)">
		<path id="Path-53" class="st0" d="M0,0h45.6L57,11.6V58H0V0z"/>
		<path id="Path-54" class="st1" d="M46,0v12h11"/>
	</g>
	<g id="Group_5_Copy_2-3" transform="translate(515 412)">
		<path id="Path-55" class="st0" d="M0,0h45.6L57,11.6V58H0V0z"/>
		<path id="Path-56" class="st1" d="M46,0v12h11"/>
	</g>
	<g id="Group_2-3" transform="translate(783 258)">
		<path id="Path-57" class="st0" d="M0,0h45.6L57,11.6V58H0V0z"/>
		<path id="Path-58" class="st1" d="M46,0v12h11"/>
	</g>
	<g id="Group_2_Copy-3" transform="translate(783 336)">
		<path id="Path-59" class="st0" d="M0,0h45.6L57,11.6V58H0V0z"/>
		<path id="Path-60" class="st1" d="M46,0v12h11"/>
	</g>
	<g id="Group-3" transform="translate(694 258)">
		<path id="Path-61" class="st0" d="M0,0h45.6L57,11.6V58H0V0z"/>
		<path id="Path-62" class="st1" d="M46,0v12h11"/>
	</g>
	<g id="Group_Copy-3" transform="translate(694 336)">
		<path id="Path-63" class="st0" d="M0,0h45.6L57,11.6V58H0V0z"/>
		<path id="Path-64" class="st1" d="M46,0v12h11"/>
	</g>
	<g id="Group_Copy_2-2" transform="translate(604 413)">
		<path id="Path-65" class="st0" d="M0,0h45.6L57,11.6V58H0V0z"/>
		<path id="Path-66" class="st1" d="M46,0v12h11"/>
	</g>
	<g id="Group_4-3" transform="translate(604 258)">
		<path id="Path-67" class="st0" d="M0,0h45.6L57,11.6V58H0V0z"/>
		<path id="Path-68" class="st1" d="M46,0v12h11"/>
	</g>
	<g id="Group_4_Copy-3" transform="translate(604 336)">
		<path id="Path-69" class="st0" d="M0,0h45.6L57,11.6V58H0V0z"/>
		<path id="Path-70" class="st1" d="M46,0v12h11"/>
	</g>
	<g id="Group_4_Copy_2-3" transform="translate(515 488)">
		<path id="Path-71" class="st0" d="M0,0h45.6L57,11.6V58H0V0z"/>
		<path id="Path-72" class="st1" d="M46,0v12h11"/>
	</g>
	<g id="Group_3-3" transform="translate(604 490)">
		<path id="Path-73" class="st0" d="M0,0h45.6L57,11.6V58H0V0z"/>
		<path id="Path-74" class="st1" d="M46,0v12h11"/>
	</g>
	<g id="Group_3_Copy-3" transform="translate(783 412)">
		<path id="Path-75" class="st0" d="M0,0h45.6L57,11.6V58H0V0z"/>
		<path id="Path-76" class="st1" d="M46,0v12h11"/>
	</g>
	<g id="Group_5-4" transform="translate(65 258)">
		<path id="Path-77" class="st0" d="M0,0h45.6L57,11.6V58H0V0z"/>
		<path id="Path-78" class="st1" d="M46,0v12h11"/>
	</g>
	<g id="Group_5_Copy-4" transform="translate(65 336)">
		<path id="Path-79" class="st0" d="M0,0h45.6L57,11.6V58H0V0z"/>
		<path id="Path-80" class="st1" d="M46,0v12h11"/>
	</g>
	<g id="Group_2-4" transform="translate(334 258)">
		<path id="Path-81" class="st0" d="M0,0h45.6L57,11.6V58H0V0z"/>
		<path id="Path-82" class="st1" d="M46,0v12h11"/>
	</g>
	<g id="Group_2_Copy-4" transform="translate(156 336)">
		<path id="Path-83" class="st0" d="M0,0h45.6L57,11.6V58H0V0z"/>
		<path id="Path-84" class="st1" d="M46,0v12h11"/>
	</g>
	<g id="Group-4" transform="translate(245 258)">
		<path id="Path-85" class="st0" d="M0,0h45.6L57,11.6V58H0V0z"/>
		<path id="Path-86" class="st1" d="M46,0v12h11"/>
	</g>
	<g id="Group_Copy-4" transform="translate(155 411)">
		<path id="Path-87" class="st0" d="M0,0h45.6L57,11.6V58H0V0z"/>
		<path id="Path-88" class="st1" d="M46,0v12h11"/>
	</g>
	<g id="Group_Copy_2-3" transform="translate(694 413)">
		<path id="Path-89" class="st0" d="M0,0h45.6L57,11.6V58H0V0z"/>
		<path id="Path-90" class="st1" d="M46,0v12h11"/>
	</g>
	<g id="Group_4-4" transform="translate(155 258)">
		<path id="Path-91" class="st0" d="M0,0h45.6L57,11.6V58H0V0z"/>
		<path id="Path-92" class="st1" d="M46,0v12h11"/>
	</g>
	<g id="Group_4_Copy-4" transform="translate(65 410)">
		<path id="Path-93" class="st0" d="M0,0h45.6L57,11.6V58H0V0z"/>
		<path id="Path-94" class="st1" d="M46,0v12h11"/>
	</g>
	<g id="Group_3-4" transform="translate(334 336)">
		<path id="Path-95" class="st0" d="M0,0h45.6L57,11.6V58H0V0z"/>
		<path id="Path-96" class="st1" d="M46,0v12h11"/>
	</g>
	<g id="Group_3_Copy-4" transform="translate(246 336)">
		<path id="Path-97" class="st0" d="M0,0h45.6L57,11.6V58H0V0z"/>
		<path id="Path-98" class="st1" d="M46,0v12h11"/>
	</g>
	<g id="Group_6" transform="translate(110 179)">
		<path id="Path_Copy" class="st2" d="M0,0h46.4L58,11.4V57H0V0z"/>
		<path id="Path_Copy_2" class="st3" d="M46,0v11h12"/>
		<path id="Path_Copy-2" class="st2" d="M177,0h46.4L235,11.4V57h-58V0z"/>
		<path id="Path_Copy_2-2" class="st3" d="M223,0v11h12"/>
	</g>
	<g id="Group_6_Copy" transform="translate(560 179)">
		<path id="Path_Copy-3" class="st2" d="M0,0h46.4L58,11.4V57H0V0z"/>
		<path id="Path_Copy_2-3" class="st3" d="M46,0v11h12"/>
		<path id="Path_Copy-4" class="st2" d="M177,0h46.4L235,11.4V57h-58V0z"/>
		<path id="Path_Copy_2-4" class="st3" d="M223,0v11h12"/>
	</g>
	<g id="Group_6_Copy_2" transform="translate(1013 179)">
		<path id="Path_Copy-5" class="st2" d="M0,0h46.4L58,11.4V57H0V0z"/>
		<path id="Path_Copy_2-5" class="st3" d="M46,0v11h12"/>
		<path id="Path_Copy-6" class="st2" d="M177,0h46.4L235,11.4V57h-58V0z"/>
		<path id="Path_Copy_2-6" class="st3" d="M223,0v11h12"/>
	</g>
	<g id="Group_6_Copy_3" transform="translate(1458 179)">
		<path id="Path_Copy-7" class="st2" d="M0,0h46.4L58,11.4V57H0V0z"/>
		<path id="Path_Copy_2-7" class="st3" d="M46,0v11h12"/>
		<path id="Path_Copy-8" class="st2" d="M177,0h46.4L235,11.4V57h-58V0z"/>
		<path id="Path_Copy_2-8" class="st3" d="M223,0v11h12"/>
	</g>
	<path id="Path-99" class="st4" d="M196,102h45.6l11.4,11.4V159h-57V102z"/>
	<path id="Path-100" class="st5" d="M242,102v12h11"/>
	<g id="Group_9" transform="translate(195 24)">
		<path id="Path-101" class="st6" d="M0,0h46.4L58,11.4V57H0V0z"/>
		<path id="Path-102" class="st7" d="M46,0v11h12"/>
	</g>
	<path id="Path-103" class="st4" d="M649,102h45.6l11.4,11.4V159h-57V102z"/>
	<path id="Path-104" class="st5" d="M695,102v12h11"/>
	<g id="Group_8" transform="translate(648 24)">
		<path id="Path-105" class="st6" d="M0,0h46.4L58,11.4V57H0V0z"/>
		<path id="Path-106" class="st7" d="M46,0v11h12"/>
	</g>
	<path id="Path-107" class="st4" d="M1101,102h45.6l11.4,11.4V159h-57V102z"/>
	<path id="Path-108" class="st5" d="M1147,102v12h11"/>
	<g id="Group_7" transform="translate(1100 24)">
		<path id="Path-109" class="st6" d="M0,0h46.4L58,11.4V57H0V0z"/>
		<path id="Path-110" class="st7" d="M46,0v11h12"/>
	</g>
	<path id="Path-111" class="st4" d="M1547,102h45.6l11.4,11.4V159h-57V102z"/>
	<path id="Path-112" class="st5" d="M1593,102v12h11"/>
	<path id="Path-113" class="st6" d="M1546,24h46.4l11.6,11.4V81h-58V24z"/>
	<path id="Path-114" class="st7" d="M1592,24v11h12"/>
	<text transform="matrix(1 0 0 1 125 208)" class="st8 st9 st10">plant care</text>
	<text transform="matrix(1 0 0 1 295 208)" class="st8 st9 st10">plant identifying</text>
	<text transform="matrix(1 0 0 1 202 57)" class="st8 st9 st10">plant library</text>
	<text transform="matrix(1 0 0 1 205 125)" class="st8 st9 st10">Plant </text>
	<text transform="matrix(1 0 0 1 205 131)" class="st8 st9 st10">Information</text>
	<text transform="matrix(1 0 0 1 162 361)" class="st8 st9 st10">plant hardiness </text>
	<text transform="matrix(1 0 0 1 162 367)" class="st8 st9 st10">zone map</text>
	<text transform="matrix(1 0 0 1 251 356)" class="st8 st9 st10">How long it </text>
	<text transform="matrix(1 0 0 1 251 362)" class="st8 st9 st10">takes to sprout?</text>
	<text transform="matrix(1 0 0 1 162 284)" class="st8 st9 st10">rooting cuttings </text>
	<text transform="matrix(1 0 0 1 162 290)" class="st8 st9 st10">in water</text>
	<text transform="matrix(1 0 0 1 339 362)" class="st8 st9 st10">wind resistance</text>
	<text transform="matrix(1 0 0 1 340 280)" class="st8 st9 st10">don’t know the </text>
	<text transform="matrix(1 0 0 1 340 286)" class="st8 st9 st10">name of my </text>
	<text transform="matrix(1 0 0 1 340 292)" class="st8 st9 st10">plants</text>
	<text transform="matrix(1 0 0 1 73 277)" class="st8 st9 st10">hard to </text>
	<text transform="matrix(1 0 0 1 73 283)" class="st8 st9 st10">remember the </text>
	<text transform="matrix(1 0 0 1 73 289)" class="st8 st9 st10">watering </text>
	<text transform="matrix(1 0 0 1 73 295)" class="st8 st9 st10">schedule</text>
	<text transform="matrix(1 0 0 1 259 284)" class="st8 st9 st10">watering </text>
	<text transform="matrix(1 0 0 1 259 290)" class="st8 st9 st10">schedule</text>
	<text transform="matrix(1 0 0 1 73 360)" class="st8 st9 st10">sunlight </text>
	<text transform="matrix(1 0 0 1 73 366)" class="st8 st9 st10">requirement</text>
	<text transform="matrix(1 0 0 1 163 442)" class="st8 st9 st10">plant habitat</text>
	<text transform="matrix(1 0 0 1 1420 516)" class="st8 st9 st10">not enough </text>
	<text transform="matrix(1 0 0 1 1420 522)" class="st8 st9 st10">space for plants</text>
	<text transform="matrix(1 0 0 1 1600 440)" class="st8 st9 st10">looking for wood </text>
	<text transform="matrix(1 0 0 1 1600 446)" class="st8 st9 st10">shredder</text>
	<text transform="matrix(1 0 0 1 1420 363)" class="st8 st9 st10">looking for </text>
	<text transform="matrix(1 0 0 1 1420 369)" class="st8 st9 st10">shredded wood </text>
	<text transform="matrix(1 0 0 1 1420 375)" class="st8 st9 st10">for my backyard</text>
	<text transform="matrix(1 0 0 1 656 50)" class="st8 st9 st10">local social </text>
	<text transform="matrix(1 0 0 1 656 56)" class="st8 st9 st10">network</text>
	<text transform="matrix(1 0 0 1 656 123)" class="st8 st9 st10">discuss and </text>
	<text transform="matrix(1 0 0 1 656 129)" class="st8 st9 st10">help with local </text>
	<text transform="matrix(1 0 0 1 656 135)" class="st8 st9 st10">community</text>
	<text transform="matrix(1 0 0 1 565 202)" class="st8 st9 st10">get horticulture </text>
	<text transform="matrix(1 0 0 1 565 208)" class="st8 st9 st10">experience </text>
	<text transform="matrix(1 0 0 1 565 214)" class="st8 st9 st10">nearby</text>
	<text transform="matrix(1 0 0 1 743 204)" class="st8 st9 st10">share gardening </text>
	<text transform="matrix(1 0 0 1 743 210)" class="st8 st9 st10">plants and tools</text>
	<text transform="matrix(1 0 0 1 791 432)" class="st8 st9 st10">differentiation of </text>
	<text transform="matrix(1 0 0 1 791 438)" class="st8 st9 st10">local climate</text>
	<text transform="matrix(1 0 0 1 609 356)" class="st8 st9 st10">hard to judge is </text>
	<text transform="matrix(1 0 0 1 609 362)" class="st8 st9 st10">underwatering </text>
	<text transform="matrix(1 0 0 1 609 368)" class="st8 st9 st10">or overwatering</text>
	<text transform="matrix(1 0 0 1 700 436)" class="st8 st9 st10">winter-friendly </text>
	<text transform="matrix(1 0 0 1 700 442)" class="st8 st9 st10">plants list</text>
	<text transform="matrix(1 0 0 1 702 356)" class="st8 st9 st10">looking for </text>
	<text transform="matrix(1 0 0 1 702 362)" class="st8 st9 st10">watering </text>
	<text transform="matrix(1 0 0 1 702 368)" class="st8 st9 st10">schedule </text>
	<text transform="matrix(1 0 0 1 702 374)" class="st8 st9 st10">references </text>
	<text transform="matrix(1 0 0 1 702 380)" class="st8 st9 st10">nearby</text>
	<text transform="matrix(1 0 0 1 701 284)" class="st8 st9 st10">can I left my </text>
	<text transform="matrix(1 0 0 1 701 290)" class="st8 st9 st10">tomato plant </text>
	<text transform="matrix(1 0 0 1 701 296)" class="st8 st9 st10">outside during </text>
	<text transform="matrix(1 0 0 1 701 302)" class="st8 st9 st10">winter</text>
	<text transform="matrix(1 0 0 1 523 511)" class="st8 st9 st10">how to deal with </text>
	<text transform="matrix(1 0 0 1 523 517)" class="st8 st9 st10">cold </text>
	<text transform="matrix(1 0 0 1 523 523)" class="st8 st9 st10">temperatures</text>
	<text transform="matrix(1 0 0 1 527 356)" class="st8 st9 st10">have too many </text>
	<text transform="matrix(1 0 0 1 527 362)" class="st8 st9 st10">lemons</text>
	<text transform="matrix(1 0 0 1 790 356)" class="st8 st9 st10">kale grows fast, </text>
	<text transform="matrix(1 0 0 1 790 362)" class="st8 st9 st10">have a lot of </text>
	<text transform="matrix(1 0 0 1 790 368)" class="st8 st9 st10">extra kales</text>
	<text transform="matrix(1 0 0 1 524 435)" class="st8 st9 st10">have a raccoon </text>
	<text transform="matrix(1 0 0 1 524 441)" class="st8 st9 st10">in my backyard</text>
	<text transform="matrix(1 0 0 1 612 436)" class="st8 st9 st10">seedling and </text>
	<text transform="matrix(1 0 0 1 612 442)" class="st8 st9 st10">sprout with </text>
	<text transform="matrix(1 0 0 1 612 448)" class="st8 st9 st10">neighbors</text>
	<text transform="matrix(1 0 0 1 610 516)" class="st8 st9 st10">sharing plants </text>
	<text transform="matrix(1 0 0 1 610 522)" class="st8 st9 st10">growing phase</text>
	<text transform="matrix(1 0 0 1 520 284)" class="st8 st9 st10">too much sun or </text>
	<text transform="matrix(1 0 0 1 520 290)" class="st8 st9 st10">less sun</text>
	<text transform="matrix(1 0 0 1 77 431)" class="st8 st9 st10">how hot can </text>
	<text transform="matrix(1 0 0 1 77 437)" class="st8 st9 st10">tomato plants </text>
	<text transform="matrix(1 0 0 1 77 443)" class="st8 st9 st10">tolerate</text>
	<text transform="matrix(1 0 0 1 790 284)" class="st8 st9 st10">want to discuss </text>
	<text transform="matrix(1 0 0 1 790 290)" class="st8 st9 st10">with a local </text>
	<text transform="matrix(1 0 0 1 790 296)" class="st8 st9 st10">gardener</text>
	<text transform="matrix(1 0 0 1 612 284)" class="st8 st9 st10">looking for help </text>
	<text transform="matrix(1 0 0 1 612 290)" class="st8 st9 st10">about plant leaf </text>
	<text transform="matrix(1 0 0 1 612 296)" class="st8 st9 st10">turning yellow</text>
	<text transform="matrix(1 0 0 1 1024 204)" class="st8 st9 st10">Plant disease </text>
	<text transform="matrix(1 0 0 1 1024 210)" class="st8 st9 st10">solution</text>
	<text transform="matrix(1 0 0 1 1204 206)" class="st8 st9 st10">Insecticides</text>
	<text transform="matrix(1 0 0 1 1108 125)" class="st8 st9 st10">Protection and </text>
	<text transform="matrix(1 0 0 1 1108 131)" class="st8 st9 st10">Prevention</text>
	<text transform="matrix(1 0 0 1 1107 55)" class="st8 st9 st10">Plant Problem</text>
	<text transform="matrix(1 0 0 1 1154 286)" class="st8 st9 st10">plant disease </text>
	<text transform="matrix(1 0 0 1 1154 292)" class="st8 st9 st10">diagnosis</text>
	<text transform="matrix(1 0 0 1 1154 363)" class="st8 st9 st10">brown spots on </text>
	<text transform="matrix(1 0 0 1 1154 369)" class="st8 st9 st10">plant leaves</text>
	<text transform="matrix(1 0 0 1 1248 363)" class="st8 st9 st10">houseplant </text>
	<text transform="matrix(1 0 0 1 1248 369)" class="st8 st9 st10">pests</text>
	<text transform="matrix(1 0 0 1 1065 437)" class="st8 st9 st10">Common brown </text>
	<text transform="matrix(1 0 0 1 1065 443)" class="st8 st9 st10">scale</text>
	<text transform="matrix(1 0 0 1 976 437)" class="st8 st9 st10">how to deal with </text>
	<text transform="matrix(1 0 0 1 976 443)" class="st8 st9 st10">red spider mites</text>
	<text transform="matrix(1 0 0 1 1151 443)" class="st8 st9 st10">do i need fertilizer</text>
	<text transform="matrix(1 0 0 1 1240 442)" class="st8 st9 st10">best fertilizer time</text>
	<text transform="matrix(1 0 0 1 1244 286)" class="st8 st9 st10">yellow spots all </text>
	<text transform="matrix(1 0 0 1 1244 292)" class="st8 st9 st10">over the leaf</text>
	<text transform="matrix(1 0 0 1 1063 286)" class="st8 st9 st10">white powder on </text>
	<text transform="matrix(1 0 0 1 1063 292)" class="st8 st9 st10">my plant leaf</text>
	<text transform="matrix(1 0 0 1 1065 365)" class="st8 st9 st10">leaf blight</text>
	<text transform="matrix(1 0 0 1 976 363)" class="st8 st9 st10">prevent </text>
	<text transform="matrix(1 0 0 1 976 369)" class="st8 st9 st10">houseplant pest </text>
	<text transform="matrix(1 0 0 1 976 375)" class="st8 st9 st10">infestation</text>
	<text transform="matrix(1 0 0 1 978 286)" class="st8 st9 st10">why is my </text>
	<text transform="matrix(1 0 0 1 978 292)" class="st8 st9 st10">lavender wilting</text>
	<text transform="matrix(1 0 0 1 1643 204)" class="st8 st9 st10">looking for tools </text>
	<text transform="matrix(1 0 0 1 1643 210)" class="st8 st9 st10">and plants</text>
	<text transform="matrix(1 0 0 1 1466 204)" class="st8 st9 st10">unwanted tools </text>
	<text transform="matrix(1 0 0 1 1466 210)" class="st8 st9 st10">and plants</text>
	<text transform="matrix(1 0 0 1 1419 286)" class="st8 st9 st10">unwanted tools </text>
	<text transform="matrix(1 0 0 1 1419 292)" class="st8 st9 st10">and plants</text>
	<text transform="matrix(1 0 0 1 1561 125)" class="st8 st9 st10">reuse </text>
	<text transform="matrix(1 0 0 1 1561 131)" class="st8 st9 st10">resources</text>
	<text transform="matrix(1 0 0 1 1509 285)" class="st8 st9 st10">grow too many </text>
	<text transform="matrix(1 0 0 1 1509 291)" class="st8 st9 st10">plants</text>
	<text transform="matrix(1 0 0 1 1557 50)" class="st8 st9 st10">share &amp; sell</text>
	<text transform="matrix(1 0 0 1 1599 363)" class="st8 st9 st10">share unwanted </text>
	<text transform="matrix(1 0 0 1 1599 369)" class="st8 st9 st10">tools</text>
	<text transform="matrix(1 0 0 1 1599 283)" class="st8 st9 st10">plant nursery </text>
	<text transform="matrix(1 0 0 1 1599 289)" class="st8 st9 st10">throw their </text>
	<text transform="matrix(1 0 0 1 1599 295)" class="st8 st9 st10">unwanted pots</text>
	<text transform="matrix(1 0 0 1 1688 283)" class="st8 st9 st10">could not find </text>
	<text transform="matrix(1 0 0 1 1688 289)" class="st8 st9 st10">the right pot</text>
	<text transform="matrix(1 0 0 1 1689 363)" class="st8 st9 st10">many extra </text>
	<text transform="matrix(1 0 0 1 1689 369)" class="st8 st9 st10">baby plants</text>
	<text transform="matrix(1 0 0 1 1510 441)" class="st8 st9 st10">many extra plant </text>
	<text transform="matrix(1 0 0 1 1510 447)" class="st8 st9 st10">seeds</text>
	<text transform="matrix(1 0 0 1 1511 363)" class="st8 st9 st10">have too many </text>
	<text transform="matrix(1 0 0 1 1511 369)" class="st8 st9 st10">pots</text>
	<text transform="matrix(1 0 0 1 1422 442)" class="st8 st9 st10">want more plant </text>
	<text transform="matrix(1 0 0 1 1422 448)" class="st8 st9 st10">variety</text>
	<text transform="matrix(1 0 0 1 1690 434)" class="st8 st9 st10">want to borrow a </text>
	<text transform="matrix(1 0 0 1 1690 440)" class="st8 st9 st10">saw to cut a </text>
	<text transform="matrix(1 0 0 1 1690 446)" class="st8 st9 st10">branch</text>
</g>
</svg>
