<svg xmlns="http://www.w3.org/2000/svg" xmlns:xlink="http://www.w3.org/1999/xlink" width="1800" height="450" viewBox="0 0 1800 450">
  <defs>
    <filter id="Path" x="501" y="333.5" width="71" height="72" filterUnits="userSpaceOnUse">
      <feOffset dx="1" dy="2" input="SourceAlpha"/>
      <feGaussianBlur stdDeviation="2" result="blur"/>
      <feFlood flood-color="#b7b7b7"/>
      <feComposite operator="in" in2="blur"/>
      <feComposite in="SourceGraphic"/>
    </filter>
    <clipPath id="clip-affinity_mapping_copy_2">
      <rect width="1800" height="450"/>
    </clipPath>
  </defs>
  <g id="affinity_mapping_copy_2" data-name="affinity mapping copy 2" clip-path="url(#clip-affinity_mapping_copy_2)">
    <rect width="1800" height="450" fill="#fff"/>
    <g id="Group_14" data-name="Group 14" transform="translate(1470 41)">
      <g id="Group_Copy_48" data-name="Group Copy 48">
        <path id="Path-2" data-name="Path" d="M0,0H45.6L57,11.6V58H0Z" fill="#ffdf71" stroke="#d9be60" stroke-miterlimit="10" stroke-width="2"/>
        <path id="Path-3" data-name="Path" d="M0,0V12H11" transform="translate(46)" fill="#d9be60"/>
      </g>
      <text id="sunlight_requirement_copy_2" data-name="sunlight requirement copy 2" transform="translate(10 19)" fill="#5c5c5c" font-size="6" font-family="Helvetica-Light, Helvetica" font-weight="300"><tspan x="0" y="5">sunlight </tspan><tspan x="0" y="11">requirement</tspan></text>
    </g>
    <g id="Group_12" data-name="Group 12" transform="translate(1612 225)">
      <g id="Group_Copy_43" data-name="Group Copy 43">
        <path id="Path-4" data-name="Path" d="M0,0H45.6L57,11.6V58H0Z" fill="#ffdf71" stroke="#d9be60" stroke-miterlimit="10" stroke-width="2"/>
        <path id="Path-5" data-name="Path" d="M0,0V12H11" transform="translate(46)" fill="#d9be60"/>
      </g>
      <text id="houseplant_pests_copy" data-name="houseplant pests copy" transform="translate(7 18)" fill="#5c5c5c" font-size="6" font-family="Helvetica-Light, Helvetica" font-weight="300"><tspan x="0" y="5">houseplant </tspan><tspan x="0" y="11">pests</tspan></text>
    </g>
    <g id="Group_Copy_43-2" data-name="Group Copy 43" transform="translate(1560 350)">
      <path id="Path-6" data-name="Path" d="M0,0H45.6L57,11.6V58H0Z" fill="#ffdf71" stroke="#d9be60" stroke-miterlimit="10" stroke-width="2"/>
      <path id="Path-7" data-name="Path" d="M0,0V12H11" transform="translate(46)" fill="#d9be60"/>
    </g>
    <g id="Group_Copy_42" data-name="Group Copy 42" transform="translate(1642 112)">
      <path id="Path-8" data-name="Path" d="M0,0H45.6L57,11.6V58H0Z" fill="#ffdf71" stroke="#d9be60" stroke-miterlimit="10" stroke-width="2"/>
      <path id="Path-9" data-name="Path" d="M0,0V12H11" transform="translate(46)" fill="#d9be60"/>
    </g>
    <g id="Group_Copy_46" data-name="Group Copy 46" transform="translate(1427 294)">
      <path id="Path-10" data-name="Path" d="M0,0H45.6L57,11.6V58H0Z" fill="#ffdf71" stroke="#d9be60" stroke-miterlimit="10" stroke-width="2"/>
      <path id="Path-11" data-name="Path" d="M0,0V12H11" transform="translate(46)" fill="#d9be60"/>
    </g>
    <text id="plant_nursery_throw_copy_2" data-name="plant nursery throw copy 2" transform="translate(1433 310)" fill="#5c5c5c" font-size="6" font-family="Helvetica-Light, Helvetica" font-weight="300"><tspan x="0" y="5">plant nursery </tspan><tspan x="0" y="11">throw their </tspan><tspan x="0" y="17">unwanted pots</tspan></text>
    <text id="could_not_find_the_r_copy_2" data-name="could not find the r copy 2" transform="translate(1651 128)" fill="#5c5c5c" font-size="6" font-family="Helvetica-Light, Helvetica" font-weight="300"><tspan x="0" y="5">could not find </tspan><tspan x="0" y="11">the right pot</tspan></text>
    <text id="many_extra_baby_plan_copy_2" data-name="many extra baby plan copy 2" transform="translate(1567 369)" fill="#5c5c5c" font-size="6" font-family="Helvetica-Light, Helvetica" font-weight="300"><tspan x="0" y="5">many extra </tspan><tspan x="0" y="11">baby plants </tspan></text>
    <g id="Group_7" data-name="Group 7" transform="translate(1723 286.5)">
      <g id="Group_3" data-name="Group 3">
        <path id="Path-12" data-name="Path" d="M0,0H45.6L57,11.6V58H0Z" fill="#ffdf71" stroke="#d9be60" stroke-miterlimit="10" stroke-width="2"/>
        <path id="Path-13" data-name="Path" d="M0,0V12H11" transform="translate(46)" fill="#d9be60"/>
        <text id="kale_grows_fast_hav_copy" data-name="kale grows fast, hav copy" transform="translate(6 17.5)" fill="#5c5c5c" font-size="6" font-family="Helvetica-Light, Helvetica" font-weight="300"><tspan x="0" y="5">kale grows fast, </tspan><tspan x="0" y="11">have a lot of </tspan><tspan x="0" y="17">extra kales</tspan></text>
      </g>
    </g>
    <g id="Group" transform="translate(1094 310.5)">
      <path id="Path-14" data-name="Path" d="M0,0H45.6L57,11.6V58H0Z" fill="#ffdf71" stroke="#d9be60" stroke-miterlimit="10" stroke-width="2"/>
      <path id="Path-15" data-name="Path" d="M0,0V12H11" transform="translate(46)" fill="#d9be60"/>
      <text id="sharing_plants_growi_copy" data-name="sharing plants growi copy" transform="translate(6 19.5)" fill="#5c5c5c" font-size="6" font-family="Helvetica-Light, Helvetica" font-weight="300"><tspan x="0" y="5">sharing plants </tspan><tspan x="0" y="11">growing phase</tspan></text>
    </g>
    <g id="Group_Copy_46-2" data-name="Group Copy 46" transform="translate(1503 233)">
      <path id="Path-16" data-name="Path" d="M0,0H45.6L57,11.6V58H0Z" fill="#ffdf71" stroke="#d9be60" stroke-miterlimit="10" stroke-width="2"/>
      <path id="Path-17" data-name="Path" d="M0,0V12H11" transform="translate(46)" fill="#d9be60"/>
    </g>
    <text id="can_I_left_my_tomato_Copy" data-name="can I left my tomato Copy" transform="translate(1510 248)" fill="#5c5c5c" font-size="6" font-family="Helvetica-Light, Helvetica" font-weight="300"><tspan x="0" y="5">can I left my </tspan><tspan x="0" y="11">tomato plant </tspan><tspan x="0" y="17">outside during </tspan><tspan x="0" y="23">winter</tspan></text>
    <g id="Group_9" data-name="Group 9" transform="translate(314 204)">
      <g id="Group_Copy_50" data-name="Group Copy 50">
        <path id="Path-18" data-name="Path" d="M0,0H45.6L57,11.6V58H0Z" fill="#ffdf71" stroke="#d9be60" stroke-miterlimit="10" stroke-width="2"/>
        <path id="Path-19" data-name="Path" d="M0,0V12H11" transform="translate(46)" fill="#d9be60"/>
      </g>
      <text id="hard_to_remember_the_copy_2" data-name="hard to remember the copy 2" transform="translate(7 14)" fill="#5c5c5c" font-size="6" font-family="Helvetica-Light, Helvetica" font-weight="300"><tspan x="0" y="5">hard to </tspan><tspan x="0" y="11">remember the </tspan><tspan x="0" y="17">watering </tspan><tspan x="0" y="23">schedule</tspan></text>
    </g>
    <g id="Group_6" data-name="Group 6" transform="translate(1229 172)">
      <g id="Group_Copy_45" data-name="Group Copy 45">
        <path id="Path-20" data-name="Path" d="M0,0H45.6L57,11.6V58H0Z" fill="#ffdf71" stroke="#d9be60" stroke-miterlimit="10" stroke-width="2"/>
        <path id="Path-21" data-name="Path" d="M0,0V12H11" transform="translate(46)" fill="#d9be60"/>
      </g>
      <text id="wind_resistance_copy" data-name="wind resistance copy" transform="translate(6 25)" fill="#5c5c5c" font-size="6" font-family="Helvetica-Light, Helvetica" font-weight="300"><tspan x="0" y="5">wind resistance</tspan></text>
    </g>
    <g id="Group_18" data-name="Group 18" transform="translate(1418 188)">
      <g id="Group_Copy_47" data-name="Group Copy 47">
        <path id="Path-22" data-name="Path" d="M0,0H45.6L57,11.6V58H0Z" fill="#ffdf71" stroke="#d9be60" stroke-miterlimit="10" stroke-width="2"/>
        <path id="Path-23" data-name="Path" d="M0,0V12H11" transform="translate(46)" fill="#d9be60"/>
      </g>
      <text id="plant_habitat_copy" data-name="plant habitat copy" transform="translate(9 25)" fill="#5c5c5c" font-size="6" font-family="Helvetica-Light, Helvetica" font-weight="300"><tspan x="0" y="5">plant habitat</tspan></text>
    </g>
    <g id="Group_13" data-name="Group 13" transform="translate(868 22.5)">
      <path id="Path-24" data-name="Path" d="M0,0H45.6L57,11.6V58H0Z" fill="#ffdf71" stroke="#d9be60" stroke-miterlimit="10" stroke-width="2"/>
      <path id="Path-25" data-name="Path" d="M0,0V12H11" transform="translate(46)" fill="#d9be60"/>
    </g>
    <text id="do_i_need_fertilizer_copy" data-name="do i need fertilizer copy" transform="translate(874 45)" fill="#5c5c5c" font-size="6" font-family="Helvetica-Light, Helvetica" font-weight="300"><tspan x="0" y="5">do i need fertilizer</tspan></text>
    <g id="Group_15" data-name="Group 15" transform="translate(1269 89.5)">
      <path id="Path-26" data-name="Path" d="M0,0H45.6L57,11.6V58H0Z" fill="#ffdf71" stroke="#d9be60" stroke-miterlimit="10" stroke-width="2"/>
      <path id="Path-27" data-name="Path" d="M0,0V12H11" transform="translate(46)" fill="#d9be60"/>
    </g>
    <text id="best_fertilizer_time_copy" data-name="best fertilizer time copy" transform="translate(1275 112)" fill="#5c5c5c" font-size="6" font-family="Helvetica-Light, Helvetica" font-weight="300"><tspan x="0" y="5">best fertilizer time</tspan></text>
    <g id="Group_Copy_46-3" data-name="Group Copy 46" transform="translate(1172 254)">
      <path id="Path-28" data-name="Path" d="M0,0H45.6L57,11.6V58H0Z" fill="#ffdf71" stroke="#d9be60" stroke-miterlimit="10" stroke-width="2"/>
      <path id="Path-29" data-name="Path" d="M0,0V12H11" transform="translate(46)" fill="#d9be60"/>
    </g>
    <g id="Group_Copy_45-2" data-name="Group Copy 45" transform="translate(1099 94)">
      <path id="Path-30" data-name="Path" d="M0,0H45.6L57,11.6V58H0Z" fill="#ffdf71" stroke="#d9be60" stroke-miterlimit="10" stroke-width="2"/>
      <path id="Path-31" data-name="Path" d="M0,0V12H11" transform="translate(46)" fill="#d9be60"/>
    </g>
    <g id="Group_Copy_47-2" data-name="Group Copy 47" transform="translate(979 124)">
      <path id="Path-32" data-name="Path" d="M0,0H45.6L57,11.6V58H0Z" fill="#ffdf71" stroke="#d9be60" stroke-miterlimit="10" stroke-width="2"/>
      <path id="Path-33" data-name="Path" d="M0,0V12H11" transform="translate(46)" fill="#d9be60"/>
    </g>
    <g id="Group_Copy_49" data-name="Group Copy 49" transform="translate(934 240)">
      <path id="Path-34" data-name="Path" d="M0,0H45.6L57,11.6V58H0Z" fill="#ffdf71" stroke="#d9be60" stroke-miterlimit="10" stroke-width="2"/>
      <path id="Path-35" data-name="Path" d="M0,0V12H11" transform="translate(46)" fill="#d9be60"/>
    </g>
    <text id="plant_disease_diagno_copy_2" data-name="plant disease diagno copy 2" transform="translate(1179 274)" fill="#5c5c5c" font-size="6" font-family="Helvetica-Light, Helvetica" font-weight="300"><tspan x="0" y="5">plant disease </tspan><tspan x="0" y="11">diagnosis</tspan></text>
    <text id="Common_brown_scale_Copy" data-name="Common brown scale Copy" transform="translate(1106 110)" fill="#5c5c5c" font-size="6" font-family="Helvetica-Light, Helvetica" font-weight="300"><tspan x="0" y="5">Common brown </tspan><tspan x="0" y="11">scale</tspan></text>
    <text id="how_to_deal_with_red_copy" data-name="how to deal with red copy" transform="translate(985 140)" fill="#5c5c5c" font-size="6" font-family="Helvetica-Light, Helvetica" font-weight="300"><tspan x="0" y="5">how to deal with </tspan><tspan x="0" y="11">red spider mites</tspan></text>
    <text id="prevent_houseplant_p_copy" data-name="prevent houseplant p copy" transform="translate(942 254)" fill="#5c5c5c" font-size="6" font-family="Helvetica-Light, Helvetica" font-weight="300"><tspan x="0" y="5">prevent </tspan><tspan x="0" y="11">houseplant pest </tspan><tspan x="0" y="17">infestation</tspan></text>
    <g id="Group_16" data-name="Group 16" transform="translate(246 127.5)">
      <path id="Path-36" data-name="Path" d="M0,0H45.6L57,11.6V58H0Z" fill="#ffdf71" stroke="#d9be60" stroke-miterlimit="10" stroke-width="2"/>
      <text id="looking_for_wood_shr_copy_2" data-name="looking for wood shr copy 2" transform="translate(7 21.5)" fill="#5c5c5c" font-size="6" font-family="Helvetica-Light, Helvetica" font-weight="300"><tspan x="0" y="5">looking for wood </tspan><tspan x="0" y="11">shredder</tspan></text>
      <path id="Path-37" data-name="Path" d="M0,0V12H11" transform="translate(46)" fill="#d9be60"/>
    </g>
    <g id="Group_Copy_49-2" data-name="Group Copy 49" transform="translate(278 316)">
      <path id="Path-38" data-name="Path" d="M0,0H45.6L57,11.6V58H0Z" fill="#ffdf71" stroke="#d9be60" stroke-miterlimit="10" stroke-width="2"/>
      <path id="Path-39" data-name="Path" d="M0,0V12H11" transform="translate(46)" fill="#d9be60"/>
    </g>
    <text id="want_more_plant_vari_copy_2" data-name="want more plant vari copy 2" transform="translate(285 339)" fill="#5c5c5c" font-size="6" font-family="Helvetica-Light, Helvetica" font-weight="300"><tspan x="0" y="5">want more plant </tspan><tspan x="0" y="11">variety</tspan></text>
    <g id="Group_Copy_48-2" data-name="Group Copy 48" transform="translate(1276 337)">
      <path id="Path-40" data-name="Path" d="M0,0H45.6L57,11.6V58H0Z" fill="#ffdf71" stroke="#d9be60" stroke-miterlimit="10" stroke-width="2"/>
      <path id="Path-41" data-name="Path" d="M0,0V12H11" transform="translate(46)" fill="#d9be60"/>
    </g>
    <g id="Group_Copy_42-2" data-name="Group Copy 42" transform="translate(1327 233)">
      <path id="Path-42" data-name="Path" d="M0,0H45.6L57,11.6V58H0Z" fill="#ffdf71" stroke="#d9be60" stroke-miterlimit="10" stroke-width="2"/>
      <path id="Path-43" data-name="Path" d="M0,0V12H11" transform="translate(46)" fill="#d9be60"/>
    </g>
    <text id="want_to_discuss_with_copy_2" data-name="want to discuss with copy 2" transform="translate(1333 249)" fill="#5c5c5c" font-size="6" font-family="Helvetica-Light, Helvetica" font-weight="300"><tspan x="0" y="5">want to discuss </tspan><tspan x="0" y="11">with a local </tspan><tspan x="0" y="17">gardener</tspan></text>
    <g id="Group_10" data-name="Group 10" transform="translate(1172 30)">
      <g id="Group_Copy_42-3" data-name="Group Copy 42">
        <path id="Path-44" data-name="Path" d="M0,0H45.6L57,11.6V58H0Z" fill="#ffdf71" stroke="#d9be60" stroke-miterlimit="10" stroke-width="2"/>
        <path id="Path-45" data-name="Path" d="M0,0V12H11" transform="translate(46)" fill="#d9be60"/>
      </g>
      <text id="yellow_spots_all_ove_copy" data-name="yellow spots all ove copy" transform="translate(9 20)" fill="#5c5c5c" font-size="6" font-family="Helvetica-Light, Helvetica" font-weight="300"><tspan x="0" y="5">yellow spots all </tspan><tspan x="0" y="11">over the leaf</tspan></text>
    </g>
    <text id="hard_to_judge_is_und_copy_2" data-name="hard to judge is und copy 2" transform="translate(1282 354)" fill="#5c5c5c" font-size="6" font-family="Helvetica-Light, Helvetica" font-weight="300"><tspan x="0" y="5">hard to judge is </tspan><tspan x="0" y="11">underwatering </tspan><tspan x="0" y="17">or overwatering</tspan></text>
    <g id="Group_Copy_44" data-name="Group Copy 44" transform="translate(1598 29)">
      <path id="Path-46" data-name="Path" d="M0,0H45.6L57,11.6V58H0Z" fill="#ffdf71" stroke="#d9be60" stroke-miterlimit="10" stroke-width="2"/>
      <path id="Path-47" data-name="Path" d="M0,0V12H11" transform="translate(46)" fill="#d9be60"/>
    </g>
    <text id="share_unwanted_tools_copy_2" data-name="share unwanted tools copy 2" transform="translate(1604 48)" fill="#5c5c5c" font-size="6" font-family="Helvetica-Light, Helvetica" font-weight="300"><tspan x="0" y="5">share unwanted </tspan><tspan x="0" y="11">tools</tspan></text>
    <g id="Group_19" data-name="Group 19" transform="translate(88 336.5)">
      <path id="Path-48" data-name="Path" d="M0,0H45.6L57,11.6V58H0Z" fill="#ffdf71" stroke="#d9be60" stroke-miterlimit="10" stroke-width="2"/>
      <text id="have_a_raccoon_in_my_copy" data-name="have a raccoon in my copy" transform="translate(7 21.5)" fill="#5c5c5c" font-size="6" font-family="Helvetica-Light, Helvetica" font-weight="300"><tspan x="0" y="5">have a raccoon </tspan><tspan x="0" y="11">in my backyard</tspan></text>
      <path id="Path-49" data-name="Path" d="M0,0V12H11" transform="translate(45)" fill="#d9be60"/>
    </g>
    <g id="Group_4" data-name="Group 4" transform="translate(23 22)">
      <g id="Group_Copy_47-3" data-name="Group Copy 47">
        <path id="Path-50" data-name="Path" d="M0,0H45.6L57,11.6V58H0Z" fill="#ffdf71" stroke="#d9be60" stroke-miterlimit="10" stroke-width="2"/>
        <path id="Path-51" data-name="Path" d="M0,0V12H11" transform="translate(46)" fill="#d9be60"/>
      </g>
      <text id="how_to_deal_with_col_copy" data-name="how to deal with col copy" transform="translate(7 17)" fill="#5c5c5c" font-size="6" font-family="Helvetica-Light, Helvetica" font-weight="300"><tspan x="0" y="5">how to deal with </tspan><tspan x="0" y="11">cold </tspan><tspan x="0" y="17">temperatures</tspan></text>
    </g>
    <g id="Group_Copy_49-3" data-name="Group Copy 49" transform="translate(1055 206)">
      <path id="Path-52" data-name="Path" d="M0,0H45.6L57,11.6V58H0Z" fill="#ffdf71" stroke="#d9be60" stroke-miterlimit="10" stroke-width="2"/>
      <path id="Path-53" data-name="Path" d="M0,0V12H11" transform="translate(46)" fill="#d9be60"/>
    </g>
    <text id="have_too_many_lemons_copy" data-name="have too many lemons copy" transform="translate(1060 226)" fill="#5c5c5c" font-size="6" font-family="Helvetica-Light, Helvetica" font-weight="300"><tspan x="0" y="5">have too many </tspan><tspan x="0" y="11">lemons</tspan></text>
    <g id="Group_Copy_48-3" data-name="Group Copy 48" transform="translate(724 100)">
      <path id="Path-54" data-name="Path" d="M0,0H45.6L57,11.6V58H0Z" fill="#ffdf71" stroke="#d9be60" stroke-miterlimit="10" stroke-width="2"/>
      <path id="Path-55" data-name="Path" d="M0,0V12H11" transform="translate(46)" fill="#d9be60"/>
    </g>
    <g id="Group_2" data-name="Group 2" transform="translate(1020 23.5)">
      <path id="Path-56" data-name="Path" d="M0,0H45.6L57,11.6V58H0Z" fill="#ffdf71" stroke="#d9be60" stroke-miterlimit="10" stroke-width="2"/>
      <path id="Path-57" data-name="Path" d="M0,0V12H11" transform="translate(46)" fill="#d9be60"/>
      <text id="looking_for_shredded_copy_2" data-name="looking for shredded copy 2" transform="translate(6 17.5)" fill="#5c5c5c" font-size="6" font-family="Helvetica-Light, Helvetica" font-weight="300"><tspan x="0" y="5">looking for </tspan><tspan x="0" y="11">shredded wood </tspan><tspan x="0" y="17">for my backyard</tspan></text>
    </g>
    <text id="have_too_many_pots_copy_2" data-name="have too many pots copy 2" transform="translate(732 119)" fill="#5c5c5c" font-size="6" font-family="Helvetica-Light, Helvetica" font-weight="300"><tspan x="0" y="5">have too many </tspan><tspan x="0" y="11">pots</tspan></text>
    <g id="Group_5" data-name="Group 5" transform="translate(825 186)">
      <g id="Group_Copy_44-2" data-name="Group Copy 44">
        <path id="Path-58" data-name="Path" d="M0,0H45.6L57,11.6V58H0Z" fill="#ffdf71" stroke="#d9be60" stroke-miterlimit="10" stroke-width="2"/>
        <path id="Path-59" data-name="Path" d="M0,0V12H11" transform="translate(46)" fill="#d9be60"/>
      </g>
      <text id="looking_for_watering_copy" data-name="looking for watering copy" transform="translate(9 14)" fill="#5c5c5c" font-size="6" font-family="Helvetica-Light, Helvetica" font-weight="300"><tspan x="0" y="5">looking for </tspan><tspan x="0" y="11">watering </tspan><tspan x="0" y="17">schedule </tspan><tspan x="0" y="23">references </tspan><tspan x="0" y="29">nearby</tspan></text>
    </g>
    <g id="Group_Copy_45-3" data-name="Group Copy 45" transform="translate(654 183)">
      <path id="Path-60" data-name="Path" d="M0,0H45.6L57,11.6V58H0Z" fill="#ffdf71" stroke="#d9be60" stroke-miterlimit="10" stroke-width="2"/>
      <path id="Path-61" data-name="Path" d="M0,0V12H11" transform="translate(46)" fill="#d9be60"/>
    </g>
    <text id="winter-friendly_plan_copy" data-name="winter-friendly plan copy" transform="translate(662 203)" fill="#5c5c5c" font-size="6" font-family="Helvetica-Light, Helvetica" font-weight="300"><tspan x="0" y="5">winter-friendly </tspan><tspan x="0" y="11">plants list</tspan></text>
    <g id="Group_Copy_44-3" data-name="Group Copy 44" transform="translate(144 188)">
      <path id="Path-62" data-name="Path" d="M0,0H45.6L57,11.6V58H0Z" fill="#ffdf71" stroke="#d9be60" stroke-miterlimit="10" stroke-width="2"/>
      <path id="Path-63" data-name="Path" d="M0,0V12H11" transform="translate(46)" fill="#d9be60"/>
    </g>
    <g id="Group_3-2" data-name="Group 3" transform="translate(241 29)">
      <g id="Group_Copy_48-4" data-name="Group Copy 48">
        <path id="Path-64" data-name="Path" d="M0,0H45.6L57,11.6V58H0Z" fill="#ffdf71" stroke="#d9be60" stroke-miterlimit="10" stroke-width="2"/>
        <path id="Path-65" data-name="Path" d="M0,0V12H11" transform="translate(46)" fill="#d9be60"/>
      </g>
      <text id="leaf_blight_copy" data-name="leaf blight copy" transform="translate(8 23)" fill="#5c5c5c" font-size="6" font-family="Helvetica-Light, Helvetica" font-weight="300"><tspan x="0" y="5">leaf blight</tspan></text>
    </g>
    <text id="brown_spots_on_plant_copy" data-name="brown spots on plant copy" transform="translate(153 206)" fill="#5c5c5c" font-size="6" font-family="Helvetica-Light, Helvetica" font-weight="300"><tspan x="0" y="5">brown spots on </tspan><tspan x="0" y="11">plant leaves</tspan></text>
    <g id="Group_Copy_47-4" data-name="Group Copy 47" transform="translate(138 92)">
      <path id="Path-66" data-name="Path" d="M0,0H45.6L57,11.6V58H0Z" fill="#ffdf71" stroke="#d9be60" stroke-miterlimit="10" stroke-width="2"/>
      <path id="Path-67" data-name="Path" d="M0,0V12H11" transform="translate(46)" fill="#d9be60"/>
    </g>
    <text id="many_extra_plant_see_copy_2" data-name="many extra plant see copy 2" transform="translate(143 115)" fill="#5c5c5c" font-size="6" font-family="Helvetica-Light, Helvetica" font-weight="300"><tspan x="0" y="5">many extra plant </tspan><tspan x="0" y="11">seeds </tspan></text>
    <g id="Group_Copy_50-2" data-name="Group Copy 50" transform="translate(23 248)">
      <path id="Path-68" data-name="Path" d="M0,0H45.6L57,11.6V58H0Z" fill="#ffdf71" stroke="#d9be60" stroke-miterlimit="10" stroke-width="2"/>
      <path id="Path-69" data-name="Path" d="M0,0V12H11" transform="translate(46)" fill="#d9be60"/>
    </g>
    <text id="looking_for_help_abo_copy" data-name="looking for help abo copy" transform="translate(28 265)" fill="#5c5c5c" font-size="6" font-family="Helvetica-Light, Helvetica" font-weight="300"><tspan x="0" y="5">looking for help </tspan><tspan x="0" y="11">about plant leaf </tspan><tspan x="0" y="17">turning yellow</tspan></text>
    <g transform="matrix(1, 0, 0, 1, 0, 0)" filter="url(#Path)">
      <path id="Path-70" data-name="Path" d="M0,0H45.6L57,11.6V58H0Z" transform="translate(507 338.5)" fill="#ffdf71" stroke="#d9be60" stroke-miterlimit="10" stroke-width="2"/>
    </g>
    <path id="Path-71" data-name="Path" d="M0,0V12H11" transform="translate(553 338.5)" fill="#d9be60"/>
    <text id="how_hot_can_tomato_p_copy_2" data-name="how hot can tomato p copy 2" transform="translate(513 353)" fill="#5c5c5c" font-size="6" font-family="Helvetica-Light, Helvetica" font-weight="300"><tspan x="0" y="5">how hot can </tspan><tspan x="0" y="11">tomato plants </tspan><tspan x="0" y="17">tolerate</tspan></text>
    <g id="Group_11" data-name="Group 11" transform="translate(551 104.5)">
      <g id="Group-2" data-name="Group">
        <path id="Path_Copy_3" data-name="Path Copy 3" d="M0,0H45.6L57,11.6V58H0Z" fill="#ffdf71" stroke="#d9be60" stroke-miterlimit="10" stroke-width="2"/>
        <path id="Path_Copy_4" data-name="Path Copy 4" d="M0,0V12H11" transform="translate(46)" fill="#d9be60"/>
        <text id="why_is_my_lavender_w_copy" data-name="why is my lavender w copy" transform="translate(8 19.5)" fill="#5c5c5c" font-size="6" font-family="Helvetica-Light, Helvetica" font-weight="300"><tspan x="0" y="5">why is my </tspan><tspan x="0" y="11">lavender wilting</tspan></text>
      </g>
    </g>
    <g id="Group_Copy_50-3" data-name="Group Copy 50" transform="translate(392 287)">
      <path id="Path-72" data-name="Path" d="M0,0H45.6L57,11.6V58H0Z" fill="#ffdf71" stroke="#d9be60" stroke-miterlimit="10" stroke-width="2"/>
      <path id="Path-73" data-name="Path" d="M0,0V12H11" transform="translate(46)" fill="#d9be60"/>
    </g>
    <text id="white_powder_on_my_p_copy" data-name="white powder on my p copy" transform="translate(397 309)" fill="#5c5c5c" font-size="6" font-family="Helvetica-Light, Helvetica" font-weight="300"><tspan x="0" y="5">white powder on </tspan><tspan x="0" y="11">my plant leaf</tspan></text>
    <g id="Group_6-2" data-name="Group 6" transform="translate(647 34)">
      <g id="Group_Copy_43-3" data-name="Group Copy 43">
        <path id="Path-74" data-name="Path" d="M0,0H45.6L57,11.6V58H0Z" fill="#ffdf71" stroke="#d9be60" stroke-miterlimit="10" stroke-width="2"/>
        <path id="Path-75" data-name="Path" d="M0,0V12H11" transform="translate(46)" fill="#d9be60"/>
      </g>
      <text id="differentiation_of_l_copy_2" data-name="differentiation of l copy 2" transform="translate(6 20)" fill="#5c5c5c" font-size="6" font-family="Helvetica-Light, Helvetica" font-weight="300"><tspan x="0" y="5">differentiation of </tspan><tspan x="0" y="11">local climate</tspan></text>
    </g>
    <g id="Group_Copy_45-4" data-name="Group Copy 45" transform="translate(705 274)">
      <path id="Path-76" data-name="Path" d="M0,0H45.6L57,11.6V58H0Z" fill="#ffdf71" stroke="#d9be60" stroke-miterlimit="10" stroke-width="2"/>
      <path id="Path-77" data-name="Path" d="M0,0V12H11" transform="translate(46)" fill="#d9be60"/>
    </g>
    <path id="Path-78" data-name="Path" d="M0,0H45.6L57,11.6V58H0Z" transform="translate(1499 124.5)" fill="#ffdf71" stroke="#d9be60" stroke-miterlimit="10" stroke-width="2"/>
    <path id="Path-79" data-name="Path" d="M0,0V12H11" transform="translate(1545 124.5)" fill="#d9be60"/>
    <text id="not_enough_space_for_copy_12" data-name="not enough space for copy 12" transform="translate(1506 146)" fill="#5c5c5c" font-size="6" font-family="Helvetica-Light, Helvetica" font-weight="300"><tspan x="0" y="5">not enough </tspan><tspan x="0" y="11">space for plants</tspan></text>
    <text id="want_to_borrow_a_saw_copy_2" data-name="want to borrow a saw copy 2" transform="translate(712 295)" fill="#5c5c5c" font-size="6" font-family="Helvetica-Light, Helvetica" font-weight="300"><tspan x="0" y="5">want to borrow a </tspan><tspan x="0" y="11">saw to cut a </tspan><tspan x="0" y="17">branch</tspan></text>
    <g id="Group_8" data-name="Group 8" transform="translate(601 288.5)">
      <path id="Path-80" data-name="Path" d="M0,0H45.6L57,11.6V58H0Z" fill="#ffdf71" stroke="#d9be60" stroke-miterlimit="10" stroke-width="2"/>
      <path id="Path-81" data-name="Path" d="M0,0V12H11" transform="translate(46)" fill="#d9be60"/>
      <text id="seedling_and_sprout_copy" data-name="seedling and sprout copy" transform="translate(6 17.5)" fill="#5c5c5c" font-size="6" font-family="Helvetica-Light, Helvetica" font-weight="300"><tspan x="0" y="5">seedling and </tspan><tspan x="0" y="11">sprout with </tspan><tspan x="0" y="17">neighbors</tspan><tspan font-family="Helvetica-Light"><tspan x="0" y="23"></tspan></tspan></text>
    </g>
    <g id="Group_4-2" data-name="Group 4" transform="translate(1367 42)">
      <g id="Group_Copy_43-4" data-name="Group Copy 43">
        <path id="Path-82" data-name="Path" d="M0,0H45.6L57,11.6V58H0Z" fill="#ffdf71" stroke="#d9be60" stroke-miterlimit="10" stroke-width="2"/>
        <path id="Path-83" data-name="Path" d="M0,0V12H11" transform="translate(46)" fill="#d9be60"/>
      </g>
      <text id="How_long_it_takes_to_Copy" data-name="How long it takes to Copy" transform="translate(6 18)" fill="#5c5c5c" font-size="6" font-family="Helvetica-Light, Helvetica" font-weight="300"><tspan x="0" y="5">How long it </tspan><tspan x="0" y="11">takes to sprout?</tspan></text>
    </g>
    <g id="Group_7-2" data-name="Group 7" transform="translate(487 248)">
      <g id="Group_Copy_44-4" data-name="Group Copy 44">
        <path id="Path-84" data-name="Path" d="M0,0H45.6L57,11.6V58H0Z" fill="#ffdf71" stroke="#d9be60" stroke-miterlimit="10" stroke-width="2"/>
        <path id="Path-85" data-name="Path" d="M0,0V12H11" transform="translate(46)" fill="#d9be60"/>
      </g>
      <text id="plant_hardiness_zone_copy_2" data-name="plant hardiness zone copy 2" transform="translate(9 18)" fill="#5c5c5c" font-size="6" font-family="Helvetica-Light, Helvetica" font-weight="300"><tspan x="0" y="5">plant hardiness </tspan><tspan x="0" y="11">zone map</tspan></text>
    </g>
    <g id="Group_5-2" data-name="Group 5" transform="translate(1011 349)">
      <g id="Group_Copy_42-4" data-name="Group Copy 42">
        <path id="Path-86" data-name="Path" d="M0,0H45.6L57,11.6V58H0Z" fill="#ffdf71" stroke="#d9be60" stroke-miterlimit="10" stroke-width="2"/>
        <path id="Path-87" data-name="Path" d="M0,0V12H11" transform="translate(46)" fill="#d9be60"/>
      </g>
      <text id="don_t_know_the_name_copy" data-name="don’t know the name copy" transform="translate(6 18)" fill="#5c5c5c" font-size="6" font-family="Helvetica-Light, Helvetica" font-weight="300"><tspan x="0" y="5">don’t know the </tspan><tspan x="0" y="11">name of my </tspan><tspan x="0" y="17">plants</tspan></text>
    </g>
    <g id="Group_8-2" data-name="Group 8" transform="translate(332 46)">
      <g id="Group_Copy_46-4" data-name="Group Copy 46">
        <path id="Path-88" data-name="Path" d="M0,0H45.6L57,11.6V58H0Z" fill="#ffdf71" stroke="#d9be60" stroke-miterlimit="10" stroke-width="2"/>
        <path id="Path-89" data-name="Path" d="M0,0V12H11" transform="translate(46)" fill="#d9be60"/>
      </g>
      <text id="rooting_cuttings_in_copy" data-name="rooting cuttings in copy" transform="translate(9 20)" fill="#5c5c5c" font-size="6" font-family="Helvetica-Light, Helvetica" font-weight="300"><tspan x="0" y="5">rooting cuttings </tspan><tspan x="0" y="11">in water</tspan></text>
    </g>
    <g id="Group_17" data-name="Group 17" transform="translate(399 131)">
      <g id="Group_Copy_49-4" data-name="Group Copy 49">
        <path id="Path-90" data-name="Path" d="M0,0H45.6L57,11.6V58H0Z" fill="#ffdf71" stroke="#d9be60" stroke-miterlimit="10" stroke-width="2"/>
        <path id="Path-91" data-name="Path" d="M0,0V12H11" transform="translate(46)" fill="#d9be60"/>
      </g>
      <text id="watering_schedule_copy" data-name="watering schedule copy" transform="translate(10 21)" fill="#5c5c5c" font-size="6" font-family="Helvetica-Light, Helvetica" font-weight="300"><tspan x="0" y="5">watering </tspan><tspan x="0" y="11">schedule</tspan></text>
    </g>
    <g id="Group_4-3" data-name="Group 4" transform="translate(677 352.5)">
      <path id="Path-92" data-name="Path" d="M0,0H45.6L57,11.6V58H0Z" fill="#ffdf71" stroke="#d9be60" stroke-miterlimit="10" stroke-width="2"/>
      <path id="Path-93" data-name="Path" d="M0,0V12H11" transform="translate(46)" fill="#d9be60"/>
      <text id="too_much_sun_or_less_copy" data-name="too much sun or less copy" transform="translate(7 20.5)" fill="#5c5c5c" font-size="6" font-family="Helvetica-Light, Helvetica" font-weight="300"><tspan x="0" y="5">too much sun or </tspan><tspan x="0" y="11">less sun</tspan></text>
    </g>
    <g id="Group_Copy_50-4" data-name="Group Copy 50" transform="translate(897 321)">
      <path id="Path-94" data-name="Path" d="M0,0H45.6L57,11.6V58H0Z" fill="#ffdf71" stroke="#d9be60" stroke-miterlimit="10" stroke-width="2"/>
      <path id="Path-95" data-name="Path" d="M0,0V12H11" transform="translate(46)" fill="#d9be60"/>
    </g>
    <text id="grow_too_many_plants_copy_2" data-name="grow too many plants copy 2" transform="translate(904 343)" fill="#5c5c5c" font-size="6" font-family="Helvetica-Light, Helvetica" font-weight="300"><tspan x="0" y="5">grow too many </tspan><tspan x="0" y="11">plants</tspan></text>
    <g id="Group_8-3" data-name="Group 8" transform="translate(487 33.5)">
      <path id="Path-96" data-name="Path" d="M0,0H45.6L57,11.6V58H0Z" fill="#ffdf71" stroke="#d9be60" stroke-miterlimit="10" stroke-width="2"/>
      <path id="Path-97" data-name="Path" d="M0,0V12H11" transform="translate(46)" fill="#d9be60"/>
      <text id="unwanted_tools_and_p_copy_3" data-name="unwanted tools and p copy 3" transform="translate(6 20.5)" fill="#5c5c5c" font-size="6" font-family="Helvetica-Light, Helvetica" font-weight="300"><tspan x="0" y="5">unwanted tools </tspan><tspan x="0" y="11">and plants</tspan></text>
    </g>
  </g>
</svg>
