<svg xmlns="http://www.w3.org/2000/svg" viewBox="0 0 360 360"><defs><style>.cls-1,.cls-2{fill:#f5f5f5;}.cls-2,.cls-3{stroke:#000;stroke-miterlimit:10;stroke-width:2px;}.cls-3{fill:none;}.cls-4{fill:#4d675c;}</style></defs><g id="bg"><path class="cls-1" d="M141.18,146.91V323a17.91,17.91,0,0,0,17.91,17.91h2.17A17.91,17.91,0,0,0,179.17,323V249H181v74a17.91,17.91,0,0,0,17.91,17.91h2.17A17.9,17.9,0,0,0,219,323V146.91h84.29A17.91,17.91,0,0,0,321.2,129h0a17.91,17.91,0,0,0-17.91-17.91H56.9A17.91,17.91,0,0,0,39,129h0A17.91,17.91,0,0,0,56.9,146.91Z"/></g><g id="line"><circle class="cls-2" cx="180.09" cy="58.25" r="40.08"/><circle class="cls-2" cx="180.09" cy="58.25" r="40.08"/><path class="cls-3" d="M287.73,146.91h15.56A17.91,17.91,0,0,0,321.2,129h0a17.91,17.91,0,0,0-17.91-17.91h-181"/><polyline class="cls-3" points="220 245.04 220 146.91 244.51 146.91"/><path class="cls-3" d="M140.18,208.86V323a17.91,17.91,0,0,0,17.91,17.91h2.17A17.91,17.91,0,0,0,178.17,323V249H182v74a17.91,17.91,0,0,0,17.91,17.91h2.17A17.9,17.9,0,0,0,220,323V287.62"/><path class="cls-3" d="M78.93,111.09h-22A17.91,17.91,0,0,0,39,129h0A17.91,17.91,0,0,0,56.9,146.91h83.28v18.72"/></g><g id="points"><circle class="cls-4" cx="100.48" cy="115.17" r="9.29"/><circle class="cls-4" cx="143.77" cy="186.69" r="9.29"/><circle class="cls-4" cx="215.79" cy="266.33" r="9.29"/><circle class="cls-4" cx="266.18" cy="144.1" r="9.29"/></g></svg>