<?xml version="1.0" encoding="utf-8"?>
<!-- Generator: Adobe Illustrator 25.2.1, SVG Export Plug-In . SVG Version: 6.00 Build 0)  -->
<svg version="1.1" id="Layer_1" xmlns="http://www.w3.org/2000/svg" xmlns:xlink="http://www.w3.org/1999/xlink" x="0px" y="0px"
	 viewBox="0 0 360 360" style="enable-background:new 0 0 360 360;" xml:space="preserve">
<style type="text/css">
	.st0{fill:none;stroke:#010101;stroke-width:2;stroke-linecap:round;stroke-linejoin:round;}
	.st1{fill:#4D675C;}
	.st2{fill:#F5F5F5;stroke:#010101;stroke-width:2;stroke-linecap:round;stroke-linejoin:round;}
</style>
<g id="_1">
	<line class="st0" x1="160.2" y1="346.9" x2="205.3" y2="346.9"/>
	<line class="st0" x1="145.3" y1="327.5" x2="220.2" y2="327.5"/>
	<line class="st0" x1="145.3" y1="307.9" x2="220.2" y2="307.9"/>
	<path class="st0" d="M145.3,288.5h74.8c1-12.1,3.3-24,6.7-35.6c6.9-18,15.7-35.3,26.4-51.3l-0.1,0.2
		c25.9-38.9,15.3-91.3-23.5-117.2s-91.3-15.3-117.2,23.5c-18.9,28.4-18.9,65.3,0,93.7l-0.1-0.2c10.7,16.1,19.6,33.3,26.4,51.3
		C142.1,264.5,144.4,276.5,145.3,288.5z"/>
	<path class="st1" d="M237.6,146.5c-4.8-0.4-9.5-0.7-14.4-1.2c-1-4.3-2.7-8.4-5-12.1l9.3-11c0.3-0.3,0.4-0.8,0.1-1.1
		c0,0,0,0-0.1-0.1l-10.8-10.8c-0.4-0.4-0.7-0.4-1.2,0c-3.7,3.1-7.3,6.2-11,9.3c-3.7-2.3-7.8-4-12.1-5c-0.4-4.8-0.7-9.5-1.2-14.3
		c0-0.6-0.2-0.8-0.8-0.8H175c-0.6,0-0.8,0.2-0.8,0.8c-0.4,4.8-0.7,9.5-1.2,14.3c-4.3,1-8.4,2.7-12.1,5c-3.7-3.1-7.3-6.2-11-9.3
		c-0.3-0.3-0.8-0.4-1.1-0.1c0,0,0,0-0.1,0.1L137.8,121c-0.4,0.4-0.4,0.7,0,1.2c3.1,3.7,6.2,7.3,9.3,11c-2.3,3.7-4,7.8-5,12.1
		c-4.8,0.4-9.5,0.7-14.3,1.2c-0.6,0-0.8,0.2-0.8,0.8v15.4c0,0.6,0.2,0.8,0.8,0.8c4.8,0.4,9.5,0.7,14.3,1.2c1,4.3,2.7,8.4,5,12.1
		c-3.1,3.7-6.2,7.3-9.3,11c-0.3,0.3-0.4,0.8-0.1,1.1c0,0,0,0,0.1,0.1l10.8,10.8c0.2,0.3,0.7,0.4,1,0.2c0.1,0,0.1-0.1,0.2-0.2
		c3.7-3.1,7.3-6.2,11-9.3c3.7,2.3,7.8,4,12.1,5c0.4,4.8,0.7,9.5,1.2,14.4c0,0.6,0.2,0.8,0.8,0.8h15.4c0.6,0,0.8-0.2,0.8-0.8
		c0.4-4.8,0.7-9.5,1.2-14.4c4.3-1,8.4-2.7,12.1-5c3.7,3.1,7.3,6.2,11,9.3c0.3,0.3,0.8,0.4,1.1,0.1c0,0,0,0,0.1-0.1l10.8-10.8
		c0.4-0.4,0.4-0.7,0-1.2l-9.3-11c2.3-3.7,4-7.8,5-12.1c4.8-0.4,9.5-0.7,14.4-1.2c0.6,0,0.8-0.2,0.8-0.8v-15.4
		C238.4,146.7,238.2,146.5,237.6,146.5z M199.4,173c-10,9.2-25.5,8.5-34.6-1.4s-8.5-25.5,1.4-34.6c10-9.2,25.5-8.5,34.6,1.4
		C210,148.3,209.4,163.8,199.4,173C199.4,173,199.4,173,199.4,173z"/>
</g>
<g id="_2">
	<g id="Concept">
		<line class="st0" x1="182.7" y1="49.7" x2="182.7" y2="13.1"/>
		<line class="st0" x1="235.9" y1="64.2" x2="254.4" y2="32.5"/>
		<line class="st0" x1="274.5" y1="103.5" x2="306.4" y2="85.5"/>
		<line class="st0" x1="288" y1="156.8" x2="324.6" y2="157.6"/>
		<line class="st0" x1="272.6" y1="209.8" x2="303.9" y2="228.9"/>
		<line class="st0" x1="93" y1="209.8" x2="61.6" y2="228.9"/>
		<line class="st0" x1="77.6" y1="156.8" x2="40.9" y2="157.6"/>
		<line class="st0" x1="91" y1="103.5" x2="59.1" y2="85.5"/>
		<line class="st0" x1="129.6" y1="64.2" x2="111.2" y2="32.5"/>
		<line class="st0" x1="160.2" y1="346.9" x2="205.3" y2="346.9"/>
		<line class="st0" x1="145.3" y1="327.5" x2="220.2" y2="327.5"/>
		<line class="st0" x1="145.3" y1="307.9" x2="220.2" y2="307.9"/>
		<path class="st0" d="M145.3,288.5h74.8c1-12.1,3.3-24,6.7-35.6c6.9-18,15.7-35.3,26.4-51.3l-0.1,0.2
			c25.9-38.9,15.3-91.3-23.5-117.2s-91.3-15.3-117.2,23.5c-18.9,28.4-18.9,65.3,0,93.7l-0.1-0.2c10.7,16.1,19.6,33.3,26.4,51.3
			C142.1,264.5,144.4,276.5,145.3,288.5z"/>
		<path class="st1" d="M237.6,146.5c-4.8-0.4-9.5-0.7-14.4-1.2c-1-4.3-2.7-8.4-5-12.1l9.3-11c0.3-0.3,0.4-0.8,0.1-1.1
			c0,0,0,0-0.1-0.1l-10.8-10.8c-0.4-0.4-0.7-0.4-1.2,0c-3.7,3.1-7.3,6.2-11,9.3c-3.7-2.3-7.8-4-12.1-5c-0.4-4.8-0.7-9.5-1.2-14.3
			c0-0.6-0.2-0.8-0.8-0.8H175c-0.6,0-0.8,0.2-0.8,0.8c-0.4,4.8-0.7,9.5-1.2,14.3c-4.3,1-8.4,2.7-12.1,5c-3.7-3.1-7.3-6.2-11-9.3
			c-0.3-0.3-0.8-0.4-1.1-0.1c0,0,0,0-0.1,0.1L137.8,121c-0.4,0.4-0.4,0.7,0,1.2c3.1,3.7,6.2,7.3,9.3,11c-2.3,3.7-4,7.8-5,12.1
			c-4.8,0.4-9.5,0.7-14.3,1.2c-0.6,0-0.8,0.2-0.8,0.8v15.4c0,0.6,0.2,0.8,0.8,0.8c4.8,0.4,9.5,0.7,14.3,1.2c1,4.3,2.7,8.4,5,12.1
			c-3.1,3.7-6.2,7.3-9.3,11c-0.3,0.3-0.4,0.8-0.1,1.1c0,0,0,0,0.1,0.1l10.8,10.8c0.2,0.3,0.7,0.4,1,0.2c0.1,0,0.1-0.1,0.2-0.2
			c3.7-3.1,7.3-6.2,11-9.3c3.7,2.3,7.8,4,12.1,5c0.4,4.8,0.7,9.5,1.2,14.4c0,0.6,0.2,0.8,0.8,0.8h15.4c0.6,0,0.8-0.2,0.8-0.8
			c0.4-4.8,0.7-9.5,1.2-14.4c4.3-1,8.4-2.7,12.1-5c3.7,3.1,7.3,6.2,11,9.3c0.3,0.3,0.8,0.4,1.1,0.1c0,0,0,0,0.1-0.1l10.8-10.8
			c0.4-0.4,0.4-0.7,0-1.2l-9.3-11c2.3-3.7,4-7.8,5-12.1c4.8-0.4,9.5-0.7,14.4-1.2c0.6,0,0.8-0.2,0.8-0.8v-15.4
			C238.4,146.7,238.2,146.5,237.6,146.5z M199.4,173c-10,9.2-25.5,8.5-34.6-1.4s-8.5-25.5,1.4-34.6c10-9.2,25.5-8.5,34.6,1.4
			C210,148.3,209.4,163.8,199.4,173C199.4,173,199.4,173,199.4,173z"/>
	</g>
</g>
<line class="st0" x1="182.7" y1="49.7" x2="182.7" y2="13.1"/>
<line class="st0" x1="235.9" y1="64.2" x2="254.4" y2="32.5"/>
<line class="st0" x1="274.5" y1="103.5" x2="306.4" y2="85.5"/>
<line class="st0" x1="288" y1="156.8" x2="324.6" y2="157.6"/>
<line class="st0" x1="272.6" y1="209.8" x2="303.9" y2="228.9"/>
<line class="st0" x1="93" y1="209.8" x2="61.6" y2="228.9"/>
<line class="st0" x1="77.6" y1="156.8" x2="40.9" y2="157.6"/>
<line class="st0" x1="91" y1="103.5" x2="59.1" y2="85.5"/>
<line class="st0" x1="129.6" y1="64.2" x2="111.2" y2="32.5"/>
<line class="st0" x1="160.2" y1="346.9" x2="205.3" y2="346.9"/>
<line class="st0" x1="145.3" y1="327.5" x2="220.2" y2="327.5"/>
<line class="st0" x1="145.3" y1="307.9" x2="220.2" y2="307.9"/>
<path class="st2" d="M145.3,288.5h74.8c1-12.1,3.3-24,6.7-35.6c6.9-18,15.7-35.3,26.4-51.3l-0.1,0.2c25.9-38.9,15.3-91.3-23.5-117.2
	s-91.3-15.3-117.2,23.5c-18.9,28.4-18.9,65.3,0,93.7l-0.1-0.2c10.7,16.1,19.6,33.3,26.4,51.3C142.1,264.5,144.4,276.5,145.3,288.5z"
	/>
<path class="st1" d="M237.6,146.5c-4.8-0.4-9.5-0.7-14.4-1.2c-1-4.3-2.7-8.4-5-12.1l9.3-11c0.3-0.3,0.4-0.8,0.1-1.1c0,0,0,0-0.1-0.1
	l-10.8-10.8c-0.4-0.4-0.7-0.4-1.2,0c-3.7,3.1-7.3,6.2-11,9.3c-3.7-2.3-7.8-4-12.1-5c-0.4-4.8-0.7-9.5-1.2-14.3
	c0-0.6-0.2-0.8-0.8-0.8H175c-0.6,0-0.8,0.2-0.8,0.8c-0.4,4.8-0.7,9.5-1.2,14.3c-4.3,1-8.4,2.7-12.1,5c-3.7-3.1-7.3-6.2-11-9.3
	c-0.3-0.3-0.8-0.4-1.1-0.1c0,0,0,0-0.1,0.1L137.8,121c-0.4,0.4-0.4,0.7,0,1.2c3.1,3.7,6.2,7.3,9.3,11c-2.3,3.7-4,7.8-5,12.1
	c-4.8,0.4-9.5,0.7-14.3,1.2c-0.6,0-0.8,0.2-0.8,0.8v15.4c0,0.6,0.2,0.8,0.8,0.8c4.8,0.4,9.5,0.7,14.3,1.2c1,4.3,2.7,8.4,5,12.1
	c-3.1,3.7-6.2,7.3-9.3,11c-0.3,0.3-0.4,0.8-0.1,1.1c0,0,0,0,0.1,0.1l10.8,10.8c0.2,0.3,0.7,0.4,1,0.2c0.1,0,0.1-0.1,0.2-0.2
	c3.7-3.1,7.3-6.2,11-9.3c3.7,2.3,7.8,4,12.1,5c0.4,4.8,0.7,9.5,1.2,14.4c0,0.6,0.2,0.8,0.8,0.8h15.4c0.6,0,0.8-0.2,0.8-0.8
	c0.4-4.8,0.7-9.5,1.2-14.4c4.3-1,8.4-2.7,12.1-5c3.7,3.1,7.3,6.2,11,9.3c0.3,0.3,0.8,0.4,1.1,0.1c0,0,0,0,0.1-0.1l10.8-10.8
	c0.4-0.4,0.4-0.7,0-1.2l-9.3-11c2.3-3.7,4-7.8,5-12.1c4.8-0.4,9.5-0.7,14.4-1.2c0.6,0,0.8-0.2,0.8-0.8v-15.4
	C238.4,146.7,238.2,146.5,237.6,146.5z M199.4,173c-10,9.2-25.5,8.5-34.6-1.4s-8.5-25.5,1.4-34.6c10-9.2,25.5-8.5,34.6,1.4
	C210,148.3,209.4,163.8,199.4,173C199.4,173,199.4,173,199.4,173z"/>
</svg>
