<?xml version="1.0" encoding="utf-8"?>
<!-- Generator: Adobe Illustrator 25.2.1, SVG Export Plug-In . SVG Version: 6.00 Build 0)  -->
<svg version="1.1" id="Layer_1" xmlns="http://www.w3.org/2000/svg" xmlns:xlink="http://www.w3.org/1999/xlink" x="0px" y="0px"
	 viewBox="0 0 360 360" style="enable-background:new 0 0 360 360;" xml:space="preserve">
<style type="text/css">
	.st0{fill:#4D675C;}
	.st1{fill:none;stroke:#FFFFFF;stroke-width:8;stroke-miterlimit:10;}
	.st2{fill:#F5F5F5;stroke:#000000;stroke-miterlimit:10;}
</style>
<g id="green">
	<path class="st0" d="M194.9,11.7c-43.7,0-81.4,17.7-99.1,43.4c12.2-5.2,25.3-7.9,38.6-7.9c44.2,0,80,28.4,80,63.4
		c0,22.1-14.2,41.5-35.8,52.9c5.5,0.6,11,0.9,16.4,0.9c10.7,0,21.4-1.1,31.9-3.3l33,23.1v-34.6c27.3-13.9,45-36.3,45-61.6
		C304.8,45.9,255.6,11.7,194.9,11.7z"/>
	
		<ellipse transform="matrix(0.1602 -0.9871 0.9871 0.1602 -15.0447 462.0792)" class="st0" cx="264" cy="239.9" rx="30.3" ry="30.3"/>
	<path class="st0" d="M116.7,337.5v-24.3c0-12.8,7-24.6,18.2-30.8c-4.7-2.9-10.1-4.4-15.6-4.4H72.5c-16.6,0-30.1,13.5-30.1,30.1
		v20.8c0,5.1,3.5,9.3,7.8,9.3h66.4C116.7,337.9,116.7,337.7,116.7,337.5z"/>
	<circle class="st0" cx="95.9" cy="239.9" r="30.3"/>
	<path class="st0" d="M287.4,278h-46.7c-5.8,0-11.5,1.7-16.4,4.9c10.7,6.3,17.3,17.8,17.3,30.3v24.3c0,0.2,0,0.5,0,0.7h68.1
		c4.4,0,7.8-4.1,7.8-9.3v-20.8C317.6,291.5,304.1,278,287.4,278C287.4,278,287.4,278,287.4,278z"/>
</g>
<g id="Shade">
	<path class="st1" d="M134.4,47.3c-44.2,0-80,28.4-80,63.4c0,21,12.9,39.6,32.8,51.2v28.7l24-19.2c7.6,1.8,15.4,2.7,23.2,2.7
		c44.2,0,80-28.4,80-63.4S178.5,47.3,134.4,47.3z"/>
	<circle class="st1" cx="179.9" cy="232.8" r="37.3"/>
	<path class="st1" d="M206.4,278h-54.6c-19.4,0-35.2,15.8-35.2,35.2v24.3c0,6,4.1,10.8,9.2,10.8h106.6c5.1,0,9.2-4.8,9.2-10.8v-24.3
		C241.6,293.7,225.9,278,206.4,278z"/>
</g>
<g id="lines">
	<path class="st2" d="M134.4,47.3c-44.2,0-80,28.4-80,63.4c0,21,12.9,39.6,32.8,51.2v28.7l24-19.2c7.6,1.8,15.4,2.7,23.2,2.7
		c44.2,0,80-28.4,80-63.4S178.5,47.3,134.4,47.3z"/>
	<circle class="st2" cx="179.9" cy="232.8" r="37.3"/>
	<path class="st2" d="M206.4,278h-54.6c-19.4,0-35.2,15.8-35.2,35.2v24.3c0,6,4.1,10.8,9.2,10.8h106.6c5.1,0,9.2-4.8,9.2-10.8v-24.3
		C241.6,293.7,225.9,278,206.4,278z"/>
</g>
</svg>
