<?xml version="1.0" encoding="utf-8"?>
<!-- Generator: Adobe Illustrator 25.2.1, SVG Export Plug-In . SVG Version: 6.00 Build 0)  -->
<svg version="1.1" xmlns="http://www.w3.org/2000/svg" xmlns:xlink="http://www.w3.org/1999/xlink" x="0px" y="0px"
	 viewBox="0 0 360 360" style="enable-background:new 0 0 360 360;" xml:space="preserve">
<style type="text/css">
	.st0{fill:#F5F5F5;stroke:#000000;stroke-width:2;stroke-miterlimit:10;}
	.st1{fill:#4D675C;}
	.st2{fill:none;stroke:#000000;stroke-miterlimit:10;}
</style>
<g id="Layer_2">
	<path class="st0" d="M76.9,14.5H279c3.1,0,5.5,2.5,5.5,5.5v121.5c0,3.1-2.5,5.5-5.5,5.5H76.9c-3.1,0-5.5-2.5-5.5-5.5V20
		C71.4,16.9,73.9,14.5,76.9,14.5z"/>
	<path class="st0" d="M8.2,239.1H87c3.1,0,5.5,2.5,5.5,5.5v53.6c0,3.1-2.5,5.5-5.5,5.5H8.2c-3.1,0-5.5-2.5-5.5-5.5v-53.6
		C2.7,241.5,5.2,239.1,8.2,239.1z"/>
	<path class="st0" d="M126.6,224h87.5c3.1,0,5.5,2.5,5.5,5.5V283c0,3.1-2.5,5.5-5.5,5.5h-87.5c-3.1,0-5.5-2.5-5.5-5.5v-53.5
		C121.1,226.5,123.6,224,126.6,224z"/>
	<path class="st0" d="M263.1,265.1h87.3c3.1,0,5.5,2.5,5.5,5.5v59.2c0,3.1-2.5,5.5-5.5,5.5h-87.3c-3.1,0-5.5-2.5-5.5-5.5v-59.2
		C257.6,267.6,260.1,265.1,263.1,265.1z"/>
</g>
<g id="information_architecture">
	<path class="st1" d="M103.9,29.6H252c3.1,0,5.5,2.5,5.5,5.5v93.2c0,3.1-2.5,5.5-5.5,5.5H103.9c-3.1,0-5.5-2.5-5.5-5.5V35.2
		C98.4,32.1,100.8,29.6,103.9,29.6z"/>
	<path class="st1" d="M22.9,251.6h49.4c3.1,0,5.5,2.5,5.5,5.5v28.5c0,3.1-2.5,5.5-5.5,5.5H22.9c-3.1,0-5.5-2.5-5.5-5.5v-28.5
		C17.4,254.1,19.9,251.6,22.9,251.6z"/>
	<path class="st1" d="M144.4,236h49.4c3.1,0,5.5,2.5,5.5,5.5V270c0,3.1-2.5,5.5-5.5,5.5h-49.4c-3.1,0-5.5-2.5-5.5-5.5v-28.5
		C138.9,238.5,141.4,236,144.4,236z"/>
	<path class="st1" d="M282.1,280.5h49.4c3.1,0,5.5,2.5,5.5,5.5v28.5c0,3.1-2.5,5.5-5.5,5.5h-49.4c-3.1,0-5.5-2.5-5.5-5.5V286
		C276.6,282.9,279,280.5,282.1,280.5z"/>
	<path class="st2" d="M51.5,239.1v-49.3c0-1.8,1.5-3.3,3.3-3.3h0h48.9c1.8,0,3.3-1.5,3.3-3.3l0,0v-36.1"/>
	<line class="st2" x1="170.4" y1="224" x2="170.4" y2="145.9"/>
	<path class="st2" d="M237.8,147.1v47.1c0,1.8,1.5,3.3,3.3,3.3l0,0h62.4c1.8,0,3.3,1.5,3.3,3.3l0,0v62.4"/>
</g>
</svg>
