<?xml version="1.0" encoding="utf-8"?>
<!-- Generator: Adobe Illustrator 25.2.1, SVG Export Plug-In . SVG Version: 6.00 Build 0)  -->
<svg version="1.1" xmlns="http://www.w3.org/2000/svg" xmlns:xlink="http://www.w3.org/1999/xlink" x="0px" y="0px"
	 viewBox="0 0 360 360" style="enable-background:new 0 0 360 360;" xml:space="preserve">
<style type="text/css">
	.st0{fill:#F5F5F5;}
	.st1{display:none;}
	.st2{display:inline;fill:#4D675C;stroke:#000000;stroke-width:2;stroke-miterlimit:10;}
	.st3{display:inline;fill:none;stroke:#000000;stroke-width:2;stroke-miterlimit:10;}
	.st4{display:inline;fill:none;stroke:#010101;stroke-width:2;stroke-linecap:round;stroke-linejoin:round;}
	.st5{display:inline;fill:#4D675C;stroke:#000000;stroke-miterlimit:10;}
	.st6{display:inline;fill:#4D675C;stroke:#000000;stroke-width:1;stroke-miterlimit:10.0002;}
	.st7{display:inline;fill:#FFFFFF;stroke:#000000;stroke-width:2;stroke-miterlimit:10;}
	.st8{fill:none;stroke:#000000;stroke-miterlimit:10;}
	.st9{fill:#4D675C;stroke:#000000;stroke-width:2;stroke-miterlimit:10;}
	.st10{fill:none;stroke:#000000;stroke-width:2;stroke-miterlimit:10;}
</style>
<g id="Layer_2">
	<path class="st0" d="M8.3,267.2c0,22.6,18.3,40.9,40.9,40.9v0.2h294.7V102.5H90.1V66.2c0-22.6-18.3-40.9-40.9-40.9
		S8.3,43.5,8.3,66.2v203.3"/>
</g>
<g id="Layer_1">
	<g id="prototypr" class="st1">
		<polyline class="st2" points="154.8,167.9 154.8,263.4 212.4,263.4 212.4,167.9 		"/>
		<polyline class="st2" points="154.8,263.4 154.8,312.4 212.4,312.4 212.4,263.4 		"/>
		<polygon class="st2" points="183.6,113.4 154.8,167.9 212.4,167.9 		"/>
		<line class="st3" x1="183.6" y1="167.9" x2="183.6" y2="263.4"/>
	</g>
	<g id="prototype" class="st1">
		<line class="st4" x1="164.6" y1="312.4" x2="202.5" y2="312.4"/>
		<line class="st4" x1="152.1" y1="296.1" x2="215" y2="296.1"/>
		<line class="st4" x1="152.1" y1="279.7" x2="215" y2="279.7"/>
		<path class="st4" d="M152.1,263.4h62.8c0.9-10.2,2.7-20.1,5.6-29.9c5.8-15.3,13.2-29.5,22.2-43.1l-0.1,0.2
			c14.5-21.8,15.8-49.8,3.5-72.9c-12.4-23.1-36.4-37.5-62.6-37.5s-50.2,14.4-62.6,37.5s-11,51.1,3.5,72.9l-0.1-0.2
			c9,13.6,16.4,27.8,22.2,43.1C149.4,243.3,151.3,253.2,152.1,263.4z"/>
	</g>
	<g id="f1" class="st1">
		<circle class="st5" cx="147.4" cy="98.6" r="34.5"/>
		<ellipse transform="matrix(0.3162 -0.9487 0.9487 0.3162 64.9063 316.0518)" class="st6" cx="251.7" cy="113" rx="22" ry="22"/>
		<circle class="st5" cx="64.4" cy="150.9" r="14.1"/>
	</g>
	<g id="f" class="st1">
		<path class="st7" d="M243,254.9c1.3-11.9,0-46.1,0-46.1c-0.9-13.3-7.8-15.9-20.2-20.2l-58.4-18.8v-68.6c0-7.6-5.6-14.3-13.2-15.2
			c-9-1-16.6,6-16.6,14.8v117.6c0,0-8.5-8.5-17.1-18.5c-8.2-9.6-19.1-22.6-19.1-22.6c-5.1-5.7-11.4-6.9-16.9-3.1
			c-5.5,3.8-6.9,11.4-3.1,16.9l30.2,48.6c5.5,8.4,14.1,22.2,16.3,26.9c3.3,7,12.5,30.9,12.5,30.9h91
			C228.5,297.4,241.7,266.9,243,254.9z"/>
	</g>
	<g id="paper">
		<path class="st8" d="M318.8,102.5h25.1v205.8H49.2v-0.2c-22.6,0-40.9-18.3-40.9-40.9s18.3-40.9,40.9-40.9s40.9,18.3,40.9,40.9v2.2
			V66.2c0-22.6-18.3-40.9-40.9-40.9S8.3,43.5,8.3,66.2v203.3"/>
		<line class="st8" x1="95.6" y1="102.5" x2="263.2" y2="102.5"/>
	</g>
	<g id="Layer_6">
		<path class="st9" d="M231,183.1c-4.7-0.3-9.5-0.8-14.4-1.3c-1.1-4.4-2.7-8.4-5.1-12.2l9.3-10.9c0.3-0.5,0.3-0.8,0-1.3
			c-3.6-3.6-7.3-7.3-10.9-10.9c-0.3-0.3-0.8-0.3-1.3,0c-3.6,3.2-7.3,6.2-10.9,9.3c-3.8-2.4-7.7-3.9-12.2-5.1
			c-0.3-4.7-0.8-9.5-1.3-14.4c0-0.6-0.3-0.8-0.8-0.8h-15.3c-0.6,0-0.8,0.3-0.8,0.8c-0.3,4.7-0.8,9.5-1.3,14.4
			c-4.4,1.1-8.4,2.7-12.2,5.1c-3.6-3.2-7.3-6.2-10.9-9.3c-0.5-0.3-0.8-0.3-1.3,0c-3.6,3.6-7.3,7.3-10.9,10.9c-0.3,0.3-0.3,0.8,0,1.3
			c3.2,3.6,6.2,7.3,9.3,10.9c-2.4,3.8-3.9,7.7-5.1,12.2c-4.7,0.3-9.5,0.8-14.4,1.3c-0.6,0-0.8,0.3-0.8,0.8v15.3
			c0,0.6,0.3,0.8,0.8,0.8c4.7,0.3,9.5,0.8,14.4,1.3c1.1,4.4,2.7,8.4,5.1,12.2c-3.2,3.6-6.2,7.3-9.3,10.9c-0.3,0.5-0.3,0.8,0,1.3
			c3.6,3.6,7.3,7.3,10.9,10.9c0.3,0.3,0.8,0.5,1.3,0c3.6-3.2,7.3-6.2,10.9-9.3c3.8,2.4,7.7,3.9,12.2,5.1c0.3,4.7,0.8,9.5,1.3,14.4
			c0,0.6,0.3,0.8,0.8,0.8h15.3c0.6,0,0.8-0.3,0.8-0.8c0.3-4.7,0.8-9.5,1.3-14.4c4.4-1.1,8.4-2.7,12.2-5.1c3.6,3.2,7.3,6.2,10.9,9.3
			c0.5,0.3,0.8,0.3,1.3,0c3.6-3.6,7.3-7.3,10.9-10.9c0.3-0.3,0.3-0.8,0-1.3l-9.3-10.9c2.4-3.8,3.9-7.7,5.1-12.2
			c4.7-0.3,9.5-0.8,14.4-1.3c0.6,0,0.8-0.3,0.8-0.8v-15.3C231.8,183.3,231.6,183.1,231,183.1z M192.8,209.7
			c-9.9,9.2-25.6,8.5-34.7-1.4c-9.2-9.9-8.5-25.6,1.4-34.7c9.9-9.2,25.6-8.5,34.7,1.4C203.4,184.9,202.8,200.5,192.8,209.7z"/>
		<path class="st9" d="M312.9,251.5v-67.2v-18.6V66.8c0-5.8-4.7-10.7-10.7-10.7h-20c-5.8,0-10.7,4.7-10.7,10.7v13.9v84.9v18.6v67.2"
			/>
		<polygon class="st9" points="292.2,287.3 271.6,251.5 312.9,251.5 		"/>
		<line class="st10" x1="312.9" y1="81.2" x2="271.6" y2="81.2"/>
	</g>
</g>
</svg>
