<?xml version="1.0" encoding="utf-8"?>
<!-- Generator: Adobe Illustrator 25.2.1, SVG Export Plug-In . SVG Version: 6.00 Build 0)  -->
<svg version="1.1" xmlns="http://www.w3.org/2000/svg" xmlns:xlink="http://www.w3.org/1999/xlink" x="0px" y="0px"
	 viewBox="0 0 360 360" style="enable-background:new 0 0 360 360;" xml:space="preserve">
<style type="text/css">
	.st0{fill:#F5F5F5;stroke:#000000;stroke-width:2;stroke-miterlimit:10;}
	.st1{fill:#4D675C;}
	.st2{fill:none;stroke:#000000;stroke-miterlimit:10;}
</style>
<g id="Layer_2">
	<path class="st0" d="M287.1,158.8h61.4c2.7,0,5,2.2,5,5V217c0,2.7-2.2,5-5,5h-61.4c-2.7,0-5-2.2-5-5v-53.2
		C282.2,161.1,284.4,158.8,287.1,158.8z"/>
	<path class="st0" d="M150.1,15h61.4c2.7,0,5,2.2,5,5v53.2c0,2.7-2.2,5-5,5h-61.4c-2.7,0-5-2.2-5-5V20C145.2,17.2,147.4,15,150.1,15
		z"/>
	<path class="st0" d="M11.9,158.8h61.4c2.7,0,5,2.2,5,5V217c0,2.7-2.2,5-5,5H11.9c-2.7,0-5-2.2-5-5v-53.2
		C7,161.1,9.2,158.8,11.9,158.8z"/>
</g>
<g id="user_flow">
	<path class="st1" d="M300.9,172.6h33.9c2.7,0,5,2.2,5,5v25.6c0,2.7-2.2,5-5,5h-33.9c-2.7,0-5-2.2-5-5v-25.6
		C295.9,174.9,298.1,172.6,300.9,172.6z"/>
	<path class="st1" d="M163.9,28.8h33.9c2.7,0,5,2.2,5,5v25.6c0,2.7-2.2,5-5,5h-33.9c-2.7,0-5-2.2-5-5V33.8
		C158.9,31,161.2,28.8,163.9,28.8z"/>
	<path class="st0" d="M106.4,298.3h49.7c2.7,0,5,2.2,5,5v42.9c0,2.7-2.2,5-5,5h-49.7c-2.7,0-5-2.2-5-5v-42.9
		C101.5,300.5,103.7,298.3,106.4,298.3z"/>
	<path class="st0" d="M230.7,286.4h49.7c2.7,0,5,2.2,5,5v42.9c0,2.7-2.2,5-5,5h-49.7c-2.7,0-5-2.2-5-5v-42.9
		C225.8,288.6,228,286.4,230.7,286.4z"/>
	<path class="st1" d="M28.3,175.6h33.3c2.7,0,4.9,2.2,4.9,4.9v25.1c0,2.7-2.2,4.9-4.9,4.9H28.3c-2.7,0-4.9-2.2-4.9-4.9v-25.1
		C23.4,177.7,25.6,175.6,28.3,175.6z"/>
	<path class="st2" d="M319.6,154.6v-42.8c0.1-3.4-2.6-6.1-6-6.2c0,0,0,0,0,0H45.1c-1.7,0-3,1.4-3,3.1c0,0,0,0,0,0v45.9"/>
	<line class="st2" x1="180.8" y1="80.4" x2="180.8" y2="105.6"/>
	<path class="st2" d="M86.9,210.5h49.5c2.1,0,3.7,1.3,3.7,2.8V293"/>
	<path class="st2" d="M278.6,198.3h-34.9c-1.5,0-2.6,1.3-2.6,2.9v80.6"/>
</g>
</svg>
