<?xml version="1.0" encoding="utf-8"?>
<!-- Generator: Adobe Illustrator 25.2.1, SVG Export Plug-In . SVG Version: 6.00 Build 0)  -->
<svg version="1.1" id="Layer_1" xmlns="http://www.w3.org/2000/svg" xmlns:xlink="http://www.w3.org/1999/xlink" x="0px" y="0px"
	 viewBox="0 0 360 360" style="enable-background:new 0 0 360 360;" xml:space="preserve">
<style type="text/css">
	.st0{fill:none;stroke:#000000;stroke-width:3;stroke-miterlimit:10;}
	.st1{fill:none;stroke:#000000;stroke-width:3;stroke-linecap:round;stroke-linejoin:round;}
	.st2{fill:#4D675C;stroke:#FFFFFF;stroke-width:2;stroke-miterlimit:10;}
</style>
<circle class="st0" cx="260.2" cy="309.8" r="8.3"/>
<ellipse transform="matrix(7.088907e-02 -0.9975 0.9975 7.088907e-02 -188.1412 417.5535)" class="st0" cx="130.1" cy="309.8" rx="8.3" ry="8.3"/>
<path class="st1" d="M9.6,57.7l23.5-14.9c2.3-1.5,5.4-0.8,6.9,1.5c0.3,0.4,0.5,0.9,0.6,1.4l59.3,219.4h199.9l37-123.3
	c0.5-1.7,2.1-2.8,3.8-2.9h4.2c2.2,0,4,1.8,4,4v17.9"/>
<path class="st1" d="M83.9,222.1H73.7c-18.2,0-33,14.8-33,33v1.2c0,18.2,14.8,33,33,33h230"/>
<path class="st2" d="M295,111.3L262.8,84c-1.3-1.1-3.2-0.9-4.2,0.3c-0.5,0.5-0.7,1.2-0.7,1.9v14.4c-4.8,0.2-13.1,0.6-21.2,0.9
	c-25.9,1.1-50.2,10.1-75.1,28.3s-50.6,40-50.6,40c-5.9,4.6-6.9,13.2-2.3,19.1c4.6,5.9,13.2,6.9,19.1,2.3c0,0,10.6-11.3,36-33.4
	c23.4-20.4,50.1-27.8,76.3-30.1c6.2-0.6,12.8-0.9,17.8-1.1v14.2c0,1.7,1.3,3,3,3c0.7,0,1.4-0.3,1.9-0.7l32.2-27.3
	c1.3-1.1,1.4-3,0.4-4.2C295.3,111.5,295.2,111.4,295,111.3z"/>
<path class="st2" d="M297.2,202.6L265,229.9c-1.3,1.1-3.2,0.9-4.2-0.4c-0.5-0.5-0.7-1.2-0.7-1.9v-14.4l-21.2-0.9
	c-25.9-1.1-50.2-10.1-75.1-28.3s-50.6-40-50.6-40c-5.8-4.8-6.6-13.4-1.8-19.1c4.6-5.6,12.8-6.6,18.6-2.2c0,0,10.6,11.3,36,33.4
	c23.4,20.4,50.1,27.8,76.3,30.1c6.2,0.6,12.8,0.9,17.8,1.1V173c0-1.7,1.3-3,3-3c0.7,0,1.4,0.3,1.9,0.7l32.2,27.3
	c1.3,1.1,1.4,3,0.3,4.2C297.5,202.4,297.3,202.5,297.2,202.6z"/>
</svg>
