<?xml version="1.0" encoding="utf-8"?>
<!-- Generator: Adobe Illustrator 25.2.1, SVG Export Plug-In . SVG Version: 6.00 Build 0)  -->
<svg version="1.1" id="Layer_1" xmlns="http://www.w3.org/2000/svg" xmlns:xlink="http://www.w3.org/1999/xlink" x="0px" y="0px"
	 viewBox="0 0 360 360" style="enable-background:new 0 0 360 360;" xml:space="preserve">
<style type="text/css">
	.st0{fill:none;stroke:#000000;stroke-width:5;stroke-miterlimit:10;}
	.st1{fill:#4C665B;}
</style>
<path class="st0" d="M283.4,314.9H75.6c-28.5,0-51.6-23.1-51.6-51.6c0-9.7,2.7-19.1,7.8-27.3L135.7,69.4
	c9.5-15.2,25.9-24.3,43.8-24.3s34.3,9.1,43.8,24.3L327.2,236c5.1,8.2,7.8,17.6,7.8,27.3C335,291.8,311.9,314.9,283.4,314.9z"/>
<g id="Layer_1_1_">
	<path class="st1" d="M180.1,276.7c-9.3,0-16.6-7.3-16.6-16.5c0-9.2,7.3-16.5,16.1-16.5h0.2c9.3,0,16.6,7.3,16.6,16.5
		C196.7,269.3,189.2,276.7,180.1,276.7z"/>
	<path class="st1" d="M180,214.3c-5.4,0-9.7-4.6-9.7-10.3V102.9c0-5.7,4.3-10.3,9.7-10.3s9.7,4.6,9.7,10.3V204
		C189.7,209.7,185.3,214.3,180,214.3z"/>
</g>
</svg>
