<?xml version="1.0" encoding="utf-8"?>
<!-- Generator: Adobe Illustrator 25.2.1, SVG Export Plug-In . SVG Version: 6.00 Build 0)  -->
<svg version="1.1" xmlns="http://www.w3.org/2000/svg" xmlns:xlink="http://www.w3.org/1999/xlink" x="0px" y="0px"
	 viewBox="0 0 900 1099" style="enable-background:new 0 0 900 1099;" xml:space="preserve">
<style type="text/css">
	.st0{fill:#F5F5F5;}
	.st1{fill:none;stroke:#4C665B;stroke-width:0.3;stroke-miterlimit:10;}
	.st2{fill:#FFFFFF;stroke:#D79196;stroke-width:0.1;stroke-miterlimit:10;}
	.st3{fill:#FFFFFF;stroke:#4C665B;stroke-width:0.1;stroke-miterlimit:10;}
	.st4{fill:none;stroke:#4C665B;stroke-width:0.1;stroke-miterlimit:10;}
	.st5{fill:none;stroke:#4C665B;stroke-width:0.8;stroke-miterlimit:10;}
	.st6{fill:#FFFFFF;stroke:#77B7E9;stroke-width:0.1;stroke-miterlimit:10;}
	.st7{fill:none;stroke:#D79196;stroke-miterlimit:10;}
	.st8{fill:none;stroke:#77B7E9;stroke-miterlimit:10;}
	.st9{fill:#4C665B;}
	.st10{font-family:'AvenirNext-Regular';}
	.st11{font-size:7px;}
	.st12{font-family:'Helvetica-Light';}
	.st13{font-size:10px;}
	.st14{font-family:'Helvetica';}
	.st15{fill:#FFFFFF;stroke:#4C665B;stroke-width:0.3;stroke-miterlimit:10;}
</style>
<g id="Layer_3">
	<g>
		
			<image style="overflow:visible;opacity:0.75;" width="96" height="45" xlink:href="E4FC110EFB7F358B.png"  transform="matrix(1 0 0 1 55 36)">
		</image>
		<g>
			<g>
				<path class="st0" d="M68,39h64c5.5,0,10,4.5,10,10v13c0,5.5-4.5,10-10,10H68c-5.5,0-10-4.5-10-10V49C58,43.5,62.5,39,68,39z"/>
			</g>
		</g>
	</g>
	<g>
		
			<image style="overflow:visible;opacity:0.75;" width="96" height="45" xlink:href="E4FC110EFB7F3589.png"  transform="matrix(1 0 0 1 178 244)">
		</image>
		<g>
			<g>
				<path class="st0" d="M191,247h64c5.5,0,10,4.5,10,10v13c0,5.5-4.5,10-10,10h-64c-5.5,0-10-4.5-10-10v-13
					C181,251.5,185.5,247,191,247z"/>
			</g>
		</g>
	</g>
	<g>
		
			<image style="overflow:visible;opacity:0.75;" width="129" height="56" xlink:href="E4FC110EFB7F358F.png"  transform="matrix(1 0 0 1 159 412)">
		</image>
		<g>
			<g>
				<path class="st0" d="M172.4,415h96c5.5,0,10,4.5,10,10v24c0,5.5-4.5,10-10,10h-96c-5.5,0-10-4.5-10-10v-24
					C162.4,419.5,166.9,415,172.4,415z"/>
			</g>
		</g>
	</g>
	<g>
		
			<image style="overflow:visible;opacity:0.75;" width="129" height="56" xlink:href="E4FC110EFB7F3588.png"  transform="matrix(1 0 0 1 475 412)">
		</image>
		<g>
			<g>
				<path class="st0" d="M488.7,415h96c5.5,0,10,4.5,10,10v24c0,5.5-4.5,10-10,10h-96c-5.5,0-10-4.5-10-10v-24
					C478.7,419.5,483.2,415,488.7,415z"/>
			</g>
		</g>
	</g>
	<g>
		
			<image style="overflow:visible;opacity:0.75;" width="129" height="56" xlink:href="E4FC110EFB7F3586.png"  transform="matrix(1 0 0 1 616 412)">
		</image>
		<g>
			<g>
				<path class="st0" d="M629.6,415h96c5.5,0,10,4.5,10,10v24c0,5.5-4.5,10-10,10h-96c-5.5,0-10-4.5-10-10v-24
					C619.6,419.5,624,415,629.6,415z"/>
			</g>
		</g>
	</g>
	<g>
		
			<image style="overflow:visible;opacity:0.75;" width="129" height="56" xlink:href="E4FC110EFB7F3587.png"  transform="matrix(1 0 0 1 616 481)">
		</image>
		<g>
			<g>
				<path class="st0" d="M629.6,484h96c5.5,0,10,4.5,10,10v24c0,5.5-4.5,10-10,10h-96c-5.5,0-10-4.5-10-10v-24
					C619.6,488.5,624,484,629.6,484z"/>
			</g>
		</g>
	</g>
	<g>
		
			<image style="overflow:visible;opacity:0.75;" width="129" height="56" xlink:href="E4FC110EFB7F3597.png"  transform="matrix(1 0 0 1 616 551)">
		</image>
		<g>
			<g>
				<path class="st0" d="M629.6,554h96c5.5,0,10,4.5,10,10v24c0,5.5-4.5,10-10,10h-96c-5.5,0-10-4.5-10-10v-24
					C619.6,558.5,624,554,629.6,554z"/>
			</g>
		</g>
	</g>
	<g>
		
			<image style="overflow:visible;opacity:0.75;" width="129" height="56" xlink:href="E4FC110EFB7F3599.png"  transform="matrix(1 0 0 1 616 621)">
		</image>
		<g>
			<g>
				<path class="st0" d="M629.6,624h96c5.5,0,10,4.5,10,10v24c0,5.5-4.5,10-10,10h-96c-5.5,0-10-4.5-10-10v-24
					C619.6,628.5,624,624,629.6,624z"/>
			</g>
		</g>
	</g>
	<g>
		
			<image style="overflow:visible;opacity:0.75;" width="128" height="57" xlink:href="E4FC110EFB7F359B.png"  transform="matrix(1 0 0 1 767 413)">
		</image>
		<g>
			<g>
				<path class="st0" d="M780,416.7h96c5.5,0,10,4.5,10,10v24c0,5.5-4.5,10-10,10h-96c-5.5,0-10-4.5-10-10v-24
					C770,421.1,774.5,416.7,780,416.7z"/>
			</g>
		</g>
	</g>
	<g>
		
			<image style="overflow:visible;opacity:0.75;" width="129" height="57" xlink:href="186E772A5962BD28.png"  transform="matrix(1 0 0 1 330 412)">
		</image>
		<g>
			<g>
				<path class="st0" d="M343.1,415.4h96c5.5,0,10,4.5,10,10v24c0,5.5-4.5,10-10,10h-96c-5.5,0-10-4.5-10-10v-24
					C333.1,419.9,337.5,415.4,343.1,415.4z"/>
			</g>
		</g>
	</g>
	<g>
		
			<image style="overflow:visible;opacity:0.75;" width="129" height="57" xlink:href="186E772A5962BD2F.png"  transform="matrix(1 0 0 1 330 481)">
		</image>
		<g>
			<g>
				<path class="st0" d="M343.1,484.4h96c5.5,0,10,4.5,10,10v24c0,5.5-4.5,10-10,10h-96c-5.5,0-10-4.5-10-10v-24
					C333.1,488.9,337.5,484.4,343.1,484.4z"/>
			</g>
		</g>
	</g>
	<g>
		
			<image style="overflow:visible;opacity:0.75;" width="129" height="57" xlink:href="186E772A5962BD29.png"  transform="matrix(1 0 0 1 330 551)">
		</image>
		<g>
			<g>
				<path class="st0" d="M343.1,554.4h96c5.5,0,10,4.5,10,10v24c0,5.5-4.5,10-10,10h-96c-5.5,0-10-4.5-10-10v-24
					C333.1,558.9,337.5,554.4,343.1,554.4z"/>
			</g>
		</g>
	</g>
	<g>
		
			<image style="overflow:visible;opacity:0.75;" width="128" height="57" xlink:href="186E772A5962BD2B.png"  transform="matrix(1 0 0 1 162 750)">
		</image>
		<g>
			<g>
				<path class="st0" d="M175,753h96c5.5,0,10,4.5,10,10v25c0,5.5-4.5,10-10,10h-96c-5.5,0-10-4.5-10-10v-25
					C165,757.5,169.5,753,175,753z"/>
			</g>
		</g>
	</g>
	<g>
		
			<image style="overflow:visible;opacity:0.75;" width="129" height="51" xlink:href="186E772A5962BD36.png"  transform="matrix(1 0 0 1 8 646)">
		</image>
		<g>
			<g>
				<path class="st0" d="M21.8,649h96c5.5,0,10,4.5,10,10v19c0,5.5-4.5,10-10,10h-96c-5.5,0-10-4.5-10-10v-19
					C11.8,653.5,16.2,649,21.8,649z"/>
			</g>
		</g>
	</g>
	<g>
		
			<image style="overflow:visible;opacity:0.75;" width="129" height="51" xlink:href="186E772A5962BD37.png"  transform="matrix(1 0 0 1 159 551)">
		</image>
		<g>
			<g>
				<path class="st0" d="M172.4,554h96c5.5,0,10,4.5,10,10v19c0,5.5-4.5,10-10,10h-96c-5.5,0-10-4.5-10-10v-19
					C162.4,558.5,166.9,554,172.4,554z"/>
			</g>
		</g>
	</g>
	<g>
		
			<image style="overflow:visible;opacity:0.75;" width="129" height="57" xlink:href="186E772A5962BD38.png"  transform="matrix(1 0 0 1 330 620)">
		</image>
		<g>
			<g>
				<path class="st0" d="M343.1,623.4h96c5.5,0,10,4.5,10,10v24c0,5.5-4.5,10-10,10h-96c-5.5,0-10-4.5-10-10v-24
					C333.1,627.9,337.5,623.4,343.1,623.4z"/>
			</g>
		</g>
	</g>
	<g>
		
			<image style="overflow:visible;opacity:0.75;" width="129" height="56" xlink:href="186E772A5962BD3B.png"  transform="matrix(1 0 0 1 8 726)">
		</image>
		<g>
			<g>
				<path class="st0" d="M21.8,729h96c5.5,0,10,4.5,10,10v24c0,5.5-4.5,10-10,10h-96c-5.5,0-10-4.5-10-10v-24
					C11.8,733.5,16.2,729,21.8,729z"/>
			</g>
		</g>
	</g>
	<g>
		
			<image style="overflow:visible;opacity:0.75;" width="129" height="38" xlink:href="186E772A5962BD39.png"  transform="matrix(1 0 0 1 9 913)">
		</image>
		<g>
			<g>
				<path class="st0" d="M22.2,916h96c5.5,0,10,4.5,10,10v6c0,5.5-4.5,10-10,10h-96c-5.5,0-10-4.5-10-10v-6
					C12.2,920.5,16.7,916,22.2,916z"/>
			</g>
		</g>
	</g>
	<g>
		
			<image style="overflow:visible;opacity:0.75;" width="129" height="45" xlink:href="186E772A5962BD3F.png"  transform="matrix(1 0 0 1 9 961)">
		</image>
		<g>
			<g>
				<path class="st0" d="M22.2,964h96c5.5,0,10,4.5,10,10v13c0,5.5-4.5,10-10,10h-96c-5.5,0-10-4.5-10-10v-13
					C12.2,968.5,16.7,964,22.2,964z"/>
			</g>
		</g>
	</g>
	<g>
		
			<image style="overflow:visible;opacity:0.75;" width="129" height="64" xlink:href="186E772A5962BD53.png"  transform="matrix(1 0 0 1 159 481)">
		</image>
		<g>
			<g>
				<path class="st0" d="M172.4,484h96c5.5,0,10,4.5,10,10v32c0,5.5-4.5,10-10,10h-96c-5.5,0-10-4.5-10-10v-32
					C162.4,488.5,166.9,484,172.4,484z"/>
			</g>
		</g>
	</g>
	<g>
		
			<image style="overflow:visible;opacity:0.75;" width="97" height="45" xlink:href="186E772A5962BD5D.png"  transform="matrix(1 0 0 1 175 353)">
		</image>
		<g>
			<g>
				<path class="st0" d="M188.4,356h64c5.5,0,10,4.5,10,10v13c0,5.5-4.5,10-10,10h-64c-5.5,0-10-4.5-10-10v-13
					C178.4,360.5,182.9,356,188.4,356z"/>
			</g>
		</g>
	</g>
	<g>
		
			<image style="overflow:visible;opacity:0.75;" width="97" height="46" xlink:href="186E772A5962BD5F.png"  transform="matrix(1 0 0 1 346 353)">
		</image>
		<g>
			<g>
				<path class="st0" d="M359.1,356.4h64c5.5,0,10,4.5,10,10v13c0,5.5-4.5,10-10,10h-64c-5.5,0-10-4.5-10-10v-13
					C349.1,360.9,353.5,356.4,359.1,356.4z"/>
			</g>
		</g>
	</g>
	<g>
		
			<image style="overflow:visible;opacity:0.75;" width="97" height="45" xlink:href="186E772A5962BD52.png"  transform="matrix(1 0 0 1 491 353)">
		</image>
		<g>
			<g>
				<path class="st0" d="M504.7,356h64c5.5,0,10,4.5,10,10v13c0,5.5-4.5,10-10,10h-64c-5.5,0-10-4.5-10-10v-13
					C494.7,360.5,499.2,356,504.7,356z"/>
			</g>
		</g>
	</g>
	<g>
		
			<image style="overflow:visible;opacity:0.75;" width="97" height="46" xlink:href="186E772A5962BD51.png"  transform="matrix(1 0 0 1 777 354)">
		</image>
		<g>
			<g>
				<path class="st0" d="M790.7,357.6h64c5.5,0,10,4.5,10,10v13c0,5.5-4.5,10-10,10h-64c-5.5,0-10-4.5-10-10v-13
					C780.7,362,785.2,357.6,790.7,357.6z"/>
			</g>
		</g>
	</g>
	<g>
		
			<image style="overflow:visible;opacity:0.75;" width="113" height="45" xlink:href="186E772A5962BD55.png"  transform="matrix(1 0 0 1 624 353)">
		</image>
		<g>
			<g>
				<path class="st0" d="M637.6,356h80c5.5,0,10,4.5,10,10v13c0,5.5-4.5,10-10,10h-80c-5.5,0-10-4.5-10-10v-13
					C627.6,360.5,632,356,637.6,356z"/>
			</g>
		</g>
	</g>
	<g>
		
			<image style="overflow:visible;opacity:0.75;" width="96" height="45" xlink:href="186E772A5962BD57.png"  transform="matrix(1 0 0 1 520 244)">
		</image>
		<g>
			<g>
				<path class="st0" d="M533,247h64c5.5,0,10,4.5,10,10v13c0,5.5-4.5,10-10,10h-64c-5.5,0-10-4.5-10-10v-13
					C523,251.5,527.5,247,533,247z"/>
			</g>
		</g>
	</g>
	<g>
		
			<image style="overflow:visible;opacity:0.75;" width="96" height="45" xlink:href="186E772A5962BD50.png"  transform="matrix(1 0 0 1 55 244)">
		</image>
		<g>
			<g>
				<path class="st0" d="M68,247h64c5.5,0,10,4.5,10,10v13c0,5.5-4.5,10-10,10H68c-5.5,0-10-4.5-10-10v-13C58,251.5,62.5,247,68,247
					z"/>
			</g>
		</g>
	</g>
	<g>
		
			<image style="overflow:visible;opacity:0.75;" width="96" height="45" xlink:href="186E772A5962BD6F.png"  transform="matrix(1 0 0 1 333 136)">
		</image>
		<g>
			<g>
				<path class="st0" d="M346,139h64c5.5,0,10,4.5,10,10v13c0,5.5-4.5,10-10,10h-64c-5.5,0-10-4.5-10-10v-13
					C336,143.5,340.5,139,346,139z"/>
			</g>
		</g>
	</g>
	<g>
		
			<image style="overflow:visible;opacity:0.75;" width="158" height="56" xlink:href="186E772A5962BD4D.png"  transform="matrix(1 0 0 1 451 131)">
		</image>
		<g>
			<g>
				<path class="st0" d="M464,134h126c5.5,0,10,4.5,10,10v24c0,5.5-4.5,10-10,10H464c-5.5,0-10-4.5-10-10v-24
					C454,138.5,458.5,134,464,134z"/>
			</g>
		</g>
	</g>
	<g>
		
			<image style="overflow:visible;opacity:0.75;" width="65" height="45" xlink:href="186E772A5962BD72.png"  transform="matrix(1 0 0 1 631 136)">
		</image>
		<g>
			<g>
				<path class="st0" d="M644,139h33c5.5,0,10,4.5,10,10v13c0,5.5-4.5,10-10,10h-33c-5.5,0-10-4.5-10-10v-13
					C634,143.5,638.5,139,644,139z"/>
			</g>
		</g>
	</g>
	<g>
		
			<image style="overflow:visible;opacity:0.75;" width="97" height="45" xlink:href="186E772A5962BD4C.png"  transform="matrix(1 0 0 1 177 36)">
		</image>
		<g>
			<g>
				<path class="st0" d="M190.3,39h64c5.5,0,10,4.5,10,10v13c0,5.5-4.5,10-10,10h-64c-5.5,0-10-4.5-10-10V49
					C180.3,43.5,184.8,39,190.3,39z"/>
			</g>
		</g>
	</g>
	<g>
		
			<image style="overflow:visible;opacity:0.75;" width="66" height="45" xlink:href="186E772A5962BD4E.png"  transform="matrix(1 0 0 1 302 37)">
		</image>
		<g>
			<g>
				<path class="st0" d="M315.3,40h33c5.5,0,10,4.5,10,10v13c0,5.5-4.5,10-10,10h-33c-5.5,0-10-4.5-10-10V50
					C305.3,44.5,309.8,40,315.3,40z"/>
			</g>
		</g>
	</g>
</g>
<g id="Layer_1">
</g>
<g id="Layer_2">
	<g id="lines">
		<path class="st1" d="M393.5,284.5v67"/>
		<path class="st1" d="M220.5,72.5V127"/>
		<path class="st1" d="M393.5,285.5V351"/>
		<path class="st1" d="M223.4,593.5v47"/>
		<path class="st1" d="M72.8,898.5V911"/>
		<path class="st1" d="M72.8,942v17"/>
		<path class="st1" d="M223.5,728.5v20"/>
		<path class="st1" d="M223.5,692.5v16"/>
		<path class="st1" d="M223.4,536v11.5"/>
		<path class="st1" d="M223.4,390v21"/>
		<path class="st1" d="M393.7,459.4v21"/>
		<path class="st1" d="M393.7,529.4v21"/>
		<path class="st1" d="M393.7,598.4v21"/>
		<path class="st1" d="M72.8,688v36.5"/>
		<path class="st1" d="M72.8,774v35"/>
		<path class="st1" d="M223.4,459v21"/>
		<path class="st1" d="M539.7,390v21"/>
		<path class="st1" d="M680.6,390v21"/>
		<path class="st1" d="M680.6,459v21"/>
		<path class="st1" d="M680.6,529v21"/>
		<path class="st1" d="M680.6,599v21"/>
		<path class="st1" d="M828,391.7v21"/>
		<path class="st1" d="M393.7,390.4v21"/>
		<path class="st1" d="M221.5,221.5V245"/>
		<path class="st1" d="M140.5,841h-43"/>
		<path class="st1" d="M165,981h-43"/>
		<path class="st1" d="M192,841h-32"/>
		<path class="st1" d="M282,156h-34"/>
		<path class="st1" d="M329.5,156.5h-28"/>
		<path class="st1" d="M448.5,156.5h-28"/>
		<path class="st1" d="M299.5,56.5h-35"/>
		<path class="st1" d="M174.5,56.5h-35"/>
		<path class="st1" d="M628.5,156.5h-28"/>
		<path class="st1" d="M687.5,263.5h-80"/>
		<path class="st1" d="M516.5,263.5h-80"/>
		<path class="st1" d="M196.5,667.5h-19"/>
		<path class="st1" d="M157.5,667.5h-21"/>
		<path class="st1" d="M72.8,866.5v12"/>
		<path class="st1" d="M221.5,181.5v20"/>
		<path class="st1" d="M181,264h-34"/>
		<path class="st1" d="M341.5,263.5h-76"/>
		<path class="st1" d="M311.5,97H255"/>
		<path class="st1" d="M590,209H454"/>
		<path class="st1" d="M223,356v-6c0-11,9-20,20-20h565c11,0,20,9,20,20v6"/>
		<path class="st1" d="M589,209h52c11,0,20-9,20-20v-17"/>
		<path class="st1" d="M311.5,97h1.5c11,0,20-9,20-20v-4"/>
		<path class="st1" d="M455,209h-42c-11,0-20,9-20,20v12"/>
		<path class="st1" d="M255.5,97H241c-11,0-20,9-20,20v10"/>
		<path class="st1" d="M192,841h12c11,0,20-9,20-20v-19"/>
		<path class="st1" d="M165.2,981H204c11,0,20-9,20-20V823"/>
	</g>
	<g id="decisions">
		<circle class="st2" cx="223.5" cy="718.5" r="9.5"/>
		<path class="st3" d="M48,837.5l21.2-21.2c2-2,5.1-2,7.1,0l21.2,21.2c2,2,2,5.1,0,7.1l-21.2,21.2c-2,2-5.1,2-7.1,0L48,844.5
			C46,842.6,46,839.4,48,837.5z"/>
		<path class="st3" d="M196.3,152.5l21.2-21.2c2-2,5.1-2,7.1,0l21.2,21.2c2,2,2,5.1,0,7.1l-21.2,21.2c-2,2-5.1,2-7.1,0l-21.2-21.2
			C194.3,157.6,194.3,154.4,196.3,152.5z"/>
		<path class="st3" d="M198.3,663.5l21.2-21.2c2-2,5.1-2,7.1,0l21.2,21.2c2,2,2,5.1,0,7.1l-21.2,21.2c-2,2-5.1,2-7.1,0l-21.2-21.2
			C196.3,668.6,196.3,665.4,198.3,663.5z"/>
		<g transform="translate(192.72 156) rotate(-45)">
			<path class="st4" d="M5,0.1h30c2.7,0,5,2.2,5,4.9v30c0,2.7-2.2,5-5,5H5c-2.7,0-4.9-2.2-4.9-5V5C0.1,2.3,2.3,0.1,5,0.1z"/>
		</g>
		<g transform="translate(194.72 667) rotate(-45)">
			<path class="st4" d="M5,0.1h30c2.7,0,5,2.2,5,4.9v30c0,2.7-2.2,5-5,5H5c-2.7,0-4.9-2.2-4.9-5V5C0.1,2.3,2.3,0.1,5,0.1z"/>
		</g>
		<g transform="translate(43.72 841) rotate(-45)">
			<path class="st4" d="M5.5,0.6h30c2.7,0,4.9,2.2,4.9,4.9v30c0,2.7-2.2,4.9-4.9,4.9h-30c-2.7,0-4.9-2.2-4.9-4.9v-30
				C0.6,2.8,2.8,0.6,5.5,0.6z"/>
		</g>
	</g>
	<path class="st5" d="M370,241h44c12.2,0,22,9.8,22,22l0,0c0,12.2-9.8,22-22,22h-44c-12.2,0-22-9.8-22-22l0,0
		C348,250.8,357.8,241,370,241z"/>
	<path class="st5" d="M716,241h44c12.2,0,22,9.8,22,22l0,0c0,12.2-9.8,22-22,22h-44c-12.2,0-22-9.8-22-22l0,0
		C694,250.8,703.8,241,716,241z"/>
	<circle class="st2" cx="72.8" cy="888.5" r="9.5"/>
	<circle class="st6" cx="150.5" cy="840.5" r="9.5"/>
	<circle class="st6" cx="167.5" cy="667.5" r="9.5"/>
	<circle class="st2" cx="291.5" cy="156.5" r="9.5"/>
	<circle class="st6" cx="221.5" cy="211.5" r="9.5"/>
	<g id="y_or_n">
		<path class="st7" d="M75.3,891l-5-5"/>
		<path class="st7" d="M75.3,886l-5,5"/>
		<path class="st8" d="M147,840.8l2.8,3.2l4.2-6"/>
		<path class="st8" d="M226,721l-5-5"/>
		<path class="st8" d="M226,716l-5,5"/>
		<path class="st8" d="M164,667.8l2.8,3.2l4.2-6"/>
		<path class="st7" d="M294,159l-5-5"/>
		<path class="st7" d="M294,154l-5,5"/>
		<path class="st8" d="M218,211.8l2.8,3.2l4.2-6"/>
	</g>
	<g id="txt">
		<text transform="matrix(1 0 0 1 57.5966 840)" class="st9 st10 st11">Make the </text>
		<text transform="matrix(1 0 0 1 58.4186 847)" class="st9 st10 st11">payment</text>
		<text transform="matrix(1 0 0 1 202.9998 670)" class="st9 st10 st11">Want to buy?</text>
		<text transform="matrix(1 0 0 1 208.9178 154)" class="st9 st10 st11">Have an </text>
		<text transform="matrix(1 0 0 1 207.5147 161)" class="st9 st10 st11">account?</text>
		<text transform="matrix(1 0 0 1 191.3973 60.5161)" class="st12 st13">ONBOARDING</text>
		<text transform="matrix(1 0 0 1 207.8996 267.5162)" class="st12 st13">LOG IN</text>
		<text transform="matrix(1 0 0 1 180.7837 432)" class="st12 st13">INDOOR PLANTS / </text>
		<text transform="matrix(1 0 0 1 178.2837 446)" class="st12 st13">OUTDOOR PLANTS</text>
		<text transform="matrix(1 0 0 1 516.5034 432)" class="st12 st13">SEARCH / </text>
		<text transform="matrix(1 0 0 1 508.6234 446)" class="st12 st13">TAKE PHOTO</text>
		<text transform="matrix(1 0 0 1 638.8952 432)" class="st12 st13">COMMON PLANT </text>
		<text transform="matrix(1 0 0 1 655.5652 446)" class="st12 st13">DISEASES</text>
		<text transform="matrix(1 0 0 1 657.5059 501)" class="st12 st13">POPULAR </text>
		<text transform="matrix(1 0 0 1 628.0659 515)" class="st12 st13">INSECTICIDES RECIPE</text>
		<text transform="matrix(1 0 0 1 621.6752 571)" class="st12 st13">COMMON HOUSEPLANT </text>
		<text transform="matrix(1 0 0 1 658.6202 585)" class="st12 st13">INSECTS</text>
		<text transform="matrix(1 0 0 1 621.6752 641)" class="st12 st13">COMMON HOUSEPLANT </text>
		<text transform="matrix(1 0 0 1 658.6202 655)" class="st12 st13">INSECTS</text>
		<text transform="matrix(1 0 0 1 807.76 433.6626)" class="st12 st13">SEARCH / </text>
		<text transform="matrix(1 0 0 1 799.8801 447.6626)" class="st12 st13">TAKE PHOTO</text>
		<text transform="matrix(1 0 0 1 342.8951 432.3794)" class="st12 st13">POPULAR OUTDOOR </text>
		<text transform="matrix(1 0 0 1 352.6201 446.3794)" class="st12 st13">PLANTS NEARBY</text>
		<text transform="matrix(1 0 0 1 198.1437 497)" class="st12 st13">FILTER BY</text>
		<text transform="matrix(1 0 0 1 172.5887 511)" class="st12 st13">LOCATION / NEWEST </text>
		<text transform="matrix(1 0 0 1 205.1887 525)" class="st12 st13">/ LIKES</text>
		<text transform="matrix(1 0 0 1 200.6636 763)" class="st12 st13">CONTINUE </text>
		<text transform="matrix(1 0 0 1 180.3736 777)" class="st12 st13">EXPLORING / BACK </text>
		<text transform="matrix(1 0 0 1 189.0836 791)" class="st12 st13">TO HOME PAGE</text>
		<text transform="matrix(1 0 0 1 21.4764 671.6943)" class="st12 st13">PROCEED TO CART</text>
		<text transform="matrix(1 0 0 1 190.3685 575)" class="st12 st13">ADD TO CART</text>
		<text transform="matrix(1 0 0 1 367.9999 500.3794)" class="st12 st13">RECENTLY </text>
		<text transform="matrix(1 0 0 1 366.1399 514.3794)" class="st12 st13">FAVORITED</text>
		<text transform="matrix(1 0 0 1 343.1853 576.3794)" class="st12 st13">RECOMMENDATIONS</text>
		<text transform="matrix(1 0 0 1 363.4548 645.3794)" class="st12 st13">PLANT CARE</text>
		<text transform="matrix(1 0 0 1 41.0817 745)" class="st12 st13">CHECK OUT / </text>
		<text transform="matrix(1 0 0 1 17.7467 759)" class="st12 st13">CONTINUE EXPLORING</text>
		<text transform="matrix(1 0 0 1 57.1912 932)" class="st12 st13">RETRY</text>
		<text transform="matrix(1 0 0 1 14.087 984)" class="st12 st13">PAYMENT SUCCESSFUL</text>
		<text transform="matrix(1 0 0 1 189.2588 373)" class="st12 st13">SHARE &amp; SELL</text>
		<text transform="matrix(1 0 0 1 368.7398 373.3794)" class="st12 st13">DISCOVER</text>
		<text transform="matrix(1 0 0 1 508.3483 373)" class="st12 st13">FIND PLANTS</text>
		<text transform="matrix(1 0 0 1 798.4619 374.5522)" class="st12 st13">MY PLANTS</text>
		<text transform="matrix(1 0 0 1 636.9454 373)" class="st12 st13">PLANT PROBLEMS</text>
		<text transform="matrix(1 0 0 1 376.8674 256.5002)" class="st9 st14 st13">START</text>
		<text transform="matrix(1 0 0 1 355.5735 270.5002)" class="st9 st14 st13">HOME SCREEN</text>
		<text transform="matrix(1 0 0 1 543.9591 265.8203)" class="st12 st13">SETTING</text>
		<text transform="matrix(1 0 0 1 81.89 259)" class="st12 st13">CHANGE </text>
		<text transform="matrix(1 0 0 1 75.59 273)" class="st12 st13">PASSWORD</text>
		<text transform="matrix(1 0 0 1 361.7833 159.1904)" class="st12 st13">SIGN UP</text>
		<text transform="matrix(1 0 0 1 469.1753 152)" class="st12 st13">SOCIAL MEDIA ACOUNT</text>
		<text transform="matrix(1 0 0 1 460.8253 166)" class="st12 st13">GMAIL / FACEBOOK / EMAIL</text>
		<text transform="matrix(1 0 0 1 651.2997 159)" class="st12 st13">SKIP</text>
		<text transform="matrix(1 0 0 1 320.9575 60.5162)" class="st12 st13">SKIP</text>
		<text transform="matrix(1 0 0 1 66.0504 60.5161)" class="st12 st13">LANDING PAGE</text>
		<text transform="matrix(1 0 0 1 700.1159 265.6104)" class="st9 st14 st13">EXIT/ SIGN OUT</text>
	</g>
	<g id="arrow_1_">
		<path class="st15" d="M173.4,60.5v-8.4l6.2,4.2L173.4,60.5z"/>
		<path class="st15" d="M298.3,60.5v-8.4l6.2,4.2L298.3,60.5z"/>
		<path class="st15" d="M329.3,160.5v-8.4l6.2,4.2L329.3,160.5z"/>
		<path class="st15" d="M447.3,160.5v-8.4l6.2,4.2L447.3,160.5z"/>
		<path class="st15" d="M627.3,160.5v-8.4l6.2,4.2L627.3,160.5z"/>
		<path class="st15" d="M687.3,267.5v-8.4l6.2,4.2L687.3,267.5z"/>
		<path class="st15" d="M516.3,267.5v-8.4l6.2,4.2L516.3,267.5z"/>
		<path class="st15" d="M341.3,267.5v-8.4l6.2,4.2L341.3,267.5z"/>
		<path class="st15" d="M148.6,260.1v8.4l-6.2-4.2L148.6,260.1z"/>
		<path class="st15" d="M136.6,663.1v8.4l-6.2-4.2L136.6,663.1z"/>
		<path class="st15" d="M216.3,123.2h8.4l-4.2,6.2L216.3,123.2z"/>
		<path class="st15" d="M217.3,241.2h8.4l-4.2,6.2L217.3,241.2z"/>
		<path class="st15" d="M389.3,350.1h8.4l-4.2,6.2L389.3,350.1z"/>
		<path class="st15" d="M219.2,409.1h8.4l-4.2,6.2L219.2,409.1z"/>
		<path class="st15" d="M389.5,409.5h8.4l-4.2,6.2L389.5,409.5z"/>
		<path class="st15" d="M535.5,409.1h8.4l-4.2,6.2L535.5,409.1z"/>
		<path class="st15" d="M676.3,409.1h8.4l-4.2,6.2L676.3,409.1z"/>
		<path class="st15" d="M823.8,410.8h8.4L828,417L823.8,410.8z"/>
		<path class="st15" d="M389.5,477.5h8.4l-4.2,6.2L389.5,477.5z"/>
		<path class="st15" d="M676.3,477.1h8.4l-4.2,6.2L676.3,477.1z"/>
		<path class="st15" d="M219.2,477.1h8.4l-4.2,6.2L219.2,477.1z"/>
		<path class="st15" d="M219.2,547.3h8.4l-4.2,6.2L219.2,547.3z"/>
		<path class="st15" d="M389.5,547.5h8.4l-4.2,6.2L389.5,547.5z"/>
		<path class="st15" d="M676.3,547.1h8.4l-4.2,6.2L676.3,547.1z"/>
		<path class="st15" d="M68.5,722.1H77l-4.2,6.2L68.5,722.1z"/>
		<path class="st15" d="M219.3,746.1h8.4l-4.2,6.2L219.3,746.1z"/>
		<path class="st15" d="M227.7,804.5h-8.4l4.2-6.2L227.7,804.5z"/>
		<path class="st15" d="M68.5,808.1H77l-4.2,6.2L68.5,808.1z"/>
		<path class="st15" d="M68.5,909.1H77l-4.2,6.2L68.5,909.1z"/>
		<path class="st15" d="M68.5,958.1H77l-4.2,6.2L68.5,958.1z"/>
		<path class="st15" d="M389.5,617.5h8.4l-4.2,6.2L389.5,617.5z"/>
		<path class="st15" d="M676.3,617.1h8.4l-4.2,6.2L676.3,617.1z"/>
	</g>
</g>
</svg>
