<svg xmlns="http://www.w3.org/2000/svg" viewBox="0 0 580.16 298.51"><defs><style>.cls-1,.cls-3{fill:none;stroke-miterlimit:10;}.cls-1{stroke:#4c665b;stroke-width:0.3px;}.cls-2{fill:#4c665b;}.cls-3{stroke:#b7b7b7;stroke-width:0.5px;}.cls-4{fill:#f5f5f5;}.cls-5,.cls-6{isolation:isolate;font-size:9px;font-family:Helvetica-Light, Helvetica;font-weight:300;}.cls-6{fill:#fff;}</style></defs><g id="Layer_3" data-name="Layer 3"><path class="cls-1" d="M96,104V63a15,15,0,0,1,15-15H570a15,15,0,0,1,15,15v41" transform="translate(-50.27 -31.14)"/><line class="cls-1" x1="228.33" y1="108.53" x2="228.4" y2="200.37"/><line class="cls-1" x1="381.33" y1="108.53" x2="381.4" y2="200.37"/><line class="cls-1" x1="534.66" y1="108.53" x2="534.73" y2="200.37"/><line class="cls-1" x1="45.33" y1="108.53" x2="45.4" y2="200.37"/></g><g id="Layer_2" data-name="Layer 2"><g id="r4"><path class="cls-2" d="M316.73,31.17h69.53A10.89,10.89,0,0,1,397.12,42V56.16A10.89,10.89,0,0,1,386.26,67H316.73a10.9,10.9,0,0,1-10.86-10.86V42A10.83,10.83,0,0,1,316.73,31.17Z" transform="translate(-50.27 -31.14)"/><path class="cls-3" d="M316.73,31.39h69.53A10.57,10.57,0,0,1,396.8,42V56.16a10.64,10.64,0,0,1-10.54,10.65H316.73a10.66,10.66,0,0,1-10.64-10.65V42A10.66,10.66,0,0,1,316.73,31.39Z" transform="translate(-50.27 -31.14)"/></g><g id="r4-2" data-name="r4"><path class="cls-2" d="M243.91,104.07h69.52a10.9,10.9,0,0,1,10.87,10.87v14.12a10.9,10.9,0,0,1-10.87,10.86H243.91A10.9,10.9,0,0,1,233,129.06V114.94A10.83,10.83,0,0,1,243.91,104.07Z" transform="translate(-50.27 -31.14)"/><path class="cls-3" d="M243.91,104.29h69.52A10.57,10.57,0,0,1,324,114.94v14.12a10.64,10.64,0,0,1-10.54,10.65H243.91a10.67,10.67,0,0,1-10.65-10.65V114.94A10.67,10.67,0,0,1,243.91,104.29Z" transform="translate(-50.27 -31.14)"/></g><g id="r4-3" data-name="r4"><path class="cls-4" d="M243.89,169.41h69.53a10.9,10.9,0,0,1,10.86,10.86v14.12a10.9,10.9,0,0,1-10.86,10.87H243.89A10.9,10.9,0,0,1,233,194.39V180.27A10.83,10.83,0,0,1,243.89,169.41Z" transform="translate(-50.27 -31.14)"/><path class="cls-4" d="M243.89,169.62h69.53A10.58,10.58,0,0,1,324,180.27v14.12A10.64,10.64,0,0,1,313.42,205H243.89a10.67,10.67,0,0,1-10.65-10.65V180.27A10.67,10.67,0,0,1,243.89,169.62Z" transform="translate(-50.27 -31.14)"/></g><g id="r4-4" data-name="r4"><path class="cls-4" d="M398.86,169.41h69.53a10.9,10.9,0,0,1,10.86,10.86v14.12a10.9,10.9,0,0,1-10.86,10.87H398.86A10.9,10.9,0,0,1,388,194.39V180.27A10.83,10.83,0,0,1,398.86,169.41Z" transform="translate(-50.27 -31.14)"/><path class="cls-4" d="M398.86,169.62h69.53a10.57,10.57,0,0,1,10.53,10.65v14.12A10.64,10.64,0,0,1,468.39,205H398.86a10.67,10.67,0,0,1-10.65-10.65V180.27A10.67,10.67,0,0,1,398.86,169.62Z" transform="translate(-50.27 -31.14)"/></g><g id="r4-5" data-name="r4"><path class="cls-4" d="M550,169.41h69.52a10.9,10.9,0,0,1,10.87,10.86v14.12a10.9,10.9,0,0,1-10.87,10.87H550a10.9,10.9,0,0,1-10.87-10.87V180.27A10.83,10.83,0,0,1,550,169.41Z" transform="translate(-50.27 -31.14)"/><path class="cls-4" d="M550,169.62h69.52a10.57,10.57,0,0,1,10.54,10.65v14.12A10.64,10.64,0,0,1,619.55,205H550a10.67,10.67,0,0,1-10.65-10.65V180.27A10.67,10.67,0,0,1,550,169.62Z" transform="translate(-50.27 -31.14)"/></g><g id="r4-6" data-name="r4"><path class="cls-4" d="M61.15,169.41h69.53a10.9,10.9,0,0,1,10.86,10.86v14.12a10.9,10.9,0,0,1-10.86,10.87H61.15a10.9,10.9,0,0,1-10.86-10.87V180.27A10.83,10.83,0,0,1,61.15,169.41Z" transform="translate(-50.27 -31.14)"/><path class="cls-4" d="M61.15,169.62h69.53a10.57,10.57,0,0,1,10.54,10.65v14.12A10.64,10.64,0,0,1,130.68,205H61.15a10.66,10.66,0,0,1-10.64-10.65V180.27A10.66,10.66,0,0,1,61.15,169.62Z" transform="translate(-50.27 -31.14)"/></g><g id="r4-7" data-name="r4"><path class="cls-4" d="M243.89,231.51h69.53a10.9,10.9,0,0,1,10.86,10.87V256.5a10.9,10.9,0,0,1-10.86,10.86H243.89A10.9,10.9,0,0,1,233,256.5V242.38A10.83,10.83,0,0,1,243.89,231.51Z" transform="translate(-50.27 -31.14)"/><path class="cls-4" d="M243.89,231.73h69.53A10.58,10.58,0,0,1,324,242.38V256.5a10.64,10.64,0,0,1-10.54,10.65H243.89a10.67,10.67,0,0,1-10.65-10.65V242.38A10.67,10.67,0,0,1,243.89,231.73Z" transform="translate(-50.27 -31.14)"/></g><g id="r4-8" data-name="r4"><path class="cls-4" d="M398.86,231.51h69.53a10.9,10.9,0,0,1,10.86,10.87V256.5a10.9,10.9,0,0,1-10.86,10.86H398.86A10.9,10.9,0,0,1,388,256.5V242.38A10.83,10.83,0,0,1,398.86,231.51Z" transform="translate(-50.27 -31.14)"/><path class="cls-4" d="M398.86,231.73h69.53a10.57,10.57,0,0,1,10.53,10.65V256.5a10.64,10.64,0,0,1-10.53,10.65H398.86a10.67,10.67,0,0,1-10.65-10.65V242.38A10.67,10.67,0,0,1,398.86,231.73Z" transform="translate(-50.27 -31.14)"/></g><g id="r4-9" data-name="r4"><path class="cls-4" d="M550,231.51h69.52a10.9,10.9,0,0,1,10.87,10.87V256.5a10.9,10.9,0,0,1-10.87,10.86H550a10.9,10.9,0,0,1-10.87-10.86V242.38A10.83,10.83,0,0,1,550,231.51Z" transform="translate(-50.27 -31.14)"/><path class="cls-4" d="M550,231.73h69.52a10.57,10.57,0,0,1,10.54,10.65V256.5a10.64,10.64,0,0,1-10.54,10.65H550a10.67,10.67,0,0,1-10.65-10.65V242.38A10.67,10.67,0,0,1,550,231.73Z" transform="translate(-50.27 -31.14)"/></g><g id="r4-10" data-name="r4"><path class="cls-4" d="M61.15,231.51h69.53a10.9,10.9,0,0,1,10.86,10.87V256.5a10.9,10.9,0,0,1-10.86,10.86H61.15A10.9,10.9,0,0,1,50.29,256.5V242.38A10.83,10.83,0,0,1,61.15,231.51Z" transform="translate(-50.27 -31.14)"/><path class="cls-4" d="M61.15,231.73h69.53a10.57,10.57,0,0,1,10.54,10.65V256.5a10.64,10.64,0,0,1-10.54,10.65H61.15A10.66,10.66,0,0,1,50.51,256.5V242.38A10.66,10.66,0,0,1,61.15,231.73Z" transform="translate(-50.27 -31.14)"/></g><g id="r4-11" data-name="r4"><path class="cls-4" d="M61.15,293.8h69.53a10.9,10.9,0,0,1,10.86,10.86v14.13a10.9,10.9,0,0,1-10.86,10.86H61.15a10.9,10.9,0,0,1-10.86-10.86V304.66A10.83,10.83,0,0,1,61.15,293.8Z" transform="translate(-50.27 -31.14)"/><path class="cls-4" d="M61.15,294h69.53a10.57,10.57,0,0,1,10.54,10.64v14.13a10.64,10.64,0,0,1-10.54,10.64H61.15a10.66,10.66,0,0,1-10.64-10.64V304.66A10.66,10.66,0,0,1,61.15,294Z" transform="translate(-50.27 -31.14)"/></g><g id="r4-12" data-name="r4"><path class="cls-2" d="M61.17,104.07H130.7a10.9,10.9,0,0,1,10.86,10.87v14.12a10.9,10.9,0,0,1-10.86,10.86H61.17A10.9,10.9,0,0,1,50.3,129.06V114.94A10.83,10.83,0,0,1,61.17,104.07Z" transform="translate(-50.27 -31.14)"/><path class="cls-3" d="M61.17,104.29H130.7a10.57,10.57,0,0,1,10.53,10.65v14.12a10.64,10.64,0,0,1-10.53,10.65H61.17a10.67,10.67,0,0,1-10.65-10.65V114.94A10.67,10.67,0,0,1,61.17,104.29Z" transform="translate(-50.27 -31.14)"/></g><g id="r4-13" data-name="r4"><path class="cls-2" d="M398.88,104.07H468.4a10.9,10.9,0,0,1,10.87,10.87v14.12a10.9,10.9,0,0,1-10.87,10.86H398.88A10.9,10.9,0,0,1,388,129.06V114.94A10.83,10.83,0,0,1,398.88,104.07Z" transform="translate(-50.27 -31.14)"/><path class="cls-3" d="M398.88,104.29H468.4a10.57,10.57,0,0,1,10.54,10.65v14.12a10.64,10.64,0,0,1-10.54,10.65H398.88a10.67,10.67,0,0,1-10.65-10.65V114.94A10.67,10.67,0,0,1,398.88,104.29Z" transform="translate(-50.27 -31.14)"/></g><g id="r4-14" data-name="r4"><path class="cls-2" d="M550,104.07h69.53a10.9,10.9,0,0,1,10.86,10.87v14.12a10.9,10.9,0,0,1-10.86,10.86H550a10.9,10.9,0,0,1-10.86-10.86V114.94A10.83,10.83,0,0,1,550,104.07Z" transform="translate(-50.27 -31.14)"/><path class="cls-3" d="M550,104.29h69.53a10.57,10.57,0,0,1,10.54,10.65v14.12a10.64,10.64,0,0,1-10.54,10.65H550a10.66,10.66,0,0,1-10.64-10.65V114.94A10.66,10.66,0,0,1,550,104.29Z" transform="translate(-50.27 -31.14)"/></g></g><g id="TXT"><text class="cls-5" transform="translate(2.88 158.71)">GARDENING TOOLS</text><text class="cls-5" transform="translate(187.63 158.71)">PLANT HARDINESS </text><text class="cls-6" transform="translate(192.12 93.13)">PLANTS PROFILE</text><text class="cls-5" transform="translate(346.85 158.71)">PLANT DISEASES</text><text class="cls-5" transform="translate(507.51 158.71)">PLANTS LIST</text><text class="cls-6" transform="translate(14.89 93.13)">SHARE &amp; SELL</text><text class="cls-6" transform="translate(506.26 93.13)">MY PLANTS / </text><text class="cls-6" transform="translate(344.09 93.13)">PLANT PROBLEMS</text><text class="cls-6" transform="translate(276.21 20.48)">DISCOVER</text><text class="cls-5" transform="translate(202.13 209.17)">PLANT CARE</text><text class="cls-5" transform="translate(181.37 220.82)">LIGHTING / WATERING</text><text class="cls-5" transform="translate(214.63 232.17)">ETC.</text><text class="cls-5" transform="translate(337.1 220.82)">INSECTICIDES RECIPE</text><text class="cls-5" transform="translate(508.26 220.82)">PLANTS SITE</text><text class="cls-5" transform="translate(10.89 220.82)">PLANTS / SEEDS</text><text class="cls-5" transform="translate(1.13 283.1)">VEGETABLE / FRUITS</text></g></svg>