<?xml version="1.0" encoding="utf-8"?>
<!-- Generator: Adobe Illustrator 25.2.1, SVG Export Plug-In . SVG Version: 6.00 Build 0)  -->
<svg version="1.1" id="Layer_2" xmlns="http://www.w3.org/2000/svg" xmlns:xlink="http://www.w3.org/1999/xlink" x="0px" y="0px"
	 viewBox="0 0 99.4 98.6" style="enable-background:new 0 0 99.4 98.6;" xml:space="preserve">
<style type="text/css">
	.st0{fill:none;stroke:#303030;stroke-miterlimit:10;}
</style>
<path id="Path_12-2" class="st0" d="M25.3,39.8c7.2,2.8,14.6,5,22.2,6.5c-1.6-7.6-3.8-15-6.5-22.2C38,16.5,33.2,11,25.5,9.5
	c-4.9-0.9-9.9-0.9-14.8,0c-0.8,4.9-0.8,9.9,0,14.8C12.3,32,17.7,36.8,25.3,39.8z"/>
<path id="Path_13-2" class="st0" d="M74,39.8c-7.2,2.8-14.6,5-22.2,6.5c1.6-7.6,3.8-15,6.5-22.2c3-7.6,7.8-13.1,15.5-14.6
	c4.9-0.9,9.9-0.9,14.8,0c0.8,4.9,0.8,9.9,0,14.8C87.1,32,81.7,36.8,74,39.8z"/>
<path id="Path_14-2" class="st0" d="M25.3,56.4c7.2-2.8,14.6-5,22.2-6.5C46,57.4,43.8,64.8,41,72c-3,7.6-7.8,13.1-15.5,14.6
	c-4.9,0.9-9.9,0.9-14.8,0.1c-0.8-4.9-0.8-9.9,0-14.8C12.3,64.1,17.7,59.3,25.3,56.4z"/>
<path id="Path_15-2" class="st0" d="M74,56.4c-7.2-2.8-14.6-5-22.2-6.5c1.6,7.6,3.8,15,6.5,22.2c3,7.6,7.8,13.1,15.5,14.6
	c4.9,0.9,9.9,0.9,14.8,0c0.8-4.9,0.8-9.9,0-14.8C87.1,64.1,81.7,59.3,74,56.4z"/>
</svg>
