<svg xmlns="http://www.w3.org/2000/svg" viewBox="0 0 144 144"><defs><style>.cls-1{fill:#f4f4f4;}.cls-2{fill:#e5e5e5;}.cls-3{fill:#ffe1ab;}.cls-4{fill:#424242;}.cls-5{fill:#edd1bc;}.cls-6{fill:#544a45;}.cls-7{fill:#fff;}.cls-8{fill:#d89b12;}.cls-9{fill:none;stroke:#494949;stroke-miterlimit:10;}</style></defs><g id="circle"><circle class="cls-1" cx="72" cy="72" r="72"/></g><g id="vector"><path class="cls-2" d="M113.17,113.58a8.7,8.7,0,0,1,3.42,1.68,5.55,5.55,0,0,1,2,3.54v8.14A71.22,71.22,0,0,1,100.77,138l5.49-26.39,2.87.79Z"/><path class="cls-2" d="M30.83,113.58a8.7,8.7,0,0,0-3.42,1.68,5.55,5.55,0,0,0-1.95,3.54v8.14A71.22,71.22,0,0,0,43.23,138l-5.49-26.39-2.87.79Z"/><path class="cls-3" d="M95.85,56a34.89,34.89,0,0,1-16.42-2.14,26.9,26.9,0,0,1-9.81-6.18,44.77,44.77,0,0,1-5.55-7.32,19.59,19.59,0,0,0-6,1.76,17.49,17.49,0,0,0-4.68,3.26,19.92,19.92,0,0,0-5.23,9.8V69.83A19.86,19.86,0,0,0,49,74.62a25.05,25.05,0,0,0,5.19,8.48,37,37,0,0,0,11.07,9.12,15.33,15.33,0,0,0,3.53,1.34,14.37,14.37,0,0,0,6.48,0,15.33,15.33,0,0,0,3.53-1.34A37,37,0,0,0,89.84,83.1,25.05,25.05,0,0,0,95,74.62a19.86,19.86,0,0,0,.82-4.79Z"/><path class="cls-4" d="M95.94,39.76a16.87,16.87,0,0,0-1.25-4.93A15.66,15.66,0,0,0,90.45,29c-3.55-3-8.5-4-13.23-4.54a50.6,50.6,0,0,0-8.58-.39,29.37,29.37,0,0,0-12.51,3.26,16.58,16.58,0,0,0-5.32,4.34,19.57,19.57,0,0,0-3.26,8.9,35.67,35.67,0,0,0,.6,14.64,19.92,19.92,0,0,1,5.23-9.8,17.49,17.49,0,0,1,4.68-3.26,19.59,19.59,0,0,1,6-1.76,44.77,44.77,0,0,0,5.55,7.32,26.9,26.9,0,0,0,9.81,6.18C85.62,56.22,93,57,98.94,55.41a10.7,10.7,0,0,0,5.51-3.19,9,9,0,0,1-6.37-1.37,8.22,8.22,0,0,1-2.35-2.94,7.49,7.49,0,0,0,9-2.23,10.22,10.22,0,0,1-4-1A11.18,11.18,0,0,1,95.94,39.76Z"/><path class="cls-3" d="M95.85,56c.29,0,.58-.08.87-.13a6.39,6.39,0,0,1,1.4,1.8,8,8,0,0,1,.68,4.13,14.86,14.86,0,0,1-3,8Z"/><path class="cls-5" d="M61.24,89.77a28.29,28.29,0,0,0,4,2.45,15.33,15.33,0,0,0,3.53,1.34,14.37,14.37,0,0,0,6.48,0,15.33,15.33,0,0,0,3.53-1.34,28.29,28.29,0,0,0,4-2.45V103L72,108.76,61.24,103Z"/><path class="cls-2" d="M77.4,117a1.27,1.27,0,0,1-.68,1.17l-1.21.74a.71.71,0,0,1-.32.1l-.44,0c.59,3,1.19,5.94,1.78,8.91l3.63-8.14-8.16-11,5.43,7.32Z"/><path class="cls-2" d="M63.84,119.76l3.63,8.14c.59-3,1.19-5.94,1.78-8.91l-.44,0a.71.71,0,0,1-.32-.1l-1.19-.71a1.28,1.28,0,0,1-.7-1.19l0-.88L72,108.76l-8.24,11.11Z"/><path class="cls-6" d="M94.51,108.19c-2.75-1-5.44-2.06-8.1-3.23l-3.54,12.18a7.33,7.33,0,0,1-1.16,2.32l-.32.41c-.38.51-.77.51-1.15,0l-.08-.11-3.63,8.14q1.38,6.87,2.77,13.75l-.39,2A70.75,70.75,0,0,0,100.77,138l5.49-26.39C102.32,110.54,98.37,109.52,94.51,108.19Z"/><path class="cls-6" d="M67.47,127.9l-3.63-8.14-.08.11c-.38.51-.77.51-1.15,0l-.32-.41a7.33,7.33,0,0,1-1.16-2.32L57.59,105c-2.66,1.17-5.35,2.28-8.1,3.23-3.86,1.33-7.81,2.35-11.75,3.42L43.23,138a70.75,70.75,0,0,0,21.86,5.67l-.39-2Q66.08,134.78,67.47,127.9Z"/><path class="cls-7" d="M80.24,119.87c.38.51.77.51,1.15,0l.32-.41a7.33,7.33,0,0,0,1.16-2.32L86.41,105l-3.65-2L72,108.76l8.16,11Z"/><path class="cls-7" d="M62.29,119.46l.32.41c.38.51.77.51,1.15,0L72,108.76,61.24,103l-3.65,2,3.54,12.18A7.33,7.33,0,0,0,62.29,119.46Z"/><path class="cls-8" d="M76.53,127.9h0c-.59-3-1.19-5.94-1.78-8.91l.44,0a.71.71,0,0,0,.32-.1l1.21-.74A1.27,1.27,0,0,0,77.4,117l0-.87L72,108.76l-5.43,7.32,0,.88a1.28,1.28,0,0,0,.7,1.19l1.19.71a.71.71,0,0,0,.32.1l.44,0c-.59,3-1.19,5.94-1.78,8.91h0q-1.38,6.87-2.77,13.75l.39,2a72.51,72.51,0,0,0,13.82,0l.39-2Q77.92,134.78,76.53,127.9Z"/><path class="cls-3" d="M48.15,55.2V69.83a14.86,14.86,0,0,1-2.95-8,8,8,0,0,1,.68-4.13A7,7,0,0,1,48.15,55.2Z"/></g><g id="mouth"><line class="cls-9" x1="68.18" y1="81.86" x2="75.82" y2="81.86"/></g></svg>