<?xml version="1.0" encoding="utf-8"?>
<!-- Generator: Adobe Illustrator 25.2.1, SVG Export Plug-In . SVG Version: 6.00 Build 0)  -->
<svg version="1.1" id="Layer_1" xmlns="http://www.w3.org/2000/svg" xmlns:xlink="http://www.w3.org/1999/xlink" x="0px" y="0px"
	 viewBox="0 0 144 144" style="enable-background:new 0 0 144 144;" xml:space="preserve">
<style type="text/css">
	.st0{fill:#F4F4F4;}
	.st1{fill:#D3D3D3;}
	.st2{fill:#E8E8E8;}
	.st3{fill:#FFFFFF;}
	.st4{fill:#705D57;}
	.st5{fill:#605554;}
	.st6{fill:none;stroke:#000000;stroke-miterlimit:10;}
</style>
<g id="circle">
	<circle class="st0" cx="72" cy="72" r="72"/>
</g>
<path class="st1" d="M72,113.7c-5.8,0-10.4-4.6-10.5-10.4l-3.9,1.9l7.4,38.4c4.6,0.4,9.2,0.4,13.8,0l7.4-38.4l-3.9-1.9
	C82.4,109.1,77.8,113.7,72,113.7z"/>
<path class="st2" d="M91.7,141.3c0.6-3.2,1.3-6.4,1.9-9.6l-2.8-5.1l4.1-0.3c1.1-5.7,2.1-11.3,3.2-17c3.7,1.1,7.4,2,11.1,3.1
	c1.3,0.4,2.7,0.8,4,1.2c1.3,0.3,2.4,0.9,3.4,1.7c1.1,0.9,1.8,2.1,2,3.5v8.1C110.7,133.6,101.6,138.5,91.7,141.3z"/>
<path class="st2" d="M52.3,141.3c-0.6-3.2-1.3-6.4-1.9-9.6l2.8-5.1l-4.1-0.3c-1.1-5.7-2.1-11.3-3.2-17c-3.7,1.1-7.4,2-11.1,3.1
	c-1.3,0.4-2.7,0.8-4,1.2c-1.3,0.3-2.4,0.9-3.4,1.7c-1.1,0.9-1.8,2.2-2,3.5v8.1C33.3,133.6,42.5,138.5,52.3,141.3z"/>
<path class="st3" d="M52.3,141.3c3.9,1.1,7.9,1.9,12,2.3l0.8,0.1L57.6,105c-3.8,1.7-7.6,3.1-11.6,4.3c1,5.7,2.1,11.3,3.2,17l4.1,0.3
	l-2.8,5.1C51.1,134.9,51.7,138.1,52.3,141.3z"/>
<path class="st3" d="M91.7,141.3c-3.9,1.1-7.9,1.9-12,2.3l-0.8,0.1l7.5-38.7c3.8,1.7,7.7,3.2,11.6,4.4c-1.1,5.7-2.1,11.3-3.2,17
	l-4.1,0.3l2.8,5.1C92.9,134.9,92.3,138.1,91.7,141.3z"/>
<path class="st4" d="M81.7,38.8c-0.8,1.5-1.7,3-2.9,4.2c-1.9,2-4.2,3.8-6.6,5.2c-4,2.5-8.2,4.6-12.6,6.2c-3.4,1.2-7,2.2-10.6,2.8v11
	c0,2.3,0.5,4.6,1.7,6.7c0.7,1.4,1.5,2.7,2.3,3.9c1.6,2.4,3.4,4.6,5.3,6.8c3.1,3.6,6.4,7.4,10.8,8.6c1,0.2,1.9,0.4,2.9,0.4h0.4h0.4
	c1-0.1,2-0.2,2.9-0.4c4.4-1.2,7.7-5,10.8-8.6c1.9-2.2,3.7-4.4,5.4-6.8c0.8-1.3,1.6-2.6,2.3-3.9c1.1-2.1,1.7-4.4,1.7-6.7V57
	c-1-0.4-1.9-0.9-2.8-1.5c-3.1-2-5.4-5.2-7.4-8.4C84.1,44.5,82.8,41.7,81.7,38.8z"/>
<path class="st5" d="M82.5,103.3c0,5.8-4.7,10.5-10.5,10.5s-10.5-4.7-10.5-10.5V89c2.2,2.3,4.7,4.3,7.7,5.1c1,0.2,1.9,0.4,2.9,0.4
	h0.4h0.4c1-0.1,2-0.2,2.9-0.4c2.5-0.8,4.8-2.1,6.6-4L82.5,103.3z"/>
<path d="M82.5,90c1.5-1.4,2.8-2.9,4.2-4.5c1.9-2.1,3.7-4.4,5.4-6.8c0.8-1.3,1.6-2.6,2.3-3.9c1.1-2.1,1.7-4.4,1.7-6.7V57
	c-1-0.4-1.9-0.9-2.8-1.5c-3.1-2-5.4-5.2-7.4-8.4c-1.6-2.6-3-5.4-4-8.4c-0.9,1.6-1.9,3-3,4.3c-1.9,2-4.2,3.8-6.6,5.2
	c-4,2.5-8.2,4.6-12.6,6.2c-3.4,1.2-7,2.2-10.6,2.8v11c0,2.3,0.5,4.6,1.7,6.7c0.7,1.4,1.5,2.7,2.3,3.9c1.6,2.4,3.4,4.6,5.3,6.8
	c1,1.2,2,2.3,3.1,3.5v9.7c-5-0.6-9.8-2.2-14.2-4.7c-3.3-1.7-6.2-4.2-8.4-7.2c-1.6-2.5-2.6-5.3-3.1-8.3c-0.9-5.3-0.2-10.7,0.7-16.1
	c1.7-9.5,4.4-19,10.4-26.1c2.9-3.5,6.6-6.4,10.8-8.3c4.5-2,9.3-3,14.2-2.8c4.9-0.2,9.8,0.8,14.2,2.8c4.2,1.9,7.8,4.8,10.8,8.3
	c6.1,7.2,8.8,16.6,10.4,26.1c1,5.4,1.6,10.8,0.7,16.1c-0.4,2.9-1.5,5.8-3.1,8.3c-2.2,3-5.1,5.5-8.4,7.2c-4.4,2.5-9.2,4.1-14.2,4.7
	V90H82.5z"/>
<g id="mouth">
	<line class="st6" x1="67.2" y1="81.5" x2="76.8" y2="81.5"/>
</g>
</svg>
