<svg xmlns="http://www.w3.org/2000/svg" viewBox="0 0 144 144"><defs><style>.cls-1{fill:#f4f4f4;}.cls-2{fill:#ffe1ab;}.cls-3{fill:#912c2c;}.cls-4{fill:#661d06;}.cls-5{fill:#603532;}.cls-6{fill:#edd1bc;}.cls-7{fill:none;stroke:#9e745f;stroke-miterlimit:10;}</style></defs><g id="circle"><circle class="cls-1" cx="72.1" cy="72.1" r="72"/></g><g id="vector"><path class="cls-2" d="M95.44,57.1V71.76a3.47,3.47,0,0,1-.32,1.49,47.5,47.5,0,0,1-21,22.62l-.24.13a3.6,3.6,0,0,1-1.64.39H72A3.61,3.61,0,0,1,70.33,96l-.23-.13a47.45,47.45,0,0,1-21-22.62,3.47,3.47,0,0,1-.32-1.49V57.1a37.22,37.22,0,0,0,10.88-4.68A38.67,38.67,0,0,0,72.1,38.89,38.64,38.64,0,0,0,84.55,52.42,37.16,37.16,0,0,0,95.44,57.1Z"/><path class="cls-3" d="M87.61,106.05l-5-2.52V90.1A45.8,45.8,0,0,0,95.12,73.25a3.47,3.47,0,0,0,.32-1.49V57.1a37.16,37.16,0,0,1-10.89-4.68A38.64,38.64,0,0,1,72.1,38.89,38.67,38.67,0,0,1,59.64,52.42,37.22,37.22,0,0,1,48.76,57.1V71.76a3.47,3.47,0,0,0,.32,1.49A45.8,45.8,0,0,0,61.64,90.1v13.31l-5.29,2.64c-.88.44-1.78.84-2.7,1.21-.85-.94-1.67-1.91-2.44-2.91C46.48,98.24,43.37,91,41,83.5c-3.41-10.9-5.22-22.36-2.91-33.6,1.56-7.62,5-15.15,10.73-20.21a31.07,31.07,0,0,1,11.44-6.27,41.21,41.21,0,0,1,23.63,0,31.12,31.12,0,0,1,11.45,6.27c5.71,5.06,9.16,12.59,10.73,20.21,2.3,11.24.5,22.7-2.92,33.6C100.82,91,97.71,98.24,93,104.35c-.79,1-1.63,2-2.5,3C89.5,106.94,88.55,106.52,87.61,106.05Z"/><path class="cls-4" d="M61.64,105.45a10.46,10.46,0,1,0,20.92,0v-1.92L85.44,105v.42a13.34,13.34,0,1,1-26.68,0v-.56l2.87-1.44Z"/><path class="cls-5" d="M118.51,118.64a3.58,3.58,0,0,0-2.17-3.3l-2.85-1.24a14.11,14.11,0,0,0-2.27-.77l-11.07-2.81c-.93-.24-1.84-.51-2.74-.81l-5.24-1.77a34.21,34.21,0,0,1-4.56-1.89L85.44,105v.43a13.34,13.34,0,1,1-26.68,0c0-.19,0-.37,0-.55l-2.42,1.2a34.21,34.21,0,0,1-4.56,1.89l-5.24,1.77c-.9.3-1.81.57-2.74.81l-11.07,2.81a14.11,14.11,0,0,0-2.27.77l-2.85,1.24a3.58,3.58,0,0,0-2.18,3.3v8.3a72,72,0,0,0,93.07.2Z"/><path class="cls-6" d="M82.56,103.53V90.1a46.82,46.82,0,0,1-8.46,5.77l-.24.13a3.6,3.6,0,0,1-1.64.39H72A3.61,3.61,0,0,1,70.33,96l-.23-.13a46.47,46.47,0,0,1-8.46-5.77v15.35a10.46,10.46,0,1,0,20.92,0Z"/></g><g id="mouth"><line class="cls-7" x1="67.32" y1="81.62" x2="76.88" y2="81.62"/></g></svg>