<svg xmlns="http://www.w3.org/2000/svg" viewBox="0 0 144 144"><defs><style>.cls-1{fill:#f4f4f4;}.cls-2{fill:#5e4833;}.cls-3{fill:#edd1bc;}.cls-4{fill:#ffe1ab;}.cls-5{fill:#c9c4c3;}.cls-6{fill:#a59d9a;}.cls-7{fill:#ceb8b2;}.cls-8{fill:#d87856;}.cls-9{fill:#968d8a;}.cls-10{fill:#fcfcfc;}.cls-11{fill:none;stroke:#5e4833;stroke-miterlimit:10;}</style></defs><g id="circle"><circle class="cls-1" cx="72.03" cy="72" r="72"/></g><g id="vector"><path class="cls-2" d="M83.07,89.45c1.26-1.24,2.43-2.61,3.57-3.94A71.51,71.51,0,0,0,92,78.74a43.7,43.7,0,0,0,2.33-3.93A13.85,13.85,0,0,0,96,68.11V55.73H65.74l-.33-5.86-.73-.67-.93,6.53H61.09L60.16,52l-.65.24-1,3.51H49.14V68.11a13.75,13.75,0,0,0,1.66,6.7,41.47,41.47,0,0,0,2.33,3.93,73,73,0,0,0,5.34,6.77c.84,1,1.69,2,2.58,2.93v13.89q-2.07,1.19-4.16,2.35L57,105l-11.57,4.31a47.72,47.72,0,0,1-3.31-4A36.22,36.22,0,0,1,35.7,92.9c-1.53-6.15-.38-12.76.71-19.31,2-12.23,3.83-24.24,9.65-34.77a33.19,33.19,0,0,1,5.57-7.61A26.94,26.94,0,0,1,61.85,25a37.79,37.79,0,0,1,10.71-1.85A37.85,37.85,0,0,1,83.27,25a26.9,26.9,0,0,1,10.21,6.17,32.9,32.9,0,0,1,5.57,7.61c5.83,10.53,7.63,22.54,9.66,34.77,1.08,6.55,2.23,13.16.7,19.31-1.11,4.43-3.62,8.63-6.41,12.39a50,50,0,0,1-3.26,4h0l-12.41-4.45.11-.34-4.2-2.29Q83.17,95.82,83.07,89.45Z"/><line x1="87.94" y1="105.04" x2="90.77" y2="106.05"/><line x1="53.58" y1="106.3" x2="56.39" y2="105.25"/><path class="cls-3" d="M61.05,88.44c2.37,2.53,5,4.76,8.17,5.62a16.06,16.06,0,0,0,2.94.45l.4,0,.39,0a16.06,16.06,0,0,0,2.94-.45,16.5,16.5,0,0,0,7.18-4.61q.09,6.38.17,12.74l-11,6.26-11.14-6.12Z"/><path class="cls-4" d="M58.48,55.73H49.14V68.11a13.75,13.75,0,0,0,1.66,6.7,41.47,41.47,0,0,0,2.33,3.93,73,73,0,0,0,5.34,6.77c3.06,3.57,6.37,7.37,10.75,8.55a16.06,16.06,0,0,0,2.94.45l.4,0,.39,0a16.06,16.06,0,0,0,2.94-.45c4.39-1.18,7.69-5,10.75-8.55A71.51,71.51,0,0,0,92,78.74a43.7,43.7,0,0,0,2.33-3.93A13.85,13.85,0,0,0,96,68.11V55.73H65.74l-.33-5.86-.73-.67-.93,6.53H61.09L60.16,52l-.65.24Z"/><path class="cls-5" d="M93.77,59l-.57,0a6.05,6.05,0,0,0-.55-.32,7.18,7.18,0,0,0-2.53-.87q-.72-.13-1.44-.21l-1.53-.12a30.83,30.83,0,0,0-3.33,0,21.6,21.6,0,0,0-3.67.5,22.38,22.38,0,0,0-2.65.79l-.25.09a36.81,36.81,0,0,0-9.38,0l-.25-.09A22.38,22.38,0,0,0,65,58a21.71,21.71,0,0,0-3.68-.5,30.83,30.83,0,0,0-3.33,0l-1.53.12q-.72.08-1.44.21a7.19,7.19,0,0,0-2.52.87,6.22,6.22,0,0,0-.56.32l-.57,0-6.6.06v2.33l4,0c0,.82.05,1.63.08,2.44l.43.39A10.66,10.66,0,0,0,49.6,66a13.91,13.91,0,0,0,1,2.68A11.14,11.14,0,0,0,52.14,71a7.65,7.65,0,0,0,4.67,2.7,12.42,12.42,0,0,0,2.92.22,10.33,10.33,0,0,0,3.39-.68,8,8,0,0,0,1.88-1,11.2,11.2,0,0,0,1.72-1.58,21.41,21.41,0,0,0,2.37-3.36A11.63,11.63,0,0,0,70.18,65a7,7,0,0,0,.35-2.09l.13,0a10.8,10.8,0,0,0,1.89.17h0a11,11,0,0,0,1.9-.17l.13,0A6.73,6.73,0,0,0,74.93,65,12.27,12.27,0,0,0,76,67.27a20.17,20.17,0,0,0,2.37,3.36,10.76,10.76,0,0,0,1.72,1.58,8.18,8.18,0,0,0,1.87,1,10.39,10.39,0,0,0,3.4.68,12.38,12.38,0,0,0,2.91-.22A7.64,7.64,0,0,0,93,71a10.71,10.71,0,0,0,1.53-2.3,13.28,13.28,0,0,0,1-2.68,9.8,9.8,0,0,0,.33-1.86l.44-.39c0-.81,0-1.62.07-2.44l4,0,0-2.33ZM69,63.7a9.19,9.19,0,0,1-1.4,3.22,12.14,12.14,0,0,1-4.5,4.75,9.29,9.29,0,0,1-4.67.8,7.93,7.93,0,0,1-3.45-.9,7.79,7.79,0,0,1-2.62-2.64,11.39,11.39,0,0,1-1.5-3.74,5.49,5.49,0,0,1,0-2.61,3.78,3.78,0,0,1,.83-1.47A4.63,4.63,0,0,1,53.17,60c1.29-.83,4.33-1.08,6.78-1.06a20.76,20.76,0,0,1,4.69.5,24.47,24.47,0,0,1,2.49.74l.3.12,0,0,.13,0a2.2,2.2,0,0,1,.79.56l.13.16a2,2,0,0,1,.55,1.35A5.14,5.14,0,0,1,69,63.7Zm25.21,1.49a11.15,11.15,0,0,1-1.49,3.74,7.79,7.79,0,0,1-2.62,2.64,7.93,7.93,0,0,1-3.46.9,9.3,9.3,0,0,1-4.67-.8,12.12,12.12,0,0,1-4.49-4.75,9,9,0,0,1-1.4-3.22,5.14,5.14,0,0,1,0-1.3,2,2,0,0,1,.54-1.35l.14-.16a2,2,0,0,1,.79-.56l.13,0,0,0,.31-.12a23.74,23.74,0,0,1,2.49-.74,20.7,20.7,0,0,1,4.69-.5c2.44,0,5.49.23,6.77,1.06a4.57,4.57,0,0,1,1.51,1.15,4.05,4.05,0,0,1,.83,1.47A5.37,5.37,0,0,1,94.23,65.19Z"/><path class="cls-6" d="M57,105l-.61.23a15.42,15.42,0,0,0,4.14,9.94Z"/><path class="cls-7" d="M119.34,117.52a4.19,4.19,0,0,0-3-3.57L100,109.34l-.24-.07-10.39-3.72,1.42.5a18.68,18.68,0,0,1-37.19.25l1.08-.41-10,3.74-.24.08-16.32,4.81a4.19,4.19,0,0,0-2.93,3.62v8.51a72,72,0,0,0,94.29-.47Z"/><path class="cls-6" d="M80.05,118.15l-7.86-9.7-7.73,9.8a15.28,15.28,0,0,0,7.8,1.92A15.46,15.46,0,0,0,80.05,118.15Z"/><path class="cls-6" d="M87.33,104.82q-1.69,5.12-3.4,10.22a15.47,15.47,0,0,0,4-10Z"/><path class="cls-8" d="M87.94,105h0l1.41.51Z"/><path class="cls-8" d="M63.28,119.75l1.18-1.5a15.41,15.41,0,0,1-3.93-3.06l1.5,4.35A.73.73,0,0,0,63.28,119.75Z"/><path class="cls-8" d="M56.39,105.25l-1.73.64,1.73-.64Z"/><path class="cls-8" d="M82.49,119.4,83.93,115a15.35,15.35,0,0,1-3.88,3.11l1.19,1.48A.73.73,0,0,0,82.49,119.4Z"/><path class="cls-9" d="M72.28,123.05a18.41,18.41,0,0,0,18.49-17l-1.42-.5L87.94,105a15.47,15.47,0,0,1-4,10l-1.44,4.36a.73.73,0,0,1-1.25.23l-1.19-1.48a15.46,15.46,0,0,1-7.79,2,15.28,15.28,0,0,1-7.8-1.92l-1.18,1.5a.73.73,0,0,1-1.25-.21l-1.5-4.35a15.42,15.42,0,0,1-4.14-9.94l-1.73.64-1.08.41A18.39,18.39,0,0,0,72.28,123.05Z"/><path class="cls-10" d="M81.24,119.63l-9-11.18,11-6.26,4.2,2.29-5,14.92A.73.73,0,0,1,81.24,119.63Z"/><path class="cls-10" d="M63.28,119.75l8.91-11.3-11.14-6.12q-2.07,1.19-4.16,2.35L62,119.54A.73.73,0,0,0,63.28,119.75Z"/></g><g id="mouth"><line class="cls-11" x1="67.93" y1="80.4" x2="76.79" y2="80.4"/></g></svg>