<svg xmlns="http://www.w3.org/2000/svg" viewBox="0 0 144 144"><defs><style>.cls-1{fill:#f4f4f4;}.cls-2{fill:#fff7e8;}.cls-3{fill:#edd1b0;}.cls-4{fill:#fcfcfc;}.cls-5{fill:#ffe1ab;}.cls-6{fill:#edd1bc;}.cls-7{fill:#4c4c4c;}.cls-8{fill:none;stroke:#c19874;stroke-miterlimit:10;}</style></defs><g id="circle"><circle class="cls-1" cx="72" cy="72.09" r="72"/></g><g id="vector"><path d="M75.19,119.05a.71.71,0,0,0,.32-.1l1.21-.73A1.28,1.28,0,0,0,77.4,117l0-.86L72,108.86l-5.43,7.32,0,.88a1.28,1.28,0,0,0,.7,1.18l1.19.71a.71.71,0,0,0,.32.1l.44,0q-2.46,12.3-4.93,24.59a70.43,70.43,0,0,0,15.36,0q-2.46-12.28-4.93-24.59Z"/><path class="cls-2" d="M72,23.28c-7.3-.31-15.78,1.87-20.24,8.56-4.35,6.52-4.1,15.23-3.19,22.25.06.47.12.94.19,1.4l.06.35c0,.2.16-.13.23-.21l.5-.5c.33-.34.65-.69,1-1,.16-.17.38-.27.37-.57s0-.48,0-.71a15.53,15.53,0,0,1,1.17-5.63,11.43,11.43,0,0,1,3.25-4.7A8.86,8.86,0,0,1,57.78,41a11.07,11.07,0,0,1,1.38-.44c.26-.06.39.06.52.26l.4.6c2.39,3.36,5.5,5.18,9,6.91a22.67,22.67,0,0,0,5.39,1.94,17,17,0,0,0,2.83.35h1.44l.71,0,.36,0c.05,0,.22,0,.14,0a.71.71,0,0,0-.14-.1,6.59,6.59,0,0,1-3.22-4.63,7.52,7.52,0,0,1-.16-1.41c0-.12,0-.24,0-.35s-.09-.38,0-.26l.55.42a11,11,0,0,0,8.15,1.92c.18,0,.7.06.47-.18s-.33-.33-.48-.5a5.32,5.32,0,0,1-.78-1.21A5.12,5.12,0,0,1,84,41.42c0-.43-.08-1.1.58-.91q.69.21,1.35.48a12.91,12.91,0,0,1,2.51,1.41,10.15,10.15,0,0,1,3.52,4.46c.76,1.78,1.06,3.67,1.68,5.48A22.75,22.75,0,0,0,94.69,55c.1.22.21.43.32.64s.12.4.15.22,0-.23,0-.35c.08-.47.15-1,.21-1.42.94-7,1.16-15.74-3.18-22.24C87.78,25.15,79.3,23,72,23.28Z"/><path class="cls-3" d="M48.77,55.51c0,.12,0,.23,0,.35q.09,7,.19,14a16.15,16.15,0,0,1-2.77-5.95A10.14,10.14,0,0,1,46,60.1a6.88,6.88,0,0,1,1-2.75,7.22,7.22,0,0,1,1.72-1.81Z"/><path class="cls-4" d="M63.76,120,72,108.86l-10.76-5.78-3.65,2,3.54,12.17a7.12,7.12,0,0,0,1.16,2.32l.32.42C63,120.47,63.38,120.47,63.76,120Z"/><path class="cls-4" d="M80.24,120,72,108.86l10.76-5.78,3.65,2-3.54,12.17a7.12,7.12,0,0,1-1.16,2.32l-.32.42C81,120.47,80.62,120.47,80.24,120Z"/><path class="cls-5" d="M95,69.88a21.14,21.14,0,0,1-.94,5.1,23.81,23.81,0,0,1-4,7.29,39.1,39.1,0,0,1-7.84,7.28c-2.72,2-5.68,3.77-8.94,4.16-.4.05-.82.08-1.23.09s-.83,0-1.23-.09c-3.26-.39-6.22-2.19-8.94-4.16A39.1,39.1,0,0,1,54,82.27,23.81,23.81,0,0,1,50,75a21.14,21.14,0,0,1-.94-5.1q-.1-7-.19-14c.65-.63,1.27-1.3,1.89-2,.38-.43.17-.86.19-1.3s.06-.92.12-1.38a15.37,15.37,0,0,1,1.64-5.29,9.87,9.87,0,0,1,3.59-4.12,9.75,9.75,0,0,1,2.54-1.11c.22-.06.44-.12.66-.16s.33.48.39.56q.38.57.81,1.11c2.44,3.09,5.5,4.77,8.91,6.37a22,22,0,0,0,5.23,1.79,17.93,17.93,0,0,0,2.74.29c.46,0,.92,0,1.38,0s1.37.11.87-.22A6.59,6.59,0,0,1,76.65,46a7.78,7.78,0,0,1-.18-1.37c0-.22,0-.45,0-.67s.3.09.43.19a10.62,10.62,0,0,0,2.38,1.36,10.47,10.47,0,0,0,5.42.76c.34,0,1.38.11.91-.33a6.1,6.1,0,0,1-.86-1,5.18,5.18,0,0,1-.83-2.67,5.33,5.33,0,0,1,.12-1.38c0-.21.08-.41.35-.33l.66.2a12.66,12.66,0,0,1,2.5,1.17,10.07,10.07,0,0,1,3.82,3.92A23.21,23.21,0,0,1,93.18,51a22.09,22.09,0,0,0,.88,2.6c.18.43.37.85.56,1.27s.45,1.5.56.84Q95.09,62.78,95,69.88Z"/><path class="cls-6" d="M61.24,103.08,72,108.86l10.76-5.78v-14l-.59.43c-2.72,2-5.68,3.77-8.94,4.16-.4.05-.82.08-1.23.09s-.83,0-1.23-.09c-3.26-.39-6.22-2.19-8.94-4.16l-.59-.43Z"/><path class="cls-7" d="M61.13,117.23a7.12,7.12,0,0,0,1.16,2.32l.32.42c.38.5.77.5,1.15,0l2.81-3.78,0,.88a1.28,1.28,0,0,0,.7,1.18l1.19.71a.71.71,0,0,0,.32.1l.44,0q-2.46,12.3-4.93,24.59A71.91,71.91,0,0,1,25.46,127v-8.14a5.55,5.55,0,0,1,1.95-3.54,8.68,8.68,0,0,1,3.42-1.67c1.34-.4,2.69-.8,4-1.18,4.88-1.39,9.83-2.56,14.62-4.21,2.75-1,5.44-2.06,8.1-3.23Z"/><path class="cls-7" d="M82.87,117.23a7.12,7.12,0,0,1-1.16,2.32l-.32.42c-.38.5-.77.5-1.15,0l-2.81-3.78,0,.86a1.28,1.28,0,0,1-.68,1.18l-1.21.73a.71.71,0,0,1-.32.1l-.44,0q2.46,12.3,4.93,24.59A71.91,71.91,0,0,0,118.54,127v-8.14a5.55,5.55,0,0,0-2-3.54,8.68,8.68,0,0,0-3.42-1.67c-1.34-.4-2.69-.8-4-1.18-4.88-1.39-9.83-2.56-14.62-4.21-2.75-1-5.44-2.06-8.1-3.23Z"/></g><g id="mouth"><line class="cls-8" x1="67.21" y1="81.6" x2="76.79" y2="81.6"/></g></svg>