<svg width="32" height="32" viewBox="0 0 32 32" fill="none" xmlns="http://www.w3.org/2000/svg">
<path d="M22.5565 13.0516C22.8824 12.6876 22.8515 12.1284 22.4875 11.8025C22.1235 11.4766 21.5642 11.5075 21.2384 11.8715L17.2645 16.3101C16.4592 17.2095 15.917 17.812 15.4533 18.2017C15.0117 18.5729 14.7523 18.6538 14.5256 18.6538C14.299 18.6538 14.0396 18.5729 13.598 18.2017C13.1343 17.812 12.592 17.2095 11.7868 16.3101L10.7616 15.165C10.4357 14.801 9.87649 14.7701 9.5125 15.096C9.14851 15.4219 9.11761 15.9812 9.4435 16.3452L10.5125 17.5392C11.2625 18.3769 11.888 19.0756 12.4596 19.5561C13.0642 20.0643 13.7164 20.4231 14.5256 20.4231C15.3349 20.4231 15.987 20.0643 16.5917 19.5561C17.1633 19.0757 17.7888 18.3769 18.5388 17.5392L22.5565 13.0516Z" fill="#505050"/>
<path fill-rule="evenodd" clip-rule="evenodd" d="M21.2647 4.64594C19.9175 4.49998 18.2195 4.49999 16.0534 4.5H15.9466C13.7805 4.49999 12.0825 4.49998 10.7353 4.64594C9.36059 4.79488 8.24671 5.10428 7.29566 5.79526C6.7199 6.21357 6.21357 6.7199 5.79526 7.29566C5.10428 8.24671 4.79488 9.36059 4.64594 10.7353C4.49998 12.0825 4.49999 13.7805 4.5 15.9466V16.0534C4.49999 18.2195 4.49998 19.9175 4.64594 21.2647C4.79488 22.6394 5.10428 23.7533 5.79526 24.7043C6.21357 25.2801 6.7199 25.7864 7.29566 26.2047C8.24671 26.8957 9.36059 27.2051 10.7353 27.3541C12.0824 27.5 13.7804 27.5 15.9465 27.5H16.0534C18.2195 27.5 19.9176 27.5 21.2647 27.3541C22.6394 27.2051 23.7533 26.8957 24.7043 26.2047C25.2801 25.7864 25.7864 25.2801 26.2047 24.7043C26.8957 23.7533 27.2051 22.6394 27.3541 21.2647C27.5 19.9176 27.5 18.2196 27.5 16.0535V15.9466C27.5 13.7805 27.5 12.0824 27.3541 10.7353C27.2051 9.36059 26.8957 8.24671 26.2047 7.29566C25.7864 6.7199 25.2801 6.21357 24.7043 5.79526C23.7533 5.10428 22.6394 4.79488 21.2647 4.64594ZM8.33559 7.22659C8.93477 6.79126 9.7017 6.53751 10.9259 6.40487C12.1667 6.27045 13.7689 6.26923 16 6.26923C18.2311 6.26923 19.8333 6.27045 21.0741 6.40487C22.2983 6.53751 23.0652 6.79126 23.6644 7.22659C24.09 7.53578 24.4642 7.91003 24.7734 8.33559C25.2087 8.93477 25.4625 9.7017 25.5951 10.9259C25.7296 12.1667 25.7308 13.7689 25.7308 16C25.7308 18.2311 25.7296 19.8333 25.5951 21.0741C25.4625 22.2983 25.2087 23.0652 24.7734 23.6644C24.4642 24.09 24.09 24.4642 23.6644 24.7734C23.0652 25.2087 22.2983 25.4625 21.0741 25.5951C19.8333 25.7296 18.2311 25.7308 16 25.7308C13.7689 25.7308 12.1667 25.7296 10.9259 25.5951C9.7017 25.4625 8.93477 25.2087 8.33559 24.7734C7.91003 24.4642 7.53578 24.09 7.22659 23.6644C6.79126 23.0652 6.53751 22.2983 6.40487 21.0741C6.27045 19.8333 6.26923 18.2311 6.26923 16C6.26923 13.7689 6.27045 12.1667 6.40487 10.9259C6.53751 9.7017 6.79126 8.93477 7.22659 8.33559C7.53578 7.91003 7.91003 7.53578 8.33559 7.22659Z" fill="#505050"/>
</svg>
