<svg width="32" height="32" viewBox="0 0 32 32" fill="none" xmlns="http://www.w3.org/2000/svg">
<path fill-rule="evenodd" clip-rule="evenodd" d="M15.1746 3C8.45075 3 3 8.33036 3 14.9057C3 21.481 8.45075 26.8114 15.1746 26.8114C18.0504 26.8114 20.6933 25.8363 22.7764 24.2058L26.7336 28.0655L26.8389 28.1542C27.2063 28.42 27.7271 28.3898 28.0596 28.0638C28.4253 27.7053 28.4245 27.1248 28.0579 26.7672L24.1472 22.9528C26.1355 20.8338 27.3492 18.0083 27.3492 14.9057C27.3492 8.33036 21.8984 3 15.1746 3ZM15.1745 4.8338C20.8627 4.8338 25.4739 9.34314 25.4739 14.9057C25.4739 20.4682 20.8627 24.9776 15.1745 24.9776C9.48636 24.9776 4.87518 20.4682 4.87518 14.9057C4.87518 9.34314 9.48636 4.8338 15.1745 4.8338Z" fill="#505050"/>
</svg>
