<svg width="32" height="32" viewBox="0 0 32 32" fill="none" xmlns="http://www.w3.org/2000/svg">
<path d="M20.1736 12.348C21.834 12.348 23.4264 13.0076 24.6005 14.1817C25.7746 15.3558 26.4341 16.9482 26.4341 18.6085V25.9125H22.2605V18.6085C22.2605 18.0551 22.0406 17.5243 21.6492 17.1329C21.2579 16.7416 20.7271 16.5217 20.1736 16.5217C19.6201 16.5217 19.0894 16.7416 18.698 17.1329C18.3066 17.5243 18.0868 18.0551 18.0868 18.6085V25.9125H13.9131V18.6085C13.9131 16.9482 14.5727 15.3558 15.7468 14.1817C16.9208 13.0076 18.5132 12.348 20.1736 12.348V12.348Z" stroke="#505050" stroke-width="1.5" stroke-linecap="round" stroke-linejoin="round"/>
<path d="M9.73936 13.3915H5.56567V25.9125H9.73936V13.3915Z" stroke="#505050" stroke-width="1.5" stroke-linecap="round" stroke-linejoin="round"/>
<path d="M7.65252 10.2612C8.80505 10.2612 9.73936 9.32687 9.73936 8.17434C9.73936 7.0218 8.80505 6.08749 7.65252 6.08749C6.49998 6.08749 5.56567 7.0218 5.56567 8.17434C5.56567 9.32687 6.49998 10.2612 7.65252 10.2612Z" stroke="#505050" stroke-width="1.5" stroke-linecap="round" stroke-linejoin="round"/>
</svg>
