<svg width="1036" height="63" viewBox="0 0 1036 63" fill="none" xmlns="http://www.w3.org/2000/svg">
<path d="M402 24.5C402 35.2695 393.27 44 382.5 44C371.731 44 363 35.2695 363 24.5C363 13.7305 371.731 5 382.5 5C393.27 5 402 13.7305 402 24.5Z" stroke="#1E6634" stroke-width="3" stroke-miterlimit="10"/>
<path d="M378 18.5002C378 19.8808 376.657 21 375 21C373.343 21 372 19.8808 372 18.5002C372 17.1196 373.343 16 375 16C376.657 16 378 17.1196 378 18.5002Z" fill="#1E6634"/>
<path d="M393 18.5002C393 19.8808 391.881 21 390.5 21C389.119 21 388 19.8808 388 18.5002C388 17.1196 389.119 16 390.5 16C391.881 16 393 17.1196 393 18.5002Z" fill="#1E6634"/>
<path d="M383.565 38H382.435C378.329 38 375 34.7336 375 30.705V29.6163C375 29.2759 375.281 29 375.628 29H390.372C390.719 29 391 29.2759 391 29.6163V30.705C391 34.7336 387.671 38 383.565 38Z" fill="#1E6634"/>
<path d="M368.763 53.1872H366.689V55.3503H369V56H366V50H368.881V50.6497H366.689V52.5461H368.763V53.1872Z" fill="#1E6634"/>
<path d="M370.718 52L371.185 52.8596C371.307 53.0825 371.409 53.2891 371.517 53.5125H371.537C371.646 53.2728 371.754 53.0662 371.862 52.8512L372.323 52H372.966L371.849 53.9341L373 56H372.323L371.842 55.0994C371.713 54.8677 371.605 54.6448 371.49 54.4051H371.476C371.368 54.6448 371.253 54.8598 371.131 55.0994L370.657 56H370L371.165 53.9588L370.054 52H370.718Z" fill="#1E6634"/>
<path d="M377.979 55.7779C377.738 55.8731 377.204 56 376.524 56C374.995 56 374 55.2143 374 54.0394C374 52.8568 375.068 52 376.723 52C377.267 52 377.749 52.1028 378 52.198L377.791 52.7379C377.571 52.6427 377.225 52.5555 376.723 52.5555C375.56 52.5555 374.932 53.2063 374.932 54.0076C374.932 54.8966 375.686 55.4445 376.691 55.4445C377.215 55.4445 377.56 55.3412 377.822 55.2541L377.979 55.7779Z" fill="#1E6634"/>
<path d="M382.204 53.6316C382.213 53.1882 381.988 52.4991 381.061 52.4991C380.227 52.4991 379.862 53.1485 379.796 53.6316H382.204ZM379.787 54.1307C379.806 55.0732 380.518 55.4612 381.342 55.4612C381.932 55.4612 382.288 55.3742 382.597 55.2632L382.738 55.7623C382.447 55.8733 381.951 56 381.229 56C379.834 56 379 55.2239 379 54.0673C379 52.9108 379.806 52 381.126 52C382.607 52 383 53.1008 383 53.806C383 53.9483 382.981 54.0593 382.972 54.1307H379.787Z" fill="#1E6634"/>
<path d="M384 50H385V56H384V50Z" fill="#1E6634"/>
<path d="M386 50H387V56H386V50Z" fill="#1E6634"/>
<path d="M391.204 53.6316C391.213 53.1882 390.988 52.4991 390.061 52.4991C389.227 52.4991 388.862 53.1485 388.796 53.6316H391.204ZM388.787 54.1307C388.806 55.0732 389.518 55.4612 390.342 55.4612C390.932 55.4612 391.288 55.3742 391.597 55.2632L391.738 55.7623C391.447 55.8733 390.951 56 390.23 56C388.834 56 388 55.2239 388 54.0673C388 52.9108 388.806 52 390.126 52C391.607 52 392 53.1008 392 53.806C392 53.9483 391.981 54.0593 391.972 54.1307H388.787Z" fill="#1E6634"/>
<path d="M393.029 53.1472C393.029 52.7436 393.022 52.4119 393 52.0888H393.563L393.599 52.7354H393.613C393.786 52.3636 394.19 52 394.767 52C395.25 52 396 52.3231 396 53.6646V56H395.365V53.7456C395.365 53.1149 395.156 52.5898 394.558 52.5898C394.139 52.5898 393.815 52.9211 393.707 53.317C393.678 53.4061 393.663 53.5272 393.663 53.6487V56H393.029V53.1472Z" fill="#1E6634"/>
<path d="M398.122 51V52.0978H399V52.6271H398.122V54.6887C398.122 55.1625 398.24 55.4311 398.582 55.4311C398.742 55.4311 398.861 55.4075 398.937 55.3839L398.965 55.9053C398.847 55.9604 398.659 56 398.422 56C398.136 56 397.906 55.8973 397.76 55.7078C397.585 55.5023 397.523 55.1625 397.523 54.7123V52.6271H397V52.0978H397.523V51.1815L398.122 51Z" fill="#1E6634"/>
<path d="M469 24.5C469 35.2695 460.493 44 450 44C439.507 44 431 35.2695 431 24.5C431 13.7305 439.507 5 450 5C460.493 5 469 13.7305 469 24.5Z" stroke="#81CC29" stroke-width="3" stroke-miterlimit="10"/>
<path d="M445 18.5002C445 19.8808 443.881 21 442.5 21C441.12 21 440 19.8808 440 18.5002C440 17.1196 441.12 16 442.5 16C443.881 16 445 17.1196 445 18.5002Z" fill="#81CC29"/>
<path d="M460 18.5002C460 19.8808 458.881 21 457.5 21C456.119 21 455 19.8808 455 18.5002C455 17.1196 456.119 16 457.5 16C458.881 16 460 17.1196 460 18.5002Z" fill="#81CC29"/>
<path d="M460.32 29.2786C461.099 29.7962 461.231 30.8681 460.6 31.5514C458.024 34.3374 454.422 36 450.5 36C446.578 36 442.976 34.3374 440.4 31.5514C439.769 30.8681 439.901 29.7962 440.68 29.2786C440.689 29.2727 440.697 29.2673 440.706 29.2614C441.347 28.8354 442.208 28.9405 442.731 29.5006C446.91 33.9772 454.09 33.9772 458.27 29.5006C458.792 28.9405 459.653 28.8354 460.294 29.2614C460.303 29.2673 460.312 29.2727 460.32 29.2786Z" fill="#81CC29"/>
<path d="M445.5 55.6774C445.147 55.7992 444.451 56 443.628 56C442.706 56 441.946 55.7731 441.35 55.2236C440.825 54.7355 440.5 53.9503 440.5 53.0349C440.509 51.2817 441.757 50 443.8 50C444.505 50 445.057 50.1483 445.319 50.2701L445.129 50.8894C444.804 50.7499 444.397 50.6365 443.782 50.6365C442.299 50.6365 441.332 51.5263 441.332 53C441.332 54.491 442.263 55.3719 443.682 55.3719C444.198 55.3719 444.551 55.3022 444.731 55.2148V53.4621H443.493V52.8517H445.5V55.6774Z" fill="#81CC29"/>
<path d="M447.252 54.008C447.252 54.8458 447.769 55.4783 448.496 55.4783C449.206 55.4783 449.739 54.8538 449.739 53.992C449.739 53.3439 449.392 52.5217 448.512 52.5217C447.633 52.5217 447.252 53.2807 447.252 54.008ZM450.5 53.9684C450.5 55.3835 449.451 56 448.462 56C447.354 56 446.5 55.241 446.5 54.0316C446.5 52.7509 447.396 52 448.53 52C449.705 52 450.5 52.7986 450.5 53.9684Z" fill="#81CC29"/>
<path d="M452.252 54.008C452.252 54.8458 452.769 55.4783 453.496 55.4783C454.206 55.4783 454.739 54.8538 454.739 53.992C454.739 53.3439 454.392 52.5217 453.512 52.5217C452.633 52.5217 452.252 53.2807 452.252 54.008ZM455.5 53.9684C455.5 55.3835 454.451 56 453.462 56C452.354 56 451.5 55.241 451.5 54.0316C451.5 52.7509 452.396 52 453.53 52C454.705 52 455.5 52.7986 455.5 53.9684Z" fill="#81CC29"/>
<path d="M458.896 53.5201C458.896 53.4283 458.889 53.3037 458.87 53.2123C458.784 52.746 458.469 52.3632 458.036 52.3632C457.439 52.3632 457.084 53.0291 457.084 53.9194C457.084 54.7348 457.399 55.4091 458.023 55.4091C458.41 55.4091 458.765 55.0844 458.87 54.5352C458.889 54.4353 458.896 54.3355 458.896 54.2189V53.5201ZM459.474 50V54.8683C459.474 55.2259 459.48 55.6336 459.5 55.9082H458.981L458.955 55.2095H458.942C458.765 55.6589 458.377 56 457.859 56C457.091 56 456.5 55.1762 456.5 53.9527C456.493 52.6129 457.15 51.7891 457.924 51.7891C458.41 51.7891 458.739 52.0802 458.883 52.4049H458.896V50H459.474Z" fill="#81CC29"/>
<path d="M537 24.5C537 35.2695 528.269 44 517.5 44C506.731 44 498 35.2695 498 24.5C498 13.7305 506.731 5 517.5 5C528.269 5 537 13.7305 537 24.5Z" stroke="#F9A72D" stroke-width="3" stroke-miterlimit="10"/>
<path d="M513 18.5002C513 19.8808 511.881 21 510.5 21C509.119 21 508 19.8808 508 18.5002C508 17.1196 509.119 16 510.5 16C511.881 16 513 17.1196 513 18.5002Z" fill="#F9A72D"/>
<path d="M528 18.5002C528 19.8808 526.881 21 525.5 21C524.119 21 523 19.8808 523 18.5002C523 17.1196 524.119 16 525.5 16C526.881 16 528 17.1196 528 18.5002Z" fill="#F9A72D"/>
<path d="M524.662 34H511.338C510.599 34 510 33.5839 510 33.0708V32.9295C510 32.4161 510.599 32 511.338 32H524.662C525.401 32 526 32.4161 526 32.9295V33.0708C526 33.5839 525.401 34 524.662 34Z" fill="#F9A72D"/>
<path d="M507.111 54.3652C507.067 53.5285 507.015 52.5224 507.023 51.7745H506.997C506.797 52.4778 506.552 53.2257 506.256 54.0534L505.218 56.9644H504.642L503.692 54.107C503.412 53.2613 503.177 52.4868 503.011 51.7745H502.994C502.976 52.5224 502.933 53.5285 502.881 54.4273L502.723 57H502L502.41 51H503.378L504.381 53.902C504.625 54.6409 504.825 55.3001 504.974 55.9232H505C505.148 55.3176 505.358 54.6589 505.619 53.902L506.666 51H507.634L508 57H507.259L507.111 54.3652Z" fill="#F9A72D"/>
<path d="M512.204 54.0395C512.213 53.4853 511.988 52.6239 511.061 52.6239C510.227 52.6239 509.862 53.4357 509.796 54.0395H512.204ZM509.787 54.6634C509.805 55.8415 510.518 56.3265 511.342 56.3265C511.932 56.3265 512.288 56.2178 512.597 56.0795L512.738 56.7028C512.447 56.8417 511.951 57 511.23 57C509.833 57 509 56.0299 509 54.5842C509 53.1385 509.805 52 511.126 52C512.606 52 513 53.376 513 54.2575C513 54.4359 512.981 54.5742 512.972 54.6634H509.787Z" fill="#F9A72D"/>
<path d="M517.993 54.1068C517.993 53.9997 517.983 53.8543 517.95 53.7477C517.808 53.2037 517.282 52.7571 516.56 52.7571C515.564 52.7571 514.974 53.5339 514.974 54.5727C514.974 55.5244 515.499 56.3106 516.539 56.3106C517.184 56.3106 517.775 55.9318 517.95 55.291C517.983 55.1746 517.993 55.0581 517.993 54.922V54.1068ZM518.956 50V55.6797C518.956 56.0969 518.967 56.5725 519 56.8929H518.136L518.092 56.0777H518.07C517.775 56.602 517.129 57 516.265 57C514.985 57 514 56.0389 514 54.6115C513.989 53.0484 515.083 52.0873 516.374 52.0873C517.184 52.0873 517.731 52.4273 517.972 52.8057H517.993V50H518.956Z" fill="#F9A72D"/>
<path d="M520.101 57V52.6978H520.908V57H520.101ZM521 51.489C521.009 51.7558 520.807 51.969 520.486 51.969C520.202 51.969 520 51.7558 520 51.489C520 51.2137 520.211 51 520.504 51C520.807 51 521 51.2137 521 51.489Z" fill="#F9A72D"/>
<path d="M525.961 55.5554C525.961 56.0604 525.971 56.5052 526 56.8886H525.243L525.194 56.0911H525.175C524.951 56.4847 524.456 57 523.621 57C522.884 57 522 56.5757 522 54.8586V52H522.854V54.7073C522.854 55.6361 523.126 56.2623 523.903 56.2623C524.476 56.2623 524.874 55.8483 525.029 55.4547C525.078 55.3233 525.107 55.1617 525.107 55.0002V52H525.961V55.5554Z" fill="#F9A72D"/>
<path d="M527.035 54.1476C527.035 53.7436 527.026 53.4123 527 53.0888H527.665L527.699 53.719H527.725C527.959 53.3476 528.347 53 529.037 53C529.607 53 530.039 53.3231 530.22 53.784H530.237C530.367 53.5656 530.531 53.3959 530.704 53.2748C530.954 53.0969 531.23 53 531.627 53C532.18 53 533 53.3395 533 54.6969V57H532.257V54.7861C532.257 54.0344 531.964 53.582 531.351 53.582C530.919 53.582 530.583 53.881 530.453 54.2282C530.419 54.3252 530.393 54.4548 530.393 54.584V57H529.65V54.6564C529.65 54.0344 529.357 53.582 528.779 53.582C528.304 53.582 527.959 53.9374 527.838 54.2928C527.794 54.398 527.777 54.5194 527.777 54.6405V57H527.035V54.1476Z" fill="#F9A72D"/>
<path d="M606 24.5C606 35.2695 597.046 44 586 44C574.954 44 566 35.2695 566 24.5C566 13.7305 574.954 5 586 5C597.046 5 606 13.7305 606 24.5Z" stroke="#E13561" stroke-width="3" stroke-miterlimit="10"/>
<path d="M581 18.5002C581 19.8808 579.657 21 578 21C576.343 21 575 19.8808 575 18.5002C575 17.1196 576.343 16 578 16C579.657 16 581 17.1196 581 18.5002Z" fill="#E13561"/>
<path d="M597 18.5002C597 19.8808 595.657 21 594 21C592.343 21 591 19.8808 591 18.5002C591 17.1196 592.343 16 594 16C595.657 16 597 17.1196 597 18.5002Z" fill="#E13561"/>
<path d="M576.68 34.7214C575.901 34.2038 575.769 33.1319 576.4 32.4486C578.976 29.6626 582.578 28 586.5 28C590.422 28 594.024 29.6626 596.6 32.4486C597.231 33.1319 597.099 34.2038 596.32 34.7214C596.311 34.7273 596.303 34.7327 596.294 34.7386C595.653 35.1646 594.792 35.0595 594.269 34.4994C590.09 30.0232 582.91 30.0228 578.73 34.4994C578.208 35.0595 577.347 35.1646 576.706 34.7386C576.697 34.7327 576.688 34.7273 576.68 34.7214Z" fill="#E13561"/>
<path d="M578.339 53.9868C578.522 54.0311 578.753 54.0485 579.032 54.0485C580.045 54.0485 580.661 53.5982 580.661 52.7763C580.661 51.9896 580.054 51.61 579.129 51.61C578.763 51.61 578.483 51.6364 578.339 51.6717V53.9868ZM577.5 51.1149C577.904 51.0532 578.435 51 579.109 51C579.939 51 580.546 51.1771 580.932 51.495C581.288 51.7777 581.5 52.2106 581.5 52.7409C581.5 53.2798 581.327 53.7042 580.999 54.0132C580.555 54.4461 579.832 54.667 579.013 54.667C578.763 54.667 578.531 54.6585 578.339 54.6142V57H577.5V51.1149Z" fill="#E13561"/>
<path d="M583.253 54.51C583.253 55.5572 583.769 56.3479 584.496 56.3479C585.206 56.3479 585.739 55.5672 585.739 54.49C585.739 53.6798 585.392 52.6521 584.513 52.6521C583.633 52.6521 583.253 53.6008 583.253 54.51ZM586.5 54.4605C586.5 56.2293 585.451 57 584.462 57C583.354 57 582.5 56.0513 582.5 54.5395C582.5 52.9387 583.397 52 584.53 52C585.705 52 586.5 52.9982 586.5 54.4605Z" fill="#E13561"/>
<path d="M588.253 54.51C588.253 55.5572 588.769 56.3479 589.496 56.3479C590.206 56.3479 590.739 55.5672 590.739 54.49C590.739 53.6798 590.392 52.6521 589.513 52.6521C588.633 52.6521 588.253 53.6008 588.253 54.51ZM591.5 54.4605C591.5 56.2293 590.451 57 589.462 57C588.354 57 587.5 56.0513 587.5 54.5395C587.5 52.9387 588.397 52 589.53 52C590.705 52 591.5 52.9982 591.5 54.4605Z" fill="#E13561"/>
<path d="M592.533 53.6363C592.533 53.0607 592.525 52.5659 592.5 52.1109H593.134L593.159 53.0704H593.192C593.372 52.4141 593.809 52 594.294 52C594.377 52 594.434 52.0102 594.5 52.0302V52.8685C594.426 52.8486 594.352 52.8384 594.253 52.8384C593.743 52.8384 593.381 53.3133 593.282 53.9799C593.265 54.101 593.249 54.2421 593.249 54.3939V57H592.533V53.6363Z" fill="#E13561"/>
<path d="M674 24.5C674 35.2695 665.269 44 654.5 44C643.73 44 635 35.2695 635 24.5C635 13.7305 643.73 5 654.5 5C665.269 5 674 13.7305 674 24.5Z" stroke="#BE1C2D" stroke-width="3" stroke-miterlimit="10"/>
<path d="M649 18.5002C649 19.8808 647.881 21 646.5 21C645.119 21 644 19.8808 644 18.5002C644 17.1196 645.119 16 646.5 16C647.881 16 649 17.1196 649 18.5002Z" fill="#BE1C2D"/>
<path d="M665 18.5002C665 19.8808 663.657 21 662 21C660.343 21 659 19.8808 659 18.5002C659 17.1196 660.343 16 662 16C663.657 16 665 17.1196 665 18.5002Z" fill="#BE1C2D"/>
<path d="M653.97 25H655.03C658.879 25 662 28.2661 662 32.2949V33.3836C662 33.7241 661.736 34 661.411 34H647.589C647.264 34 647 33.7241 647 33.3836V32.2949C647 28.2661 650.121 25 653.97 25Z" fill="#BE1C2D"/>
<path d="M642.975 56L641 50H641.844L642.786 52.9556C643.046 53.7657 643.271 54.4956 643.433 55.1989H643.451C643.621 54.5046 643.872 53.7477 644.142 52.9646L645.165 50H646L643.836 56H642.975Z" fill="#BE1C2D"/>
<path d="M650.505 53.6316C650.517 53.1882 650.235 52.4991 649.076 52.4991C648.034 52.4991 647.577 53.1485 647.495 53.6316H650.505ZM647.483 54.1307C647.507 55.0732 648.397 55.4612 649.427 55.4612C650.165 55.4612 650.61 55.3742 650.997 55.2632L651.172 55.7623C650.81 55.8733 650.188 56 649.287 56C647.542 56 646.5 55.2239 646.5 54.0673C646.5 52.9108 647.507 52 649.158 52C651.009 52 651.5 53.1008 651.5 53.806C651.5 53.9483 651.477 54.0593 651.465 54.1307H647.483Z" fill="#BE1C2D"/>
<path d="M652.033 53.3092C652.033 52.8483 652.025 52.4524 652 52.0888H652.634L652.658 52.8564H652.691C652.872 52.3313 653.308 52 653.794 52C653.877 52 653.934 52.0082 654 52.0241V52.6949C653.926 52.6785 653.852 52.6708 653.753 52.6708C653.243 52.6708 652.881 53.0503 652.782 53.5836C652.765 53.681 652.749 53.7939 652.749 53.9153V56H652.033V53.3092Z" fill="#BE1C2D"/>
<path d="M655.344 52L656.276 54.434C656.372 54.7062 656.478 55.0297 656.548 55.2765H656.566C656.645 55.0297 656.733 54.7149 656.838 54.4172L657.682 52H658.5L657.34 54.9363C656.786 56.349 656.407 57.0722 655.88 57.515C655.502 57.8385 655.124 57.966 654.931 58L654.737 57.3703C654.931 57.3108 655.186 57.1915 655.414 57.0042C655.625 56.8426 655.889 56.5532 656.065 56.1703C656.1 56.0936 656.126 56.0342 656.126 55.9915C656.126 55.9489 656.109 55.8894 656.074 55.796L654.5 52H655.344Z" fill="#BE1C2D"/>
<path d="M661.819 55.3692C661.979 55.3953 662.214 55.4042 662.506 55.4042C663.353 55.4042 664.134 55.1152 664.134 54.257C664.134 53.4511 663.391 53.1181 662.497 53.1181H661.819V55.3692ZM661.819 52.5401H662.562C663.428 52.5401 663.937 52.1198 663.937 51.5502C663.937 50.8587 663.372 50.5869 662.543 50.5869C662.167 50.5869 661.951 50.6131 661.819 50.6397V52.5401ZM661 50.1228C661.358 50.0528 661.922 50 662.497 50C663.316 50 663.842 50.1317 664.238 50.4291C664.567 50.657 664.765 51.0072 664.765 51.4717C664.765 52.0409 664.36 52.5401 663.692 52.7679V52.7852C664.294 52.9257 665 53.3899 665 54.2658C665 54.7738 664.784 55.1591 664.464 55.4481C664.022 55.8249 663.306 56 662.27 56C661.706 56 661.273 55.965 661 55.93V50.1228Z" fill="#BE1C2D"/>
<path d="M668.277 53.9604C667.531 53.9444 666.684 54.0788 666.684 54.8222C666.684 55.2727 666.979 55.4859 667.329 55.4859C667.819 55.4859 668.129 55.1698 668.238 54.8458C668.262 54.7746 668.277 54.6953 668.277 54.6245V53.9604ZM668.378 55.9128L668.324 55.4307H668.301C668.091 55.7311 667.686 56 667.15 56C666.388 56 666 55.4543 666 54.901C666 53.976 666.808 53.4703 668.262 53.4783V53.3991C668.262 53.083 668.176 52.5137 667.407 52.5137C667.057 52.5137 666.692 52.6245 666.427 52.7982L666.272 52.3397C666.583 52.1344 667.033 52 667.508 52C668.658 52 668.938 52.7982 668.938 53.5651V54.9958C668.938 55.3279 668.954 55.6519 669 55.9128H668.378Z" fill="#BE1C2D"/>
<path d="M673.195 53.5201C673.195 53.4283 673.186 53.3037 673.16 53.2123C673.046 52.746 672.626 52.3632 672.048 52.3632C671.252 52.3632 670.779 53.0291 670.779 53.9194C670.779 54.7348 671.199 55.4091 672.031 55.4091C672.547 55.4091 673.02 55.0844 673.16 54.5352C673.186 54.4353 673.195 54.3355 673.195 54.2189V53.5201ZM673.965 50V54.8679C673.965 55.2259 673.974 55.6336 674 55.9082H673.309L673.274 55.2095H673.256C673.02 55.6589 672.503 56 671.812 56C670.788 56 670 55.1762 670 53.9527C669.991 52.6129 670.867 51.7891 671.899 51.7891C672.547 51.7891 672.985 52.0802 673.177 52.4049H673.195V50H673.965Z" fill="#BE1C2D"/>
</svg>
