<svg width="3033" height="1024" viewBox="0 0 3033 1024" fill="none" xmlns="http://www.w3.org/2000/svg">
<g clip-path="url(#clip0_2380_14426)">
<path d="M1189.59 134H1175.09L1197.19 70H1214.63L1236.69 134H1222.19L1206.16 84.625H1205.66L1189.59 134ZM1188.69 108.844H1222.94V119.406H1188.69V108.844ZM1259.59 134.781C1255.95 134.781 1252.65 133.844 1249.69 131.969C1246.75 130.073 1244.42 127.292 1242.69 123.625C1240.98 119.937 1240.13 115.417 1240.13 110.062C1240.13 104.562 1241.01 99.9896 1242.78 96.3437C1244.55 92.6771 1246.91 89.9375 1249.84 88.125C1252.8 86.2917 1256.04 85.375 1259.56 85.375C1262.25 85.375 1264.49 85.8333 1266.28 86.75C1268.09 87.6458 1269.55 88.7708 1270.66 90.125C1271.78 91.4583 1272.64 92.7708 1273.22 94.0625H1273.63V70H1286.91V134H1273.78V126.312H1273.22C1272.59 127.646 1271.71 128.969 1270.56 130.281C1269.44 131.573 1267.97 132.646 1266.16 133.5C1264.36 134.354 1262.18 134.781 1259.59 134.781ZM1263.81 124.187C1265.96 124.187 1267.77 123.604 1269.25 122.437C1270.75 121.25 1271.9 119.594 1272.69 117.469C1273.5 115.344 1273.91 112.854 1273.91 110C1273.91 107.146 1273.51 104.667 1272.72 102.562C1271.93 100.458 1270.78 98.8333 1269.28 97.6875C1267.78 96.5417 1265.96 95.9687 1263.81 95.9687C1261.63 95.9687 1259.78 96.5625 1258.28 97.75C1256.78 98.9375 1255.65 100.583 1254.88 102.687C1254.1 104.792 1253.72 107.229 1253.72 110C1253.72 112.792 1254.1 115.26 1254.88 117.406C1255.67 119.531 1256.8 121.198 1258.28 122.406C1259.78 123.594 1261.63 124.187 1263.81 124.187ZM1315.54 134.781C1311.89 134.781 1308.59 133.844 1305.63 131.969C1302.7 130.073 1300.36 127.292 1298.63 123.625C1296.92 119.937 1296.07 115.417 1296.07 110.062C1296.07 104.562 1296.96 99.9896 1298.73 96.3437C1300.5 92.6771 1302.85 89.9375 1305.79 88.125C1308.75 86.2917 1311.99 85.375 1315.51 85.375C1318.2 85.375 1320.43 85.8333 1322.23 86.75C1324.04 87.6458 1325.5 88.7708 1326.6 90.125C1327.73 91.4583 1328.58 92.7708 1329.16 94.0625H1329.57V70H1342.85V134H1329.73V126.312H1329.16C1328.54 127.646 1327.65 128.969 1326.51 130.281C1325.38 131.573 1323.91 132.646 1322.1 133.5C1320.31 134.354 1318.12 134.781 1315.54 134.781ZM1319.76 124.187C1321.9 124.187 1323.72 123.604 1325.2 122.437C1326.7 121.25 1327.84 119.594 1328.63 117.469C1329.45 115.344 1329.85 112.854 1329.85 110C1329.85 107.146 1329.46 104.667 1328.66 102.562C1327.87 100.458 1326.73 98.8333 1325.23 97.6875C1323.73 96.5417 1321.9 95.9687 1319.76 95.9687C1317.57 95.9687 1315.73 96.5625 1314.23 97.75C1312.73 98.9375 1311.59 100.583 1310.82 102.687C1310.05 104.792 1309.66 107.229 1309.66 110C1309.66 112.792 1310.05 115.26 1310.82 117.406C1311.61 119.531 1312.75 121.198 1314.23 122.406C1315.73 123.594 1317.57 124.187 1319.76 124.187ZM1395.85 134.938C1390.93 134.938 1386.71 133.896 1383.16 131.812C1379.64 129.708 1376.93 126.792 1375.04 123.062C1373.16 119.333 1372.23 115.042 1372.23 110.187C1372.23 105.271 1373.17 100.958 1375.07 97.25C1376.99 93.5208 1379.71 90.6146 1383.23 88.5312C1386.75 86.4271 1390.93 85.375 1395.79 85.375C1399.98 85.375 1403.64 86.1354 1406.79 87.6562C1409.93 89.1771 1412.42 91.3125 1414.26 94.0625C1416.09 96.8125 1417.1 100.042 1417.29 103.75H1404.73C1404.37 101.354 1403.43 99.4271 1401.91 97.9687C1400.41 96.4896 1398.45 95.75 1396.01 95.75C1393.95 95.75 1392.14 96.3125 1390.6 97.4375C1389.08 98.5417 1387.89 100.156 1387.04 102.281C1386.18 104.406 1385.76 106.979 1385.76 110C1385.76 113.062 1386.17 115.667 1387.01 117.812C1387.86 119.958 1389.06 121.594 1390.6 122.719C1392.14 123.844 1393.95 124.406 1396.01 124.406C1397.53 124.406 1398.89 124.094 1400.1 123.469C1401.33 122.844 1402.34 121.937 1403.13 120.75C1403.95 119.542 1404.48 118.094 1404.73 116.406H1417.29C1417.08 120.073 1416.08 123.302 1414.29 126.094C1412.52 128.865 1410.07 131.031 1406.95 132.594C1403.82 134.156 1400.12 134.938 1395.85 134.938ZM1439.13 70V134H1425.81V70H1439.13ZM1449.79 134V86H1463.1V134H1449.79ZM1456.48 79.8125C1454.5 79.8125 1452.8 79.1562 1451.38 77.8437C1449.99 76.5104 1449.29 74.9167 1449.29 73.0625C1449.29 71.2292 1449.99 69.6562 1451.38 68.3438C1452.8 67.0104 1454.5 66.3437 1456.48 66.3437C1458.46 66.3437 1460.14 67.0104 1461.54 68.3438C1462.96 69.6562 1463.66 71.2292 1463.66 73.0625C1463.66 74.9167 1462.96 76.5104 1461.54 77.8437C1460.14 79.1562 1458.46 79.8125 1456.48 79.8125ZM1495.64 134.938C1490.7 134.938 1486.45 133.938 1482.89 131.938C1479.35 129.917 1476.62 127.062 1474.7 123.375C1472.79 119.667 1471.83 115.281 1471.83 110.219C1471.83 105.281 1472.79 100.948 1474.7 97.2188C1476.62 93.4896 1479.32 90.5833 1482.8 88.5C1486.3 86.4167 1490.4 85.375 1495.11 85.375C1498.28 85.375 1501.22 85.8854 1503.95 86.9062C1506.7 87.9062 1509.1 89.4167 1511.14 91.4375C1513.2 93.4583 1514.81 96 1515.95 99.0625C1517.1 102.104 1517.67 105.667 1517.67 109.75V113.406H1477.14V105.156H1505.14C1505.14 103.24 1504.72 101.542 1503.89 100.063C1503.06 98.5833 1501.9 97.4271 1500.42 96.5937C1498.96 95.7396 1497.27 95.3125 1495.33 95.3125C1493.31 95.3125 1491.52 95.7812 1489.95 96.7187C1488.41 97.6354 1487.2 98.875 1486.33 100.437C1485.45 101.979 1485.01 103.698 1484.98 105.594V113.437C1484.98 115.812 1485.42 117.865 1486.3 119.594C1487.19 121.323 1488.45 122.656 1490.08 123.594C1491.7 124.531 1493.63 125 1495.86 125C1497.34 125 1498.69 124.792 1499.92 124.375C1501.15 123.958 1502.2 123.333 1503.08 122.5C1503.95 121.667 1504.62 120.646 1505.08 119.438L1517.39 120.25C1516.77 123.208 1515.48 125.792 1513.55 128C1511.63 130.187 1509.15 131.896 1506.11 133.125C1503.09 134.333 1499.6 134.938 1495.64 134.938ZM1539.67 106.25V134H1526.36V86H1539.05V94.4688H1539.61C1540.67 91.6771 1542.45 89.4687 1544.95 87.8437C1547.45 86.1979 1550.48 85.375 1554.05 85.375C1557.38 85.375 1560.29 86.1042 1562.77 87.5625C1565.24 89.0208 1567.17 91.1042 1568.55 93.8125C1569.92 96.5 1570.61 99.7083 1570.61 103.437V134H1557.3V105.812C1557.32 102.875 1556.57 100.583 1555.05 98.9375C1553.53 97.2708 1551.43 96.4375 1548.77 96.4375C1546.97 96.4375 1545.39 96.8229 1544.02 97.5937C1542.66 98.3646 1541.6 99.4896 1540.83 100.969C1540.08 102.427 1539.69 104.188 1539.67 106.25ZM1606.63 86V96H1577.73V86H1606.63ZM1584.29 74.5H1597.6V119.25C1597.6 120.479 1597.79 121.437 1598.16 122.125C1598.54 122.792 1599.06 123.26 1599.73 123.531C1600.41 123.802 1601.21 123.937 1602.1 123.937C1602.73 123.937 1603.35 123.885 1603.98 123.781C1604.6 123.656 1605.08 123.562 1605.41 123.5L1607.51 133.406C1606.84 133.615 1605.9 133.854 1604.7 134.125C1603.49 134.417 1602.02 134.594 1600.29 134.656C1597.08 134.781 1594.27 134.354 1591.85 133.375C1589.46 132.396 1587.59 130.875 1586.26 128.812C1584.92 126.75 1584.27 124.146 1584.29 121V74.5ZM1655.3 134.938C1650.88 134.938 1647.07 134.146 1643.86 132.562C1640.65 130.979 1638.18 128.833 1636.45 126.125C1634.74 123.396 1633.89 120.354 1633.89 117C1633.89 114.5 1634.39 112.281 1635.39 110.344C1636.39 108.406 1637.79 106.625 1639.58 105C1641.37 103.354 1643.45 101.719 1645.83 100.094L1658.23 91.9375C1659.84 90.9167 1661.02 89.8437 1661.77 88.7187C1662.52 87.5729 1662.89 86.3333 1662.89 85C1662.89 83.7292 1662.38 82.5521 1661.36 81.4687C1660.34 80.3854 1658.89 79.8542 1657.02 79.875C1655.77 79.875 1654.68 80.1563 1653.77 80.7188C1652.85 81.2604 1652.13 81.9792 1651.61 82.875C1651.11 83.75 1650.86 84.7292 1650.86 85.8125C1650.86 87.1458 1651.23 88.5 1651.98 89.875C1652.73 91.25 1653.73 92.7083 1654.98 94.25C1656.23 95.7708 1657.6 97.4167 1659.08 99.1875L1689.42 134H1675.55L1650.23 105.812C1648.57 103.917 1646.9 101.937 1645.23 99.875C1643.59 97.7917 1642.21 95.5833 1641.11 93.25C1640.01 90.8958 1639.45 88.3437 1639.45 85.5937C1639.45 82.4896 1640.17 79.6979 1641.61 77.2187C1643.07 74.7396 1645.11 72.7812 1647.73 71.3437C1650.36 69.8854 1653.42 69.1562 1656.92 69.1562C1660.34 69.1562 1663.29 69.8542 1665.77 71.25C1668.27 72.625 1670.18 74.4583 1671.52 76.75C1672.87 79.0208 1673.55 81.5208 1673.55 84.25C1673.55 87.2708 1672.8 90.0104 1671.3 92.4687C1669.82 94.9062 1667.73 97.0937 1665.05 99.0313L1651.98 108.437C1650.21 109.729 1648.9 111.052 1648.05 112.406C1647.21 113.74 1646.8 115.021 1646.8 116.25C1646.8 117.771 1647.17 119.135 1647.92 120.344C1648.67 121.552 1649.73 122.51 1651.11 123.219C1652.48 123.906 1654.1 124.25 1655.95 124.25C1658.2 124.25 1660.42 123.74 1662.61 122.719C1664.82 121.677 1666.82 120.208 1668.61 118.312C1670.42 116.396 1671.87 114.125 1672.95 111.5C1674.04 108.875 1674.58 105.969 1674.58 102.781H1685.61C1685.61 106.698 1685.18 110.229 1684.33 113.375C1683.47 116.5 1682.29 119.229 1680.77 121.562C1679.24 123.875 1677.51 125.771 1675.55 127.25C1674.92 127.646 1674.32 128.021 1673.73 128.375C1673.15 128.729 1672.55 129.104 1671.92 129.5C1669.55 131.417 1666.89 132.802 1663.95 133.656C1661.04 134.51 1658.15 134.938 1655.3 134.938ZM1715.34 152V86H1728.46V94.0625H1729.05C1729.64 92.7708 1730.48 91.4583 1731.59 90.125C1732.71 88.7708 1734.17 87.6458 1735.96 86.75C1737.77 85.8333 1740.02 85.375 1742.71 85.375C1746.21 85.375 1749.44 86.2917 1752.4 88.125C1755.36 89.9375 1757.72 92.6771 1759.49 96.3437C1761.26 99.9896 1762.15 104.562 1762.15 110.062C1762.15 115.417 1761.28 119.937 1759.55 123.625C1757.85 127.292 1755.51 130.073 1752.55 131.969C1749.62 133.844 1746.33 134.781 1742.68 134.781C1740.1 134.781 1737.9 134.354 1736.09 133.5C1734.29 132.646 1732.83 131.573 1731.68 130.281C1730.53 128.969 1729.66 127.646 1729.05 126.312H1728.65V152H1715.34ZM1728.37 110C1728.37 112.854 1728.76 115.344 1729.55 117.469C1730.35 119.594 1731.49 121.25 1732.99 122.437C1734.49 123.604 1736.32 124.187 1738.46 124.187C1740.63 124.187 1742.46 123.594 1743.96 122.406C1745.46 121.198 1746.6 119.531 1747.37 117.406C1748.16 115.26 1748.55 112.792 1748.55 110C1748.55 107.229 1748.17 104.792 1747.4 102.687C1746.63 100.583 1745.49 98.9375 1743.99 97.75C1742.49 96.5625 1740.65 95.9687 1738.46 95.9687C1736.29 95.9687 1734.46 96.5417 1732.96 97.6875C1731.48 98.8333 1730.35 100.458 1729.55 102.562C1728.76 104.667 1728.37 107.146 1728.37 110ZM1792.9 134.938C1787.96 134.938 1783.71 133.938 1780.15 131.938C1776.61 129.917 1773.88 127.062 1771.96 123.375C1770.04 119.667 1769.09 115.281 1769.09 110.219C1769.09 105.281 1770.04 100.948 1771.96 97.2188C1773.88 93.4896 1776.58 90.5833 1780.05 88.5C1783.55 86.4167 1787.66 85.375 1792.37 85.375C1795.53 85.375 1798.48 85.8854 1801.21 86.9062C1803.96 87.9062 1806.36 89.4167 1808.4 91.4375C1810.46 93.4583 1812.07 96 1813.21 99.0625C1814.36 102.104 1814.93 105.667 1814.93 109.75V113.406H1774.4V105.156H1802.4C1802.4 103.24 1801.98 101.542 1801.15 100.063C1800.32 98.5833 1799.16 97.4271 1797.68 96.5937C1796.22 95.7396 1794.52 95.3125 1792.59 95.3125C1790.57 95.3125 1788.77 95.7812 1787.21 96.7187C1785.67 97.6354 1784.46 98.875 1783.59 100.437C1782.71 101.979 1782.26 103.698 1782.24 105.594V113.437C1782.24 115.812 1782.68 117.865 1783.55 119.594C1784.45 121.323 1785.71 122.656 1787.34 123.594C1788.96 124.531 1790.89 125 1793.12 125C1794.6 125 1795.95 124.792 1797.18 124.375C1798.41 123.958 1799.46 123.333 1800.34 122.5C1801.21 121.667 1801.88 120.646 1802.34 119.438L1814.65 120.25C1814.02 123.208 1812.74 125.792 1810.8 128C1808.89 130.187 1806.41 131.896 1803.37 133.125C1800.35 134.333 1796.86 134.938 1792.9 134.938ZM1849.15 86V96H1820.24V86H1849.15ZM1826.8 74.5H1840.12V119.25C1840.12 120.479 1840.3 121.437 1840.68 122.125C1841.05 122.792 1841.58 123.26 1842.24 123.531C1842.93 123.802 1843.72 123.937 1844.62 123.937C1845.24 123.937 1845.87 123.885 1846.49 123.781C1847.12 123.656 1847.6 123.562 1847.93 123.5L1850.02 133.406C1849.36 133.615 1848.42 133.854 1847.21 134.125C1846 134.417 1844.53 134.594 1842.8 134.656C1839.6 134.781 1836.78 134.354 1834.37 133.375C1831.97 132.396 1830.11 130.875 1828.77 128.812C1827.44 126.75 1826.78 124.146 1826.8 121V74.5Z" fill="#505050"/>
<path d="M129.714 568.609H109.182C108.807 565.953 108.042 563.594 106.885 561.531C105.729 559.437 104.245 557.656 102.432 556.187C100.62 554.719 98.526 553.594 96.151 552.812C93.8073 552.031 91.2604 551.641 88.5104 551.641C83.5416 551.641 79.2135 552.875 75.526 555.344C71.8385 557.781 68.9791 561.344 66.9479 566.031C64.9166 570.687 63.901 576.344 63.901 583C63.901 589.844 64.9166 595.594 66.9479 600.25C69.0104 604.906 71.8854 608.422 75.5729 610.797C79.2604 613.172 83.526 614.359 88.3698 614.359C91.0885 614.359 93.6041 614 95.9166 613.281C98.2604 612.562 100.339 611.516 102.151 610.141C103.964 608.734 105.464 607.031 106.651 605.031C107.87 603.031 108.714 600.75 109.182 598.187L129.714 598.281C129.182 602.687 127.854 606.938 125.729 611.031C123.635 615.094 120.807 618.734 117.245 621.953C113.714 625.141 109.495 627.672 104.589 629.547C99.7135 631.391 94.1979 632.312 88.0416 632.312C79.4791 632.312 71.8229 630.375 65.0729 626.5C58.3541 622.625 53.0416 617.016 49.1354 609.672C45.2604 602.328 43.3229 593.437 43.3229 583C43.3229 572.531 45.2916 563.625 49.2291 556.281C53.1666 548.937 58.5104 543.344 65.2604 539.5C72.0104 535.625 79.6041 533.687 88.0416 533.687C93.6041 533.687 98.7604 534.469 103.51 536.031C108.292 537.594 112.526 539.875 116.214 542.875C119.901 545.844 122.901 549.484 125.214 553.797C127.557 558.109 129.057 563.047 129.714 568.609ZM164.424 632.359C159.831 632.359 155.737 631.563 152.143 629.969C148.549 628.344 145.706 625.953 143.612 622.797C141.549 619.609 140.518 615.641 140.518 610.891C140.518 606.891 141.253 603.531 142.721 600.812C144.19 598.094 146.19 595.906 148.721 594.25C151.253 592.594 154.128 591.344 157.346 590.5C160.596 589.656 164.003 589.062 167.565 588.719C171.753 588.281 175.128 587.875 177.69 587.5C180.253 587.094 182.112 586.5 183.268 585.719C184.424 584.937 185.003 583.781 185.003 582.25V581.969C185.003 579 184.065 576.703 182.19 575.078C180.346 573.453 177.721 572.641 174.315 572.641C170.721 572.641 167.862 573.437 165.737 575.031C163.612 576.594 162.206 578.562 161.518 580.937L143.049 579.438C143.987 575.062 145.831 571.281 148.581 568.094C151.331 564.875 154.878 562.406 159.221 560.687C163.596 558.937 168.659 558.063 174.409 558.063C178.409 558.063 182.237 558.531 185.893 559.469C189.581 560.406 192.846 561.859 195.69 563.828C198.565 565.797 200.831 568.328 202.487 571.422C204.143 574.484 204.971 578.156 204.971 582.437V631H186.034V621.016H185.471C184.315 623.266 182.768 625.25 180.831 626.969C178.893 628.656 176.565 629.984 173.846 630.953C171.128 631.891 167.987 632.359 164.424 632.359ZM170.143 618.578C173.081 618.578 175.674 618 177.924 616.844C180.174 615.656 181.94 614.062 183.221 612.063C184.503 610.062 185.143 607.797 185.143 605.266V597.625C184.518 598.031 183.659 598.406 182.565 598.75C181.503 599.062 180.299 599.359 178.956 599.641C177.612 599.891 176.268 600.125 174.924 600.344C173.581 600.531 172.362 600.703 171.268 600.859C168.924 601.203 166.878 601.75 165.128 602.5C163.378 603.25 162.018 604.266 161.049 605.547C160.081 606.797 159.596 608.359 159.596 610.234C159.596 612.953 160.581 615.031 162.549 616.469C164.549 617.875 167.081 618.578 170.143 618.578ZM240.432 535V631H220.464V535H240.432ZM289.241 632.406C281.835 632.406 275.46 630.906 270.116 627.906C264.803 624.875 260.71 620.594 257.835 615.062C254.96 609.5 253.522 602.922 253.522 595.328C253.522 587.922 254.96 581.422 257.835 575.828C260.71 570.234 264.756 565.875 269.975 562.75C275.225 559.625 281.381 558.063 288.444 558.063C293.194 558.063 297.616 558.828 301.71 560.359C305.835 561.859 309.428 564.125 312.491 567.156C315.585 570.187 317.991 574 319.71 578.594C321.428 583.156 322.288 588.5 322.288 594.625V600.109H261.491V587.734H303.491C303.491 584.859 302.866 582.312 301.616 580.094C300.366 577.875 298.631 576.141 296.413 574.891C294.225 573.609 291.678 572.969 288.772 572.969C285.741 572.969 283.053 573.672 280.71 575.078C278.397 576.453 276.585 578.312 275.272 580.656C273.96 582.969 273.288 585.547 273.256 588.391V600.156C273.256 603.719 273.913 606.797 275.225 609.391C276.569 611.984 278.46 613.984 280.897 615.391C283.335 616.797 286.225 617.5 289.569 617.5C291.788 617.5 293.819 617.187 295.663 616.562C297.506 615.937 299.085 615 300.397 613.75C301.71 612.5 302.71 610.969 303.397 609.156L321.866 610.375C320.928 614.812 319.006 618.687 316.1 622C313.225 625.281 309.506 627.844 304.944 629.688C300.413 631.5 295.178 632.406 289.241 632.406ZM355.288 589.375V631H335.319V559H354.35V571.703H355.194C356.788 567.516 359.46 564.203 363.21 561.766C366.96 559.297 371.506 558.063 376.85 558.063C381.85 558.063 386.21 559.156 389.928 561.344C393.647 563.531 396.538 566.656 398.6 570.719C400.663 574.75 401.694 579.562 401.694 585.156V631H381.725V588.719C381.756 584.312 380.631 580.875 378.35 578.406C376.069 575.906 372.928 574.656 368.928 574.656C366.241 574.656 363.866 575.234 361.803 576.391C359.772 577.547 358.178 579.234 357.022 581.453C355.897 583.641 355.319 586.281 355.288 589.375ZM443.964 632.172C438.495 632.172 433.542 630.766 429.104 627.953C424.698 625.109 421.198 620.937 418.604 615.437C416.042 609.906 414.76 603.125 414.76 595.094C414.76 586.844 416.089 579.984 418.745 574.516C421.401 569.016 424.932 564.906 429.339 562.188C433.776 559.438 438.635 558.063 443.917 558.063C447.948 558.063 451.307 558.75 453.995 560.125C456.714 561.469 458.901 563.156 460.557 565.187C462.245 567.187 463.526 569.156 464.401 571.094H465.01V535H484.932V631H465.245V619.469H464.401C463.464 621.469 462.135 623.453 460.417 625.422C458.729 627.359 456.526 628.969 453.807 630.25C451.12 631.531 447.839 632.172 443.964 632.172ZM450.292 616.281C453.51 616.281 456.229 615.406 458.448 613.656C460.698 611.875 462.417 609.391 463.604 606.203C464.823 603.016 465.432 599.281 465.432 595C465.432 590.719 464.839 587 463.651 583.844C462.464 580.687 460.745 578.25 458.495 576.531C456.245 574.812 453.51 573.953 450.292 573.953C447.01 573.953 444.245 574.844 441.995 576.625C439.745 578.406 438.042 580.875 436.885 584.031C435.729 587.187 435.151 590.844 435.151 595C435.151 599.187 435.729 602.891 436.885 606.109C438.073 609.297 439.776 611.797 441.995 613.609C444.245 615.391 447.01 616.281 450.292 616.281ZM521.881 632.359C517.288 632.359 513.194 631.563 509.6 629.969C506.006 628.344 503.163 625.953 501.069 622.797C499.006 619.609 497.975 615.641 497.975 610.891C497.975 606.891 498.71 603.531 500.178 600.812C501.647 598.094 503.647 595.906 506.178 594.25C508.71 592.594 511.585 591.344 514.803 590.5C518.053 589.656 521.46 589.062 525.022 588.719C529.21 588.281 532.585 587.875 535.147 587.5C537.71 587.094 539.569 586.5 540.725 585.719C541.881 584.937 542.46 583.781 542.46 582.25V581.969C542.46 579 541.522 576.703 539.647 575.078C537.803 573.453 535.178 572.641 531.772 572.641C528.178 572.641 525.319 573.437 523.194 575.031C521.069 576.594 519.663 578.562 518.975 580.937L500.506 579.438C501.444 575.062 503.288 571.281 506.038 568.094C508.788 564.875 512.335 562.406 516.678 560.687C521.053 558.937 526.116 558.063 531.866 558.063C535.866 558.063 539.694 558.531 543.35 559.469C547.038 560.406 550.303 561.859 553.147 563.828C556.022 565.797 558.288 568.328 559.944 571.422C561.6 574.484 562.428 578.156 562.428 582.437V631H543.491V621.016H542.928C541.772 623.266 540.225 625.25 538.288 626.969C536.35 628.656 534.022 629.984 531.303 630.953C528.585 631.891 525.444 632.359 521.881 632.359ZM527.6 618.578C530.538 618.578 533.131 618 535.381 616.844C537.631 615.656 539.397 614.062 540.678 612.063C541.96 610.062 542.6 607.797 542.6 605.266V597.625C541.975 598.031 541.116 598.406 540.022 598.75C538.96 599.062 537.756 599.359 536.413 599.641C535.069 599.891 533.725 600.125 532.381 600.344C531.038 600.531 529.819 600.703 528.725 600.859C526.381 601.203 524.335 601.75 522.585 602.5C520.835 603.25 519.475 604.266 518.506 605.547C517.538 606.797 517.053 608.359 517.053 610.234C517.053 612.953 518.038 615.031 520.006 616.469C522.006 617.875 524.538 618.578 527.6 618.578ZM577.921 631V559H597.28V571.562H598.03C599.342 567.094 601.546 563.719 604.639 561.438C607.733 559.125 611.296 557.969 615.327 557.969C616.327 557.969 617.405 558.031 618.561 558.156C619.717 558.281 620.733 558.453 621.608 558.672V576.391C620.671 576.109 619.374 575.859 617.717 575.641C616.061 575.422 614.546 575.312 613.171 575.312C610.233 575.312 607.608 575.953 605.296 577.234C603.014 578.484 601.202 580.234 599.858 582.484C598.546 584.734 597.889 587.328 597.889 590.266V631H577.921Z" fill="#505050"/>
<path d="M756.333 580C754.676 580 753.333 581.343 753.333 583C753.333 584.657 754.676 586 756.333 586V580ZM1071.95 585.121C1073.13 583.95 1073.13 582.05 1071.95 580.879L1052.86 561.787C1051.69 560.615 1049.79 560.615 1048.62 561.787C1047.45 562.958 1047.45 564.858 1048.62 566.029L1065.59 583L1048.62 599.971C1047.45 601.142 1047.45 603.042 1048.62 604.213C1049.79 605.385 1051.69 605.385 1052.86 604.213L1071.95 585.121ZM756.333 586H1069.83V580H756.333V586Z" fill="#505050"/>
<path d="M1239.84 631V535H1278.28C1285.34 535 1291.23 536.047 1295.95 538.141C1300.67 540.234 1304.22 543.141 1306.59 546.859C1308.97 550.547 1310.16 554.797 1310.16 559.609C1310.16 563.359 1309.41 566.656 1307.91 569.5C1306.41 572.312 1304.34 574.625 1301.72 576.437C1299.12 578.219 1296.16 579.484 1292.81 580.234V581.172C1296.47 581.328 1299.89 582.359 1303.08 584.266C1306.3 586.172 1308.91 588.844 1310.91 592.281C1312.91 595.687 1313.91 599.75 1313.91 604.469C1313.91 609.562 1312.64 614.109 1310.11 618.109C1307.61 622.078 1303.91 625.219 1299 627.531C1294.09 629.844 1288.05 631 1280.86 631H1239.84ZM1260.14 614.406H1276.69C1282.34 614.406 1286.47 613.328 1289.06 611.172C1291.66 608.984 1292.95 606.078 1292.95 602.453C1292.95 599.797 1292.31 597.453 1291.03 595.422C1289.75 593.391 1287.92 591.797 1285.55 590.641C1283.2 589.484 1280.41 588.906 1277.16 588.906H1260.14V614.406ZM1260.14 575.172H1275.19C1277.97 575.172 1280.44 574.687 1282.59 573.719C1284.78 572.719 1286.5 571.312 1287.75 569.5C1289.03 567.687 1289.67 565.516 1289.67 562.984C1289.67 559.516 1288.44 556.719 1285.97 554.594C1283.53 552.469 1280.06 551.406 1275.56 551.406H1260.14V575.172ZM1359.27 632.406C1351.99 632.406 1345.69 630.859 1340.38 627.766C1335.1 624.641 1331.02 620.297 1328.14 614.734C1325.27 609.141 1323.83 602.656 1323.83 595.281C1323.83 587.844 1325.27 581.344 1328.14 575.781C1331.02 570.187 1335.1 565.844 1340.38 562.75C1345.69 559.625 1351.99 558.063 1359.27 558.063C1366.55 558.063 1372.83 559.625 1378.11 562.75C1383.43 565.844 1387.52 570.187 1390.39 575.781C1393.27 581.344 1394.71 587.844 1394.71 595.281C1394.71 602.656 1393.27 609.141 1390.39 614.734C1387.52 620.297 1383.43 624.641 1378.11 627.766C1372.83 630.859 1366.55 632.406 1359.27 632.406ZM1359.36 616.937C1362.68 616.937 1365.44 616 1367.66 614.125C1369.88 612.219 1371.55 609.625 1372.68 606.344C1373.83 603.062 1374.41 599.328 1374.41 595.141C1374.41 590.953 1373.83 587.219 1372.68 583.937C1371.55 580.656 1369.88 578.062 1367.66 576.156C1365.44 574.25 1362.68 573.297 1359.36 573.297C1356.02 573.297 1353.21 574.25 1350.93 576.156C1348.68 578.062 1346.97 580.656 1345.82 583.937C1344.69 587.219 1344.13 590.953 1344.13 595.141C1344.13 599.328 1344.69 603.062 1345.82 606.344C1346.97 609.625 1348.68 612.219 1350.93 614.125C1353.21 616 1356.02 616.937 1359.36 616.937ZM1440.22 632.406C1432.94 632.406 1426.64 630.859 1421.33 627.766C1416.05 624.641 1411.97 620.297 1409.1 614.734C1406.22 609.141 1404.79 602.656 1404.79 595.281C1404.79 587.844 1406.22 581.344 1409.1 575.781C1411.97 570.187 1416.05 565.844 1421.33 562.75C1426.64 559.625 1432.94 558.063 1440.22 558.063C1447.5 558.063 1453.79 559.625 1459.07 562.75C1464.38 565.844 1468.47 570.187 1471.35 575.781C1474.22 581.344 1475.66 587.844 1475.66 595.281C1475.66 602.656 1474.22 609.141 1471.35 614.734C1468.47 620.297 1464.38 624.641 1459.07 627.766C1453.79 630.859 1447.5 632.406 1440.22 632.406ZM1440.32 616.937C1443.63 616.937 1446.39 616 1448.61 614.125C1450.83 612.219 1452.5 609.625 1453.63 606.344C1454.79 603.062 1455.36 599.328 1455.36 595.141C1455.36 590.953 1454.79 587.219 1453.63 583.937C1452.5 580.656 1450.83 578.062 1448.61 576.156C1446.39 574.25 1443.63 573.297 1440.32 573.297C1436.97 573.297 1434.16 574.25 1431.88 576.156C1429.63 578.062 1427.93 580.656 1426.77 583.937C1425.64 587.219 1425.08 590.953 1425.08 595.141C1425.08 599.328 1425.64 603.062 1426.77 606.344C1427.93 609.625 1429.63 612.219 1431.88 614.125C1434.16 616 1436.97 616.937 1440.32 616.937ZM1506.74 610.281L1506.79 586.328H1509.69L1532.75 559H1555.68L1524.69 595.188H1519.96L1506.74 610.281ZM1488.64 631V535H1508.61V631H1488.64ZM1533.64 631L1512.46 599.641L1525.77 585.531L1557.04 631H1533.64ZM1565.47 631V559H1585.44V631H1565.47ZM1575.5 549.719C1572.54 549.719 1569.99 548.734 1567.86 546.766C1565.77 544.766 1564.72 542.375 1564.72 539.594C1564.72 536.844 1565.77 534.484 1567.86 532.516C1569.99 530.516 1572.54 529.516 1575.5 529.516C1578.47 529.516 1581 530.516 1583.1 532.516C1585.22 534.484 1586.29 536.844 1586.29 539.594C1586.29 542.375 1585.22 544.766 1583.1 546.766C1581 548.734 1578.47 549.719 1575.5 549.719ZM1621.41 589.375V631H1601.44V559H1620.47V571.703H1621.31C1622.91 567.516 1625.58 564.203 1629.33 561.766C1633.08 559.297 1637.62 558.063 1642.97 558.063C1647.97 558.063 1652.33 559.156 1656.05 561.344C1659.77 563.531 1662.66 566.656 1664.72 570.719C1666.78 574.75 1667.81 579.562 1667.81 585.156V631H1647.84V588.719C1647.87 584.312 1646.75 580.875 1644.47 578.406C1642.19 575.906 1639.05 574.656 1635.05 574.656C1632.36 574.656 1629.98 575.234 1627.92 576.391C1625.89 577.547 1624.3 579.234 1623.14 581.453C1622.02 583.641 1621.44 586.281 1621.41 589.375ZM1715.99 659.5C1709.52 659.5 1703.97 658.609 1699.35 656.828C1694.75 655.078 1691.1 652.688 1688.38 649.656C1685.66 646.625 1683.89 643.219 1683.08 639.437L1701.55 636.953C1702.11 638.391 1703 639.734 1704.22 640.984C1705.44 642.234 1707.05 643.234 1709.05 643.984C1711.08 644.766 1713.55 645.156 1716.46 645.156C1720.8 645.156 1724.38 644.094 1727.19 641.969C1730.04 639.875 1731.46 636.359 1731.46 631.422V618.25H1730.61C1729.74 620.25 1728.43 622.141 1726.68 623.922C1724.93 625.703 1722.68 627.156 1719.93 628.281C1717.18 629.406 1713.89 629.969 1710.08 629.969C1704.68 629.969 1699.75 628.719 1695.32 626.219C1690.91 623.687 1687.39 619.828 1684.77 614.641C1682.18 609.422 1680.88 602.828 1680.88 594.859C1680.88 586.703 1682.21 579.891 1684.86 574.422C1687.52 568.953 1691.05 564.859 1695.46 562.141C1699.89 559.422 1704.75 558.063 1710.04 558.063C1714.07 558.063 1717.44 558.75 1720.16 560.125C1722.88 561.469 1725.07 563.156 1726.72 565.187C1728.41 567.187 1729.71 569.156 1730.61 571.094H1731.36V559H1751.19V631.703C1751.19 637.828 1749.69 642.953 1746.69 647.078C1743.69 651.203 1739.54 654.297 1734.22 656.359C1728.94 658.453 1722.86 659.5 1715.99 659.5ZM1716.41 614.969C1719.63 614.969 1722.35 614.172 1724.57 612.578C1726.82 610.953 1728.54 608.641 1729.72 605.641C1730.94 602.609 1731.55 598.984 1731.55 594.766C1731.55 590.547 1730.96 586.891 1729.77 583.797C1728.58 580.672 1726.86 578.25 1724.61 576.531C1722.36 574.812 1719.63 573.953 1716.41 573.953C1713.13 573.953 1710.36 574.844 1708.11 576.625C1705.86 578.375 1704.16 580.812 1703 583.937C1701.85 587.062 1701.27 590.672 1701.27 594.766C1701.27 598.922 1701.85 602.516 1703 605.547C1704.19 608.547 1705.89 610.875 1708.11 612.531C1710.36 614.156 1713.13 614.969 1716.41 614.969Z" fill="#505050"/>
<path d="M1921.17 580C1919.51 580 1918.17 581.343 1918.17 583C1918.17 584.657 1919.51 586 1921.17 586V580ZM2236.79 585.121C2237.96 583.95 2237.96 582.05 2236.79 580.879L2217.7 561.787C2216.52 560.615 2214.62 560.615 2213.45 561.787C2212.28 562.958 2212.28 564.858 2213.45 566.029L2230.42 583L2213.45 599.971C2212.28 601.142 2212.28 603.042 2213.45 604.213C2214.62 605.385 2216.52 605.385 2217.7 604.213L2236.79 585.121ZM1921.17 586H2234.67V580H1921.17V586Z" fill="#505050"/>
<path d="M2384.68 631V535H2422.55C2429.83 535 2436.04 536.391 2441.16 539.172C2446.29 541.922 2450.19 545.75 2452.88 550.656C2455.6 555.531 2456.96 561.156 2456.96 567.531C2456.96 573.906 2455.58 579.531 2452.83 584.406C2450.08 589.281 2446.1 593.078 2440.88 595.797C2435.69 598.516 2429.41 599.875 2422.04 599.875H2397.9V583.609H2418.76C2422.66 583.609 2425.88 582.937 2428.41 581.594C2430.97 580.219 2432.88 578.328 2434.13 575.922C2435.41 573.484 2436.05 570.687 2436.05 567.531C2436.05 564.344 2435.41 561.562 2434.13 559.187C2432.88 556.781 2430.97 554.922 2428.41 553.609C2425.85 552.266 2422.6 551.594 2418.66 551.594H2404.97V631H2384.68ZM2488.36 632.359C2483.77 632.359 2479.68 631.563 2476.08 629.969C2472.49 628.344 2469.65 625.953 2467.55 622.797C2465.49 619.609 2464.46 615.641 2464.46 610.891C2464.46 606.891 2465.19 603.531 2466.66 600.812C2468.13 598.094 2470.13 595.906 2472.66 594.25C2475.19 592.594 2478.07 591.344 2481.29 590.5C2484.54 589.656 2487.94 589.062 2491.51 588.719C2495.69 588.281 2499.07 587.875 2501.63 587.5C2504.19 587.094 2506.05 586.5 2507.21 585.719C2508.36 584.937 2508.94 583.781 2508.94 582.25V581.969C2508.94 579 2508.01 576.703 2506.13 575.078C2504.29 573.453 2501.66 572.641 2498.26 572.641C2494.66 572.641 2491.8 573.437 2489.68 575.031C2487.55 576.594 2486.15 578.562 2485.46 580.937L2466.99 579.438C2467.93 575.062 2469.77 571.281 2472.52 568.094C2475.27 564.875 2478.82 562.406 2483.16 560.687C2487.54 558.937 2492.6 558.063 2498.35 558.063C2502.35 558.063 2506.18 558.531 2509.83 559.469C2513.52 560.406 2516.79 561.859 2519.63 563.828C2522.51 565.797 2524.77 568.328 2526.43 571.422C2528.08 574.484 2528.91 578.156 2528.91 582.437V631H2509.97V621.016H2509.41C2508.26 623.266 2506.71 625.25 2504.77 626.969C2502.83 628.656 2500.51 629.984 2497.79 630.953C2495.07 631.891 2491.93 632.359 2488.36 632.359ZM2494.08 618.578C2497.02 618.578 2499.61 618 2501.86 616.844C2504.11 615.656 2505.88 614.062 2507.16 612.063C2508.44 610.062 2509.08 607.797 2509.08 605.266V597.625C2508.46 598.031 2507.6 598.406 2506.51 598.75C2505.44 599.062 2504.24 599.359 2502.9 599.641C2501.55 599.891 2500.21 600.125 2498.86 600.344C2497.52 600.531 2496.3 600.703 2495.21 600.859C2492.86 601.203 2490.82 601.75 2489.07 602.5C2487.32 603.25 2485.96 604.266 2484.99 605.547C2484.02 606.797 2483.54 608.359 2483.54 610.234C2483.54 612.953 2484.52 615.031 2486.49 616.469C2488.49 617.875 2491.02 618.578 2494.08 618.578ZM2554.15 658C2551.62 658 2549.25 657.797 2547.03 657.391C2544.84 657.016 2543.03 656.531 2541.59 655.937L2546.09 641.031C2548.43 641.75 2550.54 642.141 2552.42 642.203C2554.33 642.266 2555.97 641.828 2557.34 640.891C2558.75 639.953 2559.89 638.359 2560.76 636.109L2561.93 633.062L2536.11 559H2557.11L2572.01 611.875H2572.76L2587.81 559H2608.95L2580.97 638.781C2579.62 642.656 2577.79 646.031 2575.48 648.906C2573.2 651.813 2570.31 654.047 2566.81 655.609C2563.31 657.203 2559.09 658 2554.15 658ZM2619.17 631V559H2638.2V571.703H2639.04C2640.54 567.484 2643.04 564.156 2646.54 561.719C2650.04 559.281 2654.23 558.063 2659.11 558.063C2664.04 558.063 2668.25 559.297 2671.72 561.766C2675.18 564.203 2677.5 567.516 2678.65 571.703H2679.4C2680.87 567.578 2683.53 564.281 2687.37 561.812C2691.25 559.312 2695.83 558.063 2701.11 558.063C2707.83 558.063 2713.28 560.203 2717.47 564.484C2721.68 568.734 2723.79 574.766 2723.79 582.578V631H2703.87V586.516C2703.87 582.516 2702.81 579.516 2700.68 577.516C2698.56 575.516 2695.9 574.516 2692.72 574.516C2689.09 574.516 2686.26 575.672 2684.23 577.984C2682.2 580.266 2681.18 583.281 2681.18 587.031V631H2661.83V586.094C2661.83 582.562 2660.81 579.75 2658.78 577.656C2656.78 575.562 2654.14 574.516 2650.86 574.516C2648.64 574.516 2646.64 575.078 2644.86 576.203C2643.11 577.297 2641.72 578.844 2640.68 580.844C2639.65 582.812 2639.14 585.125 2639.14 587.781V631H2619.17ZM2772.38 632.406C2764.97 632.406 2758.6 630.906 2753.26 627.906C2747.94 624.875 2743.85 620.594 2740.97 615.062C2738.1 609.5 2736.66 602.922 2736.66 595.328C2736.66 587.922 2738.1 581.422 2740.97 575.828C2743.85 570.234 2747.9 565.875 2753.11 562.75C2758.36 559.625 2764.52 558.063 2771.58 558.063C2776.33 558.063 2780.76 558.828 2784.85 560.359C2788.97 561.859 2792.57 564.125 2795.63 567.156C2798.72 570.187 2801.13 574 2802.85 578.594C2804.57 583.156 2805.43 588.5 2805.43 594.625V600.109H2744.63V587.734H2786.63C2786.63 584.859 2786.01 582.312 2784.76 580.094C2783.51 577.875 2781.77 576.141 2779.55 574.891C2777.36 573.609 2774.82 572.969 2771.91 572.969C2768.88 572.969 2766.19 573.672 2763.85 575.078C2761.54 576.453 2759.72 578.312 2758.41 580.656C2757.1 582.969 2756.43 585.547 2756.4 588.391V600.156C2756.4 603.719 2757.05 606.797 2758.36 609.391C2759.71 611.984 2761.6 613.984 2764.04 615.391C2766.47 616.797 2769.36 617.5 2772.71 617.5C2774.93 617.5 2776.96 617.187 2778.8 616.562C2780.65 615.937 2782.22 615 2783.54 613.75C2784.85 612.5 2785.85 610.969 2786.54 609.156L2805.01 610.375C2804.07 614.812 2802.15 618.687 2799.24 622C2796.36 625.281 2792.65 627.844 2788.08 629.688C2783.55 631.5 2778.32 632.406 2772.38 632.406ZM2838.43 589.375V631H2818.46V559H2837.49V571.703H2838.33C2839.93 567.516 2842.6 564.203 2846.35 561.766C2850.1 559.297 2854.65 558.063 2859.99 558.063C2864.99 558.063 2869.35 559.156 2873.07 561.344C2876.79 563.531 2879.68 566.656 2881.74 570.719C2883.8 574.75 2884.83 579.562 2884.83 585.156V631H2864.86V588.719C2864.9 584.312 2863.77 580.875 2861.49 578.406C2859.21 575.906 2856.07 574.656 2852.07 574.656C2849.38 574.656 2847.01 575.234 2844.94 576.391C2842.91 577.547 2841.32 579.234 2840.16 581.453C2839.04 583.641 2838.46 586.281 2838.43 589.375ZM2938.87 559V574H2895.51V559H2938.87ZM2905.35 541.75H2925.32V608.875C2925.32 610.719 2925.6 612.156 2926.17 613.187C2926.73 614.187 2927.51 614.891 2928.51 615.297C2929.54 615.703 2930.73 615.906 2932.07 615.906C2933.01 615.906 2933.95 615.828 2934.88 615.672C2935.82 615.484 2936.54 615.344 2937.04 615.25L2940.18 630.109C2939.18 630.422 2937.77 630.781 2935.96 631.188C2934.15 631.625 2931.95 631.891 2929.35 631.984C2924.54 632.172 2920.32 631.531 2916.7 630.062C2913.1 628.594 2910.31 626.312 2908.31 623.219C2906.31 620.125 2905.32 616.219 2905.35 611.5V541.75Z" fill="#505050"/>
<path d="M2623 676C2623 674.343 2621.66 673 2620 673C2618.34 673 2617 674.343 2617 676H2623ZM244.121 673.879C242.95 672.707 241.05 672.707 239.879 673.879L220.787 692.971C219.615 694.142 219.615 696.042 220.787 697.213C221.958 698.385 223.858 698.385 225.029 697.213L242 680.243L258.971 697.213C260.142 698.385 262.042 698.385 263.213 697.213C264.385 696.042 264.385 694.142 263.213 692.971L244.121 673.879ZM2617 676V847H2623V676H2617ZM2588 876H274V882H2588V876ZM245 847V676H239V847H245ZM274 876C257.984 876 245 863.016 245 847H239C239 866.33 254.67 882 274 882V876ZM2617 847C2617 863.016 2604.02 876 2588 876V882C2607.33 882 2623 866.33 2623 847H2617Z" fill="#505050"/>
<path d="M1442 437C1442 438.657 1443.34 440 1445 440C1446.66 440 1448 438.657 1448 437L1442 437ZM1447.12 185.879C1445.95 184.707 1444.05 184.707 1442.88 185.879L1423.79 204.971C1422.62 206.142 1422.62 208.042 1423.79 209.213C1424.96 210.385 1426.86 210.385 1428.03 209.213L1445 192.243L1461.97 209.213C1463.14 210.385 1465.04 210.385 1466.21 209.213C1467.38 208.042 1467.38 206.142 1466.21 204.971L1447.12 185.879ZM1448 437L1448 188L1442 188L1442 437L1448 437Z" fill="#505050"/>
<path d="M1512.88 439.121C1514.05 440.293 1515.95 440.293 1517.12 439.121L1536.21 420.029C1537.38 418.858 1537.38 416.958 1536.21 415.787C1535.04 414.615 1533.14 414.615 1531.97 415.787L1515 432.757L1498.03 415.787C1496.86 414.615 1494.96 414.615 1493.79 415.787C1492.62 416.958 1492.62 418.858 1493.79 420.029L1512.88 439.121ZM1518 188C1518 186.343 1516.66 185 1515 185C1513.34 185 1512 186.343 1512 188L1518 188ZM1518 437L1518 188L1512 188L1512 437L1518 437Z" fill="#505050"/>
<g clip-path="url(#clip1_2380_14426)">
<path d="M2715.75 697.9C2716.87 699.694 2718.09 701.668 2719.21 703.462C2728.83 719.361 2738.38 735.552 2748 751.451C2749.11 753.245 2750.11 754.86 2751.05 756.765C2752.31 759.209 2753.56 762.414 2750.17 763.772C2748.8 764.373 2745.69 762.574 2744.51 761.071C2735.55 748.24 2726.88 735.478 2718.1 722.537C2716.03 719.598 2714.32 716.437 2710.7 714.211C2710.77 719.137 2711.31 724.02 2711.09 728.878C2711.01 731.162 2709.43 734.629 2707.59 735.274C2703.91 736.563 2702.05 732.752 2701.79 729.93C2699.78 716.266 2697.66 702.423 2696.77 688.561C2696.24 679.692 2701.63 676.347 2709.34 680.755C2719.65 686.535 2729.15 693.814 2738.78 700.51C2739.98 701.252 2739.84 703.827 2740.37 705.485C2738.6 705.839 2736.44 707.177 2735.06 706.547C2731.93 705.509 2729.07 703.307 2726.07 701.688C2722.96 699.889 2719.85 698.09 2716.86 696.47C2716.72 697.052 2716.29 697.566 2715.75 697.9Z" fill="#E4783E"/>
</g>
<path d="M2669.7 801.6C2674.17 799.933 2678.2 799.2 2681.8 799.4C2685.47 799.6 2688.73 800.533 2691.6 802.2C2694.47 803.8 2696.9 805.967 2698.9 808.7C2700.97 811.433 2702.63 814.5 2703.9 817.9C2704.9 820.433 2705.67 823.1 2706.2 825.9C2706.73 828.7 2707.03 831.5 2707.1 834.3C2707.23 837.033 2707.13 839.733 2706.8 842.4C2706.53 845.067 2706.07 847.533 2705.4 849.8C2705 851.333 2704.53 852.733 2704 854C2703.47 855.267 2702.83 856.533 2702.1 857.8C2700.43 860.667 2698.27 863 2695.6 864.8C2693 866.6 2690.13 867.867 2687 868.6C2684.87 869.133 2682.67 869.4 2680.4 869.4C2678.13 869.333 2675.9 869.033 2673.7 868.5C2671.5 867.9 2669.37 867.067 2667.3 866C2665.3 864.867 2663.47 863.467 2661.8 861.8C2659.73 859.8 2658.03 857.5 2656.7 854.9C2655.37 852.233 2654.33 849.467 2653.6 846.6C2652.87 843.667 2652.4 840.733 2652.2 837.8C2652 834.867 2652 832.067 2652.2 829.4C2652.4 826.933 2652.87 824.3 2653.6 821.5C2654.4 818.7 2655.53 816 2657 813.4C2658.47 810.8 2660.23 808.467 2662.3 806.4C2664.43 804.267 2666.9 802.667 2669.7 801.6ZM2693.1 844.4C2693.9 841.267 2694.23 837.733 2694.1 833.8C2693.97 829.867 2693.33 826.167 2692.2 822.7C2691.47 820.567 2690.53 818.7 2689.4 817.1C2688.33 815.433 2687.03 814.167 2685.5 813.3C2684.03 812.433 2682.3 812 2680.3 812C2678.3 812 2676.07 812.6 2673.6 813.8C2672.13 814.533 2670.87 815.533 2669.8 816.8C2668.8 818.067 2667.97 819.5 2667.3 821.1C2666.7 822.7 2666.2 824.367 2665.8 826.1C2665.47 827.833 2665.27 829.5 2665.2 831.1C2665.07 832.833 2665.03 834.667 2665.1 836.6C2665.17 838.467 2665.37 840.367 2665.7 842.3C2666.1 844.167 2666.63 845.967 2667.3 847.7C2667.97 849.367 2668.87 850.867 2670 852.2C2671.73 854.2 2673.73 855.6 2676 856.4C2678.33 857.133 2680.63 857.233 2682.9 856.7C2686.57 855.9 2689.37 853.467 2691.3 849.4C2692.1 847.933 2692.7 846.267 2693.1 844.4ZM2743.28 825C2745.21 825.8 2746.98 826.967 2748.58 828.5C2750.18 829.967 2751.55 831.667 2752.68 833.6C2753.88 835.533 2754.78 837.633 2755.38 839.9C2756.05 842.1 2756.38 844.333 2756.38 846.6C2756.45 850 2755.65 853.2 2753.98 856.2C2752.38 859.2 2749.75 861.5 2746.08 863.1C2743.28 864.233 2740.38 865.1 2737.38 865.7C2734.45 866.233 2731.38 866.6 2728.18 866.8V885.1C2728.18 885.5 2728.11 885.867 2727.98 886.2C2727.91 886.533 2727.88 886.867 2727.88 887.2C2727.75 887.867 2727.58 888.467 2727.38 889C2727.25 889.533 2727.05 890.1 2726.78 890.7C2726.51 891.1 2726.25 891.467 2725.98 891.8C2725.71 892.133 2725.41 892.467 2725.08 892.8C2723.48 893.6 2721.81 893.767 2720.08 893.3C2719.01 893.233 2718.15 892.9 2717.48 892.3C2716.88 891.7 2716.45 891.067 2716.18 890.4C2715.91 889.733 2715.68 888.967 2715.48 888.1C2715.41 887.767 2715.35 887.433 2715.28 887.1C2715.28 886.833 2715.28 886.533 2715.28 886.2V830.5C2715.28 830.1 2715.28 829.7 2715.28 829.3C2715.35 828.833 2715.41 828.367 2715.48 827.9C2715.55 827.1 2715.75 826.3 2716.08 825.5C2716.68 823.833 2717.91 822.7 2719.78 822.1C2721.65 821.5 2723.75 821.233 2726.08 821.3C2727.68 821.367 2729.31 821.533 2730.98 821.8C2732.71 822.067 2734.35 822.4 2735.88 822.8C2737.48 823.133 2738.91 823.5 2740.18 823.9C2741.45 824.3 2742.48 824.667 2743.28 825ZM2743.48 846.6C2743.75 844.733 2743.51 843.167 2742.78 841.9C2742.11 840.567 2741.15 839.5 2739.88 838.7C2738.61 837.833 2737.15 837.167 2735.48 836.7C2733.88 836.233 2732.28 835.9 2730.68 835.7C2730.48 835.633 2730.15 835.6 2729.68 835.6C2729.28 835.6 2728.81 835.6 2728.28 835.6C2728.28 837.733 2728.28 839.8 2728.28 841.8C2728.35 843.733 2728.35 845.833 2728.28 848.1V854.8C2729.81 854.733 2731.41 854.567 2733.08 854.3C2734.81 854.033 2736.41 853.6 2737.88 853C2739.35 852.4 2740.58 851.6 2741.58 850.6C2742.65 849.6 2743.28 848.267 2743.48 846.6ZM2802.9 825.9C2803.44 827.167 2803.47 828.567 2803 830.1C2802.6 831.633 2801.84 832.633 2800.7 833.1C2800.1 833.367 2799.3 833.6 2798.3 833.8C2797.3 833.933 2796.2 834.067 2795 834.2C2793.87 834.333 2792.74 834.433 2791.6 834.5C2790.47 834.567 2789.5 834.6 2788.7 834.6C2788.77 836.6 2788.84 838.667 2788.9 840.8C2788.97 842.867 2789.04 844.9 2789.1 846.9C2789.17 848.9 2789.2 850.833 2789.2 852.7C2789.2 854.5 2789.17 856.133 2789.1 857.6C2789.1 858.6 2789.1 859.767 2789.1 861.1C2789.1 862.367 2789 863.6 2788.8 864.8C2788.67 866 2788.44 867.067 2788.1 868C2787.77 868.867 2787.27 869.433 2786.6 869.7C2784.54 870.567 2782.64 870.8 2780.9 870.4C2779.24 870.067 2778.04 869.367 2777.3 868.3C2776.77 867.433 2776.37 866.433 2776.1 865.3C2775.84 864.1 2775.64 862.9 2775.5 861.7C2775.44 860.433 2775.4 859.233 2775.4 858.1C2775.47 856.9 2775.5 855.867 2775.5 855C2775.57 852.2 2775.6 849.033 2775.6 845.5C2775.67 841.9 2775.7 838.3 2775.7 834.7H2774.2C2773.4 834.7 2772.37 834.7 2771.1 834.7C2769.9 834.633 2768.67 834.533 2767.4 834.4C2766.2 834.2 2765.07 833.967 2764 833.7C2762.94 833.367 2762.17 832.9 2761.7 832.3C2760.97 831.433 2760.5 830.5 2760.3 829.5C2760.17 828.5 2760.24 827.567 2760.5 826.7C2760.84 825.767 2761.34 824.967 2762 824.3C2762.67 823.567 2763.44 823.1 2764.3 822.9C2765.5 822.567 2767.2 822.4 2769.4 822.4C2771.6 822.333 2773.67 822.333 2775.6 822.4C2775.54 821.733 2775.5 821.1 2775.5 820.5C2775.5 819.833 2775.47 819.2 2775.4 818.6C2775.34 817.8 2775.3 816.8 2775.3 815.6C2775.3 814.333 2775.37 813.1 2775.5 811.9C2775.7 810.633 2776 809.467 2776.4 808.4C2776.8 807.267 2777.37 806.4 2778.1 805.8C2779.1 805 2780.1 804.567 2781.1 804.5C2782.17 804.367 2783.14 804.5 2784 804.9C2784.94 805.3 2785.7 805.9 2786.3 806.7C2786.97 807.433 2787.44 808.267 2787.7 809.2C2787.9 810 2788.07 810.967 2788.2 812.1C2788.34 813.167 2788.4 814.3 2788.4 815.5C2788.47 816.7 2788.5 817.9 2788.5 819.1C2788.5 820.3 2788.5 821.4 2788.5 822.4H2789.5C2790.5 822.4 2791.67 822.367 2793 822.3C2794.34 822.233 2795.64 822.267 2796.9 822.4C2798.24 822.533 2799.44 822.867 2800.5 823.4C2801.57 823.867 2802.37 824.7 2802.9 825.9ZM2823.98 832.1C2823.98 833.967 2823.98 836.067 2823.98 838.4C2824.04 840.733 2824.08 843.167 2824.08 845.7C2824.08 848.167 2824.08 850.633 2824.08 853.1C2824.08 855.5 2824.04 857.733 2823.98 859.8C2823.91 860.8 2823.81 861.9 2823.68 863.1C2823.54 864.233 2823.28 865.3 2822.88 866.3C2822.48 867.3 2821.84 868.133 2820.98 868.8C2820.18 869.4 2819.08 869.667 2817.68 869.6C2815.61 869.467 2814.11 868.567 2813.18 866.9C2812.31 865.233 2811.81 862.9 2811.68 859.9C2811.68 858.367 2811.64 856.6 2811.58 854.6C2811.58 852.6 2811.54 850.567 2811.48 848.5C2811.48 846.433 2811.48 844.433 2811.48 842.5C2811.48 840.5 2811.48 838.7 2811.48 837.1C2811.48 836.167 2811.44 835.033 2811.38 833.7C2811.38 832.367 2811.41 831 2811.48 829.6C2811.54 828.2 2811.71 826.867 2811.98 825.6C2812.24 824.267 2812.68 823.167 2813.28 822.3C2813.74 821.767 2814.41 821.367 2815.28 821.1C2816.14 820.767 2817.04 820.6 2817.98 820.6C2818.98 820.6 2819.91 820.767 2820.78 821.1C2821.71 821.433 2822.38 821.9 2822.78 822.5C2823.04 822.9 2823.24 823.467 2823.38 824.2C2823.51 824.933 2823.61 825.767 2823.68 826.7C2823.81 827.567 2823.88 828.5 2823.88 829.5C2823.94 830.433 2823.98 831.3 2823.98 832.1ZM2820.18 811.9C2818.11 812.433 2816.38 812.233 2814.98 811.3C2813.64 810.3 2812.81 808.833 2812.48 806.9C2812.21 805.5 2812.31 804.267 2812.78 803.2C2813.24 802.133 2813.94 801.333 2814.88 800.8C2815.81 800.2 2816.88 799.933 2818.08 800C2819.28 800.067 2820.48 800.533 2821.68 801.4C2822.81 802.2 2823.61 803.133 2824.08 804.2C2824.61 805.267 2824.78 806.3 2824.58 807.3C2824.44 808.3 2824.01 809.233 2823.28 810.1C2822.54 810.9 2821.51 811.5 2820.18 811.9ZM2845.66 824.8C2847.86 823.733 2850.16 822.967 2852.56 822.5C2854.96 822.033 2857.33 821.933 2859.66 822.2C2862.06 822.467 2864.36 823.1 2866.56 824.1C2868.83 825.1 2870.9 826.5 2872.76 828.3C2874.3 829.833 2875.63 831.7 2876.76 833.9C2877.9 836.033 2878.73 838.133 2879.26 840.2C2880.4 843.867 2880.56 847.567 2879.76 851.3C2878.96 855.033 2877.6 858.5 2875.66 861.7C2874.73 863.167 2873.56 864.5 2872.16 865.7C2870.83 866.833 2869.4 867.767 2867.86 868.5C2865.86 869.433 2863.7 870.067 2861.36 870.4C2859.03 870.8 2856.76 870.9 2854.56 870.7C2850.56 870.5 2847.03 869.5 2843.96 867.7C2840.96 865.9 2838.53 863.6 2836.66 860.8C2834.86 858 2833.66 854.833 2833.06 851.3C2832.53 847.7 2832.76 844.033 2833.76 840.3C2834.83 836.3 2836.36 833.067 2838.36 830.6C2840.43 828.067 2842.86 826.133 2845.66 824.8ZM2848.66 838.2C2847.66 839.133 2846.9 840.3 2846.36 841.7C2845.83 843.1 2845.5 844.567 2845.36 846.1C2845.23 847.567 2845.33 849.067 2845.66 850.6C2846.06 852.067 2846.66 853.4 2847.46 854.6C2848.13 855.6 2849.33 856.433 2851.06 857.1C2852.8 857.767 2854.6 858.167 2856.46 858.3C2858.6 858.433 2860.46 857.867 2862.06 856.6C2863.66 855.267 2864.86 853.633 2865.66 851.7C2866.53 849.767 2866.93 847.667 2866.86 845.4C2866.8 843.133 2866.2 841.067 2865.06 839.2C2864.26 837.867 2863.13 836.9 2861.66 836.3C2860.26 835.633 2858.76 835.3 2857.16 835.3C2855.63 835.233 2854.1 835.467 2852.56 836C2851.03 836.467 2849.73 837.2 2848.66 838.2ZM2888.33 834.3C2888.33 832.767 2888.3 831.133 2888.23 829.4C2888.23 827.667 2888.53 826.1 2889.13 824.7C2889.66 823.433 2890.53 822.533 2891.73 822C2893 821.4 2894.23 821.267 2895.43 821.6C2896.63 821.8 2897.56 822.167 2898.23 822.7C2898.9 823.233 2899.36 823.867 2899.63 824.6C2899.96 825.267 2900.16 826.067 2900.23 827C2900.3 827.867 2900.36 828.733 2900.43 829.6C2901.1 828.4 2901.93 827.433 2902.93 826.7C2903.93 825.967 2904.96 825.367 2906.03 824.9C2907.1 824.433 2908.1 824.1 2909.03 823.9C2910.03 823.7 2910.8 823.6 2911.33 823.6C2913.86 823.6 2916.36 824.167 2918.83 825.3C2921.36 826.367 2923.46 827.9 2925.13 829.9C2926.06 831.1 2926.76 832.367 2927.23 833.7C2927.76 834.967 2928.13 836.3 2928.33 837.7C2928.6 839.1 2928.76 840.533 2928.83 842C2928.9 843.4 2928.96 844.833 2929.03 846.3C2929.36 850.567 2929.36 854.8 2929.03 859C2928.96 859.867 2928.93 860.867 2928.93 862C2928.93 863.133 2928.83 864.267 2928.63 865.4C2928.5 866.467 2928.2 867.433 2927.73 868.3C2927.33 869.1 2926.63 869.6 2925.63 869.8C2924.23 870.133 2923.06 870.2 2922.13 870C2921.26 869.867 2920.56 869.567 2920.03 869.1C2919.5 868.633 2919.1 868.033 2918.83 867.3C2918.56 866.567 2918.33 865.733 2918.13 864.8C2918 864.067 2917.86 863.233 2917.73 862.3C2917.66 861.3 2917.6 860.3 2917.53 859.3C2917.53 858.3 2917.5 857.333 2917.43 856.4C2917.43 855.4 2917.43 854.5 2917.43 853.7C2917.43 852.433 2917.4 851.033 2917.33 849.5C2917.26 847.967 2917.26 846.533 2917.33 845.2C2917.33 842.067 2916.5 839.7 2914.83 838.1C2913.23 836.433 2911.03 835.733 2908.23 836C2906.1 836.267 2904.23 837.133 2902.63 838.6C2901.03 840 2900.26 841.833 2900.33 844.1C2900.33 844.967 2900.33 845.767 2900.33 846.5C2900.33 847.233 2900.3 847.967 2900.23 848.7C2900.23 849.433 2900.23 850.233 2900.23 851.1C2900.23 851.967 2900.23 852.933 2900.23 854C2900.23 856.2 2900.23 858.533 2900.23 861C2900.23 863.4 2899.93 865.367 2899.33 866.9C2898.8 868.5 2897.9 869.6 2896.63 870.2C2895.36 870.8 2893.86 870.633 2892.13 869.7C2891.4 869.3 2890.8 868.767 2890.33 868.1C2889.93 867.367 2889.6 866.6 2889.33 865.8C2889.13 865 2889 864.2 2888.93 863.4C2888.86 862.533 2888.8 861.733 2888.73 861C2888.53 858.8 2888.4 856.767 2888.33 854.9C2888.33 852.967 2888.33 850.9 2888.33 848.7V834.3ZM2949.05 827.9C2951.05 826.9 2953.15 826.2 2955.35 825.8C2957.55 825.333 2959.72 825.233 2961.85 825.5C2964.05 825.7 2966.15 826.267 2968.15 827.2C2970.15 828.067 2972.02 829.333 2973.75 831C2975.48 832.733 2976.82 834.633 2977.75 836.7C2978.68 838.767 2979.35 841.067 2979.75 843.6C2980.02 845.333 2980.45 846.933 2981.05 848.4C2981.65 849.867 2982.28 851.333 2982.95 852.8C2983.68 854.267 2984.35 855.733 2984.95 857.2C2985.62 858.667 2986.15 860.2 2986.55 861.8C2986.88 863.333 2986.75 864.833 2986.15 866.3C2985.62 867.7 2984.48 868.567 2982.75 868.9C2981.75 869.1 2980.78 869.033 2979.85 868.7C2978.98 868.3 2978.18 867.767 2977.45 867.1C2976.72 866.367 2976.05 865.6 2975.45 864.8C2974.92 863.933 2974.42 863.133 2973.95 862.4C2972.42 864.4 2970.75 865.967 2968.95 867.1C2967.15 868.167 2964.98 868.867 2962.45 869.2C2960.32 869.467 2958.28 869.533 2956.35 869.4C2954.42 869.267 2952.35 868.9 2950.15 868.3C2947.28 867.567 2944.92 866.3 2943.05 864.5C2941.25 862.633 2939.85 860.5 2938.85 858.1C2937.92 855.633 2937.42 853 2937.35 850.2C2937.28 847.4 2937.62 844.633 2938.35 841.9C2939.28 838.3 2940.68 835.367 2942.55 833.1C2944.42 830.833 2946.58 829.1 2949.05 827.9ZM2951.55 839.6C2950.62 840.533 2949.88 841.633 2949.35 842.9C2948.82 844.167 2948.48 845.5 2948.35 846.9C2948.28 848.3 2948.42 849.7 2948.75 851.1C2949.08 852.5 2949.62 853.733 2950.35 854.8C2951.02 855.733 2952.15 856.533 2953.75 857.2C2955.35 857.8 2957.02 858.167 2958.75 858.3C2960.75 858.433 2962.48 857.9 2963.95 856.7C2965.48 855.5 2966.62 854 2967.35 852.2C2968.15 850.333 2968.52 848.367 2968.45 846.3C2968.38 844.167 2967.82 842.233 2966.75 840.5C2965.95 839.233 2964.88 838.3 2963.55 837.7C2962.28 837.1 2960.92 836.8 2959.45 836.8C2957.98 836.733 2956.52 836.967 2955.05 837.5C2953.65 837.967 2952.48 838.667 2951.55 839.6ZM3008.17 862C3008.1 862.333 3008.04 862.667 3007.97 863C3007.97 863.267 3007.97 863.567 3007.97 863.9L3007.37 866C3007.24 866.267 3007.14 866.433 3007.07 866.5L3006.77 867.1C3006.44 867.833 3005.84 868.433 3004.97 868.9C3003.37 869.7 3001.67 869.9 2999.87 869.5C2998.74 869.367 2997.84 869.033 2997.17 868.5C2996.5 868.033 2996.04 867.467 2995.77 866.8C2995.5 866.133 2995.3 865.467 2995.17 864.8C2994.97 864.133 2994.87 863.533 2994.87 863V807C2994.87 806.533 2994.87 806.133 2994.87 805.8C2994.94 805.4 2995 805.033 2995.07 804.7C2995.14 804.233 2995.2 803.833 2995.27 803.5C2995.4 803.167 2995.54 802.8 2995.67 802.4C2995.87 801.733 2996.24 801.2 2996.77 800.8C2997.57 800.2 2998.34 799.867 2999.07 799.8C2999.54 799.667 2999.97 799.6 3000.37 799.6C3000.77 799.533 3001.24 799.5 3001.77 799.5C3002.7 799.5 3003.77 799.767 3004.97 800.3C3005.9 800.833 3006.57 801.567 3006.97 802.5C3007.64 803.833 3007.97 805.067 3007.97 806.2C3008.04 806.867 3008.07 807.867 3008.07 809.2C3008.14 810.533 3008.17 811.533 3008.17 812.2V812.6C3008.3 814.733 3008.37 816.8 3008.37 818.8C3008.37 820.733 3008.34 822.867 3008.27 825.2C3008.27 827.467 3008.24 829.667 3008.17 831.8C3008.17 833.867 3008.17 835.933 3008.17 838V859C3008.17 859.267 3008.17 859.533 3008.17 859.8C3008.24 860 3008.27 860.233 3008.27 860.5C3008.27 861.167 3008.24 861.667 3008.17 862Z" fill="#E4783E"/>
<g clip-path="url(#clip2_2380_14426)">
<path d="M1688.54 474.854C1689.56 473.004 1690.68 470.968 1691.69 469.118C1700.83 452.935 1710.25 436.669 1719.38 420.486C1720.4 418.636 1721.32 416.971 1722.52 415.222C1724.03 412.918 1726.21 410.263 1729.05 412.549C1730.25 413.447 1730.21 417.038 1729.48 418.805C1722.69 432.906 1715.82 446.72 1708.85 460.72C1707.31 463.967 1705.4 467.011 1705.23 471.259C1709.49 468.78 1713.48 465.912 1717.82 463.72C1719.85 462.666 1723.65 462.343 1725.11 463.63C1728.04 466.203 1725.64 469.7 1723.3 471.31C1712.38 479.765 1701.36 488.405 1689.72 495.981C1682.25 500.791 1676.69 497.736 1676.75 488.852C1676.73 477.035 1678.41 465.19 1679.52 453.512C1679.57 452.097 1681.89 450.959 1683.07 449.682C1684.25 451.052 1686.47 452.274 1686.6 453.792C1687.24 457.031 1686.72 460.603 1686.78 464.008C1686.74 467.599 1686.69 471.189 1686.75 474.595C1687.33 474.428 1687.98 474.549 1688.54 474.854Z" fill="#E4783E"/>
</g>
<path d="M1651.7 290.2L1651.5 305.9H1655.5C1658.23 305.833 1660.67 305.8 1662.8 305.8C1664.93 305.8 1667.3 305.833 1669.9 305.9H1670.4C1671.2 305.9 1671.97 305.933 1672.7 306C1673.5 306 1674.27 306 1675 306C1675.8 306.067 1676.57 306.2 1677.3 306.4C1678.03 306.533 1678.77 306.7 1679.5 306.9C1680.63 307.3 1681.57 307.9 1682.3 308.7C1682.97 309.567 1683.3 310.533 1683.3 311.6C1683.3 311.933 1683.3 312.333 1683.3 312.8C1683.3 313.2 1683.23 313.567 1683.1 313.9C1682.97 314.633 1682.53 315.3 1681.8 315.9C1681.47 316.367 1680.83 316.7 1679.9 316.9C1679.03 317.167 1678.17 317.333 1677.3 317.4C1676.37 317.6 1675.43 317.7 1674.5 317.7H1669.8L1651.3 317.8L1651.1 337.4L1671 337.6H1675.7C1676.23 337.6 1676.73 337.6 1677.2 337.6C1677.67 337.6 1678.1 337.633 1678.5 337.7C1679.03 337.833 1679.5 337.933 1679.9 338C1680.37 338 1680.8 338.067 1681.2 338.2C1682 338.467 1682.67 338.833 1683.2 339.3C1683.87 339.967 1684.3 340.667 1684.5 341.4C1684.57 341.733 1684.6 342.1 1684.6 342.5C1684.67 342.833 1684.67 343.2 1684.6 343.6C1684.6 344.667 1684.27 345.633 1683.6 346.5C1682.8 347.433 1681.87 348.033 1680.8 348.3C1679.4 348.9 1677.87 349.2 1676.2 349.2C1675.47 349.267 1674.7 349.3 1673.9 349.3C1673.1 349.3 1672.33 349.333 1671.6 349.4H1671C1665.8 349.533 1660.4 349.533 1654.8 349.4C1653.47 349.4 1652.4 349.367 1651.6 349.3C1650.8 349.3 1650.07 349.3 1649.4 349.3C1648.8 349.3 1648.17 349.3 1647.5 349.3C1646.83 349.3 1645.97 349.3 1644.9 349.3C1643.37 349.433 1642.1 349.167 1641.1 348.5C1640.37 348.033 1639.8 347.4 1639.4 346.6C1639.2 346.4 1639.1 346.2 1639.1 346C1639.03 345.867 1638.97 345.767 1638.9 345.7C1638.83 345.633 1638.77 345.533 1638.7 345.4C1638.57 345.067 1638.47 344.733 1638.4 344.4C1638.33 344 1638.3 343.633 1638.3 343.3C1638.23 342.967 1638.17 342.633 1638.1 342.3C1638.1 341.967 1638.07 341.633 1638 341.3V339.7C1638 339.433 1638 339.167 1638 338.9C1638.07 338.633 1638.1 338.367 1638.1 338.1V330.3L1638.3 315.9V302.6C1638.3 300.2 1638.3 298.067 1638.3 296.2C1638.37 294.333 1638.43 292.3 1638.5 290.1V289.6C1638.57 288.867 1638.6 288.2 1638.6 287.6C1638.67 286.933 1638.7 286.267 1638.7 285.6C1638.77 284.267 1639.13 282.967 1639.8 281.7C1640.07 281.167 1640.33 280.7 1640.6 280.3C1640.93 279.9 1641.37 279.567 1641.9 279.3C1642.9 278.7 1643.93 278.4 1645 278.4C1645.53 278.4 1645.93 278.433 1646.2 278.5V278.4C1647.4 278.4 1648.37 278.4 1649.1 278.4C1649.83 278.4 1650.53 278.4 1651.2 278.4C1651.93 278.4 1652.7 278.4 1653.5 278.4C1654.3 278.333 1655.4 278.3 1656.8 278.3C1659.47 278.233 1662 278.2 1664.4 278.2C1666.8 278.2 1669.27 278.233 1671.8 278.3H1672.2C1672.93 278.367 1673.7 278.4 1674.5 278.4C1675.3 278.4 1676.07 278.433 1676.8 278.5C1677.53 278.5 1678.27 278.6 1679 278.8C1679.73 278.933 1680.47 279.133 1681.2 279.4C1682.33 279.733 1683.27 280.3 1684 281.1C1684.6 282.033 1684.9 282.967 1684.9 283.9C1684.9 284.3 1684.9 284.7 1684.9 285.1C1684.9 285.433 1684.83 285.767 1684.7 286.1C1684.63 286.767 1684.23 287.467 1683.5 288.2C1683.23 288.333 1682.93 288.5 1682.6 288.7C1682.33 288.9 1682 289.067 1681.6 289.2C1681.2 289.333 1680.77 289.433 1680.3 289.5C1679.9 289.5 1679.5 289.533 1679.1 289.6C1678.57 289.733 1678.07 289.8 1677.6 289.8C1677.2 289.8 1676.73 289.8 1676.2 289.8H1671.7L1651.7 289.9V290.2ZM1724.08 279.1C1725.35 278.767 1726.45 278.733 1727.38 279C1728.38 279.2 1729.22 279.633 1729.88 280.3C1730.62 280.967 1731.15 281.8 1731.48 282.8C1731.88 283.8 1732.08 284.9 1732.08 286.1C1732.15 289.433 1732.15 292.033 1732.08 293.9C1732.08 295.767 1732.08 297.4 1732.08 298.8V329.5C1732.08 333.1 1732.08 336.1 1732.08 338.5C1732.08 340.9 1731.95 342.867 1731.68 344.4C1731.48 345.867 1731.08 346.967 1730.48 347.7C1729.95 348.433 1729.12 348.933 1727.98 349.2C1726.85 349.533 1725.35 349.7 1723.48 349.7C1721.68 349.7 1719.42 349.7 1716.68 349.7C1709.48 349.7 1703.78 348 1699.58 344.6C1695.45 341.2 1693.25 335.8 1692.98 328.4C1692.85 325.2 1693.25 322.267 1694.18 319.6C1695.12 316.933 1696.48 314.667 1698.28 312.8C1700.15 310.867 1702.42 309.4 1705.08 308.4C1707.82 307.333 1710.92 306.833 1714.38 306.9H1719.88V289C1719.88 287.933 1719.88 286.9 1719.88 285.9C1719.88 284.833 1719.98 283.867 1720.18 283C1720.38 282.067 1720.78 281.267 1721.38 280.6C1721.98 279.933 1722.88 279.433 1724.08 279.1ZM1706.68 334.6C1708.08 336.533 1710.62 337.6 1714.28 337.8C1715.02 337.867 1715.72 337.9 1716.38 337.9C1717.05 337.833 1717.65 337.733 1718.18 337.6C1718.78 337.533 1719.35 337.433 1719.88 337.3V318.8C1717.55 318.4 1715.42 318.167 1713.48 318.1C1711.62 317.967 1709.75 318.633 1707.88 320.1C1706.88 320.9 1706.12 321.933 1705.58 323.2C1705.05 324.4 1704.75 325.7 1704.68 327.1C1704.62 328.433 1704.75 329.767 1705.08 331.1C1705.42 332.433 1705.95 333.6 1706.68 334.6ZM1752.75 311.1C1752.75 312.967 1752.75 315.067 1752.75 317.4C1752.82 319.733 1752.85 322.167 1752.85 324.7C1752.85 327.167 1752.85 329.633 1752.85 332.1C1752.85 334.5 1752.82 336.733 1752.75 338.8C1752.68 339.8 1752.58 340.9 1752.45 342.1C1752.32 343.233 1752.05 344.3 1751.65 345.3C1751.25 346.3 1750.62 347.133 1749.75 347.8C1748.95 348.4 1747.85 348.667 1746.45 348.6C1744.38 348.467 1742.88 347.567 1741.95 345.9C1741.08 344.233 1740.58 341.9 1740.45 338.9C1740.45 337.367 1740.42 335.6 1740.35 333.6C1740.35 331.6 1740.32 329.567 1740.25 327.5C1740.25 325.433 1740.25 323.433 1740.25 321.5C1740.25 319.5 1740.25 317.7 1740.25 316.1C1740.25 315.167 1740.22 314.033 1740.15 312.7C1740.15 311.367 1740.18 310 1740.25 308.6C1740.32 307.2 1740.48 305.867 1740.75 304.6C1741.02 303.267 1741.45 302.167 1742.05 301.3C1742.52 300.767 1743.18 300.367 1744.05 300.1C1744.92 299.767 1745.82 299.6 1746.75 299.6C1747.75 299.6 1748.68 299.767 1749.55 300.1C1750.48 300.433 1751.15 300.9 1751.55 301.5C1751.82 301.9 1752.02 302.467 1752.15 303.2C1752.28 303.933 1752.38 304.767 1752.45 305.7C1752.58 306.567 1752.65 307.5 1752.65 308.5C1752.72 309.433 1752.75 310.3 1752.75 311.1ZM1748.95 290.9C1746.88 291.433 1745.15 291.233 1743.75 290.3C1742.42 289.3 1741.58 287.833 1741.25 285.9C1740.98 284.5 1741.08 283.267 1741.55 282.2C1742.02 281.133 1742.72 280.333 1743.65 279.8C1744.58 279.2 1745.65 278.933 1746.85 279C1748.05 279.067 1749.25 279.533 1750.45 280.4C1751.58 281.2 1752.38 282.133 1752.85 283.2C1753.38 284.267 1753.55 285.3 1753.35 286.3C1753.22 287.3 1752.78 288.233 1752.05 289.1C1751.32 289.9 1750.28 290.5 1748.95 290.9ZM1804.24 304.9C1804.77 306.167 1804.8 307.567 1804.34 309.1C1803.94 310.633 1803.17 311.633 1802.04 312.1C1801.44 312.367 1800.64 312.6 1799.64 312.8C1798.64 312.933 1797.54 313.067 1796.34 313.2C1795.2 313.333 1794.07 313.433 1792.94 313.5C1791.8 313.567 1790.84 313.6 1790.04 313.6C1790.1 315.6 1790.17 317.667 1790.24 319.8C1790.3 321.867 1790.37 323.9 1790.44 325.9C1790.5 327.9 1790.54 329.833 1790.54 331.7C1790.54 333.5 1790.5 335.133 1790.44 336.6C1790.44 337.6 1790.44 338.767 1790.44 340.1C1790.44 341.367 1790.34 342.6 1790.14 343.8C1790 345 1789.77 346.067 1789.44 347C1789.1 347.867 1788.6 348.433 1787.94 348.7C1785.87 349.567 1783.97 349.8 1782.24 349.4C1780.57 349.067 1779.37 348.367 1778.64 347.3C1778.1 346.433 1777.7 345.433 1777.44 344.3C1777.17 343.1 1776.97 341.9 1776.84 340.7C1776.77 339.433 1776.74 338.233 1776.74 337.1C1776.8 335.9 1776.84 334.867 1776.84 334C1776.9 331.2 1776.94 328.033 1776.94 324.5C1777 320.9 1777.04 317.3 1777.04 313.7H1775.54C1774.74 313.7 1773.7 313.7 1772.44 313.7C1771.24 313.633 1770 313.533 1768.74 313.4C1767.54 313.2 1766.4 312.967 1765.34 312.7C1764.27 312.367 1763.5 311.9 1763.04 311.3C1762.3 310.433 1761.84 309.5 1761.64 308.5C1761.5 307.5 1761.57 306.567 1761.84 305.7C1762.17 304.767 1762.67 303.967 1763.34 303.3C1764 302.567 1764.77 302.1 1765.64 301.9C1766.84 301.567 1768.54 301.4 1770.74 301.4C1772.94 301.333 1775 301.333 1776.94 301.4C1776.87 300.733 1776.84 300.1 1776.84 299.5C1776.84 298.833 1776.8 298.2 1776.74 297.6C1776.67 296.8 1776.64 295.8 1776.64 294.6C1776.64 293.333 1776.7 292.1 1776.84 290.9C1777.04 289.633 1777.34 288.467 1777.74 287.4C1778.14 286.267 1778.7 285.4 1779.44 284.8C1780.44 284 1781.44 283.567 1782.44 283.5C1783.5 283.367 1784.47 283.5 1785.34 283.9C1786.27 284.3 1787.04 284.9 1787.64 285.7C1788.3 286.433 1788.77 287.267 1789.04 288.2C1789.24 289 1789.4 289.967 1789.54 291.1C1789.67 292.167 1789.74 293.3 1789.74 294.5C1789.8 295.7 1789.84 296.9 1789.84 298.1C1789.84 299.3 1789.84 300.4 1789.84 301.4H1790.84C1791.84 301.4 1793 301.367 1794.34 301.3C1795.67 301.233 1796.97 301.267 1798.24 301.4C1799.57 301.533 1800.77 301.867 1801.84 302.4C1802.9 302.867 1803.7 303.7 1804.24 304.9ZM1866.68 304C1868.62 304.8 1870.38 305.967 1871.98 307.5C1873.58 308.967 1874.95 310.667 1876.08 312.6C1877.28 314.533 1878.18 316.633 1878.78 318.9C1879.45 321.1 1879.78 323.333 1879.78 325.6C1879.85 329 1879.05 332.2 1877.38 335.2C1875.78 338.2 1873.15 340.5 1869.48 342.1C1866.68 343.233 1863.78 344.1 1860.78 344.7C1857.85 345.233 1854.78 345.6 1851.58 345.8V364.1C1851.58 364.5 1851.52 364.867 1851.38 365.2C1851.32 365.533 1851.28 365.867 1851.28 366.2C1851.15 366.867 1850.98 367.467 1850.78 368C1850.65 368.533 1850.45 369.1 1850.18 369.7C1849.92 370.1 1849.65 370.467 1849.38 370.8C1849.12 371.133 1848.82 371.467 1848.48 371.8C1846.88 372.6 1845.22 372.767 1843.48 372.3C1842.42 372.233 1841.55 371.9 1840.88 371.3C1840.28 370.7 1839.85 370.067 1839.58 369.4C1839.32 368.733 1839.08 367.967 1838.88 367.1C1838.82 366.767 1838.75 366.433 1838.68 366.1C1838.68 365.833 1838.68 365.533 1838.68 365.2V309.5C1838.68 309.1 1838.68 308.7 1838.68 308.3C1838.75 307.833 1838.82 307.367 1838.88 306.9C1838.95 306.1 1839.15 305.3 1839.48 304.5C1840.08 302.833 1841.32 301.7 1843.18 301.1C1845.05 300.5 1847.15 300.233 1849.48 300.3C1851.08 300.367 1852.72 300.533 1854.38 300.8C1856.12 301.067 1857.75 301.4 1859.28 301.8C1860.88 302.133 1862.32 302.5 1863.58 302.9C1864.85 303.3 1865.88 303.667 1866.68 304ZM1866.88 325.6C1867.15 323.733 1866.92 322.167 1866.18 320.9C1865.52 319.567 1864.55 318.5 1863.28 317.7C1862.02 316.833 1860.55 316.167 1858.88 315.7C1857.28 315.233 1855.68 314.9 1854.08 314.7C1853.88 314.633 1853.55 314.6 1853.08 314.6C1852.68 314.6 1852.22 314.6 1851.68 314.6C1851.68 316.733 1851.68 318.8 1851.68 320.8C1851.75 322.733 1851.75 324.833 1851.68 327.1V333.8C1853.22 333.733 1854.82 333.567 1856.48 333.3C1858.22 333.033 1859.82 332.6 1861.28 332C1862.75 331.4 1863.98 330.6 1864.98 329.6C1866.05 328.6 1866.68 327.267 1866.88 325.6ZM1888 313.6C1888 312.8 1888 311.9 1888 310.9C1888 309.833 1888.04 308.767 1888.1 307.7C1888.17 306.567 1888.27 305.5 1888.4 304.5C1888.6 303.433 1888.87 302.5 1889.2 301.7C1889.74 300.5 1890.57 299.7 1891.7 299.3C1892.84 298.833 1894.07 298.633 1895.4 298.7C1896.8 298.7 1897.9 298.933 1898.7 299.4C1899.5 299.867 1900.1 300.5 1900.5 301.3C1900.9 302.033 1901.14 302.9 1901.2 303.9C1901.34 304.833 1901.4 305.833 1901.4 306.9C1902 305.833 1902.8 304.967 1903.8 304.3C1904.87 303.633 1905.94 303.1 1907 302.7C1908.07 302.3 1909.04 302.033 1909.9 301.9C1910.77 301.7 1911.27 301.6 1911.4 301.6C1913.07 301.467 1914.57 301.433 1915.9 301.5C1917.3 301.567 1918.84 301.867 1920.5 302.4C1921.57 302.8 1922.67 303.367 1923.8 304.1C1924.94 304.767 1925.94 305.567 1926.8 306.5C1927.67 307.433 1928.24 308.467 1928.5 309.6C1928.84 310.667 1928.7 311.8 1928.1 313C1927.17 314.667 1926.14 315.5 1925 315.5C1923.87 315.433 1922.64 315.233 1921.3 314.9C1920.57 314.767 1919.7 314.467 1918.7 314C1917.7 313.533 1916.84 313.233 1916.1 313.1C1913.84 312.767 1911.84 312.933 1910.1 313.6C1908.37 314.267 1906.87 315.067 1905.6 316C1904.14 317.133 1902.87 318.433 1901.8 319.9V334.3C1901.8 336.1 1901.77 337.967 1901.7 339.9C1901.7 341.833 1901.44 343.6 1900.9 345.2C1900.44 346.733 1899.6 348 1898.4 349C1897.27 349.933 1895.6 350.333 1893.4 350.2C1892.2 350.133 1891.14 349.567 1890.2 348.5C1889.27 347.367 1888.7 346.267 1888.5 345.2C1888.37 344.2 1888.27 343 1888.2 341.6C1888.14 340.2 1888.07 338.733 1888 337.2C1888 335.667 1888 334.133 1888 332.6C1888 331 1888 329.533 1888 328.2V313.6ZM1949.33 311.1C1949.33 312.967 1949.33 315.067 1949.33 317.4C1949.4 319.733 1949.43 322.167 1949.43 324.7C1949.43 327.167 1949.43 329.633 1949.43 332.1C1949.43 334.5 1949.4 336.733 1949.33 338.8C1949.26 339.8 1949.16 340.9 1949.03 342.1C1948.9 343.233 1948.63 344.3 1948.23 345.3C1947.83 346.3 1947.2 347.133 1946.33 347.8C1945.53 348.4 1944.43 348.667 1943.03 348.6C1940.96 348.467 1939.46 347.567 1938.53 345.9C1937.66 344.233 1937.16 341.9 1937.03 338.9C1937.03 337.367 1937 335.6 1936.93 333.6C1936.93 331.6 1936.9 329.567 1936.83 327.5C1936.83 325.433 1936.83 323.433 1936.83 321.5C1936.83 319.5 1936.83 317.7 1936.83 316.1C1936.83 315.167 1936.8 314.033 1936.73 312.7C1936.73 311.367 1936.76 310 1936.83 308.6C1936.9 307.2 1937.06 305.867 1937.33 304.6C1937.6 303.267 1938.03 302.167 1938.63 301.3C1939.1 300.767 1939.76 300.367 1940.63 300.1C1941.5 299.767 1942.4 299.6 1943.33 299.6C1944.33 299.6 1945.26 299.767 1946.13 300.1C1947.06 300.433 1947.73 300.9 1948.13 301.5C1948.4 301.9 1948.6 302.467 1948.73 303.2C1948.86 303.933 1948.96 304.767 1949.03 305.7C1949.16 306.567 1949.23 307.5 1949.23 308.5C1949.3 309.433 1949.33 310.3 1949.33 311.1ZM1945.53 290.9C1943.46 291.433 1941.73 291.233 1940.33 290.3C1939 289.3 1938.16 287.833 1937.83 285.9C1937.56 284.5 1937.66 283.267 1938.13 282.2C1938.6 281.133 1939.3 280.333 1940.23 279.8C1941.16 279.2 1942.23 278.933 1943.43 279C1944.63 279.067 1945.83 279.533 1947.03 280.4C1948.16 281.2 1948.96 282.133 1949.43 283.2C1949.96 284.267 1950.13 285.3 1949.93 286.3C1949.8 287.3 1949.36 288.233 1948.63 289.1C1947.9 289.9 1946.86 290.5 1945.53 290.9ZM1995.32 310.5C1995.85 311.433 1996.12 312.433 1996.12 313.5C1996.18 314.567 1995.95 315.567 1995.42 316.5C1994.82 317.7 1993.95 318.533 1992.82 319C1991.75 319.4 1990.55 319.433 1989.22 319.1C1988.62 318.967 1988.08 318.733 1987.62 318.4C1987.15 318.067 1986.65 317.733 1986.12 317.4C1985.65 317 1985.08 316.633 1984.42 316.3C1983.82 315.967 1983.02 315.733 1982.02 315.6C1981.02 315.467 1979.92 315.467 1978.72 315.6C1977.58 315.733 1976.55 316 1975.62 316.4C1974.15 317.133 1972.98 318.267 1972.12 319.8C1971.25 321.267 1970.68 322.867 1970.42 324.6C1970.15 326.267 1970.18 327.967 1970.52 329.7C1970.92 331.433 1971.65 332.9 1972.72 334.1C1973.52 335.033 1974.55 335.8 1975.82 336.4C1977.15 337 1978.42 337.367 1979.62 337.5C1980.75 337.633 1981.88 337.633 1983.02 337.5C1984.15 337.3 1985.25 337.033 1986.32 336.7C1987.12 336.367 1988.02 335.933 1989.02 335.4C1990.02 334.8 1990.98 334.433 1991.92 334.3C1993.12 334.3 1994.05 334.633 1994.72 335.3C1995.38 335.9 1995.85 336.667 1996.12 337.6C1996.38 338.467 1996.42 339.4 1996.22 340.4C1996.08 341.4 1995.72 342.267 1995.12 343C1994.32 344 1993.18 344.967 1991.72 345.9C1990.25 346.767 1988.85 347.4 1987.52 347.8C1985.92 348.333 1984.12 348.633 1982.12 348.7C1980.18 348.767 1978.35 348.7 1976.62 348.5C1975.82 348.367 1974.98 348.2 1974.12 348C1973.25 347.8 1972.42 347.567 1971.62 347.3C1968.68 346.233 1966.22 344.733 1964.22 342.8C1962.28 340.8 1960.78 338.567 1959.72 336.1C1958.72 333.633 1958.15 331 1958.02 328.2C1957.88 325.4 1958.22 322.633 1959.02 319.9C1959.75 317.3 1960.65 315.1 1961.72 313.3C1962.85 311.5 1964.15 310.033 1965.62 308.9C1967.15 307.7 1968.85 306.767 1970.72 306.1C1972.58 305.367 1974.65 304.733 1976.92 304.2C1979.25 303.733 1981.72 303.733 1984.32 304.2C1986.92 304.667 1989.25 305.533 1991.32 306.8C1992.92 307.667 1994.25 308.9 1995.32 310.5ZM2038.91 335.3C2039.71 335.1 2040.51 334.967 2041.31 334.9C2042.18 334.833 2042.94 334.933 2043.61 335.2C2044.34 335.467 2044.94 335.933 2045.41 336.6C2045.88 337.2 2046.11 338.067 2046.11 339.2C2046.11 340 2045.91 340.767 2045.51 341.5C2045.11 342.233 2044.61 342.9 2044.01 343.5C2043.41 344.1 2042.74 344.633 2042.01 345.1C2041.28 345.5 2040.58 345.833 2039.91 346.1C2037.98 346.967 2035.74 347.633 2033.21 348.1C2030.74 348.567 2028.18 348.733 2025.51 348.6C2021.91 348.467 2018.44 347.767 2015.11 346.5C2011.84 345.167 2009.28 343 2007.41 340C2005.68 337.067 2004.64 333.8 2004.31 330.2C2003.98 326.6 2004.14 323.2 2004.81 320C2005.54 316.133 2006.78 313 2008.51 310.6C2010.31 308.133 2012.44 306.167 2014.91 304.7C2017.91 302.967 2021.28 302.067 2025.01 302C2028.74 301.933 2032.31 302.667 2035.71 304.2C2037.98 305.2 2040.01 306.567 2041.81 308.3C2043.61 309.967 2044.98 312 2045.91 314.4C2046.18 315 2046.38 315.733 2046.51 316.6C2046.71 317.467 2046.84 318.4 2046.91 319.4C2046.98 320.333 2046.98 321.267 2046.91 322.2C2046.84 323.133 2046.68 323.967 2046.41 324.7C2046.01 325.9 2045.51 326.833 2044.91 327.5C2044.31 328.167 2043.54 328.667 2042.61 329C2041.68 329.333 2040.54 329.567 2039.21 329.7C2037.94 329.767 2036.41 329.833 2034.61 329.9C2033.01 329.967 2031.51 330 2030.11 330C2028.71 330 2027.28 330 2025.81 330C2024.34 329.933 2022.81 329.9 2021.21 329.9C2019.68 329.833 2017.94 329.767 2016.01 329.7C2015.81 331.033 2015.98 332.2 2016.51 333.2C2017.11 334.133 2017.91 334.933 2018.91 335.6C2019.91 336.2 2021.04 336.667 2022.31 337C2023.58 337.333 2024.81 337.533 2026.01 337.6C2028.28 337.733 2030.44 337.567 2032.51 337.1C2034.58 336.567 2036.71 335.967 2038.91 335.3ZM2034.61 315.9C2033.34 314.433 2032.01 313.367 2030.61 312.7C2029.54 312.233 2028.41 312.033 2027.21 312.1C2026.08 312.1 2024.98 312.267 2023.91 312.6C2021.98 313.067 2020.34 314.067 2019.01 315.6C2018.88 315.733 2018.64 316.067 2018.31 316.6C2017.98 317.067 2017.64 317.567 2017.31 318.1C2017.04 318.633 2016.84 319.133 2016.71 319.6C2016.58 320.067 2016.64 320.3 2016.91 320.3H2036.51C2036.44 319.367 2036.28 318.6 2036.01 318C2035.74 317.333 2035.28 316.633 2034.61 315.9Z" fill="#E4783E"/>
<path d="M2544.7 291.2L2544.5 306.9H2548.5C2551.23 306.833 2553.67 306.8 2555.8 306.8C2557.93 306.8 2560.3 306.833 2562.9 306.9H2563.4C2564.2 306.9 2564.97 306.933 2565.7 307C2566.5 307 2567.27 307 2568 307C2568.8 307.067 2569.57 307.2 2570.3 307.4C2571.03 307.533 2571.77 307.7 2572.5 307.9C2573.63 308.3 2574.57 308.9 2575.3 309.7C2575.97 310.567 2576.3 311.533 2576.3 312.6C2576.3 312.933 2576.3 313.333 2576.3 313.8C2576.3 314.2 2576.23 314.567 2576.1 314.9C2575.97 315.633 2575.53 316.3 2574.8 316.9C2574.47 317.367 2573.83 317.7 2572.9 317.9C2572.03 318.167 2571.17 318.333 2570.3 318.4C2569.37 318.6 2568.43 318.7 2567.5 318.7H2562.8L2544.3 318.8L2544.1 338.4L2564 338.6H2568.7C2569.23 338.6 2569.73 338.6 2570.2 338.6C2570.67 338.6 2571.1 338.633 2571.5 338.7C2572.03 338.833 2572.5 338.933 2572.9 339C2573.37 339 2573.8 339.067 2574.2 339.2C2575 339.467 2575.67 339.833 2576.2 340.3C2576.87 340.967 2577.3 341.667 2577.5 342.4C2577.57 342.733 2577.6 343.1 2577.6 343.5C2577.67 343.833 2577.67 344.2 2577.6 344.6C2577.6 345.667 2577.27 346.633 2576.6 347.5C2575.8 348.433 2574.87 349.033 2573.8 349.3C2572.4 349.9 2570.87 350.2 2569.2 350.2C2568.47 350.267 2567.7 350.3 2566.9 350.3C2566.1 350.3 2565.33 350.333 2564.6 350.4H2564C2558.8 350.533 2553.4 350.533 2547.8 350.4C2546.47 350.4 2545.4 350.367 2544.6 350.3C2543.8 350.3 2543.07 350.3 2542.4 350.3C2541.8 350.3 2541.17 350.3 2540.5 350.3C2539.83 350.3 2538.97 350.3 2537.9 350.3C2536.37 350.433 2535.1 350.167 2534.1 349.5C2533.37 349.033 2532.8 348.4 2532.4 347.6C2532.2 347.4 2532.1 347.2 2532.1 347C2532.03 346.867 2531.97 346.767 2531.9 346.7C2531.83 346.633 2531.77 346.533 2531.7 346.4C2531.57 346.067 2531.47 345.733 2531.4 345.4C2531.33 345 2531.3 344.633 2531.3 344.3C2531.23 343.967 2531.17 343.633 2531.1 343.3C2531.1 342.967 2531.07 342.633 2531 342.3V340.7C2531 340.433 2531 340.167 2531 339.9C2531.07 339.633 2531.1 339.367 2531.1 339.1V331.3L2531.3 316.9V303.6C2531.3 301.2 2531.3 299.067 2531.3 297.2C2531.37 295.333 2531.43 293.3 2531.5 291.1V290.6C2531.57 289.867 2531.6 289.2 2531.6 288.6C2531.67 287.933 2531.7 287.267 2531.7 286.6C2531.77 285.267 2532.13 283.967 2532.8 282.7C2533.07 282.167 2533.33 281.7 2533.6 281.3C2533.93 280.9 2534.37 280.567 2534.9 280.3C2535.9 279.7 2536.93 279.4 2538 279.4C2538.53 279.4 2538.93 279.433 2539.2 279.5V279.4C2540.4 279.4 2541.37 279.4 2542.1 279.4C2542.83 279.4 2543.53 279.4 2544.2 279.4C2544.93 279.4 2545.7 279.4 2546.5 279.4C2547.3 279.333 2548.4 279.3 2549.8 279.3C2552.47 279.233 2555 279.2 2557.4 279.2C2559.8 279.2 2562.27 279.233 2564.8 279.3H2565.2C2565.93 279.367 2566.7 279.4 2567.5 279.4C2568.3 279.4 2569.07 279.433 2569.8 279.5C2570.53 279.5 2571.27 279.6 2572 279.8C2572.73 279.933 2573.47 280.133 2574.2 280.4C2575.33 280.733 2576.27 281.3 2577 282.1C2577.6 283.033 2577.9 283.967 2577.9 284.9C2577.9 285.3 2577.9 285.7 2577.9 286.1C2577.9 286.433 2577.83 286.767 2577.7 287.1C2577.63 287.767 2577.23 288.467 2576.5 289.2C2576.23 289.333 2575.93 289.5 2575.6 289.7C2575.33 289.9 2575 290.067 2574.6 290.2C2574.2 290.333 2573.77 290.433 2573.3 290.5C2572.9 290.5 2572.5 290.533 2572.1 290.6C2571.57 290.733 2571.07 290.8 2570.6 290.8C2570.2 290.8 2569.73 290.8 2569.2 290.8H2564.7L2544.7 290.9V291.2ZM2617.08 280.1C2618.35 279.767 2619.45 279.733 2620.38 280C2621.38 280.2 2622.22 280.633 2622.88 281.3C2623.62 281.967 2624.15 282.8 2624.48 283.8C2624.88 284.8 2625.08 285.9 2625.08 287.1C2625.15 290.433 2625.15 293.033 2625.08 294.9C2625.08 296.767 2625.08 298.4 2625.08 299.8V330.5C2625.08 334.1 2625.08 337.1 2625.08 339.5C2625.08 341.9 2624.95 343.867 2624.68 345.4C2624.48 346.867 2624.08 347.967 2623.48 348.7C2622.95 349.433 2622.12 349.933 2620.98 350.2C2619.85 350.533 2618.35 350.7 2616.48 350.7C2614.68 350.7 2612.42 350.7 2609.68 350.7C2602.48 350.7 2596.78 349 2592.58 345.6C2588.45 342.2 2586.25 336.8 2585.98 329.4C2585.85 326.2 2586.25 323.267 2587.18 320.6C2588.12 317.933 2589.48 315.667 2591.28 313.8C2593.15 311.867 2595.42 310.4 2598.08 309.4C2600.82 308.333 2603.92 307.833 2607.38 307.9H2612.88V290C2612.88 288.933 2612.88 287.9 2612.88 286.9C2612.88 285.833 2612.98 284.867 2613.18 284C2613.38 283.067 2613.78 282.267 2614.38 281.6C2614.98 280.933 2615.88 280.433 2617.08 280.1ZM2599.68 335.6C2601.08 337.533 2603.62 338.6 2607.28 338.8C2608.02 338.867 2608.72 338.9 2609.38 338.9C2610.05 338.833 2610.65 338.733 2611.18 338.6C2611.78 338.533 2612.35 338.433 2612.88 338.3V319.8C2610.55 319.4 2608.42 319.167 2606.48 319.1C2604.62 318.967 2602.75 319.633 2600.88 321.1C2599.88 321.9 2599.12 322.933 2598.58 324.2C2598.05 325.4 2597.75 326.7 2597.68 328.1C2597.62 329.433 2597.75 330.767 2598.08 332.1C2598.42 333.433 2598.95 334.6 2599.68 335.6ZM2645.75 312.1C2645.75 313.967 2645.75 316.067 2645.75 318.4C2645.82 320.733 2645.85 323.167 2645.85 325.7C2645.85 328.167 2645.85 330.633 2645.85 333.1C2645.85 335.5 2645.82 337.733 2645.75 339.8C2645.68 340.8 2645.58 341.9 2645.45 343.1C2645.32 344.233 2645.05 345.3 2644.65 346.3C2644.25 347.3 2643.62 348.133 2642.75 348.8C2641.95 349.4 2640.85 349.667 2639.45 349.6C2637.38 349.467 2635.88 348.567 2634.95 346.9C2634.08 345.233 2633.58 342.9 2633.45 339.9C2633.45 338.367 2633.42 336.6 2633.35 334.6C2633.35 332.6 2633.32 330.567 2633.25 328.5C2633.25 326.433 2633.25 324.433 2633.25 322.5C2633.25 320.5 2633.25 318.7 2633.25 317.1C2633.25 316.167 2633.22 315.033 2633.15 313.7C2633.15 312.367 2633.18 311 2633.25 309.6C2633.32 308.2 2633.48 306.867 2633.75 305.6C2634.02 304.267 2634.45 303.167 2635.05 302.3C2635.52 301.767 2636.18 301.367 2637.05 301.1C2637.92 300.767 2638.82 300.6 2639.75 300.6C2640.75 300.6 2641.68 300.767 2642.55 301.1C2643.48 301.433 2644.15 301.9 2644.55 302.5C2644.82 302.9 2645.02 303.467 2645.15 304.2C2645.28 304.933 2645.38 305.767 2645.45 306.7C2645.58 307.567 2645.65 308.5 2645.65 309.5C2645.72 310.433 2645.75 311.3 2645.75 312.1ZM2641.95 291.9C2639.88 292.433 2638.15 292.233 2636.75 291.3C2635.42 290.3 2634.58 288.833 2634.25 286.9C2633.98 285.5 2634.08 284.267 2634.55 283.2C2635.02 282.133 2635.72 281.333 2636.65 280.8C2637.58 280.2 2638.65 279.933 2639.85 280C2641.05 280.067 2642.25 280.533 2643.45 281.4C2644.58 282.2 2645.38 283.133 2645.85 284.2C2646.38 285.267 2646.55 286.3 2646.35 287.3C2646.22 288.3 2645.78 289.233 2645.05 290.1C2644.32 290.9 2643.28 291.5 2641.95 291.9ZM2697.24 305.9C2697.77 307.167 2697.8 308.567 2697.34 310.1C2696.94 311.633 2696.17 312.633 2695.04 313.1C2694.44 313.367 2693.64 313.6 2692.64 313.8C2691.64 313.933 2690.54 314.067 2689.34 314.2C2688.2 314.333 2687.07 314.433 2685.94 314.5C2684.8 314.567 2683.84 314.6 2683.04 314.6C2683.1 316.6 2683.17 318.667 2683.24 320.8C2683.3 322.867 2683.37 324.9 2683.44 326.9C2683.5 328.9 2683.54 330.833 2683.54 332.7C2683.54 334.5 2683.5 336.133 2683.44 337.6C2683.44 338.6 2683.44 339.767 2683.44 341.1C2683.44 342.367 2683.34 343.6 2683.14 344.8C2683 346 2682.77 347.067 2682.44 348C2682.1 348.867 2681.6 349.433 2680.94 349.7C2678.87 350.567 2676.97 350.8 2675.24 350.4C2673.57 350.067 2672.37 349.367 2671.64 348.3C2671.1 347.433 2670.7 346.433 2670.44 345.3C2670.17 344.1 2669.97 342.9 2669.84 341.7C2669.77 340.433 2669.74 339.233 2669.74 338.1C2669.8 336.9 2669.84 335.867 2669.84 335C2669.9 332.2 2669.94 329.033 2669.94 325.5C2670 321.9 2670.04 318.3 2670.04 314.7H2668.54C2667.74 314.7 2666.7 314.7 2665.44 314.7C2664.24 314.633 2663 314.533 2661.74 314.4C2660.54 314.2 2659.4 313.967 2658.34 313.7C2657.27 313.367 2656.5 312.9 2656.04 312.3C2655.3 311.433 2654.84 310.5 2654.64 309.5C2654.5 308.5 2654.57 307.567 2654.84 306.7C2655.17 305.767 2655.67 304.967 2656.34 304.3C2657 303.567 2657.77 303.1 2658.64 302.9C2659.84 302.567 2661.54 302.4 2663.74 302.4C2665.94 302.333 2668 302.333 2669.94 302.4C2669.87 301.733 2669.84 301.1 2669.84 300.5C2669.84 299.833 2669.8 299.2 2669.74 298.6C2669.67 297.8 2669.64 296.8 2669.64 295.6C2669.64 294.333 2669.7 293.1 2669.84 291.9C2670.04 290.633 2670.34 289.467 2670.74 288.4C2671.14 287.267 2671.7 286.4 2672.44 285.8C2673.44 285 2674.44 284.567 2675.44 284.5C2676.5 284.367 2677.47 284.5 2678.34 284.9C2679.27 285.3 2680.04 285.9 2680.64 286.7C2681.3 287.433 2681.77 288.267 2682.04 289.2C2682.24 290 2682.4 290.967 2682.54 292.1C2682.67 293.167 2682.74 294.3 2682.74 295.5C2682.8 296.7 2682.84 297.9 2682.84 299.1C2682.84 300.3 2682.84 301.4 2682.84 302.4H2683.84C2684.84 302.4 2686 302.367 2687.34 302.3C2688.67 302.233 2689.97 302.267 2691.24 302.4C2692.57 302.533 2693.77 302.867 2694.84 303.4C2695.9 303.867 2696.7 304.7 2697.24 305.9ZM2759.68 305C2761.62 305.8 2763.38 306.967 2764.98 308.5C2766.58 309.967 2767.95 311.667 2769.08 313.6C2770.28 315.533 2771.18 317.633 2771.78 319.9C2772.45 322.1 2772.78 324.333 2772.78 326.6C2772.85 330 2772.05 333.2 2770.38 336.2C2768.78 339.2 2766.15 341.5 2762.48 343.1C2759.68 344.233 2756.78 345.1 2753.78 345.7C2750.85 346.233 2747.78 346.6 2744.58 346.8V365.1C2744.58 365.5 2744.52 365.867 2744.38 366.2C2744.32 366.533 2744.28 366.867 2744.28 367.2C2744.15 367.867 2743.98 368.467 2743.78 369C2743.65 369.533 2743.45 370.1 2743.18 370.7C2742.92 371.1 2742.65 371.467 2742.38 371.8C2742.12 372.133 2741.82 372.467 2741.48 372.8C2739.88 373.6 2738.22 373.767 2736.48 373.3C2735.42 373.233 2734.55 372.9 2733.88 372.3C2733.28 371.7 2732.85 371.067 2732.58 370.4C2732.32 369.733 2732.08 368.967 2731.88 368.1C2731.82 367.767 2731.75 367.433 2731.68 367.1C2731.68 366.833 2731.68 366.533 2731.68 366.2V310.5C2731.68 310.1 2731.68 309.7 2731.68 309.3C2731.75 308.833 2731.82 308.367 2731.88 307.9C2731.95 307.1 2732.15 306.3 2732.48 305.5C2733.08 303.833 2734.32 302.7 2736.18 302.1C2738.05 301.5 2740.15 301.233 2742.48 301.3C2744.08 301.367 2745.72 301.533 2747.38 301.8C2749.12 302.067 2750.75 302.4 2752.28 302.8C2753.88 303.133 2755.32 303.5 2756.58 303.9C2757.85 304.3 2758.88 304.667 2759.68 305ZM2759.88 326.6C2760.15 324.733 2759.92 323.167 2759.18 321.9C2758.52 320.567 2757.55 319.5 2756.28 318.7C2755.02 317.833 2753.55 317.167 2751.88 316.7C2750.28 316.233 2748.68 315.9 2747.08 315.7C2746.88 315.633 2746.55 315.6 2746.08 315.6C2745.68 315.6 2745.22 315.6 2744.68 315.6C2744.68 317.733 2744.68 319.8 2744.68 321.8C2744.75 323.733 2744.75 325.833 2744.68 328.1V334.8C2746.22 334.733 2747.82 334.567 2749.48 334.3C2751.22 334.033 2752.82 333.6 2754.28 333C2755.75 332.4 2756.98 331.6 2757.98 330.6C2759.05 329.6 2759.68 328.267 2759.88 326.6ZM2781 314.6C2781 313.8 2781 312.9 2781 311.9C2781 310.833 2781.04 309.767 2781.1 308.7C2781.17 307.567 2781.27 306.5 2781.4 305.5C2781.6 304.433 2781.87 303.5 2782.2 302.7C2782.74 301.5 2783.57 300.7 2784.7 300.3C2785.84 299.833 2787.07 299.633 2788.4 299.7C2789.8 299.7 2790.9 299.933 2791.7 300.4C2792.5 300.867 2793.1 301.5 2793.5 302.3C2793.9 303.033 2794.14 303.9 2794.2 304.9C2794.34 305.833 2794.4 306.833 2794.4 307.9C2795 306.833 2795.8 305.967 2796.8 305.3C2797.87 304.633 2798.94 304.1 2800 303.7C2801.07 303.3 2802.04 303.033 2802.9 302.9C2803.77 302.7 2804.27 302.6 2804.4 302.6C2806.07 302.467 2807.57 302.433 2808.9 302.5C2810.3 302.567 2811.84 302.867 2813.5 303.4C2814.57 303.8 2815.67 304.367 2816.8 305.1C2817.94 305.767 2818.94 306.567 2819.8 307.5C2820.67 308.433 2821.24 309.467 2821.5 310.6C2821.84 311.667 2821.7 312.8 2821.1 314C2820.17 315.667 2819.14 316.5 2818 316.5C2816.87 316.433 2815.64 316.233 2814.3 315.9C2813.57 315.767 2812.7 315.467 2811.7 315C2810.7 314.533 2809.84 314.233 2809.1 314.1C2806.84 313.767 2804.84 313.933 2803.1 314.6C2801.37 315.267 2799.87 316.067 2798.6 317C2797.14 318.133 2795.87 319.433 2794.8 320.9V335.3C2794.8 337.1 2794.77 338.967 2794.7 340.9C2794.7 342.833 2794.44 344.6 2793.9 346.2C2793.44 347.733 2792.6 349 2791.4 350C2790.27 350.933 2788.6 351.333 2786.4 351.2C2785.2 351.133 2784.14 350.567 2783.2 349.5C2782.27 348.367 2781.7 347.267 2781.5 346.2C2781.37 345.2 2781.27 344 2781.2 342.6C2781.14 341.2 2781.07 339.733 2781 338.2C2781 336.667 2781 335.133 2781 333.6C2781 332 2781 330.533 2781 329.2V314.6ZM2842.33 312.1C2842.33 313.967 2842.33 316.067 2842.33 318.4C2842.4 320.733 2842.43 323.167 2842.43 325.7C2842.43 328.167 2842.43 330.633 2842.43 333.1C2842.43 335.5 2842.4 337.733 2842.33 339.8C2842.26 340.8 2842.16 341.9 2842.03 343.1C2841.9 344.233 2841.63 345.3 2841.23 346.3C2840.83 347.3 2840.2 348.133 2839.33 348.8C2838.53 349.4 2837.43 349.667 2836.03 349.6C2833.96 349.467 2832.46 348.567 2831.53 346.9C2830.66 345.233 2830.16 342.9 2830.03 339.9C2830.03 338.367 2830 336.6 2829.93 334.6C2829.93 332.6 2829.9 330.567 2829.83 328.5C2829.83 326.433 2829.83 324.433 2829.83 322.5C2829.83 320.5 2829.83 318.7 2829.83 317.1C2829.83 316.167 2829.8 315.033 2829.73 313.7C2829.73 312.367 2829.76 311 2829.83 309.6C2829.9 308.2 2830.06 306.867 2830.33 305.6C2830.6 304.267 2831.03 303.167 2831.63 302.3C2832.1 301.767 2832.76 301.367 2833.63 301.1C2834.5 300.767 2835.4 300.6 2836.33 300.6C2837.33 300.6 2838.26 300.767 2839.13 301.1C2840.06 301.433 2840.73 301.9 2841.13 302.5C2841.4 302.9 2841.6 303.467 2841.73 304.2C2841.86 304.933 2841.96 305.767 2842.03 306.7C2842.16 307.567 2842.23 308.5 2842.23 309.5C2842.3 310.433 2842.33 311.3 2842.33 312.1ZM2838.53 291.9C2836.46 292.433 2834.73 292.233 2833.33 291.3C2832 290.3 2831.16 288.833 2830.83 286.9C2830.56 285.5 2830.66 284.267 2831.13 283.2C2831.6 282.133 2832.3 281.333 2833.23 280.8C2834.16 280.2 2835.23 279.933 2836.43 280C2837.63 280.067 2838.83 280.533 2840.03 281.4C2841.16 282.2 2841.96 283.133 2842.43 284.2C2842.96 285.267 2843.13 286.3 2842.93 287.3C2842.8 288.3 2842.36 289.233 2841.63 290.1C2840.9 290.9 2839.86 291.5 2838.53 291.9ZM2888.32 311.5C2888.85 312.433 2889.12 313.433 2889.12 314.5C2889.18 315.567 2888.95 316.567 2888.42 317.5C2887.82 318.7 2886.95 319.533 2885.82 320C2884.75 320.4 2883.55 320.433 2882.22 320.1C2881.62 319.967 2881.08 319.733 2880.62 319.4C2880.15 319.067 2879.65 318.733 2879.12 318.4C2878.65 318 2878.08 317.633 2877.42 317.3C2876.82 316.967 2876.02 316.733 2875.02 316.6C2874.02 316.467 2872.92 316.467 2871.72 316.6C2870.58 316.733 2869.55 317 2868.62 317.4C2867.15 318.133 2865.98 319.267 2865.12 320.8C2864.25 322.267 2863.68 323.867 2863.42 325.6C2863.15 327.267 2863.18 328.967 2863.52 330.7C2863.92 332.433 2864.65 333.9 2865.72 335.1C2866.52 336.033 2867.55 336.8 2868.82 337.4C2870.15 338 2871.42 338.367 2872.62 338.5C2873.75 338.633 2874.88 338.633 2876.02 338.5C2877.15 338.3 2878.25 338.033 2879.32 337.7C2880.12 337.367 2881.02 336.933 2882.02 336.4C2883.02 335.8 2883.98 335.433 2884.92 335.3C2886.12 335.3 2887.05 335.633 2887.72 336.3C2888.38 336.9 2888.85 337.667 2889.12 338.6C2889.38 339.467 2889.42 340.4 2889.22 341.4C2889.08 342.4 2888.72 343.267 2888.12 344C2887.32 345 2886.18 345.967 2884.72 346.9C2883.25 347.767 2881.85 348.4 2880.52 348.8C2878.92 349.333 2877.12 349.633 2875.12 349.7C2873.18 349.767 2871.35 349.7 2869.62 349.5C2868.82 349.367 2867.98 349.2 2867.12 349C2866.25 348.8 2865.42 348.567 2864.62 348.3C2861.68 347.233 2859.22 345.733 2857.22 343.8C2855.28 341.8 2853.78 339.567 2852.72 337.1C2851.72 334.633 2851.15 332 2851.02 329.2C2850.88 326.4 2851.22 323.633 2852.02 320.9C2852.75 318.3 2853.65 316.1 2854.72 314.3C2855.85 312.5 2857.15 311.033 2858.62 309.9C2860.15 308.7 2861.85 307.767 2863.72 307.1C2865.58 306.367 2867.65 305.733 2869.92 305.2C2872.25 304.733 2874.72 304.733 2877.32 305.2C2879.92 305.667 2882.25 306.533 2884.32 307.8C2885.92 308.667 2887.25 309.9 2888.32 311.5ZM2931.91 336.3C2932.71 336.1 2933.51 335.967 2934.31 335.9C2935.18 335.833 2935.94 335.933 2936.61 336.2C2937.34 336.467 2937.94 336.933 2938.41 337.6C2938.88 338.2 2939.11 339.067 2939.11 340.2C2939.11 341 2938.91 341.767 2938.51 342.5C2938.11 343.233 2937.61 343.9 2937.01 344.5C2936.41 345.1 2935.74 345.633 2935.01 346.1C2934.28 346.5 2933.58 346.833 2932.91 347.1C2930.98 347.967 2928.74 348.633 2926.21 349.1C2923.74 349.567 2921.18 349.733 2918.51 349.6C2914.91 349.467 2911.44 348.767 2908.11 347.5C2904.84 346.167 2902.28 344 2900.41 341C2898.68 338.067 2897.64 334.8 2897.31 331.2C2896.98 327.6 2897.14 324.2 2897.81 321C2898.54 317.133 2899.78 314 2901.51 311.6C2903.31 309.133 2905.44 307.167 2907.91 305.7C2910.91 303.967 2914.28 303.067 2918.01 303C2921.74 302.933 2925.31 303.667 2928.71 305.2C2930.98 306.2 2933.01 307.567 2934.81 309.3C2936.61 310.967 2937.98 313 2938.91 315.4C2939.18 316 2939.38 316.733 2939.51 317.6C2939.71 318.467 2939.84 319.4 2939.91 320.4C2939.98 321.333 2939.98 322.267 2939.91 323.2C2939.84 324.133 2939.68 324.967 2939.41 325.7C2939.01 326.9 2938.51 327.833 2937.91 328.5C2937.31 329.167 2936.54 329.667 2935.61 330C2934.68 330.333 2933.54 330.567 2932.21 330.7C2930.94 330.767 2929.41 330.833 2927.61 330.9C2926.01 330.967 2924.51 331 2923.11 331C2921.71 331 2920.28 331 2918.81 331C2917.34 330.933 2915.81 330.9 2914.21 330.9C2912.68 330.833 2910.94 330.767 2909.01 330.7C2908.81 332.033 2908.98 333.2 2909.51 334.2C2910.11 335.133 2910.91 335.933 2911.91 336.6C2912.91 337.2 2914.04 337.667 2915.31 338C2916.58 338.333 2917.81 338.533 2919.01 338.6C2921.28 338.733 2923.44 338.567 2925.51 338.1C2927.58 337.567 2929.71 336.967 2931.91 336.3ZM2927.61 316.9C2926.34 315.433 2925.01 314.367 2923.61 313.7C2922.54 313.233 2921.41 313.033 2920.21 313.1C2919.08 313.1 2917.98 313.267 2916.91 313.6C2914.98 314.067 2913.34 315.067 2912.01 316.6C2911.88 316.733 2911.64 317.067 2911.31 317.6C2910.98 318.067 2910.64 318.567 2910.31 319.1C2910.04 319.633 2909.84 320.133 2909.71 320.6C2909.58 321.067 2909.64 321.3 2909.91 321.3H2929.51C2929.44 320.367 2929.28 319.6 2929.01 319C2928.74 318.333 2928.28 317.633 2927.61 316.9Z" fill="#E4783E"/>
<path d="M2450 317.5L2974 325.5" stroke="#E4783E" stroke-width="12" stroke-linecap="round"/>
<g clip-path="url(#clip3_2380_14426)">
<path d="M2556.79 481.423C2557.84 479.594 2559 477.583 2560.06 475.754C2569.53 459.768 2579.3 443.704 2588.77 427.718C2589.83 425.889 2590.78 424.244 2592.02 422.521C2593.57 420.249 2595.81 417.641 2598.61 419.987C2599.78 420.91 2599.66 424.498 2598.9 426.25C2591.82 440.205 2584.66 453.871 2577.4 467.72C2575.78 470.935 2573.81 473.938 2573.55 478.181C2577.86 475.792 2581.91 473.009 2586.3 470.909C2588.35 469.898 2592.15 469.655 2593.59 470.972C2596.46 473.607 2593.98 477.053 2591.62 478.613C2580.52 486.836 2569.32 495.242 2557.52 502.57C2549.95 507.222 2544.46 504.05 2544.7 495.169C2544.93 483.354 2546.86 471.548 2548.22 459.896C2548.3 458.481 2550.64 457.393 2551.85 456.141C2553 457.536 2555.2 458.804 2555.3 460.325C2555.86 463.576 2555.27 467.136 2555.26 470.542C2555.14 474.131 2555.02 477.72 2555.01 481.126C2555.58 480.972 2556.24 481.106 2556.79 481.423Z" fill="#E4783E"/>
</g>
</g>
<defs>
<clipPath id="clip0_2380_14426">
<rect width="3033" height="1024" fill="white"/>
</clipPath>
<clipPath id="clip1_2380_14426">
<rect width="48" height="98" fill="white" transform="translate(2770.46 751.266) rotate(148.174)"/>
</clipPath>
<clipPath id="clip2_2380_14426">
<rect width="48" height="98" fill="white" transform="translate(1708.2 401) rotate(28.7913)"/>
</clipPath>
<clipPath id="clip3_2380_14426">
<rect width="48" height="98" fill="white" transform="translate(2578 408) rotate(30)"/>
</clipPath>
</defs>
</svg>
