<svg width="370" height="114" viewBox="0 0 370 114" fill="none" xmlns="http://www.w3.org/2000/svg">
<path d="M60.7415 17.4214V19.8334H59.873V13.3849H61.7765C62.1845 13.3849 62.5385 13.4329 62.8385 13.5289C63.1415 13.6219 63.392 13.7554 63.59 13.9294C63.788 14.1034 63.935 14.3134 64.031 14.5594C64.13 14.8054 64.1795 15.0799 64.1795 15.3829C64.1795 15.6829 64.127 15.9574 64.022 16.2064C63.917 16.4554 63.7625 16.6699 63.5585 16.8499C63.3575 17.0299 63.107 17.1709 62.807 17.2729C62.507 17.3719 62.1635 17.4214 61.7765 17.4214H60.7415ZM60.7415 16.7284H61.7765C62.0255 16.7284 62.2445 16.6954 62.4335 16.6294C62.6255 16.5634 62.786 16.4719 62.915 16.3549C63.044 16.2349 63.1415 16.0924 63.2075 15.9274C63.2735 15.7624 63.3065 15.5809 63.3065 15.3829C63.3065 14.9719 63.179 14.6509 62.924 14.4199C62.672 14.1889 62.2895 14.0734 61.7765 14.0734H60.7415V16.7284ZM65.852 15.2749V18.1819C65.852 18.5269 65.9315 18.7939 66.0905 18.9829C66.2495 19.1719 66.4895 19.2664 66.8105 19.2664C67.0445 19.2664 67.265 19.2109 67.472 19.0999C67.679 18.9889 67.8695 18.8344 68.0435 18.6364V15.2749H68.8445V19.8334H68.3675C68.2535 19.8334 68.1815 19.7779 68.1515 19.6669L68.0885 19.1764C67.8905 19.3954 67.6685 19.5724 67.4225 19.7074C67.1765 19.8394 66.8945 19.9054 66.5765 19.9054C66.3275 19.9054 66.107 19.8649 65.915 19.7839C65.726 19.6999 65.567 19.5829 65.438 19.4329C65.309 19.2829 65.2115 19.1014 65.1455 18.8884C65.0825 18.6754 65.051 18.4399 65.051 18.1819V15.2749H65.852ZM70.1869 19.8334V13.2049H70.9924V15.9319C71.1814 15.7129 71.3974 15.5374 71.6404 15.4054C71.8864 15.2704 72.1669 15.2029 72.4819 15.2029C72.7459 15.2029 72.9844 15.2524 73.1974 15.3514C73.4104 15.4504 73.5919 15.5989 73.7419 15.7969C73.8919 15.9919 74.0074 16.2349 74.0884 16.5259C74.1694 16.8139 74.2099 17.1469 74.2099 17.5249C74.2099 17.8609 74.1649 18.1744 74.0749 18.4654C73.9849 18.7534 73.8544 19.0039 73.6834 19.2169C73.5154 19.4269 73.3084 19.5934 73.0624 19.7164C72.8194 19.8364 72.5449 19.8964 72.2389 19.8964C71.9449 19.8964 71.6944 19.8394 71.4874 19.7254C71.2834 19.6114 71.1049 19.4524 70.9519 19.2484L70.9114 19.6624C70.8874 19.7764 70.8184 19.8334 70.7044 19.8334H70.1869ZM72.2209 15.8419C71.9599 15.8419 71.7304 15.9019 71.5324 16.0219C71.3374 16.1419 71.1574 16.3114 70.9924 16.5304V18.7354C71.1364 18.9334 71.2954 19.0729 71.4694 19.1539C71.6464 19.2349 71.8429 19.2754 72.0589 19.2754C72.4849 19.2754 72.8119 19.1239 73.0399 18.8209C73.2679 18.5179 73.3819 18.0859 73.3819 17.5249C73.3819 17.2279 73.3549 16.9729 73.3009 16.7599C73.2499 16.5469 73.1749 16.3729 73.0759 16.2379C72.9769 16.0999 72.8554 15.9994 72.7114 15.9364C72.5674 15.8734 72.4039 15.8419 72.2209 15.8419ZM76.0783 13.2049V19.8334H75.2773V13.2049H76.0783ZM78.381 15.2749V19.8334H77.58V15.2749H78.381ZM78.561 13.8439C78.561 13.9219 78.5445 13.9954 78.5115 14.0644C78.4815 14.1304 78.4395 14.1904 78.3855 14.2444C78.3345 14.2954 78.2745 14.3359 78.2055 14.3659C78.1365 14.3959 78.063 14.4109 77.985 14.4109C77.907 14.4109 77.8335 14.3959 77.7645 14.3659C77.6985 14.3359 77.6385 14.2954 77.5845 14.2444C77.5335 14.1904 77.493 14.1304 77.463 14.0644C77.433 13.9954 77.418 13.9219 77.418 13.8439C77.418 13.7659 77.433 13.6924 77.463 13.6234C77.493 13.5514 77.5335 13.4899 77.5845 13.4389C77.6385 13.3849 77.6985 13.3429 77.7645 13.3129C77.8335 13.2829 77.907 13.2679 77.985 13.2679C78.063 13.2679 78.1365 13.2829 78.2055 13.3129C78.2745 13.3429 78.3345 13.3849 78.3855 13.4389C78.4395 13.4899 78.4815 13.5514 78.5115 13.6234C78.5445 13.6924 78.561 13.7659 78.561 13.8439ZM82.9022 16.0849C82.8782 16.1179 82.8542 16.1434 82.8302 16.1614C82.8062 16.1794 82.7717 16.1884 82.7267 16.1884C82.6817 16.1884 82.6322 16.1704 82.5782 16.1344C82.5272 16.0954 82.4612 16.0534 82.3802 16.0084C82.2992 15.9634 82.2002 15.9229 82.0832 15.8869C81.9692 15.8479 81.8282 15.8284 81.6602 15.8284C81.4382 15.8284 81.2417 15.8689 81.0707 15.9499C80.8997 16.0279 80.7557 16.1419 80.6387 16.2919C80.5247 16.4419 80.4377 16.6234 80.3777 16.8364C80.3207 17.0494 80.2922 17.2879 80.2922 17.5519C80.2922 17.8279 80.3237 18.0739 80.3867 18.2899C80.4497 18.5029 80.5382 18.6829 80.6522 18.8299C80.7662 18.9739 80.9042 19.0849 81.0662 19.1629C81.2312 19.2379 81.4157 19.2754 81.6197 19.2754C81.8147 19.2754 81.9752 19.2529 82.1012 19.2079C82.2272 19.1599 82.3322 19.1074 82.4162 19.0504C82.5002 18.9934 82.5692 18.9424 82.6232 18.8974C82.6772 18.8494 82.7312 18.8254 82.7852 18.8254C82.8542 18.8254 82.9052 18.8509 82.9382 18.9019L83.1632 19.1944C82.9652 19.4374 82.7177 19.6159 82.4207 19.7299C82.1237 19.8409 81.8102 19.8964 81.4802 19.8964C81.1952 19.8964 80.9297 19.8439 80.6837 19.7389C80.4407 19.6339 80.2292 19.4824 80.0492 19.2844C79.8692 19.0834 79.7267 18.8374 79.6217 18.5464C79.5197 18.2554 79.4687 17.9239 79.4687 17.5519C79.4687 17.2129 79.5152 16.8994 79.6082 16.6114C79.7042 16.3234 79.8422 16.0759 80.0222 15.8689C80.2052 15.6589 80.4302 15.4954 80.6972 15.3784C80.9642 15.2614 81.2702 15.2029 81.6152 15.2029C81.9332 15.2029 82.2152 15.2554 82.4612 15.3604C82.7072 15.4624 82.9247 15.6079 83.1137 15.7969L82.9022 16.0849ZM86.8951 19.8334H86.0221V13.3849H86.8951V19.8334ZM88.4939 19.8334V15.2749H88.9709C89.0849 15.2749 89.1569 15.3304 89.1869 15.4414L89.2499 15.9364C89.4479 15.7174 89.6684 15.5404 89.9114 15.4054C90.1574 15.2704 90.4409 15.2029 90.7619 15.2029C91.0109 15.2029 91.2299 15.2449 91.4189 15.3289C91.6109 15.4099 91.7699 15.5269 91.8959 15.6799C92.0249 15.8299 92.1224 16.0114 92.1884 16.2244C92.2544 16.4374 92.2874 16.6729 92.2874 16.9309V19.8334H91.4864V16.9309C91.4864 16.5859 91.4069 16.3189 91.2479 16.1299C91.0919 15.9379 90.8519 15.8419 90.5279 15.8419C90.2909 15.8419 90.0689 15.8989 89.8619 16.0129C89.6579 16.1269 89.4689 16.2814 89.2949 16.4764V19.8334H88.4939ZM93.6749 19.8334V15.9589L93.1709 15.9004C93.1079 15.8854 93.0554 15.8629 93.0134 15.8329C92.9744 15.7999 92.9549 15.7534 92.9549 15.6934V15.3649H93.6749V14.9239C93.6749 14.6629 93.7109 14.4319 93.7829 14.2309C93.8579 14.0269 93.9629 13.8559 94.0979 13.7179C94.2359 13.5769 94.4009 13.4704 94.5929 13.3984C94.7849 13.3264 95.0009 13.2904 95.2409 13.2904C95.4449 13.2904 95.6339 13.3204 95.8079 13.3804L95.7899 13.7809C95.7869 13.8409 95.7614 13.8769 95.7134 13.8889C95.6654 13.9009 95.5979 13.9069 95.5109 13.9069H95.3714C95.2334 13.9069 95.1074 13.9249 94.9934 13.9609C94.8824 13.9969 94.7864 14.0554 94.7054 14.1364C94.6244 14.2174 94.5614 14.3239 94.5164 14.4559C94.4744 14.5879 94.4534 14.7514 94.4534 14.9464V15.3649H95.7719V15.9454H94.4804V19.8334H93.6749ZM98.3721 15.2029C98.7051 15.2029 99.0051 15.2584 99.2721 15.3694C99.5421 15.4804 99.7701 15.6379 99.9561 15.8419C100.145 16.0459 100.289 16.2934 100.388 16.5844C100.49 16.8724 100.541 17.1949 100.541 17.5519C100.541 17.9119 100.49 18.2359 100.388 18.5239C100.289 18.8119 100.145 19.0579 99.9561 19.2619C99.7701 19.4659 99.5421 19.6234 99.2721 19.7344C99.0051 19.8424 98.7051 19.8964 98.3721 19.8964C98.0391 19.8964 97.7376 19.8424 97.4676 19.7344C97.2006 19.6234 96.9726 19.4659 96.7836 19.2619C96.5946 19.0579 96.4491 18.8119 96.3471 18.5239C96.2451 18.2359 96.1941 17.9119 96.1941 17.5519C96.1941 17.1949 96.2451 16.8724 96.3471 16.5844C96.4491 16.2934 96.5946 16.0459 96.7836 15.8419C96.9726 15.6379 97.2006 15.4804 97.4676 15.3694C97.7376 15.2584 98.0391 15.2029 98.3721 15.2029ZM98.3721 19.2709C98.8221 19.2709 99.1581 19.1209 99.3801 18.8209C99.6021 18.5179 99.7131 18.0964 99.7131 17.5564C99.7131 17.0134 99.6021 16.5904 99.3801 16.2874C99.1581 15.9844 98.8221 15.8329 98.3721 15.8329C98.1441 15.8329 97.9461 15.8719 97.7781 15.9499C97.6101 16.0279 97.4691 16.1404 97.3551 16.2874C97.2441 16.4344 97.1601 16.6159 97.1031 16.8319C97.0491 17.0449 97.0221 17.2864 97.0221 17.5564C97.0221 17.8264 97.0491 18.0679 97.1031 18.2809C97.1601 18.4939 97.2441 18.6739 97.3551 18.8209C97.4691 18.9649 97.6101 19.0759 97.7781 19.1539C97.9461 19.2319 98.1441 19.2709 98.3721 19.2709Z" fill="#505050"/>
<rect x="140.75" y="1.08337" width="30.5" height="30.5" rx="11.25" fill="#FFF1CD"/>
<rect x="140.75" y="1.08337" width="30.5" height="30.5" rx="11.25" stroke="#FFE6AA" stroke-width="1.5"/>
<rect x="191.083" y="1.08337" width="30.5" height="30.5" rx="11.25" fill="#FFF1CD"/>
<rect x="191.083" y="1.08337" width="30.5" height="30.5" rx="11.25" stroke="#FFE6AA" stroke-width="1.5"/>
<rect x="241.417" y="1.08337" width="30.5" height="30.5" rx="11.25" fill="#FFF1CD"/>
<rect x="241.417" y="1.08337" width="30.5" height="30.5" rx="11.25" stroke="#FFE6AA" stroke-width="1.5"/>
<rect x="291.75" y="1.08337" width="30.5" height="30.5" rx="11.25" fill="#FFF1CD"/>
<rect x="291.75" y="1.08337" width="30.5" height="30.5" rx="11.25" stroke="#FFE6AA" stroke-width="1.5"/>
<path d="M12 36.6666H364" stroke="#505050" stroke-width="0.4" stroke-dasharray="4 6"/>
<path d="M63.086 55.0595C63.059 55.1045 63.0305 55.139 63.0005 55.163C62.9705 55.184 62.9315 55.1945 62.8835 55.1945C62.8325 55.1945 62.7725 55.169 62.7035 55.118C62.6375 55.067 62.552 55.0115 62.447 54.9515C62.345 54.8885 62.2205 54.8315 62.0735 54.7805C61.9295 54.7295 61.754 54.704 61.547 54.704C61.352 54.704 61.1795 54.731 61.0295 54.785C60.8795 54.836 60.7535 54.9065 60.6515 54.9965C60.5525 55.0865 60.4775 55.193 60.4265 55.316C60.3755 55.436 60.35 55.5665 60.35 55.7075C60.35 55.8875 60.3935 56.0375 60.4805 56.1575C60.5705 56.2745 60.6875 56.375 60.8315 56.459C60.9785 56.543 61.1435 56.6165 61.3265 56.6795C61.5125 56.7395 61.7015 56.8025 61.8935 56.8685C62.0885 56.9345 62.2775 57.0095 62.4605 57.0935C62.6465 57.1745 62.8115 57.278 62.9555 57.404C63.1025 57.53 63.2195 57.6845 63.3065 57.8675C63.3965 58.0505 63.4415 58.2755 63.4415 58.5425C63.4415 58.8245 63.3935 59.09 63.2975 59.339C63.2015 59.585 63.0605 59.7995 62.8745 59.9825C62.6915 60.1655 62.465 60.3095 62.195 60.4145C61.928 60.5195 61.6235 60.572 61.2815 60.572C60.8645 60.572 60.4835 60.497 60.1385 60.347C59.7965 60.194 59.504 59.9885 59.261 59.7305L59.513 59.3165C59.537 59.2835 59.5655 59.2565 59.5985 59.2355C59.6345 59.2115 59.6735 59.1995 59.7155 59.1995C59.7785 59.1995 59.8505 59.234 59.9315 59.303C60.0125 59.369 60.113 59.4425 60.233 59.5235C60.356 59.6045 60.503 59.6795 60.674 59.7485C60.848 59.8145 61.0595 59.8475 61.3085 59.8475C61.5155 59.8475 61.7 59.819 61.862 59.762C62.024 59.705 62.1605 59.6255 62.2715 59.5235C62.3855 59.4185 62.4725 59.294 62.5325 59.15C62.5925 59.006 62.6225 58.8455 62.6225 58.6685C62.6225 58.4735 62.5775 58.3145 62.4875 58.1915C62.4005 58.0655 62.285 57.9605 62.141 57.8765C61.997 57.7925 61.832 57.722 61.646 57.665C61.463 57.605 61.274 57.545 61.079 57.485C60.887 57.422 60.698 57.35 60.512 57.269C60.329 57.188 60.1655 57.083 60.0215 56.954C59.8775 56.825 59.7605 56.6645 59.6705 56.4725C59.5835 56.2775 59.54 56.0375 59.54 55.7525C59.54 55.5245 59.5835 55.304 59.6705 55.091C59.7605 54.878 59.8895 54.689 60.0575 54.524C60.2255 54.359 60.4325 54.227 60.6785 54.128C60.9275 54.029 61.2125 53.9795 61.5335 53.9795C61.8935 53.9795 62.222 54.0365 62.519 54.1505C62.816 54.2645 63.0755 54.4295 63.2975 54.6455L63.086 55.0595ZM64.4295 60.5V53.8715H65.2305V56.5535C65.4255 56.3465 65.6415 56.1815 65.8785 56.0585C66.1155 55.9325 66.3885 55.8695 66.6975 55.8695C66.9465 55.8695 67.1655 55.9115 67.3545 55.9955C67.5465 56.0765 67.7055 56.1935 67.8315 56.3465C67.9605 56.4965 68.058 56.678 68.124 56.891C68.19 57.104 68.223 57.3395 68.223 57.5975V60.5H67.422V57.5975C67.422 57.2525 67.3425 56.9855 67.1835 56.7965C67.0275 56.6045 66.7875 56.5085 66.4635 56.5085C66.2265 56.5085 66.0045 56.5655 65.7975 56.6795C65.5935 56.7935 65.4045 56.948 65.2305 57.143V60.5H64.4295ZM72.7784 60.5H72.4229C72.3449 60.5 72.2819 60.488 72.2339 60.464C72.1859 60.44 72.1544 60.389 72.1394 60.311L72.0494 59.888C71.9294 59.996 71.8124 60.0935 71.6984 60.1805C71.5844 60.2645 71.4644 60.3365 71.3384 60.3965C71.2124 60.4535 71.0774 60.497 70.9334 60.527C70.7924 60.557 70.6349 60.572 70.4609 60.572C70.2839 60.572 70.1174 60.548 69.9614 60.5C69.8084 60.449 69.6749 60.374 69.5609 60.275C69.4469 60.176 69.3554 60.0515 69.2864 59.9015C69.2204 59.7485 69.1874 59.5685 69.1874 59.3615C69.1874 59.1815 69.2369 59.009 69.3359 58.844C69.4349 58.676 69.5939 58.5275 69.8129 58.3985C70.0349 58.2695 70.3244 58.1645 70.6814 58.0835C71.0384 57.9995 71.4749 57.9515 71.9909 57.9395V57.584C71.9909 57.23 71.9144 56.963 71.7614 56.783C71.6114 56.6 71.3879 56.5085 71.0909 56.5085C70.8959 56.5085 70.7309 56.534 70.5959 56.585C70.4639 56.633 70.3484 56.6885 70.2494 56.7515C70.1534 56.8115 70.0694 56.867 69.9974 56.918C69.9284 56.966 69.8594 56.99 69.7904 56.99C69.7364 56.99 69.6884 56.9765 69.6464 56.9495C69.6074 56.9195 69.5759 56.8835 69.5519 56.8415L69.4079 56.585C69.6599 56.342 69.9314 56.1605 70.2224 56.0405C70.5134 55.9205 70.8359 55.8605 71.1899 55.8605C71.4449 55.8605 71.6714 55.9025 71.8694 55.9865C72.0674 56.0705 72.2339 56.1875 72.3689 56.3375C72.5039 56.4875 72.6059 56.669 72.6749 56.882C72.7439 57.095 72.7784 57.329 72.7784 57.584V60.5ZM70.6994 60.0095C70.8404 60.0095 70.9694 59.996 71.0864 59.969C71.2034 59.939 71.3129 59.8985 71.4149 59.8475C71.5199 59.7935 71.6189 59.729 71.7119 59.654C71.8079 59.579 71.9009 59.4935 71.9909 59.3975V58.448C71.6219 58.46 71.3084 58.49 71.0504 58.538C70.7924 58.583 70.5824 58.643 70.4204 58.718C70.2584 58.793 70.1399 58.8815 70.0649 58.9835C69.9929 59.0855 69.9569 59.1995 69.9569 59.3255C69.9569 59.4455 69.9764 59.549 70.0154 59.636C70.0544 59.723 70.1069 59.795 70.1729 59.852C70.2389 59.906 70.3169 59.9465 70.4069 59.9735C70.4969 59.9975 70.5944 60.0095 70.6994 60.0095ZM73.992 60.5V55.9415H74.451C74.538 55.9415 74.598 55.958 74.631 55.991C74.664 56.024 74.6865 56.081 74.6985 56.162L74.7525 56.873C74.9085 56.555 75.1005 56.3075 75.3285 56.1305C75.5595 55.9505 75.8295 55.8605 76.1385 55.8605C76.2645 55.8605 76.3785 55.8755 76.4805 55.9055C76.5825 55.9325 76.677 55.9715 76.764 56.0225L76.6605 56.621C76.6395 56.696 76.593 56.7335 76.521 56.7335C76.479 56.7335 76.4145 56.72 76.3275 56.693C76.2405 56.663 76.119 56.648 75.963 56.648C75.684 56.648 75.45 56.729 75.261 56.891C75.075 57.053 74.919 57.2885 74.793 57.5975V60.5H73.992ZM79.4263 55.8695C79.6993 55.8695 79.9513 55.916 80.1823 56.009C80.4133 56.099 80.6128 56.231 80.7808 56.405C80.9488 56.576 81.0793 56.789 81.1723 57.044C81.2683 57.296 81.3163 57.584 81.3163 57.908C81.3163 58.034 81.3028 58.118 81.2758 58.16C81.2488 58.202 81.1978 58.223 81.1228 58.223H78.0898C78.0958 58.511 78.1348 58.7615 78.2068 58.9745C78.2788 59.1875 78.3778 59.366 78.5038 59.51C78.6298 59.651 78.7798 59.7575 78.9538 59.8295C79.1278 59.8985 79.3228 59.933 79.5388 59.933C79.7398 59.933 79.9123 59.9105 80.0563 59.8655C80.2033 59.8175 80.3293 59.7665 80.4343 59.7125C80.5393 59.6585 80.6263 59.609 80.6953 59.564C80.7673 59.516 80.8288 59.492 80.8798 59.492C80.9458 59.492 80.9968 59.5175 81.0328 59.5685L81.2578 59.861C81.1588 59.981 81.0403 60.086 80.9023 60.176C80.7643 60.263 80.6158 60.335 80.4568 60.392C80.3008 60.449 80.1388 60.491 79.9708 60.518C79.8028 60.548 79.6363 60.563 79.4713 60.563C79.1563 60.563 78.8653 60.5105 78.5983 60.4055C78.3343 60.2975 78.1048 60.1415 77.9098 59.9375C77.7178 59.7305 77.5678 59.4755 77.4598 59.1725C77.3518 58.8695 77.2978 58.5215 77.2978 58.1285C77.2978 57.8105 77.3458 57.5135 77.4418 57.2375C77.5408 56.9615 77.6818 56.723 77.8648 56.522C78.0478 56.318 78.2713 56.159 78.5353 56.045C78.7993 55.928 79.0963 55.8695 79.4263 55.8695ZM79.4443 56.459C79.0573 56.459 78.7528 56.5715 78.5308 56.7965C78.3088 57.0185 78.1708 57.3275 78.1168 57.7235H80.5963C80.5963 57.5375 80.5708 57.368 80.5198 57.215C80.4688 57.059 80.3938 56.9255 80.2948 56.8145C80.1958 56.7005 80.0743 56.6135 79.9303 56.5535C79.7893 56.4905 79.6273 56.459 79.4443 56.459ZM85.5501 60.5C85.4361 60.5 85.3641 60.4445 85.3341 60.3335L85.2621 59.78C85.0671 60.017 84.8436 60.2075 84.5916 60.3515C84.3426 60.4925 84.0561 60.563 83.7321 60.563C83.4711 60.563 83.2341 60.5135 83.0211 60.4145C82.8081 60.3125 82.6266 60.164 82.4766 59.969C82.3266 59.774 82.2111 59.531 82.1301 59.24C82.0491 58.949 82.0086 58.6145 82.0086 58.2365C82.0086 57.9005 82.0536 57.5885 82.1436 57.3005C82.2336 57.0095 82.3626 56.7575 82.5306 56.5445C82.7016 56.3315 82.9086 56.165 83.1516 56.045C83.3946 55.922 83.6706 55.8605 83.9796 55.8605C84.2586 55.8605 84.4971 55.9085 84.6951 56.0045C84.8931 56.0975 85.0701 56.2295 85.2261 56.4005V53.8715H86.0271V60.5H85.5501ZM83.9976 59.915C84.2586 59.915 84.4866 59.855 84.6816 59.735C84.8796 59.615 85.0611 59.4455 85.2261 59.2265V57.0215C85.0791 56.8235 84.9171 56.6855 84.7401 56.6075C84.5661 56.5265 84.3726 56.486 84.1596 56.486C83.7336 56.486 83.4066 56.6375 83.1786 56.9405C82.9506 57.2435 82.8366 57.6755 82.8366 58.2365C82.8366 58.5335 82.8621 58.7885 82.9131 59.0015C82.9641 59.2115 83.0391 59.3855 83.1381 59.5235C83.2371 59.6585 83.3586 59.7575 83.5026 59.8205C83.6466 59.8835 83.8116 59.915 83.9976 59.915ZM92.5381 55.0595C92.5111 55.1045 92.4826 55.139 92.4526 55.163C92.4226 55.184 92.3836 55.1945 92.3356 55.1945C92.2846 55.1945 92.2246 55.169 92.1556 55.118C92.0896 55.067 92.0041 55.0115 91.8991 54.9515C91.7971 54.8885 91.6726 54.8315 91.5256 54.7805C91.3816 54.7295 91.2061 54.704 90.9991 54.704C90.8041 54.704 90.6316 54.731 90.4816 54.785C90.3316 54.836 90.2056 54.9065 90.1036 54.9965C90.0046 55.0865 89.9296 55.193 89.8786 55.316C89.8276 55.436 89.8021 55.5665 89.8021 55.7075C89.8021 55.8875 89.8456 56.0375 89.9326 56.1575C90.0226 56.2745 90.1396 56.375 90.2836 56.459C90.4306 56.543 90.5956 56.6165 90.7786 56.6795C90.9646 56.7395 91.1536 56.8025 91.3456 56.8685C91.5406 56.9345 91.7296 57.0095 91.9126 57.0935C92.0986 57.1745 92.2636 57.278 92.4076 57.404C92.5546 57.53 92.6716 57.6845 92.7586 57.8675C92.8486 58.0505 92.8936 58.2755 92.8936 58.5425C92.8936 58.8245 92.8456 59.09 92.7496 59.339C92.6536 59.585 92.5126 59.7995 92.3266 59.9825C92.1436 60.1655 91.9171 60.3095 91.6471 60.4145C91.3801 60.5195 91.0756 60.572 90.7336 60.572C90.3166 60.572 89.9356 60.497 89.5906 60.347C89.2486 60.194 88.9561 59.9885 88.7131 59.7305L88.9651 59.3165C88.9891 59.2835 89.0176 59.2565 89.0506 59.2355C89.0866 59.2115 89.1256 59.1995 89.1676 59.1995C89.2306 59.1995 89.3026 59.234 89.3836 59.303C89.4646 59.369 89.5651 59.4425 89.6851 59.5235C89.8081 59.6045 89.9551 59.6795 90.1261 59.7485C90.3001 59.8145 90.5116 59.8475 90.7606 59.8475C90.9676 59.8475 91.1521 59.819 91.3141 59.762C91.4761 59.705 91.6126 59.6255 91.7236 59.5235C91.8376 59.4185 91.9246 59.294 91.9846 59.15C92.0446 59.006 92.0746 58.8455 92.0746 58.6685C92.0746 58.4735 92.0296 58.3145 91.9396 58.1915C91.8526 58.0655 91.7371 57.9605 91.5931 57.8765C91.4491 57.7925 91.2841 57.722 91.0981 57.665C90.9151 57.605 90.7261 57.545 90.5311 57.485C90.3391 57.422 90.1501 57.35 89.9641 57.269C89.7811 57.188 89.6176 57.083 89.4736 56.954C89.3296 56.825 89.2126 56.6645 89.1226 56.4725C89.0356 56.2775 88.9921 56.0375 88.9921 55.7525C88.9921 55.5245 89.0356 55.304 89.1226 55.091C89.2126 54.878 89.3416 54.689 89.5096 54.524C89.6776 54.359 89.8846 54.227 90.1306 54.128C90.3796 54.029 90.6646 53.9795 90.9856 53.9795C91.3456 53.9795 91.6741 54.0365 91.9711 54.1505C92.2681 54.2645 92.5276 54.4295 92.7496 54.6455L92.5381 55.0595ZM95.6861 55.8695C95.9591 55.8695 96.2111 55.916 96.4421 56.009C96.6731 56.099 96.8726 56.231 97.0406 56.405C97.2086 56.576 97.3391 56.789 97.4321 57.044C97.5281 57.296 97.5761 57.584 97.5761 57.908C97.5761 58.034 97.5626 58.118 97.5356 58.16C97.5086 58.202 97.4576 58.223 97.3826 58.223H94.3496C94.3556 58.511 94.3946 58.7615 94.4666 58.9745C94.5386 59.1875 94.6376 59.366 94.7636 59.51C94.8896 59.651 95.0396 59.7575 95.2136 59.8295C95.3876 59.8985 95.5826 59.933 95.7986 59.933C95.9996 59.933 96.1721 59.9105 96.3161 59.8655C96.4631 59.8175 96.5891 59.7665 96.6941 59.7125C96.7991 59.6585 96.8861 59.609 96.9551 59.564C97.0271 59.516 97.0886 59.492 97.1396 59.492C97.2056 59.492 97.2566 59.5175 97.2926 59.5685L97.5176 59.861C97.4186 59.981 97.3001 60.086 97.1621 60.176C97.0241 60.263 96.8756 60.335 96.7166 60.392C96.5606 60.449 96.3986 60.491 96.2306 60.518C96.0626 60.548 95.8961 60.563 95.7311 60.563C95.4161 60.563 95.1251 60.5105 94.8581 60.4055C94.5941 60.2975 94.3646 60.1415 94.1696 59.9375C93.9776 59.7305 93.8276 59.4755 93.7196 59.1725C93.6116 58.8695 93.5576 58.5215 93.5576 58.1285C93.5576 57.8105 93.6056 57.5135 93.7016 57.2375C93.8006 56.9615 93.9416 56.723 94.1246 56.522C94.3076 56.318 94.5311 56.159 94.7951 56.045C95.0591 55.928 95.3561 55.8695 95.6861 55.8695ZM95.7041 56.459C95.3171 56.459 95.0126 56.5715 94.7906 56.7965C94.5686 57.0185 94.4306 57.3275 94.3766 57.7235H96.8561C96.8561 57.5375 96.8306 57.368 96.7796 57.215C96.7286 57.059 96.6536 56.9255 96.5546 56.8145C96.4556 56.7005 96.3341 56.6135 96.1901 56.5535C96.0491 56.4905 95.8871 56.459 95.7041 56.459ZM99.9828 60.572C99.6228 60.572 99.3453 60.4715 99.1503 60.2705C98.9583 60.0695 98.8623 59.78 98.8623 59.402V56.612H98.3133C98.2653 56.612 98.2248 56.5985 98.1918 56.5715C98.1588 56.5415 98.1423 56.4965 98.1423 56.4365V56.117L98.8893 56.0225L99.0738 54.614C99.0798 54.569 99.0993 54.533 99.1323 54.506C99.1653 54.476 99.2073 54.461 99.2583 54.461H99.6633V56.0315H100.968V56.612H99.6633V59.348C99.6633 59.54 99.7098 59.6825 99.8028 59.7755C99.8958 59.8685 100.016 59.915 100.163 59.915C100.247 59.915 100.319 59.9045 100.379 59.8835C100.442 59.8595 100.496 59.834 100.541 59.807C100.586 59.78 100.623 59.756 100.653 59.735C100.686 59.711 100.715 59.699 100.739 59.699C100.781 59.699 100.818 59.7245 100.851 59.7755L101.085 60.158C100.947 60.287 100.781 60.389 100.586 60.464C100.391 60.536 100.19 60.572 99.9828 60.572ZM102.652 55.9415V58.8485C102.652 59.1935 102.731 59.4605 102.89 59.6495C103.049 59.8385 103.289 59.933 103.61 59.933C103.844 59.933 104.065 59.8775 104.272 59.7665C104.479 59.6555 104.669 59.501 104.843 59.303V55.9415H105.644V60.5H105.167C105.053 60.5 104.981 60.4445 104.951 60.3335L104.888 59.843C104.69 60.062 104.468 60.239 104.222 60.374C103.976 60.506 103.694 60.572 103.376 60.572C103.127 60.572 102.907 60.5315 102.715 60.4505C102.526 60.3665 102.367 60.2495 102.238 60.0995C102.109 59.9495 102.011 59.768 101.945 59.555C101.882 59.342 101.851 59.1065 101.851 58.8485V55.9415H102.652ZM106.96 62.0435V55.9415H107.437C107.551 55.9415 107.623 55.997 107.653 56.108L107.72 56.648C107.915 56.411 108.137 56.2205 108.386 56.0765C108.638 55.9325 108.928 55.8605 109.255 55.8605C109.516 55.8605 109.753 55.9115 109.966 56.0135C110.179 56.1125 110.36 56.261 110.51 56.459C110.66 56.654 110.776 56.897 110.857 57.188C110.938 57.479 110.978 57.8135 110.978 58.1915C110.978 58.5275 110.933 58.841 110.843 59.132C110.753 59.42 110.624 59.6705 110.456 59.8835C110.288 60.0935 110.081 60.26 109.835 60.383C109.592 60.503 109.318 60.563 109.012 60.563C108.73 60.563 108.488 60.5165 108.287 60.4235C108.089 60.3305 107.914 60.1985 107.761 60.0275V62.0435H106.96ZM108.989 56.5085C108.728 56.5085 108.499 56.5685 108.301 56.6885C108.106 56.8085 107.926 56.978 107.761 57.197V59.402C107.908 59.6 108.068 59.7395 108.242 59.8205C108.419 59.9015 108.616 59.942 108.832 59.942C109.255 59.942 109.58 59.7905 109.808 59.4875C110.036 59.1845 110.15 58.7525 110.15 58.1915C110.15 57.8945 110.123 57.6395 110.069 57.4265C110.018 57.2135 109.943 57.0395 109.844 56.9045C109.745 56.7665 109.624 56.666 109.48 56.603C109.336 56.54 109.172 56.5085 108.989 56.5085Z" fill="#505050"/>
<rect x="140.75" y="41.75" width="30.5" height="30.5" rx="11.25" fill="#FFF1CD"/>
<rect x="140.75" y="41.75" width="30.5" height="30.5" rx="11.25" stroke="#FFE6AA" stroke-width="1.5"/>
<rect x="191.083" y="41.75" width="30.5" height="30.5" rx="11.25" fill="#FFF1CD"/>
<rect x="191.083" y="41.75" width="30.5" height="30.5" rx="11.25" stroke="#FFE6AA" stroke-width="1.5"/>
<rect x="241.417" y="41.75" width="30.5" height="30.5" rx="11.25" fill="#FFF1CD"/>
<rect x="241.417" y="41.75" width="30.5" height="30.5" rx="11.25" stroke="#FFE6AA" stroke-width="1.5"/>
<rect x="291.75" y="41.75" width="30.5" height="30.5" rx="11.25" fill="#FFF1CD"/>
<rect x="291.75" y="41.75" width="30.5" height="30.5" rx="11.25" stroke="#FFE6AA" stroke-width="1.5"/>
<path d="M12 77.3334H364" stroke="#505050" stroke-width="0.4" stroke-dasharray="4 6"/>
<path d="M64.328 99.8347C64.376 99.8347 64.4195 99.8542 64.4585 99.8932L64.8005 100.267C64.5365 100.573 64.2155 100.811 63.8375 100.982C63.4625 101.153 63.0095 101.239 62.4785 101.239C62.0135 101.239 61.592 101.159 61.214 101C60.836 100.838 60.5135 100.613 60.2465 100.325C59.9795 100.034 59.7725 99.6862 59.6255 99.2812C59.4785 98.8762 59.405 98.4307 59.405 97.9447C59.405 97.4587 59.483 97.0132 59.639 96.6082C59.798 96.2032 60.02 95.8552 60.305 95.5642C60.59 95.2732 60.9305 95.0482 61.3265 94.8892C61.7255 94.7272 62.165 94.6462 62.645 94.6462C63.119 94.6462 63.527 94.7197 63.869 94.8667C64.214 95.0137 64.52 95.2132 64.787 95.4652L64.5035 95.8657C64.4825 95.8957 64.4585 95.9212 64.4315 95.9422C64.4045 95.9602 64.3655 95.9692 64.3145 95.9692C64.2755 95.9692 64.2335 95.9557 64.1885 95.9287C64.1465 95.8987 64.0955 95.8627 64.0355 95.8207C63.9755 95.7787 63.905 95.7337 63.824 95.6857C63.743 95.6377 63.647 95.5927 63.536 95.5507C63.425 95.5087 63.296 95.4742 63.149 95.4472C63.002 95.4172 62.8325 95.4022 62.6405 95.4022C62.2955 95.4022 61.979 95.4622 61.691 95.5822C61.406 95.6992 61.16 95.8672 60.953 96.0862C60.746 96.3052 60.584 96.5722 60.467 96.8872C60.353 97.2022 60.296 97.5547 60.296 97.9447C60.296 98.3467 60.353 98.7052 60.467 99.0202C60.584 99.3352 60.7415 99.6022 60.9395 99.8212C61.1405 100.037 61.3775 100.202 61.6505 100.316C61.9235 100.43 62.2175 100.487 62.5325 100.487C62.7245 100.487 62.897 100.477 63.05 100.456C63.203 100.432 63.344 100.396 63.473 100.348C63.605 100.3 63.7265 100.24 63.8375 100.168C63.9515 100.093 64.0655 100.004 64.1795 99.9022C64.2305 99.8572 64.28 99.8347 64.328 99.8347ZM69.1661 101.167H68.8106C68.7326 101.167 68.6696 101.155 68.6216 101.131C68.5736 101.107 68.5421 101.056 68.5271 100.978L68.4371 100.555C68.3171 100.663 68.2001 100.76 68.0861 100.847C67.9721 100.931 67.8521 101.003 67.7261 101.063C67.6001 101.12 67.4651 101.164 67.3211 101.194C67.1801 101.224 67.0226 101.239 66.8486 101.239C66.6716 101.239 66.5051 101.215 66.3491 101.167C66.1961 101.116 66.0626 101.041 65.9486 100.942C65.8346 100.843 65.7431 100.718 65.6741 100.568C65.6081 100.415 65.5751 100.235 65.5751 100.028C65.5751 99.8482 65.6246 99.6757 65.7236 99.5107C65.8226 99.3427 65.9816 99.1942 66.2006 99.0652C66.4226 98.9362 66.7121 98.8312 67.0691 98.7502C67.4261 98.6662 67.8626 98.6182 68.3786 98.6062V98.2507C68.3786 97.8967 68.3021 97.6297 68.1491 97.4497C67.9991 97.2667 67.7756 97.1752 67.4786 97.1752C67.2836 97.1752 67.1186 97.2007 66.9836 97.2517C66.8516 97.2997 66.7361 97.3552 66.6371 97.4182C66.5411 97.4782 66.4571 97.5337 66.3851 97.5847C66.3161 97.6327 66.2471 97.6567 66.1781 97.6567C66.1241 97.6567 66.0761 97.6432 66.0341 97.6162C65.9951 97.5862 65.9636 97.5502 65.9396 97.5082L65.7956 97.2517C66.0476 97.0087 66.3191 96.8272 66.6101 96.7072C66.9011 96.5872 67.2236 96.5272 67.5776 96.5272C67.8326 96.5272 68.0591 96.5692 68.2571 96.6532C68.4551 96.7372 68.6216 96.8542 68.7566 97.0042C68.8916 97.1542 68.9936 97.3357 69.0626 97.5487C69.1316 97.7617 69.1661 97.9957 69.1661 98.2507V101.167ZM67.0871 100.676C67.2281 100.676 67.3571 100.663 67.4741 100.636C67.5911 100.606 67.7006 100.565 67.8026 100.514C67.9076 100.46 68.0066 100.396 68.0996 100.321C68.1956 100.246 68.2886 100.16 68.3786 100.064V99.1147C68.0096 99.1267 67.6961 99.1567 67.4381 99.2047C67.1801 99.2497 66.9701 99.3097 66.8081 99.3847C66.6461 99.4597 66.5276 99.5482 66.4526 99.6502C66.3806 99.7522 66.3446 99.8662 66.3446 99.9922C66.3446 100.112 66.3641 100.216 66.4031 100.303C66.4421 100.39 66.4946 100.462 66.5606 100.519C66.6266 100.573 66.7046 100.613 66.7946 100.64C66.8846 100.664 66.9821 100.676 67.0871 100.676ZM71.7612 101.239C71.4012 101.239 71.1237 101.138 70.9287 100.937C70.7367 100.736 70.6407 100.447 70.6407 100.069V97.2787H70.0917C70.0437 97.2787 70.0032 97.2652 69.9702 97.2382C69.9372 97.2082 69.9207 97.1632 69.9207 97.1032V96.7837L70.6677 96.6892L70.8522 95.2807C70.8582 95.2357 70.8777 95.1997 70.9107 95.1727C70.9437 95.1427 70.9857 95.1277 71.0367 95.1277H71.4417V96.6982H72.7467V97.2787H71.4417V100.015C71.4417 100.207 71.4882 100.349 71.5812 100.442C71.6742 100.535 71.7942 100.582 71.9412 100.582C72.0252 100.582 72.0972 100.571 72.1572 100.55C72.2202 100.526 72.2742 100.501 72.3192 100.474C72.3642 100.447 72.4017 100.423 72.4317 100.402C72.4647 100.378 72.4932 100.366 72.5172 100.366C72.5592 100.366 72.5967 100.391 72.6297 100.442L72.8637 100.825C72.7257 100.954 72.5592 101.056 72.3642 101.131C72.1692 101.203 71.9682 101.239 71.7612 101.239ZM75.5416 96.5362C75.8146 96.5362 76.0666 96.5827 76.2976 96.6757C76.5286 96.7657 76.7281 96.8977 76.8961 97.0717C77.0641 97.2427 77.1946 97.4557 77.2876 97.7107C77.3836 97.9627 77.4316 98.2507 77.4316 98.5747C77.4316 98.7007 77.4181 98.7847 77.3911 98.8267C77.3641 98.8687 77.3131 98.8897 77.2381 98.8897H74.2051C74.2111 99.1777 74.2501 99.4282 74.3221 99.6412C74.3941 99.8542 74.4931 100.033 74.6191 100.177C74.7451 100.318 74.8951 100.424 75.0691 100.496C75.2431 100.565 75.4381 100.6 75.6541 100.6C75.8551 100.6 76.0276 100.577 76.1716 100.532C76.3186 100.484 76.4446 100.433 76.5496 100.379C76.6546 100.325 76.7416 100.276 76.8106 100.231C76.8826 100.183 76.9441 100.159 76.9951 100.159C77.0611 100.159 77.1121 100.184 77.1481 100.235L77.3731 100.528C77.2741 100.648 77.1556 100.753 77.0176 100.843C76.8796 100.93 76.7311 101.002 76.5721 101.059C76.4161 101.116 76.2541 101.158 76.0861 101.185C75.9181 101.215 75.7516 101.23 75.5866 101.23C75.2716 101.23 74.9806 101.177 74.7136 101.072C74.4496 100.964 74.2201 100.808 74.0251 100.604C73.8331 100.397 73.6831 100.142 73.5751 99.8392C73.4671 99.5362 73.4131 99.1882 73.4131 98.7952C73.4131 98.4772 73.4611 98.1802 73.5571 97.9042C73.6561 97.6282 73.7971 97.3897 73.9801 97.1887C74.1631 96.9847 74.3866 96.8257 74.6506 96.7117C74.9146 96.5947 75.2116 96.5362 75.5416 96.5362ZM75.5596 97.1257C75.1726 97.1257 74.8681 97.2382 74.6461 97.4632C74.4241 97.6852 74.2861 97.9942 74.2321 98.3902H76.7116C76.7116 98.2042 76.6861 98.0347 76.6351 97.8817C76.5841 97.7257 76.5091 97.5922 76.4101 97.4812C76.3111 97.3672 76.1896 97.2802 76.0456 97.2202C75.9046 97.1572 75.7426 97.1257 75.5596 97.1257ZM79.9913 96.5317C80.1893 96.5317 80.3738 96.5542 80.5448 96.5992C80.7188 96.6412 80.8763 96.7042 81.0173 96.7882H82.2548V97.0852C82.2548 97.1842 82.1918 97.2472 82.0658 97.2742L81.5483 97.3462C81.6503 97.5412 81.7013 97.7587 81.7013 97.9987C81.7013 98.2207 81.6578 98.4232 81.5708 98.6062C81.4868 98.7862 81.3683 98.9407 81.2153 99.0697C81.0653 99.1987 80.8853 99.2977 80.6753 99.3667C80.4683 99.4357 80.2403 99.4702 79.9913 99.4702C79.7783 99.4702 79.5773 99.4447 79.3883 99.3937C79.2923 99.4537 79.2188 99.5182 79.1678 99.5872C79.1198 99.6562 79.0958 99.7237 79.0958 99.7897C79.0958 99.8977 79.1393 99.9802 79.2263 100.037C79.3133 100.091 79.4288 100.13 79.5728 100.154C79.7168 100.178 79.8803 100.193 80.0633 100.199C80.2463 100.205 80.4323 100.216 80.6213 100.231C80.8133 100.243 81.0008 100.265 81.1838 100.298C81.3668 100.331 81.5303 100.385 81.6743 100.46C81.8183 100.535 81.9338 100.639 82.0208 100.771C82.1078 100.903 82.1513 101.074 82.1513 101.284C82.1513 101.479 82.1018 101.668 82.0028 101.851C81.9068 102.034 81.7673 102.196 81.5843 102.337C81.4013 102.481 81.1778 102.595 80.9138 102.679C80.6498 102.766 80.3513 102.809 80.0183 102.809C79.6853 102.809 79.3928 102.776 79.1408 102.71C78.8918 102.644 78.6848 102.556 78.5198 102.445C78.3548 102.334 78.2303 102.205 78.1463 102.058C78.0653 101.914 78.0248 101.762 78.0248 101.603C78.0248 101.378 78.0953 101.188 78.2363 101.032C78.3803 100.873 78.5768 100.747 78.8258 100.654C78.6968 100.594 78.5933 100.514 78.5153 100.415C78.4403 100.313 78.4028 100.178 78.4028 100.01C78.4028 99.9442 78.4148 99.8767 78.4388 99.8077C78.4628 99.7357 78.4988 99.6652 78.5468 99.5962C78.5978 99.5272 78.6593 99.4612 78.7313 99.3982C78.8033 99.3352 78.8873 99.2797 78.9833 99.2317C78.7583 99.1057 78.5813 98.9392 78.4523 98.7322C78.3263 98.5222 78.2633 98.2777 78.2633 97.9987C78.2633 97.7767 78.3053 97.5757 78.3893 97.3957C78.4763 97.2127 78.5963 97.0582 78.7493 96.9322C78.9023 96.8032 79.0838 96.7042 79.2938 96.6352C79.5068 96.5662 79.7393 96.5317 79.9913 96.5317ZM81.4133 101.414C81.4133 101.3 81.3818 101.209 81.3188 101.14C81.2558 101.071 81.1703 101.018 81.0623 100.982C80.9543 100.943 80.8298 100.915 80.6888 100.897C80.5478 100.879 80.3993 100.867 80.2433 100.861C80.0873 100.852 79.9283 100.843 79.7663 100.834C79.6043 100.825 79.4498 100.808 79.3028 100.784C79.1318 100.865 78.9923 100.964 78.8843 101.081C78.7793 101.198 78.7268 101.338 78.7268 101.5C78.7268 101.602 78.7523 101.696 78.8033 101.783C78.8573 101.873 78.9383 101.95 79.0463 102.013C79.1543 102.079 79.2893 102.13 79.4513 102.166C79.6163 102.205 79.8098 102.224 80.0318 102.224C80.2478 102.224 80.4413 102.205 80.6123 102.166C80.7833 102.127 80.9273 102.071 81.0443 101.999C81.1643 101.927 81.2558 101.842 81.3188 101.743C81.3818 101.644 81.4133 101.534 81.4133 101.414ZM79.9913 98.9392C80.1533 98.9392 80.2958 98.9167 80.4188 98.8717C80.5448 98.8267 80.6498 98.7637 80.7338 98.6827C80.8178 98.6017 80.8808 98.5057 80.9228 98.3947C80.9648 98.2807 80.9858 98.1562 80.9858 98.0212C80.9858 97.7422 80.9003 97.5202 80.7293 97.3552C80.5613 97.1902 80.3153 97.1077 79.9913 97.1077C79.6703 97.1077 79.4243 97.1902 79.2533 97.3552C79.0853 97.5202 79.0013 97.7422 79.0013 98.0212C79.0013 98.1562 79.0223 98.2807 79.0643 98.3947C79.1093 98.5057 79.1738 98.6017 79.2578 98.6827C79.3418 98.7637 79.4453 98.8267 79.5683 98.8717C79.6913 98.9167 79.8323 98.9392 79.9913 98.9392ZM84.8985 96.5362C85.2315 96.5362 85.5315 96.5917 85.7985 96.7027C86.0685 96.8137 86.2965 96.9712 86.4825 97.1752C86.6715 97.3792 86.8155 97.6267 86.9145 97.9177C87.0165 98.2057 87.0675 98.5282 87.0675 98.8852C87.0675 99.2452 87.0165 99.5692 86.9145 99.8572C86.8155 100.145 86.6715 100.391 86.4825 100.595C86.2965 100.799 86.0685 100.957 85.7985 101.068C85.5315 101.176 85.2315 101.23 84.8985 101.23C84.5655 101.23 84.264 101.176 83.994 101.068C83.727 100.957 83.499 100.799 83.31 100.595C83.121 100.391 82.9755 100.145 82.8735 99.8572C82.7715 99.5692 82.7205 99.2452 82.7205 98.8852C82.7205 98.5282 82.7715 98.2057 82.8735 97.9177C82.9755 97.6267 83.121 97.3792 83.31 97.1752C83.499 96.9712 83.727 96.8137 83.994 96.7027C84.264 96.5917 84.5655 96.5362 84.8985 96.5362ZM84.8985 100.604C85.3485 100.604 85.6845 100.454 85.9065 100.154C86.1285 99.8512 86.2395 99.4297 86.2395 98.8897C86.2395 98.3467 86.1285 97.9237 85.9065 97.6207C85.6845 97.3177 85.3485 97.1662 84.8985 97.1662C84.6705 97.1662 84.4725 97.2052 84.3045 97.2832C84.1365 97.3612 83.9955 97.4737 83.8815 97.6207C83.7705 97.7677 83.6865 97.9492 83.6295 98.1652C83.5755 98.3782 83.5485 98.6197 83.5485 98.8897C83.5485 99.1597 83.5755 99.4012 83.6295 99.6142C83.6865 99.8272 83.7705 100.007 83.8815 100.154C83.9955 100.298 84.1365 100.409 84.3045 100.487C84.4725 100.565 84.6705 100.604 84.8985 100.604ZM88.0545 101.167V96.6082H88.5135C88.6005 96.6082 88.6605 96.6247 88.6935 96.6577C88.7265 96.6907 88.749 96.7477 88.761 96.8287L88.815 97.5397C88.971 97.2217 89.163 96.9742 89.391 96.7972C89.622 96.6172 89.892 96.5272 90.201 96.5272C90.327 96.5272 90.441 96.5422 90.543 96.5722C90.645 96.5992 90.7395 96.6382 90.8265 96.6892L90.723 97.2877C90.702 97.3627 90.6555 97.4002 90.5835 97.4002C90.5415 97.4002 90.477 97.3867 90.39 97.3597C90.303 97.3297 90.1815 97.3147 90.0255 97.3147C89.7465 97.3147 89.5125 97.3957 89.3235 97.5577C89.1375 97.7197 88.9815 97.9552 88.8555 98.2642V101.167H88.0545ZM93.0208 102.512C92.9938 102.572 92.9593 102.62 92.9173 102.656C92.8783 102.692 92.8168 102.71 92.7328 102.71H92.1388L92.9713 100.901L91.0903 96.6082H91.7833C91.8523 96.6082 91.9063 96.6262 91.9453 96.6622C91.9843 96.6952 92.0128 96.7327 92.0308 96.7747L93.2503 99.6457C93.2773 99.7117 93.2998 99.7777 93.3178 99.8437C93.3388 99.9097 93.3568 99.9772 93.3718 100.046C93.3928 99.9772 93.4138 99.9097 93.4348 99.8437C93.4558 99.7777 93.4798 99.7102 93.5068 99.6412L94.6903 96.7747C94.7083 96.7267 94.7383 96.6877 94.7803 96.6577C94.8253 96.6247 94.8733 96.6082 94.9243 96.6082H95.5633L93.0208 102.512ZM96.0828 98.1292H98.3058V98.8087H96.0828V98.1292ZM102.839 95.7262C102.812 95.7712 102.783 95.8057 102.753 95.8297C102.723 95.8507 102.684 95.8612 102.636 95.8612C102.585 95.8612 102.525 95.8357 102.456 95.7847C102.39 95.7337 102.305 95.6782 102.2 95.6182C102.098 95.5552 101.973 95.4982 101.826 95.4472C101.682 95.3962 101.507 95.3707 101.3 95.3707C101.105 95.3707 100.932 95.3977 100.782 95.4517C100.632 95.5027 100.506 95.5732 100.404 95.6632C100.305 95.7532 100.23 95.8597 100.179 95.9827C100.128 96.1027 100.103 96.2332 100.103 96.3742C100.103 96.5542 100.146 96.7042 100.233 96.8242C100.323 96.9412 100.44 97.0417 100.584 97.1257C100.731 97.2097 100.896 97.2832 101.079 97.3462C101.265 97.4062 101.454 97.4692 101.646 97.5352C101.841 97.6012 102.03 97.6762 102.213 97.7602C102.399 97.8412 102.564 97.9447 102.708 98.0707C102.855 98.1967 102.972 98.3512 103.059 98.5342C103.149 98.7172 103.194 98.9422 103.194 99.2092C103.194 99.4912 103.146 99.7567 103.05 100.006C102.954 100.252 102.813 100.466 102.627 100.649C102.444 100.832 102.218 100.976 101.948 101.081C101.681 101.186 101.376 101.239 101.034 101.239C100.617 101.239 100.236 101.164 99.8914 101.014C99.5494 100.861 99.2569 100.655 99.0139 100.397L99.2659 99.9832C99.2899 99.9502 99.3184 99.9232 99.3514 99.9022C99.3874 99.8782 99.4264 99.8662 99.4684 99.8662C99.5314 99.8662 99.6034 99.9007 99.6844 99.9697C99.7654 100.036 99.8659 100.109 99.9859 100.19C100.109 100.271 100.256 100.346 100.427 100.415C100.601 100.481 100.812 100.514 101.061 100.514C101.268 100.514 101.453 100.486 101.615 100.429C101.777 100.372 101.913 100.292 102.024 100.19C102.138 100.085 102.225 99.9607 102.285 99.8167C102.345 99.6727 102.375 99.5122 102.375 99.3352C102.375 99.1402 102.33 98.9812 102.24 98.8582C102.153 98.7322 102.038 98.6272 101.894 98.5432C101.75 98.4592 101.585 98.3887 101.399 98.3317C101.216 98.2717 101.027 98.2117 100.832 98.1517C100.64 98.0887 100.451 98.0167 100.265 97.9357C100.082 97.8547 99.9184 97.7497 99.7744 97.6207C99.6304 97.4917 99.5134 97.3312 99.4234 97.1392C99.3364 96.9442 99.2929 96.7042 99.2929 96.4192C99.2929 96.1912 99.3364 95.9707 99.4234 95.7577C99.5134 95.5447 99.6424 95.3557 99.8104 95.1907C99.9784 95.0257 100.185 94.8937 100.431 94.7947C100.68 94.6957 100.965 94.6462 101.286 94.6462C101.646 94.6462 101.975 94.7032 102.272 94.8172C102.569 94.9312 102.828 95.0962 103.05 95.3122L102.839 95.7262ZM104.182 102.71V96.6082H104.659C104.773 96.6082 104.845 96.6637 104.875 96.7747L104.943 97.3147C105.138 97.0777 105.36 96.8872 105.609 96.7432C105.861 96.5992 106.15 96.5272 106.477 96.5272C106.738 96.5272 106.975 96.5782 107.188 96.6802C107.401 96.7792 107.583 96.9277 107.733 97.1257C107.883 97.3207 107.998 97.5637 108.079 97.8547C108.16 98.1457 108.201 98.4802 108.201 98.8582C108.201 99.1942 108.156 99.5077 108.066 99.7987C107.976 100.087 107.847 100.337 107.679 100.55C107.511 100.76 107.304 100.927 107.058 101.05C106.815 101.17 106.54 101.23 106.234 101.23C105.952 101.23 105.711 101.183 105.51 101.09C105.312 100.997 105.136 100.865 104.983 100.694V102.71H104.182ZM106.212 97.1752C105.951 97.1752 105.721 97.2352 105.523 97.3552C105.328 97.4752 105.148 97.6447 104.983 97.8637V100.069C105.13 100.267 105.291 100.406 105.465 100.487C105.642 100.568 105.838 100.609 106.054 100.609C106.477 100.609 106.803 100.457 107.031 100.154C107.259 99.8512 107.373 99.4192 107.373 98.8582C107.373 98.5612 107.346 98.3062 107.292 98.0932C107.241 97.8802 107.166 97.7062 107.067 97.5712C106.968 97.4332 106.846 97.3327 106.702 97.2697C106.558 97.2067 106.395 97.1752 106.212 97.1752ZM110.953 96.5362C111.226 96.5362 111.478 96.5827 111.709 96.6757C111.94 96.7657 112.139 96.8977 112.307 97.0717C112.475 97.2427 112.606 97.4557 112.699 97.7107C112.795 97.9627 112.843 98.2507 112.843 98.5747C112.843 98.7007 112.829 98.7847 112.802 98.8267C112.775 98.8687 112.724 98.8897 112.649 98.8897H109.616C109.622 99.1777 109.661 99.4282 109.733 99.6412C109.805 99.8542 109.904 100.033 110.03 100.177C110.156 100.318 110.306 100.424 110.48 100.496C110.654 100.565 110.849 100.6 111.065 100.6C111.266 100.6 111.439 100.577 111.583 100.532C111.73 100.484 111.856 100.433 111.961 100.379C112.066 100.325 112.153 100.276 112.222 100.231C112.294 100.183 112.355 100.159 112.406 100.159C112.472 100.159 112.523 100.184 112.559 100.235L112.784 100.528C112.685 100.648 112.567 100.753 112.429 100.843C112.291 100.93 112.142 101.002 111.983 101.059C111.827 101.116 111.665 101.158 111.497 101.185C111.329 101.215 111.163 101.23 110.998 101.23C110.683 101.23 110.392 101.177 110.125 101.072C109.861 100.964 109.631 100.808 109.436 100.604C109.244 100.397 109.094 100.142 108.986 99.8392C108.878 99.5362 108.824 99.1882 108.824 98.7952C108.824 98.4772 108.872 98.1802 108.968 97.9042C109.067 97.6282 109.208 97.3897 109.391 97.1887C109.574 96.9847 109.798 96.8257 110.062 96.7117C110.326 96.5947 110.623 96.5362 110.953 96.5362ZM110.971 97.1257C110.584 97.1257 110.279 97.2382 110.057 97.4632C109.835 97.6852 109.697 97.9942 109.643 98.3902H112.123C112.123 98.2042 112.097 98.0347 112.046 97.8817C111.995 97.7257 111.92 97.5922 111.821 97.4812C111.722 97.3672 111.601 97.2802 111.457 97.2202C111.316 97.1572 111.154 97.1257 110.971 97.1257ZM116.977 97.4182C116.953 97.4512 116.929 97.4767 116.905 97.4947C116.881 97.5127 116.847 97.5217 116.802 97.5217C116.757 97.5217 116.707 97.5037 116.653 97.4677C116.602 97.4287 116.536 97.3867 116.455 97.3417C116.374 97.2967 116.275 97.2562 116.158 97.2202C116.044 97.1812 115.903 97.1617 115.735 97.1617C115.513 97.1617 115.317 97.2022 115.146 97.2832C114.975 97.3612 114.831 97.4752 114.714 97.6252C114.6 97.7752 114.513 97.9567 114.453 98.1697C114.396 98.3827 114.367 98.6212 114.367 98.8852C114.367 99.1612 114.399 99.4072 114.462 99.6232C114.525 99.8362 114.613 100.016 114.727 100.163C114.841 100.307 114.979 100.418 115.141 100.496C115.306 100.571 115.491 100.609 115.695 100.609C115.89 100.609 116.05 100.586 116.176 100.541C116.302 100.493 116.407 100.441 116.491 100.384C116.575 100.327 116.644 100.276 116.698 100.231C116.752 100.183 116.806 100.159 116.86 100.159C116.929 100.159 116.98 100.184 117.013 100.235L117.238 100.528C117.04 100.771 116.793 100.949 116.496 101.063C116.199 101.174 115.885 101.23 115.555 101.23C115.27 101.23 115.005 101.177 114.759 101.072C114.516 100.967 114.304 100.816 114.124 100.618C113.944 100.417 113.802 100.171 113.697 99.8797C113.595 99.5887 113.544 99.2572 113.544 98.8852C113.544 98.5462 113.59 98.2327 113.683 97.9447C113.779 97.6567 113.917 97.4092 114.097 97.2022C114.28 96.9922 114.505 96.8287 114.772 96.7117C115.039 96.5947 115.345 96.5362 115.69 96.5362C116.008 96.5362 116.29 96.5887 116.536 96.6937C116.782 96.7957 117 96.9412 117.189 97.1302L116.977 97.4182ZM118.96 96.6082V101.167H118.159V96.6082H118.96ZM119.14 95.1772C119.14 95.2552 119.124 95.3287 119.091 95.3977C119.061 95.4637 119.019 95.5237 118.965 95.5777C118.914 95.6287 118.854 95.6692 118.785 95.6992C118.716 95.7292 118.642 95.7442 118.564 95.7442C118.486 95.7442 118.413 95.7292 118.344 95.6992C118.278 95.6692 118.218 95.6287 118.164 95.5777C118.113 95.5237 118.072 95.4637 118.042 95.3977C118.012 95.3287 117.997 95.2552 117.997 95.1772C117.997 95.0992 118.012 95.0257 118.042 94.9567C118.072 94.8847 118.113 94.8232 118.164 94.7722C118.218 94.7182 118.278 94.6762 118.344 94.6462C118.413 94.6162 118.486 94.6012 118.564 94.6012C118.642 94.6012 118.716 94.6162 118.785 94.6462C118.854 94.6762 118.914 94.7182 118.965 94.7722C119.019 94.8232 119.061 94.8847 119.091 94.9567C119.124 95.0257 119.14 95.0992 119.14 95.1772ZM120.552 101.167V97.2922L120.048 97.2337C119.985 97.2187 119.932 97.1962 119.89 97.1662C119.851 97.1332 119.832 97.0867 119.832 97.0267V96.6982H120.552V96.4462C120.552 96.1672 120.595 95.9122 120.682 95.6812C120.769 95.4472 120.9 95.2462 121.074 95.0782C121.248 94.9102 121.464 94.7797 121.722 94.6867C121.983 94.5937 122.286 94.5472 122.631 94.5472C122.745 94.5472 122.86 94.5547 122.977 94.5697C123.097 94.5847 123.201 94.6072 123.288 94.6372L123.261 95.0557C123.255 95.0947 123.237 95.1202 123.207 95.1322C123.177 95.1412 123.133 95.1457 123.076 95.1457C123.043 95.1457 123.009 95.1457 122.973 95.1457C122.937 95.1427 122.896 95.1412 122.851 95.1412C122.32 95.1412 121.933 95.2522 121.69 95.4742C121.45 95.6932 121.33 96.0247 121.33 96.4687V96.6982H124.084V101.167H123.283V97.2787H121.357V101.167H120.552ZM128.614 97.4182C128.59 97.4512 128.566 97.4767 128.542 97.4947C128.518 97.5127 128.484 97.5217 128.439 97.5217C128.394 97.5217 128.344 97.5037 128.29 97.4677C128.239 97.4287 128.173 97.3867 128.092 97.3417C128.011 97.2967 127.912 97.2562 127.795 97.2202C127.681 97.1812 127.54 97.1617 127.372 97.1617C127.15 97.1617 126.954 97.2022 126.783 97.2832C126.612 97.3612 126.468 97.4752 126.351 97.6252C126.237 97.7752 126.15 97.9567 126.09 98.1697C126.033 98.3827 126.004 98.6212 126.004 98.8852C126.004 99.1612 126.036 99.4072 126.099 99.6232C126.162 99.8362 126.25 100.016 126.364 100.163C126.478 100.307 126.616 100.418 126.778 100.496C126.943 100.571 127.128 100.609 127.332 100.609C127.527 100.609 127.687 100.586 127.813 100.541C127.939 100.493 128.044 100.441 128.128 100.384C128.212 100.327 128.281 100.276 128.335 100.231C128.389 100.183 128.443 100.159 128.497 100.159C128.566 100.159 128.617 100.184 128.65 100.235L128.875 100.528C128.677 100.771 128.43 100.949 128.133 101.063C127.836 101.174 127.522 101.23 127.192 101.23C126.907 101.23 126.642 101.177 126.396 101.072C126.153 100.967 125.941 100.816 125.761 100.618C125.581 100.417 125.439 100.171 125.334 99.8797C125.232 99.5887 125.181 99.2572 125.181 98.8852C125.181 98.5462 125.227 98.2327 125.32 97.9447C125.416 97.6567 125.554 97.4092 125.734 97.2022C125.917 96.9922 126.142 96.8287 126.409 96.7117C126.676 96.5947 126.982 96.5362 127.327 96.5362C127.645 96.5362 127.927 96.5887 128.173 96.6937C128.419 96.7957 128.637 96.9412 128.826 97.1302L128.614 97.4182Z" fill="#505050"/>
<rect x="140.75" y="82.4167" width="30.5" height="30.5" rx="11.25" fill="#FFF1CD"/>
<rect x="140.75" y="82.4167" width="30.5" height="30.5" rx="11.25" stroke="#FFE6AA" stroke-width="1.5"/>
<rect x="191.083" y="82.4167" width="30.5" height="30.5" rx="11.25" fill="#FFF1CD"/>
<rect x="191.083" y="82.4167" width="30.5" height="30.5" rx="11.25" stroke="#FFE6AA" stroke-width="1.5"/>
<rect x="241.417" y="82.4167" width="30.5" height="30.5" rx="11.25" fill="#FFF1CD"/>
<rect x="241.417" y="82.4167" width="30.5" height="30.5" rx="11.25" stroke="#FFE6AA" stroke-width="1.5"/>
<rect x="291.75" y="82.4167" width="30.5" height="30.5" rx="11.25" fill="#FFF1CD"/>
<rect x="291.75" y="82.4167" width="30.5" height="30.5" rx="11.25" stroke="#FFE6AA" stroke-width="1.5"/>
</svg>
