<svg width="420" height="86" viewBox="0 0 420 86" fill="none" xmlns="http://www.w3.org/2000/svg">
<rect x="64.75" y="0.75" width="34.5" height="34.5" rx="11.25" fill="#FFF1CD"/>
<rect x="64.75" y="0.75" width="34.5" height="34.5" rx="11.25" stroke="#FFE6AA" stroke-width="1.5"/>
<path d="M74.0996 23.5H89.8975C90.1507 23.5 90.3814 23.5949 90.5576 23.75H73.4404C73.6166 23.5951 73.8466 23.5 74.0996 23.5Z" fill="#707070" stroke="#707070" stroke-width="1.12489"/>
<path d="M71.875 27.9087V10.1573C71.875 10.1573 72.1161 7.87598 74.8881 7.87598C77.6602 7.87598 77.9013 10.1573 77.9013 10.1573V11.9018" stroke="#707070" stroke-width="2" stroke-linecap="round"/>
<path d="M71.877 15.8311L91.9453 15.8311" stroke="#707070" stroke-width="2" stroke-linecap="round"/>
<path d="M71.875 26.3994C71.875 24.7686 73.4418 24.8938 73.4418 24.8938H90.6768C90.6768 24.8938 92.123 24.8938 92.123 26.3994" stroke="#707070" stroke-width="2" stroke-linecap="round"/>
<path d="M92.123 28.124L92.123 14.7458" stroke="#707070" stroke-width="2" stroke-linecap="round"/>
<path d="M76.1875 12.6208C76.1875 12.6208 76.6396 11.9746 77.9959 11.9746C79.3522 11.9746 79.8043 12.6208 79.8043 12.6208" stroke="#707070" stroke-width="2" stroke-linecap="round"/>
<path d="M76.0703 24.5078L76.0703 16.1916" stroke="#707070" stroke-width="2"/>
<path d="M80.084 24.5078L80.084 16.1916" stroke="#707070" stroke-width="2"/>
<path d="M84.0996 24.5078L84.0996 16.1916" stroke="#707070" stroke-width="2"/>
<path d="M88.1133 24.5078L88.1133 16.1916" stroke="#707070" stroke-width="2"/>
<rect x="64" y="42" width="36" height="36" rx="12" fill="#FFD500"/>
<rect x="64.75" y="42.75" width="34.5" height="34.5" rx="11.25" stroke="#FFC93C" stroke-opacity="0.9" stroke-width="1.5"/>
<path d="M87.5578 58.6045C87.5578 60.6857 86.6855 62.6817 85.1329 64.1534C83.5804 65.6251 81.4746 66.4518 79.2789 66.4518C77.0832 66.4518 74.9774 65.6251 73.4248 64.1534C71.8722 62.6817 71 60.6857 71 58.6045L87.5578 58.6045Z" fill="#505050" stroke="#505050" stroke-width="2"/>
<path d="M71.8125 58.4218C71.8125 56.5753 72.4415 54.7743 73.6129 53.2662C74.7657 51.7821 76.3881 50.6535 78.2632 50.0298C78.314 50.0129 78.3689 50.0396 78.3875 50.0899L81.6379 58.8668" stroke="#505050" stroke-width="2"/>
<path d="M77.8241 68.6191C77.8241 69.5613 77.0603 70.3251 76.1181 70.3251C75.1759 70.3251 74.4121 69.5613 74.4121 68.6191C74.4121 67.6769 75.1759 66.9131 76.1181 66.9131C77.0603 66.9131 77.8241 67.6769 77.8241 68.6191Z" fill="#505050" stroke="#505050" stroke-width="2"/>
<path d="M92.9416 57.2765C92.9416 58.3757 92.0505 59.2668 90.9513 59.2668C89.852 59.2668 88.9609 58.3757 88.9609 57.2765C88.9609 56.1772 89.852 55.2861 90.9513 55.2861C92.0505 55.2861 92.9416 56.1772 92.9416 57.2765Z" fill="#505050" stroke="#505050" stroke-width="2"/>
<path d="M87.2188 58.7534C87.2835 58.6527 87.3968 58.4567 88.028 58.16C88.3658 58.0012 88.6753 57.9226 88.999 57.8633" stroke="#505050" stroke-width="2"/>
<path d="M84.08 68.6191C84.08 69.5613 83.3162 70.3251 82.374 70.3251C81.4318 70.3251 80.668 69.5613 80.668 68.6191C80.668 67.6769 81.4318 66.9131 82.374 66.9131C83.3162 66.9131 84.08 67.6769 84.08 68.6191Z" fill="#505050" stroke="#505050" stroke-width="2"/>
<rect x="320.75" y="0.75" width="34.5" height="34.5" rx="11.25" fill="#FFF1CD"/>
<rect x="320.75" y="0.75" width="34.5" height="34.5" rx="11.25" stroke="#FFE6AA" stroke-width="1.5"/>
<path fill-rule="evenodd" clip-rule="evenodd" d="M346.601 10.4355L346.792 11.5518C348.088 15.3536 345.786 15.3925 344.877 13.3616C344.118 13.0502 343.633 13.2554 343.511 14.1541L344.446 18.5927L344.41 22.3679C344.967 21.6284 345.412 20.7669 345.702 19.7886C345.935 19.0067 346.734 18.5679 347.49 18.8085C348.245 19.0491 348.669 19.8771 348.436 20.659C347.661 23.2772 346.078 25.2869 344.101 26.619C342.351 27.7989 340.29 28.4411 338.212 28.4959C336.131 28.5526 334.026 28.0165 332.19 26.8436C330.191 25.5646 328.525 23.5373 327.578 20.7032C327.322 19.9319 327.718 19.0898 328.463 18.8245C329.208 18.5591 330.022 18.9695 330.278 19.7408C330.546 20.544 330.888 21.2587 331.288 21.8885L331.322 18.7413C331.394 17.9824 331.654 17.25 332.185 16.5601H330.652C329.302 16.4539 329.152 14.8087 330.652 14.4779H334.752C334.81 15.3712 335.184 16.1762 335.758 16.7723C336.385 17.4216 337.252 17.8232 338.209 17.8232C339.166 17.8232 340.032 17.4216 340.659 16.7723C341.286 16.1231 341.674 15.2262 341.674 14.2355C341.674 13.2448 341.286 12.3479 340.659 11.6987C340.23 11.2546 339.69 10.9273 339.085 10.7628C339.641 9.70138 340.57 8.7514 341.956 7.93232C343.308 7.39452 344.844 7.27599 346.77 8.05615C347.531 8.40997 347.96 8.76555 347.828 9.11936C347.702 9.46256 347.462 9.45371 347.199 9.52978C346.784 9.65008 346.553 9.92429 346.601 10.4355ZM342.997 23.8044C342.131 17.7046 333.742 17.6445 332.752 23.6169C333.051 23.8822 333.366 24.1175 333.691 24.3263C335.037 25.1878 336.594 25.5788 338.144 25.5381C339.697 25.4974 341.235 25.0162 342.542 24.1352C342.698 24.0308 342.85 23.9211 342.997 23.8044ZM335.589 14.4761H338.482C338.363 13.4465 338.434 12.4717 338.74 11.566C339.253 11.6757 339.711 11.9393 340.068 12.3072C340.543 12.799 340.839 13.4801 340.839 14.232C340.839 14.9838 340.545 15.6649 340.068 16.1567C339.593 16.6485 338.935 16.9546 338.209 16.9546C337.483 16.9546 336.825 16.6503 336.35 16.1567C335.926 15.7197 335.646 15.1324 335.589 14.4761ZM345.436 10.2746C345.627 10.2746 345.784 10.4373 345.784 10.6355V10.9857C345.784 11.1839 345.627 11.3466 345.436 11.3466C345.244 11.3466 345.087 11.1839 345.087 10.9857V10.6355C345.087 10.4355 345.242 10.2746 345.436 10.2746Z" fill="#707070"/>
<rect x="320.75" y="42.75" width="34.5" height="34.5" rx="11.25" fill="#FFF1CD"/>
<rect x="320.75" y="42.75" width="34.5" height="34.5" rx="11.25" stroke="#FFE6AA" stroke-width="1.5"/>
<path fill-rule="evenodd" clip-rule="evenodd" d="M338 48.5713C339.739 48.5713 341.149 49.998 341.149 51.7577C341.149 53.5173 339.739 54.944 338 54.944C336.261 54.944 334.851 53.5173 334.851 51.7577C334.851 49.998 336.261 48.5713 338 48.5713ZM334.662 63.0485L337.164 65.6136L335.32 67.4793L336.798 69.0139L337.302 69.5366C338.164 70.6898 336.872 72.0589 335.748 71.1083L332.469 67.7211C331.973 67.0254 331.826 66.2702 332.333 65.4053L334.662 63.0485ZM341.337 63.0485L338.837 65.6154L340.68 67.4811L339.202 69.0157L338.699 69.5384C337.837 70.6917 339.129 72.0607 340.252 71.1102L343.531 67.7229C344.028 67.0273 344.175 66.2721 343.667 65.4071L341.337 63.0485ZM345.489 62.204C344.976 62.5779 344.322 62.4049 343.886 61.9417L341.373 59.2762V61.7018H334.62V59.2836L332.114 61.9417C331.679 62.4049 331.022 62.5779 330.511 62.204C329.998 61.8301 329.8 61.0266 330.252 60.582L333.552 57.338C334.089 56.8097 335.122 55.5597 335.818 55.5597H340.239C340.892 55.5597 341.903 56.8004 342.447 57.338L345.747 60.582C346.201 61.0266 346 61.8301 345.489 62.204Z" fill="#707070"/>
<g clip-path="url(#clip0_3684_779)">
<path d="M276.495 48.0468C276.518 47.6783 276.542 47.2729 276.564 46.9044C276.797 43.6637 277.07 40.3884 277.303 37.1477C277.325 36.7792 277.345 36.4475 277.405 36.0813C277.472 35.6045 277.62 35.0216 278.254 35.1708C278.516 35.2235 278.784 35.7945 278.801 36.1284C278.788 38.8645 278.739 41.5615 278.688 44.2954C278.687 44.9241 278.612 45.5484 278.911 46.2321C279.408 45.5223 279.831 44.7711 280.363 44.1004C280.609 43.7824 281.196 43.4479 281.531 43.542C282.2 43.7303 282.08 44.4628 281.828 44.8914C280.715 47.0435 279.6 49.2325 278.303 51.2995C277.468 52.6177 276.338 52.5496 275.666 51.1407C274.758 49.2736 274.122 47.2751 273.406 45.3457C273.307 45.1178 273.593 44.7651 273.686 44.4749C273.98 44.6036 274.433 44.6308 274.57 44.861C274.92 45.3259 275.111 45.9292 275.381 46.4633C275.649 47.0342 275.917 47.6051 276.187 48.1392C276.267 48.0701 276.382 48.04 276.495 48.0468Z" fill="#FFD500"/>
</g>
<g clip-path="url(#clip1_3684_779)">
<path d="M142.441 38.3735C142.46 38.7422 142.481 39.1478 142.5 39.5165C142.629 42.763 142.723 46.0483 142.852 49.2948C142.871 49.6635 142.888 49.9953 142.869 50.366C142.856 50.8472 142.773 51.443 142.127 51.3653C141.861 51.3421 141.531 50.8045 141.476 50.4746C141.185 47.754 140.934 45.0683 140.68 42.3458C140.61 41.7209 140.616 41.0922 140.242 40.446C139.828 41.2067 139.491 42.0003 139.037 42.7261C138.828 43.0696 138.281 43.4674 137.938 43.4111C137.252 43.2985 137.29 42.5572 137.493 42.1032C138.359 39.8405 139.223 37.541 140.282 35.3424C140.965 33.9394 142.096 33.8812 142.92 35.2066C144.031 36.9608 144.885 38.8761 145.811 40.7138C145.936 40.9292 145.691 41.3115 145.631 41.6104C145.324 41.5153 144.871 41.5386 144.709 41.3251C144.309 40.9021 144.053 40.3238 143.725 39.8231C143.395 39.2856 143.065 38.748 142.737 38.2474C142.665 38.325 142.554 38.3677 142.441 38.3735Z" fill="#FFD500"/>
</g>
<g clip-path="url(#clip2_3684_779)">
<path d="M210.957 16.3433C210.514 16.3429 210.027 16.3424 209.584 16.342C205.685 16.293 201.742 16.1987 197.844 16.1497C197.401 16.1492 197.002 16.1489 196.559 16.1031C195.983 16.0573 195.274 15.9208 195.408 15.151C195.452 14.834 196.117 14.4723 196.516 14.4274C199.795 14.2493 203.029 14.1165 206.307 13.9838C207.061 13.9392 207.814 13.9852 208.612 13.5784C207.726 13.034 206.796 12.5803 205.955 11.9907C205.556 11.7186 205.114 11.0388 205.203 10.6312C205.381 9.81619 206.267 9.90761 206.798 10.1799C209.455 11.3599 212.157 12.5401 214.725 13.9465C216.363 14.8539 216.362 16.2126 214.722 17.1169C212.55 18.3376 210.201 19.2412 207.941 20.2354C207.675 20.3711 207.232 20.0536 206.878 19.9627C207.011 19.6005 207.011 19.057 207.277 18.8761C207.809 18.4237 208.519 18.1526 209.139 17.7909C209.804 17.4292 210.469 17.0675 211.089 16.7058C211.001 16.6151 210.957 16.4792 210.957 16.3433Z" fill="#FFD500"/>
</g>
<g clip-path="url(#clip3_3684_779)">
<path d="M200.476 64.9479C200.919 64.9473 201.406 64.9467 201.849 64.9462C205.748 64.9866 209.691 65.0722 213.589 65.1126C214.032 65.112 214.431 65.1115 214.874 65.1563C215.45 65.2008 216.159 65.3358 216.027 66.1059C215.983 66.423 215.319 66.7862 214.921 66.832C211.642 67.0172 208.409 67.1572 205.13 67.2971C204.377 67.3434 203.624 67.299 202.827 67.7077C203.714 68.25 204.645 68.7018 205.487 69.2895C205.886 69.5607 206.33 70.2395 206.242 70.6473C206.066 71.4627 205.18 71.3732 204.648 71.1022C201.988 69.9279 199.284 68.7538 196.713 67.353C195.073 66.4493 195.071 65.0905 196.709 64.1827C198.878 62.9571 201.225 62.0484 203.483 61.0491C203.749 60.9129 204.192 61.2294 204.547 61.3195C204.414 61.682 204.415 62.2255 204.15 62.407C203.618 62.8606 202.91 63.1332 202.29 63.4963C201.626 63.8595 200.962 64.2226 200.342 64.5857C200.431 64.6762 200.475 64.812 200.476 64.9479Z" fill="#FFD500"/>
</g>
<defs>
<clipPath id="clip0_3684_779">
<rect width="8.56733" height="17.1347" fill="white" transform="translate(274.008 34.9014) rotate(3.44778)"/>
</clipPath>
<clipPath id="clip1_3684_779">
<rect width="8.56733" height="17.1347" fill="white" transform="translate(146.377 51.1602) rotate(177.053)"/>
</clipPath>
<clipPath id="clip2_3684_779">
<rect width="10.2808" height="20.5616" fill="white" transform="translate(195.387 20.2568) rotate(-89.9453)"/>
</clipPath>
<clipPath id="clip3_3684_779">
<rect width="10.2808" height="20.5616" fill="white" transform="translate(216.037 61) rotate(89.9281)"/>
</clipPath>
</defs>
</svg>
