<svg width="370" height="114" viewBox="0 0 370 114" fill="none" xmlns="http://www.w3.org/2000/svg">
<rect x="59.75" y="0.75" width="30.5" height="30.5" rx="11.25" fill="#FFF1CD"/>
<rect x="59.75" y="0.75" width="30.5" height="30.5" rx="11.25" stroke="#FFE6AA" stroke-width="1.5"/>
<path d="M56.063 13.0515H56.7875C56.8655 13.0515 56.93 13.071 56.981 13.11C57.032 13.149 57.0665 13.1985 57.0845 13.2585L58.4165 17.7405C58.4405 17.8215 58.4615 17.9085 58.4795 18.0015C58.5005 18.0945 58.52 18.192 58.538 18.294C58.559 18.192 58.58 18.0945 58.601 18.0015C58.622 17.9055 58.646 17.8185 58.673 17.7405L60.1895 13.2585C60.2075 13.2075 60.242 13.161 60.293 13.119C60.347 13.074 60.4115 13.0515 60.4865 13.0515H60.7385C60.8165 13.0515 60.8795 13.071 60.9275 13.11C60.9785 13.149 61.0145 13.1985 61.0355 13.2585L62.543 17.7405C62.597 17.8965 62.645 18.075 62.687 18.276C62.705 18.177 62.7215 18.0825 62.7365 17.9925C62.7515 17.9025 62.771 17.8185 62.795 17.7405L64.1315 13.2585C64.1465 13.2045 64.1795 13.1565 64.2305 13.1145C64.2845 13.0725 64.349 13.0515 64.424 13.0515H65.1035L63.092 19.5H62.309L60.6755 14.5815C60.6425 14.4885 60.6125 14.3805 60.5855 14.2575C60.5705 14.3175 60.5555 14.376 60.5405 14.433C60.5285 14.487 60.515 14.5365 60.5 14.5815L58.8575 19.5H58.0745L56.063 13.0515ZM67.4879 14.8695C67.7609 14.8695 68.0129 14.916 68.2439 15.009C68.4749 15.099 68.6744 15.231 68.8424 15.405C69.0104 15.576 69.1409 15.789 69.2339 16.044C69.3299 16.296 69.3779 16.584 69.3779 16.908C69.3779 17.034 69.3644 17.118 69.3374 17.16C69.3104 17.202 69.2594 17.223 69.1844 17.223H66.1514C66.1574 17.511 66.1964 17.7615 66.2684 17.9745C66.3404 18.1875 66.4394 18.366 66.5654 18.51C66.6914 18.651 66.8414 18.7575 67.0154 18.8295C67.1894 18.8985 67.3844 18.933 67.6004 18.933C67.8014 18.933 67.9739 18.9105 68.1179 18.8655C68.2649 18.8175 68.3909 18.7665 68.4959 18.7125C68.6009 18.6585 68.6879 18.609 68.7569 18.564C68.8289 18.516 68.8904 18.492 68.9414 18.492C69.0074 18.492 69.0584 18.5175 69.0944 18.5685L69.3194 18.861C69.2204 18.981 69.1019 19.086 68.9639 19.176C68.8259 19.263 68.6774 19.335 68.5184 19.392C68.3624 19.449 68.2004 19.491 68.0324 19.518C67.8644 19.548 67.6979 19.563 67.5329 19.563C67.2179 19.563 66.9269 19.5105 66.6599 19.4055C66.3959 19.2975 66.1664 19.1415 65.9714 18.9375C65.7794 18.7305 65.6294 18.4755 65.5214 18.1725C65.4134 17.8695 65.3594 17.5215 65.3594 17.1285C65.3594 16.8105 65.4074 16.5135 65.5034 16.2375C65.6024 15.9615 65.7434 15.723 65.9264 15.522C66.1094 15.318 66.3329 15.159 66.5969 15.045C66.8609 14.928 67.1579 14.8695 67.4879 14.8695ZM67.5059 15.459C67.1189 15.459 66.8144 15.5715 66.5924 15.7965C66.3704 16.0185 66.2324 16.3275 66.1784 16.7235H68.6579C68.6579 16.5375 68.6324 16.368 68.5814 16.215C68.5304 16.059 68.4554 15.9255 68.3564 15.8145C68.2574 15.7005 68.1359 15.6135 67.9919 15.5535C67.8509 15.4905 67.6889 15.459 67.5059 15.459ZM71.2941 12.8715V19.5H70.4931V12.8715H71.2941ZM75.8153 15.7515C75.7913 15.7845 75.7673 15.81 75.7433 15.828C75.7193 15.846 75.6848 15.855 75.6398 15.855C75.5948 15.855 75.5453 15.837 75.4913 15.801C75.4403 15.762 75.3743 15.72 75.2933 15.675C75.2123 15.63 75.1133 15.5895 74.9963 15.5535C74.8823 15.5145 74.7413 15.495 74.5733 15.495C74.3513 15.495 74.1548 15.5355 73.9838 15.6165C73.8128 15.6945 73.6688 15.8085 73.5518 15.9585C73.4378 16.1085 73.3508 16.29 73.2908 16.503C73.2338 16.716 73.2053 16.9545 73.2053 17.2185C73.2053 17.4945 73.2368 17.7405 73.2998 17.9565C73.3628 18.1695 73.4513 18.3495 73.5653 18.4965C73.6793 18.6405 73.8173 18.7515 73.9793 18.8295C74.1443 18.9045 74.3288 18.942 74.5328 18.942C74.7278 18.942 74.8883 18.9195 75.0143 18.8745C75.1403 18.8265 75.2453 18.774 75.3293 18.717C75.4133 18.66 75.4823 18.609 75.5363 18.564C75.5903 18.516 75.6443 18.492 75.6983 18.492C75.7673 18.492 75.8183 18.5175 75.8513 18.5685L76.0763 18.861C75.8783 19.104 75.6308 19.2825 75.3338 19.3965C75.0368 19.5075 74.7233 19.563 74.3933 19.563C74.1083 19.563 73.8428 19.5105 73.5968 19.4055C73.3538 19.3005 73.1423 19.149 72.9623 18.951C72.7823 18.75 72.6398 18.504 72.5348 18.213C72.4328 17.922 72.3818 17.5905 72.3818 17.2185C72.3818 16.8795 72.4283 16.566 72.5213 16.278C72.6173 15.99 72.7553 15.7425 72.9353 15.5355C73.1183 15.3255 73.3433 15.162 73.6103 15.045C73.8773 14.928 74.1833 14.8695 74.5283 14.8695C74.8463 14.8695 75.1283 14.922 75.3743 15.027C75.6203 15.129 75.8378 15.2745 76.0268 15.4635L75.8153 15.7515ZM78.752 14.8695C79.085 14.8695 79.385 14.925 79.652 15.036C79.922 15.147 80.15 15.3045 80.336 15.5085C80.525 15.7125 80.669 15.96 80.768 16.251C80.87 16.539 80.921 16.8615 80.921 17.2185C80.921 17.5785 80.87 17.9025 80.768 18.1905C80.669 18.4785 80.525 18.7245 80.336 18.9285C80.15 19.1325 79.922 19.29 79.652 19.401C79.385 19.509 79.085 19.563 78.752 19.563C78.419 19.563 78.1175 19.509 77.8475 19.401C77.5805 19.29 77.3525 19.1325 77.1635 18.9285C76.9745 18.7245 76.829 18.4785 76.727 18.1905C76.625 17.9025 76.574 17.5785 76.574 17.2185C76.574 16.8615 76.625 16.539 76.727 16.251C76.829 15.96 76.9745 15.7125 77.1635 15.5085C77.3525 15.3045 77.5805 15.147 77.8475 15.036C78.1175 14.925 78.419 14.8695 78.752 14.8695ZM78.752 18.9375C79.202 18.9375 79.538 18.7875 79.76 18.4875C79.982 18.1845 80.093 17.763 80.093 17.223C80.093 16.68 79.982 16.257 79.76 15.954C79.538 15.651 79.202 15.4995 78.752 15.4995C78.524 15.4995 78.326 15.5385 78.158 15.6165C77.99 15.6945 77.849 15.807 77.735 15.954C77.624 16.101 77.54 16.2825 77.483 16.4985C77.429 16.7115 77.402 16.953 77.402 17.223C77.402 17.493 77.429 17.7345 77.483 17.9475C77.54 18.1605 77.624 18.3405 77.735 18.4875C77.849 18.6315 77.99 18.7425 78.158 18.8205C78.326 18.8985 78.524 18.9375 78.752 18.9375ZM81.908 19.5V14.9415H82.385C82.499 14.9415 82.571 14.997 82.601 15.108L82.6595 15.576C82.8275 15.369 83.015 15.1995 83.222 15.0675C83.432 14.9355 83.675 14.8695 83.951 14.8695C84.26 14.8695 84.509 14.955 84.698 15.126C84.89 15.297 85.028 15.528 85.112 15.819C85.175 15.654 85.2575 15.5115 85.3595 15.3915C85.4645 15.2715 85.5815 15.1725 85.7105 15.0945C85.8395 15.0165 85.976 14.9595 86.12 14.9235C86.267 14.8875 86.4155 14.8695 86.5655 14.8695C86.8055 14.8695 87.0185 14.9085 87.2045 14.9865C87.3935 15.0615 87.5525 15.1725 87.6815 15.3195C87.8135 15.4665 87.914 15.648 87.983 15.864C88.052 16.077 88.0865 16.3215 88.0865 16.5975V19.5H87.2855V16.5975C87.2855 16.2405 87.2075 15.9705 87.0515 15.7875C86.8955 15.6015 86.669 15.5085 86.372 15.5085C86.24 15.5085 86.114 15.5325 85.994 15.5805C85.877 15.6255 85.7735 15.693 85.6835 15.783C85.5935 15.873 85.5215 15.987 85.4675 16.125C85.4165 16.26 85.391 16.4175 85.391 16.5975V19.5H84.59V16.5975C84.59 16.2315 84.5165 15.9585 84.3695 15.7785C84.2225 15.5985 84.008 15.5085 83.726 15.5085C83.528 15.5085 83.3435 15.5625 83.1725 15.6705C83.0045 15.7755 82.85 15.9195 82.709 16.1025V19.5H81.908ZM91.1041 14.8695C91.3771 14.8695 91.6291 14.916 91.8601 15.009C92.0911 15.099 92.2906 15.231 92.4586 15.405C92.6266 15.576 92.7571 15.789 92.8501 16.044C92.9461 16.296 92.9941 16.584 92.9941 16.908C92.9941 17.034 92.9806 17.118 92.9536 17.16C92.9266 17.202 92.8756 17.223 92.8006 17.223H89.7676C89.7736 17.511 89.8126 17.7615 89.8846 17.9745C89.9566 18.1875 90.0556 18.366 90.1816 18.51C90.3076 18.651 90.4576 18.7575 90.6316 18.8295C90.8056 18.8985 91.0006 18.933 91.2166 18.933C91.4176 18.933 91.5901 18.9105 91.7341 18.8655C91.8811 18.8175 92.0071 18.7665 92.1121 18.7125C92.2171 18.6585 92.3041 18.609 92.3731 18.564C92.4451 18.516 92.5066 18.492 92.5576 18.492C92.6236 18.492 92.6746 18.5175 92.7106 18.5685L92.9356 18.861C92.8366 18.981 92.7181 19.086 92.5801 19.176C92.4421 19.263 92.2936 19.335 92.1346 19.392C91.9786 19.449 91.8166 19.491 91.6486 19.518C91.4806 19.548 91.3141 19.563 91.1491 19.563C90.8341 19.563 90.5431 19.5105 90.2761 19.4055C90.0121 19.2975 89.7826 19.1415 89.5876 18.9375C89.3956 18.7305 89.2456 18.4755 89.1376 18.1725C89.0296 17.8695 88.9756 17.5215 88.9756 17.1285C88.9756 16.8105 89.0236 16.5135 89.1196 16.2375C89.2186 15.9615 89.3596 15.723 89.5426 15.522C89.7256 15.318 89.9491 15.159 90.2131 15.045C90.4771 14.928 90.7741 14.8695 91.1041 14.8695ZM91.1221 15.459C90.7351 15.459 90.4306 15.5715 90.2086 15.7965C89.9866 16.0185 89.8486 16.3275 89.7946 16.7235H92.2741C92.2741 16.5375 92.2486 16.368 92.1976 16.215C92.1466 16.059 92.0716 15.9255 91.9726 15.8145C91.8736 15.7005 91.7521 15.6135 91.6081 15.5535C91.4671 15.4905 91.3051 15.459 91.1221 15.459Z" fill="#505050"/>
<rect x="103.75" y="0.75" width="30.5" height="30.5" rx="11.25" fill="#FFF1CD"/>
<rect x="103.75" y="0.75" width="30.5" height="30.5" rx="11.25" stroke="#FFE6AA" stroke-width="1.5"/>
<rect x="147.75" y="0.75" width="30.5" height="30.5" rx="11.25" fill="#FFF1CD"/>
<rect x="147.75" y="0.75" width="30.5" height="30.5" rx="11.25" stroke="#FFE6AA" stroke-width="1.5"/>
<rect x="191.75" y="0.75" width="30.5" height="30.5" rx="11.25" fill="#FFF1CD"/>
<rect x="191.75" y="0.75" width="30.5" height="30.5" rx="11.25" stroke="#FFE6AA" stroke-width="1.5"/>
<rect x="235.75" y="0.75" width="30.5" height="30.5" rx="11.25" fill="#FFF1CD"/>
<rect x="235.75" y="0.75" width="30.5" height="30.5" rx="11.25" stroke="#FFE6AA" stroke-width="1.5"/>
<path d="M233.773 16.278C233.773 16.761 233.696 17.205 233.543 17.61C233.39 18.012 233.174 18.3585 232.895 18.6495C232.616 18.9405 232.28 19.167 231.887 19.329C231.497 19.488 231.065 19.5675 230.591 19.5675C230.117 19.5675 229.685 19.488 229.295 19.329C228.905 19.167 228.571 18.9405 228.292 18.6495C228.013 18.3585 227.797 18.012 227.644 17.61C227.491 17.205 227.414 16.761 227.414 16.278C227.414 15.795 227.491 15.3525 227.644 14.9505C227.797 14.5455 228.013 14.1975 228.292 13.9065C228.571 13.6125 228.905 13.3845 229.295 13.2225C229.685 13.0605 230.117 12.9795 230.591 12.9795C231.065 12.9795 231.497 13.0605 231.887 13.2225C232.28 13.3845 232.616 13.6125 232.895 13.9065C233.174 14.1975 233.39 14.5455 233.543 14.9505C233.696 15.3525 233.773 15.795 233.773 16.278ZM232.877 16.278C232.877 15.882 232.823 15.5265 232.715 15.2115C232.607 14.8965 232.454 14.631 232.256 14.415C232.058 14.196 231.818 14.028 231.536 13.911C231.254 13.794 230.939 13.7355 230.591 13.7355C230.246 13.7355 229.933 13.794 229.651 13.911C229.369 14.028 229.127 14.196 228.926 14.415C228.728 14.631 228.575 14.8965 228.467 15.2115C228.359 15.5265 228.305 15.882 228.305 16.278C228.305 16.674 228.359 17.0295 228.467 17.3445C228.575 17.6565 228.728 17.922 228.926 18.141C229.127 18.357 229.369 18.5235 229.651 18.6405C229.933 18.7545 230.246 18.8115 230.591 18.8115C230.939 18.8115 231.254 18.7545 231.536 18.6405C231.818 18.5235 232.058 18.357 232.256 18.141C232.454 17.922 232.607 17.6565 232.715 17.3445C232.823 17.0295 232.877 16.674 232.877 16.278ZM234.838 19.5V14.9415H235.315C235.429 14.9415 235.501 14.997 235.531 15.108L235.594 15.603C235.792 15.384 236.012 15.207 236.255 15.072C236.501 14.937 236.785 14.8695 237.106 14.8695C237.355 14.8695 237.574 14.9115 237.763 14.9955C237.955 15.0765 238.114 15.1935 238.24 15.3465C238.369 15.4965 238.466 15.678 238.532 15.891C238.598 16.104 238.631 16.3395 238.631 16.5975V19.5H237.83V16.5975C237.83 16.2525 237.751 15.9855 237.592 15.7965C237.436 15.6045 237.196 15.5085 236.872 15.5085C236.635 15.5085 236.413 15.5655 236.206 15.6795C236.002 15.7935 235.813 15.948 235.639 16.143V19.5H234.838ZM239.866 19.5V12.8715H240.671V15.5985C240.86 15.3795 241.076 15.204 241.319 15.072C241.565 14.937 241.846 14.8695 242.161 14.8695C242.425 14.8695 242.663 14.919 242.876 15.018C243.089 15.117 243.271 15.2655 243.421 15.4635C243.571 15.6585 243.686 15.9015 243.767 16.1925C243.848 16.4805 243.889 16.8135 243.889 17.1915C243.889 17.5275 243.844 17.841 243.754 18.132C243.664 18.42 243.533 18.6705 243.362 18.8835C243.194 19.0935 242.987 19.26 242.741 19.383C242.498 19.503 242.224 19.563 241.918 19.563C241.624 19.563 241.373 19.506 241.166 19.392C240.962 19.278 240.784 19.119 240.631 18.915L240.59 19.329C240.566 19.443 240.497 19.5 240.383 19.5H239.866ZM241.9 15.5085C241.639 15.5085 241.409 15.5685 241.211 15.6885C241.016 15.8085 240.836 15.978 240.671 16.197V18.402C240.815 18.6 240.974 18.7395 241.148 18.8205C241.325 18.9015 241.522 18.942 241.738 18.942C242.164 18.942 242.491 18.7905 242.719 18.4875C242.947 18.1845 243.061 17.7525 243.061 17.1915C243.061 16.8945 243.034 16.6395 242.98 16.4265C242.929 16.2135 242.854 16.0395 242.755 15.9045C242.656 15.7665 242.534 15.666 242.39 15.603C242.246 15.54 242.083 15.5085 241.9 15.5085ZM246.711 14.8695C247.044 14.8695 247.344 14.925 247.611 15.036C247.881 15.147 248.109 15.3045 248.295 15.5085C248.484 15.7125 248.628 15.96 248.727 16.251C248.829 16.539 248.88 16.8615 248.88 17.2185C248.88 17.5785 248.829 17.9025 248.727 18.1905C248.628 18.4785 248.484 18.7245 248.295 18.9285C248.109 19.1325 247.881 19.29 247.611 19.401C247.344 19.509 247.044 19.563 246.711 19.563C246.378 19.563 246.076 19.509 245.806 19.401C245.539 19.29 245.311 19.1325 245.122 18.9285C244.933 18.7245 244.788 18.4785 244.686 18.1905C244.584 17.9025 244.533 17.5785 244.533 17.2185C244.533 16.8615 244.584 16.539 244.686 16.251C244.788 15.96 244.933 15.7125 245.122 15.5085C245.311 15.3045 245.539 15.147 245.806 15.036C246.076 14.925 246.378 14.8695 246.711 14.8695ZM246.711 18.9375C247.161 18.9375 247.497 18.7875 247.719 18.4875C247.941 18.1845 248.052 17.763 248.052 17.223C248.052 16.68 247.941 16.257 247.719 15.954C247.497 15.651 247.161 15.4995 246.711 15.4995C246.483 15.4995 246.285 15.5385 246.117 15.6165C245.949 15.6945 245.808 15.807 245.694 15.954C245.583 16.101 245.499 16.2825 245.442 16.4985C245.388 16.7115 245.361 16.953 245.361 17.223C245.361 17.493 245.388 17.7345 245.442 17.9475C245.499 18.1605 245.583 18.3405 245.694 18.4875C245.808 18.6315 245.949 18.7425 246.117 18.8205C246.285 18.8985 246.483 18.9375 246.711 18.9375ZM253.215 19.5H252.859C252.781 19.5 252.718 19.488 252.67 19.464C252.622 19.44 252.591 19.389 252.576 19.311L252.486 18.888C252.366 18.996 252.249 19.0935 252.135 19.1805C252.021 19.2645 251.901 19.3365 251.775 19.3965C251.649 19.4535 251.514 19.497 251.37 19.527C251.229 19.557 251.071 19.572 250.897 19.572C250.72 19.572 250.554 19.548 250.398 19.5C250.245 19.449 250.111 19.374 249.997 19.275C249.883 19.176 249.792 19.0515 249.723 18.9015C249.657 18.7485 249.624 18.5685 249.624 18.3615C249.624 18.1815 249.673 18.009 249.772 17.844C249.871 17.676 250.03 17.5275 250.249 17.3985C250.471 17.2695 250.761 17.1645 251.118 17.0835C251.475 16.9995 251.911 16.9515 252.427 16.9395V16.584C252.427 16.23 252.351 15.963 252.198 15.783C252.048 15.6 251.824 15.5085 251.527 15.5085C251.332 15.5085 251.167 15.534 251.032 15.585C250.9 15.633 250.785 15.6885 250.686 15.7515C250.59 15.8115 250.506 15.867 250.434 15.918C250.365 15.966 250.296 15.99 250.227 15.99C250.173 15.99 250.125 15.9765 250.083 15.9495C250.044 15.9195 250.012 15.8835 249.988 15.8415L249.844 15.585C250.096 15.342 250.368 15.1605 250.659 15.0405C250.95 14.9205 251.272 14.8605 251.626 14.8605C251.881 14.8605 252.108 14.9025 252.306 14.9865C252.504 15.0705 252.67 15.1875 252.805 15.3375C252.94 15.4875 253.042 15.669 253.111 15.882C253.18 16.095 253.215 16.329 253.215 16.584V19.5ZM251.136 19.0095C251.277 19.0095 251.406 18.996 251.523 18.969C251.64 18.939 251.749 18.8985 251.851 18.8475C251.956 18.7935 252.055 18.729 252.148 18.654C252.244 18.579 252.337 18.4935 252.427 18.3975V17.448C252.058 17.46 251.745 17.49 251.487 17.538C251.229 17.583 251.019 17.643 250.857 17.718C250.695 17.793 250.576 17.8815 250.501 17.9835C250.429 18.0855 250.393 18.1995 250.393 18.3255C250.393 18.4455 250.413 18.549 250.452 18.636C250.491 18.723 250.543 18.795 250.609 18.852C250.675 18.906 250.753 18.9465 250.843 18.9735C250.933 18.9975 251.031 19.0095 251.136 19.0095ZM254.428 19.5V14.9415H254.887C254.974 14.9415 255.034 14.958 255.067 14.991C255.1 15.024 255.123 15.081 255.135 15.162L255.189 15.873C255.345 15.555 255.537 15.3075 255.765 15.1305C255.996 14.9505 256.266 14.8605 256.575 14.8605C256.701 14.8605 256.815 14.8755 256.917 14.9055C257.019 14.9325 257.113 14.9715 257.2 15.0225L257.097 15.621C257.076 15.696 257.029 15.7335 256.957 15.7335C256.915 15.7335 256.851 15.72 256.764 15.693C256.677 15.663 256.555 15.648 256.399 15.648C256.12 15.648 255.886 15.729 255.697 15.891C255.511 16.053 255.355 16.2885 255.229 16.5975V19.5H254.428ZM261.267 19.5C261.153 19.5 261.081 19.4445 261.051 19.3335L260.979 18.78C260.784 19.017 260.56 19.2075 260.308 19.3515C260.059 19.4925 259.773 19.563 259.449 19.563C259.188 19.563 258.951 19.5135 258.738 19.4145C258.525 19.3125 258.343 19.164 258.193 18.969C258.043 18.774 257.928 18.531 257.847 18.24C257.766 17.949 257.725 17.6145 257.725 17.2365C257.725 16.9005 257.77 16.5885 257.86 16.3005C257.95 16.0095 258.079 15.7575 258.247 15.5445C258.418 15.3315 258.625 15.165 258.868 15.045C259.111 14.922 259.387 14.8605 259.696 14.8605C259.975 14.8605 260.214 14.9085 260.412 15.0045C260.61 15.0975 260.787 15.2295 260.943 15.4005V12.8715H261.744V19.5H261.267ZM259.714 18.915C259.975 18.915 260.203 18.855 260.398 18.735C260.596 18.615 260.778 18.4455 260.943 18.2265V16.0215C260.796 15.8235 260.634 15.6855 260.457 15.6075C260.283 15.5265 260.089 15.486 259.876 15.486C259.45 15.486 259.123 15.6375 258.895 15.9405C258.667 16.2435 258.553 16.6755 258.553 17.2365C258.553 17.5335 258.579 17.7885 258.63 18.0015C258.681 18.2115 258.756 18.3855 258.855 18.5235C258.954 18.6585 259.075 18.7575 259.219 18.8205C259.363 18.8835 259.528 18.915 259.714 18.915ZM263.977 14.9415V19.5H263.176V14.9415H263.977ZM264.157 13.5105C264.157 13.5885 264.14 13.662 264.107 13.731C264.077 13.797 264.035 13.857 263.981 13.911C263.93 13.962 263.87 14.0025 263.801 14.0325C263.732 14.0625 263.659 14.0775 263.581 14.0775C263.503 14.0775 263.429 14.0625 263.36 14.0325C263.294 14.0025 263.234 13.962 263.18 13.911C263.129 13.857 263.089 13.797 263.059 13.731C263.029 13.662 263.014 13.5885 263.014 13.5105C263.014 13.4325 263.029 13.359 263.059 13.29C263.089 13.218 263.129 13.1565 263.18 13.1055C263.234 13.0515 263.294 13.0095 263.36 12.9795C263.429 12.9495 263.503 12.9345 263.581 12.9345C263.659 12.9345 263.732 12.9495 263.801 12.9795C263.87 13.0095 263.93 13.0515 263.981 13.1055C264.035 13.1565 264.077 13.218 264.107 13.29C264.14 13.359 264.157 13.4325 264.157 13.5105ZM265.388 19.5V14.9415H265.865C265.979 14.9415 266.051 14.997 266.081 15.108L266.144 15.603C266.342 15.384 266.563 15.207 266.806 15.072C267.052 14.937 267.335 14.8695 267.656 14.8695C267.905 14.8695 268.124 14.9115 268.313 14.9955C268.505 15.0765 268.664 15.1935 268.79 15.3465C268.919 15.4965 269.017 15.678 269.083 15.891C269.149 16.104 269.182 16.3395 269.182 16.5975V19.5H268.381V16.5975C268.381 16.2525 268.301 15.9855 268.142 15.7965C267.986 15.6045 267.746 15.5085 267.422 15.5085C267.185 15.5085 266.963 15.5655 266.756 15.6795C266.552 15.7935 266.363 15.948 266.189 16.143V19.5H265.388ZM271.924 14.865C272.122 14.865 272.306 14.8875 272.477 14.9325C272.651 14.9745 272.809 15.0375 272.95 15.1215H274.187V15.4185C274.187 15.5175 274.124 15.5805 273.998 15.6075L273.481 15.6795C273.583 15.8745 273.634 16.092 273.634 16.332C273.634 16.554 273.59 16.7565 273.503 16.9395C273.419 17.1195 273.301 17.274 273.148 17.403C272.998 17.532 272.818 17.631 272.608 17.7C272.401 17.769 272.173 17.8035 271.924 17.8035C271.711 17.8035 271.51 17.778 271.321 17.727C271.225 17.787 271.151 17.8515 271.1 17.9205C271.052 17.9895 271.028 18.057 271.028 18.123C271.028 18.231 271.072 18.3135 271.159 18.3705C271.246 18.4245 271.361 18.4635 271.505 18.4875C271.649 18.5115 271.813 18.5265 271.996 18.5325C272.179 18.5385 272.365 18.549 272.554 18.564C272.746 18.576 272.933 18.5985 273.116 18.6315C273.299 18.6645 273.463 18.7185 273.607 18.7935C273.751 18.8685 273.866 18.972 273.953 19.104C274.04 19.236 274.084 19.407 274.084 19.617C274.084 19.812 274.034 20.001 273.935 20.184C273.839 20.367 273.7 20.529 273.517 20.67C273.334 20.814 273.11 20.928 272.846 21.012C272.582 21.099 272.284 21.1425 271.951 21.1425C271.618 21.1425 271.325 21.1095 271.073 21.0435C270.824 20.9775 270.617 20.889 270.452 20.778C270.287 20.667 270.163 20.538 270.079 20.391C269.998 20.247 269.957 20.0955 269.957 19.9365C269.957 19.7115 270.028 19.521 270.169 19.365C270.313 19.206 270.509 19.08 270.758 18.987C270.629 18.927 270.526 18.8475 270.448 18.7485C270.373 18.6465 270.335 18.5115 270.335 18.3435C270.335 18.2775 270.347 18.21 270.371 18.141C270.395 18.069 270.431 17.9985 270.479 17.9295C270.53 17.8605 270.592 17.7945 270.664 17.7315C270.736 17.6685 270.82 17.613 270.916 17.565C270.691 17.439 270.514 17.2725 270.385 17.0655C270.259 16.8555 270.196 16.611 270.196 16.332C270.196 16.11 270.238 15.909 270.322 15.729C270.409 15.546 270.529 15.3915 270.682 15.2655C270.835 15.1365 271.016 15.0375 271.226 14.9685C271.439 14.8995 271.672 14.865 271.924 14.865ZM273.346 19.7475C273.346 19.6335 273.314 19.542 273.251 19.473C273.188 19.404 273.103 19.3515 272.995 19.3155C272.887 19.2765 272.762 19.248 272.621 19.23C272.48 19.212 272.332 19.2 272.176 19.194C272.02 19.185 271.861 19.176 271.699 19.167C271.537 19.158 271.382 19.1415 271.235 19.1175C271.064 19.1985 270.925 19.2975 270.817 19.4145C270.712 19.5315 270.659 19.671 270.659 19.833C270.659 19.935 270.685 20.0295 270.736 20.1165C270.79 20.2065 270.871 20.283 270.979 20.346C271.087 20.412 271.222 20.463 271.384 20.499C271.549 20.538 271.742 20.5575 271.964 20.5575C272.18 20.5575 272.374 20.538 272.545 20.499C272.716 20.46 272.86 20.4045 272.977 20.3325C273.097 20.2605 273.188 20.175 273.251 20.076C273.314 19.977 273.346 19.8675 273.346 19.7475ZM271.924 17.2725C272.086 17.2725 272.228 17.25 272.351 17.205C272.477 17.16 272.582 17.097 272.666 17.016C272.75 16.935 272.813 16.839 272.855 16.728C272.897 16.614 272.918 16.4895 272.918 16.3545C272.918 16.0755 272.833 15.8535 272.662 15.6885C272.494 15.5235 272.248 15.441 271.924 15.441C271.603 15.441 271.357 15.5235 271.186 15.6885C271.018 15.8535 270.934 16.0755 270.934 16.3545C270.934 16.4895 270.955 16.614 270.997 16.728C271.042 16.839 271.106 16.935 271.19 17.016C271.274 17.097 271.378 17.16 271.501 17.205C271.624 17.25 271.765 17.2725 271.924 17.2725Z" fill="#505050"/>
<rect x="279.75" y="0.75" width="30.5" height="30.5" rx="11.25" fill="#FFF1CD"/>
<rect x="279.75" y="0.75" width="30.5" height="30.5" rx="11.25" stroke="#FFE6AA" stroke-width="1.5"/>
<rect x="59.75" y="41.75" width="30.5" height="30.5" rx="11.25" fill="#FFF1CD"/>
<rect x="59.75" y="41.75" width="30.5" height="30.5" rx="11.25" stroke="#FFE6AA" stroke-width="1.5"/>
<rect x="103.75" y="41.75" width="30.5" height="30.5" rx="11.25" fill="#FFF1CD"/>
<rect x="103.75" y="41.75" width="30.5" height="30.5" rx="11.25" stroke="#FFE6AA" stroke-width="1.5"/>
<path d="M110.818 60.5H109.945V54.0515H110.818V60.5ZM112.417 60.5V55.9415H112.894C113.008 55.9415 113.08 55.997 113.11 56.108L113.173 56.603C113.371 56.384 113.591 56.207 113.834 56.072C114.08 55.937 114.364 55.8695 114.685 55.8695C114.934 55.8695 115.153 55.9115 115.342 55.9955C115.534 56.0765 115.693 56.1935 115.819 56.3465C115.948 56.4965 116.045 56.678 116.111 56.891C116.177 57.104 116.21 57.3395 116.21 57.5975V60.5H115.409V57.5975C115.409 57.2525 115.33 56.9855 115.171 56.7965C115.015 56.6045 114.775 56.5085 114.451 56.5085C114.214 56.5085 113.992 56.5655 113.785 56.6795C113.581 56.7935 113.392 56.948 113.218 57.143V60.5H112.417ZM118.799 60.572C118.439 60.572 118.162 60.4715 117.967 60.2705C117.775 60.0695 117.679 59.78 117.679 59.402V56.612H117.13C117.082 56.612 117.041 56.5985 117.008 56.5715C116.975 56.5415 116.959 56.4965 116.959 56.4365V56.117L117.706 56.0225L117.89 54.614C117.896 54.569 117.916 54.533 117.949 54.506C117.982 54.476 118.024 54.461 118.075 54.461H118.48V56.0315H119.785V56.612H118.48V59.348C118.48 59.54 118.526 59.6825 118.619 59.7755C118.712 59.8685 118.832 59.915 118.979 59.915C119.063 59.915 119.135 59.9045 119.195 59.8835C119.258 59.8595 119.312 59.834 119.357 59.807C119.402 59.78 119.44 59.756 119.47 59.735C119.503 59.711 119.531 59.699 119.555 59.699C119.597 59.699 119.635 59.7245 119.668 59.7755L119.902 60.158C119.764 60.287 119.597 60.389 119.402 60.464C119.207 60.536 119.006 60.572 118.799 60.572ZM120.775 60.5V55.9415H121.234C121.321 55.9415 121.381 55.958 121.414 55.991C121.447 56.024 121.47 56.081 121.482 56.162L121.536 56.873C121.692 56.555 121.884 56.3075 122.112 56.1305C122.343 55.9505 122.613 55.8605 122.922 55.8605C123.048 55.8605 123.162 55.8755 123.264 55.9055C123.366 55.9325 123.46 55.9715 123.547 56.0225L123.444 56.621C123.423 56.696 123.376 56.7335 123.304 56.7335C123.262 56.7335 123.198 56.72 123.111 56.693C123.024 56.663 122.902 56.648 122.746 56.648C122.467 56.648 122.233 56.729 122.044 56.891C121.858 57.053 121.702 57.2885 121.576 57.5975V60.5H120.775ZM126.25 55.8695C126.583 55.8695 126.883 55.925 127.15 56.036C127.42 56.147 127.648 56.3045 127.834 56.5085C128.023 56.7125 128.167 56.96 128.266 57.251C128.368 57.539 128.419 57.8615 128.419 58.2185C128.419 58.5785 128.368 58.9025 128.266 59.1905C128.167 59.4785 128.023 59.7245 127.834 59.9285C127.648 60.1325 127.42 60.29 127.15 60.401C126.883 60.509 126.583 60.563 126.25 60.563C125.917 60.563 125.616 60.509 125.346 60.401C125.079 60.29 124.851 60.1325 124.662 59.9285C124.473 59.7245 124.327 59.4785 124.225 59.1905C124.123 58.9025 124.072 58.5785 124.072 58.2185C124.072 57.8615 124.123 57.539 124.225 57.251C124.327 56.96 124.473 56.7125 124.662 56.5085C124.851 56.3045 125.079 56.147 125.346 56.036C125.616 55.925 125.917 55.8695 126.25 55.8695ZM126.25 59.9375C126.7 59.9375 127.036 59.7875 127.258 59.4875C127.48 59.1845 127.591 58.763 127.591 58.223C127.591 57.68 127.48 57.257 127.258 56.954C127.036 56.651 126.7 56.4995 126.25 56.4995C126.022 56.4995 125.824 56.5385 125.656 56.6165C125.488 56.6945 125.347 56.807 125.233 56.954C125.122 57.101 125.038 57.2825 124.981 57.4985C124.927 57.7115 124.9 57.953 124.9 58.223C124.9 58.493 124.927 58.7345 124.981 58.9475C125.038 59.1605 125.122 59.3405 125.233 59.4875C125.347 59.6315 125.488 59.7425 125.656 59.8205C125.824 59.8985 126.022 59.9375 126.25 59.9375Z" fill="#505050"/>
<rect x="147.75" y="41.75" width="30.5" height="30.5" rx="11.25" fill="#FFF1CD"/>
<rect x="147.75" y="41.75" width="30.5" height="30.5" rx="11.25" stroke="#FFE6AA" stroke-width="1.5"/>
<rect x="191.75" y="41.75" width="30.5" height="30.5" rx="11.25" fill="#FFF1CD"/>
<rect x="191.75" y="41.75" width="30.5" height="30.5" rx="11.25" stroke="#FFE6AA" stroke-width="1.5"/>
<path d="M204.273 57.278C204.273 57.581 204.241 57.869 204.178 58.142C204.118 58.415 204.03 58.67 203.913 58.907C203.796 59.141 203.653 59.354 203.485 59.546C203.317 59.738 203.128 59.9045 202.918 60.0455L204.574 61.832H203.854C203.746 61.832 203.65 61.817 203.566 61.787C203.482 61.757 203.406 61.7045 203.337 61.6295L202.203 60.3965C202.032 60.4505 201.853 60.4925 201.667 60.5225C201.484 60.5525 201.292 60.5675 201.091 60.5675C200.617 60.5675 200.185 60.488 199.795 60.329C199.405 60.167 199.071 59.9405 198.792 59.6495C198.513 59.3585 198.297 59.012 198.144 58.61C197.991 58.205 197.914 57.761 197.914 57.278C197.914 56.795 197.991 56.3525 198.144 55.9505C198.297 55.5455 198.513 55.1975 198.792 54.9065C199.071 54.6125 199.405 54.3845 199.795 54.2225C200.185 54.0605 200.617 53.9795 201.091 53.9795C201.565 53.9795 201.997 54.0605 202.387 54.2225C202.78 54.3845 203.116 54.6125 203.395 54.9065C203.674 55.1975 203.89 55.5455 204.043 55.9505C204.196 56.3525 204.273 56.795 204.273 57.278ZM203.377 57.278C203.377 56.882 203.323 56.5265 203.215 56.2115C203.107 55.8965 202.954 55.631 202.756 55.415C202.558 55.196 202.318 55.028 202.036 54.911C201.754 54.794 201.439 54.7355 201.091 54.7355C200.746 54.7355 200.433 54.794 200.151 54.911C199.869 55.028 199.627 55.196 199.426 55.415C199.228 55.631 199.075 55.8965 198.967 56.2115C198.859 56.5265 198.805 56.882 198.805 57.278C198.805 57.674 198.859 58.0295 198.967 58.3445C199.075 58.6565 199.228 58.922 199.426 59.141C199.627 59.357 199.869 59.5235 200.151 59.6405C200.433 59.7545 200.746 59.8115 201.091 59.8115C201.439 59.8115 201.754 59.7545 202.036 59.6405C202.318 59.5235 202.558 59.357 202.756 59.141C202.954 58.922 203.107 58.6565 203.215 58.3445C203.323 58.0295 203.377 57.674 203.377 57.278ZM206.031 55.9415V58.8485C206.031 59.1935 206.11 59.4605 206.269 59.6495C206.428 59.8385 206.668 59.933 206.989 59.933C207.223 59.933 207.444 59.8775 207.651 59.7665C207.858 59.6555 208.048 59.501 208.222 59.303V55.9415H209.023V60.5H208.546C208.432 60.5 208.36 60.4445 208.33 60.3335L208.267 59.843C208.069 60.062 207.847 60.239 207.601 60.374C207.355 60.506 207.073 60.572 206.755 60.572C206.506 60.572 206.286 60.5315 206.094 60.4505C205.905 60.3665 205.746 60.2495 205.617 60.0995C205.488 59.9495 205.39 59.768 205.324 59.555C205.261 59.342 205.23 59.1065 205.23 58.8485V55.9415H206.031ZM211.23 55.9415V60.5H210.429V55.9415H211.23ZM211.41 54.5105C211.41 54.5885 211.393 54.662 211.36 54.731C211.33 54.797 211.288 54.857 211.234 54.911C211.183 54.962 211.123 55.0025 211.054 55.0325C210.985 55.0625 210.912 55.0775 210.834 55.0775C210.756 55.0775 210.682 55.0625 210.613 55.0325C210.547 55.0025 210.487 54.962 210.433 54.911C210.382 54.857 210.342 54.797 210.312 54.731C210.282 54.662 210.267 54.5885 210.267 54.5105C210.267 54.4325 210.282 54.359 210.312 54.29C210.342 54.218 210.382 54.1565 210.433 54.1055C210.487 54.0515 210.547 54.0095 210.613 53.9795C210.682 53.9495 210.756 53.9345 210.834 53.9345C210.912 53.9345 210.985 53.9495 211.054 53.9795C211.123 54.0095 211.183 54.0515 211.234 54.1055C211.288 54.1565 211.33 54.218 211.36 54.29C211.393 54.359 211.41 54.4325 211.41 54.5105ZM215.823 56.2835C215.823 56.3405 215.812 56.396 215.791 56.45C215.77 56.501 215.743 56.5475 215.71 56.5895L213.244 59.8745H215.733V60.5H212.299V60.167C212.299 60.128 212.308 60.083 212.326 60.032C212.347 59.978 212.376 59.927 212.412 59.879L214.891 56.5715H212.439V55.9415H215.823V56.2835Z" fill="#505050"/>
<rect x="235.75" y="41.75" width="30.5" height="30.5" rx="11.25" fill="#FFF1CD"/>
<rect x="235.75" y="41.75" width="30.5" height="30.5" rx="11.25" stroke="#FFE6AA" stroke-width="1.5"/>
<rect x="279.75" y="41.75" width="30.5" height="30.5" rx="11.25" fill="#FFF1CD"/>
<rect x="279.75" y="41.75" width="30.5" height="30.5" rx="11.25" stroke="#FFE6AA" stroke-width="1.5"/>
<path d="M277.818 60.5H276.945V54.0515H277.818V60.5ZM279.417 60.5V55.9415H279.894C280.008 55.9415 280.08 55.997 280.11 56.108L280.173 56.603C280.371 56.384 280.591 56.207 280.834 56.072C281.08 55.937 281.364 55.8695 281.685 55.8695C281.934 55.8695 282.153 55.9115 282.342 55.9955C282.534 56.0765 282.693 56.1935 282.819 56.3465C282.948 56.4965 283.045 56.678 283.111 56.891C283.177 57.104 283.21 57.3395 283.21 57.5975V60.5H282.409V57.5975C282.409 57.2525 282.33 56.9855 282.171 56.7965C282.015 56.6045 281.775 56.5085 281.451 56.5085C281.214 56.5085 280.992 56.5655 280.785 56.6795C280.581 56.7935 280.392 56.948 280.218 57.143V60.5H279.417ZM285.799 60.572C285.439 60.572 285.162 60.4715 284.967 60.2705C284.775 60.0695 284.679 59.78 284.679 59.402V56.612H284.13C284.082 56.612 284.041 56.5985 284.008 56.5715C283.975 56.5415 283.959 56.4965 283.959 56.4365V56.117L284.706 56.0225L284.89 54.614C284.896 54.569 284.916 54.533 284.949 54.506C284.982 54.476 285.024 54.461 285.075 54.461H285.48V56.0315H286.785V56.612H285.48V59.348C285.48 59.54 285.526 59.6825 285.619 59.7755C285.712 59.8685 285.832 59.915 285.979 59.915C286.063 59.915 286.135 59.9045 286.195 59.8835C286.258 59.8595 286.312 59.834 286.357 59.807C286.402 59.78 286.44 59.756 286.47 59.735C286.503 59.711 286.531 59.699 286.555 59.699C286.597 59.699 286.635 59.7245 286.668 59.7755L286.902 60.158C286.764 60.287 286.597 60.389 286.402 60.464C286.207 60.536 286.006 60.572 285.799 60.572ZM289.58 55.8695C289.853 55.8695 290.105 55.916 290.336 56.009C290.567 56.099 290.766 56.231 290.934 56.405C291.102 56.576 291.233 56.789 291.326 57.044C291.422 57.296 291.47 57.584 291.47 57.908C291.47 58.034 291.456 58.118 291.429 58.16C291.402 58.202 291.351 58.223 291.276 58.223H288.243C288.249 58.511 288.288 58.7615 288.36 58.9745C288.432 59.1875 288.531 59.366 288.657 59.51C288.783 59.651 288.933 59.7575 289.107 59.8295C289.281 59.8985 289.476 59.933 289.692 59.933C289.893 59.933 290.066 59.9105 290.21 59.8655C290.357 59.8175 290.483 59.7665 290.588 59.7125C290.693 59.6585 290.78 59.609 290.849 59.564C290.921 59.516 290.982 59.492 291.033 59.492C291.099 59.492 291.15 59.5175 291.186 59.5685L291.411 59.861C291.312 59.981 291.194 60.086 291.056 60.176C290.918 60.263 290.769 60.335 290.61 60.392C290.454 60.449 290.292 60.491 290.124 60.518C289.956 60.548 289.79 60.563 289.625 60.563C289.31 60.563 289.019 60.5105 288.752 60.4055C288.488 60.2975 288.258 60.1415 288.063 59.9375C287.871 59.7305 287.721 59.4755 287.613 59.1725C287.505 58.8695 287.451 58.5215 287.451 58.1285C287.451 57.8105 287.499 57.5135 287.595 57.2375C287.694 56.9615 287.835 56.723 288.018 56.522C288.201 56.318 288.425 56.159 288.689 56.045C288.953 55.928 289.25 55.8695 289.58 55.8695ZM289.598 56.459C289.211 56.459 288.906 56.5715 288.684 56.7965C288.462 57.0185 288.324 57.3275 288.27 57.7235H290.75C290.75 57.5375 290.724 57.368 290.673 57.215C290.622 57.059 290.547 56.9255 290.448 56.8145C290.349 56.7005 290.228 56.6135 290.084 56.5535C289.943 56.4905 289.781 56.459 289.598 56.459ZM292.495 60.5V55.9415H292.954C293.041 55.9415 293.101 55.958 293.134 55.991C293.167 56.024 293.189 56.081 293.201 56.162L293.255 56.873C293.411 56.555 293.603 56.3075 293.831 56.1305C294.062 55.9505 294.332 55.8605 294.641 55.8605C294.767 55.8605 294.881 55.8755 294.983 55.9055C295.085 55.9325 295.18 55.9715 295.267 56.0225L295.163 56.621C295.142 56.696 295.096 56.7335 295.024 56.7335C294.982 56.7335 294.917 56.72 294.83 56.693C294.743 56.663 294.622 56.648 294.466 56.648C294.187 56.648 293.953 56.729 293.764 56.891C293.578 57.053 293.422 57.2885 293.296 57.5975V60.5H292.495ZM295.549 55.9415H296.206C296.269 55.9415 296.321 55.958 296.363 55.991C296.405 56.024 296.435 56.063 296.453 56.108L297.61 59.042C297.652 59.15 297.685 59.258 297.709 59.366C297.733 59.474 297.755 59.5805 297.776 59.6855C297.8 59.5805 297.826 59.474 297.853 59.366C297.88 59.258 297.914 59.15 297.956 59.042L299.126 56.108C299.144 56.06 299.173 56.021 299.212 55.991C299.254 55.958 299.305 55.9415 299.365 55.9415H299.99L298.132 60.5H297.407L295.549 55.9415ZM301.621 55.9415V60.5H300.82V55.9415H301.621ZM301.801 54.5105C301.801 54.5885 301.785 54.662 301.752 54.731C301.722 54.797 301.68 54.857 301.626 54.911C301.575 54.962 301.515 55.0025 301.446 55.0325C301.377 55.0625 301.303 55.0775 301.225 55.0775C301.147 55.0775 301.074 55.0625 301.005 55.0325C300.939 55.0025 300.879 54.962 300.825 54.911C300.774 54.857 300.733 54.797 300.703 54.731C300.673 54.662 300.658 54.5885 300.658 54.5105C300.658 54.4325 300.673 54.359 300.703 54.29C300.733 54.218 300.774 54.1565 300.825 54.1055C300.879 54.0515 300.939 54.0095 301.005 53.9795C301.074 53.9495 301.147 53.9345 301.225 53.9345C301.303 53.9345 301.377 53.9495 301.446 53.9795C301.515 54.0095 301.575 54.0515 301.626 54.1055C301.68 54.1565 301.722 54.218 301.752 54.29C301.785 54.359 301.801 54.4325 301.801 54.5105ZM304.837 55.8695C305.11 55.8695 305.362 55.916 305.593 56.009C305.824 56.099 306.024 56.231 306.192 56.405C306.36 56.576 306.49 56.789 306.583 57.044C306.679 57.296 306.727 57.584 306.727 57.908C306.727 58.034 306.714 58.118 306.687 58.16C306.66 58.202 306.609 58.223 306.534 58.223H303.501C303.507 58.511 303.546 58.7615 303.618 58.9745C303.69 59.1875 303.789 59.366 303.915 59.51C304.041 59.651 304.191 59.7575 304.365 59.8295C304.539 59.8985 304.734 59.933 304.95 59.933C305.151 59.933 305.323 59.9105 305.467 59.8655C305.614 59.8175 305.74 59.7665 305.845 59.7125C305.95 59.6585 306.037 59.609 306.106 59.564C306.178 59.516 306.24 59.492 306.291 59.492C306.357 59.492 306.408 59.5175 306.444 59.5685L306.669 59.861C306.57 59.981 306.451 60.086 306.313 60.176C306.175 60.263 306.027 60.335 305.868 60.392C305.712 60.449 305.55 60.491 305.382 60.518C305.214 60.548 305.047 60.563 304.882 60.563C304.567 60.563 304.276 60.5105 304.009 60.4055C303.745 60.2975 303.516 60.1415 303.321 59.9375C303.129 59.7305 302.979 59.4755 302.871 59.1725C302.763 58.8695 302.709 58.5215 302.709 58.1285C302.709 57.8105 302.757 57.5135 302.853 57.2375C302.952 56.9615 303.093 56.723 303.276 56.522C303.459 56.318 303.682 56.159 303.946 56.045C304.21 55.928 304.507 55.8695 304.837 55.8695ZM304.855 56.459C304.468 56.459 304.164 56.5715 303.942 56.7965C303.72 57.0185 303.582 57.3275 303.528 57.7235H306.007C306.007 57.5375 305.982 57.368 305.931 57.215C305.88 57.059 305.805 56.9255 305.706 56.8145C305.607 56.7005 305.485 56.6135 305.341 56.5535C305.2 56.4905 305.038 56.459 304.855 56.459ZM307.159 55.9415H307.789C307.855 55.9415 307.909 55.958 307.951 55.991C307.993 56.024 308.021 56.063 308.036 56.108L308.909 59.042C308.933 59.15 308.956 59.255 308.977 59.357C308.998 59.456 309.016 59.5565 309.031 59.6585C309.055 59.5565 309.082 59.456 309.112 59.357C309.142 59.255 309.173 59.15 309.206 59.042L310.169 56.09C310.184 56.045 310.21 56.0075 310.246 55.9775C310.285 55.9475 310.333 55.9325 310.39 55.9325H310.736C310.796 55.9325 310.846 55.9475 310.885 55.9775C310.924 56.0075 310.951 56.045 310.966 56.09L311.906 59.042C311.939 59.147 311.968 59.2505 311.992 59.3525C312.019 59.4545 312.044 59.555 312.068 59.654C312.083 59.555 312.103 59.4515 312.127 59.3435C312.151 59.2355 312.176 59.135 312.203 59.042L313.094 56.108C313.109 56.06 313.138 56.021 313.18 55.991C313.222 55.958 313.271 55.9415 313.328 55.9415H313.931L312.455 60.5H311.821C311.743 60.5 311.689 60.449 311.659 60.347L310.651 57.2555C310.627 57.1865 310.607 57.1175 310.592 57.0485C310.577 56.9765 310.562 56.906 310.547 56.837C310.532 56.906 310.517 56.9765 310.502 57.0485C310.487 57.1205 310.468 57.191 310.444 57.26L309.422 60.347C309.389 60.449 309.328 60.5 309.238 60.5H308.635L307.159 55.9415Z" fill="#505050"/>
<rect x="59.75" y="82.75" width="30.5" height="30.5" rx="11.25" fill="#FFF1CD"/>
<rect x="59.75" y="82.75" width="30.5" height="30.5" rx="11.25" stroke="#FFE6AA" stroke-width="1.5"/>
<path d="M67.586 96.0595C67.559 96.1045 67.5305 96.139 67.5005 96.163C67.4705 96.184 67.4315 96.1945 67.3835 96.1945C67.3325 96.1945 67.2725 96.169 67.2035 96.118C67.1375 96.067 67.052 96.0115 66.947 95.9515C66.845 95.8885 66.7205 95.8315 66.5735 95.7805C66.4295 95.7295 66.254 95.704 66.047 95.704C65.852 95.704 65.6795 95.731 65.5295 95.785C65.3795 95.836 65.2535 95.9065 65.1515 95.9965C65.0525 96.0865 64.9775 96.193 64.9265 96.316C64.8755 96.436 64.85 96.5665 64.85 96.7075C64.85 96.8875 64.8935 97.0375 64.9805 97.1575C65.0705 97.2745 65.1875 97.375 65.3315 97.459C65.4785 97.543 65.6435 97.6165 65.8265 97.6795C66.0125 97.7395 66.2015 97.8025 66.3935 97.8685C66.5885 97.9345 66.7775 98.0095 66.9605 98.0935C67.1465 98.1745 67.3115 98.278 67.4555 98.404C67.6025 98.53 67.7195 98.6845 67.8065 98.8675C67.8965 99.0505 67.9415 99.2755 67.9415 99.5425C67.9415 99.8245 67.8935 100.09 67.7975 100.339C67.7015 100.585 67.5605 100.799 67.3745 100.982C67.1915 101.165 66.965 101.309 66.695 101.414C66.428 101.52 66.1235 101.572 65.7815 101.572C65.3645 101.572 64.9835 101.497 64.6385 101.347C64.2965 101.194 64.004 100.988 63.761 100.73L64.013 100.316C64.037 100.283 64.0655 100.256 64.0985 100.235C64.1345 100.211 64.1735 100.199 64.2155 100.199C64.2785 100.199 64.3505 100.234 64.4315 100.303C64.5125 100.369 64.613 100.442 64.733 100.523C64.856 100.604 65.003 100.679 65.174 100.748C65.348 100.814 65.5595 100.847 65.8085 100.847C66.0155 100.847 66.2 100.819 66.362 100.762C66.524 100.705 66.6605 100.625 66.7715 100.523C66.8855 100.418 66.9725 100.294 67.0325 100.15C67.0925 100.006 67.1225 99.8455 67.1225 99.6685C67.1225 99.4735 67.0775 99.3145 66.9875 99.1915C66.9005 99.0655 66.785 98.9605 66.641 98.8765C66.497 98.7925 66.332 98.722 66.146 98.665C65.963 98.605 65.774 98.545 65.579 98.485C65.387 98.422 65.198 98.35 65.012 98.269C64.829 98.188 64.6655 98.083 64.5215 97.954C64.3775 97.825 64.2605 97.6645 64.1705 97.4725C64.0835 97.2775 64.04 97.0375 64.04 96.7525C64.04 96.5245 64.0835 96.304 64.1705 96.091C64.2605 95.878 64.3895 95.689 64.5575 95.524C64.7255 95.359 64.9325 95.227 65.1785 95.128C65.4275 95.029 65.7125 94.9795 66.0335 94.9795C66.3935 94.9795 66.722 95.0365 67.019 95.1505C67.316 95.2645 67.5755 95.4295 67.7975 95.6455L67.586 96.0595ZM70.734 96.8695C71.007 96.8695 71.259 96.916 71.49 97.009C71.721 97.099 71.9205 97.231 72.0885 97.405C72.2565 97.576 72.387 97.789 72.48 98.044C72.576 98.296 72.624 98.584 72.624 98.908C72.624 99.034 72.6105 99.118 72.5835 99.16C72.5565 99.202 72.5055 99.223 72.4305 99.223H69.3975C69.4035 99.511 69.4425 99.7615 69.5145 99.9745C69.5865 100.187 69.6855 100.366 69.8115 100.51C69.9375 100.651 70.0875 100.757 70.2615 100.829C70.4355 100.898 70.6305 100.933 70.8465 100.933C71.0475 100.933 71.22 100.91 71.364 100.865C71.511 100.817 71.637 100.766 71.742 100.712C71.847 100.658 71.934 100.609 72.003 100.564C72.075 100.516 72.1365 100.492 72.1875 100.492C72.2535 100.492 72.3045 100.517 72.3405 100.568L72.5655 100.861C72.4665 100.981 72.348 101.086 72.21 101.176C72.072 101.263 71.9235 101.335 71.7645 101.392C71.6085 101.449 71.4465 101.491 71.2785 101.518C71.1105 101.548 70.944 101.563 70.779 101.563C70.464 101.563 70.173 101.51 69.906 101.405C69.642 101.297 69.4125 101.141 69.2175 100.938C69.0255 100.73 68.8755 100.475 68.7675 100.172C68.6595 99.8695 68.6055 99.5215 68.6055 99.1285C68.6055 98.8105 68.6535 98.5135 68.7495 98.2375C68.8485 97.9615 68.9895 97.723 69.1725 97.522C69.3555 97.318 69.579 97.159 69.843 97.045C70.107 96.928 70.404 96.8695 70.734 96.8695ZM70.752 97.459C70.365 97.459 70.0605 97.5715 69.8385 97.7965C69.6165 98.0185 69.4785 98.3275 69.4245 98.7235H71.904C71.904 98.5375 71.8785 98.368 71.8275 98.215C71.7765 98.059 71.7015 97.9255 71.6025 97.8145C71.5035 97.7005 71.382 97.6135 71.238 97.5535C71.097 97.4905 70.935 97.459 70.752 97.459ZM75.0307 101.572C74.6707 101.572 74.3932 101.471 74.1982 101.27C74.0062 101.069 73.9102 100.78 73.9102 100.402V97.612H73.3612C73.3132 97.612 73.2727 97.5985 73.2397 97.5715C73.2067 97.5415 73.1902 97.4965 73.1902 97.4365V97.117L73.9372 97.0225L74.1217 95.614C74.1277 95.569 74.1472 95.533 74.1802 95.506C74.2132 95.476 74.2552 95.461 74.3062 95.461H74.7112V97.0315H76.0162V97.612H74.7112V100.348C74.7112 100.54 74.7577 100.682 74.8507 100.775C74.9437 100.868 75.0637 100.915 75.2107 100.915C75.2947 100.915 75.3667 100.904 75.4267 100.883C75.4897 100.859 75.5437 100.834 75.5887 100.807C75.6337 100.78 75.6712 100.756 75.7012 100.735C75.7342 100.711 75.7627 100.699 75.7867 100.699C75.8287 100.699 75.8662 100.724 75.8992 100.775L76.1332 101.158C75.9952 101.287 75.8287 101.389 75.6337 101.464C75.4387 101.536 75.2377 101.572 75.0307 101.572ZM77.6996 96.9415V99.8485C77.6996 100.193 77.7791 100.46 77.9381 100.649C78.0971 100.838 78.3371 100.933 78.6581 100.933C78.8921 100.933 79.1126 100.877 79.3196 100.766C79.5266 100.655 79.7171 100.501 79.8911 100.303V96.9415H80.6921V101.5H80.2151C80.1011 101.5 80.0291 101.444 79.9991 101.333L79.9361 100.843C79.7381 101.062 79.5161 101.239 79.2701 101.374C79.0241 101.506 78.7421 101.572 78.4241 101.572C78.1751 101.572 77.9546 101.532 77.7626 101.45C77.5736 101.366 77.4146 101.249 77.2856 101.099C77.1566 100.949 77.0591 100.768 76.9931 100.555C76.9301 100.342 76.8986 100.106 76.8986 99.8485V96.9415H77.6996ZM82.0076 103.044V96.9415H82.4846C82.5986 96.9415 82.6706 96.997 82.7006 97.108L82.7681 97.648C82.9631 97.411 83.1851 97.2205 83.4341 97.0765C83.6861 96.9325 83.9756 96.8605 84.3026 96.8605C84.5636 96.8605 84.8006 96.9115 85.0136 97.0135C85.2266 97.1125 85.4081 97.261 85.5581 97.459C85.7081 97.654 85.8236 97.897 85.9046 98.188C85.9856 98.479 86.0261 98.8135 86.0261 99.1915C86.0261 99.5275 85.9811 99.841 85.8911 100.132C85.8011 100.42 85.6721 100.67 85.5041 100.883C85.3361 101.093 85.1291 101.26 84.8831 101.383C84.6401 101.503 84.3656 101.563 84.0596 101.563C83.7776 101.563 83.5361 101.516 83.3351 101.423C83.1371 101.33 82.9616 101.198 82.8086 101.027V103.044H82.0076ZM84.0371 97.5085C83.7761 97.5085 83.5466 97.5685 83.3486 97.6885C83.1536 97.8085 82.9736 97.978 82.8086 98.197V100.402C82.9556 100.6 83.1161 100.739 83.2901 100.82C83.4671 100.901 83.6636 100.942 83.8796 100.942C84.3026 100.942 84.6281 100.79 84.8561 100.487C85.0841 100.184 85.1981 99.7525 85.1981 99.1915C85.1981 98.8945 85.1711 98.6395 85.1171 98.4265C85.0661 98.2135 84.9911 98.0395 84.8921 97.9045C84.7931 97.7665 84.6716 97.666 84.5276 97.603C84.3836 97.54 84.2201 97.5085 84.0371 97.5085Z" fill="#505050"/>
<rect x="103.75" y="82.75" width="30.5" height="30.5" rx="11.25" fill="#FFF1CD"/>
<rect x="103.75" y="82.75" width="30.5" height="30.5" rx="11.25" stroke="#FFE6AA" stroke-width="1.5"/>
<rect x="147.75" y="82.75" width="30.5" height="30.5" rx="11.25" fill="#FFF1CD"/>
<rect x="147.75" y="82.75" width="30.5" height="30.5" rx="11.25" stroke="#FFE6AA" stroke-width="1.5"/>
<rect x="191.75" y="82.75" width="30.5" height="30.5" rx="11.25" fill="#FFF1CD"/>
<rect x="191.75" y="82.75" width="30.5" height="30.5" rx="11.25" stroke="#FFE6AA" stroke-width="1.5"/>
<rect x="235.75" y="82.75" width="30.5" height="30.5" rx="11.25" fill="#FFF1CD"/>
<rect x="235.75" y="82.75" width="30.5" height="30.5" rx="11.25" stroke="#FFE6AA" stroke-width="1.5"/>
<path d="M289 99C288.447 99 288 98.5527 288 98C288 97.4473 288.447 97 289 97C289.553 97 290 97.4473 290 98C290 98.5527 289.553 99 289 99Z" fill="#707070"/>
<path d="M295 99C294.447 99 294 98.5527 294 98C294 97.4473 294.447 97 295 97C295.553 97 296 97.4473 296 98C296 98.5527 295.553 99 295 99Z" fill="#707070"/>
<path d="M301 99C300.447 99 300 98.5527 300 98C300 97.4473 300.447 97 301 97C301.553 97 302 97.4473 302 98C302 98.5527 301.553 99 301 99Z" fill="#707070"/>
</svg>
