<svg width="420" height="86" viewBox="0 0 420 86" fill="none" xmlns="http://www.w3.org/2000/svg">
<g clip-path="url(#clip0_3684_765)">
<path d="M233.121 31.8156C232.916 32.1604 232.692 32.5396 232.487 32.8843C230.655 35.8969 228.766 38.9232 226.933 41.9358C226.729 42.2806 226.545 42.5908 226.306 42.9146C226.005 43.3419 225.572 43.8308 225.035 43.3724C224.808 43.1917 224.833 42.5076 224.981 42.1765C226.352 39.542 227.737 36.9629 229.143 34.3493C229.455 33.7424 229.838 33.1773 229.888 32.3688C229.057 32.8077 228.276 33.3228 227.429 33.7063C227.034 33.8912 226.301 33.9227 226.025 33.6658C225.472 33.152 225.951 32.5044 226.408 32.216C228.55 30.6906 230.712 29.1308 232.989 27.7787C234.45 26.9209 235.507 27.5474 235.456 29.2405C235.407 31.4935 235.029 33.7381 234.762 35.9556C234.746 36.2251 234.295 36.4237 234.061 36.6577C233.84 36.3872 233.417 36.1366 233.399 35.8462C233.291 35.2238 233.407 34.5469 233.411 33.8972C233.435 33.2131 233.46 32.529 233.464 31.8793C233.353 31.9065 233.226 31.8783 233.121 31.8156Z" fill="#FFD500"/>
</g>
<g clip-path="url(#clip1_3684_765)">
<path d="M106.268 29.7156C106.481 30.055 106.715 30.4283 106.928 30.7677C108.768 33.7761 110.594 36.8403 112.434 39.8487C112.647 40.1881 112.839 40.4935 113.017 40.8547C113.259 41.3177 113.496 41.9261 112.842 42.1944C112.578 42.3129 111.981 41.978 111.755 41.6944C110.04 39.27 108.381 36.8577 106.7 34.4116C106.304 33.8564 105.976 33.2576 105.28 32.8427C105.29 33.7828 105.39 34.7133 105.344 35.6412C105.328 36.0773 105.02 36.7433 104.665 36.8714C103.956 37.1276 103.599 36.4053 103.552 35.8674C103.176 33.2649 102.778 30.6284 102.618 27.9849C102.524 26.2936 103.565 25.6404 105.047 26.4606C107.028 27.5357 108.851 28.8989 110.7 30.1508C110.932 30.2891 110.902 30.7809 111.003 31.096C110.662 31.1684 110.245 31.4297 109.979 31.3131C109.376 31.1236 108.827 30.7112 108.252 30.4103C107.654 30.0754 107.057 29.7405 106.482 29.4396C106.455 29.551 106.372 29.6503 106.268 29.7156Z" fill="#FFD500"/>
</g>
<g clip-path="url(#clip2_3684_765)">
<path d="M313.408 37.7036C313.163 37.9449 312.894 38.2104 312.649 38.4517C310.469 40.5505 308.239 42.6483 306.059 44.7471C305.814 44.9884 305.594 45.2056 305.324 45.4219C304.981 45.7106 304.515 46.0216 304.169 45.5235C304.021 45.3241 304.191 44.7617 304.387 44.5195C306.101 42.6334 307.815 40.7965 309.553 38.9355C309.945 38.5002 310.386 38.1149 310.605 37.4551C309.819 37.6373 309.058 37.8937 308.272 38.0267C307.903 38.0937 307.288 37.9594 307.115 37.6857C306.769 37.1385 307.308 36.7059 307.75 36.5665C309.862 35.7696 311.997 34.9485 314.183 34.325C315.583 33.9328 316.323 34.6841 315.91 36.0779C315.376 37.9366 314.571 39.7165 313.864 41.4982C313.791 41.7182 313.374 41.7842 313.128 41.9272C313.005 41.6545 312.709 41.354 312.757 41.109C312.804 40.569 313.048 40.0326 313.193 39.4944C313.364 38.932 313.534 38.3697 313.679 37.8315C313.581 37.8297 313.482 37.7787 313.408 37.7036Z" fill="#FFD500"/>
</g>
<rect x="64.75" y="0.75" width="34.5" height="34.5" rx="11.25" fill="#FFF1CD"/>
<rect x="64.75" y="0.75" width="34.5" height="34.5" rx="11.25" stroke="#FFE6AA" stroke-width="1.5"/>
<path d="M74.0996 23.5H89.8975C90.1507 23.5 90.3814 23.5949 90.5576 23.75H73.4404C73.6166 23.5951 73.8466 23.5 74.0996 23.5Z" fill="#707070" stroke="#707070" stroke-width="1.12489"/>
<path d="M71.875 27.9087V10.1573C71.875 10.1573 72.1161 7.87598 74.8881 7.87598C77.6602 7.87598 77.9013 10.1573 77.9013 10.1573V11.9018" stroke="#707070" stroke-width="2" stroke-linecap="round"/>
<path d="M71.877 15.8311L91.9453 15.8311" stroke="#707070" stroke-width="2" stroke-linecap="round"/>
<path d="M71.875 26.3994C71.875 24.7686 73.4418 24.8938 73.4418 24.8938H90.6768C90.6768 24.8938 92.123 24.8938 92.123 26.3994" stroke="#707070" stroke-width="2" stroke-linecap="round"/>
<path d="M92.123 28.124L92.123 14.7458" stroke="#707070" stroke-width="2" stroke-linecap="round"/>
<path d="M76.1875 12.6208C76.1875 12.6208 76.6396 11.9746 77.9959 11.9746C79.3522 11.9746 79.8043 12.6208 79.8043 12.6208" stroke="#707070" stroke-width="2" stroke-linecap="round"/>
<path d="M76.0703 24.5078L76.0703 16.1916" stroke="#707070" stroke-width="2"/>
<path d="M80.084 24.5078L80.084 16.1916" stroke="#707070" stroke-width="2"/>
<path d="M84.0996 24.5078L84.0996 16.1916" stroke="#707070" stroke-width="2"/>
<path d="M88.1133 24.5078L88.1133 16.1916" stroke="#707070" stroke-width="2"/>
<rect x="149.334" width="36" height="36" rx="12" fill="#FFD500"/>
<rect x="150.084" y="0.75" width="34.5" height="34.5" rx="11.25" stroke="#FFC93C" stroke-opacity="0.9" stroke-width="1.5"/>
<path d="M172.892 16.6045C172.892 18.6857 172.02 20.6817 170.467 22.1534C168.914 23.6251 166.809 24.4518 164.613 24.4518C162.417 24.4518 160.311 23.6251 158.759 22.1534C157.206 20.6817 156.334 18.6857 156.334 16.6045L172.892 16.6045Z" fill="#505050" stroke="#505050" stroke-width="2"/>
<path d="M157.146 16.4218C157.146 14.5753 157.775 12.7743 158.947 11.2662C160.1 9.78208 161.722 8.65346 163.597 8.02984C163.648 8.01294 163.703 8.03962 163.722 8.08985L166.972 16.8668" stroke="#505050" stroke-width="2"/>
<path d="M163.158 26.6191C163.158 27.5613 162.394 28.3251 161.452 28.3251C160.51 28.3251 159.746 27.5613 159.746 26.6191C159.746 25.6769 160.51 24.9131 161.452 24.9131C162.394 24.9131 163.158 25.6769 163.158 26.6191Z" fill="#505050" stroke="#505050" stroke-width="2"/>
<path d="M178.276 15.2765C178.276 16.3757 177.384 17.2668 176.285 17.2668C175.186 17.2668 174.295 16.3757 174.295 15.2765C174.295 14.1772 175.186 13.2861 176.285 13.2861C177.384 13.2861 178.276 14.1772 178.276 15.2765Z" fill="#505050" stroke="#505050" stroke-width="2"/>
<path d="M172.553 16.7534C172.617 16.6527 172.731 16.4567 173.362 16.16C173.7 16.0012 174.009 15.9226 174.333 15.8633" stroke="#505050" stroke-width="2"/>
<path d="M169.414 26.6191C169.414 27.5613 168.65 28.3251 167.708 28.3251C166.766 28.3251 166.002 27.5613 166.002 26.6191C166.002 25.6769 166.766 24.9131 167.708 24.9131C168.65 24.9131 169.414 25.6769 169.414 26.6191Z" fill="#505050" stroke="#505050" stroke-width="2"/>
<rect x="235.416" y="0.75" width="34.5" height="34.5" rx="11.25" fill="#FFF1CD"/>
<rect x="235.416" y="0.75" width="34.5" height="34.5" rx="11.25" stroke="#FFE6AA" stroke-width="1.5"/>
<path fill-rule="evenodd" clip-rule="evenodd" d="M252.666 6.57129C254.405 6.57129 255.815 7.99799 255.815 9.75765C255.815 11.5173 254.405 12.944 252.666 12.944C250.927 12.944 249.517 11.5173 249.517 9.75765C249.517 7.99799 250.927 6.57129 252.666 6.57129ZM249.328 21.0485L251.83 23.6136L249.986 25.4793L251.464 27.0139L251.968 27.5366C252.83 28.6898 251.538 30.0589 250.414 29.1083L247.135 25.7211C246.639 25.0254 246.492 24.2702 246.999 23.4053L249.328 21.0485ZM256.003 21.0485L253.503 23.6154L255.346 25.4811L253.868 27.0157L253.365 27.5384C252.503 28.6917 253.795 30.0607 254.918 29.1102L258.197 25.7229C258.694 25.0273 258.841 24.2721 258.333 23.4071L256.003 21.0485ZM260.155 20.204C259.642 20.5779 258.988 20.4049 258.552 19.9417L256.039 17.2762V19.7018H249.286V17.2836L246.78 19.9417C246.345 20.4049 245.688 20.5779 245.177 20.204C244.664 19.8301 244.466 19.0266 244.918 18.582L248.218 15.338C248.755 14.8097 249.788 13.5597 250.484 13.5597H254.905C255.558 13.5597 256.569 14.8004 257.113 15.338L260.413 18.582C260.867 19.0266 260.666 19.8301 260.155 20.204Z" fill="#707070"/>
<rect x="320.75" y="0.75" width="34.5" height="34.5" rx="11.25" fill="#FFF1CD"/>
<rect x="320.75" y="0.75" width="34.5" height="34.5" rx="11.25" stroke="#FFE6AA" stroke-width="1.5"/>
<path fill-rule="evenodd" clip-rule="evenodd" d="M346.601 10.4355L346.792 11.5518C348.088 15.3536 345.786 15.3925 344.877 13.3616C344.118 13.0502 343.633 13.2554 343.511 14.1541L344.446 18.5927L344.41 22.3679C344.967 21.6284 345.412 20.7669 345.702 19.7886C345.935 19.0067 346.734 18.5679 347.49 18.8085C348.245 19.0491 348.669 19.8771 348.436 20.659C347.661 23.2772 346.078 25.2869 344.101 26.619C342.351 27.7989 340.29 28.4411 338.212 28.4959C336.131 28.5526 334.026 28.0165 332.19 26.8436C330.191 25.5646 328.525 23.5373 327.578 20.7032C327.322 19.9319 327.718 19.0898 328.463 18.8245C329.208 18.5591 330.022 18.9695 330.278 19.7408C330.546 20.544 330.888 21.2587 331.288 21.8885L331.322 18.7413C331.394 17.9824 331.654 17.25 332.185 16.5601H330.652C329.302 16.4539 329.152 14.8087 330.652 14.4779H334.752C334.81 15.3712 335.184 16.1762 335.758 16.7723C336.385 17.4216 337.252 17.8232 338.209 17.8232C339.166 17.8232 340.032 17.4216 340.659 16.7723C341.286 16.1231 341.674 15.2262 341.674 14.2355C341.674 13.2448 341.286 12.3479 340.659 11.6987C340.23 11.2546 339.69 10.9273 339.085 10.7628C339.641 9.70138 340.57 8.7514 341.956 7.93232C343.308 7.39452 344.844 7.27599 346.77 8.05615C347.531 8.40997 347.96 8.76555 347.828 9.11936C347.702 9.46256 347.462 9.45371 347.199 9.52978C346.784 9.65008 346.553 9.92429 346.601 10.4355ZM342.997 23.8044C342.131 17.7046 333.742 17.6445 332.752 23.6169C333.051 23.8822 333.366 24.1175 333.691 24.3263C335.037 25.1878 336.594 25.5788 338.144 25.5381C339.697 25.4974 341.235 25.0162 342.542 24.1352C342.698 24.0308 342.85 23.9211 342.997 23.8044ZM335.589 14.4761H338.482C338.363 13.4465 338.434 12.4717 338.74 11.566C339.253 11.6757 339.711 11.9393 340.068 12.3072C340.543 12.799 340.839 13.4801 340.839 14.232C340.839 14.9838 340.545 15.6649 340.068 16.1567C339.593 16.6485 338.935 16.9546 338.209 16.9546C337.483 16.9546 336.825 16.6503 336.35 16.1567C335.926 15.7197 335.646 15.1324 335.589 14.4761ZM345.436 10.2746C345.627 10.2746 345.784 10.4373 345.784 10.6355V10.9857C345.784 11.1839 345.627 11.3466 345.436 11.3466C345.244 11.3466 345.087 11.1839 345.087 10.9857V10.6355C345.087 10.4355 345.242 10.2746 345.436 10.2746Z" fill="#707070"/>
<rect x="64" y="45" width="292" height="5" rx="2.5" fill="#FFE6AA"/>
<rect x="64" y="54.333" width="292" height="5" rx="2.5" fill="#FFE6AA"/>
<rect x="64" y="63.667" width="292" height="5" rx="2.5" fill="#FFF1CD"/>
<rect x="64" y="73" width="292" height="5" rx="2.5" fill="#FFF1CD"/>
<defs>
<clipPath id="clip0_3684_765">
<rect width="9.29853" height="18.597" fill="white" transform="translate(229 45.7393) rotate(-149.35)"/>
</clipPath>
<clipPath id="clip1_3684_765">
<rect width="9.29853" height="18.597" fill="white" transform="translate(116.762 39.752) rotate(147.887)"/>
</clipPath>
<clipPath id="clip2_3684_765">
<rect width="7.97981" height="15.9596" fill="white" transform="translate(306.941 48.3555) rotate(-134.574)"/>
</clipPath>
</defs>
</svg>
