<svg width="64" height="65" viewBox="0 0 64 65" fill="none" xmlns="http://www.w3.org/2000/svg">
<g clip-path="url(#clip0_3722_34706)">
<path fill-rule="evenodd" clip-rule="evenodd" d="M42.5961 5.06191L27.9737 13.8206L45.1308 16.1582L59.2387 7.33606L42.5961 5.06191ZM45.9824 31.052C55.334 31.052 62.9139 38.652 62.9139 48.0268C62.9139 57.4004 55.334 65.0003 45.9824 65.0003C36.6308 65.0003 29.0509 57.4004 29.0509 48.0268C29.0509 38.652 36.6308 31.052 45.9824 31.052ZM25.9587 16.0248L25.9472 34.0287L19.4269 29.577L12.9052 33.2703L13.6783 14.3516L2.45735 12.8232V52.5865L25.1362 55.5264C25.4555 56.4272 25.8294 57.3025 26.2577 58.1461L1.17861 54.895C0.523406 54.8683 0 54.3258 0 53.6639V11.4168C0.0342178 10.9023 0.239525 10.5415 0.724911 10.2975L23.1262 0.108334C23.3264 0.0168603 23.5723 -0.0199834 23.7915 0.010508L62.848 5.35158C63.4931 5.42654 63.9354 5.9576 63.9354 6.62079V6.62333L64 35.688C63.2751 34.6131 62.0268 33.1102 61.4742 32.1599V8.83776L46.7973 18.3574V25.9561C45.978 25.9258 45.1576 25.9411 44.34 26.0019V18.5289L25.9587 16.0248ZM15.6274 12.1397L29.843 3.31755L23.8131 2.49301L5.60665 10.774L15.6274 12.1397Z" fill="#A5A5A5"/>
<path d="M39.8828 45.5391C39.8828 44.9193 40.0078 44.3828 40.2578 43.9297C40.5078 43.4766 40.8516 43.1302 41.2891 42.8906C41.7266 42.651 42.2161 42.5312 42.7578 42.5312C43.5703 42.5312 44.224 42.776 44.7188 43.2656C45.2135 43.7552 45.4609 44.4531 45.4609 45.3594C45.4609 45.9688 45.3359 46.5026 45.0859 46.9609C44.8359 47.4193 44.4922 47.7734 44.0547 48.0234C43.6172 48.2734 43.1224 48.3984 42.5703 48.3984C41.7474 48.3984 41.0938 48.1615 40.6094 47.6875C40.125 47.2135 39.8828 46.4974 39.8828 45.5391ZM44.1875 54.125H41.8672L48.5547 42.6094H50.875L44.1875 54.125ZM41.7188 45.4688C41.7188 45.9844 41.7865 46.3698 41.9219 46.625C42.0625 46.8802 42.3047 47.0078 42.6484 47.0078C43.0026 47.0078 43.2526 46.8776 43.3984 46.6172C43.5495 46.3568 43.625 45.9583 43.625 45.4219C43.625 44.9219 43.5521 44.5443 43.4062 44.2891C43.2656 44.0339 43.0234 43.9062 42.6797 43.9062C42.3359 43.9062 42.0885 44.0391 41.9375 44.3047C41.7917 44.5703 41.7188 44.9583 41.7188 45.4688ZM47.3047 51.3594C47.3047 50.7396 47.4297 50.2031 47.6797 49.75C47.9297 49.2969 48.2734 48.9505 48.7109 48.7109C49.1484 48.4714 49.6406 48.3516 50.1875 48.3516C51 48.3516 51.6536 48.5964 52.1484 49.0859C52.6432 49.5755 52.8906 50.276 52.8906 51.1875C52.8906 51.7969 52.763 52.3307 52.5078 52.7891C52.2578 53.2422 51.9141 53.5964 51.4766 53.8516C51.0391 54.1016 50.5443 54.2266 49.9922 54.2266C49.1693 54.2266 48.5156 53.9896 48.0312 53.5156C47.5469 53.0365 47.3047 52.3177 47.3047 51.3594ZM49.1406 51.2969C49.1406 51.8073 49.2109 52.1901 49.3516 52.4453C49.4922 52.7005 49.7318 52.8281 50.0703 52.8281C50.4245 52.8281 50.6745 52.6979 50.8203 52.4375C50.9714 52.1771 51.0469 51.7812 51.0469 51.25C51.0469 50.75 50.974 50.3724 50.8281 50.1172C50.6875 49.8568 50.4453 49.7266 50.1016 49.7266C49.7578 49.7266 49.5104 49.862 49.3594 50.1328C49.2135 50.3984 49.1406 50.7865 49.1406 51.2969Z" fill="white"/>
</g>
<defs>
<clipPath id="clip0_3722_34706">
<rect width="64" height="65" fill="white"/>
</clipPath>
</defs>
</svg>
