<svg width="858" height="266" viewBox="0 0 858 266" fill="none" xmlns="http://www.w3.org/2000/svg">
<path d="M45.0002 32H113C119.468 32 124.117 32.0042 127.656 32.4801C131.138 32.9482 133.244 33.8394 134.802 35.3976C136.361 36.9557 137.252 39.0619 137.72 42.5436C138.196 46.0828 138.2 50.7323 138.2 57.1999V116.4H19.8003V57.1999C19.8003 50.7323 19.8045 46.0828 20.2804 42.5436C20.7485 39.0619 21.6397 36.9557 23.1978 35.3976C24.756 33.8394 26.8622 32.9482 30.3439 32.4801C33.8831 32.0042 38.5326 32 45.0002 32Z" stroke="#1B1B1B" stroke-width="4"/>
<path d="M135.667 116.4H22.3336C18.7254 116.4 15.8003 119.325 15.8003 122.934C15.8003 129.046 20.755 134 26.8669 134H131.133C137.245 134 142.2 129.046 142.2 122.934C142.2 119.325 139.275 116.4 135.667 116.4Z" stroke="#1B1B1B" stroke-width="4"/>
<rect y="164" width="158" height="46" rx="23" fill="#FBBF7D"/>
<path d="M24.5213 197L18.8736 176.636H22.1051L26.0724 192.406H26.2614L30.3878 176.636H33.5895L37.7159 192.416H37.9048L41.8622 176.636H45.1037L39.446 197H36.3537L32.0682 181.747H31.9091L27.6236 197H24.5213ZM52.745 197.308C51.2403 197.308 49.9444 196.987 48.8572 196.344C47.7768 195.694 46.9415 194.783 46.3516 193.609C45.7682 192.429 45.4766 191.047 45.4766 189.463C45.4766 187.899 45.7682 186.52 46.3516 185.327C46.9415 184.134 47.7635 183.202 48.8175 182.533C49.8781 181.863 51.1177 181.528 52.5362 181.528C53.398 181.528 54.2332 181.671 55.0419 181.956C55.8506 182.241 56.5765 182.688 57.2195 183.298C57.8625 183.908 58.3696 184.7 58.7408 185.675C59.112 186.643 59.2976 187.819 59.2976 189.205V190.259H47.157V188.031H56.3842C56.3842 187.249 56.2251 186.556 55.907 185.953C55.5888 185.343 55.1413 184.863 54.5646 184.511C53.9946 184.16 53.325 183.984 52.5561 183.984C51.7209 183.984 50.9917 184.19 50.3686 184.601C49.7521 185.005 49.2749 185.536 48.9368 186.192C48.6054 186.841 48.4396 187.547 48.4396 188.31V190.05C48.4396 191.071 48.6186 191.939 48.9766 192.655C49.3411 193.371 49.8482 193.918 50.4979 194.295C51.1475 194.667 51.9065 194.852 52.7749 194.852C53.3383 194.852 53.852 194.773 54.3161 194.614C54.7801 194.448 55.1811 194.203 55.5192 193.878C55.8572 193.553 56.1158 193.152 56.2947 192.675L59.1087 193.182C58.8833 194.01 58.4789 194.736 57.8956 195.359C57.3189 195.976 56.593 196.456 55.718 196.801C54.8497 197.139 53.8587 197.308 52.745 197.308ZM62.8349 197V176.636H65.8079V184.203H65.9869C66.1592 183.885 66.4078 183.517 66.7326 183.099C67.0574 182.682 67.5082 182.317 68.0849 182.006C68.6616 181.688 69.4239 181.528 70.3718 181.528C71.6048 181.528 72.7051 181.84 73.6729 182.463C74.6407 183.086 75.3997 183.984 75.9499 185.158C76.5067 186.331 76.7852 187.743 76.7852 189.393C76.7852 191.044 76.5101 192.459 75.9599 193.639C75.4097 194.812 74.654 195.717 73.6928 196.354C72.7317 196.983 71.6346 197.298 70.4016 197.298C69.4736 197.298 68.7146 197.143 68.1246 196.831C67.5413 196.519 67.0839 196.155 66.7525 195.737C66.421 195.32 66.1658 194.948 65.9869 194.624H65.7383V197H62.8349ZM65.7482 189.364C65.7482 190.437 65.904 191.379 66.2156 192.188C66.5271 192.996 66.9779 193.629 67.5678 194.087C68.1578 194.537 68.8803 194.763 69.7354 194.763C70.6237 194.763 71.3661 194.527 71.9627 194.057C72.5593 193.58 73.0101 192.933 73.315 192.118C73.6265 191.303 73.7823 190.384 73.7823 189.364C73.7823 188.356 73.6299 187.451 73.3249 186.649C73.0266 185.847 72.5759 185.214 71.9727 184.75C71.3761 184.286 70.6303 184.054 69.7354 184.054C68.8737 184.054 68.1445 184.276 67.5479 184.72C66.958 185.164 66.5105 185.784 66.2056 186.58C65.9007 187.375 65.7482 188.303 65.7482 189.364ZM89.4925 197H86.2312L93.5593 176.636H97.109L104.437 197H101.176L95.4187 180.335H95.2596L89.4925 197ZM90.0394 189.026H100.619V191.611H90.0394V189.026ZM107.139 202.727V181.727H110.043V184.203H110.291C110.464 183.885 110.712 183.517 111.037 183.099C111.362 182.682 111.813 182.317 112.389 182.006C112.966 181.688 113.728 181.528 114.676 181.528C115.909 181.528 117.009 181.84 117.977 182.463C118.945 183.086 119.704 183.984 120.254 185.158C120.811 186.331 121.089 187.743 121.089 189.393C121.089 191.044 120.814 192.459 120.264 193.639C119.714 194.812 118.958 195.717 117.997 196.354C117.036 196.983 115.939 197.298 114.706 197.298C113.778 197.298 113.019 197.143 112.429 196.831C111.846 196.519 111.388 196.155 111.057 195.737C110.725 195.32 110.47 194.948 110.291 194.624H110.112V202.727H107.139ZM110.053 189.364C110.053 190.437 110.208 191.379 110.52 192.188C110.831 192.996 111.282 193.629 111.872 194.087C112.462 194.537 113.185 194.763 114.04 194.763C114.928 194.763 115.67 194.527 116.267 194.057C116.864 193.58 117.314 192.933 117.619 192.118C117.931 191.303 118.087 190.384 118.087 189.364C118.087 188.356 117.934 187.451 117.629 186.649C117.331 185.847 116.88 185.214 116.277 184.75C115.68 184.286 114.935 184.054 114.04 184.054C113.178 184.054 112.449 184.276 111.852 184.72C111.262 185.164 110.815 185.784 110.51 186.58C110.205 187.375 110.053 188.303 110.053 189.364ZM124.42 202.727V181.727H127.324V184.203H127.572C127.745 183.885 127.993 183.517 128.318 183.099C128.643 182.682 129.094 182.317 129.67 182.006C130.247 181.688 131.009 181.528 131.957 181.528C133.19 181.528 134.291 181.84 135.259 182.463C136.226 183.086 136.985 183.984 137.536 185.158C138.092 186.331 138.371 187.743 138.371 189.393C138.371 191.044 138.096 192.459 137.545 193.639C136.995 194.812 136.24 195.717 135.278 196.354C134.317 196.983 133.22 197.298 131.987 197.298C131.059 197.298 130.3 197.143 129.71 196.831C129.127 196.519 128.67 196.155 128.338 195.737C128.007 195.32 127.751 194.948 127.572 194.624H127.393V202.727H124.42ZM127.334 189.364C127.334 190.437 127.49 191.379 127.801 192.188C128.113 192.996 128.563 193.629 129.153 194.087C129.743 194.537 130.466 194.763 131.321 194.763C132.209 194.763 132.952 194.527 133.548 194.057C134.145 193.58 134.596 192.933 134.901 192.118C135.212 191.303 135.368 190.384 135.368 189.364C135.368 188.356 135.215 187.451 134.911 186.649C134.612 185.847 134.161 185.214 133.558 184.75C132.962 184.286 132.216 184.054 131.321 184.054C130.459 184.054 129.73 184.276 129.134 184.72C128.544 185.164 128.096 185.784 127.791 186.58C127.486 187.375 127.334 188.303 127.334 189.364Z" fill="white"/>
<path d="M26.4574 261V246.455H31.7841C32.8163 246.455 33.6709 246.625 34.348 246.966C35.0251 247.302 35.5317 247.759 35.8679 248.337C36.2041 248.91 36.3722 249.556 36.3722 250.276C36.3722 250.882 36.2609 251.393 36.0384 251.81C35.8158 252.222 35.5175 252.553 35.1435 252.804C34.7741 253.05 34.367 253.23 33.9219 253.344V253.486C34.4048 253.509 34.8759 253.666 35.3352 253.955C35.7992 254.239 36.1828 254.643 36.4858 255.169C36.7888 255.695 36.9403 256.334 36.9403 257.087C36.9403 257.83 36.7652 258.498 36.4148 259.089C36.0691 259.677 35.5341 260.143 34.8097 260.489C34.0852 260.83 33.1596 261 32.0327 261H26.4574ZM28.652 259.118H31.8196C32.8707 259.118 33.6236 258.914 34.0781 258.507C34.5327 258.1 34.7599 257.591 34.7599 256.98C34.7599 256.521 34.6439 256.099 34.4119 255.716C34.1799 255.332 33.8485 255.027 33.4176 254.8C32.9915 254.572 32.4848 254.459 31.8977 254.459H28.652V259.118ZM28.652 252.747H31.5923C32.0848 252.747 32.5275 252.652 32.9205 252.463C33.3182 252.274 33.633 252.009 33.8651 251.668C34.1018 251.322 34.2202 250.915 34.2202 250.446C34.2202 249.845 34.0095 249.34 33.5881 248.933C33.1667 248.526 32.5204 248.322 31.6491 248.322H28.652V252.747ZM46.2834 256.476V250.091H48.4141V261H46.326V259.111H46.2124C45.9614 259.693 45.5589 260.179 45.005 260.567C44.4557 260.95 43.7715 261.142 42.9524 261.142C42.2517 261.142 41.6314 260.988 41.0916 260.68C40.5566 260.368 40.1352 259.906 39.8274 259.295C39.5244 258.685 39.3729 257.929 39.3729 257.03V250.091H41.4964V256.774C41.4964 257.518 41.7024 258.109 42.1143 258.55C42.5263 258.99 43.0613 259.21 43.7195 259.21C44.1172 259.21 44.5125 259.111 44.9055 258.912C45.3033 258.713 45.6323 258.412 45.8928 258.01C46.1579 257.607 46.2881 257.096 46.2834 256.476ZM59.4421 252.754L57.5174 253.095C57.4369 252.849 57.3091 252.615 57.1339 252.392C56.9634 252.17 56.7314 251.987 56.4379 251.845C56.1443 251.703 55.7773 251.632 55.337 251.632C54.7357 251.632 54.2338 251.767 53.8313 252.037C53.4289 252.302 53.2276 252.645 53.2276 253.067C53.2276 253.431 53.3626 253.725 53.6325 253.947C53.9023 254.17 54.3379 254.352 54.9393 254.494L56.6722 254.892C57.676 255.124 58.4241 255.482 58.9165 255.964C59.409 256.447 59.6552 257.075 59.6552 257.847C59.6552 258.5 59.4658 259.082 59.087 259.594C58.713 260.1 58.1897 260.498 57.5174 260.787C56.8498 261.076 56.0756 261.22 55.195 261.22C53.9734 261.22 52.9767 260.96 52.2049 260.439C51.4331 259.913 50.9596 259.168 50.7844 258.202L52.837 257.889C52.9648 258.424 53.2276 258.829 53.6254 259.104C54.0231 259.374 54.5415 259.509 55.1808 259.509C55.8768 259.509 56.4331 259.364 56.8498 259.075C57.2665 258.782 57.4748 258.424 57.4748 258.003C57.4748 257.662 57.3469 257.375 57.0913 257.143C56.8403 256.911 56.4544 256.736 55.9336 256.618L54.087 256.213C53.069 255.981 52.3162 255.612 51.8285 255.105C51.3455 254.598 51.104 253.957 51.104 253.18C51.104 252.536 51.284 251.973 51.6438 251.49C52.0037 251.007 52.5008 250.631 53.1353 250.361C53.7698 250.086 54.4966 249.949 55.3157 249.949C56.4947 249.949 57.4227 250.205 58.0998 250.716C58.7769 251.223 59.2243 251.902 59.4421 252.754ZM61.9901 261V250.091H64.1136V261H61.9901ZM63.0625 248.408C62.6932 248.408 62.3759 248.285 62.1108 248.038C61.8504 247.787 61.7202 247.489 61.7202 247.143C61.7202 246.793 61.8504 246.495 62.1108 246.249C62.3759 245.998 62.6932 245.872 63.0625 245.872C63.4318 245.872 63.7467 245.998 64.0071 246.249C64.2723 246.495 64.4048 246.793 64.4048 247.143C64.4048 247.489 64.2723 247.787 64.0071 248.038C63.7467 248.285 63.4318 248.408 63.0625 248.408ZM69.0941 254.523V261H66.9705V250.091H69.0089V251.866H69.1438C69.3948 251.289 69.7878 250.825 70.3228 250.474C70.8626 250.124 71.542 249.949 72.3612 249.949C73.1045 249.949 73.7556 250.105 74.3143 250.418C74.873 250.725 75.3062 251.185 75.614 251.795C75.9218 252.406 76.0756 253.161 76.0756 254.061V261H73.9521V254.317C73.9521 253.526 73.7461 252.908 73.3342 252.463C72.9222 252.013 72.3564 251.788 71.6367 251.788C71.1443 251.788 70.7063 251.895 70.3228 252.108C69.944 252.321 69.6433 252.634 69.4208 253.045C69.203 253.453 69.0941 253.945 69.0941 254.523ZM83.6254 261.22C82.5505 261.22 81.6249 260.991 80.8484 260.531C80.0766 260.067 79.48 259.416 79.0586 258.578C78.6419 257.735 78.4336 256.748 78.4336 255.616C78.4336 254.499 78.6419 253.514 79.0586 252.662C79.48 251.81 80.0671 251.144 80.82 250.666C81.5775 250.188 82.4629 249.949 83.4762 249.949C84.0917 249.949 84.6883 250.051 85.266 250.254C85.8436 250.458 86.3621 250.777 86.8214 251.213C87.2807 251.649 87.6429 252.214 87.908 252.911C88.1732 253.602 88.3058 254.442 88.3058 255.432V256.185H79.6339V254.594H86.2248C86.2248 254.035 86.1112 253.54 85.8839 253.109C85.6566 252.674 85.337 252.33 84.9251 252.08C84.5179 251.829 84.0397 251.703 83.4904 251.703C82.8938 251.703 82.373 251.85 81.9279 252.143C81.4876 252.432 81.1467 252.811 80.9052 253.28C80.6684 253.744 80.5501 254.248 80.5501 254.793V256.036C80.5501 256.765 80.6779 257.385 80.9336 257.896C81.194 258.408 81.5562 258.798 82.0202 259.068C82.4843 259.333 83.0264 259.466 83.6467 259.466C84.0491 259.466 84.4161 259.409 84.7475 259.295C85.079 259.177 85.3654 259.002 85.6069 258.77C85.8484 258.538 86.033 258.251 86.1609 257.911L88.1708 258.273C88.0098 258.865 87.721 259.383 87.3043 259.828C86.8924 260.268 86.3739 260.612 85.7489 260.858C85.1287 261.099 84.4208 261.22 83.6254 261.22ZM98.8366 252.754L96.9119 253.095C96.8314 252.849 96.7036 252.615 96.5284 252.392C96.358 252.17 96.1259 251.987 95.8324 251.845C95.5388 251.703 95.1719 251.632 94.7315 251.632C94.1302 251.632 93.6283 251.767 93.2259 252.037C92.8234 252.302 92.6222 252.645 92.6222 253.067C92.6222 253.431 92.7571 253.725 93.027 253.947C93.2969 254.17 93.7325 254.352 94.3338 254.494L96.0668 254.892C97.0705 255.124 97.8187 255.482 98.3111 255.964C98.8035 256.447 99.0497 257.075 99.0497 257.847C99.0497 258.5 98.8603 259.082 98.4815 259.594C98.1075 260.1 97.5843 260.498 96.9119 260.787C96.2443 261.076 95.4702 261.22 94.5895 261.22C93.3679 261.22 92.3712 260.96 91.5994 260.439C90.8277 259.913 90.3542 259.168 90.179 258.202L92.2315 257.889C92.3594 258.424 92.6222 258.829 93.0199 259.104C93.4176 259.374 93.9361 259.509 94.5753 259.509C95.2713 259.509 95.8277 259.364 96.2443 259.075C96.661 258.782 96.8693 258.424 96.8693 258.003C96.8693 257.662 96.7415 257.375 96.4858 257.143C96.2348 256.911 95.849 256.736 95.3281 256.618L93.4815 256.213C92.4635 255.981 91.7107 255.612 91.223 255.105C90.7401 254.598 90.4986 253.957 90.4986 253.18C90.4986 252.536 90.6785 251.973 91.0384 251.49C91.3982 251.007 91.8954 250.631 92.5298 250.361C93.1643 250.086 93.8911 249.949 94.7102 249.949C95.8892 249.949 96.8172 250.205 97.4943 250.716C98.1714 251.223 98.6188 251.902 98.8366 252.754ZM109.559 252.754L107.635 253.095C107.554 252.849 107.426 252.615 107.251 252.392C107.081 252.17 106.849 251.987 106.555 251.845C106.261 251.703 105.895 251.632 105.454 251.632C104.853 251.632 104.351 251.767 103.949 252.037C103.546 252.302 103.345 252.645 103.345 253.067C103.345 253.431 103.48 253.725 103.75 253.947C104.02 254.17 104.455 254.352 105.056 254.494L106.789 254.892C107.793 255.124 108.541 255.482 109.034 255.964C109.526 256.447 109.772 257.075 109.772 257.847C109.772 258.5 109.583 259.082 109.204 259.594C108.83 260.1 108.307 260.498 107.635 260.787C106.967 261.076 106.193 261.22 105.312 261.22C104.091 261.22 103.094 260.96 102.322 260.439C101.55 259.913 101.077 259.168 100.902 258.202L102.954 257.889C103.082 258.424 103.345 258.829 103.743 259.104C104.14 259.374 104.659 259.509 105.298 259.509C105.994 259.509 106.55 259.364 106.967 259.075C107.384 258.782 107.592 258.424 107.592 258.003C107.592 257.662 107.464 257.375 107.208 257.143C106.958 256.911 106.572 256.736 106.051 256.618L104.204 256.213C103.186 255.981 102.433 255.612 101.946 255.105C101.463 254.598 101.221 253.957 101.221 253.18C101.221 252.536 101.401 251.973 101.761 251.49C102.121 251.007 102.618 250.631 103.252 250.361C103.887 250.086 104.614 249.949 105.433 249.949C106.612 249.949 107.54 250.205 108.217 250.716C108.894 251.223 109.342 251.902 109.559 252.754ZM116.809 261.22C115.734 261.22 114.808 260.991 114.032 260.531C113.26 260.067 112.664 259.416 112.242 258.578C111.826 257.735 111.617 256.748 111.617 255.616C111.617 254.499 111.826 253.514 112.242 252.662C112.664 251.81 113.251 251.144 114.004 250.666C114.761 250.188 115.647 249.949 116.66 249.949C117.275 249.949 117.872 250.051 118.45 250.254C119.027 250.458 119.546 250.777 120.005 251.213C120.464 251.649 120.826 252.214 121.092 252.911C121.357 253.602 121.489 254.442 121.489 255.432V256.185H112.817V254.594H119.408C119.408 254.035 119.295 253.54 119.067 253.109C118.84 252.674 118.521 252.33 118.109 252.08C117.701 251.829 117.223 251.703 116.674 251.703C116.077 251.703 115.557 251.85 115.112 252.143C114.671 252.432 114.33 252.811 114.089 253.28C113.852 253.744 113.734 254.248 113.734 254.793V256.036C113.734 256.765 113.862 257.385 114.117 257.896C114.378 258.408 114.74 258.798 115.204 259.068C115.668 259.333 116.21 259.466 116.83 259.466C117.233 259.466 117.6 259.409 117.931 259.295C118.263 259.177 118.549 259.002 118.79 258.77C119.032 258.538 119.217 258.251 119.344 257.911L121.354 258.273C121.193 258.865 120.905 259.383 120.488 259.828C120.076 260.268 119.558 260.612 118.933 260.858C118.312 261.099 117.604 261.22 116.809 261.22ZM132.02 252.754L130.096 253.095C130.015 252.849 129.887 252.615 129.712 252.392C129.542 252.17 129.31 251.987 129.016 251.845C128.722 251.703 128.355 251.632 127.915 251.632C127.314 251.632 126.812 251.767 126.409 252.037C126.007 252.302 125.806 252.645 125.806 253.067C125.806 253.431 125.941 253.725 126.211 253.947C126.48 254.17 126.916 254.352 127.517 254.494L129.25 254.892C130.254 255.124 131.002 255.482 131.495 255.964C131.987 256.447 132.233 257.075 132.233 257.847C132.233 258.5 132.044 259.082 131.665 259.594C131.291 260.1 130.768 260.498 130.096 260.787C129.428 261.076 128.654 261.22 127.773 261.22C126.551 261.22 125.555 260.96 124.783 260.439C124.011 259.913 123.538 259.168 123.363 258.202L125.415 257.889C125.543 258.424 125.806 258.829 126.203 259.104C126.601 259.374 127.12 259.509 127.759 259.509C128.455 259.509 129.011 259.364 129.428 259.075C129.845 258.782 130.053 258.424 130.053 258.003C130.053 257.662 129.925 257.375 129.669 257.143C129.418 256.911 129.033 256.736 128.512 256.618L126.665 256.213C125.647 255.981 124.894 255.612 124.407 255.105C123.924 254.598 123.682 253.957 123.682 253.18C123.682 252.536 123.862 251.973 124.222 251.49C124.582 251.007 125.079 250.631 125.713 250.361C126.348 250.086 127.075 249.949 127.894 249.949C129.073 249.949 130.001 250.205 130.678 250.716C131.355 251.223 131.802 251.902 132.02 252.754Z" fill="#505050"/>
<path d="M376.5 32H444.5C450.967 32 455.617 32.0042 459.156 32.4801C462.638 32.9482 464.744 33.8394 466.302 35.3976C467.86 36.9557 468.752 39.0619 469.22 42.5436C469.696 46.0828 469.7 50.7324 469.7 57.2V116.4H351.3V57.2C351.3 50.7324 351.304 46.0828 351.78 42.5436C352.248 39.0619 353.139 36.9557 354.697 35.3976C356.255 33.8394 358.362 32.9482 361.843 32.4801C365.383 32.0042 370.032 32 376.5 32Z" stroke="#1B1B1B" stroke-width="4"/>
<path d="M467.166 116.4H353.833C350.225 116.4 347.3 119.325 347.3 122.934C347.3 129.046 352.255 134 358.366 134H462.633C468.745 134 473.7 129.046 473.7 122.934C473.7 119.325 470.775 116.4 467.166 116.4Z" stroke="#1B1B1B" stroke-width="4"/>
<rect x="338" y="164" width="145" height="46" rx="23" fill="#FBBF7D"/>
<path d="M362.474 197L356.827 176.636H360.058L364.026 192.406H364.214L368.341 176.636H371.543L375.669 192.416H375.858L379.815 176.636H383.057L377.399 197H374.307L370.021 181.747H369.862L365.577 197H362.474ZM390.698 197.308C389.193 197.308 387.897 196.987 386.81 196.344C385.73 195.694 384.895 194.783 384.305 193.609C383.721 192.429 383.43 191.047 383.43 189.463C383.43 187.899 383.721 186.52 384.305 185.327C384.895 184.134 385.717 183.202 386.771 182.533C387.831 181.863 389.071 181.528 390.489 181.528C391.351 181.528 392.186 181.671 392.995 181.956C393.804 182.241 394.53 182.688 395.173 183.298C395.816 183.908 396.323 184.7 396.694 185.675C397.065 186.643 397.251 187.819 397.251 189.205V190.259H385.11V188.031H394.337C394.337 187.249 394.178 186.556 393.86 185.953C393.542 185.343 393.094 184.863 392.518 184.511C391.948 184.16 391.278 183.984 390.509 183.984C389.674 183.984 388.945 184.19 388.322 184.601C387.705 185.005 387.228 185.536 386.89 186.192C386.558 186.841 386.393 187.547 386.393 188.31V190.05C386.393 191.071 386.572 191.939 386.93 192.655C387.294 193.371 387.801 193.918 388.451 194.295C389.101 194.667 389.86 194.852 390.728 194.852C391.291 194.852 391.805 194.773 392.269 194.614C392.733 194.448 393.134 194.203 393.472 193.878C393.81 193.553 394.069 193.152 394.248 192.675L397.062 193.182C396.836 194.01 396.432 194.736 395.849 195.359C395.272 195.976 394.546 196.456 393.671 196.801C392.803 197.139 391.812 197.308 390.698 197.308ZM400.788 197V176.636H403.761V184.203H403.94C404.112 183.885 404.361 183.517 404.686 183.099C405.011 182.682 405.461 182.317 406.038 182.006C406.615 181.688 407.377 181.528 408.325 181.528C409.558 181.528 410.658 181.84 411.626 182.463C412.594 183.086 413.353 183.984 413.903 185.158C414.46 186.331 414.738 187.743 414.738 189.393C414.738 191.044 414.463 192.459 413.913 193.639C413.363 194.812 412.607 195.717 411.646 196.354C410.685 196.983 409.588 197.298 408.355 197.298C407.427 197.298 406.668 197.143 406.078 196.831C405.494 196.519 405.037 196.155 404.706 195.737C404.374 195.32 404.119 194.948 403.94 194.624H403.691V197H400.788ZM403.701 189.364C403.701 190.437 403.857 191.379 404.169 192.188C404.48 192.996 404.931 193.629 405.521 194.087C406.111 194.537 406.833 194.763 407.689 194.763C408.577 194.763 409.319 194.527 409.916 194.057C410.512 193.58 410.963 192.933 411.268 192.118C411.58 191.303 411.735 190.384 411.735 189.364C411.735 188.356 411.583 187.451 411.278 186.649C410.98 185.847 410.529 185.214 409.926 184.75C409.329 184.286 408.583 184.054 407.689 184.054C406.827 184.054 406.098 184.276 405.501 184.72C404.911 185.164 404.464 185.784 404.159 186.58C403.854 187.375 403.701 188.303 403.701 189.364ZM429.521 185.456L426.827 185.933C426.714 185.589 426.535 185.26 426.29 184.949C426.051 184.637 425.726 184.382 425.315 184.183C424.904 183.984 424.391 183.885 423.774 183.885C422.932 183.885 422.23 184.074 421.666 184.452C421.103 184.823 420.821 185.304 420.821 185.893C420.821 186.404 421.01 186.815 421.388 187.126C421.766 187.438 422.375 187.693 423.217 187.892L425.643 188.449C427.049 188.774 428.096 189.274 428.786 189.95C429.475 190.626 429.82 191.505 429.82 192.585C429.82 193.5 429.554 194.315 429.024 195.031C428.5 195.741 427.768 196.297 426.827 196.702C425.892 197.106 424.808 197.308 423.575 197.308C421.865 197.308 420.47 196.944 419.389 196.214C418.309 195.479 417.646 194.435 417.401 193.082L420.274 192.645C420.453 193.394 420.821 193.961 421.378 194.345C421.935 194.723 422.661 194.912 423.555 194.912C424.53 194.912 425.309 194.71 425.892 194.305C426.475 193.894 426.767 193.394 426.767 192.804C426.767 192.327 426.588 191.926 426.23 191.601C425.879 191.276 425.339 191.031 424.609 190.865L422.024 190.298C420.599 189.973 419.545 189.456 418.862 188.747C418.186 188.038 417.848 187.14 417.848 186.053C417.848 185.151 418.1 184.362 418.604 183.686C419.107 183.01 419.804 182.483 420.692 182.105C421.58 181.721 422.598 181.528 423.744 181.528C425.395 181.528 426.694 181.886 427.642 182.602C428.59 183.312 429.216 184.263 429.521 185.456ZM433.088 197V181.727H436.061V197H433.088ZM434.59 179.371C434.073 179.371 433.629 179.198 433.257 178.854C432.893 178.502 432.711 178.085 432.711 177.601C432.711 177.11 432.893 176.693 433.257 176.348C433.629 175.997 434.073 175.821 434.59 175.821C435.107 175.821 435.548 175.997 435.912 176.348C436.283 176.693 436.469 177.11 436.469 177.601C436.469 178.085 436.283 178.502 435.912 178.854C435.548 179.198 435.107 179.371 434.59 179.371ZM447.19 181.727V184.114H438.848V181.727H447.19ZM441.085 178.068H444.058V192.516C444.058 193.092 444.144 193.527 444.317 193.818C444.489 194.103 444.711 194.299 444.983 194.405C445.261 194.504 445.563 194.554 445.888 194.554C446.126 194.554 446.335 194.537 446.514 194.504C446.693 194.471 446.832 194.445 446.932 194.425L447.469 196.881C447.296 196.947 447.051 197.013 446.733 197.08C446.415 197.152 446.017 197.192 445.54 197.199C444.758 197.212 444.028 197.073 443.352 196.781C442.676 196.49 442.129 196.039 441.712 195.429C441.294 194.819 441.085 194.054 441.085 193.132V178.068ZM456.897 197.308C455.393 197.308 454.097 196.987 453.01 196.344C451.929 195.694 451.094 194.783 450.504 193.609C449.921 192.429 449.629 191.047 449.629 189.463C449.629 187.899 449.921 186.52 450.504 185.327C451.094 184.134 451.916 183.202 452.97 182.533C454.03 181.863 455.27 181.528 456.689 181.528C457.55 181.528 458.386 181.671 459.194 181.956C460.003 182.241 460.729 182.688 461.372 183.298C462.015 183.908 462.522 184.7 462.893 185.675C463.264 186.643 463.45 187.819 463.45 189.205V190.259H451.309V188.031H460.537C460.537 187.249 460.377 186.556 460.059 185.953C459.741 185.343 459.294 184.863 458.717 184.511C458.147 184.16 457.477 183.984 456.708 183.984C455.873 183.984 455.144 184.19 454.521 184.601C453.904 185.005 453.427 185.536 453.089 186.192C452.758 186.841 452.592 187.547 452.592 188.31V190.05C452.592 191.071 452.771 191.939 453.129 192.655C453.493 193.371 454.001 193.918 454.65 194.295C455.3 194.667 456.059 194.852 456.927 194.852C457.491 194.852 458.004 194.773 458.468 194.614C458.932 194.448 459.333 194.203 459.672 193.878C460.01 193.553 460.268 193.152 460.447 192.675L463.261 193.182C463.036 194.01 462.631 194.736 462.048 195.359C461.471 195.976 460.745 196.456 459.87 196.801C459.002 197.139 458.011 197.308 456.897 197.308Z" fill="white"/>
<path d="M363.739 261V246.455H368.923C370.055 246.455 370.992 246.661 371.736 247.072C372.479 247.484 373.036 248.048 373.405 248.763C373.774 249.473 373.959 250.273 373.959 251.163C373.959 252.058 373.772 252.863 373.398 253.578C373.028 254.288 372.47 254.852 371.722 255.268C370.978 255.68 370.043 255.886 368.916 255.886H365.351V254.026H368.717C369.432 254.026 370.012 253.902 370.457 253.656C370.902 253.405 371.229 253.064 371.438 252.634C371.646 252.203 371.75 251.713 371.75 251.163C371.75 250.614 371.646 250.126 371.438 249.7C371.229 249.274 370.9 248.94 370.45 248.699C370.005 248.457 369.418 248.337 368.689 248.337H365.933V261H363.739ZM380.926 261.22C379.851 261.22 378.926 260.991 378.149 260.531C377.377 260.067 376.781 259.416 376.359 258.578C375.943 257.735 375.734 256.748 375.734 255.616C375.734 254.499 375.943 253.514 376.359 252.662C376.781 251.81 377.368 251.144 378.121 250.666C378.878 250.188 379.764 249.949 380.777 249.949C381.393 249.949 381.989 250.051 382.567 250.254C383.144 250.458 383.663 250.777 384.122 251.213C384.581 251.649 384.944 252.214 385.209 252.911C385.474 253.602 385.607 254.442 385.607 255.432V256.185H376.935V254.594H383.526C383.526 254.035 383.412 253.54 383.185 253.109C382.957 252.674 382.638 252.33 382.226 252.08C381.819 251.829 381.34 251.703 380.791 251.703C380.195 251.703 379.674 251.85 379.229 252.143C378.788 252.432 378.447 252.811 378.206 253.28C377.969 253.744 377.851 254.248 377.851 254.793V256.036C377.851 256.765 377.979 257.385 378.234 257.896C378.495 258.408 378.857 258.798 379.321 259.068C379.785 259.333 380.327 259.466 380.947 259.466C381.35 259.466 381.717 259.409 382.048 259.295C382.38 259.177 382.666 259.002 382.908 258.77C383.149 258.538 383.334 258.251 383.462 257.911L385.472 258.273C385.311 258.865 385.022 259.383 384.605 259.828C384.193 260.268 383.675 260.612 383.05 260.858C382.429 261.099 381.722 261.22 380.926 261.22ZM393.055 250.091V251.795H387.096V250.091H393.055ZM388.694 247.477H390.818V257.797C390.818 258.209 390.879 258.519 391.002 258.727C391.126 258.931 391.284 259.071 391.478 259.146C391.677 259.217 391.893 259.253 392.125 259.253C392.295 259.253 392.444 259.241 392.572 259.217C392.7 259.194 392.799 259.175 392.87 259.161L393.254 260.915C393.131 260.962 392.956 261.009 392.728 261.057C392.501 261.109 392.217 261.137 391.876 261.142C391.317 261.152 390.797 261.052 390.314 260.844C389.831 260.635 389.44 260.313 389.142 259.878C388.843 259.442 388.694 258.895 388.694 258.237V247.477ZM405.292 261.22C404.27 261.22 403.377 260.986 402.615 260.517C401.852 260.048 401.261 259.393 400.839 258.55C400.418 257.707 400.207 256.722 400.207 255.595C400.207 254.464 400.418 253.474 400.839 252.626C401.261 251.779 401.852 251.121 402.615 250.652C403.377 250.183 404.27 249.949 405.292 249.949C406.315 249.949 407.208 250.183 407.97 250.652C408.732 251.121 409.324 251.779 409.745 252.626C410.167 253.474 410.377 254.464 410.377 255.595C410.377 256.722 410.167 257.707 409.745 258.55C409.324 259.393 408.732 260.048 407.97 260.517C407.208 260.986 406.315 261.22 405.292 261.22ZM405.299 259.438C405.962 259.438 406.511 259.262 406.947 258.912C407.383 258.562 407.705 258.095 407.913 257.513C408.126 256.93 408.233 256.289 408.233 255.588C408.233 254.892 408.126 254.253 407.913 253.67C407.705 253.083 407.383 252.612 406.947 252.257C406.511 251.902 405.962 251.724 405.299 251.724C404.632 251.724 404.078 251.902 403.637 252.257C403.202 252.612 402.877 253.083 402.664 253.67C402.456 254.253 402.352 254.892 402.352 255.588C402.352 256.289 402.456 256.93 402.664 257.513C402.877 258.095 403.202 258.562 403.637 258.912C404.078 259.262 404.632 259.438 405.299 259.438ZM414.781 261L411.571 250.091H413.765L415.903 258.102H416.01L418.154 250.091H420.349L422.48 258.067H422.586L424.71 250.091H426.904L423.701 261H421.535L419.319 253.124H419.156L416.94 261H414.781ZM431.043 254.523V261H428.92V250.091H430.958V251.866H431.093C431.344 251.289 431.737 250.825 432.272 250.474C432.812 250.124 433.491 249.949 434.31 249.949C435.054 249.949 435.705 250.105 436.263 250.418C436.822 250.725 437.255 251.185 437.563 251.795C437.871 252.406 438.025 253.161 438.025 254.061V261H435.901V254.317C435.901 253.526 435.695 252.908 435.283 252.463C434.871 252.013 434.306 251.788 433.586 251.788C433.094 251.788 432.656 251.895 432.272 252.108C431.893 252.321 431.593 252.634 431.37 253.045C431.152 253.453 431.043 253.945 431.043 254.523ZM445.575 261.22C444.5 261.22 443.574 260.991 442.798 260.531C442.026 260.067 441.429 259.416 441.008 258.578C440.591 257.735 440.383 256.748 440.383 255.616C440.383 254.499 440.591 253.514 441.008 252.662C441.429 251.81 442.016 251.144 442.769 250.666C443.527 250.188 444.412 249.949 445.425 249.949C446.041 249.949 446.638 250.051 447.215 250.254C447.793 250.458 448.311 250.777 448.771 251.213C449.23 251.649 449.592 252.214 449.857 252.911C450.122 253.602 450.255 254.442 450.255 255.432V256.185H441.583V254.594H448.174C448.174 254.035 448.06 253.54 447.833 253.109C447.606 252.674 447.286 252.33 446.874 252.08C446.467 251.829 445.989 251.703 445.44 251.703C444.843 251.703 444.322 251.85 443.877 252.143C443.437 252.432 443.096 252.811 442.854 253.28C442.618 253.744 442.499 254.248 442.499 254.793V256.036C442.499 256.765 442.627 257.385 442.883 257.896C443.143 258.408 443.505 258.798 443.969 259.068C444.433 259.333 444.976 259.466 445.596 259.466C445.998 259.466 446.365 259.409 446.697 259.295C447.028 259.177 447.315 259.002 447.556 258.77C447.798 258.538 447.982 258.251 448.11 257.911L450.12 258.273C449.959 258.865 449.67 259.383 449.254 259.828C448.842 260.268 448.323 260.612 447.698 260.858C447.078 261.099 446.37 261.22 445.575 261.22ZM452.611 261V250.091H454.664V251.824H454.777C454.976 251.237 455.327 250.775 455.828 250.439C456.335 250.098 456.908 249.928 457.547 249.928C457.68 249.928 457.836 249.932 458.016 249.942C458.201 249.951 458.345 249.963 458.449 249.977V252.009C458.364 251.985 458.212 251.959 457.995 251.93C457.777 251.897 457.559 251.881 457.341 251.881C456.839 251.881 456.392 251.987 455.999 252.2C455.611 252.409 455.303 252.7 455.076 253.074C454.848 253.443 454.735 253.865 454.735 254.338V261H452.611Z" fill="#505050"/>
<path d="M767.611 2H753.389L753.235 2C746.661 1.99997 741.523 1.99994 737.517 2.53853C733.422 3.08905 730.212 4.23504 727.696 6.75138C725.179 9.26771 724.033 12.4776 723.483 16.5723C722.944 20.5783 722.944 25.7166 722.944 32.2908L722.944 32.4444V103.556L722.944 103.709C722.944 110.283 722.944 115.422 723.483 119.428C724.033 123.522 725.179 126.732 727.696 129.249C730.212 131.765 733.422 132.911 737.517 133.461C741.523 134 746.661 134 753.235 134H753.389H767.611H767.764C774.339 134 779.477 134 783.483 133.461C787.578 132.911 790.788 131.765 793.304 129.249C795.82 126.732 796.966 123.522 797.517 119.428C798.056 115.422 798.055 110.283 798.055 103.709V103.556V32.4444V32.2907C798.055 25.7165 798.056 20.5783 797.517 16.5723C796.966 12.4776 795.82 9.26771 793.304 6.75138C790.788 4.23504 787.578 3.08905 783.483 2.53853C779.477 1.99994 774.339 1.99997 767.765 2L767.611 2Z" stroke="#1B1B1B" stroke-width="4"/>
<path d="M724.944 96.4453H796.055" stroke="#1B1B1B" stroke-width="4"/>
<rect x="666.5" y="164" width="188" height="46" rx="23" fill="#FBBF7D"/>
<path d="M686.995 176.636H690.724L697.207 192.466H697.445L703.928 176.636H707.657V197H704.734V182.264H704.545L698.539 196.97H696.113L690.107 182.254H689.918V197H686.995V176.636ZM718.319 197.308C716.887 197.308 715.637 196.98 714.57 196.324C713.503 195.668 712.674 194.75 712.084 193.57C711.494 192.39 711.199 191.011 711.199 189.433C711.199 187.849 711.494 186.464 712.084 185.277C712.674 184.09 713.503 183.169 714.57 182.513C715.637 181.857 716.887 181.528 718.319 181.528C719.75 181.528 721 181.857 722.067 182.513C723.134 183.169 723.963 184.09 724.553 185.277C725.143 186.464 725.438 187.849 725.438 189.433C725.438 191.011 725.143 192.39 724.553 193.57C723.963 194.75 723.134 195.668 722.067 196.324C721 196.98 719.75 197.308 718.319 197.308ZM718.328 194.812C719.257 194.812 720.025 194.567 720.635 194.077C721.245 193.586 721.696 192.933 721.988 192.118C722.286 191.303 722.435 190.404 722.435 189.423C722.435 188.449 722.286 187.554 721.988 186.739C721.696 185.917 721.245 185.257 720.635 184.76C720.025 184.263 719.257 184.014 718.328 184.014C717.394 184.014 716.618 184.263 716.002 184.76C715.392 185.257 714.938 185.917 714.64 186.739C714.348 187.554 714.202 188.449 714.202 189.423C714.202 190.404 714.348 191.303 714.64 192.118C714.938 192.933 715.392 193.586 716.002 194.077C716.618 194.567 717.394 194.812 718.328 194.812ZM728.995 197V176.636H731.968V184.203H732.147C732.319 183.885 732.568 183.517 732.893 183.099C733.218 182.682 733.668 182.317 734.245 182.006C734.822 181.688 735.584 181.528 736.532 181.528C737.765 181.528 738.865 181.84 739.833 182.463C740.801 183.086 741.56 183.984 742.11 185.158C742.667 186.331 742.945 187.743 742.945 189.393C742.945 191.044 742.67 192.459 742.12 193.639C741.57 194.812 740.814 195.717 739.853 196.354C738.892 196.983 737.795 197.298 736.562 197.298C735.634 197.298 734.875 197.143 734.285 196.831C733.701 196.519 733.244 196.155 732.913 195.737C732.581 195.32 732.326 194.948 732.147 194.624H731.898V197H728.995ZM731.908 189.364C731.908 190.437 732.064 191.379 732.376 192.188C732.687 192.996 733.138 193.629 733.728 194.087C734.318 194.537 735.04 194.763 735.896 194.763C736.784 194.763 737.526 194.527 738.123 194.057C738.719 193.58 739.17 192.933 739.475 192.118C739.787 191.303 739.942 190.384 739.942 189.364C739.942 188.356 739.79 187.451 739.485 186.649C739.187 185.847 738.736 185.214 738.133 184.75C737.536 184.286 736.79 184.054 735.896 184.054C735.034 184.054 734.305 184.276 733.708 184.72C733.118 185.164 732.671 185.784 732.366 186.58C732.061 187.375 731.908 188.303 731.908 189.364ZM746.284 197V181.727H749.257V197H746.284ZM747.785 179.371C747.268 179.371 746.824 179.198 746.453 178.854C746.088 178.502 745.906 178.085 745.906 177.601C745.906 177.11 746.088 176.693 746.453 176.348C746.824 175.997 747.268 175.821 747.785 175.821C748.302 175.821 748.743 175.997 749.108 176.348C749.479 176.693 749.664 177.11 749.664 177.601C749.664 178.085 749.479 178.502 749.108 178.854C748.743 179.198 748.302 179.371 747.785 179.371ZM756.229 176.636V197H753.256V176.636H756.229ZM766.811 197.308C765.307 197.308 764.011 196.987 762.924 196.344C761.843 195.694 761.008 194.783 760.418 193.609C759.835 192.429 759.543 191.047 759.543 189.463C759.543 187.899 759.835 186.52 760.418 185.327C761.008 184.134 761.83 183.202 762.884 182.533C763.944 181.863 765.184 181.528 766.603 181.528C767.464 181.528 768.3 181.671 769.108 181.956C769.917 182.241 770.643 182.688 771.286 183.298C771.929 183.908 772.436 184.7 772.807 185.675C773.178 186.643 773.364 187.819 773.364 189.205V190.259H761.223V188.031H770.451C770.451 187.249 770.292 186.556 769.973 185.953C769.655 185.343 769.208 184.863 768.631 184.511C768.061 184.16 767.391 183.984 766.623 183.984C765.787 183.984 765.058 184.19 764.435 184.601C763.819 185.005 763.341 185.536 763.003 186.192C762.672 186.841 762.506 187.547 762.506 188.31V190.05C762.506 191.071 762.685 191.939 763.043 192.655C763.408 193.371 763.915 193.918 764.564 194.295C765.214 194.667 765.973 194.852 766.841 194.852C767.405 194.852 767.918 194.773 768.382 194.614C768.846 194.448 769.248 194.203 769.586 193.878C769.924 193.553 770.182 193.152 770.361 192.675L773.175 193.182C772.95 194.01 772.545 194.736 771.962 195.359C771.385 195.976 770.659 196.456 769.784 196.801C768.916 197.139 767.925 197.308 766.811 197.308ZM786.032 197H782.77L790.098 176.636H793.648L800.976 197H797.715L791.958 180.335H791.799L786.032 197ZM786.578 189.026H797.158V191.611H786.578V189.026ZM803.678 202.727V181.727H806.582V184.203H806.83C807.003 183.885 807.251 183.517 807.576 183.099C807.901 182.682 808.352 182.317 808.928 182.006C809.505 181.688 810.267 181.528 811.215 181.528C812.448 181.528 813.549 181.84 814.516 182.463C815.484 183.086 816.243 183.984 816.793 185.158C817.35 186.331 817.629 187.743 817.629 189.393C817.629 191.044 817.353 192.459 816.803 193.639C816.253 194.812 815.497 195.717 814.536 196.354C813.575 196.983 812.478 197.298 811.245 197.298C810.317 197.298 809.558 197.143 808.968 196.831C808.385 196.519 807.927 196.155 807.596 195.737C807.264 195.32 807.009 194.948 806.83 194.624H806.651V202.727H803.678ZM806.592 189.364C806.592 190.437 806.747 191.379 807.059 192.188C807.371 192.996 807.821 193.629 808.411 194.087C809.001 194.537 809.724 194.763 810.579 194.763C811.467 194.763 812.21 194.527 812.806 194.057C813.403 193.58 813.853 192.933 814.158 192.118C814.47 191.303 814.626 190.384 814.626 189.364C814.626 188.356 814.473 187.451 814.168 186.649C813.87 185.847 813.419 185.214 812.816 184.75C812.219 184.286 811.474 184.054 810.579 184.054C809.717 184.054 808.988 184.276 808.391 184.72C807.801 185.164 807.354 185.784 807.049 186.58C806.744 187.375 806.592 188.303 806.592 189.364ZM820.96 202.727V181.727H823.863V184.203H824.112C824.284 183.885 824.532 183.517 824.857 183.099C825.182 182.682 825.633 182.317 826.21 182.006C826.786 181.688 827.549 181.528 828.496 181.528C829.729 181.528 830.83 181.84 831.798 182.463C832.765 183.086 833.524 183.984 834.075 185.158C834.631 186.331 834.91 187.743 834.91 189.393C834.91 191.044 834.635 192.459 834.085 193.639C833.534 194.812 832.779 195.717 831.817 196.354C830.856 196.983 829.759 197.298 828.526 197.298C827.598 197.298 826.839 197.143 826.249 196.831C825.666 196.519 825.209 196.155 824.877 195.737C824.546 195.32 824.29 194.948 824.112 194.624H823.933V202.727H820.96ZM823.873 189.364C823.873 190.437 824.029 191.379 824.34 192.188C824.652 192.996 825.103 193.629 825.692 194.087C826.282 194.537 827.005 194.763 827.86 194.763C828.748 194.763 829.491 194.527 830.087 194.057C830.684 193.58 831.135 192.933 831.44 192.118C831.751 191.303 831.907 190.384 831.907 189.364C831.907 188.356 831.754 187.451 831.45 186.649C831.151 185.847 830.701 185.214 830.097 184.75C829.501 184.286 828.755 184.054 827.86 184.054C826.998 184.054 826.269 184.276 825.673 184.72C825.083 185.164 824.635 185.784 824.33 186.58C824.025 187.375 823.873 188.303 823.873 189.364Z" fill="white"/>
<path d="M664.598 261V246.455H669.783C670.914 246.455 671.852 246.661 672.595 247.072C673.339 247.484 673.895 248.048 674.264 248.763C674.634 249.473 674.818 250.273 674.818 251.163C674.818 252.058 674.631 252.863 674.257 253.578C673.888 254.288 673.329 254.852 672.581 255.268C671.838 255.68 670.902 255.886 669.776 255.886H666.21V254.026H669.577C670.292 254.026 670.872 253.902 671.317 253.656C671.762 253.405 672.089 253.064 672.297 252.634C672.505 252.203 672.609 251.713 672.609 251.163C672.609 250.614 672.505 250.126 672.297 249.7C672.089 249.274 671.759 248.94 671.31 248.699C670.865 248.457 670.277 248.337 669.548 248.337H666.793V261H664.598ZM681.786 261.22C680.711 261.22 679.785 260.991 679.009 260.531C678.237 260.067 677.64 259.416 677.219 258.578C676.802 257.735 676.594 256.748 676.594 255.616C676.594 254.499 676.802 253.514 677.219 252.662C677.64 251.81 678.227 251.144 678.98 250.666C679.738 250.188 680.623 249.949 681.636 249.949C682.252 249.949 682.848 250.051 683.426 250.254C684.004 250.458 684.522 250.777 684.982 251.213C685.441 251.649 685.803 252.214 686.068 252.911C686.333 253.602 686.466 254.442 686.466 255.432V256.185H677.794V254.594H684.385C684.385 254.035 684.271 253.54 684.044 253.109C683.817 252.674 683.497 252.33 683.085 252.08C682.678 251.829 682.2 251.703 681.651 251.703C681.054 251.703 680.533 251.85 680.088 252.143C679.648 252.432 679.307 252.811 679.065 253.28C678.829 253.744 678.71 254.248 678.71 254.793V256.036C678.71 256.765 678.838 257.385 679.094 257.896C679.354 258.408 679.716 258.798 680.18 259.068C680.644 259.333 681.187 259.466 681.807 259.466C682.209 259.466 682.576 259.409 682.908 259.295C683.239 259.177 683.526 259.002 683.767 258.77C684.009 258.538 684.193 258.251 684.321 257.911L686.331 258.273C686.17 258.865 685.881 259.383 685.464 259.828C685.053 260.268 684.534 260.612 683.909 260.858C683.289 261.099 682.581 261.22 681.786 261.22ZM693.914 250.091V251.795H687.956V250.091H693.914ZM689.554 247.477H691.677V257.797C691.677 258.209 691.739 258.519 691.862 258.727C691.985 258.931 692.144 259.071 692.338 259.146C692.537 259.217 692.752 259.253 692.984 259.253C693.154 259.253 693.304 259.241 693.431 259.217C693.559 259.194 693.659 259.175 693.73 259.161L694.113 260.915C693.99 260.962 693.815 261.009 693.588 261.057C693.36 261.109 693.076 261.137 692.735 261.142C692.177 261.152 691.656 261.052 691.173 260.844C690.69 260.635 690.299 260.313 690.001 259.878C689.703 259.442 689.554 258.895 689.554 258.237V247.477ZM706.152 261.22C705.129 261.22 704.236 260.986 703.474 260.517C702.712 260.048 702.12 259.393 701.699 258.55C701.277 257.707 701.066 256.722 701.066 255.595C701.066 254.464 701.277 253.474 701.699 252.626C702.12 251.779 702.712 251.121 703.474 250.652C704.236 250.183 705.129 249.949 706.152 249.949C707.174 249.949 708.067 250.183 708.829 250.652C709.592 251.121 710.183 251.779 710.605 252.626C711.026 253.474 711.237 254.464 711.237 255.595C711.237 256.722 711.026 257.707 710.605 258.55C710.183 259.393 709.592 260.048 708.829 260.517C708.067 260.986 707.174 261.22 706.152 261.22ZM706.159 259.438C706.822 259.438 707.371 259.262 707.806 258.912C708.242 258.562 708.564 258.095 708.772 257.513C708.985 256.93 709.092 256.289 709.092 255.588C709.092 254.892 708.985 254.253 708.772 253.67C708.564 253.083 708.242 252.612 707.806 252.257C707.371 251.902 706.822 251.724 706.159 251.724C705.491 251.724 704.937 251.902 704.497 252.257C704.061 252.612 703.737 253.083 703.524 253.67C703.315 254.253 703.211 254.892 703.211 255.588C703.211 256.289 703.315 256.93 703.524 257.513C703.737 258.095 704.061 258.562 704.497 258.912C704.937 259.262 705.491 259.438 706.159 259.438ZM715.64 261L712.43 250.091H714.625L716.762 258.102H716.869L719.014 250.091H721.208L723.339 258.067H723.446L725.569 250.091H727.764L724.561 261H722.395L720.179 253.124H720.015L717.799 261H715.64ZM731.903 254.523V261H729.779V250.091H731.817V251.866H731.952C732.203 251.289 732.596 250.825 733.131 250.474C733.671 250.124 734.351 249.949 735.17 249.949C735.913 249.949 736.564 250.105 737.123 250.418C737.682 250.725 738.115 251.185 738.423 251.795C738.73 252.406 738.884 253.161 738.884 254.061V261H736.761V254.317C736.761 253.526 736.555 252.908 736.143 252.463C735.731 252.013 735.165 251.788 734.445 251.788C733.953 251.788 733.515 251.895 733.131 252.108C732.753 252.321 732.452 252.634 732.229 253.045C732.012 253.453 731.903 253.945 731.903 254.523ZM746.434 261.22C745.359 261.22 744.433 260.991 743.657 260.531C742.885 260.067 742.289 259.416 741.867 258.578C741.451 257.735 741.242 256.748 741.242 255.616C741.242 254.499 741.451 253.514 741.867 252.662C742.289 251.81 742.876 251.144 743.629 250.666C744.386 250.188 745.272 249.949 746.285 249.949C746.9 249.949 747.497 250.051 748.075 250.254C748.652 250.458 749.171 250.777 749.63 251.213C750.089 251.649 750.451 252.214 750.717 252.911C750.982 253.602 751.114 254.442 751.114 255.432V256.185H742.442V254.594H749.033C749.033 254.035 748.92 253.54 748.692 253.109C748.465 252.674 748.146 252.33 747.734 252.08C747.326 251.829 746.848 251.703 746.299 251.703C745.702 251.703 745.182 251.85 744.737 252.143C744.296 252.432 743.955 252.811 743.714 253.28C743.477 253.744 743.359 254.248 743.359 254.793V256.036C743.359 256.765 743.487 257.385 743.742 257.896C744.003 258.408 744.365 258.798 744.829 259.068C745.293 259.333 745.835 259.466 746.455 259.466C746.858 259.466 747.225 259.409 747.556 259.295C747.888 259.177 748.174 259.002 748.415 258.77C748.657 258.538 748.842 258.251 748.969 257.911L750.979 258.273C750.818 258.865 750.53 259.383 750.113 259.828C749.701 260.268 749.183 260.612 748.558 260.858C747.937 261.099 747.229 261.22 746.434 261.22ZM753.471 261V250.091H755.523V251.824H755.637C755.836 251.237 756.186 250.775 756.688 250.439C757.194 250.098 757.767 249.928 758.407 249.928C758.539 249.928 758.695 249.932 758.875 249.942C759.06 249.951 759.204 249.963 759.309 249.977V252.009C759.223 251.985 759.072 251.959 758.854 251.93C758.636 251.897 758.418 251.881 758.201 251.881C757.699 251.881 757.251 251.987 756.858 252.2C756.47 252.409 756.162 252.7 755.935 253.074C755.708 253.443 755.594 253.865 755.594 254.338V261H753.471ZM765.379 261.206C764.404 261.206 763.563 261.028 762.858 260.673C762.157 260.318 761.617 259.835 761.239 259.224C760.86 258.609 760.67 257.913 760.67 257.136C760.67 256.545 760.794 256.019 761.04 255.56C761.286 255.096 761.629 254.667 762.07 254.274C762.51 253.881 763.019 253.486 763.597 253.088L765.94 251.433C766.338 251.173 766.648 250.898 766.871 250.609C767.093 250.316 767.205 249.954 767.205 249.523C767.205 249.182 767.058 248.855 766.764 248.543C766.471 248.23 766.078 248.074 765.585 248.074C765.244 248.074 764.944 248.157 764.683 248.322C764.428 248.488 764.226 248.701 764.08 248.962C763.938 249.217 763.866 249.487 763.866 249.771C763.866 250.103 763.956 250.437 764.136 250.773C764.321 251.109 764.558 251.457 764.847 251.817C765.135 252.172 765.438 252.541 765.756 252.925L772.51 261H770.109L764.52 254.43C764.051 253.876 763.616 253.356 763.213 252.868C762.811 252.375 762.484 251.878 762.233 251.376C761.987 250.87 761.864 250.323 761.864 249.736C761.864 249.068 762.015 248.476 762.318 247.96C762.626 247.439 763.054 247.032 763.604 246.739C764.153 246.445 764.797 246.298 765.536 246.298C766.284 246.298 766.925 246.445 767.46 246.739C768 247.027 768.414 247.413 768.703 247.896C768.997 248.375 769.143 248.898 769.143 249.466C769.143 250.157 768.971 250.768 768.625 251.298C768.284 251.824 767.813 252.307 767.212 252.747L764.293 254.899C763.724 255.316 763.329 255.728 763.107 256.135C762.889 256.537 762.78 256.852 762.78 257.08C762.78 257.496 762.886 257.882 763.099 258.237C763.317 258.592 763.62 258.876 764.009 259.089C764.402 259.303 764.861 259.409 765.386 259.409C765.926 259.409 766.452 259.293 766.963 259.061C767.479 258.824 767.946 258.486 768.362 258.045C768.784 257.605 769.117 257.077 769.364 256.462C769.61 255.846 769.733 255.157 769.733 254.395H771.651C771.651 255.332 771.544 256.125 771.331 256.774C771.118 257.418 770.86 257.944 770.557 258.351C770.259 258.753 769.977 259.068 769.712 259.295C769.626 259.371 769.546 259.447 769.47 259.523C769.394 259.598 769.314 259.674 769.229 259.75C768.736 260.247 768.14 260.614 767.439 260.851C766.743 261.088 766.056 261.206 765.379 261.206ZM774.344 261V246.455H776.468V251.859H776.596C776.719 251.632 776.896 251.369 777.128 251.071C777.36 250.773 777.682 250.512 778.094 250.29C778.506 250.062 779.051 249.949 779.728 249.949C780.608 249.949 781.394 250.171 782.086 250.616C782.777 251.062 783.319 251.703 783.712 252.541C784.11 253.379 784.309 254.388 784.309 255.567C784.309 256.746 784.112 257.757 783.719 258.599C783.326 259.437 782.786 260.084 782.1 260.538C781.413 260.988 780.63 261.213 779.749 261.213C779.086 261.213 778.544 261.102 778.123 260.879C777.706 260.657 777.379 260.396 777.142 260.098C776.906 259.8 776.723 259.535 776.596 259.303H776.418V261H774.344ZM776.425 255.545C776.425 256.312 776.536 256.985 776.759 257.562C776.981 258.14 777.303 258.592 777.725 258.919C778.146 259.241 778.662 259.402 779.273 259.402C779.908 259.402 780.438 259.234 780.864 258.898C781.29 258.557 781.612 258.095 781.83 257.513C782.052 256.93 782.164 256.275 782.164 255.545C782.164 254.826 782.055 254.179 781.837 253.607C781.624 253.034 781.302 252.581 780.871 252.25C780.445 251.919 779.912 251.753 779.273 251.753C778.658 251.753 778.137 251.911 777.711 252.229C777.289 252.546 776.97 252.989 776.752 253.557C776.534 254.125 776.425 254.788 776.425 255.545ZM793.604 256.476V250.091H795.734V261H793.646V259.111H793.533C793.282 259.693 792.879 260.179 792.325 260.567C791.776 260.95 791.092 261.142 790.273 261.142C789.572 261.142 788.952 260.988 788.412 260.68C787.877 260.368 787.455 259.906 787.148 259.295C786.845 258.685 786.693 257.929 786.693 257.03V250.091H788.817V256.774C788.817 257.518 789.023 258.109 789.435 258.55C789.847 258.99 790.382 259.21 791.04 259.21C791.438 259.21 791.833 259.111 792.226 258.912C792.624 258.713 792.953 258.412 793.213 258.01C793.478 257.607 793.608 257.096 793.604 256.476ZM806.762 252.754L804.838 253.095C804.757 252.849 804.629 252.615 804.454 252.392C804.284 252.17 804.052 251.987 803.758 251.845C803.465 251.703 803.098 251.632 802.657 251.632C802.056 251.632 801.554 251.767 801.152 252.037C800.749 252.302 800.548 252.645 800.548 253.067C800.548 253.431 800.683 253.725 800.953 253.947C801.223 254.17 801.658 254.352 802.26 254.494L803.993 254.892C804.996 255.124 805.744 255.482 806.237 255.964C806.729 256.447 806.975 257.075 806.975 257.847C806.975 258.5 806.786 259.082 806.407 259.594C806.033 260.1 805.51 260.498 804.838 260.787C804.17 261.076 803.396 261.22 802.515 261.22C801.294 261.22 800.297 260.96 799.525 260.439C798.753 259.913 798.28 259.168 798.105 258.202L800.157 257.889C800.285 258.424 800.548 258.829 800.946 259.104C801.343 259.374 801.862 259.509 802.501 259.509C803.197 259.509 803.753 259.364 804.17 259.075C804.587 258.782 804.795 258.424 804.795 258.003C804.795 257.662 804.667 257.375 804.412 257.143C804.161 256.911 803.775 256.736 803.254 256.618L801.407 256.213C800.389 255.981 799.636 255.612 799.149 255.105C798.666 254.598 798.424 253.957 798.424 253.18C798.424 252.536 798.604 251.973 798.964 251.49C799.324 251.007 799.821 250.631 800.456 250.361C801.09 250.086 801.817 249.949 802.636 249.949C803.815 249.949 804.743 250.205 805.42 250.716C806.097 251.223 806.545 251.902 806.762 252.754ZM809.31 261V250.091H811.434V261H809.31ZM810.383 248.408C810.013 248.408 809.696 248.285 809.431 248.038C809.171 247.787 809.04 247.489 809.04 247.143C809.04 246.793 809.171 246.495 809.431 246.249C809.696 245.998 810.013 245.872 810.383 245.872C810.752 245.872 811.067 245.998 811.327 246.249C811.593 246.495 811.725 246.793 811.725 247.143C811.725 247.489 811.593 247.787 811.327 248.038C811.067 248.285 810.752 248.408 810.383 248.408ZM816.414 254.523V261H814.291V250.091H816.329V251.866H816.464C816.715 251.289 817.108 250.825 817.643 250.474C818.183 250.124 818.862 249.949 819.681 249.949C820.425 249.949 821.076 250.105 821.635 250.418C822.193 250.725 822.627 251.185 822.934 251.795C823.242 252.406 823.396 253.161 823.396 254.061V261H821.272V254.317C821.272 253.526 821.066 252.908 820.654 252.463C820.243 252.013 819.677 251.788 818.957 251.788C818.465 251.788 818.027 251.895 817.643 252.108C817.264 252.321 816.964 252.634 816.741 253.045C816.523 253.453 816.414 253.945 816.414 254.523ZM830.946 261.22C829.871 261.22 828.945 260.991 828.169 260.531C827.397 260.067 826.8 259.416 826.379 258.578C825.962 257.735 825.754 256.748 825.754 255.616C825.754 254.499 825.962 253.514 826.379 252.662C826.8 251.81 827.387 251.144 828.14 250.666C828.898 250.188 829.783 249.949 830.797 249.949C831.412 249.949 832.009 250.051 832.586 250.254C833.164 250.458 833.682 250.777 834.142 251.213C834.601 251.649 834.963 252.214 835.228 252.911C835.493 253.602 835.626 254.442 835.626 255.432V256.185H826.954V254.594H833.545C833.545 254.035 833.431 253.54 833.204 253.109C832.977 252.674 832.657 252.33 832.245 252.08C831.838 251.829 831.36 251.703 830.811 251.703C830.214 251.703 829.693 251.85 829.248 252.143C828.808 252.432 828.467 252.811 828.225 253.28C827.989 253.744 827.87 254.248 827.87 254.793V256.036C827.87 256.765 827.998 257.385 828.254 257.896C828.514 258.408 828.877 258.798 829.341 259.068C829.805 259.333 830.347 259.466 830.967 259.466C831.369 259.466 831.736 259.409 832.068 259.295C832.399 259.177 832.686 259.002 832.927 258.77C833.169 258.538 833.353 258.251 833.481 257.911L835.491 258.273C835.33 258.865 835.041 259.383 834.625 259.828C834.213 260.268 833.694 260.612 833.069 260.858C832.449 261.099 831.741 261.22 830.946 261.22ZM846.157 252.754L844.232 253.095C844.152 252.849 844.024 252.615 843.849 252.392C843.678 252.17 843.446 251.987 843.153 251.845C842.859 251.703 842.492 251.632 842.052 251.632C841.451 251.632 840.949 251.767 840.546 252.037C840.144 252.302 839.942 252.645 839.942 253.067C839.942 253.431 840.077 253.725 840.347 253.947C840.617 254.17 841.053 254.352 841.654 254.494L843.387 254.892C844.391 255.124 845.139 255.482 845.631 255.964C846.124 256.447 846.37 257.075 846.37 257.847C846.37 258.5 846.181 259.082 845.802 259.594C845.428 260.1 844.905 260.498 844.232 260.787C843.565 261.076 842.79 261.22 841.91 261.22C840.688 261.22 839.692 260.96 838.92 260.439C838.148 259.913 837.674 259.168 837.499 258.202L839.552 257.889C839.68 258.424 839.942 258.829 840.34 259.104C840.738 259.374 841.256 259.509 841.896 259.509C842.592 259.509 843.148 259.364 843.565 259.075C843.981 258.782 844.19 258.424 844.19 258.003C844.19 257.662 844.062 257.375 843.806 257.143C843.555 256.911 843.169 256.736 842.648 256.618L840.802 256.213C839.784 255.981 839.031 255.612 838.543 255.105C838.06 254.598 837.819 253.957 837.819 253.18C837.819 252.536 837.999 251.973 838.359 251.49C838.719 251.007 839.216 250.631 839.85 250.361C840.485 250.086 841.211 249.949 842.031 249.949C843.21 249.949 844.138 250.205 844.815 250.716C845.492 251.223 845.939 251.902 846.157 252.754ZM856.88 252.754L854.955 253.095C854.874 252.849 854.747 252.615 854.571 252.392C854.401 252.17 854.169 251.987 853.875 251.845C853.582 251.703 853.215 251.632 852.775 251.632C852.173 251.632 851.671 251.767 851.269 252.037C850.866 252.302 850.665 252.645 850.665 253.067C850.665 253.431 850.8 253.725 851.07 253.947C851.34 254.17 851.775 254.352 852.377 254.494L854.11 254.892C855.114 255.124 855.862 255.482 856.354 255.964C856.846 256.447 857.093 257.075 857.093 257.847C857.093 258.5 856.903 259.082 856.525 259.594C856.15 260.1 855.627 260.498 854.955 260.787C854.287 261.076 853.513 261.22 852.632 261.22C851.411 261.22 850.414 260.96 849.642 260.439C848.871 259.913 848.397 259.168 848.222 258.202L850.275 257.889C850.402 258.424 850.665 258.829 851.063 259.104C851.461 259.374 851.979 259.509 852.618 259.509C853.314 259.509 853.871 259.364 854.287 259.075C854.704 258.782 854.912 258.424 854.912 258.003C854.912 257.662 854.784 257.375 854.529 257.143C854.278 256.911 853.892 256.736 853.371 256.618L851.525 256.213C850.507 255.981 849.754 255.612 849.266 255.105C848.783 254.598 848.542 253.957 848.542 253.18C848.542 252.536 848.721 251.973 849.081 251.49C849.441 251.007 849.938 250.631 850.573 250.361C851.207 250.086 851.934 249.949 852.753 249.949C853.932 249.949 854.86 250.205 855.537 250.716C856.214 251.223 856.662 251.902 856.88 252.754Z" fill="#505050"/>
</svg>
