<svg width="974" height="89" viewBox="0 0 974 89" fill="none" xmlns="http://www.w3.org/2000/svg">
<path d="M390 34.5C390 49.6877 377.688 62 362.5 62C347.312 62 335 49.6877 335 34.5C335 19.3123 347.312 7 362.5 7C377.688 7 390 19.3123 390 34.5Z" stroke="#1E6634" stroke-width="5" stroke-miterlimit="10"/>
<path d="M453 34.5C453 49.6877 440.688 62 425.5 62C410.312 62 398 49.6877 398 34.5C398 19.3123 410.312 7 425.5 7C440.688 7 453 19.3123 453 34.5Z" stroke="#81CC29" stroke-width="5" stroke-miterlimit="10"/>
<path d="M515 34.5C515 49.6877 502.688 62 487.5 62C472.312 62 460 49.6877 460 34.5C460 19.3123 472.312 7 487.5 7C502.688 7 515 19.3123 515 34.5Z" stroke="#F9A72D" stroke-width="5" stroke-miterlimit="10"/>
<path d="M578 34.5C578 49.6877 565.464 62 550 62C534.536 62 522 49.6877 522 34.5C522 19.3123 534.536 7 550 7C565.464 7 578 19.3123 578 34.5Z" stroke="#E13561" stroke-width="5" stroke-miterlimit="10"/>
<path d="M639 34.5C639 49.6877 626.688 62 611.5 62C596.312 62 584 49.6877 584 34.5C584 19.3123 596.312 7 611.5 7C626.688 7 639 19.3123 639 34.5Z" stroke="#BE1C2D" stroke-width="5" stroke-miterlimit="10"/>
<path d="M356 26.0003C356 28.2093 354.209 30 352 30C349.791 30 348 28.2093 348 26.0003C348 23.7913 349.791 22 352 22C354.209 22 356 23.7913 356 26.0003Z" fill="#1E6634"/>
<path d="M378 26.0003C378 28.2093 376.209 30 374 30C371.791 30 370 28.2093 370 26.0003C370 23.7913 371.791 22 374 22C376.209 22 378 23.7913 378 26.0003Z" fill="#1E6634"/>
<path d="M419 26.0003C419 28.2093 417.209 30 415 30C412.791 30 411 28.2093 411 26.0003C411 23.7913 412.791 22 415 22C417.209 22 419 23.7913 419 26.0003Z" fill="#81CC29"/>
<path d="M440 26.0003C440 28.2093 438.209 30 436 30C433.791 30 432 28.2093 432 26.0003C432 23.7913 433.791 22 436 22C438.209 22 440 23.7913 440 26.0003Z" fill="#81CC29"/>
<path d="M481 26.0003C481 28.2093 479.209 30 477 30C474.791 30 473 28.2093 473 26.0003C473 23.7913 474.791 22 477 22C479.209 22 481 23.7913 481 26.0003Z" fill="#F9A72D"/>
<path d="M502 26.0003C502 28.2093 500.433 30 498.5 30C496.567 30 495 28.2093 495 26.0003C495 23.7913 496.567 22 498.5 22C500.433 22 502 23.7913 502 26.0003Z" fill="#F9A72D"/>
<path d="M543 26.0003C543 28.2093 541.209 30 539 30C536.791 30 535 28.2093 535 26.0003C535 23.7913 536.791 22 539 22C541.209 22 543 23.7913 543 26.0003Z" fill="#E13561"/>
<path d="M565 26.0003C565 28.2093 563.209 30 561 30C558.791 30 557 28.2093 557 26.0003C557 23.7913 558.791 22 561 22C563.209 22 565 23.7913 565 26.0003Z" fill="#E13561"/>
<path d="M604 26.0003C604 28.2093 602.209 30 600 30C597.791 30 596 28.2093 596 26.0003C596 23.7913 597.791 22 600 22C602.209 22 604 23.7913 604 26.0003Z" fill="#BE1C2D"/>
<path d="M626 26.0003C626 28.2093 624.209 30 622 30C619.791 30 618 28.2093 618 26.0003C618 23.7913 619.791 22 622 22C624.209 22 626 23.7913 626 26.0003Z" fill="#BE1C2D"/>
<path d="M363.777 54H362.223C356.577 54 352 49.2819 352 43.4627V41.8903C352 41.3985 352.387 41 352.864 41H373.136C373.613 41 374 41.3985 374 41.8903V43.4627C374 49.2819 369.423 54 363.777 54Z" fill="#1E6634"/>
<path d="M610.759 36H612.241C617.631 36 622 40.3548 622 45.7266V47.1782C622 47.6321 621.631 48 621.175 48H601.825C601.37 48 601 47.6321 601 47.1782V45.7266C601 40.3548 605.369 36 610.759 36Z" fill="#BE1C2D"/>
<path d="M440.028 41.398C441.141 42.1375 441.33 43.6687 440.428 44.6448C436.749 48.6248 431.602 51 426 51C420.397 51 415.251 48.6248 411.572 44.6448C410.67 43.6687 410.858 42.1375 411.971 41.398C411.984 41.3896 411.996 41.3818 412.008 41.3735C412.924 40.7648 414.154 40.9151 414.901 41.7152C420.871 48.1103 431.128 48.1103 437.1 41.7152C437.846 40.9151 439.076 40.7648 439.992 41.3735C440.004 41.3818 440.017 41.3896 440.028 41.398Z" fill="#81CC29"/>
<path d="M536.972 48.602C535.859 47.8625 535.67 46.3313 536.572 45.3552C540.251 41.3752 545.398 39 551 39C556.603 39 561.749 41.3752 565.428 45.3552C566.33 46.3313 566.142 47.8625 565.029 48.602C565.016 48.6104 565.004 48.6182 564.992 48.6265C564.076 49.2352 562.846 49.0849 562.099 48.2848C556.129 41.8903 545.872 41.8897 539.9 48.2848C539.154 49.0849 537.924 49.2352 537.008 48.6265C536.996 48.6182 536.983 48.6104 536.972 48.602Z" fill="#E13561"/>
<path d="M497.16 48H478.84C477.824 48 477 47.3759 477 46.6063V46.3942C477 45.6241 477.824 45 478.84 45H497.16C498.176 45 499 45.6241 499 46.3942V46.6063C499 47.3759 498.176 48 497.16 48Z" fill="#F9A72D"/>
<path d="M340.604 75.2496H337.148V78.1337H341V79H336V71H340.802V71.8663H337.148V74.3948H340.604V75.2496Z" fill="#1E6634"/>
<path d="M343.196 73L343.975 74.2893C344.178 74.6238 344.348 74.9337 344.528 75.2687H344.562C344.743 74.9092 344.923 74.5993 345.104 74.2768L345.871 73H346.944L345.081 75.9012L347 79H345.871L345.07 77.6492C344.856 77.3016 344.675 76.9672 344.483 76.6077H344.46C344.28 76.9672 344.088 77.2897 343.885 77.6492L343.095 79H342L343.941 75.9382L342.09 73H343.196Z" fill="#1E6634"/>
<path d="M352.974 78.6668C352.673 78.8096 352.005 79 351.154 79C349.243 79 348 77.8214 348 76.059C348 74.2852 349.335 73 351.403 73C352.084 73 352.686 73.1543 353 73.2971L352.738 74.1068C352.463 73.964 352.031 73.8333 351.403 73.8333C349.95 73.8333 349.165 74.8094 349.165 76.0115C349.165 77.3449 350.107 78.1667 351.364 78.1667C352.018 78.1667 352.45 78.0119 352.777 77.8811L352.974 78.6668Z" fill="#1E6634"/>
<path d="M358.005 75.4474C358.016 74.7823 357.735 73.7486 356.576 73.7486C355.534 73.7486 355.077 74.7228 354.995 75.4474H358.005ZM354.984 76.196C355.007 77.6097 355.897 78.1918 356.927 78.1918C357.665 78.1918 358.11 78.0613 358.496 77.8948L358.672 78.6434C358.309 78.81 357.689 79 356.787 79C355.042 79 354 77.8358 354 76.101C354 74.3662 355.007 73 356.658 73C358.508 73 359 74.6512 359 75.709C359 75.9224 358.977 76.089 358.965 76.196H354.984Z" fill="#1E6634"/>
<path d="M360 70H362V79H360V70Z" fill="#1E6634"/>
<path d="M364 70H365V79H364V70Z" fill="#1E6634"/>
<path d="M370.806 75.4474C370.82 74.7823 370.482 73.7486 369.091 73.7486C367.841 73.7486 367.293 74.7228 367.194 75.4474H370.806ZM367.18 76.196C367.208 77.6097 368.276 78.1918 369.513 78.1918C370.398 78.1918 370.932 78.0613 371.396 77.8948L371.607 78.6434C371.171 78.81 370.426 79 369.344 79C367.251 79 366 77.8358 366 76.101C366 74.3662 367.208 73 369.19 73C371.41 73 372 74.6512 372 75.709C372 75.9224 371.972 76.089 371.958 76.196H367.18Z" fill="#1E6634"/>
<path d="M373.048 74.7209C373.048 74.1153 373.036 73.6178 373 73.1331H373.938L373.998 74.1031H374.022C374.31 73.5454 374.983 73 375.945 73C376.75 73 378 73.4847 378 75.4969V79H376.942V75.6184C376.942 74.6724 376.594 73.8847 375.596 73.8847C374.899 73.8847 374.358 74.3816 374.178 74.9755C374.13 75.1092 374.106 75.2908 374.106 75.473V79H373.048V74.7209Z" fill="#1E6634"/>
<path d="M381.683 72V73.5369H383V74.2779H381.683V77.1642C381.683 77.8275 381.861 78.2036 382.373 78.2036C382.613 78.2036 382.791 78.1705 382.906 78.1375L382.948 78.8674C382.77 78.9446 382.488 79 382.132 79C381.704 79 381.359 78.8562 381.139 78.5909C380.878 78.3032 380.784 77.8275 380.784 77.1972V74.2779H380V73.5369H380.784V72.2541L381.683 72Z" fill="#1E6634"/>
<path d="M416 78.5698C415.506 78.7322 414.532 79 413.38 79C412.088 79 411.025 78.6975 410.19 77.9648C409.455 77.314 409 76.267 409 75.0465C409.013 72.709 410.759 71 413.62 71C414.607 71 415.379 71.1977 415.746 71.3602L415.48 72.1858C415.025 71.9999 414.455 71.8486 413.594 71.8486C411.519 71.8486 410.165 73.035 410.165 75C410.165 76.9879 411.468 78.1626 413.455 78.1626C414.177 78.1626 414.671 78.0696 414.924 77.9531V75.6162H413.19V74.8023H416V78.5698Z" fill="#81CC29"/>
<path d="M419.129 76.012C419.129 77.2687 419.903 78.2174 420.994 78.2174C422.059 78.2174 422.858 77.2807 422.858 75.988C422.858 75.0158 422.338 73.7826 421.019 73.7826C419.699 73.7826 419.129 74.921 419.129 76.012ZM424 75.9526C424 78.0752 422.427 79 420.943 79C419.281 79 418 77.8616 418 76.0474C418 74.1264 419.344 73 421.044 73C422.807 73 424 74.1978 424 75.9526Z" fill="#81CC29"/>
<path d="M426.129 76.012C426.129 77.2687 426.903 78.2174 427.994 78.2174C429.059 78.2174 429.858 77.2807 429.858 75.988C429.858 75.0158 429.338 73.7826 428.019 73.7826C426.699 73.7826 426.129 74.921 426.129 76.012ZM431 75.9526C431 78.0752 429.427 79 427.943 79C426.281 79 425 77.8616 425 76.0474C425 74.1264 426.344 73 428.044 73C429.807 73 431 74.1978 431 75.9526Z" fill="#81CC29"/>
<path d="M435.993 75.6935C435.993 75.5711 435.982 75.4049 435.95 75.283C435.807 74.6614 435.282 74.1509 434.56 74.1509C433.564 74.1509 432.973 75.0387 432.973 76.2259C432.973 77.3131 433.499 78.2121 434.538 78.2121C435.184 78.2121 435.775 77.7792 435.95 77.0469C435.982 76.9138 435.993 76.7807 435.993 76.6252V75.6935ZM436.956 71V77.4911C436.956 77.9679 436.967 78.5114 437 78.8776H436.136L436.092 77.9459H436.07C435.775 78.5451 435.129 79 434.265 79C432.985 79 432 77.9016 432 76.2703C431.989 74.4839 433.083 73.3855 434.374 73.3855C435.184 73.3855 435.731 73.7736 435.971 74.2065H435.993V71H436.956Z" fill="#81CC29"/>
<path d="M475.666 75.4869C475.6 74.3713 475.522 73.0299 475.535 72.0327H475.496C475.195 72.9704 474.828 73.9676 474.384 75.0712L472.827 78.9525H471.963L470.538 75.1427C470.119 74.0151 469.766 72.9824 469.517 72.0327H469.491C469.465 73.0299 469.4 74.3713 469.321 75.5698L469.085 79H468L468.614 71H470.066L471.571 74.8693C471.938 75.8545 472.238 76.7334 472.461 77.5642H472.5C472.722 76.7569 473.037 75.8786 473.429 74.8693L474.998 71H476.451L477 79H475.888L475.666 75.4869Z" fill="#F9A72D"/>
<path d="M482.004 76.4474C482.016 75.7823 481.735 74.7486 480.576 74.7486C479.534 74.7486 479.077 75.7228 478.995 76.4474H482.004ZM478.984 77.196C479.007 78.6097 479.897 79.1918 480.928 79.1918C481.665 79.1918 482.11 79.0613 482.496 78.8954L482.672 79.6434C482.309 79.81 481.689 80 480.787 80C479.042 80 478 78.8358 478 77.101C478 75.3662 479.007 74 480.658 74C482.508 74 483 75.6512 483 76.709C483 76.923 482.976 77.089 482.965 77.196H478.984Z" fill="#F9A72D"/>
<path d="M489.591 76.2802C489.591 76.1425 489.576 75.9555 489.529 75.8184C489.331 75.1191 488.595 74.5448 487.584 74.5448C486.19 74.5448 485.363 75.5436 485.363 76.8791C485.363 78.1028 486.098 79.1136 487.554 79.1136C488.457 79.1136 489.284 78.6266 489.529 77.8028C489.576 77.653 489.591 77.5033 489.591 77.3283V76.2802ZM490.939 71V78.3025C490.939 78.8388 490.954 79.4504 491 79.8623H489.79L489.729 78.8142H489.698C489.284 79.4883 488.381 80 487.171 80C485.379 80 484 78.7643 484 76.929C483.985 74.9194 485.517 73.6837 487.324 73.6837C488.457 73.6837 489.223 74.1209 489.56 74.6073H489.591V71H490.939Z" fill="#F9A72D"/>
<path d="M492.101 79V73.2638H492.908V79H492.101ZM493 71.652C493.009 72.0077 492.807 72.292 492.486 72.292C492.202 72.292 492 72.0077 492 71.652C492 71.2849 492.211 71 492.504 71C492.807 71 493 71.2849 493 71.652Z" fill="#F9A72D"/>
<path d="M500.942 78.2664C500.942 78.8725 500.957 79.4062 501 79.8663H499.864L499.791 78.9093H499.762C499.427 79.3817 498.684 80 497.432 80C496.325 80 495 79.4909 495 77.4303V74H496.281V77.2487C496.281 78.3634 496.689 79.1148 497.854 79.1148C498.714 79.1148 499.311 78.6179 499.543 78.1456C499.616 77.9879 499.66 77.7941 499.66 77.6002V74H500.942V78.2664Z" fill="#F9A72D"/>
<path d="M502.052 75.4346C502.052 74.9294 502.039 74.5153 502 74.1109H502.997L503.049 74.8988H503.088C503.438 74.4346 504.02 74 505.056 74C505.911 74 506.558 74.4039 506.83 74.9801H506.856C507.05 74.7071 507.297 74.4949 507.555 74.3436C507.931 74.1212 508.345 74 508.941 74C509.77 74 511 74.4243 511 76.1212V79H509.886V76.2326C509.886 75.2929 509.446 74.7275 508.527 74.7275C507.879 74.7275 507.374 75.1012 507.18 75.5353C507.128 75.6564 507.089 75.8185 507.089 75.9801V79H505.975V76.0706C505.975 75.2929 505.535 74.7275 504.668 74.7275C503.956 74.7275 503.438 75.1718 503.256 75.6161C503.191 75.7474 503.166 75.8993 503.166 76.0506V79H502.052V75.4346Z" fill="#F9A72D"/>
<path d="M541.048 75.9824C541.277 76.0414 541.566 76.0647 541.915 76.0647C543.181 76.0647 543.952 75.4643 543.952 74.3683C543.952 73.3195 543.193 72.8133 542.036 72.8133C541.578 72.8133 541.229 72.8485 541.048 72.8956V75.9824ZM540 72.1532C540.506 72.071 541.168 72 542.012 72C543.049 72 543.807 72.2361 544.29 72.6601C544.735 73.0369 545 73.6141 545 74.3212C545 75.0397 544.784 75.6056 544.374 76.0176C543.819 76.5948 542.916 76.8893 541.892 76.8893C541.578 76.8893 541.289 76.878 541.048 76.819V80H540V72.1532Z" fill="#E13561"/>
<path d="M547.129 77.012C547.129 78.2687 547.903 79.2174 548.994 79.2174C550.059 79.2174 550.859 78.2807 550.859 76.988C550.859 76.0158 550.339 74.7826 549.019 74.7826C547.7 74.7826 547.129 75.921 547.129 77.012ZM552 76.9526C552 79.0752 550.427 80 548.943 80C547.281 80 546 78.8616 546 77.0474C546 75.1264 547.345 74 549.044 74C550.808 74 552 75.1978 552 76.9526Z" fill="#E13561"/>
<path d="M554.129 77.012C554.129 78.2687 554.903 79.2174 555.994 79.2174C557.059 79.2174 557.859 78.2807 557.859 76.988C557.859 76.0158 557.339 74.7826 556.019 74.7826C554.7 74.7826 554.129 75.921 554.129 77.012ZM559 76.9526C559 79.0752 557.427 80 555.943 80C554.281 80 553 78.8616 553 77.0474C553 75.1264 554.345 74 556.044 74C557.808 74 559 75.1978 559 76.9526Z" fill="#E13561"/>
<path d="M560.049 75.9636C560.049 75.2729 560.037 74.6791 560 74.1331H560.95L560.988 75.2845H561.037C561.308 74.4969 561.963 74 562.691 74C562.815 74 562.901 74.0123 563 74.0362V75.0422C562.889 75.0183 562.778 75.006 562.63 75.006C561.864 75.006 561.321 75.5759 561.173 76.3758C561.148 76.5212 561.124 76.6905 561.124 76.8727V80H560.049V75.9636Z" fill="#E13561"/>
<path d="M595.764 79L593 71H594.181L595.501 74.9408C595.865 76.021 596.18 76.9941 596.406 77.9319H596.431C596.67 77.0062 597.021 75.9969 597.398 74.9528L598.832 71H600L596.971 79H595.764Z" fill="#BE1C2D"/>
<path d="M604.806 75.4474C604.82 74.7823 604.482 73.7486 603.091 73.7486C601.841 73.7486 601.292 74.7228 601.194 75.4474H604.806ZM601.18 76.196C601.208 77.6097 602.276 78.1918 603.513 78.1918C604.398 78.1918 604.932 78.0613 605.396 77.8948L605.607 78.6434C605.171 78.81 604.426 79 603.344 79C601.25 79 600 77.8358 600 76.101C600 74.3662 601.208 73 603.19 73C605.41 73 606 74.6512 606 75.709C606 75.9224 605.972 76.089 605.958 76.196H601.18Z" fill="#BE1C2D"/>
<path d="M607.049 74.9638C607.049 74.2724 607.037 73.6785 607 73.1331H607.95L607.987 74.2847H608.037C608.308 73.4969 608.963 73 609.691 73C609.815 73 609.901 73.0123 610 73.0362V74.0423C609.889 74.0178 609.778 74.0061 609.629 74.0061C608.864 74.0061 608.321 74.5755 608.173 75.3755C608.148 75.5215 608.124 75.6908 608.124 75.873V79H607.049V74.9638Z" fill="#BE1C2D"/>
<path d="M612.266 73L613.664 76.651C613.808 77.0594 613.967 77.5446 614.073 77.9148H614.099C614.218 77.5446 614.349 77.0723 614.507 76.6258L615.773 73H617L615.259 77.4044C614.428 79.5235 613.861 80.6083 613.07 81.2725C612.503 81.7577 611.936 81.949 611.646 82L611.356 81.0554C611.646 80.9663 612.028 80.7873 612.372 80.5062C612.688 80.264 613.084 79.8298 613.347 79.2554C613.4 79.1404 613.439 79.0513 613.439 78.9873C613.439 78.9233 613.413 78.8342 613.361 78.694L611 73H612.266Z" fill="#BE1C2D"/>
<path d="M621.228 78.1589C621.468 78.1938 621.821 78.2056 622.259 78.2056C623.53 78.2056 624.702 77.8202 624.702 76.676C624.702 75.6014 623.586 75.1575 622.245 75.1575H621.228V78.1589ZM621.228 74.3868H622.344C623.643 74.3868 624.405 73.8265 624.405 73.0669C624.405 72.1449 623.558 71.7826 622.315 71.7826C621.751 71.7826 621.426 71.8174 621.228 71.8529V74.3868ZM620 71.1637C620.537 71.0703 621.383 71 622.245 71C623.473 71 624.264 71.1755 624.857 71.5721C625.351 71.876 625.647 72.3429 625.647 72.9623C625.647 73.7212 625.04 74.3868 624.038 74.6906V74.7136C624.941 74.901 626 75.5198 626 76.6878C626 77.3651 625.676 77.8788 625.195 78.2641C624.532 78.7665 623.459 79 621.906 79C621.059 79 620.409 78.9533 620 78.9066V71.1637Z" fill="#BE1C2D"/>
<path d="M630.796 75.9406C629.552 75.9166 628.14 76.1182 628.14 77.2332C628.14 77.909 628.632 78.2288 629.215 78.2288C630.031 78.2288 630.549 77.7548 630.731 77.2687C630.769 77.1618 630.796 77.043 630.796 76.9368V75.9406ZM630.964 78.8692L630.873 78.146H630.834C630.485 78.5967 629.811 79 628.917 79C627.647 79 627 78.1814 627 77.3515C627 75.964 628.347 75.2054 630.769 75.2174V75.0986C630.769 74.6245 630.627 73.7706 629.345 73.7706C628.762 73.7706 628.153 73.9368 627.712 74.1972L627.453 73.5095C627.971 73.2016 628.722 73 629.513 73C631.43 73 631.896 74.1972 631.896 75.3477V77.4937C631.896 77.9918 631.923 78.4779 632 78.8692H630.964Z" fill="#BE1C2D"/>
<path d="M637.792 75.2802C637.792 75.1425 637.779 74.9555 637.74 74.8184C637.569 74.1191 636.939 73.5448 636.072 73.5448C634.878 73.5448 634.169 74.5436 634.169 75.8791C634.169 77.1022 634.799 78.1136 636.046 78.1136C636.821 78.1136 637.53 77.6266 637.74 76.8027C637.779 76.653 637.792 76.5033 637.792 76.3283V75.2802ZM638.948 70V77.3018C638.948 77.8388 638.961 78.4504 639 78.8623H637.963L637.91 77.8142H637.884C637.53 78.4883 636.755 79 635.718 79C634.181 79 633 77.7643 633 75.929C632.987 73.9194 634.3 72.6837 635.849 72.6837C636.821 72.6837 637.477 73.1202 637.765 73.6073H637.792V70H638.948Z" fill="#BE1C2D"/>
</svg>
