<svg width="3419" height="313" viewBox="0 0 3419 313" fill="none" xmlns="http://www.w3.org/2000/svg">
<path d="M1140 33H1208C1214.47 33 1219.12 33.0042 1222.66 33.4801C1226.14 33.9482 1228.24 34.8394 1229.8 36.3976C1231.36 37.9557 1232.25 40.0619 1232.72 43.5436C1233.2 47.0828 1233.2 51.7323 1233.2 58.1999V117.4H1114.8V58.1999C1114.8 51.7323 1114.8 47.0828 1115.28 43.5436C1115.75 40.0619 1116.64 37.9557 1118.2 36.3976C1119.76 34.8394 1121.86 33.9482 1125.34 33.4801C1128.88 33.0042 1133.53 33 1140 33Z" stroke="#1B1B1B" stroke-width="4"/>
<path d="M1230.67 117.4H1117.33C1113.73 117.4 1110.8 120.325 1110.8 123.934C1110.8 130.046 1115.76 135 1121.87 135H1226.13C1232.25 135 1237.2 130.046 1237.2 123.934C1237.2 120.325 1234.27 117.4 1230.67 117.4Z" stroke="#1B1B1B" stroke-width="4"/>
<rect x="1095" y="165" width="158" height="46" rx="23" fill="#FBBF7D"/>
<path d="M1119.52 198L1113.87 177.636H1117.11L1121.07 193.406H1121.26L1125.39 177.636H1128.59L1132.72 193.416H1132.9L1136.86 177.636H1140.1L1134.45 198H1131.35L1127.07 182.747H1126.91L1122.62 198H1119.52ZM1147.75 198.308C1146.24 198.308 1144.94 197.987 1143.86 197.344C1142.78 196.694 1141.94 195.783 1141.35 194.609C1140.77 193.429 1140.48 192.047 1140.48 190.463C1140.48 188.899 1140.77 187.52 1141.35 186.327C1141.94 185.134 1142.76 184.202 1143.82 183.533C1144.88 182.863 1146.12 182.528 1147.54 182.528C1148.4 182.528 1149.23 182.671 1150.04 182.956C1150.85 183.241 1151.58 183.688 1152.22 184.298C1152.86 184.908 1153.37 185.7 1153.74 186.675C1154.11 187.643 1154.3 188.819 1154.3 190.205V191.259H1142.16V189.031H1151.38C1151.38 188.249 1151.23 187.556 1150.91 186.953C1150.59 186.343 1150.14 185.863 1149.56 185.511C1148.99 185.16 1148.33 184.984 1147.56 184.984C1146.72 184.984 1145.99 185.19 1145.37 185.601C1144.75 186.005 1144.27 186.536 1143.94 187.192C1143.61 187.841 1143.44 188.547 1143.44 189.31V191.05C1143.44 192.071 1143.62 192.939 1143.98 193.655C1144.34 194.371 1144.85 194.918 1145.5 195.295C1146.15 195.667 1146.91 195.852 1147.77 195.852C1148.34 195.852 1148.85 195.773 1149.32 195.614C1149.78 195.448 1150.18 195.203 1150.52 194.878C1150.86 194.553 1151.12 194.152 1151.29 193.675L1154.11 194.182C1153.88 195.01 1153.48 195.736 1152.9 196.359C1152.32 196.976 1151.59 197.456 1150.72 197.801C1149.85 198.139 1148.86 198.308 1147.75 198.308ZM1157.83 198V177.636H1160.81V185.203H1160.99C1161.16 184.885 1161.41 184.517 1161.73 184.099C1162.06 183.682 1162.51 183.317 1163.08 183.006C1163.66 182.688 1164.42 182.528 1165.37 182.528C1166.6 182.528 1167.71 182.84 1168.67 183.463C1169.64 184.086 1170.4 184.984 1170.95 186.158C1171.51 187.331 1171.79 188.743 1171.79 190.393C1171.79 192.044 1171.51 193.459 1170.96 194.639C1170.41 195.812 1169.65 196.717 1168.69 197.354C1167.73 197.983 1166.63 198.298 1165.4 198.298C1164.47 198.298 1163.71 198.143 1163.12 197.831C1162.54 197.519 1162.08 197.155 1161.75 196.737C1161.42 196.32 1161.17 195.948 1160.99 195.624H1160.74V198H1157.83ZM1160.75 190.364C1160.75 191.437 1160.9 192.379 1161.22 193.188C1161.53 193.996 1161.98 194.629 1162.57 195.087C1163.16 195.537 1163.88 195.763 1164.74 195.763C1165.62 195.763 1166.37 195.527 1166.96 195.057C1167.56 194.58 1168.01 193.933 1168.31 193.118C1168.63 192.303 1168.78 191.384 1168.78 190.364C1168.78 189.356 1168.63 188.451 1168.32 187.649C1168.03 186.847 1167.58 186.214 1166.97 185.75C1166.38 185.286 1165.63 185.054 1164.74 185.054C1163.87 185.054 1163.14 185.276 1162.55 185.72C1161.96 186.164 1161.51 186.784 1161.21 187.58C1160.9 188.375 1160.75 189.303 1160.75 190.364ZM1184.49 198H1181.23L1188.56 177.636H1192.11L1199.44 198H1196.18L1190.42 181.335H1190.26L1184.49 198ZM1185.04 190.026H1195.62V192.611H1185.04V190.026ZM1202.14 203.727V182.727H1205.04V185.203H1205.29C1205.46 184.885 1205.71 184.517 1206.04 184.099C1206.36 183.682 1206.81 183.317 1207.39 183.006C1207.97 182.688 1208.73 182.528 1209.68 182.528C1210.91 182.528 1212.01 182.84 1212.98 183.463C1213.95 184.086 1214.7 184.984 1215.25 186.158C1215.81 187.331 1216.09 188.743 1216.09 190.393C1216.09 192.044 1215.81 193.459 1215.26 194.639C1214.71 195.812 1213.96 196.717 1213 197.354C1212.04 197.983 1210.94 198.298 1209.71 198.298C1208.78 198.298 1208.02 198.143 1207.43 197.831C1206.85 197.519 1206.39 197.155 1206.06 196.737C1205.73 196.32 1205.47 195.948 1205.29 195.624H1205.11V203.727H1202.14ZM1205.05 190.364C1205.05 191.437 1205.21 192.379 1205.52 193.188C1205.83 193.996 1206.28 194.629 1206.87 195.087C1207.46 195.537 1208.18 195.763 1209.04 195.763C1209.93 195.763 1210.67 195.527 1211.27 195.057C1211.86 194.58 1212.31 193.933 1212.62 193.118C1212.93 192.303 1213.09 191.384 1213.09 190.364C1213.09 189.356 1212.93 188.451 1212.63 187.649C1212.33 186.847 1211.88 186.214 1211.28 185.75C1210.68 185.286 1209.93 185.054 1209.04 185.054C1208.18 185.054 1207.45 185.276 1206.85 185.72C1206.26 186.164 1205.81 186.784 1205.51 187.58C1205.21 188.375 1205.05 189.303 1205.05 190.364ZM1219.42 203.727V182.727H1222.32V185.203H1222.57C1222.74 184.885 1222.99 184.517 1223.32 184.099C1223.64 183.682 1224.09 183.317 1224.67 183.006C1225.25 182.688 1226.01 182.528 1226.96 182.528C1228.19 182.528 1229.29 182.84 1230.26 183.463C1231.23 184.086 1231.99 184.984 1232.54 186.158C1233.09 187.331 1233.37 188.743 1233.37 190.393C1233.37 192.044 1233.1 193.459 1232.55 194.639C1232 195.812 1231.24 196.717 1230.28 197.354C1229.32 197.983 1228.22 198.298 1226.99 198.298C1226.06 198.298 1225.3 198.143 1224.71 197.831C1224.13 197.519 1223.67 197.155 1223.34 196.737C1223.01 196.32 1222.75 195.948 1222.57 195.624H1222.39V203.727H1219.42ZM1222.33 190.364C1222.33 191.437 1222.49 192.379 1222.8 193.188C1223.11 193.996 1223.56 194.629 1224.15 195.087C1224.74 195.537 1225.47 195.763 1226.32 195.763C1227.21 195.763 1227.95 195.527 1228.55 195.057C1229.14 194.58 1229.6 193.933 1229.9 193.118C1230.21 192.303 1230.37 191.384 1230.37 190.364C1230.37 189.356 1230.22 188.451 1229.91 187.649C1229.61 186.847 1229.16 186.214 1228.56 185.75C1227.96 185.286 1227.22 185.054 1226.32 185.054C1225.46 185.054 1224.73 185.276 1224.13 185.72C1223.54 186.164 1223.1 186.784 1222.79 187.58C1222.49 188.375 1222.33 189.303 1222.33 190.364Z" fill="white"/>
<path d="M1089.93 274V250.727H1098.45C1100.11 250.727 1101.47 251 1102.56 251.545C1103.64 252.083 1104.45 252.814 1104.99 253.739C1105.53 254.655 1105.8 255.689 1105.8 256.841C1105.8 257.811 1105.62 258.629 1105.26 259.295C1104.91 259.955 1104.43 260.485 1103.83 260.886C1103.24 261.28 1102.59 261.568 1101.88 261.75V261.977C1102.65 262.015 1103.4 262.265 1104.14 262.727C1104.88 263.182 1105.49 263.83 1105.98 264.67C1106.46 265.511 1106.7 266.534 1106.7 267.739C1106.7 268.928 1106.42 269.996 1105.86 270.943C1105.31 271.883 1104.45 272.629 1103.3 273.182C1102.14 273.727 1100.66 274 1098.85 274H1089.93ZM1093.44 270.989H1098.51C1100.19 270.989 1101.4 270.663 1102.12 270.011C1102.85 269.36 1103.22 268.545 1103.22 267.568C1103.22 266.833 1103.03 266.159 1102.66 265.545C1102.29 264.932 1101.76 264.443 1101.07 264.08C1100.39 263.716 1099.58 263.534 1098.64 263.534H1093.44V270.989ZM1093.44 260.795H1098.15C1098.94 260.795 1099.64 260.644 1100.27 260.341C1100.91 260.038 1101.41 259.614 1101.78 259.068C1102.16 258.515 1102.35 257.864 1102.35 257.114C1102.35 256.152 1102.02 255.345 1101.34 254.693C1100.67 254.042 1099.63 253.716 1098.24 253.716H1093.44V260.795ZM1121.65 266.761V256.545H1125.06V274H1121.72V270.977H1121.54C1121.14 271.909 1120.49 272.686 1119.61 273.307C1118.73 273.92 1117.63 274.227 1116.32 274.227C1115.2 274.227 1114.21 273.981 1113.35 273.489C1112.49 272.989 1111.82 272.25 1111.32 271.273C1110.84 270.295 1110.6 269.087 1110.6 267.648V256.545H1113.99V267.239C1113.99 268.428 1114.32 269.375 1114.98 270.08C1115.64 270.784 1116.5 271.136 1117.55 271.136C1118.19 271.136 1118.82 270.977 1119.45 270.659C1120.09 270.341 1120.61 269.86 1121.03 269.216C1121.45 268.572 1121.66 267.754 1121.65 266.761ZM1142.71 260.807L1139.63 261.352C1139.5 260.958 1139.29 260.583 1139.01 260.227C1138.74 259.871 1138.37 259.58 1137.9 259.352C1137.43 259.125 1136.84 259.011 1136.14 259.011C1135.18 259.011 1134.37 259.227 1133.73 259.659C1133.09 260.083 1132.76 260.633 1132.76 261.307C1132.76 261.89 1132.98 262.36 1133.41 262.716C1133.84 263.072 1134.54 263.364 1135.5 263.591L1138.28 264.227C1139.88 264.598 1141.08 265.17 1141.87 265.943C1142.65 266.716 1143.05 267.72 1143.05 268.955C1143.05 270 1142.75 270.932 1142.14 271.75C1141.54 272.561 1140.7 273.197 1139.63 273.659C1138.56 274.121 1137.32 274.352 1135.91 274.352C1133.96 274.352 1132.36 273.936 1131.13 273.102C1129.89 272.261 1129.14 271.068 1128.86 269.523L1132.14 269.023C1132.34 269.879 1132.76 270.527 1133.4 270.966C1134.04 271.398 1134.87 271.614 1135.89 271.614C1137 271.614 1137.89 271.383 1138.56 270.92C1139.23 270.451 1139.56 269.879 1139.56 269.205C1139.56 268.659 1139.36 268.201 1138.95 267.83C1138.54 267.458 1137.93 267.178 1137.09 266.989L1134.14 266.341C1132.51 265.97 1131.31 265.379 1130.53 264.568C1129.75 263.758 1129.37 262.731 1129.37 261.489C1129.37 260.458 1129.65 259.557 1130.23 258.784C1130.81 258.011 1131.6 257.409 1132.62 256.977C1133.63 256.538 1134.79 256.318 1136.11 256.318C1137.99 256.318 1139.48 256.727 1140.56 257.545C1141.64 258.356 1142.36 259.443 1142.71 260.807ZM1146.78 274V256.545H1150.18V274H1146.78ZM1148.5 253.852C1147.91 253.852 1147.4 253.655 1146.98 253.261C1146.56 252.86 1146.35 252.383 1146.35 251.83C1146.35 251.269 1146.56 250.792 1146.98 250.398C1147.4 249.996 1147.91 249.795 1148.5 249.795C1149.09 249.795 1149.59 249.996 1150.01 250.398C1150.44 250.792 1150.65 251.269 1150.65 251.83C1150.65 252.383 1150.44 252.86 1150.01 253.261C1149.59 253.655 1149.09 253.852 1148.5 253.852ZM1158.15 263.636V274H1154.75V256.545H1158.01V259.386H1158.23C1158.63 258.462 1159.26 257.72 1160.12 257.159C1160.98 256.598 1162.07 256.318 1163.38 256.318C1164.57 256.318 1165.61 256.568 1166.5 257.068C1167.4 257.561 1168.09 258.295 1168.58 259.273C1169.07 260.25 1169.32 261.458 1169.32 262.898V274H1165.92V263.307C1165.92 262.042 1165.59 261.053 1164.93 260.341C1164.28 259.621 1163.37 259.261 1162.22 259.261C1161.43 259.261 1160.73 259.432 1160.12 259.773C1159.51 260.114 1159.03 260.614 1158.67 261.273C1158.32 261.924 1158.15 262.712 1158.15 263.636ZM1181.4 274.352C1179.68 274.352 1178.2 273.985 1176.96 273.25C1175.72 272.508 1174.77 271.466 1174.09 270.125C1173.43 268.777 1173.09 267.197 1173.09 265.386C1173.09 263.598 1173.43 262.023 1174.09 260.659C1174.77 259.295 1175.71 258.231 1176.91 257.466C1178.12 256.701 1179.54 256.318 1181.16 256.318C1182.15 256.318 1183.1 256.481 1184.03 256.807C1184.95 257.133 1185.78 257.644 1186.51 258.341C1187.25 259.038 1187.83 259.943 1188.25 261.057C1188.68 262.163 1188.89 263.508 1188.89 265.091V266.295H1175.01V263.75H1185.56C1185.56 262.856 1185.38 262.064 1185.01 261.375C1184.65 260.678 1184.14 260.129 1183.48 259.727C1182.83 259.326 1182.06 259.125 1181.18 259.125C1180.23 259.125 1179.4 259.36 1178.68 259.83C1177.98 260.292 1177.43 260.898 1177.05 261.648C1176.67 262.39 1176.48 263.197 1176.48 264.068V266.057C1176.48 267.223 1176.68 268.216 1177.09 269.034C1177.51 269.852 1178.09 270.477 1178.83 270.909C1179.57 271.333 1180.44 271.545 1181.43 271.545C1182.08 271.545 1182.67 271.455 1183.2 271.273C1183.73 271.083 1184.18 270.803 1184.57 270.432C1184.96 270.061 1185.25 269.602 1185.46 269.057L1188.67 269.636C1188.42 270.583 1187.95 271.413 1187.29 272.125C1186.63 272.83 1185.8 273.379 1184.8 273.773C1183.81 274.159 1182.67 274.352 1181.4 274.352ZM1205.74 260.807L1202.66 261.352C1202.53 260.958 1202.33 260.583 1202.05 260.227C1201.77 259.871 1201.4 259.58 1200.93 259.352C1200.46 259.125 1199.88 259.011 1199.17 259.011C1198.21 259.011 1197.41 259.227 1196.76 259.659C1196.12 260.083 1195.8 260.633 1195.8 261.307C1195.8 261.89 1196.01 262.36 1196.44 262.716C1196.88 263.072 1197.57 263.364 1198.53 263.591L1201.31 264.227C1202.91 264.598 1204.11 265.17 1204.9 265.943C1205.69 266.716 1206.08 267.72 1206.08 268.955C1206.08 270 1205.78 270.932 1205.17 271.75C1204.57 272.561 1203.73 273.197 1202.66 273.659C1201.59 274.121 1200.35 274.352 1198.94 274.352C1196.99 274.352 1195.39 273.936 1194.16 273.102C1192.92 272.261 1192.17 271.068 1191.89 269.523L1195.17 269.023C1195.38 269.879 1195.8 270.527 1196.43 270.966C1197.07 271.398 1197.9 271.614 1198.92 271.614C1200.03 271.614 1200.92 271.383 1201.59 270.92C1202.26 270.451 1202.59 269.879 1202.59 269.205C1202.59 268.659 1202.39 268.201 1201.98 267.83C1201.58 267.458 1200.96 267.178 1200.12 266.989L1197.17 266.341C1195.54 265.97 1194.34 265.379 1193.56 264.568C1192.78 263.758 1192.4 262.731 1192.4 261.489C1192.4 260.458 1192.69 259.557 1193.26 258.784C1193.84 258.011 1194.63 257.409 1195.65 256.977C1196.66 256.538 1197.83 256.318 1199.14 256.318C1201.02 256.318 1202.51 256.727 1203.59 257.545C1204.67 258.356 1205.39 259.443 1205.74 260.807ZM1222.89 260.807L1219.82 261.352C1219.69 260.958 1219.48 260.583 1219.2 260.227C1218.93 259.871 1218.56 259.58 1218.09 259.352C1217.62 259.125 1217.03 259.011 1216.33 259.011C1215.36 259.011 1214.56 259.227 1213.92 259.659C1213.27 260.083 1212.95 260.633 1212.95 261.307C1212.95 261.89 1213.17 262.36 1213.6 262.716C1214.03 263.072 1214.73 263.364 1215.69 263.591L1218.46 264.227C1220.07 264.598 1221.27 265.17 1222.05 265.943C1222.84 266.716 1223.24 267.72 1223.24 268.955C1223.24 270 1222.93 270.932 1222.33 271.75C1221.73 272.561 1220.89 273.197 1219.82 273.659C1218.75 274.121 1217.51 274.352 1216.1 274.352C1214.14 274.352 1212.55 273.936 1211.32 273.102C1210.08 272.261 1209.32 271.068 1209.04 269.523L1212.33 269.023C1212.53 269.879 1212.95 270.527 1213.59 270.966C1214.22 271.398 1215.05 271.614 1216.08 271.614C1217.19 271.614 1218.08 271.383 1218.75 270.92C1219.41 270.451 1219.75 269.879 1219.75 269.205C1219.75 268.659 1219.54 268.201 1219.13 267.83C1218.73 267.458 1218.11 267.178 1217.28 266.989L1214.33 266.341C1212.7 265.97 1211.49 265.379 1210.71 264.568C1209.94 263.758 1209.55 262.731 1209.55 261.489C1209.55 260.458 1209.84 259.557 1210.42 258.784C1210.99 258.011 1211.79 257.409 1212.8 256.977C1213.82 256.538 1214.98 256.318 1216.29 256.318C1218.18 256.318 1219.66 256.727 1220.75 257.545C1221.83 258.356 1222.55 259.443 1222.89 260.807ZM1234.49 274.352C1232.77 274.352 1231.29 273.985 1230.05 273.25C1228.82 272.508 1227.86 271.466 1227.19 270.125C1226.52 268.777 1226.19 267.197 1226.19 265.386C1226.19 263.598 1226.52 262.023 1227.19 260.659C1227.86 259.295 1228.8 258.231 1230.01 257.466C1231.22 256.701 1232.63 256.318 1234.26 256.318C1235.24 256.318 1236.2 256.481 1237.12 256.807C1238.04 257.133 1238.87 257.644 1239.61 258.341C1240.34 259.038 1240.92 259.943 1241.35 261.057C1241.77 262.163 1241.98 263.508 1241.98 265.091V266.295H1228.11V263.75H1238.65C1238.65 262.856 1238.47 262.064 1238.11 261.375C1237.74 260.678 1237.23 260.129 1236.57 259.727C1235.92 259.326 1235.16 259.125 1234.28 259.125C1233.32 259.125 1232.49 259.36 1231.78 259.83C1231.07 260.292 1230.53 260.898 1230.14 261.648C1229.76 262.39 1229.57 263.197 1229.57 264.068V266.057C1229.57 267.223 1229.78 268.216 1230.19 269.034C1230.6 269.852 1231.18 270.477 1231.93 270.909C1232.67 271.333 1233.54 271.545 1234.53 271.545C1235.17 271.545 1235.76 271.455 1236.29 271.273C1236.82 271.083 1237.28 270.803 1237.66 270.432C1238.05 270.061 1238.35 269.602 1238.55 269.057L1241.77 269.636C1241.51 270.583 1241.05 271.413 1240.38 272.125C1239.72 272.83 1238.89 273.379 1237.89 273.773C1236.9 274.159 1235.77 274.352 1234.49 274.352ZM1258.83 260.807L1255.75 261.352C1255.62 260.958 1255.42 260.583 1255.14 260.227C1254.87 259.871 1254.5 259.58 1254.03 259.352C1253.56 259.125 1252.97 259.011 1252.26 259.011C1251.3 259.011 1250.5 259.227 1249.86 259.659C1249.21 260.083 1248.89 260.633 1248.89 261.307C1248.89 261.89 1249.11 262.36 1249.54 262.716C1249.97 263.072 1250.67 263.364 1251.63 263.591L1254.4 264.227C1256.01 264.598 1257.2 265.17 1257.99 265.943C1258.78 266.716 1259.17 267.72 1259.17 268.955C1259.17 270 1258.87 270.932 1258.26 271.75C1257.67 272.561 1256.83 273.197 1255.75 273.659C1254.68 274.121 1253.45 274.352 1252.04 274.352C1250.08 274.352 1248.49 273.936 1247.25 273.102C1246.02 272.261 1245.26 271.068 1244.98 269.523L1248.26 269.023C1248.47 269.879 1248.89 270.527 1249.53 270.966C1250.16 271.398 1250.99 271.614 1252.01 271.614C1253.13 271.614 1254.02 271.383 1254.68 270.92C1255.35 270.451 1255.68 269.879 1255.68 269.205C1255.68 268.659 1255.48 268.201 1255.07 267.83C1254.67 267.458 1254.05 267.178 1253.22 266.989L1250.26 266.341C1248.64 265.97 1247.43 265.379 1246.65 264.568C1245.88 263.758 1245.49 262.731 1245.49 261.489C1245.49 260.458 1245.78 259.557 1246.36 258.784C1246.93 258.011 1247.73 257.409 1248.74 256.977C1249.76 256.538 1250.92 256.318 1252.23 256.318C1254.12 256.318 1255.6 256.727 1256.68 257.545C1257.77 258.356 1258.48 259.443 1258.83 260.807Z" fill="#505050"/>
<path d="M1484.5 33H1552.5C1558.97 33 1563.62 33.0042 1567.16 33.4801C1570.64 33.9482 1572.74 34.8394 1574.3 36.3976C1575.86 37.9557 1576.75 40.0619 1577.22 43.5436C1577.7 47.0828 1577.7 51.7324 1577.7 58.2V117.4H1459.3V58.2C1459.3 51.7324 1459.3 47.0828 1459.78 43.5436C1460.25 40.0619 1461.14 37.9557 1462.7 36.3976C1464.26 34.8394 1466.36 33.9482 1469.84 33.4801C1473.38 33.0042 1478.03 33 1484.5 33Z" stroke="#1B1B1B" stroke-width="4"/>
<path d="M1575.17 117.4H1461.83C1458.22 117.4 1455.3 120.325 1455.3 123.934C1455.3 130.046 1460.25 135 1466.37 135H1570.63C1576.75 135 1581.7 130.046 1581.7 123.934C1581.7 120.325 1578.77 117.4 1575.17 117.4Z" stroke="#1B1B1B" stroke-width="4"/>
<rect x="1446" y="165" width="145" height="46" rx="23" fill="#FBBF7D"/>
<path d="M1470.47 198L1464.83 177.636H1468.06L1472.03 193.406H1472.21L1476.34 177.636H1479.54L1483.67 193.416H1483.86L1487.82 177.636H1491.06L1485.4 198H1482.31L1478.02 182.747H1477.86L1473.58 198H1470.47ZM1498.7 198.308C1497.19 198.308 1495.9 197.987 1494.81 197.344C1493.73 196.694 1492.89 195.783 1492.3 194.609C1491.72 193.429 1491.43 192.047 1491.43 190.463C1491.43 188.899 1491.72 187.52 1492.3 186.327C1492.89 185.134 1493.72 184.202 1494.77 183.533C1495.83 182.863 1497.07 182.528 1498.49 182.528C1499.35 182.528 1500.19 182.671 1501 182.956C1501.8 183.241 1502.53 183.688 1503.17 184.298C1503.82 184.908 1504.32 185.7 1504.69 186.675C1505.07 187.643 1505.25 188.819 1505.25 190.205V191.259H1493.11V189.031H1502.34C1502.34 188.249 1502.18 187.556 1501.86 186.953C1501.54 186.343 1501.09 185.863 1500.52 185.511C1499.95 185.16 1499.28 184.984 1498.51 184.984C1497.67 184.984 1496.94 185.19 1496.32 185.601C1495.71 186.005 1495.23 186.536 1494.89 187.192C1494.56 187.841 1494.39 188.547 1494.39 189.31V191.05C1494.39 192.071 1494.57 192.939 1494.93 193.655C1495.29 194.371 1495.8 194.918 1496.45 195.295C1497.1 195.667 1497.86 195.852 1498.73 195.852C1499.29 195.852 1499.81 195.773 1500.27 195.614C1500.73 195.448 1501.13 195.203 1501.47 194.878C1501.81 194.553 1502.07 194.152 1502.25 193.675L1505.06 194.182C1504.84 195.01 1504.43 195.736 1503.85 196.359C1503.27 196.976 1502.55 197.456 1501.67 197.801C1500.8 198.139 1499.81 198.308 1498.7 198.308ZM1508.79 198V177.636H1511.76V185.203H1511.94C1512.11 184.885 1512.36 184.517 1512.69 184.099C1513.01 183.682 1513.46 183.317 1514.04 183.006C1514.61 182.688 1515.38 182.528 1516.32 182.528C1517.56 182.528 1518.66 182.84 1519.63 183.463C1520.59 184.086 1521.35 184.984 1521.9 186.158C1522.46 187.331 1522.74 188.743 1522.74 190.393C1522.74 192.044 1522.46 193.459 1521.91 194.639C1521.36 195.812 1520.61 196.717 1519.65 197.354C1518.68 197.983 1517.59 198.298 1516.35 198.298C1515.43 198.298 1514.67 198.143 1514.08 197.831C1513.49 197.519 1513.04 197.155 1512.71 196.737C1512.37 196.32 1512.12 195.948 1511.94 195.624H1511.69V198H1508.79ZM1511.7 190.364C1511.7 191.437 1511.86 192.379 1512.17 193.188C1512.48 193.996 1512.93 194.629 1513.52 195.087C1514.11 195.537 1514.83 195.763 1515.69 195.763C1516.58 195.763 1517.32 195.527 1517.92 195.057C1518.51 194.58 1518.96 193.933 1519.27 193.118C1519.58 192.303 1519.74 191.384 1519.74 190.364C1519.74 189.356 1519.58 188.451 1519.28 187.649C1518.98 186.847 1518.53 186.214 1517.93 185.75C1517.33 185.286 1516.58 185.054 1515.69 185.054C1514.83 185.054 1514.1 185.276 1513.5 185.72C1512.91 186.164 1512.46 186.784 1512.16 187.58C1511.85 188.375 1511.7 189.303 1511.7 190.364ZM1537.52 186.456L1534.83 186.933C1534.71 186.589 1534.54 186.26 1534.29 185.949C1534.05 185.637 1533.73 185.382 1533.32 185.183C1532.9 184.984 1532.39 184.885 1531.77 184.885C1530.93 184.885 1530.23 185.074 1529.67 185.452C1529.1 185.823 1528.82 186.304 1528.82 186.893C1528.82 187.404 1529.01 187.815 1529.39 188.126C1529.77 188.438 1530.38 188.693 1531.22 188.892L1533.64 189.449C1535.05 189.774 1536.1 190.274 1536.79 190.95C1537.47 191.626 1537.82 192.505 1537.82 193.585C1537.82 194.5 1537.55 195.315 1537.02 196.031C1536.5 196.741 1535.77 197.297 1534.83 197.702C1533.89 198.106 1532.81 198.308 1531.58 198.308C1529.87 198.308 1528.47 197.944 1527.39 197.214C1526.31 196.479 1525.65 195.435 1525.4 194.082L1528.27 193.645C1528.45 194.394 1528.82 194.961 1529.38 195.345C1529.93 195.723 1530.66 195.912 1531.56 195.912C1532.53 195.912 1533.31 195.71 1533.89 195.305C1534.48 194.894 1534.77 194.394 1534.77 193.804C1534.77 193.327 1534.59 192.926 1534.23 192.601C1533.88 192.276 1533.34 192.031 1532.61 191.865L1530.02 191.298C1528.6 190.973 1527.54 190.456 1526.86 189.747C1526.19 189.038 1525.85 188.14 1525.85 187.053C1525.85 186.151 1526.1 185.362 1526.6 184.686C1527.11 184.01 1527.8 183.483 1528.69 183.105C1529.58 182.721 1530.6 182.528 1531.74 182.528C1533.39 182.528 1534.69 182.886 1535.64 183.602C1536.59 184.312 1537.22 185.263 1537.52 186.456ZM1541.09 198V182.727H1544.06V198H1541.09ZM1542.59 180.371C1542.07 180.371 1541.63 180.198 1541.26 179.854C1540.89 179.502 1540.71 179.085 1540.71 178.601C1540.71 178.11 1540.89 177.693 1541.26 177.348C1541.63 176.997 1542.07 176.821 1542.59 176.821C1543.11 176.821 1543.55 176.997 1543.91 177.348C1544.28 177.693 1544.47 178.11 1544.47 178.601C1544.47 179.085 1544.28 179.502 1543.91 179.854C1543.55 180.198 1543.11 180.371 1542.59 180.371ZM1555.19 182.727V185.114H1546.85V182.727H1555.19ZM1549.09 179.068H1552.06V193.516C1552.06 194.092 1552.14 194.527 1552.32 194.818C1552.49 195.103 1552.71 195.299 1552.98 195.405C1553.26 195.504 1553.56 195.554 1553.89 195.554C1554.13 195.554 1554.34 195.537 1554.51 195.504C1554.69 195.471 1554.83 195.445 1554.93 195.425L1555.47 197.881C1555.3 197.947 1555.05 198.013 1554.73 198.08C1554.41 198.152 1554.02 198.192 1553.54 198.199C1552.76 198.212 1552.03 198.073 1551.35 197.781C1550.68 197.49 1550.13 197.039 1549.71 196.429C1549.29 195.819 1549.09 195.054 1549.09 194.132V179.068ZM1564.9 198.308C1563.39 198.308 1562.1 197.987 1561.01 197.344C1559.93 196.694 1559.09 195.783 1558.5 194.609C1557.92 193.429 1557.63 192.047 1557.63 190.463C1557.63 188.899 1557.92 187.52 1558.5 186.327C1559.09 185.134 1559.92 184.202 1560.97 183.533C1562.03 182.863 1563.27 182.528 1564.69 182.528C1565.55 182.528 1566.39 182.671 1567.19 182.956C1568 183.241 1568.73 183.688 1569.37 184.298C1570.01 184.908 1570.52 185.7 1570.89 186.675C1571.26 187.643 1571.45 188.819 1571.45 190.205V191.259H1559.31V189.031H1568.54C1568.54 188.249 1568.38 187.556 1568.06 186.953C1567.74 186.343 1567.29 185.863 1566.72 185.511C1566.15 185.16 1565.48 184.984 1564.71 184.984C1563.87 184.984 1563.14 185.19 1562.52 185.601C1561.9 186.005 1561.43 186.536 1561.09 187.192C1560.76 187.841 1560.59 188.547 1560.59 189.31V191.05C1560.59 192.071 1560.77 192.939 1561.13 193.655C1561.49 194.371 1562 194.918 1562.65 195.295C1563.3 195.667 1564.06 195.852 1564.93 195.852C1565.49 195.852 1566 195.773 1566.47 195.614C1566.93 195.448 1567.33 195.203 1567.67 194.878C1568.01 194.553 1568.27 194.152 1568.45 193.675L1571.26 194.182C1571.04 195.01 1570.63 195.736 1570.05 196.359C1569.47 196.976 1568.75 197.456 1567.87 197.801C1567 198.139 1566.01 198.308 1564.9 198.308Z" fill="white"/>
<path d="M1443.68 274V250.727H1451.98C1453.79 250.727 1455.29 251.057 1456.48 251.716C1457.67 252.375 1458.56 253.277 1459.15 254.42C1459.74 255.557 1460.03 256.837 1460.03 258.261C1460.03 259.693 1459.73 260.981 1459.14 262.125C1458.55 263.261 1457.65 264.163 1456.45 264.83C1455.27 265.489 1453.77 265.818 1451.97 265.818H1446.26V262.841H1451.65C1452.79 262.841 1453.72 262.644 1454.43 262.25C1455.14 261.848 1455.67 261.303 1456 260.614C1456.33 259.924 1456.5 259.14 1456.5 258.261C1456.5 257.383 1456.33 256.602 1456 255.92C1455.67 255.239 1455.14 254.705 1454.42 254.318C1453.71 253.932 1452.77 253.739 1451.6 253.739H1447.19V274H1443.68ZM1471.18 274.352C1469.46 274.352 1467.98 273.985 1466.74 273.25C1465.5 272.508 1464.55 271.466 1463.88 270.125C1463.21 268.777 1462.88 267.197 1462.88 265.386C1462.88 263.598 1463.21 262.023 1463.88 260.659C1464.55 259.295 1465.49 258.231 1466.69 257.466C1467.91 256.701 1469.32 256.318 1470.94 256.318C1471.93 256.318 1472.88 256.481 1473.81 256.807C1474.73 257.133 1475.56 257.644 1476.3 258.341C1477.03 259.038 1477.61 259.943 1478.03 261.057C1478.46 262.163 1478.67 263.508 1478.67 265.091V266.295H1464.8V263.75H1475.34C1475.34 262.856 1475.16 262.064 1474.8 261.375C1474.43 260.678 1473.92 260.129 1473.26 259.727C1472.61 259.326 1471.84 259.125 1470.97 259.125C1470.01 259.125 1469.18 259.36 1468.47 259.83C1467.76 260.292 1467.22 260.898 1466.83 261.648C1466.45 262.39 1466.26 263.197 1466.26 264.068V266.057C1466.26 267.223 1466.47 268.216 1466.88 269.034C1467.29 269.852 1467.87 270.477 1468.61 270.909C1469.36 271.333 1470.22 271.545 1471.22 271.545C1471.86 271.545 1472.45 271.455 1472.98 271.273C1473.51 271.083 1473.97 270.803 1474.35 270.432C1474.74 270.061 1475.03 269.602 1475.24 269.057L1478.45 269.636C1478.2 270.583 1477.73 271.413 1477.07 272.125C1476.41 272.83 1475.58 273.379 1474.58 273.773C1473.59 274.159 1472.45 274.352 1471.18 274.352ZM1490.59 256.545V259.273H1481.05V256.545H1490.59ZM1483.61 252.364H1487.01V268.875C1487.01 269.534 1487.11 270.03 1487.3 270.364C1487.5 270.689 1487.75 270.913 1488.07 271.034C1488.38 271.148 1488.73 271.205 1489.1 271.205C1489.37 271.205 1489.61 271.186 1489.82 271.148C1490.02 271.11 1490.18 271.08 1490.29 271.057L1490.91 273.864C1490.71 273.939 1490.43 274.015 1490.07 274.091C1489.7 274.174 1489.25 274.22 1488.7 274.227C1487.81 274.242 1486.97 274.083 1486.2 273.75C1485.43 273.417 1484.8 272.902 1484.33 272.205C1483.85 271.508 1483.61 270.633 1483.61 269.58V252.364ZM1510.17 274.352C1508.53 274.352 1507.1 273.977 1505.88 273.227C1504.66 272.477 1503.72 271.428 1503.04 270.08C1502.37 268.731 1502.03 267.155 1502.03 265.352C1502.03 263.542 1502.37 261.958 1503.04 260.602C1503.72 259.246 1504.66 258.193 1505.88 257.443C1507.1 256.693 1508.53 256.318 1510.17 256.318C1511.8 256.318 1513.23 256.693 1514.45 257.443C1515.67 258.193 1516.62 259.246 1517.29 260.602C1517.97 261.958 1518.3 263.542 1518.3 265.352C1518.3 267.155 1517.97 268.731 1517.29 270.08C1516.62 271.428 1515.67 272.477 1514.45 273.227C1513.23 273.977 1511.8 274.352 1510.17 274.352ZM1510.18 271.5C1511.24 271.5 1512.12 271.22 1512.82 270.659C1513.51 270.098 1514.03 269.352 1514.36 268.42C1514.7 267.489 1514.87 266.462 1514.87 265.341C1514.87 264.227 1514.7 263.205 1514.36 262.273C1514.03 261.333 1513.51 260.58 1512.82 260.011C1512.12 259.443 1511.24 259.159 1510.18 259.159C1509.11 259.159 1508.22 259.443 1507.52 260.011C1506.82 260.58 1506.3 261.333 1505.96 262.273C1505.63 263.205 1505.46 264.227 1505.46 265.341C1505.46 266.462 1505.63 267.489 1505.96 268.42C1506.3 269.352 1506.82 270.098 1507.52 270.659C1508.22 271.22 1509.11 271.5 1510.18 271.5ZM1525.35 274L1520.21 256.545H1523.72L1527.14 269.364H1527.32L1530.75 256.545H1534.26L1537.67 269.307H1537.84L1541.24 256.545H1544.75L1539.62 274H1536.16L1532.61 261.398H1532.35L1528.8 274H1525.35ZM1551.37 263.636V274H1547.97V256.545H1551.23V259.386H1551.45C1551.85 258.462 1552.48 257.72 1553.34 257.159C1554.2 256.598 1555.29 256.318 1556.6 256.318C1557.79 256.318 1558.83 256.568 1559.72 257.068C1560.62 257.561 1561.31 258.295 1561.8 259.273C1562.29 260.25 1562.54 261.458 1562.54 262.898V274H1559.14V263.307C1559.14 262.042 1558.81 261.053 1558.15 260.341C1557.49 259.621 1556.59 259.261 1555.44 259.261C1554.65 259.261 1553.95 259.432 1553.34 259.773C1552.73 260.114 1552.25 260.614 1551.89 261.273C1551.54 261.924 1551.37 262.712 1551.37 263.636ZM1574.62 274.352C1572.9 274.352 1571.42 273.985 1570.18 273.25C1568.94 272.508 1567.99 271.466 1567.31 270.125C1566.65 268.777 1566.31 267.197 1566.31 265.386C1566.31 263.598 1566.65 262.023 1567.31 260.659C1567.99 259.295 1568.93 258.231 1570.13 257.466C1571.34 256.701 1572.76 256.318 1574.38 256.318C1575.37 256.318 1576.32 256.481 1577.24 256.807C1578.17 257.133 1579 257.644 1579.73 258.341C1580.47 259.038 1581.05 259.943 1581.47 261.057C1581.9 262.163 1582.11 263.508 1582.11 265.091V266.295H1568.23V263.75H1578.78C1578.78 262.856 1578.6 262.064 1578.23 261.375C1577.87 260.678 1577.36 260.129 1576.7 259.727C1576.05 259.326 1575.28 259.125 1574.4 259.125C1573.45 259.125 1572.62 259.36 1571.9 259.83C1571.2 260.292 1570.65 260.898 1570.27 261.648C1569.89 262.39 1569.7 263.197 1569.7 264.068V266.057C1569.7 267.223 1569.9 268.216 1570.31 269.034C1570.73 269.852 1571.31 270.477 1572.05 270.909C1572.79 271.333 1573.66 271.545 1574.65 271.545C1575.3 271.545 1575.88 271.455 1576.41 271.273C1576.95 271.083 1577.4 270.803 1577.79 270.432C1578.18 270.061 1578.47 269.602 1578.68 269.057L1581.89 269.636C1581.63 270.583 1581.17 271.413 1580.51 272.125C1579.85 272.83 1579.02 273.379 1578.02 273.773C1577.02 274.159 1575.89 274.352 1574.62 274.352ZM1585.88 274V256.545H1589.16V259.318H1589.34C1589.66 258.379 1590.22 257.64 1591.03 257.102C1591.84 256.557 1592.75 256.284 1593.78 256.284C1593.99 256.284 1594.24 256.292 1594.53 256.307C1594.82 256.322 1595.05 256.341 1595.22 256.364V259.614C1595.08 259.576 1594.84 259.534 1594.49 259.489C1594.14 259.436 1593.79 259.409 1593.45 259.409C1592.64 259.409 1591.93 259.58 1591.3 259.92C1590.68 260.254 1590.18 260.72 1589.82 261.318C1589.46 261.909 1589.28 262.583 1589.28 263.341V274H1585.88Z" fill="#505050"/>
<path d="M1877.11 16H1862.89L1862.74 16C1856.16 16 1851.02 15.9999 1847.02 16.5385C1842.92 17.089 1839.71 18.235 1837.2 20.7514C1834.68 23.2677 1833.53 26.4776 1832.98 30.5723C1832.44 34.5783 1832.44 39.7166 1832.44 46.2908L1832.44 46.4444V117.556L1832.44 117.709C1832.44 124.283 1832.44 129.422 1832.98 133.428C1833.53 137.522 1834.68 140.732 1837.2 143.249C1839.71 145.765 1842.92 146.911 1847.02 147.461C1851.02 148 1856.16 148 1862.74 148H1862.89H1877.11H1877.26C1883.84 148 1888.98 148 1892.98 147.461C1897.08 146.911 1900.29 145.765 1902.8 143.249C1905.32 140.732 1906.47 137.522 1907.02 133.428C1907.56 129.422 1907.56 124.283 1907.56 117.709V117.556V46.4444V46.2907C1907.56 39.7165 1907.56 34.5783 1907.02 30.5723C1906.47 26.4776 1905.32 23.2677 1902.8 20.7514C1900.29 18.235 1897.08 17.089 1892.98 16.5385C1888.98 15.9999 1883.84 16 1877.26 16L1877.11 16Z" stroke="#1B1B1B" stroke-width="4"/>
<path d="M1834.44 110.445H1905.56" stroke="#1B1B1B" stroke-width="4"/>
<rect x="1776" y="178" width="188" height="46" rx="23" fill="#FBBF7D"/>
<path d="M1796.5 190.636H1800.22L1806.71 206.466H1806.95L1813.43 190.636H1817.16V211H1814.23V196.264H1814.04L1808.04 210.97H1805.61L1799.61 196.254H1799.42V211H1796.5V190.636ZM1827.82 211.308C1826.39 211.308 1825.14 210.98 1824.07 210.324C1823 209.668 1822.17 208.75 1821.58 207.57C1820.99 206.39 1820.7 205.011 1820.7 203.433C1820.7 201.849 1820.99 200.464 1821.58 199.277C1822.17 198.09 1823 197.169 1824.07 196.513C1825.14 195.857 1826.39 195.528 1827.82 195.528C1829.25 195.528 1830.5 195.857 1831.57 196.513C1832.63 197.169 1833.46 198.09 1834.05 199.277C1834.64 200.464 1834.94 201.849 1834.94 203.433C1834.94 205.011 1834.64 206.39 1834.05 207.57C1833.46 208.75 1832.63 209.668 1831.57 210.324C1830.5 210.98 1829.25 211.308 1827.82 211.308ZM1827.83 208.812C1828.76 208.812 1829.53 208.567 1830.14 208.077C1830.75 207.586 1831.2 206.933 1831.49 206.118C1831.79 205.303 1831.94 204.404 1831.94 203.423C1831.94 202.449 1831.79 201.554 1831.49 200.739C1831.2 199.917 1830.75 199.257 1830.14 198.76C1829.53 198.263 1828.76 198.014 1827.83 198.014C1826.89 198.014 1826.12 198.263 1825.5 198.76C1824.89 199.257 1824.44 199.917 1824.14 200.739C1823.85 201.554 1823.7 202.449 1823.7 203.423C1823.7 204.404 1823.85 205.303 1824.14 206.118C1824.44 206.933 1824.89 207.586 1825.5 208.077C1826.12 208.567 1826.89 208.812 1827.83 208.812ZM1838.5 211V190.636H1841.47V198.203H1841.65C1841.82 197.885 1842.07 197.517 1842.39 197.099C1842.72 196.682 1843.17 196.317 1843.75 196.006C1844.32 195.688 1845.08 195.528 1846.03 195.528C1847.26 195.528 1848.37 195.84 1849.33 196.463C1850.3 197.086 1851.06 197.984 1851.61 199.158C1852.17 200.331 1852.45 201.743 1852.45 203.393C1852.45 205.044 1852.17 206.459 1851.62 207.639C1851.07 208.812 1850.31 209.717 1849.35 210.354C1848.39 210.983 1847.29 211.298 1846.06 211.298C1845.13 211.298 1844.37 211.143 1843.78 210.831C1843.2 210.519 1842.74 210.155 1842.41 209.737C1842.08 209.32 1841.83 208.948 1841.65 208.624H1841.4V211H1838.5ZM1841.41 203.364C1841.41 204.437 1841.56 205.379 1841.88 206.188C1842.19 206.996 1842.64 207.629 1843.23 208.087C1843.82 208.537 1844.54 208.763 1845.4 208.763C1846.28 208.763 1847.03 208.527 1847.62 208.057C1848.22 207.58 1848.67 206.933 1848.98 206.118C1849.29 205.303 1849.44 204.384 1849.44 203.364C1849.44 202.356 1849.29 201.451 1848.99 200.649C1848.69 199.847 1848.24 199.214 1847.63 198.75C1847.04 198.286 1846.29 198.054 1845.4 198.054C1844.53 198.054 1843.8 198.276 1843.21 198.72C1842.62 199.164 1842.17 199.784 1841.87 200.58C1841.56 201.375 1841.41 202.303 1841.41 203.364ZM1855.78 211V195.727H1858.76V211H1855.78ZM1857.29 193.371C1856.77 193.371 1856.32 193.198 1855.95 192.854C1855.59 192.502 1855.41 192.085 1855.41 191.601C1855.41 191.11 1855.59 190.693 1855.95 190.348C1856.32 189.997 1856.77 189.821 1857.29 189.821C1857.8 189.821 1858.24 189.997 1858.61 190.348C1858.98 190.693 1859.16 191.11 1859.16 191.601C1859.16 192.085 1858.98 192.502 1858.61 192.854C1858.24 193.198 1857.8 193.371 1857.29 193.371ZM1865.73 190.636V211H1862.76V190.636H1865.73ZM1876.31 211.308C1874.81 211.308 1873.51 210.987 1872.42 210.344C1871.34 209.694 1870.51 208.783 1869.92 207.609C1869.33 206.429 1869.04 205.047 1869.04 203.463C1869.04 201.899 1869.33 200.52 1869.92 199.327C1870.51 198.134 1871.33 197.202 1872.38 196.533C1873.44 195.863 1874.68 195.528 1876.1 195.528C1876.96 195.528 1877.8 195.671 1878.61 195.956C1879.42 196.241 1880.14 196.688 1880.79 197.298C1881.43 197.908 1881.94 198.7 1882.31 199.675C1882.68 200.643 1882.86 201.819 1882.86 203.205V204.259H1870.72V202.031H1879.95C1879.95 201.249 1879.79 200.556 1879.47 199.953C1879.16 199.343 1878.71 198.863 1878.13 198.511C1877.56 198.16 1876.89 197.984 1876.12 197.984C1875.29 197.984 1874.56 198.19 1873.94 198.601C1873.32 199.005 1872.84 199.536 1872.5 200.192C1872.17 200.841 1872.01 201.547 1872.01 202.31V204.05C1872.01 205.071 1872.19 205.939 1872.54 206.655C1872.91 207.371 1873.41 207.918 1874.06 208.295C1874.71 208.667 1875.47 208.852 1876.34 208.852C1876.9 208.852 1877.42 208.773 1877.88 208.614C1878.35 208.448 1878.75 208.203 1879.09 207.878C1879.42 207.553 1879.68 207.152 1879.86 206.675L1882.68 207.182C1882.45 208.01 1882.05 208.736 1881.46 209.359C1880.89 209.976 1880.16 210.456 1879.28 210.801C1878.42 211.139 1877.43 211.308 1876.31 211.308ZM1895.53 211H1892.27L1899.6 190.636H1903.15L1910.48 211H1907.21L1901.46 194.335H1901.3L1895.53 211ZM1896.08 203.026H1906.66V205.611H1896.08V203.026ZM1913.18 216.727V195.727H1916.08V198.203H1916.33C1916.5 197.885 1916.75 197.517 1917.08 197.099C1917.4 196.682 1917.85 196.317 1918.43 196.006C1919 195.688 1919.77 195.528 1920.72 195.528C1921.95 195.528 1923.05 195.84 1924.02 196.463C1924.98 197.086 1925.74 197.984 1926.29 199.158C1926.85 200.331 1927.13 201.743 1927.13 203.393C1927.13 205.044 1926.85 206.459 1926.3 207.639C1925.75 208.812 1925 209.717 1924.04 210.354C1923.08 210.983 1921.98 211.298 1920.75 211.298C1919.82 211.298 1919.06 211.143 1918.47 210.831C1917.88 210.519 1917.43 210.155 1917.1 209.737C1916.76 209.32 1916.51 208.948 1916.33 208.624H1916.15V216.727H1913.18ZM1916.09 203.364C1916.09 204.437 1916.25 205.379 1916.56 206.188C1916.87 206.996 1917.32 207.629 1917.91 208.087C1918.5 208.537 1919.22 208.763 1920.08 208.763C1920.97 208.763 1921.71 208.527 1922.31 208.057C1922.9 207.58 1923.35 206.933 1923.66 206.118C1923.97 205.303 1924.13 204.384 1924.13 203.364C1924.13 202.356 1923.97 201.451 1923.67 200.649C1923.37 199.847 1922.92 199.214 1922.32 198.75C1921.72 198.286 1920.97 198.054 1920.08 198.054C1919.22 198.054 1918.49 198.276 1917.89 198.72C1917.3 199.164 1916.85 199.784 1916.55 200.58C1916.24 201.375 1916.09 202.303 1916.09 203.364ZM1930.46 216.727V195.727H1933.36V198.203H1933.61C1933.78 197.885 1934.03 197.517 1934.36 197.099C1934.68 196.682 1935.13 196.317 1935.71 196.006C1936.29 195.688 1937.05 195.528 1938 195.528C1939.23 195.528 1940.33 195.84 1941.3 196.463C1942.27 197.086 1943.02 197.984 1943.57 199.158C1944.13 200.331 1944.41 201.743 1944.41 203.393C1944.41 205.044 1944.13 206.459 1943.58 207.639C1943.03 208.812 1942.28 209.717 1941.32 210.354C1940.36 210.983 1939.26 211.298 1938.03 211.298C1937.1 211.298 1936.34 211.143 1935.75 210.831C1935.17 210.519 1934.71 210.155 1934.38 209.737C1934.05 209.32 1933.79 208.948 1933.61 208.624H1933.43V216.727H1930.46ZM1933.37 203.364C1933.37 204.437 1933.53 205.379 1933.84 206.188C1934.15 206.996 1934.6 207.629 1935.19 208.087C1935.78 208.537 1936.5 208.763 1937.36 208.763C1938.25 208.763 1938.99 208.527 1939.59 208.057C1940.18 207.58 1940.63 206.933 1940.94 206.118C1941.25 205.303 1941.41 204.384 1941.41 203.364C1941.41 202.356 1941.25 201.451 1940.95 200.649C1940.65 199.847 1940.2 199.214 1939.6 198.75C1939 198.286 1938.25 198.054 1937.36 198.054C1936.5 198.054 1935.77 198.276 1935.17 198.72C1934.58 199.164 1934.14 199.784 1933.83 200.58C1933.53 201.375 1933.37 202.303 1933.37 203.364Z" fill="white"/>
<path d="M1785.93 287V263.727H1794.45C1796.11 263.727 1797.47 264 1798.56 264.545C1799.64 265.083 1800.45 265.814 1800.99 266.739C1801.53 267.655 1801.8 268.689 1801.8 269.841C1801.8 270.811 1801.62 271.629 1801.26 272.295C1800.91 272.955 1800.43 273.485 1799.83 273.886C1799.24 274.28 1798.59 274.568 1797.88 274.75V274.977C1798.65 275.015 1799.4 275.265 1800.14 275.727C1800.88 276.182 1801.49 276.83 1801.98 277.67C1802.46 278.511 1802.7 279.534 1802.7 280.739C1802.7 281.928 1802.42 282.996 1801.86 283.943C1801.31 284.883 1800.45 285.629 1799.3 286.182C1798.14 286.727 1796.66 287 1794.85 287H1785.93ZM1789.44 283.989H1794.51C1796.19 283.989 1797.4 283.663 1798.12 283.011C1798.85 282.36 1799.22 281.545 1799.22 280.568C1799.22 279.833 1799.03 279.159 1798.66 278.545C1798.29 277.932 1797.76 277.443 1797.07 277.08C1796.39 276.716 1795.58 276.534 1794.64 276.534H1789.44V283.989ZM1789.44 273.795H1794.15C1794.94 273.795 1795.64 273.644 1796.27 273.341C1796.91 273.038 1797.41 272.614 1797.78 272.068C1798.16 271.515 1798.35 270.864 1798.35 270.114C1798.35 269.152 1798.02 268.345 1797.34 267.693C1796.67 267.042 1795.63 266.716 1794.24 266.716H1789.44V273.795ZM1817.65 279.761V269.545H1821.06V287H1817.72V283.977H1817.54C1817.14 284.909 1816.49 285.686 1815.61 286.307C1814.73 286.92 1813.63 287.227 1812.32 287.227C1811.2 287.227 1810.21 286.981 1809.35 286.489C1808.49 285.989 1807.82 285.25 1807.32 284.273C1806.84 283.295 1806.6 282.087 1806.6 280.648V269.545H1809.99V280.239C1809.99 281.428 1810.32 282.375 1810.98 283.08C1811.64 283.784 1812.5 284.136 1813.55 284.136C1814.19 284.136 1814.82 283.977 1815.45 283.659C1816.09 283.341 1816.61 282.86 1817.03 282.216C1817.45 281.572 1817.66 280.754 1817.65 279.761ZM1838.71 273.807L1835.63 274.352C1835.5 273.958 1835.29 273.583 1835.01 273.227C1834.74 272.871 1834.37 272.58 1833.9 272.352C1833.43 272.125 1832.84 272.011 1832.14 272.011C1831.18 272.011 1830.37 272.227 1829.73 272.659C1829.09 273.083 1828.76 273.633 1828.76 274.307C1828.76 274.89 1828.98 275.36 1829.41 275.716C1829.84 276.072 1830.54 276.364 1831.5 276.591L1834.28 277.227C1835.88 277.598 1837.08 278.17 1837.87 278.943C1838.65 279.716 1839.05 280.72 1839.05 281.955C1839.05 283 1838.75 283.932 1838.14 284.75C1837.54 285.561 1836.7 286.197 1835.63 286.659C1834.56 287.121 1833.32 287.352 1831.91 287.352C1829.96 287.352 1828.36 286.936 1827.13 286.102C1825.89 285.261 1825.14 284.068 1824.86 282.523L1828.14 282.023C1828.34 282.879 1828.76 283.527 1829.4 283.966C1830.04 284.398 1830.87 284.614 1831.89 284.614C1833 284.614 1833.89 284.383 1834.56 283.92C1835.23 283.451 1835.56 282.879 1835.56 282.205C1835.56 281.659 1835.36 281.201 1834.95 280.83C1834.54 280.458 1833.93 280.178 1833.09 279.989L1830.14 279.341C1828.51 278.97 1827.31 278.379 1826.53 277.568C1825.75 276.758 1825.37 275.731 1825.37 274.489C1825.37 273.458 1825.65 272.557 1826.23 271.784C1826.81 271.011 1827.6 270.409 1828.62 269.977C1829.63 269.538 1830.79 269.318 1832.11 269.318C1833.99 269.318 1835.48 269.727 1836.56 270.545C1837.64 271.356 1838.36 272.443 1838.71 273.807ZM1842.78 287V269.545H1846.18V287H1842.78ZM1844.5 266.852C1843.91 266.852 1843.4 266.655 1842.98 266.261C1842.56 265.86 1842.35 265.383 1842.35 264.83C1842.35 264.269 1842.56 263.792 1842.98 263.398C1843.4 262.996 1843.91 262.795 1844.5 262.795C1845.09 262.795 1845.59 262.996 1846.01 263.398C1846.44 263.792 1846.65 264.269 1846.65 264.83C1846.65 265.383 1846.44 265.86 1846.01 266.261C1845.59 266.655 1845.09 266.852 1844.5 266.852ZM1854.15 276.636V287H1850.75V269.545H1854.01V272.386H1854.23C1854.63 271.462 1855.26 270.72 1856.12 270.159C1856.98 269.598 1858.07 269.318 1859.38 269.318C1860.57 269.318 1861.61 269.568 1862.5 270.068C1863.4 270.561 1864.09 271.295 1864.58 272.273C1865.07 273.25 1865.32 274.458 1865.32 275.898V287H1861.92V276.307C1861.92 275.042 1861.59 274.053 1860.93 273.341C1860.28 272.621 1859.37 272.261 1858.22 272.261C1857.43 272.261 1856.73 272.432 1856.12 272.773C1855.51 273.114 1855.03 273.614 1854.67 274.273C1854.32 274.924 1854.15 275.712 1854.15 276.636ZM1877.4 287.352C1875.68 287.352 1874.2 286.985 1872.96 286.25C1871.72 285.508 1870.77 284.466 1870.09 283.125C1869.43 281.777 1869.09 280.197 1869.09 278.386C1869.09 276.598 1869.43 275.023 1870.09 273.659C1870.77 272.295 1871.71 271.231 1872.91 270.466C1874.12 269.701 1875.54 269.318 1877.16 269.318C1878.15 269.318 1879.1 269.481 1880.03 269.807C1880.95 270.133 1881.78 270.644 1882.51 271.341C1883.25 272.038 1883.83 272.943 1884.25 274.057C1884.68 275.163 1884.89 276.508 1884.89 278.091V279.295H1871.01V276.75H1881.56C1881.56 275.856 1881.38 275.064 1881.01 274.375C1880.65 273.678 1880.14 273.129 1879.48 272.727C1878.83 272.326 1878.06 272.125 1877.18 272.125C1876.23 272.125 1875.4 272.36 1874.68 272.83C1873.98 273.292 1873.43 273.898 1873.05 274.648C1872.67 275.39 1872.48 276.197 1872.48 277.068V279.057C1872.48 280.223 1872.68 281.216 1873.09 282.034C1873.51 282.852 1874.09 283.477 1874.83 283.909C1875.57 284.333 1876.44 284.545 1877.43 284.545C1878.08 284.545 1878.67 284.455 1879.2 284.273C1879.73 284.083 1880.18 283.803 1880.57 283.432C1880.96 283.061 1881.25 282.602 1881.46 282.057L1884.67 282.636C1884.42 283.583 1883.95 284.413 1883.29 285.125C1882.63 285.83 1881.8 286.379 1880.8 286.773C1879.81 287.159 1878.67 287.352 1877.4 287.352ZM1901.74 273.807L1898.66 274.352C1898.53 273.958 1898.33 273.583 1898.05 273.227C1897.77 272.871 1897.4 272.58 1896.93 272.352C1896.46 272.125 1895.88 272.011 1895.17 272.011C1894.21 272.011 1893.41 272.227 1892.76 272.659C1892.12 273.083 1891.8 273.633 1891.8 274.307C1891.8 274.89 1892.01 275.36 1892.44 275.716C1892.88 276.072 1893.57 276.364 1894.53 276.591L1897.31 277.227C1898.91 277.598 1900.11 278.17 1900.9 278.943C1901.69 279.716 1902.08 280.72 1902.08 281.955C1902.08 283 1901.78 283.932 1901.17 284.75C1900.57 285.561 1899.73 286.197 1898.66 286.659C1897.59 287.121 1896.35 287.352 1894.94 287.352C1892.99 287.352 1891.39 286.936 1890.16 286.102C1888.92 285.261 1888.17 284.068 1887.89 282.523L1891.17 282.023C1891.38 282.879 1891.8 283.527 1892.43 283.966C1893.07 284.398 1893.9 284.614 1894.92 284.614C1896.03 284.614 1896.92 284.383 1897.59 283.92C1898.26 283.451 1898.59 282.879 1898.59 282.205C1898.59 281.659 1898.39 281.201 1897.98 280.83C1897.58 280.458 1896.96 280.178 1896.12 279.989L1893.17 279.341C1891.54 278.97 1890.34 278.379 1889.56 277.568C1888.78 276.758 1888.4 275.731 1888.4 274.489C1888.4 273.458 1888.69 272.557 1889.26 271.784C1889.84 271.011 1890.63 270.409 1891.65 269.977C1892.66 269.538 1893.83 269.318 1895.14 269.318C1897.02 269.318 1898.51 269.727 1899.59 270.545C1900.67 271.356 1901.39 272.443 1901.74 273.807ZM1918.89 273.807L1915.82 274.352C1915.69 273.958 1915.48 273.583 1915.2 273.227C1914.93 272.871 1914.56 272.58 1914.09 272.352C1913.62 272.125 1913.03 272.011 1912.33 272.011C1911.36 272.011 1910.56 272.227 1909.92 272.659C1909.27 273.083 1908.95 273.633 1908.95 274.307C1908.95 274.89 1909.17 275.36 1909.6 275.716C1910.03 276.072 1910.73 276.364 1911.69 276.591L1914.46 277.227C1916.07 277.598 1917.27 278.17 1918.05 278.943C1918.84 279.716 1919.24 280.72 1919.24 281.955C1919.24 283 1918.93 283.932 1918.33 284.75C1917.73 285.561 1916.89 286.197 1915.82 286.659C1914.75 287.121 1913.51 287.352 1912.1 287.352C1910.14 287.352 1908.55 286.936 1907.32 286.102C1906.08 285.261 1905.32 284.068 1905.04 282.523L1908.33 282.023C1908.53 282.879 1908.95 283.527 1909.59 283.966C1910.22 284.398 1911.05 284.614 1912.08 284.614C1913.19 284.614 1914.08 284.383 1914.75 283.92C1915.41 283.451 1915.75 282.879 1915.75 282.205C1915.75 281.659 1915.54 281.201 1915.13 280.83C1914.73 280.458 1914.11 280.178 1913.28 279.989L1910.33 279.341C1908.7 278.97 1907.49 278.379 1906.71 277.568C1905.94 276.758 1905.55 275.731 1905.55 274.489C1905.55 273.458 1905.84 272.557 1906.42 271.784C1906.99 271.011 1907.79 270.409 1908.8 269.977C1909.82 269.538 1910.98 269.318 1912.29 269.318C1914.18 269.318 1915.66 269.727 1916.75 270.545C1917.83 271.356 1918.55 272.443 1918.89 273.807ZM1930.49 287.352C1928.77 287.352 1927.29 286.985 1926.05 286.25C1924.82 285.508 1923.86 284.466 1923.19 283.125C1922.52 281.777 1922.19 280.197 1922.19 278.386C1922.19 276.598 1922.52 275.023 1923.19 273.659C1923.86 272.295 1924.8 271.231 1926.01 270.466C1927.22 269.701 1928.63 269.318 1930.26 269.318C1931.24 269.318 1932.2 269.481 1933.12 269.807C1934.04 270.133 1934.87 270.644 1935.61 271.341C1936.34 272.038 1936.92 272.943 1937.35 274.057C1937.77 275.163 1937.98 276.508 1937.98 278.091V279.295H1924.11V276.75H1934.65C1934.65 275.856 1934.47 275.064 1934.11 274.375C1933.74 273.678 1933.23 273.129 1932.57 272.727C1931.92 272.326 1931.16 272.125 1930.28 272.125C1929.32 272.125 1928.49 272.36 1927.78 272.83C1927.07 273.292 1926.53 273.898 1926.14 274.648C1925.76 275.39 1925.57 276.197 1925.57 277.068V279.057C1925.57 280.223 1925.78 281.216 1926.19 282.034C1926.6 282.852 1927.18 283.477 1927.93 283.909C1928.67 284.333 1929.54 284.545 1930.53 284.545C1931.17 284.545 1931.76 284.455 1932.29 284.273C1932.82 284.083 1933.28 283.803 1933.66 283.432C1934.05 283.061 1934.35 282.602 1934.55 282.057L1937.77 282.636C1937.51 283.583 1937.05 284.413 1936.38 285.125C1935.72 285.83 1934.89 286.379 1933.89 286.773C1932.9 287.159 1931.77 287.352 1930.49 287.352ZM1954.83 273.807L1951.75 274.352C1951.62 273.958 1951.42 273.583 1951.14 273.227C1950.87 272.871 1950.5 272.58 1950.03 272.352C1949.56 272.125 1948.97 272.011 1948.26 272.011C1947.3 272.011 1946.5 272.227 1945.86 272.659C1945.21 273.083 1944.89 273.633 1944.89 274.307C1944.89 274.89 1945.11 275.36 1945.54 275.716C1945.97 276.072 1946.67 276.364 1947.63 276.591L1950.4 277.227C1952.01 277.598 1953.2 278.17 1953.99 278.943C1954.78 279.716 1955.17 280.72 1955.17 281.955C1955.17 283 1954.87 283.932 1954.26 284.75C1953.67 285.561 1952.83 286.197 1951.75 286.659C1950.68 287.121 1949.45 287.352 1948.04 287.352C1946.08 287.352 1944.49 286.936 1943.25 286.102C1942.02 285.261 1941.26 284.068 1940.98 282.523L1944.26 282.023C1944.47 282.879 1944.89 283.527 1945.53 283.966C1946.16 284.398 1946.99 284.614 1948.01 284.614C1949.13 284.614 1950.02 284.383 1950.68 283.92C1951.35 283.451 1951.68 282.879 1951.68 282.205C1951.68 281.659 1951.48 281.201 1951.07 280.83C1950.67 280.458 1950.05 280.178 1949.22 279.989L1946.26 279.341C1944.64 278.97 1943.43 278.379 1942.65 277.568C1941.88 276.758 1941.49 275.731 1941.49 274.489C1941.49 273.458 1941.78 272.557 1942.36 271.784C1942.93 271.011 1943.73 270.409 1944.74 269.977C1945.76 269.538 1946.92 269.318 1948.23 269.318C1950.12 269.318 1951.6 269.727 1952.68 270.545C1953.77 271.356 1954.48 272.443 1954.83 273.807Z" fill="#505050"/>
<path d="M2245.11 16H2230.89L2230.74 16C2224.16 16 2219.02 15.9999 2215.02 16.5385C2210.92 17.089 2207.71 18.235 2205.2 20.7514C2202.68 23.2677 2201.53 26.4776 2200.98 30.5723C2200.44 34.5783 2200.44 39.7166 2200.44 46.2908L2200.44 46.4444V117.556L2200.44 117.709C2200.44 124.283 2200.44 129.422 2200.98 133.428C2201.53 137.522 2202.68 140.732 2205.2 143.249C2207.71 145.765 2210.92 146.911 2215.02 147.461C2219.02 148 2224.16 148 2230.74 148H2230.89H2245.11H2245.26C2251.84 148 2256.98 148 2260.98 147.461C2265.08 146.911 2268.29 145.765 2270.8 143.249C2273.32 140.732 2274.47 137.522 2275.02 133.428C2275.56 129.422 2275.56 124.283 2275.56 117.709V117.556V46.4444V46.2907C2275.56 39.7165 2275.56 34.5783 2275.02 30.5723C2274.47 26.4776 2273.32 23.2677 2270.8 20.7514C2268.29 18.235 2265.08 17.089 2260.98 16.5385C2256.98 15.9999 2251.84 16 2245.26 16L2245.11 16Z" stroke="#1B1B1B" stroke-width="4"/>
<path d="M2202.44 110.445H2273.56" stroke="#1B1B1B" stroke-width="4"/>
<rect x="2144" y="178" width="188" height="46" rx="23" fill="#FBBF7D"/>
<path d="M2164.5 190.636H2168.22L2174.71 206.466H2174.95L2181.43 190.636H2185.16V211H2182.23V196.264H2182.04L2176.04 210.97H2173.61L2167.61 196.254H2167.42V211H2164.5V190.636ZM2195.82 211.308C2194.39 211.308 2193.14 210.98 2192.07 210.324C2191 209.668 2190.17 208.75 2189.58 207.57C2188.99 206.39 2188.7 205.011 2188.7 203.433C2188.7 201.849 2188.99 200.464 2189.58 199.277C2190.17 198.09 2191 197.169 2192.07 196.513C2193.14 195.857 2194.39 195.528 2195.82 195.528C2197.25 195.528 2198.5 195.857 2199.57 196.513C2200.63 197.169 2201.46 198.09 2202.05 199.277C2202.64 200.464 2202.94 201.849 2202.94 203.433C2202.94 205.011 2202.64 206.39 2202.05 207.57C2201.46 208.75 2200.63 209.668 2199.57 210.324C2198.5 210.98 2197.25 211.308 2195.82 211.308ZM2195.83 208.812C2196.76 208.812 2197.53 208.567 2198.14 208.077C2198.75 207.586 2199.2 206.933 2199.49 206.118C2199.79 205.303 2199.94 204.404 2199.94 203.423C2199.94 202.449 2199.79 201.554 2199.49 200.739C2199.2 199.917 2198.75 199.257 2198.14 198.76C2197.53 198.263 2196.76 198.014 2195.83 198.014C2194.89 198.014 2194.12 198.263 2193.5 198.76C2192.89 199.257 2192.44 199.917 2192.14 200.739C2191.85 201.554 2191.7 202.449 2191.7 203.423C2191.7 204.404 2191.85 205.303 2192.14 206.118C2192.44 206.933 2192.89 207.586 2193.5 208.077C2194.12 208.567 2194.89 208.812 2195.83 208.812ZM2206.5 211V190.636H2209.47V198.203H2209.65C2209.82 197.885 2210.07 197.517 2210.39 197.099C2210.72 196.682 2211.17 196.317 2211.75 196.006C2212.32 195.688 2213.08 195.528 2214.03 195.528C2215.26 195.528 2216.37 195.84 2217.33 196.463C2218.3 197.086 2219.06 197.984 2219.61 199.158C2220.17 200.331 2220.45 201.743 2220.45 203.393C2220.45 205.044 2220.17 206.459 2219.62 207.639C2219.07 208.812 2218.31 209.717 2217.35 210.354C2216.39 210.983 2215.29 211.298 2214.06 211.298C2213.13 211.298 2212.37 211.143 2211.78 210.831C2211.2 210.519 2210.74 210.155 2210.41 209.737C2210.08 209.32 2209.83 208.948 2209.65 208.624H2209.4V211H2206.5ZM2209.41 203.364C2209.41 204.437 2209.56 205.379 2209.88 206.188C2210.19 206.996 2210.64 207.629 2211.23 208.087C2211.82 208.537 2212.54 208.763 2213.4 208.763C2214.28 208.763 2215.03 208.527 2215.62 208.057C2216.22 207.58 2216.67 206.933 2216.98 206.118C2217.29 205.303 2217.44 204.384 2217.44 203.364C2217.44 202.356 2217.29 201.451 2216.99 200.649C2216.69 199.847 2216.24 199.214 2215.63 198.75C2215.04 198.286 2214.29 198.054 2213.4 198.054C2212.53 198.054 2211.8 198.276 2211.21 198.72C2210.62 199.164 2210.17 199.784 2209.87 200.58C2209.56 201.375 2209.41 202.303 2209.41 203.364ZM2223.78 211V195.727H2226.76V211H2223.78ZM2225.29 193.371C2224.77 193.371 2224.32 193.198 2223.95 192.854C2223.59 192.502 2223.41 192.085 2223.41 191.601C2223.41 191.11 2223.59 190.693 2223.95 190.348C2224.32 189.997 2224.77 189.821 2225.29 189.821C2225.8 189.821 2226.24 189.997 2226.61 190.348C2226.98 190.693 2227.16 191.11 2227.16 191.601C2227.16 192.085 2226.98 192.502 2226.61 192.854C2226.24 193.198 2225.8 193.371 2225.29 193.371ZM2233.73 190.636V211H2230.76V190.636H2233.73ZM2244.31 211.308C2242.81 211.308 2241.51 210.987 2240.42 210.344C2239.34 209.694 2238.51 208.783 2237.92 207.609C2237.33 206.429 2237.04 205.047 2237.04 203.463C2237.04 201.899 2237.33 200.52 2237.92 199.327C2238.51 198.134 2239.33 197.202 2240.38 196.533C2241.44 195.863 2242.68 195.528 2244.1 195.528C2244.96 195.528 2245.8 195.671 2246.61 195.956C2247.42 196.241 2248.14 196.688 2248.79 197.298C2249.43 197.908 2249.94 198.7 2250.31 199.675C2250.68 200.643 2250.86 201.819 2250.86 203.205V204.259H2238.72V202.031H2247.95C2247.95 201.249 2247.79 200.556 2247.47 199.953C2247.16 199.343 2246.71 198.863 2246.13 198.511C2245.56 198.16 2244.89 197.984 2244.12 197.984C2243.29 197.984 2242.56 198.19 2241.94 198.601C2241.32 199.005 2240.84 199.536 2240.5 200.192C2240.17 200.841 2240.01 201.547 2240.01 202.31V204.05C2240.01 205.071 2240.19 205.939 2240.54 206.655C2240.91 207.371 2241.41 207.918 2242.06 208.295C2242.71 208.667 2243.47 208.852 2244.34 208.852C2244.9 208.852 2245.42 208.773 2245.88 208.614C2246.35 208.448 2246.75 208.203 2247.09 207.878C2247.42 207.553 2247.68 207.152 2247.86 206.675L2250.68 207.182C2250.45 208.01 2250.05 208.736 2249.46 209.359C2248.89 209.976 2248.16 210.456 2247.28 210.801C2246.42 211.139 2245.43 211.308 2244.31 211.308ZM2263.53 211H2260.27L2267.6 190.636H2271.15L2278.48 211H2275.21L2269.46 194.335H2269.3L2263.53 211ZM2264.08 203.026H2274.66V205.611H2264.08V203.026ZM2281.18 216.727V195.727H2284.08V198.203H2284.33C2284.5 197.885 2284.75 197.517 2285.08 197.099C2285.4 196.682 2285.85 196.317 2286.43 196.006C2287 195.688 2287.77 195.528 2288.72 195.528C2289.95 195.528 2291.05 195.84 2292.02 196.463C2292.98 197.086 2293.74 197.984 2294.29 199.158C2294.85 200.331 2295.13 201.743 2295.13 203.393C2295.13 205.044 2294.85 206.459 2294.3 207.639C2293.75 208.812 2293 209.717 2292.04 210.354C2291.08 210.983 2289.98 211.298 2288.75 211.298C2287.82 211.298 2287.06 211.143 2286.47 210.831C2285.88 210.519 2285.43 210.155 2285.1 209.737C2284.76 209.32 2284.51 208.948 2284.33 208.624H2284.15V216.727H2281.18ZM2284.09 203.364C2284.09 204.437 2284.25 205.379 2284.56 206.188C2284.87 206.996 2285.32 207.629 2285.91 208.087C2286.5 208.537 2287.22 208.763 2288.08 208.763C2288.97 208.763 2289.71 208.527 2290.31 208.057C2290.9 207.58 2291.35 206.933 2291.66 206.118C2291.97 205.303 2292.13 204.384 2292.13 203.364C2292.13 202.356 2291.97 201.451 2291.67 200.649C2291.37 199.847 2290.92 199.214 2290.32 198.75C2289.72 198.286 2288.97 198.054 2288.08 198.054C2287.22 198.054 2286.49 198.276 2285.89 198.72C2285.3 199.164 2284.85 199.784 2284.55 200.58C2284.24 201.375 2284.09 202.303 2284.09 203.364ZM2298.46 216.727V195.727H2301.36V198.203H2301.61C2301.78 197.885 2302.03 197.517 2302.36 197.099C2302.68 196.682 2303.13 196.317 2303.71 196.006C2304.29 195.688 2305.05 195.528 2306 195.528C2307.23 195.528 2308.33 195.84 2309.3 196.463C2310.27 197.086 2311.02 197.984 2311.57 199.158C2312.13 200.331 2312.41 201.743 2312.41 203.393C2312.41 205.044 2312.13 206.459 2311.58 207.639C2311.03 208.812 2310.28 209.717 2309.32 210.354C2308.36 210.983 2307.26 211.298 2306.03 211.298C2305.1 211.298 2304.34 211.143 2303.75 210.831C2303.17 210.519 2302.71 210.155 2302.38 209.737C2302.05 209.32 2301.79 208.948 2301.61 208.624H2301.43V216.727H2298.46ZM2301.37 203.364C2301.37 204.437 2301.53 205.379 2301.84 206.188C2302.15 206.996 2302.6 207.629 2303.19 208.087C2303.78 208.537 2304.5 208.763 2305.36 208.763C2306.25 208.763 2306.99 208.527 2307.59 208.057C2308.18 207.58 2308.63 206.933 2308.94 206.118C2309.25 205.303 2309.41 204.384 2309.41 203.364C2309.41 202.356 2309.25 201.451 2308.95 200.649C2308.65 199.847 2308.2 199.214 2307.6 198.75C2307 198.286 2306.25 198.054 2305.36 198.054C2304.5 198.054 2303.77 198.276 2303.17 198.72C2302.58 199.164 2302.14 199.784 2301.83 200.58C2301.53 201.375 2301.37 202.303 2301.37 203.364Z" fill="white"/>
<path d="M2163.18 287V263.727H2171.48C2173.29 263.727 2174.79 264.057 2175.98 264.716C2177.17 265.375 2178.06 266.277 2178.65 267.42C2179.24 268.557 2179.53 269.837 2179.53 271.261C2179.53 272.693 2179.23 273.981 2178.64 275.125C2178.05 276.261 2177.15 277.163 2175.95 277.83C2174.77 278.489 2173.27 278.818 2171.47 278.818H2165.76V275.841H2171.15C2172.29 275.841 2173.22 275.644 2173.93 275.25C2174.64 274.848 2175.17 274.303 2175.5 273.614C2175.83 272.924 2176 272.14 2176 271.261C2176 270.383 2175.83 269.602 2175.5 268.92C2175.17 268.239 2174.64 267.705 2173.92 267.318C2173.21 266.932 2172.27 266.739 2171.1 266.739H2166.69V287H2163.18ZM2190.68 287.352C2188.96 287.352 2187.48 286.985 2186.24 286.25C2185 285.508 2184.05 284.466 2183.38 283.125C2182.71 281.777 2182.38 280.197 2182.38 278.386C2182.38 276.598 2182.71 275.023 2183.38 273.659C2184.05 272.295 2184.99 271.231 2186.19 270.466C2187.41 269.701 2188.82 269.318 2190.44 269.318C2191.43 269.318 2192.38 269.481 2193.31 269.807C2194.23 270.133 2195.06 270.644 2195.8 271.341C2196.53 272.038 2197.11 272.943 2197.53 274.057C2197.96 275.163 2198.17 276.508 2198.17 278.091V279.295H2184.3V276.75H2194.84C2194.84 275.856 2194.66 275.064 2194.3 274.375C2193.93 273.678 2193.42 273.129 2192.76 272.727C2192.11 272.326 2191.34 272.125 2190.47 272.125C2189.51 272.125 2188.68 272.36 2187.97 272.83C2187.26 273.292 2186.72 273.898 2186.33 274.648C2185.95 275.39 2185.76 276.197 2185.76 277.068V279.057C2185.76 280.223 2185.97 281.216 2186.38 282.034C2186.79 282.852 2187.37 283.477 2188.11 283.909C2188.86 284.333 2189.72 284.545 2190.72 284.545C2191.36 284.545 2191.95 284.455 2192.48 284.273C2193.01 284.083 2193.47 283.803 2193.85 283.432C2194.24 283.061 2194.53 282.602 2194.74 282.057L2197.95 282.636C2197.7 283.583 2197.23 284.413 2196.57 285.125C2195.91 285.83 2195.08 286.379 2194.08 286.773C2193.09 287.159 2191.95 287.352 2190.68 287.352ZM2210.09 269.545V272.273H2200.55V269.545H2210.09ZM2203.11 265.364H2206.51V281.875C2206.51 282.534 2206.61 283.03 2206.8 283.364C2207 283.689 2207.25 283.913 2207.57 284.034C2207.88 284.148 2208.23 284.205 2208.6 284.205C2208.87 284.205 2209.11 284.186 2209.32 284.148C2209.52 284.11 2209.68 284.08 2209.79 284.057L2210.41 286.864C2210.21 286.939 2209.93 287.015 2209.57 287.091C2209.2 287.174 2208.75 287.22 2208.2 287.227C2207.31 287.242 2206.47 287.083 2205.7 286.75C2204.93 286.417 2204.3 285.902 2203.83 285.205C2203.35 284.508 2203.11 283.633 2203.11 282.58V265.364ZM2229.67 287.352C2228.03 287.352 2226.6 286.977 2225.38 286.227C2224.16 285.477 2223.22 284.428 2222.54 283.08C2221.87 281.731 2221.53 280.155 2221.53 278.352C2221.53 276.542 2221.87 274.958 2222.54 273.602C2223.22 272.246 2224.16 271.193 2225.38 270.443C2226.6 269.693 2228.03 269.318 2229.67 269.318C2231.3 269.318 2232.73 269.693 2233.95 270.443C2235.17 271.193 2236.12 272.246 2236.79 273.602C2237.47 274.958 2237.8 276.542 2237.8 278.352C2237.8 280.155 2237.47 281.731 2236.79 283.08C2236.12 284.428 2235.17 285.477 2233.95 286.227C2232.73 286.977 2231.3 287.352 2229.67 287.352ZM2229.68 284.5C2230.74 284.5 2231.62 284.22 2232.32 283.659C2233.01 283.098 2233.53 282.352 2233.86 281.42C2234.2 280.489 2234.37 279.462 2234.37 278.341C2234.37 277.227 2234.2 276.205 2233.86 275.273C2233.53 274.333 2233.01 273.58 2232.32 273.011C2231.62 272.443 2230.74 272.159 2229.68 272.159C2228.61 272.159 2227.72 272.443 2227.02 273.011C2226.32 273.58 2225.8 274.333 2225.46 275.273C2225.13 276.205 2224.96 277.227 2224.96 278.341C2224.96 279.462 2225.13 280.489 2225.46 281.42C2225.8 282.352 2226.32 283.098 2227.02 283.659C2227.72 284.22 2228.61 284.5 2229.68 284.5ZM2244.85 287L2239.71 269.545H2243.22L2246.64 282.364H2246.82L2250.25 269.545H2253.76L2257.17 282.307H2257.34L2260.74 269.545H2264.25L2259.12 287H2255.66L2252.11 274.398H2251.85L2248.3 287H2244.85ZM2270.87 276.636V287H2267.47V269.545H2270.73V272.386H2270.95C2271.35 271.462 2271.98 270.72 2272.84 270.159C2273.7 269.598 2274.79 269.318 2276.1 269.318C2277.29 269.318 2278.33 269.568 2279.22 270.068C2280.12 270.561 2280.81 271.295 2281.3 272.273C2281.79 273.25 2282.04 274.458 2282.04 275.898V287H2278.64V276.307C2278.64 275.042 2278.31 274.053 2277.65 273.341C2276.99 272.621 2276.09 272.261 2274.94 272.261C2274.15 272.261 2273.45 272.432 2272.84 272.773C2272.23 273.114 2271.75 273.614 2271.39 274.273C2271.04 274.924 2270.87 275.712 2270.87 276.636ZM2294.12 287.352C2292.4 287.352 2290.92 286.985 2289.68 286.25C2288.44 285.508 2287.49 284.466 2286.81 283.125C2286.15 281.777 2285.81 280.197 2285.81 278.386C2285.81 276.598 2286.15 275.023 2286.81 273.659C2287.49 272.295 2288.43 271.231 2289.63 270.466C2290.84 269.701 2292.26 269.318 2293.88 269.318C2294.87 269.318 2295.82 269.481 2296.74 269.807C2297.67 270.133 2298.5 270.644 2299.23 271.341C2299.97 272.038 2300.55 272.943 2300.97 274.057C2301.4 275.163 2301.61 276.508 2301.61 278.091V279.295H2287.73V276.75H2298.28C2298.28 275.856 2298.1 275.064 2297.73 274.375C2297.37 273.678 2296.86 273.129 2296.2 272.727C2295.55 272.326 2294.78 272.125 2293.9 272.125C2292.95 272.125 2292.12 272.36 2291.4 272.83C2290.7 273.292 2290.15 273.898 2289.77 274.648C2289.39 275.39 2289.2 276.197 2289.2 277.068V279.057C2289.2 280.223 2289.4 281.216 2289.81 282.034C2290.23 282.852 2290.81 283.477 2291.55 283.909C2292.29 284.333 2293.16 284.545 2294.15 284.545C2294.8 284.545 2295.38 284.455 2295.91 284.273C2296.45 284.083 2296.9 283.803 2297.29 283.432C2297.68 283.061 2297.97 282.602 2298.18 282.057L2301.39 282.636C2301.13 283.583 2300.67 284.413 2300.01 285.125C2299.35 285.83 2298.52 286.379 2297.52 286.773C2296.52 287.159 2295.39 287.352 2294.12 287.352ZM2305.38 287V269.545H2308.66V272.318H2308.84C2309.16 271.379 2309.72 270.64 2310.53 270.102C2311.34 269.557 2312.25 269.284 2313.28 269.284C2313.49 269.284 2313.74 269.292 2314.03 269.307C2314.32 269.322 2314.55 269.341 2314.72 269.364V272.614C2314.58 272.576 2314.34 272.534 2313.99 272.489C2313.64 272.436 2313.29 272.409 2312.95 272.409C2312.14 272.409 2311.43 272.58 2310.8 272.92C2310.18 273.254 2309.68 273.72 2309.32 274.318C2308.96 274.909 2308.78 275.583 2308.78 276.341V287H2305.38Z" fill="#505050"/>
</svg>
