<svg width="118" height="57" viewBox="0 0 118 57" fill="none" xmlns="http://www.w3.org/2000/svg">
<g clip-path="url(#clip0_2268_15474)">
<path d="M114.83 29.6461C114.811 29.6312 114.796 29.6123 114.785 29.5906C114.775 29.569 114.769 29.5451 114.768 29.5209L114.595 27.9623L114.075 28.0124C113.958 28.0124 113.896 27.9748 113.89 27.8747C113.884 27.7745 113.933 27.7119 114.045 27.6994L115.461 27.5742C115.579 27.5742 115.64 27.5742 115.647 27.7119C115.653 27.8496 115.603 27.8684 115.492 27.8809L114.966 27.931L115.109 29.4959C115.112 29.5212 115.111 29.547 115.105 29.5718C115.098 29.5965 115.087 29.6197 115.071 29.6399C115.036 29.6751 114.991 29.6972 114.941 29.7025C114.9 29.6951 114.861 29.6755 114.83 29.6461Z" fill="#35B9C5"/>
<path d="M117.781 27.3809C117.799 27.3976 117.814 27.4178 117.825 27.4403C117.835 27.4629 117.841 27.4874 117.843 27.5124L117.997 29.2337C118.002 29.2571 118.001 29.2811 117.994 29.304C117.988 29.3268 117.976 29.3478 117.96 29.3652C117.948 29.3837 117.931 29.3987 117.912 29.4086C117.892 29.4185 117.871 29.4229 117.849 29.4215C117.829 29.4298 117.808 29.434 117.787 29.434C117.766 29.434 117.745 29.4298 117.725 29.4215C117.692 29.3881 117.672 29.3435 117.669 29.2963L117.564 28.1008L117.156 29.0773C117.144 29.1152 117.122 29.1495 117.094 29.1774C117.069 29.2019 117.036 29.2172 117.001 29.2212C116.969 29.2306 116.935 29.2306 116.902 29.2212C116.867 29.2017 116.839 29.1709 116.822 29.1336L116.247 28.2573L116.352 29.4403C116.356 29.4632 116.355 29.4866 116.349 29.5092C116.344 29.5317 116.334 29.553 116.321 29.5718C116.307 29.5899 116.289 29.6045 116.269 29.6143C116.248 29.6241 116.226 29.6288 116.203 29.6281C116.184 29.6364 116.163 29.6406 116.141 29.6406C116.12 29.6406 116.099 29.6364 116.08 29.6281C116.047 29.5946 116.027 29.5501 116.024 29.5029L115.876 27.7815C115.869 27.7334 115.88 27.6844 115.906 27.6438C115.938 27.6076 115.982 27.5852 116.03 27.5812C116.068 27.5792 116.105 27.5881 116.138 27.607C116.171 27.6258 116.198 27.6538 116.216 27.6876L116.964 28.8582L117.49 27.575C117.497 27.5449 117.512 27.5171 117.532 27.494C117.553 27.471 117.578 27.4534 117.607 27.4429C117.636 27.4323 117.667 27.4292 117.697 27.4337C117.727 27.4381 117.756 27.4501 117.781 27.4686V27.3809Z" fill="#35B9C5"/>
<path d="M25.4902 36.2561C26.5834 36.2561 27.4696 35.3593 27.4696 34.253C27.4696 33.1468 26.5834 32.25 25.4902 32.25C24.397 32.25 23.5107 33.1468 23.5107 34.253C23.5107 35.3593 24.397 36.2561 25.4902 36.2561Z" fill="#35B9C5"/>
<path d="M35.0343 26.8849C32.56 27.5735 31.5518 29.9584 32.2569 32.3432C33.1105 35.2164 36.3025 37.2757 38.7273 38.728C39.6922 36.0051 41.2571 32.7439 40.4406 29.8833C40.3042 29.3125 40.0516 28.7768 39.6988 28.3106C39.3461 27.8443 38.9009 27.4577 38.392 27.1755C37.8832 26.8932 37.3218 26.7216 36.7436 26.6716C36.1654 26.6216 35.5831 26.6942 35.0343 26.8849ZM36.8901 32.675C36.5337 32.7957 36.1506 32.8113 35.7858 32.7199C35.4209 32.6285 35.0895 32.4338 34.8299 32.1587C34.5704 31.8836 34.3935 31.5394 34.3202 31.1664C34.2469 30.7934 34.28 30.4069 34.4157 30.0523C34.4992 29.7541 34.6568 29.4825 34.8733 29.2633C35.0899 29.0442 35.3582 28.8848 35.6529 28.8004C35.9228 28.7037 36.2116 28.6732 36.4955 28.7113C36.7793 28.7494 37.0502 28.855 37.286 29.0194C37.6967 29.2801 37.9965 29.6863 38.1271 30.1587C38.2059 30.4098 38.2348 30.6741 38.2124 30.9366C38.19 31.1991 38.1167 31.4545 37.9966 31.6882C37.8765 31.922 37.7121 32.1295 37.5127 32.2988C37.3133 32.4681 37.0827 32.5959 36.8343 32.675H36.8901Z" fill="#35B9C5"/>
<path d="M46.3355 44.8629C46.2543 44.8091 46.1634 44.7719 46.068 44.7537C45.9726 44.7354 45.8745 44.7364 45.7795 44.7564C45.6844 44.7765 45.5942 44.8153 45.5139 44.8706C45.4337 44.926 45.365 44.9967 45.3118 45.0789C45.2586 45.1611 45.2219 45.2532 45.2038 45.3497C45.1858 45.4463 45.1867 45.5455 45.2065 45.6417C45.2263 45.7379 45.2646 45.8292 45.3193 45.9104C45.374 45.9916 45.444 46.061 45.5252 46.1148C45.8379 46.5389 46.0226 47.0454 46.0572 47.5733C46.2304 49.351 45.7974 50.5091 44.7705 51.0036C43.4344 51.6609 41.2138 51.2415 38.8508 50.0522C39.4694 48.6187 40.422 48.0992 40.8983 46.4467C41.0162 45.9936 40.99 45.5145 40.8235 45.0774C40.6569 44.6402 40.3584 44.2673 39.9704 44.0116C38.3065 43.2104 34.0136 44.5876 32.8631 46.2714C32.6132 46.6235 32.5061 47.059 32.5636 47.4886C32.6211 47.9181 32.8389 48.3089 33.1724 48.5811C34.4652 49.833 35.5291 49.8331 36.9271 50.6781C36.7106 51.0912 36.4941 51.4792 36.2714 51.8485C35.0342 53.9204 33.6487 55.1787 32.362 55.4854C31.0754 55.7921 29.8877 55.2225 28.6506 53.8454C28.2397 53.3402 27.9915 52.7198 27.9393 52.0676C27.9073 51.8813 27.8058 51.7145 27.6559 51.6016C27.506 51.4886 27.319 51.4383 27.1334 51.4608C26.9478 51.4833 26.7778 51.5769 26.6585 51.7224C26.5391 51.868 26.4794 52.0543 26.4918 52.243C26.5903 53.196 26.9819 54.0936 27.6114 54.8093C29.2321 56.5933 30.9455 57.3132 32.6899 56.875L32.9002 56.8186C34.5208 56.3554 36.0734 54.9408 37.5023 52.581C37.7436 52.1867 37.9786 51.7735 38.2075 51.3291C40.6818 52.581 43.0324 53.0253 44.7582 52.5308C44.9705 52.4638 45.1773 52.3801 45.3767 52.2804C46.4963 51.7296 47.7706 50.4026 47.4737 47.3667C47.4675 47.0475 47.2324 45.4889 46.3355 44.8629Z" fill="#35B9C5"/>
<path d="M23.8138 47.9924C23.6831 48.034 23.5436 48.0385 23.4105 48.0054C23.2774 47.9723 23.1559 47.9028 23.0591 47.8046C20.5424 45.1209 18.4384 42.0698 16.8178 38.7534C16.0008 39.5655 15.1126 40.3009 14.1641 40.9505C8.9743 44.5559 3.84636 45.4448 1.4092 43.1663C-0.223828 41.639 -1.25684 38.215 3.08552 30.5597C6.5124 24.5317 9.95783 21.2392 13.329 20.7823C14.5512 20.6017 15.7975 20.8562 16.8549 21.5021C17.9869 20.2064 21.0797 17.2957 25.6942 17.8153C25.7913 17.8264 25.8853 17.8567 25.9708 17.9045C26.0562 17.9524 26.1316 18.0168 26.1925 18.0941C26.2534 18.1714 26.2986 18.2601 26.3256 18.3551C26.3526 18.4501 26.3609 18.5495 26.3499 18.6478C26.339 18.746 26.309 18.8411 26.2617 18.9276C26.2144 19.0141 26.1508 19.0903 26.0744 19.152C25.998 19.2136 25.9103 19.2594 25.8165 19.2867C25.7226 19.314 25.6243 19.3224 25.5272 19.3113C20.6343 18.7605 17.7147 22.7978 17.591 22.9543L17.0961 23.6867L16.4776 23.0607C16.0654 22.7208 15.5859 22.4745 15.0715 22.3384C14.5571 22.2024 14.0198 22.1797 13.496 22.272C11.5166 22.56 8.33099 24.3627 4.3907 31.3045C1.42157 36.5312 0.679285 40.4434 2.42984 42.0521C4.28555 43.786 8.87533 42.8033 13.3352 39.7048C14.3712 39.0042 15.3239 38.185 16.1745 37.2636C15.8811 36.5431 15.6251 35.8077 15.4074 35.0602C14.3002 31.3045 14.3002 29.1387 15.4074 28.3563C15.6843 28.172 16.0098 28.077 16.341 28.0837C16.6723 28.0904 16.9938 28.1985 17.2631 28.3939C17.9532 29.0019 18.5071 29.752 18.8879 30.5939C19.2687 31.4359 19.4677 32.3503 19.4714 33.2763C19.4156 34.8201 18.864 36.3034 17.9003 37.5015C19.4823 40.8912 21.58 44.0088 24.1169 46.7405C24.1861 46.8103 24.241 46.8932 24.2785 46.9845C24.3159 47.0758 24.3352 47.1737 24.3352 47.2726C24.3352 47.3714 24.3159 47.4693 24.2785 47.5606C24.241 47.6519 24.1861 47.7348 24.1169 47.8046C24.0332 47.8922 23.9289 47.9568 23.8138 47.9924ZM16.2487 29.5894C16.2487 29.5894 15.5497 30.2842 16.8178 34.6409C16.9353 35.0415 17.0652 35.4421 17.2075 35.8364C17.6655 35.0796 17.9292 34.2189 17.9745 33.3326C17.978 32.628 17.8368 31.9304 17.5599 31.2839C17.2831 30.6374 16.8766 30.0562 16.3662 29.5769C16.3266 29.5745 16.2869 29.5787 16.2487 29.5894Z" fill="#35B9C5"/>
<path d="M46.3171 40.7623C46.203 40.7878 46.0848 40.7878 45.9707 40.7623C45.8732 40.7471 45.7797 40.7125 45.6957 40.6603C45.6116 40.6082 45.5386 40.5396 45.4811 40.4586C45.4235 40.3776 45.3824 40.2858 45.3603 40.1885C45.3381 40.0913 45.3354 39.9906 45.3521 39.8922C45.87 36.1841 45.8179 32.4172 45.1975 28.7253C43.7213 28.3065 42.4191 27.4148 41.4861 26.1839C40.965 25.4237 40.609 24.5604 40.4416 23.6508C40.2742 22.7413 40.2992 21.8062 40.5149 20.9071C40.6313 20.5913 40.8397 20.3188 41.1125 20.1254C41.3854 19.932 41.7097 19.827 42.0428 19.8242C43.3974 19.8242 44.6098 21.5644 45.8594 25.3076C46.1068 26.0462 46.3109 26.8036 46.4779 27.5547C47.698 27.8129 48.9433 27.9284 50.1893 27.899C55.6018 27.8301 59.9071 25.9711 60.439 23.4673C60.9339 21.1512 58.1194 18.3657 52.7255 15.8181C45.5501 12.4129 41.8881 12.8198 40.1128 13.7525C39.6407 13.9837 39.2225 14.3136 38.8855 14.7204C38.5486 15.1271 38.3007 15.6015 38.1582 16.1123L38.0035 16.9887L37.1808 16.6945C36.9829 16.6256 32.3003 15.0232 28.6074 18.3282C28.459 18.4618 28.2641 18.5303 28.0658 18.5186C27.8674 18.5068 27.6818 18.4158 27.5497 18.2656C27.4176 18.1154 27.35 17.9182 27.3616 17.7174C27.3732 17.5167 27.4631 17.3289 27.6115 17.1952C31.0879 14.0655 35.2694 14.6914 36.9334 15.0607C37.4309 13.9168 38.3055 12.9832 39.4077 12.4192C42.4201 10.8293 47.1089 11.5116 53.3379 14.4473C61.2494 18.203 62.3504 21.5769 61.8803 23.774C61.1875 27.0602 56.4864 29.3199 50.1955 29.4075C49.0501 29.4325 47.9048 29.3486 46.7748 29.1572C47.3284 32.8092 47.3409 36.5244 46.812 40.1802C46.7882 40.313 46.7298 40.4371 46.6428 40.5394C46.5558 40.6418 46.4434 40.7187 46.3171 40.7623ZM42.0428 21.3202C42.0059 21.3499 41.9745 21.386 41.95 21.4266C41.8119 22.1075 41.8131 22.8098 41.9535 23.4902C42.094 24.1706 42.3706 24.8146 42.7665 25.3827C43.3039 26.0851 44.0083 26.6385 44.814 26.9914C44.7026 26.5845 44.5851 26.1839 44.449 25.7833C43.0139 21.483 42.0552 21.3202 42.0428 21.3202Z" fill="#35B9C5"/>
<path d="M47.4063 43.2854C47.3903 43.2715 47.3776 43.2542 47.369 43.2347C47.3605 43.2152 47.3563 43.194 47.3568 43.1727L47.3197 42.1649H46.998C46.899 42.1649 46.8496 42.1274 46.8496 42.046C46.8496 41.9646 46.8929 41.9146 46.9857 41.9146L47.9321 41.877C48.031 41.877 48.0805 41.877 48.0867 41.9959C48.0929 42.1149 48.0434 42.1211 47.9444 42.1274H47.6228L47.6661 43.1352C47.6678 43.1555 47.6654 43.176 47.659 43.1954C47.6526 43.2147 47.6424 43.2326 47.629 43.2478C47.5994 43.2781 47.5596 43.296 47.5176 43.2979C47.4803 43.3086 47.4404 43.3041 47.4063 43.2854Z" fill="#35B9C5"/>
<path d="M49.5772 41.852C49.6039 41.8834 49.6192 41.9232 49.6205 41.9646L49.6638 43.0976C49.6657 43.1156 49.6639 43.1337 49.6586 43.1509C49.6533 43.1682 49.6445 43.1841 49.6328 43.1978C49.621 43.2125 49.6058 43.2242 49.5886 43.2319C49.5714 43.2395 49.5526 43.2428 49.5339 43.2416C49.5016 43.2513 49.4672 43.2513 49.4349 43.2416C49.4094 43.2118 49.3942 43.1744 49.3916 43.1352V42.4341L49.1318 42.9787C49.1179 43.007 49.0991 43.0324 49.0761 43.0538C49.0517 43.0596 49.0263 43.0596 49.0019 43.0538C48.9758 43.0629 48.9475 43.0629 48.9215 43.0538C48.8934 43.0361 48.8718 43.0098 48.8596 42.9787L48.5565 42.4717V43.1665C48.5641 43.182 48.5681 43.1992 48.5681 43.2165C48.5681 43.2339 48.5641 43.2511 48.5565 43.2666C48.5447 43.2814 48.5295 43.2931 48.5123 43.3007C48.4951 43.3083 48.4763 43.3117 48.4575 43.3104C48.4278 43.3226 48.3945 43.3226 48.3648 43.3104C48.35 43.2972 48.3385 43.2807 48.331 43.2623C48.3235 43.2438 48.3202 43.2239 48.3215 43.204L48.2782 42.0773C48.2699 42.0597 48.2656 42.0405 48.2656 42.021C48.2656 42.0015 48.2699 41.9822 48.2782 41.9646C48.3062 41.9357 48.3435 41.918 48.3833 41.9146C48.4151 41.9146 48.4461 41.9241 48.4725 41.9419C48.4989 41.9597 48.5196 41.985 48.5318 42.0147L48.9648 42.7659L49.3297 41.9772C49.3407 41.9486 49.3592 41.9236 49.3832 41.9049C49.4072 41.8861 49.4357 41.8743 49.4658 41.8707C49.4998 41.8521 49.539 41.8455 49.5772 41.852Z" fill="#35B9C5"/>
<path d="M61.1574 7.0429C61.4932 7.58647 61.6451 8.22579 61.5904 8.86442C61.5782 9.3055 61.4639 9.73752 61.2565 10.1257C61.0492 10.5138 60.7546 10.8472 60.3965 11.0991C59.5137 11.6529 58.4712 11.8868 57.4398 11.7626L53.2149 11.4997C53.0566 11.5063 52.8988 11.4773 52.7529 11.4147C52.607 11.352 52.4767 11.2574 52.3714 11.1376C52.266 11.0179 52.1883 10.8759 52.1437 10.722C52.0992 10.5681 52.089 10.4061 52.1139 10.2478L52.6706 1.13391C52.6631 0.973184 52.6911 0.812786 52.7526 0.664381C52.814 0.515975 52.9074 0.383293 53.0259 0.275983C53.1444 0.168673 53.285 0.089431 53.4375 0.0440197C53.5901 -0.00139156 53.7507 -0.0118311 53.9077 0.0134604L57.9656 0.270101C58.9682 0.279483 59.9399 0.622644 60.7306 1.24659C61.0486 1.51727 61.2969 1.86205 61.4542 2.25129C61.6116 2.64053 61.6731 3.0626 61.6337 3.48123C61.612 4.04487 61.4125 4.58667 61.0646 5.02734C60.7102 5.4645 60.2303 5.77946 59.6914 5.92871C60.2873 6.12793 60.8022 6.5193 61.1574 7.0429ZM58.7326 9.54671C58.8989 9.42186 59.033 9.25821 59.1235 9.06968C59.2139 8.88115 59.2581 8.67331 59.2522 8.46381C59.2815 8.25487 59.2621 8.04187 59.1955 7.84187C59.1289 7.64188 59.017 7.46043 58.8687 7.31206C58.4528 7.00994 57.9516 6.85186 57.4398 6.86138L54.7799 6.69863L54.6005 9.63435L57.2604 9.79709C57.7642 9.87093 58.2784 9.78568 58.7326 9.55297V9.54671ZM54.8974 4.75818L57.2666 4.90215C57.7624 4.97401 58.268 4.88873 58.714 4.65803C58.8766 4.55154 59.0097 4.40481 59.1006 4.23174C59.1916 4.05868 59.2373 3.86499 59.2336 3.66902C59.2624 3.46998 59.2418 3.26683 59.1738 3.07781C59.1058 2.8888 58.9924 2.71984 58.8439 2.58612C58.4266 2.30498 57.9348 2.15873 57.4336 2.16674L55.0645 2.01651L54.8974 4.75818Z" fill="#35B9C5"/>
<path d="M65.3442 11.8756C64.7449 11.5096 64.2669 10.9714 63.9709 10.3295C63.6724 9.6228 63.541 8.85529 63.5871 8.08809C63.6333 7.3209 63.8558 6.5752 64.2369 5.91033C64.612 5.31666 65.1522 4.84845 65.7895 4.56453C66.4993 4.27385 67.2644 4.14771 68.0287 4.19537C68.7929 4.24303 69.537 4.46328 70.2061 4.83995C70.8065 5.20079 71.2868 5.73478 71.5855 6.37353C71.8808 7.08132 72.0099 7.84874 71.9626 8.61551C71.9154 9.38229 71.6932 10.1275 71.3133 10.7927C70.9401 11.391 70.3997 11.8638 69.7607 12.1511C69.056 12.4599 68.2871 12.5889 67.5215 12.5266C66.7535 12.4965 66.005 12.2727 65.3442 11.8756ZM69.5504 8.46421C69.6293 7.85455 69.5053 7.23566 69.1978 6.70529C69.0461 6.50861 68.8517 6.34987 68.6297 6.24133C68.4077 6.13279 68.164 6.07737 67.9174 6.07934C66.7359 6.00422 66.0988 6.70529 66.006 8.26391C65.9132 9.82253 66.4576 10.605 67.639 10.6738C68.8205 10.7427 69.4762 9.9978 69.569 8.46421H69.5504Z" fill="#35B9C5"/>
<path d="M75.644 12.52C75.0457 12.1509 74.5665 11.6137 74.2646 10.9739C73.9527 10.2715 73.8228 9.50025 73.8872 8.73297C73.9141 7.96228 74.1379 7.21178 74.5367 6.55466C74.9132 5.96063 75.4528 5.49072 76.0893 5.2026C76.7952 4.898 77.5641 4.77333 78.3286 4.83955C79.0946 4.86099 79.8432 5.07618 80.5059 5.4655C81.1061 5.82663 81.5864 6.36054 81.8854 6.99908C82.1806 7.70687 82.3097 8.47429 82.2625 9.24106C82.2152 10.0078 81.993 10.7531 81.6132 11.4183C81.2368 12.0139 80.6974 12.4859 80.0606 12.7766C79.3517 13.0713 78.586 13.1997 77.821 13.152C77.0561 13.1043 76.3118 12.8818 75.644 12.5012V12.52ZM79.8503 9.10854C79.9312 8.49803 79.8047 7.87781 79.4915 7.34962C79.3423 7.15161 79.1494 6.99181 78.928 6.88309C78.7067 6.77437 78.4632 6.71976 78.2172 6.72367C77.0337 6.64855 76.3966 7.37674 76.3059 8.90824C76.2151 10.4397 76.7574 11.243 77.9327 11.3182C79.1121 11.3766 79.7513 10.64 79.8503 9.10854Z" fill="#35B9C5"/>
<path d="M92.2031 12.8386C92.1836 13.1444 92.0458 13.43 91.8196 13.6336C91.7188 13.7401 91.5964 13.8233 91.4607 13.8773C91.3251 13.9313 91.1795 13.955 91.034 13.9466C90.7438 13.9219 90.4749 13.7824 90.2855 13.5585L86.9576 10.0281L86.803 12.5319C86.8041 12.6938 86.769 12.8539 86.7005 13.0002C86.6319 13.1465 86.5317 13.2753 86.4071 13.377C86.1433 13.5512 85.8308 13.6343 85.5164 13.614C85.202 13.5937 84.9026 13.471 84.6627 13.2643C84.5506 13.1496 84.4661 13.0103 84.4157 12.8573C84.3653 12.7042 84.3503 12.5416 84.372 12.3818L84.9411 3.03628C84.9417 2.87491 84.9782 2.71575 85.0478 2.57057C85.1174 2.42538 85.2183 2.29788 85.3432 2.1975C85.6058 2.02393 85.9166 1.94056 86.2297 1.95973C86.5427 1.97889 86.8414 2.09958 87.0814 2.30391C87.1928 2.42056 87.2773 2.56082 87.3286 2.71454C87.38 2.86826 87.3969 3.0316 87.3783 3.19276L86.9948 9.01412L90.4154 6.00329C90.5222 5.89822 90.6493 5.81671 90.7888 5.76391C90.9283 5.71112 91.0771 5.68819 91.2258 5.69657C91.3725 5.70455 91.516 5.7425 91.6479 5.80812C91.7797 5.87374 91.897 5.96568 91.9928 6.0784C92.0942 6.18631 92.1725 6.31435 92.2225 6.45441C92.2725 6.59448 92.2933 6.74353 92.2835 6.89214C92.2675 7.0432 92.222 7.18954 92.1498 7.32276C92.0777 7.45597 91.9801 7.57341 91.8629 7.66832L89.5927 9.60251L91.8567 12.0061C91.9703 12.1115 92.06 12.2404 92.1198 12.3841C92.1796 12.5278 92.208 12.6828 92.2031 12.8386Z" fill="#35B9C5"/>
<path d="M73.6393 15.8747C73.7898 15.8597 73.9418 15.8753 74.0862 15.9205C74.2306 15.9656 74.3647 16.0394 74.4807 16.1376C74.604 16.2258 74.7073 16.3395 74.7841 16.4711C74.8608 16.6028 74.9092 16.7493 74.926 16.9012C74.9536 17.1871 74.8741 17.4731 74.7033 17.7024L71.6104 22.2969L72.0558 26.5409C72.0856 26.713 72.0778 26.8896 72.0329 27.0583C71.9881 27.227 71.9072 27.3837 71.796 27.5174C71.5793 27.7649 71.2747 27.9157 70.9485 27.9367C70.6163 27.9846 70.2785 27.9041 70.0022 27.7114C69.8685 27.6005 69.759 27.4624 69.6813 27.306C69.6035 27.1497 69.5591 26.9786 69.5507 26.8038L69.1114 22.5661L65.1835 18.7102C65.0724 18.6158 64.9811 18.4999 64.9149 18.3693C64.8487 18.2387 64.8089 18.096 64.798 17.9497C64.787 17.8033 64.8051 17.6562 64.8511 17.517C64.8971 17.3778 64.9702 17.2493 65.066 17.1391C65.1558 17.0186 65.2691 16.9181 65.399 16.8438C65.5288 16.7695 65.6723 16.723 65.8206 16.7072C65.9824 16.6904 66.1458 16.7116 66.2981 16.7692C66.4504 16.8267 66.5876 16.919 66.699 17.0389L70.163 20.5004L72.8352 16.3879C72.9214 16.2458 73.0388 16.1256 73.1782 16.0366C73.3176 15.9476 73.4754 15.8922 73.6393 15.8747Z" fill="#35B9C5"/>
<path d="M78.0372 26.7102C77.3872 26.4503 76.8276 26.0016 76.4289 25.4208C76.0231 24.7759 75.7706 24.0446 75.6911 23.2844C75.6117 22.5241 75.7076 21.7556 75.9712 21.0391C76.2448 20.3888 76.7007 19.8339 77.2825 19.4429C77.9287 19.0253 78.6651 18.7718 79.429 18.7043C80.1905 18.6085 80.9636 18.7031 81.6806 18.9797C82.3283 19.2249 82.8885 19.661 83.2888 20.2316C83.6974 20.8753 83.9515 21.6068 84.031 22.3675C84.1105 23.1283 84.0131 23.8974 83.7466 24.6133C83.4738 25.2639 83.0204 25.8205 82.4414 26.2157C81.79 26.6257 81.055 26.8805 80.292 26.9607C79.529 27.041 78.758 26.9446 78.0372 26.6789V26.7102ZM81.6249 22.6415C81.6135 22.0293 81.3952 21.4394 81.0063 20.9702C80.8267 20.7967 80.6098 20.6674 80.3727 20.5925C80.1356 20.5176 79.8846 20.4991 79.6393 20.5383C78.464 20.6635 77.9547 21.4981 78.1114 23.0421C78.2681 24.5862 78.9362 25.2872 80.1156 25.1453C81.2826 24.9951 81.7857 24.1563 81.6249 22.629V22.6415Z" fill="#35B9C5"/>
<path d="M93.1806 17.5579C93.3019 17.6554 93.4016 17.7777 93.473 17.9169C93.5444 18.056 93.586 18.2088 93.595 18.3654L94.2136 24.3244C94.2363 24.477 94.2247 24.6327 94.1797 24.7801C94.1348 24.9275 94.0575 25.0627 93.9538 25.1757C93.7268 25.4142 93.4205 25.5592 93.094 25.5826C92.7957 25.6282 92.4916 25.5541 92.2466 25.376C92.1339 25.2848 92.0411 25.171 91.974 25.0417C91.907 24.9124 91.8671 24.7705 91.8569 24.6249V24.4621C91.6649 24.8856 91.3635 25.2489 90.9847 25.5137C90.5872 25.7758 90.1331 25.9369 89.6609 25.9832C89.2535 26.0548 88.8356 26.036 88.4361 25.9279C88.0367 25.8198 87.6652 25.6251 87.3475 25.3572C86.7516 24.6984 86.4073 23.8462 86.3763 22.9536L85.9866 19.1979C85.9628 19.0419 85.9719 18.8825 86.0135 18.7303C86.0551 18.5782 86.1282 18.4367 86.2279 18.3153C86.4492 18.0732 86.7559 17.9292 87.0815 17.9147C87.4024 17.8611 87.7313 17.9375 87.997 18.1275C88.1168 18.2278 88.2153 18.3516 88.2866 18.4914C88.3578 18.6313 88.4003 18.7843 88.4114 18.9412L88.8011 22.7408C88.8102 23.1216 88.9553 23.4863 89.2094 23.7673C89.3391 23.8749 89.4904 23.9525 89.6528 23.9946C89.8152 24.0368 89.9848 24.0425 90.1496 24.0114C90.3672 23.995 90.5786 23.9304 90.7689 23.8223C90.9591 23.7141 91.1236 23.565 91.2507 23.3855C91.5196 23.0003 91.6305 22.5246 91.56 22.0585L91.2012 18.6283C91.177 18.4737 91.1854 18.3156 91.2259 18.1646C91.2664 18.0136 91.3381 17.8729 91.4362 17.7519C91.656 17.5113 91.9603 17.3675 92.2837 17.3513C92.5978 17.301 92.919 17.3749 93.1806 17.5579Z" fill="#35B9C5"/>
<path d="M101.636 16.5637C101.744 16.6528 101.832 16.7643 101.894 16.8906C101.956 17.0169 101.99 17.1552 101.995 17.296C102.045 17.5818 101.983 17.8762 101.822 18.116C101.581 18.352 101.27 18.4997 100.937 18.5354L100.461 18.6356C100.217 18.6678 99.9824 18.7486 99.7701 18.8732C99.5577 18.9978 99.3719 19.1639 99.2234 19.3617C98.9884 19.7468 98.8943 20.2031 98.9574 20.6512L99.2791 23.7809C99.3081 23.9398 99.3002 24.1033 99.2562 24.2586C99.2122 24.4139 99.1332 24.5568 99.0255 24.676C98.7966 24.8943 98.5034 25.0307 98.1907 25.0647C97.878 25.0986 97.5629 25.028 97.2935 24.8638C97.1634 24.7685 97.0563 24.6447 96.9803 24.5016C96.9042 24.3585 96.8611 24.1999 96.8543 24.0376L96.2357 18.0722C96.2119 17.9173 96.2235 17.7588 96.2696 17.6091C96.3157 17.4593 96.3951 17.3223 96.5017 17.2084C96.7231 16.9873 97.0144 16.8521 97.3244 16.8266C97.6177 16.7863 97.9153 16.8577 98.1595 17.0269C98.2765 17.115 98.373 17.2278 98.4425 17.3575C98.5119 17.4873 98.5526 17.6308 98.5615 17.778L98.6049 18.2162C98.7343 17.7567 99.0025 17.3496 99.3719 17.0519C99.7311 16.7635 100.157 16.5718 100.609 16.4948L100.832 16.4573C100.966 16.4188 101.107 16.4084 101.245 16.4267C101.383 16.445 101.516 16.4916 101.636 16.5637Z" fill="#35B9C5"/>
<path d="M60.062 43.0661C59.9339 42.9556 59.8294 42.8197 59.7549 42.6669C59.6805 42.514 59.6376 42.3474 59.629 42.1772L58.6826 33.0759C58.6493 32.9177 58.6515 32.754 58.689 32.5967C58.7265 32.4395 58.7983 32.2927 58.8991 32.1672C59 32.0417 59.1274 31.9407 59.2719 31.8716C59.4164 31.8024 59.5743 31.7669 59.7342 31.7677L63.7611 31.3358C64.7954 31.1563 65.8585 31.3799 66.7364 31.9617C67.4699 32.6057 67.9342 33.5077 68.0353 34.4851C68.1363 35.4625 67.8666 36.4422 67.2807 37.226C66.5447 37.9837 65.5523 38.4311 64.5033 38.4779L61.8064 38.7658L62.1342 41.8956C62.1612 42.0644 62.1537 42.237 62.1122 42.4028C62.0708 42.5686 61.9961 42.7241 61.893 42.8595C61.7837 42.9892 61.6495 43.095 61.4985 43.1703C61.3474 43.2457 61.1828 43.289 61.0146 43.2977C60.8486 43.3246 60.6789 43.318 60.5154 43.2782C60.352 43.2385 60.1978 43.1664 60.062 43.0661ZM63.9838 36.6063C65.2209 36.4686 65.79 35.8551 65.691 34.766C65.5797 33.658 64.893 33.1698 63.6435 33.3075L61.2682 33.5579L61.6084 36.8567L63.9838 36.6063Z" fill="#35B9C5"/>
<path d="M77.3941 39.3305C77.5482 39.504 77.6416 39.7239 77.6601 39.9564C77.6811 40.1406 77.6443 40.3266 77.5549 40.4884C77.4548 40.6666 77.315 40.8188 77.1467 40.9328C76.3845 41.4356 75.5233 41.7646 74.6229 41.8969C73.8477 41.9956 73.0604 41.9032 72.328 41.6277C71.6784 41.383 71.1161 40.9469 70.7135 40.3758C70.3016 39.7337 70.0445 39.0026 69.9628 38.2416C69.8812 37.4805 69.9773 36.7108 70.2434 35.9942C70.4978 35.349 70.9265 34.7893 71.4806 34.3792C72.0538 33.9569 72.7292 33.6996 73.4353 33.6343C74.0939 33.5513 74.7625 33.6486 75.3714 33.916C75.948 34.1865 76.4339 34.6216 76.7693 35.1679C77.1513 35.7791 77.3806 36.475 77.4374 37.1959C77.4719 37.3892 77.432 37.5886 77.3261 37.7531C77.2711 37.8237 77.2018 37.8814 77.1228 37.9225C77.0438 37.9635 76.957 37.9869 76.8683 37.9909L72.3775 38.4729C72.4502 38.9885 72.7051 39.4599 73.095 39.7999C73.5028 40.0677 73.9952 40.1706 74.4744 40.0879C74.757 40.0627 75.0342 39.9952 75.2971 39.8876C75.5657 39.7678 75.8279 39.634 76.0827 39.4869C76.225 39.4055 76.3673 39.3367 76.4972 39.2742C76.6123 39.2177 76.7354 39.1796 76.8621 39.1614C76.9577 39.1454 77.0556 39.1525 77.148 39.1819C77.2404 39.2112 77.3247 39.2621 77.3941 39.3305ZM72.594 35.8751C72.3268 36.2697 72.1982 36.7437 72.229 37.221L75.3219 36.8893C75.2777 36.4201 75.0796 35.9793 74.759 35.6374C74.609 35.5028 74.4312 35.4037 74.2386 35.3474C74.046 35.2911 73.8434 35.279 73.6456 35.3119C73.4411 35.3262 73.2419 35.3837 73.0608 35.4807C72.8796 35.5778 72.7206 35.7121 72.594 35.8751Z" fill="#35B9C5"/>
<path d="M84.9043 39.2301C84.994 39.3075 85.0663 39.4034 85.1164 39.5113C85.1665 39.6193 85.1933 39.7368 85.195 39.856C85.2151 39.9975 85.1982 40.1419 85.1461 40.2747C85.094 40.4076 85.0085 40.5243 84.8981 40.6134C84.5926 40.8246 84.2287 40.932 83.8589 40.9202H83.4074C81.5145 40.9702 80.4753 40.0751 80.3145 38.2474L79.9805 35.03L79.3619 35.0988C79.0788 35.1501 78.7868 35.0968 78.5392 34.9486C78.4396 34.8764 78.357 34.7828 78.2971 34.6747C78.2373 34.5665 78.2016 34.4463 78.1928 34.3226C78.1713 34.1948 78.1785 34.0638 78.2138 33.9392C78.2491 33.8145 78.3117 33.6996 78.397 33.6028C78.612 33.4076 78.8877 33.2946 79.1763 33.2836L79.7949 33.2147L79.665 31.9628C79.6404 31.8078 79.6493 31.6492 79.6909 31.4979C79.7325 31.3467 79.806 31.2063 79.9063 31.0865C80.1311 30.8449 80.4387 30.6994 80.7661 30.6796C81.0878 30.6278 81.4168 30.7065 81.6816 30.8987C81.802 30.9965 81.9007 31.119 81.9711 31.2582C82.0414 31.3974 82.0819 31.55 82.0898 31.7062L82.2197 32.9581L83.3455 32.8391C84.0507 32.7181 84.4424 32.9706 84.5208 33.5965C84.5422 33.7214 84.5349 33.8496 84.4995 33.9711C84.4641 34.0927 84.4015 34.2044 84.3167 34.2976C84.1018 34.5018 83.8196 34.6178 83.5249 34.6231L82.3991 34.742L82.7517 38.1347C82.7634 38.4038 82.8711 38.6595 83.0548 38.8545C83.2481 39.0122 83.494 39.0884 83.7414 39.0673H84.1929C84.4413 39.0416 84.6911 39.0988 84.9043 39.2301Z" fill="#35B9C5"/>
<path d="M94.4026 40.067C93.6838 40.1398 93.0408 40.0625 92.4738 39.8352C91.9149 39.5978 91.4656 39.23 91.126 38.7317C90.7863 38.2334 90.581 37.6252 90.51 36.9069C90.439 36.1885 90.5217 35.5556 90.758 35.0082C90.9943 34.4608 91.3641 34.0239 91.8673 33.6975C92.3786 33.3611 92.9937 33.1565 93.7125 33.0837C93.9911 33.0555 94.2912 33.0619 94.6129 33.1028C94.9427 33.1337 95.2639 33.2159 95.5766 33.3496C95.8121 33.436 95.9666 33.5766 96.0403 33.7712C96.1131 33.9566 96.1185 34.149 96.0565 34.3481C96.0034 34.5463 95.8961 34.6994 95.7343 34.8077C95.5807 34.9059 95.3857 34.9073 95.1494 34.8118C94.7711 34.6573 94.4112 34.5972 94.0697 34.6318C93.5396 34.6855 93.1428 34.8955 92.8795 35.2619C92.6244 35.6184 92.5269 36.1012 92.5871 36.7105C92.6464 37.3106 92.8369 37.7688 93.1586 38.0852C93.4883 38.3917 93.9183 38.518 94.4485 38.4644C94.6102 38.448 94.7791 38.4126 94.9553 38.358C95.1305 38.2944 95.303 38.2034 95.4728 38.0852C95.6858 37.9443 95.8776 37.9112 96.0484 37.9858C96.2281 38.0594 96.3588 38.1884 96.4406 38.373C96.5215 38.5485 96.5448 38.7391 96.5107 38.9446C96.4765 39.1501 96.357 39.3183 96.1522 39.4493C95.8619 39.6348 95.5672 39.7747 95.268 39.8693C94.9696 39.9729 94.6812 40.0389 94.4026 40.067Z" fill="#35B9C5"/>
<path d="M100.667 39.4329C99.957 39.5047 99.323 39.4265 98.765 39.1983C98.2151 38.9601 97.7707 38.5964 97.432 38.1072C97.0923 37.6089 96.887 37.0005 96.816 36.2822C96.7459 35.5729 96.829 34.9446 97.0654 34.3972C97.3008 33.8407 97.6652 33.3952 98.1585 33.0605C98.6608 32.725 99.2669 32.5213 99.9767 32.4495C100.687 32.3777 101.316 32.4563 101.865 32.6855C102.423 32.9137 102.872 33.277 103.212 33.7753C103.559 34.2635 103.768 34.8623 103.838 35.5716C103.909 36.2899 103.823 36.9278 103.578 37.4852C103.342 38.0326 102.973 38.4786 102.472 38.8232C101.978 39.1579 101.377 39.3611 100.667 39.4329ZM100.515 37.8917C100.946 37.848 101.281 37.6534 101.519 37.3079C101.766 36.9614 101.856 36.4518 101.79 35.7789C101.724 35.1151 101.537 34.6427 101.228 34.3618C100.927 34.0708 100.56 33.9471 100.129 33.9908C99.6977 34.0344 99.363 34.229 99.1249 34.5745C98.8859 34.911 98.7992 35.4111 98.8648 36.0749C98.9312 36.7478 99.115 37.2297 99.416 37.5207C99.7171 37.8116 100.083 37.9353 100.515 37.8917Z" fill="#35B9C5"/>
<path d="M106.472 38.8182C105.789 38.8873 105.413 38.5717 105.343 37.8716L104.865 33.0296C104.797 32.3385 105.095 31.9593 105.76 31.892C106.425 31.8247 106.792 32.1366 106.86 32.8277L106.864 32.8686C107.027 32.5031 107.27 32.2075 107.593 31.982C107.924 31.7465 108.318 31.6056 108.777 31.5592C109.244 31.5119 109.649 31.5765 109.994 31.7529C110.347 31.9284 110.63 32.2212 110.843 32.6313C111.01 32.2103 111.276 31.8711 111.641 31.6138C112.014 31.3464 112.438 31.1887 112.914 31.1405C113.669 31.0641 114.254 31.2391 114.668 31.6656C115.081 32.083 115.335 32.769 115.43 33.7238L115.736 36.82C115.769 37.1564 115.705 37.4247 115.543 37.6247C115.39 37.8238 115.152 37.9398 114.828 37.9725C114.145 38.0416 113.769 37.7261 113.7 37.0259L113.401 33.998C113.357 33.5524 113.253 33.2369 113.09 33.0514C112.934 32.8559 112.69 32.7749 112.358 32.8086C111.971 32.8477 111.684 33.0145 111.495 33.3092C111.306 33.6038 111.237 34.0011 111.286 34.5013L111.557 37.2428C111.626 37.943 111.324 38.3271 110.65 38.3953C110.327 38.4281 110.066 38.3626 109.868 38.1989C109.671 38.0352 109.555 37.7852 109.522 37.4487L109.223 34.4208C109.179 33.9752 109.075 33.6597 108.911 33.4742C108.747 33.2796 108.503 33.1987 108.179 33.2314C107.793 33.2705 107.505 33.4374 107.317 33.732C107.128 34.0266 107.058 34.424 107.108 34.9241L107.379 37.6656C107.448 38.3658 107.146 38.75 106.472 38.8182Z" fill="#35B9C5"/>
<path d="M89.0078 38.5718C89.0078 37.9464 88.5008 37.4395 87.8755 37.4395C87.2501 37.4395 86.7432 37.9464 86.7432 38.5718V38.5891C86.7432 39.2145 87.2501 39.7214 87.8755 39.7214C88.5008 39.7214 89.0078 39.2145 89.0078 38.5891V38.5718Z" fill="#35B9C5"/>
</g>
<defs>
<clipPath id="clip0_2268_15474">
<rect width="118" height="57" fill="white"/>
</clipPath>
</defs>
</svg>
