<svg width="1514" height="984" viewBox="0 0 1514 984" fill="none" xmlns="http://www.w3.org/2000/svg">
<rect x="0.5" y="0.5" width="1513" height="983" rx="32.5" fill="white"/>
<text fill="#B5B5C3" xml:space="preserve" style="white-space: pre" font-family="Inter" font-size="12" font-weight="600" letter-spacing="1px"><tspan x="154" y="902.364">DEFAULT</tspan></text>
<text fill="#B5B5C3" xml:space="preserve" style="white-space: pre" font-family="Inter" font-size="12" font-weight="600" letter-spacing="1px"><tspan x="414" y="902.364">LEADING ICON</tspan></text>
<text fill="#B5B5C3" xml:space="preserve" style="white-space: pre" font-family="Inter" font-size="12" font-weight="600" letter-spacing="1px"><tspan x="675" y="902.364">TRAILING ICON</tspan></text>
<rect x="81.5" y="182.5" width="795" height="692" rx="31.5" fill="#EFF5FF"/>
<path d="M357 334C357 331.791 358.791 330 361 330H553C555.209 330 557 331.791 557 334V366C557 368.209 555.209 370 553 370H361C358.791 370 357 368.209 357 366V334Z" fill="white"/>
<path d="M384.63 344.457C384.247 344.074 383.792 343.77 383.291 343.563C382.791 343.355 382.254 343.249 381.712 343.249C381.171 343.249 380.634 343.355 380.133 343.563C379.633 343.77 379.178 344.074 378.795 344.457L378 345.252L377.205 344.457C376.431 343.684 375.382 343.249 374.287 343.249C373.193 343.249 372.144 343.684 371.37 344.457C370.596 345.231 370.161 346.281 370.161 347.375C370.161 348.469 370.596 349.519 371.37 350.292L372.165 351.087L378 356.922L383.835 351.087L384.63 350.292C385.013 349.909 385.317 349.455 385.525 348.954C385.732 348.453 385.839 347.917 385.839 347.375C385.839 346.833 385.732 346.296 385.525 345.796C385.317 345.295 385.013 344.84 384.63 344.457V344.457Z" stroke="#7C8DB0" stroke-width="2" stroke-linecap="round" stroke-linejoin="round"/>
<text fill="#7C8DB0" xml:space="preserve" style="white-space: pre" font-family="Roboto" font-size="14" font-weight="500" letter-spacing="0em"><tspan x="395" y="354.785">Medium</tspan></text>
<text fill="#6E7491" xml:space="preserve" style="white-space: pre" font-family="Roboto" font-size="12" letter-spacing="0em"><tspan x="357" y="323.102">Text Field</tspan></text>
<path d="M361 331H553V329H361V331ZM556 334V366H558V334H556ZM553 369H361V371H553V369ZM358 366V334H356V366H358ZM361 369C359.343 369 358 367.657 358 366H356C356 368.761 358.239 371 361 371V369ZM556 366C556 367.657 554.657 369 553 369V371C555.761 371 558 368.761 558 366H556ZM553 331C554.657 331 556 332.343 556 334H558C558 331.239 555.761 329 553 329V331ZM361 329C358.239 329 356 331.239 356 334H358C358 332.343 359.343 331 361 331V329Z" fill="#CBD4E6"/>
<path d="M97 724C97 721.791 98.7909 720 101 720H293C295.209 720 297 721.791 297 724V756C297 758.209 295.209 760 293 760H101C98.7909 760 97 758.209 97 756V724Z" fill="white"/>
<g clip-path="url(#clip0_781_9968)">
<path d="M267.75 740C267.75 740 270.75 734 276 734C281.25 734 284.25 740 284.25 740C284.25 740 281.25 746 276 746C270.75 746 267.75 740 267.75 740Z" stroke="#7C8DB0" stroke-width="2" stroke-linecap="round" stroke-linejoin="round"/>
<path d="M276 742.25C277.243 742.25 278.25 741.243 278.25 740C278.25 738.757 277.243 737.75 276 737.75C274.757 737.75 273.75 738.757 273.75 740C273.75 741.243 274.757 742.25 276 742.25Z" stroke="#7C8DB0" stroke-width="2" stroke-linecap="round" stroke-linejoin="round"/>
</g>
<path d="M124.63 734.457C124.247 734.074 123.792 733.77 123.291 733.563C122.791 733.355 122.254 733.249 121.712 733.249C121.171 733.249 120.634 733.355 120.133 733.563C119.633 733.77 119.178 734.074 118.795 734.457L118 735.252L117.205 734.457C116.431 733.684 115.382 733.249 114.287 733.249C113.193 733.249 112.144 733.684 111.37 734.457C110.596 735.231 110.161 736.281 110.161 737.375C110.161 738.469 110.596 739.519 111.37 740.292L112.165 741.087L118 746.922L123.835 741.087L124.63 740.292C125.013 739.909 125.317 739.455 125.525 738.954C125.732 738.453 125.839 737.917 125.839 737.375C125.839 736.833 125.732 736.296 125.525 735.796C125.317 735.295 125.013 734.84 124.63 734.457V734.457Z" stroke="#7C8DB0" stroke-width="2" stroke-linecap="round" stroke-linejoin="round"/>
<text fill="#7C8DB0" xml:space="preserve" style="white-space: pre" font-family="Roboto" font-size="12" letter-spacing="0em"><tspan x="135" y="744.102">Small</tspan></text>
<text fill="#6E7491" xml:space="preserve" style="white-space: pre" font-family="Chalkboard" font-size="14" letter-spacing="0em"><tspan x="97" y="712.881">Text Field</tspan></text>
<path d="M101 721H293V719H101V721ZM296 724V756H298V724H296ZM293 759H101V761H293V759ZM98 756V724H96V756H98ZM101 759C99.3431 759 98 757.657 98 756H96C96 758.761 98.2386 761 101 761V759ZM296 756C296 757.657 294.657 759 293 759V761C295.761 761 298 758.761 298 756H296ZM293 721C294.657 721 296 722.343 296 724H298C298 721.239 295.761 719 293 719V721ZM101 719C98.2386 719 96 721.239 96 724H98C98 722.343 99.3431 721 101 721V719Z" fill="#CBD4E6"/>
<path d="M357 434C357 431.791 358.791 430 361 430H553C555.209 430 557 431.791 557 434V458C557 460.209 555.209 462 553 462H361C358.791 462 357 460.209 357 458V434Z" fill="white"/>
<path d="M384.63 440.457C384.247 440.074 383.792 439.77 383.291 439.563C382.791 439.355 382.254 439.249 381.712 439.249C381.171 439.249 380.634 439.355 380.133 439.563C379.633 439.77 379.178 440.074 378.795 440.457L378 441.252L377.205 440.457C376.431 439.684 375.382 439.249 374.287 439.249C373.193 439.249 372.144 439.684 371.37 440.457C370.596 441.231 370.161 442.281 370.161 443.375C370.161 444.469 370.596 445.519 371.37 446.292L372.165 447.087L378 452.922L383.835 447.087L384.63 446.292C385.013 445.909 385.317 445.455 385.525 444.954C385.732 444.453 385.839 443.917 385.839 443.375C385.839 442.833 385.732 442.296 385.525 441.796C385.317 441.295 385.013 440.84 384.63 440.457V440.457Z" stroke="#7C8DB0" stroke-width="2" stroke-linecap="round" stroke-linejoin="round"/>
<text fill="#7C8DB0" xml:space="preserve" style="white-space: pre" font-family="Roboto" font-size="14" font-weight="500" letter-spacing="0em"><tspan x="395" y="450.785">Small</tspan></text>
<text fill="#6E7491" xml:space="preserve" style="white-space: pre" font-family="Roboto" font-size="14" letter-spacing="0em"><tspan x="357" y="422.785">Text Field</tspan></text>
<path d="M361 431H553V429H361V431ZM556 434V458H558V434H556ZM553 461H361V463H553V461ZM358 458V434H356V458H358ZM361 461C359.343 461 358 459.657 358 458H356C356 460.761 358.239 463 361 463V461ZM556 458C556 459.657 554.657 461 553 461V463C555.761 463 558 460.761 558 458H556ZM553 431C554.657 431 556 432.343 556 434H558C558 431.239 555.761 429 553 429V431ZM361 429C358.239 429 356 431.239 356 434H358C358 432.343 359.343 431 361 431V429Z" fill="#CBD4E6"/>
<path d="M97 824C97 821.791 98.7909 820 101 820H293C295.209 820 297 821.791 297 824V848C297 850.209 295.209 852 293 852H101C98.7909 852 97 850.209 97 848V824Z" fill="white"/>
<g clip-path="url(#clip1_781_9968)">
<path d="M267.75 836C267.75 836 270.75 830 276 830C281.25 830 284.25 836 284.25 836C284.25 836 281.25 842 276 842C270.75 842 267.75 836 267.75 836Z" stroke="#7C8DB0" stroke-width="2" stroke-linecap="round" stroke-linejoin="round"/>
<path d="M276 838.25C277.243 838.25 278.25 837.243 278.25 836C278.25 834.757 277.243 833.75 276 833.75C274.757 833.75 273.75 834.757 273.75 836C273.75 837.243 274.757 838.25 276 838.25Z" stroke="#7C8DB0" stroke-width="2" stroke-linecap="round" stroke-linejoin="round"/>
</g>
<path d="M124.63 830.457C124.247 830.074 123.792 829.77 123.291 829.563C122.791 829.355 122.254 829.249 121.712 829.249C121.171 829.249 120.634 829.355 120.133 829.563C119.633 829.77 119.178 830.074 118.795 830.457L118 831.252L117.205 830.457C116.431 829.684 115.382 829.249 114.287 829.249C113.193 829.249 112.144 829.684 111.37 830.457C110.596 831.231 110.161 832.281 110.161 833.375C110.161 834.469 110.596 835.519 111.37 836.292L112.165 837.087L118 842.922L123.835 837.087L124.63 836.292C125.013 835.909 125.317 835.455 125.525 834.954C125.732 834.453 125.839 833.917 125.839 833.375C125.839 832.833 125.732 832.296 125.525 831.796C125.317 831.295 125.013 830.84 124.63 830.457V830.457Z" stroke="#7C8DB0" stroke-width="2" stroke-linecap="round" stroke-linejoin="round"/>
<text fill="#7C8DB0" xml:space="preserve" style="white-space: pre" font-family="Roboto" font-size="12" letter-spacing="0em"><tspan x="135" y="840.102">Small</tspan></text>
<text fill="#6E7491" xml:space="preserve" style="white-space: pre" font-family="Chalkboard" font-size="14" letter-spacing="0em"><tspan x="97" y="812.881">Text Field</tspan></text>
<path d="M101 821H293V819H101V821ZM296 824V848H298V824H296ZM293 851H101V853H293V851ZM98 848V824H96V848H98ZM101 851C99.3431 851 98 849.657 98 848H96C96 850.761 98.2386 853 101 853V851ZM296 848C296 849.657 294.657 851 293 851V853C295.761 853 298 850.761 298 848H296ZM293 821C294.657 821 296 822.343 296 824H298C298 821.239 295.761 819 293 819V821ZM101 819C98.2386 819 96 821.239 96 824H98C98 822.343 99.3431 821 101 821V819Z" fill="#CBD4E6"/>
<path d="M97 334C97 331.791 98.7909 330 101 330H293C295.209 330 297 331.791 297 334V366C297 368.209 295.209 370 293 370H101C98.7909 370 97 368.209 97 366V334Z" fill="white"/>
<text fill="#7C8DB0" xml:space="preserve" style="white-space: pre" font-family="Roboto" font-size="14" font-weight="500" letter-spacing="0em"><tspan x="109" y="354.785">Medium</tspan></text>
<text fill="#6E7491" xml:space="preserve" style="white-space: pre" font-family="Roboto" font-size="12" letter-spacing="0em"><tspan x="97" y="323.102">Text Field</tspan></text>
<path d="M101 331H293V329H101V331ZM296 334V366H298V334H296ZM293 369H101V371H293V369ZM98 366V334H96V366H98ZM101 369C99.3431 369 98 367.657 98 366H96C96 368.761 98.2386 371 101 371V369ZM296 366C296 367.657 294.657 369 293 369V371C295.761 371 298 368.761 298 366H296ZM293 331C294.657 331 296 332.343 296 334H298C298 331.239 295.761 329 293 329V331ZM101 329C98.2386 329 96 331.239 96 334H98C98 332.343 99.3431 331 101 331V329Z" fill="#CBD4E6"/>
<path d="M97 434C97 431.791 98.7909 430 101 430H293C295.209 430 297 431.791 297 434V458C297 460.209 295.209 462 293 462H101C98.7909 462 97 460.209 97 458V434Z" fill="white"/>
<text fill="#7C8DB0" xml:space="preserve" style="white-space: pre" font-family="Roboto" font-size="12" letter-spacing="0em"><tspan x="109" y="450.102">Small</tspan></text>
<text fill="#6E7491" xml:space="preserve" style="white-space: pre" font-family="Roboto" font-size="12" letter-spacing="0em"><tspan x="97" y="423.102">Text Field</tspan></text>
<path d="M101 431H293V429H101V431ZM296 434V458H298V434H296ZM293 461H101V463H293V461ZM98 458V434H96V458H98ZM101 461C99.3431 461 98 459.657 98 458H96C96 460.761 98.2386 463 101 463V461ZM296 458C296 459.657 294.657 461 293 461V463C295.761 463 298 460.761 298 458H296ZM293 431C294.657 431 296 432.343 296 434H298C298 431.239 295.761 429 293 429V431ZM101 429C98.2386 429 96 431.239 96 434H98C98 432.343 99.3431 431 101 431V429Z" fill="#CBD4E6"/>
<path d="M97 226C97 223.791 98.7909 222 101 222H293C295.209 222 297 223.791 297 226V266C297 268.209 295.209 270 293 270H101C98.7909 270 97 268.209 97 266V226Z" fill="white"/>
<text fill="#7C8DB0" xml:space="preserve" style="white-space: pre" font-family="Roboto" font-size="16" font-weight="500" letter-spacing="0em"><tspan x="113" y="251.469">Large</tspan></text>
<text fill="#6E7491" xml:space="preserve" style="white-space: pre" font-family="Roboto" font-size="12" letter-spacing="0em"><tspan x="97" y="215.102">Text Field</tspan></text>
<path d="M101 223H293V221H101V223ZM296 226V266H298V226H296ZM293 269H101V271H293V269ZM98 266V226H96V266H98ZM101 269C99.3431 269 98 267.657 98 266H96C96 268.761 98.2386 271 101 271V269ZM296 266C296 267.657 294.657 269 293 269V271C295.761 271 298 268.761 298 266H296ZM293 223C294.657 223 296 224.343 296 226H298C298 223.239 295.761 221 293 221V223ZM101 221C98.2386 221 96 223.239 96 226H98C98 224.343 99.3431 223 101 223V221Z" fill="#CBD4E6"/>
<path d="M357 226C357 223.791 358.791 222 361 222H553C555.209 222 557 223.791 557 226V266C557 268.209 555.209 270 553 270H361C358.791 270 357 268.209 357 266V226Z" fill="white"/>
<path d="M393.84 238.61C393.329 238.099 392.723 237.694 392.055 237.417C391.388 237.14 390.672 236.998 389.95 236.998C389.228 236.998 388.512 237.14 387.845 237.417C387.177 237.694 386.571 238.099 386.06 238.61L385 239.67L383.94 238.61C382.908 237.578 381.509 236.999 380.05 236.999C378.591 236.999 377.192 237.578 376.16 238.61C375.128 239.642 374.549 241.041 374.549 242.5C374.549 243.959 375.128 245.358 376.16 246.39L377.22 247.45L385 255.23L392.78 247.45L393.84 246.39C394.351 245.879 394.756 245.273 395.033 244.605C395.309 243.938 395.452 243.222 395.452 242.5C395.452 241.777 395.309 241.062 395.033 240.395C394.756 239.727 394.351 239.121 393.84 238.61V238.61Z" stroke="#7C8DB0" stroke-width="2" stroke-linecap="round" stroke-linejoin="round"/>
<text fill="#7C8DB0" xml:space="preserve" style="white-space: pre" font-family="Roboto" font-size="16" font-weight="500" letter-spacing="0em"><tspan x="405" y="251.469">Large</tspan></text>
<text fill="#6E7491" xml:space="preserve" style="white-space: pre" font-family="Roboto" font-size="12" letter-spacing="0em"><tspan x="357" y="215.102">Text Field</tspan></text>
<path d="M361 223H553V221H361V223ZM556 226V266H558V226H556ZM553 269H361V271H553V269ZM358 266V226H356V266H358ZM361 269C359.343 269 358 267.657 358 266H356C356 268.761 358.239 271 361 271V269ZM556 266C556 267.657 554.657 269 553 269V271C555.761 271 558 268.761 558 266H556ZM553 223C554.657 223 556 224.343 556 226H558C558 223.239 555.761 221 553 221V223ZM361 221C358.239 221 356 223.239 356 226H358C358 224.343 359.343 223 361 223V221Z" fill="#CBD4E6"/>
<path d="M97 616C97 613.791 98.7909 612 101 612H293C295.209 612 297 613.791 297 616V656C297 658.209 295.209 660 293 660H101C98.7909 660 97 658.209 97 656V616Z" fill="white"/>
<path d="M258 636C258 636 262 628 269 628C276 628 280 636 280 636C280 636 276 644 269 644C262 644 258 636 258 636Z" stroke="#7C8DB0" stroke-width="2" stroke-linecap="round" stroke-linejoin="round"/>
<path d="M269 639C270.657 639 272 637.657 272 636C272 634.343 270.657 633 269 633C267.343 633 266 634.343 266 636C266 637.657 267.343 639 269 639Z" stroke="#7C8DB0" stroke-width="2" stroke-linecap="round" stroke-linejoin="round"/>
<path d="M133.84 628.61C133.329 628.099 132.723 627.694 132.055 627.417C131.388 627.14 130.672 626.998 129.95 626.998C129.228 626.998 128.512 627.14 127.845 627.417C127.177 627.694 126.571 628.099 126.06 628.61L125 629.67L123.94 628.61C122.908 627.578 121.509 626.999 120.05 626.999C118.591 626.999 117.192 627.578 116.16 628.61C115.128 629.642 114.549 631.041 114.549 632.5C114.549 633.959 115.128 635.358 116.16 636.39L117.22 637.45L125 645.23L132.78 637.45L133.84 636.39C134.351 635.879 134.756 635.273 135.033 634.605C135.309 633.938 135.452 633.222 135.452 632.5C135.452 631.777 135.309 631.062 135.033 630.395C134.756 629.727 134.351 629.121 133.84 628.61V628.61Z" stroke="#7C8DB0" stroke-width="2" stroke-linecap="round" stroke-linejoin="round"/>
<text fill="#7C8DB0" xml:space="preserve" style="white-space: pre" font-family="Roboto" font-size="12" letter-spacing="0em"><tspan x="145" y="640.102">Medium</tspan></text>
<text fill="#6E7491" xml:space="preserve" style="white-space: pre" font-family="Chalkboard" font-size="14" letter-spacing="0em"><tspan x="97" y="604.881">Text Field</tspan></text>
<path d="M101 613H293V611H101V613ZM296 616V656H298V616H296ZM293 659H101V661H293V659ZM98 656V616H96V656H98ZM101 659C99.3431 659 98 657.657 98 656H96C96 658.761 98.2386 661 101 661V659ZM296 656C296 657.657 294.657 659 293 659V661C295.761 661 298 658.761 298 656H296ZM293 613C294.657 613 296 614.343 296 616H298C298 613.239 295.761 611 293 611V613ZM101 611C98.2386 611 96 613.239 96 616H98C98 614.343 99.3431 613 101 613V611Z" fill="#CBD4E6"/>
<path d="M617 334C617 331.791 618.791 330 621 330H813C815.209 330 817 331.791 817 334V366C817 368.209 815.209 370 813 370H621C618.791 370 617 368.209 617 366V334Z" fill="white"/>
<g clip-path="url(#clip2_781_9968)">
<path d="M787.75 350C787.75 350 790.75 344 796 344C801.25 344 804.25 350 804.25 350C804.25 350 801.25 356 796 356C790.75 356 787.75 350 787.75 350Z" stroke="#7C8DB0" stroke-width="2" stroke-linecap="round" stroke-linejoin="round"/>
<path d="M796 352.25C797.243 352.25 798.25 351.243 798.25 350C798.25 348.757 797.243 347.75 796 347.75C794.757 347.75 793.75 348.757 793.75 350C793.75 351.243 794.757 352.25 796 352.25Z" stroke="#7C8DB0" stroke-width="2" stroke-linecap="round" stroke-linejoin="round"/>
</g>
<text fill="#7C8DB0" xml:space="preserve" style="white-space: pre" font-family="Roboto" font-size="14" font-weight="500" letter-spacing="0em"><tspan x="629" y="354.785">Medium</tspan></text>
<text fill="#6E7491" xml:space="preserve" style="white-space: pre" font-family="Roboto" font-size="12" letter-spacing="0em"><tspan x="617" y="323.102">Text Field</tspan></text>
<path d="M621 331H813V329H621V331ZM816 334V366H818V334H816ZM813 369H621V371H813V369ZM618 366V334H616V366H618ZM621 369C619.343 369 618 367.657 618 366H616C616 368.761 618.239 371 621 371V369ZM816 366C816 367.657 814.657 369 813 369V371C815.761 371 818 368.761 818 366H816ZM813 331C814.657 331 816 332.343 816 334H818C818 331.239 815.761 329 813 329V331ZM621 329C618.239 329 616 331.239 616 334H618C618 332.343 619.343 331 621 331V329Z" fill="#CBD4E6"/>
<path d="M617 434C617 431.791 618.791 430 621 430H813C815.209 430 817 431.791 817 434V458C817 460.209 815.209 462 813 462H621C618.791 462 617 460.209 617 458V434Z" fill="white"/>
<g clip-path="url(#clip3_781_9968)">
<path d="M787.75 446C787.75 446 790.75 440 796 440C801.25 440 804.25 446 804.25 446C804.25 446 801.25 452 796 452C790.75 452 787.75 446 787.75 446Z" stroke="#7C8DB0" stroke-width="2" stroke-linecap="round" stroke-linejoin="round"/>
<path d="M796 448.25C797.243 448.25 798.25 447.243 798.25 446C798.25 444.757 797.243 443.75 796 443.75C794.757 443.75 793.75 444.757 793.75 446C793.75 447.243 794.757 448.25 796 448.25Z" stroke="#7C8DB0" stroke-width="2" stroke-linecap="round" stroke-linejoin="round"/>
</g>
<text fill="#7C8DB0" xml:space="preserve" style="white-space: pre" font-family="Roboto" font-size="14" font-weight="500" letter-spacing="0em"><tspan x="629" y="450.785">Small</tspan></text>
<text fill="#6E7491" xml:space="preserve" style="white-space: pre" font-family="Roboto" font-size="12" letter-spacing="0em"><tspan x="617" y="423.102">Text Field</tspan></text>
<path d="M621 431H813V429H621V431ZM816 434V458H818V434H816ZM813 461H621V463H813V461ZM618 458V434H616V458H618ZM621 461C619.343 461 618 459.657 618 458H616C616 460.761 618.239 463 621 463V461ZM816 458C816 459.657 814.657 461 813 461V463C815.761 463 818 460.761 818 458H816ZM813 431C814.657 431 816 432.343 816 434H818C818 431.239 815.761 429 813 429V431ZM621 429C618.239 429 616 431.239 616 434H618C618 432.343 619.343 431 621 431V429Z" fill="#CBD4E6"/>
<path d="M617 226C617 223.791 618.791 222 621 222H813C815.209 222 817 223.791 817 226V266C817 268.209 815.209 270 813 270H621C618.791 270 617 268.209 617 266V226Z" fill="white"/>
<path d="M778 246C778 246 782 238 789 238C796 238 800 246 800 246C800 246 796 254 789 254C782 254 778 246 778 246Z" stroke="#7C8DB0" stroke-width="2" stroke-linecap="round" stroke-linejoin="round"/>
<path d="M789 249C790.657 249 792 247.657 792 246C792 244.343 790.657 243 789 243C787.343 243 786 244.343 786 246C786 247.657 787.343 249 789 249Z" stroke="#7C8DB0" stroke-width="2" stroke-linecap="round" stroke-linejoin="round"/>
<text fill="#7C8DB0" xml:space="preserve" style="white-space: pre" font-family="Roboto" font-size="16" font-weight="500" letter-spacing="0em"><tspan x="633" y="251.469">Large</tspan></text>
<text fill="#6E7491" xml:space="preserve" style="white-space: pre" font-family="Roboto" font-size="12" letter-spacing="0em"><tspan x="617" y="215.102">Text Field</tspan></text>
<path d="M621 223H813V221H621V223ZM816 226V266H818V226H816ZM813 269H621V271H813V269ZM618 266V226H616V266H618ZM621 269C619.343 269 618 267.657 618 266H616C616 268.761 618.239 271 621 271V269ZM816 266C816 267.657 814.657 269 813 269V271C815.761 271 818 268.761 818 266H816ZM813 223C814.657 223 816 224.343 816 226H818C818 223.239 815.761 221 813 221V223ZM621 221C618.239 221 616 223.239 616 226H618C618 224.343 619.343 223 621 223V221Z" fill="#CBD4E6"/>
<rect x="81.5" y="182.5" width="795" height="692" rx="31.5" stroke="#5384ED" stroke-dasharray="10 5"/>
<text fill="#5384ED" xml:space="preserve" style="white-space: pre" font-family="Roboto" font-size="32" font-weight="500" letter-spacing="0em"><tspan x="81" y="106.438">Text Fields</tspan></text>
<text fill="#B5B5C3" xml:space="preserve" style="white-space: pre" font-family="Inter" font-size="18" font-weight="600" letter-spacing="0px"><tspan x="957" y="558.545">Textarea</tspan></text>
<path d="M957 647C957 644.791 958.791 643 961 643H1197C1199.21 643 1201 644.791 1201 647V699C1201 701.209 1199.21 703 1197 703H961C958.791 703 957 701.209 957 699V647Z" fill="white"/>
<text fill="#7C8DB0" xml:space="preserve" style="white-space: pre" font-family="Roboto" font-size="14" letter-spacing="0em"><tspan x="969" y="663.785">Add an optional message.</tspan></text>
<text fill="#7C8DB0" xml:space="preserve" style="white-space: pre" font-family="Roboto" font-size="12" letter-spacing="0em"><tspan x="957" y="636.102">Textarea</tspan></text>
<path d="M1195.5 690.75L1188.75 697.5" stroke="#CBD4E6"/>
<path d="M1195.5 695.25L1193.25 697.5" stroke="#CBD4E6"/>
<path d="M961 644H1197V642H961V644ZM1200 647V699H1202V647H1200ZM1197 702H961V704H1197V702ZM958 699V647H956V699H958ZM961 702C959.343 702 958 700.657 958 699H956C956 701.761 958.239 704 961 704V702ZM1200 699C1200 700.657 1198.66 702 1197 702V704C1199.76 704 1202 701.761 1202 699H1200ZM1197 644C1198.66 644 1200 645.343 1200 647H1202C1202 644.239 1199.76 642 1197 642V644ZM961 642C958.239 642 956 644.239 956 647H958C958 645.343 959.343 644 961 644V642Z" fill="#CBD4E6"/>
<rect x="0.5" y="0.5" width="1513" height="983" rx="32.5" stroke="#CBD4E6"/>
<defs>
<clipPath id="clip0_781_9968">
<rect width="18" height="18" fill="white" transform="translate(267 731)"/>
</clipPath>
<clipPath id="clip1_781_9968">
<rect width="18" height="18" fill="white" transform="translate(267 827)"/>
</clipPath>
<clipPath id="clip2_781_9968">
<rect width="18" height="18" fill="white" transform="translate(787 341)"/>
</clipPath>
<clipPath id="clip3_781_9968">
<rect width="18" height="18" fill="white" transform="translate(787 437)"/>
</clipPath>
</defs>
</svg>
