<svg width="1514" height="984" viewBox="0 0 1514 984" fill="none" xmlns="http://www.w3.org/2000/svg">
<rect x="0.5" y="0.5" width="1513" height="983" rx="32.5" fill="white"/>
<rect x="429.5" y="172.5" width="85" height="116" rx="31.5" fill="#EFF5FF"/>
<path d="M463 201H481" stroke="#6E7491" stroke-width="2" stroke-linecap="round" stroke-linejoin="round"/>
<path d="M463 207H481" stroke="#6E7491" stroke-width="2" stroke-linecap="round" stroke-linejoin="round"/>
<path d="M451 248C451 241.373 456.373 236 463 236H481C487.627 236 493 241.373 493 248V266C493 272.627 487.627 278 481 278H463C456.373 278 451 272.627 451 266V248Z" fill="#F6F9FE"/>
<path d="M463 254H481" stroke="#6E7491" stroke-width="2" stroke-linecap="round" stroke-linejoin="round"/>
<path d="M463 260H481" stroke="#6E7491" stroke-width="2" stroke-linecap="round" stroke-linejoin="round"/>
<rect x="429.5" y="172.5" width="85" height="116" rx="31.5" stroke="#5384ED" stroke-dasharray="10 5"/>
<rect x="313.5" y="172.5" width="85" height="148" rx="31.5" fill="#EFF5FF"/>
<path d="M362 207L350 219" stroke="#6E7491" stroke-width="2" stroke-linecap="round" stroke-linejoin="round"/>
<path d="M350 207L362 219" stroke="#6E7491" stroke-width="2" stroke-linecap="round" stroke-linejoin="round"/>
<path d="M335 271C335 264.373 340.373 259 347 259H365C371.627 259 377 264.373 377 271V289C377 295.627 371.627 301 365 301H347C340.373 301 335 295.627 335 289V271Z" fill="#F6F9FE"/>
<path d="M362 274L350 286" stroke="#6E7491" stroke-width="2" stroke-linecap="round" stroke-linejoin="round"/>
<path d="M350 274L362 286" stroke="#6E7491" stroke-width="2" stroke-linecap="round" stroke-linejoin="round"/>
<rect x="313.5" y="172.5" width="85" height="148" rx="31.5" stroke="#5384ED" stroke-dasharray="10 5"/>
<rect x="197.5" y="172.5" width="85" height="148" rx="31.5" fill="#EFF5FF"/>
<path d="M231 207H233H249" stroke="#6E7491" stroke-width="2" stroke-linecap="round" stroke-linejoin="round"/>
<path d="M236 207V205C236 204.47 236.211 203.961 236.586 203.586C236.961 203.211 237.47 203 238 203H242C242.53 203 243.039 203.211 243.414 203.586C243.789 203.961 244 204.47 244 205V207M247 207V221C247 221.53 246.789 222.039 246.414 222.414C246.039 222.789 245.53 223 245 223H235C234.47 223 233.961 222.789 233.586 222.414C233.211 222.039 233 221.53 233 221V207H247Z" stroke="#6E7491" stroke-width="2" stroke-linecap="round" stroke-linejoin="round"/>
<path d="M219 271C219 264.373 224.373 259 231 259H249C255.627 259 261 264.373 261 271V289C261 295.627 255.627 301 249 301H231C224.373 301 219 295.627 219 289V271Z" fill="#F6F9FE"/>
<path d="M231 274H233H249" stroke="#6E7491" stroke-width="2" stroke-linecap="round" stroke-linejoin="round"/>
<path d="M236 274V272C236 271.47 236.211 270.961 236.586 270.586C236.961 270.211 237.47 270 238 270H242C242.53 270 243.039 270.211 243.414 270.586C243.789 270.961 244 271.47 244 272V274M247 274V288C247 288.53 246.789 289.039 246.414 289.414C246.039 289.789 245.53 290 245 290H235C234.47 290 233.961 289.789 233.586 289.414C233.211 289.039 233 288.53 233 288V274H247Z" stroke="#6E7491" stroke-width="2" stroke-linecap="round" stroke-linejoin="round"/>
<rect x="197.5" y="172.5" width="85" height="148" rx="31.5" stroke="#5384ED" stroke-dasharray="10 5"/>
<rect x="81.5" y="172.5" width="85" height="148" rx="31.5" fill="#EFF5FF"/>
<path d="M115 207H117H133" stroke="#6E7491" stroke-width="2" stroke-linecap="round" stroke-linejoin="round"/>
<path d="M120 207V205C120 204.47 120.211 203.961 120.586 203.586C120.961 203.211 121.47 203 122 203H126C126.53 203 127.039 203.211 127.414 203.586C127.789 203.961 128 204.47 128 205V207M131 207V221C131 221.53 130.789 222.039 130.414 222.414C130.039 222.789 129.53 223 129 223H119C118.47 223 117.961 222.789 117.586 222.414C117.211 222.039 117 221.53 117 221V207H131Z" stroke="#6E7491" stroke-width="2" stroke-linecap="round" stroke-linejoin="round"/>
<path d="M103 271C103 264.373 108.373 259 115 259H133C139.627 259 145 264.373 145 271V289C145 295.627 139.627 301 133 301H115C108.373 301 103 295.627 103 289V271Z" fill="#E6EEFB"/>
<path d="M115 274H117H133" stroke="#6E7491" stroke-width="2" stroke-linecap="round" stroke-linejoin="round"/>
<path d="M120 274V272C120 271.47 120.211 270.961 120.586 270.586C120.961 270.211 121.47 270 122 270H126C126.53 270 127.039 270.211 127.414 270.586C127.789 270.961 128 271.47 128 272V274M131 274V288C131 288.53 130.789 289.039 130.414 289.414C130.039 289.789 129.53 290 129 290H119C118.47 290 117.961 289.789 117.586 289.414C117.211 289.039 117 288.53 117 288V274H131Z" stroke="#6E7491" stroke-width="2" stroke-linecap="round" stroke-linejoin="round"/>
<rect x="81.5" y="172.5" width="85" height="148" rx="31.5" stroke="#5384ED" stroke-dasharray="10 5"/>
<rect x="709.5" y="172.5" width="572" height="361" rx="31.5" fill="#F6F9FE"/>
<path d="M739 200C739 195.582 742.582 192 747 192H1221C1225.42 192 1229 195.582 1229 200V248C1229 252.418 1225.42 256 1221 256H747C742.582 256 739 252.418 739 248V200Z" fill="#FAFAFA"/>
<text fill="#657491" xml:space="preserve" style="white-space: pre" font-family="Nunito Sans" font-size="16" letter-spacing="0px"><tspan x="763" y="229.264">Alina Bargaoanu signed up APPOINTA as a team member</tspan></text>
<path d="M1195.59 224L1191.34 219.757C1190.95 219.367 1190.95 218.734 1191.34 218.343C1191.73 217.953 1192.37 217.953 1192.76 218.343L1197 222.586L1201.24 218.343C1201.63 217.953 1202.27 217.953 1202.66 218.343C1203.05 218.734 1203.05 219.367 1202.66 219.757L1198.41 224L1202.66 228.243C1203.05 228.633 1203.05 229.266 1202.66 229.657C1202.27 230.047 1201.63 230.047 1201.24 229.657L1197 225.414L1192.76 229.657C1192.37 230.047 1191.73 230.047 1191.34 229.657C1190.95 229.266 1190.95 228.633 1191.34 228.243L1195.59 224Z" fill="#52527A" fill-opacity="0.2"/>
<path d="M747 193H1221V191H747V193ZM1228 200V248H1230V200H1228ZM1221 255H747V257H1221V255ZM740 248V200H738V248H740ZM747 255C743.134 255 740 251.866 740 248H738C738 252.971 742.029 257 747 257V255ZM1228 248C1228 251.866 1224.87 255 1221 255V257C1225.97 257 1230 252.971 1230 248H1228ZM1221 193C1224.87 193 1228 196.134 1228 200H1230C1230 195.029 1225.97 191 1221 191V193ZM747 191C742.029 191 738 195.029 738 200H740C740 196.134 743.134 193 747 193V191Z" fill="#657491"/>
<path d="M739 280C739 275.582 742.582 272 747 272H1148C1152.42 272 1156 275.582 1156 280V328C1156 332.418 1152.42 336 1148 336H747C742.582 336 739 332.418 739 328V280Z" fill="#FFFAEA"/>
<text fill="#A26B00" xml:space="preserve" style="white-space: pre" font-family="Nunito Sans" font-size="16" letter-spacing="0px"><tspan x="763" y="309.264">You can combine interviews as an interview set!</tspan></text>
<path d="M1122.59 304L1118.34 299.757C1117.95 299.367 1117.95 298.734 1118.34 298.343C1118.73 297.953 1119.37 297.953 1119.76 298.343L1124 302.586L1128.24 298.343C1128.63 297.953 1129.27 297.953 1129.66 298.343C1130.05 298.734 1130.05 299.367 1129.66 299.757L1125.41 304L1129.66 308.243C1130.05 308.633 1130.05 309.266 1129.66 309.657C1129.27 310.047 1128.63 310.047 1128.24 309.657L1124 305.414L1119.76 309.657C1119.37 310.047 1118.73 310.047 1118.34 309.657C1117.95 309.266 1117.95 308.633 1118.34 308.243L1122.59 304Z" fill="#52527A" fill-opacity="0.2"/>
<path d="M747 273H1148V271H747V273ZM1155 280V328H1157V280H1155ZM1148 335H747V337H1148V335ZM740 328V280H738V328H740ZM747 335C743.134 335 740 331.866 740 328H738C738 332.971 742.029 337 747 337V335ZM1155 328C1155 331.866 1151.87 335 1148 335V337C1152.97 337 1157 332.971 1157 328H1155ZM1148 273C1151.87 273 1155 276.134 1155 280H1157C1157 275.029 1152.97 271 1148 271V273ZM747 271C742.029 271 738 275.029 738 280H740C740 276.134 743.134 273 747 273V271Z" fill="#A26B00"/>
<path d="M739 360C739 355.582 742.582 352 747 352H1245C1249.42 352 1253 355.582 1253 360V408C1253 412.418 1249.42 416 1245 416H747C742.582 416 739 412.418 739 408V360Z" fill="#FDEFEF"/>
<text fill="#A40000" xml:space="preserve" style="white-space: pre" font-family="Nunito Sans" font-size="16" letter-spacing="0px"><tspan x="763" y="389.264">You don&#39;t have any members with the required interview skill!</tspan></text>
<path d="M1219.59 384L1215.34 379.757C1214.95 379.367 1214.95 378.734 1215.34 378.343C1215.73 377.953 1216.37 377.953 1216.76 378.343L1221 382.586L1225.24 378.343C1225.63 377.953 1226.27 377.953 1226.66 378.343C1227.05 378.734 1227.05 379.367 1226.66 379.757L1222.41 384L1226.66 388.243C1227.05 388.633 1227.05 389.266 1226.66 389.657C1226.27 390.047 1225.63 390.047 1225.24 389.657L1221 385.414L1216.76 389.657C1216.37 390.047 1215.73 390.047 1215.34 389.657C1214.95 389.266 1214.95 388.633 1215.34 388.243L1219.59 384Z" fill="#52527A" fill-opacity="0.2"/>
<path d="M747 353H1245V351H747V353ZM1252 360V408H1254V360H1252ZM1245 415H747V417H1245V415ZM740 408V360H738V408H740ZM747 415C743.134 415 740 411.866 740 408H738C738 412.971 742.029 417 747 417V415ZM1252 408C1252 411.866 1248.87 415 1245 415V417C1249.97 417 1254 412.971 1254 408H1252ZM1245 353C1248.87 353 1252 356.134 1252 360H1254C1254 355.029 1249.97 351 1245 351V353ZM747 351C742.029 351 738 355.029 738 360H740C740 356.134 743.134 353 747 353V351Z" fill="#A40000"/>
<path d="M739 440C739 435.582 742.582 432 747 432H1129C1133.42 432 1137 435.582 1137 440V488C1137 492.418 1133.42 496 1129 496H747C742.582 496 739 492.418 739 488V440Z" fill="#EAFFFB"/>
<text fill="#007B65" xml:space="preserve" style="white-space: pre" font-family="Nunito Sans" font-size="16" letter-spacing="0px"><tspan x="763" y="469.264">Your interview has been booked successfully!</tspan></text>
<path d="M1103.59 464L1099.34 459.757C1098.95 459.367 1098.95 458.734 1099.34 458.343C1099.73 457.953 1100.37 457.953 1100.76 458.343L1105 462.586L1109.24 458.343C1109.63 457.953 1110.27 457.953 1110.66 458.343C1111.05 458.734 1111.05 459.367 1110.66 459.757L1106.41 464L1110.66 468.243C1111.05 468.633 1111.05 469.266 1110.66 469.657C1110.27 470.047 1109.63 470.047 1109.24 469.657L1105 465.414L1100.76 469.657C1100.37 470.047 1099.73 470.047 1099.34 469.657C1098.95 469.266 1098.95 468.633 1099.34 468.243L1103.59 464Z" fill="#52527A" fill-opacity="0.2"/>
<path d="M747 433H1129V431H747V433ZM1136 440V488H1138V440H1136ZM1129 495H747V497H1129V495ZM740 488V440H738V488H740ZM747 495C743.134 495 740 491.866 740 488H738C738 492.971 742.029 497 747 497V495ZM1136 488C1136 491.866 1132.87 495 1129 495V497C1133.97 497 1138 492.971 1138 488H1136ZM1129 433C1132.87 433 1136 436.134 1136 440H1138C1138 435.029 1133.97 431 1129 431V433ZM747 431C742.029 431 738 435.029 738 440H740C740 436.134 743.134 433 747 433V431Z" fill="#007B65"/>
<rect x="709.5" y="172.5" width="572" height="361" rx="31.5" stroke="#5384ED" stroke-dasharray="10 5"/>
<text fill="#5384ED" xml:space="preserve" style="white-space: pre" font-family="Roboto" font-size="32" font-weight="500" letter-spacing="0em"><tspan x="709" y="110.938">Callouts</tspan></text>
<text fill="#5384ED" xml:space="preserve" style="white-space: pre" font-family="Roboto" font-size="32" font-weight="500" letter-spacing="0em"><tspan x="81" y="110.938">Icon hover</tspan></text>
<rect x="0.5" y="0.5" width="1513" height="983" rx="32.5" stroke="#CBD4E6"/>
</svg>
