<svg width="1514" height="984" viewBox="0 0 1514 984" fill="none" xmlns="http://www.w3.org/2000/svg">
<rect x="0.5" y="0.5" width="1513" height="983" rx="32.5" fill="white"/>
<text fill="#5384ED" xml:space="preserve" style="white-space: pre" font-family="Roboto" font-size="32" font-weight="500" letter-spacing="0em"><tspan x="81" y="110.938">Buttons</tspan></text>
<rect x="81.5" y="182.5" width="1275" height="619" rx="31.5" fill="#EFF5FF"/>
<path d="M261 456C261 449.373 266.373 444 273 444H309C315.627 444 321 449.373 321 456V464C321 470.627 315.627 476 309 476H273C266.373 476 261 470.627 261 464V456Z" fill="white"/>
<text fill="#5384ED" xml:space="preserve" style="white-space: pre" font-family="Roboto" font-size="14" letter-spacing="0em"><tspan x="273" y="464.785">Small</tspan></text>
<path d="M273 445H309V443H273V445ZM320 456V464H322V456H320ZM309 475H273V477H309V475ZM262 464V456H260V464H262ZM273 475C266.925 475 262 470.075 262 464H260C260 471.18 265.82 477 273 477V475ZM320 464C320 470.075 315.075 475 309 475V477C316.18 477 322 471.18 322 464H320ZM309 445C315.075 445 320 449.925 320 456H322C322 448.82 316.18 443 309 443V445ZM273 443C265.82 443 260 448.82 260 456H262C262 449.925 266.925 445 273 445V443Z" fill="#5384ED"/>
<path d="M261 546C261 539.373 266.373 534 273 534H309C315.627 534 321 539.373 321 546V554C321 560.627 315.627 566 309 566H273C266.373 566 261 560.627 261 554V546Z" fill="#F6F9FE"/>
<text fill="#5384ED" xml:space="preserve" style="white-space: pre" font-family="Roboto" font-size="14" letter-spacing="0em"><tspan x="273" y="554.785">Small</tspan></text>
<path d="M273 535H309V533H273V535ZM320 546V554H322V546H320ZM309 565H273V567H309V565ZM262 554V546H260V554H262ZM273 565C266.925 565 262 560.075 262 554H260C260 561.18 265.82 567 273 567V565ZM320 554C320 560.075 315.075 565 309 565V567C316.18 567 322 561.18 322 554H320ZM309 535C315.075 535 320 539.925 320 546H322C322 538.82 316.18 533 309 533V535ZM273 533C265.82 533 260 538.82 260 546H262C262 539.925 266.925 535 273 535V533Z" fill="#5384ED"/>
<path d="M180 456C180 447.163 187.163 440 196 440H239C247.837 440 255 447.163 255 456V464C255 472.837 247.837 480 239 480H196C187.163 480 180 472.837 180 464V456Z" fill="white"/>
<text fill="#5384ED" xml:space="preserve" style="white-space: pre" font-family="Roboto" font-size="14" letter-spacing="0em"><tspan x="192" y="464.785">Medium</tspan></text>
<path d="M196 441H239V439H196V441ZM254 456V464H256V456H254ZM239 479H196V481H239V479ZM181 464V456H179V464H181ZM196 479C187.716 479 181 472.284 181 464H179C179 473.389 186.611 481 196 481V479ZM254 464C254 472.284 247.284 479 239 479V481C248.389 481 256 473.389 256 464H254ZM239 441C247.284 441 254 447.716 254 456H256C256 446.611 248.389 439 239 439V441ZM196 439C186.611 439 179 446.611 179 456H181C181 447.716 187.716 441 196 441V439Z" fill="#5384ED"/>
<path d="M180 546C180 537.163 187.163 530 196 530H239C247.837 530 255 537.163 255 546V554C255 562.837 247.837 570 239 570H196C187.163 570 180 562.837 180 554V546Z" fill="#F6F9FE"/>
<text fill="#5384ED" xml:space="preserve" style="white-space: pre" font-family="Roboto" font-size="14" letter-spacing="0em"><tspan x="192" y="554.785">Medium</tspan></text>
<path d="M196 531H239V529H196V531ZM254 546V554H256V546H254ZM239 569H196V571H239V569ZM181 554V546H179V554H181ZM196 569C187.716 569 181 562.284 181 554H179C179 563.389 186.611 571 196 571V569ZM254 554C254 562.284 247.284 569 239 569V571C248.389 571 256 563.389 256 554H254ZM239 531C247.284 531 254 537.716 254 546H256C256 536.611 248.389 529 239 529V531ZM196 529C186.611 529 179 536.611 179 546H181C181 537.716 187.716 531 196 531V529Z" fill="#5384ED"/>
<path d="M101 452C101 443.163 108.163 436 117 436H158C166.837 436 174 443.163 174 452V468C174 476.837 166.837 484 158 484H117C108.163 484 101 476.837 101 468V452Z" fill="white"/>
<text fill="#5384ED" xml:space="preserve" style="white-space: pre" font-family="Roboto" font-size="16" letter-spacing="0em"><tspan x="117" y="465.469">Large</tspan></text>
<path d="M117 437H158V435H117V437ZM173 452V468H175V452H173ZM158 483H117V485H158V483ZM102 468V452H100V468H102ZM117 483C108.716 483 102 476.284 102 468H100C100 477.389 107.611 485 117 485V483ZM173 468C173 476.284 166.284 483 158 483V485C167.389 485 175 477.389 175 468H173ZM158 437C166.284 437 173 443.716 173 452H175C175 442.611 167.389 435 158 435V437ZM117 435C107.611 435 100 442.611 100 452H102C102 443.716 108.716 437 117 437V435Z" fill="#5384ED"/>
<path d="M101 542C101 533.163 108.163 526 117 526H158C166.837 526 174 533.163 174 542V558C174 566.837 166.837 574 158 574H117C108.163 574 101 566.837 101 558V542Z" fill="#F6F9FE"/>
<text fill="#5384ED" xml:space="preserve" style="white-space: pre" font-family="Roboto" font-size="16" letter-spacing="0em"><tspan x="117" y="555.469">Large</tspan></text>
<path d="M117 527H158V525H117V527ZM173 542V558H175V542H173ZM158 573H117V575H158V573ZM102 558V542H100V558H102ZM117 573C108.716 573 102 566.284 102 558H100C100 567.389 107.611 575 117 575V573ZM173 558C173 566.284 166.284 573 158 573V575C167.389 575 175 567.389 175 558H173ZM158 527C166.284 527 173 533.716 173 542H175C175 532.611 167.389 525 158 525V527ZM117 525C107.611 525 100 532.611 100 542H102C102 533.716 108.716 527 117 527V525Z" fill="#5384ED"/>
<text fill="#27273F" xml:space="preserve" style="white-space: pre" font-family="Roboto" font-size="14" letter-spacing="0em"><tspan x="273" y="652.785">Small</tspan></text>
<text fill="#5384ED" xml:space="preserve" style="white-space: pre" font-family="Roboto" font-size="14" letter-spacing="0em"><tspan x="273" y="729.785">Small</tspan></text>
<path d="M576.63 642.457C576.247 642.074 575.792 641.77 575.292 641.563C574.791 641.355 574.254 641.249 573.713 641.249C573.171 641.249 572.634 641.355 572.134 641.563C571.633 641.77 571.178 642.074 570.795 642.457L570 643.252L569.205 642.457C568.431 641.684 567.382 641.249 566.288 641.249C565.193 641.249 564.144 641.684 563.37 642.457C562.596 643.231 562.162 644.281 562.162 645.375C562.162 646.469 562.596 647.519 563.37 648.292L564.165 649.087L570 654.922L575.835 649.087L576.63 648.292C577.013 647.909 577.317 647.455 577.525 646.954C577.732 646.453 577.839 645.917 577.839 645.375C577.839 644.833 577.732 644.296 577.525 643.796C577.317 643.295 577.013 642.84 576.63 642.457V642.457Z" stroke="#27273F" stroke-width="2" stroke-linecap="round" stroke-linejoin="round"/>
<text fill="#27273F" xml:space="preserve" style="white-space: pre" font-family="Roboto" font-size="14" letter-spacing="0em"><tspan x="585" y="652.785">Small</tspan></text>
<path d="M576.63 719.457C576.247 719.074 575.792 718.77 575.292 718.563C574.791 718.355 574.254 718.249 573.713 718.249C573.171 718.249 572.634 718.355 572.134 718.563C571.633 718.77 571.178 719.074 570.795 719.457L570 720.252L569.205 719.457C568.431 718.684 567.382 718.249 566.288 718.249C565.193 718.249 564.144 718.684 563.37 719.457C562.596 720.231 562.162 721.281 562.162 722.375C562.162 723.469 562.596 724.519 563.37 725.292L564.165 726.087L570 731.922L575.835 726.087L576.63 725.292C577.013 724.909 577.317 724.455 577.525 723.954C577.732 723.453 577.839 722.917 577.839 722.375C577.839 721.833 577.732 721.296 577.525 720.796C577.317 720.295 577.013 719.84 576.63 719.457V719.457Z" stroke="#5384ED" stroke-width="2" stroke-linecap="round" stroke-linejoin="round"/>
<text fill="#5384ED" xml:space="preserve" style="white-space: pre" font-family="Roboto" font-size="14" letter-spacing="0em"><tspan x="585" y="729.785">Small</tspan></text>
<text fill="#27273F" xml:space="preserve" style="white-space: pre" font-family="Roboto" font-size="14" letter-spacing="0em"><tspan x="873" y="652.785">Small</tspan></text>
<path d="M921.75 652.5L926.25 648L921.75 643.5" stroke="#27273F" stroke-width="2" stroke-linecap="round" stroke-linejoin="round"/>
<text fill="#5384ED" xml:space="preserve" style="white-space: pre" font-family="Roboto" font-size="14" letter-spacing="0em"><tspan x="873" y="729.785">Small</tspan></text>
<path d="M921.75 729.5L926.25 725L921.75 720.5" stroke="#5384ED" stroke-width="2" stroke-linecap="round" stroke-linejoin="round"/>
<path d="M1256.63 642.457C1256.25 642.074 1255.79 641.77 1255.29 641.563C1254.79 641.355 1254.25 641.249 1253.71 641.249C1253.17 641.249 1252.63 641.355 1252.13 641.563C1251.63 641.77 1251.18 642.074 1250.79 642.457L1250 643.252L1249.2 642.457C1248.43 641.684 1247.38 641.249 1246.29 641.249C1245.19 641.249 1244.14 641.684 1243.37 642.457C1242.6 643.231 1242.16 644.281 1242.16 645.375C1242.16 646.469 1242.6 647.519 1243.37 648.292L1244.16 649.087L1250 654.922L1255.83 649.087L1256.63 648.292C1257.01 647.909 1257.32 647.455 1257.52 646.954C1257.73 646.453 1257.84 645.917 1257.84 645.375C1257.84 644.833 1257.73 644.296 1257.52 643.796C1257.32 643.295 1257.01 642.84 1256.63 642.457V642.457Z" stroke="#27273F" stroke-width="2" stroke-linecap="round" stroke-linejoin="round"/>
<text fill="#27273F" xml:space="preserve" style="white-space: pre" font-family="Roboto" font-size="14" letter-spacing="0em"><tspan x="1265" y="652.785">Small</tspan></text>
<path d="M1313.75 652.5L1318.25 648L1313.75 643.5" stroke="#27273F" stroke-width="2" stroke-linecap="round" stroke-linejoin="round"/>
<path d="M1256.63 719.457C1256.25 719.074 1255.79 718.77 1255.29 718.563C1254.79 718.355 1254.25 718.249 1253.71 718.249C1253.17 718.249 1252.63 718.355 1252.13 718.563C1251.63 718.77 1251.18 719.074 1250.79 719.457L1250 720.252L1249.2 719.457C1248.43 718.684 1247.38 718.249 1246.29 718.249C1245.19 718.249 1244.14 718.684 1243.37 719.457C1242.6 720.231 1242.16 721.281 1242.16 722.375C1242.16 723.469 1242.6 724.519 1243.37 725.292L1244.16 726.087L1250 731.922L1255.83 726.087L1256.63 725.292C1257.01 724.909 1257.32 724.455 1257.52 723.954C1257.73 723.453 1257.84 722.917 1257.84 722.375C1257.84 721.833 1257.73 721.296 1257.52 720.796C1257.32 720.295 1257.01 719.84 1256.63 719.457V719.457Z" stroke="#5384ED" stroke-width="2" stroke-linecap="round" stroke-linejoin="round"/>
<text fill="#5384ED" xml:space="preserve" style="white-space: pre" font-family="Roboto" font-size="14" letter-spacing="0em"><tspan x="1265" y="729.785">Small</tspan></text>
<path d="M1313.75 729.5L1318.25 725L1313.75 720.5" stroke="#5384ED" stroke-width="2" stroke-linecap="round" stroke-linejoin="round"/>
<text fill="#27273F" xml:space="preserve" style="white-space: pre" font-family="Roboto" font-size="14" letter-spacing="0em"><tspan x="192" y="652.785">Medium</tspan></text>
<text fill="#5384ED" xml:space="preserve" style="white-space: pre" font-family="Roboto" font-size="14" letter-spacing="0em"><tspan x="192" y="729.785">Medium</tspan></text>
<path d="M471.63 642.457C471.247 642.074 470.792 641.77 470.292 641.563C469.791 641.355 469.254 641.249 468.713 641.249C468.171 641.249 467.634 641.355 467.134 641.563C466.633 641.77 466.178 642.074 465.795 642.457L465 643.252L464.205 642.457C463.431 641.684 462.382 641.249 461.288 641.249C460.193 641.249 459.144 641.684 458.37 642.457C457.596 643.231 457.162 644.281 457.162 645.375C457.162 646.469 457.596 647.519 458.37 648.292L459.165 649.087L465 654.922L470.835 649.087L471.63 648.292C472.013 647.909 472.317 647.455 472.525 646.954C472.732 646.453 472.839 645.917 472.839 645.375C472.839 644.833 472.732 644.296 472.525 643.796C472.317 643.295 472.013 642.84 471.63 642.457V642.457Z" stroke="#27273F" stroke-width="2" stroke-linecap="round" stroke-linejoin="round"/>
<text fill="#27273F" xml:space="preserve" style="white-space: pre" font-family="Roboto" font-size="14" letter-spacing="0em"><tspan x="480" y="652.785">Medium</tspan></text>
<path d="M471.63 719.457C471.247 719.074 470.792 718.77 470.292 718.563C469.791 718.355 469.254 718.249 468.713 718.249C468.171 718.249 467.634 718.355 467.134 718.563C466.633 718.77 466.178 719.074 465.795 719.457L465 720.252L464.205 719.457C463.431 718.684 462.382 718.249 461.288 718.249C460.193 718.249 459.144 718.684 458.37 719.457C457.596 720.231 457.162 721.281 457.162 722.375C457.162 723.469 457.596 724.519 458.37 725.292L459.165 726.087L465 731.922L470.835 726.087L471.63 725.292C472.013 724.909 472.317 724.455 472.525 723.954C472.732 723.453 472.839 722.917 472.839 722.375C472.839 721.833 472.732 721.296 472.525 720.796C472.317 720.295 472.013 719.84 471.63 719.457V719.457Z" stroke="#5384ED" stroke-width="2" stroke-linecap="round" stroke-linejoin="round"/>
<text fill="#5384ED" xml:space="preserve" style="white-space: pre" font-family="Roboto" font-size="14" letter-spacing="0em"><tspan x="480" y="729.785">Medium</tspan></text>
<text fill="#27273F" xml:space="preserve" style="white-space: pre" font-family="Roboto" font-size="14" letter-spacing="0em"><tspan x="768" y="652.785">Medium</tspan></text>
<path d="M831.75 652.5L836.25 648L831.75 643.5" stroke="#27273F" stroke-width="2" stroke-linecap="round" stroke-linejoin="round"/>
<text fill="#5384ED" xml:space="preserve" style="white-space: pre" font-family="Roboto" font-size="14" letter-spacing="0em"><tspan x="768" y="729.785">Medium</tspan></text>
<path d="M831.75 729.5L836.25 725L831.75 720.5" stroke="#5384ED" stroke-width="2" stroke-linecap="round" stroke-linejoin="round"/>
<path d="M1127.63 642.457C1127.25 642.074 1126.79 641.77 1126.29 641.563C1125.79 641.355 1125.25 641.249 1124.71 641.249C1124.17 641.249 1123.63 641.355 1123.13 641.563C1122.63 641.77 1122.18 642.074 1121.79 642.457L1121 643.252L1120.2 642.457C1119.43 641.684 1118.38 641.249 1117.29 641.249C1116.19 641.249 1115.14 641.684 1114.37 642.457C1113.6 643.231 1113.16 644.281 1113.16 645.375C1113.16 646.469 1113.6 647.519 1114.37 648.292L1115.16 649.087L1121 654.922L1126.83 649.087L1127.63 648.292C1128.01 647.909 1128.32 647.455 1128.52 646.954C1128.73 646.453 1128.84 645.917 1128.84 645.375C1128.84 644.833 1128.73 644.296 1128.52 643.796C1128.32 643.295 1128.01 642.84 1127.63 642.457V642.457Z" stroke="#27273F" stroke-width="2" stroke-linecap="round" stroke-linejoin="round"/>
<text fill="#27273F" xml:space="preserve" style="white-space: pre" font-family="Roboto" font-size="14" letter-spacing="0em"><tspan x="1136" y="652.785">Medium</tspan></text>
<path d="M1199.75 652.5L1204.25 648L1199.75 643.5" stroke="#27273F" stroke-width="2" stroke-linecap="round" stroke-linejoin="round"/>
<path d="M1127.63 719.457C1127.25 719.074 1126.79 718.77 1126.29 718.563C1125.79 718.355 1125.25 718.249 1124.71 718.249C1124.17 718.249 1123.63 718.355 1123.13 718.563C1122.63 718.77 1122.18 719.074 1121.79 719.457L1121 720.252L1120.2 719.457C1119.43 718.684 1118.38 718.249 1117.29 718.249C1116.19 718.249 1115.14 718.684 1114.37 719.457C1113.6 720.231 1113.16 721.281 1113.16 722.375C1113.16 723.469 1113.6 724.519 1114.37 725.292L1115.16 726.087L1121 731.922L1126.83 726.087L1127.63 725.292C1128.01 724.909 1128.32 724.455 1128.52 723.954C1128.73 723.453 1128.84 722.917 1128.84 722.375C1128.84 721.833 1128.73 721.296 1128.52 720.796C1128.32 720.295 1128.01 719.84 1127.63 719.457V719.457Z" stroke="#5384ED" stroke-width="2" stroke-linecap="round" stroke-linejoin="round"/>
<text fill="#5384ED" xml:space="preserve" style="white-space: pre" font-family="Roboto" font-size="14" letter-spacing="0em"><tspan x="1136" y="729.785">Medium</tspan></text>
<path d="M1199.75 729.5L1204.25 725L1199.75 720.5" stroke="#5384ED" stroke-width="2" stroke-linecap="round" stroke-linejoin="round"/>
<text fill="#27273F" xml:space="preserve" style="white-space: pre" font-family="Roboto" font-size="16" letter-spacing="0em"><tspan x="117" y="653.469">Large</tspan></text>
<text fill="#5384ED" xml:space="preserve" style="white-space: pre" font-family="Roboto" font-size="16" letter-spacing="0em"><tspan x="117" y="730.469">Large</tspan></text>
<path d="M369.84 640.61C369.329 640.099 368.723 639.694 368.055 639.417C367.388 639.14 366.673 638.998 365.95 638.998C365.228 638.998 364.512 639.14 363.845 639.417C363.177 639.694 362.571 640.099 362.06 640.61L361 641.67L359.94 640.61C358.908 639.578 357.509 638.999 356.05 638.999C354.591 638.999 353.192 639.578 352.16 640.61C351.128 641.642 350.549 643.041 350.549 644.5C350.549 645.959 351.128 647.358 352.16 648.39L353.22 649.45L361 657.23L368.78 649.45L369.84 648.39C370.351 647.879 370.756 647.273 371.033 646.605C371.31 645.938 371.452 645.222 371.452 644.5C371.452 643.777 371.31 643.062 371.033 642.395C370.756 641.727 370.351 641.121 369.84 640.61V640.61Z" stroke="#27273F" stroke-width="2" stroke-linecap="round" stroke-linejoin="round"/>
<text fill="#27273F" xml:space="preserve" style="white-space: pre" font-family="Roboto" font-size="16" letter-spacing="0em"><tspan x="381" y="653.469">Large</tspan></text>
<path d="M369.84 717.61C369.329 717.099 368.723 716.694 368.055 716.417C367.388 716.14 366.673 715.998 365.95 715.998C365.228 715.998 364.512 716.14 363.845 716.417C363.177 716.694 362.571 717.099 362.06 717.61L361 718.67L359.94 717.61C358.908 716.578 357.509 715.999 356.05 715.999C354.591 715.999 353.192 716.578 352.16 717.61C351.128 718.642 350.549 720.041 350.549 721.5C350.549 722.959 351.128 724.358 352.16 725.39L353.22 726.45L361 734.23L368.78 726.45L369.84 725.39C370.351 724.879 370.756 724.273 371.033 723.605C371.31 722.938 371.452 722.222 371.452 721.5C371.452 720.777 371.31 720.062 371.033 719.395C370.756 718.727 370.351 718.121 369.84 717.61V717.61Z" stroke="#5384ED" stroke-width="2" stroke-linecap="round" stroke-linejoin="round"/>
<text fill="#5384ED" xml:space="preserve" style="white-space: pre" font-family="Roboto" font-size="16" letter-spacing="0em"><tspan x="381" y="730.469">Large</tspan></text>
<text fill="#27273F" xml:space="preserve" style="white-space: pre" font-family="Roboto" font-size="16" letter-spacing="0em"><tspan x="661" y="653.469">Large</tspan></text>
<path d="M719 654L725 648L719 642" stroke="#27273F" stroke-width="2" stroke-linecap="round" stroke-linejoin="round"/>
<text fill="#5384ED" xml:space="preserve" style="white-space: pre" font-family="Roboto" font-size="16" letter-spacing="0em"><tspan x="661" y="730.469">Large</tspan></text>
<path d="M719 731L725 725L719 719" stroke="#5384ED" stroke-width="2" stroke-linecap="round" stroke-linejoin="round"/>
<path d="M993.84 640.61C993.329 640.099 992.723 639.694 992.055 639.417C991.388 639.14 990.672 638.998 989.95 638.998C989.228 638.998 988.512 639.14 987.845 639.417C987.177 639.694 986.571 640.099 986.06 640.61L985 641.67L983.94 640.61C982.908 639.578 981.509 638.999 980.05 638.999C978.591 638.999 977.192 639.578 976.16 640.61C975.128 641.642 974.549 643.041 974.549 644.5C974.549 645.959 975.128 647.358 976.16 648.39L977.22 649.45L985 657.23L992.78 649.45L993.84 648.39C994.351 647.879 994.756 647.273 995.033 646.605C995.309 645.938 995.452 645.222 995.452 644.5C995.452 643.777 995.309 643.062 995.033 642.395C994.756 641.727 994.351 641.121 993.84 640.61V640.61Z" stroke="#27273F" stroke-width="2" stroke-linecap="round" stroke-linejoin="round"/>
<text fill="#27273F" xml:space="preserve" style="white-space: pre" font-family="Roboto" font-size="16" letter-spacing="0em"><tspan x="1005" y="653.469">Large</tspan></text>
<path d="M1063 654L1069 648L1063 642" stroke="#27273F" stroke-width="2" stroke-linecap="round" stroke-linejoin="round"/>
<path d="M993.84 717.61C993.329 717.099 992.723 716.694 992.055 716.417C991.388 716.14 990.672 715.998 989.95 715.998C989.228 715.998 988.512 716.14 987.845 716.417C987.177 716.694 986.571 717.099 986.06 717.61L985 718.67L983.94 717.61C982.908 716.578 981.509 715.999 980.05 715.999C978.591 715.999 977.192 716.578 976.16 717.61C975.128 718.642 974.549 720.041 974.549 721.5C974.549 722.959 975.128 724.358 976.16 725.39L977.22 726.45L985 734.23L992.78 726.45L993.84 725.39C994.351 724.879 994.756 724.273 995.033 723.605C995.309 722.938 995.452 722.222 995.452 721.5C995.452 720.777 995.309 720.062 995.033 719.395C994.756 718.727 994.351 718.121 993.84 717.61V717.61Z" stroke="#5384ED" stroke-width="2" stroke-linecap="round" stroke-linejoin="round"/>
<text fill="#5384ED" xml:space="preserve" style="white-space: pre" font-family="Roboto" font-size="16" letter-spacing="0em"><tspan x="1005" y="730.469">Large</tspan></text>
<path d="M1063 731L1069 725L1063 719" stroke="#5384ED" stroke-width="2" stroke-linecap="round" stroke-linejoin="round"/>
<path d="M444 456C444 447.163 451.163 440 460 440H527C535.837 440 543 447.163 543 456V464C543 472.837 535.837 480 527 480H460C451.163 480 444 472.837 444 464V456Z" fill="white"/>
<path d="M471.63 454.457C471.247 454.074 470.792 453.77 470.292 453.563C469.791 453.355 469.254 453.249 468.713 453.249C468.171 453.249 467.634 453.355 467.134 453.563C466.633 453.77 466.178 454.074 465.795 454.457L465 455.252L464.205 454.457C463.431 453.684 462.382 453.249 461.288 453.249C460.193 453.249 459.144 453.684 458.37 454.457C457.596 455.231 457.162 456.281 457.162 457.375C457.162 458.469 457.596 459.519 458.37 460.292L459.165 461.087L465 466.922L470.835 461.087L471.63 460.292C472.013 459.909 472.317 459.455 472.525 458.954C472.732 458.453 472.839 457.917 472.839 457.375C472.839 456.833 472.732 456.296 472.525 455.796C472.317 455.295 472.013 454.84 471.63 454.457V454.457Z" stroke="#5384ED" stroke-width="2" stroke-linecap="round" stroke-linejoin="round"/>
<text fill="#5384ED" xml:space="preserve" style="white-space: pre" font-family="Roboto" font-size="14" letter-spacing="0em"><tspan x="480" y="464.785">Medium</tspan></text>
<path d="M460 441H527V439H460V441ZM542 456V464H544V456H542ZM527 479H460V481H527V479ZM445 464V456H443V464H445ZM460 479C451.716 479 445 472.284 445 464H443C443 473.389 450.611 481 460 481V479ZM542 464C542 472.284 535.284 479 527 479V481C536.389 481 544 473.389 544 464H542ZM527 441C535.284 441 542 447.716 542 456H544C544 446.611 536.389 439 527 439V441ZM460 439C450.611 439 443 446.611 443 456H445C445 447.716 451.716 441 460 441V439Z" fill="#5384ED"/>
<path d="M444 546C444 537.163 451.163 530 460 530H527C535.837 530 543 537.163 543 546V554C543 562.837 535.837 570 527 570H460C451.163 570 444 562.837 444 554V546Z" fill="#F6F9FE"/>
<path d="M471.63 544.457C471.247 544.074 470.792 543.77 470.292 543.563C469.791 543.355 469.254 543.249 468.713 543.249C468.171 543.249 467.634 543.355 467.134 543.563C466.633 543.77 466.178 544.074 465.795 544.457L465 545.252L464.205 544.457C463.431 543.684 462.382 543.249 461.288 543.249C460.193 543.249 459.144 543.684 458.37 544.457C457.596 545.231 457.162 546.281 457.162 547.375C457.162 548.469 457.596 549.519 458.37 550.292L459.165 551.087L465 556.922L470.835 551.087L471.63 550.292C472.013 549.909 472.317 549.455 472.525 548.954C472.732 548.453 472.839 547.917 472.839 547.375C472.839 546.833 472.732 546.296 472.525 545.796C472.317 545.295 472.013 544.84 471.63 544.457V544.457Z" stroke="#5384ED" stroke-width="2" stroke-linecap="round" stroke-linejoin="round"/>
<text fill="#5384ED" xml:space="preserve" style="white-space: pre" font-family="Roboto" font-size="14" letter-spacing="0em"><tspan x="480" y="554.785">Medium</tspan></text>
<path d="M460 531H527V529H460V531ZM542 546V554H544V546H542ZM527 569H460V571H527V569ZM445 554V546H443V554H445ZM460 569C451.716 569 445 562.284 445 554H443C443 563.389 450.611 571 460 571V569ZM542 554C542 562.284 535.284 569 527 569V571C536.389 571 544 563.389 544 554H542ZM527 531C535.284 531 542 537.716 542 546H544C544 536.611 536.389 529 527 529V531ZM460 529C450.611 529 443 536.611 443 546H445C445 537.716 451.716 531 460 531V529Z" fill="#5384ED"/>
<path d="M756 456C756 447.163 763.163 440 772 440H839C847.837 440 855 447.163 855 456V464C855 472.837 847.837 480 839 480H772C763.163 480 756 472.837 756 464V456Z" fill="white"/>
<text fill="#5384ED" xml:space="preserve" style="white-space: pre" font-family="Roboto" font-size="14" letter-spacing="0em"><tspan x="768" y="464.785">Medium</tspan></text>
<path d="M831.75 464.5L836.25 460L831.75 455.5" stroke="#5384ED" stroke-width="2" stroke-linecap="round" stroke-linejoin="round"/>
<path d="M772 441H839V439H772V441ZM854 456V464H856V456H854ZM839 479H772V481H839V479ZM757 464V456H755V464H757ZM772 479C763.716 479 757 472.284 757 464H755C755 473.389 762.611 481 772 481V479ZM854 464C854 472.284 847.284 479 839 479V481C848.389 481 856 473.389 856 464H854ZM839 441C847.284 441 854 447.716 854 456H856C856 446.611 848.389 439 839 439V441ZM772 439C762.611 439 755 446.611 755 456H757C757 447.716 763.716 441 772 441V439Z" fill="#5384ED"/>
<path d="M756 546C756 537.163 763.163 530 772 530H839C847.837 530 855 537.163 855 546V554C855 562.837 847.837 570 839 570H772C763.163 570 756 562.837 756 554V546Z" fill="#F6F9FE"/>
<text fill="#5384ED" xml:space="preserve" style="white-space: pre" font-family="Roboto" font-size="14" letter-spacing="0em"><tspan x="768" y="554.785">Medium</tspan></text>
<path d="M831.75 554.5L836.25 550L831.75 545.5" stroke="#5384ED" stroke-width="2" stroke-linecap="round" stroke-linejoin="round"/>
<path d="M772 531H839V529H772V531ZM854 546V554H856V546H854ZM839 569H772V571H839V569ZM757 554V546H755V554H757ZM772 569C763.716 569 757 562.284 757 554H755C755 563.389 762.611 571 772 571V569ZM854 554C854 562.284 847.284 569 839 569V571C848.389 571 856 563.389 856 554H854ZM839 531C847.284 531 854 537.716 854 546H856C856 536.611 848.389 529 839 529V531ZM772 529C762.611 529 755 536.611 755 546H757C757 537.716 763.716 531 772 531V529Z" fill="#5384ED"/>
<path d="M1100 456C1100 447.163 1107.16 440 1116 440H1207C1215.84 440 1223 447.163 1223 456V464C1223 472.837 1215.84 480 1207 480H1116C1107.16 480 1100 472.837 1100 464V456Z" fill="white"/>
<path d="M1127.63 454.457C1127.25 454.074 1126.79 453.77 1126.29 453.563C1125.79 453.355 1125.25 453.249 1124.71 453.249C1124.17 453.249 1123.63 453.355 1123.13 453.563C1122.63 453.77 1122.18 454.074 1121.79 454.457L1121 455.252L1120.2 454.457C1119.43 453.684 1118.38 453.249 1117.29 453.249C1116.19 453.249 1115.14 453.684 1114.37 454.457C1113.6 455.231 1113.16 456.281 1113.16 457.375C1113.16 458.469 1113.6 459.519 1114.37 460.292L1115.16 461.087L1121 466.922L1126.83 461.087L1127.63 460.292C1128.01 459.909 1128.32 459.455 1128.52 458.954C1128.73 458.453 1128.84 457.917 1128.84 457.375C1128.84 456.833 1128.73 456.296 1128.52 455.796C1128.32 455.295 1128.01 454.84 1127.63 454.457V454.457Z" stroke="#5384ED" stroke-width="2" stroke-linecap="round" stroke-linejoin="round"/>
<text fill="#5384ED" xml:space="preserve" style="white-space: pre" font-family="Roboto" font-size="14" letter-spacing="0em"><tspan x="1136" y="464.785">Medium</tspan></text>
<path d="M1199.75 464.5L1204.25 460L1199.75 455.5" stroke="#5384ED" stroke-width="2" stroke-linecap="round" stroke-linejoin="round"/>
<path d="M1116 441H1207V439H1116V441ZM1222 456V464H1224V456H1222ZM1207 479H1116V481H1207V479ZM1101 464V456H1099V464H1101ZM1116 479C1107.72 479 1101 472.284 1101 464H1099C1099 473.389 1106.61 481 1116 481V479ZM1222 464C1222 472.284 1215.28 479 1207 479V481C1216.39 481 1224 473.389 1224 464H1222ZM1207 441C1215.28 441 1222 447.716 1222 456H1224C1224 446.611 1216.39 439 1207 439V441ZM1116 439C1106.61 439 1099 446.611 1099 456H1101C1101 447.716 1107.72 441 1116 441V439Z" fill="#5384ED"/>
<path d="M1100 546C1100 537.163 1107.16 530 1116 530H1207C1215.84 530 1223 537.163 1223 546V554C1223 562.837 1215.84 570 1207 570H1116C1107.16 570 1100 562.837 1100 554V546Z" fill="#F6F9FE"/>
<path d="M1127.63 544.457C1127.25 544.074 1126.79 543.77 1126.29 543.563C1125.79 543.355 1125.25 543.249 1124.71 543.249C1124.17 543.249 1123.63 543.355 1123.13 543.563C1122.63 543.77 1122.18 544.074 1121.79 544.457L1121 545.252L1120.2 544.457C1119.43 543.684 1118.38 543.249 1117.29 543.249C1116.19 543.249 1115.14 543.684 1114.37 544.457C1113.6 545.231 1113.16 546.281 1113.16 547.375C1113.16 548.469 1113.6 549.519 1114.37 550.292L1115.16 551.087L1121 556.922L1126.83 551.087L1127.63 550.292C1128.01 549.909 1128.32 549.455 1128.52 548.954C1128.73 548.453 1128.84 547.917 1128.84 547.375C1128.84 546.833 1128.73 546.296 1128.52 545.796C1128.32 545.295 1128.01 544.84 1127.63 544.457V544.457Z" stroke="#5384ED" stroke-width="2" stroke-linecap="round" stroke-linejoin="round"/>
<text fill="#5384ED" xml:space="preserve" style="white-space: pre" font-family="Roboto" font-size="14" letter-spacing="0em"><tspan x="1136" y="554.785">Medium</tspan></text>
<path d="M1199.75 554.5L1204.25 550L1199.75 545.5" stroke="#5384ED" stroke-width="2" stroke-linecap="round" stroke-linejoin="round"/>
<path d="M1116 531H1207V529H1116V531ZM1222 546V554H1224V546H1222ZM1207 569H1116V571H1207V569ZM1101 554V546H1099V554H1101ZM1116 569C1107.72 569 1101 562.284 1101 554H1099C1099 563.389 1106.61 571 1116 571V569ZM1222 554C1222 562.284 1215.28 569 1207 569V571C1216.39 571 1224 563.389 1224 554H1222ZM1207 531C1215.28 531 1222 537.716 1222 546H1224C1224 536.611 1216.39 529 1207 529V531ZM1116 529C1106.61 529 1099 536.611 1099 546H1101C1101 537.716 1107.72 531 1116 531V529Z" fill="#5384ED"/>
<path d="M333 452C333 443.163 340.163 436 349 436H422C430.837 436 438 443.163 438 452V468C438 476.837 430.837 484 422 484H349C340.163 484 333 476.837 333 468V452Z" fill="white"/>
<path d="M361 453V467" stroke="#5384ED" stroke-width="2" stroke-linecap="round" stroke-linejoin="round"/>
<path d="M354 460H368" stroke="#5384ED" stroke-width="2" stroke-linecap="round" stroke-linejoin="round"/>
<text fill="#5384ED" xml:space="preserve" style="white-space: pre" font-family="Roboto" font-size="16" letter-spacing="0em"><tspan x="381" y="465.469">Large</tspan></text>
<path d="M349 437H422V435H349V437ZM437 452V468H439V452H437ZM422 483H349V485H422V483ZM334 468V452H332V468H334ZM349 483C340.716 483 334 476.284 334 468H332C332 477.389 339.611 485 349 485V483ZM437 468C437 476.284 430.284 483 422 483V485C431.389 485 439 477.389 439 468H437ZM422 437C430.284 437 437 443.716 437 452H439C439 442.611 431.389 435 422 435V437ZM349 435C339.611 435 332 442.611 332 452H334C334 443.716 340.716 437 349 437V435Z" fill="#5384ED"/>
<path d="M333 542C333 533.163 340.163 526 349 526H422C430.837 526 438 533.163 438 542V558C438 566.837 430.837 574 422 574H349C340.163 574 333 566.837 333 558V542Z" fill="#F6F9FE"/>
<path d="M361 543V557" stroke="#5384ED" stroke-width="2" stroke-linecap="round" stroke-linejoin="round"/>
<path d="M354 550H368" stroke="#5384ED" stroke-width="2" stroke-linecap="round" stroke-linejoin="round"/>
<text fill="#5384ED" xml:space="preserve" style="white-space: pre" font-family="Roboto" font-size="16" letter-spacing="0em"><tspan x="381" y="555.469">Large</tspan></text>
<path d="M349 527H422V525H349V527ZM437 542V558H439V542H437ZM422 573H349V575H422V573ZM334 558V542H332V558H334ZM349 573C340.716 573 334 566.284 334 558H332C332 567.389 339.611 575 349 575V573ZM437 558C437 566.284 430.284 573 422 573V575C431.389 575 439 567.389 439 558H437ZM422 527C430.284 527 437 533.716 437 542H439C439 532.611 431.389 525 422 525V527ZM349 525C339.611 525 332 532.611 332 542H334C334 533.716 340.716 527 349 527V525Z" fill="#5384ED"/>
<path d="M645 452C645 443.163 652.163 436 661 436H734C742.837 436 750 443.163 750 452V468C750 476.837 742.837 484 734 484H661C652.163 484 645 476.837 645 468V452Z" fill="white"/>
<text fill="#5384ED" xml:space="preserve" style="white-space: pre" font-family="Roboto" font-size="16" letter-spacing="0em"><tspan x="661" y="465.469">Large</tspan></text>
<path d="M719 466L725 460L719 454" stroke="#5384ED" stroke-width="2" stroke-linecap="round" stroke-linejoin="round"/>
<path d="M661 437H734V435H661V437ZM749 452V468H751V452H749ZM734 483H661V485H734V483ZM646 468V452H644V468H646ZM661 483C652.716 483 646 476.284 646 468H644C644 477.389 651.611 485 661 485V483ZM749 468C749 476.284 742.284 483 734 483V485C743.389 485 751 477.389 751 468H749ZM734 437C742.284 437 749 443.716 749 452H751C751 442.611 743.389 435 734 435V437ZM661 435C651.611 435 644 442.611 644 452H646C646 443.716 652.716 437 661 437V435Z" fill="#5384ED"/>
<path d="M645 542C645 533.163 652.163 526 661 526H734C742.837 526 750 533.163 750 542V558C750 566.837 742.837 574 734 574H661C652.163 574 645 566.837 645 558V542Z" fill="#F6F9FE"/>
<text fill="#5384ED" xml:space="preserve" style="white-space: pre" font-family="Roboto" font-size="16" letter-spacing="0em"><tspan x="661" y="555.469">Large</tspan></text>
<path d="M719 556L725 550L719 544" stroke="#5384ED" stroke-width="2" stroke-linecap="round" stroke-linejoin="round"/>
<path d="M661 527H734V525H661V527ZM749 542V558H751V542H749ZM734 573H661V575H734V573ZM646 558V542H644V558H646ZM661 573C652.716 573 646 566.284 646 558H644C644 567.389 651.611 575 661 575V573ZM749 558C749 566.284 742.284 573 734 573V575C743.389 575 751 567.389 751 558H749ZM734 527C742.284 527 749 533.716 749 542H751C751 532.611 743.389 525 734 525V527ZM661 525C651.611 525 644 532.611 644 542H646C646 533.716 652.716 527 661 527V525Z" fill="#5384ED"/>
<path d="M957 452C957 443.163 964.163 436 973 436H1078C1086.84 436 1094 443.163 1094 452V468C1094 476.837 1086.84 484 1078 484H973C964.163 484 957 476.837 957 468V452Z" fill="white"/>
<path d="M993.84 452.61C993.329 452.099 992.723 451.694 992.055 451.417C991.388 451.14 990.672 450.998 989.95 450.998C989.228 450.998 988.512 451.14 987.845 451.417C987.177 451.694 986.571 452.099 986.06 452.61L985 453.67L983.94 452.61C982.908 451.578 981.509 450.999 980.05 450.999C978.591 450.999 977.192 451.578 976.16 452.61C975.128 453.642 974.549 455.041 974.549 456.5C974.549 457.959 975.128 459.358 976.16 460.39L977.22 461.45L985 469.23L992.78 461.45L993.84 460.39C994.351 459.879 994.756 459.273 995.033 458.605C995.309 457.938 995.452 457.222 995.452 456.5C995.452 455.777 995.309 455.062 995.033 454.395C994.756 453.727 994.351 453.121 993.84 452.61V452.61Z" stroke="#5384ED" stroke-width="2" stroke-linecap="round" stroke-linejoin="round"/>
<text fill="#5384ED" xml:space="preserve" style="white-space: pre" font-family="Roboto" font-size="16" letter-spacing="0em"><tspan x="1005" y="465.469">Large</tspan></text>
<path d="M1063 466L1069 460L1063 454" stroke="#5384ED" stroke-width="2" stroke-linecap="round" stroke-linejoin="round"/>
<path d="M973 437H1078V435H973V437ZM1093 452V468H1095V452H1093ZM1078 483H973V485H1078V483ZM958 468V452H956V468H958ZM973 483C964.716 483 958 476.284 958 468H956C956 477.389 963.611 485 973 485V483ZM1093 468C1093 476.284 1086.28 483 1078 483V485C1087.39 485 1095 477.389 1095 468H1093ZM1078 437C1086.28 437 1093 443.716 1093 452H1095C1095 442.611 1087.39 435 1078 435V437ZM973 435C963.611 435 956 442.611 956 452H958C958 443.716 964.716 437 973 437V435Z" fill="#5384ED"/>
<path d="M957 542C957 533.163 964.163 526 973 526H1078C1086.84 526 1094 533.163 1094 542V558C1094 566.837 1086.84 574 1078 574H973C964.163 574 957 566.837 957 558V542Z" fill="#F6F9FE"/>
<path d="M993.84 542.61C993.329 542.099 992.723 541.694 992.055 541.417C991.388 541.14 990.672 540.998 989.95 540.998C989.228 540.998 988.512 541.14 987.845 541.417C987.177 541.694 986.571 542.099 986.06 542.61L985 543.67L983.94 542.61C982.908 541.578 981.509 540.999 980.05 540.999C978.591 540.999 977.192 541.578 976.16 542.61C975.128 543.642 974.549 545.041 974.549 546.5C974.549 547.959 975.128 549.358 976.16 550.39L977.22 551.45L985 559.23L992.78 551.45L993.84 550.39C994.351 549.879 994.756 549.273 995.033 548.605C995.309 547.938 995.452 547.222 995.452 546.5C995.452 545.777 995.309 545.062 995.033 544.395C994.756 543.727 994.351 543.121 993.84 542.61V542.61Z" stroke="#5384ED" stroke-width="2" stroke-linecap="round" stroke-linejoin="round"/>
<text fill="#5384ED" xml:space="preserve" style="white-space: pre" font-family="Roboto" font-size="16" letter-spacing="0em"><tspan x="1005" y="555.469">Large</tspan></text>
<path d="M1063 556L1069 550L1063 544" stroke="#5384ED" stroke-width="2" stroke-linecap="round" stroke-linejoin="round"/>
<path d="M973 527H1078V525H973V527ZM1093 542V558H1095V542H1093ZM1078 573H973V575H1078V573ZM958 558V542H956V558H958ZM973 573C964.716 573 958 566.284 958 558H956C956 567.389 963.611 575 973 575V573ZM1093 558C1093 566.284 1086.28 573 1078 573V575C1087.39 575 1095 567.389 1095 558H1093ZM1078 527C1086.28 527 1093 533.716 1093 542H1095C1095 532.611 1087.39 525 1078 525V527ZM973 525C963.611 525 956 532.611 956 542H958C958 533.716 964.716 527 973 527V525Z" fill="#5384ED"/>
<path d="M549 456C549 449.373 554.373 444 561 444H621C627.627 444 633 449.373 633 456V464C633 470.627 627.627 476 621 476H561C554.373 476 549 470.627 549 464V456Z" fill="white"/>
<path d="M576.63 454.457C576.247 454.074 575.792 453.77 575.292 453.563C574.791 453.355 574.254 453.249 573.713 453.249C573.171 453.249 572.634 453.355 572.134 453.563C571.633 453.77 571.178 454.074 570.795 454.457L570 455.252L569.205 454.457C568.431 453.684 567.382 453.249 566.288 453.249C565.193 453.249 564.144 453.684 563.37 454.457C562.596 455.231 562.162 456.281 562.162 457.375C562.162 458.469 562.596 459.519 563.37 460.292L564.165 461.087L570 466.922L575.835 461.087L576.63 460.292C577.013 459.909 577.317 459.455 577.525 458.954C577.732 458.453 577.839 457.917 577.839 457.375C577.839 456.833 577.732 456.296 577.525 455.796C577.317 455.295 577.013 454.84 576.63 454.457V454.457Z" stroke="#5384ED" stroke-width="2" stroke-linecap="round" stroke-linejoin="round"/>
<text fill="#5384ED" xml:space="preserve" style="white-space: pre" font-family="Roboto" font-size="14" letter-spacing="0em"><tspan x="585" y="464.785">Small</tspan></text>
<path d="M561 445H621V443H561V445ZM632 456V464H634V456H632ZM621 475H561V477H621V475ZM550 464V456H548V464H550ZM561 475C554.925 475 550 470.075 550 464H548C548 471.18 553.82 477 561 477V475ZM632 464C632 470.075 627.075 475 621 475V477C628.18 477 634 471.18 634 464H632ZM621 445C627.075 445 632 449.925 632 456H634C634 448.82 628.18 443 621 443V445ZM561 443C553.82 443 548 448.82 548 456H550C550 449.925 554.925 445 561 445V443Z" fill="#5384ED"/>
<path d="M549 546C549 539.373 554.373 534 561 534H621C627.627 534 633 539.373 633 546V554C633 560.627 627.627 566 621 566H561C554.373 566 549 560.627 549 554V546Z" fill="#F6F9FE"/>
<path d="M576.63 544.457C576.247 544.074 575.792 543.77 575.292 543.563C574.791 543.355 574.254 543.249 573.713 543.249C573.171 543.249 572.634 543.355 572.134 543.563C571.633 543.77 571.178 544.074 570.795 544.457L570 545.252L569.205 544.457C568.431 543.684 567.382 543.249 566.288 543.249C565.193 543.249 564.144 543.684 563.37 544.457C562.596 545.231 562.162 546.281 562.162 547.375C562.162 548.469 562.596 549.519 563.37 550.292L564.165 551.087L570 556.922L575.835 551.087L576.63 550.292C577.013 549.909 577.317 549.455 577.525 548.954C577.732 548.453 577.839 547.917 577.839 547.375C577.839 546.833 577.732 546.296 577.525 545.796C577.317 545.295 577.013 544.84 576.63 544.457V544.457Z" stroke="#5384ED" stroke-width="2" stroke-linecap="round" stroke-linejoin="round"/>
<text fill="#5384ED" xml:space="preserve" style="white-space: pre" font-family="Roboto" font-size="14" letter-spacing="0em"><tspan x="585" y="554.785">Small</tspan></text>
<path d="M561 535H621V533H561V535ZM632 546V554H634V546H632ZM621 565H561V567H621V565ZM550 554V546H548V554H550ZM561 565C554.925 565 550 560.075 550 554H548C548 561.18 553.82 567 561 567V565ZM632 554C632 560.075 627.075 565 621 565V567C628.18 567 634 561.18 634 554H632ZM621 535C627.075 535 632 539.925 632 546H634C634 538.82 628.18 533 621 533V535ZM561 533C553.82 533 548 538.82 548 546H550C550 539.925 554.925 535 561 535V533Z" fill="#5384ED"/>
<path d="M861 456C861 449.373 866.373 444 873 444H933C939.627 444 945 449.373 945 456V464C945 470.627 939.627 476 933 476H873C866.373 476 861 470.627 861 464V456Z" fill="white"/>
<text fill="#5384ED" xml:space="preserve" style="white-space: pre" font-family="Roboto" font-size="14" letter-spacing="0em"><tspan x="873" y="464.785">Small</tspan></text>
<path d="M921.75 464.5L926.25 460L921.75 455.5" stroke="#5384ED" stroke-width="2" stroke-linecap="round" stroke-linejoin="round"/>
<path d="M873 445H933V443H873V445ZM944 456V464H946V456H944ZM933 475H873V477H933V475ZM862 464V456H860V464H862ZM873 475C866.925 475 862 470.075 862 464H860C860 471.18 865.82 477 873 477V475ZM944 464C944 470.075 939.075 475 933 475V477C940.18 477 946 471.18 946 464H944ZM933 445C939.075 445 944 449.925 944 456H946C946 448.82 940.18 443 933 443V445ZM873 443C865.82 443 860 448.82 860 456H862C862 449.925 866.925 445 873 445V443Z" fill="#5384ED"/>
<path d="M861 546C861 539.373 866.373 534 873 534H933C939.627 534 945 539.373 945 546V554C945 560.627 939.627 566 933 566H873C866.373 566 861 560.627 861 554V546Z" fill="#F6F9FE"/>
<text fill="#5384ED" xml:space="preserve" style="white-space: pre" font-family="Roboto" font-size="14" letter-spacing="0em"><tspan x="873" y="554.785">Small</tspan></text>
<path d="M921.75 554.5L926.25 550L921.75 545.5" stroke="#5384ED" stroke-width="2" stroke-linecap="round" stroke-linejoin="round"/>
<path d="M873 535H933V533H873V535ZM944 546V554H946V546H944ZM933 565H873V567H933V565ZM862 554V546H860V554H862ZM873 565C866.925 565 862 560.075 862 554H860C860 561.18 865.82 567 873 567V565ZM944 554C944 560.075 939.075 565 933 565V567C940.18 567 946 561.18 946 554H944ZM933 535C939.075 535 944 539.925 944 546H946C946 538.82 940.18 533 933 533V535ZM873 533C865.82 533 860 538.82 860 546H862C862 539.925 866.925 535 873 535V533Z" fill="#5384ED"/>
<path d="M1229 456C1229 449.373 1234.37 444 1241 444H1325C1331.63 444 1337 449.373 1337 456V464C1337 470.627 1331.63 476 1325 476H1241C1234.37 476 1229 470.627 1229 464V456Z" fill="white"/>
<path d="M1256.63 454.457C1256.25 454.074 1255.79 453.77 1255.29 453.563C1254.79 453.355 1254.25 453.249 1253.71 453.249C1253.17 453.249 1252.63 453.355 1252.13 453.563C1251.63 453.77 1251.18 454.074 1250.79 454.457L1250 455.252L1249.2 454.457C1248.43 453.684 1247.38 453.249 1246.29 453.249C1245.19 453.249 1244.14 453.684 1243.37 454.457C1242.6 455.231 1242.16 456.281 1242.16 457.375C1242.16 458.469 1242.6 459.519 1243.37 460.292L1244.16 461.087L1250 466.922L1255.83 461.087L1256.63 460.292C1257.01 459.909 1257.32 459.455 1257.52 458.954C1257.73 458.453 1257.84 457.917 1257.84 457.375C1257.84 456.833 1257.73 456.296 1257.52 455.796C1257.32 455.295 1257.01 454.84 1256.63 454.457V454.457Z" stroke="#5384ED" stroke-width="2" stroke-linecap="round" stroke-linejoin="round"/>
<text fill="#5384ED" xml:space="preserve" style="white-space: pre" font-family="Roboto" font-size="14" letter-spacing="0em"><tspan x="1265" y="464.785">Small</tspan></text>
<path d="M1313.75 464.5L1318.25 460L1313.75 455.5" stroke="#5384ED" stroke-width="2" stroke-linecap="round" stroke-linejoin="round"/>
<path d="M1241 445H1325V443H1241V445ZM1336 456V464H1338V456H1336ZM1325 475H1241V477H1325V475ZM1230 464V456H1228V464H1230ZM1241 475C1234.92 475 1230 470.075 1230 464H1228C1228 471.18 1233.82 477 1241 477V475ZM1336 464C1336 470.075 1331.08 475 1325 475V477C1332.18 477 1338 471.18 1338 464H1336ZM1325 445C1331.08 445 1336 449.925 1336 456H1338C1338 448.82 1332.18 443 1325 443V445ZM1241 443C1233.82 443 1228 448.82 1228 456H1230C1230 449.925 1234.92 445 1241 445V443Z" fill="#5384ED"/>
<path d="M1229 546C1229 539.373 1234.37 534 1241 534H1325C1331.63 534 1337 539.373 1337 546V554C1337 560.627 1331.63 566 1325 566H1241C1234.37 566 1229 560.627 1229 554V546Z" fill="#F6F9FE"/>
<path d="M1256.63 544.457C1256.25 544.074 1255.79 543.77 1255.29 543.563C1254.79 543.355 1254.25 543.249 1253.71 543.249C1253.17 543.249 1252.63 543.355 1252.13 543.563C1251.63 543.77 1251.18 544.074 1250.79 544.457L1250 545.252L1249.2 544.457C1248.43 543.684 1247.38 543.249 1246.29 543.249C1245.19 543.249 1244.14 543.684 1243.37 544.457C1242.6 545.231 1242.16 546.281 1242.16 547.375C1242.16 548.469 1242.6 549.519 1243.37 550.292L1244.16 551.087L1250 556.922L1255.83 551.087L1256.63 550.292C1257.01 549.909 1257.32 549.455 1257.52 548.954C1257.73 548.453 1257.84 547.917 1257.84 547.375C1257.84 546.833 1257.73 546.296 1257.52 545.796C1257.32 545.295 1257.01 544.84 1256.63 544.457V544.457Z" stroke="#5384ED" stroke-width="2" stroke-linecap="round" stroke-linejoin="round"/>
<text fill="#5384ED" xml:space="preserve" style="white-space: pre" font-family="Roboto" font-size="14" letter-spacing="0em"><tspan x="1265" y="554.785">Small</tspan></text>
<path d="M1313.75 554.5L1318.25 550L1313.75 545.5" stroke="#5384ED" stroke-width="2" stroke-linecap="round" stroke-linejoin="round"/>
<path d="M1241 535H1325V533H1241V535ZM1336 546V554H1338V546H1336ZM1325 565H1241V567H1325V565ZM1230 554V546H1228V554H1230ZM1241 565C1234.92 565 1230 560.075 1230 554H1228C1228 561.18 1233.82 567 1241 567V565ZM1336 554C1336 560.075 1331.08 565 1325 565V567C1332.18 567 1338 561.18 1338 554H1336ZM1325 535C1331.08 535 1336 539.925 1336 546H1338C1338 538.82 1332.18 533 1325 533V535ZM1241 533C1233.82 533 1228 538.82 1228 546H1230C1230 539.925 1234.92 535 1241 535V533Z" fill="#5384ED"/>
<path d="M645 247C645 238.163 652.163 231 661 231H734C742.837 231 750 238.163 750 247V263C750 271.837 742.837 279 734 279H661C652.163 279 645 271.837 645 263V247Z" fill="#5384ED"/>
<text fill="white" xml:space="preserve" style="white-space: pre" font-family="Roboto" font-size="16" letter-spacing="0em"><tspan x="661" y="260.469">Large</tspan></text>
<path d="M719 261L725 255L719 249" stroke="white" stroke-width="2" stroke-linecap="round" stroke-linejoin="round"/>
<path d="M645 350C645 341.163 652.163 334 661 334H734C742.837 334 750 341.163 750 350V366C750 374.837 742.837 382 734 382H661C652.163 382 645 374.837 645 366V350Z" fill="#4F73CE"/>
<text fill="white" xml:space="preserve" style="white-space: pre" font-family="Roboto" font-size="16" letter-spacing="0em"><tspan x="661" y="363.469">Large</tspan></text>
<path d="M719 364L725 358L719 352" stroke="white" stroke-width="2" stroke-linecap="round" stroke-linejoin="round"/>
<path d="M957 247C957 238.163 964.163 231 973 231H1078C1086.84 231 1094 238.163 1094 247V263C1094 271.837 1086.84 279 1078 279H973C964.163 279 957 271.837 957 263V247Z" fill="#5384ED"/>
<path d="M993.84 247.61C993.329 247.099 992.723 246.694 992.055 246.417C991.388 246.14 990.672 245.998 989.95 245.998C989.228 245.998 988.512 246.14 987.845 246.417C987.177 246.694 986.571 247.099 986.06 247.61L985 248.67L983.94 247.61C982.908 246.578 981.509 245.999 980.05 245.999C978.591 245.999 977.192 246.578 976.16 247.61C975.128 248.642 974.549 250.041 974.549 251.5C974.549 252.959 975.128 254.358 976.16 255.39L977.22 256.45L985 264.23L992.78 256.45L993.84 255.39C994.351 254.879 994.756 254.273 995.033 253.605C995.309 252.938 995.452 252.222 995.452 251.5C995.452 250.777 995.309 250.062 995.033 249.395C994.756 248.727 994.351 248.121 993.84 247.61V247.61Z" stroke="white" stroke-width="2" stroke-linecap="round" stroke-linejoin="round"/>
<text fill="white" xml:space="preserve" style="white-space: pre" font-family="Roboto" font-size="16" letter-spacing="0em"><tspan x="1005" y="260.469">Large</tspan></text>
<path d="M1063 261L1069 255L1063 249" stroke="white" stroke-width="2" stroke-linecap="round" stroke-linejoin="round"/>
<path d="M957 350C957 341.163 964.163 334 973 334H1078C1086.84 334 1094 341.163 1094 350V366C1094 374.837 1086.84 382 1078 382H973C964.163 382 957 374.837 957 366V350Z" fill="#4F73CE"/>
<path d="M993.84 350.61C993.329 350.099 992.723 349.694 992.055 349.417C991.388 349.14 990.672 348.998 989.95 348.998C989.228 348.998 988.512 349.14 987.845 349.417C987.177 349.694 986.571 350.099 986.06 350.61L985 351.67L983.94 350.61C982.908 349.578 981.509 348.999 980.05 348.999C978.591 348.999 977.192 349.578 976.16 350.61C975.128 351.642 974.549 353.041 974.549 354.5C974.549 355.959 975.128 357.358 976.16 358.39L977.22 359.45L985 367.23L992.78 359.45L993.84 358.39C994.351 357.879 994.756 357.273 995.033 356.605C995.309 355.938 995.452 355.222 995.452 354.5C995.452 353.777 995.309 353.062 995.033 352.395C994.756 351.727 994.351 351.121 993.84 350.61V350.61Z" stroke="white" stroke-width="2" stroke-linecap="round" stroke-linejoin="round"/>
<text fill="white" xml:space="preserve" style="white-space: pre" font-family="Roboto" font-size="16" letter-spacing="0em"><tspan x="1005" y="363.469">Large</tspan></text>
<path d="M1063 364L1069 358L1063 352" stroke="white" stroke-width="2" stroke-linecap="round" stroke-linejoin="round"/>
<path d="M180 251C180 242.163 187.163 235 196 235H239C247.837 235 255 242.163 255 251V259C255 267.837 247.837 275 239 275H196C187.163 275 180 267.837 180 259V251Z" fill="#5384ED"/>
<text fill="white" xml:space="preserve" style="white-space: pre" font-family="Roboto" font-size="14" letter-spacing="0em"><tspan x="192" y="259.785">Medium</tspan></text>
<path d="M180 354C180 345.163 187.163 338 196 338H239C247.837 338 255 345.163 255 354V362C255 370.837 247.837 378 239 378H196C187.163 378 180 370.837 180 362V354Z" fill="#4F73CE"/>
<text fill="white" xml:space="preserve" style="white-space: pre" font-family="Roboto" font-size="14" letter-spacing="0em"><tspan x="192" y="362.785">Medium</tspan></text>
<path d="M101 247C101 238.163 108.163 231 117 231H158C166.837 231 174 238.163 174 247V263C174 271.837 166.837 279 158 279H117C108.163 279 101 271.837 101 263V247Z" fill="#5384ED"/>
<text fill="white" xml:space="preserve" style="white-space: pre" font-family="Roboto" font-size="16" letter-spacing="0em"><tspan x="117" y="260.469">Large</tspan></text>
<path d="M101 350C101 341.163 108.163 334 117 334H158C166.837 334 174 341.163 174 350V366C174 374.837 166.837 382 158 382H117C108.163 382 101 374.837 101 366V350Z" fill="#4F73CE"/>
<text fill="white" xml:space="preserve" style="white-space: pre" font-family="Roboto" font-size="16" letter-spacing="0em"><tspan x="117" y="363.469">Large</tspan></text>
<path d="M261 255C261 246.163 268.163 239 277 239H305C313.837 239 321 246.163 321 255V255C321 263.837 313.837 271 305 271H277C268.163 271 261 263.837 261 255V255Z" fill="#5384ED"/>
<text fill="white" xml:space="preserve" style="white-space: pre" font-family="Roboto" font-size="14" letter-spacing="0em"><tspan x="273" y="259.785">Small</tspan></text>
<path d="M261 358C261 349.163 268.163 342 277 342H305C313.837 342 321 349.163 321 358V358C321 366.837 313.837 374 305 374H277C268.163 374 261 366.837 261 358V358Z" fill="#4F73CE"/>
<text fill="white" xml:space="preserve" style="white-space: pre" font-family="Roboto" font-size="14" letter-spacing="0em"><tspan x="273" y="362.785">Small</tspan></text>
<path d="M444 251C444 242.163 451.163 235 460 235H527C535.837 235 543 242.163 543 251V259C543 267.837 535.837 275 527 275H460C451.163 275 444 267.837 444 259V251Z" fill="#5384ED"/>
<path d="M471.63 249.457C471.247 249.074 470.792 248.77 470.292 248.563C469.791 248.355 469.254 248.249 468.713 248.249C468.171 248.249 467.634 248.355 467.134 248.563C466.633 248.77 466.178 249.074 465.795 249.457L465 250.252L464.205 249.457C463.431 248.684 462.382 248.249 461.288 248.249C460.193 248.249 459.144 248.684 458.37 249.457C457.596 250.231 457.162 251.281 457.162 252.375C457.162 253.469 457.596 254.519 458.37 255.292L459.165 256.087L465 261.922L470.835 256.087L471.63 255.292C472.013 254.909 472.317 254.455 472.525 253.954C472.732 253.453 472.839 252.917 472.839 252.375C472.839 251.833 472.732 251.296 472.525 250.796C472.317 250.295 472.013 249.84 471.63 249.457V249.457Z" stroke="white" stroke-width="2" stroke-linecap="round" stroke-linejoin="round"/>
<text fill="white" xml:space="preserve" style="white-space: pre" font-family="Roboto" font-size="14" letter-spacing="0em"><tspan x="480" y="259.785">Medium</tspan></text>
<path d="M444 354C444 345.163 451.163 338 460 338H527C535.837 338 543 345.163 543 354V362C543 370.837 535.837 378 527 378H460C451.163 378 444 370.837 444 362V354Z" fill="#4F73CE"/>
<path d="M471.63 352.457C471.247 352.074 470.792 351.77 470.292 351.563C469.791 351.355 469.254 351.249 468.713 351.249C468.171 351.249 467.634 351.355 467.134 351.563C466.633 351.77 466.178 352.074 465.795 352.457L465 353.252L464.205 352.457C463.431 351.684 462.382 351.249 461.288 351.249C460.193 351.249 459.144 351.684 458.37 352.457C457.596 353.231 457.162 354.281 457.162 355.375C457.162 356.469 457.596 357.519 458.37 358.292L459.165 359.087L465 364.922L470.835 359.087L471.63 358.292C472.013 357.909 472.317 357.455 472.525 356.954C472.732 356.453 472.839 355.917 472.839 355.375C472.839 354.833 472.732 354.296 472.525 353.796C472.317 353.295 472.013 352.84 471.63 352.457V352.457Z" stroke="white" stroke-width="2" stroke-linecap="round" stroke-linejoin="round"/>
<text fill="white" xml:space="preserve" style="white-space: pre" font-family="Roboto" font-size="14" letter-spacing="0em"><tspan x="480" y="362.785">Medium</tspan></text>
<path d="M756 251C756 242.163 763.163 235 772 235H839C847.837 235 855 242.163 855 251V259C855 267.837 847.837 275 839 275H772C763.163 275 756 267.837 756 259V251Z" fill="#5384ED"/>
<text fill="white" xml:space="preserve" style="white-space: pre" font-family="Roboto" font-size="14" letter-spacing="0em"><tspan x="768" y="259.785">Medium</tspan></text>
<path d="M831.75 259.5L836.25 255L831.75 250.5" stroke="white" stroke-width="2" stroke-linecap="round" stroke-linejoin="round"/>
<path d="M756 354C756 345.163 763.163 338 772 338H839C847.837 338 855 345.163 855 354V362C855 370.837 847.837 378 839 378H772C763.163 378 756 370.837 756 362V354Z" fill="#4F73CE"/>
<text fill="white" xml:space="preserve" style="white-space: pre" font-family="Roboto" font-size="14" letter-spacing="0em"><tspan x="768" y="362.785">Medium</tspan></text>
<path d="M831.75 362.5L836.25 358L831.75 353.5" stroke="white" stroke-width="2" stroke-linecap="round" stroke-linejoin="round"/>
<path d="M1100 251C1100 242.163 1107.16 235 1116 235H1207C1215.84 235 1223 242.163 1223 251V259C1223 267.837 1215.84 275 1207 275H1116C1107.16 275 1100 267.837 1100 259V251Z" fill="#5384ED"/>
<path d="M1127.63 249.457C1127.25 249.074 1126.79 248.77 1126.29 248.563C1125.79 248.355 1125.25 248.249 1124.71 248.249C1124.17 248.249 1123.63 248.355 1123.13 248.563C1122.63 248.77 1122.18 249.074 1121.79 249.457L1121 250.252L1120.2 249.457C1119.43 248.684 1118.38 248.249 1117.29 248.249C1116.19 248.249 1115.14 248.684 1114.37 249.457C1113.6 250.231 1113.16 251.281 1113.16 252.375C1113.16 253.469 1113.6 254.519 1114.37 255.292L1115.16 256.087L1121 261.922L1126.83 256.087L1127.63 255.292C1128.01 254.909 1128.32 254.455 1128.52 253.954C1128.73 253.453 1128.84 252.917 1128.84 252.375C1128.84 251.833 1128.73 251.296 1128.52 250.796C1128.32 250.295 1128.01 249.84 1127.63 249.457V249.457Z" stroke="white" stroke-width="2" stroke-linecap="round" stroke-linejoin="round"/>
<text fill="white" xml:space="preserve" style="white-space: pre" font-family="Roboto" font-size="14" letter-spacing="0em"><tspan x="1136" y="259.785">Medium</tspan></text>
<path d="M1199.75 259.5L1204.25 255L1199.75 250.5" stroke="white" stroke-width="2" stroke-linecap="round" stroke-linejoin="round"/>
<path d="M1100 354C1100 345.163 1107.16 338 1116 338H1207C1215.84 338 1223 345.163 1223 354V362C1223 370.837 1215.84 378 1207 378H1116C1107.16 378 1100 370.837 1100 362V354Z" fill="#4F73CE"/>
<path d="M1127.63 352.457C1127.25 352.074 1126.79 351.77 1126.29 351.563C1125.79 351.355 1125.25 351.249 1124.71 351.249C1124.17 351.249 1123.63 351.355 1123.13 351.563C1122.63 351.77 1122.18 352.074 1121.79 352.457L1121 353.252L1120.2 352.457C1119.43 351.684 1118.38 351.249 1117.29 351.249C1116.19 351.249 1115.14 351.684 1114.37 352.457C1113.6 353.231 1113.16 354.281 1113.16 355.375C1113.16 356.469 1113.6 357.519 1114.37 358.292L1115.16 359.087L1121 364.922L1126.83 359.087L1127.63 358.292C1128.01 357.909 1128.32 357.455 1128.52 356.954C1128.73 356.453 1128.84 355.917 1128.84 355.375C1128.84 354.833 1128.73 354.296 1128.52 353.796C1128.32 353.295 1128.01 352.84 1127.63 352.457V352.457Z" stroke="white" stroke-width="2" stroke-linecap="round" stroke-linejoin="round"/>
<text fill="white" xml:space="preserve" style="white-space: pre" font-family="Roboto" font-size="14" letter-spacing="0em"><tspan x="1136" y="362.785">Medium</tspan></text>
<path d="M1199.75 362.5L1204.25 358L1199.75 353.5" stroke="white" stroke-width="2" stroke-linecap="round" stroke-linejoin="round"/>
<path d="M333 247C333 238.163 340.163 231 349 231H422C430.837 231 438 238.163 438 247V263C438 271.837 430.837 279 422 279H349C340.163 279 333 271.837 333 263V247Z" fill="#5384ED"/>
<path d="M361 248V262" stroke="white" stroke-width="2" stroke-linecap="round" stroke-linejoin="round"/>
<path d="M354 255H368" stroke="#F5F5F5" stroke-width="2" stroke-linecap="round" stroke-linejoin="round"/>
<text fill="white" xml:space="preserve" style="white-space: pre" font-family="Roboto" font-size="16" letter-spacing="0em"><tspan x="381" y="260.469">Large</tspan></text>
<path d="M333 350C333 341.163 340.163 334 349 334H422C430.837 334 438 341.163 438 350V366C438 374.837 430.837 382 422 382H349C340.163 382 333 374.837 333 366V350Z" fill="#4F73CE"/>
<path d="M361 351V365" stroke="white" stroke-width="2" stroke-linecap="round" stroke-linejoin="round"/>
<path d="M354 358H368" stroke="#F5F5F5" stroke-width="2" stroke-linecap="round" stroke-linejoin="round"/>
<text fill="white" xml:space="preserve" style="white-space: pre" font-family="Roboto" font-size="16" letter-spacing="0em"><tspan x="381" y="363.469">Large</tspan></text>
<path d="M549 255C549 246.163 556.163 239 565 239H617C625.837 239 633 246.163 633 255V255C633 263.837 625.837 271 617 271H565C556.163 271 549 263.837 549 255V255Z" fill="#5384ED"/>
<path d="M576.63 249.457C576.247 249.074 575.792 248.77 575.292 248.563C574.791 248.355 574.254 248.249 573.713 248.249C573.171 248.249 572.634 248.355 572.134 248.563C571.633 248.77 571.178 249.074 570.795 249.457L570 250.252L569.205 249.457C568.431 248.684 567.382 248.249 566.288 248.249C565.193 248.249 564.144 248.684 563.37 249.457C562.596 250.231 562.162 251.281 562.162 252.375C562.162 253.469 562.596 254.519 563.37 255.292L564.165 256.087L570 261.922L575.835 256.087L576.63 255.292C577.013 254.909 577.317 254.455 577.525 253.954C577.732 253.453 577.839 252.917 577.839 252.375C577.839 251.833 577.732 251.296 577.525 250.796C577.317 250.295 577.013 249.84 576.63 249.457V249.457Z" stroke="white" stroke-width="2" stroke-linecap="round" stroke-linejoin="round"/>
<text fill="white" xml:space="preserve" style="white-space: pre" font-family="Roboto" font-size="14" letter-spacing="0em"><tspan x="585" y="259.785">Small</tspan></text>
<path d="M549 358C549 349.163 556.163 342 565 342H617C625.837 342 633 349.163 633 358V358C633 366.837 625.837 374 617 374H565C556.163 374 549 366.837 549 358V358Z" fill="#4F73CE"/>
<path d="M576.63 352.457C576.247 352.074 575.792 351.77 575.292 351.563C574.791 351.355 574.254 351.249 573.713 351.249C573.171 351.249 572.634 351.355 572.134 351.563C571.633 351.77 571.178 352.074 570.795 352.457L570 353.252L569.205 352.457C568.431 351.684 567.382 351.249 566.288 351.249C565.193 351.249 564.144 351.684 563.37 352.457C562.596 353.231 562.162 354.281 562.162 355.375C562.162 356.469 562.596 357.519 563.37 358.292L564.165 359.087L570 364.922L575.835 359.087L576.63 358.292C577.013 357.909 577.317 357.455 577.525 356.954C577.732 356.453 577.839 355.917 577.839 355.375C577.839 354.833 577.732 354.296 577.525 353.796C577.317 353.295 577.013 352.84 576.63 352.457V352.457Z" stroke="white" stroke-width="2" stroke-linecap="round" stroke-linejoin="round"/>
<text fill="white" xml:space="preserve" style="white-space: pre" font-family="Roboto" font-size="14" letter-spacing="0em"><tspan x="585" y="362.785">Small</tspan></text>
<path d="M861 255C861 246.163 868.163 239 877 239H929C937.837 239 945 246.163 945 255V255C945 263.837 937.837 271 929 271H877C868.163 271 861 263.837 861 255V255Z" fill="#5384ED"/>
<text fill="white" xml:space="preserve" style="white-space: pre" font-family="Roboto" font-size="14" letter-spacing="0em"><tspan x="873" y="259.785">Small</tspan></text>
<path d="M921.75 259.5L926.25 255L921.75 250.5" stroke="white" stroke-width="2" stroke-linecap="round" stroke-linejoin="round"/>
<path d="M861 358C861 349.163 868.163 342 877 342H929C937.837 342 945 349.163 945 358V358C945 366.837 937.837 374 929 374H877C868.163 374 861 366.837 861 358V358Z" fill="#4F73CE"/>
<text fill="white" xml:space="preserve" style="white-space: pre" font-family="Roboto" font-size="14" letter-spacing="0em"><tspan x="873" y="362.785">Small</tspan></text>
<path d="M921.75 362.5L926.25 358L921.75 353.5" stroke="white" stroke-width="2" stroke-linecap="round" stroke-linejoin="round"/>
<path d="M1229 255C1229 246.163 1236.16 239 1245 239H1321C1329.84 239 1337 246.163 1337 255V255C1337 263.837 1329.84 271 1321 271H1245C1236.16 271 1229 263.837 1229 255V255Z" fill="#5384ED"/>
<path d="M1256.63 249.457C1256.25 249.074 1255.79 248.77 1255.29 248.563C1254.79 248.355 1254.25 248.249 1253.71 248.249C1253.17 248.249 1252.63 248.355 1252.13 248.563C1251.63 248.77 1251.18 249.074 1250.79 249.457L1250 250.252L1249.2 249.457C1248.43 248.684 1247.38 248.249 1246.29 248.249C1245.19 248.249 1244.14 248.684 1243.37 249.457C1242.6 250.231 1242.16 251.281 1242.16 252.375C1242.16 253.469 1242.6 254.519 1243.37 255.292L1244.16 256.087L1250 261.922L1255.83 256.087L1256.63 255.292C1257.01 254.909 1257.32 254.455 1257.52 253.954C1257.73 253.453 1257.84 252.917 1257.84 252.375C1257.84 251.833 1257.73 251.296 1257.52 250.796C1257.32 250.295 1257.01 249.84 1256.63 249.457V249.457Z" stroke="white" stroke-width="2" stroke-linecap="round" stroke-linejoin="round"/>
<text fill="white" xml:space="preserve" style="white-space: pre" font-family="Roboto" font-size="14" letter-spacing="0em"><tspan x="1265" y="259.785">Small</tspan></text>
<path d="M1313.75 259.5L1318.25 255L1313.75 250.5" stroke="white" stroke-width="2" stroke-linecap="round" stroke-linejoin="round"/>
<path d="M1229 358C1229 349.163 1236.16 342 1245 342H1321C1329.84 342 1337 349.163 1337 358V358C1337 366.837 1329.84 374 1321 374H1245C1236.16 374 1229 366.837 1229 358V358Z" fill="#4F73CE"/>
<path d="M1256.63 352.457C1256.25 352.074 1255.79 351.77 1255.29 351.563C1254.79 351.355 1254.25 351.249 1253.71 351.249C1253.17 351.249 1252.63 351.355 1252.13 351.563C1251.63 351.77 1251.18 352.074 1250.79 352.457L1250 353.252L1249.2 352.457C1248.43 351.684 1247.38 351.249 1246.29 351.249C1245.19 351.249 1244.14 351.684 1243.37 352.457C1242.6 353.231 1242.16 354.281 1242.16 355.375C1242.16 356.469 1242.6 357.519 1243.37 358.292L1244.16 359.087L1250 364.922L1255.83 359.087L1256.63 358.292C1257.01 357.909 1257.32 357.455 1257.52 356.954C1257.73 356.453 1257.84 355.917 1257.84 355.375C1257.84 354.833 1257.73 354.296 1257.52 353.796C1257.32 353.295 1257.01 352.84 1256.63 352.457V352.457Z" stroke="white" stroke-width="2" stroke-linecap="round" stroke-linejoin="round"/>
<text fill="white" xml:space="preserve" style="white-space: pre" font-family="Roboto" font-size="14" letter-spacing="0em"><tspan x="1265" y="362.785">Small</tspan></text>
<path d="M1313.75 362.5L1318.25 358L1313.75 353.5" stroke="white" stroke-width="2" stroke-linecap="round" stroke-linejoin="round"/>
<rect x="81.5" y="182.5" width="1275" height="619" rx="31.5" stroke="#5384ED" stroke-dasharray="10 5"/>
<text fill="#B5B5C3" xml:space="preserve" style="white-space: pre" font-family="Inter" font-size="12" font-weight="600" letter-spacing="1px"><tspan x="1388" y="264.364">SOLID</tspan></text>
<text fill="#B5B5C3" xml:space="preserve" style="white-space: pre" font-family="Inter" font-size="12" font-weight="600" letter-spacing="1px"><tspan x="1378" y="456.364">OUTLINED</tspan></text>
<text fill="#B5B5C3" xml:space="preserve" style="white-space: pre" font-family="Inter" font-size="12" font-weight="600" letter-spacing="1px"><tspan x="1388" y="646.364">TEXT</tspan></text>
<rect x="0.5" y="0.5" width="1513" height="983" rx="32.5" stroke="#CBD4E6"/>
</svg>
