<svg width="1514" height="984" viewBox="0 0 1514 984" fill="none" xmlns="http://www.w3.org/2000/svg">
<rect x="0.5" y="0.5" width="1513" height="983" rx="32.5" fill="white"/>
<text fill="#5384ED" xml:space="preserve" style="white-space: pre" font-family="Roboto" font-size="32" font-weight="500" letter-spacing="0em"><tspan x="958" y="111.438">Tabs</tspan></text>
<rect x="958.5" y="182.5" width="365" height="141" rx="31.5" fill="#EFF5FF"/>
<text fill="#5384ED" xml:space="preserve" style="white-space: pre" font-family="Roboto" font-size="18" font-weight="500" letter-spacing="0em"><tspan x="1009.5" y="224.652">Scheduled</tspan></text>
<path d="M977.5 290C977.5 298.837 984.663 306 993.5 306H1110.5C1119.34 306 1126.5 298.837 1126.5 290V269C1126.5 260.163 1119.34 253 1110.5 253H993.5C984.663 253 977.5 260.163 977.5 269V290Z" fill="#F6F9FE"/>
<text fill="#5384ED" xml:space="preserve" style="white-space: pre" font-family="Roboto" font-size="18" font-weight="500" letter-spacing="0em"><tspan x="1009.5" y="285.652">Scheduled</tspan></text>
<text fill="#7C8DB0" xml:space="preserve" style="white-space: pre" font-family="Roboto" font-size="18" font-weight="500" letter-spacing="0em"><tspan x="1189.5" y="224.652">Upcoming</tspan></text>
<path d="M1157.5 290C1157.5 298.837 1164.66 306 1173.5 306H1288.5C1297.34 306 1304.5 298.837 1304.5 290V269C1304.5 260.163 1297.34 253 1288.5 253H1173.5C1164.66 253 1157.5 260.163 1157.5 269V290Z" fill="#F6F9FE"/>
<text fill="#7C8DB0" xml:space="preserve" style="white-space: pre" font-family="Roboto" font-size="18" font-weight="500" letter-spacing="0em"><tspan x="1189.5" y="285.652">Upcoming</tspan></text>
<rect x="958.5" y="182.5" width="365" height="141" rx="31.5" stroke="#5384ED" stroke-dasharray="10 5"/>
<text fill="#B5B5C3" xml:space="preserve" style="white-space: pre" font-family="Nunito Sans" font-size="18" font-weight="600" letter-spacing="0px"><tspan x="1353.88" y="226.422">Default</tspan></text>
<text fill="#B5B5C3" xml:space="preserve" style="white-space: pre" font-family="Nunito Sans" font-size="18" font-weight="600" letter-spacing="0px"><tspan x="1353.61" y="287.422">Hover</tspan></text>
<text fill="#B5B5C3" xml:space="preserve" style="white-space: pre" font-family="Nunito Sans" font-size="18" font-weight="600" letter-spacing="0px"><tspan x="1186.93" y="352.422">Inactive</tspan></text>
<text fill="#B5B5C3" xml:space="preserve" style="white-space: pre" font-family="Nunito Sans" font-size="18" font-weight="600" letter-spacing="0px"><tspan x="1025.6" y="352.422">Active</tspan></text>
<text fill="#5384ED" xml:space="preserve" style="white-space: pre" font-family="Roboto" font-size="32" font-weight="500" letter-spacing="0em"><tspan x="81" y="106.438">Dropdown</tspan></text>
<text fill="#B5B5C3" xml:space="preserve" style="white-space: pre" font-family="Nunito Sans" font-size="18" font-weight="600" letter-spacing="0px"><tspan x="440.881" y="228.422">Default</tspan></text>
<text fill="#B5B5C3" xml:space="preserve" style="white-space: pre" font-family="Nunito Sans" font-size="18" font-weight="600" letter-spacing="0px"><tspan x="103.863" y="392.422">Without icon</tspan></text>
<text fill="#B5B5C3" xml:space="preserve" style="white-space: pre" font-family="Nunito Sans" font-size="18" font-weight="600" letter-spacing="0px"><tspan x="250.863" y="392.422">With icon</tspan></text>
<text fill="#B5B5C3" xml:space="preserve" style="white-space: pre" font-family="Nunito Sans" font-size="18" font-weight="600" letter-spacing="0px"><tspan x="440.605" y="315.422">Hover</tspan></text>
<text fill="#B5B5C3" xml:space="preserve" style="white-space: pre" font-family="Nunito Sans" font-size="18" font-weight="600" letter-spacing="0px"><tspan x="603.209" y="323.422">Menu</tspan></text>
<path d="M595 199C595 192.373 600.373 187 607 187H729C735.627 187 741 192.373 741 199V282.6C741 289.227 735.627 294.6 729 294.6H607C600.373 294.6 595 289.227 595 282.6V199Z" fill="white"/>
<path d="M603 207C603 200.373 608.373 195 615 195H721C727.627 195 733 200.373 733 207V223C733 229.627 727.627 235 721 235H615C608.373 235 603 229.627 603 223V207Z" fill="white"/>
<text fill="#657491" xml:space="preserve" style="white-space: pre" font-family="Roboto" font-size="16" letter-spacing="0em"><tspan x="611" y="220.469">Interview type</tspan></text>
<rect x="603" y="240" width="130" height="1.6" fill="#DFE8FA"/>
<path d="M603 258.6C603 251.973 608.373 246.6 615 246.6H721C727.627 246.6 733 251.973 733 258.6V274.6C733 281.228 727.627 286.6 721 286.6H615C608.373 286.6 603 281.228 603 274.6V258.6Z" fill="white"/>
<text fill="#657491" xml:space="preserve" style="white-space: pre" font-family="Roboto" font-size="16" letter-spacing="0em"><tspan x="611" y="272.069">Interview set</tspan></text>
<path d="M607 189H729V185H607V189ZM739 199V282.6H743V199H739ZM729 292.6H607V296.6H729V292.6ZM597 282.6V199H593V282.6H597ZM607 292.6C601.477 292.6 597 288.123 597 282.6H593C593 290.332 599.268 296.6 607 296.6V292.6ZM739 282.6C739 288.123 734.523 292.6 729 292.6V296.6C736.732 296.6 743 290.332 743 282.6H739ZM729 189C734.523 189 739 193.477 739 199H743C743 191.268 736.732 185 729 185V189ZM607 185C599.268 185 593 191.268 593 199H597C597 193.477 601.477 189 607 189V185Z" fill="#DFE8FA"/>
<rect x="81.5" y="187.5" width="328" height="167" rx="31.5" fill="#EFF5FF"/>
<path d="M103 298C103 291.373 108.373 286 115 286H221C227.627 286 233 291.373 233 298V314C233 320.627 227.627 326 221 326H115C108.373 326 103 320.627 103 314V298Z" fill="#F6F9FE"/>
<text fill="#27273F" xml:space="preserve" style="white-space: pre" font-family="Roboto" font-size="16" letter-spacing="0em"><tspan x="115" y="311.469">Interview</tspan></text>
<path d="M250 298C250 291.373 255.373 286 262 286H368C374.627 286 380 291.373 380 298V314C380 320.627 374.627 326 368 326H262C255.373 326 250 320.627 250 314V298Z" fill="#F6F9FE"/>
<text fill="#27273F" xml:space="preserve" style="white-space: pre" font-family="Roboto" font-size="16" letter-spacing="0em"><tspan x="262" y="311.469">Interview</tspan></text>
<path d="M363.5 301.5L354.5 310.5" stroke="#6E7491" stroke-width="2" stroke-linecap="round" stroke-linejoin="round"/>
<path d="M354.5 301.5L363.5 310.5" stroke="#6E7491" stroke-width="2" stroke-linecap="round" stroke-linejoin="round"/>
<path d="M103 222C103 215.373 108.373 210 115 210H221C227.627 210 233 215.373 233 222V238C233 244.627 227.627 250 221 250H115C108.373 250 103 244.627 103 238V222Z" fill="white"/>
<text fill="#657491" xml:space="preserve" style="white-space: pre" font-family="Roboto" font-size="16" letter-spacing="0em"><tspan x="115" y="235.469">Interview</tspan></text>
<path d="M250 222C250 215.373 255.373 210 262 210H368C374.627 210 380 215.373 380 222V238C380 244.627 374.627 250 368 250H262C255.373 250 250 244.627 250 238V222Z" fill="white"/>
<text fill="#657491" xml:space="preserve" style="white-space: pre" font-family="Roboto" font-size="16" letter-spacing="0em"><tspan x="262" y="235.469">Interview</tspan></text>
<path d="M363.5 225.5L354.5 234.5" stroke="#6E7491" stroke-width="2" stroke-linecap="round" stroke-linejoin="round"/>
<path d="M354.5 225.5L363.5 234.5" stroke="#6E7491" stroke-width="2" stroke-linecap="round" stroke-linejoin="round"/>
<rect x="81.5" y="187.5" width="328" height="167" rx="31.5" stroke="#5384ED" stroke-dasharray="10 5"/>
<text fill="#B5B5C3" xml:space="preserve" style="white-space: pre" font-family="Nunito Sans" font-size="18" font-weight="600" letter-spacing="0px"><tspan x="101" y="684.422">No label</tspan></text>
<text fill="#B5B5C3" xml:space="preserve" style="white-space: pre" font-family="Nunito Sans" font-size="18" font-weight="600" letter-spacing="0px"><tspan x="221" y="684.422">Label</tspan></text>
<text fill="#B5B5C3" xml:space="preserve" style="white-space: pre" font-family="Nunito Sans" font-size="18" font-weight="600" letter-spacing="0px"><tspan x="440" y="525.422">Unselected</tspan></text>
<text fill="#B5B5C3" xml:space="preserve" style="white-space: pre" font-family="Nunito Sans" font-size="18" font-weight="600" letter-spacing="0px"><tspan x="440" y="575.422">Selected</tspan></text>
<text fill="#B5B5C3" xml:space="preserve" style="white-space: pre" font-family="Nunito Sans" font-size="18" font-weight="600" letter-spacing="0px"><tspan x="440" y="625.422">Mixed</tspan></text>
<rect x="81.5" y="492.5" width="343" height="162" rx="31.5" fill="#EFF5FF"/>
<path d="M101 514C101 512.895 101.895 512 103 512H115C116.105 512 117 512.895 117 514V526C117 527.105 116.105 528 115 528H103C101.895 528 101 527.105 101 526V514Z" fill="white"/>
<path d="M103 513H115V511H103V513ZM116 514V526H118V514H116ZM115 527H103V529H115V527ZM102 526V514H100V526H102ZM103 527C102.448 527 102 526.552 102 526H100C100 527.657 101.343 529 103 529V527ZM116 526C116 526.552 115.552 527 115 527V529C116.657 529 118 527.657 118 526H116ZM115 513C115.552 513 116 513.448 116 514H118C118 512.343 116.657 511 115 511V513ZM103 511C101.343 511 100 512.343 100 514H102C102 513.448 102.448 513 103 513V511Z" fill="#6E7491"/>
<path d="M157 514C157 512.895 157.895 512 159 512H171C172.105 512 173 512.895 173 514V526C173 527.105 172.105 528 171 528H159C157.895 528 157 527.105 157 526V514Z" fill="white"/>
<path d="M159 513H171V511H159V513ZM172 514V526H174V514H172ZM171 527H159V529H171V527ZM158 526V514H156V526H158ZM159 527C158.448 527 158 526.552 158 526H156C156 527.657 157.343 529 159 529V527ZM172 526C172 526.552 171.552 527 171 527V529C172.657 529 174 527.657 174 526H172ZM171 513C171.552 513 172 513.448 172 514H174C174 512.343 172.657 511 171 511V513ZM159 511C157.343 511 156 512.343 156 514H158C158 513.448 158.448 513 159 513V511Z" fill="#A1B0CC"/>
<path d="M101 564C101 562.895 101.895 562 103 562H115C116.105 562 117 562.895 117 564V576C117 577.105 116.105 578 115 578H103C101.895 578 101 577.105 101 576V564Z" fill="white"/>
<rect x="105" y="566" width="8" height="8" rx="1" fill="#5384ED"/>
<path d="M103 563H115V561H103V563ZM116 564V576H118V564H116ZM115 577H103V579H115V577ZM102 576V564H100V576H102ZM103 577C102.448 577 102 576.552 102 576H100C100 577.657 101.343 579 103 579V577ZM116 576C116 576.552 115.552 577 115 577V579C116.657 579 118 577.657 118 576H116ZM115 563C115.552 563 116 563.448 116 564H118C118 562.343 116.657 561 115 561V563ZM103 561C101.343 561 100 562.343 100 564H102C102 563.448 102.448 563 103 563V561Z" fill="#6E7491"/>
<path d="M157 564C157 562.895 157.895 562 159 562H171C172.105 562 173 562.895 173 564V576C173 577.105 172.105 578 171 578H159C157.895 578 157 577.105 157 576V564Z" fill="white"/>
<rect x="161" y="566" width="8" height="8" rx="1" fill="#A1B0CC"/>
<path d="M159 563H171V561H159V563ZM172 564V576H174V564H172ZM171 577H159V579H171V577ZM158 576V564H156V576H158ZM159 577C158.448 577 158 576.552 158 576H156C156 577.657 157.343 579 159 579V577ZM172 576C172 576.552 171.552 577 171 577V579C172.657 579 174 577.657 174 576H172ZM171 563C171.552 563 172 563.448 172 564H174C174 562.343 172.657 561 171 561V563ZM159 561C157.343 561 156 562.343 156 564H158C158 563.448 158.448 563 159 563V561Z" fill="#A1B0CC"/>
<rect width="16" height="16" transform="translate(101 612)" fill="white"/>
<rect x="105" y="619" width="8" height="2" rx="1" fill="#5384ED"/>
<path d="M103 613H115V611H103V613ZM116 614V626H118V614H116ZM115 627H103V629H115V627ZM102 626V614H100V626H102ZM103 627C102.448 627 102 626.552 102 626H100C100 627.657 101.343 629 103 629V627ZM116 626C116 626.552 115.552 627 115 627V629C116.657 629 118 627.657 118 626H116ZM115 613C115.552 613 116 613.448 116 614H118C118 612.343 116.657 611 115 611V613ZM103 611C101.343 611 100 612.343 100 614H102C102 613.448 102.448 613 103 613V611Z" fill="#6E7491"/>
<path d="M157 614C157 612.895 157.895 612 159 612H171C172.105 612 173 612.895 173 614V626C173 627.105 172.105 628 171 628H159C157.895 628 157 627.105 157 626V614Z" fill="white"/>
<rect x="161" y="619" width="8" height="2" rx="1" fill="#A1B0CC"/>
<path d="M159 613H171V611H159V613ZM172 614V626H174V614H172ZM171 627H159V629H171V627ZM158 626V614H156V626H158ZM159 627C158.448 627 158 626.552 158 626H156C156 627.657 157.343 629 159 629V627ZM172 626C172 626.552 171.552 627 171 627V629C172.657 629 174 627.657 174 626H172ZM171 613C171.552 613 172 613.448 172 614H174C174 612.343 172.657 611 171 611V613ZM159 611C157.343 611 156 612.343 156 614H158C158 613.448 158.448 613 159 613V611Z" fill="#A1B0CC"/>
<g clip-path="url(#clip0_781_9282)">
<path d="M213 512.5C213 511.395 213.895 510.5 215 510.5H227C228.105 510.5 229 511.395 229 512.5V524.5C229 525.605 228.105 526.5 227 526.5H215C213.895 526.5 213 525.605 213 524.5V512.5Z" fill="white"/>
<path d="M215 511.5H227V509.5H215V511.5ZM228 512.5V524.5H230V512.5H228ZM227 525.5H215V527.5H227V525.5ZM214 524.5V512.5H212V524.5H214ZM215 525.5C214.448 525.5 214 525.052 214 524.5H212C212 526.157 213.343 527.5 215 527.5V525.5ZM228 524.5C228 525.052 227.552 525.5 227 525.5V527.5C228.657 527.5 230 526.157 230 524.5H228ZM227 511.5C227.552 511.5 228 511.948 228 512.5H230C230 510.843 228.657 509.5 227 509.5V511.5ZM215 509.5C213.343 509.5 212 510.843 212 512.5H214C214 511.948 214.448 511.5 215 511.5V509.5Z" fill="#6E7491"/>
</g>
<text fill="#6E7491" xml:space="preserve" style="white-space: pre" font-family="Roboto" font-size="16" letter-spacing="0em"><tspan x="237" y="523.969">label</tspan></text>
<g clip-path="url(#clip1_781_9282)">
<path d="M329 512.5C329 511.395 329.895 510.5 331 510.5H343C344.105 510.5 345 511.395 345 512.5V524.5C345 525.605 344.105 526.5 343 526.5H331C329.895 526.5 329 525.605 329 524.5V512.5Z" fill="white"/>
<path d="M331 511.5H343V509.5H331V511.5ZM344 512.5V524.5H346V512.5H344ZM343 525.5H331V527.5H343V525.5ZM330 524.5V512.5H328V524.5H330ZM331 525.5C330.448 525.5 330 525.052 330 524.5H328C328 526.157 329.343 527.5 331 527.5V525.5ZM344 524.5C344 525.052 343.552 525.5 343 525.5V527.5C344.657 527.5 346 526.157 346 524.5H344ZM343 511.5C343.552 511.5 344 511.948 344 512.5H346C346 510.843 344.657 509.5 343 509.5V511.5ZM331 509.5C329.343 509.5 328 510.843 328 512.5H330C330 511.948 330.448 511.5 331 511.5V509.5Z" fill="#A1B0CC"/>
</g>
<text fill="#A1B0CC" xml:space="preserve" style="white-space: pre" font-family="Roboto" font-size="16" letter-spacing="0em"><tspan x="353" y="523.969">label</tspan></text>
<g clip-path="url(#clip2_781_9282)">
<path d="M213 562.5C213 561.395 213.895 560.5 215 560.5H227C228.105 560.5 229 561.395 229 562.5V574.5C229 575.605 228.105 576.5 227 576.5H215C213.895 576.5 213 575.605 213 574.5V562.5Z" fill="white"/>
<rect x="217" y="564.5" width="8" height="8" rx="1" fill="#5384ED"/>
<path d="M215 561.5H227V559.5H215V561.5ZM228 562.5V574.5H230V562.5H228ZM227 575.5H215V577.5H227V575.5ZM214 574.5V562.5H212V574.5H214ZM215 575.5C214.448 575.5 214 575.052 214 574.5H212C212 576.157 213.343 577.5 215 577.5V575.5ZM228 574.5C228 575.052 227.552 575.5 227 575.5V577.5C228.657 577.5 230 576.157 230 574.5H228ZM227 561.5C227.552 561.5 228 561.948 228 562.5H230C230 560.843 228.657 559.5 227 559.5V561.5ZM215 559.5C213.343 559.5 212 560.843 212 562.5H214C214 561.948 214.448 561.5 215 561.5V559.5Z" fill="#6E7491"/>
</g>
<text fill="#6E7491" xml:space="preserve" style="white-space: pre" font-family="Roboto" font-size="16" letter-spacing="0em"><tspan x="237" y="573.969">label</tspan></text>
<path d="M329 562.5C329 561.395 329.895 560.5 331 560.5H343C344.105 560.5 345 561.395 345 562.5V574.5C345 575.605 344.105 576.5 343 576.5H331C329.895 576.5 329 575.605 329 574.5V562.5Z" fill="white"/>
<rect x="333" y="564.5" width="8" height="8" rx="1" fill="#A1B0CC"/>
<path d="M331 561.5H343V559.5H331V561.5ZM344 562.5V574.5H346V562.5H344ZM343 575.5H331V577.5H343V575.5ZM330 574.5V562.5H328V574.5H330ZM331 575.5C330.448 575.5 330 575.052 330 574.5H328C328 576.157 329.343 577.5 331 577.5V575.5ZM344 574.5C344 575.052 343.552 575.5 343 575.5V577.5C344.657 577.5 346 576.157 346 574.5H344ZM343 561.5C343.552 561.5 344 561.948 344 562.5H346C346 560.843 344.657 559.5 343 559.5V561.5ZM331 559.5C329.343 559.5 328 560.843 328 562.5H330C330 561.948 330.448 561.5 331 561.5V559.5Z" fill="#A1B0CC"/>
<text fill="#A1B0CC" xml:space="preserve" style="white-space: pre" font-family="Roboto" font-size="16" letter-spacing="0em"><tspan x="353" y="573.969">label</tspan></text>
<rect width="16" height="16" transform="translate(213 610.5)" fill="white"/>
<rect x="217" y="617.5" width="8" height="2" rx="1" fill="#5384ED"/>
<path d="M215 611.5H227V609.5H215V611.5ZM228 612.5V624.5H230V612.5H228ZM227 625.5H215V627.5H227V625.5ZM214 624.5V612.5H212V624.5H214ZM215 625.5C214.448 625.5 214 625.052 214 624.5H212C212 626.157 213.343 627.5 215 627.5V625.5ZM228 624.5C228 625.052 227.552 625.5 227 625.5V627.5C228.657 627.5 230 626.157 230 624.5H228ZM227 611.5C227.552 611.5 228 611.948 228 612.5H230C230 610.843 228.657 609.5 227 609.5V611.5ZM215 609.5C213.343 609.5 212 610.843 212 612.5H214C214 611.948 214.448 611.5 215 611.5V609.5Z" fill="#6E7491"/>
<text fill="#6E7491" xml:space="preserve" style="white-space: pre" font-family="Roboto" font-size="16" letter-spacing="0em"><tspan x="237" y="623.969">label</tspan></text>
<path d="M329 612.5C329 611.395 329.895 610.5 331 610.5H343C344.105 610.5 345 611.395 345 612.5V624.5C345 625.605 344.105 626.5 343 626.5H331C329.895 626.5 329 625.605 329 624.5V612.5Z" fill="white"/>
<rect x="333" y="617.5" width="8" height="2" rx="1" fill="#A1B0CC"/>
<path d="M331 611.5H343V609.5H331V611.5ZM344 612.5V624.5H346V612.5H344ZM343 625.5H331V627.5H343V625.5ZM330 624.5V612.5H328V624.5H330ZM331 625.5C330.448 625.5 330 625.052 330 624.5H328C328 626.157 329.343 627.5 331 627.5V625.5ZM344 624.5C344 625.052 343.552 625.5 343 625.5V627.5C344.657 627.5 346 626.157 346 624.5H344ZM343 611.5C343.552 611.5 344 611.948 344 612.5H346C346 610.843 344.657 609.5 343 609.5V611.5ZM331 609.5C329.343 609.5 328 610.843 328 612.5H330C330 611.948 330.448 611.5 331 611.5V609.5Z" fill="#A1B0CC"/>
<text fill="#A1B0CC" xml:space="preserve" style="white-space: pre" font-family="Roboto" font-size="16" letter-spacing="0em"><tspan x="353" y="623.969">label</tspan></text>
<rect x="81.5" y="492.5" width="343" height="162" rx="31.5" stroke="#5384ED" stroke-dasharray="10 5"/>
<rect x="0.5" y="0.5" width="1513" height="983" rx="32.5" stroke="#CBD4E6"/>
<defs>
<clipPath id="clip0_781_9282">
<path d="M213 512.5C213 511.395 213.895 510.5 215 510.5H227C228.105 510.5 229 511.395 229 512.5V524.5C229 525.605 228.105 526.5 227 526.5H215C213.895 526.5 213 525.605 213 524.5V512.5Z" fill="white"/>
</clipPath>
<clipPath id="clip1_781_9282">
<path d="M329 512.5C329 511.395 329.895 510.5 331 510.5H343C344.105 510.5 345 511.395 345 512.5V524.5C345 525.605 344.105 526.5 343 526.5H331C329.895 526.5 329 525.605 329 524.5V512.5Z" fill="white"/>
</clipPath>
<clipPath id="clip2_781_9282">
<path d="M213 562.5C213 561.395 213.895 560.5 215 560.5H227C228.105 560.5 229 561.395 229 562.5V574.5C229 575.605 228.105 576.5 227 576.5H215C213.895 576.5 213 575.605 213 574.5V562.5Z" fill="white"/>
</clipPath>
</defs>
</svg>
