<svg width="1512" height="982" viewBox="0 0 1512 982" fill="none" xmlns="http://www.w3.org/2000/svg">
<g clip-path="url(#clip0_548_7896)">
<rect width="1512" height="982" rx="32" fill="white"/>
<path d="M1597 768C1597 775.175 1591.34 781 1584.36 781L-142.358 781C-149.335 781 -155 775.184 -155 768C-155 760.825 -149.344 755 -142.358 755L1584.37 755C1591.34 755.01 1597 760.825 1597 768Z" fill="#F7F7F7"/>
<path d="M887.53 807.467H785.703C783.657 807.467 782 805.796 782 803.733C782 801.671 783.657 800 785.703 800H887.53C889.576 800 891.233 801.671 891.233 803.733C891.233 805.796 889.576 807.467 887.53 807.467ZM1058.79 807.467H956.958C954.912 807.467 953.255 805.796 953.255 803.733C953.255 801.671 954.912 800 956.958 800H1058.79C1060.83 800 1062.49 801.671 1062.49 803.733C1062.49 805.796 1060.83 807.467 1058.79 807.467ZM1239.3 807.467H1137.47C1135.42 807.467 1133.77 805.796 1133.77 803.733C1133.77 801.671 1135.42 800 1137.47 800H1239.3C1241.34 800 1243 801.671 1243 803.733C1243 805.796 1241.34 807.467 1239.3 807.467ZM976.398 828H874.57C872.524 828 870.867 826.329 870.867 824.267C870.867 822.204 872.524 820.533 874.57 820.533H976.398C978.443 820.533 980.1 822.204 980.1 824.267C980.1 826.329 978.443 828 976.398 828ZM1153.21 828H1051.38C1049.33 828 1047.68 826.329 1047.68 824.267C1047.68 822.204 1049.33 820.533 1051.38 820.533H1153.21C1155.25 820.533 1156.91 822.204 1156.91 824.267C1156.91 826.329 1155.25 828 1153.21 828Z" fill="#D3D3D3"/>
<path d="M801.751 754.689C801.751 754.689 772.376 692.324 821.264 653.761C870.152 615.188 780.492 576.034 812.843 528.135C845.195 480.236 955.19 519.058 952.417 430.322C949.644 341.586 1042.08 317.554 1072.58 344.359C1103.08 371.165 1107.28 501.819 1194.84 487.797C1282.4 473.766 1364.67 658.909 1294.42 754.439L801.751 754.689Z" fill="#2A94F4" fill-opacity="0.06"/>
<path d="M630.318 670.645C608.085 689.173 620.913 743.332 630.318 755.131H927.871C939.358 728.451 946.399 642.853 894.892 635.442C843.385 628.031 860.06 566.149 843.015 500.561C825.969 434.974 790.026 439.05 765.199 439.05C719.569 439.05 689.977 505.379 694.423 559.109C698.87 612.839 727.402 603.575 721.103 635.442C714.804 667.31 662.601 643.742 630.318 670.645Z" fill="#2A94F4" fill-opacity="0.06"/>
<path d="M830.215 718.424C839.017 702.31 811.233 694.733 804.535 701.124C797.837 707.517 820.042 737.05 830.215 718.424Z" fill="#2A94F4" fill-opacity="0.2"/>
<path d="M841.896 713.505C859.168 713.505 851.351 682.613 843.967 682.613C834.708 682.613 821.941 713.505 841.896 713.505Z" fill="#2A94F4" fill-opacity="0.2"/>
<path d="M855.208 724.712C869.447 736.303 881.963 710.367 876.9 702.616C871.836 694.865 838.749 711.313 855.208 724.712Z" fill="#2A94F4" fill-opacity="0.2"/>
<path d="M837.05 732.381C834.646 726.82 831.128 721.638 826.594 716.981C818.88 709.059 810.766 705.343 810.685 705.307C810.443 705.198 810.159 705.305 810.05 705.546C809.941 705.788 810.048 706.071 810.289 706.181C810.369 706.217 818.342 709.873 825.93 717.676C830.376 722.248 833.824 727.33 836.176 732.782C836.443 733.4 836.691 734.025 836.93 734.654H837.956C837.674 733.89 837.374 733.131 837.05 732.381Z" fill="#102042"/>
<path d="M843.537 688.948C843.568 688.685 843.38 688.447 843.117 688.415C842.853 688.383 842.615 688.571 842.584 688.834C842.552 689.097 840.131 709.799 840.254 734.653H841.214C841.091 709.864 843.506 689.21 843.537 688.948Z" fill="#102042"/>
<path d="M872.102 706.086C871.955 705.865 871.657 705.806 871.437 705.954C871.368 706 864.44 710.66 857.313 718.324C853.431 722.498 849.019 728.095 845.786 734.654H846.859C850.019 728.384 854.26 723.019 858.001 718.994C865.053 711.407 871.902 706.798 871.971 706.752C872.191 706.604 872.25 706.306 872.102 706.086Z" fill="#102042"/>
<path d="M841.215 734.654H840.255H837.957H836.931H823.534C823.019 734.654 822.653 735.157 822.813 735.647L823.658 738.241L824.086 739.555L830.208 758.339C830.374 758.849 830.85 759.194 831.386 759.194H853.454C853.989 759.194 854.465 758.849 854.631 758.339L860.754 739.555L861.182 738.241L862.027 735.647C862.188 735.157 861.822 734.654 861.307 734.654H846.858H845.785H841.215Z" fill="#FFD109"/>
<path d="M861.183 738.241L860.756 739.554H824.087L823.659 738.241H861.183Z" fill="#FFBE55"/>
<path opacity="0.4" d="M1275.63 605.545C1278.52 602.657 1278.16 597.612 1274.82 594.277C1271.48 590.941 1266.44 590.579 1263.55 593.467C1260.66 596.354 1261.03 601.399 1264.36 604.735C1267.7 608.07 1272.74 608.433 1275.63 605.545Z" fill="#FFBE55"/>
<path d="M928.883 682.753L912 621H957.027V676.125H988.749V685.311H987.216L989 756H985.423V684.542H935.796L929.654 756H926.588L928.883 682.753Z" fill="#D3D3D3"/>
<path d="M977.535 662.46C976.123 661.525 974.82 660.442 974.224 660.127C973.975 659.998 973.189 659.831 972.971 659.766C972.314 659.581 971.27 659.396 970.812 658.915L968.873 656.934C967.948 655.962 966.745 655.638 965.701 656.499C964.567 657.424 964.905 658.748 966.029 659.683L967.361 661.09C968.257 661.84 968.704 662.895 969.201 663.923C970.216 666.006 972.493 667.57 974.452 668.672C975.686 669.357 977.545 668.875 979.982 668.098C981.175 667.718 982.916 666.792 981.424 666.274C980.171 665.839 976.402 666.783 974.731 663.552C974.651 663.395 974.472 662.969 974.641 662.821C975.149 662.377 976.262 663.377 977.008 663.691C978.053 664.136 978.888 663.988 979.156 663.627C979.425 663.256 978.54 663.127 977.535 662.46Z" fill="#FAB9AF"/>
<path d="M973 591.802C973 591.802 975.878 626.287 986.214 637.926C992.449 644.942 1007.68 656.966 1011.21 659.727C1011.66 660.075 1012.28 660.094 1012.75 659.763C1013.05 659.552 1013.39 659.296 1013.68 659.039C1013.98 658.782 1014.33 658.397 1014.63 658.039C1015.14 657.443 1015.12 656.553 1014.58 655.976C1010.63 651.683 995.116 634.698 993.231 630.231C991.07 625.104 987.345 594.866 983.925 590.482C980.504 586.098 973.938 585.144 973 591.802Z" fill="#FFD109"/>
<path d="M986 649L977.182 586.296L953.38 583L941 648.544L986 649Z" fill="#FAB9AF"/>
<path d="M986.968 647.628L977.114 586.316L953.003 583L940.044 647.74C939.802 648.955 940.585 650.141 941.806 650.366C946.291 651.216 957.124 653 969.235 653C978.279 653 983.36 651.234 985.673 650.123C986.624 649.674 987.136 648.656 986.968 647.628Z" fill="#D3D3D3"/>
<path d="M960.254 586.446C960.254 590.827 959.46 595.163 957.972 599.275C955.051 607.325 950.671 622.554 953.277 635.967C957.02 655.281 961.844 663.09 955.596 667.592C949.349 672.094 937.372 664.581 937.03 662.08C936.688 659.579 939.359 628.816 942.39 615.486C945.421 602.156 953.924 583 953.924 583L957.528 583.389C959.071 583.565 960.254 584.88 960.254 586.446ZM970.208 585.056C970.208 585.056 974.348 594.033 972.906 606.936C971.465 619.831 968.11 659.116 979.819 665.044C983.525 666.925 992 658.606 992 655.522C992 652.437 989.172 642.109 986.492 632.716C983.812 623.323 977.361 586.048 977.361 586.048L970.208 585.056Z" fill="#FFD109"/>
<path d="M967.543 558C962.124 558 960.104 561.876 960.001 569.044C959.963 571.732 961.166 574.391 962.133 576.089C962.856 577.353 963.054 578.843 962.64 580.239L961.447 584.285C960.64 588.038 962.415 590.094 965.035 590.839C966.332 591.207 967.891 590.924 969.018 590.189C970.361 589.311 970.474 587.435 970.23 585.841L969.92 584.69C969.506 583.134 970.399 581.465 971.967 581.116C976.138 580.201 976.739 575.834 977.857 569.044C979.012 561.971 972.963 558 967.543 558Z" fill="#FAB9AF"/>
<path d="M978.996 554.831L975.898 555.773C974.756 556.119 973.548 556.128 972.407 555.792L966.22 554C962.476 554 956.29 556.109 957.067 561.505L957.759 565.313C958.031 566.834 959.313 567.973 960.857 568.104C960.998 568.627 961.484 569 962.027 569C962.701 569 963.244 568.459 963.244 567.796C963.244 566.078 964.451 564.613 966.136 564.23C968.195 563.773 970.404 563.661 972.706 564.277C977.002 565.425 981.532 562.774 981.963 558.35C981.991 558.07 982 557.79 982 557.5C982.009 555.717 980.531 554.411 978.996 554.831Z" fill="#0B4870"/>
<path d="M963 569C963 570.655 962.358 572 960.714 572C959.06 572 958 569.724 958 568.069C958 566.414 959.06 566 960.714 566C962.368 566 963 567.345 963 569Z" fill="#FAB9AF"/>
<path d="M962 576C962 576 966.011 581.457 971 580.712C971 580.712 969.967 581.199 969.716 582C969.716 582 964.978 581.65 962 576Z" fill="#E8948B"/>
<path d="M913.448 701.849L907.841 709.975C906.701 711.632 905.786 713.438 905.131 715.356L904.1 718.372C903.247 720.848 900.358 721.788 898.295 720.261C892.957 716.305 883.806 709.584 881.447 707.853C881.061 707.574 880.864 707.025 881.106 706.596C882.533 704.074 888.427 709.603 894.787 711.278C899.632 712.554 906.1 703.059 908.46 698.582C909.357 696.888 911.519 696.478 912.945 697.725C914.129 698.749 914.345 700.546 913.448 701.849Z" fill="#FAB9AF"/>
<path d="M990.54 659.55C989.405 658.974 972.382 638.967 961.592 637.257C950.812 635.539 949.677 642.403 936.057 658.408C922.436 674.412 902 706.43 902 706.43L908.243 711C908.243 711 937.191 675.555 946.265 666.981C955.349 658.408 959.038 656.401 961.869 664.408C964.709 672.415 971.515 686.134 985.136 678.127C998.766 670.13 990.54 659.55 990.54 659.55Z" fill="#0B4870"/>
<path d="M965.638 731.492L969.131 743.177C969.282 743.691 969.518 744.186 969.811 744.633L972.285 748.335C973.852 750.686 972.728 753.902 970.038 754.73C970.038 754.73 965.043 756.5 959.897 758.204C954.628 759.945 948 758.489 948 757.09C948 753.978 950.88 756.453 955.705 753.198C957.319 752.113 958.99 750.971 960.473 749.791C964.627 746.508 961.002 738.191 958.462 733.509C957.546 731.825 958.518 729.731 960.378 729.331L961.578 729.075C963.362 728.703 965.118 729.75 965.638 731.492Z" fill="#FAB9AF"/>
<path d="M956.206 654.013C956.206 654.013 939.237 652.868 943.199 671.787C947.161 690.706 959.037 738.856 959.037 738.856H969.782L966.951 671.209C966.951 671.219 958.467 654.013 956.206 654.013ZM968.844 743.775C968.844 743.775 964.598 745.973 962.098 746.011C962.098 746.011 962.87 749.82 956.932 752.289C950.994 754.767 947.951 753.22 947.951 756.816C947.951 760.403 955.544 761.949 960.608 760.403C965.673 758.866 972.245 754.245 973.771 753.22C975.279 752.196 968.844 743.775 968.844 743.775ZM906.018 713.202C906.018 713.202 901.349 710.873 899.694 708.675C899.694 708.675 896.909 711.842 890.907 708.191C884.904 704.539 884.252 700.841 881.154 703.179C878.056 705.517 881.678 713.249 886.301 716.733C890.925 720.217 899.198 723.039 901.073 723.719C902.948 724.399 906.018 713.202 906.018 713.202Z" fill="#0B4870"/>
<path d="M954 583.013C954 583.013 945.498 606.225 946.443 621.08C947.388 635.935 947.378 648.052 938.876 638.739C930.375 629.427 936.052 582.085 954 583.013Z" fill="#FFD109"/>
<path d="M986.869 609.093C985.589 610.733 984.139 612.234 983.7 612.942C983.512 613.24 983.252 614.182 983.163 614.442C982.885 615.225 982.581 616.493 981.945 617.006L979.313 619.214C978.024 620.258 977.532 621.693 978.534 623.036C979.618 624.49 981.301 624.182 982.563 622.896L984.425 621.386C985.437 620.351 986.798 619.895 988.114 619.373C990.808 618.31 992.939 615.654 994.47 613.352C995.428 611.907 994.944 609.605 994.148 606.567C993.754 605.076 992.715 602.886 991.954 604.666C991.319 606.157 992.241 610.826 988.042 612.597C987.836 612.681 987.29 612.867 987.12 612.653C986.601 612.001 987.935 610.724 988.391 609.838C989.027 608.599 988.893 607.564 988.463 607.219C988.015 606.847 987.782 607.928 986.869 609.093Z" fill="#FAB9AF"/>
<path d="M936 632.843C936 632.843 938.038 649.913 947.64 643.599C957.251 637.285 974.776 629.144 979.388 625.525C984 621.907 984 621.907 984 621.907L981.15 616L936 632.843Z" fill="#FFBE55"/>
<path d="M1209.24 681.753L1226.12 620H1181.1V675.125H1149.38V684.311H1150.92L1149.12 755H1152.71V683.542H1202.34L1208.48 755H1211.54L1209.24 681.753Z" fill="#D3D3D3"/>
<path d="M1167.12 609C1173.2 609 1178.12 602.732 1178.12 595C1178.12 587.268 1173.2 581 1167.12 581C1161.05 581 1156.12 587.268 1156.12 595C1156.12 602.732 1161.05 609 1167.12 609Z" fill="#0B4870"/>
<path d="M1170.14 595.951C1170.31 588.039 1176.6 581.379 1184.35 580.927C1191.22 580.522 1197.17 584.827 1199.39 590.958C1200.17 593.106 1202.24 594.509 1204.48 594.472C1205.42 594.453 1206.38 594.547 1207.36 594.745C1213.04 595.932 1217.46 600.83 1218.05 606.707C1218.59 612.01 1216.15 616.776 1212.24 619.489C1210.56 620.647 1209.62 622.569 1209.34 624.603C1208.06 634.041 1199.61 640.964 1189.97 639.89C1181.72 638.967 1175.13 632.054 1174.42 623.633C1173.99 618.462 1175.74 613.724 1178.79 610.201C1173.59 607.696 1170 602.252 1170.14 595.951ZM1167.53 575.483C1167.53 575.483 1161.41 579.411 1162.15 584.695C1162.15 584.695 1158.88 582.34 1158.14 574.211C1157.63 568.579 1167.53 575.483 1167.53 575.483Z" fill="#0B4870"/>
<path d="M1163.12 608.311C1162.98 612.784 1162.68 617.285 1162.04 621.813C1161.38 626.324 1160.45 630.889 1158.72 635.307C1157.86 637.512 1156.8 639.67 1155.47 641.7C1154.15 643.73 1152.52 645.604 1150.6 647.129C1148.69 648.663 1146.54 649.866 1144.29 650.656C1142.03 651.446 1139.71 651.841 1137.41 651.997C1136.74 652.043 1136.17 651.538 1136.13 650.886C1136.09 650.279 1136.5 649.756 1137.08 649.636H1137.08C1141.25 648.764 1145.03 646.862 1147.71 643.996C1150.43 641.149 1152.09 637.429 1153.1 633.497C1154.12 629.548 1154.57 625.377 1154.75 621.152C1154.85 619.039 1154.87 616.908 1154.86 614.768C1154.85 612.628 1154.81 610.479 1154.74 608.329C1154.65 606.024 1156.46 604.085 1158.78 604.003C1161.09 603.92 1163.04 605.72 1163.12 608.026C1163.12 608.118 1163.12 608.21 1163.12 608.302V608.311Z" fill="#FAB9AF"/>
<path d="M1160.07 635C1157.63 627.601 1152.73 611.922 1153.15 606.795C1153.42 603.513 1156.14 601 1159.41 601H1180.62C1184.13 601 1187.01 603.809 1187.12 607.351C1187.29 613.545 1184.46 627.629 1182.87 635H1160.07V635Z" fill="#2A94F4"/>
<path d="M1186.05 643.779C1184.92 640.717 1184.58 637.445 1185.05 634.227C1186.15 626.759 1188.08 612.691 1187.9 606.722C1187.81 603.532 1185.1 601 1181.79 601H1178.55C1177.31 603.761 1174.7 605.89 1170.63 605.89C1166.57 605.89 1163.95 603.761 1162.72 601H1159.68C1162.99 607.828 1161.79 616.832 1156.1 622.088C1157.16 625.689 1158.05 629.318 1158.71 632.253C1159.61 636.229 1159.21 640.379 1157.59 644.145C1154.79 650.608 1152.58 660.973 1153.24 665.078C1176.23 671.357 1192.12 660.242 1192.12 660.242L1186.05 643.779Z" fill="#2A94F4"/>
<path d="M1167.12 602L1177.12 601.035L1173.96 591L1167.5 591.728L1167.12 602Z" fill="#FAB9AF"/>
<path d="M1167.35 591.75L1173.23 591L1174.12 594.187C1172.81 595.714 1171.11 599 1168.98 599C1168.3 599 1167.68 598.804 1167.12 598.437L1167.35 591.75Z" fill="#FA968C"/>
<path d="M1167.02 596C1169.22 596 1171.59 594.957 1174.86 592.245C1176.73 590.685 1178.12 587.973 1178.12 586.141V576H1161.68C1161.68 576 1160.45 581.388 1161.64 586.73C1162.54 590.73 1165.3 596 1167.02 596Z" fill="#FAB9AF"/>
<path d="M1175.12 584.5C1175.12 586.432 1176.15 588 1177.43 588C1178.71 588 1180.12 585.466 1180.12 583.534C1180.12 581.603 1178.71 581 1177.43 581C1176.16 581 1175.12 582.568 1175.12 584.5Z" fill="#FAB9AF"/>
<path d="M1180.11 577.169C1180.11 574.124 1177.53 571.655 1174.33 571.655H1169.02C1167.5 571.655 1166.03 571.279 1164.73 570.573C1162.86 569.561 1160.49 569.892 1159.21 571.55C1157.83 573.338 1157.23 575.738 1160.74 577.954C1162.48 579.053 1165.03 577.832 1166.73 578.364C1166.83 578.364 1166.93 578.346 1167.04 578.346H1171.72C1173.35 578.346 1174.59 579.611 1174.64 581.164C1174.66 582.15 1175.51 582.936 1176.55 582.936H1176.76L1177.51 580.641L1180.12 584V577.169H1180.11Z" fill="#0B4870"/>
<path d="M1133.7 647.144C1133.7 647.144 1139.24 647.764 1139.61 649.453C1139.97 651.143 1139.89 652.337 1137.35 652.938C1134.82 653.54 1131.05 653.195 1128.82 652.558C1126.59 651.921 1123.35 649.338 1123.18 648.834C1122.6 647.021 1126.5 648.586 1128.43 649.259C1130.36 649.931 1132.61 650.497 1132.67 649.515C1132.75 648.533 1128.96 647.516 1128.65 646.366C1128.35 645.216 1133.7 647.144 1133.7 647.144ZM1150.19 649.497C1150.19 649.497 1155.69 648.63 1156.52 650.161C1157.35 651.691 1157.62 652.859 1155.35 654.106C1153.08 655.353 1149.36 656.026 1147.04 655.999C1144.72 655.973 1140.85 654.345 1140.56 653.912C1139.48 652.319 1143.68 652.797 1145.72 652.93C1147.77 653.062 1150.09 653.018 1149.88 652.054C1149.67 651.09 1145.73 651.116 1145.12 650.09C1144.49 649.064 1150.19 649.497 1150.19 649.497Z" fill="#FAB9AF"/>
<path d="M1163.2 575.661C1163.76 578.179 1162.94 579.562 1171 583.502C1179.05 587.442 1181.6 585.754 1184.12 590C1184.12 590 1183.03 582.979 1178.57 580.569C1174.12 578.16 1166.41 576.58 1163.92 571C1163.92 571 1162.83 573.933 1163.2 575.661Z" fill="#0B4870"/>
<path d="M1186.18 605.636C1187.35 607.168 1188.28 608.572 1189.24 610.086C1190.18 611.581 1191.09 613.094 1191.93 614.653C1193.59 617.78 1195.08 621.033 1196.23 624.486C1197.35 627.938 1198.15 631.618 1198.12 635.542C1198.09 637.499 1197.83 639.52 1197.21 641.496C1196.61 643.471 1195.58 645.374 1194.25 646.978C1192.92 648.591 1191.31 649.914 1189.62 650.929C1187.92 651.953 1186.15 652.697 1184.37 653.267C1182.59 653.838 1180.79 654.192 1179.01 654.491C1177.23 654.726 1175.46 654.908 1173.69 654.953C1166.65 655.216 1159.8 654.346 1153.09 653.095C1152.44 652.977 1152.02 652.361 1152.14 651.718C1152.25 651.129 1152.78 650.73 1153.37 650.757H1153.39C1156.75 650.92 1160.09 651.047 1163.43 650.984C1166.76 650.938 1170.07 650.766 1173.28 650.313C1176.5 649.86 1179.63 649.153 1182.45 648.02C1185.25 646.87 1187.66 645.22 1189.08 643.1C1190.54 641.006 1191.08 638.423 1190.95 635.632C1190.8 632.832 1189.99 629.896 1188.89 627.032C1187.8 624.15 1186.38 621.314 1184.78 618.568C1183.98 617.191 1183.15 615.822 1182.27 614.49C1181.84 613.819 1181.39 613.167 1180.93 612.514C1180.49 611.88 1180 611.182 1179.59 610.648L1179.55 610.593C1178.17 608.781 1178.54 606.198 1180.36 604.83C1182.19 603.461 1184.8 603.824 1186.18 605.636Z" fill="#FAB9AF"/>
<path d="M1165.09 576.608C1165.09 576.608 1164.81 584.298 1158.12 588C1158.12 588 1161.07 582.188 1160.87 578.378C1160.68 574.578 1165.54 573.979 1165.09 576.608Z" fill="#0B4870"/>
<path d="M1136.12 730.228L1133.67 741.124C1132.92 744.452 1133.38 747.954 1134.99 750.964C1135.9 752.646 1135.09 754.738 1133.29 755.375C1127.47 757.448 1116.19 761.395 1115.68 760.968C1113.12 758.794 1119.9 755.211 1124.91 751.446C1128.29 748.908 1129.58 737.076 1129.88 728L1135.26 729.355C1135.68 729.482 1136 729.81 1136.12 730.228Z" fill="#FA968C"/>
<path d="M1169.57 660L1192.46 661.01C1192.46 661.01 1198.57 679.764 1187.38 681.283C1176.18 682.802 1143.62 679.255 1142.6 684.321C1141.59 689.387 1136.49 734 1136.49 734H1128.86C1128.86 734 1129.37 705.613 1128.86 690.906C1128.35 676.198 1126.31 670.123 1132.42 667.585C1138.53 665.075 1169.57 660 1169.57 660Z" fill="#0B4870"/>
<path d="M1142.94 703.747C1142.94 703.747 1144.24 714.839 1144.6 716.706C1144.9 718.249 1145.97 719.47 1146.98 720.671C1147.3 721.059 1147.54 721.817 1147.75 722.464C1147.91 722.982 1147.77 723.527 1147.47 723.971C1141.98 731.717 1131.4 732.567 1131.36 731.856C1131.27 730.58 1133.33 728.62 1135.67 728.001C1138.02 727.373 1139.81 725.441 1140.53 723.111C1141.1 721.263 1141.19 719.294 1140.8 717.399L1138.89 708.886L1142.94 703.747Z" fill="#FA968C"/>
<path d="M1149.08 727.04C1149.61 726.679 1149.81 725.986 1149.54 725.404C1149.32 724.923 1148.74 723.62 1148.29 722.64C1148.1 722.215 1147.54 722.15 1147.24 722.501C1143.8 726.504 1139.16 729.092 1134.2 728.454C1132.36 729.083 1130.73 731.181 1130.8 732.188C1130.82 732.429 1132.94 733.03 1135.52 732.355C1146.96 729.369 1149.08 727.04 1149.08 727.04Z" fill="#0B4870"/>
<path d="M1156.12 662.286L1140.93 665.817L1144.47 712.756L1138.9 713.761C1138.9 713.761 1125.22 680.956 1125.73 665.817C1126.24 650.678 1138.39 655.223 1145.49 657.233C1152.58 659.262 1156.12 662.286 1156.12 662.286ZM1126.26 754.467C1123.8 755.27 1121.12 755.528 1118.66 755.832C1118.38 755.869 1118.1 755.979 1117.88 756.145C1115.52 757.971 1114.33 759.806 1115.71 760.967C1116.27 761.438 1129.75 756.68 1135.01 754.799C1136.11 754.403 1136.59 753.14 1136.04 752.107L1135.04 750.235C1132.29 751.987 1129.36 753.444 1126.26 754.467Z" fill="#0B4870"/>
<path d="M1119.69 644.764H995V649.349H1119.69V644.764Z" fill="#0B4870"/>
<path d="M1003.65 649.349H1001.11V755.721H1003.65V649.349Z" fill="#76838B"/>
<path d="M1113.07 649.349H1110.53V755.721H1113.07V649.349Z" fill="#76838B"/>
<path d="M1236.75 755.804C1236.75 757.625 1235.27 759.095 1233.46 759.095H1220.75C1218.93 759.095 1217.46 757.616 1217.46 755.804V726.161C1217.46 724.34 1218.94 722.87 1220.75 722.87H1233.46C1235.28 722.87 1236.75 724.349 1236.75 726.161V755.804Z" fill="#FFBE55"/>
<path opacity="0.4" d="M1228.63 688.744C1228.63 688.744 1218.23 709.884 1233.55 713.489C1248.88 717.093 1249.32 701.139 1247.75 694.567C1246.18 687.995 1270.5 670.322 1250.44 654.692C1230.38 639.061 1214.75 680.675 1228.63 688.744Z" fill="#2A94F4"/>
<path opacity="0.4" d="M1209.26 700.215C1209.26 700.215 1208.77 714.126 1217.91 712.361C1227.04 710.595 1223.41 701.888 1220.97 698.727C1218.53 695.566 1227.37 680.157 1212.78 676.58C1198.19 673.012 1199.83 699.235 1209.26 700.215Z" fill="#2A94F4"/>
<path d="M1210.82 687.108L1222.11 722.871" stroke="#4D4D4D" stroke-miterlimit="10"/>
<path d="M1217.41 694.383L1215.01 700.391L1209.57 697.387" stroke="#4D4D4D" stroke-miterlimit="10"/>
<path d="M1240.87 666.874L1231.19 722.871" stroke="#4D4D4D" stroke-miterlimit="10"/>
<path d="M1246.56 675.341L1238.54 680.407L1233.39 673.456" stroke="#4D4D4D" stroke-miterlimit="10"/>
<path d="M1244.37 687.08L1236.34 692.155L1231.19 685.204" stroke="#4D4D4D" stroke-miterlimit="10"/>
<path d="M886.62 500L788.88 500C786.739 500 785 501.741 785 503.884V532.436C785 534.579 786.739 536.32 788.88 536.32H794.47V549L809.989 536.32L886.62 536.32C888.761 536.32 890.5 534.579 890.5 532.436V503.884C890.491 501.731 888.761 500 886.62 500ZM790.871 517.013H839.251V518.651H790.871V517.013ZM880.992 524.5L790.871 524.5V522.862L880.992 522.862V524.5ZM880.992 513.036L790.871 513.036V511.398L880.992 511.398V513.036Z" fill="#FFBE55"/>
<path opacity="0.4" d="M874.256 676.095C875.506 669.577 873.268 663.67 869.257 662.901C865.247 662.131 860.982 666.791 859.731 673.309C858.481 679.826 860.719 685.734 864.73 686.503C868.741 687.272 873.006 682.613 874.256 676.095Z" fill="#FFBE55"/>
<path opacity="0.4" d="M875.143 670.307C878.031 667.419 877.668 662.374 874.333 659.039C870.997 655.704 865.952 655.341 863.064 658.229C860.177 661.117 860.54 666.162 863.875 669.497C867.211 672.832 872.255 673.195 875.143 670.307Z" fill="#FFBE55"/>
<path opacity="0.4" d="M1264.73 631.322C1265.98 624.804 1263.74 618.897 1259.73 618.128C1255.72 617.358 1251.46 622.018 1250.21 628.536C1248.96 635.053 1251.19 640.961 1255.2 641.73C1259.22 642.499 1263.48 637.84 1264.73 631.322Z" fill="#FFBE55"/>
<path d="M779.442 538.429C779.442 530.468 772.42 524.017 761.89 524.017C753.139 524.017 750.132 528.846 750.132 528.846C750.132 528.846 741.861 530.634 741.861 540.912C741.861 550.467 741.861 566.905 741.861 566.905H755.452H756.145H766.182H777.093V545.499C777.955 544.44 779.442 542.085 779.442 538.429ZM763.098 561.707C762.362 561.707 761.558 561.571 760.72 561.335V566.904H748.694V552.576C748.612 552.346 748.531 552.1 748.453 551.841C743.121 551.332 743.342 542.521 746.51 542.521C746.553 542.521 746.596 542.525 746.637 542.531V542.53C759.955 546.788 768.911 539.812 771.841 534.965C771.841 538.347 775.585 541.645 776.916 541.946C776.719 554.033 768.072 561.707 763.098 561.707Z" fill="#311643"/>
<path d="M760.72 562.102V561.335C761.558 561.571 762.362 561.707 763.098 561.707C768.072 561.707 776.719 554.033 776.916 541.945C775.584 541.644 771.84 538.346 771.84 534.964C768.91 539.812 759.954 546.787 746.636 542.529V542.53C746.595 542.524 746.553 542.52 746.51 542.52C743.341 542.52 743.12 551.331 748.452 551.84C748.531 552.099 748.611 552.344 748.694 552.575V562.214L739.275 566.654V578.279H770.574V566.543L760.72 562.102Z" fill="#FCBEB7"/>
<path d="M770.575 578.279V566.544L760.72 562.102V561.335C757.934 560.548 754.766 558.644 752.44 556.867L770.575 578.279Z" fill="#F9AFAB"/>
<path d="M754.297 552.151C756.109 552.151 757.578 550.682 757.578 548.87C757.578 547.058 756.109 545.589 754.297 545.589C752.485 545.589 751.016 547.058 751.016 548.87C751.016 550.682 752.485 552.151 754.297 552.151Z" fill="#F49795"/>
<path d="M776.494 546.146C776.078 548.349 775.381 550.358 774.5 552.146C772.765 552.06 771.385 550.626 771.385 548.869C771.385 547.057 772.854 545.588 774.665 545.588C775.342 545.589 775.971 545.795 776.494 546.146Z" fill="#F49795"/>
<path d="M770.944 538.893C768.549 538.893 766.571 540.714 766.322 543.044C765.02 542.431 763.871 542.764 763.264 543.042C763.013 540.713 761.037 538.893 758.642 538.893C756.079 538.893 753.993 540.978 753.993 543.542C753.993 546.105 756.079 548.191 758.642 548.191C761.149 548.191 763.196 546.197 763.287 543.712C763.673 543.49 764.899 542.924 766.299 543.717C766.392 546.199 768.44 548.191 770.944 548.191C773.507 548.191 775.593 546.105 775.593 543.542C775.593 540.977 773.508 538.893 770.944 538.893ZM758.642 547.582C756.414 547.582 754.602 545.769 754.602 543.541C754.602 541.313 756.414 539.5 758.642 539.5C760.871 539.5 762.683 541.313 762.683 543.541C762.683 545.769 760.871 547.582 758.642 547.582ZM770.944 547.582C768.717 547.582 766.904 545.769 766.904 543.541C766.904 541.313 768.717 539.5 770.944 539.5C773.173 539.5 774.986 541.313 774.986 543.541C774.986 545.769 773.173 547.582 770.944 547.582Z" fill="white"/>
<path d="M770.947 546.873C770.581 546.873 770.284 546.576 770.284 546.21V544.97C770.284 544.604 770.581 544.307 770.947 544.307C771.314 544.307 771.611 544.604 771.611 544.97V546.21C771.611 546.576 771.314 546.873 770.947 546.873Z" fill="#311643"/>
<path d="M758.844 546.873C758.478 546.873 758.18 546.576 758.18 546.21V544.97C758.18 544.604 758.478 544.307 758.844 544.307C759.21 544.307 759.507 544.604 759.507 544.97V546.21C759.508 546.576 759.211 546.873 758.844 546.873Z" fill="#311643"/>
<path d="M763.581 554.394C762.397 554.394 761.591 553.949 761.102 553.543C760.486 553.032 760.231 552.474 760.22 552.45C760.151 552.297 760.219 552.118 760.372 552.048C760.525 551.979 760.705 552.047 760.774 552.199C760.809 552.274 761.65 554.038 764.093 553.755C764.261 553.736 764.411 553.855 764.43 554.023C764.45 554.19 764.33 554.341 764.163 554.36C763.959 554.383 763.765 554.394 763.581 554.394Z" fill="#311643"/>
<path d="M783.47 747.39L784.714 752.562L798.285 756.823L796.333 747.39H783.47Z" fill="#FCBEB7"/>
<path d="M737.748 747.39L738.118 753.778L737.273 754.09L736.715 756.825L750.273 752.562L750.612 747.39H737.748Z" fill="#FCBEB7"/>
<path d="M808.751 758.832L797.719 754.089L798.284 756.823L784.714 752.562V756.45C784.714 757.818 785.429 759.058 786.554 759.754L787.721 763.091C787.822 763.379 788.094 763.572 788.4 763.572C788.797 763.572 789.118 763.251 789.118 762.854V760.684L798.393 763.572H807.776C809.14 763.572 810.246 762.467 810.246 761.102C810.246 760.114 809.658 759.222 808.751 758.832Z" fill="#0B4870"/>
<path d="M750.285 756.413L750.273 752.524L736.716 756.825L737.273 754.09L726.255 758.865C725.349 759.258 724.764 760.151 724.767 761.139C724.771 762.503 725.88 763.606 727.244 763.601L736.627 763.574L746.217 760.555L746.224 762.828C746.226 763.225 746.548 763.546 746.945 763.544C747.25 763.544 747.522 763.349 747.623 763.061L748.888 759.407C749.757 758.682 750.288 757.595 750.285 756.413Z" fill="#0B4870"/>
<path d="M739.8 617.311L734.795 638.507C733.35 644.629 732.78 650.924 733.104 657.205L737.749 747.389H750.612L756.105 653.794L783.471 747.389H796.334L773.685 617.31H739.8V617.311Z" fill="#0B4870"/>
<path d="M756.82 572.545C759.105 572.545 760.931 570.346 762.163 568.118H749.137C751.124 570.34 753.845 572.545 756.82 572.545Z" fill="white"/>
<path d="M779.269 574.319C777.654 571.088 774.97 568.515 771.674 567.037L763.944 563.57C763.944 563.933 763.313 566.038 762.162 568.118C760.931 570.346 759.104 572.545 756.82 572.545C753.844 572.545 751.124 570.34 749.137 568.118C747.121 565.864 745.862 563.593 745.862 563.593L736.894 567.748C733.223 569.448 730.52 572.72 729.544 576.647L724.302 597.725C723.448 601.162 724.432 604.797 726.904 607.333C731.032 605.885 738.781 602.868 738.781 602.868L739.799 617.312H773.684L782.102 579.984L779.269 574.319Z" fill="#2A94F4"/>
<path d="M757.155 575.714C755.271 575.714 753.354 575.141 751.457 574.011C749.951 573.113 748.454 571.864 747.008 570.298C744.552 567.639 743.057 564.926 743.042 564.899L743.545 564.666C743.56 564.693 745.01 567.323 747.422 569.931C748.832 571.456 750.286 572.669 751.746 573.538C753.554 574.615 755.374 575.16 757.155 575.16C758.836 575.16 760.35 574.599 761.655 573.493C762.711 572.598 763.637 571.345 764.407 569.769C765.731 567.06 766.093 564.562 766.096 564.534L766.617 564.768C766.601 564.883 766.269 567.213 764.91 570C764.106 571.648 763.133 572.963 762.018 573.911C760.609 575.107 758.973 575.714 757.155 575.714Z" fill="white"/>
<path d="M777.347 689.28C780.747 689.28 783.504 686.523 783.504 683.123C783.504 679.722 780.747 676.965 777.347 676.965C773.946 676.965 771.19 679.722 771.19 683.123C771.19 686.523 773.946 689.28 777.347 689.28Z" fill="#083959"/>
<path d="M745.088 689.28C748.489 689.28 751.245 686.523 751.245 683.123C751.245 679.722 748.489 676.965 745.088 676.965C741.688 676.965 738.931 679.722 738.931 683.123C738.931 686.523 741.688 689.28 745.088 689.28Z" fill="#083959"/>
<path d="M736.948 570.485C736.948 572.657 735.188 574.418 733.015 574.418C732.143 574.418 731.337 574.134 730.685 573.653C731.911 571.322 733.809 569.388 736.156 568.119C736.654 568.777 736.948 569.596 736.948 570.485Z" fill="#197BD3"/>
<path d="M759.959 622.19L786.034 621.206C787.404 621.154 788.589 620.237 788.983 618.924L800.384 580.921C800.626 580.114 800.002 579.307 799.16 579.339L772.791 580.335C771.597 580.38 770.564 581.179 770.221 582.324L758.736 620.609C758.493 621.417 759.117 622.222 759.959 622.19Z" fill="#FFD109"/>
<path d="M788.059 602.23L792.621 606.794L793.399 604.2L788.059 602.23Z" fill="#2F3D6C"/>
<path d="M794.393 595.163L787.819 595.597C787.334 595.629 786.958 596.035 786.963 596.521L786.309 596.562C785.884 596.588 785.539 596.914 785.489 597.338L785.408 598.021H785.406C784.919 598.027 784.53 598.426 784.536 598.912C784.541 599.27 784.76 599.588 785.092 599.72L786.564 600.305C786.561 601.055 786.996 601.737 787.676 602.052L792.251 604.167C792.916 604.474 793.654 604.587 794.38 604.493C796.011 604.281 797.332 603.063 797.676 601.454L797.961 600.123C798.267 598.689 797.823 597.198 796.781 596.167C796.145 595.536 795.289 595.176 794.393 595.163Z" fill="#FCBEB7"/>
<path d="M761.719 569.809L766.204 580.775C766.458 581.393 766.828 581.954 767.283 582.408L768.082 583.203C768.267 583.388 768.526 583.282 768.529 583.02L768.54 581.894C768.547 581.25 768.418 580.591 768.165 579.972L763.68 569.007C763.407 568.339 762.746 567.978 762.205 568.199C761.663 568.421 761.446 569.142 761.719 569.809Z" fill="#6277D7"/>
<path d="M767.617 576.341L765.154 572.949C764.837 572.512 764.346 572.234 763.808 572.185L759.678 571.81C759.115 571.759 758.556 571.94 758.13 572.311L755.979 574.18C755.668 574.45 755.404 574.769 755.198 575.125L752.558 579.314L727.53 599.535C725.061 601.53 724.843 605.216 727.059 607.489C729.263 609.749 732.928 609.638 734.993 607.251L756.128 582.804L760.574 580.071L763.854 580.184C764.617 580.21 765.288 579.687 765.451 578.942L765.631 578.728C765.941 578.36 766.067 577.87 765.972 577.398L765.784 576.473L766.845 577.157C767 577.257 767.193 577.277 767.364 577.209C767.711 577.073 767.836 576.644 767.617 576.341Z" fill="#FCBEB7"/>
<path d="M738.782 602.868L748.043 592.157L739.134 607.862L738.782 602.868Z" fill="#197BD3"/>
<path d="M759.958 622.19L775.268 626.407L774.439 621.644L759.958 622.19Z" fill="#2F3D6C"/>
<path d="M777.902 572.078C777.418 572.279 776.887 572.39 776.329 572.39C774.071 572.39 772.239 570.559 772.239 568.3C772.239 567.976 772.277 567.661 772.348 567.359C774.553 568.477 776.453 570.097 777.902 572.078Z" fill="#197BD3"/>
<path d="M731.032 608.292C733.133 608.292 734.836 606.589 734.836 604.488C734.836 602.387 733.133 600.684 731.032 600.684C728.931 600.684 727.228 602.387 727.228 604.488C727.228 606.589 728.931 608.292 731.032 608.292Z" fill="#F9AFAB"/>
<rect width="99" height="21" transform="translate(790.5 506.464)" fill="#FFBE55"/>
<text fill="white" xml:space="preserve" style="white-space: pre" font-family="Roboto" font-size="10" font-weight="600" letter-spacing="0em"><tspan x="790.5" y="515.882">Invite our teams...</tspan></text>
<path d="M1077.12 503H995.88C993.739 503 992 504.741 992 506.884V535.436C992 537.579 993.739 539.32 995.88 539.32H1001.47V552L1016.99 539.32H1077.12C1079.26 539.32 1081 537.579 1081 535.436V506.884C1080.99 504.731 1079.26 503 1077.12 503ZM997.871 520.013H1046.25V521.651H997.871V520.013ZM1071.49 527.5H997.871V525.862H1071.49V527.5ZM1071.49 516.036H997.871V514.398H1071.49V516.036Z" fill="#FFBE55"/>
<rect width="80" height="21" transform="translate(997 510)" fill="#FFBE55"/>
<text fill="white" xml:space="preserve" style="white-space: pre" font-family="Roboto" font-size="8" font-weight="600" letter-spacing="0em"><tspan x="997" y="517.234">Sign up APPOINTA </tspan><tspan x="997" y="526.234">for job interviews...</tspan></text>
<path d="M1087.12 514.804V542.774C1087.12 544.873 1088.82 546.578 1090.92 546.578H1149.7L1164.87 559V546.578H1170.33C1172.42 546.578 1174.12 544.873 1174.12 542.774V514.804C1174.12 512.705 1172.42 511 1170.33 511H1090.92C1088.82 511 1087.12 512.696 1087.12 514.804ZM1168.38 529.27H1121.09V527.666H1168.38V529.27ZM1096.42 533.396H1168.38V535H1096.42V533.396ZM1096.42 522.166H1168.38V523.77H1096.42V522.166Z" fill="#2A94F4"/>
<rect width="80" height="21" transform="translate(1093 518)" fill="#2A94F4"/>
<text fill="white" xml:space="preserve" style="white-space: pre" font-family="Roboto" font-size="8" font-weight="600" letter-spacing="0em"><tspan x="1093" y="525.234">And sync with our </tspan><tspan x="1093" y="534.234">calendar</tspan></text>
<g filter="url(#filter0_d_548_7896)">
<rect width="1512" height="96" fill="white"/>
<path d="M281.438 50.25V45.7656C281.438 45.151 281.318 44.5729 281.078 44.0312C280.849 43.4792 280.531 43 280.125 42.5938C279.719 42.1875 279.24 41.8698 278.688 41.6406C278.146 41.401 277.568 41.2812 276.953 41.2812C276.339 41.2812 275.755 41.401 275.203 41.6406C274.661 41.8698 274.188 42.1875 273.781 42.5938C273.375 43 273.052 43.4792 272.812 44.0312C272.583 44.5729 272.469 45.151 272.469 45.7656V50.25H281.438ZM285.922 59.2031H281.438V54.7188H272.469V59.2031H268V45.7656C268 44.526 268.234 43.3646 268.703 42.2812C269.172 41.1875 269.807 40.2344 270.609 39.4219C271.422 38.6094 272.37 37.9688 273.453 37.5C274.547 37.0312 275.714 36.7969 276.953 36.7969C278.193 36.7969 279.354 37.0312 280.438 37.5C281.531 37.9688 282.484 38.6094 283.297 39.4219C284.109 40.2344 284.75 41.1875 285.219 42.2812C285.688 43.3646 285.922 44.526 285.922 45.7656V59.2031Z" fill="#5384ED"/>
<path d="M294.297 41.2812V50.25H298.781C299.396 50.25 299.974 50.1354 300.516 49.9062C301.057 49.6667 301.531 49.3438 301.938 48.9375C302.344 48.5312 302.661 48.0573 302.891 47.5156C303.13 46.9635 303.25 46.3802 303.25 45.7656C303.25 45.151 303.13 44.5729 302.891 44.0312C302.661 43.4792 302.344 43 301.938 42.5938C301.531 42.1875 301.057 41.8698 300.516 41.6406C299.974 41.401 299.396 41.2812 298.781 41.2812H294.297ZM294.297 59.2031H289.812V36.7969H298.781C299.604 36.7969 300.396 36.9062 301.156 37.125C301.917 37.3333 302.625 37.6354 303.281 38.0312C303.948 38.4167 304.552 38.8854 305.094 39.4375C305.646 39.9792 306.115 40.5833 306.5 41.25C306.896 41.9167 307.198 42.6302 307.406 43.3906C307.625 44.151 307.734 44.9427 307.734 45.7656C307.734 46.9948 307.5 48.1562 307.031 49.25C306.562 50.3333 305.922 51.2812 305.109 52.0938C304.297 52.9062 303.344 53.5469 302.25 54.0156C301.167 54.4844 300.01 54.7188 298.781 54.7188H294.297V59.2031Z" fill="#5384ED"/>
<path d="M314.859 41.2812V50.25H319.344C319.958 50.25 320.536 50.1354 321.078 49.9062C321.62 49.6667 322.094 49.3438 322.5 48.9375C322.906 48.5312 323.224 48.0573 323.453 47.5156C323.693 46.9635 323.812 46.3802 323.812 45.7656C323.812 45.151 323.693 44.5729 323.453 44.0312C323.224 43.4792 322.906 43 322.5 42.5938C322.094 42.1875 321.62 41.8698 321.078 41.6406C320.536 41.401 319.958 41.2812 319.344 41.2812H314.859ZM314.859 59.2031H310.375V36.7969H319.344C320.167 36.7969 320.958 36.9062 321.719 37.125C322.479 37.3333 323.188 37.6354 323.844 38.0312C324.51 38.4167 325.115 38.8854 325.656 39.4375C326.208 39.9792 326.677 40.5833 327.062 41.25C327.458 41.9167 327.76 42.6302 327.969 43.3906C328.188 44.151 328.297 44.9427 328.297 45.7656C328.297 46.9948 328.062 48.1562 327.594 49.25C327.125 50.3333 326.484 51.2812 325.672 52.0938C324.859 52.9062 323.906 53.5469 322.812 54.0156C321.729 54.4844 320.573 54.7188 319.344 54.7188H314.859V59.2031Z" fill="#5384ED"/>
<path d="M352.708 38.0249L356.589 44.7457L351.73 53.1635H348.489L353.349 44.7457L348.011 35.5L352.708 38.0249Z" fill="#5384ED" stroke="#5384ED" stroke-width="0.5" stroke-linecap="round" stroke-linejoin="round"/>
<path d="M331.297 45.8907L335.176 39.1698H344.895L346.516 41.9763H336.797L331.458 51.222L331.297 45.8907Z" fill="#5384ED" stroke="#5384ED" stroke-width="0.5" stroke-linecap="round" stroke-linejoin="round"/>
<path d="M348.815 60.5H341.053L336.194 52.0822L337.815 49.2773L342.673 57.6936H353.349L348.815 60.5Z" fill="#5384ED" stroke="#5384ED" stroke-width="0.5" stroke-linecap="round" stroke-linejoin="round"/>
<path d="M356.819 51.686L353.848 56.8316H343.172L341.551 54.0267H352.227L356.656 46.3547L356.819 51.686Z" fill="#BACCF4" stroke="white" stroke-width="0.5" stroke-linecap="round" stroke-linejoin="round"/>
<path d="M334.927 57.2293L331.956 52.0822L337.293 42.8365H340.534L335.196 52.0822L339.625 59.7542L334.927 57.2293Z" fill="#BACCF4" stroke="white" stroke-width="0.5" stroke-linecap="round" stroke-linejoin="round"/>
<path d="M341.072 35.5H347.015L352.352 44.7457L350.733 47.5521L345.396 38.3064H336.538L341.072 35.5Z" fill="#BACCF4" stroke="white" stroke-width="0.5" stroke-linecap="round" stroke-linejoin="round"/>
<path d="M364.303 59.2031H359.819V36.7969H364.303V59.2031Z" fill="#5384ED"/>
<path d="M386.397 59.2031H381.6L372.959 44.4531V59.2031H368.475V36.7969H373.272L381.913 51.5625V36.7969H386.397V59.2031Z" fill="#5384ED"/>
<path d="M399.975 59.2031H395.506V41.2812H388.772V36.7969H406.694V41.2812H399.975V59.2031Z" fill="#5384ED"/>
<path d="M421.569 50.25V45.7656C421.569 45.151 421.449 44.5729 421.209 44.0312C420.98 43.4792 420.663 43 420.256 42.5938C419.85 42.1875 419.371 41.8698 418.819 41.6406C418.277 41.401 417.699 41.2812 417.084 41.2812C416.47 41.2812 415.887 41.401 415.334 41.6406C414.793 41.8698 414.319 42.1875 413.913 42.5938C413.506 43 413.183 43.4792 412.944 44.0312C412.715 44.5729 412.6 45.151 412.6 45.7656V50.25H421.569ZM426.053 59.2031H421.569V54.7188H412.6V59.2031H408.131V45.7656C408.131 44.526 408.366 43.3646 408.834 42.2812C409.303 41.1875 409.939 40.2344 410.741 39.4219C411.553 38.6094 412.501 37.9688 413.584 37.5C414.678 37.0312 415.845 36.7969 417.084 36.7969C418.324 36.7969 419.486 37.0312 420.569 37.5C421.663 37.9688 422.616 38.6094 423.428 39.4219C424.241 40.2344 424.881 41.1875 425.35 42.2812C425.819 43.3646 426.053 44.526 426.053 45.7656V59.2031Z" fill="#5384ED"/>
<text fill="#7C8DB0" xml:space="preserve" style="white-space: pre" font-family="Roboto" font-size="18" letter-spacing="0em"><tspan x="681.277" y="54.1523">Home</tspan></text>
<text fill="#7C8DB0" xml:space="preserve" style="white-space: pre" font-family="Roboto" font-size="18" letter-spacing="0em"><tspan x="762.49" y="54.1523">Interviews</tspan></text>
<g clip-path="url(#clip1_548_7896)">
<text fill="#7C8DB0" xml:space="preserve" style="white-space: pre" font-family="Roboto" font-size="18" letter-spacing="0em"><tspan x="877.065" y="54.1523">Availability</tspan></text>
</g>
<text fill="#7C8DB0" xml:space="preserve" style="white-space: pre" font-family="Roboto" font-size="18" letter-spacing="0em"><tspan x="995.009" y="54.1523">Team</tspan></text>
<path d="M1072 40C1072 31.1634 1079.16 24 1088 24H1212C1220.84 24 1228 31.1634 1228 40V56C1228 64.8366 1220.84 72 1212 72H1088C1079.16 72 1072 64.8366 1072 56V40Z" fill="#5384ED"/>
<text fill="#FAFAFA" xml:space="preserve" style="white-space: pre" font-family="Roboto" font-size="18" letter-spacing="0em"><tspan x="1092" y="54.1523">Sign up/Log in</tspan></text>
</g>
<g filter="url(#filter1_d_548_7896)">
<rect width="279" height="48" transform="translate(268 557)" fill="white"/>
<text fill="#CBD4E6" xml:space="preserve" style="white-space: pre" font-family="Roboto" font-size="16" font-weight="500" letter-spacing="0em"><tspan x="284" y="586.469">Enter your email</tspan></text>
<path d="M547 557H631C639.837 557 647 564.163 647 573V589C647 597.837 639.837 605 631 605H547V557Z" fill="#5384ED"/>
<text fill="#FAFAFA" xml:space="preserve" style="white-space: pre" font-family="Roboto" font-size="18" letter-spacing="0em"><tspan x="567" y="587.152">Sign up</tspan></text>
<rect x="267.5" y="556.5" width="380" height="49" rx="16.5" stroke="#5384ED" shape-rendering="crispEdges"/>
</g>
<text fill="#102042" xml:space="preserve" style="white-space: pre" font-family="Roboto" font-size="60" font-weight="500" letter-spacing="0em"><tspan x="268" y="383.508">Recruiting Team&#10;</tspan></text>
<text fill="#5384ED" xml:space="preserve" style="white-space: pre" font-family="Roboto" font-size="60" font-weight="500" letter-spacing="0em"><tspan x="268" y="313.508">Simple Scheduling For </tspan></text>
<text fill="#898F9B" xml:space="preserve" style="white-space: pre" font-family="Roboto" font-size="24" letter-spacing="0em"><tspan x="268" y="445.203">Free online interview scheduling software </tspan><tspan x="268" y="473.203">with interview types, interview types &#38; </tspan><tspan x="268" y="501.203">Team management.&#10;</tspan></text>
</g>
<rect x="0.5" y="0.5" width="1511" height="981" rx="31.5" stroke="#CBD4E6"/>
<defs>
<filter id="filter0_d_548_7896" x="-4" y="0" width="1520" height="104" filterUnits="userSpaceOnUse" color-interpolation-filters="sRGB">
<feFlood flood-opacity="0" result="BackgroundImageFix"/>
<feColorMatrix in="SourceAlpha" type="matrix" values="0 0 0 0 0 0 0 0 0 0 0 0 0 0 0 0 0 0 127 0" result="hardAlpha"/>
<feOffset dy="4"/>
<feGaussianBlur stdDeviation="2"/>
<feComposite in2="hardAlpha" operator="out"/>
<feColorMatrix type="matrix" values="0 0 0 0 0.780392 0 0 0 0 0.780392 0 0 0 0 0.780392 0 0 0 0.25 0"/>
<feBlend mode="normal" in2="BackgroundImageFix" result="effect1_dropShadow_548_7896"/>
<feBlend mode="normal" in="SourceGraphic" in2="effect1_dropShadow_548_7896" result="shape"/>
</filter>
<filter id="filter1_d_548_7896" x="260" y="550" width="405" height="74" filterUnits="userSpaceOnUse" color-interpolation-filters="sRGB">
<feFlood flood-opacity="0" result="BackgroundImageFix"/>
<feColorMatrix in="SourceAlpha" type="matrix" values="0 0 0 0 0 0 0 0 0 0 0 0 0 0 0 0 0 0 127 0" result="hardAlpha"/>
<feOffset dx="5" dy="6"/>
<feGaussianBlur stdDeviation="6"/>
<feComposite in2="hardAlpha" operator="out"/>
<feColorMatrix type="matrix" values="0 0 0 0 0.603922 0 0 0 0 0.658824 0 0 0 0 0.780392 0 0 0 0.37 0"/>
<feBlend mode="normal" in2="BackgroundImageFix" result="effect1_dropShadow_548_7896"/>
<feBlend mode="normal" in="SourceGraphic" in2="effect1_dropShadow_548_7896" result="shape"/>
</filter>
<clipPath id="clip0_548_7896">
<rect width="1512" height="982" rx="32" fill="white"/>
</clipPath>
<clipPath id="clip1_548_7896">
<rect width="86" height="21" fill="white" transform="translate(877 37.5)"/>
</clipPath>
</defs>
</svg>
