<svg width="377" height="814" viewBox="0 0 377 814" fill="none" xmlns="http://www.w3.org/2000/svg">
<g clip-path="url(#clip0_549_7920)">
<rect x="1" y="1" width="375" height="812" rx="32" fill="white"/>
<path d="M106.51 697.225C106.51 697.225 89.7358 661.613 117.652 639.592C145.569 617.566 94.3701 595.208 112.844 567.856C131.317 540.505 194.128 562.673 192.544 512.003C190.961 461.332 243.743 447.609 261.161 462.915C278.579 478.222 280.975 552.829 330.976 544.822C380.976 536.81 427.952 642.532 387.837 697.082L106.51 697.225Z" fill="#2A94F4" fill-opacity="0.06"/>
<path d="M8.88925 648.917C-3.80649 659.497 3.51887 690.424 8.88925 697.161H178.8C185.36 681.926 189.38 633.048 159.968 628.816C130.557 624.584 140.078 589.247 130.345 551.795C120.612 514.342 100.087 516.67 85.91 516.67C59.8543 516.67 42.9561 554.546 45.4953 585.227C48.0344 615.908 64.3273 610.618 60.7301 628.816C57.133 647.013 27.3237 633.555 8.88925 648.917Z" fill="#2A94F4" fill-opacity="0.06"/>
<path d="M593.44 730.522C593.44 734.619 590.211 737.946 586.221 737.946L-399.781 737.946C-403.765 737.946 -407 734.625 -407 730.522C-407 726.425 -403.771 723.099 -399.781 723.099L586.227 723.099C590.211 723.104 593.44 726.425 593.44 730.522Z" fill="#F7F7F7"/>
<path d="M186.231 681.844L176.59 646.581H202.302V678.059H220.416V683.305H219.541L220.559 723.67H218.517V682.865H190.178L186.671 723.67H184.92L186.231 681.844Z" fill="#D3D3D3"/>
<path d="M239.709 670.256C238.903 669.722 238.159 669.104 237.818 668.924C237.676 668.85 237.228 668.755 237.103 668.718C236.728 668.612 236.132 668.506 235.87 668.232L234.763 667.1C234.235 666.545 233.548 666.36 232.951 666.852C232.304 667.38 232.497 668.136 233.139 668.67L233.9 669.474C234.411 669.902 234.666 670.504 234.95 671.091C235.53 672.281 236.83 673.174 237.949 673.803C238.653 674.194 239.715 673.919 241.106 673.475C241.788 673.258 242.782 672.73 241.93 672.434C241.214 672.185 239.062 672.725 238.108 670.88C238.062 670.79 237.96 670.547 238.057 670.462C238.346 670.208 238.982 670.779 239.408 670.959C240.005 671.213 240.482 671.128 240.635 670.922C240.788 670.711 240.283 670.637 239.709 670.256Z" fill="#FAB9AF"/>
<path d="M211.423 629.908C211.423 629.908 213.066 649.6 218.969 656.246C222.529 660.253 231.225 667.119 233.241 668.695C233.498 668.894 233.855 668.904 234.123 668.716C234.291 668.595 234.485 668.449 234.654 668.302C234.822 668.156 235.021 667.936 235.194 667.731C235.488 667.391 235.473 666.883 235.168 666.553C232.91 664.102 224.052 654.403 222.975 651.852C221.741 648.925 219.615 631.658 217.661 629.154C215.708 626.651 211.958 626.106 211.423 629.908Z" fill="#FFD109"/>
<path d="M218.846 662.57L213.811 626.764L200.219 624.882L193.15 662.309L218.846 662.57Z" fill="#FAB9AF"/>
<path d="M219.399 661.787L213.772 626.776L200.004 624.882L192.604 661.851C192.466 662.544 192.913 663.222 193.61 663.35C196.171 663.835 202.358 664.854 209.273 664.854C214.438 664.854 217.339 663.846 218.659 663.211C219.202 662.955 219.495 662.373 219.399 661.787Z" fill="#D3D3D3"/>
<path d="M204.145 626.85C204.145 629.352 203.691 631.827 202.841 634.176C201.173 638.772 198.672 647.468 200.16 655.128C202.298 666.156 205.052 670.616 201.485 673.186C197.917 675.757 191.078 671.467 190.883 670.039C190.687 668.611 192.213 651.044 193.943 643.433C195.674 635.821 200.53 624.882 200.53 624.882L202.588 625.104C203.469 625.205 204.145 625.956 204.145 626.85ZM209.828 626.056C209.828 626.056 212.193 631.182 211.369 638.55C210.546 645.913 208.63 668.346 215.317 671.732C217.433 672.805 222.272 668.055 222.272 666.294C222.272 664.533 220.657 658.635 219.127 653.271C217.597 647.908 213.913 626.622 213.913 626.622L209.828 626.056Z" fill="#FFD109"/>
<path d="M208.307 610.606C205.213 610.606 204.059 612.82 204 616.913C203.979 618.448 204.666 619.966 205.218 620.936C205.631 621.657 205.744 622.508 205.508 623.305L204.826 625.616C204.365 627.759 205.379 628.933 206.875 629.359C207.616 629.569 208.506 629.407 209.15 628.987C209.917 628.486 209.981 627.414 209.841 626.504L209.664 625.847C209.428 624.959 209.938 624.005 210.834 623.806C213.215 623.284 213.558 620.79 214.197 616.913C214.856 612.874 211.402 610.606 208.307 610.606Z" fill="#FAB9AF"/>
<path d="M214.847 608.797L213.078 609.335C212.426 609.532 211.736 609.538 211.084 609.346L207.552 608.322C205.414 608.322 201.881 609.527 202.325 612.608L202.72 614.782C202.875 615.651 203.607 616.301 204.489 616.376C204.569 616.674 204.847 616.888 205.157 616.888C205.542 616.888 205.852 616.579 205.852 616.2C205.852 615.219 206.541 614.383 207.503 614.164C208.679 613.903 209.941 613.839 211.255 614.191C213.708 614.846 216.295 613.333 216.541 610.806C216.557 610.646 216.562 610.486 216.562 610.321C216.568 609.303 215.723 608.557 214.847 608.797Z" fill="#0B4870"/>
<path d="M205.713 616.888C205.713 617.833 205.346 618.601 204.407 618.601C203.463 618.601 202.857 617.301 202.857 616.356C202.857 615.411 203.463 615.175 204.407 615.175C205.351 615.175 205.713 615.943 205.713 616.888Z" fill="#FAB9AF"/>
<path d="M205.142 620.885C205.142 620.885 207.432 624.001 210.281 623.575C210.281 623.575 209.691 623.854 209.547 624.311C209.547 624.311 206.842 624.111 205.142 620.885Z" fill="#E8948B"/>
<path d="M177.417 692.748L174.215 697.389C173.564 698.335 173.042 699.366 172.668 700.461L172.079 702.183C171.592 703.597 169.942 704.134 168.764 703.262C165.716 701.003 160.491 697.165 159.143 696.177C158.923 696.017 158.81 695.704 158.949 695.459C159.763 694.019 163.129 697.176 166.761 698.133C169.527 698.861 173.221 693.439 174.568 690.883C175.081 689.915 176.315 689.681 177.13 690.394C177.806 690.978 177.929 692.004 177.417 692.748Z" fill="#FAB9AF"/>
<path d="M221.438 668.595C220.791 668.266 211.07 656.841 204.909 655.865C198.753 654.884 198.105 658.803 190.327 667.942C182.549 677.081 170.88 695.364 170.88 695.364L174.445 697.974C174.445 697.974 190.975 677.733 196.157 672.838C201.344 667.942 203.45 666.797 205.067 671.369C206.688 675.941 210.575 683.775 218.353 679.203C226.136 674.636 221.438 668.595 221.438 668.595Z" fill="#0B4870"/>
<path d="M207.219 709.675L209.214 716.348C209.3 716.641 209.435 716.924 209.602 717.179L211.015 719.293C211.91 720.635 211.268 722.472 209.731 722.945C209.731 722.945 206.879 723.955 203.941 724.928C200.932 725.922 197.147 725.091 197.147 724.292C197.147 722.515 198.792 723.928 201.547 722.07C202.469 721.45 203.423 720.798 204.27 720.124C206.642 718.25 204.572 713.5 203.121 710.827C202.598 709.865 203.154 708.669 204.216 708.441L204.901 708.295C205.92 708.083 206.922 708.68 207.219 709.675Z" fill="#FAB9AF"/>
<path d="M201.833 665.432C201.833 665.432 192.144 664.778 194.406 675.582C196.668 686.385 203.449 713.88 203.449 713.88H209.585L207.969 675.252C207.969 675.257 203.124 665.432 201.833 665.432ZM209.05 716.689C209.05 716.689 206.625 717.944 205.197 717.965C205.197 717.965 205.638 720.141 202.247 721.551C198.857 722.965 197.119 722.082 197.119 724.136C197.119 726.184 201.455 727.067 204.347 726.184C207.239 725.306 210.992 722.668 211.863 722.082C212.724 721.497 209.05 716.689 209.05 716.689ZM173.174 699.231C173.174 699.231 170.508 697.901 169.563 696.646C169.563 696.646 167.973 698.454 164.545 696.369C161.118 694.284 160.745 692.172 158.976 693.507C157.208 694.843 159.276 699.258 161.916 701.247C164.556 703.236 169.28 704.848 170.351 705.236C171.421 705.625 173.174 699.231 173.174 699.231Z" fill="#0B4870"/>
<path d="M200.573 624.89C200.573 624.89 195.718 638.144 196.258 646.627C196.797 655.11 196.792 662.028 191.937 656.711C187.082 651.393 190.324 624.36 200.573 624.89Z" fill="#FFD109"/>
<path d="M219.343 639.782C218.612 640.718 217.784 641.575 217.533 641.98C217.426 642.15 217.278 642.687 217.226 642.836C217.068 643.284 216.894 644.007 216.531 644.3L215.028 645.561C214.292 646.157 214.011 646.977 214.583 647.743C215.202 648.574 216.163 648.398 216.884 647.664L217.947 646.801C218.525 646.211 219.302 645.95 220.053 645.652C221.592 645.045 222.809 643.528 223.683 642.214C224.23 641.389 223.954 640.074 223.499 638.339C223.274 637.488 222.681 636.237 222.247 637.254C221.884 638.105 222.41 640.772 220.013 641.783C219.895 641.831 219.583 641.937 219.486 641.815C219.19 641.442 219.951 640.713 220.212 640.207C220.575 639.5 220.498 638.909 220.253 638.712C219.997 638.499 219.864 639.116 219.343 639.782Z" fill="#FAB9AF"/>
<path d="M190.295 653.344C190.295 653.344 191.459 663.091 196.942 659.486C202.43 655.88 212.437 651.231 215.071 649.165C217.704 647.099 217.704 647.099 217.704 647.099L216.077 643.726L190.295 653.344Z" fill="#FFBE55"/>
<path d="M352.534 681.273L362.174 646.01H336.468V677.488H318.354V682.734H319.229L318.205 723.099H320.253V682.294H348.591L352.099 723.099H353.849L352.534 681.273Z" fill="#D3D3D3"/>
<path d="M328.483 639.729C331.953 639.729 334.765 636.15 334.765 631.735C334.765 627.319 331.953 623.74 328.483 623.74C325.014 623.74 322.202 627.319 322.202 631.735C322.202 636.15 325.014 639.729 328.483 639.729Z" fill="#0B4870"/>
<path d="M330.204 632.277C330.304 627.759 333.893 623.956 338.32 623.698C342.246 623.467 345.638 625.925 346.91 629.426C347.353 630.653 348.535 631.454 349.818 631.433C350.351 631.422 350.899 631.476 351.459 631.589C354.704 632.266 357.226 635.063 357.564 638.419C357.87 641.447 356.482 644.169 354.245 645.718C353.29 646.379 352.751 647.477 352.593 648.638C351.86 654.028 347.037 657.981 341.528 657.368C336.821 656.841 333.054 652.893 332.653 648.084C332.405 645.132 333.402 642.426 335.148 640.415C332.178 638.984 330.125 635.875 330.204 632.277ZM328.716 620.589C328.716 620.589 325.223 622.832 325.645 625.85C325.645 625.85 323.777 624.505 323.355 619.863C323.065 616.647 328.716 620.589 328.716 620.589Z" fill="#0B4870"/>
<path d="M326.199 639.335C326.115 641.889 325.946 644.46 325.583 647.046C325.203 649.621 324.671 652.228 323.686 654.751C323.196 656.01 322.59 657.242 321.831 658.401C321.078 659.561 320.145 660.631 319.049 661.501C317.959 662.377 316.731 663.064 315.445 663.515C314.155 663.966 312.827 664.192 311.515 664.281C311.136 664.307 310.809 664.019 310.783 663.647C310.761 663.3 310.999 663.001 311.325 662.933H311.33C313.707 662.435 315.867 661.349 317.4 659.713C318.949 658.087 319.898 655.962 320.477 653.717C321.057 651.462 321.315 649.081 321.415 646.668C321.473 645.461 321.489 644.245 321.478 643.022C321.473 641.8 321.452 640.573 321.41 639.346C321.362 638.029 322.395 636.922 323.717 636.875C325.04 636.828 326.152 637.856 326.199 639.172C326.199 639.225 326.199 639.277 326.199 639.33V639.335Z" fill="#FAB9AF"/>
<path d="M324.456 654.576C323.063 650.351 320.262 641.398 320.504 638.47C320.656 636.595 322.212 635.161 324.077 635.161H336.19C338.197 635.161 339.842 636.765 339.9 638.787C340 642.324 338.386 650.366 337.477 654.576H324.456V654.576Z" fill="#2A94F4"/>
<path d="M339.289 659.589C338.644 657.84 338.45 655.972 338.72 654.134C339.348 649.87 340.453 641.837 340.35 638.428C340.296 636.607 338.747 635.161 336.858 635.161H335.006C334.302 636.737 332.808 637.953 330.485 637.953C328.168 637.953 326.673 636.737 325.97 635.161H324.232C326.121 639.06 325.439 644.201 322.19 647.202C322.797 649.259 323.3 651.331 323.679 653.007C324.194 655.277 323.966 657.647 323.04 659.798C321.443 663.488 320.182 669.407 320.555 671.751C333.685 675.337 342.759 668.989 342.759 668.989L339.289 659.589Z" fill="#2A94F4"/>
<path d="M328.483 635.731L334.194 635.18L332.387 629.45L328.696 629.866L328.483 635.731Z" fill="#FAB9AF"/>
<path d="M328.613 629.878L331.969 629.45L332.481 631.27C331.731 632.142 330.763 634.018 329.541 634.018C329.154 634.018 328.801 633.906 328.483 633.697L328.613 629.878Z" fill="#FA968C"/>
<path d="M328.426 632.305C329.68 632.305 331.033 631.71 332.899 630.161C333.968 629.27 334.765 627.722 334.765 626.675V620.885H325.376C325.376 620.885 324.673 623.961 325.355 627.012C325.867 629.296 327.444 632.305 328.426 632.305Z" fill="#FAB9AF"/>
<path d="M333.052 625.739C333.052 626.842 333.641 627.737 334.372 627.737C335.103 627.737 335.907 626.29 335.907 625.187C335.907 624.084 335.103 623.74 334.372 623.74C333.647 623.74 333.052 624.636 333.052 625.739Z" fill="#FAB9AF"/>
<path d="M335.902 621.552C335.902 619.814 334.424 618.404 332.602 618.404H329.568C328.701 618.404 327.861 618.19 327.119 617.786C326.049 617.208 324.696 617.397 323.965 618.344C323.177 619.365 322.832 620.735 324.837 622.001C325.835 622.629 327.286 621.931 328.257 622.235C328.315 622.235 328.372 622.225 328.435 622.225H331.108C332.038 622.225 332.748 622.947 332.774 623.834C332.79 624.397 333.27 624.846 333.865 624.846H333.985L334.413 623.535L335.907 625.453V621.552H335.902Z" fill="#0B4870"/>
<path d="M309.4 661.51C309.4 661.51 312.562 661.864 312.772 662.829C312.977 663.794 312.935 664.476 311.485 664.819C310.036 665.162 307.882 664.965 306.611 664.602C305.34 664.238 303.486 662.763 303.392 662.475C303.061 661.44 305.288 662.334 306.391 662.718C307.488 663.102 308.775 663.425 308.812 662.864C308.854 662.303 306.69 661.723 306.517 661.066C306.343 660.409 309.4 661.51 309.4 661.51ZM318.812 662.854C318.812 662.854 321.953 662.359 322.431 663.233C322.903 664.107 323.056 664.774 321.764 665.486C320.466 666.198 318.339 666.582 317.016 666.567C315.692 666.552 313.481 665.622 313.313 665.375C312.698 664.465 315.099 664.738 316.265 664.814C317.431 664.89 318.759 664.864 318.638 664.314C318.518 663.763 316.27 663.778 315.918 663.192C315.561 662.607 318.812 662.854 318.812 662.854Z" fill="#FAB9AF"/>
<path d="M326.244 620.691C326.563 622.129 326.096 622.919 330.696 625.169C335.295 627.419 336.752 626.455 338.191 628.879C338.191 628.879 337.565 624.87 335.02 623.494C332.482 622.118 328.074 621.216 326.657 618.03C326.657 618.03 326.03 619.705 326.244 620.691Z" fill="#0B4870"/>
<path d="M339.364 637.808C340.032 638.682 340.564 639.484 341.112 640.349C341.65 641.202 342.166 642.067 342.647 642.957C343.596 644.742 344.447 646.6 345.105 648.571C345.746 650.543 346.201 652.644 346.185 654.885C346.169 656.002 346.018 657.156 345.663 658.285C345.324 659.413 344.734 660.499 343.972 661.415C343.215 662.336 342.297 663.092 341.331 663.671C340.361 664.256 339.348 664.681 338.331 665.007C337.313 665.333 336.29 665.534 335.272 665.705C334.255 665.84 333.242 665.943 332.235 665.969C328.212 666.119 324.303 665.622 320.472 664.908C320.102 664.841 319.862 664.489 319.929 664.122C319.992 663.785 320.295 663.558 320.629 663.573H320.639C322.56 663.666 324.47 663.739 326.375 663.703C328.274 663.677 330.163 663.578 332 663.32C333.837 663.061 335.627 662.657 337.235 662.01C338.832 661.353 340.209 660.411 341.024 659.2C341.853 658.005 342.161 656.53 342.088 654.936C342.005 653.337 341.54 651.661 340.914 650.026C340.293 648.38 339.479 646.76 338.565 645.192C338.111 644.406 337.637 643.624 337.136 642.864C336.885 642.481 336.629 642.108 336.368 641.736C336.118 641.373 335.836 640.975 335.601 640.67L335.58 640.638C334.792 639.603 335.001 638.129 336.045 637.347C337.089 636.566 338.576 636.773 339.364 637.808Z" fill="#FAB9AF"/>
<path d="M327.325 621.232C327.325 621.232 327.163 625.623 323.344 627.737C323.344 627.737 325.025 624.418 324.913 622.243C324.801 620.073 327.579 619.731 327.325 621.232Z" fill="#0B4870"/>
<path d="M310.781 708.954L309.378 715.175C308.952 717.076 309.217 719.075 310.137 720.794C310.651 721.755 310.194 722.949 309.165 723.313C305.839 724.497 299.396 726.751 299.11 726.507C297.645 725.266 301.516 723.219 304.379 721.069C306.307 719.62 307.045 712.864 307.216 707.681L310.287 708.455C310.527 708.528 310.714 708.715 310.781 708.954Z" fill="#FA968C"/>
<path d="M329.878 668.851L342.952 669.428C342.952 669.428 346.439 680.137 340.048 681.005C333.657 681.872 315.063 679.846 314.479 682.739C313.901 685.632 310.992 711.107 310.992 711.107H306.634C306.634 711.107 306.926 694.898 306.634 686.499C306.342 678.101 305.18 674.632 308.667 673.183C312.154 671.749 329.878 668.851 329.878 668.851Z" fill="#0B4870"/>
<path d="M314.674 693.832C314.674 693.832 315.419 700.166 315.624 701.232C315.793 702.113 316.406 702.81 316.981 703.496C317.166 703.718 317.303 704.151 317.419 704.52C317.514 704.816 317.435 705.127 317.261 705.381C314.125 709.804 308.087 710.289 308.061 709.883C308.008 709.155 309.185 708.036 310.52 707.682C311.866 707.323 312.885 706.22 313.297 704.89C313.624 703.834 313.677 702.71 313.45 701.628L312.363 696.767L314.674 693.832Z" fill="#FA968C"/>
<path d="M318.179 707.133C318.485 706.927 318.596 706.531 318.443 706.199C318.316 705.924 317.984 705.18 317.73 704.621C317.62 704.378 317.303 704.341 317.129 704.541C315.165 706.827 312.516 708.305 309.681 707.941C308.631 708.299 307.702 709.498 307.744 710.073C307.755 710.21 308.963 710.553 310.436 710.168C316.97 708.463 318.179 707.133 318.179 707.133Z" fill="#0B4870"/>
<path d="M322.202 670.157L313.524 672.173L315.548 698.976L312.366 699.55C312.366 699.55 304.555 680.818 304.845 672.173C305.136 663.528 312.075 666.124 316.129 667.271C320.177 668.43 322.202 670.157 322.202 670.157ZM305.147 722.795C303.746 723.253 302.213 723.4 300.808 723.574C300.649 723.595 300.491 723.658 300.364 723.753C299.016 724.795 298.334 725.843 299.127 726.506C299.444 726.775 307.144 724.058 310.146 722.984C310.775 722.758 311.05 722.037 310.733 721.447L310.162 720.378C308.593 721.378 306.917 722.21 305.147 722.795Z" fill="#0B4870"/>
<path d="M301.4 660.151H230.197V662.769H301.4V660.151Z" fill="#0B4870"/>
<path d="M235.137 662.769H233.686V723.511H235.137V662.769Z" fill="#76838B"/>
<path d="M297.62 662.769H296.168V723.511H297.62V662.769Z" fill="#76838B"/>
<path d="M385.096 723.558C385.096 724.598 384.251 725.437 383.217 725.437H375.959C374.919 725.437 374.08 724.593 374.08 723.558V706.631C374.08 705.591 374.925 704.752 375.959 704.752H383.217C384.256 704.752 385.096 705.596 385.096 706.631V723.558Z" fill="#FFBE55"/>
<path opacity="0.4" d="M380.456 685.265C380.456 685.265 374.518 697.336 383.269 699.395C392.02 701.453 392.274 692.343 391.376 688.59C390.479 684.837 404.366 674.745 392.912 665.82C381.459 656.895 372.533 680.657 380.456 685.265Z" fill="#2A94F4"/>
<path opacity="0.4" d="M369.398 691.815C369.398 691.815 369.118 699.759 374.333 698.751C379.548 697.743 377.479 692.771 376.086 690.965C374.692 689.16 379.738 680.361 371.404 678.319C363.075 676.281 364.014 691.256 369.398 691.815Z" fill="#2A94F4"/>
<path d="M370.285 684.331L376.735 704.752" stroke="#4D4D4D" stroke-miterlimit="10"/>
<path d="M374.048 688.485L372.681 691.915L369.572 690.2" stroke="#4D4D4D" stroke-miterlimit="10"/>
<path d="M143.354 723.558C143.354 724.598 142.51 725.437 141.475 725.437H134.218C133.178 725.437 132.339 724.593 132.339 723.558V706.631C132.339 705.591 133.183 704.752 134.218 704.752H141.475C142.515 704.752 143.354 705.596 143.354 706.631V723.558Z" fill="#FFBE55"/>
<path opacity="0.4" d="M138.715 685.265C138.715 685.265 132.777 697.336 141.528 699.395C150.28 701.453 150.533 692.343 149.636 688.59C148.738 684.837 162.625 674.745 151.172 665.82C139.718 656.895 130.793 680.657 138.715 685.265Z" fill="#2A94F4"/>
<path opacity="0.4" d="M127.657 691.815C127.657 691.815 127.378 699.759 132.593 698.751C137.807 697.742 135.738 692.77 134.345 690.965C132.951 689.16 137.997 680.361 129.663 678.319C121.329 676.276 122.274 691.256 127.657 691.815Z" fill="#2A94F4"/>
<path d="M128.544 684.331L134.994 704.752" stroke="#4D4D4D" stroke-miterlimit="10"/>
<path d="M132.307 688.485L130.94 691.915L127.831 690.2" stroke="#4D4D4D" stroke-miterlimit="10"/>
<path d="M145.709 672.777L140.177 704.752" stroke="#4D4D4D" stroke-miterlimit="10"/>
<path d="M148.955 677.611L144.373 680.504L141.433 676.535" stroke="#4D4D4D" stroke-miterlimit="10"/>
<path d="M147.704 684.315L143.117 687.213L140.177 683.243" stroke="#4D4D4D" stroke-miterlimit="10"/>
<path d="M253.748 576.916H207.357C206.135 576.916 205.142 577.91 205.142 579.134V595.438C205.142 596.662 206.135 597.655 207.357 597.655H210.549V604.896L219.411 597.655H253.748C254.97 597.655 255.963 596.662 255.963 595.438V579.134C255.958 577.905 254.97 576.916 253.748 576.916ZM208.494 586.631H236.12V587.566H208.494V586.631ZM250.534 590.906H208.494V589.971H250.534V590.906ZM250.534 584.36H208.494V583.425H250.534V584.36Z" fill="#FFBE55"/>
<path d="M145.538 577.487L89.7257 577.487C88.5032 577.487 87.5103 578.481 87.5103 579.705V596.009C87.5103 597.233 88.5032 598.227 89.7257 598.227H92.918V605.468L101.78 598.227L145.538 598.227C146.761 598.227 147.754 597.233 147.754 596.009V579.705C147.748 578.476 146.761 577.487 145.538 577.487ZM90.8628 587.202H118.489V588.138H90.8628V587.202ZM142.325 591.477L90.8628 591.477V590.542L142.325 590.542V591.477ZM142.325 584.931L90.8628 584.931V583.996L142.325 583.996V584.931Z" fill="#FFBE55"/>
<path d="M282.801 585.94V601.912C282.801 603.111 283.772 604.084 284.967 604.084H318.532L327.194 611.177V604.084H330.315C331.51 604.084 332.481 603.111 332.481 601.912V585.94C332.481 584.742 331.51 583.768 330.315 583.768H284.967C283.772 583.768 282.801 584.736 282.801 585.94ZM329.203 594.201H302.198V593.285H329.203V594.201ZM288.108 596.557H329.203V597.473H288.108V596.557ZM288.108 590.144H329.203V591.06H288.108V590.144Z" fill="#2A94F4"/>
<path opacity="0.4" d="M128.199 652.48C128.913 648.758 127.635 645.385 125.345 644.946C123.054 644.506 120.619 647.167 119.905 650.889C119.191 654.611 120.469 657.984 122.759 658.423C125.05 658.863 127.485 656.202 128.199 652.48Z" fill="#FFBE55"/>
<path opacity="0.4" d="M128.706 649.175C130.355 647.526 130.148 644.645 128.243 642.741C126.338 640.836 123.457 640.629 121.808 642.278C120.16 643.927 120.367 646.808 122.271 648.712C124.176 650.617 127.057 650.824 128.706 649.175Z" fill="#FFBE55"/>
<path d="M188.313 753.059H130.167C128.999 753.059 128.053 752.105 128.053 750.927C128.053 749.749 128.999 748.795 130.167 748.795H188.313C189.482 748.795 190.428 749.749 190.428 750.927C190.428 752.105 189.482 753.059 188.313 753.059ZM286.105 753.059H227.958C226.79 753.059 225.844 752.105 225.844 750.927C225.844 749.749 226.79 748.795 227.958 748.795H286.105C287.273 748.795 288.219 749.749 288.219 750.927C288.219 752.105 287.273 753.059 286.105 753.059ZM389.182 753.059H331.036C329.868 753.059 328.921 752.105 328.921 750.927C328.921 749.749 329.868 748.795 331.036 748.795H389.182C390.35 748.795 391.296 749.749 391.296 750.927C391.296 752.105 390.35 753.059 389.182 753.059ZM239.059 764.784H180.913C179.745 764.784 178.799 763.83 178.799 762.652C178.799 761.474 179.745 760.52 180.913 760.52H239.059C240.227 760.52 241.174 761.474 241.174 762.652C241.174 763.83 240.227 764.784 239.059 764.784ZM340.022 764.784H281.876C280.708 764.784 279.761 763.83 279.761 762.652C279.761 761.474 280.708 760.52 281.876 760.52H340.022C341.19 760.52 342.136 761.474 342.136 762.652C342.136 763.83 341.19 764.784 340.022 764.784Z" fill="#D3D3D3"/>
<path d="M103.05 702.213C108.076 693.011 92.2106 688.684 88.3862 692.334C84.5614 695.984 97.2411 712.848 103.05 702.213Z" fill="#2A94F4" fill-opacity="0.2"/>
<path d="M109.721 699.404C119.583 699.404 115.12 681.764 110.903 681.764C105.616 681.764 98.3259 699.404 109.721 699.404Z" fill="#2A94F4" fill-opacity="0.2"/>
<path d="M117.322 705.803C125.453 712.422 132.6 697.612 129.708 693.186C126.817 688.76 107.923 698.152 117.322 705.803Z" fill="#2A94F4" fill-opacity="0.2"/>
<path d="M106.953 710.182C105.581 707.007 103.572 704.048 100.983 701.389C96.5778 696.865 91.9447 694.743 91.8982 694.722C91.7602 694.66 91.5977 694.721 91.5355 694.859C91.4733 694.997 91.5347 695.159 91.6722 695.221C91.7175 695.242 96.2706 697.33 100.603 701.785C103.142 704.396 105.111 707.298 106.454 710.411C106.607 710.764 106.748 711.121 106.885 711.48H107.471C107.31 711.044 107.138 710.611 106.953 710.182Z" fill="#102042"/>
<path d="M110.658 685.381C110.675 685.231 110.568 685.095 110.418 685.077C110.267 685.059 110.131 685.166 110.113 685.316C110.095 685.466 108.713 697.288 108.783 711.48H109.331C109.261 697.325 110.64 685.531 110.658 685.381Z" fill="#102042"/>
<path d="M126.969 695.167C126.885 695.041 126.715 695.007 126.589 695.092C126.55 695.118 122.594 697.779 118.524 702.156C116.307 704.539 113.787 707.735 111.941 711.48H112.554C114.359 707.9 116.78 704.837 118.916 702.538C122.943 698.206 126.854 695.574 126.894 695.547C127.019 695.463 127.053 695.293 126.969 695.167Z" fill="#102042"/>
<path d="M109.332 711.48H108.784H107.471H106.885H99.2351C98.941 711.48 98.7323 711.768 98.8233 712.047L99.3062 713.529L99.5503 714.279L103.046 725.005C103.141 725.296 103.413 725.494 103.719 725.494H116.32C116.626 725.494 116.898 725.296 116.993 725.005L120.489 714.279L120.733 713.529L121.216 712.047C121.307 711.768 121.099 711.48 120.805 711.48H112.554H111.941H109.332Z" fill="#FFD109"/>
<path d="M120.734 713.528L120.49 714.278H99.5508L99.3066 713.528H120.734Z" fill="#FFBE55"/>
<path d="M74.0572 599.431C74.0572 594.885 70.0474 591.201 64.0348 591.201C59.0377 591.201 57.3204 593.959 57.3204 593.959C57.3204 593.959 52.5972 594.979 52.5972 600.849C52.5972 606.305 52.5972 615.691 52.5972 615.691H60.3581H60.7538H66.4855H72.7161V603.468C73.2083 602.863 74.0572 601.519 74.0572 599.431ZM64.7241 612.723C64.3039 612.723 63.8452 612.646 63.3665 612.511V615.691H56.4994V607.509C56.4524 607.378 56.4063 607.237 56.3615 607.089C53.317 606.799 53.4431 601.767 55.2523 601.767C55.2768 601.767 55.3009 601.77 55.3246 601.773V601.772C62.9294 604.204 68.0436 600.22 69.7169 597.453C69.7169 599.384 71.8545 601.267 72.6149 601.439C72.5024 608.341 67.5646 612.723 64.7241 612.723Z" fill="#311643"/>
<path d="M63.367 612.949V612.511C63.8456 612.646 64.3043 612.723 64.7246 612.723C67.565 612.723 72.5028 608.342 72.615 601.439C71.8545 601.267 69.7169 599.384 69.7169 597.453C68.0436 600.221 62.9294 604.204 55.3246 601.773V601.773C55.3009 601.77 55.2773 601.768 55.2523 601.768C53.4431 601.768 53.317 606.799 56.3615 607.09C56.4063 607.237 56.4524 607.377 56.4994 607.509V613.013L51.1211 615.548V622.186H68.9937V615.485L63.367 612.949Z" fill="#FCBEB7"/>
<path d="M68.9942 622.186V615.485L63.367 612.948V612.51C61.7758 612.061 59.9671 610.974 58.6387 609.959L68.9942 622.186Z" fill="#F9AFAB"/>
<path d="M59.6992 607.266C60.7338 607.266 61.5726 606.428 61.5726 605.393C61.5726 604.358 60.7338 603.52 59.6992 603.52C58.6645 603.52 57.8257 604.358 57.8257 605.393C57.8257 606.428 58.6645 607.266 59.6992 607.266Z" fill="#F49795"/>
<path d="M72.3741 603.837C72.1367 605.096 71.7385 606.243 71.2357 607.263C70.245 607.214 69.457 606.395 69.457 605.393C69.457 604.358 70.2958 603.519 71.3301 603.519C71.7164 603.519 72.0757 603.637 72.3741 603.837Z" fill="#F49795"/>
<path d="M69.205 599.695C67.8373 599.695 66.7078 600.735 66.5656 602.066C65.822 601.716 65.1657 601.906 64.8191 602.065C64.676 600.735 63.5474 599.695 62.1801 599.695C60.7163 599.695 59.5254 600.886 59.5254 602.35C59.5254 603.814 60.7163 605.005 62.1801 605.005C63.6113 605.005 64.7806 603.866 64.8322 602.447C65.0527 602.32 65.7531 601.997 66.5525 602.45C66.6054 603.868 67.7747 605.005 69.2046 605.005C70.6684 605.005 71.8593 603.814 71.8593 602.35C71.8597 600.886 70.6689 599.695 69.205 599.695ZM62.1801 604.657C60.908 604.657 59.8728 603.622 59.8728 602.35C59.8728 601.077 60.908 600.042 62.1801 600.042C63.4526 600.042 64.4877 601.077 64.4877 602.35C64.4877 603.622 63.4526 604.657 62.1801 604.657ZM69.205 604.657C67.9329 604.657 66.8978 603.622 66.8978 602.35C66.8978 601.077 67.9329 600.042 69.205 600.042C70.4776 600.042 71.5127 601.077 71.5127 602.35C71.5127 603.622 70.4776 604.657 69.205 604.657Z" fill="white"/>
<path d="M69.2064 604.252C68.9973 604.252 68.8276 604.083 68.8276 603.873V603.166C68.8276 602.957 68.9973 602.787 69.2064 602.787C69.4154 602.787 69.5851 602.957 69.5851 603.166V603.873C69.5851 604.083 69.4159 604.252 69.2064 604.252Z" fill="#311643"/>
<path d="M62.2953 604.252C62.0862 604.252 61.9165 604.083 61.9165 603.873V603.166C61.9165 602.957 62.0862 602.787 62.2953 602.787C62.5043 602.787 62.674 602.957 62.674 603.166V603.873C62.6744 604.083 62.5047 604.252 62.2953 604.252Z" fill="#311643"/>
<path d="M65.0004 608.548C64.3241 608.548 63.8637 608.293 63.5848 608.062C63.2331 607.77 63.0871 607.451 63.0808 607.438C63.0414 607.35 63.0804 607.248 63.168 607.208C63.2551 607.168 63.358 607.207 63.3973 607.294C63.4172 607.337 63.8975 608.344 65.2928 608.183C65.3884 608.172 65.4743 608.24 65.4853 608.336C65.4964 608.431 65.4282 608.517 65.3326 608.528C65.2162 608.541 65.1053 608.548 65.0004 608.548Z" fill="#311643"/>
<path d="M76.3579 718.753L77.0684 721.707L84.8179 724.14L83.7032 718.753H76.3579Z" fill="#FCBEB7"/>
<path d="M50.2491 718.753L50.4603 722.401L49.9778 722.579L49.6592 724.141L57.401 721.707L57.5944 718.753H50.2491Z" fill="#FCBEB7"/>
<path d="M90.7936 725.286L84.494 722.579L84.8169 724.14L77.0679 721.706V723.927C77.0679 724.708 77.4762 725.416 78.1182 725.813L78.7848 727.719C78.8423 727.883 78.9976 727.994 79.1724 727.994C79.3992 727.994 79.5829 727.81 79.5829 727.583V726.344L84.8791 727.994H90.2367C91.0158 727.994 91.6472 727.362 91.6472 726.583C91.6472 726.019 91.3116 725.509 90.7936 725.286Z" fill="#0B4870"/>
<path d="M57.4077 723.906L57.4014 721.685L49.6595 724.141L49.9778 722.579L43.6862 725.306C43.1691 725.53 42.8347 726.041 42.8364 726.604C42.8385 727.383 43.4721 728.013 44.2512 728.011L49.6088 727.995L55.0853 726.271L55.0891 727.569C55.0899 727.796 55.274 727.979 55.5008 727.978C55.6752 727.978 55.8305 727.867 55.8876 727.702L56.6104 725.616C57.1064 725.201 57.4099 724.581 57.4077 723.906Z" fill="#0B4870"/>
<path d="M51.4212 644.475L48.5629 656.578C47.7377 660.074 47.4123 663.668 47.5972 667.255L50.2498 718.753H57.5951L60.7313 665.307L76.3581 718.753H83.7034L70.7703 644.474H51.4212V644.475Z" fill="#0B4870"/>
<path d="M61.1402 618.912C62.4444 618.912 63.4876 617.656 64.1909 616.384H56.7529C57.8875 617.653 59.441 618.912 61.1402 618.912Z" fill="white"/>
<path d="M73.9588 619.925C73.0362 618.08 71.5038 616.611 69.6215 615.766L65.2076 613.787C65.2076 613.994 64.847 615.196 64.1902 616.384C63.4869 617.656 62.4437 618.912 61.1395 618.912C59.4403 618.912 57.8868 617.652 56.7522 616.384C55.6012 615.096 54.8822 613.8 54.8822 613.8L49.7611 616.172C47.6651 617.143 46.1217 619.012 45.5643 621.254L42.5711 633.29C42.0832 635.253 42.6452 637.328 44.0569 638.776C46.4137 637.95 50.8386 636.227 50.8386 636.227L51.42 644.475H70.7692L75.5762 623.159L73.9588 619.925Z" fill="#2A94F4"/>
<path d="M61.3308 620.722C60.255 620.722 59.1607 620.394 58.0773 619.749C57.2174 619.236 56.3625 618.523 55.5365 617.628C54.1344 616.111 53.2804 614.561 53.272 614.546L53.5593 614.413C53.5678 614.428 54.3955 615.93 55.773 617.419C56.5779 618.29 57.4087 618.983 58.2419 619.479C59.2745 620.094 60.3139 620.405 61.3308 620.405C62.2906 620.405 63.1552 620.085 63.9004 619.453C64.5035 618.942 65.0324 618.227 65.4721 617.326C66.228 615.78 66.4345 614.353 66.4366 614.337L66.7341 614.471C66.7248 614.537 66.5352 615.867 65.7591 617.458C65.3003 618.4 64.7447 619.151 64.1078 619.692C63.3033 620.375 62.3689 620.722 61.3308 620.722Z" fill="white"/>
<path d="M72.8611 685.571C74.8028 685.571 76.377 683.996 76.377 682.055C76.377 680.113 74.8028 678.539 72.8611 678.539C70.9193 678.539 69.3452 680.113 69.3452 682.055C69.3452 683.996 70.9193 685.571 72.8611 685.571Z" fill="#083959"/>
<path d="M54.4407 685.571C56.3824 685.571 57.9565 683.996 57.9565 682.055C57.9565 680.113 56.3824 678.539 54.4407 678.539C52.4989 678.539 50.9248 680.113 50.9248 682.055C50.9248 683.996 52.4989 685.571 54.4407 685.571Z" fill="#083959"/>
<path d="M49.7922 617.735C49.7922 618.975 48.7871 619.981 47.5463 619.981C47.0482 619.981 46.5882 619.819 46.2158 619.545C46.9158 618.213 47.9996 617.109 49.3402 616.384C49.6242 616.76 49.7922 617.228 49.7922 617.735Z" fill="#197BD3"/>
<path d="M62.932 647.261L77.8216 646.699C78.6041 646.669 79.2807 646.145 79.5059 645.395L86.0158 623.695C86.1542 623.234 85.7979 622.773 85.3171 622.792L70.2596 623.36C69.5778 623.386 68.9879 623.842 68.792 624.496L62.2338 646.358C62.0954 646.819 62.4513 647.279 62.932 647.261Z" fill="#FFD109"/>
<path d="M78.978 635.863L81.5832 638.469L82.0275 636.988L78.978 635.863Z" fill="#2F3D6C"/>
<path d="M82.5953 631.828L78.8416 632.075C78.5644 632.093 78.3498 632.325 78.3524 632.603L77.9791 632.626C77.7366 632.641 77.5394 632.828 77.5111 633.069L77.4649 633.459H77.4632C77.1856 633.463 76.963 633.691 76.9668 633.969C76.9694 634.173 77.0946 634.354 77.2842 634.43L78.1247 634.764C78.123 635.192 78.3714 635.582 78.7599 635.761L81.3723 636.969C81.7519 637.145 82.1734 637.209 82.5877 637.155C83.5195 637.034 84.2737 636.339 84.47 635.42L84.6325 634.66C84.8073 633.841 84.5538 632.99 83.9592 632.401C83.5957 632.041 83.1069 631.835 82.5953 631.828Z" fill="#FCBEB7"/>
<path d="M63.9369 617.35L66.4984 623.611C66.6432 623.964 66.8543 624.284 67.1146 624.544L67.5704 624.998C67.6762 625.103 67.8239 625.043 67.8256 624.893L67.8323 624.25C67.8361 623.882 67.7625 623.506 67.6182 623.153L65.0566 616.891C64.9009 616.51 64.5238 616.304 64.2145 616.43C63.9051 616.557 63.7811 616.969 63.9369 617.35Z" fill="#6277D7"/>
<path d="M67.3051 621.08L65.8988 619.143C65.7177 618.893 65.4371 618.734 65.1299 618.706L62.7714 618.493C62.4502 618.463 62.1312 618.567 61.8878 618.778L60.6593 619.846C60.482 620 60.3313 620.182 60.2133 620.386L58.7059 622.777L44.4143 634.324C43.0042 635.463 42.8798 637.568 44.1451 638.866C45.4037 640.157 47.4968 640.094 48.6758 638.73L60.7448 624.771L63.2831 623.21L65.1565 623.274C65.592 623.289 65.9754 622.991 66.0681 622.565L66.1709 622.443C66.3483 622.233 66.4202 621.953 66.3656 621.684L66.2585 621.155L66.8641 621.546C66.9526 621.603 67.063 621.614 67.1608 621.576C67.3588 621.498 67.4304 621.253 67.3051 621.08Z" fill="#FCBEB7"/>
<path d="M50.8394 636.228L56.1276 630.111L51.0404 639.079L50.8394 636.228Z" fill="#197BD3"/>
<path d="M62.9316 647.261L71.6739 649.668L71.2004 646.948L62.9316 647.261Z" fill="#2F3D6C"/>
<path d="M73.1779 618.645C72.9016 618.76 72.5982 618.824 72.2799 618.824C70.99 618.824 69.9443 617.778 69.9443 616.488C69.9443 616.303 69.9659 616.123 70.0065 615.951C71.2655 616.589 72.3506 617.514 73.1779 618.645Z" fill="#197BD3"/>
<path d="M46.4144 639.324C47.6141 639.324 48.5867 638.352 48.5867 637.152C48.5867 635.952 47.6141 634.98 46.4144 634.98C45.2147 634.98 44.2422 635.952 44.2422 637.152C44.2422 638.352 45.2147 639.324 46.4144 639.324Z" fill="#F9AFAB"/>
<rect width="56.5317" height="11.9916" transform="translate(90.6504 581.178)" fill="#FFBE55"/>
<text fill="white" xml:space="preserve" style="white-space: pre" font-family="Roboto" font-size="6" font-weight="600" letter-spacing="0em"><tspan x="90.6504" y="586.729">Invite our teams...</tspan></text>
<rect width="45.6822" height="11.9916" transform="translate(207.997 580.913)" fill="#FFBE55"/>
<text fill="white" xml:space="preserve" style="white-space: pre" font-family="Roboto" font-size="4" font-weight="600" letter-spacing="0em"><tspan x="207.997" y="584.78">Sign up APPOINTA for </tspan><tspan x="207.997" y="589.78">job interviews...</tspan></text>
<rect width="45.6822" height="11.9916" transform="translate(286.228 587.766)" fill="#2A94F4"/>
<text fill="white" xml:space="preserve" style="white-space: pre" font-family="Roboto" font-size="4" font-weight="600" letter-spacing="0em"><tspan x="286.228" y="591.633">And sync with our </tspan><tspan x="286.228" y="596.633">calendar</tspan></text>
<g filter="url(#filter0_d_549_7920)">
<rect x="33" y="373" width="311" height="49" rx="16" fill="white" shape-rendering="crispEdges"/>
<text fill="#CBD4E6" xml:space="preserve" style="white-space: pre" font-family="Roboto" font-size="16" font-weight="500" letter-spacing="0em"><tspan x="65" y="402.969">Enter your email</tspan></text>
<rect x="33.5" y="373.5" width="310" height="48" rx="15.5" stroke="#5384ED" shape-rendering="crispEdges"/>
</g>
<g filter="url(#filter1_d_549_7920)">
<rect x="33" y="434" width="311" height="48" rx="16" fill="#5384ED"/>
<text fill="#FAFAFA" xml:space="preserve" style="white-space: pre" font-family="Roboto" font-size="18" font-weight="500" letter-spacing="0em"><tspan x="126" y="464.152">Sign up for free</tspan></text>
</g>
<path d="M46.1477 160.314C46.1477 159.875 46.0746 159.484 45.9283 159.143C45.7925 158.801 45.547 158.488 45.1918 158.205C44.8366 157.922 44.3351 157.648 43.6874 157.385C43.0501 157.111 42.2352 156.833 41.2428 156.55C40.1563 156.237 39.1533 155.891 38.234 155.51C37.3251 155.119 36.5311 154.67 35.8521 154.162C35.173 153.645 34.6454 153.054 34.2693 152.39C33.8932 151.716 33.7052 150.939 33.7052 150.061C33.7052 149.191 33.8985 148.4 34.285 147.688C34.682 146.975 35.2409 146.359 35.9618 145.842C36.6931 145.314 37.5549 144.909 38.5474 144.626C39.5399 144.333 40.6368 144.187 41.8383 144.187C43.5307 144.187 44.9881 144.479 46.2104 145.065C47.4431 145.651 48.3886 146.438 49.0468 147.424C49.7154 148.41 50.0497 149.499 50.0497 150.69H46.1477C46.1477 149.987 45.9858 149.367 45.6619 148.83C45.3485 148.283 44.8679 147.854 44.2202 147.541C43.5829 147.229 42.7733 147.072 41.7912 147.072C40.8615 147.072 40.0884 147.204 39.472 147.468C38.8556 147.731 38.3959 148.088 38.093 148.537C37.79 148.986 37.6385 149.494 37.6385 150.061C37.6385 150.461 37.7378 150.827 37.9363 151.159C38.1348 151.481 38.4377 151.784 38.8452 152.067C39.2526 152.341 39.7645 152.6 40.3809 152.844C40.9973 153.088 41.7233 153.322 42.5591 153.547C43.8232 153.898 44.9254 154.289 45.8656 154.719C46.8059 155.139 47.5894 155.617 48.2162 156.154C48.843 156.691 49.3132 157.302 49.6266 157.985C49.94 158.659 50.0967 159.426 50.0967 160.285C50.0967 161.184 49.9034 161.994 49.5169 162.717C49.1303 163.43 48.5766 164.04 47.8558 164.548C47.1454 165.046 46.2887 165.432 45.2858 165.705C44.2933 165.969 43.1859 166.101 41.9636 166.101C40.8667 166.101 39.7854 165.964 38.7198 165.69C37.6646 165.417 36.7035 165.002 35.8364 164.445C34.9693 163.879 34.2798 163.176 33.7679 162.336C33.256 161.486 33 160.495 33 159.362H36.9333C36.9333 160.056 37.0587 160.646 37.3094 161.135C37.5706 161.623 37.931 162.023 38.3907 162.336C38.8504 162.639 39.3832 162.863 39.9891 163.01C40.6055 163.156 41.2637 163.229 41.9636 163.229C42.883 163.229 43.6508 163.107 44.2672 162.863C44.894 162.619 45.3642 162.277 45.6776 161.838C45.991 161.398 46.1477 160.891 46.1477 160.314Z" fill="#102042"/>
<path d="M57.2425 149.958V165.808H53.4502V149.958H57.2425ZM53.1995 145.798C53.1995 145.261 53.3875 144.816 53.7636 144.465C54.1502 144.104 54.683 143.923 55.362 143.923C56.0307 143.923 56.5582 144.104 56.9448 144.465C57.3313 144.816 57.5246 145.261 57.5246 145.798C57.5246 146.325 57.3313 146.765 56.9448 147.116C56.5582 147.468 56.0307 147.644 55.362 147.644C54.683 147.644 54.1502 147.468 53.7636 147.116C53.3875 146.765 53.1995 146.325 53.1995 145.798Z" fill="#102042"/>
<path d="M65.1562 153.181V165.808H61.3796V149.958H64.9368L65.1562 153.181ZM64.545 157.297L63.2601 157.282C63.2601 156.188 63.4063 155.178 63.6988 154.25C63.9914 153.322 64.4197 152.517 64.9838 151.833C65.548 151.14 66.2479 150.607 67.0837 150.236C67.9299 149.855 68.9067 149.665 70.0141 149.665C70.7872 149.665 71.4924 149.772 72.1296 149.987C72.7774 150.192 73.3363 150.52 73.8064 150.969C74.287 151.418 74.6526 151.994 74.9034 152.697C75.1645 153.4 75.2951 154.25 75.2951 155.246V165.808H71.5185V155.554C71.5185 154.782 71.3931 154.177 71.1424 153.737C70.9021 153.298 70.5521 152.985 70.0925 152.8C69.6432 152.604 69.1052 152.507 68.4784 152.507C67.768 152.507 67.162 152.634 66.6606 152.888C66.1696 153.142 65.7674 153.488 65.4539 153.928C65.1405 154.367 64.9107 154.875 64.7644 155.451C64.6182 156.027 64.545 156.643 64.545 157.297ZM75.0601 156.359L73.2893 156.726C73.2893 155.769 73.4303 154.865 73.7124 154.016C74.0049 153.156 74.428 152.404 74.9817 151.76C75.5459 151.105 76.2406 150.593 77.0659 150.222C77.8912 149.851 78.8367 149.665 79.9023 149.665C80.7694 149.665 81.5425 149.777 82.2216 150.002C82.9111 150.217 83.4961 150.559 83.9767 151.027C84.4572 151.496 84.8229 152.106 85.0736 152.858C85.3243 153.601 85.4497 154.499 85.4497 155.554V165.808H81.6574V155.539C81.6574 154.738 81.532 154.118 81.2813 153.679C81.041 153.239 80.6963 152.937 80.2471 152.771C79.7978 152.595 79.2598 152.507 78.633 152.507C78.0479 152.507 77.5308 152.609 77.0816 152.814C76.6428 153.01 76.2719 153.288 75.969 153.649C75.666 154.001 75.4362 154.406 75.2795 154.865C75.1332 155.324 75.0601 155.822 75.0601 156.359Z" fill="#102042"/>
<path d="M93.1283 153.005V171.901H89.3517V149.958H92.8306L93.1283 153.005ZM104.176 157.736V158.044C104.176 159.196 104.03 160.266 103.737 161.252C103.455 162.229 103.032 163.083 102.468 163.815C101.914 164.538 101.23 165.1 100.415 165.5C99.6003 165.9 98.6601 166.101 97.5945 166.101C96.5393 166.101 95.6148 165.92 94.8208 165.559C94.0372 165.188 93.3738 164.665 92.8306 163.991C92.2873 163.317 91.8486 162.526 91.5143 161.618C91.1904 160.7 90.9606 159.694 90.8248 158.601V157.414C90.9606 156.252 91.1904 155.197 91.5143 154.25C91.8486 153.303 92.2873 152.487 92.8306 151.804C93.3738 151.12 94.0372 150.593 94.8208 150.222C95.6043 149.851 96.5184 149.665 97.5631 149.665C98.6287 149.665 99.5742 149.86 100.4 150.251C101.225 150.632 101.92 151.179 102.484 151.892C103.048 152.595 103.471 153.444 103.753 154.44C104.035 155.427 104.176 156.525 104.176 157.736ZM100.4 158.044V157.736C100.4 157.004 100.326 156.325 100.18 155.7C100.034 155.065 99.804 154.509 99.4906 154.03C99.1772 153.552 98.775 153.181 98.284 152.917C97.8034 152.644 97.2236 152.507 96.5445 152.507C95.8759 152.507 95.3013 152.614 94.8208 152.829C94.3402 153.034 93.938 153.322 93.6141 153.693C93.2903 154.064 93.0395 154.499 92.8619 154.997C92.6843 155.485 92.559 156.018 92.4858 156.594V159.436C92.6112 160.139 92.8254 160.783 93.1283 161.369C93.4313 161.955 93.8596 162.424 94.4133 162.775C94.9775 163.117 95.6983 163.288 96.5759 163.288C97.2549 163.288 97.8348 163.151 98.3153 162.878C98.7959 162.604 99.1877 162.229 99.4906 161.75C99.804 161.262 100.034 160.7 100.18 160.065C100.326 159.431 100.4 158.757 100.4 158.044Z" fill="#102042"/>
<path d="M111.432 143.308V165.808H107.639V143.308H111.432Z" fill="#102042"/>
<path d="M123.044 166.101C121.79 166.101 120.656 165.91 119.643 165.529C118.64 165.139 117.784 164.597 117.073 163.903C116.373 163.21 115.835 162.395 115.459 161.457C115.083 160.52 114.895 159.509 114.895 158.425V157.839C114.895 156.599 115.088 155.476 115.475 154.47C115.861 153.464 116.399 152.604 117.089 151.892C117.778 151.169 118.593 150.617 119.533 150.236C120.474 149.855 121.492 149.665 122.589 149.665C123.801 149.665 124.861 149.855 125.77 150.236C126.679 150.617 127.431 151.154 128.027 151.848C128.633 152.531 129.082 153.347 129.375 154.294C129.678 155.241 129.829 156.286 129.829 157.429V158.938H116.728V156.403H126.099V156.125C126.079 155.49 125.943 154.895 125.692 154.338C125.452 153.781 125.081 153.332 124.579 152.99C124.078 152.648 123.409 152.478 122.574 152.478C121.947 152.478 121.388 152.604 120.897 152.858C120.416 153.103 120.014 153.459 119.69 153.928C119.366 154.396 119.116 154.963 118.938 155.627C118.771 156.281 118.687 157.019 118.687 157.839V158.425C118.687 159.118 118.786 159.763 118.985 160.358C119.194 160.944 119.497 161.457 119.894 161.896C120.291 162.336 120.771 162.683 121.336 162.937C121.9 163.181 122.542 163.303 123.263 163.303C124.172 163.303 124.982 163.132 125.692 162.79C126.402 162.448 127.019 161.965 127.541 161.34L129.531 163.142C129.166 163.64 128.69 164.118 128.105 164.577C127.52 165.026 126.805 165.393 125.958 165.676C125.123 165.959 124.151 166.101 123.044 166.101Z" fill="#102042"/>
<path d="M150.279 161.516C150.279 161.164 150.185 160.847 149.997 160.563C149.809 160.271 149.449 160.007 148.916 159.772C148.394 159.538 147.62 159.323 146.597 159.128C145.698 158.942 144.873 158.723 144.121 158.469C143.379 158.205 142.742 157.888 142.209 157.517C141.676 157.146 141.263 156.706 140.971 156.198C140.678 155.69 140.532 155.104 140.532 154.44C140.532 153.796 140.684 153.186 140.987 152.609C141.29 152.033 141.723 151.525 142.287 151.086C142.851 150.646 143.536 150.3 144.34 150.046C145.155 149.792 146.064 149.665 147.067 149.665C148.488 149.665 149.705 149.89 150.718 150.339C151.742 150.778 152.525 151.379 153.069 152.141C153.612 152.893 153.884 153.742 153.884 154.689H150.107C150.107 154.27 149.992 153.879 149.762 153.518C149.543 153.146 149.208 152.849 148.759 152.624C148.31 152.39 147.746 152.272 147.067 152.272C146.419 152.272 145.881 152.37 145.453 152.565C145.035 152.751 144.721 152.995 144.512 153.298C144.314 153.601 144.215 153.933 144.215 154.294C144.215 154.558 144.267 154.797 144.371 155.012C144.486 155.217 144.674 155.407 144.936 155.583C145.197 155.749 145.552 155.905 146.001 156.052C146.461 156.198 147.035 156.34 147.725 156.477C149.02 156.73 150.133 157.058 151.063 157.458C152.003 157.849 152.724 158.356 153.225 158.981C153.727 159.597 153.978 160.378 153.978 161.325C153.978 162.028 153.816 162.673 153.492 163.259C153.178 163.835 152.719 164.338 152.113 164.768C151.507 165.188 150.781 165.515 149.935 165.749C149.099 165.983 148.158 166.101 147.114 166.101C145.578 166.101 144.277 165.847 143.212 165.339C142.146 164.821 141.337 164.162 140.783 163.361C140.24 162.551 139.968 161.711 139.968 160.842H143.619C143.661 161.496 143.854 162.019 144.199 162.409C144.554 162.79 144.993 163.068 145.515 163.244C146.048 163.41 146.597 163.493 147.161 163.493C147.84 163.493 148.409 163.41 148.869 163.244C149.329 163.068 149.679 162.834 149.919 162.541C150.159 162.238 150.279 161.896 150.279 161.516Z" fill="#102042"/>
<path d="M164.21 163.288C164.827 163.288 165.381 163.176 165.872 162.951C166.373 162.717 166.775 162.395 167.078 161.984C167.392 161.574 167.564 161.101 167.595 160.563H171.153C171.132 161.589 170.808 162.521 170.181 163.361C169.554 164.201 168.724 164.87 167.689 165.368C166.655 165.856 165.511 166.101 164.257 166.101C162.962 166.101 161.834 165.896 160.873 165.485C159.911 165.065 159.112 164.489 158.475 163.757C157.838 163.024 157.357 162.18 157.033 161.223C156.72 160.266 156.563 159.24 156.563 158.146V157.634C156.563 156.54 156.72 155.515 157.033 154.558C157.357 153.591 157.838 152.741 158.475 152.009C159.112 151.276 159.911 150.705 160.873 150.295C161.834 149.875 162.957 149.665 164.242 149.665C165.6 149.665 166.791 149.919 167.815 150.427C168.839 150.925 169.643 151.623 170.228 152.521C170.823 153.41 171.132 154.445 171.153 155.627H167.595C167.564 155.041 167.407 154.514 167.125 154.045C166.854 153.566 166.467 153.186 165.966 152.902C165.475 152.619 164.884 152.478 164.195 152.478C163.432 152.478 162.8 152.624 162.299 152.917C161.797 153.2 161.405 153.591 161.123 154.089C160.841 154.577 160.638 155.129 160.512 155.744C160.397 156.35 160.34 156.979 160.34 157.634V158.146C160.34 158.801 160.397 159.436 160.512 160.051C160.627 160.666 160.826 161.218 161.108 161.706C161.4 162.185 161.797 162.57 162.299 162.863C162.8 163.146 163.437 163.288 164.21 163.288Z" fill="#102042"/>
<path d="M177.781 143.308V165.808H174.02V143.308H177.781ZM177.123 157.297L175.901 157.282C175.911 156.188 176.073 155.178 176.387 154.25C176.71 153.322 177.16 152.517 177.734 151.833C178.319 151.14 179.019 150.607 179.834 150.236C180.649 149.855 181.553 149.665 182.545 149.665C183.381 149.665 184.133 149.772 184.802 149.987C185.481 150.202 186.066 150.549 186.557 151.027C187.048 151.496 187.419 152.111 187.669 152.873C187.931 153.625 188.061 154.543 188.061 155.627V165.808H184.269V155.598C184.269 154.836 184.149 154.23 183.909 153.781C183.679 153.332 183.339 153.01 182.89 152.814C182.441 152.609 181.892 152.507 181.244 152.507C180.565 152.507 179.965 152.634 179.442 152.888C178.93 153.142 178.502 153.488 178.157 153.928C177.813 154.367 177.551 154.875 177.374 155.451C177.207 156.027 177.123 156.643 177.123 157.297Z" fill="#102042"/>
<path d="M199.36 166.101C198.106 166.101 196.973 165.91 195.959 165.529C194.956 165.139 194.1 164.597 193.389 163.903C192.689 163.21 192.151 162.395 191.775 161.457C191.399 160.52 191.211 159.509 191.211 158.425V157.839C191.211 156.599 191.404 155.476 191.791 154.47C192.177 153.464 192.715 152.604 193.405 151.892C194.094 151.169 194.909 150.617 195.85 150.236C196.79 149.855 197.808 149.665 198.905 149.665C200.117 149.665 201.178 149.855 202.086 150.236C202.995 150.617 203.748 151.154 204.343 151.848C204.949 152.531 205.398 153.347 205.691 154.294C205.994 155.241 206.145 156.286 206.145 157.429V158.938H193.044V156.403H202.416V156.125C202.395 155.49 202.259 154.895 202.008 154.338C201.768 153.781 201.397 153.332 200.896 152.99C200.394 152.648 199.725 152.478 198.89 152.478C198.263 152.478 197.704 152.604 197.213 152.858C196.732 153.103 196.33 153.459 196.006 153.928C195.682 154.396 195.432 154.963 195.254 155.627C195.087 156.281 195.003 157.019 195.003 157.839V158.425C195.003 159.118 195.103 159.763 195.301 160.358C195.51 160.944 195.813 161.457 196.21 161.896C196.607 162.336 197.088 162.683 197.652 162.937C198.216 163.181 198.858 163.303 199.579 163.303C200.488 163.303 201.298 163.132 202.008 162.79C202.719 162.448 203.335 161.965 203.857 161.34L205.847 163.142C205.482 163.64 205.006 164.118 204.421 164.577C203.836 165.026 203.121 165.393 202.275 165.676C201.439 165.959 200.467 166.101 199.36 166.101Z" fill="#102042"/>
<path d="M219.434 162.526V143.308H223.226V165.808H219.794L219.434 162.526ZM208.402 158.059V157.751C208.402 156.55 208.553 155.456 208.856 154.47C209.159 153.474 209.598 152.619 210.173 151.906C210.747 151.184 211.447 150.632 212.272 150.251C213.098 149.86 214.028 149.665 215.062 149.665C216.086 149.665 216.984 149.851 217.757 150.222C218.53 150.593 219.188 151.125 219.732 151.818C220.275 152.502 220.708 153.322 221.032 154.279C221.356 155.227 221.586 156.281 221.722 157.443V158.425C221.586 159.558 221.356 160.593 221.032 161.53C220.708 162.468 220.275 163.278 219.732 163.962C219.188 164.646 218.525 165.173 217.741 165.544C216.968 165.915 216.065 166.101 215.03 166.101C214.007 166.101 213.082 165.9 212.257 165.5C211.442 165.1 210.747 164.538 210.173 163.815C209.598 163.093 209.159 162.243 208.856 161.267C208.553 160.28 208.402 159.211 208.402 158.059ZM212.178 157.751V158.059C212.178 158.781 212.246 159.455 212.382 160.08C212.528 160.705 212.753 161.257 213.056 161.735C213.359 162.204 213.751 162.575 214.231 162.849C214.722 163.112 215.307 163.244 215.986 163.244C216.843 163.244 217.548 163.068 218.102 162.717C218.656 162.365 219.089 161.892 219.403 161.296C219.726 160.69 219.946 160.017 220.061 159.274V156.623C219.998 156.047 219.867 155.51 219.669 155.012C219.481 154.514 219.225 154.079 218.901 153.708C218.577 153.327 218.175 153.034 217.694 152.829C217.224 152.614 216.665 152.507 216.018 152.507C215.328 152.507 214.743 152.644 214.263 152.917C213.782 153.19 213.385 153.566 213.072 154.045C212.769 154.523 212.544 155.08 212.398 155.715C212.252 156.35 212.178 157.028 212.178 157.751Z" fill="#102042"/>
<path d="M237.377 162.072V149.958H241.169V165.808H237.596L237.377 162.072ZM237.91 158.776L239.179 158.747C239.179 159.812 239.054 160.793 238.803 161.691C238.552 162.58 238.166 163.356 237.643 164.021C237.121 164.675 236.452 165.188 235.637 165.559C234.822 165.92 233.846 166.101 232.707 166.101C231.882 166.101 231.124 165.988 230.435 165.764C229.745 165.539 229.15 165.192 228.648 164.724C228.157 164.255 227.776 163.645 227.504 162.893C227.233 162.141 227.097 161.242 227.097 160.197V149.958H230.873V160.227C230.873 160.803 230.947 161.286 231.093 161.677C231.239 162.058 231.438 162.365 231.688 162.6C231.939 162.834 232.232 163 232.566 163.098C232.9 163.195 233.255 163.244 233.632 163.244C234.708 163.244 235.554 163.049 236.17 162.658C236.797 162.258 237.241 161.721 237.502 161.047C237.774 160.373 237.91 159.616 237.91 158.776Z" fill="#102042"/>
<path d="M249.083 143.308V165.808H245.29V143.308H249.083Z" fill="#102042"/>
<path d="M257.263 149.958V165.808H253.471V149.958H257.263ZM253.22 145.798C253.22 145.261 253.408 144.816 253.784 144.465C254.171 144.104 254.703 143.923 255.382 143.923C256.051 143.923 256.579 144.104 256.965 144.465C257.352 144.816 257.545 145.261 257.545 145.798C257.545 146.325 257.352 146.765 256.965 147.116C256.579 147.468 256.051 147.644 255.382 147.644C254.703 147.644 254.171 147.468 253.784 147.116C253.408 146.765 253.22 146.325 253.22 145.798Z" fill="#102042"/>
<path d="M265.145 153.342V165.808H261.369V149.958H264.926L265.145 153.342ZM264.471 157.297L263.249 157.282C263.26 156.159 263.427 155.129 263.751 154.191C264.085 153.254 264.545 152.448 265.13 151.774C265.725 151.101 266.435 150.583 267.261 150.222C268.086 149.851 269.005 149.665 270.019 149.665C270.834 149.665 271.57 149.772 272.228 149.987C272.897 150.192 273.466 150.529 273.936 150.998C274.417 151.467 274.783 152.077 275.033 152.829C275.284 153.571 275.41 154.484 275.41 155.568V165.808H271.617V155.554C271.617 154.792 271.497 154.191 271.257 153.752C271.027 153.303 270.687 152.985 270.238 152.8C269.799 152.604 269.251 152.507 268.593 152.507C267.945 152.507 267.365 152.634 266.853 152.888C266.341 153.142 265.908 153.488 265.553 153.928C265.208 154.367 264.942 154.875 264.753 155.451C264.565 156.027 264.471 156.643 264.471 157.297Z" fill="#102042"/>
<path d="M290.124 149.958H293.556V165.368C293.556 166.794 293.232 168.005 292.585 169.001C291.937 169.997 291.033 170.754 289.874 171.271C288.714 171.799 287.371 172.062 285.846 172.062C285.198 172.062 284.478 171.975 283.684 171.799C282.9 171.623 282.137 171.34 281.396 170.949C280.664 170.568 280.053 170.065 279.562 169.44L281.333 167.36C281.939 168.034 282.608 168.527 283.339 168.84C284.07 169.152 284.838 169.309 285.642 169.309C286.51 169.309 287.246 169.157 287.852 168.854C288.468 168.562 288.944 168.127 289.278 167.551C289.612 166.975 289.78 166.271 289.78 165.441V153.547L290.124 149.958ZM278.606 158.059V157.751C278.606 156.55 278.763 155.456 279.076 154.47C279.39 153.474 279.839 152.619 280.424 151.906C281.009 151.184 281.72 150.632 282.555 150.251C283.391 149.86 284.337 149.665 285.392 149.665C286.489 149.665 287.424 149.851 288.197 150.222C288.98 150.593 289.633 151.125 290.156 151.818C290.678 152.502 291.085 153.322 291.378 154.279C291.681 155.227 291.905 156.281 292.052 157.443V158.425C291.916 159.558 291.686 160.593 291.362 161.53C291.038 162.468 290.61 163.278 290.077 163.962C289.544 164.646 288.886 165.173 288.103 165.544C287.33 165.915 286.416 166.101 285.36 166.101C284.326 166.101 283.391 165.9 282.555 165.5C281.73 165.1 281.02 164.538 280.424 163.815C279.839 163.093 279.39 162.243 279.076 161.267C278.763 160.28 278.606 159.211 278.606 158.059ZM282.383 157.751V158.059C282.383 158.781 282.456 159.455 282.602 160.08C282.759 160.705 282.994 161.257 283.308 161.735C283.631 162.204 284.039 162.575 284.53 162.849C285.031 163.112 285.622 163.244 286.301 163.244C287.189 163.244 287.915 163.068 288.479 162.717C289.053 162.365 289.492 161.892 289.795 161.296C290.109 160.69 290.328 160.017 290.453 159.274V156.623C290.391 156.047 290.26 155.51 290.062 155.012C289.874 154.514 289.618 154.079 289.294 153.708C288.97 153.327 288.562 153.034 288.071 152.829C287.58 152.614 287.001 152.507 286.332 152.507C285.653 152.507 285.063 152.644 284.561 152.917C284.06 153.19 283.647 153.566 283.323 154.045C283.01 154.523 282.775 155.08 282.618 155.715C282.461 156.35 282.383 157.028 282.383 157.751Z" fill="#102042"/>
<path d="M310.574 165.808H306.798V148.435C306.798 147.253 307.033 146.262 307.503 145.461C307.984 144.65 308.668 144.04 309.556 143.63C310.444 143.21 311.494 143 312.706 143C313.082 143 313.453 143.024 313.818 143.073C314.184 143.112 314.539 143.176 314.884 143.264L314.79 145.988C314.581 145.939 314.351 145.905 314.1 145.886C313.86 145.866 313.599 145.856 313.317 145.856C312.742 145.856 312.246 145.959 311.828 146.164C311.421 146.359 311.107 146.647 310.888 147.028C310.679 147.409 310.574 147.878 310.574 148.435V165.808ZM314.069 149.958V152.536H304.197V149.958H314.069Z" fill="#102042"/>
<path d="M316.091 158.059V157.722C316.091 156.579 316.268 155.52 316.623 154.543C316.979 153.557 317.49 152.702 318.159 151.979C318.838 151.247 319.663 150.681 320.635 150.28C321.617 149.87 322.724 149.665 323.957 149.665C325.2 149.665 326.308 149.87 327.279 150.28C328.261 150.681 329.092 151.247 329.771 151.979C330.45 152.702 330.967 153.557 331.322 154.543C331.678 155.52 331.855 156.579 331.855 157.722V158.059C331.855 159.201 331.678 160.261 331.322 161.237C330.967 162.214 330.45 163.068 329.771 163.801C329.092 164.523 328.267 165.09 327.295 165.5C326.324 165.9 325.221 166.101 323.989 166.101C322.745 166.101 321.633 165.9 320.651 165.5C319.679 165.09 318.854 164.523 318.175 163.801C317.496 163.068 316.979 162.214 316.623 161.237C316.268 160.261 316.091 159.201 316.091 158.059ZM319.867 157.722V158.059C319.867 158.771 319.946 159.445 320.102 160.08C320.259 160.715 320.504 161.271 320.839 161.75C321.173 162.229 321.601 162.604 322.124 162.878C322.646 163.151 323.268 163.288 323.989 163.288C324.689 163.288 325.294 163.151 325.806 162.878C326.329 162.604 326.757 162.229 327.091 161.75C327.426 161.271 327.671 160.715 327.828 160.08C327.995 159.445 328.079 158.771 328.079 158.059V157.722C328.079 157.019 327.995 156.354 327.828 155.729C327.671 155.095 327.42 154.533 327.076 154.045C326.741 153.557 326.313 153.176 325.791 152.902C325.279 152.619 324.668 152.478 323.957 152.478C323.247 152.478 322.63 152.619 322.108 152.902C321.596 153.176 321.173 153.557 320.839 154.045C320.504 154.533 320.259 155.095 320.102 155.729C319.946 156.354 319.867 157.019 319.867 157.722Z" fill="#102042"/>
<path d="M338.813 152.976V165.808H335.036V149.958H338.641L338.813 152.976ZM344 149.855L343.969 153.137C343.739 153.098 343.488 153.068 343.216 153.049C342.955 153.029 342.694 153.02 342.433 153.02C341.785 153.02 341.216 153.107 340.725 153.283C340.234 153.449 339.821 153.693 339.487 154.016C339.163 154.328 338.912 154.709 338.735 155.158C338.557 155.607 338.453 156.11 338.421 156.667L337.559 156.726C337.559 155.729 337.664 154.807 337.873 153.957C338.082 153.107 338.395 152.36 338.813 151.716C339.241 151.071 339.774 150.568 340.411 150.207C341.059 149.846 341.806 149.665 342.652 149.665C342.882 149.665 343.128 149.685 343.389 149.724C343.66 149.763 343.864 149.807 344 149.855Z" fill="#102042"/>
<path d="M38.6091 187.845V205.808H34.3111V187.845H38.6091ZM34.027 183.13C34.027 182.521 34.2401 182.018 34.6663 181.619C35.1044 181.21 35.7082 181.005 36.4778 181.005C37.2356 181.005 37.8335 181.21 38.2716 181.619C38.7097 182.018 38.9287 182.521 38.9287 183.13C38.9287 183.728 38.7097 184.226 38.2716 184.624C37.8335 185.022 37.2356 185.222 36.4778 185.222C35.7082 185.222 35.1044 185.022 34.6663 184.624C34.2401 184.226 34.027 183.728 34.027 183.13Z" fill="#102042"/>
<path d="M47.5424 191.68V205.808H43.2622V187.845H47.2937L47.5424 191.68ZM46.7787 196.162L45.3934 196.146C45.4052 194.873 45.5947 193.705 45.9617 192.643C46.3406 191.58 46.8616 190.667 47.5246 189.903C48.1995 189.14 49.0046 188.553 49.94 188.144C50.8754 187.723 51.9173 187.513 53.0658 187.513C53.9893 187.513 54.824 187.634 55.5699 187.878C56.3277 188.11 56.973 188.492 57.5058 189.023C58.0504 189.555 58.4648 190.246 58.749 191.099C59.0332 191.94 59.1752 192.975 59.1752 194.203V205.808H54.8773V194.187C54.8773 193.323 54.7411 192.643 54.4688 192.145C54.2083 191.635 53.8235 191.276 53.3144 191.065C52.8171 190.844 52.1955 190.733 51.4496 190.733C50.7155 190.733 50.0584 190.877 49.4782 191.165C48.8981 191.453 48.4067 191.846 48.0041 192.344C47.6134 192.842 47.3115 193.417 47.0984 194.07C46.8853 194.723 46.7787 195.421 46.7787 196.162Z" fill="#102042"/>
<path d="M72.3532 187.845V190.767H61.5196V187.845H72.3532ZM64.6453 183.445H68.9255V200.844C68.9255 201.397 69.0084 201.823 69.1742 202.122C69.3518 202.41 69.5945 202.604 69.9023 202.703C70.2102 202.803 70.5713 202.853 70.9857 202.853C71.2817 202.853 71.5659 202.836 71.8382 202.803C72.1105 202.77 72.3295 202.736 72.4953 202.703L72.5131 205.758C72.1579 205.857 71.7435 205.946 71.2699 206.023C70.8081 206.101 70.2753 206.14 69.6714 206.14C68.6887 206.14 67.8185 205.979 67.0607 205.658C66.3029 205.326 65.7109 204.789 65.2847 204.048C64.8585 203.306 64.6453 202.321 64.6453 201.093V183.445Z" fill="#102042"/>
<path d="M84.1282 206.14C82.7073 206.14 81.4227 205.924 80.2742 205.492C79.1376 205.049 78.1667 204.435 77.3616 203.649C76.5683 202.864 75.9585 201.939 75.5323 200.877C75.106 199.814 74.8929 198.669 74.8929 197.44V196.776C74.8929 195.371 75.112 194.098 75.55 192.958C75.9881 191.818 76.5979 190.844 77.3793 190.036C78.1608 189.217 79.0843 188.592 80.1499 188.16C81.2155 187.729 82.3699 187.513 83.6131 187.513C84.9866 187.513 86.1883 187.729 87.2184 188.16C88.2485 188.592 89.101 189.201 89.7759 189.986C90.4626 190.761 90.9717 191.685 91.3032 192.759C91.6466 193.832 91.8183 195.017 91.8183 196.312V198.021H76.9708V195.149H87.5914V194.834C87.5677 194.115 87.4138 193.439 87.1296 192.809C86.8573 192.178 86.437 191.669 85.8686 191.281C85.3003 190.894 84.5426 190.7 83.5954 190.7C82.8849 190.7 82.2515 190.844 81.695 191.132C81.1504 191.409 80.6945 191.812 80.3275 192.344C79.9605 192.875 79.6763 193.517 79.475 194.27C79.2856 195.011 79.1909 195.847 79.1909 196.776V197.44C79.1909 198.226 79.3033 198.957 79.5283 199.632C79.7651 200.296 80.1085 200.877 80.5584 201.375C81.0083 201.873 81.5529 202.266 82.1923 202.554C82.8317 202.83 83.5598 202.969 84.3768 202.969C85.4069 202.969 86.3245 202.775 87.1296 202.388C87.9347 202 88.6333 201.452 89.2253 200.744L91.4808 202.786C91.0664 203.351 90.5277 203.893 89.8647 204.413C89.2016 204.922 88.3906 205.337 87.4315 205.658C86.4843 205.979 85.3832 206.14 84.1282 206.14Z" fill="#102042"/>
<path d="M99.4551 191.265V205.808H95.1749V187.845H99.2597L99.4551 191.265ZM105.334 187.729L105.298 191.447C105.038 191.403 104.754 191.37 104.446 191.348C104.15 191.326 103.854 191.314 103.558 191.314C102.824 191.314 102.178 191.414 101.622 191.613C101.065 191.801 100.598 192.078 100.219 192.443C99.8518 192.798 99.5676 193.229 99.3663 193.738C99.165 194.247 99.0466 194.817 99.0111 195.448L98.0343 195.515C98.0343 194.386 98.1527 193.34 98.3895 192.377C98.6263 191.414 98.9815 190.567 99.4551 189.837C99.9406 189.106 100.544 188.536 101.267 188.127C102.001 187.717 102.847 187.513 103.806 187.513C104.067 187.513 104.345 187.535 104.641 187.579C104.949 187.623 105.18 187.673 105.334 187.729Z" fill="#102042"/>
<path d="M114.587 202.637L119.293 187.845H123.733L117.055 205.808H114.285L114.587 202.637ZM110.981 187.845L115.777 202.703L116.008 205.808H113.237L106.524 187.845H110.981Z" fill="#102042"/>
<path d="M130.962 187.845V205.808H126.664V187.845H130.962ZM126.379 183.13C126.379 182.521 126.593 182.018 127.019 181.619C127.457 181.21 128.061 181.005 128.83 181.005C129.588 181.005 130.186 181.21 130.624 181.619C131.062 182.018 131.281 182.521 131.281 183.13C131.281 183.728 131.062 184.226 130.624 184.624C130.186 185.022 129.588 185.222 128.83 185.222C128.061 185.222 127.457 185.022 127.019 184.624C126.593 184.226 126.379 183.728 126.379 183.13Z" fill="#102042"/>
<path d="M144.122 206.14C142.701 206.14 141.416 205.924 140.268 205.492C139.131 205.049 138.16 204.435 137.355 203.649C136.562 202.864 135.952 201.939 135.526 200.877C135.1 199.814 134.886 198.669 134.886 197.44V196.776C134.886 195.371 135.106 194.098 135.544 192.958C135.982 191.818 136.591 190.844 137.373 190.036C138.154 189.217 139.078 188.592 140.143 188.16C141.209 187.729 142.363 187.513 143.607 187.513C144.98 187.513 146.182 187.729 147.212 188.16C148.242 188.592 149.095 189.201 149.769 189.986C150.456 190.761 150.965 191.685 151.297 192.759C151.64 193.832 151.812 195.017 151.812 196.312V198.021H136.964V195.149H147.585V194.834C147.561 194.115 147.407 193.439 147.123 192.809C146.851 192.178 146.431 191.669 145.862 191.281C145.294 190.894 144.536 190.7 143.589 190.7C142.879 190.7 142.245 190.844 141.689 191.132C141.144 191.409 140.688 191.812 140.321 192.344C139.954 192.875 139.67 193.517 139.469 194.27C139.279 195.011 139.184 195.847 139.184 196.776V197.44C139.184 198.226 139.297 198.957 139.522 199.632C139.759 200.296 140.102 200.877 140.552 201.375C141.002 201.873 141.547 202.266 142.186 202.554C142.825 202.83 143.553 202.969 144.37 202.969C145.4 202.969 146.318 202.775 147.123 202.388C147.928 202 148.627 201.452 149.219 200.744L151.474 202.786C151.06 203.351 150.521 203.893 149.858 204.413C149.195 204.922 148.384 205.337 147.425 205.658C146.478 205.979 145.377 206.14 144.122 206.14Z" fill="#102042"/>
<path d="M160.372 201.823L164.812 187.845H167.547L166.801 192.028L162.326 205.808H159.875L160.372 201.823ZM157.761 187.845L161.225 201.89L161.509 205.808H158.774L153.57 187.845H157.761ZM171.703 201.724L175.06 187.845H179.233L174.047 205.808H171.312L171.703 201.724ZM168.009 187.845L172.396 201.657L172.946 205.808H170.495L165.967 192.012L165.221 187.845H168.009Z" fill="#102042"/>
<path d="M200.013 187.845V190.767H189.179V187.845H200.013ZM192.305 183.445H196.585V200.844C196.585 201.397 196.668 201.823 196.834 202.122C197.011 202.41 197.254 202.604 197.562 202.703C197.87 202.803 198.231 202.853 198.645 202.853C198.941 202.853 199.225 202.836 199.498 202.803C199.77 202.77 199.989 202.736 200.155 202.703L200.173 205.758C199.817 205.857 199.403 205.946 198.929 206.023C198.468 206.101 197.935 206.14 197.331 206.14C196.348 206.14 195.478 205.979 194.72 205.658C193.962 205.326 193.37 204.789 192.944 204.048C192.518 203.306 192.305 202.321 192.305 201.093V183.445Z" fill="#102042"/>
<path d="M211.788 206.14C210.367 206.14 209.082 205.924 207.934 205.492C206.797 205.049 205.826 204.435 205.021 203.649C204.228 202.864 203.618 201.939 203.192 200.877C202.766 199.814 202.552 198.669 202.552 197.44V196.776C202.552 195.371 202.771 194.098 203.21 192.958C203.648 191.818 204.257 190.844 205.039 190.036C205.82 189.217 206.744 188.592 207.809 188.16C208.875 187.729 210.029 187.513 211.273 187.513C212.646 187.513 213.848 187.729 214.878 188.16C215.908 188.592 216.76 189.201 217.435 189.986C218.122 190.761 218.631 191.685 218.963 192.759C219.306 193.832 219.478 195.017 219.478 196.312V198.021H204.63V195.149H215.251V194.834C215.227 194.115 215.073 193.439 214.789 192.809C214.517 192.178 214.096 191.669 213.528 191.281C212.96 190.894 212.202 190.7 211.255 190.7C210.544 190.7 209.911 190.844 209.355 191.132C208.81 191.409 208.354 191.812 207.987 192.344C207.62 192.875 207.336 193.517 207.135 194.27C206.945 195.011 206.85 195.847 206.85 196.776V197.44C206.85 198.226 206.963 198.957 207.188 199.632C207.425 200.296 207.768 200.877 208.218 201.375C208.668 201.873 209.212 202.266 209.852 202.554C210.491 202.83 211.219 202.969 212.036 202.969C213.066 202.969 213.984 202.775 214.789 202.388C215.594 202 216.293 201.452 216.885 200.744L219.14 202.786C218.726 203.351 218.187 203.893 217.524 204.413C216.861 204.922 216.05 205.337 215.091 205.658C214.144 205.979 213.043 206.14 211.788 206.14Z" fill="#102042"/>
<path d="M233.65 202.205V193.639C233.65 192.997 233.526 192.443 233.277 191.979C233.029 191.514 232.65 191.154 232.141 190.899C231.643 190.645 231.016 190.518 230.258 190.518C229.56 190.518 228.956 190.628 228.447 190.85C227.937 191.071 227.541 191.37 227.257 191.746C226.973 192.122 226.83 192.549 226.83 193.024H222.568C222.568 192.316 222.752 191.63 223.119 190.966C223.486 190.302 224.018 189.71 224.717 189.189C225.416 188.669 226.25 188.26 227.221 187.961C228.192 187.662 229.281 187.513 230.489 187.513C231.934 187.513 233.212 187.74 234.325 188.193C235.45 188.647 236.332 189.333 236.971 190.252C237.623 191.16 237.948 192.299 237.948 193.672V201.657C237.948 202.476 238.007 203.212 238.126 203.865C238.256 204.507 238.44 205.066 238.676 205.542V205.808H234.29C234.088 205.376 233.929 204.828 233.81 204.164C233.704 203.489 233.65 202.836 233.65 202.205ZM234.272 194.884L234.307 197.357H231.235C230.442 197.357 229.743 197.429 229.139 197.573C228.535 197.706 228.032 197.905 227.63 198.171C227.227 198.437 226.925 198.757 226.724 199.134C226.523 199.51 226.422 199.936 226.422 200.412C226.422 200.888 226.54 201.325 226.777 201.724C227.014 202.111 227.357 202.415 227.807 202.637C228.269 202.858 228.826 202.969 229.477 202.969C230.353 202.969 231.117 202.803 231.768 202.471C232.431 202.128 232.952 201.713 233.331 201.226C233.71 200.728 233.911 200.257 233.934 199.814L235.32 201.591C235.178 202.045 234.935 202.532 234.592 203.052C234.248 203.572 233.798 204.07 233.242 204.546C232.697 205.011 232.04 205.393 231.27 205.691C230.513 205.99 229.637 206.14 228.642 206.14C227.387 206.14 226.268 205.907 225.285 205.442C224.303 204.966 223.533 204.33 222.977 203.533C222.42 202.725 222.142 201.812 222.142 200.794C222.142 199.842 222.331 199.001 222.71 198.271C223.101 197.529 223.669 196.909 224.415 196.411C225.173 195.913 226.096 195.537 227.186 195.282C228.275 195.017 229.518 194.884 230.915 194.884H234.272Z" fill="#102042"/>
<path d="M246.704 191.497V205.808H242.424V187.845H246.455L246.704 191.497ZM246.011 196.162L244.555 196.146C244.555 194.906 244.721 193.76 245.052 192.709C245.384 191.658 245.869 190.744 246.509 189.97C247.148 189.184 247.941 188.581 248.888 188.16C249.848 187.729 250.955 187.513 252.21 187.513C253.086 187.513 253.885 187.634 254.607 187.878C255.341 188.11 255.975 188.481 256.508 188.99C257.052 189.499 257.467 190.152 257.751 190.949C258.047 191.746 258.195 192.709 258.195 193.838V205.808H253.915V194.187C253.915 193.312 253.773 192.626 253.488 192.128C253.216 191.63 252.819 191.276 252.298 191.065C251.789 190.844 251.18 190.733 250.469 190.733C249.664 190.733 248.977 190.877 248.409 191.165C247.852 191.453 247.397 191.846 247.041 192.344C246.686 192.842 246.426 193.417 246.26 194.07C246.094 194.723 246.011 195.421 246.011 196.162ZM257.928 195.1L255.921 195.515C255.921 194.43 256.081 193.406 256.401 192.443C256.733 191.469 257.212 190.617 257.84 189.887C258.479 189.145 259.266 188.564 260.202 188.144C261.137 187.723 262.209 187.513 263.416 187.513C264.399 187.513 265.275 187.64 266.045 187.895C266.826 188.138 267.489 188.525 268.034 189.057C268.578 189.588 268.993 190.28 269.277 191.132C269.561 191.973 269.703 192.991 269.703 194.187V205.808H265.405V194.17C265.405 193.262 265.263 192.56 264.979 192.062C264.707 191.563 264.316 191.22 263.807 191.032C263.298 190.833 262.688 190.733 261.978 190.733C261.315 190.733 260.729 190.85 260.219 191.082C259.722 191.303 259.302 191.619 258.958 192.028C258.615 192.427 258.355 192.886 258.177 193.406C258.011 193.926 257.928 194.491 257.928 195.1Z" fill="#102042"/>
<text fill="#898F9B" xml:space="preserve" style="white-space: pre" font-family="Roboto" font-size="18" font-weight="500" letter-spacing="0em"><tspan x="33" y="267.652">Free online interview scheduling </tspan><tspan x="33" y="288.652">software with interview types, </tspan><tspan x="33" y="309.652">interview types &#38; Team management.</tspan></text>
<rect x="1" y="1" width="375" height="38" fill="white"/>
<g filter="url(#filter2_d_549_7920)">
<rect width="375" height="64" transform="translate(1 39)" fill="white"/>
<path d="M39 65H19" stroke="#5384ED" stroke-width="2" stroke-linecap="round" stroke-linejoin="round"/>
<path d="M35 71H19" stroke="#5384ED" stroke-width="2" stroke-linecap="round" stroke-linejoin="round"/>
<path d="M31 77H19" stroke="#5384ED" stroke-width="2" stroke-linecap="round" stroke-linejoin="round"/>
<path d="M57.0781 72.6875V69.3242C57.0781 68.8633 56.9883 68.4297 56.8086 68.0234C56.6367 67.6094 56.3984 67.25 56.0938 66.9453C55.7891 66.6406 55.4297 66.4023 55.0156 66.2305C54.6094 66.0508 54.1758 65.9609 53.7148 65.9609C53.2539 65.9609 52.8164 66.0508 52.4023 66.2305C51.9961 66.4023 51.6406 66.6406 51.3359 66.9453C51.0312 67.25 50.7891 67.6094 50.6094 68.0234C50.4375 68.4297 50.3516 68.8633 50.3516 69.3242V72.6875H57.0781ZM60.4414 79.4023H57.0781V76.0391H50.3516V79.4023H47V69.3242C47 68.3945 47.1758 67.5234 47.5273 66.7109C47.8789 65.8906 48.3555 65.1758 48.957 64.5664C49.5664 63.957 50.2773 63.4766 51.0898 63.125C51.9102 62.7734 52.7852 62.5977 53.7148 62.5977C54.6445 62.5977 55.5156 62.7734 56.3281 63.125C57.1484 63.4766 57.8633 63.957 58.4727 64.5664C59.082 65.1758 59.5625 65.8906 59.9141 66.7109C60.2656 67.5234 60.4414 68.3945 60.4414 69.3242V79.4023Z" fill="#5384ED"/>
<path d="M66.7227 65.9609V72.6875H70.0859C70.5469 72.6875 70.9805 72.6016 71.3867 72.4297C71.793 72.25 72.1484 72.0078 72.4531 71.7031C72.7578 71.3984 72.9961 71.043 73.168 70.6367C73.3477 70.2227 73.4375 69.7852 73.4375 69.3242C73.4375 68.8633 73.3477 68.4297 73.168 68.0234C72.9961 67.6094 72.7578 67.25 72.4531 66.9453C72.1484 66.6406 71.793 66.4023 71.3867 66.2305C70.9805 66.0508 70.5469 65.9609 70.0859 65.9609H66.7227ZM66.7227 79.4023H63.3594V62.5977H70.0859C70.7031 62.5977 71.2969 62.6797 71.8672 62.8438C72.4375 63 72.9688 63.2266 73.4609 63.5234C73.9609 63.8125 74.4141 64.1641 74.8203 64.5781C75.2344 64.9844 75.5859 65.4375 75.875 65.9375C76.1719 66.4375 76.3984 66.9727 76.5547 67.543C76.7188 68.1133 76.8008 68.707 76.8008 69.3242C76.8008 70.2461 76.625 71.1172 76.2734 71.9375C75.9219 72.75 75.4414 73.4609 74.832 74.0703C74.2227 74.6797 73.5078 75.1602 72.6875 75.5117C71.875 75.8633 71.0078 76.0391 70.0859 76.0391H66.7227V79.4023Z" fill="#5384ED"/>
<path d="M82.1445 65.9609V72.6875H85.5078C85.9688 72.6875 86.4023 72.6016 86.8086 72.4297C87.2148 72.25 87.5703 72.0078 87.875 71.7031C88.1797 71.3984 88.418 71.043 88.5898 70.6367C88.7695 70.2227 88.8594 69.7852 88.8594 69.3242C88.8594 68.8633 88.7695 68.4297 88.5898 68.0234C88.418 67.6094 88.1797 67.25 87.875 66.9453C87.5703 66.6406 87.2148 66.4023 86.8086 66.2305C86.4023 66.0508 85.9688 65.9609 85.5078 65.9609H82.1445ZM82.1445 79.4023H78.7812V62.5977H85.5078C86.125 62.5977 86.7188 62.6797 87.2891 62.8438C87.8594 63 88.3906 63.2266 88.8828 63.5234C89.3828 63.8125 89.8359 64.1641 90.2422 64.5781C90.6562 64.9844 91.0078 65.4375 91.2969 65.9375C91.5938 66.4375 91.8203 66.9727 91.9766 67.543C92.1406 68.1133 92.2227 68.707 92.2227 69.3242C92.2227 70.2461 92.0469 71.1172 91.6953 71.9375C91.3438 72.75 90.8633 73.4609 90.2539 74.0703C89.6445 74.6797 88.9297 75.1602 88.1094 75.5117C87.2969 75.8633 86.4297 76.0391 85.5078 76.0391H82.1445V79.4023Z" fill="#5384ED"/>
<path d="M111.01 63.8179L113.871 68.6569L110.288 74.7177H107.899L111.482 68.6569L107.547 62L111.01 63.8179Z" fill="#5384ED" stroke="#5384ED" stroke-width="0.5" stroke-linecap="round" stroke-linejoin="round"/>
<path d="M95.2227 69.4811L98.0831 64.6421H105.249L106.444 66.6627H99.2782L95.3416 73.3196L95.2227 69.4811Z" fill="#5384ED" stroke="#5384ED" stroke-width="0.5" stroke-linecap="round" stroke-linejoin="round"/>
<path d="M108.14 79.9998H102.417L98.8335 73.939L100.029 71.9194L103.611 77.9791H111.483L108.14 79.9998Z" fill="#5384ED" stroke="#5384ED" stroke-width="0.5" stroke-linecap="round" stroke-linejoin="round"/>
<path d="M114.041 73.654L111.85 77.3588H103.978L102.783 75.3393H110.655L113.921 69.8154L114.041 73.654Z" fill="#BACCF4" stroke="white" stroke-width="0.5" stroke-linecap="round" stroke-linejoin="round"/>
<path d="M97.899 77.6451L95.7085 73.9391L99.6439 67.2822H102.033L98.0976 73.9391L101.363 79.463L97.899 77.6451Z" fill="#BACCF4" stroke="white" stroke-width="0.5" stroke-linecap="round" stroke-linejoin="round"/>
<path d="M102.43 62H106.812L110.748 68.6569L109.554 70.6775L105.618 64.0206H99.0874L102.43 62Z" fill="#BACCF4" stroke="white" stroke-width="0.5" stroke-linecap="round" stroke-linejoin="round"/>
<path d="M120.404 79.4023H117.041V62.5977H120.404V79.4023Z" fill="#5384ED"/>
<path d="M136.975 79.4023H133.377L126.896 68.3398V79.4023H123.533V62.5977H127.131L133.611 73.6719V62.5977H136.975V79.4023Z" fill="#5384ED"/>
<path d="M147.158 79.4023H143.807V65.9609H138.756V62.5977H152.197V65.9609H147.158V79.4023Z" fill="#5384ED"/>
<path d="M163.354 72.6875V69.3242C163.354 68.8633 163.264 68.4297 163.084 68.0234C162.912 67.6094 162.674 67.25 162.369 66.9453C162.064 66.6406 161.705 66.4023 161.291 66.2305C160.885 66.0508 160.451 65.9609 159.99 65.9609C159.529 65.9609 159.092 66.0508 158.678 66.2305C158.271 66.4023 157.916 66.6406 157.611 66.9453C157.307 67.25 157.064 67.6094 156.885 68.0234C156.713 68.4297 156.627 68.8633 156.627 69.3242V72.6875H163.354ZM166.717 79.4023H163.354V76.0391H156.627V79.4023H153.275V69.3242C153.275 68.3945 153.451 67.5234 153.803 66.7109C154.154 65.8906 154.631 65.1758 155.232 64.5664C155.842 63.957 156.553 63.4766 157.365 63.125C158.186 62.7734 159.061 62.5977 159.99 62.5977C160.92 62.5977 161.791 62.7734 162.604 63.125C163.424 63.4766 164.139 63.957 164.748 64.5664C165.357 65.1758 165.838 65.8906 166.189 66.7109C166.541 67.5234 166.717 68.3945 166.717 69.3242V79.4023Z" fill="#5384ED"/>
<path d="M215 63C215 56.3726 220.373 51 227 51H352C358.627 51 364 56.3726 364 63V79C364 85.6274 358.627 91 352 91H227C220.373 91 215 85.6274 215 79V63Z" fill="#5384ED"/>
<text fill="#FAFAFA" xml:space="preserve" style="white-space: pre" font-family="Roboto" font-size="18" font-weight="500" letter-spacing="0em"><tspan x="231" y="77.1523">Sign up/Log in</tspan></text>
</g>
</g>
<rect x="0.5" y="0.5" width="376" height="813" rx="32.5" stroke="#CBD4E6"/>
<defs>
<filter id="filter0_d_549_7920" x="29" y="373" width="319" height="57" filterUnits="userSpaceOnUse" color-interpolation-filters="sRGB">
<feFlood flood-opacity="0" result="BackgroundImageFix"/>
<feColorMatrix in="SourceAlpha" type="matrix" values="0 0 0 0 0 0 0 0 0 0 0 0 0 0 0 0 0 0 127 0" result="hardAlpha"/>
<feOffset dy="4"/>
<feGaussianBlur stdDeviation="2"/>
<feComposite in2="hardAlpha" operator="out"/>
<feColorMatrix type="matrix" values="0 0 0 0 0.603922 0 0 0 0 0.658824 0 0 0 0 0.780392 0 0 0 0.25 0"/>
<feBlend mode="normal" in2="BackgroundImageFix" result="effect1_dropShadow_549_7920"/>
<feBlend mode="normal" in="SourceGraphic" in2="effect1_dropShadow_549_7920" result="shape"/>
</filter>
<filter id="filter1_d_549_7920" x="29" y="434" width="319" height="56" filterUnits="userSpaceOnUse" color-interpolation-filters="sRGB">
<feFlood flood-opacity="0" result="BackgroundImageFix"/>
<feColorMatrix in="SourceAlpha" type="matrix" values="0 0 0 0 0 0 0 0 0 0 0 0 0 0 0 0 0 0 127 0" result="hardAlpha"/>
<feOffset dy="4"/>
<feGaussianBlur stdDeviation="2"/>
<feComposite in2="hardAlpha" operator="out"/>
<feColorMatrix type="matrix" values="0 0 0 0 0.603922 0 0 0 0 0.658824 0 0 0 0 0.780392 0 0 0 0.25 0"/>
<feBlend mode="normal" in2="BackgroundImageFix" result="effect1_dropShadow_549_7920"/>
<feBlend mode="normal" in="SourceGraphic" in2="effect1_dropShadow_549_7920" result="shape"/>
</filter>
<filter id="filter2_d_549_7920" x="-3" y="39" width="383" height="72" filterUnits="userSpaceOnUse" color-interpolation-filters="sRGB">
<feFlood flood-opacity="0" result="BackgroundImageFix"/>
<feColorMatrix in="SourceAlpha" type="matrix" values="0 0 0 0 0 0 0 0 0 0 0 0 0 0 0 0 0 0 127 0" result="hardAlpha"/>
<feOffset dy="4"/>
<feGaussianBlur stdDeviation="2"/>
<feComposite in2="hardAlpha" operator="out"/>
<feColorMatrix type="matrix" values="0 0 0 0 0.780392 0 0 0 0 0.780392 0 0 0 0 0.780392 0 0 0 0.25 0"/>
<feBlend mode="normal" in2="BackgroundImageFix" result="effect1_dropShadow_549_7920"/>
<feBlend mode="normal" in="SourceGraphic" in2="effect1_dropShadow_549_7920" result="shape"/>
</filter>
<clipPath id="clip0_549_7920">
<rect x="1" y="1" width="375" height="812" rx="32" fill="white"/>
</clipPath>
</defs>
</svg>
