<svg width="1512" height="982" viewBox="0 0 1512 982" fill="none" xmlns="http://www.w3.org/2000/svg">
<g clip-path="url(#clip0_548_7896)">
<rect width="1512" height="982" rx="32" fill="white"/>
<g filter="url(#filter0_d_548_7896)">
<rect width="1512" height="96" fill="white"/>
<path d="M141.438 50.25V45.7656C141.438 45.151 141.318 44.5729 141.078 44.0312C140.849 43.4792 140.531 43 140.125 42.5938C139.719 42.1875 139.24 41.8698 138.688 41.6406C138.146 41.401 137.568 41.2812 136.953 41.2812C136.339 41.2812 135.755 41.401 135.203 41.6406C134.661 41.8698 134.188 42.1875 133.781 42.5938C133.375 43 133.052 43.4792 132.812 44.0312C132.583 44.5729 132.469 45.151 132.469 45.7656V50.25H141.438ZM145.922 59.2031H141.438V54.7188H132.469V59.2031H128V45.7656C128 44.526 128.234 43.3646 128.703 42.2812C129.172 41.1875 129.807 40.2344 130.609 39.4219C131.422 38.6094 132.37 37.9688 133.453 37.5C134.547 37.0312 135.714 36.7969 136.953 36.7969C138.193 36.7969 139.354 37.0312 140.438 37.5C141.531 37.9688 142.484 38.6094 143.297 39.4219C144.109 40.2344 144.75 41.1875 145.219 42.2812C145.688 43.3646 145.922 44.526 145.922 45.7656V59.2031Z" fill="#5384ED"/>
<path d="M154.297 41.2812V50.25H158.781C159.396 50.25 159.974 50.1354 160.516 49.9062C161.057 49.6667 161.531 49.3438 161.938 48.9375C162.344 48.5312 162.661 48.0573 162.891 47.5156C163.13 46.9635 163.25 46.3802 163.25 45.7656C163.25 45.151 163.13 44.5729 162.891 44.0312C162.661 43.4792 162.344 43 161.938 42.5938C161.531 42.1875 161.057 41.8698 160.516 41.6406C159.974 41.401 159.396 41.2812 158.781 41.2812H154.297ZM154.297 59.2031H149.812V36.7969H158.781C159.604 36.7969 160.396 36.9062 161.156 37.125C161.917 37.3333 162.625 37.6354 163.281 38.0312C163.948 38.4167 164.552 38.8854 165.094 39.4375C165.646 39.9792 166.115 40.5833 166.5 41.25C166.896 41.9167 167.198 42.6302 167.406 43.3906C167.625 44.151 167.734 44.9427 167.734 45.7656C167.734 46.9948 167.5 48.1562 167.031 49.25C166.562 50.3333 165.922 51.2812 165.109 52.0938C164.297 52.9062 163.344 53.5469 162.25 54.0156C161.167 54.4844 160.01 54.7188 158.781 54.7188H154.297V59.2031Z" fill="#5384ED"/>
<path d="M174.859 41.2812V50.25H179.344C179.958 50.25 180.536 50.1354 181.078 49.9062C181.62 49.6667 182.094 49.3438 182.5 48.9375C182.906 48.5312 183.224 48.0573 183.453 47.5156C183.693 46.9635 183.812 46.3802 183.812 45.7656C183.812 45.151 183.693 44.5729 183.453 44.0312C183.224 43.4792 182.906 43 182.5 42.5938C182.094 42.1875 181.62 41.8698 181.078 41.6406C180.536 41.401 179.958 41.2812 179.344 41.2812H174.859ZM174.859 59.2031H170.375V36.7969H179.344C180.167 36.7969 180.958 36.9062 181.719 37.125C182.479 37.3333 183.188 37.6354 183.844 38.0312C184.51 38.4167 185.115 38.8854 185.656 39.4375C186.208 39.9792 186.677 40.5833 187.062 41.25C187.458 41.9167 187.76 42.6302 187.969 43.3906C188.188 44.151 188.297 44.9427 188.297 45.7656C188.297 46.9948 188.062 48.1562 187.594 49.25C187.125 50.3333 186.484 51.2812 185.672 52.0938C184.859 52.9062 183.906 53.5469 182.812 54.0156C181.729 54.4844 180.573 54.7188 179.344 54.7188H174.859V59.2031Z" fill="#5384ED"/>
<path d="M212.708 38.0249L216.589 44.7457L211.73 53.1635H208.489L213.349 44.7457L208.011 35.5L212.708 38.0249Z" fill="#5384ED" stroke="#5384ED" stroke-width="0.5" stroke-linecap="round" stroke-linejoin="round"/>
<path d="M191.297 45.8907L195.176 39.1698H204.895L206.516 41.9763H196.797L191.458 51.222L191.297 45.8907Z" fill="#5384ED" stroke="#5384ED" stroke-width="0.5" stroke-linecap="round" stroke-linejoin="round"/>
<path d="M208.815 60.5H201.053L196.194 52.0822L197.815 49.2773L202.673 57.6936H213.349L208.815 60.5Z" fill="#5384ED" stroke="#5384ED" stroke-width="0.5" stroke-linecap="round" stroke-linejoin="round"/>
<path d="M216.819 51.686L213.848 56.8316H203.172L201.551 54.0267H212.227L216.656 46.3547L216.819 51.686Z" fill="#BACCF4" stroke="white" stroke-width="0.5" stroke-linecap="round" stroke-linejoin="round"/>
<path d="M194.927 57.2293L191.956 52.0822L197.293 42.8365H200.534L195.196 52.0822L199.625 59.7542L194.927 57.2293Z" fill="#BACCF4" stroke="white" stroke-width="0.5" stroke-linecap="round" stroke-linejoin="round"/>
<path d="M201.072 35.5H207.015L212.352 44.7457L210.733 47.5521L205.396 38.3064H196.538L201.072 35.5Z" fill="#BACCF4" stroke="white" stroke-width="0.5" stroke-linecap="round" stroke-linejoin="round"/>
<path d="M224.303 59.2031H219.819V36.7969H224.303V59.2031Z" fill="#5384ED"/>
<path d="M246.397 59.2031H241.6L232.959 44.4531V59.2031H228.475V36.7969H233.272L241.913 51.5625V36.7969H246.397V59.2031Z" fill="#5384ED"/>
<path d="M259.975 59.2031H255.506V41.2812H248.772V36.7969H266.694V41.2812H259.975V59.2031Z" fill="#5384ED"/>
<path d="M281.569 50.25V45.7656C281.569 45.151 281.449 44.5729 281.209 44.0312C280.98 43.4792 280.663 43 280.256 42.5938C279.85 42.1875 279.371 41.8698 278.819 41.6406C278.277 41.401 277.699 41.2812 277.084 41.2812C276.47 41.2812 275.887 41.401 275.334 41.6406C274.793 41.8698 274.319 42.1875 273.913 42.5938C273.506 43 273.183 43.4792 272.944 44.0312C272.715 44.5729 272.6 45.151 272.6 45.7656V50.25H281.569ZM286.053 59.2031H281.569V54.7188H272.6V59.2031H268.131V45.7656C268.131 44.526 268.366 43.3646 268.834 42.2812C269.303 41.1875 269.939 40.2344 270.741 39.4219C271.553 38.6094 272.501 37.9688 273.584 37.5C274.678 37.0312 275.845 36.7969 277.084 36.7969C278.324 36.7969 279.486 37.0312 280.569 37.5C281.663 37.9688 282.616 38.6094 283.428 39.4219C284.241 40.2344 284.881 41.1875 285.35 42.2812C285.819 43.3646 286.053 44.526 286.053 45.7656V59.2031Z" fill="#5384ED"/>
<text fill="#7C8DB0" xml:space="preserve" style="white-space: pre" font-family="Roboto" font-size="18" letter-spacing="0em"><tspan x="821.277" y="54.1523">Home</tspan></text>
<text fill="#7C8DB0" xml:space="preserve" style="white-space: pre" font-family="Roboto" font-size="18" letter-spacing="0em"><tspan x="902.49" y="54.1523">Interviews</tspan></text>
<g clip-path="url(#clip1_548_7896)">
<text fill="#7C8DB0" xml:space="preserve" style="white-space: pre" font-family="Roboto" font-size="18" letter-spacing="0em"><tspan x="1017.07" y="54.1523">Availability</tspan></text>
</g>
<text fill="#7C8DB0" xml:space="preserve" style="white-space: pre" font-family="Roboto" font-size="18" letter-spacing="0em"><tspan x="1135.01" y="54.1523">Team</tspan></text>
<path d="M1212 28C1212 25.7909 1213.79 24 1216 24H1364C1366.21 24 1368 25.7909 1368 28V68C1368 70.2091 1366.21 72 1364 72H1216C1213.79 72 1212 70.2091 1212 68V28Z" fill="#5384ED"/>
<text fill="#FAFAFA" xml:space="preserve" style="white-space: pre" font-family="Roboto" font-size="18" letter-spacing="0em"><tspan x="1232" y="54.1523">Sign up/Log in</tspan></text>
</g>
<path opacity="0.4" d="M1373.02 545.545C1375.91 542.657 1375.54 537.612 1372.21 534.277C1368.87 530.941 1363.83 530.579 1360.94 533.467C1358.05 536.354 1358.42 541.399 1361.75 544.735C1365.09 548.07 1370.13 548.433 1373.02 545.545Z" fill="#FFBE55"/>
<g filter="url(#filter1_d_548_7896)">
<rect width="340" height="48" transform="translate(127 557)" fill="white"/>
<text fill="#7D7D7D" xml:space="preserve" style="white-space: pre" font-family="Roboto" font-size="16" font-weight="500" letter-spacing="0em"><tspan x="143" y="586.469">Enter your email</tspan></text>
<rect width="100" height="48" transform="translate(467 557)" fill="#5384ED"/>
<text fill="#FAFAFA" xml:space="preserve" style="white-space: pre" font-family="Roboto" font-size="18" letter-spacing="0em"><tspan x="487" y="587.152">Sign up</tspan></text>
<rect x="127.5" y="557.5" width="439" height="47" rx="3.5" stroke="#5384ED" shape-rendering="crispEdges"/>
</g>
<text fill="#102042" xml:space="preserve" style="white-space: pre" font-family="Roboto" font-size="60" font-weight="500" letter-spacing="0em"><tspan x="127" y="383.508">interview team&#10;</tspan></text>
<text fill="#5384ED" xml:space="preserve" style="white-space: pre" font-family="Roboto" font-size="60" font-weight="500" letter-spacing="0em"><tspan x="127" y="313.508">Simple scheduling for </tspan></text>
<text fill="#898F9B" xml:space="preserve" style="white-space: pre" font-family="Roboto" font-size="24" letter-spacing="0em"><tspan x="127" y="445.203">Free online interview scheduling software </tspan><tspan x="127" y="473.203">with interview types, interview types &#38; </tspan><tspan x="127" y="501.203">Team management.&#10;</tspan></text>
<path d="M846.274 649.689C846.274 649.689 816.898 587.324 865.786 548.761C914.674 510.188 825.014 471.034 857.366 423.135C889.717 375.236 999.713 414.058 996.94 325.322C994.167 236.586 1086.6 212.554 1117.1 239.359C1147.61 266.165 1151.8 396.819 1239.36 382.797C1326.93 368.766 1409.19 553.909 1338.94 649.439L846.274 649.689Z" fill="#2A94F4" fill-opacity="0.06"/>
<path d="M675.318 565.091C653.085 583.618 665.913 637.778 675.318 649.577H972.871C984.358 622.897 991.399 537.299 939.892 529.888C888.385 522.477 905.06 460.595 888.015 395.007C870.969 329.42 835.026 333.496 810.199 333.496C764.569 333.496 734.977 399.824 739.423 453.555C743.87 507.285 772.402 498.021 766.103 529.888C759.804 561.756 707.601 538.188 675.318 565.091Z" fill="#2A94F4" fill-opacity="0.06"/>
<path d="M1699 708C1699 715.175 1693.34 721 1686.36 721L-40.3583 721C-47.3353 721 -53 715.184 -53 708C-53 700.825 -47.3445 695 -40.3583 695L1686.37 695C1693.34 695.01 1699 700.825 1699 708Z" fill="#F7F7F7"/>
<path d="M985.883 622.753L969 561H1014.03V616.125H1045.75V625.311H1044.22L1046 696H1042.42V624.542H992.796L986.654 696H983.588L985.883 622.753Z" fill="#D3D3D3"/>
<path d="M1079.54 602.46C1078.12 601.525 1076.82 600.442 1076.22 600.127C1075.98 599.998 1075.19 599.831 1074.97 599.766C1074.31 599.581 1073.27 599.396 1072.81 598.915L1070.87 596.934C1069.95 595.962 1068.74 595.638 1067.7 596.499C1066.57 597.424 1066.91 598.748 1068.03 599.683L1069.36 601.09C1070.26 601.84 1070.7 602.895 1071.2 603.923C1072.22 606.006 1074.49 607.57 1076.45 608.672C1077.69 609.357 1079.55 608.875 1081.98 608.098C1083.18 607.718 1084.92 606.792 1083.42 606.274C1082.17 605.839 1078.4 606.783 1076.73 603.552C1076.65 603.395 1076.47 602.969 1076.64 602.821C1077.15 602.377 1078.26 603.377 1079.01 603.691C1080.05 604.136 1080.89 603.988 1081.16 603.627C1081.43 603.256 1080.54 603.127 1079.54 602.46Z" fill="#FAB9AF"/>
<path d="M1030 531.802C1030 531.802 1032.88 566.287 1043.21 577.926C1049.45 584.942 1064.68 596.966 1068.21 599.727C1068.66 600.075 1069.28 600.094 1069.75 599.763C1070.05 599.552 1070.39 599.296 1070.68 599.039C1070.98 598.782 1071.33 598.397 1071.63 598.039C1072.14 597.443 1072.12 596.553 1071.58 595.976C1067.63 591.683 1052.12 574.698 1050.23 570.231C1048.07 565.104 1044.35 534.866 1040.92 530.482C1037.5 526.098 1030.94 525.144 1030 531.802Z" fill="#FFD109"/>
<path d="M1043 589L1034.18 526.296L1010.38 523L998 588.544L1043 589Z" fill="#FAB9AF"/>
<path d="M1043.97 587.628L1034.11 526.316L1010 523L997.044 587.74C996.802 588.955 997.585 590.141 998.806 590.366C1003.29 591.216 1014.12 593 1026.24 593C1035.28 593 1040.36 591.234 1042.67 590.123C1043.62 589.674 1044.14 588.656 1043.97 587.628Z" fill="#D3D3D3"/>
<path d="M1017.25 526.446C1017.25 530.827 1016.46 535.163 1014.97 539.275C1012.05 547.325 1007.67 562.554 1010.28 575.967C1014.02 595.281 1018.84 603.09 1012.6 607.592C1006.35 612.094 994.372 604.581 994.03 602.08C993.688 599.579 996.359 568.816 999.39 555.486C1002.42 542.156 1010.92 523 1010.92 523L1014.53 523.389C1016.07 523.565 1017.25 524.88 1017.25 526.446ZM1027.21 525.056C1027.21 525.056 1031.35 534.033 1029.91 546.936C1028.46 559.831 1025.11 599.116 1036.82 605.044C1040.53 606.925 1049 598.606 1049 595.522C1049 592.437 1046.17 582.109 1043.49 572.716C1040.81 563.323 1034.36 526.048 1034.36 526.048L1027.21 525.056Z" fill="#FFD109"/>
<path d="M1024.54 498C1019.12 498 1017.1 501.876 1017 509.044C1016.96 511.732 1018.17 514.391 1019.13 516.089C1019.86 517.353 1020.05 518.843 1019.64 520.239L1018.45 524.285C1017.64 528.038 1019.41 530.094 1022.04 530.839C1023.33 531.207 1024.89 530.924 1026.02 530.189C1027.36 529.311 1027.47 527.435 1027.23 525.841L1026.92 524.69C1026.51 523.134 1027.4 521.465 1028.97 521.116C1033.14 520.201 1033.74 515.834 1034.86 509.044C1036.01 501.971 1029.96 498 1024.54 498Z" fill="#FAB9AF"/>
<path d="M1036 494.831L1032.9 495.773C1031.76 496.119 1030.55 496.128 1029.41 495.792L1023.22 494C1019.48 494 1013.29 496.109 1014.07 501.505L1014.76 505.313C1015.03 506.834 1016.31 507.973 1017.86 508.104C1018 508.627 1018.48 509 1019.03 509C1019.7 509 1020.24 508.459 1020.24 507.796C1020.24 506.078 1021.45 504.613 1023.14 504.23C1025.19 503.773 1027.4 503.661 1029.71 504.277C1034 505.425 1038.53 502.774 1038.96 498.35C1038.99 498.07 1039 497.79 1039 497.5C1039.01 495.717 1037.53 494.411 1036 494.831Z" fill="#0B4870"/>
<path d="M1020 509C1020 510.655 1019.36 512 1017.71 512C1016.06 512 1015 509.724 1015 508.069C1015 506.414 1016.06 506 1017.71 506C1019.37 506 1020 507.345 1020 509Z" fill="#FAB9AF"/>
<path d="M1019 516C1019 516 1023.01 521.457 1028 520.712C1028 520.712 1026.97 521.199 1026.72 522C1026.72 522 1021.98 521.65 1019 516Z" fill="#E8948B"/>
<path d="M970.448 641.849L964.841 649.975C963.701 651.632 962.786 653.438 962.131 655.356L961.1 658.372C960.247 660.848 957.358 661.788 955.295 660.261C949.957 656.305 940.806 649.584 938.447 647.853C938.061 647.574 937.864 647.025 938.106 646.596C939.533 644.074 945.427 649.603 951.787 651.278C956.632 652.554 963.1 643.059 965.46 638.582C966.357 636.888 968.519 636.478 969.945 637.725C971.129 638.749 971.345 640.546 970.448 641.849Z" fill="#FAB9AF"/>
<path d="M1047.54 599.55C1046.41 598.974 1029.38 578.967 1018.59 577.257C1007.81 575.539 1006.68 582.403 993.057 598.408C979.436 614.412 959 646.43 959 646.43L965.243 651C965.243 651 994.191 615.555 1003.27 606.981C1012.35 598.408 1016.04 596.401 1018.87 604.408C1021.71 612.415 1028.51 626.134 1042.14 618.127C1055.77 610.13 1047.54 599.55 1047.54 599.55Z" fill="#0B4870"/>
<path d="M1022.64 671.492L1026.13 683.177C1026.28 683.691 1026.52 684.186 1026.81 684.633L1029.28 688.335C1030.85 690.686 1029.73 693.902 1027.04 694.73C1027.04 694.73 1022.04 696.5 1016.9 698.204C1011.63 699.945 1005 698.489 1005 697.09C1005 693.978 1007.88 696.453 1012.7 693.198C1014.32 692.113 1015.99 690.971 1017.47 689.791C1021.63 686.508 1018 678.191 1015.46 673.509C1014.55 671.825 1015.52 669.731 1017.38 669.331L1018.58 669.075C1020.36 668.703 1022.12 669.75 1022.64 671.492Z" fill="#FAB9AF"/>
<path d="M1013.21 594.013C1013.21 594.013 996.237 592.868 1000.2 611.787C1004.16 630.706 1016.04 678.856 1016.04 678.856H1026.78L1023.95 611.209C1023.95 611.219 1015.47 594.013 1013.21 594.013ZM1025.84 683.775C1025.84 683.775 1021.6 685.973 1019.1 686.011C1019.1 686.011 1019.87 689.82 1013.93 692.289C1007.99 694.767 1004.95 693.22 1004.95 696.816C1004.95 700.403 1012.54 701.949 1017.61 700.403C1022.67 698.866 1029.25 694.245 1030.77 693.22C1032.28 692.196 1025.84 683.775 1025.84 683.775ZM963.018 653.202C963.018 653.202 958.349 650.873 956.694 648.675C956.694 648.675 953.909 651.842 947.907 648.191C941.904 644.539 941.252 640.841 938.154 643.179C935.056 645.517 938.678 653.249 943.301 656.733C947.925 660.217 956.198 663.039 958.073 663.719C959.948 664.399 963.018 653.202 963.018 653.202Z" fill="#0B4870"/>
<path d="M1011 523.013C1011 523.013 1002.5 546.225 1003.44 561.08C1004.39 575.935 1004.38 588.052 995.876 578.739C987.375 569.427 993.052 522.085 1011 523.013Z" fill="#FFD109"/>
<path d="M1043.87 549.093C1042.59 550.733 1041.14 552.234 1040.7 552.942C1040.51 553.24 1040.25 554.182 1040.16 554.442C1039.89 555.225 1039.58 556.493 1038.95 557.006L1036.31 559.214C1035.02 560.258 1034.53 561.693 1035.53 563.036C1036.62 564.49 1038.3 564.182 1039.56 562.896L1041.43 561.386C1042.44 560.351 1043.8 559.895 1045.11 559.373C1047.81 558.31 1049.94 555.654 1051.47 553.352C1052.43 551.907 1051.94 549.605 1051.15 546.567C1050.75 545.076 1049.72 542.886 1048.95 544.666C1048.32 546.157 1049.24 550.826 1045.04 552.597C1044.84 552.681 1044.29 552.867 1044.12 552.653C1043.6 552.001 1044.93 550.724 1045.39 549.838C1046.03 548.599 1045.89 547.564 1045.46 547.219C1045.02 546.847 1044.78 547.928 1043.87 549.093Z" fill="#FAB9AF"/>
<path d="M993 572.843C993 572.843 995.038 589.913 1004.64 583.599C1014.25 577.285 1031.78 569.144 1036.39 565.525C1041 561.907 1041 561.907 1041 561.907L1038.15 556L993 572.843Z" fill="#FFBE55"/>
<path d="M1277.12 621.753L1294 560H1248.98V615.125H1217.26V624.311H1218.79L1217 695H1220.59V623.542H1270.21L1276.36 695H1279.42L1277.12 621.753Z" fill="#D3D3D3"/>
<path d="M1235 549C1241.08 549 1246 542.732 1246 535C1246 527.268 1241.08 521 1235 521C1228.92 521 1224 527.268 1224 535C1224 542.732 1228.92 549 1235 549Z" fill="#0B4870"/>
<path d="M1238.01 535.951C1238.19 528.039 1244.47 521.379 1252.23 520.927C1259.1 520.522 1265.04 524.827 1267.27 530.958C1268.05 533.106 1270.12 534.509 1272.36 534.472C1273.29 534.453 1274.26 534.547 1275.23 534.745C1280.92 535.932 1285.33 540.83 1285.93 546.707C1286.46 552.01 1284.03 556.776 1280.11 559.489C1278.44 560.647 1277.5 562.569 1277.22 564.603C1275.94 574.041 1267.49 580.964 1257.84 579.89C1249.6 578.967 1243 572.054 1242.3 563.633C1241.87 558.462 1243.61 553.724 1246.67 550.201C1241.47 547.696 1237.87 542.252 1238.01 535.951ZM1235.41 515.483C1235.41 515.483 1229.29 519.411 1230.03 524.695C1230.03 524.695 1226.76 522.34 1226.02 514.211C1225.51 508.579 1235.41 515.483 1235.41 515.483Z" fill="#0B4870"/>
<path d="M1231 548.311C1230.85 552.784 1230.56 557.285 1229.92 561.813C1229.26 566.324 1228.32 570.889 1226.6 575.307C1225.74 577.512 1224.68 579.67 1223.35 581.7C1222.03 583.73 1220.4 585.604 1218.48 587.129C1216.57 588.663 1214.42 589.866 1212.17 590.656C1209.91 591.446 1207.58 591.841 1205.28 591.997C1204.62 592.043 1204.05 591.538 1204 590.886C1203.97 590.279 1204.38 589.756 1204.95 589.636H1204.96C1209.12 588.764 1212.91 586.862 1215.59 583.996C1218.3 581.149 1219.96 577.429 1220.98 573.497C1221.99 569.548 1222.45 565.377 1222.62 561.152C1222.72 559.039 1222.75 556.908 1222.73 554.768C1222.72 552.628 1222.69 550.479 1222.61 548.329C1222.53 546.024 1224.34 544.085 1226.65 544.003C1228.97 543.92 1230.92 545.72 1231 548.026C1231 548.118 1231 548.21 1231 548.302V548.311Z" fill="#FAB9AF"/>
<path d="M1227.95 575C1225.51 567.601 1220.6 551.922 1221.03 546.795C1221.29 543.513 1224.02 541 1227.28 541H1248.5C1252.01 541 1254.89 543.809 1254.99 547.351C1255.17 553.545 1252.34 567.629 1250.75 575H1227.95V575Z" fill="#2A94F4"/>
<path d="M1253.92 583.779C1252.79 580.717 1252.45 577.445 1252.93 574.227C1254.03 566.759 1255.96 552.691 1255.78 546.722C1255.69 543.532 1252.97 541 1249.66 541H1246.42C1245.19 543.761 1242.57 545.89 1238.51 545.89C1234.45 545.89 1231.83 543.761 1230.6 541H1227.55C1230.86 547.828 1229.67 556.832 1223.98 562.088C1225.04 565.689 1225.92 569.318 1226.59 572.253C1227.49 576.229 1227.09 580.379 1225.47 584.145C1222.67 590.608 1220.46 600.973 1221.12 605.078C1244.11 611.357 1260 600.242 1260 600.242L1253.92 583.779Z" fill="#2A94F4"/>
<path d="M1235 542L1245 541.035L1241.84 531L1235.37 531.728L1235 542Z" fill="#FAB9AF"/>
<path d="M1235.23 531.75L1241.1 531L1242 534.187C1240.69 535.714 1238.99 539 1236.85 539C1236.17 539 1235.56 538.804 1235 538.437L1235.23 531.75Z" fill="#FA968C"/>
<path d="M1234.9 536C1237.1 536 1239.47 534.957 1242.73 532.245C1244.61 530.685 1246 527.973 1246 526.141V516H1229.56C1229.56 516 1228.33 521.388 1229.52 526.73C1230.42 530.73 1233.18 536 1234.9 536Z" fill="#FAB9AF"/>
<path d="M1243 524.5C1243 526.432 1244.03 528 1245.31 528C1246.59 528 1248 525.466 1248 523.534C1248 521.603 1246.59 521 1245.31 521C1244.04 521 1243 522.568 1243 524.5Z" fill="#FAB9AF"/>
<path d="M1247.99 517.169C1247.99 514.124 1245.4 511.655 1242.21 511.655H1236.9C1235.38 511.655 1233.91 511.279 1232.61 510.573C1230.74 509.561 1228.37 509.892 1227.09 511.55C1225.71 513.338 1225.1 515.738 1228.61 517.954C1230.36 519.053 1232.9 517.832 1234.6 518.364C1234.7 518.364 1234.81 518.346 1234.91 518.346H1239.6C1241.22 518.346 1242.47 519.611 1242.51 521.164C1242.54 522.15 1243.38 522.936 1244.42 522.936H1244.64L1245.38 520.641L1248 524V517.169H1247.99Z" fill="#0B4870"/>
<path d="M1201.58 587.144C1201.58 587.144 1207.12 587.764 1207.49 589.453C1207.84 591.143 1207.77 592.337 1205.23 592.938C1202.69 593.54 1198.92 593.195 1196.7 592.558C1194.47 591.921 1191.22 589.338 1191.06 588.834C1190.48 587.021 1194.38 588.586 1196.31 589.259C1198.23 589.931 1200.49 590.497 1200.55 589.515C1200.62 588.533 1196.83 587.516 1196.53 586.366C1196.23 585.216 1201.58 587.144 1201.58 587.144ZM1218.06 589.497C1218.06 589.497 1223.56 588.63 1224.4 590.161C1225.23 591.691 1225.49 592.859 1223.23 594.106C1220.96 595.353 1217.23 596.026 1214.92 595.999C1212.6 595.973 1208.73 594.345 1208.43 593.912C1207.36 592.319 1211.56 592.797 1213.6 592.93C1215.64 593.062 1217.97 593.018 1217.76 592.054C1217.55 591.09 1213.61 591.116 1212.99 590.09C1212.37 589.064 1218.06 589.497 1218.06 589.497Z" fill="#FAB9AF"/>
<path d="M1231.08 515.661C1231.64 518.179 1230.82 519.562 1238.87 523.502C1246.93 527.442 1249.48 525.754 1252 530C1252 530 1250.9 522.979 1246.45 520.569C1242 518.16 1234.28 516.58 1231.8 511C1231.8 511 1230.7 513.933 1231.08 515.661Z" fill="#0B4870"/>
<path d="M1254.05 545.636C1255.22 547.168 1256.16 548.572 1257.12 550.086C1258.06 551.581 1258.96 553.094 1259.8 554.653C1261.47 557.78 1262.96 561.033 1264.11 564.486C1265.23 567.938 1266.03 571.618 1266 575.542C1265.97 577.499 1265.71 579.52 1265.09 581.496C1264.49 583.471 1263.46 585.374 1262.12 586.978C1260.8 588.591 1259.19 589.914 1257.5 590.929C1255.8 591.953 1254.03 592.697 1252.24 593.267C1250.46 593.838 1248.67 594.192 1246.89 594.491C1245.11 594.726 1243.33 594.908 1241.57 594.953C1234.52 595.216 1227.68 594.346 1220.97 593.095C1220.32 592.977 1219.9 592.361 1220.02 591.718C1220.13 591.129 1220.66 590.73 1221.24 590.757H1221.26C1224.63 590.92 1227.97 591.047 1231.31 590.984C1234.63 590.938 1237.94 590.766 1241.16 590.313C1244.38 589.86 1247.51 589.153 1250.33 588.02C1253.12 586.87 1255.53 585.22 1256.96 583.1C1258.41 581.006 1258.95 578.423 1258.83 575.632C1258.68 572.832 1257.87 569.896 1256.77 567.032C1255.68 564.15 1254.26 561.314 1252.66 558.568C1251.86 557.191 1251.03 555.822 1250.15 554.49C1249.71 553.819 1249.27 553.167 1248.81 552.514C1248.37 551.88 1247.88 551.182 1247.47 550.648L1247.43 550.593C1246.05 548.781 1246.41 546.198 1248.24 544.83C1250.07 543.461 1252.67 543.824 1254.05 545.636Z" fill="#FAB9AF"/>
<path d="M1232.97 516.608C1232.97 516.608 1232.69 524.298 1226 528C1226 528 1228.94 522.188 1228.75 518.378C1228.55 514.578 1233.42 513.979 1232.97 516.608Z" fill="#0B4870"/>
<path d="M1204 670.228L1201.54 681.124C1200.8 684.452 1201.26 687.954 1202.87 690.964C1203.77 692.646 1202.97 694.738 1201.17 695.375C1195.35 697.448 1184.06 701.395 1183.56 700.968C1181 698.794 1187.77 695.211 1192.79 691.446C1196.16 688.908 1197.46 677.076 1197.76 668L1203.14 669.355C1203.55 669.482 1203.88 669.81 1204 670.228Z" fill="#FA968C"/>
<path d="M1237.44 600L1260.34 601.01C1260.34 601.01 1266.44 619.764 1255.25 621.283C1244.06 622.802 1211.5 619.255 1210.48 624.321C1209.46 629.387 1204.37 674 1204.37 674H1196.74C1196.74 674 1197.25 645.613 1196.74 630.906C1196.23 616.198 1194.19 610.123 1200.3 607.585C1206.4 605.075 1237.44 600 1237.44 600Z" fill="#0B4870"/>
<path d="M1210.82 643.747C1210.82 643.747 1212.12 654.839 1212.48 656.706C1212.78 658.249 1213.85 659.47 1214.86 660.671C1215.18 661.059 1215.42 661.817 1215.62 662.464C1215.79 662.982 1215.65 663.527 1215.35 663.971C1209.86 671.717 1199.28 672.567 1199.23 671.856C1199.14 670.58 1201.2 668.62 1203.54 668.001C1205.9 667.373 1207.68 665.441 1208.4 663.111C1208.98 661.263 1209.07 659.294 1208.67 657.399L1206.77 648.886L1210.82 643.747Z" fill="#FA968C"/>
<path d="M1216.95 667.04C1217.49 666.679 1217.68 665.986 1217.42 665.404C1217.19 664.923 1216.61 663.62 1216.17 662.64C1215.97 662.215 1215.42 662.15 1215.11 662.501C1211.68 666.504 1207.04 669.092 1202.07 668.454C1200.23 669.083 1198.61 671.181 1198.68 672.188C1198.7 672.429 1200.82 673.03 1203.39 672.355C1214.84 669.369 1216.95 667.04 1216.95 667.04Z" fill="#0B4870"/>
<path d="M1224 602.286L1208.8 605.817L1212.35 652.756L1206.78 653.761C1206.78 653.761 1193.1 620.956 1193.61 605.817C1194.11 590.678 1206.27 595.223 1213.37 597.233C1220.46 599.262 1224 602.286 1224 602.286ZM1194.13 694.467C1191.68 695.27 1189 695.528 1186.53 695.832C1186.26 695.869 1185.98 695.979 1185.76 696.145C1183.4 697.971 1182.2 699.806 1183.59 700.967C1184.15 701.438 1197.63 696.68 1202.89 694.799C1203.99 694.403 1204.47 693.14 1203.92 692.107L1202.92 690.235C1200.17 691.987 1197.23 693.444 1194.13 694.467Z" fill="#0B4870"/>
<path d="M1187.57 584.764H1062.88V589.349H1187.57V584.764Z" fill="#0B4870"/>
<path d="M1071.53 589.349H1068.99V695.721H1071.53V589.349Z" fill="#76838B"/>
<path d="M1180.95 589.349H1178.41V695.721H1180.95V589.349Z" fill="#76838B"/>
<path d="M1334.14 695.804C1334.14 697.625 1332.66 699.095 1330.85 699.095H1318.14C1316.32 699.095 1314.85 697.616 1314.85 695.804V666.161C1314.85 664.34 1316.33 662.87 1318.14 662.87H1330.85C1332.67 662.87 1334.14 664.349 1334.14 666.161V695.804Z" fill="#FFBE55"/>
<path opacity="0.4" d="M1326.02 628.744C1326.02 628.744 1315.62 649.884 1330.94 653.489C1346.27 657.093 1346.71 641.139 1345.14 634.567C1343.57 627.995 1367.89 610.322 1347.83 594.692C1327.77 579.061 1312.14 620.675 1326.02 628.744Z" fill="#2A94F4"/>
<path opacity="0.4" d="M1306.65 640.215C1306.65 640.215 1306.16 654.126 1315.29 652.361C1324.43 650.595 1320.8 641.888 1318.36 638.727C1315.92 635.566 1324.76 620.157 1310.16 616.58C1295.58 613.012 1297.22 639.235 1306.65 640.215Z" fill="#2A94F4"/>
<path d="M1308.2 627.108L1319.5 662.871" stroke="#4D4D4D" stroke-miterlimit="10"/>
<path d="M1314.79 634.383L1312.4 640.391L1306.96 637.387" stroke="#4D4D4D" stroke-miterlimit="10"/>
<path d="M1338.26 606.874L1328.58 662.871" stroke="#4D4D4D" stroke-miterlimit="10"/>
<path d="M1343.95 615.341L1335.92 620.407L1330.78 613.456" stroke="#4D4D4D" stroke-miterlimit="10"/>
<path d="M1341.76 627.08L1333.72 632.155L1328.58 625.204" stroke="#4D4D4D" stroke-miterlimit="10"/>
<path d="M910.797 695.804C910.797 697.625 909.318 699.095 907.506 699.095H894.796C892.976 699.095 891.506 697.616 891.506 695.804V666.161C891.506 664.34 892.985 662.87 894.796 662.87H907.506C909.327 662.87 910.797 664.349 910.797 666.161V695.804Z" fill="#FFBE55"/>
<path opacity="0.4" d="M902.672 628.744C902.672 628.744 892.273 649.884 907.599 653.489C922.924 657.093 923.368 641.139 921.796 634.567C920.225 627.995 944.544 610.322 924.486 594.692C904.428 579.061 888.798 620.675 902.672 628.744Z" fill="#2A94F4"/>
<path opacity="0.4" d="M883.307 640.215C883.307 640.215 882.817 654.126 891.95 652.361C901.082 650.595 897.459 641.888 895.018 638.727C892.578 635.566 901.415 620.157 886.82 616.58C872.224 613.003 873.879 639.235 883.307 640.215Z" fill="#2A94F4"/>
<path d="M884.86 627.108L896.155 662.871" stroke="#4D4D4D" stroke-miterlimit="10"/>
<path d="M891.45 634.383L889.056 640.391L883.612 637.387" stroke="#4D4D4D" stroke-miterlimit="10"/>
<path d="M914.919 606.874L905.232 662.871" stroke="#4D4D4D" stroke-miterlimit="10"/>
<path d="M920.604 615.341L912.581 620.407L907.432 613.456" stroke="#4D4D4D" stroke-miterlimit="10"/>
<path d="M918.413 627.08L910.381 632.155L905.232 625.204" stroke="#4D4D4D" stroke-miterlimit="10"/>
<path d="M1104.12 439H1022.88C1020.74 439 1019 440.741 1019 442.884V471.436C1019 473.579 1020.74 475.32 1022.88 475.32H1028.47V488L1043.99 475.32H1104.12C1106.26 475.32 1108 473.579 1108 471.436V442.884C1107.99 440.731 1106.26 439 1104.12 439ZM1024.87 456.013H1073.25V457.651H1024.87V456.013ZM1098.49 463.5H1024.87V461.862H1098.49V463.5ZM1098.49 452.036H1024.87V450.398H1098.49V452.036Z" fill="#FFBE55"/>
<path d="M914.62 440L816.88 440C814.739 440 813 441.741 813 443.884V472.436C813 474.579 814.739 476.32 816.88 476.32H822.47V489L837.989 476.32L914.62 476.32C916.761 476.32 918.5 474.579 918.5 472.436V443.884C918.491 441.731 916.761 440 914.62 440ZM818.871 457.013H867.251V458.651H818.871V457.013ZM908.992 464.5L818.871 464.5V462.862L908.992 462.862V464.5ZM908.992 453.036L818.871 453.036V451.398L908.992 451.398V453.036Z" fill="#FFBE55"/>
<path d="M1155 454.804V482.774C1155 484.873 1156.7 486.578 1158.79 486.578H1217.57L1232.74 499V486.578H1238.21C1240.3 486.578 1242 484.873 1242 482.774V454.804C1242 452.705 1240.3 451 1238.21 451H1158.79C1156.7 451 1155 452.696 1155 454.804ZM1236.26 469.27H1188.97V467.666H1236.26V469.27ZM1164.29 473.396H1236.26V475H1164.29V473.396ZM1164.29 462.166H1236.26V463.77H1164.29V462.166Z" fill="#2A94F4"/>
<path opacity="0.4" d="M884.256 571.33C885.506 564.812 883.268 558.905 879.257 558.136C875.247 557.366 870.982 562.026 869.731 568.544C868.481 575.061 870.719 580.969 874.73 581.738C878.741 582.507 883.006 577.848 884.256 571.33Z" fill="#FFBE55"/>
<path opacity="0.4" d="M885.143 565.542C888.031 562.654 887.668 557.609 884.333 554.274C880.997 550.939 875.952 550.576 873.064 553.464C870.177 556.352 870.54 561.397 873.875 564.732C877.211 568.067 882.255 568.43 885.143 565.542Z" fill="#FFBE55"/>
<path opacity="0.4" d="M1362.12 571.322C1363.37 564.804 1361.13 558.897 1357.12 558.128C1353.11 557.358 1348.84 562.018 1347.59 568.536C1346.34 575.053 1348.58 580.961 1352.59 581.73C1356.6 582.499 1360.87 577.84 1362.12 571.322Z" fill="#FFBE55"/>
<path d="M989.53 747.467H887.703C885.657 747.467 884 745.796 884 743.733C884 741.671 885.657 740 887.703 740H989.53C991.576 740 993.233 741.671 993.233 743.733C993.233 745.796 991.576 747.467 989.53 747.467ZM1160.79 747.467H1058.96C1056.91 747.467 1055.26 745.796 1055.26 743.733C1055.26 741.671 1056.91 740 1058.96 740H1160.79C1162.83 740 1164.49 741.671 1164.49 743.733C1164.49 745.796 1162.83 747.467 1160.79 747.467ZM1341.3 747.467H1239.47C1237.42 747.467 1235.77 745.796 1235.77 743.733C1235.77 741.671 1237.42 740 1239.47 740H1341.3C1343.34 740 1345 741.671 1345 743.733C1345 745.796 1343.34 747.467 1341.3 747.467ZM1078.4 768H976.57C974.524 768 972.867 766.329 972.867 764.267C972.867 762.204 974.524 760.533 976.57 760.533H1078.4C1080.44 760.533 1082.1 762.204 1082.1 764.267C1082.1 766.329 1080.44 768 1078.4 768ZM1255.21 768H1153.38C1151.33 768 1149.68 766.329 1149.68 764.267C1149.68 762.204 1151.33 760.533 1153.38 760.533H1255.21C1257.25 760.533 1258.91 762.204 1258.91 764.267C1258.91 766.329 1257.25 768 1255.21 768Z" fill="#D3D3D3"/>
<path d="M840.215 658.424C849.017 642.31 821.233 634.733 814.535 641.124C807.837 647.517 830.042 677.05 840.215 658.424Z" fill="#2A94F4" fill-opacity="0.2"/>
<path d="M851.896 653.505C869.168 653.505 861.351 622.613 853.967 622.613C844.708 622.613 831.941 653.505 851.896 653.505Z" fill="#2A94F4" fill-opacity="0.2"/>
<path d="M865.208 664.712C879.447 676.303 891.963 650.367 886.9 642.616C881.836 634.865 848.749 651.313 865.208 664.712Z" fill="#2A94F4" fill-opacity="0.2"/>
<path d="M847.05 672.381C844.646 666.82 841.128 661.638 836.594 656.981C828.88 649.059 820.766 645.343 820.685 645.307C820.443 645.198 820.159 645.305 820.05 645.546C819.941 645.788 820.048 646.071 820.289 646.181C820.369 646.217 828.342 649.873 835.93 657.676C840.376 662.248 843.824 667.33 846.176 672.782C846.443 673.4 846.691 674.025 846.93 674.654H847.956C847.674 673.89 847.374 673.131 847.05 672.381Z" fill="#102042"/>
<path d="M853.537 628.948C853.568 628.685 853.38 628.447 853.117 628.415C852.853 628.383 852.615 628.571 852.584 628.834C852.552 629.097 850.131 649.799 850.254 674.653H851.214C851.091 649.864 853.506 629.21 853.537 628.948Z" fill="#102042"/>
<path d="M882.102 646.086C881.955 645.865 881.657 645.806 881.437 645.954C881.368 646 874.44 650.66 867.313 658.324C863.431 662.498 859.019 668.095 855.786 674.654H856.859C860.019 668.384 864.26 663.019 868.001 658.994C875.053 651.407 881.902 646.798 881.971 646.752C882.191 646.604 882.25 646.306 882.102 646.086Z" fill="#102042"/>
<path d="M851.215 674.654H850.255H847.957H846.931H833.534C833.019 674.654 832.653 675.157 832.813 675.647L833.658 678.241L834.086 679.555L840.208 698.339C840.374 698.849 840.85 699.194 841.386 699.194H863.454C863.989 699.194 864.465 698.849 864.631 698.339L870.754 679.555L871.182 678.241L872.027 675.647C872.188 675.157 871.822 674.654 871.307 674.654H856.858H855.785H851.215Z" fill="#FFD109"/>
<path d="M871.183 678.241L870.756 679.554H834.087L833.659 678.241H871.183Z" fill="#FFBE55"/>
<path d="M789.442 478.429C789.442 470.468 782.42 464.017 771.89 464.017C763.139 464.017 760.132 468.846 760.132 468.846C760.132 468.846 751.861 470.634 751.861 480.912C751.861 490.467 751.861 506.905 751.861 506.905H765.452H766.145H776.182H787.093V485.499C787.955 484.44 789.442 482.085 789.442 478.429ZM773.098 501.707C772.362 501.707 771.558 501.571 770.72 501.335V506.904H758.694V492.576C758.612 492.346 758.531 492.1 758.453 491.841C753.121 491.332 753.342 482.521 756.51 482.521C756.553 482.521 756.596 482.525 756.637 482.531V482.53C769.955 486.788 778.911 479.812 781.841 474.965C781.841 478.347 785.585 481.645 786.916 481.946C786.719 494.033 778.072 501.707 773.098 501.707Z" fill="#311643"/>
<path d="M770.72 502.102V501.335C771.558 501.571 772.362 501.707 773.098 501.707C778.072 501.707 786.719 494.033 786.916 481.945C785.584 481.644 781.84 478.346 781.84 474.964C778.91 479.812 769.954 486.787 756.636 482.529V482.53C756.595 482.524 756.553 482.52 756.51 482.52C753.341 482.52 753.12 491.331 758.452 491.84C758.531 492.099 758.611 492.344 758.694 492.575V502.214L749.275 506.654V518.279H780.574V506.543L770.72 502.102Z" fill="#FCBEB7"/>
<path d="M780.575 518.279V506.544L770.72 502.102V501.335C767.934 500.548 764.766 498.644 762.44 496.867L780.575 518.279Z" fill="#F9AFAB"/>
<path d="M764.297 492.151C766.109 492.151 767.578 490.682 767.578 488.87C767.578 487.058 766.109 485.589 764.297 485.589C762.485 485.589 761.016 487.058 761.016 488.87C761.016 490.682 762.485 492.151 764.297 492.151Z" fill="#F49795"/>
<path d="M786.494 486.146C786.078 488.349 785.381 490.358 784.5 492.146C782.765 492.06 781.385 490.626 781.385 488.869C781.385 487.057 782.854 485.588 784.665 485.588C785.342 485.589 785.971 485.795 786.494 486.146Z" fill="#F49795"/>
<path d="M780.944 478.893C778.549 478.893 776.571 480.714 776.322 483.044C775.02 482.431 773.871 482.764 773.264 483.042C773.013 480.713 771.037 478.893 768.642 478.893C766.079 478.893 763.993 480.978 763.993 483.542C763.993 486.105 766.079 488.191 768.642 488.191C771.149 488.191 773.196 486.197 773.287 483.712C773.673 483.49 774.899 482.924 776.299 483.717C776.392 486.199 778.44 488.191 780.944 488.191C783.507 488.191 785.593 486.105 785.593 483.542C785.593 480.977 783.508 478.893 780.944 478.893ZM768.642 487.582C766.414 487.582 764.602 485.769 764.602 483.541C764.602 481.313 766.414 479.5 768.642 479.5C770.871 479.5 772.683 481.313 772.683 483.541C772.683 485.769 770.871 487.582 768.642 487.582ZM780.944 487.582C778.717 487.582 776.904 485.769 776.904 483.541C776.904 481.313 778.717 479.5 780.944 479.5C783.173 479.5 784.986 481.313 784.986 483.541C784.986 485.769 783.173 487.582 780.944 487.582Z" fill="white"/>
<path d="M780.947 486.873C780.581 486.873 780.284 486.576 780.284 486.21V484.97C780.284 484.604 780.581 484.307 780.947 484.307C781.314 484.307 781.611 484.604 781.611 484.97V486.21C781.611 486.576 781.314 486.873 780.947 486.873Z" fill="#311643"/>
<path d="M768.844 486.873C768.478 486.873 768.18 486.576 768.18 486.21V484.97C768.18 484.604 768.478 484.307 768.844 484.307C769.21 484.307 769.507 484.604 769.507 484.97V486.21C769.508 486.576 769.211 486.873 768.844 486.873Z" fill="#311643"/>
<path d="M773.581 494.394C772.397 494.394 771.591 493.949 771.102 493.543C770.486 493.032 770.231 492.474 770.22 492.45C770.151 492.297 770.219 492.118 770.372 492.048C770.525 491.979 770.705 492.047 770.774 492.199C770.809 492.274 771.65 494.038 774.093 493.755C774.261 493.736 774.411 493.855 774.43 494.023C774.45 494.19 774.33 494.341 774.163 494.36C773.959 494.383 773.765 494.394 773.581 494.394Z" fill="#311643"/>
<path d="M793.47 687.39L794.714 692.562L808.285 696.823L806.333 687.39H793.47Z" fill="#FCBEB7"/>
<path d="M747.748 687.39L748.118 693.778L747.273 694.09L746.715 696.825L760.273 692.562L760.612 687.39H747.748Z" fill="#FCBEB7"/>
<path d="M818.751 698.832L807.719 694.089L808.284 696.823L794.714 692.562V696.45C794.714 697.818 795.429 699.058 796.554 699.754L797.721 703.091C797.822 703.379 798.094 703.572 798.4 703.572C798.797 703.572 799.118 703.251 799.118 702.854V700.684L808.393 703.572H817.776C819.14 703.572 820.246 702.467 820.246 701.102C820.246 700.114 819.658 699.222 818.751 698.832Z" fill="#0B4870"/>
<path d="M760.285 696.413L760.273 692.524L746.716 696.825L747.273 694.09L736.255 698.865C735.349 699.258 734.764 700.151 734.767 701.139C734.771 702.503 735.88 703.606 737.244 703.601L746.627 703.574L756.217 700.555L756.224 702.828C756.226 703.225 756.548 703.546 756.945 703.544C757.25 703.544 757.522 703.349 757.623 703.061L758.888 699.407C759.757 698.682 760.288 697.595 760.285 696.413Z" fill="#0B4870"/>
<path d="M749.8 557.311L744.795 578.507C743.35 584.629 742.78 590.924 743.104 597.205L747.749 687.389H760.612L766.105 593.794L793.471 687.389H806.334L783.685 557.31H749.8V557.311Z" fill="#0B4870"/>
<path d="M766.82 512.545C769.105 512.545 770.931 510.346 772.163 508.118H759.137C761.124 510.34 763.845 512.545 766.82 512.545Z" fill="white"/>
<path d="M789.269 514.319C787.654 511.088 784.97 508.515 781.674 507.037L773.944 503.57C773.944 503.933 773.313 506.038 772.162 508.118C770.931 510.346 769.104 512.545 766.82 512.545C763.844 512.545 761.124 510.34 759.137 508.118C757.121 505.864 755.862 503.593 755.862 503.593L746.894 507.748C743.223 509.448 740.52 512.72 739.544 516.647L734.302 537.725C733.448 541.162 734.432 544.797 736.904 547.333C741.032 545.885 748.781 542.868 748.781 542.868L749.799 557.312H783.684L792.102 519.984L789.269 514.319Z" fill="#2A94F4"/>
<path d="M767.155 515.714C765.271 515.714 763.354 515.141 761.457 514.011C759.951 513.113 758.454 511.864 757.008 510.298C754.552 507.639 753.057 504.926 753.042 504.899L753.545 504.666C753.56 504.693 755.01 507.323 757.422 509.931C758.832 511.456 760.286 512.669 761.746 513.538C763.554 514.615 765.374 515.16 767.155 515.16C768.836 515.16 770.35 514.599 771.655 513.493C772.711 512.598 773.637 511.345 774.407 509.769C775.731 507.06 776.093 504.562 776.096 504.534L776.617 504.768C776.601 504.883 776.269 507.213 774.91 510C774.106 511.648 773.133 512.963 772.018 513.911C770.609 515.107 768.973 515.714 767.155 515.714Z" fill="white"/>
<path d="M787.347 629.28C790.747 629.28 793.504 626.523 793.504 623.123C793.504 619.722 790.747 616.965 787.347 616.965C783.946 616.965 781.19 619.722 781.19 623.123C781.19 626.523 783.946 629.28 787.347 629.28Z" fill="#083959"/>
<path d="M755.088 629.28C758.489 629.28 761.245 626.523 761.245 623.123C761.245 619.722 758.489 616.965 755.088 616.965C751.688 616.965 748.931 619.722 748.931 623.123C748.931 626.523 751.688 629.28 755.088 629.28Z" fill="#083959"/>
<path d="M746.948 510.485C746.948 512.657 745.188 514.418 743.015 514.418C742.143 514.418 741.337 514.134 740.685 513.653C741.911 511.322 743.809 509.388 746.156 508.119C746.654 508.777 746.948 509.596 746.948 510.485Z" fill="#197BD3"/>
<path d="M769.959 562.19L796.034 561.206C797.404 561.154 798.589 560.237 798.983 558.924L810.384 520.921C810.626 520.114 810.002 519.307 809.16 519.339L782.791 520.335C781.597 520.38 780.564 521.179 780.221 522.324L768.736 560.609C768.493 561.417 769.117 562.222 769.959 562.19Z" fill="#FFD109"/>
<path d="M798.059 542.23L802.621 546.794L803.399 544.2L798.059 542.23Z" fill="#2F3D6C"/>
<path d="M804.393 535.163L797.819 535.597C797.334 535.629 796.958 536.035 796.963 536.521L796.309 536.562C795.884 536.588 795.539 536.914 795.489 537.338L795.408 538.021H795.406C794.919 538.027 794.53 538.426 794.536 538.912C794.541 539.27 794.76 539.588 795.092 539.72L796.564 540.305C796.561 541.055 796.996 541.737 797.676 542.052L802.251 544.167C802.916 544.474 803.654 544.587 804.38 544.493C806.011 544.281 807.332 543.063 807.676 541.454L807.961 540.123C808.267 538.689 807.823 537.198 806.781 536.167C806.145 535.536 805.289 535.176 804.393 535.163Z" fill="#FCBEB7"/>
<path d="M771.719 509.809L776.204 520.775C776.458 521.393 776.828 521.954 777.283 522.408L778.082 523.203C778.267 523.388 778.526 523.282 778.529 523.02L778.54 521.894C778.547 521.25 778.418 520.591 778.165 519.972L773.68 509.007C773.407 508.339 772.746 507.978 772.205 508.199C771.663 508.421 771.446 509.142 771.719 509.809Z" fill="#6277D7"/>
<path d="M777.617 516.341L775.154 512.949C774.837 512.512 774.346 512.234 773.808 512.185L769.678 511.81C769.115 511.759 768.556 511.94 768.13 512.311L765.979 514.18C765.668 514.45 765.404 514.769 765.198 515.125L762.558 519.314L737.53 539.535C735.061 541.53 734.843 545.216 737.059 547.489C739.263 549.749 742.928 549.638 744.993 547.251L766.128 522.804L770.574 520.071L773.854 520.184C774.617 520.21 775.288 519.687 775.451 518.942L775.631 518.728C775.941 518.36 776.067 517.87 775.972 517.398L775.784 516.473L776.845 517.157C777 517.257 777.193 517.277 777.364 517.209C777.711 517.073 777.836 516.644 777.617 516.341Z" fill="#FCBEB7"/>
<path d="M748.782 542.868L758.043 532.157L749.134 547.862L748.782 542.868Z" fill="#197BD3"/>
<path d="M769.958 562.19L785.268 566.407L784.439 561.644L769.958 562.19Z" fill="#2F3D6C"/>
<path d="M787.902 512.078C787.418 512.279 786.887 512.39 786.329 512.39C784.071 512.39 782.239 510.559 782.239 508.3C782.239 507.976 782.277 507.661 782.348 507.359C784.553 508.477 786.453 510.097 787.902 512.078Z" fill="#197BD3"/>
<path d="M741.032 548.292C743.133 548.292 744.836 546.589 744.836 544.488C744.836 542.387 743.133 540.684 741.032 540.684C738.931 540.684 737.228 542.387 737.228 544.488C737.228 546.589 738.931 548.292 741.032 548.292Z" fill="#F9AFAB"/>
<rect width="99" height="21" transform="translate(818.5 446.464)" fill="#FFBE55"/>
<text fill="white" xml:space="preserve" style="white-space: pre" font-family="Roboto" font-size="10" font-weight="600" letter-spacing="0em"><tspan x="818.5" y="455.882">Invite our teams...</tspan></text>
<rect width="80" height="21" transform="translate(1024 446)" fill="#FFBE55"/>
<text fill="white" xml:space="preserve" style="white-space: pre" font-family="Roboto" font-size="8" font-weight="600" letter-spacing="0em"><tspan x="1024" y="453.234">Sign up APPOINTA </tspan><tspan x="1024" y="462.234">for job interviews...</tspan></text>
<rect width="80" height="21" transform="translate(1161 458)" fill="#2A94F4"/>
<text fill="white" xml:space="preserve" style="white-space: pre" font-family="Roboto" font-size="8" font-weight="600" letter-spacing="0em"><tspan x="1161" y="465.234">And sync with our </tspan><tspan x="1161" y="474.234">calendar</tspan></text>
</g>
<rect x="0.5" y="0.5" width="1511" height="981" rx="31.5" stroke="#CBD4E6"/>
<defs>
<filter id="filter0_d_548_7896" x="-4" y="0" width="1520" height="104" filterUnits="userSpaceOnUse" color-interpolation-filters="sRGB">
<feFlood flood-opacity="0" result="BackgroundImageFix"/>
<feColorMatrix in="SourceAlpha" type="matrix" values="0 0 0 0 0 0 0 0 0 0 0 0 0 0 0 0 0 0 127 0" result="hardAlpha"/>
<feOffset dy="4"/>
<feGaussianBlur stdDeviation="2"/>
<feComposite in2="hardAlpha" operator="out"/>
<feColorMatrix type="matrix" values="0 0 0 0 0.780392 0 0 0 0 0.780392 0 0 0 0 0.780392 0 0 0 0.25 0"/>
<feBlend mode="normal" in2="BackgroundImageFix" result="effect1_dropShadow_548_7896"/>
<feBlend mode="normal" in="SourceGraphic" in2="effect1_dropShadow_548_7896" result="shape"/>
</filter>
<filter id="filter1_d_548_7896" x="120" y="557" width="464" height="72" filterUnits="userSpaceOnUse" color-interpolation-filters="sRGB">
<feFlood flood-opacity="0" result="BackgroundImageFix"/>
<feColorMatrix in="SourceAlpha" type="matrix" values="0 0 0 0 0 0 0 0 0 0 0 0 0 0 0 0 0 0 127 0" result="hardAlpha"/>
<feOffset dx="5" dy="12"/>
<feGaussianBlur stdDeviation="6"/>
<feComposite in2="hardAlpha" operator="out"/>
<feColorMatrix type="matrix" values="0 0 0 0 0.603922 0 0 0 0 0.658824 0 0 0 0 0.780392 0 0 0 0.37 0"/>
<feBlend mode="normal" in2="BackgroundImageFix" result="effect1_dropShadow_548_7896"/>
<feBlend mode="normal" in="SourceGraphic" in2="effect1_dropShadow_548_7896" result="shape"/>
</filter>
<clipPath id="clip0_548_7896">
<rect width="1512" height="982" rx="32" fill="white"/>
</clipPath>
<clipPath id="clip1_548_7896">
<rect width="86" height="21" fill="white" transform="translate(1017 37.5)"/>
</clipPath>
</defs>
</svg>
