<svg width="44" height="44" viewBox="0 0 44 44" fill="none" xmlns="http://www.w3.org/2000/svg">
<path d="M0 12C0 5.37258 5.37258 0 12 0H32C38.6274 0 44 5.37258 44 12V32C44 38.6274 38.6274 44 32 44H12C5.37258 44 0 38.6274 0 32V12Z" fill="#F5F8FA"/>
<path opacity="0.4" d="M26.0755 12H29.4615C30.8637 12 32 13.1459 32 14.56V17.9745C32 19.3886 30.8637 20.5345 29.4615 20.5345H26.0755C24.6732 20.5345 23.537 19.3886 23.537 17.9745V14.56C23.537 13.1459 24.6732 12 26.0755 12" fill="#5384ED"/>
<path fill-rule="evenodd" clip-rule="evenodd" d="M14.5385 12H17.9245C19.3268 12 20.463 13.1459 20.463 14.56V17.9745C20.463 19.3886 19.3268 20.5345 17.9245 20.5345H14.5385C13.1363 20.5345 12 19.3886 12 17.9745V14.56C12 13.1459 13.1363 12 14.5385 12ZM14.5385 23.4655H17.9245C19.3268 23.4655 20.463 24.6114 20.463 26.0255V29.44C20.463 30.8532 19.3268 32 17.9245 32H14.5385C13.1363 32 12 30.8532 12 29.44V26.0255C12 24.6114 13.1363 23.4655 14.5385 23.4655ZM29.4615 23.4655H26.0755C24.6732 23.4655 23.537 24.6114 23.537 26.0255V29.44C23.537 30.8532 24.6732 32 26.0755 32H29.4615C30.8637 32 32 30.8532 32 29.44V26.0255C32 24.6114 30.8637 23.4655 29.4615 23.4655Z" fill="#5384ED"/>
</svg>
