<svg width="48" height="48" viewBox="0 0 48 48" fill="none" xmlns="http://www.w3.org/2000/svg">
<path d="M0 12C0 5.37258 5.37258 0 12 0H36C42.6274 0 48 5.37258 48 12V36C48 42.6274 42.6274 48 36 48H12C5.37258 48 0 42.6274 0 36V12Z" fill="#F5F8FA"/>
<path d="M28.19 14H19.81C16.17 14 14 16.17 14 19.81V28.18C14 31.83 16.17 34 19.81 34H28.18C31.82 34 33.99 31.83 33.99 28.19V19.81C34 16.17 31.83 14 28.19 14ZM28 24.75H24.75V28C24.75 28.41 24.41 28.75 24 28.75C23.59 28.75 23.25 28.41 23.25 28V24.75H20C19.59 24.75 19.25 24.41 19.25 24C19.25 23.59 19.59 23.25 20 23.25H23.25V20C23.25 19.59 23.59 19.25 24 19.25C24.41 19.25 24.75 19.59 24.75 20V23.25H28C28.41 23.25 28.75 23.59 28.75 24C28.75 24.41 28.41 24.75 28 24.75Z" fill="#5384ED"/>
</svg>
