<svg width="48" height="48" viewBox="0 0 48 48" fill="none" xmlns="http://www.w3.org/2000/svg">
<path d="M0 12C0 5.37258 5.37258 0 12 0H36C42.6274 0 48 5.37258 48 12V36C48 42.6274 42.6274 48 36 48H12C5.37258 48 0 42.6274 0 36V12Z" fill="#F5F8FA"/>
<path d="M24 14C18.49 14 14 18.49 14 24C14 29.51 18.49 34 24 34C29.51 34 34 29.51 34 24C34 18.49 29.51 14 24 14ZM28.35 27.57C28.21 27.81 27.96 27.94 27.7 27.94C27.57 27.94 27.44 27.91 27.32 27.83L24.22 25.98C23.45 25.52 22.88 24.51 22.88 23.62V19.52C22.88 19.11 23.22 18.77 23.63 18.77C24.04 18.77 24.38 19.11 24.38 19.52V23.62C24.38 23.98 24.68 24.51 24.99 24.69L28.09 26.54C28.45 26.75 28.57 27.21 28.35 27.57Z" fill="#5384ED"/>
</svg>
