<svg width="48" height="48" viewBox="0 0 48 48" fill="none" xmlns="http://www.w3.org/2000/svg">
<path d="M0 12C0 5.37258 5.37258 0 12 0H36C42.6274 0 48 5.37258 48 12V36C48 42.6274 42.6274 48 36 48H12C5.37258 48 0 42.6274 0 36V12Z" fill="#F5F8FA"/>
<path opacity="0.4" d="M26.35 14H21.65C20.61 14 19.76 14.84 19.76 15.88V16.82C19.76 17.86 20.6 18.7 21.64 18.7H26.35C27.39 18.7 28.23 17.86 28.23 16.82V15.88C28.24 14.84 27.39 14 26.35 14Z" fill="#5384ED"/>
<path d="M29.24 16.82C29.24 18.41 27.94 19.71 26.35 19.71H21.65C20.06 19.71 18.76 18.41 18.76 16.82C18.76 16.26 18.16 15.91 17.66 16.17C16.25 16.92 15.29 18.41 15.29 20.12V29.53C15.29 31.99 17.3 34 19.76 34H28.24C30.7 34 32.71 31.99 32.71 29.53V20.12C32.71 18.41 31.75 16.92 30.34 16.17C29.84 15.91 29.24 16.26 29.24 16.82ZM27.34 24.73L23.34 28.73C23.19 28.88 23 28.95 22.81 28.95C22.62 28.95 22.43 28.88 22.28 28.73L20.78 27.23C20.49 26.94 20.49 26.46 20.78 26.17C21.07 25.88 21.55 25.88 21.84 26.17L22.81 27.14L26.28 23.67C26.57 23.38 27.05 23.38 27.34 23.67C27.63 23.96 27.63 24.44 27.34 24.73Z" fill="#5384ED"/>
</svg>
