<svg width="1260" height="1091" viewBox="0 0 1260 1091" fill="none" xmlns="http://www.w3.org/2000/svg">
<path d="M304 116C326.091 116 344 98.0914 344 76C344 53.9086 326.091 36 304 36C281.909 36 264 53.9086 264 76C264 98.0914 281.909 116 304 116Z" fill="#5384ED"/>
<path d="M326.889 99.1112C327.556 99.3334 328.222 99.6667 328.778 100C329.333 100.556 329.778 101.222 329.889 102V106.556C326.889 109.111 323.556 111.111 320 112.667L323 98.0001L324.556 98.4445L326.889 99.1112Z" fill="#EAF0EE"/>
<path d="M281.111 99.1112C280.444 99.3334 279.778 99.6667 279.222 100C278.667 100.556 278.222 101.222 278.111 102V106.556C281.111 109.111 284.444 111.111 288 112.667L285 98.0001L283.444 98.4445L281.111 99.1112Z" fill="#EAF0EE"/>
<path d="M317.222 67.2222C314.111 67.5555 311 67.1111 308.111 66C306.111 65.3333 304.222 64.1111 302.667 62.5555C301.444 61.3333 300.444 60 299.556 58.4444C298.333 58.5555 297.222 59 296.222 59.4444C295.222 60 294.444 60.5555 293.667 61.2222C292.111 62.7777 291.111 64.6666 290.778 66.6666V74.7777C290.778 75.6666 291 76.5555 291.333 77.4444C291.889 79.1111 292.889 80.7777 294.222 82.1111C295.889 84.2222 298 85.8888 300.333 87.2222C300.889 87.5555 301.667 87.7777 302.333 87.8888C303.556 88.2222 304.778 88.2222 305.889 87.8888C306.556 87.6666 307.222 87.4444 307.889 87.2222C310.333 85.8888 312.333 84.2222 314 82.1111C315.333 80.6666 316.222 79.1111 316.889 77.4444C317.222 76.5555 317.333 75.6666 317.444 74.7777L317.222 67.2222Z" fill="#FFE1AB"/>
<path d="M317.333 58.2222C317.222 57.3333 317 56.3333 316.667 55.5556C316.111 54.3333 315.333 53.1111 314.222 52.3333C312.222 50.6667 309.556 50.1111 306.889 49.7778C305.333 49.5556 303.667 49.4444 302.111 49.5556C299.667 49.6667 297.333 50.2222 295.222 51.3333C294.111 51.8889 293.111 52.7778 292.222 53.7778C291.222 55.3333 290.667 57 290.444 58.6667C289.889 61.3333 290.111 64.2222 290.778 66.7778C291.222 64.6667 292.222 62.8889 293.667 61.3333C294.444 60.6667 295.222 59.8889 296.222 59.5556C297.333 59 298.444 58.7778 299.556 58.5556C300.444 60.1111 301.444 61.3333 302.667 62.6667C304.222 64.2222 306.111 65.3333 308.111 66.1111C311.556 67.4444 315.667 67.7778 318.889 66.8889C320.111 66.5556 321.111 66 322 65.1111C320.778 65.3333 319.444 65 318.444 64.3333C317.889 63.8889 317.444 63.3333 317.111 62.7778C318.889 63.5556 320.889 63.1111 322.111 61.5556C321.333 61.5556 320.556 61.3333 319.889 61C318.889 60.2222 317.889 59.2222 317.333 58.2222Z" fill="#424242"/>
<path d="M317.222 67.2222C317.444 67.2222 317.556 67.2222 317.778 67.1111C318.111 67.4444 318.333 67.6666 318.556 68.1111C318.889 68.7778 319.111 69.6666 319 70.4444C318.889 72 318.333 73.6666 317.333 74.8889L317.222 67.2222Z" fill="#FFE1AB"/>
<path d="M298 85.8889C298.667 86.4445 299.444 86.8889 300.222 87.3334C300.778 87.6667 301.556 87.8889 302.222 88C303.444 88.3334 304.667 88.3334 305.778 88C306.444 87.7778 307.111 87.5556 307.778 87.3334C308.556 86.8889 309.333 86.5556 310 85.8889V93.2223L304 96.4445L298 93.2223V85.8889Z" fill="#EDD1BC"/>
<path d="M307 101C307 101.333 306.889 101.556 306.556 101.556L305.889 102C305.778 102 305.778 102.111 305.667 102.111H305.444C305.778 103.778 306.111 105.444 306.444 107L308.444 102.444L303.889 96.3334L306.889 100.444L307 101Z" fill="#EAF0EE"/>
<path d="M299.444 102.556L301.444 107.111C301.778 105.444 302.111 103.778 302.444 102.222H302.333C302.222 102.222 302.222 102.222 302.111 102.111L301.444 101.667C301.222 101.556 301 101.222 301 101V100.556L304 96.4445L299.444 102.556Z" fill="#EAF0EE"/>
<path d="M316.556 96.1111C315 95.5555 313.556 95 312 94.3333L310 101.111C309.889 101.667 309.556 102 309.444 102.444L309.222 102.667C309 103 308.778 103 308.667 102.667V102.556L306.667 107.111C307.222 109.667 307.667 112.222 308.222 114.778L308 115.889C312.222 115.444 316.333 114.444 320.111 112.778L323.111 98.1111C320.889 97.4444 318.667 96.8889 316.556 96.1111Z" fill="#102042"/>
<path d="M301.444 107.111L299.444 102.555V102.667C299.222 103 299 103 298.889 102.667L298.667 102.444C298.333 102 298.111 101.667 298.111 101.111L296.111 94.4444C294.556 95 293.111 95.7777 291.556 96.2222C289.444 96.8888 287.222 97.5555 285 98.1111L288 112.778C291.778 114.444 295.889 115.555 300.111 115.889L299.889 114.778C300.444 112.222 301 109.667 301.444 107.111Z" fill="#102042"/>
<path d="M308.667 102.667C308.889 103 309.111 103 309.222 102.667L309.444 102.444C309.778 102 310 101.667 310 101.111L312 94.4444L310 93.3333L304 96.5555L308.667 102.667Z" fill="#EAF0EE"/>
<path d="M298.556 102.444L298.778 102.667C299 103 299.222 103 299.333 102.667L304 96.4444L298 93.2222L296 94.3333L298 101.111C298.111 101.667 298.333 102 298.556 102.444Z" fill="#EAF0EE"/>
<path d="M306.444 107C306.111 105.333 305.778 103.667 305.444 102.111H305.667C305.778 102.111 305.778 102.111 305.889 102L306.556 101.556C306.778 101.444 307 101.111 307 101V100.444L304 96.3334L301 100.444V101C301 101.333 301.111 101.556 301.444 101.667L302.111 102.111C302.222 102.111 302.222 102.222 302.333 102.222H302.556C302.222 103.889 301.889 105.556 301.556 107.111C301 109.667 300.556 112.222 300 114.778L300.222 115.889C302.778 116.111 305.333 116.111 307.889 115.889L308.111 114.778C307.444 112.111 306.889 109.556 306.444 107Z" fill="#FFD109"/>
<path d="M290.778 66.6666V74.7777C289.778 73.4444 289.222 72 289.222 70.3333C289.111 69.5555 289.333 68.7777 289.667 68C289.778 67.4444 290.111 67.1111 290.778 66.6666Z" fill="#FFE1AB"/>
<path d="M301.889 81.5555H306.111" stroke="#494949" stroke-miterlimit="10"/>
<text fill="#1B1B1B" xml:space="preserve" style="white-space: pre" font-family="Inter" font-size="22" letter-spacing="0em"><tspan x="209" y="145.556">Benjamin Johnson</tspan></text>
<text fill="#5384ED" xml:space="preserve" style="white-space: pre" font-family="Roboto" font-size="16" letter-spacing="0em"><tspan x="259.5" y="174.024">35, Manager</tspan></text>
<path d="M950.5 116C972.591 116 990.5 98.0914 990.5 76C990.5 53.9086 972.591 36 950.5 36C928.409 36 910.5 53.9086 910.5 76C910.5 98.0914 928.409 116 950.5 116Z" fill="#5384ED"/>
<path d="M963.5 67.7779V75.889C963.5 76.2223 963.389 76.4445 963.278 76.6667C960.944 82.0001 956.833 86.4445 951.611 89.2223L951.5 89.3334C951.167 89.4445 950.944 89.5556 950.611 89.5556H950.5C950.167 89.5556 949.833 89.4445 949.611 89.3334L949.5 89.2223C944.278 86.4445 940.167 82.0001 937.833 76.6667C937.722 76.4445 937.611 76.1112 937.611 75.889V67.7779C939.722 67.2223 941.833 66.3334 943.611 65.2223C946.5 63.3334 948.833 60.7779 950.5 57.6667C952.167 60.6667 954.5 63.2223 957.389 65.2223C959.278 66.3334 961.278 67.2223 963.5 67.7779Z" fill="#FFE1AB"/>
<path d="M959.167 94.889L956.389 93.4446V86.0001C959.389 83.4446 961.833 80.2223 963.389 76.6668C963.5 76.4446 963.611 76.1112 963.611 75.889V67.7779C961.5 67.2223 959.389 66.3335 957.611 65.2223C954.722 63.3335 952.389 60.7779 950.722 57.6668C949.055 60.6668 946.722 63.2223 943.833 65.2223C941.944 66.4446 939.944 67.3334 937.833 67.7779V75.889C937.833 76.2223 937.944 76.4446 938.055 76.6668C939.611 80.3334 942.055 83.4446 945.055 86.0001V93.4446L942.167 94.889C941.722 95.1112 941.167 95.3334 940.611 95.5557C940.167 95.0001 939.722 94.4446 939.278 93.889C936.611 90.4446 934.944 86.4446 933.611 82.3335C931.722 76.3335 930.722 69.889 931.944 63.6668C932.833 59.4446 934.722 55.2223 937.944 52.4446C939.833 50.889 941.944 49.6668 944.278 49.0001C948.611 47.6668 953.167 47.6668 957.389 49.0001C959.722 49.6668 961.944 50.889 963.722 52.4446C966.944 55.2223 968.833 59.4446 969.722 63.6668C970.944 69.889 969.944 76.2223 968.055 82.3335C966.722 86.4446 965.055 90.5557 962.389 93.889C961.944 94.4446 961.5 95.0001 961.055 95.5557C960.167 95.4446 959.611 95.2223 959.167 94.889Z" fill="#912C2C"/>
<path d="M944.722 94.5557C944.722 97.7779 947.278 100.333 950.5 100.333C953.722 100.333 956.278 97.7779 956.278 94.5557V93.4446L957.833 94.2224V94.4446C957.833 98.5557 954.5 101.889 950.389 101.889C946.278 101.889 942.944 98.5557 942.944 94.4446V94.1113L944.5 93.3335L944.722 94.5557Z" fill="black"/>
<path d="M976.278 101.889C976.278 101.111 975.833 100.333 975.056 100.111L973.5 99.4445C973.056 99.2223 972.722 99.1111 972.278 99L966.167 97.4445C965.611 97.3334 965.167 97.1111 964.611 97L961.722 96C960.833 95.6667 960.056 95.3334 959.167 95L957.944 94.4445V94.6667C957.944 98.7778 954.611 102.111 950.5 102.111C946.389 102.111 943.056 98.7778 943.056 94.6667C943.056 94.5556 943.056 94.4445 943.056 94.3334L941.722 95C940.944 95.4445 940.056 95.7778 939.167 96L936.278 97C935.722 97.1111 935.278 97.3334 934.722 97.4445L928.611 99C928.167 99.1111 927.722 99.2223 927.389 99.4445L925.833 100.111C925.056 100.444 924.611 101.111 924.611 101.889V106.444C939.5 119.111 961.389 119.111 976.278 106.556V101.889Z" fill="black"/>
<path d="M956.278 93.5557V86.1113C954.833 87.3335 953.278 88.4446 951.611 89.3335L951.5 89.4446C951.167 89.5557 950.944 89.6668 950.611 89.6668H950.5C950.167 89.6668 949.833 89.5557 949.611 89.4446L949.5 89.3335C947.833 88.4446 946.278 87.3335 944.833 86.1113V94.6668C944.833 97.889 947.389 100.445 950.611 100.445C953.833 100.445 956.389 97.889 956.389 94.6668L956.278 93.5557C956.389 93.5557 956.278 93.5557 956.278 93.5557Z" fill="#EDD1BC"/>
<path d="M947.833 81.3334H953.167" stroke="#9E745F" stroke-miterlimit="10"/>
<text fill="#1B1B1B" xml:space="preserve" style="white-space: pre" font-family="Inter" font-size="22" letter-spacing="0em"><tspan x="869" y="145.5">Charlotte Smith</tspan></text>
<text fill="#5384ED" xml:space="preserve" style="white-space: pre" font-family="Roboto" font-size="16" letter-spacing="0em"><tspan x="908" y="173.969">46, recruiter</tspan></text>
<rect width="82" height="48" transform="translate(576 231)" fill="#5384ED"/>
<text fill="white" xml:space="preserve" style="white-space: pre" font-family="Roboto" font-size="24" letter-spacing="0em"><tspan x="586" y="263.203">Goals</tspan></text>
<rect width="149" height="48" transform="translate(542 525)" fill="#5384ED"/>
<text fill="white" xml:space="preserve" style="white-space: pre" font-family="Roboto" font-size="24" letter-spacing="0em"><tspan x="552" y="557.203">Frustrations</tspan></text>
<rect width="76" height="48" transform="translate(578 730)" fill="#5384ED"/>
<text fill="white" xml:space="preserve" style="white-space: pre" font-family="Roboto" font-size="24" letter-spacing="0em"><tspan x="588" y="762.203">Story</tspan></text>
<rect width="249" height="48" transform="translate(490 935)" fill="#5384ED"/>
<text fill="white" xml:space="preserve" style="white-space: pre" font-family="Roboto" font-size="24" letter-spacing="0em"><tspan x="500" y="967.203">Attitude &#38; personality</tspan></text>
<path d="M617 396L617 496" stroke="#5384ED" stroke-width="2"/>
<path d="M617 601L617 701" stroke="#5384ED" stroke-width="2"/>
<path d="M617 806L617 906" stroke="#5384ED" stroke-width="2"/>
<text fill="#777777" xml:space="preserve" style="white-space: pre" font-family="Inter" font-size="16" font-weight="300" letter-spacing="0em"><tspan x="152" y="236.318">Spending less time to schedule interviews </tspan><tspan x="152" y="255.318">with candidates&#10;</tspan><tspan x="152" y="274.318">Using less effort to allocate team </tspan><tspan x="152" y="293.318">members for interviews</tspan></text>
<text fill="#777777" xml:space="preserve" style="white-space: pre" font-family="Inter" font-size="16" font-weight="300" letter-spacing="0em"><tspan x="152" y="461.318">&#x201c;I have to write several emails for just </tspan><tspan x="152" y="480.318">scheduling a single interview&#x201d;&#10;</tspan><tspan x="152" y="499.318">&#x201c;If my team member attends an </tspan><tspan x="152" y="518.318">interview, I need to go to his calendar </tspan><tspan x="152" y="537.318">to find his availability&#x201d;&#10;</tspan><tspan x="152" y="556.318">&#x201c;I sometimes not realized there is a </tspan><tspan x="152" y="575.318">conflict between our team member and </tspan><tspan x="152" y="594.318">candidates&#x201d;</tspan></text>
<text fill="#777777" xml:space="preserve" style="white-space: pre" font-family="Inter" font-size="16" font-weight="300" letter-spacing="0em"><tspan x="152" y="700.318">Alex Wu is a Software </tspan><tspan x="152" y="719.318">Engineering Manager with a </tspan><tspan x="152" y="738.318">busy and demanding </tspan><tspan x="152" y="757.318">schedule &#10;</tspan><tspan x="152" y="776.318">He works at a large social </tspan><tspan x="152" y="795.318">media company&#10;</tspan><tspan x="152" y="814.318">Alex is working on collecting </tspan><tspan x="152" y="833.318">and analyzing data </tspan><tspan x="152" y="852.318">technologies</tspan></text>
<text fill="#777777" xml:space="preserve" style="white-space: pre" font-family="Inter" font-size="16" font-weight="300" letter-spacing="0em"><tspan x="152" y="923.318">&#x201c;I am busy with my work, but I </tspan><tspan x="152" y="942.318">love this job&#x201d;&#10;</tspan><tspan x="152" y="961.318">&#x201c;I believe there are better </tspan><tspan x="152" y="980.318">ways to deal with my </tspan><tspan x="152" y="999.318">interview scheduling process&#x201d;</tspan></text>
<text fill="#777777" xml:space="preserve" style="white-space: pre" font-family="Inter" font-size="16" font-weight="300" letter-spacing="0em"><tspan x="808" y="236.318">Easy way to match availability with </tspan><tspan x="808" y="255.318">candidates&#10;</tspan><tspan x="808" y="274.318">Make sure candidates will show up on </tspan><tspan x="808" y="293.318">time&#10;</tspan><tspan x="808" y="312.318">When our hiring managers try to </tspan><tspan x="808" y="331.318">reschedule or cancel an interview, they </tspan><tspan x="808" y="350.318">can do it by themself</tspan></text>
<text fill="#777777" xml:space="preserve" style="white-space: pre" font-family="Inter" font-size="16" font-weight="300" letter-spacing="0em"><tspan x="808" y="480.318">&#x201c;Sometimes made mistakes when helping </tspan><tspan x="808" y="499.318">the hiring manager to reschedule an </tspan><tspan x="808" y="518.318">interviews&#x201d;&#10;</tspan><tspan x="808" y="537.318">&#x201c;Combine availability from several hiring </tspan><tspan x="808" y="556.318">managers is a huge challenge. For some </tspan><tspan x="808" y="575.318">of the interviews, hiring managers want </tspan><tspan x="808" y="594.318">to interview candidates by themself&#x201d; </tspan></text>
<text fill="#777777" xml:space="preserve" style="white-space: pre" font-family="Inter" font-size="16" font-weight="300" letter-spacing="0em"><tspan x="808" y="713.318">Malissa L. is an </tspan><tspan x="808" y="732.318">immigrant to the United </tspan><tspan x="808" y="751.318">State.&#10;</tspan><tspan x="808" y="770.318">She move here 20 years </tspan><tspan x="808" y="789.318">ago.&#10;</tspan><tspan x="808" y="808.318">She works for a large </tspan><tspan x="808" y="827.318">tech company as a </tspan><tspan x="808" y="846.318">senior recruiter</tspan></text>
<text fill="#777777" xml:space="preserve" style="white-space: pre" font-family="Inter" font-size="16" font-weight="300" letter-spacing="0em"><tspan x="808" y="925.318">&#x201c;I like to help our team to find the </tspan><tspan x="808" y="944.318">potential candidate from different </tspan><tspan x="808" y="963.318">portals&#x201d;&#10;</tspan><tspan x="808" y="982.318">If I could spend more time searching for </tspan><tspan x="808" y="1001.32">candidates and less time scheduling with </tspan><tspan x="808" y="1020.32">them, the hiring process will be more </tspan><tspan x="808" y="1039.32">efficient </tspan></text>
</svg>
