<svg width="1260" height="1091" viewBox="0 0 1260 1091" fill="none" xmlns="http://www.w3.org/2000/svg">
<path d="M300.5 116C322.591 116 340.5 98.0914 340.5 76C340.5 53.9086 322.591 36 300.5 36C278.409 36 260.5 53.9086 260.5 76C260.5 98.0914 278.409 116 300.5 116Z" fill="#5384ED"/>
<path d="M323.389 99.1112C324.056 99.3334 324.722 99.6667 325.278 100C325.833 100.556 326.278 101.222 326.389 102V106.556C323.389 109.111 320.056 111.111 316.5 112.667L319.5 98.0001L321.056 98.4445L323.389 99.1112Z" fill="#EAF0EE"/>
<path d="M277.611 99.1112C276.944 99.3334 276.278 99.6667 275.722 100C275.167 100.556 274.722 101.222 274.611 102V106.556C277.611 109.111 280.944 111.111 284.5 112.667L281.5 98.0001L279.944 98.4445L277.611 99.1112Z" fill="#EAF0EE"/>
<path d="M313.722 67.2222C310.611 67.5555 307.5 67.1111 304.611 66C302.611 65.3333 300.722 64.1111 299.167 62.5555C297.944 61.3333 296.944 60 296.056 58.4444C294.833 58.5555 293.722 59 292.722 59.4444C291.722 60 290.944 60.5555 290.167 61.2222C288.611 62.7777 287.611 64.6666 287.278 66.6666V74.7777C287.278 75.6666 287.5 76.5555 287.833 77.4444C288.389 79.1111 289.389 80.7777 290.722 82.1111C292.389 84.2222 294.5 85.8888 296.833 87.2222C297.389 87.5555 298.167 87.7777 298.833 87.8888C300.056 88.2222 301.278 88.2222 302.389 87.8888C303.056 87.6666 303.722 87.4444 304.389 87.2222C306.833 85.8888 308.833 84.2222 310.5 82.1111C311.833 80.6666 312.722 79.1111 313.389 77.4444C313.722 76.5555 313.833 75.6666 313.944 74.7777L313.722 67.2222Z" fill="#FFE1AB"/>
<path d="M313.833 58.2222C313.722 57.3333 313.5 56.3333 313.167 55.5556C312.611 54.3333 311.833 53.1111 310.722 52.3333C308.722 50.6667 306.056 50.1111 303.389 49.7778C301.833 49.5556 300.167 49.4444 298.611 49.5556C296.167 49.6667 293.833 50.2222 291.722 51.3333C290.611 51.8889 289.611 52.7778 288.722 53.7778C287.722 55.3333 287.167 57 286.944 58.6667C286.389 61.3333 286.611 64.2222 287.278 66.7778C287.722 64.6667 288.722 62.8889 290.167 61.3333C290.944 60.6667 291.722 59.8889 292.722 59.5556C293.833 59 294.944 58.7778 296.056 58.5556C296.944 60.1111 297.944 61.3333 299.167 62.6667C300.722 64.2222 302.611 65.3333 304.611 66.1111C308.056 67.4444 312.167 67.7778 315.389 66.8889C316.611 66.5556 317.611 66 318.5 65.1111C317.278 65.3333 315.944 65 314.944 64.3333C314.389 63.8889 313.944 63.3333 313.611 62.7778C315.389 63.5556 317.389 63.1111 318.611 61.5556C317.833 61.5556 317.056 61.3333 316.389 61C315.389 60.2222 314.389 59.2222 313.833 58.2222Z" fill="#424242"/>
<path d="M313.722 67.2222C313.944 67.2222 314.056 67.2222 314.278 67.1111C314.611 67.4444 314.833 67.6666 315.056 68.1111C315.389 68.7778 315.611 69.6666 315.5 70.4444C315.389 72 314.833 73.6666 313.833 74.8889L313.722 67.2222Z" fill="#FFE1AB"/>
<path d="M294.5 85.8889C295.167 86.4445 295.944 86.8889 296.722 87.3334C297.278 87.6667 298.056 87.8889 298.722 88C299.944 88.3334 301.167 88.3334 302.278 88C302.944 87.7778 303.611 87.5556 304.278 87.3334C305.056 86.8889 305.833 86.5556 306.5 85.8889V93.2223L300.5 96.4445L294.5 93.2223V85.8889Z" fill="#EDD1BC"/>
<path d="M303.5 101C303.5 101.333 303.389 101.556 303.056 101.556L302.389 102C302.278 102 302.278 102.111 302.167 102.111H301.944C302.278 103.778 302.611 105.444 302.944 107L304.944 102.444L300.389 96.3334L303.389 100.444L303.5 101Z" fill="#EAF0EE"/>
<path d="M295.944 102.556L297.944 107.111C298.278 105.444 298.611 103.778 298.944 102.222H298.833C298.722 102.222 298.722 102.222 298.611 102.111L297.944 101.667C297.722 101.556 297.5 101.222 297.5 101V100.556L300.5 96.4445L295.944 102.556Z" fill="#EAF0EE"/>
<path d="M313.056 96.1111C311.5 95.5555 310.056 95 308.5 94.3333L306.5 101.111C306.389 101.667 306.056 102 305.944 102.444L305.722 102.667C305.5 103 305.278 103 305.167 102.667V102.556L303.167 107.111C303.722 109.667 304.167 112.222 304.722 114.778L304.5 115.889C308.722 115.444 312.833 114.444 316.611 112.778L319.611 98.1111C317.389 97.4444 315.167 96.8889 313.056 96.1111Z" fill="#102042"/>
<path d="M297.944 107.111L295.944 102.555V102.667C295.722 103 295.5 103 295.389 102.667L295.167 102.444C294.833 102 294.611 101.667 294.611 101.111L292.611 94.4444C291.056 95 289.611 95.7777 288.056 96.2222C285.944 96.8888 283.722 97.5555 281.5 98.1111L284.5 112.778C288.278 114.444 292.389 115.555 296.611 115.889L296.389 114.778C296.944 112.222 297.5 109.667 297.944 107.111Z" fill="#102042"/>
<path d="M305.167 102.667C305.389 103 305.611 103 305.722 102.667L305.944 102.444C306.278 102 306.5 101.667 306.5 101.111L308.5 94.4444L306.5 93.3333L300.5 96.5555L305.167 102.667Z" fill="#EAF0EE"/>
<path d="M295.056 102.444L295.278 102.667C295.5 103 295.722 103 295.833 102.667L300.5 96.4444L294.5 93.2222L292.5 94.3333L294.5 101.111C294.611 101.667 294.833 102 295.056 102.444Z" fill="#EAF0EE"/>
<path d="M302.944 107C302.611 105.333 302.278 103.667 301.944 102.111H302.167C302.278 102.111 302.278 102.111 302.389 102L303.056 101.556C303.278 101.444 303.5 101.111 303.5 101V100.444L300.5 96.3334L297.5 100.444V101C297.5 101.333 297.611 101.556 297.944 101.667L298.611 102.111C298.722 102.111 298.722 102.222 298.833 102.222H299.056C298.722 103.889 298.389 105.556 298.056 107.111C297.5 109.667 297.056 112.222 296.5 114.778L296.722 115.889C299.278 116.111 301.833 116.111 304.389 115.889L304.611 114.778C303.944 112.111 303.389 109.556 302.944 107Z" fill="#FFD109"/>
<path d="M287.278 66.6666V74.7777C286.278 73.4444 285.722 72 285.722 70.3333C285.611 69.5555 285.833 68.7777 286.167 68C286.278 67.4444 286.611 67.1111 287.278 66.6666Z" fill="#FFE1AB"/>
<path d="M298.389 81.5555H302.611" stroke="#494949" stroke-miterlimit="10"/>
<text fill="#1B1B1B" xml:space="preserve" style="white-space: pre" font-family="Roboto" font-size="22" letter-spacing="0em"><tspan x="209" y="144.575">Benjamin Johnson</tspan></text>
<text fill="#5384ED" xml:space="preserve" style="white-space: pre" font-family="Roboto" font-size="16" letter-spacing="0em"><tspan x="256" y="173.024">35, Manager</tspan></text>
<path d="M945.5 116C967.591 116 985.5 98.0914 985.5 76C985.5 53.9086 967.591 36 945.5 36C923.409 36 905.5 53.9086 905.5 76C905.5 98.0914 923.409 116 945.5 116Z" fill="#5384ED"/>
<path d="M958.5 67.7779V75.889C958.5 76.2223 958.389 76.4445 958.278 76.6667C955.944 82.0001 951.833 86.4445 946.611 89.2223L946.5 89.3334C946.167 89.4445 945.944 89.5556 945.611 89.5556H945.5C945.167 89.5556 944.833 89.4445 944.611 89.3334L944.5 89.2223C939.278 86.4445 935.167 82.0001 932.833 76.6667C932.722 76.4445 932.611 76.1112 932.611 75.889V67.7779C934.722 67.2223 936.833 66.3334 938.611 65.2223C941.5 63.3334 943.833 60.7779 945.5 57.6667C947.167 60.6667 949.5 63.2223 952.389 65.2223C954.278 66.3334 956.278 67.2223 958.5 67.7779Z" fill="#FFE1AB"/>
<path d="M954.167 94.889L951.389 93.4446V86.0001C954.389 83.4446 956.833 80.2223 958.389 76.6668C958.5 76.4446 958.611 76.1112 958.611 75.889V67.7779C956.5 67.2223 954.389 66.3335 952.611 65.2223C949.722 63.3335 947.389 60.7779 945.722 57.6668C944.055 60.6668 941.722 63.2223 938.833 65.2223C936.944 66.4446 934.944 67.3334 932.833 67.7779V75.889C932.833 76.2223 932.944 76.4446 933.055 76.6668C934.611 80.3334 937.055 83.4446 940.055 86.0001V93.4446L937.167 94.889C936.722 95.1112 936.167 95.3334 935.611 95.5557C935.167 95.0001 934.722 94.4446 934.278 93.889C931.611 90.4446 929.944 86.4446 928.611 82.3335C926.722 76.3335 925.722 69.889 926.944 63.6668C927.833 59.4446 929.722 55.2223 932.944 52.4446C934.833 50.889 936.944 49.6668 939.278 49.0001C943.611 47.6668 948.167 47.6668 952.389 49.0001C954.722 49.6668 956.944 50.889 958.722 52.4446C961.944 55.2223 963.833 59.4446 964.722 63.6668C965.944 69.889 964.944 76.2223 963.055 82.3335C961.722 86.4446 960.055 90.5557 957.389 93.889C956.944 94.4446 956.5 95.0001 956.055 95.5557C955.167 95.4446 954.611 95.2223 954.167 94.889Z" fill="#912C2C"/>
<path d="M939.722 94.5557C939.722 97.7779 942.278 100.333 945.5 100.333C948.722 100.333 951.278 97.7779 951.278 94.5557V93.4446L952.833 94.2224V94.4446C952.833 98.5557 949.5 101.889 945.389 101.889C941.278 101.889 937.944 98.5557 937.944 94.4446V94.1113L939.5 93.3335L939.722 94.5557Z" fill="black"/>
<path d="M971.278 101.889C971.278 101.111 970.833 100.333 970.056 100.111L968.5 99.4445C968.056 99.2223 967.722 99.1111 967.278 99L961.167 97.4445C960.611 97.3334 960.167 97.1111 959.611 97L956.722 96C955.833 95.6667 955.056 95.3334 954.167 95L952.944 94.4445V94.6667C952.944 98.7778 949.611 102.111 945.5 102.111C941.389 102.111 938.056 98.7778 938.056 94.6667C938.056 94.5556 938.056 94.4445 938.056 94.3334L936.722 95C935.944 95.4445 935.056 95.7778 934.167 96L931.278 97C930.722 97.1111 930.278 97.3334 929.722 97.4445L923.611 99C923.167 99.1111 922.722 99.2223 922.389 99.4445L920.833 100.111C920.056 100.444 919.611 101.111 919.611 101.889V106.444C934.5 119.111 956.389 119.111 971.278 106.556V101.889Z" fill="black"/>
<path d="M951.278 93.5557V86.1113C949.833 87.3335 948.278 88.4446 946.611 89.3335L946.5 89.4446C946.167 89.5557 945.944 89.6668 945.611 89.6668H945.5C945.167 89.6668 944.833 89.5557 944.611 89.4446L944.5 89.3335C942.833 88.4446 941.278 87.3335 939.833 86.1113V94.6668C939.833 97.889 942.389 100.445 945.611 100.445C948.833 100.445 951.389 97.889 951.389 94.6668L951.278 93.5557C951.389 93.5557 951.278 93.5557 951.278 93.5557Z" fill="#EDD1BC"/>
<path d="M942.833 81.3334H948.167" stroke="#9E745F" stroke-miterlimit="10"/>
<text fill="#1B1B1B" xml:space="preserve" style="white-space: pre" font-family="Roboto" font-size="22" letter-spacing="0em"><tspan x="869" y="144.52">Charlotte Smith</tspan></text>
<text fill="#5384ED" xml:space="preserve" style="white-space: pre" font-family="Roboto" font-size="16" letter-spacing="0em"><tspan x="903" y="172.969">46, recruiter</tspan></text>
<rect width="82" height="48" transform="translate(574 231)" fill="#5384ED"/>
<text fill="white" xml:space="preserve" style="white-space: pre" font-family="Roboto" font-size="24" letter-spacing="0em"><tspan x="584" y="263.203">Goals</tspan></text>
<rect width="149" height="48" transform="translate(540 479)" fill="#5384ED"/>
<text fill="white" xml:space="preserve" style="white-space: pre" font-family="Roboto" font-size="24" letter-spacing="0em"><tspan x="550" y="511.203">Frustrations</tspan></text>
<rect width="76" height="48" transform="translate(577 709)" fill="#5384ED"/>
<text fill="white" xml:space="preserve" style="white-space: pre" font-family="Roboto" font-size="24" letter-spacing="0em"><tspan x="587" y="741.203">Story</tspan></text>
<rect width="249" height="48" transform="translate(490 935)" fill="#5384ED"/>
<text fill="white" xml:space="preserve" style="white-space: pre" font-family="Roboto" font-size="24" letter-spacing="0em"><tspan x="500" y="967.203">Attitude &#38; personality</tspan></text>
<path d="M615 325L615 425" stroke="#5384ED" stroke-width="2"/>
<path d="M615 570L615 670" stroke="#5384ED" stroke-width="2"/>
<path d="M615 789L615 889" stroke="#5384ED" stroke-width="2"/>
<text fill="#777777" xml:space="preserve" style="white-space: pre" font-family="Roboto" font-size="16" font-weight="300" letter-spacing="0em"><tspan x="152" y="235.969">Spending less time to schedule interviews </tspan><tspan x="152" y="254.969">with candidates&#10;</tspan><tspan x="152" y="273.969">Using less effort to allocate team members </tspan><tspan x="152" y="292.969">for interviews</tspan></text>
<text fill="#777777" xml:space="preserve" style="white-space: pre" font-family="Roboto" font-size="16" font-weight="300" letter-spacing="0em"><tspan x="152" y="451.969">&#x201c;I have to write several emails for just </tspan><tspan x="152" y="470.969">scheduling a single interview&#x201d;&#10;</tspan><tspan x="152" y="489.969">&#x201c;If my team member attends an interview, </tspan><tspan x="152" y="508.969">I need to go to his calendar to find his </tspan><tspan x="152" y="527.969">availability&#x201d;&#10;</tspan><tspan x="152" y="546.969">&#x201c;I sometimes not realized there is a </tspan><tspan x="152" y="565.969">conflict between our team member and </tspan><tspan x="152" y="584.969">candidates&#x201d;</tspan></text>
<text fill="#777777" xml:space="preserve" style="white-space: pre" font-family="Roboto" font-size="16" font-weight="300" letter-spacing="0em"><tspan x="152" y="688.969">Alex Wu is a Software </tspan><tspan x="152" y="707.969">Engineering Manager with a </tspan><tspan x="152" y="726.969">busy and demanding schedule &#10;</tspan><tspan x="152" y="745.969">He works at a large social </tspan><tspan x="152" y="764.969">media company&#10;</tspan><tspan x="152" y="783.969">Alex is working on collecting </tspan><tspan x="152" y="802.969">and analyzing data </tspan><tspan x="152" y="821.969">technologies</tspan></text>
<text fill="#777777" xml:space="preserve" style="white-space: pre" font-family="Roboto" font-size="16" font-weight="300" letter-spacing="0em"><tspan x="152" y="922.969">&#x201c;I am busy with my work, but I </tspan><tspan x="152" y="941.969">love this job&#x201d;&#10;</tspan><tspan x="152" y="960.969">&#x201c;I believe there are better ways </tspan><tspan x="152" y="979.969">to deal with my interview </tspan><tspan x="152" y="998.969">scheduling process&#x201d;</tspan></text>
<text fill="#777777" xml:space="preserve" style="white-space: pre" font-family="Roboto" font-size="16" font-weight="300" letter-spacing="0em"><tspan x="808" y="235.969">Easy way to match availability with </tspan><tspan x="808" y="254.969">candidates&#10;</tspan><tspan x="808" y="273.969">Make sure candidates will show up on time&#10;</tspan><tspan x="808" y="292.969">When our hiring managers try to reschedule </tspan><tspan x="808" y="311.969">or cancel an interview, they can do it by </tspan><tspan x="808" y="330.969">themself</tspan></text>
<text fill="#777777" xml:space="preserve" style="white-space: pre" font-family="Roboto" font-size="16" font-weight="300" letter-spacing="0em"><tspan x="808" y="451.969">&#x201c;Sometimes made mistakes when helping </tspan><tspan x="808" y="470.969">the hiring manager to reschedule an </tspan><tspan x="808" y="489.969">interviews&#x201d;&#10;</tspan><tspan x="808" y="508.969">&#x201c;Combine availability from several hiring </tspan><tspan x="808" y="527.969">managers is a huge challenge. For some of </tspan><tspan x="808" y="546.969">the interviews, hiring managers want to </tspan><tspan x="808" y="565.969">interview candidates by themself&#x201d; </tspan></text>
<text fill="#777777" xml:space="preserve" style="white-space: pre" font-family="Roboto" font-size="16" font-weight="300" letter-spacing="0em"><tspan x="808" y="688.969">Malissa L. is an immigrant </tspan><tspan x="808" y="707.969">to the United State.&#10;</tspan><tspan x="808" y="726.969">She move here 20 years </tspan><tspan x="808" y="745.969">ago.&#10;</tspan><tspan x="808" y="764.969">She works for a large tech </tspan><tspan x="808" y="783.969">company as a senior </tspan><tspan x="808" y="802.969">recruiter</tspan></text>
<text fill="#777777" xml:space="preserve" style="white-space: pre" font-family="Roboto" font-size="16" font-weight="300" letter-spacing="0em"><tspan x="808" y="925.969">&#x201c;I like to help our team to find the potential </tspan><tspan x="808" y="944.969">candidate from different portals&#x201d;&#10;</tspan><tspan x="808" y="963.969">If I could spend more time searching for </tspan><tspan x="808" y="982.969">candidates and less time scheduling with </tspan><tspan x="808" y="1001.97">them, the hiring process will be more </tspan><tspan x="808" y="1020.97">efficient </tspan></text>
</svg>
