<?xml version="1.0" encoding="utf-8"?>
<!-- Generator: Adobe Illustrator 25.2.1, SVG Export Plug-In . SVG Version: 6.00 Build 0)  -->
<svg version="1.1" id="Layer_1" xmlns="http://www.w3.org/2000/svg" xmlns:xlink="http://www.w3.org/1999/xlink" x="0px" y="0px"
	 viewBox="0 0 561 561" style="enable-background:new 0 0 561 561;" xml:space="preserve">
<style type="text/css">
	.st0{clip-path:url(#SVGID_2_);}
	.st1{fill:#FCAC15;}
	.st2{fill:#922D87;}
	.st3{fill:#FFFFFF;filter:url(#Adobe_OpacityMaskFilter);}
	.st4{mask:url(#path-2-inside-1_489_2160_1_);fill:#150C0C;}
	.st5{fill-rule:evenodd;clip-rule:evenodd;fill:#C89583;}
	.st6{fill-rule:evenodd;clip-rule:evenodd;fill:#FFFFFF;filter:url(#Adobe_OpacityMaskFilter_1_);}
	.st7{mask:url(#path-4-inside-2_489_2160_1_);fill:#150C0C;}
	.st8{fill:#611558;stroke:#150C0C;stroke-width:8;}
	.st9{fill:#B78276;stroke:#150C0C;stroke-width:8;}
	.st10{fill:#EDC9BC;stroke:#150C0C;stroke-width:8;}
	.st11{fill-rule:evenodd;clip-rule:evenodd;fill:#E3E0D9;}
	.st12{fill:#FFFFFF;filter:url(#Adobe_OpacityMaskFilter_2_);}
	.st13{fill-rule:evenodd;clip-rule:evenodd;}
	.st14{mask:url(#path-10-outside-3_489_2160_1_);fill:#150C0C;}
	.st15{fill:#E3E0D9;}
	.st16{fill:none;stroke:#150C0C;stroke-width:8;}
	.st17{fill:#150C0C;}
	.st18{fill:#FFFFFF;fill-opacity:0.9;}
	.st19{fill:#9C6458;fill-opacity:0.5;}
	.st20{fill:#901A3E;}
	.st21{fill:none;stroke:#150C0C;stroke-width:6;stroke-linecap:round;}
	.st22{fill:none;stroke:#000000;stroke-width:7;}
</style>
<g>
	<defs>
		<path id="SVGID_1_" d="M276,0h9c152.4,0,276,123.6,276,276v9c0,152.4-123.6,276-276,276h-9C123.6,561,0,437.4,0,285v-9
			C0,123.6,123.6,0,276,0z"/>
	</defs>
	<clipPath id="SVGID_2_">
		<use xlink:href="#SVGID_1_"  style="overflow:visible;"/>
	</clipPath>
	<g class="st0">
		<path class="st1" d="M276,0h9c152.4,0,276,123.6,276,276v9c0,152.4-123.6,276-276,276h-9C123.6,561,0,437.4,0,285v-9
			C0,123.6,123.6,0,276,0z"/>
		<path class="st2" d="M136.2,473.5c-1.4-37.3,30.8-64.5,68.1-64.5h164.4c38.9,0,71.9,29.6,69.5,68.4c-1.5,24.5-5.6,51.4-14.7,72.7
			c-7.8,18.3-27.9,25.9-47.9,25.9c-49.3,0-119.3,0-174.5,0c-19.9,0-40.1-7.4-48.7-25.3C141.3,527.5,137.2,498.9,136.2,473.5z"/>
		<defs>
			<filter id="Adobe_OpacityMaskFilter" filterUnits="userSpaceOnUse" x="128.2" y="401" width="318.1" height="183">
				<feColorMatrix  type="matrix" values="1 0 0 0 0  0 1 0 0 0  0 0 1 0 0  0 0 0 1 0"/>
			</filter>
		</defs>
		<mask maskUnits="userSpaceOnUse" x="128.2" y="401" width="318.1" height="183" id="path-2-inside-1_489_2160_1_">
			<path class="st3" d="M136.2,473.5c-1.4-37.3,30.8-64.5,68.1-64.5h164.4c38.9,0,71.9,29.6,69.5,68.4c-1.5,24.5-5.6,51.4-14.7,72.7
				c-7.8,18.3-27.9,25.9-47.9,25.9c-49.3,0-119.3,0-174.5,0c-19.9,0-40.1-7.4-48.7-25.3C141.3,527.5,137.2,498.9,136.2,473.5z"/>
		</mask>
		<path class="st4" d="M201.2,576v8V576z M152.4,550.7l-7.2,3.5L152.4,550.7z M438.2,477.4l-8-0.5L438.2,477.4z M430.2,476.9
			c-1.5,24.2-5.5,50-14.1,70.1l14.7,6.3c9.7-22.6,13.8-50.5,15.3-75.4L430.2,476.9z M375.6,568c-0.1,0-0.2,0-0.3,0
			c-0.1,0-0.2,0-0.3,0c-0.1,0-0.2,0-0.3,0c-0.1,0-0.2,0-0.3,0c-0.1,0-0.2,0-0.3,0c-0.1,0-0.2,0-0.3,0c-0.1,0-0.2,0-0.3,0
			c-0.1,0-0.2,0-0.3,0c-0.1,0-0.2,0-0.3,0c-0.1,0-0.2,0-0.3,0c-0.1,0-0.2,0-0.3,0c-0.1,0-0.2,0-0.3,0c-0.1,0-0.2,0-0.3,0
			s-0.2,0-0.3,0c-0.1,0-0.2,0-0.3,0c-0.1,0-0.2,0-0.3,0s-0.2,0-0.3,0c-0.1,0-0.2,0-0.3,0s-0.2,0-0.3,0c-0.1,0-0.2,0-0.3,0
			s-0.2,0-0.3,0c-0.1,0-0.2,0-0.3,0c-0.1,0-0.2,0-0.3,0c-0.1,0-0.2,0-0.3,0c-0.1,0-0.2,0-0.3,0s-0.2,0-0.3,0c-0.1,0-0.2,0-0.3,0
			c-0.1,0-0.2,0-0.3,0c-0.1,0-0.2,0-0.3,0c-0.1,0-0.2,0-0.3,0c-0.1,0-0.2,0-0.3,0c-0.1,0-0.2,0-0.3,0c-0.1,0-0.2,0-0.3,0
			c-0.1,0-0.2,0-0.3,0c-0.1,0-0.2,0-0.3,0c-0.1,0-0.2,0-0.3,0c-0.1,0-0.2,0-0.3,0c-0.1,0-0.2,0-0.3,0c-0.1,0-0.2,0-0.3,0
			c-0.1,0-0.2,0-0.3,0c-0.1,0-0.2,0-0.3,0c-0.1,0-0.2,0-0.3,0c-0.1,0-0.2,0-0.3,0c-0.1,0-0.2,0-0.3,0c-0.1,0-0.2,0-0.3,0
			s-0.2,0-0.3,0s-0.2,0-0.3,0s-0.2,0-0.3,0s-0.2,0-0.3,0s-0.2,0-0.3,0c-0.1,0-0.2,0-0.3,0c-0.1,0-0.2,0-0.3,0s-0.2,0-0.3,0
			s-0.2,0-0.3,0s-0.2,0-0.3,0s-0.2,0-0.3,0s-0.2,0-0.3,0s-0.2,0-0.3,0c-0.1,0-0.2,0-0.3,0c-0.1,0-0.2,0-0.3,0c-0.1,0-0.2,0-0.3,0
			c-0.1,0-0.2,0-0.3,0c-0.1,0-0.2,0-0.3,0s-0.2,0-0.3,0c-0.1,0-0.2,0-0.3,0c-0.1,0-0.2,0-0.3,0c-0.1,0-0.2,0-0.3,0
			c-0.1,0-0.2,0-0.3,0c-0.1,0-0.2,0-0.3,0c-0.1,0-0.2,0-0.3,0c-0.1,0-0.2,0-0.3,0s-0.2,0-0.3,0s-0.2,0-0.3,0c-0.1,0-0.2,0-0.3,0
			c-0.1,0-0.2,0-0.3,0c-0.1,0-0.2,0-0.3,0c-0.1,0-0.2,0-0.3,0s-0.2,0-0.3,0s-0.2,0-0.3,0s-0.2,0-0.3,0c-0.1,0-0.2,0-0.3,0
			s-0.2,0-0.3,0c-0.1,0-0.2,0-0.3,0c-0.1,0-0.2,0-0.3,0c-0.6,0-0.1,0-0.6,0c-0.1,0-0.2,0-0.3,0c-0.1,0-0.2,0-0.3,0s-0.2,0-0.3,0
			c-0.1,0-0.2,0-0.3,0c-0.1,0-0.2,0-0.3,0c-0.1,0-0.2,0-0.3,0c-0.1,0-0.2,0-0.3,0s-0.2,0-0.3,0c-0.1,0-0.2,0-0.3,0
			c-0.1,0-0.2,0-0.3,0s-0.2,0-0.3,0s-0.2,0-0.3,0s-0.2,0-0.3,0c-0.1,0-0.2,0-0.3,0c-0.1,0-0.2,0-0.3,0c-0.1,0-0.2,0-0.3,0
			c-0.1,0-0.2,0-0.3,0c-0.1,0-0.2,0-0.3,0c-0.1,0-0.2,0-0.3,0c-0.1,0-0.2,0-0.3,0c-0.1,0-0.2,0-0.3,0c-0.1,0-0.2,0-0.3,0
			c-0.1,0-0.2,0-0.3,0c-0.1,0-0.2,0-0.3,0c-0.1,0-0.2,0-0.3,0c-0.1,0-0.2,0-0.3,0c-0.1,0-0.2,0-0.3,0c-0.1,0-0.2,0-0.3,0
			s-0.2,0-0.3,0c-0.1,0-0.2,0-0.3,0c-0.1,0-0.2,0-0.3,0s-0.2,0-0.3,0c-0.1,0-0.2,0-0.3,0c-0.1,0-0.2,0-0.3,0c-0.1,0-0.2,0-0.3,0
			c-0.1,0-0.2,0-0.3,0c-0.1,0-0.2,0-0.3,0c-0.1,0-0.2,0-0.3,0c-0.1,0-0.2,0-0.3,0s-0.2,0-0.3,0s-0.2,0-0.3,0s-0.2,0-0.3,0
			s-0.2,0-0.3,0c-0.1,0-0.2,0-0.3,0c-0.1,0-0.2,0-0.3,0c-0.1,0-0.2,0-0.3,0c-0.1,0-0.2,0-0.3,0c-0.1,0-0.2,0-0.3,0
			c-0.1,0-0.2,0-0.3,0c-0.1,0-0.2,0-0.3,0s-0.2,0-0.3,0c-0.1,0-0.2,0-0.3,0c-0.1,0-0.2,0-0.3,0s-0.2,0-0.3,0c-0.1,0-0.2,0-0.3,0
			c-0.1,0-0.2,0-0.3,0c-0.1,0-0.2,0-0.3,0c-0.1,0-0.2,0-0.3,0c-0.1,0-0.2,0-0.3,0c-0.1,0-0.2,0-0.3,0c-0.1,0-0.2,0-0.3,0
			c-0.1,0-0.2,0-0.3,0c-0.1,0-0.2,0-0.3,0c-0.1,0-0.2,0-0.3,0c-0.1,0-0.2,0-0.3,0c-0.1,0-0.2,0-0.3,0c-0.1,0-0.2,0-0.3,0
			c-0.1,0-0.2,0-0.3,0c-0.1,0-0.2,0-0.3,0c-0.1,0-0.2,0-0.3,0c-0.1,0-0.2,0-0.3,0c-0.1,0-0.2,0-0.3,0c-0.1,0-0.2,0-0.3,0
			c-0.1,0-0.2,0-0.3,0c-0.1,0-0.2,0-0.3,0c-0.1,0-0.2,0-0.3,0c-0.1,0-0.2,0-0.3,0c-0.1,0-0.2,0-0.3,0c-0.1,0-0.2,0-0.3,0
			c-0.1,0-0.2,0-0.3,0c-0.1,0-0.2,0-0.3,0s-0.2,0-0.3,0c-0.1,0-0.2,0-0.3,0c-0.1,0-0.2,0-0.3,0c-0.1,0-0.2,0-0.3,0
			c-0.1,0-0.2,0-0.3,0s-0.2,0-0.3,0s-0.2,0-0.3,0s-0.2,0-0.3,0c-0.1,0-0.2,0-0.3,0s-0.2,0-0.3,0s-0.2,0-0.3,0c-0.1,0-0.2,0-0.3,0
			s-0.2,0-0.3,0s-0.2,0-0.3,0c-0.1,0-0.2,0-0.3,0s-0.2,0-0.3,0s-0.2,0-0.3,0s-0.2,0-0.3,0c-0.1,0-0.2,0-0.4,0c-0.1,0-0.2,0-0.3,0
			c-0.1,0-0.2,0-0.4,0s-0.2,0-0.4,0s-0.2,0-0.4,0c-0.1,0-0.2,0-0.3,0c-0.1,0-0.2,0-0.4,0s-0.2,0-0.4,0c-0.1,0-0.2,0-0.3,0
			s-0.2,0-0.4,0s-0.2,0-0.4,0c-0.1,0-0.2,0-0.4,0s-0.2,0-0.4,0s-0.2,0-0.4,0s-0.2,0-0.4,0c-0.1,0-0.2,0-0.4,0c-0.1,0-0.2,0-0.4,0
			c-0.1,0-0.2,0-0.4,0c-0.1,0-0.2,0-0.4,0c-0.1,0-0.2,0-0.4,0c-0.1,0-0.2,0-0.4,0c-0.1,0-0.2,0-0.4,0c-0.1,0-0.2,0-0.4,0
			c-0.1,0-0.2,0-0.4,0c-0.1,0-0.2,0-0.4,0s-0.2,0-0.4,0s-0.2,0-0.4,0s-0.2,0-0.4,0c-0.1,0-0.2,0-0.4,0s-0.2,0-0.4,0
			c-0.1,0-0.2,0-0.4,0c-0.1,0-0.2,0-0.4,0c-0.1,0-0.2,0-0.4,0c-0.1,0-0.2,0-0.4,0c-0.1,0-0.2,0-0.4,0c-0.1,0-0.2,0-0.4,0
			c-0.1,0-0.2,0-0.4,0c-0.1,0-0.2,0-0.4,0c-0.1,0-0.2,0-0.4,0c-0.1,0-0.2,0-0.4,0c-0.1,0-0.2,0-0.4,0c-0.1,0-0.2,0-0.4,0
			c-0.1,0-0.2,0-0.4,0c-0.1,0-0.2,0-0.4,0c-0.1,0-0.2,0-0.4,0c-0.1,0-0.2,0-0.4,0c-0.1,0-0.2,0-0.4,0c-0.1,0-0.2,0-0.4,0
			c-0.1,0-0.2,0-0.4,0s-0.2,0-0.4,0c-0.1,0-0.2,0-0.4,0c-0.1,0-0.2,0-0.4,0s-0.2,0-0.4,0c-0.1,0-0.2,0-0.4,0c-0.1,0-0.2,0-0.4,0
			c-0.1,0-0.2,0-0.4,0s-0.2,0-0.4,0c-0.1,0-0.2,0-0.4,0c-0.1,0-0.2,0-0.4,0c-0.1,0-0.2,0-0.4,0c-0.1,0-0.2,0-0.4,0
			c-0.1,0-0.2,0-0.4,0c-0.1,0-0.2,0-0.4,0c-0.1,0-0.2,0-0.4,0c-0.1,0-0.2,0-0.4,0c-0.1,0-0.2,0-0.4,0c-0.1,0-0.2,0-0.4,0
			c-0.1,0-0.2,0-0.4,0c-0.1,0-0.2,0-0.4,0c-0.1,0-0.2,0-0.4,0c-0.1,0-0.2,0-0.4,0c-0.1,0-0.2,0-0.4,0c-0.1,0-0.2,0-0.4,0
			c-0.1,0-0.2,0-0.4,0c-0.1,0-0.2,0-0.4,0c-0.1,0-0.2,0-0.4,0c-0.1,0-0.2,0-0.4,0c-0.1,0-0.2,0-0.4,0c-0.1,0-0.2,0-0.4,0
			c-0.1,0-0.2,0-0.4,0c-0.1,0-0.2,0-0.4,0c-0.1,0-0.2,0-0.4,0c-0.1,0-0.2,0-0.4,0c-0.1,0-0.2,0-0.4,0c-0.1,0-0.2,0-0.4,0
			c-0.1,0-0.2,0-0.4,0c-0.1,0-0.2,0-0.4,0c-0.1,0-0.2,0-0.4,0c-0.1,0-0.2,0-0.4,0c-0.1,0-0.2,0-0.4,0c-0.1,0-0.2,0-0.4,0
			c-0.1,0-0.2,0-0.4,0s-0.2,0-0.4,0c-0.1,0-0.2,0-0.4,0c-0.1,0-0.2,0-0.4,0c-0.1,0-0.2,0-0.4,0c-0.1,0-0.2,0-0.4,0s-0.2,0-0.4,0
			c-0.1,0-0.2,0-0.4,0c-0.1,0-0.2,0-0.4,0c-0.1,0-0.2,0-0.4,0c-0.1,0-0.2,0-0.4,0s-0.2,0-0.4,0s-0.2,0-0.4,0c-0.1,0-0.2,0-0.4,0
			s-0.2,0-0.4,0s-0.2,0-0.4,0s-0.2,0-0.4,0s-0.2,0-0.4,0c-0.1,0-0.2,0-0.4,0c-0.1,0-0.2,0-0.4,0c-0.1,0-0.2,0-0.4,0
			c-0.1,0-0.2,0-0.4,0s-0.2,0-0.4,0s-0.2,0-0.4,0s-0.2,0-0.4,0c-0.1,0-0.2,0-0.4,0s-0.2,0-0.4,0c-0.1,0-0.2,0-0.4,0
			c-0.1,0-0.2,0-0.4,0s-0.2,0-0.4,0c-0.1,0-0.2,0-0.4,0s-0.2,0-0.4,0c-0.1,0-0.2,0-0.4,0s-0.2,0-0.4,0c-0.1,0-0.2,0-0.4,0
			c-0.1,0-0.2,0-0.4,0s-0.2,0-0.4,0c-0.1,0-0.2,0-0.4,0s-0.2,0-0.4,0c-0.1,0-0.2,0-0.4,0c-0.1,0-0.2,0-0.4,0s-0.2,0-0.4,0
			c-0.1,0-0.2,0-0.4,0c-0.1,0-0.2,0-0.4,0s-0.2,0-0.4,0s-0.2,0-0.4,0c-0.1,0-0.2,0-0.4,0c-0.1,0-0.2,0-0.4,0c-0.1,0-0.2,0-0.4,0
			c-0.1,0-0.2,0-0.4,0c-0.1,0-0.2,0-0.4,0c-0.1,0-0.2,0-0.4,0s-0.2,0-0.4,0c-0.1,0-0.2,0-0.4,0c-0.1,0-0.2,0-0.4,0
			c-0.1,0-0.2,0-0.4,0c-0.1,0-0.2,0-0.4,0c-0.1,0-0.2,0-0.4,0c-0.1,0-0.2,0-0.4,0c-0.1,0-0.2,0-0.4,0c-0.1,0-0.2,0-0.4,0
			c-0.1,0-0.2,0-0.4,0c-0.1,0-0.2,0-0.4,0c-0.1,0-0.2,0-0.4,0c-0.1,0-0.2,0-0.4,0c-0.1,0-0.2,0-0.4,0c-0.1,0-0.2,0-0.4,0
			c-0.1,0-0.2,0-0.4,0c-0.1,0-0.2,0-0.4,0c-0.1,0-0.2,0-0.4,0c-0.1,0-0.2,0-0.4,0c-0.1,0-0.2,0-0.4,0c-0.1,0-0.2,0-0.4,0
			c-0.1,0-0.2,0-0.4,0c-0.1,0-0.2,0-0.4,0c-0.1,0-0.2,0-0.4,0c-0.1,0-0.2,0-0.4,0c-0.1,0-0.2,0-0.4,0c-0.1,0-0.2,0-0.4,0
			s-0.2,0-0.4,0c-0.1,0-0.2,0-0.4,0s-0.2,0-0.4,0s-0.2,0-0.4,0s-0.2,0-0.4,0s-0.2,0-0.4,0c-0.1,0-0.2,0-0.4,0c-0.1,0-0.2,0-0.4,0
			s-0.2,0-0.4,0c-0.1,0-0.2,0-0.4,0c-0.1,0-0.2,0-0.4,0c-0.1,0-0.2,0-0.4,0c-0.1,0-0.2,0-0.4,0c-0.1,0-0.2,0-0.4,0
			c-0.1,0-0.2,0-0.4,0c-0.1,0-0.2,0-0.4,0c-0.1,0-0.2,0-0.4,0c-0.1,0-0.2,0-0.4,0s-0.2,0-0.4,0s-0.2,0-0.4,0c-0.1,0-0.2,0-0.4,0
			c-0.1,0-0.2,0-0.4,0c-0.1,0-0.2,0-0.4,0c-0.1,0-0.2,0-0.4,0c-0.1,0-0.2,0-0.4,0c-0.1,0-0.2,0-0.4,0c-0.1,0-0.2,0-0.4,0
			s-0.2,0-0.4,0s-0.2,0-0.4,0c-0.1,0-0.2,0-0.4,0c-0.1,0-0.2,0-0.4,0c-0.1,0-0.2,0-0.4,0c-0.1,0-0.2,0-0.4,0c-0.1,0-0.2,0-0.4,0
			c-0.1,0-0.2,0-0.4,0c-0.1,0-0.2,0-0.4,0c-0.1,0-0.2,0-0.4,0c-0.1,0-0.2,0-0.4,0c-0.1,0-0.2,0-0.4,0c-0.1,0-0.2,0-0.4,0
			c-0.1,0-0.2,0-0.4,0c-0.1,0-0.2,0-0.4,0c-0.1,0-0.2,0-0.4,0c-0.1,0-0.2,0-0.4,0c-0.1,0-0.2,0-0.4,0c-0.1,0-0.2,0-0.4,0
			c-0.1,0-0.2,0-0.4,0c-0.1,0-0.2,0-0.4,0c-0.1,0-0.2,0-0.4,0s-0.2,0-0.4,0c-0.1,0-0.2,0-0.4,0c-0.1,0-0.2,0-0.3,0
			c-0.1,0-0.2,0-0.4,0c-0.1,0-0.2,0-0.3,0c-0.1,0-0.2,0-0.4,0c-0.1,0-0.2,0-0.4,0c-0.1,0-0.2,0-0.3,0c-0.1,0-0.2,0-0.3,0
			c-0.1,0-0.2,0-0.3,0s-0.2,0-0.3,0s-0.2,0-0.3,0c-0.1,0-0.2,0-0.3,0c-0.1,0-0.2,0-0.3,0s-0.2,0-0.3,0c-0.1,0-0.2,0-0.3,0
			s-0.2,0-0.3,0c-0.1,0-0.2,0-0.3,0c-0.1,0-0.2,0-0.3,0s-0.2,0-0.3,0s-0.2,0-0.3,0c-0.1,0-0.2,0-0.3,0c-0.1,0-0.2,0-0.3,0
			c-0.1,0-0.2,0-0.3,0c-0.1,0-0.2,0-0.3,0c-0.1,0-0.2,0-0.3,0c-0.1,0-0.2,0-0.3,0c-0.1,0-0.2,0-0.3,0c-0.1,0-0.2,0-0.3,0
			c-0.1,0-0.2,0-0.3,0c-0.1,0-0.2,0-0.3,0c-0.1,0-0.2,0-0.3,0s-0.2,0-0.3,0c-0.1,0-0.2,0-0.3,0c-0.1,0-0.2,0-0.3,0
			c-0.1,0-0.2,0-0.3,0c-0.1,0-0.2,0-0.3,0c-0.1,0-0.2,0-0.3,0s-0.2,0-0.3,0c-0.1,0-0.2,0-0.3,0s-0.2,0-0.3,0s-0.2,0-0.3,0
			c-0.1,0-0.2,0-0.3,0s-0.2,0-0.3,0s-0.2,0-0.3,0s-0.2,0-0.3,0c-0.1,0-0.2,0-0.3,0c-0.1,0-0.2,0-0.3,0c-0.1,0-0.2,0-0.3,0
			c-0.1,0-0.2,0-0.3,0c-0.1,0-0.2,0-0.3,0s-0.2,0-0.3,0c-0.1,0-0.2,0-0.3,0c-0.1,0-0.2,0-0.3,0c-0.1,0-0.2,0-0.3,0
			c-0.1,0-0.2,0-0.3,0c-0.1,0-0.2,0-0.3,0c-0.1,0-0.2,0-0.3,0c-0.1,0-0.2,0-0.3,0c-0.1,0-0.2,0-0.3,0c-0.1,0-0.2,0-0.3,0
			c-0.1,0-0.2,0-0.3,0c-0.1,0-0.2,0-0.3,0s-0.2,0-0.3,0c-0.1,0-0.2,0-0.3,0s-0.2,0-0.3,0s-0.2,0-0.3,0s-0.2,0-0.3,0s-0.2,0-0.3,0
			c-0.1,0-0.2,0-0.3,0c-0.1,0-0.2,0-0.3,0c-0.1,0-0.2,0-0.3,0c-0.1,0-0.2,0-0.3,0c-0.1,0-0.2,0-0.3,0c-0.1,0-0.2,0-0.3,0
			c-0.1,0-0.2,0-0.3,0c-0.1,0-0.2,0-0.3,0c-0.1,0-0.2,0-0.3,0c-0.1,0-0.2,0-0.3,0c-0.1,0-0.2,0-0.3,0c-0.1,0-0.2,0-0.3,0
			c-0.1,0-0.2,0-0.3,0c-0.1,0-0.2,0-0.3,0c-0.1,0-0.2,0-0.3,0c-0.1,0-0.2,0-0.3,0c-0.1,0-0.2,0-0.3,0s-0.2,0-0.3,0s-0.2,0-0.3,0
			s-0.2,0-0.3,0c-0.1,0-0.2,0-0.3,0c-0.1,0-0.2,0-0.3,0c-0.1,0-0.2,0-0.3,0c-0.1,0-0.2,0-0.3,0c-0.1,0-0.2,0-0.3,0
			c-0.1,0-0.2,0-0.3,0c-0.1,0-0.2,0-0.3,0c-0.1,0-0.2,0-0.3,0c-0.1,0-0.2,0-0.3,0c-0.1,0-0.2,0-0.3,0c-0.1,0-0.2,0-0.3,0
			c-0.1,0-0.2,0-0.3,0c-0.1,0-0.2,0-0.3,0s-0.2,0-0.3,0c-0.1,0-0.2,0-0.3,0s-0.2,0-0.3,0c-0.1,0-0.2,0-0.3,0s-0.2,0-0.3,0
			s-0.2,0-0.3,0v16c0.1,0,0.2,0,0.3,0s0.2,0,0.3,0s0.2,0,0.3,0c0.1,0,0.2,0,0.3,0s0.2,0,0.3,0c0.1,0,0.2,0,0.3,0s0.2,0,0.3,0
			c0.1,0,0.2,0,0.3,0c0.1,0,0.2,0,0.3,0c0.1,0,0.2,0,0.3,0c0.1,0,0.2,0,0.3,0c0.1,0,0.2,0,0.3,0c0.1,0,0.2,0,0.3,0
			c0.1,0,0.2,0,0.3,0c0.1,0,0.2,0,0.3,0c0.1,0,0.2,0,0.3,0c0.1,0,0.2,0,0.3,0c0.1,0,0.2,0,0.3,0c0.1,0,0.2,0,0.3,0
			c0.1,0,0.2,0,0.3,0s0.2,0,0.3,0s0.2,0,0.3,0s0.2,0,0.3,0c0.1,0,0.2,0,0.3,0c0.1,0,0.2,0,0.3,0c0.1,0,0.2,0,0.3,0
			c0.1,0,0.2,0,0.3,0c0.1,0,0.2,0,0.3,0c0.1,0,0.2,0,0.3,0c0.1,0,0.2,0,0.3,0c0.1,0,0.2,0,0.3,0c0.1,0,0.2,0,0.3,0
			c0.1,0,0.2,0,0.3,0c0.1,0,0.2,0,0.3,0c0.1,0,0.2,0,0.3,0c0.1,0,0.2,0,0.3,0c0.1,0,0.2,0,0.3,0c0.1,0,0.2,0,0.3,0
			c0.1,0,0.2,0,0.3,0c0.1,0,0.2,0,0.3,0s0.2,0,0.3,0s0.2,0,0.3,0s0.2,0,0.3,0s0.2,0,0.3,0c0.1,0,0.2,0,0.3,0s0.2,0,0.3,0
			c0.1,0,0.2,0,0.3,0c0.1,0,0.2,0,0.3,0c0.1,0,0.2,0,0.3,0c0.1,0,0.2,0,0.3,0c0.1,0,0.2,0,0.3,0c0.1,0,0.2,0,0.3,0
			c0.1,0,0.2,0,0.3,0c0.1,0,0.2,0,0.3,0c0.1,0,0.2,0,0.3,0c0.1,0,0.2,0,0.3,0c0.1,0,0.2,0,0.3,0s0.2,0,0.3,0c0.1,0,0.2,0,0.3,0
			c0.1,0,0.2,0,0.3,0c0.1,0,0.2,0,0.3,0c0.1,0,0.2,0,0.3,0c0.1,0,0.2,0,0.3,0s0.2,0,0.3,0s0.2,0,0.3,0s0.2,0,0.3,0
			c0.1,0,0.2,0,0.3,0s0.2,0,0.3,0s0.2,0,0.3,0c0.1,0,0.2,0,0.3,0s0.2,0,0.3,0c0.1,0,0.2,0,0.3,0c0.1,0,0.2,0,0.3,0
			c0.1,0,0.2,0,0.3,0c0.1,0,0.2,0,0.3,0c0.1,0,0.2,0,0.3,0s0.2,0,0.3,0c0.1,0,0.2,0,0.3,0c0.1,0,0.2,0,0.3,0c0.1,0,0.2,0,0.3,0
			c0.1,0,0.2,0,0.3,0c0.1,0,0.2,0,0.3,0c0.1,0,0.2,0,0.3,0c0.1,0,0.2,0,0.3,0c0.6,0,0.1,0,0.7,0c0.1,0,0.2,0,0.3,0
			c0.1,0,0.2,0,0.3,0s0.2,0,0.3,0s0.2,0,0.3,0c0.1,0,0.2,0,0.3,0c0.1,0,0.2,0,0.3,0s0.2,0,0.3,0c0.1,0,0.2,0,0.3,0s0.2,0,0.3,0
			c0.1,0,0.2,0,0.3,0c0.1,0,0.2,0,0.3,0s0.2,0,0.3,0s0.2,0,0.3,0c0.1,0,0.2,0,0.3,0c0.1,0,0.2,0,0.3,0c0.1,0,0.2,0,0.4,0
			c0.1,0,0.2,0,0.4,0c0.1,0,0.2,0,0.3,0c0.1,0,0.2,0,0.4,0c0.1,0,0.2,0,0.3,0c0.1,0,0.2,0,0.4,0c0.1,0,0.2,0,0.4,0s0.2,0,0.4,0
			c0.1,0,0.2,0,0.4,0c0.1,0,0.2,0,0.4,0c0.1,0,0.2,0,0.4,0c0.1,0,0.2,0,0.4,0c0.1,0,0.2,0,0.4,0c0.1,0,0.2,0,0.4,0
			c0.1,0,0.2,0,0.4,0c0.1,0,0.2,0,0.4,0c0.1,0,0.2,0,0.4,0c0.1,0,0.2,0,0.4,0c0.1,0,0.2,0,0.4,0c0.1,0,0.2,0,0.4,0
			c0.1,0,0.2,0,0.4,0c0.1,0,0.2,0,0.4,0c0.1,0,0.2,0,0.4,0c0.1,0,0.2,0,0.4,0c0.1,0,0.2,0,0.4,0c0.1,0,0.2,0,0.4,0
			c0.1,0,0.2,0,0.4,0c0.1,0,0.2,0,0.4,0s0.2,0,0.4,0s0.2,0,0.4,0c0.1,0,0.2,0,0.4,0c0.1,0,0.2,0,0.4,0c0.1,0,0.2,0,0.4,0
			c0.1,0,0.2,0,0.4,0c0.1,0,0.2,0,0.4,0c0.1,0,0.2,0,0.4,0c0.1,0,0.2,0,0.4,0s0.2,0,0.4,0s0.2,0,0.4,0c0.1,0,0.2,0,0.4,0
			c0.1,0,0.2,0,0.4,0c0.1,0,0.2,0,0.4,0c0.1,0,0.2,0,0.4,0c0.1,0,0.2,0,0.4,0c0.1,0,0.2,0,0.4,0c0.1,0,0.2,0,0.4,0
			c0.1,0,0.2,0,0.4,0c0.1,0,0.2,0,0.4,0s0.2,0,0.4,0c0.1,0,0.2,0,0.4,0c0.1,0,0.2,0,0.4,0s0.2,0,0.4,0s0.2,0,0.4,0s0.2,0,0.4,0
			s0.2,0,0.4,0c0.1,0,0.2,0,0.4,0s0.2,0,0.4,0c0.1,0,0.2,0,0.4,0c0.1,0,0.2,0,0.4,0c0.1,0,0.2,0,0.4,0c0.1,0,0.2,0,0.4,0
			c0.1,0,0.2,0,0.4,0c0.1,0,0.2,0,0.4,0c0.1,0,0.2,0,0.4,0c0.1,0,0.2,0,0.4,0c0.1,0,0.2,0,0.4,0c0.1,0,0.2,0,0.4,0
			c0.1,0,0.2,0,0.4,0c0.1,0,0.2,0,0.4,0c0.1,0,0.2,0,0.4,0c0.1,0,0.2,0,0.4,0c0.1,0,0.2,0,0.4,0c0.1,0,0.2,0,0.4,0
			c0.1,0,0.2,0,0.4,0c0.1,0,0.2,0,0.4,0c0.1,0,0.2,0,0.4,0c0.1,0,0.2,0,0.4,0c0.1,0,0.2,0,0.4,0c0.1,0,0.2,0,0.4,0
			c0.1,0,0.2,0,0.4,0c0.1,0,0.2,0,0.4,0c0.1,0,0.2,0,0.4,0c0.1,0,0.2,0,0.4,0s0.2,0,0.4,0c0.1,0,0.2,0,0.4,0c0.1,0,0.2,0,0.4,0
			c0.1,0,0.2,0,0.4,0c0.1,0,0.2,0,0.4,0c0.1,0,0.2,0,0.4,0c0.1,0,0.2,0,0.4,0s0.2,0,0.4,0s0.2,0,0.4,0c0.1,0,0.2,0,0.4,0
			c0.1,0,0.2,0,0.4,0s0.2,0,0.4,0c0.1,0,0.2,0,0.4,0c0.1,0,0.2,0,0.4,0s0.2,0,0.4,0c0.1,0,0.2,0,0.4,0s0.2,0,0.4,0
			c0.1,0,0.2,0,0.4,0c0.1,0,0.2,0,0.4,0s0.2,0,0.4,0c0.1,0,0.2,0,0.4,0s0.2,0,0.4,0c0.1,0,0.2,0,0.4,0s0.2,0,0.4,0
			c0.1,0,0.2,0,0.4,0c0.1,0,0.2,0,0.4,0s0.2,0,0.4,0c0.1,0,0.2,0,0.4,0s0.2,0,0.4,0s0.2,0,0.4,0s0.2,0,0.4,0c0.1,0,0.2,0,0.4,0
			c0.1,0,0.2,0,0.4,0c0.1,0,0.2,0,0.4,0c0.1,0,0.2,0,0.4,0s0.2,0,0.4,0s0.2,0,0.4,0s0.2,0,0.4,0s0.2,0,0.4,0c0.1,0,0.2,0,0.4,0
			s0.2,0,0.4,0s0.2,0,0.4,0c0.1,0,0.2,0,0.4,0c0.1,0,0.2,0,0.4,0c0.1,0,0.2,0,0.4,0c0.1,0,0.2,0,0.4,0s0.2,0,0.4,0
			c0.1,0,0.2,0,0.4,0c0.1,0,0.2,0,0.4,0c0.1,0,0.2,0,0.4,0c0.1,0,0.2,0,0.4,0s0.2,0,0.4,0c0.1,0,0.2,0,0.4,0c0.1,0,0.2,0,0.4,0
			c0.1,0,0.2,0,0.4,0c0.1,0,0.2,0,0.4,0c0.1,0,0.2,0,0.4,0c0.1,0,0.2,0,0.4,0c0.1,0,0.2,0,0.4,0c0.1,0,0.2,0,0.4,0
			c0.1,0,0.2,0,0.4,0c0.1,0,0.2,0,0.4,0c0.1,0,0.2,0,0.4,0c0.1,0,0.2,0,0.4,0c0.1,0,0.2,0,0.4,0c0.1,0,0.2,0,0.4,0
			c0.1,0,0.2,0,0.4,0c0.1,0,0.2,0,0.4,0c0.1,0,0.2,0,0.4,0c0.1,0,0.2,0,0.4,0c0.1,0,0.2,0,0.4,0c0.1,0,0.2,0,0.4,0
			c0.1,0,0.2,0,0.4,0c0.1,0,0.2,0,0.4,0c0.1,0,0.2,0,0.4,0c0.1,0,0.2,0,0.4,0c0.1,0,0.2,0,0.4,0c0.1,0,0.2,0,0.4,0
			c0.1,0,0.2,0,0.4,0c0.1,0,0.2,0,0.4,0c0.1,0,0.2,0,0.4,0c0.1,0,0.2,0,0.4,0c0.1,0,0.2,0,0.4,0c0.1,0,0.2,0,0.4,0
			c0.1,0,0.2,0,0.4,0c0.1,0,0.2,0,0.4,0c0.1,0,0.2,0,0.4,0s0.2,0,0.4,0c0.1,0,0.2,0,0.4,0c0.1,0,0.2,0,0.4,0c0.1,0,0.2,0,0.4,0
			s0.2,0,0.4,0c0.1,0,0.2,0,0.4,0c0.1,0,0.2,0,0.4,0s0.2,0,0.4,0c0.1,0,0.2,0,0.4,0c0.1,0,0.2,0,0.4,0c0.1,0,0.2,0,0.4,0
			c0.1,0,0.2,0,0.4,0c0.1,0,0.2,0,0.4,0c0.1,0,0.2,0,0.4,0c0.1,0,0.2,0,0.4,0c0.1,0,0.2,0,0.4,0c0.1,0,0.2,0,0.4,0
			c0.1,0,0.2,0,0.4,0c0.1,0,0.2,0,0.4,0c0.1,0,0.2,0,0.4,0c0.1,0,0.2,0,0.4,0c0.1,0,0.2,0,0.4,0c0.1,0,0.2,0,0.4,0
			c0.1,0,0.2,0,0.4,0c0.1,0,0.2,0,0.4,0c0.1,0,0.2,0,0.4,0c0.1,0,0.2,0,0.4,0s0.2,0,0.4,0c0.1,0,0.2,0,0.4,0s0.2,0,0.4,0
			s0.2,0,0.4,0s0.2,0,0.4,0c0.1,0,0.2,0,0.4,0c0.1,0,0.2,0,0.4,0c0.1,0,0.2,0,0.4,0c0.1,0,0.2,0,0.4,0c0.1,0,0.2,0,0.4,0
			c0.1,0,0.2,0,0.4,0c0.1,0,0.2,0,0.4,0c0.1,0,0.2,0,0.4,0c0.1,0,0.2,0,0.4,0c0.1,0,0.2,0,0.4,0s0.2,0,0.4,0s0.2,0,0.4,0
			s0.2,0,0.4,0c0.1,0,0.2,0,0.4,0s0.2,0,0.4,0s0.2,0,0.3,0c0.1,0,0.2,0,0.4,0s0.2,0,0.4,0c0.1,0,0.2,0,0.3,0c0.1,0,0.2,0,0.4,0
			s0.2,0,0.4,0s0.2,0,0.4,0c0.1,0,0.2,0,0.3,0c0.1,0,0.2,0,0.4,0c0.1,0,0.2,0,0.3,0s0.2,0,0.3,0s0.2,0,0.3,0s0.2,0,0.3,0
			c0.1,0,0.2,0,0.3,0s0.2,0,0.3,0s0.2,0,0.3,0c0.1,0,0.2,0,0.3,0s0.2,0,0.3,0s0.2,0,0.3,0c0.1,0,0.2,0,0.3,0s0.2,0,0.3,0
			s0.2,0,0.3,0s0.2,0,0.3,0c0.1,0,0.2,0,0.3,0c0.1,0,0.2,0,0.3,0c0.1,0,0.2,0,0.3,0c0.1,0,0.2,0,0.3,0s0.2,0,0.3,0
			c0.1,0,0.2,0,0.3,0c0.1,0,0.2,0,0.3,0c0.1,0,0.2,0,0.3,0c0.1,0,0.2,0,0.3,0c0.1,0,0.2,0,0.3,0c0.1,0,0.2,0,0.3,0
			c0.1,0,0.2,0,0.3,0c0.1,0,0.2,0,0.3,0c0.1,0,0.2,0,0.3,0c0.1,0,0.2,0,0.3,0c0.1,0,0.2,0,0.3,0c0.1,0,0.2,0,0.3,0
			c0.1,0,0.2,0,0.3,0c0.1,0,0.2,0,0.3,0c0.1,0,0.2,0,0.3,0c0.1,0,0.2,0,0.3,0c0.1,0,0.2,0,0.3,0c0.1,0,0.2,0,0.3,0
			c0.1,0,0.2,0,0.3,0c0.1,0,0.2,0,0.3,0c0.1,0,0.2,0,0.3,0c0.1,0,0.2,0,0.3,0c0.1,0,0.2,0,0.3,0c0.1,0,0.2,0,0.3,0
			c0.1,0,0.2,0,0.3,0c0.1,0,0.2,0,0.3,0c0.1,0,0.2,0,0.3,0s0.2,0,0.3,0c0.1,0,0.2,0,0.3,0c0.1,0,0.2,0,0.3,0s0.2,0,0.3,0
			c0.1,0,0.2,0,0.3,0c0.1,0,0.2,0,0.3,0c0.1,0,0.2,0,0.3,0c0.1,0,0.2,0,0.3,0c0.1,0,0.2,0,0.3,0c0.1,0,0.2,0,0.3,0
			c0.1,0,0.2,0,0.3,0s0.2,0,0.3,0s0.2,0,0.3,0s0.2,0,0.3,0s0.2,0,0.3,0c0.1,0,0.2,0,0.3,0c0.1,0,0.2,0,0.3,0c0.1,0,0.2,0,0.3,0
			c0.1,0,0.2,0,0.3,0c0.1,0,0.2,0,0.3,0c0.1,0,0.2,0,0.3,0c0.1,0,0.2,0,0.3,0s0.2,0,0.3,0c0.1,0,0.2,0,0.3,0c0.1,0,0.2,0,0.3,0
			s0.2,0,0.3,0c0.1,0,0.2,0,0.3,0c0.1,0,0.2,0,0.3,0c0.1,0,0.2,0,0.3,0c0.1,0,0.2,0,0.3,0c0.1,0,0.2,0,0.3,0c0.1,0,0.2,0,0.3,0
			c0.1,0,0.2,0,0.3,0c0.1,0,0.2,0,0.3,0c0.1,0,0.2,0,0.3,0c0.1,0,0.2,0,0.3,0c0.1,0,0.2,0,0.3,0c0.1,0,0.2,0,0.3,0
			c0.1,0,0.2,0,0.3,0c0.1,0,0.2,0,0.3,0c0.1,0,0.2,0,0.3,0s0.2,0,0.3,0s0.2,0,0.3,0s0.2,0,0.3,0c0.1,0,0.2,0,0.3,0
			c0.1,0,0.2,0,0.3,0s0.2,0,0.3,0c0.1,0,0.2,0,0.3,0c0.1,0,0.2,0,0.3,0c0.1,0,0.2,0,0.3,0c0.1,0,0.2,0,0.3,0s0.2,0,0.3,0
			c0.1,0,0.2,0,0.3,0s0.2,0,0.3,0c0.1,0,0.2,0,0.3,0c0.1,0,0.2,0,0.3,0c0.1,0,0.2,0,0.3,0c0.1,0,0.2,0,0.3,0s0.2,0,0.3,0
			c0.1,0,0.2,0,0.3,0s0.2,0,0.3,0s0.2,0,0.3,0s0.2,0,0.3,0c0.1,0,0.2,0,0.3,0c0.1,0,0.2,0,0.3,0c0.1,0,0.2,0,0.3,0
			c0.1,0,0.2,0,0.3,0s0.2,0,0.3,0s0.2,0,0.3,0c0.1,0,0.2,0,0.3,0c0.1,0,0.2,0,0.3,0c0.1,0,0.2,0,0.3,0c0.1,0,0.2,0,0.3,0
			c0.1,0,0.2,0,0.3,0c0.1,0,0.2,0,0.3,0c0.1,0,0.2,0,0.3,0s0.2,0,0.3,0c0.1,0,0.2,0,0.3,0c0.1,0,0.2,0,0.3,0c0.1,0,0.2,0,0.3,0
			c0.1,0,0.2,0,0.3,0c0.1,0,0.2,0,0.3,0s0.2,0,0.3,0s0.2,0,0.3,0s0.2,0,0.3,0s0.2,0,0.3,0s0.2,0,0.3,0s0.2,0,0.3,0
			c0.1,0,0.2,0,0.3,0c0.1,0,0.2,0,0.3,0s0.2,0,0.3,0s0.2,0,0.3,0s0.2,0,0.3,0s0.2,0,0.3,0s0.2,0,0.3,0c0.1,0,0.2,0,0.3,0
			c0.1,0,0.2,0,0.3,0c0.1,0,0.2,0,0.3,0c0.1,0,0.2,0,0.3,0c0.1,0,0.2,0,0.3,0c0.1,0,0.2,0,0.3,0c0.1,0,0.2,0,0.3,0
			c0.1,0,0.2,0,0.3,0c0.1,0,0.2,0,0.3,0c0.1,0,0.2,0,0.3,0c0.1,0,0.2,0,0.3,0c0.1,0,0.2,0,0.3,0c0.1,0,0.2,0,0.3,0
			c0.1,0,0.2,0,0.3,0c0.1,0,0.2,0,0.3,0c0.1,0,0.2,0,0.3,0c0.1,0,0.2,0,0.3,0c0.1,0,0.2,0,0.3,0c0.1,0,0.2,0,0.3,0s0.2,0,0.3,0
			c0.1,0,0.2,0,0.3,0c0.1,0,0.2,0,0.3,0c0.1,0,0.2,0,0.3,0c0.1,0,0.2,0,0.3,0s0.2,0,0.3,0c0.1,0,0.2,0,0.3,0s0.2,0,0.3,0
			c0.1,0,0.2,0,0.3,0s0.2,0,0.3,0c0.1,0,0.2,0,0.3,0c0.1,0,0.2,0,0.3,0s0.2,0,0.3,0c0.1,0,0.2,0,0.3,0c0.1,0,0.2,0,0.3,0
			c0.1,0,0.2,0,0.3,0c0.1,0,0.2,0,0.3,0c0.1,0,0.2,0,0.3,0c0.1,0,0.2,0,0.3,0c0.1,0,0.2,0,0.3,0c0.1,0,0.2,0,0.3,0
			c0.1,0,0.2,0,0.3,0c0.1,0,0.2,0,0.3,0c0.1,0,0.2,0,0.3,0c0.1,0,0.2,0,0.3,0V568z M159.7,547.2c-10.5-21.7-14.5-49-15.4-73.9
			l-16,0.6c1,25.8,5.1,55.6,17,80.3L159.7,547.2z M204.3,417h164.4v-16H204.3V417z M201.2,568c-18.4,0-34.8-6.9-41.5-20.8l-14.4,6.9
			c10.5,21.9,34.6,29.9,55.9,29.9V568z M416.1,547c-6,14-22,21-40.5,21v16c21.4,0,45.5-8.2,55.2-30.7L416.1,547z M446.2,477.9
			c2.8-44.3-34.8-76.9-77.5-76.9v16c35.2,0,63.6,26.5,61.5,59.9L446.2,477.9z M144.2,473.2c-1.2-31.8,26.3-56.2,60.1-56.2v-16
			c-40.8,0-77.7,30.1-76.1,72.9L144.2,473.2z"/>
		<path class="st5" d="M241.4,409h3.9c5.6-30.3,5.6-69,5.6-69h76.3c0,0,0,38.7,5.6,69h23.9c-15.8,12.5-35.9,20-57.6,20
			S257.2,421.5,241.4,409z"/>
		<defs>
			<filter id="Adobe_OpacityMaskFilter_1_" filterUnits="userSpaceOnUse" x="218.4" y="332" width="161.3" height="105">
				<feColorMatrix  type="matrix" values="1 0 0 0 0  0 1 0 0 0  0 0 1 0 0  0 0 0 1 0"/>
			</filter>
		</defs>
		<mask maskUnits="userSpaceOnUse" x="218.4" y="332" width="161.3" height="105" id="path-4-inside-2_489_2160_1_">
			<path class="st6" d="M241.4,409h3.9c5.6-30.3,5.6-69,5.6-69h76.3c0,0,0,38.7,5.6,69h23.9c-15.8,12.5-35.9,20-57.6,20
				S257.2,421.5,241.4,409z"/>
		</mask>
		<path class="st7" d="M241.4,409v-8h-23l18.1,14.3L241.4,409z M245.3,409v8h6.7l1.2-6.5L245.3,409z M250.9,340v-8h-8v8H250.9z
			 M327.1,340h8v-8h-8V340z M332.7,409l-7.9,1.5l1.2,6.5h6.7V409z M356.6,409l5,6.3l18.1-14.3h-23V409z M241.4,417h3.9v-16h-3.9V417
			z M253.1,410.5c2.9-15.7,4.3-33.3,5-46.9c0.4-6.8,0.5-12.7,0.6-16.9c0-2.1,0.1-3.7,0.1-4.9c0-0.6,0-1,0-1.3c0-0.2,0-0.3,0-0.3
			c0,0,0-0.1,0-0.1c0,0,0,0,0,0c0,0,0,0,0,0c0,0,0,0,0,0c0,0,0,0-8,0s-8,0-8,0l0,0c0,0,0,0,0,0c0,0,0,0,0,0c0,0,0,0,0,0.1
			c0,0.1,0,0.2,0,0.3c0,0.3,0,0.7,0,1.2c0,1.1,0,2.7-0.1,4.7c-0.1,4-0.3,9.7-0.6,16.4c-0.7,13.3-2.1,30.2-4.8,44.8L253.1,410.5z
			 M250.9,348h76.3v-16h-76.3V348z M327.1,340c-8,0-8,0-8,0c0,0,0,0,0,0c0,0,0,0,0,0c0,0,0,0,0,0c0,0,0,0.1,0,0.1c0,0.1,0,0.2,0,0.3
			c0,0.3,0,0.7,0,1.3c0,1.1,0,2.8,0.1,4.9c0.1,4.2,0.3,10,0.6,16.9c0.7,13.6,2.1,31.2,5,46.9l15.7-2.9c-2.7-14.7-4.1-31.5-4.8-44.8
			c-0.3-6.6-0.5-12.3-0.6-16.4c0-2-0.1-3.6-0.1-4.7c0-0.5,0-1,0-1.2c0-0.1,0-0.2,0-0.3c0,0,0-0.1,0-0.1c0,0,0,0,0,0c0,0,0,0,0,0
			c0,0,0,0,0,0C335.1,340,335.1,340,327.1,340z M332.7,417h23.9v-16h-23.9V417z M351.7,402.7C337.2,414.2,318.9,421,299,421v16
			c23.6,0,45.4-8.1,62.6-21.7L351.7,402.7z M299,421c-19.9,0-38.2-6.8-52.7-18.3l-9.9,12.6c17.2,13.6,39,21.7,62.6,21.7V421z"/>
		<path class="st8" d="M325.4,383.1c0.2,2.1,0.5,4.9,0.9,7.9c0.8,7.2,2,16.4,3.2,23.9c0.5,3.2-0.6,6.1-2.8,7.6
			c-7.9,5.4-22.4,13.4-37.3,13.4c-14.8,0-29.3-8.1-37.3-13.4c-2.2-1.5-3.3-4.4-2.8-7.6c1.3-7.5,2.4-16.6,3.2-23.9
			c0.3-3.1,0.6-5.8,0.9-7.9c2.3,0.6,5.2,1.3,8.6,2c7.7,1.6,17.9,3.3,27.3,3.3c9.4,0,19.6-1.7,27.3-3.3
			C320.1,384.4,323.1,383.7,325.4,383.1z"/>
		<path class="st9" d="M416,265c0,5.8-1.8,11-4.5,14.6c-2.7,3.6-6.1,5.4-9.5,5.4s-6.8-1.8-9.5-5.4c-2.7-3.6-4.5-8.7-4.5-14.6
			s1.8-11,4.5-14.6c2.7-3.6,6.1-5.4,9.5-5.4s6.8,1.8,9.5,5.4C414.2,254,416,259.2,416,265z"/>
		<path class="st9" d="M180,265c0,5.8-1.8,11-4.5,14.6c-2.7,3.6-6.1,5.4-9.5,5.4s-6.8-1.8-9.5-5.4c-2.7-3.6-4.5-8.7-4.5-14.6
			s1.8-11,4.5-14.6c2.7-3.6,6.1-5.4,9.5-5.4s6.8,1.8,9.5,5.4C178.2,254,180,259.2,180,265z"/>
		<path class="st10" d="M285.2,382L285.2,382c23.6-0.1,53-10.7,76.5-28.4c23.5-17.8,40.3-42.1,40.3-69.6c0-13.1-1-26.2-2-39.5
			c-0.2-2.4-0.4-4.6-0.5-6.8c-0.8-10.1-1.5-18.9-1.5-30.2c0-48.2-49.9-86.7-112.8-86.8H285h0c0,0-0.1,0-0.1,0 M285.2,382L285.2,382
			C285.2,382,285.2,382,285.2,382l-0.2,0h0h0h-0.1c0,0,0,0,0,0l0,0h0c-23.6-0.1-53-10.7-76.4-28.4C184.9,335.8,168,311.5,168,284
			c0-13.1,1-26.2,2-39.5c0.2-2.4,0.4-4.6,0.5-6.8c0.8-10.1,1.5-18.9,1.5-30.2c0-48.2,49.9-86.7,112.8-86.8 M285,116.6L285,116.6
			L285,116.6z"/>
		<path class="st11" d="M333.1,70.5l-50.3-17.9c-34.9-12.4-73.6,1-93.4,32.2c-12.1,19.1-29,34.9-48.9,45.7l-18.5,10
			c-23,12.5-35.3,38.4-30.4,64.1l6.9,36.1c3.9,20.3,1,41.4-8.4,59.9l-4.2,8.4C68.3,343.7,77.5,386,108,410.3c3.8,3,7.1,6.5,9.8,10.5
			l7.9,11.4c4.9,7,11.1,12.8,18.2,17.1c12.8-17.3,34.5-28.1,58.2-28.1h42.1c2.8-15,4.2-32,4.9-45.3c-40.1-13.7-80.6-47.2-84-89.4
			c-7.6-2.8-13.2-12.1-13.2-23.1c0-11.9,6.5-21.8,15.1-23.7c0.1-1.9,0.3-3.8,0.4-5.6c0.8-10.1,1.5-18.7,1.5-29.8
			c0-51.3,52.7-90.6,116.8-90.7c0.1,0,0.1,0,0.2,0h0.2c64,0.1,116.8,39.4,116.8,90.7c0,11.1,0.7,19.7,1.5,29.8l0,0
			c0.1,1.7,0.3,3.5,0.4,5.3c9.6,0.6,17.2,11.1,17.2,24c0,12.1-6.7,22-15.4,23.7c-3.7,40.4-41.2,72.7-79.7,87.2
			c0.7,13.6,2.1,31.3,4.9,46.9h38.1c27.2,0,51.6,14.1,63.6,35.6c10.7-2.1,20.6-7.1,28.7-14.5l5.9-5.5
			c32.9-30.2,38.4-80.1,12.8-116.8c-9.4-13.4-12-30.4-7.3-46.1c9.1-30.3,1.7-63.3-19.7-86.7l-9-9.9c-6.9-7.6-11.8-16.9-14.1-27
			l-5.8-25.3c-5.5-24-25.1-42.1-49.4-45.8l-18.1-2.8C349.2,75.4,341,73.3,333.1,70.5z"/>
		<defs>
			<filter id="Adobe_OpacityMaskFilter_2_" filterUnits="userSpaceOnUse" x="69" y="40" width="436" height="425.9">
				<feColorMatrix  type="matrix" values="1 0 0 0 0  0 1 0 0 0  0 0 1 0 0  0 0 0 1 0"/>
			</filter>
		</defs>
		<mask maskUnits="userSpaceOnUse" x="69" y="40" width="436" height="425.9" id="path-10-outside-3_489_2160_1_">
			<rect x="68" y="39" class="st12" width="438" height="427"/>
			<path class="st13" d="M333.1,70.5l-50.3-17.9c-34.9-12.4-73.6,1-93.4,32.2c-12.1,19.1-29,34.9-48.9,45.7l-18.5,10
				c-23,12.5-35.3,38.4-30.4,64.1l6.9,36.1c3.9,20.3,1,41.4-8.4,59.9l-4.2,8.4C68.3,343.7,77.5,386,108,410.3
				c3.8,3,7.1,6.5,9.8,10.5l7.9,11.4c4.9,7,11.1,12.8,18.2,17.1c12.8-17.3,34.5-28.1,58.2-28.1h42.1c2.8-15,4.2-32,4.9-45.3
				c-40.1-13.7-80.6-47.2-84-89.4c-7.6-2.8-13.2-12.1-13.2-23.1c0-11.9,6.5-21.8,15.1-23.7c0.1-1.9,0.3-3.8,0.4-5.6
				c0.8-10.1,1.5-18.7,1.5-29.8c0-51.3,52.7-90.6,116.8-90.7c0.1,0,0.1,0,0.2,0h0.2c64,0.1,116.8,39.4,116.8,90.7
				c0,11.1,0.7,19.7,1.5,29.8l0,0c0.1,1.7,0.3,3.5,0.4,5.3c9.6,0.6,17.2,11.1,17.2,24c0,12.1-6.7,22-15.4,23.7
				c-3.7,40.4-41.2,72.7-79.7,87.2c0.7,13.6,2.1,31.3,4.9,46.9h38.1c27.2,0,51.6,14.1,63.6,35.6c10.7-2.1,20.6-7.1,28.7-14.5
				l5.9-5.5c32.9-30.2,38.4-80.1,12.8-116.8c-9.4-13.4-12-30.4-7.3-46.1c9.1-30.3,1.7-63.3-19.7-86.7l-9-9.9
				c-6.9-7.6-11.8-16.9-14.1-27l-5.8-25.3c-5.5-24-25.1-42.1-49.4-45.8l-18.1-2.8C349.2,75.4,341,73.3,333.1,70.5z"/>
		</mask>
		<path class="st14" d="M282.7,52.6l-2.7,7.5l0,0L282.7,52.6z M333.1,70.5l-2.7,7.5l0,0L333.1,70.5z M189.3,84.8l6.8,4.3l0,0
			L189.3,84.8z M140.4,130.5l3.8,7l0,0L140.4,130.5z M121.9,140.5l-3.8-7l0,0L121.9,140.5z M91.5,204.6l-7.9,1.5l0,0L91.5,204.6z
			 M98.4,240.6l-7.9,1.5l0,0L98.4,240.6z M90,300.5l7.1,3.6l0,0L90,300.5z M85.8,308.9l-7.1-3.6l0,0L85.8,308.9z M108,410.3l-5,6.3
			l0,0L108,410.3z M117.9,420.8l6.6-4.6l0,0L117.9,420.8z M125.8,432.2l6.6-4.6l0,0L125.8,432.2z M144,449.3l-4.1,6.8l6.2,3.8
			l4.3-5.9L144,449.3z M244.3,421.3v8h6.7l1.2-6.5L244.3,421.3z M249.2,375.9l8,0.4l0.3-6l-5.7-2L249.2,375.9z M165.2,286.6l8-0.7
			l-0.4-5.1l-4.8-1.8L165.2,286.6z M167,239.7l1.7,7.8l5.8-1.3l0.5-5.9L167,239.7z M167.5,234.1l8,0.6l0,0L167.5,234.1z
			 M285.7,113.6v-8h0h0L285.7,113.6z M285.9,113.6l0,8h0L285.9,113.6z M286,113.6l0-8h0h0L286,113.6z M404.3,234.1l8-0.6l0,0l0,0
			L404.3,234.1z M404.3,234.1l-8,0.6l0,0l0,0L404.3,234.1z M404.7,239.4l-8,0.6l0.5,7l7,0.4L404.7,239.4z M406.6,287.2l-1.5-7.9
			l-5.9,1.2l-0.5,6L406.6,287.2z M326.9,374.4l-2.8-7.5l-5.5,2.1l0.3,5.8L326.9,374.4z M331.8,421.3l-7.9,1.5l1.2,6.5h6.7V421.3z
			 M433.5,456.9l-7,3.9l2.8,5.1l5.7-1.1L433.5,456.9z M462.2,442.4l-5.4-5.9l0,0L462.2,442.4z M468.1,436.9l5.4,5.9l0,0L468.1,436.9
			z M481,320.2l-6.6,4.6l0,0L481,320.2z M473.6,274.1l-7.7-2.3l0,0L473.6,274.1z M454,187.4l-5.9,5.4l0,0L454,187.4z M445,177.5
			l5.9-5.4l0,0L445,177.5z M430.9,150.6l-7.8,1.8l0,0L430.9,150.6z M425,125.3l7.8-1.8l0,0L425,125.3z M375.6,79.4l-1.2,7.9l0,0
			L375.6,79.4z M357.5,76.7l1.2-7.9l0,0L357.5,76.7z M280,60.1L330.4,78l5.4-15.1l-50.3-17.9L280,60.1z M196,89.1
			c17.8-28.1,52.7-40.1,84-29l5.4-15.1c-38.4-13.6-81.1,1.1-102.9,35.5L196,89.1z M144.2,137.5c21.1-11.4,39-28.1,51.9-48.4
			l-13.5-8.6c-11.4,18-27.2,32.8-46,42.9L144.2,137.5z M125.7,147.5l18.5-10l-7.6-14.1l-18.5,10L125.7,147.5z M99.3,203.1
			c-4.3-22.3,6.4-44.7,26.3-55.5l-7.6-14.1c-26.1,14.1-40,43.5-34.4,72.6L99.3,203.1z M106.3,239.1l-6.9-36.1l-15.7,3l6.9,36.1
			L106.3,239.1z M97.2,304.1c10.1-20.1,13.3-42.9,9.1-65l-15.7,3c3.6,18.6,0.9,37.9-7.7,54.8L97.2,304.1z M93,312.5l4.2-8.4
			l-14.3-7.2l-4.2,8.4L93,312.5z M113,404c-27.5-21.9-35.9-60.1-20.1-91.5l-14.3-7.2c-19.3,38.2-9.1,84.6,24.4,111.2L113,404z
			 M124.4,416.2c-3.2-4.6-7-8.7-11.4-12.2l-10,12.5c3.2,2.5,5.9,5.5,8.2,8.8L124.4,416.2z M132.4,427.6l-7.9-11.4l-13.1,9.1
			l7.9,11.4L132.4,427.6z M148.2,442.5c-6.2-3.7-11.6-8.8-15.8-14.9l-13.1,9.1c5.5,8,12.6,14.5,20.7,19.4L148.2,442.5z M150.5,454.1
			c11.1-15.1,30.4-24.8,51.8-24.8v-16c-26.1,0-50.3,11.8-64.7,31.3L150.5,454.1z M202.3,429.3h42.1v-16h-42.1V429.3z M252.2,422.7
			c2.9-15.5,4.3-32.9,5-46.4l-16-0.8c-0.7,13.2-2.1,29.9-4.7,44.3L252.2,422.7z M157.2,287.2c1.9,23.5,14.1,44.1,30.6,60.4
			c16.5,16.3,37.7,28.7,58.8,35.9l5.2-15.1c-19-6.5-38.1-17.7-52.7-32.1c-14.6-14.4-24.4-31.7-25.9-50.3L157.2,287.2z M143.9,263.4
			c0,13.2,6.7,26.4,18.5,30.7l5.5-15c-3.5-1.3-8-6.8-8-15.6H143.9z M165.3,231.9c-13.6,2.9-21.4,17.4-21.4,31.5h16
			c0-9.7,5.2-15.1,8.8-15.9L165.3,231.9z M159.5,233.5c-0.1,1.8-0.3,3.7-0.4,5.6l16,1.2c0.1-1.9,0.3-3.8,0.4-5.6L159.5,233.5z
			 M161,204.3c0,10.8-0.7,19.1-1.5,29.2l15.9,1.3c0.8-10.1,1.5-19,1.5-30.5H161z M285.7,105.6c-66.3,0.1-124.8,41.2-124.8,98.7h16
			c0-45,47.1-82.6,108.8-82.7L285.7,105.6z M285.9,105.6c0,0-0.1,0-0.1,0c0,0,0,0-0.1,0v16c0.2,0,0,0,0.2,0L285.9,105.6z M286,105.6
			h-0.2l0,16h0.2L286,105.6z M410.8,204.3c0-57.6-58.4-98.6-124.8-98.7l0,16c61.7,0.1,108.8,37.7,108.8,82.7H410.8z M412.3,233.5
			c-0.8-10.1-1.5-18.4-1.5-29.2h-16c0,11.5,0.7,20.4,1.5,30.5L412.3,233.5z M412.3,233.5L412.3,233.5l-16,1.2l0,0L412.3,233.5z
			 M412.7,238.8c-0.1-1.8-0.3-3.6-0.4-5.3l-15.9,1.3c0.1,1.7,0.3,3.5,0.4,5.3L412.7,238.8z M429.9,263.4c0-8-2.4-15.5-6.5-21.3
			c-4.2-5.8-10.5-10.2-18.2-10.7l-0.9,16c1.8,0.1,4.1,1.2,6.2,4c2,2.8,3.5,7,3.5,11.9H429.9z M408.1,295
			c13.8-2.7,21.8-17.3,21.8-31.6h-16c0,9.9-5.4,15.2-8.9,15.9L408.1,295z M329.7,381.9c39.7-15,80.8-49.2,84.8-94l-15.9-1.4
			c-3.3,35.9-37.3,66.4-74.6,80.5L329.7,381.9z M318.9,374.8c0.7,13.7,2.1,31.9,5.1,47.9l15.7-2.9c-2.8-15-4.2-32.4-4.8-45.8
			L318.9,374.8z M331.8,429.3h38.1v-16h-38.1V429.3z M369.9,429.3c24.5,0,46.1,12.7,56.6,31.5l14-7.8
			c-13.5-24.3-40.7-39.8-70.6-39.8V429.3z M456.8,436.5c-7,6.4-15.6,10.7-24.8,12.5l3.1,15.7c12.1-2.4,23.4-8,32.6-16.5L456.8,436.5
			z M462.7,431.1l-5.9,5.5l10.8,11.8l5.9-5.5L462.7,431.1z M474.4,324.7c23.3,33.4,18.3,78.8-11.7,106.3l10.8,11.8
			c35.8-32.9,41.8-87.3,14-127.2L474.4,324.7z M466,271.8c-5.4,18-2.3,37.5,8.4,53l13.1-9.1c-7.9-11.4-10.2-25.9-6.2-39.2L466,271.8
			z M448.1,192.8c19.4,21.3,26.2,51.3,17.9,79l15.3,4.6c9.9-33,1.8-68.9-21.4-94.3L448.1,192.8z M439.1,182.9l9,9.9l11.8-10.8
			l-9-9.9L439.1,182.9z M423.1,152.4c2.6,11.4,8.1,21.9,16,30.5l11.8-10.8c-6-6.6-10.2-14.6-12.2-23.4L423.1,152.4z M417.2,127
			l5.8,25.3l15.6-3.6l-5.8-25.3L417.2,127z M374.4,87.3c21.1,3.2,38,19,42.8,39.7l15.6-3.6c-6.3-27.1-28.4-47.7-56-51.9L374.4,87.3z
			 M356.3,84.6l18.1,2.8l2.4-15.8l-18.1-2.8L356.3,84.6z M330.4,78c8.4,3,17.1,5.2,25.9,6.5l2.4-15.8c-7.8-1.2-15.5-3.1-23-5.8
			L330.4,78z"/>
		<path class="st15" d="M268.5,170.1h18.4c36.3,0,65.8-29.5,65.8-65.8c0-1.4-1.1-2.5-2.5-2.6l-117-7.9c-0.5,0-1.1,0.1-1.6,0.3
			l-85.9,44.6c-1,0.5-1.6,1.5-1.6,2.7v92.3c0,1.3,1,2.3,2.3,2.3c14.5,0,28.4-5.5,38.9-15.5l31.6-29.9
			C230.9,177.4,249.3,170.1,268.5,170.1z"/>
		<path class="st16" d="M144.1,235.9L144.1,235.9c15.9,0,31.3-6.1,42.8-17l29.9-28.3c13.9-13.2,32.4-20.5,51.5-20.5h16
			c37.7,0,68.3-30.6,68.3-68.3l0,0"/>
		<path class="st15" d="M315.3,217.6c-4.8-2.9-4.7-8.9,1-11.5c23.6-6,41.1,1.1,54,13.3c1.2,1.1,2.5,2.3,3.7,3.3
			c1.8,2.7-0.4,4.5-2.9,4.3c-14.7-10.3-28.7-10-36.8-9.7c-4.3,0.2-9.1,1.8-12.2,1.9C318.7,219.4,316.2,218.1,315.3,217.6z"/>
		<path class="st15" d="M253.9,217.6c4.8-2.9,4.7-8.9-1-11.5c-23.6-6-41.1,1.1-54,13.3c-1.2,1.1-2.5,2.3-3.7,3.3
			c-1.8,2.7,0.4,4.5,2.9,4.3c14.7-10.3,28.7-10,36.8-9.7c4.3,0.2,9.1,1.8,12.2,1.9C250.6,219.4,253.1,218.1,253.9,217.6z"/>
		<ellipse class="st17" cx="352" cy="254.5" rx="15" ry="16.5"/>
		<ellipse class="st17" cx="221" cy="254.5" rx="15" ry="16.5"/>
		<ellipse class="st18" cx="225" cy="251" rx="3" ry="4"/>
		<ellipse class="st18" cx="359" cy="251" rx="3" ry="4"/>
		<circle class="st19" cx="224.5" cy="321.5" r="3.5"/>
		<circle class="st19" cx="231.5" cy="332.5" r="3.5"/>
		<circle class="st19" cx="243.5" cy="321.5" r="3.5"/>
		<circle class="st19" cx="347.5" cy="321.5" r="3.5"/>
		<circle class="st19" cx="340.5" cy="332.5" r="3.5"/>
		<circle class="st19" cx="328.5" cy="321.5" r="3.5"/>
		<circle class="st19" cx="215.5" cy="309.5" r="3.5"/>
		<circle class="st19" cx="222.5" cy="298.5" r="3.5"/>
		<circle class="st19" cx="234.5" cy="309.5" r="3.5"/>
		<circle class="st19" cx="353.5" cy="309.5" r="3.5"/>
		<circle class="st19" cx="346.5" cy="298.5" r="3.5"/>
		<circle class="st19" cx="334.5" cy="309.5" r="3.5"/>
		<ellipse class="st20" cx="287.5" cy="314" rx="23.6" ry="13"/>
		<path class="st21" d="M253,308.9c18.2,5.6,50.8,5.6,69,0"/>
		<path class="st22" d="M312.4,218.2c19.1-7.7,40.8-7.3,60.1-0.3c9.5,3.4,16.7,11.5,19.3,21.4c4.9,18.6,3.1,35-5.2,46.1
			c-8.2,11-23.4,17.8-47.4,16c-22-2.9-33.4-13.4-38.9-25.6c-5.7-12.5-5.6-27.2-3.5-38.5C298.3,228.5,304.2,221.4,312.4,218.2z"/>
		<path class="st22" d="M256.6,218.2c-19.1-7.7-40.8-7.3-60.1-0.3c-9.5,3.4-16.7,11.5-19.3,21.4c-4.9,18.6-3.1,35,5.2,46.1
			c8.2,11,23.4,17.8,47.4,16c22-2.9,33.4-13.4,38.9-25.6c5.7-12.5,5.6-27.2,3.5-38.5C270.7,228.5,264.8,221.4,256.6,218.2z"/>
		<path class="st22" d="M268,228c13.4-8.4,20.4-8.1,33,2"/>
	</g>
</g>
</svg>
