<?xml version="1.0" encoding="utf-8"?>
<!-- Generator: Adobe Illustrator 25.2.1, SVG Export Plug-In . SVG Version: 6.00 Build 0)  -->
<svg version="1.1" id="Layer_1" xmlns="http://www.w3.org/2000/svg" xmlns:xlink="http://www.w3.org/1999/xlink" x="0px" y="0px"
	 viewBox="0 0 561 561" style="enable-background:new 0 0 561 561;" xml:space="preserve">
<style type="text/css">
	.st0{clip-path:url(#SVGID_2_);}
	.st1{fill:#EFBBBB;}
	.st2{fill:#343F24;}
	.st3{fill:#FFFFFF;filter:url(#Adobe_OpacityMaskFilter);}
	.st4{mask:url(#path-2-inside-1_489_1865_1_);fill:#150C0C;}
	.st5{fill-rule:evenodd;clip-rule:evenodd;fill:#F6D7CB;}
	.st6{fill-rule:evenodd;clip-rule:evenodd;fill:#FFFFFF;filter:url(#Adobe_OpacityMaskFilter_1_);}
	.st7{mask:url(#path-4-inside-2_489_1865_1_);fill:#150C0C;}
	.st8{fill:#F6D7CB;stroke:#150C0C;stroke-width:8;}
	.st9{fill:#B78276;stroke:#150C0C;stroke-width:8;}
	.st10{fill-rule:evenodd;clip-rule:evenodd;fill:#FCAC15;}
	.st11{fill:#FFFFFF;filter:url(#Adobe_OpacityMaskFilter_2_);}
	.st12{fill-rule:evenodd;clip-rule:evenodd;}
	.st13{mask:url(#path-10-outside-3_489_1865_1_);fill:#150C0C;}
	.st14{fill:#FCAC15;}
	.st15{fill:#150C0C;}
	.st16{fill:#FFFFFF;fill-opacity:0.9;}
	.st17{fill:#9C6458;fill-opacity:0.5;}
	.st18{fill:#992208;stroke:#150C0C;stroke-width:6;}
	.st19{fill:none;stroke:#150C0C;stroke-width:6;stroke-linecap:round;}
	.st20{fill:none;stroke:#9AA589;stroke-width:3;}
</style>
<g>
	<defs>
		<path id="SVGID_1_" d="M280.5,0L280.5,0C435.4,0,561,125.6,561,280.5l0,0C561,435.4,435.4,561,280.5,561l0,0
			C125.6,561,0,435.4,0,280.5l0,0C0,125.6,125.6,0,280.5,0z"/>
	</defs>
	<clipPath id="SVGID_2_">
		<use xlink:href="#SVGID_1_"  style="overflow:visible;"/>
	</clipPath>
	<g class="st0">
		<path class="st1" d="M280.5,0L280.5,0C435.4,0,561,125.6,561,280.5l0,0C561,435.4,435.4,561,280.5,561l0,0
			C125.6,561,0,435.4,0,280.5l0,0C0,125.6,125.6,0,280.5,0z"/>
		<path class="st2" d="M109,504c-0.3-37.5,31.8-65,69.3-65h202.9c39.1,0,71.9,29.7,70.5,68.7c-1.2,33.6-5.8,73.1-18.9,102.5
			c-8.4,18.7-28.9,26.8-49.4,26.8c-56.8,0-139.6,0-203.6,0c-20.5,0-41.1-7.9-50.3-26.3C113.7,579.1,109.3,538,109,504z"/>
		<defs>
			<filter id="Adobe_OpacityMaskFilter" filterUnits="userSpaceOnUse" x="101" y="431" width="358.7" height="214">
				<feColorMatrix  type="matrix" values="1 0 0 0 0  0 1 0 0 0  0 0 1 0 0  0 0 0 1 0"/>
			</filter>
		</defs>
		<mask maskUnits="userSpaceOnUse" x="101" y="431" width="358.7" height="214" id="path-2-inside-1_489_1865_1_">
			<path class="st3" d="M109,504c-0.3-37.5,31.8-65,69.3-65h202.9c39.1,0,71.9,29.7,70.5,68.7c-1.2,33.6-5.8,73.1-18.9,102.5
				c-8.4,18.7-28.9,26.8-49.4,26.8c-56.8,0-139.6,0-203.6,0c-20.5,0-41.1-7.9-50.3-26.3C113.7,579.1,109.3,538,109,504z"/>
		</mask>
		<path class="st4" d="M179.7,637v8V637z M129.4,610.7l-7.2,3.6L129.4,610.7z M451.7,507.7l-8-0.3L451.7,507.7z M443.7,507.4
			c-1.2,33.4-5.7,71.6-18.2,99.5l14.6,6.5c13.8-30.9,18.4-71.6,19.6-105.5L443.7,507.4z M383.3,629c-0.1,0-0.2,0-0.3,0
			c-0.1,0-0.2,0-0.3,0c-0.1,0-0.2,0-0.3,0c-0.1,0-0.2,0-0.3,0s-0.2,0-0.3,0c-0.1,0-0.2,0-0.3,0c-0.1,0-0.2,0-0.3,0s-0.2,0-0.3,0
			c-0.1,0-0.2,0-0.3,0c-0.1,0-0.2,0-0.3,0c-0.1,0-0.2,0-0.3,0c-0.1,0-0.2,0-0.3,0c-0.1,0-0.2,0-0.3,0c-0.1,0-0.2,0-0.3,0
			c-0.1,0-0.2,0-0.3,0c-0.1,0-0.2,0-0.3,0c-0.1,0-0.2,0-0.3,0c-0.1,0-0.2,0-0.3,0c-0.1,0-0.2,0-0.3,0c-0.1,0-0.2,0-0.3,0
			c-0.1,0-0.2,0-0.3,0c-0.1,0-0.2,0-0.3,0c-0.1,0-0.2,0-0.3,0c-0.1,0-0.2,0-0.3,0c-0.1,0-0.2,0-0.3,0c-0.1,0-0.2,0-0.3,0
			c-0.1,0-0.2,0-0.3,0s-0.2,0-0.3,0c-0.1,0-0.2,0-0.3,0c-0.1,0-0.2,0-0.3,0c-0.1,0-0.2,0-0.4,0s-0.2,0-0.4,0s-0.2,0-0.4,0
			s-0.2,0-0.4,0c-0.1,0-0.2,0-0.4,0c-0.1,0-0.2,0-0.4,0c-0.1,0-0.2,0-0.4,0c-0.1,0-0.2,0-0.4,0c-0.1,0-0.2,0-0.4,0s-0.2,0-0.4,0
			c-0.1,0-0.2,0-0.4,0c-0.1,0-0.2,0-0.4,0c-0.6,0-0.1,0-0.7,0c-0.1,0-0.2,0-0.4,0c-0.1,0-0.2,0-0.4,0c-0.1,0-0.2,0-0.4,0
			c-0.1,0-0.2,0-0.4,0c-0.1,0-0.2,0-0.4,0c-0.1,0-0.2,0-0.4,0c-0.1,0-0.2,0-0.4,0c-0.1,0-0.2,0-0.4,0c-0.1,0-0.2,0-0.4,0
			c-0.1,0-0.2,0-0.4,0c-0.1,0-0.2,0-0.4,0c-0.1,0-0.2,0-0.4,0s-0.2,0-0.4,0c-0.1,0-0.2,0-0.4,0c-0.1,0-0.2,0-0.4,0
			c-0.1,0-0.2,0-0.4,0c-0.1,0-0.2,0-0.4,0c-0.1,0-0.2,0-0.4,0c-0.1,0-0.2,0-0.4,0s-0.2,0-0.4,0c-0.1,0-0.2,0-0.4,0
			c-0.1,0-0.2,0-0.4,0c-0.1,0-0.2,0-0.4,0c-0.1,0-0.2,0-0.4,0c-0.1,0-0.2,0-0.4,0c-0.1,0-0.2,0-0.4,0c-0.1,0-0.2,0-0.4,0
			c-0.1,0-0.2,0-0.4,0c-0.1,0-0.2,0-0.4,0c-0.1,0-0.2,0-0.4,0c-0.1,0-0.2,0-0.4,0c-0.1,0-0.2,0-0.4,0c-0.1,0-0.2,0-0.4,0
			c-0.1,0-0.2,0-0.4,0c-0.1,0-0.2,0-0.4,0c-0.1,0-0.2,0-0.4,0s-0.2,0-0.4,0s-0.2,0-0.4,0s-0.2,0-0.4,0s-0.2,0-0.4,0s-0.3,0-0.4,0
			s-0.3,0-0.4,0c-0.1,0-0.3,0-0.4,0c-0.1,0-0.3,0-0.4,0c-0.1,0-0.3,0-0.4,0s-0.3,0-0.4,0c-0.1,0-0.3,0-0.4,0c-0.1,0-0.3,0-0.4,0
			c-0.1,0-0.3,0-0.4,0c-0.1,0-0.3,0-0.4,0c-0.1,0-0.3,0-0.4,0c-0.1,0-0.3,0-0.4,0c-0.1,0-0.3,0-0.4,0c-0.1,0-0.3,0-0.4,0
			c-0.1,0-0.3,0-0.4,0c-0.1,0-0.3,0-0.4,0c-0.1,0-0.3,0-0.4,0c-0.1,0-0.3,0-0.4,0c-0.1,0-0.3,0-0.4,0c-0.1,0-0.3,0-0.4,0
			c-0.1,0-0.3,0-0.4,0c-0.1,0-0.3,0-0.4,0c-0.1,0-0.3,0-0.4,0c-0.1,0-0.3,0-0.4,0c-0.1,0-0.3,0-0.4,0c-0.1,0-0.3,0-0.4,0
			c-0.1,0-0.3,0-0.4,0c-0.1,0-0.3,0-0.4,0s-0.3,0-0.4,0s-0.3,0-0.4,0s-0.3,0-0.4,0c-0.1,0-0.3,0-0.4,0c-0.1,0-0.3,0-0.4,0
			c-0.1,0-0.3,0-0.4,0c-0.1,0-0.3,0-0.4,0s-0.3,0-0.4,0s-0.3,0-0.4,0s-0.3,0-0.4,0s-0.3,0-0.4,0c-0.1,0-0.3,0-0.4,0
			c-0.1,0-0.3,0-0.4,0c-0.1,0-0.3,0-0.4,0c-0.1,0-0.3,0-0.4,0c-0.1,0-0.3,0-0.4,0c-0.1,0-0.3,0-0.4,0c-0.1,0-0.3,0-0.4,0
			c-0.1,0-0.3,0-0.4,0c-0.1,0-0.3,0-0.4,0c-0.1,0-0.3,0-0.4,0c-0.1,0-0.3,0-0.4,0c-0.1,0-0.3,0-0.4,0c-0.1,0-0.3,0-0.4,0
			c-0.1,0-0.3,0-0.4,0c-0.1,0-0.3,0-0.4,0c-0.1,0-0.3,0-0.4,0c-0.1,0-0.3,0-0.4,0c-0.1,0-0.3,0-0.4,0c-0.1,0-0.3,0-0.4,0
			c-0.1,0-0.3,0-0.4,0c-0.1,0-0.3,0-0.4,0s-0.3,0-0.4,0s-0.3,0-0.4,0c-0.1,0-0.3,0-0.4,0c-0.1,0-0.3,0-0.4,0c-0.1,0-0.3,0-0.4,0
			s-0.3,0-0.4,0c-0.1,0-0.3,0-0.4,0c-0.1,0-0.3,0-0.4,0s-0.3,0-0.4,0c-0.1,0-0.3,0-0.4,0c-0.1,0-0.3,0-0.4,0c-0.1,0-0.3,0-0.4,0
			c-0.1,0-0.3,0-0.4,0s-0.3,0-0.4,0s-0.3,0-0.4,0c-0.1,0-0.3,0-0.4,0s-0.3,0-0.4,0s-0.3,0-0.4,0s-0.3,0-0.4,0s-0.3,0-0.4,0
			c-0.1,0-0.3,0-0.4,0c-0.1,0-0.3,0-0.4,0c-0.1,0-0.3,0-0.4,0c-0.1,0-0.3,0-0.4,0c-0.1,0-0.3,0-0.4,0c-0.1,0-0.3,0-0.4,0
			c-0.1,0-0.3,0-0.4,0c-0.1,0-0.3,0-0.4,0c-0.1,0-0.3,0-0.4,0c-0.1,0-0.3,0-0.4,0c-0.1,0-0.3,0-0.4,0c-0.1,0-0.3,0-0.4,0
			c-0.1,0-0.3,0-0.4,0c-0.1,0-0.3,0-0.4,0c-0.1,0-0.3,0-0.4,0c-0.1,0-0.3,0-0.4,0c-0.1,0-0.3,0-0.4,0c-0.1,0-0.3,0-0.4,0
			s-0.3,0-0.4,0c-0.1,0-0.3,0-0.4,0c-0.1,0-0.3,0-0.4,0c-0.1,0-0.3,0-0.4,0c-0.1,0-0.3,0-0.4,0c-0.1,0-0.3,0-0.4,0
			c-0.1,0-0.3,0-0.4,0c-0.1,0-0.3,0-0.4,0c-0.1,0-0.3,0-0.4,0c-0.1,0-0.3,0-0.4,0c-0.1,0-0.3,0-0.4,0s-0.3,0-0.4,0s-0.3,0-0.4,0
			c-0.1,0-0.3,0-0.4,0s-0.3,0-0.4,0s-0.3,0-0.4,0c-0.1,0-0.3,0-0.4,0c-0.1,0-0.3,0-0.4,0c-0.1,0-0.3,0-0.4,0c-0.1,0-0.3,0-0.4,0
			c-0.1,0-0.3,0-0.4,0s-0.3,0-0.4,0c-0.1,0-0.3,0-0.4,0c-0.1,0-0.3,0-0.4,0c-0.1,0-0.3,0-0.4,0c-0.1,0-0.3,0-0.4,0
			c-0.1,0-0.3,0-0.4,0s-0.3,0-0.4,0c-0.1,0-0.3,0-0.4,0s-0.3,0-0.4,0s-0.3,0-0.4,0s-0.3,0-0.4,0s-0.3,0-0.4,0c-0.1,0-0.3,0-0.4,0
			s-0.3,0-0.4,0c-0.1,0-0.3,0-0.4,0c-0.1,0-0.3,0-0.4,0c-0.1,0-0.3,0-0.4,0c-0.1,0-0.3,0-0.4,0c-0.1,0-0.3,0-0.4,0
			c-0.1,0-0.3,0-0.4,0c-0.1,0-0.3,0-0.4,0c-0.1,0-0.3,0-0.4,0c-0.1,0-0.3,0-0.4,0c-0.1,0-0.3,0-0.4,0c-0.1,0-0.3,0-0.4,0
			s-0.3,0-0.4,0c-0.1,0-0.3,0-0.4,0s-0.3,0-0.4,0c-0.1,0-0.3,0-0.4,0c-0.1,0-0.3,0-0.4,0s-0.3,0-0.4,0c-0.1,0-0.3,0-0.4,0
			s-0.3,0-0.4,0c-0.1,0-0.3,0-0.4,0c-0.1,0-0.3,0-0.4,0c-0.1,0-0.3,0-0.4,0c-0.1,0-0.3,0-0.4,0c-0.1,0-0.3,0-0.4,0
			c-0.1,0-0.3,0-0.4,0c-0.1,0-0.3,0-0.4,0s-0.3,0-0.4,0c-0.1,0-0.3,0-0.4,0c-0.1,0-0.3,0-0.4,0c-0.1,0-0.3,0-0.4,0
			c-0.1,0-0.3,0-0.4,0c-0.1,0-0.3,0-0.4,0c-0.1,0-0.3,0-0.4,0s-0.3,0-0.4,0c-0.1,0-0.3,0-0.4,0c-0.1,0-0.3,0-0.4,0
			c-0.1,0-0.3,0-0.4,0c-0.1,0-0.3,0-0.4,0c-0.1,0-0.3,0-0.4,0c-0.1,0-0.3,0-0.4,0c-0.1,0-0.3,0-0.4,0c-0.1,0-0.3,0-0.4,0
			c-0.1,0-0.3,0-0.4,0s-0.3,0-0.4,0c-0.1,0-0.3,0-0.4,0c-0.1,0-0.3,0-0.4,0c-0.1,0-0.3,0-0.4,0c-0.1,0-0.3,0-0.4,0
			c-0.1,0-0.3,0-0.4,0c-0.1,0-0.3,0-0.4,0c-0.1,0-0.3,0-0.4,0c-0.1,0-0.3,0-0.4,0c-0.1,0-0.3,0-0.4,0c-0.1,0-0.3,0-0.4,0
			c-0.1,0-0.3,0-0.4,0c-0.1,0-0.3,0-0.4,0c-0.1,0-0.3,0-0.4,0c-0.1,0-0.3,0-0.4,0c-0.1,0-0.3,0-0.4,0c-0.1,0-0.3,0-0.4,0
			c-0.1,0-0.3,0-0.4,0c-0.1,0-0.3,0-0.4,0c-0.1,0-0.3,0-0.4,0c-0.1,0-0.3,0-0.4,0c-0.1,0-0.3,0-0.4,0s-0.3,0-0.4,0
			c-0.1,0-0.3,0-0.4,0c-0.1,0-0.3,0-0.4,0c-0.1,0-0.3,0-0.4,0c-0.1,0-0.3,0-0.4,0c-0.1,0-0.3,0-0.4,0c-0.1,0-0.3,0-0.4,0
			c-0.1,0-0.3,0-0.4,0c-0.1,0-0.3,0-0.4,0c-0.1,0-0.3,0-0.4,0c-0.1,0-0.3,0-0.4,0c-0.1,0-0.3,0-0.4,0c-0.1,0-0.3,0-0.4,0
			c-0.1,0-0.3,0-0.4,0c-0.1,0-0.3,0-0.4,0c-0.1,0-0.3,0-0.4,0c-0.1,0-0.3,0-0.4,0c-0.1,0-0.3,0-0.4,0c-0.1,0-0.3,0-0.4,0
			c-0.1,0-0.3,0-0.4,0c-0.1,0-0.3,0-0.4,0c-0.1,0-0.3,0-0.4,0c-0.1,0-0.3,0-0.4,0c-0.1,0-0.3,0-0.4,0c-0.1,0-0.3,0-0.4,0
			c-0.1,0-0.3,0-0.4,0c-0.1,0-0.3,0-0.4,0c-0.1,0-0.3,0-0.4,0c-0.1,0-0.3,0-0.4,0c-0.1,0-0.3,0-0.4,0c-0.1,0-0.3,0-0.4,0
			c-0.1,0-0.3,0-0.4,0c-0.1,0-0.3,0-0.4,0c-0.1,0-0.3,0-0.4,0c-0.1,0-0.3,0-0.4,0c-0.1,0-0.3,0-0.4,0c-0.1,0-0.3,0-0.4,0
			c-0.1,0-0.3,0-0.4,0c-0.1,0-0.3,0-0.4,0c-0.1,0-0.3,0-0.4,0c-0.1,0-0.3,0-0.4,0c-0.1,0-0.3,0-0.4,0s-0.3,0-0.4,0s-0.3,0-0.4,0
			c-0.1,0-0.3,0-0.4,0s-0.3,0-0.4,0s-0.3,0-0.4,0c-0.1,0-0.3,0-0.4,0s-0.3,0-0.4,0s-0.3,0-0.4,0s-0.3,0-0.4,0s-0.3,0-0.4,0
			s-0.3,0-0.4,0c-0.1,0-0.3,0-0.4,0s-0.3,0-0.4,0s-0.3,0-0.4,0c-0.1,0-0.3,0-0.4,0s-0.3,0-0.4,0c-0.1,0-0.3,0-0.4,0s-0.3,0-0.4,0
			s-0.3,0-0.4,0c-0.1,0-0.3,0-0.4,0c-0.1,0-0.3,0-0.4,0c-0.1,0-0.3,0-0.4,0c-0.1,0-0.3,0-0.4,0s-0.3,0-0.4,0c-0.1,0-0.3,0-0.4,0
			c-0.1,0-0.3,0-0.4,0c-0.1,0-0.3,0-0.4,0c-0.1,0-0.3,0-0.4,0c-0.1,0-0.3,0-0.4,0c-0.1,0-0.3,0-0.4,0c-0.1,0-0.3,0-0.4,0
			c-0.1,0-0.3,0-0.4,0c-0.1,0-0.3,0-0.4,0c-0.1,0-0.3,0-0.4,0c-0.1,0-0.3,0-0.4,0c-0.1,0-0.3,0-0.4,0c-0.1,0-0.3,0-0.4,0
			c-0.1,0-0.3,0-0.4,0c-0.1,0-0.3,0-0.4,0c-0.1,0-0.3,0-0.4,0c-0.1,0-0.3,0-0.4,0c-0.1,0-0.3,0-0.4,0c-0.1,0-0.3,0-0.4,0
			c-0.1,0-0.3,0-0.4,0c-0.1,0-0.3,0-0.4,0c-0.1,0-0.3,0-0.4,0c-0.1,0-0.3,0-0.4,0c-0.1,0-0.3,0-0.4,0c-0.1,0-0.3,0-0.4,0
			c-0.1,0-0.3,0-0.4,0c-0.1,0-0.3,0-0.4,0c-0.1,0-0.3,0-0.4,0c-0.1,0-0.3,0-0.4,0s-0.3,0-0.4,0c-0.1,0-0.3,0-0.4,0s-0.3,0-0.4,0
			s-0.3,0-0.4,0s-0.3,0-0.4,0c-0.1,0-0.3,0-0.4,0s-0.3,0-0.4,0s-0.3,0-0.4,0c-0.1,0-0.3,0-0.4,0s-0.3,0-0.4,0c-0.1,0-0.3,0-0.4,0
			c-0.1,0-0.3,0-0.4,0c-0.1,0-0.3,0-0.4,0c-0.1,0-0.3,0-0.4,0c-0.1,0-0.3,0-0.4,0c-0.1,0-0.3,0-0.4,0c-0.1,0-0.3,0-0.4,0
			c-0.1,0-0.3,0-0.4,0c-0.1,0-0.3,0-0.4,0c-0.1,0-0.3,0-0.4,0c-0.1,0-0.3,0-0.4,0c-0.1,0-0.3,0-0.4,0c-0.1,0-0.3,0-0.4,0
			c-0.1,0-0.3,0-0.4,0c-0.1,0-0.3,0-0.4,0c-0.1,0-0.3,0-0.4,0c-0.1,0-0.3,0-0.4,0c-0.1,0-0.3,0-0.4,0c-0.1,0-0.3,0-0.4,0
			c-0.1,0-0.3,0-0.4,0c-0.1,0-0.3,0-0.4,0c-0.1,0-0.3,0-0.4,0c-0.1,0-0.3,0-0.4,0s-0.3,0-0.4,0c-0.1,0-0.3,0-0.4,0s-0.3,0-0.4,0
			s-0.3,0-0.4,0c-0.1,0-0.3,0-0.4,0s-0.3,0-0.4,0c-0.1,0-0.3,0-0.4,0c-0.1,0-0.3,0-0.4,0c-0.1,0-0.3,0-0.4,0c-0.1,0-0.3,0-0.4,0
			c-0.1,0-0.3,0-0.4,0c-0.1,0-0.3,0-0.4,0s-0.3,0-0.4,0c-0.1,0-0.3,0-0.4,0c-0.1,0-0.3,0-0.4,0s-0.3,0-0.4,0s-0.3,0-0.4,0
			c-0.1,0-0.3,0-0.4,0c-0.1,0-0.3,0-0.4,0c-0.1,0-0.3,0-0.4,0c-0.1,0-0.3,0-0.4,0c-0.1,0-0.3,0-0.4,0c-0.1,0-0.3,0-0.4,0
			c-0.1,0-0.3,0-0.4,0s-0.3,0-0.4,0c-0.1,0-0.3,0-0.4,0s-0.3,0-0.4,0c-0.1,0-0.3,0-0.4,0c-0.1,0-0.3,0-0.4,0c-0.1,0-0.3,0-0.4,0
			c-0.1,0-0.3,0-0.4,0c-0.1,0-0.3,0-0.4,0c-0.1,0-0.3,0-0.4,0c-0.1,0-0.3,0-0.4,0s-0.3,0-0.4,0c-0.1,0-0.3,0-0.4,0
			c-0.1,0-0.3,0-0.4,0c-0.1,0-0.3,0-0.4,0c-0.1,0-0.3,0-0.4,0c-0.1,0-0.3,0-0.4,0s-0.3,0-0.4,0c-0.1,0-0.3,0-0.4,0
			c-0.1,0-0.3,0-0.4,0c-0.1,0-0.3,0-0.4,0c-0.1,0-0.3,0-0.4,0c-0.1,0-0.3,0-0.4,0c-0.1,0-0.3,0-0.4,0s-0.3,0-0.4,0s-0.3,0-0.4,0
			s-0.3,0-0.4,0c-0.1,0-0.3,0-0.4,0c-0.1,0-0.3,0-0.4,0c-0.1,0-0.3,0-0.4,0c-0.1,0-0.3,0-0.4,0s-0.3,0-0.4,0c-0.1,0-0.3,0-0.4,0
			s-0.3,0-0.4,0c-0.1,0-0.3,0-0.4,0s-0.3,0-0.4,0s-0.3,0-0.4,0c-0.1,0-0.3,0-0.4,0c-0.1,0-0.3,0-0.4,0c-0.1,0-0.3,0-0.4,0
			c-0.1,0-0.3,0-0.4,0c-0.1,0-0.3,0-0.4,0s-0.3,0-0.4,0c-0.1,0-0.3,0-0.4,0c-0.1,0-0.3,0-0.4,0c-0.1,0-0.3,0-0.4,0
			c-0.1,0-0.3,0-0.4,0c-0.1,0-0.3,0-0.4,0c-0.1,0-0.3,0-0.4,0s-0.3,0-0.4,0s-0.3,0-0.4,0c-0.1,0-0.3,0-0.4,0c-0.1,0-0.3,0-0.4,0
			c-0.1,0-0.3,0-0.4,0c-0.1,0-0.3,0-0.4,0c-0.1,0-0.3,0-0.4,0s-0.3,0-0.4,0c-0.1,0-0.3,0-0.4,0c-0.1,0-0.3,0-0.4,0
			c-0.1,0-0.3,0-0.4,0c-0.1,0-0.3,0-0.4,0s-0.3,0-0.4,0c-0.1,0-0.3,0-0.4,0c-0.1,0-0.3,0-0.4,0s-0.3,0-0.4,0c-0.1,0-0.3,0-0.4,0
			s-0.3,0-0.4,0c-0.1,0-0.3,0-0.4,0c-0.1,0-0.3,0-0.4,0c-0.1,0-0.3,0-0.4,0c-0.1,0-0.3,0-0.4,0c-0.1,0-0.3,0-0.4,0
			c-0.1,0-0.3,0-0.4,0c-0.1,0-0.3,0-0.4,0c-0.1,0-0.3,0-0.4,0c-0.1,0-0.3,0-0.4,0c-0.1,0-0.3,0-0.4,0c-0.1,0-0.3,0-0.4,0
			s-0.3,0-0.4,0v16c0.1,0,0.3,0,0.4,0s0.2,0,0.4,0c0.1,0,0.3,0,0.4,0c0.1,0,0.3,0,0.4,0c0.1,0,0.3,0,0.4,0c0.1,0,0.3,0,0.4,0
			c0.1,0,0.3,0,0.4,0c0.1,0,0.3,0,0.4,0c0.1,0,0.3,0,0.4,0c0.1,0,0.3,0,0.4,0c0.1,0,0.3,0,0.4,0c0.1,0,0.3,0,0.4,0
			c0.1,0,0.3,0,0.4,0s0.3,0,0.4,0c0.1,0,0.3,0,0.4,0s0.3,0,0.4,0c0.1,0,0.3,0,0.4,0c0.1,0,0.3,0,0.4,0s0.3,0,0.4,0
			c0.1,0,0.3,0,0.4,0c0.1,0,0.3,0,0.4,0c0.1,0,0.3,0,0.4,0c0.1,0,0.3,0,0.4,0s0.3,0,0.4,0c0.1,0,0.3,0,0.4,0c0.1,0,0.3,0,0.4,0
			c0.1,0,0.3,0,0.4,0c0.1,0,0.3,0,0.4,0c0.1,0,0.3,0,0.4,0s0.3,0,0.4,0s0.3,0,0.4,0c0.1,0,0.3,0,0.4,0c0.1,0,0.3,0,0.4,0
			c0.1,0,0.3,0,0.4,0c0.1,0,0.3,0,0.4,0c0.1,0,0.3,0,0.4,0c0.1,0,0.3,0,0.4,0s0.3,0,0.4,0c0.1,0,0.3,0,0.4,0c0.1,0,0.3,0,0.4,0
			c0.1,0,0.3,0,0.4,0c0.1,0,0.3,0,0.4,0c0.1,0,0.3,0,0.4,0s0.3,0,0.4,0s0.3,0,0.4,0c0.1,0,0.3,0,0.4,0s0.3,0,0.4,0
			c0.1,0,0.3,0,0.4,0s0.3,0,0.4,0c0.1,0,0.3,0,0.4,0c0.1,0,0.3,0,0.4,0c0.1,0,0.3,0,0.4,0c0.1,0,0.3,0,0.4,0s0.3,0,0.4,0
			s0.3,0,0.4,0s0.3,0,0.4,0c0.1,0,0.3,0,0.4,0c0.1,0,0.3,0,0.4,0c0.1,0,0.3,0,0.4,0c0.1,0,0.3,0,0.4,0c0.1,0,0.3,0,0.4,0
			c0.1,0,0.3,0,0.4,0s0.3,0,0.4,0c0.1,0,0.3,0,0.4,0c0.1,0,0.3,0,0.4,0c0.1,0,0.3,0,0.4,0c0.1,0,0.3,0,0.4,0c0.1,0,0.3,0,0.4,0
			s0.3,0,0.4,0c0.1,0,0.3,0,0.4,0c0.1,0,0.3,0,0.4,0c0.1,0,0.3,0,0.4,0c0.1,0,0.3,0,0.4,0c0.1,0,0.3,0,0.4,0c0.1,0,0.3,0,0.4,0
			c0.1,0,0.3,0,0.4,0s0.3,0,0.4,0c0.1,0,0.3,0,0.4,0s0.3,0,0.4,0c0.1,0,0.3,0,0.4,0c0.1,0,0.3,0,0.4,0c0.1,0,0.3,0,0.4,0
			c0.1,0,0.3,0,0.4,0c0.1,0,0.3,0,0.4,0c0.7,0,0.1,0,0.8,0c0.1,0,0.3,0,0.4,0s0.3,0,0.4,0c0.1,0,0.3,0,0.4,0c0.1,0,0.3,0,0.4,0
			s0.3,0,0.4,0c0.1,0,0.3,0,0.4,0c0.1,0,0.3,0,0.4,0c0.1,0,0.3,0,0.4,0c0.1,0,0.3,0,0.4,0c0.1,0,0.3,0,0.4,0c0.1,0,0.3,0,0.4,0
			s0.3,0,0.4,0c0.1,0,0.3,0,0.4,0s0.3,0,0.4,0s0.3,0,0.4,0c0.1,0,0.3,0,0.4,0s0.3,0,0.4,0c0.1,0,0.3,0,0.4,0c0.1,0,0.3,0,0.4,0
			c0.1,0,0.3,0,0.4,0c0.1,0,0.3,0,0.4,0c0.1,0,0.3,0,0.4,0c0.1,0,0.3,0,0.4,0c0.1,0,0.3,0,0.4,0c0.1,0,0.3,0,0.4,0
			c0.1,0,0.3,0,0.4,0c0.1,0,0.3,0,0.4,0c0.1,0,0.3,0,0.4,0c0.1,0,0.3,0,0.4,0c0.1,0,0.3,0,0.4,0c0.1,0,0.3,0,0.4,0
			c0.1,0,0.3,0,0.4,0c0.1,0,0.3,0,0.4,0c0.1,0,0.3,0,0.4,0c0.1,0,0.3,0,0.4,0c0.1,0,0.3,0,0.4,0c0.1,0,0.3,0,0.4,0
			c0.1,0,0.3,0,0.4,0c0.1,0,0.3,0,0.4,0c0.1,0,0.3,0,0.4,0s0.3,0,0.4,0c0.1,0,0.3,0,0.4,0s0.3,0,0.4,0s0.3,0,0.4,0
			c0.1,0,0.3,0,0.4,0s0.3,0,0.4,0s0.3,0,0.4,0s0.3,0,0.4,0c0.1,0,0.3,0,0.4,0s0.3,0,0.4,0c0.1,0,0.3,0,0.4,0c0.1,0,0.3,0,0.4,0
			c0.1,0,0.3,0,0.4,0c0.1,0,0.3,0,0.4,0c0.1,0,0.3,0,0.4,0c0.1,0,0.3,0,0.4,0c0.1,0,0.3,0,0.4,0c0.1,0,0.3,0,0.4,0
			c0.1,0,0.3,0,0.4,0c0.1,0,0.3,0,0.4,0c0.1,0,0.3,0,0.4,0c0.1,0,0.3,0,0.4,0c0.1,0,0.3,0,0.4,0c0.1,0,0.3,0,0.4,0
			c0.1,0,0.3,0,0.4,0c0.1,0,0.3,0,0.4,0c0.1,0,0.3,0,0.4,0c0.1,0,0.3,0,0.4,0c0.1,0,0.3,0,0.4,0c0.1,0,0.3,0,0.4,0
			c0.1,0,0.3,0,0.4,0c0.1,0,0.3,0,0.4,0c0.1,0,0.3,0,0.4,0c0.1,0,0.3,0,0.4,0c0.1,0,0.3,0,0.4,0c0.1,0,0.3,0,0.4,0
			c0.1,0,0.3,0,0.4,0c0.1,0,0.3,0,0.4,0c0.1,0,0.3,0,0.4,0s0.3,0,0.4,0c0.1,0,0.3,0,0.4,0c0.1,0,0.3,0,0.4,0c0.1,0,0.3,0,0.4,0
			c0.1,0,0.3,0,0.4,0s0.3,0,0.4,0s0.3,0,0.4,0c0.1,0,0.3,0,0.4,0s0.3,0,0.4,0c0.1,0,0.3,0,0.4,0s0.3,0,0.4,0s0.3,0,0.4,0
			c0.1,0,0.3,0,0.4,0s0.3,0,0.4,0s0.3,0,0.4,0s0.3,0,0.4,0s0.3,0,0.4,0s0.3,0,0.4,0c0.1,0,0.3,0,0.4,0s0.3,0,0.4,0s0.3,0,0.4,0
			c0.1,0,0.3,0,0.4,0s0.3,0,0.4,0s0.3,0,0.4,0c0.1,0,0.3,0,0.4,0c0.1,0,0.3,0,0.4,0c0.1,0,0.3,0,0.4,0c0.1,0,0.3,0,0.4,0
			c0.1,0,0.3,0,0.4,0c0.1,0,0.3,0,0.4,0c0.1,0,0.3,0,0.4,0c0.1,0,0.3,0,0.4,0c0.1,0,0.3,0,0.4,0c0.1,0,0.3,0,0.4,0
			c0.1,0,0.3,0,0.4,0c0.1,0,0.3,0,0.4,0c0.1,0,0.3,0,0.4,0c0.1,0,0.3,0,0.4,0c0.1,0,0.3,0,0.4,0c0.1,0,0.3,0,0.4,0
			c0.1,0,0.3,0,0.4,0c0.1,0,0.3,0,0.4,0c0.1,0,0.3,0,0.4,0c0.1,0,0.3,0,0.4,0c0.1,0,0.3,0,0.4,0c0.1,0,0.3,0,0.4,0
			c0.1,0,0.3,0,0.4,0c0.1,0,0.3,0,0.4,0c0.1,0,0.3,0,0.4,0c0.1,0,0.3,0,0.4,0c0.1,0,0.3,0,0.4,0c0.1,0,0.3,0,0.4,0
			c0.1,0,0.3,0,0.4,0c0.1,0,0.3,0,0.4,0c0.1,0,0.3,0,0.4,0c0.1,0,0.3,0,0.4,0c0.1,0,0.3,0,0.4,0c0.1,0,0.3,0,0.4,0
			c0.1,0,0.3,0,0.4,0c0.1,0,0.3,0,0.4,0c0.1,0,0.3,0,0.4,0c0.1,0,0.3,0,0.4,0c0.1,0,0.3,0,0.4,0c0.1,0,0.3,0,0.4,0
			c0.1,0,0.3,0,0.4,0s0.3,0,0.4,0c0.1,0,0.3,0,0.4,0c0.1,0,0.3,0,0.4,0c0.1,0,0.3,0,0.4,0c0.1,0,0.3,0,0.4,0c0.1,0,0.3,0,0.4,0
			c0.1,0,0.3,0,0.4,0c0.1,0,0.3,0,0.4,0c0.1,0,0.3,0,0.4,0c0.1,0,0.3,0,0.4,0c0.1,0,0.3,0,0.4,0c0.1,0,0.3,0,0.4,0
			c0.1,0,0.3,0,0.4,0c0.1,0,0.3,0,0.4,0c0.1,0,0.3,0,0.4,0c0.1,0,0.3,0,0.4,0c0.1,0,0.3,0,0.4,0c0.1,0,0.3,0,0.4,0
			c0.1,0,0.3,0,0.4,0c0.1,0,0.3,0,0.4,0c0.1,0,0.3,0,0.4,0c0.1,0,0.3,0,0.4,0s0.3,0,0.4,0c0.1,0,0.3,0,0.4,0c0.1,0,0.3,0,0.4,0
			c0.1,0,0.3,0,0.4,0c0.1,0,0.3,0,0.4,0c0.1,0,0.3,0,0.4,0c0.1,0,0.3,0,0.4,0c0.1,0,0.3,0,0.4,0c0.1,0,0.3,0,0.4,0
			c0.1,0,0.3,0,0.4,0s0.3,0,0.4,0c0.1,0,0.3,0,0.4,0c0.1,0,0.3,0,0.4,0c0.1,0,0.3,0,0.4,0c0.1,0,0.3,0,0.4,0c0.1,0,0.3,0,0.4,0
			c0.1,0,0.3,0,0.4,0s0.3,0,0.4,0c0.1,0,0.3,0,0.4,0c0.1,0,0.3,0,0.4,0c0.1,0,0.3,0,0.4,0c0.1,0,0.3,0,0.4,0c0.1,0,0.3,0,0.4,0
			c0.1,0,0.3,0,0.4,0c0.1,0,0.3,0,0.4,0s0.3,0,0.4,0c0.1,0,0.3,0,0.4,0s0.3,0,0.4,0c0.1,0,0.3,0,0.4,0c0.1,0,0.3,0,0.4,0
			s0.3,0,0.4,0c0.1,0,0.3,0,0.4,0s0.3,0,0.4,0c0.1,0,0.3,0,0.4,0c0.1,0,0.3,0,0.4,0c0.1,0,0.3,0,0.4,0c0.1,0,0.3,0,0.4,0
			c0.1,0,0.3,0,0.4,0c0.1,0,0.3,0,0.4,0c0.1,0,0.3,0,0.4,0c0.1,0,0.3,0,0.4,0c0.1,0,0.3,0,0.4,0c0.1,0,0.3,0,0.4,0
			c0.1,0,0.3,0,0.4,0s0.3,0,0.4,0c0.1,0,0.3,0,0.4,0s0.3,0,0.4,0s0.3,0,0.4,0s0.3,0,0.4,0s0.3,0,0.4,0c0.1,0,0.3,0,0.4,0
			s0.3,0,0.4,0c0.1,0,0.3,0,0.4,0c0.1,0,0.3,0,0.4,0c0.1,0,0.3,0,0.4,0c0.1,0,0.3,0,0.4,0c0.1,0,0.3,0,0.4,0s0.3,0,0.4,0
			c0.1,0,0.3,0,0.4,0c0.1,0,0.3,0,0.4,0c0.1,0,0.3,0,0.4,0c0.1,0,0.3,0,0.4,0c0.1,0,0.3,0,0.4,0s0.3,0,0.4,0s0.3,0,0.4,0
			c0.1,0,0.3,0,0.4,0s0.3,0,0.4,0s0.3,0,0.4,0c0.1,0,0.3,0,0.4,0c0.1,0,0.3,0,0.4,0c0.1,0,0.3,0,0.4,0c0.1,0,0.3,0,0.4,0
			c0.1,0,0.3,0,0.4,0c0.1,0,0.3,0,0.4,0c0.1,0,0.3,0,0.4,0c0.1,0,0.3,0,0.4,0c0.1,0,0.3,0,0.4,0c0.1,0,0.3,0,0.4,0s0.3,0,0.4,0
			c0.1,0,0.3,0,0.4,0c0.1,0,0.3,0,0.4,0c0.1,0,0.3,0,0.4,0c0.1,0,0.3,0,0.4,0c0.1,0,0.3,0,0.4,0c0.1,0,0.3,0,0.4,0
			c0.1,0,0.3,0,0.4,0c0.1,0,0.3,0,0.4,0c0.1,0,0.3,0,0.4,0c0.1,0,0.3,0,0.4,0c0.1,0,0.3,0,0.4,0c0.1,0,0.3,0,0.4,0
			c0.1,0,0.3,0,0.4,0c0.1,0,0.3,0,0.4,0c0.1,0,0.3,0,0.4,0c0.1,0,0.3,0,0.4,0c0.1,0,0.3,0,0.4,0c0.1,0,0.3,0,0.4,0s0.3,0,0.4,0
			s0.3,0,0.4,0s0.3,0,0.4,0s0.3,0,0.4,0c0.1,0,0.3,0,0.4,0s0.3,0,0.4,0s0.3,0,0.4,0c0.1,0,0.3,0,0.4,0c0.1,0,0.3,0,0.4,0
			c0.1,0,0.3,0,0.4,0c0.1,0,0.3,0,0.4,0s0.3,0,0.4,0c0.1,0,0.3,0,0.4,0c0.1,0,0.3,0,0.4,0s0.3,0,0.4,0c0.1,0,0.3,0,0.4,0
			c0.1,0,0.3,0,0.4,0c0.1,0,0.3,0,0.4,0s0.3,0,0.4,0s0.3,0,0.4,0c0.1,0,0.3,0,0.4,0c0.1,0,0.3,0,0.4,0c0.1,0,0.3,0,0.4,0
			c0.1,0,0.3,0,0.4,0c0.1,0,0.3,0,0.4,0c0.1,0,0.3,0,0.4,0c0.1,0,0.3,0,0.4,0c0.1,0,0.3,0,0.4,0c0.1,0,0.3,0,0.4,0
			c0.1,0,0.3,0,0.4,0c0.1,0,0.3,0,0.4,0c0.1,0,0.3,0,0.4,0c0.1,0,0.3,0,0.4,0c0.1,0,0.3,0,0.4,0c0.1,0,0.3,0,0.4,0
			c0.1,0,0.3,0,0.4,0c0.1,0,0.3,0,0.4,0c0.1,0,0.3,0,0.4,0c0.1,0,0.3,0,0.4,0c0.1,0,0.3,0,0.4,0c0.1,0,0.3,0,0.4,0s0.3,0,0.4,0
			s0.3,0,0.4,0s0.3,0,0.4,0s0.3,0,0.4,0c0.1,0,0.3,0,0.4,0c0.1,0,0.3,0,0.4,0c0.1,0,0.3,0,0.4,0c0.1,0,0.3,0,0.4,0s0.3,0,0.4,0
			s0.3,0,0.4,0s0.3,0,0.4,0c0.1,0,0.3,0,0.4,0c0.1,0,0.3,0,0.4,0c0.1,0,0.3,0,0.4,0c0.1,0,0.3,0,0.4,0c0.1,0,0.3,0,0.4,0
			c0.1,0,0.3,0,0.4,0c0.1,0,0.3,0,0.4,0c0.1,0,0.3,0,0.4,0c0.1,0,0.3,0,0.4,0c0.1,0,0.3,0,0.4,0c0.1,0,0.3,0,0.4,0
			c0.1,0,0.3,0,0.4,0c0.1,0,0.3,0,0.4,0c0.1,0,0.3,0,0.4,0c0.1,0,0.3,0,0.4,0c0.1,0,0.3,0,0.4,0c0.1,0,0.3,0,0.4,0
			c0.1,0,0.3,0,0.4,0c0.1,0,0.3,0,0.4,0c0.1,0,0.3,0,0.4,0c0.1,0,0.3,0,0.4,0c0.1,0,0.3,0,0.4,0s0.3,0,0.4,0c0.1,0,0.3,0,0.4,0
			c0.1,0,0.3,0,0.4,0c0.1,0,0.3,0,0.4,0s0.3,0,0.4,0s0.2,0,0.4,0s0.2,0,0.4,0s0.2,0,0.4,0s0.2,0,0.4,0s0.2,0,0.4,0
			c0.1,0,0.2,0,0.4,0c0.1,0,0.2,0,0.4,0c0.1,0,0.2,0,0.4,0c0.1,0,0.2,0,0.4,0c0.1,0,0.2,0,0.4,0c0.1,0,0.2,0,0.4,0
			c0.1,0,0.2,0,0.4,0c0.1,0,0.2,0,0.4,0c0.1,0,0.2,0,0.4,0c0.1,0,0.2,0,0.4,0c0.1,0,0.2,0,0.4,0c0.1,0,0.2,0,0.4,0
			c0.1,0,0.2,0,0.4,0c0.1,0,0.2,0,0.4,0c0.1,0,0.2,0,0.4,0c0.1,0,0.2,0,0.4,0s0.2,0,0.4,0c0.1,0,0.2,0,0.4,0c0.1,0,0.2,0,0.4,0
			c0.1,0,0.2,0,0.4,0c0.1,0,0.2,0,0.4,0c0.1,0,0.2,0,0.4,0c0.1,0,0.2,0,0.4,0s0.2,0,0.4,0c0.1,0,0.2,0,0.4,0c0.1,0,0.2,0,0.4,0
			c0.1,0,0.2,0,0.4,0c0.1,0,0.2,0,0.4,0c0.1,0,0.2,0,0.4,0c0.1,0,0.2,0,0.4,0c0.1,0,0.2,0,0.4,0c0.1,0,0.2,0,0.4,0
			c0.1,0,0.2,0,0.4,0c0.1,0,0.2,0,0.4,0c0.1,0,0.2,0,0.4,0c0.6,0,0.1,0,0.7,0c0.1,0,0.2,0,0.4,0c0.1,0,0.2,0,0.4,0
			c0.1,0,0.2,0,0.4,0s0.2,0,0.4,0c0.1,0,0.2,0,0.4,0c0.1,0,0.2,0,0.4,0c0.1,0,0.2,0,0.4,0c0.1,0,0.2,0,0.4,0c0.1,0,0.2,0,0.4,0
			s0.2,0,0.4,0s0.2,0,0.4,0s0.2,0,0.4,0c0.1,0,0.2,0,0.3,0c0.1,0,0.2,0,0.3,0c0.1,0,0.2,0,0.3,0s0.2,0,0.3,0c0.1,0,0.2,0,0.3,0
			c0.1,0,0.2,0,0.3,0c0.1,0,0.2,0,0.3,0c0.1,0,0.2,0,0.3,0c0.1,0,0.2,0,0.3,0c0.1,0,0.2,0,0.3,0c0.1,0,0.2,0,0.3,0
			c0.1,0,0.2,0,0.3,0c0.1,0,0.2,0,0.3,0c0.1,0,0.2,0,0.3,0c0.1,0,0.2,0,0.3,0c0.1,0,0.2,0,0.3,0c0.1,0,0.2,0,0.3,0
			c0.1,0,0.2,0,0.3,0c0.1,0,0.2,0,0.3,0c0.1,0,0.2,0,0.3,0c0.1,0,0.2,0,0.3,0c0.1,0,0.2,0,0.3,0c0.1,0,0.2,0,0.3,0s0.2,0,0.3,0
			c0.1,0,0.2,0,0.3,0c0.1,0,0.2,0,0.3,0s0.2,0,0.3,0c0.1,0,0.2,0,0.3,0c0.1,0,0.2,0,0.3,0c0.1,0,0.2,0,0.3,0V629z M136.6,607.2
			c-14.9-30-19.3-69.5-19.6-103.2l-16,0.1c0.3,34.4,4.7,76.9,21.2,110.2L136.6,607.2z M178.3,447h202.9v-16H178.3V447z M179.7,629
			c-18.9,0-35.9-7.3-43.1-21.8l-14.3,7.1c11,22.2,35.3,30.7,57.5,30.7V629z M425.5,607c-6.5,14.7-23.2,22-42.1,22v16
			c22.1,0,46.6-8.7,56.7-31.5L425.5,607z M459.7,508c1.6-44.2-35.6-77-78.5-77v16c35.2,0,63.7,26.6,62.5,60.4L459.7,508z M117,503.9
			c-0.3-32.3,27.4-56.9,61.3-56.9v-16c-41.2,0-77.6,30.4-77.3,73.1L117,503.9z"/>
		<path class="st5" d="M234.4,439h3.9c5.6-30.3,5.6-69,5.6-69h76.3c0,0,0,38.7,5.6,69h23.9c-15.8,12.5-35.9,20-57.6,20
			S250.2,451.5,234.4,439z"/>
		<defs>
			<filter id="Adobe_OpacityMaskFilter_1_" filterUnits="userSpaceOnUse" x="211.4" y="362" width="161.3" height="105">
				<feColorMatrix  type="matrix" values="1 0 0 0 0  0 1 0 0 0  0 0 1 0 0  0 0 0 1 0"/>
			</filter>
		</defs>
		<mask maskUnits="userSpaceOnUse" x="211.4" y="362" width="161.3" height="105" id="path-4-inside-2_489_1865_1_">
			<path class="st6" d="M234.4,439h3.9c5.6-30.3,5.6-69,5.6-69h76.3c0,0,0,38.7,5.6,69h23.9c-15.8,12.5-35.9,20-57.6,20
				S250.2,451.5,234.4,439z"/>
		</mask>
		<path class="st7" d="M234.4,439v-8h-23l18.1,14.3L234.4,439z M238.3,439v8h6.7l1.2-6.5L238.3,439z M243.9,370v-8h-8v8H243.9z
			 M320.1,370h8v-8h-8V370z M325.7,439l-7.9,1.5l1.2,6.5h6.7V439z M349.6,439l5,6.3l18.1-14.3h-23V439z M234.4,447h3.9v-16h-3.9V447
			z M246.1,440.5c2.9-15.7,4.3-33.3,5-46.9c0.4-6.8,0.5-12.7,0.6-16.9c0-2.1,0.1-3.7,0.1-4.9c0-0.6,0-1,0-1.3c0-0.2,0-0.3,0-0.3
			c0,0,0-0.1,0-0.1c0,0,0,0,0,0c0,0,0,0,0,0c0,0,0,0,0,0c0,0,0,0-8,0s-8,0-8,0l0,0c0,0,0,0,0,0c0,0,0,0,0,0c0,0,0,0,0,0.1
			c0,0.1,0,0.2,0,0.3c0,0.3,0,0.7,0,1.2c0,1.1,0,2.7-0.1,4.7c-0.1,4-0.3,9.7-0.6,16.4c-0.7,13.3-2.1,30.2-4.8,44.8L246.1,440.5z
			 M243.9,378h76.3v-16h-76.3V378z M320.1,370c-8,0-8,0-8,0c0,0,0,0,0,0c0,0,0,0,0,0c0,0,0,0,0,0c0,0,0,0.1,0,0.1c0,0.1,0,0.2,0,0.3
			c0,0.3,0,0.7,0,1.3c0,1.1,0,2.8,0.1,4.9c0.1,4.2,0.3,10,0.6,16.9c0.7,13.6,2.1,31.2,5,46.9l15.7-2.9c-2.7-14.7-4.1-31.5-4.8-44.8
			c-0.3-6.6-0.5-12.3-0.6-16.4c0-2-0.1-3.6-0.1-4.7c0-0.5,0-1,0-1.2c0-0.1,0-0.2,0-0.3c0,0,0-0.1,0-0.1c0,0,0,0,0,0c0,0,0,0,0,0
			c0,0,0,0,0,0C328.1,370,328.1,370,320.1,370z M325.7,447h23.9v-16h-23.9V447z M344.7,432.7C330.2,444.2,311.9,451,292,451v16
			c23.6,0,45.4-8.1,62.6-21.7L344.7,432.7z M292,451c-19.9,0-38.2-6.8-52.7-18.3l-9.9,12.6c17.2,13.6,39,21.7,62.6,21.7V451z"/>
		<path class="st8" d="M318.4,413.1c0.2,2.1,0.5,4.9,0.9,7.9c0.8,7.2,2,16.4,3.2,23.9c0.5,3.2-0.6,6.1-2.8,7.6
			c-7.9,5.4-22.4,13.4-37.3,13.4c-14.8,0-29.3-8.1-37.3-13.4c-2.2-1.5-3.3-4.4-2.8-7.6c1.3-7.5,2.4-16.6,3.2-23.9
			c0.3-3.1,0.6-5.8,0.9-7.9c2.3,0.6,5.2,1.3,8.6,2c7.7,1.6,17.9,3.3,27.3,3.3c9.4,0,19.6-1.7,27.3-3.3
			C313.1,414.4,316.1,413.7,318.4,413.1z"/>
		<path class="st9" d="M427,286c0,5.8-1.8,11-4.5,14.6c-2.7,3.6-6.1,5.4-9.5,5.4s-6.8-1.8-9.5-5.4c-2.7-3.6-4.5-8.7-4.5-14.6
			s1.8-11,4.5-14.6c2.7-3.6,6.1-5.4,9.5-5.4s6.8,1.8,9.5,5.4C425.2,275,427,280.2,427,286z"/>
		<path class="st9" d="M162,286c0,5.8-1.8,11-4.5,14.6c-2.7,3.6-6.1,5.4-9.5,5.4s-6.8-1.8-9.5-5.4c-2.7-3.6-4.5-8.7-4.5-14.6
			s1.8-11,4.5-14.6c2.7-3.6,6.1-5.4,9.5-5.4s6.8,1.8,9.5,5.4C160.2,275,162,280.2,162,286z"/>
		<path class="st8" d="M281.2,418L281.2,418c26.3-0.1,58.9-11.8,84.9-31.5c26.1-19.7,44.8-46.8,44.8-77.4c0-14.5-1.1-29-2.2-43.7
			c-0.2-2.6-0.4-5.1-0.6-7.6c-0.9-11.2-1.7-20.9-1.7-33.4c0-53.7-55.6-96.4-125.4-96.5H281h0c0,0-0.1,0-0.1,0 M281.2,418L281.2,418
			C281.2,418,281.2,418,281.2,418l-0.2,0h0h0h-0.2c0,0,0,0,0,0l0,0h0c-26.2-0.1-58.9-11.8-84.9-31.5c-26.1-19.7-44.8-46.8-44.8-77.4
			c0-14.5,1.1-29,2.2-43.7c0.2-2.6,0.4-5.1,0.6-7.6c0.9-11.2,1.7-20.9,1.7-33.4c0-53.7,55.6-96.4,125.4-96.5"/>
		<path class="st10" d="M409.1,229.6c3.4,1.3,7-1.1,6.9-4.7C414.3,163,390.3,75,281.2,75C173.4,75,148,169.5,145.7,224
			c-0.2,3.8,3.9,6.3,7.4,4.7c29.3-13.4,75.2-20,122.7-19.9l12.3-43c0.6-1.9,3.3-1.9,3.8,0l12.5,43.9
			C342.8,211.9,380.3,218.5,409.1,229.6z"/>
		<defs>
			<filter id="Adobe_OpacityMaskFilter_2_" filterUnits="userSpaceOnUse" x="137.7" y="67" width="286.3" height="170.9">
				<feColorMatrix  type="matrix" values="1 0 0 0 0  0 1 0 0 0  0 0 1 0 0  0 0 0 1 0"/>
			</filter>
		</defs>
		<mask maskUnits="userSpaceOnUse" x="137.7" y="67" width="286.3" height="170.9" id="path-10-outside-3_489_1865_1_">
			<rect x="136.7" y="67" class="st11" width="288" height="171"/>
			<path class="st12" d="M409.1,229.6c3.4,1.3,7-1.1,6.9-4.7C414.3,163,390.3,75,281.2,75C173.4,75,148,169.5,145.7,224
				c-0.2,3.8,3.9,6.3,7.4,4.7c29.3-13.4,75.2-20,122.7-19.9l12.3-43c0.6-1.9,3.3-1.9,3.8,0l12.5,43.9
				C342.8,211.9,380.3,218.5,409.1,229.6z"/>
		</mask>
		<path class="st13" d="M416,224.9l-8,0.2l0,0L416,224.9z M409.1,229.6l-2.9,7.5l0,0L409.1,229.6z M145.7,224l-8-0.3l0,0L145.7,224z
			 M153.1,228.6l-3.3-7.3l0,0L153.1,228.6z M275.8,208.7l0,8l6,0l1.7-5.8L275.8,208.7z M288.1,165.7l-7.7-2.2l0,0L288.1,165.7z
			 M291.9,165.7l7.7-2.2l0,0L291.9,165.7z M304.5,209.6l-7.7,2.2l1.6,5.5l5.7,0.3L304.5,209.6z M408,225.1c0-1.2,0.6-2.2,1.4-2.7
			c0.7-0.5,1.7-0.6,2.6-0.3l-5.7,14.9c8.2,3.2,18.1-2.6,17.8-12.4L408,225.1z M281.2,83c52,0,82.7,20.7,101,48.2
			c18.6,27.9,24.9,63.7,25.8,93.9l16-0.4c-0.9-31.6-7.4-70.8-28.5-102.4C374.1,90.2,338.3,67,281.2,67V83z M153.7,224.3
			c1.1-26.4,7.9-62,26.9-90.8C199.3,105.2,230.1,83,281.2,83V67c-56.7,0-92.5,25.1-114,57.7c-21.2,32.1-28.3,70.9-29.5,99
			L153.7,224.3z M149.7,221.3c0.8-0.4,1.8-0.3,2.5,0.2c0.8,0.5,1.5,1.5,1.4,2.8l-16-0.7c-0.5,10.5,10.5,16,18.7,12.3L149.7,221.3z
			 M275.8,200.7c-48-0.1-95.2,6.5-126.1,20.6l6.7,14.6c27.7-12.7,72.3-19.3,119.4-19.2L275.8,200.7z M283.5,210.9l12.3-43l-15.4-4.4
			l-12.3,43L283.5,210.9z M295.8,167.9c-1.7,5.8-9.9,5.8-11.5,0l15.4-4.4c-2.8-9.7-16.5-9.7-19.2,0L295.8,167.9z M284.2,167.9
			l12.5,43.9l15.4-4.4l-12.5-43.9L284.2,167.9z M411.9,222.1c-29.8-11.4-68.1-18.2-107-20.5l-0.9,16c37.9,2.2,74.5,8.8,102.2,19.5
			L411.9,222.1z"/>
		<path class="st14" d="M325.7,251.4c-1.2,0.7-1.6,2.2-0.9,3.4c0.7,1.2,2.2,1.6,3.4,0.9L325.7,251.4z M387.6,255.9
			c1.3-0.3,2.1-1.7,1.8-3c-0.3-1.3-1.7-2.1-3-1.8L387.6,255.9z M328.3,255.6c8.3-5,14.5-7,19.4-7.5c4.8-0.4,8.6,0.6,12.3,2.2
			c7.3,3.1,14.9,8.8,27.7,5.6l-1.2-4.8c-10.7,2.7-16.1-1.8-24.5-5.3c-4.1-1.8-8.8-3.1-14.7-2.6c-5.9,0.5-12.8,2.9-21.5,8.2
			L328.3,255.6z"/>
		<path class="st14" d="M235.3,251.4c1.2,0.7,1.6,2.2,0.9,3.4c-0.7,1.2-2.2,1.6-3.4,0.9L235.3,251.4z M173.4,255.9
			c-1.3-0.3-2.1-1.7-1.8-3c0.3-1.3,1.7-2.1,3-1.8L173.4,255.9z M232.7,255.6c-8.3-5-14.5-7-19.4-7.5c-4.8-0.4-8.6,0.6-12.3,2.2
			c-7.3,3.1-14.9,8.8-27.7,5.6l1.2-4.8c10.7,2.7,16.1-1.8,24.5-5.3c4.1-1.8,8.8-3.1,14.7-2.6c5.9,0.5,12.8,2.9,21.5,8.2L232.7,255.6
			z"/>
		<circle class="st15" cx="206" cy="282" r="14"/>
		<circle class="st16" cx="209" cy="279" r="3"/>
		<circle class="st15" cx="356" cy="282" r="14"/>
		<circle class="st16" cx="360" cy="279" r="3"/>
		<circle class="st17" cx="198.5" cy="332.5" r="3.5"/>
		<circle class="st17" cx="205.5" cy="343.5" r="3.5"/>
		<circle class="st17" cx="217.5" cy="332.5" r="3.5"/>
		<circle class="st17" cx="362.5" cy="332.5" r="3.5"/>
		<circle class="st17" cx="355.5" cy="343.5" r="3.5"/>
		<circle class="st17" cx="343.5" cy="332.5" r="3.5"/>
		<path class="st18" d="M293,332.6c3.7,3.8,8.8,6.2,13.6,7.9c2.4,0.9,4.8,1.6,6.9,2.2c0.2,0.1,0.4,0.1,0.6,0.2
			c1.7,0.5,3.3,1,4.6,1.4c-0.3,0.3-0.7,0.5-1.1,0.8c-3,1.7-5.7,4-8.2,6.3c-0.6,0.5-1.2,1.1-1.8,1.6c-2,1.8-3.9,3.6-6,5.2
			c-5.4,4.2-11.6,7.5-20.5,7.5c-9,0-15.4-3.3-20.9-7.4c-2.4-1.8-4.6-3.8-6.9-5.8c-0.4-0.3-0.7-0.6-1.1-1c-2.5-2.3-5.2-4.6-8-6.3
			c-0.5-0.3-1-0.7-1.3-1.1c-0.1-0.1-0.1-0.1-0.2-0.2c1.3-0.5,3-0.9,5-1.4c0.3-0.1,0.5-0.1,0.8-0.2c2-0.5,4.1-1,6.3-1.7
			c4.9-1.5,10.4-3.7,14.3-8c0.1-0.1,0.2-0.2,0.3-0.3c0,0,0,0,0,0c1.2,0.5,2.5,1.3,4,2.3c0.3,0.2,0.6,0.4,0.9,0.6
			c1,0.6,2,1.3,3.1,1.8c1,0.5,2.3,1,3.6,1c1.4,0,2.7-0.5,3.7-1c1-0.5,2.1-1.2,3-1.8c0.1-0.1,0.3-0.2,0.4-0.3
			c1.8-1.2,3.3-2.1,4.6-2.6c0,0,0,0,0.1,0C292.8,332.4,292.9,332.5,293,332.6z M241.9,344.2C241.9,344.2,241.9,344.2,241.9,344.2
			C241.9,344.2,241.9,344.2,241.9,344.2z"/>
		<path class="st19" d="M244.5,345.5c18.4,8.3,51.9,8.3,70.3,0"/>
		<path class="st20" d="M340.4,230.6c10.8-1.7,21.6-1.5,33.1,1.3c17.6,4.2,31.4,18.9,32.7,36.8c0.7,9.9-0.2,19.9-2.9,29.2
			c-4.3,15.1-18.2,25.5-34,27.6c-10,1.4-20.4,1.4-31.4-0.6c-18-3.2-32.6-17.5-35.4-35.5c-0.6-4.1-1-8.2-1.1-12.4
			C301,254.3,318,234.2,340.4,230.6z"/>
		<path class="st20" d="M221.6,230.6c-10.8-1.7-21.6-1.5-33.2,1.3c-17.6,4.2-31.4,18.9-32.7,36.8c-0.7,9.9,0.2,19.9,2.9,29.2
			c4.3,15.1,18.2,25.5,34,27.6c10,1.4,20.4,1.4,31.4-0.6c18-3.2,32.6-17.5,35.4-35.5c0.6-4.1,1-8.2,1.1-12.4
			C261,254.3,244,234.2,221.6,230.6z"/>
		<path class="st20" d="M249,246.9c0,0,15.7-6.7,32-6.7s31,8.9,31,8.9"/>
	</g>
</g>
</svg>
