<?xml version="1.0" encoding="utf-8"?>
<!-- Generator: Adobe Illustrator 25.2.1, SVG Export Plug-In . SVG Version: 6.00 Build 0)  -->
<svg version="1.1" id="Layer_1" xmlns="http://www.w3.org/2000/svg" xmlns:xlink="http://www.w3.org/1999/xlink" x="0px" y="0px"
	 viewBox="0 0 561 561" style="enable-background:new 0 0 561 561;" xml:space="preserve">
<style type="text/css">
	.st0{clip-path:url(#SVGID_2_);}
	.st1{fill:#71B6BA;}
	.st2{fill:#ECF3F7;}
	.st3{fill:#150C0C;}
	.st4{fill-rule:evenodd;clip-rule:evenodd;fill:#9C6458;}
	.st5{fill-rule:evenodd;clip-rule:evenodd;fill:#3F4680;}
	.st6{fill:#3F4680;stroke:#150C0C;stroke-width:8;}
	.st7{fill:#B78276;stroke:#150C0C;stroke-width:8;}
	.st8{fill:#C89583;stroke:#150C0C;stroke-width:8;}
	.st9{fill:#FFFFFF;fill-opacity:0.9;}
	.st10{fill:#F9ECEC;stroke:#150C0C;stroke-width:6;}
	.st11{fill:none;stroke:#150C0C;stroke-width:2;}
	.st12{fill:#9C6458;fill-opacity:0.5;}
	.st13{fill-rule:evenodd;clip-rule:evenodd;fill:#F7C870;stroke:#000000;stroke-width:8;stroke-miterlimit:10;}
	.st14{fill:#F7C870;stroke:#150C0C;stroke-width:8;}
	.st15{fill:none;stroke:#000000;stroke-width:7;}
</style>
<g>
	<g>
		<defs>
			<path id="SVGID_1_" d="M276,0h9c152.4,0,276,123.6,276,276v9c0,152.4-123.6,276-276,276h-9C123.6,561,0,437.4,0,285v-9
				C0,123.6,123.6,0,276,0z"/>
		</defs>
		<clipPath id="SVGID_2_">
			<use xlink:href="#SVGID_1_"  style="overflow:visible;"/>
		</clipPath>
		<g class="st0">
			<path class="st1" d="M276,0h9c152.4,0,276,123.6,276,276v9c0,152.4-123.6,276-276,276h-9C123.6,561,0,437.4,0,285v-9
				C0,123.6,123.6,0,276,0z"/>
			<path class="st2" d="M116,498.5c-0.6-38.5,32.4-66.6,70.8-66.6h197.5c40.1,0,73.8,30.5,72.1,70.5c-1.3,32.1-5.9,69.1-18.3,97.2
				c-8.4,19.2-29.5,27.3-50.4,27.3c-56.2,0-137.5,0-200.8,0c-20.9,0-42-8-51.3-26.8C121,569.8,116.5,531.1,116,498.5z"/>
			<path class="st3" d="M187.1,626.8v8V626.8z M135.9,600.1l-7.2,3.5L135.9,600.1z M438.3,599.5l-7.3-3.2L438.3,599.5z M456.6,502.3
				l-8-0.3L456.6,502.3z M448.6,502c-1.3,31.9-5.9,67.7-17.6,94.3l14.6,6.5c13-29.5,17.6-67.7,18.9-100.1L448.6,502z M387.9,618.8
				c-0.1,0-0.2,0-0.3,0c-0.1,0-0.2,0-0.3,0c-0.1,0-0.2,0-0.3,0c-0.1,0-0.2,0-0.3,0c-0.1,0-0.2,0-0.3,0c-0.1,0-0.2,0-0.3,0
				s-0.2,0-0.3,0s-0.2,0-0.3,0c-0.1,0-0.2,0-0.3,0c-0.1,0-0.2,0-0.3,0s-0.2,0-0.3,0s-0.2,0-0.3,0s-0.2,0-0.3,0c-0.1,0-0.2,0-0.3,0
				c-0.1,0-0.2,0-0.3,0c-0.1,0-0.2,0-0.3,0s-0.2,0-0.3,0c-0.1,0-0.2,0-0.3,0c-0.1,0-0.2,0-0.3,0s-0.2,0-0.3,0c-0.1,0-0.2,0-0.3,0
				c-0.1,0-0.2,0-0.3,0c-0.1,0-0.2,0-0.3,0c-0.1,0-0.2,0-0.3,0c-0.1,0-0.2,0-0.3,0c-0.1,0-0.2,0-0.3,0c-0.1,0-0.2,0-0.3,0
				c-0.1,0-0.2,0-0.3,0s-0.2,0-0.3,0s-0.2,0-0.3,0c-0.1,0-0.2,0-0.3,0c-0.1,0-0.2,0-0.3,0c-0.1,0-0.2,0-0.3,0c-0.1,0-0.2,0-0.3,0
				s-0.2,0-0.3,0c-0.1,0-0.2,0-0.3,0c-0.1,0-0.2,0-0.3,0c-0.1,0-0.2,0-0.3,0c-0.1,0-0.2,0-0.3,0c-0.1,0-0.2,0-0.4,0s-0.2,0-0.4,0
				c-0.1,0-0.2,0-0.4,0c-0.6,0-0.1,0-0.7,0c-0.1,0-0.2,0-0.4,0c-0.1,0-0.2,0-0.4,0c-0.1,0-0.2,0-0.4,0c-0.1,0-0.2,0-0.4,0
				c-0.1,0-0.2,0-0.4,0s-0.2,0-0.4,0c-0.1,0-0.2,0-0.4,0c-0.1,0-0.2,0-0.4,0c-0.1,0-0.2,0-0.4,0c-0.1,0-0.2,0-0.4,0
				c-0.1,0-0.2,0-0.4,0c-0.1,0-0.2,0-0.4,0c-0.1,0-0.2,0-0.4,0c-0.1,0-0.2,0-0.4,0s-0.2,0-0.4,0c-0.1,0-0.2,0-0.4,0s-0.2,0-0.4,0
				s-0.2,0-0.4,0c-0.1,0-0.2,0-0.4,0c-0.1,0-0.2,0-0.4,0c-0.1,0-0.2,0-0.4,0c-0.1,0-0.2,0-0.4,0s-0.2,0-0.4,0s-0.2,0-0.4,0
				s-0.2,0-0.4,0c-0.1,0-0.2,0-0.4,0c-0.1,0-0.2,0-0.4,0s-0.2,0-0.4,0s-0.2,0-0.4,0c-0.1,0-0.2,0-0.4,0s-0.2,0-0.4,0
				c-0.1,0-0.2,0-0.4,0c-0.1,0-0.2,0-0.4,0c-0.1,0-0.2,0-0.4,0c-0.1,0-0.2,0-0.4,0c-0.1,0-0.2,0-0.4,0c-0.1,0-0.2,0-0.4,0
				c-0.1,0-0.2,0-0.4,0c-0.1,0-0.2,0-0.4,0c-0.1,0-0.2,0-0.4,0c-0.1,0-0.2,0-0.4,0c-0.1,0-0.2,0-0.4,0c-0.1,0-0.2,0-0.4,0
				s-0.2,0-0.4,0c-0.1,0-0.2,0-0.4,0c-0.1,0-0.2,0-0.4,0c-0.1,0-0.2,0-0.4,0c-0.1,0-0.2,0-0.4,0c-0.1,0-0.2,0-0.4,0s-0.2,0-0.4,0
				c-0.1,0-0.2,0-0.4,0c-0.1,0-0.2,0-0.4,0s-0.2,0-0.4,0c-0.1,0-0.3,0-0.4,0s-0.3,0-0.4,0s-0.3,0-0.4,0s-0.3,0-0.4,0s-0.3,0-0.4,0
				s-0.3,0-0.4,0s-0.3,0-0.4,0s-0.3,0-0.4,0s-0.3,0-0.4,0s-0.3,0-0.4,0s-0.3,0-0.4,0s-0.3,0-0.4,0s-0.3,0-0.4,0s-0.3,0-0.4,0
				s-0.3,0-0.4,0s-0.3,0-0.4,0s-0.3,0-0.4,0s-0.3,0-0.4,0s-0.3,0-0.4,0s-0.3,0-0.4,0s-0.3,0-0.4,0s-0.3,0-0.4,0s-0.3,0-0.4,0
				s-0.3,0-0.4,0s-0.3,0-0.4,0s-0.3,0-0.4,0s-0.3,0-0.4,0s-0.3,0-0.4,0s-0.3,0-0.4,0s-0.3,0-0.4,0s-0.3,0-0.4,0s-0.3,0-0.4,0
				s-0.3,0-0.4,0s-0.3,0-0.4,0s-0.3,0-0.4,0s-0.3,0-0.4,0s-0.3,0-0.4,0s-0.3,0-0.4,0s-0.3,0-0.4,0s-0.3,0-0.4,0s-0.3,0-0.4,0
				s-0.3,0-0.4,0s-0.3,0-0.4,0s-0.3,0-0.4,0s-0.3,0-0.4,0s-0.3,0-0.4,0s-0.3,0-0.4,0s-0.3,0-0.4,0s-0.3,0-0.4,0s-0.3,0-0.4,0
				s-0.3,0-0.4,0s-0.3,0-0.4,0s-0.3,0-0.4,0s-0.3,0-0.4,0s-0.3,0-0.4,0s-0.3,0-0.4,0s-0.3,0-0.4,0s-0.3,0-0.4,0s-0.3,0-0.4,0
				s-0.3,0-0.4,0s-0.3,0-0.4,0s-0.3,0-0.4,0s-0.3,0-0.4,0s-0.3,0-0.4,0s-0.3,0-0.4,0s-0.3,0-0.4,0s-0.3,0-0.4,0s-0.3,0-0.4,0
				s-0.3,0-0.4,0s-0.3,0-0.4,0s-0.3,0-0.4,0s-0.3,0-0.4,0s-0.3,0-0.4,0s-0.3,0-0.4,0s-0.3,0-0.4,0s-0.3,0-0.4,0s-0.3,0-0.4,0
				s-0.3,0-0.4,0s-0.3,0-0.4,0s-0.3,0-0.4,0s-0.3,0-0.4,0s-0.3,0-0.4,0s-0.3,0-0.4,0s-0.3,0-0.4,0s-0.3,0-0.4,0s-0.3,0-0.4,0
				s-0.3,0-0.4,0s-0.3,0-0.4,0s-0.3,0-0.4,0s-0.3,0-0.4,0s-0.3,0-0.4,0s-0.3,0-0.4,0s-0.3,0-0.4,0s-0.3,0-0.4,0s-0.3,0-0.4,0
				s-0.3,0-0.4,0s-0.3,0-0.4,0s-0.3,0-0.4,0s-0.3,0-0.4,0s-0.3,0-0.4,0s-0.3,0-0.4,0s-0.3,0-0.4,0s-0.3,0-0.4,0s-0.3,0-0.4,0
				s-0.3,0-0.4,0s-0.3,0-0.4,0s-0.3,0-0.4,0s-0.3,0-0.4,0s-0.3,0-0.4,0s-0.3,0-0.4,0s-0.3,0-0.4,0s-0.3,0-0.4,0s-0.3,0-0.4,0
				s-0.3,0-0.4,0s-0.3,0-0.4,0s-0.3,0-0.4,0s-0.3,0-0.4,0s-0.3,0-0.4,0s-0.3,0-0.4,0s-0.3,0-0.4,0s-0.3,0-0.4,0s-0.3,0-0.4,0
				s-0.3,0-0.4,0s-0.3,0-0.4,0s-0.3,0-0.4,0s-0.3,0-0.4,0s-0.3,0-0.4,0s-0.3,0-0.4,0s-0.3,0-0.4,0s-0.3,0-0.4,0s-0.3,0-0.4,0
				s-0.3,0-0.4,0s-0.3,0-0.4,0s-0.3,0-0.4,0s-0.3,0-0.4,0s-0.3,0-0.4,0s-0.3,0-0.4,0s-0.3,0-0.4,0s-0.3,0-0.4,0s-0.3,0-0.4,0
				s-0.3,0-0.4,0s-0.3,0-0.4,0s-0.3,0-0.4,0s-0.3,0-0.4,0s-0.3,0-0.4,0s-0.3,0-0.4,0s-0.3,0-0.4,0s-0.3,0-0.4,0s-0.3,0-0.4,0
				s-0.3,0-0.4,0s-0.3,0-0.4,0s-0.3,0-0.4,0s-0.3,0-0.4,0s-0.3,0-0.4,0s-0.3,0-0.4,0s-0.3,0-0.4,0s-0.3,0-0.4,0s-0.3,0-0.4,0
				s-0.3,0-0.4,0s-0.3,0-0.4,0s-0.3,0-0.4,0s-0.3,0-0.4,0s-0.3,0-0.4,0s-0.3,0-0.4,0s-0.3,0-0.4,0s-0.3,0-0.4,0s-0.3,0-0.4,0
				s-0.3,0-0.4,0s-0.3,0-0.4,0s-0.3,0-0.4,0s-0.3,0-0.4,0s-0.3,0-0.4,0s-0.3,0-0.4,0s-0.3,0-0.4,0s-0.3,0-0.4,0s-0.3,0-0.4,0
				s-0.3,0-0.4,0s-0.3,0-0.4,0s-0.3,0-0.4,0s-0.3,0-0.4,0s-0.3,0-0.4,0s-0.3,0-0.4,0s-0.3,0-0.4,0s-0.3,0-0.4,0s-0.3,0-0.4,0
				s-0.3,0-0.4,0s-0.3,0-0.4,0s-0.3,0-0.4,0s-0.3,0-0.4,0s-0.3,0-0.4,0s-0.3,0-0.4,0s-0.3,0-0.4,0s-0.3,0-0.4,0s-0.3,0-0.4,0
				s-0.3,0-0.4,0s-0.3,0-0.4,0s-0.3,0-0.4,0s-0.3,0-0.4,0s-0.3,0-0.4,0s-0.3,0-0.4,0s-0.3,0-0.4,0s-0.3,0-0.4,0s-0.3,0-0.4,0
				s-0.3,0-0.4,0s-0.3,0-0.4,0s-0.3,0-0.4,0s-0.3,0-0.4,0s-0.3,0-0.4,0s-0.3,0-0.4,0s-0.3,0-0.4,0s-0.3,0-0.4,0s-0.3,0-0.4,0
				s-0.3,0-0.4,0s-0.3,0-0.4,0s-0.3,0-0.4,0s-0.3,0-0.4,0s-0.3,0-0.4,0s-0.3,0-0.4,0s-0.3,0-0.4,0s-0.3,0-0.4,0s-0.3,0-0.4,0
				s-0.3,0-0.4,0s-0.3,0-0.4,0s-0.3,0-0.4,0s-0.3,0-0.4,0s-0.3,0-0.4,0s-0.3,0-0.4,0s-0.3,0-0.4,0s-0.3,0-0.4,0s-0.3,0-0.4,0
				s-0.3,0-0.4,0s-0.3,0-0.4,0s-0.3,0-0.4,0s-0.3,0-0.4,0s-0.3,0-0.4,0s-0.3,0-0.4,0s-0.3,0-0.4,0s-0.3,0-0.4,0s-0.3,0-0.4,0
				s-0.3,0-0.4,0s-0.3,0-0.4,0s-0.3,0-0.4,0s-0.3,0-0.4,0s-0.3,0-0.4,0c-0.1,0-0.3,0-0.4,0c-0.1,0-0.3,0-0.4,0c-0.1,0-0.3,0-0.4,0
				c-0.1,0-0.3,0-0.4,0c-0.1,0-0.3,0-0.4,0c-0.1,0-0.3,0-0.4,0c-0.1,0-0.3,0-0.4,0c-0.1,0-0.3,0-0.4,0c-0.1,0-0.3,0-0.4,0
				s-0.3,0-0.4,0c-0.1,0-0.3,0-0.4,0c-0.1,0-0.3,0-0.4,0c-0.1,0-0.3,0-0.4,0c-0.1,0-0.3,0-0.4,0c-0.1,0-0.3,0-0.4,0s-0.3,0-0.4,0
				c-0.1,0-0.3,0-0.4,0c-0.1,0-0.3,0-0.4,0c-0.1,0-0.3,0-0.4,0c-0.1,0-0.3,0-0.4,0c-0.1,0-0.3,0-0.4,0c-0.1,0-0.3,0-0.4,0
				c-0.1,0-0.3,0-0.4,0c-0.1,0-0.3,0-0.4,0c-0.1,0-0.3,0-0.4,0c-0.1,0-0.3,0-0.4,0c-0.1,0-0.3,0-0.4,0c-0.1,0-0.3,0-0.4,0
				c-0.1,0-0.3,0-0.4,0c-0.1,0-0.3,0-0.4,0c-0.1,0-0.3,0-0.4,0c-0.1,0-0.3,0-0.4,0c-0.1,0-0.3,0-0.4,0c-0.1,0-0.3,0-0.4,0
				c-0.1,0-0.3,0-0.4,0c-0.1,0-0.3,0-0.4,0c-0.1,0-0.3,0-0.4,0s-0.3,0-0.4,0c-0.1,0-0.3,0-0.4,0s-0.3,0-0.4,0c-0.1,0-0.3,0-0.4,0
				s-0.3,0-0.4,0s-0.3,0-0.4,0s-0.3,0-0.4,0s-0.3,0-0.4,0c-0.1,0-0.3,0-0.4,0c-0.1,0-0.3,0-0.4,0s-0.3,0-0.4,0c-0.1,0-0.3,0-0.4,0
				c-0.1,0-0.3,0-0.4,0c-0.1,0-0.3,0-0.4,0c-0.1,0-0.3,0-0.4,0c-0.1,0-0.3,0-0.4,0s-0.3,0-0.4,0c-0.1,0-0.3,0-0.4,0
				c-0.1,0-0.3,0-0.4,0c-0.1,0-0.3,0-0.4,0c-0.1,0-0.3,0-0.4,0c-0.1,0-0.3,0-0.4,0c-0.1,0-0.3,0-0.4,0c-0.1,0-0.3,0-0.4,0
				c-0.1,0-0.3,0-0.4,0c-0.1,0-0.3,0-0.4,0c-0.1,0-0.3,0-0.4,0c-0.1,0-0.3,0-0.4,0c-0.1,0-0.3,0-0.4,0s-0.3,0-0.4,0
				c-0.1,0-0.3,0-0.4,0c-0.1,0-0.3,0-0.4,0s-0.3,0-0.4,0s-0.3,0-0.4,0c-0.1,0-0.3,0-0.4,0s-0.3,0-0.4,0c-0.1,0-0.3,0-0.4,0
				s-0.3,0-0.4,0c-0.1,0-0.3,0-0.4,0s-0.3,0-0.4,0s-0.3,0-0.4,0c-0.1,0-0.3,0-0.4,0c-0.1,0-0.3,0-0.4,0c-0.1,0-0.3,0-0.4,0
				c-0.1,0-0.3,0-0.4,0c-0.1,0-0.3,0-0.4,0s-0.3,0-0.4,0c-0.1,0-0.3,0-0.4,0c-0.1,0-0.3,0-0.4,0c-0.1,0-0.3,0-0.4,0
				c-0.1,0-0.3,0-0.4,0c-0.1,0-0.3,0-0.4,0c-0.1,0-0.3,0-0.4,0c-0.1,0-0.3,0-0.4,0c-0.1,0-0.3,0-0.4,0c-0.1,0-0.3,0-0.4,0
				s-0.3,0-0.4,0c-0.1,0-0.3,0-0.4,0s-0.3,0-0.4,0s-0.3,0-0.4,0s-0.3,0-0.4,0c-0.1,0-0.3,0-0.4,0s-0.3,0-0.4,0s-0.3,0-0.4,0
				c-0.1,0-0.3,0-0.4,0c-0.1,0-0.3,0-0.4,0c-0.1,0-0.3,0-0.4,0c-0.1,0-0.3,0-0.4,0s-0.3,0-0.4,0c-0.1,0-0.3,0-0.4,0
				c-0.1,0-0.3,0-0.4,0s-0.3,0-0.4,0c-0.1,0-0.3,0-0.4,0c-0.1,0-0.3,0-0.4,0c-0.1,0-0.3,0-0.4,0c-0.1,0-0.3,0-0.4,0s-0.3,0-0.4,0
				c-0.1,0-0.3,0-0.4,0s-0.3,0-0.4,0c-0.1,0-0.3,0-0.4,0c-0.1,0-0.3,0-0.4,0c-0.1,0-0.3,0-0.4,0c-0.1,0-0.3,0-0.4,0
				c-0.1,0-0.3,0-0.4,0c-0.1,0-0.3,0-0.4,0c-0.1,0-0.3,0-0.4,0c-0.1,0-0.3,0-0.4,0s-0.3,0-0.4,0c-0.1,0-0.3,0-0.4,0
				c-0.1,0-0.3,0-0.4,0s-0.3,0-0.4,0c-0.1,0-0.3,0-0.4,0s-0.3,0-0.4,0c-0.1,0-0.3,0-0.4,0c-0.1,0-0.3,0-0.4,0c-0.1,0-0.3,0-0.4,0
				c-0.1,0-0.3,0-0.4,0c-0.1,0-0.3,0-0.4,0c-0.1,0-0.3,0-0.4,0c-0.1,0-0.3,0-0.4,0c-0.1,0-0.3,0-0.4,0c-0.1,0-0.3,0-0.4,0
				c-0.1,0-0.3,0-0.4,0c-0.1,0-0.3,0-0.4,0c-0.1,0-0.3,0-0.4,0c-0.1,0-0.3,0-0.4,0s-0.3,0-0.4,0s-0.3,0-0.4,0s-0.3,0-0.4,0
				c-0.1,0-0.3,0-0.4,0c-0.1,0-0.3,0-0.4,0c-0.1,0-0.3,0-0.4,0c-0.1,0-0.3,0-0.4,0c-0.1,0-0.3,0-0.4,0c-0.1,0-0.3,0-0.4,0
				c-0.1,0-0.3,0-0.4,0c-0.1,0-0.3,0-0.4,0c-0.1,0-0.3,0-0.4,0c-0.1,0-0.3,0-0.4,0c-0.1,0-0.3,0-0.4,0c-0.1,0-0.3,0-0.4,0
				s-0.3,0-0.4,0s-0.2,0-0.4,0s-0.2,0-0.4,0s-0.2,0-0.4,0s-0.2,0-0.4,0c-0.1,0-0.2,0-0.4,0c-0.1,0-0.2,0-0.4,0c-0.1,0-0.2,0-0.4,0
				c-0.1,0-0.2,0-0.4,0c-0.1,0-0.2,0-0.4,0c-0.1,0-0.2,0-0.4,0c-0.1,0-0.2,0-0.4,0c-0.1,0-0.2,0-0.4,0v16c0.1,0,0.2,0,0.4,0
				c0.1,0,0.2,0,0.4,0c0.1,0,0.2,0,0.4,0c0.1,0,0.2,0,0.4,0c0.1,0,0.2,0,0.4,0c0.1,0,0.2,0,0.4,0c0.1,0,0.2,0,0.4,0
				c0.1,0,0.2,0,0.4,0c0.1,0,0.2,0,0.4,0s0.2,0,0.4,0s0.2,0,0.4,0s0.2,0,0.4,0s0.3,0,0.4,0s0.2,0,0.4,0c0.1,0,0.3,0,0.4,0
				c0.1,0,0.3,0,0.4,0c0.1,0,0.3,0,0.4,0c0.1,0,0.3,0,0.4,0c0.1,0,0.3,0,0.4,0c0.1,0,0.3,0,0.4,0c0.1,0,0.3,0,0.4,0
				c0.1,0,0.3,0,0.4,0c0.1,0,0.3,0,0.4,0c0.1,0,0.3,0,0.4,0c0.1,0,0.3,0,0.4,0c0.1,0,0.3,0,0.4,0s0.3,0,0.4,0s0.3,0,0.4,0
				s0.3,0,0.4,0c0.1,0,0.3,0,0.4,0c0.1,0,0.3,0,0.4,0c0.1,0,0.3,0,0.4,0c0.1,0,0.3,0,0.4,0c0.1,0,0.3,0,0.4,0c0.1,0,0.3,0,0.4,0
				c0.1,0,0.3,0,0.4,0c0.1,0,0.3,0,0.4,0c0.1,0,0.3,0,0.4,0c0.1,0,0.3,0,0.4,0c0.1,0,0.3,0,0.4,0c0.1,0,0.3,0,0.4,0
				c0.1,0,0.3,0,0.4,0s0.3,0,0.4,0c0.1,0,0.3,0,0.4,0s0.3,0,0.4,0c0.1,0,0.3,0,0.4,0c0.1,0,0.3,0,0.4,0s0.3,0,0.4,0
				c0.1,0,0.3,0,0.4,0c0.1,0,0.3,0,0.4,0c0.1,0,0.3,0,0.4,0c0.1,0,0.3,0,0.4,0c0.1,0,0.3,0,0.4,0c0.1,0,0.3,0,0.4,0
				c0.1,0,0.3,0,0.4,0c0.1,0,0.3,0,0.4,0s0.3,0,0.4,0c0.1,0,0.3,0,0.4,0s0.3,0,0.4,0c0.1,0,0.3,0,0.4,0c0.1,0,0.3,0,0.4,0
				c0.1,0,0.3,0,0.4,0c0.1,0,0.3,0,0.4,0s0.3,0,0.4,0c0.1,0,0.3,0,0.4,0c0.1,0,0.3,0,0.4,0s0.3,0,0.4,0c0.1,0,0.3,0,0.4,0
				c0.1,0,0.3,0,0.4,0c0.1,0,0.3,0,0.4,0c0.1,0,0.3,0,0.4,0s0.3,0,0.4,0s0.3,0,0.4,0c0.1,0,0.3,0,0.4,0s0.3,0,0.4,0s0.3,0,0.4,0
				s0.3,0,0.4,0c0.1,0,0.3,0,0.4,0s0.3,0,0.4,0c0.1,0,0.3,0,0.4,0c0.1,0,0.3,0,0.4,0c0.1,0,0.3,0,0.4,0c0.1,0,0.3,0,0.4,0
				c0.1,0,0.3,0,0.4,0c0.7,0,0.1,0,0.8,0c0.1,0,0.3,0,0.4,0c0.1,0,0.3,0,0.4,0s0.3,0,0.4,0c0.1,0,0.3,0,0.4,0c0.1,0,0.3,0,0.4,0
				c0.1,0,0.3,0,0.4,0c0.1,0,0.3,0,0.4,0c0.1,0,0.3,0,0.4,0s0.3,0,0.4,0s0.3,0,0.4,0c0.1,0,0.3,0,0.4,0s0.3,0,0.4,0
				c0.1,0,0.3,0,0.4,0s0.3,0,0.4,0c0.1,0,0.3,0,0.4,0s0.3,0,0.4,0s0.3,0,0.4,0c0.1,0,0.3,0,0.4,0c0.1,0,0.3,0,0.4,0s0.3,0,0.4,0
				c0.1,0,0.3,0,0.4,0c0.1,0,0.3,0,0.4,0c0.1,0,0.3,0,0.4,0c0.1,0,0.3,0,0.4,0c0.1,0,0.3,0,0.4,0c0.1,0,0.3,0,0.4,0
				c0.1,0,0.3,0,0.4,0c0.1,0,0.3,0,0.4,0c0.1,0,0.3,0,0.4,0c0.1,0,0.3,0,0.4,0c0.1,0,0.3,0,0.4,0c0.1,0,0.3,0,0.4,0s0.3,0,0.4,0
				c0.1,0,0.3,0,0.4,0c0.1,0,0.3,0,0.4,0c0.1,0,0.3,0,0.4,0c0.1,0,0.3,0,0.4,0c0.1,0,0.3,0,0.4,0s0.3,0,0.4,0c0.1,0,0.3,0,0.4,0
				c0.1,0,0.3,0,0.4,0s0.3,0,0.4,0s0.3,0,0.4,0s0.3,0,0.4,0s0.3,0,0.4,0c0.1,0,0.3,0,0.4,0s0.3,0,0.4,0c0.1,0,0.3,0,0.4,0
				s0.3,0,0.4,0c0.1,0,0.3,0,0.4,0c0.1,0,0.3,0,0.4,0c0.1,0,0.3,0,0.4,0c0.1,0,0.3,0,0.4,0c0.1,0,0.3,0,0.4,0c0.1,0,0.3,0,0.4,0
				c0.1,0,0.3,0,0.4,0c0.1,0,0.3,0,0.4,0c0.1,0,0.3,0,0.4,0c0.1,0,0.3,0,0.4,0c0.1,0,0.3,0,0.4,0c0.1,0,0.3,0,0.4,0
				c0.1,0,0.3,0,0.4,0c0.1,0,0.3,0,0.4,0c0.1,0,0.3,0,0.4,0c0.1,0,0.3,0,0.4,0c0.1,0,0.3,0,0.4,0c0.1,0,0.3,0,0.4,0
				c0.1,0,0.3,0,0.4,0c0.1,0,0.3,0,0.4,0c0.1,0,0.3,0,0.4,0s0.3,0,0.4,0c0.1,0,0.3,0,0.4,0c0.1,0,0.3,0,0.4,0c0.1,0,0.3,0,0.4,0
				c0.1,0,0.3,0,0.4,0c0.1,0,0.3,0,0.4,0s0.3,0,0.4,0c0.1,0,0.3,0,0.4,0c0.1,0,0.3,0,0.4,0c0.1,0,0.3,0,0.4,0c0.1,0,0.3,0,0.4,0
				c0.1,0,0.3,0,0.4,0c0.1,0,0.3,0,0.4,0c0.1,0,0.3,0,0.4,0c0.1,0,0.3,0,0.4,0c0.1,0,0.3,0,0.4,0s0.3,0,0.4,0s0.3,0,0.4,0
				s0.3,0,0.4,0s0.3,0,0.4,0s0.3,0,0.4,0s0.3,0,0.4,0s0.3,0,0.4,0s0.3,0,0.4,0s0.3,0,0.4,0s0.3,0,0.4,0s0.3,0,0.4,0s0.3,0,0.4,0
				s0.3,0,0.4,0s0.3,0,0.4,0s0.3,0,0.4,0s0.3,0,0.4,0s0.3,0,0.4,0s0.3,0,0.4,0s0.3,0,0.4,0s0.3,0,0.4,0s0.3,0,0.4,0s0.3,0,0.4,0
				s0.3,0,0.4,0s0.3,0,0.4,0s0.3,0,0.4,0s0.3,0,0.4,0s0.3,0,0.4,0s0.3,0,0.4,0s0.3,0,0.4,0s0.3,0,0.4,0s0.3,0,0.4,0s0.3,0,0.4,0
				s0.3,0,0.4,0s0.3,0,0.4,0s0.3,0,0.4,0s0.3,0,0.4,0s0.3,0,0.4,0s0.3,0,0.4,0s0.3,0,0.4,0s0.3,0,0.4,0s0.3,0,0.4,0s0.3,0,0.4,0
				s0.3,0,0.4,0s0.3,0,0.4,0s0.3,0,0.4,0s0.3,0,0.4,0s0.3,0,0.4,0s0.3,0,0.4,0s0.3,0,0.4,0s0.3,0,0.4,0s0.3,0,0.4,0s0.3,0,0.4,0
				s0.3,0,0.4,0s0.3,0,0.4,0s0.3,0,0.4,0s0.3,0,0.4,0s0.3,0,0.4,0s0.3,0,0.4,0s0.3,0,0.4,0s0.3,0,0.4,0s0.3,0,0.4,0s0.3,0,0.4,0
				s0.3,0,0.4,0s0.3,0,0.4,0s0.3,0,0.4,0s0.3,0,0.4,0s0.3,0,0.4,0s0.3,0,0.4,0s0.3,0,0.4,0s0.3,0,0.4,0s0.3,0,0.4,0s0.3,0,0.4,0
				s0.3,0,0.4,0s0.3,0,0.4,0s0.3,0,0.4,0s0.3,0,0.4,0s0.3,0,0.4,0s0.3,0,0.4,0s0.3,0,0.4,0s0.3,0,0.4,0s0.3,0,0.4,0s0.3,0,0.4,0
				s0.3,0,0.4,0s0.3,0,0.4,0s0.3,0,0.4,0s0.3,0,0.4,0s0.3,0,0.4,0s0.3,0,0.4,0s0.3,0,0.4,0s0.3,0,0.4,0s0.3,0,0.4,0s0.3,0,0.4,0
				s0.3,0,0.4,0s0.3,0,0.4,0s0.3,0,0.4,0s0.3,0,0.4,0s0.3,0,0.4,0s0.3,0,0.4,0s0.3,0,0.4,0s0.3,0,0.4,0s0.3,0,0.4,0s0.3,0,0.4,0
				s0.3,0,0.4,0s0.3,0,0.4,0s0.3,0,0.4,0s0.3,0,0.4,0s0.3,0,0.4,0s0.3,0,0.4,0s0.3,0,0.4,0s0.3,0,0.4,0s0.3,0,0.4,0s0.3,0,0.4,0
				s0.3,0,0.4,0s0.3,0,0.4,0s0.3,0,0.4,0s0.3,0,0.4,0s0.3,0,0.4,0s0.3,0,0.4,0s0.3,0,0.4,0s0.3,0,0.4,0s0.3,0,0.4,0s0.3,0,0.4,0
				s0.3,0,0.4,0s0.3,0,0.4,0s0.3,0,0.4,0s0.3,0,0.4,0s0.3,0,0.4,0s0.3,0,0.4,0s0.3,0,0.4,0s0.3,0,0.4,0s0.3,0,0.4,0s0.3,0,0.4,0
				s0.3,0,0.4,0s0.3,0,0.4,0s0.3,0,0.4,0s0.3,0,0.4,0s0.3,0,0.4,0s0.3,0,0.4,0s0.3,0,0.4,0s0.3,0,0.4,0s0.3,0,0.4,0s0.3,0,0.4,0
				s0.3,0,0.4,0s0.3,0,0.4,0s0.3,0,0.4,0s0.3,0,0.4,0s0.3,0,0.4,0s0.3,0,0.4,0s0.3,0,0.4,0s0.3,0,0.4,0s0.3,0,0.4,0s0.3,0,0.4,0
				s0.3,0,0.4,0s0.3,0,0.4,0s0.3,0,0.4,0s0.3,0,0.4,0s0.3,0,0.4,0s0.3,0,0.4,0s0.3,0,0.4,0s0.3,0,0.4,0s0.3,0,0.4,0s0.3,0,0.4,0
				s0.3,0,0.4,0s0.3,0,0.4,0s0.3,0,0.4,0s0.3,0,0.4,0s0.3,0,0.4,0s0.3,0,0.4,0s0.3,0,0.4,0s0.3,0,0.4,0s0.3,0,0.4,0s0.3,0,0.4,0
				s0.3,0,0.4,0s0.3,0,0.4,0s0.3,0,0.4,0s0.3,0,0.4,0s0.3,0,0.4,0s0.3,0,0.4,0s0.3,0,0.4,0s0.3,0,0.4,0s0.3,0,0.4,0s0.3,0,0.4,0
				s0.3,0,0.4,0s0.3,0,0.4,0s0.3,0,0.4,0s0.3,0,0.4,0s0.3,0,0.4,0s0.3,0,0.4,0s0.3,0,0.4,0s0.3,0,0.4,0s0.3,0,0.4,0s0.3,0,0.4,0
				s0.3,0,0.4,0s0.3,0,0.4,0s0.3,0,0.4,0s0.3,0,0.4,0s0.3,0,0.4,0s0.3,0,0.4,0s0.3,0,0.4,0s0.3,0,0.4,0s0.3,0,0.4,0s0.3,0,0.4,0
				s0.3,0,0.4,0s0.3,0,0.4,0s0.3,0,0.4,0s0.3,0,0.4,0s0.3,0,0.4,0s0.3,0,0.4,0s0.3,0,0.4,0s0.3,0,0.4,0s0.3,0,0.4,0s0.3,0,0.4,0
				s0.3,0,0.4,0s0.3,0,0.4,0s0.3,0,0.4,0s0.3,0,0.4,0s0.3,0,0.4,0s0.3,0,0.4,0s0.3,0,0.4,0s0.3,0,0.4,0s0.3,0,0.4,0s0.3,0,0.4,0
				s0.3,0,0.4,0s0.3,0,0.4,0s0.3,0,0.4,0s0.3,0,0.4,0s0.3,0,0.4,0s0.3,0,0.4,0s0.3,0,0.4,0s0.3,0,0.4,0s0.3,0,0.4,0s0.3,0,0.4,0
				s0.3,0,0.4,0s0.3,0,0.4,0s0.3,0,0.4,0s0.3,0,0.4,0s0.3,0,0.4,0s0.3,0,0.4,0s0.3,0,0.4,0s0.3,0,0.4,0s0.3,0,0.4,0s0.3,0,0.4,0
				s0.3,0,0.4,0s0.3,0,0.4,0s0.2,0,0.4,0c0.1,0,0.3,0,0.4,0s0.2,0,0.4,0s0.2,0,0.4,0c0.1,0,0.2,0,0.4,0c0.1,0,0.2,0,0.4,0
				c0.1,0,0.2,0,0.4,0c0.1,0,0.2,0,0.4,0c0.1,0,0.2,0,0.4,0s0.2,0,0.4,0c0.1,0,0.2,0,0.4,0c0.1,0,0.2,0,0.4,0c0.1,0,0.2,0,0.4,0
				c0.1,0,0.2,0,0.4,0c0.1,0,0.2,0,0.4,0c0.1,0,0.2,0,0.4,0c0.1,0,0.2,0,0.4,0c0.1,0,0.2,0,0.4,0c0.1,0,0.2,0,0.4,0
				c0.1,0,0.2,0,0.4,0c0.1,0,0.2,0,0.4,0c0.1,0,0.2,0,0.4,0s0.2,0,0.4,0c0.1,0,0.2,0,0.4,0s0.2,0,0.4,0s0.2,0,0.4,0
				c0.1,0,0.2,0,0.4,0c0.1,0,0.2,0,0.4,0s0.2,0,0.4,0s0.2,0,0.4,0s0.2,0,0.4,0c0.1,0,0.2,0,0.4,0c0.1,0,0.2,0,0.4,0
				c0.1,0,0.2,0,0.4,0c0.1,0,0.2,0,0.4,0s0.2,0,0.4,0s0.2,0,0.4,0c0.1,0,0.2,0,0.4,0s0.2,0,0.4,0c0.1,0,0.2,0,0.4,0
				c0.1,0,0.2,0,0.4,0c0.1,0,0.2,0,0.4,0c0.1,0,0.2,0,0.4,0c0.1,0,0.2,0,0.4,0c0.1,0,0.2,0,0.4,0c0.1,0,0.2,0,0.4,0
				c0.1,0,0.2,0,0.4,0s0.2,0,0.4,0c0.1,0,0.2,0,0.4,0c0.1,0,0.2,0,0.4,0c0.1,0,0.2,0,0.4,0c0.1,0,0.2,0,0.4,0c0.6,0,0.1,0,0.7,0
				c0.1,0,0.2,0,0.4,0c0.1,0,0.2,0,0.4,0s0.2,0,0.4,0c0.1,0,0.2,0,0.3,0c0.1,0,0.2,0,0.3,0c0.1,0,0.2,0,0.3,0c0.1,0,0.2,0,0.3,0
				c0.1,0,0.2,0,0.3,0s0.2,0,0.3,0c0.1,0,0.2,0,0.3,0c0.1,0,0.2,0,0.3,0c0.1,0,0.2,0,0.3,0c0.1,0,0.2,0,0.3,0s0.2,0,0.3,0
				s0.2,0,0.3,0c0.1,0,0.2,0,0.3,0c0.1,0,0.2,0,0.3,0c0.1,0,0.2,0,0.3,0c0.1,0,0.2,0,0.3,0c0.1,0,0.2,0,0.3,0c0.1,0,0.2,0,0.3,0
				c0.1,0,0.2,0,0.3,0c0.1,0,0.2,0,0.3,0s0.2,0,0.3,0c0.1,0,0.2,0,0.3,0c0.1,0,0.2,0,0.3,0s0.2,0,0.3,0c0.1,0,0.2,0,0.3,0
				c0.1,0,0.2,0,0.3,0c0.1,0,0.2,0,0.3,0s0.2,0,0.3,0s0.2,0,0.3,0s0.2,0,0.3,0c0.1,0,0.2,0,0.3,0c0.1,0,0.2,0,0.3,0s0.2,0,0.3,0
				s0.2,0,0.3,0c0.1,0,0.2,0,0.3,0c0.1,0,0.2,0,0.3,0c0.1,0,0.2,0,0.3,0c0.1,0,0.2,0,0.3,0c0.1,0,0.2,0,0.3,0L387.9,618.8
				L387.9,618.8z M143,596.5c-14.1-28.6-18.5-65.9-19-98.2l-16,0.2c0.5,33,4.9,73.2,20.6,105L143,596.5z M186.9,439.8h197.5v-16
				H186.9V439.8z M187.1,618.8c-19.4,0-36.7-7.4-44.1-22.3l-14.4,7.1c11.1,22.6,35.9,31.2,58.4,31.2v-16H187.1z M431,596.3
				c-6.6,15-23.7,22.5-43.1,22.5v16c22.5,0,47.5-8.8,57.7-32.1L431,596.3z M464.5,502.6c1.9-45.2-36.2-78.8-80.1-78.8v16
				c36.2,0,65.6,27.3,64.1,62.2L464.5,502.6z M124,498.3c-0.5-33.2,28-58.5,62.8-58.5v-16c-42.1,0-79.5,31-78.8,74.7L124,498.3z"/>
			<path class="st4" d="M224,431.8h19.6c5.6-30.3,5.6-69,5.6-69h76.3c0,0,0,38.7,5.6,69h17.6c-16.5,14.9-38.4,24-62.4,24
				S240.5,446.8,224,431.8z"/>
			<path class="st3" d="M224,431.8v-8h-20.8l15.4,13.9L224,431.8z M243.6,431.8v8h6.7l1.2-6.5L243.6,431.8z M249.2,362.8v-8h-8v8
				H249.2z M325.5,362.8h8v-8h-8V362.8z M331.1,431.8l-7.9,1.5l1.2,6.5h6.7L331.1,431.8L331.1,431.8z M348.7,431.8l5.4,5.9
				l15.4-13.9h-20.8V431.8z M224,439.8h19.6v-16H224V439.8z M251.5,433.3c2.9-15.7,4.3-33.3,5-46.9c0.4-6.8,0.5-12.7,0.6-16.9
				c0-2.1,0.1-3.7,0.1-4.9c0-0.6,0-1,0-1.3c0-0.2,0-0.3,0-0.3v-0.1l0,0l0,0l0,0c0,0,0,0-8,0s-8,0-8,0l0,0l0,0l0,0c0,0,0,0,0,0.1
				s0,0.2,0,0.3c0,0.3,0,0.7,0,1.2c0,1.1,0,2.7-0.1,4.7c-0.1,4-0.3,9.7-0.6,16.4c-0.7,13.3-2.1,30.2-4.8,44.8L251.5,433.3z
				 M249.2,370.8h76.3v-16h-76.3V370.8z M325.5,362.8c-8,0-8,0-8,0l0,0l0,0l0,0v0.1c0,0.1,0,0.2,0,0.3c0,0.3,0,0.7,0,1.3
				c0,1.1,0,2.8,0.1,4.9c0.1,4.2,0.3,10,0.6,16.9c0.7,13.6,2.1,31.2,5,46.9l15.7-2.9c-2.7-14.7-4.1-31.5-4.8-44.8
				c-0.3-6.6-0.5-12.3-0.6-16.4c0-2-0.1-3.6-0.1-4.7c0-0.5,0-1,0-1.2c0-0.1,0-0.2,0-0.3v-0.1l0,0l0,0l0,0
				C333.5,362.8,333.5,362.8,325.5,362.8z M331.1,439.8h17.6v-16h-17.6V439.8z M343.3,425.9c-15.1,13.6-35.1,21.9-57,21.9v16
				c26,0,49.8-9.9,67.7-26.1L343.3,425.9z M286.4,447.8c-21.9,0-41.9-8.3-57-21.9l-10.7,11.9c17.9,16.2,41.7,26.1,67.7,26.1V447.8z"
				/>
			<path class="st5" d="M187.1,626.8c-20.9,0-42-8-51.2-26.8c-14.9-30.2-19.3-68.9-19.8-101.6c-0.6-38.5,32.4-66.6,70.8-66.6H237
				v195H187.1L187.1,626.8z M342,626.8h45.9l0,0c20.9,0,41.9-8.2,50.3-27.3c12.4-28.1,16.9-65.1,18.3-97.2
				c1.6-40-32.1-70.5-72.1-70.5H342V626.8z"/>
			<path d="M187.1,626.8v8l0,0V626.8z M135.9,600.1l-7.2,3.5l0,0L135.9,600.1z M116,498.5l-8,0.1L116,498.5z M186.9,431.8v8l0,0
				V431.8z M237,431.8h8v-8h-8V431.8z M237,626.8v8h8v-8H237z M187.1,626.8v8l0,0V626.8z M342,626.8h-8v8h8V626.8z M387.9,626.8v8
				l0,0V626.8z M387.9,626.8v8l0,0V626.8z M438.3,599.5l7.3,3.2l0,0L438.3,599.5z M456.6,502.3l-8-0.3l0,0L456.6,502.3z
				 M384.4,431.8v8l0,0V431.8z M342,431.8v-8h-8v8H342z M187.1,618.8c-19.3,0-36.7-7.4-44-22.3l-14.4,7.1
				c11.1,22.6,35.9,31.2,58.4,31.2V618.8z M143,596.5c-14.1-28.6-18.5-65.9-19-98.2l-16,0.2c0.5,33,4.9,73.2,20.6,105L143,596.5z
				 M124,498.3c-0.5-33.2,28-58.5,62.8-58.5v-16c-42.1,0-79.5,31-78.8,74.7L124,498.3z M186.9,439.8H237v-16h-50.1V439.8z
				 M245,626.8v-195h-16v195H245z M187.1,634.8H237v-16h-49.9V634.8z M187.1,618.8L187.1,618.8L187.1,618.8l-0.1,16l0,0l0,0v-16
				H187.1z M342,634.8h45.9v-16H342V634.8z M387.9,618.8L387.9,618.8L387.9,618.8v16l0,0l0,0V618.8z M431,596.3
				c-6.6,15-23.7,22.5-43,22.5v16c22.5,0,47.4-8.8,57.7-32.1L431,596.3z M448.6,502c-1.3,31.9-5.9,67.7-17.6,94.3l14.6,6.5
				c13-29.5,17.6-67.7,18.9-100.1L448.6,502z M384.4,439.8c36.2,0,65.6,27.3,64.1,62.2l16,0.7c1.9-45.2-36.2-78.8-80.1-78.8V439.8z
				 M342,439.8h42.4v-16H342V439.8z M334,431.8v195h16v-195H334z"/>
			<path class="st6" d="M339.4,622.8l-3.3-187h36.6l-14.2,187H339.4z"/>
			<path class="st6" d="M234.5,622.8l3.4-187h-37.6l14.5,187H234.5z"/>
			<path class="st7" d="M423.7,267c0,5.8-1.8,11-4.5,14.6s-6.1,5.4-9.5,5.4s-6.8-1.8-9.5-5.4s-4.5-8.7-4.5-14.6
				c0-5.8,1.8-11,4.5-14.6s6.1-5.4,9.5-5.4s6.8,1.8,9.5,5.4C422,256,423.7,261.1,423.7,267z"/>
			<path class="st7" d="M177.7,267c0,5.8-1.8,11-4.5,14.6s-6.1,5.4-9.5,5.4s-6.8-1.8-9.5-5.4s-4.5-8.7-4.5-14.6
				c0-5.8,1.8-11,4.5-14.6s6.1-5.4,9.5-5.4s6.8,1.8,9.5,5.4C176,256,177.7,261.1,177.7,267z"/>
			<path class="st8" d="M287.2,398.8L287.2,398.8c24.3-0.1,54.6-11,78.7-29.2c24.2-18.3,41.5-43.4,41.5-71.6c0-13.5-1-26.9-2.1-40.6
				c-0.2-2.4-0.4-4.8-0.5-7c-0.8-10.4-1.6-19.4-1.6-31.1c0-49.7-51.4-89.2-116.2-89.4l0,0l0,0h-0.1 M287.2,398.8L287.2,398.8
				C287.1,398.8,287.1,398.8,287.2,398.8H287l0,0l0,0h-0.2l0,0l0,0l0,0c-24.3-0.1-54.6-11-78.7-29.2c-24.2-18.3-41.5-43.4-41.5-71.6
				c0-13.5,1-26.9,2.1-40.6c0.2-2.4,0.4-4.8,0.6-7c0.8-10.4,1.6-19.4,1.6-31.1c0-49.7,51.4-89.2,116.2-89.4 M287,125.9L287,125.9
				L287,125.9z"/>
			<path class="st3" d="M340.3,220.5c-4.8-2.9-4.7-8.9,1-11.5c23.6-6,41.1,1.1,54,13.3c1.2,1.1,2.5,2.3,3.7,3.3
				c1.8,2.7-0.4,4.5-2.9,4.3c-14.7-10.3-28.7-10-36.8-9.7c-4.3,0.2-9.1,1.8-12.2,1.9C343.6,222.3,341.2,221,340.3,220.5z"/>
			<path class="st3" d="M242.9,220.5c4.8-2.9,4.7-8.9-1-11.5c-23.6-6-41.1,1.1-54,13.3c-1.2,1.1-2.5,2.3-3.7,3.3
				c-1.8,2.7,0.4,4.5,2.9,4.3c14.7-10.3,28.7-10,36.8-9.7c4.3,0.2,9.1,1.8,12.2,1.9C239.5,222.3,242,221,242.9,220.5z"/>
			<circle class="st3" cx="212.7" cy="272.8" r="14"/>
			<circle class="st9" cx="215.7" cy="269.8" r="3"/>
			<circle class="st3" cx="360.7" cy="272.8" r="14"/>
			<circle class="st9" cx="364.7" cy="269.8" r="3"/>
			<path class="st10" d="M248.7,325.2C248.7,325.2,248.8,325.2,248.7,325.2C248.8,325.2,248.7,325.2,248.7,325.2z M250.3,324.6
				c0.1,0,0.3-0.1,0.4-0.1c2-0.5,5-1,8.7-1.3c7.4-0.7,17.5-1.1,27.5-1.1c10.1,0,20.1,0.4,27.5,1.1c3.7,0.4,6.7,0.8,8.7,1.3
				c0.2,0,0.4,0.1,0.5,0.1c-0.5,0.6-1.2,1.3-2.1,2c-2.2,1.8-5.4,3.8-9.2,5.6c-7.6,3.7-17,6.5-24.2,6.5c-7.3,0-17.2-2.9-25.5-6.6
				c-4.1-1.8-7.6-3.8-10-5.7C251.6,325.8,250.8,325.2,250.3,324.6z M325.1,325.2L325.1,325.2C325.1,325.2,325.2,325.2,325.1,325.2z"
				/>
			<path class="st11" d="M339.6,330.8c0,0-6.8-2-10.8-6.7s-3.8-12.3-3.8-12.3"/>
			<path class="st11" d="M234.1,330.8c0,0,6.8-2,10.8-6.7s3.8-12.3,3.8-12.3"/>
			<circle class="st12" cx="209.6" cy="321.7" r="3.5"/>
			<circle class="st12" cx="216.6" cy="332.7" r="3.5"/>
			<circle class="st12" cx="228.6" cy="321.7" r="3.5"/>
			<circle class="st12" cx="358.6" cy="321.7" r="3.5"/>
			<circle class="st12" cx="351.6" cy="332.7" r="3.5"/>
			<circle class="st12" cx="339.6" cy="321.7" r="3.5"/>
			<path class="st13" d="M361.1,149.3c25.4,16.9,41.8,42.8,41.8,72.7c0,11.5,0.7,20.3,1.4,30.7c0.2,2.3,0.3,4.6,0.5,7.1
				c0.5,7.2,1,14.5,1.4,21.7c14.6-12.5,24.7-40.5,24.7-72.9c0-44.1-18.7-79.9-41.8-79.9C378.4,128.7,368.5,136.5,361.1,149.3z
				 M217,150.3c-7.1-10.6-16-16.9-25.7-16.9c-23.1,0-41.8,35.8-41.8,79.9c0,31.7,9.6,59,23.6,71.9c0.4-8.5,1-16.9,1.6-25.4
				c0.2-2.5,0.4-4.8,0.5-7.1c0.8-10.4,1.4-19.2,1.4-30.7C176.6,192.7,192.4,167.2,217,150.3z"/>
			<path class="st14" d="M307.9,200c-31.6,0-60.1-7.6-80.5-19.2c-20.6-11.7-32.1-26.8-32.1-41.4c0-53.5,51.9-89.4,112.6-89.4
				c23.9,0,40.5,13.1,57.5,27.2c0.5,0.4,1,0.9,1.6,1.3c16.2,13.5,33.4,27.7,57.6,27.7c6.2,0,9.5,1.5,11.2,3.2
				c1.6,1.6,2.5,4.2,1.9,8.1c-1.2,8.3-8.2,20.2-20.3,32.8C393.3,175.2,351.8,200,307.9,200z"/>
			<g>
				<path class="st15" d="M335.2,235.3c19.1-7.7,40.8-7.3,60.1-0.3c9.5,3.4,16.7,11.5,19.3,21.4c4.9,18.6,3.1,35-5.2,46.1
					c-8.2,11-23.4,17.8-47.4,16c-22-2.9-33.4-13.4-38.9-25.6c-5.7-12.5-5.6-27.2-3.5-38.5C321.1,245.7,327,238.6,335.2,235.3z"/>
				<path class="st15" d="M239.4,235.3c-19.1-7.7-40.8-7.3-60.1-0.3c-9.5,3.4-16.7,11.5-19.3,21.4c-4.9,18.6-3.1,35,5.2,46.1
					c8.2,11,23.4,17.8,47.4,16c22-2.9,33.4-13.4,38.9-25.6c5.7-12.5,5.6-27.2,3.5-38.5C253.5,245.7,247.5,238.6,239.4,235.3z"/>
				<path class="st15" d="M250.8,245.1c29.7-8.4,45.2-8.1,73,2"/>
			</g>
		</g>
	</g>
</g>
</svg>
