<svg width="6997" height="2463" viewBox="0 0 6997 2463" fill="none" xmlns="http://www.w3.org/2000/svg">
<rect width="371" height="83" transform="translate(252 77)" fill="#5384ED"/>
<text fill="white" xml:space="preserve" style="white-space: pre" font-family="Inter" font-size="42" font-weight="500" letter-spacing="0em"><tspan x="284" y="133.773">Open email link</tspan></text>
<g clip-path="url(#clip0_3183_21709)">
<rect width="1512" height="982" transform="translate(252 160)" fill="white"/>
<path d="M324 224C324 219.582 327.582 216 332 216H1683C1687.42 216 1691 219.582 1691 224V1016C1691 1020.42 1687.42 1024 1683 1024H332C327.582 1024 324 1020.42 324 1016V224Z" fill="white"/>
<rect x="1678" y="216" width="13" height="808" fill="#F5F5F5"/>
<rect x="1681" y="545.356" width="6" height="149.288" rx="3" fill="#AAAAAA"/>
<rect x="325.5" y="217.5" width="1364" height="45" fill="#F5F5F5" stroke="#AAAAAA" stroke-width="3"/>
<circle cx="346" cy="240" r="6" fill="#767676"/>
<circle cx="366" cy="240" r="6" fill="#767676"/>
<circle cx="386" cy="240" r="6" fill="#767676"/>
<rect x="409.5" y="229.5" width="1264" height="21" rx="10.5" fill="white" stroke="#AAAAAA" stroke-width="3"/>
<text fill="#767676" xml:space="preserve" style="white-space: pre" font-family="Chalkboard" font-size="14" letter-spacing="0em"><tspan x="424" y="244.881">www.twitter.com</tspan></text>
<path d="M332 219H1683V213H332V219ZM1688 224V1016H1694V224H1688ZM1683 1021H332V1027H1683V1021ZM327 1016V224H321V1016H327ZM332 1021C329.239 1021 327 1018.76 327 1016H321C321 1022.08 325.925 1027 332 1027V1021ZM1688 1016C1688 1018.76 1685.76 1021 1683 1021V1027C1689.08 1027 1694 1022.08 1694 1016H1688ZM1683 219C1685.76 219 1688 221.239 1688 224H1694C1694 217.925 1689.08 213 1683 213V219ZM332 213C325.925 213 321 217.925 321 224H327C327 221.239 329.239 219 332 219V213Z" fill="#AAAAAA"/>
<path d="M355 401C355 387.745 365.745 377 379 377H558C571.255 377 582 387.745 582 401C582 414.255 571.255 425 558 425H379C365.745 425 355 414.255 355 401Z" fill="#EEEEEE"/>
<path d="M374 398L383 391L392 398V409C392 409.53 391.789 410.039 391.414 410.414C391.039 410.789 390.53 411 390 411H376C375.47 411 374.961 410.789 374.586 410.414C374.211 410.039 374 409.53 374 409V398Z" stroke="#333333" stroke-width="2" stroke-linecap="round" stroke-linejoin="round"/>
<path d="M380 411V401H386V411" stroke="#333333" stroke-width="2" stroke-linecap="round" stroke-linejoin="round"/>
<text fill="#333333" xml:space="preserve" style="white-space: pre" font-family="Chalkboard" font-size="16" letter-spacing="0em"><tspan x="403" y="406.578">Inbox</tspan></text>
<rect width="227" height="48" transform="translate(355 436)" fill="white"/>
<path d="M383 450L386.09 456.26L393 457.27L388 462.14L389.18 469.02L383 465.77L376.82 469.02L378 462.14L373 457.27L379.91 456.26L383 450Z" stroke="#898F9B" stroke-width="2" stroke-linecap="round" stroke-linejoin="round"/>
<text fill="#7D7D7D" xml:space="preserve" style="white-space: pre" font-family="Chalkboard" font-size="16" letter-spacing="0em"><tspan x="403" y="465.578">Starred</tspan></text>
<rect width="227" height="48" transform="translate(355 495)" fill="white"/>
<path d="M374 527L387 527L394 519L387 511L374 511C373.47 511 372.961 511.211 372.586 511.586C372.211 511.961 372 512.47 372 513L372 525C372 525.53 372.211 526.039 372.586 526.414C372.961 526.789 373.47 527 374 527V527Z" stroke="#898F9B" stroke-width="2" stroke-linecap="round" stroke-linejoin="round"/>
<text fill="#7D7D7D" xml:space="preserve" style="white-space: pre" font-family="Chalkboard" font-size="16" letter-spacing="0em"><tspan x="403" y="524.578">Important</tspan></text>
<rect width="227" height="48" transform="translate(355 554)" fill="white"/>
<path d="M374 586L387 586L394 578L387 570L374 570C373.47 570 372.961 570.211 372.586 570.586C372.211 570.961 372 571.47 372 572L372 584C372 584.53 372.211 585.039 372.586 585.414C372.961 585.789 373.47 586 374 586V586Z" stroke="#898F9B" stroke-width="2" stroke-linecap="round" stroke-linejoin="round"/>
<text fill="#7D7D7D" xml:space="preserve" style="white-space: pre" font-family="Chalkboard" font-size="16" letter-spacing="0em"><tspan x="403" y="583.578">Sent</tspan></text>
<rect width="227" height="48" transform="translate(355 613)" fill="white"/>
<path d="M374 645L387 645L394 637L387 629L374 629C373.47 629 372.961 629.211 372.586 629.586C372.211 629.961 372 630.47 372 631L372 643C372 643.53 372.211 644.039 372.586 644.414C372.961 644.789 373.47 645 374 645V645Z" stroke="#898F9B" stroke-width="2" stroke-linecap="round" stroke-linejoin="round"/>
<text fill="#7D7D7D" xml:space="preserve" style="white-space: pre" font-family="Chalkboard" font-size="16" letter-spacing="0em"><tspan x="403" y="642.578">Personal</tspan></text>
<rect width="227" height="48" transform="translate(355 672)" fill="white"/>
<path d="M374 704L387 704L394 696L387 688L374 688C373.47 688 372.961 688.211 372.586 688.586C372.211 688.961 372 689.47 372 690L372 702C372 702.53 372.211 703.039 372.586 703.414C372.961 703.789 373.47 704 374 704V704Z" stroke="#898F9B" stroke-width="2" stroke-linecap="round" stroke-linejoin="round"/>
<text fill="#7D7D7D" xml:space="preserve" style="white-space: pre" font-family="Chalkboard" font-size="16" letter-spacing="0em"><tspan x="403" y="701.578">Deleted messages</tspan></text>
<rect width="227" height="48" transform="translate(355 731)" fill="white"/>
<path d="M383 756C383.552 756 384 755.552 384 755C384 754.448 383.552 754 383 754C382.448 754 382 754.448 382 755C382 755.552 382.448 756 383 756Z" stroke="#898F9B" stroke-width="2" stroke-linecap="round" stroke-linejoin="round"/>
<path d="M390 756C390.552 756 391 755.552 391 755C391 754.448 390.552 754 390 754C389.448 754 389 754.448 389 755C389 755.552 389.448 756 390 756Z" stroke="#898F9B" stroke-width="2" stroke-linecap="round" stroke-linejoin="round"/>
<path d="M376 756C376.552 756 377 755.552 377 755C377 754.448 376.552 754 376 754C375.448 754 375 754.448 375 755C375 755.552 375.448 756 376 756Z" stroke="#898F9B" stroke-width="2" stroke-linecap="round" stroke-linejoin="round"/>
<text fill="#7D7D7D" xml:space="preserve" style="white-space: pre" font-family="Chalkboard" font-size="16" letter-spacing="0em"><tspan x="403" y="760.578">More</tspan></text>
<path d="M373 301C373 298.791 374.791 297 377 297H561C563.209 297 565 298.791 565 301V341C565 343.209 563.209 345 561 345H377C374.791 345 373 343.209 373 341V301Z" fill="white"/>
<path d="M434 314V328" stroke="#333333" stroke-width="2" stroke-linecap="round" stroke-linejoin="round"/>
<path d="M427 321H441" stroke="#333333" stroke-width="2" stroke-linecap="round" stroke-linejoin="round"/>
<text fill="#333333" xml:space="preserve" style="white-space: pre" font-family="Chalkboard" font-size="16" letter-spacing="0em"><tspan x="454" y="326.578">Compose</tspan></text>
<path d="M377 299H561V295H377V299ZM563 301V341H567V301H563ZM561 343H377V347H561V343ZM375 341V301H371V341H375ZM377 343C375.895 343 375 342.105 375 341H371C371 344.314 373.686 347 377 347V343ZM563 341C563 342.105 562.105 343 561 343V347C564.314 347 567 344.314 567 341H563ZM561 299C562.105 299 563 299.895 563 301H567C567 297.686 564.314 295 561 295V299ZM377 295C373.686 295 371 297.686 371 301H375C375 299.895 375.895 299 377 299V295Z" fill="#333333"/>
<path d="M936 668C936 665.791 937.791 664 940 664H1213C1215.21 664 1217 665.791 1217 668V708C1217 710.209 1215.21 712 1213 712H940C937.791 712 936 710.209 936 708V668Z" fill="#333333"/>
<text fill="white" xml:space="preserve" style="white-space: pre" font-family="Chalkboard" font-size="16" letter-spacing="0em"><tspan x="1017" y="693.578">Accept invitation</tspan></text>
<path d="M1542 264L1542 1021" stroke="#AAAAAA" stroke-width="2"/>
<path d="M610 264L610 1021" stroke="#AAAAAA" stroke-width="2"/>
<g clip-path="url(#clip1_3183_21709)">
<text fill="#7D7D7D" xml:space="preserve" style="white-space: pre" font-family="Redacted Script" font-size="16" letter-spacing="0em"><tspan x="414" y="988.8">Lorem ipsum dolor </tspan><tspan x="414" y="1008.8">sit amet, consec </tspan><tspan x="414" y="1028.8">tetur adipiscing </tspan><tspan x="414" y="1048.8">elit. Nam </tspan><tspan x="414" y="1068.8">condimentum </tspan><tspan x="414" y="1088.8">tempus diam, </tspan><tspan x="414" y="1108.8">ultricies </tspan><tspan x="414" y="1128.8">sollicitudin erat </tspan><tspan x="414" y="1148.8">facilisis eget. </tspan><tspan x="414" y="1168.8">Vestibulum </tspan><tspan x="414" y="1188.8">rhoncus dui vel </tspan><tspan x="414" y="1208.8">eros laoreet </tspan><tspan x="414" y="1228.8">consectetur. </tspan><tspan x="414" y="1248.8">Vivamus eget </tspan><tspan x="414" y="1268.8">elementum ligula, </tspan><tspan x="414" y="1288.8">vitae pharetra </tspan><tspan x="414" y="1308.8">quam. Nullam at </tspan><tspan x="414" y="1328.8">ligula sed metu</tspan></text>
</g>
<path d="M564 991L570 997L576 991" stroke="#898F9B" stroke-width="2" stroke-linecap="round" stroke-linejoin="round"/>
<circle cx="385" cy="994" r="19" fill="#F5F5F5" stroke="#AAAAAA" stroke-width="2"/>
<mask id="path-42-inside-1_3183_21709" fill="white">
<path fill-rule="evenodd" clip-rule="evenodd" d="M370 1007.23V1006.5C370 1001.51 379.994 999 385 999C390.006 999 400 1001.51 400 1006.5V1007.23C396.335 1011.38 390.973 1014 385 1014C379.027 1014 373.665 1011.38 370 1007.23ZM385 982.333C380.856 982.333 377.5 985.69 377.5 989.833C377.5 993.977 380.856 997.333 385 997.333C389.144 997.333 392.5 993.977 392.5 989.833C392.5 985.69 389.144 982.333 385 982.333Z"/>
</mask>
<path fill-rule="evenodd" clip-rule="evenodd" d="M370 1007.23V1006.5C370 1001.51 379.994 999 385 999C390.006 999 400 1001.51 400 1006.5V1007.23C396.335 1011.38 390.973 1014 385 1014C379.027 1014 373.665 1011.38 370 1007.23ZM385 982.333C380.856 982.333 377.5 985.69 377.5 989.833C377.5 993.977 380.856 997.333 385 997.333C389.144 997.333 392.5 993.977 392.5 989.833C392.5 985.69 389.144 982.333 385 982.333Z" fill="#F5F5F5"/>
<path d="M370 1007.23H368V1007.99L368.501 1008.55L370 1007.23ZM400 1007.23L401.499 1008.55L402 1007.99V1007.23H400ZM372 1007.23V1006.5H368V1007.23H372ZM372 1006.5C372 1005.99 372.241 1005.39 372.996 1004.69C373.765 1003.98 374.926 1003.31 376.366 1002.74C379.25 1001.58 382.747 1001 385 1001V997C382.247 997 378.244 997.675 374.879 999.023C373.195 999.698 371.545 1000.59 370.283 1001.75C369.008 1002.93 368 1004.52 368 1006.5H372ZM385 1001C387.253 1001 390.75 1001.58 393.634 1002.74C395.074 1003.31 396.235 1003.98 397.004 1004.69C397.759 1005.39 398 1005.99 398 1006.5H402C402 1004.52 400.992 1002.93 399.717 1001.75C398.455 1000.59 396.805 999.698 395.121 999.023C391.756 997.675 387.753 997 385 997V1001ZM398 1006.5V1007.23H402V1006.5H398ZM398.501 1005.91C395.199 1009.65 390.376 1012 385 1012V1016C391.571 1016 397.471 1013.12 401.499 1008.55L398.501 1005.91ZM385 1012C379.624 1012 374.801 1009.65 371.499 1005.91L368.501 1008.55C372.529 1013.12 378.429 1016 385 1016V1012ZM379.5 989.833C379.5 986.794 381.961 984.333 385 984.333V980.333C379.752 980.333 375.5 984.585 375.5 989.833H379.5ZM385 995.333C381.961 995.333 379.5 992.873 379.5 989.833H375.5C375.5 995.082 379.752 999.333 385 999.333V995.333ZM390.5 989.833C390.5 992.873 388.039 995.333 385 995.333V999.333C390.248 999.333 394.5 995.082 394.5 989.833H390.5ZM385 984.333C388.039 984.333 390.5 986.794 390.5 989.833H394.5C394.5 984.585 390.248 980.333 385 980.333V984.333Z" fill="#AAAAAA" mask="url(#path-42-inside-1_3183_21709)"/>
<circle cx="1576" cy="322" r="20" fill="#EEEEEE"/>
<circle cx="1576" cy="392" r="20" fill="#EEEEEE"/>
<circle cx="1576" cy="462" r="20" fill="#EEEEEE"/>
<circle cx="1576" cy="532" r="20" fill="#EEEEEE"/>
<path d="M610 390H1542" stroke="#AAAAAA" stroke-width="2"/>
<path d="M699 350H701H717" stroke="#767676" stroke-width="2" stroke-linecap="round" stroke-linejoin="round"/>
<path d="M704 350V348C704 347.47 704.211 346.961 704.586 346.586C704.961 346.211 705.47 346 706 346H710C710.53 346 711.039 346.211 711.414 346.586C711.789 346.961 712 347.47 712 348V350M715 350V364C715 364.53 714.789 365.039 714.414 365.414C714.039 365.789 713.53 366 713 366H703C702.47 366 701.961 365.789 701.586 365.414C701.211 365.039 701 364.53 701 364V350H715Z" stroke="#898F9B" stroke-width="2" stroke-linecap="round" stroke-linejoin="round"/>
<path d="M867 285C867 282.791 868.791 281 871 281H1213C1215.21 281 1217 282.791 1217 285V317C1217 319.209 1215.21 321 1213 321H871C868.791 321 867 319.209 867 317V285Z" fill="white"/>
<path d="M887.25 306.25C890.564 306.25 893.25 303.564 893.25 300.25C893.25 296.936 890.564 294.25 887.25 294.25C883.936 294.25 881.25 296.936 881.25 300.25C881.25 303.564 883.936 306.25 887.25 306.25Z" stroke="#898F9B" stroke-width="2" stroke-linecap="round" stroke-linejoin="round"/>
<path d="M894.75 307.75L891.487 304.488" stroke="#898F9B" stroke-width="2" stroke-linecap="round" stroke-linejoin="round"/>
<text fill="#7D7D7D" xml:space="preserve" style="white-space: pre" font-family="Chalkboard" font-size="16" letter-spacing="0em"><tspan x="905" y="306.578">Search mail</tspan></text>
<path d="M871 283H1213V279H871V283ZM1215 285V317H1219V285H1215ZM1213 319H871V323H1213V319ZM869 317V285H865V317H869ZM871 319C869.895 319 869 318.105 869 317H865C865 320.314 867.686 323 871 323V319ZM1215 317C1215 318.105 1214.1 319 1213 319V323C1216.31 323 1219 320.314 1219 317H1215ZM1213 283C1214.1 283 1215 283.895 1215 285H1219C1219 281.686 1216.31 279 1213 279V283ZM871 279C867.686 279 865 281.686 865 285H869C869 283.895 869.895 283 871 283V279Z" fill="#AAAAAA"/>
<path d="M680 356H666" stroke="#898F9B" stroke-width="2" stroke-linecap="round" stroke-linejoin="round"/>
<path d="M673 363L666 356L673 349" stroke="#898F9B" stroke-width="2" stroke-linecap="round" stroke-linejoin="round"/>
<text fill="#333333" xml:space="preserve" style="white-space: pre" font-family="Chalkboard" font-size="32" letter-spacing="0em"><tspan x="998.5" y="560.156">APPOINTA</tspan></text>
<text fill="#333333" xml:space="preserve" style="white-space: pre" font-family="Chalkboard" font-size="24" letter-spacing="0em"><tspan x="829" y="603.367">Rebecca Robinson invited you to appointa.com</tspan></text>
<text fill="#333333" xml:space="preserve" style="white-space: pre" font-family="Chalkboard" font-size="24" letter-spacing="0em"><tspan x="986.5" y="872.367">Your login email:</tspan></text>
<text fill="#DEB650" xml:space="preserve" style="white-space: pre" font-family="Chalkboard" font-size="18" letter-spacing="0em"><tspan x="975" y="902.275">john.l@ecommerce.global</tspan></text>
<text fill="#333333" xml:space="preserve" style="white-space: pre" font-family="Chalkboard" font-size="24" letter-spacing="0em"><tspan x="970.5" y="782.367">Your account&#x2019;s URL:</tspan></text>
<text fill="#DEB650" xml:space="preserve" style="white-space: pre" font-family="Chalkboard" font-size="18" letter-spacing="0em"><tspan x="951" y="812.275">ecommerce.global.appointa.com</tspan></text>
<text fill="#333333" xml:space="preserve" style="white-space: pre" font-family="Chalkboard" font-size="16" letter-spacing="0em"><tspan x="626" y="427.578">Changing your APPOINTA password</tspan></text>
<text fill="#333333" xml:space="preserve" style="white-space: pre" font-family="Chalkboard" font-size="16" letter-spacing="0em"><tspan x="900" y="427.578">9:25pm</tspan></text>
</g>
<rect width="215" height="83" transform="translate(1932 77)" fill="#5384ED"/>
<text fill="white" xml:space="preserve" style="white-space: pre" font-family="Inter" font-size="42" font-weight="500" letter-spacing="0em"><tspan x="1964" y="133.773">Sign up</tspan></text>
<g clip-path="url(#clip2_3183_21709)">
<rect width="1512" height="982" transform="translate(1932 160)" fill="white"/>
<g filter="url(#filter0_d_3183_21709)">
<rect x="1932" y="160" width="1512" height="80" fill="white"/>
</g>
<circle cx="3346" cy="200" r="23" fill="#F5F5F5" stroke="#AAAAAA" stroke-width="2"/>
<mask id="path-69-inside-2_3183_21709" fill="white">
<path fill-rule="evenodd" clip-rule="evenodd" d="M3328 215.875V215C3328 209.015 3339.99 206 3346 206C3352.01 206 3364 209.015 3364 215V215.875C3359.6 220.857 3353.17 224 3346 224C3338.83 224 3332.4 220.857 3328 215.875ZM3346 186C3341.03 186 3337 190.028 3337 195C3337 199.972 3341.03 204 3346 204C3350.97 204 3355 199.972 3355 195C3355 190.028 3350.97 186 3346 186Z"/>
</mask>
<path fill-rule="evenodd" clip-rule="evenodd" d="M3328 215.875V215C3328 209.015 3339.99 206 3346 206C3352.01 206 3364 209.015 3364 215V215.875C3359.6 220.857 3353.17 224 3346 224C3338.83 224 3332.4 220.857 3328 215.875ZM3346 186C3341.03 186 3337 190.028 3337 195C3337 199.972 3341.03 204 3346 204C3350.97 204 3355 199.972 3355 195C3355 190.028 3350.97 186 3346 186Z" fill="#F5F5F5"/>
<path d="M3328 215.875H3326V216.631L3326.5 217.198L3328 215.875ZM3364 215.875L3365.5 217.198L3366 216.631V215.875H3364ZM3330 215.875V215H3326V215.875H3330ZM3330 215C3330 214.238 3330.37 213.423 3331.32 212.539C3332.3 211.641 3333.74 210.814 3335.49 210.112C3339 208.707 3343.25 208 3346 208V204C3342.75 204 3337.99 204.801 3334 206.399C3332.01 207.199 3330.08 208.248 3328.61 209.599C3327.13 210.963 3326 212.769 3326 215H3330ZM3346 208C3348.75 208 3353 208.707 3356.51 210.112C3358.26 210.814 3359.7 211.641 3360.68 212.539C3361.63 213.423 3362 214.238 3362 215H3366C3366 212.769 3364.87 210.963 3363.39 209.599C3361.92 208.248 3359.99 207.199 3358 206.399C3354.01 204.801 3349.25 204 3346 204V208ZM3362 215V215.875H3366V215H3362ZM3362.5 214.551C3358.47 219.122 3352.57 222 3346 222V226C3353.77 226 3360.74 222.593 3365.5 217.198L3362.5 214.551ZM3346 222C3339.43 222 3333.53 219.122 3329.5 214.551L3326.5 217.198C3331.26 222.593 3338.23 226 3346 226V222ZM3339 195C3339 191.132 3342.13 188 3346 188V184C3339.92 184 3335 188.923 3335 195H3339ZM3346 202C3342.13 202 3339 198.868 3339 195H3335C3335 201.077 3339.92 206 3346 206V202ZM3353 195C3353 198.868 3349.87 202 3346 202V206C3352.08 206 3357 201.077 3357 195H3353ZM3346 188C3349.87 188 3353 191.132 3353 195H3357C3357 188.923 3352.08 184 3346 184V188Z" fill="#AAAAAA" mask="url(#path-69-inside-2_3183_21709)"/>
<path d="M1996 176H2051V216H1996V176Z" fill="#F5F5F5"/>
<path d="M2002 182L2045 210" stroke="#AAAAAA" stroke-width="2"/>
<path d="M2045 182L2002 210" stroke="#AAAAAA" stroke-width="2"/>
<path d="M1996 176V174H1994V176H1996ZM2051 176H2053V174H2051V176ZM2051 216V218H2053V216H2051ZM1996 216H1994V218H1996V216ZM1996 178H2051V174H1996V178ZM2049 176V216H2053V176H2049ZM2051 214H1996V218H2051V214ZM1998 216V176H1994V216H1998Z" fill="#AAAAAA"/>
<path d="M3237.15 180C3237.15 177.791 3238.94 176 3241.15 176H3366.5C3368.71 176 3370.5 177.791 3370.5 180V220C3370.5 222.209 3368.71 224 3366.5 224H3241.15C3238.94 224 3237.15 222.209 3237.15 220V180Z" fill="white"/>
<text fill="#333333" xml:space="preserve" style="white-space: pre" font-family="Chalkboard" font-size="16" letter-spacing="0em"><tspan x="3256.33" y="205.578">Signup/log in</tspan></text>
<path d="M3241.15 178H3366.5V174H3241.15V178ZM3368.5 180V220H3372.5V180H3368.5ZM3366.5 222H3241.15V226H3366.5V222ZM3239.15 220V180H3235.15V220H3239.15ZM3241.15 222C3240.05 222 3239.15 221.105 3239.15 220H3235.15C3235.15 223.314 3237.84 226 3241.15 226V222ZM3368.5 220C3368.5 221.105 3367.6 222 3366.5 222V226C3369.81 226 3372.5 223.314 3372.5 220H3368.5ZM3366.5 178C3367.6 178 3368.5 178.895 3368.5 180H3372.5C3372.5 176.686 3369.81 174 3366.5 174V178ZM3241.15 174C3237.84 174 3235.15 176.686 3235.15 180H3239.15C3239.15 178.895 3240.05 178 3241.15 178V174Z" fill="#333333"/>
<rect width="668.075" height="24" transform="translate(2002.35 622)" fill="#F5F5F5"/>
<rect width="668.075" height="24" transform="translate(2002.35 658)" fill="#F5F5F5"/>
<rect width="668.075" height="24" transform="translate(2002.35 694)" fill="#F5F5F5"/>
<rect width="668.075" height="24" transform="translate(2002.35 730)" fill="#F5F5F5"/>
<rect width="668.075" height="24" transform="translate(2002.35 766)" fill="#F5F5F5"/>
<rect width="668.075" height="24" transform="translate(2702.42 622)" fill="#F5F5F5"/>
<rect width="668.075" height="24" transform="translate(2702.42 658)" fill="#F5F5F5"/>
<rect width="668.075" height="24" transform="translate(2702.42 694)" fill="#F5F5F5"/>
<rect width="248.03" height="24" transform="translate(2002.35 976)" fill="#F5F5F5"/>
<rect width="248.03" height="24" transform="translate(2002.35 1012)" fill="#F5F5F5"/>
<rect width="248.03" height="24" transform="translate(2002.35 1048)" fill="#F5F5F5"/>
<rect width="248.03" height="24" transform="translate(2002.35 1084)" fill="#F5F5F5"/>
<rect width="248.03" height="24" transform="translate(2002.35 1120)" fill="#F5F5F5"/>
<rect width="248.03" height="24" transform="translate(2282.38 976)" fill="#F5F5F5"/>
<rect width="248.03" height="24" transform="translate(2282.38 1012)" fill="#F5F5F5"/>
<rect width="248.03" height="24" transform="translate(2282.38 1048)" fill="#F5F5F5"/>
<rect width="248.03" height="24" transform="translate(2282.38 1084)" fill="#F5F5F5"/>
<rect width="248.03" height="24" transform="translate(2562.41 976)" fill="#F5F5F5"/>
<rect width="248.03" height="24" transform="translate(2562.41 1012)" fill="#F5F5F5"/>
<rect width="248.03" height="24" transform="translate(2562.41 1048)" fill="#F5F5F5"/>
<rect width="248.03" height="24" transform="translate(2842.44 976)" fill="#F5F5F5"/>
<rect width="248.03" height="24" transform="translate(2842.44 1012)" fill="#F5F5F5"/>
<rect width="248.03" height="24" transform="translate(2842.44 1048)" fill="#F5F5F5"/>
<rect width="248.03" height="24" transform="translate(2842.44 1084)" fill="#F5F5F5"/>
<rect width="248.03" height="24" transform="translate(3122.47 976)" fill="#F5F5F5"/>
<rect width="248.03" height="24" transform="translate(3122.47 1012)" fill="#F5F5F5"/>
<rect width="248.03" height="24" transform="translate(3122.47 1048)" fill="#F5F5F5"/>
<rect width="248.03" height="24" transform="translate(3122.47 1084)" fill="#F5F5F5"/>
<rect width="248.03" height="24" transform="translate(3122.47 1120)" fill="#F5F5F5"/>
<path d="M1932 240H3444V590H1932V240Z" fill="#F5F5F5"/>
<path d="M1938 246L3438 584" stroke="#AAAAAA" stroke-width="2"/>
<path d="M3438 246L1938 584" stroke="#AAAAAA" stroke-width="2"/>
<path d="M1932 240V238H1930V240H1932ZM3444 240H3446V238H3444V240ZM3444 590V592H3446V590H3444ZM1932 590H1930V592H1932V590ZM1932 242H3444V238H1932V242ZM3442 240V590H3446V240H3442ZM3444 588H1932V592H3444V588ZM1934 590V240H1930V590H1934Z" fill="#AAAAAA"/>
<path d="M2002.35 837H2250.38V944H2002.35V837Z" fill="#F5F5F5"/>
<path d="M2008.35 843L2244.35 938" stroke="#AAAAAA" stroke-width="2"/>
<path d="M2244.35 843L2008.35 938" stroke="#AAAAAA" stroke-width="2"/>
<path d="M2002.35 837V835H2000.35V837H2002.35ZM2250.38 837H2252.38V835H2250.38V837ZM2250.38 944V946H2252.38V944H2250.38ZM2002.35 944H2000.35V946H2002.35V944ZM2002.35 839H2250.38V835H2002.35V839ZM2248.38 837V944H2252.38V837H2248.38ZM2250.38 942H2002.35V946H2250.38V942ZM2004.35 944V837H2000.35V944H2004.35Z" fill="#AAAAAA"/>
<path d="M2282.38 837H2530.41V944H2282.38V837Z" fill="#F5F5F5"/>
<path d="M2288.38 843L2524.38 938" stroke="#AAAAAA" stroke-width="2"/>
<path d="M2524.38 843L2288.38 938" stroke="#AAAAAA" stroke-width="2"/>
<path d="M2282.38 837V835H2280.38V837H2282.38ZM2530.41 837H2532.41V835H2530.41V837ZM2530.41 944V946H2532.41V944H2530.41ZM2282.38 944H2280.38V946H2282.38V944ZM2282.38 839H2530.41V835H2282.38V839ZM2528.41 837V944H2532.41V837H2528.41ZM2530.41 942H2282.38V946H2530.41V942ZM2284.38 944V837H2280.38V944H2284.38Z" fill="#AAAAAA"/>
<path d="M2562.41 837H2810.44V944H2562.41V837Z" fill="#F5F5F5"/>
<path d="M2568.41 843L2804.41 938" stroke="#AAAAAA" stroke-width="2"/>
<path d="M2804.41 843L2568.41 938" stroke="#AAAAAA" stroke-width="2"/>
<path d="M2562.41 837V835H2560.41V837H2562.41ZM2810.44 837H2812.44V835H2810.44V837ZM2810.44 944V946H2812.44V944H2810.44ZM2562.41 944H2560.41V946H2562.41V944ZM2562.41 839H2810.44V835H2562.41V839ZM2808.44 837V944H2812.44V837H2808.44ZM2810.44 942H2562.41V946H2810.44V942ZM2564.41 944V837H2560.41V944H2564.41Z" fill="#AAAAAA"/>
<path d="M2842.44 837H3090.47V944H2842.44V837Z" fill="#F5F5F5"/>
<path d="M2848.44 843L3084.44 938" stroke="#AAAAAA" stroke-width="2"/>
<path d="M3084.44 843L2848.44 938" stroke="#AAAAAA" stroke-width="2"/>
<path d="M2842.44 837V835H2840.44V837H2842.44ZM3090.47 837H3092.47V835H3090.47V837ZM3090.47 944V946H3092.47V944H3090.47ZM2842.44 944H2840.44V946H2842.44V944ZM2842.44 839H3090.47V835H2842.44V839ZM3088.47 837V944H3092.47V837H3088.47ZM3090.47 942H2842.44V946H3090.47V942ZM2844.44 944V837H2840.44V944H2844.44Z" fill="#AAAAAA"/>
<path d="M3122.47 837H3370.5V944H3122.47V837Z" fill="#F5F5F5"/>
<path d="M3128.47 843L3364.47 938" stroke="#AAAAAA" stroke-width="2"/>
<path d="M3364.47 843L3128.47 938" stroke="#AAAAAA" stroke-width="2"/>
<path d="M3122.47 837V835H3120.47V837H3122.47ZM3370.5 837H3372.5V835H3370.5V837ZM3370.5 944V946H3372.5V944H3370.5ZM3122.47 944H3120.47V946H3122.47V944ZM3122.47 839H3370.5V835H3122.47V839ZM3368.5 837V944H3372.5V837H3368.5ZM3370.5 942H3122.47V946H3370.5V942ZM3124.47 944V837H3120.47V944H3124.47Z" fill="#AAAAAA"/>
<rect x="1932" y="160" width="1512" height="1024" fill="#D9D9D9" fill-opacity="0.7"/>
<rect x="2461" y="389" width="453" height="460" rx="32" fill="#F5F5F5"/>
<text fill="black" xml:space="preserve" style="white-space: pre" font-family="Chalkboard" font-size="24" letter-spacing="0em"><tspan x="2513" y="442.367">Join ecommerce global&#x2019;s account</tspan></text>
<text fill="black" xml:space="preserve" style="white-space: pre" font-family="Chalkboard" font-size="18" letter-spacing="0em"><tspan x="2493" y="496.275">Complete your details</tspan></text>
<path d="M2493 537C2493 534.791 2494.79 533 2497 533H2878C2880.21 533 2882 534.791 2882 537V577C2882 579.209 2880.21 581 2878 581H2497C2494.79 581 2493 579.209 2493 577V537Z" fill="white"/>
<text fill="#767676" xml:space="preserve" style="white-space: pre" font-family="Chalkboard" font-size="14" letter-spacing="0em"><tspan x="2493" y="525.881">Full name</tspan></text>
<text opacity="0.8" fill="#7D7D7D" xml:space="preserve" style="white-space: pre" font-family="Chalkboard" font-size="16" letter-spacing="0em"><tspan x="2508" y="561.978">First and last name</tspan></text>
<path d="M2497 535H2878V531H2497V535ZM2880 537V577H2884V537H2880ZM2878 579H2497V583H2878V579ZM2495 577V537H2491V577H2495ZM2497 579C2495.9 579 2495 578.105 2495 577H2491C2491 580.314 2493.69 583 2497 583V579ZM2880 577C2880 578.105 2879.1 579 2878 579V583C2881.31 583 2884 580.314 2884 577H2880ZM2878 535C2879.1 535 2880 535.895 2880 537H2884C2884 533.686 2881.31 531 2878 531V535ZM2497 531C2493.69 531 2491 533.686 2491 537H2495C2495 535.895 2495.9 535 2497 535V531Z" fill="#AAAAAA"/>
<path d="M2493 617C2493 614.791 2494.79 613 2497 613H2878C2880.21 613 2882 614.791 2882 617V657C2882 659.209 2880.21 661 2878 661H2497C2494.79 661 2493 659.209 2493 657V617Z" fill="white"/>
<text fill="#767676" xml:space="preserve" style="white-space: pre" font-family="Chalkboard" font-size="14" letter-spacing="0em"><tspan x="2493" y="605.881">Create password</tspan></text>
<text opacity="0.8" fill="#7D7D7D" xml:space="preserve" style="white-space: pre" font-family="Chalkboard" font-size="16" letter-spacing="0em"><tspan x="2508" y="641.978">Create your password</tspan></text>
<path d="M2497 615H2878V611H2497V615ZM2880 617V657H2884V617H2880ZM2878 659H2497V663H2878V659ZM2495 657V617H2491V657H2495ZM2497 659C2495.9 659 2495 658.105 2495 657H2491C2491 660.314 2493.69 663 2497 663V659ZM2880 657C2880 658.105 2879.1 659 2878 659V663C2881.31 663 2884 660.314 2884 657H2880ZM2878 615C2879.1 615 2880 615.895 2880 617H2884C2884 613.686 2881.31 611 2878 611V615ZM2497 611C2493.69 611 2491 613.686 2491 617H2495C2495 615.895 2495.9 615 2497 615V611Z" fill="#AAAAAA"/>
<rect x="2498" y="698" width="18" height="18" rx="1" fill="white"/>
<rect x="2498" y="698" width="18" height="18" rx="1" stroke="#AAAAAA" stroke-width="2"/>
<text fill="#7D7D7D" xml:space="preserve" style="white-space: pre" font-family="Chalkboard" font-size="16" letter-spacing="0em"><tspan x="2525" y="711.578">By clicking below you agree to </tspan></text>
<text fill="#DEB650" xml:space="preserve" style="white-space: pre" font-family="Chalkboard" font-size="16" letter-spacing="0em"><tspan x="2753.48" y="711.578">Appointa terms </tspan><tspan x="2525" y="729.578">&#38; conditions</tspan></text>
<path d="M2493 773C2493 770.791 2494.79 769 2497 769H2878C2880.21 769 2882 770.791 2882 773V813C2882 815.209 2880.21 817 2878 817H2497C2494.79 817 2493 815.209 2493 813V773Z" fill="#333333"/>
<text fill="white" xml:space="preserve" style="white-space: pre" font-family="Chalkboard" font-size="16" letter-spacing="0em"><tspan x="2622" y="798.578">Create an account</tspan></text>
</g>
<rect width="278" height="83" transform="translate(3612 77)" fill="#5384ED"/>
<text fill="white" xml:space="preserve" style="white-space: pre" font-family="Inter" font-size="42" font-weight="500" letter-spacing="0em"><tspan x="3644" y="133.773">Select role</tspan></text>
<g clip-path="url(#clip3_3183_21709)">
<rect width="1512" height="982" transform="translate(3612 160)" fill="white"/>
<g filter="url(#filter1_d_3183_21709)">
<rect x="3612" y="160" width="1512" height="80" fill="white"/>
</g>
<circle cx="5026" cy="200" r="23" fill="#F5F5F5" stroke="#AAAAAA" stroke-width="2"/>
<mask id="path-121-inside-3_3183_21709" fill="white">
<path fill-rule="evenodd" clip-rule="evenodd" d="M5008 215.875V215C5008 209.015 5019.99 206 5026 206C5032.01 206 5044 209.015 5044 215V215.875C5039.6 220.857 5033.17 224 5026 224C5018.83 224 5012.4 220.857 5008 215.875ZM5026 186C5021.03 186 5017 190.028 5017 195C5017 199.972 5021.03 204 5026 204C5030.97 204 5035 199.972 5035 195C5035 190.028 5030.97 186 5026 186Z"/>
</mask>
<path fill-rule="evenodd" clip-rule="evenodd" d="M5008 215.875V215C5008 209.015 5019.99 206 5026 206C5032.01 206 5044 209.015 5044 215V215.875C5039.6 220.857 5033.17 224 5026 224C5018.83 224 5012.4 220.857 5008 215.875ZM5026 186C5021.03 186 5017 190.028 5017 195C5017 199.972 5021.03 204 5026 204C5030.97 204 5035 199.972 5035 195C5035 190.028 5030.97 186 5026 186Z" fill="#F5F5F5"/>
<path d="M5008 215.875H5006V216.631L5006.5 217.198L5008 215.875ZM5008 215H5010H5008ZM5044 215.875L5045.5 217.198L5046 216.631V215.875H5044ZM5010 215.875V215H5006V215.875H5010ZM5010 215C5010 214.238 5010.37 213.423 5011.32 212.539C5012.3 211.641 5013.74 210.814 5015.49 210.112C5019 208.707 5023.25 208 5026 208V204C5022.75 204 5017.99 204.801 5014 206.399C5012.01 207.199 5010.08 208.248 5008.61 209.599C5007.13 210.963 5006 212.769 5006 215H5010ZM5026 208C5028.75 208 5033 208.707 5036.51 210.112C5038.26 210.814 5039.7 211.641 5040.68 212.539C5041.63 213.423 5042 214.238 5042 215H5046C5046 212.769 5044.87 210.963 5043.39 209.599C5041.92 208.248 5039.99 207.199 5038 206.399C5034.01 204.801 5029.25 204 5026 204V208ZM5042 215V215.875H5046V215H5042ZM5042.5 214.551C5038.47 219.122 5032.57 222 5026 222V226C5033.77 226 5040.74 222.593 5045.5 217.198L5042.5 214.551ZM5026 222C5019.43 222 5013.53 219.122 5009.5 214.551L5006.5 217.198C5011.26 222.593 5018.23 226 5026 226V222ZM5019 195C5019 191.132 5022.13 188 5026 188V184C5019.92 184 5015 188.923 5015 195H5019ZM5026 202C5022.13 202 5019 198.868 5019 195H5015C5015 201.077 5019.92 206 5026 206V202ZM5033 195C5033 198.868 5029.87 202 5026 202V206C5032.08 206 5037 201.077 5037 195H5033ZM5026 188C5029.87 188 5033 191.132 5033 195H5037C5037 188.923 5032.08 184 5026 184V188Z" fill="#AAAAAA" mask="url(#path-121-inside-3_3183_21709)"/>
<path d="M3676 176H3731V216H3676V176Z" fill="#F5F5F5"/>
<path d="M3682 182L3725 210" stroke="#AAAAAA" stroke-width="2"/>
<path d="M3725 182L3682 210" stroke="#AAAAAA" stroke-width="2"/>
<path d="M3676 176V174H3674V176H3676ZM3731 176H3733V174H3731V176ZM3731 216V218H3733V216H3731ZM3676 216H3674V218H3676V216ZM3676 178H3731V174H3676V178ZM3729 176V216H3733V176H3729ZM3731 214H3676V218H3731V214ZM3678 216V176H3674V216H3678Z" fill="#AAAAAA"/>
<path d="M4917.15 180C4917.15 177.791 4918.94 176 4921.15 176H5046.5C5048.71 176 5050.5 177.791 5050.5 180V220C5050.5 222.209 5048.71 224 5046.5 224H4921.15C4918.94 224 4917.15 222.209 4917.15 220V180Z" fill="white"/>
<text fill="#333333" xml:space="preserve" style="white-space: pre" font-family="Chalkboard" font-size="16" letter-spacing="0em"><tspan x="4936.33" y="205.578">Signup/log in</tspan></text>
<path d="M4921.15 178H5046.5V174H4921.15V178ZM5048.5 180V220H5052.5V180H5048.5ZM5046.5 222H4921.15V226H5046.5V222ZM4919.15 220V180H4915.15V220H4919.15ZM4921.15 222C4920.05 222 4919.15 221.105 4919.15 220H4915.15C4915.15 223.314 4917.84 226 4921.15 226V222ZM5048.5 220C5048.5 221.105 5047.6 222 5046.5 222V226C5049.81 226 5052.5 223.314 5052.5 220H5048.5ZM5046.5 178C5047.6 178 5048.5 178.895 5048.5 180H5052.5C5052.5 176.686 5049.81 174 5046.5 174V178ZM4921.15 174C4917.84 174 4915.15 176.686 4915.15 180H4919.15C4919.15 178.895 4920.05 178 4921.15 178V174Z" fill="#333333"/>
<rect width="668.075" height="24" transform="translate(3682.35 622)" fill="#F5F5F5"/>
<rect width="668.075" height="24" transform="translate(3682.35 658)" fill="#F5F5F5"/>
<rect width="668.075" height="24" transform="translate(3682.35 694)" fill="#F5F5F5"/>
<rect width="668.075" height="24" transform="translate(3682.35 730)" fill="#F5F5F5"/>
<rect width="668.075" height="24" transform="translate(3682.35 766)" fill="#F5F5F5"/>
<rect width="668.075" height="24" transform="translate(4382.42 622)" fill="#F5F5F5"/>
<rect width="668.075" height="24" transform="translate(4382.42 658)" fill="#F5F5F5"/>
<rect width="668.075" height="24" transform="translate(4382.42 694)" fill="#F5F5F5"/>
<rect width="248.03" height="24" transform="translate(3682.35 976)" fill="#F5F5F5"/>
<rect width="248.03" height="24" transform="translate(3682.35 1012)" fill="#F5F5F5"/>
<rect width="248.03" height="24" transform="translate(3682.35 1048)" fill="#F5F5F5"/>
<rect width="248.03" height="24" transform="translate(3682.35 1084)" fill="#F5F5F5"/>
<rect width="248.03" height="24" transform="translate(3682.35 1120)" fill="#F5F5F5"/>
<rect width="248.03" height="24" transform="translate(3962.38 976)" fill="#F5F5F5"/>
<rect width="248.03" height="24" transform="translate(3962.38 1012)" fill="#F5F5F5"/>
<rect width="248.03" height="24" transform="translate(3962.38 1048)" fill="#F5F5F5"/>
<rect width="248.03" height="24" transform="translate(3962.38 1084)" fill="#F5F5F5"/>
<rect width="248.03" height="24" transform="translate(4242.41 976)" fill="#F5F5F5"/>
<rect width="248.03" height="24" transform="translate(4242.41 1012)" fill="#F5F5F5"/>
<rect width="248.03" height="24" transform="translate(4242.41 1048)" fill="#F5F5F5"/>
<rect width="248.03" height="24" transform="translate(4522.44 976)" fill="#F5F5F5"/>
<rect width="248.03" height="24" transform="translate(4522.44 1012)" fill="#F5F5F5"/>
<rect width="248.03" height="24" transform="translate(4522.44 1048)" fill="#F5F5F5"/>
<rect width="248.03" height="24" transform="translate(4522.44 1084)" fill="#F5F5F5"/>
<rect width="248.03" height="24" transform="translate(4802.47 976)" fill="#F5F5F5"/>
<rect width="248.03" height="24" transform="translate(4802.47 1012)" fill="#F5F5F5"/>
<rect width="248.03" height="24" transform="translate(4802.47 1048)" fill="#F5F5F5"/>
<rect width="248.03" height="24" transform="translate(4802.47 1084)" fill="#F5F5F5"/>
<rect width="248.03" height="24" transform="translate(4802.47 1120)" fill="#F5F5F5"/>
<path d="M3612 240H5124V590H3612V240Z" fill="#F5F5F5"/>
<path d="M3618 246L5118 584" stroke="#AAAAAA" stroke-width="2"/>
<path d="M5118 246L3618 584" stroke="#AAAAAA" stroke-width="2"/>
<path d="M3612 240V238H3610V240H3612ZM5124 240H5126V238H5124V240ZM5124 590V592H5126V590H5124ZM3612 590H3610V592H3612V590ZM3612 242H5124V238H3612V242ZM5122 240V590H5126V240H5122ZM5124 588H3612V592H5124V588ZM3614 590V240H3610V590H3614Z" fill="#AAAAAA"/>
<path d="M3682.35 837H3930.38V944H3682.35V837Z" fill="#F5F5F5"/>
<path d="M3688.35 843L3924.35 938" stroke="#AAAAAA" stroke-width="2"/>
<path d="M3924.35 843L3688.35 938" stroke="#AAAAAA" stroke-width="2"/>
<path d="M3682.35 837V835H3680.35V837H3682.35ZM3930.38 837H3932.38V835H3930.38V837ZM3930.38 944V946H3932.38V944H3930.38ZM3682.35 944H3680.35V946H3682.35V944ZM3682.35 839H3930.38V835H3682.35V839ZM3928.38 837V944H3932.38V837H3928.38ZM3930.38 942H3682.35V946H3930.38V942ZM3684.35 944V837H3680.35V944H3684.35Z" fill="#AAAAAA"/>
<path d="M3962.38 837H4210.41V944H3962.38V837Z" fill="#F5F5F5"/>
<path d="M3968.38 843L4204.38 938" stroke="#AAAAAA" stroke-width="2"/>
<path d="M4204.38 843L3968.38 938" stroke="#AAAAAA" stroke-width="2"/>
<path d="M3962.38 837V835H3960.38V837H3962.38ZM4210.41 837H4212.41V835H4210.41V837ZM4210.41 944V946H4212.41V944H4210.41ZM3962.38 944H3960.38V946H3962.38V944ZM3962.38 839H4210.41V835H3962.38V839ZM4208.41 837V944H4212.41V837H4208.41ZM4210.41 942H3962.38V946H4210.41V942ZM3964.38 944V837H3960.38V944H3964.38Z" fill="#AAAAAA"/>
<path d="M4242.41 837H4490.44V944H4242.41V837Z" fill="#F5F5F5"/>
<path d="M4248.41 843L4484.41 938" stroke="#AAAAAA" stroke-width="2"/>
<path d="M4484.41 843L4248.41 938" stroke="#AAAAAA" stroke-width="2"/>
<path d="M4242.41 837V835H4240.41V837H4242.41ZM4490.44 837H4492.44V835H4490.44V837ZM4490.44 944V946H4492.44V944H4490.44ZM4242.41 944H4240.41V946H4242.41V944ZM4242.41 839H4490.44V835H4242.41V839ZM4488.44 837V944H4492.44V837H4488.44ZM4490.44 942H4242.41V946H4490.44V942ZM4244.41 944V837H4240.41V944H4244.41Z" fill="#AAAAAA"/>
<path d="M4522.44 837H4770.47V944H4522.44V837Z" fill="#F5F5F5"/>
<path d="M4528.44 843L4764.44 938" stroke="#AAAAAA" stroke-width="2"/>
<path d="M4764.44 843L4528.44 938" stroke="#AAAAAA" stroke-width="2"/>
<path d="M4522.44 837V835H4520.44V837H4522.44ZM4770.47 837H4772.47V835H4770.47V837ZM4770.47 944V946H4772.47V944H4770.47ZM4522.44 944H4520.44V946H4522.44V944ZM4522.44 839H4770.47V835H4522.44V839ZM4768.47 837V944H4772.47V837H4768.47ZM4770.47 942H4522.44V946H4770.47V942ZM4524.44 944V837H4520.44V944H4524.44Z" fill="#AAAAAA"/>
<path d="M4802.47 837H5050.5V944H4802.47V837Z" fill="#F5F5F5"/>
<path d="M4808.47 843L5044.47 938" stroke="#AAAAAA" stroke-width="2"/>
<path d="M5044.47 843L4808.47 938" stroke="#AAAAAA" stroke-width="2"/>
<path d="M4802.47 837V835H4800.47V837H4802.47ZM5050.5 837H5052.5V835H5050.5V837ZM5050.5 944V946H5052.5V944H5050.5ZM4802.47 944H4800.47V946H4802.47V944ZM4802.47 839H5050.5V835H4802.47V839ZM5048.5 837V944H5052.5V837H5048.5ZM5050.5 942H4802.47V946H5050.5V942ZM4804.47 944V837H4800.47V944H4804.47Z" fill="#AAAAAA"/>
<rect x="3612" y="160" width="1512" height="1024" fill="#D9D9D9" fill-opacity="0.7"/>
<rect x="4107" y="423" width="518" height="242" rx="32" fill="#F5F5F5"/>
<text fill="black" xml:space="preserve" style="white-space: pre" font-family="Chalkboard" font-size="24" letter-spacing="0em"><tspan x="4257" y="476.367">Please add your role</tspan></text>
<path d="M4142 589C4142 586.791 4143.79 585 4146 585H4349C4351.21 585 4353 586.791 4353 589V629C4353 631.209 4351.21 633 4349 633H4146C4143.79 633 4142 631.209 4142 629V589Z" fill="white"/>
<text fill="#333333" xml:space="preserve" style="white-space: pre" font-family="Chalkboard" font-size="16" letter-spacing="0em"><tspan x="4232.5" y="614.578">Skip</tspan></text>
<path d="M4146 587H4349V583H4146V587ZM4351 589V629H4355V589H4351ZM4349 631H4146V635H4349V631ZM4144 629V589H4140V629H4144ZM4146 631C4144.9 631 4144 630.105 4144 629H4140C4140 632.314 4142.69 635 4146 635V631ZM4351 629C4351 630.105 4350.1 631 4349 631V635C4352.31 635 4355 632.314 4355 629H4351ZM4349 587C4350.1 587 4351 587.895 4351 589H4355C4355 585.686 4352.31 583 4349 583V587ZM4146 583C4142.69 583 4140 585.686 4140 589H4144C4144 587.895 4144.9 587 4146 587V583Z" fill="#333333"/>
<path d="M4385 589C4385 586.791 4386.79 585 4389 585H4592C4594.21 585 4596 586.791 4596 589V629C4596 631.209 4594.21 633 4592 633H4389C4386.79 633 4385 631.209 4385 629V589Z" fill="#333333"/>
<text fill="white" xml:space="preserve" style="white-space: pre" font-family="Chalkboard" font-size="16" letter-spacing="0em"><tspan x="4459" y="614.578">Continue</tspan></text>
<text fill="black" xml:space="preserve" style="white-space: pre" font-family="Chalkboard" font-size="18" letter-spacing="0em"><tspan x="4142" y="539.275">I&#x2019;m a</tspan></text>
<mask id="path-163-inside-4_3183_21709" fill="white">
<path d="M4192 513H4368V553H4192V513Z"/>
</mask>
<path d="M4192 513H4368V553H4192V513Z" fill="white"/>
<path d="M4342.5 530.75L4347 535.25L4351.5 530.75" stroke="#898F9B" stroke-width="2" stroke-linecap="round" stroke-linejoin="round"/>
<text fill="#7D7D7D" xml:space="preserve" style="white-space: pre" font-family="Chalkboard" font-size="16" letter-spacing="0em"><tspan x="4204" y="538.578">Choose your role</tspan></text>
<path d="M4368 551H4192V555H4368V551Z" fill="#AAAAAA" mask="url(#path-163-inside-4_3183_21709)"/>
</g>
<rect width="266" height="83" transform="translate(5292 77)" fill="#5384ED"/>
<text fill="white" xml:space="preserve" style="white-space: pre" font-family="Inter" font-size="42" font-weight="500" letter-spacing="0em"><tspan x="5324" y="133.773">Signed up</tspan></text>
<g clip-path="url(#clip4_3183_21709)">
<rect width="1512" height="982" transform="translate(5292 160)" fill="white"/>
<g filter="url(#filter2_d_3183_21709)">
<rect x="5292" y="160" width="1512" height="80" fill="white"/>
</g>
<circle cx="6706" cy="200" r="23" fill="#F5F5F5" stroke="#AAAAAA" stroke-width="2"/>
<mask id="path-170-inside-5_3183_21709" fill="white">
<path fill-rule="evenodd" clip-rule="evenodd" d="M6688 215.875V215C6688 209.015 6699.99 206 6706 206C6712.01 206 6724 209.015 6724 215V215.875C6719.6 220.857 6713.17 224 6706 224C6698.83 224 6692.4 220.857 6688 215.875ZM6706 186C6701.03 186 6697 190.028 6697 195C6697 199.972 6701.03 204 6706 204C6710.97 204 6715 199.972 6715 195C6715 190.028 6710.97 186 6706 186Z"/>
</mask>
<path fill-rule="evenodd" clip-rule="evenodd" d="M6688 215.875V215C6688 209.015 6699.99 206 6706 206C6712.01 206 6724 209.015 6724 215V215.875C6719.6 220.857 6713.17 224 6706 224C6698.83 224 6692.4 220.857 6688 215.875ZM6706 186C6701.03 186 6697 190.028 6697 195C6697 199.972 6701.03 204 6706 204C6710.97 204 6715 199.972 6715 195C6715 190.028 6710.97 186 6706 186Z" fill="#F5F5F5"/>
<path d="M6688 215.875H6686V216.631L6686.5 217.198L6688 215.875ZM6724 215.875L6725.5 217.198L6726 216.631V215.875H6724ZM6690 215.875V215H6686V215.875H6690ZM6690 215C6690 214.238 6690.37 213.423 6691.32 212.539C6692.3 211.641 6693.74 210.814 6695.49 210.112C6699 208.707 6703.25 208 6706 208V204C6702.75 204 6697.99 204.801 6694 206.399C6692.01 207.199 6690.08 208.248 6688.61 209.599C6687.13 210.963 6686 212.769 6686 215H6690ZM6706 208C6708.75 208 6713 208.707 6716.51 210.112C6718.26 210.814 6719.7 211.641 6720.68 212.539C6721.63 213.423 6722 214.238 6722 215H6726C6726 212.769 6724.87 210.963 6723.39 209.599C6721.92 208.248 6719.99 207.199 6718 206.399C6714.01 204.801 6709.25 204 6706 204V208ZM6722 215V215.875H6726V215H6722ZM6722.5 214.551C6718.47 219.122 6712.57 222 6706 222V226C6713.77 226 6720.74 222.593 6725.5 217.198L6722.5 214.551ZM6706 222C6699.43 222 6693.53 219.122 6689.5 214.551L6686.5 217.198C6691.26 222.593 6698.23 226 6706 226V222ZM6699 195C6699 191.132 6702.13 188 6706 188V184C6699.92 184 6695 188.923 6695 195H6699ZM6706 202C6702.13 202 6699 198.868 6699 195H6695C6695 201.077 6699.92 206 6706 206V202ZM6713 195C6713 198.868 6709.87 202 6706 202V206C6712.08 206 6717 201.077 6717 195H6713ZM6706 188C6709.87 188 6713 191.132 6713 195H6717C6717 188.923 6712.08 184 6706 184V188Z" fill="#AAAAAA" mask="url(#path-170-inside-5_3183_21709)"/>
<path d="M5356 176H5411V216H5356V176Z" fill="#F5F5F5"/>
<path d="M5362 182L5405 210" stroke="#AAAAAA" stroke-width="2"/>
<path d="M5405 182L5362 210" stroke="#AAAAAA" stroke-width="2"/>
<path d="M5356 176V174H5354V176H5356ZM5411 176H5413V174H5411V176ZM5411 216V218H5413V216H5411ZM5356 216H5354V218H5356V216ZM5356 178H5411V174H5356V178ZM5409 176V216H5413V176H5409ZM5411 214H5356V218H5411V214ZM5358 216V176H5354V216H5358Z" fill="#AAAAAA"/>
<path d="M5758 447H6338V739H5758V447Z" fill="#F5F5F5"/>
<path d="M5764 453L6332 733" stroke="#AAAAAA" stroke-width="2"/>
<path d="M6332 453L5764 733" stroke="#AAAAAA" stroke-width="2"/>
<path d="M5758 447V445H5756V447H5758ZM6338 447H6340V445H6338V447ZM6338 739V741H6340V739H6338ZM5758 739H5756V741H5758V739ZM5758 449H6338V445H5758V449ZM6336 447V739H6340V447H6336ZM6338 737H5758V741H6338V737ZM5760 739V447H5756V739H5760Z" fill="#AAAAAA"/>
<text fill="black" xml:space="preserve" style="white-space: pre" font-family="Chalkboard" font-size="32" letter-spacing="0em"><tspan x="5970" y="367.156">APPOINTA</tspan></text>
<text fill="black" xml:space="preserve" style="white-space: pre" font-family="Chalkboard" font-size="32" letter-spacing="0em"><tspan x="5938" y="819.156">You are all set!</tspan></text>
<text fill="black" xml:space="preserve" style="white-space: pre" font-family="Chalkboard" font-size="18" letter-spacing="0em"><tspan x="5889" y="854.275">Your can now login or go to APPOINTA</tspan></text>
<path d="M5854 898C5854 895.791 5855.79 894 5858 894H6239C6241.21 894 6243 895.791 6243 898V938C6243 940.209 6241.21 942 6239 942H5858C5855.79 942 5854 940.209 5854 938V898Z" fill="#333333"/>
<text fill="white" xml:space="preserve" style="white-space: pre" font-family="Chalkboard" font-size="16" letter-spacing="0em"><tspan x="6026.5" y="923.578">Log in</tspan></text>
<path d="M5854 958C5854 955.791 5855.79 954 5858 954H6239C6241.21 954 6243 955.791 6243 958V998C6243 1000.21 6241.21 1002 6239 1002H5858C5855.79 1002 5854 1000.21 5854 998V958Z" fill="white"/>
<text fill="#333333" xml:space="preserve" style="white-space: pre" font-family="Chalkboard" font-size="16" letter-spacing="0em"><tspan x="5987.5" y="983.578">Go to APPOINTA</tspan></text>
<path d="M5858 956H6239V952H5858V956ZM6241 958V998H6245V958H6241ZM6239 1000H5858V1004H6239V1000ZM5856 998V958H5852V998H5856ZM5858 1000C5856.9 1000 5856 999.105 5856 998H5852C5852 1001.31 5854.69 1004 5858 1004V1000ZM6241 998C6241 999.105 6240.1 1000 6239 1000V1004C6242.31 1004 6245 1001.31 6245 998H6241ZM6239 956C6240.1 956 6241 956.895 6241 958H6245C6245 954.686 6242.31 952 6239 952V956ZM5858 952C5854.69 952 5852 954.686 5852 958H5856C5856 956.895 5856.9 956 5858 956V952Z" fill="#333333"/>
</g>
<rect width="253" height="83" transform="translate(252 1289)" fill="#5384ED"/>
<text fill="white" xml:space="preserve" style="white-space: pre" font-family="Inter" font-size="42" font-weight="500" letter-spacing="0em"><tspan x="284" y="1345.77">Open link</tspan></text>
<g clip-path="url(#clip5_3183_21709)">
<rect width="1512" height="982" transform="translate(252 1372)" fill="white"/>
<g filter="url(#filter3_d_3183_21709)">
<rect x="252" y="1372" width="1512" height="80" fill="white"/>
</g>
<rect x="728" y="1793" width="560" height="140" rx="32" fill="#F5F5F5"/>
<text fill="black" xml:space="preserve" style="white-space: pre" font-family="Chalkboard" font-size="24" letter-spacing="0em"><tspan x="957" y="1846.37">Open link</tspan></text>
<text fill="#7D7D7D" xml:space="preserve" style="white-space: pre" font-family="Chalkboard" font-size="16" letter-spacing="0em" text-decoration="underline"><tspan x="760" y="1897.58">https://invite.com/@orumenoj/could-this-be-the-start-6d1fe8ee4e35</tspan></text>
</g>
<rect width="289" height="83" transform="translate(1932 1289)" fill="#5384ED"/>
<text fill="white" xml:space="preserve" style="white-space: pre" font-family="Inter" font-size="42" font-weight="500" letter-spacing="0em"><tspan x="1964" y="1345.77">Enter email</tspan></text>
<g clip-path="url(#clip6_3183_21709)">
<rect width="1512" height="982" transform="translate(1932 1372)" fill="white"/>
<g filter="url(#filter4_d_3183_21709)">
<rect x="1932" y="1372" width="1512" height="80" fill="white"/>
</g>
<rect x="2462" y="1631" width="453" height="304" rx="32" fill="#F5F5F5"/>
<text fill="black" xml:space="preserve" style="white-space: pre" font-family="Chalkboard" font-size="24" letter-spacing="0em"><tspan x="2648" y="1684.37">Sign up</tspan></text>
<text fill="black" xml:space="preserve" style="white-space: pre" font-family="Chalkboard" font-size="18" letter-spacing="0em"><tspan x="2494" y="1738.28">Sign up with your eCommerce email address</tspan></text>
<path d="M2494 1779C2494 1776.79 2495.79 1775 2498 1775H2724C2726.21 1775 2728 1776.79 2728 1779V1819C2728 1821.21 2726.21 1823 2724 1823H2498C2495.79 1823 2494 1821.21 2494 1819V1779Z" fill="white"/>
<text fill="#767676" xml:space="preserve" style="white-space: pre" font-family="Chalkboard" font-size="14" letter-spacing="0em"><tspan x="2494" y="1767.88">Email address</tspan></text>
<text opacity="0.8" fill="#7D7D7D" xml:space="preserve" style="white-space: pre" font-family="Chalkboard" font-size="16" letter-spacing="0em"><tspan x="2509" y="1803.98">Enter email</tspan></text>
<path d="M2498 1777H2724V1773H2498V1777ZM2726 1779V1819H2730V1779H2726ZM2724 1821H2498V1825H2724V1821ZM2496 1819V1779H2492V1819H2496ZM2498 1821C2496.9 1821 2496 1820.1 2496 1819H2492C2492 1822.31 2494.69 1825 2498 1825V1821ZM2726 1819C2726 1820.1 2725.1 1821 2724 1821V1825C2727.31 1825 2730 1822.31 2730 1819H2726ZM2724 1777C2725.1 1777 2726 1777.9 2726 1779H2730C2730 1775.69 2727.31 1773 2724 1773V1777ZM2498 1773C2494.69 1773 2492 1775.69 2492 1779H2496C2496 1777.9 2496.9 1777 2498 1777V1773Z" fill="#AAAAAA"/>
<path d="M2728 1779C2728 1776.79 2729.79 1775 2732 1775H2879C2881.21 1775 2883 1776.79 2883 1779V1819C2883 1821.21 2881.21 1823 2879 1823H2732C2729.79 1823 2728 1821.21 2728 1819V1779Z" fill="#F4F4F4"/>
<text opacity="0.8" fill="#333333" xml:space="preserve" style="white-space: pre" font-family="Chalkboard" font-size="16" letter-spacing="0em"><tspan x="2743" y="1803.98">@ecommerce.com</tspan></text>
<g clip-path="url(#clip7_3183_21709)">
<rect x="2745" y="1790" width="0.01" height="19" fill="#171717"/>
</g>
<path d="M2732 1777H2879V1773H2732V1777ZM2881 1779V1819H2885V1779H2881ZM2879 1821H2732V1825H2879V1821ZM2730 1819V1779H2726V1819H2730ZM2732 1821C2730.9 1821 2730 1820.1 2730 1819H2726C2726 1822.31 2728.69 1825 2732 1825V1821ZM2881 1819C2881 1820.1 2880.1 1821 2879 1821V1825C2882.31 1825 2885 1822.31 2885 1819H2881ZM2879 1777C2880.1 1777 2881 1777.9 2881 1779H2885C2885 1775.69 2882.31 1773 2879 1773V1777ZM2732 1773C2728.69 1773 2726 1775.69 2726 1779H2730C2730 1777.9 2730.9 1777 2732 1777V1773Z" fill="#DDDDDD"/>
<path d="M2494 1859C2494 1856.79 2495.79 1855 2498 1855H2879C2881.21 1855 2883 1856.79 2883 1859V1899C2883 1901.21 2881.21 1903 2879 1903H2498C2495.79 1903 2494 1901.21 2494 1899V1859Z" fill="#333333"/>
<text fill="white" xml:space="preserve" style="white-space: pre" font-family="Chalkboard" font-size="16" letter-spacing="0em"><tspan x="2645.5" y="1884.58">Sign up</tspan></text>
<path d="M2716.5 1885L2722.5 1879L2716.5 1873" stroke="white" stroke-width="2" stroke-linecap="round" stroke-linejoin="round"/>
</g>
<path d="M1226.33 669C1226.33 679.309 1234.69 687.667 1245 687.667C1255.31 687.667 1263.67 679.309 1263.67 669C1263.67 658.691 1255.31 650.333 1245 650.333C1234.69 650.333 1226.33 658.691 1226.33 669ZM1925.47 671.475C1926.84 670.108 1926.84 667.892 1925.47 666.525L1903.2 644.251C1901.83 642.884 1899.62 642.884 1898.25 644.251C1896.88 645.618 1896.88 647.834 1898.25 649.201L1918.05 669L1898.25 688.799C1896.88 690.166 1896.88 692.382 1898.25 693.749C1899.62 695.116 1901.83 695.116 1903.2 693.749L1925.47 671.475ZM1245 672.5H1435.01V665.5H1245V672.5ZM1435.01 672.5H1923V665.5H1435.01V672.5Z" fill="#5384ED"/>
<circle opacity="0.3" cx="1245" cy="669" r="43" fill="#5384ED"/>
<path d="M1226.33 1894C1226.33 1904.31 1234.69 1912.67 1245 1912.67C1255.31 1912.67 1263.67 1904.31 1263.67 1894C1263.67 1883.69 1255.31 1875.33 1245 1875.33C1234.69 1875.33 1226.33 1883.69 1226.33 1894ZM1925.47 1896.47C1926.84 1895.11 1926.84 1892.89 1925.47 1891.53L1903.2 1869.25C1901.83 1867.88 1899.62 1867.88 1898.25 1869.25C1896.88 1870.62 1896.88 1872.83 1898.25 1874.2L1918.05 1894L1898.25 1913.8C1896.88 1915.17 1896.88 1917.38 1898.25 1918.75C1899.62 1920.12 1901.83 1920.12 1903.2 1918.75L1925.47 1896.47ZM1245 1897.5H1435.01V1890.5H1245V1897.5ZM1435.01 1897.5H1923V1890.5H1435.01V1897.5Z" fill="#5384ED"/>
<circle opacity="0.3" cx="1245" cy="1894" r="43" fill="#5384ED"/>
<path d="M2831.33 787C2831.33 797.309 2839.69 805.667 2850 805.667C2860.31 805.667 2868.67 797.309 2868.67 787C2868.67 776.691 2860.31 768.333 2850 768.333C2839.69 768.333 2831.33 776.691 2831.33 787ZM3614.47 789.475C3615.84 788.108 3615.84 785.892 3614.47 784.525L3592.2 762.251C3590.83 760.884 3588.62 760.884 3587.25 762.251C3585.88 763.618 3585.88 765.834 3587.25 767.201L3607.05 787L3587.25 806.799C3585.88 808.166 3585.88 810.382 3587.25 811.749C3588.62 813.116 3590.83 813.116 3592.2 811.749L3614.47 789.475ZM2850 790.5H3063.55V783.5H2850V790.5ZM3063.55 790.5H3612V783.5H3063.55V790.5Z" fill="#5384ED"/>
<circle opacity="0.3" cx="2850" cy="787" r="43" fill="#5384ED"/>
<path d="M4511.33 608C4511.33 618.309 4519.69 626.667 4530 626.667C4540.31 626.667 4548.67 618.309 4548.67 608C4548.67 597.691 4540.31 589.333 4530 589.333C4519.69 589.333 4511.33 597.691 4511.33 608ZM5294.47 610.475C5295.84 609.108 5295.84 606.892 5294.47 605.525L5272.2 583.251C5270.83 581.884 5268.62 581.884 5267.25 583.251C5265.88 584.618 5265.88 586.834 5267.25 588.201L5287.05 608L5267.25 627.799C5265.88 629.166 5265.88 631.382 5267.25 632.749C5268.62 634.116 5270.83 634.116 5272.2 632.749L5294.47 610.475ZM4530 611.5H4743.55V604.5H4530V611.5ZM4743.55 611.5H5292V604.5H4743.55V611.5Z" fill="#5384ED"/>
<circle opacity="0.3" cx="4530" cy="608" r="43" fill="#5384ED"/>
<path d="M2796.9 1877C2796.9 1887.31 2805.26 1895.67 2815.57 1895.67C2825.88 1895.67 2834.23 1887.31 2834.23 1877C2834.23 1866.69 2825.88 1858.33 2815.57 1858.33C2805.26 1858.33 2796.9 1866.69 2796.9 1877ZM1087.47 1166.53C1086.11 1165.16 1083.89 1165.16 1082.53 1166.53L1060.25 1188.8C1058.88 1190.17 1058.88 1192.38 1060.25 1193.75C1061.62 1195.12 1063.83 1195.12 1065.2 1193.75L1085 1173.95L1104.8 1193.75C1106.17 1195.12 1108.38 1195.12 1109.75 1193.75C1111.12 1192.38 1111.12 1190.17 1109.75 1188.8L1087.47 1166.53ZM2815.57 1880.5H2959V1873.5H2815.57V1880.5ZM3082.5 1757V1435.43H3075.5V1757H3082.5ZM2959 1311.93H1205V1318.93H2959V1311.93ZM1088.5 1195.43V1169H1081.5V1195.43H1088.5ZM1205 1311.93C1140.66 1311.93 1088.5 1259.77 1088.5 1195.43H1081.5C1081.5 1263.63 1136.79 1318.93 1205 1318.93V1311.93ZM3082.5 1435.43C3082.5 1367.22 3027.21 1311.93 2959 1311.93V1318.93C3023.34 1318.93 3075.5 1371.09 3075.5 1435.43H3082.5ZM2959 1880.5C3027.21 1880.5 3082.5 1825.21 3082.5 1757H3075.5C3075.5 1821.34 3023.34 1873.5 2959 1873.5V1880.5Z" fill="#5384ED"/>
<circle opacity="0.3" cx="2815" cy="1878" r="43" fill="#5384ED"/>
<defs>
<filter id="filter0_d_3183_21709" x="1928" y="160" width="1520" height="88" filterUnits="userSpaceOnUse" color-interpolation-filters="sRGB">
<feFlood flood-opacity="0" result="BackgroundImageFix"/>
<feColorMatrix in="SourceAlpha" type="matrix" values="0 0 0 0 0 0 0 0 0 0 0 0 0 0 0 0 0 0 127 0" result="hardAlpha"/>
<feOffset dy="4"/>
<feGaussianBlur stdDeviation="2"/>
<feComposite in2="hardAlpha" operator="out"/>
<feColorMatrix type="matrix" values="0 0 0 0 0 0 0 0 0 0 0 0 0 0 0 0 0 0 0.1 0"/>
<feBlend mode="normal" in2="BackgroundImageFix" result="effect1_dropShadow_3183_21709"/>
<feBlend mode="normal" in="SourceGraphic" in2="effect1_dropShadow_3183_21709" result="shape"/>
</filter>
<filter id="filter1_d_3183_21709" x="3608" y="160" width="1520" height="88" filterUnits="userSpaceOnUse" color-interpolation-filters="sRGB">
<feFlood flood-opacity="0" result="BackgroundImageFix"/>
<feColorMatrix in="SourceAlpha" type="matrix" values="0 0 0 0 0 0 0 0 0 0 0 0 0 0 0 0 0 0 127 0" result="hardAlpha"/>
<feOffset dy="4"/>
<feGaussianBlur stdDeviation="2"/>
<feComposite in2="hardAlpha" operator="out"/>
<feColorMatrix type="matrix" values="0 0 0 0 0 0 0 0 0 0 0 0 0 0 0 0 0 0 0.1 0"/>
<feBlend mode="normal" in2="BackgroundImageFix" result="effect1_dropShadow_3183_21709"/>
<feBlend mode="normal" in="SourceGraphic" in2="effect1_dropShadow_3183_21709" result="shape"/>
</filter>
<filter id="filter2_d_3183_21709" x="5288" y="160" width="1520" height="88" filterUnits="userSpaceOnUse" color-interpolation-filters="sRGB">
<feFlood flood-opacity="0" result="BackgroundImageFix"/>
<feColorMatrix in="SourceAlpha" type="matrix" values="0 0 0 0 0 0 0 0 0 0 0 0 0 0 0 0 0 0 127 0" result="hardAlpha"/>
<feOffset dy="4"/>
<feGaussianBlur stdDeviation="2"/>
<feComposite in2="hardAlpha" operator="out"/>
<feColorMatrix type="matrix" values="0 0 0 0 0 0 0 0 0 0 0 0 0 0 0 0 0 0 0.1 0"/>
<feBlend mode="normal" in2="BackgroundImageFix" result="effect1_dropShadow_3183_21709"/>
<feBlend mode="normal" in="SourceGraphic" in2="effect1_dropShadow_3183_21709" result="shape"/>
</filter>
<filter id="filter3_d_3183_21709" x="248" y="1372" width="1520" height="88" filterUnits="userSpaceOnUse" color-interpolation-filters="sRGB">
<feFlood flood-opacity="0" result="BackgroundImageFix"/>
<feColorMatrix in="SourceAlpha" type="matrix" values="0 0 0 0 0 0 0 0 0 0 0 0 0 0 0 0 0 0 127 0" result="hardAlpha"/>
<feOffset dy="4"/>
<feGaussianBlur stdDeviation="2"/>
<feComposite in2="hardAlpha" operator="out"/>
<feColorMatrix type="matrix" values="0 0 0 0 0 0 0 0 0 0 0 0 0 0 0 0 0 0 0.1 0"/>
<feBlend mode="normal" in2="BackgroundImageFix" result="effect1_dropShadow_3183_21709"/>
<feBlend mode="normal" in="SourceGraphic" in2="effect1_dropShadow_3183_21709" result="shape"/>
</filter>
<filter id="filter4_d_3183_21709" x="1928" y="1372" width="1520" height="88" filterUnits="userSpaceOnUse" color-interpolation-filters="sRGB">
<feFlood flood-opacity="0" result="BackgroundImageFix"/>
<feColorMatrix in="SourceAlpha" type="matrix" values="0 0 0 0 0 0 0 0 0 0 0 0 0 0 0 0 0 0 127 0" result="hardAlpha"/>
<feOffset dy="4"/>
<feGaussianBlur stdDeviation="2"/>
<feComposite in2="hardAlpha" operator="out"/>
<feColorMatrix type="matrix" values="0 0 0 0 0 0 0 0 0 0 0 0 0 0 0 0 0 0 0.1 0"/>
<feBlend mode="normal" in2="BackgroundImageFix" result="effect1_dropShadow_3183_21709"/>
<feBlend mode="normal" in="SourceGraphic" in2="effect1_dropShadow_3183_21709" result="shape"/>
</filter>
<clipPath id="clip0_3183_21709">
<rect width="1512" height="982" fill="white" transform="translate(252 160)"/>
</clipPath>
<clipPath id="clip1_3183_21709">
<rect width="128" height="40" fill="white" transform="translate(414 974)"/>
</clipPath>
<clipPath id="clip2_3183_21709">
<rect width="1512" height="982" fill="white" transform="translate(1932 160)"/>
</clipPath>
<clipPath id="clip3_3183_21709">
<rect width="1512" height="982" fill="white" transform="translate(3612 160)"/>
</clipPath>
<clipPath id="clip4_3183_21709">
<rect width="1512" height="982" fill="white" transform="translate(5292 160)"/>
</clipPath>
<clipPath id="clip5_3183_21709">
<rect width="1512" height="982" fill="white" transform="translate(252 1372)"/>
</clipPath>
<clipPath id="clip6_3183_21709">
<rect width="1512" height="982" fill="white" transform="translate(1932 1372)"/>
</clipPath>
<clipPath id="clip7_3183_21709">
<rect width="0.01" height="19" fill="white" transform="matrix(-1 0 0 1 2745.01 1790)"/>
</clipPath>
</defs>
</svg>
