<svg width="6509" height="1347" viewBox="0 0 6509 1347" fill="none" xmlns="http://www.w3.org/2000/svg">
<rect width="416" height="83" transform="translate(123 167)" fill="#5384ED"/>
<text fill="white" xml:space="preserve" style="white-space: pre" font-family="Inter" font-size="42" font-weight="500" letter-spacing="0em"><tspan x="155" y="223.773">Interview created</tspan></text>
<g clip-path="url(#clip0_3003_17253)">
<rect width="1440" height="1024" transform="translate(123 250)" fill="white"/>
<g filter="url(#filter0_d_3003_17253)">
<rect x="123" y="250" width="1440" height="80" fill="white"/>
</g>
<g clip-path="url(#clip1_3003_17253)">
<path d="M1491.52 290C1491.52 302.749 1481.69 313 1469.67 313C1457.64 313 1447.81 302.749 1447.81 290C1447.81 277.251 1457.64 267 1469.67 267C1481.69 267 1491.52 277.251 1491.52 290Z" fill="#F5F5F5" stroke="#AAAAAA" stroke-width="2"/>
<mask id="path-4-inside-1_3003_17253" fill="white">
<path fill-rule="evenodd" clip-rule="evenodd" d="M1452.52 305.875V305C1452.52 299.015 1463.95 296 1469.67 296C1475.39 296 1486.81 299.015 1486.81 305V305.875C1482.62 310.857 1476.49 314 1469.67 314C1462.84 314 1456.71 310.857 1452.52 305.875ZM1469.67 276C1464.93 276 1461.1 280.028 1461.1 285C1461.1 289.972 1464.93 294 1469.67 294C1474.4 294 1478.24 289.972 1478.24 285C1478.24 280.028 1474.4 276 1469.67 276Z"/>
</mask>
<path fill-rule="evenodd" clip-rule="evenodd" d="M1452.52 305.875V305C1452.52 299.015 1463.95 296 1469.67 296C1475.39 296 1486.81 299.015 1486.81 305V305.875C1482.62 310.857 1476.49 314 1469.67 314C1462.84 314 1456.71 310.857 1452.52 305.875ZM1469.67 276C1464.93 276 1461.1 280.028 1461.1 285C1461.1 289.972 1464.93 294 1469.67 294C1474.4 294 1478.24 289.972 1478.24 285C1478.24 280.028 1474.4 276 1469.67 276Z" fill="#F5F5F5"/>
<path d="M1452.52 305.875H1450.52V306.604L1450.99 307.162L1452.52 305.875ZM1486.81 305.875L1488.34 307.162L1488.81 306.604V305.875H1486.81ZM1454.52 305.875V305H1450.52V305.875H1454.52ZM1454.52 305C1454.52 304.202 1454.89 303.378 1455.79 302.505C1456.71 301.616 1458.07 300.796 1459.73 300.099C1463.05 298.702 1467.07 298 1469.67 298V294C1466.54 294 1461.99 294.806 1458.17 296.412C1456.26 297.217 1454.41 298.273 1453.01 299.633C1451.59 301.009 1450.52 302.806 1450.52 305H1454.52ZM1469.67 298C1472.26 298 1476.29 298.702 1479.61 300.099C1481.27 300.796 1482.63 301.616 1483.54 302.505C1484.44 303.378 1484.81 304.202 1484.81 305H1488.81C1488.81 302.806 1487.75 301.009 1486.33 299.633C1484.92 298.273 1483.07 297.217 1481.16 296.412C1477.34 294.806 1472.79 294 1469.67 294V298ZM1484.81 305V305.875H1488.81V305H1484.81ZM1485.28 304.588C1481.44 309.153 1475.86 312 1469.67 312V316C1477.13 316 1483.8 312.562 1488.34 307.162L1485.28 304.588ZM1469.67 312C1463.47 312 1457.89 309.153 1454.05 304.588L1450.99 307.162C1455.53 312.562 1462.21 316 1469.67 316V312ZM1463.1 285C1463.1 281.039 1466.13 278 1469.67 278V274C1463.74 274 1459.1 279.016 1459.1 285H1463.1ZM1469.67 292C1466.13 292 1463.1 288.961 1463.1 285H1459.1C1459.1 290.984 1463.74 296 1469.67 296V292ZM1476.24 285C1476.24 288.961 1473.21 292 1469.67 292V296C1475.6 296 1480.24 290.984 1480.24 285H1476.24ZM1469.67 278C1473.21 278 1476.24 281.039 1476.24 285H1480.24C1480.24 279.016 1475.6 274 1469.67 274V278Z" fill="#AAAAAA" mask="url(#path-4-inside-1_3003_17253)"/>
</g>
<path d="M183.952 266H236.333V306H183.952V266Z" fill="#F5F5F5"/>
<path d="M189.952 272L229.952 300" stroke="#AAAAAA" stroke-width="2"/>
<path d="M229.952 272L189.952 300" stroke="#AAAAAA" stroke-width="2"/>
<path d="M183.952 266V264H181.952V266H183.952ZM236.333 266H238.333V264H236.333V266ZM236.333 306V308H238.333V306H236.333ZM183.952 306H181.952V308H183.952V306ZM183.952 268H236.333V264H183.952V268ZM234.333 266V306H238.333V266H234.333ZM236.333 304H183.952V308H236.333V304ZM185.952 306V266H181.952V306H185.952Z" fill="#AAAAAA"/>
<path d="M695 389C695 386.791 696.791 385 699 385H1031C1033.21 385 1035 386.791 1035 389V437C1035 439.209 1033.21 441 1031 441H699C696.791 441 695 439.209 695 437V389Z" fill="#F5F5F5"/>
<path d="M733.001 412.08V413C733 415.156 732.301 417.255 731.01 418.982C729.719 420.709 727.904 421.972 725.836 422.584C723.768 423.195 721.558 423.122 719.535 422.374C717.513 421.627 715.786 420.246 714.612 418.437C713.438 416.628 712.881 414.488 713.023 412.336C713.165 410.184 713.998 408.136 715.399 406.497C716.8 404.858 718.694 403.715 720.797 403.24C722.901 402.765 725.101 402.982 727.071 403.86" stroke="#DEB650" stroke-width="2" stroke-linecap="round" stroke-linejoin="round"/>
<path d="M733.001 405L723.001 415.01L720.001 412.01" stroke="#DEB650" stroke-width="2" stroke-linecap="round" stroke-linejoin="round"/>
<text fill="#DEB650" xml:space="preserve" style="white-space: pre" font-family="Chalkboard" font-size="16" letter-spacing="0em"><tspan x="743.001" y="418.578">Interview has been created:)</tspan></text>
<path d="M1013 407L1001 419" stroke="#DEB650" stroke-width="2" stroke-linecap="round" stroke-linejoin="round"/>
<path d="M1001 407L1013 419" stroke="#DEB650" stroke-width="2" stroke-linecap="round" stroke-linejoin="round"/>
<path d="M699 387H1031V383H699V387ZM1033 389V437H1037V389H1033ZM1031 439H699V443H1031V439ZM697 437V389H693V437H697ZM699 439C697.895 439 697 438.105 697 437H693C693 440.314 695.686 443 699 443V439ZM1033 437C1033 438.105 1032.1 439 1031 439V443C1034.31 443 1037 440.314 1037 437H1033ZM1031 387C1032.1 387 1033 387.895 1033 389H1037C1037 385.686 1034.31 383 1031 383V387ZM699 383C695.686 383 693 385.686 693 389H697C697 387.895 697.895 387 699 387V383Z" fill="#DEB650"/>
<rect x="433" y="451" width="864" height="488" rx="32" fill="#F5F5F5"/>
<rect width="800" height="48" transform="translate(465 483)" fill="white"/>
<g filter="url(#filter1_i_3003_17253)">
<rect width="266.667" height="48" transform="translate(465 483)" fill="white"/>
<text fill="#333333" xml:space="preserve" style="white-space: pre" font-family="Chalkboard" font-size="16" letter-spacing="0em"><tspan x="540" y="512.578">Interview types</tspan></text>
</g>
<g filter="url(#filter2_i_3003_17253)">
<rect width="266.667" height="48" transform="translate(998.333 483)" fill="white"/>
<text fill="#7D7D7D" xml:space="preserve" style="white-space: pre" font-family="Chalkboard" font-size="16" letter-spacing="0em"><tspan x="1077.83" y="512.578">Team members</tspan></text>
</g>
<g filter="url(#filter3_i_3003_17253)">
<rect width="266.667" height="48" transform="translate(731.667 483)" fill="white"/>
<text fill="#7D7D7D" xml:space="preserve" style="white-space: pre" font-family="Chalkboard" font-size="16" letter-spacing="0em"><tspan x="791.167" y="512.578">Scheduled interview</tspan></text>
</g>
<rect x="465" y="563" width="800" height="112" rx="8" fill="white"/>
<path d="M497 599C497 596.791 498.791 595 501 595H727.667C729.876 595 731.667 596.791 731.667 599V639C731.667 641.209 729.876 643 727.667 643H501C498.791 643 497 641.209 497 639V599Z" fill="white"/>
<path d="M703 626C707.418 626 711 622.418 711 618C711 613.582 707.418 610 703 610C698.582 610 695 613.582 695 618C695 622.418 698.582 626 703 626Z" stroke="#898F9B" stroke-width="2" stroke-linecap="round" stroke-linejoin="round"/>
<path d="M713 628L708.65 623.65" stroke="#898F9B" stroke-width="2" stroke-linecap="round" stroke-linejoin="round"/>
<text fill="#7D7D7D" xml:space="preserve" style="white-space: pre" font-family="Chalkboard" font-size="16" letter-spacing="0em"><tspan x="513" y="624.578">Search</tspan></text>
<text fill="#767676" xml:space="preserve" style="white-space: pre" font-family="Chalkboard" font-size="14" letter-spacing="0em"><tspan x="497" y="587.881">Search</tspan></text>
<path d="M501 597H727.667V593H501V597ZM729.667 599V639H733.667V599H729.667ZM727.667 641H501V645H727.667V641ZM499 639V599H495V639H499ZM501 641C499.895 641 499 640.105 499 639H495C495 642.314 497.686 645 501 645V641ZM729.667 639C729.667 640.105 728.771 641 727.667 641V645C730.98 645 733.667 642.314 733.667 639H729.667ZM727.667 597C728.771 597 729.667 597.895 729.667 599H733.667C733.667 595.686 730.98 593 727.667 593V597ZM501 593C497.686 593 495 595.686 495 599H499C499 597.895 499.895 597 501 597V593Z" fill="#AAAAAA"/>
<path d="M747.667 599C747.667 596.791 749.457 595 751.667 595H978.333C980.542 595 982.333 596.791 982.333 599V639C982.333 641.209 980.542 643 978.333 643H751.667C749.457 643 747.667 641.209 747.667 639V599Z" fill="white"/>
<path d="M948.667 616L954.667 622L960.667 616" stroke="#898F9B" stroke-width="2" stroke-linecap="round" stroke-linejoin="round"/>
<text fill="#7D7D7D" xml:space="preserve" style="white-space: pre" font-family="Chalkboard" font-size="16" letter-spacing="0em"><tspan x="763.667" y="624.578">Front-end</tspan></text>
<text fill="#767676" xml:space="preserve" style="white-space: pre" font-family="Chalkboard" font-size="14" letter-spacing="0em"><tspan x="747.667" y="587.881">Interview type</tspan></text>
<path d="M751.667 597H978.333V593H751.667V597ZM980.333 599V639H984.333V599H980.333ZM978.333 641H751.667V645H978.333V641ZM749.667 639V599H745.667V639H749.667ZM751.667 641C750.562 641 749.667 640.105 749.667 639H745.667C745.667 642.314 748.353 645 751.667 645V641ZM980.333 639C980.333 640.105 979.438 641 978.333 641V645C981.647 645 984.333 642.314 984.333 639H980.333ZM978.333 597C979.438 597 980.333 597.895 980.333 599H984.333C984.333 595.686 981.647 593 978.333 593V597ZM751.667 593C748.353 593 745.667 595.686 745.667 599H749.667C749.667 597.895 750.562 597 751.667 597V593Z" fill="#AAAAAA"/>
<path d="M998.333 599C998.333 596.791 1000.12 595 1002.33 595H1229C1231.21 595 1233 596.791 1233 599V639C1233 641.209 1231.21 643 1229 643H1002.33C1000.12 643 998.333 641.209 998.333 639V599Z" fill="#333333"/>
<path d="M1040.67 612V626" stroke="white" stroke-width="2" stroke-linecap="round" stroke-linejoin="round"/>
<path d="M1033.67 619H1047.67" stroke="#F5F5F5" stroke-width="2" stroke-linecap="round" stroke-linejoin="round"/>
<text fill="white" xml:space="preserve" style="white-space: pre" font-family="Chalkboard" font-size="16" letter-spacing="0em"><tspan x="1060.67" y="624.578">New interview type</tspan></text>
<rect x="465" y="707" width="384" height="200" rx="8" fill="white"/>
<text fill="black" xml:space="preserve" style="white-space: pre" font-family="Chalkboard" font-size="18" letter-spacing="0em"><tspan x="497" y="756.275">Interview type</tspan></text>
<rect x="497" y="777" width="50" height="50" rx="25" fill="white"/>
<text fill="black" xml:space="preserve" style="white-space: pre" font-family="Chalkboard" font-size="24" letter-spacing="0em"><tspan x="504" y="810.367">DM</tspan></text>
<rect x="564" y="777" width="50" height="50" rx="25" fill="white"/>
<text fill="black" xml:space="preserve" style="white-space: pre" font-family="Chalkboard" font-size="24" letter-spacing="0em"><tspan x="570.5" y="810.367">EW</tspan></text>
<rect x="631" y="777" width="50" height="50" rx="25" fill="white"/>
<text fill="black" xml:space="preserve" style="white-space: pre" font-family="Chalkboard" font-size="24" letter-spacing="0em"><tspan x="641.5" y="810.367">SP</tspan></text>
<path d="M497 847C497 844.791 498.791 843 501 843H545C547.209 843 549 844.791 549 847V871C549 873.209 547.209 875 545 875H501C498.791 875 497 873.209 497 871V847Z" fill="white"/>
<text fill="#333333" xml:space="preserve" style="white-space: pre" font-family="Chalkboard" font-size="16" letter-spacing="0em"><tspan x="509" y="864.578">Edit</tspan></text>
<path d="M501 845H545V841H501V845ZM547 847V871H551V847H547ZM545 873H501V877H545V873ZM499 871V847H495V871H499ZM501 873C499.895 873 499 872.105 499 871H495C495 874.314 497.686 877 501 877V873ZM547 871C547 872.105 546.105 873 545 873V877C548.314 877 551 874.314 551 871H547ZM545 845C546.105 845 547 845.895 547 847H551C551 843.686 548.314 841 545 841V845ZM501 841C497.686 841 495 843.686 495 847H499C499 845.895 499.895 845 501 845V841Z" fill="#333333"/>
<path d="M565 847C565 844.791 566.791 843 569 843H651C653.209 843 655 844.791 655 847V871C655 873.209 653.209 875 651 875H569C566.791 875 565 873.209 565 871V847Z" fill="white"/>
<text fill="#333333" xml:space="preserve" style="white-space: pre" font-family="Chalkboard" font-size="16" letter-spacing="0em"><tspan x="577" y="864.578">Copy link</tspan></text>
<path d="M569 845H651V841H569V845ZM653 847V871H657V847H653ZM651 873H569V877H651V873ZM567 871V847H563V871H567ZM569 873C567.895 873 567 872.105 567 871H563C563 874.314 565.686 877 569 877V873ZM653 871C653 872.105 652.105 873 651 873V877C654.314 877 657 874.314 657 871H653ZM651 845C652.105 845 653 845.895 653 847H657C657 843.686 654.314 841 651 841V845ZM569 841C565.686 841 563 843.686 563 847H567C567 845.895 567.895 845 569 845V841Z" fill="#333333"/>
<rect x="881" y="707" width="384" height="200" rx="8" fill="white"/>
<text fill="black" xml:space="preserve" style="white-space: pre" font-family="Chalkboard" font-size="18" letter-spacing="0em"><tspan x="913" y="756.275">Technical Engineering interview</tspan></text>
<rect x="913" y="777" width="50" height="50" rx="25" fill="white"/>
<text fill="black" xml:space="preserve" style="white-space: pre" font-family="Chalkboard" font-size="24" letter-spacing="0em"><tspan x="918.5" y="810.367">AW</tspan></text>
<rect x="980" y="777" width="50" height="50" rx="25" fill="white"/>
<text fill="black" xml:space="preserve" style="white-space: pre" font-family="Chalkboard" font-size="24" letter-spacing="0em"><tspan x="990.5" y="810.367">SC</tspan></text>
<rect x="1047" y="777" width="50" height="50" rx="25" fill="white"/>
<text fill="black" xml:space="preserve" style="white-space: pre" font-family="Chalkboard" font-size="24" letter-spacing="0em"><tspan x="1052.5" y="810.367">RW</tspan></text>
<path d="M913 847C913 844.791 914.791 843 917 843H961C963.209 843 965 844.791 965 847V871C965 873.209 963.209 875 961 875H917C914.791 875 913 873.209 913 871V847Z" fill="white"/>
<text fill="#333333" xml:space="preserve" style="white-space: pre" font-family="Chalkboard" font-size="16" letter-spacing="0em"><tspan x="925" y="864.578">Edit</tspan></text>
<path d="M917 845H961V841H917V845ZM963 847V871H967V847H963ZM961 873H917V877H961V873ZM915 871V847H911V871H915ZM917 873C915.895 873 915 872.105 915 871H911C911 874.314 913.686 877 917 877V873ZM963 871C963 872.105 962.105 873 961 873V877C964.314 877 967 874.314 967 871H963ZM961 845C962.105 845 963 845.895 963 847H967C967 843.686 964.314 841 961 841V845ZM917 841C913.686 841 911 843.686 911 847H915C915 845.895 915.895 845 917 845V841Z" fill="#333333"/>
<path d="M981 847C981 844.791 982.791 843 985 843H1067C1069.21 843 1071 844.791 1071 847V871C1071 873.209 1069.21 875 1067 875H985C982.791 875 981 873.209 981 871V847Z" fill="white"/>
<text fill="#333333" xml:space="preserve" style="white-space: pre" font-family="Chalkboard" font-size="16" letter-spacing="0em"><tspan x="993" y="864.578">Copy link</tspan></text>
<path d="M985 845H1067V841H985V845ZM1069 847V871H1073V847H1069ZM1067 873H985V877H1067V873ZM983 871V847H979V871H983ZM985 873C983.895 873 983 872.105 983 871H979C979 874.314 981.686 877 985 877V873ZM1069 871C1069 872.105 1068.1 873 1067 873V877C1070.31 877 1073 874.314 1073 871H1069ZM1067 845C1068.1 845 1069 845.895 1069 847H1073C1073 843.686 1070.31 841 1067 841V845ZM985 841C981.686 841 979 843.686 979 847H983C983 845.895 983.895 845 985 845V841Z" fill="#333333"/>
</g>
<rect width="375" height="83" transform="translate(1731 167)" fill="#5384ED"/>
<text fill="white" xml:space="preserve" style="white-space: pre" font-family="Inter" font-size="42" font-weight="500" letter-spacing="0em"><tspan x="1763" y="223.773">Interview types</tspan></text>
<g clip-path="url(#clip2_3003_17253)">
<rect width="1440" height="1024" transform="translate(1731 250)" fill="white"/>
<g filter="url(#filter4_d_3003_17253)">
<rect x="1731" y="250" width="1440" height="80" fill="white"/>
</g>
<g clip-path="url(#clip3_3003_17253)">
<path d="M3099.52 290C3099.52 302.749 3089.69 313 3077.67 313C3065.64 313 3055.81 302.749 3055.81 290C3055.81 277.251 3065.64 267 3077.67 267C3089.69 267 3099.52 277.251 3099.52 290Z" fill="#F5F5F5" stroke="#AAAAAA" stroke-width="2"/>
<mask id="path-68-inside-2_3003_17253" fill="white">
<path fill-rule="evenodd" clip-rule="evenodd" d="M3060.52 305.875V305C3060.52 299.015 3071.94 296 3077.67 296C3083.39 296 3094.81 299.015 3094.81 305V305.875C3090.62 310.857 3084.49 314 3077.67 314C3070.84 314 3064.71 310.857 3060.52 305.875ZM3077.67 276C3072.93 276 3069.09 280.028 3069.09 285C3069.09 289.972 3072.93 294 3077.67 294C3082.4 294 3086.24 289.972 3086.24 285C3086.24 280.028 3082.4 276 3077.67 276Z"/>
</mask>
<path fill-rule="evenodd" clip-rule="evenodd" d="M3060.52 305.875V305C3060.52 299.015 3071.94 296 3077.67 296C3083.39 296 3094.81 299.015 3094.81 305V305.875C3090.62 310.857 3084.49 314 3077.67 314C3070.84 314 3064.71 310.857 3060.52 305.875ZM3077.67 276C3072.93 276 3069.09 280.028 3069.09 285C3069.09 289.972 3072.93 294 3077.67 294C3082.4 294 3086.24 289.972 3086.24 285C3086.24 280.028 3082.4 276 3077.67 276Z" fill="#F5F5F5"/>
<path d="M3060.52 305.875H3058.52V306.604L3058.99 307.162L3060.52 305.875ZM3094.81 305.875L3096.34 307.162L3096.81 306.604V305.875H3094.81ZM3062.52 305.875V305H3058.52V305.875H3062.52ZM3062.52 305C3062.52 304.202 3062.89 303.378 3063.79 302.505C3064.71 301.616 3066.07 300.796 3067.72 300.099C3071.05 298.702 3075.07 298 3077.67 298V294C3074.54 294 3069.99 294.806 3066.17 296.412C3064.26 297.217 3062.41 298.273 3061.01 299.633C3059.59 301.009 3058.52 302.806 3058.52 305H3062.52ZM3077.67 298C3080.26 298 3084.29 298.702 3087.61 300.099C3089.27 300.796 3090.63 301.616 3091.54 302.505C3092.44 303.378 3092.81 304.202 3092.81 305H3096.81C3096.81 302.806 3095.75 301.009 3094.33 299.633C3092.92 298.273 3091.07 297.217 3089.16 296.412C3085.34 294.806 3080.79 294 3077.67 294V298ZM3092.81 305V305.875H3096.81V305H3092.81ZM3093.28 304.588C3089.44 309.153 3083.86 312 3077.67 312V316C3085.13 316 3091.8 312.562 3096.34 307.162L3093.28 304.588ZM3077.67 312C3071.47 312 3065.89 309.153 3062.05 304.588L3058.99 307.162C3063.53 312.562 3070.21 316 3077.67 316V312ZM3071.09 285C3071.09 281.039 3074.13 278 3077.67 278V274C3071.74 274 3067.09 279.016 3067.09 285H3071.09ZM3077.67 292C3074.13 292 3071.09 288.961 3071.09 285H3067.09C3067.09 290.984 3071.74 296 3077.67 296V292ZM3084.24 285C3084.24 288.961 3081.21 292 3077.67 292V296C3083.6 296 3088.24 290.984 3088.24 285H3084.24ZM3077.67 278C3081.21 278 3084.24 281.039 3084.24 285H3088.24C3088.24 279.016 3083.6 274 3077.67 274V278Z" fill="#AAAAAA" mask="url(#path-68-inside-2_3003_17253)"/>
</g>
<path d="M1791.95 266H1844.33V306H1791.95V266Z" fill="#F5F5F5"/>
<path d="M1797.95 272L1837.95 300" stroke="#AAAAAA" stroke-width="2"/>
<path d="M1837.95 272L1797.95 300" stroke="#AAAAAA" stroke-width="2"/>
<path d="M1791.95 266V264H1789.95V266H1791.95ZM1844.33 266H1846.33V264H1844.33V266ZM1844.33 306V308H1846.33V306H1844.33ZM1791.95 306H1789.95V308H1791.95V306ZM1791.95 268H1844.33V264H1791.95V268ZM1842.33 266V306H1846.33V266H1842.33ZM1844.33 304H1791.95V308H1844.33V304ZM1793.95 306V266H1789.95V306H1793.95Z" fill="#AAAAAA"/>
<rect x="2041" y="451" width="864" height="488" rx="32" fill="#F5F5F5"/>
<rect width="800" height="48" transform="translate(2073 483)" fill="white"/>
<g filter="url(#filter5_i_3003_17253)">
<rect width="266.667" height="48" transform="translate(2073 483)" fill="white"/>
<text fill="#333333" xml:space="preserve" style="white-space: pre" font-family="Chalkboard" font-size="16" letter-spacing="0em"><tspan x="2148" y="512.578">Interview types</tspan></text>
</g>
<g filter="url(#filter6_i_3003_17253)">
<rect width="266.667" height="48" transform="translate(2606.33 483)" fill="white"/>
<text fill="#7D7D7D" xml:space="preserve" style="white-space: pre" font-family="Chalkboard" font-size="16" letter-spacing="0em"><tspan x="2685.83" y="512.578">Team members</tspan></text>
</g>
<g filter="url(#filter7_i_3003_17253)">
<rect width="266.667" height="48" transform="translate(2339.67 483)" fill="white"/>
<text fill="#7D7D7D" xml:space="preserve" style="white-space: pre" font-family="Chalkboard" font-size="16" letter-spacing="0em"><tspan x="2399.17" y="512.578">Scheduled interview</tspan></text>
</g>
<rect x="2073" y="563" width="800" height="112" rx="8" fill="white"/>
<path d="M2105 599C2105 596.791 2106.79 595 2109 595H2335.67C2337.88 595 2339.67 596.791 2339.67 599V639C2339.67 641.209 2337.88 643 2335.67 643H2109C2106.79 643 2105 641.209 2105 639V599Z" fill="white"/>
<path d="M2311 626C2315.42 626 2319 622.418 2319 618C2319 613.582 2315.42 610 2311 610C2306.58 610 2303 613.582 2303 618C2303 622.418 2306.58 626 2311 626Z" stroke="#898F9B" stroke-width="2" stroke-linecap="round" stroke-linejoin="round"/>
<path d="M2321 628L2316.65 623.65" stroke="#898F9B" stroke-width="2" stroke-linecap="round" stroke-linejoin="round"/>
<text fill="#7D7D7D" xml:space="preserve" style="white-space: pre" font-family="Chalkboard" font-size="16" letter-spacing="0em"><tspan x="2121" y="624.578">Search</tspan></text>
<text fill="#767676" xml:space="preserve" style="white-space: pre" font-family="Chalkboard" font-size="14" letter-spacing="0em"><tspan x="2105" y="587.881">Search</tspan></text>
<path d="M2109 597H2335.67V593H2109V597ZM2337.67 599V639H2341.67V599H2337.67ZM2335.67 641H2109V645H2335.67V641ZM2107 639V599H2103V639H2107ZM2109 641C2107.9 641 2107 640.105 2107 639H2103C2103 642.314 2105.69 645 2109 645V641ZM2337.67 639C2337.67 640.105 2336.77 641 2335.67 641V645C2338.98 645 2341.67 642.314 2341.67 639H2337.67ZM2335.67 597C2336.77 597 2337.67 597.895 2337.67 599H2341.67C2341.67 595.686 2338.98 593 2335.67 593V597ZM2109 593C2105.69 593 2103 595.686 2103 599H2107C2107 597.895 2107.9 597 2109 597V593Z" fill="#AAAAAA"/>
<path d="M2355.67 599C2355.67 596.791 2357.46 595 2359.67 595H2586.33C2588.54 595 2590.33 596.791 2590.33 599V639C2590.33 641.209 2588.54 643 2586.33 643H2359.67C2357.46 643 2355.67 641.209 2355.67 639V599Z" fill="white"/>
<path d="M2556.67 616L2562.67 622L2568.67 616" stroke="#898F9B" stroke-width="2" stroke-linecap="round" stroke-linejoin="round"/>
<text fill="#7D7D7D" xml:space="preserve" style="white-space: pre" font-family="Chalkboard" font-size="16" letter-spacing="0em"><tspan x="2371.67" y="624.578">Front-end</tspan></text>
<text fill="#767676" xml:space="preserve" style="white-space: pre" font-family="Chalkboard" font-size="14" letter-spacing="0em"><tspan x="2355.67" y="587.881">Interview type</tspan></text>
<path d="M2359.67 597H2586.33V593H2359.67V597ZM2588.33 599V639H2592.33V599H2588.33ZM2586.33 641H2359.67V645H2586.33V641ZM2357.67 639V599H2353.67V639H2357.67ZM2359.67 641C2358.56 641 2357.67 640.105 2357.67 639H2353.67C2353.67 642.314 2356.35 645 2359.67 645V641ZM2588.33 639C2588.33 640.105 2587.44 641 2586.33 641V645C2589.65 645 2592.33 642.314 2592.33 639H2588.33ZM2586.33 597C2587.44 597 2588.33 597.895 2588.33 599H2592.33C2592.33 595.686 2589.65 593 2586.33 593V597ZM2359.67 593C2356.35 593 2353.67 595.686 2353.67 599H2357.67C2357.67 597.895 2358.56 597 2359.67 597V593Z" fill="#AAAAAA"/>
<path d="M2606.33 599C2606.33 596.791 2608.12 595 2610.33 595H2837C2839.21 595 2841 596.791 2841 599V639C2841 641.209 2839.21 643 2837 643H2610.33C2608.12 643 2606.33 641.209 2606.33 639V599Z" fill="#333333"/>
<path d="M2648.67 612V626" stroke="white" stroke-width="2" stroke-linecap="round" stroke-linejoin="round"/>
<path d="M2641.67 619H2655.67" stroke="#F5F5F5" stroke-width="2" stroke-linecap="round" stroke-linejoin="round"/>
<text fill="white" xml:space="preserve" style="white-space: pre" font-family="Chalkboard" font-size="16" letter-spacing="0em"><tspan x="2668.67" y="624.578">New interview type</tspan></text>
<rect x="2073" y="707" width="384" height="200" rx="8" fill="white"/>
<text fill="black" xml:space="preserve" style="white-space: pre" font-family="Chalkboard" font-size="18" letter-spacing="0em"><tspan x="2105" y="756.275">Interview type</tspan></text>
<rect x="2105" y="777" width="50" height="50" rx="25" fill="white"/>
<text fill="black" xml:space="preserve" style="white-space: pre" font-family="Chalkboard" font-size="24" letter-spacing="0em"><tspan x="2112" y="810.367">DM</tspan></text>
<rect x="2172" y="777" width="50" height="50" rx="25" fill="white"/>
<text fill="black" xml:space="preserve" style="white-space: pre" font-family="Chalkboard" font-size="24" letter-spacing="0em"><tspan x="2178.5" y="810.367">EW</tspan></text>
<rect x="2239" y="777" width="50" height="50" rx="25" fill="white"/>
<text fill="black" xml:space="preserve" style="white-space: pre" font-family="Chalkboard" font-size="24" letter-spacing="0em"><tspan x="2249.5" y="810.367">SP</tspan></text>
<path d="M2105 847C2105 844.791 2106.79 843 2109 843H2153C2155.21 843 2157 844.791 2157 847V871C2157 873.209 2155.21 875 2153 875H2109C2106.79 875 2105 873.209 2105 871V847Z" fill="white"/>
<text fill="#333333" xml:space="preserve" style="white-space: pre" font-family="Chalkboard" font-size="16" letter-spacing="0em"><tspan x="2117" y="864.578">Edit</tspan></text>
<path d="M2109 845H2153V841H2109V845ZM2155 847V871H2159V847H2155ZM2153 873H2109V877H2153V873ZM2107 871V847H2103V871H2107ZM2109 873C2107.9 873 2107 872.105 2107 871H2103C2103 874.314 2105.69 877 2109 877V873ZM2155 871C2155 872.105 2154.1 873 2153 873V877C2156.31 877 2159 874.314 2159 871H2155ZM2153 845C2154.1 845 2155 845.895 2155 847H2159C2159 843.686 2156.31 841 2153 841V845ZM2109 841C2105.69 841 2103 843.686 2103 847H2107C2107 845.895 2107.9 845 2109 845V841Z" fill="#333333"/>
<path d="M2173 847C2173 844.791 2174.79 843 2177 843H2259C2261.21 843 2263 844.791 2263 847V871C2263 873.209 2261.21 875 2259 875H2177C2174.79 875 2173 873.209 2173 871V847Z" fill="white"/>
<text fill="#333333" xml:space="preserve" style="white-space: pre" font-family="Chalkboard" font-size="16" letter-spacing="0em"><tspan x="2185" y="864.578">Copy link</tspan></text>
<path d="M2177 845H2259V841H2177V845ZM2261 847V871H2265V847H2261ZM2259 873H2177V877H2259V873ZM2175 871V847H2171V871H2175ZM2177 873C2175.9 873 2175 872.105 2175 871H2171C2171 874.314 2173.69 877 2177 877V873ZM2261 871C2261 872.105 2260.1 873 2259 873V877C2262.31 877 2265 874.314 2265 871H2261ZM2259 845C2260.1 845 2261 845.895 2261 847H2265C2265 843.686 2262.31 841 2259 841V845ZM2177 841C2173.69 841 2171 843.686 2171 847H2175C2175 845.895 2175.9 845 2177 845V841Z" fill="#333333"/>
<rect x="2489" y="707" width="384" height="200" rx="8" fill="white"/>
<text fill="black" xml:space="preserve" style="white-space: pre" font-family="Chalkboard" font-size="18" letter-spacing="0em"><tspan x="2521" y="756.275">Technical Engineering interview</tspan></text>
<rect x="2521" y="777" width="50" height="50" rx="25" fill="white"/>
<text fill="black" xml:space="preserve" style="white-space: pre" font-family="Chalkboard" font-size="24" letter-spacing="0em"><tspan x="2526.5" y="810.367">AW</tspan></text>
<rect x="2588" y="777" width="50" height="50" rx="25" fill="white"/>
<text fill="black" xml:space="preserve" style="white-space: pre" font-family="Chalkboard" font-size="24" letter-spacing="0em"><tspan x="2598.5" y="810.367">SC</tspan></text>
<rect x="2655" y="777" width="50" height="50" rx="25" fill="white"/>
<text fill="black" xml:space="preserve" style="white-space: pre" font-family="Chalkboard" font-size="24" letter-spacing="0em"><tspan x="2660.5" y="810.367">RW</tspan></text>
<path d="M2521 847C2521 844.791 2522.79 843 2525 843H2569C2571.21 843 2573 844.791 2573 847V871C2573 873.209 2571.21 875 2569 875H2525C2522.79 875 2521 873.209 2521 871V847Z" fill="white"/>
<text fill="#333333" xml:space="preserve" style="white-space: pre" font-family="Chalkboard" font-size="16" letter-spacing="0em"><tspan x="2533" y="864.578">Edit</tspan></text>
<path d="M2525 845H2569V841H2525V845ZM2571 847V871H2575V847H2571ZM2569 873H2525V877H2569V873ZM2523 871V847H2519V871H2523ZM2525 873C2523.9 873 2523 872.105 2523 871H2519C2519 874.314 2521.69 877 2525 877V873ZM2571 871C2571 872.105 2570.1 873 2569 873V877C2572.31 877 2575 874.314 2575 871H2571ZM2569 845C2570.1 845 2571 845.895 2571 847H2575C2575 843.686 2572.31 841 2569 841V845ZM2525 841C2521.69 841 2519 843.686 2519 847H2523C2523 845.895 2523.9 845 2525 845V841Z" fill="#333333"/>
<path d="M2589 847C2589 844.791 2590.79 843 2593 843H2675C2677.21 843 2679 844.791 2679 847V871C2679 873.209 2677.21 875 2675 875H2593C2590.79 875 2589 873.209 2589 871V847Z" fill="white"/>
<text fill="#333333" xml:space="preserve" style="white-space: pre" font-family="Chalkboard" font-size="16" letter-spacing="0em"><tspan x="2601" y="864.578">Copy link</tspan></text>
<path d="M2593 845H2675V841H2593V845ZM2677 847V871H2681V847H2677ZM2675 873H2593V877H2675V873ZM2591 871V847H2587V871H2591ZM2593 873C2591.9 873 2591 872.105 2591 871H2587C2587 874.314 2589.69 877 2593 877V873ZM2677 871C2677 872.105 2676.1 873 2675 873V877C2678.31 877 2681 874.314 2681 871H2677ZM2675 845C2676.1 845 2677 845.895 2677 847H2681C2681 843.686 2678.31 841 2675 841V845ZM2593 841C2589.69 841 2587 843.686 2587 847H2591C2591 845.895 2591.9 845 2593 845V841Z" fill="#333333"/>
</g>
<rect width="492" height="83" transform="translate(3339 167)" fill="#5384ED"/>
<text fill="white" xml:space="preserve" style="white-space: pre" font-family="Inter" font-size="42" font-weight="500" letter-spacing="0em"><tspan x="3371" y="223.773">Create new interview</tspan></text>
<g clip-path="url(#clip4_3003_17253)">
<rect width="1440" height="1024" transform="translate(3339 250)" fill="white"/>
<g filter="url(#filter8_d_3003_17253)">
<rect x="3339" y="250" width="1440" height="80" fill="white"/>
</g>
<g clip-path="url(#clip5_3003_17253)">
<path d="M4707.52 290C4707.52 302.749 4697.69 313 4685.67 313C4673.64 313 4663.81 302.749 4663.81 290C4663.81 277.251 4673.64 267 4685.67 267C4697.69 267 4707.52 277.251 4707.52 290Z" fill="#F5F5F5" stroke="#AAAAAA" stroke-width="2"/>
<mask id="path-125-inside-3_3003_17253" fill="white">
<path fill-rule="evenodd" clip-rule="evenodd" d="M4668.52 305.875V305C4668.52 299.015 4679.94 296 4685.67 296C4691.39 296 4702.81 299.015 4702.81 305V305.875C4698.62 310.857 4692.49 314 4685.67 314C4678.84 314 4672.71 310.857 4668.52 305.875ZM4685.67 276C4680.93 276 4677.09 280.028 4677.09 285C4677.09 289.972 4680.93 294 4685.67 294C4690.4 294 4694.24 289.972 4694.24 285C4694.24 280.028 4690.4 276 4685.67 276Z"/>
</mask>
<path fill-rule="evenodd" clip-rule="evenodd" d="M4668.52 305.875V305C4668.52 299.015 4679.94 296 4685.67 296C4691.39 296 4702.81 299.015 4702.81 305V305.875C4698.62 310.857 4692.49 314 4685.67 314C4678.84 314 4672.71 310.857 4668.52 305.875ZM4685.67 276C4680.93 276 4677.09 280.028 4677.09 285C4677.09 289.972 4680.93 294 4685.67 294C4690.4 294 4694.24 289.972 4694.24 285C4694.24 280.028 4690.4 276 4685.67 276Z" fill="#F5F5F5"/>
<path d="M4668.52 305.875H4666.52V306.604L4666.99 307.162L4668.52 305.875ZM4702.81 305.875L4704.34 307.162L4704.81 306.604V305.875H4702.81ZM4670.52 305.875V305H4666.52V305.875H4670.52ZM4670.52 305C4670.52 304.202 4670.89 303.378 4671.79 302.505C4672.71 301.616 4674.07 300.796 4675.72 300.099C4679.05 298.702 4683.07 298 4685.67 298V294C4682.54 294 4677.99 294.806 4674.17 296.412C4672.26 297.217 4670.41 298.273 4669.01 299.633C4667.59 301.009 4666.52 302.806 4666.52 305H4670.52ZM4685.67 298C4688.26 298 4692.29 298.702 4695.61 300.099C4697.27 300.796 4698.63 301.616 4699.54 302.505C4700.44 303.378 4700.81 304.202 4700.81 305H4704.81C4704.81 302.806 4703.75 301.009 4702.33 299.633C4700.92 298.273 4699.07 297.217 4697.16 296.412C4693.34 294.806 4688.79 294 4685.67 294V298ZM4700.81 305V305.875H4704.81V305H4700.81ZM4701.28 304.588C4697.44 309.153 4691.86 312 4685.67 312V316C4693.13 316 4699.8 312.562 4704.34 307.162L4701.28 304.588ZM4685.67 312C4679.47 312 4673.89 309.153 4670.05 304.588L4666.99 307.162C4671.53 312.562 4678.21 316 4685.67 316V312ZM4679.09 285C4679.09 281.039 4682.13 278 4685.67 278V274C4679.74 274 4675.09 279.016 4675.09 285H4679.09ZM4685.67 292C4682.13 292 4679.09 288.961 4679.09 285H4675.09C4675.09 290.984 4679.74 296 4685.67 296V292ZM4692.24 285C4692.24 288.961 4689.21 292 4685.67 292V296C4691.6 296 4696.24 290.984 4696.24 285H4692.24ZM4685.67 278C4689.21 278 4692.24 281.039 4692.24 285H4696.24C4696.24 279.016 4691.6 274 4685.67 274V278Z" fill="#AAAAAA" mask="url(#path-125-inside-3_3003_17253)"/>
</g>
<path d="M3399.95 266H3452.33V306H3399.95V266Z" fill="#F5F5F5"/>
<path d="M3405.95 272L3445.95 300" stroke="#AAAAAA" stroke-width="2"/>
<path d="M3445.95 272L3405.95 300" stroke="#AAAAAA" stroke-width="2"/>
<path d="M3399.95 266V264H3397.95V266H3399.95ZM3452.33 266H3454.33V264H3452.33V266ZM3452.33 306V308H3454.33V306H3452.33ZM3399.95 306H3397.95V308H3399.95V306ZM3399.95 268H3452.33V264H3399.95V268ZM3450.33 266V306H3454.33V266H3450.33ZM3452.33 304H3399.95V308H3452.33V304ZM3401.95 306V266H3397.95V306H3401.95Z" fill="#AAAAAA"/>
<rect x="3659" y="370" width="864" height="763" rx="32" fill="#F5F5F5"/>
<path d="M3719.5 420H3698.5" stroke="#898F9B" stroke-width="2" stroke-linecap="round" stroke-linejoin="round"/>
<path d="M3709 430.5L3698.5 420L3709 409.5" stroke="#898F9B" stroke-width="2" stroke-linecap="round" stroke-linejoin="round"/>
<text fill="black" xml:space="preserve" style="white-space: pre" font-family="Chalkboard" font-size="24" letter-spacing="0em"><tspan x="3990.23" y="428.367">Create interview type</tspan></text>
<path d="M4491 453H3691V455H4491V453Z" fill="#B4B4B4" mask="url(#path-132-inside-4_3003_17253)"/>
<rect x="3691" y="486" width="800" height="535" rx="8" fill="white"/>
<text fill="black" xml:space="preserve" style="white-space: pre" font-family="Chalkboard" font-size="18" letter-spacing="0em"><tspan x="3723" y="535.275">Event name, location, instruction, link</tspan></text>
<path d="M3723 576C3723 573.791 3724.79 572 3727 572H4455C4457.21 572 4459 573.791 4459 576V608C4459 610.209 4457.21 612 4455 612H3727C3724.79 612 3723 610.209 3723 608V576Z" fill="white"/>
<text fill="#7D7D7D" xml:space="preserve" style="white-space: pre" font-family="Chalkboard" font-size="16" font-weight="bold" letter-spacing="0em"><tspan x="3735" y="597.578">mid level front end developer</tspan></text>
<text fill="#767676" xml:space="preserve" style="white-space: pre" font-family="Chalkboard" font-size="14" letter-spacing="0em"><tspan x="3723" y="564.881">Interview name</tspan></text>
<path d="M3727 574H4455V570H3727V574ZM4457 576V608H4461V576H4457ZM4455 610H3727V614H4455V610ZM3725 608V576H3721V608H3725ZM3727 610C3725.9 610 3725 609.105 3725 608H3721C3721 611.314 3723.69 614 3727 614V610ZM4457 608C4457 609.105 4456.1 610 4455 610V614C4458.31 614 4461 611.314 4461 608H4457ZM4455 574C4456.1 574 4457 574.895 4457 576H4461C4461 572.686 4458.31 570 4455 570V574ZM3727 570C3723.69 570 3721 572.686 3721 576H3725C3725 574.895 3725.9 574 3727 574V570Z" fill="#AAAAAA"/>
<path d="M3723 648C3723 645.791 3724.79 644 3727 644H4455C4457.21 644 4459 645.791 4459 648V680C4459 682.209 4457.21 684 4455 684H3727C3724.79 684 3723 682.209 3723 680V648Z" fill="white"/>
<path d="M4433.5 661.75L4438 666.25L4442.5 661.75" stroke="#898F9B" stroke-width="2" stroke-linecap="round" stroke-linejoin="round"/>
<text fill="#7D7D7D" xml:space="preserve" style="white-space: pre" font-family="Chalkboard" font-size="16" letter-spacing="0em"><tspan x="3735" y="669.578">45 mins</tspan></text>
<text fill="#767676" xml:space="preserve" style="white-space: pre" font-family="Chalkboard" font-size="14" letter-spacing="0em"><tspan x="3723" y="636.881">Duration</tspan></text>
<path d="M3727 646H4455V642H3727V646ZM4457 648V680H4461V648H4457ZM4455 682H3727V686H4455V682ZM3725 680V648H3721V680H3725ZM3727 682C3725.9 682 3725 681.105 3725 680H3721C3721 683.314 3723.69 686 3727 686V682ZM4457 680C4457 681.105 4456.1 682 4455 682V686C4458.31 686 4461 683.314 4461 680H4457ZM4455 646C4456.1 646 4457 646.895 4457 648H4461C4461 644.686 4458.31 642 4455 642V646ZM3727 642C3723.69 642 3721 644.686 3721 648H3725C3725 646.895 3725.9 646 3727 646V642Z" fill="#AAAAAA"/>
<path d="M3723 720C3723 717.791 3724.79 716 3727 716H4455C4457.21 716 4459 717.791 4459 720V752C4459 754.209 4457.21 756 4455 756H3727C3724.79 756 3723 754.209 3723 752V720Z" fill="white"/>
<path d="M4433.5 733.75L4438 738.25L4442.5 733.75" stroke="#898F9B" stroke-width="2" stroke-linecap="round" stroke-linejoin="round"/>
<text fill="#7D7D7D" xml:space="preserve" style="white-space: pre" font-family="Chalkboard" font-size="16" letter-spacing="0em"><tspan x="3735" y="741.578">In person</tspan></text>
<text fill="#767676" xml:space="preserve" style="white-space: pre" font-family="Chalkboard" font-size="14" letter-spacing="0em"><tspan x="3723" y="708.881">Location</tspan></text>
<path d="M3727 718H4455V714H3727V718ZM4457 720V752H4461V720H4457ZM4455 754H3727V758H4455V754ZM3725 752V720H3721V752H3725ZM3727 754C3725.9 754 3725 753.105 3725 752H3721C3721 755.314 3723.69 758 3727 758V754ZM4457 752C4457 753.105 4456.1 754 4455 754V758C4458.31 758 4461 755.314 4461 752H4457ZM4455 718C4456.1 718 4457 718.895 4457 720H4461C4461 716.686 4458.31 714 4455 714V718ZM3727 714C3723.69 714 3721 716.686 3721 720H3725C3725 718.895 3725.9 718 3727 718V714Z" fill="#AAAAAA"/>
<path d="M3723 761C3723 758.791 3724.79 757 3727 757H4455C4457.21 757 4459 758.791 4459 761V913C4459 915.209 4457.21 917 4455 917H3727C3724.79 917 3723 915.209 3723 913V761Z" fill="white"/>
<text fill="#7D7D7D" xml:space="preserve" style="white-space: pre" font-family="Chalkboard" font-size="16" letter-spacing="0em"><tspan x="3739" y="788.472">Phone call</tspan></text>
<text fill="#7D7D7D" xml:space="preserve" style="white-space: pre" font-family="Chalkboard" font-size="16" letter-spacing="0em"><tspan x="3739" y="824.472">Google meet</tspan></text>
<text fill="#7D7D7D" xml:space="preserve" style="white-space: pre" font-family="Chalkboard" font-size="16" letter-spacing="0em"><tspan x="3739" y="860.472">Zoom</tspan></text>
<text fill="#7D7D7D" xml:space="preserve" style="white-space: pre" font-family="Chalkboard" font-size="16" letter-spacing="0em"><tspan x="3739" y="896.472">In person</tspan></text>
<path d="M3727 759H4455V755H3727V759ZM4457 761V913H4461V761H4457ZM4455 915H3727V919H4455V915ZM3725 913V761H3721V913H3725ZM3727 915C3725.9 915 3725 914.105 3725 913H3721C3721 916.314 3723.69 919 3727 919V915ZM4457 913C4457 914.105 4456.1 915 4455 915V919C4458.31 919 4461 916.314 4461 913H4457ZM4455 759C4456.1 759 4457 759.895 4457 761H4461C4461 757.686 4458.31 755 4455 755V759ZM3727 755C3723.69 755 3721 757.686 3721 761H3725C3725 759.895 3725.9 759 3727 759V755Z" fill="#AAAAAA"/>
<path d="M3723 953C3723 950.791 3724.79 949 3727 949H4455C4457.21 949 4459 950.791 4459 953V985C4459 987.209 4457.21 989 4455 989H3727C3724.79 989 3723 987.209 3723 985V953Z" fill="white"/>
<text fill="#7D7D7D" xml:space="preserve" style="white-space: pre" font-family="Chalkboard" font-size="16" font-weight="bold" letter-spacing="0em"><tspan x="3735" y="974.578">front-end-developer-interview</tspan></text>
<text fill="#767676" xml:space="preserve" style="white-space: pre" font-family="Chalkboard" font-size="14" letter-spacing="0em"><tspan x="3723" y="941.881">Event link</tspan></text>
<path d="M3727 951H4455V947H3727V951ZM4457 953V985H4461V953H4457ZM4455 987H3727V991H4455V987ZM3725 985V953H3721V985H3725ZM3727 987C3725.9 987 3725 986.105 3725 985H3721C3721 988.314 3723.69 991 3727 991V987ZM4457 985C4457 986.105 4456.1 987 4455 987V991C4458.31 991 4461 988.314 4461 985H4457ZM4455 951C4456.1 951 4457 951.895 4457 953H4461C4461 949.686 4458.31 947 4455 947V951ZM3727 947C3723.69 947 3721 949.686 3721 953H3725C3725 951.895 3725.9 951 3727 951V947Z" fill="#AAAAAA"/>
<path d="M4219 1057C4219 1054.79 4220.79 1053 4223 1053H4305C4307.21 1053 4309 1054.79 4309 1057V1097C4309 1099.21 4307.21 1101 4305 1101H4223C4220.79 1101 4219 1099.21 4219 1097V1057Z" fill="white"/>
<text fill="#333333" xml:space="preserve" style="white-space: pre" font-family="Chalkboard" font-size="16" letter-spacing="0em"><tspan x="4235" y="1082.58">Go back</tspan></text>
<path d="M4223 1055H4305V1051H4223V1055ZM4307 1057V1097H4311V1057H4307ZM4305 1099H4223V1103H4305V1099ZM4221 1097V1057H4217V1097H4221ZM4223 1099C4221.9 1099 4221 1098.1 4221 1097H4217C4217 1100.31 4219.69 1103 4223 1103V1099ZM4307 1097C4307 1098.1 4306.1 1099 4305 1099V1103C4308.31 1103 4311 1100.31 4311 1097H4307ZM4305 1055C4306.1 1055 4307 1055.9 4307 1057H4311C4311 1053.69 4308.31 1051 4305 1051V1055ZM4223 1051C4219.69 1051 4217 1053.69 4217 1057H4221C4221 1055.9 4221.9 1055 4223 1055V1051Z" fill="#333333"/>
<path d="M4341 1057C4341 1054.79 4342.79 1053 4345 1053H4487C4489.21 1053 4491 1054.79 4491 1057V1097C4491 1099.21 4489.21 1101 4487 1101H4345C4342.79 1101 4341 1099.21 4341 1097V1057Z" fill="#333333"/>
<text fill="white" xml:space="preserve" style="white-space: pre" font-family="Chalkboard" font-size="16" letter-spacing="0em"><tspan x="4357" y="1082.58">Save &#38; continue</tspan></text>
</g>
<rect width="502" height="83" transform="translate(4947 167)" fill="#5384ED"/>
<text fill="white" xml:space="preserve" style="white-space: pre" font-family="Inter" font-size="42" font-weight="500" letter-spacing="0em"><tspan x="4979" y="223.773">Set up interview skills</tspan></text>
<g clip-path="url(#clip6_3003_17253)">
<rect width="1440" height="1024" transform="translate(4947 250)" fill="white"/>
<g filter="url(#filter9_d_3003_17253)">
<rect x="4947" y="250" width="1440" height="80" fill="white"/>
</g>
<g clip-path="url(#clip7_3003_17253)">
<path d="M6315.52 290C6315.52 302.749 6305.69 313 6293.67 313C6281.64 313 6271.81 302.749 6271.81 290C6271.81 277.251 6281.64 267 6293.67 267C6305.69 267 6315.52 277.251 6315.52 290Z" fill="#F5F5F5" stroke="#AAAAAA" stroke-width="2"/>
<mask id="path-171-inside-5_3003_17253" fill="white">
<path fill-rule="evenodd" clip-rule="evenodd" d="M6276.52 305.875V305C6276.52 299.015 6287.94 296 6293.67 296C6299.39 296 6310.81 299.015 6310.81 305V305.875C6306.62 310.857 6300.49 314 6293.67 314C6286.84 314 6280.71 310.857 6276.52 305.875ZM6293.67 276C6288.93 276 6285.09 280.028 6285.09 285C6285.09 289.972 6288.93 294 6293.67 294C6298.4 294 6302.24 289.972 6302.24 285C6302.24 280.028 6298.4 276 6293.67 276Z"/>
</mask>
<path fill-rule="evenodd" clip-rule="evenodd" d="M6276.52 305.875V305C6276.52 299.015 6287.94 296 6293.67 296C6299.39 296 6310.81 299.015 6310.81 305V305.875C6306.62 310.857 6300.49 314 6293.67 314C6286.84 314 6280.71 310.857 6276.52 305.875ZM6293.67 276C6288.93 276 6285.09 280.028 6285.09 285C6285.09 289.972 6288.93 294 6293.67 294C6298.4 294 6302.24 289.972 6302.24 285C6302.24 280.028 6298.4 276 6293.67 276Z" fill="#F5F5F5"/>
<path d="M6276.52 305.875H6274.52V306.604L6274.99 307.162L6276.52 305.875ZM6310.81 305.875L6312.34 307.162L6312.81 306.604V305.875H6310.81ZM6278.52 305.875V305H6274.52V305.875H6278.52ZM6278.52 305C6278.52 304.202 6278.89 303.378 6279.79 302.505C6280.71 301.616 6282.07 300.796 6283.72 300.099C6287.05 298.702 6291.07 298 6293.67 298V294C6290.54 294 6285.99 294.806 6282.17 296.412C6280.26 297.217 6278.41 298.273 6277.01 299.633C6275.59 301.009 6274.52 302.806 6274.52 305H6278.52ZM6293.67 298C6296.26 298 6300.29 298.702 6303.61 300.099C6305.27 300.796 6306.63 301.616 6307.54 302.505C6308.44 303.378 6308.81 304.202 6308.81 305H6312.81C6312.81 302.806 6311.75 301.009 6310.33 299.633C6308.92 298.273 6307.07 297.217 6305.16 296.412C6301.34 294.806 6296.79 294 6293.67 294V298ZM6308.81 305V305.875H6312.81V305H6308.81ZM6309.28 304.588C6305.44 309.153 6299.86 312 6293.67 312V316C6301.13 316 6307.8 312.562 6312.34 307.162L6309.28 304.588ZM6293.67 312C6287.47 312 6281.89 309.153 6278.05 304.588L6274.99 307.162C6279.53 312.562 6286.21 316 6293.67 316V312ZM6287.09 285C6287.09 281.039 6290.13 278 6293.67 278V274C6287.74 274 6283.09 279.016 6283.09 285H6287.09ZM6293.67 292C6290.13 292 6287.09 288.961 6287.09 285H6283.09C6283.09 290.984 6287.74 296 6293.67 296V292ZM6300.24 285C6300.24 288.961 6297.21 292 6293.67 292V296C6299.6 296 6304.24 290.984 6304.24 285H6300.24ZM6293.67 278C6297.21 278 6300.24 281.039 6300.24 285H6304.24C6304.24 279.016 6299.6 274 6293.67 274V278Z" fill="#AAAAAA" mask="url(#path-171-inside-5_3003_17253)"/>
</g>
<path d="M5007.95 266H5060.33V306H5007.95V266Z" fill="#F5F5F5"/>
<path d="M5013.95 272L5053.95 300" stroke="#AAAAAA" stroke-width="2"/>
<path d="M5053.95 272L5013.95 300" stroke="#AAAAAA" stroke-width="2"/>
<path d="M5007.95 266V264H5005.95V266H5007.95ZM5060.33 266H5062.33V264H5060.33V266ZM5060.33 306V308H5062.33V306H5060.33ZM5007.95 306H5005.95V308H5007.95V306ZM5007.95 268H5060.33V264H5007.95V268ZM5058.33 266V306H5062.33V266H5058.33ZM5060.33 304H5007.95V308H5060.33V304ZM5009.95 306V266H5005.95V306H5009.95Z" fill="#AAAAAA"/>
<rect x="5267" y="466" width="864" height="498" rx="32" fill="#F5F5F5"/>
<path d="M5327.5 516H5306.5" stroke="#898F9B" stroke-width="2" stroke-linecap="round" stroke-linejoin="round"/>
<path d="M5317 526.5L5306.5 516L5317 505.5" stroke="#898F9B" stroke-width="2" stroke-linecap="round" stroke-linejoin="round"/>
<text fill="black" xml:space="preserve" style="white-space: pre" font-family="Chalkboard" font-size="24" letter-spacing="0em"><tspan x="5548.13" y="524.367">Select required interview skills</tspan></text>
<path d="M6099 549H5299V551H6099V549Z" fill="#B4B4B4" mask="url(#path-178-inside-6_3003_17253)"/>
<path d="M5299 586C5299 583.791 5300.79 582 5303 582H6095C6097.21 582 6099 583.791 6099 586V638C6099 640.209 6097.21 642 6095 642H5303C5300.79 642 5299 640.209 5299 638V586Z" fill="white"/>
<text fill="#7D7D7D" xml:space="preserve" style="white-space: pre" font-family="Chalkboard" font-size="16" letter-spacing="0em"><tspan x="5311" y="605.578">Lorem ipsum dolor sit amet, consectet ui i iadipiscing elit.</tspan></text>
<text fill="#767676" xml:space="preserve" style="white-space: pre" font-family="Chalkboard" font-size="14" letter-spacing="0em"><tspan x="5299" y="574.881">Instructions</tspan></text>
<path d="M6093.5 629.75L6086.75 636.5" stroke="#7D7D7D"/>
<path d="M6093.5 634.25L6091.25 636.5" stroke="#7D7D7D"/>
<path d="M5303 584H6095V580H5303V584ZM6097 586V638H6101V586H6097ZM6095 640H5303V644H6095V640ZM5301 638V586H5297V638H5301ZM5303 640C5301.9 640 5301 639.105 5301 638H5297C5297 641.314 5299.69 644 5303 644V640ZM6097 638C6097 639.105 6096.1 640 6095 640V644C6098.31 644 6101 641.314 6101 638H6097ZM6095 584C6096.1 584 6097 584.895 6097 586H6101C6101 582.686 6098.31 580 6095 580V584ZM5303 580C5299.69 580 5297 582.686 5297 586H5301C5301 584.895 5301.9 584 5303 584V580Z" fill="#AAAAAA"/>
<rect x="5299" y="674" width="800" height="178" rx="8" fill="white"/>
<text fill="black" xml:space="preserve" style="white-space: pre" font-family="Chalkboard" font-size="18" letter-spacing="0em"><tspan x="5331" y="723.275">Select team for this interview</tspan></text>
<text fill="#767676" xml:space="preserve" style="white-space: pre" font-family="Chalkboard" font-size="14" letter-spacing="0em"><tspan x="5331" y="772.881">Invite to specific team</tspan></text>
<rect x="5336" y="797" width="18" height="18" rx="1" fill="#333333"/>
<path d="M5350.99 803L5349.58 801.58L5342.99 808.17L5340.41 805.6L5338.99 807.01L5342.99 811L5350.99 803Z" fill="white"/>
<rect x="5336" y="797" width="18" height="18" rx="1" stroke="#333333" stroke-width="2"/>
<text fill="#7D7D7D" xml:space="preserve" style="white-space: pre" font-family="Chalkboard" font-size="16" letter-spacing="0em"><tspan x="5363" y="810.578">Front-end</tspan></text>
<rect x="5458" y="797" width="18" height="18" rx="1" fill="white"/>
<rect x="5458" y="797" width="18" height="18" rx="1" stroke="#AAAAAA" stroke-width="2"/>
<text fill="#7D7D7D" xml:space="preserve" style="white-space: pre" font-family="Chalkboard" font-size="16" letter-spacing="0em"><tspan x="5485" y="810.578">Portfolio review</tspan></text>
<rect x="5624" y="797" width="18" height="18" rx="1" fill="white"/>
<rect x="5624" y="797" width="18" height="18" rx="1" stroke="#AAAAAA" stroke-width="2"/>
<text fill="#7D7D7D" xml:space="preserve" style="white-space: pre" font-family="Chalkboard" font-size="16" letter-spacing="0em"><tspan x="5651" y="810.578">Cross-functional interview</tspan></text>
<path d="M5845 888C5845 885.791 5846.79 884 5849 884H5931C5933.21 884 5935 885.791 5935 888V928C5935 930.209 5933.21 932 5931 932H5849C5846.79 932 5845 930.209 5845 928V888Z" fill="white"/>
<text fill="#333333" xml:space="preserve" style="white-space: pre" font-family="Chalkboard" font-size="16" letter-spacing="0em"><tspan x="5861" y="913.578">Go back</tspan></text>
<path d="M5849 886H5931V882H5849V886ZM5933 888V928H5937V888H5933ZM5931 930H5849V934H5931V930ZM5847 928V888H5843V928H5847ZM5849 930C5847.9 930 5847 929.105 5847 928H5843C5843 931.314 5845.69 934 5849 934V930ZM5933 928C5933 929.105 5932.1 930 5931 930V934C5934.31 934 5937 931.314 5937 928H5933ZM5931 886C5932.1 886 5933 886.895 5933 888H5937C5937 884.686 5934.31 882 5931 882V886ZM5849 882C5845.69 882 5843 884.686 5843 888H5847C5847 886.895 5847.9 886 5849 886V882Z" fill="#333333"/>
<path d="M5967 888C5967 885.791 5968.79 884 5971 884H6095C6097.21 884 6099 885.791 6099 888V928C6099 930.209 6097.21 932 6095 932H5971C5968.79 932 5967 930.209 5967 928V888Z" fill="#333333"/>
<text fill="white" xml:space="preserve" style="white-space: pre" font-family="Chalkboard" font-size="16" letter-spacing="0em"><tspan x="5983" y="913.578">Add interview</tspan></text>
</g>
<path d="M2867.33 630C2867.33 640.309 2875.69 648.667 2886 648.667C2896.31 648.667 2904.67 640.309 2904.67 630C2904.67 619.691 2896.31 611.333 2886 611.333C2875.69 611.333 2867.33 619.691 2867.33 630ZM3364.47 632.475C3365.84 631.108 3365.84 628.892 3364.47 627.525L3342.2 605.251C3340.83 603.884 3338.62 603.884 3337.25 605.251C3335.88 606.618 3335.88 608.834 3337.25 610.201L3357.05 630L3337.25 649.799C3335.88 651.166 3335.88 653.382 3337.25 654.749C3338.62 656.116 3340.83 656.116 3342.2 654.749L3364.47 632.475ZM2886 633.5H3019.4V626.5H2886V633.5ZM3019.4 633.5H3362V626.5H3019.4V633.5Z" fill="#5384ED"/>
<circle opacity="0.3" cx="2886" cy="630" r="43" fill="#5384ED"/>
<path d="M4507.33 1040C4507.33 1050.31 4515.69 1058.67 4526 1058.67C4536.31 1058.67 4544.67 1050.31 4544.67 1040C4544.67 1029.69 4536.31 1021.33 4526 1021.33C4515.69 1021.33 4507.33 1029.69 4507.33 1040ZM4972.47 1042.47C4973.84 1041.11 4973.84 1038.89 4972.47 1037.53L4950.2 1015.25C4948.83 1013.88 4946.62 1013.88 4945.25 1015.25C4943.88 1016.62 4943.88 1018.83 4945.25 1020.2L4965.05 1040L4945.25 1059.8C4943.88 1061.17 4943.88 1063.38 4945.25 1064.75C4946.62 1066.12 4948.83 1066.12 4950.2 1064.75L4972.47 1042.47ZM4526 1043.5H4650.43V1036.5H4526V1043.5ZM4650.43 1043.5H4970V1036.5H4650.43V1043.5Z" fill="#5384ED"/>
<circle opacity="0.3" cx="4526" cy="1040" r="43" fill="#5384ED"/>
<path d="M5899.67 875C5899.67 864.691 5891.31 856.333 5881 856.333C5870.69 856.333 5862.33 864.691 5862.33 875C5862.33 885.309 5870.69 893.667 5881 893.667C5891.31 893.667 5899.67 885.309 5899.67 875ZM4776.53 872.525C4775.16 873.892 4775.16 876.108 4776.53 877.475L4798.8 899.749C4800.17 901.115 4802.38 901.115 4803.75 899.749C4805.12 898.382 4805.12 896.166 4803.75 894.799L4783.95 875L4803.75 855.201C4805.12 853.834 4805.12 851.618 4803.75 850.251C4802.38 848.884 4800.17 848.884 4798.8 850.251L4776.53 872.525ZM5881 871.5L5572.16 871.5L5572.16 878.5L5881 878.5L5881 871.5ZM5572.16 871.5L4779 871.5L4779 878.5L5572.16 878.5L5572.16 871.5Z" fill="#5384ED"/>
<circle opacity="0.3" cx="5881" cy="875" r="43" transform="rotate(-180 5881 875)" fill="#5384ED"/>
<path d="M4218.67 1043C4218.67 1032.69 4210.31 1024.33 4200 1024.33C4189.69 1024.33 4181.33 1032.69 4181.33 1043C4181.33 1053.31 4189.69 1061.67 4200 1061.67C4210.31 1061.67 4218.67 1053.31 4218.67 1043ZM3171.53 1040.53C3170.16 1041.89 3170.16 1044.11 3171.53 1045.47L3193.8 1067.75C3195.17 1069.12 3197.38 1069.12 3198.75 1067.75C3200.12 1066.38 3200.12 1064.17 3198.75 1062.8L3178.95 1043L3198.75 1023.2C3200.12 1021.83 3200.12 1019.62 3198.75 1018.25C3197.38 1016.88 3195.17 1016.88 3193.8 1018.25L3171.53 1040.53ZM4200 1039.5L3912.46 1039.5L3912.46 1046.5L4200 1046.5L4200 1039.5ZM3912.46 1039.5L3174 1039.5L3174 1046.5L3912.46 1046.5L3912.46 1039.5Z" fill="#5384ED"/>
<circle opacity="0.3" cx="4200" cy="1043" r="43" transform="rotate(-180 4200 1043)" fill="#5384ED"/>
<path d="M6071.33 884C6071.33 894.309 6079.69 902.667 6090 902.667C6100.31 902.667 6108.67 894.309 6108.67 884C6108.67 873.691 6100.31 865.333 6090 865.333C6079.69 865.333 6071.33 873.691 6071.33 884ZM846.525 220.475C847.892 221.842 850.108 221.842 851.475 220.475L873.749 198.201C875.116 196.834 875.116 194.618 873.749 193.251C872.382 191.884 870.166 191.884 868.799 193.251L849 213.05L829.201 193.251C827.834 191.884 825.618 191.884 824.251 193.251C822.884 194.618 822.884 196.834 824.251 198.201L846.525 220.475ZM6093.5 884V171H6086.5V884H6093.5ZM5970 47.5H969V54.5H5970V47.5ZM845.5 171V218H852.5V171H845.5ZM969 47.5C900.793 47.5 845.5 102.793 845.5 171H852.5C852.5 106.659 904.659 54.5 969 54.5V47.5ZM6093.5 171C6093.5 102.793 6038.21 47.5 5970 47.5V54.5C6034.34 54.5 6086.5 106.659 6086.5 171H6093.5Z" fill="#5384ED"/>
<path d="M1544.33 524C1544.33 534.309 1552.69 542.667 1563 542.667C1573.31 542.667 1581.67 534.309 1581.67 524C1581.67 513.691 1573.31 505.333 1563 505.333C1552.69 505.333 1544.33 513.691 1544.33 524ZM1733.47 526.475C1734.84 525.108 1734.84 522.892 1733.47 521.525L1711.2 499.251C1709.83 497.884 1707.62 497.884 1706.25 499.251C1704.88 500.618 1704.88 502.834 1706.25 504.201L1726.05 524L1706.25 543.799C1704.88 545.166 1704.88 547.382 1706.25 548.749C1707.62 550.116 1709.83 550.116 1711.2 548.749L1733.47 526.475ZM1568.89 527.5C1570.82 527.5 1572.39 525.933 1572.39 524C1572.39 522.067 1570.82 520.5 1568.89 520.5V527.5ZM1580.66 520.5C1578.72 520.5 1577.16 522.067 1577.16 524C1577.16 525.933 1578.72 527.5 1580.66 527.5V520.5ZM1592.43 527.5C1594.36 527.5 1595.93 525.933 1595.93 524C1595.93 522.067 1594.36 520.5 1592.43 520.5V527.5ZM1604.2 520.5C1602.26 520.5 1600.7 522.067 1600.7 524C1600.7 525.933 1602.26 527.5 1604.2 527.5V520.5ZM1617.64 527.5C1619.57 527.5 1621.14 525.933 1621.14 524C1621.14 522.067 1619.57 520.5 1617.64 520.5V527.5ZM1632.75 520.5C1630.82 520.5 1629.25 522.067 1629.25 524C1629.25 525.933 1630.82 527.5 1632.75 527.5V520.5ZM1647.87 527.5C1649.8 527.5 1651.37 525.933 1651.37 524C1651.37 522.067 1649.8 520.5 1647.87 520.5V527.5ZM1662.98 520.5C1661.05 520.5 1659.48 522.067 1659.48 524C1659.48 525.933 1661.05 527.5 1662.98 527.5V520.5ZM1678.1 527.5C1680.03 527.5 1681.6 525.933 1681.6 524C1681.6 522.067 1680.03 520.5 1678.1 520.5V527.5ZM1693.21 520.5C1691.28 520.5 1689.71 522.067 1689.71 524C1689.71 525.933 1691.28 527.5 1693.21 527.5V520.5ZM1708.33 527.5C1710.26 527.5 1711.83 525.933 1711.83 524C1711.83 522.067 1710.26 520.5 1708.33 520.5V527.5ZM1723.44 520.5C1721.51 520.5 1719.94 522.067 1719.94 524C1719.94 525.933 1721.51 527.5 1723.44 527.5V520.5ZM1563 527.5H1568.89V520.5H1563V527.5ZM1580.66 527.5H1592.43V520.5H1580.66V527.5ZM1604.2 527.5H1610.08V520.5H1604.2V527.5ZM1610.08 527.5H1617.64V520.5H1610.08V527.5ZM1632.75 527.5H1647.87V520.5H1632.75V527.5ZM1662.98 527.5H1678.1V520.5H1662.98V527.5ZM1693.21 527.5H1708.33V520.5H1693.21V527.5ZM1723.44 527.5H1731V520.5H1723.44V527.5Z" fill="#5384ED"/>
<circle opacity="0.3" cx="6088" cy="884" r="43" fill="#5384ED"/>
<defs>
<filter id="filter0_d_3003_17253" x="119" y="250" width="1448" height="88" filterUnits="userSpaceOnUse" color-interpolation-filters="sRGB">
<feFlood flood-opacity="0" result="BackgroundImageFix"/>
<feColorMatrix in="SourceAlpha" type="matrix" values="0 0 0 0 0 0 0 0 0 0 0 0 0 0 0 0 0 0 127 0" result="hardAlpha"/>
<feOffset dy="4"/>
<feGaussianBlur stdDeviation="2"/>
<feComposite in2="hardAlpha" operator="out"/>
<feColorMatrix type="matrix" values="0 0 0 0 0 0 0 0 0 0 0 0 0 0 0 0 0 0 0.1 0"/>
<feBlend mode="normal" in2="BackgroundImageFix" result="effect1_dropShadow_3003_17253"/>
<feBlend mode="normal" in="SourceGraphic" in2="effect1_dropShadow_3003_17253" result="shape"/>
</filter>
<filter id="filter1_i_3003_17253" x="465" y="483" width="266.667" height="48" filterUnits="userSpaceOnUse" color-interpolation-filters="sRGB">
<feFlood flood-opacity="0" result="BackgroundImageFix"/>
<feBlend mode="normal" in="SourceGraphic" in2="BackgroundImageFix" result="shape"/>
<feColorMatrix in="SourceAlpha" type="matrix" values="0 0 0 0 0 0 0 0 0 0 0 0 0 0 0 0 0 0 127 0" result="hardAlpha"/>
<feOffset dy="-3"/>
<feComposite in2="hardAlpha" operator="arithmetic" k2="-1" k3="1"/>
<feColorMatrix type="matrix" values="0 0 0 0 0.2 0 0 0 0 0.2 0 0 0 0 0.2 0 0 0 1 0"/>
<feBlend mode="normal" in2="shape" result="effect1_innerShadow_3003_17253"/>
</filter>
<filter id="filter2_i_3003_17253" x="998.333" y="483" width="266.667" height="48" filterUnits="userSpaceOnUse" color-interpolation-filters="sRGB">
<feFlood flood-opacity="0" result="BackgroundImageFix"/>
<feBlend mode="normal" in="SourceGraphic" in2="BackgroundImageFix" result="shape"/>
<feColorMatrix in="SourceAlpha" type="matrix" values="0 0 0 0 0 0 0 0 0 0 0 0 0 0 0 0 0 0 127 0" result="hardAlpha"/>
<feOffset dy="-2"/>
<feComposite in2="hardAlpha" operator="arithmetic" k2="-1" k3="1"/>
<feColorMatrix type="matrix" values="0 0 0 0 0.666667 0 0 0 0 0.666667 0 0 0 0 0.666667 0 0 0 1 0"/>
<feBlend mode="normal" in2="shape" result="effect1_innerShadow_3003_17253"/>
</filter>
<filter id="filter3_i_3003_17253" x="731.667" y="483" width="266.667" height="48" filterUnits="userSpaceOnUse" color-interpolation-filters="sRGB">
<feFlood flood-opacity="0" result="BackgroundImageFix"/>
<feBlend mode="normal" in="SourceGraphic" in2="BackgroundImageFix" result="shape"/>
<feColorMatrix in="SourceAlpha" type="matrix" values="0 0 0 0 0 0 0 0 0 0 0 0 0 0 0 0 0 0 127 0" result="hardAlpha"/>
<feOffset dy="-2"/>
<feComposite in2="hardAlpha" operator="arithmetic" k2="-1" k3="1"/>
<feColorMatrix type="matrix" values="0 0 0 0 0.666667 0 0 0 0 0.666667 0 0 0 0 0.666667 0 0 0 1 0"/>
<feBlend mode="normal" in2="shape" result="effect1_innerShadow_3003_17253"/>
</filter>
<filter id="filter4_d_3003_17253" x="1727" y="250" width="1448" height="88" filterUnits="userSpaceOnUse" color-interpolation-filters="sRGB">
<feFlood flood-opacity="0" result="BackgroundImageFix"/>
<feColorMatrix in="SourceAlpha" type="matrix" values="0 0 0 0 0 0 0 0 0 0 0 0 0 0 0 0 0 0 127 0" result="hardAlpha"/>
<feOffset dy="4"/>
<feGaussianBlur stdDeviation="2"/>
<feComposite in2="hardAlpha" operator="out"/>
<feColorMatrix type="matrix" values="0 0 0 0 0 0 0 0 0 0 0 0 0 0 0 0 0 0 0.1 0"/>
<feBlend mode="normal" in2="BackgroundImageFix" result="effect1_dropShadow_3003_17253"/>
<feBlend mode="normal" in="SourceGraphic" in2="effect1_dropShadow_3003_17253" result="shape"/>
</filter>
<filter id="filter5_i_3003_17253" x="2073" y="483" width="266.667" height="48" filterUnits="userSpaceOnUse" color-interpolation-filters="sRGB">
<feFlood flood-opacity="0" result="BackgroundImageFix"/>
<feBlend mode="normal" in="SourceGraphic" in2="BackgroundImageFix" result="shape"/>
<feColorMatrix in="SourceAlpha" type="matrix" values="0 0 0 0 0 0 0 0 0 0 0 0 0 0 0 0 0 0 127 0" result="hardAlpha"/>
<feOffset dy="-3"/>
<feComposite in2="hardAlpha" operator="arithmetic" k2="-1" k3="1"/>
<feColorMatrix type="matrix" values="0 0 0 0 0.2 0 0 0 0 0.2 0 0 0 0 0.2 0 0 0 1 0"/>
<feBlend mode="normal" in2="shape" result="effect1_innerShadow_3003_17253"/>
</filter>
<filter id="filter6_i_3003_17253" x="2606.33" y="483" width="266.667" height="48" filterUnits="userSpaceOnUse" color-interpolation-filters="sRGB">
<feFlood flood-opacity="0" result="BackgroundImageFix"/>
<feBlend mode="normal" in="SourceGraphic" in2="BackgroundImageFix" result="shape"/>
<feColorMatrix in="SourceAlpha" type="matrix" values="0 0 0 0 0 0 0 0 0 0 0 0 0 0 0 0 0 0 127 0" result="hardAlpha"/>
<feOffset dy="-2"/>
<feComposite in2="hardAlpha" operator="arithmetic" k2="-1" k3="1"/>
<feColorMatrix type="matrix" values="0 0 0 0 0.666667 0 0 0 0 0.666667 0 0 0 0 0.666667 0 0 0 1 0"/>
<feBlend mode="normal" in2="shape" result="effect1_innerShadow_3003_17253"/>
</filter>
<filter id="filter7_i_3003_17253" x="2339.67" y="483" width="266.667" height="48" filterUnits="userSpaceOnUse" color-interpolation-filters="sRGB">
<feFlood flood-opacity="0" result="BackgroundImageFix"/>
<feBlend mode="normal" in="SourceGraphic" in2="BackgroundImageFix" result="shape"/>
<feColorMatrix in="SourceAlpha" type="matrix" values="0 0 0 0 0 0 0 0 0 0 0 0 0 0 0 0 0 0 127 0" result="hardAlpha"/>
<feOffset dy="-2"/>
<feComposite in2="hardAlpha" operator="arithmetic" k2="-1" k3="1"/>
<feColorMatrix type="matrix" values="0 0 0 0 0.666667 0 0 0 0 0.666667 0 0 0 0 0.666667 0 0 0 1 0"/>
<feBlend mode="normal" in2="shape" result="effect1_innerShadow_3003_17253"/>
</filter>
<filter id="filter8_d_3003_17253" x="3335" y="250" width="1448" height="88" filterUnits="userSpaceOnUse" color-interpolation-filters="sRGB">
<feFlood flood-opacity="0" result="BackgroundImageFix"/>
<feColorMatrix in="SourceAlpha" type="matrix" values="0 0 0 0 0 0 0 0 0 0 0 0 0 0 0 0 0 0 127 0" result="hardAlpha"/>
<feOffset dy="4"/>
<feGaussianBlur stdDeviation="2"/>
<feComposite in2="hardAlpha" operator="out"/>
<feColorMatrix type="matrix" values="0 0 0 0 0 0 0 0 0 0 0 0 0 0 0 0 0 0 0.1 0"/>
<feBlend mode="normal" in2="BackgroundImageFix" result="effect1_dropShadow_3003_17253"/>
<feBlend mode="normal" in="SourceGraphic" in2="effect1_dropShadow_3003_17253" result="shape"/>
</filter>
<filter id="filter9_d_3003_17253" x="4943" y="250" width="1448" height="88" filterUnits="userSpaceOnUse" color-interpolation-filters="sRGB">
<feFlood flood-opacity="0" result="BackgroundImageFix"/>
<feColorMatrix in="SourceAlpha" type="matrix" values="0 0 0 0 0 0 0 0 0 0 0 0 0 0 0 0 0 0 127 0" result="hardAlpha"/>
<feOffset dy="4"/>
<feGaussianBlur stdDeviation="2"/>
<feComposite in2="hardAlpha" operator="out"/>
<feColorMatrix type="matrix" values="0 0 0 0 0 0 0 0 0 0 0 0 0 0 0 0 0 0 0.1 0"/>
<feBlend mode="normal" in2="BackgroundImageFix" result="effect1_dropShadow_3003_17253"/>
<feBlend mode="normal" in="SourceGraphic" in2="effect1_dropShadow_3003_17253" result="shape"/>
</filter>
<clipPath id="clip0_3003_17253">
<rect width="1440" height="1024" fill="white" transform="translate(123 250)"/>
</clipPath>
<clipPath id="clip1_3003_17253">
<rect width="45.7143" height="48" fill="white" transform="translate(1446.81 266)"/>
</clipPath>
<clipPath id="clip2_3003_17253">
<rect width="1440" height="1024" fill="white" transform="translate(1731 250)"/>
</clipPath>
<clipPath id="clip3_3003_17253">
<rect width="45.7143" height="48" fill="white" transform="translate(3054.81 266)"/>
</clipPath>
<clipPath id="clip4_3003_17253">
<rect width="1440" height="1024" fill="white" transform="translate(3339 250)"/>
</clipPath>
<clipPath id="clip5_3003_17253">
<rect width="45.7143" height="48" fill="white" transform="translate(4662.81 266)"/>
</clipPath>
<clipPath id="clip6_3003_17253">
<rect width="1440" height="1024" fill="white" transform="translate(4947 250)"/>
</clipPath>
<clipPath id="clip7_3003_17253">
<rect width="45.7143" height="48" fill="white" transform="translate(6270.81 266)"/>
</clipPath>
</defs>
</svg>
