<svg width="6509" height="2411" viewBox="0 0 6509 2411" fill="none" xmlns="http://www.w3.org/2000/svg">
<rect width="337" height="83" transform="translate(90 506)" fill="#5384ED"/>
<text fill="white" xml:space="preserve" style="white-space: pre" font-family="Inter" font-size="42" font-weight="500" letter-spacing="0em"><tspan x="122" y="562.773">Landing page</tspan></text>
<g clip-path="url(#clip0_3006_20745)">
<rect width="1440" height="1024" transform="translate(90 589)" fill="white"/>
<g filter="url(#filter0_d_3006_20745)">
<rect x="90" y="589" width="1440" height="80" fill="white"/>
</g>
<g clip-path="url(#clip1_3006_20745)">
<path d="M1458.52 629C1458.52 641.749 1448.69 652 1436.67 652C1424.64 652 1414.81 641.749 1414.81 629C1414.81 616.251 1424.64 606 1436.67 606C1448.69 606 1458.52 616.251 1458.52 629Z" fill="#F5F5F5" stroke="#AAAAAA" stroke-width="2"/>
<mask id="path-4-inside-1_3006_20745" fill="white">
<path fill-rule="evenodd" clip-rule="evenodd" d="M1419.52 644.875V644C1419.52 638.015 1430.95 635 1436.67 635C1442.39 635 1453.81 638.015 1453.81 644V644.875C1449.62 649.857 1443.49 653 1436.67 653C1429.84 653 1423.71 649.857 1419.52 644.875ZM1436.67 615C1431.93 615 1428.1 619.028 1428.1 624C1428.1 628.972 1431.93 633 1436.67 633C1441.4 633 1445.24 628.972 1445.24 624C1445.24 619.028 1441.4 615 1436.67 615Z"/>
</mask>
<path fill-rule="evenodd" clip-rule="evenodd" d="M1419.52 644.875V644C1419.52 638.015 1430.95 635 1436.67 635C1442.39 635 1453.81 638.015 1453.81 644V644.875C1449.62 649.857 1443.49 653 1436.67 653C1429.84 653 1423.71 649.857 1419.52 644.875ZM1436.67 615C1431.93 615 1428.1 619.028 1428.1 624C1428.1 628.972 1431.93 633 1436.67 633C1441.4 633 1445.24 628.972 1445.24 624C1445.24 619.028 1441.4 615 1436.67 615Z" fill="#F5F5F5"/>
<path d="M1419.52 644.875H1417.52V645.604L1417.99 646.162L1419.52 644.875ZM1453.81 644.875L1455.34 646.162L1455.81 645.604V644.875H1453.81ZM1421.52 644.875V644H1417.52V644.875H1421.52ZM1421.52 644C1421.52 643.202 1421.89 642.378 1422.79 641.505C1423.71 640.616 1425.07 639.796 1426.73 639.099C1430.05 637.702 1434.07 637 1436.67 637V633C1433.54 633 1428.99 633.806 1425.17 635.412C1423.26 636.217 1421.41 637.273 1420.01 638.633C1418.59 640.009 1417.52 641.806 1417.52 644H1421.52ZM1436.67 637C1439.26 637 1443.29 637.702 1446.61 639.099C1448.27 639.796 1449.63 640.616 1450.54 641.505C1451.44 642.378 1451.81 643.202 1451.81 644H1455.81C1455.81 641.806 1454.75 640.009 1453.33 638.633C1451.92 637.273 1450.07 636.217 1448.16 635.412C1444.34 633.806 1439.79 633 1436.67 633V637ZM1451.81 644V644.875H1455.81V644H1451.81ZM1452.28 643.588C1448.44 648.153 1442.86 651 1436.67 651V655C1444.13 655 1450.8 651.562 1455.34 646.162L1452.28 643.588ZM1436.67 651C1430.47 651 1424.89 648.153 1421.05 643.588L1417.99 646.162C1422.53 651.562 1429.21 655 1436.67 655V651ZM1430.1 624C1430.1 620.039 1433.13 617 1436.67 617V613C1430.74 613 1426.1 618.016 1426.1 624H1430.1ZM1436.67 631C1433.13 631 1430.1 627.961 1430.1 624H1426.1C1426.1 629.984 1430.74 635 1436.67 635V631ZM1443.24 624C1443.24 627.961 1440.21 631 1436.67 631V635C1442.6 635 1447.24 629.984 1447.24 624H1443.24ZM1436.67 617C1440.21 617 1443.24 620.039 1443.24 624H1447.24C1447.24 618.016 1442.6 613 1436.67 613V617Z" fill="#AAAAAA" mask="url(#path-4-inside-1_3006_20745)"/>
</g>
<path d="M150.952 605H203.333V645H150.952V605Z" fill="#F5F5F5"/>
<path d="M156.952 611L196.952 639" stroke="#AAAAAA" stroke-width="2"/>
<path d="M196.952 611L156.952 639" stroke="#AAAAAA" stroke-width="2"/>
<path d="M150.952 605V603H148.952V605H150.952ZM203.333 605H205.333V603H203.333V605ZM203.333 645V647H205.333V645H203.333ZM150.952 645H148.952V647H150.952V645ZM150.952 607H203.333V603H150.952V607ZM201.333 605V645H205.333V605H201.333ZM203.333 643H150.952V647H203.333V643ZM152.952 645V605H148.952V645H152.952Z" fill="#AAAAAA"/>
<path d="M1333 609C1333 606.791 1334.79 605 1337 605H1456C1458.21 605 1460 606.791 1460 609V649C1460 651.209 1458.21 653 1456 653H1337C1334.79 653 1333 651.209 1333 649V609Z" fill="white"/>
<text fill="#333333" xml:space="preserve" style="white-space: pre" font-family="Chalkboard" font-size="16" letter-spacing="0em"><tspan x="1349" y="634.578">Signup/log in</tspan></text>
<path d="M1337 607H1456V603H1337V607ZM1458 609V649H1462V609H1458ZM1456 651H1337V655H1456V651ZM1335 649V609H1331V649H1335ZM1337 651C1335.9 651 1335 650.105 1335 649H1331C1331 652.314 1333.69 655 1337 655V651ZM1458 649C1458 650.105 1457.1 651 1456 651V655C1459.31 655 1462 652.314 1462 649H1458ZM1456 607C1457.1 607 1458 607.895 1458 609H1462C1462 605.686 1459.31 603 1456 603V607ZM1337 603C1333.69 603 1331 605.686 1331 609H1335C1335 607.895 1335.9 607 1337 607V603Z" fill="#333333"/>
<rect width="635.5" height="24" transform="translate(157 1051)" fill="#F5F5F5"/>
<rect width="635.5" height="24" transform="translate(157 1087)" fill="#F5F5F5"/>
<rect width="635.5" height="24" transform="translate(157 1123)" fill="#F5F5F5"/>
<rect width="635.5" height="24" transform="translate(157 1159)" fill="#F5F5F5"/>
<rect width="635.5" height="24" transform="translate(157 1195)" fill="#F5F5F5"/>
<rect width="635.5" height="24" transform="translate(824.5 1051)" fill="#F5F5F5"/>
<rect width="635.5" height="24" transform="translate(824.5 1087)" fill="#F5F5F5"/>
<rect width="635.5" height="24" transform="translate(824.5 1123)" fill="#F5F5F5"/>
<rect width="235" height="24" transform="translate(157 1405)" fill="#F5F5F5"/>
<rect width="235" height="24" transform="translate(157 1441)" fill="#F5F5F5"/>
<rect width="235" height="24" transform="translate(157 1477)" fill="#F5F5F5"/>
<rect width="235" height="24" transform="translate(157 1513)" fill="#F5F5F5"/>
<rect width="235" height="24" transform="translate(157 1549)" fill="#F5F5F5"/>
<rect width="235" height="24" transform="translate(424 1405)" fill="#F5F5F5"/>
<rect width="235" height="24" transform="translate(424 1441)" fill="#F5F5F5"/>
<rect width="235" height="24" transform="translate(424 1477)" fill="#F5F5F5"/>
<rect width="235" height="24" transform="translate(424 1513)" fill="#F5F5F5"/>
<rect width="235" height="24" transform="translate(691 1405)" fill="#F5F5F5"/>
<rect width="235" height="24" transform="translate(691 1441)" fill="#F5F5F5"/>
<rect width="235" height="24" transform="translate(691 1477)" fill="#F5F5F5"/>
<rect width="235" height="24" transform="translate(958 1405)" fill="#F5F5F5"/>
<rect width="235" height="24" transform="translate(958 1441)" fill="#F5F5F5"/>
<rect width="235" height="24" transform="translate(958 1477)" fill="#F5F5F5"/>
<rect width="235" height="24" transform="translate(958 1513)" fill="#F5F5F5"/>
<rect width="235" height="24" transform="translate(1225 1405)" fill="#F5F5F5"/>
<rect width="235" height="24" transform="translate(1225 1441)" fill="#F5F5F5"/>
<rect width="235" height="24" transform="translate(1225 1477)" fill="#F5F5F5"/>
<rect width="235" height="24" transform="translate(1225 1513)" fill="#F5F5F5"/>
<rect width="235" height="24" transform="translate(1225 1549)" fill="#F5F5F5"/>
<path d="M90 669H1530V1019H90V669Z" fill="#F5F5F5"/>
<path d="M96 675L1524 1013" stroke="#AAAAAA" stroke-width="2"/>
<path d="M1524 675L96 1013" stroke="#AAAAAA" stroke-width="2"/>
<path d="M90 669V667H88V669H90ZM1530 669H1532V667H1530V669ZM1530 1019V1021H1532V1019H1530ZM90 1019H88V1021H90V1019ZM90 671H1530V667H90V671ZM1528 669V1019H1532V669H1528ZM1530 1017H90V1021H1530V1017ZM92 1019V669H88V1019H92Z" fill="#AAAAAA"/>
<path d="M157 1266H392V1373H157V1266Z" fill="#F5F5F5"/>
<path d="M163 1272L386 1367" stroke="#AAAAAA" stroke-width="2"/>
<path d="M386 1272L163 1367" stroke="#AAAAAA" stroke-width="2"/>
<path d="M157 1266V1264H155V1266H157ZM392 1266H394V1264H392V1266ZM392 1373V1375H394V1373H392ZM157 1373H155V1375H157V1373ZM157 1268H392V1264H157V1268ZM390 1266V1373H394V1266H390ZM392 1371H157V1375H392V1371ZM159 1373V1266H155V1373H159Z" fill="#AAAAAA"/>
<path d="M424 1266H659V1373H424V1266Z" fill="#F5F5F5"/>
<path d="M430 1272L653 1367" stroke="#AAAAAA" stroke-width="2"/>
<path d="M653 1272L430 1367" stroke="#AAAAAA" stroke-width="2"/>
<path d="M424 1266V1264H422V1266H424ZM659 1266H661V1264H659V1266ZM659 1373V1375H661V1373H659ZM424 1373H422V1375H424V1373ZM424 1268H659V1264H424V1268ZM657 1266V1373H661V1266H657ZM659 1371H424V1375H659V1371ZM426 1373V1266H422V1373H426Z" fill="#AAAAAA"/>
<path d="M691 1266H926V1373H691V1266Z" fill="#F5F5F5"/>
<path d="M697 1272L920 1367" stroke="#AAAAAA" stroke-width="2"/>
<path d="M920 1272L697 1367" stroke="#AAAAAA" stroke-width="2"/>
<path d="M691 1266V1264H689V1266H691ZM926 1266H928V1264H926V1266ZM926 1373V1375H928V1373H926ZM691 1373H689V1375H691V1373ZM691 1268H926V1264H691V1268ZM924 1266V1373H928V1266H924ZM926 1371H691V1375H926V1371ZM693 1373V1266H689V1373H693Z" fill="#AAAAAA"/>
<path d="M958 1266H1193V1373H958V1266Z" fill="#F5F5F5"/>
<path d="M964 1272L1187 1367" stroke="#AAAAAA" stroke-width="2"/>
<path d="M1187 1272L964 1367" stroke="#AAAAAA" stroke-width="2"/>
<path d="M958 1266V1264H956V1266H958ZM1193 1266H1195V1264H1193V1266ZM1193 1373V1375H1195V1373H1193ZM958 1373H956V1375H958V1373ZM958 1268H1193V1264H958V1268ZM1191 1266V1373H1195V1266H1191ZM1193 1371H958V1375H1193V1371ZM960 1373V1266H956V1373H960Z" fill="#AAAAAA"/>
<path d="M1225 1266H1460V1373H1225V1266Z" fill="#F5F5F5"/>
<path d="M1231 1272L1454 1367" stroke="#AAAAAA" stroke-width="2"/>
<path d="M1454 1272L1231 1367" stroke="#AAAAAA" stroke-width="2"/>
<path d="M1225 1266V1264H1223V1266H1225ZM1460 1266H1462V1264H1460V1266ZM1460 1373V1375H1462V1373H1460ZM1225 1373H1223V1375H1225V1373ZM1225 1268H1460V1264H1225V1268ZM1458 1266V1373H1462V1266H1458ZM1460 1371H1225V1375H1460V1371ZM1227 1373V1266H1223V1373H1227Z" fill="#AAAAAA"/>
</g>
<rect width="186" height="83" transform="translate(3306 35)" fill="#5384ED"/>
<text fill="white" xml:space="preserve" style="white-space: pre" font-family="Inter" font-size="42" font-weight="500" letter-spacing="0em"><tspan x="3338" y="91.7727">Log in</tspan></text>
<g clip-path="url(#clip2_3006_20745)">
<rect width="1440" height="1024" transform="translate(3306 118)" fill="white"/>
<g filter="url(#filter1_d_3006_20745)">
<rect x="3306" y="118" width="1440" height="80" fill="white"/>
</g>
<g clip-path="url(#clip3_3006_20745)">
<path d="M4674.52 158C4674.52 170.749 4664.69 181 4652.67 181C4640.64 181 4630.81 170.749 4630.81 158C4630.81 145.251 4640.64 135 4652.67 135C4664.69 135 4674.52 145.251 4674.52 158Z" fill="#F5F5F5" stroke="#AAAAAA" stroke-width="2"/>
<mask id="path-40-inside-2_3006_20745" fill="white">
<path fill-rule="evenodd" clip-rule="evenodd" d="M4635.52 173.875V173C4635.52 167.015 4646.94 164 4652.67 164C4658.39 164 4669.81 167.015 4669.81 173V173.875C4665.62 178.857 4659.49 182 4652.67 182C4645.84 182 4639.71 178.857 4635.52 173.875ZM4652.67 144C4647.93 144 4644.09 148.028 4644.09 153C4644.09 157.972 4647.93 162 4652.67 162C4657.4 162 4661.24 157.972 4661.24 153C4661.24 148.028 4657.4 144 4652.67 144Z"/>
</mask>
<path fill-rule="evenodd" clip-rule="evenodd" d="M4635.52 173.875V173C4635.52 167.015 4646.94 164 4652.67 164C4658.39 164 4669.81 167.015 4669.81 173V173.875C4665.62 178.857 4659.49 182 4652.67 182C4645.84 182 4639.71 178.857 4635.52 173.875ZM4652.67 144C4647.93 144 4644.09 148.028 4644.09 153C4644.09 157.972 4647.93 162 4652.67 162C4657.4 162 4661.24 157.972 4661.24 153C4661.24 148.028 4657.4 144 4652.67 144Z" fill="#F5F5F5"/>
<path d="M4635.52 173.875H4633.52V174.604L4633.99 175.162L4635.52 173.875ZM4669.81 173.875L4671.34 175.162L4671.81 174.604V173.875H4669.81ZM4637.52 173.875V173H4633.52V173.875H4637.52ZM4637.52 173C4637.52 172.202 4637.89 171.378 4638.79 170.505C4639.71 169.616 4641.07 168.796 4642.72 168.099C4646.05 166.702 4650.07 166 4652.67 166V162C4649.54 162 4644.99 162.806 4641.17 164.412C4639.26 165.217 4637.41 166.273 4636.01 167.633C4634.59 169.009 4633.52 170.806 4633.52 173H4637.52ZM4652.67 166C4655.26 166 4659.29 166.702 4662.61 168.099C4664.27 168.796 4665.63 169.616 4666.54 170.505C4667.44 171.378 4667.81 172.202 4667.81 173H4671.81C4671.81 170.806 4670.75 169.009 4669.33 167.633C4667.92 166.273 4666.07 165.217 4664.16 164.412C4660.34 162.806 4655.79 162 4652.67 162V166ZM4667.81 173V173.875H4671.81V173H4667.81ZM4668.28 172.588C4664.44 177.153 4658.86 180 4652.67 180V184C4660.13 184 4666.8 180.562 4671.34 175.162L4668.28 172.588ZM4652.67 180C4646.47 180 4640.89 177.153 4637.05 172.588L4633.99 175.162C4638.53 180.562 4645.21 184 4652.67 184V180ZM4646.09 153C4646.09 149.039 4649.13 146 4652.67 146V142C4646.74 142 4642.09 147.016 4642.09 153H4646.09ZM4652.67 160C4649.13 160 4646.09 156.961 4646.09 153H4642.09C4642.09 158.984 4646.74 164 4652.67 164V160ZM4659.24 153C4659.24 156.961 4656.21 160 4652.67 160V164C4658.6 164 4663.24 158.984 4663.24 153H4659.24ZM4652.67 146C4656.21 146 4659.24 149.039 4659.24 153H4663.24C4663.24 147.016 4658.6 142 4652.67 142V146Z" fill="#AAAAAA" mask="url(#path-40-inside-2_3006_20745)"/>
</g>
<path d="M3366.95 134H3419.33V174H3366.95V134Z" fill="#F5F5F5"/>
<path d="M3372.95 140L3412.95 168" stroke="#AAAAAA" stroke-width="2"/>
<path d="M3412.95 140L3372.95 168" stroke="#AAAAAA" stroke-width="2"/>
<path d="M3366.95 134V132H3364.95V134H3366.95ZM3419.33 134H3421.33V132H3419.33V134ZM3419.33 174V176H3421.33V174H3419.33ZM3366.95 174H3364.95V176H3366.95V174ZM3366.95 136H3419.33V132H3366.95V136ZM3417.33 134V174H3421.33V134H3417.33ZM3419.33 172H3366.95V176H3419.33V172ZM3368.95 174V134H3364.95V174H3368.95Z" fill="#AAAAAA"/>
<path d="M4549 138C4549 135.791 4550.79 134 4553 134H4672C4674.21 134 4676 135.791 4676 138V178C4676 180.209 4674.21 182 4672 182H4553C4550.79 182 4549 180.209 4549 178V138Z" fill="white"/>
<text fill="#333333" xml:space="preserve" style="white-space: pre" font-family="Chalkboard" font-size="16" letter-spacing="0em"><tspan x="4565" y="163.578">Signup/log in</tspan></text>
<path d="M4553 136H4672V132H4553V136ZM4674 138V178H4678V138H4674ZM4672 180H4553V184H4672V180ZM4551 178V138H4547V178H4551ZM4553 180C4551.9 180 4551 179.105 4551 178H4547C4547 181.314 4549.69 184 4553 184V180ZM4674 178C4674 179.105 4673.1 180 4672 180V184C4675.31 184 4678 181.314 4678 178H4674ZM4672 136C4673.1 136 4674 136.895 4674 138H4678C4678 134.686 4675.31 132 4672 132V136ZM4553 132C4549.69 132 4547 134.686 4547 138H4551C4551 136.895 4551.9 136 4553 136V132Z" fill="#333333"/>
<rect width="635.5" height="24" transform="translate(3373 580)" fill="#F5F5F5"/>
<rect width="635.5" height="24" transform="translate(3373 616)" fill="#F5F5F5"/>
<rect width="635.5" height="24" transform="translate(3373 652)" fill="#F5F5F5"/>
<rect width="635.5" height="24" transform="translate(3373 688)" fill="#F5F5F5"/>
<rect width="635.5" height="24" transform="translate(3373 724)" fill="#F5F5F5"/>
<rect width="635.5" height="24" transform="translate(4040.5 580)" fill="#F5F5F5"/>
<rect width="635.5" height="24" transform="translate(4040.5 616)" fill="#F5F5F5"/>
<rect width="635.5" height="24" transform="translate(4040.5 652)" fill="#F5F5F5"/>
<rect width="235" height="24" transform="translate(3373 934)" fill="#F5F5F5"/>
<rect width="235" height="24" transform="translate(3373 970)" fill="#F5F5F5"/>
<rect width="235" height="24" transform="translate(3373 1006)" fill="#F5F5F5"/>
<rect width="235" height="24" transform="translate(3373 1042)" fill="#F5F5F5"/>
<rect width="235" height="24" transform="translate(3373 1078)" fill="#F5F5F5"/>
<rect width="235" height="24" transform="translate(3640 934)" fill="#F5F5F5"/>
<rect width="235" height="24" transform="translate(3640 970)" fill="#F5F5F5"/>
<rect width="235" height="24" transform="translate(3640 1006)" fill="#F5F5F5"/>
<rect width="235" height="24" transform="translate(3640 1042)" fill="#F5F5F5"/>
<rect width="235" height="24" transform="translate(3907 934)" fill="#F5F5F5"/>
<rect width="235" height="24" transform="translate(3907 970)" fill="#F5F5F5"/>
<rect width="235" height="24" transform="translate(3907 1006)" fill="#F5F5F5"/>
<rect width="235" height="24" transform="translate(4174 934)" fill="#F5F5F5"/>
<rect width="235" height="24" transform="translate(4174 970)" fill="#F5F5F5"/>
<rect width="235" height="24" transform="translate(4174 1006)" fill="#F5F5F5"/>
<rect width="235" height="24" transform="translate(4174 1042)" fill="#F5F5F5"/>
<rect width="235" height="24" transform="translate(4441 934)" fill="#F5F5F5"/>
<rect width="235" height="24" transform="translate(4441 970)" fill="#F5F5F5"/>
<rect width="235" height="24" transform="translate(4441 1006)" fill="#F5F5F5"/>
<rect width="235" height="24" transform="translate(4441 1042)" fill="#F5F5F5"/>
<rect width="235" height="24" transform="translate(4441 1078)" fill="#F5F5F5"/>
<path d="M3306 198H4746V548H3306V198Z" fill="#F5F5F5"/>
<path d="M3312 204L4740 542" stroke="#AAAAAA" stroke-width="2"/>
<path d="M4740 204L3312 542" stroke="#AAAAAA" stroke-width="2"/>
<path d="M3306 198V196H3304V198H3306ZM4746 198H4748V196H4746V198ZM4746 548V550H4748V548H4746ZM3306 548H3304V550H3306V548ZM3306 200H4746V196H3306V200ZM4744 198V548H4748V198H4744ZM4746 546H3306V550H4746V546ZM3308 548V198H3304V548H3308Z" fill="#AAAAAA"/>
<path d="M3373 795H3608V902H3373V795Z" fill="#F5F5F5"/>
<path d="M3379 801L3602 896" stroke="#AAAAAA" stroke-width="2"/>
<path d="M3602 801L3379 896" stroke="#AAAAAA" stroke-width="2"/>
<path d="M3373 795V793H3371V795H3373ZM3608 795H3610V793H3608V795ZM3608 902V904H3610V902H3608ZM3373 902H3371V904H3373V902ZM3373 797H3608V793H3373V797ZM3606 795V902H3610V795H3606ZM3608 900H3373V904H3608V900ZM3375 902V795H3371V902H3375Z" fill="#AAAAAA"/>
<path d="M3640 795H3875V902H3640V795Z" fill="#F5F5F5"/>
<path d="M3646 801L3869 896" stroke="#AAAAAA" stroke-width="2"/>
<path d="M3869 801L3646 896" stroke="#AAAAAA" stroke-width="2"/>
<path d="M3640 795V793H3638V795H3640ZM3875 795H3877V793H3875V795ZM3875 902V904H3877V902H3875ZM3640 902H3638V904H3640V902ZM3640 797H3875V793H3640V797ZM3873 795V902H3877V795H3873ZM3875 900H3640V904H3875V900ZM3642 902V795H3638V902H3642Z" fill="#AAAAAA"/>
<path d="M3907 795H4142V902H3907V795Z" fill="#F5F5F5"/>
<path d="M3913 801L4136 896" stroke="#AAAAAA" stroke-width="2"/>
<path d="M4136 801L3913 896" stroke="#AAAAAA" stroke-width="2"/>
<path d="M3907 795V793H3905V795H3907ZM4142 795H4144V793H4142V795ZM4142 902V904H4144V902H4142ZM3907 902H3905V904H3907V902ZM3907 797H4142V793H3907V797ZM4140 795V902H4144V795H4140ZM4142 900H3907V904H4142V900ZM3909 902V795H3905V902H3909Z" fill="#AAAAAA"/>
<path d="M4174 795H4409V902H4174V795Z" fill="#F5F5F5"/>
<path d="M4180 801L4403 896" stroke="#AAAAAA" stroke-width="2"/>
<path d="M4403 801L4180 896" stroke="#AAAAAA" stroke-width="2"/>
<path d="M4174 795V793H4172V795H4174ZM4409 795H4411V793H4409V795ZM4409 902V904H4411V902H4409ZM4174 902H4172V904H4174V902ZM4174 797H4409V793H4174V797ZM4407 795V902H4411V795H4407ZM4409 900H4174V904H4409V900ZM4176 902V795H4172V902H4176Z" fill="#AAAAAA"/>
<path d="M4441 795H4676V902H4441V795Z" fill="#F5F5F5"/>
<path d="M4447 801L4670 896" stroke="#AAAAAA" stroke-width="2"/>
<path d="M4670 801L4447 896" stroke="#AAAAAA" stroke-width="2"/>
<path d="M4441 795V793H4439V795H4441ZM4676 795H4678V793H4676V795ZM4676 902V904H4678V902H4676ZM4441 902H4439V904H4441V902ZM4441 797H4676V793H4441V797ZM4674 795V902H4678V795H4674ZM4676 900H4441V904H4676V900ZM4443 902V795H4439V902H4443Z" fill="#AAAAAA"/>
<rect x="3306" y="118" width="1440" height="1024" fill="#D9D9D9" fill-opacity="0.7"/>
<rect x="3798" y="420" width="453" height="368" rx="32" fill="#F5F5F5"/>
<path d="M3849 464H3835" stroke="#898F9B" stroke-width="2" stroke-linecap="round" stroke-linejoin="round"/>
<path d="M3842 471L3835 464L3842 457" stroke="#898F9B" stroke-width="2" stroke-linecap="round" stroke-linejoin="round"/>
<text fill="black" xml:space="preserve" style="white-space: pre" font-family="Chalkboard" font-size="24" letter-spacing="0em"><tspan x="3870" y="473.367">Welcome to APPOINTA</tspan></text>
<text fill="black" xml:space="preserve" style="white-space: pre" font-family="Chalkboard" font-size="18" letter-spacing="0em"><tspan x="3830" y="527.275">Enter your password</tspan></text>
<path d="M3830 568C3830 565.791 3831.79 564 3834 564H4215C4217.21 564 4219 565.791 4219 568V608C4219 610.209 4217.21 612 4215 612H3834C3831.79 612 3830 610.209 3830 608V568Z" fill="white"/>
<path d="M4180 588C4180 588 4184 580 4191 580C4198 580 4202 588 4202 588C4202 588 4198 596 4191 596C4184 596 4180 588 4180 588Z" stroke="#898F9B" stroke-width="2" stroke-linecap="round" stroke-linejoin="round"/>
<path d="M4191 591C4192.66 591 4194 589.657 4194 588C4194 586.343 4192.66 585 4191 585C4189.34 585 4188 586.343 4188 588C4188 589.657 4189.34 591 4191 591Z" stroke="#898F9B" stroke-width="2" stroke-linecap="round" stroke-linejoin="round"/>
<text fill="#7D7D7D" xml:space="preserve" style="white-space: pre" font-family="Chalkboard" font-size="16" font-weight="bold" letter-spacing="0em"><tspan x="3846" y="593.578">**********</tspan></text>
<text fill="#767676" xml:space="preserve" style="white-space: pre" font-family="Chalkboard" font-size="14" letter-spacing="0em"><tspan x="3830" y="556.881">Password</tspan></text>
<path d="M3834 566H4215V562H3834V566ZM4217 568V608H4221V568H4217ZM4215 610H3834V614H4215V610ZM3832 608V568H3828V608H3832ZM3834 610C3832.9 610 3832 609.105 3832 608H3828C3828 611.314 3830.69 614 3834 614V610ZM4217 608C4217 609.105 4216.1 610 4215 610V614C4218.31 614 4221 611.314 4221 608H4217ZM4215 566C4216.1 566 4217 566.895 4217 568H4221C4221 564.686 4218.31 562 4215 562V566ZM3834 562C3830.69 562 3828 564.686 3828 568H3832C3832 566.895 3832.9 566 3834 566V562Z" fill="#AAAAAA"/>
<path d="M3830 660C3830 651.163 3837.16 644 3846 644H3992.5C4001.34 644 4008.5 651.163 4008.5 660V660C4008.5 668.837 4001.34 676 3992.5 676H3846C3837.16 676 3830 668.837 3830 660V660Z" fill="white"/>
<text fill="#333333" xml:space="preserve" style="white-space: pre" font-family="Chalkboard" font-size="16" letter-spacing="0em"><tspan x="3860.25" y="665.578">Forget password</tspan></text>
<path d="M3846 646H3992.5V642H3846V646ZM3992.5 674H3846V678H3992.5V674ZM3846 674C3838.27 674 3832 667.732 3832 660H3828C3828 669.941 3836.06 678 3846 678V674ZM4006.5 660C4006.5 667.732 4000.23 674 3992.5 674V678C4002.44 678 4010.5 669.941 4010.5 660H4006.5ZM3992.5 646C4000.23 646 4006.5 652.268 4006.5 660H4010.5C4010.5 650.059 4002.44 642 3992.5 642V646ZM3846 642C3836.06 642 3828 650.059 3828 660H3832C3832 652.268 3838.27 646 3846 646V642Z" fill="#333333"/>
<path d="M4040.5 660C4040.5 651.163 4047.66 644 4056.5 644H4203C4211.84 644 4219 651.163 4219 660V660C4219 668.837 4211.84 676 4203 676H4056.5C4047.66 676 4040.5 668.837 4040.5 660V660Z" fill="white"/>
<text fill="#333333" xml:space="preserve" style="white-space: pre" font-family="Chalkboard" font-size="16" letter-spacing="0em"><tspan x="4050.75" y="665.578">Change email address</tspan></text>
<path d="M4056.5 646H4203V642H4056.5V646ZM4203 674H4056.5V678H4203V674ZM4056.5 674C4048.77 674 4042.5 667.732 4042.5 660H4038.5C4038.5 669.941 4046.56 678 4056.5 678V674ZM4217 660C4217 667.732 4210.73 674 4203 674V678C4212.94 678 4221 669.941 4221 660H4217ZM4203 646C4210.73 646 4217 652.268 4217 660H4221C4221 650.059 4212.94 642 4203 642V646ZM4056.5 642C4046.56 642 4038.5 650.059 4038.5 660H4042.5C4042.5 652.268 4048.77 646 4056.5 646V642Z" fill="#333333"/>
<path d="M3830 712C3830 709.791 3831.79 708 3834 708H4215C4217.21 708 4219 709.791 4219 712V752C4219 754.209 4217.21 756 4215 756H3834C3831.79 756 3830 754.209 3830 752V712Z" fill="#333333"/>
<text fill="white" xml:space="preserve" style="white-space: pre" font-family="Chalkboard" font-size="16" letter-spacing="0em"><tspan x="3993" y="737.578">Continue</tspan></text>
</g>
<rect width="370" height="83" transform="translate(1698 506)" fill="#5384ED"/>
<text fill="white" xml:space="preserve" style="white-space: pre" font-family="Inter" font-size="42" font-weight="500" letter-spacing="0em"><tspan x="1730" y="562.773">Log in / sign up</tspan></text>
<g clip-path="url(#clip4_3006_20745)">
<rect width="1440" height="1024" transform="translate(1698 589)" fill="white"/>
<g filter="url(#filter2_d_3006_20745)">
<rect x="1698" y="589" width="1440" height="80" fill="white"/>
</g>
<g clip-path="url(#clip5_3006_20745)">
<path d="M3066.52 629C3066.52 641.749 3056.69 652 3044.67 652C3032.64 652 3022.81 641.749 3022.81 629C3022.81 616.251 3032.64 606 3044.67 606C3056.69 606 3066.52 616.251 3066.52 629Z" fill="#F5F5F5" stroke="#AAAAAA" stroke-width="2"/>
<mask id="path-96-inside-3_3006_20745" fill="white">
<path fill-rule="evenodd" clip-rule="evenodd" d="M3027.52 644.875V644C3027.52 638.015 3038.94 635 3044.67 635C3050.39 635 3061.81 638.015 3061.81 644V644.875C3057.62 649.857 3051.49 653 3044.67 653C3037.84 653 3031.71 649.857 3027.52 644.875ZM3044.67 615C3039.93 615 3036.09 619.028 3036.09 624C3036.09 628.972 3039.93 633 3044.67 633C3049.4 633 3053.24 628.972 3053.24 624C3053.24 619.028 3049.4 615 3044.67 615Z"/>
</mask>
<path fill-rule="evenodd" clip-rule="evenodd" d="M3027.52 644.875V644C3027.52 638.015 3038.94 635 3044.67 635C3050.39 635 3061.81 638.015 3061.81 644V644.875C3057.62 649.857 3051.49 653 3044.67 653C3037.84 653 3031.71 649.857 3027.52 644.875ZM3044.67 615C3039.93 615 3036.09 619.028 3036.09 624C3036.09 628.972 3039.93 633 3044.67 633C3049.4 633 3053.24 628.972 3053.24 624C3053.24 619.028 3049.4 615 3044.67 615Z" fill="#F5F5F5"/>
<path d="M3027.52 644.875H3025.52V645.604L3025.99 646.162L3027.52 644.875ZM3061.81 644.875L3063.34 646.162L3063.81 645.604V644.875H3061.81ZM3029.52 644.875V644H3025.52V644.875H3029.52ZM3029.52 644C3029.52 643.202 3029.89 642.378 3030.79 641.505C3031.71 640.616 3033.07 639.796 3034.72 639.099C3038.05 637.702 3042.07 637 3044.67 637V633C3041.54 633 3036.99 633.806 3033.17 635.412C3031.26 636.217 3029.41 637.273 3028.01 638.633C3026.59 640.009 3025.52 641.806 3025.52 644H3029.52ZM3044.67 637C3047.26 637 3051.29 637.702 3054.61 639.099C3056.27 639.796 3057.63 640.616 3058.54 641.505C3059.44 642.378 3059.81 643.202 3059.81 644H3063.81C3063.81 641.806 3062.75 640.009 3061.33 638.633C3059.92 637.273 3058.07 636.217 3056.16 635.412C3052.34 633.806 3047.79 633 3044.67 633V637ZM3059.81 644V644.875H3063.81V644H3059.81ZM3060.28 643.588C3056.44 648.153 3050.86 651 3044.67 651V655C3052.13 655 3058.8 651.562 3063.34 646.162L3060.28 643.588ZM3044.67 651C3038.47 651 3032.89 648.153 3029.05 643.588L3025.99 646.162C3030.53 651.562 3037.21 655 3044.67 655V651ZM3038.09 624C3038.09 620.039 3041.13 617 3044.67 617V613C3038.74 613 3034.09 618.016 3034.09 624H3038.09ZM3044.67 631C3041.13 631 3038.09 627.961 3038.09 624H3034.09C3034.09 629.984 3038.74 635 3044.67 635V631ZM3051.24 624C3051.24 627.961 3048.21 631 3044.67 631V635C3050.6 635 3055.24 629.984 3055.24 624H3051.24ZM3044.67 617C3048.21 617 3051.24 620.039 3051.24 624H3055.24C3055.24 618.016 3050.6 613 3044.67 613V617Z" fill="#AAAAAA" mask="url(#path-96-inside-3_3006_20745)"/>
</g>
<path d="M1758.95 605H1811.33V645H1758.95V605Z" fill="#F5F5F5"/>
<path d="M1764.95 611L1804.95 639" stroke="#AAAAAA" stroke-width="2"/>
<path d="M1804.95 611L1764.95 639" stroke="#AAAAAA" stroke-width="2"/>
<path d="M1758.95 605V603H1756.95V605H1758.95ZM1811.33 605H1813.33V603H1811.33V605ZM1811.33 645V647H1813.33V645H1811.33ZM1758.95 645H1756.95V647H1758.95V645ZM1758.95 607H1811.33V603H1758.95V607ZM1809.33 605V645H1813.33V605H1809.33ZM1811.33 643H1758.95V647H1811.33V643ZM1760.95 645V605H1756.95V645H1760.95Z" fill="#AAAAAA"/>
<path d="M2941 609C2941 606.791 2942.79 605 2945 605H3064C3066.21 605 3068 606.791 3068 609V649C3068 651.209 3066.21 653 3064 653H2945C2942.79 653 2941 651.209 2941 649V609Z" fill="white"/>
<text fill="#333333" xml:space="preserve" style="white-space: pre" font-family="Chalkboard" font-size="16" letter-spacing="0em"><tspan x="2957" y="634.578">Signup/log in</tspan></text>
<path d="M2945 607H3064V603H2945V607ZM3066 609V649H3070V609H3066ZM3064 651H2945V655H3064V651ZM2943 649V609H2939V649H2943ZM2945 651C2943.9 651 2943 650.105 2943 649H2939C2939 652.314 2941.69 655 2945 655V651ZM3066 649C3066 650.105 3065.1 651 3064 651V655C3067.31 655 3070 652.314 3070 649H3066ZM3064 607C3065.1 607 3066 607.895 3066 609H3070C3070 605.686 3067.31 603 3064 603V607ZM2945 603C2941.69 603 2939 605.686 2939 609H2943C2943 607.895 2943.9 607 2945 607V603Z" fill="#333333"/>
<rect width="635.5" height="24" transform="translate(1765 1051)" fill="#F5F5F5"/>
<rect width="635.5" height="24" transform="translate(1765 1087)" fill="#F5F5F5"/>
<rect width="635.5" height="24" transform="translate(1765 1123)" fill="#F5F5F5"/>
<rect width="635.5" height="24" transform="translate(1765 1159)" fill="#F5F5F5"/>
<rect width="635.5" height="24" transform="translate(1765 1195)" fill="#F5F5F5"/>
<rect width="635.5" height="24" transform="translate(2432.5 1051)" fill="#F5F5F5"/>
<rect width="635.5" height="24" transform="translate(2432.5 1087)" fill="#F5F5F5"/>
<rect width="635.5" height="24" transform="translate(2432.5 1123)" fill="#F5F5F5"/>
<rect width="235" height="24" transform="translate(1765 1405)" fill="#F5F5F5"/>
<rect width="235" height="24" transform="translate(1765 1441)" fill="#F5F5F5"/>
<rect width="235" height="24" transform="translate(1765 1477)" fill="#F5F5F5"/>
<rect width="235" height="24" transform="translate(1765 1513)" fill="#F5F5F5"/>
<rect width="235" height="24" transform="translate(1765 1549)" fill="#F5F5F5"/>
<rect width="235" height="24" transform="translate(2032 1405)" fill="#F5F5F5"/>
<rect width="235" height="24" transform="translate(2032 1441)" fill="#F5F5F5"/>
<rect width="235" height="24" transform="translate(2032 1477)" fill="#F5F5F5"/>
<rect width="235" height="24" transform="translate(2032 1513)" fill="#F5F5F5"/>
<rect width="235" height="24" transform="translate(2299 1405)" fill="#F5F5F5"/>
<rect width="235" height="24" transform="translate(2299 1441)" fill="#F5F5F5"/>
<rect width="235" height="24" transform="translate(2299 1477)" fill="#F5F5F5"/>
<rect width="235" height="24" transform="translate(2566 1405)" fill="#F5F5F5"/>
<rect width="235" height="24" transform="translate(2566 1441)" fill="#F5F5F5"/>
<rect width="235" height="24" transform="translate(2566 1477)" fill="#F5F5F5"/>
<rect width="235" height="24" transform="translate(2566 1513)" fill="#F5F5F5"/>
<rect width="235" height="24" transform="translate(2833 1405)" fill="#F5F5F5"/>
<rect width="235" height="24" transform="translate(2833 1441)" fill="#F5F5F5"/>
<rect width="235" height="24" transform="translate(2833 1477)" fill="#F5F5F5"/>
<rect width="235" height="24" transform="translate(2833 1513)" fill="#F5F5F5"/>
<rect width="235" height="24" transform="translate(2833 1549)" fill="#F5F5F5"/>
<path d="M1698 669H3138V1019H1698V669Z" fill="#F5F5F5"/>
<path d="M1704 675L3132 1013" stroke="#AAAAAA" stroke-width="2"/>
<path d="M3132 675L1704 1013" stroke="#AAAAAA" stroke-width="2"/>
<path d="M1698 669V667H1696V669H1698ZM3138 669H3140V667H3138V669ZM3138 1019V1021H3140V1019H3138ZM1698 1019H1696V1021H1698V1019ZM1698 671H3138V667H1698V671ZM3136 669V1019H3140V669H3136ZM3138 1017H1698V1021H3138V1017ZM1700 1019V669H1696V1019H1700Z" fill="#AAAAAA"/>
<path d="M1765 1266H2000V1373H1765V1266Z" fill="#F5F5F5"/>
<path d="M1771 1272L1994 1367" stroke="#AAAAAA" stroke-width="2"/>
<path d="M1994 1272L1771 1367" stroke="#AAAAAA" stroke-width="2"/>
<path d="M1765 1266V1264H1763V1266H1765ZM2000 1266H2002V1264H2000V1266ZM2000 1373V1375H2002V1373H2000ZM1765 1373H1763V1375H1765V1373ZM1765 1268H2000V1264H1765V1268ZM1998 1266V1373H2002V1266H1998ZM2000 1371H1765V1375H2000V1371ZM1767 1373V1266H1763V1373H1767Z" fill="#AAAAAA"/>
<path d="M2032 1266H2267V1373H2032V1266Z" fill="#F5F5F5"/>
<path d="M2038 1272L2261 1367" stroke="#AAAAAA" stroke-width="2"/>
<path d="M2261 1272L2038 1367" stroke="#AAAAAA" stroke-width="2"/>
<path d="M2032 1266V1264H2030V1266H2032ZM2267 1266H2269V1264H2267V1266ZM2267 1373V1375H2269V1373H2267ZM2032 1373H2030V1375H2032V1373ZM2032 1268H2267V1264H2032V1268ZM2265 1266V1373H2269V1266H2265ZM2267 1371H2032V1375H2267V1371ZM2034 1373V1266H2030V1373H2034Z" fill="#AAAAAA"/>
<path d="M2299 1266H2534V1373H2299V1266Z" fill="#F5F5F5"/>
<path d="M2305 1272L2528 1367" stroke="#AAAAAA" stroke-width="2"/>
<path d="M2528 1272L2305 1367" stroke="#AAAAAA" stroke-width="2"/>
<path d="M2299 1266V1264H2297V1266H2299ZM2534 1266H2536V1264H2534V1266ZM2534 1373V1375H2536V1373H2534ZM2299 1373H2297V1375H2299V1373ZM2299 1268H2534V1264H2299V1268ZM2532 1266V1373H2536V1266H2532ZM2534 1371H2299V1375H2534V1371ZM2301 1373V1266H2297V1373H2301Z" fill="#AAAAAA"/>
<path d="M2566 1266H2801V1373H2566V1266Z" fill="#F5F5F5"/>
<path d="M2572 1272L2795 1367" stroke="#AAAAAA" stroke-width="2"/>
<path d="M2795 1272L2572 1367" stroke="#AAAAAA" stroke-width="2"/>
<path d="M2566 1266V1264H2564V1266H2566ZM2801 1266H2803V1264H2801V1266ZM2801 1373V1375H2803V1373H2801ZM2566 1373H2564V1375H2566V1373ZM2566 1268H2801V1264H2566V1268ZM2799 1266V1373H2803V1266H2799ZM2801 1371H2566V1375H2801V1371ZM2568 1373V1266H2564V1373H2568Z" fill="#AAAAAA"/>
<path d="M2833 1266H3068V1373H2833V1266Z" fill="#F5F5F5"/>
<path d="M2839 1272L3062 1367" stroke="#AAAAAA" stroke-width="2"/>
<path d="M3062 1272L2839 1367" stroke="#AAAAAA" stroke-width="2"/>
<path d="M2833 1266V1264H2831V1266H2833ZM3068 1266H3070V1264H3068V1266ZM3068 1373V1375H3070V1373H3068ZM2833 1373H2831V1375H2833V1373ZM2833 1268H3068V1264H2833V1268ZM3066 1266V1373H3070V1266H3066ZM3068 1371H2833V1375H3068V1371ZM2835 1373V1266H2831V1373H2835Z" fill="#AAAAAA"/>
<rect x="1698" y="589" width="1440" height="1024" fill="#D9D9D9" fill-opacity="0.7"/>
<rect x="2190" y="923" width="453" height="304" rx="32" fill="#F5F5F5"/>
<text fill="black" xml:space="preserve" style="white-space: pre" font-family="Chalkboard" font-size="24" letter-spacing="0em"><tspan x="2222" y="976.367">Welcome to APPOINTA</tspan></text>
<path d="M2605 961L2593 973" stroke="#898F9B" stroke-width="2" stroke-linecap="round" stroke-linejoin="round"/>
<path d="M2593 961L2605 973" stroke="#898F9B" stroke-width="2" stroke-linecap="round" stroke-linejoin="round"/>
<text fill="black" xml:space="preserve" style="white-space: pre" font-family="Chalkboard" font-size="18" letter-spacing="0em"><tspan x="2222" y="1030.28">Enter your work email address</tspan></text>
<path d="M2222 1071C2222 1068.79 2223.79 1067 2226 1067H2607C2609.21 1067 2611 1068.79 2611 1071V1111C2611 1113.21 2609.21 1115 2607 1115H2226C2223.79 1115 2222 1113.21 2222 1111V1071Z" fill="white"/>
<text fill="#7D7D7D" xml:space="preserve" style="white-space: pre" font-family="Chalkboard" font-size="16" font-weight="bold" letter-spacing="0em" text-decoration="underline"><tspan x="2238" y="1096.58"><a href="mailto:RebeccaRabison@gmail.com">RebeccaRabison@gmail.com</a></tspan></text>
<text fill="#767676" xml:space="preserve" style="white-space: pre" font-family="Chalkboard" font-size="14" letter-spacing="0em"><tspan x="2222" y="1059.88">Email</tspan></text>
<path d="M2226 1069H2607V1065H2226V1069ZM2609 1071V1111H2613V1071H2609ZM2607 1113H2226V1117H2607V1113ZM2224 1111V1071H2220V1111H2224ZM2226 1113C2224.9 1113 2224 1112.1 2224 1111H2220C2220 1114.31 2222.69 1117 2226 1117V1113ZM2609 1111C2609 1112.1 2608.1 1113 2607 1113V1117C2610.31 1117 2613 1114.31 2613 1111H2609ZM2607 1069C2608.1 1069 2609 1069.9 2609 1071H2613C2613 1067.69 2610.31 1065 2607 1065V1069ZM2226 1065C2222.69 1065 2220 1067.69 2220 1071H2224C2224 1069.9 2224.9 1069 2226 1069V1065Z" fill="#AAAAAA"/>
<path d="M2222 1151C2222 1148.79 2223.79 1147 2226 1147H2607C2609.21 1147 2611 1148.79 2611 1151V1191C2611 1193.21 2609.21 1195 2607 1195H2226C2223.79 1195 2222 1193.21 2222 1191V1151Z" fill="#333333"/>
<text fill="white" xml:space="preserve" style="white-space: pre" font-family="Chalkboard" font-size="16" letter-spacing="0em"><tspan x="2385" y="1176.58">Continue</tspan></text>
</g>
<rect width="215" height="83" transform="translate(3306 1230)" fill="#5384ED"/>
<text fill="white" xml:space="preserve" style="white-space: pre" font-family="Inter" font-size="42" font-weight="500" letter-spacing="0em"><tspan x="3338" y="1286.77">Sign up</tspan></text>
<g clip-path="url(#clip6_3006_20745)">
<rect width="1440" height="1024" transform="translate(3306 1313)" fill="white"/>
<g filter="url(#filter3_d_3006_20745)">
<rect x="3306" y="1313" width="1440" height="80" fill="white"/>
</g>
<g clip-path="url(#clip7_3006_20745)">
<path d="M4674.52 1353C4674.52 1365.75 4664.69 1376 4652.67 1376C4640.64 1376 4630.81 1365.75 4630.81 1353C4630.81 1340.25 4640.64 1330 4652.67 1330C4664.69 1330 4674.52 1340.25 4674.52 1353Z" fill="#F5F5F5" stroke="#AAAAAA" stroke-width="2"/>
<mask id="path-144-inside-4_3006_20745" fill="white">
<path fill-rule="evenodd" clip-rule="evenodd" d="M4635.52 1368.87V1368C4635.52 1362.01 4646.94 1359 4652.67 1359C4658.39 1359 4669.81 1362.01 4669.81 1368V1368.87C4665.62 1373.86 4659.49 1377 4652.67 1377C4645.84 1377 4639.71 1373.86 4635.52 1368.87ZM4652.67 1339C4647.93 1339 4644.09 1343.03 4644.09 1348C4644.09 1352.97 4647.93 1357 4652.67 1357C4657.4 1357 4661.24 1352.97 4661.24 1348C4661.24 1343.03 4657.4 1339 4652.67 1339Z"/>
</mask>
<path fill-rule="evenodd" clip-rule="evenodd" d="M4635.52 1368.87V1368C4635.52 1362.01 4646.94 1359 4652.67 1359C4658.39 1359 4669.81 1362.01 4669.81 1368V1368.87C4665.62 1373.86 4659.49 1377 4652.67 1377C4645.84 1377 4639.71 1373.86 4635.52 1368.87ZM4652.67 1339C4647.93 1339 4644.09 1343.03 4644.09 1348C4644.09 1352.97 4647.93 1357 4652.67 1357C4657.4 1357 4661.24 1352.97 4661.24 1348C4661.24 1343.03 4657.4 1339 4652.67 1339Z" fill="#F5F5F5"/>
<path d="M4635.52 1368.87H4633.52V1369.6L4633.99 1370.16L4635.52 1368.87ZM4669.81 1368.87L4671.34 1370.16L4671.81 1369.6V1368.87H4669.81ZM4637.52 1368.87V1368H4633.52V1368.87H4637.52ZM4637.52 1368C4637.52 1367.2 4637.89 1366.38 4638.79 1365.51C4639.71 1364.62 4641.07 1363.8 4642.72 1363.1C4646.05 1361.7 4650.07 1361 4652.67 1361V1357C4649.54 1357 4644.99 1357.81 4641.17 1359.41C4639.26 1360.22 4637.41 1361.27 4636.01 1362.63C4634.59 1364.01 4633.52 1365.81 4633.52 1368H4637.52ZM4652.67 1361C4655.26 1361 4659.29 1361.7 4662.61 1363.1C4664.27 1363.8 4665.63 1364.62 4666.54 1365.51C4667.44 1366.38 4667.81 1367.2 4667.81 1368H4671.81C4671.81 1365.81 4670.75 1364.01 4669.33 1362.63C4667.92 1361.27 4666.07 1360.22 4664.16 1359.41C4660.34 1357.81 4655.79 1357 4652.67 1357V1361ZM4667.81 1368V1368.87H4671.81V1368H4667.81ZM4668.28 1367.59C4664.44 1372.15 4658.86 1375 4652.67 1375V1379C4660.13 1379 4666.8 1375.56 4671.34 1370.16L4668.28 1367.59ZM4652.67 1375C4646.47 1375 4640.89 1372.15 4637.05 1367.59L4633.99 1370.16C4638.53 1375.56 4645.21 1379 4652.67 1379V1375ZM4646.09 1348C4646.09 1344.04 4649.13 1341 4652.67 1341V1337C4646.74 1337 4642.09 1342.02 4642.09 1348H4646.09ZM4652.67 1355C4649.13 1355 4646.09 1351.96 4646.09 1348H4642.09C4642.09 1353.98 4646.74 1359 4652.67 1359V1355ZM4659.24 1348C4659.24 1351.96 4656.21 1355 4652.67 1355V1359C4658.6 1359 4663.24 1353.98 4663.24 1348H4659.24ZM4652.67 1341C4656.21 1341 4659.24 1344.04 4659.24 1348H4663.24C4663.24 1342.02 4658.6 1337 4652.67 1337V1341Z" fill="#AAAAAA" mask="url(#path-144-inside-4_3006_20745)"/>
</g>
<path d="M3366.95 1329H3419.33V1369H3366.95V1329Z" fill="#F5F5F5"/>
<path d="M3372.95 1335L3412.95 1363" stroke="#AAAAAA" stroke-width="2"/>
<path d="M3412.95 1335L3372.95 1363" stroke="#AAAAAA" stroke-width="2"/>
<path d="M3366.95 1329V1327H3364.95V1329H3366.95ZM3419.33 1329H3421.33V1327H3419.33V1329ZM3419.33 1369V1371H3421.33V1369H3419.33ZM3366.95 1369H3364.95V1371H3366.95V1369ZM3366.95 1331H3419.33V1327H3366.95V1331ZM3417.33 1329V1369H3421.33V1329H3417.33ZM3419.33 1367H3366.95V1371H3419.33V1367ZM3368.95 1369V1329H3364.95V1369H3368.95Z" fill="#AAAAAA"/>
<path d="M4549 1333C4549 1330.79 4550.79 1329 4553 1329H4672C4674.21 1329 4676 1330.79 4676 1333V1373C4676 1375.21 4674.21 1377 4672 1377H4553C4550.79 1377 4549 1375.21 4549 1373V1333Z" fill="white"/>
<text fill="#333333" xml:space="preserve" style="white-space: pre" font-family="Chalkboard" font-size="16" letter-spacing="0em"><tspan x="4565" y="1358.58">Signup/log in</tspan></text>
<path d="M4553 1331H4672V1327H4553V1331ZM4674 1333V1373H4678V1333H4674ZM4672 1375H4553V1379H4672V1375ZM4551 1373V1333H4547V1373H4551ZM4553 1375C4551.9 1375 4551 1374.1 4551 1373H4547C4547 1376.31 4549.69 1379 4553 1379V1375ZM4674 1373C4674 1374.1 4673.1 1375 4672 1375V1379C4675.31 1379 4678 1376.31 4678 1373H4674ZM4672 1331C4673.1 1331 4674 1331.9 4674 1333H4678C4678 1329.69 4675.31 1327 4672 1327V1331ZM4553 1327C4549.69 1327 4547 1329.69 4547 1333H4551C4551 1331.9 4551.9 1331 4553 1331V1327Z" fill="#333333"/>
<rect width="635.5" height="24" transform="translate(3373 1775)" fill="#F5F5F5"/>
<rect width="635.5" height="24" transform="translate(3373 1811)" fill="#F5F5F5"/>
<rect width="635.5" height="24" transform="translate(3373 1847)" fill="#F5F5F5"/>
<rect width="635.5" height="24" transform="translate(3373 1883)" fill="#F5F5F5"/>
<rect width="635.5" height="24" transform="translate(3373 1919)" fill="#F5F5F5"/>
<rect width="635.5" height="24" transform="translate(4040.5 1775)" fill="#F5F5F5"/>
<rect width="635.5" height="24" transform="translate(4040.5 1811)" fill="#F5F5F5"/>
<rect width="635.5" height="24" transform="translate(4040.5 1847)" fill="#F5F5F5"/>
<rect width="235" height="24" transform="translate(3373 2129)" fill="#F5F5F5"/>
<rect width="235" height="24" transform="translate(3373 2165)" fill="#F5F5F5"/>
<rect width="235" height="24" transform="translate(3373 2201)" fill="#F5F5F5"/>
<rect width="235" height="24" transform="translate(3373 2237)" fill="#F5F5F5"/>
<rect width="235" height="24" transform="translate(3373 2273)" fill="#F5F5F5"/>
<rect width="235" height="24" transform="translate(3640 2129)" fill="#F5F5F5"/>
<rect width="235" height="24" transform="translate(3640 2165)" fill="#F5F5F5"/>
<rect width="235" height="24" transform="translate(3640 2201)" fill="#F5F5F5"/>
<rect width="235" height="24" transform="translate(3640 2237)" fill="#F5F5F5"/>
<rect width="235" height="24" transform="translate(3907 2129)" fill="#F5F5F5"/>
<rect width="235" height="24" transform="translate(3907 2165)" fill="#F5F5F5"/>
<rect width="235" height="24" transform="translate(3907 2201)" fill="#F5F5F5"/>
<rect width="235" height="24" transform="translate(4174 2129)" fill="#F5F5F5"/>
<rect width="235" height="24" transform="translate(4174 2165)" fill="#F5F5F5"/>
<rect width="235" height="24" transform="translate(4174 2201)" fill="#F5F5F5"/>
<rect width="235" height="24" transform="translate(4174 2237)" fill="#F5F5F5"/>
<rect width="235" height="24" transform="translate(4441 2129)" fill="#F5F5F5"/>
<rect width="235" height="24" transform="translate(4441 2165)" fill="#F5F5F5"/>
<rect width="235" height="24" transform="translate(4441 2201)" fill="#F5F5F5"/>
<rect width="235" height="24" transform="translate(4441 2237)" fill="#F5F5F5"/>
<rect width="235" height="24" transform="translate(4441 2273)" fill="#F5F5F5"/>
<path d="M3306 1393H4746V1743H3306V1393Z" fill="#F5F5F5"/>
<path d="M3312 1399L4740 1737" stroke="#AAAAAA" stroke-width="2"/>
<path d="M4740 1399L3312 1737" stroke="#AAAAAA" stroke-width="2"/>
<path d="M3306 1393V1391H3304V1393H3306ZM4746 1393H4748V1391H4746V1393ZM4746 1743V1745H4748V1743H4746ZM3306 1743H3304V1745H3306V1743ZM3306 1395H4746V1391H3306V1395ZM4744 1393V1743H4748V1393H4744ZM4746 1741H3306V1745H4746V1741ZM3308 1743V1393H3304V1743H3308Z" fill="#AAAAAA"/>
<path d="M3373 1990H3608V2097H3373V1990Z" fill="#F5F5F5"/>
<path d="M3379 1996L3602 2091" stroke="#AAAAAA" stroke-width="2"/>
<path d="M3602 1996L3379 2091" stroke="#AAAAAA" stroke-width="2"/>
<path d="M3373 1990V1988H3371V1990H3373ZM3608 1990H3610V1988H3608V1990ZM3608 2097V2099H3610V2097H3608ZM3373 2097H3371V2099H3373V2097ZM3373 1992H3608V1988H3373V1992ZM3606 1990V2097H3610V1990H3606ZM3608 2095H3373V2099H3608V2095ZM3375 2097V1990H3371V2097H3375Z" fill="#AAAAAA"/>
<path d="M3640 1990H3875V2097H3640V1990Z" fill="#F5F5F5"/>
<path d="M3646 1996L3869 2091" stroke="#AAAAAA" stroke-width="2"/>
<path d="M3869 1996L3646 2091" stroke="#AAAAAA" stroke-width="2"/>
<path d="M3640 1990V1988H3638V1990H3640ZM3875 1990H3877V1988H3875V1990ZM3875 2097V2099H3877V2097H3875ZM3640 2097H3638V2099H3640V2097ZM3640 1992H3875V1988H3640V1992ZM3873 1990V2097H3877V1990H3873ZM3875 2095H3640V2099H3875V2095ZM3642 2097V1990H3638V2097H3642Z" fill="#AAAAAA"/>
<path d="M3907 1990H4142V2097H3907V1990Z" fill="#F5F5F5"/>
<path d="M3913 1996L4136 2091" stroke="#AAAAAA" stroke-width="2"/>
<path d="M4136 1996L3913 2091" stroke="#AAAAAA" stroke-width="2"/>
<path d="M3907 1990V1988H3905V1990H3907ZM4142 1990H4144V1988H4142V1990ZM4142 2097V2099H4144V2097H4142ZM3907 2097H3905V2099H3907V2097ZM3907 1992H4142V1988H3907V1992ZM4140 1990V2097H4144V1990H4140ZM4142 2095H3907V2099H4142V2095ZM3909 2097V1990H3905V2097H3909Z" fill="#AAAAAA"/>
<path d="M4174 1990H4409V2097H4174V1990Z" fill="#F5F5F5"/>
<path d="M4180 1996L4403 2091" stroke="#AAAAAA" stroke-width="2"/>
<path d="M4403 1996L4180 2091" stroke="#AAAAAA" stroke-width="2"/>
<path d="M4174 1990V1988H4172V1990H4174ZM4409 1990H4411V1988H4409V1990ZM4409 2097V2099H4411V2097H4409ZM4174 2097H4172V2099H4174V2097ZM4174 1992H4409V1988H4174V1992ZM4407 1990V2097H4411V1990H4407ZM4409 2095H4174V2099H4409V2095ZM4176 2097V1990H4172V2097H4176Z" fill="#AAAAAA"/>
<path d="M4441 1990H4676V2097H4441V1990Z" fill="#F5F5F5"/>
<path d="M4447 1996L4670 2091" stroke="#AAAAAA" stroke-width="2"/>
<path d="M4670 1996L4447 2091" stroke="#AAAAAA" stroke-width="2"/>
<path d="M4441 1990V1988H4439V1990H4441ZM4676 1990H4678V1988H4676V1990ZM4676 2097V2099H4678V2097H4676ZM4441 2097H4439V2099H4441V2097ZM4441 1992H4676V1988H4441V1992ZM4674 1990V2097H4678V1990H4674ZM4676 2095H4441V2099H4676V2095ZM4443 2097V1990H4439V2097H4443Z" fill="#AAAAAA"/>
<rect x="3306" y="1313" width="1440" height="1024" fill="#D9D9D9" fill-opacity="0.7"/>
<rect x="3798" y="1542" width="453" height="514" rx="32" fill="#F5F5F5"/>
<path d="M3849 1586H3835" stroke="#898F9B" stroke-width="2" stroke-linecap="round" stroke-linejoin="round"/>
<path d="M3842 1593L3835 1586L3842 1579" stroke="#898F9B" stroke-width="2" stroke-linecap="round" stroke-linejoin="round"/>
<text fill="black" xml:space="preserve" style="white-space: pre" font-family="Chalkboard" font-size="24" letter-spacing="0em"><tspan x="3870" y="1595.37">Welcome to APPOINTA</tspan></text>
<text fill="black" xml:space="preserve" style="white-space: pre" font-family="Chalkboard" font-size="18" letter-spacing="0em"><tspan x="3830" y="1649.28">Sign up</tspan></text>
<path d="M3830 1690C3830 1687.79 3831.79 1686 3834 1686H4215C4217.21 1686 4219 1687.79 4219 1690V1730C4219 1732.21 4217.21 1734 4215 1734H3834C3831.79 1734 3830 1732.21 3830 1730V1690Z" fill="white"/>
<text fill="#7D7D7D" xml:space="preserve" style="white-space: pre" font-family="Chalkboard" font-size="16" font-weight="bold" letter-spacing="0em" text-decoration="underline"><tspan x="3846" y="1715.58"><a href="mailto:RebeccaRabison@gmail.com">RebeccaRabison@gmail.com</a></tspan></text>
<text fill="#767676" xml:space="preserve" style="white-space: pre" font-family="Chalkboard" font-size="14" letter-spacing="0em"><tspan x="3830" y="1678.88">Email</tspan></text>
<path d="M3834 1688H4215V1684H3834V1688ZM4217 1690V1730H4221V1690H4217ZM4215 1732H3834V1736H4215V1732ZM3832 1730V1690H3828V1730H3832ZM3834 1732C3832.9 1732 3832 1731.1 3832 1730H3828C3828 1733.31 3830.69 1736 3834 1736V1732ZM4217 1730C4217 1731.1 4216.1 1732 4215 1732V1736C4218.31 1736 4221 1733.31 4221 1730H4217ZM4215 1688C4216.1 1688 4217 1688.9 4217 1690H4221C4221 1686.69 4218.31 1684 4215 1684V1688ZM3834 1684C3830.69 1684 3828 1686.69 3828 1690H3832C3832 1688.9 3832.9 1688 3834 1688V1684Z" fill="#AAAAAA"/>
<path d="M3830 1770C3830 1767.79 3831.79 1766 3834 1766H4215C4217.21 1766 4219 1767.79 4219 1770V1810C4219 1812.21 4217.21 1814 4215 1814H3834C3831.79 1814 3830 1812.21 3830 1810V1770Z" fill="white"/>
<text fill="#7D7D7D" xml:space="preserve" style="white-space: pre" font-family="Chalkboard" font-size="16" font-weight="bold" letter-spacing="0em" text-decoration="underline"><tspan x="3846" y="1795.58"><a href="mailto:RebeccaRabison@gmail.com">Rebecca</a></tspan></text>
<text fill="#7D7D7D" xml:space="preserve" style="white-space: pre" font-family="Chalkboard" font-size="16" font-weight="bold" letter-spacing="0em"><tspan x="3907.56" y="1795.58"> Rabison </tspan></text>
<text fill="#767676" xml:space="preserve" style="white-space: pre" font-family="Chalkboard" font-size="14" letter-spacing="0em"><tspan x="3830" y="1758.88">First and last name</tspan></text>
<path d="M3834 1768H4215V1764H3834V1768ZM4217 1770V1810H4221V1770H4217ZM4215 1812H3834V1816H4215V1812ZM3832 1810V1770H3828V1810H3832ZM3834 1812C3832.9 1812 3832 1811.1 3832 1810H3828C3828 1813.31 3830.69 1816 3834 1816V1812ZM4217 1810C4217 1811.1 4216.1 1812 4215 1812V1816C4218.31 1816 4221 1813.31 4221 1810H4217ZM4215 1768C4216.1 1768 4217 1768.9 4217 1770H4221C4221 1766.69 4218.31 1764 4215 1764V1768ZM3834 1764C3830.69 1764 3828 1766.69 3828 1770H3832C3832 1768.9 3832.9 1768 3834 1768V1764Z" fill="#AAAAAA"/>
<path d="M3830 1850C3830 1847.79 3831.79 1846 3834 1846H4215C4217.21 1846 4219 1847.79 4219 1850V1890C4219 1892.21 4217.21 1894 4215 1894H3834C3831.79 1894 3830 1892.21 3830 1890V1850Z" fill="white"/>
<path d="M4180 1870C4180 1870 4184 1862 4191 1862C4198 1862 4202 1870 4202 1870C4202 1870 4198 1878 4191 1878C4184 1878 4180 1870 4180 1870Z" stroke="#898F9B" stroke-width="2" stroke-linecap="round" stroke-linejoin="round"/>
<path d="M4191 1873C4192.66 1873 4194 1871.66 4194 1870C4194 1868.34 4192.66 1867 4191 1867C4189.34 1867 4188 1868.34 4188 1870C4188 1871.66 4189.34 1873 4191 1873Z" stroke="#898F9B" stroke-width="2" stroke-linecap="round" stroke-linejoin="round"/>
<text fill="#7D7D7D" xml:space="preserve" style="white-space: pre" font-family="Chalkboard" font-size="16" font-weight="bold" letter-spacing="0em"><tspan x="3846" y="1875.58">**********</tspan></text>
<text fill="#767676" xml:space="preserve" style="white-space: pre" font-family="Chalkboard" font-size="14" letter-spacing="0em"><tspan x="3830" y="1838.88">Password</tspan></text>
<path d="M3834 1848H4215V1844H3834V1848ZM4217 1850V1890H4221V1850H4217ZM4215 1892H3834V1896H4215V1892ZM3832 1890V1850H3828V1890H3832ZM3834 1892C3832.9 1892 3832 1891.1 3832 1890H3828C3828 1893.31 3830.69 1896 3834 1896V1892ZM4217 1890C4217 1891.1 4216.1 1892 4215 1892V1896C4218.31 1896 4221 1893.31 4221 1890H4217ZM4215 1848C4216.1 1848 4217 1848.9 4217 1850H4221C4221 1846.69 4218.31 1844 4215 1844V1848ZM3834 1844C3830.69 1844 3828 1846.69 3828 1850H3832C3832 1848.9 3832.9 1848 3834 1848V1844Z" fill="#AAAAAA"/>
<text fill="black" xml:space="preserve" style="white-space: pre" font-family="Chalkboard" font-size="14" letter-spacing="0em"><tspan x="3830" y="1939.88">By clicking below you agree to </tspan></text>
<text fill="#DEB650" xml:space="preserve" style="white-space: pre" font-family="Chalkboard" font-size="14" font-weight="bold" letter-spacing="0em"><tspan x="4029.92" y="1939.88">Appointa terms &#38; conditions</tspan></text>
<path d="M3830 1980C3830 1977.79 3831.79 1976 3834 1976H4215C4217.21 1976 4219 1977.79 4219 1980V2020C4219 2022.21 4217.21 2024 4215 2024H3834C3831.79 2024 3830 2022.21 3830 2020V1980Z" fill="#333333"/>
<text fill="white" xml:space="preserve" style="white-space: pre" font-family="Chalkboard" font-size="16" letter-spacing="0em"><tspan x="3959" y="2005.58">Create an account</tspan></text>
</g>
<g clip-path="url(#clip8_3006_20745)">
<rect width="1440" height="1024" transform="translate(4914 118)" fill="white"/>
<g filter="url(#filter4_d_3006_20745)">
<rect x="4914" y="118" width="1440" height="80" fill="white"/>
</g>
<g clip-path="url(#clip9_3006_20745)">
<path d="M6282.52 158C6282.52 170.749 6272.69 181 6260.67 181C6248.64 181 6238.81 170.749 6238.81 158C6238.81 145.251 6248.64 135 6260.67 135C6272.69 135 6282.52 145.251 6282.52 158Z" fill="#F5F5F5" stroke="#AAAAAA" stroke-width="2"/>
<mask id="path-202-inside-5_3006_20745" fill="white">
<path fill-rule="evenodd" clip-rule="evenodd" d="M6243.52 173.875V173C6243.52 167.015 6254.94 164 6260.67 164C6266.39 164 6277.81 167.015 6277.81 173V173.875C6273.62 178.857 6267.49 182 6260.67 182C6253.84 182 6247.71 178.857 6243.52 173.875ZM6260.67 144C6255.93 144 6252.09 148.028 6252.09 153C6252.09 157.972 6255.93 162 6260.67 162C6265.4 162 6269.24 157.972 6269.24 153C6269.24 148.028 6265.4 144 6260.67 144Z"/>
</mask>
<path fill-rule="evenodd" clip-rule="evenodd" d="M6243.52 173.875V173C6243.52 167.015 6254.94 164 6260.67 164C6266.39 164 6277.81 167.015 6277.81 173V173.875C6273.62 178.857 6267.49 182 6260.67 182C6253.84 182 6247.71 178.857 6243.52 173.875ZM6260.67 144C6255.93 144 6252.09 148.028 6252.09 153C6252.09 157.972 6255.93 162 6260.67 162C6265.4 162 6269.24 157.972 6269.24 153C6269.24 148.028 6265.4 144 6260.67 144Z" fill="#F5F5F5"/>
<path d="M6243.52 173.875H6241.52V174.604L6241.99 175.162L6243.52 173.875ZM6277.81 173.875L6279.34 175.162L6279.81 174.604V173.875H6277.81ZM6245.52 173.875V173H6241.52V173.875H6245.52ZM6245.52 173C6245.52 172.202 6245.89 171.378 6246.79 170.505C6247.71 169.616 6249.07 168.796 6250.72 168.099C6254.05 166.702 6258.07 166 6260.67 166V162C6257.54 162 6252.99 162.806 6249.17 164.412C6247.26 165.217 6245.41 166.273 6244.01 167.633C6242.59 169.009 6241.52 170.806 6241.52 173H6245.52ZM6260.67 166C6263.26 166 6267.29 166.702 6270.61 168.099C6272.27 168.796 6273.63 169.616 6274.54 170.505C6275.44 171.378 6275.81 172.202 6275.81 173H6279.81C6279.81 170.806 6278.75 169.009 6277.33 167.633C6275.92 166.273 6274.07 165.217 6272.16 164.412C6268.34 162.806 6263.79 162 6260.67 162V166ZM6275.81 173V173.875H6279.81V173H6275.81ZM6276.28 172.588C6272.44 177.153 6266.86 180 6260.67 180V184C6268.13 184 6274.8 180.562 6279.34 175.162L6276.28 172.588ZM6260.67 180C6254.47 180 6248.89 177.153 6245.05 172.588L6241.99 175.162C6246.53 180.562 6253.21 184 6260.67 184V180ZM6254.09 153C6254.09 149.039 6257.13 146 6260.67 146V142C6254.74 142 6250.09 147.016 6250.09 153H6254.09ZM6260.67 160C6257.13 160 6254.09 156.961 6254.09 153H6250.09C6250.09 158.984 6254.74 164 6260.67 164V160ZM6267.24 153C6267.24 156.961 6264.21 160 6260.67 160V164C6266.6 164 6271.24 158.984 6271.24 153H6267.24ZM6260.67 146C6264.21 146 6267.24 149.039 6267.24 153H6271.24C6271.24 147.016 6266.6 142 6260.67 142V146Z" fill="#AAAAAA" mask="url(#path-202-inside-5_3006_20745)"/>
</g>
<path d="M4974.95 134H5027.33V174H4974.95V134Z" fill="#F5F5F5"/>
<path d="M4980.95 140L5020.95 168" stroke="#AAAAAA" stroke-width="2"/>
<path d="M5020.95 140L4980.95 168" stroke="#AAAAAA" stroke-width="2"/>
<path d="M4974.95 134V132H4972.95V134H4974.95ZM5027.33 134H5029.33V132H5027.33V134ZM5027.33 174V176H5029.33V174H5027.33ZM4974.95 174H4972.95V176H4974.95V174ZM4974.95 136H5027.33V132H4974.95V136ZM5025.33 134V174H5029.33V134H5025.33ZM5027.33 172H4974.95V176H5027.33V172ZM4976.95 174V134H4972.95V174H4976.95Z" fill="#AAAAAA"/>
<path d="M6157 138C6157 135.791 6158.79 134 6161 134H6280C6282.21 134 6284 135.791 6284 138V178C6284 180.209 6282.21 182 6280 182H6161C6158.79 182 6157 180.209 6157 178V138Z" fill="white"/>
<text fill="#333333" xml:space="preserve" style="white-space: pre" font-family="Chalkboard" font-size="16" letter-spacing="0em"><tspan x="6173" y="163.578">Signup/log in</tspan></text>
<path d="M6161 136H6280V132H6161V136ZM6282 138V178H6286V138H6282ZM6280 180H6161V184H6280V180ZM6159 178V138H6155V178H6159ZM6161 180C6159.9 180 6159 179.105 6159 178H6155C6155 181.314 6157.69 184 6161 184V180ZM6282 178C6282 179.105 6281.1 180 6280 180V184C6283.31 184 6286 181.314 6286 178H6282ZM6280 136C6281.1 136 6282 136.895 6282 138H6286C6286 134.686 6283.31 132 6280 132V136ZM6161 132C6157.69 132 6155 134.686 6155 138H6159C6159 136.895 6159.9 136 6161 136V132Z" fill="#333333"/>
<rect width="635.5" height="24" transform="translate(4981 580)" fill="#F5F5F5"/>
<rect width="635.5" height="24" transform="translate(4981 616)" fill="#F5F5F5"/>
<rect width="635.5" height="24" transform="translate(4981 652)" fill="#F5F5F5"/>
<rect width="635.5" height="24" transform="translate(4981 688)" fill="#F5F5F5"/>
<rect width="635.5" height="24" transform="translate(4981 724)" fill="#F5F5F5"/>
<rect width="635.5" height="24" transform="translate(5648.5 580)" fill="#F5F5F5"/>
<rect width="635.5" height="24" transform="translate(5648.5 616)" fill="#F5F5F5"/>
<rect width="635.5" height="24" transform="translate(5648.5 652)" fill="#F5F5F5"/>
<rect width="235" height="24" transform="translate(4981 934)" fill="#F5F5F5"/>
<rect width="235" height="24" transform="translate(4981 970)" fill="#F5F5F5"/>
<rect width="235" height="24" transform="translate(4981 1006)" fill="#F5F5F5"/>
<rect width="235" height="24" transform="translate(4981 1042)" fill="#F5F5F5"/>
<rect width="235" height="24" transform="translate(4981 1078)" fill="#F5F5F5"/>
<rect width="235" height="24" transform="translate(5248 934)" fill="#F5F5F5"/>
<rect width="235" height="24" transform="translate(5248 970)" fill="#F5F5F5"/>
<rect width="235" height="24" transform="translate(5248 1006)" fill="#F5F5F5"/>
<rect width="235" height="24" transform="translate(5248 1042)" fill="#F5F5F5"/>
<rect width="235" height="24" transform="translate(5515 934)" fill="#F5F5F5"/>
<rect width="235" height="24" transform="translate(5515 970)" fill="#F5F5F5"/>
<rect width="235" height="24" transform="translate(5515 1006)" fill="#F5F5F5"/>
<rect width="235" height="24" transform="translate(5782 934)" fill="#F5F5F5"/>
<rect width="235" height="24" transform="translate(5782 970)" fill="#F5F5F5"/>
<rect width="235" height="24" transform="translate(5782 1006)" fill="#F5F5F5"/>
<rect width="235" height="24" transform="translate(5782 1042)" fill="#F5F5F5"/>
<rect width="235" height="24" transform="translate(6049 934)" fill="#F5F5F5"/>
<rect width="235" height="24" transform="translate(6049 970)" fill="#F5F5F5"/>
<rect width="235" height="24" transform="translate(6049 1006)" fill="#F5F5F5"/>
<rect width="235" height="24" transform="translate(6049 1042)" fill="#F5F5F5"/>
<rect width="235" height="24" transform="translate(6049 1078)" fill="#F5F5F5"/>
<path d="M4914 198H6354V548H4914V198Z" fill="#F5F5F5"/>
<path d="M4920 204L6348 542" stroke="#AAAAAA" stroke-width="2"/>
<path d="M6348 204L4920 542" stroke="#AAAAAA" stroke-width="2"/>
<path d="M4914 198V196H4912V198H4914ZM6354 198H6356V196H6354V198ZM6354 548V550H6356V548H6354ZM4914 548H4912V550H4914V548ZM4914 200H6354V196H4914V200ZM6352 198V548H6356V198H6352ZM6354 546H4914V550H6354V546ZM4916 548V198H4912V548H4916Z" fill="#AAAAAA"/>
<path d="M4981 795H5216V902H4981V795Z" fill="#F5F5F5"/>
<path d="M4987 801L5210 896" stroke="#AAAAAA" stroke-width="2"/>
<path d="M5210 801L4987 896" stroke="#AAAAAA" stroke-width="2"/>
<path d="M4981 795V793H4979V795H4981ZM5216 795H5218V793H5216V795ZM5216 902V904H5218V902H5216ZM4981 902H4979V904H4981V902ZM4981 797H5216V793H4981V797ZM5214 795V902H5218V795H5214ZM5216 900H4981V904H5216V900ZM4983 902V795H4979V902H4983Z" fill="#AAAAAA"/>
<path d="M5248 795H5483V902H5248V795Z" fill="#F5F5F5"/>
<path d="M5254 801L5477 896" stroke="#AAAAAA" stroke-width="2"/>
<path d="M5477 801L5254 896" stroke="#AAAAAA" stroke-width="2"/>
<path d="M5248 795V793H5246V795H5248ZM5483 795H5485V793H5483V795ZM5483 902V904H5485V902H5483ZM5248 902H5246V904H5248V902ZM5248 797H5483V793H5248V797ZM5481 795V902H5485V795H5481ZM5483 900H5248V904H5483V900ZM5250 902V795H5246V902H5250Z" fill="#AAAAAA"/>
<path d="M5515 795H5750V902H5515V795Z" fill="#F5F5F5"/>
<path d="M5521 801L5744 896" stroke="#AAAAAA" stroke-width="2"/>
<path d="M5744 801L5521 896" stroke="#AAAAAA" stroke-width="2"/>
<path d="M5515 795V793H5513V795H5515ZM5750 795H5752V793H5750V795ZM5750 902V904H5752V902H5750ZM5515 902H5513V904H5515V902ZM5515 797H5750V793H5515V797ZM5748 795V902H5752V795H5748ZM5750 900H5515V904H5750V900ZM5517 902V795H5513V902H5517Z" fill="#AAAAAA"/>
<path d="M5782 795H6017V902H5782V795Z" fill="#F5F5F5"/>
<path d="M5788 801L6011 896" stroke="#AAAAAA" stroke-width="2"/>
<path d="M6011 801L5788 896" stroke="#AAAAAA" stroke-width="2"/>
<path d="M5782 795V793H5780V795H5782ZM6017 795H6019V793H6017V795ZM6017 902V904H6019V902H6017ZM5782 902H5780V904H5782V902ZM5782 797H6017V793H5782V797ZM6015 795V902H6019V795H6015ZM6017 900H5782V904H6017V900ZM5784 902V795H5780V902H5784Z" fill="#AAAAAA"/>
<path d="M6049 795H6284V902H6049V795Z" fill="#F5F5F5"/>
<path d="M6055 801L6278 896" stroke="#AAAAAA" stroke-width="2"/>
<path d="M6278 801L6055 896" stroke="#AAAAAA" stroke-width="2"/>
<path d="M6049 795V793H6047V795H6049ZM6284 795H6286V793H6284V795ZM6284 902V904H6286V902H6284ZM6049 902H6047V904H6049V902ZM6049 797H6284V793H6049V797ZM6282 795V902H6286V795H6282ZM6284 900H6049V904H6284V900ZM6051 902V795H6047V902H6051Z" fill="#AAAAAA"/>
<rect x="4914" y="118" width="1440" height="1024" fill="#D9D9D9" fill-opacity="0.7"/>
<rect x="5406" y="420" width="453" height="368" rx="32" fill="#F5F5F5"/>
<path d="M5457 464H5443" stroke="#898F9B" stroke-width="2" stroke-linecap="round" stroke-linejoin="round"/>
<path d="M5450 471L5443 464L5450 457" stroke="#898F9B" stroke-width="2" stroke-linecap="round" stroke-linejoin="round"/>
<text fill="black" xml:space="preserve" style="white-space: pre" font-family="Chalkboard" font-size="24" letter-spacing="0em"><tspan x="5478" y="473.367">Welcome to APPOINTA</tspan></text>
<text fill="black" xml:space="preserve" style="white-space: pre" font-family="Chalkboard" font-size="18" letter-spacing="0em"><tspan x="5438" y="527.275">Enter your password</tspan></text>
<path d="M5438 568C5438 565.791 5439.79 564 5442 564H5823C5825.21 564 5827 565.791 5827 568V608C5827 610.209 5825.21 612 5823 612H5442C5439.79 612 5438 610.209 5438 608V568Z" fill="white"/>
<path d="M5788 588C5788 588 5792 580 5799 580C5806 580 5810 588 5810 588C5810 588 5806 596 5799 596C5792 596 5788 588 5788 588Z" stroke="#898F9B" stroke-width="2" stroke-linecap="round" stroke-linejoin="round"/>
<path d="M5799 591C5800.66 591 5802 589.657 5802 588C5802 586.343 5800.66 585 5799 585C5797.34 585 5796 586.343 5796 588C5796 589.657 5797.34 591 5799 591Z" stroke="#898F9B" stroke-width="2" stroke-linecap="round" stroke-linejoin="round"/>
<text fill="#7D7D7D" xml:space="preserve" style="white-space: pre" font-family="Chalkboard" font-size="16" font-weight="bold" letter-spacing="0em"><tspan x="5454" y="593.578">**********</tspan></text>
<text fill="#767676" xml:space="preserve" style="white-space: pre" font-family="Chalkboard" font-size="14" letter-spacing="0em"><tspan x="5438" y="556.881">Password</tspan></text>
<path d="M5442 566H5823V562H5442V566ZM5825 568V608H5829V568H5825ZM5823 610H5442V614H5823V610ZM5440 608V568H5436V608H5440ZM5442 610C5440.9 610 5440 609.105 5440 608H5436C5436 611.314 5438.69 614 5442 614V610ZM5825 608C5825 609.105 5824.1 610 5823 610V614C5826.31 614 5829 611.314 5829 608H5825ZM5823 566C5824.1 566 5825 566.895 5825 568H5829C5829 564.686 5826.31 562 5823 562V566ZM5442 562C5438.69 562 5436 564.686 5436 568H5440C5440 566.895 5440.9 566 5442 566V562Z" fill="#AAAAAA"/>
<path d="M5438 660C5438 651.163 5445.16 644 5454 644H5600.5C5609.34 644 5616.5 651.163 5616.5 660V660C5616.5 668.837 5609.34 676 5600.5 676H5454C5445.16 676 5438 668.837 5438 660V660Z" fill="white"/>
<text fill="#333333" xml:space="preserve" style="white-space: pre" font-family="Chalkboard" font-size="16" letter-spacing="0em"><tspan x="5468.25" y="665.578">Forget password</tspan></text>
<path d="M5454 646H5600.5V642H5454V646ZM5600.5 674H5454V678H5600.5V674ZM5454 674C5446.27 674 5440 667.732 5440 660H5436C5436 669.941 5444.06 678 5454 678V674ZM5614.5 660C5614.5 667.732 5608.23 674 5600.5 674V678C5610.44 678 5618.5 669.941 5618.5 660H5614.5ZM5600.5 646C5608.23 646 5614.5 652.268 5614.5 660H5618.5C5618.5 650.059 5610.44 642 5600.5 642V646ZM5454 642C5444.06 642 5436 650.059 5436 660H5440C5440 652.268 5446.27 646 5454 646V642Z" fill="#333333"/>
<path d="M5648.5 660C5648.5 651.163 5655.66 644 5664.5 644H5811C5819.84 644 5827 651.163 5827 660V660C5827 668.837 5819.84 676 5811 676H5664.5C5655.66 676 5648.5 668.837 5648.5 660V660Z" fill="white"/>
<text fill="#333333" xml:space="preserve" style="white-space: pre" font-family="Chalkboard" font-size="16" letter-spacing="0em"><tspan x="5658.75" y="665.578">Change email address</tspan></text>
<path d="M5664.5 646H5811V642H5664.5V646ZM5811 674H5664.5V678H5811V674ZM5664.5 674C5656.77 674 5650.5 667.732 5650.5 660H5646.5C5646.5 669.941 5654.56 678 5664.5 678V674ZM5825 660C5825 667.732 5818.73 674 5811 674V678C5820.94 678 5829 669.941 5829 660H5825ZM5811 646C5818.73 646 5825 652.268 5825 660H5829C5829 650.059 5820.94 642 5811 642V646ZM5664.5 642C5654.56 642 5646.5 650.059 5646.5 660H5650.5C5650.5 652.268 5656.77 646 5664.5 646V642Z" fill="#333333"/>
<path d="M5438 712C5438 709.791 5439.79 708 5442 708H5823C5825.21 708 5827 709.791 5827 712V752C5827 754.209 5825.21 756 5823 756H5442C5439.79 756 5438 754.209 5438 752V712Z" fill="#333333"/>
<text fill="white" xml:space="preserve" style="white-space: pre" font-family="Chalkboard" font-size="16" letter-spacing="0em"><tspan x="5601" y="737.578">Continue</tspan></text>
<path d="M5438 324C5438 319.582 5441.58 316 5446 316H5804C5808.42 316 5812 319.582 5812 324V396C5812 400.418 5808.42 404 5804 404H5446C5441.58 404 5438 400.418 5438 396V324Z" fill="white"/>
<text fill="#DEB650" xml:space="preserve" style="white-space: pre" font-family="Chalkboard" font-size="16" letter-spacing="0em"><tspan x="5462" y="355.578">Check your email and follow the instructions </tspan><tspan x="5462" y="375.578">to reset your password</tspan></text>
<path d="M5446 318H5804V314H5446V318ZM5810 324V396H5814V324H5810ZM5804 402H5446V406H5804V402ZM5440 396V324H5436V396H5440ZM5446 402C5442.69 402 5440 399.314 5440 396H5436C5436 401.523 5440.48 406 5446 406V402ZM5810 396C5810 399.314 5807.31 402 5804 402V406C5809.52 406 5814 401.523 5814 396H5810ZM5804 318C5807.31 318 5810 320.686 5810 324H5814C5814 318.477 5809.52 314 5804 314V318ZM5446 314C5440.48 314 5436 318.477 5436 324H5440C5440 320.686 5442.69 318 5446 318V314Z" fill="#DEB650"/>
</g>
<path d="M1444.33 639C1444.33 649.309 1452.69 657.667 1463 657.667C1473.31 657.667 1481.67 649.309 1481.67 639C1481.67 628.691 1473.31 620.333 1463 620.333C1452.69 620.333 1444.33 628.691 1444.33 639ZM1700.47 641.475C1701.84 640.108 1701.84 637.892 1700.47 636.525L1678.2 614.251C1676.83 612.884 1674.62 612.884 1673.25 614.251C1671.88 615.618 1671.88 617.834 1673.25 619.201L1693.05 639L1673.25 658.799C1671.88 660.166 1671.88 662.382 1673.25 663.749C1674.62 665.116 1676.83 665.116 1678.2 663.749L1700.47 641.475ZM1463 642.5H1528.86V635.5H1463V642.5ZM1528.86 642.5H1698V635.5H1528.86V642.5Z" fill="#5384ED"/>
<path d="M2574.67 943.999C2574.67 933.689 2566.31 925.332 2556 925.332C2545.69 925.332 2537.33 933.689 2537.33 943.999C2537.33 954.308 2545.69 962.665 2556 962.665C2566.31 962.665 2574.67 954.308 2574.67 943.999ZM1538.53 941.524C1537.16 942.891 1537.16 945.107 1538.53 946.473L1560.8 968.747C1562.17 970.114 1564.38 970.114 1565.75 968.747C1567.12 967.381 1567.12 965.164 1565.75 963.798L1545.95 943.999L1565.75 924.2C1567.12 922.833 1567.12 920.617 1565.75 919.25C1564.38 917.883 1562.17 917.883 1560.8 919.25L1538.53 941.524ZM2556 940.499L2271.54 940.499L2271.54 947.499L2556 947.499L2556 940.499ZM2271.54 940.499L1541 940.499L1541 947.499L2271.54 947.499L2271.54 940.499Z" fill="#5384ED"/>
<path d="M4112.67 630C4112.67 619.691 4104.31 611.333 4094 611.333C4083.69 611.333 4075.33 619.691 4075.33 630C4075.33 640.309 4083.69 648.667 4094 648.667C4104.31 648.667 4112.67 640.309 4112.67 630ZM3142.53 627.525C3141.16 628.892 3141.16 631.108 3142.53 632.475L3164.8 654.749C3166.17 656.116 3168.38 656.116 3169.75 654.749C3171.12 653.382 3171.12 651.166 3169.75 649.799L3149.95 630L3169.75 610.201C3171.12 608.834 3171.12 606.618 3169.75 605.251C3168.38 603.885 3166.17 603.885 3164.8 605.251L3142.53 627.525ZM4094 626.5L3828.04 626.5L3828.04 633.5L4094 633.5L4094 626.5ZM3828.04 626.5L3145 626.5L3145 633.5L3828.04 633.5L3828.04 626.5Z" fill="#5384ED"/>
<path d="M3871.83 687.49C3871.83 697.799 3880.18 706.161 3890.49 706.167C3900.8 706.172 3909.16 697.819 3909.17 687.51C3909.17 677.201 3900.82 668.839 3890.51 668.833C3880.2 668.828 3871.84 677.181 3871.83 687.49ZM4916.47 846.023C4917.84 844.657 4917.84 842.441 4916.47 841.073L4894.21 818.787C4892.85 817.42 4890.63 817.419 4889.26 818.785C4887.89 820.151 4887.89 822.367 4889.26 823.734L4909.05 843.544L4889.24 863.332C4887.87 864.699 4887.87 866.915 4889.24 868.282C4890.6 869.65 4892.82 869.651 4894.18 868.285L4916.47 846.023ZM4178.42 843.153L4178.42 839.653L4178.42 839.653L4178.42 843.153ZM4178.42 846.653L4914 847.047L4914 840.047L4178.42 839.653L4178.42 846.653ZM3887 687.5L3887 723.099L3894 723.099L3894 687.5L3887 687.5ZM4010.46 846.598L4178.42 846.653L4178.42 839.653L4010.46 839.598L4010.46 846.598ZM3887 723.099C3887 791.29 3942.27 846.575 4010.46 846.598L4010.46 839.598C3946.14 839.577 3894 787.425 3894 723.099L3887 723.099Z" fill="#5384ED"/>
<path d="M2541.67 1142C2541.67 1153.78 2551.22 1163.33 2563 1163.33C2574.78 1163.33 2584.33 1153.78 2584.33 1142C2584.33 1130.22 2574.78 1120.67 2563 1120.67C2551.22 1120.67 2541.67 1130.22 2541.67 1142ZM3308.83 791.828C3310.39 790.266 3310.39 787.734 3308.83 786.172L3283.37 760.716C3281.81 759.154 3279.28 759.154 3277.72 760.716C3276.15 762.278 3276.15 764.81 3277.72 766.373L3300.34 789L3277.72 811.627C3276.15 813.19 3276.15 815.722 3277.72 817.284C3279.28 818.846 3281.81 818.846 3283.37 817.284L3308.83 791.828ZM2563 1146H3052.65V1138H2563V1146ZM3176.65 1022V909H3168.65V1022H3176.65ZM3292.65 793H3306V785H3292.65V793ZM3176.65 909C3176.65 844.935 3228.59 793 3292.65 793V785C3224.17 785 3168.65 840.517 3168.65 909H3176.65ZM3052.65 1146C3121.14 1146 3176.65 1090.48 3176.65 1022H3168.65C3168.65 1086.07 3116.72 1138 3052.65 1138V1146Z" fill="#5384ED"/>
<path d="M2541.67 1142C2541.67 1130.22 2551.22 1120.67 2563 1120.67C2574.78 1120.67 2584.33 1130.22 2584.33 1142C2584.33 1153.78 2574.78 1163.33 2563 1163.33C2551.22 1163.33 2541.67 1153.78 2541.67 1142ZM3308.83 1534.17C3310.39 1535.73 3310.39 1538.27 3308.83 1539.83L3283.37 1565.28C3281.81 1566.85 3279.28 1566.85 3277.72 1565.28C3276.15 1563.72 3276.15 1561.19 3277.72 1559.63L3300.34 1537L3277.72 1514.37C3276.15 1512.81 3276.15 1510.28 3277.72 1508.72C3279.28 1507.15 3281.81 1507.15 3283.37 1508.72L3308.83 1534.17ZM2563 1138H3052.65V1146H2563V1138ZM3176.65 1262V1417H3168.65V1262H3176.65ZM3292.65 1533H3306V1541H3292.65V1533ZM3176.65 1417C3176.65 1481.07 3228.59 1533 3292.65 1533V1541C3224.17 1541 3168.65 1485.48 3168.65 1417H3176.65ZM3052.65 1138C3121.14 1138 3176.65 1193.52 3176.65 1262H3168.65C3168.65 1197.93 3116.72 1146 3052.65 1146V1138Z" fill="#5384ED"/>
<circle opacity="0.3" cx="2563" cy="1142" r="43" fill="#5384ED"/>
<circle opacity="0.3" cx="2556" cy="944" r="43" fill="#5384ED"/>
<circle opacity="0.3" cx="1463" cy="639" r="43" fill="#5384ED"/>
<path d="M4151.17 759.5C4151.17 771.282 4160.72 780.833 4172.5 780.833C4184.28 780.833 4193.83 771.282 4193.83 759.5C4193.83 747.718 4184.28 738.167 4172.5 738.167C4160.72 738.167 4151.17 747.718 4151.17 759.5ZM656.172 551.797C657.734 553.359 660.266 553.359 661.828 551.797L687.284 526.341C688.846 524.779 688.846 522.246 687.284 520.684C685.722 519.122 683.19 519.122 681.627 520.684L659 543.311L636.373 520.684C634.81 519.122 632.278 519.122 630.716 520.684C629.154 522.246 629.154 524.779 630.716 526.341L656.172 551.797ZM655 489V548.968H663V489H655ZM4240 365H779V373H4240V365ZM4172.5 763.5H4240V755.5H4172.5V763.5ZM4364 639.5V489H4356V639.5H4364ZM4240 763.5C4308.48 763.5 4364 707.983 4364 639.5H4356C4356 703.565 4304.06 755.5 4240 755.5V763.5ZM4240 373C4304.06 373 4356 424.935 4356 489H4364C4364 420.517 4308.48 365 4240 365V373ZM663 489C663 424.935 714.935 373 779 373V365C710.517 365 655 420.517 655 489H663Z" fill="#5384ED"/>
<path d="M3959.67 1922C3959.67 1933.78 3969.22 1943.33 3981 1943.33C3992.78 1943.33 4002.33 1933.78 4002.33 1922C4002.33 1910.22 3992.78 1900.67 3981 1900.67C3969.22 1900.67 3959.67 1910.22 3959.67 1922ZM661.828 1642.17C660.266 1640.61 657.734 1640.61 656.172 1642.17L630.716 1667.63C629.154 1669.19 629.154 1671.72 630.716 1673.28C632.278 1674.85 634.81 1674.85 636.373 1673.28L659 1650.66L681.627 1673.28C683.19 1674.85 685.722 1674.85 687.284 1673.28C688.846 1671.72 688.846 1669.19 687.284 1667.63L661.828 1642.17ZM3981 1918H779V1926H3981V1918ZM663 1802V1645H655V1802H663ZM779 1918C714.935 1918 663 1866.07 663 1802H655C655 1870.48 710.517 1926 779 1926V1918Z" fill="#5384ED"/>
<circle opacity="0.3" cx="4173" cy="760" r="43" fill="#5384ED"/>
<circle opacity="0.3" cx="4094" cy="632" r="43" fill="#5384ED"/>
<circle opacity="0.3" cx="3892" cy="689" r="43" fill="#5384ED"/>
<circle opacity="0.3" cx="3981" cy="1922" r="43" fill="#5384ED"/>
<rect width="401" height="83" transform="translate(4914 35)" fill="#5384ED"/>
<text fill="white" xml:space="preserve" style="white-space: pre" font-family="Inter" font-size="42" font-weight="500" letter-spacing="0em"><tspan x="4946" y="91.7727">Forget password</tspan></text>
<defs>
<filter id="filter0_d_3006_20745" x="86" y="589" width="1448" height="88" filterUnits="userSpaceOnUse" color-interpolation-filters="sRGB">
<feFlood flood-opacity="0" result="BackgroundImageFix"/>
<feColorMatrix in="SourceAlpha" type="matrix" values="0 0 0 0 0 0 0 0 0 0 0 0 0 0 0 0 0 0 127 0" result="hardAlpha"/>
<feOffset dy="4"/>
<feGaussianBlur stdDeviation="2"/>
<feComposite in2="hardAlpha" operator="out"/>
<feColorMatrix type="matrix" values="0 0 0 0 0 0 0 0 0 0 0 0 0 0 0 0 0 0 0.1 0"/>
<feBlend mode="normal" in2="BackgroundImageFix" result="effect1_dropShadow_3006_20745"/>
<feBlend mode="normal" in="SourceGraphic" in2="effect1_dropShadow_3006_20745" result="shape"/>
</filter>
<filter id="filter1_d_3006_20745" x="3302" y="118" width="1448" height="88" filterUnits="userSpaceOnUse" color-interpolation-filters="sRGB">
<feFlood flood-opacity="0" result="BackgroundImageFix"/>
<feColorMatrix in="SourceAlpha" type="matrix" values="0 0 0 0 0 0 0 0 0 0 0 0 0 0 0 0 0 0 127 0" result="hardAlpha"/>
<feOffset dy="4"/>
<feGaussianBlur stdDeviation="2"/>
<feComposite in2="hardAlpha" operator="out"/>
<feColorMatrix type="matrix" values="0 0 0 0 0 0 0 0 0 0 0 0 0 0 0 0 0 0 0.1 0"/>
<feBlend mode="normal" in2="BackgroundImageFix" result="effect1_dropShadow_3006_20745"/>
<feBlend mode="normal" in="SourceGraphic" in2="effect1_dropShadow_3006_20745" result="shape"/>
</filter>
<filter id="filter2_d_3006_20745" x="1694" y="589" width="1448" height="88" filterUnits="userSpaceOnUse" color-interpolation-filters="sRGB">
<feFlood flood-opacity="0" result="BackgroundImageFix"/>
<feColorMatrix in="SourceAlpha" type="matrix" values="0 0 0 0 0 0 0 0 0 0 0 0 0 0 0 0 0 0 127 0" result="hardAlpha"/>
<feOffset dy="4"/>
<feGaussianBlur stdDeviation="2"/>
<feComposite in2="hardAlpha" operator="out"/>
<feColorMatrix type="matrix" values="0 0 0 0 0 0 0 0 0 0 0 0 0 0 0 0 0 0 0.1 0"/>
<feBlend mode="normal" in2="BackgroundImageFix" result="effect1_dropShadow_3006_20745"/>
<feBlend mode="normal" in="SourceGraphic" in2="effect1_dropShadow_3006_20745" result="shape"/>
</filter>
<filter id="filter3_d_3006_20745" x="3302" y="1313" width="1448" height="88" filterUnits="userSpaceOnUse" color-interpolation-filters="sRGB">
<feFlood flood-opacity="0" result="BackgroundImageFix"/>
<feColorMatrix in="SourceAlpha" type="matrix" values="0 0 0 0 0 0 0 0 0 0 0 0 0 0 0 0 0 0 127 0" result="hardAlpha"/>
<feOffset dy="4"/>
<feGaussianBlur stdDeviation="2"/>
<feComposite in2="hardAlpha" operator="out"/>
<feColorMatrix type="matrix" values="0 0 0 0 0 0 0 0 0 0 0 0 0 0 0 0 0 0 0.1 0"/>
<feBlend mode="normal" in2="BackgroundImageFix" result="effect1_dropShadow_3006_20745"/>
<feBlend mode="normal" in="SourceGraphic" in2="effect1_dropShadow_3006_20745" result="shape"/>
</filter>
<filter id="filter4_d_3006_20745" x="4910" y="118" width="1448" height="88" filterUnits="userSpaceOnUse" color-interpolation-filters="sRGB">
<feFlood flood-opacity="0" result="BackgroundImageFix"/>
<feColorMatrix in="SourceAlpha" type="matrix" values="0 0 0 0 0 0 0 0 0 0 0 0 0 0 0 0 0 0 127 0" result="hardAlpha"/>
<feOffset dy="4"/>
<feGaussianBlur stdDeviation="2"/>
<feComposite in2="hardAlpha" operator="out"/>
<feColorMatrix type="matrix" values="0 0 0 0 0 0 0 0 0 0 0 0 0 0 0 0 0 0 0.1 0"/>
<feBlend mode="normal" in2="BackgroundImageFix" result="effect1_dropShadow_3006_20745"/>
<feBlend mode="normal" in="SourceGraphic" in2="effect1_dropShadow_3006_20745" result="shape"/>
</filter>
<clipPath id="clip0_3006_20745">
<rect width="1440" height="1024" fill="white" transform="translate(90 589)"/>
</clipPath>
<clipPath id="clip1_3006_20745">
<rect width="45.7143" height="48" fill="white" transform="translate(1413.81 605)"/>
</clipPath>
<clipPath id="clip2_3006_20745">
<rect width="1440" height="1024" fill="white" transform="translate(3306 118)"/>
</clipPath>
<clipPath id="clip3_3006_20745">
<rect width="45.7143" height="48" fill="white" transform="translate(4629.81 134)"/>
</clipPath>
<clipPath id="clip4_3006_20745">
<rect width="1440" height="1024" fill="white" transform="translate(1698 589)"/>
</clipPath>
<clipPath id="clip5_3006_20745">
<rect width="45.7143" height="48" fill="white" transform="translate(3021.81 605)"/>
</clipPath>
<clipPath id="clip6_3006_20745">
<rect width="1440" height="1024" fill="white" transform="translate(3306 1313)"/>
</clipPath>
<clipPath id="clip7_3006_20745">
<rect width="45.7143" height="48" fill="white" transform="translate(4629.81 1329)"/>
</clipPath>
<clipPath id="clip8_3006_20745">
<rect width="1440" height="1024" fill="white" transform="translate(4914 118)"/>
</clipPath>
<clipPath id="clip9_3006_20745">
<rect width="45.7143" height="48" fill="white" transform="translate(6237.81 134)"/>
</clipPath>
</defs>
</svg>
