<svg width="1359" height="636" viewBox="0 0 1359 636" fill="none" xmlns="http://www.w3.org/2000/svg">
<path d="M456.581 299.182V337H449.73V299.182H456.581ZM463.704 337V308.636H470.093V313.456H470.426C471.017 311.831 471.995 310.563 473.362 309.652C474.728 308.729 476.359 308.267 478.255 308.267C480.176 308.267 481.795 308.735 483.112 309.67C484.441 310.594 485.377 311.856 485.919 313.456H486.214C486.842 311.88 487.901 310.625 489.39 309.689C490.892 308.741 492.671 308.267 494.727 308.267C497.337 308.267 499.467 309.092 501.116 310.741C502.766 312.391 503.591 314.798 503.591 317.962V337H496.887V318.996C496.887 317.235 496.42 315.949 495.484 315.136C494.548 314.312 493.404 313.899 492.049 313.899C490.437 313.899 489.175 314.404 488.264 315.413C487.365 316.411 486.916 317.709 486.916 319.31V337H480.36V318.719C480.36 317.254 479.917 316.084 479.031 315.21C478.157 314.336 477.012 313.899 475.596 313.899C474.636 313.899 473.762 314.145 472.974 314.638C472.186 315.118 471.558 315.801 471.091 316.688C470.623 317.562 470.389 318.583 470.389 319.753V337H463.704ZM518.534 337.572C516.737 337.572 515.118 337.252 513.678 336.612C512.25 335.96 511.117 335 510.28 333.732C509.455 332.464 509.043 330.9 509.043 329.041C509.043 327.441 509.338 326.117 509.929 325.071C510.52 324.025 511.326 323.188 512.348 322.56C513.37 321.932 514.521 321.458 515.801 321.138C517.094 320.805 518.429 320.565 519.808 320.418C521.47 320.245 522.818 320.091 523.852 319.956C524.886 319.808 525.637 319.587 526.105 319.291C526.585 318.983 526.825 318.509 526.825 317.869V317.759C526.825 316.367 526.413 315.29 525.588 314.527C524.763 313.764 523.575 313.382 522.024 313.382C520.387 313.382 519.088 313.739 518.128 314.453C517.18 315.167 516.54 316.01 516.207 316.983L509.966 316.097C510.458 314.373 511.271 312.933 512.403 311.776C513.536 310.606 514.921 309.732 516.558 309.153C518.196 308.562 520.005 308.267 521.987 308.267C523.354 308.267 524.714 308.427 526.068 308.747C527.422 309.067 528.66 309.597 529.78 310.335C530.9 311.062 531.799 312.053 532.476 313.308C533.165 314.564 533.51 316.134 533.51 318.017V337H527.084V333.104H526.862C526.456 333.892 525.884 334.63 525.145 335.32C524.419 335.997 523.501 336.545 522.393 336.963C521.298 337.369 520.011 337.572 518.534 337.572ZM520.27 332.661C521.612 332.661 522.775 332.396 523.76 331.866C524.745 331.325 525.502 330.611 526.031 329.724C526.573 328.838 526.844 327.872 526.844 326.825V323.483C526.634 323.655 526.277 323.815 525.773 323.963C525.28 324.111 524.726 324.24 524.111 324.351C523.495 324.462 522.886 324.56 522.283 324.646C521.679 324.732 521.156 324.806 520.713 324.868C519.716 325.003 518.823 325.225 518.036 325.533C517.248 325.84 516.626 326.271 516.17 326.825C515.715 327.367 515.487 328.069 515.487 328.93C515.487 330.161 515.937 331.091 516.835 331.719C517.734 332.347 518.879 332.661 520.27 332.661ZM552.567 348.227C550.166 348.227 548.104 347.901 546.381 347.249C544.657 346.608 543.272 345.747 542.226 344.663C541.179 343.58 540.453 342.38 540.047 341.062L546.067 339.604C546.338 340.158 546.732 340.705 547.249 341.247C547.766 341.801 548.461 342.257 549.335 342.614C550.222 342.983 551.336 343.168 552.678 343.168C554.573 343.168 556.143 342.706 557.386 341.783C558.63 340.872 559.251 339.37 559.251 337.277V331.903H558.919C558.574 332.593 558.07 333.301 557.405 334.027C556.752 334.753 555.884 335.363 554.801 335.855C553.73 336.348 552.382 336.594 550.757 336.594C548.578 336.594 546.602 336.083 544.83 335.061C543.069 334.027 541.666 332.488 540.619 330.445C539.585 328.389 539.068 325.816 539.068 322.726C539.068 319.611 539.585 316.983 540.619 314.841C541.666 312.687 543.075 311.055 544.848 309.947C546.621 308.827 548.597 308.267 550.776 308.267C552.438 308.267 553.804 308.55 554.875 309.116C555.958 309.67 556.82 310.341 557.46 311.129C558.1 311.905 558.587 312.637 558.919 313.327H559.288V308.636H565.881V337.462C565.881 339.887 565.302 341.893 564.145 343.482C562.988 345.07 561.406 346.258 559.399 347.045C557.393 347.833 555.115 348.227 552.567 348.227ZM552.622 331.349C554.038 331.349 555.244 331.005 556.241 330.315C557.239 329.626 557.996 328.635 558.513 327.342C559.03 326.05 559.288 324.499 559.288 322.689C559.288 320.904 559.03 319.34 558.513 317.999C558.008 316.657 557.257 315.616 556.26 314.878C555.275 314.127 554.063 313.751 552.622 313.751C551.133 313.751 549.889 314.139 548.892 314.915C547.895 315.69 547.144 316.755 546.639 318.109C546.134 319.451 545.882 320.978 545.882 322.689C545.882 324.425 546.134 325.945 546.639 327.25C547.156 328.543 547.913 329.552 548.911 330.278C549.92 330.992 551.157 331.349 552.622 331.349ZM585.288 337.554C582.445 337.554 579.989 336.963 577.92 335.781C575.865 334.587 574.283 332.901 573.175 330.722C572.067 328.53 571.513 325.951 571.513 322.984C571.513 320.067 572.067 317.506 573.175 315.303C574.295 313.087 575.858 311.363 577.865 310.132C579.872 308.889 582.229 308.267 584.938 308.267C586.686 308.267 588.335 308.55 589.886 309.116C591.45 309.67 592.829 310.532 594.023 311.702C595.229 312.871 596.177 314.361 596.866 316.17C597.556 317.968 597.901 320.11 597.901 322.597V324.646H574.652V320.141H591.493C591.481 318.86 591.204 317.722 590.662 316.724C590.12 315.715 589.363 314.921 588.391 314.342C587.43 313.764 586.31 313.474 585.03 313.474C583.663 313.474 582.463 313.807 581.429 314.472C580.395 315.124 579.589 315.986 579.01 317.057C578.444 318.116 578.154 319.279 578.142 320.547V324.48C578.142 326.13 578.444 327.545 579.047 328.727C579.65 329.897 580.493 330.795 581.577 331.423C582.66 332.039 583.928 332.347 585.381 332.347C586.353 332.347 587.233 332.211 588.021 331.94C588.809 331.657 589.492 331.245 590.071 330.703C590.65 330.161 591.087 329.491 591.382 328.69L597.624 329.392C597.23 331.042 596.479 332.482 595.371 333.713C594.275 334.932 592.872 335.88 591.161 336.557C589.449 337.222 587.492 337.554 585.288 337.554ZM616.75 337V299.182H630.931C633.837 299.182 636.274 299.723 638.244 300.807C640.226 301.89 641.722 303.38 642.731 305.276C643.753 307.159 644.264 309.301 644.264 311.702C644.264 314.127 643.753 316.281 642.731 318.165C641.709 320.048 640.201 321.532 638.207 322.615C636.213 323.686 633.757 324.222 630.839 324.222H621.44V318.589H629.916C631.615 318.589 633.006 318.294 634.089 317.703C635.172 317.112 635.973 316.3 636.49 315.266C637.019 314.232 637.284 313.044 637.284 311.702C637.284 310.36 637.019 309.178 636.49 308.156C635.973 307.134 635.166 306.34 634.071 305.774C632.987 305.196 631.59 304.906 629.879 304.906H623.6V337H616.75ZM656.604 299.182V337H649.919V299.182H656.604ZM671.64 337.572C669.842 337.572 668.223 337.252 666.783 336.612C665.355 335.96 664.222 335 663.385 333.732C662.56 332.464 662.148 330.9 662.148 329.041C662.148 327.441 662.444 326.117 663.034 325.071C663.625 324.025 664.432 323.188 665.453 322.56C666.475 321.932 667.626 321.458 668.907 321.138C670.199 320.805 671.535 320.565 672.914 320.418C674.576 320.245 675.924 320.091 676.958 319.956C677.992 319.808 678.743 319.587 679.211 319.291C679.691 318.983 679.931 318.509 679.931 317.869V317.759C679.931 316.367 679.518 315.29 678.694 314.527C677.869 313.764 676.681 313.382 675.13 313.382C673.492 313.382 672.194 313.739 671.233 314.453C670.285 315.167 669.645 316.01 669.313 316.983L663.071 316.097C663.564 314.373 664.376 312.933 665.509 311.776C666.641 310.606 668.026 309.732 669.664 309.153C671.301 308.562 673.111 308.267 675.093 308.267C676.459 308.267 677.819 308.427 679.174 308.747C680.528 309.067 681.765 309.597 682.885 310.335C684.006 311.062 684.904 312.053 685.581 313.308C686.271 314.564 686.615 316.134 686.615 318.017V337H680.189V333.104H679.968C679.561 333.892 678.989 334.63 678.25 335.32C677.524 335.997 676.607 336.545 675.499 336.963C674.403 337.369 673.117 337.572 671.64 337.572ZM673.375 332.661C674.717 332.661 675.881 332.396 676.865 331.866C677.85 331.325 678.607 330.611 679.137 329.724C679.678 328.838 679.949 327.872 679.949 326.825V323.483C679.74 323.655 679.383 323.815 678.878 323.963C678.386 324.111 677.832 324.24 677.216 324.351C676.601 324.462 675.991 324.56 675.388 324.646C674.785 324.732 674.262 324.806 673.819 324.868C672.821 325.003 671.929 325.225 671.141 325.533C670.353 325.84 669.731 326.271 669.276 326.825C668.82 327.367 668.593 328.069 668.593 328.93C668.593 330.161 669.042 331.091 669.941 331.719C670.839 332.347 671.984 332.661 673.375 332.661ZM705.709 337.554C702.878 337.554 700.446 336.932 698.415 335.689C696.396 334.446 694.839 332.728 693.743 330.537C692.66 328.333 692.118 325.797 692.118 322.929C692.118 320.048 692.672 317.506 693.78 315.303C694.888 313.087 696.452 311.363 698.471 310.132C700.502 308.889 702.902 308.267 705.672 308.267C707.974 308.267 710.012 308.692 711.784 309.541C713.569 310.378 714.991 311.566 716.05 313.105C717.109 314.632 717.712 316.417 717.86 318.46H711.471C711.212 317.094 710.596 315.955 709.624 315.044C708.664 314.121 707.377 313.659 705.765 313.659C704.398 313.659 703.198 314.028 702.164 314.767C701.13 315.493 700.323 316.54 699.745 317.906C699.178 319.273 698.895 320.91 698.895 322.818C698.895 324.751 699.178 326.413 699.745 327.804C700.311 329.183 701.105 330.248 702.127 330.999C703.161 331.737 704.373 332.107 705.765 332.107C706.749 332.107 707.63 331.922 708.405 331.553C709.193 331.171 709.852 330.623 710.381 329.909C710.91 329.195 711.274 328.327 711.471 327.305H717.86C717.7 329.312 717.109 331.091 716.087 332.642C715.065 334.181 713.674 335.387 711.914 336.261C710.153 337.123 708.085 337.554 705.709 337.554ZM735.906 337.554C733.062 337.554 730.606 336.963 728.538 335.781C726.482 334.587 724.9 332.901 723.792 330.722C722.684 328.53 722.13 325.951 722.13 322.984C722.13 320.067 722.684 317.506 723.792 315.303C724.912 313.087 726.476 311.363 728.482 310.132C730.489 308.889 732.846 308.267 735.555 308.267C737.303 308.267 738.952 308.55 740.504 309.116C742.067 309.67 743.446 310.532 744.64 311.702C745.846 312.871 746.794 314.361 747.484 316.17C748.173 317.968 748.518 320.11 748.518 322.597V324.646H725.269V320.141H742.11C742.098 318.86 741.821 317.722 741.279 316.724C740.737 315.715 739.98 314.921 739.008 314.342C738.048 313.764 736.927 313.474 735.647 313.474C734.281 313.474 733.08 313.807 732.046 314.472C731.012 315.124 730.206 315.986 729.627 317.057C729.061 318.116 728.772 319.279 728.759 320.547V324.48C728.759 326.13 729.061 327.545 729.664 328.727C730.267 329.897 731.111 330.795 732.194 331.423C733.277 332.039 734.545 332.347 735.998 332.347C736.97 332.347 737.851 332.211 738.638 331.94C739.426 331.657 740.11 331.245 740.688 330.703C741.267 330.161 741.704 329.491 741.999 328.69L748.241 329.392C747.847 331.042 747.096 332.482 745.988 333.713C744.892 334.932 743.489 335.88 741.778 336.557C740.067 337.222 738.109 337.554 735.906 337.554ZM760.858 320.381V337H754.173V299.182H760.71V313.456H761.042C761.707 311.856 762.735 310.594 764.126 309.67C765.529 308.735 767.315 308.267 769.481 308.267C771.451 308.267 773.168 308.679 774.633 309.504C776.098 310.329 777.231 311.536 778.031 313.124C778.843 314.712 779.25 316.651 779.25 318.94V337H772.565V319.974C772.565 318.066 772.073 316.583 771.088 315.524C770.115 314.453 768.749 313.918 766.988 313.918C765.806 313.918 764.748 314.176 763.812 314.693C762.889 315.198 762.163 315.93 761.633 316.891C761.116 317.851 760.858 319.014 760.858 320.381ZM798.436 337.554C795.666 337.554 793.265 336.945 791.234 335.726C789.203 334.507 787.627 332.802 786.507 330.611C785.399 328.42 784.845 325.859 784.845 322.929C784.845 319.999 785.399 317.432 786.507 315.229C787.627 313.025 789.203 311.314 791.234 310.095C793.265 308.876 795.666 308.267 798.436 308.267C801.206 308.267 803.606 308.876 805.637 310.095C807.669 311.314 809.238 313.025 810.346 315.229C811.467 317.432 812.027 319.999 812.027 322.929C812.027 325.859 811.467 328.42 810.346 330.611C809.238 332.802 807.669 334.507 805.637 335.726C803.606 336.945 801.206 337.554 798.436 337.554ZM798.473 332.199C799.975 332.199 801.23 331.786 802.24 330.962C803.249 330.125 804 329.004 804.493 327.601C804.997 326.197 805.25 324.634 805.25 322.911C805.25 321.175 804.997 319.605 804.493 318.202C804 316.786 803.249 315.66 802.24 314.822C801.23 313.985 799.975 313.567 798.473 313.567C796.934 313.567 795.654 313.985 794.632 314.822C793.622 315.66 792.865 316.786 792.36 318.202C791.868 319.605 791.622 321.175 791.622 322.911C791.622 324.634 791.868 326.197 792.36 327.601C792.865 329.004 793.622 330.125 794.632 330.962C795.654 331.786 796.934 332.199 798.473 332.199ZM824.385 299.182V337H817.7V299.182H824.385ZM841.784 337.499C839.556 337.499 837.562 336.926 835.801 335.781C834.041 334.636 832.65 332.974 831.628 330.795C830.606 328.616 830.096 325.97 830.096 322.855C830.096 319.704 830.613 317.045 831.647 314.878C832.693 312.699 834.103 311.055 835.875 309.947C837.648 308.827 839.624 308.267 841.803 308.267C843.465 308.267 844.831 308.55 845.902 309.116C846.973 309.67 847.823 310.341 848.451 311.129C849.078 311.905 849.565 312.637 849.909 313.327H850.186V299.182H856.89V337H850.316V332.531H849.909C849.565 333.221 849.066 333.953 848.414 334.729C847.761 335.492 846.9 336.144 845.828 336.686C844.757 337.228 843.409 337.499 841.784 337.499ZM843.65 332.014C845.065 332.014 846.272 331.633 847.269 330.869C848.266 330.094 849.023 329.017 849.54 327.638C850.057 326.259 850.316 324.652 850.316 322.818C850.316 320.984 850.057 319.39 849.54 318.036C849.035 316.681 848.284 315.629 847.287 314.878C846.302 314.127 845.09 313.751 843.65 313.751C842.16 313.751 840.917 314.139 839.919 314.915C838.922 315.69 838.171 316.761 837.667 318.128C837.162 319.494 836.909 321.058 836.909 322.818C836.909 324.591 837.162 326.173 837.667 327.564C838.184 328.943 838.941 330.032 839.938 330.832C840.947 331.62 842.185 332.014 843.65 332.014ZM876.57 337.554C873.726 337.554 871.27 336.963 869.202 335.781C867.146 334.587 865.564 332.901 864.456 330.722C863.348 328.53 862.794 325.951 862.794 322.984C862.794 320.067 863.348 317.506 864.456 315.303C865.576 313.087 867.14 311.363 869.146 310.132C871.153 308.889 873.51 308.267 876.219 308.267C877.967 308.267 879.616 308.55 881.168 309.116C882.731 309.67 884.11 310.532 885.304 311.702C886.51 312.871 887.458 314.361 888.148 316.17C888.837 317.968 889.182 320.11 889.182 322.597V324.646H865.933V320.141H882.774C882.762 318.86 882.485 317.722 881.943 316.724C881.402 315.715 880.644 314.921 879.672 314.342C878.712 313.764 877.591 313.474 876.311 313.474C874.945 313.474 873.744 313.807 872.71 314.472C871.676 315.124 870.87 315.986 870.291 317.057C869.725 318.116 869.436 319.279 869.423 320.547V324.48C869.423 326.13 869.725 327.545 870.328 328.727C870.931 329.897 871.775 330.795 872.858 331.423C873.941 332.039 875.209 332.347 876.662 332.347C877.634 332.347 878.515 332.211 879.303 331.94C880.09 331.657 880.774 331.245 881.352 330.703C881.931 330.161 882.368 329.491 882.663 328.69L888.905 329.392C888.511 331.042 887.76 332.482 886.652 333.713C885.556 334.932 884.153 335.88 882.442 336.557C880.731 337.222 878.773 337.554 876.57 337.554ZM894.837 337V308.636H901.319V313.364H901.614C902.131 311.726 903.017 310.464 904.273 309.578C905.541 308.679 906.988 308.23 908.613 308.23C908.982 308.23 909.394 308.249 909.85 308.286C910.318 308.31 910.705 308.353 911.013 308.415V314.564C910.73 314.465 910.281 314.379 909.665 314.305C909.062 314.219 908.477 314.176 907.911 314.176C906.692 314.176 905.596 314.441 904.624 314.97C903.664 315.487 902.907 316.207 902.353 317.131C901.799 318.054 901.522 319.119 901.522 320.325V337H894.837Z" fill="#AAAAAA"/>
</svg>
