<svg width="1059" height="80" viewBox="0 0 1059 80" fill="none" xmlns="http://www.w3.org/2000/svg">
<g clip-path="url(#clip0_633_5226)">
<path d="M36.0469 24.8V45.2H15.6469V30.8C15.6469 25.2 16.5802 20.0667 18.4469 15.4C20.3135 10.7333 23.4469 6.19999 27.8469 1.79999L35.4469 7.79999C30.2469 13.5333 27.3135 19.2 26.6469 24.8H36.0469ZM69.2469 24.8V45.2H48.8469V30.8C48.8469 25.2 49.7802 20.0667 51.6469 15.4C53.5135 10.7333 56.6469 6.19999 61.0469 1.79999L68.6469 7.79999C63.4469 13.5333 60.5135 19.2 59.8469 24.8H69.2469Z" fill="#ECEAFE"/>
<path d="M1008.55 13V27.4C1008.55 33 1007.61 38.1333 1005.75 42.8C1004.01 47.4667 1000.95 52 996.547 56.4L988.947 50.4C994.147 44.6667 997.08 39 997.747 33.4H988.147V13H1008.55ZM1041.75 13V27.4C1041.75 33 1040.81 38.1333 1038.95 42.8C1037.21 47.4667 1034.15 52 1029.75 56.4L1022.15 50.4C1027.35 44.6667 1030.28 39 1030.95 33.4H1021.35V13H1041.75Z" fill="#ECEAFE"/>
</g>
<defs>
<clipPath id="clip0_633_5226">
<rect width="1059" height="80" fill="white"/>
</clipPath>
</defs>
</svg>
