<svg width="685" height="80" viewBox="0 0 685 80" fill="none" xmlns="http://www.w3.org/2000/svg">
<g clip-path="url(#clip0_633_5229)">
<path d="M36.0469 24.8V45.2H15.6469V30.8C15.6469 25.2 16.5802 20.0667 18.4469 15.4C20.3135 10.7333 23.4469 6.19999 27.8469 1.79999L35.4469 7.79999C30.2469 13.5333 27.3135 19.2 26.6469 24.8H36.0469ZM69.2469 24.8V45.2H48.8469V30.8C48.8469 25.2 49.7802 20.0667 51.6469 15.4C53.5135 10.7333 56.6469 6.19999 61.0469 1.79999L68.6469 7.79999C63.4469 13.5333 60.5135 19.2 59.8469 24.8H69.2469Z" fill="#ECEAFE"/>
<path d="M620.547 13V27.4C620.547 33 619.614 38.1333 617.747 42.8C616.014 47.4667 612.947 52 608.547 56.4L600.947 50.4C606.147 44.6667 609.08 39 609.747 33.4H600.147V13H620.547ZM653.747 13V27.4C653.747 33 652.814 38.1333 650.947 42.8C649.214 47.4667 646.147 52 641.747 56.4L634.147 50.4C639.347 44.6667 642.28 39 642.947 33.4H633.347V13H653.747Z" fill="#ECEAFE"/>
</g>
<defs>
<clipPath id="clip0_633_5229">
<rect width="685" height="80" fill="white"/>
</clipPath>
</defs>
</svg>
