<svg width="2899" height="1342" viewBox="0 0 2899 1342" fill="none" xmlns="http://www.w3.org/2000/svg">
<g clip-path="url(#clip0_114_5755)">
<rect width="2899" height="1342" fill="white"/>
<g opacity="0.15" filter="url(#filter0_f_114_5755)">
<path d="M853 861C1308.64 861 1678 707.658 1678 518.5C1678 329.342 1308.64 176 853 176C397.365 176 28 329.342 28 518.5C28 707.658 397.365 861 853 861Z" fill="url(#paint0_radial_114_5755)"/>
<path d="M2091 861C2498.03 861 2828 723.551 2828 554C2828 384.449 2498.03 247 2091 247C1683.97 247 1354 384.449 1354 554C1354 723.551 1683.97 861 2091 861Z" fill="url(#paint1_radial_114_5755)"/>
<path d="M1055 1172C1511.19 1172 1881 1018.66 1881 829.5C1881 640.342 1511.19 487 1055 487C598.813 487 229 640.342 229 829.5C229 1018.66 598.813 1172 1055 1172Z" fill="url(#paint2_radial_114_5755)"/>
<path d="M1996 1048C2403.03 1048 2733 910.775 2733 741.5C2733 572.225 2403.03 435 1996 435C1588.97 435 1259 572.225 1259 741.5C1259 910.775 1588.97 1048 1996 1048Z" fill="url(#paint3_radial_114_5755)"/>
<path d="M2119.64 1068.26C2500.51 1068.26 2809.27 930.755 2809.27 761.131C2809.27 591.507 2500.51 454 2119.64 454C1738.76 454 1430 591.507 1430 761.131C1430 930.755 1738.76 1068.26 2119.64 1068.26Z" fill="url(#paint4_radial_114_5755)"/>
<path d="M2157.64 1285.26C2538.51 1285.26 2847.27 1147.75 2847.27 978.131C2847.27 808.507 2538.51 671 2157.64 671C1776.76 671 1468 808.507 1468 978.131C1468 1147.75 1776.76 1285.26 2157.64 1285.26Z" fill="url(#paint5_radial_114_5755)"/>
</g>
</g>
<defs>
<filter id="filter0_f_114_5755" x="-132" y="16" width="3139.27" height="1429.26" filterUnits="userSpaceOnUse" color-interpolation-filters="sRGB">
<feFlood flood-opacity="0" result="BackgroundImageFix"/>
<feBlend mode="normal" in="SourceGraphic" in2="BackgroundImageFix" result="shape"/>
<feGaussianBlur stdDeviation="80" result="effect1_foregroundBlur_114_5755"/>
</filter>
<radialGradient id="paint0_radial_114_5755" cx="0" cy="0" r="1" gradientUnits="userSpaceOnUse" gradientTransform="translate(-46172 72685.7) rotate(90) scale(401238 597138)">
<stop stop-color="#76E4FE"/>
<stop offset="1" stop-color="#1F9EFB" stop-opacity="0"/>
</radialGradient>
<radialGradient id="paint1_radial_114_5755" cx="0" cy="0" r="1" gradientUnits="userSpaceOnUse" gradientTransform="translate(-107573 197879) rotate(90) scale(359650 533444)">
<stop stop-color="#FAD374"/>
<stop offset="1" stop-color="#F9CB76" stop-opacity="0"/>
</radialGradient>
<radialGradient id="paint2_radial_114_5755" cx="0" cy="0" r="1" gradientUnits="userSpaceOnUse" gradientTransform="translate(-387248 20352) rotate(90) scale(401238 597862)">
<stop stop-color="#4F1FF2"/>
<stop offset="1" stop-color="#4E23F2" stop-opacity="0"/>
</radialGradient>
<radialGradient id="paint3_radial_114_5755" cx="0" cy="0" r="1" gradientUnits="userSpaceOnUse" gradientTransform="translate(-373281 185010) rotate(90) scale(359064 533444)">
<stop stop-color="#F02BA6"/>
<stop offset="1" stop-color="#F024A9" stop-opacity="0"/>
</radialGradient>
<radialGradient id="paint4_radial_114_5755" cx="0" cy="0" r="1" gradientUnits="userSpaceOnUse" gradientTransform="translate(-100497 378072) rotate(90) scale(359803 499162)">
<stop stop-color="#F57690"/>
<stop offset="1" stop-color="#F5818D" stop-opacity="0"/>
</radialGradient>
<radialGradient id="paint5_radial_114_5755" cx="0" cy="0" r="1" gradientUnits="userSpaceOnUse" gradientTransform="translate(-348822 354047) rotate(90) scale(359803 499162)">
<stop stop-color="#2B7DF8"/>
<stop offset="1" stop-color="#2A80F9" stop-opacity="0"/>
</radialGradient>
<clipPath id="clip0_114_5755">
<rect width="2899" height="1342" fill="white"/>
</clipPath>
</defs>
</svg>
