<svg width="86" height="86" viewBox="0 0 86 86" fill="none" xmlns="http://www.w3.org/2000/svg">
<rect width="86" height="86" rx="12" fill="white"/>
<path d="M35.5 41.5L41.5 28C42.6935 28 43.8381 28.4741 44.682 29.318C45.5259 30.1619 46 31.3065 46 32.5V38.5H54.49C54.9249 38.4951 55.3556 38.5848 55.7524 38.7628C56.1491 38.9409 56.5024 39.2031 56.7878 39.5313C57.0732 39.8594 57.2838 40.2457 57.405 40.6634C57.5263 41.081 57.5553 41.52 57.49 41.95L55.42 55.45C55.3115 56.1654 54.9482 56.8174 54.3969 57.286C53.8456 57.7546 53.1435 58.0082 52.42 58H35.5M35.5 41.5V58M35.5 41.5H31C30.2044 41.5 29.4413 41.8161 28.8787 42.3787C28.3161 42.9413 28 43.7044 28 44.5V55C28 55.7957 28.3161 56.5587 28.8787 57.1213C29.4413 57.6839 30.2044 58 31 58H35.5" stroke="#605DEC" stroke-width="3" stroke-linecap="round" stroke-linejoin="round"/>
</svg>
