<svg width="88" height="88" viewBox="0 0 88 88" fill="none" xmlns="http://www.w3.org/2000/svg">
<rect width="88" height="88" rx="12" fill="white"/>
<path fill-rule="evenodd" clip-rule="evenodd" d="M50.5382 29H37.4618C32.3838 29 29 32.6299 29 37.8398V50.1602C29 55.375 32.3749 59 37.4618 59H50.5382C55.6251 59 59 55.375 59 50.1602V37.8398C59 32.625 55.6251 29 50.5382 29ZM37.4618 31.0931H50.5382C54.4344 31.0931 56.9069 33.7489 56.9069 37.8398V50.1603C56.9069 54.2512 54.4344 56.907 50.5382 56.907H37.4618C33.5655 56.907 31.093 54.2512 31.093 50.1603V37.8398C31.093 33.7543 33.5738 31.0931 37.4618 31.0931ZM45.0901 36.7684C45.0208 36.2576 44.583 35.8639 44.0532 35.8639C43.4752 35.8639 43.0067 36.3324 43.0067 36.9104V51.063L43.0162 51.205C43.0855 51.7158 43.5234 52.1096 44.0532 52.1096C44.6311 52.1096 45.0997 51.641 45.0997 51.063V36.9104L45.0901 36.7684ZM38.5785 41.3488C38.5092 40.838 38.0714 40.4443 37.5416 40.4443C36.9636 40.4443 36.4951 40.9128 36.4951 41.4908V51.0631L36.5046 51.2051C36.5739 51.7159 37.0118 52.1096 37.5416 52.1096C38.1195 52.1096 38.5881 51.641 38.5881 51.0631V41.4908L38.5785 41.3488ZM50.4585 45.5026C50.9883 45.5026 51.4261 45.8963 51.4954 46.4071L51.505 46.5491V51.063C51.505 51.641 51.0364 52.1096 50.4585 52.1096C49.9287 52.1096 49.4908 51.7159 49.4215 51.2051L49.412 51.063V46.5491C49.412 45.9711 49.8805 45.5026 50.4585 45.5026Z" fill="#605DEC"/>
<path d="M45.0901 36.7684L45.589 36.7348L45.5879 36.718L45.5856 36.7012L45.0901 36.7684ZM43.0067 51.063H42.5067V51.0798L42.5078 51.0966L43.0067 51.063ZM43.0162 51.205L42.5173 51.2386L42.5185 51.2555L42.5207 51.2723L43.0162 51.205ZM45.0997 36.9104H45.5997V36.8936L45.5985 36.8768L45.0997 36.9104ZM38.5785 41.3488L39.0774 41.3152L39.0763 41.2983L39.074 41.2816L38.5785 41.3488ZM36.4951 51.0631H35.9951V51.0799L35.9962 51.0966L36.4951 51.0631ZM36.5046 51.2051L36.0057 51.2386L36.0069 51.2555L36.0091 51.2723L36.5046 51.2051ZM38.5881 41.4908H39.0881V41.474L39.087 41.4572L38.5881 41.4908ZM51.4954 46.4071L51.9943 46.3735L51.9932 46.3566L51.9909 46.3399L51.4954 46.4071ZM51.505 46.5491H52.005V46.5323L52.0039 46.5155L51.505 46.5491ZM49.4215 51.2051L48.9226 51.2386L48.9238 51.2555L48.926 51.2723L49.4215 51.2051ZM49.412 51.063H48.912V51.0799L48.9131 51.0966L49.412 51.063ZM37.4618 29.5H50.5382V28.5H37.4618V29.5ZM29.5 37.8398C29.5 35.3438 30.3091 33.2633 31.6892 31.8105C33.0669 30.3602 35.047 29.5 37.4618 29.5V28.5C34.7986 28.5 32.5477 29.4548 30.9641 31.1218C29.3828 32.7864 28.5 35.1258 28.5 37.8398H29.5ZM29.5 50.1602V37.8398H28.5V50.1602H29.5ZM37.4618 58.5C35.0421 58.5 33.0623 57.6408 31.6859 56.1914C30.3071 54.7395 29.5 52.6591 29.5 50.1602H28.5C28.5 52.8762 29.3803 55.2157 30.9607 56.88C32.5435 58.5467 34.7945 59.5 37.4618 59.5V58.5ZM50.5382 58.5H37.4618V59.5H50.5382V58.5ZM58.5 50.1602C58.5 52.6591 57.6929 54.7395 56.3141 56.1914C54.9377 57.6408 52.9578 58.5 50.5382 58.5V59.5C53.2055 59.5 55.4565 58.5467 57.0393 56.88C58.6197 55.2157 59.5 52.8762 59.5 50.1602H58.5ZM58.5 37.8398V50.1602H59.5V37.8398H58.5ZM50.5382 29.5C52.9578 29.5 54.9377 30.3592 56.3141 31.8086C57.6929 33.2605 58.5 35.3409 58.5 37.8398H59.5C59.5 35.1238 58.6197 32.7843 57.0393 31.12C55.4565 29.4533 53.2055 28.5 50.5382 28.5V29.5ZM50.5382 30.5931H37.4618V31.5931H50.5382V30.5931ZM57.4069 37.8398C57.4069 35.6941 56.7572 33.8759 55.5479 32.5898C54.3355 31.3005 52.6044 30.5931 50.5382 30.5931V31.5931C52.3681 31.5931 53.8215 32.2136 54.8194 33.2749C55.8204 34.3394 56.4069 35.8945 56.4069 37.8398H57.4069ZM57.4069 50.1603V37.8398H56.4069V50.1603H57.4069ZM50.5382 57.407C52.6044 57.407 54.3355 56.6997 55.5479 55.4103C56.7572 54.1242 57.4069 52.306 57.4069 50.1603H56.4069C56.4069 52.1056 55.8204 53.6607 54.8194 54.7253C53.8215 55.7865 52.3681 56.407 50.5382 56.407V57.407ZM37.4618 57.407H50.5382V56.407H37.4618V57.407ZM30.593 50.1603C30.593 52.306 31.2427 54.1242 32.452 55.4103C33.6644 56.6997 35.3955 57.407 37.4618 57.407V56.407C35.6318 56.407 34.1785 55.7865 33.1805 54.7253C32.1795 53.6607 31.593 52.1056 31.593 50.1603H30.593ZM30.593 37.8398V50.1603H31.593V37.8398H30.593ZM37.4618 30.5931C35.3991 30.5931 33.6683 31.3022 32.4552 32.5918C31.2451 33.8782 30.593 35.6963 30.593 37.8398H31.593C31.593 35.8978 32.1812 34.3425 33.1836 33.277C34.1829 32.2146 35.6365 31.5931 37.4618 31.5931V30.5931ZM44.0532 36.3639C44.3294 36.3639 44.5585 36.5693 44.5947 36.8356L45.5856 36.7012C45.4831 35.9458 44.8365 35.3639 44.0532 35.3639V36.3639ZM43.5067 36.9104C43.5067 36.6086 43.7513 36.3639 44.0532 36.3639V35.3639C43.199 35.3639 42.5067 36.0563 42.5067 36.9104H43.5067ZM43.5067 51.063V36.9104H42.5067V51.063H43.5067ZM43.5151 51.1715L43.5055 51.0295L42.5078 51.0966L42.5173 51.2386L43.5151 51.1715ZM44.0532 51.6096C43.7769 51.6096 43.5478 51.4041 43.5117 51.1378L42.5207 51.2723C42.6232 52.0276 43.2698 52.6096 44.0532 52.6096V51.6096ZM44.5997 51.063C44.5997 51.3649 44.355 51.6096 44.0532 51.6096V52.6096C44.9073 52.6096 45.5997 51.9172 45.5997 51.063H44.5997ZM44.5997 36.9104V51.063H45.5997V36.9104H44.5997ZM44.5912 36.802L44.6008 36.944L45.5985 36.8768L45.589 36.7348L44.5912 36.802ZM37.5416 40.9443C37.8178 40.9443 38.0469 41.1497 38.0831 41.416L39.074 41.2816C38.9715 40.5262 38.3249 39.9443 37.5416 39.9443V40.9443ZM36.9951 41.4908C36.9951 41.189 37.2397 40.9443 37.5416 40.9443V39.9443C36.6875 39.9443 35.9951 40.6367 35.9951 41.4908H36.9951ZM36.9951 51.0631V41.4908H35.9951V51.0631H36.9951ZM37.0035 51.1715L36.9939 51.0295L35.9962 51.0966L36.0057 51.2386L37.0035 51.1715ZM37.5416 51.6096C37.2653 51.6096 37.0362 51.4041 37.0001 51.1379L36.0091 51.2723C36.1116 52.0276 36.7582 52.6096 37.5416 52.6096V51.6096ZM38.0881 51.0631C38.0881 51.3649 37.8434 51.6096 37.5416 51.6096V52.6096C38.3957 52.6096 39.0881 51.9172 39.0881 51.0631H38.0881ZM38.0881 41.4908V51.0631H39.0881V41.4908H38.0881ZM38.0797 41.3823L38.0892 41.5243L39.087 41.4572L39.0774 41.3152L38.0797 41.3823ZM51.9909 46.3399C51.8884 45.5845 51.2418 45.0026 50.4585 45.0026V46.0026C50.7347 46.0026 50.9638 46.208 51 46.4743L51.9909 46.3399ZM52.0039 46.5155L51.9943 46.3735L50.9966 46.4406L51.0061 46.5826L52.0039 46.5155ZM52.005 51.063V46.5491H51.005V51.063H52.005ZM50.4585 52.6096C51.3126 52.6096 52.005 51.9172 52.005 51.063H51.005C51.005 51.3649 50.7603 51.6096 50.4585 51.6096V52.6096ZM48.926 51.2723C49.0285 52.0276 49.6751 52.6096 50.4585 52.6096V51.6096C50.1822 51.6096 49.9531 51.4041 49.917 51.1378L48.926 51.2723ZM48.9131 51.0966L48.9226 51.2386L49.9204 51.1715L49.9108 51.0295L48.9131 51.0966ZM48.912 46.5491V51.063H49.912V46.5491H48.912ZM50.4585 45.0026C49.6044 45.0026 48.912 45.695 48.912 46.5491H49.912C49.912 46.2472 50.1566 46.0026 50.4585 46.0026V45.0026Z" fill="#605DEC"/>
</svg>
