<svg width="88" height="88" viewBox="0 0 88 88" fill="none" xmlns="http://www.w3.org/2000/svg">
<path d="M0 12C0 5.37258 5.37258 0 12 0H76C82.6274 0 88 5.37258 88 12V76C88 82.6274 82.6274 88 76 88H12C5.37258 88 0 82.6274 0 76V12Z" fill="white"/>
<path d="M44 42.125C48.1421 42.125 51.5 38.7671 51.5 34.625C51.5 30.4829 48.1421 27.125 44 27.125C39.8579 27.125 36.5 30.4829 36.5 34.625C36.5 38.7671 39.8579 42.125 44 42.125Z" stroke="#605DEC" stroke-width="3" stroke-linecap="round" stroke-linejoin="round"/>
<path d="M59 60.875V57.125C59 55.1359 58.2098 53.2282 56.8033 51.8217C55.3968 50.4152 53.4891 49.625 51.5 49.625H36.5C34.5109 49.625 32.6032 50.4152 31.1967 51.8217C29.7902 53.2282 29 55.1359 29 57.125V60.875" stroke="#605DEC" stroke-width="3" stroke-linecap="round" stroke-linejoin="round"/>
</svg>
