<svg width="88" height="88" viewBox="0 0 88 88" fill="none" xmlns="http://www.w3.org/2000/svg">
<path d="M-0.00012207 12C-0.00012207 5.37258 5.37246 0 11.9999 0H75.9999C82.6273 0 87.9999 5.37258 87.9999 12V76C87.9999 82.6274 82.6273 88 75.9999 88H11.9999C5.37246 88 -0.00012207 82.6274 -0.00012207 76V12Z" fill="white"/>
<path d="M55.9999 30.5H31.9999C30.343 30.5 28.9999 31.8431 28.9999 33.5V48.5C28.9999 50.1569 30.343 51.5 31.9999 51.5H55.9999C57.6567 51.5 58.9999 50.1569 58.9999 48.5V33.5C58.9999 31.8431 57.6567 30.5 55.9999 30.5Z" stroke="#605DEC" stroke-width="3" stroke-linecap="round" stroke-linejoin="round"/>
<path d="M43.9999 51.5V57.5" stroke="#605DEC" stroke-width="3" stroke-linecap="round" stroke-linejoin="round"/>
<path d="M37.9999 57.5H49.9999" stroke="#605DEC" stroke-width="3" stroke-linecap="round" stroke-linejoin="round"/>
</svg>
