<svg width="1280" height="771" viewBox="0 0 1280 771" fill="none" xmlns="http://www.w3.org/2000/svg">
<rect width="250" height="51" fill="#605DEC"/>
<text fill="white" xml:space="preserve" style="white-space: pre" font-family="Roboto" font-size="30" font-weight="500" letter-spacing="0em"><tspan x="16" y="35.7539">Saved keywords</tspan></text>
<g clip-path="url(#clip0_3258_23252)">
<rect width="1280" height="720" transform="translate(0 51)" fill="white"/>
<rect width="191" height="48" transform="translate(0 131)" fill="#F5F5F5"/>
<path d="M37.21 158.89C36.5739 160.394 35.5788 161.72 34.3119 162.751C33.045 163.782 31.5448 164.487 29.9425 164.805C28.3401 165.122 26.6845 165.042 25.1202 164.572C23.5559 164.101 22.1307 163.255 20.9691 162.107C19.8075 160.958 18.9449 159.543 18.4567 157.984C17.9685 156.425 17.8696 154.771 18.1686 153.165C18.4677 151.559 19.1555 150.051 20.1721 148.772C21.1886 147.493 22.5029 146.483 24 145.83" stroke="#7D7D7D" stroke-width="2" stroke-linecap="round" stroke-linejoin="round"/>
<path d="M38 155C38 153.687 37.7413 152.386 37.2388 151.173C36.7362 149.96 35.9997 148.858 35.0711 147.929C34.1425 147 33.0401 146.264 31.8268 145.761C30.6136 145.259 29.3132 145 28 145V155H38Z" stroke="#7D7D7D" stroke-width="2" stroke-linecap="round" stroke-linejoin="round"/>
<text fill="#7D7D7D" xml:space="preserve" style="white-space: pre" font-family="Chalkboard" font-size="16" letter-spacing="0em"><tspan x="48" y="160.578">Dashboard</tspan></text>
<g filter="url(#filter0_i_3258_23252)">
<rect width="191" height="48" transform="translate(0 179)" fill="white"/>
<path d="M34 199H35C36.0609 199 37.0783 199.421 37.8284 200.172C38.5786 200.922 39 201.939 39 203C39 204.061 38.5786 205.078 37.8284 205.828C37.0783 206.579 36.0609 207 35 207H34" stroke="#333333" stroke-width="2" stroke-linecap="round" stroke-linejoin="round"/>
<path d="M18 199H34V208C34 209.061 33.5786 210.078 32.8284 210.828C32.0783 211.579 31.0609 212 30 212H22C20.9391 212 19.9217 211.579 19.1716 210.828C18.4214 210.078 18 209.061 18 208V199Z" stroke="#333333" stroke-width="2" stroke-linecap="round" stroke-linejoin="round"/>
<path d="M22 192V195" stroke="#333333" stroke-width="2" stroke-linecap="round" stroke-linejoin="round"/>
<path d="M26 192V195" stroke="#898F9B" stroke-width="2" stroke-linecap="round" stroke-linejoin="round"/>
<path d="M30 192V195" stroke="#898F9B" stroke-width="2" stroke-linecap="round" stroke-linejoin="round"/>
<text fill="#333333" xml:space="preserve" style="white-space: pre" font-family="Chalkboard" font-size="16" letter-spacing="0em"><tspan x="48" y="208.578">Keywords</tspan></text>
<path d="M173 206L167 200L161 206" stroke="#333333" stroke-width="2" stroke-linecap="round" stroke-linejoin="round"/>
</g>
<rect width="191" height="108" transform="translate(0 227)" fill="white"/>
<text fill="#7D7D7D" xml:space="preserve" style="white-space: pre" font-family="Chalkboard" font-size="16" letter-spacing="0em"><tspan x="48" y="250.578">Keyword</tspan></text>
<rect width="191" height="36" transform="translate(0 263)" fill="#EEEEEE"/>
<text fill="#7D7D7D" xml:space="preserve" style="white-space: pre" font-family="Chalkboard" font-size="16" letter-spacing="0em"><tspan x="48" y="286.578">Keyword</tspan></text>
<text fill="#7D7D7D" xml:space="preserve" style="white-space: pre" font-family="Chalkboard" font-size="16" letter-spacing="0em"><tspan x="48" y="322.578">Keyword</tspan></text>
<rect width="191" height="48" transform="translate(0 335)" fill="#F5F5F5"/>
<path d="M28 362C29.6569 362 31 360.657 31 359C31 357.343 29.6569 356 28 356C26.3431 356 25 357.343 25 359C25 360.657 26.3431 362 28 362Z" stroke="#7D7D7D" stroke-width="2" stroke-linecap="round" stroke-linejoin="round"/>
<path d="M35.4 362C35.2669 362.302 35.2272 362.636 35.286 362.961C35.3448 363.285 35.4995 363.584 35.73 363.82L35.79 363.88C35.976 364.066 36.1235 364.286 36.2241 364.529C36.3248 364.772 36.3766 365.032 36.3766 365.295C36.3766 365.558 36.3248 365.818 36.2241 366.061C36.1235 366.304 35.976 366.524 35.79 366.71C35.6043 366.896 35.3837 367.043 35.1409 367.144C34.8981 367.245 34.6378 367.297 34.375 367.297C34.1122 367.297 33.8519 367.245 33.6091 367.144C33.3663 367.043 33.1457 366.896 32.96 366.71L32.9 366.65C32.6643 366.419 32.365 366.265 32.0406 366.206C31.7162 366.147 31.3816 366.187 31.08 366.32C30.7842 366.447 30.532 366.657 30.3543 366.926C30.1766 367.194 30.0813 367.508 30.08 367.83V368C30.08 368.53 29.8693 369.039 29.4942 369.414C29.1191 369.789 28.6104 370 28.08 370C27.5496 370 27.0409 369.789 26.6658 369.414C26.2907 369.039 26.08 368.53 26.08 368V367.91C26.0723 367.579 25.9651 367.258 25.7725 366.989C25.5799 366.719 25.3107 366.514 25 366.4C24.6984 366.267 24.3638 366.227 24.0394 366.286C23.715 366.345 23.4157 366.499 23.18 366.73L23.12 366.79C22.9343 366.976 22.7137 367.123 22.4709 367.224C22.2281 367.325 21.9678 367.377 21.705 367.377C21.4422 367.377 21.1819 367.325 20.9391 367.224C20.6963 367.123 20.4757 366.976 20.29 366.79C20.104 366.604 19.9565 366.384 19.8559 366.141C19.7552 365.898 19.7034 365.638 19.7034 365.375C19.7034 365.112 19.7552 364.852 19.8559 364.609C19.9565 364.366 20.104 364.146 20.29 363.96L20.35 363.9C20.5805 363.664 20.7352 363.365 20.794 363.041C20.8528 362.716 20.8131 362.382 20.68 362.08C20.5532 361.784 20.3428 361.532 20.0745 361.354C19.8062 361.177 19.4918 361.081 19.17 361.08H19C18.4696 361.08 17.9609 360.869 17.5858 360.494C17.2107 360.119 17 359.61 17 359.08C17 358.55 17.2107 358.041 17.5858 357.666C17.9609 357.291 18.4696 357.08 19 357.08H19.09C19.421 357.072 19.742 356.965 20.0113 356.773C20.2806 356.58 20.4857 356.311 20.6 356C20.7331 355.698 20.7728 355.364 20.714 355.039C20.6552 354.715 20.5005 354.416 20.27 354.18L20.21 354.12C20.024 353.934 19.8765 353.714 19.7759 353.471C19.6752 353.228 19.6234 352.968 19.6234 352.705C19.6234 352.442 19.6752 352.182 19.7759 351.939C19.8765 351.696 20.024 351.476 20.21 351.29C20.3957 351.104 20.6163 350.957 20.8591 350.856C21.1019 350.755 21.3622 350.703 21.625 350.703C21.8878 350.703 22.1481 350.755 22.3909 350.856C22.6337 350.957 22.8543 351.104 23.04 351.29L23.1 351.35C23.3357 351.581 23.635 351.735 23.9594 351.794C24.2838 351.853 24.6184 351.813 24.92 351.68H25C25.2958 351.553 25.548 351.343 25.7257 351.074C25.9034 350.806 25.9987 350.492 26 350.17V350C26 349.47 26.2107 348.961 26.5858 348.586C26.9609 348.211 27.4696 348 28 348C28.5304 348 29.0391 348.211 29.4142 348.586C29.7893 348.961 30 349.47 30 350V350.09C30.0013 350.412 30.0966 350.726 30.2743 350.994C30.452 351.263 30.7042 351.473 31 351.6C31.3016 351.733 31.6362 351.773 31.9606 351.714C32.285 351.655 32.5843 351.501 32.82 351.27L32.88 351.21C33.0657 351.024 33.2863 350.877 33.5291 350.776C33.7719 350.675 34.0322 350.623 34.295 350.623C34.5578 350.623 34.8181 350.675 35.0609 350.776C35.3037 350.877 35.5243 351.024 35.71 351.21C35.896 351.396 36.0435 351.616 36.1441 351.859C36.2448 352.102 36.2966 352.362 36.2966 352.625C36.2966 352.888 36.2448 353.148 36.1441 353.391C36.0435 353.634 35.896 353.854 35.71 354.04L35.65 354.1C35.4195 354.336 35.2648 354.635 35.206 354.959C35.1472 355.284 35.1869 355.618 35.32 355.92V356C35.4468 356.296 35.6572 356.548 35.9255 356.726C36.1938 356.903 36.5082 356.999 36.83 357H37C37.5304 357 38.0391 357.211 38.4142 357.586C38.7893 357.961 39 358.47 39 359C39 359.53 38.7893 360.039 38.4142 360.414C38.0391 360.789 37.5304 361 37 361H36.91C36.5882 361.001 36.2738 361.097 36.0055 361.274C35.7372 361.452 35.5268 361.704 35.4 362V362Z" stroke="#7D7D7D" stroke-width="2" stroke-linecap="round" stroke-linejoin="round"/>
<text fill="#7D7D7D" xml:space="preserve" style="white-space: pre" font-family="Chalkboard" font-size="16" letter-spacing="0em"><tspan x="48" y="364.578">Settings</tspan></text>
<rect x="-1" y="130" width="193" height="254" stroke="#EEEEEE" stroke-width="2"/>
<g filter="url(#filter1_d_3258_23252)">
<rect width="1280" height="80" transform="translate(0 51)" fill="white"/>
<rect x="65" y="68" width="39.8684" height="38" fill="#F5F5F5"/>
<path d="M70 73L100 101" stroke="#AAAAAA" stroke-width="2"/>
<path d="M100 73L70 101" stroke="#AAAAAA" stroke-width="2"/>
<rect x="65" y="68" width="39.8684" height="38" stroke="#AAAAAA" stroke-width="2"/>
<circle cx="1192" cy="91" r="23" fill="#F5F5F5" stroke="#AAAAAA" stroke-width="2"/>
<mask id="path-23-inside-1_3258_23252" fill="white">
<path fill-rule="evenodd" clip-rule="evenodd" d="M1174 106.875V106C1174 100.015 1185.99 97 1192 97C1198.01 97 1210 100.015 1210 106V106.875C1205.6 111.857 1199.17 115 1192 115C1184.83 115 1178.4 111.857 1174 106.875ZM1192 77C1187.03 77 1183 81.0275 1183 86C1183 90.9725 1187.03 95 1192 95C1196.97 95 1201 90.9725 1201 86C1201 81.0275 1196.97 77 1192 77Z"/>
</mask>
<path fill-rule="evenodd" clip-rule="evenodd" d="M1174 106.875V106C1174 100.015 1185.99 97 1192 97C1198.01 97 1210 100.015 1210 106V106.875C1205.6 111.857 1199.17 115 1192 115C1184.83 115 1178.4 111.857 1174 106.875ZM1192 77C1187.03 77 1183 81.0275 1183 86C1183 90.9725 1187.03 95 1192 95C1196.97 95 1201 90.9725 1201 86C1201 81.0275 1196.97 77 1192 77Z" fill="#F5F5F5"/>
<path d="M1174 106.875H1172V107.631L1172.5 108.198L1174 106.875ZM1210 106.875L1211.5 108.198L1212 107.631V106.875H1210ZM1176 106.875V106H1172V106.875H1176ZM1176 106C1176 105.238 1176.37 104.423 1177.32 103.539C1178.3 102.641 1179.74 101.814 1181.49 101.112C1185 99.7068 1189.25 99 1192 99V95C1188.75 95 1183.99 95.8007 1180 97.3991C1178.01 98.1989 1176.08 99.2477 1174.61 100.599C1173.13 101.963 1172 103.769 1172 106H1176ZM1192 99C1194.75 99 1199 99.7068 1202.51 101.112C1204.26 101.814 1205.7 102.641 1206.68 103.539C1207.63 104.423 1208 105.238 1208 106H1212C1212 103.769 1210.87 101.963 1209.39 100.599C1207.92 99.2477 1205.99 98.1989 1204 97.3991C1200.01 95.8007 1195.25 95 1192 95V99ZM1208 106V106.875H1212V106H1208ZM1208.5 105.551C1204.47 110.122 1198.57 113 1192 113V117C1199.77 117 1206.74 113.593 1211.5 108.198L1208.5 105.551ZM1192 113C1185.43 113 1179.53 110.122 1175.5 105.551L1172.5 108.198C1177.26 113.593 1184.23 117 1192 117V113ZM1185 86C1185 82.1321 1188.13 79 1192 79V75C1185.92 75 1181 79.9229 1181 86H1185ZM1192 93C1188.13 93 1185 89.8679 1185 86H1181C1181 92.0771 1185.92 97 1192 97V93ZM1199 86C1199 89.8679 1195.87 93 1192 93V97C1198.08 97 1203 92.0771 1203 86H1199ZM1192 79C1195.87 79 1199 82.1321 1199 86H1203C1203 79.9229 1198.08 75 1192 75V79Z" fill="#AAAAAA" mask="url(#path-23-inside-1_3258_23252)"/>
</g>
<rect x="413.5" y="167.5" width="557" height="169" rx="7.5" fill="white"/>
<text fill="black" xml:space="preserve" style="white-space: pre" font-family="Chalkboard" font-size="24" letter-spacing="0em"><tspan x="445.172" y="220.367">Setup keywords</tspan></text>
<rect x="446" y="258" width="328" height="46" rx="3" fill="white"/>
<path d="M472 288C476.418 288 480 284.418 480 280C480 275.582 476.418 272 472 272C467.582 272 464 275.582 464 280C464 284.418 467.582 288 472 288Z" stroke="#7D7D7D" stroke-width="2" stroke-linecap="round" stroke-linejoin="round"/>
<path d="M482 290L477.65 285.65" stroke="#898F9B" stroke-width="2" stroke-linecap="round" stroke-linejoin="round"/>
<text fill="#7D7D7D" xml:space="preserve" style="white-space: pre" font-family="Chalkboard" font-size="16" letter-spacing="0em"><tspan x="493" y="286.578">Adidas, ultraboost</tspan></text>
<text fill="#767676" xml:space="preserve" style="white-space: pre" font-family="Chalkboard" font-size="14" letter-spacing="0em"><tspan x="445" y="249.881">Enter keywords</tspan></text>
<rect x="446" y="258" width="328" height="46" rx="3" stroke="#AAAAAA" stroke-width="2"/>
<rect x="807" y="257" width="132" height="48" rx="4" fill="#333333"/>
<text fill="white" xml:space="preserve" style="white-space: pre" font-family="Chalkboard" font-size="16" letter-spacing="0em"><tspan x="823" y="286.578">Save keyword</tspan></text>
<rect x="413.5" y="167.5" width="557" height="169" rx="7.5" stroke="#AAAAAA"/>
<rect x="413.5" y="383.5" width="557" height="260" rx="7.5" fill="white"/>
<text fill="black" xml:space="preserve" style="white-space: pre" font-family="Chalkboard" font-size="24" letter-spacing="0em"><tspan x="445.398" y="436.367">Saved keywords</tspan></text>
<text fill="#DEB650" xml:space="preserve" style="white-space: pre" font-family="Chalkboard" font-size="24" letter-spacing="0em"><tspan x="892.168" y="436.367">Edit</tspan></text>
<text fill="black" xml:space="preserve" style="white-space: pre" font-family="Chalkboard" font-size="18" letter-spacing="0em"><tspan x="445.019" y="511.275">Lululemon, Hoodies</tspan></text>
<rect x="896" y="489" width="43" height="32" rx="16" fill="#333333"/>
<text fill="white" xml:space="preserve" style="white-space: pre" font-family="Chalkboard" font-size="16" letter-spacing="0em"><tspan x="908" y="510.578">25</tspan></text>
<path d="M939 536H445V538H939V536Z" fill="#AAAAAA" mask="url(#path-37-inside-2_3258_23252)"/>
<text fill="black" xml:space="preserve" style="white-space: pre" font-family="Chalkboard" font-size="18" letter-spacing="0em"><tspan x="445.31" y="586.275">Lululemon, Leggins</tspan></text>
<rect x="887" y="564" width="51" height="32" rx="16" fill="#333333"/>
<text fill="white" xml:space="preserve" style="white-space: pre" font-family="Chalkboard" font-size="16" letter-spacing="0em"><tspan x="899" y="585.578">99+</tspan></text>
<path d="M938 611H445V613H938V611Z" fill="#AAAAAA" mask="url(#path-42-inside-3_3258_23252)"/>
<rect x="413.5" y="383.5" width="557" height="260" rx="7.5" stroke="#AAAAAA"/>
</g>
<defs>
<filter id="filter0_i_3258_23252" x="0" y="179" width="191" height="48" filterUnits="userSpaceOnUse" color-interpolation-filters="sRGB">
<feFlood flood-opacity="0" result="BackgroundImageFix"/>
<feBlend mode="normal" in="SourceGraphic" in2="BackgroundImageFix" result="shape"/>
<feColorMatrix in="SourceAlpha" type="matrix" values="0 0 0 0 0 0 0 0 0 0 0 0 0 0 0 0 0 0 127 0" result="hardAlpha"/>
<feOffset dx="2"/>
<feComposite in2="hardAlpha" operator="arithmetic" k2="-1" k3="1"/>
<feColorMatrix type="matrix" values="0 0 0 0 0.2 0 0 0 0 0.2 0 0 0 0 0.2 0 0 0 1 0"/>
<feBlend mode="normal" in2="shape" result="effect1_innerShadow_3258_23252"/>
</filter>
<filter id="filter1_d_3258_23252" x="-4" y="51" width="1288" height="88" filterUnits="userSpaceOnUse" color-interpolation-filters="sRGB">
<feFlood flood-opacity="0" result="BackgroundImageFix"/>
<feColorMatrix in="SourceAlpha" type="matrix" values="0 0 0 0 0 0 0 0 0 0 0 0 0 0 0 0 0 0 127 0" result="hardAlpha"/>
<feOffset dy="4"/>
<feGaussianBlur stdDeviation="2"/>
<feComposite in2="hardAlpha" operator="out"/>
<feColorMatrix type="matrix" values="0 0 0 0 0 0 0 0 0 0 0 0 0 0 0 0 0 0 0.1 0"/>
<feBlend mode="normal" in2="BackgroundImageFix" result="effect1_dropShadow_3258_23252"/>
<feBlend mode="normal" in="SourceGraphic" in2="effect1_dropShadow_3258_23252" result="shape"/>
</filter>
<clipPath id="clip0_3258_23252">
<rect width="1280" height="720" fill="white" transform="translate(0 51)"/>
</clipPath>
</defs>
</svg>
