<svg width="4144" height="568" viewBox="0 0 4144 568" fill="none" xmlns="http://www.w3.org/2000/svg">
<rect x="0.5" y="0.5" width="1271" height="267" rx="31.5" fill="#F5FEFE"/>
<rect x="0.5" y="0.5" width="1271" height="267" rx="31.5" stroke="#02DCC3"/>
<path d="M164.424 97.8672C164.165 95.4482 163.076 93.5646 161.156 92.2166C159.254 90.8686 156.779 90.1946 153.732 90.1946C151.59 90.1946 149.753 90.5178 148.22 91.1641C146.688 91.8104 145.515 92.6875 144.702 93.7955C143.89 94.9034 143.474 96.1683 143.456 97.5902C143.456 98.772 143.724 99.7969 144.259 100.665C144.813 101.533 145.561 102.271 146.503 102.881C147.445 103.472 148.488 103.97 149.633 104.376C150.778 104.783 151.932 105.124 153.095 105.401L158.413 106.731C160.555 107.229 162.614 107.903 164.59 108.753C166.585 109.602 168.366 110.673 169.936 111.966C171.524 113.259 172.78 114.819 173.703 116.647C174.626 118.475 175.088 120.617 175.088 123.073C175.088 126.397 174.239 129.324 172.54 131.854C170.841 134.365 168.385 136.332 165.172 137.754C161.977 139.157 158.109 139.859 153.566 139.859C149.153 139.859 145.321 139.175 142.071 137.809C138.839 136.442 136.31 134.448 134.482 131.826C132.672 129.204 131.693 126.009 131.545 122.242H141.656C141.803 124.218 142.413 125.862 143.484 127.173C144.555 128.484 145.949 129.462 147.666 130.109C149.402 130.755 151.341 131.078 153.483 131.078C155.717 131.078 157.675 130.746 159.355 130.081C161.054 129.398 162.384 128.456 163.344 127.256C164.304 126.037 164.793 124.615 164.812 122.99C164.793 121.513 164.359 120.294 163.51 119.334C162.661 118.355 161.469 117.543 159.937 116.896C158.423 116.232 156.65 115.641 154.619 115.124L148.165 113.462C143.493 112.261 139.8 110.442 137.085 108.005C134.389 105.549 133.041 102.29 133.041 98.2273C133.041 94.8849 133.946 91.9581 135.756 89.4467C137.584 86.9354 140.067 84.9872 143.207 83.6023C146.346 82.1989 149.901 81.4972 153.871 81.4972C157.896 81.4972 161.423 82.1989 164.452 83.6023C167.499 84.9872 169.89 86.9169 171.626 89.3913C173.362 91.8473 174.257 94.6726 174.312 97.8672H164.424ZM183.806 139V96.4545H193.833V139H183.806ZM188.847 90.4162C187.259 90.4162 185.893 89.8899 184.748 88.8374C183.603 87.7663 183.031 86.483 183.031 84.9872C183.031 83.473 183.603 82.1896 184.748 81.1371C185.893 80.066 187.259 79.5305 188.847 79.5305C190.454 79.5305 191.82 80.066 192.947 81.1371C194.092 82.1896 194.664 83.473 194.664 84.9872C194.664 86.483 194.092 87.7663 192.947 88.8374C191.82 89.8899 190.454 90.4162 188.847 90.4162ZM222.647 155.841C219.046 155.841 215.953 155.352 213.368 154.373C210.783 153.413 208.705 152.12 207.136 150.495C205.566 148.87 204.477 147.07 203.867 145.094L212.897 142.906C213.303 143.737 213.894 144.558 214.67 145.371C215.445 146.202 216.489 146.885 217.8 147.42C219.129 147.974 220.8 148.251 222.813 148.251C225.657 148.251 228.011 147.559 229.876 146.174C231.741 144.808 232.674 142.555 232.674 139.415V131.355H232.175C231.658 132.389 230.901 133.451 229.904 134.54C228.925 135.63 227.624 136.544 225.999 137.283C224.392 138.021 222.37 138.391 219.933 138.391C216.664 138.391 213.7 137.624 211.041 136.092C208.401 134.54 206.295 132.232 204.726 129.167C203.175 126.083 202.399 122.224 202.399 117.589C202.399 112.917 203.175 108.974 204.726 105.761C206.295 102.53 208.41 100.083 211.069 98.4212C213.728 96.7408 216.692 95.9006 219.96 95.9006C222.453 95.9006 224.503 96.3253 226.109 97.1747C227.734 98.0057 229.027 99.0121 229.987 100.194C230.947 101.357 231.677 102.456 232.175 103.49H232.729V96.4545H242.618V139.692C242.618 143.33 241.75 146.34 240.014 148.722C238.278 151.104 235.906 152.886 232.896 154.068C229.886 155.25 226.469 155.841 222.647 155.841ZM222.73 130.524C224.854 130.524 226.663 130.007 228.159 128.973C229.655 127.939 230.79 126.452 231.566 124.513C232.342 122.575 232.729 120.248 232.729 117.533C232.729 114.856 232.342 112.511 231.566 110.498C230.809 108.485 229.683 106.925 228.187 105.817C226.71 104.69 224.891 104.127 222.73 104.127C220.496 104.127 218.631 104.709 217.135 105.872C215.639 107.036 214.513 108.633 213.756 110.664C212.999 112.677 212.62 114.967 212.62 117.533C212.62 120.137 212.999 122.418 213.756 124.375C214.531 126.314 215.667 127.828 217.163 128.918C218.677 129.989 220.533 130.524 222.73 130.524ZM262.921 114.071V139H252.894V96.4545H262.478V103.684H262.977C263.955 101.302 265.516 99.4091 267.658 98.0057C269.818 96.6023 272.487 95.9006 275.663 95.9006C278.599 95.9006 281.156 96.5284 283.335 97.7841C285.533 99.0398 287.232 100.859 288.432 103.241C289.651 105.623 290.251 108.513 290.232 111.911V139H280.205V113.462C280.205 110.618 279.467 108.393 277.989 106.786C276.531 105.18 274.509 104.376 271.923 104.376C270.169 104.376 268.609 104.764 267.242 105.54C265.894 106.297 264.832 107.396 264.057 108.836C263.3 110.276 262.921 112.021 262.921 114.071ZM346.89 121.107V96.4545H356.917V139H347.195V131.438H346.752C345.792 133.82 344.213 135.768 342.015 137.283C339.836 138.797 337.15 139.554 333.955 139.554C331.167 139.554 328.701 138.935 326.559 137.698C324.436 136.442 322.774 134.624 321.574 132.241C320.373 129.841 319.773 126.942 319.773 123.544V96.4545H329.8V121.993C329.8 124.689 330.539 126.831 332.016 128.419C333.493 130.007 335.432 130.801 337.833 130.801C339.31 130.801 340.741 130.441 342.126 129.721C343.511 129.001 344.647 127.93 345.533 126.508C346.438 125.067 346.89 123.267 346.89 121.107ZM367.228 154.955V96.4545H377.089V103.49H377.671C378.188 102.456 378.917 101.357 379.859 100.194C380.801 99.0121 382.075 98.0057 383.681 97.1747C385.288 96.3253 387.338 95.9006 389.83 95.9006C393.117 95.9006 396.081 96.7408 398.722 98.4212C401.381 100.083 403.486 102.548 405.037 105.817C406.607 109.067 407.392 113.055 407.392 117.783C407.392 122.455 406.625 126.425 405.093 129.693C403.56 132.962 401.473 135.455 398.833 137.172C396.192 138.889 393.2 139.748 389.858 139.748C387.421 139.748 385.399 139.342 383.792 138.529C382.186 137.717 380.893 136.738 379.914 135.593C378.954 134.43 378.206 133.331 377.671 132.297H377.255V154.955H367.228ZM377.061 117.727C377.061 120.479 377.449 122.888 378.225 124.957C379.019 127.025 380.154 128.641 381.632 129.804C383.127 130.949 384.937 131.521 387.061 131.521C389.276 131.521 391.132 130.93 392.628 129.749C394.124 128.548 395.25 126.914 396.007 124.846C396.783 122.759 397.171 120.386 397.171 117.727C397.171 115.087 396.792 112.741 396.035 110.692C395.278 108.642 394.151 107.036 392.656 105.872C391.16 104.709 389.295 104.127 387.061 104.127C384.919 104.127 383.1 104.69 381.604 105.817C380.108 106.943 378.972 108.522 378.197 110.553C377.44 112.585 377.061 114.976 377.061 117.727Z" fill="#02C6B0"/>
<rect x="0.5" y="300.5" width="1271" height="267" rx="31.5" fill="#F5FEFE"/>
<rect x="0.5" y="300.5" width="1271" height="267" rx="31.5" stroke="#02DCC3"/>
<path d="M133.595 439V382.273H154.868C159.226 382.273 162.882 383.085 165.837 384.71C168.81 386.335 171.053 388.57 172.567 391.413C174.1 394.239 174.866 397.452 174.866 401.053C174.866 404.69 174.1 407.922 172.567 410.747C171.035 413.572 168.773 415.798 165.781 417.423C162.79 419.029 159.106 419.832 154.729 419.832H140.631V411.384H153.344C155.893 411.384 157.979 410.941 159.604 410.055C161.229 409.168 162.43 407.95 163.205 406.398C163.999 404.847 164.396 403.065 164.396 401.053C164.396 399.04 163.999 397.267 163.205 395.734C162.43 394.202 161.22 393.011 159.577 392.161C157.952 391.293 155.856 390.859 153.289 390.859H143.871V439H133.595ZM183.349 439V396.455H193.072V403.545H193.515C194.29 401.089 195.62 399.197 197.503 397.867C199.405 396.519 201.575 395.845 204.013 395.845C204.567 395.845 205.185 395.873 205.868 395.928C206.57 395.965 207.152 396.03 207.613 396.122V405.346C207.189 405.198 206.515 405.069 205.591 404.958C204.687 404.829 203.809 404.764 202.96 404.764C201.132 404.764 199.488 405.161 198.03 405.955C196.589 406.731 195.454 407.811 194.623 409.196C193.792 410.581 193.376 412.178 193.376 413.988V439H183.349ZM214.275 439V396.455H224.302V439H214.275ZM219.316 390.416C217.728 390.416 216.362 389.89 215.217 388.837C214.072 387.766 213.499 386.483 213.499 384.987C213.499 383.473 214.072 382.19 215.217 381.137C216.362 380.066 217.728 379.531 219.316 379.531C220.923 379.531 222.289 380.066 223.416 381.137C224.561 382.19 225.133 383.473 225.133 384.987C225.133 386.483 224.561 387.766 223.416 388.837C222.289 389.89 220.923 390.416 219.316 390.416ZM253.171 439.831C248.924 439.831 245.277 438.898 242.23 437.033C239.202 435.168 236.866 432.592 235.222 429.305C233.597 426 232.785 422.196 232.785 417.893C232.785 413.572 233.616 409.759 235.278 406.454C236.94 403.13 239.285 400.545 242.313 398.698C245.36 396.833 248.961 395.901 253.116 395.901C256.569 395.901 259.625 396.538 262.284 397.812C264.962 399.067 267.094 400.849 268.683 403.158C270.271 405.447 271.175 408.125 271.397 411.19H261.813C261.425 409.141 260.502 407.433 259.043 406.066C257.603 404.681 255.673 403.989 253.254 403.989C251.205 403.989 249.404 404.543 247.853 405.651C246.302 406.74 245.092 408.31 244.224 410.359C243.375 412.409 242.95 414.865 242.95 417.727C242.95 420.626 243.375 423.119 244.224 425.206C245.074 427.274 246.265 428.871 247.798 429.998C249.349 431.106 251.168 431.66 253.254 431.66C254.732 431.66 256.052 431.383 257.215 430.829C258.397 430.256 259.385 429.435 260.179 428.364C260.973 427.293 261.518 425.991 261.813 424.458H271.397C271.157 427.468 270.271 430.136 268.738 432.463C267.205 434.771 265.119 436.581 262.478 437.892C259.837 439.185 256.735 439.831 253.171 439.831ZM279.631 439V396.455H289.657V439H279.631ZM284.672 390.416C283.084 390.416 281.717 389.89 280.572 388.837C279.427 387.766 278.855 386.483 278.855 384.987C278.855 383.473 279.427 382.19 280.572 381.137C281.717 380.066 283.084 379.531 284.672 379.531C286.278 379.531 287.645 380.066 288.771 381.137C289.916 382.19 290.488 383.473 290.488 384.987C290.488 386.483 289.916 387.766 288.771 388.837C287.645 389.89 286.278 390.416 284.672 390.416ZM309.995 414.071V439H299.968V396.455H309.552V403.684H310.051C311.029 401.302 312.59 399.409 314.732 398.006C316.892 396.602 319.561 395.901 322.737 395.901C325.673 395.901 328.23 396.528 330.409 397.784C332.607 399.04 334.306 400.859 335.506 403.241C336.725 405.623 337.325 408.513 337.306 411.911V439H327.279V413.462C327.279 410.618 326.541 408.393 325.064 406.786C323.605 405.18 321.583 404.376 318.998 404.376C317.243 404.376 315.683 404.764 314.316 405.54C312.968 406.297 311.907 407.396 311.131 408.836C310.374 410.276 309.995 412.021 309.995 414.071ZM366.002 455.841C362.402 455.841 359.309 455.352 356.723 454.373C354.138 453.413 352.061 452.12 350.491 450.495C348.922 448.87 347.832 447.07 347.223 445.094L356.252 442.906C356.659 443.737 357.25 444.558 358.025 445.371C358.801 446.202 359.844 446.885 361.155 447.42C362.485 447.974 364.156 448.251 366.169 448.251C369.012 448.251 371.367 447.559 373.232 446.174C375.097 444.808 376.029 442.555 376.029 439.415V431.355H375.531C375.014 432.389 374.257 433.451 373.26 434.54C372.281 435.63 370.979 436.544 369.354 437.283C367.748 438.021 365.725 438.391 363.288 438.391C360.02 438.391 357.056 437.624 354.397 436.092C351.756 434.54 349.651 432.232 348.081 429.167C346.53 426.083 345.755 422.224 345.755 417.589C345.755 412.917 346.53 408.974 348.081 405.761C349.651 402.53 351.765 400.083 354.424 398.421C357.083 396.741 360.047 395.901 363.316 395.901C365.809 395.901 367.858 396.325 369.465 397.175C371.09 398.006 372.382 399.012 373.343 400.194C374.303 401.357 375.032 402.456 375.531 403.49H376.085V396.455H385.973V439.692C385.973 443.33 385.105 446.34 383.37 448.722C381.634 451.104 379.261 452.886 376.251 454.068C373.241 455.25 369.825 455.841 366.002 455.841ZM366.086 430.524C368.209 430.524 370.019 430.007 371.515 428.973C373.01 427.939 374.146 426.452 374.922 424.513C375.697 422.575 376.085 420.248 376.085 417.533C376.085 414.856 375.697 412.511 374.922 410.498C374.164 408.485 373.038 406.925 371.542 405.817C370.065 404.69 368.246 404.127 366.086 404.127C363.851 404.127 361.986 404.709 360.49 405.872C358.995 407.036 357.868 408.633 357.111 410.664C356.354 412.677 355.975 414.967 355.975 417.533C355.975 420.137 356.354 422.418 357.111 424.375C357.887 426.314 359.022 427.828 360.518 428.918C362.032 429.989 363.888 430.524 366.086 430.524ZM466.729 410.636C466.729 416.749 465.585 421.984 463.295 426.342C461.023 430.681 457.921 434.005 453.988 436.313C450.073 438.621 445.632 439.776 440.665 439.776C435.697 439.776 431.247 438.621 427.314 436.313C423.399 433.987 420.297 430.653 418.007 426.314C415.736 421.956 414.6 416.73 414.6 410.636C414.6 404.524 415.736 399.298 418.007 394.959C420.297 390.601 423.399 387.268 427.314 384.96C431.247 382.651 435.697 381.497 440.665 381.497C445.632 381.497 450.073 382.651 453.988 384.96C457.921 387.268 461.023 390.601 463.295 394.959C465.585 399.298 466.729 404.524 466.729 410.636ZM456.398 410.636C456.398 406.334 455.724 402.705 454.376 399.751C453.046 396.778 451.2 394.534 448.836 393.02C446.472 391.487 443.749 390.721 440.665 390.721C437.581 390.721 434.857 391.487 432.494 393.02C430.13 394.534 428.274 396.778 426.926 399.751C425.597 402.705 424.932 406.334 424.932 410.636C424.932 414.939 425.597 418.577 426.926 421.55C428.274 424.504 430.13 426.748 432.494 428.281C434.857 429.795 437.581 430.552 440.665 430.552C443.749 430.552 446.472 429.795 448.836 428.281C451.2 426.748 453.046 424.504 454.376 421.55C455.724 418.577 456.398 414.939 456.398 410.636ZM476.002 454.955V396.455H485.862V403.49H486.444C486.961 402.456 487.691 401.357 488.632 400.194C489.574 399.012 490.848 398.006 492.455 397.175C494.061 396.325 496.111 395.901 498.604 395.901C501.891 395.901 504.855 396.741 507.495 398.421C510.154 400.083 512.259 402.548 513.811 405.817C515.38 409.067 516.165 413.055 516.165 417.783C516.165 422.455 515.399 426.425 513.866 429.693C512.333 432.962 510.247 435.455 507.606 437.172C504.965 438.889 501.974 439.748 498.632 439.748C496.194 439.748 494.172 439.342 492.566 438.529C490.959 437.717 489.666 436.738 488.688 435.593C487.727 434.43 486.98 433.331 486.444 432.297H486.029V454.955H476.002ZM485.835 417.727C485.835 420.479 486.222 422.888 486.998 424.957C487.792 427.025 488.928 428.641 490.405 429.804C491.901 430.949 493.71 431.521 495.834 431.521C498.05 431.521 499.906 430.93 501.401 429.749C502.897 428.548 504.024 426.914 504.781 424.846C505.556 422.759 505.944 420.386 505.944 417.727C505.944 415.087 505.566 412.741 504.808 410.692C504.051 408.642 502.925 407.036 501.429 405.872C499.933 404.709 498.068 404.127 495.834 404.127C493.692 404.127 491.873 404.69 490.377 405.817C488.882 406.943 487.746 408.522 486.97 410.553C486.213 412.585 485.835 414.976 485.835 417.727ZM545.997 396.455V404.21H521.539V396.455H545.997ZM527.577 386.261H537.604V426.203C537.604 427.551 537.807 428.585 538.213 429.305C538.638 430.007 539.192 430.487 539.875 430.746C540.558 431.004 541.316 431.134 542.146 431.134C542.774 431.134 543.347 431.087 543.864 430.995C544.399 430.903 544.806 430.82 545.083 430.746L546.772 438.585C546.237 438.769 545.47 438.972 544.473 439.194C543.494 439.415 542.294 439.545 540.872 439.582C538.361 439.656 536.099 439.277 534.086 438.446C532.073 437.597 530.476 436.286 529.294 434.513C528.131 432.74 527.558 430.524 527.577 427.865V386.261ZM554.382 439V396.455H564.409V439H554.382ZM559.424 390.416C557.836 390.416 556.469 389.89 555.324 388.837C554.179 387.766 553.607 386.483 553.607 384.987C553.607 383.473 554.179 382.19 555.324 381.137C556.469 380.066 557.836 379.531 559.424 379.531C561.03 379.531 562.397 380.066 563.523 381.137C564.668 382.19 565.24 383.473 565.24 384.987C565.24 386.483 564.668 387.766 563.523 388.837C562.397 389.89 561.03 390.416 559.424 390.416ZM593.279 439.831C589.124 439.831 585.523 438.917 582.476 437.089C579.429 435.261 577.066 432.703 575.385 429.416C573.723 426.129 572.892 422.288 572.892 417.893C572.892 413.499 573.723 409.648 575.385 406.343C577.066 403.038 579.429 400.471 582.476 398.643C585.523 396.815 589.124 395.901 593.279 395.901C597.433 395.901 601.034 396.815 604.081 398.643C607.128 400.471 609.482 403.038 611.144 406.343C612.825 409.648 613.665 413.499 613.665 417.893C613.665 422.288 612.825 426.129 611.144 429.416C609.482 432.703 607.128 435.261 604.081 437.089C601.034 438.917 597.433 439.831 593.279 439.831ZM593.334 431.798C595.587 431.798 597.47 431.18 598.985 429.942C600.499 428.687 601.625 427.006 602.364 424.901C603.121 422.796 603.499 420.451 603.499 417.866C603.499 415.262 603.121 412.908 602.364 410.803C601.625 408.679 600.499 406.989 598.985 405.734C597.47 404.478 595.587 403.85 593.334 403.85C591.026 403.85 589.105 404.478 587.573 405.734C586.058 406.989 584.923 408.679 584.166 410.803C583.427 412.908 583.058 415.262 583.058 417.866C583.058 420.451 583.427 422.796 584.166 424.901C584.923 427.006 586.058 428.687 587.573 429.942C589.105 431.18 591.026 431.798 593.334 431.798ZM632.202 414.071V439H622.175V396.455H631.759V403.684H632.258C633.237 401.302 634.797 399.409 636.939 398.006C639.099 396.602 641.768 395.901 644.944 395.901C647.88 395.901 650.438 396.528 652.616 397.784C654.814 399.04 656.513 400.859 657.713 403.241C658.932 405.623 659.532 408.513 659.513 411.911V439H649.487V413.462C649.487 410.618 648.748 408.393 647.271 406.786C645.812 405.18 643.79 404.376 641.205 404.376C639.45 404.376 637.89 404.764 636.523 405.54C635.175 406.297 634.114 407.396 633.338 408.836C632.581 410.276 632.202 412.021 632.202 414.071ZM703.333 407.7L694.192 408.697C693.934 407.774 693.482 406.906 692.835 406.094C692.207 405.281 691.358 404.626 690.287 404.127C689.216 403.629 687.905 403.379 686.354 403.379C684.267 403.379 682.513 403.832 681.091 404.737C679.688 405.641 678.995 406.814 679.013 408.254C678.995 409.491 679.447 410.498 680.371 411.273C681.313 412.049 682.864 412.686 685.024 413.185L692.281 414.736C696.307 415.604 699.298 416.979 701.256 418.863C703.232 420.746 704.229 423.212 704.247 426.259C704.229 428.936 703.444 431.3 701.893 433.349C700.36 435.381 698.227 436.969 695.494 438.114C692.761 439.259 689.622 439.831 686.077 439.831C680.869 439.831 676.678 438.741 673.501 436.562C670.325 434.365 668.433 431.309 667.823 427.394L677.601 426.452C678.044 428.373 678.986 429.822 680.426 430.801C681.866 431.78 683.741 432.269 686.049 432.269C688.431 432.269 690.342 431.78 691.783 430.801C693.241 429.822 693.971 428.613 693.971 427.173C693.971 425.954 693.5 424.947 692.558 424.153C691.635 423.359 690.195 422.75 688.237 422.325L680.98 420.802C676.899 419.952 673.88 418.521 671.923 416.509C669.965 414.477 668.996 411.911 669.014 408.808C668.996 406.186 669.707 403.915 671.147 401.994C672.606 400.055 674.628 398.56 677.213 397.507C679.817 396.436 682.817 395.901 686.215 395.901C691.201 395.901 695.125 396.962 697.987 399.086C700.868 401.21 702.65 404.081 703.333 407.7Z" fill="#02C6B0"/>
<path d="M1304 278C1300.69 278 1298 280.686 1298 284C1298 287.314 1300.69 290 1304 290L1304 278ZM1408.24 288.243C1410.59 285.9 1410.59 282.101 1408.24 279.757L1370.06 241.574C1367.72 239.23 1363.92 239.23 1361.57 241.574C1359.23 243.917 1359.23 247.716 1361.57 250.059L1395.51 284L1361.57 317.941C1359.23 320.284 1359.23 324.083 1361.57 326.426C1363.92 328.77 1367.72 328.77 1370.06 326.426L1408.24 288.243ZM1304 290L1404 290L1404 278L1304 278L1304 290Z" fill="#02C6B0"/>
<rect x="1436.5" y="0.5" width="1271" height="567" rx="31.5" fill="#F5FEFE"/>
<rect x="1436.5" y="0.5" width="1271" height="567" rx="31.5" stroke="#02DCC3"/>
<path d="M1620.28 110.636C1620.28 116.749 1619.14 121.984 1616.85 126.342C1614.58 130.681 1611.48 134.005 1607.54 136.313C1603.63 138.621 1599.19 139.776 1594.22 139.776C1589.25 139.776 1584.8 138.621 1580.87 136.313C1576.95 133.987 1573.85 130.653 1571.56 126.314C1569.29 121.956 1568.15 116.73 1568.15 110.636C1568.15 104.524 1569.29 99.2983 1571.56 94.9588C1573.85 90.6009 1576.95 87.2678 1580.87 84.9595C1584.8 82.6513 1589.25 81.4972 1594.22 81.4972C1599.19 81.4972 1603.63 82.6513 1607.54 84.9595C1611.48 87.2678 1614.58 90.6009 1616.85 94.9588C1619.14 99.2983 1620.28 104.524 1620.28 110.636ZM1609.95 110.636C1609.95 106.334 1609.28 102.705 1607.93 99.7507C1606.6 96.7777 1604.75 94.5341 1602.39 93.0199C1600.03 91.4872 1597.3 90.7209 1594.22 90.7209C1591.14 90.7209 1588.41 91.4872 1586.05 93.0199C1583.68 94.5341 1581.83 96.7777 1580.48 99.7507C1579.15 102.705 1578.49 106.334 1578.49 110.636C1578.49 114.939 1579.15 118.577 1580.48 121.55C1581.83 124.504 1583.68 126.748 1586.05 128.281C1588.41 129.795 1591.14 130.552 1594.22 130.552C1597.3 130.552 1600.03 129.795 1602.39 128.281C1604.75 126.748 1606.6 124.504 1607.93 121.55C1609.28 118.577 1609.95 114.939 1609.95 110.636ZM1639.58 114.071V139H1629.56V96.4545H1639.14V103.684H1639.64C1640.62 101.302 1642.18 99.4091 1644.32 98.0057C1646.48 96.6023 1649.15 95.9006 1652.32 95.9006C1655.26 95.9006 1657.82 96.5284 1660 97.7841C1662.19 99.0398 1663.89 100.859 1665.09 103.241C1666.31 105.623 1666.91 108.513 1666.89 111.911V139H1656.87V113.462C1656.87 110.618 1656.13 108.393 1654.65 106.786C1653.19 105.18 1651.17 104.376 1648.59 104.376C1646.83 104.376 1645.27 104.764 1643.9 105.54C1642.56 106.297 1641.49 107.396 1640.72 108.836C1639.96 110.276 1639.58 112.021 1639.58 114.071ZM1677.53 139V82.2727H1687.56V103.49H1687.97C1688.49 102.456 1689.22 101.357 1690.16 100.194C1691.1 99.0121 1692.38 98.0057 1693.98 97.1747C1695.59 96.3253 1697.64 95.9006 1700.13 95.9006C1703.42 95.9006 1706.38 96.7408 1709.02 98.4212C1711.68 100.083 1713.79 102.548 1715.34 105.817C1716.91 109.067 1717.69 113.055 1717.69 117.783C1717.69 122.455 1716.93 126.425 1715.4 129.693C1713.86 132.962 1711.78 135.455 1709.14 137.172C1706.49 138.889 1703.5 139.748 1700.16 139.748C1697.72 139.748 1695.7 139.342 1694.09 138.529C1692.49 137.717 1691.2 136.738 1690.22 135.593C1689.26 134.43 1688.51 133.331 1687.97 132.297H1687.39V139H1677.53ZM1687.36 117.727C1687.36 120.479 1687.75 122.888 1688.53 124.957C1689.32 127.025 1690.46 128.641 1691.93 129.804C1693.43 130.949 1695.24 131.521 1697.36 131.521C1699.58 131.521 1701.43 130.93 1702.93 129.749C1704.43 128.548 1705.55 126.914 1706.31 124.846C1707.09 122.759 1707.47 120.386 1707.47 117.727C1707.47 115.087 1707.09 112.741 1706.34 110.692C1705.58 108.642 1704.45 107.036 1702.96 105.872C1701.46 104.709 1699.6 104.127 1697.36 104.127C1695.22 104.127 1693.4 104.69 1691.91 105.817C1690.41 106.943 1689.28 108.522 1688.5 110.553C1687.74 112.585 1687.36 114.976 1687.36 117.727ZM1744.78 139.831C1740.62 139.831 1737.02 138.917 1733.97 137.089C1730.93 135.261 1728.56 132.703 1726.88 129.416C1725.22 126.129 1724.39 122.288 1724.39 117.893C1724.39 113.499 1725.22 109.648 1726.88 106.343C1728.56 103.038 1730.93 100.471 1733.97 98.6428C1737.02 96.8146 1740.62 95.9006 1744.78 95.9006C1748.93 95.9006 1752.53 96.8146 1755.58 98.6428C1758.63 100.471 1760.98 103.038 1762.64 106.343C1764.32 109.648 1765.16 113.499 1765.16 117.893C1765.16 122.288 1764.32 126.129 1762.64 129.416C1760.98 132.703 1758.63 135.261 1755.58 137.089C1752.53 138.917 1748.93 139.831 1744.78 139.831ZM1744.83 131.798C1747.08 131.798 1748.97 131.18 1750.48 129.942C1752 128.687 1753.12 127.006 1753.86 124.901C1754.62 122.796 1755 120.451 1755 117.866C1755 115.262 1754.62 112.908 1753.86 110.803C1753.12 108.679 1752 106.989 1750.48 105.734C1748.97 104.478 1747.08 103.85 1744.83 103.85C1742.52 103.85 1740.6 104.478 1739.07 105.734C1737.56 106.989 1736.42 108.679 1735.66 110.803C1734.93 112.908 1734.56 115.262 1734.56 117.866C1734.56 120.451 1734.93 122.796 1735.66 124.901C1736.42 127.006 1737.56 128.687 1739.07 129.942C1740.6 131.18 1742.52 131.798 1744.83 131.798ZM1785.92 139.859C1783.22 139.859 1780.79 139.379 1778.63 138.418C1776.49 137.44 1774.79 135.999 1773.53 134.097C1772.3 132.195 1771.68 129.85 1771.68 127.062C1771.68 124.661 1772.12 122.676 1773.01 121.107C1773.9 119.537 1775.1 118.281 1776.64 117.339C1778.17 116.398 1779.9 115.687 1781.82 115.207C1783.76 114.708 1785.76 114.348 1787.83 114.126C1790.32 113.868 1792.34 113.637 1793.89 113.434C1795.44 113.212 1796.57 112.88 1797.27 112.437C1797.99 111.975 1798.35 111.264 1798.35 110.304V110.138C1798.35 108.051 1797.73 106.435 1796.5 105.29C1795.26 104.146 1793.48 103.573 1791.15 103.573C1788.7 103.573 1786.75 104.109 1785.31 105.18C1783.89 106.251 1782.92 107.516 1782.43 108.974L1773.06 107.645C1773.8 105.06 1775.02 102.899 1776.72 101.163C1778.42 99.4091 1780.5 98.098 1782.95 97.2301C1785.41 96.3438 1788.12 95.9006 1791.1 95.9006C1793.15 95.9006 1795.19 96.1406 1797.22 96.6207C1799.25 97.1009 1801.1 97.8949 1802.78 99.0028C1804.47 100.092 1805.81 101.579 1806.83 103.462C1807.86 105.346 1808.38 107.7 1808.38 110.526V139H1798.74V133.156H1798.41C1797.8 134.337 1796.94 135.445 1795.83 136.479C1794.74 137.495 1793.37 138.317 1791.71 138.945C1790.06 139.554 1788.13 139.859 1785.92 139.859ZM1788.52 132.491C1790.53 132.491 1792.28 132.094 1793.76 131.3C1795.23 130.487 1796.37 129.416 1797.16 128.087C1797.97 126.757 1798.38 125.308 1798.38 123.738V118.724C1798.07 118.983 1797.53 119.223 1796.77 119.445C1796.04 119.666 1795.2 119.86 1794.28 120.026C1793.36 120.192 1792.44 120.34 1791.54 120.469C1790.63 120.599 1789.85 120.71 1789.18 120.802C1787.69 121.005 1786.35 121.337 1785.17 121.799C1783.99 122.261 1783.05 122.907 1782.37 123.738C1781.69 124.55 1781.35 125.603 1781.35 126.896C1781.35 128.742 1782.02 130.136 1783.37 131.078C1784.72 132.02 1786.43 132.491 1788.52 132.491ZM1818.46 139V96.4545H1828.18V103.545H1828.63C1829.4 101.089 1830.73 99.1967 1832.62 97.8672C1834.52 96.5192 1836.69 95.8452 1839.13 95.8452C1839.68 95.8452 1840.3 95.8729 1840.98 95.9283C1841.68 95.9652 1842.27 96.0298 1842.73 96.1222V105.346C1842.3 105.198 1841.63 105.069 1840.7 104.958C1839.8 104.829 1838.92 104.764 1838.07 104.764C1836.25 104.764 1834.6 105.161 1833.14 105.955C1831.7 106.731 1830.57 107.811 1829.74 109.196C1828.91 110.581 1828.49 112.178 1828.49 113.988V139H1818.46ZM1863.42 139.748C1860.08 139.748 1857.09 138.889 1854.45 137.172C1851.81 135.455 1849.72 132.962 1848.19 129.693C1846.66 126.425 1845.89 122.455 1845.89 117.783C1845.89 113.055 1846.67 109.067 1848.22 105.817C1849.79 102.548 1851.9 100.083 1854.56 98.4212C1857.22 96.7408 1860.18 95.9006 1863.45 95.9006C1865.95 95.9006 1868 96.3253 1869.6 97.1747C1871.21 98.0057 1872.48 99.0121 1873.42 100.194C1874.37 101.357 1875.1 102.456 1875.61 103.49H1876.03V82.2727H1886.08V139H1876.22V132.297H1875.61C1875.1 133.331 1874.35 134.43 1873.37 135.593C1872.39 136.738 1871.1 137.717 1869.49 138.529C1867.88 139.342 1865.86 139.748 1863.42 139.748ZM1866.22 131.521C1868.35 131.521 1870.16 130.949 1871.65 129.804C1873.15 128.641 1874.28 127.025 1875.06 124.957C1875.83 122.888 1876.22 120.479 1876.22 117.727C1876.22 114.976 1875.83 112.585 1875.06 110.553C1874.3 108.522 1873.17 106.943 1871.68 105.817C1870.2 104.69 1868.38 104.127 1866.22 104.127C1863.99 104.127 1862.12 104.709 1860.63 105.872C1859.13 107.036 1858 108.642 1857.25 110.692C1856.49 112.741 1856.11 115.087 1856.11 117.727C1856.11 120.386 1856.49 122.759 1857.25 124.846C1858.02 126.914 1859.16 128.548 1860.65 129.749C1862.17 130.93 1864.02 131.521 1866.22 131.521ZM1896.77 139V96.4545H1906.79V139H1896.77ZM1901.81 90.4162C1900.22 90.4162 1898.85 89.8899 1897.71 88.8374C1896.56 87.7663 1895.99 86.483 1895.99 84.9872C1895.99 83.473 1896.56 82.1896 1897.71 81.1371C1898.85 80.066 1900.22 79.5305 1901.81 79.5305C1903.41 79.5305 1904.78 80.066 1905.91 81.1371C1907.05 82.1896 1907.63 83.473 1907.63 84.9872C1907.63 86.483 1907.05 87.7663 1905.91 88.8374C1904.78 89.8899 1903.41 90.4162 1901.81 90.4162ZM1927.13 114.071V139H1917.11V96.4545H1926.69V103.684H1927.19C1928.17 101.302 1929.73 99.4091 1931.87 98.0057C1934.03 96.6023 1936.7 95.9006 1939.87 95.9006C1942.81 95.9006 1945.37 96.5284 1947.55 97.7841C1949.74 99.0398 1951.44 100.859 1952.64 103.241C1953.86 105.623 1954.46 108.513 1954.44 111.911V139H1944.42V113.462C1944.42 110.618 1943.68 108.393 1942.2 106.786C1940.74 105.18 1938.72 104.376 1936.13 104.376C1934.38 104.376 1932.82 104.764 1931.45 105.54C1930.11 106.297 1929.04 107.396 1928.27 108.836C1927.51 110.276 1927.13 112.021 1927.13 114.071ZM1983.14 155.841C1979.54 155.841 1976.45 155.352 1973.86 154.373C1971.27 153.413 1969.2 152.12 1967.63 150.495C1966.06 148.87 1964.97 147.07 1964.36 145.094L1973.39 142.906C1973.8 143.737 1974.39 144.558 1975.16 145.371C1975.94 146.202 1976.98 146.885 1978.29 147.42C1979.62 147.974 1981.29 148.251 1983.31 148.251C1986.15 148.251 1988.5 147.559 1990.37 146.174C1992.23 144.808 1993.17 142.555 1993.17 139.415V131.355H1992.67C1992.15 132.389 1991.39 133.451 1990.4 134.54C1989.42 135.63 1988.12 136.544 1986.49 137.283C1984.88 138.021 1982.86 138.391 1980.42 138.391C1977.16 138.391 1974.19 137.624 1971.53 136.092C1968.89 134.54 1966.79 132.232 1965.22 129.167C1963.67 126.083 1962.89 122.224 1962.89 117.589C1962.89 112.917 1963.67 108.974 1965.22 105.761C1966.79 102.53 1968.9 100.083 1971.56 98.4212C1974.22 96.7408 1977.18 95.9006 1980.45 95.9006C1982.95 95.9006 1985 96.3253 1986.6 97.1747C1988.23 98.0057 1989.52 99.0121 1990.48 100.194C1991.44 101.357 1992.17 102.456 1992.67 103.49H1993.22V96.4545H2003.11V139.692C2003.11 143.33 2002.24 146.34 2000.51 148.722C1998.77 151.104 1996.4 152.886 1993.39 154.068C1990.38 155.25 1986.96 155.841 1983.14 155.841ZM1983.22 130.524C1985.35 130.524 1987.16 130.007 1988.65 128.973C1990.15 127.939 1991.28 126.452 1992.06 124.513C1992.83 122.575 1993.22 120.248 1993.22 117.533C1993.22 114.856 1992.83 112.511 1992.06 110.498C1991.3 108.485 1990.17 106.925 1988.68 105.817C1987.2 104.69 1985.38 104.127 1983.22 104.127C1980.99 104.127 1979.12 104.709 1977.63 105.872C1976.13 107.036 1975 108.633 1974.25 110.664C1973.49 112.677 1973.11 114.967 1973.11 117.533C1973.11 120.137 1973.49 122.418 1974.25 124.375C1975.02 126.314 1976.16 127.828 1977.65 128.918C1979.17 129.989 1981.02 130.524 1983.22 130.524ZM2033.18 139V82.2727H2054.45C2058.81 82.2727 2062.46 83.0852 2065.42 84.7102C2068.39 86.3352 2070.64 88.5696 2072.15 91.4134C2073.68 94.2386 2074.45 97.4517 2074.45 101.053C2074.45 104.69 2073.68 107.922 2072.15 110.747C2070.62 113.572 2068.35 115.798 2065.36 117.423C2062.37 119.029 2058.69 119.832 2054.31 119.832H2040.21V111.384H2052.93C2055.47 111.384 2057.56 110.941 2059.19 110.055C2060.81 109.168 2062.01 107.95 2062.79 106.398C2063.58 104.847 2063.98 103.065 2063.98 101.053C2063.98 99.0398 2063.58 97.267 2062.79 95.7344C2062.01 94.2017 2060.8 93.0107 2059.16 92.1612C2057.53 91.2933 2055.44 90.8594 2052.87 90.8594H2043.45V139H2033.18ZM2082.93 139V96.4545H2092.65V103.545H2093.1C2093.87 101.089 2095.2 99.1967 2097.09 97.8672C2098.99 96.5192 2101.16 95.8452 2103.59 95.8452C2104.15 95.8452 2104.77 95.8729 2105.45 95.9283C2106.15 95.9652 2106.73 96.0298 2107.2 96.1222V105.346C2106.77 105.198 2106.1 105.069 2105.17 104.958C2104.27 104.829 2103.39 104.764 2102.54 104.764C2100.71 104.764 2099.07 105.161 2097.61 105.955C2096.17 106.731 2095.04 107.811 2094.2 109.196C2093.37 110.581 2092.96 112.178 2092.96 113.988V139H2082.93ZM2130.66 139.831C2126.51 139.831 2122.91 138.917 2119.86 137.089C2116.81 135.261 2114.45 132.703 2112.77 129.416C2111.11 126.129 2110.28 122.288 2110.28 117.893C2110.28 113.499 2111.11 109.648 2112.77 106.343C2114.45 103.038 2116.81 100.471 2119.86 98.6428C2122.91 96.8146 2126.51 95.9006 2130.66 95.9006C2134.82 95.9006 2138.42 96.8146 2141.47 98.6428C2144.51 100.471 2146.87 103.038 2148.53 106.343C2150.21 109.648 2151.05 113.499 2151.05 117.893C2151.05 122.288 2150.21 126.129 2148.53 129.416C2146.87 132.703 2144.51 135.261 2141.47 137.089C2138.42 138.917 2134.82 139.831 2130.66 139.831ZM2130.72 131.798C2132.97 131.798 2134.86 131.18 2136.37 129.942C2137.88 128.687 2139.01 127.006 2139.75 124.901C2140.51 122.796 2140.88 120.451 2140.88 117.866C2140.88 115.262 2140.51 112.908 2139.75 110.803C2139.01 108.679 2137.88 106.989 2136.37 105.734C2134.86 104.478 2132.97 103.85 2130.72 103.85C2128.41 103.85 2126.49 104.478 2124.96 105.734C2123.44 106.989 2122.31 108.679 2121.55 110.803C2120.81 112.908 2120.44 115.262 2120.44 117.866C2120.44 120.451 2120.81 122.796 2121.55 124.901C2122.31 127.006 2123.44 128.687 2124.96 129.942C2126.49 131.18 2128.41 131.798 2130.72 131.798ZM2178.12 139.831C2173.87 139.831 2170.22 138.898 2167.18 137.033C2164.15 135.168 2161.81 132.592 2160.17 129.305C2158.54 126 2157.73 122.196 2157.73 117.893C2157.73 113.572 2158.56 109.759 2160.22 106.454C2161.89 103.13 2164.23 100.545 2167.26 98.6982C2170.31 96.8331 2173.91 95.9006 2178.06 95.9006C2181.52 95.9006 2184.57 96.5376 2187.23 97.8118C2189.91 99.0675 2192.04 100.849 2193.63 103.158C2195.22 105.447 2196.12 108.125 2196.34 111.19H2186.76C2186.37 109.141 2185.45 107.433 2183.99 106.066C2182.55 104.681 2180.62 103.989 2178.2 103.989C2176.15 103.989 2174.35 104.543 2172.8 105.651C2171.25 106.74 2170.04 108.31 2169.17 110.359C2168.32 112.409 2167.9 114.865 2167.9 117.727C2167.9 120.626 2168.32 123.119 2169.17 125.206C2170.02 127.274 2171.21 128.871 2172.74 129.998C2174.3 131.106 2176.11 131.66 2178.2 131.66C2179.68 131.66 2181 131.383 2182.16 130.829C2183.34 130.256 2184.33 129.435 2185.13 128.364C2185.92 127.293 2186.47 125.991 2186.76 124.458H2196.34C2196.1 127.468 2195.22 130.136 2193.69 132.463C2192.15 134.771 2190.07 136.581 2187.43 137.892C2184.78 139.185 2181.68 139.831 2178.12 139.831ZM2223.41 139.831C2219.15 139.831 2215.46 138.945 2212.36 137.172C2209.28 135.381 2206.9 132.851 2205.24 129.582C2203.58 126.295 2202.75 122.427 2202.75 117.977C2202.75 113.6 2203.58 109.759 2205.24 106.454C2206.92 103.13 2209.27 100.545 2212.28 98.6982C2215.29 96.8331 2218.82 95.9006 2222.89 95.9006C2225.51 95.9006 2227.98 96.3253 2230.31 97.1747C2232.66 98.0057 2234.72 99.2983 2236.51 101.053C2238.32 102.807 2239.75 105.041 2240.78 107.756C2241.81 110.452 2242.33 113.665 2242.33 117.395V120.469H2207.46V113.711H2232.72C2232.7 111.79 2232.29 110.082 2231.47 108.587C2230.66 107.072 2229.53 105.881 2228.07 105.013C2226.63 104.146 2224.95 103.712 2223.03 103.712C2220.98 103.712 2219.18 104.21 2217.62 105.207C2216.07 106.186 2214.86 107.479 2214 109.085C2213.15 110.673 2212.71 112.418 2212.69 114.32V120.22C2212.69 122.695 2213.15 124.818 2214.05 126.591C2214.96 128.345 2216.22 129.693 2217.85 130.635C2219.47 131.558 2221.37 132.02 2223.55 132.02C2225.01 132.02 2226.33 131.817 2227.51 131.411C2228.69 130.986 2229.72 130.367 2230.59 129.555C2231.45 128.742 2232.11 127.736 2232.55 126.536L2241.92 127.588C2241.32 130.062 2240.2 132.223 2238.54 134.07C2236.89 135.898 2234.79 137.32 2232.22 138.335C2229.65 139.332 2226.72 139.831 2223.41 139.831ZM2284.44 107.7L2275.3 108.697C2275.04 107.774 2274.59 106.906 2273.94 106.094C2273.31 105.281 2272.47 104.626 2271.39 104.127C2270.32 103.629 2269.01 103.379 2267.46 103.379C2265.37 103.379 2263.62 103.832 2262.2 104.737C2260.79 105.641 2260.1 106.814 2260.12 108.254C2260.1 109.491 2260.55 110.498 2261.48 111.273C2262.42 112.049 2263.97 112.686 2266.13 113.185L2273.39 114.736C2277.41 115.604 2280.41 116.979 2282.36 118.863C2284.34 120.746 2285.34 123.212 2285.35 126.259C2285.34 128.936 2284.55 131.3 2283 133.349C2281.47 135.381 2279.33 136.969 2276.6 138.114C2273.87 139.259 2270.73 139.831 2267.18 139.831C2261.98 139.831 2257.78 138.741 2254.61 136.562C2251.43 134.365 2249.54 131.309 2248.93 127.394L2258.71 126.452C2259.15 128.373 2260.09 129.822 2261.53 130.801C2262.97 131.78 2264.85 132.269 2267.16 132.269C2269.54 132.269 2271.45 131.78 2272.89 130.801C2274.35 129.822 2275.08 128.613 2275.08 127.173C2275.08 125.954 2274.61 124.947 2273.67 124.153C2272.74 123.359 2271.3 122.75 2269.34 122.325L2262.09 120.802C2258.01 119.952 2254.99 118.521 2253.03 116.509C2251.07 114.477 2250.1 111.911 2250.12 108.808C2250.1 106.186 2250.81 103.915 2252.25 101.994C2253.71 100.055 2255.74 98.5597 2258.32 97.5071C2260.92 96.4361 2263.92 95.9006 2267.32 95.9006C2272.31 95.9006 2276.23 96.9624 2279.09 99.0859C2281.98 101.21 2283.76 104.081 2284.44 107.7ZM2327.25 107.7L2318.11 108.697C2317.85 107.774 2317.4 106.906 2316.75 106.094C2316.12 105.281 2315.27 104.626 2314.2 104.127C2313.13 103.629 2311.82 103.379 2310.27 103.379C2308.18 103.379 2306.43 103.832 2305.01 104.737C2303.6 105.641 2302.91 106.814 2302.93 108.254C2302.91 109.491 2303.36 110.498 2304.29 111.273C2305.23 112.049 2306.78 112.686 2308.94 113.185L2316.2 114.736C2320.22 115.604 2323.21 116.979 2325.17 118.863C2327.15 120.746 2328.14 123.212 2328.16 126.259C2328.14 128.936 2327.36 131.3 2325.81 133.349C2324.28 135.381 2322.14 136.969 2319.41 138.114C2316.68 139.259 2313.54 139.831 2309.99 139.831C2304.79 139.831 2300.59 138.741 2297.42 136.562C2294.24 134.365 2292.35 131.309 2291.74 127.394L2301.52 126.452C2301.96 128.373 2302.9 129.822 2304.34 130.801C2305.78 131.78 2307.66 132.269 2309.97 132.269C2312.35 132.269 2314.26 131.78 2315.7 130.801C2317.16 129.822 2317.89 128.613 2317.89 127.173C2317.89 125.954 2317.42 124.947 2316.47 124.153C2315.55 123.359 2314.11 122.75 2312.15 122.325L2304.9 120.802C2300.82 119.952 2297.8 118.521 2295.84 116.509C2293.88 114.477 2292.91 111.911 2292.93 108.808C2292.91 106.186 2293.62 103.915 2295.06 101.994C2296.52 100.055 2298.54 98.5597 2301.13 97.5071C2303.73 96.4361 2306.73 95.9006 2310.13 95.9006C2315.12 95.9006 2319.04 96.9624 2321.9 99.0859C2324.78 101.21 2326.57 104.081 2327.25 107.7Z" fill="#02C6B0"/>
<path d="M1607.5 222.256C1605.84 222.256 1604.32 221.851 1602.95 221.04C1601.58 220.217 1600.48 219.118 1599.65 217.745C1598.84 216.372 1598.44 214.855 1598.44 213.193C1598.44 211.518 1598.84 210.001 1599.65 208.641C1600.48 207.268 1601.58 206.177 1602.95 205.366C1604.32 204.543 1605.84 204.131 1607.5 204.131C1609.18 204.131 1610.69 204.543 1612.05 205.366C1613.42 206.177 1614.52 207.268 1615.33 208.641C1616.15 210.001 1616.56 211.518 1616.56 213.193C1616.56 214.855 1616.15 216.372 1615.33 217.745C1614.52 219.118 1613.42 220.217 1612.05 221.04C1610.69 221.851 1609.18 222.256 1607.5 222.256ZM1679.18 198.364C1678.93 196.277 1677.93 194.656 1676.17 193.503C1674.41 192.349 1672.26 191.773 1669.7 191.773C1667.83 191.773 1666.2 192.075 1664.8 192.679C1663.41 193.283 1662.33 194.114 1661.55 195.171C1660.78 196.228 1660.39 197.43 1660.39 198.776C1660.39 199.902 1660.66 200.87 1661.2 201.68C1661.74 202.476 1662.44 203.142 1663.3 203.678C1664.15 204.199 1665.04 204.632 1665.97 204.975C1666.91 205.305 1667.77 205.572 1668.55 205.778L1672.83 206.932C1673.93 207.22 1675.15 207.618 1676.5 208.126C1677.86 208.634 1679.16 209.328 1680.39 210.207C1681.64 211.072 1682.67 212.184 1683.48 213.543C1684.29 214.903 1684.7 216.571 1684.7 218.548C1684.7 220.828 1684.1 222.887 1682.9 224.727C1681.72 226.567 1679.99 228.03 1677.71 229.114C1675.45 230.199 1672.7 230.741 1669.45 230.741C1666.43 230.741 1663.82 230.254 1661.61 229.279C1659.41 228.304 1657.68 226.945 1656.42 225.201C1655.17 223.457 1654.46 221.432 1654.3 219.125H1659.57C1659.71 220.718 1660.24 222.036 1661.17 223.08C1662.12 224.109 1663.32 224.878 1664.76 225.386C1666.21 225.881 1667.78 226.128 1669.45 226.128C1671.4 226.128 1673.16 225.812 1674.71 225.18C1676.26 224.535 1677.49 223.643 1678.39 222.503C1679.3 221.349 1679.75 220.004 1679.75 218.466C1679.75 217.065 1679.36 215.926 1678.58 215.047C1677.8 214.168 1676.77 213.454 1675.49 212.905C1674.21 212.356 1672.83 211.875 1671.35 211.463L1666.16 209.98C1662.86 209.033 1660.25 207.68 1658.33 205.923C1656.41 204.165 1655.45 201.865 1655.45 199.023C1655.45 196.661 1656.09 194.601 1657.36 192.844C1658.66 191.072 1660.39 189.699 1662.55 188.724C1664.74 187.736 1667.18 187.241 1669.87 187.241C1672.59 187.241 1675 187.729 1677.12 188.704C1679.23 189.665 1680.91 190.983 1682.14 192.658C1683.39 194.334 1684.05 196.235 1684.12 198.364H1679.18ZM1705.7 230.659C1702.65 230.659 1700.02 229.986 1697.81 228.641C1695.61 227.281 1693.92 225.386 1692.72 222.956C1691.54 220.512 1690.95 217.67 1690.95 214.429C1690.95 211.188 1691.54 208.332 1692.72 205.861C1693.92 203.375 1695.58 201.439 1697.71 200.053C1699.85 198.652 1702.35 197.952 1705.21 197.952C1706.85 197.952 1708.48 198.226 1710.09 198.776C1711.69 199.325 1713.16 200.217 1714.47 201.453C1715.79 202.675 1716.84 204.295 1717.62 206.314C1718.41 208.332 1718.8 210.818 1718.8 213.77V215.83H1694.41V211.628H1713.86C1713.86 209.843 1713.5 208.25 1712.78 206.849C1712.08 205.449 1711.08 204.344 1709.78 203.533C1708.49 202.723 1706.96 202.318 1705.21 202.318C1703.27 202.318 1701.59 202.799 1700.18 203.76C1698.78 204.707 1697.7 205.943 1696.95 207.467C1696.19 208.991 1695.81 210.625 1695.81 212.369V215.17C1695.81 217.56 1696.22 219.585 1697.05 221.246C1697.89 222.894 1699.05 224.151 1700.53 225.016C1702.01 225.867 1703.74 226.293 1705.7 226.293C1706.98 226.293 1708.13 226.114 1709.16 225.757C1710.2 225.386 1711.1 224.837 1711.86 224.109C1712.61 223.368 1713.2 222.448 1713.61 221.349L1718.3 222.668C1717.81 224.26 1716.98 225.661 1715.81 226.869C1714.65 228.064 1713.2 228.998 1711.49 229.67C1709.77 230.33 1707.84 230.659 1705.7 230.659ZM1726.19 230V198.364H1730.89V203.142H1731.22C1731.8 201.577 1732.84 200.307 1734.35 199.332C1735.86 198.357 1737.56 197.869 1739.46 197.869C1739.81 197.869 1740.26 197.876 1740.8 197.89C1741.33 197.904 1741.74 197.924 1742.01 197.952V202.895C1741.85 202.854 1741.47 202.792 1740.88 202.71C1740.3 202.613 1739.69 202.565 1739.05 202.565C1737.51 202.565 1736.13 202.888 1734.93 203.533C1733.73 204.165 1732.78 205.044 1732.08 206.17C1731.4 207.282 1731.05 208.552 1731.05 209.98V230H1726.19ZM1774.61 198.364L1762.91 230H1757.96L1746.26 198.364H1751.54L1760.27 223.574H1760.6L1769.33 198.364H1774.61ZM1781.02 230V198.364H1785.88V230H1781.02ZM1783.49 193.091C1782.55 193.091 1781.73 192.768 1781.04 192.123C1780.37 191.478 1780.03 190.702 1780.03 189.795C1780.03 188.889 1780.37 188.113 1781.04 187.468C1781.73 186.823 1782.55 186.5 1783.49 186.5C1784.44 186.5 1785.25 186.823 1785.92 187.468C1786.61 188.113 1786.95 188.889 1786.95 189.795C1786.95 190.702 1786.61 191.478 1785.92 192.123C1785.25 192.768 1784.44 193.091 1783.49 193.091ZM1807.64 230.659C1804.67 230.659 1802.12 229.959 1799.98 228.558C1797.83 227.158 1796.19 225.228 1795.03 222.771C1793.88 220.313 1793.3 217.505 1793.3 214.347C1793.3 211.134 1793.89 208.298 1795.07 205.84C1796.27 203.369 1797.93 201.439 1800.06 200.053C1802.2 198.652 1804.7 197.952 1807.55 197.952C1809.78 197.952 1811.78 198.364 1813.57 199.188C1815.35 200.011 1816.82 201.165 1817.96 202.648C1819.1 204.131 1819.8 205.861 1820.08 207.838H1815.22C1814.85 206.396 1814.02 205.119 1812.75 204.007C1811.48 202.881 1809.78 202.318 1807.64 202.318C1805.74 202.318 1804.08 202.812 1802.65 203.801C1801.24 204.776 1800.13 206.156 1799.34 207.941C1798.55 209.712 1798.16 211.793 1798.16 214.182C1798.16 216.626 1798.55 218.754 1799.32 220.567C1800.1 222.379 1801.2 223.787 1802.61 224.789C1804.04 225.791 1805.71 226.293 1807.64 226.293C1808.9 226.293 1810.05 226.073 1811.08 225.634C1812.11 225.194 1812.98 224.562 1813.69 223.739C1814.41 222.915 1814.91 221.926 1815.22 220.773H1820.08C1819.8 222.64 1819.12 224.322 1818.04 225.819C1816.97 227.302 1815.55 228.483 1813.77 229.362C1812.02 230.227 1809.97 230.659 1807.64 230.659ZM1840.45 230.659C1837.4 230.659 1834.77 229.986 1832.56 228.641C1830.36 227.281 1828.67 225.386 1827.47 222.956C1826.29 220.512 1825.7 217.67 1825.7 214.429C1825.7 211.188 1826.29 208.332 1827.47 205.861C1828.67 203.375 1830.33 201.439 1832.46 200.053C1834.6 198.652 1837.1 197.952 1839.95 197.952C1841.6 197.952 1843.23 198.226 1844.83 198.776C1846.44 199.325 1847.9 200.217 1849.22 201.453C1850.54 202.675 1851.59 204.295 1852.37 206.314C1853.16 208.332 1853.55 210.818 1853.55 213.77V215.83H1829.16V211.628H1848.6C1848.6 209.843 1848.25 208.25 1847.53 206.849C1846.83 205.449 1845.83 204.344 1844.53 203.533C1843.23 202.723 1841.71 202.318 1839.95 202.318C1838.02 202.318 1836.34 202.799 1834.93 203.76C1833.53 204.707 1832.45 205.943 1831.69 207.467C1830.94 208.991 1830.56 210.625 1830.56 212.369V215.17C1830.56 217.56 1830.97 219.585 1831.8 221.246C1832.63 222.894 1833.79 224.151 1835.28 225.016C1836.76 225.867 1838.48 226.293 1840.45 226.293C1841.72 226.293 1842.88 226.114 1843.91 225.757C1844.95 225.386 1845.85 224.837 1846.61 224.109C1847.36 223.368 1847.94 222.448 1848.36 221.349L1853.05 222.668C1852.56 224.26 1851.73 225.661 1850.56 226.869C1849.39 228.064 1847.95 228.998 1846.24 229.67C1844.52 230.33 1842.59 230.659 1840.45 230.659ZM1883.35 205.449L1878.98 206.685C1878.71 205.957 1878.3 205.25 1877.77 204.563C1877.25 203.863 1876.53 203.286 1875.63 202.833C1874.72 202.38 1873.56 202.153 1872.15 202.153C1870.21 202.153 1868.6 202.6 1867.31 203.492C1866.03 204.371 1865.39 205.49 1865.39 206.849C1865.39 208.058 1865.83 209.012 1866.71 209.712C1867.59 210.413 1868.96 210.996 1870.83 211.463L1875.52 212.616C1878.35 213.303 1880.46 214.353 1881.85 215.768C1883.23 217.168 1883.93 218.974 1883.93 221.185C1883.93 222.997 1883.41 224.617 1882.36 226.045C1881.33 227.473 1879.89 228.599 1878.04 229.423C1876.18 230.247 1874.03 230.659 1871.57 230.659C1868.34 230.659 1865.67 229.959 1863.56 228.558C1861.44 227.158 1860.1 225.112 1859.54 222.42L1864.15 221.267C1864.59 222.97 1865.42 224.247 1866.65 225.098C1867.88 225.949 1869.5 226.375 1871.49 226.375C1873.75 226.375 1875.55 225.894 1876.88 224.933C1878.23 223.958 1878.9 222.791 1878.9 221.432C1878.9 220.333 1878.52 219.413 1877.75 218.672C1876.98 217.917 1875.8 217.354 1874.21 216.983L1868.93 215.747C1866.04 215.061 1863.91 213.996 1862.55 212.555C1861.2 211.099 1860.53 209.28 1860.53 207.097C1860.53 205.312 1861.03 203.732 1862.03 202.359C1863.05 200.986 1864.43 199.908 1866.17 199.126C1867.93 198.343 1869.92 197.952 1872.15 197.952C1875.28 197.952 1877.73 198.638 1879.52 200.011C1881.32 201.384 1882.59 203.197 1883.35 205.449Z" fill="#02C6B0"/>
<path d="M1607.5 304.256C1605.84 304.256 1604.32 303.851 1602.95 303.04C1601.58 302.217 1600.48 301.118 1599.65 299.745C1598.84 298.372 1598.44 296.855 1598.44 295.193C1598.44 293.518 1598.84 292.001 1599.65 290.641C1600.48 289.268 1601.58 288.177 1602.95 287.366C1604.32 286.543 1605.84 286.131 1607.5 286.131C1609.18 286.131 1610.69 286.543 1612.05 287.366C1613.42 288.177 1614.52 289.268 1615.33 290.641C1616.15 292.001 1616.56 293.518 1616.56 295.193C1616.56 296.855 1616.15 298.372 1615.33 299.745C1614.52 301.118 1613.42 302.217 1612.05 303.04C1610.69 303.851 1609.18 304.256 1607.5 304.256ZM1683.79 269.818H1688.9V297.747C1688.9 300.631 1688.22 303.205 1686.86 305.471C1685.51 307.723 1683.61 309.501 1681.15 310.805C1678.7 312.096 1675.81 312.741 1672.5 312.741C1669.19 312.741 1666.31 312.096 1663.85 310.805C1661.39 309.501 1659.49 307.723 1658.13 305.471C1656.78 303.205 1656.11 300.631 1656.11 297.747V269.818H1661.22V297.335C1661.22 299.395 1661.67 301.228 1662.58 302.835C1663.48 304.427 1664.77 305.684 1666.45 306.604C1668.14 307.51 1670.15 307.963 1672.5 307.963C1674.85 307.963 1676.87 307.51 1678.56 306.604C1680.25 305.684 1681.54 304.427 1682.43 302.835C1683.34 301.228 1683.79 299.395 1683.79 297.335V269.818ZM1720.85 287.449L1716.48 288.685C1716.21 287.957 1715.8 287.25 1715.27 286.563C1714.74 285.863 1714.03 285.286 1713.12 284.833C1712.22 284.38 1711.06 284.153 1709.64 284.153C1707.71 284.153 1706.09 284.6 1704.8 285.492C1703.53 286.371 1702.89 287.49 1702.89 288.849C1702.89 290.058 1703.33 291.012 1704.21 291.712C1705.08 292.413 1706.46 292.996 1708.33 293.463L1713.02 294.616C1715.85 295.303 1717.96 296.353 1719.34 297.768C1720.73 299.168 1721.42 300.974 1721.42 303.185C1721.42 304.997 1720.9 306.617 1719.86 308.045C1718.83 309.473 1717.39 310.599 1715.53 311.423C1713.68 312.247 1711.52 312.659 1709.07 312.659C1705.84 312.659 1703.17 311.959 1701.05 310.558C1698.94 309.158 1697.6 307.112 1697.04 304.42L1701.65 303.267C1702.09 304.97 1702.92 306.247 1704.14 307.098C1705.38 307.949 1706.99 308.375 1708.98 308.375C1711.25 308.375 1713.05 307.894 1714.38 306.933C1715.73 305.958 1716.4 304.791 1716.4 303.432C1716.4 302.333 1716.01 301.413 1715.25 300.672C1714.48 299.917 1713.3 299.354 1711.7 298.983L1706.43 297.747C1703.53 297.061 1701.41 295.996 1700.05 294.555C1698.7 293.099 1698.03 291.28 1698.03 289.097C1698.03 287.312 1698.53 285.732 1699.53 284.359C1700.55 282.986 1701.93 281.908 1703.67 281.126C1705.43 280.343 1707.42 279.952 1709.64 279.952C1712.77 279.952 1715.23 280.638 1717.02 282.011C1718.82 283.384 1720.09 285.197 1720.85 287.449ZM1742.01 312.659C1738.96 312.659 1736.33 311.986 1734.12 310.641C1731.92 309.281 1730.22 307.386 1729.03 304.956C1727.85 302.512 1727.26 299.67 1727.26 296.429C1727.26 293.188 1727.85 290.332 1729.03 287.861C1730.22 285.375 1731.89 283.439 1734.01 282.053C1736.16 280.652 1738.66 279.952 1741.51 279.952C1743.16 279.952 1744.79 280.226 1746.39 280.776C1748 281.325 1749.46 282.217 1750.78 283.453C1752.1 284.675 1753.15 286.295 1753.93 288.314C1754.71 290.332 1755.11 292.818 1755.11 295.77V297.83H1730.72V293.628H1750.16C1750.16 291.843 1749.81 290.25 1749.09 288.849C1748.39 287.449 1747.39 286.344 1746.08 285.533C1744.79 284.723 1743.27 284.318 1741.51 284.318C1739.58 284.318 1737.9 284.799 1736.49 285.76C1735.09 286.707 1734.01 287.943 1733.25 289.467C1732.5 290.991 1732.12 292.625 1732.12 294.369V297.17C1732.12 299.56 1732.53 301.585 1733.36 303.246C1734.19 304.894 1735.35 306.151 1736.84 307.016C1738.32 307.867 1740.04 308.293 1742.01 308.293C1743.28 308.293 1744.44 308.114 1745.47 307.757C1746.51 307.386 1747.41 306.837 1748.16 306.109C1748.92 305.368 1749.5 304.448 1749.92 303.349L1754.61 304.668C1754.12 306.26 1753.29 307.661 1752.12 308.869C1750.95 310.064 1749.51 310.998 1747.79 311.67C1746.08 312.33 1744.15 312.659 1742.01 312.659ZM1762.5 312V280.364H1767.2V285.142H1767.53C1768.1 283.577 1769.15 282.307 1770.66 281.332C1772.17 280.357 1773.87 279.869 1775.76 279.869C1776.12 279.869 1776.57 279.876 1777.1 279.89C1777.64 279.904 1778.04 279.924 1778.32 279.952V284.895C1778.15 284.854 1777.78 284.792 1777.19 284.71C1776.61 284.613 1776 284.565 1775.35 284.565C1773.81 284.565 1772.44 284.888 1771.23 285.533C1770.04 286.165 1769.09 287.044 1768.39 288.17C1767.7 289.282 1767.36 290.552 1767.36 291.98V312H1762.5ZM1800.39 312V280.364H1805.25V312H1800.39ZM1802.86 275.091C1801.92 275.091 1801.1 274.768 1800.41 274.123C1799.74 273.478 1799.4 272.702 1799.4 271.795C1799.4 270.889 1799.74 270.113 1800.41 269.468C1801.1 268.823 1801.92 268.5 1802.86 268.5C1803.81 268.5 1804.62 268.823 1805.29 269.468C1805.98 270.113 1806.32 270.889 1806.32 271.795C1806.32 272.702 1805.98 273.478 1805.29 274.123C1804.62 274.768 1803.81 275.091 1802.86 275.091ZM1819.02 292.969V312H1814.16V280.364H1818.85V285.307H1819.26C1820.01 283.7 1821.13 282.41 1822.64 281.435C1824.15 280.446 1826.1 279.952 1828.49 279.952C1830.63 279.952 1832.51 280.391 1834.11 281.27C1835.72 282.135 1836.97 283.453 1837.86 285.224C1838.76 286.982 1839.2 289.206 1839.2 291.898V312H1834.34V292.227C1834.34 289.742 1833.7 287.806 1832.4 286.419C1831.11 285.018 1829.34 284.318 1827.09 284.318C1825.54 284.318 1824.15 284.655 1822.93 285.327C1821.72 286 1820.77 286.982 1820.07 288.273C1819.37 289.563 1819.02 291.129 1819.02 292.969ZM1862.17 280.364V284.483H1845.12V280.364H1862.17ZM1850.23 312V275.997C1850.23 274.185 1850.65 272.674 1851.5 271.466C1852.35 270.258 1853.46 269.351 1854.82 268.747C1856.18 268.143 1857.61 267.841 1859.12 267.841C1860.32 267.841 1861.29 267.937 1862.05 268.129C1862.8 268.321 1863.37 268.5 1863.74 268.665L1862.34 272.866C1862.09 272.784 1861.75 272.681 1861.31 272.558C1860.88 272.434 1860.32 272.372 1859.62 272.372C1858.01 272.372 1856.85 272.777 1856.14 273.587C1855.44 274.397 1855.09 275.585 1855.09 277.151V312H1850.23ZM1880.53 312.659C1877.68 312.659 1875.17 311.979 1873.02 310.62C1870.87 309.261 1869.2 307.359 1867.99 304.915C1866.8 302.471 1866.2 299.615 1866.2 296.347C1866.2 293.051 1866.8 290.174 1867.99 287.717C1869.2 285.259 1870.87 283.35 1873.02 281.991C1875.17 280.631 1877.68 279.952 1880.53 279.952C1883.39 279.952 1885.89 280.631 1888.03 281.991C1890.19 283.35 1891.86 285.259 1893.06 287.717C1894.26 290.174 1894.87 293.051 1894.87 296.347C1894.87 299.615 1894.26 302.471 1893.06 304.915C1891.86 307.359 1890.19 309.261 1888.03 310.62C1885.89 311.979 1883.39 312.659 1880.53 312.659ZM1880.53 308.293C1882.7 308.293 1884.49 307.737 1885.89 306.624C1887.29 305.512 1888.33 304.05 1889 302.237C1889.67 300.425 1890.01 298.461 1890.01 296.347C1890.01 294.232 1889.67 292.262 1889 290.435C1888.33 288.609 1887.29 287.133 1885.89 286.007C1884.49 284.881 1882.7 284.318 1880.53 284.318C1878.36 284.318 1876.58 284.881 1875.18 286.007C1873.78 287.133 1872.74 288.609 1872.07 290.435C1871.4 292.262 1871.06 294.232 1871.06 296.347C1871.06 298.461 1871.4 300.425 1872.07 302.237C1872.74 304.05 1873.78 305.512 1875.18 306.624C1876.58 307.737 1878.36 308.293 1880.53 308.293Z" fill="#02C6B0"/>
<path d="M1607.5 386.256C1605.84 386.256 1604.32 385.851 1602.95 385.04C1601.58 384.217 1600.48 383.118 1599.65 381.745C1598.84 380.372 1598.44 378.855 1598.44 377.193C1598.44 375.518 1598.84 374.001 1599.65 372.641C1600.48 371.268 1601.58 370.177 1602.95 369.366C1604.32 368.543 1605.84 368.131 1607.5 368.131C1609.18 368.131 1610.69 368.543 1612.05 369.366C1613.42 370.177 1614.52 371.268 1615.33 372.641C1616.15 374.001 1616.56 375.518 1616.56 377.193C1616.56 378.855 1616.15 380.372 1615.33 381.745C1614.52 383.118 1613.42 384.217 1612.05 385.04C1610.69 385.851 1609.18 386.256 1607.5 386.256ZM1656.11 394V351.818H1670.86C1673.79 351.818 1676.22 352.326 1678.13 353.342C1680.03 354.345 1681.46 355.697 1682.39 357.4C1683.32 359.089 1683.79 360.963 1683.79 363.023C1683.79 364.835 1683.47 366.332 1682.82 367.513C1682.19 368.694 1681.35 369.627 1680.31 370.314C1679.28 371 1678.16 371.509 1676.95 371.838V372.25C1678.24 372.332 1679.54 372.786 1680.84 373.609C1682.15 374.433 1683.24 375.614 1684.12 377.152C1685 378.69 1685.44 380.571 1685.44 382.795C1685.44 384.91 1684.96 386.812 1684 388.501C1683.03 390.19 1681.52 391.528 1679.44 392.517C1677.37 393.506 1674.67 394 1671.35 394H1656.11ZM1661.22 389.469H1671.35C1674.69 389.469 1677.05 388.823 1678.46 387.533C1679.87 386.228 1680.58 384.649 1680.58 382.795C1680.58 381.367 1680.21 380.049 1679.49 378.841C1678.76 377.619 1677.72 376.644 1676.38 375.916C1675.03 375.175 1673.44 374.804 1671.6 374.804H1661.22V389.469ZM1661.22 370.355H1670.69C1672.23 370.355 1673.62 370.053 1674.85 369.449C1676.1 368.845 1677.09 367.993 1677.82 366.895C1678.56 365.796 1678.93 364.506 1678.93 363.023C1678.93 361.169 1678.28 359.597 1676.99 358.306C1675.7 357.002 1673.66 356.349 1670.86 356.349H1661.22V370.355ZM1693.17 394V362.364H1698.03V394H1693.17ZM1695.64 357.091C1694.7 357.091 1693.88 356.768 1693.19 356.123C1692.52 355.478 1692.18 354.702 1692.18 353.795C1692.18 352.889 1692.52 352.113 1693.19 351.468C1693.88 350.823 1694.7 350.5 1695.64 350.5C1696.59 350.5 1697.4 350.823 1698.07 351.468C1698.76 352.113 1699.1 352.889 1699.1 353.795C1699.1 354.702 1698.76 355.478 1698.07 356.123C1697.4 356.768 1696.59 357.091 1695.64 357.091ZM1706.03 394V390.293L1723.99 367.224V366.895H1706.61V362.364H1730.25V366.236L1712.78 389.139V389.469H1730.83V394H1706.03ZM1754.63 394V362.364H1759.49V394H1754.63ZM1757.1 357.091C1756.15 357.091 1755.33 356.768 1754.65 356.123C1753.97 355.478 1753.64 354.702 1753.64 353.795C1753.64 352.889 1753.97 352.113 1754.65 351.468C1755.33 350.823 1756.15 350.5 1757.1 350.5C1758.05 350.5 1758.86 350.823 1759.53 351.468C1760.22 352.113 1760.56 352.889 1760.56 353.795C1760.56 354.702 1760.22 355.478 1759.53 356.123C1758.86 356.768 1758.05 357.091 1757.1 357.091ZM1773.25 374.969V394H1768.39V362.364H1773.09V367.307H1773.5C1774.24 365.7 1775.37 364.41 1776.88 363.435C1778.39 362.446 1780.34 361.952 1782.73 361.952C1784.87 361.952 1786.74 362.391 1788.35 363.27C1789.95 364.135 1791.2 365.453 1792.1 367.224C1792.99 368.982 1793.44 371.206 1793.44 373.898V394H1788.57V374.227C1788.57 371.742 1787.93 369.806 1786.64 368.419C1785.35 367.018 1783.58 366.318 1781.32 366.318C1779.77 366.318 1778.39 366.655 1777.16 367.327C1775.96 368 1775 368.982 1774.3 370.273C1773.6 371.563 1773.25 373.129 1773.25 374.969ZM1816.41 362.364V366.483H1799.35V362.364H1816.41ZM1804.46 394V357.997C1804.46 356.185 1804.89 354.674 1805.74 353.466C1806.59 352.258 1807.69 351.351 1809.05 350.747C1810.41 350.143 1811.85 349.841 1813.36 349.841C1814.55 349.841 1815.53 349.937 1816.28 350.129C1817.04 350.321 1817.6 350.5 1817.97 350.665L1816.57 354.866C1816.32 354.784 1815.98 354.681 1815.54 354.558C1815.12 354.434 1814.55 354.372 1813.85 354.372C1812.25 354.372 1811.09 354.777 1810.37 355.587C1809.67 356.397 1809.32 357.585 1809.32 359.151V394H1804.46ZM1834.77 394.659C1831.91 394.659 1829.41 393.979 1827.25 392.62C1825.11 391.261 1823.43 389.359 1822.22 386.915C1821.03 384.471 1820.43 381.615 1820.43 378.347C1820.43 375.051 1821.03 372.174 1822.22 369.717C1823.43 367.259 1825.11 365.35 1827.25 363.991C1829.41 362.631 1831.91 361.952 1834.77 361.952C1837.62 361.952 1840.12 362.631 1842.27 363.991C1844.42 365.35 1846.1 367.259 1847.29 369.717C1848.5 372.174 1849.1 375.051 1849.1 378.347C1849.1 381.615 1848.5 384.471 1847.29 386.915C1846.1 389.359 1844.42 391.261 1842.27 392.62C1840.12 393.979 1837.62 394.659 1834.77 394.659ZM1834.77 390.293C1836.94 390.293 1838.72 389.737 1840.12 388.624C1841.52 387.512 1842.56 386.05 1843.23 384.237C1843.91 382.425 1844.24 380.461 1844.24 378.347C1844.24 376.232 1843.91 374.262 1843.23 372.435C1842.56 370.609 1841.52 369.133 1840.12 368.007C1838.72 366.881 1836.94 366.318 1834.77 366.318C1832.6 366.318 1830.81 366.881 1829.41 368.007C1828.01 369.133 1826.98 370.609 1826.3 372.435C1825.63 374.262 1825.29 376.232 1825.29 378.347C1825.29 380.461 1825.63 382.425 1826.3 384.237C1826.98 386.05 1828.01 387.512 1829.41 388.624C1830.81 389.737 1832.6 390.293 1834.77 390.293Z" fill="#02C6B0"/>
<path d="M1607.5 468.256C1605.84 468.256 1604.32 467.851 1602.95 467.04C1601.58 466.217 1600.48 465.118 1599.65 463.745C1598.84 462.372 1598.44 460.855 1598.44 459.193C1598.44 457.518 1598.84 456.001 1599.65 454.641C1600.48 453.268 1601.58 452.177 1602.95 451.366C1604.32 450.543 1605.84 450.131 1607.5 450.131C1609.18 450.131 1610.69 450.543 1612.05 451.366C1613.42 452.177 1614.52 453.268 1615.33 454.641C1616.15 456.001 1616.56 457.518 1616.56 459.193C1616.56 460.855 1616.15 462.372 1615.33 463.745C1614.52 465.118 1613.42 466.217 1612.05 467.04C1610.69 467.851 1609.18 468.256 1607.5 468.256ZM1679.18 444.364C1678.93 442.277 1677.93 440.656 1676.17 439.503C1674.41 438.349 1672.26 437.773 1669.7 437.773C1667.83 437.773 1666.2 438.075 1664.8 438.679C1663.41 439.283 1662.33 440.114 1661.55 441.171C1660.78 442.228 1660.39 443.43 1660.39 444.776C1660.39 445.902 1660.66 446.87 1661.2 447.68C1661.74 448.476 1662.44 449.142 1663.3 449.678C1664.15 450.199 1665.04 450.632 1665.97 450.975C1666.91 451.305 1667.77 451.572 1668.55 451.778L1672.83 452.932C1673.93 453.22 1675.15 453.618 1676.5 454.126C1677.86 454.634 1679.16 455.328 1680.39 456.207C1681.64 457.072 1682.67 458.184 1683.48 459.543C1684.29 460.903 1684.7 462.571 1684.7 464.548C1684.7 466.828 1684.1 468.887 1682.9 470.727C1681.72 472.567 1679.99 474.03 1677.71 475.114C1675.45 476.199 1672.7 476.741 1669.45 476.741C1666.43 476.741 1663.82 476.254 1661.61 475.279C1659.41 474.304 1657.68 472.945 1656.42 471.201C1655.17 469.457 1654.46 467.432 1654.3 465.125H1659.57C1659.71 466.718 1660.24 468.036 1661.17 469.08C1662.12 470.109 1663.32 470.878 1664.76 471.386C1666.21 471.881 1667.78 472.128 1669.45 472.128C1671.4 472.128 1673.16 471.812 1674.71 471.18C1676.26 470.535 1677.49 469.643 1678.39 468.503C1679.3 467.349 1679.75 466.004 1679.75 464.466C1679.75 463.065 1679.36 461.926 1678.58 461.047C1677.8 460.168 1676.77 459.454 1675.49 458.905C1674.21 458.356 1672.83 457.875 1671.35 457.463L1666.16 455.98C1662.86 455.033 1660.25 453.68 1658.33 451.923C1656.41 450.165 1655.45 447.865 1655.45 445.023C1655.45 442.661 1656.09 440.601 1657.36 438.844C1658.66 437.072 1660.39 435.699 1662.55 434.724C1664.74 433.736 1667.18 433.241 1669.87 433.241C1672.59 433.241 1675 433.729 1677.12 434.704C1679.23 435.665 1680.91 436.983 1682.14 438.658C1683.39 440.334 1684.05 442.235 1684.12 444.364H1679.18ZM1712.37 463.065V444.364H1717.23V476H1712.37V470.645H1712.04C1711.3 472.251 1710.15 473.618 1708.58 474.744C1707.02 475.856 1705.04 476.412 1702.65 476.412C1700.67 476.412 1698.92 475.979 1697.38 475.114C1695.84 474.236 1694.63 472.917 1693.75 471.16C1692.87 469.388 1692.44 467.157 1692.44 464.466V444.364H1697.3V464.136C1697.3 466.443 1697.94 468.283 1699.23 469.656C1700.54 471.029 1702.2 471.716 1704.22 471.716C1705.42 471.716 1706.65 471.407 1707.9 470.789C1709.17 470.171 1710.22 469.224 1711.08 467.947C1711.94 466.67 1712.37 465.043 1712.37 463.065ZM1726.14 476V444.364H1730.83V449.142H1731.16C1731.74 447.577 1732.78 446.307 1734.29 445.332C1735.8 444.357 1737.51 443.869 1739.4 443.869C1739.76 443.869 1740.2 443.876 1740.74 443.89C1741.27 443.904 1741.68 443.924 1741.95 443.952V448.895C1741.79 448.854 1741.41 448.792 1740.82 448.71C1740.25 448.613 1739.63 448.565 1738.99 448.565C1737.45 448.565 1736.08 448.888 1734.87 449.533C1733.67 450.165 1732.73 451.044 1732.03 452.17C1731.34 453.282 1731 454.552 1731 455.98V476H1726.14ZM1774.55 444.364L1762.85 476H1757.91L1746.21 444.364H1751.48L1760.21 469.574H1760.54L1769.28 444.364H1774.55ZM1793.1 476.659C1790.05 476.659 1787.42 475.986 1785.21 474.641C1783.01 473.281 1781.31 471.386 1780.12 468.956C1778.94 466.512 1778.35 463.67 1778.35 460.429C1778.35 457.188 1778.94 454.332 1780.12 451.861C1781.31 449.375 1782.98 447.439 1785.1 446.053C1787.25 444.652 1789.75 443.952 1792.6 443.952C1794.25 443.952 1795.88 444.226 1797.48 444.776C1799.09 445.325 1800.55 446.217 1801.87 447.453C1803.19 448.675 1804.24 450.295 1805.02 452.314C1805.8 454.332 1806.2 456.818 1806.2 459.77V461.83H1781.81V457.628H1801.25C1801.25 455.843 1800.9 454.25 1800.18 452.849C1799.48 451.449 1798.48 450.344 1797.17 449.533C1795.88 448.723 1794.36 448.318 1792.6 448.318C1790.67 448.318 1788.99 448.799 1787.58 449.76C1786.18 450.707 1785.1 451.943 1784.34 453.467C1783.59 454.991 1783.21 456.625 1783.21 458.369V461.17C1783.21 463.56 1783.62 465.585 1784.45 467.246C1785.28 468.894 1786.44 470.151 1787.93 471.016C1789.41 471.867 1791.13 472.293 1793.1 472.293C1794.37 472.293 1795.53 472.114 1796.56 471.757C1797.6 471.386 1798.5 470.837 1799.25 470.109C1800.01 469.368 1800.59 468.448 1801 467.349L1805.7 468.668C1805.21 470.26 1804.38 471.661 1803.21 472.869C1802.04 474.064 1800.6 474.998 1798.88 475.67C1797.17 476.33 1795.24 476.659 1793.1 476.659ZM1815.76 487.864C1814.93 487.864 1814.2 487.795 1813.55 487.658C1812.91 487.534 1812.46 487.411 1812.21 487.287L1813.45 483.003C1814.63 483.305 1815.67 483.415 1816.58 483.332C1817.49 483.25 1818.29 482.845 1818.99 482.117C1819.7 481.403 1820.36 480.243 1820.95 478.636L1821.85 476.165L1810.16 444.364H1815.43L1824.16 469.574H1824.49L1833.22 444.364H1838.5L1825.07 480.614C1824.46 482.248 1823.71 483.6 1822.82 484.671C1821.93 485.756 1820.89 486.559 1819.71 487.081C1818.54 487.603 1817.23 487.864 1815.76 487.864Z" fill="#02C6B0"/>
<path d="M2740 278C2736.69 278 2734 280.686 2734 284C2734 287.314 2736.69 290 2740 290L2740 278ZM2844.24 288.243C2846.59 285.9 2846.59 282.101 2844.24 279.757L2806.06 241.574C2803.72 239.23 2799.92 239.23 2797.57 241.574C2795.23 243.917 2795.23 247.716 2797.57 250.059L2831.51 284L2797.57 317.941C2795.23 320.284 2795.23 324.083 2797.57 326.426C2799.92 328.77 2803.72 328.77 2806.06 326.426L2844.24 288.243ZM2740 290L2840 290L2840 278L2740 278L2740 290Z" fill="#02C6B0"/>
<rect x="2872.5" y="0.5" width="1271" height="567" rx="31.5" fill="#F5FEFE"/>
<rect x="2872.5" y="0.5" width="1271" height="567" rx="31.5" stroke="#02DCC3"/>
<path d="M3036.42 97.8672C3036.17 95.4482 3035.08 93.5646 3033.16 92.2166C3031.25 90.8686 3028.78 90.1946 3025.73 90.1946C3023.59 90.1946 3021.75 90.5178 3020.22 91.1641C3018.69 91.8104 3017.51 92.6875 3016.7 93.7955C3015.89 94.9034 3015.47 96.1683 3015.46 97.5902C3015.46 98.772 3015.72 99.7969 3016.26 100.665C3016.81 101.533 3017.56 102.271 3018.5 102.881C3019.44 103.472 3020.49 103.97 3021.63 104.376C3022.78 104.783 3023.93 105.124 3025.1 105.401L3030.41 106.731C3032.56 107.229 3034.61 107.903 3036.59 108.753C3038.58 109.602 3040.37 110.673 3041.94 111.966C3043.52 113.259 3044.78 114.819 3045.7 116.647C3046.63 118.475 3047.09 120.617 3047.09 123.073C3047.09 126.397 3046.24 129.324 3044.54 131.854C3042.84 134.365 3040.38 136.332 3037.17 137.754C3033.98 139.157 3030.11 139.859 3025.57 139.859C3021.15 139.859 3017.32 139.175 3014.07 137.809C3010.84 136.442 3008.31 134.448 3006.48 131.826C3004.67 129.204 3003.69 126.009 3003.55 122.242H3013.66C3013.8 124.218 3014.41 125.862 3015.48 127.173C3016.55 128.484 3017.95 129.462 3019.67 130.109C3021.4 130.755 3023.34 131.078 3025.48 131.078C3027.72 131.078 3029.67 130.746 3031.36 130.081C3033.05 129.398 3034.38 128.456 3035.34 127.256C3036.3 126.037 3036.79 124.615 3036.81 122.99C3036.79 121.513 3036.36 120.294 3035.51 119.334C3034.66 118.355 3033.47 117.543 3031.94 116.896C3030.42 116.232 3028.65 115.641 3026.62 115.124L3020.16 113.462C3015.49 112.261 3011.8 110.442 3009.09 108.005C3006.39 105.549 3005.04 102.29 3005.04 98.2273C3005.04 94.8849 3005.95 91.9581 3007.76 89.4467C3009.58 86.9354 3012.07 84.9872 3015.21 83.6023C3018.35 82.1989 3021.9 81.4972 3025.87 81.4972C3029.9 81.4972 3033.42 82.1989 3036.45 83.6023C3039.5 84.9872 3041.89 86.9169 3043.63 89.3913C3045.36 91.8473 3046.26 94.6726 3046.31 97.8672H3036.42ZM3082.92 121.107V96.4545H3092.95V139H3083.23V131.438H3082.78C3081.82 133.82 3080.25 135.768 3078.05 137.283C3075.87 138.797 3073.18 139.554 3069.99 139.554C3067.2 139.554 3064.73 138.935 3062.59 137.698C3060.47 136.442 3058.81 134.624 3057.61 132.241C3056.41 129.841 3055.81 126.942 3055.81 123.544V96.4545H3065.83V121.993C3065.83 124.689 3066.57 126.831 3068.05 128.419C3069.53 130.007 3071.47 130.801 3073.87 130.801C3075.34 130.801 3076.77 130.441 3078.16 129.721C3079.54 129.001 3080.68 127.93 3081.57 126.508C3082.47 125.067 3082.92 123.267 3082.92 121.107ZM3103.7 139V82.2727H3113.73V103.49H3114.15C3114.66 102.456 3115.39 101.357 3116.34 100.194C3117.28 99.0121 3118.55 98.0057 3120.16 97.1747C3121.76 96.3253 3123.81 95.9006 3126.31 95.9006C3129.59 95.9006 3132.56 96.7408 3135.2 98.4212C3137.86 100.083 3139.96 102.548 3141.51 105.817C3143.08 109.067 3143.87 113.055 3143.87 117.783C3143.87 122.455 3143.1 126.425 3141.57 129.693C3140.04 132.962 3137.95 135.455 3135.31 137.172C3132.67 138.889 3129.68 139.748 3126.33 139.748C3123.9 139.748 3121.88 139.342 3120.27 138.529C3118.66 137.717 3117.37 136.738 3116.39 135.593C3115.43 134.43 3114.68 133.331 3114.15 132.297H3113.57V139H3103.7ZM3113.54 117.727C3113.54 120.479 3113.93 122.888 3114.7 124.957C3115.5 127.025 3116.63 128.641 3118.11 129.804C3119.6 130.949 3121.41 131.521 3123.54 131.521C3125.75 131.521 3127.61 130.93 3129.1 129.749C3130.6 128.548 3131.73 126.914 3132.48 124.846C3133.26 122.759 3133.65 120.386 3133.65 117.727C3133.65 115.087 3133.27 112.741 3132.51 110.692C3131.75 108.642 3130.63 107.036 3129.13 105.872C3127.64 104.709 3125.77 104.127 3123.54 104.127C3121.39 104.127 3119.58 104.69 3118.08 105.817C3116.58 106.943 3115.45 108.522 3114.67 110.553C3113.92 112.585 3113.54 114.976 3113.54 117.727ZM3186.02 107.7L3176.88 108.697C3176.62 107.774 3176.17 106.906 3175.52 106.094C3174.89 105.281 3174.04 104.626 3172.97 104.127C3171.9 103.629 3170.59 103.379 3169.04 103.379C3166.95 103.379 3165.2 103.832 3163.78 104.737C3162.37 105.641 3161.68 106.814 3161.7 108.254C3161.68 109.491 3162.13 110.498 3163.06 111.273C3164 112.049 3165.55 112.686 3167.71 113.185L3174.97 114.736C3178.99 115.604 3181.98 116.979 3183.94 118.863C3185.92 120.746 3186.91 123.212 3186.93 126.259C3186.91 128.936 3186.13 131.3 3184.58 133.349C3183.05 135.381 3180.91 136.969 3178.18 138.114C3175.45 139.259 3172.31 139.831 3168.76 139.831C3163.55 139.831 3159.36 138.741 3156.19 136.562C3153.01 134.365 3151.12 131.309 3150.51 127.394L3160.29 126.452C3160.73 128.373 3161.67 129.822 3163.11 130.801C3164.55 131.78 3166.43 132.269 3168.73 132.269C3171.12 132.269 3173.03 131.78 3174.47 130.801C3175.93 129.822 3176.66 128.613 3176.66 127.173C3176.66 125.954 3176.19 124.947 3175.24 124.153C3174.32 123.359 3172.88 122.75 3170.92 122.325L3163.67 120.802C3159.58 119.952 3156.57 118.521 3154.61 116.509C3152.65 114.477 3151.68 111.911 3151.7 108.808C3151.68 106.186 3152.39 103.915 3153.83 101.994C3155.29 100.055 3157.31 98.5597 3159.9 97.5071C3162.5 96.4361 3165.5 95.9006 3168.9 95.9006C3173.89 95.9006 3177.81 96.9624 3180.67 99.0859C3183.55 101.21 3185.34 104.081 3186.02 107.7ZM3213.76 139.831C3209.51 139.831 3205.86 138.898 3202.82 137.033C3199.79 135.168 3197.45 132.592 3195.81 129.305C3194.19 126 3193.37 122.196 3193.37 117.893C3193.37 113.572 3194.2 109.759 3195.87 106.454C3197.53 103.13 3199.87 100.545 3202.9 98.6982C3205.95 96.8331 3209.55 95.9006 3213.7 95.9006C3217.16 95.9006 3220.21 96.5376 3222.87 97.8118C3225.55 99.0675 3227.68 100.849 3229.27 103.158C3230.86 105.447 3231.76 108.125 3231.98 111.19H3222.4C3222.01 109.141 3221.09 107.433 3219.63 106.066C3218.19 104.681 3216.26 103.989 3213.84 103.989C3211.79 103.989 3209.99 104.543 3208.44 105.651C3206.89 106.74 3205.68 108.31 3204.81 110.359C3203.96 112.409 3203.54 114.865 3203.54 117.727C3203.54 120.626 3203.96 123.119 3204.81 125.206C3205.66 127.274 3206.85 128.871 3208.39 129.998C3209.94 131.106 3211.76 131.66 3213.84 131.66C3215.32 131.66 3216.64 131.383 3217.8 130.829C3218.98 130.256 3219.97 129.435 3220.77 128.364C3221.56 127.293 3222.11 125.991 3222.4 124.458H3231.98C3231.74 127.468 3230.86 130.136 3229.33 132.463C3227.79 134.771 3225.71 136.581 3223.07 137.892C3220.43 139.185 3217.32 139.831 3213.76 139.831ZM3240.22 139V96.4545H3249.94V103.545H3250.38C3251.16 101.089 3252.49 99.1967 3254.37 97.8672C3256.27 96.5192 3258.44 95.8452 3260.88 95.8452C3261.44 95.8452 3262.05 95.8729 3262.74 95.9283C3263.44 95.9652 3264.02 96.0298 3264.48 96.1222V105.346C3264.06 105.198 3263.38 105.069 3262.46 104.958C3261.56 104.829 3260.68 104.764 3259.83 104.764C3258 104.764 3256.36 105.161 3254.9 105.955C3253.46 106.731 3252.32 107.811 3251.49 109.196C3250.66 110.581 3250.25 112.178 3250.25 113.988V139H3240.22ZM3271.14 139V96.4545H3281.17V139H3271.14ZM3276.19 90.4162C3274.6 90.4162 3273.23 89.8899 3272.09 88.8374C3270.94 87.7663 3270.37 86.483 3270.37 84.9872C3270.37 83.473 3270.94 82.1896 3272.09 81.1371C3273.23 80.066 3274.6 79.5305 3276.19 79.5305C3277.79 79.5305 3279.16 80.066 3280.28 81.1371C3281.43 82.1896 3282 83.473 3282 84.9872C3282 86.483 3281.43 87.7663 3280.28 88.8374C3279.16 89.8899 3277.79 90.4162 3276.19 90.4162ZM3291.93 139V82.2727H3301.95V103.49H3302.37C3302.88 102.456 3303.61 101.357 3304.56 100.194C3305.5 99.0121 3306.77 98.0057 3308.38 97.1747C3309.98 96.3253 3312.03 95.9006 3314.53 95.9006C3317.81 95.9006 3320.78 96.7408 3323.42 98.4212C3326.08 100.083 3328.18 102.548 3329.73 105.817C3331.3 109.067 3332.09 113.055 3332.09 117.783C3332.09 122.455 3331.32 126.425 3329.79 129.693C3328.26 132.962 3326.17 135.455 3323.53 137.172C3320.89 138.889 3317.9 139.748 3314.56 139.748C3312.12 139.748 3310.1 139.342 3308.49 138.529C3306.88 137.717 3305.59 136.738 3304.61 135.593C3303.65 134.43 3302.9 133.331 3302.37 132.297H3301.79V139H3291.93ZM3301.76 117.727C3301.76 120.479 3302.15 122.888 3302.92 124.957C3303.72 127.025 3304.85 128.641 3306.33 129.804C3307.82 130.949 3309.63 131.521 3311.76 131.521C3313.97 131.521 3315.83 130.93 3317.33 129.749C3318.82 128.548 3319.95 126.914 3320.7 124.846C3321.48 122.759 3321.87 120.386 3321.87 117.727C3321.87 115.087 3321.49 112.741 3320.73 110.692C3319.97 108.642 3318.85 107.036 3317.35 105.872C3315.86 104.709 3313.99 104.127 3311.76 104.127C3309.62 104.127 3307.8 104.69 3306.3 105.817C3304.81 106.943 3303.67 108.522 3302.89 110.553C3302.14 112.585 3301.76 114.976 3301.76 117.727ZM3359.45 139.831C3355.18 139.831 3351.5 138.945 3348.4 137.172C3345.31 135.381 3342.94 132.851 3341.28 129.582C3339.62 126.295 3338.78 122.427 3338.78 117.977C3338.78 113.6 3339.62 109.759 3341.28 106.454C3342.96 103.13 3345.3 100.545 3348.31 98.6982C3351.32 96.8331 3354.86 95.9006 3358.92 95.9006C3361.54 95.9006 3364.02 96.3253 3366.35 97.1747C3368.69 98.0057 3370.76 99.2983 3372.55 101.053C3374.36 102.807 3375.78 105.041 3376.82 107.756C3377.85 110.452 3378.37 113.665 3378.37 117.395V120.469H3343.49V113.711H3368.75C3368.74 111.79 3368.32 110.082 3367.51 108.587C3366.7 107.072 3365.56 105.881 3364.1 105.013C3362.66 104.146 3360.98 103.712 3359.06 103.712C3357.01 103.712 3355.21 104.21 3353.66 105.207C3352.11 106.186 3350.9 107.479 3350.03 109.085C3349.18 110.673 3348.75 112.418 3348.73 114.32V120.22C3348.73 122.695 3349.18 124.818 3350.09 126.591C3350.99 128.345 3352.26 129.693 3353.88 130.635C3355.51 131.558 3357.41 132.02 3359.59 132.02C3361.05 132.02 3362.37 131.817 3363.55 131.411C3364.73 130.986 3365.75 130.367 3366.62 129.555C3367.49 128.742 3368.15 127.736 3368.59 126.536L3377.95 127.588C3377.36 130.062 3376.23 132.223 3374.57 134.07C3372.93 135.898 3370.82 137.32 3368.26 138.335C3365.69 139.332 3362.75 139.831 3359.45 139.831Z" fill="#02C6B0"/>
<path d="M3075.5 238.256C3073.84 238.256 3072.32 237.851 3070.95 237.04C3069.58 236.217 3068.48 235.118 3067.65 233.745C3066.84 232.372 3066.44 230.855 3066.44 229.193C3066.44 227.518 3066.84 226.001 3067.65 224.641C3068.48 223.268 3069.58 222.177 3070.95 221.366C3072.32 220.543 3073.84 220.131 3075.5 220.131C3077.18 220.131 3078.69 220.543 3080.05 221.366C3081.42 222.177 3082.52 223.268 3083.33 224.641C3084.15 226.001 3084.56 227.518 3084.56 229.193C3084.56 230.855 3084.15 232.372 3083.33 233.745C3082.52 235.118 3081.42 236.217 3080.05 237.04C3078.69 237.851 3077.18 238.256 3075.5 238.256ZM3159.7 224.909C3159.7 229.358 3158.9 233.203 3157.29 236.443C3155.68 239.684 3153.48 242.183 3150.68 243.94C3147.88 245.698 3144.68 246.577 3141.08 246.577C3137.48 246.577 3134.28 245.698 3131.48 243.94C3128.68 242.183 3126.48 239.684 3124.87 236.443C3123.26 233.203 3122.46 229.358 3122.46 224.909C3122.46 220.46 3123.26 216.616 3124.87 213.375C3126.48 210.134 3128.68 207.635 3131.48 205.878C3134.28 204.12 3137.48 203.241 3141.08 203.241C3144.68 203.241 3147.88 204.12 3150.68 205.878C3153.48 207.635 3155.68 210.134 3157.29 213.375C3158.9 216.616 3159.7 220.46 3159.7 224.909ZM3154.76 224.909C3154.76 221.257 3154.14 218.174 3152.92 215.661C3151.71 213.148 3150.07 211.247 3148 209.956C3145.94 208.665 3143.63 208.02 3141.08 208.02C3138.53 208.02 3136.21 208.665 3134.14 209.956C3132.08 211.247 3130.44 213.148 3129.22 215.661C3128.01 218.174 3127.4 221.257 3127.4 224.909C3127.4 228.562 3128.01 231.644 3129.22 234.157C3130.44 236.67 3132.08 238.571 3134.14 239.862C3136.21 241.153 3138.53 241.798 3141.08 241.798C3143.63 241.798 3145.94 241.153 3148 239.862C3150.07 238.571 3151.71 236.67 3152.92 234.157C3154.14 231.644 3154.76 228.562 3154.76 224.909ZM3167.63 257.864V214.364H3172.32V219.389H3172.9C3173.26 218.84 3173.75 218.14 3174.38 217.288C3175.03 216.423 3175.95 215.654 3177.14 214.982C3178.35 214.295 3179.99 213.952 3182.05 213.952C3184.71 213.952 3187.06 214.618 3189.09 215.95C3191.12 217.281 3192.71 219.17 3193.85 221.614C3194.99 224.058 3195.56 226.941 3195.56 230.264C3195.56 233.615 3194.99 236.519 3193.85 238.977C3192.71 241.421 3191.13 243.316 3189.11 244.661C3187.09 245.993 3184.76 246.659 3182.13 246.659C3180.1 246.659 3178.47 246.323 3177.25 245.65C3176.03 244.963 3175.08 244.187 3174.43 243.322C3173.77 242.444 3173.26 241.716 3172.9 241.139H3172.49V257.864H3167.63ZM3172.41 230.182C3172.41 232.571 3172.76 234.679 3173.46 236.505C3174.16 238.317 3175.18 239.739 3176.53 240.768C3177.87 241.785 3179.52 242.293 3181.47 242.293C3183.5 242.293 3185.2 241.757 3186.56 240.686C3187.93 239.601 3188.96 238.146 3189.65 236.32C3190.35 234.48 3190.7 232.434 3190.7 230.182C3190.7 227.957 3190.35 225.953 3189.67 224.168C3188.99 222.369 3187.97 220.948 3186.6 219.904C3185.24 218.847 3183.53 218.318 3181.47 218.318C3179.49 218.318 3177.83 218.819 3176.49 219.822C3175.14 220.81 3174.12 222.197 3173.44 223.982C3172.75 225.754 3172.41 227.82 3172.41 230.182ZM3216.73 214.364V218.483H3200.34V214.364H3216.73ZM3205.11 206.784H3209.98V236.938C3209.98 238.311 3210.17 239.34 3210.57 240.027C3210.98 240.7 3211.51 241.153 3212.14 241.386C3212.78 241.606 3213.46 241.716 3214.18 241.716C3214.71 241.716 3215.15 241.688 3215.5 241.634C3215.84 241.565 3216.11 241.51 3216.32 241.469L3217.31 245.835C3216.98 245.959 3216.52 246.082 3215.93 246.206C3215.34 246.343 3214.59 246.412 3213.68 246.412C3212.31 246.412 3210.96 246.117 3209.65 245.526C3208.34 244.936 3207.26 244.036 3206.39 242.828C3205.54 241.62 3205.11 240.096 3205.11 238.256V206.784ZM3224.04 246V214.364H3228.9V246H3224.04ZM3226.51 209.091C3225.57 209.091 3224.75 208.768 3224.06 208.123C3223.39 207.478 3223.05 206.702 3223.05 205.795C3223.05 204.889 3223.39 204.113 3224.06 203.468C3224.75 202.823 3225.57 202.5 3226.51 202.5C3227.46 202.5 3228.27 202.823 3228.94 203.468C3229.63 204.113 3229.97 204.889 3229.97 205.795C3229.97 206.702 3229.63 207.478 3228.94 208.123C3228.27 208.768 3227.46 209.091 3226.51 209.091ZM3250.66 246.659C3247.8 246.659 3245.3 245.979 3243.14 244.62C3241 243.261 3239.32 241.359 3238.12 238.915C3236.92 236.471 3236.32 233.615 3236.32 230.347C3236.32 227.051 3236.92 224.174 3238.12 221.717C3239.32 219.259 3241 217.35 3243.14 215.991C3245.3 214.631 3247.8 213.952 3250.66 213.952C3253.51 213.952 3256.01 214.631 3258.16 215.991C3260.31 217.35 3261.99 219.259 3263.18 221.717C3264.39 224.174 3264.99 227.051 3264.99 230.347C3264.99 233.615 3264.39 236.471 3263.18 238.915C3261.99 241.359 3260.31 243.261 3258.16 244.62C3256.01 245.979 3253.51 246.659 3250.66 246.659ZM3250.66 242.293C3252.83 242.293 3254.61 241.737 3256.01 240.624C3257.41 239.512 3258.45 238.05 3259.12 236.237C3259.8 234.425 3260.13 232.461 3260.13 230.347C3260.13 228.232 3259.8 226.262 3259.12 224.435C3258.45 222.609 3257.41 221.133 3256.01 220.007C3254.61 218.881 3252.83 218.318 3250.66 218.318C3248.49 218.318 3246.7 218.881 3245.3 220.007C3243.9 221.133 3242.87 222.609 3242.19 224.435C3241.52 226.262 3241.18 228.232 3241.18 230.347C3241.18 232.461 3241.52 234.425 3242.19 236.237C3242.87 238.05 3243.9 239.512 3245.3 240.624C3246.7 241.737 3248.49 242.293 3250.66 242.293ZM3277.27 226.969V246H3272.41V214.364H3277.11V219.307H3277.52C3278.26 217.7 3279.39 216.41 3280.9 215.435C3282.41 214.446 3284.36 213.952 3286.75 213.952C3288.89 213.952 3290.77 214.391 3292.37 215.27C3293.98 216.135 3295.23 217.453 3296.12 219.224C3297.01 220.982 3297.46 223.206 3297.46 225.898V246H3292.6V226.227C3292.6 223.742 3291.95 221.806 3290.66 220.419C3289.37 219.018 3287.6 218.318 3285.35 218.318C3283.8 218.318 3282.41 218.655 3281.19 219.327C3279.98 220 3279.03 220.982 3278.32 222.273C3277.62 223.563 3277.27 225.129 3277.27 226.969ZM3337.4 203.818V246H3332.29V209.173H3332.05L3321.75 216.011V210.821L3332.29 203.818H3337.4Z" fill="#02C6B0"/>
<path d="M3075.5 352.256C3073.84 352.256 3072.32 351.851 3070.95 351.04C3069.58 350.217 3068.48 349.118 3067.65 347.745C3066.84 346.372 3066.44 344.855 3066.44 343.193C3066.44 341.518 3066.84 340.001 3067.65 338.641C3068.48 337.268 3069.58 336.177 3070.95 335.366C3072.32 334.543 3073.84 334.131 3075.5 334.131C3077.18 334.131 3078.69 334.543 3080.05 335.366C3081.42 336.177 3082.52 337.268 3083.33 338.641C3084.15 340.001 3084.56 341.518 3084.56 343.193C3084.56 344.855 3084.15 346.372 3083.33 347.745C3082.52 349.118 3081.42 350.217 3080.05 351.04C3078.69 351.851 3077.18 352.256 3075.5 352.256ZM3159.7 338.909C3159.7 343.358 3158.9 347.203 3157.29 350.443C3155.68 353.684 3153.48 356.183 3150.68 357.94C3147.88 359.698 3144.68 360.577 3141.08 360.577C3137.48 360.577 3134.28 359.698 3131.48 357.94C3128.68 356.183 3126.48 353.684 3124.87 350.443C3123.26 347.203 3122.46 343.358 3122.46 338.909C3122.46 334.46 3123.26 330.616 3124.87 327.375C3126.48 324.134 3128.68 321.635 3131.48 319.878C3134.28 318.12 3137.48 317.241 3141.08 317.241C3144.68 317.241 3147.88 318.12 3150.68 319.878C3153.48 321.635 3155.68 324.134 3157.29 327.375C3158.9 330.616 3159.7 334.46 3159.7 338.909ZM3154.76 338.909C3154.76 335.257 3154.14 332.174 3152.92 329.661C3151.71 327.148 3150.07 325.247 3148 323.956C3145.94 322.665 3143.63 322.02 3141.08 322.02C3138.53 322.02 3136.21 322.665 3134.14 323.956C3132.08 325.247 3130.44 327.148 3129.22 329.661C3128.01 332.174 3127.4 335.257 3127.4 338.909C3127.4 342.562 3128.01 345.644 3129.22 348.157C3130.44 350.67 3132.08 352.571 3134.14 353.862C3136.21 355.153 3138.53 355.798 3141.08 355.798C3143.63 355.798 3145.94 355.153 3148 353.862C3150.07 352.571 3151.71 350.67 3152.92 348.157C3154.14 345.644 3154.76 342.562 3154.76 338.909ZM3167.63 371.864V328.364H3172.32V333.389H3172.9C3173.26 332.84 3173.75 332.14 3174.38 331.288C3175.03 330.423 3175.95 329.654 3177.14 328.982C3178.35 328.295 3179.99 327.952 3182.05 327.952C3184.71 327.952 3187.06 328.618 3189.09 329.95C3191.12 331.281 3192.71 333.17 3193.85 335.614C3194.99 338.058 3195.56 340.941 3195.56 344.264C3195.56 347.615 3194.99 350.519 3193.85 352.977C3192.71 355.421 3191.13 357.316 3189.11 358.661C3187.09 359.993 3184.76 360.659 3182.13 360.659C3180.1 360.659 3178.47 360.323 3177.25 359.65C3176.03 358.963 3175.08 358.187 3174.43 357.322C3173.77 356.444 3173.26 355.716 3172.9 355.139H3172.49V371.864H3167.63ZM3172.41 344.182C3172.41 346.571 3172.76 348.679 3173.46 350.505C3174.16 352.317 3175.18 353.739 3176.53 354.768C3177.87 355.785 3179.52 356.293 3181.47 356.293C3183.5 356.293 3185.2 355.757 3186.56 354.686C3187.93 353.601 3188.96 352.146 3189.65 350.32C3190.35 348.48 3190.7 346.434 3190.7 344.182C3190.7 341.957 3190.35 339.953 3189.67 338.168C3188.99 336.369 3187.97 334.948 3186.6 333.904C3185.24 332.847 3183.53 332.318 3181.47 332.318C3179.49 332.318 3177.83 332.819 3176.49 333.822C3175.14 334.81 3174.12 336.197 3173.44 337.982C3172.75 339.754 3172.41 341.82 3172.41 344.182ZM3216.73 328.364V332.483H3200.34V328.364H3216.73ZM3205.11 320.784H3209.98V350.938C3209.98 352.311 3210.17 353.34 3210.57 354.027C3210.98 354.7 3211.51 355.153 3212.14 355.386C3212.78 355.606 3213.46 355.716 3214.18 355.716C3214.71 355.716 3215.15 355.688 3215.5 355.634C3215.84 355.565 3216.11 355.51 3216.32 355.469L3217.31 359.835C3216.98 359.959 3216.52 360.082 3215.93 360.206C3215.34 360.343 3214.59 360.412 3213.68 360.412C3212.31 360.412 3210.96 360.117 3209.65 359.526C3208.34 358.936 3207.26 358.036 3206.39 356.828C3205.54 355.62 3205.11 354.096 3205.11 352.256V320.784ZM3224.04 360V328.364H3228.9V360H3224.04ZM3226.51 323.091C3225.57 323.091 3224.75 322.768 3224.06 322.123C3223.39 321.478 3223.05 320.702 3223.05 319.795C3223.05 318.889 3223.39 318.113 3224.06 317.468C3224.75 316.823 3225.57 316.5 3226.51 316.5C3227.46 316.5 3228.27 316.823 3228.94 317.468C3229.63 318.113 3229.97 318.889 3229.97 319.795C3229.97 320.702 3229.63 321.478 3228.94 322.123C3228.27 322.768 3227.46 323.091 3226.51 323.091ZM3250.66 360.659C3247.8 360.659 3245.3 359.979 3243.14 358.62C3241 357.261 3239.32 355.359 3238.12 352.915C3236.92 350.471 3236.32 347.615 3236.32 344.347C3236.32 341.051 3236.92 338.174 3238.12 335.717C3239.32 333.259 3241 331.35 3243.14 329.991C3245.3 328.631 3247.8 327.952 3250.66 327.952C3253.51 327.952 3256.01 328.631 3258.16 329.991C3260.31 331.35 3261.99 333.259 3263.18 335.717C3264.39 338.174 3264.99 341.051 3264.99 344.347C3264.99 347.615 3264.39 350.471 3263.18 352.915C3261.99 355.359 3260.31 357.261 3258.16 358.62C3256.01 359.979 3253.51 360.659 3250.66 360.659ZM3250.66 356.293C3252.83 356.293 3254.61 355.737 3256.01 354.624C3257.41 353.512 3258.45 352.05 3259.12 350.237C3259.8 348.425 3260.13 346.461 3260.13 344.347C3260.13 342.232 3259.8 340.262 3259.12 338.435C3258.45 336.609 3257.41 335.133 3256.01 334.007C3254.61 332.881 3252.83 332.318 3250.66 332.318C3248.49 332.318 3246.7 332.881 3245.3 334.007C3243.9 335.133 3242.87 336.609 3242.19 338.435C3241.52 340.262 3241.18 342.232 3241.18 344.347C3241.18 346.461 3241.52 348.425 3242.19 350.237C3242.87 352.05 3243.9 353.512 3245.3 354.624C3246.7 355.737 3248.49 356.293 3250.66 356.293ZM3277.27 340.969V360H3272.41V328.364H3277.11V333.307H3277.52C3278.26 331.7 3279.39 330.41 3280.9 329.435C3282.41 328.446 3284.36 327.952 3286.75 327.952C3288.89 327.952 3290.77 328.391 3292.37 329.27C3293.98 330.135 3295.23 331.453 3296.12 333.224C3297.01 334.982 3297.46 337.206 3297.46 339.898V360H3292.6V340.227C3292.6 337.742 3291.95 335.806 3290.66 334.419C3289.37 333.018 3287.6 332.318 3285.35 332.318C3283.8 332.318 3282.41 332.655 3281.19 333.327C3279.98 334 3279.03 334.982 3278.32 336.273C3277.62 337.563 3277.27 339.129 3277.27 340.969ZM3322.57 360V356.293L3336.49 341.051C3338.13 339.266 3339.47 337.714 3340.53 336.396C3341.59 335.064 3342.37 333.815 3342.88 332.648C3343.4 331.467 3343.66 330.231 3343.66 328.94C3343.66 327.457 3343.31 326.174 3342.59 325.089C3341.89 324.004 3340.93 323.166 3339.71 322.576C3338.49 321.986 3337.11 321.69 3335.59 321.69C3333.97 321.69 3332.55 322.027 3331.35 322.7C3330.15 323.359 3329.22 324.286 3328.57 325.48C3327.92 326.675 3327.6 328.075 3327.6 329.682H3322.74C3322.74 327.21 3323.31 325.041 3324.45 323.173C3325.59 321.306 3327.14 319.85 3329.1 318.807C3331.08 317.763 3333.3 317.241 3335.75 317.241C3338.22 317.241 3340.42 317.763 3342.32 318.807C3344.23 319.85 3345.73 321.258 3346.81 323.029C3347.9 324.8 3348.44 326.771 3348.44 328.94C3348.44 330.492 3348.16 332.009 3347.6 333.492C3347.05 334.961 3346.09 336.602 3344.71 338.415C3343.35 340.214 3341.47 342.411 3339.05 345.006L3329.57 355.139V355.469H3349.18V360H3322.57Z" fill="#02C6B0"/>
<path d="M3075.5 466.256C3073.84 466.256 3072.32 465.851 3070.95 465.04C3069.58 464.217 3068.48 463.118 3067.65 461.745C3066.84 460.372 3066.44 458.855 3066.44 457.193C3066.44 455.518 3066.84 454.001 3067.65 452.641C3068.48 451.268 3069.58 450.177 3070.95 449.366C3072.32 448.543 3073.84 448.131 3075.5 448.131C3077.18 448.131 3078.69 448.543 3080.05 449.366C3081.42 450.177 3082.52 451.268 3083.33 452.641C3084.15 454.001 3084.56 455.518 3084.56 457.193C3084.56 458.855 3084.15 460.372 3083.33 461.745C3082.52 463.118 3081.42 464.217 3080.05 465.04C3078.69 465.851 3077.18 466.256 3075.5 466.256ZM3159.7 452.909C3159.7 457.358 3158.9 461.203 3157.29 464.443C3155.68 467.684 3153.48 470.183 3150.68 471.94C3147.88 473.698 3144.68 474.577 3141.08 474.577C3137.48 474.577 3134.28 473.698 3131.48 471.94C3128.68 470.183 3126.48 467.684 3124.87 464.443C3123.26 461.203 3122.46 457.358 3122.46 452.909C3122.46 448.46 3123.26 444.616 3124.87 441.375C3126.48 438.134 3128.68 435.635 3131.48 433.878C3134.28 432.12 3137.48 431.241 3141.08 431.241C3144.68 431.241 3147.88 432.12 3150.68 433.878C3153.48 435.635 3155.68 438.134 3157.29 441.375C3158.9 444.616 3159.7 448.46 3159.7 452.909ZM3154.76 452.909C3154.76 449.257 3154.14 446.174 3152.92 443.661C3151.71 441.148 3150.07 439.247 3148 437.956C3145.94 436.665 3143.63 436.02 3141.08 436.02C3138.53 436.02 3136.21 436.665 3134.14 437.956C3132.08 439.247 3130.44 441.148 3129.22 443.661C3128.01 446.174 3127.4 449.257 3127.4 452.909C3127.4 456.562 3128.01 459.644 3129.22 462.157C3130.44 464.67 3132.08 466.571 3134.14 467.862C3136.21 469.153 3138.53 469.798 3141.08 469.798C3143.63 469.798 3145.94 469.153 3148 467.862C3150.07 466.571 3151.71 464.67 3152.92 462.157C3154.14 459.644 3154.76 456.562 3154.76 452.909ZM3167.63 485.864V442.364H3172.32V447.389H3172.9C3173.26 446.84 3173.75 446.14 3174.38 445.288C3175.03 444.423 3175.95 443.654 3177.14 442.982C3178.35 442.295 3179.99 441.952 3182.05 441.952C3184.71 441.952 3187.06 442.618 3189.09 443.95C3191.12 445.281 3192.71 447.17 3193.85 449.614C3194.99 452.058 3195.56 454.941 3195.56 458.264C3195.56 461.615 3194.99 464.519 3193.85 466.977C3192.71 469.421 3191.13 471.316 3189.11 472.661C3187.09 473.993 3184.76 474.659 3182.13 474.659C3180.1 474.659 3178.47 474.323 3177.25 473.65C3176.03 472.963 3175.08 472.187 3174.43 471.322C3173.77 470.444 3173.26 469.716 3172.9 469.139H3172.49V485.864H3167.63ZM3172.41 458.182C3172.41 460.571 3172.76 462.679 3173.46 464.505C3174.16 466.317 3175.18 467.739 3176.53 468.768C3177.87 469.785 3179.52 470.293 3181.47 470.293C3183.5 470.293 3185.2 469.757 3186.56 468.686C3187.93 467.601 3188.96 466.146 3189.65 464.32C3190.35 462.48 3190.7 460.434 3190.7 458.182C3190.7 455.957 3190.35 453.953 3189.67 452.168C3188.99 450.369 3187.97 448.948 3186.6 447.904C3185.24 446.847 3183.53 446.318 3181.47 446.318C3179.49 446.318 3177.83 446.819 3176.49 447.822C3175.14 448.81 3174.12 450.197 3173.44 451.982C3172.75 453.754 3172.41 455.82 3172.41 458.182ZM3216.73 442.364V446.483H3200.34V442.364H3216.73ZM3205.11 434.784H3209.98V464.938C3209.98 466.311 3210.17 467.34 3210.57 468.027C3210.98 468.7 3211.51 469.153 3212.14 469.386C3212.78 469.606 3213.46 469.716 3214.18 469.716C3214.71 469.716 3215.15 469.688 3215.5 469.634C3215.84 469.565 3216.11 469.51 3216.32 469.469L3217.31 473.835C3216.98 473.959 3216.52 474.082 3215.93 474.206C3215.34 474.343 3214.59 474.412 3213.68 474.412C3212.31 474.412 3210.96 474.117 3209.65 473.526C3208.34 472.936 3207.26 472.036 3206.39 470.828C3205.54 469.62 3205.11 468.096 3205.11 466.256V434.784ZM3224.04 474V442.364H3228.9V474H3224.04ZM3226.51 437.091C3225.57 437.091 3224.75 436.768 3224.06 436.123C3223.39 435.478 3223.05 434.702 3223.05 433.795C3223.05 432.889 3223.39 432.113 3224.06 431.468C3224.75 430.823 3225.57 430.5 3226.51 430.5C3227.46 430.5 3228.27 430.823 3228.94 431.468C3229.63 432.113 3229.97 432.889 3229.97 433.795C3229.97 434.702 3229.63 435.478 3228.94 436.123C3228.27 436.768 3227.46 437.091 3226.51 437.091ZM3250.66 474.659C3247.8 474.659 3245.3 473.979 3243.14 472.62C3241 471.261 3239.32 469.359 3238.12 466.915C3236.92 464.471 3236.32 461.615 3236.32 458.347C3236.32 455.051 3236.92 452.174 3238.12 449.717C3239.32 447.259 3241 445.35 3243.14 443.991C3245.3 442.631 3247.8 441.952 3250.66 441.952C3253.51 441.952 3256.01 442.631 3258.16 443.991C3260.31 445.35 3261.99 447.259 3263.18 449.717C3264.39 452.174 3264.99 455.051 3264.99 458.347C3264.99 461.615 3264.39 464.471 3263.18 466.915C3261.99 469.359 3260.31 471.261 3258.16 472.62C3256.01 473.979 3253.51 474.659 3250.66 474.659ZM3250.66 470.293C3252.83 470.293 3254.61 469.737 3256.01 468.624C3257.41 467.512 3258.45 466.05 3259.12 464.237C3259.8 462.425 3260.13 460.461 3260.13 458.347C3260.13 456.232 3259.8 454.262 3259.12 452.435C3258.45 450.609 3257.41 449.133 3256.01 448.007C3254.61 446.881 3252.83 446.318 3250.66 446.318C3248.49 446.318 3246.7 446.881 3245.3 448.007C3243.9 449.133 3242.87 450.609 3242.19 452.435C3241.52 454.262 3241.18 456.232 3241.18 458.347C3241.18 460.461 3241.52 462.425 3242.19 464.237C3242.87 466.05 3243.9 467.512 3245.3 468.624C3246.7 469.737 3248.49 470.293 3250.66 470.293ZM3277.27 454.969V474H3272.41V442.364H3277.11V447.307H3277.52C3278.26 445.7 3279.39 444.41 3280.9 443.435C3282.41 442.446 3284.36 441.952 3286.75 441.952C3288.89 441.952 3290.77 442.391 3292.37 443.27C3293.98 444.135 3295.23 445.453 3296.12 447.224C3297.01 448.982 3297.46 451.206 3297.46 453.898V474H3292.6V454.227C3292.6 451.742 3291.95 449.806 3290.66 448.419C3289.37 447.018 3287.6 446.318 3285.35 446.318C3283.8 446.318 3282.41 446.655 3281.19 447.327C3279.98 448 3279.03 448.982 3278.32 450.273C3277.62 451.563 3277.27 453.129 3277.27 454.969ZM3336.82 474.577C3334.11 474.577 3331.68 474.11 3329.55 473.176C3327.44 472.242 3325.76 470.945 3324.51 469.283C3323.27 467.608 3322.6 465.665 3322.49 463.455H3327.68C3327.79 464.814 3328.26 465.988 3329.08 466.977C3329.9 467.951 3330.98 468.707 3332.31 469.242C3333.65 469.778 3335.12 470.045 3336.74 470.045C3338.55 470.045 3340.16 469.73 3341.56 469.098C3342.96 468.466 3344.06 467.588 3344.86 466.462C3345.65 465.336 3346.05 464.031 3346.05 462.548C3346.05 460.997 3345.67 459.63 3344.9 458.45C3344.13 457.255 3343 456.321 3341.52 455.648C3340.04 454.976 3338.22 454.639 3336.08 454.639H3332.71V450.108H3336.08C3337.76 450.108 3339.23 449.806 3340.49 449.202C3341.77 448.598 3342.76 447.746 3343.48 446.648C3344.2 445.549 3344.57 444.259 3344.57 442.776C3344.57 441.348 3344.25 440.105 3343.62 439.048C3342.99 437.99 3342.1 437.166 3340.94 436.576C3339.8 435.986 3338.46 435.69 3336.91 435.69C3335.45 435.69 3334.08 435.958 3332.79 436.494C3331.51 437.015 3330.47 437.777 3329.66 438.78C3328.85 439.768 3328.41 440.963 3328.34 442.364H3323.4C3323.48 440.153 3324.14 438.217 3325.39 436.555C3326.64 434.88 3328.28 433.576 3330.3 432.642C3332.33 431.708 3334.56 431.241 3336.99 431.241C3339.6 431.241 3341.84 431.77 3343.7 432.827C3345.57 433.871 3347.01 435.251 3348.01 436.967C3349.01 438.684 3349.51 440.537 3349.51 442.528C3349.51 444.904 3348.89 446.929 3347.64 448.604C3346.4 450.28 3344.72 451.44 3342.59 452.085V452.415C3345.26 452.854 3347.34 453.987 3348.83 455.813C3350.33 457.626 3351.08 459.871 3351.08 462.548C3351.08 464.841 3350.45 466.901 3349.2 468.727C3347.97 470.54 3346.28 471.968 3344.14 473.011C3341.99 474.055 3339.56 474.577 3336.82 474.577Z" fill="#02C6B0"/>
</svg>
