<svg width="1277" height="230" viewBox="0 0 1277 230" fill="none" xmlns="http://www.w3.org/2000/svg">
<mask id="path-1-inside-1_3110_11729" fill="white">
<path d="M112.912 209.911C112.69 210.993 111.633 211.692 110.555 211.45C86.3146 205.995 64.7862 192.072 49.8636 172.151C34.5409 151.697 27.2456 126.335 29.3573 100.865C31.4691 75.3951 42.8417 51.5819 61.3239 33.9297C79.3235 16.7386 102.851 6.55186 127.659 5.16337C128.761 5.10165 129.69 5.96552 129.73 7.06934L133.491 109.26C133.497 109.419 133.484 109.579 133.452 109.735L112.912 209.911Z"/>
</mask>
<path d="M112.912 209.911C112.69 210.993 111.633 211.692 110.555 211.45C86.3146 205.995 64.7862 192.072 49.8636 172.151C34.5409 151.697 27.2456 126.335 29.3573 100.865C31.4691 75.3951 42.8417 51.5819 61.3239 33.9297C79.3235 16.7386 102.851 6.55186 127.659 5.16337C128.761 5.10165 129.69 5.96552 129.73 7.06934L133.491 109.26C133.497 109.419 133.484 109.579 133.452 109.735L112.912 209.911Z" fill="#FFE6B0" stroke="#505050" stroke-width="7" mask="url(#path-1-inside-1_3110_11729)"/>
<rect x="352" y="101.5" width="20" height="12" rx="6" fill="#FFE6B0"/>
<path d="M390.261 113H388.398L392.585 101.364H394.614L398.801 113H396.938L393.648 103.477H393.557L390.261 113ZM390.574 108.443H396.619V109.92H390.574V108.443ZM403.881 113.176C403.036 113.176 402.309 112.985 401.699 112.602C401.093 112.216 400.627 111.684 400.301 111.006C399.975 110.328 399.812 109.551 399.812 108.676C399.812 107.79 399.979 107.008 400.312 106.33C400.646 105.648 401.116 105.116 401.722 104.733C402.328 104.35 403.042 104.159 403.864 104.159C404.527 104.159 405.117 104.282 405.636 104.528C406.155 104.771 406.574 105.112 406.892 105.551C407.214 105.991 407.405 106.504 407.466 107.091H405.812C405.722 106.682 405.513 106.33 405.188 106.034C404.866 105.739 404.434 105.591 403.892 105.591C403.419 105.591 403.004 105.716 402.648 105.966C402.295 106.212 402.021 106.564 401.824 107.023C401.627 107.477 401.528 108.015 401.528 108.636C401.528 109.273 401.625 109.822 401.818 110.284C402.011 110.746 402.284 111.104 402.636 111.358C402.992 111.612 403.411 111.739 403.892 111.739C404.214 111.739 404.506 111.68 404.767 111.562C405.032 111.441 405.254 111.269 405.432 111.045C405.614 110.822 405.741 110.553 405.812 110.239H407.466C407.405 110.803 407.222 111.307 406.915 111.75C406.608 112.193 406.197 112.542 405.682 112.795C405.17 113.049 404.57 113.176 403.881 113.176ZM413.357 104.273V105.636H408.589V104.273H413.357ZM409.868 102.182H411.567V110.438C411.567 110.767 411.616 111.015 411.714 111.182C411.813 111.345 411.94 111.456 412.095 111.517C412.254 111.574 412.427 111.602 412.612 111.602C412.749 111.602 412.868 111.593 412.97 111.574C413.072 111.555 413.152 111.54 413.209 111.528L413.516 112.932C413.417 112.97 413.277 113.008 413.095 113.045C412.913 113.087 412.686 113.11 412.413 113.114C411.966 113.121 411.55 113.042 411.163 112.875C410.777 112.708 410.464 112.451 410.226 112.102C409.987 111.754 409.868 111.316 409.868 110.79V102.182ZM415.236 113V104.273H416.935V113H415.236ZM416.094 102.926C415.798 102.926 415.545 102.828 415.332 102.631C415.124 102.43 415.02 102.191 415.02 101.915C415.02 101.634 415.124 101.396 415.332 101.199C415.545 100.998 415.798 100.898 416.094 100.898C416.389 100.898 416.641 100.998 416.849 101.199C417.062 101.396 417.168 101.634 417.168 101.915C417.168 102.191 417.062 102.43 416.849 102.631C416.641 102.828 416.389 102.926 416.094 102.926ZM426.686 104.273L423.521 113H421.703L418.533 104.273H420.357L422.567 110.989H422.658L424.862 104.273H426.686ZM431.747 113.176C430.887 113.176 430.147 112.992 429.526 112.625C428.908 112.254 428.431 111.733 428.094 111.062C427.76 110.388 427.594 109.598 427.594 108.693C427.594 107.799 427.76 107.011 428.094 106.33C428.431 105.648 428.901 105.116 429.503 104.733C430.109 104.35 430.817 104.159 431.628 104.159C432.12 104.159 432.598 104.241 433.06 104.403C433.522 104.566 433.937 104.822 434.304 105.17C434.671 105.519 434.961 105.972 435.173 106.528C435.385 107.081 435.491 107.754 435.491 108.545V109.148H428.554V107.875H433.827C433.827 107.428 433.736 107.032 433.554 106.688C433.372 106.339 433.116 106.064 432.787 105.864C432.461 105.663 432.079 105.562 431.639 105.562C431.162 105.562 430.745 105.68 430.389 105.915C430.037 106.146 429.764 106.449 429.571 106.824C429.382 107.195 429.287 107.598 429.287 108.034V109.028C429.287 109.612 429.389 110.108 429.594 110.517C429.802 110.926 430.092 111.239 430.463 111.455C430.834 111.667 431.268 111.773 431.764 111.773C432.086 111.773 432.38 111.727 432.645 111.636C432.91 111.542 433.139 111.402 433.332 111.216C433.526 111.03 433.673 110.801 433.776 110.528L435.384 110.818C435.255 111.292 435.024 111.706 434.69 112.062C434.361 112.415 433.946 112.689 433.446 112.886C432.95 113.08 432.384 113.176 431.747 113.176ZM446.026 109.227H447.753L448.969 110.812L449.543 111.517L451.48 114.045H449.685L448.389 112.358L447.946 111.744L446.026 109.227ZM451.855 107.182C451.855 108.424 451.628 109.492 451.173 110.386C450.719 111.277 450.096 111.962 449.304 112.443C448.516 112.92 447.62 113.159 446.616 113.159C445.609 113.159 444.709 112.92 443.918 112.443C443.13 111.962 442.509 111.275 442.054 110.381C441.599 109.487 441.372 108.42 441.372 107.182C441.372 105.939 441.599 104.873 442.054 103.983C442.509 103.089 443.13 102.403 443.918 101.926C444.709 101.445 445.609 101.205 446.616 101.205C447.62 101.205 448.516 101.445 449.304 101.926C450.096 102.403 450.719 103.089 451.173 103.983C451.628 104.873 451.855 105.939 451.855 107.182ZM450.116 107.182C450.116 106.235 449.963 105.437 449.656 104.79C449.353 104.138 448.937 103.646 448.406 103.312C447.88 102.975 447.283 102.807 446.616 102.807C445.946 102.807 445.348 102.975 444.821 103.312C444.295 103.646 443.878 104.138 443.571 104.79C443.268 105.437 443.116 106.235 443.116 107.182C443.116 108.129 443.268 108.928 443.571 109.58C443.878 110.227 444.295 110.72 444.821 111.057C445.348 111.39 445.946 111.557 446.616 111.557C447.283 111.557 447.88 111.39 448.406 111.057C448.937 110.72 449.353 110.227 449.656 109.58C449.963 108.928 450.116 108.129 450.116 107.182ZM454.044 113V101.364H458.192C459.097 101.364 459.847 101.528 460.442 101.858C461.036 102.187 461.482 102.638 461.777 103.21C462.072 103.778 462.22 104.419 462.22 105.131C462.22 105.847 462.071 106.491 461.771 107.062C461.476 107.631 461.029 108.081 460.43 108.415C459.836 108.744 459.088 108.909 458.186 108.909H455.334V107.42H458.027C458.599 107.42 459.063 107.322 459.419 107.125C459.775 106.924 460.036 106.652 460.203 106.307C460.37 105.962 460.453 105.57 460.453 105.131C460.453 104.691 460.37 104.301 460.203 103.96C460.036 103.619 459.773 103.352 459.413 103.159C459.057 102.966 458.588 102.869 458.004 102.869H455.8V113H454.044ZM470.682 106.403L469.142 106.676C469.078 106.479 468.975 106.292 468.835 106.114C468.699 105.936 468.513 105.79 468.278 105.676C468.044 105.562 467.75 105.506 467.398 105.506C466.917 105.506 466.515 105.614 466.193 105.83C465.871 106.042 465.71 106.316 465.71 106.653C465.71 106.945 465.818 107.18 466.034 107.358C466.25 107.536 466.598 107.682 467.08 107.795L468.466 108.114C469.269 108.299 469.867 108.585 470.261 108.972C470.655 109.358 470.852 109.86 470.852 110.477C470.852 111 470.701 111.466 470.398 111.875C470.098 112.28 469.68 112.598 469.142 112.83C468.608 113.061 467.989 113.176 467.284 113.176C466.307 113.176 465.509 112.968 464.892 112.551C464.275 112.131 463.896 111.534 463.756 110.761L465.398 110.511C465.5 110.939 465.71 111.263 466.028 111.483C466.347 111.699 466.761 111.807 467.273 111.807C467.83 111.807 468.275 111.691 468.608 111.46C468.941 111.225 469.108 110.939 469.108 110.602C469.108 110.33 469.006 110.1 468.801 109.915C468.6 109.729 468.292 109.589 467.875 109.494L466.398 109.17C465.583 108.985 464.981 108.689 464.591 108.284C464.205 107.879 464.011 107.366 464.011 106.744C464.011 106.229 464.155 105.778 464.443 105.392C464.731 105.006 465.129 104.705 465.636 104.489C466.144 104.269 466.725 104.159 467.381 104.159C468.324 104.159 469.066 104.364 469.608 104.773C470.15 105.178 470.508 105.722 470.682 106.403ZM473.839 113.108C473.529 113.108 473.262 112.998 473.038 112.778C472.815 112.555 472.703 112.286 472.703 111.972C472.703 111.661 472.815 111.396 473.038 111.176C473.262 110.953 473.529 110.841 473.839 110.841C474.15 110.841 474.417 110.953 474.641 111.176C474.864 111.396 474.976 111.661 474.976 111.972C474.976 112.18 474.923 112.371 474.817 112.545C474.714 112.716 474.578 112.852 474.408 112.955C474.237 113.057 474.048 113.108 473.839 113.108ZM473.839 106.756C473.529 106.756 473.262 106.644 473.038 106.42C472.815 106.197 472.703 105.93 472.703 105.619C472.703 105.309 472.815 105.044 473.038 104.824C473.262 104.6 473.529 104.489 473.839 104.489C474.15 104.489 474.417 104.6 474.641 104.824C474.864 105.044 474.976 105.309 474.976 105.619C474.976 105.828 474.923 106.019 474.817 106.193C474.714 106.364 474.578 106.5 474.408 106.602C474.237 106.705 474.048 106.756 473.839 106.756ZM481.111 110.955V109.017L485.969 101.364H487.639V104.045H486.651L483.588 108.892V108.983H490.491V110.955H481.111ZM486.696 113V110.364L486.741 109.506V101.364H489.048V113H486.696ZM496.597 113.159C495.998 113.155 495.42 113.055 494.864 112.858C494.311 112.661 493.814 112.341 493.375 111.898C492.936 111.455 492.587 110.867 492.33 110.136C492.076 109.405 491.949 108.508 491.949 107.443C491.953 106.466 492.064 105.593 492.284 104.824C492.508 104.051 492.826 103.396 493.239 102.858C493.655 102.32 494.153 101.911 494.733 101.631C495.313 101.347 495.962 101.205 496.682 101.205C497.458 101.205 498.144 101.356 498.739 101.659C499.333 101.958 499.811 102.366 500.17 102.881C500.534 103.396 500.754 103.973 500.83 104.614H498.403C498.309 104.208 498.11 103.89 497.807 103.659C497.504 103.428 497.129 103.312 496.682 103.312C495.924 103.312 495.348 103.642 494.955 104.301C494.564 104.96 494.366 105.856 494.358 106.989H494.438C494.612 106.644 494.847 106.35 495.142 106.108C495.441 105.862 495.78 105.674 496.159 105.545C496.542 105.413 496.945 105.347 497.369 105.347C498.059 105.347 498.672 105.509 499.21 105.835C499.748 106.157 500.172 106.6 500.483 107.165C500.794 107.729 500.949 108.375 500.949 109.102C500.949 109.89 500.765 110.591 500.398 111.205C500.034 111.818 499.525 112.299 498.869 112.648C498.218 112.992 497.46 113.163 496.597 113.159ZM496.585 111.227C496.964 111.227 497.303 111.136 497.602 110.955C497.902 110.773 498.136 110.527 498.307 110.216C498.477 109.905 498.562 109.557 498.562 109.17C498.562 108.784 498.477 108.437 498.307 108.131C498.14 107.824 497.909 107.58 497.614 107.398C497.318 107.216 496.981 107.125 496.602 107.125C496.318 107.125 496.055 107.178 495.812 107.284C495.574 107.39 495.364 107.538 495.182 107.727C495.004 107.917 494.864 108.136 494.761 108.386C494.659 108.633 494.608 108.896 494.608 109.176C494.608 109.551 494.693 109.894 494.864 110.205C495.038 110.515 495.273 110.763 495.568 110.949C495.867 111.134 496.206 111.227 496.585 111.227ZM503.646 113.148C503.271 113.148 502.949 113.015 502.68 112.75C502.415 112.481 502.283 112.159 502.283 111.784C502.283 111.413 502.415 111.095 502.68 110.83C502.949 110.564 503.271 110.432 503.646 110.432C504.01 110.432 504.328 110.564 504.601 110.83C504.874 111.095 505.01 111.413 505.01 111.784C505.01 112.034 504.946 112.263 504.817 112.472C504.692 112.676 504.527 112.841 504.322 112.966C504.118 113.087 503.893 113.148 503.646 113.148ZM510.972 113.159C510.373 113.155 509.795 113.055 509.239 112.858C508.686 112.661 508.189 112.341 507.75 111.898C507.311 111.455 506.962 110.867 506.705 110.136C506.451 109.405 506.324 108.508 506.324 107.443C506.328 106.466 506.439 105.593 506.659 104.824C506.883 104.051 507.201 103.396 507.614 102.858C508.03 102.32 508.528 101.911 509.108 101.631C509.688 101.347 510.337 101.205 511.057 101.205C511.833 101.205 512.519 101.356 513.114 101.659C513.708 101.958 514.186 102.366 514.545 102.881C514.909 103.396 515.129 103.973 515.205 104.614H512.778C512.684 104.208 512.485 103.89 512.182 103.659C511.879 103.428 511.504 103.312 511.057 103.312C510.299 103.312 509.723 103.642 509.33 104.301C508.939 104.96 508.741 105.856 508.733 106.989H508.812C508.987 106.644 509.222 106.35 509.517 106.108C509.816 105.862 510.155 105.674 510.534 105.545C510.917 105.413 511.32 105.347 511.744 105.347C512.434 105.347 513.047 105.509 513.585 105.835C514.123 106.157 514.547 106.6 514.858 107.165C515.169 107.729 515.324 108.375 515.324 109.102C515.324 109.89 515.14 110.591 514.773 111.205C514.409 111.818 513.9 112.299 513.244 112.648C512.593 112.992 511.835 113.163 510.972 113.159ZM510.96 111.227C511.339 111.227 511.678 111.136 511.977 110.955C512.277 110.773 512.511 110.527 512.682 110.216C512.852 109.905 512.938 109.557 512.938 109.17C512.938 108.784 512.852 108.437 512.682 108.131C512.515 107.824 512.284 107.58 511.989 107.398C511.693 107.216 511.356 107.125 510.977 107.125C510.693 107.125 510.43 107.178 510.188 107.284C509.949 107.39 509.739 107.538 509.557 107.727C509.379 107.917 509.239 108.136 509.136 108.386C509.034 108.633 508.983 108.896 508.983 109.176C508.983 109.551 509.068 109.894 509.239 110.205C509.413 110.515 509.648 110.763 509.943 110.949C510.242 111.134 510.581 111.227 510.96 111.227ZM523.438 110.818V110.205C523.438 109.739 523.536 109.311 523.733 108.92C523.934 108.527 524.223 108.212 524.602 107.977C524.985 107.739 525.451 107.619 526 107.619C526.557 107.619 527.025 107.737 527.403 107.972C527.786 108.206 528.074 108.521 528.267 108.915C528.464 109.305 528.562 109.735 528.562 110.205V110.818C528.562 111.284 528.464 111.714 528.267 112.108C528.07 112.498 527.78 112.811 527.398 113.045C527.015 113.284 526.549 113.403 526 113.403C525.443 113.403 524.975 113.284 524.597 113.045C524.218 112.811 523.93 112.498 523.733 112.108C523.536 111.714 523.438 111.284 523.438 110.818ZM525.091 110.205V110.818C525.091 111.087 525.155 111.341 525.284 111.58C525.417 111.818 525.655 111.938 526 111.938C526.345 111.938 526.58 111.82 526.705 111.585C526.833 111.35 526.898 111.095 526.898 110.818V110.205C526.898 109.928 526.837 109.67 526.716 109.432C526.595 109.193 526.356 109.074 526 109.074C525.659 109.074 525.422 109.193 525.29 109.432C525.157 109.67 525.091 109.928 525.091 110.205ZM517.466 104.159V103.545C517.466 103.076 517.566 102.646 517.767 102.256C517.968 101.862 518.258 101.547 518.636 101.312C519.019 101.078 519.481 100.96 520.023 100.96C520.583 100.96 521.053 101.078 521.432 101.312C521.811 101.547 522.098 101.862 522.295 102.256C522.492 102.646 522.591 103.076 522.591 103.545V104.159C522.591 104.629 522.491 105.059 522.29 105.449C522.093 105.839 521.803 106.152 521.42 106.386C521.042 106.617 520.576 106.733 520.023 106.733C519.47 106.733 519.002 106.616 518.619 106.381C518.241 106.142 517.953 105.83 517.756 105.443C517.563 105.053 517.466 104.625 517.466 104.159ZM519.131 103.545V104.159C519.131 104.436 519.195 104.691 519.324 104.926C519.456 105.161 519.689 105.278 520.023 105.278C520.371 105.278 520.608 105.161 520.733 104.926C520.862 104.691 520.926 104.436 520.926 104.159V103.545C520.926 103.269 520.866 103.011 520.744 102.773C520.623 102.534 520.383 102.415 520.023 102.415C519.686 102.415 519.453 102.536 519.324 102.778C519.195 103.021 519.131 103.277 519.131 103.545ZM518.216 113L526.216 101.364H527.705L519.705 113H518.216Z" fill="#1B1B1B"/>
<rect x="352" y="126.5" width="20" height="12" rx="6" fill="#FAEED4"/>
<path d="M389.278 138V126.364H391.034V136.489H396.307V138H389.278ZM401.849 138.176C401.031 138.176 400.317 137.989 399.707 137.614C399.098 137.239 398.624 136.714 398.287 136.04C397.95 135.366 397.781 134.578 397.781 133.676C397.781 132.771 397.95 131.979 398.287 131.301C398.624 130.623 399.098 130.097 399.707 129.722C400.317 129.347 401.031 129.159 401.849 129.159C402.668 129.159 403.382 129.347 403.991 129.722C404.601 130.097 405.075 130.623 405.412 131.301C405.749 131.979 405.918 132.771 405.918 133.676C405.918 134.578 405.749 135.366 405.412 136.04C405.075 136.714 404.601 137.239 403.991 137.614C403.382 137.989 402.668 138.176 401.849 138.176ZM401.855 136.75C402.385 136.75 402.825 136.61 403.173 136.33C403.522 136.049 403.779 135.676 403.946 135.21C404.116 134.744 404.202 134.231 404.202 133.67C404.202 133.114 404.116 132.602 403.946 132.136C403.779 131.667 403.522 131.29 403.173 131.006C402.825 130.722 402.385 130.58 401.855 130.58C401.321 130.58 400.878 130.722 400.526 131.006C400.177 131.29 399.918 131.667 399.747 132.136C399.58 132.602 399.497 133.114 399.497 133.67C399.497 134.231 399.58 134.744 399.747 135.21C399.918 135.676 400.177 136.049 400.526 136.33C400.878 136.61 401.321 136.75 401.855 136.75ZM409.44 138L406.872 129.273H408.628L410.338 135.682H410.423L412.139 129.273H413.895L415.599 135.653H415.685L417.384 129.273H419.139L416.577 138H414.844L413.071 131.699H412.94L411.168 138H409.44ZM425.893 132.347V133.818H420.734V132.347H425.893ZM431.919 138.176C431.059 138.176 430.319 137.992 429.697 137.625C429.08 137.254 428.603 136.733 428.266 136.062C427.932 135.388 427.766 134.598 427.766 133.693C427.766 132.799 427.932 132.011 428.266 131.33C428.603 130.648 429.072 130.116 429.675 129.733C430.281 129.35 430.989 129.159 431.8 129.159C432.292 129.159 432.769 129.241 433.232 129.403C433.694 129.566 434.108 129.822 434.476 130.17C434.843 130.519 435.133 130.972 435.345 131.528C435.557 132.081 435.663 132.754 435.663 133.545V134.148H428.726V132.875H433.999C433.999 132.428 433.908 132.032 433.726 131.688C433.544 131.339 433.288 131.064 432.959 130.864C432.633 130.663 432.25 130.562 431.811 130.562C431.334 130.562 430.917 130.68 430.561 130.915C430.209 131.146 429.936 131.449 429.743 131.824C429.554 132.195 429.459 132.598 429.459 133.034V134.028C429.459 134.612 429.561 135.108 429.766 135.517C429.974 135.926 430.264 136.239 430.635 136.455C431.006 136.667 431.44 136.773 431.936 136.773C432.258 136.773 432.552 136.727 432.817 136.636C433.082 136.542 433.311 136.402 433.504 136.216C433.697 136.03 433.845 135.801 433.947 135.528L435.555 135.818C435.427 136.292 435.196 136.706 434.862 137.062C434.533 137.415 434.118 137.689 433.618 137.886C433.122 138.08 432.555 138.176 431.919 138.176ZM439.247 132.818V138H437.548V129.273H439.179V130.693H439.287C439.488 130.231 439.802 129.86 440.23 129.58C440.662 129.299 441.205 129.159 441.861 129.159C442.455 129.159 442.976 129.284 443.423 129.534C443.87 129.78 444.217 130.148 444.463 130.636C444.709 131.125 444.832 131.729 444.832 132.449V138H443.134V132.653C443.134 132.021 442.969 131.527 442.639 131.17C442.31 130.811 441.857 130.631 441.281 130.631C440.887 130.631 440.537 130.716 440.23 130.886C439.927 131.057 439.687 131.307 439.509 131.636C439.334 131.962 439.247 132.356 439.247 132.818ZM450.77 141.455C450.077 141.455 449.48 141.364 448.98 141.182C448.484 141 448.079 140.759 447.764 140.46C447.45 140.161 447.215 139.833 447.06 139.477L448.52 138.875C448.622 139.042 448.759 139.218 448.929 139.403C449.103 139.593 449.338 139.754 449.634 139.886C449.933 140.019 450.317 140.085 450.787 140.085C451.431 140.085 451.963 139.928 452.384 139.614C452.804 139.303 453.014 138.807 453.014 138.125V136.409H452.906C452.804 136.595 452.656 136.801 452.463 137.028C452.274 137.256 452.012 137.453 451.679 137.619C451.346 137.786 450.912 137.869 450.378 137.869C449.688 137.869 449.067 137.708 448.514 137.386C447.965 137.061 447.529 136.581 447.207 135.949C446.889 135.312 446.73 134.53 446.73 133.602C446.73 132.674 446.887 131.879 447.202 131.216C447.52 130.553 447.955 130.045 448.509 129.693C449.062 129.337 449.688 129.159 450.389 129.159C450.931 129.159 451.368 129.25 451.702 129.432C452.035 129.61 452.295 129.818 452.48 130.057C452.67 130.295 452.815 130.506 452.918 130.688H453.043V129.273H454.707V138.193C454.707 138.943 454.533 139.559 454.185 140.04C453.836 140.521 453.365 140.877 452.77 141.108C452.179 141.339 451.512 141.455 450.77 141.455ZM450.753 136.46C451.241 136.46 451.654 136.347 451.991 136.119C452.332 135.888 452.59 135.559 452.764 135.131C452.942 134.699 453.031 134.182 453.031 133.58C453.031 132.992 452.944 132.475 452.77 132.028C452.596 131.581 452.34 131.233 452.003 130.983C451.666 130.729 451.249 130.602 450.753 130.602C450.241 130.602 449.815 130.735 449.474 131C449.134 131.261 448.876 131.617 448.702 132.068C448.531 132.519 448.446 133.023 448.446 133.58C448.446 134.152 448.533 134.653 448.707 135.085C448.882 135.517 449.139 135.854 449.48 136.097C449.825 136.339 450.249 136.46 450.753 136.46ZM459.526 138.193C458.973 138.193 458.473 138.091 458.026 137.886C457.579 137.678 457.224 137.377 456.963 136.983C456.705 136.589 456.577 136.106 456.577 135.534C456.577 135.042 456.671 134.636 456.861 134.318C457.05 134 457.306 133.748 457.628 133.562C457.95 133.377 458.31 133.237 458.707 133.142C459.105 133.047 459.51 132.975 459.923 132.926C460.446 132.866 460.87 132.816 461.196 132.778C461.522 132.737 461.759 132.67 461.906 132.58C462.054 132.489 462.128 132.341 462.128 132.136V132.097C462.128 131.6 461.988 131.216 461.707 130.943C461.431 130.67 461.018 130.534 460.469 130.534C459.897 130.534 459.446 130.661 459.116 130.915C458.791 131.165 458.565 131.443 458.44 131.75L456.844 131.386C457.033 130.856 457.31 130.428 457.673 130.102C458.041 129.773 458.463 129.534 458.94 129.386C459.418 129.235 459.92 129.159 460.446 129.159C460.795 129.159 461.164 129.201 461.554 129.284C461.948 129.364 462.315 129.511 462.656 129.727C463.001 129.943 463.283 130.252 463.503 130.653C463.723 131.051 463.832 131.568 463.832 132.205V138H462.173V136.807H462.105C461.995 137.027 461.83 137.242 461.611 137.455C461.391 137.667 461.109 137.843 460.764 137.983C460.42 138.123 460.007 138.193 459.526 138.193ZM459.895 136.83C460.365 136.83 460.766 136.737 461.099 136.551C461.437 136.366 461.692 136.123 461.866 135.824C462.045 135.521 462.134 135.197 462.134 134.852V133.727C462.073 133.788 461.955 133.845 461.781 133.898C461.611 133.947 461.416 133.991 461.196 134.028C460.976 134.062 460.762 134.095 460.554 134.125C460.346 134.152 460.171 134.174 460.031 134.193C459.702 134.235 459.401 134.305 459.128 134.403C458.859 134.502 458.643 134.644 458.48 134.83C458.321 135.011 458.241 135.254 458.241 135.557C458.241 135.977 458.397 136.295 458.707 136.511C459.018 136.723 459.414 136.83 459.895 136.83ZM469.754 141.455C469.061 141.455 468.464 141.364 467.964 141.182C467.468 141 467.063 140.759 466.749 140.46C466.434 140.161 466.199 139.833 466.044 139.477L467.504 138.875C467.607 139.042 467.743 139.218 467.913 139.403C468.088 139.593 468.322 139.754 468.618 139.886C468.917 140.019 469.302 140.085 469.771 140.085C470.415 140.085 470.947 139.928 471.368 139.614C471.788 139.303 471.999 138.807 471.999 138.125V136.409H471.891C471.788 136.595 471.641 136.801 471.447 137.028C471.258 137.256 470.997 137.453 470.663 137.619C470.33 137.786 469.896 137.869 469.362 137.869C468.673 137.869 468.052 137.708 467.499 137.386C466.949 137.061 466.514 136.581 466.192 135.949C465.874 135.312 465.714 134.53 465.714 133.602C465.714 132.674 465.872 131.879 466.186 131.216C466.504 130.553 466.94 130.045 467.493 129.693C468.046 129.337 468.673 129.159 469.374 129.159C469.915 129.159 470.353 129.25 470.686 129.432C471.019 129.61 471.279 129.818 471.464 130.057C471.654 130.295 471.8 130.506 471.902 130.688H472.027V129.273H473.692V138.193C473.692 138.943 473.518 139.559 473.169 140.04C472.821 140.521 472.349 140.877 471.754 141.108C471.163 141.339 470.497 141.455 469.754 141.455ZM469.737 136.46C470.226 136.46 470.639 136.347 470.976 136.119C471.317 135.888 471.574 135.559 471.749 135.131C471.927 134.699 472.016 134.182 472.016 133.58C472.016 132.992 471.929 132.475 471.754 132.028C471.58 131.581 471.324 131.233 470.987 130.983C470.65 130.729 470.233 130.602 469.737 130.602C469.226 130.602 468.8 130.735 468.459 131C468.118 131.261 467.86 131.617 467.686 132.068C467.516 132.519 467.43 133.023 467.43 133.58C467.43 134.152 467.518 134.653 467.692 135.085C467.866 135.517 468.124 135.854 468.464 136.097C468.809 136.339 469.233 136.46 469.737 136.46ZM479.732 138.176C478.872 138.176 478.131 137.992 477.51 137.625C476.893 137.254 476.415 136.733 476.078 136.062C475.745 135.388 475.578 134.598 475.578 133.693C475.578 132.799 475.745 132.011 476.078 131.33C476.415 130.648 476.885 130.116 477.487 129.733C478.093 129.35 478.802 129.159 479.612 129.159C480.105 129.159 480.582 129.241 481.044 129.403C481.506 129.566 481.921 129.822 482.288 130.17C482.656 130.519 482.946 130.972 483.158 131.528C483.37 132.081 483.476 132.754 483.476 133.545V134.148H476.538V132.875H481.811C481.811 132.428 481.72 132.032 481.538 131.688C481.357 131.339 481.101 131.064 480.771 130.864C480.446 130.663 480.063 130.562 479.624 130.562C479.146 130.562 478.73 130.68 478.374 130.915C478.021 131.146 477.749 131.449 477.555 131.824C477.366 132.195 477.271 132.598 477.271 133.034V134.028C477.271 134.612 477.374 135.108 477.578 135.517C477.786 135.926 478.076 136.239 478.447 136.455C478.819 136.667 479.252 136.773 479.749 136.773C480.071 136.773 480.364 136.727 480.629 136.636C480.894 136.542 481.124 136.402 481.317 136.216C481.51 136.03 481.658 135.801 481.76 135.528L483.368 135.818C483.239 136.292 483.008 136.706 482.675 137.062C482.345 137.415 481.93 137.689 481.43 137.886C480.934 138.08 480.368 138.176 479.732 138.176ZM485.361 138V129.273H486.991V130.693H487.099C487.281 130.212 487.579 129.837 487.991 129.568C488.404 129.295 488.899 129.159 489.474 129.159C490.058 129.159 490.546 129.295 490.94 129.568C491.338 129.841 491.632 130.216 491.821 130.693H491.912C492.12 130.227 492.452 129.856 492.906 129.58C493.361 129.299 493.902 129.159 494.531 129.159C495.323 129.159 495.969 129.407 496.469 129.903C496.973 130.4 497.224 131.148 497.224 132.148V138H495.526V132.307C495.526 131.716 495.365 131.288 495.043 131.023C494.721 130.758 494.336 130.625 493.889 130.625C493.336 130.625 492.906 130.795 492.599 131.136C492.293 131.473 492.139 131.907 492.139 132.438V138H490.446V132.199C490.446 131.725 490.298 131.345 490.003 131.057C489.707 130.769 489.323 130.625 488.849 130.625C488.527 130.625 488.23 130.71 487.957 130.881C487.688 131.047 487.471 131.28 487.304 131.58C487.141 131.879 487.06 132.225 487.06 132.619V138H485.361ZM503.263 138.176C502.403 138.176 501.662 137.992 501.041 137.625C500.424 137.254 499.946 136.733 499.609 136.062C499.276 135.388 499.109 134.598 499.109 133.693C499.109 132.799 499.276 132.011 499.609 131.33C499.946 130.648 500.416 130.116 501.018 129.733C501.625 129.35 502.333 129.159 503.143 129.159C503.636 129.159 504.113 129.241 504.575 129.403C505.037 129.566 505.452 129.822 505.82 130.17C506.187 130.519 506.477 130.972 506.689 131.528C506.901 132.081 507.007 132.754 507.007 133.545V134.148H500.07V132.875H505.342C505.342 132.428 505.251 132.032 505.07 131.688C504.888 131.339 504.632 131.064 504.303 130.864C503.977 130.663 503.594 130.562 503.155 130.562C502.678 130.562 502.261 130.68 501.905 130.915C501.553 131.146 501.28 131.449 501.087 131.824C500.897 132.195 500.803 132.598 500.803 133.034V134.028C500.803 134.612 500.905 135.108 501.109 135.517C501.318 135.926 501.607 136.239 501.979 136.455C502.35 136.667 502.784 136.773 503.28 136.773C503.602 136.773 503.895 136.727 504.161 136.636C504.426 136.542 504.655 136.402 504.848 136.216C505.041 136.03 505.189 135.801 505.291 135.528L506.899 135.818C506.77 136.292 506.539 136.706 506.206 137.062C505.876 137.415 505.462 137.689 504.962 137.886C504.465 138.08 503.899 138.176 503.263 138.176ZM510.591 132.818V138H508.892V129.273H510.523V130.693H510.631C510.831 130.231 511.146 129.86 511.574 129.58C512.006 129.299 512.549 129.159 513.205 129.159C513.799 129.159 514.32 129.284 514.767 129.534C515.214 129.78 515.561 130.148 515.807 130.636C516.053 131.125 516.176 131.729 516.176 132.449V138H514.477V132.653C514.477 132.021 514.313 131.527 513.983 131.17C513.653 130.811 513.201 130.631 512.625 130.631C512.231 130.631 511.881 130.716 511.574 130.886C511.271 131.057 511.03 131.307 510.852 131.636C510.678 131.962 510.591 132.356 510.591 132.818ZM522.528 129.273V130.636H517.761V129.273H522.528ZM519.04 127.182H520.739V135.438C520.739 135.767 520.788 136.015 520.886 136.182C520.985 136.345 521.112 136.456 521.267 136.517C521.426 136.574 521.598 136.602 521.784 136.602C521.92 136.602 522.04 136.593 522.142 136.574C522.244 136.555 522.324 136.54 522.381 136.528L522.688 137.932C522.589 137.97 522.449 138.008 522.267 138.045C522.085 138.087 521.858 138.11 521.585 138.114C521.138 138.121 520.722 138.042 520.335 137.875C519.949 137.708 519.636 137.451 519.398 137.102C519.159 136.754 519.04 136.316 519.04 135.79V127.182ZM525.527 138.108C525.216 138.108 524.949 137.998 524.726 137.778C524.502 137.555 524.391 137.286 524.391 136.972C524.391 136.661 524.502 136.396 524.726 136.176C524.949 135.953 525.216 135.841 525.527 135.841C525.838 135.841 526.105 135.953 526.328 136.176C526.552 136.396 526.663 136.661 526.663 136.972C526.663 137.18 526.61 137.371 526.504 137.545C526.402 137.716 526.266 137.852 526.095 137.955C525.925 138.057 525.735 138.108 525.527 138.108ZM525.527 131.756C525.216 131.756 524.949 131.644 524.726 131.42C524.502 131.197 524.391 130.93 524.391 130.619C524.391 130.309 524.502 130.044 524.726 129.824C524.949 129.6 525.216 129.489 525.527 129.489C525.838 129.489 526.105 129.6 526.328 129.824C526.552 130.044 526.663 130.309 526.663 130.619C526.663 130.828 526.61 131.019 526.504 131.193C526.402 131.364 526.266 131.5 526.095 131.602C525.925 131.705 525.735 131.756 525.527 131.756ZM537.315 138.159C536.44 138.159 535.662 138.017 534.98 137.733C534.302 137.445 533.77 137.053 533.384 136.557C532.997 136.061 532.804 135.498 532.804 134.869C532.804 134.384 532.914 133.939 533.134 133.534C533.357 133.125 533.66 132.786 534.043 132.517C534.425 132.244 534.853 132.07 535.327 131.994V131.915C534.705 131.79 534.202 131.489 533.815 131.011C533.429 130.53 533.236 129.972 533.236 129.335C533.236 128.733 533.412 128.197 533.764 127.727C534.116 127.254 534.599 126.883 535.213 126.614C535.83 126.341 536.531 126.205 537.315 126.205C538.099 126.205 538.798 126.341 539.412 126.614C540.029 126.886 540.514 127.259 540.866 127.733C541.219 128.203 541.397 128.737 541.401 129.335C541.397 129.975 541.2 130.534 540.81 131.011C540.42 131.489 539.92 131.79 539.31 131.915V131.994C539.776 132.07 540.198 132.244 540.577 132.517C540.959 132.786 541.262 133.125 541.486 133.534C541.713 133.939 541.829 134.384 541.832 134.869C541.829 135.498 541.634 136.061 541.247 136.557C540.861 137.053 540.327 137.445 539.645 137.733C538.967 138.017 538.19 138.159 537.315 138.159ZM537.315 136.352C537.705 136.352 538.046 136.282 538.338 136.142C538.63 135.998 538.857 135.801 539.02 135.551C539.187 135.297 539.27 135.006 539.27 134.676C539.27 134.339 539.185 134.042 539.014 133.784C538.844 133.523 538.613 133.318 538.321 133.17C538.029 133.019 537.694 132.943 537.315 132.943C536.94 132.943 536.605 133.019 536.31 133.17C536.014 133.318 535.781 133.523 535.611 133.784C535.444 134.042 535.361 134.339 535.361 134.676C535.361 135.006 535.442 135.297 535.605 135.551C535.768 135.801 535.997 135.998 536.293 136.142C536.588 136.282 536.929 136.352 537.315 136.352ZM537.315 131.153C537.641 131.153 537.931 131.087 538.185 130.955C538.438 130.822 538.637 130.638 538.781 130.403C538.925 130.169 538.997 129.898 538.997 129.591C538.997 129.288 538.925 129.023 538.781 128.795C538.637 128.564 538.44 128.384 538.19 128.256C537.94 128.123 537.649 128.057 537.315 128.057C536.986 128.057 536.694 128.123 536.44 128.256C536.187 128.384 535.988 128.564 535.844 128.795C535.704 129.023 535.634 129.288 535.634 129.591C535.634 129.898 535.705 130.169 535.849 130.403C535.993 130.638 536.192 130.822 536.446 130.955C536.7 131.087 536.99 131.153 537.315 131.153ZM544.662 138.148C544.287 138.148 543.965 138.015 543.696 137.75C543.431 137.481 543.298 137.159 543.298 136.784C543.298 136.413 543.431 136.095 543.696 135.83C543.965 135.564 544.287 135.432 544.662 135.432C545.026 135.432 545.344 135.564 545.616 135.83C545.889 136.095 546.026 136.413 546.026 136.784C546.026 137.034 545.961 137.263 545.832 137.472C545.707 137.676 545.543 137.841 545.338 137.966C545.134 138.087 544.908 138.148 544.662 138.148ZM547.99 138V136.227L552.132 132.392C552.484 132.051 552.78 131.744 553.018 131.472C553.261 131.199 553.445 130.932 553.57 130.67C553.695 130.405 553.757 130.119 553.757 129.812C553.757 129.472 553.679 129.178 553.524 128.932C553.369 128.682 553.157 128.491 552.888 128.358C552.619 128.222 552.314 128.153 551.973 128.153C551.617 128.153 551.306 128.225 551.041 128.369C550.776 128.513 550.571 128.72 550.428 128.989C550.284 129.258 550.212 129.578 550.212 129.949H547.876C547.876 129.187 548.049 128.527 548.393 127.966C548.738 127.405 549.221 126.972 549.842 126.665C550.464 126.358 551.179 126.205 551.99 126.205C552.823 126.205 553.549 126.352 554.166 126.648C554.787 126.939 555.27 127.345 555.615 127.864C555.96 128.383 556.132 128.977 556.132 129.648C556.132 130.087 556.045 130.521 555.871 130.949C555.7 131.377 555.395 131.852 554.956 132.375C554.517 132.894 553.897 133.517 553.098 134.244L551.399 135.909V135.989H556.286V138H547.99ZM564.438 135.818V135.205C564.438 134.739 564.536 134.311 564.733 133.92C564.934 133.527 565.223 133.212 565.602 132.977C565.985 132.739 566.451 132.619 567 132.619C567.557 132.619 568.025 132.737 568.403 132.972C568.786 133.206 569.074 133.521 569.267 133.915C569.464 134.305 569.562 134.735 569.562 135.205V135.818C569.562 136.284 569.464 136.714 569.267 137.108C569.07 137.498 568.78 137.811 568.398 138.045C568.015 138.284 567.549 138.403 567 138.403C566.443 138.403 565.975 138.284 565.597 138.045C565.218 137.811 564.93 137.498 564.733 137.108C564.536 136.714 564.438 136.284 564.438 135.818ZM566.091 135.205V135.818C566.091 136.087 566.155 136.341 566.284 136.58C566.417 136.818 566.655 136.938 567 136.938C567.345 136.938 567.58 136.82 567.705 136.585C567.833 136.35 567.898 136.095 567.898 135.818V135.205C567.898 134.928 567.837 134.67 567.716 134.432C567.595 134.193 567.356 134.074 567 134.074C566.659 134.074 566.422 134.193 566.29 134.432C566.157 134.67 566.091 134.928 566.091 135.205ZM558.466 129.159V128.545C558.466 128.076 558.566 127.646 558.767 127.256C558.968 126.862 559.258 126.547 559.636 126.312C560.019 126.078 560.481 125.96 561.023 125.96C561.583 125.96 562.053 126.078 562.432 126.312C562.811 126.547 563.098 126.862 563.295 127.256C563.492 127.646 563.591 128.076 563.591 128.545V129.159C563.591 129.629 563.491 130.059 563.29 130.449C563.093 130.839 562.803 131.152 562.42 131.386C562.042 131.617 561.576 131.733 561.023 131.733C560.47 131.733 560.002 131.616 559.619 131.381C559.241 131.142 558.953 130.83 558.756 130.443C558.563 130.053 558.466 129.625 558.466 129.159ZM560.131 128.545V129.159C560.131 129.436 560.195 129.691 560.324 129.926C560.456 130.161 560.689 130.278 561.023 130.278C561.371 130.278 561.608 130.161 561.733 129.926C561.862 129.691 561.926 129.436 561.926 129.159V128.545C561.926 128.269 561.866 128.011 561.744 127.773C561.623 127.534 561.383 127.415 561.023 127.415C560.686 127.415 560.453 127.536 560.324 127.778C560.195 128.021 560.131 128.277 560.131 128.545ZM559.216 138L567.216 126.364H568.705L560.705 138H559.216Z" fill="#1B1B1B"/>
<rect x="352" y="151.5" width="20" height="12" rx="6" fill="#E0E0E0"/>
<path d="M391.034 151.364V163H389.278V151.364H391.034ZM395.153 157.818V163H393.455V154.273H395.085V155.693H395.193C395.394 155.231 395.708 154.86 396.136 154.58C396.568 154.299 397.112 154.159 397.767 154.159C398.362 154.159 398.883 154.284 399.33 154.534C399.777 154.78 400.123 155.148 400.369 155.636C400.616 156.125 400.739 156.729 400.739 157.449V163H399.04V157.653C399.04 157.021 398.875 156.527 398.545 156.17C398.216 155.811 397.763 155.631 397.188 155.631C396.794 155.631 396.443 155.716 396.136 155.886C395.833 156.057 395.593 156.307 395.415 156.636C395.241 156.962 395.153 157.356 395.153 157.818ZM405.557 163.193C405.004 163.193 404.504 163.091 404.057 162.886C403.61 162.678 403.256 162.377 402.994 161.983C402.737 161.589 402.608 161.106 402.608 160.534C402.608 160.042 402.703 159.636 402.892 159.318C403.081 159 403.337 158.748 403.659 158.562C403.981 158.377 404.341 158.237 404.739 158.142C405.136 158.047 405.542 157.975 405.955 157.926C406.477 157.866 406.902 157.816 407.227 157.778C407.553 157.737 407.79 157.67 407.938 157.58C408.085 157.489 408.159 157.341 408.159 157.136V157.097C408.159 156.6 408.019 156.216 407.739 155.943C407.462 155.67 407.049 155.534 406.5 155.534C405.928 155.534 405.477 155.661 405.148 155.915C404.822 156.165 404.597 156.443 404.472 156.75L402.875 156.386C403.064 155.856 403.341 155.428 403.705 155.102C404.072 154.773 404.494 154.534 404.972 154.386C405.449 154.235 405.951 154.159 406.477 154.159C406.826 154.159 407.195 154.201 407.585 154.284C407.979 154.364 408.347 154.511 408.688 154.727C409.032 154.943 409.314 155.252 409.534 155.653C409.754 156.051 409.864 156.568 409.864 157.205V163H408.205V161.807H408.136C408.027 162.027 407.862 162.242 407.642 162.455C407.422 162.667 407.14 162.843 406.795 162.983C406.451 163.123 406.038 163.193 405.557 163.193ZM405.926 161.83C406.396 161.83 406.797 161.737 407.131 161.551C407.468 161.366 407.723 161.123 407.898 160.824C408.076 160.521 408.165 160.197 408.165 159.852V158.727C408.104 158.788 407.987 158.845 407.812 158.898C407.642 158.947 407.447 158.991 407.227 159.028C407.008 159.062 406.794 159.095 406.585 159.125C406.377 159.152 406.203 159.174 406.062 159.193C405.733 159.235 405.432 159.305 405.159 159.403C404.89 159.502 404.674 159.644 404.511 159.83C404.352 160.011 404.273 160.254 404.273 160.557C404.273 160.977 404.428 161.295 404.739 161.511C405.049 161.723 405.445 161.83 405.926 161.83ZM415.803 163.176C414.958 163.176 414.231 162.985 413.621 162.602C413.015 162.216 412.549 161.684 412.223 161.006C411.897 160.328 411.734 159.551 411.734 158.676C411.734 157.79 411.901 157.008 412.234 156.33C412.568 155.648 413.037 155.116 413.643 154.733C414.25 154.35 414.964 154.159 415.786 154.159C416.448 154.159 417.039 154.282 417.558 154.528C418.077 154.771 418.496 155.112 418.814 155.551C419.136 155.991 419.327 156.504 419.388 157.091H417.734C417.643 156.682 417.435 156.33 417.109 156.034C416.787 155.739 416.356 155.591 415.814 155.591C415.34 155.591 414.926 155.716 414.57 155.966C414.217 156.212 413.943 156.564 413.746 157.023C413.549 157.477 413.45 158.015 413.45 158.636C413.45 159.273 413.547 159.822 413.74 160.284C413.933 160.746 414.206 161.104 414.558 161.358C414.914 161.612 415.333 161.739 415.814 161.739C416.136 161.739 416.428 161.68 416.689 161.562C416.954 161.441 417.176 161.269 417.354 161.045C417.536 160.822 417.662 160.553 417.734 160.239H419.388C419.327 160.803 419.143 161.307 418.837 161.75C418.53 162.193 418.119 162.542 417.604 162.795C417.092 163.049 416.492 163.176 415.803 163.176ZM425.278 154.273V155.636H420.511V154.273H425.278ZM421.79 152.182H423.489V160.438C423.489 160.767 423.538 161.015 423.636 161.182C423.735 161.345 423.862 161.456 424.017 161.517C424.176 161.574 424.348 161.602 424.534 161.602C424.67 161.602 424.79 161.593 424.892 161.574C424.994 161.555 425.074 161.54 425.131 161.528L425.438 162.932C425.339 162.97 425.199 163.008 425.017 163.045C424.835 163.087 424.608 163.11 424.335 163.114C423.888 163.121 423.472 163.042 423.085 162.875C422.699 162.708 422.386 162.451 422.148 162.102C421.909 161.754 421.79 161.316 421.79 160.79V152.182ZM427.158 163V154.273H428.857V163H427.158ZM428.016 152.926C427.72 152.926 427.466 152.828 427.254 152.631C427.046 152.43 426.942 152.191 426.942 151.915C426.942 151.634 427.046 151.396 427.254 151.199C427.466 150.998 427.72 150.898 428.016 150.898C428.311 150.898 428.563 150.998 428.771 151.199C428.983 151.396 429.089 151.634 429.089 151.915C429.089 152.191 428.983 152.43 428.771 152.631C428.563 152.828 428.311 152.926 428.016 152.926ZM438.608 154.273L435.443 163H433.625L430.455 154.273H432.278L434.489 160.989H434.58L436.784 154.273H438.608ZM443.669 163.176C442.809 163.176 442.069 162.992 441.447 162.625C440.83 162.254 440.353 161.733 440.016 161.062C439.682 160.388 439.516 159.598 439.516 158.693C439.516 157.799 439.682 157.011 440.016 156.33C440.353 155.648 440.822 155.116 441.425 154.733C442.031 154.35 442.739 154.159 443.55 154.159C444.042 154.159 444.519 154.241 444.982 154.403C445.444 154.566 445.858 154.822 446.226 155.17C446.593 155.519 446.883 155.972 447.095 156.528C447.307 157.081 447.413 157.754 447.413 158.545V159.148H440.476V157.875H445.749C445.749 157.428 445.658 157.032 445.476 156.688C445.294 156.339 445.038 156.064 444.709 155.864C444.383 155.663 444 155.562 443.561 155.562C443.084 155.562 442.667 155.68 442.311 155.915C441.959 156.146 441.686 156.449 441.493 156.824C441.304 157.195 441.209 157.598 441.209 158.034V159.028C441.209 159.612 441.311 160.108 441.516 160.517C441.724 160.926 442.014 161.239 442.385 161.455C442.756 161.667 443.19 161.773 443.686 161.773C444.008 161.773 444.302 161.727 444.567 161.636C444.832 161.542 445.061 161.402 445.254 161.216C445.447 161.03 445.595 160.801 445.697 160.528L447.305 160.818C447.177 161.292 446.946 161.706 446.612 162.062C446.283 162.415 445.868 162.689 445.368 162.886C444.872 163.08 444.305 163.176 443.669 163.176ZM457.947 159.227H459.675L460.891 160.812L461.464 161.517L463.402 164.045H461.607L460.311 162.358L459.868 161.744L457.947 159.227ZM463.777 157.182C463.777 158.424 463.55 159.492 463.095 160.386C462.641 161.277 462.018 161.962 461.226 162.443C460.438 162.92 459.542 163.159 458.538 163.159C457.531 163.159 456.631 162.92 455.839 162.443C455.052 161.962 454.43 161.275 453.976 160.381C453.521 159.487 453.294 158.42 453.294 157.182C453.294 155.939 453.521 154.873 453.976 153.983C454.43 153.089 455.052 152.403 455.839 151.926C456.631 151.445 457.531 151.205 458.538 151.205C459.542 151.205 460.438 151.445 461.226 151.926C462.018 152.403 462.641 153.089 463.095 153.983C463.55 154.873 463.777 155.939 463.777 157.182ZM462.038 157.182C462.038 156.235 461.885 155.437 461.578 154.79C461.275 154.138 460.858 153.646 460.328 153.312C459.802 152.975 459.205 152.807 458.538 152.807C457.868 152.807 457.269 152.975 456.743 153.312C456.216 153.646 455.8 154.138 455.493 154.79C455.19 155.437 455.038 156.235 455.038 157.182C455.038 158.129 455.19 158.928 455.493 159.58C455.8 160.227 456.216 160.72 456.743 161.057C457.269 161.39 457.868 161.557 458.538 161.557C459.205 161.557 459.802 161.39 460.328 161.057C460.858 160.72 461.275 160.227 461.578 159.58C461.885 158.928 462.038 158.129 462.038 157.182ZM465.966 163V151.364H470.114C471.019 151.364 471.769 151.528 472.364 151.858C472.958 152.187 473.403 152.638 473.699 153.21C473.994 153.778 474.142 154.419 474.142 155.131C474.142 155.847 473.992 156.491 473.693 157.062C473.398 157.631 472.951 158.081 472.352 158.415C471.758 158.744 471.009 158.909 470.108 158.909H467.256V157.42H469.949C470.521 157.42 470.985 157.322 471.341 157.125C471.697 156.924 471.958 156.652 472.125 156.307C472.292 155.962 472.375 155.57 472.375 155.131C472.375 154.691 472.292 154.301 472.125 153.96C471.958 153.619 471.695 153.352 471.335 153.159C470.979 152.966 470.509 152.869 469.926 152.869H467.722V163H465.966ZM482.604 156.403L481.064 156.676C481 156.479 480.897 156.292 480.757 156.114C480.621 155.936 480.435 155.79 480.2 155.676C479.965 155.562 479.672 155.506 479.32 155.506C478.839 155.506 478.437 155.614 478.115 155.83C477.793 156.042 477.632 156.316 477.632 156.653C477.632 156.945 477.74 157.18 477.956 157.358C478.172 157.536 478.52 157.682 479.001 157.795L480.388 158.114C481.191 158.299 481.789 158.585 482.183 158.972C482.577 159.358 482.774 159.86 482.774 160.477C482.774 161 482.623 161.466 482.32 161.875C482.02 162.28 481.602 162.598 481.064 162.83C480.53 163.061 479.911 163.176 479.206 163.176C478.229 163.176 477.431 162.968 476.814 162.551C476.196 162.131 475.818 161.534 475.678 160.761L477.32 160.511C477.422 160.939 477.632 161.263 477.95 161.483C478.268 161.699 478.683 161.807 479.195 161.807C479.751 161.807 480.196 161.691 480.53 161.46C480.863 161.225 481.03 160.939 481.03 160.602C481.03 160.33 480.928 160.1 480.723 159.915C480.522 159.729 480.214 159.589 479.797 159.494L478.32 159.17C477.505 158.985 476.903 158.689 476.513 158.284C476.126 157.879 475.933 157.366 475.933 156.744C475.933 156.229 476.077 155.778 476.365 155.392C476.653 155.006 477.051 154.705 477.558 154.489C478.066 154.269 478.647 154.159 479.303 154.159C480.246 154.159 480.988 154.364 481.53 154.773C482.071 155.178 482.429 155.722 482.604 156.403ZM485.761 163.108C485.451 163.108 485.184 162.998 484.96 162.778C484.737 162.555 484.625 162.286 484.625 161.972C484.625 161.661 484.737 161.396 484.96 161.176C485.184 160.953 485.451 160.841 485.761 160.841C486.072 160.841 486.339 160.953 486.562 161.176C486.786 161.396 486.898 161.661 486.898 161.972C486.898 162.18 486.845 162.371 486.739 162.545C486.636 162.716 486.5 162.852 486.33 162.955C486.159 163.057 485.97 163.108 485.761 163.108ZM485.761 156.756C485.451 156.756 485.184 156.644 484.96 156.42C484.737 156.197 484.625 155.93 484.625 155.619C484.625 155.309 484.737 155.044 484.96 154.824C485.184 154.6 485.451 154.489 485.761 154.489C486.072 154.489 486.339 154.6 486.562 154.824C486.786 155.044 486.898 155.309 486.898 155.619C486.898 155.828 486.845 156.019 486.739 156.193C486.636 156.364 486.5 156.5 486.33 156.602C486.159 156.705 485.97 156.756 485.761 156.756ZM493.033 160.955V159.017L497.891 151.364H499.561V154.045H498.572L495.51 158.892V158.983H502.413V160.955H493.033ZM498.618 163V160.364L498.663 159.506V151.364H500.97V163H498.618ZM508.303 163.159C507.5 163.159 506.784 163.011 506.155 162.716C505.53 162.42 505.034 162.013 504.666 161.494C504.299 160.975 504.107 160.381 504.092 159.71H506.479C506.505 160.161 506.695 160.527 507.047 160.807C507.399 161.087 507.818 161.227 508.303 161.227C508.689 161.227 509.03 161.142 509.325 160.972C509.625 160.797 509.857 160.557 510.024 160.25C510.195 159.939 510.28 159.583 510.28 159.182C510.28 158.773 510.193 158.413 510.018 158.102C509.848 157.792 509.611 157.549 509.308 157.375C509.005 157.201 508.659 157.112 508.268 157.108C507.928 157.108 507.596 157.178 507.274 157.318C506.956 157.458 506.708 157.65 506.53 157.892L504.342 157.5L504.893 151.364H512.007V153.375H506.922L506.621 156.29H506.689C506.893 156.002 507.202 155.763 507.615 155.574C508.028 155.384 508.49 155.29 509.001 155.29C509.702 155.29 510.327 155.455 510.876 155.784C511.426 156.114 511.859 156.566 512.178 157.142C512.496 157.714 512.653 158.373 512.649 159.119C512.653 159.903 512.471 160.6 512.104 161.21C511.74 161.816 511.231 162.294 510.575 162.642C509.924 162.987 509.166 163.159 508.303 163.159ZM515.428 163.148C515.053 163.148 514.731 163.015 514.462 162.75C514.196 162.481 514.064 162.159 514.064 161.784C514.064 161.413 514.196 161.095 514.462 160.83C514.731 160.564 515.053 160.432 515.428 160.432C515.791 160.432 516.109 160.564 516.382 160.83C516.655 161.095 516.791 161.413 516.791 161.784C516.791 162.034 516.727 162.263 516.598 162.472C516.473 162.676 516.308 162.841 516.104 162.966C515.899 163.087 515.674 163.148 515.428 163.148ZM518.756 163V161.227L522.898 157.392C523.25 157.051 523.545 156.744 523.784 156.472C524.027 156.199 524.21 155.932 524.335 155.67C524.46 155.405 524.523 155.119 524.523 154.812C524.523 154.472 524.445 154.178 524.29 153.932C524.134 153.682 523.922 153.491 523.653 153.358C523.384 153.222 523.08 153.153 522.739 153.153C522.383 153.153 522.072 153.225 521.807 153.369C521.542 153.513 521.337 153.72 521.193 153.989C521.049 154.258 520.977 154.578 520.977 154.949H518.642C518.642 154.187 518.814 153.527 519.159 152.966C519.504 152.405 519.987 151.972 520.608 151.665C521.229 151.358 521.945 151.205 522.756 151.205C523.589 151.205 524.314 151.352 524.932 151.648C525.553 151.939 526.036 152.345 526.381 152.864C526.725 153.383 526.898 153.977 526.898 154.648C526.898 155.087 526.811 155.521 526.636 155.949C526.466 156.377 526.161 156.852 525.722 157.375C525.282 157.894 524.663 158.517 523.864 159.244L522.165 160.909V160.989H527.051V163H518.756ZM535.203 160.818V160.205C535.203 159.739 535.302 159.311 535.499 158.92C535.699 158.527 535.989 158.212 536.368 157.977C536.75 157.739 537.216 157.619 537.766 157.619C538.322 157.619 538.79 157.737 539.169 157.972C539.552 158.206 539.839 158.521 540.033 158.915C540.23 159.305 540.328 159.735 540.328 160.205V160.818C540.328 161.284 540.23 161.714 540.033 162.108C539.836 162.498 539.546 162.811 539.163 163.045C538.781 163.284 538.315 163.403 537.766 163.403C537.209 163.403 536.741 163.284 536.362 163.045C535.983 162.811 535.696 162.498 535.499 162.108C535.302 161.714 535.203 161.284 535.203 160.818ZM536.857 160.205V160.818C536.857 161.087 536.921 161.341 537.05 161.58C537.182 161.818 537.421 161.938 537.766 161.938C538.11 161.938 538.345 161.82 538.47 161.585C538.599 161.35 538.663 161.095 538.663 160.818V160.205C538.663 159.928 538.603 159.67 538.482 159.432C538.36 159.193 538.122 159.074 537.766 159.074C537.425 159.074 537.188 159.193 537.055 159.432C536.923 159.67 536.857 159.928 536.857 160.205ZM529.232 154.159V153.545C529.232 153.076 529.332 152.646 529.533 152.256C529.733 151.862 530.023 151.547 530.402 151.312C530.785 151.078 531.247 150.96 531.788 150.96C532.349 150.96 532.819 151.078 533.197 151.312C533.576 151.547 533.864 151.862 534.061 152.256C534.258 152.646 534.357 153.076 534.357 153.545V154.159C534.357 154.629 534.256 155.059 534.055 155.449C533.858 155.839 533.569 156.152 533.186 156.386C532.807 156.617 532.341 156.733 531.788 156.733C531.235 156.733 530.768 156.616 530.385 156.381C530.006 156.142 529.718 155.83 529.521 155.443C529.328 155.053 529.232 154.625 529.232 154.159ZM530.896 153.545V154.159C530.896 154.436 530.961 154.691 531.089 154.926C531.222 155.161 531.455 155.278 531.788 155.278C532.137 155.278 532.374 155.161 532.499 154.926C532.627 154.691 532.692 154.436 532.692 154.159V153.545C532.692 153.269 532.631 153.011 532.51 152.773C532.389 152.534 532.148 152.415 531.788 152.415C531.451 152.415 531.218 152.536 531.089 152.778C530.961 153.021 530.896 153.277 530.896 153.545ZM529.982 163L537.982 151.364H539.47L531.47 163H529.982Z" fill="#1B1B1B"/>
<mask id="path-8-inside-2_3110_11729" fill="white">
<path d="M162.146 9.00304C188.162 16.4186 210.288 33.6337 223.871 57.0277C237.454 80.4218 241.436 108.172 234.98 134.442C228.523 160.711 212.131 183.454 189.251 197.886C166.371 212.318 138.786 217.315 112.297 211.826L133.5 109.5L162.146 9.00304Z"/>
</mask>
<path d="M162.146 9.00304C188.162 16.4186 210.288 33.6337 223.871 57.0277C237.454 80.4218 241.436 108.172 234.98 134.442C228.523 160.711 212.131 183.454 189.251 197.886C166.371 212.318 138.786 217.315 112.297 211.826L133.5 109.5L162.146 9.00304Z" fill="#E0E0E0" stroke="white" stroke-width="4" mask="url(#path-8-inside-2_3110_11729)"/>
<mask id="path-9-inside-3_3110_11729" fill="white">
<path d="M129.561 5.07427C140.594 4.65808 151.623 5.99302 162.239 9.02939L133.5 109.5L129.561 5.07427Z"/>
</mask>
<path d="M129.561 5.07427C140.594 4.65808 151.623 5.99302 162.239 9.02939L133.5 109.5L129.561 5.07427Z" fill="#FAEED4" stroke="white" stroke-width="4" mask="url(#path-9-inside-3_3110_11729)"/>
<mask id="path-10-outside-4_3110_11729" maskUnits="userSpaceOnUse" x="24" y="1" width="114" height="215" fill="black">
<rect fill="white" x="24" y="1" width="114" height="215"/>
<path d="M112.912 209.911C112.69 210.993 111.633 211.692 110.555 211.45C86.3146 205.995 64.7862 192.072 49.8636 172.151C34.5409 151.697 27.2456 126.335 29.3573 100.865C31.4691 75.3951 42.8417 51.5819 61.3239 33.9297C79.3235 16.7386 102.851 6.55186 127.659 5.16337C128.761 5.10165 129.69 5.96552 129.73 7.06934L133.491 109.26C133.497 109.419 133.484 109.579 133.452 109.735L112.912 209.911Z"/>
</mask>
<path d="M112.912 209.911C112.69 210.993 111.633 211.692 110.555 211.45C86.3146 205.995 64.7862 192.072 49.8636 172.151C34.5409 151.697 27.2456 126.335 29.3573 100.865C31.4691 75.3951 42.8417 51.5819 61.3239 33.9297C79.3235 16.7386 102.851 6.55186 127.659 5.16337C128.761 5.10165 129.69 5.96552 129.73 7.06934L133.491 109.26C133.497 109.419 133.484 109.579 133.452 109.735L112.912 209.911Z" stroke="white" stroke-width="8" mask="url(#path-10-outside-4_3110_11729)"/>
<path d="M172.431 119.849V118.76L175.164 114.455H176.104V115.963H175.548L173.825 118.689V118.74H177.708V119.849H172.431ZM175.573 121V119.517L175.599 119.034V114.455H176.896V121H175.573ZM181.021 121.089C180.569 121.089 180.166 121.006 179.813 120.84C179.461 120.674 179.182 120.445 178.975 120.153C178.769 119.861 178.661 119.527 178.653 119.15H179.995C180.01 119.403 180.116 119.609 180.314 119.766C180.513 119.924 180.748 120.003 181.021 120.003C181.238 120.003 181.43 119.955 181.596 119.859C181.764 119.761 181.895 119.626 181.989 119.453C182.085 119.278 182.133 119.078 182.133 118.852C182.133 118.622 182.084 118.42 181.986 118.245C181.89 118.07 181.757 117.934 181.586 117.836C181.416 117.738 181.221 117.688 181.002 117.686C180.81 117.686 180.623 117.725 180.442 117.804C180.263 117.883 180.124 117.99 180.024 118.127L178.793 117.906L179.103 114.455H183.105V115.586H180.244L180.075 117.225H180.113C180.228 117.064 180.402 116.929 180.634 116.823C180.866 116.716 181.126 116.663 181.414 116.663C181.808 116.663 182.16 116.756 182.469 116.941C182.778 117.126 183.021 117.381 183.2 117.705C183.379 118.027 183.468 118.397 183.466 118.817C183.468 119.258 183.366 119.65 183.159 119.993C182.954 120.334 182.668 120.603 182.299 120.799C181.933 120.993 181.507 121.089 181.021 121.089ZM185.029 121.083C184.818 121.083 184.637 121.009 184.485 120.859C184.336 120.708 184.262 120.527 184.262 120.316C184.262 120.107 184.336 119.928 184.485 119.779C184.637 119.63 184.818 119.555 185.029 119.555C185.233 119.555 185.412 119.63 185.566 119.779C185.719 119.928 185.796 120.107 185.796 120.316C185.796 120.457 185.759 120.586 185.687 120.703C185.617 120.818 185.524 120.911 185.409 120.981C185.294 121.049 185.167 121.083 185.029 121.083ZM186.901 121V120.003L189.231 117.846C189.429 117.654 189.595 117.481 189.729 117.328C189.866 117.174 189.969 117.024 190.039 116.877C190.109 116.728 190.145 116.567 190.145 116.395C190.145 116.203 190.101 116.038 190.014 115.899C189.926 115.759 189.807 115.651 189.656 115.576C189.504 115.5 189.333 115.461 189.141 115.461C188.941 115.461 188.766 115.502 188.617 115.583C188.468 115.664 188.353 115.78 188.272 115.931C188.191 116.082 188.15 116.262 188.15 116.471H186.837C186.837 116.043 186.934 115.671 187.128 115.356C187.321 115.04 187.593 114.797 187.943 114.624C188.292 114.451 188.695 114.365 189.151 114.365C189.619 114.365 190.027 114.448 190.375 114.614C190.724 114.778 190.996 115.006 191.19 115.298C191.384 115.59 191.481 115.925 191.481 116.302C191.481 116.549 191.432 116.793 191.334 117.034C191.238 117.275 191.066 117.542 190.819 117.836C190.572 118.128 190.223 118.478 189.774 118.887L188.818 119.824V119.869H191.567V121H186.901Z" fill="#1B1B1B"/>
<path d="M138.972 32.0895C138.48 32.0895 138.042 32.0096 137.659 31.8498C137.277 31.6879 136.978 31.4673 136.761 31.1882C136.543 30.9091 136.435 30.5927 136.435 30.239C136.435 29.9663 136.496 29.7159 136.62 29.4879C136.746 29.2578 136.916 29.0671 137.131 28.9158C137.347 28.7624 137.587 28.6644 137.854 28.6218V28.5771C137.504 28.5067 137.221 28.3374 137.004 28.0689C136.786 27.7983 136.678 27.484 136.678 27.1261C136.678 26.7873 136.777 26.4858 136.975 26.2216C137.173 25.9553 137.445 25.7464 137.79 25.5952C138.137 25.4418 138.531 25.3651 138.972 25.3651C139.413 25.3651 139.806 25.4418 140.152 25.5952C140.499 25.7486 140.772 25.9585 140.97 26.2248C141.168 26.489 141.268 26.7894 141.27 27.1261C141.268 27.4862 141.157 27.8004 140.938 28.0689C140.718 28.3374 140.437 28.5067 140.094 28.5771V28.6218C140.356 28.6644 140.594 28.7624 140.807 28.9158C141.022 29.0671 141.192 29.2578 141.318 29.4879C141.446 29.7159 141.511 29.9663 141.513 30.239C141.511 30.5927 141.401 30.9091 141.184 31.1882C140.967 31.4673 140.666 31.6879 140.283 31.8498C139.901 32.0096 139.464 32.0895 138.972 32.0895ZM138.972 31.0732C139.192 31.0732 139.384 31.0337 139.548 30.9549C139.712 30.8739 139.839 30.7631 139.931 30.6225C140.025 30.4798 140.072 30.3157 140.072 30.1303C140.072 29.9407 140.024 29.7734 139.928 29.6286C139.832 29.4815 139.702 29.3665 139.538 29.2834C139.374 29.1982 139.185 29.1555 138.972 29.1555C138.761 29.1555 138.573 29.1982 138.407 29.2834C138.24 29.3665 138.109 29.4815 138.013 29.6286C137.92 29.7734 137.873 29.9407 137.873 30.1303C137.873 30.3157 137.919 30.4798 138.01 30.6225C138.102 30.7631 138.231 30.8739 138.397 30.9549C138.563 31.0337 138.755 31.0732 138.972 31.0732ZM138.972 28.1488C139.156 28.1488 139.319 28.1115 139.461 28.0369C139.604 27.9624 139.716 27.859 139.797 27.7269C139.878 27.5948 139.918 27.4425 139.918 27.2699C139.918 27.0994 139.878 26.9503 139.797 26.8224C139.716 26.6925 139.605 26.5913 139.464 26.5188C139.324 26.4442 139.16 26.407 138.972 26.407C138.787 26.407 138.623 26.4442 138.48 26.5188C138.337 26.5913 138.225 26.6925 138.145 26.8224C138.066 26.9503 138.026 27.0994 138.026 27.2699C138.026 27.4425 138.067 27.5948 138.148 27.7269C138.229 27.859 138.341 27.9624 138.483 28.0369C138.626 28.1115 138.789 28.1488 138.972 28.1488ZM143.105 32.0831C142.894 32.0831 142.713 32.0085 142.561 31.8594C142.412 31.7081 142.338 31.527 142.338 31.3161C142.338 31.1072 142.412 30.9283 142.561 30.7791C142.713 30.63 142.894 30.5554 143.105 30.5554C143.309 30.5554 143.488 30.63 143.642 30.7791C143.795 30.9283 143.872 31.1072 143.872 31.3161C143.872 31.4567 143.836 31.5856 143.763 31.7028C143.693 31.8178 143.6 31.9105 143.485 31.9808C143.37 32.049 143.243 32.0831 143.105 32.0831ZM144.977 32V31.0028L147.307 28.8455C147.505 28.6538 147.671 28.4812 147.805 28.3278C147.942 28.1744 148.045 28.0241 148.115 27.8771C148.186 27.728 148.221 27.5671 148.221 27.3945C148.221 27.2028 148.177 27.0376 148.09 26.8991C148.002 26.7585 147.883 26.6509 147.732 26.5763C147.581 26.4996 147.409 26.4613 147.217 26.4613C147.017 26.4613 146.842 26.5018 146.693 26.5827C146.544 26.6637 146.429 26.7798 146.348 26.9311C146.267 27.0824 146.226 27.2624 146.226 27.4712H144.913C144.913 27.043 145.01 26.6712 145.204 26.3558C145.398 26.0405 145.669 25.7965 146.019 25.6239C146.368 25.4513 146.771 25.3651 147.227 25.3651C147.696 25.3651 148.104 25.4482 148.451 25.6143C148.8 25.7784 149.072 26.0064 149.266 26.2983C149.46 26.5902 149.557 26.9247 149.557 27.3018C149.557 27.549 149.508 27.793 149.41 28.0337C149.314 28.2745 149.142 28.5419 148.895 28.8359C148.648 29.1278 148.3 29.4783 147.85 29.8874L146.894 30.8239V30.8686H149.643V32H144.977Z" fill="#1B1B1B"/>
<path d="M66.4315 98.8494V97.7596L69.1641 93.4545H70.1037V94.9631H69.5476L67.8249 97.6893V97.7404H71.7081V98.8494H66.4315ZM69.5732 100V98.517L69.5987 98.0344V93.4545H70.8963V100H69.5732ZM75.1422 100.089C74.8056 100.087 74.4806 100.031 74.1674 99.9201C73.8564 99.8093 73.5772 99.6293 73.3301 99.38C73.0829 99.1307 72.8869 98.8004 72.742 98.3892C72.5993 97.978 72.5279 97.473 72.5279 96.8743C72.53 96.3246 72.5929 95.8335 72.7164 95.4009C72.8422 94.9663 73.0211 94.5977 73.2534 94.2951C73.4877 93.9925 73.7679 93.7624 74.0939 93.6048C74.4199 93.445 74.7853 93.3651 75.1902 93.3651C75.627 93.3651 76.0126 93.4503 76.3471 93.6207C76.6816 93.7891 76.9501 94.0181 77.1525 94.3079C77.3571 94.5977 77.4806 94.9226 77.5233 95.2827H76.1586C76.1053 95.0547 75.9934 94.8757 75.823 94.7457C75.6525 94.6158 75.4416 94.5508 75.1902 94.5508C74.764 94.5508 74.4402 94.7362 74.2186 95.1069C73.9991 95.4776 73.8873 95.9815 73.883 96.6186H73.9277C74.0257 96.4247 74.1578 96.2596 74.324 96.1232C74.4924 95.9847 74.6831 95.8793 74.8961 95.8068C75.1113 95.7322 75.3382 95.695 75.5769 95.695C75.9647 95.695 76.3098 95.7866 76.6124 95.9698C76.915 96.1509 77.1536 96.4002 77.3283 96.7177C77.503 97.0352 77.5904 97.3984 77.5904 97.8075C77.5904 98.2507 77.487 98.6449 77.2804 98.9901C77.0758 99.3352 76.7892 99.6058 76.4206 99.8018C76.0542 99.9957 75.628 100.092 75.1422 100.089ZM75.1358 99.0028C75.3489 99.0028 75.5396 98.9517 75.7079 98.8494C75.8762 98.7472 76.0083 98.6087 76.1042 98.4339C76.2001 98.2592 76.248 98.0632 76.248 97.8459C76.248 97.6286 76.2001 97.4336 76.1042 97.261C76.0105 97.0884 75.8805 96.951 75.7143 96.8487C75.5481 96.7464 75.3585 96.6953 75.1454 96.6953C74.9856 96.6953 74.8375 96.7251 74.7012 96.7848C74.5669 96.8445 74.4487 96.9276 74.3464 97.0341C74.2463 97.1406 74.1674 97.2642 74.1099 97.4048C74.0524 97.5433 74.0236 97.6914 74.0236 97.8491C74.0236 98.06 74.0716 98.2528 74.1674 98.4276C74.2654 98.6023 74.3975 98.7418 74.5637 98.8462C74.7321 98.9506 74.9228 99.0028 75.1358 99.0028ZM79.1077 100.083C78.8968 100.083 78.7156 100.009 78.5644 99.8594C78.4152 99.7081 78.3406 99.527 78.3406 99.3161C78.3406 99.1072 78.4152 98.9283 78.5644 98.7791C78.7156 98.63 78.8968 98.5554 79.1077 98.5554C79.3122 98.5554 79.4912 98.63 79.6446 98.7791C79.798 98.9283 79.8747 99.1072 79.8747 99.3161C79.8747 99.4567 79.8385 99.5856 79.7661 99.7028C79.6958 99.8178 79.6031 99.9105 79.488 99.9808C79.373 100.049 79.2462 100.083 79.1077 100.083ZM83.2282 100.089C82.8915 100.087 82.5666 100.031 82.2534 99.9201C81.9423 99.8093 81.6632 99.6293 81.416 99.38C81.1689 99.1307 80.9728 98.8004 80.8279 98.3892C80.6852 97.978 80.6138 97.473 80.6138 96.8743C80.6159 96.3246 80.6788 95.8335 80.8024 95.4009C80.9281 94.9663 81.1071 94.5977 81.3393 94.2951C81.5737 93.9925 81.8539 93.7624 82.1799 93.6048C82.5059 93.445 82.8713 93.3651 83.2761 93.3651C83.7129 93.3651 84.0985 93.4503 84.4331 93.6207C84.7676 93.7891 85.036 94.0181 85.2385 94.3079C85.443 94.5977 85.5666 94.9226 85.6092 95.2827H84.2445C84.1912 95.0547 84.0794 94.8757 83.9089 94.7457C83.7385 94.6158 83.5275 94.5508 83.2761 94.5508C82.85 94.5508 82.5261 94.7362 82.3045 95.1069C82.085 95.4776 81.9732 95.9815 81.9689 96.6186H82.0137C82.1117 96.4247 82.2438 96.2596 82.41 96.1232C82.5783 95.9847 82.769 95.8793 82.9821 95.8068C83.1973 95.7322 83.4242 95.695 83.6628 95.695C84.0506 95.695 84.3958 95.7866 84.6983 95.9698C85.0009 96.1509 85.2395 96.4002 85.4142 96.7177C85.589 97.0352 85.6763 97.3984 85.6763 97.8075C85.6763 98.2507 85.573 98.6449 85.3663 98.9901C85.1618 99.3352 84.8752 99.6058 84.5066 99.8018C84.1401 99.9957 83.714 100.092 83.2282 100.089ZM83.2218 99.0028C83.4348 99.0028 83.6255 98.9517 83.7939 98.8494C83.9622 98.7472 84.0943 98.6087 84.1902 98.4339C84.286 98.2592 84.334 98.0632 84.334 97.8459C84.334 97.6286 84.286 97.4336 84.1902 97.261C84.0964 97.0884 83.9664 96.951 83.8002 96.8487C83.6341 96.7464 83.4444 96.6953 83.2314 96.6953C83.0716 96.6953 82.9235 96.7251 82.7871 96.7848C82.6529 96.8445 82.5346 96.9276 82.4324 97.0341C82.3322 97.1406 82.2534 97.2642 82.1958 97.4048C82.1383 97.5433 82.1096 97.6914 82.1096 97.8491C82.1096 98.06 82.1575 98.2528 82.2534 98.4276C82.3514 98.6023 82.4835 98.7418 82.6497 98.8462C82.818 98.9506 83.0087 99.0028 83.2218 99.0028Z" fill="#1B1B1B"/>
</svg>
