<svg width="234" height="297" viewBox="0 0 234 297" fill="none" xmlns="http://www.w3.org/2000/svg">
<mask id="path-1-inside-1_3113_11814" fill="white">
<path d="M88.9123 209.911C88.6904 210.993 87.6325 211.692 86.5549 211.45C62.3146 205.995 40.7862 192.072 25.8636 172.151C10.5409 151.697 3.24556 126.335 5.35735 100.865C7.46914 75.3951 18.8417 51.5819 37.3239 33.9297C55.3235 16.7386 78.8509 6.55186 103.659 5.16337C104.761 5.10165 105.69 5.96552 105.73 7.06934L109.491 109.26C109.497 109.419 109.484 109.579 109.452 109.735L88.9123 209.911Z"/>
</mask>
<path d="M88.9123 209.911C88.6904 210.993 87.6325 211.692 86.5549 211.45C62.3146 205.995 40.7862 192.072 25.8636 172.151C10.5409 151.697 3.24556 126.335 5.35735 100.865C7.46914 75.3951 18.8417 51.5819 37.3239 33.9297C55.3235 16.7386 78.8509 6.55186 103.659 5.16337C104.761 5.10165 105.69 5.96552 105.73 7.06934L109.491 109.26C109.497 109.419 109.484 109.579 109.452 109.735L88.9123 209.911Z" fill="#FFE6B0" stroke="#505050" stroke-width="7" mask="url(#path-1-inside-1_3113_11814)"/>
<rect y="224" width="20" height="12" rx="6" fill="#FFE6B0"/>
<path d="M26.544 237H24.4474L29.1584 223.909H31.4403L36.1513 237H34.0547L30.3537 226.287H30.2514L26.544 237ZM26.8956 231.874H33.6967V233.536H26.8956V231.874ZM41.8658 237.198C40.9155 237.198 40.0973 236.983 39.4112 236.553C38.7294 236.118 38.2053 235.519 37.8388 234.756C37.4723 233.994 37.2891 233.12 37.2891 232.136C37.2891 231.138 37.4766 230.259 37.8516 229.496C38.2266 228.729 38.755 228.13 39.4368 227.7C40.1186 227.269 40.9219 227.054 41.8466 227.054C42.5923 227.054 43.2571 227.192 43.8409 227.469C44.4247 227.742 44.8956 228.126 45.2536 228.62C45.6158 229.114 45.831 229.692 45.8991 230.352H44.0391C43.9368 229.892 43.7024 229.496 43.3359 229.163C42.9737 228.831 42.4879 228.665 41.8786 228.665C41.3459 228.665 40.8793 228.805 40.4787 229.087C40.0824 229.364 39.7734 229.76 39.5518 230.276C39.3303 230.787 39.2195 231.392 39.2195 232.091C39.2195 232.807 39.3281 233.425 39.5455 233.945C39.7628 234.464 40.0696 234.867 40.4659 235.153C40.8665 235.438 41.3374 235.581 41.8786 235.581C42.2408 235.581 42.5689 235.515 42.8629 235.383C43.1612 235.246 43.4105 235.053 43.6108 234.801C43.8153 234.55 43.9581 234.247 44.0391 233.893H45.8991C45.831 234.528 45.6243 235.095 45.2791 235.594C44.9339 236.092 44.4716 236.484 43.892 236.77C43.3168 237.055 42.6413 237.198 41.8658 237.198ZM52.5261 227.182V228.716H47.1632V227.182H52.5261ZM48.6014 224.83H50.5126V234.117C50.5126 234.488 50.568 234.767 50.6788 234.955C50.7896 235.138 50.9324 235.263 51.1071 235.332C51.286 235.396 51.4799 235.428 51.6887 235.428C51.8422 235.428 51.9764 235.417 52.0914 235.396C52.2065 235.374 52.296 235.357 52.3599 235.344L52.7051 236.923C52.5943 236.966 52.4366 237.009 52.2321 237.051C52.0275 237.098 51.7718 237.124 51.465 237.128C50.9622 237.136 50.4934 237.047 50.0588 236.859C49.6241 236.672 49.2725 236.382 49.0041 235.99C48.7356 235.598 48.6014 235.106 48.6014 234.513V224.83ZM54.6403 237V227.182H56.5515V237H54.6403ZM55.6055 225.667C55.2731 225.667 54.9876 225.556 54.7489 225.335C54.5146 225.109 54.3974 224.84 54.3974 224.529C54.3974 224.214 54.5146 223.945 54.7489 223.724C54.9876 223.498 55.2731 223.385 55.6055 223.385C55.9379 223.385 56.2212 223.498 56.4556 223.724C56.6942 223.945 56.8136 224.214 56.8136 224.529C56.8136 224.84 56.6942 225.109 56.4556 225.335C56.2212 225.556 55.9379 225.667 55.6055 225.667ZM67.5218 227.182L63.9615 237H61.916L58.3493 227.182H60.4011L62.8876 234.737H62.9899L65.47 227.182H67.5218ZM73.2156 237.198C72.2482 237.198 71.4151 236.991 70.7163 236.578C70.0217 236.161 69.4847 235.575 69.1055 234.82C68.7305 234.062 68.543 233.173 68.543 232.155C68.543 231.149 68.7305 230.263 69.1055 229.496C69.4847 228.729 70.0131 228.13 70.6907 227.7C71.3725 227.269 72.1694 227.054 73.0813 227.054C73.6353 227.054 74.1722 227.146 74.6921 227.329C75.212 227.512 75.6786 227.8 76.092 228.192C76.5053 228.584 76.8313 229.093 77.07 229.719C77.3086 230.342 77.4279 231.098 77.4279 231.989V232.666H69.6232V231.234H75.555C75.555 230.732 75.4528 230.286 75.2482 229.898C75.0437 229.506 74.756 229.197 74.3853 228.972C74.0188 228.746 73.5884 228.633 73.0941 228.633C72.5572 228.633 72.0884 228.765 71.6879 229.029C71.2915 229.289 70.9847 229.63 70.7674 230.052C70.5543 230.469 70.4478 230.923 70.4478 231.413V232.532C70.4478 233.188 70.5629 233.746 70.793 234.207C71.0273 234.667 71.3533 235.018 71.771 235.261C72.1886 235.5 72.6765 235.619 73.2347 235.619C73.5969 235.619 73.9272 235.568 74.2255 235.466C74.5238 235.359 74.7816 235.202 74.9989 234.993C75.2163 234.784 75.3825 234.526 75.4975 234.219L77.3065 234.545C77.1616 235.078 76.9016 235.545 76.5266 235.945C76.1559 236.342 75.6893 236.651 75.1268 236.872C74.5685 237.089 73.9315 237.198 73.2156 237.198ZM89.2788 232.756H91.2219L92.5898 234.539L93.2354 235.332L95.4151 238.176H93.3952L91.9379 236.278L91.4393 235.587L89.2788 232.756ZM95.837 230.455C95.837 231.852 95.5813 233.054 95.07 234.06C94.5586 235.061 93.8576 235.832 92.967 236.374C92.0806 236.911 91.0728 237.179 89.9435 237.179C88.81 237.179 87.7979 236.911 86.9073 236.374C86.021 235.832 85.3221 235.059 84.8107 234.053C84.2994 233.048 84.0437 231.848 84.0437 230.455C84.0437 229.057 84.2994 227.857 84.8107 226.856C85.3221 225.85 86.021 225.079 86.9073 224.542C87.7979 224.001 88.81 223.73 89.9435 223.73C91.0728 223.73 92.0806 224.001 92.967 224.542C93.8576 225.079 94.5586 225.85 95.07 226.856C95.5813 227.857 95.837 229.057 95.837 230.455ZM93.881 230.455C93.881 229.389 93.7085 228.492 93.3633 227.763C93.0224 227.031 92.5536 226.477 91.957 226.102C91.3647 225.722 90.6935 225.533 89.9435 225.533C89.1893 225.533 88.516 225.722 87.9237 226.102C87.3313 226.477 86.8626 227.031 86.5174 227.763C86.1765 228.492 86.006 229.389 86.006 230.455C86.006 231.52 86.1765 232.419 86.5174 233.152C86.8626 233.881 87.3313 234.435 87.9237 234.814C88.516 235.189 89.1893 235.376 89.9435 235.376C90.6935 235.376 91.3647 235.189 91.957 234.814C92.5536 234.435 93.0224 233.881 93.3633 233.152C93.7085 232.419 93.881 231.52 93.881 230.455ZM98.2995 237V223.909H102.966C103.984 223.909 104.828 224.094 105.497 224.465C106.166 224.836 106.667 225.343 106.999 225.987C107.331 226.626 107.498 227.346 107.498 228.147C107.498 228.952 107.329 229.677 106.993 230.32C106.66 230.96 106.157 231.467 105.484 231.842C104.815 232.212 103.974 232.398 102.959 232.398H99.7505V230.723H102.78C103.424 230.723 103.946 230.612 104.346 230.391C104.747 230.165 105.041 229.858 105.229 229.47C105.416 229.082 105.51 228.641 105.51 228.147C105.51 227.653 105.416 227.214 105.229 226.83C105.041 226.447 104.745 226.146 104.34 225.929C103.939 225.712 103.411 225.603 102.755 225.603H100.275V237H98.2995ZM117.017 229.579L115.285 229.886C115.212 229.664 115.097 229.453 114.94 229.253C114.786 229.053 114.577 228.888 114.313 228.761C114.049 228.633 113.719 228.569 113.322 228.569C112.781 228.569 112.33 228.69 111.967 228.933C111.605 229.172 111.424 229.481 111.424 229.86C111.424 230.188 111.545 230.452 111.788 230.653C112.031 230.853 112.423 231.017 112.964 231.145L114.524 231.503C115.428 231.712 116.101 232.033 116.544 232.468C116.987 232.903 117.209 233.467 117.209 234.162C117.209 234.75 117.038 235.274 116.697 235.734C116.361 236.19 115.89 236.548 115.285 236.808C114.684 237.068 113.987 237.198 113.195 237.198C112.095 237.198 111.198 236.964 110.504 236.495C109.809 236.022 109.383 235.351 109.225 234.482L111.072 234.2C111.188 234.682 111.424 235.046 111.782 235.293C112.14 235.536 112.607 235.658 113.182 235.658C113.808 235.658 114.309 235.528 114.684 235.268C115.059 235.004 115.246 234.682 115.246 234.303C115.246 233.996 115.131 233.738 114.901 233.529C114.675 233.32 114.328 233.163 113.859 233.056L112.197 232.692C111.281 232.483 110.604 232.151 110.165 231.695C109.73 231.239 109.513 230.661 109.513 229.962C109.513 229.383 109.675 228.876 109.999 228.441C110.322 228.006 110.77 227.668 111.341 227.425C111.912 227.178 112.566 227.054 113.303 227.054C114.364 227.054 115.2 227.284 115.809 227.744C116.418 228.2 116.821 228.812 117.017 229.579ZM120.569 237.121C120.22 237.121 119.92 236.998 119.668 236.751C119.417 236.499 119.291 236.197 119.291 235.843C119.291 235.494 119.417 235.195 119.668 234.948C119.92 234.697 120.22 234.571 120.569 234.571C120.919 234.571 121.219 234.697 121.471 234.948C121.722 235.195 121.848 235.494 121.848 235.843C121.848 236.077 121.788 236.293 121.669 236.489C121.554 236.68 121.4 236.834 121.209 236.949C121.017 237.064 120.804 237.121 120.569 237.121ZM120.569 229.975C120.22 229.975 119.92 229.849 119.668 229.598C119.417 229.347 119.291 229.046 119.291 228.697C119.291 228.347 119.417 228.049 119.668 227.802C119.92 227.55 120.22 227.425 120.569 227.425C120.919 227.425 121.219 227.55 121.471 227.802C121.722 228.049 121.848 228.347 121.848 228.697C121.848 228.931 121.788 229.146 121.669 229.342C121.554 229.534 121.4 229.687 121.209 229.803C121.017 229.918 120.804 229.975 120.569 229.975ZM128.75 234.699V232.519L134.215 223.909H136.094V226.926H134.982L131.537 232.379V232.481H139.303V234.699H128.75ZM135.033 237V234.034L135.084 233.069V223.909H137.679V237H135.033ZM146.171 237.179C145.498 237.175 144.848 237.062 144.222 236.84C143.599 236.619 143.041 236.259 142.547 235.76C142.053 235.261 141.661 234.601 141.371 233.778C141.085 232.956 140.942 231.946 140.942 230.749C140.947 229.649 141.072 228.667 141.32 227.802C141.571 226.933 141.929 226.195 142.393 225.59C142.862 224.985 143.423 224.525 144.075 224.21C144.727 223.89 145.457 223.73 146.267 223.73C147.141 223.73 147.912 223.901 148.581 224.241C149.25 224.578 149.787 225.036 150.192 225.616C150.601 226.195 150.848 226.845 150.933 227.565H148.204C148.097 227.109 147.874 226.751 147.533 226.491C147.192 226.232 146.77 226.102 146.267 226.102C145.415 226.102 144.767 226.472 144.324 227.214C143.885 227.955 143.661 228.963 143.653 230.237H143.742C143.938 229.849 144.202 229.519 144.535 229.246C144.871 228.969 145.253 228.759 145.679 228.614C146.109 228.464 146.563 228.39 147.04 228.39C147.816 228.39 148.506 228.573 149.112 228.94C149.717 229.302 150.194 229.8 150.543 230.435C150.893 231.07 151.067 231.797 151.067 232.615C151.067 233.501 150.861 234.29 150.447 234.98C150.038 235.67 149.465 236.212 148.728 236.604C147.995 236.991 147.143 237.183 146.171 237.179ZM146.158 235.006C146.585 235.006 146.966 234.903 147.303 234.699C147.639 234.494 147.903 234.217 148.095 233.868C148.287 233.518 148.383 233.126 148.383 232.692C148.383 232.257 148.287 231.867 148.095 231.522C147.908 231.177 147.648 230.902 147.315 230.697C146.983 230.493 146.604 230.391 146.178 230.391C145.858 230.391 145.562 230.45 145.289 230.57C145.021 230.689 144.784 230.855 144.58 231.068C144.379 231.281 144.222 231.528 144.107 231.81C143.991 232.087 143.934 232.383 143.934 232.698C143.934 233.12 144.03 233.506 144.222 233.855C144.418 234.205 144.682 234.484 145.014 234.692C145.351 234.901 145.732 235.006 146.158 235.006ZM154.102 237.166C153.68 237.166 153.318 237.017 153.015 236.719C152.717 236.416 152.568 236.054 152.568 235.632C152.568 235.214 152.717 234.857 153.015 234.558C153.318 234.26 153.68 234.111 154.102 234.111C154.511 234.111 154.869 234.26 155.176 234.558C155.483 234.857 155.636 235.214 155.636 235.632C155.636 235.913 155.564 236.171 155.419 236.406C155.278 236.636 155.093 236.821 154.863 236.962C154.633 237.098 154.379 237.166 154.102 237.166ZM162.343 237.179C161.67 237.175 161.02 237.062 160.393 236.84C159.771 236.619 159.213 236.259 158.719 235.76C158.224 235.261 157.832 234.601 157.543 233.778C157.257 232.956 157.114 231.946 157.114 230.749C157.119 229.649 157.244 228.667 157.491 227.802C157.743 226.933 158.101 226.195 158.565 225.59C159.034 224.985 159.594 224.525 160.246 224.21C160.898 223.89 161.629 223.73 162.439 223.73C163.313 223.73 164.084 223.901 164.753 224.241C165.422 224.578 165.959 225.036 166.364 225.616C166.773 226.195 167.02 226.845 167.105 227.565H164.376C164.269 227.109 164.045 226.751 163.705 226.491C163.364 226.232 162.942 226.102 162.439 226.102C161.587 226.102 160.939 226.472 160.496 227.214C160.057 227.955 159.833 228.963 159.825 230.237H159.914C160.11 229.849 160.374 229.519 160.707 229.246C161.043 228.969 161.425 228.759 161.851 228.614C162.281 228.464 162.735 228.39 163.212 228.39C163.988 228.39 164.678 228.573 165.283 228.94C165.888 229.302 166.366 229.8 166.715 230.435C167.065 231.07 167.239 231.797 167.239 232.615C167.239 233.501 167.033 234.29 166.619 234.98C166.21 235.67 165.637 236.212 164.9 236.604C164.167 236.991 163.315 237.183 162.343 237.179ZM162.33 235.006C162.756 235.006 163.138 234.903 163.474 234.699C163.811 234.494 164.075 234.217 164.267 233.868C164.459 233.518 164.555 233.126 164.555 232.692C164.555 232.257 164.459 231.867 164.267 231.522C164.08 231.177 163.82 230.902 163.487 230.697C163.155 230.493 162.776 230.391 162.349 230.391C162.03 230.391 161.734 230.45 161.461 230.57C161.192 230.689 160.956 230.855 160.751 231.068C160.551 231.281 160.393 231.528 160.278 231.81C160.163 232.087 160.106 232.383 160.106 232.698C160.106 233.12 160.202 233.506 160.393 233.855C160.589 234.205 160.854 234.484 161.186 234.692C161.523 234.901 161.904 235.006 162.33 235.006ZM176.367 234.545V233.855C176.367 233.331 176.478 232.849 176.7 232.411C176.925 231.967 177.251 231.614 177.678 231.349C178.108 231.081 178.632 230.947 179.25 230.947C179.876 230.947 180.403 231.079 180.829 231.343C181.259 231.607 181.583 231.961 181.8 232.404C182.022 232.843 182.133 233.327 182.133 233.855V234.545C182.133 235.07 182.022 235.553 181.8 235.996C181.579 236.435 181.253 236.787 180.822 237.051C180.392 237.32 179.868 237.454 179.25 237.454C178.624 237.454 178.097 237.32 177.671 237.051C177.245 236.787 176.921 236.435 176.7 235.996C176.478 235.553 176.367 235.07 176.367 234.545ZM178.227 233.855V234.545C178.227 234.848 178.3 235.134 178.445 235.402C178.594 235.67 178.862 235.805 179.25 235.805C179.638 235.805 179.902 235.673 180.043 235.408C180.188 235.144 180.26 234.857 180.26 234.545V233.855C180.26 233.544 180.192 233.254 180.055 232.986C179.919 232.717 179.651 232.583 179.25 232.583C178.866 232.583 178.6 232.717 178.451 232.986C178.302 233.254 178.227 233.544 178.227 233.855ZM169.649 227.054V226.364C169.649 225.835 169.762 225.352 169.988 224.913C170.214 224.469 170.54 224.116 170.966 223.852C171.396 223.587 171.916 223.455 172.526 223.455C173.156 223.455 173.685 223.587 174.111 223.852C174.537 224.116 174.861 224.469 175.082 224.913C175.304 225.352 175.415 225.835 175.415 226.364V227.054C175.415 227.582 175.302 228.066 175.076 228.505C174.854 228.944 174.528 229.295 174.098 229.56C173.672 229.82 173.148 229.95 172.526 229.95C171.903 229.95 171.377 229.817 170.947 229.553C170.521 229.285 170.197 228.933 169.975 228.499C169.758 228.06 169.649 227.578 169.649 227.054ZM171.522 226.364V227.054C171.522 227.365 171.594 227.653 171.739 227.917C171.888 228.181 172.151 228.313 172.526 228.313C172.918 228.313 173.184 228.181 173.325 227.917C173.469 227.653 173.542 227.365 173.542 227.054V226.364C173.542 226.053 173.474 225.763 173.337 225.494C173.201 225.226 172.93 225.092 172.526 225.092C172.146 225.092 171.884 225.228 171.739 225.501C171.594 225.773 171.522 226.061 171.522 226.364ZM170.493 237L179.493 223.909H181.168L172.168 237H170.493Z" fill="#1B1B1B"/>
<rect y="252" width="20" height="12" rx="6" fill="#FAEED4"/>
<path d="M25.4382 265V251.909H27.4134V263.3H33.3452V265H25.4382ZM39.5806 265.198C38.6602 265.198 37.8569 264.987 37.1708 264.565C36.4847 264.143 35.9521 263.553 35.5728 262.795C35.1935 262.036 35.0039 261.15 35.0039 260.136C35.0039 259.117 35.1935 258.227 35.5728 257.464C35.9521 256.701 36.4847 256.109 37.1708 255.687C37.8569 255.265 38.6602 255.054 39.5806 255.054C40.5011 255.054 41.3043 255.265 41.9904 255.687C42.6765 256.109 43.2092 256.701 43.5884 257.464C43.9677 258.227 44.1573 259.117 44.1573 260.136C44.1573 261.15 43.9677 262.036 43.5884 262.795C43.2092 263.553 42.6765 264.143 41.9904 264.565C41.3043 264.987 40.5011 265.198 39.5806 265.198ZM39.587 263.594C40.1836 263.594 40.6779 263.436 41.07 263.121C41.462 262.805 41.7518 262.386 41.9393 261.862C42.131 261.337 42.2269 260.76 42.2269 260.129C42.2269 259.503 42.131 258.928 41.9393 258.403C41.7518 257.875 41.462 257.451 41.07 257.131C40.6779 256.812 40.1836 256.652 39.587 256.652C38.9862 256.652 38.4876 256.812 38.0913 257.131C37.6992 257.451 37.4073 257.875 37.2156 258.403C37.0281 258.928 36.9343 259.503 36.9343 260.129C36.9343 260.76 37.0281 261.337 37.2156 261.862C37.4073 262.386 37.6992 262.805 38.0913 263.121C38.4876 263.436 38.9862 263.594 39.587 263.594ZM48.1204 265L45.2312 255.182H47.2063L49.1303 262.392H49.2262L51.1566 255.182H53.1317L55.0494 262.36H55.1452L57.0565 255.182H59.0316L56.1488 265H54.1992L52.2049 257.911H52.0579L50.0636 265H48.1204ZM66.6301 258.64V260.295H60.8262V258.64H66.6301ZM73.4089 265.198C72.4416 265.198 71.6085 264.991 70.9096 264.578C70.215 264.161 69.6781 263.575 69.2988 262.82C68.9238 262.062 68.7363 261.173 68.7363 260.155C68.7363 259.149 68.9238 258.263 69.2988 257.496C69.6781 256.729 70.2065 256.13 70.8841 255.7C71.5659 255.269 72.3627 255.054 73.2747 255.054C73.8287 255.054 74.3656 255.146 74.8855 255.329C75.4054 255.512 75.872 255.8 76.2853 256.192C76.6987 256.584 77.0247 257.093 77.2633 257.719C77.502 258.342 77.6213 259.098 77.6213 259.989V260.666H69.8166V259.234H75.7484C75.7484 258.732 75.6461 258.286 75.4416 257.898C75.237 257.506 74.9494 257.197 74.5787 256.972C74.2122 256.746 73.7818 256.633 73.2875 256.633C72.7505 256.633 72.2818 256.765 71.8812 257.029C71.4849 257.289 71.1781 257.63 70.9608 258.052C70.7477 258.469 70.6412 258.923 70.6412 259.413V260.532C70.6412 261.188 70.7562 261.746 70.9863 262.207C71.2207 262.667 71.5467 263.018 71.9643 263.261C72.3819 263.5 72.8699 263.619 73.4281 263.619C73.7903 263.619 74.1206 263.568 74.4189 263.466C74.7172 263.359 74.975 263.202 75.1923 262.993C75.4096 262.784 75.5758 262.526 75.6909 262.219L77.4998 262.545C77.3549 263.078 77.095 263.545 76.72 263.945C76.3493 264.342 75.8826 264.651 75.3201 264.872C74.7619 265.089 74.1248 265.198 73.4089 265.198ZM81.6531 259.17V265H79.7418V255.182H81.5763V256.78H81.6978C81.9237 256.26 82.2773 255.842 82.7589 255.527C83.2447 255.212 83.8562 255.054 84.5934 255.054C85.2624 255.054 85.8484 255.195 86.3512 255.476C86.854 255.753 87.244 256.166 87.521 256.716C87.7979 257.266 87.9364 257.945 87.9364 258.755V265H86.0252V258.985C86.0252 258.273 85.8398 257.717 85.4691 257.317C85.0984 256.912 84.5891 256.71 83.9414 256.71C83.4982 256.71 83.104 256.805 82.7589 256.997C82.418 257.189 82.1474 257.47 81.9471 257.841C81.7511 258.207 81.6531 258.651 81.6531 259.17ZM94.6161 268.886C93.8363 268.886 93.1651 268.784 92.6026 268.58C92.0444 268.375 91.5884 268.104 91.2347 267.768C90.881 267.431 90.6168 267.063 90.4421 266.662L92.0849 265.984C92.1999 266.172 92.3533 266.37 92.5451 266.579C92.7411 266.792 93.0053 266.973 93.3377 267.122C93.6744 267.271 94.1069 267.346 94.6353 267.346C95.3597 267.346 95.9585 267.169 96.4315 266.815C96.9045 266.466 97.141 265.908 97.141 265.141V263.21H97.0195C96.9045 263.419 96.7383 263.651 96.521 263.907C96.3079 264.163 96.0138 264.384 95.6388 264.572C95.2638 264.759 94.7759 264.853 94.1751 264.853C93.3995 264.853 92.7006 264.672 92.0785 264.31C91.4606 263.943 90.9705 263.404 90.6083 262.692C90.2504 261.977 90.0714 261.097 90.0714 260.053C90.0714 259.009 90.2482 258.114 90.6019 257.368C90.9599 256.622 91.4499 256.051 92.0721 255.655C92.6942 255.254 93.3995 255.054 94.1879 255.054C94.7972 255.054 95.2894 255.156 95.6644 255.361C96.0394 255.561 96.3313 255.795 96.5401 256.064C96.7532 256.332 96.9173 256.569 97.0323 256.773H97.1729V255.182H99.0458V265.217C99.0458 266.061 98.8498 266.754 98.4577 267.295C98.0657 267.836 97.5352 268.237 96.8661 268.496C96.2013 268.756 95.4513 268.886 94.6161 268.886ZM94.5969 263.268C95.1467 263.268 95.6112 263.14 95.9904 262.884C96.3739 262.624 96.6637 262.254 96.8597 261.772C97.06 261.286 97.1602 260.705 97.1602 260.027C97.1602 259.366 97.0621 258.785 96.8661 258.282C96.6701 257.779 96.3825 257.387 96.0032 257.106C95.6239 256.82 95.1552 256.678 94.5969 256.678C94.0217 256.678 93.5423 256.827 93.1587 257.125C92.7752 257.419 92.4854 257.82 92.2894 258.327C92.0977 258.834 92.0018 259.401 92.0018 260.027C92.0018 260.67 92.0998 261.235 92.2958 261.721C92.4918 262.207 92.7816 262.586 93.1651 262.859C93.5529 263.131 94.0302 263.268 94.5969 263.268ZM104.466 265.217C103.844 265.217 103.282 265.102 102.779 264.872C102.276 264.638 101.877 264.299 101.583 263.856C101.294 263.413 101.149 262.869 101.149 262.226C101.149 261.672 101.255 261.216 101.468 260.858C101.681 260.5 101.969 260.217 102.331 260.008C102.694 259.799 103.098 259.641 103.546 259.535C103.993 259.428 104.449 259.347 104.914 259.292C105.502 259.224 105.979 259.168 106.346 259.126C106.712 259.079 106.978 259.004 107.145 258.902C107.311 258.8 107.394 258.634 107.394 258.403V258.359C107.394 257.8 107.236 257.368 106.921 257.061C106.61 256.754 106.145 256.601 105.527 256.601C104.884 256.601 104.377 256.744 104.006 257.029C103.64 257.31 103.386 257.624 103.245 257.969L101.449 257.56C101.662 256.963 101.973 256.482 102.382 256.115C102.796 255.744 103.271 255.476 103.808 255.31C104.345 255.139 104.909 255.054 105.502 255.054C105.894 255.054 106.309 255.101 106.748 255.195C107.191 255.284 107.605 255.45 107.988 255.693C108.376 255.936 108.694 256.283 108.941 256.735C109.188 257.183 109.311 257.764 109.311 258.48V265H107.445V263.658H107.368C107.245 263.905 107.059 264.148 106.812 264.386C106.565 264.625 106.248 264.823 105.86 264.981C105.472 265.138 105.007 265.217 104.466 265.217ZM104.882 263.683C105.41 263.683 105.862 263.579 106.237 263.37C106.616 263.161 106.904 262.888 107.1 262.552C107.3 262.211 107.4 261.847 107.4 261.459V260.193C107.332 260.261 107.2 260.325 107.004 260.385C106.812 260.44 106.593 260.489 106.346 260.532C106.098 260.57 105.858 260.607 105.623 260.641C105.389 260.67 105.193 260.696 105.035 260.717C104.664 260.764 104.326 260.843 104.019 260.954C103.716 261.065 103.473 261.224 103.29 261.433C103.111 261.638 103.022 261.911 103.022 262.251C103.022 262.724 103.196 263.082 103.546 263.325C103.895 263.564 104.341 263.683 104.882 263.683ZM115.974 268.886C115.194 268.886 114.523 268.784 113.96 268.58C113.402 268.375 112.946 268.104 112.592 267.768C112.238 267.431 111.974 267.063 111.8 266.662L113.442 265.984C113.557 266.172 113.711 266.37 113.903 266.579C114.099 266.792 114.363 266.973 114.695 267.122C115.032 267.271 115.464 267.346 115.993 267.346C116.717 267.346 117.316 267.169 117.789 266.815C118.262 266.466 118.498 265.908 118.498 265.141V263.21H118.377C118.262 263.419 118.096 263.651 117.878 263.907C117.665 264.163 117.371 264.384 116.996 264.572C116.621 264.759 116.133 264.853 115.532 264.853C114.757 264.853 114.058 264.672 113.436 264.31C112.818 263.943 112.328 263.404 111.966 262.692C111.608 261.977 111.429 261.097 111.429 260.053C111.429 259.009 111.606 258.114 111.959 257.368C112.317 256.622 112.807 256.051 113.43 255.655C114.052 255.254 114.757 255.054 115.545 255.054C116.155 255.054 116.647 255.156 117.022 255.361C117.397 255.561 117.689 255.795 117.898 256.064C118.111 256.332 118.275 256.569 118.39 256.773H118.53V255.182H120.403V265.217C120.403 266.061 120.207 266.754 119.815 267.295C119.423 267.836 118.893 268.237 118.224 268.496C117.559 268.756 116.809 268.886 115.974 268.886ZM115.954 263.268C116.504 263.268 116.969 263.14 117.348 262.884C117.731 262.624 118.021 262.254 118.217 261.772C118.417 261.286 118.518 260.705 118.518 260.027C118.518 259.366 118.42 258.785 118.224 258.282C118.028 257.779 117.74 257.387 117.361 257.106C116.981 256.82 116.513 256.678 115.954 256.678C115.379 256.678 114.9 256.827 114.516 257.125C114.133 257.419 113.843 257.82 113.647 258.327C113.455 258.834 113.359 259.401 113.359 260.027C113.359 260.67 113.457 261.235 113.653 261.721C113.849 262.207 114.139 262.586 114.523 262.859C114.91 263.131 115.388 263.268 115.954 263.268ZM127.198 265.198C126.231 265.198 125.398 264.991 124.699 264.578C124.004 264.161 123.467 263.575 123.088 262.82C122.713 262.062 122.525 261.173 122.525 260.155C122.525 259.149 122.713 258.263 123.088 257.496C123.467 256.729 123.996 256.13 124.673 255.7C125.355 255.269 126.152 255.054 127.064 255.054C127.618 255.054 128.155 255.146 128.675 255.329C129.194 255.512 129.661 255.8 130.074 256.192C130.488 256.584 130.814 257.093 131.052 257.719C131.291 258.342 131.41 259.098 131.41 259.989V260.666H123.606V259.234H129.537C129.537 258.732 129.435 258.286 129.231 257.898C129.026 257.506 128.738 257.197 128.368 256.972C128.001 256.746 127.571 256.633 127.077 256.633C126.54 256.633 126.071 256.765 125.67 257.029C125.274 257.289 124.967 257.63 124.75 258.052C124.537 258.469 124.43 258.923 124.43 259.413V260.532C124.43 261.188 124.545 261.746 124.775 262.207C125.01 262.667 125.336 263.018 125.753 263.261C126.171 263.5 126.659 263.619 127.217 263.619C127.579 263.619 127.91 263.568 128.208 263.466C128.506 263.359 128.764 263.202 128.981 262.993C129.199 262.784 129.365 262.526 129.48 262.219L131.289 262.545C131.144 263.078 130.884 263.545 130.509 263.945C130.138 264.342 129.672 264.651 129.109 264.872C128.551 265.089 127.914 265.198 127.198 265.198ZM133.531 265V255.182H135.365V256.78H135.487C135.691 256.239 136.026 255.817 136.49 255.514C136.955 255.207 137.511 255.054 138.159 255.054C138.815 255.054 139.365 255.207 139.808 255.514C140.255 255.821 140.586 256.243 140.799 256.78H140.901C141.135 256.256 141.508 255.838 142.02 255.527C142.531 255.212 143.14 255.054 143.848 255.054C144.738 255.054 145.465 255.333 146.027 255.891C146.594 256.45 146.877 257.291 146.877 258.416V265H144.966V258.595C144.966 257.93 144.785 257.449 144.423 257.151C144.061 256.852 143.628 256.703 143.125 256.703C142.503 256.703 142.02 256.895 141.674 257.278C141.329 257.658 141.157 258.146 141.157 258.742V265H139.252V258.474C139.252 257.941 139.086 257.513 138.753 257.189C138.421 256.865 137.988 256.703 137.456 256.703C137.093 256.703 136.759 256.799 136.452 256.991C136.15 257.178 135.904 257.44 135.717 257.777C135.534 258.114 135.442 258.504 135.442 258.947V265H133.531ZM153.671 265.198C152.703 265.198 151.87 264.991 151.171 264.578C150.477 264.161 149.94 263.575 149.561 262.82C149.186 262.062 148.998 261.173 148.998 260.155C148.998 259.149 149.186 258.263 149.561 257.496C149.94 256.729 150.468 256.13 151.146 255.7C151.828 255.269 152.624 255.054 153.536 255.054C154.09 255.054 154.627 255.146 155.147 255.329C155.667 255.512 156.134 255.8 156.547 256.192C156.96 256.584 157.286 257.093 157.525 257.719C157.764 258.342 157.883 259.098 157.883 259.989V260.666H150.078V259.234H156.01C156.01 258.732 155.908 258.286 155.703 257.898C155.499 257.506 155.211 257.197 154.84 256.972C154.474 256.746 154.044 256.633 153.549 256.633C153.012 256.633 152.544 256.765 152.143 257.029C151.747 257.289 151.44 257.63 151.222 258.052C151.009 258.469 150.903 258.923 150.903 259.413V260.532C150.903 261.188 151.018 261.746 151.248 262.207C151.482 262.667 151.808 263.018 152.226 263.261C152.644 263.5 153.132 263.619 153.69 263.619C154.052 263.619 154.382 263.568 154.681 263.466C154.979 263.359 155.237 263.202 155.454 262.993C155.671 262.784 155.838 262.526 155.953 262.219L157.762 262.545C157.617 263.078 157.357 263.545 156.982 263.945C156.611 264.342 156.144 264.651 155.582 264.872C155.024 265.089 154.387 265.198 153.671 265.198ZM161.915 259.17V265H160.004V255.182H161.838V256.78H161.96C162.185 256.26 162.539 255.842 163.021 255.527C163.506 255.212 164.118 255.054 164.855 255.054C165.524 255.054 166.11 255.195 166.613 255.476C167.116 255.753 167.506 256.166 167.783 256.716C168.06 257.266 168.198 257.945 168.198 258.755V265H166.287V258.985C166.287 258.273 166.102 257.717 165.731 257.317C165.36 256.912 164.851 256.71 164.203 256.71C163.76 256.71 163.366 256.805 163.021 256.997C162.68 257.189 162.409 257.47 162.209 257.841C162.013 258.207 161.915 258.651 161.915 259.17ZM175.344 255.182V256.716H169.982V255.182H175.344ZM171.42 252.83H173.331V262.117C173.331 262.488 173.386 262.767 173.497 262.955C173.608 263.138 173.751 263.263 173.925 263.332C174.104 263.396 174.298 263.428 174.507 263.428C174.661 263.428 174.795 263.417 174.91 263.396C175.025 263.374 175.114 263.357 175.178 263.344L175.523 264.923C175.413 264.966 175.255 265.009 175.05 265.051C174.846 265.098 174.59 265.124 174.283 265.128C173.781 265.136 173.312 265.047 172.877 264.859C172.442 264.672 172.091 264.382 171.822 263.99C171.554 263.598 171.42 263.106 171.42 262.513V252.83ZM178.718 265.121C178.368 265.121 178.068 264.998 177.817 264.751C177.565 264.499 177.439 264.197 177.439 263.843C177.439 263.494 177.565 263.195 177.817 262.948C178.068 262.697 178.368 262.571 178.718 262.571C179.067 262.571 179.368 262.697 179.619 262.948C179.871 263.195 179.996 263.494 179.996 263.843C179.996 264.077 179.937 264.293 179.817 264.489C179.702 264.68 179.549 264.834 179.357 264.949C179.165 265.064 178.952 265.121 178.718 265.121ZM178.718 257.975C178.368 257.975 178.068 257.849 177.817 257.598C177.565 257.347 177.439 257.046 177.439 256.697C177.439 256.347 177.565 256.049 177.817 255.802C178.068 255.55 178.368 255.425 178.718 255.425C179.067 255.425 179.368 255.55 179.619 255.802C179.871 256.049 179.996 256.347 179.996 256.697C179.996 256.931 179.937 257.146 179.817 257.342C179.702 257.534 179.549 257.687 179.357 257.803C179.165 257.918 178.952 257.975 178.718 257.975ZM191.98 265.179C190.995 265.179 190.12 265.019 189.353 264.7C188.59 264.376 187.991 263.935 187.556 263.376C187.122 262.818 186.904 262.185 186.904 261.478C186.904 260.933 187.028 260.432 187.275 259.976C187.527 259.516 187.868 259.134 188.298 258.832C188.728 258.525 189.21 258.329 189.743 258.244V258.154C189.044 258.013 188.477 257.675 188.042 257.138C187.608 256.597 187.39 255.968 187.39 255.252C187.39 254.575 187.588 253.972 187.985 253.443C188.381 252.911 188.924 252.493 189.615 252.19C190.309 251.884 191.098 251.73 191.98 251.73C192.862 251.73 193.648 251.884 194.338 252.19C195.033 252.497 195.578 252.917 195.975 253.45C196.371 253.978 196.571 254.579 196.576 255.252C196.571 255.972 196.35 256.601 195.911 257.138C195.472 257.675 194.909 258.013 194.223 258.154V258.244C194.748 258.329 195.223 258.525 195.649 258.832C196.079 259.134 196.42 259.516 196.672 259.976C196.927 260.432 197.057 260.933 197.061 261.478C197.057 262.185 196.838 262.818 196.403 263.376C195.968 263.935 195.368 264.376 194.6 264.7C193.838 265.019 192.964 265.179 191.98 265.179ZM191.98 263.146C192.419 263.146 192.802 263.067 193.13 262.91C193.458 262.748 193.714 262.526 193.897 262.245C194.085 261.96 194.179 261.631 194.179 261.261C194.179 260.881 194.083 260.547 193.891 260.257C193.699 259.963 193.439 259.733 193.111 259.567C192.783 259.396 192.406 259.311 191.98 259.311C191.558 259.311 191.181 259.396 190.848 259.567C190.516 259.733 190.254 259.963 190.062 260.257C189.875 260.547 189.781 260.881 189.781 261.261C189.781 261.631 189.873 261.96 190.056 262.245C190.239 262.526 190.497 262.748 190.829 262.91C191.162 263.067 191.545 263.146 191.98 263.146ZM191.98 257.298C192.346 257.298 192.672 257.223 192.958 257.074C193.243 256.925 193.467 256.718 193.629 256.454C193.791 256.19 193.872 255.885 193.872 255.54C193.872 255.199 193.791 254.901 193.629 254.645C193.467 254.385 193.245 254.183 192.964 254.038C192.683 253.888 192.355 253.814 191.98 253.814C191.609 253.814 191.281 253.888 190.995 254.038C190.71 254.183 190.486 254.385 190.324 254.645C190.167 254.901 190.088 255.199 190.088 255.54C190.088 255.885 190.169 256.19 190.331 256.454C190.493 256.718 190.716 256.925 191.002 257.074C191.287 257.223 191.613 257.298 191.98 257.298ZM200.245 265.166C199.823 265.166 199.461 265.017 199.158 264.719C198.86 264.416 198.711 264.054 198.711 263.632C198.711 263.214 198.86 262.857 199.158 262.558C199.461 262.26 199.823 262.111 200.245 262.111C200.654 262.111 201.012 262.26 201.319 262.558C201.625 262.857 201.779 263.214 201.779 263.632C201.779 263.913 201.706 264.171 201.561 264.406C201.421 264.636 201.235 264.821 201.005 264.962C200.775 265.098 200.522 265.166 200.245 265.166ZM203.989 265V263.006L208.649 258.691C209.045 258.308 209.377 257.962 209.646 257.656C209.919 257.349 210.125 257.048 210.266 256.754C210.406 256.456 210.477 256.134 210.477 255.789C210.477 255.406 210.389 255.075 210.215 254.798C210.04 254.517 209.801 254.302 209.499 254.153C209.196 253.999 208.853 253.923 208.47 253.923C208.069 253.923 207.72 254.004 207.421 254.165C207.123 254.327 206.893 254.56 206.731 254.862C206.569 255.165 206.488 255.525 206.488 255.942H203.861C203.861 255.086 204.055 254.342 204.443 253.712C204.83 253.081 205.374 252.593 206.073 252.248C206.771 251.903 207.577 251.73 208.489 251.73C209.426 251.73 210.242 251.896 210.937 252.229C211.636 252.557 212.179 253.013 212.567 253.597C212.955 254.18 213.149 254.849 213.149 255.604C213.149 256.098 213.051 256.586 212.855 257.067C212.663 257.549 212.32 258.084 211.825 258.672C211.331 259.256 210.634 259.957 209.735 260.775L207.824 262.648V262.737H213.321V265H203.989ZM222.492 262.545V261.855C222.492 261.331 222.603 260.849 222.825 260.411C223.05 259.967 223.376 259.614 223.803 259.349C224.233 259.081 224.757 258.947 225.375 258.947C226.001 258.947 226.528 259.079 226.954 259.343C227.384 259.607 227.708 259.961 227.925 260.404C228.147 260.843 228.258 261.327 228.258 261.855V262.545C228.258 263.07 228.147 263.553 227.925 263.996C227.704 264.435 227.378 264.787 226.947 265.051C226.517 265.32 225.993 265.454 225.375 265.454C224.749 265.454 224.222 265.32 223.796 265.051C223.37 264.787 223.046 264.435 222.825 263.996C222.603 263.553 222.492 263.07 222.492 262.545ZM224.352 261.855V262.545C224.352 262.848 224.425 263.134 224.57 263.402C224.719 263.67 224.987 263.805 225.375 263.805C225.763 263.805 226.027 263.673 226.168 263.408C226.313 263.144 226.385 262.857 226.385 262.545V261.855C226.385 261.544 226.317 261.254 226.18 260.986C226.044 260.717 225.776 260.583 225.375 260.583C224.991 260.583 224.725 260.717 224.576 260.986C224.427 261.254 224.352 261.544 224.352 261.855ZM215.774 255.054V254.364C215.774 253.835 215.887 253.352 216.113 252.913C216.339 252.469 216.665 252.116 217.091 251.852C217.521 251.587 218.041 251.455 218.651 251.455C219.281 251.455 219.81 251.587 220.236 251.852C220.662 252.116 220.986 252.469 221.207 252.913C221.429 253.352 221.54 253.835 221.54 254.364V255.054C221.54 255.582 221.427 256.066 221.201 256.505C220.979 256.944 220.653 257.295 220.223 257.56C219.797 257.82 219.273 257.95 218.651 257.95C218.028 257.95 217.502 257.817 217.072 257.553C216.646 257.285 216.322 256.933 216.1 256.499C215.883 256.06 215.774 255.578 215.774 255.054ZM217.647 254.364V255.054C217.647 255.365 217.719 255.653 217.864 255.917C218.013 256.181 218.276 256.313 218.651 256.313C219.043 256.313 219.309 256.181 219.45 255.917C219.594 255.653 219.667 255.365 219.667 255.054V254.364C219.667 254.053 219.599 253.763 219.462 253.494C219.326 253.226 219.055 253.092 218.651 253.092C218.271 253.092 218.009 253.228 217.864 253.501C217.719 253.773 217.647 254.061 217.647 254.364ZM216.618 265L225.618 251.909H227.293L218.293 265H216.618Z" fill="#1B1B1B"/>
<rect y="280" width="20" height="12" rx="6" fill="#E0E0E0"/>
<path d="M27.4134 279.909V293H25.4382V279.909H27.4134ZM32.0476 287.17V293H30.1364V283.182H31.9709V284.78H32.0923C32.3182 284.26 32.6719 283.842 33.1534 283.527C33.6392 283.212 34.2507 283.054 34.9879 283.054C35.657 283.054 36.2429 283.195 36.7457 283.476C37.2486 283.753 37.6385 284.166 37.9155 284.716C38.1925 285.266 38.331 285.945 38.331 286.755V293H36.4197V286.985C36.4197 286.273 36.2344 285.717 35.8636 285.317C35.4929 284.912 34.9837 284.71 34.3359 284.71C33.8928 284.71 33.4986 284.805 33.1534 284.997C32.8125 285.189 32.5419 285.47 32.3416 285.841C32.1456 286.207 32.0476 286.651 32.0476 287.17ZM43.7514 293.217C43.1293 293.217 42.5668 293.102 42.0639 292.872C41.5611 292.638 41.1626 292.299 40.8686 291.856C40.5788 291.413 40.4339 290.869 40.4339 290.226C40.4339 289.672 40.5405 289.216 40.7536 288.858C40.9666 288.5 41.2543 288.217 41.6165 288.008C41.9787 287.799 42.3835 287.641 42.831 287.535C43.2784 287.428 43.7344 287.347 44.1989 287.292C44.7869 287.224 45.2642 287.168 45.6307 287.126C45.9972 287.079 46.2635 287.004 46.4297 286.902C46.5959 286.8 46.679 286.634 46.679 286.403V286.359C46.679 285.8 46.5213 285.368 46.206 285.061C45.8949 284.754 45.4304 284.601 44.8125 284.601C44.169 284.601 43.6619 284.744 43.2912 285.029C42.9247 285.31 42.6712 285.624 42.5305 285.969L40.7344 285.56C40.9474 284.963 41.2585 284.482 41.6676 284.115C42.081 283.744 42.5561 283.476 43.093 283.31C43.63 283.139 44.1946 283.054 44.7869 283.054C45.179 283.054 45.5945 283.101 46.0334 283.195C46.4766 283.284 46.8899 283.45 47.2734 283.693C47.6612 283.936 47.9787 284.283 48.2259 284.735C48.473 285.183 48.5966 285.764 48.5966 286.48V293H46.7301V291.658H46.6534C46.5298 291.905 46.3445 292.148 46.0973 292.386C45.8501 292.625 45.5327 292.823 45.1449 292.981C44.7571 293.138 44.2926 293.217 43.7514 293.217ZM44.1669 291.683C44.6953 291.683 45.147 291.579 45.522 291.37C45.9013 291.161 46.1889 290.888 46.3849 290.552C46.5852 290.211 46.6854 289.847 46.6854 289.459V288.193C46.6172 288.261 46.4851 288.325 46.2891 288.385C46.0973 288.44 45.8778 288.489 45.6307 288.532C45.3835 288.57 45.1428 288.607 44.9084 288.641C44.674 288.67 44.478 288.696 44.3203 288.717C43.9496 288.764 43.6108 288.843 43.304 288.954C43.0014 289.065 42.7585 289.224 42.5753 289.433C42.3963 289.638 42.3068 289.911 42.3068 290.251C42.3068 290.724 42.4815 291.082 42.831 291.325C43.1804 291.564 43.6257 291.683 44.1669 291.683ZM55.2779 293.198C54.3276 293.198 53.5094 292.983 52.8233 292.553C52.1415 292.118 51.6174 291.519 51.2509 290.756C50.8844 289.994 50.7012 289.12 50.7012 288.136C50.7012 287.138 50.8887 286.259 51.2637 285.496C51.6387 284.729 52.1671 284.13 52.8489 283.7C53.5307 283.269 54.334 283.054 55.2587 283.054C56.0044 283.054 56.6692 283.192 57.253 283.469C57.8368 283.742 58.3077 284.126 58.6657 284.62C59.0279 285.114 59.2431 285.692 59.3113 286.352H57.4512C57.3489 285.892 57.1145 285.496 56.748 285.163C56.3858 284.831 55.9 284.665 55.2907 284.665C54.758 284.665 54.2914 284.805 53.8908 285.087C53.4945 285.364 53.1855 285.76 52.964 286.276C52.7424 286.787 52.6316 287.392 52.6316 288.091C52.6316 288.807 52.7402 289.425 52.9576 289.945C53.1749 290.464 53.4817 290.867 53.878 291.153C54.2786 291.438 54.7495 291.581 55.2907 291.581C55.6529 291.581 55.981 291.515 56.275 291.383C56.5733 291.246 56.8226 291.053 57.0229 290.801C57.2275 290.55 57.3702 290.247 57.4512 289.893H59.3113C59.2431 290.528 59.0364 291.095 58.6912 291.594C58.3461 292.092 57.8837 292.484 57.3042 292.77C56.7289 293.055 56.0534 293.198 55.2779 293.198ZM65.9382 283.182V284.716H60.5753V283.182H65.9382ZM62.0135 280.83H63.9247V290.117C63.9247 290.488 63.9801 290.767 64.0909 290.955C64.2017 291.138 64.3445 291.263 64.5192 291.332C64.6982 291.396 64.892 291.428 65.1009 291.428C65.2543 291.428 65.3885 291.417 65.5036 291.396C65.6186 291.374 65.7081 291.357 65.772 291.344L66.1172 292.923C66.0064 292.966 65.8487 293.009 65.6442 293.051C65.4396 293.098 65.1839 293.124 64.8771 293.128C64.3743 293.136 63.9055 293.047 63.4709 292.859C63.0362 292.672 62.6847 292.382 62.4162 291.99C62.1477 291.598 62.0135 291.106 62.0135 290.513V280.83ZM68.0524 293V283.182H69.9636V293H68.0524ZM69.0176 281.667C68.6852 281.667 68.3997 281.556 68.161 281.335C67.9267 281.109 67.8095 280.84 67.8095 280.529C67.8095 280.214 67.9267 279.945 68.161 279.724C68.3997 279.498 68.6852 279.385 69.0176 279.385C69.35 279.385 69.6333 279.498 69.8677 279.724C70.1064 279.945 70.2257 280.214 70.2257 280.529C70.2257 280.84 70.1064 281.109 69.8677 281.335C69.6333 281.556 69.35 281.667 69.0176 281.667ZM80.9339 283.182L77.3736 293H75.3281L71.7614 283.182H73.8132L76.2997 290.737H76.402L78.8821 283.182H80.9339ZM86.6277 293.198C85.6603 293.198 84.8272 292.991 84.1284 292.578C83.4338 292.161 82.8968 291.575 82.5176 290.82C82.1426 290.062 81.9551 289.173 81.9551 288.155C81.9551 287.149 82.1426 286.263 82.5176 285.496C82.8968 284.729 83.4252 284.13 84.1028 283.7C84.7846 283.269 85.5815 283.054 86.4934 283.054C87.0474 283.054 87.5843 283.146 88.1042 283.329C88.6241 283.512 89.0907 283.8 89.5041 284.192C89.9174 284.584 90.2434 285.093 90.4821 285.719C90.7207 286.342 90.84 287.098 90.84 287.989V288.666H83.0353V287.234H88.9672C88.9672 286.732 88.8649 286.286 88.6603 285.898C88.4558 285.506 88.1681 285.197 87.7974 284.972C87.4309 284.746 87.0005 284.633 86.5062 284.633C85.9693 284.633 85.5005 284.765 85.1 285.029C84.7037 285.289 84.3968 285.63 84.1795 286.052C83.9664 286.469 83.8599 286.923 83.8599 287.413V288.532C83.8599 289.188 83.975 289.746 84.2051 290.207C84.4395 290.667 84.7654 291.018 85.1831 291.261C85.6007 291.5 86.0886 291.619 86.6468 291.619C87.0091 291.619 87.3393 291.568 87.6376 291.466C87.9359 291.359 88.1937 291.202 88.411 290.993C88.6284 290.784 88.7946 290.526 88.9096 290.219L90.7186 290.545C90.5737 291.078 90.3137 291.545 89.9387 291.945C89.568 292.342 89.1014 292.651 88.5389 292.872C87.9806 293.089 87.3436 293.198 86.6277 293.198ZM102.691 288.756H104.634L106.002 290.539L106.648 291.332L108.827 294.176H106.807L105.35 292.278L104.851 291.587L102.691 288.756ZM109.249 286.455C109.249 287.852 108.993 289.054 108.482 290.06C107.971 291.061 107.27 291.832 106.379 292.374C105.493 292.911 104.485 293.179 103.356 293.179C102.222 293.179 101.21 292.911 100.319 292.374C99.4331 291.832 98.7342 291.059 98.2228 290.053C97.7115 289.048 97.4558 287.848 97.4558 286.455C97.4558 285.057 97.7115 283.857 98.2228 282.856C98.7342 281.85 99.4331 281.079 100.319 280.542C101.21 280.001 102.222 279.73 103.356 279.73C104.485 279.73 105.493 280.001 106.379 280.542C107.27 281.079 107.971 281.85 108.482 282.856C108.993 283.857 109.249 285.057 109.249 286.455ZM107.293 286.455C107.293 285.389 107.121 284.492 106.775 283.763C106.434 283.031 105.966 282.477 105.369 282.102C104.777 281.722 104.106 281.533 103.356 281.533C102.601 281.533 101.928 281.722 101.336 282.102C100.743 282.477 100.275 283.031 99.9295 283.763C99.5886 284.492 99.4181 285.389 99.4181 286.455C99.4181 287.52 99.5886 288.419 99.9295 289.152C100.275 289.881 100.743 290.435 101.336 290.814C101.928 291.189 102.601 291.376 103.356 291.376C104.106 291.376 104.777 291.189 105.369 290.814C105.966 290.435 106.434 289.881 106.775 289.152C107.121 288.419 107.293 287.52 107.293 286.455ZM111.712 293V279.909H116.378C117.396 279.909 118.24 280.094 118.909 280.465C119.578 280.836 120.079 281.343 120.411 281.987C120.744 282.626 120.91 283.346 120.91 284.147C120.91 284.952 120.741 285.677 120.405 286.32C120.072 286.96 119.57 287.467 118.896 287.842C118.227 288.212 117.386 288.398 116.371 288.398H113.163V286.723H116.192C116.836 286.723 117.358 286.612 117.759 286.391C118.159 286.165 118.453 285.858 118.641 285.47C118.828 285.082 118.922 284.641 118.922 284.147C118.922 283.653 118.828 283.214 118.641 282.83C118.453 282.447 118.157 282.146 117.752 281.929C117.352 281.712 116.823 281.603 116.167 281.603H113.687V293H111.712ZM130.429 285.579L128.697 285.886C128.624 285.664 128.509 285.453 128.352 285.253C128.198 285.053 127.99 284.888 127.725 284.761C127.461 284.633 127.131 284.569 126.735 284.569C126.193 284.569 125.742 284.69 125.379 284.933C125.017 285.172 124.836 285.481 124.836 285.86C124.836 286.188 124.958 286.452 125.2 286.653C125.443 286.853 125.835 287.017 126.377 287.145L127.936 287.503C128.84 287.712 129.513 288.033 129.956 288.468C130.399 288.903 130.621 289.467 130.621 290.162C130.621 290.75 130.45 291.274 130.11 291.734C129.773 292.19 129.302 292.548 128.697 292.808C128.096 293.068 127.399 293.198 126.607 293.198C125.507 293.198 124.61 292.964 123.916 292.495C123.221 292.022 122.795 291.351 122.637 290.482L124.485 290.2C124.6 290.682 124.836 291.046 125.194 291.293C125.552 291.536 126.019 291.658 126.594 291.658C127.22 291.658 127.721 291.528 128.096 291.268C128.471 291.004 128.659 290.682 128.659 290.303C128.659 289.996 128.544 289.738 128.313 289.529C128.088 289.32 127.74 289.163 127.271 289.056L125.61 288.692C124.693 288.483 124.016 288.151 123.577 287.695C123.142 287.239 122.925 286.661 122.925 285.962C122.925 285.383 123.087 284.876 123.411 284.441C123.735 284.006 124.182 283.668 124.753 283.425C125.324 283.178 125.978 283.054 126.715 283.054C127.776 283.054 128.612 283.284 129.221 283.744C129.83 284.2 130.233 284.812 130.429 285.579ZM133.982 293.121C133.632 293.121 133.332 292.998 133.08 292.751C132.829 292.499 132.703 292.197 132.703 291.843C132.703 291.494 132.829 291.195 133.08 290.948C133.332 290.697 133.632 290.571 133.982 290.571C134.331 290.571 134.631 290.697 134.883 290.948C135.134 291.195 135.26 291.494 135.26 291.843C135.26 292.077 135.2 292.293 135.081 292.489C134.966 292.68 134.812 292.834 134.621 292.949C134.429 293.064 134.216 293.121 133.982 293.121ZM133.982 285.975C133.632 285.975 133.332 285.849 133.08 285.598C132.829 285.347 132.703 285.046 132.703 284.697C132.703 284.347 132.829 284.049 133.08 283.802C133.332 283.55 133.632 283.425 133.982 283.425C134.331 283.425 134.631 283.55 134.883 283.802C135.134 284.049 135.26 284.347 135.26 284.697C135.26 284.931 135.2 285.146 135.081 285.342C134.966 285.534 134.812 285.687 134.621 285.803C134.429 285.918 134.216 285.975 133.982 285.975ZM142.162 290.699V288.519L147.627 279.909H149.506V282.926H148.394L144.949 288.379V288.481H152.715V290.699H142.162ZM148.445 293V290.034L148.496 289.069V279.909H151.091V293H148.445ZM159.34 293.179C158.437 293.179 157.632 293.013 156.924 292.68C156.221 292.348 155.663 291.89 155.249 291.306C154.836 290.722 154.621 290.053 154.604 289.299H157.289C157.318 289.806 157.531 290.217 157.928 290.533C158.324 290.848 158.795 291.006 159.34 291.006C159.775 291.006 160.159 290.91 160.491 290.718C160.828 290.522 161.09 290.251 161.277 289.906C161.469 289.557 161.565 289.156 161.565 288.705C161.565 288.244 161.467 287.839 161.271 287.49C161.079 287.141 160.813 286.868 160.472 286.672C160.131 286.476 159.741 286.376 159.302 286.371C158.919 286.371 158.546 286.45 158.183 286.608C157.825 286.766 157.546 286.981 157.346 287.254L154.885 286.812L155.505 279.909H163.508V282.172H157.787L157.448 285.451H157.525C157.755 285.127 158.102 284.859 158.567 284.646C159.031 284.433 159.551 284.326 160.127 284.326C160.915 284.326 161.618 284.511 162.236 284.882C162.854 285.253 163.342 285.762 163.7 286.41C164.058 287.053 164.235 287.795 164.23 288.634C164.235 289.516 164.03 290.3 163.617 290.987C163.208 291.668 162.634 292.205 161.897 292.597C161.164 292.985 160.312 293.179 159.34 293.179ZM167.356 293.166C166.934 293.166 166.572 293.017 166.269 292.719C165.971 292.416 165.822 292.054 165.822 291.632C165.822 291.214 165.971 290.857 166.269 290.558C166.572 290.26 166.934 290.111 167.356 290.111C167.765 290.111 168.123 290.26 168.43 290.558C168.737 290.857 168.89 291.214 168.89 291.632C168.89 291.913 168.818 292.171 168.673 292.406C168.532 292.636 168.347 292.821 168.117 292.962C167.887 293.098 167.633 293.166 167.356 293.166ZM171.1 293V291.006L175.76 286.691C176.156 286.308 176.489 285.962 176.757 285.656C177.03 285.349 177.237 285.048 177.377 284.754C177.518 284.456 177.588 284.134 177.588 283.789C177.588 283.406 177.501 283.075 177.326 282.798C177.151 282.517 176.913 282.302 176.61 282.153C176.308 281.999 175.964 281.923 175.581 281.923C175.18 281.923 174.831 282.004 174.533 282.165C174.234 282.327 174.004 282.56 173.842 282.862C173.68 283.165 173.599 283.525 173.599 283.942H170.972C170.972 283.086 171.166 282.342 171.554 281.712C171.942 281.081 172.485 280.593 173.184 280.248C173.883 279.903 174.688 279.73 175.6 279.73C176.538 279.73 177.354 279.896 178.048 280.229C178.747 280.557 179.29 281.013 179.678 281.597C180.066 282.18 180.26 282.849 180.26 283.604C180.26 284.098 180.162 284.586 179.966 285.067C179.774 285.549 179.431 286.084 178.937 286.672C178.442 287.256 177.746 287.957 176.847 288.775L174.935 290.648V290.737H180.433V293H171.1ZM189.604 290.545V289.855C189.604 289.331 189.714 288.849 189.936 288.411C190.162 287.967 190.488 287.614 190.914 287.349C191.344 287.081 191.868 286.947 192.486 286.947C193.113 286.947 193.639 287.079 194.065 287.343C194.496 287.607 194.819 287.961 195.037 288.404C195.258 288.843 195.369 289.327 195.369 289.855V290.545C195.369 291.07 195.258 291.553 195.037 291.996C194.815 292.435 194.489 292.787 194.059 293.051C193.628 293.32 193.104 293.454 192.486 293.454C191.86 293.454 191.334 293.32 190.907 293.051C190.481 292.787 190.157 292.435 189.936 291.996C189.714 291.553 189.604 291.07 189.604 290.545ZM191.464 289.855V290.545C191.464 290.848 191.536 291.134 191.681 291.402C191.83 291.67 192.099 291.805 192.486 291.805C192.874 291.805 193.138 291.673 193.279 291.408C193.424 291.144 193.496 290.857 193.496 290.545V289.855C193.496 289.544 193.428 289.254 193.292 288.986C193.155 288.717 192.887 288.583 192.486 288.583C192.103 288.583 191.836 288.717 191.687 288.986C191.538 289.254 191.464 289.544 191.464 289.855ZM182.885 283.054V282.364C182.885 281.835 182.998 281.352 183.224 280.913C183.45 280.469 183.776 280.116 184.202 279.852C184.633 279.587 185.153 279.455 185.762 279.455C186.393 279.455 186.921 279.587 187.347 279.852C187.773 280.116 188.097 280.469 188.319 280.913C188.54 281.352 188.651 281.835 188.651 282.364V283.054C188.651 283.582 188.538 284.066 188.312 284.505C188.091 284.944 187.765 285.295 187.334 285.56C186.908 285.82 186.384 285.95 185.762 285.95C185.14 285.95 184.613 285.817 184.183 285.553C183.757 285.285 183.433 284.933 183.211 284.499C182.994 284.06 182.885 283.578 182.885 283.054ZM184.758 282.364V283.054C184.758 283.365 184.831 283.653 184.976 283.917C185.125 284.181 185.387 284.313 185.762 284.313C186.154 284.313 186.42 284.181 186.561 283.917C186.706 283.653 186.778 283.365 186.778 283.054V282.364C186.778 282.053 186.71 281.763 186.574 281.494C186.437 281.226 186.167 281.092 185.762 281.092C185.383 281.092 185.121 281.228 184.976 281.501C184.831 281.773 184.758 282.061 184.758 282.364ZM183.729 293L192.729 279.909H194.404L185.404 293H183.729Z" fill="#1B1B1B"/>
<mask id="path-8-inside-2_3113_11814" fill="white">
<path d="M138.146 9.00304C164.162 16.4186 186.288 33.6337 199.871 57.0277C213.454 80.4218 217.436 108.172 210.98 134.442C204.523 160.711 188.131 183.454 165.251 197.886C142.371 212.318 114.786 217.315 88.2969 211.826L109.5 109.5L138.146 9.00304Z"/>
</mask>
<path d="M138.146 9.00304C164.162 16.4186 186.288 33.6337 199.871 57.0277C213.454 80.4218 217.436 108.172 210.98 134.442C204.523 160.711 188.131 183.454 165.251 197.886C142.371 212.318 114.786 217.315 88.2969 211.826L109.5 109.5L138.146 9.00304Z" fill="#E0E0E0" stroke="white" stroke-width="4" mask="url(#path-8-inside-2_3113_11814)"/>
<mask id="path-9-inside-3_3113_11814" fill="white">
<path d="M105.561 5.07427C116.594 4.65808 127.623 5.99302 138.239 9.02939L109.5 109.5L105.561 5.07427Z"/>
</mask>
<path d="M105.561 5.07427C116.594 4.65808 127.623 5.99302 138.239 9.02939L109.5 109.5L105.561 5.07427Z" fill="#FAEED4" stroke="white" stroke-width="4" mask="url(#path-9-inside-3_3113_11814)"/>
<mask id="path-10-outside-4_3113_11814" maskUnits="userSpaceOnUse" x="0" y="1" width="114" height="215" fill="black">
<rect fill="white" y="1" width="114" height="215"/>
<path d="M88.9123 209.911C88.6904 210.993 87.6325 211.692 86.5549 211.45C62.3146 205.995 40.7862 192.072 25.8636 172.151C10.5409 151.697 3.24556 126.335 5.35735 100.865C7.46914 75.3951 18.8417 51.5819 37.3239 33.9297C55.3235 16.7386 78.8509 6.55186 103.659 5.16337C104.761 5.10165 105.69 5.96552 105.73 7.06934L109.491 109.26C109.497 109.419 109.484 109.579 109.452 109.735L88.9123 209.911Z"/>
</mask>
<path d="M88.9123 209.911C88.6904 210.993 87.6325 211.692 86.5549 211.45C62.3146 205.995 40.7862 192.072 25.8636 172.151C10.5409 151.697 3.24556 126.335 5.35735 100.865C7.46914 75.3951 18.8417 51.5819 37.3239 33.9297C55.3235 16.7386 78.8509 6.55186 103.659 5.16337C104.761 5.10165 105.69 5.96552 105.73 7.06934L109.491 109.26C109.497 109.419 109.484 109.579 109.452 109.735L88.9123 209.911Z" stroke="white" stroke-width="8" mask="url(#path-10-outside-4_3113_11814)"/>
<path d="M148.863 127.699V125.519L154.328 116.909H156.207V119.926H155.095L151.65 125.379V125.481H159.416V127.699H148.863ZM155.146 130V127.034L155.197 126.069V116.909H157.793V130H155.146ZM166.042 130.179C165.138 130.179 164.333 130.013 163.625 129.68C162.922 129.348 162.364 128.89 161.951 128.306C161.537 127.722 161.322 127.053 161.305 126.299H163.99C164.02 126.806 164.233 127.217 164.629 127.533C165.025 127.848 165.496 128.006 166.042 128.006C166.476 128.006 166.86 127.91 167.192 127.718C167.529 127.522 167.791 127.251 167.978 126.906C168.17 126.557 168.266 126.156 168.266 125.705C168.266 125.244 168.168 124.839 167.972 124.49C167.78 124.141 167.514 123.868 167.173 123.672C166.832 123.476 166.442 123.376 166.003 123.371C165.62 123.371 165.247 123.45 164.885 123.608C164.527 123.766 164.248 123.981 164.047 124.254L161.586 123.812L162.206 116.909H170.209V119.172H164.488L164.15 122.451H164.226C164.456 122.127 164.804 121.859 165.268 121.646C165.733 121.433 166.252 121.326 166.828 121.326C167.616 121.326 168.319 121.511 168.937 121.882C169.555 122.253 170.043 122.762 170.401 123.41C170.759 124.053 170.936 124.795 170.931 125.634C170.936 126.516 170.731 127.3 170.318 127.987C169.909 128.668 169.336 129.205 168.598 129.597C167.865 129.985 167.013 130.179 166.042 130.179ZM174.057 130.166C173.635 130.166 173.273 130.017 172.971 129.719C172.672 129.416 172.523 129.054 172.523 128.632C172.523 128.214 172.672 127.857 172.971 127.558C173.273 127.26 173.635 127.111 174.057 127.111C174.466 127.111 174.824 127.26 175.131 127.558C175.438 127.857 175.591 128.214 175.591 128.632C175.591 128.913 175.519 129.171 175.374 129.406C175.233 129.636 175.048 129.821 174.818 129.962C174.588 130.098 174.334 130.166 174.057 130.166ZM177.801 130V128.006L182.461 123.691C182.857 123.308 183.19 122.962 183.458 122.656C183.731 122.349 183.938 122.048 184.078 121.754C184.219 121.456 184.289 121.134 184.289 120.789C184.289 120.406 184.202 120.075 184.027 119.798C183.852 119.517 183.614 119.302 183.311 119.153C183.009 118.999 182.666 118.923 182.282 118.923C181.882 118.923 181.532 119.004 181.234 119.165C180.936 119.327 180.705 119.56 180.544 119.862C180.382 120.165 180.301 120.525 180.301 120.942H177.673C177.673 120.086 177.867 119.342 178.255 118.712C178.643 118.081 179.186 117.593 179.885 117.248C180.584 116.903 181.389 116.73 182.301 116.73C183.239 116.73 184.055 116.896 184.749 117.229C185.448 117.557 185.992 118.013 186.379 118.597C186.767 119.18 186.961 119.849 186.961 120.604C186.961 121.098 186.863 121.586 186.667 122.067C186.475 122.549 186.132 123.084 185.638 123.672C185.144 124.256 184.447 124.957 183.548 125.775L181.637 127.648V127.737H187.134V130H177.801Z" fill="#1B1B1B"/>
<path d="M117.945 41.179C116.96 41.179 116.085 41.0192 115.317 40.6996C114.555 40.3757 113.956 39.9347 113.521 39.3764C113.087 38.8182 112.869 38.1854 112.869 37.478C112.869 36.9325 112.993 36.4318 113.24 35.9759C113.491 35.5156 113.832 35.1342 114.263 34.8317C114.693 34.5249 115.175 34.3288 115.707 34.2436V34.1541C115.009 34.0135 114.442 33.6747 114.007 33.1378C113.572 32.5966 113.355 31.968 113.355 31.2521C113.355 30.5746 113.553 29.9716 113.95 29.4432C114.346 28.9105 114.889 28.4929 115.58 28.1903C116.274 27.8835 117.062 27.7301 117.945 27.7301C118.827 27.7301 119.613 27.8835 120.303 28.1903C120.998 28.4972 121.543 28.9169 121.94 29.4496C122.336 29.978 122.536 30.5788 122.54 31.2521C122.536 31.9723 122.315 32.6009 121.876 33.1378C121.437 33.6747 120.874 34.0135 120.188 34.1541V34.2436C120.712 34.3288 121.188 34.5249 121.614 34.8317C122.044 35.1342 122.385 35.5156 122.636 35.9759C122.892 36.4318 123.022 36.9325 123.026 37.478C123.022 38.1854 122.803 38.8182 122.368 39.3764C121.933 39.9347 121.332 40.3757 120.565 40.6996C119.803 41.0192 118.929 41.179 117.945 41.179ZM117.945 39.1463C118.384 39.1463 118.767 39.0675 119.095 38.9098C119.423 38.7479 119.679 38.5263 119.862 38.245C120.05 37.9595 120.143 37.6314 120.143 37.2607C120.143 36.8814 120.048 36.5469 119.856 36.2571C119.664 35.9631 119.404 35.733 119.076 35.5668C118.748 35.3963 118.371 35.3111 117.945 35.3111C117.523 35.3111 117.146 35.3963 116.813 35.5668C116.481 35.733 116.219 35.9631 116.027 36.2571C115.839 36.5469 115.746 36.8814 115.746 37.2607C115.746 37.6314 115.837 37.9595 116.021 38.245C116.204 38.5263 116.462 38.7479 116.794 38.9098C117.126 39.0675 117.51 39.1463 117.945 39.1463ZM117.945 33.2976C118.311 33.2976 118.637 33.223 118.923 33.0739C119.208 32.9247 119.432 32.718 119.594 32.4538C119.756 32.1896 119.837 31.8849 119.837 31.5398C119.837 31.1989 119.756 30.9006 119.594 30.6449C119.432 30.3849 119.21 30.1825 118.929 30.0376C118.648 29.8885 118.32 29.8139 117.945 29.8139C117.574 29.8139 117.246 29.8885 116.96 30.0376C116.675 30.1825 116.451 30.3849 116.289 30.6449C116.131 30.9006 116.053 31.1989 116.053 31.5398C116.053 31.8849 116.134 32.1896 116.295 32.4538C116.457 32.718 116.681 32.9247 116.967 33.0739C117.252 33.223 117.578 33.2976 117.945 33.2976ZM126.21 41.1662C125.788 41.1662 125.425 41.017 125.123 40.7188C124.825 40.4162 124.675 40.054 124.675 39.6321C124.675 39.2145 124.825 38.8565 125.123 38.5582C125.425 38.2599 125.788 38.1108 126.21 38.1108C126.619 38.1108 126.977 38.2599 127.283 38.5582C127.59 38.8565 127.744 39.2145 127.744 39.6321C127.744 39.9134 127.671 40.1712 127.526 40.4055C127.386 40.6357 127.2 40.821 126.97 40.9616C126.74 41.098 126.487 41.1662 126.21 41.1662ZM129.954 41V39.0057L134.613 34.6911C135.01 34.3075 135.342 33.9624 135.611 33.6555C135.883 33.3487 136.09 33.0483 136.231 32.7543C136.371 32.456 136.442 32.1342 136.442 31.7891C136.442 31.4055 136.354 31.0753 136.18 30.7983C136.005 30.517 135.766 30.3018 135.464 30.1527C135.161 29.9993 134.818 29.9226 134.434 29.9226C134.034 29.9226 133.684 30.0036 133.386 30.1655C133.088 30.3274 132.858 30.5597 132.696 30.8622C132.534 31.1648 132.453 31.5249 132.453 31.9425H129.826C129.826 31.0859 130.02 30.3423 130.407 29.7116C130.795 29.081 131.339 28.593 132.037 28.2479C132.736 27.9027 133.542 27.7301 134.454 27.7301C135.391 27.7301 136.207 27.8963 136.902 28.2287C137.601 28.5568 138.144 29.0128 138.532 29.5966C138.92 30.1804 139.113 30.8494 139.113 31.6037C139.113 32.098 139.015 32.5859 138.819 33.0675C138.628 33.549 138.285 34.0838 137.79 34.6719C137.296 35.2557 136.599 35.9567 135.7 36.7749L133.789 38.6477V38.7372H139.286V41H129.954Z" fill="#1B1B1B"/>
<path d="M42.8629 106.699V104.519L48.3281 95.9091H50.2074V98.9261H49.0952L45.6499 104.379V104.481H53.4162V106.699H42.8629ZM49.1463 109V106.034L49.1974 105.069V95.9091H51.7926V109H49.1463ZM60.2844 109.179C59.6112 109.175 58.9613 109.062 58.3349 108.84C57.7127 108.619 57.1545 108.259 56.6602 107.76C56.1658 107.261 55.7738 106.601 55.484 105.778C55.1985 104.956 55.0558 103.946 55.0558 102.749C55.06 101.649 55.1857 100.667 55.4329 99.8018C55.6843 98.9325 56.0423 98.1953 56.5067 97.5902C56.9755 96.9851 57.5359 96.5249 58.1879 96.2095C58.8398 95.8899 59.5707 95.7301 60.3803 95.7301C61.2539 95.7301 62.0252 95.9006 62.6942 96.2415C63.3633 96.5781 63.9002 97.0362 64.305 97.6158C64.7141 98.1953 64.9613 98.8452 65.0465 99.5653H62.3171C62.2106 99.1094 61.9869 98.7514 61.646 98.4915C61.305 98.2315 60.8832 98.1016 60.3803 98.1016C59.5281 98.1016 58.8803 98.4723 58.4371 99.2138C57.9982 99.9553 57.7745 100.963 57.766 102.237H57.8555C58.0515 101.849 58.3157 101.519 58.6481 101.246C58.9847 100.969 59.3661 100.759 59.7923 100.614C60.2227 100.464 60.6765 100.39 61.1538 100.39C61.9293 100.39 62.6197 100.573 63.2248 100.94C63.8299 101.302 64.3072 101.8 64.6566 102.435C65.006 103.07 65.1808 103.797 65.1808 104.615C65.1808 105.501 64.9741 106.29 64.5607 106.98C64.1516 107.67 63.5785 108.212 62.8413 108.604C62.1083 108.991 61.256 109.183 60.2844 109.179ZM60.2717 107.006C60.6978 107.006 61.0792 106.903 61.4158 106.699C61.7525 106.494 62.0167 106.217 62.2085 105.868C62.4002 105.518 62.4961 105.126 62.4961 104.692C62.4961 104.257 62.4002 103.867 62.2085 103.522C62.021 103.177 61.761 102.902 61.4286 102.697C61.0962 102.493 60.717 102.391 60.2908 102.391C59.9712 102.391 59.6751 102.45 59.4023 102.57C59.1339 102.689 58.8974 102.855 58.6928 103.068C58.4925 103.281 58.3349 103.528 58.2198 103.81C58.1048 104.087 58.0472 104.383 58.0472 104.698C58.0472 105.12 58.1431 105.506 58.3349 105.855C58.5309 106.205 58.7951 106.484 59.1275 106.692C59.4641 106.901 59.8455 107.006 60.2717 107.006ZM68.2154 109.166C67.7935 109.166 67.4313 109.017 67.1287 108.719C66.8304 108.416 66.6813 108.054 66.6813 107.632C66.6813 107.214 66.8304 106.857 67.1287 106.558C67.4313 106.26 67.7935 106.111 68.2154 106.111C68.6245 106.111 68.9824 106.26 69.2892 106.558C69.5961 106.857 69.7495 107.214 69.7495 107.632C69.7495 107.913 69.677 108.171 69.5321 108.406C69.3915 108.636 69.2061 108.821 68.976 108.962C68.7459 109.098 68.4924 109.166 68.2154 109.166ZM76.4563 109.179C75.783 109.175 75.1332 109.062 74.5067 108.84C73.8846 108.619 73.3263 108.259 72.832 107.76C72.3377 107.261 71.9457 106.601 71.6559 105.778C71.3704 104.956 71.2276 103.946 71.2276 102.749C71.2319 101.649 71.3576 100.667 71.6048 99.8018C71.8562 98.9325 72.2141 98.1953 72.6786 97.5902C73.1474 96.9851 73.7077 96.5249 74.3597 96.2095C75.0117 95.8899 75.7425 95.7301 76.5522 95.7301C77.4258 95.7301 78.1971 95.9006 78.8661 96.2415C79.5352 96.5781 80.0721 97.0362 80.4769 97.6158C80.886 98.1953 81.1332 98.8452 81.2184 99.5653H78.489C78.3825 99.1094 78.1587 98.7514 77.8178 98.4915C77.4769 98.2315 77.055 98.1016 76.5522 98.1016C75.6999 98.1016 75.0522 98.4723 74.609 99.2138C74.1701 99.9553 73.9464 100.963 73.9379 102.237H74.0273C74.2234 101.849 74.4876 101.519 74.82 101.246C75.1566 100.969 75.538 100.759 75.9641 100.614C76.3945 100.464 76.8484 100.39 77.3256 100.39C78.1012 100.39 78.7915 100.573 79.3967 100.94C80.0018 101.302 80.479 101.8 80.8285 102.435C81.1779 103.07 81.3526 103.797 81.3526 104.615C81.3526 105.501 81.146 106.29 80.7326 106.98C80.3235 107.67 79.7504 108.212 79.0131 108.604C78.2802 108.991 77.4279 109.183 76.4563 109.179ZM76.4435 107.006C76.8697 107.006 77.2511 106.903 77.5877 106.699C77.9244 106.494 78.1886 106.217 78.3803 105.868C78.5721 105.518 78.668 105.126 78.668 104.692C78.668 104.257 78.5721 103.867 78.3803 103.522C78.1928 103.177 77.9329 102.902 77.6005 102.697C77.2681 102.493 76.8888 102.391 76.4627 102.391C76.1431 102.391 75.8469 102.45 75.5742 102.57C75.3058 102.689 75.0692 102.855 74.8647 103.068C74.6644 103.281 74.5067 103.528 74.3917 103.81C74.2766 104.087 74.2191 104.383 74.2191 104.698C74.2191 105.12 74.315 105.506 74.5067 105.855C74.7028 106.205 74.967 106.484 75.2994 106.692C75.636 106.901 76.0174 107.006 76.4435 107.006Z" fill="#1B1B1B"/>
</svg>
