<svg width="88" height="28" viewBox="0 0 88 28" fill="none" xmlns="http://www.w3.org/2000/svg">
<path d="M45.5449 2.38165C46.0967 2.38206 46.5447 2.82979 46.5449 3.38165V4.74103C47.7635 5.0728 48.885 5.6379 49.8594 6.38654L51.248 5.08575C51.651 4.70847 52.2845 4.72892 52.6621 5.13165L54.0576 6.62091C54.4351 7.02358 54.4149 7.65618 54.0127 8.034L52.4795 9.47052C52.9755 10.3951 53.3246 11.4096 53.4951 12.4842H54.6357C55.1875 12.4846 55.6355 12.9323 55.6357 13.4842V15.5252C55.6357 16.0772 55.1877 16.5248 54.6357 16.5252H53.2773C53.0155 17.4874 52.6075 18.3882 52.0791 19.2049L53.0029 20.1561C53.3875 20.5521 53.378 21.1853 52.9824 21.5701L51.5176 22.992C51.1214 23.3767 50.4883 23.3677 50.1035 22.9715L49.2207 22.0623C48.4051 22.5897 47.5056 22.997 46.5449 23.2586V24.618C46.5447 25.1698 46.0967 25.6176 45.5449 25.618H43.5039C42.9518 25.618 42.5041 25.1701 42.5039 24.618V23.4774C41.3321 23.2915 40.2322 22.8925 39.2422 22.3231L37.9131 23.5692C37.5102 23.9469 36.8768 23.9271 36.499 23.5242L35.1035 22.035C34.7259 21.6322 34.7459 20.9997 35.1484 20.6219L36.2314 19.6063C35.5689 18.6875 35.0652 17.6477 34.7598 16.5252H33.4023C32.8501 16.5252 32.4023 16.0775 32.4023 15.5252V13.4842C32.4026 12.9321 32.8502 12.4842 33.4023 12.4842H34.542C34.7939 10.8968 35.4339 9.43909 36.3633 8.21173L35.1143 6.92462C34.7295 6.52846 34.7387 5.89533 35.1348 5.51056L36.5996 4.08868C36.9959 3.70445 37.6291 3.71316 38.0137 4.10919L39.4297 5.56818C40.3701 5.05523 41.4062 4.69633 42.5039 4.52228V3.38165C42.5041 2.82954 42.9517 2.38165 43.5039 2.38165H45.5449ZM44.0205 8.44318C40.9521 8.44338 38.465 10.9314 38.4648 13.9998C38.4649 17.0684 40.952 19.5563 44.0205 19.5565C47.0536 19.5562 49.5176 17.1258 49.5742 14.1063V13.8924C49.5168 10.8736 47.053 8.44338 44.0205 8.44318Z" fill="#FAEED4"/>
<mask id="path-2-inside-1_3105_11668" fill="white">
<path d="M51.2195 5.31266L51.2138 5.30705C51.0652 5.16097 50.8748 5.08845 50.6861 5.09248C50.4706 5.09708 50.3028 5.20835 50.1679 5.33535L48.9395 6.56006C48.789 6.70974 48.5564 6.72653 48.3875 6.61075C48.0896 6.41872 47.7698 6.24654 47.4382 6.09264C47.071 5.92214 46.6876 5.77457 46.302 5.64723C46.1186 5.58685 46.0023 5.41635 46.0023 5.23319L46.0021 3.31484C46.0021 2.90123 45.6952 2.59457 45.2816 2.59457H42.8738C42.4734 2.59457 42.1574 2.91552 42.1574 3.31484V5.07138C42.1574 5.2859 42.0023 5.46436 41.7982 5.50076C41.0648 5.67529 40.345 5.9478 39.6833 6.30951C39.6014 6.35408 39.5074 6.37117 39.4151 6.35825C39.3228 6.34533 39.2371 6.30309 39.1706 6.23777C38.7034 5.7774 38.2182 5.31746 37.7617 4.8486C37.4823 4.56837 37.0626 4.59715 36.7837 4.8617C36.2122 5.39237 35.6405 6.00828 35.0844 6.56433C34.8021 6.85199 34.796 7.29082 35.0829 7.57772L35.1049 7.60141L36.3378 8.83826C36.4875 8.98875 36.5042 9.22141 36.3885 9.39032C36.1964 9.68816 36.0242 10.0081 35.8702 10.3399C35.6999 10.707 35.5522 11.0904 35.425 11.4758C35.3647 11.6592 35.1941 11.7755 35.011 11.7755L33.0928 11.7757C32.6802 11.7757 32.3723 12.0834 32.3723 12.4962V14.904C32.3723 15.3047 32.6933 15.6202 33.0928 15.6202H34.8491C35.0637 15.6202 35.2421 15.7753 35.2785 15.9794C35.4562 16.7267 35.7356 17.4445 36.0909 18.125C36.1811 18.2978 36.1435 18.5036 36.0122 18.6341C35.5508 19.0945 35.0914 19.5593 34.6266 20.0159C34.346 20.2955 34.3748 20.7152 34.6398 20.9945C35.1599 21.5667 35.7792 22.1475 36.3283 22.703C36.6174 22.9704 37.0807 22.9777 37.3696 22.706L38.6126 21.4434C38.7632 21.2903 38.9993 21.2722 39.17 21.3906C39.8113 21.8032 40.5315 22.1146 41.2536 22.3527C41.437 22.413 41.5533 22.5836 41.5533 22.7667L41.5535 24.685C41.5535 25.0965 41.8624 25.4054 42.2739 25.4054H44.6817C45.0821 25.4054 45.3982 25.0843 45.3982 24.685V22.9285C45.3982 22.8262 45.4342 22.7271 45.4998 22.6486C45.5655 22.5701 45.6567 22.5172 45.7574 22.4992C46.5087 22.3207 47.2187 22.0442 47.9028 21.687C47.9849 21.6441 48.0787 21.6286 48.1703 21.6427C48.2619 21.6569 48.3466 21.6999 48.412 21.7656L49.774 23.1312C50.032 23.4057 50.4702 23.4262 50.7459 23.1649C50.7667 23.145 50.784 23.1268 50.8039 23.1072L52.4809 21.4495C52.6165 21.3026 52.6852 21.1133 52.6852 20.9237C52.6852 20.7368 52.6184 20.5513 52.4839 20.4082L51.2211 19.1652C51.1481 19.0933 51.1028 18.998 51.0931 18.896C51.0835 18.7941 51.1101 18.692 51.1684 18.6077C51.5817 17.9659 51.8918 17.2475 52.1306 16.524C52.1909 16.3406 52.3615 16.2244 52.5446 16.2244L54.4628 16.2242C54.8754 16.2242 55.1832 15.9167 55.1832 15.5039V13.0961C55.1832 12.6954 54.8623 12.3796 54.4628 12.3796H52.7065C52.4891 12.3796 52.3089 12.2206 52.2757 12.0126C52.1836 11.6426 52.0693 11.2786 51.9335 10.9224C51.7979 10.5668 51.6427 10.2249 51.4682 9.90537C51.4236 9.82352 51.4065 9.72951 51.4194 9.63721C51.4323 9.54492 51.4746 9.45921 51.5399 9.39272C52 8.92583 52.4604 8.4387 52.9296 7.98337C53.2094 7.70458 53.1805 7.28483 52.9164 7.00633C52.3945 6.43905 51.7709 5.86281 51.2195 5.31266ZM40.7683 18.8133C40.8096 19.0737 40.632 19.3185 40.3716 19.3598C40.1111 19.4011 39.8664 19.2235 39.8251 18.9631L39.6219 17.7052C39.5822 17.4549 39.7447 17.2191 39.9887 17.1645L41.2605 16.8766C41.5178 16.8188 41.7734 16.9805 41.8313 17.2378C41.8891 17.4951 41.7274 17.7507 41.47 17.8086L41.2238 17.8643C42.3675 18.5841 43.5105 18.7838 44.5376 18.6171C45.354 18.4845 46.1015 18.1217 46.72 17.6061C47.3409 17.0885 47.8322 16.4168 48.1338 15.6687C48.5891 14.5393 48.6084 13.2356 47.9826 12.03C47.8725 11.8164 47.9564 11.5539 48.17 11.4439C48.3836 11.3338 48.6461 11.4177 48.7561 11.6313C49.5079 13.0795 49.4862 14.6415 48.9415 15.9925C48.5867 16.8726 48.0079 17.6636 47.2756 18.274C46.5408 18.8864 45.6512 19.3177 44.6772 19.4758C43.4422 19.6764 42.0779 19.4405 40.731 18.5824L40.7683 18.8133ZM46.6976 9.02779C46.6868 8.91375 46.7215 8.80006 46.794 8.71137C46.8665 8.62269 46.971 8.56616 47.0849 8.55405C47.1988 8.54194 47.3129 8.57522 47.4025 8.64668C47.492 8.71813 47.5498 8.822 47.5632 8.93576L47.696 10.1795C47.7075 10.2881 47.6778 10.397 47.6128 10.4847C47.5478 10.5725 47.4521 10.6325 47.3449 10.6531L46.0439 10.903C45.8077 10.9481 45.5796 10.7933 45.5345 10.5571C45.4893 10.321 45.6442 10.0928 45.8803 10.0477L46.2081 9.98479C45.3188 9.43171 44.2907 9.24568 43.2969 9.36136C42.4712 9.45752 41.6711 9.76043 40.9945 10.2329C40.3212 10.703 39.7699 11.3401 39.4372 12.1067C38.9764 13.1688 38.9324 14.4907 39.5598 15.9793C39.653 16.2004 39.5492 16.4553 39.3281 16.5484C39.107 16.6415 38.8521 16.5378 38.7589 16.3167C38.0298 14.5868 38.0902 13.0291 38.6397 11.7625C39.0395 10.8413 39.6969 10.0794 40.497 9.52068C41.2936 8.96444 42.2322 8.60819 43.1981 8.49573C44.3994 8.35587 45.6469 8.59069 46.7247 9.28227L46.6976 9.02779ZM51.8254 4.68866C52.3991 5.25713 52.9836 5.82895 53.5469 6.40658C54.1351 7.02695 54.1574 7.98931 53.5428 8.60042C53.1534 8.98976 52.7684 9.38519 52.3818 9.77746C52.5175 10.0495 52.6397 10.3281 52.7479 10.6123C52.8596 10.9059 52.9576 11.2046 53.0416 11.5073H54.4628C55.3395 11.5073 56.0556 12.2183 56.0556 13.0961V15.5039C56.0556 16.3952 55.355 17.0965 54.4628 17.0965H52.8554C52.646 17.6802 52.3915 18.2524 52.0778 18.7879L53.1124 19.8064C53.4101 20.1206 53.5575 20.5225 53.5575 20.9237C53.5575 21.3261 53.4092 21.7299 53.1158 22.0448L51.4224 23.7189C51.3958 23.7453 51.3705 23.7698 51.3439 23.797C50.7484 24.3599 49.8084 24.3613 49.2119 23.799C48.8112 23.4358 48.4047 22.9896 48.0182 22.6021C47.457 22.8762 46.8729 23.101 46.2705 23.2666V24.685C46.2705 25.5615 45.5593 26.2778 44.6817 26.2778H42.2739C41.3805 26.2778 40.6811 25.5784 40.6811 24.685V23.077C40.5836 23.0417 40.4864 23.0052 40.3898 22.9675C39.9089 22.7805 39.4354 22.5612 38.9898 22.3001L37.9713 23.3345C37.3475 23.926 36.3601 23.9229 35.733 23.3379C35.1551 22.7628 34.5798 22.1768 34.0093 21.5942C33.4203 20.9731 33.3978 20.0105 34.0134 19.3988C34.4002 19.012 34.7885 18.6265 35.1759 18.2403C34.902 17.6784 34.6768 17.0955 34.511 16.4926H33.0928C32.2161 16.4926 31.5 15.7818 31.5 14.904V12.4962C31.5 11.6044 32.2005 10.9034 33.0928 10.9034H34.7002C34.8127 10.5885 34.9393 10.2788 35.0796 9.97534C35.2006 9.71373 35.334 9.45805 35.4794 9.20918L34.4901 8.21669L34.4661 8.19444C33.8464 7.57475 33.8522 6.57708 34.4644 5.95442C35.0462 5.39496 35.6076 4.79892 36.1839 4.23126C36.8045 3.64236 37.7673 3.62044 38.3787 4.23543C38.7661 4.62535 39.1632 5.00946 39.5549 5.39549C40.109 5.11699 40.6869 4.89661 41.285 4.73292V3.31484C41.285 2.43842 41.9963 1.72223 42.8738 1.72223H45.2816C46.1727 1.72223 46.8745 2.42379 46.8745 3.31484V4.92246C47.1855 5.03406 47.4968 5.16005 47.8027 5.30206C48.0642 5.423 48.3198 5.55635 48.5686 5.70167L49.554 4.71925C49.8236 4.43423 50.1971 4.25725 50.5903 4.22953C51.0312 4.19846 51.4829 4.35174 51.8238 4.68693L51.8254 4.68866Z"/>
</mask>
<path d="M51.2195 5.31266L51.2138 5.30705C51.0652 5.16097 50.8748 5.08845 50.6861 5.09248C50.4706 5.09708 50.3028 5.20835 50.1679 5.33535L48.9395 6.56006C48.789 6.70974 48.5564 6.72653 48.3875 6.61075C48.0896 6.41872 47.7698 6.24654 47.4382 6.09264C47.071 5.92214 46.6876 5.77457 46.302 5.64723C46.1186 5.58685 46.0023 5.41635 46.0023 5.23319L46.0021 3.31484C46.0021 2.90123 45.6952 2.59457 45.2816 2.59457H42.8738C42.4734 2.59457 42.1574 2.91552 42.1574 3.31484V5.07138C42.1574 5.2859 42.0023 5.46436 41.7982 5.50076C41.0648 5.67529 40.345 5.9478 39.6833 6.30951C39.6014 6.35408 39.5074 6.37117 39.4151 6.35825C39.3228 6.34533 39.2371 6.30309 39.1706 6.23777C38.7034 5.7774 38.2182 5.31746 37.7617 4.8486C37.4823 4.56837 37.0626 4.59715 36.7837 4.8617C36.2122 5.39237 35.6405 6.00828 35.0844 6.56433C34.8021 6.85199 34.796 7.29082 35.0829 7.57772L35.1049 7.60141L36.3378 8.83826C36.4875 8.98875 36.5042 9.22141 36.3885 9.39032C36.1964 9.68816 36.0242 10.0081 35.8702 10.3399C35.6999 10.707 35.5522 11.0904 35.425 11.4758C35.3647 11.6592 35.1941 11.7755 35.011 11.7755L33.0928 11.7757C32.6802 11.7757 32.3723 12.0834 32.3723 12.4962V14.904C32.3723 15.3047 32.6933 15.6202 33.0928 15.6202H34.8491C35.0637 15.6202 35.2421 15.7753 35.2785 15.9794C35.4562 16.7267 35.7356 17.4445 36.0909 18.125C36.1811 18.2978 36.1435 18.5036 36.0122 18.6341C35.5508 19.0945 35.0914 19.5593 34.6266 20.0159C34.346 20.2955 34.3748 20.7152 34.6398 20.9945C35.1599 21.5667 35.7792 22.1475 36.3283 22.703C36.6174 22.9704 37.0807 22.9777 37.3696 22.706L38.6126 21.4434C38.7632 21.2903 38.9993 21.2722 39.17 21.3906C39.8113 21.8032 40.5315 22.1146 41.2536 22.3527C41.437 22.413 41.5533 22.5836 41.5533 22.7667L41.5535 24.685C41.5535 25.0965 41.8624 25.4054 42.2739 25.4054H44.6817C45.0821 25.4054 45.3982 25.0843 45.3982 24.685V22.9285C45.3982 22.8262 45.4342 22.7271 45.4998 22.6486C45.5655 22.5701 45.6567 22.5172 45.7574 22.4992C46.5087 22.3207 47.2187 22.0442 47.9028 21.687C47.9849 21.6441 48.0787 21.6286 48.1703 21.6427C48.2619 21.6569 48.3466 21.6999 48.412 21.7656L49.774 23.1312C50.032 23.4057 50.4702 23.4262 50.7459 23.1649C50.7667 23.145 50.784 23.1268 50.8039 23.1072L52.4809 21.4495C52.6165 21.3026 52.6852 21.1133 52.6852 20.9237C52.6852 20.7368 52.6184 20.5513 52.4839 20.4082L51.2211 19.1652C51.1481 19.0933 51.1028 18.998 51.0931 18.896C51.0835 18.7941 51.1101 18.692 51.1684 18.6077C51.5817 17.9659 51.8918 17.2475 52.1306 16.524C52.1909 16.3406 52.3615 16.2244 52.5446 16.2244L54.4628 16.2242C54.8754 16.2242 55.1832 15.9167 55.1832 15.5039V13.0961C55.1832 12.6954 54.8623 12.3796 54.4628 12.3796H52.7065C52.4891 12.3796 52.3089 12.2206 52.2757 12.0126C52.1836 11.6426 52.0693 11.2786 51.9335 10.9224C51.7979 10.5668 51.6427 10.2249 51.4682 9.90537C51.4236 9.82352 51.4065 9.72951 51.4194 9.63721C51.4323 9.54492 51.4746 9.45921 51.5399 9.39272C52 8.92583 52.4604 8.4387 52.9296 7.98337C53.2094 7.70458 53.1805 7.28483 52.9164 7.00633C52.3945 6.43905 51.7709 5.86281 51.2195 5.31266ZM40.7683 18.8133C40.8096 19.0737 40.632 19.3185 40.3716 19.3598C40.1111 19.4011 39.8664 19.2235 39.8251 18.9631L39.6219 17.7052C39.5822 17.4549 39.7447 17.2191 39.9887 17.1645L41.2605 16.8766C41.5178 16.8188 41.7734 16.9805 41.8313 17.2378C41.8891 17.4951 41.7274 17.7507 41.47 17.8086L41.2238 17.8643C42.3675 18.5841 43.5105 18.7838 44.5376 18.6171C45.354 18.4845 46.1015 18.1217 46.72 17.6061C47.3409 17.0885 47.8322 16.4168 48.1338 15.6687C48.5891 14.5393 48.6084 13.2356 47.9826 12.03C47.8725 11.8164 47.9564 11.5539 48.17 11.4439C48.3836 11.3338 48.6461 11.4177 48.7561 11.6313C49.5079 13.0795 49.4862 14.6415 48.9415 15.9925C48.5867 16.8726 48.0079 17.6636 47.2756 18.274C46.5408 18.8864 45.6512 19.3177 44.6772 19.4758C43.4422 19.6764 42.0779 19.4405 40.731 18.5824L40.7683 18.8133ZM46.6976 9.02779C46.6868 8.91375 46.7215 8.80006 46.794 8.71137C46.8665 8.62269 46.971 8.56616 47.0849 8.55405C47.1988 8.54194 47.3129 8.57522 47.4025 8.64668C47.492 8.71813 47.5498 8.822 47.5632 8.93576L47.696 10.1795C47.7075 10.2881 47.6778 10.397 47.6128 10.4847C47.5478 10.5725 47.4521 10.6325 47.3449 10.6531L46.0439 10.903C45.8077 10.9481 45.5796 10.7933 45.5345 10.5571C45.4893 10.321 45.6442 10.0928 45.8803 10.0477L46.2081 9.98479C45.3188 9.43171 44.2907 9.24568 43.2969 9.36136C42.4712 9.45752 41.6711 9.76043 40.9945 10.2329C40.3212 10.703 39.7699 11.3401 39.4372 12.1067C38.9764 13.1688 38.9324 14.4907 39.5598 15.9793C39.653 16.2004 39.5492 16.4553 39.3281 16.5484C39.107 16.6415 38.8521 16.5378 38.7589 16.3167C38.0298 14.5868 38.0902 13.0291 38.6397 11.7625C39.0395 10.8413 39.6969 10.0794 40.497 9.52068C41.2936 8.96444 42.2322 8.60819 43.1981 8.49573C44.3994 8.35587 45.6469 8.59069 46.7247 9.28227L46.6976 9.02779ZM51.8254 4.68866C52.3991 5.25713 52.9836 5.82895 53.5469 6.40658C54.1351 7.02695 54.1574 7.98931 53.5428 8.60042C53.1534 8.98976 52.7684 9.38519 52.3818 9.77746C52.5175 10.0495 52.6397 10.3281 52.7479 10.6123C52.8596 10.9059 52.9576 11.2046 53.0416 11.5073H54.4628C55.3395 11.5073 56.0556 12.2183 56.0556 13.0961V15.5039C56.0556 16.3952 55.355 17.0965 54.4628 17.0965H52.8554C52.646 17.6802 52.3915 18.2524 52.0778 18.7879L53.1124 19.8064C53.4101 20.1206 53.5575 20.5225 53.5575 20.9237C53.5575 21.3261 53.4092 21.7299 53.1158 22.0448L51.4224 23.7189C51.3958 23.7453 51.3705 23.7698 51.3439 23.797C50.7484 24.3599 49.8084 24.3613 49.2119 23.799C48.8112 23.4358 48.4047 22.9896 48.0182 22.6021C47.457 22.8762 46.8729 23.101 46.2705 23.2666V24.685C46.2705 25.5615 45.5593 26.2778 44.6817 26.2778H42.2739C41.3805 26.2778 40.6811 25.5784 40.6811 24.685V23.077C40.5836 23.0417 40.4864 23.0052 40.3898 22.9675C39.9089 22.7805 39.4354 22.5612 38.9898 22.3001L37.9713 23.3345C37.3475 23.926 36.3601 23.9229 35.733 23.3379C35.1551 22.7628 34.5798 22.1768 34.0093 21.5942C33.4203 20.9731 33.3978 20.0105 34.0134 19.3988C34.4002 19.012 34.7885 18.6265 35.1759 18.2403C34.902 17.6784 34.6768 17.0955 34.511 16.4926H33.0928C32.2161 16.4926 31.5 15.7818 31.5 14.904V12.4962C31.5 11.6044 32.2005 10.9034 33.0928 10.9034H34.7002C34.8127 10.5885 34.9393 10.2788 35.0796 9.97534C35.2006 9.71373 35.334 9.45805 35.4794 9.20918L34.4901 8.21669L34.4661 8.19444C33.8464 7.57475 33.8522 6.57708 34.4644 5.95442C35.0462 5.39496 35.6076 4.79892 36.1839 4.23126C36.8045 3.64236 37.7673 3.62044 38.3787 4.23543C38.7661 4.62535 39.1632 5.00946 39.5549 5.39549C40.109 5.11699 40.6869 4.89661 41.285 4.73292V3.31484C41.285 2.43842 41.9963 1.72223 42.8738 1.72223H45.2816C46.1727 1.72223 46.8745 2.42379 46.8745 3.31484V4.92246C47.1855 5.03406 47.4968 5.16005 47.8027 5.30206C48.0642 5.423 48.3198 5.55635 48.5686 5.70167L49.554 4.71925C49.8236 4.43423 50.1971 4.25725 50.5903 4.22953C51.0312 4.19846 51.4829 4.35174 51.8238 4.68693L51.8254 4.68866Z" fill="#505050" stroke="white" stroke-width="0.4" mask="url(#path-2-inside-1_3105_11668)"/>
</svg>
