<svg width="66" height="66" viewBox="0 0 66 66" fill="none" xmlns="http://www.w3.org/2000/svg">
<path d="M40.7998 37.2021V41.2002C40.7998 41.5586 40.3649 41.7364 40.1143 41.4805L39.4033 40.7539C39.2461 40.593 38.9878 40.5935 38.8311 40.7549L35.0986 44.5967C34.2766 45.4331 33.7255 45.794 33.2129 45.7998C32.7025 45.8055 32.1529 45.4593 31.333 44.625L31.332 44.624L28.7129 41.9951C28.5563 41.8382 28.3016 41.8387 28.1455 41.9961L25.8613 44.3037C25.7112 44.4554 25.5064 44.5409 25.293 44.541H24.5029C23.7807 44.5407 23.4286 43.6588 23.9521 43.1611L27.8867 39.4209C28.2031 39.1204 28.7019 39.1294 29.0078 39.4404L29.0469 39.4795C30.3361 40.7903 31.6191 42.0951 32.9238 43.4072C33.0816 43.5657 33.3385 43.5637 33.4941 43.4033L37.4492 39.3281C37.6006 39.1721 37.5997 38.9234 37.4473 38.7686L36.6094 37.918C36.3616 37.6664 36.5375 37.2406 36.8906 37.2373L39.6045 37.2119L40.7998 37.2021Z" fill="#E4783E" stroke="white" stroke-width="0.4"/>
<path fill-rule="evenodd" clip-rule="evenodd" d="M14.3588 35C14.3116 35 14.2649 34.99 14.2213 34.9706C14.1777 34.9512 14.1382 34.9227 14.1048 34.8869C14.0715 34.8511 14.0451 34.8086 14.0271 34.7618C14.0091 34.715 13.9999 34.6649 14 34.6143C14 34.3438 14.1192 33.6834 14.1533 33.4629C14.3348 32.2889 14.5793 31.1154 14.8911 30.3459C15.8594 27.9591 20.2853 27.7108 22.8919 26.6258V24.5818C21.1554 24.4933 18.9939 24.3478 17.7876 22.8072C19.1105 22.2729 19.7201 20.5949 19.8047 18.0873C19.867 16.2235 19.5082 15.6393 20.1004 13.7993C21.2745 10.1562 25.6155 8.91055 28.0337 11.0422C29.93 10.8263 31.8404 11.8747 32.2531 15.0103C32.5605 17.3521 31.9091 18.821 32.5965 20.9779C32.8919 21.9045 32.4073 22.6154 33.2124 23.0312C31.9793 24.297 29.3884 24.4581 27.7718 24.5503V26.6258C30.7055 27.7423 35.9623 27.5727 37.0834 30.2972C37.4096 31.0912 37.6671 32.3022 37.8559 33.5309C37.8861 33.7302 38 34.3685 38 34.6143C38 34.6649 37.9908 34.715 37.9727 34.7618C37.9547 34.8086 37.9283 34.8511 37.8949 34.887C37.8615 34.9228 37.8219 34.9512 37.7783 34.9706C37.7347 34.99 37.688 35 37.6408 35H14.3588Z" fill="#FFE6B0"/>
<path fill-rule="evenodd" clip-rule="evenodd" d="M39.034 28.8357C39.6282 28.3924 40.0546 27.841 39.9414 27.2263C39.4247 26.7402 38.912 26.0678 38.8226 25.0647L38.7605 25.066C38.6171 25.064 38.4787 25.0309 38.3498 24.9565C38.0648 24.7916 37.9082 24.4763 37.8332 24.1162C37.7376 23.6604 37.7692 23.1196 37.8155 22.7783L37.8332 22.7118C37.9325 22.4302 38.0555 22.2773 38.2118 22.2108L38.2163 22.2089C38.145 20.8531 38.3707 18.8576 37 18.4363C39.666 15.0393 42.4917 13.8965 45.1681 16.2136C47.7779 16.3525 48.9419 20.1083 47.3215 22.2108H47.2528C47.409 22.2773 47.5321 22.4302 47.6315 22.7118L47.6491 22.7783C47.6955 23.1196 47.727 23.6604 47.6315 24.1162C47.5563 24.4763 47.4001 24.7916 47.1148 24.9565C46.9859 25.0309 46.8475 25.064 46.7041 25.066L46.642 25.0647C46.5526 26.0678 46.0386 26.7402 45.5219 27.2263C45.2742 28.5736 47.6171 29.6165 48.6443 29.8849C50.7782 30.4436 52.4823 30.5265 52.9674 34.4326C52.9883 34.5183 53 34.6046 53 34.6923C53 34.7327 52.9923 34.7727 52.9771 34.8101C52.9619 34.8474 52.9396 34.8813 52.9115 34.9099C52.8834 34.9385 52.85 34.9612 52.8132 34.9766C52.7765 34.9921 52.7371 35 52.6973 35H40.6788C40.7018 34.8807 40.7138 34.7572 40.7138 34.6312C40.7138 34.3139 40.6241 33.794 40.5694 33.4822L40.5427 33.3365C40.4453 32.7367 40.3266 32.1261 40.1851 31.5467L40.1576 31.4115C40.0155 30.8473 39.8495 30.3241 39.6582 29.8834C39.4868 29.4886 39.277 29.1419 39.034 28.8357Z" fill="#FAEED4"/>
<path d="M21.8809 24.2717L21.4043 24.2493C20.3866 24.2012 19.2949 24.1389 18.2881 23.8928C17.5143 23.7036 16.8201 23.4114 16.2627 22.9573C16.8449 22.5662 17.2845 21.9932 17.5986 21.2854C18.0181 20.3402 18.2259 19.1384 18.2764 17.7522C18.3128 16.7455 18.2249 15.981 18.2168 15.4026C18.2094 14.8768 18.2546 14.3541 18.4844 13.6038L18.5938 13.2678C19.2194 11.4719 20.693 10.2548 22.3525 9.75415C24.0178 9.25184 25.8096 9.4873 27.0674 10.5129L27.2285 10.6448L27.4355 10.6233C28.4436 10.5171 29.4211 10.7244 30.1943 11.3098C30.9146 11.8552 31.5086 12.7676 31.7666 14.1907L31.8145 14.4817C31.9856 15.6878 31.8898 16.657 31.8438 17.6868C31.7978 18.713 31.8058 19.7659 32.2373 21.0188C32.5312 21.8719 33.0063 22.5936 33.7061 23.1165C33.1153 23.469 32.3465 23.7132 31.4941 23.8782C30.3608 24.0975 29.1653 24.1651 28.2188 24.2151L27.7451 24.2405V27.3098L28.0791 27.428C28.97 27.7416 29.9521 27.9617 30.9219 28.1604C31.903 28.3615 32.8648 28.5395 33.7656 28.7717C35.5933 29.2429 36.9405 29.8863 37.4912 31.1243C37.8004 31.8207 38.0636 32.8681 38.2715 34.0042L38.3564 34.4954C38.3659 34.553 38.3817 34.6414 38.3984 34.7366C38.4157 34.835 38.4359 34.9471 38.4541 35.0598C38.4835 35.2411 38.5028 35.3977 38.5117 35.5002H11.5068C11.5158 35.3874 11.5366 35.2169 11.5684 35.0217C11.6104 34.763 11.6469 34.5717 11.6719 34.4221C11.8831 33.1583 12.1608 31.9441 12.498 31.1741C12.7237 30.6596 13.1641 30.2284 13.8018 29.8538C14.4407 29.4784 15.2425 29.1809 16.1348 28.9172C17.0274 28.6535 17.9766 28.4332 18.917 28.2004C19.8465 27.9703 20.7676 27.7275 21.5605 27.4221L21.8809 27.2991V24.2717Z" stroke="#505050"/>
<path d="M40.3496 14.0802C41.7591 13.6588 43.1786 13.9357 44.6143 15.1495L44.7432 15.2579L44.9111 15.2667C46.1609 15.3317 47.1127 16.2419 47.5469 17.4884C47.9821 18.7379 47.8488 20.2068 47.0371 21.2355L47.2744 21.422L47.1582 22.007C47.1611 22.0081 47.1749 22.014 47.2002 22.046C47.2287 22.0823 47.2686 22.1495 47.3125 22.2677L47.3154 22.2804C47.3635 22.6413 47.3904 23.1712 47.2998 23.5939H47.2988C47.2255 23.9367 47.0952 24.1278 46.9443 24.213C46.8779 24.2504 46.803 24.2699 46.7119 24.2716L46.6533 24.2706L46.1875 24.2618L46.1455 24.7257C46.0575 25.6881 45.5579 26.3414 45.0088 26.8458L44.8857 26.9581L44.8555 27.1212C44.752 27.6706 44.9282 28.1653 45.2148 28.5714C45.4968 28.9709 45.9014 29.3113 46.3242 29.5909C47.1699 30.1503 48.1992 30.5405 48.8369 30.7032C49.4829 30.8684 50.0311 30.9835 50.5576 31.1456C51.0701 31.3034 51.5053 31.4909 51.877 31.7697C52.5964 32.3095 53.1956 33.2817 53.4678 35.422L53.4707 35.4513L53.4785 35.4796C53.4802 35.4865 53.4809 35.4934 53.4824 35.5001H40.2793C40.2661 35.0885 40.1638 34.5103 40.1074 34.1964L40.1064 34.1925L40.0762 34.0275H40.0752C39.9621 33.3491 39.8249 32.6558 39.6602 31.9943L39.6279 31.8419L39.626 31.8312L39.623 31.8195L39.4902 31.3361C39.3517 30.8609 39.1947 30.4125 39.0176 30.0138C38.874 29.691 38.7062 29.3946 38.5205 29.1193C39.0773 28.6171 39.5345 27.9413 39.3799 27.1212L39.3486 26.9581L39.2266 26.8458L39.0244 26.6495C38.5602 26.1736 38.1688 25.5683 38.0918 24.7257L38.0488 24.2618L37.584 24.2706L37.5234 24.2716C37.4329 24.2697 37.3582 24.2503 37.292 24.213C37.1413 24.1276 37.0105 23.9367 36.9375 23.5948V23.5939C36.8464 23.1693 36.8724 22.6366 36.9209 22.2755L36.9219 22.2726C36.9665 22.1511 37.0073 22.0828 37.0361 22.046C37.0621 22.013 37.0767 22.008 37.0791 22.007L37.0781 22.006H37.0801L37.4102 21.8722L37.3916 21.5167C37.3713 21.1405 37.3729 20.7413 37.3604 20.2843C37.3483 19.844 37.3223 19.3735 37.2441 18.9288C37.1256 18.2547 36.8661 17.5522 36.2695 17.1163C37.6519 15.5052 39.026 14.4759 40.3496 14.0802Z" stroke="#505050"/>
<path d="M12.696 57.964V60H11.62V54.216H13.504C13.8907 54.216 14.2253 54.2613 14.508 54.352C14.7907 54.4427 15.024 54.5693 15.208 54.732C15.392 54.8947 15.528 55.0893 15.616 55.316C15.704 55.5427 15.748 55.7907 15.748 56.06C15.748 56.34 15.7013 56.5973 15.608 56.832C15.5147 57.064 15.3747 57.264 15.188 57.432C15.0013 57.6 14.768 57.7307 14.488 57.824C14.208 57.9173 13.88 57.964 13.504 57.964H12.696ZM12.696 57.124H13.504C13.7013 57.124 13.8733 57.1 14.02 57.052C14.1667 57.0013 14.288 56.9307 14.384 56.84C14.48 56.7467 14.552 56.6347 14.6 56.504C14.648 56.3707 14.672 56.2227 14.672 56.06C14.672 55.9053 14.648 55.7653 14.6 55.64C14.552 55.5147 14.48 55.408 14.384 55.32C14.288 55.232 14.1667 55.1653 14.02 55.12C13.8733 55.072 13.7013 55.048 13.504 55.048H12.696V57.124ZM18.1628 55.832C18.4695 55.832 18.7468 55.8813 18.9948 55.98C19.2455 56.0787 19.4588 56.2187 19.6348 56.4C19.8108 56.5813 19.9468 56.8027 20.0428 57.064C20.1388 57.3253 20.1868 57.6173 20.1868 57.94C20.1868 58.2653 20.1388 58.5587 20.0428 58.82C19.9468 59.0813 19.8108 59.304 19.6348 59.488C19.4588 59.672 19.2455 59.8133 18.9948 59.912C18.7468 60.0107 18.4695 60.06 18.1628 60.06C17.8561 60.06 17.5775 60.0107 17.3268 59.912C17.0761 59.8133 16.8615 59.672 16.6828 59.488C16.5068 59.304 16.3695 59.0813 16.2708 58.82C16.1748 58.5587 16.1268 58.2653 16.1268 57.94C16.1268 57.6173 16.1748 57.3253 16.2708 57.064C16.3695 56.8027 16.5068 56.5813 16.6828 56.4C16.8615 56.2187 17.0761 56.0787 17.3268 55.98C17.5775 55.8813 17.8561 55.832 18.1628 55.832ZM18.1628 59.3C18.5041 59.3 18.7561 59.1853 18.9188 58.956C19.0841 58.7267 19.1668 58.3907 19.1668 57.948C19.1668 57.5053 19.0841 57.168 18.9188 56.936C18.7561 56.704 18.5041 56.588 18.1628 56.588C17.8161 56.588 17.5601 56.7053 17.3948 56.94C17.2295 57.172 17.1468 57.508 17.1468 57.948C17.1468 58.388 17.2295 58.724 17.3948 58.956C17.5601 59.1853 17.8161 59.3 18.1628 59.3ZM20.4577 55.896H21.2417C21.3164 55.896 21.379 55.9133 21.4297 55.948C21.4804 55.9827 21.5124 56.0267 21.5257 56.08L22.1137 58.272C22.1457 58.392 22.171 58.5093 22.1897 58.624C22.211 58.7387 22.231 58.8533 22.2497 58.968C22.279 58.8533 22.3097 58.7387 22.3417 58.624C22.3764 58.5093 22.4124 58.392 22.4497 58.272L23.1297 56.072C23.1457 56.0187 23.1777 55.9747 23.2257 55.94C23.2737 55.9053 23.3297 55.888 23.3937 55.888H23.8297C23.9017 55.888 23.9617 55.9053 24.0097 55.94C24.0577 55.9747 24.0897 56.0187 24.1057 56.072L24.7777 58.312C24.8124 58.4267 24.843 58.5387 24.8697 58.648C24.899 58.7547 24.927 58.8627 24.9537 58.972C24.9724 58.8573 24.9924 58.7427 25.0137 58.628C25.0377 58.5133 25.067 58.3947 25.1017 58.272L25.7097 56.08C25.723 56.0267 25.755 55.9827 25.8057 55.948C25.8564 55.9133 25.915 55.896 25.9817 55.896H26.7297L25.4297 60H24.6337C24.5484 60 24.487 59.9413 24.4497 59.824L23.7097 57.452C23.6857 57.3747 23.663 57.2973 23.6417 57.22C23.623 57.14 23.607 57.0613 23.5937 56.984C23.5777 57.064 23.5604 57.144 23.5417 57.224C23.523 57.3013 23.5017 57.38 23.4777 57.46L22.7297 59.824C22.6924 59.9413 22.6204 60 22.5137 60H21.7577L20.4577 55.896ZM28.9818 55.832C29.2405 55.832 29.4778 55.8733 29.6938 55.956C29.9125 56.0387 30.1005 56.16 30.2578 56.32C30.4151 56.4773 30.5378 56.672 30.6258 56.904C30.7138 57.1333 30.7578 57.396 30.7578 57.692C30.7578 57.7667 30.7538 57.8293 30.7458 57.88C30.7405 57.928 30.7285 57.9667 30.7098 57.996C30.6938 58.0227 30.6711 58.0427 30.6418 58.056C30.6125 58.0667 30.5751 58.072 30.5298 58.072H27.9938C28.0231 58.4933 28.1365 58.8027 28.3338 59C28.5311 59.1973 28.7925 59.296 29.1178 59.296C29.2778 59.296 29.4151 59.2773 29.5298 59.24C29.6471 59.2027 29.7485 59.1613 29.8338 59.116C29.9218 59.0707 29.9978 59.0293 30.0618 58.992C30.1285 58.9547 30.1925 58.936 30.2538 58.936C30.2938 58.936 30.3285 58.944 30.3578 58.96C30.3871 58.976 30.4125 58.9987 30.4338 59.028L30.7218 59.388C30.6125 59.516 30.4898 59.624 30.3538 59.712C30.2178 59.7973 30.0751 59.8667 29.9258 59.92C29.7791 59.9707 29.6285 60.0067 29.4738 60.028C29.3218 60.0493 29.1738 60.06 29.0298 60.06C28.7445 60.06 28.4791 60.0133 28.2338 59.92C27.9885 59.824 27.7751 59.684 27.5938 59.5C27.4125 59.3133 27.2698 59.084 27.1658 58.812C27.0618 58.5373 27.0098 58.22 27.0098 57.86C27.0098 57.58 27.0551 57.3173 27.1458 57.072C27.2365 56.824 27.3658 56.6093 27.5338 56.428C27.7045 56.244 27.9111 56.0987 28.1538 55.992C28.3991 55.8853 28.6751 55.832 28.9818 55.832ZM29.0018 56.54C28.7138 56.54 28.4885 56.6213 28.3258 56.784C28.1631 56.9467 28.0591 57.1773 28.0138 57.476H29.8698C29.8698 57.348 29.8525 57.228 29.8178 57.116C29.7831 57.0013 29.7298 56.9013 29.6578 56.816C29.5858 56.7307 29.4951 56.664 29.3858 56.616C29.2765 56.5653 29.1485 56.54 29.0018 56.54ZM31.5592 60V55.896H32.1393C32.2406 55.896 32.3113 55.9147 32.3513 55.952C32.3913 55.9893 32.4179 56.0533 32.4313 56.144L32.4913 56.64C32.6379 56.3867 32.8099 56.1867 33.0073 56.04C33.2046 55.8933 33.4259 55.82 33.6713 55.82C33.8739 55.82 34.0419 55.8667 34.1753 55.96L34.0473 56.7C34.0393 56.748 34.0219 56.7827 33.9953 56.804C33.9686 56.8227 33.9326 56.832 33.8873 56.832C33.8473 56.832 33.7926 56.8227 33.7233 56.804C33.6539 56.7853 33.5619 56.776 33.4473 56.776C33.2419 56.776 33.0659 56.8333 32.9193 56.948C32.7726 57.06 32.6486 57.2253 32.5473 57.444V60H31.5592ZM38.7558 59.132C38.9638 59.132 39.1491 59.0973 39.3118 59.028C39.4771 58.9587 39.6158 58.8613 39.7278 58.736C39.8424 58.6107 39.9291 58.4587 39.9878 58.28C40.0491 58.1013 40.0798 57.9013 40.0798 57.68V54.216H41.1558V57.68C41.1558 58.024 41.0998 58.3427 40.9878 58.636C40.8784 58.9267 40.7198 59.1787 40.5118 59.392C40.3038 59.6027 40.0518 59.768 39.7558 59.888C39.4598 60.0053 39.1264 60.064 38.7558 60.064C38.3851 60.064 38.0518 60.0053 37.7558 59.888C37.4598 59.768 37.2078 59.6027 36.9998 59.392C36.7944 59.1787 36.6358 58.9267 36.5238 58.636C36.4144 58.3427 36.3598 58.024 36.3598 57.68V54.216H37.4358V57.676C37.4358 57.8973 37.4651 58.0973 37.5238 58.276C37.5851 58.4547 37.6718 58.608 37.7838 58.736C37.8958 58.8613 38.0331 58.9587 38.1957 59.028C38.3611 59.0973 38.5478 59.132 38.7558 59.132ZM44.6281 56.696C44.6014 56.7387 44.5734 56.7693 44.5441 56.788C44.5147 56.804 44.4774 56.812 44.4321 56.812C44.3841 56.812 44.3321 56.7987 44.2761 56.772C44.2227 56.7453 44.1601 56.716 44.0881 56.684C44.0161 56.6493 43.9334 56.6187 43.8401 56.592C43.7494 56.5653 43.6414 56.552 43.5161 56.552C43.3214 56.552 43.1681 56.5933 43.0561 56.676C42.9441 56.7587 42.8881 56.8667 42.8881 57C42.8881 57.088 42.9161 57.1627 42.9721 57.224C43.0307 57.2827 43.1067 57.3347 43.2001 57.38C43.2961 57.4253 43.4041 57.4667 43.5241 57.504C43.6441 57.5387 43.7667 57.5773 43.8921 57.62C44.0174 57.6627 44.1401 57.712 44.2601 57.768C44.3801 57.8213 44.4867 57.8907 44.5801 57.976C44.6761 58.0587 44.7521 58.1587 44.8081 58.276C44.8667 58.3933 44.8961 58.5347 44.8961 58.7C44.8961 58.8973 44.8601 59.08 44.7881 59.248C44.7161 59.4133 44.6107 59.5573 44.4721 59.68C44.3334 59.8 44.1614 59.8947 43.9561 59.964C43.7534 60.0307 43.5201 60.064 43.2561 60.064C43.1147 60.064 42.9761 60.0507 42.8401 60.024C42.7067 60 42.5774 59.9653 42.4521 59.92C42.3294 59.8747 42.2147 59.8213 42.1081 59.76C42.0041 59.6987 41.9121 59.632 41.8321 59.56L42.0601 59.184C42.0894 59.1387 42.1241 59.104 42.1641 59.08C42.2041 59.056 42.2547 59.044 42.3161 59.044C42.3774 59.044 42.4347 59.0613 42.4881 59.096C42.5441 59.1307 42.6081 59.168 42.6801 59.208C42.7521 59.248 42.8361 59.2853 42.9321 59.32C43.0307 59.3547 43.1547 59.372 43.3041 59.372C43.4214 59.372 43.5214 59.3587 43.6041 59.332C43.6894 59.3027 43.7587 59.2653 43.8121 59.22C43.8681 59.1747 43.9081 59.1227 43.9321 59.064C43.9587 59.0027 43.9721 58.94 43.9721 58.876C43.9721 58.78 43.9427 58.7013 43.8841 58.64C43.8281 58.5787 43.7521 58.5253 43.6561 58.48C43.5627 58.4347 43.4547 58.3947 43.3321 58.36C43.2121 58.3227 43.0881 58.2827 42.9601 58.24C42.8347 58.1973 42.7107 58.148 42.5881 58.092C42.4681 58.0333 42.3601 57.96 42.2641 57.872C42.1707 57.784 42.0947 57.676 42.0361 57.548C41.9801 57.42 41.9521 57.2653 41.9521 57.084C41.9521 56.916 41.9854 56.756 42.0521 56.604C42.1187 56.452 42.2161 56.32 42.3441 56.208C42.4747 56.0933 42.6361 56.0027 42.8281 55.936C43.0227 55.8667 43.2467 55.832 43.5001 55.832C43.7827 55.832 44.0401 55.8787 44.2721 55.972C44.5041 56.0653 44.6974 56.188 44.8521 56.34L44.6281 56.696ZM47.3803 55.832C47.6389 55.832 47.8763 55.8733 48.0923 55.956C48.3109 56.0387 48.4989 56.16 48.6563 56.32C48.8136 56.4773 48.9363 56.672 49.0243 56.904C49.1123 57.1333 49.1562 57.396 49.1562 57.692C49.1562 57.7667 49.1523 57.8293 49.1443 57.88C49.1389 57.928 49.1269 57.9667 49.1083 57.996C49.0923 58.0227 49.0696 58.0427 49.0403 58.056C49.0109 58.0667 48.9736 58.072 48.9283 58.072H46.3923C46.4216 58.4933 46.5349 58.8027 46.7323 59C46.9296 59.1973 47.1909 59.296 47.5163 59.296C47.6763 59.296 47.8136 59.2773 47.9283 59.24C48.0456 59.2027 48.1469 59.1613 48.2323 59.116C48.3203 59.0707 48.3963 59.0293 48.4603 58.992C48.5269 58.9547 48.5909 58.936 48.6523 58.936C48.6923 58.936 48.7269 58.944 48.7563 58.96C48.7856 58.976 48.8109 58.9987 48.8323 59.028L49.1203 59.388C49.0109 59.516 48.8883 59.624 48.7523 59.712C48.6163 59.7973 48.4736 59.8667 48.3243 59.92C48.1776 59.9707 48.0269 60.0067 47.8723 60.028C47.7203 60.0493 47.5723 60.06 47.4283 60.06C47.1429 60.06 46.8776 60.0133 46.6323 59.92C46.3869 59.824 46.1736 59.684 45.9923 59.5C45.8109 59.3133 45.6683 59.084 45.5643 58.812C45.4603 58.5373 45.4083 58.22 45.4083 57.86C45.4083 57.58 45.4536 57.3173 45.5443 57.072C45.6349 56.824 45.7643 56.6093 45.9323 56.428C46.1029 56.244 46.3096 56.0987 46.5523 55.992C46.7976 55.8853 47.0736 55.832 47.3803 55.832ZM47.4003 56.54C47.1123 56.54 46.8869 56.6213 46.7243 56.784C46.5616 56.9467 46.4576 57.1773 46.4123 57.476H48.2683C48.2683 57.348 48.2509 57.228 48.2163 57.116C48.1816 57.0013 48.1283 56.9013 48.0563 56.816C47.9843 56.7307 47.8936 56.664 47.7843 56.616C47.6749 56.5653 47.5469 56.54 47.4003 56.54ZM49.9577 60V55.896H50.5377C50.639 55.896 50.7097 55.9147 50.7497 55.952C50.7897 55.9893 50.8164 56.0533 50.8297 56.144L50.8897 56.64C51.0364 56.3867 51.2084 56.1867 51.4057 56.04C51.603 55.8933 51.8244 55.82 52.0697 55.82C52.2724 55.82 52.4404 55.8667 52.5737 55.96L52.4457 56.7C52.4377 56.748 52.4204 56.7827 52.3937 56.804C52.367 56.8227 52.331 56.832 52.2857 56.832C52.2457 56.832 52.191 56.8227 52.1217 56.804C52.0524 56.7853 51.9604 56.776 51.8457 56.776C51.6404 56.776 51.4644 56.8333 51.3177 56.948C51.171 57.06 51.047 57.2253 50.9457 57.444V60H49.9577ZM55.6593 56.696C55.6326 56.7387 55.6046 56.7693 55.5753 56.788C55.546 56.804 55.5086 56.812 55.4633 56.812C55.4153 56.812 55.3633 56.7987 55.3073 56.772C55.254 56.7453 55.1913 56.716 55.1193 56.684C55.0473 56.6493 54.9646 56.6187 54.8713 56.592C54.7806 56.5653 54.6726 56.552 54.5473 56.552C54.3526 56.552 54.1993 56.5933 54.0873 56.676C53.9753 56.7587 53.9193 56.8667 53.9193 57C53.9193 57.088 53.9473 57.1627 54.0033 57.224C54.062 57.2827 54.138 57.3347 54.2313 57.38C54.3273 57.4253 54.4353 57.4667 54.5553 57.504C54.6753 57.5387 54.798 57.5773 54.9233 57.62C55.0486 57.6627 55.1713 57.712 55.2913 57.768C55.4113 57.8213 55.518 57.8907 55.6113 57.976C55.7073 58.0587 55.7833 58.1587 55.8393 58.276C55.898 58.3933 55.9273 58.5347 55.9273 58.7C55.9273 58.8973 55.8913 59.08 55.8193 59.248C55.7473 59.4133 55.642 59.5573 55.5033 59.68C55.3646 59.8 55.1926 59.8947 54.9873 59.964C54.7846 60.0307 54.5513 60.064 54.2873 60.064C54.146 60.064 54.0073 60.0507 53.8713 60.024C53.738 60 53.6086 59.9653 53.4833 59.92C53.3606 59.8747 53.246 59.8213 53.1393 59.76C53.0353 59.6987 52.9433 59.632 52.8633 59.56L53.0913 59.184C53.1206 59.1387 53.1553 59.104 53.1953 59.08C53.2353 59.056 53.286 59.044 53.3473 59.044C53.4086 59.044 53.466 59.0613 53.5193 59.096C53.5753 59.1307 53.6393 59.168 53.7113 59.208C53.7833 59.248 53.8673 59.2853 53.9633 59.32C54.062 59.3547 54.186 59.372 54.3353 59.372C54.4526 59.372 54.5526 59.3587 54.6353 59.332C54.7206 59.3027 54.79 59.2653 54.8433 59.22C54.8993 59.1747 54.9393 59.1227 54.9633 59.064C54.99 59.0027 55.0033 58.94 55.0033 58.876C55.0033 58.78 54.974 58.7013 54.9153 58.64C54.8593 58.5787 54.7833 58.5253 54.6873 58.48C54.594 58.4347 54.486 58.3947 54.3633 58.36C54.2433 58.3227 54.1193 58.2827 53.9913 58.24C53.866 58.1973 53.742 58.148 53.6193 58.092C53.4993 58.0333 53.3913 57.96 53.2953 57.872C53.202 57.784 53.126 57.676 53.0673 57.548C53.0113 57.42 52.9833 57.2653 52.9833 57.084C52.9833 56.916 53.0166 56.756 53.0833 56.604C53.15 56.452 53.2473 56.32 53.3753 56.208C53.506 56.0933 53.6673 56.0027 53.8593 55.936C54.054 55.8667 54.278 55.832 54.5313 55.832C54.814 55.832 55.0713 55.8787 55.3033 55.972C55.5353 56.0653 55.7286 56.188 55.8833 56.34L55.6593 56.696Z" fill="#1B1B1B"/>
</svg>
