<svg width="66" height="66" viewBox="0 0 66 66" fill="none" xmlns="http://www.w3.org/2000/svg">
<g clip-path="url(#clip0_3102_11529)">
<path d="M21.143 9.00031H45.857C48.1372 9.00031 50 10.8841 50 13.1902V42.8104C50 45.1164 48.1372 47.0003 45.857 47.0003H21.143C18.8628 47.0003 17 45.1164 17 42.8104V13.1902C17 10.8841 18.8628 9.00031 21.143 9.00031Z" fill="#505050"/>
<path fill-rule="evenodd" clip-rule="evenodd" d="M21.1444 9.81262H45.8583C47.6951 9.81262 49.198 11.3324 49.198 13.19V42.8103C49.198 44.6679 47.6951 46.1877 45.8583 46.1877H21.1444C19.3075 46.1877 17.8047 44.6679 17.8047 42.8103V13.19C17.8047 11.3324 19.3075 9.81262 21.1444 9.81262Z" fill="#FDFDFD"/>
<path fill-rule="evenodd" clip-rule="evenodd" d="M48.7394 11.489C49.0395 12.0045 49.1975 12.5918 49.1972 13.19V42.8103C49.1972 44.6679 47.6944 46.1877 45.8575 46.1877H21.1436C20.5826 46.1881 20.0308 46.0443 19.5399 45.7698C19.2397 45.2544 19.0817 44.667 19.082 44.0688V14.4487C19.082 12.591 20.5849 11.0712 22.4218 11.0712H47.1356C47.6966 11.0708 48.2485 11.2146 48.7394 11.489Z" fill="#FAEED4"/>
<path d="M23.7975 15.0044H26.4135C26.6568 15.0044 26.8782 15.1053 27.0388 15.2676L27.0405 15.2694C27.201 15.4318 27.3008 15.6558 27.3008 15.9018V18.4945C27.3008 18.7405 27.201 18.9644 27.0405 19.1268L27.0388 19.1286C26.8782 19.291 26.6568 19.3919 26.4135 19.3919H23.7975C23.681 19.3919 23.5656 19.3686 23.458 19.3235C23.3504 19.2783 23.2527 19.2121 23.1704 19.1286C23.0879 19.0455 23.0224 18.9466 22.9778 18.8378C22.9331 18.729 22.9101 18.6123 22.9102 18.4945V15.9018C22.9102 15.6558 23.01 15.4318 23.1704 15.2694L23.1723 15.2676C23.3329 15.1053 23.5542 15.0044 23.7975 15.0044ZM23.7975 36.6084H26.4135C26.6568 36.6084 26.8782 36.7094 27.0388 36.8717L27.0405 36.8735C27.201 37.0359 27.3008 37.2599 27.3008 37.5059V40.0987C27.3008 40.2165 27.2779 40.3331 27.2332 40.4419C27.1885 40.5508 27.123 40.6496 27.0405 40.7327C26.9583 40.8162 26.8606 40.8824 26.753 40.9276C26.6454 40.9727 26.53 40.996 26.4135 40.9959H23.7975C23.5551 40.9959 23.3337 40.8952 23.1723 40.7327L23.1695 40.7299C23.0094 40.5667 22.9102 40.3432 22.9102 40.0987V37.5059C22.9102 37.2599 23.01 37.0359 23.1704 36.8735L23.1723 36.8717C23.3329 36.7094 23.5542 36.6084 23.7975 36.6084ZM26.4057 37.5137H23.8053V40.0907H26.4057V37.5137ZM29.6491 39.5459C29.5899 39.5467 29.531 39.5355 29.4761 39.5131C29.4211 39.4907 29.3711 39.4575 29.3289 39.4154C29.2867 39.3733 29.2532 39.3232 29.2304 39.2679C29.2075 39.2126 29.1958 39.1532 29.1958 39.0933C29.1958 39.0333 29.2075 38.974 29.2304 38.9187C29.2532 38.8634 29.2867 38.8132 29.3289 38.7711C29.3711 38.729 29.4211 38.6958 29.4761 38.6734C29.531 38.651 29.5899 38.6399 29.6491 38.6406H43.4926C43.6103 38.6422 43.7227 38.6905 43.8054 38.7752C43.8881 38.86 43.9344 38.9742 43.9344 39.0933C43.9344 39.2123 43.8881 39.3266 43.8054 39.4113C43.7227 39.496 43.6103 39.5444 43.4926 39.5459H29.6491ZM29.6491 24.9176C29.5314 24.916 29.419 24.8677 29.3363 24.7829C29.2536 24.6982 29.2072 24.584 29.2072 24.4649C29.2072 24.3458 29.2536 24.2316 29.3363 24.1469C29.419 24.0621 29.5314 24.0138 29.6491 24.0123H43.4926C43.6113 24.0123 43.7251 24.0599 43.809 24.1448C43.893 24.2297 43.9401 24.3449 43.9401 24.4649C43.9401 24.585 43.893 24.7001 43.809 24.785C43.7251 24.8699 43.6113 24.9176 43.4926 24.9176H29.6491ZM29.6491 17.6033C29.5304 17.6033 29.4166 17.5556 29.3326 17.4707C29.2487 17.3859 29.2015 17.2707 29.2015 17.1507C29.2015 17.0306 29.2487 16.9155 29.3326 16.8306C29.4166 16.7457 29.5304 16.698 29.6491 16.698H43.4926C43.6103 16.6996 43.7227 16.7479 43.8054 16.8326C43.8881 16.9174 43.9344 17.0316 43.9344 17.1507C43.9344 17.2697 43.8881 17.384 43.8054 17.4687C43.7227 17.5534 43.6103 17.6018 43.4926 17.6033H29.6491ZM29.6491 32.2317C29.5899 32.2325 29.531 32.2213 29.4761 32.1989C29.4211 32.1765 29.3711 32.1433 29.3289 32.1012C29.2867 32.0591 29.2532 32.0089 29.2304 31.9536C29.2075 31.8983 29.1958 31.839 29.1958 31.7791C29.1958 31.7191 29.2075 31.6598 29.2304 31.6045C29.2532 31.5492 29.2867 31.499 29.3289 31.4569C29.3711 31.4148 29.4211 31.3816 29.4761 31.3592C29.531 31.3368 29.5899 31.3256 29.6491 31.3264H43.4926C43.6103 31.3279 43.7227 31.3763 43.8054 31.461C43.8881 31.5457 43.9344 31.66 43.9344 31.7791C43.9344 31.8981 43.8881 32.0124 43.8054 32.0971C43.7227 32.1818 43.6103 32.2302 43.4926 32.2317H29.6491ZM23.7975 29.4071H26.4135C26.6568 29.4071 26.8782 29.508 27.0388 29.6704L27.0405 29.6721C27.201 29.8346 27.3008 30.0585 27.3008 30.3045V32.8972C27.3009 33.0151 27.2779 33.1317 27.2332 33.2406C27.1885 33.3494 27.123 33.4482 27.0405 33.5314C26.9583 33.6148 26.8606 33.6811 26.753 33.7262C26.6454 33.7714 26.53 33.7946 26.4135 33.7946H23.7975C23.5551 33.7946 23.3337 33.6939 23.1723 33.5314L23.1695 33.5285C23.0094 33.3653 22.9102 33.1419 22.9102 32.8972V30.3045C22.9102 30.0572 23.0098 29.8328 23.1704 29.6704C23.2527 29.5869 23.3504 29.5207 23.458 29.4755C23.5656 29.4303 23.681 29.4071 23.7975 29.4071ZM26.4057 30.3124H23.8053V32.8893H26.4057V30.3124ZM23.7975 22.2057H26.4135C26.6579 22.2057 26.8799 22.3065 27.0405 22.469C27.123 22.5522 27.1885 22.651 27.2332 22.7598C27.2779 22.8686 27.3009 22.9853 27.3008 23.1031V25.6959C27.3008 25.9419 27.201 26.1658 27.0405 26.3282L27.0388 26.33C26.8782 26.4924 26.6568 26.5932 26.4135 26.5932H23.7975C23.553 26.5932 23.331 26.4924 23.1704 26.33C23.0879 26.2469 23.0224 26.148 22.9778 26.0392C22.9331 25.9304 22.9101 25.8137 22.9102 25.6959V23.1031C22.9102 22.858 23.0098 22.6341 23.1704 22.4708L23.1733 22.468C23.3346 22.3061 23.5556 22.2057 23.7975 22.2057ZM26.4057 23.111H23.8053V25.6879H26.4057V23.111ZM26.4057 15.9096H23.8053V18.4866H26.4057V15.9096Z" fill="#505050"/>
</g>
<path d="M21.2376 12.5233C20.9041 12.8824 20.9239 13.445 21.2829 13.7786L24.245 16.5467L21.4807 19.5069C21.1472 19.866 21.167 20.4287 21.5259 20.7623C21.8849 21.0959 22.4474 21.0761 22.7809 20.717L25.5452 17.7539L28.5074 20.522C28.8664 20.8556 29.4288 20.8358 29.7624 20.4767C30.0959 20.1176 30.0761 19.555 29.7171 19.2214L26.755 16.4562L29.5221 13.4931C29.8556 13.134 29.8358 12.5713 29.4769 12.2377C29.1179 11.9041 28.5554 11.9239 28.2219 12.283L25.4576 15.2461L22.4926 12.478C22.1336 12.1444 21.5712 12.1642 21.2376 12.5233Z" fill="#E4783E"/>
<path d="M21.2376 34.5233C20.9041 34.8824 20.9239 35.445 21.2829 35.7786L24.245 38.5467L21.4807 41.5069C21.1472 41.866 21.167 42.4287 21.5259 42.7623C21.8849 43.0959 22.4474 43.0761 22.7809 42.717L25.5452 39.7539L28.5074 42.522C28.8664 42.8556 29.4288 42.8358 29.7624 42.4767C30.0959 42.1176 30.0761 41.555 29.7171 41.2214L26.755 38.4562L29.5221 35.4931C29.8556 35.134 29.8358 34.5713 29.4769 34.2377C29.1179 33.9041 28.5554 33.9239 28.2219 34.283L25.4576 37.2461L22.4926 34.478C22.1336 34.1444 21.5712 34.1642 21.2376 34.5233Z" fill="#E4783E"/>
<path d="M8.912 59.132C9.12 59.132 9.30533 59.0973 9.468 59.028C9.63333 58.9587 9.772 58.8613 9.884 58.736C9.99867 58.6107 10.0853 58.4587 10.144 58.28C10.2053 58.1013 10.236 57.9013 10.236 57.68V54.216H11.312V57.68C11.312 58.024 11.256 58.3427 11.144 58.636C11.0347 58.9267 10.876 59.1787 10.668 59.392C10.46 59.6027 10.208 59.768 9.912 59.888C9.616 60.0053 9.28267 60.064 8.912 60.064C8.54133 60.064 8.208 60.0053 7.912 59.888C7.616 59.768 7.364 59.6027 7.156 59.392C6.95067 59.1787 6.792 58.9267 6.68 58.636C6.57067 58.3427 6.516 58.024 6.516 57.68V54.216H7.592V57.676C7.592 57.8973 7.62133 58.0973 7.68 58.276C7.74133 58.4547 7.828 58.608 7.94 58.736C8.052 58.8613 8.18933 58.9587 8.352 59.028C8.51733 59.0973 8.704 59.132 8.912 59.132ZM12.3483 60V55.896H12.9523C13.0803 55.896 13.1643 55.956 13.2043 56.076L13.2723 56.4C13.355 56.3147 13.4416 56.2373 13.5323 56.168C13.6256 56.0987 13.723 56.0387 13.8243 55.988C13.9283 55.9373 14.039 55.8987 14.1563 55.872C14.2736 55.8453 14.4016 55.832 14.5403 55.832C14.7643 55.832 14.963 55.8707 15.1363 55.948C15.3096 56.0227 15.4536 56.1293 15.5683 56.268C15.6856 56.404 15.7736 56.568 15.8323 56.76C15.8936 56.9493 15.9243 57.1587 15.9243 57.388V60H14.9363V57.388C14.9363 57.1373 14.8776 56.944 14.7603 56.808C14.6456 56.6693 14.4723 56.6 14.2403 56.6C14.0696 56.6 13.9096 56.6387 13.7603 56.716C13.611 56.7933 13.4696 56.8987 13.3363 57.032V60H12.3483ZM17.9472 54.056V60H16.9592V54.056H17.9472ZM20.1191 55.896V60H19.1311V55.896H20.1191ZM20.2671 54.7C20.2671 54.7853 20.2497 54.8653 20.2151 54.94C20.1804 55.0147 20.1337 55.08 20.0751 55.136C20.0191 55.192 19.9524 55.2373 19.8751 55.272C19.7977 55.304 19.7151 55.32 19.6271 55.32C19.5417 55.32 19.4604 55.304 19.3831 55.272C19.3084 55.2373 19.2431 55.192 19.1871 55.136C19.1311 55.08 19.0857 55.0147 19.0511 54.94C19.0191 54.8653 19.0031 54.7853 19.0031 54.7C19.0031 54.612 19.0191 54.5293 19.0511 54.452C19.0857 54.3747 19.1311 54.308 19.1871 54.252C19.2431 54.196 19.3084 54.152 19.3831 54.12C19.4604 54.0853 19.5417 54.068 19.6271 54.068C19.7151 54.068 19.7977 54.0853 19.8751 54.12C19.9524 54.152 20.0191 54.196 20.0751 54.252C20.1337 54.308 20.1804 54.3747 20.2151 54.452C20.2497 54.5293 20.2671 54.612 20.2671 54.7ZM23.6749 56.696C23.6483 56.7387 23.6203 56.7693 23.5909 56.788C23.5616 56.804 23.5243 56.812 23.4789 56.812C23.4309 56.812 23.3789 56.7987 23.3229 56.772C23.2696 56.7453 23.2069 56.716 23.1349 56.684C23.0629 56.6493 22.9803 56.6187 22.8869 56.592C22.7963 56.5653 22.6883 56.552 22.5629 56.552C22.3683 56.552 22.2149 56.5933 22.1029 56.676C21.9909 56.7587 21.9349 56.8667 21.9349 57C21.9349 57.088 21.9629 57.1627 22.0189 57.224C22.0776 57.2827 22.1536 57.3347 22.2469 57.38C22.3429 57.4253 22.4509 57.4667 22.5709 57.504C22.6909 57.5387 22.8136 57.5773 22.9389 57.62C23.0643 57.6627 23.1869 57.712 23.3069 57.768C23.4269 57.8213 23.5336 57.8907 23.6269 57.976C23.7229 58.0587 23.7989 58.1587 23.8549 58.276C23.9136 58.3933 23.9429 58.5347 23.9429 58.7C23.9429 58.8973 23.9069 59.08 23.8349 59.248C23.7629 59.4133 23.6576 59.5573 23.5189 59.68C23.3803 59.8 23.2083 59.8947 23.0029 59.964C22.8003 60.0307 22.5669 60.064 22.3029 60.064C22.1616 60.064 22.0229 60.0507 21.8869 60.024C21.7536 60 21.6243 59.9653 21.4989 59.92C21.3763 59.8747 21.2616 59.8213 21.1549 59.76C21.0509 59.6987 20.9589 59.632 20.8789 59.56L21.1069 59.184C21.1363 59.1387 21.1709 59.104 21.2109 59.08C21.2509 59.056 21.3016 59.044 21.3629 59.044C21.4243 59.044 21.4816 59.0613 21.5349 59.096C21.5909 59.1307 21.6549 59.168 21.7269 59.208C21.7989 59.248 21.8829 59.2853 21.9789 59.32C22.0776 59.3547 22.2016 59.372 22.3509 59.372C22.4683 59.372 22.5683 59.3587 22.6509 59.332C22.7363 59.3027 22.8056 59.2653 22.8589 59.22C22.9149 59.1747 22.9549 59.1227 22.9789 59.064C23.0056 59.0027 23.0189 58.94 23.0189 58.876C23.0189 58.78 22.9896 58.7013 22.9309 58.64C22.8749 58.5787 22.7989 58.5253 22.7029 58.48C22.6096 58.4347 22.5016 58.3947 22.3789 58.36C22.2589 58.3227 22.1349 58.2827 22.0069 58.24C21.8816 58.1973 21.7576 58.148 21.6349 58.092C21.5149 58.0333 21.4069 57.96 21.3109 57.872C21.2176 57.784 21.1416 57.676 21.0829 57.548C21.0269 57.42 20.9989 57.2653 20.9989 57.084C20.9989 56.916 21.0323 56.756 21.0989 56.604C21.1656 56.452 21.2629 56.32 21.3909 56.208C21.5216 56.0933 21.6829 56.0027 21.8749 55.936C22.0696 55.8667 22.2936 55.832 22.5469 55.832C22.8296 55.832 23.0869 55.8787 23.3189 55.972C23.5509 56.0653 23.7443 56.188 23.8989 56.34L23.6749 56.696ZM26.0791 60.064C25.7245 60.064 25.4511 59.964 25.2591 59.764C25.0671 59.5613 24.9711 59.2827 24.9711 58.928V56.636H24.5551C24.5018 56.636 24.4551 56.6187 24.4151 56.584C24.3778 56.5493 24.3591 56.4973 24.3591 56.428V56.036L25.0191 55.928L25.2271 54.808C25.2378 54.7547 25.2618 54.7133 25.2991 54.684C25.3391 54.6547 25.3885 54.64 25.4471 54.64H25.9591V55.932H27.0391V56.636H25.9591V58.86C25.9591 58.988 25.9911 59.088 26.0551 59.16C26.1191 59.232 26.2045 59.268 26.3111 59.268C26.3725 59.268 26.4231 59.2613 26.4631 59.248C26.5058 59.232 26.5418 59.216 26.5711 59.2C26.6031 59.184 26.6311 59.1693 26.6551 59.156C26.6791 59.14 26.7031 59.132 26.7271 59.132C26.7565 59.132 26.7805 59.14 26.7991 59.156C26.8178 59.1693 26.8378 59.1907 26.8591 59.22L27.1551 59.7C27.0111 59.82 26.8458 59.9107 26.6591 59.972C26.4725 60.0333 26.2791 60.064 26.0791 60.064ZM29.5209 55.832C29.7795 55.832 30.0169 55.8733 30.2329 55.956C30.4515 56.0387 30.6395 56.16 30.7969 56.32C30.9542 56.4773 31.0769 56.672 31.1649 56.904C31.2529 57.1333 31.2969 57.396 31.2969 57.692C31.2969 57.7667 31.2929 57.8293 31.2849 57.88C31.2795 57.928 31.2675 57.9667 31.2489 57.996C31.2329 58.0227 31.2102 58.0427 31.1809 58.056C31.1515 58.0667 31.1142 58.072 31.0689 58.072H28.5329C28.5622 58.4933 28.6755 58.8027 28.8729 59C29.0702 59.1973 29.3315 59.296 29.6569 59.296C29.8169 59.296 29.9542 59.2773 30.0689 59.24C30.1862 59.2027 30.2875 59.1613 30.3729 59.116C30.4609 59.0707 30.5369 59.0293 30.6009 58.992C30.6675 58.9547 30.7315 58.936 30.7929 58.936C30.8329 58.936 30.8675 58.944 30.8969 58.96C30.9262 58.976 30.9515 58.9987 30.9729 59.028L31.2609 59.388C31.1515 59.516 31.0289 59.624 30.8929 59.712C30.7569 59.7973 30.6142 59.8667 30.4649 59.92C30.3182 59.9707 30.1675 60.0067 30.0129 60.028C29.8609 60.0493 29.7129 60.06 29.5689 60.06C29.2835 60.06 29.0182 60.0133 28.7729 59.92C28.5275 59.824 28.3142 59.684 28.1329 59.5C27.9515 59.3133 27.8089 59.084 27.7049 58.812C27.6009 58.5373 27.5489 58.22 27.5489 57.86C27.5489 57.58 27.5942 57.3173 27.6849 57.072C27.7755 56.824 27.9049 56.6093 28.0729 56.428C28.2435 56.244 28.4502 56.0987 28.6929 55.992C28.9382 55.8853 29.2142 55.832 29.5209 55.832ZM29.5409 56.54C29.2529 56.54 29.0275 56.6213 28.8649 56.784C28.7022 56.9467 28.5982 57.1773 28.5529 57.476H30.4089C30.4089 57.348 30.3915 57.228 30.3569 57.116C30.3222 57.0013 30.2689 56.9013 30.1969 56.816C30.1249 56.7307 30.0342 56.664 29.9249 56.616C29.8155 56.5653 29.6875 56.54 29.5409 56.54ZM34.9863 60C34.8583 60 34.7743 59.94 34.7343 59.82L34.6543 59.424C34.569 59.52 34.4796 59.6067 34.3863 59.684C34.293 59.7613 34.1916 59.828 34.0823 59.884C33.9756 59.94 33.8596 59.9827 33.7343 60.012C33.6116 60.044 33.4783 60.06 33.3343 60.06C33.1103 60.06 32.905 60.0133 32.7183 59.92C32.5316 59.8267 32.3703 59.692 32.2343 59.516C32.101 59.3373 31.997 59.1173 31.9223 58.856C31.8503 58.5947 31.8143 58.296 31.8143 57.96C31.8143 57.656 31.8556 57.3733 31.9383 57.112C32.021 56.8507 32.1396 56.624 32.2943 56.432C32.449 56.24 32.6343 56.0907 32.8503 55.984C33.0663 55.8747 33.309 55.82 33.5783 55.82C33.8076 55.82 34.0036 55.8573 34.1663 55.932C34.329 56.004 34.4743 56.1013 34.6023 56.224V54.056H35.5903V60H34.9863ZM33.6703 59.276C33.8756 59.276 34.0503 59.2333 34.1943 59.148C34.3383 59.0627 34.4743 58.9413 34.6023 58.784V56.944C34.4903 56.808 34.3676 56.712 34.2343 56.656C34.1036 56.6 33.9623 56.572 33.8103 56.572C33.661 56.572 33.525 56.6 33.4023 56.656C33.2823 56.712 33.1796 56.7973 33.0943 56.912C33.0116 57.024 32.9476 57.168 32.9023 57.344C32.857 57.5173 32.8343 57.7227 32.8343 57.96C32.8343 58.2 32.853 58.404 32.8903 58.572C32.9303 58.7373 32.9863 58.8733 33.0583 58.98C33.1303 59.084 33.2183 59.16 33.3223 59.208C33.4263 59.2533 33.5423 59.276 33.6703 59.276ZM40.9197 59.208C41.1624 59.208 41.373 59.1867 41.5517 59.144C41.733 59.0987 41.905 59.0373 42.0677 58.96V57.908H41.3437C41.2744 57.908 41.2197 57.8893 41.1797 57.852C41.1397 57.812 41.1197 57.764 41.1197 57.708V57.1H43.0437V59.44C42.897 59.5467 42.7437 59.64 42.5837 59.72C42.4264 59.7973 42.257 59.8613 42.0757 59.912C41.897 59.9627 41.705 60 41.4997 60.024C41.2944 60.0507 41.073 60.064 40.8357 60.064C40.4144 60.064 40.0264 59.9907 39.6717 59.844C39.317 59.6973 39.0104 59.4933 38.7517 59.232C38.493 58.9707 38.2904 58.6587 38.1437 58.296C37.9997 57.9333 37.9277 57.5373 37.9277 57.108C37.9277 56.6733 37.9984 56.2747 38.1397 55.912C38.281 55.5493 38.481 55.2373 38.7397 54.976C39.001 54.7147 39.317 54.512 39.6877 54.368C40.0584 54.224 40.4744 54.152 40.9357 54.152C41.4077 54.152 41.8157 54.2227 42.1597 54.364C42.5064 54.5027 42.7997 54.684 43.0397 54.908L42.7277 55.396C42.6664 55.4947 42.585 55.544 42.4837 55.544C42.4197 55.544 42.3544 55.5227 42.2877 55.48C42.2024 55.4293 42.1144 55.3787 42.0237 55.328C41.9357 55.2773 41.837 55.2333 41.7277 55.196C41.621 55.1587 41.4997 55.128 41.3637 55.104C41.2304 55.08 41.0757 55.068 40.8997 55.068C40.6144 55.068 40.3557 55.116 40.1237 55.212C39.8944 55.308 39.6984 55.4453 39.5357 55.624C39.373 55.8027 39.2477 56.0173 39.1597 56.268C39.0717 56.5187 39.0277 56.7987 39.0277 57.108C39.0277 57.4413 39.0744 57.7387 39.1677 58C39.261 58.2587 39.3917 58.4773 39.5597 58.656C39.7277 58.8347 39.9277 58.972 40.1597 59.068C40.3917 59.1613 40.645 59.208 40.9197 59.208ZM45.6849 55.832C45.9436 55.832 46.1809 55.8733 46.3969 55.956C46.6156 56.0387 46.8036 56.16 46.9609 56.32C47.1183 56.4773 47.2409 56.672 47.3289 56.904C47.4169 57.1333 47.4609 57.396 47.4609 57.692C47.4609 57.7667 47.4569 57.8293 47.4489 57.88C47.4436 57.928 47.4316 57.9667 47.4129 57.996C47.3969 58.0227 47.3743 58.0427 47.3449 58.056C47.3156 58.0667 47.2783 58.072 47.2329 58.072H44.6969C44.7263 58.4933 44.8396 58.8027 45.0369 59C45.2343 59.1973 45.4956 59.296 45.8209 59.296C45.9809 59.296 46.1183 59.2773 46.2329 59.24C46.3503 59.2027 46.4516 59.1613 46.5369 59.116C46.6249 59.0707 46.7009 59.0293 46.7649 58.992C46.8316 58.9547 46.8956 58.936 46.9569 58.936C46.9969 58.936 47.0316 58.944 47.0609 58.96C47.0903 58.976 47.1156 58.9987 47.1369 59.028L47.4249 59.388C47.3156 59.516 47.1929 59.624 47.0569 59.712C46.9209 59.7973 46.7783 59.8667 46.6289 59.92C46.4823 59.9707 46.3316 60.0067 46.1769 60.028C46.0249 60.0493 45.8769 60.06 45.7329 60.06C45.4476 60.06 45.1823 60.0133 44.9369 59.92C44.6916 59.824 44.4783 59.684 44.2969 59.5C44.1156 59.3133 43.9729 59.084 43.8689 58.812C43.7649 58.5373 43.7129 58.22 43.7129 57.86C43.7129 57.58 43.7583 57.3173 43.8489 57.072C43.9396 56.824 44.0689 56.6093 44.2369 56.428C44.4076 56.244 44.6143 56.0987 44.8569 55.992C45.1023 55.8853 45.3783 55.832 45.6849 55.832ZM45.7049 56.54C45.4169 56.54 45.1916 56.6213 45.0289 56.784C44.8663 56.9467 44.7623 57.1773 44.7169 57.476H46.5729C46.5729 57.348 46.5556 57.228 46.5209 57.116C46.4863 57.0013 46.4329 56.9013 46.3609 56.816C46.2889 56.7307 46.1983 56.664 46.0889 56.616C45.9796 56.5653 45.8516 56.54 45.7049 56.54ZM51.4784 60H51.0344C50.941 60 50.8677 59.9867 50.8144 59.96C50.761 59.9307 50.721 59.8733 50.6944 59.788L50.6064 59.496C50.5024 59.5893 50.3997 59.672 50.2984 59.744C50.1997 59.8133 50.097 59.872 49.9904 59.92C49.8837 59.968 49.7704 60.004 49.6504 60.028C49.5304 60.052 49.397 60.064 49.2504 60.064C49.077 60.064 48.917 60.0413 48.7704 59.996C48.6237 59.948 48.497 59.8773 48.3904 59.784C48.2864 59.6907 48.205 59.5747 48.1464 59.436C48.0877 59.2973 48.0584 59.136 48.0584 58.952C48.0584 58.7973 48.0984 58.6453 48.1784 58.496C48.261 58.344 48.397 58.208 48.5864 58.088C48.7757 57.9653 49.0277 57.864 49.3424 57.784C49.657 57.704 50.0477 57.6587 50.5144 57.648V57.408C50.5144 57.1333 50.4557 56.9307 50.3384 56.8C50.2237 56.6667 50.0557 56.6 49.8344 56.6C49.6744 56.6 49.541 56.6187 49.4344 56.656C49.3277 56.6933 49.2344 56.736 49.1544 56.784C49.077 56.8293 49.005 56.8707 48.9384 56.908C48.8717 56.9453 48.7984 56.964 48.7184 56.964C48.6517 56.964 48.5944 56.9467 48.5464 56.912C48.4984 56.8773 48.4597 56.8347 48.4304 56.784L48.2504 56.468C48.7224 56.036 49.2917 55.82 49.9584 55.82C50.1984 55.82 50.4117 55.86 50.5984 55.94C50.7877 56.0173 50.9477 56.1267 51.0784 56.268C51.209 56.4067 51.3077 56.5733 51.3744 56.768C51.4437 56.9627 51.4784 57.176 51.4784 57.408V60ZM49.5584 59.384C49.6597 59.384 49.753 59.3747 49.8384 59.356C49.9237 59.3373 50.0037 59.3093 50.0784 59.272C50.1557 59.2347 50.229 59.1893 50.2984 59.136C50.3704 59.08 50.4424 59.0147 50.5144 58.94V58.248C50.2264 58.2613 49.985 58.2867 49.7904 58.324C49.5984 58.3587 49.4437 58.404 49.3264 58.46C49.209 58.516 49.125 58.5813 49.0744 58.656C49.0264 58.7307 49.0024 58.812 49.0024 58.9C49.0024 59.0733 49.053 59.1973 49.1544 59.272C49.2584 59.3467 49.393 59.384 49.5584 59.384ZM52.4499 60V55.896H53.0299C53.1312 55.896 53.2019 55.9147 53.2419 55.952C53.2819 55.9893 53.3085 56.0533 53.3219 56.144L53.3819 56.64C53.5285 56.3867 53.7005 56.1867 53.8979 56.04C54.0952 55.8933 54.3165 55.82 54.5619 55.82C54.7645 55.82 54.9325 55.8667 55.0659 55.96L54.9379 56.7C54.9299 56.748 54.9125 56.7827 54.8859 56.804C54.8592 56.8227 54.8232 56.832 54.7779 56.832C54.7379 56.832 54.6832 56.8227 54.6139 56.804C54.5445 56.7853 54.4525 56.776 54.3379 56.776C54.1325 56.776 53.9565 56.8333 53.8099 56.948C53.6632 57.06 53.5392 57.2253 53.4379 57.444V60H52.4499ZM58.1515 56.696C58.1248 56.7387 58.0968 56.7693 58.0675 56.788C58.0382 56.804 58.0008 56.812 57.9555 56.812C57.9075 56.812 57.8555 56.7987 57.7995 56.772C57.7462 56.7453 57.6835 56.716 57.6115 56.684C57.5395 56.6493 57.4568 56.6187 57.3635 56.592C57.2728 56.5653 57.1648 56.552 57.0395 56.552C56.8448 56.552 56.6915 56.5933 56.5795 56.676C56.4675 56.7587 56.4115 56.8667 56.4115 57C56.4115 57.088 56.4395 57.1627 56.4955 57.224C56.5542 57.2827 56.6302 57.3347 56.7235 57.38C56.8195 57.4253 56.9275 57.4667 57.0475 57.504C57.1675 57.5387 57.2902 57.5773 57.4155 57.62C57.5408 57.6627 57.6635 57.712 57.7835 57.768C57.9035 57.8213 58.0102 57.8907 58.1035 57.976C58.1995 58.0587 58.2755 58.1587 58.3315 58.276C58.3902 58.3933 58.4195 58.5347 58.4195 58.7C58.4195 58.8973 58.3835 59.08 58.3115 59.248C58.2395 59.4133 58.1342 59.5573 57.9955 59.68C57.8568 59.8 57.6848 59.8947 57.4795 59.964C57.2768 60.0307 57.0435 60.064 56.7795 60.064C56.6382 60.064 56.4995 60.0507 56.3635 60.024C56.2302 60 56.1008 59.9653 55.9755 59.92C55.8528 59.8747 55.7382 59.8213 55.6315 59.76C55.5275 59.6987 55.4355 59.632 55.3555 59.56L55.5835 59.184C55.6128 59.1387 55.6475 59.104 55.6875 59.08C55.7275 59.056 55.7782 59.044 55.8395 59.044C55.9008 59.044 55.9582 59.0613 56.0115 59.096C56.0675 59.1307 56.1315 59.168 56.2035 59.208C56.2755 59.248 56.3595 59.2853 56.4555 59.32C56.5542 59.3547 56.6782 59.372 56.8275 59.372C56.9448 59.372 57.0448 59.3587 57.1275 59.332C57.2128 59.3027 57.2822 59.2653 57.3355 59.22C57.3915 59.1747 57.4315 59.1227 57.4555 59.064C57.4822 59.0027 57.4955 58.94 57.4955 58.876C57.4955 58.78 57.4662 58.7013 57.4075 58.64C57.3515 58.5787 57.2755 58.5253 57.1795 58.48C57.0862 58.4347 56.9782 58.3947 56.8555 58.36C56.7355 58.3227 56.6115 58.2827 56.4835 58.24C56.3582 58.1973 56.2342 58.148 56.1115 58.092C55.9915 58.0333 55.8835 57.96 55.7875 57.872C55.6942 57.784 55.6182 57.676 55.5595 57.548C55.5035 57.42 55.4755 57.2653 55.4755 57.084C55.4755 56.916 55.5088 56.756 55.5755 56.604C55.6422 56.452 55.7395 56.32 55.8675 56.208C55.9982 56.0933 56.1595 56.0027 56.3515 55.936C56.5462 55.8667 56.7702 55.832 57.0235 55.832C57.3062 55.832 57.5635 55.8787 57.7955 55.972C58.0275 56.0653 58.2208 56.188 58.3755 56.34L58.1515 56.696Z" fill="#1B1B1B"/>
<defs>
<clipPath id="clip0_3102_11529">
<rect width="33" height="38" fill="white" transform="translate(17 9)"/>
</clipPath>
</defs>
</svg>
