<svg width="87" height="49" viewBox="0 0 87 49" fill="none" xmlns="http://www.w3.org/2000/svg">
<g clip-path="url(#clip0_3105_11589)">
<path d="M38.2156 11.6429C38.698 9.7143 40.627 7.30359 44.4826 7.30359C48.3381 7.30359 51.2326 10.1964 51.7147 13.0893C52.1968 15.9822 50.7504 17.4286 49.304 18.875C48.3206 19.8584 47.8576 20.3214 46.8933 22.25C45.929 24.1786 46.5718 26.9107 46.4111 27.5536C46.2504 28.1964 45.4468 28.5179 44.0004 28.5179C42.0336 28.5179 42.554 26.5893 42.554 25.625C42.554 23.6371 42.4567 23.4072 42.071 22.25C41.5889 20.8036 40.6259 19.8393 39.1795 17.9107C37.733 15.9822 37.8456 13.1221 38.2156 11.6429Z" fill="#FAEED4"/>
<path d="M41.0437 24.4253C40.7713 24.4319 40.5324 24.2473 40.4942 23.9947C40.4536 23.731 40.6471 23.4871 40.929 23.4366C40.6184 21.8172 39.7703 20.9251 38.8743 19.9825C38.1767 19.2486 37.4528 18.4861 36.8818 17.3633C36.3203 16.2581 36.0121 15.1155 36.0217 13.929C36.0336 12.7425 36.3609 11.5208 37.0729 10.2574C37.0777 10.2486 37.0825 10.242 37.0872 10.2332C38.0214 8.7786 39.3283 7.80741 40.7833 7.26249C42.0041 6.80326 43.3301 6.64725 44.6298 6.75712C45.9248 6.86698 47.1934 7.24051 48.302 7.84256C49.714 8.60941 50.8704 9.74759 51.5083 11.1846C51.8523 11.9624 52.0864 12.8304 52.1151 13.7818C52.1438 14.7288 51.967 15.7505 51.4915 16.8316C50.856 18.2796 50.015 19.1783 49.229 20.0198C48.5051 20.7954 47.8313 21.5161 47.4562 22.6214C47.6689 22.6675 47.8361 22.8279 47.8696 23.0389C47.9102 23.3113 47.7023 23.564 47.4061 23.6014L47.2221 23.6255C47.1886 23.865 47.1671 24.1221 47.1576 24.3968L47.2173 24.388C47.5136 24.3506 47.7883 24.5418 47.8289 24.8142C47.8696 25.0867 47.6617 25.3394 47.3654 25.3767L47.1791 25.4009C47.1815 25.4339 47.1839 25.4668 47.1863 25.4998C47.203 25.6932 47.2054 25.8799 47.1934 26.0579L47.2245 26.0535C47.5231 26.0205 47.7931 26.2161 47.8313 26.4886C47.8672 26.7632 47.6545 27.0115 47.3583 27.0467L46.9569 27.0928C46.6702 27.7762 46.1589 28.2969 45.5545 28.6177C45.1387 28.8396 44.6776 28.9671 44.2141 28.9934C43.7435 29.0198 43.268 28.9385 42.8332 28.7452C42.3362 28.521 41.8919 28.1497 41.5693 27.6158C41.414 27.5433 41.2993 27.4026 41.2755 27.2312C41.2659 27.1631 41.2731 27.0972 41.2922 27.0357C41.199 26.7808 41.1297 26.5017 41.0843 26.1941L41.0676 26.1963C40.7713 26.2337 40.4966 26.0425 40.456 25.7701C40.4154 25.4976 40.6232 25.2449 40.9195 25.2076L41.0485 25.19C41.058 24.9219 41.0556 24.667 41.0437 24.4253ZM44.6967 16.48C44.6967 16.2757 44.6442 16.1175 44.5319 16.001C44.422 15.8846 44.2332 15.7791 43.9585 15.6736C43.6885 15.5725 43.4329 15.4671 43.2035 15.3638C42.9742 15.2583 42.7735 15.1375 42.6062 14.9991C42.439 14.8606 42.3124 14.7024 42.2216 14.5201C42.1308 14.3399 42.0902 14.1202 42.0902 13.8609C42.0902 13.428 42.2502 13.0721 42.5656 12.7952C42.881 12.5161 43.3039 12.3514 43.8319 12.3052V11.7251H44.4961V12.3206C45.0049 12.3887 45.4063 12.5799 45.6978 12.8963C45.9893 13.2127 46.1374 13.6126 46.1374 14.0982H44.723C44.723 13.8301 44.6657 13.628 44.5558 13.4829C44.4459 13.3401 44.2858 13.2676 44.0803 13.2676C43.8964 13.2676 43.753 13.3203 43.6551 13.4258C43.5523 13.5313 43.5045 13.6785 43.5045 13.8631C43.5045 14.052 43.5619 14.2015 43.6813 14.3157C43.8008 14.4278 43.9848 14.5332 44.2428 14.6365C44.5008 14.7376 44.7469 14.8431 44.9763 14.9485C45.2056 15.0584 45.4015 15.1814 45.5712 15.3177C45.7384 15.4561 45.8698 15.6187 45.9654 15.8033C46.0586 15.9878 46.1087 16.2076 46.1087 16.4668C46.1087 16.9041 45.9582 17.2622 45.6548 17.5369C45.3514 17.8116 44.9404 17.9742 44.422 18.0203V18.563H43.7578V18.0181C43.151 17.9588 42.6851 17.7698 42.3601 17.4446C42.0352 17.1194 41.8727 16.6953 41.8727 16.1636H43.2824C43.2824 16.458 43.3516 16.6756 43.4902 16.8316C43.6288 16.9832 43.8295 17.0623 44.0875 17.0623C44.2762 17.0623 44.4244 17.0096 44.5343 16.9085C44.6418 16.8074 44.6991 16.6624 44.6991 16.4822H44.6967V16.48ZM31.0211 14.9331C30.7416 14.9397 30.5099 14.7398 30.5003 14.4827C30.4907 14.2256 30.7105 14.0125 30.9901 14.0037L33.0687 13.9378C33.3482 13.929 33.5799 14.1311 33.5895 14.3882C33.5991 14.6453 33.3792 14.8584 33.0997 14.8672L31.0211 14.9331ZM56.9436 13.0413C57.2208 13.0149 57.4692 13.2017 57.4979 13.4566C57.5266 13.7115 57.3235 13.94 57.0464 13.9663L54.9773 14.1663C54.7002 14.1927 54.4517 14.0059 54.423 13.751C54.3944 13.4961 54.5975 13.2676 54.8746 13.2412L56.9436 13.0413ZM53.1759 5.24759C53.3312 5.03446 53.6442 4.97733 53.8759 5.12015C54.1077 5.26297 54.1698 5.55082 54.0145 5.76395L52.8581 7.35477C52.7028 7.56791 52.3899 7.62504 52.1581 7.48221C51.9264 7.33939 51.8643 7.05155 52.0195 6.83841L53.1759 5.24759ZM44.2691 2.45267C44.2762 2.19559 44.508 1.99344 44.7851 2.00003C45.0623 2.00663 45.2845 2.21976 45.2773 2.47464L45.2247 4.38627C45.2176 4.64335 44.9858 4.84549 44.7087 4.8389C44.4292 4.83231 44.2094 4.61918 44.2165 4.36429L44.2691 2.45267ZM33.8165 5.41239C33.611 5.23661 33.6014 4.94217 33.7902 4.75541C33.9813 4.56644 34.3015 4.55765 34.5045 4.73124L36.0264 6.03641C36.2319 6.21219 36.2415 6.50663 36.0527 6.69339C35.8616 6.88236 35.5414 6.89115 35.3384 6.71756L33.8165 5.41239ZM41.9396 23.3025L46.3572 22.7246C46.7371 21.2525 47.5637 20.367 48.4597 19.4112C49.1955 18.6245 49.9792 17.7852 50.5526 16.48C50.9731 15.5242 51.1284 14.6277 51.1045 13.8015C51.0806 12.9776 50.8751 12.2173 50.5693 11.5296C50.0198 10.2925 49.014 9.30814 47.7859 8.64017C46.804 8.10624 45.6835 7.77445 44.5391 7.67997C43.3994 7.58329 42.2359 7.72172 41.1632 8.12381C39.9065 8.59623 38.7764 9.43558 37.9641 10.699C37.3333 11.824 37.0418 12.9007 37.0323 13.9356C37.0227 14.9771 37.2975 15.9856 37.7968 16.9678C38.3057 17.9698 38.9842 18.6817 39.6341 19.3672C40.6471 20.4351 41.6052 21.4436 41.9396 23.3025ZM46.178 23.7574L42.0519 24.2957C42.0639 24.5374 42.0687 24.7901 42.0639 25.0581L46.1374 24.5264C46.1422 24.2561 46.1541 23.9991 46.178 23.7574ZM42.0854 26.0645C42.1141 26.2666 42.1571 26.4512 42.212 26.6226L46.1661 26.1744C46.1924 25.9854 46.1971 25.7854 46.178 25.5723V25.5679L46.1756 25.5306L42.0854 26.0645ZM42.7735 27.5674C42.9264 27.7146 43.096 27.8289 43.2752 27.908C43.5499 28.031 43.8534 28.0816 44.152 28.0662C44.4578 28.0486 44.766 27.9629 45.0456 27.8135C45.3084 27.6729 45.5449 27.4773 45.7336 27.2312L42.7735 27.5674Z" fill="#505050"/>
</g>
<path d="M31.025 36.505C31.1767 36.505 31.3083 36.4917 31.42 36.465C31.5333 36.4367 31.6408 36.3983 31.7425 36.35V35.6925H31.29C31.2467 35.6925 31.2125 35.6808 31.1875 35.6575C31.1625 35.6325 31.15 35.6025 31.15 35.5675V35.1875H32.3525V36.65C32.2608 36.7167 32.165 36.775 32.065 36.825C31.9667 36.8733 31.8608 36.9133 31.7475 36.945C31.6358 36.9767 31.5158 37 31.3875 37.015C31.2592 37.0317 31.1208 37.04 30.9725 37.04C30.7092 37.04 30.4667 36.9942 30.245 36.9025C30.0233 36.8108 29.8317 36.6833 29.67 36.52C29.5083 36.3567 29.3817 36.1617 29.29 35.935C29.2 35.7083 29.155 35.4608 29.155 35.1925C29.155 34.9208 29.1992 34.6717 29.2875 34.445C29.3758 34.2183 29.5008 34.0233 29.6625 33.86C29.8258 33.6967 30.0233 33.57 30.255 33.48C30.4867 33.39 30.7467 33.345 31.035 33.345C31.33 33.345 31.585 33.3892 31.8 33.4775C32.0167 33.5642 32.2 33.6775 32.35 33.8175L32.155 34.1225C32.1167 34.1842 32.0658 34.215 32.0025 34.215C31.9625 34.215 31.9217 34.2017 31.88 34.175C31.8267 34.1433 31.7717 34.1117 31.715 34.08C31.66 34.0483 31.5983 34.0208 31.53 33.9975C31.4633 33.9742 31.3875 33.955 31.3025 33.94C31.2192 33.925 31.1225 33.9175 31.0125 33.9175C30.8342 33.9175 30.6725 33.9475 30.5275 34.0075C30.3842 34.0675 30.2617 34.1533 30.16 34.265C30.0583 34.3767 29.98 34.5108 29.925 34.6675C29.87 34.8242 29.8425 34.9992 29.8425 35.1925C29.8425 35.4008 29.8717 35.5867 29.93 35.75C29.9883 35.9117 30.07 36.0483 30.175 36.16C30.28 36.2717 30.405 36.3575 30.55 36.4175C30.695 36.4758 30.8533 36.505 31.025 36.505ZM32.9433 37V34.435H33.3058C33.3691 34.435 33.4133 34.4467 33.4383 34.47C33.4633 34.4933 33.4799 34.5333 33.4883 34.59L33.5258 34.9C33.6174 34.7417 33.7249 34.6167 33.8483 34.525C33.9716 34.4333 34.1099 34.3875 34.2633 34.3875C34.3899 34.3875 34.4949 34.4167 34.5783 34.475L34.4983 34.9375C34.4933 34.9675 34.4824 34.9892 34.4658 35.0025C34.4491 35.0142 34.4266 35.02 34.3983 35.02C34.3733 35.02 34.3391 35.0142 34.2958 35.0025C34.2524 34.9908 34.1949 34.985 34.1233 34.985C33.9949 34.985 33.8849 35.0208 33.7933 35.0925C33.7016 35.1625 33.6241 35.2658 33.5608 35.4025V37H32.9433ZM36.0793 34.395C36.271 34.395 36.4443 34.4258 36.5993 34.4875C36.756 34.5492 36.8893 34.6367 36.9993 34.75C37.1093 34.8633 37.1943 35.0017 37.2543 35.165C37.3143 35.3283 37.3443 35.5108 37.3443 35.7125C37.3443 35.9158 37.3143 36.0992 37.2543 36.2625C37.1943 36.4258 37.1093 36.565 36.9993 36.68C36.8893 36.795 36.756 36.8833 36.5993 36.945C36.4443 37.0067 36.271 37.0375 36.0793 37.0375C35.8876 37.0375 35.7135 37.0067 35.5568 36.945C35.4001 36.8833 35.266 36.795 35.1543 36.68C35.0443 36.565 34.9585 36.4258 34.8968 36.2625C34.8368 36.0992 34.8068 35.9158 34.8068 35.7125C34.8068 35.5108 34.8368 35.3283 34.8968 35.165C34.9585 35.0017 35.0443 34.8633 35.1543 34.75C35.266 34.6367 35.4001 34.5492 35.5568 34.4875C35.7135 34.4258 35.8876 34.395 36.0793 34.395ZM36.0793 36.5625C36.2926 36.5625 36.4501 36.4908 36.5518 36.3475C36.6551 36.2042 36.7068 35.9942 36.7068 35.7175C36.7068 35.4408 36.6551 35.23 36.5518 35.085C36.4501 34.94 36.2926 34.8675 36.0793 34.8675C35.8626 34.8675 35.7026 34.9408 35.5993 35.0875C35.496 35.2325 35.4443 35.4425 35.4443 35.7175C35.4443 35.9925 35.496 36.2025 35.5993 36.3475C35.7026 36.4908 35.8626 36.5625 36.0793 36.5625ZM37.5136 34.435H38.0036C38.0503 34.435 38.0894 34.4458 38.1211 34.4675C38.1528 34.4892 38.1728 34.5167 38.1811 34.55L38.5486 35.92C38.5686 35.995 38.5844 36.0683 38.5961 36.14C38.6094 36.2117 38.6219 36.2833 38.6336 36.355C38.6519 36.2833 38.6711 36.2117 38.6911 36.14C38.7128 36.0683 38.7353 35.995 38.7586 35.92L39.1836 34.545C39.1936 34.5117 39.2136 34.4842 39.2436 34.4625C39.2736 34.4408 39.3086 34.43 39.3486 34.43H39.6211C39.6661 34.43 39.7036 34.4408 39.7336 34.4625C39.7636 34.4842 39.7836 34.5117 39.7936 34.545L40.2136 35.945C40.2353 36.0167 40.2544 36.0867 40.2711 36.155C40.2894 36.2217 40.3069 36.2892 40.3236 36.3575C40.3353 36.2858 40.3478 36.2142 40.3611 36.1425C40.3761 36.0708 40.3944 35.9967 40.4161 35.92L40.7961 34.55C40.8044 34.5167 40.8244 34.4892 40.8561 34.4675C40.8878 34.4458 40.9244 34.435 40.9661 34.435H41.4336L40.6211 37H40.1236C40.0703 37 40.0319 36.9633 40.0086 36.89L39.5461 35.4075C39.5311 35.3592 39.5169 35.3108 39.5036 35.2625C39.4919 35.2125 39.4819 35.1633 39.4736 35.115C39.4636 35.165 39.4528 35.215 39.4411 35.265C39.4294 35.3133 39.4161 35.3625 39.4011 35.4125L38.9336 36.89C38.9103 36.9633 38.8653 37 38.7986 37H38.3261L37.5136 34.435ZM42.4387 34.435V37H41.8212V34.435H42.4387ZM42.5312 33.6875C42.5312 33.7408 42.5203 33.7908 42.4987 33.8375C42.477 33.8842 42.4478 33.925 42.4112 33.96C42.3762 33.995 42.3345 34.0233 42.2862 34.045C42.2378 34.065 42.1862 34.075 42.1312 34.075C42.0778 34.075 42.027 34.065 41.9787 34.045C41.932 34.0233 41.8912 33.995 41.8562 33.96C41.8212 33.925 41.7928 33.8842 41.7712 33.8375C41.7512 33.7908 41.7412 33.7408 41.7412 33.6875C41.7412 33.6325 41.7512 33.5808 41.7712 33.5325C41.7928 33.4842 41.8212 33.4425 41.8562 33.4075C41.8912 33.3725 41.932 33.345 41.9787 33.325C42.027 33.3033 42.0778 33.2925 42.1312 33.2925C42.1862 33.2925 42.2378 33.3033 42.2862 33.325C42.3345 33.345 42.3762 33.3725 42.4112 33.4075C42.4478 33.4425 42.477 33.4842 42.4987 33.5325C42.5203 33.5808 42.5312 33.6325 42.5312 33.6875ZM43.1386 37V34.435H43.5161C43.5961 34.435 43.6486 34.4725 43.6736 34.5475L43.7161 34.75C43.7678 34.6967 43.8219 34.6483 43.8786 34.605C43.9369 34.5617 43.9978 34.5242 44.0611 34.4925C44.1261 34.4608 44.1953 34.4367 44.2686 34.42C44.3419 34.4033 44.4219 34.395 44.5086 34.395C44.6486 34.395 44.7728 34.4192 44.8811 34.4675C44.9894 34.5142 45.0794 34.5808 45.1511 34.6675C45.2244 34.7525 45.2794 34.855 45.3161 34.975C45.3544 35.0933 45.3736 35.2242 45.3736 35.3675V37H44.7561V35.3675C44.7561 35.2108 44.7194 35.09 44.6461 35.005C44.5744 34.9183 44.4661 34.875 44.3211 34.875C44.2144 34.875 44.1144 34.8992 44.0211 34.9475C43.9278 34.9958 43.8394 35.0617 43.7561 35.145V37H43.1386ZM46.8679 34.39C46.9779 34.39 47.0812 34.4017 47.1779 34.425C47.2746 34.4467 47.3629 34.4792 47.4429 34.5225H48.1804V34.7525C48.1804 34.7908 48.1704 34.8208 48.1504 34.8425C48.1304 34.8642 48.0962 34.8792 48.0479 34.8875L47.8179 34.93C47.8346 34.9733 47.8471 35.0192 47.8554 35.0675C47.8654 35.1158 47.8704 35.1667 47.8704 35.22C47.8704 35.3467 47.8446 35.4617 47.7929 35.565C47.7429 35.6667 47.6729 35.7533 47.5829 35.825C47.4946 35.8967 47.3887 35.9525 47.2654 35.9925C47.1437 36.0308 47.0112 36.05 46.8679 36.05C46.7712 36.05 46.6771 36.0408 46.5854 36.0225C46.5054 36.0708 46.4654 36.125 46.4654 36.185C46.4654 36.2367 46.4887 36.275 46.5354 36.3C46.5837 36.3233 46.6462 36.34 46.7229 36.35C46.8012 36.36 46.8896 36.3667 46.9879 36.37C47.0862 36.3717 47.1871 36.3767 47.2904 36.385C47.3937 36.3933 47.4946 36.4083 47.5929 36.43C47.6912 36.45 47.7787 36.4825 47.8554 36.5275C47.9337 36.5725 47.9962 36.6342 48.0429 36.7125C48.0912 36.7892 48.1154 36.8883 48.1154 37.01C48.1154 37.1233 48.0871 37.2333 48.0304 37.34C47.9754 37.4467 47.8946 37.5417 47.7879 37.625C47.6829 37.7083 47.5537 37.775 47.4004 37.825C47.2471 37.8767 47.0721 37.9025 46.8754 37.9025C46.6804 37.9025 46.5112 37.8833 46.3679 37.845C46.2246 37.8083 46.1054 37.7583 46.0104 37.695C45.9171 37.6333 45.8471 37.5617 45.8004 37.48C45.7537 37.3983 45.7304 37.3133 45.7304 37.225C45.7304 37.105 45.7671 37.0042 45.8404 36.9225C45.9137 36.8408 46.0154 36.7758 46.1454 36.7275C46.0821 36.6925 46.0312 36.6458 45.9929 36.5875C45.9546 36.5292 45.9354 36.4533 45.9354 36.36C45.9354 36.3217 45.9421 36.2825 45.9554 36.2425C45.9687 36.2008 45.9887 36.16 46.0154 36.12C46.0437 36.08 46.0787 36.0425 46.1204 36.0075C46.1621 35.9708 46.2112 35.9383 46.2679 35.91C46.1379 35.84 46.0354 35.7467 45.9604 35.63C45.8871 35.5133 45.8504 35.3767 45.8504 35.22C45.8504 35.0933 45.8754 34.9792 45.9254 34.8775C45.9771 34.7742 46.0479 34.6867 46.1379 34.615C46.2296 34.5417 46.3371 34.4858 46.4604 34.4475C46.5854 34.4092 46.7212 34.39 46.8679 34.39ZM47.5454 37.115C47.5454 37.065 47.5304 37.0242 47.5004 36.9925C47.4704 36.9608 47.4296 36.9367 47.3779 36.92C47.3262 36.9017 47.2654 36.8883 47.1954 36.88C47.1271 36.8717 47.0537 36.8658 46.9754 36.8625C46.8987 36.8575 46.8187 36.8533 46.7354 36.85C46.6537 36.845 46.5746 36.8375 46.4979 36.8275C46.4279 36.8658 46.3712 36.9117 46.3279 36.965C46.2862 37.0167 46.2654 37.0767 46.2654 37.145C46.2654 37.19 46.2762 37.2317 46.2979 37.27C46.3212 37.31 46.3571 37.3442 46.4054 37.3725C46.4554 37.4008 46.5196 37.4225 46.5979 37.4375C46.6762 37.4542 46.7721 37.4625 46.8854 37.4625C47.0004 37.4625 47.0996 37.4533 47.1829 37.435C47.2662 37.4183 47.3346 37.3942 47.3879 37.3625C47.4429 37.3325 47.4829 37.2958 47.5079 37.2525C47.5329 37.2108 47.5454 37.165 47.5454 37.115ZM46.8679 35.655C46.9446 35.655 47.0112 35.645 47.0679 35.625C47.1246 35.6033 47.1712 35.5742 47.2079 35.5375C47.2462 35.5008 47.2746 35.4567 47.2929 35.405C47.3129 35.3533 47.3229 35.2967 47.3229 35.235C47.3229 35.1083 47.2846 35.0083 47.2079 34.935C47.1329 34.86 47.0196 34.8225 46.8679 34.8225C46.7162 34.8225 46.6021 34.86 46.5254 34.935C46.4504 35.0083 46.4129 35.1083 46.4129 35.235C46.4129 35.295 46.4221 35.3508 46.4404 35.4025C46.4604 35.4542 46.4887 35.4992 46.5254 35.5375C46.5637 35.5742 46.6112 35.6033 46.6679 35.625C46.7262 35.645 46.7929 35.655 46.8679 35.655ZM53.0376 35.1925C53.0376 35.3542 53.0209 35.5092 52.9876 35.6575C52.9542 35.8042 52.9059 35.9417 52.8426 36.07C52.7809 36.1983 52.7051 36.3167 52.6151 36.425C52.5251 36.5317 52.4226 36.6258 52.3076 36.7075L53.2251 37.7075H52.6701C52.5901 37.7075 52.5176 37.6967 52.4526 37.675C52.3892 37.6533 52.3309 37.6133 52.2776 37.555L51.7476 36.97C51.6626 36.9933 51.5751 37.0108 51.4851 37.0225C51.3967 37.0342 51.3042 37.04 51.2076 37.04C50.9342 37.04 50.6842 36.9942 50.4576 36.9025C50.2326 36.8092 50.0392 36.68 49.8776 36.515C49.7176 36.35 49.5934 36.155 49.5051 35.93C49.4167 35.7033 49.3726 35.4575 49.3726 35.1925C49.3726 34.9275 49.4167 34.6825 49.5051 34.4575C49.5934 34.2308 49.7176 34.035 49.8776 33.87C50.0392 33.705 50.2326 33.5767 50.4576 33.485C50.6842 33.3917 50.9342 33.345 51.2076 33.345C51.4809 33.345 51.7301 33.3917 51.9551 33.485C52.1801 33.5783 52.3726 33.7075 52.5326 33.8725C52.6926 34.0358 52.8167 34.2308 52.9051 34.4575C52.9934 34.6825 53.0376 34.9275 53.0376 35.1925ZM52.3476 35.1925C52.3476 34.9942 52.3209 34.8167 52.2676 34.66C52.2159 34.5017 52.1409 34.3675 52.0426 34.2575C51.9442 34.1475 51.8242 34.0633 51.6826 34.005C51.5426 33.9467 51.3842 33.9175 51.2076 33.9175C51.0309 33.9175 50.8717 33.9467 50.7301 34.005C50.5884 34.0633 50.4676 34.1475 50.3676 34.2575C50.2692 34.3675 50.1934 34.5017 50.1401 34.66C50.0867 34.8167 50.0601 34.9942 50.0601 35.1925C50.0601 35.3908 50.0867 35.5692 50.1401 35.7275C50.1934 35.8842 50.2692 36.0175 50.3676 36.1275C50.4676 36.2358 50.5884 36.3192 50.7301 36.3775C50.8717 36.4358 51.0309 36.465 51.2076 36.465C51.3842 36.465 51.5426 36.4358 51.6826 36.3775C51.8242 36.3192 51.9442 36.2358 52.0426 36.1275C52.1409 36.0175 52.2159 35.8842 52.2676 35.7275C52.3209 35.5692 52.3476 35.3908 52.3476 35.1925ZM54.2641 35.7275V37H53.5916V33.385H54.7691C55.0108 33.385 55.2199 33.4133 55.3966 33.47C55.5733 33.5267 55.7191 33.6058 55.8341 33.7075C55.9491 33.8092 56.0341 33.9308 56.0891 34.0725C56.1441 34.2142 56.1716 34.3692 56.1716 34.5375C56.1716 34.7125 56.1424 34.8733 56.0841 35.02C56.0258 35.165 55.9383 35.29 55.8216 35.395C55.7049 35.5 55.5591 35.5817 55.3841 35.64C55.2091 35.6983 55.0041 35.7275 54.7691 35.7275H54.2641ZM54.2641 35.2025H54.7691C54.8924 35.2025 54.9999 35.1875 55.0916 35.1575C55.1833 35.1258 55.2591 35.0817 55.3191 35.025C55.3791 34.9667 55.4241 34.8967 55.4541 34.815C55.4841 34.7317 55.4991 34.6392 55.4991 34.5375C55.4991 34.4408 55.4841 34.3533 55.4541 34.275C55.4241 34.1967 55.3791 34.13 55.3191 34.075C55.2591 34.02 55.1833 33.9783 55.0916 33.95C54.9999 33.92 54.8924 33.905 54.7691 33.905H54.2641V35.2025ZM58.1816 34.935C58.1649 34.9617 58.1474 34.9808 58.1291 34.9925C58.1108 35.0025 58.0874 35.0075 58.0591 35.0075C58.0291 35.0075 57.9966 34.9992 57.9616 34.9825C57.9283 34.9658 57.8891 34.9475 57.8441 34.9275C57.7991 34.9058 57.7474 34.8867 57.6891 34.87C57.6324 34.8533 57.5649 34.845 57.4866 34.845C57.3649 34.845 57.2691 34.8708 57.1991 34.9225C57.1291 34.9742 57.0941 35.0417 57.0941 35.125C57.0941 35.18 57.1116 35.2267 57.1466 35.265C57.1833 35.3017 57.2308 35.3342 57.2891 35.3625C57.3491 35.3908 57.4166 35.4167 57.4916 35.44C57.5666 35.4617 57.6433 35.4858 57.7216 35.5125C57.7999 35.5392 57.8766 35.57 57.9516 35.605C58.0266 35.6383 58.0933 35.6817 58.1516 35.735C58.2116 35.7867 58.2591 35.8492 58.2941 35.9225C58.3308 35.9958 58.3491 36.0842 58.3491 36.1875C58.3491 36.3108 58.3266 36.425 58.2816 36.53C58.2366 36.6333 58.1708 36.7233 58.0841 36.8C57.9974 36.875 57.8899 36.9342 57.7616 36.9775C57.6349 37.0192 57.4891 37.04 57.3241 37.04C57.2358 37.04 57.1491 37.0317 57.0641 37.015C56.9808 37 56.8999 36.9783 56.8216 36.95C56.7449 36.9217 56.6733 36.8883 56.6066 36.85C56.5416 36.8117 56.4841 36.77 56.4341 36.725L56.5766 36.49C56.5949 36.4617 56.6166 36.44 56.6416 36.425C56.6666 36.41 56.6983 36.4025 56.7366 36.4025C56.7749 36.4025 56.8108 36.4133 56.8441 36.435C56.8791 36.4567 56.9191 36.48 56.9641 36.505C57.0091 36.53 57.0616 36.5533 57.1216 36.575C57.1833 36.5967 57.2608 36.6075 57.3541 36.6075C57.4274 36.6075 57.4899 36.5992 57.5416 36.5825C57.5949 36.5642 57.6383 36.5408 57.6716 36.5125C57.7066 36.4842 57.7316 36.4517 57.7466 36.415C57.7633 36.3767 57.7716 36.3375 57.7716 36.2975C57.7716 36.2375 57.7533 36.1883 57.7166 36.15C57.6816 36.1117 57.6341 36.0783 57.5741 36.05C57.5158 36.0217 57.4483 35.9967 57.3716 35.975C57.2966 35.9517 57.2191 35.9267 57.1391 35.9C57.0608 35.8733 56.9833 35.8425 56.9066 35.8075C56.8316 35.7708 56.7641 35.725 56.7041 35.67C56.6458 35.615 56.5983 35.5475 56.5616 35.4675C56.5266 35.3875 56.5091 35.2908 56.5091 35.1775C56.5091 35.0725 56.5299 34.9725 56.5716 34.8775C56.6133 34.7825 56.6741 34.7 56.7541 34.63C56.8358 34.5583 56.9366 34.5017 57.0566 34.46C57.1783 34.4167 57.3183 34.395 57.4766 34.395C57.6533 34.395 57.8141 34.4242 57.9591 34.4825C58.1041 34.5408 58.2249 34.6175 58.3216 34.7125L58.1816 34.935Z" fill="#1B1B1B"/>
<path d="M20.2216 45.0455C20.0114 45.0455 19.83 44.9991 19.6776 44.9062C19.526 44.8125 19.4091 44.6818 19.3267 44.5142C19.2453 44.3456 19.2045 44.1496 19.2045 43.9261C19.2045 43.7027 19.2453 43.5057 19.3267 43.3352C19.4091 43.1638 19.5237 43.0303 19.6705 42.9347C19.8182 42.8381 19.9905 42.7898 20.1875 42.7898C20.3011 42.7898 20.4134 42.8087 20.5241 42.8466C20.6349 42.8845 20.7358 42.946 20.8267 43.0312C20.9176 43.1155 20.9901 43.2273 21.044 43.3665C21.098 43.5057 21.125 43.6771 21.125 43.8807V44.0227H19.4432V43.733H20.7841C20.7841 43.6098 20.7595 43.5 20.7102 43.4034C20.6619 43.3068 20.5928 43.2306 20.5028 43.1747C20.4138 43.1188 20.3087 43.0909 20.1875 43.0909C20.054 43.0909 19.9384 43.1241 19.8409 43.1903C19.7443 43.2557 19.67 43.3409 19.6179 43.446C19.5658 43.5511 19.5398 43.6638 19.5398 43.7841V43.9773C19.5398 44.142 19.5682 44.2817 19.625 44.3963C19.6828 44.5099 19.7628 44.5966 19.8651 44.6562C19.9673 44.715 20.0862 44.7443 20.2216 44.7443C20.3097 44.7443 20.3892 44.732 20.4602 44.7074C20.5322 44.6818 20.5942 44.6439 20.6463 44.5938C20.6984 44.5426 20.7386 44.4792 20.767 44.4034L21.0909 44.4943C21.0568 44.6042 20.9995 44.7008 20.919 44.7841C20.8385 44.8665 20.7391 44.9309 20.6207 44.9773C20.5024 45.0227 20.3693 45.0455 20.2216 45.0455ZM22.277 45.0511C22.1387 45.0511 22.0133 45.0251 21.9006 44.973C21.7879 44.92 21.6984 44.8438 21.6321 44.7443C21.5658 44.6439 21.5327 44.5227 21.5327 44.3807C21.5327 44.2557 21.5573 44.1544 21.6065 44.0767C21.6558 43.9981 21.7216 43.9366 21.804 43.892C21.8864 43.8475 21.9773 43.8144 22.0767 43.7926C22.1771 43.7699 22.2779 43.7519 22.3793 43.7386C22.5118 43.7216 22.6193 43.7088 22.7017 43.7003C22.785 43.6908 22.8456 43.6752 22.8835 43.6534C22.9223 43.6316 22.9418 43.5937 22.9418 43.5398V43.5284C22.9418 43.3883 22.9034 43.2794 22.8267 43.2017C22.7509 43.1241 22.6359 43.0852 22.4815 43.0852C22.3215 43.0852 22.196 43.1203 22.1051 43.1903C22.0142 43.2604 21.9503 43.3352 21.9134 43.4148L21.5952 43.3011C21.652 43.1686 21.7277 43.0653 21.8224 42.9915C21.9181 42.9167 22.0223 42.8646 22.1349 42.8352C22.2486 42.8049 22.3603 42.7898 22.4702 42.7898C22.5402 42.7898 22.6207 42.7983 22.7116 42.8153C22.8035 42.8314 22.892 42.8651 22.9773 42.9162C23.0634 42.9673 23.1349 43.0445 23.1918 43.1477C23.2486 43.2509 23.277 43.3892 23.277 43.5625V45H22.9418V44.7045H22.9247C22.902 44.7519 22.8641 44.8026 22.8111 44.8565C22.758 44.9105 22.6875 44.9564 22.5994 44.9943C22.5114 45.0322 22.4039 45.0511 22.277 45.0511ZM22.3281 44.75C22.4607 44.75 22.5724 44.724 22.6634 44.6719C22.7552 44.6198 22.8243 44.5526 22.8707 44.4702C22.9181 44.3878 22.9418 44.3011 22.9418 44.2102V43.9034C22.9276 43.9205 22.8963 43.9361 22.848 43.9503C22.8007 43.9635 22.7457 43.9754 22.6832 43.9858C22.6217 43.9953 22.5616 44.0038 22.5028 44.0114C22.4451 44.018 22.3982 44.0237 22.3622 44.0284C22.2751 44.0398 22.1937 44.0582 22.1179 44.0838C22.0431 44.1084 21.9825 44.1458 21.9361 44.196C21.8906 44.2453 21.8679 44.3125 21.8679 44.3977C21.8679 44.5142 21.911 44.6023 21.9972 44.6619C22.0843 44.7206 22.1946 44.75 22.3281 44.75ZM25.4343 43.3068L25.1332 43.392C25.1142 43.3419 25.0863 43.2931 25.0494 43.2457C25.0134 43.1974 24.9641 43.1577 24.9016 43.1264C24.8391 43.0952 24.7591 43.0795 24.6616 43.0795C24.5281 43.0795 24.4168 43.1103 24.3278 43.1719C24.2397 43.2325 24.1957 43.3097 24.1957 43.4034C24.1957 43.4867 24.226 43.5526 24.2866 43.6009C24.3472 43.6491 24.4419 43.6894 24.5707 43.7216L24.8945 43.8011C25.0896 43.8485 25.235 43.9209 25.3306 44.0185C25.4263 44.1151 25.4741 44.2396 25.4741 44.392C25.4741 44.517 25.4381 44.6288 25.3661 44.7273C25.2951 44.8258 25.1957 44.9034 25.0678 44.9602C24.94 45.017 24.7913 45.0455 24.6218 45.0455C24.3993 45.0455 24.2151 44.9972 24.0692 44.9006C23.9234 44.804 23.8311 44.6629 23.7923 44.4773L24.1104 44.3977C24.1407 44.5152 24.198 44.6032 24.2823 44.6619C24.3675 44.7206 24.4788 44.75 24.6161 44.75C24.7724 44.75 24.8964 44.7169 24.9883 44.6506C25.0811 44.5833 25.1275 44.5028 25.1275 44.4091C25.1275 44.3333 25.101 44.2699 25.0479 44.2188C24.9949 44.1667 24.9135 44.1278 24.8036 44.1023L24.44 44.017C24.2402 43.9697 24.0934 43.8963 23.9996 43.7969C23.9068 43.6965 23.8604 43.571 23.8604 43.4205C23.8604 43.2973 23.895 43.1884 23.9641 43.0938C24.0342 42.9991 24.1294 42.9247 24.2496 42.8707C24.3709 42.8168 24.5082 42.7898 24.6616 42.7898C24.8775 42.7898 25.047 42.8371 25.1701 42.9318C25.2942 43.0265 25.3822 43.1515 25.4343 43.3068ZM26.1946 45.8182C26.1378 45.8182 26.0871 45.8134 26.0426 45.804C25.9981 45.7955 25.9673 45.7869 25.9503 45.7784L26.0355 45.483C26.117 45.5038 26.1889 45.5114 26.2514 45.5057C26.3139 45.5 26.3693 45.4721 26.4176 45.4219C26.4669 45.3726 26.5118 45.2926 26.5526 45.1818L26.6151 45.0114L25.8082 42.8182H26.1719L26.7741 44.5568H26.7969L27.3991 42.8182H27.7628L26.8366 45.3182C26.795 45.4309 26.7434 45.5241 26.6818 45.598C26.6203 45.6728 26.5488 45.7282 26.4673 45.7642C26.3868 45.8002 26.2959 45.8182 26.1946 45.8182ZM30.2791 42.8182V43.1023H29.1484V42.8182H30.2791ZM29.478 42.2955H29.8132V44.375C29.8132 44.4697 29.8269 44.5407 29.8544 44.5881C29.8828 44.6345 29.9188 44.6657 29.9624 44.6818C30.0069 44.697 30.0537 44.7045 30.103 44.7045C30.1399 44.7045 30.1702 44.7027 30.1939 44.6989C30.2176 44.6941 30.2365 44.6903 30.2507 44.6875L30.3189 44.9886C30.2962 44.9972 30.2644 45.0057 30.2237 45.0142C30.183 45.0237 30.1314 45.0284 30.0689 45.0284C29.9742 45.0284 29.8814 45.008 29.7905 44.9673C29.7005 44.9266 29.6257 44.8646 29.5661 44.7812C29.5073 44.6979 29.478 44.5928 29.478 44.4659V42.2955ZM31.6463 45.0455C31.4493 45.0455 31.2765 44.9986 31.1278 44.9048C30.9801 44.8111 30.8646 44.6799 30.7812 44.5114C30.6989 44.3428 30.6577 44.1458 30.6577 43.9205C30.6577 43.6932 30.6989 43.4948 30.7812 43.3253C30.8646 43.1558 30.9801 43.0241 31.1278 42.9304C31.2765 42.8366 31.4493 42.7898 31.6463 42.7898C31.8433 42.7898 32.0156 42.8366 32.1634 42.9304C32.312 43.0241 32.4276 43.1558 32.5099 43.3253C32.5933 43.4948 32.6349 43.6932 32.6349 43.9205C32.6349 44.1458 32.5933 44.3428 32.5099 44.5114C32.4276 44.6799 32.312 44.8111 32.1634 44.9048C32.0156 44.9986 31.8433 45.0455 31.6463 45.0455ZM31.6463 44.7443C31.7959 44.7443 31.919 44.706 32.0156 44.6293C32.1122 44.5526 32.1837 44.4517 32.2301 44.3267C32.2765 44.2017 32.2997 44.0663 32.2997 43.9205C32.2997 43.7746 32.2765 43.6387 32.2301 43.5128C32.1837 43.3868 32.1122 43.285 32.0156 43.2074C31.919 43.1297 31.7959 43.0909 31.6463 43.0909C31.4967 43.0909 31.3736 43.1297 31.277 43.2074C31.1804 43.285 31.1089 43.3868 31.0625 43.5128C31.0161 43.6387 30.9929 43.7746 30.9929 43.9205C30.9929 44.0663 31.0161 44.2017 31.0625 44.3267C31.1089 44.4517 31.1804 44.5526 31.277 44.6293C31.3736 44.706 31.4967 44.7443 31.6463 44.7443ZM35.2433 42.8182V43.1023H34.0671V42.8182H35.2433ZM34.4194 45V42.517C34.4194 42.392 34.4487 42.2879 34.5075 42.2045C34.5662 42.1212 34.6424 42.0587 34.7362 42.017C34.8299 41.9754 34.9289 41.9545 35.033 41.9545C35.1154 41.9545 35.1826 41.9612 35.2347 41.9744C35.2868 41.9877 35.3256 42 35.3512 42.0114L35.2546 42.3011C35.2376 42.2955 35.2139 42.2884 35.1836 42.2798C35.1542 42.2713 35.1154 42.267 35.0671 42.267C34.9563 42.267 34.8763 42.295 34.8271 42.3509C34.7788 42.4067 34.7546 42.4886 34.7546 42.5966V45H34.4194ZM35.7131 45V42.8182H36.0483V45H35.7131ZM35.8835 42.4545C35.8182 42.4545 35.7618 42.4323 35.7145 42.3878C35.6681 42.3433 35.6449 42.2898 35.6449 42.2273C35.6449 42.1648 35.6681 42.1113 35.7145 42.0668C35.7618 42.0223 35.8182 42 35.8835 42C35.9489 42 36.0047 42.0223 36.0511 42.0668C36.0985 42.1113 36.1222 42.1648 36.1222 42.2273C36.1222 42.2898 36.0985 42.3433 36.0511 42.3878C36.0047 42.4323 35.9489 42.4545 35.8835 42.4545ZM36.9975 43.6875V45H36.6623V42.8182H36.9862V43.1591H37.0146C37.0657 43.0483 37.1433 42.9593 37.2475 42.892C37.3517 42.8239 37.4862 42.7898 37.6509 42.7898C37.7987 42.7898 37.9279 42.8201 38.0387 42.8807C38.1495 42.9403 38.2357 43.0312 38.2972 43.1534C38.3588 43.2746 38.3896 43.428 38.3896 43.6136V45H38.0543V43.6364C38.0543 43.465 38.0098 43.3314 37.9208 43.2358C37.8318 43.1392 37.7096 43.0909 37.5543 43.0909C37.4473 43.0909 37.3517 43.1141 37.2674 43.1605C37.1841 43.2069 37.1183 43.2746 37.07 43.3636C37.0217 43.4527 36.9975 43.5606 36.9975 43.6875ZM39.826 45.0455C39.6442 45.0455 39.4837 44.9995 39.3445 44.9077C39.2053 44.8149 39.0964 44.6842 39.0178 44.5156C38.9392 44.3461 38.8999 44.1458 38.8999 43.9148C38.8999 43.6856 38.9392 43.4867 39.0178 43.3182C39.0964 43.1496 39.2057 43.0194 39.3459 42.9276C39.486 42.8357 39.648 42.7898 39.8317 42.7898C39.9737 42.7898 40.0859 42.8134 40.1683 42.8608C40.2517 42.9072 40.3151 42.9602 40.3587 43.0199C40.4032 43.0786 40.4377 43.1269 40.4624 43.1648H40.4908V42.0909H40.826V45H40.5021V44.6648H40.4624C40.4377 44.7045 40.4027 44.7547 40.3572 44.8153C40.3118 44.875 40.2469 44.9285 40.1626 44.9759C40.0784 45.0223 39.9661 45.0455 39.826 45.0455ZM39.8714 44.7443C40.0059 44.7443 40.1196 44.7093 40.2124 44.6392C40.3052 44.5682 40.3757 44.4702 40.424 44.3452C40.4723 44.2192 40.4964 44.0739 40.4964 43.9091C40.4964 43.7462 40.4728 43.6037 40.4254 43.4815C40.3781 43.3584 40.308 43.2628 40.2152 43.1946C40.1224 43.1255 40.0078 43.0909 39.8714 43.0909C39.7294 43.0909 39.611 43.1274 39.5163 43.2003C39.4226 43.2723 39.352 43.3703 39.3047 43.4943C39.2583 43.6174 39.2351 43.7557 39.2351 43.9091C39.2351 44.0644 39.2588 44.2055 39.3061 44.3324C39.3544 44.4583 39.4254 44.5587 39.5192 44.6335C39.6139 44.7074 39.7313 44.7443 39.8714 44.7443ZM43.9865 44.108V42.8182H44.3217V45H43.9865V44.6307H43.9638C43.9126 44.7415 43.8331 44.8357 43.7251 44.9134C43.6172 44.9901 43.4808 45.0284 43.3161 45.0284C43.1797 45.0284 43.0585 44.9986 42.9524 44.9389C42.8464 44.8783 42.763 44.7874 42.7024 44.6662C42.6418 44.544 42.6115 44.3902 42.6115 44.2045V42.8182H42.9467V44.1818C42.9467 44.3409 42.9912 44.4678 43.0803 44.5625C43.1702 44.6572 43.2848 44.7045 43.424 44.7045C43.5073 44.7045 43.5921 44.6832 43.6783 44.6406C43.7654 44.598 43.8383 44.5327 43.897 44.4446C43.9567 44.3565 43.9865 44.2443 43.9865 44.108ZM45.271 43.6875V45H44.9357V42.8182H45.2596V43.1591H45.288C45.3391 43.0483 45.4168 42.9593 45.521 42.892C45.6251 42.8239 45.7596 42.7898 45.9244 42.7898C46.0721 42.7898 46.2013 42.8201 46.3121 42.8807C46.4229 42.9403 46.5091 43.0312 46.5707 43.1534C46.6322 43.2746 46.663 43.428 46.663 43.6136V45H46.3278V43.6364C46.3278 43.465 46.2833 43.3314 46.1942 43.2358C46.1052 43.1392 45.9831 43.0909 45.8278 43.0909C45.7208 43.0909 45.6251 43.1141 45.5408 43.1605C45.4575 43.2069 45.3917 43.2746 45.3434 43.3636C45.2951 43.4527 45.271 43.5606 45.271 43.6875ZM47.6108 42.0909V45H47.2756V42.0909H47.6108ZM48.2248 45V42.8182H48.56V45H48.2248ZM48.3952 42.4545C48.3299 42.4545 48.2736 42.4323 48.2262 42.3878C48.1798 42.3433 48.1566 42.2898 48.1566 42.2273C48.1566 42.1648 48.1798 42.1113 48.2262 42.0668C48.2736 42.0223 48.3299 42 48.3952 42C48.4606 42 48.5165 42.0223 48.5629 42.0668C48.6102 42.1113 48.6339 42.1648 48.6339 42.2273C48.6339 42.2898 48.6102 42.3433 48.5629 42.3878C48.5165 42.4323 48.4606 42.4545 48.3952 42.4545ZM50.7195 43.3068L50.4183 43.392C50.3994 43.3419 50.3714 43.2931 50.3345 43.2457C50.2985 43.1974 50.2493 43.1577 50.1868 43.1264C50.1243 43.0952 50.0443 43.0795 49.9467 43.0795C49.8132 43.0795 49.7019 43.1103 49.6129 43.1719C49.5249 43.2325 49.4808 43.3097 49.4808 43.4034C49.4808 43.4867 49.5111 43.5526 49.5717 43.6009C49.6323 43.6491 49.727 43.6894 49.8558 43.7216L50.1797 43.8011C50.3748 43.8485 50.5201 43.9209 50.6158 44.0185C50.7114 44.1151 50.7592 44.2396 50.7592 44.392C50.7592 44.517 50.7232 44.6288 50.6513 44.7273C50.5803 44.8258 50.4808 44.9034 50.353 44.9602C50.2251 45.017 50.0765 45.0455 49.907 45.0455C49.6844 45.0455 49.5002 44.9972 49.3544 44.9006C49.2086 44.804 49.1162 44.6629 49.0774 44.4773L49.3956 44.3977C49.4259 44.5152 49.4832 44.6032 49.5675 44.6619C49.6527 44.7206 49.764 44.75 49.9013 44.75C50.0575 44.75 50.1816 44.7169 50.2734 44.6506C50.3662 44.5833 50.4126 44.5028 50.4126 44.4091C50.4126 44.3333 50.3861 44.2699 50.3331 44.2188C50.2801 44.1667 50.1986 44.1278 50.0888 44.1023L49.7251 44.017C49.5253 43.9697 49.3786 43.8963 49.2848 43.7969C49.192 43.6965 49.1456 43.571 49.1456 43.4205C49.1456 43.2973 49.1802 43.1884 49.2493 43.0938C49.3194 42.9991 49.4145 42.9247 49.5348 42.8707C49.656 42.8168 49.7933 42.7898 49.9467 42.7898C50.1626 42.7898 50.3321 42.8371 50.4553 42.9318C50.5793 43.0265 50.6674 43.1515 50.7195 43.3068ZM52.2127 42.8182V43.1023H51.082V42.8182H52.2127ZM51.4116 42.2955H51.7468V44.375C51.7468 44.4697 51.7605 44.5407 51.788 44.5881C51.8164 44.6345 51.8524 44.6657 51.896 44.6818C51.9405 44.697 51.9873 44.7045 52.0366 44.7045C52.0735 44.7045 52.1038 44.7027 52.1275 44.6989C52.1512 44.6941 52.1701 44.6903 52.1843 44.6875L52.2525 44.9886C52.2298 44.9972 52.198 45.0057 52.1573 45.0142C52.1166 45.0237 52.065 45.0284 52.0025 45.0284C51.9078 45.0284 51.815 45.008 51.7241 44.9673C51.6341 44.9266 51.5593 44.8646 51.4996 44.7812C51.4409 44.6979 51.4116 44.5928 51.4116 44.4659V42.2955ZM53.6083 45.0455C53.3981 45.0455 53.2167 44.9991 53.0643 44.9062C52.9128 44.8125 52.7958 44.6818 52.7134 44.5142C52.632 44.3456 52.5913 44.1496 52.5913 43.9261C52.5913 43.7027 52.632 43.5057 52.7134 43.3352C52.7958 43.1638 52.9104 43.0303 53.0572 42.9347C53.2049 42.8381 53.3772 42.7898 53.5742 42.7898C53.6879 42.7898 53.8001 42.8087 53.9109 42.8466C54.0217 42.8845 54.1225 42.946 54.2134 43.0312C54.3043 43.1155 54.3768 43.2273 54.4308 43.3665C54.4847 43.5057 54.5117 43.6771 54.5117 43.8807V44.0227H52.8299V43.733H54.1708C54.1708 43.6098 54.1462 43.5 54.0969 43.4034C54.0487 43.3068 53.9795 43.2306 53.8896 43.1747C53.8005 43.1188 53.6954 43.0909 53.5742 43.0909C53.4407 43.0909 53.3252 43.1241 53.2276 43.1903C53.131 43.2557 53.0567 43.3409 53.0046 43.446C52.9525 43.5511 52.9265 43.6638 52.9265 43.7841V43.9773C52.9265 44.142 52.9549 44.2817 53.0117 44.3963C53.0695 44.5099 53.1495 44.5966 53.2518 44.6562C53.354 44.715 53.4729 44.7443 53.6083 44.7443C53.6964 44.7443 53.7759 44.732 53.8469 44.7074C53.9189 44.6818 53.9809 44.6439 54.033 44.5938C54.0851 44.5426 54.1254 44.4792 54.1538 44.4034L54.4776 44.4943C54.4435 44.6042 54.3862 44.7008 54.3058 44.7841C54.2253 44.8665 54.1258 44.9309 54.0075 44.9773C53.8891 45.0227 53.756 45.0455 53.6083 45.0455ZM55.8455 45.0455C55.6637 45.0455 55.5032 44.9995 55.364 44.9077C55.2248 44.8149 55.1159 44.6842 55.0373 44.5156C54.9587 44.3461 54.9194 44.1458 54.9194 43.9148C54.9194 43.6856 54.9587 43.4867 55.0373 43.3182C55.1159 43.1496 55.2253 43.0194 55.3654 42.9276C55.5056 42.8357 55.6675 42.7898 55.8512 42.7898C55.9933 42.7898 56.1055 42.8134 56.1879 42.8608C56.2712 42.9072 56.3346 42.9602 56.3782 43.0199C56.4227 43.0786 56.4573 43.1269 56.4819 43.1648H56.5103V42.0909H56.8455V45H56.5217V44.6648H56.4819C56.4573 44.7045 56.4222 44.7547 56.3768 44.8153C56.3313 44.875 56.2665 44.9285 56.1822 44.9759C56.0979 45.0223 55.9857 45.0455 55.8455 45.0455ZM55.891 44.7443C56.0254 44.7443 56.1391 44.7093 56.2319 44.6392C56.3247 44.5682 56.3952 44.4702 56.4435 44.3452C56.4918 44.2192 56.516 44.0739 56.516 43.9091C56.516 43.7462 56.4923 43.6037 56.445 43.4815C56.3976 43.3584 56.3275 43.2628 56.2347 43.1946C56.1419 43.1255 56.0273 43.0909 55.891 43.0909C55.7489 43.0909 55.6306 43.1274 55.5359 43.2003C55.4421 43.2723 55.3716 43.3703 55.3242 43.4943C55.2778 43.6174 55.2546 43.7557 55.2546 43.9091C55.2546 44.0644 55.2783 44.2055 55.3256 44.3324C55.3739 44.4583 55.445 44.5587 55.5387 44.6335C55.6334 44.7074 55.7508 44.7443 55.891 44.7443ZM59.5117 45.8636C59.3498 45.8636 59.2106 45.8428 59.0941 45.8011C58.9776 45.7604 58.8806 45.7064 58.8029 45.6392C58.7262 45.5729 58.6651 45.5019 58.6197 45.4261L58.8867 45.2386C58.917 45.2784 58.9554 45.3239 59.0018 45.375C59.0482 45.4271 59.1116 45.4721 59.1921 45.5099C59.2736 45.5488 59.3801 45.5682 59.5117 45.5682C59.6879 45.5682 59.8332 45.5256 59.9478 45.4403C60.0624 45.3551 60.1197 45.2216 60.1197 45.0398V44.5966H60.0913C60.0666 44.6364 60.0316 44.6856 59.9862 44.7443C59.9416 44.8021 59.8772 44.8537 59.793 44.8991C59.7096 44.9437 59.5969 44.9659 59.4549 44.9659C59.2788 44.9659 59.1206 44.9242 58.9805 44.8409C58.8413 44.7576 58.7309 44.6364 58.6495 44.4773C58.569 44.3182 58.5288 44.125 58.5288 43.8977C58.5288 43.6742 58.5681 43.4796 58.6467 43.3139C58.7253 43.1473 58.8346 43.0185 58.9748 42.9276C59.1149 42.8357 59.2769 42.7898 59.4606 42.7898C59.6026 42.7898 59.7153 42.8134 59.7987 42.8608C59.8829 42.9072 59.9473 42.9602 59.9918 43.0199C60.0373 43.0786 60.0723 43.1269 60.0969 43.1648H60.131V42.8182H60.4549V45.0625C60.4549 45.25 60.4123 45.4025 60.3271 45.5199C60.2428 45.6383 60.1291 45.7249 59.9862 45.7798C59.8441 45.8357 59.686 45.8636 59.5117 45.8636ZM59.5004 44.6648C59.6348 44.6648 59.7485 44.634 59.8413 44.5724C59.9341 44.5109 60.0046 44.4223 60.0529 44.3068C60.1012 44.1913 60.1254 44.053 60.1254 43.892C60.1254 43.7348 60.1017 43.5961 60.0543 43.4759C60.007 43.3556 59.9369 43.2614 59.8441 43.1932C59.7513 43.125 59.6367 43.0909 59.5004 43.0909C59.3583 43.0909 59.2399 43.1269 59.1452 43.1989C59.0515 43.2708 58.9809 43.3674 58.9336 43.4886C58.8872 43.6098 58.864 43.7443 58.864 43.892C58.864 44.0436 58.8877 44.1776 58.935 44.294C58.9833 44.4096 59.0543 44.5005 59.1481 44.5668C59.2428 44.6321 59.3602 44.6648 59.5004 44.6648ZM61.9833 45.0455C61.7731 45.0455 61.5917 44.9991 61.4393 44.9062C61.2878 44.8125 61.1708 44.6818 61.0884 44.5142C61.007 44.3456 60.9663 44.1496 60.9663 43.9261C60.9663 43.7027 61.007 43.5057 61.0884 43.3352C61.1708 43.1638 61.2854 43.0303 61.4322 42.9347C61.5799 42.8381 61.7522 42.7898 61.9492 42.7898C62.0629 42.7898 62.1751 42.8087 62.2859 42.8466C62.3967 42.8845 62.4975 42.946 62.5884 43.0312C62.6793 43.1155 62.7518 43.2273 62.8058 43.3665C62.8597 43.5057 62.8867 43.6771 62.8867 43.8807V44.0227H61.2049V43.733H62.5458C62.5458 43.6098 62.5212 43.5 62.4719 43.4034C62.4237 43.3068 62.3545 43.2306 62.2646 43.1747C62.1755 43.1188 62.0704 43.0909 61.9492 43.0909C61.8157 43.0909 61.7002 43.1241 61.6026 43.1903C61.506 43.2557 61.4317 43.3409 61.3796 43.446C61.3275 43.5511 61.3015 43.6638 61.3015 43.7841V43.9773C61.3015 44.142 61.3299 44.2817 61.3867 44.3963C61.4445 44.5099 61.5245 44.5966 61.6268 44.6562C61.729 44.715 61.8479 44.7443 61.9833 44.7443C62.0714 44.7443 62.1509 44.732 62.2219 44.7074C62.2939 44.6818 62.3559 44.6439 62.408 44.5938C62.4601 44.5426 62.5004 44.4792 62.5288 44.4034L62.8526 44.4943C62.8185 44.6042 62.7612 44.7008 62.6808 44.7841C62.6003 44.8665 62.5008 44.9309 62.3825 44.9773C62.2641 45.0227 62.131 45.0455 61.9833 45.0455ZM64.0387 45.0511C63.9004 45.0511 63.775 45.0251 63.6623 44.973C63.5496 44.92 63.4601 44.8438 63.3938 44.7443C63.3275 44.6439 63.2944 44.5227 63.2944 44.3807C63.2944 44.2557 63.319 44.1544 63.3683 44.0767C63.4175 43.9981 63.4833 43.9366 63.5657 43.892C63.6481 43.8475 63.739 43.8144 63.8384 43.7926C63.9388 43.7699 64.0397 43.7519 64.141 43.7386C64.2736 43.7216 64.381 43.7088 64.4634 43.7003C64.5468 43.6908 64.6074 43.6752 64.6452 43.6534C64.6841 43.6316 64.7035 43.5937 64.7035 43.5398V43.5284C64.7035 43.3883 64.6651 43.2794 64.5884 43.2017C64.5127 43.1241 64.3976 43.0852 64.2433 43.0852C64.0832 43.0852 63.9577 43.1203 63.8668 43.1903C63.7759 43.2604 63.712 43.3352 63.6751 43.4148L63.3569 43.3011C63.4137 43.1686 63.4895 43.0653 63.5842 42.9915C63.6798 42.9167 63.784 42.8646 63.8967 42.8352C64.0103 42.8049 64.122 42.7898 64.2319 42.7898C64.302 42.7898 64.3825 42.7983 64.4734 42.8153C64.5652 42.8314 64.6538 42.8651 64.739 42.9162C64.8252 42.9673 64.8967 43.0445 64.9535 43.1477C65.0103 43.2509 65.0387 43.3892 65.0387 43.5625V45H64.7035V44.7045H64.6864C64.6637 44.7519 64.6258 44.8026 64.5728 44.8565C64.5198 44.9105 64.4492 44.9564 64.3612 44.9943C64.2731 45.0322 64.1656 45.0511 64.0387 45.0511ZM64.0898 44.75C64.2224 44.75 64.3342 44.724 64.4251 44.6719C64.5169 44.6198 64.5861 44.5526 64.6325 44.4702C64.6798 44.3878 64.7035 44.3011 64.7035 44.2102V43.9034C64.6893 43.9205 64.658 43.9361 64.6097 43.9503C64.5624 43.9635 64.5075 43.9754 64.445 43.9858C64.3834 43.9953 64.3233 44.0038 64.2646 44.0114C64.2068 44.018 64.1599 44.0237 64.1239 44.0284C64.0368 44.0398 63.9554 44.0582 63.8796 44.0838C63.8048 44.1084 63.7442 44.1458 63.6978 44.196C63.6523 44.2453 63.6296 44.3125 63.6296 44.3977C63.6296 44.5142 63.6727 44.6023 63.7589 44.6619C63.846 44.7206 63.9563 44.75 64.0898 44.75ZM65.6506 45V42.8182H65.9744V43.1477H65.9972C66.0369 43.0398 66.1089 42.9522 66.2131 42.8849C66.3172 42.8177 66.4347 42.7841 66.5653 42.7841C66.59 42.7841 66.6207 42.7846 66.6577 42.7855C66.6946 42.7865 66.7225 42.7879 66.7415 42.7898V43.1307C66.7301 43.1278 66.7041 43.1236 66.6634 43.1179C66.6236 43.1113 66.5814 43.108 66.5369 43.108C66.4309 43.108 66.3362 43.1302 66.2528 43.1747C66.1705 43.2183 66.1051 43.2789 66.0568 43.3565C66.0095 43.4332 65.9858 43.5208 65.9858 43.6193V45H65.6506ZM68.6843 43.3068L68.3832 43.392C68.3642 43.3419 68.3363 43.2931 68.2994 43.2457C68.2634 43.1974 68.2141 43.1577 68.1516 43.1264C68.0891 43.0952 68.0091 43.0795 67.9116 43.0795C67.7781 43.0795 67.6668 43.1103 67.5778 43.1719C67.4897 43.2325 67.4457 43.3097 67.4457 43.4034C67.4457 43.4867 67.476 43.5526 67.5366 43.6009C67.5972 43.6491 67.6919 43.6894 67.8207 43.7216L68.1445 43.8011C68.3396 43.8485 68.485 43.9209 68.5806 44.0185C68.6763 44.1151 68.7241 44.2396 68.7241 44.392C68.7241 44.517 68.6881 44.6288 68.6161 44.7273C68.5451 44.8258 68.4457 44.9034 68.3178 44.9602C68.19 45.017 68.0413 45.0455 67.8718 45.0455C67.6493 45.0455 67.4651 44.9972 67.3192 44.9006C67.1734 44.804 67.0811 44.6629 67.0423 44.4773L67.3604 44.3977C67.3907 44.5152 67.448 44.6032 67.5323 44.6619C67.6175 44.7206 67.7288 44.75 67.8661 44.75C68.0224 44.75 68.1464 44.7169 68.2383 44.6506C68.3311 44.5833 68.3775 44.5028 68.3775 44.4091C68.3775 44.3333 68.351 44.2699 68.2979 44.2188C68.2449 44.1667 68.1635 44.1278 68.0536 44.1023L67.69 44.017C67.4902 43.9697 67.3434 43.8963 67.2496 43.7969C67.1568 43.6965 67.1104 43.571 67.1104 43.4205C67.1104 43.2973 67.145 43.1884 67.2141 43.0938C67.2842 42.9991 67.3794 42.9247 67.4996 42.8707C67.6209 42.8168 67.7582 42.7898 67.9116 42.7898C68.1275 42.7898 68.297 42.8371 68.4201 42.9318C68.5442 43.0265 68.6322 43.1515 68.6843 43.3068Z" fill="#1B1B1B"/>
<defs>
<clipPath id="clip0_3105_11589">
<rect width="27" height="27" fill="white" transform="translate(30.5 2)"/>
</clipPath>
</defs>
</svg>
