<svg width="54" height="41" viewBox="0 0 54 41" fill="none" xmlns="http://www.w3.org/2000/svg">
<rect x="12.5" y="5.49969" width="29" height="34" rx="2.5" fill="#FAEED4" stroke="white"/>
<path d="M14.1426 3.5H38.8574C40.8559 3.50026 42.4998 5.15456 42.5 7.18945V36.8105C42.4998 38.8454 40.8559 40.4997 38.8574 40.5H14.1426C12.1441 40.4997 10.5002 38.8454 10.5 36.8105V7.18945C10.5002 5.15456 12.1441 3.50025 14.1426 3.5Z" stroke="#505050"/>
<path d="M16.7975 9.00409H19.4135C19.6568 9.00409 19.8782 9.10495 20.0388 9.26729L20.0405 9.26907C20.201 9.43149 20.3008 9.65545 20.3008 9.90145V12.4942C20.3008 12.7402 20.201 12.9641 20.0405 13.1265L20.0388 13.1283C19.8782 13.2907 19.6568 13.3916 19.4135 13.3916H16.7975C16.681 13.3916 16.5656 13.3683 16.458 13.3232C16.3504 13.278 16.2527 13.2118 16.1704 13.1283C16.0879 13.0451 16.0224 12.9463 15.9778 12.8375C15.9331 12.7287 15.9101 12.612 15.9102 12.4942V9.90145C15.9102 9.65545 16.01 9.43149 16.1704 9.26907L16.1723 9.26729C16.3329 9.10495 16.5542 9.00409 16.7975 9.00409ZM16.7975 30.6081H19.4135C19.6568 30.6081 19.8782 30.7091 20.0388 30.8714L20.0405 30.8732C20.201 31.0356 20.3008 31.2596 20.3008 31.5056V34.0983C20.3008 34.2162 20.2779 34.3328 20.2332 34.4416C20.1885 34.5504 20.123 34.6493 20.0405 34.7324C19.9583 34.8159 19.8606 34.8821 19.753 34.9273C19.6454 34.9724 19.53 34.9957 19.4135 34.9956H16.7975C16.5551 34.9956 16.3337 34.8949 16.1723 34.7324L16.1695 34.7296C16.0094 34.5664 15.9102 34.3429 15.9102 34.0983V31.5056C15.9102 31.2596 16.01 31.0356 16.1704 30.8732L16.1723 30.8714C16.3329 30.7091 16.5542 30.6081 16.7975 30.6081ZM19.4057 31.5134H16.8053V34.0904H19.4057V31.5134ZM22.6491 33.5456C22.5899 33.5464 22.531 33.5352 22.4761 33.5128C22.4211 33.4904 22.3711 33.4572 22.3289 33.4151C22.2867 33.373 22.2532 33.3228 22.2304 33.2675C22.2075 33.2122 22.1958 33.1529 22.1958 33.093C22.1958 33.033 22.2075 32.9737 22.2304 32.9184C22.2532 32.8631 22.2867 32.8129 22.3289 32.7708C22.3711 32.7287 22.4211 32.6955 22.4761 32.6731C22.531 32.6507 22.5899 32.6396 22.6491 32.6403H36.4926C36.6103 32.6418 36.7227 32.6902 36.8054 32.7749C36.8881 32.8597 36.9344 32.9739 36.9344 33.093C36.9344 33.212 36.8881 33.3263 36.8054 33.411C36.7227 33.4957 36.6103 33.5441 36.4926 33.5456H22.6491ZM22.6491 18.9172C22.5314 18.9157 22.419 18.8674 22.3363 18.7826C22.2536 18.6979 22.2072 18.5837 22.2072 18.4646C22.2072 18.3455 22.2536 18.2313 22.3363 18.1466C22.419 18.0618 22.5314 18.0135 22.6491 18.0119H36.4926C36.6113 18.0119 36.7251 18.0596 36.809 18.1445C36.893 18.2294 36.9401 18.3445 36.9401 18.4646C36.9401 18.5846 36.893 18.6998 36.809 18.7847C36.7251 18.8696 36.6113 18.9172 36.4926 18.9172H22.6491ZM22.6491 11.603C22.5304 11.603 22.4166 11.5553 22.3326 11.4704C22.2487 11.3856 22.2015 11.2704 22.2015 11.1504C22.2015 11.0303 22.2487 10.9152 22.3326 10.8303C22.4166 10.7454 22.5304 10.6977 22.6491 10.6977H36.4926C36.6103 10.6993 36.7227 10.7476 36.8054 10.8323C36.8881 10.9171 36.9344 11.0313 36.9344 11.1504C36.9344 11.2694 36.8881 11.3837 36.8054 11.4684C36.7227 11.5531 36.6103 11.6015 36.4926 11.603H22.6491ZM22.6491 26.2314C22.5899 26.2322 22.531 26.221 22.4761 26.1986C22.4211 26.1762 22.3711 26.143 22.3289 26.1009C22.2867 26.0588 22.2532 26.0086 22.2304 25.9533C22.2075 25.898 22.1958 25.8387 22.1958 25.7787C22.1958 25.7188 22.2075 25.6595 22.2304 25.6042C22.2532 25.5489 22.2867 25.4987 22.3289 25.4566C22.3711 25.4145 22.4211 25.3813 22.4761 25.3589C22.531 25.3365 22.5899 25.3253 22.6491 25.3261H36.4926C36.6103 25.3276 36.7227 25.376 36.8054 25.4607C36.8881 25.5454 36.9344 25.6597 36.9344 25.7787C36.9344 25.8978 36.8881 26.0121 36.8054 26.0968C36.7227 26.1815 36.6103 26.2299 36.4926 26.2314H22.6491ZM16.7975 23.4068H19.4135C19.6568 23.4068 19.8782 23.5077 20.0388 23.6701L20.0405 23.6718C20.201 23.8343 20.3008 24.0582 20.3008 24.3041V26.8969C20.3009 27.0148 20.2779 27.1314 20.2332 27.2403C20.1885 27.3491 20.123 27.4479 20.0405 27.5311C19.9583 27.6145 19.8606 27.6807 19.753 27.7259C19.6454 27.7711 19.53 27.7943 19.4135 27.7943H16.7975C16.5551 27.7943 16.3337 27.6936 16.1723 27.5311L16.1695 27.5282C16.0094 27.365 15.9102 27.1416 15.9102 26.8969V24.3041C15.9102 24.0569 16.0098 23.8325 16.1704 23.6701C16.2527 23.5866 16.3504 23.5204 16.458 23.4752C16.5656 23.43 16.681 23.4068 16.7975 23.4068ZM19.4057 24.3121H16.8053V26.889H19.4057V24.3121ZM16.7975 16.2054H19.4135C19.6579 16.2054 19.8799 16.3062 20.0405 16.4687C20.123 16.5519 20.1885 16.6507 20.2332 16.7595C20.2779 16.8683 20.3009 16.985 20.3008 17.1028V19.6956C20.3008 19.9416 20.201 20.1655 20.0405 20.3279L20.0388 20.3297C19.8782 20.4921 19.6568 20.5929 19.4135 20.5929H16.7975C16.553 20.5929 16.331 20.4921 16.1704 20.3297C16.0879 20.2466 16.0224 20.1477 15.9778 20.0389C15.9331 19.9301 15.9101 19.8134 15.9102 19.6956V17.1028C15.9102 16.8577 16.0098 16.6338 16.1704 16.4705L16.1733 16.4677C16.3346 16.3058 16.5556 16.2054 16.7975 16.2054ZM19.4057 17.1107H16.8053V19.6876H19.4057V17.1107ZM19.4057 9.90931H16.8053V12.4863H19.4057V9.90931Z" fill="#505050"/>
<path d="M14.2376 6.52298C13.9041 6.88206 13.9239 7.44471 14.2829 7.77834L17.245 10.5463L14.4807 13.5066C14.1472 13.8657 14.167 14.4283 14.5259 14.762C14.8849 15.0956 15.4474 15.0758 15.7809 14.7167L18.5452 11.7536L21.5074 14.5216C21.8664 14.8553 22.4288 14.8355 22.7624 14.4764C23.0959 14.1173 23.0761 13.5547 22.7171 13.2211L19.755 10.4559L22.5221 7.49277C22.8556 7.1337 22.8358 6.57104 22.4769 6.23741C22.1179 5.90378 21.5554 5.92357 21.2219 6.28265L18.4576 9.24575L15.4926 6.47774C15.1336 6.14411 14.5712 6.1639 14.2376 6.52298Z" fill="#E4783E"/>
<path d="M14.2376 28.523C13.9041 28.8821 13.9239 29.4447 14.2829 29.7783L17.245 32.5463L14.4807 35.5066C14.1472 35.8657 14.167 36.4283 14.5259 36.762C14.8849 37.0956 15.4474 37.0758 15.7809 36.7167L18.5452 33.7536L21.5074 36.5216C21.8664 36.8553 22.4288 36.8355 22.7624 36.4764C23.0959 36.1173 23.0761 35.5547 22.7171 35.2211L19.755 32.4559L22.5221 29.4928C22.8556 29.1337 22.8358 28.571 22.4769 28.2374C22.1179 27.9038 21.5554 27.9236 21.2219 28.2827L18.4576 31.2458L15.4926 28.4777C15.1336 28.1441 14.5712 28.1639 14.2376 28.523Z" fill="#E4783E"/>
</svg>
