<svg width="87" height="49" viewBox="0 0 87 49" fill="none" xmlns="http://www.w3.org/2000/svg">
<path d="M41.9072 3.38165C42.4592 3.38191 42.907 3.8297 42.9072 4.38165V5.74005C44.1266 6.07172 45.2487 6.6375 46.2236 7.38654L47.6123 6.08575C48.0152 5.70876 48.6478 5.72917 49.0254 6.13165L50.4219 7.62091C50.7992 8.02366 50.7784 8.65628 50.376 9.034L48.8447 10.4695C49.3409 11.3942 49.6898 12.4094 49.8604 13.4842H51C51.5519 13.4844 51.9998 13.9323 52 14.4842V16.5252C52 17.0773 51.5521 17.525 51 17.5252H49.6426C49.3808 18.4872 48.9716 19.3873 48.4434 20.2039L49.3682 21.1561C49.7527 21.552 49.7432 22.1853 49.3477 22.5701L47.8828 23.992C47.4866 24.3767 46.8535 24.3677 46.4688 23.9715L45.5859 23.0623C44.7695 23.5903 43.869 23.998 42.9072 24.2596V25.618C42.907 26.1699 42.4592 26.6177 41.9072 26.618H39.8662C39.3141 26.6179 38.8664 26.17 38.8662 25.618V24.4774C37.6947 24.2913 36.5953 23.8916 35.6055 23.3221L34.2764 24.5692C33.8735 24.9469 33.2401 24.927 32.8623 24.5242L31.4668 23.035C31.0891 22.6322 31.1091 21.9997 31.5117 21.6219L32.5947 20.6053C31.9324 19.6867 31.4284 18.6474 31.123 17.5252H29.7656C29.2133 17.5252 28.7656 17.0775 28.7656 16.5252V14.4842C28.7659 13.9321 29.2135 13.4842 29.7656 13.4842H30.9053C31.1573 11.8962 31.7985 10.4384 32.7285 9.21075L31.4795 7.92462C31.0949 7.5284 31.1048 6.89527 31.501 6.51056L32.9648 5.08868C33.3611 4.70437 33.9943 4.71318 34.3789 5.10919L35.7949 6.56818C36.7346 6.05578 37.7695 5.69639 38.8662 5.52228V4.38165C38.8664 3.82958 39.3141 3.38171 39.8662 3.38165H41.9072ZM40.3848 9.44318C37.3163 9.44329 34.8283 11.9313 34.8281 14.9998C34.8282 18.0684 37.3162 20.5563 40.3848 20.5565C43.4128 20.5565 45.8736 18.1343 45.9385 15.1219V14.8768C45.8728 11.865 43.4122 9.44318 40.3848 9.44318Z" fill="#FAEED4"/>
<path d="M47.2195 6.31266L47.2138 6.30705C47.0652 6.16097 46.8748 6.08845 46.6861 6.09248C46.4706 6.09708 46.3028 6.20835 46.1679 6.33535L44.9395 7.56006C44.789 7.70974 44.5564 7.72653 44.3875 7.61075C44.0896 7.41872 43.7698 7.24654 43.4382 7.09264C43.071 6.92214 42.6876 6.77457 42.302 6.64723C42.1186 6.58685 42.0023 6.41635 42.0023 6.23319L42.0021 4.31484C42.0021 3.90123 41.6952 3.59457 41.2816 3.59457H38.8738C38.4734 3.59457 38.1574 3.91552 38.1574 4.31484V6.07138C38.1574 6.2859 38.0023 6.46436 37.7982 6.50076C37.0648 6.67529 36.345 6.9478 35.6833 7.30951C35.6014 7.35408 35.5074 7.37117 35.4151 7.35825C35.3228 7.34533 35.2371 7.30309 35.1706 7.23777C34.7034 6.7774 34.2182 6.31746 33.7617 5.8486C33.4823 5.56837 33.0626 5.59715 32.7837 5.8617C32.2122 6.39237 31.6405 7.00828 31.0844 7.56433C30.8021 7.85199 30.796 8.29082 31.0829 8.57772L31.1049 8.60141L32.3378 9.83826C32.4875 9.98875 32.5042 10.2214 32.3885 10.3903C32.1964 10.6882 32.0242 11.0081 31.8702 11.3399C31.6999 11.707 31.5522 12.0904 31.425 12.4758C31.3647 12.6592 31.1941 12.7755 31.011 12.7755L29.0928 12.7757C28.6802 12.7757 28.3723 13.0834 28.3723 13.4962V15.904C28.3723 16.3047 28.6933 16.6202 29.0928 16.6202H30.8491C31.0637 16.6202 31.2421 16.7753 31.2785 16.9794C31.4562 17.7267 31.7356 18.4445 32.0909 19.125C32.1811 19.2978 32.1435 19.5036 32.0122 19.6341C31.5508 20.0945 31.0914 20.5593 30.6266 21.0159C30.346 21.2955 30.3748 21.7152 30.6398 21.9945C31.1599 22.5667 31.7792 23.1475 32.3283 23.703C32.6174 23.9704 33.0807 23.9777 33.3696 23.706L34.6126 22.4434C34.7632 22.2903 34.9993 22.2722 35.17 22.3906C35.8113 22.8032 36.5315 23.1146 37.2536 23.3527C37.437 23.413 37.5533 23.5836 37.5533 23.7667L37.5535 25.685C37.5535 26.0965 37.8624 26.4054 38.2739 26.4054H40.6817C41.0821 26.4054 41.3982 26.0843 41.3982 25.685V23.9285C41.3982 23.8262 41.4342 23.7271 41.4998 23.6486C41.5655 23.5701 41.6567 23.5172 41.7574 23.4992C42.5087 23.3207 43.2187 23.0442 43.9028 22.687C43.9849 22.6441 44.0787 22.6286 44.1703 22.6427C44.2619 22.6569 44.3466 22.6999 44.412 22.7656L45.774 24.1312C46.032 24.4057 46.4702 24.4262 46.7459 24.1649C46.7667 24.145 46.784 24.1268 46.8039 24.1072L48.4809 22.4495C48.6165 22.3026 48.6852 22.1133 48.6852 21.9237C48.6852 21.7368 48.6184 21.5513 48.4839 21.4082L47.2211 20.1652C47.1481 20.0933 47.1028 19.998 47.0931 19.896C47.0835 19.7941 47.1101 19.692 47.1684 19.6077C47.5817 18.9659 47.8918 18.2475 48.1306 17.524C48.1909 17.3406 48.3615 17.2244 48.5446 17.2244L50.4628 17.2242C50.8754 17.2242 51.1832 16.9167 51.1832 16.5039V14.0961C51.1832 13.6954 50.8623 13.3796 50.4628 13.3796H48.7065C48.4891 13.3796 48.3089 13.2206 48.2757 13.0126C48.1836 12.6426 48.0693 12.2786 47.9335 11.9224C47.7979 11.5668 47.6427 11.2249 47.4682 10.9054C47.4236 10.8235 47.4065 10.7295 47.4194 10.6372C47.4323 10.5449 47.4746 10.4592 47.5399 10.3927C48 9.92583 48.4604 9.4387 48.9296 8.98337C49.2094 8.70458 49.1805 8.28483 48.9164 8.00633C48.3945 7.43905 47.7709 6.86281 47.2195 6.31266ZM36.7683 19.8133C36.8096 20.0737 36.632 20.3185 36.3716 20.3598C36.1111 20.4011 35.8664 20.2235 35.8251 19.9631L35.6219 18.7052C35.5822 18.4549 35.7447 18.2191 35.9887 18.1645L37.2605 17.8766C37.5178 17.8188 37.7734 17.9805 37.8313 18.2378C37.8891 18.4951 37.7274 18.7507 37.47 18.8086L37.2238 18.8643C38.3675 19.5841 39.5105 19.7838 40.5376 19.6171C41.354 19.4845 42.1015 19.1217 42.72 18.6061C43.3409 18.0885 43.8322 17.4168 44.1338 16.6687C44.5891 15.5393 44.6084 14.2356 43.9826 13.03C43.8725 12.8164 43.9564 12.5539 44.17 12.4439C44.3836 12.3338 44.6461 12.4177 44.7561 12.6313C45.5079 14.0795 45.4862 15.6415 44.9415 16.9925C44.5867 17.8726 44.0079 18.6636 43.2756 19.274C42.5408 19.8864 41.6512 20.3177 40.6772 20.4758C39.4422 20.6764 38.0779 20.4405 36.731 19.5824L36.7683 19.8133ZM42.6976 10.0278C42.6868 9.91375 42.7215 9.80006 42.794 9.71137C42.8665 9.62269 42.971 9.56616 43.0849 9.55405C43.1988 9.54194 43.3129 9.57522 43.4025 9.64668C43.492 9.71813 43.5498 9.822 43.5632 9.93576L43.696 11.1795C43.7075 11.2881 43.6778 11.397 43.6128 11.4848C43.5478 11.5725 43.4521 11.6325 43.3449 11.6531L42.0439 11.903C41.8077 11.9481 41.5796 11.7933 41.5345 11.5571C41.4893 11.321 41.6442 11.0928 41.8803 11.0477L42.2081 10.9848C41.3188 10.4317 40.2907 10.2457 39.2969 10.3614C38.4712 10.4575 37.6711 10.7604 36.9945 11.2329C36.3212 11.703 35.7699 12.3401 35.4372 13.1067C34.9764 14.1688 34.9324 15.4907 35.5598 16.9793C35.653 17.2004 35.5492 17.4553 35.3281 17.5484C35.107 17.6415 34.8521 17.5378 34.7589 17.3167C34.0298 15.5868 34.0902 14.0291 34.6397 12.7625C35.0395 11.8413 35.6969 11.0794 36.497 10.5207C37.2936 9.96444 38.2322 9.60819 39.1981 9.49573C40.3994 9.35587 41.6469 9.59069 42.7247 10.2823L42.6976 10.0278ZM47.8254 5.68866C48.3991 6.25713 48.9836 6.82895 49.5469 7.40658C50.1351 8.02695 50.1574 8.98931 49.5428 9.60042C49.1534 9.98976 48.7684 10.3852 48.3818 10.7775C48.5175 11.0495 48.6397 11.3281 48.7479 11.6123C48.8596 11.9059 48.9576 12.2046 49.0416 12.5073H50.4628C51.3395 12.5073 52.0556 13.2183 52.0556 14.0961V16.5039C52.0556 17.3952 51.355 18.0965 50.4628 18.0965H48.8554C48.646 18.6802 48.3915 19.2524 48.0778 19.7879L49.1124 20.8064C49.4101 21.1206 49.5575 21.5225 49.5575 21.9237C49.5575 22.3261 49.4092 22.7299 49.1158 23.0448L47.4224 24.7189C47.3958 24.7453 47.3705 24.7698 47.3439 24.797C46.7484 25.3599 45.8084 25.3613 45.2119 24.799C44.8112 24.4358 44.4047 23.9896 44.0182 23.6021C43.457 23.8762 42.8729 24.101 42.2705 24.2666V25.685C42.2705 26.5615 41.5593 27.2778 40.6817 27.2778H38.2739C37.3805 27.2778 36.6811 26.5784 36.6811 25.685V24.077C36.5836 24.0417 36.4864 24.0052 36.3898 23.9675C35.9089 23.7805 35.4354 23.5612 34.9898 23.3001L33.9713 24.3345C33.3475 24.926 32.3601 24.9229 31.733 24.3379C31.1551 23.7628 30.5798 23.1768 30.0093 22.5942C29.4203 21.9731 29.3978 21.0105 30.0134 20.3988C30.4002 20.012 30.7885 19.6265 31.1759 19.2403C30.902 18.6784 30.6768 18.0955 30.511 17.4926H29.0928C28.2161 17.4926 27.5 16.7818 27.5 15.904V13.4962C27.5 12.6044 28.2005 11.9034 29.0928 11.9034H30.7002C30.8127 11.5885 30.9393 11.2788 31.0796 10.9753C31.2006 10.7137 31.334 10.458 31.4794 10.2092L30.4901 9.21669L30.4661 9.19444C29.8464 8.57475 29.8522 7.57708 30.4644 6.95442C31.0462 6.39496 31.6076 5.79892 32.1839 5.23126C32.8045 4.64236 33.7673 4.62044 34.3787 5.23543C34.7661 5.62535 35.1632 6.00946 35.5549 6.39549C36.109 6.11699 36.6869 5.89661 37.285 5.73292V4.31484C37.285 3.43842 37.9963 2.72223 38.8738 2.72223H41.2816C42.1727 2.72223 42.8745 3.42379 42.8745 4.31484V5.92246C43.1855 6.03406 43.4968 6.16005 43.8027 6.30206C44.0642 6.423 44.3198 6.55635 44.5686 6.70167L45.554 5.71925C45.8236 5.43423 46.1971 5.25725 46.5903 5.22953C47.0312 5.19846 47.4829 5.35174 47.8238 5.68693L47.8254 5.68866Z" fill="#505050"/>
<path d="M28.56 35.7275V37H27.8875V33.385H29.065C29.3067 33.385 29.5158 33.4133 29.6925 33.47C29.8692 33.5267 30.015 33.6058 30.13 33.7075C30.245 33.8092 30.33 33.9308 30.385 34.0725C30.44 34.2142 30.4675 34.3692 30.4675 34.5375C30.4675 34.7125 30.4383 34.8733 30.38 35.02C30.3217 35.165 30.2342 35.29 30.1175 35.395C30.0008 35.5 29.855 35.5817 29.68 35.64C29.505 35.6983 29.3 35.7275 29.065 35.7275H28.56ZM28.56 35.2025H29.065C29.1883 35.2025 29.2958 35.1875 29.3875 35.1575C29.4792 35.1258 29.555 35.0817 29.615 35.025C29.675 34.9667 29.72 34.8967 29.75 34.815C29.78 34.7317 29.795 34.6392 29.795 34.5375C29.795 34.4408 29.78 34.3533 29.75 34.275C29.72 34.1967 29.675 34.13 29.615 34.075C29.555 34.02 29.4792 33.9783 29.3875 33.95C29.2958 33.92 29.1883 33.905 29.065 33.905H28.56V35.2025ZM31.9768 34.395C32.1684 34.395 32.3418 34.4258 32.4968 34.4875C32.6534 34.5492 32.7868 34.6367 32.8968 34.75C33.0068 34.8633 33.0918 35.0017 33.1518 35.165C33.2118 35.3283 33.2418 35.5108 33.2418 35.7125C33.2418 35.9158 33.2118 36.0992 33.1518 36.2625C33.0918 36.4258 33.0068 36.565 32.8968 36.68C32.7868 36.795 32.6534 36.8833 32.4968 36.945C32.3418 37.0067 32.1684 37.0375 31.9768 37.0375C31.7851 37.0375 31.6109 37.0067 31.4543 36.945C31.2976 36.8833 31.1634 36.795 31.0518 36.68C30.9418 36.565 30.8559 36.4258 30.7943 36.2625C30.7343 36.0992 30.7043 35.9158 30.7043 35.7125C30.7043 35.5108 30.7343 35.3283 30.7943 35.165C30.8559 35.0017 30.9418 34.8633 31.0518 34.75C31.1634 34.6367 31.2976 34.5492 31.4543 34.4875C31.6109 34.4258 31.7851 34.395 31.9768 34.395ZM31.9768 36.5625C32.1901 36.5625 32.3476 36.4908 32.4493 36.3475C32.5526 36.2042 32.6043 35.9942 32.6043 35.7175C32.6043 35.4408 32.5526 35.23 32.4493 35.085C32.3476 34.94 32.1901 34.8675 31.9768 34.8675C31.7601 34.8675 31.6001 34.9408 31.4968 35.0875C31.3934 35.2325 31.3418 35.4425 31.3418 35.7175C31.3418 35.9925 31.3934 36.2025 31.4968 36.3475C31.6001 36.4908 31.7601 36.5625 31.9768 36.5625ZM33.4111 34.435H33.9011C33.9477 34.435 33.9869 34.4458 34.0186 34.4675C34.0502 34.4892 34.0702 34.5167 34.0786 34.55L34.4461 35.92C34.4661 35.995 34.4819 36.0683 34.4936 36.14C34.5069 36.2117 34.5194 36.2833 34.5311 36.355C34.5494 36.2833 34.5686 36.2117 34.5886 36.14C34.6102 36.0683 34.6327 35.995 34.6561 35.92L35.0811 34.545C35.0911 34.5117 35.1111 34.4842 35.1411 34.4625C35.1711 34.4408 35.2061 34.43 35.2461 34.43H35.5186C35.5636 34.43 35.6011 34.4408 35.6311 34.4625C35.6611 34.4842 35.6811 34.5117 35.6911 34.545L36.1111 35.945C36.1327 36.0167 36.1519 36.0867 36.1686 36.155C36.1869 36.2217 36.2044 36.2892 36.2211 36.3575C36.2327 36.2858 36.2452 36.2142 36.2586 36.1425C36.2736 36.0708 36.2919 35.9967 36.3136 35.92L36.6936 34.55C36.7019 34.5167 36.7219 34.4892 36.7536 34.4675C36.7852 34.4458 36.8219 34.435 36.8636 34.435H37.3311L36.5186 37H36.0211C35.9677 37 35.9294 36.9633 35.9061 36.89L35.4436 35.4075C35.4286 35.3592 35.4144 35.3108 35.4011 35.2625C35.3894 35.2125 35.3794 35.1633 35.3711 35.115C35.3611 35.165 35.3502 35.215 35.3386 35.265C35.3269 35.3133 35.3136 35.3625 35.2986 35.4125L34.8311 36.89C34.8077 36.9633 34.7627 37 34.6961 37H34.2236L33.4111 34.435ZM38.7386 34.395C38.9003 34.395 39.0486 34.4208 39.1836 34.4725C39.3203 34.5242 39.4378 34.6 39.5361 34.7C39.6345 34.7983 39.7111 34.92 39.7661 35.065C39.8211 35.2083 39.8486 35.3725 39.8486 35.5575C39.8486 35.6042 39.8461 35.6433 39.8411 35.675C39.8378 35.705 39.8303 35.7292 39.8186 35.7475C39.8086 35.7642 39.7945 35.7767 39.7761 35.785C39.7578 35.7917 39.7345 35.795 39.7061 35.795H38.1211C38.1395 36.0583 38.2103 36.2517 38.3336 36.375C38.457 36.4983 38.6203 36.56 38.8236 36.56C38.9236 36.56 39.0095 36.5483 39.0811 36.525C39.1545 36.5017 39.2178 36.4758 39.2711 36.4475C39.3261 36.4192 39.3736 36.3933 39.4136 36.37C39.4553 36.3467 39.4953 36.335 39.5336 36.335C39.5586 36.335 39.5803 36.34 39.5986 36.35C39.617 36.36 39.6328 36.3742 39.6461 36.3925L39.8261 36.6175C39.7578 36.6975 39.6811 36.765 39.5961 36.82C39.5111 36.8733 39.422 36.9167 39.3286 36.95C39.237 36.9817 39.1428 37.0042 39.0461 37.0175C38.9511 37.0308 38.8586 37.0375 38.7686 37.0375C38.5903 37.0375 38.4245 37.0083 38.2711 36.95C38.1178 36.89 37.9845 36.8025 37.8711 36.6875C37.7578 36.5708 37.6686 36.4275 37.6036 36.2575C37.5386 36.0858 37.5061 35.8875 37.5061 35.6625C37.5061 35.4875 37.5345 35.3233 37.5911 35.17C37.6478 35.015 37.7286 34.8808 37.8336 34.7675C37.9403 34.6525 38.0695 34.5617 38.2211 34.495C38.3745 34.4283 38.547 34.395 38.7386 34.395ZM38.7511 34.8375C38.5711 34.8375 38.4303 34.8883 38.3286 34.99C38.227 35.0917 38.162 35.2358 38.1336 35.4225H39.2936C39.2936 35.3425 39.2828 35.2675 39.2611 35.1975C39.2395 35.1258 39.2061 35.0633 39.1611 35.01C39.1161 34.9567 39.0595 34.915 38.9911 34.885C38.9228 34.8533 38.8428 34.8375 38.7511 34.8375ZM40.3495 37V34.435H40.712C40.7754 34.435 40.8195 34.4467 40.8445 34.47C40.8695 34.4933 40.8862 34.5333 40.8945 34.59L40.932 34.9C41.0237 34.7417 41.1312 34.6167 41.2545 34.525C41.3779 34.4333 41.5162 34.3875 41.6695 34.3875C41.7962 34.3875 41.9012 34.4167 41.9845 34.475L41.9045 34.9375C41.8995 34.9675 41.8887 34.9892 41.872 35.0025C41.8554 35.0142 41.8329 35.02 41.8045 35.02C41.7795 35.02 41.7454 35.0142 41.702 35.0025C41.6587 34.9908 41.6012 34.985 41.5295 34.985C41.4012 34.985 41.2912 35.0208 41.1995 35.0925C41.1079 35.1625 41.0304 35.2658 40.967 35.4025V37H40.3495ZM46.8598 35.1925C46.8598 35.3542 46.8432 35.5092 46.8098 35.6575C46.7765 35.8042 46.7282 35.9417 46.6648 36.07C46.6032 36.1983 46.5273 36.3167 46.4373 36.425C46.3473 36.5317 46.2448 36.6258 46.1298 36.7075L47.0473 37.7075H46.4923C46.4123 37.7075 46.3398 37.6967 46.2748 37.675C46.2115 37.6533 46.1532 37.6133 46.0998 37.555L45.5698 36.97C45.4848 36.9933 45.3973 37.0108 45.3073 37.0225C45.219 37.0342 45.1265 37.04 45.0298 37.04C44.7565 37.04 44.5065 36.9942 44.2798 36.9025C44.0548 36.8092 43.8615 36.68 43.6998 36.515C43.5398 36.35 43.4157 36.155 43.3273 35.93C43.239 35.7033 43.1948 35.4575 43.1948 35.1925C43.1948 34.9275 43.239 34.6825 43.3273 34.4575C43.4157 34.2308 43.5398 34.035 43.6998 33.87C43.8615 33.705 44.0548 33.5767 44.2798 33.485C44.5065 33.3917 44.7565 33.345 45.0298 33.345C45.3032 33.345 45.5523 33.3917 45.7773 33.485C46.0023 33.5783 46.1948 33.7075 46.3548 33.8725C46.5148 34.0358 46.639 34.2308 46.7273 34.4575C46.8157 34.6825 46.8598 34.9275 46.8598 35.1925ZM46.1698 35.1925C46.1698 34.9942 46.1432 34.8167 46.0898 34.66C46.0382 34.5017 45.9632 34.3675 45.8648 34.2575C45.7665 34.1475 45.6465 34.0633 45.5048 34.005C45.3648 33.9467 45.2065 33.9175 45.0298 33.9175C44.8532 33.9175 44.694 33.9467 44.5523 34.005C44.4107 34.0633 44.2898 34.1475 44.1898 34.2575C44.0915 34.3675 44.0157 34.5017 43.9623 34.66C43.909 34.8167 43.8823 34.9942 43.8823 35.1925C43.8823 35.3908 43.909 35.5692 43.9623 35.7275C44.0157 35.8842 44.0915 36.0175 44.1898 36.1275C44.2898 36.2358 44.4107 36.3192 44.5523 36.3775C44.694 36.4358 44.8532 36.465 45.0298 36.465C45.2065 36.465 45.3648 36.4358 45.5048 36.3775C45.6465 36.3192 45.7665 36.2358 45.8648 36.1275C45.9632 36.0175 46.0382 35.8842 46.0898 35.7275C46.1432 35.5692 46.1698 35.3908 46.1698 35.1925ZM48.0864 35.7275V37H47.4139V33.385H48.5914C48.833 33.385 49.0422 33.4133 49.2189 33.47C49.3955 33.5267 49.5414 33.6058 49.6564 33.7075C49.7714 33.8092 49.8564 33.9308 49.9114 34.0725C49.9664 34.2142 49.9939 34.3692 49.9939 34.5375C49.9939 34.7125 49.9647 34.8733 49.9064 35.02C49.848 35.165 49.7605 35.29 49.6439 35.395C49.5272 35.5 49.3814 35.5817 49.2064 35.64C49.0314 35.6983 48.8264 35.7275 48.5914 35.7275H48.0864ZM48.0864 35.2025H48.5914C48.7147 35.2025 48.8222 35.1875 48.9139 35.1575C49.0055 35.1258 49.0814 35.0817 49.1414 35.025C49.2014 34.9667 49.2464 34.8967 49.2764 34.815C49.3064 34.7317 49.3214 34.6392 49.3214 34.5375C49.3214 34.4408 49.3064 34.3533 49.2764 34.275C49.2464 34.1967 49.2014 34.13 49.1414 34.075C49.0814 34.02 49.0055 33.9783 48.9139 33.95C48.8222 33.92 48.7147 33.905 48.5914 33.905H48.0864V35.2025ZM52.0039 34.935C51.9872 34.9617 51.9697 34.9808 51.9514 34.9925C51.933 35.0025 51.9097 35.0075 51.8814 35.0075C51.8514 35.0075 51.8189 34.9992 51.7839 34.9825C51.7505 34.9658 51.7114 34.9475 51.6664 34.9275C51.6214 34.9058 51.5697 34.8867 51.5114 34.87C51.4547 34.8533 51.3872 34.845 51.3089 34.845C51.1872 34.845 51.0914 34.8708 51.0214 34.9225C50.9514 34.9742 50.9164 35.0417 50.9164 35.125C50.9164 35.18 50.9339 35.2267 50.9689 35.265C51.0055 35.3017 51.053 35.3342 51.1114 35.3625C51.1714 35.3908 51.2389 35.4167 51.3139 35.44C51.3889 35.4617 51.4655 35.4858 51.5439 35.5125C51.6222 35.5392 51.6989 35.57 51.7739 35.605C51.8489 35.6383 51.9155 35.6817 51.9739 35.735C52.0339 35.7867 52.0814 35.8492 52.1164 35.9225C52.153 35.9958 52.1714 36.0842 52.1714 36.1875C52.1714 36.3108 52.1489 36.425 52.1039 36.53C52.0589 36.6333 51.993 36.7233 51.9064 36.8C51.8197 36.875 51.7122 36.9342 51.5839 36.9775C51.4572 37.0192 51.3114 37.04 51.1464 37.04C51.058 37.04 50.9714 37.0317 50.8864 37.015C50.803 37 50.7222 36.9783 50.6439 36.95C50.5672 36.9217 50.4955 36.8883 50.4289 36.85C50.3639 36.8117 50.3064 36.77 50.2564 36.725L50.3989 36.49C50.4172 36.4617 50.4389 36.44 50.4639 36.425C50.4889 36.41 50.5205 36.4025 50.5589 36.4025C50.5972 36.4025 50.633 36.4133 50.6664 36.435C50.7014 36.4567 50.7414 36.48 50.7864 36.505C50.8314 36.53 50.8839 36.5533 50.9439 36.575C51.0055 36.5967 51.083 36.6075 51.1764 36.6075C51.2497 36.6075 51.3122 36.5992 51.3639 36.5825C51.4172 36.5642 51.4605 36.5408 51.4939 36.5125C51.5289 36.4842 51.5539 36.4517 51.5689 36.415C51.5855 36.3767 51.5939 36.3375 51.5939 36.2975C51.5939 36.2375 51.5755 36.1883 51.5389 36.15C51.5039 36.1117 51.4564 36.0783 51.3964 36.05C51.338 36.0217 51.2705 35.9967 51.1939 35.975C51.1189 35.9517 51.0414 35.9267 50.9614 35.9C50.883 35.8733 50.8055 35.8425 50.7289 35.8075C50.6539 35.7708 50.5864 35.725 50.5264 35.67C50.468 35.615 50.4205 35.5475 50.3839 35.4675C50.3489 35.3875 50.3314 35.2908 50.3314 35.1775C50.3314 35.0725 50.3522 34.9725 50.3939 34.8775C50.4355 34.7825 50.4964 34.7 50.5764 34.63C50.658 34.5583 50.7589 34.5017 50.8789 34.46C51.0005 34.4167 51.1405 34.395 51.2989 34.395C51.4755 34.395 51.6364 34.4242 51.7814 34.4825C51.9264 34.5408 52.0472 34.6175 52.1439 34.7125L52.0039 34.935Z" fill="#1B1B1B"/>
<path d="M29.7216 45.0455C29.5114 45.0455 29.33 44.9991 29.1776 44.9062C29.026 44.8125 28.9091 44.6818 28.8267 44.5142C28.7453 44.3456 28.7045 44.1496 28.7045 43.9261C28.7045 43.7027 28.7453 43.5057 28.8267 43.3352C28.9091 43.1638 29.0237 43.0303 29.1705 42.9347C29.3182 42.8381 29.4905 42.7898 29.6875 42.7898C29.8011 42.7898 29.9134 42.8087 30.0241 42.8466C30.1349 42.8845 30.2358 42.946 30.3267 43.0312C30.4176 43.1155 30.4901 43.2273 30.544 43.3665C30.598 43.5057 30.625 43.6771 30.625 43.8807V44.0227H28.9432V43.733H30.2841C30.2841 43.6098 30.2595 43.5 30.2102 43.4034C30.1619 43.3068 30.0928 43.2306 30.0028 43.1747C29.9138 43.1188 29.8087 43.0909 29.6875 43.0909C29.554 43.0909 29.4384 43.1241 29.3409 43.1903C29.2443 43.2557 29.17 43.3409 29.1179 43.446C29.0658 43.5511 29.0398 43.6638 29.0398 43.7841V43.9773C29.0398 44.142 29.0682 44.2817 29.125 44.3963C29.1828 44.5099 29.2628 44.5966 29.3651 44.6562C29.4673 44.715 29.5862 44.7443 29.7216 44.7443C29.8097 44.7443 29.8892 44.732 29.9602 44.7074C30.0322 44.6818 30.0942 44.6439 30.1463 44.5938C30.1984 44.5426 30.2386 44.4792 30.267 44.4034L30.5909 44.4943C30.5568 44.6042 30.4995 44.7008 30.419 44.7841C30.3385 44.8665 30.2391 44.9309 30.1207 44.9773C30.0024 45.0227 29.8693 45.0455 29.7216 45.0455ZM31.777 45.0511C31.6387 45.0511 31.5133 45.0251 31.4006 44.973C31.2879 44.92 31.1984 44.8438 31.1321 44.7443C31.0658 44.6439 31.0327 44.5227 31.0327 44.3807C31.0327 44.2557 31.0573 44.1544 31.1065 44.0767C31.1558 43.9981 31.2216 43.9366 31.304 43.892C31.3864 43.8475 31.4773 43.8144 31.5767 43.7926C31.6771 43.7699 31.7779 43.7519 31.8793 43.7386C32.0118 43.7216 32.1193 43.7088 32.2017 43.7003C32.285 43.6908 32.3456 43.6752 32.3835 43.6534C32.4223 43.6316 32.4418 43.5937 32.4418 43.5398V43.5284C32.4418 43.3883 32.4034 43.2794 32.3267 43.2017C32.2509 43.1241 32.1359 43.0852 31.9815 43.0852C31.8215 43.0852 31.696 43.1203 31.6051 43.1903C31.5142 43.2604 31.4503 43.3352 31.4134 43.4148L31.0952 43.3011C31.152 43.1686 31.2277 43.0653 31.3224 42.9915C31.4181 42.9167 31.5223 42.8646 31.6349 42.8352C31.7486 42.8049 31.8603 42.7898 31.9702 42.7898C32.0402 42.7898 32.1207 42.7983 32.2116 42.8153C32.3035 42.8314 32.392 42.8651 32.4773 42.9162C32.5634 42.9673 32.6349 43.0445 32.6918 43.1477C32.7486 43.2509 32.777 43.3892 32.777 43.5625V45H32.4418V44.7045H32.4247C32.402 44.7519 32.3641 44.8026 32.3111 44.8565C32.258 44.9105 32.1875 44.9564 32.0994 44.9943C32.0114 45.0322 31.9039 45.0511 31.777 45.0511ZM31.8281 44.75C31.9607 44.75 32.0724 44.724 32.1634 44.6719C32.2552 44.6198 32.3243 44.5526 32.3707 44.4702C32.4181 44.3878 32.4418 44.3011 32.4418 44.2102V43.9034C32.4276 43.9205 32.3963 43.9361 32.348 43.9503C32.3007 43.9635 32.2457 43.9754 32.1832 43.9858C32.1217 43.9953 32.0616 44.0038 32.0028 44.0114C31.9451 44.018 31.8982 44.0237 31.8622 44.0284C31.7751 44.0398 31.6937 44.0582 31.6179 44.0838C31.5431 44.1084 31.4825 44.1458 31.4361 44.196C31.3906 44.2453 31.3679 44.3125 31.3679 44.3977C31.3679 44.5142 31.411 44.6023 31.4972 44.6619C31.5843 44.7206 31.6946 44.75 31.8281 44.75ZM34.9343 43.3068L34.6332 43.392C34.6142 43.3419 34.5863 43.2931 34.5494 43.2457C34.5134 43.1974 34.4641 43.1577 34.4016 43.1264C34.3391 43.0952 34.2591 43.0795 34.1616 43.0795C34.0281 43.0795 33.9168 43.1103 33.8278 43.1719C33.7397 43.2325 33.6957 43.3097 33.6957 43.4034C33.6957 43.4867 33.726 43.5526 33.7866 43.6009C33.8472 43.6491 33.9419 43.6894 34.0707 43.7216L34.3945 43.8011C34.5896 43.8485 34.735 43.9209 34.8306 44.0185C34.9263 44.1151 34.9741 44.2396 34.9741 44.392C34.9741 44.517 34.9381 44.6288 34.8661 44.7273C34.7951 44.8258 34.6957 44.9034 34.5678 44.9602C34.44 45.017 34.2913 45.0455 34.1218 45.0455C33.8993 45.0455 33.7151 44.9972 33.5692 44.9006C33.4234 44.804 33.3311 44.6629 33.2923 44.4773L33.6104 44.3977C33.6407 44.5152 33.698 44.6032 33.7823 44.6619C33.8675 44.7206 33.9788 44.75 34.1161 44.75C34.2724 44.75 34.3964 44.7169 34.4883 44.6506C34.5811 44.5833 34.6275 44.5028 34.6275 44.4091C34.6275 44.3333 34.601 44.2699 34.5479 44.2188C34.4949 44.1667 34.4135 44.1278 34.3036 44.1023L33.94 44.017C33.7402 43.9697 33.5934 43.8963 33.4996 43.7969C33.4068 43.6965 33.3604 43.571 33.3604 43.4205C33.3604 43.2973 33.395 43.1884 33.4641 43.0938C33.5342 42.9991 33.6294 42.9247 33.7496 42.8707C33.8709 42.8168 34.0082 42.7898 34.1616 42.7898C34.3775 42.7898 34.547 42.8371 34.6701 42.9318C34.7942 43.0265 34.8822 43.1515 34.9343 43.3068ZM35.6946 45.8182C35.6378 45.8182 35.5871 45.8134 35.5426 45.804C35.4981 45.7955 35.4673 45.7869 35.4503 45.7784L35.5355 45.483C35.617 45.5038 35.6889 45.5114 35.7514 45.5057C35.8139 45.5 35.8693 45.4721 35.9176 45.4219C35.9669 45.3726 36.0118 45.2926 36.0526 45.1818L36.1151 45.0114L35.3082 42.8182H35.6719L36.2741 44.5568H36.2969L36.8991 42.8182H37.2628L36.3366 45.3182C36.295 45.4309 36.2434 45.5241 36.1818 45.598C36.1203 45.6728 36.0488 45.7282 35.9673 45.7642C35.8868 45.8002 35.7959 45.8182 35.6946 45.8182ZM39.7791 42.8182V43.1023H38.6484V42.8182H39.7791ZM38.978 42.2955H39.3132V44.375C39.3132 44.4697 39.3269 44.5407 39.3544 44.5881C39.3828 44.6345 39.4188 44.6657 39.4624 44.6818C39.5069 44.697 39.5537 44.7045 39.603 44.7045C39.6399 44.7045 39.6702 44.7027 39.6939 44.6989C39.7176 44.6941 39.7365 44.6903 39.7507 44.6875L39.8189 44.9886C39.7962 44.9972 39.7644 45.0057 39.7237 45.0142C39.683 45.0237 39.6314 45.0284 39.5689 45.0284C39.4742 45.0284 39.3814 45.008 39.2905 44.9673C39.2005 44.9266 39.1257 44.8646 39.0661 44.7812C39.0073 44.6979 38.978 44.5928 38.978 44.4659V42.2955ZM41.1463 45.0455C40.9493 45.0455 40.7765 44.9986 40.6278 44.9048C40.4801 44.8111 40.3646 44.6799 40.2812 44.5114C40.1989 44.3428 40.1577 44.1458 40.1577 43.9205C40.1577 43.6932 40.1989 43.4948 40.2812 43.3253C40.3646 43.1558 40.4801 43.0241 40.6278 42.9304C40.7765 42.8366 40.9493 42.7898 41.1463 42.7898C41.3433 42.7898 41.5156 42.8366 41.6634 42.9304C41.812 43.0241 41.9276 43.1558 42.0099 43.3253C42.0933 43.4948 42.1349 43.6932 42.1349 43.9205C42.1349 44.1458 42.0933 44.3428 42.0099 44.5114C41.9276 44.6799 41.812 44.8111 41.6634 44.9048C41.5156 44.9986 41.3433 45.0455 41.1463 45.0455ZM41.1463 44.7443C41.2959 44.7443 41.419 44.706 41.5156 44.6293C41.6122 44.5526 41.6837 44.4517 41.7301 44.3267C41.7765 44.2017 41.7997 44.0663 41.7997 43.9205C41.7997 43.7746 41.7765 43.6387 41.7301 43.5128C41.6837 43.3868 41.6122 43.285 41.5156 43.2074C41.419 43.1297 41.2959 43.0909 41.1463 43.0909C40.9967 43.0909 40.8736 43.1297 40.777 43.2074C40.6804 43.285 40.6089 43.3868 40.5625 43.5128C40.5161 43.6387 40.4929 43.7746 40.4929 43.9205C40.4929 44.0663 40.5161 44.2017 40.5625 44.3267C40.6089 44.4517 40.6804 44.5526 40.777 44.6293C40.8736 44.706 40.9967 44.7443 41.1463 44.7443ZM44.6864 45.0455C44.4762 45.0455 44.2949 44.9991 44.1424 44.9062C43.9909 44.8125 43.8739 44.6818 43.7915 44.5142C43.7101 44.3456 43.6694 44.1496 43.6694 43.9261C43.6694 43.7027 43.7101 43.5057 43.7915 43.3352C43.8739 43.1638 43.9885 43.0303 44.1353 42.9347C44.283 42.8381 44.4554 42.7898 44.6523 42.7898C44.766 42.7898 44.8782 42.8087 44.989 42.8466C45.0998 42.8845 45.2006 42.946 45.2915 43.0312C45.3825 43.1155 45.4549 43.2273 45.5089 43.3665C45.5629 43.5057 45.5898 43.6771 45.5898 43.8807V44.0227H43.908V43.733H45.2489C45.2489 43.6098 45.2243 43.5 45.1751 43.4034C45.1268 43.3068 45.0576 43.2306 44.9677 43.1747C44.8787 43.1188 44.7736 43.0909 44.6523 43.0909C44.5188 43.0909 44.4033 43.1241 44.3058 43.1903C44.2092 43.2557 44.1348 43.3409 44.0827 43.446C44.0307 43.5511 44.0046 43.6638 44.0046 43.7841V43.9773C44.0046 44.142 44.033 44.2817 44.0898 44.3963C44.1476 44.5099 44.2276 44.5966 44.3299 44.6562C44.4322 44.715 44.551 44.7443 44.6864 44.7443C44.7745 44.7443 44.854 44.732 44.9251 44.7074C44.997 44.6818 45.0591 44.6439 45.1112 44.5938C45.1632 44.5426 45.2035 44.4792 45.2319 44.4034L45.5558 44.4943C45.5217 44.6042 45.4644 44.7008 45.3839 44.7841C45.3034 44.8665 45.204 44.9309 45.0856 44.9773C44.9672 45.0227 44.8342 45.0455 44.6864 45.0455ZM46.9237 45.0455C46.7418 45.0455 46.5813 44.9995 46.4421 44.9077C46.3029 44.8149 46.194 44.6842 46.1154 44.5156C46.0368 44.3461 45.9975 44.1458 45.9975 43.9148C45.9975 43.6856 46.0368 43.4867 46.1154 43.3182C46.194 43.1496 46.3034 43.0194 46.4435 42.9276C46.5837 42.8357 46.7456 42.7898 46.9293 42.7898C47.0714 42.7898 47.1836 42.8134 47.266 42.8608C47.3493 42.9072 47.4128 42.9602 47.4563 43.0199C47.5008 43.0786 47.5354 43.1269 47.56 43.1648H47.5884V42.0909H47.9237V45H47.5998V44.6648H47.56C47.5354 44.7045 47.5004 44.7547 47.4549 44.8153C47.4094 44.875 47.3446 44.9285 47.2603 44.9759C47.176 45.0223 47.0638 45.0455 46.9237 45.0455ZM46.9691 44.7443C47.1036 44.7443 47.2172 44.7093 47.31 44.6392C47.4028 44.5682 47.4734 44.4702 47.5217 44.3452C47.57 44.2192 47.5941 44.0739 47.5941 43.9091C47.5941 43.7462 47.5704 43.6037 47.5231 43.4815C47.4757 43.3584 47.4057 43.2628 47.3129 43.1946C47.2201 43.1255 47.1055 43.0909 46.9691 43.0909C46.8271 43.0909 46.7087 43.1274 46.614 43.2003C46.5202 43.2723 46.4497 43.3703 46.4023 43.4943C46.3559 43.6174 46.3327 43.7557 46.3327 43.9091C46.3327 44.0644 46.3564 44.2055 46.4038 44.3324C46.4521 44.4583 46.5231 44.5587 46.6168 44.6335C46.7115 44.7074 46.829 44.7443 46.9691 44.7443ZM48.5842 45V42.8182H48.9194V45H48.5842ZM48.7546 42.4545C48.6893 42.4545 48.6329 42.4323 48.5856 42.3878C48.5392 42.3433 48.516 42.2898 48.516 42.2273C48.516 42.1648 48.5392 42.1113 48.5856 42.0668C48.6329 42.0223 48.6893 42 48.7546 42C48.82 42 48.8758 42.0223 48.9222 42.0668C48.9696 42.1113 48.9933 42.1648 48.9933 42.2273C48.9933 42.2898 48.9696 42.3433 48.9222 42.3878C48.8758 42.4323 48.82 42.4545 48.7546 42.4545ZM50.4822 42.8182V43.1023H49.3516V42.8182H50.4822ZM49.6811 42.2955H50.0163V44.375C50.0163 44.4697 50.0301 44.5407 50.0575 44.5881C50.0859 44.6345 50.1219 44.6657 50.1655 44.6818C50.21 44.697 50.2569 44.7045 50.3061 44.7045C50.343 44.7045 50.3733 44.7027 50.397 44.6989C50.4207 44.6941 50.4396 44.6903 50.4538 44.6875L50.522 44.9886C50.4993 44.9972 50.4676 45.0057 50.4268 45.0142C50.3861 45.0237 50.3345 45.0284 50.272 45.0284C50.1773 45.0284 50.0845 45.008 49.9936 44.9673C49.9036 44.9266 49.8288 44.8646 49.7692 44.7812C49.7105 44.6979 49.6811 44.5928 49.6811 44.4659V42.2955Z" fill="#1B1B1B"/>
</svg>
