<svg width="54" height="41" viewBox="0 0 54 41" fill="none" xmlns="http://www.w3.org/2000/svg">
<path d="M16.6309 19.0332L15.916 18.999C14.8963 18.9509 13.8278 18.889 12.8477 18.6494C12.2168 18.4952 11.6544 18.2722 11.1826 17.9551C11.6712 17.5495 12.0487 17.0141 12.3271 16.3867C12.7647 15.4008 12.9753 14.1638 13.0264 12.7617C13.0628 11.7545 12.9743 10.9373 12.9668 10.3984C12.9598 9.8975 13.0013 9.40039 13.2236 8.6748L13.3301 8.34961C13.926 6.63952 15.3311 5.47494 16.9248 4.99414C18.5274 4.5107 20.2281 4.74391 21.4092 5.70703L21.6514 5.9043L21.9619 5.87109C22.9204 5.77015 23.8304 5.96938 24.543 6.50879C25.2042 7.00938 25.7726 7.86145 26.0215 9.23535L26.0664 9.5166C26.2334 10.6935 26.1404 11.6321 26.0938 12.6748C26.0473 13.7125 26.054 14.8032 26.501 16.1006C26.7659 16.8695 27.1752 17.5441 27.7588 18.0723C27.2546 18.3146 26.6372 18.4991 25.9463 18.6328C24.8324 18.8484 23.6532 18.9148 22.7051 18.9648L21.9951 19.0029V22.4863L22.4961 22.6631C23.4044 22.9829 24.4005 23.2063 25.3711 23.4053C26.359 23.6077 27.3102 23.7835 28.2031 24.0137C29.914 24.4547 31.1077 25.0273 31.6611 26.0215L31.7627 26.2256C32.0599 26.895 32.3178 27.9185 32.5244 29.0469L32.6104 29.5361C32.6201 29.5957 32.6359 29.686 32.6523 29.7793C32.6696 29.8775 32.689 29.9885 32.707 30.0996C32.7157 30.1531 32.7226 30.2035 32.7295 30.25H6.28711C6.29544 30.1924 6.30346 30.1291 6.31445 30.0615C6.35766 29.7957 6.3914 29.6278 6.41895 29.4629C6.60346 28.3591 6.83622 27.3121 7.1084 26.5723L7.22754 26.2744C7.42477 25.8248 7.81763 25.4284 8.42871 25.0693C9.04167 24.7092 9.82087 24.4178 10.7061 24.1562C11.5915 23.8947 12.5311 23.6774 13.4766 23.4434C14.4061 23.2133 15.3411 22.9669 16.1504 22.6553L16.6309 22.4707V19.0332Z" fill="#FAEED4" stroke="white" stroke-width="1.5"/>
<path d="M34.9365 9.32019C36.2557 8.92582 37.5896 9.17365 38.9688 10.3397L39.1621 10.5028L39.4141 10.5155C40.5336 10.5737 41.4148 11.3895 41.8262 12.5702C42.2391 13.7557 42.1054 15.1319 41.3564 16.0809L41.7461 16.3876L41.5771 17.2372C41.5596 17.2298 41.5442 17.2202 41.5322 17.2108C41.5254 17.2055 41.5211 17.2017 41.5195 17.2001C41.5269 17.2094 41.5514 17.2477 41.5859 17.3368C41.6244 17.6382 41.645 18.0431 41.5967 18.3895L41.5703 18.5419C41.5038 18.8527 41.3982 18.9604 41.3369 18.995C41.3111 19.0095 41.2782 19.0201 41.2246 19.0214L41.1738 19.0204L40.4756 19.0067L40.4121 19.702C40.332 20.579 39.8792 21.1789 39.3545 21.661L39.1719 21.83L39.125 22.0751C39.0057 22.7088 39.2127 23.2713 39.5264 23.7157C39.833 24.1501 40.2657 24.51 40.7021 24.7987C41.5752 25.3761 42.6306 25.7768 43.29 25.9452C43.9506 26.1141 44.4805 26.2237 45 26.3837C45.4986 26.5372 45.9035 26.7148 46.2432 26.9696C46.8653 27.4365 47.4283 28.2883 47.707 30.2499H35.0303C34.9951 29.8545 34.9144 29.403 34.8691 29.1512L34.8682 29.1464L34.8369 28.9813C34.751 28.4663 34.6507 27.9421 34.5352 27.4286L34.4141 26.9149L34.3887 26.7909L34.3848 26.7733L34.3809 26.7567L34.2461 26.2665C34.1521 25.9442 34.0497 25.6325 33.9375 25.3387L33.7617 24.912C33.6429 24.6449 33.5085 24.3943 33.3613 24.1581C33.8819 23.638 34.3026 22.9349 34.1406 22.0751L34.0947 21.83L33.9111 21.661C33.3873 21.1796 32.9366 20.5793 32.8564 19.702L32.793 19.0067L32.0938 19.0204L32.043 19.0214C32.0167 19.0207 31.9955 19.0182 31.9775 19.0135L31.9307 18.995C31.8691 18.96 31.7633 18.8512 31.6973 18.5419V18.5409C31.6172 18.1678 31.6366 17.6852 31.6807 17.3387C31.7046 17.2765 31.7239 17.239 31.7363 17.2186L32.1855 17.036L32.1562 16.5028C32.1362 16.13 32.1388 15.7456 32.126 15.2772C32.1138 14.8338 32.0883 14.3479 32.0068 13.8846C31.8973 13.2621 31.6632 12.5746 31.1416 12.0858C32.4493 10.6061 33.7284 9.68147 34.9365 9.32019Z" fill="#FAEED4" stroke="white" stroke-width="1.5"/>
<path d="M34.7998 32.2019V36.2C34.7998 36.5584 34.3649 36.7362 34.1143 36.4802L33.4033 35.7537C33.2461 35.5928 32.9878 35.5932 32.8311 35.7546L29.0986 39.5964C28.2766 40.4329 27.7255 40.7937 27.2129 40.7996C26.7025 40.8053 26.1529 40.4591 25.333 39.6248L25.332 39.6238L22.7129 36.9949C22.5563 36.838 22.3016 36.8384 22.1455 36.9958L19.8613 39.3035C19.7112 39.4552 19.5064 39.5407 19.293 39.5408H18.5029C17.7807 39.5404 17.4286 38.6586 17.9521 38.1609L21.8867 34.4207C22.2031 34.1202 22.7019 34.1291 23.0078 34.4402L23.0469 34.4792C24.3361 35.79 25.6191 37.0949 26.9238 38.407C27.0816 38.5654 27.3385 38.5634 27.4941 38.4031L31.4492 34.3279C31.6006 34.1719 31.5997 33.9232 31.4473 33.7683L30.6094 32.9177C30.3616 32.6662 30.5375 32.2404 30.8906 32.2371L33.6045 32.2117L34.7998 32.2019Z" fill="#E4783E" stroke="white" stroke-width="0.4"/>
<path d="M15.8809 19.2715L15.4043 19.249C14.3866 19.201 13.2949 19.1387 12.2881 18.8926C11.5143 18.7034 10.8201 18.4112 10.2627 17.957C10.8449 17.566 11.2845 16.9929 11.5986 16.2852C12.0181 15.3399 12.2259 14.1381 12.2764 12.752C12.3128 11.7453 12.2249 10.9808 12.2168 10.4023C12.2094 9.87651 12.2546 9.35391 12.4844 8.60352L12.5938 8.26758C13.2194 6.47168 14.693 5.25457 16.3525 4.75391C18.0178 4.2516 19.8096 4.48706 21.0674 5.5127L21.2285 5.64453L21.4355 5.62305C22.4436 5.51687 23.4211 5.72416 24.1943 6.30957C24.9146 6.85495 25.5086 7.7674 25.7666 9.19043L25.8145 9.48145C25.9856 10.6876 25.8898 11.6568 25.8438 12.6865C25.7978 13.7127 25.8058 14.7657 26.2373 16.0186C26.5312 16.8716 27.0063 17.5933 27.7061 18.1162C27.1153 18.4687 26.3465 18.7129 25.4941 18.8779C24.3608 19.0973 23.1653 19.1649 22.2188 19.2148L21.7451 19.2402V22.3096L22.0791 22.4277C22.97 22.7414 23.9521 22.9614 24.9219 23.1602C25.903 23.3612 26.8648 23.5393 27.7656 23.7715C29.5933 24.2426 30.9405 24.8861 31.4912 26.124C31.8004 26.8205 32.0636 27.8678 32.2715 29.0039L32.3564 29.4951C32.3659 29.5528 32.3817 29.6411 32.3984 29.7363C32.4157 29.8348 32.4359 29.9469 32.4541 30.0596C32.4835 30.2409 32.5028 30.3974 32.5117 30.5H5.50684C5.51579 30.3872 5.53664 30.2166 5.56836 30.0215C5.61042 29.7627 5.64688 29.5715 5.67188 29.4219C5.88312 28.1581 6.16079 26.9438 6.49805 26.1738C6.72374 25.6593 7.16407 25.2282 7.80176 24.8535C8.44067 24.4781 9.24245 24.1806 10.1348 23.917C11.0274 23.6533 11.9766 23.433 12.917 23.2002C13.8465 22.9701 14.7676 22.7272 15.5605 22.4219L15.8809 22.2988V19.2715Z" stroke="#505050"/>
<path d="M34.3496 9.07996C35.7591 8.6586 37.1786 8.93548 38.6143 10.1493L38.7432 10.2577L38.9111 10.2665C40.1609 10.3315 41.1127 11.2417 41.5469 12.4882C41.9821 13.7377 41.8488 15.2065 41.0371 16.2352L41.2744 16.4218L41.1582 17.0067C41.1611 17.0079 41.1749 17.0137 41.2002 17.0458C41.2287 17.082 41.2686 17.1492 41.3125 17.2675L41.3154 17.2802C41.3635 17.6411 41.3904 18.1709 41.2998 18.5936H41.2988C41.2255 18.9365 41.0952 19.1276 40.9443 19.2128C40.8779 19.2502 40.803 19.2697 40.7119 19.2714L40.6533 19.2704L40.1875 19.2616L40.1455 19.7255C40.0575 20.6878 39.5579 21.3411 39.0088 21.8456L38.8857 21.9579L38.8555 22.121C38.752 22.6703 38.9282 23.1651 39.2148 23.5712C39.4968 23.9707 39.9014 24.311 40.3242 24.5907C41.1699 25.1501 42.1992 25.5402 42.8369 25.703C43.4829 25.8682 44.0311 25.9833 44.5576 26.1454C45.0701 26.3032 45.5053 26.4907 45.877 26.7694C46.5964 27.3092 47.1956 28.2814 47.4678 30.4218L47.4707 30.451L47.4785 30.4794C47.4802 30.4862 47.4809 30.4932 47.4824 30.4999H34.2793C34.2661 30.0883 34.1638 29.51 34.1074 29.1962L34.1064 29.1923L34.0762 29.0272H34.0752C33.9621 28.3489 33.8249 27.6556 33.6602 26.994L33.6279 26.8417L33.626 26.8309L33.623 26.8192L33.4902 26.3358C33.3517 25.8607 33.1947 25.4122 33.0176 25.0135C32.874 24.6908 32.7062 24.3943 32.5205 24.119C33.0773 23.6168 33.5345 22.9411 33.3799 22.121L33.3486 21.9579L33.2266 21.8456L33.0244 21.6493C32.5602 21.1734 32.1688 20.568 32.0918 19.7255L32.0488 19.2616L31.584 19.2704L31.5234 19.2714C31.4329 19.2695 31.3582 19.2501 31.292 19.2128C31.1413 19.1274 31.0105 18.9365 30.9375 18.5946V18.5936C30.8464 18.1691 30.8724 17.6363 30.9209 17.2753L30.9219 17.2723C30.9665 17.1508 31.0073 17.0825 31.0361 17.0458C31.0621 17.0128 31.0767 17.0077 31.0791 17.0067L31.0781 17.0057H31.0801L31.4102 16.8719L31.3916 16.5165C31.3713 16.1403 31.3729 15.741 31.3604 15.2841C31.3483 14.8437 31.3223 14.3732 31.2441 13.9286C31.1256 13.2544 30.8661 12.552 30.2695 12.1161C31.6519 10.5049 33.026 9.47567 34.3496 9.07996Z" stroke="#505050"/>
</svg>
