<svg width="160" height="155" viewBox="0 0 160 155" fill="none" xmlns="http://www.w3.org/2000/svg">
<path d="M86.6667 10H72.4444L72.2908 10C65.7166 9.99997 60.5783 9.99994 56.5723 10.5385C52.4776 11.089 49.2677 12.235 46.7514 14.7514C44.235 17.2677 43.089 20.4776 42.5385 24.5723C41.9999 28.5783 42 33.7166 42 40.2908L42 40.4444V111.556L42 111.709C42 118.283 41.9999 123.422 42.5385 127.428C43.089 131.522 44.235 134.732 46.7514 137.249C49.2677 139.765 52.4776 140.911 56.5723 141.461C60.5783 142 65.7167 142 72.291 142H72.4444H86.6667H86.8201C93.3944 142 98.5328 142 102.539 141.461C106.633 140.911 109.843 139.765 112.36 137.249C114.876 134.732 116.022 131.522 116.573 127.428C117.111 123.422 117.111 118.283 117.111 111.709V111.556V40.4444V40.2907C117.111 33.7165 117.111 28.5783 116.573 24.5723C116.022 20.4776 114.876 17.2677 112.36 14.7514C109.843 12.235 106.633 11.089 102.539 10.5385C98.5328 9.99994 93.3945 9.99997 86.8203 10L86.6667 10Z" stroke="#777777" stroke-width="4"/>
<path d="M44 104.446H115.111" stroke="#777777" stroke-width="4"/>
</svg>
