<svg width="160" height="155" viewBox="0 0 160 155" fill="none" xmlns="http://www.w3.org/2000/svg">
<path d="M86.6667 11H72.4444H72.3651C65.7278 11 60.6449 11 56.7056 11.5296C52.7218 12.0652 49.7581 13.1589 47.4585 15.4585C45.1589 17.7581 44.0652 20.7218 43.5296 24.7056C43 28.6449 43 33.7278 43 40.3651V40.4444V111.556V111.635C43 118.272 43 123.355 43.5296 127.294C44.0652 131.278 45.1589 134.242 47.4585 136.542C49.7581 138.841 52.7218 139.935 56.7056 140.47C60.6449 141 65.7278 141 72.3652 141H72.4444H86.6667H86.7459C93.3833 141 98.4662 141 102.406 140.47C106.389 139.935 109.353 138.841 111.653 136.542C113.952 134.242 115.046 131.278 115.581 127.294C116.111 123.355 116.111 118.272 116.111 111.635V111.556V40.4444V40.3652C116.111 33.7279 116.111 28.6449 115.581 24.7056C115.046 20.7218 113.952 17.7581 111.653 15.4585C109.353 13.1589 106.389 12.0652 102.406 11.5296C98.4662 11 93.3833 11 86.746 11H86.6667Z" stroke="#777777" stroke-width="2"/>
<path d="M44 104.446H115.111" stroke="#777777" stroke-width="2"/>
</svg>
