<svg width="160" height="155" viewBox="0 0 160 155" fill="none" xmlns="http://www.w3.org/2000/svg">
<path d="M122.4 42.2L122.4 110.2C122.4 116.668 122.396 121.317 121.92 124.856C121.452 128.338 120.561 130.444 119.002 132.002C117.444 133.561 115.338 134.452 111.856 134.92C108.317 135.396 103.668 135.4 97.2 135.4L60 135.4C54.2866 135.4 50.2028 135.396 47.0992 134.978C44.0532 134.569 42.2527 133.795 40.9289 132.471C39.6051 131.147 38.831 129.347 38.4215 126.301C38.0042 123.197 38 119.113 38 113.4L38 39C38 33.2866 38.0042 29.2028 38.4215 26.0992C38.831 23.0532 39.6051 21.2527 40.9289 19.9289C42.2528 18.6051 44.0532 17.831 47.0992 17.4215C50.2028 17.0042 54.2866 17 60 17L97.2 17C103.668 17 108.317 17.0042 111.856 17.4801C115.338 17.9482 117.444 18.8394 119.002 20.3976C120.561 21.9557 121.452 24.0619 121.92 27.5436C122.396 31.0828 122.4 35.7323 122.4 42.2Z" stroke="#777777" stroke-width="4"/>
<circle cx="79.9" cy="123.501" r="4.5" fill="#777777"/>
</svg>
