<svg width="160" height="155" viewBox="0 0 160 155" fill="none" xmlns="http://www.w3.org/2000/svg">
<path d="M46.2 27H114.2C120.668 27 125.317 27.0042 128.856 27.4801C132.338 27.9482 134.444 28.8394 136.002 30.3976C137.561 31.9557 138.452 34.0619 138.92 37.5436C139.396 41.0828 139.4 45.7324 139.4 52.2V111.4H21V52.2C21 45.7324 21.0042 41.0828 21.4801 37.5436C21.9482 34.0619 22.8394 31.9557 24.3976 30.3976C25.9557 28.8394 28.0619 27.9482 31.5436 27.4801C35.0828 27.0042 39.7323 27 46.2 27Z" stroke="#777777" stroke-width="4"/>
<path d="M136.867 111.401H23.5333C19.9251 111.401 17 114.326 17 117.934C17 124.046 21.9547 129.001 28.0667 129.001H132.333C138.445 129.001 143.4 124.046 143.4 117.934C143.4 114.326 140.475 111.401 136.867 111.401Z" stroke="#777777" stroke-width="4"/>
</svg>
