<svg width="950" height="188" viewBox="0 0 950 188" fill="none" xmlns="http://www.w3.org/2000/svg">
<path d="M70.4153 61.1048L43.8758 128" stroke="#AAAAAA" stroke-width="2" stroke-linecap="round"/>
<path d="M19.9893 60L44.777 127.865" stroke="#777777" stroke-width="6" stroke-linecap="round"/>
<path d="M98.1106 60L75.6735 118.619" stroke="#AAAAAA" stroke-width="2" stroke-linecap="round"/>
<path d="M52.7726 60.0948L76.714 128" stroke="black" stroke-width="8" stroke-linecap="round"/>
<path d="M120.011 60L100.674 109.934" stroke="#777777" stroke-width="2" stroke-linecap="round"/>
<path d="M82.2738 60.2544L107.396 128" stroke="black" stroke-width="8" stroke-linecap="round"/>
<path d="M140.408 59.917H148.313C149.197 59.917 149.911 60.138 150.455 60.58C150.999 61.022 151.407 61.583 151.679 62.263L172.334 113.824C172.81 114.98 173.235 116.238 173.609 117.598C174.017 118.958 174.408 120.369 174.782 121.831C175.088 120.369 175.411 118.958 175.751 117.598C176.125 116.238 176.55 114.98 177.026 113.824L197.579 62.263C197.817 61.685 198.225 61.158 198.803 60.682C199.381 60.172 200.095 59.917 200.945 59.917H208.901L179.117 133H170.192L140.408 59.917ZM229.932 133H220.038V59.917H229.932V133ZM300.989 117.904C301.533 117.904 302.026 118.125 302.468 118.567L306.344 122.8C303.352 126.268 299.714 128.971 295.43 130.909C291.18 132.847 286.046 133.816 280.028 133.816C274.758 133.816 269.981 132.915 265.697 131.113C261.413 129.277 257.758 126.727 254.732 123.463C251.706 120.165 249.36 116.221 247.694 111.631C246.028 107.041 245.195 101.992 245.195 96.484C245.195 90.976 246.079 85.927 247.847 81.337C249.649 76.747 252.165 72.803 255.395 69.505C258.625 66.207 262.484 63.657 266.972 61.855C271.494 60.019 276.475 59.101 281.915 59.101C287.287 59.101 291.911 59.934 295.787 61.6C299.697 63.266 303.165 65.527 306.191 68.383L302.978 72.922C302.74 73.262 302.468 73.551 302.162 73.789C301.856 73.993 301.414 74.095 300.836 74.095C300.394 74.095 299.918 73.942 299.408 73.636C298.932 73.296 298.354 72.888 297.674 72.412C296.994 71.936 296.195 71.426 295.277 70.882C294.359 70.338 293.271 69.828 292.013 69.352C290.755 68.876 289.293 68.485 287.627 68.179C285.961 67.839 284.04 67.669 281.864 67.669C277.954 67.669 274.367 68.349 271.103 69.709C267.873 71.035 265.085 72.939 262.739 75.421C260.393 77.903 258.557 80.929 257.231 84.499C255.939 88.069 255.293 92.064 255.293 96.484C255.293 101.04 255.939 105.103 257.231 108.673C258.557 112.243 260.342 115.269 262.586 117.751C264.864 120.199 267.55 122.069 270.644 123.361C273.738 124.653 277.07 125.299 280.64 125.299C282.816 125.299 284.771 125.18 286.505 124.942C288.239 124.67 289.837 124.262 291.299 123.718C292.795 123.174 294.172 122.494 295.43 121.678C296.722 120.828 298.014 119.825 299.306 118.669C299.884 118.159 300.445 117.904 300.989 117.904ZM330.169 91.945H333.892C335.184 91.945 336.204 91.792 336.952 91.486C337.734 91.146 338.465 90.585 339.145 89.803L363.472 62.263C364.22 61.413 364.934 60.818 365.614 60.478C366.328 60.104 367.229 59.917 368.317 59.917H376.732L348.886 91.384C348.172 92.166 347.492 92.829 346.846 93.373C346.234 93.917 345.571 94.359 344.857 94.699C345.809 95.005 346.642 95.464 347.356 96.076C348.07 96.688 348.818 97.453 349.6 98.371L378.67 133H370.102C369.456 133 368.912 132.949 368.47 132.847C368.028 132.745 367.637 132.609 367.297 132.439C366.991 132.269 366.702 132.048 366.43 131.776C366.158 131.504 365.886 131.215 365.614 130.909L340.369 101.89C339.995 101.482 339.638 101.142 339.298 100.87C338.992 100.564 338.618 100.309 338.176 100.105C337.768 99.901 337.275 99.765 336.697 99.697C336.153 99.595 335.473 99.544 334.657 99.544H330.169V133H320.326V59.917H330.169V91.945ZM416.885 103.93V133H407.042V103.93L380.267 59.917H388.937C389.821 59.917 390.518 60.138 391.028 60.58C391.538 61.022 391.98 61.566 392.354 62.212L409.082 90.619C409.762 91.809 410.323 92.931 410.765 93.985C411.241 95.039 411.666 96.076 412.04 97.096C412.414 96.042 412.822 94.988 413.264 93.934C413.706 92.88 414.267 91.775 414.947 90.619L431.624 62.212C431.93 61.668 432.338 61.158 432.848 60.682C433.392 60.172 434.089 59.917 434.939 59.917H443.711L416.885 103.93ZM444.722 59.917H452.933C453.817 59.917 454.548 60.138 455.126 60.58C455.704 61.022 456.095 61.583 456.299 62.263L471.395 113.059C471.667 113.977 471.905 114.963 472.109 116.017C472.347 117.071 472.568 118.176 472.772 119.332C473.01 118.176 473.248 117.071 473.486 116.017C473.724 114.929 473.996 113.943 474.302 113.059L491.489 62.263C491.693 61.685 492.084 61.158 492.662 60.682C493.274 60.172 494.005 59.917 494.855 59.917H497.711C498.595 59.917 499.309 60.138 499.853 60.58C500.431 61.022 500.839 61.583 501.077 62.263L518.162 113.059C518.774 114.827 519.318 116.85 519.794 119.128C519.998 118.006 520.185 116.935 520.355 115.915C520.525 114.895 520.746 113.943 521.018 113.059L536.165 62.263C536.335 61.651 536.709 61.107 537.287 60.631C537.899 60.155 538.63 59.917 539.48 59.917H547.181L524.384 133H515.51L496.997 77.257C496.623 76.203 496.283 74.979 495.977 73.585C495.807 74.265 495.637 74.928 495.467 75.574C495.331 76.186 495.178 76.747 495.008 77.257L476.393 133H467.519L444.722 59.917ZM612.122 133H604.472C603.588 133 602.874 132.779 602.33 132.337C601.786 131.895 601.378 131.334 601.106 130.654L594.272 113.008H561.479L554.645 130.654C554.407 131.266 553.999 131.81 553.421 132.286C552.843 132.762 552.129 133 551.279 133H543.629L572.852 59.917H582.899L612.122 133ZM564.233 105.868H591.518L580.043 76.135C579.295 74.299 578.564 72.004 577.85 69.25C577.476 70.644 577.102 71.936 576.728 73.126C576.388 74.282 576.048 75.302 575.708 76.186L564.233 105.868ZM626.421 59.917C627.305 59.917 627.951 60.036 628.359 60.274C628.801 60.478 629.294 60.92 629.838 61.6L672.168 116.68C672.066 115.796 671.998 114.946 671.964 114.13C671.93 113.28 671.913 112.464 671.913 111.682V59.917H680.583V133H675.585C674.803 133 674.14 132.864 673.596 132.592C673.086 132.32 672.576 131.861 672.066 131.215L629.787 76.186C629.855 77.036 629.906 77.869 629.94 78.685C629.974 79.501 629.991 80.249 629.991 80.929V133H621.321V59.917H626.421ZM731.008 125.809C732.98 125.809 734.782 125.724 736.414 125.554C738.08 125.35 739.644 125.061 741.106 124.687C742.568 124.313 743.945 123.871 745.237 123.361C746.529 122.817 747.821 122.205 749.113 121.525V105.409H737.791C737.145 105.409 736.618 105.222 736.21 104.848C735.836 104.474 735.649 104.015 735.649 103.471V97.861H758.089V125.911C756.253 127.237 754.332 128.393 752.326 129.379C750.354 130.365 748.229 131.198 745.951 131.878C743.707 132.524 741.293 133 738.709 133.306C736.125 133.646 733.32 133.816 730.294 133.816C724.99 133.816 720.128 132.915 715.708 131.113C711.288 129.277 707.48 126.727 704.284 123.463C701.088 120.165 698.589 116.221 696.787 111.631C695.019 107.041 694.135 101.992 694.135 96.484C694.135 90.908 695.002 85.825 696.736 81.235C698.504 76.645 701.003 72.718 704.233 69.454C707.497 66.156 711.424 63.606 716.014 61.804C720.638 60.002 725.806 59.101 731.518 59.101C734.408 59.101 737.094 59.322 739.576 59.764C742.058 60.172 744.353 60.784 746.461 61.6C748.603 62.382 750.575 63.351 752.377 64.507C754.179 65.629 755.862 66.904 757.426 68.332L754.621 72.82C754.043 73.738 753.295 74.197 752.377 74.197C751.833 74.197 751.238 74.01 750.592 73.636C749.742 73.16 748.79 72.582 747.736 71.902C746.682 71.222 745.39 70.576 743.86 69.964C742.364 69.318 740.579 68.774 738.505 68.332C736.465 67.89 734.034 67.669 731.212 67.669C727.098 67.669 723.375 68.349 720.043 69.709C716.711 71.035 713.872 72.956 711.526 75.472C709.18 77.954 707.378 80.98 706.12 84.55C704.862 88.086 704.233 92.064 704.233 96.484C704.233 101.108 704.879 105.239 706.171 108.877C707.497 112.481 709.35 115.541 711.73 118.057C714.11 120.573 716.932 122.494 720.196 123.82C723.46 125.146 727.064 125.809 731.008 125.809ZM768.939 127.39C768.939 126.506 769.092 125.673 769.398 124.891C769.738 124.109 770.18 123.429 770.724 122.851C771.302 122.273 771.982 121.814 772.764 121.474C773.546 121.134 774.379 120.964 775.263 120.964C776.147 120.964 776.98 121.134 777.762 121.474C778.544 121.814 779.224 122.273 779.802 122.851C780.38 123.429 780.822 124.109 781.128 124.891C781.468 125.673 781.638 126.506 781.638 127.39C781.638 128.308 781.468 129.158 781.128 129.94C780.822 130.688 780.38 131.351 779.802 131.929C779.224 132.507 778.544 132.949 777.762 133.255C776.98 133.595 776.147 133.765 775.263 133.765C774.379 133.765 773.546 133.595 772.764 133.255C771.982 132.949 771.302 132.507 770.724 131.929C770.18 131.351 769.738 130.688 769.398 129.94C769.092 129.158 768.939 128.308 768.939 127.39ZM830.895 106.582C831.371 107.398 831.779 108.265 832.119 109.183C832.493 110.067 832.85 110.968 833.19 111.886C833.53 110.934 833.887 110.033 834.261 109.183C834.635 108.299 835.06 107.415 835.536 106.531L860.271 61.6C860.713 60.818 861.172 60.342 861.648 60.172C862.124 60.002 862.804 59.917 863.688 59.917H870.981V133H862.311V79.297C862.311 78.583 862.328 77.818 862.362 77.002C862.396 76.186 862.447 75.353 862.515 74.503L837.474 120.199C836.624 121.729 835.434 122.494 833.904 122.494H832.476C830.946 122.494 829.756 121.729 828.906 120.199L803.304 74.35C803.406 75.234 803.474 76.101 803.508 76.951C803.576 77.801 803.61 78.583 803.61 79.297V133H794.94V59.917H802.233C803.117 59.917 803.797 60.002 804.273 60.172C804.749 60.342 805.208 60.818 805.65 61.6L830.895 106.582ZM933.805 59.917V67.975H898.717V92.251H927.124V100.003H898.717V124.942H933.805V133H888.772V59.917H933.805Z" fill="#1B1B1B"/>
</svg>
