<svg width="1512" height="900" viewBox="0 0 1512 900" fill="none" xmlns="http://www.w3.org/2000/svg">
<g clip-path="url(#clip0_1333_1032)">
<path d="M0 16C0 7.16346 7.16344 0 16 0H1496C1504.84 0 1512 7.16344 1512 16V900H0V16Z" fill="#F5F5F5"/>
<rect width="1512" height="900" fill="#F5F5F5"/>
<g filter="url(#filter0_d_1333_1032)">
<path d="M160 66C160 57.1634 167.163 50 176 50H424C432.837 50 440 57.1634 440 66V89C440 97.8366 432.837 105 424 105H176C167.163 105 160 97.8366 160 89V66Z" fill="white" shape-rendering="crispEdges"/>
<path d="M191.375 71.8409C191.254 70.7652 190.754 69.9318 189.875 69.3409C188.996 68.7424 187.89 68.4432 186.557 68.4432C185.602 68.4432 184.777 68.5947 184.08 68.8977C183.383 69.1932 182.841 69.6023 182.455 70.125C182.076 70.6402 181.886 71.2273 181.886 71.8864C181.886 72.4394 182.015 72.9167 182.273 73.3182C182.538 73.7197 182.883 74.0568 183.307 74.3295C183.739 74.5947 184.201 74.8182 184.693 75C185.186 75.1742 185.659 75.3182 186.114 75.4318L188.386 76.0227C189.129 76.2045 189.89 76.4508 190.67 76.7614C191.451 77.072 192.174 77.4811 192.841 77.9886C193.508 78.4962 194.045 79.125 194.455 79.875C194.871 80.625 195.08 81.5227 195.08 82.5682C195.08 83.8864 194.739 85.0568 194.057 86.0795C193.383 87.1023 192.402 87.9091 191.114 88.5C189.833 89.0909 188.284 89.3864 186.466 89.3864C184.723 89.3864 183.216 89.1098 181.943 88.5568C180.67 88.0038 179.674 87.2197 178.955 86.2045C178.235 85.1818 177.837 83.9697 177.761 82.5682H181.284C181.352 83.4091 181.625 84.1098 182.102 84.6705C182.587 85.2235 183.205 85.6364 183.955 85.9091C184.712 86.1742 185.542 86.3068 186.443 86.3068C187.436 86.3068 188.318 86.1515 189.091 85.8409C189.871 85.5227 190.485 85.0833 190.932 84.5227C191.379 83.9545 191.602 83.2917 191.602 82.5341C191.602 81.8447 191.405 81.2803 191.011 80.8409C190.625 80.4015 190.098 80.0379 189.432 79.75C188.773 79.4621 188.027 79.2083 187.193 78.9886L184.443 78.2386C182.58 77.7311 181.102 76.9848 180.011 76C178.928 75.0152 178.386 73.7121 178.386 72.0909C178.386 70.75 178.75 69.5795 179.477 68.5795C180.205 67.5795 181.189 66.803 182.432 66.25C183.674 65.6894 185.076 65.4091 186.636 65.4091C188.212 65.4091 189.602 65.6856 190.807 66.2386C192.019 66.7917 192.973 67.553 193.67 68.5227C194.367 69.4848 194.731 70.5909 194.761 71.8409H191.375ZM210.06 81.7614V71.5455H213.469V89H210.128V85.9773H209.946C209.545 86.9091 208.901 87.6856 208.014 88.3068C207.135 88.9205 206.041 89.2273 204.73 89.2273C203.609 89.2273 202.616 88.9811 201.753 88.4886C200.897 87.9886 200.223 87.25 199.73 86.2727C199.245 85.2955 199.003 84.0871 199.003 82.6477V71.5455H202.401V82.2386C202.401 83.428 202.73 84.375 203.389 85.0795C204.048 85.7841 204.904 86.1364 205.957 86.1364C206.594 86.1364 207.226 85.9773 207.855 85.6591C208.491 85.3409 209.018 84.8598 209.435 84.2159C209.859 83.572 210.067 82.7538 210.06 81.7614ZM218.307 89V65.7273H221.705V74.375H221.909C222.106 74.0114 222.39 73.5909 222.761 73.1136C223.133 72.6364 223.648 72.2197 224.307 71.8636C224.966 71.5 225.837 71.3182 226.92 71.3182C228.33 71.3182 229.587 71.6742 230.693 72.3864C231.799 73.0985 232.667 74.125 233.295 75.4659C233.932 76.8068 234.25 78.4205 234.25 80.3068C234.25 82.1932 233.936 83.8106 233.307 85.1591C232.678 86.5 231.814 87.5341 230.716 88.2614C229.617 88.9811 228.364 89.3409 226.955 89.3409C225.894 89.3409 225.027 89.1629 224.352 88.8068C223.686 88.4508 223.163 88.0341 222.784 87.5568C222.405 87.0795 222.114 86.6553 221.909 86.2841H221.625V89H218.307ZM221.636 80.2727C221.636 81.5 221.814 82.5758 222.17 83.5C222.527 84.4242 223.042 85.1477 223.716 85.6705C224.39 86.1856 225.216 86.4432 226.193 86.4432C227.208 86.4432 228.057 86.1742 228.739 85.6364C229.42 85.0909 229.936 84.3523 230.284 83.4205C230.64 82.4886 230.818 81.4394 230.818 80.2727C230.818 79.1212 230.644 78.0871 230.295 77.1705C229.955 76.2538 229.439 75.5303 228.75 75C228.068 74.4697 227.216 74.2045 226.193 74.2045C225.208 74.2045 224.375 74.4583 223.693 74.9659C223.019 75.4735 222.508 76.1818 222.159 77.0909C221.811 78 221.636 79.0606 221.636 80.2727ZM265.591 65.7273V89H262.364L250.534 71.9318H250.318V89H246.807V65.7273H250.057L261.898 82.8182H262.114V65.7273H265.591ZM275.52 89.3864C274.414 89.3864 273.414 89.1818 272.52 88.7727C271.626 88.3561 270.918 87.7538 270.395 86.9659C269.88 86.178 269.622 85.2121 269.622 84.0682C269.622 83.0833 269.812 82.2727 270.19 81.6364C270.569 81 271.08 80.4962 271.724 80.125C272.368 79.7538 273.088 79.4735 273.884 79.2841C274.679 79.0947 275.49 78.9508 276.315 78.8523C277.361 78.7311 278.209 78.6326 278.861 78.5568C279.512 78.4735 279.986 78.3409 280.281 78.1591C280.577 77.9773 280.724 77.6818 280.724 77.2727V77.1932C280.724 76.2008 280.444 75.4318 279.884 74.8864C279.33 74.3409 278.505 74.0682 277.406 74.0682C276.262 74.0682 275.361 74.322 274.702 74.8295C274.05 75.3295 273.599 75.8864 273.349 76.5L270.156 75.7727C270.535 74.7121 271.088 73.8561 271.815 73.2045C272.55 72.5455 273.395 72.0682 274.349 71.7727C275.304 71.4697 276.308 71.3182 277.361 71.3182C278.058 71.3182 278.796 71.4015 279.577 71.5682C280.365 71.7273 281.099 72.0227 281.781 72.4545C282.471 72.8864 283.035 73.5038 283.474 74.3068C283.914 75.1023 284.134 76.1364 284.134 77.4091V89H280.815V86.6136H280.679C280.459 87.053 280.13 87.4848 279.69 87.9091C279.251 88.3333 278.687 88.6856 277.997 88.9659C277.308 89.2462 276.482 89.3864 275.52 89.3864ZM276.259 86.6591C277.198 86.6591 278.001 86.4735 278.668 86.1023C279.342 85.7311 279.853 85.2462 280.202 84.6477C280.558 84.0417 280.736 83.3939 280.736 82.7045V80.4545C280.615 80.5758 280.38 80.6894 280.031 80.7955C279.69 80.8939 279.3 80.9811 278.861 81.0568C278.421 81.125 277.993 81.1894 277.577 81.25C277.16 81.303 276.812 81.3485 276.531 81.3864C275.872 81.4697 275.27 81.6098 274.724 81.8068C274.187 82.0038 273.755 82.2879 273.429 82.6591C273.111 83.0227 272.952 83.5076 272.952 84.1136C272.952 84.9545 273.262 85.5909 273.884 86.0227C274.505 86.447 275.296 86.6591 276.259 86.6591ZM302.966 71.5455L296.636 89H293L286.659 71.5455H290.307L294.727 84.9773H294.909L299.318 71.5455H302.966Z" fill="#292929"/>
</g>
<g filter="url(#filter1_d_1333_1032)">
<path d="M160 157C160 148.163 167.163 141 176 141H424C432.837 141 440 148.163 440 157V405C440 413.837 432.837 421 424 421H176C167.163 421 160 413.837 160 405V157Z" fill="white" shape-rendering="crispEdges"/>
<path d="M191.375 157.341C191.254 156.265 190.754 155.432 189.875 154.841C188.996 154.242 187.89 153.943 186.557 153.943C185.602 153.943 184.777 154.095 184.08 154.398C183.383 154.693 182.841 155.102 182.455 155.625C182.076 156.14 181.886 156.727 181.886 157.386C181.886 157.939 182.015 158.417 182.273 158.818C182.538 159.22 182.883 159.557 183.307 159.83C183.739 160.095 184.201 160.318 184.693 160.5C185.186 160.674 185.659 160.818 186.114 160.932L188.386 161.523C189.129 161.705 189.89 161.951 190.67 162.261C191.451 162.572 192.174 162.981 192.841 163.489C193.508 163.996 194.045 164.625 194.455 165.375C194.871 166.125 195.08 167.023 195.08 168.068C195.08 169.386 194.739 170.557 194.057 171.58C193.383 172.602 192.402 173.409 191.114 174C189.833 174.591 188.284 174.886 186.466 174.886C184.723 174.886 183.216 174.61 181.943 174.057C180.67 173.504 179.674 172.72 178.955 171.705C178.235 170.682 177.837 169.47 177.761 168.068H181.284C181.352 168.909 181.625 169.61 182.102 170.17C182.587 170.723 183.205 171.136 183.955 171.409C184.712 171.674 185.542 171.807 186.443 171.807C187.436 171.807 188.318 171.652 189.091 171.341C189.871 171.023 190.485 170.583 190.932 170.023C191.379 169.455 191.602 168.792 191.602 168.034C191.602 167.345 191.405 166.78 191.011 166.341C190.625 165.902 190.098 165.538 189.432 165.25C188.773 164.962 188.027 164.708 187.193 164.489L184.443 163.739C182.58 163.231 181.102 162.485 180.011 161.5C178.928 160.515 178.386 159.212 178.386 157.591C178.386 156.25 178.75 155.08 179.477 154.08C180.205 153.08 181.189 152.303 182.432 151.75C183.674 151.189 185.076 150.909 186.636 150.909C188.212 150.909 189.602 151.186 190.807 151.739C192.019 152.292 192.973 153.053 193.67 154.023C194.367 154.985 194.731 156.091 194.761 157.341H191.375ZM210.06 167.261V157.045H213.469V174.5H210.128V171.477H209.946C209.545 172.409 208.901 173.186 208.014 173.807C207.135 174.42 206.041 174.727 204.73 174.727C203.609 174.727 202.616 174.481 201.753 173.989C200.897 173.489 200.223 172.75 199.73 171.773C199.245 170.795 199.003 169.587 199.003 168.148V157.045H202.401V167.739C202.401 168.928 202.73 169.875 203.389 170.58C204.048 171.284 204.904 171.636 205.957 171.636C206.594 171.636 207.226 171.477 207.855 171.159C208.491 170.841 209.018 170.36 209.435 169.716C209.859 169.072 210.067 168.254 210.06 167.261ZM218.307 174.5V151.227H221.705V159.875H221.909C222.106 159.511 222.39 159.091 222.761 158.614C223.133 158.136 223.648 157.72 224.307 157.364C224.966 157 225.837 156.818 226.92 156.818C228.33 156.818 229.587 157.174 230.693 157.886C231.799 158.598 232.667 159.625 233.295 160.966C233.932 162.307 234.25 163.92 234.25 165.807C234.25 167.693 233.936 169.311 233.307 170.659C232.678 172 231.814 173.034 230.716 173.761C229.617 174.481 228.364 174.841 226.955 174.841C225.894 174.841 225.027 174.663 224.352 174.307C223.686 173.951 223.163 173.534 222.784 173.057C222.405 172.58 222.114 172.155 221.909 171.784H221.625V174.5H218.307ZM221.636 165.773C221.636 167 221.814 168.076 222.17 169C222.527 169.924 223.042 170.648 223.716 171.17C224.39 171.686 225.216 171.943 226.193 171.943C227.208 171.943 228.057 171.674 228.739 171.136C229.42 170.591 229.936 169.852 230.284 168.92C230.64 167.989 230.818 166.939 230.818 165.773C230.818 164.621 230.644 163.587 230.295 162.67C229.955 161.754 229.439 161.03 228.75 160.5C228.068 159.97 227.216 159.705 226.193 159.705C225.208 159.705 224.375 159.958 223.693 160.466C223.019 160.973 222.508 161.682 222.159 162.591C221.811 163.5 221.636 164.561 221.636 165.773ZM265.591 151.227V174.5H262.364L250.534 157.432H250.318V174.5H246.807V151.227H250.057L261.898 168.318H262.114V151.227H265.591ZM275.52 174.886C274.414 174.886 273.414 174.682 272.52 174.273C271.626 173.856 270.918 173.254 270.395 172.466C269.88 171.678 269.622 170.712 269.622 169.568C269.622 168.583 269.812 167.773 270.19 167.136C270.569 166.5 271.08 165.996 271.724 165.625C272.368 165.254 273.088 164.973 273.884 164.784C274.679 164.595 275.49 164.451 276.315 164.352C277.361 164.231 278.209 164.133 278.861 164.057C279.512 163.973 279.986 163.841 280.281 163.659C280.577 163.477 280.724 163.182 280.724 162.773V162.693C280.724 161.701 280.444 160.932 279.884 160.386C279.33 159.841 278.505 159.568 277.406 159.568C276.262 159.568 275.361 159.822 274.702 160.33C274.05 160.83 273.599 161.386 273.349 162L270.156 161.273C270.535 160.212 271.088 159.356 271.815 158.705C272.55 158.045 273.395 157.568 274.349 157.273C275.304 156.97 276.308 156.818 277.361 156.818C278.058 156.818 278.796 156.902 279.577 157.068C280.365 157.227 281.099 157.523 281.781 157.955C282.471 158.386 283.035 159.004 283.474 159.807C283.914 160.602 284.134 161.636 284.134 162.909V174.5H280.815V172.114H280.679C280.459 172.553 280.13 172.985 279.69 173.409C279.251 173.833 278.687 174.186 277.997 174.466C277.308 174.746 276.482 174.886 275.52 174.886ZM276.259 172.159C277.198 172.159 278.001 171.973 278.668 171.602C279.342 171.231 279.853 170.746 280.202 170.148C280.558 169.542 280.736 168.894 280.736 168.205V165.955C280.615 166.076 280.38 166.189 280.031 166.295C279.69 166.394 279.3 166.481 278.861 166.557C278.421 166.625 277.993 166.689 277.577 166.75C277.16 166.803 276.812 166.848 276.531 166.886C275.872 166.97 275.27 167.11 274.724 167.307C274.187 167.504 273.755 167.788 273.429 168.159C273.111 168.523 272.952 169.008 272.952 169.614C272.952 170.455 273.262 171.091 273.884 171.523C274.505 171.947 275.296 172.159 276.259 172.159ZM302.966 157.045L296.636 174.5H293L286.659 157.045H290.307L294.727 170.477H294.909L299.318 157.045H302.966Z" fill="#292929"/>
<path d="M200.009 229.227C199.092 229.227 198.255 229.004 197.497 228.557C196.74 228.102 196.134 227.496 195.679 226.739C195.232 225.981 195.009 225.144 195.009 224.227C195.009 223.303 195.232 222.466 195.679 221.716C196.134 220.958 196.74 220.356 197.497 219.909C198.255 219.455 199.092 219.227 200.009 219.227C200.933 219.227 201.77 219.455 202.52 219.909C203.277 220.356 203.88 220.958 204.327 221.716C204.781 222.466 205.009 223.303 205.009 224.227C205.009 225.144 204.781 225.981 204.327 226.739C203.88 227.496 203.277 228.102 202.52 228.557C201.77 229.004 200.933 229.227 200.009 229.227ZM229.682 210.227V233.5H226.284V210.227H229.682ZM234.253 233.5V216.045H237.651V233.5H234.253ZM235.969 213.352C235.378 213.352 234.87 213.155 234.446 212.761C234.029 212.36 233.821 211.883 233.821 211.33C233.821 210.769 234.029 210.292 234.446 209.898C234.87 209.496 235.378 209.295 235.969 209.295C236.56 209.295 237.063 209.496 237.48 209.898C237.904 210.292 238.116 210.769 238.116 211.33C238.116 211.883 237.904 212.36 237.48 212.761C237.063 213.155 236.56 213.352 235.969 213.352ZM255.301 220.307L252.222 220.852C252.093 220.458 251.888 220.083 251.608 219.727C251.335 219.371 250.964 219.08 250.494 218.852C250.025 218.625 249.438 218.511 248.733 218.511C247.771 218.511 246.968 218.727 246.324 219.159C245.68 219.583 245.358 220.133 245.358 220.807C245.358 221.39 245.574 221.86 246.006 222.216C246.438 222.572 247.134 222.864 248.097 223.091L250.869 223.727C252.475 224.098 253.672 224.67 254.46 225.443C255.248 226.216 255.642 227.22 255.642 228.455C255.642 229.5 255.339 230.432 254.733 231.25C254.134 232.061 253.297 232.697 252.222 233.159C251.153 233.621 249.915 233.852 248.506 233.852C246.551 233.852 244.956 233.436 243.722 232.602C242.487 231.761 241.729 230.568 241.449 229.023L244.733 228.523C244.938 229.379 245.358 230.027 245.994 230.466C246.631 230.898 247.46 231.114 248.483 231.114C249.597 231.114 250.487 230.883 251.153 230.42C251.82 229.951 252.153 229.379 252.153 228.705C252.153 228.159 251.949 227.701 251.54 227.33C251.138 226.958 250.521 226.678 249.688 226.489L246.733 225.841C245.104 225.47 243.9 224.879 243.119 224.068C242.347 223.258 241.96 222.231 241.96 220.989C241.96 219.958 242.248 219.057 242.824 218.284C243.4 217.511 244.195 216.909 245.21 216.477C246.225 216.038 247.388 215.818 248.699 215.818C250.585 215.818 252.07 216.227 253.153 217.045C254.237 217.856 254.953 218.943 255.301 220.307ZM267.526 216.045V218.773H257.991V216.045H267.526ZM260.548 211.864H263.946V228.375C263.946 229.034 264.045 229.53 264.241 229.864C264.438 230.189 264.692 230.413 265.003 230.534C265.321 230.648 265.666 230.705 266.037 230.705C266.31 230.705 266.548 230.686 266.753 230.648C266.957 230.61 267.116 230.58 267.23 230.557L267.844 233.364C267.647 233.439 267.366 233.515 267.003 233.591C266.639 233.674 266.185 233.72 265.639 233.727C264.745 233.742 263.912 233.583 263.139 233.25C262.366 232.917 261.741 232.402 261.264 231.705C260.787 231.008 260.548 230.133 260.548 229.08V211.864Z" fill="#292929"/>
<path d="M200.009 288.227C199.092 288.227 198.255 288.004 197.497 287.557C196.74 287.102 196.134 286.496 195.679 285.739C195.232 284.981 195.009 284.144 195.009 283.227C195.009 282.303 195.232 281.466 195.679 280.716C196.134 279.958 196.74 279.356 197.497 278.909C198.255 278.455 199.092 278.227 200.009 278.227C200.933 278.227 201.77 278.455 202.52 278.909C203.277 279.356 203.88 279.958 204.327 280.716C204.781 281.466 205.009 282.303 205.009 283.227C205.009 284.144 204.781 284.981 204.327 285.739C203.88 286.496 203.277 287.102 202.52 287.557C201.77 288.004 200.933 288.227 200.009 288.227ZM229.682 269.227V292.5H226.284V269.227H229.682ZM234.253 292.5V275.045H237.651V292.5H234.253ZM235.969 272.352C235.378 272.352 234.87 272.155 234.446 271.761C234.029 271.36 233.821 270.883 233.821 270.33C233.821 269.769 234.029 269.292 234.446 268.898C234.87 268.496 235.378 268.295 235.969 268.295C236.56 268.295 237.063 268.496 237.48 268.898C237.904 269.292 238.116 269.769 238.116 270.33C238.116 270.883 237.904 271.36 237.48 271.761C237.063 272.155 236.56 272.352 235.969 272.352ZM255.301 279.307L252.222 279.852C252.093 279.458 251.888 279.083 251.608 278.727C251.335 278.371 250.964 278.08 250.494 277.852C250.025 277.625 249.438 277.511 248.733 277.511C247.771 277.511 246.968 277.727 246.324 278.159C245.68 278.583 245.358 279.133 245.358 279.807C245.358 280.39 245.574 280.86 246.006 281.216C246.438 281.572 247.134 281.864 248.097 282.091L250.869 282.727C252.475 283.098 253.672 283.67 254.46 284.443C255.248 285.216 255.642 286.22 255.642 287.455C255.642 288.5 255.339 289.432 254.733 290.25C254.134 291.061 253.297 291.697 252.222 292.159C251.153 292.621 249.915 292.852 248.506 292.852C246.551 292.852 244.956 292.436 243.722 291.602C242.487 290.761 241.729 289.568 241.449 288.023L244.733 287.523C244.938 288.379 245.358 289.027 245.994 289.466C246.631 289.898 247.46 290.114 248.483 290.114C249.597 290.114 250.487 289.883 251.153 289.42C251.82 288.951 252.153 288.379 252.153 287.705C252.153 287.159 251.949 286.701 251.54 286.33C251.138 285.958 250.521 285.678 249.688 285.489L246.733 284.841C245.104 284.47 243.9 283.879 243.119 283.068C242.347 282.258 241.96 281.231 241.96 279.989C241.96 278.958 242.248 278.057 242.824 277.284C243.4 276.511 244.195 275.909 245.21 275.477C246.225 275.038 247.388 274.818 248.699 274.818C250.585 274.818 252.07 275.227 253.153 276.045C254.237 276.856 254.953 277.943 255.301 279.307ZM267.526 275.045V277.773H257.991V275.045H267.526ZM260.548 270.864H263.946V287.375C263.946 288.034 264.045 288.53 264.241 288.864C264.438 289.189 264.692 289.413 265.003 289.534C265.321 289.648 265.666 289.705 266.037 289.705C266.31 289.705 266.548 289.686 266.753 289.648C266.957 289.61 267.116 289.58 267.23 289.557L267.844 292.364C267.647 292.439 267.366 292.515 267.003 292.591C266.639 292.674 266.185 292.72 265.639 292.727C264.745 292.742 263.912 292.583 263.139 292.25C262.366 291.917 261.741 291.402 261.264 290.705C260.787 290.008 260.548 289.133 260.548 288.08V270.864Z" fill="#292929"/>
<path d="M200.009 347.227C199.092 347.227 198.255 347.004 197.497 346.557C196.74 346.102 196.134 345.496 195.679 344.739C195.232 343.981 195.009 343.144 195.009 342.227C195.009 341.303 195.232 340.466 195.679 339.716C196.134 338.958 196.74 338.356 197.497 337.909C198.255 337.455 199.092 337.227 200.009 337.227C200.933 337.227 201.77 337.455 202.52 337.909C203.277 338.356 203.88 338.958 204.327 339.716C204.781 340.466 205.009 341.303 205.009 342.227C205.009 343.144 204.781 343.981 204.327 344.739C203.88 345.496 203.277 346.102 202.52 346.557C201.77 347.004 200.933 347.227 200.009 347.227ZM229.682 328.227V351.5H226.284V328.227H229.682ZM234.253 351.5V334.045H237.651V351.5H234.253ZM235.969 331.352C235.378 331.352 234.87 331.155 234.446 330.761C234.029 330.36 233.821 329.883 233.821 329.33C233.821 328.769 234.029 328.292 234.446 327.898C234.87 327.496 235.378 327.295 235.969 327.295C236.56 327.295 237.063 327.496 237.48 327.898C237.904 328.292 238.116 328.769 238.116 329.33C238.116 329.883 237.904 330.36 237.48 330.761C237.063 331.155 236.56 331.352 235.969 331.352ZM255.301 338.307L252.222 338.852C252.093 338.458 251.888 338.083 251.608 337.727C251.335 337.371 250.964 337.08 250.494 336.852C250.025 336.625 249.438 336.511 248.733 336.511C247.771 336.511 246.968 336.727 246.324 337.159C245.68 337.583 245.358 338.133 245.358 338.807C245.358 339.39 245.574 339.86 246.006 340.216C246.438 340.572 247.134 340.864 248.097 341.091L250.869 341.727C252.475 342.098 253.672 342.67 254.46 343.443C255.248 344.216 255.642 345.22 255.642 346.455C255.642 347.5 255.339 348.432 254.733 349.25C254.134 350.061 253.297 350.697 252.222 351.159C251.153 351.621 249.915 351.852 248.506 351.852C246.551 351.852 244.956 351.436 243.722 350.602C242.487 349.761 241.729 348.568 241.449 347.023L244.733 346.523C244.938 347.379 245.358 348.027 245.994 348.466C246.631 348.898 247.46 349.114 248.483 349.114C249.597 349.114 250.487 348.883 251.153 348.42C251.82 347.951 252.153 347.379 252.153 346.705C252.153 346.159 251.949 345.701 251.54 345.33C251.138 344.958 250.521 344.678 249.688 344.489L246.733 343.841C245.104 343.47 243.9 342.879 243.119 342.068C242.347 341.258 241.96 340.231 241.96 338.989C241.96 337.958 242.248 337.057 242.824 336.284C243.4 335.511 244.195 334.909 245.21 334.477C246.225 334.038 247.388 333.818 248.699 333.818C250.585 333.818 252.07 334.227 253.153 335.045C254.237 335.856 254.953 336.943 255.301 338.307ZM267.526 334.045V336.773H257.991V334.045H267.526ZM260.548 329.864H263.946V346.375C263.946 347.034 264.045 347.53 264.241 347.864C264.438 348.189 264.692 348.413 265.003 348.534C265.321 348.648 265.666 348.705 266.037 348.705C266.31 348.705 266.548 348.686 266.753 348.648C266.957 348.61 267.116 348.58 267.23 348.557L267.844 351.364C267.647 351.439 267.366 351.515 267.003 351.591C266.639 351.674 266.185 351.72 265.639 351.727C264.745 351.742 263.912 351.583 263.139 351.25C262.366 350.917 261.741 350.402 261.264 349.705C260.787 349.008 260.548 348.133 260.548 347.08V329.864Z" fill="#292929"/>
<path d="M200.009 406.227C199.092 406.227 198.255 406.004 197.497 405.557C196.74 405.102 196.134 404.496 195.679 403.739C195.232 402.981 195.009 402.144 195.009 401.227C195.009 400.303 195.232 399.466 195.679 398.716C196.134 397.958 196.74 397.356 197.497 396.909C198.255 396.455 199.092 396.227 200.009 396.227C200.933 396.227 201.77 396.455 202.52 396.909C203.277 397.356 203.88 397.958 204.327 398.716C204.781 399.466 205.009 400.303 205.009 401.227C205.009 402.144 204.781 402.981 204.327 403.739C203.88 404.496 203.277 405.102 202.52 405.557C201.77 406.004 200.933 406.227 200.009 406.227ZM229.682 387.227V410.5H226.284V387.227H229.682ZM234.253 410.5V393.045H237.651V410.5H234.253ZM235.969 390.352C235.378 390.352 234.87 390.155 234.446 389.761C234.029 389.36 233.821 388.883 233.821 388.33C233.821 387.769 234.029 387.292 234.446 386.898C234.87 386.496 235.378 386.295 235.969 386.295C236.56 386.295 237.063 386.496 237.48 386.898C237.904 387.292 238.116 387.769 238.116 388.33C238.116 388.883 237.904 389.36 237.48 389.761C237.063 390.155 236.56 390.352 235.969 390.352ZM255.301 397.307L252.222 397.852C252.093 397.458 251.888 397.083 251.608 396.727C251.335 396.371 250.964 396.08 250.494 395.852C250.025 395.625 249.438 395.511 248.733 395.511C247.771 395.511 246.968 395.727 246.324 396.159C245.68 396.583 245.358 397.133 245.358 397.807C245.358 398.39 245.574 398.86 246.006 399.216C246.438 399.572 247.134 399.864 248.097 400.091L250.869 400.727C252.475 401.098 253.672 401.67 254.46 402.443C255.248 403.216 255.642 404.22 255.642 405.455C255.642 406.5 255.339 407.432 254.733 408.25C254.134 409.061 253.297 409.697 252.222 410.159C251.153 410.621 249.915 410.852 248.506 410.852C246.551 410.852 244.956 410.436 243.722 409.602C242.487 408.761 241.729 407.568 241.449 406.023L244.733 405.523C244.938 406.379 245.358 407.027 245.994 407.466C246.631 407.898 247.46 408.114 248.483 408.114C249.597 408.114 250.487 407.883 251.153 407.42C251.82 406.951 252.153 406.379 252.153 405.705C252.153 405.159 251.949 404.701 251.54 404.33C251.138 403.958 250.521 403.678 249.688 403.489L246.733 402.841C245.104 402.47 243.9 401.879 243.119 401.068C242.347 400.258 241.96 399.231 241.96 397.989C241.96 396.958 242.248 396.057 242.824 395.284C243.4 394.511 244.195 393.909 245.21 393.477C246.225 393.038 247.388 392.818 248.699 392.818C250.585 392.818 252.07 393.227 253.153 394.045C254.237 394.856 254.953 395.943 255.301 397.307ZM267.526 393.045V395.773H257.991V393.045H267.526ZM260.548 388.864H263.946V405.375C263.946 406.034 264.045 406.53 264.241 406.864C264.438 407.189 264.692 407.413 265.003 407.534C265.321 407.648 265.666 407.705 266.037 407.705C266.31 407.705 266.548 407.686 266.753 407.648C266.957 407.61 267.116 407.58 267.23 407.557L267.844 410.364C267.647 410.439 267.366 410.515 267.003 410.591C266.639 410.674 266.185 410.72 265.639 410.727C264.745 410.742 263.912 410.583 263.139 410.25C262.366 409.917 261.741 409.402 261.264 408.705C260.787 408.008 260.548 407.133 260.548 406.08V388.864Z" fill="#292929"/>
</g>
<g filter="url(#filter2_d_1333_1032)">
<path d="M160 473C160 464.163 167.163 457 176 457H424C432.837 457 440 464.163 440 473V496C440 504.837 432.837 512 424 512H176C167.163 512 160 504.837 160 496V473Z" fill="white" shape-rendering="crispEdges"/>
<path d="M191.375 478.841C191.254 477.765 190.754 476.932 189.875 476.341C188.996 475.742 187.89 475.443 186.557 475.443C185.602 475.443 184.777 475.595 184.08 475.898C183.383 476.193 182.841 476.602 182.455 477.125C182.076 477.64 181.886 478.227 181.886 478.886C181.886 479.439 182.015 479.917 182.273 480.318C182.538 480.72 182.883 481.057 183.307 481.33C183.739 481.595 184.201 481.818 184.693 482C185.186 482.174 185.659 482.318 186.114 482.432L188.386 483.023C189.129 483.205 189.89 483.451 190.67 483.761C191.451 484.072 192.174 484.481 192.841 484.989C193.508 485.496 194.045 486.125 194.455 486.875C194.871 487.625 195.08 488.523 195.08 489.568C195.08 490.886 194.739 492.057 194.057 493.08C193.383 494.102 192.402 494.909 191.114 495.5C189.833 496.091 188.284 496.386 186.466 496.386C184.723 496.386 183.216 496.11 181.943 495.557C180.67 495.004 179.674 494.22 178.955 493.205C178.235 492.182 177.837 490.97 177.761 489.568H181.284C181.352 490.409 181.625 491.11 182.102 491.67C182.587 492.223 183.205 492.636 183.955 492.909C184.712 493.174 185.542 493.307 186.443 493.307C187.436 493.307 188.318 493.152 189.091 492.841C189.871 492.523 190.485 492.083 190.932 491.523C191.379 490.955 191.602 490.292 191.602 489.534C191.602 488.845 191.405 488.28 191.011 487.841C190.625 487.402 190.098 487.038 189.432 486.75C188.773 486.462 188.027 486.208 187.193 485.989L184.443 485.239C182.58 484.731 181.102 483.985 180.011 483C178.928 482.015 178.386 480.712 178.386 479.091C178.386 477.75 178.75 476.58 179.477 475.58C180.205 474.58 181.189 473.803 182.432 473.25C183.674 472.689 185.076 472.409 186.636 472.409C188.212 472.409 189.602 472.686 190.807 473.239C192.019 473.792 192.973 474.553 193.67 475.523C194.367 476.485 194.731 477.591 194.761 478.841H191.375ZM210.06 488.761V478.545H213.469V496H210.128V492.977H209.946C209.545 493.909 208.901 494.686 208.014 495.307C207.135 495.92 206.041 496.227 204.73 496.227C203.609 496.227 202.616 495.981 201.753 495.489C200.897 494.989 200.223 494.25 199.73 493.273C199.245 492.295 199.003 491.087 199.003 489.648V478.545H202.401V489.239C202.401 490.428 202.73 491.375 203.389 492.08C204.048 492.784 204.904 493.136 205.957 493.136C206.594 493.136 207.226 492.977 207.855 492.659C208.491 492.341 209.018 491.86 209.435 491.216C209.859 490.572 210.067 489.754 210.06 488.761ZM218.307 496V472.727H221.705V481.375H221.909C222.106 481.011 222.39 480.591 222.761 480.114C223.133 479.636 223.648 479.22 224.307 478.864C224.966 478.5 225.837 478.318 226.92 478.318C228.33 478.318 229.587 478.674 230.693 479.386C231.799 480.098 232.667 481.125 233.295 482.466C233.932 483.807 234.25 485.42 234.25 487.307C234.25 489.193 233.936 490.811 233.307 492.159C232.678 493.5 231.814 494.534 230.716 495.261C229.617 495.981 228.364 496.341 226.955 496.341C225.894 496.341 225.027 496.163 224.352 495.807C223.686 495.451 223.163 495.034 222.784 494.557C222.405 494.08 222.114 493.655 221.909 493.284H221.625V496H218.307ZM221.636 487.273C221.636 488.5 221.814 489.576 222.17 490.5C222.527 491.424 223.042 492.148 223.716 492.67C224.39 493.186 225.216 493.443 226.193 493.443C227.208 493.443 228.057 493.174 228.739 492.636C229.42 492.091 229.936 491.352 230.284 490.42C230.64 489.489 230.818 488.439 230.818 487.273C230.818 486.121 230.644 485.087 230.295 484.17C229.955 483.254 229.439 482.53 228.75 482C228.068 481.47 227.216 481.205 226.193 481.205C225.208 481.205 224.375 481.458 223.693 481.966C223.019 482.473 222.508 483.182 222.159 484.091C221.811 485 221.636 486.061 221.636 487.273ZM265.591 472.727V496H262.364L250.534 478.932H250.318V496H246.807V472.727H250.057L261.898 489.818H262.114V472.727H265.591ZM275.52 496.386C274.414 496.386 273.414 496.182 272.52 495.773C271.626 495.356 270.918 494.754 270.395 493.966C269.88 493.178 269.622 492.212 269.622 491.068C269.622 490.083 269.812 489.273 270.19 488.636C270.569 488 271.08 487.496 271.724 487.125C272.368 486.754 273.088 486.473 273.884 486.284C274.679 486.095 275.49 485.951 276.315 485.852C277.361 485.731 278.209 485.633 278.861 485.557C279.512 485.473 279.986 485.341 280.281 485.159C280.577 484.977 280.724 484.682 280.724 484.273V484.193C280.724 483.201 280.444 482.432 279.884 481.886C279.33 481.341 278.505 481.068 277.406 481.068C276.262 481.068 275.361 481.322 274.702 481.83C274.05 482.33 273.599 482.886 273.349 483.5L270.156 482.773C270.535 481.712 271.088 480.856 271.815 480.205C272.55 479.545 273.395 479.068 274.349 478.773C275.304 478.47 276.308 478.318 277.361 478.318C278.058 478.318 278.796 478.402 279.577 478.568C280.365 478.727 281.099 479.023 281.781 479.455C282.471 479.886 283.035 480.504 283.474 481.307C283.914 482.102 284.134 483.136 284.134 484.409V496H280.815V493.614H280.679C280.459 494.053 280.13 494.485 279.69 494.909C279.251 495.333 278.687 495.686 277.997 495.966C277.308 496.246 276.482 496.386 275.52 496.386ZM276.259 493.659C277.198 493.659 278.001 493.473 278.668 493.102C279.342 492.731 279.853 492.246 280.202 491.648C280.558 491.042 280.736 490.394 280.736 489.705V487.455C280.615 487.576 280.38 487.689 280.031 487.795C279.69 487.894 279.3 487.981 278.861 488.057C278.421 488.125 277.993 488.189 277.577 488.25C277.16 488.303 276.812 488.348 276.531 488.386C275.872 488.47 275.27 488.61 274.724 488.807C274.187 489.004 273.755 489.288 273.429 489.659C273.111 490.023 272.952 490.508 272.952 491.114C272.952 491.955 273.262 492.591 273.884 493.023C274.505 493.447 275.296 493.659 276.259 493.659ZM302.966 478.545L296.636 496H293L286.659 478.545H290.307L294.727 491.977H294.909L299.318 478.545H302.966Z" fill="#292929"/>
</g>
<g filter="url(#filter3_d_1333_1032)">
<path d="M476 66C476 57.1634 483.163 50 492 50H1336C1344.84 50 1352 57.1634 1352 66V834C1352 842.837 1344.84 850 1336 850H492C483.163 850 476 842.837 476 834V66Z" fill="white" shape-rendering="crispEdges"/>
<path d="M816.26 438.227H820.521L827.93 456.318H828.203L835.612 438.227H839.874V461.5H836.533V444.659H836.317L829.453 461.466H826.68L819.817 444.648H819.601V461.5H816.26V438.227ZM849.786 461.886C848.679 461.886 847.679 461.682 846.786 461.273C845.892 460.856 845.183 460.254 844.661 459.466C844.145 458.678 843.888 457.712 843.888 456.568C843.888 455.583 844.077 454.773 844.456 454.136C844.835 453.5 845.346 452.996 845.99 452.625C846.634 452.254 847.354 451.973 848.149 451.784C848.945 451.595 849.755 451.451 850.581 451.352C851.626 451.231 852.475 451.133 853.126 451.057C853.778 450.973 854.251 450.841 854.547 450.659C854.842 450.477 854.99 450.182 854.99 449.773V449.693C854.99 448.701 854.71 447.932 854.149 447.386C853.596 446.841 852.77 446.568 851.672 446.568C850.528 446.568 849.626 446.822 848.967 447.33C848.316 447.83 847.865 448.386 847.615 449L844.422 448.273C844.801 447.212 845.354 446.356 846.081 445.705C846.816 445.045 847.661 444.568 848.615 444.273C849.57 443.97 850.573 443.818 851.626 443.818C852.323 443.818 853.062 443.902 853.842 444.068C854.63 444.227 855.365 444.523 856.047 444.955C856.736 445.386 857.301 446.004 857.74 446.807C858.179 447.602 858.399 448.636 858.399 449.909V461.5H855.081V459.114H854.945C854.725 459.553 854.395 459.985 853.956 460.409C853.517 460.833 852.952 461.186 852.263 461.466C851.573 461.746 850.748 461.886 849.786 461.886ZM850.524 459.159C851.464 459.159 852.267 458.973 852.933 458.602C853.607 458.231 854.119 457.746 854.467 457.148C854.823 456.542 855.001 455.894 855.001 455.205V452.955C854.88 453.076 854.645 453.189 854.297 453.295C853.956 453.394 853.566 453.481 853.126 453.557C852.687 453.625 852.259 453.689 851.842 453.75C851.426 453.803 851.077 453.848 850.797 453.886C850.138 453.97 849.536 454.11 848.99 454.307C848.452 454.504 848.02 454.788 847.695 455.159C847.376 455.523 847.217 456.008 847.217 456.614C847.217 457.455 847.528 458.091 848.149 458.523C848.77 458.947 849.562 459.159 850.524 459.159ZM862.925 461.5V444.045H866.322V461.5H862.925ZM864.641 441.352C864.05 441.352 863.542 441.155 863.118 440.761C862.701 440.36 862.493 439.883 862.493 439.33C862.493 438.769 862.701 438.292 863.118 437.898C863.542 437.496 864.05 437.295 864.641 437.295C865.232 437.295 865.735 437.496 866.152 437.898C866.576 438.292 866.788 438.769 866.788 439.33C866.788 439.883 866.576 440.36 866.152 440.761C865.735 441.155 865.232 441.352 864.641 441.352ZM874.291 451.136V461.5H870.893V444.045H874.155V446.886H874.371C874.772 445.962 875.401 445.22 876.257 444.659C877.121 444.098 878.208 443.818 879.518 443.818C880.708 443.818 881.75 444.068 882.643 444.568C883.537 445.061 884.231 445.795 884.723 446.773C885.215 447.75 885.462 448.958 885.462 450.398V461.5H882.064V450.807C882.064 449.542 881.734 448.553 881.075 447.841C880.416 447.121 879.511 446.761 878.359 446.761C877.571 446.761 876.871 446.932 876.257 447.273C875.651 447.614 875.17 448.114 874.814 448.773C874.465 449.424 874.291 450.212 874.291 451.136ZM905.839 461.852C904.15 461.852 902.696 461.47 901.476 460.705C900.264 459.932 899.332 458.867 898.68 457.511C898.029 456.155 897.703 454.602 897.703 452.852C897.703 451.08 898.036 449.515 898.703 448.159C899.37 446.795 900.309 445.731 901.521 444.966C902.733 444.201 904.161 443.818 905.805 443.818C907.131 443.818 908.313 444.064 909.351 444.557C910.389 445.042 911.226 445.723 911.862 446.602C912.506 447.481 912.889 448.508 913.01 449.682H909.703C909.521 448.864 909.105 448.159 908.453 447.568C907.809 446.977 906.946 446.682 905.862 446.682C904.915 446.682 904.086 446.932 903.374 447.432C902.669 447.924 902.12 448.629 901.726 449.545C901.332 450.455 901.135 451.53 901.135 452.773C901.135 454.045 901.328 455.144 901.714 456.068C902.101 456.992 902.646 457.708 903.351 458.216C904.063 458.723 904.9 458.977 905.862 458.977C906.506 458.977 907.089 458.86 907.612 458.625C908.143 458.383 908.586 458.038 908.942 457.591C909.305 457.144 909.559 456.606 909.703 455.977H913.01C912.889 457.106 912.521 458.114 911.908 459C911.294 459.886 910.472 460.583 909.442 461.091C908.419 461.598 907.218 461.852 905.839 461.852ZM923.996 461.852C922.359 461.852 920.931 461.477 919.712 460.727C918.492 459.977 917.545 458.928 916.871 457.58C916.196 456.231 915.859 454.655 915.859 452.852C915.859 451.042 916.196 449.458 916.871 448.102C917.545 446.746 918.492 445.693 919.712 444.943C920.931 444.193 922.359 443.818 923.996 443.818C925.632 443.818 927.06 444.193 928.28 444.943C929.5 445.693 930.446 446.746 931.121 448.102C931.795 449.458 932.132 451.042 932.132 452.852C932.132 454.655 931.795 456.231 931.121 457.58C930.446 458.928 929.5 459.977 928.28 460.727C927.06 461.477 925.632 461.852 923.996 461.852ZM924.007 459C925.068 459 925.946 458.72 926.643 458.159C927.34 457.598 927.856 456.852 928.189 455.92C928.53 454.989 928.7 453.962 928.7 452.841C928.7 451.727 928.53 450.705 928.189 449.773C927.856 448.833 927.34 448.08 926.643 447.511C925.946 446.943 925.068 446.659 924.007 446.659C922.939 446.659 922.053 446.943 921.348 447.511C920.651 448.08 920.132 448.833 919.791 449.773C919.458 450.705 919.291 451.727 919.291 452.841C919.291 453.962 919.458 454.989 919.791 455.92C920.132 456.852 920.651 457.598 921.348 458.159C922.053 458.72 922.939 459 924.007 459ZM939.322 451.136V461.5H935.925V444.045H939.186V446.886H939.402C939.804 445.962 940.432 445.22 941.288 444.659C942.152 444.098 943.239 443.818 944.55 443.818C945.739 443.818 946.781 444.068 947.675 444.568C948.569 445.061 949.262 445.795 949.754 446.773C950.247 447.75 950.493 448.958 950.493 450.398V461.5H947.095V450.807C947.095 449.542 946.766 448.553 946.107 447.841C945.447 447.121 944.542 446.761 943.391 446.761C942.603 446.761 941.902 446.932 941.288 447.273C940.682 447.614 940.201 448.114 939.845 448.773C939.497 449.424 939.322 450.212 939.322 451.136ZM963.197 444.045V446.773H953.663V444.045H963.197ZM956.22 439.864H959.618V456.375C959.618 457.034 959.716 457.53 959.913 457.864C960.11 458.189 960.364 458.413 960.675 458.534C960.993 458.648 961.338 458.705 961.709 458.705C961.982 458.705 962.22 458.686 962.425 458.648C962.629 458.61 962.788 458.58 962.902 458.557L963.516 461.364C963.319 461.439 963.038 461.515 962.675 461.591C962.311 461.674 961.857 461.72 961.311 461.727C960.417 461.742 959.584 461.583 958.811 461.25C958.038 460.917 957.413 460.402 956.936 459.705C956.459 459.008 956.22 458.133 956.22 457.08V439.864ZM974.291 461.852C972.571 461.852 971.09 461.485 969.848 460.75C968.613 460.008 967.659 458.966 966.984 457.625C966.318 456.277 965.984 454.697 965.984 452.886C965.984 451.098 966.318 449.523 966.984 448.159C967.659 446.795 968.598 445.731 969.803 444.966C971.015 444.201 972.431 443.818 974.053 443.818C975.037 443.818 975.992 443.981 976.916 444.307C977.84 444.633 978.67 445.144 979.405 445.841C980.14 446.538 980.719 447.443 981.143 448.557C981.568 449.663 981.78 451.008 981.78 452.591V453.795H967.905V451.25H978.45C978.45 450.356 978.268 449.564 977.905 448.875C977.541 448.178 977.03 447.629 976.371 447.227C975.719 446.826 974.954 446.625 974.075 446.625C973.121 446.625 972.287 446.86 971.575 447.33C970.871 447.792 970.325 448.398 969.939 449.148C969.56 449.89 969.371 450.697 969.371 451.568V453.557C969.371 454.723 969.575 455.716 969.984 456.534C970.401 457.352 970.981 457.977 971.723 458.409C972.465 458.833 973.333 459.045 974.325 459.045C974.969 459.045 975.556 458.955 976.087 458.773C976.617 458.583 977.075 458.303 977.462 457.932C977.848 457.561 978.143 457.102 978.348 456.557L981.564 457.136C981.306 458.083 980.844 458.913 980.178 459.625C979.518 460.33 978.689 460.879 977.689 461.273C976.696 461.659 975.564 461.852 974.291 461.852ZM988.947 451.136V461.5H985.55V444.045H988.811V446.886H989.027C989.429 445.962 990.057 445.22 990.913 444.659C991.777 444.098 992.864 443.818 994.175 443.818C995.364 443.818 996.406 444.068 997.3 444.568C998.194 445.061 998.887 445.795 999.379 446.773C999.872 447.75 1000.12 448.958 1000.12 450.398V461.5H996.72V450.807C996.72 449.542 996.391 448.553 995.732 447.841C995.072 447.121 994.167 446.761 993.016 446.761C992.228 446.761 991.527 446.932 990.913 447.273C990.307 447.614 989.826 448.114 989.47 448.773C989.122 449.424 988.947 450.212 988.947 451.136ZM1012.82 444.045V446.773H1003.29V444.045H1012.82ZM1005.85 439.864H1009.24V456.375C1009.24 457.034 1009.34 457.53 1009.54 457.864C1009.74 458.189 1009.99 458.413 1010.3 458.534C1010.62 458.648 1010.96 458.705 1011.33 458.705C1011.61 458.705 1011.85 458.686 1012.05 458.648C1012.25 458.61 1012.41 458.58 1012.53 458.557L1013.14 461.364C1012.94 461.439 1012.66 461.515 1012.3 461.591C1011.94 461.674 1011.48 461.72 1010.94 461.727C1010.04 461.742 1009.21 461.583 1008.44 461.25C1007.66 460.917 1007.04 460.402 1006.56 459.705C1006.08 459.008 1005.85 458.133 1005.85 457.08V439.864Z" fill="#292929"/>
</g>
</g>
<defs>
<filter id="filter0_d_1333_1032" x="156" y="50" width="296" height="71" filterUnits="userSpaceOnUse" color-interpolation-filters="sRGB">
<feFlood flood-opacity="0" result="BackgroundImageFix"/>
<feColorMatrix in="SourceAlpha" type="matrix" values="0 0 0 0 0 0 0 0 0 0 0 0 0 0 0 0 0 0 127 0" result="hardAlpha"/>
<feOffset dx="4" dy="8"/>
<feGaussianBlur stdDeviation="4"/>
<feComposite in2="hardAlpha" operator="out"/>
<feColorMatrix type="matrix" values="0 0 0 0 0.709896 0 0 0 0 0.722551 0 0 0 0 0.725 0 0 0 0.25 0"/>
<feBlend mode="normal" in2="BackgroundImageFix" result="effect1_dropShadow_1333_1032"/>
<feBlend mode="normal" in="SourceGraphic" in2="effect1_dropShadow_1333_1032" result="shape"/>
</filter>
<filter id="filter1_d_1333_1032" x="156" y="141" width="296" height="296" filterUnits="userSpaceOnUse" color-interpolation-filters="sRGB">
<feFlood flood-opacity="0" result="BackgroundImageFix"/>
<feColorMatrix in="SourceAlpha" type="matrix" values="0 0 0 0 0 0 0 0 0 0 0 0 0 0 0 0 0 0 127 0" result="hardAlpha"/>
<feOffset dx="4" dy="8"/>
<feGaussianBlur stdDeviation="4"/>
<feComposite in2="hardAlpha" operator="out"/>
<feColorMatrix type="matrix" values="0 0 0 0 0.709896 0 0 0 0 0.722551 0 0 0 0 0.725 0 0 0 0.25 0"/>
<feBlend mode="normal" in2="BackgroundImageFix" result="effect1_dropShadow_1333_1032"/>
<feBlend mode="normal" in="SourceGraphic" in2="effect1_dropShadow_1333_1032" result="shape"/>
</filter>
<filter id="filter2_d_1333_1032" x="156" y="457" width="296" height="71" filterUnits="userSpaceOnUse" color-interpolation-filters="sRGB">
<feFlood flood-opacity="0" result="BackgroundImageFix"/>
<feColorMatrix in="SourceAlpha" type="matrix" values="0 0 0 0 0 0 0 0 0 0 0 0 0 0 0 0 0 0 127 0" result="hardAlpha"/>
<feOffset dx="4" dy="8"/>
<feGaussianBlur stdDeviation="4"/>
<feComposite in2="hardAlpha" operator="out"/>
<feColorMatrix type="matrix" values="0 0 0 0 0.709896 0 0 0 0 0.722551 0 0 0 0 0.725 0 0 0 0.25 0"/>
<feBlend mode="normal" in2="BackgroundImageFix" result="effect1_dropShadow_1333_1032"/>
<feBlend mode="normal" in="SourceGraphic" in2="effect1_dropShadow_1333_1032" result="shape"/>
</filter>
<filter id="filter3_d_1333_1032" x="472" y="50" width="892" height="816" filterUnits="userSpaceOnUse" color-interpolation-filters="sRGB">
<feFlood flood-opacity="0" result="BackgroundImageFix"/>
<feColorMatrix in="SourceAlpha" type="matrix" values="0 0 0 0 0 0 0 0 0 0 0 0 0 0 0 0 0 0 127 0" result="hardAlpha"/>
<feOffset dx="4" dy="8"/>
<feGaussianBlur stdDeviation="4"/>
<feComposite in2="hardAlpha" operator="out"/>
<feColorMatrix type="matrix" values="0 0 0 0 0.709896 0 0 0 0 0.722551 0 0 0 0 0.725 0 0 0 0.25 0"/>
<feBlend mode="normal" in2="BackgroundImageFix" result="effect1_dropShadow_1333_1032"/>
<feBlend mode="normal" in="SourceGraphic" in2="effect1_dropShadow_1333_1032" result="shape"/>
</filter>
<clipPath id="clip0_1333_1032">
<path d="M0 16C0 7.16346 7.16344 0 16 0H1496C1504.84 0 1512 7.16344 1512 16V900H0V16Z" fill="white"/>
</clipPath>
</defs>
</svg>
