<svg width="876" height="293" viewBox="0 0 876 293" fill="none" xmlns="http://www.w3.org/2000/svg">
<rect width="876" height="293" rx="32" fill="white" fill-opacity="0.6"/>
<path d="M217.655 121.565L197.178 171.044H196.477L176 121.565H176.631C176.842 121.565 176.982 121.683 177.052 121.919L196.266 168.429C196.383 168.689 196.477 168.936 196.547 169.171C196.64 169.407 196.734 169.654 196.827 169.913C196.921 169.654 197.003 169.407 197.073 169.171C197.166 168.936 197.271 168.689 197.388 168.429L216.603 121.919C216.673 121.683 216.836 121.565 217.094 121.565H217.655ZM228.119 171.044H227.277V121.565H228.119V171.044ZM280.653 164.365C280.746 164.365 280.828 164.4 280.898 164.471L281.214 164.754C280.185 165.766 279.075 166.697 277.883 167.546C276.714 168.37 275.428 169.089 274.026 169.701C272.623 170.29 271.081 170.75 269.397 171.08C267.714 171.433 265.856 171.61 263.822 171.61C260.527 171.61 257.488 171.032 254.706 169.878C251.924 168.7 249.517 167.015 247.483 164.824C245.45 162.633 243.86 159.982 242.715 156.872C241.593 153.739 241.032 150.216 241.032 146.305C241.032 142.535 241.593 139.095 242.715 135.985C243.86 132.875 245.461 130.212 247.518 127.998C249.599 125.759 252.076 124.039 254.952 122.838C257.85 121.613 261.041 121 264.524 121C266.137 121 267.656 121.129 269.082 121.389C270.508 121.624 271.852 121.99 273.114 122.484C274.4 122.979 275.627 123.592 276.796 124.322C277.965 125.029 279.11 125.854 280.232 126.796L280.092 127.008C280.045 127.102 279.928 127.15 279.741 127.15C279.578 127.15 279.157 126.867 278.479 126.301C277.824 125.736 276.878 125.112 275.639 124.428C274.4 123.745 272.857 123.121 271.01 122.555C269.187 121.99 267.025 121.707 264.524 121.707C261.205 121.707 258.154 122.284 255.372 123.439C252.614 124.57 250.23 126.207 248.22 128.351C246.233 130.472 244.678 133.052 243.556 136.091C242.434 139.131 241.873 142.535 241.873 146.305C241.873 150.145 242.422 153.585 243.521 156.625C244.643 159.664 246.186 162.244 248.149 164.365C250.113 166.485 252.427 168.111 255.092 169.242C257.78 170.35 260.69 170.903 263.822 170.903C265.809 170.903 267.586 170.762 269.152 170.479C270.718 170.196 272.144 169.784 273.43 169.242C274.739 168.7 275.942 168.04 277.041 167.263C278.163 166.462 279.273 165.554 280.372 164.541C280.489 164.423 280.583 164.365 280.653 164.365ZM293.109 145.457H296.404C296.848 145.457 297.222 145.445 297.526 145.421C297.853 145.398 298.134 145.351 298.368 145.28C298.625 145.186 298.87 145.056 299.104 144.891C299.338 144.727 299.583 144.514 299.841 144.255L322.702 122.131C322.958 121.919 323.169 121.778 323.333 121.707C323.496 121.613 323.707 121.565 323.964 121.565H324.385L300.542 144.609C300.121 144.985 299.771 145.257 299.49 145.421C299.233 145.586 298.882 145.716 298.438 145.81C298.859 145.881 299.221 146.01 299.525 146.199C299.829 146.364 300.144 146.611 300.472 146.941L325.787 171.044H325.437C325.086 171.044 324.829 171.009 324.665 170.938C324.525 170.868 324.361 170.738 324.174 170.55L300.051 147.577C299.794 147.342 299.56 147.13 299.35 146.941C299.139 146.752 298.905 146.611 298.649 146.517C298.414 146.399 298.123 146.317 297.772 146.27C297.421 146.199 296.965 146.164 296.404 146.164H293.109V171.044H292.267V121.565H293.109V145.457ZM347.408 150.016V171.044H346.567V150.016L328.264 121.565H328.965C329.176 121.565 329.34 121.659 329.456 121.848L345.971 147.648C346.158 147.954 346.345 148.249 346.532 148.532C346.719 148.791 346.871 149.062 346.988 149.344C347.128 149.062 347.28 148.791 347.443 148.532C347.631 148.249 347.818 147.954 348.004 147.648L364.519 121.848C364.636 121.659 364.8 121.565 365.01 121.565H365.711L347.408 150.016ZM435.017 121.565L419.449 171.044H418.748L402.409 123.545C402.339 123.309 402.28 123.109 402.233 122.944C402.187 122.755 402.14 122.578 402.093 122.414C402.023 122.72 401.918 123.097 401.778 123.545L385.438 171.044H384.737L369.169 121.565H369.8C370.011 121.565 370.151 121.683 370.221 121.919L384.562 168.111C384.726 168.677 384.901 169.313 385.088 170.02C385.252 169.313 385.427 168.677 385.614 168.111L401.567 121.919C401.637 121.683 401.801 121.565 402.058 121.565H402.198C402.409 121.565 402.549 121.683 402.619 121.919L418.573 168.111C418.737 168.677 418.912 169.313 419.099 170.02C419.263 169.313 419.438 168.677 419.625 168.111L433.965 121.919C434.035 121.683 434.199 121.565 434.456 121.565H435.017ZM469.923 153.444L457.826 124.181C457.709 123.921 457.604 123.674 457.51 123.439C457.44 123.203 457.358 122.956 457.265 122.696C457.172 122.956 457.078 123.203 456.984 123.439C456.914 123.674 456.821 123.921 456.704 124.181L444.607 153.444H469.923ZM478.092 171.044H477.461C477.251 171.044 477.11 170.926 477.04 170.691L470.203 154.151H444.327L437.489 170.691C437.419 170.926 437.256 171.044 436.999 171.044H436.438L456.914 121.565H457.615L478.092 171.044ZM523.899 121.565V171.044H523.689C523.549 171.044 523.421 170.962 523.303 170.797L488.381 122.873C488.404 123.038 488.416 123.191 488.416 123.333C488.416 123.474 488.416 123.615 488.416 123.757V171.044H487.715V121.565H487.995C488.206 121.565 488.369 121.659 488.486 121.848L523.233 169.525C523.21 169.407 523.198 169.289 523.198 169.171C523.198 169.03 523.198 168.901 523.198 168.783V121.565H523.899ZM578.773 149.768V166.167C577.563 166.992 576.312 167.746 575.022 168.429C573.739 169.089 572.383 169.654 570.96 170.126C569.558 170.597 568.056 170.962 566.468 171.221C564.901 171.481 563.233 171.61 561.454 171.61C557.623 171.61 554.185 171.032 551.147 169.878C548.108 168.7 545.525 167.015 543.398 164.824C541.294 162.633 539.669 159.982 538.524 156.872C537.402 153.739 536.841 150.216 536.841 146.305C536.841 142.417 537.402 138.918 538.524 135.808C539.646 132.675 541.259 130.012 543.363 127.821C545.466 125.63 548.003 123.945 550.971 122.767C553.964 121.589 557.318 121 561.037 121C562.856 121 564.53 121.118 566.052 121.353C567.567 121.565 568.982 121.907 570.292 122.378C571.602 122.826 572.826 123.415 573.971 124.145C575.141 124.852 576.273 125.689 577.371 126.655L577.232 126.867C577.166 127.008 577.047 127.079 576.881 127.079C576.769 127.079 576.557 126.949 576.253 126.69C575.968 126.407 575.565 126.077 575.022 125.701C574.487 125.3 573.812 124.864 572.991 124.393C572.171 123.921 571.192 123.497 570.047 123.121C568.903 122.72 567.58 122.39 566.085 122.131C564.609 121.848 562.929 121.707 561.037 121.707C557.481 121.707 554.267 122.272 551.392 123.403C548.517 124.511 546.062 126.125 544.029 128.245C541.995 130.366 540.429 132.946 539.33 135.985C538.232 139.024 537.682 142.465 537.682 146.305C537.682 150.099 538.22 153.515 539.295 156.554C540.37 159.594 541.925 162.174 543.959 164.294C546.016 166.415 548.517 168.052 551.462 169.207C554.407 170.338 557.736 170.903 561.454 170.903C563.187 170.903 564.775 170.797 566.224 170.585C567.699 170.35 569.088 170.019 570.398 169.595C571.728 169.148 573.011 168.618 574.255 168.005C575.492 167.369 576.742 166.65 578.006 165.849V150.475H566.998C566.879 150.475 566.773 150.44 566.68 150.369C566.607 150.275 566.574 150.193 566.574 150.122V149.768H578.773ZM589.736 169.348C589.736 168.712 589.947 168.17 590.364 167.722C590.807 167.251 591.35 167.015 591.978 167.015C592.607 167.015 593.149 167.251 593.592 167.722C594.056 168.17 594.294 168.712 594.294 169.348C594.294 169.984 594.056 170.526 593.592 170.974C593.149 171.398 592.607 171.61 591.978 171.61C591.35 171.61 590.807 171.398 590.364 170.974C589.947 170.526 589.736 169.984 589.736 169.348ZM654.522 121.565V171.044H653.821V123.757C653.821 123.639 653.821 123.533 653.821 123.439C653.821 123.321 653.834 123.203 653.861 123.085L632.367 160.795C632.201 161.031 632.036 161.149 631.877 161.149H631.665C631.5 161.149 631.335 161.031 631.176 160.795L608.98 123.05C609 123.168 609.014 123.285 609.014 123.403C609.014 123.521 609.014 123.639 609.014 123.757V171.044H608.312V121.565H608.59C608.802 121.565 608.967 121.659 609.086 121.848L631.381 159.7C631.474 159.841 631.546 159.97 631.593 160.088C631.665 160.206 631.725 160.324 631.771 160.442C631.818 160.324 631.864 160.206 631.91 160.088C631.976 159.97 632.062 159.841 632.155 159.7L653.755 121.848C653.867 121.659 654.033 121.565 654.245 121.565H654.522ZM699.522 170.267L699.449 171.044H670.77V121.565H699.449V122.343H671.611V145.527H695.242V146.305H671.611V170.267H699.522Z" fill="#1B1B1B"/>
</svg>
