<svg width="1765" height="558" viewBox="0 0 1765 558" fill="none" xmlns="http://www.w3.org/2000/svg">
<rect width="1765" height="558" rx="32" fill="white" fill-opacity="0.6"/>
<path d="M613.187 257.83L595.764 301.802" stroke="#AAAAAA" stroke-width="2" stroke-linecap="round"/>
<path d="M580 257L596.593 301.802" stroke="#777777" stroke-width="6" stroke-linecap="round"/>
<path d="M631.439 257L616.505 295.165" stroke="#AAAAAA" stroke-width="2" stroke-linecap="round"/>
<path d="M601.571 257L617.335 301.802" stroke="black" stroke-width="6" stroke-linecap="round"/>
<path d="M646.374 257L633.099 290.187" stroke="#777777" stroke-width="2" stroke-linecap="round"/>
<path d="M621.483 257L638.077 301.802" stroke="black" stroke-width="6" stroke-linecap="round"/>
<path d="M702.133 254.565L681.656 304.044H680.955L660.478 254.565H661.109C661.32 254.565 661.46 254.683 661.53 254.919L680.744 301.429C680.861 301.689 680.955 301.936 681.025 302.171C681.118 302.407 681.212 302.654 681.305 302.913C681.399 302.654 681.481 302.407 681.551 302.171C681.644 301.936 681.749 301.689 681.866 301.429L701.081 254.919C701.151 254.683 701.314 254.565 701.572 254.565H702.133ZM712.597 304.044H711.755V254.565H712.597V304.044ZM765.131 297.365C765.224 297.365 765.306 297.4 765.376 297.471L765.692 297.754C764.663 298.766 763.553 299.697 762.361 300.546C761.192 301.37 759.906 302.089 758.504 302.701C757.101 303.29 755.559 303.75 753.876 304.08C752.192 304.433 750.334 304.61 748.301 304.61C745.005 304.61 741.966 304.032 739.184 302.878C736.402 301.7 733.995 300.015 731.961 297.824C729.928 295.633 728.338 292.982 727.193 289.872C726.071 286.739 725.51 283.216 725.51 279.305C725.51 275.535 726.071 272.095 727.193 268.985C728.338 265.875 729.939 263.212 731.996 260.998C734.077 258.759 736.554 257.039 739.43 255.838C742.328 254.613 745.519 254 749.002 254C750.615 254 752.134 254.129 753.56 254.389C754.986 254.624 756.33 254.99 757.592 255.484C758.878 255.979 760.105 256.592 761.274 257.322C762.443 258.029 763.588 258.854 764.71 259.796L764.57 260.008C764.523 260.102 764.406 260.15 764.219 260.15C764.056 260.15 763.635 259.867 762.957 259.301C762.302 258.736 761.356 258.112 760.117 257.428C758.878 256.745 757.335 256.121 755.488 255.555C753.665 254.99 751.503 254.707 749.002 254.707C745.683 254.707 742.632 255.284 739.85 256.439C737.092 257.57 734.708 259.207 732.698 261.351C730.711 263.472 729.156 266.052 728.034 269.091C726.912 272.131 726.351 275.535 726.351 279.305C726.351 283.145 726.9 286.585 727.999 289.625C729.121 292.664 730.664 295.244 732.627 297.365C734.591 299.485 736.905 301.111 739.57 302.242C742.258 303.35 745.168 303.903 748.301 303.903C750.287 303.903 752.064 303.762 753.63 303.479C755.196 303.196 756.622 302.784 757.908 302.242C759.217 301.7 760.42 301.04 761.519 300.263C762.641 299.462 763.751 298.554 764.85 297.541C764.967 297.423 765.061 297.365 765.131 297.365ZM777.587 278.457H780.882C781.326 278.457 781.7 278.445 782.005 278.421C782.331 278.398 782.612 278.351 782.846 278.28C783.103 278.186 783.348 278.056 783.582 277.891C783.816 277.727 784.061 277.514 784.319 277.255L807.18 255.131C807.436 254.919 807.647 254.778 807.811 254.707C807.974 254.613 808.185 254.565 808.442 254.565H808.863L785.02 277.609C784.599 277.985 784.249 278.257 783.968 278.421C783.711 278.586 783.36 278.716 782.916 278.81C783.337 278.881 783.699 279.01 784.003 279.199C784.307 279.364 784.622 279.611 784.95 279.941L810.265 304.044H809.915C809.564 304.044 809.307 304.009 809.143 303.938C809.003 303.868 808.839 303.738 808.652 303.55L784.529 280.577C784.272 280.342 784.038 280.13 783.828 279.941C783.617 279.752 783.383 279.611 783.127 279.517C782.892 279.399 782.601 279.317 782.25 279.27C781.899 279.199 781.444 279.164 780.882 279.164H777.587V304.044H776.745V254.565H777.587V278.457ZM831.886 283.016V304.044H831.045V283.016L812.742 254.565H813.443C813.654 254.565 813.818 254.659 813.934 254.848L830.449 280.648C830.636 280.954 830.823 281.249 831.01 281.532C831.197 281.791 831.349 282.062 831.466 282.344C831.606 282.062 831.758 281.791 831.921 281.532C832.109 281.249 832.296 280.954 832.482 280.648L848.997 254.848C849.114 254.659 849.278 254.565 849.488 254.565H850.189L831.886 283.016ZM919.495 254.565L903.927 304.044H903.226L886.887 256.545C886.817 256.309 886.758 256.109 886.711 255.944C886.665 255.755 886.618 255.578 886.571 255.414C886.501 255.72 886.396 256.097 886.256 256.545L869.916 304.044H869.215L853.647 254.565H854.278C854.489 254.565 854.629 254.683 854.699 254.919L869.04 301.111C869.204 301.677 869.379 302.313 869.566 303.02C869.73 302.313 869.905 301.677 870.092 301.111L886.045 254.919C886.115 254.683 886.279 254.565 886.536 254.565H886.676C886.887 254.565 887.027 254.683 887.097 254.919L903.051 301.111C903.215 301.677 903.39 302.313 903.577 303.02C903.741 302.313 903.916 301.677 904.103 301.111L918.443 254.919C918.513 254.683 918.677 254.565 918.934 254.565H919.495ZM954.401 286.444L942.304 257.181C942.187 256.921 942.082 256.674 941.988 256.439C941.918 256.203 941.836 255.956 941.743 255.696C941.65 255.956 941.556 256.203 941.462 256.439C941.392 256.674 941.299 256.921 941.182 257.181L929.085 286.444H954.401ZM962.57 304.044H961.939C961.729 304.044 961.588 303.926 961.518 303.691L954.681 287.151H928.805L921.967 303.691C921.897 303.926 921.734 304.044 921.477 304.044H920.916L941.392 254.565H942.094L962.57 304.044ZM1008.38 254.565V304.044H1008.17C1008.03 304.044 1007.9 303.962 1007.78 303.797L972.859 255.873C972.882 256.038 972.894 256.191 972.894 256.333C972.894 256.474 972.894 256.615 972.894 256.757V304.044H972.193V254.565H972.473C972.684 254.565 972.847 254.659 972.964 254.848L1007.71 302.525C1007.69 302.407 1007.68 302.289 1007.68 302.171C1007.68 302.03 1007.68 301.901 1007.68 301.783V254.565H1008.38ZM1063.25 282.768V299.167C1062.04 299.992 1060.79 300.746 1059.5 301.429C1058.22 302.089 1056.86 302.654 1055.44 303.126C1054.04 303.597 1052.53 303.962 1050.95 304.221C1049.38 304.481 1047.71 304.61 1045.93 304.61C1042.1 304.61 1038.66 304.032 1035.62 302.878C1032.59 301.7 1030 300.015 1027.88 297.824C1025.77 295.633 1024.15 292.982 1023 289.872C1021.88 286.739 1021.32 283.216 1021.32 279.305C1021.32 275.417 1021.88 271.918 1023 268.808C1024.12 265.675 1025.74 263.012 1027.84 260.821C1029.94 258.63 1032.48 256.945 1035.45 255.767C1038.44 254.589 1041.8 254 1045.51 254C1047.33 254 1049.01 254.118 1050.53 254.353C1052.04 254.565 1053.46 254.907 1054.77 255.378C1056.08 255.826 1057.3 256.415 1058.45 257.145C1059.62 257.852 1060.75 258.689 1061.85 259.655L1061.71 259.867C1061.64 260.008 1061.52 260.079 1061.36 260.079C1061.25 260.079 1061.04 259.949 1060.73 259.69C1060.45 259.407 1060.04 259.077 1059.5 258.701C1058.96 258.3 1058.29 257.864 1057.47 257.393C1056.65 256.921 1055.67 256.497 1054.53 256.121C1053.38 255.72 1052.06 255.39 1050.56 255.131C1049.09 254.848 1047.41 254.707 1045.51 254.707C1041.96 254.707 1038.75 255.272 1035.87 256.403C1032.99 257.511 1030.54 259.125 1028.51 261.245C1026.47 263.366 1024.91 265.946 1023.81 268.985C1022.71 272.024 1022.16 275.465 1022.16 279.305C1022.16 283.099 1022.7 286.515 1023.77 289.554C1024.85 292.594 1026.4 295.174 1028.44 297.294C1030.49 299.415 1032.99 301.052 1035.94 302.207C1038.89 303.338 1042.21 303.903 1045.93 303.903C1047.67 303.903 1049.25 303.797 1050.7 303.585C1052.18 303.35 1053.57 303.019 1054.88 302.595C1056.21 302.148 1057.49 301.618 1058.73 301.005C1059.97 300.369 1061.22 299.65 1062.48 298.849V283.475H1051.48C1051.36 283.475 1051.25 283.44 1051.16 283.369C1051.09 283.275 1051.05 283.193 1051.05 283.122V282.768H1063.25ZM1074.21 302.348C1074.21 301.712 1074.43 301.17 1074.84 300.722C1075.29 300.251 1075.83 300.015 1076.46 300.015C1077.08 300.015 1077.63 300.251 1078.07 300.722C1078.53 301.17 1078.77 301.712 1078.77 302.348C1078.77 302.984 1078.53 303.526 1078.07 303.974C1077.63 304.398 1077.08 304.61 1076.46 304.61C1075.83 304.61 1075.29 304.398 1074.84 303.974C1074.43 303.526 1074.21 302.984 1074.21 302.348ZM1139 254.565V304.044H1138.3V256.757C1138.3 256.639 1138.3 256.533 1138.3 256.439C1138.3 256.321 1138.31 256.203 1138.34 256.085L1116.84 293.795C1116.68 294.031 1116.51 294.149 1116.36 294.149H1116.14C1115.98 294.149 1115.81 294.031 1115.65 293.795L1093.46 256.05C1093.48 256.168 1093.49 256.285 1093.49 256.403C1093.49 256.521 1093.49 256.639 1093.49 256.757V304.044H1092.79V254.565H1093.07C1093.28 254.565 1093.45 254.659 1093.56 254.848L1115.86 292.7C1115.95 292.841 1116.02 292.97 1116.07 293.088C1116.14 293.206 1116.2 293.324 1116.25 293.442C1116.3 293.324 1116.34 293.206 1116.39 293.088C1116.45 292.97 1116.54 292.841 1116.63 292.7L1138.23 254.848C1138.35 254.659 1138.51 254.565 1138.72 254.565H1139ZM1184 303.267L1183.93 304.044H1155.25V254.565H1183.93V255.343H1156.09V278.527H1179.72V279.305H1156.09V303.267H1184Z" fill="#1B1B1B"/>
</svg>
