<svg width="876" height="537" viewBox="0 0 876 537" fill="none" xmlns="http://www.w3.org/2000/svg">
<rect width="876" height="537" rx="32" fill="white" fill-opacity="0.6"/>
<path d="M168.187 246.83L150.764 290.802" stroke="#AAAAAA" stroke-width="2" stroke-linecap="round"/>
<path d="M135 246L151.593 290.802" stroke="#777777" stroke-width="6" stroke-linecap="round"/>
<path d="M186.439 246L171.505 284.165" stroke="#AAAAAA" stroke-width="2" stroke-linecap="round"/>
<path d="M156.571 246L172.335 290.802" stroke="black" stroke-width="6" stroke-linecap="round"/>
<path d="M201.374 246L188.099 279.187" stroke="#777777" stroke-width="2" stroke-linecap="round"/>
<path d="M176.483 246L193.077 290.802" stroke="black" stroke-width="6" stroke-linecap="round"/>
<path d="M257.133 243.565L236.656 293.044H235.955L215.478 243.565H216.109C216.32 243.565 216.46 243.683 216.53 243.919L235.744 290.429C235.861 290.689 235.955 290.936 236.025 291.171C236.118 291.407 236.212 291.654 236.305 291.913C236.399 291.654 236.481 291.407 236.551 291.171C236.644 290.936 236.749 290.689 236.866 290.429L256.081 243.919C256.151 243.683 256.314 243.565 256.572 243.565H257.133ZM267.597 293.044H266.755V243.565H267.597V293.044ZM320.131 286.365C320.224 286.365 320.306 286.4 320.376 286.471L320.692 286.754C319.663 287.766 318.553 288.697 317.361 289.546C316.192 290.37 314.906 291.089 313.504 291.701C312.101 292.29 310.559 292.75 308.876 293.08C307.192 293.433 305.334 293.61 303.301 293.61C300.005 293.61 296.966 293.032 294.184 291.878C291.402 290.7 288.995 289.015 286.961 286.824C284.928 284.633 283.338 281.982 282.193 278.872C281.071 275.739 280.51 272.216 280.51 268.305C280.51 264.535 281.071 261.095 282.193 257.985C283.338 254.875 284.939 252.212 286.996 249.998C289.077 247.759 291.554 246.039 294.43 244.838C297.328 243.613 300.519 243 304.002 243C305.615 243 307.134 243.129 308.56 243.389C309.986 243.624 311.33 243.99 312.592 244.484C313.878 244.979 315.105 245.592 316.274 246.322C317.443 247.029 318.588 247.854 319.71 248.796L319.57 249.008C319.523 249.102 319.406 249.15 319.219 249.15C319.056 249.15 318.635 248.867 317.957 248.301C317.302 247.736 316.356 247.112 315.117 246.428C313.878 245.745 312.335 245.121 310.488 244.555C308.665 243.99 306.503 243.707 304.002 243.707C300.683 243.707 297.632 244.284 294.85 245.439C292.092 246.57 289.708 248.207 287.698 250.351C285.711 252.472 284.156 255.052 283.034 258.091C281.912 261.131 281.351 264.535 281.351 268.305C281.351 272.145 281.9 275.585 282.999 278.625C284.121 281.664 285.664 284.244 287.627 286.365C289.591 288.485 291.905 290.111 294.57 291.242C297.258 292.35 300.168 292.903 303.301 292.903C305.287 292.903 307.064 292.762 308.63 292.479C310.196 292.196 311.622 291.784 312.908 291.242C314.217 290.7 315.42 290.04 316.519 289.263C317.641 288.462 318.751 287.554 319.85 286.541C319.967 286.423 320.061 286.365 320.131 286.365ZM332.587 267.457H335.883C336.326 267.457 336.7 267.445 337.005 267.421C337.331 267.398 337.612 267.351 337.846 267.28C338.103 267.186 338.348 267.056 338.582 266.891C338.816 266.727 339.061 266.514 339.319 266.255L362.18 244.131C362.436 243.919 362.647 243.778 362.811 243.707C362.974 243.613 363.185 243.565 363.442 243.565H363.863L340.02 266.609C339.599 266.985 339.249 267.257 338.968 267.421C338.711 267.586 338.36 267.716 337.916 267.81C338.337 267.881 338.699 268.01 339.003 268.199C339.307 268.364 339.622 268.611 339.95 268.941L365.265 293.044H364.915C364.564 293.044 364.307 293.009 364.143 292.938C364.003 292.868 363.839 292.738 363.652 292.55L339.529 269.577C339.272 269.342 339.038 269.13 338.828 268.941C338.617 268.752 338.383 268.611 338.127 268.517C337.892 268.399 337.601 268.317 337.25 268.27C336.899 268.199 336.444 268.164 335.883 268.164H332.587V293.044H331.745V243.565H332.587V267.457ZM386.886 272.016V293.044H386.045V272.016L367.742 243.565H368.443C368.654 243.565 368.818 243.659 368.934 243.848L385.449 269.648C385.636 269.954 385.823 270.249 386.01 270.532C386.197 270.791 386.349 271.062 386.466 271.344C386.606 271.062 386.758 270.791 386.921 270.532C387.109 270.249 387.296 269.954 387.482 269.648L403.997 243.848C404.114 243.659 404.278 243.565 404.488 243.565H405.189L386.886 272.016ZM474.495 243.565L458.927 293.044H458.226L441.887 245.545C441.817 245.309 441.758 245.109 441.711 244.944C441.665 244.755 441.618 244.578 441.571 244.414C441.501 244.72 441.396 245.097 441.256 245.545L424.916 293.044H424.215L408.647 243.565H409.278C409.489 243.565 409.629 243.683 409.699 243.919L424.04 290.111C424.204 290.677 424.379 291.313 424.566 292.02C424.73 291.313 424.905 290.677 425.092 290.111L441.045 243.919C441.115 243.683 441.279 243.565 441.536 243.565H441.676C441.887 243.565 442.027 243.683 442.097 243.919L458.051 290.111C458.215 290.677 458.39 291.313 458.577 292.02C458.741 291.313 458.916 290.677 459.103 290.111L473.443 243.919C473.513 243.683 473.677 243.565 473.934 243.565H474.495ZM509.401 275.444L497.304 246.181C497.187 245.921 497.082 245.674 496.988 245.439C496.918 245.203 496.836 244.956 496.743 244.696C496.65 244.956 496.556 245.203 496.462 245.439C496.392 245.674 496.299 245.921 496.182 246.181L484.085 275.444H509.401ZM517.57 293.044H516.939C516.729 293.044 516.588 292.926 516.518 292.691L509.681 276.151H483.805L476.967 292.691C476.897 292.926 476.734 293.044 476.477 293.044H475.916L496.392 243.565H497.094L517.57 293.044ZM563.377 243.565V293.044H563.167C563.027 293.044 562.899 292.962 562.781 292.797L527.859 244.873C527.882 245.038 527.894 245.191 527.894 245.333C527.894 245.474 527.894 245.615 527.894 245.757V293.044H527.193V243.565H527.473C527.684 243.565 527.847 243.659 527.964 243.848L562.711 291.525C562.688 291.407 562.676 291.289 562.676 291.171C562.676 291.03 562.676 290.901 562.676 290.783V243.565H563.377ZM618.251 271.768V288.167C617.041 288.992 615.791 289.746 614.5 290.429C613.217 291.089 611.861 291.654 610.438 292.126C609.036 292.597 607.534 292.962 605.946 293.221C604.379 293.481 602.711 293.61 600.932 293.61C597.101 293.61 593.663 293.032 590.625 291.878C587.586 290.7 585.003 289.015 582.876 286.824C580.772 284.633 579.147 281.982 578.002 278.872C576.88 275.739 576.319 272.216 576.319 268.305C576.319 264.417 576.88 260.918 578.002 257.808C579.124 254.675 580.737 252.012 582.841 249.821C584.944 247.63 587.481 245.945 590.449 244.767C593.442 243.589 596.796 243 600.515 243C602.334 243 604.008 243.118 605.53 243.353C607.045 243.565 608.46 243.907 609.77 244.378C611.08 244.826 612.304 245.415 613.449 246.145C614.619 246.852 615.751 247.689 616.849 248.655L616.71 248.867C616.644 249.008 616.525 249.079 616.359 249.079C616.247 249.079 616.035 248.949 615.731 248.69C615.447 248.407 615.043 248.077 614.5 247.701C613.965 247.3 613.29 246.864 612.469 246.393C611.649 245.921 610.67 245.497 609.525 245.121C608.381 244.72 607.058 244.39 605.563 244.131C604.087 243.848 602.407 243.707 600.515 243.707C596.959 243.707 593.745 244.272 590.87 245.403C587.995 246.511 585.541 248.125 583.507 250.245C581.473 252.366 579.907 254.946 578.808 257.985C577.71 261.024 577.16 264.465 577.16 268.305C577.16 272.099 577.698 275.515 578.773 278.554C579.848 281.594 581.403 284.174 583.437 286.294C585.494 288.415 587.995 290.052 590.94 291.207C593.885 292.338 597.214 292.903 600.932 292.903C602.665 292.903 604.253 292.797 605.702 292.585C607.177 292.35 608.566 292.019 609.876 291.595C611.206 291.148 612.489 290.618 613.733 290.005C614.97 289.369 616.22 288.65 617.484 287.849V272.475H606.476C606.357 272.475 606.251 272.44 606.158 272.369C606.085 272.275 606.052 272.193 606.052 272.122V271.768H618.251ZM629.214 291.348C629.214 290.712 629.425 290.17 629.842 289.722C630.285 289.251 630.828 289.015 631.456 289.015C632.085 289.015 632.627 289.251 633.071 289.722C633.534 290.17 633.772 290.712 633.772 291.348C633.772 291.984 633.534 292.526 633.071 292.974C632.627 293.398 632.085 293.61 631.456 293.61C630.828 293.61 630.285 293.398 629.842 292.974C629.425 292.526 629.214 291.984 629.214 291.348ZM694 243.565V293.044H693.299V245.757C693.299 245.639 693.299 245.533 693.299 245.439C693.299 245.321 693.312 245.203 693.339 245.085L671.845 282.795C671.679 283.031 671.514 283.149 671.355 283.149H671.144C670.978 283.149 670.813 283.031 670.654 282.795L648.458 245.05C648.478 245.168 648.492 245.285 648.492 245.403C648.492 245.521 648.492 245.639 648.492 245.757V293.044H647.79V243.565H648.068C648.28 243.565 648.445 243.659 648.564 243.848L670.859 281.7C670.952 281.841 671.024 281.97 671.071 282.088C671.143 282.206 671.203 282.324 671.249 282.442C671.296 282.324 671.342 282.206 671.388 282.088C671.454 281.97 671.54 281.841 671.633 281.7L693.233 243.848C693.345 243.659 693.511 243.565 693.723 243.565H694ZM739 292.267L738.927 293.044H710.248V243.565H738.927V244.343H711.089V267.527H734.72V268.305H711.089V292.267H739Z" fill="#1B1B1B"/>
</svg>
