<svg width="1765" height="183" viewBox="0 0 1765 183" fill="none" xmlns="http://www.w3.org/2000/svg">
<rect width="1765" height="183" rx="32" fill="white" fill-opacity="0.6"/>
<path d="M724.068 73.4082L709.287 109.125H708.781L694 73.4082H694.455C694.607 73.4082 694.709 73.4934 694.759 73.6633L708.629 107.237C708.714 107.424 708.781 107.603 708.832 107.773C708.899 107.943 708.967 108.121 709.034 108.308C709.102 108.121 709.161 107.943 709.211 107.773C709.279 107.603 709.355 107.424 709.439 107.237L723.309 73.6633C723.36 73.4934 723.478 73.4082 723.664 73.4082H724.068ZM731.622 109.125H731.014V73.4082H731.622V109.125ZM769.544 104.303C769.611 104.303 769.67 104.329 769.721 104.38L769.949 104.584C769.206 105.315 768.405 105.987 767.544 106.599C766.701 107.195 765.773 107.713 764.76 108.155C763.748 108.58 762.634 108.912 761.419 109.15C760.204 109.405 758.863 109.533 757.395 109.533C755.016 109.533 752.822 109.116 750.814 108.283C748.806 107.432 747.068 106.216 745.6 104.635C744.132 103.053 742.985 101.14 742.158 98.8945C741.348 96.6326 740.943 94.0896 740.943 91.2665C740.943 88.5454 741.348 86.0621 742.158 83.817C742.985 81.572 744.141 79.6499 745.626 78.0514C747.128 76.4354 748.916 75.194 750.991 74.3266C753.084 73.4424 755.387 73 757.901 73C759.065 73 760.162 73.0934 761.191 73.2806C762.221 73.4506 763.191 73.7143 764.102 74.0715C765.03 74.4287 765.916 74.871 766.76 75.3981C767.604 75.9083 768.43 76.5038 769.24 77.184L769.139 77.337C769.105 77.4049 769.021 77.4391 768.886 77.4391C768.768 77.4391 768.464 77.235 767.975 76.8268C767.502 76.4186 766.819 75.968 765.924 75.4746C765.03 74.9813 763.916 74.5307 762.584 74.1225C761.267 73.7143 759.707 73.5102 757.901 73.5102C755.505 73.5102 753.303 73.9271 751.295 74.7603C749.304 75.5767 747.583 76.7589 746.132 78.3065C744.698 79.8372 743.576 81.6995 742.766 83.8936C741.956 86.0876 741.551 88.5454 741.551 91.2665C741.551 94.0386 741.947 96.5219 742.74 98.7159C743.55 100.91 744.664 102.772 746.081 104.303C747.499 105.834 749.169 107.007 751.093 107.824C753.033 108.623 755.134 109.023 757.395 109.023C758.829 109.023 760.112 108.921 761.242 108.717C762.372 108.512 763.402 108.215 764.33 107.824C765.275 107.432 766.144 106.956 766.937 106.395C767.747 105.817 768.548 105.162 769.341 104.431C769.426 104.345 769.493 104.303 769.544 104.303ZM778.535 90.6542H780.914C781.235 90.6542 781.505 90.6455 781.724 90.6287C781.96 90.6118 782.163 90.5777 782.332 90.5266C782.517 90.4588 782.694 90.3649 782.863 90.246C783.032 90.1271 783.209 89.974 783.395 89.7868L799.897 73.8164C800.082 73.6633 800.234 73.5613 800.353 73.5102C800.471 73.4424 800.622 73.4082 800.808 73.4082H801.112L783.901 90.0419C783.597 90.3139 783.344 90.5098 783.142 90.6287C782.956 90.7476 782.703 90.8414 782.382 90.9093C782.686 90.9603 782.947 91.0537 783.167 91.1899C783.386 91.3088 783.614 91.4874 783.85 91.7257L802.124 109.125H801.871C801.618 109.125 801.432 109.099 801.314 109.048C801.213 108.997 801.095 108.904 800.96 108.768L783.547 92.1849C783.361 92.015 783.192 91.8619 783.04 91.7257C782.889 91.5895 782.72 91.4874 782.534 91.4196C782.365 91.3344 782.155 91.2751 781.901 91.241C781.648 91.1899 781.319 91.1644 780.914 91.1644H778.535V109.125H777.928V73.4082H778.535V90.6542ZM817.732 93.9452V109.125H817.124V93.9452L803.912 73.4082H804.419C804.57 73.4082 804.689 73.4761 804.773 73.6123L816.694 92.2359C816.829 92.4569 816.964 92.6696 817.099 92.8737C817.234 93.061 817.344 93.2564 817.428 93.4605C817.529 93.2564 817.639 93.061 817.757 92.8737C817.892 92.6696 818.027 92.4569 818.162 92.2359L830.083 73.6123C830.168 73.4761 830.286 73.4082 830.437 73.4082H830.944L817.732 93.9452ZM880.973 73.4082L869.735 109.125H869.229L857.434 74.8369C857.383 74.6669 857.341 74.5221 857.307 74.4032C857.274 74.2669 857.24 74.1394 857.206 74.0205C857.156 74.2414 857.08 74.5139 856.978 74.8369L845.184 109.125H844.678L833.44 73.4082H833.895C834.047 73.4082 834.149 73.4934 834.199 73.6633L844.551 107.007C844.669 107.415 844.796 107.875 844.931 108.385C845.049 107.875 845.176 107.415 845.31 107.007L856.827 73.6633C856.877 73.4934 856.996 73.4082 857.181 73.4082H857.282C857.434 73.4082 857.535 73.4934 857.586 73.6633L869.102 107.007C869.22 107.415 869.347 107.875 869.482 108.385C869.6 107.875 869.727 107.415 869.861 107.007L880.213 73.6633C880.264 73.4934 880.382 73.4082 880.568 73.4082H880.973ZM906.169 96.4199L897.437 75.2961C897.353 75.1088 897.277 74.9302 897.209 74.7603C897.159 74.5904 897.099 74.4118 897.032 74.2246C896.965 74.4118 896.897 74.5904 896.83 74.7603C896.779 74.9302 896.712 75.1088 896.627 75.2961L887.895 96.4199H906.169ZM912.066 109.125H911.611C911.459 109.125 911.358 109.04 911.307 108.87L906.372 96.9301H887.693L882.757 108.87C882.707 109.04 882.589 109.125 882.403 109.125H881.998L896.779 73.4082H897.285L912.066 109.125ZM945.133 73.4082V109.125H944.981C944.88 109.125 944.787 109.065 944.702 108.946L919.493 74.3521C919.51 74.471 919.519 74.5817 919.519 74.6838C919.519 74.7858 919.519 74.8879 919.519 74.9899V109.125H919.012V73.4082H919.215C919.367 73.4082 919.485 73.4761 919.569 73.6123L944.652 108.028C944.635 107.943 944.626 107.858 944.626 107.773C944.626 107.671 944.626 107.577 944.626 107.492V73.4082H945.133ZM984.744 93.7666V105.604C983.87 106.2 982.967 106.744 982.036 107.237C981.11 107.713 980.13 108.121 979.104 108.461C978.091 108.802 977.007 109.065 975.861 109.252C974.729 109.44 973.526 109.533 972.241 109.533C969.476 109.533 966.994 109.116 964.801 108.283C962.608 107.432 960.743 106.216 959.208 104.635C957.689 103.053 956.516 101.14 955.689 98.8945C954.879 96.6326 954.474 94.0896 954.474 91.2665C954.474 88.4602 954.879 85.9345 955.689 83.6895C956.499 81.4276 957.664 79.5055 959.182 77.9238C960.701 76.3421 962.532 75.1261 964.675 74.2756C966.835 73.425 969.256 73 971.94 73C973.254 73 974.462 73.0852 975.56 73.2551C976.654 73.4082 977.676 73.6547 978.621 73.995C979.567 74.318 980.45 74.7435 981.277 75.2706C982.122 75.7808 982.939 76.3844 983.731 77.0819L983.631 77.235C983.583 77.337 983.497 77.388 983.378 77.388C983.297 77.388 983.144 77.2946 982.924 77.1074C982.719 76.9033 982.428 76.665 982.036 76.3931C981.649 76.1038 981.162 75.7895 980.57 75.4491C979.978 75.1088 979.271 74.8027 978.445 74.5307C977.619 74.2414 976.663 74.0036 975.584 73.8164C974.519 73.6123 973.306 73.5102 971.94 73.5102C969.374 73.5102 967.054 73.9184 964.978 74.7348C962.903 75.5343 961.131 76.6992 959.663 78.2299C958.195 79.7606 957.065 81.623 956.272 83.817C955.478 86.0111 955.082 88.4944 955.082 91.2665C955.082 94.0049 955.47 96.4709 956.246 98.6649C957.022 100.859 958.144 102.721 959.612 104.252C961.097 105.783 962.903 106.965 965.029 107.798C967.155 108.615 969.557 109.023 972.241 109.023C973.493 109.023 974.639 108.946 975.684 108.793C976.749 108.623 977.752 108.385 978.698 108.079C979.658 107.756 980.584 107.373 981.482 106.931C982.375 106.472 983.278 105.953 984.19 105.375V94.2769H976.243C976.157 94.2769 976.081 94.2514 976.014 94.2003C975.961 94.1325 975.938 94.0728 975.938 94.0218V93.7666H984.744ZM992.657 107.9C992.657 107.441 992.81 107.05 993.11 106.727C993.43 106.386 993.822 106.216 994.276 106.216C994.729 106.216 995.121 106.386 995.441 106.727C995.775 107.05 995.947 107.441 995.947 107.9C995.947 108.359 995.775 108.751 995.441 109.074C995.121 109.38 994.729 109.533 994.276 109.533C993.822 109.533 993.43 109.38 993.11 109.074C992.81 108.751 992.657 108.359 992.657 107.9ZM1039.42 73.4082V109.125H1038.92V74.9899C1038.92 74.9047 1038.92 74.8282 1038.92 74.7603C1038.92 74.6751 1038.93 74.5904 1038.95 74.5052L1023.43 101.726C1023.31 101.896 1023.19 101.981 1023.08 101.981H1022.92C1022.8 101.981 1022.69 101.896 1022.57 101.726L1006.55 74.4797C1006.56 74.5649 1006.57 74.6496 1006.57 74.7348C1006.57 74.82 1006.57 74.9047 1006.57 74.9899V109.125H1006.07V73.4082H1006.27C1006.42 73.4082 1006.54 73.4761 1006.63 73.6123L1022.72 100.935C1022.79 101.038 1022.84 101.131 1022.87 101.216C1022.92 101.301 1022.97 101.386 1023 101.471C1023.03 101.386 1023.07 101.301 1023.1 101.216C1023.15 101.131 1023.21 101.038 1023.28 100.935L1038.87 73.6123C1038.95 73.4761 1039.07 73.4082 1039.22 73.4082H1039.42ZM1071.91 108.564L1071.85 109.125H1051.15V73.4082H1071.85V73.9695H1051.76V90.7052H1068.82V91.2665H1051.76V108.564H1071.91Z" fill="#1B1B1B"/>
</svg>
