<svg width="1354" height="601" viewBox="0 0 1354 601" fill="none" xmlns="http://www.w3.org/2000/svg">
<rect width="1354" height="601" rx="32" fill="white" fill-opacity="0.6"/>
<path d="M407.187 278.83L389.764 322.802" stroke="#AAAAAA" stroke-width="2" stroke-linecap="round"/>
<path d="M374 278L390.593 322.802" stroke="#777777" stroke-width="6" stroke-linecap="round"/>
<path d="M425.439 278L410.505 316.165" stroke="#AAAAAA" stroke-width="2" stroke-linecap="round"/>
<path d="M395.571 278L411.335 322.802" stroke="black" stroke-width="6" stroke-linecap="round"/>
<path d="M440.374 278L427.099 311.187" stroke="#777777" stroke-width="2" stroke-linecap="round"/>
<path d="M415.483 278L432.077 322.802" stroke="black" stroke-width="6" stroke-linecap="round"/>
<path d="M496.133 275.565L475.656 325.044H474.955L454.478 275.565H455.109C455.32 275.565 455.46 275.683 455.53 275.919L474.744 322.429C474.861 322.689 474.955 322.936 475.025 323.171C475.118 323.407 475.212 323.654 475.305 323.913C475.399 323.654 475.481 323.407 475.551 323.171C475.644 322.936 475.749 322.689 475.866 322.429L495.081 275.919C495.151 275.683 495.314 275.565 495.572 275.565H496.133ZM506.597 325.044H505.755V275.565H506.597V325.044ZM559.131 318.365C559.224 318.365 559.306 318.4 559.376 318.471L559.692 318.754C558.663 319.766 557.553 320.697 556.361 321.546C555.192 322.37 553.906 323.089 552.504 323.701C551.101 324.29 549.559 324.75 547.876 325.08C546.192 325.433 544.334 325.61 542.301 325.61C539.005 325.61 535.966 325.032 533.184 323.878C530.402 322.7 527.995 321.015 525.961 318.824C523.928 316.633 522.338 313.982 521.193 310.872C520.071 307.739 519.51 304.216 519.51 300.305C519.51 296.535 520.071 293.095 521.193 289.985C522.338 286.875 523.939 284.212 525.996 281.998C528.077 279.759 530.554 278.039 533.43 276.838C536.328 275.613 539.519 275 543.002 275C544.615 275 546.134 275.129 547.56 275.389C548.986 275.624 550.33 275.99 551.592 276.484C552.878 276.979 554.105 277.592 555.274 278.322C556.443 279.029 557.588 279.854 558.71 280.796L558.57 281.008C558.523 281.102 558.406 281.15 558.219 281.15C558.056 281.15 557.635 280.867 556.957 280.301C556.302 279.736 555.356 279.112 554.117 278.428C552.878 277.745 551.335 277.121 549.488 276.555C547.665 275.99 545.503 275.707 543.002 275.707C539.683 275.707 536.632 276.284 533.85 277.439C531.092 278.57 528.708 280.207 526.698 282.351C524.711 284.472 523.156 287.052 522.034 290.091C520.912 293.131 520.351 296.535 520.351 300.305C520.351 304.145 520.9 307.585 521.999 310.625C523.121 313.664 524.664 316.244 526.627 318.365C528.591 320.485 530.905 322.111 533.57 323.242C536.258 324.35 539.168 324.903 542.301 324.903C544.287 324.903 546.064 324.762 547.63 324.479C549.196 324.196 550.622 323.784 551.908 323.242C553.217 322.7 554.42 322.04 555.519 321.263C556.641 320.462 557.751 319.554 558.85 318.541C558.967 318.423 559.061 318.365 559.131 318.365ZM571.587 299.457H574.883C575.326 299.457 575.7 299.445 576.005 299.421C576.331 299.398 576.612 299.351 576.846 299.28C577.103 299.186 577.348 299.056 577.582 298.891C577.816 298.727 578.061 298.514 578.319 298.255L601.18 276.131C601.436 275.919 601.647 275.778 601.811 275.707C601.974 275.613 602.185 275.565 602.442 275.565H602.863L579.02 298.609C578.599 298.985 578.249 299.257 577.968 299.421C577.711 299.586 577.36 299.716 576.916 299.81C577.337 299.881 577.699 300.01 578.003 300.199C578.307 300.364 578.622 300.611 578.95 300.941L604.265 325.044H603.915C603.564 325.044 603.307 325.009 603.143 324.938C603.003 324.868 602.839 324.738 602.652 324.55L578.529 301.577C578.272 301.342 578.038 301.13 577.828 300.941C577.617 300.752 577.383 300.611 577.127 300.517C576.892 300.399 576.601 300.317 576.25 300.27C575.899 300.199 575.444 300.164 574.883 300.164H571.587V325.044H570.745V275.565H571.587V299.457ZM625.886 304.016V325.044H625.045V304.016L606.742 275.565H607.443C607.654 275.565 607.818 275.659 607.934 275.848L624.449 301.648C624.636 301.954 624.823 302.249 625.01 302.532C625.197 302.791 625.349 303.062 625.466 303.344C625.606 303.062 625.758 302.791 625.921 302.532C626.109 302.249 626.296 301.954 626.482 301.648L642.997 275.848C643.114 275.659 643.278 275.565 643.488 275.565H644.189L625.886 304.016ZM713.495 275.565L697.927 325.044H697.226L680.887 277.545C680.817 277.309 680.758 277.109 680.711 276.944C680.665 276.755 680.618 276.578 680.571 276.414C680.501 276.72 680.396 277.097 680.256 277.545L663.916 325.044H663.215L647.647 275.565H648.278C648.489 275.565 648.629 275.683 648.699 275.919L663.04 322.111C663.204 322.677 663.379 323.313 663.566 324.02C663.73 323.313 663.905 322.677 664.092 322.111L680.045 275.919C680.115 275.683 680.279 275.565 680.536 275.565H680.676C680.887 275.565 681.027 275.683 681.097 275.919L697.051 322.111C697.215 322.677 697.39 323.313 697.577 324.02C697.741 323.313 697.916 322.677 698.103 322.111L712.443 275.919C712.513 275.683 712.677 275.565 712.934 275.565H713.495ZM748.401 307.444L736.304 278.181C736.187 277.921 736.082 277.674 735.988 277.439C735.918 277.203 735.836 276.956 735.743 276.696C735.65 276.956 735.556 277.203 735.462 277.439C735.392 277.674 735.299 277.921 735.182 278.181L723.085 307.444H748.401ZM756.57 325.044H755.939C755.729 325.044 755.588 324.926 755.518 324.691L748.681 308.151H722.805L715.967 324.691C715.897 324.926 715.734 325.044 715.477 325.044H714.916L735.392 275.565H736.094L756.57 325.044ZM802.377 275.565V325.044H802.167C802.027 325.044 801.899 324.962 801.781 324.797L766.859 276.873C766.882 277.038 766.894 277.191 766.894 277.333C766.894 277.474 766.894 277.615 766.894 277.757V325.044H766.193V275.565H766.473C766.684 275.565 766.847 275.659 766.964 275.848L801.711 323.525C801.688 323.407 801.676 323.289 801.676 323.171C801.676 323.03 801.676 322.901 801.676 322.783V275.565H802.377ZM857.251 303.768V320.167C856.041 320.992 854.791 321.746 853.5 322.429C852.217 323.089 850.861 323.654 849.438 324.126C848.036 324.597 846.534 324.962 844.946 325.221C843.379 325.481 841.711 325.61 839.932 325.61C836.101 325.61 832.663 325.032 829.625 323.878C826.586 322.7 824.003 321.015 821.876 318.824C819.772 316.633 818.147 313.982 817.002 310.872C815.88 307.739 815.319 304.216 815.319 300.305C815.319 296.417 815.88 292.918 817.002 289.808C818.124 286.675 819.737 284.012 821.841 281.821C823.944 279.63 826.481 277.945 829.449 276.767C832.442 275.589 835.796 275 839.515 275C841.334 275 843.008 275.118 844.53 275.353C846.045 275.565 847.46 275.907 848.77 276.378C850.08 276.826 851.304 277.415 852.449 278.145C853.619 278.852 854.751 279.689 855.849 280.655L855.71 280.867C855.644 281.008 855.525 281.079 855.359 281.079C855.247 281.079 855.035 280.949 854.731 280.69C854.447 280.407 854.043 280.077 853.5 279.701C852.965 279.3 852.29 278.864 851.469 278.393C850.649 277.921 849.67 277.497 848.525 277.121C847.381 276.72 846.058 276.39 844.563 276.131C843.087 275.848 841.407 275.707 839.515 275.707C835.959 275.707 832.745 276.272 829.87 277.403C826.995 278.511 824.541 280.125 822.507 282.245C820.473 284.366 818.907 286.946 817.808 289.985C816.71 293.024 816.16 296.465 816.16 300.305C816.16 304.099 816.698 307.515 817.773 310.554C818.848 313.594 820.403 316.174 822.437 318.294C824.494 320.415 826.995 322.052 829.94 323.207C832.885 324.338 836.214 324.903 839.932 324.903C841.665 324.903 843.253 324.797 844.702 324.585C846.177 324.35 847.566 324.019 848.876 323.595C850.206 323.148 851.489 322.618 852.733 322.005C853.97 321.369 855.22 320.65 856.484 319.849V304.475H845.476C845.357 304.475 845.251 304.44 845.158 304.369C845.085 304.275 845.052 304.193 845.052 304.122V303.768H857.251ZM868.214 323.348C868.214 322.712 868.425 322.17 868.842 321.722C869.285 321.251 869.828 321.015 870.456 321.015C871.085 321.015 871.627 321.251 872.071 321.722C872.534 322.17 872.772 322.712 872.772 323.348C872.772 323.984 872.534 324.526 872.071 324.974C871.627 325.398 871.085 325.61 870.456 325.61C869.828 325.61 869.285 325.398 868.842 324.974C868.425 324.526 868.214 323.984 868.214 323.348ZM933 275.565V325.044H932.299V277.757C932.299 277.639 932.299 277.533 932.299 277.439C932.299 277.321 932.312 277.203 932.339 277.085L910.845 314.795C910.679 315.031 910.514 315.149 910.355 315.149H910.144C909.978 315.149 909.813 315.031 909.654 314.795L887.458 277.05C887.478 277.168 887.492 277.285 887.492 277.403C887.492 277.521 887.492 277.639 887.492 277.757V325.044H886.79V275.565H887.068C887.28 275.565 887.445 275.659 887.564 275.848L909.859 313.7C909.952 313.841 910.024 313.97 910.071 314.088C910.143 314.206 910.203 314.324 910.249 314.442C910.296 314.324 910.342 314.206 910.388 314.088C910.454 313.97 910.54 313.841 910.633 313.7L932.233 275.848C932.345 275.659 932.511 275.565 932.723 275.565H933ZM978 324.267L977.927 325.044H949.248V275.565H977.927V276.343H950.089V299.527H973.72V300.305H950.089V324.267H978Z" fill="#1B1B1B"/>
</svg>
