<svg width="1765" height="485" viewBox="0 0 1765 485" fill="none" xmlns="http://www.w3.org/2000/svg">
<rect width="1765" height="485" rx="32" fill="white" fill-opacity="0.6"/>
<path d="M613.187 220.83L595.764 264.802" stroke="#AAAAAA" stroke-width="2" stroke-linecap="round"/>
<path d="M580 220L596.593 264.802" stroke="#777777" stroke-width="6" stroke-linecap="round"/>
<path d="M631.439 220L616.505 258.165" stroke="#AAAAAA" stroke-width="2" stroke-linecap="round"/>
<path d="M601.571 220L617.335 264.802" stroke="black" stroke-width="6" stroke-linecap="round"/>
<path d="M646.374 220L633.099 253.187" stroke="#777777" stroke-width="2" stroke-linecap="round"/>
<path d="M621.483 220L638.077 264.802" stroke="black" stroke-width="6" stroke-linecap="round"/>
<path d="M702.133 217.565L681.656 267.044H680.955L660.478 217.565H661.109C661.32 217.565 661.46 217.683 661.53 217.919L680.744 264.429C680.861 264.689 680.955 264.936 681.025 265.171C681.118 265.407 681.212 265.654 681.305 265.913C681.399 265.654 681.481 265.407 681.551 265.171C681.644 264.936 681.749 264.689 681.866 264.429L701.081 217.919C701.151 217.683 701.314 217.565 701.572 217.565H702.133ZM712.597 267.044H711.755V217.565H712.597V267.044ZM765.131 260.365C765.224 260.365 765.306 260.4 765.376 260.471L765.692 260.754C764.663 261.766 763.553 262.697 762.361 263.546C761.192 264.37 759.906 265.089 758.504 265.701C757.101 266.29 755.559 266.75 753.876 267.08C752.192 267.433 750.334 267.61 748.301 267.61C745.005 267.61 741.966 267.032 739.184 265.878C736.402 264.7 733.995 263.015 731.961 260.824C729.928 258.633 728.338 255.982 727.193 252.872C726.071 249.739 725.51 246.216 725.51 242.305C725.51 238.535 726.071 235.095 727.193 231.985C728.338 228.875 729.939 226.212 731.996 223.998C734.077 221.759 736.554 220.039 739.43 218.838C742.328 217.613 745.519 217 749.002 217C750.615 217 752.134 217.129 753.56 217.389C754.986 217.624 756.33 217.99 757.592 218.484C758.878 218.979 760.105 219.592 761.274 220.322C762.443 221.029 763.588 221.854 764.71 222.796L764.57 223.008C764.523 223.102 764.406 223.15 764.219 223.15C764.056 223.15 763.635 222.867 762.957 222.301C762.302 221.736 761.356 221.112 760.117 220.428C758.878 219.745 757.335 219.121 755.488 218.555C753.665 217.99 751.503 217.707 749.002 217.707C745.683 217.707 742.632 218.284 739.85 219.439C737.092 220.57 734.708 222.207 732.698 224.351C730.711 226.472 729.156 229.052 728.034 232.091C726.912 235.131 726.351 238.535 726.351 242.305C726.351 246.145 726.9 249.585 727.999 252.625C729.121 255.664 730.664 258.244 732.627 260.365C734.591 262.485 736.905 264.111 739.57 265.242C742.258 266.35 745.168 266.903 748.301 266.903C750.287 266.903 752.064 266.762 753.63 266.479C755.196 266.196 756.622 265.784 757.908 265.242C759.217 264.7 760.42 264.04 761.519 263.263C762.641 262.462 763.751 261.554 764.85 260.541C764.967 260.423 765.061 260.365 765.131 260.365ZM777.587 241.457H780.883C781.326 241.457 781.7 241.445 782.005 241.421C782.331 241.398 782.612 241.351 782.846 241.28C783.103 241.186 783.348 241.056 783.582 240.891C783.816 240.727 784.061 240.514 784.319 240.255L807.18 218.131C807.436 217.919 807.647 217.778 807.811 217.707C807.974 217.613 808.185 217.565 808.442 217.565H808.863L785.02 240.609C784.599 240.985 784.249 241.257 783.968 241.421C783.711 241.586 783.36 241.716 782.916 241.81C783.337 241.881 783.699 242.01 784.003 242.199C784.307 242.364 784.622 242.611 784.95 242.941L810.265 267.044H809.915C809.564 267.044 809.307 267.009 809.143 266.938C809.003 266.868 808.839 266.738 808.652 266.55L784.529 243.577C784.272 243.342 784.038 243.13 783.828 242.941C783.617 242.752 783.383 242.611 783.127 242.517C782.892 242.399 782.601 242.317 782.25 242.27C781.899 242.199 781.444 242.164 780.883 242.164H777.587V267.044H776.745V217.565H777.587V241.457ZM831.886 246.016V267.044H831.045V246.016L812.742 217.565H813.443C813.654 217.565 813.818 217.659 813.934 217.848L830.449 243.648C830.636 243.954 830.823 244.249 831.01 244.532C831.197 244.791 831.349 245.062 831.466 245.344C831.606 245.062 831.758 244.791 831.921 244.532C832.109 244.249 832.296 243.954 832.482 243.648L848.997 217.848C849.114 217.659 849.278 217.565 849.488 217.565H850.189L831.886 246.016ZM919.495 217.565L903.927 267.044H903.226L886.887 219.545C886.817 219.309 886.758 219.109 886.711 218.944C886.665 218.755 886.618 218.578 886.571 218.414C886.501 218.72 886.396 219.097 886.256 219.545L869.916 267.044H869.215L853.647 217.565H854.278C854.489 217.565 854.629 217.683 854.699 217.919L869.04 264.111C869.204 264.677 869.379 265.313 869.566 266.02C869.73 265.313 869.905 264.677 870.092 264.111L886.045 217.919C886.115 217.683 886.279 217.565 886.536 217.565H886.676C886.887 217.565 887.027 217.683 887.097 217.919L903.051 264.111C903.215 264.677 903.39 265.313 903.577 266.02C903.741 265.313 903.916 264.677 904.103 264.111L918.443 217.919C918.513 217.683 918.677 217.565 918.934 217.565H919.495ZM954.401 249.444L942.304 220.181C942.187 219.921 942.082 219.674 941.988 219.439C941.918 219.203 941.836 218.956 941.743 218.696C941.65 218.956 941.556 219.203 941.462 219.439C941.392 219.674 941.299 219.921 941.182 220.181L929.085 249.444H954.401ZM962.57 267.044H961.939C961.729 267.044 961.588 266.926 961.518 266.691L954.681 250.151H928.805L921.967 266.691C921.897 266.926 921.734 267.044 921.477 267.044H920.916L941.392 217.565H942.094L962.57 267.044ZM1008.38 217.565V267.044H1008.17C1008.03 267.044 1007.9 266.962 1007.78 266.797L972.859 218.873C972.882 219.038 972.894 219.191 972.894 219.333C972.894 219.474 972.894 219.615 972.894 219.757V267.044H972.193V217.565H972.473C972.684 217.565 972.847 217.659 972.964 217.848L1007.71 265.525C1007.69 265.407 1007.68 265.289 1007.68 265.171C1007.68 265.03 1007.68 264.901 1007.68 264.783V217.565H1008.38ZM1063.25 245.768V262.167C1062.04 262.992 1060.79 263.746 1059.5 264.429C1058.22 265.089 1056.86 265.654 1055.44 266.126C1054.04 266.597 1052.53 266.962 1050.95 267.221C1049.38 267.481 1047.71 267.61 1045.93 267.61C1042.1 267.61 1038.66 267.032 1035.62 265.878C1032.59 264.7 1030 263.015 1027.88 260.824C1025.77 258.633 1024.15 255.982 1023 252.872C1021.88 249.739 1021.32 246.216 1021.32 242.305C1021.32 238.417 1021.88 234.918 1023 231.808C1024.12 228.675 1025.74 226.012 1027.84 223.821C1029.94 221.63 1032.48 219.945 1035.45 218.767C1038.44 217.589 1041.8 217 1045.51 217C1047.33 217 1049.01 217.118 1050.53 217.353C1052.04 217.565 1053.46 217.907 1054.77 218.378C1056.08 218.826 1057.3 219.415 1058.45 220.145C1059.62 220.852 1060.75 221.689 1061.85 222.655L1061.71 222.867C1061.64 223.008 1061.52 223.079 1061.36 223.079C1061.25 223.079 1061.04 222.949 1060.73 222.69C1060.45 222.407 1060.04 222.077 1059.5 221.701C1058.96 221.3 1058.29 220.864 1057.47 220.393C1056.65 219.921 1055.67 219.497 1054.53 219.121C1053.38 218.72 1052.06 218.39 1050.56 218.131C1049.09 217.848 1047.41 217.707 1045.51 217.707C1041.96 217.707 1038.75 218.272 1035.87 219.403C1032.99 220.511 1030.54 222.125 1028.51 224.245C1026.47 226.366 1024.91 228.946 1023.81 231.985C1022.71 235.024 1022.16 238.465 1022.16 242.305C1022.16 246.099 1022.7 249.515 1023.77 252.554C1024.85 255.594 1026.4 258.174 1028.44 260.294C1030.49 262.415 1032.99 264.052 1035.94 265.207C1038.89 266.338 1042.21 266.903 1045.93 266.903C1047.67 266.903 1049.25 266.797 1050.7 266.585C1052.18 266.35 1053.57 266.019 1054.88 265.595C1056.21 265.148 1057.49 264.618 1058.73 264.005C1059.97 263.369 1061.22 262.65 1062.48 261.849V246.475H1051.48C1051.36 246.475 1051.25 246.44 1051.16 246.369C1051.09 246.275 1051.05 246.193 1051.05 246.122V245.768H1063.25ZM1074.21 265.348C1074.21 264.712 1074.43 264.17 1074.84 263.722C1075.29 263.251 1075.83 263.015 1076.46 263.015C1077.08 263.015 1077.63 263.251 1078.07 263.722C1078.53 264.17 1078.77 264.712 1078.77 265.348C1078.77 265.984 1078.53 266.526 1078.07 266.974C1077.63 267.398 1077.08 267.61 1076.46 267.61C1075.83 267.61 1075.29 267.398 1074.84 266.974C1074.43 266.526 1074.21 265.984 1074.21 265.348ZM1139 217.565V267.044H1138.3V219.757C1138.3 219.639 1138.3 219.533 1138.3 219.439C1138.3 219.321 1138.31 219.203 1138.34 219.085L1116.84 256.795C1116.68 257.031 1116.51 257.149 1116.36 257.149H1116.14C1115.98 257.149 1115.81 257.031 1115.65 256.795L1093.46 219.05C1093.48 219.168 1093.49 219.285 1093.49 219.403C1093.49 219.521 1093.49 219.639 1093.49 219.757V267.044H1092.79V217.565H1093.07C1093.28 217.565 1093.45 217.659 1093.56 217.848L1115.86 255.7C1115.95 255.841 1116.02 255.97 1116.07 256.088C1116.14 256.206 1116.2 256.324 1116.25 256.442C1116.3 256.324 1116.34 256.206 1116.39 256.088C1116.45 255.97 1116.54 255.841 1116.63 255.7L1138.23 217.848C1138.35 217.659 1138.51 217.565 1138.72 217.565H1139ZM1184 266.267L1183.93 267.044H1155.25V217.565H1183.93V218.343H1156.09V241.527H1179.72V242.305H1156.09V266.267H1184Z" fill="#1B1B1B"/>
</svg>
