<svg width="1512" height="900" viewBox="0 0 1512 900" fill="none" xmlns="http://www.w3.org/2000/svg">
<rect x="0.05" y="0.05" width="1511.9" height="899.9" rx="19.95" fill="white"/>
<rect x="0.05" y="0.05" width="1511.9" height="899.9" rx="19.95" stroke="#AAAAAA" stroke-width="0.1"/>
<path d="M351.416 416.604L324.877 483.5" stroke="#AAAAAA" stroke-width="2" stroke-linecap="round"/>
<path d="M300.99 415.5L325.778 483.365" stroke="#777777" stroke-width="6" stroke-linecap="round"/>
<path d="M379.111 415.5L356.674 474.119" stroke="#AAAAAA" stroke-width="2" stroke-linecap="round"/>
<path d="M333.773 415.595L357.715 483.5" stroke="black" stroke-width="8" stroke-linecap="round"/>
<path d="M401.012 415.5L381.674 465.434" stroke="#777777" stroke-width="2" stroke-linecap="round"/>
<path d="M363.275 415.755L388.398 483.5" stroke="black" stroke-width="8" stroke-linecap="round"/>
<path d="M486.243 416.8L455.291 491H454.231L423.279 416.8H424.233C424.551 416.8 424.763 416.977 424.869 417.33L453.913 487.078C454.09 487.467 454.231 487.838 454.337 488.191C454.478 488.544 454.62 488.915 454.761 489.304C454.902 488.915 455.026 488.544 455.132 488.191C455.273 487.838 455.432 487.467 455.609 487.078L484.653 417.33C484.759 416.977 485.006 416.8 485.395 416.8H486.243ZM502.06 491H500.788V416.8H502.06V491ZM581.469 480.983C581.61 480.983 581.734 481.036 581.84 481.142L582.317 481.566C580.762 483.085 579.084 484.481 577.282 485.753C575.515 486.99 573.572 488.067 571.452 488.986C569.332 489.869 567 490.558 564.456 491.053C561.912 491.583 559.103 491.848 556.029 491.848C551.047 491.848 546.454 490.982 542.249 489.251C538.044 487.484 534.405 484.958 531.331 481.672C528.257 478.386 525.854 474.411 524.123 469.747C522.427 465.048 521.579 459.765 521.579 453.9C521.579 448.247 522.427 443.088 524.123 438.424C525.854 433.76 528.275 429.767 531.384 426.446C534.529 423.089 538.274 420.51 542.62 418.708C547.001 416.871 551.824 415.952 557.089 415.952C559.527 415.952 561.824 416.146 563.979 416.535C566.134 416.888 568.166 417.436 570.074 418.178C572.017 418.92 573.872 419.839 575.639 420.934C577.406 421.994 579.137 423.231 580.833 424.644L580.621 424.962C580.55 425.103 580.374 425.174 580.091 425.174C579.844 425.174 579.208 424.75 578.183 423.902C577.194 423.054 575.763 422.118 573.89 421.093C572.017 420.068 569.685 419.132 566.894 418.284C564.138 417.436 560.87 417.012 557.089 417.012C552.072 417.012 547.461 417.878 543.256 419.609C539.087 421.305 535.483 423.761 532.444 426.976C529.441 430.156 527.091 434.025 525.395 438.583C523.699 443.141 522.851 448.247 522.851 453.9C522.851 459.659 523.681 464.818 525.342 469.376C527.038 473.934 529.37 477.803 532.338 480.983C535.306 484.163 538.804 486.601 542.832 488.297C546.895 489.958 551.294 490.788 556.029 490.788C559.032 490.788 561.718 490.576 564.085 490.152C566.452 489.728 568.608 489.11 570.551 488.297C572.53 487.484 574.349 486.495 576.01 485.329C577.706 484.128 579.384 482.767 581.045 481.248C581.222 481.071 581.363 480.983 581.469 480.983ZM600.297 452.628H605.279C605.95 452.628 606.515 452.61 606.975 452.575C607.469 452.54 607.893 452.469 608.247 452.363C608.635 452.222 609.006 452.027 609.36 451.78C609.713 451.533 610.084 451.215 610.473 450.826L645.029 417.648C645.417 417.33 645.735 417.118 645.983 417.012C646.23 416.871 646.548 416.8 646.937 416.8H647.573L611.533 451.356C610.897 451.921 610.367 452.328 609.943 452.575C609.554 452.822 609.024 453.017 608.353 453.158C608.989 453.264 609.536 453.458 609.996 453.741C610.455 453.988 610.932 454.359 611.427 454.854L649.693 491H649.163C648.633 491 648.244 490.947 647.997 490.841C647.785 490.735 647.537 490.541 647.255 490.258L610.791 455.808C610.402 455.455 610.049 455.137 609.731 454.854C609.413 454.571 609.059 454.359 608.671 454.218C608.317 454.041 607.876 453.918 607.346 453.847C606.816 453.741 606.127 453.688 605.279 453.688H600.297V491H599.025V416.8H600.297V452.628ZM682.375 459.465V491H681.103V459.465L653.437 416.8H654.497C654.815 416.8 655.063 416.941 655.239 417.224L680.202 455.914C680.485 456.373 680.768 456.815 681.05 457.239C681.333 457.628 681.563 458.034 681.739 458.458C681.951 458.034 682.181 457.628 682.428 457.239C682.711 456.815 682.994 456.373 683.276 455.914L708.239 417.224C708.416 416.941 708.663 416.8 708.981 416.8H710.041L682.375 459.465ZM814.802 416.8L791.27 491H790.21L765.512 419.768C765.406 419.415 765.318 419.114 765.247 418.867C765.177 418.584 765.106 418.319 765.035 418.072C764.929 418.531 764.77 419.097 764.558 419.768L739.86 491H738.8L715.268 416.8H716.222C716.54 416.8 716.752 416.977 716.858 417.33L738.535 486.601C738.783 487.449 739.048 488.403 739.33 489.463C739.578 488.403 739.843 487.449 740.125 486.601L764.24 417.33C764.346 416.977 764.594 416.8 764.982 416.8H765.194C765.512 416.8 765.724 416.977 765.83 417.33L789.945 486.601C790.193 487.449 790.458 488.403 790.74 489.463C790.988 488.403 791.253 487.449 791.535 486.601L813.212 417.33C813.318 416.977 813.566 416.8 813.954 416.8H814.802ZM867.564 464.606L849.279 420.722C849.102 420.333 848.943 419.962 848.802 419.609C848.696 419.256 848.572 418.885 848.431 418.496C848.29 418.885 848.148 419.256 848.007 419.609C847.901 419.962 847.76 420.333 847.583 420.722L829.298 464.606H867.564ZM879.913 491H878.959C878.641 491 878.429 490.823 878.323 490.47L867.988 465.666H828.874L818.539 490.47C818.433 490.823 818.186 491 817.797 491H816.949L847.901 416.8H848.961L879.913 491ZM949.154 416.8V491H948.836C948.624 491 948.43 490.876 948.253 490.629L895.465 418.761C895.5 419.008 895.518 419.238 895.518 419.45C895.518 419.662 895.518 419.874 895.518 420.086V491H894.458V416.8H894.882C895.2 416.8 895.447 416.941 895.624 417.224L948.147 488.721C948.112 488.544 948.094 488.368 948.094 488.191C948.094 487.979 948.094 487.785 948.094 487.608V416.8H949.154ZM1032.1 459.094V483.686C1030.27 484.923 1028.38 486.053 1026.43 487.078C1024.49 488.067 1022.44 488.915 1020.29 489.622C1018.17 490.329 1015.9 490.876 1013.5 491.265C1011.13 491.654 1008.61 491.848 1005.92 491.848C1000.13 491.848 994.933 490.982 990.34 489.251C985.747 487.484 981.842 484.958 978.627 481.672C975.447 478.386 972.991 474.411 971.26 469.747C969.564 465.048 968.716 459.765 968.716 453.9C968.716 448.07 969.564 442.823 971.26 438.159C972.956 433.46 975.394 429.467 978.574 426.181C981.754 422.895 985.588 420.369 990.075 418.602C994.598 416.835 999.668 415.952 1005.29 415.952C1008.04 415.952 1010.57 416.129 1012.87 416.482C1015.16 416.8 1017.3 417.312 1019.28 418.019C1021.26 418.69 1023.11 419.574 1024.84 420.669C1026.61 421.729 1028.32 422.983 1029.98 424.432L1029.77 424.75C1029.67 424.962 1029.49 425.068 1029.24 425.068C1029.07 425.068 1028.75 424.874 1028.29 424.485C1027.86 424.061 1027.25 423.566 1026.43 423.001C1025.62 422.4 1024.6 421.747 1023.36 421.04C1022.12 420.333 1020.64 419.697 1018.91 419.132C1017.18 418.531 1015.18 418.037 1012.92 417.648C1010.69 417.224 1008.15 417.012 1005.29 417.012C999.915 417.012 995.057 417.86 990.711 419.556C986.365 421.217 982.655 423.637 979.581 426.817C976.507 429.997 974.14 433.866 972.479 438.424C970.818 442.982 969.988 448.141 969.988 453.9C969.988 459.589 970.801 464.712 972.426 469.27C974.051 473.828 976.401 477.697 979.475 480.877C982.584 484.057 986.365 486.513 990.817 488.244C995.269 489.94 1000.3 490.788 1005.92 490.788C1008.54 490.788 1010.94 490.629 1013.13 490.311C1015.36 489.958 1017.46 489.463 1019.44 488.827C1021.45 488.156 1023.39 487.361 1025.27 486.442C1027.14 485.488 1029.03 484.41 1030.94 483.209V460.154H1014.3C1014.12 460.154 1013.96 460.101 1013.82 459.995C1013.71 459.854 1013.66 459.73 1013.66 459.624V459.094H1032.1ZM1048.67 488.456C1048.67 487.502 1048.99 486.689 1049.62 486.018C1050.29 485.311 1051.11 484.958 1052.06 484.958C1053.01 484.958 1053.83 485.311 1054.5 486.018C1055.2 486.689 1055.56 487.502 1055.56 488.456C1055.56 489.41 1055.2 490.223 1054.5 490.894C1053.83 491.53 1053.01 491.848 1052.06 491.848C1051.11 491.848 1050.29 491.53 1049.62 490.894C1048.99 490.223 1048.67 489.41 1048.67 488.456ZM1146.6 416.8V491H1145.54V420.086C1145.54 419.909 1145.54 419.75 1145.54 419.609C1145.54 419.432 1145.56 419.256 1145.6 419.079L1113.11 475.63C1112.86 475.983 1112.61 476.16 1112.37 476.16H1112.05C1111.8 476.16 1111.55 475.983 1111.31 475.63L1077.76 419.026C1077.79 419.203 1077.81 419.379 1077.81 419.556C1077.81 419.733 1077.81 419.909 1077.81 420.086V491H1076.75V416.8H1077.17C1077.49 416.8 1077.74 416.941 1077.92 417.224L1111.62 473.987C1111.76 474.199 1111.87 474.393 1111.94 474.57C1112.05 474.747 1112.14 474.923 1112.21 475.1C1112.28 474.923 1112.35 474.747 1112.42 474.57C1112.52 474.393 1112.65 474.199 1112.79 473.987L1145.44 417.224C1145.61 416.941 1145.86 416.8 1146.18 416.8H1146.6ZM1214.62 489.834L1214.51 491H1171.16V416.8H1214.51V417.966H1172.43V452.734H1208.15V453.9H1172.43V489.834H1214.62Z" fill="#1B1B1B"/>
</svg>
