<svg width="24" height="24" viewBox="0 0 24 24" fill="none" xmlns="http://www.w3.org/2000/svg">
<path d="M8.20361 3.3735C8.59124 2.98587 9.22907 2.98587 9.6167 3.3735L16.1372 9.89304C16.6936 10.4495 17.0103 11.2036 17.0103 12.0005C17.0101 12.7942 16.7046 13.5475 16.1362 14.1059L9.6167 20.6264L9.61084 20.6333L9.60986 20.6323C9.41878 20.8105 9.16965 20.9204 8.90967 20.9204C8.65708 20.9203 8.40286 20.8257 8.20361 20.6264C7.816 20.2388 7.81599 19.601 8.20361 19.2133L14.7231 12.6928C15.1054 12.3105 15.1054 11.6894 14.7231 11.3071L8.20361 4.78659C7.81598 4.39896 7.81598 3.76114 8.20361 3.3735Z" fill="#505050" stroke="#505050" stroke-width="0.5"/>
</svg>
