<svg width="24" height="24" viewBox="0 0 24 24" fill="none" xmlns="http://www.w3.org/2000/svg">
<path d="M11.5053 7L10.1309 9.13793C9.82267 9.6092 10.0796 10 10.6832 10H12.3145C12.931 10 13.175 10.3908 12.8668 10.8621L11.5053 13" stroke="#505050" stroke-width="1.5" stroke-linecap="round" stroke-linejoin="round"/>
<path d="M7.77981 18.9377V17.6408C5.15605 16.0867 3 13.0569 3 9.83696C3 4.30274 8.19049 -0.0352011 14.054 1.21699C16.6322 1.776 18.8909 3.45304 20.0659 5.76735C22.4501 10.4631 19.9404 15.4494 16.2557 17.6296V18.9265C16.2557 19.2507 16.3812 19.9998 15.1606 19.9998H8.87495C7.6201 20.011 7.77981 19.5302 7.77981 18.9377Z" stroke="#505050" stroke-width="1.5" stroke-linecap="round" stroke-linejoin="round"/>
<path d="M8 23C10.6171 21.6667 13.3829 21.6667 16 23" stroke="#505050" stroke-width="1.5" stroke-linecap="round" stroke-linejoin="round"/>
</svg>
