<svg width="32" height="32" viewBox="0 0 32 32" fill="none" xmlns="http://www.w3.org/2000/svg">
<path d="M19.7264 19.7266C21.7845 19.7266 23.453 18.0582 23.453 16C23.453 13.9419 21.7845 12.2734 19.7264 12.2734C17.6682 12.2734 15.9998 13.9419 15.9998 16C15.9998 18.0582 17.6682 19.7266 19.7264 19.7266Z" stroke="#505050" stroke-width="1.5" stroke-linecap="round" stroke-linejoin="round"/>
<path d="M16.0001 12.2734V4.82022H12.2735C11.2851 4.82022 10.3372 5.21284 9.63837 5.91172C8.9395 6.61059 8.54688 7.55846 8.54688 8.54682C8.54688 9.53517 8.9395 10.483 9.63837 11.1819C10.3372 11.8808 11.2851 12.2734 12.2735 12.2734H16.0001Z" stroke="#505050" stroke-width="1.5" stroke-linecap="round" stroke-linejoin="round"/>
<path d="M16.0001 19.7266V12.2734H12.2735C11.2851 12.2734 10.3372 12.6661 9.63837 13.3649C8.9395 14.0638 8.54688 15.0117 8.54688 16C8.54688 16.9884 8.9395 17.9363 9.63837 18.6351C10.3372 19.334 11.2851 19.7266 12.2735 19.7266H16.0001Z" stroke="#505050" stroke-width="1.5" stroke-linecap="round" stroke-linejoin="round"/>
<path d="M15.9998 12.2734V4.82022H19.7264C20.7147 4.82022 21.6626 5.21284 22.3615 5.91172C23.0603 6.61059 23.453 7.55846 23.453 8.54682C23.453 9.53517 23.0603 10.483 22.3615 11.1819C21.6626 11.8808 20.7147 12.2734 19.7264 12.2734H15.9998Z" stroke="#505050" stroke-width="1.5" stroke-linecap="round" stroke-linejoin="round"/>
<path d="M16.0001 19.7266V23.4532C16.0001 24.1902 15.7815 24.9107 15.372 25.5236C14.9625 26.1364 14.3805 26.6141 13.6996 26.8961C13.0186 27.1782 12.2693 27.252 11.5465 27.1082C10.8236 26.9644 10.1595 26.6095 9.63837 26.0883C9.1172 25.5671 8.76227 24.9031 8.61848 24.1802C8.47469 23.4573 8.54849 22.708 8.83055 22.0271C9.1126 21.3461 9.59025 20.7641 10.2031 20.3546C10.8159 19.9452 11.5364 19.7266 12.2735 19.7266H16.0001Z" stroke="#505050" stroke-width="1.5" stroke-linecap="round" stroke-linejoin="round"/>
</svg>
