<svg width="1000" height="800" viewBox="0 0 1000 800" fill="none" xmlns="http://www.w3.org/2000/svg">
<path fill-rule="evenodd" clip-rule="evenodd" d="M438.396 98.3004C438.396 83.2808 450.572 71.105 465.592 71.105H542.929C557.949 71.105 570.124 83.2808 570.124 98.3004V157.659C605.763 165.728 639.031 180.044 668.717 199.395L708.089 160.023C718.709 149.403 735.928 149.403 746.549 160.023L801.234 214.709C811.855 225.33 811.855 242.549 801.234 253.169L761.008 293.396C780.016 323.766 793.82 357.727 801.17 394.029H854.805C869.824 394.029 882 406.204 882 421.224V498.561C882 513.581 869.824 525.757 854.805 525.757H738.571C745.527 511.968 749.445 496.385 749.445 479.887C749.445 429.387 712.74 387.461 664.554 379.33C636.029 318.723 574.407 276.771 502.986 276.771C431.942 276.771 370.593 318.282 341.872 378.372C290.165 383.322 249.728 426.882 249.728 479.887C249.728 495.052 253.038 509.444 258.975 522.38H145.195C130.176 522.38 118 510.204 118 495.184L118 417.847C118 402.827 130.176 390.652 145.195 390.652H204.655C212.323 354.88 226.27 321.439 245.287 291.537L206.918 253.169C196.298 242.549 196.298 225.33 206.918 214.709L261.604 160.023C272.225 149.403 289.444 149.403 300.064 160.023L338.245 198.204C368.41 178.849 402.211 164.667 438.396 156.91V98.3004ZM647.462 581.87C615.858 581.87 587.612 567.494 568.906 544.925C552.174 549.873 539.332 556.412 531.051 563.874C512.539 580.553 504.707 604.685 502.927 623.494C501.147 642.303 502.927 728.895 502.927 728.895H791.996C791.996 728.895 793.776 642.303 791.996 623.494C790.216 604.685 782.384 580.553 763.872 563.874C755.591 556.412 742.75 549.873 726.018 544.925C707.311 567.494 679.065 581.87 647.462 581.87ZM273.155 544.925C256.423 549.873 243.582 556.412 235.3 563.874C216.789 580.553 208.957 604.685 207.176 623.494C205.396 642.303 207.177 728.895 207.177 728.895H496.245C496.245 728.895 498.026 642.303 496.245 623.494C494.465 604.685 486.633 580.553 468.122 563.874C459.84 556.412 446.999 549.873 430.267 544.925C411.561 567.494 383.315 581.87 351.711 581.87C320.107 581.87 291.861 567.494 273.155 544.925ZM435.847 480.312C435.847 526.544 398.368 564.023 352.136 564.023C305.904 564.023 268.425 526.544 268.425 480.312C268.425 434.079 305.904 396.601 352.136 396.601C398.368 396.601 435.847 434.079 435.847 480.312ZM731.598 480.312C731.598 526.544 694.119 564.023 647.886 564.023C601.654 564.023 564.175 526.544 564.175 480.312C564.175 434.079 601.654 396.601 647.886 396.601C694.119 396.601 731.598 434.079 731.598 480.312Z" fill="#1B1B1B"/>
</svg>
