<svg width="1000" height="800" viewBox="0 0 1000 800" fill="none" xmlns="http://www.w3.org/2000/svg">
<path d="M425 436C425 490.4 380.9 534.5 326.5 534.5C272.1 534.5 228 490.4 228 436C228 381.6 272.1 337.5 326.5 337.5C380.9 337.5 425 381.6 425 436Z" fill="#1B1B1B"/>
<path d="M773 436C773 490.4 728.9 534.5 674.5 534.5C620.1 534.5 576 490.4 576 436C576 381.6 620.1 337.5 674.5 337.5C728.9 337.5 773 381.6 773 436Z" fill="#1B1B1B"/>
<path d="M537.023 534.325C546.768 525.544 561.878 517.851 581.566 512.029C603.577 538.585 636.813 555.5 674 555.5C711.187 555.5 744.423 538.585 766.434 512.029C786.122 517.851 801.232 525.544 810.977 534.325C832.759 553.951 841.974 582.347 844.069 604.478C846.164 626.61 844.069 728.5 844.069 728.5H503.931C503.931 728.5 501.836 626.61 503.931 604.478C506.026 582.347 515.241 553.951 537.023 534.325Z" fill="#1B1B1B"/>
<path d="M233.566 512.029C213.878 517.851 198.768 525.544 189.023 534.325C167.241 553.951 158.026 582.347 155.931 604.478C153.836 626.61 155.931 728.5 155.931 728.5H496.069C496.069 728.5 498.164 626.61 496.069 604.478C493.974 582.347 484.759 553.951 462.977 534.325C453.232 525.544 438.122 517.851 418.434 512.029C396.423 538.585 363.187 555.5 326 555.5C288.813 555.5 255.577 538.585 233.566 512.029Z" fill="#1B1B1B"/>
<path fill-rule="evenodd" clip-rule="evenodd" d="M436.389 283.895C445.372 290.337 453.75 296.344 453.75 310V327.513C453.75 334.14 459.123 339.5 465.75 339.5H533.75C540.377 339.5 545.75 334.14 545.75 327.513V310C545.75 296.344 554.128 290.337 563.111 283.895C564.653 282.79 566.212 281.672 567.75 280.5C596.289 259.063 617.25 222.442 617.25 184C617.25 119.19 564.779 71.6352 500 71.5003C435.221 71.6352 382.75 119.19 382.75 184C382.75 222.442 403.211 259.063 431.75 280.5C433.288 281.672 434.847 282.79 436.389 283.895ZM406.919 177.495C409.464 132.744 440.425 99.6102 484.162 96.7069C487.501 96.4852 490.218 99.2374 490.178 102.584L490.168 103.497C490.129 106.778 487.45 109.391 484.182 109.684C449.767 112.778 424.522 142.039 421.947 177.501C421.707 180.806 419.043 183.5 415.73 183.5H412.75C409.436 183.5 406.731 180.804 406.919 177.495Z" fill="#1B1B1B"/>
<path d="M460 352.5C460 348.634 463.134 345.5 467 345.5H533C536.866 345.5 540 348.634 540 352.5C540 356.366 536.866 359.5 533 359.5H467C463.134 359.5 460 356.366 460 352.5Z" fill="#1B1B1B"/>
<path d="M466 371.5C466 368.186 468.686 365.5 472 365.5H528C531.314 365.5 534 368.186 534 371.5C534 374.814 531.314 377.5 528 377.5H472C468.686 377.5 466 374.814 466 371.5Z" fill="#1B1B1B"/>
</svg>
