<svg width="1259" height="681" viewBox="0 0 1259 681" fill="none" xmlns="http://www.w3.org/2000/svg">
<circle cx="304.5" cy="205.5" r="113.5" fill="#1B1B1B" stroke="#1B1B1B" stroke-width="2"/>
<circle cx="952.5" cy="213.5" r="113.5" fill="#1B1B1B" stroke="#1B1B1B" stroke-width="2"/>
<path d="M571.5 156C586.5 130.5 618.725 125.953 642.229 142.403C665.72 158.845 671.5 189.5 656.07 214.546C656.07 214.546 615 294.5 554.594 343.588C532.64 361.428 495.055 386.209 476.5 395.5C457.945 404.791 423.447 416.943 423.447 416.943V678.441H177.447V517.771C177.447 517.771 140.5 555 122.464 593.314C104.427 631.628 101.5 678.441 101.5 678.441H1.44531C1.44531 634.5 12.3217 588.5 27.4999 555C39.5065 528.5 60.3819 494.62 88.4983 467.5C156.998 391.5 232.5 354.427 310 343.588C387.5 332.748 428.551 319.222 483.709 273.867C483.709 273.867 519.937 242.191 537.465 217.24C553.195 194.849 558.849 180.264 571.5 156Z" fill="#1B1B1B" stroke="#1B1B1B" stroke-width="2"/>
<path d="M695.5 219.5C698.37 211.249 700.833 194 702 186.5C722 209.833 732 247 783 280C804.168 293.697 839.667 315.5 857.5 321.5L945.5 407.5L1023.5 363.5C1039.83 371.667 1078.37 390.785 1098 404C1124 421.5 1170.5 462 1209.5 521C1240.7 568.2 1253.5 626.5 1257 680H1155C1154 660 1157.89 653.952 1136 600.5C1114.5 548 1096 539.167 1079.5 521V680H835V420.5C810 411 778.829 397.068 757 382C700.5 343 652.5 292 652.5 292C652.5 292 687.5 242.5 695.5 219.5Z" fill="#1B1B1B" stroke="#1B1B1B" stroke-width="2"/>
<path d="M498 51.5001C502.166 54.6668 538 98 540.5 101.5C543 105 543.056 111 539.5 115C536.254 118.652 529 118.5 526 116C523 113.5 481 80.0001 476 76.5001C471 73 468.4 61.1 476 53.5C483.6 45.9 493.833 48.3335 498 51.5001Z" fill="#1B1B1B" stroke="#1B1B1B" stroke-width="2"/>
<path d="M604.108 19.6617C605.345 24.7467 605.838 80.9745 605.572 85.2674C605.306 89.5603 601.566 94.2526 596.284 95.1156C591.462 95.9036 585.927 91.2122 585.175 87.3803C584.423 83.5484 572.943 31.0649 571.269 25.1959C569.595 19.3268 575.08 8.45068 585.77 7.34328C596.461 6.23588 602.87 14.5767 604.108 19.6617Z" fill="#1B1B1B" stroke="#1B1B1B" stroke-width="2"/>
<path d="M709.226 54.5103C707.398 59.4142 676.267 106.24 673.639 109.645C671.011 113.05 665.282 114.837 660.426 112.588C655.991 110.536 654.041 103.548 655.568 99.9532C657.094 96.3588 677.029 46.4702 678.935 40.6724C680.841 34.8745 691.482 28.9468 700.954 34.0266C710.426 39.1064 711.053 49.6064 709.226 54.5103Z" fill="#1B1B1B" stroke="#1B1B1B" stroke-width="2"/>
<path d="M786.579 127.004C782.557 130.352 732.274 155.521 728.302 157.17C724.329 158.818 718.47 157.523 715.372 153.159C712.544 149.174 714.324 142.141 717.434 139.78C720.545 137.419 762.633 104.029 767.168 99.9448C771.703 95.8604 783.883 96.0033 789.579 105.118C795.275 114.233 790.602 123.656 786.579 127.004Z" fill="#1B1B1B" stroke="#1B1B1B" stroke-width="2"/>
</svg>
