<svg width="1003" height="800" viewBox="0 0 1003 800" fill="none" xmlns="http://www.w3.org/2000/svg">
<ellipse cx="254.332" cy="329.894" rx="102.716" ry="101.185" fill="#1B1B1B" stroke="#1B1B1B" stroke-width="2"/>
<ellipse cx="759.274" cy="337.026" rx="102.716" ry="101.185" fill="#1B1B1B" stroke="#1B1B1B" stroke-width="2"/>
<path d="M460.131 286.186C472.597 263.476 499.378 259.427 518.911 274.077C538.433 288.719 543.236 316.021 530.413 338.327C530.413 338.327 496.282 409.533 446.081 453.25C427.836 469.139 396.601 491.209 381.181 499.483C365.76 507.758 337.091 518.58 337.091 518.58V751.469H132.652V608.377C132.652 608.377 101.947 641.533 86.958 675.655C71.9687 709.777 69.536 751.469 69.536 751.469H1C1 712.335 6.68132 672.591 16.3893 641.533C24.2552 616.368 37.304 589.519 58.7311 563.606C113.508 493.872 178.404 462.904 242.811 453.25C307.217 443.597 341.333 431.551 387.172 391.158C387.172 391.158 417.28 362.947 431.846 340.726C444.919 320.785 449.617 307.796 460.131 286.186Z" fill="#1B1B1B" stroke="#1B1B1B" stroke-width="2"/>
<path d="M548.155 343.047C550.556 335.689 552.616 320.307 553.592 313.619C570.32 334.427 578.685 367.571 621.343 396.999C639.048 409.214 668.74 428.657 683.657 434.008L757.263 510.7L822.504 471.462C836.166 478.745 868.395 495.794 884.818 507.579C906.565 523.185 947.42 555.505 973.878 611.917C993.354 653.444 998.073 705.998 1001 753.708H923.039C922.202 735.873 920.859 722.894 913.451 682.812C905.696 640.856 883.145 628.117 869.344 611.917V753.708H664.837V522.293C643.926 513.822 617.854 501.397 599.595 487.96C552.337 453.181 512.188 407.701 512.188 407.701C512.188 407.701 541.464 363.558 548.155 343.047Z" fill="#1B1B1B" stroke="#1B1B1B" stroke-width="2"/>
<path d="M331.768 107.77C337.834 112.32 390 174.589 393.639 179.618C397.279 184.647 397.359 193.269 392.183 199.017C387.457 204.265 376.898 204.047 372.53 200.454C368.163 196.862 307.02 148.723 299.741 143.694C292.463 138.664 288.677 121.565 299.741 110.644C310.805 99.7226 325.703 103.219 331.768 107.77Z" fill="#1B1B1B" stroke="#1B1B1B" stroke-width="2"/>
<path d="M471.206 74.1544C473.026 81.5184 473.75 162.946 473.359 169.163C472.968 175.38 467.47 182.175 459.705 183.425C452.616 184.566 444.48 177.772 443.374 172.223C442.267 166.674 425.392 90.6683 422.931 82.1689C420.47 73.6695 428.532 57.9189 444.249 56.3152C459.965 54.7115 469.387 66.7904 471.206 74.1544Z" fill="#1B1B1B" stroke="#1B1B1B" stroke-width="2"/>
<path d="M602.455 110.807C599.768 117.909 554.002 185.721 550.139 190.652C546.275 195.582 537.854 198.17 530.714 194.914C524.195 191.942 521.328 181.822 523.572 176.616C525.816 171.411 555.123 99.1634 557.925 90.7671C560.727 82.3708 576.37 73.7864 590.295 81.1429C604.219 88.4993 605.142 103.705 602.455 110.807Z" fill="#1B1B1B" stroke="#1B1B1B" stroke-width="2"/>
<path d="M693.443 212.677C687.529 217.525 613.609 253.974 607.769 256.362C601.929 258.75 593.316 256.874 588.762 250.554C584.604 244.783 587.22 234.597 591.793 231.178C596.366 227.76 658.239 179.405 664.906 173.49C671.573 167.575 689.479 167.782 697.852 180.982C706.226 194.181 699.356 207.829 693.443 212.677Z" fill="#1B1B1B" stroke="#1B1B1B" stroke-width="2"/>
</svg>
