<svg width="32" height="32" viewBox="0 0 32 32" fill="none" xmlns="http://www.w3.org/2000/svg">
<path d="M28 22.0857V8.29397C28 6.92279 26.824 5.90584 25.396 6.0201H25.324C22.804 6.22578 18.976 7.44841 16.84 8.72818L16.636 8.85387C16.288 9.05954 15.712 9.05954 15.364 8.85387L15.064 8.68247C12.928 7.41413 9.112 6.20292 6.592 6.00867C5.164 5.89441 4 6.92279 4 8.28254V22.0857C4 23.1827 4.936 24.211 6.088 24.3482L6.436 24.3939C9.04 24.7252 13.06 25.9822 15.364 27.1819L15.412 27.2048C15.736 27.3762 16.252 27.3762 16.564 27.2048C18.868 25.9936 22.9 24.7252 25.516 24.3939L25.912 24.3482C27.064 24.211 28 23.1827 28 22.0857Z" stroke="#505050" stroke-width="1.8" stroke-linecap="round" stroke-linejoin="round"/>
<path d="M16 10L16 27.3333" stroke="#505050" stroke-width="1.8" stroke-linecap="round" stroke-linejoin="round"/>
<path d="M10.6667 12.6666H8" stroke="#505050" stroke-width="1.8" stroke-linecap="round" stroke-linejoin="round"/>
<path d="M12 16.6666H8" stroke="#505050" stroke-width="1.8" stroke-linecap="round" stroke-linejoin="round"/>
</svg>
