<svg width="794" height="75" viewBox="0 0 794 75" fill="none" xmlns="http://www.w3.org/2000/svg">
<path d="M0.408 0.916996H8.313C9.197 0.916996 9.911 1.138 10.455 1.58C10.999 2.022 11.407 2.583 11.679 3.263L32.334 54.824C32.81 55.98 33.235 57.238 33.609 58.598C34.017 59.958 34.408 61.369 34.782 62.831C35.088 61.369 35.411 59.958 35.751 58.598C36.125 57.238 36.55 55.98 37.026 54.824L57.579 3.263C57.817 2.685 58.225 2.158 58.803 1.68199C59.381 1.172 60.095 0.916996 60.945 0.916996H68.901L39.117 74H30.192L0.408 0.916996ZM89.9321 74H80.0381V0.916996H89.9321V74ZM160.989 58.904C161.533 58.904 162.026 59.125 162.468 59.567L166.344 63.8C163.352 67.268 159.714 69.971 155.43 71.909C151.18 73.847 146.046 74.816 140.028 74.816C134.758 74.816 129.981 73.915 125.697 72.113C121.413 70.277 117.758 67.727 114.732 64.463C111.706 61.165 109.36 57.221 107.694 52.631C106.028 48.041 105.195 42.992 105.195 37.484C105.195 31.976 106.079 26.927 107.847 22.337C109.649 17.747 112.165 13.803 115.395 10.505C118.625 7.207 122.484 4.657 126.972 2.85499C131.494 1.01899 136.475 0.100994 141.915 0.100994C147.287 0.100994 151.911 0.933994 155.787 2.6C159.697 4.266 163.165 6.527 166.191 9.383L162.978 13.922C162.74 14.262 162.468 14.551 162.162 14.789C161.856 14.993 161.414 15.095 160.836 15.095C160.394 15.095 159.918 14.942 159.408 14.636C158.932 14.296 158.354 13.888 157.674 13.412C156.994 12.936 156.195 12.426 155.277 11.882C154.359 11.338 153.271 10.828 152.013 10.352C150.755 9.876 149.293 9.485 147.627 9.179C145.961 8.839 144.04 8.669 141.864 8.669C137.954 8.669 134.367 9.349 131.103 10.709C127.873 12.035 125.085 13.939 122.739 16.421C120.393 18.903 118.557 21.929 117.231 25.499C115.939 29.069 115.293 33.064 115.293 37.484C115.293 42.04 115.939 46.103 117.231 49.673C118.557 53.243 120.342 56.269 122.586 58.751C124.864 61.199 127.55 63.069 130.644 64.361C133.738 65.653 137.07 66.299 140.64 66.299C142.816 66.299 144.771 66.18 146.505 65.942C148.239 65.67 149.837 65.262 151.299 64.718C152.795 64.174 154.172 63.494 155.43 62.678C156.722 61.828 158.014 60.825 159.306 59.669C159.884 59.159 160.445 58.904 160.989 58.904ZM190.169 32.945H193.892C195.184 32.945 196.204 32.792 196.952 32.486C197.734 32.146 198.465 31.585 199.145 30.803L223.472 3.263C224.22 2.413 224.934 1.818 225.614 1.478C226.328 1.104 227.229 0.916996 228.317 0.916996H236.732L208.886 32.384C208.172 33.166 207.492 33.829 206.846 34.373C206.234 34.917 205.571 35.359 204.857 35.699C205.809 36.005 206.642 36.464 207.356 37.076C208.07 37.688 208.818 38.453 209.6 39.371L238.67 74H230.102C229.456 74 228.912 73.949 228.47 73.847C228.028 73.745 227.637 73.609 227.297 73.439C226.991 73.269 226.702 73.048 226.43 72.776C226.158 72.504 225.886 72.215 225.614 71.909L200.369 42.89C199.995 42.482 199.638 42.142 199.298 41.87C198.992 41.564 198.618 41.309 198.176 41.105C197.768 40.901 197.275 40.765 196.697 40.697C196.153 40.595 195.473 40.544 194.657 40.544H190.169V74H180.326V0.916996H190.169V32.945ZM276.885 44.93V74H267.042V44.93L240.267 0.916996H248.937C249.821 0.916996 250.518 1.138 251.028 1.58C251.538 2.022 251.98 2.566 252.354 3.212L269.082 31.619C269.762 32.809 270.323 33.931 270.765 34.985C271.241 36.039 271.666 37.076 272.04 38.096C272.414 37.042 272.822 35.988 273.264 34.934C273.706 33.88 274.267 32.775 274.947 31.619L291.624 3.212C291.93 2.668 292.338 2.158 292.848 1.68199C293.392 1.172 294.089 0.916996 294.939 0.916996H303.711L276.885 44.93ZM304.722 0.916996H312.933C313.817 0.916996 314.548 1.138 315.126 1.58C315.704 2.022 316.095 2.583 316.299 3.263L331.395 54.059C331.667 54.977 331.905 55.963 332.109 57.017C332.347 58.071 332.568 59.176 332.772 60.332C333.01 59.176 333.248 58.071 333.486 57.017C333.724 55.929 333.996 54.943 334.302 54.059L351.489 3.263C351.693 2.685 352.084 2.158 352.662 1.68199C353.274 1.172 354.005 0.916996 354.855 0.916996H357.711C358.595 0.916996 359.309 1.138 359.853 1.58C360.431 2.022 360.839 2.583 361.077 3.263L378.162 54.059C378.774 55.827 379.318 57.85 379.794 60.128C379.998 59.006 380.185 57.935 380.355 56.915C380.525 55.895 380.746 54.943 381.018 54.059L396.165 3.263C396.335 2.651 396.709 2.107 397.287 1.631C397.899 1.155 398.63 0.916996 399.48 0.916996H407.181L384.384 74H375.51L356.997 18.257C356.623 17.203 356.283 15.979 355.977 14.585C355.807 15.265 355.637 15.928 355.467 16.574C355.331 17.186 355.178 17.747 355.008 18.257L336.393 74H327.519L304.722 0.916996ZM472.122 74H464.472C463.588 74 462.874 73.779 462.33 73.337C461.786 72.895 461.378 72.334 461.106 71.654L454.272 54.008H421.479L414.645 71.654C414.407 72.266 413.999 72.81 413.421 73.286C412.843 73.762 412.129 74 411.279 74H403.629L432.852 0.916996H442.899L472.122 74ZM424.233 46.868H451.518L440.043 17.135C439.295 15.299 438.564 13.004 437.85 10.25C437.476 11.644 437.102 12.936 436.728 14.126C436.388 15.282 436.048 16.302 435.708 17.186L424.233 46.868ZM486.421 0.916996C487.305 0.916996 487.951 1.036 488.359 1.27399C488.801 1.478 489.294 1.92 489.838 2.6L532.168 57.68C532.066 56.796 531.998 55.946 531.964 55.13C531.93 54.28 531.913 53.464 531.913 52.682V0.916996H540.583V74H535.585C534.803 74 534.14 73.864 533.596 73.592C533.086 73.32 532.576 72.861 532.066 72.215L489.787 17.186C489.855 18.036 489.906 18.869 489.94 19.685C489.974 20.501 489.991 21.249 489.991 21.929V74H481.321V0.916996H486.421ZM591.008 66.809C592.98 66.809 594.782 66.724 596.414 66.554C598.08 66.35 599.644 66.061 601.106 65.687C602.568 65.313 603.945 64.871 605.237 64.361C606.529 63.817 607.821 63.205 609.113 62.525V46.409H597.791C597.145 46.409 596.618 46.222 596.21 45.848C595.836 45.474 595.649 45.015 595.649 44.471V38.861H618.089V66.911C616.253 68.237 614.332 69.393 612.326 70.379C610.354 71.365 608.229 72.198 605.951 72.878C603.707 73.524 601.293 74 598.709 74.306C596.125 74.646 593.32 74.816 590.294 74.816C584.99 74.816 580.128 73.915 575.708 72.113C571.288 70.277 567.48 67.727 564.284 64.463C561.088 61.165 558.589 57.221 556.787 52.631C555.019 48.041 554.135 42.992 554.135 37.484C554.135 31.908 555.002 26.825 556.736 22.235C558.504 17.645 561.003 13.718 564.233 10.454C567.497 7.156 571.424 4.606 576.014 2.804C580.638 1.002 585.806 0.100994 591.518 0.100994C594.408 0.100994 597.094 0.321994 599.576 0.763994C602.058 1.172 604.353 1.784 606.461 2.6C608.603 3.382 610.575 4.351 612.377 5.507C614.179 6.629 615.862 7.904 617.426 9.332L614.621 13.82C614.043 14.738 613.295 15.197 612.377 15.197C611.833 15.197 611.238 15.01 610.592 14.636C609.742 14.16 608.79 13.582 607.736 12.902C606.682 12.222 605.39 11.576 603.86 10.964C602.364 10.318 600.579 9.774 598.505 9.332C596.465 8.89 594.034 8.669 591.212 8.669C587.098 8.669 583.375 9.349 580.043 10.709C576.711 12.035 573.872 13.956 571.526 16.472C569.18 18.954 567.378 21.98 566.12 25.55C564.862 29.086 564.233 33.064 564.233 37.484C564.233 42.108 564.879 46.239 566.171 49.877C567.497 53.481 569.35 56.541 571.73 59.057C574.11 61.573 576.932 63.494 580.196 64.82C583.46 66.146 587.064 66.809 591.008 66.809ZM628.939 68.39C628.939 67.506 629.092 66.673 629.398 65.891C629.738 65.109 630.18 64.429 630.724 63.851C631.302 63.273 631.982 62.814 632.764 62.474C633.546 62.134 634.379 61.964 635.263 61.964C636.147 61.964 636.98 62.134 637.762 62.474C638.544 62.814 639.224 63.273 639.802 63.851C640.38 64.429 640.822 65.109 641.128 65.891C641.468 66.673 641.638 67.506 641.638 68.39C641.638 69.308 641.468 70.158 641.128 70.94C640.822 71.688 640.38 72.351 639.802 72.929C639.224 73.507 638.544 73.949 637.762 74.255C636.98 74.595 636.147 74.765 635.263 74.765C634.379 74.765 633.546 74.595 632.764 74.255C631.982 73.949 631.302 73.507 630.724 72.929C630.18 72.351 629.738 71.688 629.398 70.94C629.092 70.158 628.939 69.308 628.939 68.39ZM690.895 47.582C691.371 48.398 691.779 49.265 692.119 50.183C692.493 51.067 692.85 51.968 693.19 52.886C693.53 51.934 693.887 51.033 694.261 50.183C694.635 49.299 695.06 48.415 695.536 47.531L720.271 2.6C720.713 1.818 721.172 1.342 721.648 1.172C722.124 1.002 722.804 0.916996 723.688 0.916996H730.981V74H722.311V20.297C722.311 19.583 722.328 18.818 722.362 18.002C722.396 17.186 722.447 16.353 722.515 15.503L697.474 61.199C696.624 62.729 695.434 63.494 693.904 63.494H692.476C690.946 63.494 689.756 62.729 688.906 61.199L663.304 15.35C663.406 16.234 663.474 17.101 663.508 17.951C663.576 18.801 663.61 19.583 663.61 20.297V74H654.94V0.916996H662.233C663.117 0.916996 663.797 1.002 664.273 1.172C664.749 1.342 665.208 1.818 665.65 2.6L690.895 47.582ZM793.805 0.916996V8.975H758.717V33.251H787.124V41.003H758.717V65.942H793.805V74H748.772V0.916996H793.805Z" fill="#1B1B1B"/>
</svg>
