<svg width="32" height="32" viewBox="0 0 32 32" fill="none" xmlns="http://www.w3.org/2000/svg">
<path d="M6.67326 19.9355L12.0691 25.3367C14.2846 27.5544 17.8818 27.5544 20.1093 25.3367L25.3384 20.1024C27.5539 17.8847 27.5539 14.2839 25.3384 12.0542L19.9306 6.66492C18.799 5.53221 17.2386 4.92413 15.6425 5.00759L9.68683 5.29375C7.30456 5.40106 5.41065 7.29685 5.29154 9.66958L5.00567 15.6312C4.9342 17.2408 5.54168 18.8028 6.67326 19.9355Z" stroke="#505050" stroke-width="1.5" stroke-linecap="round" stroke-linejoin="round"/>
<path d="M13 16C14.6569 16 16 14.6569 16 13C16 11.3431 14.6569 10 13 10C11.3431 10 10 11.3431 10 13C10 14.6569 11.3431 16 13 16Z" stroke="#505050" stroke-width="1.5" stroke-linecap="round"/>
</svg>
