<svg width="24" height="24" viewBox="0 0 24 24" fill="none" xmlns="http://www.w3.org/2000/svg">
<path d="M15 8.36997V7.40997C15 4.42997 12.93 3.28997 10.41 4.86997L7.49 6.69997C7.17 6.88997 6.8 6.99997 6.43 6.99997H5C3 6.99997 2 7.99997 2 9.99997V14C2 16 3 17 5 17H7" stroke="#292D32" stroke-width="1.5" stroke-linecap="round" stroke-linejoin="round"/>
<path d="M10.4099 19.13C12.9299 20.71 14.9999 19.56 14.9999 16.59V12.95" stroke="#292D32" stroke-width="1.5" stroke-linecap="round" stroke-linejoin="round"/>
<path d="M18.81 9.41998C19.71 11.57 19.44 14.08 18 16" stroke="#292D32" stroke-width="1.5" stroke-linecap="round" stroke-linejoin="round"/>
<path d="M21.1501 7.79999C22.6201 11.29 22.1801 15.37 19.8301 18.5" stroke="#292D32" stroke-width="1.5" stroke-linecap="round" stroke-linejoin="round"/>
<path d="M22 2L2 22" stroke="#292D32" stroke-width="1.5" stroke-linecap="round" stroke-linejoin="round"/>
</svg>
