<svg xmlns="http://www.w3.org/2000/svg" viewBox="0 0 360 360"><defs><style>.cls-1{fill:none;stroke:#000;stroke-linecap:round;stroke-linejoin:round;stroke-width:5px;}.cls-2{fill:#020202;}</style></defs><title>Icons</title><g id="Edge"><rect class="cls-1" x="7.2" y="7.2" width="345.6" height="345.6" rx="21.6"/></g><g id="Layer_3" data-name="Layer 3"><path class="cls-2" d="M193.85,54.87A126.07,126.07,0,1,0,303.63,195.35,126.07,126.07,0,0,0,193.85,54.87ZM210,281.11v-20.5a61.63,61.63,0,0,0-1.82-9.7,22.6,22.6,0,0,0-8.13-11.45,107.75,107.75,0,0,0,26.63-6.06,62,62,0,0,0,13.49-8.68,56.2,56.2,0,0,0,16.3-36.12A75.24,75.24,0,0,0,255,166.87a47,47,0,0,0-11.16-19.71,41.93,41.93,0,0,0-1.23-32,41.77,41.77,0,0,0-6.52.15,60.89,60.89,0,0,0-26.7,12.42,92.92,92.92,0,0,0-30.88-4.38,93,93,0,0,0-30.89,4.38,60.89,60.89,0,0,0-26.7-12.42,41.77,41.77,0,0,0-6.52-.15,42,42,0,0,0-1.23,32A47.1,47.1,0,0,0,102,166.87a74.89,74.89,0,0,0-1.51,21.73,56.19,56.19,0,0,0,16.29,36.12,62,62,0,0,0,13.49,8.68,107.75,107.75,0,0,0,26.63,6.06,22.6,22.6,0,0,0-8.13,11.45,61.63,61.63,0,0,0-1.82,9.7v20.5a105.91,105.91,0,1,1,63.09,0Z"/></g></svg>