<svg xmlns="http://www.w3.org/2000/svg" viewBox="0 0 360 360"><defs><style>.cls-1{fill:none;stroke:#000;stroke-linecap:round;stroke-linejoin:round;stroke-width:5px;}</style></defs><title>Icons</title><g id="logo"><rect x="57" y="130.46" width="54.65" height="162.72"/><ellipse cx="84.36" cy="79.85" rx="31.9" ry="28.71"/><path d="M252.9,198.32v94.53c0,.15-.05.33.17.33h54.14c.12,0,.34.17.34-.05V196.59c0-9.37.52-16.06-2.12-25.34A62,62,0,0,0,263,129.12c-7.06-2-18.07-3.06-25.4-2.16a58.51,58.51,0,0,0-29.37,12.6,48.39,48.39,0,0,0-9.95,10.84c-.6.91-1.17,1.85-1.7,2.8-.15.26-.06-.29-.06-.44V131c0-.24.08-.52-.27-.52H142.58c-.14,0-.75-.22-.75.06V292.91c0,.23.14.27.34.27h53c.21,0,1.31.2,1.31-.21V197a16.88,16.88,0,0,1,.08-2.84,31.21,31.21,0,0,1,.76-3.45,30.28,30.28,0,0,1,2.89-6.84A28.09,28.09,0,0,1,211.05,173c8.08-4.62,19.43-5.25,27.76-.67C248.34,177.54,252.94,188,252.9,198.32Z"/></g><g id="Layer_3" data-name="Layer 3"><rect class="cls-1" x="7.2" y="6.91" width="345.6" height="345.6" rx="21.6"/></g></svg>