<svg width="160" height="155" viewBox="0 0 160 155" fill="none" xmlns="http://www.w3.org/2000/svg">
<path d="M46.2 26H114.2C120.639 26 125.368 26.0021 128.99 26.489C132.582 26.972 134.935 27.9155 136.709 29.6905C138.484 31.4654 139.428 33.8178 139.911 37.4103C140.398 41.0317 140.4 45.7606 140.4 52.2V112.4H20V52.2C20 45.7606 20.0021 41.0317 20.489 37.4103C20.972 33.8178 21.9155 31.4654 23.6905 29.6905C25.4654 27.9155 27.8178 26.972 31.4103 26.489C35.0317 26.0021 39.7606 26 46.2 26Z" stroke="#777777" stroke-width="2"/>
<path d="M136.867 112.401H23.5333C20.4774 112.401 18 114.878 18 117.934C18 123.494 22.507 128.001 28.0667 128.001H132.333C137.893 128.001 142.4 123.494 142.4 117.934C142.4 114.878 139.923 112.401 136.867 112.401Z" stroke="#777777" stroke-width="2"/>
</svg>
