<svg width="160" height="155" viewBox="0 0 160 155" fill="none" xmlns="http://www.w3.org/2000/svg">
<path d="M123.4 42.2L123.4 110.2C123.4 116.639 123.398 121.368 122.911 124.99C122.428 128.582 121.484 130.935 119.71 132.709C117.935 134.484 115.582 135.428 111.99 135.911C108.368 136.398 103.639 136.4 97.2 136.4L60 136.4C54.3149 136.4 50.1516 136.398 46.966 135.97C43.8091 135.545 41.7624 134.719 40.2218 133.178C38.6812 131.638 37.8548 129.591 37.4304 126.434C37.0021 123.248 37 119.085 37 113.4L37 39C37 33.3149 37.0021 29.1516 37.4304 25.966C37.8549 22.8091 38.6812 20.7624 40.2218 19.2218C41.7624 17.6812 43.8091 16.8549 46.966 16.4304C50.1516 16.0021 54.3149 16 60 16L97.2 16C103.639 16 108.368 16.0021 111.99 16.489C115.582 16.972 117.935 17.9155 119.71 19.6905C121.484 21.4654 122.428 23.8178 122.911 27.4103C123.398 31.0317 123.4 35.7606 123.4 42.2Z" stroke="#777777" stroke-width="2"/>
<circle cx="79.9" cy="123.501" r="4.5" fill="#AAAAAA"/>
</svg>
