<svg width="1512" height="900" viewBox="0 0 1512 900" fill="none" xmlns="http://www.w3.org/2000/svg">
<rect x="0.05" y="0.05" width="1511.9" height="899.9" rx="15.95" fill="white"/>
<path d="M471.395 422L445.115 485H444.215L417.935 422H418.745C419.015 422 419.195 422.15 419.285 422.45L443.945 481.67C444.095 482 444.215 482.315 444.305 482.615C444.425 482.915 444.545 483.23 444.665 483.56C444.785 483.23 444.89 482.915 444.98 482.615C445.1 482.315 445.235 482 445.385 481.67L470.045 422.45C470.135 422.15 470.345 422 470.675 422H471.395ZM484.825 485H483.745V422H484.825V485ZM552.247 476.495C552.367 476.495 552.472 476.54 552.562 476.63L552.967 476.99C551.647 478.28 550.222 479.465 548.692 480.545C547.192 481.595 545.542 482.51 543.742 483.29C541.942 484.04 539.962 484.625 537.802 485.045C535.642 485.495 533.257 485.72 530.647 485.72C526.417 485.72 522.517 484.985 518.947 483.515C515.377 482.015 512.287 479.87 509.677 477.08C507.067 474.29 505.027 470.915 503.557 466.955C502.117 462.965 501.397 458.48 501.397 453.5C501.397 448.7 502.117 444.32 503.557 440.36C505.027 436.4 507.082 433.01 509.722 430.19C512.392 427.34 515.572 425.15 519.262 423.62C522.982 422.06 527.077 421.28 531.547 421.28C533.617 421.28 535.567 421.445 537.397 421.775C539.227 422.075 540.952 422.54 542.572 423.17C544.222 423.8 545.797 424.58 547.297 425.51C548.797 426.41 550.267 427.46 551.707 428.66L551.527 428.93C551.467 429.05 551.317 429.11 551.077 429.11C550.867 429.11 550.327 428.75 549.457 428.03C548.617 427.31 547.402 426.515 545.812 425.645C544.222 424.775 542.242 423.98 539.872 423.26C537.532 422.54 534.757 422.18 531.547 422.18C527.287 422.18 523.372 422.915 519.802 424.385C516.262 425.825 513.202 427.91 510.622 430.64C508.072 433.34 506.077 436.625 504.637 440.495C503.197 444.365 502.477 448.7 502.477 453.5C502.477 458.39 503.182 462.77 504.592 466.64C506.032 470.51 508.012 473.795 510.532 476.495C513.052 479.195 516.022 481.265 519.442 482.705C522.892 484.115 526.627 484.82 530.647 484.82C533.197 484.82 535.477 484.64 537.487 484.28C539.497 483.92 541.327 483.395 542.977 482.705C544.657 482.015 546.202 481.175 547.612 480.185C549.052 479.165 550.477 478.01 551.887 476.72C552.037 476.57 552.157 476.495 552.247 476.495ZM568.233 452.42H572.463C573.033 452.42 573.513 452.405 573.903 452.375C574.323 452.345 574.683 452.285 574.983 452.195C575.313 452.075 575.628 451.91 575.928 451.7C576.228 451.49 576.543 451.22 576.873 450.89L606.213 422.72C606.543 422.45 606.813 422.27 607.023 422.18C607.233 422.06 607.503 422 607.833 422H608.373L577.773 451.34C577.233 451.82 576.783 452.165 576.423 452.375C576.093 452.585 575.643 452.75 575.073 452.87C575.613 452.96 576.078 453.125 576.468 453.365C576.858 453.575 577.263 453.89 577.683 454.31L610.173 485H609.723C609.273 485 608.943 484.955 608.733 484.865C608.553 484.775 608.343 484.61 608.103 484.37L577.143 455.12C576.813 454.82 576.513 454.55 576.243 454.31C575.973 454.07 575.673 453.89 575.343 453.77C575.043 453.62 574.668 453.515 574.218 453.455C573.768 453.365 573.183 453.32 572.463 453.32H568.233V485H567.153V422H568.233V452.42ZM637.922 458.225V485H636.842V458.225L613.352 422H614.252C614.522 422 614.732 422.12 614.882 422.36L636.077 455.21C636.317 455.6 636.557 455.975 636.797 456.335C637.037 456.665 637.232 457.01 637.382 457.37C637.562 457.01 637.757 456.665 637.967 456.335C638.207 455.975 638.447 455.6 638.687 455.21L659.882 422.36C660.032 422.12 660.242 422 660.512 422H661.412L637.922 458.225ZM750.361 422L730.381 485H729.481L708.511 424.52C708.421 424.22 708.346 423.965 708.286 423.755C708.226 423.515 708.166 423.29 708.106 423.08C708.016 423.47 707.881 423.95 707.701 424.52L686.731 485H685.831L665.851 422H666.661C666.931 422 667.111 422.15 667.201 422.45L685.606 481.265C685.816 481.985 686.041 482.795 686.281 483.695C686.491 482.795 686.716 481.985 686.956 481.265L707.431 422.45C707.521 422.15 707.731 422 708.061 422H708.241C708.511 422 708.691 422.15 708.781 422.45L729.256 481.265C729.466 481.985 729.691 482.795 729.931 483.695C730.141 482.795 730.366 481.985 730.606 481.265L749.011 422.45C749.101 422.15 749.311 422 749.641 422H750.361ZM795.158 462.59L779.633 425.33C779.483 425 779.348 424.685 779.228 424.385C779.138 424.085 779.033 423.77 778.913 423.44C778.793 423.77 778.673 424.085 778.553 424.385C778.463 424.685 778.343 425 778.193 425.33L762.668 462.59H795.158ZM805.643 485H804.833C804.563 485 804.383 484.85 804.293 484.55L795.518 463.49H762.308L753.533 484.55C753.443 484.85 753.233 485 752.903 485H752.183L778.463 422H779.363L805.643 485ZM864.433 422V485H864.163C863.983 485 863.818 484.895 863.668 484.685L818.848 423.665C818.878 423.875 818.893 424.07 818.893 424.25C818.893 424.43 818.893 424.61 818.893 424.79V485H817.993V422H818.353C818.623 422 818.833 422.12 818.983 422.36L863.578 483.065C863.548 482.915 863.533 482.765 863.533 482.615C863.533 482.435 863.533 482.27 863.533 482.12V422H864.433ZM934.862 457.91V478.79C933.302 479.84 931.697 480.8 930.047 481.67C928.397 482.51 926.657 483.23 924.827 483.83C923.027 484.43 921.107 484.895 919.067 485.225C917.057 485.555 914.912 485.72 912.632 485.72C907.712 485.72 903.302 484.985 899.402 483.515C895.502 482.015 892.187 479.87 889.457 477.08C886.757 474.29 884.672 470.915 883.202 466.955C881.762 462.965 881.042 458.48 881.042 453.5C881.042 448.55 881.762 444.095 883.202 440.135C884.642 436.145 886.712 432.755 889.412 429.965C892.112 427.175 895.367 425.03 899.177 423.53C903.017 422.03 907.322 421.28 912.092 421.28C914.432 421.28 916.577 421.43 918.527 421.73C920.477 422 922.292 422.435 923.972 423.035C925.652 423.605 927.227 424.355 928.697 425.285C930.197 426.185 931.652 427.25 933.062 428.48L932.882 428.75C932.792 428.93 932.642 429.02 932.432 429.02C932.282 429.02 932.012 428.855 931.622 428.525C931.262 428.165 930.737 427.745 930.047 427.265C929.357 426.755 928.487 426.2 927.437 425.6C926.387 425 925.127 424.46 923.657 423.98C922.187 423.47 920.492 423.05 918.572 422.72C916.682 422.36 914.522 422.18 912.092 422.18C907.532 422.18 903.407 422.9 899.717 424.34C896.027 425.75 892.877 427.805 890.267 430.505C887.657 433.205 885.647 436.49 884.237 440.36C882.827 444.23 882.122 448.61 882.122 453.5C882.122 458.33 882.812 462.68 884.192 466.55C885.572 470.42 887.567 473.705 890.177 476.405C892.817 479.105 896.027 481.19 899.807 482.66C903.587 484.1 907.862 484.82 912.632 484.82C914.852 484.82 916.892 484.685 918.752 484.415C920.642 484.115 922.427 483.695 924.107 483.155C925.817 482.585 927.467 481.91 929.057 481.13C930.647 480.32 932.252 479.405 933.872 478.385V458.81H919.742C919.592 458.81 919.457 458.765 919.337 458.675C919.247 458.555 919.202 458.45 919.202 458.36V457.91H934.862ZM948.925 482.84C948.925 482.03 949.195 481.34 949.735 480.77C950.305 480.17 950.995 479.87 951.805 479.87C952.615 479.87 953.305 480.17 953.875 480.77C954.475 481.34 954.775 482.03 954.775 482.84C954.775 483.65 954.475 484.34 953.875 484.91C953.305 485.45 952.615 485.72 951.805 485.72C950.995 485.72 950.305 485.45 949.735 484.91C949.195 484.34 948.925 483.65 948.925 482.84ZM1032.08 422V485H1031.18V424.79C1031.18 424.64 1031.18 424.505 1031.18 424.385C1031.18 424.235 1031.19 424.085 1031.22 423.935L1003.64 471.95C1003.43 472.25 1003.22 472.4 1003.01 472.4H1002.74C1002.53 472.4 1002.32 472.25 1002.11 471.95L973.623 423.89C973.653 424.04 973.668 424.19 973.668 424.34C973.668 424.49 973.668 424.64 973.668 424.79V485H972.768V422H973.128C973.398 422 973.608 422.12 973.758 422.36L1002.38 470.555C1002.5 470.735 1002.59 470.9 1002.65 471.05C1002.74 471.2 1002.81 471.35 1002.87 471.5C1002.93 471.35 1002.99 471.2 1003.05 471.05C1003.14 470.9 1003.25 470.735 1003.37 470.555L1031.09 422.36C1031.24 422.12 1031.45 422 1031.72 422H1032.08ZM1089.82 484.01L1089.73 485H1052.92V422H1089.73V422.99H1054V452.51H1084.33V453.5H1054V484.01H1089.82Z" fill="#1B1B1B"/>
<rect x="0.05" y="0.05" width="1511.9" height="899.9" rx="15.95" stroke="#AAAAAA" stroke-width="0.1"/>
</svg>
