<svg width="1512" height="982" viewBox="0 0 1512 982" fill="none" xmlns="http://www.w3.org/2000/svg">
<rect width="1512" height="982" fill="#FAFAFA"/>
<path d="M723.24 346.52L676.52 459H672.6L625.88 346.52H629.32C630.227 346.52 630.813 346.973 631.08 347.88L672.84 448.6C673.16 449.453 673.453 450.333 673.72 451.24C674.04 452.093 674.333 452.973 674.6 453.88C675.08 452.067 675.64 450.307 676.28 448.6L717.96 347.88C718.227 346.973 718.867 346.52 719.88 346.52H723.24ZM882.845 346.52L847.245 459H843.325L807.645 355.16C807.272 354.093 806.978 353.027 806.765 351.96C806.552 353.027 806.258 354.093 805.885 355.16L770.045 459H766.205L730.605 346.52H734.205C735.112 346.52 735.698 346.973 735.965 347.88L767.005 447.8C767.538 449.613 767.992 451.533 768.365 453.56C768.578 452.493 768.792 451.48 769.005 450.52C769.272 449.56 769.538 448.653 769.805 447.8L804.445 347.88C804.712 346.973 805.352 346.52 806.365 346.52H807.405C808.312 346.52 808.898 346.973 809.165 347.88L843.805 447.8C844.338 449.453 844.818 451.347 845.245 453.48C845.458 452.413 845.672 451.427 845.885 450.52C846.098 449.56 846.338 448.653 846.605 447.8L877.645 347.88C877.912 346.973 878.552 346.52 879.565 346.52H882.845Z" fill="#1B1B1B"/>
<path d="M439.55 554L410.35 624H409.35L380.15 554H381.05C381.35 554 381.55 554.167 381.65 554.5L409.05 620.3C409.217 620.667 409.35 621.017 409.45 621.35C409.583 621.683 409.717 622.033 409.85 622.4C409.983 622.033 410.1 621.683 410.2 621.35C410.333 621.017 410.483 620.667 410.65 620.3L438.05 554.5C438.15 554.167 438.383 554 438.75 554H439.55ZM454.472 624H453.272V554H454.472V624ZM529.386 614.55C529.519 614.55 529.636 614.6 529.736 614.7L530.186 615.1C528.719 616.533 527.136 617.85 525.436 619.05C523.769 620.217 521.936 621.233 519.936 622.1C517.936 622.933 515.736 623.583 513.336 624.05C510.936 624.55 508.286 624.8 505.386 624.8C500.686 624.8 496.353 623.983 492.386 622.35C488.419 620.683 484.986 618.3 482.086 615.2C479.186 612.1 476.919 608.35 475.286 603.95C473.686 599.517 472.886 594.533 472.886 589C472.886 583.667 473.686 578.8 475.286 574.4C476.919 570 479.203 566.233 482.136 563.1C485.103 559.933 488.636 557.5 492.736 555.8C496.869 554.067 501.419 553.2 506.386 553.2C508.686 553.2 510.853 553.383 512.886 553.75C514.919 554.083 516.836 554.6 518.636 555.3C520.469 556 522.219 556.867 523.886 557.9C525.553 558.9 527.186 560.067 528.786 561.4L528.586 561.7C528.519 561.833 528.353 561.9 528.086 561.9C527.853 561.9 527.253 561.5 526.286 560.7C525.353 559.9 524.003 559.017 522.236 558.05C520.469 557.083 518.269 556.2 515.636 555.4C513.036 554.6 509.953 554.2 506.386 554.2C501.653 554.2 497.303 555.017 493.336 556.65C489.403 558.25 486.003 560.567 483.136 563.6C480.303 566.6 478.086 570.25 476.486 574.55C474.886 578.85 474.086 583.667 474.086 589C474.086 594.433 474.869 599.3 476.436 603.6C478.036 607.9 480.236 611.55 483.036 614.55C485.836 617.55 489.136 619.85 492.936 621.45C496.769 623.017 500.919 623.8 505.386 623.8C508.219 623.8 510.753 623.6 512.986 623.2C515.219 622.8 517.253 622.217 519.086 621.45C520.953 620.683 522.669 619.75 524.236 618.65C525.836 617.517 527.419 616.233 528.986 614.8C529.153 614.633 529.286 614.55 529.386 614.55ZM547.148 587.8H551.848C552.481 587.8 553.014 587.783 553.448 587.75C553.914 587.717 554.314 587.65 554.648 587.55C555.014 587.417 555.364 587.233 555.698 587C556.031 586.767 556.381 586.467 556.748 586.1L589.348 554.8C589.714 554.5 590.014 554.3 590.248 554.2C590.481 554.067 590.781 554 591.148 554H591.748L557.748 586.6C557.148 587.133 556.648 587.517 556.248 587.75C555.881 587.983 555.381 588.167 554.748 588.3C555.348 588.4 555.864 588.583 556.298 588.85C556.731 589.083 557.181 589.433 557.648 589.9L593.748 624H593.248C592.748 624 592.381 623.95 592.148 623.85C591.948 623.75 591.714 623.567 591.448 623.3L557.048 590.8C556.681 590.467 556.348 590.167 556.048 589.9C555.748 589.633 555.414 589.433 555.048 589.3C554.714 589.133 554.298 589.017 553.798 588.95C553.298 588.85 552.648 588.8 551.848 588.8H547.148V624H545.948V554H547.148V587.8ZM624.58 594.25V624H623.38V594.25L597.28 554H598.28C598.58 554 598.814 554.133 598.98 554.4L622.53 590.9C622.797 591.333 623.064 591.75 623.33 592.15C623.597 592.517 623.814 592.9 623.98 593.3C624.18 592.9 624.397 592.517 624.63 592.15C624.897 591.75 625.164 591.333 625.43 590.9L648.98 554.4C649.147 554.133 649.38 554 649.68 554H650.68L624.58 594.25ZM749.512 554L727.312 624H726.312L703.012 556.8C702.912 556.467 702.828 556.183 702.762 555.95C702.695 555.683 702.628 555.433 702.562 555.2C702.462 555.633 702.312 556.167 702.112 556.8L678.812 624H677.812L655.612 554H656.512C656.812 554 657.012 554.167 657.112 554.5L677.562 619.85C677.795 620.65 678.045 621.55 678.312 622.55C678.545 621.55 678.795 620.65 679.062 619.85L701.812 554.5C701.912 554.167 702.145 554 702.512 554H702.712C703.012 554 703.212 554.167 703.312 554.5L726.062 619.85C726.295 620.65 726.545 621.55 726.812 622.55C727.045 621.55 727.295 620.65 727.562 619.85L748.012 554.5C748.112 554.167 748.345 554 748.712 554H749.512ZM799.287 599.1L782.037 557.7C781.87 557.333 781.72 556.983 781.587 556.65C781.487 556.317 781.37 555.967 781.237 555.6C781.103 555.967 780.97 556.317 780.837 556.65C780.737 556.983 780.603 557.333 780.437 557.7L763.187 599.1H799.287ZM810.937 624H810.037C809.737 624 809.537 623.833 809.437 623.5L799.687 600.1H762.787L753.037 623.5C752.937 623.833 752.703 624 752.337 624H751.537L780.737 554H781.737L810.937 624ZM876.259 554V624H875.959C875.759 624 875.575 623.883 875.409 623.65L825.609 555.85C825.642 556.083 825.659 556.3 825.659 556.5C825.659 556.7 825.659 556.9 825.659 557.1V624H824.659V554H825.059C825.359 554 825.592 554.133 825.759 554.4L875.309 621.85C875.275 621.683 875.259 621.517 875.259 621.35C875.259 621.15 875.259 620.967 875.259 620.8V554H876.259ZM954.513 593.9V617.1C952.78 618.267 950.997 619.333 949.163 620.3C947.33 621.233 945.397 622.033 943.363 622.7C941.363 623.367 939.23 623.883 936.963 624.25C934.73 624.617 932.347 624.8 929.813 624.8C924.347 624.8 919.447 623.983 915.113 622.35C910.78 620.683 907.097 618.3 904.063 615.2C901.063 612.1 898.747 608.35 897.113 603.95C895.513 599.517 894.713 594.533 894.713 589C894.713 583.5 895.513 578.55 897.113 574.15C898.713 569.717 901.013 565.95 904.013 562.85C907.013 559.75 910.63 557.367 914.863 555.7C919.13 554.033 923.913 553.2 929.213 553.2C931.813 553.2 934.197 553.367 936.363 553.7C938.53 554 940.547 554.483 942.413 555.15C944.28 555.783 946.03 556.617 947.663 557.65C949.33 558.65 950.947 559.833 952.513 561.2L952.313 561.5C952.213 561.7 952.047 561.8 951.813 561.8C951.647 561.8 951.347 561.617 950.913 561.25C950.513 560.85 949.93 560.383 949.163 559.85C948.397 559.283 947.43 558.667 946.263 558C945.097 557.333 943.697 556.733 942.063 556.2C940.43 555.633 938.547 555.167 936.413 554.8C934.313 554.4 931.913 554.2 929.213 554.2C924.147 554.2 919.563 555 915.463 556.6C911.363 558.167 907.863 560.45 904.963 563.45C902.063 566.45 899.83 570.1 898.263 574.4C896.697 578.7 895.913 583.567 895.913 589C895.913 594.367 896.68 599.2 898.213 603.5C899.747 607.8 901.963 611.45 904.863 614.45C907.797 617.45 911.363 619.767 915.563 621.4C919.763 623 924.513 623.8 929.813 623.8C932.28 623.8 934.547 623.65 936.613 623.35C938.713 623.017 940.697 622.55 942.563 621.95C944.463 621.317 946.297 620.567 948.063 619.7C949.83 618.8 951.613 617.783 953.413 616.65V594.9H937.713C937.547 594.9 937.397 594.85 937.263 594.75C937.163 594.617 937.113 594.5 937.113 594.4V593.9H954.513ZM970.139 621.6C970.139 620.7 970.439 619.933 971.039 619.3C971.672 618.633 972.439 618.3 973.339 618.3C974.239 618.3 975.006 618.633 975.639 619.3C976.306 619.933 976.639 620.7 976.639 621.6C976.639 622.5 976.306 623.267 975.639 623.9C975.006 624.5 974.239 624.8 973.339 624.8C972.439 624.8 971.672 624.5 971.039 623.9C970.439 623.267 970.139 622.5 970.139 621.6ZM1062.53 554V624H1061.53V557.1C1061.53 556.933 1061.53 556.783 1061.53 556.65C1061.53 556.483 1061.55 556.317 1061.58 556.15L1030.93 609.5C1030.7 609.833 1030.46 610 1030.23 610H1029.93C1029.7 610 1029.46 609.833 1029.23 609.5L997.581 556.1C997.615 556.267 997.631 556.433 997.631 556.6C997.631 556.767 997.631 556.933 997.631 557.1V624H996.631V554H997.031C997.331 554 997.565 554.133 997.731 554.4L1029.53 607.95C1029.66 608.15 1029.76 608.333 1029.83 608.5C1029.93 608.667 1030.01 608.833 1030.08 609C1030.15 608.833 1030.21 608.667 1030.28 608.5C1030.38 608.333 1030.5 608.15 1030.63 607.95L1061.43 554.4C1061.6 554.133 1061.83 554 1062.13 554H1062.53ZM1126.69 622.9L1126.59 624H1085.69V554H1126.59V555.1H1086.89V587.9H1120.59V589H1086.89V622.9H1126.69Z" fill="#1B1B1B"/>
</svg>
