<svg width="1512" height="900" viewBox="0 0 1512 900" fill="none" xmlns="http://www.w3.org/2000/svg">
<g clip-path="url(#clip0_1333_1031)">
<path d="M0 16C0 7.16346 7.16344 0 16 0H1496C1504.84 0 1512 7.16344 1512 16V900H0V16Z" fill="#F5F5F5"/>
<rect width="1512" height="781" fill="#F5F5F5"/>
<g filter="url(#filter0_d_1333_1031)">
<path d="M160 66C160 57.1634 167.163 50 176 50H424C432.837 50 440 57.1634 440 66V314C440 322.837 432.837 330 424 330H176C167.163 330 160 322.837 160 314V66Z" fill="white" shape-rendering="crispEdges"/>
<path d="M191.375 66.3409C191.254 65.2652 190.754 64.4318 189.875 63.8409C188.996 63.2424 187.89 62.9432 186.557 62.9432C185.602 62.9432 184.777 63.0947 184.08 63.3977C183.383 63.6932 182.841 64.1023 182.455 64.625C182.076 65.1402 181.886 65.7273 181.886 66.3864C181.886 66.9394 182.015 67.4167 182.273 67.8182C182.538 68.2197 182.883 68.5568 183.307 68.8295C183.739 69.0947 184.201 69.3182 184.693 69.5C185.186 69.6742 185.659 69.8182 186.114 69.9318L188.386 70.5227C189.129 70.7045 189.89 70.9508 190.67 71.2614C191.451 71.572 192.174 71.9811 192.841 72.4886C193.508 72.9962 194.045 73.625 194.455 74.375C194.871 75.125 195.08 76.0227 195.08 77.0682C195.08 78.3864 194.739 79.5568 194.057 80.5795C193.383 81.6023 192.402 82.4091 191.114 83C189.833 83.5909 188.284 83.8864 186.466 83.8864C184.723 83.8864 183.216 83.6098 181.943 83.0568C180.67 82.5038 179.674 81.7197 178.955 80.7045C178.235 79.6818 177.837 78.4697 177.761 77.0682H181.284C181.352 77.9091 181.625 78.6098 182.102 79.1705C182.587 79.7235 183.205 80.1364 183.955 80.4091C184.712 80.6742 185.542 80.8068 186.443 80.8068C187.436 80.8068 188.318 80.6515 189.091 80.3409C189.871 80.0227 190.485 79.5833 190.932 79.0227C191.379 78.4545 191.602 77.7917 191.602 77.0341C191.602 76.3447 191.405 75.7803 191.011 75.3409C190.625 74.9015 190.098 74.5379 189.432 74.25C188.773 73.9621 188.027 73.7083 187.193 73.4886L184.443 72.7386C182.58 72.2311 181.102 71.4848 180.011 70.5C178.928 69.5152 178.386 68.2121 178.386 66.5909C178.386 65.25 178.75 64.0795 179.477 63.0795C180.205 62.0795 181.189 61.303 182.432 60.75C183.674 60.1894 185.076 59.9091 186.636 59.9091C188.212 59.9091 189.602 60.1856 190.807 60.7386C192.019 61.2917 192.973 62.053 193.67 63.0227C194.367 63.9848 194.731 65.0909 194.761 66.3409H191.375ZM210.06 76.2614V66.0455H213.469V83.5H210.128V80.4773H209.946C209.545 81.4091 208.901 82.1856 208.014 82.8068C207.135 83.4205 206.041 83.7273 204.73 83.7273C203.609 83.7273 202.616 83.4811 201.753 82.9886C200.897 82.4886 200.223 81.75 199.73 80.7727C199.245 79.7955 199.003 78.5871 199.003 77.1477V66.0455H202.401V76.7386C202.401 77.928 202.73 78.875 203.389 79.5795C204.048 80.2841 204.904 80.6364 205.957 80.6364C206.594 80.6364 207.226 80.4773 207.855 80.1591C208.491 79.8409 209.018 79.3598 209.435 78.7159C209.859 78.072 210.067 77.2538 210.06 76.2614ZM218.307 83.5V60.2273H221.705V68.875H221.909C222.106 68.5114 222.39 68.0909 222.761 67.6136C223.133 67.1364 223.648 66.7197 224.307 66.3636C224.966 66 225.837 65.8182 226.92 65.8182C228.33 65.8182 229.587 66.1742 230.693 66.8864C231.799 67.5985 232.667 68.625 233.295 69.9659C233.932 71.3068 234.25 72.9205 234.25 74.8068C234.25 76.6932 233.936 78.3106 233.307 79.6591C232.678 81 231.814 82.0341 230.716 82.7614C229.617 83.4811 228.364 83.8409 226.955 83.8409C225.894 83.8409 225.027 83.6629 224.352 83.3068C223.686 82.9508 223.163 82.5341 222.784 82.0568C222.405 81.5795 222.114 81.1553 221.909 80.7841H221.625V83.5H218.307ZM221.636 74.7727C221.636 76 221.814 77.0758 222.17 78C222.527 78.9242 223.042 79.6477 223.716 80.1705C224.39 80.6856 225.216 80.9432 226.193 80.9432C227.208 80.9432 228.057 80.6742 228.739 80.1364C229.42 79.5909 229.936 78.8523 230.284 77.9205C230.64 76.9886 230.818 75.9394 230.818 74.7727C230.818 73.6212 230.644 72.5871 230.295 71.6705C229.955 70.7538 229.439 70.0303 228.75 69.5C228.068 68.9697 227.216 68.7045 226.193 68.7045C225.208 68.7045 224.375 68.9583 223.693 69.4659C223.019 69.9735 222.508 70.6818 222.159 71.5909C221.811 72.5 221.636 73.5606 221.636 74.7727ZM265.591 60.2273V83.5H262.364L250.534 66.4318H250.318V83.5H246.807V60.2273H250.057L261.898 77.3182H262.114V60.2273H265.591ZM275.52 83.8864C274.414 83.8864 273.414 83.6818 272.52 83.2727C271.626 82.8561 270.918 82.2538 270.395 81.4659C269.88 80.678 269.622 79.7121 269.622 78.5682C269.622 77.5833 269.812 76.7727 270.19 76.1364C270.569 75.5 271.08 74.9962 271.724 74.625C272.368 74.2538 273.088 73.9735 273.884 73.7841C274.679 73.5947 275.49 73.4508 276.315 73.3523C277.361 73.2311 278.209 73.1326 278.861 73.0568C279.512 72.9735 279.986 72.8409 280.281 72.6591C280.577 72.4773 280.724 72.1818 280.724 71.7727V71.6932C280.724 70.7008 280.444 69.9318 279.884 69.3864C279.33 68.8409 278.505 68.5682 277.406 68.5682C276.262 68.5682 275.361 68.822 274.702 69.3295C274.05 69.8295 273.599 70.3864 273.349 71L270.156 70.2727C270.535 69.2121 271.088 68.3561 271.815 67.7045C272.55 67.0455 273.395 66.5682 274.349 66.2727C275.304 65.9697 276.308 65.8182 277.361 65.8182C278.058 65.8182 278.796 65.9015 279.577 66.0682C280.365 66.2273 281.099 66.5227 281.781 66.9545C282.471 67.3864 283.035 68.0038 283.474 68.8068C283.914 69.6023 284.134 70.6364 284.134 71.9091V83.5H280.815V81.1136H280.679C280.459 81.553 280.13 81.9848 279.69 82.4091C279.251 82.8333 278.687 83.1856 277.997 83.4659C277.308 83.7462 276.482 83.8864 275.52 83.8864ZM276.259 81.1591C277.198 81.1591 278.001 80.9735 278.668 80.6023C279.342 80.2311 279.853 79.7462 280.202 79.1477C280.558 78.5417 280.736 77.8939 280.736 77.2045V74.9545C280.615 75.0758 280.38 75.1894 280.031 75.2955C279.69 75.3939 279.3 75.4811 278.861 75.5568C278.421 75.625 277.993 75.6894 277.577 75.75C277.16 75.803 276.812 75.8485 276.531 75.8864C275.872 75.9697 275.27 76.1098 274.724 76.3068C274.187 76.5038 273.755 76.7879 273.429 77.1591C273.111 77.5227 272.952 78.0076 272.952 78.6136C272.952 79.4545 273.262 80.0909 273.884 80.5227C274.505 80.947 275.296 81.1591 276.259 81.1591ZM302.966 66.0455L296.636 83.5H293L286.659 66.0455H290.307L294.727 79.4773H294.909L299.318 66.0455H302.966Z" fill="#292929"/>
<path d="M200.009 138.227C199.092 138.227 198.255 138.004 197.497 137.557C196.74 137.102 196.134 136.496 195.679 135.739C195.232 134.981 195.009 134.144 195.009 133.227C195.009 132.303 195.232 131.466 195.679 130.716C196.134 129.958 196.74 129.356 197.497 128.909C198.255 128.455 199.092 128.227 200.009 128.227C200.933 128.227 201.77 128.455 202.52 128.909C203.277 129.356 203.88 129.958 204.327 130.716C204.781 131.466 205.009 132.303 205.009 133.227C205.009 134.144 204.781 134.981 204.327 135.739C203.88 136.496 203.277 137.102 202.52 137.557C201.77 138.004 200.933 138.227 200.009 138.227ZM229.682 119.227V142.5H226.284V119.227H229.682ZM234.253 142.5V125.045H237.651V142.5H234.253ZM235.969 122.352C235.378 122.352 234.87 122.155 234.446 121.761C234.029 121.36 233.821 120.883 233.821 120.33C233.821 119.769 234.029 119.292 234.446 118.898C234.87 118.496 235.378 118.295 235.969 118.295C236.56 118.295 237.063 118.496 237.48 118.898C237.904 119.292 238.116 119.769 238.116 120.33C238.116 120.883 237.904 121.36 237.48 121.761C237.063 122.155 236.56 122.352 235.969 122.352ZM255.301 129.307L252.222 129.852C252.093 129.458 251.888 129.083 251.608 128.727C251.335 128.371 250.964 128.08 250.494 127.852C250.025 127.625 249.438 127.511 248.733 127.511C247.771 127.511 246.968 127.727 246.324 128.159C245.68 128.583 245.358 129.133 245.358 129.807C245.358 130.39 245.574 130.86 246.006 131.216C246.438 131.572 247.134 131.864 248.097 132.091L250.869 132.727C252.475 133.098 253.672 133.67 254.46 134.443C255.248 135.216 255.642 136.22 255.642 137.455C255.642 138.5 255.339 139.432 254.733 140.25C254.134 141.061 253.297 141.697 252.222 142.159C251.153 142.621 249.915 142.852 248.506 142.852C246.551 142.852 244.956 142.436 243.722 141.602C242.487 140.761 241.729 139.568 241.449 138.023L244.733 137.523C244.938 138.379 245.358 139.027 245.994 139.466C246.631 139.898 247.46 140.114 248.483 140.114C249.597 140.114 250.487 139.883 251.153 139.42C251.82 138.951 252.153 138.379 252.153 137.705C252.153 137.159 251.949 136.701 251.54 136.33C251.138 135.958 250.521 135.678 249.688 135.489L246.733 134.841C245.104 134.47 243.9 133.879 243.119 133.068C242.347 132.258 241.96 131.231 241.96 129.989C241.96 128.958 242.248 128.057 242.824 127.284C243.4 126.511 244.195 125.909 245.21 125.477C246.225 125.038 247.388 124.818 248.699 124.818C250.585 124.818 252.07 125.227 253.153 126.045C254.237 126.856 254.953 127.943 255.301 129.307ZM267.526 125.045V127.773H257.991V125.045H267.526ZM260.548 120.864H263.946V137.375C263.946 138.034 264.045 138.53 264.241 138.864C264.438 139.189 264.692 139.413 265.003 139.534C265.321 139.648 265.666 139.705 266.037 139.705C266.31 139.705 266.548 139.686 266.753 139.648C266.957 139.61 267.116 139.58 267.23 139.557L267.844 142.364C267.647 142.439 267.366 142.515 267.003 142.591C266.639 142.674 266.185 142.72 265.639 142.727C264.745 142.742 263.912 142.583 263.139 142.25C262.366 141.917 261.741 141.402 261.264 140.705C260.787 140.008 260.548 139.133 260.548 138.08V120.864Z" fill="#292929"/>
<path d="M200.009 197.227C199.092 197.227 198.255 197.004 197.497 196.557C196.74 196.102 196.134 195.496 195.679 194.739C195.232 193.981 195.009 193.144 195.009 192.227C195.009 191.303 195.232 190.466 195.679 189.716C196.134 188.958 196.74 188.356 197.497 187.909C198.255 187.455 199.092 187.227 200.009 187.227C200.933 187.227 201.77 187.455 202.52 187.909C203.277 188.356 203.88 188.958 204.327 189.716C204.781 190.466 205.009 191.303 205.009 192.227C205.009 193.144 204.781 193.981 204.327 194.739C203.88 195.496 203.277 196.102 202.52 196.557C201.77 197.004 200.933 197.227 200.009 197.227ZM229.682 178.227V201.5H226.284V178.227H229.682ZM234.253 201.5V184.045H237.651V201.5H234.253ZM235.969 181.352C235.378 181.352 234.87 181.155 234.446 180.761C234.029 180.36 233.821 179.883 233.821 179.33C233.821 178.769 234.029 178.292 234.446 177.898C234.87 177.496 235.378 177.295 235.969 177.295C236.56 177.295 237.063 177.496 237.48 177.898C237.904 178.292 238.116 178.769 238.116 179.33C238.116 179.883 237.904 180.36 237.48 180.761C237.063 181.155 236.56 181.352 235.969 181.352ZM255.301 188.307L252.222 188.852C252.093 188.458 251.888 188.083 251.608 187.727C251.335 187.371 250.964 187.08 250.494 186.852C250.025 186.625 249.438 186.511 248.733 186.511C247.771 186.511 246.968 186.727 246.324 187.159C245.68 187.583 245.358 188.133 245.358 188.807C245.358 189.39 245.574 189.86 246.006 190.216C246.438 190.572 247.134 190.864 248.097 191.091L250.869 191.727C252.475 192.098 253.672 192.67 254.46 193.443C255.248 194.216 255.642 195.22 255.642 196.455C255.642 197.5 255.339 198.432 254.733 199.25C254.134 200.061 253.297 200.697 252.222 201.159C251.153 201.621 249.915 201.852 248.506 201.852C246.551 201.852 244.956 201.436 243.722 200.602C242.487 199.761 241.729 198.568 241.449 197.023L244.733 196.523C244.938 197.379 245.358 198.027 245.994 198.466C246.631 198.898 247.46 199.114 248.483 199.114C249.597 199.114 250.487 198.883 251.153 198.42C251.82 197.951 252.153 197.379 252.153 196.705C252.153 196.159 251.949 195.701 251.54 195.33C251.138 194.958 250.521 194.678 249.688 194.489L246.733 193.841C245.104 193.47 243.9 192.879 243.119 192.068C242.347 191.258 241.96 190.231 241.96 188.989C241.96 187.958 242.248 187.057 242.824 186.284C243.4 185.511 244.195 184.909 245.21 184.477C246.225 184.038 247.388 183.818 248.699 183.818C250.585 183.818 252.07 184.227 253.153 185.045C254.237 185.856 254.953 186.943 255.301 188.307ZM267.526 184.045V186.773H257.991V184.045H267.526ZM260.548 179.864H263.946V196.375C263.946 197.034 264.045 197.53 264.241 197.864C264.438 198.189 264.692 198.413 265.003 198.534C265.321 198.648 265.666 198.705 266.037 198.705C266.31 198.705 266.548 198.686 266.753 198.648C266.957 198.61 267.116 198.58 267.23 198.557L267.844 201.364C267.647 201.439 267.366 201.515 267.003 201.591C266.639 201.674 266.185 201.72 265.639 201.727C264.745 201.742 263.912 201.583 263.139 201.25C262.366 200.917 261.741 200.402 261.264 199.705C260.787 199.008 260.548 198.133 260.548 197.08V179.864Z" fill="#292929"/>
<path d="M200.009 256.227C199.092 256.227 198.255 256.004 197.497 255.557C196.74 255.102 196.134 254.496 195.679 253.739C195.232 252.981 195.009 252.144 195.009 251.227C195.009 250.303 195.232 249.466 195.679 248.716C196.134 247.958 196.74 247.356 197.497 246.909C198.255 246.455 199.092 246.227 200.009 246.227C200.933 246.227 201.77 246.455 202.52 246.909C203.277 247.356 203.88 247.958 204.327 248.716C204.781 249.466 205.009 250.303 205.009 251.227C205.009 252.144 204.781 252.981 204.327 253.739C203.88 254.496 203.277 255.102 202.52 255.557C201.77 256.004 200.933 256.227 200.009 256.227ZM229.682 237.227V260.5H226.284V237.227H229.682ZM234.253 260.5V243.045H237.651V260.5H234.253ZM235.969 240.352C235.378 240.352 234.87 240.155 234.446 239.761C234.029 239.36 233.821 238.883 233.821 238.33C233.821 237.769 234.029 237.292 234.446 236.898C234.87 236.496 235.378 236.295 235.969 236.295C236.56 236.295 237.063 236.496 237.48 236.898C237.904 237.292 238.116 237.769 238.116 238.33C238.116 238.883 237.904 239.36 237.48 239.761C237.063 240.155 236.56 240.352 235.969 240.352ZM255.301 247.307L252.222 247.852C252.093 247.458 251.888 247.083 251.608 246.727C251.335 246.371 250.964 246.08 250.494 245.852C250.025 245.625 249.438 245.511 248.733 245.511C247.771 245.511 246.968 245.727 246.324 246.159C245.68 246.583 245.358 247.133 245.358 247.807C245.358 248.39 245.574 248.86 246.006 249.216C246.438 249.572 247.134 249.864 248.097 250.091L250.869 250.727C252.475 251.098 253.672 251.67 254.46 252.443C255.248 253.216 255.642 254.22 255.642 255.455C255.642 256.5 255.339 257.432 254.733 258.25C254.134 259.061 253.297 259.697 252.222 260.159C251.153 260.621 249.915 260.852 248.506 260.852C246.551 260.852 244.956 260.436 243.722 259.602C242.487 258.761 241.729 257.568 241.449 256.023L244.733 255.523C244.938 256.379 245.358 257.027 245.994 257.466C246.631 257.898 247.46 258.114 248.483 258.114C249.597 258.114 250.487 257.883 251.153 257.42C251.82 256.951 252.153 256.379 252.153 255.705C252.153 255.159 251.949 254.701 251.54 254.33C251.138 253.958 250.521 253.678 249.688 253.489L246.733 252.841C245.104 252.47 243.9 251.879 243.119 251.068C242.347 250.258 241.96 249.231 241.96 247.989C241.96 246.958 242.248 246.057 242.824 245.284C243.4 244.511 244.195 243.909 245.21 243.477C246.225 243.038 247.388 242.818 248.699 242.818C250.585 242.818 252.07 243.227 253.153 244.045C254.237 244.856 254.953 245.943 255.301 247.307ZM267.526 243.045V245.773H257.991V243.045H267.526ZM260.548 238.864H263.946V255.375C263.946 256.034 264.045 256.53 264.241 256.864C264.438 257.189 264.692 257.413 265.003 257.534C265.321 257.648 265.666 257.705 266.037 257.705C266.31 257.705 266.548 257.686 266.753 257.648C266.957 257.61 267.116 257.58 267.23 257.557L267.844 260.364C267.647 260.439 267.366 260.515 267.003 260.591C266.639 260.674 266.185 260.72 265.639 260.727C264.745 260.742 263.912 260.583 263.139 260.25C262.366 259.917 261.741 259.402 261.264 258.705C260.787 258.008 260.548 257.133 260.548 256.08V238.864Z" fill="#292929"/>
<path d="M200.009 315.227C199.092 315.227 198.255 315.004 197.497 314.557C196.74 314.102 196.134 313.496 195.679 312.739C195.232 311.981 195.009 311.144 195.009 310.227C195.009 309.303 195.232 308.466 195.679 307.716C196.134 306.958 196.74 306.356 197.497 305.909C198.255 305.455 199.092 305.227 200.009 305.227C200.933 305.227 201.77 305.455 202.52 305.909C203.277 306.356 203.88 306.958 204.327 307.716C204.781 308.466 205.009 309.303 205.009 310.227C205.009 311.144 204.781 311.981 204.327 312.739C203.88 313.496 203.277 314.102 202.52 314.557C201.77 315.004 200.933 315.227 200.009 315.227ZM229.682 296.227V319.5H226.284V296.227H229.682ZM234.253 319.5V302.045H237.651V319.5H234.253ZM235.969 299.352C235.378 299.352 234.87 299.155 234.446 298.761C234.029 298.36 233.821 297.883 233.821 297.33C233.821 296.769 234.029 296.292 234.446 295.898C234.87 295.496 235.378 295.295 235.969 295.295C236.56 295.295 237.063 295.496 237.48 295.898C237.904 296.292 238.116 296.769 238.116 297.33C238.116 297.883 237.904 298.36 237.48 298.761C237.063 299.155 236.56 299.352 235.969 299.352ZM255.301 306.307L252.222 306.852C252.093 306.458 251.888 306.083 251.608 305.727C251.335 305.371 250.964 305.08 250.494 304.852C250.025 304.625 249.438 304.511 248.733 304.511C247.771 304.511 246.968 304.727 246.324 305.159C245.68 305.583 245.358 306.133 245.358 306.807C245.358 307.39 245.574 307.86 246.006 308.216C246.438 308.572 247.134 308.864 248.097 309.091L250.869 309.727C252.475 310.098 253.672 310.67 254.46 311.443C255.248 312.216 255.642 313.22 255.642 314.455C255.642 315.5 255.339 316.432 254.733 317.25C254.134 318.061 253.297 318.697 252.222 319.159C251.153 319.621 249.915 319.852 248.506 319.852C246.551 319.852 244.956 319.436 243.722 318.602C242.487 317.761 241.729 316.568 241.449 315.023L244.733 314.523C244.938 315.379 245.358 316.027 245.994 316.466C246.631 316.898 247.46 317.114 248.483 317.114C249.597 317.114 250.487 316.883 251.153 316.42C251.82 315.951 252.153 315.379 252.153 314.705C252.153 314.159 251.949 313.701 251.54 313.33C251.138 312.958 250.521 312.678 249.688 312.489L246.733 311.841C245.104 311.47 243.9 310.879 243.119 310.068C242.347 309.258 241.96 308.231 241.96 306.989C241.96 305.958 242.248 305.057 242.824 304.284C243.4 303.511 244.195 302.909 245.21 302.477C246.225 302.038 247.388 301.818 248.699 301.818C250.585 301.818 252.07 302.227 253.153 303.045C254.237 303.856 254.953 304.943 255.301 306.307ZM267.526 302.045V304.773H257.991V302.045H267.526ZM260.548 297.864H263.946V314.375C263.946 315.034 264.045 315.53 264.241 315.864C264.438 316.189 264.692 316.413 265.003 316.534C265.321 316.648 265.666 316.705 266.037 316.705C266.31 316.705 266.548 316.686 266.753 316.648C266.957 316.61 267.116 316.58 267.23 316.557L267.844 319.364C267.647 319.439 267.366 319.515 267.003 319.591C266.639 319.674 266.185 319.72 265.639 319.727C264.745 319.742 263.912 319.583 263.139 319.25C262.366 318.917 261.741 318.402 261.264 317.705C260.787 317.008 260.548 316.133 260.548 315.08V297.864Z" fill="#292929"/>
</g>
<g filter="url(#filter1_d_1333_1031)">
<path d="M476 66C476 57.1634 483.163 50 492 50H1295C1303.84 50 1311 57.1634 1311 66V715C1311 723.837 1303.84 731 1295 731H492C483.163 731 476 723.837 476 715V66Z" fill="white" shape-rendering="crispEdges"/>
<path d="M795.76 378.727H800.021L807.43 396.818H807.703L815.112 378.727H819.374V402H816.033V385.159H815.817L808.953 401.966H806.18L799.317 385.148H799.101V402H795.76V378.727ZM829.286 402.386C828.179 402.386 827.179 402.182 826.286 401.773C825.392 401.356 824.683 400.754 824.161 399.966C823.645 399.178 823.388 398.212 823.388 397.068C823.388 396.083 823.577 395.273 823.956 394.636C824.335 394 824.846 393.496 825.49 393.125C826.134 392.754 826.854 392.473 827.649 392.284C828.445 392.095 829.255 391.951 830.081 391.852C831.126 391.731 831.975 391.633 832.626 391.557C833.278 391.473 833.751 391.341 834.047 391.159C834.342 390.977 834.49 390.682 834.49 390.273V390.193C834.49 389.201 834.21 388.432 833.649 387.886C833.096 387.341 832.27 387.068 831.172 387.068C830.028 387.068 829.126 387.322 828.467 387.83C827.816 388.33 827.365 388.886 827.115 389.5L823.922 388.773C824.301 387.712 824.854 386.856 825.581 386.205C826.316 385.545 827.161 385.068 828.115 384.773C829.07 384.47 830.073 384.318 831.126 384.318C831.823 384.318 832.562 384.402 833.342 384.568C834.13 384.727 834.865 385.023 835.547 385.455C836.236 385.886 836.801 386.504 837.24 387.307C837.679 388.102 837.899 389.136 837.899 390.409V402H834.581V399.614H834.445C834.225 400.053 833.895 400.485 833.456 400.909C833.017 401.333 832.452 401.686 831.763 401.966C831.073 402.246 830.248 402.386 829.286 402.386ZM830.024 399.659C830.964 399.659 831.767 399.473 832.433 399.102C833.107 398.731 833.619 398.246 833.967 397.648C834.323 397.042 834.501 396.394 834.501 395.705V393.455C834.38 393.576 834.145 393.689 833.797 393.795C833.456 393.894 833.066 393.981 832.626 394.057C832.187 394.125 831.759 394.189 831.342 394.25C830.926 394.303 830.577 394.348 830.297 394.386C829.638 394.47 829.036 394.61 828.49 394.807C827.952 395.004 827.52 395.288 827.195 395.659C826.876 396.023 826.717 396.508 826.717 397.114C826.717 397.955 827.028 398.591 827.649 399.023C828.27 399.447 829.062 399.659 830.024 399.659ZM842.425 402V384.545H845.822V402H842.425ZM844.141 381.852C843.55 381.852 843.042 381.655 842.618 381.261C842.201 380.86 841.993 380.383 841.993 379.83C841.993 379.269 842.201 378.792 842.618 378.398C843.042 377.996 843.55 377.795 844.141 377.795C844.732 377.795 845.235 377.996 845.652 378.398C846.076 378.792 846.288 379.269 846.288 379.83C846.288 380.383 846.076 380.86 845.652 381.261C845.235 381.655 844.732 381.852 844.141 381.852ZM853.791 391.636V402H850.393V384.545H853.655V387.386H853.871C854.272 386.462 854.901 385.72 855.757 385.159C856.621 384.598 857.708 384.318 859.018 384.318C860.208 384.318 861.25 384.568 862.143 385.068C863.037 385.561 863.731 386.295 864.223 387.273C864.715 388.25 864.962 389.458 864.962 390.898V402H861.564V391.307C861.564 390.042 861.234 389.053 860.575 388.341C859.916 387.621 859.011 387.261 857.859 387.261C857.071 387.261 856.371 387.432 855.757 387.773C855.151 388.114 854.67 388.614 854.314 389.273C853.965 389.924 853.791 390.712 853.791 391.636ZM885.339 402.352C883.65 402.352 882.196 401.97 880.976 401.205C879.764 400.432 878.832 399.367 878.18 398.011C877.529 396.655 877.203 395.102 877.203 393.352C877.203 391.58 877.536 390.015 878.203 388.659C878.87 387.295 879.809 386.231 881.021 385.466C882.233 384.701 883.661 384.318 885.305 384.318C886.631 384.318 887.813 384.564 888.851 385.057C889.889 385.542 890.726 386.223 891.362 387.102C892.006 387.981 892.389 389.008 892.51 390.182H889.203C889.021 389.364 888.605 388.659 887.953 388.068C887.309 387.477 886.446 387.182 885.362 387.182C884.415 387.182 883.586 387.432 882.874 387.932C882.169 388.424 881.62 389.129 881.226 390.045C880.832 390.955 880.635 392.03 880.635 393.273C880.635 394.545 880.828 395.644 881.214 396.568C881.601 397.492 882.146 398.208 882.851 398.716C883.563 399.223 884.4 399.477 885.362 399.477C886.006 399.477 886.589 399.36 887.112 399.125C887.643 398.883 888.086 398.538 888.442 398.091C888.805 397.644 889.059 397.106 889.203 396.477H892.51C892.389 397.606 892.021 398.614 891.408 399.5C890.794 400.386 889.972 401.083 888.942 401.591C887.919 402.098 886.718 402.352 885.339 402.352ZM903.496 402.352C901.859 402.352 900.431 401.977 899.212 401.227C897.992 400.477 897.045 399.428 896.371 398.08C895.696 396.731 895.359 395.155 895.359 393.352C895.359 391.542 895.696 389.958 896.371 388.602C897.045 387.246 897.992 386.193 899.212 385.443C900.431 384.693 901.859 384.318 903.496 384.318C905.132 384.318 906.56 384.693 907.78 385.443C909 386.193 909.946 387.246 910.621 388.602C911.295 389.958 911.632 391.542 911.632 393.352C911.632 395.155 911.295 396.731 910.621 398.08C909.946 399.428 909 400.477 907.78 401.227C906.56 401.977 905.132 402.352 903.496 402.352ZM903.507 399.5C904.568 399.5 905.446 399.22 906.143 398.659C906.84 398.098 907.356 397.352 907.689 396.42C908.03 395.489 908.2 394.462 908.2 393.341C908.2 392.227 908.03 391.205 907.689 390.273C907.356 389.333 906.84 388.58 906.143 388.011C905.446 387.443 904.568 387.159 903.507 387.159C902.439 387.159 901.553 387.443 900.848 388.011C900.151 388.58 899.632 389.333 899.291 390.273C898.958 391.205 898.791 392.227 898.791 393.341C898.791 394.462 898.958 395.489 899.291 396.42C899.632 397.352 900.151 398.098 900.848 398.659C901.553 399.22 902.439 399.5 903.507 399.5ZM918.822 391.636V402H915.425V384.545H918.686V387.386H918.902C919.304 386.462 919.932 385.72 920.788 385.159C921.652 384.598 922.739 384.318 924.05 384.318C925.239 384.318 926.281 384.568 927.175 385.068C928.069 385.561 928.762 386.295 929.254 387.273C929.747 388.25 929.993 389.458 929.993 390.898V402H926.595V391.307C926.595 390.042 926.266 389.053 925.607 388.341C924.947 387.621 924.042 387.261 922.891 387.261C922.103 387.261 921.402 387.432 920.788 387.773C920.182 388.114 919.701 388.614 919.345 389.273C918.997 389.924 918.822 390.712 918.822 391.636ZM942.697 384.545V387.273H933.163V384.545H942.697ZM935.72 380.364H939.118V396.875C939.118 397.534 939.216 398.03 939.413 398.364C939.61 398.689 939.864 398.913 940.175 399.034C940.493 399.148 940.838 399.205 941.209 399.205C941.482 399.205 941.72 399.186 941.925 399.148C942.129 399.11 942.288 399.08 942.402 399.057L943.016 401.864C942.819 401.939 942.538 402.015 942.175 402.091C941.811 402.174 941.357 402.22 940.811 402.227C939.917 402.242 939.084 402.083 938.311 401.75C937.538 401.417 936.913 400.902 936.436 400.205C935.959 399.508 935.72 398.633 935.72 397.58V380.364ZM953.791 402.352C952.071 402.352 950.59 401.985 949.348 401.25C948.113 400.508 947.159 399.466 946.484 398.125C945.818 396.777 945.484 395.197 945.484 393.386C945.484 391.598 945.818 390.023 946.484 388.659C947.159 387.295 948.098 386.231 949.303 385.466C950.515 384.701 951.931 384.318 953.553 384.318C954.537 384.318 955.492 384.481 956.416 384.807C957.34 385.133 958.17 385.644 958.905 386.341C959.64 387.038 960.219 387.943 960.643 389.057C961.068 390.163 961.28 391.508 961.28 393.091V394.295H947.405V391.75H957.95C957.95 390.856 957.768 390.064 957.405 389.375C957.041 388.678 956.53 388.129 955.871 387.727C955.219 387.326 954.454 387.125 953.575 387.125C952.621 387.125 951.787 387.36 951.075 387.83C950.371 388.292 949.825 388.898 949.439 389.648C949.06 390.39 948.871 391.197 948.871 392.068V394.057C948.871 395.223 949.075 396.216 949.484 397.034C949.901 397.852 950.481 398.477 951.223 398.909C951.965 399.333 952.833 399.545 953.825 399.545C954.469 399.545 955.056 399.455 955.587 399.273C956.117 399.083 956.575 398.803 956.962 398.432C957.348 398.061 957.643 397.602 957.848 397.057L961.064 397.636C960.806 398.583 960.344 399.413 959.678 400.125C959.018 400.83 958.189 401.379 957.189 401.773C956.196 402.159 955.064 402.352 953.791 402.352ZM968.447 391.636V402H965.05V384.545H968.311V387.386H968.527C968.929 386.462 969.557 385.72 970.413 385.159C971.277 384.598 972.364 384.318 973.675 384.318C974.864 384.318 975.906 384.568 976.8 385.068C977.694 385.561 978.387 386.295 978.879 387.273C979.372 388.25 979.618 389.458 979.618 390.898V402H976.22V391.307C976.22 390.042 975.891 389.053 975.232 388.341C974.572 387.621 973.667 387.261 972.516 387.261C971.728 387.261 971.027 387.432 970.413 387.773C969.807 388.114 969.326 388.614 968.97 389.273C968.622 389.924 968.447 390.712 968.447 391.636ZM992.322 384.545V387.273H982.788V384.545H992.322ZM985.345 380.364H988.743V396.875C988.743 397.534 988.841 398.03 989.038 398.364C989.235 398.689 989.489 398.913 989.8 399.034C990.118 399.148 990.463 399.205 990.834 399.205C991.107 399.205 991.345 399.186 991.55 399.148C991.754 399.11 991.913 399.08 992.027 399.057L992.641 401.864C992.444 401.939 992.163 402.015 991.8 402.091C991.436 402.174 990.982 402.22 990.436 402.227C989.542 402.242 988.709 402.083 987.936 401.75C987.163 401.417 986.538 400.902 986.061 400.205C985.584 399.508 985.345 398.633 985.345 397.58V380.364Z" fill="#292929"/>
</g>
<rect width="1512" height="119" transform="translate(0 781)" fill="white" fill-opacity="0.6"/>
<g filter="url(#filter2_d_1333_1031)">
<path d="M384.5 829C384.5 820.163 391.663 813 400.5 813H589.5C598.337 813 605.5 820.163 605.5 829V852C605.5 860.837 598.337 868 589.5 868H400.5C391.663 868 384.5 860.837 384.5 852V829Z" fill="#F5F5F5" shape-rendering="crispEdges"/>
<path d="M416.156 834.841C416.035 833.765 415.535 832.932 414.656 832.341C413.777 831.742 412.671 831.443 411.338 831.443C410.384 831.443 409.558 831.595 408.861 831.898C408.164 832.193 407.622 832.602 407.236 833.125C406.857 833.64 406.668 834.227 406.668 834.886C406.668 835.439 406.796 835.917 407.054 836.318C407.319 836.72 407.664 837.057 408.088 837.33C408.52 837.595 408.982 837.818 409.474 838C409.967 838.174 410.44 838.318 410.895 838.432L413.168 839.023C413.91 839.205 414.671 839.451 415.452 839.761C416.232 840.072 416.955 840.481 417.622 840.989C418.289 841.496 418.827 842.125 419.236 842.875C419.652 843.625 419.861 844.523 419.861 845.568C419.861 846.886 419.52 848.057 418.838 849.08C418.164 850.102 417.183 850.909 415.895 851.5C414.615 852.091 413.065 852.386 411.247 852.386C409.505 852.386 407.997 852.11 406.724 851.557C405.452 851.004 404.455 850.22 403.736 849.205C403.016 848.182 402.618 846.97 402.543 845.568H406.065C406.134 846.409 406.406 847.11 406.884 847.67C407.368 848.223 407.986 848.636 408.736 848.909C409.493 849.174 410.323 849.307 411.224 849.307C412.217 849.307 413.099 849.152 413.872 848.841C414.652 848.523 415.266 848.083 415.713 847.523C416.16 846.955 416.384 846.292 416.384 845.534C416.384 844.845 416.187 844.28 415.793 843.841C415.406 843.402 414.88 843.038 414.213 842.75C413.554 842.462 412.808 842.208 411.974 841.989L409.224 841.239C407.361 840.731 405.884 839.985 404.793 839C403.709 838.015 403.168 836.712 403.168 835.091C403.168 833.75 403.531 832.58 404.259 831.58C404.986 830.58 405.971 829.803 407.213 829.25C408.455 828.689 409.857 828.409 411.418 828.409C412.993 828.409 414.384 828.686 415.588 829.239C416.8 829.792 417.755 830.553 418.452 831.523C419.149 832.485 419.512 833.591 419.543 834.841H416.156ZM434.841 844.761V834.545H438.25V852H434.909V848.977H434.727C434.326 849.909 433.682 850.686 432.795 851.307C431.917 851.92 430.822 852.227 429.511 852.227C428.39 852.227 427.398 851.981 426.534 851.489C425.678 850.989 425.004 850.25 424.511 849.273C424.027 848.295 423.784 847.087 423.784 845.648V834.545H427.182V845.239C427.182 846.428 427.511 847.375 428.17 848.08C428.83 848.784 429.686 849.136 430.739 849.136C431.375 849.136 432.008 848.977 432.636 848.659C433.273 848.341 433.799 847.86 434.216 847.216C434.64 846.572 434.848 845.754 434.841 844.761ZM443.088 852V828.727H446.486V837.375H446.69C446.887 837.011 447.171 836.591 447.543 836.114C447.914 835.636 448.429 835.22 449.088 834.864C449.747 834.5 450.618 834.318 451.702 834.318C453.111 834.318 454.368 834.674 455.474 835.386C456.58 836.098 457.448 837.125 458.077 838.466C458.713 839.807 459.031 841.42 459.031 843.307C459.031 845.193 458.717 846.811 458.088 848.159C457.459 849.5 456.596 850.534 455.497 851.261C454.399 851.981 453.145 852.341 451.736 852.341C450.675 852.341 449.808 852.163 449.134 851.807C448.467 851.451 447.944 851.034 447.565 850.557C447.187 850.08 446.895 849.655 446.69 849.284H446.406V852H443.088ZM446.418 843.273C446.418 844.5 446.596 845.576 446.952 846.5C447.308 847.424 447.823 848.148 448.497 848.67C449.171 849.186 449.997 849.443 450.974 849.443C451.99 849.443 452.838 849.174 453.52 848.636C454.202 848.091 454.717 847.352 455.065 846.42C455.421 845.489 455.599 844.439 455.599 843.273C455.599 842.121 455.425 841.087 455.077 840.17C454.736 839.254 454.221 838.53 453.531 838C452.849 837.47 451.997 837.205 450.974 837.205C449.99 837.205 449.156 837.458 448.474 837.966C447.8 838.473 447.289 839.182 446.94 840.091C446.592 841 446.418 842.061 446.418 843.273ZM490.372 828.727V852H487.145L475.315 834.932H475.099V852H471.588V828.727H474.838L486.679 845.818H486.895V828.727H490.372ZM500.301 852.386C499.195 852.386 498.195 852.182 497.301 851.773C496.407 851.356 495.699 850.754 495.176 849.966C494.661 849.178 494.403 848.212 494.403 847.068C494.403 846.083 494.593 845.273 494.972 844.636C495.35 844 495.862 843.496 496.506 843.125C497.15 842.754 497.869 842.473 498.665 842.284C499.46 842.095 500.271 841.951 501.097 841.852C502.142 841.731 502.991 841.633 503.642 841.557C504.294 841.473 504.767 841.341 505.062 841.159C505.358 840.977 505.506 840.682 505.506 840.273V840.193C505.506 839.201 505.225 838.432 504.665 837.886C504.112 837.341 503.286 837.068 502.188 837.068C501.044 837.068 500.142 837.322 499.483 837.83C498.831 838.33 498.381 838.886 498.131 839.5L494.938 838.773C495.316 837.712 495.869 836.856 496.597 836.205C497.331 835.545 498.176 835.068 499.131 834.773C500.085 834.47 501.089 834.318 502.142 834.318C502.839 834.318 503.578 834.402 504.358 834.568C505.146 834.727 505.881 835.023 506.562 835.455C507.252 835.886 507.816 836.504 508.256 837.307C508.695 838.102 508.915 839.136 508.915 840.409V852H505.597V849.614H505.46C505.241 850.053 504.911 850.485 504.472 850.909C504.032 851.333 503.468 851.686 502.778 851.966C502.089 852.246 501.263 852.386 500.301 852.386ZM501.04 849.659C501.979 849.659 502.782 849.473 503.449 849.102C504.123 848.731 504.634 848.246 504.983 847.648C505.339 847.042 505.517 846.394 505.517 845.705V843.455C505.396 843.576 505.161 843.689 504.812 843.795C504.472 843.894 504.081 843.981 503.642 844.057C503.203 844.125 502.775 844.189 502.358 844.25C501.941 844.303 501.593 844.348 501.312 844.386C500.653 844.47 500.051 844.61 499.506 844.807C498.968 845.004 498.536 845.288 498.21 845.659C497.892 846.023 497.733 846.508 497.733 847.114C497.733 847.955 498.044 848.591 498.665 849.023C499.286 849.447 500.078 849.659 501.04 849.659ZM527.747 834.545L521.418 852H517.781L511.44 834.545H515.088L519.509 847.977H519.69L524.099 834.545H527.747ZM539.682 852V828.727H548.205C549.856 828.727 551.223 829 552.307 829.545C553.39 830.083 554.201 830.814 554.739 831.739C555.277 832.655 555.545 833.689 555.545 834.841C555.545 835.811 555.367 836.629 555.011 837.295C554.655 837.955 554.178 838.485 553.58 838.886C552.989 839.28 552.337 839.568 551.625 839.75V839.977C552.398 840.015 553.152 840.265 553.886 840.727C554.629 841.182 555.242 841.83 555.727 842.67C556.212 843.511 556.455 844.534 556.455 845.739C556.455 846.928 556.174 847.996 555.614 848.943C555.061 849.883 554.205 850.629 553.045 851.182C551.886 851.727 550.405 852 548.602 852H539.682ZM543.193 848.989H548.261C549.943 848.989 551.148 848.663 551.875 848.011C552.602 847.36 552.966 846.545 552.966 845.568C552.966 844.833 552.78 844.159 552.409 843.545C552.038 842.932 551.508 842.443 550.818 842.08C550.136 841.716 549.326 841.534 548.386 841.534H543.193V848.989ZM543.193 838.795H547.898C548.686 838.795 549.394 838.644 550.023 838.341C550.659 838.038 551.163 837.614 551.534 837.068C551.913 836.515 552.102 835.864 552.102 835.114C552.102 834.152 551.765 833.345 551.091 832.693C550.417 832.042 549.383 831.716 547.989 831.716H543.193V838.795ZM568.494 834.545V837.273H558.96V834.545H568.494ZM561.517 830.364H564.915V846.875C564.915 847.534 565.013 848.03 565.21 848.364C565.407 848.689 565.661 848.913 565.972 849.034C566.29 849.148 566.634 849.205 567.006 849.205C567.278 849.205 567.517 849.186 567.722 849.148C567.926 849.11 568.085 849.08 568.199 849.057L568.812 851.864C568.616 851.939 568.335 852.015 567.972 852.091C567.608 852.174 567.153 852.22 566.608 852.227C565.714 852.242 564.881 852.083 564.108 851.75C563.335 851.417 562.71 850.902 562.233 850.205C561.756 849.508 561.517 848.633 561.517 847.58V830.364ZM575.651 841.636V852H572.253V834.545H575.514V837.386H575.73C576.132 836.462 576.76 835.72 577.616 835.159C578.48 834.598 579.567 834.318 580.878 834.318C582.067 834.318 583.109 834.568 584.003 835.068C584.897 835.561 585.59 836.295 586.082 837.273C586.575 838.25 586.821 839.458 586.821 840.898V852H583.423V841.307C583.423 840.042 583.094 839.053 582.435 838.341C581.776 837.621 580.87 837.261 579.719 837.261C578.931 837.261 578.23 837.432 577.616 837.773C577.01 838.114 576.529 838.614 576.173 839.273C575.825 839.924 575.651 840.712 575.651 841.636Z" fill="#292929"/>
</g>
<g filter="url(#filter3_d_1333_1031)">
<path d="M645.5 829C645.5 820.163 652.663 813 661.5 813H850.5C859.337 813 866.5 820.163 866.5 829V852C866.5 860.837 859.337 868 850.5 868H661.5C652.663 868 645.5 860.837 645.5 852V829Z" fill="#F5F5F5" shape-rendering="crispEdges"/>
<path d="M677.156 834.841C677.035 833.765 676.535 832.932 675.656 832.341C674.777 831.742 673.671 831.443 672.338 831.443C671.384 831.443 670.558 831.595 669.861 831.898C669.164 832.193 668.622 832.602 668.236 833.125C667.857 833.64 667.668 834.227 667.668 834.886C667.668 835.439 667.796 835.917 668.054 836.318C668.319 836.72 668.664 837.057 669.088 837.33C669.52 837.595 669.982 837.818 670.474 838C670.967 838.174 671.44 838.318 671.895 838.432L674.168 839.023C674.91 839.205 675.671 839.451 676.452 839.761C677.232 840.072 677.955 840.481 678.622 840.989C679.289 841.496 679.827 842.125 680.236 842.875C680.652 843.625 680.861 844.523 680.861 845.568C680.861 846.886 680.52 848.057 679.838 849.08C679.164 850.102 678.183 850.909 676.895 851.5C675.615 852.091 674.065 852.386 672.247 852.386C670.505 852.386 668.997 852.11 667.724 851.557C666.452 851.004 665.455 850.22 664.736 849.205C664.016 848.182 663.618 846.97 663.543 845.568H667.065C667.134 846.409 667.406 847.11 667.884 847.67C668.368 848.223 668.986 848.636 669.736 848.909C670.493 849.174 671.323 849.307 672.224 849.307C673.217 849.307 674.099 849.152 674.872 848.841C675.652 848.523 676.266 848.083 676.713 847.523C677.16 846.955 677.384 846.292 677.384 845.534C677.384 844.845 677.187 844.28 676.793 843.841C676.406 843.402 675.88 843.038 675.213 842.75C674.554 842.462 673.808 842.208 672.974 841.989L670.224 841.239C668.361 840.731 666.884 839.985 665.793 839C664.709 838.015 664.168 836.712 664.168 835.091C664.168 833.75 664.531 832.58 665.259 831.58C665.986 830.58 666.971 829.803 668.213 829.25C669.455 828.689 670.857 828.409 672.418 828.409C673.993 828.409 675.384 828.686 676.588 829.239C677.8 829.792 678.755 830.553 679.452 831.523C680.149 832.485 680.512 833.591 680.543 834.841H677.156ZM695.841 844.761V834.545H699.25V852H695.909V848.977H695.727C695.326 849.909 694.682 850.686 693.795 851.307C692.917 851.92 691.822 852.227 690.511 852.227C689.39 852.227 688.398 851.981 687.534 851.489C686.678 850.989 686.004 850.25 685.511 849.273C685.027 848.295 684.784 847.087 684.784 845.648V834.545H688.182V845.239C688.182 846.428 688.511 847.375 689.17 848.08C689.83 848.784 690.686 849.136 691.739 849.136C692.375 849.136 693.008 848.977 693.636 848.659C694.273 848.341 694.799 847.86 695.216 847.216C695.64 846.572 695.848 845.754 695.841 844.761ZM704.088 852V828.727H707.486V837.375H707.69C707.887 837.011 708.171 836.591 708.543 836.114C708.914 835.636 709.429 835.22 710.088 834.864C710.747 834.5 711.618 834.318 712.702 834.318C714.111 834.318 715.368 834.674 716.474 835.386C717.58 836.098 718.448 837.125 719.077 838.466C719.713 839.807 720.031 841.42 720.031 843.307C720.031 845.193 719.717 846.811 719.088 848.159C718.459 849.5 717.596 850.534 716.497 851.261C715.399 851.981 714.145 852.341 712.736 852.341C711.675 852.341 710.808 852.163 710.134 851.807C709.467 851.451 708.944 851.034 708.565 850.557C708.187 850.08 707.895 849.655 707.69 849.284H707.406V852H704.088ZM707.418 843.273C707.418 844.5 707.596 845.576 707.952 846.5C708.308 847.424 708.823 848.148 709.497 848.67C710.171 849.186 710.997 849.443 711.974 849.443C712.99 849.443 713.838 849.174 714.52 848.636C715.202 848.091 715.717 847.352 716.065 846.42C716.421 845.489 716.599 844.439 716.599 843.273C716.599 842.121 716.425 841.087 716.077 840.17C715.736 839.254 715.221 838.53 714.531 838C713.849 837.47 712.997 837.205 711.974 837.205C710.99 837.205 710.156 837.458 709.474 837.966C708.8 838.473 708.289 839.182 707.94 840.091C707.592 841 707.418 842.061 707.418 843.273ZM751.372 828.727V852H748.145L736.315 834.932H736.099V852H732.588V828.727H735.838L747.679 845.818H747.895V828.727H751.372ZM761.301 852.386C760.195 852.386 759.195 852.182 758.301 851.773C757.407 851.356 756.699 850.754 756.176 849.966C755.661 849.178 755.403 848.212 755.403 847.068C755.403 846.083 755.593 845.273 755.972 844.636C756.35 844 756.862 843.496 757.506 843.125C758.15 842.754 758.869 842.473 759.665 842.284C760.46 842.095 761.271 841.951 762.097 841.852C763.142 841.731 763.991 841.633 764.642 841.557C765.294 841.473 765.767 841.341 766.062 841.159C766.358 840.977 766.506 840.682 766.506 840.273V840.193C766.506 839.201 766.225 838.432 765.665 837.886C765.112 837.341 764.286 837.068 763.188 837.068C762.044 837.068 761.142 837.322 760.483 837.83C759.831 838.33 759.381 838.886 759.131 839.5L755.938 838.773C756.316 837.712 756.869 836.856 757.597 836.205C758.331 835.545 759.176 835.068 760.131 834.773C761.085 834.47 762.089 834.318 763.142 834.318C763.839 834.318 764.578 834.402 765.358 834.568C766.146 834.727 766.881 835.023 767.562 835.455C768.252 835.886 768.816 836.504 769.256 837.307C769.695 838.102 769.915 839.136 769.915 840.409V852H766.597V849.614H766.46C766.241 850.053 765.911 850.485 765.472 850.909C765.032 851.333 764.468 851.686 763.778 851.966C763.089 852.246 762.263 852.386 761.301 852.386ZM762.04 849.659C762.979 849.659 763.782 849.473 764.449 849.102C765.123 848.731 765.634 848.246 765.983 847.648C766.339 847.042 766.517 846.394 766.517 845.705V843.455C766.396 843.576 766.161 843.689 765.812 843.795C765.472 843.894 765.081 843.981 764.642 844.057C764.203 844.125 763.775 844.189 763.358 844.25C762.941 844.303 762.593 844.348 762.312 844.386C761.653 844.47 761.051 844.61 760.506 844.807C759.968 845.004 759.536 845.288 759.21 845.659C758.892 846.023 758.733 846.508 758.733 847.114C758.733 847.955 759.044 848.591 759.665 849.023C760.286 849.447 761.078 849.659 762.04 849.659ZM788.747 834.545L782.418 852H778.781L772.44 834.545H776.088L780.509 847.977H780.69L785.099 834.545H788.747ZM800.682 852V828.727H809.205C810.856 828.727 812.223 829 813.307 829.545C814.39 830.083 815.201 830.814 815.739 831.739C816.277 832.655 816.545 833.689 816.545 834.841C816.545 835.811 816.367 836.629 816.011 837.295C815.655 837.955 815.178 838.485 814.58 838.886C813.989 839.28 813.337 839.568 812.625 839.75V839.977C813.398 840.015 814.152 840.265 814.886 840.727C815.629 841.182 816.242 841.83 816.727 842.67C817.212 843.511 817.455 844.534 817.455 845.739C817.455 846.928 817.174 847.996 816.614 848.943C816.061 849.883 815.205 850.629 814.045 851.182C812.886 851.727 811.405 852 809.602 852H800.682ZM804.193 848.989H809.261C810.943 848.989 812.148 848.663 812.875 848.011C813.602 847.36 813.966 846.545 813.966 845.568C813.966 844.833 813.78 844.159 813.409 843.545C813.038 842.932 812.508 842.443 811.818 842.08C811.136 841.716 810.326 841.534 809.386 841.534H804.193V848.989ZM804.193 838.795H808.898C809.686 838.795 810.394 838.644 811.023 838.341C811.659 838.038 812.163 837.614 812.534 837.068C812.913 836.515 813.102 835.864 813.102 835.114C813.102 834.152 812.765 833.345 812.091 832.693C811.417 832.042 810.383 831.716 808.989 831.716H804.193V838.795ZM829.494 834.545V837.273H819.96V834.545H829.494ZM822.517 830.364H825.915V846.875C825.915 847.534 826.013 848.03 826.21 848.364C826.407 848.689 826.661 848.913 826.972 849.034C827.29 849.148 827.634 849.205 828.006 849.205C828.278 849.205 828.517 849.186 828.722 849.148C828.926 849.11 829.085 849.08 829.199 849.057L829.812 851.864C829.616 851.939 829.335 852.015 828.972 852.091C828.608 852.174 828.153 852.22 827.608 852.227C826.714 852.242 825.881 852.083 825.108 851.75C824.335 851.417 823.71 850.902 823.233 850.205C822.756 849.508 822.517 848.633 822.517 847.58V830.364ZM836.651 841.636V852H833.253V834.545H836.514V837.386H836.73C837.132 836.462 837.76 835.72 838.616 835.159C839.48 834.598 840.567 834.318 841.878 834.318C843.067 834.318 844.109 834.568 845.003 835.068C845.897 835.561 846.59 836.295 847.082 837.273C847.575 838.25 847.821 839.458 847.821 840.898V852H844.423V841.307C844.423 840.042 844.094 839.053 843.435 838.341C842.776 837.621 841.87 837.261 840.719 837.261C839.931 837.261 839.23 837.432 838.616 837.773C838.01 838.114 837.529 838.614 837.173 839.273C836.825 839.924 836.651 840.712 836.651 841.636Z" fill="#292929"/>
</g>
<g filter="url(#filter4_d_1333_1031)">
<path d="M906.5 829C906.5 820.163 913.663 813 922.5 813H1111.5C1120.34 813 1127.5 820.163 1127.5 829V852C1127.5 860.837 1120.34 868 1111.5 868H922.5C913.663 868 906.5 860.837 906.5 852V829Z" fill="#F5F5F5" shape-rendering="crispEdges"/>
<path d="M938.156 834.841C938.035 833.765 937.535 832.932 936.656 832.341C935.777 831.742 934.671 831.443 933.338 831.443C932.384 831.443 931.558 831.595 930.861 831.898C930.164 832.193 929.622 832.602 929.236 833.125C928.857 833.64 928.668 834.227 928.668 834.886C928.668 835.439 928.796 835.917 929.054 836.318C929.319 836.72 929.664 837.057 930.088 837.33C930.52 837.595 930.982 837.818 931.474 838C931.967 838.174 932.44 838.318 932.895 838.432L935.168 839.023C935.91 839.205 936.671 839.451 937.452 839.761C938.232 840.072 938.955 840.481 939.622 840.989C940.289 841.496 940.827 842.125 941.236 842.875C941.652 843.625 941.861 844.523 941.861 845.568C941.861 846.886 941.52 848.057 940.838 849.08C940.164 850.102 939.183 850.909 937.895 851.5C936.615 852.091 935.065 852.386 933.247 852.386C931.505 852.386 929.997 852.11 928.724 851.557C927.452 851.004 926.455 850.22 925.736 849.205C925.016 848.182 924.618 846.97 924.543 845.568H928.065C928.134 846.409 928.406 847.11 928.884 847.67C929.368 848.223 929.986 848.636 930.736 848.909C931.493 849.174 932.323 849.307 933.224 849.307C934.217 849.307 935.099 849.152 935.872 848.841C936.652 848.523 937.266 848.083 937.713 847.523C938.16 846.955 938.384 846.292 938.384 845.534C938.384 844.845 938.187 844.28 937.793 843.841C937.406 843.402 936.88 843.038 936.213 842.75C935.554 842.462 934.808 842.208 933.974 841.989L931.224 841.239C929.361 840.731 927.884 839.985 926.793 839C925.709 838.015 925.168 836.712 925.168 835.091C925.168 833.75 925.531 832.58 926.259 831.58C926.986 830.58 927.971 829.803 929.213 829.25C930.455 828.689 931.857 828.409 933.418 828.409C934.993 828.409 936.384 828.686 937.588 829.239C938.8 829.792 939.755 830.553 940.452 831.523C941.149 832.485 941.512 833.591 941.543 834.841H938.156ZM956.841 844.761V834.545H960.25V852H956.909V848.977H956.727C956.326 849.909 955.682 850.686 954.795 851.307C953.917 851.92 952.822 852.227 951.511 852.227C950.39 852.227 949.398 851.981 948.534 851.489C947.678 850.989 947.004 850.25 946.511 849.273C946.027 848.295 945.784 847.087 945.784 845.648V834.545H949.182V845.239C949.182 846.428 949.511 847.375 950.17 848.08C950.83 848.784 951.686 849.136 952.739 849.136C953.375 849.136 954.008 848.977 954.636 848.659C955.273 848.341 955.799 847.86 956.216 847.216C956.64 846.572 956.848 845.754 956.841 844.761ZM965.088 852V828.727H968.486V837.375H968.69C968.887 837.011 969.171 836.591 969.543 836.114C969.914 835.636 970.429 835.22 971.088 834.864C971.747 834.5 972.618 834.318 973.702 834.318C975.111 834.318 976.368 834.674 977.474 835.386C978.58 836.098 979.448 837.125 980.077 838.466C980.713 839.807 981.031 841.42 981.031 843.307C981.031 845.193 980.717 846.811 980.088 848.159C979.459 849.5 978.596 850.534 977.497 851.261C976.399 851.981 975.145 852.341 973.736 852.341C972.675 852.341 971.808 852.163 971.134 851.807C970.467 851.451 969.944 851.034 969.565 850.557C969.187 850.08 968.895 849.655 968.69 849.284H968.406V852H965.088ZM968.418 843.273C968.418 844.5 968.596 845.576 968.952 846.5C969.308 847.424 969.823 848.148 970.497 848.67C971.171 849.186 971.997 849.443 972.974 849.443C973.99 849.443 974.838 849.174 975.52 848.636C976.202 848.091 976.717 847.352 977.065 846.42C977.421 845.489 977.599 844.439 977.599 843.273C977.599 842.121 977.425 841.087 977.077 840.17C976.736 839.254 976.221 838.53 975.531 838C974.849 837.47 973.997 837.205 972.974 837.205C971.99 837.205 971.156 837.458 970.474 837.966C969.8 838.473 969.289 839.182 968.94 840.091C968.592 841 968.418 842.061 968.418 843.273ZM1012.37 828.727V852H1009.14L997.315 834.932H997.099V852H993.588V828.727H996.838L1008.68 845.818H1008.89V828.727H1012.37ZM1022.3 852.386C1021.2 852.386 1020.2 852.182 1019.3 851.773C1018.41 851.356 1017.7 850.754 1017.18 849.966C1016.66 849.178 1016.4 848.212 1016.4 847.068C1016.4 846.083 1016.59 845.273 1016.97 844.636C1017.35 844 1017.86 843.496 1018.51 843.125C1019.15 842.754 1019.87 842.473 1020.66 842.284C1021.46 842.095 1022.27 841.951 1023.1 841.852C1024.14 841.731 1024.99 841.633 1025.64 841.557C1026.29 841.473 1026.77 841.341 1027.06 841.159C1027.36 840.977 1027.51 840.682 1027.51 840.273V840.193C1027.51 839.201 1027.23 838.432 1026.66 837.886C1026.11 837.341 1025.29 837.068 1024.19 837.068C1023.04 837.068 1022.14 837.322 1021.48 837.83C1020.83 838.33 1020.38 838.886 1020.13 839.5L1016.94 838.773C1017.32 837.712 1017.87 836.856 1018.6 836.205C1019.33 835.545 1020.18 835.068 1021.13 834.773C1022.09 834.47 1023.09 834.318 1024.14 834.318C1024.84 834.318 1025.58 834.402 1026.36 834.568C1027.15 834.727 1027.88 835.023 1028.56 835.455C1029.25 835.886 1029.82 836.504 1030.26 837.307C1030.7 838.102 1030.91 839.136 1030.91 840.409V852H1027.6V849.614H1027.46C1027.24 850.053 1026.91 850.485 1026.47 850.909C1026.03 851.333 1025.47 851.686 1024.78 851.966C1024.09 852.246 1023.26 852.386 1022.3 852.386ZM1023.04 849.659C1023.98 849.659 1024.78 849.473 1025.45 849.102C1026.12 848.731 1026.63 848.246 1026.98 847.648C1027.34 847.042 1027.52 846.394 1027.52 845.705V843.455C1027.4 843.576 1027.16 843.689 1026.81 843.795C1026.47 843.894 1026.08 843.981 1025.64 844.057C1025.2 844.125 1024.77 844.189 1024.36 844.25C1023.94 844.303 1023.59 844.348 1023.31 844.386C1022.65 844.47 1022.05 844.61 1021.51 844.807C1020.97 845.004 1020.54 845.288 1020.21 845.659C1019.89 846.023 1019.73 846.508 1019.73 847.114C1019.73 847.955 1020.04 848.591 1020.66 849.023C1021.29 849.447 1022.08 849.659 1023.04 849.659ZM1049.75 834.545L1043.42 852H1039.78L1033.44 834.545H1037.09L1041.51 847.977H1041.69L1046.1 834.545H1049.75ZM1061.68 852V828.727H1070.2C1071.86 828.727 1073.22 829 1074.31 829.545C1075.39 830.083 1076.2 830.814 1076.74 831.739C1077.28 832.655 1077.55 833.689 1077.55 834.841C1077.55 835.811 1077.37 836.629 1077.01 837.295C1076.66 837.955 1076.18 838.485 1075.58 838.886C1074.99 839.28 1074.34 839.568 1073.62 839.75V839.977C1074.4 840.015 1075.15 840.265 1075.89 840.727C1076.63 841.182 1077.24 841.83 1077.73 842.67C1078.21 843.511 1078.45 844.534 1078.45 845.739C1078.45 846.928 1078.17 847.996 1077.61 848.943C1077.06 849.883 1076.2 850.629 1075.05 851.182C1073.89 851.727 1072.41 852 1070.6 852H1061.68ZM1065.19 848.989H1070.26C1071.94 848.989 1073.15 848.663 1073.88 848.011C1074.6 847.36 1074.97 846.545 1074.97 845.568C1074.97 844.833 1074.78 844.159 1074.41 843.545C1074.04 842.932 1073.51 842.443 1072.82 842.08C1072.14 841.716 1071.33 841.534 1070.39 841.534H1065.19V848.989ZM1065.19 838.795H1069.9C1070.69 838.795 1071.39 838.644 1072.02 838.341C1072.66 838.038 1073.16 837.614 1073.53 837.068C1073.91 836.515 1074.1 835.864 1074.1 835.114C1074.1 834.152 1073.77 833.345 1073.09 832.693C1072.42 832.042 1071.38 831.716 1069.99 831.716H1065.19V838.795ZM1090.49 834.545V837.273H1080.96V834.545H1090.49ZM1083.52 830.364H1086.91V846.875C1086.91 847.534 1087.01 848.03 1087.21 848.364C1087.41 848.689 1087.66 848.913 1087.97 849.034C1088.29 849.148 1088.63 849.205 1089.01 849.205C1089.28 849.205 1089.52 849.186 1089.72 849.148C1089.93 849.11 1090.09 849.08 1090.2 849.057L1090.81 851.864C1090.62 851.939 1090.34 852.015 1089.97 852.091C1089.61 852.174 1089.15 852.22 1088.61 852.227C1087.71 852.242 1086.88 852.083 1086.11 851.75C1085.34 851.417 1084.71 850.902 1084.23 850.205C1083.76 849.508 1083.52 848.633 1083.52 847.58V830.364ZM1097.65 841.636V852H1094.25V834.545H1097.51V837.386H1097.73C1098.13 836.462 1098.76 835.72 1099.62 835.159C1100.48 834.598 1101.57 834.318 1102.88 834.318C1104.07 834.318 1105.11 834.568 1106 835.068C1106.9 835.561 1107.59 836.295 1108.08 837.273C1108.57 838.25 1108.82 839.458 1108.82 840.898V852H1105.42V841.307C1105.42 840.042 1105.09 839.053 1104.43 838.341C1103.78 837.621 1102.87 837.261 1101.72 837.261C1100.93 837.261 1100.23 837.432 1099.62 837.773C1099.01 838.114 1098.53 838.614 1098.17 839.273C1097.82 839.924 1097.65 840.712 1097.65 841.636Z" fill="#292929"/>
</g>
</g>
<defs>
<filter id="filter0_d_1333_1031" x="156" y="50" width="296" height="296" filterUnits="userSpaceOnUse" color-interpolation-filters="sRGB">
<feFlood flood-opacity="0" result="BackgroundImageFix"/>
<feColorMatrix in="SourceAlpha" type="matrix" values="0 0 0 0 0 0 0 0 0 0 0 0 0 0 0 0 0 0 127 0" result="hardAlpha"/>
<feOffset dx="4" dy="8"/>
<feGaussianBlur stdDeviation="4"/>
<feComposite in2="hardAlpha" operator="out"/>
<feColorMatrix type="matrix" values="0 0 0 0 0.709896 0 0 0 0 0.722551 0 0 0 0 0.725 0 0 0 0.25 0"/>
<feBlend mode="normal" in2="BackgroundImageFix" result="effect1_dropShadow_1333_1031"/>
<feBlend mode="normal" in="SourceGraphic" in2="effect1_dropShadow_1333_1031" result="shape"/>
</filter>
<filter id="filter1_d_1333_1031" x="472" y="50" width="851" height="697" filterUnits="userSpaceOnUse" color-interpolation-filters="sRGB">
<feFlood flood-opacity="0" result="BackgroundImageFix"/>
<feColorMatrix in="SourceAlpha" type="matrix" values="0 0 0 0 0 0 0 0 0 0 0 0 0 0 0 0 0 0 127 0" result="hardAlpha"/>
<feOffset dx="4" dy="8"/>
<feGaussianBlur stdDeviation="4"/>
<feComposite in2="hardAlpha" operator="out"/>
<feColorMatrix type="matrix" values="0 0 0 0 0.709896 0 0 0 0 0.722551 0 0 0 0 0.725 0 0 0 0.25 0"/>
<feBlend mode="normal" in2="BackgroundImageFix" result="effect1_dropShadow_1333_1031"/>
<feBlend mode="normal" in="SourceGraphic" in2="effect1_dropShadow_1333_1031" result="shape"/>
</filter>
<filter id="filter2_d_1333_1031" x="380.5" y="813" width="237" height="71" filterUnits="userSpaceOnUse" color-interpolation-filters="sRGB">
<feFlood flood-opacity="0" result="BackgroundImageFix"/>
<feColorMatrix in="SourceAlpha" type="matrix" values="0 0 0 0 0 0 0 0 0 0 0 0 0 0 0 0 0 0 127 0" result="hardAlpha"/>
<feOffset dx="4" dy="8"/>
<feGaussianBlur stdDeviation="4"/>
<feComposite in2="hardAlpha" operator="out"/>
<feColorMatrix type="matrix" values="0 0 0 0 0.709896 0 0 0 0 0.722551 0 0 0 0 0.725 0 0 0 0.25 0"/>
<feBlend mode="normal" in2="BackgroundImageFix" result="effect1_dropShadow_1333_1031"/>
<feBlend mode="normal" in="SourceGraphic" in2="effect1_dropShadow_1333_1031" result="shape"/>
</filter>
<filter id="filter3_d_1333_1031" x="641.5" y="813" width="237" height="71" filterUnits="userSpaceOnUse" color-interpolation-filters="sRGB">
<feFlood flood-opacity="0" result="BackgroundImageFix"/>
<feColorMatrix in="SourceAlpha" type="matrix" values="0 0 0 0 0 0 0 0 0 0 0 0 0 0 0 0 0 0 127 0" result="hardAlpha"/>
<feOffset dx="4" dy="8"/>
<feGaussianBlur stdDeviation="4"/>
<feComposite in2="hardAlpha" operator="out"/>
<feColorMatrix type="matrix" values="0 0 0 0 0.709896 0 0 0 0 0.722551 0 0 0 0 0.725 0 0 0 0.25 0"/>
<feBlend mode="normal" in2="BackgroundImageFix" result="effect1_dropShadow_1333_1031"/>
<feBlend mode="normal" in="SourceGraphic" in2="effect1_dropShadow_1333_1031" result="shape"/>
</filter>
<filter id="filter4_d_1333_1031" x="902.5" y="813" width="237" height="71" filterUnits="userSpaceOnUse" color-interpolation-filters="sRGB">
<feFlood flood-opacity="0" result="BackgroundImageFix"/>
<feColorMatrix in="SourceAlpha" type="matrix" values="0 0 0 0 0 0 0 0 0 0 0 0 0 0 0 0 0 0 127 0" result="hardAlpha"/>
<feOffset dx="4" dy="8"/>
<feGaussianBlur stdDeviation="4"/>
<feComposite in2="hardAlpha" operator="out"/>
<feColorMatrix type="matrix" values="0 0 0 0 0.709896 0 0 0 0 0.722551 0 0 0 0 0.725 0 0 0 0.25 0"/>
<feBlend mode="normal" in2="BackgroundImageFix" result="effect1_dropShadow_1333_1031"/>
<feBlend mode="normal" in="SourceGraphic" in2="effect1_dropShadow_1333_1031" result="shape"/>
</filter>
<clipPath id="clip0_1333_1031">
<path d="M0 16C0 7.16346 7.16344 0 16 0H1496C1504.84 0 1512 7.16344 1512 16V900H0V16Z" fill="white"/>
</clipPath>
</defs>
</svg>
